<?xml version="1.0" encoding="utf-8" standalone="no"?>
<!DOCTYPE svg PUBLIC "-//W3C//DTD SVG 1.1//EN"
  "http://www.w3.org/Graphics/SVG/1.1/DTD/svg11.dtd">
<!-- Created with matplotlib (https://matplotlib.org/) -->
<svg height="576pt" version="1.1" viewBox="0 0 864 576" width="864pt" xmlns="http://www.w3.org/2000/svg" xmlns:xlink="http://www.w3.org/1999/xlink">
 <metadata>
  <rdf:RDF xmlns:cc="http://creativecommons.org/ns#" xmlns:dc="http://purl.org/dc/elements/1.1/" xmlns:rdf="http://www.w3.org/1999/02/22-rdf-syntax-ns#">
   <cc:Work>
    <dc:type rdf:resource="http://purl.org/dc/dcmitype/StillImage"/>
    <dc:date>2024-04-26T13:38:09.049599</dc:date>
    <dc:format>image/svg+xml</dc:format>
    <dc:creator>
     <cc:Agent>
      <dc:title>Matplotlib v3.3.1, https://matplotlib.org/</dc:title>
     </cc:Agent>
    </dc:creator>
   </cc:Work>
  </rdf:RDF>
 </metadata>
 <defs>
  <style type="text/css">*{stroke-linecap:butt;stroke-linejoin:round;}</style>
 </defs>
 <g id="figure_1">
  <g id="patch_1">
   <path d="M 0 576 
L 864 576 
L 864 0 
L 0 0 
z
" style="fill:#ffffff;"/>
  </g>
  <g id="axes_1">
   <g id="patch_2">
    <path clip-path="url(#p03dd4eb043)" d="M 454.855436 279.484471 
Q 510.488893 211.518114 565.414181 144.416913 
" style="fill:none;stroke:#000000;stroke-linecap:round;"/>
    <path clip-path="url(#p03dd4eb043)" d="M 561.332918 146.245382 
L 565.414181 144.416913 
L 564.428198 148.779004 
L 561.332918 146.245382 
z
" style="stroke:#000000;stroke-linecap:round;"/>
   </g>
   <g id="patch_3">
    <path clip-path="url(#p03dd4eb043)" d="M 457.957293 285.090553 
Q 577.098662 269.891448 695.130985 254.833826 
" style="fill:none;stroke:#000000;stroke-linecap:round;"/>
    <path clip-path="url(#p03dd4eb043)" d="M 690.91005 253.356091 
L 695.130985 254.833826 
L 691.416236 257.323934 
L 690.91005 253.356091 
z
" style="stroke:#000000;stroke-linecap:round;"/>
   </g>
   <g id="patch_4">
    <path clip-path="url(#p03dd4eb043)" d="M 457.637349 283.595349 
Q 572.678522 247.545697 686.652817 211.830367 
" style="fill:none;stroke:#000000;stroke-linecap:round;"/>
    <path clip-path="url(#p03dd4eb043)" d="M 682.237785 211.117977 
L 686.652817 211.830367 
L 683.433886 214.934958 
L 682.237785 211.117977 
z
" style="stroke:#000000;stroke-linecap:round;"/>
   </g>
   <g id="patch_5">
    <path clip-path="url(#p03dd4eb043)" d="M 440.804083 287.463699 
Q 309.095797 307.108651 178.493313 326.588668 
" style="fill:none;stroke:#000000;stroke-linecap:round;"/>
    <path clip-path="url(#p03dd4eb043)" d="M 182.744593 327.976693 
L 178.493313 326.588668 
L 182.154501 324.020459 
L 182.744593 327.976693 
z
" style="stroke:#000000;stroke-linecap:round;"/>
   </g>
   <g id="patch_6">
    <path clip-path="url(#p03dd4eb043)" d="M 456.558959 291.015806 
Q 544.395988 350.026181 631.304967 408.413078 
" style="fill:none;stroke:#000000;stroke-linecap:round;"/>
    <path clip-path="url(#p03dd4eb043)" d="M 629.099991 404.522309 
L 631.304967 408.413078 
L 626.869367 407.842597 
L 629.099991 404.522309 
z
" style="stroke:#000000;stroke-linecap:round;"/>
   </g>
   <g id="patch_7">
    <path clip-path="url(#p03dd4eb043)" d="M 456.684904 281.550912 
Q 545.286361 225.408698 632.943417 169.864903 
" style="fill:none;stroke:#000000;stroke-linecap:round;"/>
    <path clip-path="url(#p03dd4eb043)" d="M 628.494138 170.316475 
L 632.943417 169.864903 
L 630.635107 173.695269 
L 628.494138 170.316475 
z
" style="stroke:#000000;stroke-linecap:round;"/>
   </g>
   <g id="patch_8">
    <path clip-path="url(#p03dd4eb043)" d="M 457.425857 289.35874 
Q 565.200726 331.803592 671.935328 373.838758 
" style="fill:none;stroke:#000000;stroke-linecap:round;"/>
    <path clip-path="url(#p03dd4eb043)" d="M 668.946425 370.512129 
L 671.935328 373.838758 
L 667.480683 374.233903 
L 668.946425 370.512129 
z
" style="stroke:#000000;stroke-linecap:round;"/>
   </g>
   <g id="patch_9">
    <path clip-path="url(#p03dd4eb043)" d="M 446.777978 277.921456 
Q 421.366894 196.895138 396.290375 116.935622 
" style="fill:none;stroke:#000000;stroke-linecap:round;"/>
    <path clip-path="url(#p03dd4eb043)" d="M 395.578999 121.350817 
L 396.290375 116.935622 
L 399.395705 120.15384 
L 395.578999 121.350817 
z
" style="stroke:#000000;stroke-linecap:round;"/>
   </g>
   <g id="patch_10">
    <path clip-path="url(#p03dd4eb043)" d="M 454.250445 293.341479 
Q 506.752621 370.315181 558.624802 446.365245 
" style="fill:none;stroke:#000000;stroke-linecap:round;"/>
    <path clip-path="url(#p03dd4eb043)" d="M 558.02312 441.933769 
L 558.624802 446.365245 
L 554.718612 444.187706 
L 558.02312 441.933769 
z
" style="stroke:#000000;stroke-linecap:round;"/>
   </g>
   <g id="patch_11">
    <path clip-path="url(#p03dd4eb043)" d="M 447.208709 294.573802 
Q 425.818824 377.590041 404.7079 459.523607 
" style="fill:none;stroke:#000000;stroke-linecap:round;"/>
    <path clip-path="url(#p03dd4eb043)" d="M 407.642684 456.149138 
L 404.7079 459.523607 
L 403.769195 455.151098 
L 407.642684 456.149138 
z
" style="stroke:#000000;stroke-linecap:round;"/>
   </g>
   <g id="patch_12">
    <path clip-path="url(#p03dd4eb043)" d="M 458.029724 286.041294 
Q 584.431225 283.92816 709.714847 281.833715 
" style="fill:none;stroke:#000000;stroke-linecap:round;"/>
    <path clip-path="url(#p03dd4eb043)" d="M 705.681975 279.900855 
L 709.714847 281.833715 
L 705.748837 283.900296 
L 705.681975 279.900855 
z
" style="stroke:#000000;stroke-linecap:round;"/>
   </g>
   <g id="patch_13">
    <path clip-path="url(#p03dd4eb043)" d="M 454.755504 292.965726 
Q 506.131857 357.640597 556.812784 421.440035 
" style="fill:none;stroke:#000000;stroke-linecap:round;"/>
    <path clip-path="url(#p03dd4eb043)" d="M 555.890776 417.063975 
L 556.812784 421.440035 
L 552.758731 419.552005 
L 555.890776 417.063975 
z
" style="stroke:#000000;stroke-linecap:round;"/>
   </g>
   <g id="patch_14">
    <path clip-path="url(#p03dd4eb043)" d="M 457.944984 287.409477 
Q 579.640949 304.771855 700.230088 321.976323 
" style="fill:none;stroke:#000000;stroke-linecap:round;"/>
    <path clip-path="url(#p03dd4eb043)" d="M 696.552666 319.431413 
L 700.230088 321.976323 
L 695.987707 323.391314 
L 696.552666 319.431413 
z
" style="stroke:#000000;stroke-linecap:round;"/>
   </g>
   <g id="patch_15">
    <path clip-path="url(#p03dd4eb043)" d="M 457.770093 284.068987 
Q 564.589451 257.147624 670.324676 230.499492 
" style="fill:none;stroke:#000000;stroke-linecap:round;"/>
    <path clip-path="url(#p03dd4eb043)" d="M 665.957192 229.537676 
L 670.324676 230.499492 
L 666.934733 233.416389 
L 665.957192 229.537676 
z
" style="stroke:#000000;stroke-linecap:round;"/>
   </g>
   <g id="patch_16">
    <path clip-path="url(#p03dd4eb043)" d="M 441.182862 283.359292 
Q 329.121192 244.667205 218.116334 206.340009 
" style="fill:none;stroke:#000000;stroke-linecap:round;"/>
    <path clip-path="url(#p03dd4eb043)" d="M 221.244567 209.535969 
L 218.116334 206.340009 
L 222.550042 205.754998 
L 221.244567 209.535969 
z
" style="stroke:#000000;stroke-linecap:round;"/>
   </g>
   <g id="patch_17">
    <path clip-path="url(#p03dd4eb043)" d="M 441.532083 282.506189 
Q 334.664173 232.331309 228.808304 182.631586 
" style="fill:none;stroke:#000000;stroke-linecap:round;"/>
    <path clip-path="url(#p03dd4eb043)" d="M 231.579104 186.141952 
L 228.808304 182.631586 
L 233.279076 182.521165 
L 231.579104 186.141952 
z
" style="stroke:#000000;stroke-linecap:round;"/>
   </g>
   <g id="patch_18">
    <path clip-path="url(#p03dd4eb043)" d="M 440.712384 285.838935 
Q 307.735429 280.507094 175.87561 275.220046 
" style="fill:none;stroke:#000000;stroke-linecap:round;"/>
    <path clip-path="url(#p03dd4eb043)" d="M 179.792271 277.378695 
L 175.87561 275.220046 
L 179.952527 273.381907 
L 179.792271 277.378695 
z
" style="stroke:#000000;stroke-linecap:round;"/>
   </g>
   <g id="patch_19">
    <path clip-path="url(#p03dd4eb043)" d="M 440.791641 285.013752 
Q 312.451452 267.474614 185.219 250.086861 
" style="fill:none;stroke:#000000;stroke-linecap:round;"/>
    <path clip-path="url(#p03dd4eb043)" d="M 188.911358 252.610053 
L 185.219 250.086861 
L 189.452969 248.646891 
L 188.911358 252.610053 
z
" style="stroke:#000000;stroke-linecap:round;"/>
   </g>
   <g id="patch_20">
    <path clip-path="url(#p03dd4eb043)" d="M 444.350433 293.244275 
Q 392.20004 366.57665 340.697599 438.997896 
" style="fill:none;stroke:#000000;stroke-linecap:round;"/>
    <path clip-path="url(#p03dd4eb043)" d="M 344.64566 436.897226 
L 340.697599 438.997896 
L 341.3859 434.579045 
L 344.64566 436.897226 
z
" style="stroke:#000000;stroke-linecap:round;"/>
   </g>
   <g id="patch_21">
    <path clip-path="url(#p03dd4eb043)" d="M 452.51895 294.252686 
Q 482.861779 371.978655 512.798031 448.663138 
" style="fill:none;stroke:#000000;stroke-linecap:round;"/>
    <path clip-path="url(#p03dd4eb043)" d="M 513.206482 444.209693 
L 512.798031 448.663138 
L 509.480346 445.66431 
L 513.206482 444.209693 
z
" style="stroke:#000000;stroke-linecap:round;"/>
   </g>
   <g id="patch_22">
    <path clip-path="url(#p03dd4eb043)" d="M 457.211977 282.51599 
Q 554.041147 237.20022 649.85769 192.358357 
" style="fill:none;stroke:#000000;stroke-linecap:round;"/>
    <path clip-path="url(#p03dd4eb043)" d="M 645.387057 192.242414 
L 649.85769 192.358357 
L 647.082556 195.865297 
L 645.387057 192.242414 
z
" style="stroke:#000000;stroke-linecap:round;"/>
   </g>
   <g id="patch_23">
    <path clip-path="url(#p03dd4eb043)" d="M 453.633794 278.649818 
Q 497.071412 201.875959 539.958473 126.075183 
" style="fill:none;stroke:#000000;stroke-linecap:round;"/>
    <path clip-path="url(#p03dd4eb043)" d="M 536.248042 128.571719 
L 539.958473 126.075183 
L 539.729444 130.54145 
L 536.248042 128.571719 
z
" style="stroke:#000000;stroke-linecap:round;"/>
   </g>
   <g id="patch_24">
    <path clip-path="url(#p03dd4eb043)" d="M 441.071534 288.677089 
Q 319.200665 325.260638 198.400625 361.522742 
" style="fill:none;stroke:#000000;stroke-linecap:round;"/>
    <path clip-path="url(#p03dd4eb043)" d="M 202.806754 362.288264 
L 198.400625 361.522742 
L 201.65672 358.457152 
L 202.806754 362.288264 
z
" style="stroke:#000000;stroke-linecap:round;"/>
   </g>
   <g id="patch_25">
    <path clip-path="url(#p03dd4eb043)" d="M 440.937498 284.195512 
Q 313.985754 254.227215 188.122136 224.515782 
" style="fill:none;stroke:#000000;stroke-linecap:round;"/>
    <path clip-path="url(#p03dd4eb043)" d="M 191.555646 227.381267 
L 188.122136 224.515782 
L 192.474631 223.488265 
L 191.555646 227.381267 
z
" style="stroke:#000000;stroke-linecap:round;"/>
   </g>
   <g id="patch_26">
    <path clip-path="url(#p03dd4eb043)" d="M 442.493634 291.452306 
Q 356.068723 357.64161 270.531436 423.151119 
" style="fill:none;stroke:#000000;stroke-linecap:round;"/>
    <path clip-path="url(#p03dd4eb043)" d="M 274.923155 422.30684 
L 270.531436 423.151119 
L 272.491044 419.131176 
L 274.923155 422.30684 
z
" style="stroke:#000000;stroke-linecap:round;"/>
   </g>
   <g id="patch_27">
    <path clip-path="url(#p03dd4eb043)" d="M 449.055378 294.839256 
Q 445.954003 380.168839 442.893237 464.381126 
" style="fill:none;stroke:#000000;stroke-linecap:round;"/>
    <path clip-path="url(#p03dd4eb043)" d="M 445.037205 460.456409 
L 442.893237 464.381126 
L 441.039844 460.311122 
L 445.037205 460.456409 
z
" style="stroke:#000000;stroke-linecap:round;"/>
   </g>
   <g id="patch_28">
    <path clip-path="url(#p03dd4eb043)" d="M 444.389833 279.098992 
Q 390.136312 201.891222 336.525594 125.598221 
" style="fill:none;stroke:#000000;stroke-linecap:round;"/>
    <path clip-path="url(#p03dd4eb043)" d="M 337.18897 130.020882 
L 336.525594 125.598221 
L 340.461749 127.721117 
L 337.18897 130.020882 
z
" style="stroke:#000000;stroke-linecap:round;"/>
   </g>
   <g id="patch_29">
    <path clip-path="url(#p03dd4eb043)" d="M 442.838215 280.496419 
Q 366.18552 213.725324 290.375864 147.688588 
" style="fill:none;stroke:#000000;stroke-linecap:round;"/>
    <path clip-path="url(#p03dd4eb043)" d="M 292.078351 151.823989 
L 290.375864 147.688588 
L 294.705677 148.807839 
L 292.078351 151.823989 
z
" style="stroke:#000000;stroke-linecap:round;"/>
   </g>
   <g id="patch_30">
    <path clip-path="url(#p03dd4eb043)" d="M 440.7215 286.62398 
Q 310.657599 293.209803 181.710301 299.739086 
" style="fill:none;stroke:#000000;stroke-linecap:round;"/>
    <path clip-path="url(#p03dd4eb043)" d="M 185.806324 301.534245 
L 181.710301 299.739086 
L 185.604042 297.539363 
L 185.806324 301.534245 
z
" style="stroke:#000000;stroke-linecap:round;"/>
   </g>
   <g id="patch_31">
    <path clip-path="url(#p03dd4eb043)" d="M 457.745526 288.384311 
Q 576.84294 319.642256 694.858945 350.616378 
" style="fill:none;stroke:#000000;stroke-linecap:round;"/>
    <path clip-path="url(#p03dd4eb043)" d="M 691.497699 347.666459 
L 694.858945 350.616378 
L 690.482262 351.535424 
L 691.497699 347.666459 
z
" style="stroke:#000000;stroke-linecap:round;"/>
   </g>
   <g id="patch_32">
    <path clip-path="url(#p03dd4eb043)" d="M 445.51575 293.941935 
Q 404.280902 376.920892 363.543594 458.898624 
" style="fill:none;stroke:#000000;stroke-linecap:round;"/>
    <path clip-path="url(#p03dd4eb043)" d="M 367.114697 456.206557 
L 363.543594 458.898624 
L 363.532602 454.426501 
L 367.114697 456.206557 
z
" style="stroke:#000000;stroke-linecap:round;"/>
   </g>
   <g id="patch_33">
    <path clip-path="url(#p03dd4eb043)" d="M 458.015731 286.703593 
Q 570.701018 293.448758 682.270268 300.127119 
" style="fill:none;stroke:#000000;stroke-linecap:round;"/>
    <path clip-path="url(#p03dd4eb043)" d="M 678.396918 297.891686 
L 682.270268 300.127119 
L 678.157912 301.884539 
L 678.396918 297.891686 
z
" style="stroke:#000000;stroke-linecap:round;"/>
   </g>
   <g id="patch_34">
    <path clip-path="url(#p03dd4eb043)" d="M 451.472895 277.782906 
Q 471.621433 197.27382 491.498538 117.84932 
" style="fill:none;stroke:#000000;stroke-linecap:round;"/>
    <path clip-path="url(#p03dd4eb043)" d="M 488.587266 121.244095 
L 491.498538 117.84932 
L 492.467595 122.215202 
L 488.587266 121.244095 
z
" style="stroke:#000000;stroke-linecap:round;"/>
   </g>
   <g id="patch_35">
    <path clip-path="url(#p03dd4eb043)" d="M 455.71907 292.072845 
Q 530.416228 361.329863 604.293526 429.826732 
" style="fill:none;stroke:#000000;stroke-linecap:round;"/>
    <path clip-path="url(#p03dd4eb043)" d="M 602.720103 425.640523 
L 604.293526 429.826732 
L 600.000505 428.573745 
L 602.720103 425.640523 
z
" style="stroke:#000000;stroke-linecap:round;"/>
   </g>
   <g id="patch_36">
    <path clip-path="url(#p03dd4eb043)" d="M 449.164555 277.526553 
Q 447.342632 200.68942 445.547211 124.970006 
" style="fill:none;stroke:#000000;stroke-linecap:round;"/>
    <path clip-path="url(#p03dd4eb043)" d="M 443.642593 129.016292 
L 445.547211 124.970006 
L 447.641469 128.921473 
L 443.642593 129.016292 
z
" style="stroke:#000000;stroke-linecap:round;"/>
   </g>
   <g id="patch_37">
    <path clip-path="url(#p03dd4eb043)" d="M 442.060394 281.536387 
Q 346.172257 220.540469 251.227468 160.14463 
" style="fill:none;stroke:#000000;stroke-linecap:round;"/>
    <path clip-path="url(#p03dd4eb043)" d="M 253.52904 163.979048 
L 251.227468 160.14463 
L 255.675946 160.604023 
L 253.52904 163.979048 
z
" style="stroke:#000000;stroke-linecap:round;"/>
   </g>
   <g id="patch_38">
    <path clip-path="url(#p03dd4eb043)" d="M 307.322646 275.635316 
Q 258.522486 306.43967 210.667758 336.647234 
" style="fill:none;stroke:#000000;stroke-linecap:round;"/>
    <path clip-path="url(#p03dd4eb043)" d="M 215.117809 336.203335 
L 210.667758 336.647234 
L 212.98267 332.820854 
L 215.117809 336.203335 
z
" style="stroke:#000000;stroke-linecap:round;"/>
   </g>
   <g id="patch_39">
    <path clip-path="url(#p03dd4eb043)" d="M 226.848519 390.002343 
Q 216.585505 369.796414 206.828797 350.587307 
" style="fill:none;stroke:#000000;stroke-linecap:round;"/>
    <path clip-path="url(#p03dd4eb043)" d="M 206.857046 355.059354 
L 206.828797 350.587307 
L 210.423384 353.247936 
L 206.857046 355.059354 
z
" style="stroke:#000000;stroke-linecap:round;"/>
   </g>
   <g id="patch_40">
    <path clip-path="url(#p03dd4eb043)" d="M 559.22875 298.651837 
Q 586.957079 224.259503 614.294924 150.914795 
" style="fill:none;stroke:#000000;stroke-linecap:round;"/>
    <path clip-path="url(#p03dd4eb043)" d="M 611.023836 153.964383 
L 614.294924 150.914795 
L 614.771942 155.361418 
L 611.023836 153.964383 
z
" style="stroke:#000000;stroke-linecap:round;"/>
   </g>
   <g id="patch_41">
    <path clip-path="url(#p03dd4eb043)" d="M 552.736554 314.701336 
Q 520.191506 389.172515 488.09417 462.619217 
" style="fill:none;stroke:#000000;stroke-linecap:round;"/>
    <path clip-path="url(#p03dd4eb043)" d="M 491.528594 459.754827 
L 488.09417 462.619217 
L 487.863313 458.153043 
L 491.528594 459.754827 
z
" style="stroke:#000000;stroke-linecap:round;"/>
   </g>
   <g id="patch_42">
    <path clip-path="url(#p03dd4eb043)" d="M 359.891027 366.195043 
Q 330.20873 404.533265 301.210879 441.987443 
" style="fill:none;stroke:#000000;stroke-linecap:round;"/>
    <path clip-path="url(#p03dd4eb043)" d="M 305.241054 440.048967 
L 301.210879 441.987443 
L 302.078202 437.600218 
L 305.241054 440.048967 
z
" style="stroke:#000000;stroke-linecap:round;"/>
   </g>
   <g id="patch_43">
    <path clip-path="url(#p03dd4eb043)" d="M 401.413398 304.673623 
Q 310.442501 344.373291 220.496313 383.625776 
" style="fill:none;stroke:#000000;stroke-linecap:round;"/>
    <path clip-path="url(#p03dd4eb043)" d="M 224.962366 383.858942 
L 220.496313 383.625776 
L 223.362478 380.192833 
L 224.962366 383.858942 
z
" style="stroke:#000000;stroke-linecap:round;"/>
   </g>
   <g id="patch_44">
    <path clip-path="url(#p03dd4eb043)" d="M 417.49151 304.160552 
Q 528.734047 344.460666 638.925404 384.379966 
" style="fill:none;stroke:#000000;stroke-linecap:round;"/>
    <path clip-path="url(#p03dd4eb043)" d="M 635.845806 381.137116 
L 638.925404 384.379966 
L 634.483365 384.897934 
L 635.845806 381.137116 
z
" style="stroke:#000000;stroke-linecap:round;"/>
   </g>
   <g id="patch_45">
    <path clip-path="url(#p03dd4eb043)" d="M 406.329636 293.092039 
Q 378.051682 217.05017 350.163421 142.056222 
" style="fill:none;stroke:#000000;stroke-linecap:round;"/>
    <path clip-path="url(#p03dd4eb043)" d="M 349.683055 146.502485 
L 350.163421 142.056222 
L 353.432211 145.108273 
L 349.683055 146.502485 
z
" style="stroke:#000000;stroke-linecap:round;"/>
   </g>
   <g id="PathCollection_1">
    <defs>
     <path d="M 0 8.660254 
C 2.296726 8.660254 4.499694 7.747755 6.123724 6.123724 
C 7.747755 4.499694 8.660254 2.296726 8.660254 -0 
C 8.660254 -2.296726 7.747755 -4.499694 6.123724 -6.123724 
C 4.499694 -7.747755 2.296726 -8.660254 0 -8.660254 
C -2.296726 -8.660254 -4.499694 -7.747755 -6.123724 -6.123724 
C -7.747755 -4.499694 -8.660254 -2.296726 -8.660254 0 
C -8.660254 2.296726 -7.747755 4.499694 -6.123724 6.123724 
C -4.499694 7.747755 -2.296726 8.660254 0 8.660254 
z
" id="C0_0_36bc51c2d9"/>
    </defs>
    <g clip-path="url(#p03dd4eb043)">
     <use style="fill:#ff0000;stroke:#ff0000;" x="449.369885" xlink:href="#C0_0_36bc51c2d9" y="286.186066"/>
    </g>
    <g clip-path="url(#p03dd4eb043)">
     <use style="fill:#ff0000;stroke:#ff0000;" x="314.642717" xlink:href="#C0_0_36bc51c2d9" y="271.014633"/>
    </g>
    <g clip-path="url(#p03dd4eb043)">
     <use style="fill:#ff0000;stroke:#ff0000;" x="230.770709" xlink:href="#C0_0_36bc51c2d9" y="397.72439"/>
    </g>
    <g clip-path="url(#p03dd4eb043)">
     <use style="fill:#ff0000;stroke:#ff0000;" x="202.39934" xlink:href="#C0_0_36bc51c2d9" y="341.866547"/>
    </g>
    <g clip-path="url(#p03dd4eb043)">
     <use style="fill:#ff0000;stroke:#ff0000;" x="556.203961" xlink:href="#C0_0_36bc51c2d9" y="306.767044"/>
    </g>
    <g clip-path="url(#p03dd4eb043)">
     <use style="fill:#ff0000;stroke:#ff0000;" x="365.192961" xlink:href="#C0_0_36bc51c2d9" y="359.346964"/>
    </g>
    <g clip-path="url(#p03dd4eb043)">
     <use style="fill:#ff0000;stroke:#ff0000;" x="295.223661" xlink:href="#C0_0_36bc51c2d9" y="449.720648"/>
    </g>
    <g clip-path="url(#p03dd4eb043)">
     <use style="fill:#ff0000;stroke:#ff0000;" x="571.607577" xlink:href="#C0_0_36bc51c2d9" y="136.850557"/>
    </g>
    <g clip-path="url(#p03dd4eb043)">
     <use style="fill:#ff0000;stroke:#ff0000;" x="409.348731" xlink:href="#C0_0_36bc51c2d9" y="301.210647"/>
    </g>
    <g clip-path="url(#p03dd4eb043)">
     <use style="fill:#ff0000;stroke:#ff0000;" x="648.116153" xlink:href="#C0_0_36bc51c2d9" y="387.709522"/>
    </g>
    <g clip-path="url(#p03dd4eb043)">
     <use style="fill:#ff0000;stroke:#ff0000;" x="346.754806" xlink:href="#C0_0_36bc51c2d9" y="132.890161"/>
    </g>
    <g clip-path="url(#p03dd4eb043)">
     <use style="fill:#ff0000;stroke:#ff0000;" x="211.535898" xlink:href="#C0_0_36bc51c2d9" y="387.536098"/>
    </g>
    <g clip-path="url(#p03dd4eb043)">
     <use style="fill:#ff0000;stroke:#ff0000;" x="704.8326" xlink:href="#C0_0_36bc51c2d9" y="253.596172"/>
    </g>
    <g clip-path="url(#p03dd4eb043)">
     <use style="fill:#ff0000;stroke:#ff0000;" x="695.98641" xlink:href="#C0_0_36bc51c2d9" y="208.905563"/>
    </g>
    <g clip-path="url(#p03dd4eb043)">
     <use style="fill:#ff0000;stroke:#ff0000;" x="617.709569" xlink:href="#C0_0_36bc51c2d9" y="141.753643"/>
    </g>
    <g clip-path="url(#p03dd4eb043)">
     <use style="fill:#ff0000;stroke:#ff0000;" x="484.178598" xlink:href="#C0_0_36bc51c2d9" y="471.57902"/>
    </g>
    <g clip-path="url(#p03dd4eb043)">
     <use style="fill:#008000;stroke:#008000;" x="168.825944" xlink:href="#C0_0_36bc51c2d9" y="328.030605"/>
    </g>
    <g clip-path="url(#p03dd4eb043)">
     <use style="fill:#ff0000;stroke:#ff0000;" x="639.423601" xlink:href="#C0_0_36bc51c2d9" y="413.867311"/>
    </g>
    <g clip-path="url(#p03dd4eb043)">
     <use style="fill:#ff0000;stroke:#ff0000;" x="641.205459" xlink:href="#C0_0_36bc51c2d9" y="164.629669"/>
    </g>
    <g clip-path="url(#p03dd4eb043)">
     <use style="fill:#ff0000;stroke:#ff0000;" x="681.031202" xlink:href="#C0_0_36bc51c2d9" y="377.420975"/>
    </g>
    <g clip-path="url(#p03dd4eb043)">
     <use style="fill:#ff0000;stroke:#ff0000;" x="393.364863" xlink:href="#C0_0_36bc51c2d9" y="107.607273"/>
    </g>
    <g clip-path="url(#p03dd4eb043)">
     <use style="fill:#008000;stroke:#008000;" x="564.135718" xlink:href="#C0_0_36bc51c2d9" y="454.444825"/>
    </g>
    <g clip-path="url(#p03dd4eb043)">
     <use style="fill:#ff0000;stroke:#ff0000;" x="402.268179" xlink:href="#C0_0_36bc51c2d9" y="468.992404"/>
    </g>
    <g clip-path="url(#p03dd4eb043)">
     <use style="fill:#ff0000;stroke:#ff0000;" x="719.494215" xlink:href="#C0_0_36bc51c2d9" y="281.670227"/>
    </g>
    <g clip-path="url(#p03dd4eb043)">
     <use style="fill:#ff0000;stroke:#ff0000;" x="562.89575" xlink:href="#C0_0_36bc51c2d9" y="429.097548"/>
    </g>
    <g clip-path="url(#p03dd4eb043)">
     <use style="fill:#ff0000;stroke:#ff0000;" x="709.906592" xlink:href="#C0_0_36bc51c2d9" y="323.356871"/>
    </g>
    <g clip-path="url(#p03dd4eb043)">
     <use style="fill:#ff0000;stroke:#ff0000;" x="679.807724" xlink:href="#C0_0_36bc51c2d9" y="228.109507"/>
    </g>
    <g clip-path="url(#p03dd4eb043)">
     <use style="fill:#ff0000;stroke:#ff0000;" x="208.874714" xlink:href="#C0_0_36bc51c2d9" y="203.149109"/>
    </g>
    <g clip-path="url(#p03dd4eb043)">
     <use style="fill:#ff0000;stroke:#ff0000;" x="219.955756" xlink:href="#C0_0_36bc51c2d9" y="178.475282"/>
    </g>
    <g clip-path="url(#p03dd4eb043)">
     <use style="fill:#ff0000;stroke:#ff0000;" x="166.105785" xlink:href="#C0_0_36bc51c2d9" y="274.828315"/>
    </g>
    <g clip-path="url(#p03dd4eb043)">
     <use style="fill:#ff0000;stroke:#ff0000;" x="175.534608" xlink:href="#C0_0_36bc51c2d9" y="248.763379"/>
    </g>
    <g clip-path="url(#p03dd4eb043)">
     <use style="fill:#ff0000;stroke:#ff0000;" x="335.030359" xlink:href="#C0_0_36bc51c2d9" y="446.967005"/>
    </g>
    <g clip-path="url(#p03dd4eb043)">
     <use style="fill:#ff0000;stroke:#ff0000;" x="516.353682" xlink:href="#C0_0_36bc51c2d9" y="457.771268"/>
    </g>
    <g clip-path="url(#p03dd4eb043)">
     <use style="fill:#ff0000;stroke:#ff0000;" x="658.71381" xlink:href="#C0_0_36bc51c2d9" y="188.213718"/>
    </g>
    <g clip-path="url(#p03dd4eb043)">
     <use style="fill:#ff0000;stroke:#ff0000;" x="544.774287" xlink:href="#C0_0_36bc51c2d9" y="117.563468"/>
    </g>
    <g clip-path="url(#p03dd4eb043)">
     <use style="fill:#ff0000;stroke:#ff0000;" x="189.034447" xlink:href="#C0_0_36bc51c2d9" y="364.334308"/>
    </g>
    <g clip-path="url(#p03dd4eb043)">
     <use style="fill:#ff0000;stroke:#ff0000;" x="178.608052" xlink:href="#C0_0_36bc51c2d9" y="222.269882"/>
    </g>
    <g clip-path="url(#p03dd4eb043)">
     <use style="fill:#ff0000;stroke:#ff0000;" x="262.768651" xlink:href="#C0_0_36bc51c2d9" y="429.096319"/>
    </g>
    <g clip-path="url(#p03dd4eb043)">
     <use style="fill:#ff0000;stroke:#ff0000;" x="442.53808" xlink:href="#C0_0_36bc51c2d9" y="474.152727"/>
    </g>
    <g clip-path="url(#p03dd4eb043)">
     <use style="fill:#ff0000;stroke:#ff0000;" x="330.904291" xlink:href="#C0_0_36bc51c2d9" y="117.598588"/>
    </g>
    <g clip-path="url(#p03dd4eb043)">
     <use style="fill:#ff0000;stroke:#ff0000;" x="283.00395" xlink:href="#C0_0_36bc51c2d9" y="141.267017"/>
    </g>
    <g clip-path="url(#p03dd4eb043)">
     <use style="fill:#ff0000;stroke:#ff0000;" x="171.944234" xlink:href="#C0_0_36bc51c2d9" y="300.233594"/>
    </g>
    <g clip-path="url(#p03dd4eb043)">
     <use style="fill:#ff0000;stroke:#ff0000;" x="704.319255" xlink:href="#C0_0_36bc51c2d9" y="353.099302"/>
    </g>
    <g clip-path="url(#p03dd4eb043)">
     <use style="fill:#ff0000;stroke:#ff0000;" x="359.193314" xlink:href="#C0_0_36bc51c2d9" y="467.652911"/>
    </g>
    <g clip-path="url(#p03dd4eb043)">
     <use style="fill:#ff0000;stroke:#ff0000;" x="692.031193" xlink:href="#C0_0_36bc51c2d9" y="300.711392"/>
    </g>
    <g clip-path="url(#p03dd4eb043)">
     <use style="fill:#ff0000;stroke:#ff0000;" x="493.871937" xlink:href="#C0_0_36bc51c2d9" y="108.365742"/>
    </g>
    <g clip-path="url(#p03dd4eb043)">
     <use style="fill:#ff0000;stroke:#ff0000;" x="611.465788" xlink:href="#C0_0_36bc51c2d9" y="436.476643"/>
    </g>
    <g clip-path="url(#p03dd4eb043)">
     <use style="fill:#ff0000;stroke:#ff0000;" x="445.315499" xlink:href="#C0_0_36bc51c2d9" y="115.197861"/>
    </g>
    <g clip-path="url(#p03dd4eb043)">
     <use style="fill:#ff0000;stroke:#ff0000;" x="242.978328" xlink:href="#C0_0_36bc51c2d9" y="154.897225"/>
    </g>
   </g>
   <g id="text_1">
    <g clip-path="url(#p03dd4eb043)">
     <!-- ATXN3 -->
     <g transform="translate(429.649573 289.497316)scale(0.12 -0.12)">
      <defs>
       <path d="M 34.1875 63.1875 
L 20.796875 26.90625 
L 47.609375 26.90625 
z
M 28.609375 72.90625 
L 39.796875 72.90625 
L 67.578125 0 
L 57.328125 0 
L 50.6875 18.703125 
L 17.828125 18.703125 
L 11.1875 0 
L 0.78125 0 
z
" id="DejaVuSans-65"/>
       <path d="M -0.296875 72.90625 
L 61.375 72.90625 
L 61.375 64.59375 
L 35.5 64.59375 
L 35.5 0 
L 25.59375 0 
L 25.59375 64.59375 
L -0.296875 64.59375 
z
" id="DejaVuSans-84"/>
       <path d="M 6.296875 72.90625 
L 16.890625 72.90625 
L 35.015625 45.796875 
L 53.21875 72.90625 
L 63.8125 72.90625 
L 40.375 37.890625 
L 65.375 0 
L 54.78125 0 
L 34.28125 31 
L 13.625 0 
L 2.984375 0 
L 29 38.921875 
z
" id="DejaVuSans-88"/>
       <path d="M 9.8125 72.90625 
L 23.09375 72.90625 
L 55.421875 11.921875 
L 55.421875 72.90625 
L 64.984375 72.90625 
L 64.984375 0 
L 51.703125 0 
L 19.390625 60.984375 
L 19.390625 0 
L 9.8125 0 
z
" id="DejaVuSans-78"/>
       <path d="M 40.578125 39.3125 
Q 47.65625 37.796875 51.625 33 
Q 55.609375 28.21875 55.609375 21.1875 
Q 55.609375 10.40625 48.1875 4.484375 
Q 40.765625 -1.421875 27.09375 -1.421875 
Q 22.515625 -1.421875 17.65625 -0.515625 
Q 12.796875 0.390625 7.625 2.203125 
L 7.625 11.71875 
Q 11.71875 9.328125 16.59375 8.109375 
Q 21.484375 6.890625 26.8125 6.890625 
Q 36.078125 6.890625 40.9375 10.546875 
Q 45.796875 14.203125 45.796875 21.1875 
Q 45.796875 27.640625 41.28125 31.265625 
Q 36.765625 34.90625 28.71875 34.90625 
L 20.21875 34.90625 
L 20.21875 43.015625 
L 29.109375 43.015625 
Q 36.375 43.015625 40.234375 45.921875 
Q 44.09375 48.828125 44.09375 54.296875 
Q 44.09375 59.90625 40.109375 62.90625 
Q 36.140625 65.921875 28.71875 65.921875 
Q 24.65625 65.921875 20.015625 65.03125 
Q 15.375 64.15625 9.8125 62.3125 
L 9.8125 71.09375 
Q 15.4375 72.65625 20.34375 73.4375 
Q 25.25 74.21875 29.59375 74.21875 
Q 40.828125 74.21875 47.359375 69.109375 
Q 53.90625 64.015625 53.90625 55.328125 
Q 53.90625 49.265625 50.4375 45.09375 
Q 46.96875 40.921875 40.578125 39.3125 
z
" id="DejaVuSans-51"/>
      </defs>
      <use xlink:href="#DejaVuSans-65"/>
      <use x="60.658203" xlink:href="#DejaVuSans-84"/>
      <use x="121.742188" xlink:href="#DejaVuSans-88"/>
      <use x="190.248047" xlink:href="#DejaVuSans-78"/>
      <use x="265.052734" xlink:href="#DejaVuSans-51"/>
     </g>
    </g>
   </g>
   <g id="text_2">
    <g clip-path="url(#p03dd4eb043)">
     <!-- ERN1 -->
     <g transform="translate(298.376154 274.325883)scale(0.12 -0.12)">
      <defs>
       <path d="M 9.8125 72.90625 
L 55.90625 72.90625 
L 55.90625 64.59375 
L 19.671875 64.59375 
L 19.671875 43.015625 
L 54.390625 43.015625 
L 54.390625 34.71875 
L 19.671875 34.71875 
L 19.671875 8.296875 
L 56.78125 8.296875 
L 56.78125 0 
L 9.8125 0 
z
" id="DejaVuSans-69"/>
       <path d="M 44.390625 34.1875 
Q 47.5625 33.109375 50.5625 29.59375 
Q 53.5625 26.078125 56.59375 19.921875 
L 66.609375 0 
L 56 0 
L 46.6875 18.703125 
Q 43.0625 26.03125 39.671875 28.421875 
Q 36.28125 30.8125 30.421875 30.8125 
L 19.671875 30.8125 
L 19.671875 0 
L 9.8125 0 
L 9.8125 72.90625 
L 32.078125 72.90625 
Q 44.578125 72.90625 50.734375 67.671875 
Q 56.890625 62.453125 56.890625 51.90625 
Q 56.890625 45.015625 53.6875 40.46875 
Q 50.484375 35.9375 44.390625 34.1875 
z
M 19.671875 64.796875 
L 19.671875 38.921875 
L 32.078125 38.921875 
Q 39.203125 38.921875 42.84375 42.21875 
Q 46.484375 45.515625 46.484375 51.90625 
Q 46.484375 58.296875 42.84375 61.546875 
Q 39.203125 64.796875 32.078125 64.796875 
z
" id="DejaVuSans-82"/>
       <path d="M 12.40625 8.296875 
L 28.515625 8.296875 
L 28.515625 63.921875 
L 10.984375 60.40625 
L 10.984375 69.390625 
L 28.421875 72.90625 
L 38.28125 72.90625 
L 38.28125 8.296875 
L 54.390625 8.296875 
L 54.390625 0 
L 12.40625 0 
z
" id="DejaVuSans-49"/>
      </defs>
      <use xlink:href="#DejaVuSans-69"/>
      <use x="63.183594" xlink:href="#DejaVuSans-82"/>
      <use x="132.666016" xlink:href="#DejaVuSans-78"/>
      <use x="207.470703" xlink:href="#DejaVuSans-49"/>
     </g>
    </g>
   </g>
   <g id="text_3">
    <g clip-path="url(#p03dd4eb043)">
     <!-- TRAF2 -->
     <g transform="translate(211.804146 401.03564)scale(0.12 -0.12)">
      <defs>
       <path d="M 9.8125 72.90625 
L 51.703125 72.90625 
L 51.703125 64.59375 
L 19.671875 64.59375 
L 19.671875 43.109375 
L 48.578125 43.109375 
L 48.578125 34.8125 
L 19.671875 34.8125 
L 19.671875 0 
L 9.8125 0 
z
" id="DejaVuSans-70"/>
       <path d="M 19.1875 8.296875 
L 53.609375 8.296875 
L 53.609375 0 
L 7.328125 0 
L 7.328125 8.296875 
Q 12.9375 14.109375 22.625 23.890625 
Q 32.328125 33.6875 34.8125 36.53125 
Q 39.546875 41.84375 41.421875 45.53125 
Q 43.3125 49.21875 43.3125 52.78125 
Q 43.3125 58.59375 39.234375 62.25 
Q 35.15625 65.921875 28.609375 65.921875 
Q 23.96875 65.921875 18.8125 64.3125 
Q 13.671875 62.703125 7.8125 59.421875 
L 7.8125 69.390625 
Q 13.765625 71.78125 18.9375 73 
Q 24.125 74.21875 28.421875 74.21875 
Q 39.75 74.21875 46.484375 68.546875 
Q 53.21875 62.890625 53.21875 53.421875 
Q 53.21875 48.921875 51.53125 44.890625 
Q 49.859375 40.875 45.40625 35.40625 
Q 44.1875 33.984375 37.640625 27.21875 
Q 31.109375 20.453125 19.1875 8.296875 
z
" id="DejaVuSans-50"/>
      </defs>
      <use xlink:href="#DejaVuSans-84"/>
      <use x="61.083984" xlink:href="#DejaVuSans-82"/>
      <use x="126.566406" xlink:href="#DejaVuSans-65"/>
      <use x="194.974609" xlink:href="#DejaVuSans-70"/>
      <use x="252.494141" xlink:href="#DejaVuSans-50"/>
     </g>
    </g>
   </g>
   <g id="text_4">
    <g clip-path="url(#p03dd4eb043)">
     <!-- MAP3K5 -->
     <g transform="translate(177.93059 345.177797)scale(0.12 -0.12)">
      <defs>
       <path d="M 9.8125 72.90625 
L 24.515625 72.90625 
L 43.109375 23.296875 
L 61.8125 72.90625 
L 76.515625 72.90625 
L 76.515625 0 
L 66.890625 0 
L 66.890625 64.015625 
L 48.09375 14.015625 
L 38.1875 14.015625 
L 19.390625 64.015625 
L 19.390625 0 
L 9.8125 0 
z
" id="DejaVuSans-77"/>
       <path d="M 19.671875 64.796875 
L 19.671875 37.40625 
L 32.078125 37.40625 
Q 38.96875 37.40625 42.71875 40.96875 
Q 46.484375 44.53125 46.484375 51.125 
Q 46.484375 57.671875 42.71875 61.234375 
Q 38.96875 64.796875 32.078125 64.796875 
z
M 9.8125 72.90625 
L 32.078125 72.90625 
Q 44.34375 72.90625 50.609375 67.359375 
Q 56.890625 61.8125 56.890625 51.125 
Q 56.890625 40.328125 50.609375 34.8125 
Q 44.34375 29.296875 32.078125 29.296875 
L 19.671875 29.296875 
L 19.671875 0 
L 9.8125 0 
z
" id="DejaVuSans-80"/>
       <path d="M 9.8125 72.90625 
L 19.671875 72.90625 
L 19.671875 42.09375 
L 52.390625 72.90625 
L 65.09375 72.90625 
L 28.90625 38.921875 
L 67.671875 0 
L 54.6875 0 
L 19.671875 35.109375 
L 19.671875 0 
L 9.8125 0 
z
" id="DejaVuSans-75"/>
       <path d="M 10.796875 72.90625 
L 49.515625 72.90625 
L 49.515625 64.59375 
L 19.828125 64.59375 
L 19.828125 46.734375 
Q 21.96875 47.46875 24.109375 47.828125 
Q 26.265625 48.1875 28.421875 48.1875 
Q 40.625 48.1875 47.75 41.5 
Q 54.890625 34.8125 54.890625 23.390625 
Q 54.890625 11.625 47.5625 5.09375 
Q 40.234375 -1.421875 26.90625 -1.421875 
Q 22.3125 -1.421875 17.546875 -0.640625 
Q 12.796875 0.140625 7.71875 1.703125 
L 7.71875 11.625 
Q 12.109375 9.234375 16.796875 8.0625 
Q 21.484375 6.890625 26.703125 6.890625 
Q 35.15625 6.890625 40.078125 11.328125 
Q 45.015625 15.765625 45.015625 23.390625 
Q 45.015625 31 40.078125 35.4375 
Q 35.15625 39.890625 26.703125 39.890625 
Q 22.75 39.890625 18.8125 39.015625 
Q 14.890625 38.140625 10.796875 36.28125 
z
" id="DejaVuSans-53"/>
      </defs>
      <use xlink:href="#DejaVuSans-77"/>
      <use x="86.279297" xlink:href="#DejaVuSans-65"/>
      <use x="154.6875" xlink:href="#DejaVuSans-80"/>
      <use x="214.990234" xlink:href="#DejaVuSans-51"/>
      <use x="278.613281" xlink:href="#DejaVuSans-75"/>
      <use x="344.189453" xlink:href="#DejaVuSans-53"/>
     </g>
    </g>
   </g>
   <g id="text_5">
    <g clip-path="url(#p03dd4eb043)">
     <!-- MTOR -->
     <g transform="translate(538.470211 310.078294)scale(0.12 -0.12)">
      <defs>
       <path d="M 39.40625 66.21875 
Q 28.65625 66.21875 22.328125 58.203125 
Q 16.015625 50.203125 16.015625 36.375 
Q 16.015625 22.609375 22.328125 14.59375 
Q 28.65625 6.59375 39.40625 6.59375 
Q 50.140625 6.59375 56.421875 14.59375 
Q 62.703125 22.609375 62.703125 36.375 
Q 62.703125 50.203125 56.421875 58.203125 
Q 50.140625 66.21875 39.40625 66.21875 
z
M 39.40625 74.21875 
Q 54.734375 74.21875 63.90625 63.9375 
Q 73.09375 53.65625 73.09375 36.375 
Q 73.09375 19.140625 63.90625 8.859375 
Q 54.734375 -1.421875 39.40625 -1.421875 
Q 24.03125 -1.421875 14.8125 8.828125 
Q 5.609375 19.09375 5.609375 36.375 
Q 5.609375 53.65625 14.8125 63.9375 
Q 24.03125 74.21875 39.40625 74.21875 
z
" id="DejaVuSans-79"/>
      </defs>
      <use xlink:href="#DejaVuSans-77"/>
      <use x="86.279297" xlink:href="#DejaVuSans-84"/>
      <use x="147.363281" xlink:href="#DejaVuSans-79"/>
      <use x="226.074219" xlink:href="#DejaVuSans-82"/>
     </g>
    </g>
   </g>
   <g id="text_6">
    <g clip-path="url(#p03dd4eb043)">
     <!-- OMA1 -->
     <g transform="translate(347.371086 362.658214)scale(0.12 -0.12)">
      <use xlink:href="#DejaVuSans-79"/>
      <use x="78.710938" xlink:href="#DejaVuSans-77"/>
      <use x="164.990234" xlink:href="#DejaVuSans-65"/>
      <use x="233.398438" xlink:href="#DejaVuSans-49"/>
     </g>
    </g>
   </g>
   <g id="text_7">
    <g clip-path="url(#p03dd4eb043)">
     <!-- OPA1 -->
     <g transform="translate(279.343349 453.031898)scale(0.12 -0.12)">
      <use xlink:href="#DejaVuSans-79"/>
      <use x="78.710938" xlink:href="#DejaVuSans-80"/>
      <use x="132.638672" xlink:href="#DejaVuSans-65"/>
      <use x="201.046875" xlink:href="#DejaVuSans-49"/>
     </g>
    </g>
   </g>
   <g id="text_8">
    <g clip-path="url(#p03dd4eb043)">
     <!-- ITPR1 -->
     <g transform="translate(554.568515 140.161807)scale(0.12 -0.12)">
      <defs>
       <path d="M 9.8125 72.90625 
L 19.671875 72.90625 
L 19.671875 0 
L 9.8125 0 
z
" id="DejaVuSans-73"/>
      </defs>
      <use xlink:href="#DejaVuSans-73"/>
      <use x="29.492188" xlink:href="#DejaVuSans-84"/>
      <use x="90.576172" xlink:href="#DejaVuSans-80"/>
      <use x="150.878906" xlink:href="#DejaVuSans-82"/>
      <use x="220.361328" xlink:href="#DejaVuSans-49"/>
     </g>
    </g>
   </g>
   <g id="text_9">
    <g clip-path="url(#p03dd4eb043)">
     <!-- TBP -->
     <g transform="translate(397.949668 304.521897)scale(0.12 -0.12)">
      <defs>
       <path d="M 19.671875 34.8125 
L 19.671875 8.109375 
L 35.5 8.109375 
Q 43.453125 8.109375 47.28125 11.40625 
Q 51.125 14.703125 51.125 21.484375 
Q 51.125 28.328125 47.28125 31.5625 
Q 43.453125 34.8125 35.5 34.8125 
z
M 19.671875 64.796875 
L 19.671875 42.828125 
L 34.28125 42.828125 
Q 41.5 42.828125 45.03125 45.53125 
Q 48.578125 48.25 48.578125 53.8125 
Q 48.578125 59.328125 45.03125 62.0625 
Q 41.5 64.796875 34.28125 64.796875 
z
M 9.8125 72.90625 
L 35.015625 72.90625 
Q 46.296875 72.90625 52.390625 68.21875 
Q 58.5 63.53125 58.5 54.890625 
Q 58.5 48.1875 55.375 44.234375 
Q 52.25 40.28125 46.1875 39.3125 
Q 53.46875 37.75 57.5 32.78125 
Q 61.53125 27.828125 61.53125 20.40625 
Q 61.53125 10.640625 54.890625 5.3125 
Q 48.25 0 35.984375 0 
L 9.8125 0 
z
" id="DejaVuSans-66"/>
      </defs>
      <use xlink:href="#DejaVuSans-84"/>
      <use x="61.083984" xlink:href="#DejaVuSans-66"/>
      <use x="129.6875" xlink:href="#DejaVuSans-80"/>
     </g>
    </g>
   </g>
   <g id="text_10">
    <g clip-path="url(#p03dd4eb043)">
     <!-- SP1 -->
     <g transform="translate(636.871778 391.020772)scale(0.12 -0.12)">
      <defs>
       <path d="M 53.515625 70.515625 
L 53.515625 60.890625 
Q 47.90625 63.578125 42.921875 64.890625 
Q 37.9375 66.21875 33.296875 66.21875 
Q 25.25 66.21875 20.875 63.09375 
Q 16.5 59.96875 16.5 54.203125 
Q 16.5 49.359375 19.40625 46.890625 
Q 22.3125 44.4375 30.421875 42.921875 
L 36.375 41.703125 
Q 47.40625 39.59375 52.65625 34.296875 
Q 57.90625 29 57.90625 20.125 
Q 57.90625 9.515625 50.796875 4.046875 
Q 43.703125 -1.421875 29.984375 -1.421875 
Q 24.8125 -1.421875 18.96875 -0.25 
Q 13.140625 0.921875 6.890625 3.21875 
L 6.890625 13.375 
Q 12.890625 10.015625 18.65625 8.296875 
Q 24.421875 6.59375 29.984375 6.59375 
Q 38.421875 6.59375 43.015625 9.90625 
Q 47.609375 13.234375 47.609375 19.390625 
Q 47.609375 24.75 44.3125 27.78125 
Q 41.015625 30.8125 33.5 32.328125 
L 27.484375 33.5 
Q 16.453125 35.6875 11.515625 40.375 
Q 6.59375 45.0625 6.59375 53.421875 
Q 6.59375 63.09375 13.40625 68.65625 
Q 20.21875 74.21875 32.171875 74.21875 
Q 37.3125 74.21875 42.625 73.28125 
Q 47.953125 72.359375 53.515625 70.515625 
z
" id="DejaVuSans-83"/>
      </defs>
      <use xlink:href="#DejaVuSans-83"/>
      <use x="63.476562" xlink:href="#DejaVuSans-80"/>
      <use x="123.779297" xlink:href="#DejaVuSans-49"/>
     </g>
    </g>
   </g>
   <g id="text_11">
    <g clip-path="url(#p03dd4eb043)">
     <!-- NFYA -->
     <g transform="translate(331.511056 136.201411)scale(0.12 -0.12)">
      <defs>
       <path d="M -0.203125 72.90625 
L 10.40625 72.90625 
L 30.609375 42.921875 
L 50.6875 72.90625 
L 61.28125 72.90625 
L 35.5 34.71875 
L 35.5 0 
L 25.59375 0 
L 25.59375 34.71875 
z
" id="DejaVuSans-89"/>
      </defs>
      <use xlink:href="#DejaVuSans-78"/>
      <use x="74.804688" xlink:href="#DejaVuSans-70"/>
      <use x="132.324219" xlink:href="#DejaVuSans-89"/>
      <use x="185.658203" xlink:href="#DejaVuSans-65"/>
     </g>
    </g>
   </g>
   <g id="text_12">
    <g clip-path="url(#p03dd4eb043)">
     <!-- XBP1 -->
     <g transform="translate(195.874023 390.847348)scale(0.12 -0.12)">
      <use xlink:href="#DejaVuSans-88"/>
      <use x="68.505859" xlink:href="#DejaVuSans-66"/>
      <use x="137.109375" xlink:href="#DejaVuSans-80"/>
      <use x="197.412109" xlink:href="#DejaVuSans-49"/>
     </g>
    </g>
   </g>
   <g id="text_13">
    <g clip-path="url(#p03dd4eb043)">
     <!-- ITPR2 -->
     <g transform="translate(687.793537 256.907422)scale(0.12 -0.12)">
      <use xlink:href="#DejaVuSans-73"/>
      <use x="29.492188" xlink:href="#DejaVuSans-84"/>
      <use x="90.576172" xlink:href="#DejaVuSans-80"/>
      <use x="150.878906" xlink:href="#DejaVuSans-82"/>
      <use x="220.361328" xlink:href="#DejaVuSans-50"/>
     </g>
    </g>
   </g>
   <g id="text_14">
    <g clip-path="url(#p03dd4eb043)">
     <!-- ITPR3 -->
     <g transform="translate(678.947348 212.216813)scale(0.12 -0.12)">
      <use xlink:href="#DejaVuSans-73"/>
      <use x="29.492188" xlink:href="#DejaVuSans-84"/>
      <use x="90.576172" xlink:href="#DejaVuSans-80"/>
      <use x="150.878906" xlink:href="#DejaVuSans-82"/>
      <use x="220.361328" xlink:href="#DejaVuSans-51"/>
     </g>
    </g>
   </g>
   <g id="text_15">
    <g clip-path="url(#p03dd4eb043)">
     <!-- ULK1 -->
     <g transform="translate(602.223007 145.064893)scale(0.12 -0.12)">
      <defs>
       <path d="M 8.6875 72.90625 
L 18.609375 72.90625 
L 18.609375 28.609375 
Q 18.609375 16.890625 22.84375 11.734375 
Q 27.09375 6.59375 36.625 6.59375 
Q 46.09375 6.59375 50.34375 11.734375 
Q 54.59375 16.890625 54.59375 28.609375 
L 54.59375 72.90625 
L 64.5 72.90625 
L 64.5 27.390625 
Q 64.5 13.140625 57.4375 5.859375 
Q 50.390625 -1.421875 36.625 -1.421875 
Q 22.796875 -1.421875 15.734375 5.859375 
Q 8.6875 13.140625 8.6875 27.390625 
z
" id="DejaVuSans-85"/>
       <path d="M 9.8125 72.90625 
L 19.671875 72.90625 
L 19.671875 8.296875 
L 55.171875 8.296875 
L 55.171875 0 
L 9.8125 0 
z
" id="DejaVuSans-76"/>
      </defs>
      <use xlink:href="#DejaVuSans-85"/>
      <use x="73.193359" xlink:href="#DejaVuSans-76"/>
      <use x="128.90625" xlink:href="#DejaVuSans-75"/>
      <use x="194.482422" xlink:href="#DejaVuSans-49"/>
     </g>
    </g>
   </g>
   <g id="text_16">
    <g clip-path="url(#p03dd4eb043)">
     <!-- ULK2 -->
     <g transform="translate(468.692036 474.89027)scale(0.12 -0.12)">
      <use xlink:href="#DejaVuSans-85"/>
      <use x="73.193359" xlink:href="#DejaVuSans-76"/>
      <use x="128.90625" xlink:href="#DejaVuSans-75"/>
      <use x="194.482422" xlink:href="#DejaVuSans-50"/>
     </g>
    </g>
   </g>
   <g id="text_17">
    <g clip-path="url(#p03dd4eb043)">
     <!-- PSMA6 -->
     <g transform="translate(148.300319 331.341855)scale(0.12 -0.12)">
      <defs>
       <path d="M 33.015625 40.375 
Q 26.375 40.375 22.484375 35.828125 
Q 18.609375 31.296875 18.609375 23.390625 
Q 18.609375 15.53125 22.484375 10.953125 
Q 26.375 6.390625 33.015625 6.390625 
Q 39.65625 6.390625 43.53125 10.953125 
Q 47.40625 15.53125 47.40625 23.390625 
Q 47.40625 31.296875 43.53125 35.828125 
Q 39.65625 40.375 33.015625 40.375 
z
M 52.59375 71.296875 
L 52.59375 62.3125 
Q 48.875 64.0625 45.09375 64.984375 
Q 41.3125 65.921875 37.59375 65.921875 
Q 27.828125 65.921875 22.671875 59.328125 
Q 17.53125 52.734375 16.796875 39.40625 
Q 19.671875 43.65625 24.015625 45.921875 
Q 28.375 48.1875 33.59375 48.1875 
Q 44.578125 48.1875 50.953125 41.515625 
Q 57.328125 34.859375 57.328125 23.390625 
Q 57.328125 12.15625 50.6875 5.359375 
Q 44.046875 -1.421875 33.015625 -1.421875 
Q 20.359375 -1.421875 13.671875 8.265625 
Q 6.984375 17.96875 6.984375 36.375 
Q 6.984375 53.65625 15.1875 63.9375 
Q 23.390625 74.21875 37.203125 74.21875 
Q 40.921875 74.21875 44.703125 73.484375 
Q 48.484375 72.75 52.59375 71.296875 
z
" id="DejaVuSans-54"/>
      </defs>
      <use xlink:href="#DejaVuSans-80"/>
      <use x="60.302734" xlink:href="#DejaVuSans-83"/>
      <use x="123.779297" xlink:href="#DejaVuSans-77"/>
      <use x="210.058594" xlink:href="#DejaVuSans-65"/>
      <use x="278.466797" xlink:href="#DejaVuSans-54"/>
     </g>
    </g>
   </g>
   <g id="text_18">
    <g clip-path="url(#p03dd4eb043)">
     <!-- PSMA2 -->
     <g transform="translate(618.897976 417.178561)scale(0.12 -0.12)">
      <use xlink:href="#DejaVuSans-80"/>
      <use x="60.302734" xlink:href="#DejaVuSans-83"/>
      <use x="123.779297" xlink:href="#DejaVuSans-77"/>
      <use x="210.058594" xlink:href="#DejaVuSans-65"/>
      <use x="278.466797" xlink:href="#DejaVuSans-50"/>
     </g>
    </g>
   </g>
   <g id="text_19">
    <g clip-path="url(#p03dd4eb043)">
     <!-- PSMA4 -->
     <g transform="translate(620.679834 167.940919)scale(0.12 -0.12)">
      <defs>
       <path d="M 37.796875 64.3125 
L 12.890625 25.390625 
L 37.796875 25.390625 
z
M 35.203125 72.90625 
L 47.609375 72.90625 
L 47.609375 25.390625 
L 58.015625 25.390625 
L 58.015625 17.1875 
L 47.609375 17.1875 
L 47.609375 0 
L 37.796875 0 
L 37.796875 17.1875 
L 4.890625 17.1875 
L 4.890625 26.703125 
z
" id="DejaVuSans-52"/>
      </defs>
      <use xlink:href="#DejaVuSans-80"/>
      <use x="60.302734" xlink:href="#DejaVuSans-83"/>
      <use x="123.779297" xlink:href="#DejaVuSans-77"/>
      <use x="210.058594" xlink:href="#DejaVuSans-65"/>
      <use x="278.466797" xlink:href="#DejaVuSans-52"/>
     </g>
    </g>
   </g>
   <g id="text_20">
    <g clip-path="url(#p03dd4eb043)">
     <!-- PSMA7 -->
     <g transform="translate(660.505577 380.732225)scale(0.12 -0.12)">
      <defs>
       <path d="M 8.203125 72.90625 
L 55.078125 72.90625 
L 55.078125 68.703125 
L 28.609375 0 
L 18.3125 0 
L 43.21875 64.59375 
L 8.203125 64.59375 
z
" id="DejaVuSans-55"/>
      </defs>
      <use xlink:href="#DejaVuSans-80"/>
      <use x="60.302734" xlink:href="#DejaVuSans-83"/>
      <use x="123.779297" xlink:href="#DejaVuSans-77"/>
      <use x="210.058594" xlink:href="#DejaVuSans-65"/>
      <use x="278.466797" xlink:href="#DejaVuSans-55"/>
     </g>
    </g>
   </g>
   <g id="text_21">
    <g clip-path="url(#p03dd4eb043)">
     <!-- PSMA5 -->
     <g transform="translate(372.839238 110.918523)scale(0.12 -0.12)">
      <use xlink:href="#DejaVuSans-80"/>
      <use x="60.302734" xlink:href="#DejaVuSans-83"/>
      <use x="123.779297" xlink:href="#DejaVuSans-77"/>
      <use x="210.058594" xlink:href="#DejaVuSans-65"/>
      <use x="278.466797" xlink:href="#DejaVuSans-53"/>
     </g>
    </g>
   </g>
   <g id="text_22">
    <g clip-path="url(#p03dd4eb043)">
     <!-- PSMA1 -->
     <g transform="translate(543.610093 457.756075)scale(0.12 -0.12)">
      <use xlink:href="#DejaVuSans-80"/>
      <use x="60.302734" xlink:href="#DejaVuSans-83"/>
      <use x="123.779297" xlink:href="#DejaVuSans-77"/>
      <use x="210.058594" xlink:href="#DejaVuSans-65"/>
      <use x="278.466797" xlink:href="#DejaVuSans-49"/>
     </g>
    </g>
   </g>
   <g id="text_23">
    <g clip-path="url(#p03dd4eb043)">
     <!-- PSMA3 -->
     <g transform="translate(381.742554 472.303654)scale(0.12 -0.12)">
      <use xlink:href="#DejaVuSans-80"/>
      <use x="60.302734" xlink:href="#DejaVuSans-83"/>
      <use x="123.779297" xlink:href="#DejaVuSans-77"/>
      <use x="210.058594" xlink:href="#DejaVuSans-65"/>
      <use x="278.466797" xlink:href="#DejaVuSans-51"/>
     </g>
    </g>
   </g>
   <g id="text_24">
    <g clip-path="url(#p03dd4eb043)">
     <!-- PSMB6 -->
     <g transform="translate(698.956402 284.981477)scale(0.12 -0.12)">
      <use xlink:href="#DejaVuSans-80"/>
      <use x="60.302734" xlink:href="#DejaVuSans-83"/>
      <use x="123.779297" xlink:href="#DejaVuSans-77"/>
      <use x="210.058594" xlink:href="#DejaVuSans-66"/>
      <use x="278.662109" xlink:href="#DejaVuSans-54"/>
     </g>
    </g>
   </g>
   <g id="text_25">
    <g clip-path="url(#p03dd4eb043)">
     <!-- PSMB7 -->
     <g transform="translate(542.357938 432.408798)scale(0.12 -0.12)">
      <use xlink:href="#DejaVuSans-80"/>
      <use x="60.302734" xlink:href="#DejaVuSans-83"/>
      <use x="123.779297" xlink:href="#DejaVuSans-77"/>
      <use x="210.058594" xlink:href="#DejaVuSans-66"/>
      <use x="278.662109" xlink:href="#DejaVuSans-55"/>
     </g>
    </g>
   </g>
   <g id="text_26">
    <g clip-path="url(#p03dd4eb043)">
     <!-- PSMB3 -->
     <g transform="translate(689.36878 326.668121)scale(0.12 -0.12)">
      <use xlink:href="#DejaVuSans-80"/>
      <use x="60.302734" xlink:href="#DejaVuSans-83"/>
      <use x="123.779297" xlink:href="#DejaVuSans-77"/>
      <use x="210.058594" xlink:href="#DejaVuSans-66"/>
      <use x="278.662109" xlink:href="#DejaVuSans-51"/>
     </g>
    </g>
   </g>
   <g id="text_27">
    <g clip-path="url(#p03dd4eb043)">
     <!-- PSMB2 -->
     <g transform="translate(659.269911 231.420757)scale(0.12 -0.12)">
      <use xlink:href="#DejaVuSans-80"/>
      <use x="60.302734" xlink:href="#DejaVuSans-83"/>
      <use x="123.779297" xlink:href="#DejaVuSans-77"/>
      <use x="210.058594" xlink:href="#DejaVuSans-66"/>
      <use x="278.662109" xlink:href="#DejaVuSans-50"/>
     </g>
    </g>
   </g>
   <g id="text_28">
    <g clip-path="url(#p03dd4eb043)">
     <!-- PSMB5 -->
     <g transform="translate(188.336901 206.460359)scale(0.12 -0.12)">
      <use xlink:href="#DejaVuSans-80"/>
      <use x="60.302734" xlink:href="#DejaVuSans-83"/>
      <use x="123.779297" xlink:href="#DejaVuSans-77"/>
      <use x="210.058594" xlink:href="#DejaVuSans-66"/>
      <use x="278.662109" xlink:href="#DejaVuSans-53"/>
     </g>
    </g>
   </g>
   <g id="text_29">
    <g clip-path="url(#p03dd4eb043)">
     <!-- PSMB1 -->
     <g transform="translate(199.417943 181.786532)scale(0.12 -0.12)">
      <use xlink:href="#DejaVuSans-80"/>
      <use x="60.302734" xlink:href="#DejaVuSans-83"/>
      <use x="123.779297" xlink:href="#DejaVuSans-77"/>
      <use x="210.058594" xlink:href="#DejaVuSans-66"/>
      <use x="278.662109" xlink:href="#DejaVuSans-49"/>
     </g>
    </g>
   </g>
   <g id="text_30">
    <g clip-path="url(#p03dd4eb043)">
     <!-- PSMB4 -->
     <g transform="translate(145.567973 278.139565)scale(0.12 -0.12)">
      <use xlink:href="#DejaVuSans-80"/>
      <use x="60.302734" xlink:href="#DejaVuSans-83"/>
      <use x="123.779297" xlink:href="#DejaVuSans-77"/>
      <use x="210.058594" xlink:href="#DejaVuSans-66"/>
      <use x="278.662109" xlink:href="#DejaVuSans-52"/>
     </g>
    </g>
   </g>
   <g id="text_31">
    <g clip-path="url(#p03dd4eb043)">
     <!-- PSMC2 -->
     <g transform="translate(154.923671 252.074629)scale(0.12 -0.12)">
      <defs>
       <path d="M 64.40625 67.28125 
L 64.40625 56.890625 
Q 59.421875 61.53125 53.78125 63.8125 
Q 48.140625 66.109375 41.796875 66.109375 
Q 29.296875 66.109375 22.65625 58.46875 
Q 16.015625 50.828125 16.015625 36.375 
Q 16.015625 21.96875 22.65625 14.328125 
Q 29.296875 6.6875 41.796875 6.6875 
Q 48.140625 6.6875 53.78125 8.984375 
Q 59.421875 11.28125 64.40625 15.921875 
L 64.40625 5.609375 
Q 59.234375 2.09375 53.4375 0.328125 
Q 47.65625 -1.421875 41.21875 -1.421875 
Q 24.65625 -1.421875 15.125 8.703125 
Q 5.609375 18.84375 5.609375 36.375 
Q 5.609375 53.953125 15.125 64.078125 
Q 24.65625 74.21875 41.21875 74.21875 
Q 47.75 74.21875 53.53125 72.484375 
Q 59.328125 70.75 64.40625 67.28125 
z
" id="DejaVuSans-67"/>
      </defs>
      <use xlink:href="#DejaVuSans-80"/>
      <use x="60.302734" xlink:href="#DejaVuSans-83"/>
      <use x="123.779297" xlink:href="#DejaVuSans-77"/>
      <use x="210.058594" xlink:href="#DejaVuSans-67"/>
      <use x="279.882812" xlink:href="#DejaVuSans-50"/>
     </g>
    </g>
   </g>
   <g id="text_32">
    <g clip-path="url(#p03dd4eb043)">
     <!-- PSMC1 -->
     <g transform="translate(314.419421 450.278255)scale(0.12 -0.12)">
      <use xlink:href="#DejaVuSans-80"/>
      <use x="60.302734" xlink:href="#DejaVuSans-83"/>
      <use x="123.779297" xlink:href="#DejaVuSans-77"/>
      <use x="210.058594" xlink:href="#DejaVuSans-67"/>
      <use x="279.882812" xlink:href="#DejaVuSans-49"/>
     </g>
    </g>
   </g>
   <g id="text_33">
    <g clip-path="url(#p03dd4eb043)">
     <!-- PSMC4 -->
     <g transform="translate(495.742745 461.082518)scale(0.12 -0.12)">
      <use xlink:href="#DejaVuSans-80"/>
      <use x="60.302734" xlink:href="#DejaVuSans-83"/>
      <use x="123.779297" xlink:href="#DejaVuSans-77"/>
      <use x="210.058594" xlink:href="#DejaVuSans-67"/>
      <use x="279.882812" xlink:href="#DejaVuSans-52"/>
     </g>
    </g>
   </g>
   <g id="text_34">
    <g clip-path="url(#p03dd4eb043)">
     <!-- PSMC6 -->
     <g transform="translate(638.102873 191.524968)scale(0.12 -0.12)">
      <use xlink:href="#DejaVuSans-80"/>
      <use x="60.302734" xlink:href="#DejaVuSans-83"/>
      <use x="123.779297" xlink:href="#DejaVuSans-77"/>
      <use x="210.058594" xlink:href="#DejaVuSans-67"/>
      <use x="279.882812" xlink:href="#DejaVuSans-54"/>
     </g>
    </g>
   </g>
   <g id="text_35">
    <g clip-path="url(#p03dd4eb043)">
     <!-- PSMC3 -->
     <g transform="translate(524.163349 120.874718)scale(0.12 -0.12)">
      <use xlink:href="#DejaVuSans-80"/>
      <use x="60.302734" xlink:href="#DejaVuSans-83"/>
      <use x="123.779297" xlink:href="#DejaVuSans-77"/>
      <use x="210.058594" xlink:href="#DejaVuSans-67"/>
      <use x="279.882812" xlink:href="#DejaVuSans-51"/>
     </g>
    </g>
   </g>
   <g id="text_36">
    <g clip-path="url(#p03dd4eb043)">
     <!-- PSMC5 -->
     <g transform="translate(168.42351 367.645558)scale(0.12 -0.12)">
      <use xlink:href="#DejaVuSans-80"/>
      <use x="60.302734" xlink:href="#DejaVuSans-83"/>
      <use x="123.779297" xlink:href="#DejaVuSans-77"/>
      <use x="210.058594" xlink:href="#DejaVuSans-67"/>
      <use x="279.882812" xlink:href="#DejaVuSans-53"/>
     </g>
    </g>
   </g>
   <g id="text_37">
    <g clip-path="url(#p03dd4eb043)">
     <!-- PSMD2 -->
     <g transform="translate(157.566802 225.581132)scale(0.12 -0.12)">
      <defs>
       <path d="M 19.671875 64.796875 
L 19.671875 8.109375 
L 31.59375 8.109375 
Q 46.6875 8.109375 53.6875 14.9375 
Q 60.6875 21.78125 60.6875 36.53125 
Q 60.6875 51.171875 53.6875 57.984375 
Q 46.6875 64.796875 31.59375 64.796875 
z
M 9.8125 72.90625 
L 30.078125 72.90625 
Q 51.265625 72.90625 61.171875 64.09375 
Q 71.09375 55.28125 71.09375 36.53125 
Q 71.09375 17.671875 61.125 8.828125 
Q 51.171875 0 30.078125 0 
L 9.8125 0 
z
" id="DejaVuSans-68"/>
      </defs>
      <use xlink:href="#DejaVuSans-80"/>
      <use x="60.302734" xlink:href="#DejaVuSans-83"/>
      <use x="123.779297" xlink:href="#DejaVuSans-77"/>
      <use x="210.058594" xlink:href="#DejaVuSans-68"/>
      <use x="287.060547" xlink:href="#DejaVuSans-50"/>
     </g>
    </g>
   </g>
   <g id="text_38">
    <g clip-path="url(#p03dd4eb043)">
     <!-- PSMD1 -->
     <g transform="translate(241.727401 432.407569)scale(0.12 -0.12)">
      <use xlink:href="#DejaVuSans-80"/>
      <use x="60.302734" xlink:href="#DejaVuSans-83"/>
      <use x="123.779297" xlink:href="#DejaVuSans-77"/>
      <use x="210.058594" xlink:href="#DejaVuSans-68"/>
      <use x="287.060547" xlink:href="#DejaVuSans-49"/>
     </g>
    </g>
   </g>
   <g id="text_39">
    <g clip-path="url(#p03dd4eb043)">
     <!-- PSMD3 -->
     <g transform="translate(421.49683 477.463977)scale(0.12 -0.12)">
      <use xlink:href="#DejaVuSans-80"/>
      <use x="60.302734" xlink:href="#DejaVuSans-83"/>
      <use x="123.779297" xlink:href="#DejaVuSans-77"/>
      <use x="210.058594" xlink:href="#DejaVuSans-68"/>
      <use x="287.060547" xlink:href="#DejaVuSans-51"/>
     </g>
    </g>
   </g>
   <g id="text_40">
    <g clip-path="url(#p03dd4eb043)">
     <!-- PSMD9 -->
     <g transform="translate(309.863041 120.909838)scale(0.12 -0.12)">
      <defs>
       <path d="M 10.984375 1.515625 
L 10.984375 10.5 
Q 14.703125 8.734375 18.5 7.8125 
Q 22.3125 6.890625 25.984375 6.890625 
Q 35.75 6.890625 40.890625 13.453125 
Q 46.046875 20.015625 46.78125 33.40625 
Q 43.953125 29.203125 39.59375 26.953125 
Q 35.25 24.703125 29.984375 24.703125 
Q 19.046875 24.703125 12.671875 31.3125 
Q 6.296875 37.9375 6.296875 49.421875 
Q 6.296875 60.640625 12.9375 67.421875 
Q 19.578125 74.21875 30.609375 74.21875 
Q 43.265625 74.21875 49.921875 64.515625 
Q 56.59375 54.828125 56.59375 36.375 
Q 56.59375 19.140625 48.40625 8.859375 
Q 40.234375 -1.421875 26.421875 -1.421875 
Q 22.703125 -1.421875 18.890625 -0.6875 
Q 15.09375 0.046875 10.984375 1.515625 
z
M 30.609375 32.421875 
Q 37.25 32.421875 41.125 36.953125 
Q 45.015625 41.5 45.015625 49.421875 
Q 45.015625 57.28125 41.125 61.84375 
Q 37.25 66.40625 30.609375 66.40625 
Q 23.96875 66.40625 20.09375 61.84375 
Q 16.21875 57.28125 16.21875 49.421875 
Q 16.21875 41.5 20.09375 36.953125 
Q 23.96875 32.421875 30.609375 32.421875 
z
" id="DejaVuSans-57"/>
      </defs>
      <use xlink:href="#DejaVuSans-80"/>
      <use x="60.302734" xlink:href="#DejaVuSans-83"/>
      <use x="123.779297" xlink:href="#DejaVuSans-77"/>
      <use x="210.058594" xlink:href="#DejaVuSans-68"/>
      <use x="287.060547" xlink:href="#DejaVuSans-57"/>
     </g>
    </g>
   </g>
   <g id="text_41">
    <g clip-path="url(#p03dd4eb043)">
     <!-- PSMD12 -->
     <g transform="translate(258.1452 144.578267)scale(0.12 -0.12)">
      <use xlink:href="#DejaVuSans-80"/>
      <use x="60.302734" xlink:href="#DejaVuSans-83"/>
      <use x="123.779297" xlink:href="#DejaVuSans-77"/>
      <use x="210.058594" xlink:href="#DejaVuSans-68"/>
      <use x="287.060547" xlink:href="#DejaVuSans-49"/>
      <use x="350.683594" xlink:href="#DejaVuSans-50"/>
     </g>
    </g>
   </g>
   <g id="text_42">
    <g clip-path="url(#p03dd4eb043)">
     <!-- PSMD11 -->
     <g transform="translate(147.085484 303.544844)scale(0.12 -0.12)">
      <use xlink:href="#DejaVuSans-80"/>
      <use x="60.302734" xlink:href="#DejaVuSans-83"/>
      <use x="123.779297" xlink:href="#DejaVuSans-77"/>
      <use x="210.058594" xlink:href="#DejaVuSans-68"/>
      <use x="287.060547" xlink:href="#DejaVuSans-49"/>
      <use x="350.683594" xlink:href="#DejaVuSans-49"/>
     </g>
    </g>
   </g>
   <g id="text_43">
    <g clip-path="url(#p03dd4eb043)">
     <!-- PSMD6 -->
     <g transform="translate(683.278005 356.410552)scale(0.12 -0.12)">
      <use xlink:href="#DejaVuSans-80"/>
      <use x="60.302734" xlink:href="#DejaVuSans-83"/>
      <use x="123.779297" xlink:href="#DejaVuSans-77"/>
      <use x="210.058594" xlink:href="#DejaVuSans-68"/>
      <use x="287.060547" xlink:href="#DejaVuSans-54"/>
     </g>
    </g>
   </g>
   <g id="text_44">
    <g clip-path="url(#p03dd4eb043)">
     <!-- PSMD7 -->
     <g transform="translate(338.152064 470.964161)scale(0.12 -0.12)">
      <use xlink:href="#DejaVuSans-80"/>
      <use x="60.302734" xlink:href="#DejaVuSans-83"/>
      <use x="123.779297" xlink:href="#DejaVuSans-77"/>
      <use x="210.058594" xlink:href="#DejaVuSans-68"/>
      <use x="287.060547" xlink:href="#DejaVuSans-55"/>
     </g>
    </g>
   </g>
   <g id="text_45">
    <g clip-path="url(#p03dd4eb043)">
     <!-- PSMD13 -->
     <g transform="translate(667.172443 304.022642)scale(0.12 -0.12)">
      <use xlink:href="#DejaVuSans-80"/>
      <use x="60.302734" xlink:href="#DejaVuSans-83"/>
      <use x="123.779297" xlink:href="#DejaVuSans-77"/>
      <use x="210.058594" xlink:href="#DejaVuSans-68"/>
      <use x="287.060547" xlink:href="#DejaVuSans-49"/>
      <use x="350.683594" xlink:href="#DejaVuSans-51"/>
     </g>
    </g>
   </g>
   <g id="text_46">
    <g clip-path="url(#p03dd4eb043)">
     <!-- PSMD4 -->
     <g transform="translate(472.830687 111.676992)scale(0.12 -0.12)">
      <use xlink:href="#DejaVuSans-80"/>
      <use x="60.302734" xlink:href="#DejaVuSans-83"/>
      <use x="123.779297" xlink:href="#DejaVuSans-77"/>
      <use x="210.058594" xlink:href="#DejaVuSans-68"/>
      <use x="287.060547" xlink:href="#DejaVuSans-52"/>
     </g>
    </g>
   </g>
   <g id="text_47">
    <g clip-path="url(#p03dd4eb043)">
     <!-- PSMD14 -->
     <g transform="translate(586.607038 439.787893)scale(0.12 -0.12)">
      <use xlink:href="#DejaVuSans-80"/>
      <use x="60.302734" xlink:href="#DejaVuSans-83"/>
      <use x="123.779297" xlink:href="#DejaVuSans-77"/>
      <use x="210.058594" xlink:href="#DejaVuSans-68"/>
      <use x="287.060547" xlink:href="#DejaVuSans-49"/>
      <use x="350.683594" xlink:href="#DejaVuSans-52"/>
     </g>
    </g>
   </g>
   <g id="text_48">
    <g clip-path="url(#p03dd4eb043)">
     <!-- PSMD8 -->
     <g transform="translate(424.274249 118.509111)scale(0.12 -0.12)">
      <defs>
       <path d="M 31.78125 34.625 
Q 24.75 34.625 20.71875 30.859375 
Q 16.703125 27.09375 16.703125 20.515625 
Q 16.703125 13.921875 20.71875 10.15625 
Q 24.75 6.390625 31.78125 6.390625 
Q 38.8125 6.390625 42.859375 10.171875 
Q 46.921875 13.96875 46.921875 20.515625 
Q 46.921875 27.09375 42.890625 30.859375 
Q 38.875 34.625 31.78125 34.625 
z
M 21.921875 38.8125 
Q 15.578125 40.375 12.03125 44.71875 
Q 8.5 49.078125 8.5 55.328125 
Q 8.5 64.0625 14.71875 69.140625 
Q 20.953125 74.21875 31.78125 74.21875 
Q 42.671875 74.21875 48.875 69.140625 
Q 55.078125 64.0625 55.078125 55.328125 
Q 55.078125 49.078125 51.53125 44.71875 
Q 48 40.375 41.703125 38.8125 
Q 48.828125 37.15625 52.796875 32.3125 
Q 56.78125 27.484375 56.78125 20.515625 
Q 56.78125 9.90625 50.3125 4.234375 
Q 43.84375 -1.421875 31.78125 -1.421875 
Q 19.734375 -1.421875 13.25 4.234375 
Q 6.78125 9.90625 6.78125 20.515625 
Q 6.78125 27.484375 10.78125 32.3125 
Q 14.796875 37.15625 21.921875 38.8125 
z
M 18.3125 54.390625 
Q 18.3125 48.734375 21.84375 45.5625 
Q 25.390625 42.390625 31.78125 42.390625 
Q 38.140625 42.390625 41.71875 45.5625 
Q 45.3125 48.734375 45.3125 54.390625 
Q 45.3125 60.0625 41.71875 63.234375 
Q 38.140625 66.40625 31.78125 66.40625 
Q 25.390625 66.40625 21.84375 63.234375 
Q 18.3125 60.0625 18.3125 54.390625 
z
" id="DejaVuSans-56"/>
      </defs>
      <use xlink:href="#DejaVuSans-80"/>
      <use x="60.302734" xlink:href="#DejaVuSans-83"/>
      <use x="123.779297" xlink:href="#DejaVuSans-77"/>
      <use x="210.058594" xlink:href="#DejaVuSans-68"/>
      <use x="287.060547" xlink:href="#DejaVuSans-56"/>
     </g>
    </g>
   </g>
   <g id="text_49">
    <g clip-path="url(#p03dd4eb043)">
     <!-- SHFM1 -->
     <g transform="translate(222.211765 158.208475)scale(0.12 -0.12)">
      <defs>
       <path d="M 9.8125 72.90625 
L 19.671875 72.90625 
L 19.671875 43.015625 
L 55.515625 43.015625 
L 55.515625 72.90625 
L 65.375 72.90625 
L 65.375 0 
L 55.515625 0 
L 55.515625 34.71875 
L 19.671875 34.71875 
L 19.671875 0 
L 9.8125 0 
z
" id="DejaVuSans-72"/>
      </defs>
      <use xlink:href="#DejaVuSans-83"/>
      <use x="63.476562" xlink:href="#DejaVuSans-72"/>
      <use x="138.671875" xlink:href="#DejaVuSans-70"/>
      <use x="196.191406" xlink:href="#DejaVuSans-77"/>
      <use x="282.470703" xlink:href="#DejaVuSans-49"/>
     </g>
    </g>
   </g>
   <g id="text_50">
    <!-- Frame: 11 -->
    <g transform="translate(121.392 91.296)scale(0.1 -0.1)">
     <defs>
      <path d="M 41.109375 46.296875 
Q 39.59375 47.171875 37.8125 47.578125 
Q 36.03125 48 33.890625 48 
Q 26.265625 48 22.1875 43.046875 
Q 18.109375 38.09375 18.109375 28.8125 
L 18.109375 0 
L 9.078125 0 
L 9.078125 54.6875 
L 18.109375 54.6875 
L 18.109375 46.1875 
Q 20.953125 51.171875 25.484375 53.578125 
Q 30.03125 56 36.53125 56 
Q 37.453125 56 38.578125 55.875 
Q 39.703125 55.765625 41.0625 55.515625 
z
" id="DejaVuSans-114"/>
      <path d="M 34.28125 27.484375 
Q 23.390625 27.484375 19.1875 25 
Q 14.984375 22.515625 14.984375 16.5 
Q 14.984375 11.71875 18.140625 8.90625 
Q 21.296875 6.109375 26.703125 6.109375 
Q 34.1875 6.109375 38.703125 11.40625 
Q 43.21875 16.703125 43.21875 25.484375 
L 43.21875 27.484375 
z
M 52.203125 31.203125 
L 52.203125 0 
L 43.21875 0 
L 43.21875 8.296875 
Q 40.140625 3.328125 35.546875 0.953125 
Q 30.953125 -1.421875 24.3125 -1.421875 
Q 15.921875 -1.421875 10.953125 3.296875 
Q 6 8.015625 6 15.921875 
Q 6 25.140625 12.171875 29.828125 
Q 18.359375 34.515625 30.609375 34.515625 
L 43.21875 34.515625 
L 43.21875 35.40625 
Q 43.21875 41.609375 39.140625 45 
Q 35.0625 48.390625 27.6875 48.390625 
Q 23 48.390625 18.546875 47.265625 
Q 14.109375 46.140625 10.015625 43.890625 
L 10.015625 52.203125 
Q 14.9375 54.109375 19.578125 55.046875 
Q 24.21875 56 28.609375 56 
Q 40.484375 56 46.34375 49.84375 
Q 52.203125 43.703125 52.203125 31.203125 
z
" id="DejaVuSans-97"/>
      <path d="M 52 44.1875 
Q 55.375 50.25 60.0625 53.125 
Q 64.75 56 71.09375 56 
Q 79.640625 56 84.28125 50.015625 
Q 88.921875 44.046875 88.921875 33.015625 
L 88.921875 0 
L 79.890625 0 
L 79.890625 32.71875 
Q 79.890625 40.578125 77.09375 44.375 
Q 74.3125 48.1875 68.609375 48.1875 
Q 61.625 48.1875 57.5625 43.546875 
Q 53.515625 38.921875 53.515625 30.90625 
L 53.515625 0 
L 44.484375 0 
L 44.484375 32.71875 
Q 44.484375 40.625 41.703125 44.40625 
Q 38.921875 48.1875 33.109375 48.1875 
Q 26.21875 48.1875 22.15625 43.53125 
Q 18.109375 38.875 18.109375 30.90625 
L 18.109375 0 
L 9.078125 0 
L 9.078125 54.6875 
L 18.109375 54.6875 
L 18.109375 46.1875 
Q 21.1875 51.21875 25.484375 53.609375 
Q 29.78125 56 35.6875 56 
Q 41.65625 56 45.828125 52.96875 
Q 50 49.953125 52 44.1875 
z
" id="DejaVuSans-109"/>
      <path d="M 56.203125 29.59375 
L 56.203125 25.203125 
L 14.890625 25.203125 
Q 15.484375 15.921875 20.484375 11.0625 
Q 25.484375 6.203125 34.421875 6.203125 
Q 39.59375 6.203125 44.453125 7.46875 
Q 49.3125 8.734375 54.109375 11.28125 
L 54.109375 2.78125 
Q 49.265625 0.734375 44.1875 -0.34375 
Q 39.109375 -1.421875 33.890625 -1.421875 
Q 20.796875 -1.421875 13.15625 6.1875 
Q 5.515625 13.8125 5.515625 26.8125 
Q 5.515625 40.234375 12.765625 48.109375 
Q 20.015625 56 32.328125 56 
Q 43.359375 56 49.78125 48.890625 
Q 56.203125 41.796875 56.203125 29.59375 
z
M 47.21875 32.234375 
Q 47.125 39.59375 43.09375 43.984375 
Q 39.0625 48.390625 32.421875 48.390625 
Q 24.90625 48.390625 20.390625 44.140625 
Q 15.875 39.890625 15.1875 32.171875 
z
" id="DejaVuSans-101"/>
      <path d="M 11.71875 12.40625 
L 22.015625 12.40625 
L 22.015625 0 
L 11.71875 0 
z
M 11.71875 51.703125 
L 22.015625 51.703125 
L 22.015625 39.3125 
L 11.71875 39.3125 
z
" id="DejaVuSans-58"/>
      <path id="DejaVuSans-32"/>
     </defs>
     <use xlink:href="#DejaVuSans-70"/>
     <use x="50.269531" xlink:href="#DejaVuSans-114"/>
     <use x="91.382812" xlink:href="#DejaVuSans-97"/>
     <use x="152.662109" xlink:href="#DejaVuSans-109"/>
     <use x="250.074219" xlink:href="#DejaVuSans-101"/>
     <use x="311.597656" xlink:href="#DejaVuSans-58"/>
     <use x="345.289062" xlink:href="#DejaVuSans-32"/>
     <use x="377.076172" xlink:href="#DejaVuSans-49"/>
     <use x="440.699219" xlink:href="#DejaVuSans-49"/>
    </g>
   </g>
   <g id="text_51">
    <!-- Network: hsa05017 -->
    <g transform="translate(384.1275 63.12)scale(0.12 -0.12)">
     <defs>
      <path d="M 18.3125 70.21875 
L 18.3125 54.6875 
L 36.8125 54.6875 
L 36.8125 47.703125 
L 18.3125 47.703125 
L 18.3125 18.015625 
Q 18.3125 11.328125 20.140625 9.421875 
Q 21.96875 7.515625 27.59375 7.515625 
L 36.8125 7.515625 
L 36.8125 0 
L 27.59375 0 
Q 17.1875 0 13.234375 3.875 
Q 9.28125 7.765625 9.28125 18.015625 
L 9.28125 47.703125 
L 2.6875 47.703125 
L 2.6875 54.6875 
L 9.28125 54.6875 
L 9.28125 70.21875 
z
" id="DejaVuSans-116"/>
      <path d="M 4.203125 54.6875 
L 13.1875 54.6875 
L 24.421875 12.015625 
L 35.59375 54.6875 
L 46.1875 54.6875 
L 57.421875 12.015625 
L 68.609375 54.6875 
L 77.59375 54.6875 
L 63.28125 0 
L 52.6875 0 
L 40.921875 44.828125 
L 29.109375 0 
L 18.5 0 
z
" id="DejaVuSans-119"/>
      <path d="M 30.609375 48.390625 
Q 23.390625 48.390625 19.1875 42.75 
Q 14.984375 37.109375 14.984375 27.296875 
Q 14.984375 17.484375 19.15625 11.84375 
Q 23.34375 6.203125 30.609375 6.203125 
Q 37.796875 6.203125 41.984375 11.859375 
Q 46.1875 17.53125 46.1875 27.296875 
Q 46.1875 37.015625 41.984375 42.703125 
Q 37.796875 48.390625 30.609375 48.390625 
z
M 30.609375 56 
Q 42.328125 56 49.015625 48.375 
Q 55.71875 40.765625 55.71875 27.296875 
Q 55.71875 13.875 49.015625 6.21875 
Q 42.328125 -1.421875 30.609375 -1.421875 
Q 18.84375 -1.421875 12.171875 6.21875 
Q 5.515625 13.875 5.515625 27.296875 
Q 5.515625 40.765625 12.171875 48.375 
Q 18.84375 56 30.609375 56 
z
" id="DejaVuSans-111"/>
      <path d="M 9.078125 75.984375 
L 18.109375 75.984375 
L 18.109375 31.109375 
L 44.921875 54.6875 
L 56.390625 54.6875 
L 27.390625 29.109375 
L 57.625 0 
L 45.90625 0 
L 18.109375 26.703125 
L 18.109375 0 
L 9.078125 0 
z
" id="DejaVuSans-107"/>
      <path d="M 54.890625 33.015625 
L 54.890625 0 
L 45.90625 0 
L 45.90625 32.71875 
Q 45.90625 40.484375 42.875 44.328125 
Q 39.84375 48.1875 33.796875 48.1875 
Q 26.515625 48.1875 22.3125 43.546875 
Q 18.109375 38.921875 18.109375 30.90625 
L 18.109375 0 
L 9.078125 0 
L 9.078125 75.984375 
L 18.109375 75.984375 
L 18.109375 46.1875 
Q 21.34375 51.125 25.703125 53.5625 
Q 30.078125 56 35.796875 56 
Q 45.21875 56 50.046875 50.171875 
Q 54.890625 44.34375 54.890625 33.015625 
z
" id="DejaVuSans-104"/>
      <path d="M 44.28125 53.078125 
L 44.28125 44.578125 
Q 40.484375 46.53125 36.375 47.5 
Q 32.28125 48.484375 27.875 48.484375 
Q 21.1875 48.484375 17.84375 46.4375 
Q 14.5 44.390625 14.5 40.28125 
Q 14.5 37.15625 16.890625 35.375 
Q 19.28125 33.59375 26.515625 31.984375 
L 29.59375 31.296875 
Q 39.15625 29.25 43.1875 25.515625 
Q 47.21875 21.78125 47.21875 15.09375 
Q 47.21875 7.46875 41.1875 3.015625 
Q 35.15625 -1.421875 24.609375 -1.421875 
Q 20.21875 -1.421875 15.453125 -0.5625 
Q 10.6875 0.296875 5.421875 2 
L 5.421875 11.28125 
Q 10.40625 8.6875 15.234375 7.390625 
Q 20.0625 6.109375 24.8125 6.109375 
Q 31.15625 6.109375 34.5625 8.28125 
Q 37.984375 10.453125 37.984375 14.40625 
Q 37.984375 18.0625 35.515625 20.015625 
Q 33.0625 21.96875 24.703125 23.78125 
L 21.578125 24.515625 
Q 13.234375 26.265625 9.515625 29.90625 
Q 5.8125 33.546875 5.8125 39.890625 
Q 5.8125 47.609375 11.28125 51.796875 
Q 16.75 56 26.8125 56 
Q 31.78125 56 36.171875 55.265625 
Q 40.578125 54.546875 44.28125 53.078125 
z
" id="DejaVuSans-115"/>
      <path d="M 31.78125 66.40625 
Q 24.171875 66.40625 20.328125 58.90625 
Q 16.5 51.421875 16.5 36.375 
Q 16.5 21.390625 20.328125 13.890625 
Q 24.171875 6.390625 31.78125 6.390625 
Q 39.453125 6.390625 43.28125 13.890625 
Q 47.125 21.390625 47.125 36.375 
Q 47.125 51.421875 43.28125 58.90625 
Q 39.453125 66.40625 31.78125 66.40625 
z
M 31.78125 74.21875 
Q 44.046875 74.21875 50.515625 64.515625 
Q 56.984375 54.828125 56.984375 36.375 
Q 56.984375 17.96875 50.515625 8.265625 
Q 44.046875 -1.421875 31.78125 -1.421875 
Q 19.53125 -1.421875 13.0625 8.265625 
Q 6.59375 17.96875 6.59375 36.375 
Q 6.59375 54.828125 13.0625 64.515625 
Q 19.53125 74.21875 31.78125 74.21875 
z
" id="DejaVuSans-48"/>
     </defs>
     <use xlink:href="#DejaVuSans-78"/>
     <use x="74.804688" xlink:href="#DejaVuSans-101"/>
     <use x="136.328125" xlink:href="#DejaVuSans-116"/>
     <use x="175.537109" xlink:href="#DejaVuSans-119"/>
     <use x="257.324219" xlink:href="#DejaVuSans-111"/>
     <use x="318.505859" xlink:href="#DejaVuSans-114"/>
     <use x="359.619141" xlink:href="#DejaVuSans-107"/>
     <use x="417.529297" xlink:href="#DejaVuSans-58"/>
     <use x="451.220703" xlink:href="#DejaVuSans-32"/>
     <use x="483.007812" xlink:href="#DejaVuSans-104"/>
     <use x="546.386719" xlink:href="#DejaVuSans-115"/>
     <use x="598.486328" xlink:href="#DejaVuSans-97"/>
     <use x="659.765625" xlink:href="#DejaVuSans-48"/>
     <use x="723.388672" xlink:href="#DejaVuSans-53"/>
     <use x="787.011719" xlink:href="#DejaVuSans-48"/>
     <use x="850.634766" xlink:href="#DejaVuSans-49"/>
     <use x="914.257812" xlink:href="#DejaVuSans-55"/>
    </g>
   </g>
  </g>
 </g>
 <defs>
  <clipPath id="p03dd4eb043">
   <rect height="443.52" width="669.6" x="108" y="69.12"/>
  </clipPath>
 </defs>
</svg>
