<?xml version="1.0" encoding="utf-8" standalone="no"?>
<!DOCTYPE svg PUBLIC "-//W3C//DTD SVG 1.1//EN"
  "http://www.w3.org/Graphics/SVG/1.1/DTD/svg11.dtd">
<!-- Created with matplotlib (https://matplotlib.org/) -->
<svg height="576pt" version="1.1" viewBox="0 0 864 576" width="864pt" xmlns="http://www.w3.org/2000/svg" xmlns:xlink="http://www.w3.org/1999/xlink">
 <metadata>
  <rdf:RDF xmlns:cc="http://creativecommons.org/ns#" xmlns:dc="http://purl.org/dc/elements/1.1/" xmlns:rdf="http://www.w3.org/1999/02/22-rdf-syntax-ns#">
   <cc:Work>
    <dc:type rdf:resource="http://purl.org/dc/dcmitype/StillImage"/>
    <dc:date>2024-03-22T16:16:50.970228</dc:date>
    <dc:format>image/svg+xml</dc:format>
    <dc:creator>
     <cc:Agent>
      <dc:title>Matplotlib v3.3.1, https://matplotlib.org/</dc:title>
     </cc:Agent>
    </dc:creator>
   </cc:Work>
  </rdf:RDF>
 </metadata>
 <defs>
  <style type="text/css">*{stroke-linecap:butt;stroke-linejoin:round;}</style>
 </defs>
 <g id="figure_1">
  <g id="patch_1">
   <path d="M 0 576 
L 864 576 
L 864 0 
L 0 0 
z
" style="fill:#ffffff;"/>
  </g>
  <g id="axes_1">
   <g id="patch_2">
    <path clip-path="url(#p7fe8c31c32)" d="M 505.935929 283.76173 
Q 553.153709 363.129393 599.799854 441.536204 
" style="fill:none;stroke:#000000;stroke-linecap:round;"/>
    <path clip-path="url(#p7fe8c31c32)" d="M 599.473537 437.075989 
L 599.799854 441.536204 
L 596.035892 439.121129 
L 599.473537 437.075989 
z
" style="stroke:#000000;stroke-linecap:round;"/>
   </g>
   <g id="patch_3">
    <path clip-path="url(#p7fe8c31c32)" d="M 495.857294 269.7543 
Q 431.967736 195.527796 368.807539 122.148659 
" style="fill:none;stroke:#000000;stroke-linecap:round;"/>
    <path clip-path="url(#p7fe8c31c32)" d="M 369.901164 126.485015 
L 368.807539 122.148659 
L 372.932799 123.875573 
L 369.901164 126.485015 
z
" style="stroke:#000000;stroke-linecap:round;"/>
   </g>
   <g id="patch_4">
    <path clip-path="url(#p7fe8c31c32)" d="M 273.429026 152.27896 
Q 313.94019 135.190602 353.421218 118.536776 
" style="fill:none;stroke:#000000;stroke-linecap:round;"/>
    <path clip-path="url(#p7fe8c31c32)" d="M 348.958374 118.248635 
L 353.421218 118.536776 
L 350.512999 121.934166 
L 348.958374 118.248635 
z
" style="stroke:#000000;stroke-linecap:round;"/>
   </g>
   <g id="patch_5">
    <path clip-path="url(#p7fe8c31c32)" d="M 223.439618 424.978354 
Q 240.806918 436.406542 257.240251 447.220153 
" style="fill:none;stroke:#000000;stroke-linecap:round;"/>
    <path clip-path="url(#p7fe8c31c32)" d="M 254.998179 443.350643 
L 257.240251 447.220153 
L 252.7994 446.692105 
L 254.998179 443.350643 
z
" style="stroke:#000000;stroke-linecap:round;"/>
   </g>
   <g id="patch_6">
    <path clip-path="url(#p7fe8c31c32)" d="M 391.281652 412.917226 
Q 308.069562 416.386963 225.974535 419.81012 
" style="fill:none;stroke:#000000;stroke-linecap:round;"/>
    <path clip-path="url(#p7fe8c31c32)" d="M 230.054385 421.641739 
L 225.974535 419.81012 
L 229.887739 417.645211 
L 230.054385 421.641739 
z
" style="stroke:#000000;stroke-linecap:round;"/>
   </g>
   <g id="patch_7">
    <path clip-path="url(#p7fe8c31c32)" d="M 408.237389 410.085243 
Q 442.559988 399.868125 475.811022 389.96999 
" style="fill:none;stroke:#000000;stroke-linecap:round;"/>
    <path clip-path="url(#p7fe8c31c32)" d="M 471.406664 389.194343 
L 475.811022 389.96999 
L 472.547889 393.028089 
L 471.406664 389.194343 
z
" style="stroke:#000000;stroke-linecap:round;"/>
   </g>
   <g id="patch_8">
    <path clip-path="url(#p7fe8c31c32)" d="M 476.881158 389.651252 
Q 375.297391 419.888391 274.785194 449.806569 
" style="fill:none;stroke:#000000;stroke-linecap:round;"/>
    <path clip-path="url(#p7fe8c31c32)" d="M 279.189537 450.582304 
L 274.785194 449.806569 
L 278.048388 446.748536 
L 279.189537 450.582304 
z
" style="stroke:#000000;stroke-linecap:round;"/>
   </g>
   <g id="patch_9">
    <path clip-path="url(#p7fe8c31c32)" d="M 535.166599 267.186644 
Q 587.419757 340.1344 639.021854 412.173246 
" style="fill:none;stroke:#000000;stroke-linecap:round;"/>
    <path clip-path="url(#p7fe8c31c32)" d="M 638.318455 407.756773 
L 639.021854 412.173246 
L 635.066636 410.086081 
L 638.318455 407.756773 
z
" style="stroke:#000000;stroke-linecap:round;"/>
   </g>
   <g id="patch_10">
    <path clip-path="url(#p7fe8c31c32)" d="M 525.000546 253.15922 
Q 474.200881 183.875685 424.06231 115.493789 
" style="fill:none;stroke:#000000;stroke-linecap:round;"/>
    <path clip-path="url(#p7fe8c31c32)" d="M 424.814613 119.902194 
L 424.06231 115.493789 
L 428.040416 117.53699 
L 424.814613 119.902194 
z
" style="stroke:#000000;stroke-linecap:round;"/>
   </g>
   <g id="patch_11">
    <path clip-path="url(#p7fe8c31c32)" d="M 517.294757 190.831111 
Q 531.207838 165.564009 544.581635 141.276281 
" style="fill:none;stroke:#000000;stroke-linecap:round;"/>
    <path clip-path="url(#p7fe8c31c32)" d="M 540.90028 143.815498 
L 544.581635 141.276281 
L 544.404197 145.744895 
L 540.90028 143.815498 
z
" style="stroke:#000000;stroke-linecap:round;"/>
   </g>
   <g id="patch_12">
    <path clip-path="url(#p7fe8c31c32)" d="M 504.937131 195.576063 
Q 414.078208 164.052658 324.275551 132.895723 
" style="fill:none;stroke:#000000;stroke-linecap:round;"/>
    <path clip-path="url(#p7fe8c31c32)" d="M 327.399003 136.096355 
L 324.275551 132.895723 
L 328.710128 132.317341 
L 327.399003 136.096355 
z
" style="stroke:#000000;stroke-linecap:round;"/>
   </g>
   <g id="patch_13">
    <path clip-path="url(#p7fe8c31c32)" d="M 521.227999 195.376434 
Q 575.818832 174.922482 629.362706 154.860802 
" style="fill:none;stroke:#000000;stroke-linecap:round;"/>
    <path clip-path="url(#p7fe8c31c32)" d="M 624.915275 154.39138 
L 629.362706 154.860802 
L 626.31871 158.137093 
L 624.915275 154.39138 
z
" style="stroke:#000000;stroke-linecap:round;"/>
   </g>
   <g id="patch_14">
    <path clip-path="url(#p7fe8c31c32)" d="M 515.663856 206.692289 
Q 528.931288 249.845367 541.870157 291.929779 
" style="fill:none;stroke:#000000;stroke-linecap:round;"/>
    <path clip-path="url(#p7fe8c31c32)" d="M 542.606347 287.518654 
L 541.870157 291.929779 
L 538.782971 288.694153 
L 542.606347 287.518654 
z
" style="stroke:#000000;stroke-linecap:round;"/>
   </g>
   <g id="patch_15">
    <path clip-path="url(#p7fe8c31c32)" d="M 515.500033 206.738209 
Q 528.983772 253.872254 542.160008 299.931383 
" style="fill:none;stroke:#000000;stroke-linecap:round;"/>
    <path clip-path="url(#p7fe8c31c32)" d="M 542.982717 295.535573 
L 542.160008 299.931383 
L 539.136985 296.63573 
L 542.982717 295.535573 
z
" style="stroke:#000000;stroke-linecap:round;"/>
   </g>
   <g id="patch_16">
    <path clip-path="url(#p7fe8c31c32)" d="M 421.000434 356.465384 
Q 322.738371 387.053969 225.543813 417.310243 
" style="fill:none;stroke:#000000;stroke-linecap:round;"/>
    <path clip-path="url(#p7fe8c31c32)" d="M 229.957495 418.030946 
L 225.543813 417.310243 
L 228.768585 414.211719 
L 229.957495 418.030946 
z
" style="stroke:#000000;stroke-linecap:round;"/>
   </g>
   <g id="patch_17">
    <path clip-path="url(#p7fe8c31c32)" d="M 437.926399 353.798066 
Q 567.332257 352.398057 695.620146 351.010144 
" style="fill:none;stroke:#000000;stroke-linecap:round;"/>
    <path clip-path="url(#p7fe8c31c32)" d="M 691.598744 349.053533 
L 695.620146 351.010144 
L 691.642016 353.053299 
L 691.598744 349.053533 
z
" style="stroke:#000000;stroke-linecap:round;"/>
   </g>
   <g id="patch_18">
    <path clip-path="url(#p7fe8c31c32)" d="M 331.976123 429.779848 
Q 347.353276 443.835219 361.905187 457.136285 
" style="fill:none;stroke:#000000;stroke-linecap:round;"/>
    <path clip-path="url(#p7fe8c31c32)" d="M 360.302057 452.961363 
L 361.905187 457.136285 
L 357.603372 455.913836 
L 360.302057 452.961363 
z
" style="stroke:#000000;stroke-linecap:round;"/>
   </g>
   <g id="patch_19">
    <path clip-path="url(#p7fe8c31c32)" d="M 317.619102 420.533696 
Q 250.617144 391.897067 184.643256 363.699836 
" style="fill:none;stroke:#000000;stroke-linecap:round;"/>
    <path clip-path="url(#p7fe8c31c32)" d="M 187.535377 367.110941 
L 184.643256 363.699836 
L 189.107413 363.432802 
L 187.535377 367.110941 
z
" style="stroke:#000000;stroke-linecap:round;"/>
   </g>
   <g id="patch_20">
    <path clip-path="url(#p7fe8c31c32)" d="M 401.36336 371.336808 
Q 386.668707 413.447465 372.342412 454.502513 
" style="fill:none;stroke:#000000;stroke-linecap:round;"/>
    <path clip-path="url(#p7fe8c31c32)" d="M 375.548623 451.384788 
L 372.342412 454.502513 
L 371.771959 450.066909 
L 375.548623 451.384788 
z
" style="stroke:#000000;stroke-linecap:round;"/>
   </g>
   <g id="patch_21">
    <path clip-path="url(#p7fe8c31c32)" d="M 395.557731 363.031976 
Q 289.93296 361.506067 185.426107 359.996308 
" style="fill:none;stroke:#000000;stroke-linecap:round;"/>
    <path clip-path="url(#p7fe8c31c32)" d="M 189.3968 362.05388 
L 185.426107 359.996308 
L 189.45458 358.054297 
L 189.3968 362.05388 
z
" style="stroke:#000000;stroke-linecap:round;"/>
   </g>
   <g id="patch_22">
    <path clip-path="url(#p7fe8c31c32)" d="M 271.497542 381.645235 
Q 316.995161 419.901894 361.637053 457.439016 
" style="fill:none;stroke:#000000;stroke-linecap:round;"/>
    <path clip-path="url(#p7fe8c31c32)" d="M 359.862662 453.333953 
L 361.637053 457.439016 
L 357.288369 456.395491 
L 359.862662 453.333953 
z
" style="stroke:#000000;stroke-linecap:round;"/>
   </g>
   <g id="patch_23">
    <path clip-path="url(#p7fe8c31c32)" d="M 256.350634 374.524251 
Q 220.258581 367.963889 185.266538 361.603474 
" style="fill:none;stroke:#000000;stroke-linecap:round;"/>
    <path clip-path="url(#p7fe8c31c32)" d="M 188.844378 364.28658 
L 185.266538 361.603474 
L 189.559727 360.351065 
L 188.844378 364.28658 
z
" style="stroke:#000000;stroke-linecap:round;"/>
   </g>
   <g id="patch_24">
    <path clip-path="url(#p7fe8c31c32)" d="M 379.542177 368.565955 
Q 355.585387 393.151388 332.408863 416.936081 
" style="fill:none;stroke:#000000;stroke-linecap:round;"/>
    <path clip-path="url(#p7fe8c31c32)" d="M 336.632835 415.467046 
L 332.408863 416.936081 
L 333.768019 412.675483 
L 336.632835 415.467046 
z
" style="stroke:#000000;stroke-linecap:round;"/>
   </g>
   <g id="patch_25">
    <path clip-path="url(#p7fe8c31c32)" d="M 394.242604 362.731887 
Q 394.902577 362.760019 394.445531 362.740537 
" style="fill:none;stroke:#000000;stroke-linecap:round;"/>
    <path clip-path="url(#p7fe8c31c32)" d="M 390.534334 360.572004 
L 394.445531 362.740537 
L 390.363986 364.568375 
L 390.534334 360.572004 
z
" style="stroke:#000000;stroke-linecap:round;"/>
   </g>
   <g id="patch_26">
    <path clip-path="url(#p7fe8c31c32)" d="M 376.984548 363.339872 
Q 325.229994 369.217738 274.586333 374.969438 
" style="fill:none;stroke:#000000;stroke-linecap:round;"/>
    <path clip-path="url(#p7fe8c31c32)" d="M 278.786475 376.505277 
L 274.586333 374.969438 
L 278.335089 372.530827 
L 278.786475 376.505277 
z
" style="stroke:#000000;stroke-linecap:round;"/>
   </g>
   <g id="patch_27">
    <path clip-path="url(#p7fe8c31c32)" d="M 383.166642 370.680525 
Q 379.135336 384.536464 375.416364 397.318882 
" style="fill:none;stroke:#000000;stroke-linecap:round;"/>
    <path clip-path="url(#p7fe8c31c32)" d="M 378.45418 394.036858 
L 375.416364 397.318882 
L 374.613435 392.919415 
L 378.45418 394.036858 
z
" style="stroke:#000000;stroke-linecap:round;"/>
   </g>
   <g id="patch_28">
    <path clip-path="url(#p7fe8c31c32)" d="M 372.144416 415.350951 
Q 370.903025 435.220006 369.731352 453.973203 
" style="fill:none;stroke:#000000;stroke-linecap:round;"/>
    <path clip-path="url(#p7fe8c31c32)" d="M 371.976888 450.105702 
L 369.731352 453.973203 
L 367.984672 449.856274 
L 371.976888 450.105702 
z
" style="stroke:#000000;stroke-linecap:round;"/>
   </g>
   <g id="patch_29">
    <path clip-path="url(#p7fe8c31c32)" d="M 364.257007 404.705081 
Q 274.164127 383.281618 185.158952 362.116804 
" style="fill:none;stroke:#000000;stroke-linecap:round;"/>
    <path clip-path="url(#p7fe8c31c32)" d="M 188.587757 364.987918 
L 185.158952 362.116804 
L 189.513126 361.096428 
L 188.587757 364.987918 
z
" style="stroke:#000000;stroke-linecap:round;"/>
   </g>
   <g id="patch_30">
    <path clip-path="url(#p7fe8c31c32)" d="M 487.601953 325.563444 
Q 562.449099 370.61024 636.338322 415.080508 
" style="fill:none;stroke:#000000;stroke-linecap:round;"/>
    <path clip-path="url(#p7fe8c31c32)" d="M 633.942474 411.304278 
L 636.338322 415.080508 
L 631.879829 414.731449 
L 633.942474 411.304278 
z
" style="stroke:#000000;stroke-linecap:round;"/>
   </g>
   <g id="patch_31">
    <path clip-path="url(#p7fe8c31c32)" d="M 477.771721 312.781774 
Q 449.231742 214.353677 421.00312 116.999386 
" style="fill:none;stroke:#000000;stroke-linecap:round;"/>
    <path clip-path="url(#p7fe8c31c32)" d="M 420.196188 121.398119 
L 421.00312 116.999386 
L 424.037948 120.284172 
L 420.196188 121.398119 
z
" style="stroke:#000000;stroke-linecap:round;"/>
   </g>
   <g id="patch_32">
    <path clip-path="url(#p7fe8c31c32)" d="M 480.836286 329.73386 
Q 482.68202 354.139335 484.44344 377.42996 
" style="fill:none;stroke:#000000;stroke-linecap:round;"/>
    <path clip-path="url(#p7fe8c31c32)" d="M 486.136095 373.290525 
L 484.44344 377.42996 
L 482.147485 373.592175 
L 486.136095 373.290525 
z
" style="stroke:#000000;stroke-linecap:round;"/>
   </g>
   <g id="patch_33">
    <path clip-path="url(#p7fe8c31c32)" d="M 472.074859 324.143005 
Q 348.194314 370.657833 225.360452 416.779651 
" style="fill:none;stroke:#000000;stroke-linecap:round;"/>
    <path clip-path="url(#p7fe8c31c32)" d="M 229.808213 417.245939 
L 225.360452 416.779651 
L 228.402139 413.501215 
L 229.808213 417.245939 
z
" style="stroke:#000000;stroke-linecap:round;"/>
   </g>
   <g id="patch_34">
    <path clip-path="url(#p7fe8c31c32)" d="M 488.7709 322.235021 
Q 592.790582 336.001668 695.701895 349.621626 
" style="fill:none;stroke:#000000;stroke-linecap:round;"/>
    <path clip-path="url(#p7fe8c31c32)" d="M 691.998878 347.114105 
L 695.701895 349.621626 
L 691.474068 351.079527 
L 691.998878 347.114105 
z
" style="stroke:#000000;stroke-linecap:round;"/>
   </g>
   <g id="patch_35">
    <path clip-path="url(#p7fe8c31c32)" d="M 238.771114 374.483897 
Q 267.582083 352.430874 295.505248 331.05741 
" style="fill:none;stroke:#000000;stroke-linecap:round;"/>
    <path clip-path="url(#p7fe8c31c32)" d="M 291.113305 331.900524 
L 295.505248 331.05741 
L 293.544574 335.076833 
L 291.113305 331.900524 
z
" style="stroke:#000000;stroke-linecap:round;"/>
   </g>
   <g id="patch_36">
    <path clip-path="url(#p7fe8c31c32)" d="M 300.806103 333.411965 
Q 284.341628 388.852494 268.195442 443.221253 
" style="fill:none;stroke:#000000;stroke-linecap:round;"/>
    <path clip-path="url(#p7fe8c31c32)" d="M 271.251431 439.956144 
L 268.195442 443.221253 
L 267.416948 438.817397 
L 271.251431 439.956144 
z
" style="stroke:#000000;stroke-linecap:round;"/>
   </g>
   <g id="patch_37">
    <path clip-path="url(#p7fe8c31c32)" d="M 457.282563 289.535265 
Q 577.134265 319.179939 695.90064 348.556163 
" style="fill:none;stroke:#000000;stroke-linecap:round;"/>
    <path clip-path="url(#p7fe8c31c32)" d="M 692.497873 345.654235 
L 695.90064 348.556163 
L 691.537438 349.537219 
L 692.497873 345.654235 
z
" style="stroke:#000000;stroke-linecap:round;"/>
   </g>
   <g id="patch_38">
    <path clip-path="url(#p7fe8c31c32)" d="M 441.35581 291.749283 
Q 332.540398 353.837878 224.696063 415.372389 
" style="fill:none;stroke:#000000;stroke-linecap:round;"/>
    <path clip-path="url(#p7fe8c31c32)" d="M 229.161471 415.127155 
L 224.696063 415.372389 
L 227.179121 411.652923 
L 229.161471 415.127155 
z
" style="stroke:#000000;stroke-linecap:round;"/>
   </g>
   <g id="patch_39">
    <path clip-path="url(#p7fe8c31c32)" d="M 441.230119 283.390869 
Q 395.025001 258.830126 349.807111 234.794151 
" style="fill:none;stroke:#000000;stroke-linecap:round;"/>
    <path clip-path="url(#p7fe8c31c32)" d="M 352.400386 238.437628 
L 349.807111 234.794151 
L 354.277858 234.905618 
L 352.400386 238.437628 
z
" style="stroke:#000000;stroke-linecap:round;"/>
   </g>
   <g id="patch_40">
    <path clip-path="url(#p7fe8c31c32)" d="M 451.462071 279.190495 
Q 475.125343 203.466017 498.455142 128.808682 
" style="fill:none;stroke:#000000;stroke-linecap:round;"/>
    <path clip-path="url(#p7fe8c31c32)" d="M 495.353106 132.030075 
L 498.455142 128.808682 
L 499.171035 133.223147 
L 495.353106 132.030075 
z
" style="stroke:#000000;stroke-linecap:round;"/>
   </g>
   <g id="patch_41">
    <path clip-path="url(#p7fe8c31c32)" d="M 403.787905 322.446455 
Q 367.329792 369.762237 331.554077 416.192394 
" style="fill:none;stroke:#000000;stroke-linecap:round;"/>
    <path clip-path="url(#p7fe8c31c32)" d="M 335.579755 414.244597 
L 331.554077 416.192394 
L 332.411246 411.803173 
L 335.579755 414.244597 
z
" style="stroke:#000000;stroke-linecap:round;"/>
   </g>
   <g id="patch_42">
    <path clip-path="url(#p7fe8c31c32)" d="M 408.195205 324.19996 
Q 406.646106 339.372409 405.210567 353.432606 
" style="fill:none;stroke:#000000;stroke-linecap:round;"/>
    <path clip-path="url(#p7fe8c31c32)" d="M 407.606509 349.656436 
L 405.210567 353.432606 
L 403.627196 349.25015 
L 407.606509 349.656436 
z
" style="stroke:#000000;stroke-linecap:round;"/>
   </g>
   <g id="patch_43">
    <path clip-path="url(#p7fe8c31c32)" d="M 401.087391 318.935467 
Q 336.971751 345.829356 273.887117 372.290781 
" style="fill:none;stroke:#000000;stroke-linecap:round;"/>
    <path clip-path="url(#p7fe8c31c32)" d="M 278.349374 372.587867 
L 273.887117 372.290781 
L 276.80214 368.899227 
L 278.349374 372.587867 
z
" style="stroke:#000000;stroke-linecap:round;"/>
   </g>
   <g id="patch_44">
    <path clip-path="url(#p7fe8c31c32)" d="M 405.861965 323.630177 
Q 390.87949 361.147253 376.31166 397.626028 
" style="fill:none;stroke:#000000;stroke-linecap:round;"/>
    <path clip-path="url(#p7fe8c31c32)" d="M 379.652513 394.653032 
L 376.31166 397.626028 
L 375.937775 393.169548 
L 379.652513 394.653032 
z
" style="stroke:#000000;stroke-linecap:round;"/>
   </g>
   <g id="patch_45">
    <path clip-path="url(#p7fe8c31c32)" d="M 416.988699 319.095937 
Q 526.892819 367.85272 635.774959 416.15612 
" style="fill:none;stroke:#000000;stroke-linecap:round;"/>
    <path clip-path="url(#p7fe8c31c32)" d="M 632.929642 412.705878 
L 635.774959 416.15612 
L 631.307575 416.362228 
L 632.929642 412.705878 
z
" style="stroke:#000000;stroke-linecap:round;"/>
   </g>
   <g id="patch_46">
    <path clip-path="url(#p7fe8c31c32)" d="M 409.457808 306.930978 
Q 413.677319 211.595572 417.847396 117.377105 
" style="fill:none;stroke:#000000;stroke-linecap:round;"/>
    <path clip-path="url(#p7fe8c31c32)" d="M 415.672486 121.284761 
L 417.847396 117.377105 
L 419.668574 121.461626 
L 415.672486 121.284761 
z
" style="stroke:#000000;stroke-linecap:round;"/>
   </g>
   <g id="patch_47">
    <path clip-path="url(#p7fe8c31c32)" d="M 415.68571 309.995255 
Q 455.382108 276.430224 494.224757 243.587075 
" style="fill:none;stroke:#000000;stroke-linecap:round;"/>
    <path clip-path="url(#p7fe8c31c32)" d="M 489.878952 244.642525 
L 494.224757 243.587075 
L 492.461634 247.696989 
L 489.878952 244.642525 
z
" style="stroke:#000000;stroke-linecap:round;"/>
   </g>
   <g id="patch_48">
    <path clip-path="url(#p7fe8c31c32)" d="M 400.445938 314.837947 
Q 332.695377 308.971692 266.058683 303.201882 
" style="fill:none;stroke:#000000;stroke-linecap:round;"/>
    <path clip-path="url(#p7fe8c31c32)" d="M 269.871245 305.53948 
L 266.058683 303.201882 
L 270.216299 301.554391 
L 269.871245 305.53948 
z
" style="stroke:#000000;stroke-linecap:round;"/>
   </g>
   <g id="patch_49">
    <path clip-path="url(#p7fe8c31c32)" d="M 390.881366 293.854768 
Q 434.95332 337.471749 478.230615 380.302274 
" style="fill:none;stroke:#000000;stroke-linecap:round;"/>
    <path clip-path="url(#p7fe8c31c32)" d="M 476.794407 376.067028 
L 478.230615 380.302274 
L 473.980693 378.910092 
L 476.794407 376.067028 
z
" style="stroke:#000000;stroke-linecap:round;"/>
   </g>
   <g id="patch_50">
    <path clip-path="url(#p7fe8c31c32)" d="M 377.922104 293.115446 
Q 300.467425 353.991039 223.891775 414.175759 
" style="fill:none;stroke:#000000;stroke-linecap:round;"/>
    <path clip-path="url(#p7fe8c31c32)" d="M 228.27256 413.276468 
L 223.891775 414.175759 
L 225.800813 410.131556 
L 228.27256 413.276468 
z
" style="stroke:#000000;stroke-linecap:round;"/>
   </g>
   <g id="patch_51">
    <path clip-path="url(#p7fe8c31c32)" d="M 391.840251 282.816618 
Q 448.924647 243.089671 505.091364 204.001367 
" style="fill:none;stroke:#000000;stroke-linecap:round;"/>
    <path clip-path="url(#p7fe8c31c32)" d="M 500.665736 204.644653 
L 505.091364 204.001367 
L 502.950616 207.927841 
L 500.665736 204.644653 
z
" style="stroke:#000000;stroke-linecap:round;"/>
   </g>
   <g id="patch_52">
    <path clip-path="url(#p7fe8c31c32)" d="M 388.870012 280.162567 
Q 422.825569 217.821126 456.246346 156.461526 
" style="fill:none;stroke:#000000;stroke-linecap:round;"/>
    <path clip-path="url(#p7fe8c31c32)" d="M 452.57669 159.017622 
L 456.246346 156.461526 
L 456.089429 160.930908 
L 452.57669 159.017622 
z
" style="stroke:#000000;stroke-linecap:round;"/>
   </g>
   <g id="patch_53">
    <path clip-path="url(#p7fe8c31c32)" d="M 391.672874 282.597113 
Q 398.744418 277.333634 404.919094 272.737708 
" style="fill:none;stroke:#000000;stroke-linecap:round;"/>
    <path clip-path="url(#p7fe8c31c32)" d="M 400.516207 273.52166 
L 404.919094 272.737708 
L 402.904523 276.73039 
L 400.516207 273.52166 
z
" style="stroke:#000000;stroke-linecap:round;"/>
   </g>
   <g id="patch_54">
    <path clip-path="url(#p7fe8c31c32)" d="M 252.831427 155.089373 
Q 233.622074 171.042293 215.272825 186.280916 
" style="fill:none;stroke:#000000;stroke-linecap:round;"/>
    <path clip-path="url(#p7fe8c31c32)" d="M 219.627802 185.263972 
L 215.272825 186.280916 
L 217.072256 182.186768 
L 219.627802 185.263972 
z
" style="stroke:#000000;stroke-linecap:round;"/>
   </g>
   <g id="patch_55">
    <path clip-path="url(#p7fe8c31c32)" d="M 214.411579 186.99616 
Q 233.620933 171.04324 251.970182 155.804617 
" style="fill:none;stroke:#000000;stroke-linecap:round;"/>
    <path clip-path="url(#p7fe8c31c32)" d="M 247.615205 156.821561 
L 251.970182 155.804617 
L 250.170751 159.898765 
L 247.615205 156.821561 
z
" style="stroke:#000000;stroke-linecap:round;"/>
   </g>
   <g id="patch_56">
    <path clip-path="url(#p7fe8c31c32)" d="M 551.965918 306.051414 
Q 616.01147 348.414741 679.124524 390.161263 
" style="fill:none;stroke:#000000;stroke-linecap:round;"/>
    <path clip-path="url(#p7fe8c31c32)" d="M 676.891698 386.28641 
L 679.124524 390.161263 
L 674.684946 389.622612 
L 676.891698 386.28641 
z
" style="stroke:#000000;stroke-linecap:round;"/>
   </g>
   <g id="patch_57">
    <path clip-path="url(#p7fe8c31c32)" d="M 549.993441 294.389105 
Q 593.369989 237.512002 636.06855 181.523904 
" style="fill:none;stroke:#000000;stroke-linecap:round;"/>
    <path clip-path="url(#p7fe8c31c32)" d="M 632.052602 183.491686 
L 636.06855 181.523904 
L 635.233207 185.917331 
L 632.052602 183.491686 
z
" style="stroke:#000000;stroke-linecap:round;"/>
   </g>
   <g id="patch_58">
    <path clip-path="url(#p7fe8c31c32)" d="M 544.719092 309.93405 
Q 544.504701 387.712151 544.293392 464.372222 
" style="fill:none;stroke:#000000;stroke-linecap:round;"/>
    <path clip-path="url(#p7fe8c31c32)" d="M 546.30441 460.37775 
L 544.293392 464.372222 
L 542.304425 460.366725 
L 546.30441 460.37775 
z
" style="stroke:#000000;stroke-linecap:round;"/>
   </g>
   <g id="patch_59">
    <path clip-path="url(#p7fe8c31c32)" d="M 553.024078 298.733995 
Q 629.835454 275.17657 705.577937 251.946967 
" style="fill:none;stroke:#000000;stroke-linecap:round;"/>
    <path clip-path="url(#p7fe8c31c32)" d="M 701.167323 251.20772 
L 705.577937 251.946967 
L 702.340171 255.03191 
L 701.167323 251.20772 
z
" style="stroke:#000000;stroke-linecap:round;"/>
   </g>
   <g id="patch_60">
    <path clip-path="url(#p7fe8c31c32)" d="M 553.395732 300.865643 
Q 632.119914 297.152662 709.727304 293.492353 
" style="fill:none;stroke:#000000;stroke-linecap:round;"/>
    <path clip-path="url(#p7fe8c31c32)" d="M 705.637522 291.683022 
L 709.727304 293.492353 
L 705.82597 295.678581 
L 705.637522 291.683022 
z
" style="stroke:#000000;stroke-linecap:round;"/>
   </g>
   <g id="patch_61">
    <path clip-path="url(#p7fe8c31c32)" d="M 536.164268 300.085329 
Q 364.373024 276.286888 193.689237 252.641865 
" style="fill:none;stroke:#000000;stroke-linecap:round;"/>
    <path clip-path="url(#p7fe8c31c32)" d="M 197.376958 255.171829 
L 193.689237 252.641865 
L 197.925841 251.209667 
L 197.376958 255.171829 
z
" style="stroke:#000000;stroke-linecap:round;"/>
   </g>
   <g id="patch_62">
    <path clip-path="url(#p7fe8c31c32)" d="M 552.257905 313.816479 
Q 616.066363 352.444638 678.918391 390.493796 
" style="fill:none;stroke:#000000;stroke-linecap:round;"/>
    <path clip-path="url(#p7fe8c31c32)" d="M 676.53231 386.711387 
L 678.918391 390.493796 
L 674.460815 390.133215 
L 676.53231 386.711387 
z
" style="stroke:#000000;stroke-linecap:round;"/>
   </g>
   <g id="patch_63">
    <path clip-path="url(#p7fe8c31c32)" d="M 549.8937 302.291008 
Q 593.424084 241.539477 636.303274 181.696761 
" style="fill:none;stroke:#000000;stroke-linecap:round;"/>
    <path clip-path="url(#p7fe8c31c32)" d="M 632.34775 183.783345 
L 636.303274 181.696761 
L 635.599227 186.11313 
L 632.34775 183.783345 
z
" style="stroke:#000000;stroke-linecap:round;"/>
   </g>
   <g id="patch_64">
    <path clip-path="url(#p7fe8c31c32)" d="M 544.818466 317.990403 
Q 544.557754 391.741931 544.300995 464.375431 
" style="fill:none;stroke:#000000;stroke-linecap:round;"/>
    <path clip-path="url(#p7fe8c31c32)" d="M 546.315122 460.382526 
L 544.300995 464.375431 
L 542.315147 460.368386 
L 546.315122 460.382526 
z
" style="stroke:#000000;stroke-linecap:round;"/>
   </g>
   <g id="patch_65">
    <path clip-path="url(#p7fe8c31c32)" d="M 553.01084 306.439962 
Q 629.885321 279.206435 705.705943 252.346247 
" style="fill:none;stroke:#000000;stroke-linecap:round;"/>
    <path clip-path="url(#p7fe8c31c32)" d="M 701.267695 251.796748 
L 705.705943 252.346247 
L 702.603395 255.567147 
L 701.267695 251.796748 
z
" style="stroke:#000000;stroke-linecap:round;"/>
   </g>
   <g id="patch_66">
    <path clip-path="url(#p7fe8c31c32)" d="M 553.469941 308.52676 
Q 632.171618 301.181527 709.760099 293.940188 
" style="fill:none;stroke:#000000;stroke-linecap:round;"/>
    <path clip-path="url(#p7fe8c31c32)" d="M 705.591554 292.320547 
L 709.760099 293.940188 
L 705.963259 296.303239 
L 705.591554 292.320547 
z
" style="stroke:#000000;stroke-linecap:round;"/>
   </g>
   <g id="patch_67">
    <path clip-path="url(#p7fe8c31c32)" d="M 536.300893 307.956625 
Q 364.426874 280.315818 193.656705 252.852532 
" style="fill:none;stroke:#000000;stroke-linecap:round;"/>
    <path clip-path="url(#p7fe8c31c32)" d="M 197.288401 255.46228 
L 193.656705 252.852532 
L 197.92352 251.513024 
L 197.288401 255.46228 
z
" style="stroke:#000000;stroke-linecap:round;"/>
   </g>
   <g id="patch_68">
    <path clip-path="url(#p7fe8c31c32)" d="M 466.469647 205.541741 
Q 504.632481 171.984752 541.955705 139.166041 
" style="fill:none;stroke:#000000;stroke-linecap:round;"/>
    <path clip-path="url(#p7fe8c31c32)" d="M 537.631152 140.305445 
L 541.955705 139.166041 
L 540.272496 143.309326 
L 537.631152 140.305445 
z
" style="stroke:#000000;stroke-linecap:round;"/>
   </g>
   <g id="patch_69">
    <path clip-path="url(#p7fe8c31c32)" d="M 452.420087 207.011065 
Q 387.50508 170.475978 323.564393 134.489253 
" style="fill:none;stroke:#000000;stroke-linecap:round;"/>
    <path clip-path="url(#p7fe8c31c32)" d="M 326.069289 138.194047 
L 323.564393 134.489253 
L 328.031166 134.708212 
L 326.069289 138.194047 
z
" style="stroke:#000000;stroke-linecap:round;"/>
   </g>
   <g id="patch_70">
    <path clip-path="url(#p7fe8c31c32)" d="M 468.181905 208.506566 
Q 549.244138 181.344335 629.246268 154.537322 
" style="fill:none;stroke:#000000;stroke-linecap:round;"/>
    <path clip-path="url(#p7fe8c31c32)" d="M 624.818091 153.911819 
L 629.246268 154.537322 
L 626.088959 157.704561 
L 624.818091 153.911819 
z
" style="stroke:#000000;stroke-linecap:round;"/>
   </g>
   <g id="patch_71">
    <path clip-path="url(#p7fe8c31c32)" d="M 503.189684 175.12744 
Q 523.057262 156.850192 542.102024 139.329895 
" style="fill:none;stroke:#000000;stroke-linecap:round;"/>
    <path clip-path="url(#p7fe8c31c32)" d="M 537.804156 140.566151 
L 542.102024 139.329895 
L 540.512308 143.509943 
L 537.804156 140.566151 
z
" style="stroke:#000000;stroke-linecap:round;"/>
   </g>
   <g id="patch_72">
    <path clip-path="url(#p7fe8c31c32)" d="M 488.483527 178.636432 
Q 405.928419 155.339736 324.449322 132.346685 
" style="fill:none;stroke:#000000;stroke-linecap:round;"/>
    <path clip-path="url(#p7fe8c31c32)" d="M 327.755798 135.357868 
L 324.449322 132.346685 
L 328.842153 131.508214 
L 327.755798 135.357868 
z
" style="stroke:#000000;stroke-linecap:round;"/>
   </g>
   <g id="patch_73">
    <path clip-path="url(#p7fe8c31c32)" d="M 505.298524 179.219675 
Q 567.669449 166.209382 628.945898 153.427392 
" style="fill:none;stroke:#000000;stroke-linecap:round;"/>
    <path clip-path="url(#p7fe8c31c32)" d="M 624.621781 152.286335 
L 628.945898 153.427392 
L 625.438581 156.202051 
L 624.621781 152.286335 
z
" style="stroke:#000000;stroke-linecap:round;"/>
   </g>
   <g id="patch_74">
    <path clip-path="url(#p7fe8c31c32)" d="M 446.816133 197.438858 
Q 494.396904 167.386037 541.032406 137.930264 
" style="fill:none;stroke:#000000;stroke-linecap:round;"/>
    <path clip-path="url(#p7fe8c31c32)" d="M 536.582477 138.375379 
L 541.032406 137.930264 
L 538.718541 141.757277 
L 536.582477 138.375379 
z
" style="stroke:#000000;stroke-linecap:round;"/>
   </g>
   <g id="patch_75">
    <path clip-path="url(#p7fe8c31c32)" d="M 432.008255 197.71029 
Q 377.266527 165.87721 323.491297 134.606163 
" style="fill:none;stroke:#000000;stroke-linecap:round;"/>
    <path clip-path="url(#p7fe8c31c32)" d="M 325.943754 138.345877 
L 323.491297 134.606163 
L 327.954542 134.888026 
L 325.943754 138.345877 
z
" style="stroke:#000000;stroke-linecap:round;"/>
   </g>
   <g id="patch_76">
    <path clip-path="url(#p7fe8c31c32)" d="M 447.885041 199.928821 
Q 539.005033 176.747346 629.041506 153.841524 
" style="fill:none;stroke:#000000;stroke-linecap:round;"/>
    <path clip-path="url(#p7fe8c31c32)" d="M 624.671884 152.889475 
L 629.041506 153.841524 
L 625.658093 156.765992 
L 624.671884 152.889475 
z
" style="stroke:#000000;stroke-linecap:round;"/>
   </g>
   <g id="patch_77">
    <path clip-path="url(#p7fe8c31c32)" d="M 349.684664 228.629375 
Q 427.143611 214.309273 503.503155 200.192423 
" style="fill:none;stroke:#000000;stroke-linecap:round;"/>
    <path clip-path="url(#p7fe8c31c32)" d="M 499.206221 198.95292 
L 503.503155 200.192423 
L 499.933393 202.886268 
L 499.206221 198.95292 
z
" style="stroke:#000000;stroke-linecap:round;"/>
   </g>
   <g id="patch_78">
    <path clip-path="url(#p7fe8c31c32)" d="M 502.645202 128.039065 
Q 507.244392 158.942244 511.679003 188.739568 
" style="fill:none;stroke:#000000;stroke-linecap:round;"/>
    <path clip-path="url(#p7fe8c31c32)" d="M 513.068397 184.488735 
L 511.679003 188.739568 
L 509.111972 185.077553 
L 513.068397 184.488735 
z
" style="stroke:#000000;stroke-linecap:round;"/>
   </g>
   <g id="patch_79">
    <path clip-path="url(#p7fe8c31c32)" d="M 447.374479 311.588784 
Q 542.249684 363.768226 636.145242 415.408881 
" style="fill:none;stroke:#000000;stroke-linecap:round;"/>
    <path clip-path="url(#p7fe8c31c32)" d="M 633.604159 411.728813 
L 636.145242 415.408881 
L 631.676539 415.233707 
L 633.604159 411.728813 
z
" style="stroke:#000000;stroke-linecap:round;"/>
   </g>
   <g id="patch_80">
    <path clip-path="url(#p7fe8c31c32)" d="M 438.858242 298.801945 
Q 429.032334 207.509231 419.326069 117.328132 
" style="fill:none;stroke:#000000;stroke-linecap:round;"/>
    <path clip-path="url(#p7fe8c31c32)" d="M 417.765605 121.519188 
L 419.326069 117.328132 
L 421.742635 121.091137 
L 417.765605 121.519188 
z
" style="stroke:#000000;stroke-linecap:round;"/>
   </g>
   <g id="patch_81">
    <path clip-path="url(#p7fe8c31c32)" d="M 444.067419 314.939172 
Q 462.481775 347.295556 480.343129 378.680246 
" style="fill:none;stroke:#000000;stroke-linecap:round;"/>
    <path clip-path="url(#p7fe8c31c32)" d="M 480.102871 374.214568 
L 480.343129 378.680246 
L 476.626432 376.193046 
L 480.102871 374.214568 
z
" style="stroke:#000000;stroke-linecap:round;"/>
   </g>
   <g id="patch_82">
    <path clip-path="url(#p7fe8c31c32)" d="M 432.051228 311.316899 
Q 327.992905 363.817206 224.932767 415.8139 
" style="fill:none;stroke:#000000;stroke-linecap:round;"/>
    <path clip-path="url(#p7fe8c31c32)" d="M 229.404874 415.797731 
L 224.932767 415.8139 
L 227.603095 412.226513 
L 229.404874 415.797731 
z
" style="stroke:#000000;stroke-linecap:round;"/>
   </g>
   <g id="patch_83">
    <path clip-path="url(#p7fe8c31c32)" d="M 448.332769 308.814394 
Q 572.590086 329.159673 695.744061 349.324296 
" style="fill:none;stroke:#000000;stroke-linecap:round;"/>
    <path clip-path="url(#p7fe8c31c32)" d="M 692.119792 346.704244 
L 695.744061 349.324296 
L 691.473458 350.651681 
L 692.119792 346.704244 
z
" style="stroke:#000000;stroke-linecap:round;"/>
   </g>
   <g id="patch_84">
    <path clip-path="url(#p7fe8c31c32)" d="M 444.621502 300.226472 
Q 476.45269 252.913899 507.65978 206.528959 
" style="fill:none;stroke:#000000;stroke-linecap:round;"/>
    <path clip-path="url(#p7fe8c31c32)" d="M 503.767542 208.731339 
L 507.65978 206.528959 
L 507.086342 210.964178 
L 503.767542 208.731339 
z
" style="stroke:#000000;stroke-linecap:round;"/>
   </g>
   <g id="patch_85">
    <path clip-path="url(#p7fe8c31c32)" d="M 431.136726 307.77788 
Q 302.946368 313.158547 175.873061 318.492325 
" style="fill:none;stroke:#000000;stroke-linecap:round;"/>
    <path clip-path="url(#p7fe8c31c32)" d="M 179.953416 320.322818 
L 175.873061 318.492325 
L 179.785668 316.326337 
L 179.953416 320.322818 
z
" style="stroke:#000000;stroke-linecap:round;"/>
   </g>
   <g id="patch_86">
    <path clip-path="url(#p7fe8c31c32)" d="M 448.964613 318.651307 
Q 542.994689 367.393521 636.032163 415.621201 
" style="fill:none;stroke:#000000;stroke-linecap:round;"/>
    <path clip-path="url(#p7fe8c31c32)" d="M 633.401351 412.004735 
L 636.032163 415.621201 
L 631.560503 415.555971 
L 633.401351 412.004735 
z
" style="stroke:#000000;stroke-linecap:round;"/>
   </g>
   <g id="patch_87">
    <path clip-path="url(#p7fe8c31c32)" d="M 440.319203 306.055923 
Q 429.777547 211.136022 419.359299 117.327324 
" style="fill:none;stroke:#000000;stroke-linecap:round;"/>
    <path clip-path="url(#p7fe8c31c32)" d="M 417.813039 121.523641 
L 419.359299 117.327324 
L 421.788597 121.082122 
L 417.813039 121.523641 
z
" style="stroke:#000000;stroke-linecap:round;"/>
   </g>
   <g id="patch_88">
    <path clip-path="url(#p7fe8c31c32)" d="M 445.759974 322.072329 
Q 463.226772 350.92089 480.114508 378.813058 
" style="fill:none;stroke:#000000;stroke-linecap:round;"/>
    <path clip-path="url(#p7fe8c31c32)" d="M 479.753638 374.355505 
L 480.114508 378.813058 
L 476.331944 376.427222 
L 479.753638 374.355505 
z
" style="stroke:#000000;stroke-linecap:round;"/>
   </g>
   <g id="patch_89">
    <path clip-path="url(#p7fe8c31c32)" d="M 433.434839 318.342435 
Q 328.739317 367.441784 225.056043 416.066416 
" style="fill:none;stroke:#000000;stroke-linecap:round;"/>
    <path clip-path="url(#p7fe8c31c32)" d="M 229.526767 416.178782 
L 225.056043 416.066416 
L 227.82837 412.557257 
L 229.526767 416.178782 
z
" style="stroke:#000000;stroke-linecap:round;"/>
   </g>
   <g id="patch_90">
    <path clip-path="url(#p7fe8c31c32)" d="M 449.855524 315.842701 
Q 573.333887 332.784783 695.704594 349.574887 
" style="fill:none;stroke:#000000;stroke-linecap:round;"/>
    <path clip-path="url(#p7fe8c31c32)" d="M 692.013589 347.049718 
L 695.704594 349.574887 
L 691.469855 351.01259 
L 692.013589 347.049718 
z
" style="stroke:#000000;stroke-linecap:round;"/>
   </g>
   <g id="patch_91">
    <path clip-path="url(#p7fe8c31c32)" d="M 445.829167 307.29689 
Q 477.197714 256.539153 507.978496 206.732485 
" style="fill:none;stroke:#000000;stroke-linecap:round;"/>
    <path clip-path="url(#p7fe8c31c32)" d="M 504.174319 209.083705 
L 507.978496 206.732485 
L 507.576966 211.186558 
L 504.174319 209.083705 
z
" style="stroke:#000000;stroke-linecap:round;"/>
   </g>
   <g id="patch_92">
    <path clip-path="url(#p7fe8c31c32)" d="M 432.613332 314.798815 
Q 303.688436 316.783903 175.881441 318.751779 
" style="fill:none;stroke:#000000;stroke-linecap:round;"/>
    <path clip-path="url(#p7fe8c31c32)" d="M 179.911757 320.68996 
L 175.881441 318.751779 
L 179.850176 316.690435 
L 179.911757 320.68996 
z
" style="stroke:#000000;stroke-linecap:round;"/>
   </g>
   <g id="patch_93">
    <path clip-path="url(#p7fe8c31c32)" d="M 493.740988 240.706394 
Q 443.212068 262.519154 393.709622 283.888797 
" style="fill:none;stroke:#000000;stroke-linecap:round;"/>
    <path clip-path="url(#p7fe8c31c32)" d="M 398.174716 284.139665 
L 393.709622 283.888797 
L 396.589373 280.467243 
L 398.174716 284.139665 
z
" style="stroke:#000000;stroke-linecap:round;"/>
   </g>
   <g id="patch_94">
    <path clip-path="url(#p7fe8c31c32)" d="M 264.921209 301.38109 
Q 320.523441 295.062249 375.014788 288.869652 
" style="fill:none;stroke:#000000;stroke-linecap:round;"/>
    <path clip-path="url(#p7fe8c31c32)" d="M 370.814537 287.334111 
L 375.014788 288.869652 
L 371.266204 291.308528 
L 370.814537 287.334111 
z
" style="stroke:#000000;stroke-linecap:round;"/>
   </g>
   <g id="patch_95">
    <path clip-path="url(#p7fe8c31c32)" d="M 517.478399 340.032075 
Q 502.692578 332.525774 488.903679 325.525581 
" style="fill:none;stroke:#000000;stroke-linecap:round;"/>
    <path clip-path="url(#p7fe8c31c32)" d="M 491.565029 329.119634 
L 488.903679 325.525581 
L 493.375732 325.552933 
L 491.565029 329.119634 
z
" style="stroke:#000000;stroke-linecap:round;"/>
   </g>
   <g id="patch_96">
    <path clip-path="url(#p7fe8c31c32)" d="M 517.238784 340.54675 
Q 482.493664 325.684014 448.776478 311.260993 
" style="fill:none;stroke:#000000;stroke-linecap:round;"/>
    <path clip-path="url(#p7fe8c31c32)" d="M 451.667547 314.67299 
L 448.776478 311.260993 
L 453.240717 310.995337 
L 451.667547 314.67299 
z
" style="stroke:#000000;stroke-linecap:round;"/>
   </g>
   <g id="patch_97">
    <path clip-path="url(#p7fe8c31c32)" d="M 517.024256 341.099386 
Q 483.239159 329.309467 450.509666 317.88792 
" style="fill:none;stroke:#000000;stroke-linecap:round;"/>
    <path clip-path="url(#p7fe8c31c32)" d="M 453.627348 321.094173 
L 450.509666 317.88792 
L 454.945278 317.317526 
L 453.627348 321.094173 
z
" style="stroke:#000000;stroke-linecap:round;"/>
   </g>
   <g id="patch_98">
    <path clip-path="url(#p7fe8c31c32)" d="M 492.505669 350.373792 
Q 488.023886 339.726109 483.975845 330.108895 
" style="fill:none;stroke:#000000;stroke-linecap:round;"/>
    <path clip-path="url(#p7fe8c31c32)" d="M 483.684285 334.571517 
L 483.975845 330.108895 
L 487.371006 333.019716 
L 483.684285 334.571517 
z
" style="stroke:#000000;stroke-linecap:round;"/>
   </g>
   <g id="patch_99">
    <path clip-path="url(#p7fe8c31c32)" d="M 489.45429 352.532017 
Q 467.825645 332.885514 447.024582 313.990748 
" style="fill:none;stroke:#000000;stroke-linecap:round;"/>
    <path clip-path="url(#p7fe8c31c32)" d="M 448.640676 318.160669 
L 447.024582 313.990748 
L 451.330175 315.199826 
L 448.640676 318.160669 
z
" style="stroke:#000000;stroke-linecap:round;"/>
   </g>
   <g id="patch_100">
    <path clip-path="url(#p7fe8c31c32)" d="M 489.10486 352.9449 
Q 468.572098 336.511883 448.912233 320.777472 
" style="fill:none;stroke:#000000;stroke-linecap:round;"/>
    <path clip-path="url(#p7fe8c31c32)" d="M 450.785497 324.838368 
L 448.912233 320.777472 
L 453.284909 321.715398 
L 450.785497 324.838368 
z
" style="stroke:#000000;stroke-linecap:round;"/>
   </g>
   <g id="patch_101">
    <path clip-path="url(#p7fe8c31c32)" d="M 460.791189 156.539504 
Q 460.44461 179.569172 460.114855 201.480932 
" style="fill:none;stroke:#000000;stroke-linecap:round;"/>
    <path clip-path="url(#p7fe8c31c32)" d="M 462.174818 197.51148 
L 460.114855 201.480932 
L 458.175271 197.45129 
L 462.174818 197.51148 
z
" style="stroke:#000000;stroke-linecap:round;"/>
   </g>
   <g id="patch_102">
    <path clip-path="url(#p7fe8c31c32)" d="M 467.286341 153.748742 
Q 478.871043 164.434182 489.633923 174.361593 
" style="fill:none;stroke:#000000;stroke-linecap:round;"/>
    <path clip-path="url(#p7fe8c31c32)" d="M 488.049684 170.179466 
L 489.633923 174.361593 
L 485.337678 173.119709 
L 488.049684 170.179466 
z
" style="stroke:#000000;stroke-linecap:round;"/>
   </g>
   <g id="patch_103">
    <path clip-path="url(#p7fe8c31c32)" d="M 457.736999 155.931086 
Q 450.208408 174.969432 443.090957 192.968084 
" style="fill:none;stroke:#000000;stroke-linecap:round;"/>
    <path clip-path="url(#p7fe8c31c32)" d="M 446.421758 189.983832 
L 443.090957 192.968084 
L 442.702036 188.512892 
L 446.421758 189.983832 
z
" style="stroke:#000000;stroke-linecap:round;"/>
   </g>
   <g id="patch_104">
    <path clip-path="url(#p7fe8c31c32)" d="M 418.368773 260.292642 
Q 436.366454 239.078337 453.640848 218.716588 
" style="fill:none;stroke:#000000;stroke-linecap:round;"/>
    <path clip-path="url(#p7fe8c31c32)" d="M 449.528032 220.472933 
L 453.640848 218.716588 
L 452.578234 223.060648 
L 449.528032 220.472933 
z
" style="stroke:#000000;stroke-linecap:round;"/>
   </g>
   <g id="patch_105">
    <path clip-path="url(#p7fe8c31c32)" d="M 418.821419 260.707778 
Q 454.791092 223.94395 489.978875 187.979277 
" style="fill:none;stroke:#000000;stroke-linecap:round;"/>
    <path clip-path="url(#p7fe8c31c32)" d="M 485.751927 189.439727 
L 489.978875 187.979277 
L 488.611067 192.237105 
L 485.751927 189.439727 
z
" style="stroke:#000000;stroke-linecap:round;"/>
   </g>
   <g id="patch_106">
    <path clip-path="url(#p7fe8c31c32)" d="M 416.065548 258.892357 
Q 426.128988 234.482376 435.766292 211.106033 
" style="fill:none;stroke:#000000;stroke-linecap:round;"/>
    <path clip-path="url(#p7fe8c31c32)" d="M 432.392674 214.041796 
L 435.766292 211.106033 
L 436.090732 215.566384 
L 432.392674 214.041796 
z
" style="stroke:#000000;stroke-linecap:round;"/>
   </g>
   <g id="PathCollection_1">
    <defs>
     <path d="M 0 8.660254 
C 2.296726 8.660254 4.499694 7.747755 6.123724 6.123724 
C 7.747755 4.499694 8.660254 2.296726 8.660254 -0 
C 8.660254 -2.296726 7.747755 -4.499694 6.123724 -6.123724 
C 4.499694 -7.747755 2.296726 -8.660254 0 -8.660254 
C -2.296726 -8.660254 -4.499694 -7.747755 -6.123724 -6.123724 
C -7.747755 -4.499694 -8.660254 -2.296726 -8.660254 0 
C -8.660254 2.296726 -7.747755 4.499694 -6.123724 6.123724 
C -4.499694 7.747755 -2.296726 8.660254 0 8.660254 
z
" id="C0_0_660b4fbe06"/>
    </defs>
    <g clip-path="url(#p7fe8c31c32)">
     <use style="fill:#ff0000;stroke:#ff0000;" x="501.508706" xlink:href="#C0_0_660b4fbe06" y="276.320076"/>
    </g>
    <g clip-path="url(#p7fe8c31c32)">
     <use style="fill:#ff0000;stroke:#ff0000;" x="265.446875" xlink:href="#C0_0_660b4fbe06" y="155.645979"/>
    </g>
    <g clip-path="url(#p7fe8c31c32)">
     <use style="fill:#ff0000;stroke:#ff0000;" x="216.2046" xlink:href="#C0_0_660b4fbe06" y="420.217502"/>
    </g>
    <g clip-path="url(#p7fe8c31c32)">
     <use style="fill:#ff0000;stroke:#ff0000;" x="604.799027" xlink:href="#C0_0_660b4fbe06" y="449.939239"/>
    </g>
    <g clip-path="url(#p7fe8c31c32)">
     <use style="fill:#ff0000;stroke:#ff0000;" x="638.516949" xlink:href="#C0_0_660b4fbe06" y="151.430914"/>
    </g>
    <g clip-path="url(#p7fe8c31c32)">
     <use style="fill:#ff0000;stroke:#ff0000;" x="166.105785" xlink:href="#C0_0_660b4fbe06" y="318.902297"/>
    </g>
    <g clip-path="url(#p7fe8c31c32)">
     <use style="fill:#ff0000;stroke:#ff0000;" x="399.93612" xlink:href="#C0_0_660b4fbe06" y="412.556356"/>
    </g>
    <g clip-path="url(#p7fe8c31c32)">
     <use style="fill:#ff0000;stroke:#ff0000;" x="485.180873" xlink:href="#C0_0_660b4fbe06" y="387.180782"/>
    </g>
    <g clip-path="url(#p7fe8c31c32)">
     <use style="fill:#ff0000;stroke:#ff0000;" x="644.716111" xlink:href="#C0_0_660b4fbe06" y="420.122685"/>
    </g>
    <g clip-path="url(#p7fe8c31c32)">
     <use style="fill:#ff0000;stroke:#ff0000;" x="418.279805" xlink:href="#C0_0_660b4fbe06" y="107.607273"/>
    </g>
    <g clip-path="url(#p7fe8c31c32)">
     <use style="fill:#008000;stroke:#008000;" x="530.121981" xlink:href="#C0_0_660b4fbe06" y="260.144131"/>
    </g>
    <g clip-path="url(#p7fe8c31c32)">
     <use style="fill:#008000;stroke:#008000;" x="705.394421" xlink:href="#C0_0_660b4fbe06" y="350.904398"/>
    </g>
    <g clip-path="url(#p7fe8c31c32)">
     <use style="fill:#ff0000;stroke:#ff0000;" x="362.428378" xlink:href="#C0_0_660b4fbe06" y="114.737389"/>
    </g>
    <g clip-path="url(#p7fe8c31c32)">
     <use style="fill:#ff0000;stroke:#ff0000;" x="549.299237" xlink:href="#C0_0_660b4fbe06" y="132.708794"/>
    </g>
    <g clip-path="url(#p7fe8c31c32)">
     <use style="fill:#ff0000;stroke:#ff0000;" x="513.118915" xlink:href="#C0_0_660b4fbe06" y="198.414724"/>
    </g>
    <g clip-path="url(#p7fe8c31c32)">
     <use style="fill:#008000;stroke:#008000;" x="429.267953" xlink:href="#C0_0_660b4fbe06" y="353.891739"/>
    </g>
    <g clip-path="url(#p7fe8c31c32)">
     <use style="fill:#ff0000;stroke:#ff0000;" x="325.585473" xlink:href="#C0_0_660b4fbe06" y="423.938522"/>
    </g>
    <g clip-path="url(#p7fe8c31c32)">
     <use style="fill:#ff0000;stroke:#ff0000;" x="404.217702" xlink:href="#C0_0_660b4fbe06" y="363.157083"/>
    </g>
    <g clip-path="url(#p7fe8c31c32)">
     <use style="fill:#ff0000;stroke:#ff0000;" x="315.03933" xlink:href="#C0_0_660b4fbe06" y="129.691226"/>
    </g>
    <g clip-path="url(#p7fe8c31c32)">
     <use style="fill:#ff0000;stroke:#ff0000;" x="264.870495" xlink:href="#C0_0_660b4fbe06" y="376.072885"/>
    </g>
    <g clip-path="url(#p7fe8c31c32)">
     <use style="fill:#ff0000;stroke:#ff0000;" x="385.586602" xlink:href="#C0_0_660b4fbe06" y="362.36292"/>
    </g>
    <g clip-path="url(#p7fe8c31c32)">
     <use style="fill:#ff0000;stroke:#ff0000;" x="372.68435" xlink:href="#C0_0_660b4fbe06" y="406.709044"/>
    </g>
    <g clip-path="url(#p7fe8c31c32)">
     <use style="fill:#ff0000;stroke:#ff0000;" x="480.18321" xlink:href="#C0_0_660b4fbe06" y="321.09847"/>
    </g>
    <g clip-path="url(#p7fe8c31c32)">
     <use style="fill:#ff0000;stroke:#ff0000;" x="265.411127" xlink:href="#C0_0_660b4fbe06" y="452.596827"/>
    </g>
    <g clip-path="url(#p7fe8c31c32)">
     <use style="fill:#ff0000;stroke:#ff0000;" x="231.894459" xlink:href="#C0_0_660b4fbe06" y="379.747553"/>
    </g>
    <g clip-path="url(#p7fe8c31c32)">
     <use style="fill:#ff0000;stroke:#ff0000;" x="303.270523" xlink:href="#C0_0_660b4fbe06" y="325.11357"/>
    </g>
    <g clip-path="url(#p7fe8c31c32)">
     <use style="fill:#ff0000;stroke:#ff0000;" x="448.878957" xlink:href="#C0_0_660b4fbe06" y="287.456678"/>
    </g>
    <g clip-path="url(#p7fe8c31c32)">
     <use style="fill:#ff0000;stroke:#ff0000;" x="409.07478" xlink:href="#C0_0_660b4fbe06" y="315.585084"/>
    </g>
    <g clip-path="url(#p7fe8c31c32)">
     <use style="fill:#ff0000;stroke:#ff0000;" x="384.728799" xlink:href="#C0_0_660b4fbe06" y="287.765716"/>
    </g>
    <g clip-path="url(#p7fe8c31c32)">
     <use style="fill:#ff0000;stroke:#ff0000;" x="259.491583" xlink:href="#C0_0_660b4fbe06" y="149.558269"/>
    </g>
    <g clip-path="url(#p7fe8c31c32)">
     <use style="fill:#ff0000;stroke:#ff0000;" x="207.751423" xlink:href="#C0_0_660b4fbe06" y="192.527264"/>
    </g>
    <g clip-path="url(#p7fe8c31c32)">
     <use style="fill:#ff0000;stroke:#ff0000;" x="369.121611" xlink:href="#C0_0_660b4fbe06" y="463.732403"/>
    </g>
    <g clip-path="url(#p7fe8c31c32)">
     <use style="fill:#ff0000;stroke:#ff0000;" x="175.647479" xlink:href="#C0_0_660b4fbe06" y="359.855041"/>
    </g>
    <g clip-path="url(#p7fe8c31c32)">
     <use style="fill:#ff0000;stroke:#ff0000;" x="687.279412" xlink:href="#C0_0_660b4fbe06" y="395.555364"/>
    </g>
    <g clip-path="url(#p7fe8c31c32)">
     <use style="fill:#ff0000;stroke:#ff0000;" x="641.999962" xlink:href="#C0_0_660b4fbe06" y="173.746394"/>
    </g>
    <g clip-path="url(#p7fe8c31c32)">
     <use style="fill:#ff0000;stroke:#ff0000;" x="544.266432" xlink:href="#C0_0_660b4fbe06" y="474.152727"/>
    </g>
    <g clip-path="url(#p7fe8c31c32)">
     <use style="fill:#ff0000;stroke:#ff0000;" x="714.925191" xlink:href="#C0_0_660b4fbe06" y="249.08024"/>
    </g>
    <g clip-path="url(#p7fe8c31c32)">
     <use style="fill:#ff0000;stroke:#ff0000;" x="719.494215" xlink:href="#C0_0_660b4fbe06" y="293.031703"/>
    </g>
    <g clip-path="url(#p7fe8c31c32)">
     <use style="fill:#ff0000;stroke:#ff0000;" x="184.002897" xlink:href="#C0_0_660b4fbe06" y="251.300005"/>
    </g>
    <g clip-path="url(#p7fe8c31c32)">
     <use style="fill:#ff0000;stroke:#ff0000;" x="544.742964" xlink:href="#C0_0_660b4fbe06" y="301.273746"/>
    </g>
    <g clip-path="url(#p7fe8c31c32)">
     <use style="fill:#ff0000;stroke:#ff0000;" x="544.849076" xlink:href="#C0_0_660b4fbe06" y="309.331346"/>
    </g>
    <g clip-path="url(#p7fe8c31c32)">
     <use style="fill:#ff0000;stroke:#ff0000;" x="459.967703" xlink:href="#C0_0_660b4fbe06" y="211.25897"/>
    </g>
    <g clip-path="url(#p7fe8c31c32)">
     <use style="fill:#ff0000;stroke:#ff0000;" x="496.81859" xlink:href="#C0_0_660b4fbe06" y="180.988551"/>
    </g>
    <g clip-path="url(#p7fe8c31c32)">
     <use style="fill:#ff0000;stroke:#ff0000;" x="439.494236" xlink:href="#C0_0_660b4fbe06" y="202.063492"/>
    </g>
    <g clip-path="url(#p7fe8c31c32)">
     <use style="fill:#ff0000;stroke:#ff0000;" x="341.170687" xlink:href="#C0_0_660b4fbe06" y="230.203383"/>
    </g>
    <g clip-path="url(#p7fe8c31c32)">
     <use style="fill:#ff0000;stroke:#ff0000;" x="501.371032" xlink:href="#C0_0_660b4fbe06" y="119.477585"/>
    </g>
    <g clip-path="url(#p7fe8c31c32)">
     <use style="fill:#ff0000;stroke:#ff0000;" x="439.785258" xlink:href="#C0_0_660b4fbe06" y="307.414867"/>
    </g>
    <g clip-path="url(#p7fe8c31c32)">
     <use style="fill:#ff0000;stroke:#ff0000;" x="441.275363" xlink:href="#C0_0_660b4fbe06" y="314.665443"/>
    </g>
    <g clip-path="url(#p7fe8c31c32)">
     <use style="fill:#ff0000;stroke:#ff0000;" x="501.689979" xlink:href="#C0_0_660b4fbe06" y="237.274905"/>
    </g>
    <g clip-path="url(#p7fe8c31c32)">
     <use style="fill:#ff0000;stroke:#ff0000;" x="256.319578" xlink:href="#C0_0_660b4fbe06" y="302.358611"/>
    </g>
    <g clip-path="url(#p7fe8c31c32)">
     <use style="fill:#ff0000;stroke:#ff0000;" x="525.202319" xlink:href="#C0_0_660b4fbe06" y="343.953269"/>
    </g>
    <g clip-path="url(#p7fe8c31c32)">
     <use style="fill:#ff0000;stroke:#ff0000;" x="495.865295" xlink:href="#C0_0_660b4fbe06" y="358.35549"/>
    </g>
    <g clip-path="url(#p7fe8c31c32)">
     <use style="fill:#ff0000;stroke:#ff0000;" x="460.921538" xlink:href="#C0_0_660b4fbe06" y="147.878006"/>
    </g>
    <g clip-path="url(#p7fe8c31c32)">
     <use style="fill:#ff0000;stroke:#ff0000;" x="412.765205" xlink:href="#C0_0_660b4fbe06" y="266.897705"/>
    </g>
   </g>
   <g id="text_1">
    <g clip-path="url(#p7fe8c31c32)">
     <!-- CDH5 -->
     <g transform="translate(484.369331 279.631326)scale(0.12 -0.12)">
      <defs>
       <path d="M 64.40625 67.28125 
L 64.40625 56.890625 
Q 59.421875 61.53125 53.78125 63.8125 
Q 48.140625 66.109375 41.796875 66.109375 
Q 29.296875 66.109375 22.65625 58.46875 
Q 16.015625 50.828125 16.015625 36.375 
Q 16.015625 21.96875 22.65625 14.328125 
Q 29.296875 6.6875 41.796875 6.6875 
Q 48.140625 6.6875 53.78125 8.984375 
Q 59.421875 11.28125 64.40625 15.921875 
L 64.40625 5.609375 
Q 59.234375 2.09375 53.4375 0.328125 
Q 47.65625 -1.421875 41.21875 -1.421875 
Q 24.65625 -1.421875 15.125 8.703125 
Q 5.609375 18.84375 5.609375 36.375 
Q 5.609375 53.953125 15.125 64.078125 
Q 24.65625 74.21875 41.21875 74.21875 
Q 47.75 74.21875 53.53125 72.484375 
Q 59.328125 70.75 64.40625 67.28125 
z
" id="DejaVuSans-67"/>
       <path d="M 19.671875 64.796875 
L 19.671875 8.109375 
L 31.59375 8.109375 
Q 46.6875 8.109375 53.6875 14.9375 
Q 60.6875 21.78125 60.6875 36.53125 
Q 60.6875 51.171875 53.6875 57.984375 
Q 46.6875 64.796875 31.59375 64.796875 
z
M 9.8125 72.90625 
L 30.078125 72.90625 
Q 51.265625 72.90625 61.171875 64.09375 
Q 71.09375 55.28125 71.09375 36.53125 
Q 71.09375 17.671875 61.125 8.828125 
Q 51.171875 0 30.078125 0 
L 9.8125 0 
z
" id="DejaVuSans-68"/>
       <path d="M 9.8125 72.90625 
L 19.671875 72.90625 
L 19.671875 43.015625 
L 55.515625 43.015625 
L 55.515625 72.90625 
L 65.375 72.90625 
L 65.375 0 
L 55.515625 0 
L 55.515625 34.71875 
L 19.671875 34.71875 
L 19.671875 0 
L 9.8125 0 
z
" id="DejaVuSans-72"/>
       <path d="M 10.796875 72.90625 
L 49.515625 72.90625 
L 49.515625 64.59375 
L 19.828125 64.59375 
L 19.828125 46.734375 
Q 21.96875 47.46875 24.109375 47.828125 
Q 26.265625 48.1875 28.421875 48.1875 
Q 40.625 48.1875 47.75 41.5 
Q 54.890625 34.8125 54.890625 23.390625 
Q 54.890625 11.625 47.5625 5.09375 
Q 40.234375 -1.421875 26.90625 -1.421875 
Q 22.3125 -1.421875 17.546875 -0.640625 
Q 12.796875 0.140625 7.71875 1.703125 
L 7.71875 11.625 
Q 12.109375 9.234375 16.796875 8.0625 
Q 21.484375 6.890625 26.703125 6.890625 
Q 35.15625 6.890625 40.078125 11.328125 
Q 45.015625 15.765625 45.015625 23.390625 
Q 45.015625 31 40.078125 35.4375 
Q 35.15625 39.890625 26.703125 39.890625 
Q 22.75 39.890625 18.8125 39.015625 
Q 14.890625 38.140625 10.796875 36.28125 
z
" id="DejaVuSans-53"/>
      </defs>
      <use xlink:href="#DejaVuSans-67"/>
      <use x="69.824219" xlink:href="#DejaVuSans-68"/>
      <use x="146.826172" xlink:href="#DejaVuSans-72"/>
      <use x="222.021484" xlink:href="#DejaVuSans-53"/>
     </g>
    </g>
   </g>
   <g id="text_2">
    <g clip-path="url(#p7fe8c31c32)">
     <!-- PECAM1 -->
     <g transform="translate(240.749375 158.957229)scale(0.12 -0.12)">
      <defs>
       <path d="M 19.671875 64.796875 
L 19.671875 37.40625 
L 32.078125 37.40625 
Q 38.96875 37.40625 42.71875 40.96875 
Q 46.484375 44.53125 46.484375 51.125 
Q 46.484375 57.671875 42.71875 61.234375 
Q 38.96875 64.796875 32.078125 64.796875 
z
M 9.8125 72.90625 
L 32.078125 72.90625 
Q 44.34375 72.90625 50.609375 67.359375 
Q 56.890625 61.8125 56.890625 51.125 
Q 56.890625 40.328125 50.609375 34.8125 
Q 44.34375 29.296875 32.078125 29.296875 
L 19.671875 29.296875 
L 19.671875 0 
L 9.8125 0 
z
" id="DejaVuSans-80"/>
       <path d="M 9.8125 72.90625 
L 55.90625 72.90625 
L 55.90625 64.59375 
L 19.671875 64.59375 
L 19.671875 43.015625 
L 54.390625 43.015625 
L 54.390625 34.71875 
L 19.671875 34.71875 
L 19.671875 8.296875 
L 56.78125 8.296875 
L 56.78125 0 
L 9.8125 0 
z
" id="DejaVuSans-69"/>
       <path d="M 34.1875 63.1875 
L 20.796875 26.90625 
L 47.609375 26.90625 
z
M 28.609375 72.90625 
L 39.796875 72.90625 
L 67.578125 0 
L 57.328125 0 
L 50.6875 18.703125 
L 17.828125 18.703125 
L 11.1875 0 
L 0.78125 0 
z
" id="DejaVuSans-65"/>
       <path d="M 9.8125 72.90625 
L 24.515625 72.90625 
L 43.109375 23.296875 
L 61.8125 72.90625 
L 76.515625 72.90625 
L 76.515625 0 
L 66.890625 0 
L 66.890625 64.015625 
L 48.09375 14.015625 
L 38.1875 14.015625 
L 19.390625 64.015625 
L 19.390625 0 
L 9.8125 0 
z
" id="DejaVuSans-77"/>
       <path d="M 12.40625 8.296875 
L 28.515625 8.296875 
L 28.515625 63.921875 
L 10.984375 60.40625 
L 10.984375 69.390625 
L 28.421875 72.90625 
L 38.28125 72.90625 
L 38.28125 8.296875 
L 54.390625 8.296875 
L 54.390625 0 
L 12.40625 0 
z
" id="DejaVuSans-49"/>
      </defs>
      <use xlink:href="#DejaVuSans-80"/>
      <use x="60.302734" xlink:href="#DejaVuSans-69"/>
      <use x="123.486328" xlink:href="#DejaVuSans-67"/>
      <use x="193.310547" xlink:href="#DejaVuSans-65"/>
      <use x="261.71875" xlink:href="#DejaVuSans-77"/>
      <use x="347.998047" xlink:href="#DejaVuSans-49"/>
     </g>
    </g>
   </g>
   <g id="text_3">
    <g clip-path="url(#p7fe8c31c32)">
     <!-- ITGB2 -->
     <g transform="translate(198.186788 423.528752)scale(0.12 -0.12)">
      <defs>
       <path d="M 9.8125 72.90625 
L 19.671875 72.90625 
L 19.671875 0 
L 9.8125 0 
z
" id="DejaVuSans-73"/>
       <path d="M -0.296875 72.90625 
L 61.375 72.90625 
L 61.375 64.59375 
L 35.5 64.59375 
L 35.5 0 
L 25.59375 0 
L 25.59375 64.59375 
L -0.296875 64.59375 
z
" id="DejaVuSans-84"/>
       <path d="M 59.515625 10.40625 
L 59.515625 29.984375 
L 43.40625 29.984375 
L 43.40625 38.09375 
L 69.28125 38.09375 
L 69.28125 6.78125 
Q 63.578125 2.734375 56.6875 0.65625 
Q 49.8125 -1.421875 42 -1.421875 
Q 24.90625 -1.421875 15.25 8.5625 
Q 5.609375 18.5625 5.609375 36.375 
Q 5.609375 54.25 15.25 64.234375 
Q 24.90625 74.21875 42 74.21875 
Q 49.125 74.21875 55.546875 72.453125 
Q 61.96875 70.703125 67.390625 67.28125 
L 67.390625 56.78125 
Q 61.921875 61.421875 55.765625 63.765625 
Q 49.609375 66.109375 42.828125 66.109375 
Q 29.4375 66.109375 22.71875 58.640625 
Q 16.015625 51.171875 16.015625 36.375 
Q 16.015625 21.625 22.71875 14.15625 
Q 29.4375 6.6875 42.828125 6.6875 
Q 48.046875 6.6875 52.140625 7.59375 
Q 56.25 8.5 59.515625 10.40625 
z
" id="DejaVuSans-71"/>
       <path d="M 19.671875 34.8125 
L 19.671875 8.109375 
L 35.5 8.109375 
Q 43.453125 8.109375 47.28125 11.40625 
Q 51.125 14.703125 51.125 21.484375 
Q 51.125 28.328125 47.28125 31.5625 
Q 43.453125 34.8125 35.5 34.8125 
z
M 19.671875 64.796875 
L 19.671875 42.828125 
L 34.28125 42.828125 
Q 41.5 42.828125 45.03125 45.53125 
Q 48.578125 48.25 48.578125 53.8125 
Q 48.578125 59.328125 45.03125 62.0625 
Q 41.5 64.796875 34.28125 64.796875 
z
M 9.8125 72.90625 
L 35.015625 72.90625 
Q 46.296875 72.90625 52.390625 68.21875 
Q 58.5 63.53125 58.5 54.890625 
Q 58.5 48.1875 55.375 44.234375 
Q 52.25 40.28125 46.1875 39.3125 
Q 53.46875 37.75 57.5 32.78125 
Q 61.53125 27.828125 61.53125 20.40625 
Q 61.53125 10.640625 54.890625 5.3125 
Q 48.25 0 35.984375 0 
L 9.8125 0 
z
" id="DejaVuSans-66"/>
       <path d="M 19.1875 8.296875 
L 53.609375 8.296875 
L 53.609375 0 
L 7.328125 0 
L 7.328125 8.296875 
Q 12.9375 14.109375 22.625 23.890625 
Q 32.328125 33.6875 34.8125 36.53125 
Q 39.546875 41.84375 41.421875 45.53125 
Q 43.3125 49.21875 43.3125 52.78125 
Q 43.3125 58.59375 39.234375 62.25 
Q 35.15625 65.921875 28.609375 65.921875 
Q 23.96875 65.921875 18.8125 64.3125 
Q 13.671875 62.703125 7.8125 59.421875 
L 7.8125 69.390625 
Q 13.765625 71.78125 18.9375 73 
Q 24.125 74.21875 28.421875 74.21875 
Q 39.75 74.21875 46.484375 68.546875 
Q 53.21875 62.890625 53.21875 53.421875 
Q 53.21875 48.921875 51.53125 44.890625 
Q 49.859375 40.875 45.40625 35.40625 
Q 44.1875 33.984375 37.640625 27.21875 
Q 31.109375 20.453125 19.1875 8.296875 
z
" id="DejaVuSans-50"/>
      </defs>
      <use xlink:href="#DejaVuSans-73"/>
      <use x="29.492188" xlink:href="#DejaVuSans-84"/>
      <use x="90.576172" xlink:href="#DejaVuSans-71"/>
      <use x="168.066406" xlink:href="#DejaVuSans-66"/>
      <use x="236.669922" xlink:href="#DejaVuSans-50"/>
     </g>
    </g>
   </g>
   <g id="text_4">
    <g clip-path="url(#p7fe8c31c32)">
     <!-- CTNND1 -->
     <g transform="translate(579.529652 453.250489)scale(0.12 -0.12)">
      <defs>
       <path d="M 9.8125 72.90625 
L 23.09375 72.90625 
L 55.421875 11.921875 
L 55.421875 72.90625 
L 64.984375 72.90625 
L 64.984375 0 
L 51.703125 0 
L 19.390625 60.984375 
L 19.390625 0 
L 9.8125 0 
z
" id="DejaVuSans-78"/>
      </defs>
      <use xlink:href="#DejaVuSans-67"/>
      <use x="69.824219" xlink:href="#DejaVuSans-84"/>
      <use x="130.908203" xlink:href="#DejaVuSans-78"/>
      <use x="205.712891" xlink:href="#DejaVuSans-78"/>
      <use x="280.517578" xlink:href="#DejaVuSans-68"/>
      <use x="357.519531" xlink:href="#DejaVuSans-49"/>
     </g>
    </g>
   </g>
   <g id="text_5">
    <g clip-path="url(#p7fe8c31c32)">
     <!-- BCAR1 -->
     <g transform="translate(618.224761 154.742164)scale(0.12 -0.12)">
      <defs>
       <path d="M 44.390625 34.1875 
Q 47.5625 33.109375 50.5625 29.59375 
Q 53.5625 26.078125 56.59375 19.921875 
L 66.609375 0 
L 56 0 
L 46.6875 18.703125 
Q 43.0625 26.03125 39.671875 28.421875 
Q 36.28125 30.8125 30.421875 30.8125 
L 19.671875 30.8125 
L 19.671875 0 
L 9.8125 0 
L 9.8125 72.90625 
L 32.078125 72.90625 
Q 44.578125 72.90625 50.734375 67.671875 
Q 56.890625 62.453125 56.890625 51.90625 
Q 56.890625 45.015625 53.6875 40.46875 
Q 50.484375 35.9375 44.390625 34.1875 
z
M 19.671875 64.796875 
L 19.671875 38.921875 
L 32.078125 38.921875 
Q 39.203125 38.921875 42.84375 42.21875 
Q 46.484375 45.515625 46.484375 51.90625 
Q 46.484375 58.296875 42.84375 61.546875 
Q 39.203125 64.796875 32.078125 64.796875 
z
" id="DejaVuSans-82"/>
      </defs>
      <use xlink:href="#DejaVuSans-66"/>
      <use x="66.853516" xlink:href="#DejaVuSans-67"/>
      <use x="136.677734" xlink:href="#DejaVuSans-65"/>
      <use x="205.085938" xlink:href="#DejaVuSans-82"/>
      <use x="274.568359" xlink:href="#DejaVuSans-49"/>
     </g>
    </g>
   </g>
   <g id="text_6">
    <g clip-path="url(#p7fe8c31c32)">
     <!-- SIPA1 -->
     <g transform="translate(149.369535 322.213547)scale(0.12 -0.12)">
      <defs>
       <path d="M 53.515625 70.515625 
L 53.515625 60.890625 
Q 47.90625 63.578125 42.921875 64.890625 
Q 37.9375 66.21875 33.296875 66.21875 
Q 25.25 66.21875 20.875 63.09375 
Q 16.5 59.96875 16.5 54.203125 
Q 16.5 49.359375 19.40625 46.890625 
Q 22.3125 44.4375 30.421875 42.921875 
L 36.375 41.703125 
Q 47.40625 39.59375 52.65625 34.296875 
Q 57.90625 29 57.90625 20.125 
Q 57.90625 9.515625 50.796875 4.046875 
Q 43.703125 -1.421875 29.984375 -1.421875 
Q 24.8125 -1.421875 18.96875 -0.25 
Q 13.140625 0.921875 6.890625 3.21875 
L 6.890625 13.375 
Q 12.890625 10.015625 18.65625 8.296875 
Q 24.421875 6.59375 29.984375 6.59375 
Q 38.421875 6.59375 43.015625 9.90625 
Q 47.609375 13.234375 47.609375 19.390625 
Q 47.609375 24.75 44.3125 27.78125 
Q 41.015625 30.8125 33.5 32.328125 
L 27.484375 33.5 
Q 16.453125 35.6875 11.515625 40.375 
Q 6.59375 45.0625 6.59375 53.421875 
Q 6.59375 63.09375 13.40625 68.65625 
Q 20.21875 74.21875 32.171875 74.21875 
Q 37.3125 74.21875 42.625 73.28125 
Q 47.953125 72.359375 53.515625 70.515625 
z
" id="DejaVuSans-83"/>
      </defs>
      <use xlink:href="#DejaVuSans-83"/>
      <use x="63.476562" xlink:href="#DejaVuSans-73"/>
      <use x="92.96875" xlink:href="#DejaVuSans-80"/>
      <use x="146.896484" xlink:href="#DejaVuSans-65"/>
      <use x="215.304688" xlink:href="#DejaVuSans-49"/>
     </g>
    </g>
   </g>
   <g id="text_7">
    <g clip-path="url(#p7fe8c31c32)">
     <!-- F11R -->
     <g transform="translate(384.68112 415.867606)scale(0.12 -0.12)">
      <defs>
       <path d="M 9.8125 72.90625 
L 51.703125 72.90625 
L 51.703125 64.59375 
L 19.671875 64.59375 
L 19.671875 43.109375 
L 48.578125 43.109375 
L 48.578125 34.8125 
L 19.671875 34.8125 
L 19.671875 0 
L 9.8125 0 
z
" id="DejaVuSans-70"/>
      </defs>
      <use xlink:href="#DejaVuSans-70"/>
      <use x="57.519531" xlink:href="#DejaVuSans-49"/>
      <use x="121.142578" xlink:href="#DejaVuSans-49"/>
      <use x="184.765625" xlink:href="#DejaVuSans-82"/>
     </g>
    </g>
   </g>
   <g id="text_8">
    <g clip-path="url(#p7fe8c31c32)">
     <!-- ITGAL -->
     <g transform="translate(467.649623 390.492032)scale(0.12 -0.12)">
      <defs>
       <path d="M 9.8125 72.90625 
L 19.671875 72.90625 
L 19.671875 8.296875 
L 55.171875 8.296875 
L 55.171875 0 
L 9.8125 0 
z
" id="DejaVuSans-76"/>
      </defs>
      <use xlink:href="#DejaVuSans-73"/>
      <use x="29.492188" xlink:href="#DejaVuSans-84"/>
      <use x="90.576172" xlink:href="#DejaVuSans-71"/>
      <use x="168.066406" xlink:href="#DejaVuSans-65"/>
      <use x="236.474609" xlink:href="#DejaVuSans-76"/>
     </g>
    </g>
   </g>
   <g id="text_9">
    <g clip-path="url(#p7fe8c31c32)">
     <!-- ITGB1 -->
     <g transform="translate(626.698298 423.433935)scale(0.12 -0.12)">
      <use xlink:href="#DejaVuSans-73"/>
      <use x="29.492188" xlink:href="#DejaVuSans-84"/>
      <use x="90.576172" xlink:href="#DejaVuSans-71"/>
      <use x="168.066406" xlink:href="#DejaVuSans-66"/>
      <use x="236.669922" xlink:href="#DejaVuSans-49"/>
     </g>
    </g>
   </g>
   <g id="text_10">
    <g clip-path="url(#p7fe8c31c32)">
     <!-- ITGA4 -->
     <g transform="translate(400.27418 110.918523)scale(0.12 -0.12)">
      <defs>
       <path d="M 37.796875 64.3125 
L 12.890625 25.390625 
L 37.796875 25.390625 
z
M 35.203125 72.90625 
L 47.609375 72.90625 
L 47.609375 25.390625 
L 58.015625 25.390625 
L 58.015625 17.1875 
L 47.609375 17.1875 
L 47.609375 0 
L 37.796875 0 
L 37.796875 17.1875 
L 4.890625 17.1875 
L 4.890625 26.703125 
z
" id="DejaVuSans-52"/>
      </defs>
      <use xlink:href="#DejaVuSans-73"/>
      <use x="29.492188" xlink:href="#DejaVuSans-84"/>
      <use x="90.576172" xlink:href="#DejaVuSans-71"/>
      <use x="168.066406" xlink:href="#DejaVuSans-65"/>
      <use x="236.474609" xlink:href="#DejaVuSans-52"/>
     </g>
    </g>
   </g>
   <g id="text_11">
    <g clip-path="url(#p7fe8c31c32)">
     <!-- JAM2 -->
     <g transform="translate(515.358231 263.455381)scale(0.12 -0.12)">
      <defs>
       <path d="M 9.8125 72.90625 
L 19.671875 72.90625 
L 19.671875 5.078125 
Q 19.671875 -8.109375 14.671875 -14.0625 
Q 9.671875 -20.015625 -1.421875 -20.015625 
L -5.171875 -20.015625 
L -5.171875 -11.71875 
L -2.09375 -11.71875 
Q 4.4375 -11.71875 7.125 -8.046875 
Q 9.8125 -4.390625 9.8125 5.078125 
z
" id="DejaVuSans-74"/>
      </defs>
      <use xlink:href="#DejaVuSans-74"/>
      <use x="27.742188" xlink:href="#DejaVuSans-65"/>
      <use x="96.150391" xlink:href="#DejaVuSans-77"/>
      <use x="182.429688" xlink:href="#DejaVuSans-50"/>
     </g>
    </g>
   </g>
   <g id="text_12">
    <g clip-path="url(#p7fe8c31c32)">
     <!-- ITGAM -->
     <g transform="translate(686.029421 354.215648)scale(0.12 -0.12)">
      <use xlink:href="#DejaVuSans-73"/>
      <use x="29.492188" xlink:href="#DejaVuSans-84"/>
      <use x="90.576172" xlink:href="#DejaVuSans-71"/>
      <use x="168.066406" xlink:href="#DejaVuSans-65"/>
      <use x="236.474609" xlink:href="#DejaVuSans-77"/>
     </g>
    </g>
   </g>
   <g id="text_13">
    <g clip-path="url(#p7fe8c31c32)">
     <!-- CTNNB1 -->
     <g transform="translate(337.662441 118.048639)scale(0.12 -0.12)">
      <use xlink:href="#DejaVuSans-67"/>
      <use x="69.824219" xlink:href="#DejaVuSans-84"/>
      <use x="130.908203" xlink:href="#DejaVuSans-78"/>
      <use x="205.712891" xlink:href="#DejaVuSans-78"/>
      <use x="280.517578" xlink:href="#DejaVuSans-66"/>
      <use x="349.121094" xlink:href="#DejaVuSans-49"/>
     </g>
    </g>
   </g>
   <g id="text_14">
    <g clip-path="url(#p7fe8c31c32)">
     <!-- PTK2 -->
     <g transform="translate(534.26455 136.020044)scale(0.12 -0.12)">
      <defs>
       <path d="M 9.8125 72.90625 
L 19.671875 72.90625 
L 19.671875 42.09375 
L 52.390625 72.90625 
L 65.09375 72.90625 
L 28.90625 38.921875 
L 67.671875 0 
L 54.6875 0 
L 19.671875 35.109375 
L 19.671875 0 
L 9.8125 0 
z
" id="DejaVuSans-75"/>
      </defs>
      <use xlink:href="#DejaVuSans-80"/>
      <use x="60.302734" xlink:href="#DejaVuSans-84"/>
      <use x="121.386719" xlink:href="#DejaVuSans-75"/>
      <use x="186.962891" xlink:href="#DejaVuSans-50"/>
     </g>
    </g>
   </g>
   <g id="text_15">
    <g clip-path="url(#p7fe8c31c32)">
     <!-- RHOA -->
     <g transform="translate(495.715165 201.725974)scale(0.12 -0.12)">
      <defs>
       <path d="M 39.40625 66.21875 
Q 28.65625 66.21875 22.328125 58.203125 
Q 16.015625 50.203125 16.015625 36.375 
Q 16.015625 22.609375 22.328125 14.59375 
Q 28.65625 6.59375 39.40625 6.59375 
Q 50.140625 6.59375 56.421875 14.59375 
Q 62.703125 22.609375 62.703125 36.375 
Q 62.703125 50.203125 56.421875 58.203125 
Q 50.140625 66.21875 39.40625 66.21875 
z
M 39.40625 74.21875 
Q 54.734375 74.21875 63.90625 63.9375 
Q 73.09375 53.65625 73.09375 36.375 
Q 73.09375 19.140625 63.90625 8.859375 
Q 54.734375 -1.421875 39.40625 -1.421875 
Q 24.03125 -1.421875 14.8125 8.828125 
Q 5.609375 19.09375 5.609375 36.375 
Q 5.609375 53.65625 14.8125 63.9375 
Q 24.03125 74.21875 39.40625 74.21875 
z
" id="DejaVuSans-79"/>
      </defs>
      <use xlink:href="#DejaVuSans-82"/>
      <use x="69.482422" xlink:href="#DejaVuSans-72"/>
      <use x="144.677734" xlink:href="#DejaVuSans-79"/>
      <use x="221.638672" xlink:href="#DejaVuSans-65"/>
     </g>
    </g>
   </g>
   <g id="text_16">
    <g clip-path="url(#p7fe8c31c32)">
     <!-- JAM3 -->
     <g transform="translate(414.504203 357.202989)scale(0.12 -0.12)">
      <defs>
       <path d="M 40.578125 39.3125 
Q 47.65625 37.796875 51.625 33 
Q 55.609375 28.21875 55.609375 21.1875 
Q 55.609375 10.40625 48.1875 4.484375 
Q 40.765625 -1.421875 27.09375 -1.421875 
Q 22.515625 -1.421875 17.65625 -0.515625 
Q 12.796875 0.390625 7.625 2.203125 
L 7.625 11.71875 
Q 11.71875 9.328125 16.59375 8.109375 
Q 21.484375 6.890625 26.8125 6.890625 
Q 36.078125 6.890625 40.9375 10.546875 
Q 45.796875 14.203125 45.796875 21.1875 
Q 45.796875 27.640625 41.28125 31.265625 
Q 36.765625 34.90625 28.71875 34.90625 
L 20.21875 34.90625 
L 20.21875 43.015625 
L 29.109375 43.015625 
Q 36.375 43.015625 40.234375 45.921875 
Q 44.09375 48.828125 44.09375 54.296875 
Q 44.09375 59.90625 40.109375 62.90625 
Q 36.140625 65.921875 28.71875 65.921875 
Q 24.65625 65.921875 20.015625 65.03125 
Q 15.375 64.15625 9.8125 62.3125 
L 9.8125 71.09375 
Q 15.4375 72.65625 20.34375 73.4375 
Q 25.25 74.21875 29.59375 74.21875 
Q 40.828125 74.21875 47.359375 69.109375 
Q 53.90625 64.015625 53.90625 55.328125 
Q 53.90625 49.265625 50.4375 45.09375 
Q 46.96875 40.921875 40.578125 39.3125 
z
" id="DejaVuSans-51"/>
      </defs>
      <use xlink:href="#DejaVuSans-74"/>
      <use x="27.742188" xlink:href="#DejaVuSans-65"/>
      <use x="96.150391" xlink:href="#DejaVuSans-77"/>
      <use x="182.429688" xlink:href="#DejaVuSans-51"/>
     </g>
    </g>
   </g>
   <g id="text_17">
    <g clip-path="url(#p7fe8c31c32)">
     <!-- CYBA -->
     <g transform="translate(309.61516 427.249772)scale(0.12 -0.12)">
      <defs>
       <path d="M -0.203125 72.90625 
L 10.40625 72.90625 
L 30.609375 42.921875 
L 50.6875 72.90625 
L 61.28125 72.90625 
L 35.5 34.71875 
L 35.5 0 
L 25.59375 0 
L 25.59375 34.71875 
z
" id="DejaVuSans-89"/>
      </defs>
      <use xlink:href="#DejaVuSans-67"/>
      <use x="68.074219" xlink:href="#DejaVuSans-89"/>
      <use x="129.158203" xlink:href="#DejaVuSans-66"/>
      <use x="197.761719" xlink:href="#DejaVuSans-65"/>
     </g>
    </g>
   </g>
   <g id="text_18">
    <g clip-path="url(#p7fe8c31c32)">
     <!-- NCF2 -->
     <g transform="translate(388.270827 366.468333)scale(0.12 -0.12)">
      <use xlink:href="#DejaVuSans-78"/>
      <use x="74.804688" xlink:href="#DejaVuSans-67"/>
      <use x="144.628906" xlink:href="#DejaVuSans-70"/>
      <use x="202.148438" xlink:href="#DejaVuSans-50"/>
     </g>
    </g>
   </g>
   <g id="text_19">
    <g clip-path="url(#p7fe8c31c32)">
     <!-- PXN -->
     <g transform="translate(302.822768 133.002476)scale(0.12 -0.12)">
      <defs>
       <path d="M 6.296875 72.90625 
L 16.890625 72.90625 
L 35.015625 45.796875 
L 53.21875 72.90625 
L 63.8125 72.90625 
L 40.375 37.890625 
L 65.375 0 
L 54.78125 0 
L 34.28125 31 
L 13.625 0 
L 2.984375 0 
L 29 38.921875 
z
" id="DejaVuSans-88"/>
      </defs>
      <use xlink:href="#DejaVuSans-80"/>
      <use x="60.302734" xlink:href="#DejaVuSans-88"/>
      <use x="128.808594" xlink:href="#DejaVuSans-78"/>
     </g>
    </g>
   </g>
   <g id="text_20">
    <g clip-path="url(#p7fe8c31c32)">
     <!-- NCF1 -->
     <g transform="translate(248.92362 379.384135)scale(0.12 -0.12)">
      <use xlink:href="#DejaVuSans-78"/>
      <use x="74.804688" xlink:href="#DejaVuSans-67"/>
      <use x="144.628906" xlink:href="#DejaVuSans-70"/>
      <use x="202.148438" xlink:href="#DejaVuSans-49"/>
     </g>
    </g>
   </g>
   <g id="text_21">
    <g clip-path="url(#p7fe8c31c32)">
     <!-- RAC1 -->
     <g transform="translate(369.650977 365.67417)scale(0.12 -0.12)">
      <use xlink:href="#DejaVuSans-82"/>
      <use x="65.482422" xlink:href="#DejaVuSans-65"/>
      <use x="132.140625" xlink:href="#DejaVuSans-67"/>
      <use x="201.964844" xlink:href="#DejaVuSans-49"/>
     </g>
    </g>
   </g>
   <g id="text_22">
    <g clip-path="url(#p7fe8c31c32)">
     <!-- NCF4 -->
     <g transform="translate(356.737475 410.020294)scale(0.12 -0.12)">
      <use xlink:href="#DejaVuSans-78"/>
      <use x="74.804688" xlink:href="#DejaVuSans-67"/>
      <use x="144.628906" xlink:href="#DejaVuSans-70"/>
      <use x="202.148438" xlink:href="#DejaVuSans-52"/>
     </g>
    </g>
   </g>
   <g id="text_23">
    <g clip-path="url(#p7fe8c31c32)">
     <!-- RASSF5 -->
     <g transform="translate(457.26321 324.40972)scale(0.12 -0.12)">
      <use xlink:href="#DejaVuSans-82"/>
      <use x="65.482422" xlink:href="#DejaVuSans-65"/>
      <use x="133.890625" xlink:href="#DejaVuSans-83"/>
      <use x="197.367188" xlink:href="#DejaVuSans-83"/>
      <use x="260.84375" xlink:href="#DejaVuSans-70"/>
      <use x="318.363281" xlink:href="#DejaVuSans-53"/>
     </g>
    </g>
   </g>
   <g id="text_24">
    <g clip-path="url(#p7fe8c31c32)">
     <!-- PTK2B -->
     <g transform="translate(246.259877 455.908077)scale(0.12 -0.12)">
      <use xlink:href="#DejaVuSans-80"/>
      <use x="60.302734" xlink:href="#DejaVuSans-84"/>
      <use x="121.386719" xlink:href="#DejaVuSans-75"/>
      <use x="186.962891" xlink:href="#DejaVuSans-50"/>
      <use x="250.585938" xlink:href="#DejaVuSans-66"/>
     </g>
    </g>
   </g>
   <g id="text_25">
    <g clip-path="url(#p7fe8c31c32)">
     <!-- CXCL12 -->
     <g transform="translate(208.861959 383.058803)scale(0.12 -0.12)">
      <use xlink:href="#DejaVuSans-67"/>
      <use x="69.824219" xlink:href="#DejaVuSans-88"/>
      <use x="131.080078" xlink:href="#DejaVuSans-67"/>
      <use x="200.904297" xlink:href="#DejaVuSans-76"/>
      <use x="256.617188" xlink:href="#DejaVuSans-49"/>
      <use x="320.240234" xlink:href="#DejaVuSans-50"/>
     </g>
    </g>
   </g>
   <g id="text_26">
    <g clip-path="url(#p7fe8c31c32)">
     <!-- CXCR4 -->
     <g transform="translate(283.229585 328.42482)scale(0.12 -0.12)">
      <use xlink:href="#DejaVuSans-67"/>
      <use x="69.824219" xlink:href="#DejaVuSans-88"/>
      <use x="131.080078" xlink:href="#DejaVuSans-67"/>
      <use x="200.904297" xlink:href="#DejaVuSans-82"/>
      <use x="270.386719" xlink:href="#DejaVuSans-52"/>
     </g>
    </g>
   </g>
   <g id="text_27">
    <g clip-path="url(#p7fe8c31c32)">
     <!-- THY1 -->
     <g transform="translate(433.219895 290.767928)scale(0.12 -0.12)">
      <use xlink:href="#DejaVuSans-84"/>
      <use x="61.083984" xlink:href="#DejaVuSans-72"/>
      <use x="136.279297" xlink:href="#DejaVuSans-89"/>
      <use x="197.363281" xlink:href="#DejaVuSans-49"/>
     </g>
    </g>
   </g>
   <g id="text_28">
    <g clip-path="url(#p7fe8c31c32)">
     <!-- VCAM1 -->
     <g transform="translate(387.681967 318.896334)scale(0.12 -0.12)">
      <defs>
       <path d="M 28.609375 0 
L 0.78125 72.90625 
L 11.078125 72.90625 
L 34.1875 11.53125 
L 57.328125 72.90625 
L 67.578125 72.90625 
L 39.796875 0 
z
" id="DejaVuSans-86"/>
      </defs>
      <use xlink:href="#DejaVuSans-86"/>
      <use x="68.408203" xlink:href="#DejaVuSans-67"/>
      <use x="138.232422" xlink:href="#DejaVuSans-65"/>
      <use x="206.640625" xlink:href="#DejaVuSans-77"/>
      <use x="292.919922" xlink:href="#DejaVuSans-49"/>
     </g>
    </g>
   </g>
   <g id="text_29">
    <g clip-path="url(#p7fe8c31c32)">
     <!-- ICAM1 -->
     <g transform="translate(365.670361 291.076966)scale(0.12 -0.12)">
      <use xlink:href="#DejaVuSans-73"/>
      <use x="29.492188" xlink:href="#DejaVuSans-67"/>
      <use x="99.316406" xlink:href="#DejaVuSans-65"/>
      <use x="167.724609" xlink:href="#DejaVuSans-77"/>
      <use x="254.003906" xlink:href="#DejaVuSans-49"/>
     </g>
    </g>
   </g>
   <g id="text_30">
    <g clip-path="url(#p7fe8c31c32)">
     <!-- OCLN -->
     <g transform="translate(242.746896 152.869519)scale(0.12 -0.12)">
      <use xlink:href="#DejaVuSans-79"/>
      <use x="78.710938" xlink:href="#DejaVuSans-67"/>
      <use x="148.535156" xlink:href="#DejaVuSans-76"/>
      <use x="204.248047" xlink:href="#DejaVuSans-78"/>
     </g>
    </g>
   </g>
   <g id="text_31">
    <g clip-path="url(#p7fe8c31c32)">
     <!-- ESAM -->
     <g transform="translate(190.757361 195.838514)scale(0.12 -0.12)">
      <use xlink:href="#DejaVuSans-69"/>
      <use x="63.183594" xlink:href="#DejaVuSans-83"/>
      <use x="128.535156" xlink:href="#DejaVuSans-65"/>
      <use x="196.943359" xlink:href="#DejaVuSans-77"/>
     </g>
    </g>
   </g>
   <g id="text_32">
    <g clip-path="url(#p7fe8c31c32)">
     <!-- MMP2 -->
     <g transform="translate(351.332548 467.043653)scale(0.12 -0.12)">
      <use xlink:href="#DejaVuSans-77"/>
      <use x="86.279297" xlink:href="#DejaVuSans-77"/>
      <use x="172.558594" xlink:href="#DejaVuSans-80"/>
      <use x="232.861328" xlink:href="#DejaVuSans-50"/>
     </g>
    </g>
   </g>
   <g id="text_33">
    <g clip-path="url(#p7fe8c31c32)">
     <!-- MMP9 -->
     <g transform="translate(157.858416 363.166291)scale(0.12 -0.12)">
      <defs>
       <path d="M 10.984375 1.515625 
L 10.984375 10.5 
Q 14.703125 8.734375 18.5 7.8125 
Q 22.3125 6.890625 25.984375 6.890625 
Q 35.75 6.890625 40.890625 13.453125 
Q 46.046875 20.015625 46.78125 33.40625 
Q 43.953125 29.203125 39.59375 26.953125 
Q 35.25 24.703125 29.984375 24.703125 
Q 19.046875 24.703125 12.671875 31.3125 
Q 6.296875 37.9375 6.296875 49.421875 
Q 6.296875 60.640625 12.9375 67.421875 
Q 19.578125 74.21875 30.609375 74.21875 
Q 43.265625 74.21875 49.921875 64.515625 
Q 56.59375 54.828125 56.59375 36.375 
Q 56.59375 19.140625 48.40625 8.859375 
Q 40.234375 -1.421875 26.421875 -1.421875 
Q 22.703125 -1.421875 18.890625 -0.6875 
Q 15.09375 0.046875 10.984375 1.515625 
z
M 30.609375 32.421875 
Q 37.25 32.421875 41.125 36.953125 
Q 45.015625 41.5 45.015625 49.421875 
Q 45.015625 57.28125 41.125 61.84375 
Q 37.25 66.40625 30.609375 66.40625 
Q 23.96875 66.40625 20.09375 61.84375 
Q 16.21875 57.28125 16.21875 49.421875 
Q 16.21875 41.5 20.09375 36.953125 
Q 23.96875 32.421875 30.609375 32.421875 
z
" id="DejaVuSans-57"/>
      </defs>
      <use xlink:href="#DejaVuSans-77"/>
      <use x="86.279297" xlink:href="#DejaVuSans-77"/>
      <use x="172.558594" xlink:href="#DejaVuSans-80"/>
      <use x="232.861328" xlink:href="#DejaVuSans-57"/>
     </g>
    </g>
   </g>
   <g id="text_34">
    <g clip-path="url(#p7fe8c31c32)">
     <!-- MYL2 -->
     <g transform="translate(671.277224 398.866614)scale(0.12 -0.12)">
      <use xlink:href="#DejaVuSans-77"/>
      <use x="86.279297" xlink:href="#DejaVuSans-89"/>
      <use x="147.363281" xlink:href="#DejaVuSans-76"/>
      <use x="203.076172" xlink:href="#DejaVuSans-50"/>
     </g>
    </g>
   </g>
   <g id="text_35">
    <g clip-path="url(#p7fe8c31c32)">
     <!-- MYL5 -->
     <g transform="translate(625.997775 177.057644)scale(0.12 -0.12)">
      <use xlink:href="#DejaVuSans-77"/>
      <use x="86.279297" xlink:href="#DejaVuSans-89"/>
      <use x="147.363281" xlink:href="#DejaVuSans-76"/>
      <use x="203.076172" xlink:href="#DejaVuSans-53"/>
     </g>
    </g>
   </g>
   <g id="text_36">
    <g clip-path="url(#p7fe8c31c32)">
     <!-- MYL7 -->
     <g transform="translate(528.264245 477.463977)scale(0.12 -0.12)">
      <defs>
       <path d="M 8.203125 72.90625 
L 55.078125 72.90625 
L 55.078125 68.703125 
L 28.609375 0 
L 18.3125 0 
L 43.21875 64.59375 
L 8.203125 64.59375 
z
" id="DejaVuSans-55"/>
      </defs>
      <use xlink:href="#DejaVuSans-77"/>
      <use x="86.279297" xlink:href="#DejaVuSans-89"/>
      <use x="147.363281" xlink:href="#DejaVuSans-76"/>
      <use x="203.076172" xlink:href="#DejaVuSans-55"/>
     </g>
    </g>
   </g>
   <g id="text_37">
    <g clip-path="url(#p7fe8c31c32)">
     <!-- MYL9 -->
     <g transform="translate(698.923003 252.39149)scale(0.12 -0.12)">
      <use xlink:href="#DejaVuSans-77"/>
      <use x="86.279297" xlink:href="#DejaVuSans-89"/>
      <use x="147.363281" xlink:href="#DejaVuSans-76"/>
      <use x="203.076172" xlink:href="#DejaVuSans-57"/>
     </g>
    </g>
   </g>
   <g id="text_38">
    <g clip-path="url(#p7fe8c31c32)">
     <!-- MYL10 -->
     <g transform="translate(699.674527 296.342953)scale(0.12 -0.12)">
      <defs>
       <path d="M 31.78125 66.40625 
Q 24.171875 66.40625 20.328125 58.90625 
Q 16.5 51.421875 16.5 36.375 
Q 16.5 21.390625 20.328125 13.890625 
Q 24.171875 6.390625 31.78125 6.390625 
Q 39.453125 6.390625 43.28125 13.890625 
Q 47.125 21.390625 47.125 36.375 
Q 47.125 51.421875 43.28125 58.90625 
Q 39.453125 66.40625 31.78125 66.40625 
z
M 31.78125 74.21875 
Q 44.046875 74.21875 50.515625 64.515625 
Q 56.984375 54.828125 56.984375 36.375 
Q 56.984375 17.96875 50.515625 8.265625 
Q 44.046875 -1.421875 31.78125 -1.421875 
Q 19.53125 -1.421875 13.0625 8.265625 
Q 6.59375 17.96875 6.59375 36.375 
Q 6.59375 54.828125 13.0625 64.515625 
Q 19.53125 74.21875 31.78125 74.21875 
z
" id="DejaVuSans-48"/>
      </defs>
      <use xlink:href="#DejaVuSans-77"/>
      <use x="86.279297" xlink:href="#DejaVuSans-89"/>
      <use x="147.363281" xlink:href="#DejaVuSans-76"/>
      <use x="203.076172" xlink:href="#DejaVuSans-49"/>
      <use x="266.699219" xlink:href="#DejaVuSans-48"/>
     </g>
    </g>
   </g>
   <g id="text_39">
    <g clip-path="url(#p7fe8c31c32)">
     <!-- MYLPF -->
     <g transform="translate(164.74946 254.611255)scale(0.12 -0.12)">
      <use xlink:href="#DejaVuSans-77"/>
      <use x="86.279297" xlink:href="#DejaVuSans-89"/>
      <use x="147.363281" xlink:href="#DejaVuSans-76"/>
      <use x="203.076172" xlink:href="#DejaVuSans-80"/>
      <use x="263.378906" xlink:href="#DejaVuSans-70"/>
     </g>
    </g>
   </g>
   <g id="text_40">
    <g clip-path="url(#p7fe8c31c32)">
     <!-- ROCK1 -->
     <g transform="translate(523.908901 304.584996)scale(0.12 -0.12)">
      <use xlink:href="#DejaVuSans-82"/>
      <use x="69.482422" xlink:href="#DejaVuSans-79"/>
      <use x="148.193359" xlink:href="#DejaVuSans-67"/>
      <use x="218.017578" xlink:href="#DejaVuSans-75"/>
      <use x="283.59375" xlink:href="#DejaVuSans-49"/>
     </g>
    </g>
   </g>
   <g id="text_41">
    <g clip-path="url(#p7fe8c31c32)">
     <!-- ROCK2 -->
     <g transform="translate(524.015013 312.642596)scale(0.12 -0.12)">
      <use xlink:href="#DejaVuSans-82"/>
      <use x="69.482422" xlink:href="#DejaVuSans-79"/>
      <use x="148.193359" xlink:href="#DejaVuSans-67"/>
      <use x="218.017578" xlink:href="#DejaVuSans-75"/>
      <use x="283.59375" xlink:href="#DejaVuSans-50"/>
     </g>
    </g>
   </g>
   <g id="text_42">
    <g clip-path="url(#p7fe8c31c32)">
     <!-- PRKCA -->
     <g transform="translate(440.282078 214.57022)scale(0.12 -0.12)">
      <use xlink:href="#DejaVuSans-80"/>
      <use x="60.302734" xlink:href="#DejaVuSans-82"/>
      <use x="129.785156" xlink:href="#DejaVuSans-75"/>
      <use x="189.861328" xlink:href="#DejaVuSans-67"/>
      <use x="259.685547" xlink:href="#DejaVuSans-65"/>
     </g>
    </g>
   </g>
   <g id="text_43">
    <g clip-path="url(#p7fe8c31c32)">
     <!-- PRKCB -->
     <g transform="translate(477.120778 184.299801)scale(0.12 -0.12)">
      <use xlink:href="#DejaVuSans-80"/>
      <use x="60.302734" xlink:href="#DejaVuSans-82"/>
      <use x="129.785156" xlink:href="#DejaVuSans-75"/>
      <use x="189.861328" xlink:href="#DejaVuSans-67"/>
      <use x="259.685547" xlink:href="#DejaVuSans-66"/>
     </g>
    </g>
   </g>
   <g id="text_44">
    <g clip-path="url(#p7fe8c31c32)">
     <!-- PRKCG -->
     <g transform="translate(419.263924 205.374742)scale(0.12 -0.12)">
      <use xlink:href="#DejaVuSans-80"/>
      <use x="60.302734" xlink:href="#DejaVuSans-82"/>
      <use x="129.785156" xlink:href="#DejaVuSans-75"/>
      <use x="189.861328" xlink:href="#DejaVuSans-67"/>
      <use x="259.685547" xlink:href="#DejaVuSans-71"/>
     </g>
    </g>
   </g>
   <g id="text_45">
    <g clip-path="url(#p7fe8c31c32)">
     <!-- ARHGAP35 -->
     <g transform="translate(308.378812 233.514633)scale(0.12 -0.12)">
      <use xlink:href="#DejaVuSans-65"/>
      <use x="68.408203" xlink:href="#DejaVuSans-82"/>
      <use x="137.890625" xlink:href="#DejaVuSans-72"/>
      <use x="213.085938" xlink:href="#DejaVuSans-71"/>
      <use x="290.576172" xlink:href="#DejaVuSans-65"/>
      <use x="358.984375" xlink:href="#DejaVuSans-80"/>
      <use x="419.287109" xlink:href="#DejaVuSans-51"/>
      <use x="482.910156" xlink:href="#DejaVuSans-53"/>
     </g>
    </g>
   </g>
   <g id="text_46">
    <g clip-path="url(#p7fe8c31c32)">
     <!-- ARHGAP5 -->
     <g transform="translate(472.396657 122.788835)scale(0.12 -0.12)">
      <use xlink:href="#DejaVuSans-65"/>
      <use x="68.408203" xlink:href="#DejaVuSans-82"/>
      <use x="137.890625" xlink:href="#DejaVuSans-72"/>
      <use x="213.085938" xlink:href="#DejaVuSans-71"/>
      <use x="290.576172" xlink:href="#DejaVuSans-65"/>
      <use x="358.984375" xlink:href="#DejaVuSans-80"/>
      <use x="419.287109" xlink:href="#DejaVuSans-53"/>
     </g>
    </g>
   </g>
   <g id="text_47">
    <g clip-path="url(#p7fe8c31c32)">
     <!-- RAP1A -->
     <g transform="translate(420.212133 310.726117)scale(0.12 -0.12)">
      <use xlink:href="#DejaVuSans-82"/>
      <use x="65.482422" xlink:href="#DejaVuSans-65"/>
      <use x="133.890625" xlink:href="#DejaVuSans-80"/>
      <use x="194.193359" xlink:href="#DejaVuSans-49"/>
      <use x="257.816406" xlink:href="#DejaVuSans-65"/>
     </g>
    </g>
   </g>
   <g id="text_48">
    <g clip-path="url(#p7fe8c31c32)">
     <!-- RAP1B -->
     <g transform="translate(421.69005 317.976693)scale(0.12 -0.12)">
      <use xlink:href="#DejaVuSans-82"/>
      <use x="65.482422" xlink:href="#DejaVuSans-65"/>
      <use x="133.890625" xlink:href="#DejaVuSans-80"/>
      <use x="194.193359" xlink:href="#DejaVuSans-49"/>
      <use x="257.816406" xlink:href="#DejaVuSans-66"/>
     </g>
    </g>
   </g>
   <g id="text_49">
    <g clip-path="url(#p7fe8c31c32)">
     <!-- MSN -->
     <g transform="translate(488.215292 240.586155)scale(0.12 -0.12)">
      <use xlink:href="#DejaVuSans-77"/>
      <use x="86.279297" xlink:href="#DejaVuSans-83"/>
      <use x="149.755859" xlink:href="#DejaVuSans-78"/>
     </g>
    </g>
   </g>
   <g id="text_50">
    <g clip-path="url(#p7fe8c31c32)">
     <!-- EZR -->
     <g transform="translate(244.249266 305.669861)scale(0.12 -0.12)">
      <defs>
       <path d="M 5.609375 72.90625 
L 62.890625 72.90625 
L 62.890625 65.375 
L 16.796875 8.296875 
L 64.015625 8.296875 
L 64.015625 0 
L 4.5 0 
L 4.5 7.515625 
L 50.59375 64.59375 
L 5.609375 64.59375 
z
" id="DejaVuSans-90"/>
      </defs>
      <use xlink:href="#DejaVuSans-69"/>
      <use x="63.183594" xlink:href="#DejaVuSans-90"/>
      <use x="131.689453" xlink:href="#DejaVuSans-82"/>
     </g>
    </g>
   </g>
   <g id="text_51">
    <g clip-path="url(#p7fe8c31c32)">
     <!-- RAPGEF4 -->
     <g transform="translate(497.842319 347.264519)scale(0.12 -0.12)">
      <use xlink:href="#DejaVuSans-82"/>
      <use x="65.482422" xlink:href="#DejaVuSans-65"/>
      <use x="133.890625" xlink:href="#DejaVuSans-80"/>
      <use x="194.193359" xlink:href="#DejaVuSans-71"/>
      <use x="271.683594" xlink:href="#DejaVuSans-69"/>
      <use x="334.867188" xlink:href="#DejaVuSans-70"/>
      <use x="392.386719" xlink:href="#DejaVuSans-52"/>
     </g>
    </g>
   </g>
   <g id="text_52">
    <g clip-path="url(#p7fe8c31c32)">
     <!-- RAPGEF3 -->
     <g transform="translate(468.505295 361.66674)scale(0.12 -0.12)">
      <use xlink:href="#DejaVuSans-82"/>
      <use x="65.482422" xlink:href="#DejaVuSans-65"/>
      <use x="133.890625" xlink:href="#DejaVuSans-80"/>
      <use x="194.193359" xlink:href="#DejaVuSans-71"/>
      <use x="271.683594" xlink:href="#DejaVuSans-69"/>
      <use x="334.867188" xlink:href="#DejaVuSans-70"/>
      <use x="392.386719" xlink:href="#DejaVuSans-51"/>
     </g>
    </g>
   </g>
   <g id="text_53">
    <g clip-path="url(#p7fe8c31c32)">
     <!-- PLCG1 -->
     <g transform="translate(441.30435 151.189256)scale(0.12 -0.12)">
      <use xlink:href="#DejaVuSans-80"/>
      <use x="60.302734" xlink:href="#DejaVuSans-76"/>
      <use x="116.015625" xlink:href="#DejaVuSans-67"/>
      <use x="185.839844" xlink:href="#DejaVuSans-71"/>
      <use x="263.330078" xlink:href="#DejaVuSans-49"/>
     </g>
    </g>
   </g>
   <g id="text_54">
    <g clip-path="url(#p7fe8c31c32)">
     <!-- PLCG2 -->
     <g transform="translate(393.148017 270.208955)scale(0.12 -0.12)">
      <use xlink:href="#DejaVuSans-80"/>
      <use x="60.302734" xlink:href="#DejaVuSans-76"/>
      <use x="116.015625" xlink:href="#DejaVuSans-67"/>
      <use x="185.839844" xlink:href="#DejaVuSans-71"/>
      <use x="263.330078" xlink:href="#DejaVuSans-50"/>
     </g>
    </g>
   </g>
   <g id="text_55">
    <!-- Frame: 11 -->
    <g transform="translate(121.392 91.296)scale(0.1 -0.1)">
     <defs>
      <path d="M 41.109375 46.296875 
Q 39.59375 47.171875 37.8125 47.578125 
Q 36.03125 48 33.890625 48 
Q 26.265625 48 22.1875 43.046875 
Q 18.109375 38.09375 18.109375 28.8125 
L 18.109375 0 
L 9.078125 0 
L 9.078125 54.6875 
L 18.109375 54.6875 
L 18.109375 46.1875 
Q 20.953125 51.171875 25.484375 53.578125 
Q 30.03125 56 36.53125 56 
Q 37.453125 56 38.578125 55.875 
Q 39.703125 55.765625 41.0625 55.515625 
z
" id="DejaVuSans-114"/>
      <path d="M 34.28125 27.484375 
Q 23.390625 27.484375 19.1875 25 
Q 14.984375 22.515625 14.984375 16.5 
Q 14.984375 11.71875 18.140625 8.90625 
Q 21.296875 6.109375 26.703125 6.109375 
Q 34.1875 6.109375 38.703125 11.40625 
Q 43.21875 16.703125 43.21875 25.484375 
L 43.21875 27.484375 
z
M 52.203125 31.203125 
L 52.203125 0 
L 43.21875 0 
L 43.21875 8.296875 
Q 40.140625 3.328125 35.546875 0.953125 
Q 30.953125 -1.421875 24.3125 -1.421875 
Q 15.921875 -1.421875 10.953125 3.296875 
Q 6 8.015625 6 15.921875 
Q 6 25.140625 12.171875 29.828125 
Q 18.359375 34.515625 30.609375 34.515625 
L 43.21875 34.515625 
L 43.21875 35.40625 
Q 43.21875 41.609375 39.140625 45 
Q 35.0625 48.390625 27.6875 48.390625 
Q 23 48.390625 18.546875 47.265625 
Q 14.109375 46.140625 10.015625 43.890625 
L 10.015625 52.203125 
Q 14.9375 54.109375 19.578125 55.046875 
Q 24.21875 56 28.609375 56 
Q 40.484375 56 46.34375 49.84375 
Q 52.203125 43.703125 52.203125 31.203125 
z
" id="DejaVuSans-97"/>
      <path d="M 52 44.1875 
Q 55.375 50.25 60.0625 53.125 
Q 64.75 56 71.09375 56 
Q 79.640625 56 84.28125 50.015625 
Q 88.921875 44.046875 88.921875 33.015625 
L 88.921875 0 
L 79.890625 0 
L 79.890625 32.71875 
Q 79.890625 40.578125 77.09375 44.375 
Q 74.3125 48.1875 68.609375 48.1875 
Q 61.625 48.1875 57.5625 43.546875 
Q 53.515625 38.921875 53.515625 30.90625 
L 53.515625 0 
L 44.484375 0 
L 44.484375 32.71875 
Q 44.484375 40.625 41.703125 44.40625 
Q 38.921875 48.1875 33.109375 48.1875 
Q 26.21875 48.1875 22.15625 43.53125 
Q 18.109375 38.875 18.109375 30.90625 
L 18.109375 0 
L 9.078125 0 
L 9.078125 54.6875 
L 18.109375 54.6875 
L 18.109375 46.1875 
Q 21.1875 51.21875 25.484375 53.609375 
Q 29.78125 56 35.6875 56 
Q 41.65625 56 45.828125 52.96875 
Q 50 49.953125 52 44.1875 
z
" id="DejaVuSans-109"/>
      <path d="M 56.203125 29.59375 
L 56.203125 25.203125 
L 14.890625 25.203125 
Q 15.484375 15.921875 20.484375 11.0625 
Q 25.484375 6.203125 34.421875 6.203125 
Q 39.59375 6.203125 44.453125 7.46875 
Q 49.3125 8.734375 54.109375 11.28125 
L 54.109375 2.78125 
Q 49.265625 0.734375 44.1875 -0.34375 
Q 39.109375 -1.421875 33.890625 -1.421875 
Q 20.796875 -1.421875 13.15625 6.1875 
Q 5.515625 13.8125 5.515625 26.8125 
Q 5.515625 40.234375 12.765625 48.109375 
Q 20.015625 56 32.328125 56 
Q 43.359375 56 49.78125 48.890625 
Q 56.203125 41.796875 56.203125 29.59375 
z
M 47.21875 32.234375 
Q 47.125 39.59375 43.09375 43.984375 
Q 39.0625 48.390625 32.421875 48.390625 
Q 24.90625 48.390625 20.390625 44.140625 
Q 15.875 39.890625 15.1875 32.171875 
z
" id="DejaVuSans-101"/>
      <path d="M 11.71875 12.40625 
L 22.015625 12.40625 
L 22.015625 0 
L 11.71875 0 
z
M 11.71875 51.703125 
L 22.015625 51.703125 
L 22.015625 39.3125 
L 11.71875 39.3125 
z
" id="DejaVuSans-58"/>
      <path id="DejaVuSans-32"/>
     </defs>
     <use xlink:href="#DejaVuSans-70"/>
     <use x="50.269531" xlink:href="#DejaVuSans-114"/>
     <use x="91.382812" xlink:href="#DejaVuSans-97"/>
     <use x="152.662109" xlink:href="#DejaVuSans-109"/>
     <use x="250.074219" xlink:href="#DejaVuSans-101"/>
     <use x="311.597656" xlink:href="#DejaVuSans-58"/>
     <use x="345.289062" xlink:href="#DejaVuSans-32"/>
     <use x="377.076172" xlink:href="#DejaVuSans-49"/>
     <use x="440.699219" xlink:href="#DejaVuSans-49"/>
    </g>
   </g>
   <g id="text_56">
    <!-- Network: hsa04670 -->
    <g transform="translate(384.1275 63.12)scale(0.12 -0.12)">
     <defs>
      <path d="M 18.3125 70.21875 
L 18.3125 54.6875 
L 36.8125 54.6875 
L 36.8125 47.703125 
L 18.3125 47.703125 
L 18.3125 18.015625 
Q 18.3125 11.328125 20.140625 9.421875 
Q 21.96875 7.515625 27.59375 7.515625 
L 36.8125 7.515625 
L 36.8125 0 
L 27.59375 0 
Q 17.1875 0 13.234375 3.875 
Q 9.28125 7.765625 9.28125 18.015625 
L 9.28125 47.703125 
L 2.6875 47.703125 
L 2.6875 54.6875 
L 9.28125 54.6875 
L 9.28125 70.21875 
z
" id="DejaVuSans-116"/>
      <path d="M 4.203125 54.6875 
L 13.1875 54.6875 
L 24.421875 12.015625 
L 35.59375 54.6875 
L 46.1875 54.6875 
L 57.421875 12.015625 
L 68.609375 54.6875 
L 77.59375 54.6875 
L 63.28125 0 
L 52.6875 0 
L 40.921875 44.828125 
L 29.109375 0 
L 18.5 0 
z
" id="DejaVuSans-119"/>
      <path d="M 30.609375 48.390625 
Q 23.390625 48.390625 19.1875 42.75 
Q 14.984375 37.109375 14.984375 27.296875 
Q 14.984375 17.484375 19.15625 11.84375 
Q 23.34375 6.203125 30.609375 6.203125 
Q 37.796875 6.203125 41.984375 11.859375 
Q 46.1875 17.53125 46.1875 27.296875 
Q 46.1875 37.015625 41.984375 42.703125 
Q 37.796875 48.390625 30.609375 48.390625 
z
M 30.609375 56 
Q 42.328125 56 49.015625 48.375 
Q 55.71875 40.765625 55.71875 27.296875 
Q 55.71875 13.875 49.015625 6.21875 
Q 42.328125 -1.421875 30.609375 -1.421875 
Q 18.84375 -1.421875 12.171875 6.21875 
Q 5.515625 13.875 5.515625 27.296875 
Q 5.515625 40.765625 12.171875 48.375 
Q 18.84375 56 30.609375 56 
z
" id="DejaVuSans-111"/>
      <path d="M 9.078125 75.984375 
L 18.109375 75.984375 
L 18.109375 31.109375 
L 44.921875 54.6875 
L 56.390625 54.6875 
L 27.390625 29.109375 
L 57.625 0 
L 45.90625 0 
L 18.109375 26.703125 
L 18.109375 0 
L 9.078125 0 
z
" id="DejaVuSans-107"/>
      <path d="M 54.890625 33.015625 
L 54.890625 0 
L 45.90625 0 
L 45.90625 32.71875 
Q 45.90625 40.484375 42.875 44.328125 
Q 39.84375 48.1875 33.796875 48.1875 
Q 26.515625 48.1875 22.3125 43.546875 
Q 18.109375 38.921875 18.109375 30.90625 
L 18.109375 0 
L 9.078125 0 
L 9.078125 75.984375 
L 18.109375 75.984375 
L 18.109375 46.1875 
Q 21.34375 51.125 25.703125 53.5625 
Q 30.078125 56 35.796875 56 
Q 45.21875 56 50.046875 50.171875 
Q 54.890625 44.34375 54.890625 33.015625 
z
" id="DejaVuSans-104"/>
      <path d="M 44.28125 53.078125 
L 44.28125 44.578125 
Q 40.484375 46.53125 36.375 47.5 
Q 32.28125 48.484375 27.875 48.484375 
Q 21.1875 48.484375 17.84375 46.4375 
Q 14.5 44.390625 14.5 40.28125 
Q 14.5 37.15625 16.890625 35.375 
Q 19.28125 33.59375 26.515625 31.984375 
L 29.59375 31.296875 
Q 39.15625 29.25 43.1875 25.515625 
Q 47.21875 21.78125 47.21875 15.09375 
Q 47.21875 7.46875 41.1875 3.015625 
Q 35.15625 -1.421875 24.609375 -1.421875 
Q 20.21875 -1.421875 15.453125 -0.5625 
Q 10.6875 0.296875 5.421875 2 
L 5.421875 11.28125 
Q 10.40625 8.6875 15.234375 7.390625 
Q 20.0625 6.109375 24.8125 6.109375 
Q 31.15625 6.109375 34.5625 8.28125 
Q 37.984375 10.453125 37.984375 14.40625 
Q 37.984375 18.0625 35.515625 20.015625 
Q 33.0625 21.96875 24.703125 23.78125 
L 21.578125 24.515625 
Q 13.234375 26.265625 9.515625 29.90625 
Q 5.8125 33.546875 5.8125 39.890625 
Q 5.8125 47.609375 11.28125 51.796875 
Q 16.75 56 26.8125 56 
Q 31.78125 56 36.171875 55.265625 
Q 40.578125 54.546875 44.28125 53.078125 
z
" id="DejaVuSans-115"/>
      <path d="M 33.015625 40.375 
Q 26.375 40.375 22.484375 35.828125 
Q 18.609375 31.296875 18.609375 23.390625 
Q 18.609375 15.53125 22.484375 10.953125 
Q 26.375 6.390625 33.015625 6.390625 
Q 39.65625 6.390625 43.53125 10.953125 
Q 47.40625 15.53125 47.40625 23.390625 
Q 47.40625 31.296875 43.53125 35.828125 
Q 39.65625 40.375 33.015625 40.375 
z
M 52.59375 71.296875 
L 52.59375 62.3125 
Q 48.875 64.0625 45.09375 64.984375 
Q 41.3125 65.921875 37.59375 65.921875 
Q 27.828125 65.921875 22.671875 59.328125 
Q 17.53125 52.734375 16.796875 39.40625 
Q 19.671875 43.65625 24.015625 45.921875 
Q 28.375 48.1875 33.59375 48.1875 
Q 44.578125 48.1875 50.953125 41.515625 
Q 57.328125 34.859375 57.328125 23.390625 
Q 57.328125 12.15625 50.6875 5.359375 
Q 44.046875 -1.421875 33.015625 -1.421875 
Q 20.359375 -1.421875 13.671875 8.265625 
Q 6.984375 17.96875 6.984375 36.375 
Q 6.984375 53.65625 15.1875 63.9375 
Q 23.390625 74.21875 37.203125 74.21875 
Q 40.921875 74.21875 44.703125 73.484375 
Q 48.484375 72.75 52.59375 71.296875 
z
" id="DejaVuSans-54"/>
     </defs>
     <use xlink:href="#DejaVuSans-78"/>
     <use x="74.804688" xlink:href="#DejaVuSans-101"/>
     <use x="136.328125" xlink:href="#DejaVuSans-116"/>
     <use x="175.537109" xlink:href="#DejaVuSans-119"/>
     <use x="257.324219" xlink:href="#DejaVuSans-111"/>
     <use x="318.505859" xlink:href="#DejaVuSans-114"/>
     <use x="359.619141" xlink:href="#DejaVuSans-107"/>
     <use x="417.529297" xlink:href="#DejaVuSans-58"/>
     <use x="451.220703" xlink:href="#DejaVuSans-32"/>
     <use x="483.007812" xlink:href="#DejaVuSans-104"/>
     <use x="546.386719" xlink:href="#DejaVuSans-115"/>
     <use x="598.486328" xlink:href="#DejaVuSans-97"/>
     <use x="659.765625" xlink:href="#DejaVuSans-48"/>
     <use x="723.388672" xlink:href="#DejaVuSans-52"/>
     <use x="787.011719" xlink:href="#DejaVuSans-54"/>
     <use x="850.634766" xlink:href="#DejaVuSans-55"/>
     <use x="914.257812" xlink:href="#DejaVuSans-48"/>
    </g>
   </g>
  </g>
 </g>
 <defs>
  <clipPath id="p7fe8c31c32">
   <rect height="443.52" width="669.6" x="108" y="69.12"/>
  </clipPath>
 </defs>
</svg>
