<?xml version="1.0" encoding="utf-8" standalone="no"?>
<!DOCTYPE svg PUBLIC "-//W3C//DTD SVG 1.1//EN"
  "http://www.w3.org/Graphics/SVG/1.1/DTD/svg11.dtd">
<!-- Created with matplotlib (https://matplotlib.org/) -->
<svg height="576pt" version="1.1" viewBox="0 0 864 576" width="864pt" xmlns="http://www.w3.org/2000/svg" xmlns:xlink="http://www.w3.org/1999/xlink">
 <metadata>
  <rdf:RDF xmlns:cc="http://creativecommons.org/ns#" xmlns:dc="http://purl.org/dc/elements/1.1/" xmlns:rdf="http://www.w3.org/1999/02/22-rdf-syntax-ns#">
   <cc:Work>
    <dc:type rdf:resource="http://purl.org/dc/dcmitype/StillImage"/>
    <dc:date>2024-04-10T11:05:57.413200</dc:date>
    <dc:format>image/svg+xml</dc:format>
    <dc:creator>
     <cc:Agent>
      <dc:title>Matplotlib v3.3.1, https://matplotlib.org/</dc:title>
     </cc:Agent>
    </dc:creator>
   </cc:Work>
  </rdf:RDF>
 </metadata>
 <defs>
  <style type="text/css">*{stroke-linecap:butt;stroke-linejoin:round;}</style>
 </defs>
 <g id="figure_1">
  <g id="patch_1">
   <path d="M 0 576 
L 864 576 
L 864 0 
L 0 0 
z
" style="fill:#ffffff;"/>
  </g>
  <g id="axes_1">
   <g id="patch_2">
    <path clip-path="url(#p9fae200faf)" d="M 419.43339 336.725382 
Q 318.206559 281.031643 217.959289 225.876846 
" style="fill:none;stroke:#000000;stroke-linecap:round;"/>
    <path clip-path="url(#p9fae200faf)" d="M 220.499786 229.557319 
L 217.959289 225.876846 
L 222.427965 226.052733 
L 220.499786 229.557319 
z
" style="stroke:#000000;stroke-linecap:round;"/>
   </g>
   <g id="patch_3">
    <path clip-path="url(#p9fae200faf)" d="M 435.224111 343.672042 
Q 547.391104 381.575503 658.498903 419.121041 
" style="fill:none;stroke:#000000;stroke-linecap:round;"/>
    <path clip-path="url(#p9fae200faf)" d="M 655.349688 415.945755 
L 658.498903 419.121041 
L 654.069145 419.735241 
L 655.349688 415.945755 
z
" style="stroke:#000000;stroke-linecap:round;"/>
   </g>
   <g id="patch_4">
    <path clip-path="url(#p9fae200faf)" d="M 713.492277 343.880179 
Q 692.810619 379.326794 672.692398 413.807727 
" style="fill:none;stroke:#000000;stroke-linecap:round;"/>
    <path clip-path="url(#p9fae200faf)" d="M 676.43567 411.360705 
L 672.692398 413.807727 
L 672.980744 409.344896 
L 676.43567 411.360705 
z
" style="stroke:#000000;stroke-linecap:round;"/>
   </g>
   <g id="patch_5">
    <path clip-path="url(#p9fae200faf)" d="M 277.697876 415.274265 
Q 311.037957 436.256641 343.431798 456.643507 
" style="fill:none;stroke:#000000;stroke-linecap:round;"/>
    <path clip-path="url(#p9fae200faf)" d="M 341.111711 452.820263 
L 343.431798 456.643507 
L 338.98115 456.20563 
L 341.111711 452.820263 
z
" style="stroke:#000000;stroke-linecap:round;"/>
   </g>
   <g id="patch_6">
    <path clip-path="url(#p9fae200faf)" d="M 307.052326 403.843964 
Q 292.966449 406.461539 279.979787 408.874848 
" style="fill:none;stroke:#000000;stroke-linecap:round;"/>
    <path clip-path="url(#p9fae200faf)" d="M 284.277864 410.110377 
L 279.979787 408.874848 
L 283.547056 406.177703 
L 284.277864 410.110377 
z
" style="stroke:#000000;stroke-linecap:round;"/>
   </g>
   <g id="patch_7">
    <path clip-path="url(#p9fae200faf)" d="M 322.546117 407.392976 
Q 364.441689 438.206814 405.436601 468.358225 
" style="fill:none;stroke:#000000;stroke-linecap:round;"/>
    <path clip-path="url(#p9fae200faf)" d="M 403.399288 464.3771 
L 405.436601 468.358225 
L 401.029313 467.5994 
L 403.399288 464.3771 
z
" style="stroke:#000000;stroke-linecap:round;"/>
   </g>
   <g id="patch_8">
    <path clip-path="url(#p9fae200faf)" d="M 404.820613 472.456659 
Q 382.509 468.001721 361.293778 463.765698 
" style="fill:none;stroke:#000000;stroke-linecap:round;"/>
    <path clip-path="url(#p9fae200faf)" d="M 364.824742 466.5102 
L 361.293778 463.765698 
L 365.607959 462.587628 
L 364.824742 466.5102 
z
" style="stroke:#000000;stroke-linecap:round;"/>
   </g>
   <g id="patch_9">
    <path clip-path="url(#p9fae200faf)" d="M 553.597419 297.304635 
Q 571.351123 377.675987 588.863671 456.955623 
" style="fill:none;stroke:#000000;stroke-linecap:round;"/>
    <path clip-path="url(#p9fae200faf)" d="M 589.953807 452.618389 
L 588.863671 456.955623 
L 586.047965 453.481173 
L 589.953807 452.618389 
z
" style="stroke:#000000;stroke-linecap:round;"/>
   </g>
   <g id="patch_10">
    <path clip-path="url(#p9fae200faf)" d="M 548.272424 280.909885 
Q 512.269809 198.229127 476.713551 116.573438 
" style="fill:none;stroke:#000000;stroke-linecap:round;"/>
    <path clip-path="url(#p9fae200faf)" d="M 476.476788 121.039303 
L 476.713551 116.573438 
L 480.144185 119.442367 
L 476.476788 121.039303 
z
" style="stroke:#000000;stroke-linecap:round;"/>
   </g>
   <g id="patch_11">
    <path clip-path="url(#p9fae200faf)" d="M 528.845282 267.934759 
Q 535.116837 195.37486 541.292116 123.928842 
" style="fill:none;stroke:#000000;stroke-linecap:round;"/>
    <path clip-path="url(#p9fae200faf)" d="M 538.955098 127.741761 
L 541.292116 123.928842 
L 542.94024 128.086208 
L 538.955098 127.741761 
z
" style="stroke:#000000;stroke-linecap:round;"/>
   </g>
   <g id="patch_12">
    <path clip-path="url(#p9fae200faf)" d="M 536.326516 273.865906 
Q 623.79485 245.201557 710.200745 216.88538 
" style="fill:none;stroke:#000000;stroke-linecap:round;"/>
    <path clip-path="url(#p9fae200faf)" d="M 705.776819 216.230494 
L 710.200745 216.88538 
L 707.02248 220.03159 
L 705.776819 216.230494 
z
" style="stroke:#000000;stroke-linecap:round;"/>
   </g>
   <g id="patch_13">
    <path clip-path="url(#p9fae200faf)" d="M 527.58049 285.205404 
Q 522.203527 374.73311 516.893591 463.144792 
" style="fill:none;stroke:#000000;stroke-linecap:round;"/>
    <path clip-path="url(#p9fae200faf)" d="M 519.129798 459.271889 
L 516.893591 463.144792 
L 515.136993 459.032085 
L 519.129798 459.271889 
z
" style="stroke:#000000;stroke-linecap:round;"/>
   </g>
   <g id="patch_14">
    <path clip-path="url(#p9fae200faf)" d="M 519.468102 275.86143 
Q 444.889008 269.808651 371.424284 263.846315 
" style="fill:none;stroke:#000000;stroke-linecap:round;"/>
    <path clip-path="url(#p9fae200faf)" d="M 375.249389 266.163333 
L 371.424284 263.846315 
L 375.572962 262.176442 
L 375.249389 266.163333 
z
" style="stroke:#000000;stroke-linecap:round;"/>
   </g>
   <g id="patch_15">
    <path clip-path="url(#p9fae200faf)" d="M 519.46965 275.797875 
Q 451.210687 269.754355 384.065401 263.809438 
" style="fill:none;stroke:#000000;stroke-linecap:round;"/>
    <path clip-path="url(#p9fae200faf)" d="M 387.873428 266.154417 
L 384.065401 263.809438 
L 388.226201 262.170004 
L 387.873428 266.154417 
z
" style="stroke:#000000;stroke-linecap:round;"/>
   </g>
   <g id="patch_16">
    <path clip-path="url(#p9fae200faf)" d="M 353.661431 259.778 
Q 314.107201 331.428805 275.093306 402.100816 
" style="fill:none;stroke:#000000;stroke-linecap:round;"/>
    <path clip-path="url(#p9fae200faf)" d="M 278.777388 399.565557 
L 275.093306 402.100816 
L 275.275548 397.632395 
L 278.777388 399.565557 
z
" style="stroke:#000000;stroke-linecap:round;"/>
   </g>
   <g id="patch_17">
    <path clip-path="url(#p9fae200faf)" d="M 352.538765 245.353092 
Q 317.680796 200.398271 283.507924 156.326991 
" style="fill:none;stroke:#000000;stroke-linecap:round;"/>
    <path clip-path="url(#p9fae200faf)" d="M 284.378477 160.713577 
L 283.507924 156.326991 
L 287.539525 158.262501 
L 284.378477 160.713577 
z
" style="stroke:#000000;stroke-linecap:round;"/>
   </g>
   <g id="patch_18">
    <path clip-path="url(#p9fae200faf)" d="M 477.391876 276.723803 
Q 592.629469 324.559962 706.834461 371.96748 
" style="fill:none;stroke:#000000;stroke-linecap:round;"/>
    <path clip-path="url(#p9fae200faf)" d="M 703.906892 368.586749 
L 706.834461 371.96748 
L 702.373335 372.281097 
L 703.906892 368.586749 
z
" style="stroke:#000000;stroke-linecap:round;"/>
   </g>
   <g id="patch_19">
    <path clip-path="url(#p9fae200faf)" d="M 461.380715 270.105459 
Q 348.245034 223.537685 236.143231 177.395465 
" style="fill:none;stroke:#000000;stroke-linecap:round;"/>
    <path clip-path="url(#p9fae200faf)" d="M 239.08089 180.767432 
L 236.143231 177.395465 
L 240.6034 177.068518 
L 239.08089 180.767432 
z
" style="stroke:#000000;stroke-linecap:round;"/>
   </g>
   <g id="patch_20">
    <path clip-path="url(#p9fae200faf)" d="M 469.425846 289.186311 
Q 588.561693 331.017465 706.642644 372.478223 
" style="fill:none;stroke:#000000;stroke-linecap:round;"/>
    <path clip-path="url(#p9fae200faf)" d="M 703.531118 369.265995 
L 706.642644 372.478223 
L 702.205947 373.040107 
L 703.531118 369.265995 
z
" style="stroke:#000000;stroke-linecap:round;"/>
   </g>
   <g id="patch_21">
    <path clip-path="url(#p9fae200faf)" d="M 453.448581 282.561886 
Q 344.174432 229.993825 235.907798 177.910446 
" style="fill:none;stroke:#000000;stroke-linecap:round;"/>
    <path clip-path="url(#p9fae200faf)" d="M 238.645367 181.446788 
L 235.907798 177.910446 
L 240.379413 177.842196 
L 238.645367 181.446788 
z
" style="stroke:#000000;stroke-linecap:round;"/>
   </g>
   <g id="patch_22">
    <path clip-path="url(#p9fae200faf)" d="M 485.165543 261.896063 
Q 596.632641 316.89038 707.097093 371.390023 
" style="fill:none;stroke:#000000;stroke-linecap:round;"/>
    <path clip-path="url(#p9fae200faf)" d="M 704.394818 367.826639 
L 707.097093 371.390023 
L 702.62502 371.413813 
L 704.394818 367.826639 
z
" style="stroke:#000000;stroke-linecap:round;"/>
   </g>
   <g id="patch_23">
    <path clip-path="url(#p9fae200faf)" d="M 469.189134 255.295898 
Q 352.245808 215.867244 236.361919 176.79579 
" style="fill:none;stroke:#000000;stroke-linecap:round;"/>
    <path clip-path="url(#p9fae200faf)" d="M 239.513299 179.968928 
L 236.361919 176.79579 
L 240.791258 176.178569 
L 239.513299 179.968928 
z
" style="stroke:#000000;stroke-linecap:round;"/>
   </g>
   <g id="patch_24">
    <path clip-path="url(#p9fae200faf)" d="M 442.142904 242.266092 
Q 452.916122 254.576285 462.95304 266.045132 
" style="fill:none;stroke:#000000;stroke-linecap:round;"/>
    <path clip-path="url(#p9fae200faf)" d="M 461.823817 261.71791 
L 462.95304 266.045132 
L 458.813728 264.352178 
L 461.823817 261.71791 
z
" style="stroke:#000000;stroke-linecap:round;"/>
   </g>
   <g id="patch_25">
    <path clip-path="url(#p9fae200faf)" d="M 440.256347 243.525446 
Q 448.848131 261.03379 456.947376 277.538438 
" style="fill:none;stroke:#000000;stroke-linecap:round;"/>
    <path clip-path="url(#p9fae200faf)" d="M 456.980682 273.066426 
L 456.947376 277.538438 
L 453.38975 274.828586 
L 456.980682 273.066426 
z
" style="stroke:#000000;stroke-linecap:round;"/>
   </g>
   <g id="patch_26">
    <path clip-path="url(#p9fae200faf)" d="M 444.047875 239.895006 
Q 456.918034 246.906559 468.806403 253.383241 
" style="fill:none;stroke:#000000;stroke-linecap:round;"/>
    <path clip-path="url(#p9fae200faf)" d="M 466.250649 249.713348 
L 468.806403 253.383241 
L 464.337035 253.225909 
L 466.250649 249.713348 
z
" style="stroke:#000000;stroke-linecap:round;"/>
   </g>
   <g id="patch_27">
    <path clip-path="url(#p9fae200faf)" d="M 444.955659 237.343767 
Q 463.424294 240.798715 480.793959 244.048078 
" style="fill:none;stroke:#000000;stroke-linecap:round;"/>
    <path clip-path="url(#p9fae200faf)" d="M 477.229927 241.346656 
L 480.793959 244.048078 
L 476.494402 245.27845 
L 477.229927 241.346656 
z
" style="stroke:#000000;stroke-linecap:round;"/>
   </g>
   <g id="patch_28">
    <path clip-path="url(#p9fae200faf)" d="M 497.909924 250.168384 
Q 603.136277 310.781176 707.393828 370.835915 
" style="fill:none;stroke:#000000;stroke-linecap:round;"/>
    <path clip-path="url(#p9fae200faf)" d="M 704.926011 367.10632 
L 707.393828 370.835915 
L 702.929462 370.572412 
L 704.926011 367.10632 
z
" style="stroke:#000000;stroke-linecap:round;"/>
   </g>
   <g id="patch_29">
    <path clip-path="url(#p9fae200faf)" d="M 482.053726 243.556763 
Q 358.752151 209.759303 236.528837 176.257398 
" style="fill:none;stroke:#000000;stroke-linecap:round;"/>
    <path clip-path="url(#p9fae200faf)" d="M 239.857835 179.243663 
L 236.528837 176.257398 
L 240.915247 175.385959 
L 239.857835 179.243663 
z
" style="stroke:#000000;stroke-linecap:round;"/>
   </g>
   <g id="patch_30">
    <path clip-path="url(#p9fae200faf)" d="M 421.969523 318.635811 
Q 503.212749 389.718406 583.614542 460.064801 
" style="fill:none;stroke:#000000;stroke-linecap:round;"/>
    <path clip-path="url(#p9fae200faf)" d="M 581.921094 455.925691 
L 583.614542 460.064801 
L 579.287185 458.936093 
L 581.921094 455.925691 
z
" style="stroke:#000000;stroke-linecap:round;"/>
   </g>
   <g id="patch_31">
    <path clip-path="url(#p9fae200faf)" d="M 417.784048 304.591353 
Q 444.131709 210.269775 470.178574 117.025008 
" style="fill:none;stroke:#000000;stroke-linecap:round;"/>
    <path clip-path="url(#p9fae200faf)" d="M 467.176159 120.339447 
L 470.178574 117.025008 
L 471.028676 121.415604 
L 467.176159 120.339447 
z
" style="stroke:#000000;stroke-linecap:round;"/>
   </g>
   <g id="patch_32">
    <path clip-path="url(#p9fae200faf)" d="M 415.338518 321.598752 
Q 414.384224 393.543724 413.444759 464.370761 
" style="fill:none;stroke:#000000;stroke-linecap:round;"/>
    <path clip-path="url(#p9fae200faf)" d="M 415.497635 460.397639 
L 413.444759 464.370761 
L 411.497987 460.344587 
L 415.497635 460.397639 
z
" style="stroke:#000000;stroke-linecap:round;"/>
   </g>
   <g id="patch_33">
    <path clip-path="url(#p9fae200faf)" d="M 408.269553 317.773559 
Q 342.909467 361.7986 278.476674 405.199039 
" style="fill:none;stroke:#000000;stroke-linecap:round;"/>
    <path clip-path="url(#p9fae200faf)" d="M 282.91158 404.623184 
L 278.476674 405.199039 
L 280.676933 401.305601 
L 282.91158 404.623184 
z
" style="stroke:#000000;stroke-linecap:round;"/>
   </g>
   <g id="patch_34">
    <path clip-path="url(#p9fae200faf)" d="M 409.886443 306.302286 
Q 346.486577 230.769381 283.805504 156.092826 
" style="fill:none;stroke:#000000;stroke-linecap:round;"/>
    <path clip-path="url(#p9fae200faf)" d="M 284.84525 160.442416 
L 283.805504 156.092826 
L 287.909023 157.870784 
L 284.84525 160.442416 
z
" style="stroke:#000000;stroke-linecap:round;"/>
   </g>
   <g id="patch_35">
    <path clip-path="url(#p9fae200faf)" d="M 630.834071 399.444562 
Q 574.275331 396.754164 518.833361 394.116888 
" style="fill:none;stroke:#000000;stroke-linecap:round;"/>
    <path clip-path="url(#p9fae200faf)" d="M 522.733815 396.304687 
L 518.833361 394.116888 
L 522.923873 392.309205 
L 522.733815 396.304687 
z
" style="stroke:#000000;stroke-linecap:round;"/>
   </g>
   <g id="patch_36">
    <path clip-path="url(#p9fae200faf)" d="M 501.124118 397.095905 
Q 430.389533 427.751478 360.680787 457.962465 
" style="fill:none;stroke:#000000;stroke-linecap:round;"/>
    <path clip-path="url(#p9fae200faf)" d="M 365.146236 458.206939 
L 360.680787 457.962465 
L 363.555635 454.53679 
L 365.146236 458.206939 
z
" style="stroke:#000000;stroke-linecap:round;"/>
   </g>
   <g id="patch_37">
    <path clip-path="url(#p9fae200faf)" d="M 412.575944 267.000641 
Q 348.302124 210.655008 284.869022 155.04639 
" style="fill:none;stroke:#000000;stroke-linecap:round;"/>
    <path clip-path="url(#p9fae200faf)" d="M 286.558454 159.187141 
L 284.869022 155.04639 
L 289.195282 156.179295 
L 286.558454 159.187141 
z
" style="stroke:#000000;stroke-linecap:round;"/>
   </g>
   <g id="patch_38">
    <path clip-path="url(#p9fae200faf)" d="M 412.741693 278.597839 
Q 344.729737 341.684345 277.537473 404.01052 
" style="fill:none;stroke:#000000;stroke-linecap:round;"/>
    <path clip-path="url(#p9fae200faf)" d="M 281.830218 402.75659 
L 277.537473 404.01052 
L 279.109976 399.823966 
L 281.830218 402.75659 
z
" style="stroke:#000000;stroke-linecap:round;"/>
   </g>
   <g id="patch_39">
    <path clip-path="url(#p9fae200faf)" d="M 427.015254 269.2209 
Q 510.189657 232.605458 592.340792 196.440484 
" style="fill:none;stroke:#000000;stroke-linecap:round;"/>
    <path clip-path="url(#p9fae200faf)" d="M 587.874013 196.22165 
L 592.340792 196.440484 
L 589.485657 199.882606 
L 587.874013 196.22165 
z
" style="stroke:#000000;stroke-linecap:round;"/>
   </g>
   <g id="patch_40">
    <path clip-path="url(#p9fae200faf)" d="M 427.101055 275.99504 
Q 513.971784 311.610021 599.808041 346.800894 
" style="fill:none;stroke:#000000;stroke-linecap:round;"/>
    <path clip-path="url(#p9fae200faf)" d="M 596.865673 343.433035 
L 599.808041 346.800894 
L 595.348333 347.134073 
L 596.865673 343.433035 
z
" style="stroke:#000000;stroke-linecap:round;"/>
   </g>
   <g id="patch_41">
    <path clip-path="url(#p9fae200faf)" d="M 495.789399 294.335631 
Q 485.982348 286.558769 477.051324 279.476586 
" style="fill:none;stroke:#000000;stroke-linecap:round;"/>
    <path clip-path="url(#p9fae200faf)" d="M 478.942816 283.529024 
L 477.051324 279.476586 
L 481.42817 280.394855 
L 478.942816 283.529024 
z
" style="stroke:#000000;stroke-linecap:round;"/>
   </g>
   <g id="patch_42">
    <path clip-path="url(#p9fae200faf)" d="M 494.337025 297.045698 
Q 481.913279 293.01674 470.553042 289.332673 
" style="fill:none;stroke:#000000;stroke-linecap:round;"/>
    <path clip-path="url(#p9fae200faf)" d="M 473.741007 292.469052 
L 470.553042 289.332673 
L 474.974925 288.664128 
L 473.741007 292.469052 
z
" style="stroke:#000000;stroke-linecap:round;"/>
   </g>
   <g id="patch_43">
    <path clip-path="url(#p9fae200faf)" d="M 498.096585 292.306648 
Q 489.986692 278.890578 482.455179 266.431313 
" style="fill:none;stroke:#000000;stroke-linecap:round;"/>
    <path clip-path="url(#p9fae200faf)" d="M 482.812869 270.889121 
L 482.455179 266.431313 
L 486.23604 268.819845 
L 482.812869 270.889121 
z
" style="stroke:#000000;stroke-linecap:round;"/>
   </g>
   <g id="patch_44">
    <path clip-path="url(#p9fae200faf)" d="M 500.668289 291.270725 
Q 496.491678 272.782412 492.561428 255.384652 
" style="fill:none;stroke:#000000;stroke-linecap:round;"/>
    <path clip-path="url(#p9fae200faf)" d="M 491.491999 259.727038 
L 492.561428 255.384652 
L 495.39368 258.845627 
L 491.491999 259.727038 
z
" style="stroke:#000000;stroke-linecap:round;"/>
   </g>
   <g id="patch_45">
    <path clip-path="url(#p9fae200faf)" d="M 506.632403 307.370341 
Q 546.774924 383.110891 586.393876 457.863576 
" style="fill:none;stroke:#000000;stroke-linecap:round;"/>
    <path clip-path="url(#p9fae200faf)" d="M 586.287846 453.392697 
L 586.393876 457.863576 
L 582.753555 455.265873 
L 586.287846 453.392697 
z
" style="stroke:#000000;stroke-linecap:round;"/>
   </g>
   <g id="patch_46">
    <path clip-path="url(#p9fae200faf)" d="M 501.250669 291.161044 
Q 487.692896 203.662393 474.306317 117.268592 
" style="fill:none;stroke:#000000;stroke-linecap:round;"/>
    <path clip-path="url(#p9fae200faf)" d="M 472.942387 121.527663 
L 474.306317 117.268592 
L 476.895217 120.915179 
L 472.942387 121.527663 
z
" style="stroke:#000000;stroke-linecap:round;"/>
   </g>
   <g id="patch_47">
    <path clip-path="url(#p9fae200faf)" d="M 494.24213 302.066193 
Q 416.179237 324.062843 339.192471 345.756261 
" style="fill:none;stroke:#000000;stroke-linecap:round;"/>
    <path clip-path="url(#p9fae200faf)" d="M 343.58498 346.596419 
L 339.192471 345.756261 
L 342.500103 342.746349 
L 343.58498 346.596419 
z
" style="stroke:#000000;stroke-linecap:round;"/>
   </g>
   <g id="patch_48">
    <path clip-path="url(#p9fae200faf)" d="M 510.951207 301.937707 
Q 567.390803 316.898858 622.749691 331.573533 
" style="fill:none;stroke:#000000;stroke-linecap:round;"/>
    <path clip-path="url(#p9fae200faf)" d="M 619.395696 328.615371 
L 622.749691 331.573533 
L 618.370765 332.481832 
L 619.395696 328.615371 
z
" style="stroke:#000000;stroke-linecap:round;"/>
   </g>
   <g id="patch_49">
    <path clip-path="url(#p9fae200faf)" d="M 480.40265 367.536478 
Q 449.165172 417.179344 418.523136 465.875928 
" style="fill:none;stroke:#000000;stroke-linecap:round;"/>
    <path clip-path="url(#p9fae200faf)" d="M 422.346214 463.555567 
L 418.523136 465.875928 
L 418.960694 461.425249 
L 422.346214 463.555567 
z
" style="stroke:#000000;stroke-linecap:round;"/>
   </g>
   <g id="patch_50">
    <path clip-path="url(#p9fae200faf)" d="M 476.579156 362.192189 
Q 377.688212 385.435962 279.885642 408.423919 
" style="fill:none;stroke:#000000;stroke-linecap:round;"/>
    <path clip-path="url(#p9fae200faf)" d="M 284.237145 409.455626 
L 279.885642 408.423919 
L 283.321909 405.56174 
L 284.237145 409.455626 
z
" style="stroke:#000000;stroke-linecap:round;"/>
   </g>
   <g id="patch_51">
    <path clip-path="url(#p9fae200faf)" d="M 488.977294 352.513404 
Q 506.55595 318.386477 523.622638 285.253476 
" style="fill:none;stroke:#000000;stroke-linecap:round;"/>
    <path clip-path="url(#p9fae200faf)" d="M 520.012978 287.893618 
L 523.622638 285.253476 
L 523.568956 289.725289 
L 520.012978 287.893618 
z
" style="stroke:#000000;stroke-linecap:round;"/>
   </g>
   <g id="patch_52">
    <path clip-path="url(#p9fae200faf)" d="M 488.190699 352.151724 
Q 503.883903 312.357851 519.166939 273.604057 
" style="fill:none;stroke:#000000;stroke-linecap:round;"/>
    <path clip-path="url(#p9fae200faf)" d="M 515.838931 276.591423 
L 519.166939 273.604057 
L 519.560027 278.058884 
L 515.838931 276.591423 
z
" style="stroke:#000000;stroke-linecap:round;"/>
   </g>
   <g id="patch_53">
    <path clip-path="url(#p9fae200faf)" d="M 493.104658 357.116379 
Q 586.410429 321.445361 678.671882 286.173589 
" style="fill:none;stroke:#000000;stroke-linecap:round;"/>
    <path clip-path="url(#p9fae200faf)" d="M 674.221419 285.733838 
L 678.671882 286.173589 
L 675.649804 289.470109 
L 674.221419 285.733838 
z
" style="stroke:#000000;stroke-linecap:round;"/>
   </g>
   <g id="patch_54">
    <path clip-path="url(#p9fae200faf)" d="M 693.931526 241.956575 
Q 675.380075 266.551205 657.501892 290.253249 
" style="fill:none;stroke:#000000;stroke-linecap:round;"/>
    <path clip-path="url(#p9fae200faf)" d="M 661.507355 288.264213 
L 657.501892 290.253249 
L 658.313941 285.855457 
L 661.507355 288.264213 
z
" style="stroke:#000000;stroke-linecap:round;"/>
   </g>
   <g id="patch_55">
    <path clip-path="url(#p9fae200faf)" d="M 656.827012 291.147973 
Q 675.378463 266.553343 693.256646 242.851299 
" style="fill:none;stroke:#000000;stroke-linecap:round;"/>
    <path clip-path="url(#p9fae200faf)" d="M 689.251183 244.840335 
L 693.256646 242.851299 
L 692.444597 247.249091 
L 689.251183 244.840335 
z
" style="stroke:#000000;stroke-linecap:round;"/>
   </g>
   <g id="patch_56">
    <path clip-path="url(#p9fae200faf)" d="M 358.686237 271.181928 
Q 329.713797 349.939348 301.127357 427.64748 
" style="fill:none;stroke:#000000;stroke-linecap:round;"/>
    <path clip-path="url(#p9fae200faf)" d="M 304.385376 424.583935 
L 301.127357 427.64748 
L 300.631332 423.202937 
L 304.385376 424.583935 
z
" style="stroke:#000000;stroke-linecap:round;"/>
   </g>
   <g id="patch_57">
    <path clip-path="url(#p9fae200faf)" d="M 353.179924 264.738122 
Q 263.891815 282.425503 175.700428 299.895631 
" style="fill:none;stroke:#000000;stroke-linecap:round;"/>
    <path clip-path="url(#p9fae200faf)" d="M 180.012818 301.080239 
L 175.700428 299.895631 
L 179.235548 297.156484 
L 180.012818 301.080239 
z
" style="stroke:#000000;stroke-linecap:round;"/>
   </g>
   <g id="patch_58">
    <path clip-path="url(#p9fae200faf)" d="M 363.836822 254.668492 
Q 380.970933 188.172192 397.826071 122.758562 
" style="fill:none;stroke:#000000;stroke-linecap:round;"/>
    <path clip-path="url(#p9fae200faf)" d="M 394.891252 126.133001 
L 397.826071 122.758562 
L 398.76473 127.131081 
L 394.891252 126.133001 
z
" style="stroke:#000000;stroke-linecap:round;"/>
   </g>
   <g id="patch_59">
    <path clip-path="url(#p9fae200faf)" d="M 356.034695 269.629364 
Q 294.91915 340.853875 234.531664 411.229899 
" style="fill:none;stroke:#000000;stroke-linecap:round;"/>
    <path clip-path="url(#p9fae200faf)" d="M 238.654268 409.496656 
L 234.531664 411.229899 
L 235.618632 406.89187 
L 238.654268 409.496656 
z
" style="stroke:#000000;stroke-linecap:round;"/>
   </g>
   <g id="patch_60">
    <path clip-path="url(#p9fae200faf)" d="M 359.961839 254.563704 
Q 348.485585 197.708301 337.230544 141.948829 
" style="fill:none;stroke:#000000;stroke-linecap:round;"/>
    <path clip-path="url(#p9fae200faf)" d="M 336.061521 146.265469 
L 337.230544 141.948829 
L 339.982442 145.474032 
L 336.061521 146.265469 
z
" style="stroke:#000000;stroke-linecap:round;"/>
   </g>
   <g id="patch_61">
    <path clip-path="url(#p9fae200faf)" d="M 370.009979 260.704297 
Q 528.960407 215.868585 686.834791 171.336397 
" style="fill:none;stroke:#000000;stroke-linecap:round;"/>
    <path clip-path="url(#p9fae200faf)" d="M 682.442054 170.497429 
L 686.834791 171.336397 
L 683.527974 174.347205 
L 682.442054 170.497429 
z
" style="stroke:#000000;stroke-linecap:round;"/>
   </g>
   <g id="patch_62">
    <path clip-path="url(#p9fae200faf)" d="M 370.837557 270.872172 
Q 336.039557 349.885756 301.69218 427.876141 
" style="fill:none;stroke:#000000;stroke-linecap:round;"/>
    <path clip-path="url(#p9fae200faf)" d="M 305.134733 425.021526 
L 301.69218 427.876141 
L 301.47402 423.409329 
L 305.134733 425.021526 
z
" style="stroke:#000000;stroke-linecap:round;"/>
   </g>
   <g id="patch_63">
    <path clip-path="url(#p9fae200faf)" d="M 365.815962 264.535362 
Q 270.216478 282.371825 175.716061 300.00323 
" style="fill:none;stroke:#000000;stroke-linecap:round;"/>
    <path clip-path="url(#p9fae200faf)" d="M 180.015027 301.235663 
L 175.716061 300.00323 
L 179.281388 297.303517 
L 180.015027 301.235663 
z
" style="stroke:#000000;stroke-linecap:round;"/>
   </g>
   <g id="patch_64">
    <path clip-path="url(#p9fae200faf)" d="M 375.807119 254.411394 
Q 387.296792 188.117846 398.59554 122.925909 
" style="fill:none;stroke:#000000;stroke-linecap:round;"/>
    <path clip-path="url(#p9fae200faf)" d="M 395.941841 126.525615 
L 398.59554 122.925909 
L 399.883085 127.208692 
L 395.941841 126.525615 
z
" style="stroke:#000000;stroke-linecap:round;"/>
   </g>
   <g id="patch_65">
    <path clip-path="url(#p9fae200faf)" d="M 368.401813 269.259967 
Q 301.244952 340.800081 234.853295 411.525048 
" style="fill:none;stroke:#000000;stroke-linecap:round;"/>
    <path clip-path="url(#p9fae200faf)" d="M 239.049147 409.977527 
L 234.853295 411.525048 
L 236.132789 407.239853 
L 239.049147 409.977527 
z
" style="stroke:#000000;stroke-linecap:round;"/>
   </g>
   <g id="patch_66">
    <path clip-path="url(#p9fae200faf)" d="M 371.846502 254.646173 
Q 354.810723 197.651641 338.095129 141.728315 
" style="fill:none;stroke:#000000;stroke-linecap:round;"/>
    <path clip-path="url(#p9fae200faf)" d="M 337.324429 146.133541 
L 338.095129 141.728315 
L 341.15689 144.988011 
L 337.324429 146.133541 
z
" style="stroke:#000000;stroke-linecap:round;"/>
   </g>
   <g id="patch_67">
    <path clip-path="url(#p9fae200faf)" d="M 382.63652 260.514262 
Q 535.285447 215.814929 686.861395 171.42979 
" style="fill:none;stroke:#000000;stroke-linecap:round;"/>
    <path clip-path="url(#p9fae200faf)" d="M 682.460544 170.634484 
L 686.861395 171.42979 
L 683.584639 174.473287 
L 682.460544 170.634484 
z
" style="stroke:#000000;stroke-linecap:round;"/>
   </g>
   <g id="patch_68">
    <path clip-path="url(#p9fae200faf)" d="M 605.257814 273.129937 
Q 575.294416 197.682892 545.743686 123.274934 
" style="fill:none;stroke:#000000;stroke-linecap:round;"/>
    <path clip-path="url(#p9fae200faf)" d="M 545.361316 127.730694 
L 545.743686 123.274934 
L 549.078872 126.254286 
L 545.361316 127.730694 
z
" style="stroke:#000000;stroke-linecap:round;"/>
   </g>
   <g id="patch_69">
    <path clip-path="url(#p9fae200faf)" d="M 615.858847 276.689158 
Q 663.97459 247.509513 711.134357 218.909617 
" style="fill:none;stroke:#000000;stroke-linecap:round;"/>
    <path clip-path="url(#p9fae200faf)" d="M 706.677065 219.273687 
L 711.134357 218.909617 
L 708.751238 222.693893 
L 706.677065 219.273687 
z
" style="stroke:#000000;stroke-linecap:round;"/>
   </g>
   <g id="patch_70">
    <path clip-path="url(#p9fae200faf)" d="M 604.701859 288.987689 
Q 562.380052 377.045331 520.542556 464.095281 
" style="fill:none;stroke:#000000;stroke-linecap:round;"/>
    <path clip-path="url(#p9fae200faf)" d="M 524.077895 461.356417 
L 520.542556 464.095281 
L 520.472668 459.623691 
L 524.077895 461.356417 
z
" style="stroke:#000000;stroke-linecap:round;"/>
   </g>
   <g id="patch_71">
    <path clip-path="url(#p9fae200faf)" d="M 589.551647 279.676758 
Q 567.035663 201.094304 544.827633 123.586634 
" style="fill:none;stroke:#000000;stroke-linecap:round;"/>
    <path clip-path="url(#p9fae200faf)" d="M 544.006771 127.98279 
L 544.827633 123.586634 
L 547.852041 126.881017 
L 544.006771 127.98279 
z
" style="stroke:#000000;stroke-linecap:round;"/>
   </g>
   <g id="patch_72">
    <path clip-path="url(#p9fae200faf)" d="M 599.422802 283.649835 
Q 655.715438 250.921058 711.041528 218.754234 
" style="fill:none;stroke:#000000;stroke-linecap:round;"/>
    <path clip-path="url(#p9fae200faf)" d="M 706.578261 219.035732 
L 711.041528 218.754234 
L 708.588765 222.493747 
L 706.578261 219.035732 
z
" style="stroke:#000000;stroke-linecap:round;"/>
   </g>
   <g id="patch_73">
    <path clip-path="url(#p9fae200faf)" d="M 588.658503 296.017764 
Q 554.121752 380.45581 520.008261 463.859037 
" style="fill:none;stroke:#000000;stroke-linecap:round;"/>
    <path clip-path="url(#p9fae200faf)" d="M 523.373705 460.913908 
L 520.008261 463.859037 
L 519.671423 459.399605 
L 523.373705 460.913908 
z
" style="stroke:#000000;stroke-linecap:round;"/>
   </g>
   <g id="patch_74">
    <path clip-path="url(#p9fae200faf)" d="M 585.205628 266.979129 
Q 564.844357 194.748995 544.786432 123.594956 
" style="fill:none;stroke:#000000;stroke-linecap:round;"/>
    <path clip-path="url(#p9fae200faf)" d="M 543.946735 127.987553 
L 544.786432 123.594956 
L 547.796692 126.902272 
L 543.946735 127.987553 
z
" style="stroke:#000000;stroke-linecap:round;"/>
   </g>
   <g id="patch_75">
    <path clip-path="url(#p9fae200faf)" d="M 595.403391 271.659859 
Q 653.523628 244.578766 710.630443 217.969876 
" style="fill:none;stroke:#000000;stroke-linecap:round;"/>
    <path clip-path="url(#p9fae200faf)" d="M 706.160011 217.846418 
L 710.630443 217.969876 
L 707.849417 221.472147 
L 706.160011 217.846418 
z
" style="stroke:#000000;stroke-linecap:round;"/>
   </g>
   <g id="patch_76">
    <path clip-path="url(#p9fae200faf)" d="M 584.617247 283.465961 
Q 551.931408 374.112388 519.624815 463.707068 
" style="fill:none;stroke:#000000;stroke-linecap:round;"/>
    <path clip-path="url(#p9fae200faf)" d="M 522.863068 460.622636 
L 519.624815 463.707068 
L 519.100221 459.265806 
L 522.863068 460.622636 
z
" style="stroke:#000000;stroke-linecap:round;"/>
   </g>
   <g id="patch_77">
    <path clip-path="url(#p9fae200faf)" d="M 595.602197 199.034236 
Q 564.694754 234.531891 534.521482 269.18634 
" style="fill:none;stroke:#000000;stroke-linecap:round;"/>
    <path clip-path="url(#p9fae200faf)" d="M 538.656498 267.482921 
L 534.521482 269.18634 
L 535.639757 264.856275 
L 538.656498 267.482921 
z
" style="stroke:#000000;stroke-linecap:round;"/>
   </g>
   <g id="patch_78">
    <path clip-path="url(#p9fae200faf)" d="M 602.469304 344.662677 
Q 568.478894 313.53748 535.313043 283.167335 
" style="fill:none;stroke:#000000;stroke-linecap:round;"/>
    <path clip-path="url(#p9fae200faf)" d="M 536.912393 287.343707 
L 535.313043 283.167335 
L 539.61375 284.393678 
L 536.912393 287.343707 
z
" style="stroke:#000000;stroke-linecap:round;"/>
   </g>
   <g id="patch_79">
    <path clip-path="url(#p9fae200faf)" d="M 404.063722 310.525677 
Q 494.19413 385.740221 583.466138 460.238423 
" style="fill:none;stroke:#000000;stroke-linecap:round;"/>
    <path clip-path="url(#p9fae200faf)" d="M 581.67646 456.140002 
L 583.466138 460.238423 
L 579.113594 459.211112 
L 581.67646 456.140002 
z
" style="stroke:#000000;stroke-linecap:round;"/>
   </g>
   <g id="patch_80">
    <path clip-path="url(#p9fae200faf)" d="M 400.506688 296.885435 
Q 435.112897 206.291216 469.320145 116.741424 
" style="fill:none;stroke:#000000;stroke-linecap:round;"/>
    <path clip-path="url(#p9fae200faf)" d="M 466.024445 119.764396 
L 469.320145 116.741424 
L 469.761103 121.191767 
L 466.024445 119.764396 
z
" style="stroke:#000000;stroke-linecap:round;"/>
   </g>
   <g id="patch_81">
    <path clip-path="url(#p9fae200faf)" d="M 398.226064 313.602173 
Q 405.365546 389.568239 412.400413 464.421177 
" style="fill:none;stroke:#000000;stroke-linecap:round;"/>
    <path clip-path="url(#p9fae200faf)" d="M 414.017358 460.251586 
L 412.400413 464.421177 
L 410.034907 460.625867 
L 414.017358 460.251586 
z
" style="stroke:#000000;stroke-linecap:round;"/>
   </g>
   <g id="patch_82">
    <path clip-path="url(#p9fae200faf)" d="M 390.756438 310.516977 
Q 333.892523 357.818614 277.888136 404.405262 
" style="fill:none;stroke:#000000;stroke-linecap:round;"/>
    <path clip-path="url(#p9fae200faf)" d="M 282.242292 403.384809 
L 277.888136 404.405262 
L 279.684267 400.309665 
L 282.242292 403.384809 
z
" style="stroke:#000000;stroke-linecap:round;"/>
   </g>
   <g id="patch_83">
    <path clip-path="url(#p9fae200faf)" d="M 392.144759 298.103342 
Q 337.466432 226.789445 283.468387 156.3628 
" style="fill:none;stroke:#000000;stroke-linecap:round;"/>
    <path clip-path="url(#p9fae200faf)" d="M 284.315069 160.754056 
L 283.468387 156.3628 
L 287.489401 158.320208 
L 284.315069 160.754056 
z
" style="stroke:#000000;stroke-linecap:round;"/>
   </g>
   <g id="patch_84">
    <path clip-path="url(#p9fae200faf)" d="M 405.874406 303.138407 
Q 462.755303 290.770316 518.543694 278.639778 
" style="fill:none;stroke:#000000;stroke-linecap:round;"/>
    <path clip-path="url(#p9fae200faf)" d="M 514.21008 277.535339 
L 518.543694 278.639778 
L 515.059974 281.444006 
L 514.21008 277.535339 
z
" style="stroke:#000000;stroke-linecap:round;"/>
   </g>
   <g id="patch_85">
    <path clip-path="url(#p9fae200faf)" d="M 388.862285 303.614152 
Q 295.978442 288.806754 204.198691 274.175368 
" style="fill:none;stroke:#000000;stroke-linecap:round;"/>
    <path clip-path="url(#p9fae200faf)" d="M 207.83395 276.78015 
L 204.198691 274.175368 
L 208.463672 272.83003 
L 207.83395 276.78015 
z
" style="stroke:#000000;stroke-linecap:round;"/>
   </g>
   <g id="patch_86">
    <path clip-path="url(#p9fae200faf)" d="M 393.904558 313.763031 
Q 489.015066 387.479399 583.241889 460.510857 
" style="fill:none;stroke:#000000;stroke-linecap:round;"/>
    <path clip-path="url(#p9fae200faf)" d="M 581.305524 456.479668 
L 583.241889 460.510857 
L 578.855118 459.641236 
L 581.305524 456.479668 
z
" style="stroke:#000000;stroke-linecap:round;"/>
   </g>
   <g id="patch_87">
    <path clip-path="url(#p9fae200faf)" d="M 390.463056 300.494722 
Q 429.935505 208.034658 468.968981 116.602845 
" style="fill:none;stroke:#000000;stroke-linecap:round;"/>
    <path clip-path="url(#p9fae200faf)" d="M 465.559065 119.496368 
L 468.968981 116.602845 
L 469.23785 121.066891 
L 465.559065 119.496368 
z
" style="stroke:#000000;stroke-linecap:round;"/>
   </g>
   <g id="patch_88">
    <path clip-path="url(#p9fae200faf)" d="M 388.41771 317.013195 
Q 400.188993 391.307757 411.785316 464.498059 
" style="fill:none;stroke:#000000;stroke-linecap:round;"/>
    <path clip-path="url(#p9fae200faf)" d="M 413.134721 460.234363 
L 411.785316 464.498059 
L 409.184002 460.860318 
L 413.134721 460.234363 
z
" style="stroke:#000000;stroke-linecap:round;"/>
   </g>
   <g id="patch_89">
    <path clip-path="url(#p9fae200faf)" d="M 380.54903 314.164577 
Q 328.714912 359.560742 277.721868 404.220297 
" style="fill:none;stroke:#000000;stroke-linecap:round;"/>
    <path clip-path="url(#p9fae200faf)" d="M 282.048675 403.08948 
L 277.721868 404.220297 
L 279.413298 400.080362 
L 282.048675 403.08948 
z
" style="stroke:#000000;stroke-linecap:round;"/>
   </g>
   <g id="patch_90">
    <path clip-path="url(#p9fae200faf)" d="M 382.16668 301.315537 
Q 332.28954 228.529968 283.044396 156.666668 
" style="fill:none;stroke:#000000;stroke-linecap:round;"/>
    <path clip-path="url(#p9fae200faf)" d="M 283.655687 161.096829 
L 283.044396 156.666668 
L 286.955299 158.835732 
L 283.655687 161.096829 
z
" style="stroke:#000000;stroke-linecap:round;"/>
   </g>
   <g id="patch_91">
    <path clip-path="url(#p9fae200faf)" d="M 395.511512 306.549172 
Q 457.58328 292.510509 518.564557 278.718481 
" style="fill:none;stroke:#000000;stroke-linecap:round;"/>
    <path clip-path="url(#p9fae200faf)" d="M 514.221903 277.650138 
L 518.564557 278.718481 
L 515.10429 281.551598 
L 514.221903 277.650138 
z
" style="stroke:#000000;stroke-linecap:round;"/>
   </g>
   <g id="patch_92">
    <path clip-path="url(#p9fae200faf)" d="M 378.546276 306.875358 
Q 290.801145 290.5478 204.155179 274.424774 
" style="fill:none;stroke:#000000;stroke-linecap:round;"/>
    <path clip-path="url(#p9fae200faf)" d="M 207.721798 277.122779 
L 204.155179 274.424774 
L 208.453554 273.190282 
L 207.721798 277.122779 
z
" style="stroke:#000000;stroke-linecap:round;"/>
   </g>
   <g id="patch_93">
    <path clip-path="url(#p9fae200faf)" d="M 338.41846 349.064421 
Q 407.396297 354.308758 475.259318 359.468337 
" style="fill:none;stroke:#000000;stroke-linecap:round;"/>
    <path clip-path="url(#p9fae200faf)" d="M 471.42245 357.170851 
L 475.259318 359.468337 
L 471.119208 361.15934 
L 471.42245 357.170851 
z
" style="stroke:#000000;stroke-linecap:round;"/>
   </g>
   <g id="patch_94">
    <path clip-path="url(#p9fae200faf)" d="M 623.674125 335.594098 
Q 558.606836 347.145146 494.640369 358.500772 
" style="fill:none;stroke:#000000;stroke-linecap:round;"/>
    <path clip-path="url(#p9fae200faf)" d="M 498.928374 359.770816 
L 494.640369 358.500772 
L 498.229207 355.832394 
L 498.928374 359.770816 
z
" style="stroke:#000000;stroke-linecap:round;"/>
   </g>
   <g id="patch_95">
    <path clip-path="url(#p9fae200faf)" d="M 318.621243 309.633923 
Q 362.709621 311.136771 405.680614 312.60153 
" style="fill:none;stroke:#000000;stroke-linecap:round;"/>
    <path clip-path="url(#p9fae200faf)" d="M 401.751071 310.466422 
L 405.680614 312.60153 
L 401.614801 314.4641 
L 401.751071 310.466422 
z
" style="stroke:#000000;stroke-linecap:round;"/>
   </g>
   <g id="patch_96">
    <path clip-path="url(#p9fae200faf)" d="M 318.61419 308.907494 
Q 353.688571 307.158345 387.646306 305.464883 
" style="fill:none;stroke:#000000;stroke-linecap:round;"/>
    <path clip-path="url(#p9fae200faf)" d="M 383.551655 303.666596 
L 387.646306 305.464883 
L 383.750886 307.661631 
L 383.551655 303.666596 
z
" style="stroke:#000000;stroke-linecap:round;"/>
   </g>
   <g id="patch_97">
    <path clip-path="url(#p9fae200faf)" d="M 318.627807 309.240099 
Q 348.515794 308.899427 377.285819 308.571498 
" style="fill:none;stroke:#000000;stroke-linecap:round;"/>
    <path clip-path="url(#p9fae200faf)" d="M 373.263283 306.617218 
L 377.285819 308.571498 
L 373.308873 310.616958 
L 373.263283 306.617218 
z
" style="stroke:#000000;stroke-linecap:round;"/>
   </g>
   <g id="patch_98">
    <path clip-path="url(#p9fae200faf)" d="M 365.116948 346.343982 
Q 386.676783 332.034294 407.305092 318.342878 
" style="fill:none;stroke:#000000;stroke-linecap:round;"/>
    <path clip-path="url(#p9fae200faf)" d="M 402.866367 318.888511 
L 407.305092 318.342878 
L 405.078364 322.221238 
L 402.866367 318.888511 
z
" style="stroke:#000000;stroke-linecap:round;"/>
   </g>
   <g id="patch_99">
    <path clip-path="url(#p9fae200faf)" d="M 363.52985 344.557134 
Q 377.656805 328.056441 391.056643 312.405042 
" style="fill:none;stroke:#000000;stroke-linecap:round;"/>
    <path clip-path="url(#p9fae200faf)" d="M 386.935965 314.142862 
L 391.056643 312.405042 
L 389.974492 316.744276 
L 386.935965 314.142862 
z
" style="stroke:#000000;stroke-linecap:round;"/>
   </g>
   <g id="patch_100">
    <path clip-path="url(#p9fae200faf)" d="M 362.784203 343.985506 
Q 372.480573 329.797227 381.546113 316.532016 
" style="fill:none;stroke:#000000;stroke-linecap:round;"/>
    <path clip-path="url(#p9fae200faf)" d="M 377.637952 318.706017 
L 381.546113 316.532016 
L 380.940418 320.962945 
L 377.637952 318.706017 
z
" style="stroke:#000000;stroke-linecap:round;"/>
   </g>
   <g id="patch_101">
    <path clip-path="url(#p9fae200faf)" d="M 531.25776 266.159224 
Q 565.603863 272.841948 598.852513 279.311141 
" style="fill:none;stroke:#000000;stroke-linecap:round;"/>
    <path clip-path="url(#p9fae200faf)" d="M 595.308121 276.584002 
L 598.852513 279.311141 
L 594.544167 280.510371 
L 595.308121 276.584002 
z
" style="stroke:#000000;stroke-linecap:round;"/>
   </g>
   <g id="patch_102">
    <path clip-path="url(#p9fae200faf)" d="M 530.95966 267.291461 
Q 557.348841 276.254386 582.679383 284.857752 
" style="fill:none;stroke:#000000;stroke-linecap:round;"/>
    <path clip-path="url(#p9fae200faf)" d="M 579.535083 281.677599 
L 582.679383 284.857752 
L 578.248681 285.465101 
L 579.535083 281.677599 
z
" style="stroke:#000000;stroke-linecap:round;"/>
   </g>
   <g id="patch_103">
    <path clip-path="url(#p9fae200faf)" d="M 531.294391 265.929586 
Q 555.155037 269.910565 577.912892 273.707551 
" style="fill:none;stroke:#000000;stroke-linecap:round;"/>
    <path clip-path="url(#p9fae200faf)" d="M 574.296566 271.076547 
L 577.912892 273.707551 
L 573.638293 275.02201 
L 574.296566 271.076547 
z
" style="stroke:#000000;stroke-linecap:round;"/>
   </g>
   <g id="patch_104">
    <path clip-path="url(#p9fae200faf)" d="M 679.151141 282.517759 
Q 648.132959 281.930563 618.23261 281.364529 
" style="fill:none;stroke:#000000;stroke-linecap:round;"/>
    <path clip-path="url(#p9fae200faf)" d="M 622.194039 283.43988 
L 618.23261 281.364529 
L 622.269748 279.440596 
L 622.194039 283.43988 
z
" style="stroke:#000000;stroke-linecap:round;"/>
   </g>
   <g id="patch_105">
    <path clip-path="url(#p9fae200faf)" d="M 679.160575 283.161398 
Q 639.872999 285.341754 601.70174 287.460157 
" style="fill:none;stroke:#000000;stroke-linecap:round;"/>
    <path clip-path="url(#p9fae200faf)" d="M 605.806418 289.235436 
L 601.70174 287.460157 
L 605.58477 285.241582 
L 605.806418 289.235436 
z
" style="stroke:#000000;stroke-linecap:round;"/>
   </g>
   <g id="patch_106">
    <path clip-path="url(#p9fae200faf)" d="M 679.169319 282.047082 
Q 637.680735 278.998993 597.30718 276.032823 
" style="fill:none;stroke:#000000;stroke-linecap:round;"/>
    <path clip-path="url(#p9fae200faf)" d="M 601.149887 278.32053 
L 597.30718 276.032823 
L 601.44297 274.331281 
L 601.149887 278.32053 
z
" style="stroke:#000000;stroke-linecap:round;"/>
   </g>
   <g id="PathCollection_1">
    <defs>
     <path d="M 0 8.660254 
C 2.296726 8.660254 4.499694 7.747755 6.123724 6.123724 
C 7.747755 4.499694 8.660254 2.296726 8.660254 -0 
C 8.660254 -2.296726 7.747755 -4.499694 6.123724 -6.123724 
C 4.499694 -7.747755 2.296726 -8.660254 0 -8.660254 
C -2.296726 -8.660254 -4.499694 -7.747755 -6.123724 -6.123724 
C -7.747755 -4.499694 -8.660254 -2.296726 -8.660254 0 
C -8.660254 2.296726 -7.747755 4.499694 -6.123724 6.123724 
C -4.499694 7.747755 -2.296726 8.660254 0 8.660254 
z
" id="C0_0_79723429ff"/>
    </defs>
    <g clip-path="url(#p9fae200faf)">
     <use style="fill:#ff0000;stroke:#ff0000;" x="427.021269" xlink:href="#C0_0_79723429ff" y="340.900138"/>
    </g>
    <g clip-path="url(#p9fae200faf)">
     <use style="fill:#ff0000;stroke:#ff0000;" x="717.856616" xlink:href="#C0_0_79723429ff" y="336.400069"/>
    </g>
    <g clip-path="url(#p9fae200faf)">
     <use style="fill:#ff0000;stroke:#ff0000;" x="270.367695" xlink:href="#C0_0_79723429ff" y="410.66106"/>
    </g>
    <g clip-path="url(#p9fae200faf)">
     <use style="fill:#ff0000;stroke:#ff0000;" x="209.393604" xlink:href="#C0_0_79723429ff" y="221.164113"/>
    </g>
    <g clip-path="url(#p9fae200faf)">
     <use style="fill:#ff0000;stroke:#ff0000;" x="516.307247" xlink:href="#C0_0_79723429ff" y="472.907556"/>
    </g>
    <g clip-path="url(#p9fae200faf)">
     <use style="fill:#ff0000;stroke:#ff0000;" x="194.54023" xlink:href="#C0_0_79723429ff" y="272.635631"/>
    </g>
    <g clip-path="url(#p9fae200faf)">
     <use style="fill:#ff0000;stroke:#ff0000;" x="315.568943" xlink:href="#C0_0_79723429ff" y="402.261323"/>
    </g>
    <g clip-path="url(#p9fae200faf)">
     <use style="fill:#ff0000;stroke:#ff0000;" x="413.315009" xlink:href="#C0_0_79723429ff" y="474.152727"/>
    </g>
    <g clip-path="url(#p9fae200faf)">
     <use style="fill:#ff0000;stroke:#ff0000;" x="590.972557" xlink:href="#C0_0_79723429ff" y="466.50259"/>
    </g>
    <g clip-path="url(#p9fae200faf)">
     <use style="fill:#ff0000;stroke:#ff0000;" x="472.809312" xlink:href="#C0_0_79723429ff" y="107.607273"/>
    </g>
    <g clip-path="url(#p9fae200faf)">
     <use style="fill:#008000;stroke:#008000;" x="551.72977" xlink:href="#C0_0_79723429ff" y="288.849752"/>
    </g>
    <g clip-path="url(#p9fae200faf)">
     <use style="fill:#008000;stroke:#008000;" x="277.51818" xlink:href="#C0_0_79723429ff" y="148.602276"/>
    </g>
    <g clip-path="url(#p9fae200faf)">
     <use style="fill:#ff0000;stroke:#ff0000;" x="667.765308" xlink:href="#C0_0_79723429ff" y="422.252344"/>
    </g>
    <g clip-path="url(#p9fae200faf)">
     <use style="fill:#ff0000;stroke:#ff0000;" x="542.13419" xlink:href="#C0_0_79723429ff" y="114.186318"/>
    </g>
    <g clip-path="url(#p9fae200faf)">
     <use style="fill:#ff0000;stroke:#ff0000;" x="528.099609" xlink:href="#C0_0_79723429ff" y="276.561956"/>
    </g>
    <g clip-path="url(#p9fae200faf)">
     <use style="fill:#008000;stroke:#008000;" x="357.846074" xlink:href="#C0_0_79723429ff" y="252.197699"/>
    </g>
    <g clip-path="url(#p9fae200faf)">
     <use style="fill:#ff0000;stroke:#ff0000;" x="469.392369" xlink:href="#C0_0_79723429ff" y="273.403136"/>
    </g>
    <g clip-path="url(#p9fae200faf)">
     <use style="fill:#ff0000;stroke:#ff0000;" x="461.255495" xlink:href="#C0_0_79723429ff" y="286.317526"/>
    </g>
    <g clip-path="url(#p9fae200faf)">
     <use style="fill:#ff0000;stroke:#ff0000;" x="719.494215" xlink:href="#C0_0_79723429ff" y="213.839807"/>
    </g>
    <g clip-path="url(#p9fae200faf)">
     <use style="fill:#ff0000;stroke:#ff0000;" x="477.396711" xlink:href="#C0_0_79723429ff" y="258.063168"/>
    </g>
    <g clip-path="url(#p9fae200faf)">
     <use style="fill:#ff0000;stroke:#ff0000;" x="436.441211" xlink:href="#C0_0_79723429ff" y="235.75096"/>
    </g>
    <g clip-path="url(#p9fae200faf)">
     <use style="fill:#ff0000;stroke:#ff0000;" x="490.406671" xlink:href="#C0_0_79723429ff" y="245.846338"/>
    </g>
    <g clip-path="url(#p9fae200faf)">
     <use style="fill:#ff0000;stroke:#ff0000;" x="415.45344" xlink:href="#C0_0_79723429ff" y="312.934658"/>
    </g>
    <g clip-path="url(#p9fae200faf)">
     <use style="fill:#ff0000;stroke:#ff0000;" x="351.707141" xlink:href="#C0_0_79723429ff" y="461.851543"/>
    </g>
    <g clip-path="url(#p9fae200faf)">
     <use style="fill:#ff0000;stroke:#ff0000;" x="639.482357" xlink:href="#C0_0_79723429ff" y="399.855946"/>
    </g>
    <g clip-path="url(#p9fae200faf)">
     <use style="fill:#ff0000;stroke:#ff0000;" x="509.069556" xlink:href="#C0_0_79723429ff" y="393.652441"/>
    </g>
    <g clip-path="url(#p9fae200faf)">
     <use style="fill:#ff0000;stroke:#ff0000;" x="419.088942" xlink:href="#C0_0_79723429ff" y="272.71026"/>
    </g>
    <g clip-path="url(#p9fae200faf)">
     <use style="fill:#ff0000;stroke:#ff0000;" x="502.576512" xlink:href="#C0_0_79723429ff" y="299.717721"/>
    </g>
    <g clip-path="url(#p9fae200faf)">
     <use style="fill:#ff0000;stroke:#ff0000;" x="485.012861" xlink:href="#C0_0_79723429ff" y="360.209892"/>
    </g>
    <g clip-path="url(#p9fae200faf)">
     <use style="fill:#ff0000;stroke:#ff0000;" x="699.144725" xlink:href="#C0_0_79723429ff" y="235.045165"/>
    </g>
    <g clip-path="url(#p9fae200faf)">
     <use style="fill:#ff0000;stroke:#ff0000;" x="651.613813" xlink:href="#C0_0_79723429ff" y="298.059384"/>
    </g>
    <g clip-path="url(#p9fae200faf)">
     <use style="fill:#ff0000;stroke:#ff0000;" x="715.86894" xlink:href="#C0_0_79723429ff" y="375.717773"/>
    </g>
    <g clip-path="url(#p9fae200faf)">
     <use style="fill:#ff0000;stroke:#ff0000;" x="227.098071" xlink:href="#C0_0_79723429ff" y="173.672387"/>
    </g>
    <g clip-path="url(#p9fae200faf)">
     <use style="fill:#ff0000;stroke:#ff0000;" x="297.75211" xlink:href="#C0_0_79723429ff" y="436.822603"/>
    </g>
    <g clip-path="url(#p9fae200faf)">
     <use style="fill:#ff0000;stroke:#ff0000;" x="166.105785" xlink:href="#C0_0_79723429ff" y="301.796266"/>
    </g>
    <g clip-path="url(#p9fae200faf)">
     <use style="fill:#ff0000;stroke:#ff0000;" x="400.26508" xlink:href="#C0_0_79723429ff" y="113.292936"/>
    </g>
    <g clip-path="url(#p9fae200faf)">
     <use style="fill:#ff0000;stroke:#ff0000;" x="228.16277" xlink:href="#C0_0_79723429ff" y="418.652256"/>
    </g>
    <g clip-path="url(#p9fae200faf)">
     <use style="fill:#ff0000;stroke:#ff0000;" x="335.295288" xlink:href="#C0_0_79723429ff" y="132.361228"/>
    </g>
    <g clip-path="url(#p9fae200faf)">
     <use style="fill:#ff0000;stroke:#ff0000;" x="696.246453" xlink:href="#C0_0_79723429ff" y="168.681616"/>
    </g>
    <g clip-path="url(#p9fae200faf)">
     <use style="fill:#ff0000;stroke:#ff0000;" x="361.675834" xlink:href="#C0_0_79723429ff" y="263.055139"/>
    </g>
    <g clip-path="url(#p9fae200faf)">
     <use style="fill:#ff0000;stroke:#ff0000;" x="374.32772" xlink:href="#C0_0_79723429ff" y="262.947282"/>
    </g>
    <g clip-path="url(#p9fae200faf)">
     <use style="fill:#ff0000;stroke:#ff0000;" x="608.454626" xlink:href="#C0_0_79723429ff" y="281.179425"/>
    </g>
    <g clip-path="url(#p9fae200faf)">
     <use style="fill:#ff0000;stroke:#ff0000;" x="591.937073" xlink:href="#C0_0_79723429ff" y="288.00207"/>
    </g>
    <g clip-path="url(#p9fae200faf)">
     <use style="fill:#ff0000;stroke:#ff0000;" x="587.555861" xlink:href="#C0_0_79723429ff" y="275.316412"/>
    </g>
    <g clip-path="url(#p9fae200faf)">
     <use style="fill:#ff0000;stroke:#ff0000;" x="601.291257" xlink:href="#C0_0_79723429ff" y="192.500266"/>
    </g>
    <g clip-path="url(#p9fae200faf)">
     <use style="fill:#ff0000;stroke:#ff0000;" x="608.854693" xlink:href="#C0_0_79723429ff" y="350.509811"/>
    </g>
    <g clip-path="url(#p9fae200faf)">
     <use style="fill:#ff0000;stroke:#ff0000;" x="397.415514" xlink:href="#C0_0_79723429ff" y="304.977695"/>
    </g>
    <g clip-path="url(#p9fae200faf)">
     <use style="fill:#ff0000;stroke:#ff0000;" x="387.062545" xlink:href="#C0_0_79723429ff" y="308.46006"/>
    </g>
    <g clip-path="url(#p9fae200faf)">
     <use style="fill:#ff0000;stroke:#ff0000;" x="329.782441" xlink:href="#C0_0_79723429ff" y="348.40783"/>
    </g>
    <g clip-path="url(#p9fae200faf)">
     <use style="fill:#ff0000;stroke:#ff0000;" x="632.204292" xlink:href="#C0_0_79723429ff" y="334.079782"/>
    </g>
    <g clip-path="url(#p9fae200faf)">
     <use style="fill:#ff0000;stroke:#ff0000;" x="309.964646" xlink:href="#C0_0_79723429ff" y="309.338844"/>
    </g>
    <g clip-path="url(#p9fae200faf)">
     <use style="fill:#ff0000;stroke:#ff0000;" x="357.897917" xlink:href="#C0_0_79723429ff" y="351.135396"/>
    </g>
    <g clip-path="url(#p9fae200faf)">
     <use style="fill:#ff0000;stroke:#ff0000;" x="522.755304" xlink:href="#C0_0_79723429ff" y="264.5049"/>
    </g>
    <g clip-path="url(#p9fae200faf)">
     <use style="fill:#ff0000;stroke:#ff0000;" x="687.805979" xlink:href="#C0_0_79723429ff" y="282.681601"/>
    </g>
   </g>
   <g id="text_1">
    <g clip-path="url(#p9fae200faf)">
     <!-- CDH5 -->
     <g transform="translate(409.881894 344.211388)scale(0.12 -0.12)">
      <defs>
       <path d="M 64.40625 67.28125 
L 64.40625 56.890625 
Q 59.421875 61.53125 53.78125 63.8125 
Q 48.140625 66.109375 41.796875 66.109375 
Q 29.296875 66.109375 22.65625 58.46875 
Q 16.015625 50.828125 16.015625 36.375 
Q 16.015625 21.96875 22.65625 14.328125 
Q 29.296875 6.6875 41.796875 6.6875 
Q 48.140625 6.6875 53.78125 8.984375 
Q 59.421875 11.28125 64.40625 15.921875 
L 64.40625 5.609375 
Q 59.234375 2.09375 53.4375 0.328125 
Q 47.65625 -1.421875 41.21875 -1.421875 
Q 24.65625 -1.421875 15.125 8.703125 
Q 5.609375 18.84375 5.609375 36.375 
Q 5.609375 53.953125 15.125 64.078125 
Q 24.65625 74.21875 41.21875 74.21875 
Q 47.75 74.21875 53.53125 72.484375 
Q 59.328125 70.75 64.40625 67.28125 
z
" id="DejaVuSans-67"/>
       <path d="M 19.671875 64.796875 
L 19.671875 8.109375 
L 31.59375 8.109375 
Q 46.6875 8.109375 53.6875 14.9375 
Q 60.6875 21.78125 60.6875 36.53125 
Q 60.6875 51.171875 53.6875 57.984375 
Q 46.6875 64.796875 31.59375 64.796875 
z
M 9.8125 72.90625 
L 30.078125 72.90625 
Q 51.265625 72.90625 61.171875 64.09375 
Q 71.09375 55.28125 71.09375 36.53125 
Q 71.09375 17.671875 61.125 8.828125 
Q 51.171875 0 30.078125 0 
L 9.8125 0 
z
" id="DejaVuSans-68"/>
       <path d="M 9.8125 72.90625 
L 19.671875 72.90625 
L 19.671875 43.015625 
L 55.515625 43.015625 
L 55.515625 72.90625 
L 65.375 72.90625 
L 65.375 0 
L 55.515625 0 
L 55.515625 34.71875 
L 19.671875 34.71875 
L 19.671875 0 
L 9.8125 0 
z
" id="DejaVuSans-72"/>
       <path d="M 10.796875 72.90625 
L 49.515625 72.90625 
L 49.515625 64.59375 
L 19.828125 64.59375 
L 19.828125 46.734375 
Q 21.96875 47.46875 24.109375 47.828125 
Q 26.265625 48.1875 28.421875 48.1875 
Q 40.625 48.1875 47.75 41.5 
Q 54.890625 34.8125 54.890625 23.390625 
Q 54.890625 11.625 47.5625 5.09375 
Q 40.234375 -1.421875 26.90625 -1.421875 
Q 22.3125 -1.421875 17.546875 -0.640625 
Q 12.796875 0.140625 7.71875 1.703125 
L 7.71875 11.625 
Q 12.109375 9.234375 16.796875 8.0625 
Q 21.484375 6.890625 26.703125 6.890625 
Q 35.15625 6.890625 40.078125 11.328125 
Q 45.015625 15.765625 45.015625 23.390625 
Q 45.015625 31 40.078125 35.4375 
Q 35.15625 39.890625 26.703125 39.890625 
Q 22.75 39.890625 18.8125 39.015625 
Q 14.890625 38.140625 10.796875 36.28125 
z
" id="DejaVuSans-53"/>
      </defs>
      <use xlink:href="#DejaVuSans-67"/>
      <use x="69.824219" xlink:href="#DejaVuSans-68"/>
      <use x="146.826172" xlink:href="#DejaVuSans-72"/>
      <use x="222.021484" xlink:href="#DejaVuSans-53"/>
     </g>
    </g>
   </g>
   <g id="text_2">
    <g clip-path="url(#p9fae200faf)">
     <!-- PECAM1 -->
     <g transform="translate(693.159116 339.711319)scale(0.12 -0.12)">
      <defs>
       <path d="M 19.671875 64.796875 
L 19.671875 37.40625 
L 32.078125 37.40625 
Q 38.96875 37.40625 42.71875 40.96875 
Q 46.484375 44.53125 46.484375 51.125 
Q 46.484375 57.671875 42.71875 61.234375 
Q 38.96875 64.796875 32.078125 64.796875 
z
M 9.8125 72.90625 
L 32.078125 72.90625 
Q 44.34375 72.90625 50.609375 67.359375 
Q 56.890625 61.8125 56.890625 51.125 
Q 56.890625 40.328125 50.609375 34.8125 
Q 44.34375 29.296875 32.078125 29.296875 
L 19.671875 29.296875 
L 19.671875 0 
L 9.8125 0 
z
" id="DejaVuSans-80"/>
       <path d="M 9.8125 72.90625 
L 55.90625 72.90625 
L 55.90625 64.59375 
L 19.671875 64.59375 
L 19.671875 43.015625 
L 54.390625 43.015625 
L 54.390625 34.71875 
L 19.671875 34.71875 
L 19.671875 8.296875 
L 56.78125 8.296875 
L 56.78125 0 
L 9.8125 0 
z
" id="DejaVuSans-69"/>
       <path d="M 34.1875 63.1875 
L 20.796875 26.90625 
L 47.609375 26.90625 
z
M 28.609375 72.90625 
L 39.796875 72.90625 
L 67.578125 0 
L 57.328125 0 
L 50.6875 18.703125 
L 17.828125 18.703125 
L 11.1875 0 
L 0.78125 0 
z
" id="DejaVuSans-65"/>
       <path d="M 9.8125 72.90625 
L 24.515625 72.90625 
L 43.109375 23.296875 
L 61.8125 72.90625 
L 76.515625 72.90625 
L 76.515625 0 
L 66.890625 0 
L 66.890625 64.015625 
L 48.09375 14.015625 
L 38.1875 14.015625 
L 19.390625 64.015625 
L 19.390625 0 
L 9.8125 0 
z
" id="DejaVuSans-77"/>
       <path d="M 12.40625 8.296875 
L 28.515625 8.296875 
L 28.515625 63.921875 
L 10.984375 60.40625 
L 10.984375 69.390625 
L 28.421875 72.90625 
L 38.28125 72.90625 
L 38.28125 8.296875 
L 54.390625 8.296875 
L 54.390625 0 
L 12.40625 0 
z
" id="DejaVuSans-49"/>
      </defs>
      <use xlink:href="#DejaVuSans-80"/>
      <use x="60.302734" xlink:href="#DejaVuSans-69"/>
      <use x="123.486328" xlink:href="#DejaVuSans-67"/>
      <use x="193.310547" xlink:href="#DejaVuSans-65"/>
      <use x="261.71875" xlink:href="#DejaVuSans-77"/>
      <use x="347.998047" xlink:href="#DejaVuSans-49"/>
     </g>
    </g>
   </g>
   <g id="text_3">
    <g clip-path="url(#p9fae200faf)">
     <!-- ITGB2 -->
     <g transform="translate(252.349882 413.97231)scale(0.12 -0.12)">
      <defs>
       <path d="M 9.8125 72.90625 
L 19.671875 72.90625 
L 19.671875 0 
L 9.8125 0 
z
" id="DejaVuSans-73"/>
       <path d="M -0.296875 72.90625 
L 61.375 72.90625 
L 61.375 64.59375 
L 35.5 64.59375 
L 35.5 0 
L 25.59375 0 
L 25.59375 64.59375 
L -0.296875 64.59375 
z
" id="DejaVuSans-84"/>
       <path d="M 59.515625 10.40625 
L 59.515625 29.984375 
L 43.40625 29.984375 
L 43.40625 38.09375 
L 69.28125 38.09375 
L 69.28125 6.78125 
Q 63.578125 2.734375 56.6875 0.65625 
Q 49.8125 -1.421875 42 -1.421875 
Q 24.90625 -1.421875 15.25 8.5625 
Q 5.609375 18.5625 5.609375 36.375 
Q 5.609375 54.25 15.25 64.234375 
Q 24.90625 74.21875 42 74.21875 
Q 49.125 74.21875 55.546875 72.453125 
Q 61.96875 70.703125 67.390625 67.28125 
L 67.390625 56.78125 
Q 61.921875 61.421875 55.765625 63.765625 
Q 49.609375 66.109375 42.828125 66.109375 
Q 29.4375 66.109375 22.71875 58.640625 
Q 16.015625 51.171875 16.015625 36.375 
Q 16.015625 21.625 22.71875 14.15625 
Q 29.4375 6.6875 42.828125 6.6875 
Q 48.046875 6.6875 52.140625 7.59375 
Q 56.25 8.5 59.515625 10.40625 
z
" id="DejaVuSans-71"/>
       <path d="M 19.671875 34.8125 
L 19.671875 8.109375 
L 35.5 8.109375 
Q 43.453125 8.109375 47.28125 11.40625 
Q 51.125 14.703125 51.125 21.484375 
Q 51.125 28.328125 47.28125 31.5625 
Q 43.453125 34.8125 35.5 34.8125 
z
M 19.671875 64.796875 
L 19.671875 42.828125 
L 34.28125 42.828125 
Q 41.5 42.828125 45.03125 45.53125 
Q 48.578125 48.25 48.578125 53.8125 
Q 48.578125 59.328125 45.03125 62.0625 
Q 41.5 64.796875 34.28125 64.796875 
z
M 9.8125 72.90625 
L 35.015625 72.90625 
Q 46.296875 72.90625 52.390625 68.21875 
Q 58.5 63.53125 58.5 54.890625 
Q 58.5 48.1875 55.375 44.234375 
Q 52.25 40.28125 46.1875 39.3125 
Q 53.46875 37.75 57.5 32.78125 
Q 61.53125 27.828125 61.53125 20.40625 
Q 61.53125 10.640625 54.890625 5.3125 
Q 48.25 0 35.984375 0 
L 9.8125 0 
z
" id="DejaVuSans-66"/>
       <path d="M 19.1875 8.296875 
L 53.609375 8.296875 
L 53.609375 0 
L 7.328125 0 
L 7.328125 8.296875 
Q 12.9375 14.109375 22.625 23.890625 
Q 32.328125 33.6875 34.8125 36.53125 
Q 39.546875 41.84375 41.421875 45.53125 
Q 43.3125 49.21875 43.3125 52.78125 
Q 43.3125 58.59375 39.234375 62.25 
Q 35.15625 65.921875 28.609375 65.921875 
Q 23.96875 65.921875 18.8125 64.3125 
Q 13.671875 62.703125 7.8125 59.421875 
L 7.8125 69.390625 
Q 13.765625 71.78125 18.9375 73 
Q 24.125 74.21875 28.421875 74.21875 
Q 39.75 74.21875 46.484375 68.546875 
Q 53.21875 62.890625 53.21875 53.421875 
Q 53.21875 48.921875 51.53125 44.890625 
Q 49.859375 40.875 45.40625 35.40625 
Q 44.1875 33.984375 37.640625 27.21875 
Q 31.109375 20.453125 19.1875 8.296875 
z
" id="DejaVuSans-50"/>
      </defs>
      <use xlink:href="#DejaVuSans-73"/>
      <use x="29.492188" xlink:href="#DejaVuSans-84"/>
      <use x="90.576172" xlink:href="#DejaVuSans-71"/>
      <use x="168.066406" xlink:href="#DejaVuSans-66"/>
      <use x="236.669922" xlink:href="#DejaVuSans-50"/>
     </g>
    </g>
   </g>
   <g id="text_4">
    <g clip-path="url(#p9fae200faf)">
     <!-- CTNND1 -->
     <g transform="translate(184.124229 224.475363)scale(0.12 -0.12)">
      <defs>
       <path d="M 9.8125 72.90625 
L 23.09375 72.90625 
L 55.421875 11.921875 
L 55.421875 72.90625 
L 64.984375 72.90625 
L 64.984375 0 
L 51.703125 0 
L 19.390625 60.984375 
L 19.390625 0 
L 9.8125 0 
z
" id="DejaVuSans-78"/>
      </defs>
      <use xlink:href="#DejaVuSans-67"/>
      <use x="69.824219" xlink:href="#DejaVuSans-84"/>
      <use x="130.908203" xlink:href="#DejaVuSans-78"/>
      <use x="205.712891" xlink:href="#DejaVuSans-78"/>
      <use x="280.517578" xlink:href="#DejaVuSans-68"/>
      <use x="357.519531" xlink:href="#DejaVuSans-49"/>
     </g>
    </g>
   </g>
   <g id="text_5">
    <g clip-path="url(#p9fae200faf)">
     <!-- BCAR1 -->
     <g transform="translate(496.015059 476.218806)scale(0.12 -0.12)">
      <defs>
       <path d="M 44.390625 34.1875 
Q 47.5625 33.109375 50.5625 29.59375 
Q 53.5625 26.078125 56.59375 19.921875 
L 66.609375 0 
L 56 0 
L 46.6875 18.703125 
Q 43.0625 26.03125 39.671875 28.421875 
Q 36.28125 30.8125 30.421875 30.8125 
L 19.671875 30.8125 
L 19.671875 0 
L 9.8125 0 
L 9.8125 72.90625 
L 32.078125 72.90625 
Q 44.578125 72.90625 50.734375 67.671875 
Q 56.890625 62.453125 56.890625 51.90625 
Q 56.890625 45.015625 53.6875 40.46875 
Q 50.484375 35.9375 44.390625 34.1875 
z
M 19.671875 64.796875 
L 19.671875 38.921875 
L 32.078125 38.921875 
Q 39.203125 38.921875 42.84375 42.21875 
Q 46.484375 45.515625 46.484375 51.90625 
Q 46.484375 58.296875 42.84375 61.546875 
Q 39.203125 64.796875 32.078125 64.796875 
z
" id="DejaVuSans-82"/>
      </defs>
      <use xlink:href="#DejaVuSans-66"/>
      <use x="66.853516" xlink:href="#DejaVuSans-67"/>
      <use x="136.677734" xlink:href="#DejaVuSans-65"/>
      <use x="205.085938" xlink:href="#DejaVuSans-82"/>
      <use x="274.568359" xlink:href="#DejaVuSans-49"/>
     </g>
    </g>
   </g>
   <g id="text_6">
    <g clip-path="url(#p9fae200faf)">
     <!-- SIPA1 -->
     <g transform="translate(177.80398 275.946881)scale(0.12 -0.12)">
      <defs>
       <path d="M 53.515625 70.515625 
L 53.515625 60.890625 
Q 47.90625 63.578125 42.921875 64.890625 
Q 37.9375 66.21875 33.296875 66.21875 
Q 25.25 66.21875 20.875 63.09375 
Q 16.5 59.96875 16.5 54.203125 
Q 16.5 49.359375 19.40625 46.890625 
Q 22.3125 44.4375 30.421875 42.921875 
L 36.375 41.703125 
Q 47.40625 39.59375 52.65625 34.296875 
Q 57.90625 29 57.90625 20.125 
Q 57.90625 9.515625 50.796875 4.046875 
Q 43.703125 -1.421875 29.984375 -1.421875 
Q 24.8125 -1.421875 18.96875 -0.25 
Q 13.140625 0.921875 6.890625 3.21875 
L 6.890625 13.375 
Q 12.890625 10.015625 18.65625 8.296875 
Q 24.421875 6.59375 29.984375 6.59375 
Q 38.421875 6.59375 43.015625 9.90625 
Q 47.609375 13.234375 47.609375 19.390625 
Q 47.609375 24.75 44.3125 27.78125 
Q 41.015625 30.8125 33.5 32.328125 
L 27.484375 33.5 
Q 16.453125 35.6875 11.515625 40.375 
Q 6.59375 45.0625 6.59375 53.421875 
Q 6.59375 63.09375 13.40625 68.65625 
Q 20.21875 74.21875 32.171875 74.21875 
Q 37.3125 74.21875 42.625 73.28125 
Q 47.953125 72.359375 53.515625 70.515625 
z
" id="DejaVuSans-83"/>
      </defs>
      <use xlink:href="#DejaVuSans-83"/>
      <use x="63.476562" xlink:href="#DejaVuSans-73"/>
      <use x="92.96875" xlink:href="#DejaVuSans-80"/>
      <use x="146.896484" xlink:href="#DejaVuSans-65"/>
      <use x="215.304688" xlink:href="#DejaVuSans-49"/>
     </g>
    </g>
   </g>
   <g id="text_7">
    <g clip-path="url(#p9fae200faf)">
     <!-- F11R -->
     <g transform="translate(300.313943 405.572573)scale(0.12 -0.12)">
      <defs>
       <path d="M 9.8125 72.90625 
L 51.703125 72.90625 
L 51.703125 64.59375 
L 19.671875 64.59375 
L 19.671875 43.109375 
L 48.578125 43.109375 
L 48.578125 34.8125 
L 19.671875 34.8125 
L 19.671875 0 
L 9.8125 0 
z
" id="DejaVuSans-70"/>
      </defs>
      <use xlink:href="#DejaVuSans-70"/>
      <use x="57.519531" xlink:href="#DejaVuSans-49"/>
      <use x="121.142578" xlink:href="#DejaVuSans-49"/>
      <use x="184.765625" xlink:href="#DejaVuSans-82"/>
     </g>
    </g>
   </g>
   <g id="text_8">
    <g clip-path="url(#p9fae200faf)">
     <!-- ITGAL -->
     <g transform="translate(395.783759 477.463977)scale(0.12 -0.12)">
      <defs>
       <path d="M 9.8125 72.90625 
L 19.671875 72.90625 
L 19.671875 8.296875 
L 55.171875 8.296875 
L 55.171875 0 
L 9.8125 0 
z
" id="DejaVuSans-76"/>
      </defs>
      <use xlink:href="#DejaVuSans-73"/>
      <use x="29.492188" xlink:href="#DejaVuSans-84"/>
      <use x="90.576172" xlink:href="#DejaVuSans-71"/>
      <use x="168.066406" xlink:href="#DejaVuSans-65"/>
      <use x="236.474609" xlink:href="#DejaVuSans-76"/>
     </g>
    </g>
   </g>
   <g id="text_9">
    <g clip-path="url(#p9fae200faf)">
     <!-- ITGB1 -->
     <g transform="translate(572.954744 469.81384)scale(0.12 -0.12)">
      <use xlink:href="#DejaVuSans-73"/>
      <use x="29.492188" xlink:href="#DejaVuSans-84"/>
      <use x="90.576172" xlink:href="#DejaVuSans-71"/>
      <use x="168.066406" xlink:href="#DejaVuSans-66"/>
      <use x="236.669922" xlink:href="#DejaVuSans-49"/>
     </g>
    </g>
   </g>
   <g id="text_10">
    <g clip-path="url(#p9fae200faf)">
     <!-- ITGA4 -->
     <g transform="translate(454.803687 110.918523)scale(0.12 -0.12)">
      <defs>
       <path d="M 37.796875 64.3125 
L 12.890625 25.390625 
L 37.796875 25.390625 
z
M 35.203125 72.90625 
L 47.609375 72.90625 
L 47.609375 25.390625 
L 58.015625 25.390625 
L 58.015625 17.1875 
L 47.609375 17.1875 
L 47.609375 0 
L 37.796875 0 
L 37.796875 17.1875 
L 4.890625 17.1875 
L 4.890625 26.703125 
z
" id="DejaVuSans-52"/>
      </defs>
      <use xlink:href="#DejaVuSans-73"/>
      <use x="29.492188" xlink:href="#DejaVuSans-84"/>
      <use x="90.576172" xlink:href="#DejaVuSans-71"/>
      <use x="168.066406" xlink:href="#DejaVuSans-65"/>
      <use x="236.474609" xlink:href="#DejaVuSans-52"/>
     </g>
    </g>
   </g>
   <g id="text_11">
    <g clip-path="url(#p9fae200faf)">
     <!-- JAM2 -->
     <g transform="translate(536.96602 292.161002)scale(0.12 -0.12)">
      <defs>
       <path d="M 9.8125 72.90625 
L 19.671875 72.90625 
L 19.671875 5.078125 
Q 19.671875 -8.109375 14.671875 -14.0625 
Q 9.671875 -20.015625 -1.421875 -20.015625 
L -5.171875 -20.015625 
L -5.171875 -11.71875 
L -2.09375 -11.71875 
Q 4.4375 -11.71875 7.125 -8.046875 
Q 9.8125 -4.390625 9.8125 5.078125 
z
" id="DejaVuSans-74"/>
      </defs>
      <use xlink:href="#DejaVuSans-74"/>
      <use x="27.742188" xlink:href="#DejaVuSans-65"/>
      <use x="96.150391" xlink:href="#DejaVuSans-77"/>
      <use x="182.429688" xlink:href="#DejaVuSans-50"/>
     </g>
    </g>
   </g>
   <g id="text_12">
    <g clip-path="url(#p9fae200faf)">
     <!-- ITGAM -->
     <g transform="translate(258.15318 151.913526)scale(0.12 -0.12)">
      <use xlink:href="#DejaVuSans-73"/>
      <use x="29.492188" xlink:href="#DejaVuSans-84"/>
      <use x="90.576172" xlink:href="#DejaVuSans-71"/>
      <use x="168.066406" xlink:href="#DejaVuSans-65"/>
      <use x="236.474609" xlink:href="#DejaVuSans-77"/>
     </g>
    </g>
   </g>
   <g id="text_13">
    <g clip-path="url(#p9fae200faf)">
     <!-- CTNNB1 -->
     <g transform="translate(642.99937 425.563594)scale(0.12 -0.12)">
      <use xlink:href="#DejaVuSans-67"/>
      <use x="69.824219" xlink:href="#DejaVuSans-84"/>
      <use x="130.908203" xlink:href="#DejaVuSans-78"/>
      <use x="205.712891" xlink:href="#DejaVuSans-78"/>
      <use x="280.517578" xlink:href="#DejaVuSans-66"/>
      <use x="349.121094" xlink:href="#DejaVuSans-49"/>
     </g>
    </g>
   </g>
   <g id="text_14">
    <g clip-path="url(#p9fae200faf)">
     <!-- PTK2 -->
     <g transform="translate(527.099503 117.497568)scale(0.12 -0.12)">
      <defs>
       <path d="M 9.8125 72.90625 
L 19.671875 72.90625 
L 19.671875 42.09375 
L 52.390625 72.90625 
L 65.09375 72.90625 
L 28.90625 38.921875 
L 67.671875 0 
L 54.6875 0 
L 19.671875 35.109375 
L 19.671875 0 
L 9.8125 0 
z
" id="DejaVuSans-75"/>
      </defs>
      <use xlink:href="#DejaVuSans-80"/>
      <use x="60.302734" xlink:href="#DejaVuSans-84"/>
      <use x="121.386719" xlink:href="#DejaVuSans-75"/>
      <use x="186.962891" xlink:href="#DejaVuSans-50"/>
     </g>
    </g>
   </g>
   <g id="text_15">
    <g clip-path="url(#p9fae200faf)">
     <!-- RHOA -->
     <g transform="translate(510.695859 279.873206)scale(0.12 -0.12)">
      <defs>
       <path d="M 39.40625 66.21875 
Q 28.65625 66.21875 22.328125 58.203125 
Q 16.015625 50.203125 16.015625 36.375 
Q 16.015625 22.609375 22.328125 14.59375 
Q 28.65625 6.59375 39.40625 6.59375 
Q 50.140625 6.59375 56.421875 14.59375 
Q 62.703125 22.609375 62.703125 36.375 
Q 62.703125 50.203125 56.421875 58.203125 
Q 50.140625 66.21875 39.40625 66.21875 
z
M 39.40625 74.21875 
Q 54.734375 74.21875 63.90625 63.9375 
Q 73.09375 53.65625 73.09375 36.375 
Q 73.09375 19.140625 63.90625 8.859375 
Q 54.734375 -1.421875 39.40625 -1.421875 
Q 24.03125 -1.421875 14.8125 8.828125 
Q 5.609375 19.09375 5.609375 36.375 
Q 5.609375 53.65625 14.8125 63.9375 
Q 24.03125 74.21875 39.40625 74.21875 
z
" id="DejaVuSans-79"/>
      </defs>
      <use xlink:href="#DejaVuSans-82"/>
      <use x="69.482422" xlink:href="#DejaVuSans-72"/>
      <use x="144.677734" xlink:href="#DejaVuSans-79"/>
      <use x="221.638672" xlink:href="#DejaVuSans-65"/>
     </g>
    </g>
   </g>
   <g id="text_16">
    <g clip-path="url(#p9fae200faf)">
     <!-- JAM3 -->
     <g transform="translate(343.082324 255.508949)scale(0.12 -0.12)">
      <defs>
       <path d="M 40.578125 39.3125 
Q 47.65625 37.796875 51.625 33 
Q 55.609375 28.21875 55.609375 21.1875 
Q 55.609375 10.40625 48.1875 4.484375 
Q 40.765625 -1.421875 27.09375 -1.421875 
Q 22.515625 -1.421875 17.65625 -0.515625 
Q 12.796875 0.390625 7.625 2.203125 
L 7.625 11.71875 
Q 11.71875 9.328125 16.59375 8.109375 
Q 21.484375 6.890625 26.8125 6.890625 
Q 36.078125 6.890625 40.9375 10.546875 
Q 45.796875 14.203125 45.796875 21.1875 
Q 45.796875 27.640625 41.28125 31.265625 
Q 36.765625 34.90625 28.71875 34.90625 
L 20.21875 34.90625 
L 20.21875 43.015625 
L 29.109375 43.015625 
Q 36.375 43.015625 40.234375 45.921875 
Q 44.09375 48.828125 44.09375 54.296875 
Q 44.09375 59.90625 40.109375 62.90625 
Q 36.140625 65.921875 28.71875 65.921875 
Q 24.65625 65.921875 20.015625 65.03125 
Q 15.375 64.15625 9.8125 62.3125 
L 9.8125 71.09375 
Q 15.4375 72.65625 20.34375 73.4375 
Q 25.25 74.21875 29.59375 74.21875 
Q 40.828125 74.21875 47.359375 69.109375 
Q 53.90625 64.015625 53.90625 55.328125 
Q 53.90625 49.265625 50.4375 45.09375 
Q 46.96875 40.921875 40.578125 39.3125 
z
" id="DejaVuSans-51"/>
      </defs>
      <use xlink:href="#DejaVuSans-74"/>
      <use x="27.742188" xlink:href="#DejaVuSans-65"/>
      <use x="96.150391" xlink:href="#DejaVuSans-77"/>
      <use x="182.429688" xlink:href="#DejaVuSans-51"/>
     </g>
    </g>
   </g>
   <g id="text_17">
    <g clip-path="url(#p9fae200faf)">
     <!-- CYBA -->
     <g transform="translate(453.422056 276.714386)scale(0.12 -0.12)">
      <defs>
       <path d="M -0.203125 72.90625 
L 10.40625 72.90625 
L 30.609375 42.921875 
L 50.6875 72.90625 
L 61.28125 72.90625 
L 35.5 34.71875 
L 35.5 0 
L 25.59375 0 
L 25.59375 34.71875 
z
" id="DejaVuSans-89"/>
      </defs>
      <use xlink:href="#DejaVuSans-67"/>
      <use x="68.074219" xlink:href="#DejaVuSans-89"/>
      <use x="129.158203" xlink:href="#DejaVuSans-66"/>
      <use x="197.761719" xlink:href="#DejaVuSans-65"/>
     </g>
    </g>
   </g>
   <g id="text_18">
    <g clip-path="url(#p9fae200faf)">
     <!-- NCF2 -->
     <g transform="translate(445.30862 289.628776)scale(0.12 -0.12)">
      <use xlink:href="#DejaVuSans-78"/>
      <use x="74.804688" xlink:href="#DejaVuSans-67"/>
      <use x="144.628906" xlink:href="#DejaVuSans-70"/>
      <use x="202.148438" xlink:href="#DejaVuSans-50"/>
     </g>
    </g>
   </g>
   <g id="text_19">
    <g clip-path="url(#p9fae200faf)">
     <!-- PXN -->
     <g transform="translate(707.277652 217.151057)scale(0.12 -0.12)">
      <defs>
       <path d="M 6.296875 72.90625 
L 16.890625 72.90625 
L 35.015625 45.796875 
L 53.21875 72.90625 
L 63.8125 72.90625 
L 40.375 37.890625 
L 65.375 0 
L 54.78125 0 
L 34.28125 31 
L 13.625 0 
L 2.984375 0 
L 29 38.921875 
z
" id="DejaVuSans-88"/>
      </defs>
      <use xlink:href="#DejaVuSans-80"/>
      <use x="60.302734" xlink:href="#DejaVuSans-88"/>
      <use x="128.808594" xlink:href="#DejaVuSans-78"/>
     </g>
    </g>
   </g>
   <g id="text_20">
    <g clip-path="url(#p9fae200faf)">
     <!-- NCF1 -->
     <g transform="translate(461.449836 261.374418)scale(0.12 -0.12)">
      <use xlink:href="#DejaVuSans-78"/>
      <use x="74.804688" xlink:href="#DejaVuSans-67"/>
      <use x="144.628906" xlink:href="#DejaVuSans-70"/>
      <use x="202.148438" xlink:href="#DejaVuSans-49"/>
     </g>
    </g>
   </g>
   <g id="text_21">
    <g clip-path="url(#p9fae200faf)">
     <!-- RAC1 -->
     <g transform="translate(420.505586 239.06221)scale(0.12 -0.12)">
      <use xlink:href="#DejaVuSans-82"/>
      <use x="65.482422" xlink:href="#DejaVuSans-65"/>
      <use x="132.140625" xlink:href="#DejaVuSans-67"/>
      <use x="201.964844" xlink:href="#DejaVuSans-49"/>
     </g>
    </g>
   </g>
   <g id="text_22">
    <g clip-path="url(#p9fae200faf)">
     <!-- NCF4 -->
     <g transform="translate(474.459796 249.157588)scale(0.12 -0.12)">
      <use xlink:href="#DejaVuSans-78"/>
      <use x="74.804688" xlink:href="#DejaVuSans-67"/>
      <use x="144.628906" xlink:href="#DejaVuSans-70"/>
      <use x="202.148438" xlink:href="#DejaVuSans-52"/>
     </g>
    </g>
   </g>
   <g id="text_23">
    <g clip-path="url(#p9fae200faf)">
     <!-- RASSF5 -->
     <g transform="translate(392.53344 316.245908)scale(0.12 -0.12)">
      <use xlink:href="#DejaVuSans-82"/>
      <use x="65.482422" xlink:href="#DejaVuSans-65"/>
      <use x="133.890625" xlink:href="#DejaVuSans-83"/>
      <use x="197.367188" xlink:href="#DejaVuSans-83"/>
      <use x="260.84375" xlink:href="#DejaVuSans-70"/>
      <use x="318.363281" xlink:href="#DejaVuSans-53"/>
     </g>
    </g>
   </g>
   <g id="text_24">
    <g clip-path="url(#p9fae200faf)">
     <!-- PTK2B -->
     <g transform="translate(332.555891 465.162793)scale(0.12 -0.12)">
      <use xlink:href="#DejaVuSans-80"/>
      <use x="60.302734" xlink:href="#DejaVuSans-84"/>
      <use x="121.386719" xlink:href="#DejaVuSans-75"/>
      <use x="186.962891" xlink:href="#DejaVuSans-50"/>
      <use x="250.585938" xlink:href="#DejaVuSans-66"/>
     </g>
    </g>
   </g>
   <g id="text_25">
    <g clip-path="url(#p9fae200faf)">
     <!-- CXCL12 -->
     <g transform="translate(616.449857 403.167196)scale(0.12 -0.12)">
      <use xlink:href="#DejaVuSans-67"/>
      <use x="69.824219" xlink:href="#DejaVuSans-88"/>
      <use x="131.080078" xlink:href="#DejaVuSans-67"/>
      <use x="200.904297" xlink:href="#DejaVuSans-76"/>
      <use x="256.617188" xlink:href="#DejaVuSans-49"/>
      <use x="320.240234" xlink:href="#DejaVuSans-50"/>
     </g>
    </g>
   </g>
   <g id="text_26">
    <g clip-path="url(#p9fae200faf)">
     <!-- CXCR4 -->
     <g transform="translate(489.028618 396.963691)scale(0.12 -0.12)">
      <use xlink:href="#DejaVuSans-67"/>
      <use x="69.824219" xlink:href="#DejaVuSans-88"/>
      <use x="131.080078" xlink:href="#DejaVuSans-67"/>
      <use x="200.904297" xlink:href="#DejaVuSans-82"/>
      <use x="270.386719" xlink:href="#DejaVuSans-52"/>
     </g>
    </g>
   </g>
   <g id="text_27">
    <g clip-path="url(#p9fae200faf)">
     <!-- THY1 -->
     <g transform="translate(403.42988 276.02151)scale(0.12 -0.12)">
      <use xlink:href="#DejaVuSans-84"/>
      <use x="61.083984" xlink:href="#DejaVuSans-72"/>
      <use x="136.279297" xlink:href="#DejaVuSans-89"/>
      <use x="197.363281" xlink:href="#DejaVuSans-49"/>
     </g>
    </g>
   </g>
   <g id="text_28">
    <g clip-path="url(#p9fae200faf)">
     <!-- VCAM1 -->
     <g transform="translate(481.183699 303.028971)scale(0.12 -0.12)">
      <defs>
       <path d="M 28.609375 0 
L 0.78125 72.90625 
L 11.078125 72.90625 
L 34.1875 11.53125 
L 57.328125 72.90625 
L 67.578125 72.90625 
L 39.796875 0 
z
" id="DejaVuSans-86"/>
      </defs>
      <use xlink:href="#DejaVuSans-86"/>
      <use x="68.408203" xlink:href="#DejaVuSans-67"/>
      <use x="138.232422" xlink:href="#DejaVuSans-65"/>
      <use x="206.640625" xlink:href="#DejaVuSans-77"/>
      <use x="292.919922" xlink:href="#DejaVuSans-49"/>
     </g>
    </g>
   </g>
   <g id="text_29">
    <g clip-path="url(#p9fae200faf)">
     <!-- ICAM1 -->
     <g transform="translate(465.954423 363.521142)scale(0.12 -0.12)">
      <use xlink:href="#DejaVuSans-73"/>
      <use x="29.492188" xlink:href="#DejaVuSans-67"/>
      <use x="99.316406" xlink:href="#DejaVuSans-65"/>
      <use x="167.724609" xlink:href="#DejaVuSans-77"/>
      <use x="254.003906" xlink:href="#DejaVuSans-49"/>
     </g>
    </g>
   </g>
   <g id="text_30">
    <g clip-path="url(#p9fae200faf)">
     <!-- OCLN -->
     <g transform="translate(682.400037 238.356415)scale(0.12 -0.12)">
      <use xlink:href="#DejaVuSans-79"/>
      <use x="78.710938" xlink:href="#DejaVuSans-67"/>
      <use x="148.535156" xlink:href="#DejaVuSans-76"/>
      <use x="204.248047" xlink:href="#DejaVuSans-78"/>
     </g>
    </g>
   </g>
   <g id="text_31">
    <g clip-path="url(#p9fae200faf)">
     <!-- ESAM -->
     <g transform="translate(634.619751 301.370634)scale(0.12 -0.12)">
      <use xlink:href="#DejaVuSans-69"/>
      <use x="63.183594" xlink:href="#DejaVuSans-83"/>
      <use x="128.535156" xlink:href="#DejaVuSans-65"/>
      <use x="196.943359" xlink:href="#DejaVuSans-77"/>
     </g>
    </g>
   </g>
   <g id="text_32">
    <g clip-path="url(#p9fae200faf)">
     <!-- MMP2 -->
     <g transform="translate(698.079878 379.029023)scale(0.12 -0.12)">
      <use xlink:href="#DejaVuSans-77"/>
      <use x="86.279297" xlink:href="#DejaVuSans-77"/>
      <use x="172.558594" xlink:href="#DejaVuSans-80"/>
      <use x="232.861328" xlink:href="#DejaVuSans-50"/>
     </g>
    </g>
   </g>
   <g id="text_33">
    <g clip-path="url(#p9fae200faf)">
     <!-- MMP9 -->
     <g transform="translate(209.309008 176.983637)scale(0.12 -0.12)">
      <defs>
       <path d="M 10.984375 1.515625 
L 10.984375 10.5 
Q 14.703125 8.734375 18.5 7.8125 
Q 22.3125 6.890625 25.984375 6.890625 
Q 35.75 6.890625 40.890625 13.453125 
Q 46.046875 20.015625 46.78125 33.40625 
Q 43.953125 29.203125 39.59375 26.953125 
Q 35.25 24.703125 29.984375 24.703125 
Q 19.046875 24.703125 12.671875 31.3125 
Q 6.296875 37.9375 6.296875 49.421875 
Q 6.296875 60.640625 12.9375 67.421875 
Q 19.578125 74.21875 30.609375 74.21875 
Q 43.265625 74.21875 49.921875 64.515625 
Q 56.59375 54.828125 56.59375 36.375 
Q 56.59375 19.140625 48.40625 8.859375 
Q 40.234375 -1.421875 26.421875 -1.421875 
Q 22.703125 -1.421875 18.890625 -0.6875 
Q 15.09375 0.046875 10.984375 1.515625 
z
M 30.609375 32.421875 
Q 37.25 32.421875 41.125 36.953125 
Q 45.015625 41.5 45.015625 49.421875 
Q 45.015625 57.28125 41.125 61.84375 
Q 37.25 66.40625 30.609375 66.40625 
Q 23.96875 66.40625 20.09375 61.84375 
Q 16.21875 57.28125 16.21875 49.421875 
Q 16.21875 41.5 20.09375 36.953125 
Q 23.96875 32.421875 30.609375 32.421875 
z
" id="DejaVuSans-57"/>
      </defs>
      <use xlink:href="#DejaVuSans-77"/>
      <use x="86.279297" xlink:href="#DejaVuSans-77"/>
      <use x="172.558594" xlink:href="#DejaVuSans-80"/>
      <use x="232.861328" xlink:href="#DejaVuSans-57"/>
     </g>
    </g>
   </g>
   <g id="text_34">
    <g clip-path="url(#p9fae200faf)">
     <!-- MYL2 -->
     <g transform="translate(281.749923 440.133853)scale(0.12 -0.12)">
      <use xlink:href="#DejaVuSans-77"/>
      <use x="86.279297" xlink:href="#DejaVuSans-89"/>
      <use x="147.363281" xlink:href="#DejaVuSans-76"/>
      <use x="203.076172" xlink:href="#DejaVuSans-50"/>
     </g>
    </g>
   </g>
   <g id="text_35">
    <g clip-path="url(#p9fae200faf)">
     <!-- MYL5 -->
     <g transform="translate(150.103598 305.107516)scale(0.12 -0.12)">
      <use xlink:href="#DejaVuSans-77"/>
      <use x="86.279297" xlink:href="#DejaVuSans-89"/>
      <use x="147.363281" xlink:href="#DejaVuSans-76"/>
      <use x="203.076172" xlink:href="#DejaVuSans-53"/>
     </g>
    </g>
   </g>
   <g id="text_36">
    <g clip-path="url(#p9fae200faf)">
     <!-- MYL7 -->
     <g transform="translate(384.262893 116.604186)scale(0.12 -0.12)">
      <defs>
       <path d="M 8.203125 72.90625 
L 55.078125 72.90625 
L 55.078125 68.703125 
L 28.609375 0 
L 18.3125 0 
L 43.21875 64.59375 
L 8.203125 64.59375 
z
" id="DejaVuSans-55"/>
      </defs>
      <use xlink:href="#DejaVuSans-77"/>
      <use x="86.279297" xlink:href="#DejaVuSans-89"/>
      <use x="147.363281" xlink:href="#DejaVuSans-76"/>
      <use x="203.076172" xlink:href="#DejaVuSans-55"/>
     </g>
    </g>
   </g>
   <g id="text_37">
    <g clip-path="url(#p9fae200faf)">
     <!-- MYL9 -->
     <g transform="translate(212.160582 421.963506)scale(0.12 -0.12)">
      <use xlink:href="#DejaVuSans-77"/>
      <use x="86.279297" xlink:href="#DejaVuSans-89"/>
      <use x="147.363281" xlink:href="#DejaVuSans-76"/>
      <use x="203.076172" xlink:href="#DejaVuSans-57"/>
     </g>
    </g>
   </g>
   <g id="text_38">
    <g clip-path="url(#p9fae200faf)">
     <!-- MYL10 -->
     <g transform="translate(315.475601 135.672478)scale(0.12 -0.12)">
      <defs>
       <path d="M 31.78125 66.40625 
Q 24.171875 66.40625 20.328125 58.90625 
Q 16.5 51.421875 16.5 36.375 
Q 16.5 21.390625 20.328125 13.890625 
Q 24.171875 6.390625 31.78125 6.390625 
Q 39.453125 6.390625 43.28125 13.890625 
Q 47.125 21.390625 47.125 36.375 
Q 47.125 51.421875 43.28125 58.90625 
Q 39.453125 66.40625 31.78125 66.40625 
z
M 31.78125 74.21875 
Q 44.046875 74.21875 50.515625 64.515625 
Q 56.984375 54.828125 56.984375 36.375 
Q 56.984375 17.96875 50.515625 8.265625 
Q 44.046875 -1.421875 31.78125 -1.421875 
Q 19.53125 -1.421875 13.0625 8.265625 
Q 6.59375 17.96875 6.59375 36.375 
Q 6.59375 54.828125 13.0625 64.515625 
Q 19.53125 74.21875 31.78125 74.21875 
z
" id="DejaVuSans-48"/>
      </defs>
      <use xlink:href="#DejaVuSans-77"/>
      <use x="86.279297" xlink:href="#DejaVuSans-89"/>
      <use x="147.363281" xlink:href="#DejaVuSans-76"/>
      <use x="203.076172" xlink:href="#DejaVuSans-49"/>
      <use x="266.699219" xlink:href="#DejaVuSans-48"/>
     </g>
    </g>
   </g>
   <g id="text_39">
    <g clip-path="url(#p9fae200faf)">
     <!-- MYLPF -->
     <g transform="translate(676.993015 171.992866)scale(0.12 -0.12)">
      <use xlink:href="#DejaVuSans-77"/>
      <use x="86.279297" xlink:href="#DejaVuSans-89"/>
      <use x="147.363281" xlink:href="#DejaVuSans-76"/>
      <use x="203.076172" xlink:href="#DejaVuSans-80"/>
      <use x="263.378906" xlink:href="#DejaVuSans-70"/>
     </g>
    </g>
   </g>
   <g id="text_40">
    <g clip-path="url(#p9fae200faf)">
     <!-- ROCK1 -->
     <g transform="translate(340.841772 266.366389)scale(0.12 -0.12)">
      <use xlink:href="#DejaVuSans-82"/>
      <use x="69.482422" xlink:href="#DejaVuSans-79"/>
      <use x="148.193359" xlink:href="#DejaVuSans-67"/>
      <use x="218.017578" xlink:href="#DejaVuSans-75"/>
      <use x="283.59375" xlink:href="#DejaVuSans-49"/>
     </g>
    </g>
   </g>
   <g id="text_41">
    <g clip-path="url(#p9fae200faf)">
     <!-- ROCK2 -->
     <g transform="translate(353.493658 266.258532)scale(0.12 -0.12)">
      <use xlink:href="#DejaVuSans-82"/>
      <use x="69.482422" xlink:href="#DejaVuSans-79"/>
      <use x="148.193359" xlink:href="#DejaVuSans-67"/>
      <use x="218.017578" xlink:href="#DejaVuSans-75"/>
      <use x="283.59375" xlink:href="#DejaVuSans-50"/>
     </g>
    </g>
   </g>
   <g id="text_42">
    <g clip-path="url(#p9fae200faf)">
     <!-- PRKCA -->
     <g transform="translate(588.769001 284.490675)scale(0.12 -0.12)">
      <use xlink:href="#DejaVuSans-80"/>
      <use x="60.302734" xlink:href="#DejaVuSans-82"/>
      <use x="129.785156" xlink:href="#DejaVuSans-75"/>
      <use x="189.861328" xlink:href="#DejaVuSans-67"/>
      <use x="259.685547" xlink:href="#DejaVuSans-65"/>
     </g>
    </g>
   </g>
   <g id="text_43">
    <g clip-path="url(#p9fae200faf)">
     <!-- PRKCB -->
     <g transform="translate(572.23926 291.31332)scale(0.12 -0.12)">
      <use xlink:href="#DejaVuSans-80"/>
      <use x="60.302734" xlink:href="#DejaVuSans-82"/>
      <use x="129.785156" xlink:href="#DejaVuSans-75"/>
      <use x="189.861328" xlink:href="#DejaVuSans-67"/>
      <use x="259.685547" xlink:href="#DejaVuSans-66"/>
     </g>
    </g>
   </g>
   <g id="text_44">
    <g clip-path="url(#p9fae200faf)">
     <!-- PRKCG -->
     <g transform="translate(567.325548 278.627662)scale(0.12 -0.12)">
      <use xlink:href="#DejaVuSans-80"/>
      <use x="60.302734" xlink:href="#DejaVuSans-82"/>
      <use x="129.785156" xlink:href="#DejaVuSans-75"/>
      <use x="189.861328" xlink:href="#DejaVuSans-67"/>
      <use x="259.685547" xlink:href="#DejaVuSans-71"/>
     </g>
    </g>
   </g>
   <g id="text_45">
    <g clip-path="url(#p9fae200faf)">
     <!-- ARHGAP35 -->
     <g transform="translate(568.499382 195.811516)scale(0.12 -0.12)">
      <use xlink:href="#DejaVuSans-65"/>
      <use x="68.408203" xlink:href="#DejaVuSans-82"/>
      <use x="137.890625" xlink:href="#DejaVuSans-72"/>
      <use x="213.085938" xlink:href="#DejaVuSans-71"/>
      <use x="290.576172" xlink:href="#DejaVuSans-65"/>
      <use x="358.984375" xlink:href="#DejaVuSans-80"/>
      <use x="419.287109" xlink:href="#DejaVuSans-51"/>
      <use x="482.910156" xlink:href="#DejaVuSans-53"/>
     </g>
    </g>
   </g>
   <g id="text_46">
    <g clip-path="url(#p9fae200faf)">
     <!-- ARHGAP5 -->
     <g transform="translate(579.880318 353.821061)scale(0.12 -0.12)">
      <use xlink:href="#DejaVuSans-65"/>
      <use x="68.408203" xlink:href="#DejaVuSans-82"/>
      <use x="137.890625" xlink:href="#DejaVuSans-72"/>
      <use x="213.085938" xlink:href="#DejaVuSans-71"/>
      <use x="290.576172" xlink:href="#DejaVuSans-65"/>
      <use x="358.984375" xlink:href="#DejaVuSans-80"/>
      <use x="419.287109" xlink:href="#DejaVuSans-53"/>
     </g>
    </g>
   </g>
   <g id="text_47">
    <g clip-path="url(#p9fae200faf)">
     <!-- RAP1A -->
     <g transform="translate(377.842389 308.288945)scale(0.12 -0.12)">
      <use xlink:href="#DejaVuSans-82"/>
      <use x="65.482422" xlink:href="#DejaVuSans-65"/>
      <use x="133.890625" xlink:href="#DejaVuSans-80"/>
      <use x="194.193359" xlink:href="#DejaVuSans-49"/>
      <use x="257.816406" xlink:href="#DejaVuSans-65"/>
     </g>
    </g>
   </g>
   <g id="text_48">
    <g clip-path="url(#p9fae200faf)">
     <!-- RAP1B -->
     <g transform="translate(367.477233 311.77131)scale(0.12 -0.12)">
      <use xlink:href="#DejaVuSans-82"/>
      <use x="65.482422" xlink:href="#DejaVuSans-65"/>
      <use x="133.890625" xlink:href="#DejaVuSans-80"/>
      <use x="194.193359" xlink:href="#DejaVuSans-49"/>
      <use x="257.816406" xlink:href="#DejaVuSans-66"/>
     </g>
    </g>
   </g>
   <g id="text_49">
    <g clip-path="url(#p9fae200faf)">
     <!-- MSN -->
     <g transform="translate(316.307754 351.71908)scale(0.12 -0.12)">
      <use xlink:href="#DejaVuSans-77"/>
      <use x="86.279297" xlink:href="#DejaVuSans-83"/>
      <use x="149.755859" xlink:href="#DejaVuSans-78"/>
     </g>
    </g>
   </g>
   <g id="text_50">
    <g clip-path="url(#p9fae200faf)">
     <!-- EZR -->
     <g transform="translate(620.13398 337.391032)scale(0.12 -0.12)">
      <defs>
       <path d="M 5.609375 72.90625 
L 62.890625 72.90625 
L 62.890625 65.375 
L 16.796875 8.296875 
L 64.015625 8.296875 
L 64.015625 0 
L 4.5 0 
L 4.5 7.515625 
L 50.59375 64.59375 
L 5.609375 64.59375 
z
" id="DejaVuSans-90"/>
      </defs>
      <use xlink:href="#DejaVuSans-69"/>
      <use x="63.183594" xlink:href="#DejaVuSans-90"/>
      <use x="131.689453" xlink:href="#DejaVuSans-82"/>
     </g>
    </g>
   </g>
   <g id="text_51">
    <g clip-path="url(#p9fae200faf)">
     <!-- RAPGEF4 -->
     <g transform="translate(282.604646 312.650094)scale(0.12 -0.12)">
      <use xlink:href="#DejaVuSans-82"/>
      <use x="65.482422" xlink:href="#DejaVuSans-65"/>
      <use x="133.890625" xlink:href="#DejaVuSans-80"/>
      <use x="194.193359" xlink:href="#DejaVuSans-71"/>
      <use x="271.683594" xlink:href="#DejaVuSans-69"/>
      <use x="334.867188" xlink:href="#DejaVuSans-70"/>
      <use x="392.386719" xlink:href="#DejaVuSans-52"/>
     </g>
    </g>
   </g>
   <g id="text_52">
    <g clip-path="url(#p9fae200faf)">
     <!-- RAPGEF3 -->
     <g transform="translate(330.537917 354.446646)scale(0.12 -0.12)">
      <use xlink:href="#DejaVuSans-82"/>
      <use x="65.482422" xlink:href="#DejaVuSans-65"/>
      <use x="133.890625" xlink:href="#DejaVuSans-80"/>
      <use x="194.193359" xlink:href="#DejaVuSans-71"/>
      <use x="271.683594" xlink:href="#DejaVuSans-69"/>
      <use x="334.867188" xlink:href="#DejaVuSans-70"/>
      <use x="392.386719" xlink:href="#DejaVuSans-51"/>
     </g>
    </g>
   </g>
   <g id="text_53">
    <g clip-path="url(#p9fae200faf)">
     <!-- PLCG1 -->
     <g transform="translate(503.138116 267.81615)scale(0.12 -0.12)">
      <use xlink:href="#DejaVuSans-80"/>
      <use x="60.302734" xlink:href="#DejaVuSans-76"/>
      <use x="116.015625" xlink:href="#DejaVuSans-67"/>
      <use x="185.839844" xlink:href="#DejaVuSans-71"/>
      <use x="263.330078" xlink:href="#DejaVuSans-49"/>
     </g>
    </g>
   </g>
   <g id="text_54">
    <g clip-path="url(#p9fae200faf)">
     <!-- PLCG2 -->
     <g transform="translate(668.188792 285.992851)scale(0.12 -0.12)">
      <use xlink:href="#DejaVuSans-80"/>
      <use x="60.302734" xlink:href="#DejaVuSans-76"/>
      <use x="116.015625" xlink:href="#DejaVuSans-67"/>
      <use x="185.839844" xlink:href="#DejaVuSans-71"/>
      <use x="263.330078" xlink:href="#DejaVuSans-50"/>
     </g>
    </g>
   </g>
   <g id="text_55">
    <!-- Frame: 11 -->
    <g transform="translate(121.392 91.296)scale(0.1 -0.1)">
     <defs>
      <path d="M 41.109375 46.296875 
Q 39.59375 47.171875 37.8125 47.578125 
Q 36.03125 48 33.890625 48 
Q 26.265625 48 22.1875 43.046875 
Q 18.109375 38.09375 18.109375 28.8125 
L 18.109375 0 
L 9.078125 0 
L 9.078125 54.6875 
L 18.109375 54.6875 
L 18.109375 46.1875 
Q 20.953125 51.171875 25.484375 53.578125 
Q 30.03125 56 36.53125 56 
Q 37.453125 56 38.578125 55.875 
Q 39.703125 55.765625 41.0625 55.515625 
z
" id="DejaVuSans-114"/>
      <path d="M 34.28125 27.484375 
Q 23.390625 27.484375 19.1875 25 
Q 14.984375 22.515625 14.984375 16.5 
Q 14.984375 11.71875 18.140625 8.90625 
Q 21.296875 6.109375 26.703125 6.109375 
Q 34.1875 6.109375 38.703125 11.40625 
Q 43.21875 16.703125 43.21875 25.484375 
L 43.21875 27.484375 
z
M 52.203125 31.203125 
L 52.203125 0 
L 43.21875 0 
L 43.21875 8.296875 
Q 40.140625 3.328125 35.546875 0.953125 
Q 30.953125 -1.421875 24.3125 -1.421875 
Q 15.921875 -1.421875 10.953125 3.296875 
Q 6 8.015625 6 15.921875 
Q 6 25.140625 12.171875 29.828125 
Q 18.359375 34.515625 30.609375 34.515625 
L 43.21875 34.515625 
L 43.21875 35.40625 
Q 43.21875 41.609375 39.140625 45 
Q 35.0625 48.390625 27.6875 48.390625 
Q 23 48.390625 18.546875 47.265625 
Q 14.109375 46.140625 10.015625 43.890625 
L 10.015625 52.203125 
Q 14.9375 54.109375 19.578125 55.046875 
Q 24.21875 56 28.609375 56 
Q 40.484375 56 46.34375 49.84375 
Q 52.203125 43.703125 52.203125 31.203125 
z
" id="DejaVuSans-97"/>
      <path d="M 52 44.1875 
Q 55.375 50.25 60.0625 53.125 
Q 64.75 56 71.09375 56 
Q 79.640625 56 84.28125 50.015625 
Q 88.921875 44.046875 88.921875 33.015625 
L 88.921875 0 
L 79.890625 0 
L 79.890625 32.71875 
Q 79.890625 40.578125 77.09375 44.375 
Q 74.3125 48.1875 68.609375 48.1875 
Q 61.625 48.1875 57.5625 43.546875 
Q 53.515625 38.921875 53.515625 30.90625 
L 53.515625 0 
L 44.484375 0 
L 44.484375 32.71875 
Q 44.484375 40.625 41.703125 44.40625 
Q 38.921875 48.1875 33.109375 48.1875 
Q 26.21875 48.1875 22.15625 43.53125 
Q 18.109375 38.875 18.109375 30.90625 
L 18.109375 0 
L 9.078125 0 
L 9.078125 54.6875 
L 18.109375 54.6875 
L 18.109375 46.1875 
Q 21.1875 51.21875 25.484375 53.609375 
Q 29.78125 56 35.6875 56 
Q 41.65625 56 45.828125 52.96875 
Q 50 49.953125 52 44.1875 
z
" id="DejaVuSans-109"/>
      <path d="M 56.203125 29.59375 
L 56.203125 25.203125 
L 14.890625 25.203125 
Q 15.484375 15.921875 20.484375 11.0625 
Q 25.484375 6.203125 34.421875 6.203125 
Q 39.59375 6.203125 44.453125 7.46875 
Q 49.3125 8.734375 54.109375 11.28125 
L 54.109375 2.78125 
Q 49.265625 0.734375 44.1875 -0.34375 
Q 39.109375 -1.421875 33.890625 -1.421875 
Q 20.796875 -1.421875 13.15625 6.1875 
Q 5.515625 13.8125 5.515625 26.8125 
Q 5.515625 40.234375 12.765625 48.109375 
Q 20.015625 56 32.328125 56 
Q 43.359375 56 49.78125 48.890625 
Q 56.203125 41.796875 56.203125 29.59375 
z
M 47.21875 32.234375 
Q 47.125 39.59375 43.09375 43.984375 
Q 39.0625 48.390625 32.421875 48.390625 
Q 24.90625 48.390625 20.390625 44.140625 
Q 15.875 39.890625 15.1875 32.171875 
z
" id="DejaVuSans-101"/>
      <path d="M 11.71875 12.40625 
L 22.015625 12.40625 
L 22.015625 0 
L 11.71875 0 
z
M 11.71875 51.703125 
L 22.015625 51.703125 
L 22.015625 39.3125 
L 11.71875 39.3125 
z
" id="DejaVuSans-58"/>
      <path id="DejaVuSans-32"/>
     </defs>
     <use xlink:href="#DejaVuSans-70"/>
     <use x="50.269531" xlink:href="#DejaVuSans-114"/>
     <use x="91.382812" xlink:href="#DejaVuSans-97"/>
     <use x="152.662109" xlink:href="#DejaVuSans-109"/>
     <use x="250.074219" xlink:href="#DejaVuSans-101"/>
     <use x="311.597656" xlink:href="#DejaVuSans-58"/>
     <use x="345.289062" xlink:href="#DejaVuSans-32"/>
     <use x="377.076172" xlink:href="#DejaVuSans-49"/>
     <use x="440.699219" xlink:href="#DejaVuSans-49"/>
    </g>
   </g>
   <g id="text_56">
    <!-- Network: hsa04670 -->
    <g transform="translate(384.1275 63.12)scale(0.12 -0.12)">
     <defs>
      <path d="M 18.3125 70.21875 
L 18.3125 54.6875 
L 36.8125 54.6875 
L 36.8125 47.703125 
L 18.3125 47.703125 
L 18.3125 18.015625 
Q 18.3125 11.328125 20.140625 9.421875 
Q 21.96875 7.515625 27.59375 7.515625 
L 36.8125 7.515625 
L 36.8125 0 
L 27.59375 0 
Q 17.1875 0 13.234375 3.875 
Q 9.28125 7.765625 9.28125 18.015625 
L 9.28125 47.703125 
L 2.6875 47.703125 
L 2.6875 54.6875 
L 9.28125 54.6875 
L 9.28125 70.21875 
z
" id="DejaVuSans-116"/>
      <path d="M 4.203125 54.6875 
L 13.1875 54.6875 
L 24.421875 12.015625 
L 35.59375 54.6875 
L 46.1875 54.6875 
L 57.421875 12.015625 
L 68.609375 54.6875 
L 77.59375 54.6875 
L 63.28125 0 
L 52.6875 0 
L 40.921875 44.828125 
L 29.109375 0 
L 18.5 0 
z
" id="DejaVuSans-119"/>
      <path d="M 30.609375 48.390625 
Q 23.390625 48.390625 19.1875 42.75 
Q 14.984375 37.109375 14.984375 27.296875 
Q 14.984375 17.484375 19.15625 11.84375 
Q 23.34375 6.203125 30.609375 6.203125 
Q 37.796875 6.203125 41.984375 11.859375 
Q 46.1875 17.53125 46.1875 27.296875 
Q 46.1875 37.015625 41.984375 42.703125 
Q 37.796875 48.390625 30.609375 48.390625 
z
M 30.609375 56 
Q 42.328125 56 49.015625 48.375 
Q 55.71875 40.765625 55.71875 27.296875 
Q 55.71875 13.875 49.015625 6.21875 
Q 42.328125 -1.421875 30.609375 -1.421875 
Q 18.84375 -1.421875 12.171875 6.21875 
Q 5.515625 13.875 5.515625 27.296875 
Q 5.515625 40.765625 12.171875 48.375 
Q 18.84375 56 30.609375 56 
z
" id="DejaVuSans-111"/>
      <path d="M 9.078125 75.984375 
L 18.109375 75.984375 
L 18.109375 31.109375 
L 44.921875 54.6875 
L 56.390625 54.6875 
L 27.390625 29.109375 
L 57.625 0 
L 45.90625 0 
L 18.109375 26.703125 
L 18.109375 0 
L 9.078125 0 
z
" id="DejaVuSans-107"/>
      <path d="M 54.890625 33.015625 
L 54.890625 0 
L 45.90625 0 
L 45.90625 32.71875 
Q 45.90625 40.484375 42.875 44.328125 
Q 39.84375 48.1875 33.796875 48.1875 
Q 26.515625 48.1875 22.3125 43.546875 
Q 18.109375 38.921875 18.109375 30.90625 
L 18.109375 0 
L 9.078125 0 
L 9.078125 75.984375 
L 18.109375 75.984375 
L 18.109375 46.1875 
Q 21.34375 51.125 25.703125 53.5625 
Q 30.078125 56 35.796875 56 
Q 45.21875 56 50.046875 50.171875 
Q 54.890625 44.34375 54.890625 33.015625 
z
" id="DejaVuSans-104"/>
      <path d="M 44.28125 53.078125 
L 44.28125 44.578125 
Q 40.484375 46.53125 36.375 47.5 
Q 32.28125 48.484375 27.875 48.484375 
Q 21.1875 48.484375 17.84375 46.4375 
Q 14.5 44.390625 14.5 40.28125 
Q 14.5 37.15625 16.890625 35.375 
Q 19.28125 33.59375 26.515625 31.984375 
L 29.59375 31.296875 
Q 39.15625 29.25 43.1875 25.515625 
Q 47.21875 21.78125 47.21875 15.09375 
Q 47.21875 7.46875 41.1875 3.015625 
Q 35.15625 -1.421875 24.609375 -1.421875 
Q 20.21875 -1.421875 15.453125 -0.5625 
Q 10.6875 0.296875 5.421875 2 
L 5.421875 11.28125 
Q 10.40625 8.6875 15.234375 7.390625 
Q 20.0625 6.109375 24.8125 6.109375 
Q 31.15625 6.109375 34.5625 8.28125 
Q 37.984375 10.453125 37.984375 14.40625 
Q 37.984375 18.0625 35.515625 20.015625 
Q 33.0625 21.96875 24.703125 23.78125 
L 21.578125 24.515625 
Q 13.234375 26.265625 9.515625 29.90625 
Q 5.8125 33.546875 5.8125 39.890625 
Q 5.8125 47.609375 11.28125 51.796875 
Q 16.75 56 26.8125 56 
Q 31.78125 56 36.171875 55.265625 
Q 40.578125 54.546875 44.28125 53.078125 
z
" id="DejaVuSans-115"/>
      <path d="M 33.015625 40.375 
Q 26.375 40.375 22.484375 35.828125 
Q 18.609375 31.296875 18.609375 23.390625 
Q 18.609375 15.53125 22.484375 10.953125 
Q 26.375 6.390625 33.015625 6.390625 
Q 39.65625 6.390625 43.53125 10.953125 
Q 47.40625 15.53125 47.40625 23.390625 
Q 47.40625 31.296875 43.53125 35.828125 
Q 39.65625 40.375 33.015625 40.375 
z
M 52.59375 71.296875 
L 52.59375 62.3125 
Q 48.875 64.0625 45.09375 64.984375 
Q 41.3125 65.921875 37.59375 65.921875 
Q 27.828125 65.921875 22.671875 59.328125 
Q 17.53125 52.734375 16.796875 39.40625 
Q 19.671875 43.65625 24.015625 45.921875 
Q 28.375 48.1875 33.59375 48.1875 
Q 44.578125 48.1875 50.953125 41.515625 
Q 57.328125 34.859375 57.328125 23.390625 
Q 57.328125 12.15625 50.6875 5.359375 
Q 44.046875 -1.421875 33.015625 -1.421875 
Q 20.359375 -1.421875 13.671875 8.265625 
Q 6.984375 17.96875 6.984375 36.375 
Q 6.984375 53.65625 15.1875 63.9375 
Q 23.390625 74.21875 37.203125 74.21875 
Q 40.921875 74.21875 44.703125 73.484375 
Q 48.484375 72.75 52.59375 71.296875 
z
" id="DejaVuSans-54"/>
     </defs>
     <use xlink:href="#DejaVuSans-78"/>
     <use x="74.804688" xlink:href="#DejaVuSans-101"/>
     <use x="136.328125" xlink:href="#DejaVuSans-116"/>
     <use x="175.537109" xlink:href="#DejaVuSans-119"/>
     <use x="257.324219" xlink:href="#DejaVuSans-111"/>
     <use x="318.505859" xlink:href="#DejaVuSans-114"/>
     <use x="359.619141" xlink:href="#DejaVuSans-107"/>
     <use x="417.529297" xlink:href="#DejaVuSans-58"/>
     <use x="451.220703" xlink:href="#DejaVuSans-32"/>
     <use x="483.007812" xlink:href="#DejaVuSans-104"/>
     <use x="546.386719" xlink:href="#DejaVuSans-115"/>
     <use x="598.486328" xlink:href="#DejaVuSans-97"/>
     <use x="659.765625" xlink:href="#DejaVuSans-48"/>
     <use x="723.388672" xlink:href="#DejaVuSans-52"/>
     <use x="787.011719" xlink:href="#DejaVuSans-54"/>
     <use x="850.634766" xlink:href="#DejaVuSans-55"/>
     <use x="914.257812" xlink:href="#DejaVuSans-48"/>
    </g>
   </g>
  </g>
 </g>
 <defs>
  <clipPath id="p9fae200faf">
   <rect height="443.52" width="669.6" x="108" y="69.12"/>
  </clipPath>
 </defs>
</svg>
