<?xml version="1.0" encoding="utf-8" standalone="no"?>
<!DOCTYPE svg PUBLIC "-//W3C//DTD SVG 1.1//EN"
  "http://www.w3.org/Graphics/SVG/1.1/DTD/svg11.dtd">
<!-- Created with matplotlib (https://matplotlib.org/) -->
<svg height="576pt" version="1.1" viewBox="0 0 864 576" width="864pt" xmlns="http://www.w3.org/2000/svg" xmlns:xlink="http://www.w3.org/1999/xlink">
 <metadata>
  <rdf:RDF xmlns:cc="http://creativecommons.org/ns#" xmlns:dc="http://purl.org/dc/elements/1.1/" xmlns:rdf="http://www.w3.org/1999/02/22-rdf-syntax-ns#">
   <cc:Work>
    <dc:type rdf:resource="http://purl.org/dc/dcmitype/StillImage"/>
    <dc:date>2024-03-20T12:55:33.856010</dc:date>
    <dc:format>image/svg+xml</dc:format>
    <dc:creator>
     <cc:Agent>
      <dc:title>Matplotlib v3.3.1, https://matplotlib.org/</dc:title>
     </cc:Agent>
    </dc:creator>
   </cc:Work>
  </rdf:RDF>
 </metadata>
 <defs>
  <style type="text/css">*{stroke-linecap:butt;stroke-linejoin:round;}</style>
 </defs>
 <g id="figure_1">
  <g id="patch_1">
   <path d="M 0 576 
L 864 576 
L 864 0 
L 0 0 
z
" style="fill:#ffffff;"/>
  </g>
  <g id="axes_1">
   <g id="patch_2">
    <path clip-path="url(#p2df77d2715)" d="M 315.420371 346.613651 
Q 311.03612 392.928574 306.757233 438.130438 
" style="fill:none;stroke:#000000;stroke-linecap:round;"/>
    <path clip-path="url(#p2df77d2715)" d="M 309.125293 434.336721 
L 306.757233 438.130438 
L 305.143095 433.959759 
L 309.125293 434.336721 
z
" style="stroke:#000000;stroke-linecap:round;"/>
   </g>
   <g id="patch_3">
    <path clip-path="url(#p2df77d2715)" d="M 311.910514 330.487585 
Q 274.48182 265.551201 237.611445 201.583464 
" style="fill:none;stroke:#000000;stroke-linecap:round;"/>
    <path clip-path="url(#p2df77d2715)" d="M 237.876178 206.047758 
L 237.611445 201.583464 
L 241.341719 204.050254 
L 237.876178 206.047758 
z
" style="stroke:#000000;stroke-linecap:round;"/>
   </g>
   <g id="patch_4">
    <path clip-path="url(#p2df77d2715)" d="M 290.647489 149.290289 
Q 265.140764 168.590576 240.525601 187.21624 
" style="fill:none;stroke:#000000;stroke-linecap:round;"/>
    <path clip-path="url(#p2df77d2715)" d="M 244.922155 186.397513 
L 240.525601 187.21624 
L 242.508551 183.207761 
L 244.922155 186.397513 
z
" style="stroke:#000000;stroke-linecap:round;"/>
   </g>
   <g id="patch_5">
    <path clip-path="url(#p2df77d2715)" d="M 572.090446 290.086779 
Q 585.450106 356.709365 598.589945 422.23574 
" style="fill:none;stroke:#000000;stroke-linecap:round;"/>
    <path clip-path="url(#p2df77d2715)" d="M 599.764454 417.920589 
L 598.589945 422.23574 
L 595.84253 418.707043 
L 599.764454 417.920589 
z
" style="stroke:#000000;stroke-linecap:round;"/>
   </g>
   <g id="patch_6">
    <path clip-path="url(#p2df77d2715)" d="M 571.07268 223.039022 
Q 570.780489 247.985578 570.501392 271.814177 
" style="fill:none;stroke:#000000;stroke-linecap:round;"/>
    <path clip-path="url(#p2df77d2715)" d="M 572.548102 267.837875 
L 570.501392 271.814177 
L 568.548377 267.791028 
L 572.548102 267.837875 
z
" style="stroke:#000000;stroke-linecap:round;"/>
   </g>
   <g id="patch_7">
    <path clip-path="url(#p2df77d2715)" d="M 564.295191 219.642796 
Q 522.740996 251.4401 482.074708 282.557976 
" style="fill:none;stroke:#000000;stroke-linecap:round;"/>
    <path clip-path="url(#p2df77d2715)" d="M 486.466776 281.71552 
L 482.074708 282.557976 
L 484.035984 278.538848 
L 486.466776 281.71552 
z
" style="stroke:#000000;stroke-linecap:round;"/>
   </g>
   <g id="patch_8">
    <path clip-path="url(#p2df77d2715)" d="M 480.032763 295.003091 
Q 537.411159 360.163431 594.05068 424.484685 
" style="fill:none;stroke:#000000;stroke-linecap:round;"/>
    <path clip-path="url(#p2df77d2715)" d="M 592.908201 420.160944 
L 594.05068 424.484685 
L 589.9062 422.804424 
L 592.908201 420.160944 
z
" style="stroke:#000000;stroke-linecap:round;"/>
   </g>
   <g id="patch_9">
    <path clip-path="url(#p2df77d2715)" d="M 543.589941 342.731419 
Q 603.654462 365.040714 662.670908 386.960731 
" style="fill:none;stroke:#000000;stroke-linecap:round;"/>
    <path clip-path="url(#p2df77d2715)" d="M 659.617561 383.693152 
L 662.670908 386.960731 
L 658.224836 387.442861 
L 659.617561 383.693152 
z
" style="stroke:#000000;stroke-linecap:round;"/>
   </g>
   <g id="patch_10">
    <path clip-path="url(#p2df77d2715)" d="M 530.032222 346.454356 
Q 481.223884 406.933572 433.117698 466.54274 
" style="fill:none;stroke:#000000;stroke-linecap:round;"/>
    <path clip-path="url(#p2df77d2715)" d="M 437.186181 464.68601 
L 433.117698 466.54274 
L 434.073404 462.173916 
L 437.186181 464.68601 
z
" style="stroke:#000000;stroke-linecap:round;"/>
   </g>
   <g id="patch_11">
    <path clip-path="url(#p2df77d2715)" d="M 501.470235 226.404496 
Q 366.960529 196.653865 233.542475 167.144684 
" style="fill:none;stroke:#000000;stroke-linecap:round;"/>
    <path clip-path="url(#p2df77d2715)" d="M 237.016166 169.961325 
L 233.542475 167.144684 
L 237.880002 166.055715 
L 237.016166 169.961325 
z
" style="stroke:#000000;stroke-linecap:round;"/>
   </g>
   <g id="patch_12">
    <path clip-path="url(#p2df77d2715)" d="M 518.587867 228.361663 
Q 606.259896 229.232781 692.813945 230.092791 
" style="fill:none;stroke:#000000;stroke-linecap:round;"/>
    <path clip-path="url(#p2df77d2715)" d="M 688.834014 228.053147 
L 692.813945 230.092791 
L 688.794271 232.05295 
L 688.834014 228.053147 
z
" style="stroke:#000000;stroke-linecap:round;"/>
   </g>
   <g id="patch_13">
    <path clip-path="url(#p2df77d2715)" d="M 518.100227 231.143417 
Q 614.71163 265.054846 710.268099 298.595984 
" style="fill:none;stroke:#000000;stroke-linecap:round;"/>
    <path clip-path="url(#p2df77d2715)" d="M 707.15625 295.38407 
L 710.268099 298.595984 
L 705.831458 299.158315 
L 707.15625 295.38407 
z
" style="stroke:#000000;stroke-linecap:round;"/>
   </g>
   <g id="patch_14">
    <path clip-path="url(#p2df77d2715)" d="M 506.860373 236.37448 
Q 496.728952 263.103984 486.993796 288.788033 
" style="fill:none;stroke:#000000;stroke-linecap:round;"/>
    <path clip-path="url(#p2df77d2715)" d="M 490.281678 285.75656 
L 486.993796 288.788033 
L 486.541347 284.338843 
L 490.281678 285.75656 
z
" style="stroke:#000000;stroke-linecap:round;"/>
   </g>
   <g id="patch_15">
    <path clip-path="url(#p2df77d2715)" d="M 507.578503 236.610107 
Q 500.974521 260.015582 494.674145 282.345034 
" style="fill:none;stroke:#000000;stroke-linecap:round;"/>
    <path clip-path="url(#p2df77d2715)" d="M 497.685204 279.038446 
L 494.674145 282.345034 
L 493.83551 277.952234 
L 497.685204 279.038446 
z
" style="stroke:#000000;stroke-linecap:round;"/>
   </g>
   <g id="patch_16">
    <path clip-path="url(#p2df77d2715)" d="M 375.481636 342.684525 
Q 468.801858 313.43323 561.055227 284.516341 
" style="fill:none;stroke:#000000;stroke-linecap:round;"/>
    <path clip-path="url(#p2df77d2715)" d="M 556.640139 283.804304 
L 561.055227 284.516341 
L 557.836545 287.621189 
L 556.640139 283.804304 
z
" style="stroke:#000000;stroke-linecap:round;"/>
   </g>
   <g id="patch_17">
    <path clip-path="url(#p2df77d2715)" d="M 358.703097 346.85492 
Q 279.705428 361.517175 201.80702 375.975404 
" style="fill:none;stroke:#000000;stroke-linecap:round;"/>
    <path clip-path="url(#p2df77d2715)" d="M 206.104827 377.211872 
L 201.80702 375.975404 
L 205.374879 373.279039 
L 206.104827 377.211872 
z
" style="stroke:#000000;stroke-linecap:round;"/>
   </g>
   <g id="patch_18">
    <path clip-path="url(#p2df77d2715)" d="M 321.964174 266.708251 
Q 282.105622 337.638087 242.794786 407.593239 
" style="fill:none;stroke:#000000;stroke-linecap:round;"/>
    <path clip-path="url(#p2df77d2715)" d="M 246.497922 405.085893 
L 242.794786 407.593239 
L 243.010791 403.126323 
L 246.497922 405.085893 
z
" style="stroke:#000000;stroke-linecap:round;"/>
   </g>
   <g id="patch_19">
    <path clip-path="url(#p2df77d2715)" d="M 331.313032 252.16158 
Q 381.511239 183.381602 431.050337 115.504714 
" style="fill:none;stroke:#000000;stroke-linecap:round;"/>
    <path clip-path="url(#p2df77d2715)" d="M 427.076734 117.55666 
L 431.050337 115.504714 
L 430.307732 119.914764 
L 427.076734 117.55666 
z
" style="stroke:#000000;stroke-linecap:round;"/>
   </g>
   <g id="patch_20">
    <path clip-path="url(#p2df77d2715)" d="M 299.367962 271.959899 
Q 270.382312 340.054526 241.834552 407.120439 
" style="fill:none;stroke:#000000;stroke-linecap:round;"/>
    <path clip-path="url(#p2df77d2715)" d="M 245.241414 404.223321 
L 241.834552 407.120439 
L 241.560975 402.656679 
L 245.241414 404.223321 
z
" style="stroke:#000000;stroke-linecap:round;"/>
   </g>
   <g id="patch_21">
    <path clip-path="url(#p2df77d2715)" d="M 308.395399 257.417003 
Q 369.78603 185.800426 430.449019 115.032696 
" style="fill:none;stroke:#000000;stroke-linecap:round;"/>
    <path clip-path="url(#p2df77d2715)" d="M 426.327271 116.767974 
L 430.449019 115.032696 
L 429.364193 119.371261 
L 426.327271 116.767974 
z
" style="stroke:#000000;stroke-linecap:round;"/>
   </g>
   <g id="patch_22">
    <path clip-path="url(#p2df77d2715)" d="M 303.503278 255.175909 
Q 272.386847 331.634624 241.691859 407.057779 
" style="fill:none;stroke:#000000;stroke-linecap:round;"/>
    <path clip-path="url(#p2df77d2715)" d="M 245.052125 404.106744 
L 241.691859 407.057779 
L 241.34719 402.598945 
L 245.052125 404.106744 
z
" style="stroke:#000000;stroke-linecap:round;"/>
   </g>
   <g id="patch_23">
    <path clip-path="url(#p2df77d2715)" d="M 312.670881 240.820546 
Q 371.790303 177.381831 430.147491 114.761039 
" style="fill:none;stroke:#000000;stroke-linecap:round;"/>
    <path clip-path="url(#p2df77d2715)" d="M 425.957293 116.323805 
L 430.147491 114.761039 
L 428.883585 119.050857 
L 425.957293 116.323805 
z
" style="stroke:#000000;stroke-linecap:round;"/>
   </g>
   <g id="patch_24">
    <path clip-path="url(#p2df77d2715)" d="M 266.171756 231.285348 
Q 292.263416 243.398294 317.340994 255.040458 
" style="fill:none;stroke:#000000;stroke-linecap:round;"/>
    <path clip-path="url(#p2df77d2715)" d="M 314.555066 251.542086 
L 317.340994 255.040458 
L 312.87074 255.170177 
L 314.555066 251.542086 
z
" style="stroke:#000000;stroke-linecap:round;"/>
   </g>
   <g id="patch_25">
    <path clip-path="url(#p2df77d2715)" d="M 265.022119 233.122453 
Q 280.538566 245.814492 295.189615 257.798657 
" style="fill:none;stroke:#000000;stroke-linecap:round;"/>
    <path clip-path="url(#p2df77d2715)" d="M 293.359751 253.71802 
L 295.189615 257.798657 
L 290.827187 256.814166 
L 293.359751 253.71802 
z
" style="stroke:#000000;stroke-linecap:round;"/>
   </g>
   <g id="patch_26">
    <path clip-path="url(#p2df77d2715)" d="M 266.353929 230.876336 
Q 282.543746 237.397765 297.696502 243.501454 
" style="fill:none;stroke:#000000;stroke-linecap:round;"/>
    <path clip-path="url(#p2df77d2715)" d="M 294.733476 240.151756 
L 297.696502 243.501454 
L 293.238928 243.862056 
L 294.733476 240.151756 
z
" style="stroke:#000000;stroke-linecap:round;"/>
   </g>
   <g id="patch_27">
    <path clip-path="url(#p2df77d2715)" d="M 264.471199 233.738707 
Q 270.689275 239.90337 276.113379 245.280882 
" style="fill:none;stroke:#000000;stroke-linecap:round;"/>
    <path clip-path="url(#p2df77d2715)" d="M 274.680878 241.044381 
L 276.113379 245.280882 
L 271.864678 243.884982 
L 274.680878 241.044381 
z
" style="stroke:#000000;stroke-linecap:round;"/>
   </g>
   <g id="patch_28">
    <path clip-path="url(#p2df77d2715)" d="M 280.763074 260.51944 
Q 260.531821 334.141614 240.596819 406.685719 
" style="fill:none;stroke:#000000;stroke-linecap:round;"/>
    <path clip-path="url(#p2df77d2715)" d="M 243.585232 403.35865 
L 240.596819 406.685719 
L 239.728212 402.298747 
L 243.585232 403.35865 
z
" style="stroke:#000000;stroke-linecap:round;"/>
   </g>
   <g id="patch_29">
    <path clip-path="url(#p2df77d2715)" d="M 289.367225 246.234951 
Q 359.935274 179.887807 429.688768 114.306496 
" style="fill:none;stroke:#000000;stroke-linecap:round;"/>
    <path clip-path="url(#p2df77d2715)" d="M 425.404564 115.589305 
L 429.688768 114.306496 
L 428.144493 118.503545 
L 425.404564 115.589305 
z
" style="stroke:#000000;stroke-linecap:round;"/>
   </g>
   <g id="patch_30">
    <path clip-path="url(#p2df77d2715)" d="M 456.360252 378.11787 
Q 559.77825 383.996482 662.080015 389.811643 
" style="fill:none;stroke:#000000;stroke-linecap:round;"/>
    <path clip-path="url(#p2df77d2715)" d="M 658.199965 387.58786 
L 662.080015 389.811643 
L 657.972958 391.581413 
L 658.199965 387.58786 
z
" style="stroke:#000000;stroke-linecap:round;"/>
   </g>
   <g id="patch_31">
    <path clip-path="url(#p2df77d2715)" d="M 445.891981 386.095277 
Q 437.343586 425.890161 429.030001 464.591946 
" style="fill:none;stroke:#000000;stroke-linecap:round;"/>
    <path clip-path="url(#p2df77d2715)" d="M 431.825477 461.101199 
L 429.030001 464.591946 
L 427.914689 460.261117 
L 431.825477 461.101199 
z
" style="stroke:#000000;stroke-linecap:round;"/>
   </g>
   <g id="patch_32">
    <path clip-path="url(#p2df77d2715)" d="M 450.187589 369.327897 
Q 461.009114 333.064754 471.510931 297.872959 
" style="fill:none;stroke:#000000;stroke-linecap:round;"/>
    <path clip-path="url(#p2df77d2715)" d="M 468.450622 301.13402 
L 471.510931 297.872959 
L 472.283594 302.277842 
L 468.450622 301.13402 
z
" style="stroke:#000000;stroke-linecap:round;"/>
   </g>
   <g id="patch_33">
    <path clip-path="url(#p2df77d2715)" d="M 454.528622 372.289331 
Q 509.047553 329.609953 562.686124 287.619753 
" style="fill:none;stroke:#000000;stroke-linecap:round;"/>
    <path clip-path="url(#p2df77d2715)" d="M 558.303613 288.510594 
L 562.686124 287.619753 
L 560.76929 291.660267 
L 558.303613 288.510594 
z
" style="stroke:#000000;stroke-linecap:round;"/>
   </g>
   <g id="patch_34">
    <path clip-path="url(#p2df77d2715)" d="M 439.0518 377.630753 
Q 319.95267 377.692945 201.971573 377.754552 
" style="fill:none;stroke:#000000;stroke-linecap:round;"/>
    <path clip-path="url(#p2df77d2715)" d="M 205.972617 379.752463 
L 201.971573 377.754552 
L 205.970529 375.752464 
L 205.972617 379.752463 
z
" style="stroke:#000000;stroke-linecap:round;"/>
   </g>
   <g id="patch_35">
    <path clip-path="url(#p2df77d2715)" d="M 506.700179 428.011813 
Q 477.810674 436.051238 449.998275 443.790924 
" style="fill:none;stroke:#000000;stroke-linecap:round;"/>
    <path clip-path="url(#p2df77d2715)" d="M 454.388034 444.645331 
L 449.998275 443.790924 
L 453.315655 440.79176 
L 454.388034 444.645331 
z
" style="stroke:#000000;stroke-linecap:round;"/>
   </g>
   <g id="patch_36">
    <path clip-path="url(#p2df77d2715)" d="M 449.20371 445.62531 
Q 520.547555 439.117258 590.777988 432.710773 
" style="fill:none;stroke:#000000;stroke-linecap:round;"/>
    <path clip-path="url(#p2df77d2715)" d="M 586.61284 431.082417 
L 590.777988 432.710773 
L 586.976215 435.065878 
L 586.61284 431.082417 
z
" style="stroke:#000000;stroke-linecap:round;"/>
   </g>
   <g id="patch_37">
    <path clip-path="url(#p2df77d2715)" d="M 354.259142 279.973111 
Q 276.934602 326.628974 200.567339 372.707238 
" style="fill:none;stroke:#000000;stroke-linecap:round;"/>
    <path clip-path="url(#p2df77d2715)" d="M 205.025438 372.353186 
L 200.567339 372.707238 
L 202.958957 368.928327 
L 205.025438 372.353186 
z
" style="stroke:#000000;stroke-linecap:round;"/>
   </g>
   <g id="patch_38">
    <path clip-path="url(#p2df77d2715)" d="M 370.332598 275.752283 
Q 466.032696 278.545511 560.615236 281.306121 
" style="fill:none;stroke:#000000;stroke-linecap:round;"/>
    <path clip-path="url(#p2df77d2715)" d="M 556.675288 279.190273 
L 560.615236 281.306121 
L 556.558589 283.18857 
L 556.675288 279.190273 
z
" style="stroke:#000000;stroke-linecap:round;"/>
   </g>
   <g id="patch_39">
    <path clip-path="url(#p2df77d2715)" d="M 359.149167 267.211105 
Q 350.829362 239.892157 342.835277 213.642745 
" style="fill:none;stroke:#000000;stroke-linecap:round;"/>
    <path clip-path="url(#p2df77d2715)" d="M 342.087365 218.051897 
L 342.835277 213.642745 
L 345.913852 216.886566 
L 342.087365 218.051897 
z
" style="stroke:#000000;stroke-linecap:round;"/>
   </g>
   <g id="patch_40">
    <path clip-path="url(#p2df77d2715)" d="M 364.667615 267.373448 
Q 381.575441 221.487421 398.096708 176.650476 
" style="fill:none;stroke:#000000;stroke-linecap:round;"/>
    <path clip-path="url(#p2df77d2715)" d="M 394.837057 179.712285 
L 398.096708 176.650476 
L 398.590364 181.095283 
L 394.837057 179.712285 
z
" style="stroke:#000000;stroke-linecap:round;"/>
   </g>
   <g id="patch_41">
    <path clip-path="url(#p2df77d2715)" d="M 439.391051 316.082542 
Q 386.666208 289.564496 334.940184 263.548807 
" style="fill:none;stroke:#000000;stroke-linecap:round;"/>
    <path clip-path="url(#p2df77d2715)" d="M 337.61502 267.132835 
L 334.940184 263.548807 
L 339.412307 263.559355 
L 337.61502 267.132835 
z
" style="stroke:#000000;stroke-linecap:round;"/>
   </g>
   <g id="patch_42">
    <path clip-path="url(#p2df77d2715)" d="M 439.053644 316.842953 
Q 374.94349 291.982337 311.875739 267.525943 
" style="fill:none;stroke:#000000;stroke-linecap:round;"/>
    <path clip-path="url(#p2df77d2715)" d="M 314.882057 270.836841 
L 311.875739 267.525943 
L 316.328249 267.107427 
L 314.882057 270.836841 
z
" style="stroke:#000000;stroke-linecap:round;"/>
   </g>
   <g id="patch_43">
    <path clip-path="url(#p2df77d2715)" d="M 439.440585 315.985629 
Q 376.948399 283.56493 315.448641 251.659098 
" style="fill:none;stroke:#000000;stroke-linecap:round;"/>
    <path clip-path="url(#p2df77d2715)" d="M 318.078233 255.276451 
L 315.448641 251.659098 
L 319.920278 251.725835 
L 318.078233 255.276451 
z
" style="stroke:#000000;stroke-linecap:round;"/>
   </g>
   <g id="patch_44">
    <path clip-path="url(#p2df77d2715)" d="M 439.125718 316.666754 
Q 365.094043 286.070491 292.095635 255.901263 
" style="fill:none;stroke:#000000;stroke-linecap:round;"/>
    <path clip-path="url(#p2df77d2715)" d="M 295.028461 259.277434 
L 292.095635 255.901263 
L 296.556268 255.580705 
L 295.028461 259.277434 
z
" style="stroke:#000000;stroke-linecap:round;"/>
   </g>
   <g id="patch_45">
    <path clip-path="url(#p2df77d2715)" d="M 455.396359 322.564242 
Q 559.485038 355.170569 662.506805 387.442681 
" style="fill:none;stroke:#000000;stroke-linecap:round;"/>
    <path clip-path="url(#p2df77d2715)" d="M 659.28757 384.338406 
L 662.506805 387.442681 
L 658.091844 388.155504 
L 659.28757 384.338406 
z
" style="stroke:#000000;stroke-linecap:round;"/>
   </g>
   <g id="patch_46">
    <path clip-path="url(#p2df77d2715)" d="M 446.007059 328.561487 
Q 437.052966 397.062858 428.243783 464.455627 
" style="fill:none;stroke:#000000;stroke-linecap:round;"/>
    <path clip-path="url(#p2df77d2715)" d="M 430.745359 460.748591 
L 428.243783 464.455627 
L 426.7791 460.230145 
L 430.745359 460.748591 
z
" style="stroke:#000000;stroke-linecap:round;"/>
   </g>
   <g id="patch_47">
    <path clip-path="url(#p2df77d2715)" d="M 453.777118 325.525034 
Q 466.795456 336.394681 478.955578 346.547762 
" style="fill:none;stroke:#000000;stroke-linecap:round;"/>
    <path clip-path="url(#p2df77d2715)" d="M 477.166966 342.448876 
L 478.955578 346.547762 
L 474.603302 345.51932 
L 477.166966 342.448876 
z
" style="stroke:#000000;stroke-linecap:round;"/>
   </g>
   <g id="patch_48">
    <path clip-path="url(#p2df77d2715)" d="M 455.381411 317.337498 
Q 562.538167 283.092961 668.629949 249.188761 
" style="fill:none;stroke:#000000;stroke-linecap:round;"/>
    <path clip-path="url(#p2df77d2715)" d="M 664.210967 248.501309 
L 668.629949 249.188761 
L 665.428598 252.311476 
L 664.210967 248.501309 
z
" style="stroke:#000000;stroke-linecap:round;"/>
   </g>
   <g id="patch_49">
    <path clip-path="url(#p2df77d2715)" d="M 532.299352 252.324903 
Q 506.975726 268.122315 482.600693 283.327973 
" style="fill:none;stroke:#000000;stroke-linecap:round;"/>
    <path clip-path="url(#p2df77d2715)" d="M 487.053042 282.907751 
L 482.600693 283.327973 
L 484.935924 279.51396 
L 487.053042 282.907751 
z
" style="stroke:#000000;stroke-linecap:round;"/>
   </g>
   <g id="patch_50">
    <path clip-path="url(#p2df77d2715)" d="M 545.470937 254.150939 
Q 555.016673 264.663837 563.810832 274.349009 
" style="fill:none;stroke:#000000;stroke-linecap:round;"/>
    <path clip-path="url(#p2df77d2715)" d="M 562.602588 270.043182 
L 563.810832 274.349009 
L 559.641224 272.732108 
L 562.602588 270.043182 
z
" style="stroke:#000000;stroke-linecap:round;"/>
   </g>
   <g id="patch_51">
    <path clip-path="url(#p2df77d2715)" d="M 532.404695 242.994868 
Q 524.79017 238.007902 518.110942 233.633489 
" style="fill:none;stroke:#000000;stroke-linecap:round;"/>
    <path clip-path="url(#p2df77d2715)" d="M 520.361395 237.498131 
L 518.110942 233.633489 
L 522.552928 234.151912 
L 520.361395 237.498131 
z
" style="stroke:#000000;stroke-linecap:round;"/>
   </g>
   <g id="patch_52">
    <path clip-path="url(#p2df77d2715)" d="M 536.877061 255.942428 
Q 534.626993 262.599565 532.734917 268.197532 
" style="fill:none;stroke:#000000;stroke-linecap:round;"/>
    <path clip-path="url(#p2df77d2715)" d="M 535.910411 265.048527 
L 532.734917 268.197532 
L 532.121009 263.767734 
L 535.910411 265.048527 
z
" style="stroke:#000000;stroke-linecap:round;"/>
   </g>
   <g id="patch_53">
    <path clip-path="url(#p2df77d2715)" d="M 530.997282 247.439942 
Q 487.591663 245.9361 445.303409 244.470969 
" style="fill:none;stroke:#000000;stroke-linecap:round;"/>
    <path clip-path="url(#p2df77d2715)" d="M 449.231759 246.608272 
L 445.303409 244.470969 
L 449.370261 242.610671 
L 449.231759 246.608272 
z
" style="stroke:#000000;stroke-linecap:round;"/>
   </g>
   <g id="patch_54">
    <path clip-path="url(#p2df77d2715)" d="M 632.494374 292.276139 
Q 656.242902 256.238146 679.37623 221.133709 
" style="fill:none;stroke:#000000;stroke-linecap:round;"/>
    <path clip-path="url(#p2df77d2715)" d="M 675.505224 223.373199 
L 679.37623 221.133709 
L 678.845218 225.574207 
L 675.505224 223.373199 
z
" style="stroke:#000000;stroke-linecap:round;"/>
   </g>
   <g id="patch_55">
    <path clip-path="url(#p2df77d2715)" d="M 679.988514 220.204579 
Q 656.239985 256.242573 633.106657 291.34701 
" style="fill:none;stroke:#000000;stroke-linecap:round;"/>
    <path clip-path="url(#p2df77d2715)" d="M 636.977663 289.10752 
L 633.106657 291.34701 
L 633.637669 286.906511 
L 636.977663 289.10752 
z
" style="stroke:#000000;stroke-linecap:round;"/>
   </g>
   <g id="patch_56">
    <path clip-path="url(#p2df77d2715)" d="M 479.298688 290.372162 
Q 433.830272 209.133744 388.907902 128.870946 
" style="fill:none;stroke:#000000;stroke-linecap:round;"/>
    <path clip-path="url(#p2df77d2715)" d="M 389.116253 133.338226 
L 388.907902 128.870946 
L 392.606736 131.384633 
L 389.116253 133.338226 
z
" style="stroke:#000000;stroke-linecap:round;"/>
   </g>
   <g id="patch_57">
    <path clip-path="url(#p2df77d2715)" d="M 490.727192 302.743214 
Q 573.455505 358.059722 655.254411 412.75478 
" style="fill:none;stroke:#000000;stroke-linecap:round;"/>
    <path clip-path="url(#p2df77d2715)" d="M 653.040946 408.868834 
L 655.254411 412.75478 
L 650.817576 412.193984 
L 653.040946 408.868834 
z
" style="stroke:#000000;stroke-linecap:round;"/>
   </g>
   <g id="patch_58">
    <path clip-path="url(#p2df77d2715)" d="M 492.033692 299.580405 
Q 598.360632 320.214267 703.590014 340.635135 
" style="fill:none;stroke:#000000;stroke-linecap:round;"/>
    <path clip-path="url(#p2df77d2715)" d="M 700.044283 337.909738 
L 703.590014 340.635135 
L 699.282257 341.836481 
L 700.044283 337.909738 
z
" style="stroke:#000000;stroke-linecap:round;"/>
   </g>
   <g id="patch_59">
    <path clip-path="url(#p2df77d2715)" d="M 474.892757 298.639862 
Q 324.812847 310.977572 175.847211 323.223681 
" style="fill:none;stroke:#000000;stroke-linecap:round;"/>
    <path clip-path="url(#p2df77d2715)" d="M 179.997625 324.889232 
L 175.847211 323.223681 
L 179.6699 320.90268 
L 179.997625 324.889232 
z
" style="stroke:#000000;stroke-linecap:round;"/>
   </g>
   <g id="patch_60">
    <path clip-path="url(#p2df77d2715)" d="M 485.826274 289.579258 
Q 509.02353 205.267576 531.924195 122.033871 
" style="fill:none;stroke:#000000;stroke-linecap:round;"/>
    <path clip-path="url(#p2df77d2715)" d="M 528.934735 125.359999 
L 531.924195 122.033871 
L 532.791422 126.421116 
L 528.934735 125.359999 
z
" style="stroke:#000000;stroke-linecap:round;"/>
   </g>
   <g id="patch_61">
    <path clip-path="url(#p2df77d2715)" d="M 486.406466 306.100115 
Q 513.043896 381.725749 539.309892 456.296851 
" style="fill:none;stroke:#000000;stroke-linecap:round;"/>
    <path clip-path="url(#p2df77d2715)" d="M 539.867409 451.859603 
L 539.309892 456.296851 
L 536.094603 453.188489 
L 539.867409 451.859603 
z
" style="stroke:#000000;stroke-linecap:round;"/>
   </g>
   <g id="patch_62">
    <path clip-path="url(#p2df77d2715)" d="M 487.40371 284.426887 
Q 438.073943 206.046503 389.3397 128.612349 
" style="fill:none;stroke:#000000;stroke-linecap:round;"/>
    <path clip-path="url(#p2df77d2715)" d="M 389.777639 133.062991 
L 389.3397 128.612349 
L 393.162977 130.932382 
L 389.777639 133.062991 
z
" style="stroke:#000000;stroke-linecap:round;"/>
   </g>
   <g id="patch_63">
    <path clip-path="url(#p2df77d2715)" d="M 498.986587 296.899952 
Q 577.699725 354.973686 655.513191 412.38365 
" style="fill:none;stroke:#000000;stroke-linecap:round;"/>
    <path clip-path="url(#p2df77d2715)" d="M 653.48181 408.399495 
L 655.513191 412.38365 
L 651.107038 411.618261 
L 653.48181 408.399495 
z
" style="stroke:#000000;stroke-linecap:round;"/>
   </g>
   <g id="patch_64">
    <path clip-path="url(#p2df77d2715)" d="M 500.458388 293.694953 
Q 602.601804 317.1279 703.655494 340.31085 
" style="fill:none;stroke:#000000;stroke-linecap:round;"/>
    <path clip-path="url(#p2df77d2715)" d="M 700.20398 337.467076 
L 703.655494 340.31085 
L 699.309566 341.365796 
L 700.20398 337.467076 
z
" style="stroke:#000000;stroke-linecap:round;"/>
   </g>
   <g id="patch_65">
    <path clip-path="url(#p2df77d2715)" d="M 483.399792 292.611858 
Q 329.064164 307.891345 175.841131 323.060684 
" style="fill:none;stroke:#000000;stroke-linecap:round;"/>
    <path clip-path="url(#p2df77d2715)" d="M 180.018712 324.656874 
L 175.841131 323.060684 
L 179.624631 320.676334 
L 180.018712 324.656874 
z
" style="stroke:#000000;stroke-linecap:round;"/>
   </g>
   <g id="patch_66">
    <path clip-path="url(#p2df77d2715)" d="M 494.017405 283.330666 
Q 513.26851 202.180789 532.261546 122.118755 
" style="fill:none;stroke:#000000;stroke-linecap:round;"/>
    <path clip-path="url(#p2df77d2715)" d="M 529.392263 125.549092 
L 532.261546 122.118755 
L 533.284247 126.472384 
L 529.392263 125.549092 
z
" style="stroke:#000000;stroke-linecap:round;"/>
   </g>
   <g id="patch_67">
    <path clip-path="url(#p2df77d2715)" d="M 494.437214 300.075912 
Q 517.287715 378.637614 539.825964 456.12577 
" style="fill:none;stroke:#000000;stroke-linecap:round;"/>
    <path clip-path="url(#p2df77d2715)" d="M 540.629233 451.726366 
L 539.825964 456.12577 
L 536.788402 452.843512 
L 540.629233 451.726366 
z
" style="stroke:#000000;stroke-linecap:round;"/>
   </g>
   <g id="patch_68">
    <path clip-path="url(#p2df77d2715)" d="M 501.61891 209.947884 
Q 367.08373 188.182367 233.652234 166.595407 
" style="fill:none;stroke:#000000;stroke-linecap:round;"/>
    <path clip-path="url(#p2df77d2715)" d="M 237.281479 169.208562 
L 233.652234 166.595407 
L 237.920305 165.259904 
L 237.281479 169.208562 
z
" style="stroke:#000000;stroke-linecap:round;"/>
   </g>
   <g id="patch_69">
    <path clip-path="url(#p2df77d2715)" d="M 518.782183 212.175005 
Q 606.378455 220.760121 692.862025 229.236184 
" style="fill:none;stroke:#000000;stroke-linecap:round;"/>
    <path clip-path="url(#p2df77d2715)" d="M 689.07618 226.855559 
L 692.862025 229.236184 
L 688.686018 230.836486 
L 689.07618 226.855559 
z
" style="stroke:#000000;stroke-linecap:round;"/>
   </g>
   <g id="patch_70">
    <path clip-path="url(#p2df77d2715)" d="M 518.114487 214.767652 
Q 614.82967 256.582583 710.518628 297.953824 
" style="fill:none;stroke:#000000;stroke-linecap:round;"/>
    <path clip-path="url(#p2df77d2715)" d="M 707.640788 294.530662 
L 710.518628 297.953824 
L 706.053394 298.202199 
L 707.640788 294.530662 
z
" style="stroke:#000000;stroke-linecap:round;"/>
   </g>
   <g id="patch_71">
    <path clip-path="url(#p2df77d2715)" d="M 515.178166 198.924596 
Q 373.890055 182.47972 233.71248 166.164102 
" style="fill:none;stroke:#000000;stroke-linecap:round;"/>
    <path clip-path="url(#p2df77d2715)" d="M 237.454434 168.613139 
L 233.71248 166.164102 
L 237.916882 164.639961 
L 237.454434 168.613139 
z
" style="stroke:#000000;stroke-linecap:round;"/>
   </g>
   <g id="patch_72">
    <path clip-path="url(#p2df77d2715)" d="M 532.319877 201.371027 
Q 613.186691 215.05778 692.951148 228.557957 
" style="fill:none;stroke:#000000;stroke-linecap:round;"/>
    <path clip-path="url(#p2df77d2715)" d="M 689.340992 225.918493 
L 692.951148 228.557957 
L 688.673483 229.862403 
L 689.340992 225.918493 
z
" style="stroke:#000000;stroke-linecap:round;"/>
   </g>
   <g id="patch_73">
    <path clip-path="url(#p2df77d2715)" d="M 531.466392 203.927096 
Q 621.640044 250.881114 710.822044 297.318773 
" style="fill:none;stroke:#000000;stroke-linecap:round;"/>
    <path clip-path="url(#p2df77d2715)" d="M 708.197896 293.697469 
L 710.822044 297.318773 
L 706.350512 297.24531 
L 708.197896 293.697469 
z
" style="stroke:#000000;stroke-linecap:round;"/>
   </g>
   <g id="patch_74">
    <path clip-path="url(#p2df77d2715)" d="M 496.072376 237.836689 
Q 364.216723 202.55414 233.441105 167.560591 
" style="fill:none;stroke:#000000;stroke-linecap:round;"/>
    <path clip-path="url(#p2df77d2715)" d="M 236.78818 170.526581 
L 233.441105 167.560591 
L 237.822142 166.662525 
L 236.78818 170.526581 
z
" style="stroke:#000000;stroke-linecap:round;"/>
   </g>
   <g id="patch_75">
    <path clip-path="url(#p2df77d2715)" d="M 513.088794 239.643719 
Q 603.516835 235.132572 692.828231 230.67713 
" style="fill:none;stroke:#000000;stroke-linecap:round;"/>
    <path clip-path="url(#p2df77d2715)" d="M 688.733549 228.878912 
L 692.828231 230.67713 
L 688.932848 232.873944 
L 688.733549 228.878912 
z
" style="stroke:#000000;stroke-linecap:round;"/>
   </g>
   <g id="patch_76">
    <path clip-path="url(#p2df77d2715)" d="M 512.763389 242.466059 
Q 611.966489 270.954923 710.094989 299.135187 
" style="fill:none;stroke:#000000;stroke-linecap:round;"/>
    <path clip-path="url(#p2df77d2715)" d="M 706.802424 296.108801 
L 710.094989 299.135187 
L 705.698341 299.953407 
L 706.802424 296.108801 
z
" style="stroke:#000000;stroke-linecap:round;"/>
   </g>
   <g id="patch_77">
    <path clip-path="url(#p2df77d2715)" d="M 348.562253 205.499752 
Q 424.959359 216.282641 500.249404 226.909277 
" style="fill:none;stroke:#000000;stroke-linecap:round;"/>
    <path clip-path="url(#p2df77d2715)" d="M 496.568176 224.369876 
L 500.249404 226.909277 
L 496.009146 228.330619 
L 496.568176 224.369876 
z
" style="stroke:#000000;stroke-linecap:round;"/>
   </g>
   <g id="patch_78">
    <path clip-path="url(#p2df77d2715)" d="M 409.033056 171.712821 
Q 455.705029 197.877094 501.40176 223.494648 
" style="fill:none;stroke:#000000;stroke-linecap:round;"/>
    <path clip-path="url(#p2df77d2715)" d="M 498.89063 219.794076 
L 501.40176 223.494648 
L 496.934625 223.283209 
L 498.89063 219.794076 
z
" style="stroke:#000000;stroke-linecap:round;"/>
   </g>
   <g id="patch_79">
    <path clip-path="url(#p2df77d2715)" d="M 500.927206 339.219254 
Q 582.235848 363.551555 662.47339 387.56332 
" style="fill:none;stroke:#000000;stroke-linecap:round;"/>
    <path clip-path="url(#p2df77d2715)" d="M 659.214696 384.500493 
L 662.47339 387.56332 
L 658.067911 388.332579 
L 659.214696 384.500493 
z
" style="stroke:#000000;stroke-linecap:round;"/>
   </g>
   <g id="patch_80">
    <path clip-path="url(#p2df77d2715)" d="M 488.895228 344.548335 
Q 459.801729 405.444759 431.190197 465.332367 
" style="fill:none;stroke:#000000;stroke-linecap:round;"/>
    <path clip-path="url(#p2df77d2715)" d="M 434.719153 462.585285 
L 431.190197 465.332367 
L 431.109904 460.860952 
L 434.719153 462.585285 
z
" style="stroke:#000000;stroke-linecap:round;"/>
   </g>
   <g id="patch_81">
    <path clip-path="url(#p2df77d2715)" d="M 489.551689 328.636695 
Q 483.467155 312.61712 477.779602 297.642727 
" style="fill:none;stroke:#000000;stroke-linecap:round;"/>
    <path clip-path="url(#p2df77d2715)" d="M 477.330201 302.092226 
L 477.779602 297.642727 
L 481.06956 300.671947 
L 477.330201 302.092226 
z
" style="stroke:#000000;stroke-linecap:round;"/>
   </g>
   <g id="patch_82">
    <path clip-path="url(#p2df77d2715)" d="M 499.692275 331.725685 
Q 531.506787 309.163848 562.409315 287.24876 
" style="fill:none;stroke:#000000;stroke-linecap:round;"/>
    <path clip-path="url(#p2df77d2715)" d="M 557.98956 287.931237 
L 562.409315 287.24876 
L 560.303443 291.194049 
L 557.98956 287.931237 
z
" style="stroke:#000000;stroke-linecap:round;"/>
   </g>
   <g id="patch_83">
    <path clip-path="url(#p2df77d2715)" d="M 484.050649 337.906791 
Q 342.413044 357.247314 201.883193 376.436574 
" style="fill:none;stroke:#000000;stroke-linecap:round;"/>
    <path clip-path="url(#p2df77d2715)" d="M 206.117003 377.877009 
L 201.883193 376.436574 
L 205.575828 373.913787 
L 206.117003 377.877009 
z
" style="stroke:#000000;stroke-linecap:round;"/>
   </g>
   <g id="patch_84">
    <path clip-path="url(#p2df77d2715)" d="M 493.991686 328.186024 
Q 501.278723 282.507086 508.38963 237.932222 
" style="fill:none;stroke:#000000;stroke-linecap:round;"/>
    <path clip-path="url(#p2df77d2715)" d="M 505.784462 241.567204 
L 508.38963 237.932222 
L 509.734515 242.197346 
L 505.784462 241.567204 
z
" style="stroke:#000000;stroke-linecap:round;"/>
   </g>
   <g id="patch_85">
    <path clip-path="url(#p2df77d2715)" d="M 499.508155 331.479304 
Q 579.108633 270.668124 657.820671 210.535674 
" style="fill:none;stroke:#000000;stroke-linecap:round;"/>
    <path clip-path="url(#p2df77d2715)" d="M 653.427941 211.374676 
L 657.820671 210.535674 
L 655.856235 214.553259 
L 653.427941 211.374676 
z
" style="stroke:#000000;stroke-linecap:round;"/>
   </g>
   <g id="patch_86">
    <path clip-path="url(#p2df77d2715)" d="M 488.240326 336.712107 
Q 575.884271 362.324736 662.455067 387.623754 
" style="fill:none;stroke:#000000;stroke-linecap:round;"/>
    <path clip-path="url(#p2df77d2715)" d="M 659.17666 384.582037 
L 662.455067 387.623754 
L 658.054649 388.42145 
L 659.17666 384.582037 
z
" style="stroke:#000000;stroke-linecap:round;"/>
   </g>
   <g id="patch_87">
    <path clip-path="url(#p2df77d2715)" d="M 476.861286 342.379912 
Q 453.45255 404.214772 430.439651 465.004016 
" style="fill:none;stroke:#000000;stroke-linecap:round;"/>
    <path clip-path="url(#p2df77d2715)" d="M 433.726296 461.971202 
L 430.439651 465.004016 
L 429.985387 460.555011 
L 433.726296 461.971202 
z
" style="stroke:#000000;stroke-linecap:round;"/>
   </g>
   <g id="patch_88">
    <path clip-path="url(#p2df77d2715)" d="M 478.871384 325.68463 
Q 477.116773 311.389151 475.498367 298.203378 
" style="fill:none;stroke:#000000;stroke-linecap:round;"/>
    <path clip-path="url(#p2df77d2715)" d="M 474.000562 302.417234 
L 475.498367 298.203378 
L 477.970769 301.929936 
L 474.000562 302.417234 
z
" style="stroke:#000000;stroke-linecap:round;"/>
   </g>
   <g id="patch_89">
    <path clip-path="url(#p2df77d2715)" d="M 487.410742 329.923258 
Q 525.157438 307.936566 561.938041 286.512605 
" style="fill:none;stroke:#000000;stroke-linecap:round;"/>
    <path clip-path="url(#p2df77d2715)" d="M 557.475001 286.797688 
L 561.938041 286.512605 
L 559.488283 290.254087 
L 557.475001 286.797688 
z
" style="stroke:#000000;stroke-linecap:round;"/>
   </g>
   <g id="patch_90">
    <path clip-path="url(#p2df77d2715)" d="M 471.360905 335.576879 
Q 336.060519 356.02107 201.865618 376.29822 
" style="fill:none;stroke:#000000;stroke-linecap:round;"/>
    <path clip-path="url(#p2df77d2715)" d="M 206.119534 377.678147 
L 201.865618 376.29822 
L 205.521909 373.723043 
L 206.119534 377.678147 
z
" style="stroke:#000000;stroke-linecap:round;"/>
   </g>
   <g id="patch_91">
    <path clip-path="url(#p2df77d2715)" d="M 482.284438 325.952252 
Q 494.928236 281.279689 507.267555 237.6829 
" style="fill:none;stroke:#000000;stroke-linecap:round;"/>
    <path clip-path="url(#p2df77d2715)" d="M 504.253811 240.98704 
L 507.267555 237.6829 
L 508.102621 242.07638 
L 504.253811 240.98704 
z
" style="stroke:#000000;stroke-linecap:round;"/>
   </g>
   <g id="patch_92">
    <path clip-path="url(#p2df77d2715)" d="M 487.028989 329.321747 
Q 572.760413 269.439984 657.575255 210.198438 
" style="fill:none;stroke:#000000;stroke-linecap:round;"/>
    <path clip-path="url(#p2df77d2715)" d="M 653.150736 210.84931 
L 657.575255 210.198438 
L 655.441241 214.128576 
L 653.150736 210.84931 
z
" style="stroke:#000000;stroke-linecap:round;"/>
   </g>
   <g id="patch_93">
    <path clip-path="url(#p2df77d2715)" d="M 490.373208 345.091278 
Q 513.055683 300.279194 535.233241 256.464636 
" style="fill:none;stroke:#000000;stroke-linecap:round;"/>
    <path clip-path="url(#p2df77d2715)" d="M 531.642367 259.130273 
L 535.233241 256.464636 
L 535.211226 260.936718 
L 531.642367 259.130273 
z
" style="stroke:#000000;stroke-linecap:round;"/>
   </g>
   <g id="patch_94">
    <path clip-path="url(#p2df77d2715)" d="M 669.287831 246.307871 
Q 608.798791 246.975965 549.427717 247.631711 
" style="fill:none;stroke:#000000;stroke-linecap:round;"/>
    <path clip-path="url(#p2df77d2715)" d="M 553.449561 249.587413 
L 549.427717 247.631711 
L 553.405384 245.587657 
L 553.449561 249.587413 
z
" style="stroke:#000000;stroke-linecap:round;"/>
   </g>
   <g id="patch_95">
    <path clip-path="url(#p2df77d2715)" d="M 446.696326 311.736509 
Q 447.137094 340.352129 447.560642 367.849848 
" style="fill:none;stroke:#000000;stroke-linecap:round;"/>
    <path clip-path="url(#p2df77d2715)" d="M 449.4988 363.81952 
L 447.560642 367.849848 
L 445.499274 363.881125 
L 449.4988 363.81952 
z
" style="stroke:#000000;stroke-linecap:round;"/>
   </g>
   <g id="patch_96">
    <path clip-path="url(#p2df77d2715)" d="M 453.555341 308.186784 
Q 469.59427 319.905837 484.730462 330.965295 
" style="fill:none;stroke:#000000;stroke-linecap:round;"/>
    <path clip-path="url(#p2df77d2715)" d="M 482.680656 326.990588 
L 484.730462 330.965295 
L 480.320813 330.220316 
L 482.680656 326.990588 
z
" style="stroke:#000000;stroke-linecap:round;"/>
   </g>
   <g id="patch_97">
    <path clip-path="url(#p2df77d2715)" d="M 452.889926 308.995278 
Q 463.244886 318.6802 472.7833 327.601412 
" style="fill:none;stroke:#000000;stroke-linecap:round;"/>
    <path clip-path="url(#p2df77d2715)" d="M 471.228102 323.408399 
L 472.7833 327.601412 
L 468.49577 326.329762 
L 471.228102 323.408399 
z
" style="stroke:#000000;stroke-linecap:round;"/>
   </g>
   <g id="patch_98">
    <path clip-path="url(#p2df77d2715)" d="M 475.566036 396.163232 
Q 465.244592 389.29445 455.853915 383.04508 
" style="fill:none;stroke:#000000;stroke-linecap:round;"/>
    <path clip-path="url(#p2df77d2715)" d="M 458.075889 386.926167 
L 455.853915 383.04508 
L 460.291969 383.596153 
L 458.075889 386.926167 
z
" style="stroke:#000000;stroke-linecap:round;"/>
   </g>
   <g id="patch_99">
    <path clip-path="url(#p2df77d2715)" d="M 484.088995 392.404169 
Q 487.701987 368.849332 491.145469 346.399604 
" style="fill:none;stroke:#000000;stroke-linecap:round;"/>
    <path clip-path="url(#p2df77d2715)" d="M 488.562137 350.050137 
L 491.145469 346.399604 
L 492.515896 350.65659 
L 488.562137 350.050137 
z
" style="stroke:#000000;stroke-linecap:round;"/>
   </g>
   <g id="patch_100">
    <path clip-path="url(#p2df77d2715)" d="M 482.406442 392.305236 
Q 481.351441 367.619751 480.344177 344.05128 
" style="fill:none;stroke:#000000;stroke-linecap:round;"/>
    <path clip-path="url(#p2df77d2715)" d="M 478.516796 348.133029 
L 480.344177 344.05128 
L 482.513148 347.962234 
L 478.516796 348.133029 
z
" style="stroke:#000000;stroke-linecap:round;"/>
   </g>
   <g id="patch_101">
    <path clip-path="url(#p2df77d2715)" d="M 527.161339 269.149049 
Q 519.884386 244.395081 512.922761 220.71376 
" style="fill:none;stroke:#000000;stroke-linecap:round;"/>
    <path clip-path="url(#p2df77d2715)" d="M 512.132102 225.115448 
L 512.922761 220.71376 
L 515.969716 223.9873 
L 512.132102 225.115448 
z
" style="stroke:#000000;stroke-linecap:round;"/>
   </g>
   <g id="patch_102">
    <path clip-path="url(#p2df77d2715)" d="M 528.955913 268.823205 
Q 526.693371 238.691229 524.514544 209.674147 
" style="fill:none;stroke:#000000;stroke-linecap:round;"/>
    <path clip-path="url(#p2df77d2715)" d="M 522.819667 213.812672 
L 524.514544 209.674147 
L 526.808438 213.513164 
L 522.819667 213.812672 
z
" style="stroke:#000000;stroke-linecap:round;"/>
   </g>
   <g id="patch_103">
    <path clip-path="url(#p2df77d2715)" d="M 524.767472 270.27434 
Q 517.02117 258.76721 509.899215 248.187545 
" style="fill:none;stroke:#000000;stroke-linecap:round;"/>
    <path clip-path="url(#p2df77d2715)" d="M 510.473841 252.622611 
L 509.899215 248.187545 
L 513.792043 250.388884 
L 510.473841 252.622611 
z
" style="stroke:#000000;stroke-linecap:round;"/>
   </g>
   <g id="patch_104">
    <path clip-path="url(#p2df77d2715)" d="M 443.461047 240.646756 
Q 472.849327 227.730483 501.214067 215.264061 
" style="fill:none;stroke:#000000;stroke-linecap:round;"/>
    <path clip-path="url(#p2df77d2715)" d="M 496.747421 215.04253 
L 501.214067 215.264061 
L 498.356854 218.704459 
L 496.747421 215.04253 
z
" style="stroke:#000000;stroke-linecap:round;"/>
   </g>
   <g id="patch_105">
    <path clip-path="url(#p2df77d2715)" d="M 443.273353 240.253794 
Q 479.657049 222.028914 515.041109 204.30476 
" style="fill:none;stroke:#000000;stroke-linecap:round;"/>
    <path clip-path="url(#p2df77d2715)" d="M 510.568974 204.308007 
L 515.041109 204.30476 
L 512.360425 207.884416 
L 510.568974 204.308007 
z
" style="stroke:#000000;stroke-linecap:round;"/>
   </g>
   <g id="patch_106">
    <path clip-path="url(#p2df77d2715)" d="M 444.173205 243.623496 
Q 469.981897 242.103955 494.674488 240.650127 
" style="fill:none;stroke:#000000;stroke-linecap:round;"/>
    <path clip-path="url(#p2df77d2715)" d="M 490.563853 238.888686 
L 494.674488 240.650127 
L 490.798954 242.881771 
L 490.563853 238.888686 
z
" style="stroke:#000000;stroke-linecap:round;"/>
   </g>
   <g id="PathCollection_1">
    <defs>
     <path d="M 0 8.660254 
C 2.296726 8.660254 4.499694 7.747755 6.123724 6.123724 
C 7.747755 4.499694 8.660254 2.296726 8.660254 -0 
C 8.660254 -2.296726 7.747755 -4.499694 6.123724 -6.123724 
C 4.499694 -7.747755 2.296726 -8.660254 0 -8.660254 
C -2.296726 -8.660254 -4.499694 -7.747755 -6.123724 -6.123724 
C -7.747755 -4.499694 -8.660254 -2.296726 -8.660254 0 
C -8.660254 2.296726 -7.747755 4.499694 -6.123724 6.123724 
C -4.499694 7.747755 -2.296726 8.660254 0 8.660254 
z
" id="C0_0_2731084ded"/>
    </defs>
    <g clip-path="url(#p2df77d2715)">
     <use style="fill:#ff0000;stroke:#ff0000;" x="316.236437" xlink:href="#C0_0_2731084ded" y="337.992784"/>
    </g>
    <g clip-path="url(#p2df77d2715)">
     <use style="fill:#ff0000;stroke:#ff0000;" x="297.551354" xlink:href="#C0_0_2731084ded" y="144.066312"/>
    </g>
    <g clip-path="url(#p2df77d2715)">
     <use style="fill:#ff0000;stroke:#ff0000;" x="570.386875" xlink:href="#C0_0_2731084ded" y="281.591329"/>
    </g>
    <g clip-path="url(#p2df77d2715)">
     <use style="fill:#ff0000;stroke:#ff0000;" x="305.83548" xlink:href="#C0_0_2731084ded" y="447.867771"/>
    </g>
    <g clip-path="url(#p2df77d2715)">
     <use style="fill:#ff0000;stroke:#ff0000;" x="719.494215" xlink:href="#C0_0_2731084ded" y="301.83443"/>
    </g>
    <g clip-path="url(#p2df77d2715)">
     <use style="fill:#ff0000;stroke:#ff0000;" x="665.589464" xlink:href="#C0_0_2731084ded" y="204.600666"/>
    </g>
    <g clip-path="url(#p2df77d2715)">
     <use style="fill:#ff0000;stroke:#ff0000;" x="571.174112" xlink:href="#C0_0_2731084ded" y="214.37904"/>
    </g>
    <g clip-path="url(#p2df77d2715)">
     <use style="fill:#ff0000;stroke:#ff0000;" x="474.307558" xlink:href="#C0_0_2731084ded" y="288.501406"/>
    </g>
    <g clip-path="url(#p2df77d2715)">
     <use style="fill:#ff0000;stroke:#ff0000;" x="671.840306" xlink:href="#C0_0_2731084ded" y="390.366449"/>
    </g>
    <g clip-path="url(#p2df77d2715)">
     <use style="fill:#ff0000;stroke:#ff0000;" x="426.976236" xlink:href="#C0_0_2731084ded" y="474.152727"/>
    </g>
    <g clip-path="url(#p2df77d2715)">
     <use style="fill:#008000;stroke:#008000;" x="535.470511" xlink:href="#C0_0_2731084ded" y="339.715683"/>
    </g>
    <g clip-path="url(#p2df77d2715)">
     <use style="fill:#008000;stroke:#008000;" x="192.193771" xlink:href="#C0_0_2731084ded" y="377.759658"/>
    </g>
    <g clip-path="url(#p2df77d2715)">
     <use style="fill:#ff0000;stroke:#ff0000;" x="232.730201" xlink:href="#C0_0_2731084ded" y="193.11482"/>
    </g>
    <g clip-path="url(#p2df77d2715)">
     <use style="fill:#ff0000;stroke:#ff0000;" x="223.995674" xlink:href="#C0_0_2731084ded" y="165.033138"/>
    </g>
    <g clip-path="url(#p2df77d2715)">
     <use style="fill:#ff0000;stroke:#ff0000;" x="509.930118" xlink:href="#C0_0_2731084ded" y="228.275639"/>
    </g>
    <g clip-path="url(#p2df77d2715)">
     <use style="fill:#008000;stroke:#008000;" x="367.219918" xlink:href="#C0_0_2731084ded" y="345.274167"/>
    </g>
    <g clip-path="url(#p2df77d2715)">
     <use style="fill:#ff0000;stroke:#ff0000;" x="326.207675" xlink:href="#C0_0_2731084ded" y="259.156778"/>
    </g>
    <g clip-path="url(#p2df77d2715)">
     <use style="fill:#ff0000;stroke:#ff0000;" x="302.760036" xlink:href="#C0_0_2731084ded" y="263.991058"/>
    </g>
    <g clip-path="url(#p2df77d2715)">
     <use style="fill:#ff0000;stroke:#ff0000;" x="702.593697" xlink:href="#C0_0_2731084ded" y="230.189964"/>
    </g>
    <g clip-path="url(#p2df77d2715)">
     <use style="fill:#ff0000;stroke:#ff0000;" x="306.767421" xlink:href="#C0_0_2731084ded" y="247.155315"/>
    </g>
    <g clip-path="url(#p2df77d2715)">
     <use style="fill:#ff0000;stroke:#ff0000;" x="258.319726" xlink:href="#C0_0_2731084ded" y="227.640075"/>
    </g>
    <g clip-path="url(#p2df77d2715)">
     <use style="fill:#ff0000;stroke:#ff0000;" x="283.058493" xlink:href="#C0_0_2731084ded" y="252.166337"/>
    </g>
    <g clip-path="url(#p2df77d2715)">
     <use style="fill:#ff0000;stroke:#ff0000;" x="447.711228" xlink:href="#C0_0_2731084ded" y="377.626232"/>
    </g>
    <g clip-path="url(#p2df77d2715)">
     <use style="fill:#ff0000;stroke:#ff0000;" x="600.512412" xlink:href="#C0_0_2731084ded" y="431.82279"/>
    </g>
    <g clip-path="url(#p2df77d2715)">
     <use style="fill:#ff0000;stroke:#ff0000;" x="515.039697" xlink:href="#C0_0_2731084ded" y="425.691076"/>
    </g>
    <g clip-path="url(#p2df77d2715)">
     <use style="fill:#ff0000;stroke:#ff0000;" x="440.579392" xlink:href="#C0_0_2731084ded" y="446.412028"/>
    </g>
    <g clip-path="url(#p2df77d2715)">
     <use style="fill:#ff0000;stroke:#ff0000;" x="361.673357" xlink:href="#C0_0_2731084ded" y="275.499543"/>
    </g>
    <g clip-path="url(#p2df77d2715)">
     <use style="fill:#ff0000;stroke:#ff0000;" x="447.129486" xlink:href="#C0_0_2731084ded" y="319.974601"/>
    </g>
    <g clip-path="url(#p2df77d2715)">
     <use style="fill:#ff0000;stroke:#ff0000;" x="539.649526" xlink:href="#C0_0_2731084ded" y="247.73971"/>
    </g>
    <g clip-path="url(#p2df77d2715)">
     <use style="fill:#ff0000;stroke:#ff0000;" x="627.727556" xlink:href="#C0_0_2731084ded" y="299.509705"/>
    </g>
    <g clip-path="url(#p2df77d2715)">
     <use style="fill:#ff0000;stroke:#ff0000;" x="684.755331" xlink:href="#C0_0_2731084ded" y="212.971014"/>
    </g>
    <g clip-path="url(#p2df77d2715)">
     <use style="fill:#ff0000;stroke:#ff0000;" x="238.005312" xlink:href="#C0_0_2731084ded" y="416.116293"/>
    </g>
    <g clip-path="url(#p2df77d2715)">
     <use style="fill:#ff0000;stroke:#ff0000;" x="436.814185" xlink:href="#C0_0_2731084ded" y="107.607273"/>
    </g>
    <g clip-path="url(#p2df77d2715)">
     <use style="fill:#ff0000;stroke:#ff0000;" x="384.131797" xlink:href="#C0_0_2731084ded" y="120.337479"/>
    </g>
    <g clip-path="url(#p2df77d2715)">
     <use style="fill:#ff0000;stroke:#ff0000;" x="663.384" xlink:href="#C0_0_2731084ded" y="418.190651"/>
    </g>
    <g clip-path="url(#p2df77d2715)">
     <use style="fill:#ff0000;stroke:#ff0000;" x="713.188058" xlink:href="#C0_0_2731084ded" y="342.497737"/>
    </g>
    <g clip-path="url(#p2df77d2715)">
     <use style="fill:#ff0000;stroke:#ff0000;" x="166.105785" xlink:href="#C0_0_2731084ded" y="324.0245"/>
    </g>
    <g clip-path="url(#p2df77d2715)">
     <use style="fill:#ff0000;stroke:#ff0000;" x="534.518854" xlink:href="#C0_0_2731084ded" y="112.603444"/>
    </g>
    <g clip-path="url(#p2df77d2715)">
     <use style="fill:#ff0000;stroke:#ff0000;" x="542.557599" xlink:href="#C0_0_2731084ded" y="465.517331"/>
    </g>
    <g clip-path="url(#p2df77d2715)">
     <use style="fill:#ff0000;stroke:#ff0000;" x="483.528699" xlink:href="#C0_0_2731084ded" y="297.929922"/>
    </g>
    <g clip-path="url(#p2df77d2715)">
     <use style="fill:#ff0000;stroke:#ff0000;" x="492.018046" xlink:href="#C0_0_2731084ded" y="291.758636"/>
    </g>
    <g clip-path="url(#p2df77d2715)">
     <use style="fill:#ff0000;stroke:#ff0000;" x="510.164321" xlink:href="#C0_0_2731084ded" y="211.330387"/>
    </g>
    <g clip-path="url(#p2df77d2715)">
     <use style="fill:#ff0000;stroke:#ff0000;" x="523.782585" xlink:href="#C0_0_2731084ded" y="199.926086"/>
    </g>
    <g clip-path="url(#p2df77d2715)">
     <use style="fill:#ff0000;stroke:#ff0000;" x="504.438239" xlink:href="#C0_0_2731084ded" y="240.075266"/>
    </g>
    <g clip-path="url(#p2df77d2715)">
     <use style="fill:#ff0000;stroke:#ff0000;" x="339.986773" xlink:href="#C0_0_2731084ded" y="204.289386"/>
    </g>
    <g clip-path="url(#p2df77d2715)">
     <use style="fill:#ff0000;stroke:#ff0000;" x="401.476947" xlink:href="#C0_0_2731084ded" y="167.476872"/>
    </g>
    <g clip-path="url(#p2df77d2715)">
     <use style="fill:#ff0000;stroke:#ff0000;" x="492.627798" xlink:href="#C0_0_2731084ded" y="336.735586"/>
    </g>
    <g clip-path="url(#p2df77d2715)">
     <use style="fill:#ff0000;stroke:#ff0000;" x="479.926685" xlink:href="#C0_0_2731084ded" y="334.28257"/>
    </g>
    <g clip-path="url(#p2df77d2715)">
     <use style="fill:#ff0000;stroke:#ff0000;" x="486.46311" xlink:href="#C0_0_2731084ded" y="352.816168"/>
    </g>
    <g clip-path="url(#p2df77d2715)">
     <use style="fill:#ff0000;stroke:#ff0000;" x="677.94389" xlink:href="#C0_0_2731084ded" y="246.212266"/>
    </g>
    <g clip-path="url(#p2df77d2715)">
     <use style="fill:#ff0000;stroke:#ff0000;" x="446.562954" xlink:href="#C0_0_2731084ded" y="303.077705"/>
    </g>
    <g clip-path="url(#p2df77d2715)">
     <use style="fill:#ff0000;stroke:#ff0000;" x="482.776397" xlink:href="#C0_0_2731084ded" y="400.96163"/>
    </g>
    <g clip-path="url(#p2df77d2715)">
     <use style="fill:#ff0000;stroke:#ff0000;" x="529.6044" xlink:href="#C0_0_2731084ded" y="277.459598"/>
    </g>
    <g clip-path="url(#p2df77d2715)">
     <use style="fill:#ff0000;stroke:#ff0000;" x="435.530268" xlink:href="#C0_0_2731084ded" y="244.132367"/>
    </g>
   </g>
   <g id="text_1">
    <g clip-path="url(#p2df77d2715)">
     <!-- CDH5 -->
     <g transform="translate(299.097062 341.304034)scale(0.12 -0.12)">
      <defs>
       <path d="M 64.40625 67.28125 
L 64.40625 56.890625 
Q 59.421875 61.53125 53.78125 63.8125 
Q 48.140625 66.109375 41.796875 66.109375 
Q 29.296875 66.109375 22.65625 58.46875 
Q 16.015625 50.828125 16.015625 36.375 
Q 16.015625 21.96875 22.65625 14.328125 
Q 29.296875 6.6875 41.796875 6.6875 
Q 48.140625 6.6875 53.78125 8.984375 
Q 59.421875 11.28125 64.40625 15.921875 
L 64.40625 5.609375 
Q 59.234375 2.09375 53.4375 0.328125 
Q 47.65625 -1.421875 41.21875 -1.421875 
Q 24.65625 -1.421875 15.125 8.703125 
Q 5.609375 18.84375 5.609375 36.375 
Q 5.609375 53.953125 15.125 64.078125 
Q 24.65625 74.21875 41.21875 74.21875 
Q 47.75 74.21875 53.53125 72.484375 
Q 59.328125 70.75 64.40625 67.28125 
z
" id="DejaVuSans-67"/>
       <path d="M 19.671875 64.796875 
L 19.671875 8.109375 
L 31.59375 8.109375 
Q 46.6875 8.109375 53.6875 14.9375 
Q 60.6875 21.78125 60.6875 36.53125 
Q 60.6875 51.171875 53.6875 57.984375 
Q 46.6875 64.796875 31.59375 64.796875 
z
M 9.8125 72.90625 
L 30.078125 72.90625 
Q 51.265625 72.90625 61.171875 64.09375 
Q 71.09375 55.28125 71.09375 36.53125 
Q 71.09375 17.671875 61.125 8.828125 
Q 51.171875 0 30.078125 0 
L 9.8125 0 
z
" id="DejaVuSans-68"/>
       <path d="M 9.8125 72.90625 
L 19.671875 72.90625 
L 19.671875 43.015625 
L 55.515625 43.015625 
L 55.515625 72.90625 
L 65.375 72.90625 
L 65.375 0 
L 55.515625 0 
L 55.515625 34.71875 
L 19.671875 34.71875 
L 19.671875 0 
L 9.8125 0 
z
" id="DejaVuSans-72"/>
       <path d="M 10.796875 72.90625 
L 49.515625 72.90625 
L 49.515625 64.59375 
L 19.828125 64.59375 
L 19.828125 46.734375 
Q 21.96875 47.46875 24.109375 47.828125 
Q 26.265625 48.1875 28.421875 48.1875 
Q 40.625 48.1875 47.75 41.5 
Q 54.890625 34.8125 54.890625 23.390625 
Q 54.890625 11.625 47.5625 5.09375 
Q 40.234375 -1.421875 26.90625 -1.421875 
Q 22.3125 -1.421875 17.546875 -0.640625 
Q 12.796875 0.140625 7.71875 1.703125 
L 7.71875 11.625 
Q 12.109375 9.234375 16.796875 8.0625 
Q 21.484375 6.890625 26.703125 6.890625 
Q 35.15625 6.890625 40.078125 11.328125 
Q 45.015625 15.765625 45.015625 23.390625 
Q 45.015625 31 40.078125 35.4375 
Q 35.15625 39.890625 26.703125 39.890625 
Q 22.75 39.890625 18.8125 39.015625 
Q 14.890625 38.140625 10.796875 36.28125 
z
" id="DejaVuSans-53"/>
      </defs>
      <use xlink:href="#DejaVuSans-67"/>
      <use x="69.824219" xlink:href="#DejaVuSans-68"/>
      <use x="146.826172" xlink:href="#DejaVuSans-72"/>
      <use x="222.021484" xlink:href="#DejaVuSans-53"/>
     </g>
    </g>
   </g>
   <g id="text_2">
    <g clip-path="url(#p2df77d2715)">
     <!-- PECAM1 -->
     <g transform="translate(272.853854 147.377562)scale(0.12 -0.12)">
      <defs>
       <path d="M 19.671875 64.796875 
L 19.671875 37.40625 
L 32.078125 37.40625 
Q 38.96875 37.40625 42.71875 40.96875 
Q 46.484375 44.53125 46.484375 51.125 
Q 46.484375 57.671875 42.71875 61.234375 
Q 38.96875 64.796875 32.078125 64.796875 
z
M 9.8125 72.90625 
L 32.078125 72.90625 
Q 44.34375 72.90625 50.609375 67.359375 
Q 56.890625 61.8125 56.890625 51.125 
Q 56.890625 40.328125 50.609375 34.8125 
Q 44.34375 29.296875 32.078125 29.296875 
L 19.671875 29.296875 
L 19.671875 0 
L 9.8125 0 
z
" id="DejaVuSans-80"/>
       <path d="M 9.8125 72.90625 
L 55.90625 72.90625 
L 55.90625 64.59375 
L 19.671875 64.59375 
L 19.671875 43.015625 
L 54.390625 43.015625 
L 54.390625 34.71875 
L 19.671875 34.71875 
L 19.671875 8.296875 
L 56.78125 8.296875 
L 56.78125 0 
L 9.8125 0 
z
" id="DejaVuSans-69"/>
       <path d="M 34.1875 63.1875 
L 20.796875 26.90625 
L 47.609375 26.90625 
z
M 28.609375 72.90625 
L 39.796875 72.90625 
L 67.578125 0 
L 57.328125 0 
L 50.6875 18.703125 
L 17.828125 18.703125 
L 11.1875 0 
L 0.78125 0 
z
" id="DejaVuSans-65"/>
       <path d="M 9.8125 72.90625 
L 24.515625 72.90625 
L 43.109375 23.296875 
L 61.8125 72.90625 
L 76.515625 72.90625 
L 76.515625 0 
L 66.890625 0 
L 66.890625 64.015625 
L 48.09375 14.015625 
L 38.1875 14.015625 
L 19.390625 64.015625 
L 19.390625 0 
L 9.8125 0 
z
" id="DejaVuSans-77"/>
       <path d="M 12.40625 8.296875 
L 28.515625 8.296875 
L 28.515625 63.921875 
L 10.984375 60.40625 
L 10.984375 69.390625 
L 28.421875 72.90625 
L 38.28125 72.90625 
L 38.28125 8.296875 
L 54.390625 8.296875 
L 54.390625 0 
L 12.40625 0 
z
" id="DejaVuSans-49"/>
      </defs>
      <use xlink:href="#DejaVuSans-80"/>
      <use x="60.302734" xlink:href="#DejaVuSans-69"/>
      <use x="123.486328" xlink:href="#DejaVuSans-67"/>
      <use x="193.310547" xlink:href="#DejaVuSans-65"/>
      <use x="261.71875" xlink:href="#DejaVuSans-77"/>
      <use x="347.998047" xlink:href="#DejaVuSans-49"/>
     </g>
    </g>
   </g>
   <g id="text_3">
    <g clip-path="url(#p2df77d2715)">
     <!-- ITGB2 -->
     <g transform="translate(552.369063 284.902579)scale(0.12 -0.12)">
      <defs>
       <path d="M 9.8125 72.90625 
L 19.671875 72.90625 
L 19.671875 0 
L 9.8125 0 
z
" id="DejaVuSans-73"/>
       <path d="M -0.296875 72.90625 
L 61.375 72.90625 
L 61.375 64.59375 
L 35.5 64.59375 
L 35.5 0 
L 25.59375 0 
L 25.59375 64.59375 
L -0.296875 64.59375 
z
" id="DejaVuSans-84"/>
       <path d="M 59.515625 10.40625 
L 59.515625 29.984375 
L 43.40625 29.984375 
L 43.40625 38.09375 
L 69.28125 38.09375 
L 69.28125 6.78125 
Q 63.578125 2.734375 56.6875 0.65625 
Q 49.8125 -1.421875 42 -1.421875 
Q 24.90625 -1.421875 15.25 8.5625 
Q 5.609375 18.5625 5.609375 36.375 
Q 5.609375 54.25 15.25 64.234375 
Q 24.90625 74.21875 42 74.21875 
Q 49.125 74.21875 55.546875 72.453125 
Q 61.96875 70.703125 67.390625 67.28125 
L 67.390625 56.78125 
Q 61.921875 61.421875 55.765625 63.765625 
Q 49.609375 66.109375 42.828125 66.109375 
Q 29.4375 66.109375 22.71875 58.640625 
Q 16.015625 51.171875 16.015625 36.375 
Q 16.015625 21.625 22.71875 14.15625 
Q 29.4375 6.6875 42.828125 6.6875 
Q 48.046875 6.6875 52.140625 7.59375 
Q 56.25 8.5 59.515625 10.40625 
z
" id="DejaVuSans-71"/>
       <path d="M 19.671875 34.8125 
L 19.671875 8.109375 
L 35.5 8.109375 
Q 43.453125 8.109375 47.28125 11.40625 
Q 51.125 14.703125 51.125 21.484375 
Q 51.125 28.328125 47.28125 31.5625 
Q 43.453125 34.8125 35.5 34.8125 
z
M 19.671875 64.796875 
L 19.671875 42.828125 
L 34.28125 42.828125 
Q 41.5 42.828125 45.03125 45.53125 
Q 48.578125 48.25 48.578125 53.8125 
Q 48.578125 59.328125 45.03125 62.0625 
Q 41.5 64.796875 34.28125 64.796875 
z
M 9.8125 72.90625 
L 35.015625 72.90625 
Q 46.296875 72.90625 52.390625 68.21875 
Q 58.5 63.53125 58.5 54.890625 
Q 58.5 48.1875 55.375 44.234375 
Q 52.25 40.28125 46.1875 39.3125 
Q 53.46875 37.75 57.5 32.78125 
Q 61.53125 27.828125 61.53125 20.40625 
Q 61.53125 10.640625 54.890625 5.3125 
Q 48.25 0 35.984375 0 
L 9.8125 0 
z
" id="DejaVuSans-66"/>
       <path d="M 19.1875 8.296875 
L 53.609375 8.296875 
L 53.609375 0 
L 7.328125 0 
L 7.328125 8.296875 
Q 12.9375 14.109375 22.625 23.890625 
Q 32.328125 33.6875 34.8125 36.53125 
Q 39.546875 41.84375 41.421875 45.53125 
Q 43.3125 49.21875 43.3125 52.78125 
Q 43.3125 58.59375 39.234375 62.25 
Q 35.15625 65.921875 28.609375 65.921875 
Q 23.96875 65.921875 18.8125 64.3125 
Q 13.671875 62.703125 7.8125 59.421875 
L 7.8125 69.390625 
Q 13.765625 71.78125 18.9375 73 
Q 24.125 74.21875 28.421875 74.21875 
Q 39.75 74.21875 46.484375 68.546875 
Q 53.21875 62.890625 53.21875 53.421875 
Q 53.21875 48.921875 51.53125 44.890625 
Q 49.859375 40.875 45.40625 35.40625 
Q 44.1875 33.984375 37.640625 27.21875 
Q 31.109375 20.453125 19.1875 8.296875 
z
" id="DejaVuSans-50"/>
      </defs>
      <use xlink:href="#DejaVuSans-73"/>
      <use x="29.492188" xlink:href="#DejaVuSans-84"/>
      <use x="90.576172" xlink:href="#DejaVuSans-71"/>
      <use x="168.066406" xlink:href="#DejaVuSans-66"/>
      <use x="236.669922" xlink:href="#DejaVuSans-50"/>
     </g>
    </g>
   </g>
   <g id="text_4">
    <g clip-path="url(#p2df77d2715)">
     <!-- CTNND1 -->
     <g transform="translate(280.566105 451.179021)scale(0.12 -0.12)">
      <defs>
       <path d="M 9.8125 72.90625 
L 23.09375 72.90625 
L 55.421875 11.921875 
L 55.421875 72.90625 
L 64.984375 72.90625 
L 64.984375 0 
L 51.703125 0 
L 19.390625 60.984375 
L 19.390625 0 
L 9.8125 0 
z
" id="DejaVuSans-78"/>
      </defs>
      <use xlink:href="#DejaVuSans-67"/>
      <use x="69.824219" xlink:href="#DejaVuSans-84"/>
      <use x="130.908203" xlink:href="#DejaVuSans-78"/>
      <use x="205.712891" xlink:href="#DejaVuSans-78"/>
      <use x="280.517578" xlink:href="#DejaVuSans-68"/>
      <use x="357.519531" xlink:href="#DejaVuSans-49"/>
     </g>
    </g>
   </g>
   <g id="text_5">
    <g clip-path="url(#p2df77d2715)">
     <!-- BCAR1 -->
     <g transform="translate(699.202027 305.14568)scale(0.12 -0.12)">
      <defs>
       <path d="M 44.390625 34.1875 
Q 47.5625 33.109375 50.5625 29.59375 
Q 53.5625 26.078125 56.59375 19.921875 
L 66.609375 0 
L 56 0 
L 46.6875 18.703125 
Q 43.0625 26.03125 39.671875 28.421875 
Q 36.28125 30.8125 30.421875 30.8125 
L 19.671875 30.8125 
L 19.671875 0 
L 9.8125 0 
L 9.8125 72.90625 
L 32.078125 72.90625 
Q 44.578125 72.90625 50.734375 67.671875 
Q 56.890625 62.453125 56.890625 51.90625 
Q 56.890625 45.015625 53.6875 40.46875 
Q 50.484375 35.9375 44.390625 34.1875 
z
M 19.671875 64.796875 
L 19.671875 38.921875 
L 32.078125 38.921875 
Q 39.203125 38.921875 42.84375 42.21875 
Q 46.484375 45.515625 46.484375 51.90625 
Q 46.484375 58.296875 42.84375 61.546875 
Q 39.203125 64.796875 32.078125 64.796875 
z
" id="DejaVuSans-82"/>
      </defs>
      <use xlink:href="#DejaVuSans-66"/>
      <use x="66.853516" xlink:href="#DejaVuSans-67"/>
      <use x="136.677734" xlink:href="#DejaVuSans-65"/>
      <use x="205.085938" xlink:href="#DejaVuSans-82"/>
      <use x="274.568359" xlink:href="#DejaVuSans-49"/>
     </g>
    </g>
   </g>
   <g id="text_6">
    <g clip-path="url(#p2df77d2715)">
     <!-- SIPA1 -->
     <g transform="translate(648.853214 207.911916)scale(0.12 -0.12)">
      <defs>
       <path d="M 53.515625 70.515625 
L 53.515625 60.890625 
Q 47.90625 63.578125 42.921875 64.890625 
Q 37.9375 66.21875 33.296875 66.21875 
Q 25.25 66.21875 20.875 63.09375 
Q 16.5 59.96875 16.5 54.203125 
Q 16.5 49.359375 19.40625 46.890625 
Q 22.3125 44.4375 30.421875 42.921875 
L 36.375 41.703125 
Q 47.40625 39.59375 52.65625 34.296875 
Q 57.90625 29 57.90625 20.125 
Q 57.90625 9.515625 50.796875 4.046875 
Q 43.703125 -1.421875 29.984375 -1.421875 
Q 24.8125 -1.421875 18.96875 -0.25 
Q 13.140625 0.921875 6.890625 3.21875 
L 6.890625 13.375 
Q 12.890625 10.015625 18.65625 8.296875 
Q 24.421875 6.59375 29.984375 6.59375 
Q 38.421875 6.59375 43.015625 9.90625 
Q 47.609375 13.234375 47.609375 19.390625 
Q 47.609375 24.75 44.3125 27.78125 
Q 41.015625 30.8125 33.5 32.328125 
L 27.484375 33.5 
Q 16.453125 35.6875 11.515625 40.375 
Q 6.59375 45.0625 6.59375 53.421875 
Q 6.59375 63.09375 13.40625 68.65625 
Q 20.21875 74.21875 32.171875 74.21875 
Q 37.3125 74.21875 42.625 73.28125 
Q 47.953125 72.359375 53.515625 70.515625 
z
" id="DejaVuSans-83"/>
      </defs>
      <use xlink:href="#DejaVuSans-83"/>
      <use x="63.476562" xlink:href="#DejaVuSans-73"/>
      <use x="92.96875" xlink:href="#DejaVuSans-80"/>
      <use x="146.896484" xlink:href="#DejaVuSans-65"/>
      <use x="215.304688" xlink:href="#DejaVuSans-49"/>
     </g>
    </g>
   </g>
   <g id="text_7">
    <g clip-path="url(#p2df77d2715)">
     <!-- F11R -->
     <g transform="translate(555.919112 217.69029)scale(0.12 -0.12)">
      <defs>
       <path d="M 9.8125 72.90625 
L 51.703125 72.90625 
L 51.703125 64.59375 
L 19.671875 64.59375 
L 19.671875 43.109375 
L 48.578125 43.109375 
L 48.578125 34.8125 
L 19.671875 34.8125 
L 19.671875 0 
L 9.8125 0 
z
" id="DejaVuSans-70"/>
      </defs>
      <use xlink:href="#DejaVuSans-70"/>
      <use x="57.519531" xlink:href="#DejaVuSans-49"/>
      <use x="121.142578" xlink:href="#DejaVuSans-49"/>
      <use x="184.765625" xlink:href="#DejaVuSans-82"/>
     </g>
    </g>
   </g>
   <g id="text_8">
    <g clip-path="url(#p2df77d2715)">
     <!-- ITGAL -->
     <g transform="translate(456.776308 291.812656)scale(0.12 -0.12)">
      <defs>
       <path d="M 9.8125 72.90625 
L 19.671875 72.90625 
L 19.671875 8.296875 
L 55.171875 8.296875 
L 55.171875 0 
L 9.8125 0 
z
" id="DejaVuSans-76"/>
      </defs>
      <use xlink:href="#DejaVuSans-73"/>
      <use x="29.492188" xlink:href="#DejaVuSans-84"/>
      <use x="90.576172" xlink:href="#DejaVuSans-71"/>
      <use x="168.066406" xlink:href="#DejaVuSans-65"/>
      <use x="236.474609" xlink:href="#DejaVuSans-76"/>
     </g>
    </g>
   </g>
   <g id="text_9">
    <g clip-path="url(#p2df77d2715)">
     <!-- ITGB1 -->
     <g transform="translate(653.822494 393.677699)scale(0.12 -0.12)">
      <use xlink:href="#DejaVuSans-73"/>
      <use x="29.492188" xlink:href="#DejaVuSans-84"/>
      <use x="90.576172" xlink:href="#DejaVuSans-71"/>
      <use x="168.066406" xlink:href="#DejaVuSans-66"/>
      <use x="236.669922" xlink:href="#DejaVuSans-49"/>
     </g>
    </g>
   </g>
   <g id="text_10">
    <g clip-path="url(#p2df77d2715)">
     <!-- ITGA4 -->
     <g transform="translate(408.970611 477.463977)scale(0.12 -0.12)">
      <defs>
       <path d="M 37.796875 64.3125 
L 12.890625 25.390625 
L 37.796875 25.390625 
z
M 35.203125 72.90625 
L 47.609375 72.90625 
L 47.609375 25.390625 
L 58.015625 25.390625 
L 58.015625 17.1875 
L 47.609375 17.1875 
L 47.609375 0 
L 37.796875 0 
L 37.796875 17.1875 
L 4.890625 17.1875 
L 4.890625 26.703125 
z
" id="DejaVuSans-52"/>
      </defs>
      <use xlink:href="#DejaVuSans-73"/>
      <use x="29.492188" xlink:href="#DejaVuSans-84"/>
      <use x="90.576172" xlink:href="#DejaVuSans-71"/>
      <use x="168.066406" xlink:href="#DejaVuSans-65"/>
      <use x="236.474609" xlink:href="#DejaVuSans-52"/>
     </g>
    </g>
   </g>
   <g id="text_11">
    <g clip-path="url(#p2df77d2715)">
     <!-- JAM2 -->
     <g transform="translate(520.706761 343.026933)scale(0.12 -0.12)">
      <defs>
       <path d="M 9.8125 72.90625 
L 19.671875 72.90625 
L 19.671875 5.078125 
Q 19.671875 -8.109375 14.671875 -14.0625 
Q 9.671875 -20.015625 -1.421875 -20.015625 
L -5.171875 -20.015625 
L -5.171875 -11.71875 
L -2.09375 -11.71875 
Q 4.4375 -11.71875 7.125 -8.046875 
Q 9.8125 -4.390625 9.8125 5.078125 
z
" id="DejaVuSans-74"/>
      </defs>
      <use xlink:href="#DejaVuSans-74"/>
      <use x="27.742188" xlink:href="#DejaVuSans-65"/>
      <use x="96.150391" xlink:href="#DejaVuSans-77"/>
      <use x="182.429688" xlink:href="#DejaVuSans-50"/>
     </g>
    </g>
   </g>
   <g id="text_12">
    <g clip-path="url(#p2df77d2715)">
     <!-- ITGAM -->
     <g transform="translate(172.828771 381.070908)scale(0.12 -0.12)">
      <use xlink:href="#DejaVuSans-73"/>
      <use x="29.492188" xlink:href="#DejaVuSans-84"/>
      <use x="90.576172" xlink:href="#DejaVuSans-71"/>
      <use x="168.066406" xlink:href="#DejaVuSans-65"/>
      <use x="236.474609" xlink:href="#DejaVuSans-77"/>
     </g>
    </g>
   </g>
   <g id="text_13">
    <g clip-path="url(#p2df77d2715)">
     <!-- CTNNB1 -->
     <g transform="translate(207.964264 196.42607)scale(0.12 -0.12)">
      <use xlink:href="#DejaVuSans-67"/>
      <use x="69.824219" xlink:href="#DejaVuSans-84"/>
      <use x="130.908203" xlink:href="#DejaVuSans-78"/>
      <use x="205.712891" xlink:href="#DejaVuSans-78"/>
      <use x="280.517578" xlink:href="#DejaVuSans-66"/>
      <use x="349.121094" xlink:href="#DejaVuSans-49"/>
     </g>
    </g>
   </g>
   <g id="text_14">
    <g clip-path="url(#p2df77d2715)">
     <!-- PTK2 -->
     <g transform="translate(208.960986 168.344388)scale(0.12 -0.12)">
      <defs>
       <path d="M 9.8125 72.90625 
L 19.671875 72.90625 
L 19.671875 42.09375 
L 52.390625 72.90625 
L 65.09375 72.90625 
L 28.90625 38.921875 
L 67.671875 0 
L 54.6875 0 
L 19.671875 35.109375 
L 19.671875 0 
L 9.8125 0 
z
" id="DejaVuSans-75"/>
      </defs>
      <use xlink:href="#DejaVuSans-80"/>
      <use x="60.302734" xlink:href="#DejaVuSans-84"/>
      <use x="121.386719" xlink:href="#DejaVuSans-75"/>
      <use x="186.962891" xlink:href="#DejaVuSans-50"/>
     </g>
    </g>
   </g>
   <g id="text_15">
    <g clip-path="url(#p2df77d2715)">
     <!-- RHOA -->
     <g transform="translate(492.526368 231.586889)scale(0.12 -0.12)">
      <defs>
       <path d="M 39.40625 66.21875 
Q 28.65625 66.21875 22.328125 58.203125 
Q 16.015625 50.203125 16.015625 36.375 
Q 16.015625 22.609375 22.328125 14.59375 
Q 28.65625 6.59375 39.40625 6.59375 
Q 50.140625 6.59375 56.421875 14.59375 
Q 62.703125 22.609375 62.703125 36.375 
Q 62.703125 50.203125 56.421875 58.203125 
Q 50.140625 66.21875 39.40625 66.21875 
z
M 39.40625 74.21875 
Q 54.734375 74.21875 63.90625 63.9375 
Q 73.09375 53.65625 73.09375 36.375 
Q 73.09375 19.140625 63.90625 8.859375 
Q 54.734375 -1.421875 39.40625 -1.421875 
Q 24.03125 -1.421875 14.8125 8.828125 
Q 5.609375 19.09375 5.609375 36.375 
Q 5.609375 53.65625 14.8125 63.9375 
Q 24.03125 74.21875 39.40625 74.21875 
z
" id="DejaVuSans-79"/>
      </defs>
      <use xlink:href="#DejaVuSans-82"/>
      <use x="69.482422" xlink:href="#DejaVuSans-72"/>
      <use x="144.677734" xlink:href="#DejaVuSans-79"/>
      <use x="221.638672" xlink:href="#DejaVuSans-65"/>
     </g>
    </g>
   </g>
   <g id="text_16">
    <g clip-path="url(#p2df77d2715)">
     <!-- JAM3 -->
     <g transform="translate(352.456168 348.585417)scale(0.12 -0.12)">
      <defs>
       <path d="M 40.578125 39.3125 
Q 47.65625 37.796875 51.625 33 
Q 55.609375 28.21875 55.609375 21.1875 
Q 55.609375 10.40625 48.1875 4.484375 
Q 40.765625 -1.421875 27.09375 -1.421875 
Q 22.515625 -1.421875 17.65625 -0.515625 
Q 12.796875 0.390625 7.625 2.203125 
L 7.625 11.71875 
Q 11.71875 9.328125 16.59375 8.109375 
Q 21.484375 6.890625 26.8125 6.890625 
Q 36.078125 6.890625 40.9375 10.546875 
Q 45.796875 14.203125 45.796875 21.1875 
Q 45.796875 27.640625 41.28125 31.265625 
Q 36.765625 34.90625 28.71875 34.90625 
L 20.21875 34.90625 
L 20.21875 43.015625 
L 29.109375 43.015625 
Q 36.375 43.015625 40.234375 45.921875 
Q 44.09375 48.828125 44.09375 54.296875 
Q 44.09375 59.90625 40.109375 62.90625 
Q 36.140625 65.921875 28.71875 65.921875 
Q 24.65625 65.921875 20.015625 65.03125 
Q 15.375 64.15625 9.8125 62.3125 
L 9.8125 71.09375 
Q 15.4375 72.65625 20.34375 73.4375 
Q 25.25 74.21875 29.59375 74.21875 
Q 40.828125 74.21875 47.359375 69.109375 
Q 53.90625 64.015625 53.90625 55.328125 
Q 53.90625 49.265625 50.4375 45.09375 
Q 46.96875 40.921875 40.578125 39.3125 
z
" id="DejaVuSans-51"/>
      </defs>
      <use xlink:href="#DejaVuSans-74"/>
      <use x="27.742188" xlink:href="#DejaVuSans-65"/>
      <use x="96.150391" xlink:href="#DejaVuSans-77"/>
      <use x="182.429688" xlink:href="#DejaVuSans-51"/>
     </g>
    </g>
   </g>
   <g id="text_17">
    <g clip-path="url(#p2df77d2715)">
     <!-- CYBA -->
     <g transform="translate(310.237362 262.468028)scale(0.12 -0.12)">
      <defs>
       <path d="M -0.203125 72.90625 
L 10.40625 72.90625 
L 30.609375 42.921875 
L 50.6875 72.90625 
L 61.28125 72.90625 
L 35.5 34.71875 
L 35.5 0 
L 25.59375 0 
L 25.59375 34.71875 
z
" id="DejaVuSans-89"/>
      </defs>
      <use xlink:href="#DejaVuSans-67"/>
      <use x="68.074219" xlink:href="#DejaVuSans-89"/>
      <use x="129.158203" xlink:href="#DejaVuSans-66"/>
      <use x="197.761719" xlink:href="#DejaVuSans-65"/>
     </g>
    </g>
   </g>
   <g id="text_18">
    <g clip-path="url(#p2df77d2715)">
     <!-- NCF2 -->
     <g transform="translate(286.813161 267.302308)scale(0.12 -0.12)">
      <use xlink:href="#DejaVuSans-78"/>
      <use x="74.804688" xlink:href="#DejaVuSans-67"/>
      <use x="144.628906" xlink:href="#DejaVuSans-70"/>
      <use x="202.148438" xlink:href="#DejaVuSans-50"/>
     </g>
    </g>
   </g>
   <g id="text_19">
    <g clip-path="url(#p2df77d2715)">
     <!-- PXN -->
     <g transform="translate(690.377135 233.501214)scale(0.12 -0.12)">
      <defs>
       <path d="M 6.296875 72.90625 
L 16.890625 72.90625 
L 35.015625 45.796875 
L 53.21875 72.90625 
L 63.8125 72.90625 
L 40.375 37.890625 
L 65.375 0 
L 54.78125 0 
L 34.28125 31 
L 13.625 0 
L 2.984375 0 
L 29 38.921875 
z
" id="DejaVuSans-88"/>
      </defs>
      <use xlink:href="#DejaVuSans-80"/>
      <use x="60.302734" xlink:href="#DejaVuSans-88"/>
      <use x="128.808594" xlink:href="#DejaVuSans-78"/>
     </g>
    </g>
   </g>
   <g id="text_20">
    <g clip-path="url(#p2df77d2715)">
     <!-- NCF1 -->
     <g transform="translate(290.820546 250.466565)scale(0.12 -0.12)">
      <use xlink:href="#DejaVuSans-78"/>
      <use x="74.804688" xlink:href="#DejaVuSans-67"/>
      <use x="144.628906" xlink:href="#DejaVuSans-70"/>
      <use x="202.148438" xlink:href="#DejaVuSans-49"/>
     </g>
    </g>
   </g>
   <g id="text_21">
    <g clip-path="url(#p2df77d2715)">
     <!-- RAC1 -->
     <g transform="translate(242.384101 230.951325)scale(0.12 -0.12)">
      <use xlink:href="#DejaVuSans-82"/>
      <use x="65.482422" xlink:href="#DejaVuSans-65"/>
      <use x="132.140625" xlink:href="#DejaVuSans-67"/>
      <use x="201.964844" xlink:href="#DejaVuSans-49"/>
     </g>
    </g>
   </g>
   <g id="text_22">
    <g clip-path="url(#p2df77d2715)">
     <!-- NCF4 -->
     <g transform="translate(267.111618 255.477587)scale(0.12 -0.12)">
      <use xlink:href="#DejaVuSans-78"/>
      <use x="74.804688" xlink:href="#DejaVuSans-67"/>
      <use x="144.628906" xlink:href="#DejaVuSans-70"/>
      <use x="202.148438" xlink:href="#DejaVuSans-52"/>
     </g>
    </g>
   </g>
   <g id="text_23">
    <g clip-path="url(#p2df77d2715)">
     <!-- RASSF5 -->
     <g transform="translate(424.791228 380.937482)scale(0.12 -0.12)">
      <use xlink:href="#DejaVuSans-82"/>
      <use x="65.482422" xlink:href="#DejaVuSans-65"/>
      <use x="133.890625" xlink:href="#DejaVuSans-83"/>
      <use x="197.367188" xlink:href="#DejaVuSans-83"/>
      <use x="260.84375" xlink:href="#DejaVuSans-70"/>
      <use x="318.363281" xlink:href="#DejaVuSans-53"/>
     </g>
    </g>
   </g>
   <g id="text_24">
    <g clip-path="url(#p2df77d2715)">
     <!-- PTK2B -->
     <g transform="translate(581.361162 435.13404)scale(0.12 -0.12)">
      <use xlink:href="#DejaVuSans-80"/>
      <use x="60.302734" xlink:href="#DejaVuSans-84"/>
      <use x="121.386719" xlink:href="#DejaVuSans-75"/>
      <use x="186.962891" xlink:href="#DejaVuSans-50"/>
      <use x="250.585938" xlink:href="#DejaVuSans-66"/>
     </g>
    </g>
   </g>
   <g id="text_25">
    <g clip-path="url(#p2df77d2715)">
     <!-- CXCL12 -->
     <g transform="translate(492.007197 429.002326)scale(0.12 -0.12)">
      <use xlink:href="#DejaVuSans-67"/>
      <use x="69.824219" xlink:href="#DejaVuSans-88"/>
      <use x="131.080078" xlink:href="#DejaVuSans-67"/>
      <use x="200.904297" xlink:href="#DejaVuSans-76"/>
      <use x="256.617188" xlink:href="#DejaVuSans-49"/>
      <use x="320.240234" xlink:href="#DejaVuSans-50"/>
     </g>
    </g>
   </g>
   <g id="text_26">
    <g clip-path="url(#p2df77d2715)">
     <!-- CXCR4 -->
     <g transform="translate(420.538455 449.723278)scale(0.12 -0.12)">
      <use xlink:href="#DejaVuSans-67"/>
      <use x="69.824219" xlink:href="#DejaVuSans-88"/>
      <use x="131.080078" xlink:href="#DejaVuSans-67"/>
      <use x="200.904297" xlink:href="#DejaVuSans-82"/>
      <use x="270.386719" xlink:href="#DejaVuSans-52"/>
     </g>
    </g>
   </g>
   <g id="text_27">
    <g clip-path="url(#p2df77d2715)">
     <!-- THY1 -->
     <g transform="translate(346.014294 278.810793)scale(0.12 -0.12)">
      <use xlink:href="#DejaVuSans-84"/>
      <use x="61.083984" xlink:href="#DejaVuSans-72"/>
      <use x="136.279297" xlink:href="#DejaVuSans-89"/>
      <use x="197.363281" xlink:href="#DejaVuSans-49"/>
     </g>
    </g>
   </g>
   <g id="text_28">
    <g clip-path="url(#p2df77d2715)">
     <!-- VCAM1 -->
     <g transform="translate(425.736674 323.285851)scale(0.12 -0.12)">
      <defs>
       <path d="M 28.609375 0 
L 0.78125 72.90625 
L 11.078125 72.90625 
L 34.1875 11.53125 
L 57.328125 72.90625 
L 67.578125 72.90625 
L 39.796875 0 
z
" id="DejaVuSans-86"/>
      </defs>
      <use xlink:href="#DejaVuSans-86"/>
      <use x="68.408203" xlink:href="#DejaVuSans-67"/>
      <use x="138.232422" xlink:href="#DejaVuSans-65"/>
      <use x="206.640625" xlink:href="#DejaVuSans-77"/>
      <use x="292.919922" xlink:href="#DejaVuSans-49"/>
     </g>
    </g>
   </g>
   <g id="text_29">
    <g clip-path="url(#p2df77d2715)">
     <!-- ICAM1 -->
     <g transform="translate(520.591088 251.05096)scale(0.12 -0.12)">
      <use xlink:href="#DejaVuSans-73"/>
      <use x="29.492188" xlink:href="#DejaVuSans-67"/>
      <use x="99.316406" xlink:href="#DejaVuSans-65"/>
      <use x="167.724609" xlink:href="#DejaVuSans-77"/>
      <use x="254.003906" xlink:href="#DejaVuSans-49"/>
     </g>
    </g>
   </g>
   <g id="text_30">
    <g clip-path="url(#p2df77d2715)">
     <!-- OCLN -->
     <g transform="translate(610.982869 302.820955)scale(0.12 -0.12)">
      <use xlink:href="#DejaVuSans-79"/>
      <use x="78.710938" xlink:href="#DejaVuSans-67"/>
      <use x="148.535156" xlink:href="#DejaVuSans-76"/>
      <use x="204.248047" xlink:href="#DejaVuSans-78"/>
     </g>
    </g>
   </g>
   <g id="text_31">
    <g clip-path="url(#p2df77d2715)">
     <!-- ESAM -->
     <g transform="translate(667.761269 216.282264)scale(0.12 -0.12)">
      <use xlink:href="#DejaVuSans-69"/>
      <use x="63.183594" xlink:href="#DejaVuSans-83"/>
      <use x="128.535156" xlink:href="#DejaVuSans-65"/>
      <use x="196.943359" xlink:href="#DejaVuSans-77"/>
     </g>
    </g>
   </g>
   <g id="text_32">
    <g clip-path="url(#p2df77d2715)">
     <!-- MMP2 -->
     <g transform="translate(220.21625 419.427543)scale(0.12 -0.12)">
      <use xlink:href="#DejaVuSans-77"/>
      <use x="86.279297" xlink:href="#DejaVuSans-77"/>
      <use x="172.558594" xlink:href="#DejaVuSans-80"/>
      <use x="232.861328" xlink:href="#DejaVuSans-50"/>
     </g>
    </g>
   </g>
   <g id="text_33">
    <g clip-path="url(#p2df77d2715)">
     <!-- MMP9 -->
     <g transform="translate(419.025123 110.918523)scale(0.12 -0.12)">
      <defs>
       <path d="M 10.984375 1.515625 
L 10.984375 10.5 
Q 14.703125 8.734375 18.5 7.8125 
Q 22.3125 6.890625 25.984375 6.890625 
Q 35.75 6.890625 40.890625 13.453125 
Q 46.046875 20.015625 46.78125 33.40625 
Q 43.953125 29.203125 39.59375 26.953125 
Q 35.25 24.703125 29.984375 24.703125 
Q 19.046875 24.703125 12.671875 31.3125 
Q 6.296875 37.9375 6.296875 49.421875 
Q 6.296875 60.640625 12.9375 67.421875 
Q 19.578125 74.21875 30.609375 74.21875 
Q 43.265625 74.21875 49.921875 64.515625 
Q 56.59375 54.828125 56.59375 36.375 
Q 56.59375 19.140625 48.40625 8.859375 
Q 40.234375 -1.421875 26.421875 -1.421875 
Q 22.703125 -1.421875 18.890625 -0.6875 
Q 15.09375 0.046875 10.984375 1.515625 
z
M 30.609375 32.421875 
Q 37.25 32.421875 41.125 36.953125 
Q 45.015625 41.5 45.015625 49.421875 
Q 45.015625 57.28125 41.125 61.84375 
Q 37.25 66.40625 30.609375 66.40625 
Q 23.96875 66.40625 20.09375 61.84375 
Q 16.21875 57.28125 16.21875 49.421875 
Q 16.21875 41.5 20.09375 36.953125 
Q 23.96875 32.421875 30.609375 32.421875 
z
" id="DejaVuSans-57"/>
      </defs>
      <use xlink:href="#DejaVuSans-77"/>
      <use x="86.279297" xlink:href="#DejaVuSans-77"/>
      <use x="172.558594" xlink:href="#DejaVuSans-80"/>
      <use x="232.861328" xlink:href="#DejaVuSans-57"/>
     </g>
    </g>
   </g>
   <g id="text_34">
    <g clip-path="url(#p2df77d2715)">
     <!-- MYL2 -->
     <g transform="translate(368.12961 123.648729)scale(0.12 -0.12)">
      <use xlink:href="#DejaVuSans-77"/>
      <use x="86.279297" xlink:href="#DejaVuSans-89"/>
      <use x="147.363281" xlink:href="#DejaVuSans-76"/>
      <use x="203.076172" xlink:href="#DejaVuSans-50"/>
     </g>
    </g>
   </g>
   <g id="text_35">
    <g clip-path="url(#p2df77d2715)">
     <!-- MYL5 -->
     <g transform="translate(647.381812 421.501901)scale(0.12 -0.12)">
      <use xlink:href="#DejaVuSans-77"/>
      <use x="86.279297" xlink:href="#DejaVuSans-89"/>
      <use x="147.363281" xlink:href="#DejaVuSans-76"/>
      <use x="203.076172" xlink:href="#DejaVuSans-53"/>
     </g>
    </g>
   </g>
   <g id="text_36">
    <g clip-path="url(#p2df77d2715)">
     <!-- MYL7 -->
     <g transform="translate(697.185871 345.808987)scale(0.12 -0.12)">
      <defs>
       <path d="M 8.203125 72.90625 
L 55.078125 72.90625 
L 55.078125 68.703125 
L 28.609375 0 
L 18.3125 0 
L 43.21875 64.59375 
L 8.203125 64.59375 
z
" id="DejaVuSans-55"/>
      </defs>
      <use xlink:href="#DejaVuSans-77"/>
      <use x="86.279297" xlink:href="#DejaVuSans-89"/>
      <use x="147.363281" xlink:href="#DejaVuSans-76"/>
      <use x="203.076172" xlink:href="#DejaVuSans-55"/>
     </g>
    </g>
   </g>
   <g id="text_37">
    <g clip-path="url(#p2df77d2715)">
     <!-- MYL9 -->
     <g transform="translate(150.103598 327.33575)scale(0.12 -0.12)">
      <use xlink:href="#DejaVuSans-77"/>
      <use x="86.279297" xlink:href="#DejaVuSans-89"/>
      <use x="147.363281" xlink:href="#DejaVuSans-76"/>
      <use x="203.076172" xlink:href="#DejaVuSans-57"/>
     </g>
    </g>
   </g>
   <g id="text_38">
    <g clip-path="url(#p2df77d2715)">
     <!-- MYL10 -->
     <g transform="translate(514.699166 115.914694)scale(0.12 -0.12)">
      <defs>
       <path d="M 31.78125 66.40625 
Q 24.171875 66.40625 20.328125 58.90625 
Q 16.5 51.421875 16.5 36.375 
Q 16.5 21.390625 20.328125 13.890625 
Q 24.171875 6.390625 31.78125 6.390625 
Q 39.453125 6.390625 43.28125 13.890625 
Q 47.125 21.390625 47.125 36.375 
Q 47.125 51.421875 43.28125 58.90625 
Q 39.453125 66.40625 31.78125 66.40625 
z
M 31.78125 74.21875 
Q 44.046875 74.21875 50.515625 64.515625 
Q 56.984375 54.828125 56.984375 36.375 
Q 56.984375 17.96875 50.515625 8.265625 
Q 44.046875 -1.421875 31.78125 -1.421875 
Q 19.53125 -1.421875 13.0625 8.265625 
Q 6.59375 17.96875 6.59375 36.375 
Q 6.59375 54.828125 13.0625 64.515625 
Q 19.53125 74.21875 31.78125 74.21875 
z
" id="DejaVuSans-48"/>
      </defs>
      <use xlink:href="#DejaVuSans-77"/>
      <use x="86.279297" xlink:href="#DejaVuSans-89"/>
      <use x="147.363281" xlink:href="#DejaVuSans-76"/>
      <use x="203.076172" xlink:href="#DejaVuSans-49"/>
      <use x="266.699219" xlink:href="#DejaVuSans-48"/>
     </g>
    </g>
   </g>
   <g id="text_39">
    <g clip-path="url(#p2df77d2715)">
     <!-- MYLPF -->
     <g transform="translate(523.304161 468.828581)scale(0.12 -0.12)">
      <use xlink:href="#DejaVuSans-77"/>
      <use x="86.279297" xlink:href="#DejaVuSans-89"/>
      <use x="147.363281" xlink:href="#DejaVuSans-76"/>
      <use x="203.076172" xlink:href="#DejaVuSans-80"/>
      <use x="263.378906" xlink:href="#DejaVuSans-70"/>
     </g>
    </g>
   </g>
   <g id="text_40">
    <g clip-path="url(#p2df77d2715)">
     <!-- ROCK1 -->
     <g transform="translate(462.694636 301.241172)scale(0.12 -0.12)">
      <use xlink:href="#DejaVuSans-82"/>
      <use x="69.482422" xlink:href="#DejaVuSans-79"/>
      <use x="148.193359" xlink:href="#DejaVuSans-67"/>
      <use x="218.017578" xlink:href="#DejaVuSans-75"/>
      <use x="283.59375" xlink:href="#DejaVuSans-49"/>
     </g>
    </g>
   </g>
   <g id="text_41">
    <g clip-path="url(#p2df77d2715)">
     <!-- ROCK2 -->
     <g transform="translate(471.183984 295.069886)scale(0.12 -0.12)">
      <use xlink:href="#DejaVuSans-82"/>
      <use x="69.482422" xlink:href="#DejaVuSans-79"/>
      <use x="148.193359" xlink:href="#DejaVuSans-67"/>
      <use x="218.017578" xlink:href="#DejaVuSans-75"/>
      <use x="283.59375" xlink:href="#DejaVuSans-50"/>
     </g>
    </g>
   </g>
   <g id="text_42">
    <g clip-path="url(#p2df77d2715)">
     <!-- PRKCA -->
     <g transform="translate(490.478696 214.641637)scale(0.12 -0.12)">
      <use xlink:href="#DejaVuSans-80"/>
      <use x="60.302734" xlink:href="#DejaVuSans-82"/>
      <use x="129.785156" xlink:href="#DejaVuSans-75"/>
      <use x="189.861328" xlink:href="#DejaVuSans-67"/>
      <use x="259.685547" xlink:href="#DejaVuSans-65"/>
     </g>
    </g>
   </g>
   <g id="text_43">
    <g clip-path="url(#p2df77d2715)">
     <!-- PRKCB -->
     <g transform="translate(504.084772 203.237336)scale(0.12 -0.12)">
      <use xlink:href="#DejaVuSans-80"/>
      <use x="60.302734" xlink:href="#DejaVuSans-82"/>
      <use x="129.785156" xlink:href="#DejaVuSans-75"/>
      <use x="189.861328" xlink:href="#DejaVuSans-67"/>
      <use x="259.685547" xlink:href="#DejaVuSans-66"/>
     </g>
    </g>
   </g>
   <g id="text_44">
    <g clip-path="url(#p2df77d2715)">
     <!-- PRKCG -->
     <g transform="translate(484.207927 243.386516)scale(0.12 -0.12)">
      <use xlink:href="#DejaVuSans-80"/>
      <use x="60.302734" xlink:href="#DejaVuSans-82"/>
      <use x="129.785156" xlink:href="#DejaVuSans-75"/>
      <use x="189.861328" xlink:href="#DejaVuSans-67"/>
      <use x="259.685547" xlink:href="#DejaVuSans-71"/>
     </g>
    </g>
   </g>
   <g id="text_45">
    <g clip-path="url(#p2df77d2715)">
     <!-- ARHGAP35 -->
     <g transform="translate(307.194898 207.600636)scale(0.12 -0.12)">
      <use xlink:href="#DejaVuSans-65"/>
      <use x="68.408203" xlink:href="#DejaVuSans-82"/>
      <use x="137.890625" xlink:href="#DejaVuSans-72"/>
      <use x="213.085938" xlink:href="#DejaVuSans-71"/>
      <use x="290.576172" xlink:href="#DejaVuSans-65"/>
      <use x="358.984375" xlink:href="#DejaVuSans-80"/>
      <use x="419.287109" xlink:href="#DejaVuSans-51"/>
      <use x="482.910156" xlink:href="#DejaVuSans-53"/>
     </g>
    </g>
   </g>
   <g id="text_46">
    <g clip-path="url(#p2df77d2715)">
     <!-- ARHGAP5 -->
     <g transform="translate(372.502572 170.788122)scale(0.12 -0.12)">
      <use xlink:href="#DejaVuSans-65"/>
      <use x="68.408203" xlink:href="#DejaVuSans-82"/>
      <use x="137.890625" xlink:href="#DejaVuSans-72"/>
      <use x="213.085938" xlink:href="#DejaVuSans-71"/>
      <use x="290.576172" xlink:href="#DejaVuSans-65"/>
      <use x="358.984375" xlink:href="#DejaVuSans-80"/>
      <use x="419.287109" xlink:href="#DejaVuSans-53"/>
     </g>
    </g>
   </g>
   <g id="text_47">
    <g clip-path="url(#p2df77d2715)">
     <!-- RAP1A -->
     <g transform="translate(473.054673 340.046836)scale(0.12 -0.12)">
      <use xlink:href="#DejaVuSans-82"/>
      <use x="65.482422" xlink:href="#DejaVuSans-65"/>
      <use x="133.890625" xlink:href="#DejaVuSans-80"/>
      <use x="194.193359" xlink:href="#DejaVuSans-49"/>
      <use x="257.816406" xlink:href="#DejaVuSans-65"/>
     </g>
    </g>
   </g>
   <g id="text_48">
    <g clip-path="url(#p2df77d2715)">
     <!-- RAP1B -->
     <g transform="translate(460.341372 337.59382)scale(0.12 -0.12)">
      <use xlink:href="#DejaVuSans-82"/>
      <use x="65.482422" xlink:href="#DejaVuSans-65"/>
      <use x="133.890625" xlink:href="#DejaVuSans-80"/>
      <use x="194.193359" xlink:href="#DejaVuSans-49"/>
      <use x="257.816406" xlink:href="#DejaVuSans-66"/>
     </g>
    </g>
   </g>
   <g id="text_49">
    <g clip-path="url(#p2df77d2715)">
     <!-- MSN -->
     <g transform="translate(472.988423 356.127418)scale(0.12 -0.12)">
      <use xlink:href="#DejaVuSans-77"/>
      <use x="86.279297" xlink:href="#DejaVuSans-83"/>
      <use x="149.755859" xlink:href="#DejaVuSans-78"/>
     </g>
    </g>
   </g>
   <g id="text_50">
    <g clip-path="url(#p2df77d2715)">
     <!-- EZR -->
     <g transform="translate(665.873577 249.523516)scale(0.12 -0.12)">
      <defs>
       <path d="M 5.609375 72.90625 
L 62.890625 72.90625 
L 62.890625 65.375 
L 16.796875 8.296875 
L 64.015625 8.296875 
L 64.015625 0 
L 4.5 0 
L 4.5 7.515625 
L 50.59375 64.59375 
L 5.609375 64.59375 
z
" id="DejaVuSans-90"/>
      </defs>
      <use xlink:href="#DejaVuSans-69"/>
      <use x="63.183594" xlink:href="#DejaVuSans-90"/>
      <use x="131.689453" xlink:href="#DejaVuSans-82"/>
     </g>
    </g>
   </g>
   <g id="text_51">
    <g clip-path="url(#p2df77d2715)">
     <!-- RAPGEF4 -->
     <g transform="translate(419.202954 306.388955)scale(0.12 -0.12)">
      <use xlink:href="#DejaVuSans-82"/>
      <use x="65.482422" xlink:href="#DejaVuSans-65"/>
      <use x="133.890625" xlink:href="#DejaVuSans-80"/>
      <use x="194.193359" xlink:href="#DejaVuSans-71"/>
      <use x="271.683594" xlink:href="#DejaVuSans-69"/>
      <use x="334.867188" xlink:href="#DejaVuSans-70"/>
      <use x="392.386719" xlink:href="#DejaVuSans-52"/>
     </g>
    </g>
   </g>
   <g id="text_52">
    <g clip-path="url(#p2df77d2715)">
     <!-- RAPGEF3 -->
     <g transform="translate(455.416397 404.27288)scale(0.12 -0.12)">
      <use xlink:href="#DejaVuSans-82"/>
      <use x="65.482422" xlink:href="#DejaVuSans-65"/>
      <use x="133.890625" xlink:href="#DejaVuSans-80"/>
      <use x="194.193359" xlink:href="#DejaVuSans-71"/>
      <use x="271.683594" xlink:href="#DejaVuSans-69"/>
      <use x="334.867188" xlink:href="#DejaVuSans-70"/>
      <use x="392.386719" xlink:href="#DejaVuSans-51"/>
     </g>
    </g>
   </g>
   <g id="text_53">
    <g clip-path="url(#p2df77d2715)">
     <!-- PLCG1 -->
     <g transform="translate(509.987213 280.770848)scale(0.12 -0.12)">
      <use xlink:href="#DejaVuSans-80"/>
      <use x="60.302734" xlink:href="#DejaVuSans-76"/>
      <use x="116.015625" xlink:href="#DejaVuSans-67"/>
      <use x="185.839844" xlink:href="#DejaVuSans-71"/>
      <use x="263.330078" xlink:href="#DejaVuSans-49"/>
     </g>
    </g>
   </g>
   <g id="text_54">
    <g clip-path="url(#p2df77d2715)">
     <!-- PLCG2 -->
     <g transform="translate(415.913081 247.443617)scale(0.12 -0.12)">
      <use xlink:href="#DejaVuSans-80"/>
      <use x="60.302734" xlink:href="#DejaVuSans-76"/>
      <use x="116.015625" xlink:href="#DejaVuSans-67"/>
      <use x="185.839844" xlink:href="#DejaVuSans-71"/>
      <use x="263.330078" xlink:href="#DejaVuSans-50"/>
     </g>
    </g>
   </g>
   <g id="text_55">
    <!-- Frame: 11 -->
    <g transform="translate(121.392 91.296)scale(0.1 -0.1)">
     <defs>
      <path d="M 41.109375 46.296875 
Q 39.59375 47.171875 37.8125 47.578125 
Q 36.03125 48 33.890625 48 
Q 26.265625 48 22.1875 43.046875 
Q 18.109375 38.09375 18.109375 28.8125 
L 18.109375 0 
L 9.078125 0 
L 9.078125 54.6875 
L 18.109375 54.6875 
L 18.109375 46.1875 
Q 20.953125 51.171875 25.484375 53.578125 
Q 30.03125 56 36.53125 56 
Q 37.453125 56 38.578125 55.875 
Q 39.703125 55.765625 41.0625 55.515625 
z
" id="DejaVuSans-114"/>
      <path d="M 34.28125 27.484375 
Q 23.390625 27.484375 19.1875 25 
Q 14.984375 22.515625 14.984375 16.5 
Q 14.984375 11.71875 18.140625 8.90625 
Q 21.296875 6.109375 26.703125 6.109375 
Q 34.1875 6.109375 38.703125 11.40625 
Q 43.21875 16.703125 43.21875 25.484375 
L 43.21875 27.484375 
z
M 52.203125 31.203125 
L 52.203125 0 
L 43.21875 0 
L 43.21875 8.296875 
Q 40.140625 3.328125 35.546875 0.953125 
Q 30.953125 -1.421875 24.3125 -1.421875 
Q 15.921875 -1.421875 10.953125 3.296875 
Q 6 8.015625 6 15.921875 
Q 6 25.140625 12.171875 29.828125 
Q 18.359375 34.515625 30.609375 34.515625 
L 43.21875 34.515625 
L 43.21875 35.40625 
Q 43.21875 41.609375 39.140625 45 
Q 35.0625 48.390625 27.6875 48.390625 
Q 23 48.390625 18.546875 47.265625 
Q 14.109375 46.140625 10.015625 43.890625 
L 10.015625 52.203125 
Q 14.9375 54.109375 19.578125 55.046875 
Q 24.21875 56 28.609375 56 
Q 40.484375 56 46.34375 49.84375 
Q 52.203125 43.703125 52.203125 31.203125 
z
" id="DejaVuSans-97"/>
      <path d="M 52 44.1875 
Q 55.375 50.25 60.0625 53.125 
Q 64.75 56 71.09375 56 
Q 79.640625 56 84.28125 50.015625 
Q 88.921875 44.046875 88.921875 33.015625 
L 88.921875 0 
L 79.890625 0 
L 79.890625 32.71875 
Q 79.890625 40.578125 77.09375 44.375 
Q 74.3125 48.1875 68.609375 48.1875 
Q 61.625 48.1875 57.5625 43.546875 
Q 53.515625 38.921875 53.515625 30.90625 
L 53.515625 0 
L 44.484375 0 
L 44.484375 32.71875 
Q 44.484375 40.625 41.703125 44.40625 
Q 38.921875 48.1875 33.109375 48.1875 
Q 26.21875 48.1875 22.15625 43.53125 
Q 18.109375 38.875 18.109375 30.90625 
L 18.109375 0 
L 9.078125 0 
L 9.078125 54.6875 
L 18.109375 54.6875 
L 18.109375 46.1875 
Q 21.1875 51.21875 25.484375 53.609375 
Q 29.78125 56 35.6875 56 
Q 41.65625 56 45.828125 52.96875 
Q 50 49.953125 52 44.1875 
z
" id="DejaVuSans-109"/>
      <path d="M 56.203125 29.59375 
L 56.203125 25.203125 
L 14.890625 25.203125 
Q 15.484375 15.921875 20.484375 11.0625 
Q 25.484375 6.203125 34.421875 6.203125 
Q 39.59375 6.203125 44.453125 7.46875 
Q 49.3125 8.734375 54.109375 11.28125 
L 54.109375 2.78125 
Q 49.265625 0.734375 44.1875 -0.34375 
Q 39.109375 -1.421875 33.890625 -1.421875 
Q 20.796875 -1.421875 13.15625 6.1875 
Q 5.515625 13.8125 5.515625 26.8125 
Q 5.515625 40.234375 12.765625 48.109375 
Q 20.015625 56 32.328125 56 
Q 43.359375 56 49.78125 48.890625 
Q 56.203125 41.796875 56.203125 29.59375 
z
M 47.21875 32.234375 
Q 47.125 39.59375 43.09375 43.984375 
Q 39.0625 48.390625 32.421875 48.390625 
Q 24.90625 48.390625 20.390625 44.140625 
Q 15.875 39.890625 15.1875 32.171875 
z
" id="DejaVuSans-101"/>
      <path d="M 11.71875 12.40625 
L 22.015625 12.40625 
L 22.015625 0 
L 11.71875 0 
z
M 11.71875 51.703125 
L 22.015625 51.703125 
L 22.015625 39.3125 
L 11.71875 39.3125 
z
" id="DejaVuSans-58"/>
      <path id="DejaVuSans-32"/>
     </defs>
     <use xlink:href="#DejaVuSans-70"/>
     <use x="50.269531" xlink:href="#DejaVuSans-114"/>
     <use x="91.382812" xlink:href="#DejaVuSans-97"/>
     <use x="152.662109" xlink:href="#DejaVuSans-109"/>
     <use x="250.074219" xlink:href="#DejaVuSans-101"/>
     <use x="311.597656" xlink:href="#DejaVuSans-58"/>
     <use x="345.289062" xlink:href="#DejaVuSans-32"/>
     <use x="377.076172" xlink:href="#DejaVuSans-49"/>
     <use x="440.699219" xlink:href="#DejaVuSans-49"/>
    </g>
   </g>
   <g id="text_56">
    <!-- Network: hsa04670 -->
    <g transform="translate(384.1275 63.12)scale(0.12 -0.12)">
     <defs>
      <path d="M 18.3125 70.21875 
L 18.3125 54.6875 
L 36.8125 54.6875 
L 36.8125 47.703125 
L 18.3125 47.703125 
L 18.3125 18.015625 
Q 18.3125 11.328125 20.140625 9.421875 
Q 21.96875 7.515625 27.59375 7.515625 
L 36.8125 7.515625 
L 36.8125 0 
L 27.59375 0 
Q 17.1875 0 13.234375 3.875 
Q 9.28125 7.765625 9.28125 18.015625 
L 9.28125 47.703125 
L 2.6875 47.703125 
L 2.6875 54.6875 
L 9.28125 54.6875 
L 9.28125 70.21875 
z
" id="DejaVuSans-116"/>
      <path d="M 4.203125 54.6875 
L 13.1875 54.6875 
L 24.421875 12.015625 
L 35.59375 54.6875 
L 46.1875 54.6875 
L 57.421875 12.015625 
L 68.609375 54.6875 
L 77.59375 54.6875 
L 63.28125 0 
L 52.6875 0 
L 40.921875 44.828125 
L 29.109375 0 
L 18.5 0 
z
" id="DejaVuSans-119"/>
      <path d="M 30.609375 48.390625 
Q 23.390625 48.390625 19.1875 42.75 
Q 14.984375 37.109375 14.984375 27.296875 
Q 14.984375 17.484375 19.15625 11.84375 
Q 23.34375 6.203125 30.609375 6.203125 
Q 37.796875 6.203125 41.984375 11.859375 
Q 46.1875 17.53125 46.1875 27.296875 
Q 46.1875 37.015625 41.984375 42.703125 
Q 37.796875 48.390625 30.609375 48.390625 
z
M 30.609375 56 
Q 42.328125 56 49.015625 48.375 
Q 55.71875 40.765625 55.71875 27.296875 
Q 55.71875 13.875 49.015625 6.21875 
Q 42.328125 -1.421875 30.609375 -1.421875 
Q 18.84375 -1.421875 12.171875 6.21875 
Q 5.515625 13.875 5.515625 27.296875 
Q 5.515625 40.765625 12.171875 48.375 
Q 18.84375 56 30.609375 56 
z
" id="DejaVuSans-111"/>
      <path d="M 9.078125 75.984375 
L 18.109375 75.984375 
L 18.109375 31.109375 
L 44.921875 54.6875 
L 56.390625 54.6875 
L 27.390625 29.109375 
L 57.625 0 
L 45.90625 0 
L 18.109375 26.703125 
L 18.109375 0 
L 9.078125 0 
z
" id="DejaVuSans-107"/>
      <path d="M 54.890625 33.015625 
L 54.890625 0 
L 45.90625 0 
L 45.90625 32.71875 
Q 45.90625 40.484375 42.875 44.328125 
Q 39.84375 48.1875 33.796875 48.1875 
Q 26.515625 48.1875 22.3125 43.546875 
Q 18.109375 38.921875 18.109375 30.90625 
L 18.109375 0 
L 9.078125 0 
L 9.078125 75.984375 
L 18.109375 75.984375 
L 18.109375 46.1875 
Q 21.34375 51.125 25.703125 53.5625 
Q 30.078125 56 35.796875 56 
Q 45.21875 56 50.046875 50.171875 
Q 54.890625 44.34375 54.890625 33.015625 
z
" id="DejaVuSans-104"/>
      <path d="M 44.28125 53.078125 
L 44.28125 44.578125 
Q 40.484375 46.53125 36.375 47.5 
Q 32.28125 48.484375 27.875 48.484375 
Q 21.1875 48.484375 17.84375 46.4375 
Q 14.5 44.390625 14.5 40.28125 
Q 14.5 37.15625 16.890625 35.375 
Q 19.28125 33.59375 26.515625 31.984375 
L 29.59375 31.296875 
Q 39.15625 29.25 43.1875 25.515625 
Q 47.21875 21.78125 47.21875 15.09375 
Q 47.21875 7.46875 41.1875 3.015625 
Q 35.15625 -1.421875 24.609375 -1.421875 
Q 20.21875 -1.421875 15.453125 -0.5625 
Q 10.6875 0.296875 5.421875 2 
L 5.421875 11.28125 
Q 10.40625 8.6875 15.234375 7.390625 
Q 20.0625 6.109375 24.8125 6.109375 
Q 31.15625 6.109375 34.5625 8.28125 
Q 37.984375 10.453125 37.984375 14.40625 
Q 37.984375 18.0625 35.515625 20.015625 
Q 33.0625 21.96875 24.703125 23.78125 
L 21.578125 24.515625 
Q 13.234375 26.265625 9.515625 29.90625 
Q 5.8125 33.546875 5.8125 39.890625 
Q 5.8125 47.609375 11.28125 51.796875 
Q 16.75 56 26.8125 56 
Q 31.78125 56 36.171875 55.265625 
Q 40.578125 54.546875 44.28125 53.078125 
z
" id="DejaVuSans-115"/>
      <path d="M 33.015625 40.375 
Q 26.375 40.375 22.484375 35.828125 
Q 18.609375 31.296875 18.609375 23.390625 
Q 18.609375 15.53125 22.484375 10.953125 
Q 26.375 6.390625 33.015625 6.390625 
Q 39.65625 6.390625 43.53125 10.953125 
Q 47.40625 15.53125 47.40625 23.390625 
Q 47.40625 31.296875 43.53125 35.828125 
Q 39.65625 40.375 33.015625 40.375 
z
M 52.59375 71.296875 
L 52.59375 62.3125 
Q 48.875 64.0625 45.09375 64.984375 
Q 41.3125 65.921875 37.59375 65.921875 
Q 27.828125 65.921875 22.671875 59.328125 
Q 17.53125 52.734375 16.796875 39.40625 
Q 19.671875 43.65625 24.015625 45.921875 
Q 28.375 48.1875 33.59375 48.1875 
Q 44.578125 48.1875 50.953125 41.515625 
Q 57.328125 34.859375 57.328125 23.390625 
Q 57.328125 12.15625 50.6875 5.359375 
Q 44.046875 -1.421875 33.015625 -1.421875 
Q 20.359375 -1.421875 13.671875 8.265625 
Q 6.984375 17.96875 6.984375 36.375 
Q 6.984375 53.65625 15.1875 63.9375 
Q 23.390625 74.21875 37.203125 74.21875 
Q 40.921875 74.21875 44.703125 73.484375 
Q 48.484375 72.75 52.59375 71.296875 
z
" id="DejaVuSans-54"/>
     </defs>
     <use xlink:href="#DejaVuSans-78"/>
     <use x="74.804688" xlink:href="#DejaVuSans-101"/>
     <use x="136.328125" xlink:href="#DejaVuSans-116"/>
     <use x="175.537109" xlink:href="#DejaVuSans-119"/>
     <use x="257.324219" xlink:href="#DejaVuSans-111"/>
     <use x="318.505859" xlink:href="#DejaVuSans-114"/>
     <use x="359.619141" xlink:href="#DejaVuSans-107"/>
     <use x="417.529297" xlink:href="#DejaVuSans-58"/>
     <use x="451.220703" xlink:href="#DejaVuSans-32"/>
     <use x="483.007812" xlink:href="#DejaVuSans-104"/>
     <use x="546.386719" xlink:href="#DejaVuSans-115"/>
     <use x="598.486328" xlink:href="#DejaVuSans-97"/>
     <use x="659.765625" xlink:href="#DejaVuSans-48"/>
     <use x="723.388672" xlink:href="#DejaVuSans-52"/>
     <use x="787.011719" xlink:href="#DejaVuSans-54"/>
     <use x="850.634766" xlink:href="#DejaVuSans-55"/>
     <use x="914.257812" xlink:href="#DejaVuSans-48"/>
    </g>
   </g>
  </g>
 </g>
 <defs>
  <clipPath id="p2df77d2715">
   <rect height="443.52" width="669.6" x="108" y="69.12"/>
  </clipPath>
 </defs>
</svg>
