<?xml version="1.0" encoding="utf-8" standalone="no"?>
<!DOCTYPE svg PUBLIC "-//W3C//DTD SVG 1.1//EN"
  "http://www.w3.org/Graphics/SVG/1.1/DTD/svg11.dtd">
<!-- Created with matplotlib (https://matplotlib.org/) -->
<svg height="473.038125pt" version="1.1" viewBox="0 0 684 473.038125" width="684pt" xmlns="http://www.w3.org/2000/svg" xmlns:xlink="http://www.w3.org/1999/xlink">
 <metadata>
  <rdf:RDF xmlns:cc="http://creativecommons.org/ns#" xmlns:dc="http://purl.org/dc/elements/1.1/" xmlns:rdf="http://www.w3.org/1999/02/22-rdf-syntax-ns#">
   <cc:Work>
    <dc:type rdf:resource="http://purl.org/dc/dcmitype/StillImage"/>
    <dc:date>2024-04-26T10:56:08.249543</dc:date>
    <dc:format>image/svg+xml</dc:format>
    <dc:creator>
     <cc:Agent>
      <dc:title>Matplotlib v3.3.1, https://matplotlib.org/</dc:title>
     </cc:Agent>
    </dc:creator>
   </cc:Work>
  </rdf:RDF>
 </metadata>
 <defs>
  <style type="text/css">*{stroke-linecap:butt;stroke-linejoin:round;}</style>
 </defs>
 <g id="figure_1">
  <g id="patch_1">
   <path d="M 0 473.038125 
L 684 473.038125 
L 684 0 
L 0 0 
z
" style="fill:#ffffff;"/>
  </g>
  <g id="axes_1">
   <g id="patch_2">
    <path clip-path="url(#pbde53b2b69)" d="M 305.838579 353.003041 
Q 391.18756 375.810901 475.456409 398.330118 
" style="fill:none;stroke:#808080;stroke-linecap:round;"/>
    <path clip-path="url(#pbde53b2b69)" d="M 472.108355 395.365234 
L 475.456409 398.330118 
L 471.07567 399.229631 
L 472.108355 395.365234 
z
" style="fill:#808080;stroke:#808080;stroke-linecap:round;"/>
   </g>
   <g id="patch_3">
    <path clip-path="url(#pbde53b2b69)" d="M 304.145673 345.249418 
Q 319.156169 332.835995 333.305082 321.135087 
" style="fill:none;stroke:#808080;stroke-linecap:round;"/>
    <path clip-path="url(#pbde53b2b69)" d="M 328.948008 322.143008 
L 333.305082 321.135087 
L 331.497175 325.225499 
L 328.948008 322.143008 
z
" style="fill:#808080;stroke:#808080;stroke-linecap:round;"/>
   </g>
   <g id="patch_4">
    <path clip-path="url(#pbde53b2b69)" d="M 305.816964 348.459542 
Q 396.929402 323.257078 486.96427 298.352679 
" style="fill:none;stroke:#808080;stroke-linecap:round;"/>
    <path clip-path="url(#pbde53b2b69)" d="M 482.575844 297.491452 
L 486.96427 298.352679 
L 483.642233 301.346684 
L 482.575844 297.491452 
z
" style="fill:#808080;stroke:#808080;stroke-linecap:round;"/>
   </g>
   <g id="patch_5">
    <path clip-path="url(#pbde53b2b69)" d="M 442.517288 198.058313 
Q 372.977476 271.273033 304.207627 343.6771 
" style="fill:none;stroke:#808080;stroke-linecap:round;"/>
    <path clip-path="url(#pbde53b2b69)" d="M 308.412469 342.154173 
L 304.207627 343.6771 
L 305.512191 339.39947 
L 308.412469 342.154173 
z
" style="fill:#808080;stroke:#808080;stroke-linecap:round;"/>
   </g>
   <g id="patch_6">
    <path clip-path="url(#pbde53b2b69)" d="M 439.828498 192.051644 
Q 324.916254 195.692904 211.121483 199.298754 
" style="fill:none;stroke:#808080;stroke-linecap:round;"/>
    <path clip-path="url(#pbde53b2b69)" d="M 215.182819 201.171065 
L 211.121483 199.298754 
L 215.056134 197.173072 
L 215.182819 201.171065 
z
" style="fill:#808080;stroke:#808080;stroke-linecap:round;"/>
   </g>
   <g id="patch_7">
    <path clip-path="url(#pbde53b2b69)" d="M 452.107286 199.642899 
Q 472.437311 243.762669 492.29944 286.86702 
" style="fill:none;stroke:#808080;stroke-linecap:round;"/>
    <path clip-path="url(#pbde53b2b69)" d="M 492.441878 282.397153 
L 492.29944 286.86702 
L 488.809009 284.071149 
L 492.441878 282.397153 
z
" style="fill:#808080;stroke:#808080;stroke-linecap:round;"/>
   </g>
   <g id="patch_8">
    <path clip-path="url(#pbde53b2b69)" d="M 457.142971 191.759963 
Q 493.742476 191.686238 529.223949 191.614765 
" style="fill:none;stroke:#808080;stroke-linecap:round;"/>
    <path clip-path="url(#pbde53b2b69)" d="M 525.219928 189.622827 
L 529.223949 191.614765 
L 525.227986 193.622818 
L 525.219928 189.622827 
z
" style="fill:#808080;stroke:#808080;stroke-linecap:round;"/>
   </g>
   <g id="patch_9">
    <path clip-path="url(#pbde53b2b69)" d="M 457.061303 190.570673 
Q 510.37305 183.071212 562.577663 175.727494 
" style="fill:none;stroke:#808080;stroke-linecap:round;"/>
    <path clip-path="url(#pbde53b2b69)" d="M 558.338062 174.304195 
L 562.577663 175.727494 
L 558.895263 178.265196 
L 558.338062 174.304195 
z
" style="fill:#808080;stroke:#808080;stroke-linecap:round;"/>
   </g>
   <g id="patch_10">
    <path clip-path="url(#pbde53b2b69)" d="M 477.468889 396.418484 
Q 412.870798 357.87957 349.232852 319.913473 
" style="fill:none;stroke:#808080;stroke-linecap:round;"/>
    <path clip-path="url(#pbde53b2b69)" d="M 351.643284 323.68041 
L 349.232852 319.913473 
L 353.692661 320.245289 
L 351.643284 323.68041 
z
" style="fill:#808080;stroke:#808080;stroke-linecap:round;"/>
   </g>
   <g id="patch_11">
    <path clip-path="url(#pbde53b2b69)" d="M 485.846079 392.249001 
Q 490.647985 348.301359 495.328452 305.465136 
" style="fill:none;stroke:#808080;stroke-linecap:round;"/>
    <path clip-path="url(#pbde53b2b69)" d="M 492.905814 309.224235 
L 495.328452 305.465136 
L 496.882148 309.658706 
L 492.905814 309.224235 
z
" style="fill:#808080;stroke:#808080;stroke-linecap:round;"/>
   </g>
   <g id="patch_12">
    <path clip-path="url(#pbde53b2b69)" d="M 290.852819 103.077515 
Q 282.847025 158.978765 274.999732 213.773273 
" style="fill:none;stroke:#808080;stroke-linecap:round;"/>
    <path clip-path="url(#pbde53b2b69)" d="M 277.546599 210.097206 
L 274.999732 213.773273 
L 273.586999 209.530139 
L 277.546599 210.097206 
z
" style="fill:#808080;stroke:#808080;stroke-linecap:round;"/>
   </g>
   <g id="patch_13">
    <path clip-path="url(#pbde53b2b69)" d="M 293.789281 102.991628 
Q 301.297627 140.29863 308.585382 176.509576 
" style="fill:none;stroke:#808080;stroke-linecap:round;"/>
    <path clip-path="url(#pbde53b2b69)" d="M 309.756859 172.193601 
L 308.585382 176.509576 
L 305.835488 172.982809 
L 309.756859 172.193601 
z
" style="fill:#808080;stroke:#808080;stroke-linecap:round;"/>
   </g>
   <g id="patch_14">
    <path clip-path="url(#pbde53b2b69)" d="M 298.495534 100.324147 
Q 351.026606 147.996196 402.729745 194.916895 
" style="fill:none;stroke:#808080;stroke-linecap:round;"/>
    <path clip-path="url(#pbde53b2b69)" d="M 401.111699 190.74773 
L 402.729745 194.916895 
L 398.423586 193.709832 
L 401.111699 190.74773 
z
" style="fill:#808080;stroke:#808080;stroke-linecap:round;"/>
   </g>
   <g id="patch_15">
    <path clip-path="url(#pbde53b2b69)" d="M 290.058551 102.924208 
Q 280.75308 141.675138 271.708667 179.338939 
" style="fill:none;stroke:#808080;stroke-linecap:round;"/>
    <path clip-path="url(#pbde53b2b69)" d="M 274.587372 175.916504 
L 271.708667 179.338939 
L 270.697942 174.982515 
L 274.587372 175.916504 
z
" style="fill:#808080;stroke:#808080;stroke-linecap:round;"/>
   </g>
   <g id="patch_16">
    <path clip-path="url(#pbde53b2b69)" d="M 209.581144 202.2915 
Q 348.869843 247.677259 487.095517 292.716643 
" style="fill:none;stroke:#808080;stroke-linecap:round;"/>
    <path clip-path="url(#pbde53b2b69)" d="M 483.911936 289.575813 
L 487.095517 292.716643 
L 482.672704 293.379009 
L 483.911936 289.575813 
z
" style="fill:#808080;stroke:#808080;stroke-linecap:round;"/>
   </g>
   <g id="patch_17">
    <path clip-path="url(#pbde53b2b69)" d="M 209.614 202.198716 
Q 278.527659 223.790818 346.374427 245.048641 
" style="fill:none;stroke:#808080;stroke-linecap:round;"/>
    <path clip-path="url(#pbde53b2b69)" d="M 343.155378 241.944173 
L 346.374427 245.048641 
L 341.959423 245.7612 
L 343.155378 241.944173 
z
" style="fill:#808080;stroke:#808080;stroke-linecap:round;"/>
   </g>
   <g id="patch_18">
    <path clip-path="url(#pbde53b2b69)" d="M 405.865495 257.351323 
Q 351.453348 179.476696 297.681561 102.518552 
" style="fill:none;stroke:#808080;stroke-linecap:round;"/>
    <path clip-path="url(#pbde53b2b69)" d="M 298.333128 106.942968 
L 297.681561 102.518552 
L 301.612034 104.651948 
L 298.333128 106.942968 
z
" style="fill:#808080;stroke:#808080;stroke-linecap:round;"/>
   </g>
   <g id="patch_19">
    <path clip-path="url(#pbde53b2b69)" d="M 403.937333 269.693598 
Q 354.15081 307.606695 305.253775 344.842435 
" style="fill:none;stroke:#808080;stroke-linecap:round;"/>
    <path clip-path="url(#pbde53b2b69)" d="M 309.647795 344.010214 
L 305.253775 344.842435 
L 307.22441 340.827887 
L 309.647795 344.010214 
z
" style="fill:#808080;stroke:#808080;stroke-linecap:round;"/>
   </g>
   <g id="patch_20">
    <path clip-path="url(#pbde53b2b69)" d="M 403.799933 269.513263 
Q 375.833399 289.675646 348.773781 309.184191 
" style="fill:none;stroke:#808080;stroke-linecap:round;"/>
    <path clip-path="url(#pbde53b2b69)" d="M 353.188082 308.467289 
L 348.773781 309.184191 
L 350.84884 305.222609 
L 353.188082 308.467289 
z
" style="fill:#808080;stroke:#808080;stroke-linecap:round;"/>
   </g>
   <g id="patch_21">
    <path clip-path="url(#pbde53b2b69)" d="M 414.959587 272.062581 
Q 447.865307 332.652291 480.237446 392.259508 
" style="fill:none;stroke:#808080;stroke-linecap:round;"/>
    <path clip-path="url(#pbde53b2b69)" d="M 480.085978 387.789938 
L 480.237446 392.259508 
L 476.570909 389.69894 
L 480.085978 387.789938 
z
" style="fill:#808080;stroke:#808080;stroke-linecap:round;"/>
   </g>
   <g id="patch_22">
    <path clip-path="url(#pbde53b2b69)" d="M 419.356902 265.929495 
Q 430.968059 267.944459 441.477645 269.768259 
" style="fill:none;stroke:#808080;stroke-linecap:round;"/>
    <path clip-path="url(#pbde53b2b69)" d="M 437.878511 267.113785 
L 441.477645 269.768259 
L 437.194585 271.054882 
L 437.878511 267.113785 
z
" style="fill:#808080;stroke:#808080;stroke-linecap:round;"/>
   </g>
   <g id="patch_23">
    <path clip-path="url(#pbde53b2b69)" d="M 415.706357 271.605932 
Q 421.627531 280.286964 426.91871 288.044359 
" style="fill:none;stroke:#808080;stroke-linecap:round;"/>
    <path clip-path="url(#pbde53b2b69)" d="M 426.31702 283.612885 
L 426.91871 288.044359 
L 423.012516 285.866827 
L 426.31702 283.612885 
z
" style="fill:#808080;stroke:#808080;stroke-linecap:round;"/>
   </g>
   <g id="patch_24">
    <path clip-path="url(#pbde53b2b69)" d="M 418.958711 267.423945 
Q 453.609003 280.0976 487.209292 292.387207 
" style="fill:none;stroke:#808080;stroke-linecap:round;"/>
    <path clip-path="url(#pbde53b2b69)" d="M 484.139692 289.134891 
L 487.209292 292.387207 
L 482.76568 292.891498 
L 484.139692 289.134891 
z
" style="fill:#808080;stroke:#808080;stroke-linecap:round;"/>
   </g>
   <g id="patch_25">
    <path clip-path="url(#pbde53b2b69)" d="M 402.524682 261.967751 
Q 383.261681 256.209514 365.069878 250.771488 
" style="fill:none;stroke:#808080;stroke-linecap:round;"/>
    <path clip-path="url(#pbde53b2b69)" d="M 368.329503 253.833325 
L 365.069878 250.771488 
L 369.475123 250.00089 
L 368.329503 253.833325 
z
" style="fill:#808080;stroke:#808080;stroke-linecap:round;"/>
   </g>
   <g id="patch_26">
    <path clip-path="url(#pbde53b2b69)" d="M 348.275077 319.34207 
Q 412.873169 357.880984 476.511115 395.847081 
" style="fill:none;stroke:#808080;stroke-linecap:round;"/>
    <path clip-path="url(#pbde53b2b69)" d="M 474.100683 392.080144 
L 476.511115 395.847081 
L 472.051306 395.515264 
L 474.100683 392.080144 
z
" style="fill:#808080;stroke:#808080;stroke-linecap:round;"/>
   </g>
   <g id="patch_27">
    <path clip-path="url(#pbde53b2b69)" d="M 338.967137 306.447156 
Q 316.459407 204.703448 294.193169 104.051381 
" style="fill:none;stroke:#808080;stroke-linecap:round;"/>
    <path clip-path="url(#pbde53b2b69)" d="M 293.104372 108.388952 
L 294.193169 104.051381 
L 297.009948 107.524961 
L 293.104372 108.388952 
z
" style="fill:#808080;stroke:#808080;stroke-linecap:round;"/>
   </g>
   <g id="patch_28">
    <path clip-path="url(#pbde53b2b69)" d="M 334.165665 320.423399 
Q 319.155169 332.836822 305.006256 344.537731 
" style="fill:none;stroke:#808080;stroke-linecap:round;"/>
    <path clip-path="url(#pbde53b2b69)" d="M 309.36333 343.529809 
L 305.006256 344.537731 
L 306.814163 340.447318 
L 309.36333 343.529809 
z
" style="fill:#808080;stroke:#808080;stroke-linecap:round;"/>
   </g>
   <g id="patch_29">
    <path clip-path="url(#pbde53b2b69)" d="M 348.898016 311.728426 
Q 395.975818 293.172098 442.01347 275.025758 
" style="fill:none;stroke:#808080;stroke-linecap:round;"/>
    <path clip-path="url(#pbde53b2b69)" d="M 437.558711 274.631901 
L 442.01347 275.025758 
L 439.025529 278.353251 
L 437.558711 274.631901 
z
" style="fill:#808080;stroke:#808080;stroke-linecap:round;"/>
   </g>
   <g id="patch_30">
    <path clip-path="url(#pbde53b2b69)" d="M 349.321529 313.165763 
Q 386.633751 305.51476 422.850728 298.08834 
" style="fill:none;stroke:#808080;stroke-linecap:round;"/>
    <path clip-path="url(#pbde53b2b69)" d="M 418.530512 296.932602 
L 422.850728 298.08834 
L 419.334008 300.85107 
L 418.530512 296.932602 
z
" style="fill:#808080;stroke:#808080;stroke-linecap:round;"/>
   </g>
   <g id="patch_31">
    <path clip-path="url(#pbde53b2b69)" d="M 349.435202 313.846369 
Q 418.614238 305.325315 486.683627 296.940941 
" style="fill:none;stroke:#808080;stroke-linecap:round;"/>
    <path clip-path="url(#pbde53b2b69)" d="M 482.46913 295.444942 
L 486.683627 296.940941 
L 482.95813 299.41494 
L 482.46913 295.444942 
z
" style="fill:#808080;stroke:#808080;stroke-linecap:round;"/>
   </g>
   <g id="patch_32">
    <path clip-path="url(#pbde53b2b69)" d="M 348.860316 318.166408 
Q 426.547229 349.747548 503.198417 380.907647 
" style="fill:none;stroke:#808080;stroke-linecap:round;"/>
    <path clip-path="url(#pbde53b2b69)" d="M 500.246078 377.548526 
L 503.198417 380.907647 
L 498.739717 381.254046 
L 500.246078 377.548526 
z
" style="fill:#808080;stroke:#808080;stroke-linecap:round;"/>
   </g>
   <g id="patch_33">
    <path clip-path="url(#pbde53b2b69)" d="M 333.695706 319.807189 
Q 280.358568 356.412273 227.943254 392.384713 
" style="fill:none;stroke:#808080;stroke-linecap:round;"/>
    <path clip-path="url(#pbde53b2b69)" d="M 232.372983 391.770304 
L 227.943254 392.384713 
L 230.109564 388.472284 
L 232.372983 391.770304 
z
" style="fill:#808080;stroke:#808080;stroke-linecap:round;"/>
   </g>
   <g id="patch_34">
    <path clip-path="url(#pbde53b2b69)" d="M 342.715327 306.452752 
Q 348.269985 281.440018 353.582263 257.518728 
" style="fill:none;stroke:#808080;stroke-linecap:round;"/>
    <path clip-path="url(#pbde53b2b69)" d="M 350.76266 260.990016 
L 353.582263 257.518728 
L 354.667531 261.857183 
L 350.76266 260.990016 
z
" style="fill:#808080;stroke:#808080;stroke-linecap:round;"/>
   </g>
   <g id="patch_35">
    <path clip-path="url(#pbde53b2b69)" d="M 332.223693 314.059268 
Q 260.326516 306.998354 189.542019 300.046714 
" style="fill:none;stroke:#808080;stroke-linecap:round;"/>
    <path clip-path="url(#pbde53b2b69)" d="M 193.327391 302.428091 
L 189.542019 300.046714 
L 193.718344 298.447243 
L 193.327391 302.428091 
z
" style="fill:#808080;stroke:#808080;stroke-linecap:round;"/>
   </g>
   <g id="patch_36">
    <path clip-path="url(#pbde53b2b69)" d="M 445.323281 265.000819 
Q 371.595695 182.971278 298.61548 101.773263 
" style="fill:none;stroke:#808080;stroke-linecap:round;"/>
    <path clip-path="url(#pbde53b2b69)" d="M 299.801874 106.085161 
L 298.61548 101.773263 
L 302.776836 103.411287 
L 299.801874 106.085161 
z
" style="fill:#808080;stroke:#808080;stroke-linecap:round;"/>
   </g>
   <g id="patch_37">
    <path clip-path="url(#pbde53b2b69)" d="M 443.050959 274.616818 
Q 395.973158 293.173146 349.935505 311.319487 
" style="fill:none;stroke:#808080;stroke-linecap:round;"/>
    <path clip-path="url(#pbde53b2b69)" d="M 354.390264 311.713343 
L 349.935505 311.319487 
L 352.923446 307.991993 
L 354.390264 311.713343 
z
" style="fill:#808080;stroke:#808080;stroke-linecap:round;"/>
   </g>
   <g id="patch_38">
    <path clip-path="url(#pbde53b2b69)" d="M 442.55323 272.779406 
Q 395.138107 280.200999 348.827569 287.449699 
" style="fill:none;stroke:#808080;stroke-linecap:round;"/>
    <path clip-path="url(#pbde53b2b69)" d="M 353.088733 288.807077 
L 348.827569 287.449699 
L 352.47017 284.855194 
L 353.088733 288.807077 
z
" style="fill:#808080;stroke:#808080;stroke-linecap:round;"/>
   </g>
   <g id="patch_39">
    <path clip-path="url(#pbde53b2b69)" d="M 442.699036 269.370835 
Q 403.404833 259.7052 365.196302 250.306619 
" style="fill:none;stroke:#808080;stroke-linecap:round;"/>
    <path clip-path="url(#pbde53b2b69)" d="M 368.602795 253.204171 
L 365.196302 250.306619 
L 369.558239 249.319956 
L 368.602795 253.204171 
z
" style="fill:#808080;stroke:#808080;stroke-linecap:round;"/>
   </g>
   <g id="patch_40">
    <path clip-path="url(#pbde53b2b69)" d="M 374.234199 200.179076 
Q 467.194042 272.238751 559.270247 343.613457 
" style="fill:none;stroke:#808080;stroke-linecap:round;"/>
    <path clip-path="url(#pbde53b2b69)" d="M 557.334158 339.582135 
L 559.270247 343.613457 
L 554.883536 342.743535 
L 557.334158 339.582135 
z
" style="fill:#808080;stroke:#808080;stroke-linecap:round;"/>
   </g>
   <g id="patch_41">
    <path clip-path="url(#pbde53b2b69)" d="M 368.15735 203.49669 
Q 377.479817 308.300009 386.703224 411.98969 
" style="fill:none;stroke:#808080;stroke-linecap:round;"/>
    <path clip-path="url(#pbde53b2b69)" d="M 388.34095 407.828218 
L 386.703224 411.98969 
L 384.356681 408.182626 
L 388.34095 407.828218 
z
" style="fill:#808080;stroke:#808080;stroke-linecap:round;"/>
   </g>
   <g id="patch_42">
    <path clip-path="url(#pbde53b2b69)" d="M 558.341317 349.64146 
Q 432.236035 350.185808 307.248777 350.725329 
" style="fill:none;stroke:#808080;stroke-linecap:round;"/>
    <path clip-path="url(#pbde53b2b69)" d="M 311.257373 352.708044 
L 307.248777 350.725329 
L 311.240106 348.708081 
L 311.257373 352.708044 
z
" style="fill:#808080;stroke:#808080;stroke-linecap:round;"/>
   </g>
   <g id="patch_43">
    <path clip-path="url(#pbde53b2b69)" d="M 424.402715 299.374246 
Q 364.952875 323.445241 306.539344 347.096639 
" style="fill:none;stroke:#808080;stroke-linecap:round;"/>
    <path clip-path="url(#pbde53b2b69)" d="M 310.997558 347.449249 
L 306.539344 347.096639 
L 309.49636 343.741634 
L 310.997558 347.449249 
z
" style="fill:#808080;stroke:#808080;stroke-linecap:round;"/>
   </g>
   <g id="patch_44">
    <path clip-path="url(#pbde53b2b69)" d="M 423.946486 297.863652 
Q 386.634264 305.514655 350.417287 312.941074 
" style="fill:none;stroke:#808080;stroke-linecap:round;"/>
    <path clip-path="url(#pbde53b2b69)" d="M 354.737503 314.096812 
L 350.417287 312.941074 
L 353.934007 310.178344 
L 354.737503 314.096812 
z
" style="fill:#808080;stroke:#808080;stroke-linecap:round;"/>
   </g>
   <g id="patch_45">
    <path clip-path="url(#pbde53b2b69)" d="M 436.310057 303.868373 
Q 458.668838 348.491873 480.526777 392.115795 
" style="fill:none;stroke:#808080;stroke-linecap:round;"/>
    <path clip-path="url(#pbde53b2b69)" d="M 480.523008 387.643661 
L 480.526777 392.115795 
L 476.946808 389.43553 
L 480.523008 387.643661 
z
" style="fill:#808080;stroke:#808080;stroke-linecap:round;"/>
   </g>
   <g id="patch_46">
    <path clip-path="url(#pbde53b2b69)" d="M 441.092418 296.072818 
Q 464.412851 295.9347 486.615269 295.803204 
" style="fill:none;stroke:#808080;stroke-linecap:round;"/>
    <path clip-path="url(#pbde53b2b69)" d="M 482.603495 293.826929 
L 486.615269 295.803204 
L 482.627185 297.826859 
L 482.603495 293.826929 
z
" style="fill:#808080;stroke:#808080;stroke-linecap:round;"/>
   </g>
   <g id="patch_47">
    <path clip-path="url(#pbde53b2b69)" d="M 438.612348 290.059984 
Q 485.71365 243.860985 532.016774 198.444874 
" style="fill:none;stroke:#808080;stroke-linecap:round;"/>
    <path clip-path="url(#pbde53b2b69)" d="M 527.760656 199.817992 
L 532.016774 198.444874 
L 530.561598 202.67364 
L 527.760656 199.817992 
z
" style="fill:#808080;stroke:#808080;stroke-linecap:round;"/>
   </g>
   <g id="patch_48">
    <path clip-path="url(#pbde53b2b69)" d="M 438.960808 290.437128 
Q 502.344487 235.244867 564.884993 180.786812 
" style="fill:none;stroke:#808080;stroke-linecap:round;"/>
    <path clip-path="url(#pbde53b2b69)" d="M 560.554976 181.905271 
L 564.884993 180.786812 
L 563.18175 184.921901 
L 560.554976 181.905271 
z
" style="fill:#808080;stroke:#808080;stroke-linecap:round;"/>
   </g>
   <g id="patch_49">
    <path clip-path="url(#pbde53b2b69)" d="M 281.91341 225.92945 
Q 314.657763 235.710664 346.330856 245.171877 
" style="fill:none;stroke:#808080;stroke-linecap:round;"/>
    <path clip-path="url(#pbde53b2b69)" d="M 343.070633 242.110677 
L 346.330856 245.171877 
L 341.925762 245.943335 
L 343.070633 242.110677 
z
" style="fill:#808080;stroke:#808080;stroke-linecap:round;"/>
   </g>
   <g id="patch_50">
    <path clip-path="url(#pbde53b2b69)" d="M 281.487288 227.05312 
Q 353.02121 259.786912 423.538483 292.055487 
" style="fill:none;stroke:#808080;stroke-linecap:round;"/>
    <path clip-path="url(#pbde53b2b69)" d="M 420.733416 288.572443 
L 423.538483 292.055487 
L 419.069007 292.209714 
L 420.733416 288.572443 
z
" style="fill:#808080;stroke:#808080;stroke-linecap:round;"/>
   </g>
   <g id="patch_51">
    <path clip-path="url(#pbde53b2b69)" d="M 280.665617 218.428641 
Q 369.057105 155.484343 456.537874 93.188575 
" style="fill:none;stroke:#808080;stroke-linecap:round;"/>
    <path clip-path="url(#pbde53b2b69)" d="M 452.119461 93.879684 
L 456.537874 93.188575 
L 454.439714 97.13797 
L 452.119461 93.879684 
z
" style="fill:#808080;stroke:#808080;stroke-linecap:round;"/>
   </g>
   <g id="patch_52">
    <path clip-path="url(#pbde53b2b69)" d="M 278.633654 216.396254 
Q 306.897231 176.679222 334.51257 137.873117 
" style="fill:none;stroke:#808080;stroke-linecap:round;"/>
    <path clip-path="url(#pbde53b2b69)" d="M 330.56385 139.972547 
L 334.51257 137.873117 
L 333.822882 142.291751 
L 330.56385 139.972547 
z
" style="fill:#808080;stroke:#808080;stroke-linecap:round;"/>
   </g>
   <g id="patch_53">
    <path clip-path="url(#pbde53b2b69)" d="M 272.86826 232.074262 
Q 267.563624 293.430416 262.35529 353.672692 
" style="fill:none;stroke:#808080;stroke-linecap:round;"/>
    <path clip-path="url(#pbde53b2b69)" d="M 264.692397 349.859828 
L 262.35529 353.672692 
L 260.707264 349.515288 
L 264.692397 349.859828 
z
" style="fill:#808080;stroke:#808080;stroke-linecap:round;"/>
   </g>
   <g id="patch_54">
    <path clip-path="url(#pbde53b2b69)" d="M 315.619489 193.084561 
Q 333.108094 217.032192 349.937326 240.076925 
" style="fill:none;stroke:#808080;stroke-linecap:round;"/>
    <path clip-path="url(#pbde53b2b69)" d="M 349.193433 235.667092 
L 349.937326 240.076925 
L 345.963124 238.026139 
L 349.193433 235.667092 
z
" style="fill:#808080;stroke:#808080;stroke-linecap:round;"/>
   </g>
   <g id="patch_55">
    <path clip-path="url(#pbde53b2b69)" d="M 316.941581 191.894588 
Q 371.469643 241.106846 425.167714 289.570027 
" style="fill:none;stroke:#808080;stroke-linecap:round;"/>
    <path clip-path="url(#pbde53b2b69)" d="M 423.538239 285.405317 
L 425.167714 289.570027 
L 420.858261 288.374781 
L 423.538239 285.405317 
z
" style="fill:#808080;stroke:#808080;stroke-linecap:round;"/>
   </g>
   <g id="patch_56">
    <path clip-path="url(#pbde53b2b69)" d="M 317.81009 181.423423 
Q 387.509395 136.804723 456.267081 92.788811 
" style="fill:none;stroke:#808080;stroke-linecap:round;"/>
    <path clip-path="url(#pbde53b2b69)" d="M 451.819941 93.260987 
L 456.267081 92.788811 
L 453.976538 96.629828 
L 451.819941 93.260987 
z
" style="fill:#808080;stroke:#808080;stroke-linecap:round;"/>
   </g>
   <g id="patch_57">
    <path clip-path="url(#pbde53b2b69)" d="M 314.557689 178.43609 
Q 325.348176 157.999886 335.616632 138.552361 
" style="fill:none;stroke:#808080;stroke-linecap:round;"/>
    <path clip-path="url(#pbde53b2b69)" d="M 331.980358 141.155727 
L 335.616632 138.552361 
L 335.517561 143.023399 
L 331.980358 141.155727 
z
" style="fill:#808080;stroke:#808080;stroke-linecap:round;"/>
   </g>
   <g id="patch_58">
    <path clip-path="url(#pbde53b2b69)" d="M 308.207644 194.441055 
Q 286.013458 274.755612 264.117068 353.992526 
" style="fill:none;stroke:#808080;stroke-linecap:round;"/>
    <path clip-path="url(#pbde53b2b69)" d="M 267.110247 350.669744 
L 264.117068 353.992526 
L 263.25475 349.604313 
L 267.110247 350.669744 
z
" style="fill:#808080;stroke:#808080;stroke-linecap:round;"/>
   </g>
   <g id="patch_59">
    <path clip-path="url(#pbde53b2b69)" d="M 403.395526 207.119453 
Q 382.836927 224.72909 363.127447 241.611408 
" style="fill:none;stroke:#808080;stroke-linecap:round;"/>
    <path clip-path="url(#pbde53b2b69)" d="M 367.466422 240.528218 
L 363.127447 241.611408 
L 364.86428 237.490314 
L 367.466422 240.528218 
z
" style="fill:#808080;stroke:#808080;stroke-linecap:round;"/>
   </g>
   <g id="patch_60">
    <path clip-path="url(#pbde53b2b69)" d="M 411.96967 209.912254 
Q 421.199755 248.804679 430.171676 286.609284 
" style="fill:none;stroke:#808080;stroke-linecap:round;"/>
    <path clip-path="url(#pbde53b2b69)" d="M 431.193987 282.255564 
L 430.171676 286.609284 
L 427.302086 283.179203 
L 431.193987 282.255564 
z
" style="fill:#808080;stroke:#808080;stroke-linecap:round;"/>
   </g>
   <g id="patch_61">
    <path clip-path="url(#pbde53b2b69)" d="M 413.70984 193.672372 
Q 437.238039 144.499644 460.283675 96.335446 
" style="fill:none;stroke:#808080;stroke-linecap:round;"/>
    <path clip-path="url(#pbde53b2b69)" d="M 456.753094 99.08044 
L 460.283675 96.335446 
L 460.361322 100.806908 
L 456.753094 99.08044 
z
" style="fill:#808080;stroke:#808080;stroke-linecap:round;"/>
   </g>
   <g id="patch_62">
    <path clip-path="url(#pbde53b2b69)" d="M 403.923871 195.286028 
Q 375.074641 165.696052 347.005897 136.906602 
" style="fill:none;stroke:#808080;stroke-linecap:round;"/>
    <path clip-path="url(#pbde53b2b69)" d="M 348.366224 141.166827 
L 347.005897 136.906602 
L 351.230273 138.374476 
L 348.366224 141.166827 
z
" style="fill:#808080;stroke:#808080;stroke-linecap:round;"/>
   </g>
   <g id="patch_63">
    <path clip-path="url(#pbde53b2b69)" d="M 404.119115 207.869909 
Q 335.741633 282.452008 268.119697 356.210002 
" style="fill:none;stroke:#808080;stroke-linecap:round;"/>
    <path clip-path="url(#pbde53b2b69)" d="M 272.297026 354.613156 
L 268.119697 356.210002 
L 269.348618 351.910031 
L 272.297026 354.613156 
z
" style="fill:#808080;stroke:#808080;stroke-linecap:round;"/>
   </g>
   <g id="patch_64">
    <path clip-path="url(#pbde53b2b69)" d="M 276.568973 193.740939 
Q 312.562792 218.407586 347.634358 242.442212 
" style="fill:none;stroke:#808080;stroke-linecap:round;"/>
    <path clip-path="url(#pbde53b2b69)" d="M 345.465404 238.531249 
L 347.634358 242.442212 
L 343.204215 241.830798 
L 345.465404 238.531249 
z
" style="fill:#808080;stroke:#808080;stroke-linecap:round;"/>
   </g>
   <g id="patch_65">
    <path clip-path="url(#pbde53b2b69)" d="M 276.661154 193.607536 
Q 350.929099 242.485779 424.263123 290.749377 
" style="fill:none;stroke:#808080;stroke-linecap:round;"/>
    <path clip-path="url(#pbde53b2b69)" d="M 422.021333 286.879703 
L 424.263123 290.749377 
L 419.82231 290.221005 
L 422.021333 286.879703 
z
" style="fill:#808080;stroke:#808080;stroke-linecap:round;"/>
   </g>
   <g id="patch_66">
    <path clip-path="url(#pbde53b2b69)" d="M 277.108497 184.855026 
Q 366.964381 138.181061 455.828095 92.022459 
" style="fill:none;stroke:#808080;stroke-linecap:round;"/>
    <path clip-path="url(#pbde53b2b69)" d="M 451.356491 92.091435 
L 455.828095 92.022459 
L 453.200313 95.641128 
L 451.356491 92.091435 
z
" style="fill:#808080;stroke:#808080;stroke-linecap:round;"/>
   </g>
   <g id="patch_67">
    <path clip-path="url(#pbde53b2b69)" d="M 276.078544 183.303986 
Q 304.80338 159.376518 332.669173 136.164622 
" style="fill:none;stroke:#808080;stroke-linecap:round;"/>
    <path clip-path="url(#pbde53b2b69)" d="M 328.315711 137.188032 
L 332.669173 136.164622 
L 330.875824 140.261438 
L 328.315711 137.188032 
z
" style="fill:#808080;stroke:#808080;stroke-linecap:round;"/>
   </g>
   <g id="patch_68">
    <path clip-path="url(#pbde53b2b69)" d="M 269.033716 197.494832 
Q 265.469369 276.13006 261.955647 353.6484 
" style="fill:none;stroke:#808080;stroke-linecap:round;"/>
    <path clip-path="url(#pbde53b2b69)" d="M 264.13472 349.743065 
L 261.955647 353.6484 
L 260.138823 349.561941 
L 264.13472 349.743065 
z
" style="fill:#808080;stroke:#808080;stroke-linecap:round;"/>
   </g>
   <g id="patch_69">
    <path clip-path="url(#pbde53b2b69)" d="M 346.03892 294.235429 
Q 412.03858 344.908972 477.15144 394.901643 
" style="fill:none;stroke:#808080;stroke-linecap:round;"/>
    <path clip-path="url(#pbde53b2b69)" d="M 475.196709 390.879327 
L 477.15144 394.901643 
L 472.760749 394.052039 
L 475.196709 390.879327 
z
" style="fill:#808080;stroke:#808080;stroke-linecap:round;"/>
   </g>
   <g id="patch_70">
    <path clip-path="url(#pbde53b2b69)" d="M 339.72557 297.604071 
Q 340.003874 301.931488 340.210424 305.143175 
" style="fill:none;stroke:#808080;stroke-linecap:round;"/>
    <path clip-path="url(#pbde53b2b69)" d="M 341.949584 301.023063 
L 340.210424 305.143175 
L 337.95783 301.279781 
L 341.949584 301.023063 
z
" style="fill:#808080;stroke:#808080;stroke-linecap:round;"/>
   </g>
   <g id="patch_71">
    <path clip-path="url(#pbde53b2b69)" d="M 337.131301 280.543425 
Q 315.62516 191.731562 294.38215 104.006329 
" style="fill:none;stroke:#808080;stroke-linecap:round;"/>
    <path clip-path="url(#pbde53b2b69)" d="M 293.379737 108.364673 
L 294.38215 104.006329 
L 297.267378 107.423266 
L 293.379737 108.364673 
z
" style="fill:#808080;stroke:#808080;stroke-linecap:round;"/>
   </g>
   <g id="patch_72">
    <path clip-path="url(#pbde53b2b69)" d="M 334.32668 296.140156 
Q 318.321328 319.864586 302.941253 342.662178 
" style="fill:none;stroke:#808080;stroke-linecap:round;"/>
    <path clip-path="url(#pbde53b2b69)" d="M 306.836292 340.464755 
L 302.941253 342.662178 
L 303.520338 338.227693 
L 306.836292 340.464755 
z
" style="fill:#808080;stroke:#808080;stroke-linecap:round;"/>
   </g>
   <g id="patch_73">
    <path clip-path="url(#pbde53b2b69)" d="M 347.727242 287.621926 
Q 395.142365 280.200333 441.452904 272.951633 
" style="fill:none;stroke:#808080;stroke-linecap:round;"/>
    <path clip-path="url(#pbde53b2b69)" d="M 437.191739 271.594256 
L 441.452904 272.951633 
L 437.810302 275.546139 
L 437.191739 271.594256 
z
" style="fill:#808080;stroke:#808080;stroke-linecap:round;"/>
   </g>
   <g id="patch_74">
    <path clip-path="url(#pbde53b2b69)" d="M 347.801873 289.624361 
Q 385.798941 292.542689 422.681259 295.375399 
" style="fill:none;stroke:#808080;stroke-linecap:round;"/>
    <path clip-path="url(#pbde53b2b69)" d="M 418.846162 293.074958 
L 422.681259 295.375399 
L 418.539848 297.063212 
L 418.846162 293.074958 
z
" style="fill:#808080;stroke:#808080;stroke-linecap:round;"/>
   </g>
   <g id="patch_75">
    <path clip-path="url(#pbde53b2b69)" d="M 347.820529 289.334652 
Q 417.777807 292.353244 486.61809 295.32364 
" style="fill:none;stroke:#808080;stroke-linecap:round;"/>
    <path clip-path="url(#pbde53b2b69)" d="M 482.708027 293.153063 
L 486.61809 295.32364 
L 482.535591 297.149344 
L 482.708027 293.153063 
z
" style="fill:#808080;stroke:#808080;stroke-linecap:round;"/>
   </g>
   <g id="patch_76">
    <path clip-path="url(#pbde53b2b69)" d="M 342.409893 280.927987 
Q 347.435993 268.466649 352.043885 257.042183 
" style="fill:none;stroke:#808080;stroke-linecap:round;"/>
    <path clip-path="url(#pbde53b2b69)" d="M 348.69285 260.003696 
L 352.043885 257.042183 
L 352.402474 261.49992 
L 348.69285 260.003696 
z
" style="fill:#808080;stroke:#808080;stroke-linecap:round;"/>
   </g>
   <g id="patch_77">
    <path clip-path="url(#pbde53b2b69)" d="M 330.527733 289.510705 
Q 259.490377 294.026172 189.568803 298.470715 
" style="fill:none;stroke:#808080;stroke-linecap:round;"/>
    <path clip-path="url(#pbde53b2b69)" d="M 193.687619 300.21294 
L 189.568803 298.470715 
L 193.433873 296.220996 
L 193.687619 300.21294 
z
" style="fill:#808080;stroke:#808080;stroke-linecap:round;"/>
   </g>
   <g id="patch_78">
    <path clip-path="url(#pbde53b2b69)" d="M 361.291646 254.584875 
Q 420.304277 324.413496 478.595244 393.388185 
" style="fill:none;stroke:#808080;stroke-linecap:round;"/>
    <path clip-path="url(#pbde53b2b69)" d="M 477.540901 389.04211 
L 478.595244 393.388185 
L 474.485779 391.624014 
L 477.540901 389.04211 
z
" style="fill:#808080;stroke:#808080;stroke-linecap:round;"/>
   </g>
   <g id="patch_79">
    <path clip-path="url(#pbde53b2b69)" d="M 353.825404 256.423857 
Q 348.270746 281.436592 342.958468 305.357882 
" style="fill:none;stroke:#808080;stroke-linecap:round;"/>
    <path clip-path="url(#pbde53b2b69)" d="M 345.778071 301.886594 
L 342.958468 305.357882 
L 341.8732 301.019427 
L 345.778071 301.886594 
z
" style="fill:#808080;stroke:#808080;stroke-linecap:round;"/>
   </g>
   <g id="patch_80">
    <path clip-path="url(#pbde53b2b69)" d="M 352.385299 239.96958 
Q 323.892138 171.23821 295.827133 103.539642 
" style="fill:none;stroke:#808080;stroke-linecap:round;"/>
    <path clip-path="url(#pbde53b2b69)" d="M 295.51142 108.00062 
L 295.827133 103.539642 
L 299.206488 106.468799 
L 295.51142 108.00062 
z
" style="fill:#808080;stroke:#808080;stroke-linecap:round;"/>
   </g>
   <g id="patch_81">
    <path clip-path="url(#pbde53b2b69)" d="M 351.432307 255.509749 
Q 326.587653 299.369665 302.294047 342.256778 
" style="fill:none;stroke:#808080;stroke-linecap:round;"/>
    <path clip-path="url(#pbde53b2b69)" d="M 306.005741 339.762119 
L 302.294047 342.256778 
L 302.525336 337.790627 
L 306.005741 339.762119 
z
" style="fill:#808080;stroke:#808080;stroke-linecap:round;"/>
   </g>
   <g id="patch_82">
    <path clip-path="url(#pbde53b2b69)" d="M 364.114181 250.040438 
Q 403.408384 259.706073 441.616915 269.104654 
" style="fill:none;stroke:#808080;stroke-linecap:round;"/>
    <path clip-path="url(#pbde53b2b69)" d="M 438.210422 266.207102 
L 441.616915 269.104654 
L 437.254978 270.091318 
L 438.210422 266.207102 
z
" style="fill:#808080;stroke:#808080;stroke-linecap:round;"/>
   </g>
   <g id="patch_83">
    <path clip-path="url(#pbde53b2b69)" d="M 363.038503 252.575284 
Q 394.06742 272.048532 424.149347 290.927464 
" style="fill:none;stroke:#808080;stroke-linecap:round;"/>
    <path clip-path="url(#pbde53b2b69)" d="M 421.824438 287.10715 
L 424.149347 290.927464 
L 419.698151 290.495203 
L 421.824438 287.10715 
z
" style="fill:#808080;stroke:#808080;stroke-linecap:round;"/>
   </g>
   <g id="patch_84">
    <path clip-path="url(#pbde53b2b69)" d="M 363.898696 250.754539 
Q 426.042632 271.857006 487.127907 292.599979 
" style="fill:none;stroke:#808080;stroke-linecap:round;"/>
    <path clip-path="url(#pbde53b2b69)" d="M 483.983407 289.420024 
L 487.127907 292.599979 
L 482.697242 293.207606 
L 483.983407 289.420024 
z
" style="fill:#808080;stroke:#808080;stroke-linecap:round;"/>
   </g>
   <g id="patch_85">
    <path clip-path="url(#pbde53b2b69)" d="M 347.43546 245.381085 
Q 278.521801 223.788983 210.675033 202.53116 
" style="fill:none;stroke:#808080;stroke-linecap:round;"/>
    <path clip-path="url(#pbde53b2b69)" d="M 213.894082 205.635628 
L 210.675033 202.53116 
L 215.090037 201.818601 
L 213.894082 205.635628 
z
" style="fill:#808080;stroke:#808080;stroke-linecap:round;"/>
   </g>
   <g id="patch_86">
    <path clip-path="url(#pbde53b2b69)" d="M 347.402938 245.492123 
Q 314.658585 235.710909 282.985492 226.249697 
" style="fill:none;stroke:#808080;stroke-linecap:round;"/>
    <path clip-path="url(#pbde53b2b69)" d="M 286.245715 229.310897 
L 282.985492 226.249697 
L 287.390586 225.478238 
L 286.245715 229.310897 
z
" style="fill:#808080;stroke:#808080;stroke-linecap:round;"/>
   </g>
   <g id="patch_87">
    <path clip-path="url(#pbde53b2b69)" d="M 350.597303 240.98065 
Q 333.108698 217.033019 316.279467 193.988286 
" style="fill:none;stroke:#808080;stroke-linecap:round;"/>
    <path clip-path="url(#pbde53b2b69)" d="M 317.02336 198.398119 
L 316.279467 193.988286 
L 320.253668 196.039071 
L 317.02336 198.398119 
z
" style="fill:#808080;stroke:#808080;stroke-linecap:round;"/>
   </g>
   <g id="patch_88">
    <path clip-path="url(#pbde53b2b69)" d="M 362.277296 242.339612 
Q 382.835896 224.729974 402.545375 207.847657 
" style="fill:none;stroke:#808080;stroke-linecap:round;"/>
    <path clip-path="url(#pbde53b2b69)" d="M 398.206401 208.930846 
L 402.545375 207.847657 
L 400.808542 211.96875 
L 398.206401 208.930846 
z
" style="fill:#808080;stroke:#808080;stroke-linecap:round;"/>
   </g>
   <g id="patch_89">
    <path clip-path="url(#pbde53b2b69)" d="M 348.559275 243.07606 
Q 312.565456 218.409412 277.49389 194.374787 
" style="fill:none;stroke:#808080;stroke-linecap:round;"/>
    <path clip-path="url(#pbde53b2b69)" d="M 279.662845 198.28575 
L 277.49389 194.374787 
L 281.924033 194.986201 
L 279.662845 198.28575 
z
" style="fill:#808080;stroke:#808080;stroke-linecap:round;"/>
   </g>
   <g id="patch_90">
    <path clip-path="url(#pbde53b2b69)" d="M 352.462335 256.00471 
Q 347.436235 268.466048 342.828343 279.890514 
" style="fill:none;stroke:#808080;stroke-linecap:round;"/>
    <path clip-path="url(#pbde53b2b69)" d="M 346.179379 276.929001 
L 342.828343 279.890514 
L 342.469754 275.432778 
L 346.179379 276.929001 
z
" style="fill:#808080;stroke:#808080;stroke-linecap:round;"/>
   </g>
   <g id="patch_91">
    <path clip-path="url(#pbde53b2b69)" d="M 363.978524 245.425889 
Q 447.351313 219.783229 529.655471 194.469244 
" style="fill:none;stroke:#808080;stroke-linecap:round;"/>
    <path clip-path="url(#pbde53b2b69)" d="M 525.244268 193.733521 
L 529.655471 194.469244 
L 526.420172 197.556773 
L 525.244268 193.733521 
z
" style="fill:#808080;stroke:#808080;stroke-linecap:round;"/>
   </g>
   <g id="patch_92">
    <path clip-path="url(#pbde53b2b69)" d="M 363.900688 245.184822 
Q 463.980264 211.168649 563.001281 177.512271 
" style="fill:none;stroke:#808080;stroke-linecap:round;"/>
    <path clip-path="url(#pbde53b2b69)" d="M 558.570444 176.905904 
L 563.001281 177.512271 
L 559.857686 180.693121 
L 558.570444 176.905904 
z
" style="fill:#808080;stroke:#808080;stroke-linecap:round;"/>
   </g>
   <g id="patch_93">
    <path clip-path="url(#pbde53b2b69)" d="M 349.578861 241.85087 
Q 290.744421 183.046947 232.700756 125.033388 
" style="fill:none;stroke:#808080;stroke-linecap:round;"/>
    <path clip-path="url(#pbde53b2b69)" d="M 234.11607 129.275661 
L 232.700756 125.033388 
L 236.943764 126.446501 
L 234.11607 129.275661 
z
" style="fill:#808080;stroke:#808080;stroke-linecap:round;"/>
   </g>
   <g id="patch_94">
    <path clip-path="url(#pbde53b2b69)" d="M 350.226682 254.682828 
Q 308.608251 305.693128 267.696607 355.837142 
" style="fill:none;stroke:#808080;stroke-linecap:round;"/>
    <path clip-path="url(#pbde53b2b69)" d="M 271.774947 354.002165 
L 267.696607 355.837142 
L 268.675629 351.473484 
L 271.774947 354.002165 
z
" style="fill:#808080;stroke:#808080;stroke-linecap:round;"/>
   </g>
   <g id="patch_95">
    <path clip-path="url(#pbde53b2b69)" d="M 347.385085 250.388615 
Q 267.756736 273.53109 189.201997 296.36154 
" style="fill:none;stroke:#808080;stroke-linecap:round;"/>
    <path clip-path="url(#pbde53b2b69)" d="M 193.601231 297.16574 
L 189.201997 296.36154 
L 192.484898 293.324673 
L 193.601231 297.16574 
z
" style="fill:#808080;stroke:#808080;stroke-linecap:round;"/>
   </g>
   <g id="patch_96">
    <path clip-path="url(#pbde53b2b69)" d="M 487.793524 296.80423 
Q 418.614488 305.325285 350.545099 313.709659 
" style="fill:none;stroke:#808080;stroke-linecap:round;"/>
    <path clip-path="url(#pbde53b2b69)" d="M 354.759597 315.205657 
L 350.545099 313.709659 
L 354.270596 311.23566 
L 354.759597 315.205657 
z
" style="fill:#808080;stroke:#808080;stroke-linecap:round;"/>
   </g>
   <g id="patch_97">
    <path clip-path="url(#pbde53b2b69)" d="M 497.913101 304.272351 
Q 504.322822 340.168363 510.536012 374.963751 
" style="fill:none;stroke:#808080;stroke-linecap:round;"/>
    <path clip-path="url(#pbde53b2b69)" d="M 511.801737 370.674469 
L 510.536012 374.963751 
L 507.864022 371.377602 
L 511.801737 370.674469 
z
" style="fill:#808080;stroke:#808080;stroke-linecap:round;"/>
   </g>
   <g id="patch_98">
    <path clip-path="url(#pbde53b2b69)" d="M 488.268607 298.746381 
Q 358.136658 346.830764 229.053441 394.527636 
" style="fill:none;stroke:#808080;stroke-linecap:round;"/>
    <path clip-path="url(#pbde53b2b69)" d="M 233.498693 395.017261 
L 229.053441 394.527636 
L 232.112292 391.265209 
L 233.498693 395.017261 
z
" style="fill:#808080;stroke:#808080;stroke-linecap:round;"/>
   </g>
   <g id="patch_99">
    <path clip-path="url(#pbde53b2b69)" d="M 503.604453 384.983511 
Q 366.071233 391.25244 229.654887 397.47046 
" style="fill:none;stroke:#808080;stroke-linecap:round;"/>
    <path clip-path="url(#pbde53b2b69)" d="M 233.741806 399.28625 
L 229.654887 397.47046 
L 233.55967 395.290399 
L 233.741806 399.28625 
z
" style="fill:#808080;stroke:#808080;stroke-linecap:round;"/>
   </g>
   <g id="patch_100">
    <path clip-path="url(#pbde53b2b69)" d="M 228.541894 398.011863 
Q 352.3954 399.385556 475.13094 400.746849 
" style="fill:none;stroke:#808080;stroke-linecap:round;"/>
    <path clip-path="url(#pbde53b2b69)" d="M 471.153367 398.702609 
L 475.13094 400.746849 
L 471.109005 402.702363 
L 471.153367 398.702609 
z
" style="fill:#808080;stroke:#808080;stroke-linecap:round;"/>
   </g>
   <g id="patch_101">
    <path clip-path="url(#pbde53b2b69)" d="M 532.592633 197.416282 
Q 495.055705 231.517367 458.346312 264.866663 
" style="fill:none;stroke:#808080;stroke-linecap:round;"/>
    <path clip-path="url(#pbde53b2b69)" d="M 462.651831 263.657321 
L 458.346312 264.866663 
L 459.96215 260.696643 
L 462.651831 263.657321 
z
" style="fill:#808080;stroke:#808080;stroke-linecap:round;"/>
   </g>
   <g id="patch_102">
    <path clip-path="url(#pbde53b2b69)" d="M 535.722175 199.607851 
Q 517.696549 243.66743 500.094273 286.692226 
" style="fill:none;stroke:#808080;stroke-linecap:round;"/>
    <path clip-path="url(#pbde53b2b69)" d="M 503.45997 283.747386 
L 500.094273 286.692226 
L 499.757819 282.232764 
L 503.45997 283.747386 
z
" style="fill:#808080;stroke:#808080;stroke-linecap:round;"/>
   </g>
   <g id="patch_103">
    <path clip-path="url(#pbde53b2b69)" d="M 530.72432 194.140502 
Q 447.351531 219.783162 365.047373 245.097147 
" style="fill:none;stroke:#808080;stroke-linecap:round;"/>
    <path clip-path="url(#pbde53b2b69)" d="M 369.458576 245.832869 
L 365.047373 245.097147 
L 368.282673 242.009618 
L 369.458576 245.832869 
z
" style="fill:#808080;stroke:#808080;stroke-linecap:round;"/>
   </g>
   <g id="patch_104">
    <path clip-path="url(#pbde53b2b69)" d="M 565.504543 179.778009 
Q 511.685201 222.902593 458.738349 265.328064 
" style="fill:none;stroke:#808080;stroke-linecap:round;"/>
    <path clip-path="url(#pbde53b2b69)" d="M 463.11048 264.3876 
L 458.738349 265.328064 
L 460.609257 261.266081 
L 463.11048 264.3876 
z
" style="fill:#808080;stroke:#808080;stroke-linecap:round;"/>
   </g>
   <g id="patch_105">
    <path clip-path="url(#pbde53b2b69)" d="M 567.667952 181.711027 
Q 534.325157 235.054975 501.574955 287.450855 
" style="fill:none;stroke:#808080;stroke-linecap:round;"/>
    <path clip-path="url(#pbde53b2b69)" d="M 505.391036 285.119005 
L 501.574955 287.450855 
L 501.999124 282.99888 
L 505.391036 285.119005 
z
" style="fill:#808080;stroke:#808080;stroke-linecap:round;"/>
   </g>
   <g id="patch_106">
    <path clip-path="url(#pbde53b2b69)" d="M 564.061052 177.152064 
Q 463.981476 211.168237 364.960459 244.824615 
" style="fill:none;stroke:#808080;stroke-linecap:round;"/>
    <path clip-path="url(#pbde53b2b69)" d="M 369.391296 245.430982 
L 364.960459 244.824615 
L 368.104055 241.643765 
L 369.391296 245.430982 
z
" style="fill:#808080;stroke:#808080;stroke-linecap:round;"/>
   </g>
   <g id="patch_107">
    <path clip-path="url(#pbde53b2b69)" d="M 607.235475 246.441484 
Q 533.449286 258.256023 460.767068 269.893795 
" style="fill:none;stroke:#808080;stroke-linecap:round;"/>
    <path clip-path="url(#pbde53b2b69)" d="M 465.032967 271.236221 
L 460.767068 269.893795 
L 464.400548 267.286532 
L 465.032967 271.236221 
z
" style="fill:#808080;stroke:#808080;stroke-linecap:round;"/>
   </g>
   <g id="patch_108">
    <path clip-path="url(#pbde53b2b69)" d="M 607.122988 245.168893 
Q 485.742084 246.521849 365.479144 247.862345 
" style="fill:none;stroke:#808080;stroke-linecap:round;"/>
    <path clip-path="url(#pbde53b2b69)" d="M 369.501187 249.817638 
L 365.479144 247.862345 
L 369.456604 245.817886 
L 369.501187 249.817638 
z
" style="fill:#808080;stroke:#808080;stroke-linecap:round;"/>
   </g>
   <g id="patch_109">
    <path clip-path="url(#pbde53b2b69)" d="M 608.679067 240.122483 
Q 577.394033 218.334167 547.026457 197.184811 
" style="fill:none;stroke:#808080;stroke-linecap:round;"/>
    <path clip-path="url(#pbde53b2b69)" d="M 549.165851 201.112023 
L 547.026457 197.184811 
L 551.451863 197.829623 
L 549.165851 201.112023 
z
" style="fill:#808080;stroke:#808080;stroke-linecap:round;"/>
   </g>
   <g id="patch_110">
    <path clip-path="url(#pbde53b2b69)" d="M 611.247421 237.699128 
Q 594.022332 209.718172 577.383352 182.689307 
" style="fill:none;stroke:#808080;stroke-linecap:round;"/>
    <path clip-path="url(#pbde53b2b69)" d="M 577.777122 187.144074 
L 577.383352 182.689307 
L 581.183427 185.047151 
L 577.777122 187.144074 
z
" style="fill:#808080;stroke:#808080;stroke-linecap:round;"/>
   </g>
   <g id="patch_111">
    <path clip-path="url(#pbde53b2b69)" d="M 381.895864 66.06607 
Q 495.402493 152.937477 608.021276 239.129378 
" style="fill:none;stroke:#808080;stroke-linecap:round;"/>
    <path clip-path="url(#pbde53b2b69)" d="M 606.060358 235.110074 
L 608.021276 239.129378 
L 603.629283 238.28653 
L 606.060358 235.110074 
z
" style="fill:#808080;stroke:#808080;stroke-linecap:round;"/>
   </g>
   <g id="patch_112">
    <path clip-path="url(#pbde53b2b69)" d="M 233.868127 115.015635 
Q 300.402425 89.463138 365.893014 64.311478 
" style="fill:none;stroke:#808080;stroke-linecap:round;"/>
    <path clip-path="url(#pbde53b2b69)" d="M 361.441886 63.87851 
L 365.893014 64.311478 
L 362.875963 67.612599 
L 361.441886 63.87851 
z
" style="fill:#808080;stroke:#808080;stroke-linecap:round;"/>
   </g>
   <g id="patch_113">
    <path clip-path="url(#pbde53b2b69)" d="M 229.364608 126.005269 
Q 249.699306 170.786009 269.571738 214.548757 
" style="fill:none;stroke:#808080;stroke-linecap:round;"/>
    <path clip-path="url(#pbde53b2b69)" d="M 269.738929 210.079747 
L 269.571738 214.548757 
L 266.096845 211.733598 
L 269.738929 210.079747 
z
" style="fill:#808080;stroke:#808080;stroke-linecap:round;"/>
   </g>
   <g id="patch_114">
    <path clip-path="url(#pbde53b2b69)" d="M 232.540683 123.540688 
Q 268.1497 152.107504 302.886631 179.974701 
" style="fill:none;stroke:#808080;stroke-linecap:round;"/>
    <path clip-path="url(#pbde53b2b69)" d="M 301.018077 175.911635 
L 302.886631 179.974701 
L 298.515046 179.031705 
L 301.018077 175.911635 
z
" style="fill:#808080;stroke:#808080;stroke-linecap:round;"/>
   </g>
   <g id="patch_115">
    <path clip-path="url(#pbde53b2b69)" d="M 233.673049 121.691055 
Q 317.876685 159.803788 401.061766 197.455497 
" style="fill:none;stroke:#808080;stroke-linecap:round;"/>
    <path clip-path="url(#pbde53b2b69)" d="M 398.242375 193.984037 
L 401.061766 197.455497 
L 396.592964 197.628134 
L 398.242375 193.984037 
z
" style="fill:#808080;stroke:#808080;stroke-linecap:round;"/>
   </g>
   <g id="patch_116">
    <path clip-path="url(#pbde53b2b69)" d="M 230.332317 125.491133 
Q 247.606304 153.485227 264.293176 180.52785 
" style="fill:none;stroke:#808080;stroke-linecap:round;"/>
    <path clip-path="url(#pbde53b2b69)" d="M 263.8947 176.073502 
L 264.293176 180.52785 
L 260.490612 178.174022 
L 263.8947 176.073502 
z
" style="fill:#808080;stroke:#808080;stroke-linecap:round;"/>
   </g>
   <g id="patch_117">
    <path clip-path="url(#pbde53b2b69)" d="M 465.814799 96.079056 
Q 480.447374 191.633142 494.910713 286.082076 
" style="fill:none;stroke:#808080;stroke-linecap:round;"/>
    <path clip-path="url(#pbde53b2b69)" d="M 496.282189 281.825428 
L 494.910713 286.082076 
L 492.32828 282.430905 
L 496.282189 281.825428 
z
" style="fill:#808080;stroke:#808080;stroke-linecap:round;"/>
   </g>
   <g id="patch_118">
    <path clip-path="url(#pbde53b2b69)" d="M 469.543797 94.557882 
Q 501.750758 139.553963 533.306981 183.640902 
" style="fill:none;stroke:#808080;stroke-linecap:round;"/>
    <path clip-path="url(#pbde53b2b69)" d="M 532.60515 179.22418 
L 533.306981 183.640902 
L 529.352505 181.552334 
L 532.60515 179.22418 
z
" style="fill:#808080;stroke:#808080;stroke-linecap:round;"/>
   </g>
   <g id="patch_119">
    <path clip-path="url(#pbde53b2b69)" d="M 471.248128 92.952205 
Q 518.382851 130.942043 564.647084 168.230279 
" style="fill:none;stroke:#808080;stroke-linecap:round;"/>
    <path clip-path="url(#pbde53b2b69)" d="M 562.787784 164.16297 
L 564.647084 168.230279 
L 560.277656 167.277333 
L 562.787784 164.16297 
z
" style="fill:#808080;stroke:#808080;stroke-linecap:round;"/>
   </g>
   <g id="patch_120">
    <path clip-path="url(#pbde53b2b69)" d="M 346.118926 136.210413 
Q 418.286465 212.826648 489.687415 288.629038 
" style="fill:none;stroke:#808080;stroke-linecap:round;"/>
    <path clip-path="url(#pbde53b2b69)" d="M 488.400633 284.346026 
L 489.687415 288.629038 
L 485.488936 287.088657 
L 488.400633 284.346026 
z
" style="fill:#808080;stroke:#808080;stroke-linecap:round;"/>
   </g>
   <g id="patch_121">
    <path clip-path="url(#pbde53b2b69)" d="M 348.454474 132.473843 
Q 439.591498 160.751194 529.660706 188.697231 
" style="fill:none;stroke:#808080;stroke-linecap:round;"/>
    <path clip-path="url(#pbde53b2b69)" d="M 526.433045 185.601717 
L 529.660706 188.697231 
L 525.247699 189.422051 
L 526.433045 185.601717 
z
" style="fill:#808080;stroke:#808080;stroke-linecap:round;"/>
   </g>
   <g id="patch_122">
    <path clip-path="url(#pbde53b2b69)" d="M 348.683961 131.535757 
Q 456.219187 152.136036 562.656346 172.52596 
" style="fill:none;stroke:#808080;stroke-linecap:round;"/>
    <path clip-path="url(#pbde53b2b69)" d="M 559.104075 169.809092 
L 562.656346 172.52596 
L 558.351489 173.737656 
L 559.104075 169.809092 
z
" style="fill:#808080;stroke:#808080;stroke-linecap:round;"/>
   </g>
   <g id="patch_123">
    <path clip-path="url(#pbde53b2b69)" d="M 386.802752 413.108579 
Q 377.480285 308.30526 368.256878 204.615578 
" style="fill:none;stroke:#808080;stroke-linecap:round;"/>
    <path clip-path="url(#pbde53b2b69)" d="M 366.619152 208.777051 
L 368.256878 204.615578 
L 370.603421 208.422642 
L 366.619152 208.777051 
z
" style="fill:#808080;stroke:#808080;stroke-linecap:round;"/>
   </g>
   <g id="patch_124">
    <path clip-path="url(#pbde53b2b69)" d="M 260.264978 354.84877 
Q 243.648795 240.770403 227.19376 127.798395 
" style="fill:none;stroke:#808080;stroke-linecap:round;"/>
    <path clip-path="url(#pbde53b2b69)" d="M 225.791184 132.044897 
L 227.19376 127.798395 
L 229.749416 131.468357 
L 225.791184 132.044897 
z
" style="fill:#808080;stroke:#808080;stroke-linecap:round;"/>
   </g>
   <g id="patch_125">
    <path clip-path="url(#pbde53b2b69)" d="M 188.198218 301.248152 
Q 346.032143 341.83998 502.783271 382.153333 
" style="fill:none;stroke:#808080;stroke-linecap:round;"/>
    <path clip-path="url(#pbde53b2b69)" d="M 499.407485 379.220064 
L 502.783271 382.153333 
L 498.411184 383.094 
L 499.407485 379.220064 
z
" style="fill:#808080;stroke:#808080;stroke-linecap:round;"/>
   </g>
   <g id="patch_126">
    <path clip-path="url(#pbde53b2b69)" d="M 323.941528 234.56116 
Q 288.40192 326.91553 253.263848 418.226459 
" style="fill:none;stroke:#808080;stroke-linecap:round;"/>
    <path clip-path="url(#pbde53b2b69)" d="M 256.566987 415.211617 
L 253.263848 418.226459 
L 252.833858 413.775042 
L 256.566987 415.211617 
z
" style="fill:#808080;stroke:#808080;stroke-linecap:round;"/>
   </g>
   <g id="patch_127">
    <path clip-path="url(#pbde53b2b69)" d="M 318.572741 228.23079 
Q 196.180603 253.523201 74.883366 278.58935 
" style="fill:none;stroke:#808080;stroke-linecap:round;"/>
    <path clip-path="url(#pbde53b2b69)" d="M 79.205348 279.738468 
L 74.883366 278.58935 
L 78.395849 275.821235 
L 79.205348 279.738468 
z
" style="fill:#808080;stroke:#808080;stroke-linecap:round;"/>
   </g>
   <g id="patch_128">
    <path clip-path="url(#pbde53b2b69)" d="M 335.59161 225.035609 
Q 472.872787 201.839137 609.051557 178.828939 
" style="fill:none;stroke:#808080;stroke-linecap:round;"/>
    <path clip-path="url(#pbde53b2b69)" d="M 604.774247 177.523328 
L 609.051557 178.828939 
L 605.440683 181.467421 
L 604.774247 177.523328 
z
" style="fill:#808080;stroke:#808080;stroke-linecap:round;"/>
   </g>
   <g id="PathCollection_1">
    <defs>
     <path d="M 0 11.18034 
C 2.965061 11.18034 5.80908 10.002309 7.905694 7.905694 
C 10.002309 5.80908 11.18034 2.965061 11.18034 -0 
C 11.18034 -2.965061 10.002309 -5.80908 7.905694 -7.905694 
C 5.80908 -10.002309 2.965061 -11.18034 0 -11.18034 
C -2.965061 -11.18034 -5.80908 -10.002309 -7.905694 -7.905694 
C -10.002309 -5.80908 -11.18034 -2.965061 -11.18034 0 
C -11.18034 2.965061 -10.002309 5.80908 -7.905694 7.905694 
C -5.80908 10.002309 -2.965061 11.18034 0 11.18034 
z
" id="C0_0_b754286567"/>
    </defs>
    <g clip-path="url(#pbde53b2b69)">
     <use style="fill:#efefef;stroke:#efefef;" x="297.473093" xlink:href="#C0_0_b754286567" y="350.767527"/>
    </g>
    <g clip-path="url(#pbde53b2b69)">
     <use style="fill:#e9e9e9;stroke:#e9e9e9;" x="448.482933" xlink:href="#C0_0_b754286567" y="191.777408"/>
    </g>
    <g clip-path="url(#pbde53b2b69)">
     <use style="fill:#efefef;stroke:#efefef;" x="484.905722" xlink:href="#C0_0_b754286567" y="400.855264"/>
    </g>
    <g clip-path="url(#pbde53b2b69)">
     <use style="fill:#f3f3f3;stroke:#f3f3f3;" x="292.080831" xlink:href="#C0_0_b754286567" y="94.502792"/>
    </g>
    <g clip-path="url(#pbde53b2b69)">
     <use style="fill:#f0f0f0;stroke:#f0f0f0;" x="201.346974" xlink:href="#C0_0_b754286567" y="199.608482"/>
    </g>
    <g clip-path="url(#pbde53b2b69)">
     <use style="fill:#cecece;stroke:#cecece;" x="410.824628" xlink:href="#C0_0_b754286567" y="264.448831"/>
    </g>
    <g clip-path="url(#pbde53b2b69)">
     <use style="fill:#d5d5d5;stroke:#d5d5d5;" x="340.838244" xlink:href="#C0_0_b754286567" y="314.90529"/>
    </g>
    <g clip-path="url(#pbde53b2b69)">
     <use style="fill:#f0f0f0;stroke:#f0f0f0;" x="451.110731" xlink:href="#C0_0_b754286567" y="271.439954"/>
    </g>
    <g clip-path="url(#pbde53b2b69)">
     <use style="fill:#e4e4e4;stroke:#e4e4e4;" x="367.390338" xlink:href="#C0_0_b754286567" y="194.87392"/>
    </g>
    <g clip-path="url(#pbde53b2b69)">
     <use style="fill:#efefef;stroke:#efefef;" x="566.998403" xlink:href="#C0_0_b754286567" y="349.604091"/>
    </g>
    <g clip-path="url(#pbde53b2b69)">
     <use style="fill:#bababa;stroke:#bababa;" x="432.429771" xlink:href="#C0_0_b754286567" y="296.124124"/>
    </g>
    <g clip-path="url(#pbde53b2b69)">
     <use style="fill:#c5c5c5;stroke:#c5c5c5;" x="273.613861" xlink:href="#C0_0_b754286567" y="223.450254"/>
    </g>
    <g clip-path="url(#pbde53b2b69)">
     <use style="fill:#f0f0f0;stroke:#f0f0f0;" x="310.514306" xlink:href="#C0_0_b754286567" y="186.093892"/>
    </g>
    <g clip-path="url(#pbde53b2b69)">
     <use style="fill:#e9e9e9;stroke:#e9e9e9;" x="409.970336" xlink:href="#C0_0_b754286567" y="201.487745"/>
    </g>
    <g clip-path="url(#pbde53b2b69)">
     <use style="fill:#e7e7e7;stroke:#e7e7e7;" x="269.425762" xlink:href="#C0_0_b754286567" y="188.84568"/>
    </g>
    <g clip-path="url(#pbde53b2b69)">
     <use style="fill:#d7d7d7;stroke:#d7d7d7;" x="339.169742" xlink:href="#C0_0_b754286567" y="288.961378"/>
    </g>
    <g clip-path="url(#pbde53b2b69)">
     <use style="fill:#5f5f5f;stroke:#5f5f5f;" x="355.702487" xlink:href="#C0_0_b754286567" y="247.971319"/>
    </g>
    <g clip-path="url(#pbde53b2b69)">
     <use style="fill:#cecece;stroke:#cecece;" x="496.390482" xlink:href="#C0_0_b754286567" y="295.745309"/>
    </g>
    <g clip-path="url(#pbde53b2b69)">
     <use style="fill:#e5e5e5;stroke:#e5e5e5;" x="512.25477" xlink:href="#C0_0_b754286567" y="384.589219"/>
    </g>
    <g clip-path="url(#pbde53b2b69)">
     <use style="fill:#ececec;stroke:#ececec;" x="219.883877" xlink:href="#C0_0_b754286567" y="397.915834"/>
    </g>
    <g clip-path="url(#pbde53b2b69)">
     <use style="fill:#eeeeee;stroke:#eeeeee;" x="539.000358" xlink:href="#C0_0_b754286567" y="191.595072"/>
    </g>
    <g clip-path="url(#pbde53b2b69)">
     <use style="fill:#cacaca;stroke:#cacaca;" x="572.259253" xlink:href="#C0_0_b754286567" y="174.365567"/>
    </g>
    <g clip-path="url(#pbde53b2b69)">
     <use style="fill:#e8e8e8;stroke:#e8e8e8;" x="615.786366" xlink:href="#C0_0_b754286567" y="245.072328"/>
    </g>
    <g clip-path="url(#pbde53b2b69)">
     <use style="fill:#e4e4e4;stroke:#e4e4e4;" x="375.022242" xlink:href="#C0_0_b754286567" y="60.805398"/>
    </g>
    <g clip-path="url(#pbde53b2b69)">
     <use style="fill:#c5c5c5;stroke:#c5c5c5;" x="225.78409" xlink:href="#C0_0_b754286567" y="118.120309"/>
    </g>
    <g clip-path="url(#pbde53b2b69)">
     <use style="fill:#f0f0f0;stroke:#f0f0f0;" x="464.50353" xlink:href="#C0_0_b754286567" y="87.516167"/>
    </g>
    <g clip-path="url(#pbde53b2b69)">
     <use style="fill:#e3e3e3;stroke:#e3e3e3;" x="340.181478" xlink:href="#C0_0_b754286567" y="129.906956"/>
    </g>
    <g clip-path="url(#pbde53b2b69)">
     <use style="fill:#e4e4e4;stroke:#e4e4e4;" x="387.569765" xlink:href="#C0_0_b754286567" y="421.731349"/>
    </g>
    <g clip-path="url(#pbde53b2b69)">
     <use style="fill:#c5c5c5;stroke:#c5c5c5;" x="261.512891" xlink:href="#C0_0_b754286567" y="363.416314"/>
    </g>
    <g clip-path="url(#pbde53b2b69)">
     <use style="fill:#e0e0e0;stroke:#e0e0e0;" x="179.810514" xlink:href="#C0_0_b754286567" y="299.090997"/>
    </g>
    <g clip-path="url(#pbde53b2b69)">
     <use style="fill:#dedede;stroke:#dedede;" x="327.05185" xlink:href="#C0_0_b754286567" y="226.478577"/>
    </g>
    <g clip-path="url(#pbde53b2b69)">
     <use style="fill:#f0f0f0;stroke:#f0f0f0;" x="249.752618" xlink:href="#C0_0_b754286567" y="427.350852"/>
    </g>
    <g clip-path="url(#pbde53b2b69)">
     <use style="fill:#f0f0f0;stroke:#f0f0f0;" x="65.305785" xlink:href="#C0_0_b754286567" y="280.568563"/>
    </g>
    <g clip-path="url(#pbde53b2b69)">
     <use style="fill:#f0f0f0;stroke:#f0f0f0;" x="618.694215" xlink:href="#C0_0_b754286567" y="177.199614"/>
    </g>
   </g>
   <g id="text_1">
    <g clip-path="url(#pbde53b2b69)">
     <!-- PURB -->
     <g transform="translate(283.894187 353.526902)scale(0.1 -0.1)">
      <defs>
       <path d="M 19.671875 64.796875 
L 19.671875 37.40625 
L 32.078125 37.40625 
Q 38.96875 37.40625 42.71875 40.96875 
Q 46.484375 44.53125 46.484375 51.125 
Q 46.484375 57.671875 42.71875 61.234375 
Q 38.96875 64.796875 32.078125 64.796875 
z
M 9.8125 72.90625 
L 32.078125 72.90625 
Q 44.34375 72.90625 50.609375 67.359375 
Q 56.890625 61.8125 56.890625 51.125 
Q 56.890625 40.328125 50.609375 34.8125 
Q 44.34375 29.296875 32.078125 29.296875 
L 19.671875 29.296875 
L 19.671875 0 
L 9.8125 0 
z
" id="DejaVuSans-80"/>
       <path d="M 8.6875 72.90625 
L 18.609375 72.90625 
L 18.609375 28.609375 
Q 18.609375 16.890625 22.84375 11.734375 
Q 27.09375 6.59375 36.625 6.59375 
Q 46.09375 6.59375 50.34375 11.734375 
Q 54.59375 16.890625 54.59375 28.609375 
L 54.59375 72.90625 
L 64.5 72.90625 
L 64.5 27.390625 
Q 64.5 13.140625 57.4375 5.859375 
Q 50.390625 -1.421875 36.625 -1.421875 
Q 22.796875 -1.421875 15.734375 5.859375 
Q 8.6875 13.140625 8.6875 27.390625 
z
" id="DejaVuSans-85"/>
       <path d="M 44.390625 34.1875 
Q 47.5625 33.109375 50.5625 29.59375 
Q 53.5625 26.078125 56.59375 19.921875 
L 66.609375 0 
L 56 0 
L 46.6875 18.703125 
Q 43.0625 26.03125 39.671875 28.421875 
Q 36.28125 30.8125 30.421875 30.8125 
L 19.671875 30.8125 
L 19.671875 0 
L 9.8125 0 
L 9.8125 72.90625 
L 32.078125 72.90625 
Q 44.578125 72.90625 50.734375 67.671875 
Q 56.890625 62.453125 56.890625 51.90625 
Q 56.890625 45.015625 53.6875 40.46875 
Q 50.484375 35.9375 44.390625 34.1875 
z
M 19.671875 64.796875 
L 19.671875 38.921875 
L 32.078125 38.921875 
Q 39.203125 38.921875 42.84375 42.21875 
Q 46.484375 45.515625 46.484375 51.90625 
Q 46.484375 58.296875 42.84375 61.546875 
Q 39.203125 64.796875 32.078125 64.796875 
z
" id="DejaVuSans-82"/>
       <path d="M 19.671875 34.8125 
L 19.671875 8.109375 
L 35.5 8.109375 
Q 43.453125 8.109375 47.28125 11.40625 
Q 51.125 14.703125 51.125 21.484375 
Q 51.125 28.328125 47.28125 31.5625 
Q 43.453125 34.8125 35.5 34.8125 
z
M 19.671875 64.796875 
L 19.671875 42.828125 
L 34.28125 42.828125 
Q 41.5 42.828125 45.03125 45.53125 
Q 48.578125 48.25 48.578125 53.8125 
Q 48.578125 59.328125 45.03125 62.0625 
Q 41.5 64.796875 34.28125 64.796875 
z
M 9.8125 72.90625 
L 35.015625 72.90625 
Q 46.296875 72.90625 52.390625 68.21875 
Q 58.5 63.53125 58.5 54.890625 
Q 58.5 48.1875 55.375 44.234375 
Q 52.25 40.28125 46.1875 39.3125 
Q 53.46875 37.75 57.5 32.78125 
Q 61.53125 27.828125 61.53125 20.40625 
Q 61.53125 10.640625 54.890625 5.3125 
Q 48.25 0 35.984375 0 
L 9.8125 0 
z
" id="DejaVuSans-66"/>
      </defs>
      <use xlink:href="#DejaVuSans-80"/>
      <use x="60.302734" xlink:href="#DejaVuSans-85"/>
      <use x="133.496094" xlink:href="#DejaVuSans-82"/>
      <use x="202.978516" xlink:href="#DejaVuSans-66"/>
     </g>
    </g>
   </g>
   <g id="text_2">
    <g clip-path="url(#pbde53b2b69)">
     <!-- PURA -->
     <g transform="translate(435.114183 194.536783)scale(0.1 -0.1)">
      <defs>
       <path d="M 34.1875 63.1875 
L 20.796875 26.90625 
L 47.609375 26.90625 
z
M 28.609375 72.90625 
L 39.796875 72.90625 
L 67.578125 0 
L 57.328125 0 
L 50.6875 18.703125 
L 17.828125 18.703125 
L 11.1875 0 
L 0.78125 0 
z
" id="DejaVuSans-65"/>
      </defs>
      <use xlink:href="#DejaVuSans-80"/>
      <use x="60.302734" xlink:href="#DejaVuSans-85"/>
      <use x="133.496094" xlink:href="#DejaVuSans-82"/>
      <use x="198.978516" xlink:href="#DejaVuSans-65"/>
     </g>
    </g>
   </g>
   <g id="text_3">
    <g clip-path="url(#pbde53b2b69)">
     <!-- APRT -->
     <g transform="translate(472.304941 403.614639)scale(0.1 -0.1)">
      <defs>
       <path d="M -0.296875 72.90625 
L 61.375 72.90625 
L 61.375 64.59375 
L 35.5 64.59375 
L 35.5 0 
L 25.59375 0 
L 25.59375 64.59375 
L -0.296875 64.59375 
z
" id="DejaVuSans-84"/>
      </defs>
      <use xlink:href="#DejaVuSans-65"/>
      <use x="68.408203" xlink:href="#DejaVuSans-80"/>
      <use x="128.710938" xlink:href="#DejaVuSans-82"/>
      <use x="190.943359" xlink:href="#DejaVuSans-84"/>
     </g>
    </g>
   </g>
   <g id="text_4">
    <g clip-path="url(#pbde53b2b69)">
     <!-- NTPCR -->
     <g transform="translate(275.305831 97.262167)scale(0.1 -0.1)">
      <defs>
       <path d="M 9.8125 72.90625 
L 23.09375 72.90625 
L 55.421875 11.921875 
L 55.421875 72.90625 
L 64.984375 72.90625 
L 64.984375 0 
L 51.703125 0 
L 19.390625 60.984375 
L 19.390625 0 
L 9.8125 0 
z
" id="DejaVuSans-78"/>
       <path d="M 64.40625 67.28125 
L 64.40625 56.890625 
Q 59.421875 61.53125 53.78125 63.8125 
Q 48.140625 66.109375 41.796875 66.109375 
Q 29.296875 66.109375 22.65625 58.46875 
Q 16.015625 50.828125 16.015625 36.375 
Q 16.015625 21.96875 22.65625 14.328125 
Q 29.296875 6.6875 41.796875 6.6875 
Q 48.140625 6.6875 53.78125 8.984375 
Q 59.421875 11.28125 64.40625 15.921875 
L 64.40625 5.609375 
Q 59.234375 2.09375 53.4375 0.328125 
Q 47.65625 -1.421875 41.21875 -1.421875 
Q 24.65625 -1.421875 15.125 8.703125 
Q 5.609375 18.84375 5.609375 36.375 
Q 5.609375 53.953125 15.125 64.078125 
Q 24.65625 74.21875 41.21875 74.21875 
Q 47.75 74.21875 53.53125 72.484375 
Q 59.328125 70.75 64.40625 67.28125 
z
" id="DejaVuSans-67"/>
      </defs>
      <use xlink:href="#DejaVuSans-78"/>
      <use x="74.804688" xlink:href="#DejaVuSans-84"/>
      <use x="135.888672" xlink:href="#DejaVuSans-80"/>
      <use x="196.191406" xlink:href="#DejaVuSans-67"/>
      <use x="266.015625" xlink:href="#DejaVuSans-82"/>
     </g>
    </g>
   </g>
   <g id="text_5">
    <g clip-path="url(#pbde53b2b69)">
     <!-- NUDT16 -->
     <g transform="translate(180.680567 202.367857)scale(0.1 -0.1)">
      <defs>
       <path d="M 19.671875 64.796875 
L 19.671875 8.109375 
L 31.59375 8.109375 
Q 46.6875 8.109375 53.6875 14.9375 
Q 60.6875 21.78125 60.6875 36.53125 
Q 60.6875 51.171875 53.6875 57.984375 
Q 46.6875 64.796875 31.59375 64.796875 
z
M 9.8125 72.90625 
L 30.078125 72.90625 
Q 51.265625 72.90625 61.171875 64.09375 
Q 71.09375 55.28125 71.09375 36.53125 
Q 71.09375 17.671875 61.125 8.828125 
Q 51.171875 0 30.078125 0 
L 9.8125 0 
z
" id="DejaVuSans-68"/>
       <path d="M 12.40625 8.296875 
L 28.515625 8.296875 
L 28.515625 63.921875 
L 10.984375 60.40625 
L 10.984375 69.390625 
L 28.421875 72.90625 
L 38.28125 72.90625 
L 38.28125 8.296875 
L 54.390625 8.296875 
L 54.390625 0 
L 12.40625 0 
z
" id="DejaVuSans-49"/>
       <path d="M 33.015625 40.375 
Q 26.375 40.375 22.484375 35.828125 
Q 18.609375 31.296875 18.609375 23.390625 
Q 18.609375 15.53125 22.484375 10.953125 
Q 26.375 6.390625 33.015625 6.390625 
Q 39.65625 6.390625 43.53125 10.953125 
Q 47.40625 15.53125 47.40625 23.390625 
Q 47.40625 31.296875 43.53125 35.828125 
Q 39.65625 40.375 33.015625 40.375 
z
M 52.59375 71.296875 
L 52.59375 62.3125 
Q 48.875 64.0625 45.09375 64.984375 
Q 41.3125 65.921875 37.59375 65.921875 
Q 27.828125 65.921875 22.671875 59.328125 
Q 17.53125 52.734375 16.796875 39.40625 
Q 19.671875 43.65625 24.015625 45.921875 
Q 28.375 48.1875 33.59375 48.1875 
Q 44.578125 48.1875 50.953125 41.515625 
Q 57.328125 34.859375 57.328125 23.390625 
Q 57.328125 12.15625 50.6875 5.359375 
Q 44.046875 -1.421875 33.015625 -1.421875 
Q 20.359375 -1.421875 13.671875 8.265625 
Q 6.984375 17.96875 6.984375 36.375 
Q 6.984375 53.65625 15.1875 63.9375 
Q 23.390625 74.21875 37.203125 74.21875 
Q 40.921875 74.21875 44.703125 73.484375 
Q 48.484375 72.75 52.59375 71.296875 
z
" id="DejaVuSans-54"/>
      </defs>
      <use xlink:href="#DejaVuSans-78"/>
      <use x="74.804688" xlink:href="#DejaVuSans-85"/>
      <use x="147.998047" xlink:href="#DejaVuSans-68"/>
      <use x="225" xlink:href="#DejaVuSans-84"/>
      <use x="286.083984" xlink:href="#DejaVuSans-49"/>
      <use x="349.707031" xlink:href="#DejaVuSans-54"/>
     </g>
    </g>
   </g>
   <g id="text_6">
    <g clip-path="url(#pbde53b2b69)">
     <!-- AK3 -->
     <g transform="translate(400.94416 267.208206)scale(0.1 -0.1)">
      <defs>
       <path d="M 9.8125 72.90625 
L 19.671875 72.90625 
L 19.671875 42.09375 
L 52.390625 72.90625 
L 65.09375 72.90625 
L 28.90625 38.921875 
L 67.671875 0 
L 54.6875 0 
L 19.671875 35.109375 
L 19.671875 0 
L 9.8125 0 
z
" id="DejaVuSans-75"/>
       <path d="M 40.578125 39.3125 
Q 47.65625 37.796875 51.625 33 
Q 55.609375 28.21875 55.609375 21.1875 
Q 55.609375 10.40625 48.1875 4.484375 
Q 40.765625 -1.421875 27.09375 -1.421875 
Q 22.515625 -1.421875 17.65625 -0.515625 
Q 12.796875 0.390625 7.625 2.203125 
L 7.625 11.71875 
Q 11.71875 9.328125 16.59375 8.109375 
Q 21.484375 6.890625 26.8125 6.890625 
Q 36.078125 6.890625 40.9375 10.546875 
Q 45.796875 14.203125 45.796875 21.1875 
Q 45.796875 27.640625 41.28125 31.265625 
Q 36.765625 34.90625 28.71875 34.90625 
L 20.21875 34.90625 
L 20.21875 43.015625 
L 29.109375 43.015625 
Q 36.375 43.015625 40.234375 45.921875 
Q 44.09375 48.828125 44.09375 54.296875 
Q 44.09375 59.90625 40.109375 62.90625 
Q 36.140625 65.921875 28.71875 65.921875 
Q 24.65625 65.921875 20.015625 65.03125 
Q 15.375 64.15625 9.8125 62.3125 
L 9.8125 71.09375 
Q 15.4375 72.65625 20.34375 73.4375 
Q 25.25 74.21875 29.59375 74.21875 
Q 40.828125 74.21875 47.359375 69.109375 
Q 53.90625 64.015625 53.90625 55.328125 
Q 53.90625 49.265625 50.4375 45.09375 
Q 46.96875 40.921875 40.578125 39.3125 
z
" id="DejaVuSans-51"/>
      </defs>
      <use xlink:href="#DejaVuSans-65"/>
      <use x="68.408203" xlink:href="#DejaVuSans-75"/>
      <use x="133.984375" xlink:href="#DejaVuSans-51"/>
     </g>
    </g>
   </g>
   <g id="text_7">
    <g clip-path="url(#pbde53b2b69)">
     <!-- ADK -->
     <g transform="translate(330.289026 317.664665)scale(0.1 -0.1)">
      <use xlink:href="#DejaVuSans-65"/>
      <use x="68.408203" xlink:href="#DejaVuSans-68"/>
      <use x="145.410156" xlink:href="#DejaVuSans-75"/>
     </g>
    </g>
   </g>
   <g id="text_8">
    <g clip-path="url(#pbde53b2b69)">
     <!-- RRM1 -->
     <g transform="translate(436.666981 274.199329)scale(0.1 -0.1)">
      <defs>
       <path d="M 9.8125 72.90625 
L 24.515625 72.90625 
L 43.109375 23.296875 
L 61.8125 72.90625 
L 76.515625 72.90625 
L 76.515625 0 
L 66.890625 0 
L 66.890625 64.015625 
L 48.09375 14.015625 
L 38.1875 14.015625 
L 19.390625 64.015625 
L 19.390625 0 
L 9.8125 0 
z
" id="DejaVuSans-77"/>
      </defs>
      <use xlink:href="#DejaVuSans-82"/>
      <use x="69.482422" xlink:href="#DejaVuSans-82"/>
      <use x="138.964844" xlink:href="#DejaVuSans-77"/>
      <use x="225.244141" xlink:href="#DejaVuSans-49"/>
     </g>
    </g>
   </g>
   <g id="text_9">
    <g clip-path="url(#pbde53b2b69)">
     <!-- GART -->
     <g transform="translate(353.930181 197.633295)scale(0.1 -0.1)">
      <defs>
       <path d="M 59.515625 10.40625 
L 59.515625 29.984375 
L 43.40625 29.984375 
L 43.40625 38.09375 
L 69.28125 38.09375 
L 69.28125 6.78125 
Q 63.578125 2.734375 56.6875 0.65625 
Q 49.8125 -1.421875 42 -1.421875 
Q 24.90625 -1.421875 15.25 8.5625 
Q 5.609375 18.5625 5.609375 36.375 
Q 5.609375 54.25 15.25 64.234375 
Q 24.90625 74.21875 42 74.21875 
Q 49.125 74.21875 55.546875 72.453125 
Q 61.96875 70.703125 67.390625 67.28125 
L 67.390625 56.78125 
Q 61.921875 61.421875 55.765625 63.765625 
Q 49.609375 66.109375 42.828125 66.109375 
Q 29.4375 66.109375 22.71875 58.640625 
Q 16.015625 51.171875 16.015625 36.375 
Q 16.015625 21.625 22.71875 14.15625 
Q 29.4375 6.6875 42.828125 6.6875 
Q 48.046875 6.6875 52.140625 7.59375 
Q 56.25 8.5 59.515625 10.40625 
z
" id="DejaVuSans-71"/>
      </defs>
      <use xlink:href="#DejaVuSans-71"/>
      <use x="77.490234" xlink:href="#DejaVuSans-65"/>
      <use x="145.898438" xlink:href="#DejaVuSans-82"/>
      <use x="208.130859" xlink:href="#DejaVuSans-84"/>
     </g>
    </g>
   </g>
   <g id="text_10">
    <g clip-path="url(#pbde53b2b69)">
     <!-- PAICS -->
     <g transform="translate(552.741371 352.363466)scale(0.1 -0.1)">
      <defs>
       <path d="M 9.8125 72.90625 
L 19.671875 72.90625 
L 19.671875 0 
L 9.8125 0 
z
" id="DejaVuSans-73"/>
       <path d="M 53.515625 70.515625 
L 53.515625 60.890625 
Q 47.90625 63.578125 42.921875 64.890625 
Q 37.9375 66.21875 33.296875 66.21875 
Q 25.25 66.21875 20.875 63.09375 
Q 16.5 59.96875 16.5 54.203125 
Q 16.5 49.359375 19.40625 46.890625 
Q 22.3125 44.4375 30.421875 42.921875 
L 36.375 41.703125 
Q 47.40625 39.59375 52.65625 34.296875 
Q 57.90625 29 57.90625 20.125 
Q 57.90625 9.515625 50.796875 4.046875 
Q 43.703125 -1.421875 29.984375 -1.421875 
Q 24.8125 -1.421875 18.96875 -0.25 
Q 13.140625 0.921875 6.890625 3.21875 
L 6.890625 13.375 
Q 12.890625 10.015625 18.65625 8.296875 
Q 24.421875 6.59375 29.984375 6.59375 
Q 38.421875 6.59375 43.015625 9.90625 
Q 47.609375 13.234375 47.609375 19.390625 
Q 47.609375 24.75 44.3125 27.78125 
Q 41.015625 30.8125 33.5 32.328125 
L 27.484375 33.5 
Q 16.453125 35.6875 11.515625 40.375 
Q 6.59375 45.0625 6.59375 53.421875 
Q 6.59375 63.09375 13.40625 68.65625 
Q 20.21875 74.21875 32.171875 74.21875 
Q 37.3125 74.21875 42.625 73.28125 
Q 47.953125 72.359375 53.515625 70.515625 
z
" id="DejaVuSans-83"/>
      </defs>
      <use xlink:href="#DejaVuSans-80"/>
      <use x="53.927734" xlink:href="#DejaVuSans-65"/>
      <use x="122.335938" xlink:href="#DejaVuSans-73"/>
      <use x="151.828125" xlink:href="#DejaVuSans-67"/>
      <use x="221.652344" xlink:href="#DejaVuSans-83"/>
     </g>
    </g>
   </g>
   <g id="text_11">
    <g clip-path="url(#pbde53b2b69)">
     <!-- PDE3B -->
     <g transform="translate(415.793833 298.883499)scale(0.1 -0.1)">
      <defs>
       <path d="M 9.8125 72.90625 
L 55.90625 72.90625 
L 55.90625 64.59375 
L 19.671875 64.59375 
L 19.671875 43.015625 
L 54.390625 43.015625 
L 54.390625 34.71875 
L 19.671875 34.71875 
L 19.671875 8.296875 
L 56.78125 8.296875 
L 56.78125 0 
L 9.8125 0 
z
" id="DejaVuSans-69"/>
      </defs>
      <use xlink:href="#DejaVuSans-80"/>
      <use x="60.302734" xlink:href="#DejaVuSans-68"/>
      <use x="137.304688" xlink:href="#DejaVuSans-69"/>
      <use x="200.488281" xlink:href="#DejaVuSans-51"/>
      <use x="264.111328" xlink:href="#DejaVuSans-66"/>
     </g>
    </g>
   </g>
   <g id="text_12">
    <g clip-path="url(#pbde53b2b69)">
     <!-- ADCY3 -->
     <g transform="translate(256.704486 226.209629)scale(0.1 -0.1)">
      <defs>
       <path d="M -0.203125 72.90625 
L 10.40625 72.90625 
L 30.609375 42.921875 
L 50.6875 72.90625 
L 61.28125 72.90625 
L 35.5 34.71875 
L 35.5 0 
L 25.59375 0 
L 25.59375 34.71875 
z
" id="DejaVuSans-89"/>
      </defs>
      <use xlink:href="#DejaVuSans-65"/>
      <use x="68.408203" xlink:href="#DejaVuSans-68"/>
      <use x="145.410156" xlink:href="#DejaVuSans-67"/>
      <use x="213.484375" xlink:href="#DejaVuSans-89"/>
      <use x="274.568359" xlink:href="#DejaVuSans-51"/>
     </g>
    </g>
   </g>
   <g id="text_13">
    <g clip-path="url(#pbde53b2b69)">
     <!-- ADCY4 -->
     <g transform="translate(293.604931 188.853267)scale(0.1 -0.1)">
      <defs>
       <path d="M 37.796875 64.3125 
L 12.890625 25.390625 
L 37.796875 25.390625 
z
M 35.203125 72.90625 
L 47.609375 72.90625 
L 47.609375 25.390625 
L 58.015625 25.390625 
L 58.015625 17.1875 
L 47.609375 17.1875 
L 47.609375 0 
L 37.796875 0 
L 37.796875 17.1875 
L 4.890625 17.1875 
L 4.890625 26.703125 
z
" id="DejaVuSans-52"/>
      </defs>
      <use xlink:href="#DejaVuSans-65"/>
      <use x="68.408203" xlink:href="#DejaVuSans-68"/>
      <use x="145.410156" xlink:href="#DejaVuSans-67"/>
      <use x="213.484375" xlink:href="#DejaVuSans-89"/>
      <use x="274.568359" xlink:href="#DejaVuSans-52"/>
     </g>
    </g>
   </g>
   <g id="text_14">
    <g clip-path="url(#pbde53b2b69)">
     <!-- ADCY7 -->
     <g transform="translate(393.060961 204.24712)scale(0.1 -0.1)">
      <defs>
       <path d="M 8.203125 72.90625 
L 55.078125 72.90625 
L 55.078125 68.703125 
L 28.609375 0 
L 18.3125 0 
L 43.21875 64.59375 
L 8.203125 64.59375 
z
" id="DejaVuSans-55"/>
      </defs>
      <use xlink:href="#DejaVuSans-65"/>
      <use x="68.408203" xlink:href="#DejaVuSans-68"/>
      <use x="145.410156" xlink:href="#DejaVuSans-67"/>
      <use x="213.484375" xlink:href="#DejaVuSans-89"/>
      <use x="274.568359" xlink:href="#DejaVuSans-55"/>
     </g>
    </g>
   </g>
   <g id="text_15">
    <g clip-path="url(#pbde53b2b69)">
     <!-- ADCY9 -->
     <g transform="translate(252.516387 191.605055)scale(0.1 -0.1)">
      <defs>
       <path d="M 10.984375 1.515625 
L 10.984375 10.5 
Q 14.703125 8.734375 18.5 7.8125 
Q 22.3125 6.890625 25.984375 6.890625 
Q 35.75 6.890625 40.890625 13.453125 
Q 46.046875 20.015625 46.78125 33.40625 
Q 43.953125 29.203125 39.59375 26.953125 
Q 35.25 24.703125 29.984375 24.703125 
Q 19.046875 24.703125 12.671875 31.3125 
Q 6.296875 37.9375 6.296875 49.421875 
Q 6.296875 60.640625 12.9375 67.421875 
Q 19.578125 74.21875 30.609375 74.21875 
Q 43.265625 74.21875 49.921875 64.515625 
Q 56.59375 54.828125 56.59375 36.375 
Q 56.59375 19.140625 48.40625 8.859375 
Q 40.234375 -1.421875 26.421875 -1.421875 
Q 22.703125 -1.421875 18.890625 -0.6875 
Q 15.09375 0.046875 10.984375 1.515625 
z
M 30.609375 32.421875 
Q 37.25 32.421875 41.125 36.953125 
Q 45.015625 41.5 45.015625 49.421875 
Q 45.015625 57.28125 41.125 61.84375 
Q 37.25 66.40625 30.609375 66.40625 
Q 23.96875 66.40625 20.09375 61.84375 
Q 16.21875 57.28125 16.21875 49.421875 
Q 16.21875 41.5 20.09375 36.953125 
Q 23.96875 32.421875 30.609375 32.421875 
z
" id="DejaVuSans-57"/>
      </defs>
      <use xlink:href="#DejaVuSans-65"/>
      <use x="68.408203" xlink:href="#DejaVuSans-68"/>
      <use x="145.410156" xlink:href="#DejaVuSans-67"/>
      <use x="213.484375" xlink:href="#DejaVuSans-89"/>
      <use x="274.568359" xlink:href="#DejaVuSans-57"/>
     </g>
    </g>
   </g>
   <g id="text_16">
    <g clip-path="url(#pbde53b2b69)">
     <!-- AK6 -->
     <g transform="translate(329.289273 291.720753)scale(0.1 -0.1)">
      <use xlink:href="#DejaVuSans-65"/>
      <use x="68.408203" xlink:href="#DejaVuSans-75"/>
      <use x="133.984375" xlink:href="#DejaVuSans-54"/>
     </g>
    </g>
   </g>
   <g id="text_17">
    <g clip-path="url(#pbde53b2b69)">
     <!-- AK9 -->
     <g transform="translate(345.822018 250.730694)scale(0.1 -0.1)">
      <use xlink:href="#DejaVuSans-65"/>
      <use x="68.408203" xlink:href="#DejaVuSans-75"/>
      <use x="133.984375" xlink:href="#DejaVuSans-57"/>
     </g>
    </g>
   </g>
   <g id="text_18">
    <g clip-path="url(#pbde53b2b69)">
     <!-- NT5E -->
     <g transform="translate(483.255326 298.504684)scale(0.1 -0.1)">
      <defs>
       <path d="M 10.796875 72.90625 
L 49.515625 72.90625 
L 49.515625 64.59375 
L 19.828125 64.59375 
L 19.828125 46.734375 
Q 21.96875 47.46875 24.109375 47.828125 
Q 26.265625 48.1875 28.421875 48.1875 
Q 40.625 48.1875 47.75 41.5 
Q 54.890625 34.8125 54.890625 23.390625 
Q 54.890625 11.625 47.5625 5.09375 
Q 40.234375 -1.421875 26.90625 -1.421875 
Q 22.3125 -1.421875 17.546875 -0.640625 
Q 12.796875 0.140625 7.71875 1.703125 
L 7.71875 11.625 
Q 12.109375 9.234375 16.796875 8.0625 
Q 21.484375 6.890625 26.703125 6.890625 
Q 35.15625 6.890625 40.078125 11.328125 
Q 45.015625 15.765625 45.015625 23.390625 
Q 45.015625 31 40.078125 35.4375 
Q 35.15625 39.890625 26.703125 39.890625 
Q 22.75 39.890625 18.8125 39.015625 
Q 14.890625 38.140625 10.796875 36.28125 
z
" id="DejaVuSans-53"/>
      </defs>
      <use xlink:href="#DejaVuSans-78"/>
      <use x="74.804688" xlink:href="#DejaVuSans-84"/>
      <use x="135.888672" xlink:href="#DejaVuSans-53"/>
      <use x="199.511719" xlink:href="#DejaVuSans-69"/>
     </g>
    </g>
   </g>
   <g id="text_19">
    <g clip-path="url(#pbde53b2b69)">
     <!-- CECR1 -->
     <g transform="translate(495.457114 387.348594)scale(0.1 -0.1)">
      <use xlink:href="#DejaVuSans-67"/>
      <use x="69.824219" xlink:href="#DejaVuSans-69"/>
      <use x="133.007812" xlink:href="#DejaVuSans-67"/>
      <use x="202.832031" xlink:href="#DejaVuSans-82"/>
      <use x="272.314453" xlink:href="#DejaVuSans-49"/>
     </g>
    </g>
   </g>
   <g id="text_20">
    <g clip-path="url(#pbde53b2b69)">
     <!-- LACC1 -->
     <g transform="translate(203.488565 400.675209)scale(0.1 -0.1)">
      <defs>
       <path d="M 9.8125 72.90625 
L 19.671875 72.90625 
L 19.671875 8.296875 
L 55.171875 8.296875 
L 55.171875 0 
L 9.8125 0 
z
" id="DejaVuSans-76"/>
      </defs>
      <use xlink:href="#DejaVuSans-76"/>
      <use x="57.962891" xlink:href="#DejaVuSans-65"/>
      <use x="124.621094" xlink:href="#DejaVuSans-67"/>
      <use x="194.445312" xlink:href="#DejaVuSans-67"/>
      <use x="264.269531" xlink:href="#DejaVuSans-49"/>
     </g>
    </g>
   </g>
   <g id="text_21">
    <g clip-path="url(#pbde53b2b69)">
     <!-- CANT1 -->
     <g transform="translate(522.112858 194.354447)scale(0.1 -0.1)">
      <use xlink:href="#DejaVuSans-67"/>
      <use x="69.824219" xlink:href="#DejaVuSans-65"/>
      <use x="138.232422" xlink:href="#DejaVuSans-78"/>
      <use x="213.037109" xlink:href="#DejaVuSans-84"/>
      <use x="274.121094" xlink:href="#DejaVuSans-49"/>
     </g>
    </g>
   </g>
   <g id="text_22">
    <g clip-path="url(#pbde53b2b69)">
     <!-- ENTPD4 -->
     <g transform="translate(552.259253 177.124942)scale(0.1 -0.1)">
      <use xlink:href="#DejaVuSans-69"/>
      <use x="63.183594" xlink:href="#DejaVuSans-78"/>
      <use x="137.988281" xlink:href="#DejaVuSans-84"/>
      <use x="199.072266" xlink:href="#DejaVuSans-80"/>
      <use x="259.375" xlink:href="#DejaVuSans-68"/>
      <use x="336.376953" xlink:href="#DejaVuSans-52"/>
     </g>
    </g>
   </g>
   <g id="text_23">
    <g clip-path="url(#pbde53b2b69)">
     <!-- HDDC3 -->
     <g transform="translate(597.653553 247.831703)scale(0.1 -0.1)">
      <defs>
       <path d="M 9.8125 72.90625 
L 19.671875 72.90625 
L 19.671875 43.015625 
L 55.515625 43.015625 
L 55.515625 72.90625 
L 65.375 72.90625 
L 65.375 0 
L 55.515625 0 
L 55.515625 34.71875 
L 19.671875 34.71875 
L 19.671875 0 
L 9.8125 0 
z
" id="DejaVuSans-72"/>
      </defs>
      <use xlink:href="#DejaVuSans-72"/>
      <use x="75.195312" xlink:href="#DejaVuSans-68"/>
      <use x="152.197266" xlink:href="#DejaVuSans-68"/>
      <use x="229.199219" xlink:href="#DejaVuSans-67"/>
      <use x="299.023438" xlink:href="#DejaVuSans-51"/>
     </g>
    </g>
   </g>
   <g id="text_24">
    <g clip-path="url(#pbde53b2b69)">
     <!-- PRUNE -->
     <g transform="translate(357.973805 63.564773)scale(0.1 -0.1)">
      <use xlink:href="#DejaVuSans-80"/>
      <use x="60.302734" xlink:href="#DejaVuSans-82"/>
      <use x="129.785156" xlink:href="#DejaVuSans-85"/>
      <use x="202.978516" xlink:href="#DejaVuSans-78"/>
      <use x="277.783203" xlink:href="#DejaVuSans-69"/>
     </g>
    </g>
   </g>
   <g id="text_25">
    <g clip-path="url(#pbde53b2b69)">
     <!-- RELA -->
     <g transform="translate(212.831746 120.879684)scale(0.1 -0.1)">
      <use xlink:href="#DejaVuSans-82"/>
      <use x="69.482422" xlink:href="#DejaVuSans-69"/>
      <use x="132.666016" xlink:href="#DejaVuSans-76"/>
      <use x="190.628906" xlink:href="#DejaVuSans-65"/>
     </g>
    </g>
   </g>
   <g id="text_26">
    <g clip-path="url(#pbde53b2b69)">
     <!-- PDE6B -->
     <g transform="translate(447.867592 90.275542)scale(0.1 -0.1)">
      <use xlink:href="#DejaVuSans-80"/>
      <use x="60.302734" xlink:href="#DejaVuSans-68"/>
      <use x="137.304688" xlink:href="#DejaVuSans-69"/>
      <use x="200.488281" xlink:href="#DejaVuSans-54"/>
      <use x="264.111328" xlink:href="#DejaVuSans-66"/>
     </g>
    </g>
   </g>
   <g id="text_27">
    <g clip-path="url(#pbde53b2b69)">
     <!-- PDE6D -->
     <g transform="translate(323.126009 132.666331)scale(0.1 -0.1)">
      <use xlink:href="#DejaVuSans-80"/>
      <use x="60.302734" xlink:href="#DejaVuSans-68"/>
      <use x="137.304688" xlink:href="#DejaVuSans-69"/>
      <use x="200.488281" xlink:href="#DejaVuSans-54"/>
      <use x="264.111328" xlink:href="#DejaVuSans-68"/>
     </g>
    </g>
   </g>
   <g id="text_28">
    <g clip-path="url(#pbde53b2b69)">
     <!-- PFAS -->
     <g transform="translate(375.540858 424.490724)scale(0.1 -0.1)">
      <defs>
       <path d="M 9.8125 72.90625 
L 51.703125 72.90625 
L 51.703125 64.59375 
L 19.671875 64.59375 
L 19.671875 43.109375 
L 48.578125 43.109375 
L 48.578125 34.8125 
L 19.671875 34.8125 
L 19.671875 0 
L 9.8125 0 
z
" id="DejaVuSans-70"/>
      </defs>
      <use xlink:href="#DejaVuSans-80"/>
      <use x="60.302734" xlink:href="#DejaVuSans-70"/>
      <use x="108.697266" xlink:href="#DejaVuSans-65"/>
      <use x="177.105469" xlink:href="#DejaVuSans-83"/>
     </g>
    </g>
   </g>
   <g id="text_29">
    <g clip-path="url(#pbde53b2b69)">
     <!-- NUDT2 -->
     <g transform="translate(244.027735 366.175689)scale(0.1 -0.1)">
      <defs>
       <path d="M 19.1875 8.296875 
L 53.609375 8.296875 
L 53.609375 0 
L 7.328125 0 
L 7.328125 8.296875 
Q 12.9375 14.109375 22.625 23.890625 
Q 32.328125 33.6875 34.8125 36.53125 
Q 39.546875 41.84375 41.421875 45.53125 
Q 43.3125 49.21875 43.3125 52.78125 
Q 43.3125 58.59375 39.234375 62.25 
Q 35.15625 65.921875 28.609375 65.921875 
Q 23.96875 65.921875 18.8125 64.3125 
Q 13.671875 62.703125 7.8125 59.421875 
L 7.8125 69.390625 
Q 13.765625 71.78125 18.9375 73 
Q 24.125 74.21875 28.421875 74.21875 
Q 39.75 74.21875 46.484375 68.546875 
Q 53.21875 62.890625 53.21875 53.421875 
Q 53.21875 48.921875 51.53125 44.890625 
Q 49.859375 40.875 45.40625 35.40625 
Q 44.1875 33.984375 37.640625 27.21875 
Q 31.109375 20.453125 19.1875 8.296875 
z
" id="DejaVuSans-50"/>
      </defs>
      <use xlink:href="#DejaVuSans-78"/>
      <use x="74.804688" xlink:href="#DejaVuSans-85"/>
      <use x="147.998047" xlink:href="#DejaVuSans-68"/>
      <use x="225" xlink:href="#DejaVuSans-84"/>
      <use x="286.083984" xlink:href="#DejaVuSans-50"/>
     </g>
    </g>
   </g>
   <g id="text_30">
    <g clip-path="url(#pbde53b2b69)">
     <!-- DCK -->
     <g transform="translate(169.190201 301.850372)scale(0.1 -0.1)">
      <use xlink:href="#DejaVuSans-68"/>
      <use x="77.001953" xlink:href="#DejaVuSans-67"/>
      <use x="146.826172" xlink:href="#DejaVuSans-75"/>
     </g>
    </g>
   </g>
   <g id="text_31">
    <g clip-path="url(#pbde53b2b69)">
     <!-- PGM2 -->
     <g transform="translate(312.667475 229.237952)scale(0.1 -0.1)">
      <use xlink:href="#DejaVuSans-80"/>
      <use x="60.302734" xlink:href="#DejaVuSans-71"/>
      <use x="137.792969" xlink:href="#DejaVuSans-77"/>
      <use x="224.072266" xlink:href="#DejaVuSans-50"/>
     </g>
    </g>
   </g>
   <g id="text_32">
    <g clip-path="url(#pbde53b2b69)">
     <!-- NUDT9 -->
     <g transform="translate(232.267462 430.110227)scale(0.1 -0.1)">
      <use xlink:href="#DejaVuSans-78"/>
      <use x="74.804688" xlink:href="#DejaVuSans-85"/>
      <use x="147.998047" xlink:href="#DejaVuSans-68"/>
      <use x="225" xlink:href="#DejaVuSans-84"/>
      <use x="286.083984" xlink:href="#DejaVuSans-57"/>
     </g>
    </g>
   </g>
   <g id="text_33">
    <g clip-path="url(#pbde53b2b69)">
     <!-- ADPRM -->
     <g transform="translate(47.232348 283.327938)scale(0.1 -0.1)">
      <use xlink:href="#DejaVuSans-65"/>
      <use x="68.408203" xlink:href="#DejaVuSans-68"/>
      <use x="145.410156" xlink:href="#DejaVuSans-80"/>
      <use x="205.712891" xlink:href="#DejaVuSans-82"/>
      <use x="275.195312" xlink:href="#DejaVuSans-77"/>
     </g>
    </g>
   </g>
   <g id="text_34">
    <g clip-path="url(#pbde53b2b69)">
     <!-- NUDT5 -->
     <g transform="translate(601.209059 179.958989)scale(0.1 -0.1)">
      <use xlink:href="#DejaVuSans-78"/>
      <use x="74.804688" xlink:href="#DejaVuSans-85"/>
      <use x="147.998047" xlink:href="#DejaVuSans-68"/>
      <use x="225" xlink:href="#DejaVuSans-84"/>
      <use x="286.083984" xlink:href="#DejaVuSans-53"/>
     </g>
    </g>
   </g>
   <g id="text_35">
    <!-- Importance Score for Each Node in the Network -->
    <g transform="translate(198.616875 16.318125)scale(0.12 -0.12)">
     <defs>
      <path d="M 52 44.1875 
Q 55.375 50.25 60.0625 53.125 
Q 64.75 56 71.09375 56 
Q 79.640625 56 84.28125 50.015625 
Q 88.921875 44.046875 88.921875 33.015625 
L 88.921875 0 
L 79.890625 0 
L 79.890625 32.71875 
Q 79.890625 40.578125 77.09375 44.375 
Q 74.3125 48.1875 68.609375 48.1875 
Q 61.625 48.1875 57.5625 43.546875 
Q 53.515625 38.921875 53.515625 30.90625 
L 53.515625 0 
L 44.484375 0 
L 44.484375 32.71875 
Q 44.484375 40.625 41.703125 44.40625 
Q 38.921875 48.1875 33.109375 48.1875 
Q 26.21875 48.1875 22.15625 43.53125 
Q 18.109375 38.875 18.109375 30.90625 
L 18.109375 0 
L 9.078125 0 
L 9.078125 54.6875 
L 18.109375 54.6875 
L 18.109375 46.1875 
Q 21.1875 51.21875 25.484375 53.609375 
Q 29.78125 56 35.6875 56 
Q 41.65625 56 45.828125 52.96875 
Q 50 49.953125 52 44.1875 
z
" id="DejaVuSans-109"/>
      <path d="M 18.109375 8.203125 
L 18.109375 -20.796875 
L 9.078125 -20.796875 
L 9.078125 54.6875 
L 18.109375 54.6875 
L 18.109375 46.390625 
Q 20.953125 51.265625 25.265625 53.625 
Q 29.59375 56 35.59375 56 
Q 45.5625 56 51.78125 48.09375 
Q 58.015625 40.1875 58.015625 27.296875 
Q 58.015625 14.40625 51.78125 6.484375 
Q 45.5625 -1.421875 35.59375 -1.421875 
Q 29.59375 -1.421875 25.265625 0.953125 
Q 20.953125 3.328125 18.109375 8.203125 
z
M 48.6875 27.296875 
Q 48.6875 37.203125 44.609375 42.84375 
Q 40.53125 48.484375 33.40625 48.484375 
Q 26.265625 48.484375 22.1875 42.84375 
Q 18.109375 37.203125 18.109375 27.296875 
Q 18.109375 17.390625 22.1875 11.75 
Q 26.265625 6.109375 33.40625 6.109375 
Q 40.53125 6.109375 44.609375 11.75 
Q 48.6875 17.390625 48.6875 27.296875 
z
" id="DejaVuSans-112"/>
      <path d="M 30.609375 48.390625 
Q 23.390625 48.390625 19.1875 42.75 
Q 14.984375 37.109375 14.984375 27.296875 
Q 14.984375 17.484375 19.15625 11.84375 
Q 23.34375 6.203125 30.609375 6.203125 
Q 37.796875 6.203125 41.984375 11.859375 
Q 46.1875 17.53125 46.1875 27.296875 
Q 46.1875 37.015625 41.984375 42.703125 
Q 37.796875 48.390625 30.609375 48.390625 
z
M 30.609375 56 
Q 42.328125 56 49.015625 48.375 
Q 55.71875 40.765625 55.71875 27.296875 
Q 55.71875 13.875 49.015625 6.21875 
Q 42.328125 -1.421875 30.609375 -1.421875 
Q 18.84375 -1.421875 12.171875 6.21875 
Q 5.515625 13.875 5.515625 27.296875 
Q 5.515625 40.765625 12.171875 48.375 
Q 18.84375 56 30.609375 56 
z
" id="DejaVuSans-111"/>
      <path d="M 41.109375 46.296875 
Q 39.59375 47.171875 37.8125 47.578125 
Q 36.03125 48 33.890625 48 
Q 26.265625 48 22.1875 43.046875 
Q 18.109375 38.09375 18.109375 28.8125 
L 18.109375 0 
L 9.078125 0 
L 9.078125 54.6875 
L 18.109375 54.6875 
L 18.109375 46.1875 
Q 20.953125 51.171875 25.484375 53.578125 
Q 30.03125 56 36.53125 56 
Q 37.453125 56 38.578125 55.875 
Q 39.703125 55.765625 41.0625 55.515625 
z
" id="DejaVuSans-114"/>
      <path d="M 18.3125 70.21875 
L 18.3125 54.6875 
L 36.8125 54.6875 
L 36.8125 47.703125 
L 18.3125 47.703125 
L 18.3125 18.015625 
Q 18.3125 11.328125 20.140625 9.421875 
Q 21.96875 7.515625 27.59375 7.515625 
L 36.8125 7.515625 
L 36.8125 0 
L 27.59375 0 
Q 17.1875 0 13.234375 3.875 
Q 9.28125 7.765625 9.28125 18.015625 
L 9.28125 47.703125 
L 2.6875 47.703125 
L 2.6875 54.6875 
L 9.28125 54.6875 
L 9.28125 70.21875 
z
" id="DejaVuSans-116"/>
      <path d="M 34.28125 27.484375 
Q 23.390625 27.484375 19.1875 25 
Q 14.984375 22.515625 14.984375 16.5 
Q 14.984375 11.71875 18.140625 8.90625 
Q 21.296875 6.109375 26.703125 6.109375 
Q 34.1875 6.109375 38.703125 11.40625 
Q 43.21875 16.703125 43.21875 25.484375 
L 43.21875 27.484375 
z
M 52.203125 31.203125 
L 52.203125 0 
L 43.21875 0 
L 43.21875 8.296875 
Q 40.140625 3.328125 35.546875 0.953125 
Q 30.953125 -1.421875 24.3125 -1.421875 
Q 15.921875 -1.421875 10.953125 3.296875 
Q 6 8.015625 6 15.921875 
Q 6 25.140625 12.171875 29.828125 
Q 18.359375 34.515625 30.609375 34.515625 
L 43.21875 34.515625 
L 43.21875 35.40625 
Q 43.21875 41.609375 39.140625 45 
Q 35.0625 48.390625 27.6875 48.390625 
Q 23 48.390625 18.546875 47.265625 
Q 14.109375 46.140625 10.015625 43.890625 
L 10.015625 52.203125 
Q 14.9375 54.109375 19.578125 55.046875 
Q 24.21875 56 28.609375 56 
Q 40.484375 56 46.34375 49.84375 
Q 52.203125 43.703125 52.203125 31.203125 
z
" id="DejaVuSans-97"/>
      <path d="M 54.890625 33.015625 
L 54.890625 0 
L 45.90625 0 
L 45.90625 32.71875 
Q 45.90625 40.484375 42.875 44.328125 
Q 39.84375 48.1875 33.796875 48.1875 
Q 26.515625 48.1875 22.3125 43.546875 
Q 18.109375 38.921875 18.109375 30.90625 
L 18.109375 0 
L 9.078125 0 
L 9.078125 54.6875 
L 18.109375 54.6875 
L 18.109375 46.1875 
Q 21.34375 51.125 25.703125 53.5625 
Q 30.078125 56 35.796875 56 
Q 45.21875 56 50.046875 50.171875 
Q 54.890625 44.34375 54.890625 33.015625 
z
" id="DejaVuSans-110"/>
      <path d="M 48.78125 52.59375 
L 48.78125 44.1875 
Q 44.96875 46.296875 41.140625 47.34375 
Q 37.3125 48.390625 33.40625 48.390625 
Q 24.65625 48.390625 19.8125 42.84375 
Q 14.984375 37.3125 14.984375 27.296875 
Q 14.984375 17.28125 19.8125 11.734375 
Q 24.65625 6.203125 33.40625 6.203125 
Q 37.3125 6.203125 41.140625 7.25 
Q 44.96875 8.296875 48.78125 10.40625 
L 48.78125 2.09375 
Q 45.015625 0.34375 40.984375 -0.53125 
Q 36.96875 -1.421875 32.421875 -1.421875 
Q 20.0625 -1.421875 12.78125 6.34375 
Q 5.515625 14.109375 5.515625 27.296875 
Q 5.515625 40.671875 12.859375 48.328125 
Q 20.21875 56 33.015625 56 
Q 37.15625 56 41.109375 55.140625 
Q 45.0625 54.296875 48.78125 52.59375 
z
" id="DejaVuSans-99"/>
      <path d="M 56.203125 29.59375 
L 56.203125 25.203125 
L 14.890625 25.203125 
Q 15.484375 15.921875 20.484375 11.0625 
Q 25.484375 6.203125 34.421875 6.203125 
Q 39.59375 6.203125 44.453125 7.46875 
Q 49.3125 8.734375 54.109375 11.28125 
L 54.109375 2.78125 
Q 49.265625 0.734375 44.1875 -0.34375 
Q 39.109375 -1.421875 33.890625 -1.421875 
Q 20.796875 -1.421875 13.15625 6.1875 
Q 5.515625 13.8125 5.515625 26.8125 
Q 5.515625 40.234375 12.765625 48.109375 
Q 20.015625 56 32.328125 56 
Q 43.359375 56 49.78125 48.890625 
Q 56.203125 41.796875 56.203125 29.59375 
z
M 47.21875 32.234375 
Q 47.125 39.59375 43.09375 43.984375 
Q 39.0625 48.390625 32.421875 48.390625 
Q 24.90625 48.390625 20.390625 44.140625 
Q 15.875 39.890625 15.1875 32.171875 
z
" id="DejaVuSans-101"/>
      <path id="DejaVuSans-32"/>
      <path d="M 37.109375 75.984375 
L 37.109375 68.5 
L 28.515625 68.5 
Q 23.6875 68.5 21.796875 66.546875 
Q 19.921875 64.59375 19.921875 59.515625 
L 19.921875 54.6875 
L 34.71875 54.6875 
L 34.71875 47.703125 
L 19.921875 47.703125 
L 19.921875 0 
L 10.890625 0 
L 10.890625 47.703125 
L 2.296875 47.703125 
L 2.296875 54.6875 
L 10.890625 54.6875 
L 10.890625 58.5 
Q 10.890625 67.625 15.140625 71.796875 
Q 19.390625 75.984375 28.609375 75.984375 
z
" id="DejaVuSans-102"/>
      <path d="M 54.890625 33.015625 
L 54.890625 0 
L 45.90625 0 
L 45.90625 32.71875 
Q 45.90625 40.484375 42.875 44.328125 
Q 39.84375 48.1875 33.796875 48.1875 
Q 26.515625 48.1875 22.3125 43.546875 
Q 18.109375 38.921875 18.109375 30.90625 
L 18.109375 0 
L 9.078125 0 
L 9.078125 75.984375 
L 18.109375 75.984375 
L 18.109375 46.1875 
Q 21.34375 51.125 25.703125 53.5625 
Q 30.078125 56 35.796875 56 
Q 45.21875 56 50.046875 50.171875 
Q 54.890625 44.34375 54.890625 33.015625 
z
" id="DejaVuSans-104"/>
      <path d="M 45.40625 46.390625 
L 45.40625 75.984375 
L 54.390625 75.984375 
L 54.390625 0 
L 45.40625 0 
L 45.40625 8.203125 
Q 42.578125 3.328125 38.25 0.953125 
Q 33.9375 -1.421875 27.875 -1.421875 
Q 17.96875 -1.421875 11.734375 6.484375 
Q 5.515625 14.40625 5.515625 27.296875 
Q 5.515625 40.1875 11.734375 48.09375 
Q 17.96875 56 27.875 56 
Q 33.9375 56 38.25 53.625 
Q 42.578125 51.265625 45.40625 46.390625 
z
M 14.796875 27.296875 
Q 14.796875 17.390625 18.875 11.75 
Q 22.953125 6.109375 30.078125 6.109375 
Q 37.203125 6.109375 41.296875 11.75 
Q 45.40625 17.390625 45.40625 27.296875 
Q 45.40625 37.203125 41.296875 42.84375 
Q 37.203125 48.484375 30.078125 48.484375 
Q 22.953125 48.484375 18.875 42.84375 
Q 14.796875 37.203125 14.796875 27.296875 
z
" id="DejaVuSans-100"/>
      <path d="M 9.421875 54.6875 
L 18.40625 54.6875 
L 18.40625 0 
L 9.421875 0 
z
M 9.421875 75.984375 
L 18.40625 75.984375 
L 18.40625 64.59375 
L 9.421875 64.59375 
z
" id="DejaVuSans-105"/>
      <path d="M 4.203125 54.6875 
L 13.1875 54.6875 
L 24.421875 12.015625 
L 35.59375 54.6875 
L 46.1875 54.6875 
L 57.421875 12.015625 
L 68.609375 54.6875 
L 77.59375 54.6875 
L 63.28125 0 
L 52.6875 0 
L 40.921875 44.828125 
L 29.109375 0 
L 18.5 0 
z
" id="DejaVuSans-119"/>
      <path d="M 9.078125 75.984375 
L 18.109375 75.984375 
L 18.109375 31.109375 
L 44.921875 54.6875 
L 56.390625 54.6875 
L 27.390625 29.109375 
L 57.625 0 
L 45.90625 0 
L 18.109375 26.703125 
L 18.109375 0 
L 9.078125 0 
z
" id="DejaVuSans-107"/>
     </defs>
     <use xlink:href="#DejaVuSans-73"/>
     <use x="29.492188" xlink:href="#DejaVuSans-109"/>
     <use x="126.904297" xlink:href="#DejaVuSans-112"/>
     <use x="190.380859" xlink:href="#DejaVuSans-111"/>
     <use x="251.5625" xlink:href="#DejaVuSans-114"/>
     <use x="292.675781" xlink:href="#DejaVuSans-116"/>
     <use x="331.884766" xlink:href="#DejaVuSans-97"/>
     <use x="393.164062" xlink:href="#DejaVuSans-110"/>
     <use x="456.542969" xlink:href="#DejaVuSans-99"/>
     <use x="511.523438" xlink:href="#DejaVuSans-101"/>
     <use x="573.046875" xlink:href="#DejaVuSans-32"/>
     <use x="604.833984" xlink:href="#DejaVuSans-83"/>
     <use x="668.310547" xlink:href="#DejaVuSans-99"/>
     <use x="723.291016" xlink:href="#DejaVuSans-111"/>
     <use x="784.472656" xlink:href="#DejaVuSans-114"/>
     <use x="823.335938" xlink:href="#DejaVuSans-101"/>
     <use x="884.859375" xlink:href="#DejaVuSans-32"/>
     <use x="916.646484" xlink:href="#DejaVuSans-102"/>
     <use x="951.851562" xlink:href="#DejaVuSans-111"/>
     <use x="1013.033203" xlink:href="#DejaVuSans-114"/>
     <use x="1054.146484" xlink:href="#DejaVuSans-32"/>
     <use x="1085.933594" xlink:href="#DejaVuSans-69"/>
     <use x="1149.117188" xlink:href="#DejaVuSans-97"/>
     <use x="1210.396484" xlink:href="#DejaVuSans-99"/>
     <use x="1265.376953" xlink:href="#DejaVuSans-104"/>
     <use x="1328.755859" xlink:href="#DejaVuSans-32"/>
     <use x="1360.542969" xlink:href="#DejaVuSans-78"/>
     <use x="1435.347656" xlink:href="#DejaVuSans-111"/>
     <use x="1496.529297" xlink:href="#DejaVuSans-100"/>
     <use x="1560.005859" xlink:href="#DejaVuSans-101"/>
     <use x="1621.529297" xlink:href="#DejaVuSans-32"/>
     <use x="1653.316406" xlink:href="#DejaVuSans-105"/>
     <use x="1681.099609" xlink:href="#DejaVuSans-110"/>
     <use x="1744.478516" xlink:href="#DejaVuSans-32"/>
     <use x="1776.265625" xlink:href="#DejaVuSans-116"/>
     <use x="1815.474609" xlink:href="#DejaVuSans-104"/>
     <use x="1878.853516" xlink:href="#DejaVuSans-101"/>
     <use x="1940.376953" xlink:href="#DejaVuSans-32"/>
     <use x="1972.164062" xlink:href="#DejaVuSans-78"/>
     <use x="2046.96875" xlink:href="#DejaVuSans-101"/>
     <use x="2108.492188" xlink:href="#DejaVuSans-116"/>
     <use x="2147.701172" xlink:href="#DejaVuSans-119"/>
     <use x="2229.488281" xlink:href="#DejaVuSans-111"/>
     <use x="2290.669922" xlink:href="#DejaVuSans-114"/>
     <use x="2331.783203" xlink:href="#DejaVuSans-107"/>
    </g>
   </g>
  </g>
 </g>
 <defs>
  <clipPath id="pbde53b2b69">
   <rect height="443.52" width="669.6" x="7.2" y="22.318125"/>
  </clipPath>
 </defs>
</svg>
