<?xml version="1.0" encoding="utf-8" standalone="no"?>
<!DOCTYPE svg PUBLIC "-//W3C//DTD SVG 1.1//EN"
  "http://www.w3.org/Graphics/SVG/1.1/DTD/svg11.dtd">
<!-- Created with matplotlib (https://matplotlib.org/) -->
<svg height="473.038125pt" version="1.1" viewBox="0 0 684 473.038125" width="684pt" xmlns="http://www.w3.org/2000/svg" xmlns:xlink="http://www.w3.org/1999/xlink">
 <metadata>
  <rdf:RDF xmlns:cc="http://creativecommons.org/ns#" xmlns:dc="http://purl.org/dc/elements/1.1/" xmlns:rdf="http://www.w3.org/1999/02/22-rdf-syntax-ns#">
   <cc:Work>
    <dc:type rdf:resource="http://purl.org/dc/dcmitype/StillImage"/>
    <dc:date>2024-04-26T10:50:03.280843</dc:date>
    <dc:format>image/svg+xml</dc:format>
    <dc:creator>
     <cc:Agent>
      <dc:title>Matplotlib v3.3.1, https://matplotlib.org/</dc:title>
     </cc:Agent>
    </dc:creator>
   </cc:Work>
  </rdf:RDF>
 </metadata>
 <defs>
  <style type="text/css">*{stroke-linecap:butt;stroke-linejoin:round;}</style>
 </defs>
 <g id="figure_1">
  <g id="patch_1">
   <path d="M 0 473.038125 
L 684 473.038125 
L 684 0 
L 0 0 
z
" style="fill:#ffffff;"/>
  </g>
  <g id="axes_1">
   <g id="patch_2">
    <path clip-path="url(#p92e8da8576)" d="M 253.529108 251.830469 
Q 185.285926 223.924884 118.0776 196.442467 
" style="fill:none;stroke:#808080;stroke-linecap:round;"/>
    <path clip-path="url(#p92e8da8576)" d="M 121.023033 199.807646 
L 118.0776 196.442467 
L 122.537003 196.105229 
L 121.023033 199.807646 
z
" style="fill:#808080;stroke:#808080;stroke-linecap:round;"/>
   </g>
   <g id="patch_3">
    <path clip-path="url(#p92e8da8576)" d="M 270.128864 253.935446 
Q 343.657655 243.882726 416.078716 233.981453 
" style="fill:none;stroke:#808080;stroke-linecap:round;"/>
    <path clip-path="url(#p92e8da8576)" d="M 411.844668 232.541719 
L 416.078716 233.981453 
L 412.3865 236.504851 
L 411.844668 232.541719 
z
" style="fill:#808080;stroke:#808080;stroke-linecap:round;"/>
   </g>
   <g id="patch_4">
    <path clip-path="url(#p92e8da8576)" d="M 265.004848 263.045288 
Q 276.309163 288.986106 287.166836 313.90198 
" style="fill:none;stroke:#808080;stroke-linecap:round;"/>
    <path clip-path="url(#p92e8da8576)" d="M 287.402352 309.43605 
L 287.166836 313.90198 
L 283.735401 311.034009 
L 287.402352 309.43605 
z
" style="fill:#808080;stroke:#808080;stroke-linecap:round;"/>
   </g>
   <g id="patch_5">
    <path clip-path="url(#p92e8da8576)" d="M 269.143565 250.95362 
Q 286.311194 241.563977 302.497918 232.710829 
" style="fill:none;stroke:#808080;stroke-linecap:round;"/>
    <path clip-path="url(#p92e8da8576)" d="M 298.028817 232.875556 
L 302.497918 232.710829 
L 299.948239 236.384946 
L 298.028817 232.875556 
z
" style="fill:#808080;stroke:#808080;stroke-linecap:round;"/>
   </g>
   <g id="patch_6">
    <path clip-path="url(#p92e8da8576)" d="M 270.024238 253.349954 
Q 321.082186 242.757139 371.045411 232.391443 
" style="fill:none;stroke:#808080;stroke-linecap:round;"/>
    <path clip-path="url(#p92e8da8576)" d="M 366.722531 231.245706 
L 371.045411 232.391443 
L 367.535094 235.162305 
L 366.722531 231.245706 
z
" style="fill:#808080;stroke:#808080;stroke-linecap:round;"/>
   </g>
   <g id="patch_7">
    <path clip-path="url(#p92e8da8576)" d="M 255.336175 261.145431 
Q 230.815217 284.981012 207.095953 308.037308 
" style="fill:none;stroke:#808080;stroke-linecap:round;"/>
    <path clip-path="url(#p92e8da8576)" d="M 211.35821 306.683363 
L 207.095953 308.037308 
L 208.570151 303.815135 
L 211.35821 306.683363 
z
" style="fill:#808080;stroke:#808080;stroke-linecap:round;"/>
   </g>
   <g id="patch_8">
    <path clip-path="url(#p92e8da8576)" d="M 343.39606 235.531967 
Q 380.255108 234.245333 415.996803 232.997704 
" style="fill:none;stroke:#808080;stroke-linecap:round;"/>
    <path clip-path="url(#p92e8da8576)" d="M 411.929466 231.138463 
L 415.996803 232.997704 
L 412.069009 235.136029 
L 411.929466 231.138463 
z
" style="fill:#808080;stroke:#808080;stroke-linecap:round;"/>
   </g>
   <g id="patch_9">
    <path clip-path="url(#p92e8da8576)" d="M 330.858177 243.576504 
Q 312.908171 279.352055 295.459554 314.128302 
" style="fill:none;stroke:#808080;stroke-linecap:round;"/>
    <path clip-path="url(#p92e8da8576)" d="M 299.040991 311.449998 
L 295.459554 314.128302 
L 295.465773 309.656171 
L 299.040991 311.449998 
z
" style="fill:#808080;stroke:#808080;stroke-linecap:round;"/>
   </g>
   <g id="patch_10">
    <path clip-path="url(#p92e8da8576)" d="M 326.518488 233.117726 
Q 322.90902 231.925617 320.361183 231.084136 
" style="fill:none;stroke:#808080;stroke-linecap:round;"/>
    <path clip-path="url(#p92e8da8576)" d="M 323.532167 234.237683 
L 320.361183 231.084136 
L 324.786611 230.439477 
L 323.532167 234.237683 
z
" style="fill:#808080;stroke:#808080;stroke-linecap:round;"/>
   </g>
   <g id="patch_11">
    <path clip-path="url(#p92e8da8576)" d="M 343.34241 234.816342 
Q 357.684018 233.119137 370.915341 231.553325 
" style="fill:none;stroke:#808080;stroke-linecap:round;"/>
    <path clip-path="url(#p92e8da8576)" d="M 366.708017 230.037269 
L 370.915341 231.553325 
L 367.178102 234.009551 
L 366.708017 230.037269 
z
" style="fill:#808080;stroke:#808080;stroke-linecap:round;"/>
   </g>
   <g id="patch_12">
    <path clip-path="url(#p92e8da8576)" d="M 327.276105 240.215564 
Q 267.417046 275.34114 208.522262 309.900876 
" style="fill:none;stroke:#808080;stroke-linecap:round;"/>
    <path clip-path="url(#p92e8da8576)" d="M 212.98436 309.601409 
L 208.522262 309.900876 
L 210.959948 306.151517 
L 212.98436 309.601409 
z
" style="fill:#808080;stroke:#808080;stroke-linecap:round;"/>
   </g>
   <g id="patch_13">
    <path clip-path="url(#p92e8da8576)" d="M 485.960225 395.812036 
Q 502.3269 393.943465 517.582757 392.201714 
" style="fill:none;stroke:#808080;stroke-linecap:round;"/>
    <path clip-path="url(#p92e8da8576)" d="M 513.38171 390.668353 
L 517.582757 392.201714 
L 513.835439 394.642535 
L 513.38171 390.668353 
z
" style="fill:#808080;stroke:#808080;stroke-linecap:round;"/>
   </g>
   <g id="patch_14">
    <path clip-path="url(#p92e8da8576)" d="M 447.619004 276.66437 
Q 299.717325 190.120739 152.780619 104.141757 
" style="fill:none;stroke:#808080;stroke-linecap:round;"/>
    <path clip-path="url(#p92e8da8576)" d="M 155.222941 107.888097 
L 152.780619 104.141757 
L 157.243084 104.435704 
L 155.222941 107.888097 
z
" style="fill:#808080;stroke:#808080;stroke-linecap:round;"/>
   </g>
   <g id="patch_15">
    <path clip-path="url(#p92e8da8576)" d="M 116.783993 196.595806 
Q 255.638554 265.594217 393.491881 334.095103 
" style="fill:none;stroke:#808080;stroke-linecap:round;"/>
    <path clip-path="url(#p92e8da8576)" d="M 390.799757 330.524043 
L 393.491881 334.095103 
L 389.019759 334.106166 
L 390.799757 330.524043 
z
" style="fill:#808080;stroke:#808080;stroke-linecap:round;"/>
   </g>
   <g id="patch_16">
    <path clip-path="url(#p92e8da8576)" d="M 112.089403 184.638591 
Q 126.685566 145.971024 140.88689 108.349449 
" style="fill:none;stroke:#808080;stroke-linecap:round;"/>
    <path clip-path="url(#p92e8da8576)" d="M 137.603139 111.385398 
L 140.88689 108.349449 
L 141.345398 112.798019 
L 137.603139 111.385398 
z
" style="fill:#808080;stroke:#808080;stroke-linecap:round;"/>
   </g>
   <g id="patch_17">
    <path clip-path="url(#p92e8da8576)" d="M 116.235051 314.004224 
Q 129.725775 210.895434 143.071451 108.895228 
" style="fill:none;stroke:#808080;stroke-linecap:round;"/>
    <path clip-path="url(#p92e8da8576)" d="M 140.569418 112.601955 
L 143.071451 108.895228 
L 144.535613 113.120891 
L 140.569418 112.601955 
z
" style="fill:#808080;stroke:#808080;stroke-linecap:round;"/>
   </g>
   <g id="patch_18">
    <path clip-path="url(#p92e8da8576)" d="M 301.111409 102.883692 
Q 415.678242 178.066407 529.310338 252.635716 
" style="fill:none;stroke:#808080;stroke-linecap:round;"/>
    <path clip-path="url(#p92e8da8576)" d="M 527.063417 248.769018 
L 529.310338 252.635716 
L 524.868828 252.113234 
L 527.063417 248.769018 
z
" style="fill:#808080;stroke:#808080;stroke-linecap:round;"/>
   </g>
   <g id="patch_19">
    <path clip-path="url(#p92e8da8576)" d="M 296.9226 106.237025 
Q 311.74371 145.629922 326.171116 183.976398 
" style="fill:none;stroke:#808080;stroke-linecap:round;"/>
    <path clip-path="url(#p92e8da8576)" d="M 326.634455 179.528329 
L 326.171116 183.976398 
L 322.890664 180.936886 
L 326.634455 179.528329 
z
" style="fill:#808080;stroke:#808080;stroke-linecap:round;"/>
   </g>
   <g id="patch_20">
    <path clip-path="url(#p92e8da8576)" d="M 394.232576 341.71934 
Q 321.677933 371.324092 250.158467 400.506457 
" style="fill:none;stroke:#808080;stroke-linecap:round;"/>
    <path clip-path="url(#p92e8da8576)" d="M 254.617613 400.847059 
L 250.158467 400.506457 
L 253.106436 397.143501 
L 254.617613 400.847059 
z
" style="fill:#808080;stroke:#808080;stroke-linecap:round;"/>
   </g>
   <g id="patch_21">
    <path clip-path="url(#p92e8da8576)" d="M 393.73894 336.830439 
Q 259.580042 311.342483 126.519531 286.063201 
" style="fill:none;stroke:#808080;stroke-linecap:round;"/>
    <path clip-path="url(#p92e8da8576)" d="M 130.075951 288.774636 
L 126.519531 286.063201 
L 130.822531 284.844926 
L 130.075951 288.774636 
z
" style="fill:#808080;stroke:#808080;stroke-linecap:round;"/>
   </g>
   <g id="patch_22">
    <path clip-path="url(#p92e8da8576)" d="M 395.129767 343.377314 
Q 341.260198 380.66933 288.309886 417.324976 
" style="fill:none;stroke:#808080;stroke-linecap:round;"/>
    <path clip-path="url(#p92e8da8576)" d="M 292.737093 416.692649 
L 288.309886 417.324976 
L 290.460348 413.403814 
L 292.737093 416.692649 
z
" style="fill:#808080;stroke:#808080;stroke-linecap:round;"/>
   </g>
   <g id="patch_23">
    <path clip-path="url(#p92e8da8576)" d="M 574.375244 132.324223 
Q 515.27407 175.162229 457.078144 217.344089 
" style="fill:none;stroke:#808080;stroke-linecap:round;"/>
    <path clip-path="url(#p92e8da8576)" d="M 461.490604 216.615946 
L 457.078144 217.344089 
L 459.143105 213.377235 
L 461.490604 216.615946 
z
" style="fill:#808080;stroke:#808080;stroke-linecap:round;"/>
   </g>
   <g id="patch_24">
    <path clip-path="url(#p92e8da8576)" d="M 262.39629 334.874649 
Q 284.941685 285.387303 307.023562 236.917381 
" style="fill:none;stroke:#808080;stroke-linecap:round;"/>
    <path clip-path="url(#p92e8da8576)" d="M 303.54521 239.728264 
L 307.023562 236.917381 
L 307.185257 241.386593 
L 303.54521 239.728264 
z
" style="fill:#808080;stroke:#808080;stroke-linecap:round;"/>
   </g>
   <g id="patch_25">
    <path clip-path="url(#p92e8da8576)" d="M 265.171726 336.884952 
Q 319.713569 286.580735 373.433562 237.034515 
" style="fill:none;stroke:#808080;stroke-linecap:round;"/>
    <path clip-path="url(#p92e8da8576)" d="M 369.13727 238.276237 
L 373.433562 237.034515 
L 371.849164 241.216582 
L 369.13727 238.276237 
z
" style="fill:#808080;stroke:#808080;stroke-linecap:round;"/>
   </g>
   <g id="patch_26">
    <path clip-path="url(#p92e8da8576)" d="M 250.981673 339.03852 
Q 229.443289 328.802793 208.914708 319.046958 
" style="fill:none;stroke:#808080;stroke-linecap:round;"/>
    <path clip-path="url(#p92e8da8576)" d="M 211.669038 322.570261 
L 208.914708 319.046958 
L 213.385949 318.957476 
L 211.669038 322.570261 
z
" style="fill:#808080;stroke:#808080;stroke-linecap:round;"/>
   </g>
   <g id="patch_27">
    <path clip-path="url(#p92e8da8576)" d="M 605.497149 216.071101 
Q 575.174685 234.76407 545.803942 252.87033 
" style="fill:none;stroke:#808080;stroke-linecap:round;"/>
    <path clip-path="url(#p92e8da8576)" d="M 550.258459 252.473743 
L 545.803942 252.87033 
L 548.159383 249.068764 
L 550.258459 252.473743 
z
" style="fill:#808080;stroke:#808080;stroke-linecap:round;"/>
   </g>
   <g id="patch_28">
    <path clip-path="url(#p92e8da8576)" d="M 530.04289 262.425961 
Q 469.869369 298.222333 410.656715 333.447099 
" style="fill:none;stroke:#808080;stroke-linecap:round;"/>
    <path clip-path="url(#p92e8da8576)" d="M 415.11694 333.12091 
L 410.656715 333.447099 
L 413.071899 329.683206 
L 415.11694 333.12091 
z
" style="fill:#808080;stroke:#808080;stroke-linecap:round;"/>
   </g>
   <g id="patch_29">
    <path clip-path="url(#p92e8da8576)" d="M 529.214873 255.41893 
Q 433.549287 225.564315 338.950971 196.042765 
" style="fill:none;stroke:#808080;stroke-linecap:round;"/>
    <path clip-path="url(#p92e8da8576)" d="M 342.173548 199.143571 
L 338.950971 196.042765 
L 343.365162 195.325186 
L 342.173548 199.143571 
z
" style="fill:#808080;stroke:#808080;stroke-linecap:round;"/>
   </g>
   <g id="patch_30">
    <path clip-path="url(#p92e8da8576)" d="M 530.19558 262.671705 
Q 408.877415 340.444719 288.500483 417.61434 
" style="fill:none;stroke:#808080;stroke-linecap:round;"/>
    <path clip-path="url(#p92e8da8576)" d="M 292.947318 417.139305 
L 288.500483 417.61434 
L 290.788556 413.771851 
L 292.947318 417.139305 
z
" style="fill:#808080;stroke:#808080;stroke-linecap:round;"/>
   </g>
   <g id="patch_31">
    <path clip-path="url(#p92e8da8576)" d="M 465.707199 407.163021 
Q 499.717755 336.483532 533.243525 266.811506 
" style="fill:none;stroke:#808080;stroke-linecap:round;"/>
    <path clip-path="url(#p92e8da8576)" d="M 529.706898 269.548706 
L 533.243525 266.811506 
L 533.311309 271.283128 
L 529.706898 269.548706 
z
" style="fill:#808080;stroke:#808080;stroke-linecap:round;"/>
   </g>
   <g id="patch_32">
    <path clip-path="url(#p92e8da8576)" d="M 326.040403 159.141692 
Q 372.418529 193.32921 417.896707 226.853333 
" style="fill:none;stroke:#808080;stroke-linecap:round;"/>
    <path clip-path="url(#p92e8da8576)" d="M 415.86367 222.870023 
L 417.896707 226.853333 
L 413.490237 226.089776 
L 415.86367 222.870023 
z
" style="fill:#808080;stroke:#808080;stroke-linecap:round;"/>
   </g>
   <g id="patch_33">
    <path clip-path="url(#p92e8da8576)" d="M 317.652747 162.544314 
Q 305.071993 238.432652 292.674092 313.21801 
" style="fill:none;stroke:#808080;stroke-linecap:round;"/>
    <path clip-path="url(#p92e8da8576)" d="M 295.301353 309.598964 
L 292.674092 313.21801 
L 291.355211 308.944773 
L 295.301353 309.598964 
z
" style="fill:#808080;stroke:#808080;stroke-linecap:round;"/>
   </g>
   <g id="patch_34">
    <path clip-path="url(#p92e8da8576)" d="M 318.139673 162.608518 
Q 315.07363 191.007636 312.127595 218.295181 
" style="fill:none;stroke:#808080;stroke-linecap:round;"/>
    <path clip-path="url(#p92e8da8576)" d="M 314.545396 214.532968 
L 312.127595 218.295181 
L 310.568506 214.103613 
L 314.545396 214.532968 
z
" style="fill:#808080;stroke:#808080;stroke-linecap:round;"/>
   </g>
   <g id="patch_35">
    <path clip-path="url(#p92e8da8576)" d="M 324.503157 160.747921 
Q 349.845497 192.203768 374.486411 222.78898 
" style="fill:none;stroke:#808080;stroke-linecap:round;"/>
    <path clip-path="url(#p92e8da8576)" d="M 373.534356 218.419359 
L 374.486411 222.78898 
L 370.419481 220.928852 
L 373.534356 218.419359 
z
" style="fill:#808080;stroke:#808080;stroke-linecap:round;"/>
   </g>
   <g id="patch_36">
    <path clip-path="url(#p92e8da8576)" d="M 313.918126 160.965596 
Q 259.577095 234.427372 205.900955 306.990304 
" style="fill:none;stroke:#808080;stroke-linecap:round;"/>
    <path clip-path="url(#p92e8da8576)" d="M 209.887642 304.963897 
L 205.900955 306.990304 
L 206.671842 302.58511 
L 209.887642 304.963897 
z
" style="fill:#808080;stroke:#808080;stroke-linecap:round;"/>
   </g>
   <g id="patch_37">
    <path clip-path="url(#p92e8da8576)" d="M 376.676464 181.388767 
Q 398.227981 203.895098 419.006243 225.593916 
" style="fill:none;stroke:#808080;stroke-linecap:round;"/>
    <path clip-path="url(#p92e8da8576)" d="M 417.684286 221.32163 
L 419.006243 225.593916 
L 414.79524 224.08811 
L 417.684286 221.32163 
z
" style="fill:#808080;stroke:#808080;stroke-linecap:round;"/>
   </g>
   <g id="patch_38">
    <path clip-path="url(#p92e8da8576)" d="M 366.581718 182.757594 
Q 330.882261 249.001155 295.713208 314.260503 
" style="fill:none;stroke:#808080;stroke-linecap:round;"/>
    <path clip-path="url(#p92e8da8576)" d="M 299.371448 311.688096 
L 295.713208 314.260503 
L 295.850226 309.790467 
L 299.371448 311.688096 
z
" style="fill:#808080;stroke:#808080;stroke-linecap:round;"/>
   </g>
   <g id="patch_39">
    <path clip-path="url(#p92e8da8576)" d="M 364.209095 180.884549 
Q 340.881496 201.578842 318.390262 221.531182 
" style="fill:none;stroke:#808080;stroke-linecap:round;"/>
    <path clip-path="url(#p92e8da8576)" d="M 322.709777 220.372826 
L 318.390262 221.531182 
L 320.055286 217.380556 
L 322.709777 220.372826 
z
" style="fill:#808080;stroke:#808080;stroke-linecap:round;"/>
   </g>
   <g id="patch_40">
    <path clip-path="url(#p92e8da8576)" d="M 372.221053 183.660473 
Q 375.655708 202.771541 378.892597 220.782206 
" style="fill:none;stroke:#808080;stroke-linecap:round;"/>
    <path clip-path="url(#p92e8da8576)" d="M 380.153512 216.491508 
L 378.892597 220.782206 
L 376.216588 217.199055 
L 380.153512 216.491508 
z
" style="fill:#808080;stroke:#808080;stroke-linecap:round;"/>
   </g>
   <g id="patch_41">
    <path clip-path="url(#p92e8da8576)" d="M 363.991022 180.621421 
Q 285.388608 244.992812 207.651179 308.655825 
" style="fill:none;stroke:#808080;stroke-linecap:round;"/>
    <path clip-path="url(#p92e8da8576)" d="M 212.013031 307.668783 
L 207.651179 308.655825 
L 209.478657 304.574119 
L 212.013031 307.668783 
z
" style="fill:#808080;stroke:#808080;stroke-linecap:round;"/>
   </g>
   <g id="patch_42">
    <path clip-path="url(#p92e8da8576)" d="M 310.163508 372.052345 
Q 376.708818 300.732803 442.491394 230.230717 
" style="fill:none;stroke:#808080;stroke-linecap:round;"/>
    <path clip-path="url(#p92e8da8576)" d="M 438.300239 231.790917 
L 442.491394 230.230717 
L 441.224861 234.519761 
L 438.300239 231.790917 
z
" style="fill:#808080;stroke:#808080;stroke-linecap:round;"/>
   </g>
   <g id="patch_43">
    <path clip-path="url(#p92e8da8576)" d="M 296.240404 381.66218 
Q 272.683064 391.292013 250.16063 400.498795 
" style="fill:none;stroke:#808080;stroke-linecap:round;"/>
    <path clip-path="url(#p92e8da8576)" d="M 254.619994 400.836535 
L 250.16063 400.498795 
L 253.10644 397.133947 
L 254.619994 400.836535 
z
" style="fill:#808080;stroke:#808080;stroke-linecap:round;"/>
   </g>
   <g id="patch_44">
    <path clip-path="url(#p92e8da8576)" d="M 296.514866 374.497806 
Q 210.580542 331.311649 125.645199 288.627529 
" style="fill:none;stroke:#808080;stroke-linecap:round;"/>
    <path clip-path="url(#p92e8da8576)" d="M 128.321188 292.210695 
L 125.645199 288.627529 
L 130.117325 288.636637 
L 128.321188 292.210695 
z
" style="fill:#808080;stroke:#808080;stroke-linecap:round;"/>
   </g>
   <g id="patch_45">
    <path clip-path="url(#p92e8da8576)" d="M 442.45863 217.598003 
Q 350.010073 141.944662 258.426765 66.999378 
" style="fill:none;stroke:#808080;stroke-linecap:round;"/>
    <path clip-path="url(#p92e8da8576)" d="M 260.255759 71.080405 
L 258.426765 66.999378 
L 262.788983 67.9848 
L 260.255759 71.080405 
z
" style="fill:#808080;stroke:#808080;stroke-linecap:round;"/>
   </g>
   <g id="patch_46">
    <path clip-path="url(#p92e8da8576)" d="M 574.194423 272.257949 
Q 492.264412 303.796899 411.377796 334.934194 
" style="fill:none;stroke:#808080;stroke-linecap:round;"/>
    <path clip-path="url(#p92e8da8576)" d="M 415.829262 335.363672 
L 411.377796 334.934194 
L 414.392258 331.630708 
L 415.829262 335.363672 
z
" style="fill:#808080;stroke:#808080;stroke-linecap:round;"/>
   </g>
   <g id="patch_47">
    <path clip-path="url(#p92e8da8576)" d="M 407.641005 78.766838 
Q 470.021475 164.875669 531.746028 250.079086 
" style="fill:none;stroke:#808080;stroke-linecap:round;"/>
    <path clip-path="url(#p92e8da8576)" d="M 531.019006 245.66644 
L 531.746028 250.079086 
L 527.779699 248.013116 
L 531.019006 245.66644 
z
" style="fill:#808080;stroke:#808080;stroke-linecap:round;"/>
   </g>
   <g id="patch_48">
    <path clip-path="url(#p92e8da8576)" d="M 398.103056 79.175139 
Q 366.090079 132.439822 334.653041 184.746228 
" style="fill:none;stroke:#808080;stroke-linecap:round;"/>
    <path clip-path="url(#p92e8da8576)" d="M 338.427804 182.348069 
L 334.653041 184.746228 
L 334.999371 180.287523 
L 338.427804 182.348069 
z
" style="fill:#808080;stroke:#808080;stroke-linecap:round;"/>
   </g>
   <g id="patch_49">
    <path clip-path="url(#p92e8da8576)" d="M 212.574911 251.823525 
Q 370.698808 254.82917 527.704873 257.813567 
" style="fill:none;stroke:#808080;stroke-linecap:round;"/>
    <path clip-path="url(#p92e8da8576)" d="M 523.743605 255.73791 
L 527.704873 257.813567 
L 523.667586 259.737187 
L 523.743605 255.73791 
z
" style="fill:#808080;stroke:#808080;stroke-linecap:round;"/>
   </g>
   <g id="patch_50">
    <path clip-path="url(#p92e8da8576)" d="M 211.766936 248.002585 
Q 266.765337 222.393714 320.750191 197.256779 
" style="fill:none;stroke:#808080;stroke-linecap:round;"/>
    <path clip-path="url(#p92e8da8576)" d="M 316.279792 197.132146 
L 320.750191 197.256779 
L 317.968245 200.758318 
L 316.279792 197.132146 
z
" style="fill:#808080;stroke:#808080;stroke-linecap:round;"/>
   </g>
   <g id="patch_51">
    <path clip-path="url(#p92e8da8576)" d="M 284.388162 202.729862 
Q 406.705251 229.440768 527.930047 255.913146 
" style="fill:none;stroke:#808080;stroke-linecap:round;"/>
    <path clip-path="url(#p92e8da8576)" d="M 524.448833 253.105806 
L 527.930047 255.913146 
L 523.595447 257.013713 
L 524.448833 253.105806 
z
" style="fill:#808080;stroke:#808080;stroke-linecap:round;"/>
   </g>
   <g id="patch_52">
    <path clip-path="url(#p92e8da8576)" d="M 284.499537 199.645519 
Q 302.771141 197.006411 319.936193 194.527131 
" style="fill:none;stroke:#808080;stroke-linecap:round;"/>
    <path clip-path="url(#p92e8da8576)" d="M 315.691367 193.119489 
L 319.936193 194.527131 
L 316.263184 197.078406 
L 315.691367 193.119489 
z
" style="fill:#808080;stroke:#808080;stroke-linecap:round;"/>
   </g>
   <g id="patch_53">
    <path clip-path="url(#p92e8da8576)" d="M 82.606678 300.487446 
Q 112.203852 203.983672 141.473202 108.548791 
" style="fill:none;stroke:#808080;stroke-linecap:round;"/>
    <path clip-path="url(#p92e8da8576)" d="M 138.388252 111.78655 
L 141.473202 108.548791 
L 142.212439 112.959407 
L 138.388252 111.78655 
z
" style="fill:#808080;stroke:#808080;stroke-linecap:round;"/>
   </g>
   <g id="patch_54">
    <path clip-path="url(#p92e8da8576)" d="M 86.961256 303.529403 
Q 126.680813 273.355863 165.510089 243.858637 
" style="fill:none;stroke:#808080;stroke-linecap:round;"/>
    <path clip-path="url(#p92e8da8576)" d="M 161.115098 244.685711 
L 165.510089 243.858637 
L 163.534753 247.870875 
L 161.115098 244.685711 
z
" style="fill:#808080;stroke:#808080;stroke-linecap:round;"/>
   </g>
   <g id="patch_55">
    <path clip-path="url(#p92e8da8576)" d="M 88.537531 310.588817 
Q 142.831553 322.271797 196.03256 333.719583 
" style="fill:none;stroke:#808080;stroke-linecap:round;"/>
    <path clip-path="url(#p92e8da8576)" d="M 192.542798 330.922878 
L 196.03256 333.719583 
L 191.701339 334.83337 
L 192.542798 330.922878 
z
" style="fill:#808080;stroke:#808080;stroke-linecap:round;"/>
   </g>
   <g id="patch_56">
    <path clip-path="url(#p92e8da8576)" d="M 69.582122 230.883385 
Q 104.822049 168.810398 139.509998 107.709686 
" style="fill:none;stroke:#808080;stroke-linecap:round;"/>
    <path clip-path="url(#p92e8da8576)" d="M 135.795922 110.200798 
L 139.509998 107.709686 
L 139.274441 112.175614 
L 135.795922 110.200798 
z
" style="fill:#808080;stroke:#808080;stroke-linecap:round;"/>
   </g>
   <g id="patch_57">
    <path clip-path="url(#p92e8da8576)" d="M 73.963278 238.378094 
Q 119.29902 238.180158 163.516738 237.987104 
" style="fill:none;stroke:#808080;stroke-linecap:round;"/>
    <path clip-path="url(#p92e8da8576)" d="M 159.508045 236.004587 
L 163.516738 237.987104 
L 159.525508 240.004549 
L 159.508045 236.004587 
z
" style="fill:#808080;stroke:#808080;stroke-linecap:round;"/>
   </g>
   <g id="patch_58">
    <path clip-path="url(#p92e8da8576)" d="M 72.419172 243.352601 
Q 135.449143 287.095558 197.560605 330.201067 
" style="fill:none;stroke:#808080;stroke-linecap:round;"/>
    <path clip-path="url(#p92e8da8576)" d="M 195.414746 326.277383 
L 197.560605 330.201067 
L 193.134143 329.563543 
L 195.414746 326.277383 
z
" style="fill:#808080;stroke:#808080;stroke-linecap:round;"/>
   </g>
   <g id="patch_59">
    <path clip-path="url(#p92e8da8576)" d="M 416.438045 264.591486 
Q 469.0145 324.58459 520.854069 383.73686 
" style="fill:none;stroke:#808080;stroke-linecap:round;"/>
    <path clip-path="url(#p92e8da8576)" d="M 519.721837 379.410424 
L 520.854069 383.73686 
L 516.713581 382.046784 
L 519.721837 379.410424 
z
" style="fill:#808080;stroke:#808080;stroke-linecap:round;"/>
   </g>
   <g id="patch_60">
    <path clip-path="url(#p92e8da8576)" d="M 171.525432 229.463578 
Q 158.81735 168.572681 146.337683 108.776236 
" style="fill:none;stroke:#808080;stroke-linecap:round;"/>
    <path clip-path="url(#p92e8da8576)" d="M 145.197068 113.10047 
L 146.337683 108.776236 
L 149.112701 112.283267 
L 145.197068 113.10047 
z
" style="fill:#808080;stroke:#808080;stroke-linecap:round;"/>
   </g>
   <g id="patch_61">
    <path clip-path="url(#p92e8da8576)" d="M 181.243981 241.383087 
Q 350.29726 314.518117 518.324411 387.20923 
" style="fill:none;stroke:#808080;stroke-linecap:round;"/>
    <path clip-path="url(#p92e8da8576)" d="M 515.447333 383.785428 
L 518.324411 387.20923 
L 513.859122 387.456611 
L 515.447333 383.785428 
z
" style="fill:#808080;stroke:#808080;stroke-linecap:round;"/>
   </g>
   <g id="patch_62">
    <path clip-path="url(#p92e8da8576)" d="M 203.424277 327.39168 
Q 174.966984 217.487581 146.789939 108.665822 
" style="fill:none;stroke:#808080;stroke-linecap:round;"/>
    <path clip-path="url(#p92e8da8576)" d="M 145.856438 113.039445 
L 146.789939 108.665822 
L 149.728737 112.036797 
L 145.856438 113.039445 
z
" style="fill:#808080;stroke:#808080;stroke-linecap:round;"/>
   </g>
   <g id="patch_63">
    <path clip-path="url(#p92e8da8576)" d="M 214.132008 337.245133 
Q 366.446443 363.434571 517.659014 389.434551 
" style="fill:none;stroke:#808080;stroke-linecap:round;"/>
    <path clip-path="url(#p92e8da8576)" d="M 514.055777 386.785649 
L 517.659014 389.434551 
L 513.37795 390.7278 
L 514.055777 386.785649 
z
" style="fill:#808080;stroke:#808080;stroke-linecap:round;"/>
   </g>
   <g id="patch_64">
    <path clip-path="url(#p92e8da8576)" d="M 337.883706 195.709701 
Q 433.549292 225.564316 528.147608 255.085866 
" style="fill:none;stroke:#808080;stroke-linecap:round;"/>
    <path clip-path="url(#p92e8da8576)" d="M 524.925031 251.985061 
L 528.147608 255.085866 
L 523.733417 255.803445 
L 524.925031 251.985061 
z
" style="fill:#808080;stroke:#808080;stroke-linecap:round;"/>
   </g>
   <g id="patch_65">
    <path clip-path="url(#p92e8da8576)" d="M 337.62273 196.421123 
Q 377.69191 212.892839 416.72702 228.939469 
" style="fill:none;stroke:#808080;stroke-linecap:round;"/>
    <path clip-path="url(#p92e8da8576)" d="M 413.787838 225.568829 
L 416.72702 228.939469 
L 412.266999 229.26843 
L 413.787838 225.568829 
z
" style="fill:#808080;stroke:#808080;stroke-linecap:round;"/>
   </g>
   <g id="patch_66">
    <path clip-path="url(#p92e8da8576)" d="M 327.148329 201.431901 
Q 310.34483 257.997706 293.859705 313.491765 
" style="fill:none;stroke:#808080;stroke-linecap:round;"/>
    <path clip-path="url(#p92e8da8576)" d="M 296.91595 310.226897 
L 293.859705 313.491765 
L 293.081557 309.087848 
L 296.91595 310.226897 
z
" style="fill:#808080;stroke:#808080;stroke-linecap:round;"/>
   </g>
   <g id="patch_67">
    <path clip-path="url(#p92e8da8576)" d="M 325.553016 200.773914 
Q 320.346597 210.573112 315.664757 219.384982 
" style="fill:none;stroke:#808080;stroke-linecap:round;"/>
    <path clip-path="url(#p92e8da8576)" d="M 319.307732 216.791002 
L 315.664757 219.384982 
L 315.775358 214.914214 
L 319.307732 216.791002 
z
" style="fill:#808080;stroke:#808080;stroke-linecap:round;"/>
   </g>
   <g id="patch_68">
    <path clip-path="url(#p92e8da8576)" d="M 336.60395 198.236812 
Q 355.116279 211.765399 372.725926 224.634316 
" style="fill:none;stroke:#808080;stroke-linecap:round;"/>
    <path clip-path="url(#p92e8da8576)" d="M 370.676443 220.659442 
L 372.725926 224.634316 
L 368.316337 223.888978 
L 370.676443 220.659442 
z
" style="fill:#808080;stroke:#808080;stroke-linecap:round;"/>
   </g>
   <g id="patch_69">
    <path clip-path="url(#p92e8da8576)" d="M 323.303934 199.059645 
Q 264.850828 253.989827 207.212461 308.154373 
" style="fill:none;stroke:#808080;stroke-linecap:round;"/>
    <path clip-path="url(#p92e8da8576)" d="M 211.496975 306.872601 
L 207.212461 308.154373 
L 208.757751 303.957698 
L 211.496975 306.872601 
z
" style="fill:#808080;stroke:#808080;stroke-linecap:round;"/>
   </g>
   <g id="patch_70">
    <path clip-path="url(#p92e8da8576)" d="M 424.645715 73.985107 
Q 286.316888 97.70326 149.090013 121.23247 
" style="fill:none;stroke:#808080;stroke-linecap:round;"/>
    <path clip-path="url(#p92e8da8576)" d="M 153.370472 122.52772 
L 149.090013 121.23247 
L 152.694488 118.585253 
L 153.370472 122.52772 
z
" style="fill:#808080;stroke:#808080;stroke-linecap:round;"/>
   </g>
   <g id="patch_71">
    <path clip-path="url(#p92e8da8576)" d="M 440.76415 76.704085 
Q 517.241344 118.905485 592.739649 160.566719 
" style="fill:none;stroke:#808080;stroke-linecap:round;"/>
    <path clip-path="url(#p92e8da8576)" d="M 590.203755 156.883074 
L 592.739649 160.566719 
L 588.271197 160.385247 
L 590.203755 156.883074 
z
" style="fill:#808080;stroke:#808080;stroke-linecap:round;"/>
   </g>
   <g id="patch_72">
    <path clip-path="url(#p92e8da8576)" d="M 473.598736 235.392362 
Q 310.62971 180.520025 148.720269 126.004454 
" style="fill:none;stroke:#808080;stroke-linecap:round;"/>
    <path clip-path="url(#p92e8da8576)" d="M 151.872948 129.176301 
L 148.720269 126.004454 
L 153.149354 125.385419 
L 151.872948 129.176301 
z
" style="fill:#808080;stroke:#808080;stroke-linecap:round;"/>
   </g>
   <g id="patch_73">
    <path clip-path="url(#p92e8da8576)" d="M 489.199763 233.649059 
Q 541.553459 201.723833 592.952599 170.380694 
" style="fill:none;stroke:#808080;stroke-linecap:round;"/>
    <path clip-path="url(#p92e8da8576)" d="M 588.496211 170.75567 
L 592.952599 170.380694 
L 590.578748 174.17079 
L 588.496211 170.75567 
z
" style="fill:#808080;stroke:#808080;stroke-linecap:round;"/>
   </g>
   <g id="patch_74">
    <path clip-path="url(#p92e8da8576)" d="M 147.691403 125.549483 
Q 294.306811 172.983367 439.858469 220.073101 
" style="fill:none;stroke:#808080;stroke-linecap:round;"/>
    <path clip-path="url(#p92e8da8576)" d="M 436.668322 216.938941 
L 439.858469 220.073101 
L 435.437053 220.744723 
L 436.668322 216.938941 
z
" style="fill:#808080;stroke:#808080;stroke-linecap:round;"/>
   </g>
   <g id="patch_75">
    <path clip-path="url(#p92e8da8576)" d="M 593.207392 168.364553 
Q 525.23063 194.186509 458.299035 219.611443 
" style="fill:none;stroke:#808080;stroke-linecap:round;"/>
    <path clip-path="url(#p92e8da8576)" d="M 462.748551 220.060667 
L 458.299035 219.611443 
L 461.328123 216.321364 
L 462.748551 220.060667 
z
" style="fill:#808080;stroke:#808080;stroke-linecap:round;"/>
   </g>
   <g id="patch_76">
    <path clip-path="url(#p92e8da8576)" d="M 611.795017 294.773639 
Q 548.024171 343.166477 485.143953 390.883458 
" style="fill:none;stroke:#808080;stroke-linecap:round;"/>
    <path clip-path="url(#p92e8da8576)" d="M 489.539368 390.05864 
L 485.143953 390.883458 
L 487.121348 386.872235 
L 489.539368 390.05864 
z
" style="fill:#808080;stroke:#808080;stroke-linecap:round;"/>
   </g>
   <g id="patch_77">
    <path clip-path="url(#p92e8da8576)" d="M 423.889561 241.11198 
Q 414.009609 285.554318 404.372283 328.905266 
" style="fill:none;stroke:#808080;stroke-linecap:round;"/>
    <path clip-path="url(#p92e8da8576)" d="M 407.192668 325.434613 
L 404.372283 328.905266 
L 403.287992 324.566567 
L 407.192668 325.434613 
z
" style="fill:#808080;stroke:#808080;stroke-linecap:round;"/>
   </g>
   <g id="patch_78">
    <path clip-path="url(#p92e8da8576)" d="M 420.2234 239.30756 
Q 365.012089 305.520609 310.516786 370.874976 
" style="fill:none;stroke:#808080;stroke-linecap:round;"/>
    <path clip-path="url(#p92e8da8576)" d="M 314.614505 369.083693 
L 310.516786 370.874976 
L 311.542391 366.522031 
L 314.614505 369.083693 
z
" style="fill:#808080;stroke:#808080;stroke-linecap:round;"/>
   </g>
   <g id="patch_79">
    <path clip-path="url(#p92e8da8576)" d="M 421.592593 240.246969 
Q 372.201804 330.006071 323.350012 418.785642 
" style="fill:none;stroke:#808080;stroke-linecap:round;"/>
    <path clip-path="url(#p92e8da8576)" d="M 327.030625 416.245349 
L 323.350012 418.785642 
L 323.526145 414.316976 
L 327.030625 416.245349 
z
" style="fill:#808080;stroke:#808080;stroke-linecap:round;"/>
   </g>
   <g id="patch_80">
    <path clip-path="url(#p92e8da8576)" d="M 299.647944 324.069972 
Q 346.661269 330.65788 392.567378 337.090634 
" style="fill:none;stroke:#808080;stroke-linecap:round;"/>
    <path clip-path="url(#p92e8da8576)" d="M 388.883627 334.554895 
L 392.567378 337.090634 
L 388.328536 338.516192 
L 388.883627 334.554895 
z
" style="fill:#808080;stroke:#808080;stroke-linecap:round;"/>
   </g>
   <g id="patch_81">
    <path clip-path="url(#p92e8da8576)" d="M 293.074721 331.295895 
Q 297.664076 350.629161 301.995207 368.874622 
" style="fill:none;stroke:#808080;stroke-linecap:round;"/>
    <path clip-path="url(#p92e8da8576)" d="M 303.017279 364.520846 
L 301.995207 368.874622 
L 299.125429 365.444698 
L 303.017279 364.520846 
z
" style="fill:#808080;stroke:#808080;stroke-linecap:round;"/>
   </g>
   <g id="patch_82">
    <path clip-path="url(#p92e8da8576)" d="M 293.28392 331.244863 
Q 304.855948 375.111111 316.142792 417.896309 
" style="fill:none;stroke:#808080;stroke-linecap:round;"/>
    <path clip-path="url(#p92e8da8576)" d="M 317.056329 413.518473 
L 316.142792 417.896309 
L 313.188645 414.538778 
L 317.056329 413.518473 
z
" style="fill:#808080;stroke:#808080;stroke-linecap:round;"/>
   </g>
   <g id="patch_83">
    <path clip-path="url(#p92e8da8576)" d="M 316.589778 234.694162 
Q 356.663714 283.232003 396.025833 330.907686 
" style="fill:none;stroke:#808080;stroke-linecap:round;"/>
    <path clip-path="url(#p92e8da8576)" d="M 395.021434 326.549799 
L 396.025833 330.907686 
L 391.936884 329.096473 
L 395.021434 326.549799 
z
" style="fill:#808080;stroke:#808080;stroke-linecap:round;"/>
   </g>
   <g id="patch_84">
    <path clip-path="url(#p92e8da8576)" d="M 310.685287 236.668161 
Q 307.66563 303.200357 304.696665 368.615668 
" style="fill:none;stroke:#808080;stroke-linecap:round;"/>
    <path clip-path="url(#p92e8da8576)" d="M 306.875967 364.710461 
L 304.696665 368.615668 
L 302.880081 364.529102 
L 306.875967 364.710461 
z
" style="fill:#808080;stroke:#808080;stroke-linecap:round;"/>
   </g>
   <g id="patch_85">
    <path clip-path="url(#p92e8da8576)" d="M 311.406029 236.671398 
Q 314.857354 327.683188 318.266311 417.577747 
" style="fill:none;stroke:#808080;stroke-linecap:round;"/>
    <path clip-path="url(#p92e8da8576)" d="M 320.113297 413.504831 
L 318.266311 417.577747 
L 316.11617 413.656409 
L 320.113297 413.504831 
z
" style="fill:#808080;stroke:#808080;stroke-linecap:round;"/>
   </g>
   <g id="patch_86">
    <path clip-path="url(#p92e8da8576)" d="M 382.321612 238.894945 
Q 391.436322 284.425509 400.331569 328.85979 
" style="fill:none;stroke:#808080;stroke-linecap:round;"/>
    <path clip-path="url(#p92e8da8576)" d="M 401.507483 324.545022 
L 400.331569 328.85979 
L 397.585303 325.330199 
L 401.507483 324.545022 
z
" style="fill:#808080;stroke:#808080;stroke-linecap:round;"/>
   </g>
   <g id="patch_87">
    <path clip-path="url(#p92e8da8576)" d="M 376.649456 238.102246 
Q 342.436434 304.397862 308.736141 369.699946 
" style="fill:none;stroke:#808080;stroke-linecap:round;"/>
    <path clip-path="url(#p92e8da8576)" d="M 312.347826 367.062574 
L 308.736141 369.699946 
L 308.793255 365.228174 
L 312.347826 367.062574 
z
" style="fill:#808080;stroke:#808080;stroke-linecap:round;"/>
   </g>
   <g id="patch_88">
    <path clip-path="url(#p92e8da8576)" d="M 378.021897 238.665819 
Q 349.629272 328.878259 321.572296 418.024238 
" style="fill:none;stroke:#808080;stroke-linecap:round;"/>
    <path clip-path="url(#p92e8da8576)" d="M 324.680892 414.809175 
L 321.572296 418.024238 
L 320.865403 413.608323 
L 324.680892 414.809175 
z
" style="fill:#808080;stroke:#808080;stroke-linecap:round;"/>
   </g>
   <g id="patch_89">
    <path clip-path="url(#p92e8da8576)" d="M 208.689521 315.855473 
Q 301.168438 326.649429 392.536859 337.313769 
" style="fill:none;stroke:#808080;stroke-linecap:round;"/>
    <path clip-path="url(#p92e8da8576)" d="M 388.795692 334.863531 
L 392.536859 337.313769 
L 388.331968 338.83656 
L 388.795692 334.863531 
z
" style="fill:#808080;stroke:#808080;stroke-linecap:round;"/>
   </g>
   <g id="patch_90">
    <path clip-path="url(#p92e8da8576)" d="M 207.477048 319.359342 
Q 252.168974 346.618599 295.906403 373.295674 
" style="fill:none;stroke:#808080;stroke-linecap:round;"/>
    <path clip-path="url(#p92e8da8576)" d="M 293.532933 369.505339 
L 295.906403 373.295674 
L 291.450053 372.920249 
L 293.532933 369.505339 
z
" style="fill:#808080;stroke:#808080;stroke-linecap:round;"/>
   </g>
   <g id="patch_91">
    <path clip-path="url(#p92e8da8576)" d="M 206.370305 320.814785 
Q 259.363589 371.103073 311.545877 420.621761 
" style="fill:none;stroke:#808080;stroke-linecap:round;"/>
    <path clip-path="url(#p92e8da8576)" d="M 310.021069 416.417601 
L 311.545877 420.621761 
L 307.267664 419.319111 
L 310.021069 416.417601 
z
" style="fill:#808080;stroke:#808080;stroke-linecap:round;"/>
   </g>
   <g id="patch_92">
    <path clip-path="url(#p92e8da8576)" d="M 247.636973 398.515097 
Q 345.131749 313.643083 441.783254 229.505162 
" style="fill:none;stroke:#808080;stroke-linecap:round;"/>
    <path clip-path="url(#p92e8da8576)" d="M 437.453086 230.623041 
L 441.783254 229.505162 
L 440.079456 233.640023 
L 437.453086 230.623041 
z
" style="fill:#808080;stroke:#808080;stroke-linecap:round;"/>
   </g>
   <g id="patch_93">
    <path clip-path="url(#p92e8da8576)" d="M 125.424272 282.670257 
Q 283.033231 253.660459 439.542626 224.853048 
" style="fill:none;stroke:#808080;stroke-linecap:round;"/>
    <path clip-path="url(#p92e8da8576)" d="M 435.246667 223.610174 
L 439.542626 224.853048 
L 435.970751 227.544091 
L 435.246667 223.610174 
z
" style="fill:#808080;stroke:#808080;stroke-linecap:round;"/>
   </g>
   <g id="patch_94">
    <path clip-path="url(#p92e8da8576)" d="M 310.341608 424.873823 
Q 279.871743 415.775346 250.473172 406.996763 
" style="fill:none;stroke:#808080;stroke-linecap:round;"/>
    <path clip-path="url(#p92e8da8576)" d="M 253.733701 410.057637 
L 250.473172 406.996763 
L 254.878189 406.224864 
L 253.733701 410.057637 
z
" style="fill:#808080;stroke:#808080;stroke-linecap:round;"/>
   </g>
   <g id="patch_95">
    <path clip-path="url(#p92e8da8576)" d="M 311.572652 422.339176 
Q 217.771365 355.792812 124.881945 289.893362 
" style="fill:none;stroke:#808080;stroke-linecap:round;"/>
    <path clip-path="url(#p92e8da8576)" d="M 126.987103 293.839031 
L 124.881945 289.893362 
L 129.301576 290.576637 
L 126.987103 293.839031 
z
" style="fill:#808080;stroke:#808080;stroke-linecap:round;"/>
   </g>
   <g id="PathCollection_1">
    <defs>
     <path d="M 0 11.18034 
C 2.965061 11.18034 5.80908 10.002309 7.905694 7.905694 
C 10.002309 5.80908 11.18034 2.965061 11.18034 -0 
C 11.18034 -2.965061 10.002309 -5.80908 7.905694 -7.905694 
C 5.80908 -10.002309 2.965061 -11.18034 0 -11.18034 
C -2.965061 -11.18034 -5.80908 -10.002309 -7.905694 -7.905694 
C -10.002309 -5.80908 -11.18034 -2.965061 -11.18034 0 
C -11.18034 2.965061 -10.002309 5.80908 -7.905694 7.905694 
C -5.80908 10.002309 -2.965061 11.18034 0 11.18034 
z
" id="C0_0_2e3ae2e1a5"/>
    </defs>
    <g clip-path="url(#p92e8da8576)">
     <use style="fill:#8d8d8d;stroke:#8d8d8d;" x="261.546352" xlink:href="#C0_0_2e3ae2e1a5" y="255.108831"/>
    </g>
    <g clip-path="url(#p92e8da8576)">
     <use style="fill:#a2a2a2;stroke:#a2a2a2;" x="334.742886" xlink:href="#C0_0_2e3ae2e1a5" y="235.834022"/>
    </g>
    <g clip-path="url(#p92e8da8576)">
     <use style="fill:#e7e7e7;stroke:#e7e7e7;" x="477.354467" xlink:href="#C0_0_2e3ae2e1a5" y="396.794549"/>
    </g>
    <g clip-path="url(#p92e8da8576)">
     <use style="fill:#e6e6e6;stroke:#e6e6e6;" x="455.094359" xlink:href="#C0_0_2e3ae2e1a5" y="281.038521"/>
    </g>
    <g clip-path="url(#p92e8da8576)">
     <use style="fill:#e4e4e4;stroke:#e4e4e4;" x="109.030216" xlink:href="#C0_0_2e3ae2e1a5" y="192.742866"/>
    </g>
    <g clip-path="url(#p92e8da8576)">
     <use style="fill:#d1d1d1;stroke:#d1d1d1;" x="115.111617" xlink:href="#C0_0_2e3ae2e1a5" y="322.590564"/>
    </g>
    <g clip-path="url(#p92e8da8576)">
     <use style="fill:#a5a5a5;stroke:#a5a5a5;" x="293.874039" xlink:href="#C0_0_2e3ae2e1a5" y="98.13428"/>
    </g>
    <g clip-path="url(#p92e8da8576)">
     <use style="fill:#5f5f5f;stroke:#5f5f5f;" x="402.250937" xlink:href="#C0_0_2e3ae2e1a5" y="338.447577"/>
    </g>
    <g clip-path="url(#p92e8da8576)">
     <use style="fill:#e4e4e4;stroke:#e4e4e4;" x="144.339635" xlink:href="#C0_0_2e3ae2e1a5" y="99.202574"/>
    </g>
    <g clip-path="url(#p92e8da8576)">
     <use style="fill:#e7e7e7;stroke:#e7e7e7;" x="581.384276" xlink:href="#C0_0_2e3ae2e1a5" y="127.243901"/>
    </g>
    <g clip-path="url(#p92e8da8576)">
     <use style="fill:#d3d3d3;stroke:#d3d3d3;" x="258.80543" xlink:href="#C0_0_2e3ae2e1a5" y="342.756619"/>
    </g>
    <g clip-path="url(#p92e8da8576)">
     <use style="fill:#e4e4e4;stroke:#e4e4e4;" x="612.870645" xlink:href="#C0_0_2e3ae2e1a5" y="211.525542"/>
    </g>
    <g clip-path="url(#p92e8da8576)">
     <use style="fill:#bebebe;stroke:#bebebe;" x="537.483836" xlink:href="#C0_0_2e3ae2e1a5" y="257.999448"/>
    </g>
    <g clip-path="url(#p92e8da8576)">
     <use style="fill:#e4e4e4;stroke:#e4e4e4;" x="461.951076" xlink:href="#C0_0_2e3ae2e1a5" y="414.968858"/>
    </g>
    <g clip-path="url(#p92e8da8576)">
     <use style="fill:#cfcfcf;stroke:#cfcfcf;" x="319.068792" xlink:href="#C0_0_2e3ae2e1a5" y="154.002586"/>
    </g>
    <g clip-path="url(#p92e8da8576)">
     <use style="fill:#d3d3d3;stroke:#d3d3d3;" x="370.689044" xlink:href="#C0_0_2e3ae2e1a5" y="175.136081"/>
    </g>
    <g clip-path="url(#p92e8da8576)">
     <use style="fill:#b3b3b3;stroke:#b3b3b3;" x="304.253193" xlink:href="#C0_0_2e3ae2e1a5" y="378.38669"/>
    </g>
    <g clip-path="url(#p92e8da8576)">
     <use style="fill:#f1f1f1;stroke:#f1f1f1;" x="449.160925" xlink:href="#C0_0_2e3ae2e1a5" y="223.082686"/>
    </g>
    <g clip-path="url(#p92e8da8576)">
     <use style="fill:#e5e5e5;stroke:#e5e5e5;" x="250.857707" xlink:href="#C0_0_2e3ae2e1a5" y="60.805398"/>
    </g>
    <g clip-path="url(#p92e8da8576)">
     <use style="fill:#e4e4e4;stroke:#e4e4e4;" x="582.278868" xlink:href="#C0_0_2e3ae2e1a5" y="269.145842"/>
    </g>
    <g clip-path="url(#p92e8da8576)">
     <use style="fill:#a4a4a4;stroke:#a4a4a4;" x="402.562087" xlink:href="#C0_0_2e3ae2e1a5" y="71.755996"/>
    </g>
    <g clip-path="url(#p92e8da8576)">
     <use style="fill:#e3e3e3;stroke:#e3e3e3;" x="203.914507" xlink:href="#C0_0_2e3ae2e1a5" y="251.658907"/>
    </g>
    <g clip-path="url(#p92e8da8576)">
     <use style="fill:#a5a5a5;stroke:#a5a5a5;" x="275.931285" xlink:href="#C0_0_2e3ae2e1a5" y="200.883097"/>
    </g>
    <g clip-path="url(#p92e8da8576)">
     <use style="fill:#e4e4e4;stroke:#e4e4e4;" x="80.067612" xlink:href="#C0_0_2e3ae2e1a5" y="308.766261"/>
    </g>
    <g clip-path="url(#p92e8da8576)">
     <use style="fill:#cdcdcd;stroke:#cdcdcd;" x="65.305785" xlink:href="#C0_0_2e3ae2e1a5" y="238.415892"/>
    </g>
    <g clip-path="url(#p92e8da8576)">
     <use style="fill:#e4e4e4;stroke:#e4e4e4;" x="410.73014" xlink:href="#C0_0_2e3ae2e1a5" y="258.078401"/>
    </g>
    <g clip-path="url(#p92e8da8576)">
     <use style="fill:#f3f3f3;stroke:#f3f3f3;" x="173.295403" xlink:href="#C0_0_2e3ae2e1a5" y="237.94441"/>
    </g>
    <g clip-path="url(#p92e8da8576)">
     <use style="fill:#e1e1e1;stroke:#e1e1e1;" x="205.595565" xlink:href="#C0_0_2e3ae2e1a5" y="335.777349"/>
    </g>
    <g clip-path="url(#p92e8da8576)">
     <use style="fill:#bebebe;stroke:#bebebe;" x="329.614743" xlink:href="#C0_0_2e3ae2e1a5" y="193.129184"/>
    </g>
    <g clip-path="url(#p92e8da8576)">
     <use style="fill:#d0d0d0;stroke:#d0d0d0;" x="433.18384" xlink:href="#C0_0_2e3ae2e1a5" y="72.521142"/>
    </g>
    <g clip-path="url(#p92e8da8576)">
     <use style="fill:#d2d2d2;stroke:#d2d2d2;" x="481.808098" xlink:href="#C0_0_2e3ae2e1a5" y="238.156488"/>
    </g>
    <g clip-path="url(#p92e8da8576)">
     <use style="fill:#e3e3e3;stroke:#e3e3e3;" x="139.454428" xlink:href="#C0_0_2e3ae2e1a5" y="122.884608"/>
    </g>
    <g clip-path="url(#p92e8da8576)">
     <use style="fill:#e2e2e2;stroke:#e2e2e2;" x="601.299995" xlink:href="#C0_0_2e3ae2e1a5" y="165.290461"/>
    </g>
    <g clip-path="url(#p92e8da8576)">
     <use style="fill:#e3e3e3;stroke:#e3e3e3;" x="527.300178" xlink:href="#C0_0_2e3ae2e1a5" y="391.092284"/>
    </g>
    <g clip-path="url(#p92e8da8576)">
     <use style="fill:#d9d9d9;stroke:#d9d9d9;" x="618.694215" xlink:href="#C0_0_2e3ae2e1a5" y="289.538147"/>
    </g>
    <g clip-path="url(#p92e8da8576)">
     <use style="fill:#e5e5e5;stroke:#e5e5e5;" x="425.769277" xlink:href="#C0_0_2e3ae2e1a5" y="232.656577"/>
    </g>
    <g clip-path="url(#p92e8da8576)">
     <use style="fill:#e6e6e6;stroke:#e6e6e6;" x="291.074227" xlink:href="#C0_0_2e3ae2e1a5" y="322.86855"/>
    </g>
    <g clip-path="url(#p92e8da8576)">
     <use style="fill:#f3f3f3;stroke:#f3f3f3;" x="311.077882" xlink:href="#C0_0_2e3ae2e1a5" y="228.018114"/>
    </g>
    <g clip-path="url(#p92e8da8576)">
     <use style="fill:#e5e5e5;stroke:#e5e5e5;" x="380.621946" xlink:href="#C0_0_2e3ae2e1a5" y="230.404632"/>
    </g>
    <g clip-path="url(#p92e8da8576)">
     <use style="fill:#e7e7e7;stroke:#e7e7e7;" x="200.086037" xlink:href="#C0_0_2e3ae2e1a5" y="314.851292"/>
    </g>
    <g clip-path="url(#p92e8da8576)">
     <use style="fill:#f2f2f2;stroke:#f2f2f2;" x="241.106707" xlink:href="#C0_0_2e3ae2e1a5" y="404.199882"/>
    </g>
    <g clip-path="url(#p92e8da8576)">
     <use style="fill:#f3f3f3;stroke:#f3f3f3;" x="116.909622" xlink:href="#C0_0_2e3ae2e1a5" y="284.237479"/>
    </g>
    <g clip-path="url(#p92e8da8576)">
     <use style="fill:#e8e8e8;stroke:#e8e8e8;" x="280.27158" xlink:href="#C0_0_2e3ae2e1a5" y="422.889614"/>
    </g>
    <g clip-path="url(#p92e8da8576)">
     <use style="fill:#6c6c6c;stroke:#6c6c6c;" x="318.636924" xlink:href="#C0_0_2e3ae2e1a5" y="427.350852"/>
    </g>
   </g>
   <g id="text_1">
    <g clip-path="url(#p92e8da8576)">
     <!-- CDKN2A -->
     <g transform="translate(240.583852 257.868206)scale(0.1 -0.1)">
      <defs>
       <path d="M 64.40625 67.28125 
L 64.40625 56.890625 
Q 59.421875 61.53125 53.78125 63.8125 
Q 48.140625 66.109375 41.796875 66.109375 
Q 29.296875 66.109375 22.65625 58.46875 
Q 16.015625 50.828125 16.015625 36.375 
Q 16.015625 21.96875 22.65625 14.328125 
Q 29.296875 6.6875 41.796875 6.6875 
Q 48.140625 6.6875 53.78125 8.984375 
Q 59.421875 11.28125 64.40625 15.921875 
L 64.40625 5.609375 
Q 59.234375 2.09375 53.4375 0.328125 
Q 47.65625 -1.421875 41.21875 -1.421875 
Q 24.65625 -1.421875 15.125 8.703125 
Q 5.609375 18.84375 5.609375 36.375 
Q 5.609375 53.953125 15.125 64.078125 
Q 24.65625 74.21875 41.21875 74.21875 
Q 47.75 74.21875 53.53125 72.484375 
Q 59.328125 70.75 64.40625 67.28125 
z
" id="DejaVuSans-67"/>
       <path d="M 19.671875 64.796875 
L 19.671875 8.109375 
L 31.59375 8.109375 
Q 46.6875 8.109375 53.6875 14.9375 
Q 60.6875 21.78125 60.6875 36.53125 
Q 60.6875 51.171875 53.6875 57.984375 
Q 46.6875 64.796875 31.59375 64.796875 
z
M 9.8125 72.90625 
L 30.078125 72.90625 
Q 51.265625 72.90625 61.171875 64.09375 
Q 71.09375 55.28125 71.09375 36.53125 
Q 71.09375 17.671875 61.125 8.828125 
Q 51.171875 0 30.078125 0 
L 9.8125 0 
z
" id="DejaVuSans-68"/>
       <path d="M 9.8125 72.90625 
L 19.671875 72.90625 
L 19.671875 42.09375 
L 52.390625 72.90625 
L 65.09375 72.90625 
L 28.90625 38.921875 
L 67.671875 0 
L 54.6875 0 
L 19.671875 35.109375 
L 19.671875 0 
L 9.8125 0 
z
" id="DejaVuSans-75"/>
       <path d="M 9.8125 72.90625 
L 23.09375 72.90625 
L 55.421875 11.921875 
L 55.421875 72.90625 
L 64.984375 72.90625 
L 64.984375 0 
L 51.703125 0 
L 19.390625 60.984375 
L 19.390625 0 
L 9.8125 0 
z
" id="DejaVuSans-78"/>
       <path d="M 19.1875 8.296875 
L 53.609375 8.296875 
L 53.609375 0 
L 7.328125 0 
L 7.328125 8.296875 
Q 12.9375 14.109375 22.625 23.890625 
Q 32.328125 33.6875 34.8125 36.53125 
Q 39.546875 41.84375 41.421875 45.53125 
Q 43.3125 49.21875 43.3125 52.78125 
Q 43.3125 58.59375 39.234375 62.25 
Q 35.15625 65.921875 28.609375 65.921875 
Q 23.96875 65.921875 18.8125 64.3125 
Q 13.671875 62.703125 7.8125 59.421875 
L 7.8125 69.390625 
Q 13.765625 71.78125 18.9375 73 
Q 24.125 74.21875 28.421875 74.21875 
Q 39.75 74.21875 46.484375 68.546875 
Q 53.21875 62.890625 53.21875 53.421875 
Q 53.21875 48.921875 51.53125 44.890625 
Q 49.859375 40.875 45.40625 35.40625 
Q 44.1875 33.984375 37.640625 27.21875 
Q 31.109375 20.453125 19.1875 8.296875 
z
" id="DejaVuSans-50"/>
       <path d="M 34.1875 63.1875 
L 20.796875 26.90625 
L 47.609375 26.90625 
z
M 28.609375 72.90625 
L 39.796875 72.90625 
L 67.578125 0 
L 57.328125 0 
L 50.6875 18.703125 
L 17.828125 18.703125 
L 11.1875 0 
L 0.78125 0 
z
" id="DejaVuSans-65"/>
      </defs>
      <use xlink:href="#DejaVuSans-67"/>
      <use x="69.824219" xlink:href="#DejaVuSans-68"/>
      <use x="146.826172" xlink:href="#DejaVuSans-75"/>
      <use x="212.402344" xlink:href="#DejaVuSans-78"/>
      <use x="287.207031" xlink:href="#DejaVuSans-50"/>
      <use x="350.830078" xlink:href="#DejaVuSans-65"/>
     </g>
    </g>
   </g>
   <g id="text_2">
    <g clip-path="url(#p92e8da8576)">
     <!-- PCNA -->
     <g transform="translate(321.075699 238.593397)scale(0.1 -0.1)">
      <defs>
       <path d="M 19.671875 64.796875 
L 19.671875 37.40625 
L 32.078125 37.40625 
Q 38.96875 37.40625 42.71875 40.96875 
Q 46.484375 44.53125 46.484375 51.125 
Q 46.484375 57.671875 42.71875 61.234375 
Q 38.96875 64.796875 32.078125 64.796875 
z
M 9.8125 72.90625 
L 32.078125 72.90625 
Q 44.34375 72.90625 50.609375 67.359375 
Q 56.890625 61.8125 56.890625 51.125 
Q 56.890625 40.328125 50.609375 34.8125 
Q 44.34375 29.296875 32.078125 29.296875 
L 19.671875 29.296875 
L 19.671875 0 
L 9.8125 0 
z
" id="DejaVuSans-80"/>
      </defs>
      <use xlink:href="#DejaVuSans-80"/>
      <use x="60.302734" xlink:href="#DejaVuSans-67"/>
      <use x="130.126953" xlink:href="#DejaVuSans-78"/>
      <use x="204.931641" xlink:href="#DejaVuSans-65"/>
     </g>
    </g>
   </g>
   <g id="text_3">
    <g clip-path="url(#p92e8da8576)">
     <!-- PLK1 -->
     <g transform="translate(465.09353 399.553924)scale(0.1 -0.1)">
      <defs>
       <path d="M 9.8125 72.90625 
L 19.671875 72.90625 
L 19.671875 8.296875 
L 55.171875 8.296875 
L 55.171875 0 
L 9.8125 0 
z
" id="DejaVuSans-76"/>
       <path d="M 12.40625 8.296875 
L 28.515625 8.296875 
L 28.515625 63.921875 
L 10.984375 60.40625 
L 10.984375 69.390625 
L 28.421875 72.90625 
L 38.28125 72.90625 
L 38.28125 8.296875 
L 54.390625 8.296875 
L 54.390625 0 
L 12.40625 0 
z
" id="DejaVuSans-49"/>
      </defs>
      <use xlink:href="#DejaVuSans-80"/>
      <use x="60.302734" xlink:href="#DejaVuSans-76"/>
      <use x="116.015625" xlink:href="#DejaVuSans-75"/>
      <use x="181.591797" xlink:href="#DejaVuSans-49"/>
     </g>
    </g>
   </g>
   <g id="text_4">
    <g clip-path="url(#p92e8da8576)">
     <!-- PRKDC -->
     <g transform="translate(437.984984 283.797896)scale(0.1 -0.1)">
      <defs>
       <path d="M 44.390625 34.1875 
Q 47.5625 33.109375 50.5625 29.59375 
Q 53.5625 26.078125 56.59375 19.921875 
L 66.609375 0 
L 56 0 
L 46.6875 18.703125 
Q 43.0625 26.03125 39.671875 28.421875 
Q 36.28125 30.8125 30.421875 30.8125 
L 19.671875 30.8125 
L 19.671875 0 
L 9.8125 0 
L 9.8125 72.90625 
L 32.078125 72.90625 
Q 44.578125 72.90625 50.734375 67.671875 
Q 56.890625 62.453125 56.890625 51.90625 
Q 56.890625 45.015625 53.6875 40.46875 
Q 50.484375 35.9375 44.390625 34.1875 
z
M 19.671875 64.796875 
L 19.671875 38.921875 
L 32.078125 38.921875 
Q 39.203125 38.921875 42.84375 42.21875 
Q 46.484375 45.515625 46.484375 51.90625 
Q 46.484375 58.296875 42.84375 61.546875 
Q 39.203125 64.796875 32.078125 64.796875 
z
" id="DejaVuSans-82"/>
      </defs>
      <use xlink:href="#DejaVuSans-80"/>
      <use x="60.302734" xlink:href="#DejaVuSans-82"/>
      <use x="129.785156" xlink:href="#DejaVuSans-75"/>
      <use x="195.361328" xlink:href="#DejaVuSans-68"/>
      <use x="272.363281" xlink:href="#DejaVuSans-67"/>
     </g>
    </g>
   </g>
   <g id="text_5">
    <g clip-path="url(#p92e8da8576)">
     <!-- MDM2 -->
     <g transform="translate(93.370841 195.502241)scale(0.1 -0.1)">
      <defs>
       <path d="M 9.8125 72.90625 
L 24.515625 72.90625 
L 43.109375 23.296875 
L 61.8125 72.90625 
L 76.515625 72.90625 
L 76.515625 0 
L 66.890625 0 
L 66.890625 64.015625 
L 48.09375 14.015625 
L 38.1875 14.015625 
L 19.390625 64.015625 
L 19.390625 0 
L 9.8125 0 
z
" id="DejaVuSans-77"/>
      </defs>
      <use xlink:href="#DejaVuSans-77"/>
      <use x="86.279297" xlink:href="#DejaVuSans-68"/>
      <use x="163.28125" xlink:href="#DejaVuSans-77"/>
      <use x="249.560547" xlink:href="#DejaVuSans-50"/>
     </g>
    </g>
   </g>
   <g id="text_6">
    <g clip-path="url(#p92e8da8576)">
     <!-- EP300 -->
     <g transform="translate(99.393648 325.349939)scale(0.1 -0.1)">
      <defs>
       <path d="M 9.8125 72.90625 
L 55.90625 72.90625 
L 55.90625 64.59375 
L 19.671875 64.59375 
L 19.671875 43.015625 
L 54.390625 43.015625 
L 54.390625 34.71875 
L 19.671875 34.71875 
L 19.671875 8.296875 
L 56.78125 8.296875 
L 56.78125 0 
L 9.8125 0 
z
" id="DejaVuSans-69"/>
       <path d="M 40.578125 39.3125 
Q 47.65625 37.796875 51.625 33 
Q 55.609375 28.21875 55.609375 21.1875 
Q 55.609375 10.40625 48.1875 4.484375 
Q 40.765625 -1.421875 27.09375 -1.421875 
Q 22.515625 -1.421875 17.65625 -0.515625 
Q 12.796875 0.390625 7.625 2.203125 
L 7.625 11.71875 
Q 11.71875 9.328125 16.59375 8.109375 
Q 21.484375 6.890625 26.8125 6.890625 
Q 36.078125 6.890625 40.9375 10.546875 
Q 45.796875 14.203125 45.796875 21.1875 
Q 45.796875 27.640625 41.28125 31.265625 
Q 36.765625 34.90625 28.71875 34.90625 
L 20.21875 34.90625 
L 20.21875 43.015625 
L 29.109375 43.015625 
Q 36.375 43.015625 40.234375 45.921875 
Q 44.09375 48.828125 44.09375 54.296875 
Q 44.09375 59.90625 40.109375 62.90625 
Q 36.140625 65.921875 28.71875 65.921875 
Q 24.65625 65.921875 20.015625 65.03125 
Q 15.375 64.15625 9.8125 62.3125 
L 9.8125 71.09375 
Q 15.4375 72.65625 20.34375 73.4375 
Q 25.25 74.21875 29.59375 74.21875 
Q 40.828125 74.21875 47.359375 69.109375 
Q 53.90625 64.015625 53.90625 55.328125 
Q 53.90625 49.265625 50.4375 45.09375 
Q 46.96875 40.921875 40.578125 39.3125 
z
" id="DejaVuSans-51"/>
       <path d="M 31.78125 66.40625 
Q 24.171875 66.40625 20.328125 58.90625 
Q 16.5 51.421875 16.5 36.375 
Q 16.5 21.390625 20.328125 13.890625 
Q 24.171875 6.390625 31.78125 6.390625 
Q 39.453125 6.390625 43.28125 13.890625 
Q 47.125 21.390625 47.125 36.375 
Q 47.125 51.421875 43.28125 58.90625 
Q 39.453125 66.40625 31.78125 66.40625 
z
M 31.78125 74.21875 
Q 44.046875 74.21875 50.515625 64.515625 
Q 56.984375 54.828125 56.984375 36.375 
Q 56.984375 17.96875 50.515625 8.265625 
Q 44.046875 -1.421875 31.78125 -1.421875 
Q 19.53125 -1.421875 13.0625 8.265625 
Q 6.59375 17.96875 6.59375 36.375 
Q 6.59375 54.828125 13.0625 64.515625 
Q 19.53125 74.21875 31.78125 74.21875 
z
" id="DejaVuSans-48"/>
      </defs>
      <use xlink:href="#DejaVuSans-69"/>
      <use x="63.183594" xlink:href="#DejaVuSans-80"/>
      <use x="123.486328" xlink:href="#DejaVuSans-51"/>
      <use x="187.109375" xlink:href="#DejaVuSans-48"/>
      <use x="250.732422" xlink:href="#DejaVuSans-48"/>
     </g>
    </g>
   </g>
   <g id="text_7">
    <g clip-path="url(#p92e8da8576)">
     <!-- SKP2 -->
     <g transform="translate(281.22482 100.893655)scale(0.1 -0.1)">
      <defs>
       <path d="M 53.515625 70.515625 
L 53.515625 60.890625 
Q 47.90625 63.578125 42.921875 64.890625 
Q 37.9375 66.21875 33.296875 66.21875 
Q 25.25 66.21875 20.875 63.09375 
Q 16.5 59.96875 16.5 54.203125 
Q 16.5 49.359375 19.40625 46.890625 
Q 22.3125 44.4375 30.421875 42.921875 
L 36.375 41.703125 
Q 47.40625 39.59375 52.65625 34.296875 
Q 57.90625 29 57.90625 20.125 
Q 57.90625 9.515625 50.796875 4.046875 
Q 43.703125 -1.421875 29.984375 -1.421875 
Q 24.8125 -1.421875 18.96875 -0.25 
Q 13.140625 0.921875 6.890625 3.21875 
L 6.890625 13.375 
Q 12.890625 10.015625 18.65625 8.296875 
Q 24.421875 6.59375 29.984375 6.59375 
Q 38.421875 6.59375 43.015625 9.90625 
Q 47.609375 13.234375 47.609375 19.390625 
Q 47.609375 24.75 44.3125 27.78125 
Q 41.015625 30.8125 33.5 32.328125 
L 27.484375 33.5 
Q 16.453125 35.6875 11.515625 40.375 
Q 6.59375 45.0625 6.59375 53.421875 
Q 6.59375 63.09375 13.40625 68.65625 
Q 20.21875 74.21875 32.171875 74.21875 
Q 37.3125 74.21875 42.625 73.28125 
Q 47.953125 72.359375 53.515625 70.515625 
z
" id="DejaVuSans-83"/>
      </defs>
      <use xlink:href="#DejaVuSans-83"/>
      <use x="63.476562" xlink:href="#DejaVuSans-75"/>
      <use x="129.052734" xlink:href="#DejaVuSans-80"/>
      <use x="189.355469" xlink:href="#DejaVuSans-50"/>
     </g>
    </g>
   </g>
   <g id="text_8">
    <g clip-path="url(#p92e8da8576)">
     <!-- RB1 -->
     <g transform="translate(392.165 341.206952)scale(0.1 -0.1)">
      <defs>
       <path d="M 19.671875 34.8125 
L 19.671875 8.109375 
L 35.5 8.109375 
Q 43.453125 8.109375 47.28125 11.40625 
Q 51.125 14.703125 51.125 21.484375 
Q 51.125 28.328125 47.28125 31.5625 
Q 43.453125 34.8125 35.5 34.8125 
z
M 19.671875 64.796875 
L 19.671875 42.828125 
L 34.28125 42.828125 
Q 41.5 42.828125 45.03125 45.53125 
Q 48.578125 48.25 48.578125 53.8125 
Q 48.578125 59.328125 45.03125 62.0625 
Q 41.5 64.796875 34.28125 64.796875 
z
M 9.8125 72.90625 
L 35.015625 72.90625 
Q 46.296875 72.90625 52.390625 68.21875 
Q 58.5 63.53125 58.5 54.890625 
Q 58.5 48.1875 55.375 44.234375 
Q 52.25 40.28125 46.1875 39.3125 
Q 53.46875 37.75 57.5 32.78125 
Q 61.53125 27.828125 61.53125 20.40625 
Q 61.53125 10.640625 54.890625 5.3125 
Q 48.25 0 35.984375 0 
L 9.8125 0 
z
" id="DejaVuSans-66"/>
      </defs>
      <use xlink:href="#DejaVuSans-82"/>
      <use x="69.482422" xlink:href="#DejaVuSans-66"/>
      <use x="138.085938" xlink:href="#DejaVuSans-49"/>
     </g>
    </g>
   </g>
   <g id="text_9">
    <g clip-path="url(#p92e8da8576)">
     <!-- TP53 -->
     <g transform="translate(131.908385 101.961949)scale(0.1 -0.1)">
      <defs>
       <path d="M -0.296875 72.90625 
L 61.375 72.90625 
L 61.375 64.59375 
L 35.5 64.59375 
L 35.5 0 
L 25.59375 0 
L 25.59375 64.59375 
L -0.296875 64.59375 
z
" id="DejaVuSans-84"/>
       <path d="M 10.796875 72.90625 
L 49.515625 72.90625 
L 49.515625 64.59375 
L 19.828125 64.59375 
L 19.828125 46.734375 
Q 21.96875 47.46875 24.109375 47.828125 
Q 26.265625 48.1875 28.421875 48.1875 
Q 40.625 48.1875 47.75 41.5 
Q 54.890625 34.8125 54.890625 23.390625 
Q 54.890625 11.625 47.5625 5.09375 
Q 40.234375 -1.421875 26.90625 -1.421875 
Q 22.3125 -1.421875 17.546875 -0.640625 
Q 12.796875 0.140625 7.71875 1.703125 
L 7.71875 11.625 
Q 12.109375 9.234375 16.796875 8.0625 
Q 21.484375 6.890625 26.703125 6.890625 
Q 35.15625 6.890625 40.078125 11.328125 
Q 45.015625 15.765625 45.015625 23.390625 
Q 45.015625 31 40.078125 35.4375 
Q 35.15625 39.890625 26.703125 39.890625 
Q 22.75 39.890625 18.8125 39.015625 
Q 14.890625 38.140625 10.796875 36.28125 
z
" id="DejaVuSans-53"/>
      </defs>
      <use xlink:href="#DejaVuSans-84"/>
      <use x="61.083984" xlink:href="#DejaVuSans-80"/>
      <use x="121.386719" xlink:href="#DejaVuSans-53"/>
      <use x="185.009766" xlink:href="#DejaVuSans-51"/>
     </g>
    </g>
   </g>
   <g id="text_10">
    <g clip-path="url(#p92e8da8576)">
     <!-- SMAD4 -->
     <g transform="translate(563.444432 130.003276)scale(0.1 -0.1)">
      <defs>
       <path d="M 37.796875 64.3125 
L 12.890625 25.390625 
L 37.796875 25.390625 
z
M 35.203125 72.90625 
L 47.609375 72.90625 
L 47.609375 25.390625 
L 58.015625 25.390625 
L 58.015625 17.1875 
L 47.609375 17.1875 
L 47.609375 0 
L 37.796875 0 
L 37.796875 17.1875 
L 4.890625 17.1875 
L 4.890625 26.703125 
z
" id="DejaVuSans-52"/>
      </defs>
      <use xlink:href="#DejaVuSans-83"/>
      <use x="63.476562" xlink:href="#DejaVuSans-77"/>
      <use x="149.755859" xlink:href="#DejaVuSans-65"/>
      <use x="218.164062" xlink:href="#DejaVuSans-68"/>
      <use x="295.166016" xlink:href="#DejaVuSans-52"/>
     </g>
    </g>
   </g>
   <g id="text_11">
    <g clip-path="url(#p92e8da8576)">
     <!-- GSK3B -->
     <g transform="translate(241.866367 345.515994)scale(0.1 -0.1)">
      <defs>
       <path d="M 59.515625 10.40625 
L 59.515625 29.984375 
L 43.40625 29.984375 
L 43.40625 38.09375 
L 69.28125 38.09375 
L 69.28125 6.78125 
Q 63.578125 2.734375 56.6875 0.65625 
Q 49.8125 -1.421875 42 -1.421875 
Q 24.90625 -1.421875 15.25 8.5625 
Q 5.609375 18.5625 5.609375 36.375 
Q 5.609375 54.25 15.25 64.234375 
Q 24.90625 74.21875 42 74.21875 
Q 49.125 74.21875 55.546875 72.453125 
Q 61.96875 70.703125 67.390625 67.28125 
L 67.390625 56.78125 
Q 61.921875 61.421875 55.765625 63.765625 
Q 49.609375 66.109375 42.828125 66.109375 
Q 29.4375 66.109375 22.71875 58.640625 
Q 16.015625 51.171875 16.015625 36.375 
Q 16.015625 21.625 22.71875 14.15625 
Q 29.4375 6.6875 42.828125 6.6875 
Q 48.046875 6.6875 52.140625 7.59375 
Q 56.25 8.5 59.515625 10.40625 
z
" id="DejaVuSans-71"/>
      </defs>
      <use xlink:href="#DejaVuSans-71"/>
      <use x="77.490234" xlink:href="#DejaVuSans-83"/>
      <use x="140.966797" xlink:href="#DejaVuSans-75"/>
      <use x="206.542969" xlink:href="#DejaVuSans-51"/>
      <use x="270.166016" xlink:href="#DejaVuSans-66"/>
     </g>
    </g>
   </g>
   <g id="text_12">
    <g clip-path="url(#p92e8da8576)">
     <!-- CDK7 -->
     <g transform="translate(599.069083 214.284917)scale(0.1 -0.1)">
      <defs>
       <path d="M 8.203125 72.90625 
L 55.078125 72.90625 
L 55.078125 68.703125 
L 28.609375 0 
L 18.3125 0 
L 43.21875 64.59375 
L 8.203125 64.59375 
z
" id="DejaVuSans-55"/>
      </defs>
      <use xlink:href="#DejaVuSans-67"/>
      <use x="69.824219" xlink:href="#DejaVuSans-68"/>
      <use x="146.826172" xlink:href="#DejaVuSans-75"/>
      <use x="212.402344" xlink:href="#DejaVuSans-55"/>
     </g>
    </g>
   </g>
   <g id="text_13">
    <g clip-path="url(#p92e8da8576)">
     <!-- CDK2 -->
     <g transform="translate(523.682273 260.758823)scale(0.1 -0.1)">
      <use xlink:href="#DejaVuSans-67"/>
      <use x="69.824219" xlink:href="#DejaVuSans-68"/>
      <use x="146.826172" xlink:href="#DejaVuSans-75"/>
      <use x="212.402344" xlink:href="#DejaVuSans-50"/>
     </g>
    </g>
   </g>
   <g id="text_14">
    <g clip-path="url(#p92e8da8576)">
     <!-- CCNH -->
     <g transform="translate(447.467482 417.728233)scale(0.1 -0.1)">
      <defs>
       <path d="M 9.8125 72.90625 
L 19.671875 72.90625 
L 19.671875 43.015625 
L 55.515625 43.015625 
L 55.515625 72.90625 
L 65.375 72.90625 
L 65.375 0 
L 55.515625 0 
L 55.515625 34.71875 
L 19.671875 34.71875 
L 19.671875 0 
L 9.8125 0 
z
" id="DejaVuSans-72"/>
      </defs>
      <use xlink:href="#DejaVuSans-67"/>
      <use x="69.824219" xlink:href="#DejaVuSans-67"/>
      <use x="139.648438" xlink:href="#DejaVuSans-78"/>
      <use x="214.453125" xlink:href="#DejaVuSans-72"/>
     </g>
    </g>
   </g>
   <g id="text_15">
    <g clip-path="url(#p92e8da8576)">
     <!-- CDKN2C -->
     <g transform="translate(298.035199 156.761961)scale(0.1 -0.1)">
      <use xlink:href="#DejaVuSans-67"/>
      <use x="69.824219" xlink:href="#DejaVuSans-68"/>
      <use x="146.826172" xlink:href="#DejaVuSans-75"/>
      <use x="212.402344" xlink:href="#DejaVuSans-78"/>
      <use x="287.207031" xlink:href="#DejaVuSans-50"/>
      <use x="350.830078" xlink:href="#DejaVuSans-67"/>
     </g>
    </g>
   </g>
   <g id="text_16">
    <g clip-path="url(#p92e8da8576)">
     <!-- CDKN2D -->
     <g transform="translate(349.296856 177.895456)scale(0.1 -0.1)">
      <use xlink:href="#DejaVuSans-67"/>
      <use x="69.824219" xlink:href="#DejaVuSans-68"/>
      <use x="146.826172" xlink:href="#DejaVuSans-75"/>
      <use x="212.402344" xlink:href="#DejaVuSans-78"/>
      <use x="287.207031" xlink:href="#DejaVuSans-50"/>
      <use x="350.830078" xlink:href="#DejaVuSans-68"/>
     </g>
    </g>
   </g>
   <g id="text_17">
    <g clip-path="url(#p92e8da8576)">
     <!-- RBL1 -->
     <g transform="translate(291.381318 381.146065)scale(0.1 -0.1)">
      <use xlink:href="#DejaVuSans-82"/>
      <use x="69.482422" xlink:href="#DejaVuSans-66"/>
      <use x="138.085938" xlink:href="#DejaVuSans-76"/>
      <use x="193.798828" xlink:href="#DejaVuSans-49"/>
     </g>
    </g>
   </g>
   <g id="text_18">
    <g clip-path="url(#p92e8da8576)">
     <!-- MYC -->
     <g transform="translate(438.57655 225.842061)scale(0.1 -0.1)">
      <defs>
       <path d="M -0.203125 72.90625 
L 10.40625 72.90625 
L 30.609375 42.921875 
L 50.6875 72.90625 
L 61.28125 72.90625 
L 35.5 34.71875 
L 35.5 0 
L 25.59375 0 
L 25.59375 34.71875 
z
" id="DejaVuSans-89"/>
      </defs>
      <use xlink:href="#DejaVuSans-77"/>
      <use x="86.279297" xlink:href="#DejaVuSans-89"/>
      <use x="141.863281" xlink:href="#DejaVuSans-67"/>
     </g>
    </g>
   </g>
   <g id="text_19">
    <g clip-path="url(#p92e8da8576)">
     <!-- ZBTB17 -->
     <g transform="translate(231.155363 63.564773)scale(0.1 -0.1)">
      <defs>
       <path d="M 5.609375 72.90625 
L 62.890625 72.90625 
L 62.890625 65.375 
L 16.796875 8.296875 
L 64.015625 8.296875 
L 64.015625 0 
L 4.5 0 
L 4.5 7.515625 
L 50.59375 64.59375 
L 5.609375 64.59375 
z
" id="DejaVuSans-90"/>
      </defs>
      <use xlink:href="#DejaVuSans-90"/>
      <use x="68.505859" xlink:href="#DejaVuSans-66"/>
      <use x="137.109375" xlink:href="#DejaVuSans-84"/>
      <use x="198.193359" xlink:href="#DejaVuSans-66"/>
      <use x="266.796875" xlink:href="#DejaVuSans-49"/>
      <use x="330.419922" xlink:href="#DejaVuSans-55"/>
     </g>
    </g>
   </g>
   <g id="text_20">
    <g clip-path="url(#p92e8da8576)">
     <!-- ABL1 -->
     <g transform="translate(569.460899 271.905217)scale(0.1 -0.1)">
      <use xlink:href="#DejaVuSans-65"/>
      <use x="68.408203" xlink:href="#DejaVuSans-66"/>
      <use x="137.011719" xlink:href="#DejaVuSans-76"/>
      <use x="192.724609" xlink:href="#DejaVuSans-49"/>
     </g>
    </g>
   </g>
   <g id="text_21">
    <g clip-path="url(#p92e8da8576)">
     <!-- SKP1 -->
     <g transform="translate(389.912869 74.515371)scale(0.1 -0.1)">
      <use xlink:href="#DejaVuSans-83"/>
      <use x="63.476562" xlink:href="#DejaVuSans-75"/>
      <use x="129.052734" xlink:href="#DejaVuSans-80"/>
      <use x="189.355469" xlink:href="#DejaVuSans-49"/>
     </g>
    </g>
   </g>
   <g id="text_22">
    <g clip-path="url(#p92e8da8576)">
     <!-- CUL1 -->
     <g transform="translate(190.796539 254.418282)scale(0.1 -0.1)">
      <defs>
       <path d="M 8.6875 72.90625 
L 18.609375 72.90625 
L 18.609375 28.609375 
Q 18.609375 16.890625 22.84375 11.734375 
Q 27.09375 6.59375 36.625 6.59375 
Q 46.09375 6.59375 50.34375 11.734375 
Q 54.59375 16.890625 54.59375 28.609375 
L 54.59375 72.90625 
L 64.5 72.90625 
L 64.5 27.390625 
Q 64.5 13.140625 57.4375 5.859375 
Q 50.390625 -1.421875 36.625 -1.421875 
Q 22.796875 -1.421875 15.734375 5.859375 
Q 8.6875 13.140625 8.6875 27.390625 
z
" id="DejaVuSans-85"/>
      </defs>
      <use xlink:href="#DejaVuSans-67"/>
      <use x="69.824219" xlink:href="#DejaVuSans-85"/>
      <use x="143.017578" xlink:href="#DejaVuSans-76"/>
      <use x="198.730469" xlink:href="#DejaVuSans-49"/>
     </g>
    </g>
   </g>
   <g id="text_23">
    <g clip-path="url(#p92e8da8576)">
     <!-- RBX1 -->
     <g transform="translate(262.420348 203.642472)scale(0.1 -0.1)">
      <defs>
       <path d="M 6.296875 72.90625 
L 16.890625 72.90625 
L 35.015625 45.796875 
L 53.21875 72.90625 
L 63.8125 72.90625 
L 40.375 37.890625 
L 65.375 0 
L 54.78125 0 
L 34.28125 31 
L 13.625 0 
L 2.984375 0 
L 29 38.921875 
z
" id="DejaVuSans-88"/>
      </defs>
      <use xlink:href="#DejaVuSans-82"/>
      <use x="69.482422" xlink:href="#DejaVuSans-66"/>
      <use x="138.085938" xlink:href="#DejaVuSans-88"/>
      <use x="206.591797" xlink:href="#DejaVuSans-49"/>
     </g>
    </g>
   </g>
   <g id="text_24">
    <g clip-path="url(#p92e8da8576)">
     <!-- ATM -->
     <g transform="translate(69.66683 311.525636)scale(0.1 -0.1)">
      <use xlink:href="#DejaVuSans-65"/>
      <use x="60.658203" xlink:href="#DejaVuSans-84"/>
      <use x="121.742188" xlink:href="#DejaVuSans-77"/>
     </g>
    </g>
   </g>
   <g id="text_25">
    <g clip-path="url(#p92e8da8576)">
     <!-- ATR -->
     <g transform="translate(55.744848 241.175267)scale(0.1 -0.1)">
      <use xlink:href="#DejaVuSans-65"/>
      <use x="60.658203" xlink:href="#DejaVuSans-84"/>
      <use x="121.742188" xlink:href="#DejaVuSans-82"/>
     </g>
    </g>
   </g>
   <g id="text_26">
    <g clip-path="url(#p92e8da8576)">
     <!-- YWHAE -->
     <g transform="translate(392.39264 260.837776)scale(0.1 -0.1)">
      <defs>
       <path d="M 3.328125 72.90625 
L 13.28125 72.90625 
L 28.609375 11.28125 
L 43.890625 72.90625 
L 54.984375 72.90625 
L 70.3125 11.28125 
L 85.59375 72.90625 
L 95.609375 72.90625 
L 77.296875 0 
L 64.890625 0 
L 49.515625 63.28125 
L 33.984375 0 
L 21.578125 0 
z
" id="DejaVuSans-87"/>
      </defs>
      <use xlink:href="#DejaVuSans-89"/>
      <use x="61.083984" xlink:href="#DejaVuSans-87"/>
      <use x="159.960938" xlink:href="#DejaVuSans-72"/>
      <use x="235.15625" xlink:href="#DejaVuSans-65"/>
      <use x="303.564453" xlink:href="#DejaVuSans-69"/>
     </g>
    </g>
   </g>
   <g id="text_27">
    <g clip-path="url(#p92e8da8576)">
     <!-- CHEK1 -->
     <g transform="translate(156.424309 240.703785)scale(0.1 -0.1)">
      <use xlink:href="#DejaVuSans-67"/>
      <use x="69.824219" xlink:href="#DejaVuSans-72"/>
      <use x="145.019531" xlink:href="#DejaVuSans-69"/>
      <use x="208.203125" xlink:href="#DejaVuSans-75"/>
      <use x="273.779297" xlink:href="#DejaVuSans-49"/>
     </g>
    </g>
   </g>
   <g id="text_28">
    <g clip-path="url(#p92e8da8576)">
     <!-- CHEK2 -->
     <g transform="translate(188.724471 338.536724)scale(0.1 -0.1)">
      <use xlink:href="#DejaVuSans-67"/>
      <use x="69.824219" xlink:href="#DejaVuSans-72"/>
      <use x="145.019531" xlink:href="#DejaVuSans-69"/>
      <use x="208.203125" xlink:href="#DejaVuSans-75"/>
      <use x="273.779297" xlink:href="#DejaVuSans-50"/>
     </g>
    </g>
   </g>
   <g id="text_29">
    <g clip-path="url(#p92e8da8576)">
     <!-- CDKN1B -->
     <g transform="translate(308.642087 195.888559)scale(0.1 -0.1)">
      <use xlink:href="#DejaVuSans-67"/>
      <use x="69.824219" xlink:href="#DejaVuSans-68"/>
      <use x="146.826172" xlink:href="#DejaVuSans-75"/>
      <use x="212.402344" xlink:href="#DejaVuSans-78"/>
      <use x="287.207031" xlink:href="#DejaVuSans-49"/>
      <use x="350.830078" xlink:href="#DejaVuSans-66"/>
     </g>
    </g>
   </g>
   <g id="text_30">
    <g clip-path="url(#p92e8da8576)">
     <!-- TGFB1 -->
     <g transform="translate(416.768215 75.280517)scale(0.1 -0.1)">
      <defs>
       <path d="M 9.8125 72.90625 
L 51.703125 72.90625 
L 51.703125 64.59375 
L 19.671875 64.59375 
L 19.671875 43.109375 
L 48.578125 43.109375 
L 48.578125 34.8125 
L 19.671875 34.8125 
L 19.671875 0 
L 9.8125 0 
z
" id="DejaVuSans-70"/>
      </defs>
      <use xlink:href="#DejaVuSans-84"/>
      <use x="61.083984" xlink:href="#DejaVuSans-71"/>
      <use x="138.574219" xlink:href="#DejaVuSans-70"/>
      <use x="196.09375" xlink:href="#DejaVuSans-66"/>
      <use x="264.697266" xlink:href="#DejaVuSans-49"/>
     </g>
    </g>
   </g>
   <g id="text_31">
    <g clip-path="url(#p92e8da8576)">
     <!-- TGFB3 -->
     <g transform="translate(465.392473 240.915863)scale(0.1 -0.1)">
      <use xlink:href="#DejaVuSans-84"/>
      <use x="61.083984" xlink:href="#DejaVuSans-71"/>
      <use x="138.574219" xlink:href="#DejaVuSans-70"/>
      <use x="196.09375" xlink:href="#DejaVuSans-66"/>
      <use x="264.697266" xlink:href="#DejaVuSans-51"/>
     </g>
    </g>
   </g>
   <g id="text_32">
    <g clip-path="url(#p92e8da8576)">
     <!-- SMAD2 -->
     <g transform="translate(121.514584 125.643983)scale(0.1 -0.1)">
      <use xlink:href="#DejaVuSans-83"/>
      <use x="63.476562" xlink:href="#DejaVuSans-77"/>
      <use x="149.755859" xlink:href="#DejaVuSans-65"/>
      <use x="218.164062" xlink:href="#DejaVuSans-68"/>
      <use x="295.166016" xlink:href="#DejaVuSans-50"/>
     </g>
    </g>
   </g>
   <g id="text_33">
    <g clip-path="url(#p92e8da8576)">
     <!-- SMAD3 -->
     <g transform="translate(583.360151 168.049836)scale(0.1 -0.1)">
      <use xlink:href="#DejaVuSans-83"/>
      <use x="63.476562" xlink:href="#DejaVuSans-77"/>
      <use x="149.755859" xlink:href="#DejaVuSans-65"/>
      <use x="218.164062" xlink:href="#DejaVuSans-68"/>
      <use x="295.166016" xlink:href="#DejaVuSans-51"/>
     </g>
    </g>
   </g>
   <g id="text_34">
    <g clip-path="url(#p92e8da8576)">
     <!-- CDC25B -->
     <g transform="translate(506.674397 393.851659)scale(0.1 -0.1)">
      <use xlink:href="#DejaVuSans-67"/>
      <use x="69.824219" xlink:href="#DejaVuSans-68"/>
      <use x="146.826172" xlink:href="#DejaVuSans-67"/>
      <use x="216.650391" xlink:href="#DejaVuSans-50"/>
      <use x="280.273438" xlink:href="#DejaVuSans-53"/>
      <use x="343.896484" xlink:href="#DejaVuSans-66"/>
     </g>
    </g>
   </g>
   <g id="text_35">
    <g clip-path="url(#p92e8da8576)">
     <!-- CCNB1 -->
     <g transform="translate(601.359059 292.297522)scale(0.1 -0.1)">
      <use xlink:href="#DejaVuSans-67"/>
      <use x="69.824219" xlink:href="#DejaVuSans-67"/>
      <use x="139.648438" xlink:href="#DejaVuSans-78"/>
      <use x="214.453125" xlink:href="#DejaVuSans-66"/>
      <use x="283.056641" xlink:href="#DejaVuSans-49"/>
     </g>
    </g>
   </g>
   <g id="text_36">
    <g clip-path="url(#p92e8da8576)">
     <!-- CDK4 -->
     <g transform="translate(411.967714 235.415952)scale(0.1 -0.1)">
      <use xlink:href="#DejaVuSans-67"/>
      <use x="69.824219" xlink:href="#DejaVuSans-68"/>
      <use x="146.826172" xlink:href="#DejaVuSans-75"/>
      <use x="212.402344" xlink:href="#DejaVuSans-52"/>
     </g>
    </g>
   </g>
   <g id="text_37">
    <g clip-path="url(#p92e8da8576)">
     <!-- CDK6 -->
     <g transform="translate(277.272665 325.627925)scale(0.1 -0.1)">
      <defs>
       <path d="M 33.015625 40.375 
Q 26.375 40.375 22.484375 35.828125 
Q 18.609375 31.296875 18.609375 23.390625 
Q 18.609375 15.53125 22.484375 10.953125 
Q 26.375 6.390625 33.015625 6.390625 
Q 39.65625 6.390625 43.53125 10.953125 
Q 47.40625 15.53125 47.40625 23.390625 
Q 47.40625 31.296875 43.53125 35.828125 
Q 39.65625 40.375 33.015625 40.375 
z
M 52.59375 71.296875 
L 52.59375 62.3125 
Q 48.875 64.0625 45.09375 64.984375 
Q 41.3125 65.921875 37.59375 65.921875 
Q 27.828125 65.921875 22.671875 59.328125 
Q 17.53125 52.734375 16.796875 39.40625 
Q 19.671875 43.65625 24.015625 45.921875 
Q 28.375 48.1875 33.59375 48.1875 
Q 44.578125 48.1875 50.953125 41.515625 
Q 57.328125 34.859375 57.328125 23.390625 
Q 57.328125 12.15625 50.6875 5.359375 
Q 44.046875 -1.421875 33.015625 -1.421875 
Q 20.359375 -1.421875 13.671875 8.265625 
Q 6.984375 17.96875 6.984375 36.375 
Q 6.984375 53.65625 15.1875 63.9375 
Q 23.390625 74.21875 37.203125 74.21875 
Q 40.921875 74.21875 44.703125 73.484375 
Q 48.484375 72.75 52.59375 71.296875 
z
" id="DejaVuSans-54"/>
      </defs>
      <use xlink:href="#DejaVuSans-67"/>
      <use x="69.824219" xlink:href="#DejaVuSans-68"/>
      <use x="146.826172" xlink:href="#DejaVuSans-75"/>
      <use x="212.402344" xlink:href="#DejaVuSans-54"/>
     </g>
    </g>
   </g>
   <g id="text_38">
    <g clip-path="url(#p92e8da8576)">
     <!-- CCND1 -->
     <g transform="translate(293.323194 230.777489)scale(0.1 -0.1)">
      <use xlink:href="#DejaVuSans-67"/>
      <use x="69.824219" xlink:href="#DejaVuSans-67"/>
      <use x="139.648438" xlink:href="#DejaVuSans-78"/>
      <use x="214.453125" xlink:href="#DejaVuSans-68"/>
      <use x="291.455078" xlink:href="#DejaVuSans-49"/>
     </g>
    </g>
   </g>
   <g id="text_39">
    <g clip-path="url(#p92e8da8576)">
     <!-- CCND2 -->
     <g transform="translate(362.867258 233.164007)scale(0.1 -0.1)">
      <use xlink:href="#DejaVuSans-67"/>
      <use x="69.824219" xlink:href="#DejaVuSans-67"/>
      <use x="139.648438" xlink:href="#DejaVuSans-78"/>
      <use x="214.453125" xlink:href="#DejaVuSans-68"/>
      <use x="291.455078" xlink:href="#DejaVuSans-50"/>
     </g>
    </g>
   </g>
   <g id="text_40">
    <g clip-path="url(#p92e8da8576)">
     <!-- CCND3 -->
     <g transform="translate(182.33135 317.610667)scale(0.1 -0.1)">
      <use xlink:href="#DejaVuSans-67"/>
      <use x="69.824219" xlink:href="#DejaVuSans-67"/>
      <use x="139.648438" xlink:href="#DejaVuSans-78"/>
      <use x="214.453125" xlink:href="#DejaVuSans-68"/>
      <use x="291.455078" xlink:href="#DejaVuSans-51"/>
     </g>
    </g>
   </g>
   <g id="text_41">
    <g clip-path="url(#p92e8da8576)">
     <!-- TFDP1 -->
     <g transform="translate(225.130925 406.959257)scale(0.1 -0.1)">
      <use xlink:href="#DejaVuSans-84"/>
      <use x="61.083984" xlink:href="#DejaVuSans-70"/>
      <use x="118.603516" xlink:href="#DejaVuSans-68"/>
      <use x="195.605469" xlink:href="#DejaVuSans-80"/>
      <use x="255.908203" xlink:href="#DejaVuSans-49"/>
     </g>
    </g>
   </g>
   <g id="text_42">
    <g clip-path="url(#p92e8da8576)">
     <!-- TFDP2 -->
     <g transform="translate(100.933841 286.996854)scale(0.1 -0.1)">
      <use xlink:href="#DejaVuSans-84"/>
      <use x="61.083984" xlink:href="#DejaVuSans-70"/>
      <use x="118.603516" xlink:href="#DejaVuSans-68"/>
      <use x="195.605469" xlink:href="#DejaVuSans-80"/>
      <use x="255.908203" xlink:href="#DejaVuSans-50"/>
     </g>
    </g>
   </g>
   <g id="text_43">
    <g clip-path="url(#p92e8da8576)">
     <!-- E2F3 -->
     <g transform="translate(267.873924 425.648989)scale(0.1 -0.1)">
      <use xlink:href="#DejaVuSans-69"/>
      <use x="63.183594" xlink:href="#DejaVuSans-50"/>
      <use x="126.806641" xlink:href="#DejaVuSans-70"/>
      <use x="184.326172" xlink:href="#DejaVuSans-51"/>
     </g>
    </g>
   </g>
   <g id="text_44">
    <g clip-path="url(#p92e8da8576)">
     <!-- RBL2 -->
     <g transform="translate(305.765049 430.110227)scale(0.1 -0.1)">
      <use xlink:href="#DejaVuSans-82"/>
      <use x="69.482422" xlink:href="#DejaVuSans-66"/>
      <use x="138.085938" xlink:href="#DejaVuSans-76"/>
      <use x="193.798828" xlink:href="#DejaVuSans-50"/>
     </g>
    </g>
   </g>
   <g id="text_45">
    <!-- Importance Score for Each Node in the Network -->
    <g transform="translate(198.616875 16.318125)scale(0.12 -0.12)">
     <defs>
      <path d="M 9.8125 72.90625 
L 19.671875 72.90625 
L 19.671875 0 
L 9.8125 0 
z
" id="DejaVuSans-73"/>
      <path d="M 52 44.1875 
Q 55.375 50.25 60.0625 53.125 
Q 64.75 56 71.09375 56 
Q 79.640625 56 84.28125 50.015625 
Q 88.921875 44.046875 88.921875 33.015625 
L 88.921875 0 
L 79.890625 0 
L 79.890625 32.71875 
Q 79.890625 40.578125 77.09375 44.375 
Q 74.3125 48.1875 68.609375 48.1875 
Q 61.625 48.1875 57.5625 43.546875 
Q 53.515625 38.921875 53.515625 30.90625 
L 53.515625 0 
L 44.484375 0 
L 44.484375 32.71875 
Q 44.484375 40.625 41.703125 44.40625 
Q 38.921875 48.1875 33.109375 48.1875 
Q 26.21875 48.1875 22.15625 43.53125 
Q 18.109375 38.875 18.109375 30.90625 
L 18.109375 0 
L 9.078125 0 
L 9.078125 54.6875 
L 18.109375 54.6875 
L 18.109375 46.1875 
Q 21.1875 51.21875 25.484375 53.609375 
Q 29.78125 56 35.6875 56 
Q 41.65625 56 45.828125 52.96875 
Q 50 49.953125 52 44.1875 
z
" id="DejaVuSans-109"/>
      <path d="M 18.109375 8.203125 
L 18.109375 -20.796875 
L 9.078125 -20.796875 
L 9.078125 54.6875 
L 18.109375 54.6875 
L 18.109375 46.390625 
Q 20.953125 51.265625 25.265625 53.625 
Q 29.59375 56 35.59375 56 
Q 45.5625 56 51.78125 48.09375 
Q 58.015625 40.1875 58.015625 27.296875 
Q 58.015625 14.40625 51.78125 6.484375 
Q 45.5625 -1.421875 35.59375 -1.421875 
Q 29.59375 -1.421875 25.265625 0.953125 
Q 20.953125 3.328125 18.109375 8.203125 
z
M 48.6875 27.296875 
Q 48.6875 37.203125 44.609375 42.84375 
Q 40.53125 48.484375 33.40625 48.484375 
Q 26.265625 48.484375 22.1875 42.84375 
Q 18.109375 37.203125 18.109375 27.296875 
Q 18.109375 17.390625 22.1875 11.75 
Q 26.265625 6.109375 33.40625 6.109375 
Q 40.53125 6.109375 44.609375 11.75 
Q 48.6875 17.390625 48.6875 27.296875 
z
" id="DejaVuSans-112"/>
      <path d="M 30.609375 48.390625 
Q 23.390625 48.390625 19.1875 42.75 
Q 14.984375 37.109375 14.984375 27.296875 
Q 14.984375 17.484375 19.15625 11.84375 
Q 23.34375 6.203125 30.609375 6.203125 
Q 37.796875 6.203125 41.984375 11.859375 
Q 46.1875 17.53125 46.1875 27.296875 
Q 46.1875 37.015625 41.984375 42.703125 
Q 37.796875 48.390625 30.609375 48.390625 
z
M 30.609375 56 
Q 42.328125 56 49.015625 48.375 
Q 55.71875 40.765625 55.71875 27.296875 
Q 55.71875 13.875 49.015625 6.21875 
Q 42.328125 -1.421875 30.609375 -1.421875 
Q 18.84375 -1.421875 12.171875 6.21875 
Q 5.515625 13.875 5.515625 27.296875 
Q 5.515625 40.765625 12.171875 48.375 
Q 18.84375 56 30.609375 56 
z
" id="DejaVuSans-111"/>
      <path d="M 41.109375 46.296875 
Q 39.59375 47.171875 37.8125 47.578125 
Q 36.03125 48 33.890625 48 
Q 26.265625 48 22.1875 43.046875 
Q 18.109375 38.09375 18.109375 28.8125 
L 18.109375 0 
L 9.078125 0 
L 9.078125 54.6875 
L 18.109375 54.6875 
L 18.109375 46.1875 
Q 20.953125 51.171875 25.484375 53.578125 
Q 30.03125 56 36.53125 56 
Q 37.453125 56 38.578125 55.875 
Q 39.703125 55.765625 41.0625 55.515625 
z
" id="DejaVuSans-114"/>
      <path d="M 18.3125 70.21875 
L 18.3125 54.6875 
L 36.8125 54.6875 
L 36.8125 47.703125 
L 18.3125 47.703125 
L 18.3125 18.015625 
Q 18.3125 11.328125 20.140625 9.421875 
Q 21.96875 7.515625 27.59375 7.515625 
L 36.8125 7.515625 
L 36.8125 0 
L 27.59375 0 
Q 17.1875 0 13.234375 3.875 
Q 9.28125 7.765625 9.28125 18.015625 
L 9.28125 47.703125 
L 2.6875 47.703125 
L 2.6875 54.6875 
L 9.28125 54.6875 
L 9.28125 70.21875 
z
" id="DejaVuSans-116"/>
      <path d="M 34.28125 27.484375 
Q 23.390625 27.484375 19.1875 25 
Q 14.984375 22.515625 14.984375 16.5 
Q 14.984375 11.71875 18.140625 8.90625 
Q 21.296875 6.109375 26.703125 6.109375 
Q 34.1875 6.109375 38.703125 11.40625 
Q 43.21875 16.703125 43.21875 25.484375 
L 43.21875 27.484375 
z
M 52.203125 31.203125 
L 52.203125 0 
L 43.21875 0 
L 43.21875 8.296875 
Q 40.140625 3.328125 35.546875 0.953125 
Q 30.953125 -1.421875 24.3125 -1.421875 
Q 15.921875 -1.421875 10.953125 3.296875 
Q 6 8.015625 6 15.921875 
Q 6 25.140625 12.171875 29.828125 
Q 18.359375 34.515625 30.609375 34.515625 
L 43.21875 34.515625 
L 43.21875 35.40625 
Q 43.21875 41.609375 39.140625 45 
Q 35.0625 48.390625 27.6875 48.390625 
Q 23 48.390625 18.546875 47.265625 
Q 14.109375 46.140625 10.015625 43.890625 
L 10.015625 52.203125 
Q 14.9375 54.109375 19.578125 55.046875 
Q 24.21875 56 28.609375 56 
Q 40.484375 56 46.34375 49.84375 
Q 52.203125 43.703125 52.203125 31.203125 
z
" id="DejaVuSans-97"/>
      <path d="M 54.890625 33.015625 
L 54.890625 0 
L 45.90625 0 
L 45.90625 32.71875 
Q 45.90625 40.484375 42.875 44.328125 
Q 39.84375 48.1875 33.796875 48.1875 
Q 26.515625 48.1875 22.3125 43.546875 
Q 18.109375 38.921875 18.109375 30.90625 
L 18.109375 0 
L 9.078125 0 
L 9.078125 54.6875 
L 18.109375 54.6875 
L 18.109375 46.1875 
Q 21.34375 51.125 25.703125 53.5625 
Q 30.078125 56 35.796875 56 
Q 45.21875 56 50.046875 50.171875 
Q 54.890625 44.34375 54.890625 33.015625 
z
" id="DejaVuSans-110"/>
      <path d="M 48.78125 52.59375 
L 48.78125 44.1875 
Q 44.96875 46.296875 41.140625 47.34375 
Q 37.3125 48.390625 33.40625 48.390625 
Q 24.65625 48.390625 19.8125 42.84375 
Q 14.984375 37.3125 14.984375 27.296875 
Q 14.984375 17.28125 19.8125 11.734375 
Q 24.65625 6.203125 33.40625 6.203125 
Q 37.3125 6.203125 41.140625 7.25 
Q 44.96875 8.296875 48.78125 10.40625 
L 48.78125 2.09375 
Q 45.015625 0.34375 40.984375 -0.53125 
Q 36.96875 -1.421875 32.421875 -1.421875 
Q 20.0625 -1.421875 12.78125 6.34375 
Q 5.515625 14.109375 5.515625 27.296875 
Q 5.515625 40.671875 12.859375 48.328125 
Q 20.21875 56 33.015625 56 
Q 37.15625 56 41.109375 55.140625 
Q 45.0625 54.296875 48.78125 52.59375 
z
" id="DejaVuSans-99"/>
      <path d="M 56.203125 29.59375 
L 56.203125 25.203125 
L 14.890625 25.203125 
Q 15.484375 15.921875 20.484375 11.0625 
Q 25.484375 6.203125 34.421875 6.203125 
Q 39.59375 6.203125 44.453125 7.46875 
Q 49.3125 8.734375 54.109375 11.28125 
L 54.109375 2.78125 
Q 49.265625 0.734375 44.1875 -0.34375 
Q 39.109375 -1.421875 33.890625 -1.421875 
Q 20.796875 -1.421875 13.15625 6.1875 
Q 5.515625 13.8125 5.515625 26.8125 
Q 5.515625 40.234375 12.765625 48.109375 
Q 20.015625 56 32.328125 56 
Q 43.359375 56 49.78125 48.890625 
Q 56.203125 41.796875 56.203125 29.59375 
z
M 47.21875 32.234375 
Q 47.125 39.59375 43.09375 43.984375 
Q 39.0625 48.390625 32.421875 48.390625 
Q 24.90625 48.390625 20.390625 44.140625 
Q 15.875 39.890625 15.1875 32.171875 
z
" id="DejaVuSans-101"/>
      <path id="DejaVuSans-32"/>
      <path d="M 37.109375 75.984375 
L 37.109375 68.5 
L 28.515625 68.5 
Q 23.6875 68.5 21.796875 66.546875 
Q 19.921875 64.59375 19.921875 59.515625 
L 19.921875 54.6875 
L 34.71875 54.6875 
L 34.71875 47.703125 
L 19.921875 47.703125 
L 19.921875 0 
L 10.890625 0 
L 10.890625 47.703125 
L 2.296875 47.703125 
L 2.296875 54.6875 
L 10.890625 54.6875 
L 10.890625 58.5 
Q 10.890625 67.625 15.140625 71.796875 
Q 19.390625 75.984375 28.609375 75.984375 
z
" id="DejaVuSans-102"/>
      <path d="M 54.890625 33.015625 
L 54.890625 0 
L 45.90625 0 
L 45.90625 32.71875 
Q 45.90625 40.484375 42.875 44.328125 
Q 39.84375 48.1875 33.796875 48.1875 
Q 26.515625 48.1875 22.3125 43.546875 
Q 18.109375 38.921875 18.109375 30.90625 
L 18.109375 0 
L 9.078125 0 
L 9.078125 75.984375 
L 18.109375 75.984375 
L 18.109375 46.1875 
Q 21.34375 51.125 25.703125 53.5625 
Q 30.078125 56 35.796875 56 
Q 45.21875 56 50.046875 50.171875 
Q 54.890625 44.34375 54.890625 33.015625 
z
" id="DejaVuSans-104"/>
      <path d="M 45.40625 46.390625 
L 45.40625 75.984375 
L 54.390625 75.984375 
L 54.390625 0 
L 45.40625 0 
L 45.40625 8.203125 
Q 42.578125 3.328125 38.25 0.953125 
Q 33.9375 -1.421875 27.875 -1.421875 
Q 17.96875 -1.421875 11.734375 6.484375 
Q 5.515625 14.40625 5.515625 27.296875 
Q 5.515625 40.1875 11.734375 48.09375 
Q 17.96875 56 27.875 56 
Q 33.9375 56 38.25 53.625 
Q 42.578125 51.265625 45.40625 46.390625 
z
M 14.796875 27.296875 
Q 14.796875 17.390625 18.875 11.75 
Q 22.953125 6.109375 30.078125 6.109375 
Q 37.203125 6.109375 41.296875 11.75 
Q 45.40625 17.390625 45.40625 27.296875 
Q 45.40625 37.203125 41.296875 42.84375 
Q 37.203125 48.484375 30.078125 48.484375 
Q 22.953125 48.484375 18.875 42.84375 
Q 14.796875 37.203125 14.796875 27.296875 
z
" id="DejaVuSans-100"/>
      <path d="M 9.421875 54.6875 
L 18.40625 54.6875 
L 18.40625 0 
L 9.421875 0 
z
M 9.421875 75.984375 
L 18.40625 75.984375 
L 18.40625 64.59375 
L 9.421875 64.59375 
z
" id="DejaVuSans-105"/>
      <path d="M 4.203125 54.6875 
L 13.1875 54.6875 
L 24.421875 12.015625 
L 35.59375 54.6875 
L 46.1875 54.6875 
L 57.421875 12.015625 
L 68.609375 54.6875 
L 77.59375 54.6875 
L 63.28125 0 
L 52.6875 0 
L 40.921875 44.828125 
L 29.109375 0 
L 18.5 0 
z
" id="DejaVuSans-119"/>
      <path d="M 9.078125 75.984375 
L 18.109375 75.984375 
L 18.109375 31.109375 
L 44.921875 54.6875 
L 56.390625 54.6875 
L 27.390625 29.109375 
L 57.625 0 
L 45.90625 0 
L 18.109375 26.703125 
L 18.109375 0 
L 9.078125 0 
z
" id="DejaVuSans-107"/>
     </defs>
     <use xlink:href="#DejaVuSans-73"/>
     <use x="29.492188" xlink:href="#DejaVuSans-109"/>
     <use x="126.904297" xlink:href="#DejaVuSans-112"/>
     <use x="190.380859" xlink:href="#DejaVuSans-111"/>
     <use x="251.5625" xlink:href="#DejaVuSans-114"/>
     <use x="292.675781" xlink:href="#DejaVuSans-116"/>
     <use x="331.884766" xlink:href="#DejaVuSans-97"/>
     <use x="393.164062" xlink:href="#DejaVuSans-110"/>
     <use x="456.542969" xlink:href="#DejaVuSans-99"/>
     <use x="511.523438" xlink:href="#DejaVuSans-101"/>
     <use x="573.046875" xlink:href="#DejaVuSans-32"/>
     <use x="604.833984" xlink:href="#DejaVuSans-83"/>
     <use x="668.310547" xlink:href="#DejaVuSans-99"/>
     <use x="723.291016" xlink:href="#DejaVuSans-111"/>
     <use x="784.472656" xlink:href="#DejaVuSans-114"/>
     <use x="823.335938" xlink:href="#DejaVuSans-101"/>
     <use x="884.859375" xlink:href="#DejaVuSans-32"/>
     <use x="916.646484" xlink:href="#DejaVuSans-102"/>
     <use x="951.851562" xlink:href="#DejaVuSans-111"/>
     <use x="1013.033203" xlink:href="#DejaVuSans-114"/>
     <use x="1054.146484" xlink:href="#DejaVuSans-32"/>
     <use x="1085.933594" xlink:href="#DejaVuSans-69"/>
     <use x="1149.117188" xlink:href="#DejaVuSans-97"/>
     <use x="1210.396484" xlink:href="#DejaVuSans-99"/>
     <use x="1265.376953" xlink:href="#DejaVuSans-104"/>
     <use x="1328.755859" xlink:href="#DejaVuSans-32"/>
     <use x="1360.542969" xlink:href="#DejaVuSans-78"/>
     <use x="1435.347656" xlink:href="#DejaVuSans-111"/>
     <use x="1496.529297" xlink:href="#DejaVuSans-100"/>
     <use x="1560.005859" xlink:href="#DejaVuSans-101"/>
     <use x="1621.529297" xlink:href="#DejaVuSans-32"/>
     <use x="1653.316406" xlink:href="#DejaVuSans-105"/>
     <use x="1681.099609" xlink:href="#DejaVuSans-110"/>
     <use x="1744.478516" xlink:href="#DejaVuSans-32"/>
     <use x="1776.265625" xlink:href="#DejaVuSans-116"/>
     <use x="1815.474609" xlink:href="#DejaVuSans-104"/>
     <use x="1878.853516" xlink:href="#DejaVuSans-101"/>
     <use x="1940.376953" xlink:href="#DejaVuSans-32"/>
     <use x="1972.164062" xlink:href="#DejaVuSans-78"/>
     <use x="2046.96875" xlink:href="#DejaVuSans-101"/>
     <use x="2108.492188" xlink:href="#DejaVuSans-116"/>
     <use x="2147.701172" xlink:href="#DejaVuSans-119"/>
     <use x="2229.488281" xlink:href="#DejaVuSans-111"/>
     <use x="2290.669922" xlink:href="#DejaVuSans-114"/>
     <use x="2331.783203" xlink:href="#DejaVuSans-107"/>
    </g>
   </g>
  </g>
 </g>
 <defs>
  <clipPath id="p92e8da8576">
   <rect height="443.52" width="669.6" x="7.2" y="22.318125"/>
  </clipPath>
 </defs>
</svg>
