<?xml version="1.0" encoding="utf-8" standalone="no"?>
<!DOCTYPE svg PUBLIC "-//W3C//DTD SVG 1.1//EN"
  "http://www.w3.org/Graphics/SVG/1.1/DTD/svg11.dtd">
<!-- Created with matplotlib (https://matplotlib.org/) -->
<svg height="473.038125pt" version="1.1" viewBox="0 0 684 473.038125" width="684pt" xmlns="http://www.w3.org/2000/svg" xmlns:xlink="http://www.w3.org/1999/xlink">
 <metadata>
  <rdf:RDF xmlns:cc="http://creativecommons.org/ns#" xmlns:dc="http://purl.org/dc/elements/1.1/" xmlns:rdf="http://www.w3.org/1999/02/22-rdf-syntax-ns#">
   <cc:Work>
    <dc:type rdf:resource="http://purl.org/dc/dcmitype/StillImage"/>
    <dc:date>2024-04-26T10:52:45.592543</dc:date>
    <dc:format>image/svg+xml</dc:format>
    <dc:creator>
     <cc:Agent>
      <dc:title>Matplotlib v3.3.1, https://matplotlib.org/</dc:title>
     </cc:Agent>
    </dc:creator>
   </cc:Work>
  </rdf:RDF>
 </metadata>
 <defs>
  <style type="text/css">*{stroke-linecap:butt;stroke-linejoin:round;}</style>
 </defs>
 <g id="figure_1">
  <g id="patch_1">
   <path d="M 0 473.038125 
L 684 473.038125 
L 684 0 
L 0 0 
z
" style="fill:#ffffff;"/>
  </g>
  <g id="axes_1">
   <g id="patch_2">
    <path clip-path="url(#pc8040e900a)" d="M 612.630603 227.583993 
Q 554.888777 313.820017 497.768995 399.127032 
" style="fill:none;stroke:#808080;stroke-linecap:round;"/>
    <path clip-path="url(#pc8040e900a)" d="M 501.656356 396.916054 
L 497.768995 399.127032 
L 498.332629 394.690556 
L 501.656356 396.916054 
z
" style="fill:#808080;stroke:#808080;stroke-linecap:round;"/>
   </g>
   <g id="patch_3">
    <path clip-path="url(#pc8040e900a)" d="M 611.556054 325.24365 
Q 555.509779 363.794187 500.384667 401.711116 
" style="fill:none;stroke:#808080;stroke-linecap:round;"/>
    <path clip-path="url(#pc8040e900a)" d="M 504.813752 401.09208 
L 500.384667 401.711116 
L 502.546889 397.796427 
L 504.813752 401.09208 
z
" style="fill:#808080;stroke:#808080;stroke-linecap:round;"/>
   </g>
   <g id="patch_4">
    <path clip-path="url(#pc8040e900a)" d="M 433.914891 337.884929 
Q 382.932101 269.205157 332.615714 201.423109 
" style="fill:none;stroke:#808080;stroke-linecap:round;"/>
    <path clip-path="url(#pc8040e900a)" d="M 333.394016 205.826999 
L 332.615714 201.423109 
L 336.605807 203.442802 
L 333.394016 205.826999 
z
" style="fill:#808080;stroke:#808080;stroke-linecap:round;"/>
   </g>
   <g id="patch_5">
    <path clip-path="url(#pc8040e900a)" d="M 205.082585 356.700518 
Q 141.966444 307.733032 79.733657 259.450881 
" style="fill:none;stroke:#808080;stroke-linecap:round;"/>
    <path clip-path="url(#pc8040e900a)" d="M 81.668081 263.483003 
L 79.733657 259.450881 
L 84.120009 260.322615 
L 81.668081 263.483003 
z
" style="fill:#808080;stroke:#808080;stroke-linecap:round;"/>
   </g>
   <g id="patch_6">
    <path clip-path="url(#pc8040e900a)" d="M 89.295377 203.65997 
Q 203.717026 198.800482 317.021648 193.988434 
" style="fill:none;stroke:#808080;stroke-linecap:round;"/>
    <path clip-path="url(#pc8040e900a)" d="M 312.940387 192.159962 
L 317.021648 193.988434 
L 313.110114 196.15636 
L 312.940387 192.159962 
z
" style="fill:#808080;stroke:#808080;stroke-linecap:round;"/>
   </g>
   <g id="patch_7">
    <path clip-path="url(#pc8040e900a)" d="M 219.312106 325.640838 
Q 235.572517 265.751573 251.539977 206.941281 
" style="fill:none;stroke:#808080;stroke-linecap:round;"/>
    <path clip-path="url(#pc8040e900a)" d="M 248.561766 210.277484 
L 251.539977 206.941281 
L 252.422013 211.325572 
L 248.561766 210.277484 
z
" style="fill:#808080;stroke:#808080;stroke-linecap:round;"/>
   </g>
   <g id="patch_8">
    <path clip-path="url(#pc8040e900a)" d="M 224.793385 337.869166 
Q 308.63653 379.710719 391.479293 421.053035 
" style="fill:none;stroke:#808080;stroke-linecap:round;"/>
    <path clip-path="url(#pc8040e900a)" d="M 388.79328 417.477377 
L 391.479293 421.053035 
L 387.007159 421.056451 
L 388.79328 417.477377 
z
" style="fill:#808080;stroke:#808080;stroke-linecap:round;"/>
   </g>
   <g id="patch_9">
    <path clip-path="url(#pc8040e900a)" d="M 209.357193 330.008883 
Q 159.834711 304.283719 111.304384 279.073944 
" style="fill:none;stroke:#808080;stroke-linecap:round;"/>
    <path clip-path="url(#pc8040e900a)" d="M 113.932072 282.692681 
L 111.304384 279.073944 
L 115.775986 279.143036 
L 113.932072 282.692681 
z
" style="fill:#808080;stroke:#808080;stroke-linecap:round;"/>
   </g>
   <g id="patch_10">
    <path clip-path="url(#pc8040e900a)" d="M 254.698255 206.143139 
Q 257.083933 240.688637 259.392585 274.118758 
" style="fill:none;stroke:#808080;stroke-linecap:round;"/>
    <path clip-path="url(#pc8040e900a)" d="M 261.112253 269.990472 
L 259.392585 274.118758 
L 257.121757 270.266052 
L 261.112253 269.990472 
z
" style="fill:#808080;stroke:#808080;stroke-linecap:round;"/>
   </g>
   <g id="patch_11">
    <path clip-path="url(#pc8040e900a)" d="M 259.174251 204.528405 
Q 291.999886 249.973608 324.170869 294.512482 
" style="fill:none;stroke:#808080;stroke-linecap:round;"/>
    <path clip-path="url(#pc8040e900a)" d="M 323.450003 290.098827 
L 324.170869 294.512482 
L 320.207425 292.440981 
L 323.450003 290.098827 
z
" style="fill:#808080;stroke:#808080;stroke-linecap:round;"/>
   </g>
   <g id="patch_12">
    <path clip-path="url(#pc8040e900a)" d="M 262.199636 194.428062 
Q 323.529682 171.11811 383.814634 148.20537 
" style="fill:none;stroke:#808080;stroke-linecap:round;"/>
    <path clip-path="url(#pc8040e900a)" d="M 379.365035 147.756961 
L 383.814634 148.20537 
L 380.786147 151.496004 
L 379.365035 147.756961 
z
" style="fill:#808080;stroke:#808080;stroke-linecap:round;"/>
   </g>
   <g id="patch_13">
    <path clip-path="url(#pc8040e900a)" d="M 245.545693 196.163782 
Q 221.874254 192.450787 199.307343 188.911045 
" style="fill:none;stroke:#808080;stroke-linecap:round;"/>
    <path clip-path="url(#pc8040e900a)" d="M 202.949104 191.506729 
L 199.307343 188.911045 
L 203.568947 187.555046 
L 202.949104 191.506729 
z
" style="fill:#808080;stroke:#808080;stroke-linecap:round;"/>
   </g>
   <g id="patch_14">
    <path clip-path="url(#pc8040e900a)" d="M 410.829588 183.93619 
Q 407.249374 180.753435 404.504748 178.313505 
" style="fill:none;stroke:#808080;stroke-linecap:round;"/>
    <path clip-path="url(#pc8040e900a)" d="M 406.165436 182.465868 
L 404.504748 178.313505 
L 408.823051 179.476373 
L 406.165436 182.465868 
z
" style="fill:#808080;stroke:#808080;stroke-linecap:round;"/>
   </g>
   <g id="patch_15">
    <path clip-path="url(#pc8040e900a)" d="M 411.083494 183.659879 
Q 351.332886 125.71898 292.38491 68.556402 
" style="fill:none;stroke:#808080;stroke-linecap:round;"/>
    <path clip-path="url(#pc8040e900a)" d="M 293.864186 72.776798 
L 292.38491 68.556402 
L 296.648792 69.905218 
L 293.864186 72.776798 
z
" style="fill:#808080;stroke:#808080;stroke-linecap:round;"/>
   </g>
   <g id="patch_16">
    <path clip-path="url(#pc8040e900a)" d="M 414.830297 197.993899 
Q 384.118192 301.158464 353.72509 403.251472 
" style="fill:none;stroke:#808080;stroke-linecap:round;"/>
    <path clip-path="url(#pc8040e900a)" d="M 356.783252 399.988398 
L 353.72509 403.251472 
L 352.949528 398.847098 
L 356.783252 399.988398 
z
" style="fill:#808080;stroke:#808080;stroke-linecap:round;"/>
   </g>
   <g id="patch_17">
    <path clip-path="url(#pc8040e900a)" d="M 416.317475 181.083588 
Q 410.271612 128.245472 404.352847 76.518142 
" style="fill:none;stroke:#808080;stroke-linecap:round;"/>
    <path clip-path="url(#pc8040e900a)" d="M 402.820535 80.719573 
L 404.352847 76.518142 
L 406.794604 80.264851 
L 402.820535 80.719573 
z
" style="fill:#808080;stroke:#808080;stroke-linecap:round;"/>
   </g>
   <g id="patch_18">
    <path clip-path="url(#pc8040e900a)" d="M 402.034867 178.998318 
Q 425.267424 213.477325 447.875225 247.029143 
" style="fill:none;stroke:#808080;stroke-linecap:round;"/>
    <path clip-path="url(#pc8040e900a)" d="M 447.298635 242.594332 
L 447.875225 247.029143 
L 443.981423 244.829528 
L 447.298635 242.594332 
z
" style="fill:#808080;stroke:#808080;stroke-linecap:round;"/>
   </g>
   <g id="patch_19">
    <path clip-path="url(#pc8040e900a)" d="M 400.123701 179.962628 
Q 411.750792 212.304207 422.99964 243.593677 
" style="fill:none;stroke:#808080;stroke-linecap:round;"/>
    <path clip-path="url(#pc8040e900a)" d="M 423.528468 239.152918 
L 422.99964 243.593677 
L 419.764329 240.50616 
L 423.528468 239.152918 
z
" style="fill:#808080;stroke:#808080;stroke-linecap:round;"/>
   </g>
   <g id="patch_20">
    <path clip-path="url(#pc8040e900a)" d="M 397.44349 180.470122 
Q 398.306104 210.453665 399.136567 239.319635 
" style="fill:none;stroke:#808080;stroke-linecap:round;"/>
    <path clip-path="url(#pc8040e900a)" d="M 401.020709 235.263774 
L 399.136567 239.319635 
L 397.022363 235.378805 
L 401.020709 235.263774 
z
" style="fill:#808080;stroke:#808080;stroke-linecap:round;"/>
   </g>
   <g id="patch_21">
    <path clip-path="url(#pc8040e900a)" d="M 318.936164 197.226503 
Q 205.700209 249.901254 93.477975 302.104445 
" style="fill:none;stroke:#808080;stroke-linecap:round;"/>
    <path clip-path="url(#pc8040e900a)" d="M 97.948328 302.230742 
L 93.477975 302.104445 
L 96.261224 298.603941 
L 97.948328 302.230742 
z
" style="fill:#808080;stroke:#808080;stroke-linecap:round;"/>
   </g>
   <g id="patch_22">
    <path clip-path="url(#pc8040e900a)" d="M 318.142162 194.04139 
Q 290.446961 195.539646 263.86816 196.977507 
" style="fill:none;stroke:#808080;stroke-linecap:round;"/>
    <path clip-path="url(#pc8040e900a)" d="M 267.970358 198.75851 
L 263.86816 196.977507 
L 267.754282 194.764351 
L 267.970358 198.75851 
z
" style="fill:#808080;stroke:#808080;stroke-linecap:round;"/>
   </g>
   <g id="patch_23">
    <path clip-path="url(#pc8040e900a)" d="M 334.07998 198.250121 
Q 445.710984 269.849615 556.400896 340.845499 
" style="fill:none;stroke:#808080;stroke-linecap:round;"/>
    <path clip-path="url(#pc8040e900a)" d="M 554.113716 337.002478 
L 556.400896 340.845499 
L 551.954172 340.369431 
L 554.113716 337.002478 
z
" style="fill:#808080;stroke:#808080;stroke-linecap:round;"/>
   </g>
   <g id="patch_24">
    <path clip-path="url(#pc8040e900a)" d="M 321.27501 186.897702 
Q 278.557477 135.177014 236.551917 84.318354 
" style="fill:none;stroke:#808080;stroke-linecap:round;"/>
    <path clip-path="url(#pc8040e900a)" d="M 237.557106 88.676059 
L 236.551917 84.318354 
L 240.641194 86.128826 
L 237.557106 88.676059 
z
" style="fill:#808080;stroke:#808080;stroke-linecap:round;"/>
   </g>
   <g id="patch_25">
    <path clip-path="url(#pc8040e900a)" d="M 318.29075 191.912541 
Q 220.546202 172.806869 123.898923 153.915676 
" style="fill:none;stroke:#808080;stroke-linecap:round;"/>
    <path clip-path="url(#pc8040e900a)" d="M 127.440962 156.64587 
L 123.898923 153.915676 
L 128.208302 152.720162 
L 127.440962 156.64587 
z
" style="fill:#808080;stroke:#808080;stroke-linecap:round;"/>
   </g>
   <g id="patch_26">
    <path clip-path="url(#pc8040e900a)" d="M 333.96725 188.726281 
Q 405.962857 140.110081 477.031897 92.119561 
" style="fill:none;stroke:#808080;stroke-linecap:round;"/>
    <path clip-path="url(#pc8040e900a)" d="M 472.597663 92.700566 
L 477.031897 92.119561 
L 474.83616 96.015552 
L 472.597663 92.700566 
z
" style="fill:#808080;stroke:#808080;stroke-linecap:round;"/>
   </g>
   <g id="patch_27">
    <path clip-path="url(#pc8040e900a)" d="M 335.288531 191.90392 
Q 442.213217 170.899372 548.040836 150.110333 
" style="fill:none;stroke:#808080;stroke-linecap:round;"/>
    <path clip-path="url(#pc8040e900a)" d="M 543.730334 148.918874 
L 548.040836 150.110333 
L 544.501368 152.843859 
L 543.730334 148.918874 
z
" style="fill:#808080;stroke:#808080;stroke-linecap:round;"/>
   </g>
   <g id="patch_28">
    <path clip-path="url(#pc8040e900a)" d="M 373.790446 68.904875 
Q 351.816533 127.189264 330.237033 184.427499 
" style="fill:none;stroke:#808080;stroke-linecap:round;"/>
    <path clip-path="url(#pc8040e900a)" d="M 333.519544 181.390211 
L 330.237033 184.427499 
L 329.776709 179.979117 
L 333.519544 181.390211 
z
" style="fill:#808080;stroke:#808080;stroke-linecap:round;"/>
   </g>
   <g id="patch_29">
    <path clip-path="url(#pc8040e900a)" d="M 385.267876 62.815694 
Q 430.990753 73.72718 475.626135 84.379142 
" style="fill:none;stroke:#808080;stroke-linecap:round;"/>
    <path clip-path="url(#pc8040e900a)" d="M 472.199643 81.505268 
L 475.626135 84.379142 
L 471.271141 85.396012 
L 472.199643 81.505268 
z
" style="fill:#808080;stroke:#808080;stroke-linecap:round;"/>
   </g>
   <g id="patch_30">
    <path clip-path="url(#pc8040e900a)" d="M 384.642829 64.576394 
Q 467.242319 104.516262 548.835268 143.969431 
" style="fill:none;stroke:#808080;stroke-linecap:round;"/>
    <path clip-path="url(#pc8040e900a)" d="M 546.104793 140.427609 
L 548.835268 143.969431 
L 544.363525 144.028718 
L 546.104793 140.427609 
z
" style="fill:#808080;stroke:#808080;stroke-linecap:round;"/>
   </g>
   <g id="patch_31">
    <path clip-path="url(#pc8040e900a)" d="M 180.237086 92.619421 
Q 249.947336 140.640292 318.736866 188.026911 
" style="fill:none;stroke:#808080;stroke-linecap:round;"/>
    <path clip-path="url(#pc8040e900a)" d="M 316.57738 184.110712 
L 318.736866 188.026911 
L 314.308215 187.404781 
L 316.57738 184.110712 
z
" style="fill:#808080;stroke:#808080;stroke-linecap:round;"/>
   </g>
   <g id="patch_32">
    <path clip-path="url(#pc8040e900a)" d="M 205.268012 385.730719 
Q 263.713379 293.312878 321.561167 201.83997 
" style="fill:none;stroke:#808080;stroke-linecap:round;"/>
    <path clip-path="url(#pc8040e900a)" d="M 317.732855 204.151685 
L 321.561167 201.83997 
L 321.113551 206.289649 
L 317.732855 204.151685 
z
" style="fill:#808080;stroke:#808080;stroke-linecap:round;"/>
   </g>
   <g id="patch_33">
    <path clip-path="url(#pc8040e900a)" d="M 73.927991 171.023197 
Q 196.046707 181.913886 317.051808 192.705262 
" style="fill:none;stroke:#808080;stroke-linecap:round;"/>
    <path clip-path="url(#pc8040e900a)" d="M 313.245277 190.357854 
L 317.051808 192.705262 
L 312.889963 194.342042 
L 313.245277 190.357854 
z
" style="fill:#808080;stroke:#808080;stroke-linecap:round;"/>
   </g>
   <g id="patch_34">
    <path clip-path="url(#pc8040e900a)" d="M 259.469753 275.236185 
Q 257.084075 240.690687 254.775423 207.260566 
" style="fill:none;stroke:#808080;stroke-linecap:round;"/>
    <path clip-path="url(#pc8040e900a)" d="M 253.055755 211.388852 
L 254.775423 207.260566 
L 257.046251 211.113272 
L 253.055755 211.388852 
z
" style="fill:#808080;stroke:#808080;stroke-linecap:round;"/>
   </g>
   <g id="patch_35">
    <path clip-path="url(#pc8040e900a)" d="M 254.428267 290.44231 
Q 238.554501 308.93694 223.408903 326.583177 
" style="fill:none;stroke:#808080;stroke-linecap:round;"/>
    <path clip-path="url(#pc8040e900a)" d="M 227.531728 324.850459 
L 223.408903 326.583177 
L 224.496424 322.245286 
L 227.531728 324.850459 
z
" style="fill:#808080;stroke:#808080;stroke-linecap:round;"/>
   </g>
   <g id="patch_36">
    <path clip-path="url(#pc8040e900a)" d="M 252.813561 288.608646 
Q 190.960744 328.991493 130.044098 368.763127 
" style="fill:none;stroke:#808080;stroke-linecap:round;"/>
    <path clip-path="url(#pc8040e900a)" d="M 134.486821 368.251058 
L 130.044098 368.763127 
L 132.300077 364.901707 
L 134.486821 368.251058 
z
" style="fill:#808080;stroke:#808080;stroke-linecap:round;"/>
   </g>
   <g id="patch_37">
    <path clip-path="url(#pc8040e900a)" d="M 251.827239 286.536049 
Q 174.333843 311.579377 97.904306 336.2789 
" style="fill:none;stroke:#808080;stroke-linecap:round;"/>
    <path clip-path="url(#pc8040e900a)" d="M 102.325505 336.951958 
L 97.904306 336.2789 
L 101.095471 333.145776 
L 102.325505 336.951958 
z
" style="fill:#808080;stroke:#808080;stroke-linecap:round;"/>
   </g>
   <g id="patch_38">
    <path clip-path="url(#pc8040e900a)" d="M 324.822729 295.414945 
Q 291.997094 249.969743 259.826112 205.430868 
" style="fill:none;stroke:#808080;stroke-linecap:round;"/>
    <path clip-path="url(#pc8040e900a)" d="M 260.546977 209.844523 
L 259.826112 205.430868 
L 263.789555 207.502369 
L 260.546977 209.844523 
z
" style="fill:#808080;stroke:#808080;stroke-linecap:round;"/>
   </g>
   <g id="patch_39">
    <path clip-path="url(#pc8040e900a)" d="M 321.557288 304.769509 
Q 273.470103 318.218867 226.459632 331.367082 
" style="fill:none;stroke:#808080;stroke-linecap:round;"/>
    <path clip-path="url(#pc8040e900a)" d="M 230.850502 332.215765 
L 226.459632 331.367082 
L 229.7731 328.363596 
L 230.850502 332.215765 
z
" style="fill:#808080;stroke:#808080;stroke-linecap:round;"/>
   </g>
   <g id="patch_40">
    <path clip-path="url(#pc8040e900a)" d="M 321.708291 305.257996 
Q 225.875224 338.273676 131.099219 370.925186 
" style="fill:none;stroke:#808080;stroke-linecap:round;"/>
    <path clip-path="url(#pc8040e900a)" d="M 135.532526 371.513218 
L 131.099219 370.925186 
L 134.229629 367.731359 
L 135.532526 371.513218 
z
" style="fill:#808080;stroke:#808080;stroke-linecap:round;"/>
   </g>
   <g id="patch_41">
    <path clip-path="url(#pc8040e900a)" d="M 321.334813 303.744768 
Q 209.247875 320.861683 98.266157 337.809818 
" style="fill:none;stroke:#808080;stroke-linecap:round;"/>
    <path clip-path="url(#pc8040e900a)" d="M 102.522238 339.183054 
L 98.266157 337.809818 
L 101.918394 335.228895 
L 102.522238 339.183054 
z
" style="fill:#808080;stroke:#808080;stroke-linecap:round;"/>
   </g>
   <g id="patch_42">
    <path clip-path="url(#pc8040e900a)" d="M 480.371147 93.88394 
Q 451.218539 138.168949 422.680683 181.520105 
" style="fill:none;stroke:#808080;stroke-linecap:round;"/>
    <path clip-path="url(#pc8040e900a)" d="M 426.550609 179.278751 
L 422.680683 181.520105 
L 423.209555 177.079351 
L 426.550609 179.278751 
z
" style="fill:#808080;stroke:#808080;stroke-linecap:round;"/>
   </g>
   <g id="patch_43">
    <path clip-path="url(#pc8040e900a)" d="M 477.955966 91.495569 
Q 405.96036 140.111768 334.891319 188.102288 
" style="fill:none;stroke:#808080;stroke-linecap:round;"/>
    <path clip-path="url(#pc8040e900a)" d="M 339.325554 187.521283 
L 334.891319 188.102288 
L 337.087056 184.206298 
L 339.325554 187.521283 
z
" style="fill:#808080;stroke:#808080;stroke-linecap:round;"/>
   </g>
   <g id="patch_44">
    <path clip-path="url(#pc8040e900a)" d="M 549.332683 150.678917 
Q 487.46962 168.957769 426.678766 186.919812 
" style="fill:none;stroke:#808080;stroke-linecap:round;"/>
    <path clip-path="url(#pc8040e900a)" d="M 431.081542 187.704389 
L 426.678766 186.919812 
L 429.948094 183.868337 
L 431.081542 187.704389 
z
" style="fill:#808080;stroke:#808080;stroke-linecap:round;"/>
   </g>
   <g id="patch_45">
    <path clip-path="url(#pc8040e900a)" d="M 549.137082 149.894984 
Q 442.212397 170.899533 336.384778 191.688571 
" style="fill:none;stroke:#808080;stroke-linecap:round;"/>
    <path clip-path="url(#pc8040e900a)" d="M 340.69528 192.88003 
L 336.384778 191.688571 
L 339.924246 188.955045 
L 340.69528 192.88003 
z
" style="fill:#808080;stroke:#808080;stroke-linecap:round;"/>
   </g>
   <g id="patch_46">
    <path clip-path="url(#pc8040e900a)" d="M 463.954322 152.937364 
Q 432.75614 149.331258 402.668598 145.853528 
" style="fill:none;stroke:#808080;stroke-linecap:round;"/>
    <path clip-path="url(#pc8040e900a)" d="M 406.412497 148.299591 
L 402.668598 145.853528 
L 406.871787 144.326046 
L 406.412497 148.299591 
z
" style="fill:#808080;stroke:#808080;stroke-linecap:round;"/>
   </g>
   <g id="patch_47">
    <path clip-path="url(#pc8040e900a)" d="M 463.955354 154.949608 
Q 331.103306 170.664205 199.361551 186.247469 
" style="fill:none;stroke:#808080;stroke-linecap:round;"/>
    <path clip-path="url(#pc8040e900a)" d="M 203.568793 187.763753 
L 199.361551 186.247469 
L 203.098923 183.791446 
L 203.568793 187.763753 
z
" style="fill:#808080;stroke:#808080;stroke-linecap:round;"/>
   </g>
   <g id="patch_48">
    <path clip-path="url(#pc8040e900a)" d="M 462.048759 214.56475 
Q 430.54826 182.726286 399.834101 151.682598 
" style="fill:none;stroke:#808080;stroke-linecap:round;"/>
    <path clip-path="url(#pc8040e900a)" d="M 401.225657 155.932724 
L 399.834101 151.682598 
L 404.069135 153.119429 
L 401.225657 155.932724 
z
" style="fill:#808080;stroke:#808080;stroke-linecap:round;"/>
   </g>
   <g id="patch_49">
    <path clip-path="url(#pc8040e900a)" d="M 459.543911 219.693141 
Q 328.894312 204.058932 199.354827 188.557565 
" style="fill:none;stroke:#808080;stroke-linecap:round;"/>
    <path clip-path="url(#pc8040e900a)" d="M 203.088856 191.018667 
L 199.354827 188.557565 
L 203.564126 187.047002 
L 203.088856 191.018667 
z
" style="fill:#808080;stroke:#808080;stroke-linecap:round;"/>
   </g>
   <g id="patch_50">
    <path clip-path="url(#pc8040e900a)" d="M 386.976391 150.992062 
Q 326.51223 214.301125 266.820264 276.801662 
" style="fill:none;stroke:#808080;stroke-linecap:round;"/>
    <path clip-path="url(#pc8040e900a)" d="M 271.029288 275.290332 
L 266.820264 276.801662 
L 268.136614 272.527645 
L 271.029288 275.290332 
z
" style="fill:#808080;stroke:#808080;stroke-linecap:round;"/>
   </g>
   <g id="patch_51">
    <path clip-path="url(#pc8040e900a)" d="M 389.741371 152.770722 
Q 361.4264 223.582456 333.526533 293.356073 
" style="fill:none;stroke:#808080;stroke-linecap:round;"/>
    <path clip-path="url(#pc8040e900a)" d="M 336.868697 290.384552 
L 333.526533 293.356073 
L 333.154615 288.899429 
L 336.868697 290.384552 
z
" style="fill:#808080;stroke:#808080;stroke-linecap:round;"/>
   </g>
   <g id="patch_52">
    <path clip-path="url(#pc8040e900a)" d="M 194.753636 194.388823 
Q 224.857666 235.634289 254.302564 275.97668 
" style="fill:none;stroke:#808080;stroke-linecap:round;"/>
    <path clip-path="url(#pc8040e900a)" d="M 253.559852 271.566649 
L 254.302564 275.97668 
L 250.328911 273.924831 
L 253.559852 271.566649 
z
" style="fill:#808080;stroke:#808080;stroke-linecap:round;"/>
   </g>
   <g id="patch_53">
    <path clip-path="url(#pc8040e900a)" d="M 196.34589 192.888841 
Q 259.773462 244.917601 322.336614 296.237291 
" style="fill:none;stroke:#808080;stroke-linecap:round;"/>
    <path clip-path="url(#pc8040e900a)" d="M 320.512401 292.154125 
L 322.336614 296.237291 
L 317.975553 295.246762 
L 320.512401 292.154125 
z
" style="fill:#808080;stroke:#808080;stroke-linecap:round;"/>
   </g>
   <g id="patch_54">
    <path clip-path="url(#pc8040e900a)" d="M 462.000812 255.356029 
Q 532.396001 257.122912 601.673509 258.861743 
" style="fill:none;stroke:#808080;stroke-linecap:round;"/>
    <path clip-path="url(#pc8040e900a)" d="M 597.724951 256.762006 
L 601.673509 258.861743 
L 597.624585 260.760747 
L 597.724951 256.762006 
z
" style="fill:#808080;stroke:#808080;stroke-linecap:round;"/>
   </g>
   <g id="patch_55">
    <path clip-path="url(#pc8040e900a)" d="M 448.618999 262.398262 
Q 402.137047 333.881899 356.264572 404.428232 
" style="fill:none;stroke:#808080;stroke-linecap:round;"/>
    <path clip-path="url(#pc8040e900a)" d="M 360.121804 402.165102 
L 356.264572 404.428232 
L 356.768407 399.984568 
L 360.121804 402.165102 
z
" style="fill:#808080;stroke:#808080;stroke-linecap:round;"/>
   </g>
   <g id="patch_56">
    <path clip-path="url(#pc8040e900a)" d="M 451.112733 246.767358 
Q 428.289864 160.969041 405.754405 76.251185 
" style="fill:none;stroke:#808080;stroke-linecap:round;"/>
    <path clip-path="url(#pc8040e900a)" d="M 404.849883 80.630893 
L 405.754405 76.251185 
L 408.715458 79.602627 
L 404.849883 80.630893 
z
" style="fill:#808080;stroke:#808080;stroke-linecap:round;"/>
   </g>
   <g id="patch_57">
    <path clip-path="url(#pc8040e900a)" d="M 458.630674 261.996418 
Q 503.813281 320.557143 548.31292 378.232682 
" style="fill:none;stroke:#808080;stroke-linecap:round;"/>
    <path clip-path="url(#pc8040e900a)" d="M 547.452933 373.844012 
L 548.31292 378.232682 
L 544.285992 376.28747 
L 547.452933 373.844012 
z
" style="fill:#808080;stroke:#808080;stroke-linecap:round;"/>
   </g>
   <g id="patch_58">
    <path clip-path="url(#pc8040e900a)" d="M 447.454625 261.489907 
Q 373.557622 341.242914 300.420507 420.175815 
" style="fill:none;stroke:#808080;stroke-linecap:round;"/>
    <path clip-path="url(#pc8040e900a)" d="M 304.606209 418.601047 
L 300.420507 420.175815 
L 301.672114 415.882393 
L 304.606209 418.601047 
z
" style="fill:#808080;stroke:#808080;stroke-linecap:round;"/>
   </g>
   <g id="patch_59">
    <path clip-path="url(#pc8040e900a)" d="M 459.185559 248.751462 
Q 516.373969 186.269202 572.807521 124.611677 
" style="fill:none;stroke:#808080;stroke-linecap:round;"/>
    <path clip-path="url(#pc8040e900a)" d="M 568.631525 126.212006 
L 572.807521 124.611677 
L 571.582187 128.912671 
L 568.631525 126.212006 
z
" style="fill:#808080;stroke:#808080;stroke-linecap:round;"/>
   </g>
   <g id="patch_60">
    <path clip-path="url(#pc8040e900a)" d="M 446.577913 249.730908 
Q 341.831995 165.958596 237.959215 82.88459 
" style="fill:none;stroke:#808080;stroke-linecap:round;"/>
    <path clip-path="url(#pc8040e900a)" d="M 239.833877 86.944841 
L 237.959215 82.88459 
L 242.332213 83.82101 
L 239.833877 86.944841 
z
" style="fill:#808080;stroke:#808080;stroke-linecap:round;"/>
   </g>
   <g id="patch_61">
    <path clip-path="url(#pc8040e900a)" d="M 434.96048 253.089035 
Q 518.880021 255.950586 601.682176 258.774036 
" style="fill:none;stroke:#808080;stroke-linecap:round;"/>
    <path clip-path="url(#pc8040e900a)" d="M 597.752658 256.638882 
L 601.682176 258.774036 
L 597.616342 260.636559 
L 597.752658 256.638882 
z
" style="fill:#808080;stroke:#808080;stroke-linecap:round;"/>
   </g>
   <g id="patch_62">
    <path clip-path="url(#pc8040e900a)" d="M 422.614271 260.625056 
Q 388.621192 332.708921 355.104987 403.781552 
" style="fill:none;stroke:#808080;stroke-linecap:round;"/>
    <path clip-path="url(#pc8040e900a)" d="M 358.620051 401.016714 
L 355.104987 403.781552 
L 355.002155 399.310599 
L 358.620051 401.016714 
z
" style="fill:#808080;stroke:#808080;stroke-linecap:round;"/>
   </g>
   <g id="patch_63">
    <path clip-path="url(#pc8040e900a)" d="M 425.241147 244.197704 
Q 414.774125 159.797714 404.444704 76.507259 
" style="fill:none;stroke:#808080;stroke-linecap:round;"/>
    <path clip-path="url(#pc8040e900a)" d="M 402.952205 80.722997 
L 404.444704 76.507259 
L 406.921795 80.230701 
L 402.952205 80.722997 
z
" style="fill:#808080;stroke:#808080;stroke-linecap:round;"/>
   </g>
   <g id="patch_64">
    <path clip-path="url(#pc8040e900a)" d="M 432.308303 259.038982 
Q 490.298954 319.386902 547.514938 378.928663 
" style="fill:none;stroke:#808080;stroke-linecap:round;"/>
    <path clip-path="url(#pc8040e900a)" d="M 546.1855 374.658699 
L 547.514938 378.928663 
L 543.301304 377.430235 
L 546.1855 374.658699 
z
" style="fill:#808080;stroke:#808080;stroke-linecap:round;"/>
   </g>
   <g id="patch_65">
    <path clip-path="url(#pc8040e900a)" d="M 421.071436 259.689841 
Q 360.041241 340.070474 299.687133 419.560655 
" style="fill:none;stroke:#808080;stroke-linecap:round;"/>
    <path clip-path="url(#pc8040e900a)" d="M 303.69887 417.584302 
L 299.687133 419.560655 
L 300.513094 415.165454 
L 303.69887 417.584302 
z
" style="fill:#808080;stroke:#808080;stroke-linecap:round;"/>
   </g>
   <g id="patch_66">
    <path clip-path="url(#pc8040e900a)" d="M 432.794703 247.056804 
Q 502.859001 185.095775 572.085784 123.8754 
" style="fill:none;stroke:#808080;stroke-linecap:round;"/>
    <path clip-path="url(#pc8040e900a)" d="M 567.764475 125.027047 
L 572.085784 123.8754 
L 570.414316 128.023435 
L 567.764475 125.027047 
z
" style="fill:#808080;stroke:#808080;stroke-linecap:round;"/>
   </g>
   <g id="patch_67">
    <path clip-path="url(#pc8040e900a)" d="M 419.862802 247.006121 
Q 328.314211 164.784781 237.597426 83.3105 
" style="fill:none;stroke:#808080;stroke-linecap:round;"/>
    <path clip-path="url(#pc8040e900a)" d="M 239.237007 87.471242 
L 237.597426 83.3105 
L 241.909768 84.49528 
L 239.237007 87.471242 
z
" style="fill:#808080;stroke:#808080;stroke-linecap:round;"/>
   </g>
   <g id="patch_68">
    <path clip-path="url(#pc8040e900a)" d="M 408.065995 249.503253 
Q 505.434537 254.10101 601.68629 258.646032 
" style="fill:none;stroke:#808080;stroke-linecap:round;"/>
    <path clip-path="url(#pc8040e900a)" d="M 597.785077 256.459588 
L 601.68629 258.646032 
L 597.596407 260.455136 
L 597.785077 256.459588 
z
" style="fill:#808080;stroke:#808080;stroke-linecap:round;"/>
   </g>
   <g id="patch_69">
    <path clip-path="url(#pc8040e900a)" d="M 396.956496 257.396662 
Q 375.17654 330.858771 353.714385 403.248964 
" style="fill:none;stroke:#808080;stroke-linecap:round;"/>
    <path clip-path="url(#pc8040e900a)" d="M 356.768882 399.982461 
L 353.714385 403.248964 
L 352.93388 398.845464 
L 356.768882 399.982461 
z
" style="fill:#808080;stroke:#808080;stroke-linecap:round;"/>
   </g>
   <g id="patch_70">
    <path clip-path="url(#pc8040e900a)" d="M 399.599414 240.435935 
Q 401.329519 157.95023 403.036178 76.582313 
" style="fill:none;stroke:#808080;stroke-linecap:round;"/>
    <path clip-path="url(#pc8040e900a)" d="M 400.952738 80.539493 
L 403.036178 76.582313 
L 404.951858 80.623373 
L 400.952738 80.539493 
z
" style="fill:#808080;stroke:#808080;stroke-linecap:round;"/>
   </g>
   <g id="patch_71">
    <path clip-path="url(#pc8040e900a)" d="M 405.904613 254.828266 
Q 476.853139 317.536215 546.963944 379.503743 
" style="fill:none;stroke:#808080;stroke-linecap:round;"/>
    <path clip-path="url(#pc8040e900a)" d="M 545.291327 375.356171 
L 546.963944 379.503743 
L 542.642316 378.353293 
L 545.291327 375.356171 
z
" style="fill:#808080;stroke:#808080;stroke-linecap:round;"/>
   </g>
   <g id="patch_72">
    <path clip-path="url(#pc8040e900a)" d="M 395.002468 256.544882 
Q 346.595465 338.222173 298.758489 418.937657 
" style="fill:none;stroke:#808080;stroke-linecap:round;"/>
    <path clip-path="url(#pc8040e900a)" d="M 302.518405 416.516288 
L 298.758489 418.937657 
L 299.077343 414.476902 
L 302.518405 416.516288 
z
" style="fill:#808080;stroke:#808080;stroke-linecap:round;"/>
   </g>
   <g id="patch_73">
    <path clip-path="url(#pc8040e900a)" d="M 406.407499 243.980669 
Q 489.414391 183.246305 571.518983 123.172134 
" style="fill:none;stroke:#808080;stroke-linecap:round;"/>
    <path clip-path="url(#pc8040e900a)" d="M 567.109828 123.920031 
L 571.518983 123.172134 
L 569.471807 127.148196 
L 567.109828 123.920031 
z
" style="fill:#808080;stroke:#808080;stroke-linecap:round;"/>
   </g>
   <g id="patch_74">
    <path clip-path="url(#pc8040e900a)" d="M 393.351856 242.913321 
Q 314.871984 162.937553 237.175184 83.759781 
" style="fill:none;stroke:#808080;stroke-linecap:round;"/>
    <path clip-path="url(#pc8040e900a)" d="M 238.549284 88.015583 
L 237.175184 83.759781 
L 241.404285 85.213982 
L 238.549284 88.015583 
z
" style="fill:#808080;stroke:#808080;stroke-linecap:round;"/>
   </g>
   <g id="PathCollection_1">
    <defs>
     <path d="M 0 11.18034 
C 2.965061 11.18034 5.80908 10.002309 7.905694 7.905694 
C 10.002309 5.80908 11.18034 2.965061 11.18034 -0 
C 11.18034 -2.965061 10.002309 -5.80908 7.905694 -7.905694 
C 5.80908 -10.002309 2.965061 -11.18034 0 -11.18034 
C -2.965061 -11.18034 -5.80908 -10.002309 -7.905694 -7.905694 
C -10.002309 -5.80908 -11.18034 -2.965061 -11.18034 0 
C -11.18034 2.965061 -10.002309 5.80908 -7.905694 7.905694 
C -5.80908 10.002309 -2.965061 11.18034 0 11.18034 
z
" id="C0_0_72fb2b75d1"/>
    </defs>
    <g clip-path="url(#pc8040e900a)">
     <use style="fill:#efefef;stroke:#efefef;" x="617.447429" xlink:href="#C0_0_72fb2b75d1" y="220.39018"/>
    </g>
    <g clip-path="url(#pc8040e900a)">
     <use style="fill:#f1f1f1;stroke:#f1f1f1;" x="492.328324" xlink:href="#C0_0_72fb2b75d1" y="407.252544"/>
    </g>
    <g clip-path="url(#pc8040e900a)">
     <use style="fill:#f3f3f3;stroke:#f3f3f3;" x="618.694215" xlink:href="#C0_0_72fb2b75d1" y="320.33378"/>
    </g>
    <g clip-path="url(#pc8040e900a)">
     <use style="fill:#f2f2f2;stroke:#f2f2f2;" x="230.32487" xlink:href="#C0_0_72fb2b75d1" y="76.778894"/>
    </g>
    <g clip-path="url(#pc8040e900a)">
     <use style="fill:#f2f2f2;stroke:#f2f2f2;" x="564.634775" xlink:href="#C0_0_72fb2b75d1" y="346.126662"/>
    </g>
    <g clip-path="url(#pc8040e900a)">
     <use style="fill:#f1f1f1;stroke:#f1f1f1;" x="439.077324" xlink:href="#C0_0_72fb2b75d1" y="344.83933"/>
    </g>
    <g clip-path="url(#pc8040e900a)">
     <use style="fill:#f2f2f2;stroke:#f2f2f2;" x="72.009429" xlink:href="#C0_0_72fb2b75d1" y="253.458182"/>
    </g>
    <g clip-path="url(#pc8040e900a)">
     <use style="fill:#ececec;stroke:#ececec;" x="211.925078" xlink:href="#C0_0_72fb2b75d1" y="362.009139"/>
    </g>
    <g clip-path="url(#pc8040e900a)">
     <use style="fill:#f1f1f1;stroke:#f1f1f1;" x="80.645662" xlink:href="#C0_0_72fb2b75d1" y="204.027323"/>
    </g>
    <g clip-path="url(#pc8040e900a)">
     <use style="fill:#f2f2f2;stroke:#f2f2f2;" x="114.301046" xlink:href="#C0_0_72fb2b75d1" y="152.039624"/>
    </g>
    <g clip-path="url(#pc8040e900a)">
     <use style="fill:#d1d1d1;stroke:#d1d1d1;" x="217.042256" xlink:href="#C0_0_72fb2b75d1" y="334.000999"/>
    </g>
    <g clip-path="url(#pc8040e900a)">
     <use style="fill:#e1e1e1;stroke:#e1e1e1;" x="254.101772" xlink:href="#C0_0_72fb2b75d1" y="197.505849"/>
    </g>
    <g clip-path="url(#pc8040e900a)">
     <use style="fill:#a0a0a0;stroke:#a0a0a0;" x="417.302276" xlink:href="#C0_0_72fb2b75d1" y="189.690309"/>
    </g>
    <g clip-path="url(#pc8040e900a)">
     <use style="fill:#9e9e9e;stroke:#9e9e9e;" x="397.19448" xlink:href="#C0_0_72fb2b75d1" y="171.81479"/>
    </g>
    <g clip-path="url(#pc8040e900a)">
     <use style="fill:#f2f2f2;stroke:#f2f2f2;" x="285.365031" xlink:href="#C0_0_72fb2b75d1" y="61.749139"/>
    </g>
    <g clip-path="url(#pc8040e900a)">
     <use style="fill:#676767;stroke:#676767;" x="326.788835" xlink:href="#C0_0_72fb2b75d1" y="193.573622"/>
    </g>
    <g clip-path="url(#pc8040e900a)">
     <use style="fill:#f2f2f2;stroke:#f2f2f2;" x="611.452337" xlink:href="#C0_0_72fb2b75d1" y="259.107186"/>
    </g>
    <g clip-path="url(#pc8040e900a)">
     <use style="fill:#f1f1f1;stroke:#f1f1f1;" x="400.229421" xlink:href="#C0_0_72fb2b75d1" y="425.419748"/>
    </g>
    <g clip-path="url(#pc8040e900a)">
     <use style="fill:#f1f1f1;stroke:#f1f1f1;" x="102.628744" xlink:href="#C0_0_72fb2b75d1" y="274.567259"/>
    </g>
    <g clip-path="url(#pc8040e900a)">
     <use style="fill:#f2f2f2;stroke:#f2f2f2;" x="84.608765" xlink:href="#C0_0_72fb2b75d1" y="306.230197"/>
    </g>
    <g clip-path="url(#pc8040e900a)">
     <use style="fill:#5f5f5f;stroke:#5f5f5f;" x="376.844046" xlink:href="#C0_0_72fb2b75d1" y="60.805398"/>
    </g>
    <g clip-path="url(#pc8040e900a)">
     <use style="fill:#606060;stroke:#606060;" x="173.105894" xlink:href="#C0_0_72fb2b75d1" y="87.707"/>
    </g>
    <g clip-path="url(#pc8040e900a)">
     <use style="fill:#f1f1f1;stroke:#f1f1f1;" x="200.638629" xlink:href="#C0_0_72fb2b75d1" y="393.051018"/>
    </g>
    <g clip-path="url(#pc8040e900a)">
     <use style="fill:#5f5f5f;stroke:#5f5f5f;" x="65.305785" xlink:href="#C0_0_72fb2b75d1" y="170.254259"/>
    </g>
    <g clip-path="url(#pc8040e900a)">
     <use style="fill:#e4e4e4;stroke:#e4e4e4;" x="260.066236" xlink:href="#C0_0_72fb2b75d1" y="283.873475"/>
    </g>
    <g clip-path="url(#pc8040e900a)">
     <use style="fill:#c7c7c7;stroke:#c7c7c7;" x="329.895209" xlink:href="#C0_0_72fb2b75d1" y="302.437501"/>
    </g>
    <g clip-path="url(#pc8040e900a)">
     <use style="fill:#676767;stroke:#676767;" x="485.134381" xlink:href="#C0_0_72fb2b75d1" y="86.648227"/>
    </g>
    <g clip-path="url(#pc8040e900a)">
     <use style="fill:#909090;stroke:#909090;" x="557.636779" xlink:href="#C0_0_72fb2b75d1" y="148.225283"/>
    </g>
    <g clip-path="url(#pc8040e900a)">
     <use style="fill:#cccccc;stroke:#cccccc;" x="472.558831" xlink:href="#C0_0_72fb2b75d1" y="153.931933"/>
    </g>
    <g clip-path="url(#pc8040e900a)">
     <use style="fill:#b8b8b8;stroke:#b8b8b8;" x="468.140506" xlink:href="#C0_0_72fb2b75d1" y="220.721854"/>
    </g>
    <g clip-path="url(#pc8040e900a)">
     <use style="fill:#dfdfdf;stroke:#dfdfdf;" x="392.956196" xlink:href="#C0_0_72fb2b75d1" y="144.730901"/>
    </g>
    <g clip-path="url(#pc8040e900a)">
     <use style="fill:#c2c2c2;stroke:#c2c2c2;" x="189.649914" xlink:href="#C0_0_72fb2b75d1" y="187.396224"/>
    </g>
    <g clip-path="url(#pc8040e900a)">
     <use style="fill:#f1f1f1;stroke:#f1f1f1;" x="350.934533" xlink:href="#C0_0_72fb2b75d1" y="412.625189"/>
    </g>
    <g clip-path="url(#pc8040e900a)">
     <use style="fill:#f2f2f2;stroke:#f2f2f2;" x="403.241283" xlink:href="#C0_0_72fb2b75d1" y="66.803572"/>
    </g>
    <g clip-path="url(#pc8040e900a)">
     <use style="fill:#e6e6e6;stroke:#e6e6e6;" x="453.339543" xlink:href="#C0_0_72fb2b75d1" y="255.138636"/>
    </g>
    <g clip-path="url(#pc8040e900a)">
     <use style="fill:#e0e0e0;stroke:#e0e0e0;" x="426.307229" xlink:href="#C0_0_72fb2b75d1" y="252.79397"/>
    </g>
    <g clip-path="url(#pc8040e900a)">
     <use style="fill:#f2f2f2;stroke:#f2f2f2;" x="399.417796" xlink:href="#C0_0_72fb2b75d1" y="249.094884"/>
    </g>
    <g clip-path="url(#pc8040e900a)">
     <use style="fill:#f2f2f2;stroke:#f2f2f2;" x="554.288478" xlink:href="#C0_0_72fb2b75d1" y="385.977542"/>
    </g>
    <g clip-path="url(#pc8040e900a)">
     <use style="fill:#f2f2f2;stroke:#f2f2f2;" x="293.77231" xlink:href="#C0_0_72fb2b75d1" y="427.350852"/>
    </g>
    <g clip-path="url(#pc8040e900a)">
     <use style="fill:#f2f2f2;stroke:#f2f2f2;" x="579.408808" xlink:href="#C0_0_72fb2b75d1" y="117.399318"/>
    </g>
    <g clip-path="url(#pc8040e900a)">
     <use style="fill:#f3f3f3;stroke:#f3f3f3;" x="121.854163" xlink:href="#C0_0_72fb2b75d1" y="374.110222"/>
    </g>
    <g clip-path="url(#pc8040e900a)">
     <use style="fill:#f3f3f3;stroke:#f3f3f3;" x="88.598826" xlink:href="#C0_0_72fb2b75d1" y="339.286127"/>
    </g>
   </g>
   <g id="text_1">
    <g clip-path="url(#pc8040e900a)">
     <!-- NF2 -->
     <g transform="translate(607.649773 223.149555)scale(0.1 -0.1)">
      <defs>
       <path d="M 9.8125 72.90625 
L 23.09375 72.90625 
L 55.421875 11.921875 
L 55.421875 72.90625 
L 64.984375 72.90625 
L 64.984375 0 
L 51.703125 0 
L 19.390625 60.984375 
L 19.390625 0 
L 9.8125 0 
z
" id="DejaVuSans-78"/>
       <path d="M 9.8125 72.90625 
L 51.703125 72.90625 
L 51.703125 64.59375 
L 19.671875 64.59375 
L 19.671875 43.109375 
L 48.578125 43.109375 
L 48.578125 34.8125 
L 19.671875 34.8125 
L 19.671875 0 
L 9.8125 0 
z
" id="DejaVuSans-70"/>
       <path d="M 19.1875 8.296875 
L 53.609375 8.296875 
L 53.609375 0 
L 7.328125 0 
L 7.328125 8.296875 
Q 12.9375 14.109375 22.625 23.890625 
Q 32.328125 33.6875 34.8125 36.53125 
Q 39.546875 41.84375 41.421875 45.53125 
Q 43.3125 49.21875 43.3125 52.78125 
Q 43.3125 58.59375 39.234375 62.25 
Q 35.15625 65.921875 28.609375 65.921875 
Q 23.96875 65.921875 18.8125 64.3125 
Q 13.671875 62.703125 7.8125 59.421875 
L 7.8125 69.390625 
Q 13.765625 71.78125 18.9375 73 
Q 24.125 74.21875 28.421875 74.21875 
Q 39.75 74.21875 46.484375 68.546875 
Q 53.21875 62.890625 53.21875 53.421875 
Q 53.21875 48.921875 51.53125 44.890625 
Q 49.859375 40.875 45.40625 35.40625 
Q 44.1875 33.984375 37.640625 27.21875 
Q 31.109375 20.453125 19.1875 8.296875 
z
" id="DejaVuSans-50"/>
      </defs>
      <use xlink:href="#DejaVuSans-78"/>
      <use x="74.804688" xlink:href="#DejaVuSans-70"/>
      <use x="132.324219" xlink:href="#DejaVuSans-50"/>
     </g>
    </g>
   </g>
   <g id="text_2">
    <g clip-path="url(#pc8040e900a)">
     <!-- STK3 -->
     <g transform="translate(479.640042 410.011919)scale(0.1 -0.1)">
      <defs>
       <path d="M 53.515625 70.515625 
L 53.515625 60.890625 
Q 47.90625 63.578125 42.921875 64.890625 
Q 37.9375 66.21875 33.296875 66.21875 
Q 25.25 66.21875 20.875 63.09375 
Q 16.5 59.96875 16.5 54.203125 
Q 16.5 49.359375 19.40625 46.890625 
Q 22.3125 44.4375 30.421875 42.921875 
L 36.375 41.703125 
Q 47.40625 39.59375 52.65625 34.296875 
Q 57.90625 29 57.90625 20.125 
Q 57.90625 9.515625 50.796875 4.046875 
Q 43.703125 -1.421875 29.984375 -1.421875 
Q 24.8125 -1.421875 18.96875 -0.25 
Q 13.140625 0.921875 6.890625 3.21875 
L 6.890625 13.375 
Q 12.890625 10.015625 18.65625 8.296875 
Q 24.421875 6.59375 29.984375 6.59375 
Q 38.421875 6.59375 43.015625 9.90625 
Q 47.609375 13.234375 47.609375 19.390625 
Q 47.609375 24.75 44.3125 27.78125 
Q 41.015625 30.8125 33.5 32.328125 
L 27.484375 33.5 
Q 16.453125 35.6875 11.515625 40.375 
Q 6.59375 45.0625 6.59375 53.421875 
Q 6.59375 63.09375 13.40625 68.65625 
Q 20.21875 74.21875 32.171875 74.21875 
Q 37.3125 74.21875 42.625 73.28125 
Q 47.953125 72.359375 53.515625 70.515625 
z
" id="DejaVuSans-83"/>
       <path d="M -0.296875 72.90625 
L 61.375 72.90625 
L 61.375 64.59375 
L 35.5 64.59375 
L 35.5 0 
L 25.59375 0 
L 25.59375 64.59375 
L -0.296875 64.59375 
z
" id="DejaVuSans-84"/>
       <path d="M 9.8125 72.90625 
L 19.671875 72.90625 
L 19.671875 42.09375 
L 52.390625 72.90625 
L 65.09375 72.90625 
L 28.90625 38.921875 
L 67.671875 0 
L 54.6875 0 
L 19.671875 35.109375 
L 19.671875 0 
L 9.8125 0 
z
" id="DejaVuSans-75"/>
       <path d="M 40.578125 39.3125 
Q 47.65625 37.796875 51.625 33 
Q 55.609375 28.21875 55.609375 21.1875 
Q 55.609375 10.40625 48.1875 4.484375 
Q 40.765625 -1.421875 27.09375 -1.421875 
Q 22.515625 -1.421875 17.65625 -0.515625 
Q 12.796875 0.390625 7.625 2.203125 
L 7.625 11.71875 
Q 11.71875 9.328125 16.59375 8.109375 
Q 21.484375 6.890625 26.8125 6.890625 
Q 36.078125 6.890625 40.9375 10.546875 
Q 45.796875 14.203125 45.796875 21.1875 
Q 45.796875 27.640625 41.28125 31.265625 
Q 36.765625 34.90625 28.71875 34.90625 
L 20.21875 34.90625 
L 20.21875 43.015625 
L 29.109375 43.015625 
Q 36.375 43.015625 40.234375 45.921875 
Q 44.09375 48.828125 44.09375 54.296875 
Q 44.09375 59.90625 40.109375 62.90625 
Q 36.140625 65.921875 28.71875 65.921875 
Q 24.65625 65.921875 20.015625 65.03125 
Q 15.375 64.15625 9.8125 62.3125 
L 9.8125 71.09375 
Q 15.4375 72.65625 20.34375 73.4375 
Q 25.25 74.21875 29.59375 74.21875 
Q 40.828125 74.21875 47.359375 69.109375 
Q 53.90625 64.015625 53.90625 55.328125 
Q 53.90625 49.265625 50.4375 45.09375 
Q 46.96875 40.921875 40.578125 39.3125 
z
" id="DejaVuSans-51"/>
      </defs>
      <use xlink:href="#DejaVuSans-83"/>
      <use x="63.476562" xlink:href="#DejaVuSans-84"/>
      <use x="124.560547" xlink:href="#DejaVuSans-75"/>
      <use x="190.136719" xlink:href="#DejaVuSans-51"/>
     </g>
    </g>
   </g>
   <g id="text_3">
    <g clip-path="url(#pc8040e900a)">
     <!-- RASSF1 -->
     <g transform="translate(599.594215 323.093155)scale(0.1 -0.1)">
      <defs>
       <path d="M 44.390625 34.1875 
Q 47.5625 33.109375 50.5625 29.59375 
Q 53.5625 26.078125 56.59375 19.921875 
L 66.609375 0 
L 56 0 
L 46.6875 18.703125 
Q 43.0625 26.03125 39.671875 28.421875 
Q 36.28125 30.8125 30.421875 30.8125 
L 19.671875 30.8125 
L 19.671875 0 
L 9.8125 0 
L 9.8125 72.90625 
L 32.078125 72.90625 
Q 44.578125 72.90625 50.734375 67.671875 
Q 56.890625 62.453125 56.890625 51.90625 
Q 56.890625 45.015625 53.6875 40.46875 
Q 50.484375 35.9375 44.390625 34.1875 
z
M 19.671875 64.796875 
L 19.671875 38.921875 
L 32.078125 38.921875 
Q 39.203125 38.921875 42.84375 42.21875 
Q 46.484375 45.515625 46.484375 51.90625 
Q 46.484375 58.296875 42.84375 61.546875 
Q 39.203125 64.796875 32.078125 64.796875 
z
" id="DejaVuSans-82"/>
       <path d="M 34.1875 63.1875 
L 20.796875 26.90625 
L 47.609375 26.90625 
z
M 28.609375 72.90625 
L 39.796875 72.90625 
L 67.578125 0 
L 57.328125 0 
L 50.6875 18.703125 
L 17.828125 18.703125 
L 11.1875 0 
L 0.78125 0 
z
" id="DejaVuSans-65"/>
       <path d="M 12.40625 8.296875 
L 28.515625 8.296875 
L 28.515625 63.921875 
L 10.984375 60.40625 
L 10.984375 69.390625 
L 28.421875 72.90625 
L 38.28125 72.90625 
L 38.28125 8.296875 
L 54.390625 8.296875 
L 54.390625 0 
L 12.40625 0 
z
" id="DejaVuSans-49"/>
      </defs>
      <use xlink:href="#DejaVuSans-82"/>
      <use x="65.482422" xlink:href="#DejaVuSans-65"/>
      <use x="133.890625" xlink:href="#DejaVuSans-83"/>
      <use x="197.367188" xlink:href="#DejaVuSans-83"/>
      <use x="260.84375" xlink:href="#DejaVuSans-70"/>
      <use x="318.363281" xlink:href="#DejaVuSans-49"/>
     </g>
    </g>
   </g>
   <g id="text_4">
    <g clip-path="url(#pc8040e900a)">
     <!-- BIRC5 -->
     <g transform="translate(215.522526 79.538269)scale(0.1 -0.1)">
      <defs>
       <path d="M 19.671875 34.8125 
L 19.671875 8.109375 
L 35.5 8.109375 
Q 43.453125 8.109375 47.28125 11.40625 
Q 51.125 14.703125 51.125 21.484375 
Q 51.125 28.328125 47.28125 31.5625 
Q 43.453125 34.8125 35.5 34.8125 
z
M 19.671875 64.796875 
L 19.671875 42.828125 
L 34.28125 42.828125 
Q 41.5 42.828125 45.03125 45.53125 
Q 48.578125 48.25 48.578125 53.8125 
Q 48.578125 59.328125 45.03125 62.0625 
Q 41.5 64.796875 34.28125 64.796875 
z
M 9.8125 72.90625 
L 35.015625 72.90625 
Q 46.296875 72.90625 52.390625 68.21875 
Q 58.5 63.53125 58.5 54.890625 
Q 58.5 48.1875 55.375 44.234375 
Q 52.25 40.28125 46.1875 39.3125 
Q 53.46875 37.75 57.5 32.78125 
Q 61.53125 27.828125 61.53125 20.40625 
Q 61.53125 10.640625 54.890625 5.3125 
Q 48.25 0 35.984375 0 
L 9.8125 0 
z
" id="DejaVuSans-66"/>
       <path d="M 9.8125 72.90625 
L 19.671875 72.90625 
L 19.671875 0 
L 9.8125 0 
z
" id="DejaVuSans-73"/>
       <path d="M 64.40625 67.28125 
L 64.40625 56.890625 
Q 59.421875 61.53125 53.78125 63.8125 
Q 48.140625 66.109375 41.796875 66.109375 
Q 29.296875 66.109375 22.65625 58.46875 
Q 16.015625 50.828125 16.015625 36.375 
Q 16.015625 21.96875 22.65625 14.328125 
Q 29.296875 6.6875 41.796875 6.6875 
Q 48.140625 6.6875 53.78125 8.984375 
Q 59.421875 11.28125 64.40625 15.921875 
L 64.40625 5.609375 
Q 59.234375 2.09375 53.4375 0.328125 
Q 47.65625 -1.421875 41.21875 -1.421875 
Q 24.65625 -1.421875 15.125 8.703125 
Q 5.609375 18.84375 5.609375 36.375 
Q 5.609375 53.953125 15.125 64.078125 
Q 24.65625 74.21875 41.21875 74.21875 
Q 47.75 74.21875 53.53125 72.484375 
Q 59.328125 70.75 64.40625 67.28125 
z
" id="DejaVuSans-67"/>
       <path d="M 10.796875 72.90625 
L 49.515625 72.90625 
L 49.515625 64.59375 
L 19.828125 64.59375 
L 19.828125 46.734375 
Q 21.96875 47.46875 24.109375 47.828125 
Q 26.265625 48.1875 28.421875 48.1875 
Q 40.625 48.1875 47.75 41.5 
Q 54.890625 34.8125 54.890625 23.390625 
Q 54.890625 11.625 47.5625 5.09375 
Q 40.234375 -1.421875 26.90625 -1.421875 
Q 22.3125 -1.421875 17.546875 -0.640625 
Q 12.796875 0.140625 7.71875 1.703125 
L 7.71875 11.625 
Q 12.109375 9.234375 16.796875 8.0625 
Q 21.484375 6.890625 26.703125 6.890625 
Q 35.15625 6.890625 40.078125 11.328125 
Q 45.015625 15.765625 45.015625 23.390625 
Q 45.015625 31 40.078125 35.4375 
Q 35.15625 39.890625 26.703125 39.890625 
Q 22.75 39.890625 18.8125 39.015625 
Q 14.890625 38.140625 10.796875 36.28125 
z
" id="DejaVuSans-53"/>
      </defs>
      <use xlink:href="#DejaVuSans-66"/>
      <use x="68.603516" xlink:href="#DejaVuSans-73"/>
      <use x="98.095703" xlink:href="#DejaVuSans-82"/>
      <use x="162.578125" xlink:href="#DejaVuSans-67"/>
      <use x="232.402344" xlink:href="#DejaVuSans-53"/>
     </g>
    </g>
   </g>
   <g id="text_5">
    <g clip-path="url(#pc8040e900a)">
     <!-- AREG -->
     <g transform="translate(550.70665 348.886037)scale(0.1 -0.1)">
      <defs>
       <path d="M 9.8125 72.90625 
L 55.90625 72.90625 
L 55.90625 64.59375 
L 19.671875 64.59375 
L 19.671875 43.015625 
L 54.390625 43.015625 
L 54.390625 34.71875 
L 19.671875 34.71875 
L 19.671875 8.296875 
L 56.78125 8.296875 
L 56.78125 0 
L 9.8125 0 
z
" id="DejaVuSans-69"/>
       <path d="M 59.515625 10.40625 
L 59.515625 29.984375 
L 43.40625 29.984375 
L 43.40625 38.09375 
L 69.28125 38.09375 
L 69.28125 6.78125 
Q 63.578125 2.734375 56.6875 0.65625 
Q 49.8125 -1.421875 42 -1.421875 
Q 24.90625 -1.421875 15.25 8.5625 
Q 5.609375 18.5625 5.609375 36.375 
Q 5.609375 54.25 15.25 64.234375 
Q 24.90625 74.21875 42 74.21875 
Q 49.125 74.21875 55.546875 72.453125 
Q 61.96875 70.703125 67.390625 67.28125 
L 67.390625 56.78125 
Q 61.921875 61.421875 55.765625 63.765625 
Q 49.609375 66.109375 42.828125 66.109375 
Q 29.4375 66.109375 22.71875 58.640625 
Q 16.015625 51.171875 16.015625 36.375 
Q 16.015625 21.625 22.71875 14.15625 
Q 29.4375 6.6875 42.828125 6.6875 
Q 48.046875 6.6875 52.140625 7.59375 
Q 56.25 8.5 59.515625 10.40625 
z
" id="DejaVuSans-71"/>
      </defs>
      <use xlink:href="#DejaVuSans-65"/>
      <use x="68.408203" xlink:href="#DejaVuSans-82"/>
      <use x="137.890625" xlink:href="#DejaVuSans-69"/>
      <use x="201.074219" xlink:href="#DejaVuSans-71"/>
     </g>
    </g>
   </g>
   <g id="text_6">
    <g clip-path="url(#pc8040e900a)">
     <!-- TP53BP2 -->
     <g transform="translate(417.019512 347.598705)scale(0.1 -0.1)">
      <defs>
       <path d="M 19.671875 64.796875 
L 19.671875 37.40625 
L 32.078125 37.40625 
Q 38.96875 37.40625 42.71875 40.96875 
Q 46.484375 44.53125 46.484375 51.125 
Q 46.484375 57.671875 42.71875 61.234375 
Q 38.96875 64.796875 32.078125 64.796875 
z
M 9.8125 72.90625 
L 32.078125 72.90625 
Q 44.34375 72.90625 50.609375 67.359375 
Q 56.890625 61.8125 56.890625 51.125 
Q 56.890625 40.328125 50.609375 34.8125 
Q 44.34375 29.296875 32.078125 29.296875 
L 19.671875 29.296875 
L 19.671875 0 
L 9.8125 0 
z
" id="DejaVuSans-80"/>
      </defs>
      <use xlink:href="#DejaVuSans-84"/>
      <use x="61.083984" xlink:href="#DejaVuSans-80"/>
      <use x="121.386719" xlink:href="#DejaVuSans-53"/>
      <use x="185.009766" xlink:href="#DejaVuSans-51"/>
      <use x="248.632812" xlink:href="#DejaVuSans-66"/>
      <use x="317.236328" xlink:href="#DejaVuSans-80"/>
      <use x="377.539062" xlink:href="#DejaVuSans-50"/>
     </g>
    </g>
   </g>
   <g id="text_7">
    <g clip-path="url(#pc8040e900a)">
     <!-- MPP5 -->
     <g transform="translate(58.484429 256.217557)scale(0.1 -0.1)">
      <defs>
       <path d="M 9.8125 72.90625 
L 24.515625 72.90625 
L 43.109375 23.296875 
L 61.8125 72.90625 
L 76.515625 72.90625 
L 76.515625 0 
L 66.890625 0 
L 66.890625 64.015625 
L 48.09375 14.015625 
L 38.1875 14.015625 
L 19.390625 64.015625 
L 19.390625 0 
L 9.8125 0 
z
" id="DejaVuSans-77"/>
      </defs>
      <use xlink:href="#DejaVuSans-77"/>
      <use x="86.279297" xlink:href="#DejaVuSans-80"/>
      <use x="146.582031" xlink:href="#DejaVuSans-80"/>
      <use x="206.884766" xlink:href="#DejaVuSans-53"/>
     </g>
    </g>
   </g>
   <g id="text_8">
    <g clip-path="url(#pc8040e900a)">
     <!-- INADL -->
     <g transform="translate(196.653203 364.768514)scale(0.1 -0.1)">
      <defs>
       <path d="M 19.671875 64.796875 
L 19.671875 8.109375 
L 31.59375 8.109375 
Q 46.6875 8.109375 53.6875 14.9375 
Q 60.6875 21.78125 60.6875 36.53125 
Q 60.6875 51.171875 53.6875 57.984375 
Q 46.6875 64.796875 31.59375 64.796875 
z
M 9.8125 72.90625 
L 30.078125 72.90625 
Q 51.265625 72.90625 61.171875 64.09375 
Q 71.09375 55.28125 71.09375 36.53125 
Q 71.09375 17.671875 61.125 8.828125 
Q 51.171875 0 30.078125 0 
L 9.8125 0 
z
" id="DejaVuSans-68"/>
       <path d="M 9.8125 72.90625 
L 19.671875 72.90625 
L 19.671875 8.296875 
L 55.171875 8.296875 
L 55.171875 0 
L 9.8125 0 
z
" id="DejaVuSans-76"/>
      </defs>
      <use xlink:href="#DejaVuSans-73"/>
      <use x="29.492188" xlink:href="#DejaVuSans-78"/>
      <use x="104.296875" xlink:href="#DejaVuSans-65"/>
      <use x="172.705078" xlink:href="#DejaVuSans-68"/>
      <use x="249.707031" xlink:href="#DejaVuSans-76"/>
     </g>
    </g>
   </g>
   <g id="text_9">
    <g clip-path="url(#pc8040e900a)">
     <!-- SCRIB -->
     <g transform="translate(65.60035 206.786698)scale(0.1 -0.1)">
      <use xlink:href="#DejaVuSans-83"/>
      <use x="63.476562" xlink:href="#DejaVuSans-67"/>
      <use x="133.300781" xlink:href="#DejaVuSans-82"/>
      <use x="202.783203" xlink:href="#DejaVuSans-73"/>
      <use x="232.275391" xlink:href="#DejaVuSans-66"/>
     </g>
    </g>
   </g>
   <g id="text_10">
    <g clip-path="url(#pc8040e900a)">
     <!-- ITGB2 -->
     <g transform="translate(99.286202 154.798999)scale(0.1 -0.1)">
      <use xlink:href="#DejaVuSans-73"/>
      <use x="29.492188" xlink:href="#DejaVuSans-84"/>
      <use x="90.576172" xlink:href="#DejaVuSans-71"/>
      <use x="168.066406" xlink:href="#DejaVuSans-66"/>
      <use x="236.669922" xlink:href="#DejaVuSans-50"/>
     </g>
    </g>
   </g>
   <g id="text_11">
    <g clip-path="url(#pc8040e900a)">
     <!-- SMAD4 -->
     <g transform="translate(199.102412 336.760374)scale(0.1 -0.1)">
      <defs>
       <path d="M 37.796875 64.3125 
L 12.890625 25.390625 
L 37.796875 25.390625 
z
M 35.203125 72.90625 
L 47.609375 72.90625 
L 47.609375 25.390625 
L 58.015625 25.390625 
L 58.015625 17.1875 
L 47.609375 17.1875 
L 47.609375 0 
L 37.796875 0 
L 37.796875 17.1875 
L 4.890625 17.1875 
L 4.890625 26.703125 
z
" id="DejaVuSans-52"/>
      </defs>
      <use xlink:href="#DejaVuSans-83"/>
      <use x="63.476562" xlink:href="#DejaVuSans-77"/>
      <use x="149.755859" xlink:href="#DejaVuSans-65"/>
      <use x="218.164062" xlink:href="#DejaVuSans-68"/>
      <use x="295.166016" xlink:href="#DejaVuSans-52"/>
     </g>
    </g>
   </g>
   <g id="text_12">
    <g clip-path="url(#pc8040e900a)">
     <!-- SMAD7 -->
     <g transform="translate(236.161928 200.265224)scale(0.1 -0.1)">
      <defs>
       <path d="M 8.203125 72.90625 
L 55.078125 72.90625 
L 55.078125 68.703125 
L 28.609375 0 
L 18.3125 0 
L 43.21875 64.59375 
L 8.203125 64.59375 
z
" id="DejaVuSans-55"/>
      </defs>
      <use xlink:href="#DejaVuSans-83"/>
      <use x="63.476562" xlink:href="#DejaVuSans-77"/>
      <use x="149.755859" xlink:href="#DejaVuSans-65"/>
      <use x="218.164062" xlink:href="#DejaVuSans-68"/>
      <use x="295.166016" xlink:href="#DejaVuSans-55"/>
     </g>
    </g>
   </g>
   <g id="text_13">
    <g clip-path="url(#pc8040e900a)">
     <!-- GSK3B -->
     <g transform="translate(400.363214 192.449684)scale(0.1 -0.1)">
      <use xlink:href="#DejaVuSans-71"/>
      <use x="77.490234" xlink:href="#DejaVuSans-83"/>
      <use x="140.966797" xlink:href="#DejaVuSans-75"/>
      <use x="206.542969" xlink:href="#DejaVuSans-51"/>
      <use x="270.166016" xlink:href="#DejaVuSans-66"/>
     </g>
    </g>
   </g>
   <g id="text_14">
    <g clip-path="url(#pc8040e900a)">
     <!-- CTNNB1 -->
     <g transform="translate(376.556198 174.574165)scale(0.1 -0.1)">
      <use xlink:href="#DejaVuSans-67"/>
      <use x="69.824219" xlink:href="#DejaVuSans-84"/>
      <use x="130.908203" xlink:href="#DejaVuSans-78"/>
      <use x="205.712891" xlink:href="#DejaVuSans-78"/>
      <use x="280.517578" xlink:href="#DejaVuSans-66"/>
      <use x="349.121094" xlink:href="#DejaVuSans-49"/>
     </g>
    </g>
   </g>
   <g id="text_15">
    <g clip-path="url(#pc8040e900a)">
     <!-- APC -->
     <g transform="translate(275.438469 64.508514)scale(0.1 -0.1)">
      <use xlink:href="#DejaVuSans-65"/>
      <use x="68.408203" xlink:href="#DejaVuSans-80"/>
      <use x="128.710938" xlink:href="#DejaVuSans-67"/>
     </g>
    </g>
   </g>
   <g id="text_16">
    <g clip-path="url(#pc8040e900a)">
     <!-- WWTR1 -->
     <g transform="translate(307.19196 196.332997)scale(0.1 -0.1)">
      <defs>
       <path d="M 3.328125 72.90625 
L 13.28125 72.90625 
L 28.609375 11.28125 
L 43.890625 72.90625 
L 54.984375 72.90625 
L 70.3125 11.28125 
L 85.59375 72.90625 
L 95.609375 72.90625 
L 77.296875 0 
L 64.890625 0 
L 49.515625 63.28125 
L 33.984375 0 
L 21.578125 0 
z
" id="DejaVuSans-87"/>
      </defs>
      <use xlink:href="#DejaVuSans-87"/>
      <use x="98.876953" xlink:href="#DejaVuSans-87"/>
      <use x="197.753906" xlink:href="#DejaVuSans-84"/>
      <use x="258.837891" xlink:href="#DejaVuSans-82"/>
      <use x="328.320312" xlink:href="#DejaVuSans-49"/>
     </g>
    </g>
   </g>
   <g id="text_17">
    <g clip-path="url(#pc8040e900a)">
     <!-- MYC -->
     <g transform="translate(600.867962 261.866561)scale(0.1 -0.1)">
      <defs>
       <path d="M -0.203125 72.90625 
L 10.40625 72.90625 
L 30.609375 42.921875 
L 50.6875 72.90625 
L 61.28125 72.90625 
L 35.5 34.71875 
L 35.5 0 
L 25.59375 0 
L 25.59375 34.71875 
z
" id="DejaVuSans-89"/>
      </defs>
      <use xlink:href="#DejaVuSans-77"/>
      <use x="86.279297" xlink:href="#DejaVuSans-89"/>
      <use x="141.863281" xlink:href="#DejaVuSans-67"/>
     </g>
    </g>
   </g>
   <g id="text_18">
    <g clip-path="url(#pc8040e900a)">
     <!-- ID1 -->
     <g transform="translate(391.723171 428.179123)scale(0.1 -0.1)">
      <use xlink:href="#DejaVuSans-73"/>
      <use x="29.492188" xlink:href="#DejaVuSans-68"/>
      <use x="106.494141" xlink:href="#DejaVuSans-49"/>
     </g>
    </g>
   </g>
   <g id="text_19">
    <g clip-path="url(#pc8040e900a)">
     <!-- ID2 -->
     <g transform="translate(94.122494 277.326634)scale(0.1 -0.1)">
      <use xlink:href="#DejaVuSans-73"/>
      <use x="29.492188" xlink:href="#DejaVuSans-68"/>
      <use x="106.494141" xlink:href="#DejaVuSans-50"/>
     </g>
    </g>
   </g>
   <g id="text_20">
    <g clip-path="url(#pc8040e900a)">
     <!-- BBC3 -->
     <g transform="translate(71.162672 308.989572)scale(0.1 -0.1)">
      <use xlink:href="#DejaVuSans-66"/>
      <use x="68.603516" xlink:href="#DejaVuSans-66"/>
      <use x="135.457031" xlink:href="#DejaVuSans-67"/>
      <use x="205.28125" xlink:href="#DejaVuSans-51"/>
     </g>
    </g>
   </g>
   <g id="text_21">
    <g clip-path="url(#pc8040e900a)">
     <!-- YWHAE -->
     <g transform="translate(358.506546 63.564773)scale(0.1 -0.1)">
      <defs>
       <path d="M 9.8125 72.90625 
L 19.671875 72.90625 
L 19.671875 43.015625 
L 55.515625 43.015625 
L 55.515625 72.90625 
L 65.375 72.90625 
L 65.375 0 
L 55.515625 0 
L 55.515625 34.71875 
L 19.671875 34.71875 
L 19.671875 0 
L 9.8125 0 
z
" id="DejaVuSans-72"/>
      </defs>
      <use xlink:href="#DejaVuSans-89"/>
      <use x="61.083984" xlink:href="#DejaVuSans-87"/>
      <use x="159.960938" xlink:href="#DejaVuSans-72"/>
      <use x="235.15625" xlink:href="#DejaVuSans-65"/>
      <use x="303.564453" xlink:href="#DejaVuSans-69"/>
     </g>
    </g>
   </g>
   <g id="text_22">
    <g clip-path="url(#pc8040e900a)">
     <!-- DLG1 -->
     <g transform="translate(159.414488 90.466375)scale(0.1 -0.1)">
      <use xlink:href="#DejaVuSans-68"/>
      <use x="77.001953" xlink:href="#DejaVuSans-76"/>
      <use x="132.714844" xlink:href="#DejaVuSans-71"/>
      <use x="210.205078" xlink:href="#DejaVuSans-49"/>
     </g>
    </g>
   </g>
   <g id="text_23">
    <g clip-path="url(#pc8040e900a)">
     <!-- DLG3 -->
     <g transform="translate(186.947223 395.810393)scale(0.1 -0.1)">
      <use xlink:href="#DejaVuSans-68"/>
      <use x="77.001953" xlink:href="#DejaVuSans-76"/>
      <use x="132.714844" xlink:href="#DejaVuSans-71"/>
      <use x="210.205078" xlink:href="#DejaVuSans-51"/>
     </g>
    </g>
   </g>
   <g id="text_24">
    <g clip-path="url(#pc8040e900a)">
     <!-- DLG5 -->
     <g transform="translate(51.614379 173.013634)scale(0.1 -0.1)">
      <use xlink:href="#DejaVuSans-68"/>
      <use x="77.001953" xlink:href="#DejaVuSans-76"/>
      <use x="132.714844" xlink:href="#DejaVuSans-71"/>
      <use x="210.205078" xlink:href="#DejaVuSans-53"/>
     </g>
    </g>
   </g>
   <g id="text_25">
    <g clip-path="url(#pc8040e900a)">
     <!-- SMAD2 -->
     <g transform="translate(242.126392 286.63285)scale(0.1 -0.1)">
      <use xlink:href="#DejaVuSans-83"/>
      <use x="63.476562" xlink:href="#DejaVuSans-77"/>
      <use x="149.755859" xlink:href="#DejaVuSans-65"/>
      <use x="218.164062" xlink:href="#DejaVuSans-68"/>
      <use x="295.166016" xlink:href="#DejaVuSans-50"/>
     </g>
    </g>
   </g>
   <g id="text_26">
    <g clip-path="url(#pc8040e900a)">
     <!-- SMAD3 -->
     <g transform="translate(311.955365 305.196876)scale(0.1 -0.1)">
      <use xlink:href="#DejaVuSans-83"/>
      <use x="63.476562" xlink:href="#DejaVuSans-77"/>
      <use x="149.755859" xlink:href="#DejaVuSans-65"/>
      <use x="218.164062" xlink:href="#DejaVuSans-68"/>
      <use x="295.166016" xlink:href="#DejaVuSans-51"/>
     </g>
    </g>
   </g>
   <g id="text_27">
    <g clip-path="url(#pc8040e900a)">
     <!-- CSNK1D -->
     <g transform="translate(464.417975 89.407602)scale(0.1 -0.1)">
      <use xlink:href="#DejaVuSans-67"/>
      <use x="69.824219" xlink:href="#DejaVuSans-83"/>
      <use x="133.300781" xlink:href="#DejaVuSans-78"/>
      <use x="208.105469" xlink:href="#DejaVuSans-75"/>
      <use x="273.681641" xlink:href="#DejaVuSans-49"/>
      <use x="337.304688" xlink:href="#DejaVuSans-68"/>
     </g>
    </g>
   </g>
   <g id="text_28">
    <g clip-path="url(#pc8040e900a)">
     <!-- CSNK1E -->
     <g transform="translate(537.610997 150.984658)scale(0.1 -0.1)">
      <use xlink:href="#DejaVuSans-67"/>
      <use x="69.824219" xlink:href="#DejaVuSans-83"/>
      <use x="133.300781" xlink:href="#DejaVuSans-78"/>
      <use x="208.105469" xlink:href="#DejaVuSans-75"/>
      <use x="273.681641" xlink:href="#DejaVuSans-49"/>
      <use x="337.304688" xlink:href="#DejaVuSans-69"/>
     </g>
    </g>
   </g>
   <g id="text_29">
    <g clip-path="url(#pc8040e900a)">
     <!-- TGFB1 -->
     <g transform="translate(456.143206 156.691308)scale(0.1 -0.1)">
      <use xlink:href="#DejaVuSans-84"/>
      <use x="61.083984" xlink:href="#DejaVuSans-71"/>
      <use x="138.574219" xlink:href="#DejaVuSans-70"/>
      <use x="196.09375" xlink:href="#DejaVuSans-66"/>
      <use x="264.697266" xlink:href="#DejaVuSans-49"/>
     </g>
    </g>
   </g>
   <g id="text_30">
    <g clip-path="url(#pc8040e900a)">
     <!-- TGFB3 -->
     <g transform="translate(451.724881 223.481229)scale(0.1 -0.1)">
      <use xlink:href="#DejaVuSans-84"/>
      <use x="61.083984" xlink:href="#DejaVuSans-71"/>
      <use x="138.574219" xlink:href="#DejaVuSans-70"/>
      <use x="196.09375" xlink:href="#DejaVuSans-66"/>
      <use x="264.697266" xlink:href="#DejaVuSans-51"/>
     </g>
    </g>
   </g>
   <g id="text_31">
    <g clip-path="url(#pc8040e900a)">
     <!-- TGFBR1 -->
     <g transform="translate(373.066352 147.490276)scale(0.1 -0.1)">
      <use xlink:href="#DejaVuSans-84"/>
      <use x="61.083984" xlink:href="#DejaVuSans-71"/>
      <use x="138.574219" xlink:href="#DejaVuSans-70"/>
      <use x="196.09375" xlink:href="#DejaVuSans-66"/>
      <use x="264.697266" xlink:href="#DejaVuSans-82"/>
      <use x="334.179688" xlink:href="#DejaVuSans-49"/>
     </g>
    </g>
   </g>
   <g id="text_32">
    <g clip-path="url(#pc8040e900a)">
     <!-- TGFBR2 -->
     <g transform="translate(169.76007 190.155599)scale(0.1 -0.1)">
      <use xlink:href="#DejaVuSans-84"/>
      <use x="61.083984" xlink:href="#DejaVuSans-71"/>
      <use x="138.574219" xlink:href="#DejaVuSans-70"/>
      <use x="196.09375" xlink:href="#DejaVuSans-66"/>
      <use x="264.697266" xlink:href="#DejaVuSans-82"/>
      <use x="334.179688" xlink:href="#DejaVuSans-50"/>
     </g>
    </g>
   </g>
   <g id="text_33">
    <g clip-path="url(#pc8040e900a)">
     <!-- AXIN1 -->
     <g transform="translate(335.692345 415.384564)scale(0.1 -0.1)">
      <defs>
       <path d="M 6.296875 72.90625 
L 16.890625 72.90625 
L 35.015625 45.796875 
L 53.21875 72.90625 
L 63.8125 72.90625 
L 40.375 37.890625 
L 65.375 0 
L 54.78125 0 
L 34.28125 31 
L 13.625 0 
L 2.984375 0 
L 29 38.921875 
z
" id="DejaVuSans-88"/>
      </defs>
      <use xlink:href="#DejaVuSans-65"/>
      <use x="68.408203" xlink:href="#DejaVuSans-88"/>
      <use x="136.914062" xlink:href="#DejaVuSans-73"/>
      <use x="166.40625" xlink:href="#DejaVuSans-78"/>
      <use x="241.210938" xlink:href="#DejaVuSans-49"/>
     </g>
    </g>
   </g>
   <g id="text_34">
    <g clip-path="url(#pc8040e900a)">
     <!-- AXIN2 -->
     <g transform="translate(387.999095 69.562947)scale(0.1 -0.1)">
      <use xlink:href="#DejaVuSans-65"/>
      <use x="68.408203" xlink:href="#DejaVuSans-88"/>
      <use x="136.914062" xlink:href="#DejaVuSans-73"/>
      <use x="166.40625" xlink:href="#DejaVuSans-78"/>
      <use x="241.210938" xlink:href="#DejaVuSans-50"/>
     </g>
    </g>
   </g>
   <g id="text_35">
    <g clip-path="url(#pc8040e900a)">
     <!-- TCF7 -->
     <g transform="translate(441.030949 257.898011)scale(0.1 -0.1)">
      <use xlink:href="#DejaVuSans-84"/>
      <use x="55.208984" xlink:href="#DejaVuSans-67"/>
      <use x="125.033203" xlink:href="#DejaVuSans-70"/>
      <use x="182.552734" xlink:href="#DejaVuSans-55"/>
     </g>
    </g>
   </g>
   <g id="text_36">
    <g clip-path="url(#pc8040e900a)">
     <!-- TCF7L2 -->
     <g transform="translate(408.031448 255.553345)scale(0.1 -0.1)">
      <use xlink:href="#DejaVuSans-84"/>
      <use x="55.208984" xlink:href="#DejaVuSans-67"/>
      <use x="125.033203" xlink:href="#DejaVuSans-70"/>
      <use x="182.552734" xlink:href="#DejaVuSans-55"/>
      <use x="246.175781" xlink:href="#DejaVuSans-76"/>
      <use x="301.888672" xlink:href="#DejaVuSans-50"/>
     </g>
    </g>
   </g>
   <g id="text_37">
    <g clip-path="url(#pc8040e900a)">
     <!-- LEF1 -->
     <g transform="translate(387.415453 251.854259)scale(0.1 -0.1)">
      <use xlink:href="#DejaVuSans-76"/>
      <use x="55.712891" xlink:href="#DejaVuSans-69"/>
      <use x="118.896484" xlink:href="#DejaVuSans-70"/>
      <use x="176.416016" xlink:href="#DejaVuSans-49"/>
     </g>
    </g>
   </g>
   <g id="text_38">
    <g clip-path="url(#pc8040e900a)">
     <!-- CCND1 -->
     <g transform="translate(536.53379 388.736917)scale(0.1 -0.1)">
      <use xlink:href="#DejaVuSans-67"/>
      <use x="69.824219" xlink:href="#DejaVuSans-67"/>
      <use x="139.648438" xlink:href="#DejaVuSans-78"/>
      <use x="214.453125" xlink:href="#DejaVuSans-68"/>
      <use x="291.455078" xlink:href="#DejaVuSans-49"/>
     </g>
    </g>
   </g>
   <g id="text_39">
    <g clip-path="url(#pc8040e900a)">
     <!-- CCND2 -->
     <g transform="translate(276.017622 430.110227)scale(0.1 -0.1)">
      <use xlink:href="#DejaVuSans-67"/>
      <use x="69.824219" xlink:href="#DejaVuSans-67"/>
      <use x="139.648438" xlink:href="#DejaVuSans-78"/>
      <use x="214.453125" xlink:href="#DejaVuSans-68"/>
      <use x="291.455078" xlink:href="#DejaVuSans-50"/>
     </g>
    </g>
   </g>
   <g id="text_40">
    <g clip-path="url(#pc8040e900a)">
     <!-- CCND3 -->
     <g transform="translate(561.654121 120.158693)scale(0.1 -0.1)">
      <use xlink:href="#DejaVuSans-67"/>
      <use x="69.824219" xlink:href="#DejaVuSans-67"/>
      <use x="139.648438" xlink:href="#DejaVuSans-78"/>
      <use x="214.453125" xlink:href="#DejaVuSans-68"/>
      <use x="291.455078" xlink:href="#DejaVuSans-51"/>
     </g>
    </g>
   </g>
   <g id="text_41">
    <g clip-path="url(#pc8040e900a)">
     <!-- BMPR1A -->
     <g transform="translate(101.019007 376.869597)scale(0.1 -0.1)">
      <use xlink:href="#DejaVuSans-66"/>
      <use x="68.603516" xlink:href="#DejaVuSans-77"/>
      <use x="154.882812" xlink:href="#DejaVuSans-80"/>
      <use x="215.185547" xlink:href="#DejaVuSans-82"/>
      <use x="284.667969" xlink:href="#DejaVuSans-49"/>
      <use x="348.291016" xlink:href="#DejaVuSans-65"/>
     </g>
    </g>
   </g>
   <g id="text_42">
    <g clip-path="url(#pc8040e900a)">
     <!-- BMPR2 -->
     <g transform="translate(71.183982 342.045502)scale(0.1 -0.1)">
      <use xlink:href="#DejaVuSans-66"/>
      <use x="68.603516" xlink:href="#DejaVuSans-77"/>
      <use x="154.882812" xlink:href="#DejaVuSans-80"/>
      <use x="215.185547" xlink:href="#DejaVuSans-82"/>
      <use x="284.667969" xlink:href="#DejaVuSans-50"/>
     </g>
    </g>
   </g>
   <g id="text_43">
    <!-- Importance Score for Each Node in the Network -->
    <g transform="translate(198.616875 16.318125)scale(0.12 -0.12)">
     <defs>
      <path d="M 52 44.1875 
Q 55.375 50.25 60.0625 53.125 
Q 64.75 56 71.09375 56 
Q 79.640625 56 84.28125 50.015625 
Q 88.921875 44.046875 88.921875 33.015625 
L 88.921875 0 
L 79.890625 0 
L 79.890625 32.71875 
Q 79.890625 40.578125 77.09375 44.375 
Q 74.3125 48.1875 68.609375 48.1875 
Q 61.625 48.1875 57.5625 43.546875 
Q 53.515625 38.921875 53.515625 30.90625 
L 53.515625 0 
L 44.484375 0 
L 44.484375 32.71875 
Q 44.484375 40.625 41.703125 44.40625 
Q 38.921875 48.1875 33.109375 48.1875 
Q 26.21875 48.1875 22.15625 43.53125 
Q 18.109375 38.875 18.109375 30.90625 
L 18.109375 0 
L 9.078125 0 
L 9.078125 54.6875 
L 18.109375 54.6875 
L 18.109375 46.1875 
Q 21.1875 51.21875 25.484375 53.609375 
Q 29.78125 56 35.6875 56 
Q 41.65625 56 45.828125 52.96875 
Q 50 49.953125 52 44.1875 
z
" id="DejaVuSans-109"/>
      <path d="M 18.109375 8.203125 
L 18.109375 -20.796875 
L 9.078125 -20.796875 
L 9.078125 54.6875 
L 18.109375 54.6875 
L 18.109375 46.390625 
Q 20.953125 51.265625 25.265625 53.625 
Q 29.59375 56 35.59375 56 
Q 45.5625 56 51.78125 48.09375 
Q 58.015625 40.1875 58.015625 27.296875 
Q 58.015625 14.40625 51.78125 6.484375 
Q 45.5625 -1.421875 35.59375 -1.421875 
Q 29.59375 -1.421875 25.265625 0.953125 
Q 20.953125 3.328125 18.109375 8.203125 
z
M 48.6875 27.296875 
Q 48.6875 37.203125 44.609375 42.84375 
Q 40.53125 48.484375 33.40625 48.484375 
Q 26.265625 48.484375 22.1875 42.84375 
Q 18.109375 37.203125 18.109375 27.296875 
Q 18.109375 17.390625 22.1875 11.75 
Q 26.265625 6.109375 33.40625 6.109375 
Q 40.53125 6.109375 44.609375 11.75 
Q 48.6875 17.390625 48.6875 27.296875 
z
" id="DejaVuSans-112"/>
      <path d="M 30.609375 48.390625 
Q 23.390625 48.390625 19.1875 42.75 
Q 14.984375 37.109375 14.984375 27.296875 
Q 14.984375 17.484375 19.15625 11.84375 
Q 23.34375 6.203125 30.609375 6.203125 
Q 37.796875 6.203125 41.984375 11.859375 
Q 46.1875 17.53125 46.1875 27.296875 
Q 46.1875 37.015625 41.984375 42.703125 
Q 37.796875 48.390625 30.609375 48.390625 
z
M 30.609375 56 
Q 42.328125 56 49.015625 48.375 
Q 55.71875 40.765625 55.71875 27.296875 
Q 55.71875 13.875 49.015625 6.21875 
Q 42.328125 -1.421875 30.609375 -1.421875 
Q 18.84375 -1.421875 12.171875 6.21875 
Q 5.515625 13.875 5.515625 27.296875 
Q 5.515625 40.765625 12.171875 48.375 
Q 18.84375 56 30.609375 56 
z
" id="DejaVuSans-111"/>
      <path d="M 41.109375 46.296875 
Q 39.59375 47.171875 37.8125 47.578125 
Q 36.03125 48 33.890625 48 
Q 26.265625 48 22.1875 43.046875 
Q 18.109375 38.09375 18.109375 28.8125 
L 18.109375 0 
L 9.078125 0 
L 9.078125 54.6875 
L 18.109375 54.6875 
L 18.109375 46.1875 
Q 20.953125 51.171875 25.484375 53.578125 
Q 30.03125 56 36.53125 56 
Q 37.453125 56 38.578125 55.875 
Q 39.703125 55.765625 41.0625 55.515625 
z
" id="DejaVuSans-114"/>
      <path d="M 18.3125 70.21875 
L 18.3125 54.6875 
L 36.8125 54.6875 
L 36.8125 47.703125 
L 18.3125 47.703125 
L 18.3125 18.015625 
Q 18.3125 11.328125 20.140625 9.421875 
Q 21.96875 7.515625 27.59375 7.515625 
L 36.8125 7.515625 
L 36.8125 0 
L 27.59375 0 
Q 17.1875 0 13.234375 3.875 
Q 9.28125 7.765625 9.28125 18.015625 
L 9.28125 47.703125 
L 2.6875 47.703125 
L 2.6875 54.6875 
L 9.28125 54.6875 
L 9.28125 70.21875 
z
" id="DejaVuSans-116"/>
      <path d="M 34.28125 27.484375 
Q 23.390625 27.484375 19.1875 25 
Q 14.984375 22.515625 14.984375 16.5 
Q 14.984375 11.71875 18.140625 8.90625 
Q 21.296875 6.109375 26.703125 6.109375 
Q 34.1875 6.109375 38.703125 11.40625 
Q 43.21875 16.703125 43.21875 25.484375 
L 43.21875 27.484375 
z
M 52.203125 31.203125 
L 52.203125 0 
L 43.21875 0 
L 43.21875 8.296875 
Q 40.140625 3.328125 35.546875 0.953125 
Q 30.953125 -1.421875 24.3125 -1.421875 
Q 15.921875 -1.421875 10.953125 3.296875 
Q 6 8.015625 6 15.921875 
Q 6 25.140625 12.171875 29.828125 
Q 18.359375 34.515625 30.609375 34.515625 
L 43.21875 34.515625 
L 43.21875 35.40625 
Q 43.21875 41.609375 39.140625 45 
Q 35.0625 48.390625 27.6875 48.390625 
Q 23 48.390625 18.546875 47.265625 
Q 14.109375 46.140625 10.015625 43.890625 
L 10.015625 52.203125 
Q 14.9375 54.109375 19.578125 55.046875 
Q 24.21875 56 28.609375 56 
Q 40.484375 56 46.34375 49.84375 
Q 52.203125 43.703125 52.203125 31.203125 
z
" id="DejaVuSans-97"/>
      <path d="M 54.890625 33.015625 
L 54.890625 0 
L 45.90625 0 
L 45.90625 32.71875 
Q 45.90625 40.484375 42.875 44.328125 
Q 39.84375 48.1875 33.796875 48.1875 
Q 26.515625 48.1875 22.3125 43.546875 
Q 18.109375 38.921875 18.109375 30.90625 
L 18.109375 0 
L 9.078125 0 
L 9.078125 54.6875 
L 18.109375 54.6875 
L 18.109375 46.1875 
Q 21.34375 51.125 25.703125 53.5625 
Q 30.078125 56 35.796875 56 
Q 45.21875 56 50.046875 50.171875 
Q 54.890625 44.34375 54.890625 33.015625 
z
" id="DejaVuSans-110"/>
      <path d="M 48.78125 52.59375 
L 48.78125 44.1875 
Q 44.96875 46.296875 41.140625 47.34375 
Q 37.3125 48.390625 33.40625 48.390625 
Q 24.65625 48.390625 19.8125 42.84375 
Q 14.984375 37.3125 14.984375 27.296875 
Q 14.984375 17.28125 19.8125 11.734375 
Q 24.65625 6.203125 33.40625 6.203125 
Q 37.3125 6.203125 41.140625 7.25 
Q 44.96875 8.296875 48.78125 10.40625 
L 48.78125 2.09375 
Q 45.015625 0.34375 40.984375 -0.53125 
Q 36.96875 -1.421875 32.421875 -1.421875 
Q 20.0625 -1.421875 12.78125 6.34375 
Q 5.515625 14.109375 5.515625 27.296875 
Q 5.515625 40.671875 12.859375 48.328125 
Q 20.21875 56 33.015625 56 
Q 37.15625 56 41.109375 55.140625 
Q 45.0625 54.296875 48.78125 52.59375 
z
" id="DejaVuSans-99"/>
      <path d="M 56.203125 29.59375 
L 56.203125 25.203125 
L 14.890625 25.203125 
Q 15.484375 15.921875 20.484375 11.0625 
Q 25.484375 6.203125 34.421875 6.203125 
Q 39.59375 6.203125 44.453125 7.46875 
Q 49.3125 8.734375 54.109375 11.28125 
L 54.109375 2.78125 
Q 49.265625 0.734375 44.1875 -0.34375 
Q 39.109375 -1.421875 33.890625 -1.421875 
Q 20.796875 -1.421875 13.15625 6.1875 
Q 5.515625 13.8125 5.515625 26.8125 
Q 5.515625 40.234375 12.765625 48.109375 
Q 20.015625 56 32.328125 56 
Q 43.359375 56 49.78125 48.890625 
Q 56.203125 41.796875 56.203125 29.59375 
z
M 47.21875 32.234375 
Q 47.125 39.59375 43.09375 43.984375 
Q 39.0625 48.390625 32.421875 48.390625 
Q 24.90625 48.390625 20.390625 44.140625 
Q 15.875 39.890625 15.1875 32.171875 
z
" id="DejaVuSans-101"/>
      <path id="DejaVuSans-32"/>
      <path d="M 37.109375 75.984375 
L 37.109375 68.5 
L 28.515625 68.5 
Q 23.6875 68.5 21.796875 66.546875 
Q 19.921875 64.59375 19.921875 59.515625 
L 19.921875 54.6875 
L 34.71875 54.6875 
L 34.71875 47.703125 
L 19.921875 47.703125 
L 19.921875 0 
L 10.890625 0 
L 10.890625 47.703125 
L 2.296875 47.703125 
L 2.296875 54.6875 
L 10.890625 54.6875 
L 10.890625 58.5 
Q 10.890625 67.625 15.140625 71.796875 
Q 19.390625 75.984375 28.609375 75.984375 
z
" id="DejaVuSans-102"/>
      <path d="M 54.890625 33.015625 
L 54.890625 0 
L 45.90625 0 
L 45.90625 32.71875 
Q 45.90625 40.484375 42.875 44.328125 
Q 39.84375 48.1875 33.796875 48.1875 
Q 26.515625 48.1875 22.3125 43.546875 
Q 18.109375 38.921875 18.109375 30.90625 
L 18.109375 0 
L 9.078125 0 
L 9.078125 75.984375 
L 18.109375 75.984375 
L 18.109375 46.1875 
Q 21.34375 51.125 25.703125 53.5625 
Q 30.078125 56 35.796875 56 
Q 45.21875 56 50.046875 50.171875 
Q 54.890625 44.34375 54.890625 33.015625 
z
" id="DejaVuSans-104"/>
      <path d="M 45.40625 46.390625 
L 45.40625 75.984375 
L 54.390625 75.984375 
L 54.390625 0 
L 45.40625 0 
L 45.40625 8.203125 
Q 42.578125 3.328125 38.25 0.953125 
Q 33.9375 -1.421875 27.875 -1.421875 
Q 17.96875 -1.421875 11.734375 6.484375 
Q 5.515625 14.40625 5.515625 27.296875 
Q 5.515625 40.1875 11.734375 48.09375 
Q 17.96875 56 27.875 56 
Q 33.9375 56 38.25 53.625 
Q 42.578125 51.265625 45.40625 46.390625 
z
M 14.796875 27.296875 
Q 14.796875 17.390625 18.875 11.75 
Q 22.953125 6.109375 30.078125 6.109375 
Q 37.203125 6.109375 41.296875 11.75 
Q 45.40625 17.390625 45.40625 27.296875 
Q 45.40625 37.203125 41.296875 42.84375 
Q 37.203125 48.484375 30.078125 48.484375 
Q 22.953125 48.484375 18.875 42.84375 
Q 14.796875 37.203125 14.796875 27.296875 
z
" id="DejaVuSans-100"/>
      <path d="M 9.421875 54.6875 
L 18.40625 54.6875 
L 18.40625 0 
L 9.421875 0 
z
M 9.421875 75.984375 
L 18.40625 75.984375 
L 18.40625 64.59375 
L 9.421875 64.59375 
z
" id="DejaVuSans-105"/>
      <path d="M 4.203125 54.6875 
L 13.1875 54.6875 
L 24.421875 12.015625 
L 35.59375 54.6875 
L 46.1875 54.6875 
L 57.421875 12.015625 
L 68.609375 54.6875 
L 77.59375 54.6875 
L 63.28125 0 
L 52.6875 0 
L 40.921875 44.828125 
L 29.109375 0 
L 18.5 0 
z
" id="DejaVuSans-119"/>
      <path d="M 9.078125 75.984375 
L 18.109375 75.984375 
L 18.109375 31.109375 
L 44.921875 54.6875 
L 56.390625 54.6875 
L 27.390625 29.109375 
L 57.625 0 
L 45.90625 0 
L 18.109375 26.703125 
L 18.109375 0 
L 9.078125 0 
z
" id="DejaVuSans-107"/>
     </defs>
     <use xlink:href="#DejaVuSans-73"/>
     <use x="29.492188" xlink:href="#DejaVuSans-109"/>
     <use x="126.904297" xlink:href="#DejaVuSans-112"/>
     <use x="190.380859" xlink:href="#DejaVuSans-111"/>
     <use x="251.5625" xlink:href="#DejaVuSans-114"/>
     <use x="292.675781" xlink:href="#DejaVuSans-116"/>
     <use x="331.884766" xlink:href="#DejaVuSans-97"/>
     <use x="393.164062" xlink:href="#DejaVuSans-110"/>
     <use x="456.542969" xlink:href="#DejaVuSans-99"/>
     <use x="511.523438" xlink:href="#DejaVuSans-101"/>
     <use x="573.046875" xlink:href="#DejaVuSans-32"/>
     <use x="604.833984" xlink:href="#DejaVuSans-83"/>
     <use x="668.310547" xlink:href="#DejaVuSans-99"/>
     <use x="723.291016" xlink:href="#DejaVuSans-111"/>
     <use x="784.472656" xlink:href="#DejaVuSans-114"/>
     <use x="823.335938" xlink:href="#DejaVuSans-101"/>
     <use x="884.859375" xlink:href="#DejaVuSans-32"/>
     <use x="916.646484" xlink:href="#DejaVuSans-102"/>
     <use x="951.851562" xlink:href="#DejaVuSans-111"/>
     <use x="1013.033203" xlink:href="#DejaVuSans-114"/>
     <use x="1054.146484" xlink:href="#DejaVuSans-32"/>
     <use x="1085.933594" xlink:href="#DejaVuSans-69"/>
     <use x="1149.117188" xlink:href="#DejaVuSans-97"/>
     <use x="1210.396484" xlink:href="#DejaVuSans-99"/>
     <use x="1265.376953" xlink:href="#DejaVuSans-104"/>
     <use x="1328.755859" xlink:href="#DejaVuSans-32"/>
     <use x="1360.542969" xlink:href="#DejaVuSans-78"/>
     <use x="1435.347656" xlink:href="#DejaVuSans-111"/>
     <use x="1496.529297" xlink:href="#DejaVuSans-100"/>
     <use x="1560.005859" xlink:href="#DejaVuSans-101"/>
     <use x="1621.529297" xlink:href="#DejaVuSans-32"/>
     <use x="1653.316406" xlink:href="#DejaVuSans-105"/>
     <use x="1681.099609" xlink:href="#DejaVuSans-110"/>
     <use x="1744.478516" xlink:href="#DejaVuSans-32"/>
     <use x="1776.265625" xlink:href="#DejaVuSans-116"/>
     <use x="1815.474609" xlink:href="#DejaVuSans-104"/>
     <use x="1878.853516" xlink:href="#DejaVuSans-101"/>
     <use x="1940.376953" xlink:href="#DejaVuSans-32"/>
     <use x="1972.164062" xlink:href="#DejaVuSans-78"/>
     <use x="2046.96875" xlink:href="#DejaVuSans-101"/>
     <use x="2108.492188" xlink:href="#DejaVuSans-116"/>
     <use x="2147.701172" xlink:href="#DejaVuSans-119"/>
     <use x="2229.488281" xlink:href="#DejaVuSans-111"/>
     <use x="2290.669922" xlink:href="#DejaVuSans-114"/>
     <use x="2331.783203" xlink:href="#DejaVuSans-107"/>
    </g>
   </g>
  </g>
 </g>
 <defs>
  <clipPath id="pc8040e900a">
   <rect height="443.52" width="669.6" x="7.2" y="22.318125"/>
  </clipPath>
 </defs>
</svg>
