<?xml version="1.0" encoding="utf-8" standalone="no"?>
<!DOCTYPE svg PUBLIC "-//W3C//DTD SVG 1.1//EN"
  "http://www.w3.org/Graphics/SVG/1.1/DTD/svg11.dtd">
<!-- Created with matplotlib (https://matplotlib.org/) -->
<svg height="473.038125pt" version="1.1" viewBox="0 0 684 473.038125" width="684pt" xmlns="http://www.w3.org/2000/svg" xmlns:xlink="http://www.w3.org/1999/xlink">
 <metadata>
  <rdf:RDF xmlns:cc="http://creativecommons.org/ns#" xmlns:dc="http://purl.org/dc/elements/1.1/" xmlns:rdf="http://www.w3.org/1999/02/22-rdf-syntax-ns#">
   <cc:Work>
    <dc:type rdf:resource="http://purl.org/dc/dcmitype/StillImage"/>
    <dc:date>2024-04-25T16:26:54.981867</dc:date>
    <dc:format>image/svg+xml</dc:format>
    <dc:creator>
     <cc:Agent>
      <dc:title>Matplotlib v3.3.1, https://matplotlib.org/</dc:title>
     </cc:Agent>
    </dc:creator>
   </cc:Work>
  </rdf:RDF>
 </metadata>
 <defs>
  <style type="text/css">*{stroke-linecap:butt;stroke-linejoin:round;}</style>
 </defs>
 <g id="figure_1">
  <g id="patch_1">
   <path d="M 0 473.038125 
L 684 473.038125 
L 684 0 
L 0 0 
z
" style="fill:#ffffff;"/>
  </g>
  <g id="axes_1">
   <g id="patch_2">
    <path clip-path="url(#pa25bdafaea)" d="M 335.275191 208.321053 
Q 319.398168 187.377814 304.196575 167.325528 
" style="fill:none;stroke:#808080;stroke-linecap:round;"/>
    <path clip-path="url(#pa25bdafaea)" d="M 305.019279 171.721339 
L 304.196575 167.325528 
L 308.206846 169.304852 
L 305.019279 171.721339 
z
" style="fill:#808080;stroke:#808080;stroke-linecap:round;"/>
   </g>
   <g id="patch_3">
    <path clip-path="url(#pa25bdafaea)" d="M 348.862249 212.942694 
Q 376.019166 205.525093 402.097558 198.40208 
" style="fill:none;stroke:#808080;stroke-linecap:round;"/>
    <path clip-path="url(#pa25bdafaea)" d="M 397.711933 197.526701 
L 402.097558 198.40208 
L 398.765879 201.385353 
L 397.711933 197.526701 
z
" style="fill:#808080;stroke:#808080;stroke-linecap:round;"/>
   </g>
   <g id="patch_4">
    <path clip-path="url(#pa25bdafaea)" d="M 349.076786 213.971256 
Q 384.012468 208.861735 417.841886 203.91401 
" style="fill:none;stroke:#808080;stroke-linecap:round;"/>
    <path clip-path="url(#pa25bdafaea)" d="M 413.594562 202.513926 
L 417.841886 203.91401 
L 414.173424 206.471819 
L 413.594562 202.513926 
z
" style="fill:#808080;stroke:#808080;stroke-linecap:round;"/>
   </g>
   <g id="patch_5">
    <path clip-path="url(#pa25bdafaea)" d="M 346.768456 209.244769 
Q 390.609608 167.366202 433.642302 126.259902 
" style="fill:none;stroke:#808080;stroke-linecap:round;"/>
    <path clip-path="url(#pa25bdafaea)" d="M 429.368403 127.576634 
L 433.642302 126.259902 
L 432.131348 130.469061 
L 429.368403 127.576634 
z
" style="fill:#808080;stroke:#808080;stroke-linecap:round;"/>
   </g>
   <g id="patch_6">
    <path clip-path="url(#pa25bdafaea)" d="M 67.605705 240.966493 
Q 70.356854 230.981205 72.811027 222.073787 
" style="fill:none;stroke:#808080;stroke-linecap:round;"/>
    <path clip-path="url(#pa25bdafaea)" d="M 69.820382 225.39885 
L 72.811027 222.073787 
L 73.67669 226.461341 
L 69.820382 225.39885 
z
" style="fill:#808080;stroke:#808080;stroke-linecap:round;"/>
   </g>
   <g id="patch_7">
    <path clip-path="url(#pa25bdafaea)" d="M 245.833401 266.92702 
Q 289.370182 243.151355 331.925715 219.911556 
" style="fill:none;stroke:#808080;stroke-linecap:round;"/>
    <path clip-path="url(#pa25bdafaea)" d="M 327.456509 220.073414 
L 331.925715 219.911556 
L 329.373677 223.584035 
L 327.456509 220.073414 
z
" style="fill:#808080;stroke:#808080;stroke-linecap:round;"/>
   </g>
   <g id="patch_8">
    <path clip-path="url(#pa25bdafaea)" d="M 235.688533 262.801455 
Q 218.741666 207.687121 202.123395 153.641443 
" style="fill:none;stroke:#808080;stroke-linecap:round;"/>
    <path clip-path="url(#pa25bdafaea)" d="M 201.387347 158.052592 
L 202.123395 153.641443 
L 205.210685 156.87697 
L 201.387347 158.052592 
z
" style="fill:#808080;stroke:#808080;stroke-linecap:round;"/>
   </g>
   <g id="patch_9">
    <path clip-path="url(#pa25bdafaea)" d="M 246.709735 272.829587 
Q 313.420814 286.618984 379.037006 300.182064 
" style="fill:none;stroke:#808080;stroke-linecap:round;"/>
    <path clip-path="url(#pa25bdafaea)" d="M 375.524662 297.413772 
L 379.037006 300.182064 
L 374.714966 301.330964 
L 375.524662 297.413772 
z
" style="fill:#808080;stroke:#808080;stroke-linecap:round;"/>
   </g>
   <g id="patch_10">
    <path clip-path="url(#pa25bdafaea)" d="M 207.722242 146.095544 
Q 326.901057 171.428605 444.986272 196.529207 
" style="fill:none;stroke:#808080;stroke-linecap:round;"/>
    <path clip-path="url(#pa25bdafaea)" d="M 441.489524 193.741242 
L 444.986272 196.529207 
L 440.657851 197.653827 
L 441.489524 193.741242 
z
" style="fill:#808080;stroke:#808080;stroke-linecap:round;"/>
   </g>
   <g id="patch_11">
    <path clip-path="url(#pa25bdafaea)" d="M 206.987397 148.179988 
Q 269.879029 179.759484 331.771513 210.837282 
" style="fill:none;stroke:#808080;stroke-linecap:round;"/>
    <path clip-path="url(#pa25bdafaea)" d="M 329.094314 207.255019 
L 331.771513 210.837282 
L 327.299383 210.829684 
L 329.094314 207.255019 
z
" style="fill:#808080;stroke:#808080;stroke-linecap:round;"/>
   </g>
   <g id="patch_12">
    <path clip-path="url(#pa25bdafaea)" d="M 393.265702 294.855493 
Q 421.582324 250.363027 449.298652 206.813771 
" style="fill:none;stroke:#808080;stroke-linecap:round;"/>
    <path clip-path="url(#pa25bdafaea)" d="M 445.463708 209.114468 
L 449.298652 206.813771 
L 448.838243 211.262145 
L 445.463708 209.114468 
z
" style="fill:#808080;stroke:#808080;stroke-linecap:round;"/>
   </g>
   <g id="patch_13">
    <path clip-path="url(#pa25bdafaea)" d="M 384.421198 294.58201 
Q 364.561495 258.692113 345.243109 223.780467 
" style="fill:none;stroke:#808080;stroke-linecap:round;"/>
    <path clip-path="url(#pa25bdafaea)" d="M 345.429831 228.248704 
L 345.243109 223.780467 
L 348.929731 226.312031 
L 345.429831 228.248704 
z
" style="fill:#808080;stroke:#808080;stroke-linecap:round;"/>
   </g>
   <g id="patch_14">
    <path clip-path="url(#pa25bdafaea)" d="M 459.519567 95.09251 
Q 457.242607 142.502945 455.01928 188.796633 
" style="fill:none;stroke:#808080;stroke-linecap:round;"/>
    <path clip-path="url(#pa25bdafaea)" d="M 457.208862 184.897181 
L 455.01928 188.796633 
L 453.213467 184.705296 
L 457.208862 184.897181 
z
" style="fill:#808080;stroke:#808080;stroke-linecap:round;"/>
   </g>
   <g id="patch_15">
    <path clip-path="url(#pa25bdafaea)" d="M 155.517035 352.015849 
Q 244.530959 286.194773 332.645923 221.03843 
" style="fill:none;stroke:#808080;stroke-linecap:round;"/>
    <path clip-path="url(#pa25bdafaea)" d="M 328.240593 221.808543 
L 332.645923 221.03843 
L 330.618816 225.024761 
L 328.240593 221.808543 
z
" style="fill:#808080;stroke:#808080;stroke-linecap:round;"/>
   </g>
   <g id="patch_16">
    <path clip-path="url(#pa25bdafaea)" d="M 412.094768 388.256688 
Q 377.957092 305.741861 344.246831 224.260145 
" style="fill:none;stroke:#808080;stroke-linecap:round;"/>
    <path clip-path="url(#pa25bdafaea)" d="M 343.927909 228.720895 
L 344.246831 224.260145 
L 347.624078 227.191732 
L 343.927909 228.720895 
z
" style="fill:#808080;stroke:#808080;stroke-linecap:round;"/>
   </g>
   <g id="patch_17">
    <path clip-path="url(#pa25bdafaea)" d="M 578.297978 200.832066 
Q 520.753861 199.776535 464.32759 198.74151 
" style="fill:none;stroke:#808080;stroke-linecap:round;"/>
    <path clip-path="url(#pa25bdafaea)" d="M 468.290237 200.814533 
L 464.32759 198.74151 
L 468.363597 196.815206 
L 468.290237 200.814533 
z
" style="fill:#808080;stroke:#808080;stroke-linecap:round;"/>
   </g>
   <g id="patch_18">
    <path clip-path="url(#pa25bdafaea)" d="M 441.090475 278.329914 
Q 447.100312 242.713399 452.924124 208.199335 
" style="fill:none;stroke:#808080;stroke-linecap:round;"/>
    <path clip-path="url(#pa25bdafaea)" d="M 450.286461 211.810808 
L 452.924124 208.199335 
L 454.230704 212.476349 
L 450.286461 211.810808 
z
" style="fill:#808080;stroke:#808080;stroke-linecap:round;"/>
   </g>
   <g id="patch_19">
    <path clip-path="url(#pa25bdafaea)" d="M 432.633188 281.799809 
Q 390.080951 251.048706 348.43489 220.952466 
" style="fill:none;stroke:#808080;stroke-linecap:round;"/>
    <path clip-path="url(#pa25bdafaea)" d="M 350.505467 224.916392 
L 348.43489 220.952466 
L 352.848377 221.67436 
L 350.505467 224.916392 
z
" style="fill:#808080;stroke:#808080;stroke-linecap:round;"/>
   </g>
   <g id="patch_20">
    <path clip-path="url(#pa25bdafaea)" d="M 609.756559 276.01003 
Q 536.029074 239.220049 463.301989 202.929266 
" style="fill:none;stroke:#808080;stroke-linecap:round;"/>
    <path clip-path="url(#pa25bdafaea)" d="M 465.988135 206.504826 
L 463.301989 202.929266 
L 467.774124 202.925686 
L 465.988135 206.504826 
z
" style="fill:#808080;stroke:#808080;stroke-linecap:round;"/>
   </g>
   <g id="patch_21">
    <path clip-path="url(#pa25bdafaea)" d="M 305.667052 164.074386 
Q 424.637261 237.283963 542.655276 309.907598 
" style="fill:none;stroke:#808080;stroke-linecap:round;"/>
    <path clip-path="url(#pa25bdafaea)" d="M 540.296772 306.107933 
L 542.655276 309.907598 
L 538.200441 309.514602 
L 540.296772 306.107933 
z
" style="fill:#808080;stroke:#808080;stroke-linecap:round;"/>
   </g>
   <g id="patch_22">
    <path clip-path="url(#pa25bdafaea)" d="M 301.952558 167.380742 
Q 309.876934 184.359193 317.328455 200.324526 
" style="fill:none;stroke:#808080;stroke-linecap:round;"/>
    <path clip-path="url(#pa25bdafaea)" d="M 317.449042 195.854016 
L 317.328455 200.324526 
L 313.824399 197.54575 
L 317.449042 195.854016 
z
" style="fill:#808080;stroke:#808080;stroke-linecap:round;"/>
   </g>
   <g id="patch_23">
    <path clip-path="url(#pa25bdafaea)" d="M 435.963228 200.587224 
Q 492.548321 187.781837 548.042955 175.223224 
" style="fill:none;stroke:#808080;stroke-linecap:round;"/>
    <path clip-path="url(#pa25bdafaea)" d="M 543.700164 174.155438 
L 548.042955 175.223224 
L 544.583051 178.056785 
L 543.700164 174.155438 
z
" style="fill:#808080;stroke:#808080;stroke-linecap:round;"/>
   </g>
   <g id="patch_24">
    <path clip-path="url(#pa25bdafaea)" d="M 418.886255 201.708587 
Q 280.057855 188.978533 142.342819 176.350571 
" style="fill:none;stroke:#808080;stroke-linecap:round;"/>
    <path clip-path="url(#pa25bdafaea)" d="M 146.143481 178.707468 
L 142.342819 176.350571 
L 146.508734 174.724179 
L 146.143481 178.707468 
z
" style="fill:#808080;stroke:#808080;stroke-linecap:round;"/>
   </g>
   <g id="patch_25">
    <path clip-path="url(#pa25bdafaea)" d="M 435.585725 199.368971 
Q 498.130136 175.114876 559.632147 151.265013 
" style="fill:none;stroke:#808080;stroke-linecap:round;"/>
    <path clip-path="url(#pa25bdafaea)" d="M 555.179634 150.846537 
L 559.632147 151.265013 
L 556.625858 154.575938 
L 555.179634 150.846537 
z
" style="fill:#808080;stroke:#808080;stroke-linecap:round;"/>
   </g>
   <g id="patch_26">
    <path clip-path="url(#pa25bdafaea)" d="M 419.519518 199.160467 
Q 415.526818 197.49253 412.565754 196.255555 
" style="fill:none;stroke:#808080;stroke-linecap:round;"/>
    <path clip-path="url(#pa25bdafaea)" d="M 415.485716 199.642858 
L 412.565754 196.255555 
L 417.027574 195.951967 
L 415.485716 199.642858 
z
" style="fill:#808080;stroke:#808080;stroke-linecap:round;"/>
   </g>
   <g id="patch_27">
    <path clip-path="url(#pa25bdafaea)" d="M 428.87334 193.946213 
Q 434.113789 161.002727 439.178596 129.163393 
" style="fill:none;stroke:#808080;stroke-linecap:round;"/>
    <path clip-path="url(#pa25bdafaea)" d="M 436.575036 132.799528 
L 439.178596 129.163393 
L 440.525368 133.427922 
L 436.575036 132.799528 
z
" style="fill:#808080;stroke:#808080;stroke-linecap:round;"/>
   </g>
   <g id="patch_28">
    <path clip-path="url(#pa25bdafaea)" d="M 459.12389 205.917779 
Q 502.083164 275.007943 544.452077 343.148647 
" style="fill:none;stroke:#808080;stroke-linecap:round;"/>
    <path clip-path="url(#pa25bdafaea)" d="M 544.038385 338.695686 
L 544.452077 343.148647 
L 540.641493 340.807825 
L 544.038385 338.695686 
z
" style="fill:#808080;stroke:#808080;stroke-linecap:round;"/>
   </g>
   <g id="patch_29">
    <path clip-path="url(#pa25bdafaea)" d="M 560.834764 151.252425 
Q 511.648023 173.146607 463.482696 194.586133 
" style="fill:none;stroke:#808080;stroke-linecap:round;"/>
    <path clip-path="url(#pa25bdafaea)" d="M 467.950334 194.786669 
L 463.482696 194.586133 
L 466.323707 191.132344 
L 467.950334 194.786669 
z
" style="fill:#808080;stroke:#808080;stroke-linecap:round;"/>
   </g>
   <g id="patch_30">
    <path clip-path="url(#pa25bdafaea)" d="M 528.260737 126.60344 
Q 481.344099 161.946991 435.320461 196.617822 
" style="fill:none;stroke:#808080;stroke-linecap:round;"/>
    <path clip-path="url(#pa25bdafaea)" d="M 439.718751 195.808471 
L 435.320461 196.617822 
L 437.311954 192.61358 
L 439.718751 195.808471 
z
" style="fill:#808080;stroke:#808080;stroke-linecap:round;"/>
   </g>
   <g id="patch_31">
    <path clip-path="url(#pa25bdafaea)" d="M 553.760917 343.842804 
Q 584.155796 288.078284 614.015602 233.295445 
" style="fill:none;stroke:#808080;stroke-linecap:round;"/>
    <path clip-path="url(#pa25bdafaea)" d="M 610.345184 235.850446 
L 614.015602 233.295445 
L 613.857352 237.76478 
L 610.345184 235.850446 
z
" style="fill:#808080;stroke:#808080;stroke-linecap:round;"/>
   </g>
   <g id="patch_32">
    <path clip-path="url(#pa25bdafaea)" d="M 347.281229 331.841068 
Q 444.139297 341.228323 539.884545 350.507727 
" style="fill:none;stroke:#808080;stroke-linecap:round;"/>
    <path clip-path="url(#pa25bdafaea)" d="M 536.096131 348.131191 
L 539.884545 350.507727 
L 535.710268 352.112537 
L 536.096131 348.131191 
z
" style="fill:#808080;stroke:#808080;stroke-linecap:round;"/>
   </g>
   <g id="patch_33">
    <path clip-path="url(#pa25bdafaea)" d="M 343.47469 323.803712 
Q 412.839337 219.947114 481.583025 117.020251 
" style="fill:none;stroke:#808080;stroke-linecap:round;"/>
    <path clip-path="url(#pa25bdafaea)" d="M 477.698249 119.235768 
L 481.583025 117.020251 
L 481.024573 121.457382 
L 477.698249 119.235768 
z
" style="fill:#808080;stroke:#808080;stroke-linecap:round;"/>
   </g>
   <g id="patch_34">
    <path clip-path="url(#pa25bdafaea)" d="M 347.104032 332.949824 
Q 444.744136 355.439029 541.294732 377.67729 
" style="fill:none;stroke:#808080;stroke-linecap:round;"/>
    <path clip-path="url(#pa25bdafaea)" d="M 537.845692 374.830516 
L 541.294732 377.67729 
L 536.947889 378.728458 
L 537.845692 374.830516 
z
" style="fill:#808080;stroke:#808080;stroke-linecap:round;"/>
   </g>
   <g id="patch_35">
    <path clip-path="url(#pa25bdafaea)" d="M 209.445228 105.260768 
Q 327.949195 150.370347 445.40827 195.08218 
" style="fill:none;stroke:#808080;stroke-linecap:round;"/>
    <path clip-path="url(#pa25bdafaea)" d="M 442.381466 191.789999 
L 445.40827 195.08218 
L 440.958443 195.528315 
L 442.381466 191.789999 
z
" style="fill:#808080;stroke:#808080;stroke-linecap:round;"/>
   </g>
   <g id="patch_36">
    <path clip-path="url(#pa25bdafaea)" d="M 226.091768 243.815997 
Q 336.07333 222.030478 444.958167 200.462202 
" style="fill:none;stroke:#808080;stroke-linecap:round;"/>
    <path clip-path="url(#pa25bdafaea)" d="M 440.645789 199.277553 
L 444.958167 200.462202 
L 441.423021 203.201315 
L 440.645789 199.277553 
z
" style="fill:#808080;stroke:#808080;stroke-linecap:round;"/>
   </g>
   <g id="patch_37">
    <path clip-path="url(#pa25bdafaea)" d="M 138.395134 151.222755 
Q 292.191276 174.251381 444.881711 197.114445 
" style="fill:none;stroke:#808080;stroke-linecap:round;"/>
    <path clip-path="url(#pa25bdafaea)" d="M 441.221979 194.544159 
L 444.881711 197.114445 
L 440.629644 198.500059 
L 441.221979 194.544159 
z
" style="fill:#808080;stroke:#808080;stroke-linecap:round;"/>
   </g>
   <g id="patch_38">
    <path clip-path="url(#pa25bdafaea)" d="M 237.715988 418.407382 
Q 231.99604 415.471881 227.270784 413.04686 
" style="fill:none;stroke:#808080;stroke-linecap:round;"/>
    <path clip-path="url(#pa25bdafaea)" d="M 229.916325 416.652565 
L 227.270784 413.04686 
L 231.742673 413.09385 
L 229.916325 416.652565 
z
" style="fill:#808080;stroke:#808080;stroke-linecap:round;"/>
   </g>
   <g id="patch_39">
    <path clip-path="url(#pa25bdafaea)" d="M 238.028387 417.847525 
Q 165.909909 373.811185 94.745641 330.357495 
" style="fill:none;stroke:#808080;stroke-linecap:round;"/>
    <path clip-path="url(#pa25bdafaea)" d="M 97.117249 334.148996 
L 94.745641 330.357495 
L 99.201806 330.735109 
L 97.117249 334.148996 
z
" style="fill:#808080;stroke:#808080;stroke-linecap:round;"/>
   </g>
   <g id="patch_40">
    <path clip-path="url(#pa25bdafaea)" d="M 90.069161 310.425439 
Q 150.878819 356.875168 210.799994 402.646224 
" style="fill:none;stroke:#808080;stroke-linecap:round;"/>
    <path clip-path="url(#pa25bdafaea)" d="M 208.835303 398.628764 
L 210.799994 402.646224 
L 206.407211 401.8075 
L 208.835303 398.628764 
z
" style="fill:#808080;stroke:#808080;stroke-linecap:round;"/>
   </g>
   <g id="patch_41">
    <path clip-path="url(#pa25bdafaea)" d="M 84.554531 313.719088 
Q 84.793451 315.213968 84.85592 315.604826 
" style="fill:none;stroke:#808080;stroke-linecap:round;"/>
    <path clip-path="url(#pa25bdafaea)" d="M 86.199567 311.339312 
L 84.85592 315.604826 
L 82.249696 311.9706 
L 86.199567 311.339312 
z
" style="fill:#808080;stroke:#808080;stroke-linecap:round;"/>
   </g>
   <g id="patch_42">
    <path clip-path="url(#pa25bdafaea)" d="M 274.310451 108.472624 
Q 305.127702 158.168819 335.355738 206.914842 
" style="fill:none;stroke:#808080;stroke-linecap:round;"/>
    <path clip-path="url(#pa25bdafaea)" d="M 334.947422 202.461385 
L 335.355738 206.914842 
L 331.547983 204.569421 
L 334.947422 202.461385 
z
" style="fill:#808080;stroke:#808080;stroke-linecap:round;"/>
   </g>
   <g id="patch_43">
    <path clip-path="url(#pa25bdafaea)" d="M 277.409096 105.154398 
Q 362.14824 149.837934 445.898419 193.999981 
" style="fill:none;stroke:#808080;stroke-linecap:round;"/>
    <path clip-path="url(#pa25bdafaea)" d="M 443.293058 190.365137 
L 445.898419 193.999981 
L 441.427327 193.903363 
L 443.293058 190.365137 
z
" style="fill:#808080;stroke:#808080;stroke-linecap:round;"/>
   </g>
   <g id="patch_44">
    <path clip-path="url(#pa25bdafaea)" d="M 293.678329 74.970974 
Q 370.681388 134.129205 446.797851 192.606301 
" style="fill:none;stroke:#808080;stroke-linecap:round;"/>
    <path clip-path="url(#pa25bdafaea)" d="M 444.844317 188.583404 
L 446.797851 192.606301 
L 442.407412 191.75539 
L 444.844317 188.583404 
z
" style="fill:#808080;stroke:#808080;stroke-linecap:round;"/>
   </g>
   <g id="patch_45">
    <path clip-path="url(#pa25bdafaea)" d="M 419.81757 193.290526 
Q 490.140674 171.777346 559.394652 150.591232 
" style="fill:none;stroke:#808080;stroke-linecap:round;"/>
    <path clip-path="url(#pa25bdafaea)" d="M 554.984561 149.848869 
L 559.394652 150.591232 
L 556.154707 153.673886 
L 554.984561 149.848869 
z
" style="fill:#808080;stroke:#808080;stroke-linecap:round;"/>
   </g>
   <g id="patch_46">
    <path clip-path="url(#pa25bdafaea)" d="M 417.454774 202.144297 
Q 474.707402 263.255729 531.19564 323.551252 
" style="fill:none;stroke:#808080;stroke-linecap:round;"/>
    <path clip-path="url(#pa25bdafaea)" d="M 529.920419 319.264784 
L 531.19564 323.551252 
L 527.001333 321.999548 
L 529.920419 319.264784 
z
" style="fill:#808080;stroke:#808080;stroke-linecap:round;"/>
   </g>
   <g id="patch_47">
    <path clip-path="url(#pa25bdafaea)" d="M 406.509967 188.772427 
Q 363.440112 128.3173 321.018981 68.772755 
" style="fill:none;stroke:#808080;stroke-linecap:round;"/>
    <path clip-path="url(#pa25bdafaea)" d="M 321.711024 73.191021 
L 321.018981 68.772755 
L 324.968819 70.87008 
L 321.711024 73.191021 
z
" style="fill:#808080;stroke:#808080;stroke-linecap:round;"/>
   </g>
   <g id="patch_48">
    <path clip-path="url(#pa25bdafaea)" d="M 449.174504 121.36851 
Q 504.734419 133.616995 559.202517 145.624783 
" style="fill:none;stroke:#808080;stroke-linecap:round;"/>
    <path clip-path="url(#pa25bdafaea)" d="M 555.726885 142.810537 
L 559.202517 145.624783 
L 554.865741 146.716741 
L 555.726885 142.810537 
z
" style="fill:#808080;stroke:#808080;stroke-linecap:round;"/>
   </g>
   <g id="patch_49">
    <path clip-path="url(#pa25bdafaea)" d="M 444.334379 127.369568 
Q 489.299198 225.096917 533.796697 321.808582 
" style="fill:none;stroke:#808080;stroke-linecap:round;"/>
    <path clip-path="url(#pa25bdafaea)" d="M 533.941669 317.338797 
L 533.796697 321.808582 
L 530.307851 319.010733 
L 533.941669 317.338797 
z
" style="fill:#808080;stroke:#808080;stroke-linecap:round;"/>
   </g>
   <g id="patch_50">
    <path clip-path="url(#pa25bdafaea)" d="M 432.875615 115.833184 
Q 378.031402 90.155622 324.19974 64.952126 
" style="fill:none;stroke:#808080;stroke-linecap:round;"/>
    <path clip-path="url(#pa25bdafaea)" d="M 326.974316 68.459508 
L 324.19974 64.952126 
L 328.670391 64.836894 
L 326.974316 68.459508 
z
" style="fill:#808080;stroke:#808080;stroke-linecap:round;"/>
   </g>
   <g id="patch_51">
    <path clip-path="url(#pa25bdafaea)" d="M 543.358271 319.131405 
Q 446.459449 371.191043 350.545518 422.72154 
" style="fill:none;stroke:#808080;stroke-linecap:round;"/>
    <path clip-path="url(#pa25bdafaea)" d="M 355.015727 422.590257 
L 350.545518 422.72154 
L 353.122617 419.066603 
L 355.015727 422.590257 
z
" style="fill:#808080;stroke:#808080;stroke-linecap:round;"/>
   </g>
   <g id="patch_52">
    <path clip-path="url(#pa25bdafaea)" d="M 322.272238 217.808642 
Q 331.696133 318.268107 341.015605 417.614424 
" style="fill:none;stroke:#808080;stroke-linecap:round;"/>
    <path clip-path="url(#pa25bdafaea)" d="M 342.633272 413.445113 
L 341.015605 417.614424 
L 338.650756 413.818705 
L 342.633272 413.445113 
z
" style="fill:#808080;stroke:#808080;stroke-linecap:round;"/>
   </g>
   <g id="PathCollection_1">
    <defs>
     <path d="M 0 11.18034 
C 2.965061 11.18034 5.80908 10.002309 7.905694 7.905694 
C 10.002309 5.80908 11.18034 2.965061 11.18034 -0 
C 11.18034 -2.965061 10.002309 -5.80908 7.905694 -7.905694 
C 5.80908 -10.002309 2.965061 -11.18034 0 -11.18034 
C -2.965061 -11.18034 -5.80908 -10.002309 -7.905694 -7.905694 
C -10.002309 -5.80908 -11.18034 -2.965061 -11.18034 0 
C -11.18034 2.965061 -10.002309 5.80908 -7.905694 7.905694 
C -5.80908 10.002309 -2.965061 11.18034 0 11.18034 
z
" id="C0_0_3bd26399e9"/>
    </defs>
    <g clip-path="url(#pa25bdafaea)">
     <use style="fill:#efefef;stroke:#efefef;" x="218.570814" xlink:href="#C0_0_3bd26399e9" y="408.582"/>
    </g>
    <g clip-path="url(#pa25bdafaea)">
     <use style="fill:#5f5f5f;stroke:#5f5f5f;" x="340.5086" xlink:href="#C0_0_3bd26399e9" y="215.224397"/>
    </g>
    <g clip-path="url(#pa25bdafaea)">
     <use style="fill:#ececec;stroke:#ececec;" x="75.408167" xlink:href="#C0_0_3bd26399e9" y="212.647476"/>
    </g>
    <g clip-path="url(#pa25bdafaea)">
     <use style="fill:#d4d4d4;stroke:#d4d4d4;" x="65.305785" xlink:href="#C0_0_3bd26399e9" y="249.314046"/>
    </g>
    <g clip-path="url(#pa25bdafaea)">
     <use style="fill:#ededed;stroke:#ededed;" x="86.399231" xlink:href="#C0_0_3bd26399e9" y="325.261086"/>
    </g>
    <g clip-path="url(#pa25bdafaea)">
     <use style="fill:#929292;stroke:#929292;" x="238.233291" xlink:href="#C0_0_3bd26399e9" y="271.077479"/>
    </g>
    <g clip-path="url(#pa25bdafaea)">
     <use style="fill:#f0f0f0;stroke:#f0f0f0;" x="199.249349" xlink:href="#C0_0_3bd26399e9" y="144.294517"/>
    </g>
    <g clip-path="url(#pa25bdafaea)">
     <use style="fill:#cecece;stroke:#cecece;" x="388.615584" xlink:href="#C0_0_3bd26399e9" y="302.161987"/>
    </g>
    <g clip-path="url(#pa25bdafaea)">
     <use style="fill:#f1f1f1;stroke:#f1f1f1;" x="459.935168" xlink:href="#C0_0_3bd26399e9" y="86.438959"/>
    </g>
    <g clip-path="url(#pa25bdafaea)">
     <use style="fill:#ededed;stroke:#ededed;" x="148.554845" xlink:href="#C0_0_3bd26399e9" y="357.164019"/>
    </g>
    <g clip-path="url(#pa25bdafaea)">
     <use style="fill:#ededed;stroke:#ededed;" x="415.405567" xlink:href="#C0_0_3bd26399e9" y="396.259283"/>
    </g>
    <g clip-path="url(#pa25bdafaea)">
     <use style="fill:#ececec;stroke:#ececec;" x="586.957287" xlink:href="#C0_0_3bd26399e9" y="200.990903"/>
    </g>
    <g clip-path="url(#pa25bdafaea)">
     <use style="fill:#5f5f5f;stroke:#5f5f5f;" x="439.64941" xlink:href="#C0_0_3bd26399e9" y="286.870202"/>
    </g>
    <g clip-path="url(#pa25bdafaea)">
     <use style="fill:#eeeeee;stroke:#eeeeee;" x="617.507052" xlink:href="#C0_0_3bd26399e9" y="279.877522"/>
    </g>
    <g clip-path="url(#pa25bdafaea)">
     <use style="fill:#878787;stroke:#878787;" x="298.290882" xlink:href="#C0_0_3bd26399e9" y="159.535382"/>
    </g>
    <g clip-path="url(#pa25bdafaea)">
     <use style="fill:#ececec;stroke:#ececec;" x="537.882557" xlink:href="#C0_0_3bd26399e9" y="330.688865"/>
    </g>
    <g clip-path="url(#pa25bdafaea)">
     <use style="fill:#ececec;stroke:#ececec;" x="132.601961" xlink:href="#C0_0_3bd26399e9" y="175.45737"/>
    </g>
    <g clip-path="url(#pa25bdafaea)">
     <use style="fill:#ececec;stroke:#ececec;" x="557.576735" xlink:href="#C0_0_3bd26399e9" y="173.065699"/>
    </g>
    <g clip-path="url(#pa25bdafaea)">
     <use style="fill:#868686;stroke:#868686;" x="427.512719" xlink:href="#C0_0_3bd26399e9" y="202.499602"/>
    </g>
    <g clip-path="url(#pa25bdafaea)">
     <use style="fill:#e1e1e1;stroke:#e1e1e1;" x="454.550275" xlink:href="#C0_0_3bd26399e9" y="198.562165"/>
    </g>
    <g clip-path="url(#pa25bdafaea)">
     <use style="fill:#ececec;stroke:#ececec;" x="568.749381" xlink:href="#C0_0_3bd26399e9" y="147.729441"/>
    </g>
    <g clip-path="url(#pa25bdafaea)">
     <use style="fill:#ebebeb;stroke:#ebebeb;" x="535.177039" xlink:href="#C0_0_3bd26399e9" y="121.393206"/>
    </g>
    <g clip-path="url(#pa25bdafaea)">
     <use style="fill:#d6d6d6;stroke:#d6d6d6;" x="549.614175" xlink:href="#C0_0_3bd26399e9" y="351.450699"/>
    </g>
    <g clip-path="url(#pa25bdafaea)">
     <use style="fill:#cdcdcd;stroke:#cdcdcd;" x="338.6644" xlink:href="#C0_0_3bd26399e9" y="331.005945"/>
    </g>
    <g clip-path="url(#pa25bdafaea)">
     <use style="fill:#eeeeee;stroke:#eeeeee;" x="618.694215" xlink:href="#C0_0_3bd26399e9" y="224.711742"/>
    </g>
    <g clip-path="url(#pa25bdafaea)">
     <use style="fill:#ececec;stroke:#ececec;" x="201.351171" xlink:href="#C0_0_3bd26399e9" y="102.179694"/>
    </g>
    <g clip-path="url(#pa25bdafaea)">
     <use style="fill:#e6e6e6;stroke:#e6e6e6;" x="217.598739" xlink:href="#C0_0_3bd26399e9" y="245.498325"/>
    </g>
    <g clip-path="url(#pa25bdafaea)">
     <use style="fill:#c6c6c6;stroke:#c6c6c6;" x="129.830715" xlink:href="#C0_0_3bd26399e9" y="149.940364"/>
    </g>
    <g clip-path="url(#pa25bdafaea)">
     <use style="fill:#b9b9b9;stroke:#b9b9b9;" x="245.421913" xlink:href="#C0_0_3bd26399e9" y="422.362094"/>
    </g>
    <g clip-path="url(#pa25bdafaea)">
     <use style="fill:#d8d8d8;stroke:#d8d8d8;" x="83.188058" xlink:href="#C0_0_3bd26399e9" y="305.169278"/>
    </g>
    <g clip-path="url(#pa25bdafaea)">
     <use style="fill:#ececec;stroke:#ececec;" x="269.747519" xlink:href="#C0_0_3bd26399e9" y="101.114396"/>
    </g>
    <g clip-path="url(#pa25bdafaea)">
     <use style="fill:#ededed;stroke:#ededed;" x="286.811203" xlink:href="#C0_0_3bd26399e9" y="69.695249"/>
    </g>
    <g clip-path="url(#pa25bdafaea)">
     <use style="fill:#ececec;stroke:#ececec;" x="315.342822" xlink:href="#C0_0_3bd26399e9" y="60.805398"/>
    </g>
    <g clip-path="url(#pa25bdafaea)">
     <use style="fill:#868686;stroke:#868686;" x="411.534119" xlink:href="#C0_0_3bd26399e9" y="195.824592"/>
    </g>
    <g clip-path="url(#pa25bdafaea)">
     <use style="fill:#868686;stroke:#868686;" x="440.715215" xlink:href="#C0_0_3bd26399e9" y="119.503614"/>
    </g>
    <g clip-path="url(#pa25bdafaea)">
     <use style="fill:#ececec;stroke:#ececec;" x="550.985438" xlink:href="#C0_0_3bd26399e9" y="315.033651"/>
    </g>
    <g clip-path="url(#pa25bdafaea)">
     <use style="fill:#ececec;stroke:#ececec;" x="321.46311" xlink:href="#C0_0_3bd26399e9" y="209.183273"/>
    </g>
    <g clip-path="url(#pa25bdafaea)">
     <use style="fill:#ececec;stroke:#ececec;" x="341.928959" xlink:href="#C0_0_3bd26399e9" y="427.350852"/>
    </g>
    <g clip-path="url(#pa25bdafaea)">
     <use style="fill:#f3f3f3;stroke:#f3f3f3;" x="487.016001" xlink:href="#C0_0_3bd26399e9" y="108.885698"/>
    </g>
    <g clip-path="url(#pa25bdafaea)">
     <use style="fill:#f3f3f3;stroke:#f3f3f3;" x="550.823866" xlink:href="#C0_0_3bd26399e9" y="379.872112"/>
    </g>
   </g>
   <g id="text_1">
    <g clip-path="url(#pa25bdafaea)">
     <!-- SMAD4 -->
     <g transform="translate(200.630971 411.341375)scale(0.1 -0.1)">
      <defs>
       <path d="M 53.515625 70.515625 
L 53.515625 60.890625 
Q 47.90625 63.578125 42.921875 64.890625 
Q 37.9375 66.21875 33.296875 66.21875 
Q 25.25 66.21875 20.875 63.09375 
Q 16.5 59.96875 16.5 54.203125 
Q 16.5 49.359375 19.40625 46.890625 
Q 22.3125 44.4375 30.421875 42.921875 
L 36.375 41.703125 
Q 47.40625 39.59375 52.65625 34.296875 
Q 57.90625 29 57.90625 20.125 
Q 57.90625 9.515625 50.796875 4.046875 
Q 43.703125 -1.421875 29.984375 -1.421875 
Q 24.8125 -1.421875 18.96875 -0.25 
Q 13.140625 0.921875 6.890625 3.21875 
L 6.890625 13.375 
Q 12.890625 10.015625 18.65625 8.296875 
Q 24.421875 6.59375 29.984375 6.59375 
Q 38.421875 6.59375 43.015625 9.90625 
Q 47.609375 13.234375 47.609375 19.390625 
Q 47.609375 24.75 44.3125 27.78125 
Q 41.015625 30.8125 33.5 32.328125 
L 27.484375 33.5 
Q 16.453125 35.6875 11.515625 40.375 
Q 6.59375 45.0625 6.59375 53.421875 
Q 6.59375 63.09375 13.40625 68.65625 
Q 20.21875 74.21875 32.171875 74.21875 
Q 37.3125 74.21875 42.625 73.28125 
Q 47.953125 72.359375 53.515625 70.515625 
z
" id="DejaVuSans-83"/>
       <path d="M 9.8125 72.90625 
L 24.515625 72.90625 
L 43.109375 23.296875 
L 61.8125 72.90625 
L 76.515625 72.90625 
L 76.515625 0 
L 66.890625 0 
L 66.890625 64.015625 
L 48.09375 14.015625 
L 38.1875 14.015625 
L 19.390625 64.015625 
L 19.390625 0 
L 9.8125 0 
z
" id="DejaVuSans-77"/>
       <path d="M 34.1875 63.1875 
L 20.796875 26.90625 
L 47.609375 26.90625 
z
M 28.609375 72.90625 
L 39.796875 72.90625 
L 67.578125 0 
L 57.328125 0 
L 50.6875 18.703125 
L 17.828125 18.703125 
L 11.1875 0 
L 0.78125 0 
z
" id="DejaVuSans-65"/>
       <path d="M 19.671875 64.796875 
L 19.671875 8.109375 
L 31.59375 8.109375 
Q 46.6875 8.109375 53.6875 14.9375 
Q 60.6875 21.78125 60.6875 36.53125 
Q 60.6875 51.171875 53.6875 57.984375 
Q 46.6875 64.796875 31.59375 64.796875 
z
M 9.8125 72.90625 
L 30.078125 72.90625 
Q 51.265625 72.90625 61.171875 64.09375 
Q 71.09375 55.28125 71.09375 36.53125 
Q 71.09375 17.671875 61.125 8.828125 
Q 51.171875 0 30.078125 0 
L 9.8125 0 
z
" id="DejaVuSans-68"/>
       <path d="M 37.796875 64.3125 
L 12.890625 25.390625 
L 37.796875 25.390625 
z
M 35.203125 72.90625 
L 47.609375 72.90625 
L 47.609375 25.390625 
L 58.015625 25.390625 
L 58.015625 17.1875 
L 47.609375 17.1875 
L 47.609375 0 
L 37.796875 0 
L 37.796875 17.1875 
L 4.890625 17.1875 
L 4.890625 26.703125 
z
" id="DejaVuSans-52"/>
      </defs>
      <use xlink:href="#DejaVuSans-83"/>
      <use x="63.476562" xlink:href="#DejaVuSans-77"/>
      <use x="149.755859" xlink:href="#DejaVuSans-65"/>
      <use x="218.164062" xlink:href="#DejaVuSans-68"/>
      <use x="295.166016" xlink:href="#DejaVuSans-52"/>
     </g>
    </g>
   </g>
   <g id="text_2">
    <g clip-path="url(#pa25bdafaea)">
     <!-- CTNND1 -->
     <g transform="translate(319.450788 217.983772)scale(0.1 -0.1)">
      <defs>
       <path d="M 64.40625 67.28125 
L 64.40625 56.890625 
Q 59.421875 61.53125 53.78125 63.8125 
Q 48.140625 66.109375 41.796875 66.109375 
Q 29.296875 66.109375 22.65625 58.46875 
Q 16.015625 50.828125 16.015625 36.375 
Q 16.015625 21.96875 22.65625 14.328125 
Q 29.296875 6.6875 41.796875 6.6875 
Q 48.140625 6.6875 53.78125 8.984375 
Q 59.421875 11.28125 64.40625 15.921875 
L 64.40625 5.609375 
Q 59.234375 2.09375 53.4375 0.328125 
Q 47.65625 -1.421875 41.21875 -1.421875 
Q 24.65625 -1.421875 15.125 8.703125 
Q 5.609375 18.84375 5.609375 36.375 
Q 5.609375 53.953125 15.125 64.078125 
Q 24.65625 74.21875 41.21875 74.21875 
Q 47.75 74.21875 53.53125 72.484375 
Q 59.328125 70.75 64.40625 67.28125 
z
" id="DejaVuSans-67"/>
       <path d="M -0.296875 72.90625 
L 61.375 72.90625 
L 61.375 64.59375 
L 35.5 64.59375 
L 35.5 0 
L 25.59375 0 
L 25.59375 64.59375 
L -0.296875 64.59375 
z
" id="DejaVuSans-84"/>
       <path d="M 9.8125 72.90625 
L 23.09375 72.90625 
L 55.421875 11.921875 
L 55.421875 72.90625 
L 64.984375 72.90625 
L 64.984375 0 
L 51.703125 0 
L 19.390625 60.984375 
L 19.390625 0 
L 9.8125 0 
z
" id="DejaVuSans-78"/>
       <path d="M 12.40625 8.296875 
L 28.515625 8.296875 
L 28.515625 63.921875 
L 10.984375 60.40625 
L 10.984375 69.390625 
L 28.421875 72.90625 
L 38.28125 72.90625 
L 38.28125 8.296875 
L 54.390625 8.296875 
L 54.390625 0 
L 12.40625 0 
z
" id="DejaVuSans-49"/>
      </defs>
      <use xlink:href="#DejaVuSans-67"/>
      <use x="69.824219" xlink:href="#DejaVuSans-84"/>
      <use x="130.908203" xlink:href="#DejaVuSans-78"/>
      <use x="205.712891" xlink:href="#DejaVuSans-78"/>
      <use x="280.517578" xlink:href="#DejaVuSans-68"/>
      <use x="357.519531" xlink:href="#DejaVuSans-49"/>
     </g>
    </g>
   </g>
   <g id="text_3">
    <g clip-path="url(#pa25bdafaea)">
     <!-- NLK -->
     <g transform="translate(65.602698 215.406851)scale(0.1 -0.1)">
      <defs>
       <path d="M 9.8125 72.90625 
L 19.671875 72.90625 
L 19.671875 8.296875 
L 55.171875 8.296875 
L 55.171875 0 
L 9.8125 0 
z
" id="DejaVuSans-76"/>
       <path d="M 9.8125 72.90625 
L 19.671875 72.90625 
L 19.671875 42.09375 
L 52.390625 72.90625 
L 65.09375 72.90625 
L 28.90625 38.921875 
L 67.671875 0 
L 54.6875 0 
L 19.671875 35.109375 
L 19.671875 0 
L 9.8125 0 
z
" id="DejaVuSans-75"/>
      </defs>
      <use xlink:href="#DejaVuSans-78"/>
      <use x="74.804688" xlink:href="#DejaVuSans-76"/>
      <use x="130.517578" xlink:href="#DejaVuSans-75"/>
     </g>
    </g>
   </g>
   <g id="text_4">
    <g clip-path="url(#pa25bdafaea)">
     <!-- MAP3K7 -->
     <g transform="translate(44.91516 252.073421)scale(0.1 -0.1)">
      <defs>
       <path d="M 19.671875 64.796875 
L 19.671875 37.40625 
L 32.078125 37.40625 
Q 38.96875 37.40625 42.71875 40.96875 
Q 46.484375 44.53125 46.484375 51.125 
Q 46.484375 57.671875 42.71875 61.234375 
Q 38.96875 64.796875 32.078125 64.796875 
z
M 9.8125 72.90625 
L 32.078125 72.90625 
Q 44.34375 72.90625 50.609375 67.359375 
Q 56.890625 61.8125 56.890625 51.125 
Q 56.890625 40.328125 50.609375 34.8125 
Q 44.34375 29.296875 32.078125 29.296875 
L 19.671875 29.296875 
L 19.671875 0 
L 9.8125 0 
z
" id="DejaVuSans-80"/>
       <path d="M 40.578125 39.3125 
Q 47.65625 37.796875 51.625 33 
Q 55.609375 28.21875 55.609375 21.1875 
Q 55.609375 10.40625 48.1875 4.484375 
Q 40.765625 -1.421875 27.09375 -1.421875 
Q 22.515625 -1.421875 17.65625 -0.515625 
Q 12.796875 0.390625 7.625 2.203125 
L 7.625 11.71875 
Q 11.71875 9.328125 16.59375 8.109375 
Q 21.484375 6.890625 26.8125 6.890625 
Q 36.078125 6.890625 40.9375 10.546875 
Q 45.796875 14.203125 45.796875 21.1875 
Q 45.796875 27.640625 41.28125 31.265625 
Q 36.765625 34.90625 28.71875 34.90625 
L 20.21875 34.90625 
L 20.21875 43.015625 
L 29.109375 43.015625 
Q 36.375 43.015625 40.234375 45.921875 
Q 44.09375 48.828125 44.09375 54.296875 
Q 44.09375 59.90625 40.109375 62.90625 
Q 36.140625 65.921875 28.71875 65.921875 
Q 24.65625 65.921875 20.015625 65.03125 
Q 15.375 64.15625 9.8125 62.3125 
L 9.8125 71.09375 
Q 15.4375 72.65625 20.34375 73.4375 
Q 25.25 74.21875 29.59375 74.21875 
Q 40.828125 74.21875 47.359375 69.109375 
Q 53.90625 64.015625 53.90625 55.328125 
Q 53.90625 49.265625 50.4375 45.09375 
Q 46.96875 40.921875 40.578125 39.3125 
z
" id="DejaVuSans-51"/>
       <path d="M 8.203125 72.90625 
L 55.078125 72.90625 
L 55.078125 68.703125 
L 28.609375 0 
L 18.3125 0 
L 43.21875 64.59375 
L 8.203125 64.59375 
z
" id="DejaVuSans-55"/>
      </defs>
      <use xlink:href="#DejaVuSans-77"/>
      <use x="86.279297" xlink:href="#DejaVuSans-65"/>
      <use x="154.6875" xlink:href="#DejaVuSans-80"/>
      <use x="214.990234" xlink:href="#DejaVuSans-51"/>
      <use x="278.613281" xlink:href="#DejaVuSans-75"/>
      <use x="344.189453" xlink:href="#DejaVuSans-55"/>
     </g>
    </g>
   </g>
   <g id="text_5">
    <g clip-path="url(#pa25bdafaea)">
     <!-- SMAD3 -->
     <g transform="translate(68.459388 328.020461)scale(0.1 -0.1)">
      <use xlink:href="#DejaVuSans-83"/>
      <use x="63.476562" xlink:href="#DejaVuSans-77"/>
      <use x="149.755859" xlink:href="#DejaVuSans-65"/>
      <use x="218.164062" xlink:href="#DejaVuSans-68"/>
      <use x="295.166016" xlink:href="#DejaVuSans-51"/>
     </g>
    </g>
   </g>
   <g id="text_6">
    <g clip-path="url(#pa25bdafaea)">
     <!-- YES1 -->
     <g transform="translate(225.664541 273.836854)scale(0.1 -0.1)">
      <defs>
       <path d="M -0.203125 72.90625 
L 10.40625 72.90625 
L 30.609375 42.921875 
L 50.6875 72.90625 
L 61.28125 72.90625 
L 35.5 34.71875 
L 35.5 0 
L 25.59375 0 
L 25.59375 34.71875 
z
" id="DejaVuSans-89"/>
       <path d="M 9.8125 72.90625 
L 55.90625 72.90625 
L 55.90625 64.59375 
L 19.671875 64.59375 
L 19.671875 43.015625 
L 54.390625 43.015625 
L 54.390625 34.71875 
L 19.671875 34.71875 
L 19.671875 8.296875 
L 56.78125 8.296875 
L 56.78125 0 
L 9.8125 0 
z
" id="DejaVuSans-69"/>
      </defs>
      <use xlink:href="#DejaVuSans-89"/>
      <use x="61.083984" xlink:href="#DejaVuSans-69"/>
      <use x="124.267578" xlink:href="#DejaVuSans-83"/>
      <use x="187.744141" xlink:href="#DejaVuSans-49"/>
     </g>
    </g>
   </g>
   <g id="text_7">
    <g clip-path="url(#pa25bdafaea)">
     <!-- FYN -->
     <g transform="translate(189.579036 147.053892)scale(0.1 -0.1)">
      <defs>
       <path d="M 9.8125 72.90625 
L 51.703125 72.90625 
L 51.703125 64.59375 
L 19.671875 64.59375 
L 19.671875 43.109375 
L 48.578125 43.109375 
L 48.578125 34.8125 
L 19.671875 34.8125 
L 19.671875 0 
L 9.8125 0 
z
" id="DejaVuSans-70"/>
      </defs>
      <use xlink:href="#DejaVuSans-70"/>
      <use x="57.519531" xlink:href="#DejaVuSans-89"/>
      <use x="118.603516" xlink:href="#DejaVuSans-78"/>
     </g>
    </g>
   </g>
   <g id="text_8">
    <g clip-path="url(#pa25bdafaea)">
     <!-- FER -->
     <g transform="translate(379.106209 304.921362)scale(0.1 -0.1)">
      <defs>
       <path d="M 44.390625 34.1875 
Q 47.5625 33.109375 50.5625 29.59375 
Q 53.5625 26.078125 56.59375 19.921875 
L 66.609375 0 
L 56 0 
L 46.6875 18.703125 
Q 43.0625 26.03125 39.671875 28.421875 
Q 36.28125 30.8125 30.421875 30.8125 
L 19.671875 30.8125 
L 19.671875 0 
L 9.8125 0 
L 9.8125 72.90625 
L 32.078125 72.90625 
Q 44.578125 72.90625 50.734375 67.671875 
Q 56.890625 62.453125 56.890625 51.90625 
Q 56.890625 45.015625 53.6875 40.46875 
Q 50.484375 35.9375 44.390625 34.1875 
z
M 19.671875 64.796875 
L 19.671875 38.921875 
L 32.078125 38.921875 
Q 39.203125 38.921875 42.84375 42.21875 
Q 46.484375 45.515625 46.484375 51.90625 
Q 46.484375 58.296875 42.84375 61.546875 
Q 39.203125 64.796875 32.078125 64.796875 
z
" id="DejaVuSans-82"/>
      </defs>
      <use xlink:href="#DejaVuSans-70"/>
      <use x="57.519531" xlink:href="#DejaVuSans-69"/>
      <use x="120.703125" xlink:href="#DejaVuSans-82"/>
     </g>
    </g>
   </g>
   <g id="text_9">
    <g clip-path="url(#pa25bdafaea)">
     <!-- IGF1R -->
     <g transform="translate(445.054699 89.198334)scale(0.1 -0.1)">
      <defs>
       <path d="M 9.8125 72.90625 
L 19.671875 72.90625 
L 19.671875 0 
L 9.8125 0 
z
" id="DejaVuSans-73"/>
       <path d="M 59.515625 10.40625 
L 59.515625 29.984375 
L 43.40625 29.984375 
L 43.40625 38.09375 
L 69.28125 38.09375 
L 69.28125 6.78125 
Q 63.578125 2.734375 56.6875 0.65625 
Q 49.8125 -1.421875 42 -1.421875 
Q 24.90625 -1.421875 15.25 8.5625 
Q 5.609375 18.5625 5.609375 36.375 
Q 5.609375 54.25 15.25 64.234375 
Q 24.90625 74.21875 42 74.21875 
Q 49.125 74.21875 55.546875 72.453125 
Q 61.96875 70.703125 67.390625 67.28125 
L 67.390625 56.78125 
Q 61.921875 61.421875 55.765625 63.765625 
Q 49.609375 66.109375 42.828125 66.109375 
Q 29.4375 66.109375 22.71875 58.640625 
Q 16.015625 51.171875 16.015625 36.375 
Q 16.015625 21.625 22.71875 14.15625 
Q 29.4375 6.6875 42.828125 6.6875 
Q 48.046875 6.6875 52.140625 7.59375 
Q 56.25 8.5 59.515625 10.40625 
z
" id="DejaVuSans-71"/>
      </defs>
      <use xlink:href="#DejaVuSans-73"/>
      <use x="29.492188" xlink:href="#DejaVuSans-71"/>
      <use x="106.982422" xlink:href="#DejaVuSans-70"/>
      <use x="164.501953" xlink:href="#DejaVuSans-49"/>
      <use x="228.125" xlink:href="#DejaVuSans-82"/>
     </g>
    </g>
   </g>
   <g id="text_10">
    <g clip-path="url(#pa25bdafaea)">
     <!-- PTPRJ -->
     <g transform="translate(134.522032 359.923394)scale(0.1 -0.1)">
      <defs>
       <path d="M 9.8125 72.90625 
L 19.671875 72.90625 
L 19.671875 5.078125 
Q 19.671875 -8.109375 14.671875 -14.0625 
Q 9.671875 -20.015625 -1.421875 -20.015625 
L -5.171875 -20.015625 
L -5.171875 -11.71875 
L -2.09375 -11.71875 
Q 4.4375 -11.71875 7.125 -8.046875 
Q 9.8125 -4.390625 9.8125 5.078125 
z
" id="DejaVuSans-74"/>
      </defs>
      <use xlink:href="#DejaVuSans-80"/>
      <use x="60.302734" xlink:href="#DejaVuSans-84"/>
      <use x="121.386719" xlink:href="#DejaVuSans-80"/>
      <use x="181.689453" xlink:href="#DejaVuSans-82"/>
      <use x="251.171875" xlink:href="#DejaVuSans-74"/>
     </g>
    </g>
   </g>
   <g id="text_11">
    <g clip-path="url(#pa25bdafaea)">
     <!-- PTPN6 -->
     <g transform="translate(399.400098 399.018658)scale(0.1 -0.1)">
      <defs>
       <path d="M 33.015625 40.375 
Q 26.375 40.375 22.484375 35.828125 
Q 18.609375 31.296875 18.609375 23.390625 
Q 18.609375 15.53125 22.484375 10.953125 
Q 26.375 6.390625 33.015625 6.390625 
Q 39.65625 6.390625 43.53125 10.953125 
Q 47.40625 15.53125 47.40625 23.390625 
Q 47.40625 31.296875 43.53125 35.828125 
Q 39.65625 40.375 33.015625 40.375 
z
M 52.59375 71.296875 
L 52.59375 62.3125 
Q 48.875 64.0625 45.09375 64.984375 
Q 41.3125 65.921875 37.59375 65.921875 
Q 27.828125 65.921875 22.671875 59.328125 
Q 17.53125 52.734375 16.796875 39.40625 
Q 19.671875 43.65625 24.015625 45.921875 
Q 28.375 48.1875 33.59375 48.1875 
Q 44.578125 48.1875 50.953125 41.515625 
Q 57.328125 34.859375 57.328125 23.390625 
Q 57.328125 12.15625 50.6875 5.359375 
Q 44.046875 -1.421875 33.015625 -1.421875 
Q 20.359375 -1.421875 13.671875 8.265625 
Q 6.984375 17.96875 6.984375 36.375 
Q 6.984375 53.65625 15.1875 63.9375 
Q 23.390625 74.21875 37.203125 74.21875 
Q 40.921875 74.21875 44.703125 73.484375 
Q 48.484375 72.75 52.59375 71.296875 
z
" id="DejaVuSans-54"/>
      </defs>
      <use xlink:href="#DejaVuSans-80"/>
      <use x="60.302734" xlink:href="#DejaVuSans-84"/>
      <use x="121.386719" xlink:href="#DejaVuSans-80"/>
      <use x="181.689453" xlink:href="#DejaVuSans-78"/>
      <use x="256.494141" xlink:href="#DejaVuSans-54"/>
     </g>
    </g>
   </g>
   <g id="text_12">
    <g clip-path="url(#pa25bdafaea)">
     <!-- PTPN1 -->
     <g transform="translate(570.951818 203.750278)scale(0.1 -0.1)">
      <use xlink:href="#DejaVuSans-80"/>
      <use x="60.302734" xlink:href="#DejaVuSans-84"/>
      <use x="121.386719" xlink:href="#DejaVuSans-80"/>
      <use x="181.689453" xlink:href="#DejaVuSans-78"/>
      <use x="256.494141" xlink:href="#DejaVuSans-49"/>
     </g>
    </g>
   </g>
   <g id="text_13">
    <g clip-path="url(#pa25bdafaea)">
     <!-- PTPRM -->
     <g transform="translate(422.777535 289.629577)scale(0.1 -0.1)">
      <use xlink:href="#DejaVuSans-80"/>
      <use x="60.302734" xlink:href="#DejaVuSans-84"/>
      <use x="121.386719" xlink:href="#DejaVuSans-80"/>
      <use x="181.689453" xlink:href="#DejaVuSans-82"/>
      <use x="251.171875" xlink:href="#DejaVuSans-77"/>
     </g>
    </g>
   </g>
   <g id="text_14">
    <g clip-path="url(#pa25bdafaea)">
     <!-- ACP1 -->
     <g transform="translate(604.486739 282.636897)scale(0.1 -0.1)">
      <use xlink:href="#DejaVuSans-65"/>
      <use x="66.658203" xlink:href="#DejaVuSans-67"/>
      <use x="136.482422" xlink:href="#DejaVuSans-80"/>
      <use x="196.785156" xlink:href="#DejaVuSans-49"/>
     </g>
    </g>
   </g>
   <g id="text_15">
    <g clip-path="url(#pa25bdafaea)">
     <!-- RHOA -->
     <g transform="translate(283.787757 162.294757)scale(0.1 -0.1)">
      <defs>
       <path d="M 9.8125 72.90625 
L 19.671875 72.90625 
L 19.671875 43.015625 
L 55.515625 43.015625 
L 55.515625 72.90625 
L 65.375 72.90625 
L 65.375 0 
L 55.515625 0 
L 55.515625 34.71875 
L 19.671875 34.71875 
L 19.671875 0 
L 9.8125 0 
z
" id="DejaVuSans-72"/>
       <path d="M 39.40625 66.21875 
Q 28.65625 66.21875 22.328125 58.203125 
Q 16.015625 50.203125 16.015625 36.375 
Q 16.015625 22.609375 22.328125 14.59375 
Q 28.65625 6.59375 39.40625 6.59375 
Q 50.140625 6.59375 56.421875 14.59375 
Q 62.703125 22.609375 62.703125 36.375 
Q 62.703125 50.203125 56.421875 58.203125 
Q 50.140625 66.21875 39.40625 66.21875 
z
M 39.40625 74.21875 
Q 54.734375 74.21875 63.90625 63.9375 
Q 73.09375 53.65625 73.09375 36.375 
Q 73.09375 19.140625 63.90625 8.859375 
Q 54.734375 -1.421875 39.40625 -1.421875 
Q 24.03125 -1.421875 14.8125 8.828125 
Q 5.609375 19.09375 5.609375 36.375 
Q 5.609375 53.65625 14.8125 63.9375 
Q 24.03125 74.21875 39.40625 74.21875 
z
" id="DejaVuSans-79"/>
      </defs>
      <use xlink:href="#DejaVuSans-82"/>
      <use x="69.482422" xlink:href="#DejaVuSans-72"/>
      <use x="144.677734" xlink:href="#DejaVuSans-79"/>
      <use x="221.638672" xlink:href="#DejaVuSans-65"/>
     </g>
    </g>
   </g>
   <g id="text_16">
    <g clip-path="url(#pa25bdafaea)">
     <!-- BAIAP2 -->
     <g transform="translate(519.94037 333.44824)scale(0.1 -0.1)">
      <defs>
       <path d="M 19.671875 34.8125 
L 19.671875 8.109375 
L 35.5 8.109375 
Q 43.453125 8.109375 47.28125 11.40625 
Q 51.125 14.703125 51.125 21.484375 
Q 51.125 28.328125 47.28125 31.5625 
Q 43.453125 34.8125 35.5 34.8125 
z
M 19.671875 64.796875 
L 19.671875 42.828125 
L 34.28125 42.828125 
Q 41.5 42.828125 45.03125 45.53125 
Q 48.578125 48.25 48.578125 53.8125 
Q 48.578125 59.328125 45.03125 62.0625 
Q 41.5 64.796875 34.28125 64.796875 
z
M 9.8125 72.90625 
L 35.015625 72.90625 
Q 46.296875 72.90625 52.390625 68.21875 
Q 58.5 63.53125 58.5 54.890625 
Q 58.5 48.1875 55.375 44.234375 
Q 52.25 40.28125 46.1875 39.3125 
Q 53.46875 37.75 57.5 32.78125 
Q 61.53125 27.828125 61.53125 20.40625 
Q 61.53125 10.640625 54.890625 5.3125 
Q 48.25 0 35.984375 0 
L 9.8125 0 
z
" id="DejaVuSans-66"/>
       <path d="M 19.1875 8.296875 
L 53.609375 8.296875 
L 53.609375 0 
L 7.328125 0 
L 7.328125 8.296875 
Q 12.9375 14.109375 22.625 23.890625 
Q 32.328125 33.6875 34.8125 36.53125 
Q 39.546875 41.84375 41.421875 45.53125 
Q 43.3125 49.21875 43.3125 52.78125 
Q 43.3125 58.59375 39.234375 62.25 
Q 35.15625 65.921875 28.609375 65.921875 
Q 23.96875 65.921875 18.8125 64.3125 
Q 13.671875 62.703125 7.8125 59.421875 
L 7.8125 69.390625 
Q 13.765625 71.78125 18.9375 73 
Q 24.125 74.21875 28.421875 74.21875 
Q 39.75 74.21875 46.484375 68.546875 
Q 53.21875 62.890625 53.21875 53.421875 
Q 53.21875 48.921875 51.53125 44.890625 
Q 49.859375 40.875 45.40625 35.40625 
Q 44.1875 33.984375 37.640625 27.21875 
Q 31.109375 20.453125 19.1875 8.296875 
z
" id="DejaVuSans-50"/>
      </defs>
      <use xlink:href="#DejaVuSans-66"/>
      <use x="68.603516" xlink:href="#DejaVuSans-65"/>
      <use x="137.011719" xlink:href="#DejaVuSans-73"/>
      <use x="166.503906" xlink:href="#DejaVuSans-65"/>
      <use x="234.912109" xlink:href="#DejaVuSans-80"/>
      <use x="295.214844" xlink:href="#DejaVuSans-50"/>
     </g>
    </g>
   </g>
   <g id="text_17">
    <g clip-path="url(#pa25bdafaea)">
     <!-- WAS -->
     <g transform="translate(121.33868 178.216745)scale(0.1 -0.1)">
      <defs>
       <path d="M 3.328125 72.90625 
L 13.28125 72.90625 
L 28.609375 11.28125 
L 43.890625 72.90625 
L 54.984375 72.90625 
L 70.3125 11.28125 
L 85.59375 72.90625 
L 95.609375 72.90625 
L 77.296875 0 
L 64.890625 0 
L 49.515625 63.28125 
L 33.984375 0 
L 21.578125 0 
z
" id="DejaVuSans-87"/>
      </defs>
      <use xlink:href="#DejaVuSans-87"/>
      <use x="93.376953" xlink:href="#DejaVuSans-65"/>
      <use x="161.785156" xlink:href="#DejaVuSans-83"/>
     </g>
    </g>
   </g>
   <g id="text_18">
    <g clip-path="url(#pa25bdafaea)">
     <!-- WASL -->
     <g transform="translate(543.527516 175.825074)scale(0.1 -0.1)">
      <use xlink:href="#DejaVuSans-87"/>
      <use x="93.376953" xlink:href="#DejaVuSans-65"/>
      <use x="161.785156" xlink:href="#DejaVuSans-83"/>
      <use x="225.261719" xlink:href="#DejaVuSans-76"/>
     </g>
    </g>
   </g>
   <g id="text_19">
    <g clip-path="url(#pa25bdafaea)">
     <!-- CDC42 -->
     <g transform="translate(410.317407 205.258977)scale(0.1 -0.1)">
      <use xlink:href="#DejaVuSans-67"/>
      <use x="69.824219" xlink:href="#DejaVuSans-68"/>
      <use x="146.826172" xlink:href="#DejaVuSans-67"/>
      <use x="216.650391" xlink:href="#DejaVuSans-52"/>
      <use x="280.273438" xlink:href="#DejaVuSans-50"/>
     </g>
    </g>
   </g>
   <g id="text_20">
    <g clip-path="url(#pa25bdafaea)">
     <!-- CTNNB1 -->
     <g transform="translate(433.911993 201.32154)scale(0.1 -0.1)">
      <use xlink:href="#DejaVuSans-67"/>
      <use x="69.824219" xlink:href="#DejaVuSans-84"/>
      <use x="130.908203" xlink:href="#DejaVuSans-78"/>
      <use x="205.712891" xlink:href="#DejaVuSans-78"/>
      <use x="280.517578" xlink:href="#DejaVuSans-66"/>
      <use x="349.121094" xlink:href="#DejaVuSans-49"/>
     </g>
    </g>
   </g>
   <g id="text_21">
    <g clip-path="url(#pa25bdafaea)">
     <!-- IQGAP1 -->
     <g transform="translate(549.847819 150.488816)scale(0.1 -0.1)">
      <defs>
       <path d="M 39.40625 66.21875 
Q 28.65625 66.21875 22.328125 58.203125 
Q 16.015625 50.203125 16.015625 36.375 
Q 16.015625 22.609375 22.328125 14.59375 
Q 28.65625 6.59375 39.40625 6.59375 
Q 50.140625 6.59375 56.421875 14.59375 
Q 62.703125 22.609375 62.703125 36.375 
Q 62.703125 50.203125 56.421875 58.203125 
Q 50.140625 66.21875 39.40625 66.21875 
z
M 53.21875 1.3125 
L 66.21875 -12.890625 
L 54.296875 -12.890625 
L 43.5 -1.21875 
Q 41.890625 -1.3125 41.03125 -1.359375 
Q 40.1875 -1.421875 39.40625 -1.421875 
Q 24.03125 -1.421875 14.8125 8.859375 
Q 5.609375 19.140625 5.609375 36.375 
Q 5.609375 53.65625 14.8125 63.9375 
Q 24.03125 74.21875 39.40625 74.21875 
Q 54.734375 74.21875 63.90625 63.9375 
Q 73.09375 53.65625 73.09375 36.375 
Q 73.09375 23.6875 67.984375 14.640625 
Q 62.890625 5.609375 53.21875 1.3125 
z
" id="DejaVuSans-81"/>
      </defs>
      <use xlink:href="#DejaVuSans-73"/>
      <use x="29.492188" xlink:href="#DejaVuSans-81"/>
      <use x="108.203125" xlink:href="#DejaVuSans-71"/>
      <use x="185.693359" xlink:href="#DejaVuSans-65"/>
      <use x="254.101562" xlink:href="#DejaVuSans-80"/>
      <use x="314.404297" xlink:href="#DejaVuSans-49"/>
     </g>
    </g>
   </g>
   <g id="text_22">
    <g clip-path="url(#pa25bdafaea)">
     <!-- FARP2 -->
     <g transform="translate(519.666883 124.152581)scale(0.1 -0.1)">
      <use xlink:href="#DejaVuSans-70"/>
      <use x="48.394531" xlink:href="#DejaVuSans-65"/>
      <use x="116.802734" xlink:href="#DejaVuSans-82"/>
      <use x="186.285156" xlink:href="#DejaVuSans-80"/>
      <use x="246.587891" xlink:href="#DejaVuSans-50"/>
     </g>
    </g>
   </g>
   <g id="text_23">
    <g clip-path="url(#pa25bdafaea)">
     <!-- CCM2 -->
     <g transform="translate(535.13605 354.210074)scale(0.1 -0.1)">
      <use xlink:href="#DejaVuSans-67"/>
      <use x="69.824219" xlink:href="#DejaVuSans-67"/>
      <use x="139.648438" xlink:href="#DejaVuSans-77"/>
      <use x="225.927734" xlink:href="#DejaVuSans-50"/>
     </g>
    </g>
   </g>
   <g id="text_24">
    <g clip-path="url(#pa25bdafaea)">
     <!-- KRIT1 -->
     <g transform="translate(324.201119 333.76532)scale(0.1 -0.1)">
      <use xlink:href="#DejaVuSans-75"/>
      <use x="65.576172" xlink:href="#DejaVuSans-82"/>
      <use x="135.058594" xlink:href="#DejaVuSans-73"/>
      <use x="164.550781" xlink:href="#DejaVuSans-84"/>
      <use x="225.634766" xlink:href="#DejaVuSans-49"/>
     </g>
    </g>
   </g>
   <g id="text_25">
    <g clip-path="url(#pa25bdafaea)">
     <!-- PDCD10 -->
     <g transform="translate(598.125465 227.471117)scale(0.1 -0.1)">
      <defs>
       <path d="M 31.78125 66.40625 
Q 24.171875 66.40625 20.328125 58.90625 
Q 16.5 51.421875 16.5 36.375 
Q 16.5 21.390625 20.328125 13.890625 
Q 24.171875 6.390625 31.78125 6.390625 
Q 39.453125 6.390625 43.28125 13.890625 
Q 47.125 21.390625 47.125 36.375 
Q 47.125 51.421875 43.28125 58.90625 
Q 39.453125 66.40625 31.78125 66.40625 
z
M 31.78125 74.21875 
Q 44.046875 74.21875 50.515625 64.515625 
Q 56.984375 54.828125 56.984375 36.375 
Q 56.984375 17.96875 50.515625 8.265625 
Q 44.046875 -1.421875 31.78125 -1.421875 
Q 19.53125 -1.421875 13.0625 8.265625 
Q 6.59375 17.96875 6.59375 36.375 
Q 6.59375 54.828125 13.0625 64.515625 
Q 19.53125 74.21875 31.78125 74.21875 
z
" id="DejaVuSans-48"/>
      </defs>
      <use xlink:href="#DejaVuSans-80"/>
      <use x="60.302734" xlink:href="#DejaVuSans-68"/>
      <use x="137.304688" xlink:href="#DejaVuSans-67"/>
      <use x="207.128906" xlink:href="#DejaVuSans-68"/>
      <use x="284.130859" xlink:href="#DejaVuSans-49"/>
      <use x="347.753906" xlink:href="#DejaVuSans-48"/>
     </g>
    </g>
   </g>
   <g id="text_26">
    <g clip-path="url(#pa25bdafaea)">
     <!-- TCF7 -->
     <g transform="translate(189.042577 104.939069)scale(0.1 -0.1)">
      <use xlink:href="#DejaVuSans-84"/>
      <use x="55.208984" xlink:href="#DejaVuSans-67"/>
      <use x="125.033203" xlink:href="#DejaVuSans-70"/>
      <use x="182.552734" xlink:href="#DejaVuSans-55"/>
     </g>
    </g>
   </g>
   <g id="text_27">
    <g clip-path="url(#pa25bdafaea)">
     <!-- TCF7L2 -->
     <g transform="translate(199.322957 248.2577)scale(0.1 -0.1)">
      <use xlink:href="#DejaVuSans-84"/>
      <use x="55.208984" xlink:href="#DejaVuSans-67"/>
      <use x="125.033203" xlink:href="#DejaVuSans-70"/>
      <use x="182.552734" xlink:href="#DejaVuSans-55"/>
      <use x="246.175781" xlink:href="#DejaVuSans-76"/>
      <use x="301.888672" xlink:href="#DejaVuSans-50"/>
     </g>
    </g>
   </g>
   <g id="text_28">
    <g clip-path="url(#pa25bdafaea)">
     <!-- LEF1 -->
     <g transform="translate(117.828372 152.699739)scale(0.1 -0.1)">
      <use xlink:href="#DejaVuSans-76"/>
      <use x="55.712891" xlink:href="#DejaVuSans-69"/>
      <use x="118.896484" xlink:href="#DejaVuSans-70"/>
      <use x="176.416016" xlink:href="#DejaVuSans-49"/>
     </g>
    </g>
   </g>
   <g id="text_29">
    <g clip-path="url(#pa25bdafaea)">
     <!-- TGFBR2 -->
     <g transform="translate(225.532069 425.121469)scale(0.1 -0.1)">
      <use xlink:href="#DejaVuSans-84"/>
      <use x="61.083984" xlink:href="#DejaVuSans-71"/>
      <use x="138.574219" xlink:href="#DejaVuSans-70"/>
      <use x="196.09375" xlink:href="#DejaVuSans-66"/>
      <use x="264.697266" xlink:href="#DejaVuSans-82"/>
      <use x="334.179688" xlink:href="#DejaVuSans-50"/>
     </g>
    </g>
   </g>
   <g id="text_30">
    <g clip-path="url(#pa25bdafaea)">
     <!-- TGFBR1 -->
     <g transform="translate(63.298214 307.928653)scale(0.1 -0.1)">
      <use xlink:href="#DejaVuSans-84"/>
      <use x="61.083984" xlink:href="#DejaVuSans-71"/>
      <use x="138.574219" xlink:href="#DejaVuSans-70"/>
      <use x="196.09375" xlink:href="#DejaVuSans-66"/>
      <use x="264.697266" xlink:href="#DejaVuSans-82"/>
      <use x="334.179688" xlink:href="#DejaVuSans-49"/>
     </g>
    </g>
   </g>
   <g id="text_31">
    <g clip-path="url(#pa25bdafaea)">
     <!-- ERBB2 -->
     <g transform="translate(253.071738 103.873771)scale(0.1 -0.1)">
      <use xlink:href="#DejaVuSans-69"/>
      <use x="63.183594" xlink:href="#DejaVuSans-82"/>
      <use x="132.666016" xlink:href="#DejaVuSans-66"/>
      <use x="201.269531" xlink:href="#DejaVuSans-66"/>
      <use x="269.873047" xlink:href="#DejaVuSans-50"/>
     </g>
    </g>
   </g>
   <g id="text_32">
    <g clip-path="url(#pa25bdafaea)">
     <!-- CSNK2B -->
     <g transform="translate(266.514328 72.454624)scale(0.1 -0.1)">
      <use xlink:href="#DejaVuSans-67"/>
      <use x="69.824219" xlink:href="#DejaVuSans-83"/>
      <use x="133.300781" xlink:href="#DejaVuSans-78"/>
      <use x="208.105469" xlink:href="#DejaVuSans-75"/>
      <use x="273.681641" xlink:href="#DejaVuSans-50"/>
      <use x="337.304688" xlink:href="#DejaVuSans-66"/>
     </g>
    </g>
   </g>
   <g id="text_33">
    <g clip-path="url(#pa25bdafaea)">
     <!-- WASF2 -->
     <g transform="translate(298.022509 63.564773)scale(0.1 -0.1)">
      <use xlink:href="#DejaVuSans-87"/>
      <use x="93.376953" xlink:href="#DejaVuSans-65"/>
      <use x="161.785156" xlink:href="#DejaVuSans-83"/>
      <use x="225.261719" xlink:href="#DejaVuSans-70"/>
      <use x="282.78125" xlink:href="#DejaVuSans-50"/>
     </g>
    </g>
   </g>
   <g id="text_34">
    <g clip-path="url(#pa25bdafaea)">
     <!-- RAC1 -->
     <g transform="translate(398.254431 198.583967)scale(0.1 -0.1)">
      <use xlink:href="#DejaVuSans-82"/>
      <use x="65.482422" xlink:href="#DejaVuSans-65"/>
      <use x="132.140625" xlink:href="#DejaVuSans-67"/>
      <use x="201.964844" xlink:href="#DejaVuSans-49"/>
     </g>
    </g>
   </g>
   <g id="text_35">
    <g clip-path="url(#pa25bdafaea)">
     <!-- RAC2 -->
     <g transform="translate(427.435528 122.262989)scale(0.1 -0.1)">
      <use xlink:href="#DejaVuSans-82"/>
      <use x="65.482422" xlink:href="#DejaVuSans-65"/>
      <use x="132.140625" xlink:href="#DejaVuSans-67"/>
      <use x="201.964844" xlink:href="#DejaVuSans-50"/>
     </g>
    </g>
   </g>
   <g id="text_36">
    <g clip-path="url(#pa25bdafaea)">
     <!-- ROCK1 -->
     <g transform="translate(533.623719 317.793026)scale(0.1 -0.1)">
      <use xlink:href="#DejaVuSans-82"/>
      <use x="69.482422" xlink:href="#DejaVuSans-79"/>
      <use x="148.193359" xlink:href="#DejaVuSans-67"/>
      <use x="218.017578" xlink:href="#DejaVuSans-75"/>
      <use x="283.59375" xlink:href="#DejaVuSans-49"/>
     </g>
    </g>
   </g>
   <g id="text_37">
    <g clip-path="url(#pa25bdafaea)">
     <!-- ROCK2 -->
     <g transform="translate(304.101391 211.942648)scale(0.1 -0.1)">
      <use xlink:href="#DejaVuSans-82"/>
      <use x="69.482422" xlink:href="#DejaVuSans-79"/>
      <use x="148.193359" xlink:href="#DejaVuSans-67"/>
      <use x="218.017578" xlink:href="#DejaVuSans-75"/>
      <use x="283.59375" xlink:href="#DejaVuSans-50"/>
     </g>
    </g>
   </g>
   <g id="text_38">
    <g clip-path="url(#pa25bdafaea)">
     <!-- MYLPF -->
     <g transform="translate(325.884428 430.110227)scale(0.1 -0.1)">
      <use xlink:href="#DejaVuSans-77"/>
      <use x="86.279297" xlink:href="#DejaVuSans-89"/>
      <use x="147.363281" xlink:href="#DejaVuSans-76"/>
      <use x="203.076172" xlink:href="#DejaVuSans-80"/>
      <use x="263.378906" xlink:href="#DejaVuSans-70"/>
     </g>
    </g>
   </g>
   <g id="text_39">
    <g clip-path="url(#pa25bdafaea)">
     <!-- RAP1A -->
     <g transform="translate(470.705063 111.645073)scale(0.1 -0.1)">
      <use xlink:href="#DejaVuSans-82"/>
      <use x="65.482422" xlink:href="#DejaVuSans-65"/>
      <use x="133.890625" xlink:href="#DejaVuSans-80"/>
      <use x="194.193359" xlink:href="#DejaVuSans-49"/>
      <use x="257.816406" xlink:href="#DejaVuSans-65"/>
     </g>
    </g>
   </g>
   <g id="text_40">
    <g clip-path="url(#pa25bdafaea)">
     <!-- RAP1B -->
     <g transform="translate(534.502772 382.631487)scale(0.1 -0.1)">
      <use xlink:href="#DejaVuSans-82"/>
      <use x="65.482422" xlink:href="#DejaVuSans-65"/>
      <use x="133.890625" xlink:href="#DejaVuSans-80"/>
      <use x="194.193359" xlink:href="#DejaVuSans-49"/>
      <use x="257.816406" xlink:href="#DejaVuSans-66"/>
     </g>
    </g>
   </g>
   <g id="text_41">
    <!-- Importance Score for Each Node in the Network -->
    <g transform="translate(198.616875 16.318125)scale(0.12 -0.12)">
     <defs>
      <path d="M 52 44.1875 
Q 55.375 50.25 60.0625 53.125 
Q 64.75 56 71.09375 56 
Q 79.640625 56 84.28125 50.015625 
Q 88.921875 44.046875 88.921875 33.015625 
L 88.921875 0 
L 79.890625 0 
L 79.890625 32.71875 
Q 79.890625 40.578125 77.09375 44.375 
Q 74.3125 48.1875 68.609375 48.1875 
Q 61.625 48.1875 57.5625 43.546875 
Q 53.515625 38.921875 53.515625 30.90625 
L 53.515625 0 
L 44.484375 0 
L 44.484375 32.71875 
Q 44.484375 40.625 41.703125 44.40625 
Q 38.921875 48.1875 33.109375 48.1875 
Q 26.21875 48.1875 22.15625 43.53125 
Q 18.109375 38.875 18.109375 30.90625 
L 18.109375 0 
L 9.078125 0 
L 9.078125 54.6875 
L 18.109375 54.6875 
L 18.109375 46.1875 
Q 21.1875 51.21875 25.484375 53.609375 
Q 29.78125 56 35.6875 56 
Q 41.65625 56 45.828125 52.96875 
Q 50 49.953125 52 44.1875 
z
" id="DejaVuSans-109"/>
      <path d="M 18.109375 8.203125 
L 18.109375 -20.796875 
L 9.078125 -20.796875 
L 9.078125 54.6875 
L 18.109375 54.6875 
L 18.109375 46.390625 
Q 20.953125 51.265625 25.265625 53.625 
Q 29.59375 56 35.59375 56 
Q 45.5625 56 51.78125 48.09375 
Q 58.015625 40.1875 58.015625 27.296875 
Q 58.015625 14.40625 51.78125 6.484375 
Q 45.5625 -1.421875 35.59375 -1.421875 
Q 29.59375 -1.421875 25.265625 0.953125 
Q 20.953125 3.328125 18.109375 8.203125 
z
M 48.6875 27.296875 
Q 48.6875 37.203125 44.609375 42.84375 
Q 40.53125 48.484375 33.40625 48.484375 
Q 26.265625 48.484375 22.1875 42.84375 
Q 18.109375 37.203125 18.109375 27.296875 
Q 18.109375 17.390625 22.1875 11.75 
Q 26.265625 6.109375 33.40625 6.109375 
Q 40.53125 6.109375 44.609375 11.75 
Q 48.6875 17.390625 48.6875 27.296875 
z
" id="DejaVuSans-112"/>
      <path d="M 30.609375 48.390625 
Q 23.390625 48.390625 19.1875 42.75 
Q 14.984375 37.109375 14.984375 27.296875 
Q 14.984375 17.484375 19.15625 11.84375 
Q 23.34375 6.203125 30.609375 6.203125 
Q 37.796875 6.203125 41.984375 11.859375 
Q 46.1875 17.53125 46.1875 27.296875 
Q 46.1875 37.015625 41.984375 42.703125 
Q 37.796875 48.390625 30.609375 48.390625 
z
M 30.609375 56 
Q 42.328125 56 49.015625 48.375 
Q 55.71875 40.765625 55.71875 27.296875 
Q 55.71875 13.875 49.015625 6.21875 
Q 42.328125 -1.421875 30.609375 -1.421875 
Q 18.84375 -1.421875 12.171875 6.21875 
Q 5.515625 13.875 5.515625 27.296875 
Q 5.515625 40.765625 12.171875 48.375 
Q 18.84375 56 30.609375 56 
z
" id="DejaVuSans-111"/>
      <path d="M 41.109375 46.296875 
Q 39.59375 47.171875 37.8125 47.578125 
Q 36.03125 48 33.890625 48 
Q 26.265625 48 22.1875 43.046875 
Q 18.109375 38.09375 18.109375 28.8125 
L 18.109375 0 
L 9.078125 0 
L 9.078125 54.6875 
L 18.109375 54.6875 
L 18.109375 46.1875 
Q 20.953125 51.171875 25.484375 53.578125 
Q 30.03125 56 36.53125 56 
Q 37.453125 56 38.578125 55.875 
Q 39.703125 55.765625 41.0625 55.515625 
z
" id="DejaVuSans-114"/>
      <path d="M 18.3125 70.21875 
L 18.3125 54.6875 
L 36.8125 54.6875 
L 36.8125 47.703125 
L 18.3125 47.703125 
L 18.3125 18.015625 
Q 18.3125 11.328125 20.140625 9.421875 
Q 21.96875 7.515625 27.59375 7.515625 
L 36.8125 7.515625 
L 36.8125 0 
L 27.59375 0 
Q 17.1875 0 13.234375 3.875 
Q 9.28125 7.765625 9.28125 18.015625 
L 9.28125 47.703125 
L 2.6875 47.703125 
L 2.6875 54.6875 
L 9.28125 54.6875 
L 9.28125 70.21875 
z
" id="DejaVuSans-116"/>
      <path d="M 34.28125 27.484375 
Q 23.390625 27.484375 19.1875 25 
Q 14.984375 22.515625 14.984375 16.5 
Q 14.984375 11.71875 18.140625 8.90625 
Q 21.296875 6.109375 26.703125 6.109375 
Q 34.1875 6.109375 38.703125 11.40625 
Q 43.21875 16.703125 43.21875 25.484375 
L 43.21875 27.484375 
z
M 52.203125 31.203125 
L 52.203125 0 
L 43.21875 0 
L 43.21875 8.296875 
Q 40.140625 3.328125 35.546875 0.953125 
Q 30.953125 -1.421875 24.3125 -1.421875 
Q 15.921875 -1.421875 10.953125 3.296875 
Q 6 8.015625 6 15.921875 
Q 6 25.140625 12.171875 29.828125 
Q 18.359375 34.515625 30.609375 34.515625 
L 43.21875 34.515625 
L 43.21875 35.40625 
Q 43.21875 41.609375 39.140625 45 
Q 35.0625 48.390625 27.6875 48.390625 
Q 23 48.390625 18.546875 47.265625 
Q 14.109375 46.140625 10.015625 43.890625 
L 10.015625 52.203125 
Q 14.9375 54.109375 19.578125 55.046875 
Q 24.21875 56 28.609375 56 
Q 40.484375 56 46.34375 49.84375 
Q 52.203125 43.703125 52.203125 31.203125 
z
" id="DejaVuSans-97"/>
      <path d="M 54.890625 33.015625 
L 54.890625 0 
L 45.90625 0 
L 45.90625 32.71875 
Q 45.90625 40.484375 42.875 44.328125 
Q 39.84375 48.1875 33.796875 48.1875 
Q 26.515625 48.1875 22.3125 43.546875 
Q 18.109375 38.921875 18.109375 30.90625 
L 18.109375 0 
L 9.078125 0 
L 9.078125 54.6875 
L 18.109375 54.6875 
L 18.109375 46.1875 
Q 21.34375 51.125 25.703125 53.5625 
Q 30.078125 56 35.796875 56 
Q 45.21875 56 50.046875 50.171875 
Q 54.890625 44.34375 54.890625 33.015625 
z
" id="DejaVuSans-110"/>
      <path d="M 48.78125 52.59375 
L 48.78125 44.1875 
Q 44.96875 46.296875 41.140625 47.34375 
Q 37.3125 48.390625 33.40625 48.390625 
Q 24.65625 48.390625 19.8125 42.84375 
Q 14.984375 37.3125 14.984375 27.296875 
Q 14.984375 17.28125 19.8125 11.734375 
Q 24.65625 6.203125 33.40625 6.203125 
Q 37.3125 6.203125 41.140625 7.25 
Q 44.96875 8.296875 48.78125 10.40625 
L 48.78125 2.09375 
Q 45.015625 0.34375 40.984375 -0.53125 
Q 36.96875 -1.421875 32.421875 -1.421875 
Q 20.0625 -1.421875 12.78125 6.34375 
Q 5.515625 14.109375 5.515625 27.296875 
Q 5.515625 40.671875 12.859375 48.328125 
Q 20.21875 56 33.015625 56 
Q 37.15625 56 41.109375 55.140625 
Q 45.0625 54.296875 48.78125 52.59375 
z
" id="DejaVuSans-99"/>
      <path d="M 56.203125 29.59375 
L 56.203125 25.203125 
L 14.890625 25.203125 
Q 15.484375 15.921875 20.484375 11.0625 
Q 25.484375 6.203125 34.421875 6.203125 
Q 39.59375 6.203125 44.453125 7.46875 
Q 49.3125 8.734375 54.109375 11.28125 
L 54.109375 2.78125 
Q 49.265625 0.734375 44.1875 -0.34375 
Q 39.109375 -1.421875 33.890625 -1.421875 
Q 20.796875 -1.421875 13.15625 6.1875 
Q 5.515625 13.8125 5.515625 26.8125 
Q 5.515625 40.234375 12.765625 48.109375 
Q 20.015625 56 32.328125 56 
Q 43.359375 56 49.78125 48.890625 
Q 56.203125 41.796875 56.203125 29.59375 
z
M 47.21875 32.234375 
Q 47.125 39.59375 43.09375 43.984375 
Q 39.0625 48.390625 32.421875 48.390625 
Q 24.90625 48.390625 20.390625 44.140625 
Q 15.875 39.890625 15.1875 32.171875 
z
" id="DejaVuSans-101"/>
      <path id="DejaVuSans-32"/>
      <path d="M 37.109375 75.984375 
L 37.109375 68.5 
L 28.515625 68.5 
Q 23.6875 68.5 21.796875 66.546875 
Q 19.921875 64.59375 19.921875 59.515625 
L 19.921875 54.6875 
L 34.71875 54.6875 
L 34.71875 47.703125 
L 19.921875 47.703125 
L 19.921875 0 
L 10.890625 0 
L 10.890625 47.703125 
L 2.296875 47.703125 
L 2.296875 54.6875 
L 10.890625 54.6875 
L 10.890625 58.5 
Q 10.890625 67.625 15.140625 71.796875 
Q 19.390625 75.984375 28.609375 75.984375 
z
" id="DejaVuSans-102"/>
      <path d="M 54.890625 33.015625 
L 54.890625 0 
L 45.90625 0 
L 45.90625 32.71875 
Q 45.90625 40.484375 42.875 44.328125 
Q 39.84375 48.1875 33.796875 48.1875 
Q 26.515625 48.1875 22.3125 43.546875 
Q 18.109375 38.921875 18.109375 30.90625 
L 18.109375 0 
L 9.078125 0 
L 9.078125 75.984375 
L 18.109375 75.984375 
L 18.109375 46.1875 
Q 21.34375 51.125 25.703125 53.5625 
Q 30.078125 56 35.796875 56 
Q 45.21875 56 50.046875 50.171875 
Q 54.890625 44.34375 54.890625 33.015625 
z
" id="DejaVuSans-104"/>
      <path d="M 45.40625 46.390625 
L 45.40625 75.984375 
L 54.390625 75.984375 
L 54.390625 0 
L 45.40625 0 
L 45.40625 8.203125 
Q 42.578125 3.328125 38.25 0.953125 
Q 33.9375 -1.421875 27.875 -1.421875 
Q 17.96875 -1.421875 11.734375 6.484375 
Q 5.515625 14.40625 5.515625 27.296875 
Q 5.515625 40.1875 11.734375 48.09375 
Q 17.96875 56 27.875 56 
Q 33.9375 56 38.25 53.625 
Q 42.578125 51.265625 45.40625 46.390625 
z
M 14.796875 27.296875 
Q 14.796875 17.390625 18.875 11.75 
Q 22.953125 6.109375 30.078125 6.109375 
Q 37.203125 6.109375 41.296875 11.75 
Q 45.40625 17.390625 45.40625 27.296875 
Q 45.40625 37.203125 41.296875 42.84375 
Q 37.203125 48.484375 30.078125 48.484375 
Q 22.953125 48.484375 18.875 42.84375 
Q 14.796875 37.203125 14.796875 27.296875 
z
" id="DejaVuSans-100"/>
      <path d="M 9.421875 54.6875 
L 18.40625 54.6875 
L 18.40625 0 
L 9.421875 0 
z
M 9.421875 75.984375 
L 18.40625 75.984375 
L 18.40625 64.59375 
L 9.421875 64.59375 
z
" id="DejaVuSans-105"/>
      <path d="M 4.203125 54.6875 
L 13.1875 54.6875 
L 24.421875 12.015625 
L 35.59375 54.6875 
L 46.1875 54.6875 
L 57.421875 12.015625 
L 68.609375 54.6875 
L 77.59375 54.6875 
L 63.28125 0 
L 52.6875 0 
L 40.921875 44.828125 
L 29.109375 0 
L 18.5 0 
z
" id="DejaVuSans-119"/>
      <path d="M 9.078125 75.984375 
L 18.109375 75.984375 
L 18.109375 31.109375 
L 44.921875 54.6875 
L 56.390625 54.6875 
L 27.390625 29.109375 
L 57.625 0 
L 45.90625 0 
L 18.109375 26.703125 
L 18.109375 0 
L 9.078125 0 
z
" id="DejaVuSans-107"/>
     </defs>
     <use xlink:href="#DejaVuSans-73"/>
     <use x="29.492188" xlink:href="#DejaVuSans-109"/>
     <use x="126.904297" xlink:href="#DejaVuSans-112"/>
     <use x="190.380859" xlink:href="#DejaVuSans-111"/>
     <use x="251.5625" xlink:href="#DejaVuSans-114"/>
     <use x="292.675781" xlink:href="#DejaVuSans-116"/>
     <use x="331.884766" xlink:href="#DejaVuSans-97"/>
     <use x="393.164062" xlink:href="#DejaVuSans-110"/>
     <use x="456.542969" xlink:href="#DejaVuSans-99"/>
     <use x="511.523438" xlink:href="#DejaVuSans-101"/>
     <use x="573.046875" xlink:href="#DejaVuSans-32"/>
     <use x="604.833984" xlink:href="#DejaVuSans-83"/>
     <use x="668.310547" xlink:href="#DejaVuSans-99"/>
     <use x="723.291016" xlink:href="#DejaVuSans-111"/>
     <use x="784.472656" xlink:href="#DejaVuSans-114"/>
     <use x="823.335938" xlink:href="#DejaVuSans-101"/>
     <use x="884.859375" xlink:href="#DejaVuSans-32"/>
     <use x="916.646484" xlink:href="#DejaVuSans-102"/>
     <use x="951.851562" xlink:href="#DejaVuSans-111"/>
     <use x="1013.033203" xlink:href="#DejaVuSans-114"/>
     <use x="1054.146484" xlink:href="#DejaVuSans-32"/>
     <use x="1085.933594" xlink:href="#DejaVuSans-69"/>
     <use x="1149.117188" xlink:href="#DejaVuSans-97"/>
     <use x="1210.396484" xlink:href="#DejaVuSans-99"/>
     <use x="1265.376953" xlink:href="#DejaVuSans-104"/>
     <use x="1328.755859" xlink:href="#DejaVuSans-32"/>
     <use x="1360.542969" xlink:href="#DejaVuSans-78"/>
     <use x="1435.347656" xlink:href="#DejaVuSans-111"/>
     <use x="1496.529297" xlink:href="#DejaVuSans-100"/>
     <use x="1560.005859" xlink:href="#DejaVuSans-101"/>
     <use x="1621.529297" xlink:href="#DejaVuSans-32"/>
     <use x="1653.316406" xlink:href="#DejaVuSans-105"/>
     <use x="1681.099609" xlink:href="#DejaVuSans-110"/>
     <use x="1744.478516" xlink:href="#DejaVuSans-32"/>
     <use x="1776.265625" xlink:href="#DejaVuSans-116"/>
     <use x="1815.474609" xlink:href="#DejaVuSans-104"/>
     <use x="1878.853516" xlink:href="#DejaVuSans-101"/>
     <use x="1940.376953" xlink:href="#DejaVuSans-32"/>
     <use x="1972.164062" xlink:href="#DejaVuSans-78"/>
     <use x="2046.96875" xlink:href="#DejaVuSans-101"/>
     <use x="2108.492188" xlink:href="#DejaVuSans-116"/>
     <use x="2147.701172" xlink:href="#DejaVuSans-119"/>
     <use x="2229.488281" xlink:href="#DejaVuSans-111"/>
     <use x="2290.669922" xlink:href="#DejaVuSans-114"/>
     <use x="2331.783203" xlink:href="#DejaVuSans-107"/>
    </g>
   </g>
  </g>
 </g>
 <defs>
  <clipPath id="pa25bdafaea">
   <rect height="443.52" width="669.6" x="7.2" y="22.318125"/>
  </clipPath>
 </defs>
</svg>
