<?xml version="1.0" encoding="utf-8" standalone="no"?>
<!DOCTYPE svg PUBLIC "-//W3C//DTD SVG 1.1//EN"
  "http://www.w3.org/Graphics/SVG/1.1/DTD/svg11.dtd">
<!-- Created with matplotlib (https://matplotlib.org/) -->
<svg height="473.038125pt" version="1.1" viewBox="0 0 684 473.038125" width="684pt" xmlns="http://www.w3.org/2000/svg" xmlns:xlink="http://www.w3.org/1999/xlink">
 <metadata>
  <rdf:RDF xmlns:cc="http://creativecommons.org/ns#" xmlns:dc="http://purl.org/dc/elements/1.1/" xmlns:rdf="http://www.w3.org/1999/02/22-rdf-syntax-ns#">
   <cc:Work>
    <dc:type rdf:resource="http://purl.org/dc/dcmitype/StillImage"/>
    <dc:date>2024-04-26T10:50:27.396175</dc:date>
    <dc:format>image/svg+xml</dc:format>
    <dc:creator>
     <cc:Agent>
      <dc:title>Matplotlib v3.3.1, https://matplotlib.org/</dc:title>
     </cc:Agent>
    </dc:creator>
   </cc:Work>
  </rdf:RDF>
 </metadata>
 <defs>
  <style type="text/css">*{stroke-linecap:butt;stroke-linejoin:round;}</style>
 </defs>
 <g id="figure_1">
  <g id="patch_1">
   <path d="M 0 473.038125 
L 684 473.038125 
L 684 0 
L 0 0 
z
" style="fill:#ffffff;"/>
  </g>
  <g id="axes_1">
   <g id="patch_2">
    <path clip-path="url(#p4bf8f4b460)" d="M 513.939605 193.43047 
Q 430.986008 232.617506 349.043324 271.326989 
" style="fill:none;stroke:#808080;stroke-linecap:round;"/>
    <path clip-path="url(#p4bf8f4b460)" d="M 353.514346 271.426822 
L 349.043324 271.326989 
L 351.805803 267.810072 
L 353.514346 271.426822 
z
" style="fill:#808080;stroke:#808080;stroke-linecap:round;"/>
   </g>
   <g id="patch_3">
    <path clip-path="url(#p4bf8f4b460)" d="M 516.022856 196.208908 
Q 462.993567 255.96618 410.706369 314.887209 
" style="fill:none;stroke:#808080;stroke-linecap:round;"/>
    <path clip-path="url(#p4bf8f4b460)" d="M 414.85727 313.222871 
L 410.706369 314.887209 
L 411.865439 310.567886 
L 414.85727 313.222871 
z
" style="fill:#808080;stroke:#808080;stroke-linecap:round;"/>
   </g>
   <g id="patch_4">
    <path clip-path="url(#p4bf8f4b460)" d="M 86.278304 292.063549 
Q 82.198032 298.44175 78.720254 303.878143 
" style="fill:none;stroke:#808080;stroke-linecap:round;"/>
    <path clip-path="url(#p4bf8f4b460)" d="M 82.560559 301.586406 
L 78.720254 303.878143 
L 79.191047 299.430857 
L 82.560559 301.586406 
z
" style="fill:#808080;stroke:#808080;stroke-linecap:round;"/>
   </g>
   <g id="patch_5">
    <path clip-path="url(#p4bf8f4b460)" d="M 298.112322 173.464307 
Q 405.623208 181.283329 512.019004 189.021253 
" style="fill:none;stroke:#808080;stroke-linecap:round;"/>
    <path clip-path="url(#p4bf8f4b460)" d="M 508.174613 186.736377 
L 512.019004 189.021253 
L 507.884469 190.72584 
L 508.174613 186.736377 
z
" style="fill:#808080;stroke:#808080;stroke-linecap:round;"/>
   </g>
   <g id="patch_6">
    <path clip-path="url(#p4bf8f4b460)" d="M 282.192706 177.530783 
Q 181.460132 242.477804 81.667216 306.818984 
" style="fill:none;stroke:#808080;stroke-linecap:round;"/>
    <path clip-path="url(#p4bf8f4b460)" d="M 86.112798 306.33237 
L 81.667216 306.818984 
L 83.945275 302.970549 
L 86.112798 306.33237 
z
" style="fill:#808080;stroke:#808080;stroke-linecap:round;"/>
   </g>
   <g id="patch_7">
    <path clip-path="url(#p4bf8f4b460)" d="M 71.75961 233.755411 
Q 152.658795 306.206994 232.725122 377.912688 
" style="fill:none;stroke:#808080;stroke-linecap:round;"/>
    <path clip-path="url(#p4bf8f4b460)" d="M 231.07969 373.754257 
L 232.725122 377.912688 
L 228.411118 376.733975 
L 231.07969 373.754257 
z
" style="fill:#808080;stroke:#808080;stroke-linecap:round;"/>
   </g>
   <g id="patch_8">
    <path clip-path="url(#p4bf8f4b460)" d="M 69.856334 220.60584 
Q 109.435375 156.507159 148.427018 93.359775 
" style="fill:none;stroke:#808080;stroke-linecap:round;"/>
    <path clip-path="url(#p4bf8f4b460)" d="M 144.623752 95.712467 
L 148.427018 93.359775 
L 148.027212 97.814004 
L 144.623752 95.712467 
z
" style="fill:#808080;stroke:#808080;stroke-linecap:round;"/>
   </g>
   <g id="patch_9">
    <path clip-path="url(#p4bf8f4b460)" d="M 411.81102 413.572913 
Q 374.18329 419.759489 337.658782 425.764678 
" style="fill:none;stroke:#808080;stroke-linecap:round;"/>
    <path clip-path="url(#p4bf8f4b460)" d="M 341.930263 427.089233 
L 337.658782 425.764678 
L 341.281315 423.142226 
L 341.930263 427.089233 
z
" style="fill:#808080;stroke:#808080;stroke-linecap:round;"/>
   </g>
   <g id="patch_10">
    <path clip-path="url(#p4bf8f4b460)" d="M 411.760257 411.100315 
Q 274.144765 394.019475 137.638793 377.076349 
" style="fill:none;stroke:#808080;stroke-linecap:round;"/>
    <path clip-path="url(#p4bf8f4b460)" d="M 141.361983 379.553818 
L 137.638793 377.076349 
L 141.854683 375.584278 
L 141.361983 379.553818 
z
" style="fill:#808080;stroke:#808080;stroke-linecap:round;"/>
   </g>
   <g id="patch_11">
    <path clip-path="url(#p4bf8f4b460)" d="M 328.013357 418.691775 
Q 328.019923 389.395964 328.026238 361.218187 
" style="fill:none;stroke:#808080;stroke-linecap:round;"/>
    <path clip-path="url(#p4bf8f4b460)" d="M 326.025341 365.217738 
L 328.026238 361.218187 
L 330.025341 365.218635 
L 326.025341 365.217738 
z
" style="fill:#808080;stroke:#808080;stroke-linecap:round;"/>
   </g>
   <g id="patch_12">
    <path clip-path="url(#p4bf8f4b460)" d="M 335.274373 346.697235 
Q 465.552815 261.35675 594.896019 176.628906 
" style="fill:none;stroke:#808080;stroke-linecap:round;"/>
    <path clip-path="url(#p4bf8f4b460)" d="M 590.454082 177.147746 
L 594.896019 176.628906 
L 592.645929 180.493759 
L 590.454082 177.147746 
z
" style="fill:#808080;stroke:#808080;stroke-linecap:round;"/>
   </g>
   <g id="patch_13">
    <path clip-path="url(#p4bf8f4b460)" d="M 313.189051 181.444611 
Q 197.206196 216.846221 82.292672 251.921437 
" style="fill:none;stroke:#808080;stroke-linecap:round;"/>
    <path clip-path="url(#p4bf8f4b460)" d="M 86.702295 252.666574 
L 82.292672 251.921437 
L 85.534555 248.840821 
L 86.702295 252.666574 
z
" style="fill:#808080;stroke:#808080;stroke-linecap:round;"/>
   </g>
   <g id="patch_14">
    <path clip-path="url(#p4bf8f4b460)" d="M 324.940982 170.974838 
Q 347.250877 119.859082 369.113538 69.768013 
" style="fill:none;stroke:#808080;stroke-linecap:round;"/>
    <path clip-path="url(#p4bf8f4b460)" d="M 365.680453 72.634009 
L 369.113538 69.768013 
L 369.346484 74.234078 
L 365.680453 72.634009 
z
" style="fill:#808080;stroke:#808080;stroke-linecap:round;"/>
   </g>
   <g id="patch_15">
    <path clip-path="url(#p4bf8f4b460)" d="M 79.387373 197.431722 
Q 94.042916 263.060098 108.454792 327.597316 
" style="fill:none;stroke:#808080;stroke-linecap:round;"/>
    <path clip-path="url(#p4bf8f4b460)" d="M 109.534943 323.257584 
L 108.454792 327.597316 
L 105.631097 324.129356 
L 109.534943 323.257584 
z
" style="fill:#808080;stroke:#808080;stroke-linecap:round;"/>
   </g>
   <g id="patch_16">
    <path clip-path="url(#p4bf8f4b460)" d="M 477.189923 180.827455 
Q 491.847536 134.860697 506.165488 89.959129 
" style="fill:none;stroke:#808080;stroke-linecap:round;"/>
    <path clip-path="url(#p4bf8f4b460)" d="M 503.044808 93.162464 
L 506.165488 89.959129 
L 506.855748 94.377674 
L 503.044808 93.162464 
z
" style="fill:#808080;stroke:#808080;stroke-linecap:round;"/>
   </g>
   <g id="patch_17">
    <path clip-path="url(#p4bf8f4b460)" d="M 466.794943 185.243479 
Q 353.118401 129.113837 240.444346 73.479189 
" style="fill:none;stroke:#808080;stroke-linecap:round;"/>
    <path clip-path="url(#p4bf8f4b460)" d="M 243.145481 77.043438 
L 240.444346 73.479189 
L 244.916426 73.456831 
L 243.145481 77.043438 
z
" style="fill:#808080;stroke:#808080;stroke-linecap:round;"/>
   </g>
   <g id="patch_18">
    <path clip-path="url(#p4bf8f4b460)" d="M 477.773365 197.117854 
Q 511.116017 280.530382 544.043681 362.904746 
" style="fill:none;stroke:#808080;stroke-linecap:round;"/>
    <path clip-path="url(#p4bf8f4b460)" d="M 544.416102 358.448143 
L 544.043681 362.904746 
L 540.701852 359.932848 
L 544.416102 358.448143 
z
" style="fill:#808080;stroke:#808080;stroke-linecap:round;"/>
   </g>
   <g id="patch_19">
    <path clip-path="url(#p4bf8f4b460)" d="M 212.814383 367.293314 
Q 184.130567 256.666929 155.727362 147.12279 
" style="fill:none;stroke:#808080;stroke-linecap:round;"/>
    <path clip-path="url(#p4bf8f4b460)" d="M 154.795324 151.496725 
L 155.727362 147.12279 
L 158.667287 150.492781 
L 154.795324 151.496725 
z
" style="fill:#808080;stroke:#808080;stroke-linecap:round;"/>
   </g>
   <g id="patch_20">
    <path clip-path="url(#p4bf8f4b460)" d="M 147.229738 143.860023 
Q 109.289158 182.815543 72.128644 220.970128 
" style="fill:none;stroke:#808080;stroke-linecap:round;"/>
    <path clip-path="url(#p4bf8f4b460)" d="M 76.35225 219.500045 
L 72.128644 220.970128 
L 73.486741 216.709193 
L 76.35225 219.500045 
z
" style="fill:#808080;stroke:#808080;stroke-linecap:round;"/>
   </g>
   <g id="patch_21">
    <path clip-path="url(#p4bf8f4b460)" d="M 439.57294 205.862206 
Q 439.263579 138.788647 438.959376 72.83311 
" style="fill:none;stroke:#808080;stroke-linecap:round;"/>
    <path clip-path="url(#p4bf8f4b460)" d="M 436.977846 76.842292 
L 438.959376 72.83311 
L 440.977803 76.823843 
L 436.977846 76.842292 
z
" style="fill:#808080;stroke:#808080;stroke-linecap:round;"/>
   </g>
   <g id="patch_22">
    <path clip-path="url(#p4bf8f4b460)" d="M 432.270378 219.113952 
Q 304.217768 299.235364 177.112954 378.763748 
" style="fill:none;stroke:#808080;stroke-linecap:round;"/>
    <path clip-path="url(#p4bf8f4b460)" d="M 181.564734 378.337536 
L 177.112954 378.763748 
L 179.443053 374.946597 
L 181.564734 378.337536 
z
" style="fill:#808080;stroke:#808080;stroke-linecap:round;"/>
   </g>
   <g id="patch_23">
    <path clip-path="url(#p4bf8f4b460)" d="M 448.184925 215.754028 
Q 529.153162 227.411884 609.014776 238.910408 
" style="fill:none;stroke:#808080;stroke-linecap:round;"/>
    <path clip-path="url(#p4bf8f4b460)" d="M 605.340625 236.360778 
L 609.014776 238.910408 
L 604.770581 240.31995 
L 605.340625 236.360778 
z
" style="fill:#808080;stroke:#808080;stroke-linecap:round;"/>
   </g>
   <g id="patch_24">
    <path clip-path="url(#p4bf8f4b460)" d="M 447.785083 217.390451 
Q 527.729412 245.472307 606.618893 273.183628 
" style="fill:none;stroke:#808080;stroke-linecap:round;"/>
    <path clip-path="url(#p4bf8f4b460)" d="M 603.507785 269.970995 
L 606.618893 273.183628 
L 602.182122 273.744935 
L 603.507785 269.970995 
z
" style="fill:#808080;stroke:#808080;stroke-linecap:round;"/>
   </g>
   <g id="patch_25">
    <path clip-path="url(#p4bf8f4b460)" d="M 238.394689 90.501315 
Q 155.240124 156.546024 72.961051 221.895383 
" style="fill:none;stroke:#808080;stroke-linecap:round;"/>
    <path clip-path="url(#p4bf8f4b460)" d="M 77.337189 220.973747 
L 72.961051 221.895383 
L 74.849425 217.84149 
L 77.337189 220.973747 
z
" style="fill:#808080;stroke:#808080;stroke-linecap:round;"/>
   </g>
   <g id="patch_26">
    <path clip-path="url(#p4bf8f4b460)" d="M 446.614334 241.053195 
Q 444.218265 231.972833 442.107451 223.973503 
" style="fill:none;stroke:#808080;stroke-linecap:round;"/>
    <path clip-path="url(#p4bf8f4b460)" d="M 441.194206 228.3514 
L 442.107451 223.973503 
L 445.061821 227.330838 
L 441.194206 228.3514 
z
" style="fill:#808080;stroke:#808080;stroke-linecap:round;"/>
   </g>
   <g id="patch_27">
    <path clip-path="url(#p4bf8f4b460)" d="M 448.363907 240.778138 
Q 443.869004 156.240842 439.433463 72.820004 
" style="fill:none;stroke:#808080;stroke-linecap:round;"/>
    <path clip-path="url(#p4bf8f4b460)" d="M 437.648667 76.920553 
L 439.433463 72.820004 
L 441.643025 76.70817 
L 437.648667 76.920553 
z
" style="fill:#808080;stroke:#808080;stroke-linecap:round;"/>
   </g>
   <g id="patch_28">
    <path clip-path="url(#p4bf8f4b460)" d="M 441.017856 253.176391 
Q 308.821426 316.689494 177.632754 379.718425 
" style="fill:none;stroke:#808080;stroke-linecap:round;"/>
    <path clip-path="url(#p4bf8f4b460)" d="M 182.104334 379.78893 
L 177.632754 379.718425 
L 180.372106 376.183464 
L 182.104334 379.78893 
z
" style="fill:#808080;stroke:#808080;stroke-linecap:round;"/>
   </g>
   <g id="patch_29">
    <path clip-path="url(#p4bf8f4b460)" d="M 457.473289 248.96162 
Q 533.761469 244.864946 608.933223 240.828225 
" style="fill:none;stroke:#808080;stroke-linecap:round;"/>
    <path clip-path="url(#p4bf8f4b460)" d="M 604.831732 239.045593 
L 608.933223 240.828225 
L 605.046223 243.039838 
L 604.831732 239.045593 
z
" style="fill:#808080;stroke:#808080;stroke-linecap:round;"/>
   </g>
   <g id="patch_30">
    <path clip-path="url(#p4bf8f4b460)" d="M 457.374163 250.808262 
Q 532.33757 262.925944 606.197269 274.865214 
" style="fill:none;stroke:#808080;stroke-linecap:round;"/>
    <path clip-path="url(#p4bf8f4b460)" d="M 602.56768 272.252537 
L 606.197269 274.865214 
L 601.929374 276.201279 
L 602.56768 272.252537 
z
" style="fill:#808080;stroke:#808080;stroke-linecap:round;"/>
   </g>
   <g id="patch_31">
    <path clip-path="url(#p4bf8f4b460)" d="M 296.867635 308.471258 
Q 203.353505 250.182948 110.788185 192.486041 
" style="fill:none;stroke:#808080;stroke-linecap:round;"/>
    <path clip-path="url(#p4bf8f4b460)" d="M 113.124819 196.299195 
L 110.788185 192.486041 
L 115.240689 192.904626 
L 113.124819 196.299195 
z
" style="fill:#808080;stroke:#808080;stroke-linecap:round;"/>
   </g>
   <g id="patch_32">
    <path clip-path="url(#p4bf8f4b460)" d="M 113.537718 137.945548 
Q 108.960715 158.404338 104.627803 177.772064 
" style="fill:none;stroke:#808080;stroke-linecap:round;"/>
    <path clip-path="url(#p4bf8f4b460)" d="M 107.452842 174.305199 
L 104.627803 177.772064 
L 103.549335 173.431914 
L 107.452842 174.305199 
z
" style="fill:#808080;stroke:#808080;stroke-linecap:round;"/>
   </g>
   <g id="patch_33">
    <path clip-path="url(#p4bf8f4b460)" d="M 475.304072 144.86499 
Q 490.201776 116.585143 504.578389 89.29447 
" style="fill:none;stroke:#808080;stroke-linecap:round;"/>
    <path clip-path="url(#p4bf8f4b460)" d="M 500.944587 91.901284 
L 504.578389 89.29447 
L 504.483559 93.7656 
L 500.944587 91.901284 
z
" style="fill:#808080;stroke:#808080;stroke-linecap:round;"/>
   </g>
   <g id="patch_34">
    <path clip-path="url(#p4bf8f4b460)" d="M 463.087809 149.684201 
Q 351.471964 110.840236 240.912035 72.363747 
" style="fill:none;stroke:#808080;stroke-linecap:round;"/>
    <path clip-path="url(#p4bf8f4b460)" d="M 244.032442 75.567348 
L 240.912035 72.363747 
L 245.347161 71.789582 
L 244.032442 75.567348 
z
" style="fill:#808080;stroke:#808080;stroke-linecap:round;"/>
   </g>
   <g id="patch_35">
    <path clip-path="url(#p4bf8f4b460)" d="M 474.114214 160.71089 
Q 509.46946 262.257251 544.457086 362.747745 
" style="fill:none;stroke:#808080;stroke-linecap:round;"/>
    <path clip-path="url(#p4bf8f4b460)" d="M 545.030642 358.312541 
L 544.457086 362.747745 
L 541.253057 359.627778 
L 545.030642 358.312541 
z
" style="fill:#808080;stroke:#808080;stroke-linecap:round;"/>
   </g>
   <g id="patch_36">
    <path clip-path="url(#p4bf8f4b460)" d="M 405.423194 107.468543 
Q 501.388847 155.074218 596.352931 202.183045 
" style="fill:none;stroke:#808080;stroke-linecap:round;"/>
    <path clip-path="url(#p4bf8f4b460)" d="M 593.658396 198.613803 
L 596.352931 202.183045 
L 591.880817 202.197127 
L 593.658396 198.613803 
z
" style="fill:#808080;stroke:#808080;stroke-linecap:round;"/>
   </g>
   <g id="patch_37">
    <path clip-path="url(#p4bf8f4b460)" d="M 608.556368 299.356464 
Q 606.99627 257.270314 605.477589 216.30143 
" style="fill:none;stroke:#808080;stroke-linecap:round;"/>
    <path clip-path="url(#p4bf8f4b460)" d="M 603.627136 220.372772 
L 605.477589 216.30143 
L 607.624391 220.224597 
L 603.627136 220.372772 
z
" style="fill:#808080;stroke:#808080;stroke-linecap:round;"/>
   </g>
   <g id="patch_38">
    <path clip-path="url(#p4bf8f4b460)" d="M 136.59084 375.852498 
Q 171.461759 375.775552 205.214647 375.701073 
" style="fill:none;stroke:#808080;stroke-linecap:round;"/>
    <path clip-path="url(#p4bf8f4b460)" d="M 201.210244 373.709905 
L 205.214647 375.701073 
L 201.21907 377.709895 
L 201.210244 373.709905 
z
" style="fill:#808080;stroke:#808080;stroke-linecap:round;"/>
   </g>
   <g id="patch_39">
    <path clip-path="url(#p4bf8f4b460)" d="M 342.650474 283.8129 
Q 359.843626 342.215667 376.721038 399.545911 
" style="fill:none;stroke:#808080;stroke-linecap:round;"/>
    <path clip-path="url(#p4bf8f4b460)" d="M 377.510003 395.143919 
L 376.721038 399.545911 
L 373.672824 396.273544 
L 377.510003 395.143919 
z
" style="fill:#808080;stroke:#808080;stroke-linecap:round;"/>
   </g>
   <g id="patch_40">
    <path clip-path="url(#p4bf8f4b460)" d="M 347.042847 280.814608 
Q 400.476558 322.318501 453.027302 363.136561 
" style="fill:none;stroke:#808080;stroke-linecap:round;"/>
    <path clip-path="url(#p4bf8f4b460)" d="M 451.095155 359.103348 
L 453.027302 363.136561 
L 448.641443 362.262351 
L 451.095155 359.103348 
z
" style="fill:#808080;stroke:#808080;stroke-linecap:round;"/>
   </g>
   <g id="patch_41">
    <path clip-path="url(#p4bf8f4b460)" d="M 348.534486 277.867182 
Q 363.840356 282.211628 378.070679 286.250789 
" style="fill:none;stroke:#808080;stroke-linecap:round;"/>
    <path clip-path="url(#p4bf8f4b460)" d="M 374.768796 283.234571 
L 378.070679 286.250789 
L 373.676574 287.082564 
L 374.768796 283.234571 
z
" style="fill:#808080;stroke:#808080;stroke-linecap:round;"/>
   </g>
   <g id="patch_42">
    <path clip-path="url(#p4bf8f4b460)" d="M 343.993673 283.287123 
Q 376.845765 350.769966 409.208483 417.247566 
" style="fill:none;stroke:#808080;stroke-linecap:round;"/>
    <path clip-path="url(#p4bf8f4b460)" d="M 409.255879 412.775681 
L 409.208483 417.247566 
L 405.659413 414.526518 
L 409.255879 412.775681 
z
" style="fill:#808080;stroke:#808080;stroke-linecap:round;"/>
   </g>
   <g id="patch_43">
    <path clip-path="url(#p4bf8f4b460)" d="M 335.312584 282.650406 
Q 330.386478 289.848819 326.091784 296.124562 
" style="fill:none;stroke:#808080;stroke-linecap:round;"/>
    <path clip-path="url(#p4bf8f4b460)" d="M 330.001315 293.953025 
L 326.091784 296.124562 
L 326.700273 291.694016 
L 330.001315 293.953025 
z
" style="fill:#808080;stroke:#808080;stroke-linecap:round;"/>
   </g>
   <g id="patch_44">
    <path clip-path="url(#p4bf8f4b460)" d="M 342.335344 283.898609 
Q 351.286147 319.158734 359.961861 353.335195 
" style="fill:none;stroke:#808080;stroke-linecap:round;"/>
    <path clip-path="url(#p4bf8f4b460)" d="M 360.91619 348.96607 
L 359.961861 353.335195 
L 357.039158 349.950256 
L 360.91619 348.96607 
z
" style="fill:#808080;stroke:#808080;stroke-linecap:round;"/>
   </g>
   <g id="patch_45">
    <path clip-path="url(#p4bf8f4b460)" d="M 401.841133 330.528991 
Q 391.849291 365.560696 382.164109 399.517246 
" style="fill:none;stroke:#808080;stroke-linecap:round;"/>
    <path clip-path="url(#p4bf8f4b460)" d="M 385.184543 396.219219 
L 382.164109 399.517246 
L 381.337948 395.122083 
L 385.184543 396.219219 
z
" style="fill:#808080;stroke:#808080;stroke-linecap:round;"/>
   </g>
   <g id="patch_46">
    <path clip-path="url(#p4bf8f4b460)" d="M 410.879599 327.731932 
Q 432.483203 345.667562 453.226592 362.889028 
" style="fill:none;stroke:#808080;stroke-linecap:round;"/>
    <path clip-path="url(#p4bf8f4b460)" d="M 451.426526 358.795159 
L 453.226592 362.889028 
L 448.871457 361.872759 
L 451.426526 358.795159 
z
" style="fill:#808080;stroke:#808080;stroke-linecap:round;"/>
   </g>
   <g id="patch_47">
    <path clip-path="url(#p4bf8f4b460)" d="M 400.324705 314.461519 
Q 395.847468 305.559024 391.872563 297.655361 
" style="fill:none;stroke:#808080;stroke-linecap:round;"/>
    <path clip-path="url(#p4bf8f4b460)" d="M 391.882995 302.127484 
L 391.872563 297.655361 
L 395.456522 300.330289 
L 391.882995 302.127484 
z
" style="fill:#808080;stroke:#808080;stroke-linecap:round;"/>
   </g>
   <g id="patch_48">
    <path clip-path="url(#p4bf8f4b460)" d="M 404.98709 330.829096 
Q 408.852293 374.12013 412.618068 416.297559 
" style="fill:none;stroke:#808080;stroke-linecap:round;"/>
    <path clip-path="url(#p4bf8f4b460)" d="M 414.254422 412.135546 
L 412.618068 416.297559 
L 410.27027 412.491268 
L 414.254422 412.135546 
z
" style="fill:#808080;stroke:#808080;stroke-linecap:round;"/>
   </g>
   <g id="patch_49">
    <path clip-path="url(#p4bf8f4b460)" d="M 395.749505 320.377326 
Q 362.393242 313.19586 330.129969 306.249711 
" style="fill:none;stroke:#808080;stroke-linecap:round;"/>
    <path clip-path="url(#p4bf8f4b460)" d="M 333.619421 309.046803 
L 330.129969 306.249711 
L 334.461314 305.136404 
L 333.619421 309.046803 
z
" style="fill:#808080;stroke:#808080;stroke-linecap:round;"/>
   </g>
   <g id="patch_50">
    <path clip-path="url(#p4bf8f4b460)" d="M 398.002225 328.231387 
Q 383.292065 342.507579 369.384221 356.005125 
" style="fill:none;stroke:#808080;stroke-linecap:round;"/>
    <path clip-path="url(#p4bf8f4b460)" d="M 373.647557 354.654581 
L 369.384221 356.005125 
L 370.861788 351.78413 
L 373.647557 354.654581 
z
" style="fill:#808080;stroke:#808080;stroke-linecap:round;"/>
   </g>
   <g id="patch_51">
    <path clip-path="url(#p4bf8f4b460)" d="M 387.261572 405.113656 
Q 420.114612 389.029268 451.963505 373.436497 
" style="fill:none;stroke:#808080;stroke-linecap:round;"/>
    <path clip-path="url(#p4bf8f4b460)" d="M 447.491525 373.399084 
L 451.963505 373.436497 
L 449.250387 376.991633 
L 447.491525 373.399084 
z
" style="fill:#808080;stroke:#808080;stroke-linecap:round;"/>
   </g>
   <g id="patch_52">
    <path clip-path="url(#p4bf8f4b460)" d="M 380.057298 400.283695 
Q 383.480711 348.923843 386.829767 298.679549 
" style="fill:none;stroke:#808080;stroke-linecap:round;"/>
    <path clip-path="url(#p4bf8f4b460)" d="M 384.568163 302.537677 
L 386.829767 298.679549 
L 388.559307 302.803708 
L 384.568163 302.537677 
z
" style="fill:#808080;stroke:#808080;stroke-linecap:round;"/>
   </g>
   <g id="patch_53">
    <path clip-path="url(#p4bf8f4b460)" d="M 387.21506 412.814933 
Q 396.482005 417.478896 404.750268 421.640232 
" style="fill:none;stroke:#808080;stroke-linecap:round;"/>
    <path clip-path="url(#p4bf8f4b460)" d="M 402.0764 418.055482 
L 404.750268 421.640232 
L 400.278148 421.628476 
L 402.0764 418.055482 
z
" style="fill:#808080;stroke:#808080;stroke-linecap:round;"/>
   </g>
   <g id="patch_54">
    <path clip-path="url(#p4bf8f4b460)" d="M 375.236856 401.376615 
Q 350.026873 356.558217 325.365012 312.714273 
" style="fill:none;stroke:#808080;stroke-linecap:round;"/>
    <path clip-path="url(#p4bf8f4b460)" d="M 325.582879 317.181099 
L 325.365012 312.714273 
L 329.069193 315.220076 
L 325.582879 317.181099 
z
" style="fill:#808080;stroke:#808080;stroke-linecap:round;"/>
   </g>
   <g id="patch_55">
    <path clip-path="url(#p4bf8f4b460)" d="M 376.468035 400.803617 
Q 370.924972 385.868951 365.770941 371.982452 
" style="fill:none;stroke:#808080;stroke-linecap:round;"/>
    <path clip-path="url(#p4bf8f4b460)" d="M 365.287764 376.428409 
L 365.770941 371.982452 
L 369.037801 375.036568 
L 365.287764 376.428409 
z
" style="fill:#808080;stroke:#808080;stroke-linecap:round;"/>
   </g>
   <g id="patch_56">
    <path clip-path="url(#p4bf8f4b460)" d="M 452.969647 372.943904 
Q 420.116607 389.028292 388.267714 404.621063 
" style="fill:none;stroke:#808080;stroke-linecap:round;"/>
    <path clip-path="url(#p4bf8f4b460)" d="M 392.739694 404.658476 
L 388.267714 404.621063 
L 390.980832 401.065927 
L 392.739694 404.658476 
z
" style="fill:#808080;stroke:#808080;stroke-linecap:round;"/>
   </g>
   <g id="patch_57">
    <path clip-path="url(#p4bf8f4b460)" d="M 454.907063 362.73847 
Q 424.114537 329.02776 394.076043 296.142542 
" style="fill:none;stroke:#808080;stroke-linecap:round;"/>
    <path clip-path="url(#p4bf8f4b460)" d="M 395.297067 300.444762 
L 394.076043 296.142542 
L 398.250434 297.747055 
L 395.297067 300.444762 
z
" style="fill:#808080;stroke:#808080;stroke-linecap:round;"/>
   </g>
   <g id="patch_58">
    <path clip-path="url(#p4bf8f4b460)" d="M 455.21412 375.799698 
Q 437.117988 397.587181 419.736203 418.5146 
" style="fill:none;stroke:#808080;stroke-linecap:round;"/>
    <path clip-path="url(#p4bf8f4b460)" d="M 423.830456 416.715407 
L 419.736203 418.5146 
L 420.7534 414.159682 
L 423.830456 416.715407 
z
" style="fill:#808080;stroke:#808080;stroke-linecap:round;"/>
   </g>
   <g id="patch_59">
    <path clip-path="url(#p4bf8f4b460)" d="M 452.891234 365.494107 
Q 390.658236 336.662276 329.43969 308.300428 
" style="fill:none;stroke:#808080;stroke-linecap:round;"/>
    <path clip-path="url(#p4bf8f4b460)" d="M 332.228374 311.796604 
L 329.43969 308.300428 
L 333.909841 308.167187 
L 332.228374 311.796604 
z
" style="fill:#808080;stroke:#808080;stroke-linecap:round;"/>
   </g>
   <g id="patch_60">
    <path clip-path="url(#p4bf8f4b460)" d="M 452.105936 368.57954 
Q 411.55714 365.97444 372.124078 363.441022 
" style="fill:none;stroke:#808080;stroke-linecap:round;"/>
    <path clip-path="url(#p4bf8f4b460)" d="M 375.987621 365.693363 
L 372.124078 363.441022 
L 376.244076 361.701592 
L 375.987621 365.693363 
z
" style="fill:#808080;stroke:#808080;stroke-linecap:round;"/>
   </g>
   <g id="patch_61">
    <path clip-path="url(#p4bf8f4b460)" d="M 386.904351 297.560596 
Q 383.480937 348.920448 380.131882 399.164742 
" style="fill:none;stroke:#808080;stroke-linecap:round;"/>
    <path clip-path="url(#p4bf8f4b460)" d="M 382.393485 395.306614 
L 380.131882 399.164742 
L 378.402342 395.040582 
L 382.393485 395.306614 
z
" style="fill:#808080;stroke:#808080;stroke-linecap:round;"/>
   </g>
   <g id="patch_62">
    <path clip-path="url(#p4bf8f4b460)" d="M 393.322881 295.318002 
Q 424.115407 329.028712 454.153901 361.91393 
" style="fill:none;stroke:#808080;stroke-linecap:round;"/>
    <path clip-path="url(#p4bf8f4b460)" d="M 452.932877 357.61171 
L 454.153901 361.91393 
L 449.97951 360.309417 
L 452.932877 357.61171 
z
" style="fill:#808080;stroke:#808080;stroke-linecap:round;"/>
   </g>
   <g id="patch_63">
    <path clip-path="url(#p4bf8f4b460)" d="M 389.093752 297.428591 
Q 400.484124 357.480582 411.666148 416.434125 
" style="fill:none;stroke:#808080;stroke-linecap:round;"/>
    <path clip-path="url(#p4bf8f4b460)" d="M 412.885703 412.131488 
L 411.666148 416.434125 
L 408.955772 412.876898 
L 412.885703 412.131488 
z
" style="fill:#808080;stroke:#808080;stroke-linecap:round;"/>
   </g>
   <g id="patch_64">
    <path clip-path="url(#p4bf8f4b460)" d="M 379.038966 290.848077 
Q 354.024921 296.556841 330.100883 302.016841 
" style="fill:none;stroke:#808080;stroke-linecap:round;"/>
    <path clip-path="url(#p4bf8f4b460)" d="M 334.445615 303.0767 
L 330.100883 302.016841 
L 333.55561 299.176971 
L 334.445615 303.0767 
z
" style="fill:#808080;stroke:#808080;stroke-linecap:round;"/>
   </g>
   <g id="patch_65">
    <path clip-path="url(#p4bf8f4b460)" d="M 384.692171 297.12538 
Q 374.923356 325.87027 365.514292 353.556587 
" style="fill:none;stroke:#808080;stroke-linecap:round;"/>
    <path clip-path="url(#p4bf8f4b460)" d="M 368.695013 350.41286 
L 365.514292 353.556587 
L 364.907743 349.125775 
L 368.695013 350.41286 
z
" style="fill:#808080;stroke:#808080;stroke-linecap:round;"/>
   </g>
   <g id="patch_66">
    <path clip-path="url(#p4bf8f4b460)" d="M 405.754109 422.145455 
Q 396.487164 417.481492 388.218901 413.320157 
" style="fill:none;stroke:#808080;stroke-linecap:round;"/>
    <path clip-path="url(#p4bf8f4b460)" d="M 390.892769 416.904907 
L 388.218901 413.320157 
L 392.691022 413.331913 
L 390.892769 416.904907 
z
" style="fill:#808080;stroke:#808080;stroke-linecap:round;"/>
   </g>
   <g id="patch_67">
    <path clip-path="url(#p4bf8f4b460)" d="M 419.023344 419.372872 
Q 437.119476 397.585389 454.501262 376.65797 
" style="fill:none;stroke:#808080;stroke-linecap:round;"/>
    <path clip-path="url(#p4bf8f4b460)" d="M 450.407009 378.457163 
L 454.501262 376.65797 
L 453.484065 381.012888 
L 450.407009 378.457163 
z
" style="fill:#808080;stroke:#808080;stroke-linecap:round;"/>
   </g>
   <g id="patch_68">
    <path clip-path="url(#p4bf8f4b460)" d="M 411.874143 417.53071 
Q 400.48377 357.478718 389.301747 298.525176 
" style="fill:none;stroke:#808080;stroke-linecap:round;"/>
    <path clip-path="url(#p4bf8f4b460)" d="M 388.082191 302.827812 
L 389.301747 298.525176 
L 392.012123 302.082402 
L 388.082191 302.827812 
z
" style="fill:#808080;stroke:#808080;stroke-linecap:round;"/>
   </g>
   <g id="patch_69">
    <path clip-path="url(#p4bf8f4b460)" d="M 408.239034 419.15486 
Q 367.031011 365.11679 326.500941 311.967752 
" style="fill:none;stroke:#808080;stroke-linecap:round;"/>
    <path clip-path="url(#p4bf8f4b460)" d="M 327.33611 316.361213 
L 326.500941 311.967752 
L 330.516811 313.935693 
L 327.33611 316.361213 
z
" style="fill:#808080;stroke:#808080;stroke-linecap:round;"/>
   </g>
   <g id="patch_70">
    <path clip-path="url(#p4bf8f4b460)" d="M 408.043147 419.303999 
Q 387.927904 394.425957 368.515617 370.417312 
" style="fill:none;stroke:#808080;stroke-linecap:round;"/>
    <path clip-path="url(#p4bf8f4b460)" d="M 369.47536 374.785251 
L 368.515617 370.417312 
L 372.585814 372.270281 
L 369.47536 374.785251 
z
" style="fill:#808080;stroke:#808080;stroke-linecap:round;"/>
   </g>
   <g id="patch_71">
    <path clip-path="url(#p4bf8f4b460)" d="M 324.815761 311.737813 
Q 350.025745 356.556211 374.687605 400.400154 
" style="fill:none;stroke:#808080;stroke-linecap:round;"/>
    <path clip-path="url(#p4bf8f4b460)" d="M 374.469739 395.933328 
L 374.687605 400.400154 
L 370.983425 397.894351 
L 374.469739 395.933328 
z
" style="fill:#808080;stroke:#808080;stroke-linecap:round;"/>
   </g>
   <g id="patch_72">
    <path clip-path="url(#p4bf8f4b460)" d="M 328.429679 307.832501 
Q 390.662677 336.664333 451.881222 365.026181 
" style="fill:none;stroke:#808080;stroke-linecap:round;"/>
    <path clip-path="url(#p4bf8f4b460)" d="M 449.092539 361.530005 
L 451.881222 365.026181 
L 447.411072 365.159422 
L 449.092539 361.530005 
z
" style="fill:#808080;stroke:#808080;stroke-linecap:round;"/>
   </g>
   <g id="patch_73">
    <path clip-path="url(#p4bf8f4b460)" d="M 329.012377 302.265263 
Q 354.026422 296.556498 377.95046 291.096498 
" style="fill:none;stroke:#808080;stroke-linecap:round;"/>
    <path clip-path="url(#p4bf8f4b460)" d="M 373.605727 290.036639 
L 377.95046 291.096498 
L 374.495733 293.936368 
L 373.605727 290.036639 
z
" style="fill:#808080;stroke:#808080;stroke-linecap:round;"/>
   </g>
   <g id="patch_74">
    <path clip-path="url(#p4bf8f4b460)" d="M 325.819829 311.074577 
Q 367.027852 365.112647 407.557922 418.261685 
" style="fill:none;stroke:#808080;stroke-linecap:round;"/>
    <path clip-path="url(#p4bf8f4b460)" d="M 406.722753 413.868225 
L 407.557922 418.261685 
L 403.542052 416.293744 
L 406.722753 413.868225 
z
" style="fill:#808080;stroke:#808080;stroke-linecap:round;"/>
   </g>
   <g id="patch_75">
    <path clip-path="url(#p4bf8f4b460)" d="M 325.599343 311.244042 
Q 341.46912 333.502261 356.689837 354.850139 
" style="fill:none;stroke:#808080;stroke-linecap:round;"/>
    <path clip-path="url(#p4bf8f4b460)" d="M 355.996158 350.432129 
L 356.689837 354.850139 
L 352.739222 352.754276 
L 355.996158 350.432129 
z
" style="fill:#808080;stroke:#808080;stroke-linecap:round;"/>
   </g>
   <g id="patch_76">
    <path clip-path="url(#p4bf8f4b460)" d="M 365.381549 370.933313 
Q 370.924612 385.867979 376.078643 399.754478 
" style="fill:none;stroke:#808080;stroke-linecap:round;"/>
    <path clip-path="url(#p4bf8f4b460)" d="M 376.56182 395.308521 
L 376.078643 399.754478 
L 372.811783 396.700362 
L 376.56182 395.308521 
z
" style="fill:#808080;stroke:#808080;stroke-linecap:round;"/>
   </g>
   <g id="patch_77">
    <path clip-path="url(#p4bf8f4b460)" d="M 371.011943 363.369572 
Q 411.560739 365.974671 450.993801 368.508089 
" style="fill:none;stroke:#808080;stroke-linecap:round;"/>
    <path clip-path="url(#p4bf8f4b460)" d="M 447.130258 366.255749 
L 450.993801 368.508089 
L 446.873803 370.247519 
L 447.130258 366.255749 
z
" style="fill:#808080;stroke:#808080;stroke-linecap:round;"/>
   </g>
   <g id="patch_78">
    <path clip-path="url(#p4bf8f4b460)" d="M 365.156138 354.610462 
Q 374.924953 325.865571 384.334017 298.179255 
" style="fill:none;stroke:#808080;stroke-linecap:round;"/>
    <path clip-path="url(#p4bf8f4b460)" d="M 381.153297 301.322981 
L 384.334017 298.179255 
L 384.940566 302.610067 
L 381.153297 301.322981 
z
" style="fill:#808080;stroke:#808080;stroke-linecap:round;"/>
   </g>
   <g id="patch_79">
    <path clip-path="url(#p4bf8f4b460)" d="M 367.812683 369.54794 
Q 387.927926 394.425983 407.340213 418.434628 
" style="fill:none;stroke:#808080;stroke-linecap:round;"/>
    <path clip-path="url(#p4bf8f4b460)" d="M 406.38047 414.066688 
L 407.340213 418.434628 
L 403.270016 416.581659 
L 406.38047 414.066688 
z
" style="fill:#808080;stroke:#808080;stroke-linecap:round;"/>
   </g>
   <g id="patch_80">
    <path clip-path="url(#p4bf8f4b460)" d="M 357.339935 355.761936 
Q 341.470158 333.503718 326.249441 312.15584 
" style="fill:none;stroke:#808080;stroke-linecap:round;"/>
    <path clip-path="url(#p4bf8f4b460)" d="M 326.94312 316.57385 
L 326.249441 312.15584 
L 330.200056 314.251703 
L 326.94312 316.57385 
z
" style="fill:#808080;stroke:#808080;stroke-linecap:round;"/>
   </g>
   <g id="PathCollection_1">
    <defs>
     <path d="M 0 11.18034 
C 2.965061 11.18034 5.80908 10.002309 7.905694 7.905694 
C 10.002309 5.80908 11.18034 2.965061 11.18034 -0 
C 11.18034 -2.965061 10.002309 -5.80908 7.905694 -7.905694 
C 5.80908 -10.002309 2.965061 -11.18034 0 -11.18034 
C -2.965061 -11.18034 -5.80908 -10.002309 -7.905694 -7.905694 
C -10.002309 -5.80908 -11.18034 -2.965061 -11.18034 0 
C -11.18034 2.965061 -10.002309 5.80908 -7.905694 7.905694 
C -5.80908 10.002309 -2.965061 11.18034 0 11.18034 
z
" id="C0_0_7dec7d9ebb"/>
    </defs>
    <g clip-path="url(#p4bf8f4b460)">
     <use style="fill:#eaeaea;stroke:#eaeaea;" x="102.492778" xlink:href="#C0_0_7dec7d9ebb" y="187.31543"/>
    </g>
    <g clip-path="url(#p4bf8f4b460)">
     <use style="fill:#717171;stroke:#717171;" x="521.771822" xlink:href="#C0_0_7dec7d9ebb" y="189.730554"/>
    </g>
    <g clip-path="url(#p4bf8f4b460)">
     <use style="fill:#e9e9e9;stroke:#e9e9e9;" x="605.115364" xlink:href="#C0_0_7dec7d9ebb" y="206.529824"/>
    </g>
    <g clip-path="url(#p4bf8f4b460)">
     <use style="fill:#e1e1e1;stroke:#e1e1e1;" x="90.944702" xlink:href="#C0_0_7dec7d9ebb" y="284.769128"/>
    </g>
    <g clip-path="url(#p4bf8f4b460)">
     <use style="fill:#5f5f5f;stroke:#5f5f5f;" x="289.474179" xlink:href="#C0_0_7dec7d9ebb" y="172.836075"/>
    </g>
    <g clip-path="url(#p4bf8f4b460)">
     <use style="fill:#cfcfcf;stroke:#cfcfcf;" x="65.305785" xlink:href="#C0_0_7dec7d9ebb" y="227.975503"/>
    </g>
    <g clip-path="url(#p4bf8f4b460)">
     <use style="fill:#ebebeb;stroke:#ebebeb;" x="73.449446" xlink:href="#C0_0_7dec7d9ebb" y="312.117366"/>
    </g>
    <g clip-path="url(#p4bf8f4b460)">
     <use style="fill:#959595;stroke:#959595;" x="420.358664" xlink:href="#C0_0_7dec7d9ebb" y="412.167549"/>
    </g>
    <g clip-path="url(#p4bf8f4b460)">
     <use style="fill:#d4d4d4;stroke:#d4d4d4;" x="328.011417" xlink:href="#C0_0_7dec7d9ebb" y="427.350852"/>
    </g>
    <g clip-path="url(#p4bf8f4b460)">
     <use style="fill:#e0e0e0;stroke:#e0e0e0;" x="328.028428" xlink:href="#C0_0_7dec7d9ebb" y="351.443779"/>
    </g>
    <g clip-path="url(#p4bf8f4b460)">
     <use style="fill:#cfcfcf;stroke:#cfcfcf;" x="321.475259" xlink:href="#C0_0_7dec7d9ebb" y="178.9154"/>
    </g>
    <g clip-path="url(#p4bf8f4b460)">
     <use style="fill:#f2f2f2;stroke:#f2f2f2;" x="110.586519" xlink:href="#C0_0_7dec7d9ebb" y="337.143311"/>
    </g>
    <g clip-path="url(#p4bf8f4b460)">
     <use style="fill:#e1e1e1;stroke:#e1e1e1;" x="77.500218" xlink:href="#C0_0_7dec7d9ebb" y="188.980932"/>
    </g>
    <g clip-path="url(#p4bf8f4b460)">
     <use style="fill:#e2e2e2;stroke:#e2e2e2;" x="474.559277" xlink:href="#C0_0_7dec7d9ebb" y="189.077246"/>
    </g>
    <g clip-path="url(#p4bf8f4b460)">
     <use style="fill:#e0e0e0;stroke:#e0e0e0;" x="214.988801" xlink:href="#C0_0_7dec7d9ebb" y="375.679506"/>
    </g>
    <g clip-path="url(#p4bf8f4b460)">
     <use style="fill:#eaeaea;stroke:#eaeaea;" x="153.272626" xlink:href="#C0_0_7dec7d9ebb" y="137.655483"/>
    </g>
    <g clip-path="url(#p4bf8f4b460)">
     <use style="fill:#d0d0d0;stroke:#d0d0d0;" x="439.612871" xlink:href="#C0_0_7dec7d9ebb" y="214.519818"/>
    </g>
    <g clip-path="url(#p4bf8f4b460)">
     <use style="fill:#f3f3f3;stroke:#f3f3f3;" x="618.694215" xlink:href="#C0_0_7dec7d9ebb" y="240.30406"/>
    </g>
    <g clip-path="url(#p4bf8f4b460)">
     <use style="fill:#e9e9e9;stroke:#e9e9e9;" x="168.82076" xlink:href="#C0_0_7dec7d9ebb" y="383.952102"/>
    </g>
    <g clip-path="url(#p4bf8f4b460)">
     <use style="fill:#f3f3f3;stroke:#f3f3f3;" x="615.846529" xlink:href="#C0_0_7dec7d9ebb" y="276.424998"/>
    </g>
    <g clip-path="url(#p4bf8f4b460)">
     <use style="fill:#c6c6c6;stroke:#c6c6c6;" x="245.176623" xlink:href="#C0_0_7dec7d9ebb" y="85.114829"/>
    </g>
    <g clip-path="url(#p4bf8f4b460)">
     <use style="fill:#e9e9e9;stroke:#e9e9e9;" x="438.914279" xlink:href="#C0_0_7dec7d9ebb" y="63.055514"/>
    </g>
    <g clip-path="url(#p4bf8f4b460)">
     <use style="fill:#9c9c9c;stroke:#9c9c9c;" x="448.823725" xlink:href="#C0_0_7dec7d9ebb" y="249.426101"/>
    </g>
    <g clip-path="url(#p4bf8f4b460)">
     <use style="fill:#ebebeb;stroke:#ebebeb;" x="603.076327" xlink:href="#C0_0_7dec7d9ebb" y="171.270295"/>
    </g>
    <g clip-path="url(#p4bf8f4b460)">
     <use style="fill:#dfdfdf;stroke:#dfdfdf;" x="304.214905" xlink:href="#C0_0_7dec7d9ebb" y="313.050886"/>
    </g>
    <g clip-path="url(#p4bf8f4b460)">
     <use style="fill:#dfdfdf;stroke:#dfdfdf;" x="115.428677" xlink:href="#C0_0_7dec7d9ebb" y="129.493131"/>
    </g>
    <g clip-path="url(#p4bf8f4b460)">
     <use style="fill:#d1d1d1;stroke:#d1d1d1;" x="471.266001" xlink:href="#C0_0_7dec7d9ebb" y="152.530332"/>
    </g>
    <g clip-path="url(#p4bf8f4b460)">
     <use style="fill:#e9e9e9;stroke:#e9e9e9;" x="240.009581" xlink:href="#C0_0_7dec7d9ebb" y="384.436494"/>
    </g>
    <g clip-path="url(#p4bf8f4b460)">
     <use style="fill:#e9e9e9;stroke:#e9e9e9;" x="153.564083" xlink:href="#C0_0_7dec7d9ebb" y="85.040243"/>
    </g>
    <g clip-path="url(#p4bf8f4b460)">
     <use style="fill:#e9e9e9;stroke:#e9e9e9;" x="397.664686" xlink:href="#C0_0_7dec7d9ebb" y="103.619781"/>
    </g>
    <g clip-path="url(#p4bf8f4b460)">
     <use style="fill:#e9e9e9;stroke:#e9e9e9;" x="608.877244" xlink:href="#C0_0_7dec7d9ebb" y="308.012603"/>
    </g>
    <g clip-path="url(#p4bf8f4b460)">
     <use style="fill:#ececec;stroke:#ececec;" x="509.136491" xlink:href="#C0_0_7dec7d9ebb" y="80.641966"/>
    </g>
    <g clip-path="url(#p4bf8f4b460)">
     <use style="fill:#e9e9e9;stroke:#e9e9e9;" x="231.674593" xlink:href="#C0_0_7dec7d9ebb" y="69.14898"/>
    </g>
    <g clip-path="url(#p4bf8f4b460)">
     <use style="fill:#e9e9e9;stroke:#e9e9e9;" x="547.672251" xlink:href="#C0_0_7dec7d9ebb" y="371.982254"/>
    </g>
    <g clip-path="url(#p4bf8f4b460)">
     <use style="fill:#d4d4d4;stroke:#d4d4d4;" x="127.9325" xlink:href="#C0_0_7dec7d9ebb" y="375.871604"/>
    </g>
    <g clip-path="url(#p4bf8f4b460)">
     <use style="fill:#dfdfdf;stroke:#dfdfdf;" x="340.204025" xlink:href="#C0_0_7dec7d9ebb" y="275.502649"/>
    </g>
    <g clip-path="url(#p4bf8f4b460)">
     <use style="fill:#b6b6b6;stroke:#b6b6b6;" x="404.216673" xlink:href="#C0_0_7dec7d9ebb" y="322.200272"/>
    </g>
    <g clip-path="url(#p4bf8f4b460)">
     <use style="fill:#eaeaea;stroke:#eaeaea;" x="379.481462" xlink:href="#C0_0_7dec7d9ebb" y="408.922689"/>
    </g>
    <g clip-path="url(#p4bf8f4b460)">
     <use style="fill:#eaeaea;stroke:#eaeaea;" x="460.749757" xlink:href="#C0_0_7dec7d9ebb" y="369.134871"/>
    </g>
    <g clip-path="url(#p4bf8f4b460)">
     <use style="fill:#eaeaea;stroke:#eaeaea;" x="387.480187" xlink:href="#C0_0_7dec7d9ebb" y="288.921601"/>
    </g>
    <g clip-path="url(#p4bf8f4b460)">
     <use style="fill:#dfdfdf;stroke:#dfdfdf;" x="413.487708" xlink:href="#C0_0_7dec7d9ebb" y="426.037699"/>
    </g>
    <g clip-path="url(#p4bf8f4b460)">
     <use style="fill:#d3d3d3;stroke:#d3d3d3;" x="320.571156" xlink:href="#C0_0_7dec7d9ebb" y="304.191738"/>
    </g>
    <g clip-path="url(#p4bf8f4b460)">
     <use style="fill:#eaeaea;stroke:#eaeaea;" x="362.368122" xlink:href="#C0_0_7dec7d9ebb" y="362.814241"/>
    </g>
    <g clip-path="url(#p4bf8f4b460)">
     <use style="fill:#e9e9e9;stroke:#e9e9e9;" x="72.942125" xlink:href="#C0_0_7dec7d9ebb" y="254.775518"/>
    </g>
    <g clip-path="url(#p4bf8f4b460)">
     <use style="fill:#e9e9e9;stroke:#e9e9e9;" x="373.025345" xlink:href="#C0_0_7dec7d9ebb" y="60.805398"/>
    </g>
   </g>
   <g id="text_1">
    <g clip-path="url(#p4bf8f4b460)">
     <!-- INADL -->
     <g transform="translate(87.220903 190.074805)scale(0.1 -0.1)">
      <defs>
       <path d="M 9.8125 72.90625 
L 19.671875 72.90625 
L 19.671875 0 
L 9.8125 0 
z
" id="DejaVuSans-73"/>
       <path d="M 9.8125 72.90625 
L 23.09375 72.90625 
L 55.421875 11.921875 
L 55.421875 72.90625 
L 64.984375 72.90625 
L 64.984375 0 
L 51.703125 0 
L 19.390625 60.984375 
L 19.390625 0 
L 9.8125 0 
z
" id="DejaVuSans-78"/>
       <path d="M 34.1875 63.1875 
L 20.796875 26.90625 
L 47.609375 26.90625 
z
M 28.609375 72.90625 
L 39.796875 72.90625 
L 67.578125 0 
L 57.328125 0 
L 50.6875 18.703125 
L 17.828125 18.703125 
L 11.1875 0 
L 0.78125 0 
z
" id="DejaVuSans-65"/>
       <path d="M 19.671875 64.796875 
L 19.671875 8.109375 
L 31.59375 8.109375 
Q 46.6875 8.109375 53.6875 14.9375 
Q 60.6875 21.78125 60.6875 36.53125 
Q 60.6875 51.171875 53.6875 57.984375 
Q 46.6875 64.796875 31.59375 64.796875 
z
M 9.8125 72.90625 
L 30.078125 72.90625 
Q 51.265625 72.90625 61.171875 64.09375 
Q 71.09375 55.28125 71.09375 36.53125 
Q 71.09375 17.671875 61.125 8.828125 
Q 51.171875 0 30.078125 0 
L 9.8125 0 
z
" id="DejaVuSans-68"/>
       <path d="M 9.8125 72.90625 
L 19.671875 72.90625 
L 19.671875 8.296875 
L 55.171875 8.296875 
L 55.171875 0 
L 9.8125 0 
z
" id="DejaVuSans-76"/>
      </defs>
      <use xlink:href="#DejaVuSans-73"/>
      <use x="29.492188" xlink:href="#DejaVuSans-78"/>
      <use x="104.296875" xlink:href="#DejaVuSans-65"/>
      <use x="172.705078" xlink:href="#DejaVuSans-68"/>
      <use x="249.707031" xlink:href="#DejaVuSans-76"/>
     </g>
    </g>
   </g>
   <g id="text_2">
    <g clip-path="url(#p4bf8f4b460)">
     <!-- CDC42 -->
     <g transform="translate(504.576509 192.489929)scale(0.1 -0.1)">
      <defs>
       <path d="M 64.40625 67.28125 
L 64.40625 56.890625 
Q 59.421875 61.53125 53.78125 63.8125 
Q 48.140625 66.109375 41.796875 66.109375 
Q 29.296875 66.109375 22.65625 58.46875 
Q 16.015625 50.828125 16.015625 36.375 
Q 16.015625 21.96875 22.65625 14.328125 
Q 29.296875 6.6875 41.796875 6.6875 
Q 48.140625 6.6875 53.78125 8.984375 
Q 59.421875 11.28125 64.40625 15.921875 
L 64.40625 5.609375 
Q 59.234375 2.09375 53.4375 0.328125 
Q 47.65625 -1.421875 41.21875 -1.421875 
Q 24.65625 -1.421875 15.125 8.703125 
Q 5.609375 18.84375 5.609375 36.375 
Q 5.609375 53.953125 15.125 64.078125 
Q 24.65625 74.21875 41.21875 74.21875 
Q 47.75 74.21875 53.53125 72.484375 
Q 59.328125 70.75 64.40625 67.28125 
z
" id="DejaVuSans-67"/>
       <path d="M 37.796875 64.3125 
L 12.890625 25.390625 
L 37.796875 25.390625 
z
M 35.203125 72.90625 
L 47.609375 72.90625 
L 47.609375 25.390625 
L 58.015625 25.390625 
L 58.015625 17.1875 
L 47.609375 17.1875 
L 47.609375 0 
L 37.796875 0 
L 37.796875 17.1875 
L 4.890625 17.1875 
L 4.890625 26.703125 
z
" id="DejaVuSans-52"/>
       <path d="M 19.1875 8.296875 
L 53.609375 8.296875 
L 53.609375 0 
L 7.328125 0 
L 7.328125 8.296875 
Q 12.9375 14.109375 22.625 23.890625 
Q 32.328125 33.6875 34.8125 36.53125 
Q 39.546875 41.84375 41.421875 45.53125 
Q 43.3125 49.21875 43.3125 52.78125 
Q 43.3125 58.59375 39.234375 62.25 
Q 35.15625 65.921875 28.609375 65.921875 
Q 23.96875 65.921875 18.8125 64.3125 
Q 13.671875 62.703125 7.8125 59.421875 
L 7.8125 69.390625 
Q 13.765625 71.78125 18.9375 73 
Q 24.125 74.21875 28.421875 74.21875 
Q 39.75 74.21875 46.484375 68.546875 
Q 53.21875 62.890625 53.21875 53.421875 
Q 53.21875 48.921875 51.53125 44.890625 
Q 49.859375 40.875 45.40625 35.40625 
Q 44.1875 33.984375 37.640625 27.21875 
Q 31.109375 20.453125 19.1875 8.296875 
z
" id="DejaVuSans-50"/>
      </defs>
      <use xlink:href="#DejaVuSans-67"/>
      <use x="69.824219" xlink:href="#DejaVuSans-68"/>
      <use x="146.826172" xlink:href="#DejaVuSans-67"/>
      <use x="216.650391" xlink:href="#DejaVuSans-52"/>
      <use x="280.273438" xlink:href="#DejaVuSans-50"/>
     </g>
    </g>
   </g>
   <g id="text_3">
    <g clip-path="url(#p4bf8f4b460)">
     <!-- STK11 -->
     <g transform="translate(589.245832 209.289199)scale(0.1 -0.1)">
      <defs>
       <path d="M 53.515625 70.515625 
L 53.515625 60.890625 
Q 47.90625 63.578125 42.921875 64.890625 
Q 37.9375 66.21875 33.296875 66.21875 
Q 25.25 66.21875 20.875 63.09375 
Q 16.5 59.96875 16.5 54.203125 
Q 16.5 49.359375 19.40625 46.890625 
Q 22.3125 44.4375 30.421875 42.921875 
L 36.375 41.703125 
Q 47.40625 39.59375 52.65625 34.296875 
Q 57.90625 29 57.90625 20.125 
Q 57.90625 9.515625 50.796875 4.046875 
Q 43.703125 -1.421875 29.984375 -1.421875 
Q 24.8125 -1.421875 18.96875 -0.25 
Q 13.140625 0.921875 6.890625 3.21875 
L 6.890625 13.375 
Q 12.890625 10.015625 18.65625 8.296875 
Q 24.421875 6.59375 29.984375 6.59375 
Q 38.421875 6.59375 43.015625 9.90625 
Q 47.609375 13.234375 47.609375 19.390625 
Q 47.609375 24.75 44.3125 27.78125 
Q 41.015625 30.8125 33.5 32.328125 
L 27.484375 33.5 
Q 16.453125 35.6875 11.515625 40.375 
Q 6.59375 45.0625 6.59375 53.421875 
Q 6.59375 63.09375 13.40625 68.65625 
Q 20.21875 74.21875 32.171875 74.21875 
Q 37.3125 74.21875 42.625 73.28125 
Q 47.953125 72.359375 53.515625 70.515625 
z
" id="DejaVuSans-83"/>
       <path d="M -0.296875 72.90625 
L 61.375 72.90625 
L 61.375 64.59375 
L 35.5 64.59375 
L 35.5 0 
L 25.59375 0 
L 25.59375 64.59375 
L -0.296875 64.59375 
z
" id="DejaVuSans-84"/>
       <path d="M 9.8125 72.90625 
L 19.671875 72.90625 
L 19.671875 42.09375 
L 52.390625 72.90625 
L 65.09375 72.90625 
L 28.90625 38.921875 
L 67.671875 0 
L 54.6875 0 
L 19.671875 35.109375 
L 19.671875 0 
L 9.8125 0 
z
" id="DejaVuSans-75"/>
       <path d="M 12.40625 8.296875 
L 28.515625 8.296875 
L 28.515625 63.921875 
L 10.984375 60.40625 
L 10.984375 69.390625 
L 28.421875 72.90625 
L 38.28125 72.90625 
L 38.28125 8.296875 
L 54.390625 8.296875 
L 54.390625 0 
L 12.40625 0 
z
" id="DejaVuSans-49"/>
      </defs>
      <use xlink:href="#DejaVuSans-83"/>
      <use x="63.476562" xlink:href="#DejaVuSans-84"/>
      <use x="124.560547" xlink:href="#DejaVuSans-75"/>
      <use x="190.136719" xlink:href="#DejaVuSans-49"/>
      <use x="253.759766" xlink:href="#DejaVuSans-49"/>
     </g>
    </g>
   </g>
   <g id="text_4">
    <g clip-path="url(#p4bf8f4b460)">
     <!-- TIAM1 -->
     <g transform="translate(75.500171 287.528503)scale(0.1 -0.1)">
      <defs>
       <path d="M 9.8125 72.90625 
L 24.515625 72.90625 
L 43.109375 23.296875 
L 61.8125 72.90625 
L 76.515625 72.90625 
L 76.515625 0 
L 66.890625 0 
L 66.890625 64.015625 
L 48.09375 14.015625 
L 38.1875 14.015625 
L 19.390625 64.015625 
L 19.390625 0 
L 9.8125 0 
z
" id="DejaVuSans-77"/>
      </defs>
      <use xlink:href="#DejaVuSans-84"/>
      <use x="61.083984" xlink:href="#DejaVuSans-73"/>
      <use x="90.576172" xlink:href="#DejaVuSans-65"/>
      <use x="158.984375" xlink:href="#DejaVuSans-77"/>
      <use x="245.263672" xlink:href="#DejaVuSans-49"/>
     </g>
    </g>
   </g>
   <g id="text_5">
    <g clip-path="url(#p4bf8f4b460)">
     <!-- ARHGAP17 -->
     <g transform="translate(262.147616 175.59545)scale(0.1 -0.1)">
      <defs>
       <path d="M 44.390625 34.1875 
Q 47.5625 33.109375 50.5625 29.59375 
Q 53.5625 26.078125 56.59375 19.921875 
L 66.609375 0 
L 56 0 
L 46.6875 18.703125 
Q 43.0625 26.03125 39.671875 28.421875 
Q 36.28125 30.8125 30.421875 30.8125 
L 19.671875 30.8125 
L 19.671875 0 
L 9.8125 0 
L 9.8125 72.90625 
L 32.078125 72.90625 
Q 44.578125 72.90625 50.734375 67.671875 
Q 56.890625 62.453125 56.890625 51.90625 
Q 56.890625 45.015625 53.6875 40.46875 
Q 50.484375 35.9375 44.390625 34.1875 
z
M 19.671875 64.796875 
L 19.671875 38.921875 
L 32.078125 38.921875 
Q 39.203125 38.921875 42.84375 42.21875 
Q 46.484375 45.515625 46.484375 51.90625 
Q 46.484375 58.296875 42.84375 61.546875 
Q 39.203125 64.796875 32.078125 64.796875 
z
" id="DejaVuSans-82"/>
       <path d="M 9.8125 72.90625 
L 19.671875 72.90625 
L 19.671875 43.015625 
L 55.515625 43.015625 
L 55.515625 72.90625 
L 65.375 72.90625 
L 65.375 0 
L 55.515625 0 
L 55.515625 34.71875 
L 19.671875 34.71875 
L 19.671875 0 
L 9.8125 0 
z
" id="DejaVuSans-72"/>
       <path d="M 59.515625 10.40625 
L 59.515625 29.984375 
L 43.40625 29.984375 
L 43.40625 38.09375 
L 69.28125 38.09375 
L 69.28125 6.78125 
Q 63.578125 2.734375 56.6875 0.65625 
Q 49.8125 -1.421875 42 -1.421875 
Q 24.90625 -1.421875 15.25 8.5625 
Q 5.609375 18.5625 5.609375 36.375 
Q 5.609375 54.25 15.25 64.234375 
Q 24.90625 74.21875 42 74.21875 
Q 49.125 74.21875 55.546875 72.453125 
Q 61.96875 70.703125 67.390625 67.28125 
L 67.390625 56.78125 
Q 61.921875 61.421875 55.765625 63.765625 
Q 49.609375 66.109375 42.828125 66.109375 
Q 29.4375 66.109375 22.71875 58.640625 
Q 16.015625 51.171875 16.015625 36.375 
Q 16.015625 21.625 22.71875 14.15625 
Q 29.4375 6.6875 42.828125 6.6875 
Q 48.046875 6.6875 52.140625 7.59375 
Q 56.25 8.5 59.515625 10.40625 
z
" id="DejaVuSans-71"/>
       <path d="M 19.671875 64.796875 
L 19.671875 37.40625 
L 32.078125 37.40625 
Q 38.96875 37.40625 42.71875 40.96875 
Q 46.484375 44.53125 46.484375 51.125 
Q 46.484375 57.671875 42.71875 61.234375 
Q 38.96875 64.796875 32.078125 64.796875 
z
M 9.8125 72.90625 
L 32.078125 72.90625 
Q 44.34375 72.90625 50.609375 67.359375 
Q 56.890625 61.8125 56.890625 51.125 
Q 56.890625 40.328125 50.609375 34.8125 
Q 44.34375 29.296875 32.078125 29.296875 
L 19.671875 29.296875 
L 19.671875 0 
L 9.8125 0 
z
" id="DejaVuSans-80"/>
       <path d="M 8.203125 72.90625 
L 55.078125 72.90625 
L 55.078125 68.703125 
L 28.609375 0 
L 18.3125 0 
L 43.21875 64.59375 
L 8.203125 64.59375 
z
" id="DejaVuSans-55"/>
      </defs>
      <use xlink:href="#DejaVuSans-65"/>
      <use x="68.408203" xlink:href="#DejaVuSans-82"/>
      <use x="137.890625" xlink:href="#DejaVuSans-72"/>
      <use x="213.085938" xlink:href="#DejaVuSans-71"/>
      <use x="290.576172" xlink:href="#DejaVuSans-65"/>
      <use x="358.984375" xlink:href="#DejaVuSans-80"/>
      <use x="419.287109" xlink:href="#DejaVuSans-49"/>
      <use x="482.910156" xlink:href="#DejaVuSans-55"/>
     </g>
    </g>
   </g>
   <g id="text_6">
    <g clip-path="url(#p4bf8f4b460)">
     <!-- RHOA -->
     <g transform="translate(50.80266 230.734878)scale(0.1 -0.1)">
      <defs>
       <path d="M 39.40625 66.21875 
Q 28.65625 66.21875 22.328125 58.203125 
Q 16.015625 50.203125 16.015625 36.375 
Q 16.015625 22.609375 22.328125 14.59375 
Q 28.65625 6.59375 39.40625 6.59375 
Q 50.140625 6.59375 56.421875 14.59375 
Q 62.703125 22.609375 62.703125 36.375 
Q 62.703125 50.203125 56.421875 58.203125 
Q 50.140625 66.21875 39.40625 66.21875 
z
M 39.40625 74.21875 
Q 54.734375 74.21875 63.90625 63.9375 
Q 73.09375 53.65625 73.09375 36.375 
Q 73.09375 19.140625 63.90625 8.859375 
Q 54.734375 -1.421875 39.40625 -1.421875 
Q 24.03125 -1.421875 14.8125 8.828125 
Q 5.609375 19.09375 5.609375 36.375 
Q 5.609375 53.65625 14.8125 63.9375 
Q 24.03125 74.21875 39.40625 74.21875 
z
" id="DejaVuSans-79"/>
      </defs>
      <use xlink:href="#DejaVuSans-82"/>
      <use x="69.482422" xlink:href="#DejaVuSans-72"/>
      <use x="144.677734" xlink:href="#DejaVuSans-79"/>
      <use x="221.638672" xlink:href="#DejaVuSans-65"/>
     </g>
    </g>
   </g>
   <g id="text_7">
    <g clip-path="url(#p4bf8f4b460)">
     <!-- RAC1 -->
     <g transform="translate(60.169759 314.876741)scale(0.1 -0.1)">
      <use xlink:href="#DejaVuSans-82"/>
      <use x="65.482422" xlink:href="#DejaVuSans-65"/>
      <use x="132.140625" xlink:href="#DejaVuSans-67"/>
      <use x="201.964844" xlink:href="#DejaVuSans-49"/>
     </g>
    </g>
   </g>
   <g id="text_8">
    <g clip-path="url(#p4bf8f4b460)">
     <!-- F11R -->
     <g transform="translate(407.646164 414.926924)scale(0.1 -0.1)">
      <defs>
       <path d="M 9.8125 72.90625 
L 51.703125 72.90625 
L 51.703125 64.59375 
L 19.671875 64.59375 
L 19.671875 43.109375 
L 48.578125 43.109375 
L 48.578125 34.8125 
L 19.671875 34.8125 
L 19.671875 0 
L 9.8125 0 
z
" id="DejaVuSans-70"/>
      </defs>
      <use xlink:href="#DejaVuSans-70"/>
      <use x="57.519531" xlink:href="#DejaVuSans-49"/>
      <use x="121.142578" xlink:href="#DejaVuSans-49"/>
      <use x="184.765625" xlink:href="#DejaVuSans-82"/>
     </g>
    </g>
   </g>
   <g id="text_9">
    <g clip-path="url(#p4bf8f4b460)">
     <!-- RAPGEF6 -->
     <g transform="translate(305.211417 430.110227)scale(0.1 -0.1)">
      <defs>
       <path d="M 9.8125 72.90625 
L 55.90625 72.90625 
L 55.90625 64.59375 
L 19.671875 64.59375 
L 19.671875 43.015625 
L 54.390625 43.015625 
L 54.390625 34.71875 
L 19.671875 34.71875 
L 19.671875 8.296875 
L 56.78125 8.296875 
L 56.78125 0 
L 9.8125 0 
z
" id="DejaVuSans-69"/>
       <path d="M 33.015625 40.375 
Q 26.375 40.375 22.484375 35.828125 
Q 18.609375 31.296875 18.609375 23.390625 
Q 18.609375 15.53125 22.484375 10.953125 
Q 26.375 6.390625 33.015625 6.390625 
Q 39.65625 6.390625 43.53125 10.953125 
Q 47.40625 15.53125 47.40625 23.390625 
Q 47.40625 31.296875 43.53125 35.828125 
Q 39.65625 40.375 33.015625 40.375 
z
M 52.59375 71.296875 
L 52.59375 62.3125 
Q 48.875 64.0625 45.09375 64.984375 
Q 41.3125 65.921875 37.59375 65.921875 
Q 27.828125 65.921875 22.671875 59.328125 
Q 17.53125 52.734375 16.796875 39.40625 
Q 19.671875 43.65625 24.015625 45.921875 
Q 28.375 48.1875 33.59375 48.1875 
Q 44.578125 48.1875 50.953125 41.515625 
Q 57.328125 34.859375 57.328125 23.390625 
Q 57.328125 12.15625 50.6875 5.359375 
Q 44.046875 -1.421875 33.015625 -1.421875 
Q 20.359375 -1.421875 13.671875 8.265625 
Q 6.984375 17.96875 6.984375 36.375 
Q 6.984375 53.65625 15.1875 63.9375 
Q 23.390625 74.21875 37.203125 74.21875 
Q 40.921875 74.21875 44.703125 73.484375 
Q 48.484375 72.75 52.59375 71.296875 
z
" id="DejaVuSans-54"/>
      </defs>
      <use xlink:href="#DejaVuSans-82"/>
      <use x="65.482422" xlink:href="#DejaVuSans-65"/>
      <use x="133.890625" xlink:href="#DejaVuSans-80"/>
      <use x="194.193359" xlink:href="#DejaVuSans-71"/>
      <use x="271.683594" xlink:href="#DejaVuSans-69"/>
      <use x="334.867188" xlink:href="#DejaVuSans-70"/>
      <use x="392.386719" xlink:href="#DejaVuSans-54"/>
     </g>
    </g>
   </g>
   <g id="text_10">
    <g clip-path="url(#p4bf8f4b460)">
     <!-- RAP1A -->
     <g transform="translate(311.717491 354.203154)scale(0.1 -0.1)">
      <use xlink:href="#DejaVuSans-82"/>
      <use x="65.482422" xlink:href="#DejaVuSans-65"/>
      <use x="133.890625" xlink:href="#DejaVuSans-80"/>
      <use x="194.193359" xlink:href="#DejaVuSans-49"/>
      <use x="257.816406" xlink:href="#DejaVuSans-65"/>
     </g>
    </g>
   </g>
   <g id="text_11">
    <g clip-path="url(#p4bf8f4b460)">
     <!-- MICALL2 -->
     <g transform="translate(300.021352 181.674775)scale(0.1 -0.1)">
      <use xlink:href="#DejaVuSans-77"/>
      <use x="86.279297" xlink:href="#DejaVuSans-73"/>
      <use x="115.771484" xlink:href="#DejaVuSans-67"/>
      <use x="185.595703" xlink:href="#DejaVuSans-65"/>
      <use x="254.003906" xlink:href="#DejaVuSans-76"/>
      <use x="309.716797" xlink:href="#DejaVuSans-76"/>
      <use x="365.429688" xlink:href="#DejaVuSans-50"/>
     </g>
    </g>
   </g>
   <g id="text_12">
    <g clip-path="url(#p4bf8f4b460)">
     <!-- MAP2K7 -->
     <g transform="translate(90.195894 339.902686)scale(0.1 -0.1)">
      <use xlink:href="#DejaVuSans-77"/>
      <use x="86.279297" xlink:href="#DejaVuSans-65"/>
      <use x="154.6875" xlink:href="#DejaVuSans-80"/>
      <use x="214.990234" xlink:href="#DejaVuSans-50"/>
      <use x="278.613281" xlink:href="#DejaVuSans-75"/>
      <use x="344.189453" xlink:href="#DejaVuSans-55"/>
     </g>
    </g>
   </g>
   <g id="text_13">
    <g clip-path="url(#p4bf8f4b460)">
     <!-- MAP3K5 -->
     <g transform="translate(57.109593 191.740307)scale(0.1 -0.1)">
      <defs>
       <path d="M 40.578125 39.3125 
Q 47.65625 37.796875 51.625 33 
Q 55.609375 28.21875 55.609375 21.1875 
Q 55.609375 10.40625 48.1875 4.484375 
Q 40.765625 -1.421875 27.09375 -1.421875 
Q 22.515625 -1.421875 17.65625 -0.515625 
Q 12.796875 0.390625 7.625 2.203125 
L 7.625 11.71875 
Q 11.71875 9.328125 16.59375 8.109375 
Q 21.484375 6.890625 26.8125 6.890625 
Q 36.078125 6.890625 40.9375 10.546875 
Q 45.796875 14.203125 45.796875 21.1875 
Q 45.796875 27.640625 41.28125 31.265625 
Q 36.765625 34.90625 28.71875 34.90625 
L 20.21875 34.90625 
L 20.21875 43.015625 
L 29.109375 43.015625 
Q 36.375 43.015625 40.234375 45.921875 
Q 44.09375 48.828125 44.09375 54.296875 
Q 44.09375 59.90625 40.109375 62.90625 
Q 36.140625 65.921875 28.71875 65.921875 
Q 24.65625 65.921875 20.015625 65.03125 
Q 15.375 64.15625 9.8125 62.3125 
L 9.8125 71.09375 
Q 15.4375 72.65625 20.34375 73.4375 
Q 25.25 74.21875 29.59375 74.21875 
Q 40.828125 74.21875 47.359375 69.109375 
Q 53.90625 64.015625 53.90625 55.328125 
Q 53.90625 49.265625 50.4375 45.09375 
Q 46.96875 40.921875 40.578125 39.3125 
z
" id="DejaVuSans-51"/>
       <path d="M 10.796875 72.90625 
L 49.515625 72.90625 
L 49.515625 64.59375 
L 19.828125 64.59375 
L 19.828125 46.734375 
Q 21.96875 47.46875 24.109375 47.828125 
Q 26.265625 48.1875 28.421875 48.1875 
Q 40.625 48.1875 47.75 41.5 
Q 54.890625 34.8125 54.890625 23.390625 
Q 54.890625 11.625 47.5625 5.09375 
Q 40.234375 -1.421875 26.90625 -1.421875 
Q 22.3125 -1.421875 17.546875 -0.640625 
Q 12.796875 0.140625 7.71875 1.703125 
L 7.71875 11.625 
Q 12.109375 9.234375 16.796875 8.0625 
Q 21.484375 6.890625 26.703125 6.890625 
Q 35.15625 6.890625 40.078125 11.328125 
Q 45.015625 15.765625 45.015625 23.390625 
Q 45.015625 31 40.078125 35.4375 
Q 35.15625 39.890625 26.703125 39.890625 
Q 22.75 39.890625 18.8125 39.015625 
Q 14.890625 38.140625 10.796875 36.28125 
z
" id="DejaVuSans-53"/>
      </defs>
      <use xlink:href="#DejaVuSans-77"/>
      <use x="86.279297" xlink:href="#DejaVuSans-65"/>
      <use x="154.6875" xlink:href="#DejaVuSans-80"/>
      <use x="214.990234" xlink:href="#DejaVuSans-51"/>
      <use x="278.613281" xlink:href="#DejaVuSans-75"/>
      <use x="344.189453" xlink:href="#DejaVuSans-53"/>
     </g>
    </g>
   </g>
   <g id="text_14">
    <g clip-path="url(#p4bf8f4b460)">
     <!-- SLC9A3R1 -->
     <g transform="translate(448.669433 191.836621)scale(0.1 -0.1)">
      <defs>
       <path d="M 10.984375 1.515625 
L 10.984375 10.5 
Q 14.703125 8.734375 18.5 7.8125 
Q 22.3125 6.890625 25.984375 6.890625 
Q 35.75 6.890625 40.890625 13.453125 
Q 46.046875 20.015625 46.78125 33.40625 
Q 43.953125 29.203125 39.59375 26.953125 
Q 35.25 24.703125 29.984375 24.703125 
Q 19.046875 24.703125 12.671875 31.3125 
Q 6.296875 37.9375 6.296875 49.421875 
Q 6.296875 60.640625 12.9375 67.421875 
Q 19.578125 74.21875 30.609375 74.21875 
Q 43.265625 74.21875 49.921875 64.515625 
Q 56.59375 54.828125 56.59375 36.375 
Q 56.59375 19.140625 48.40625 8.859375 
Q 40.234375 -1.421875 26.421875 -1.421875 
Q 22.703125 -1.421875 18.890625 -0.6875 
Q 15.09375 0.046875 10.984375 1.515625 
z
M 30.609375 32.421875 
Q 37.25 32.421875 41.125 36.953125 
Q 45.015625 41.5 45.015625 49.421875 
Q 45.015625 57.28125 41.125 61.84375 
Q 37.25 66.40625 30.609375 66.40625 
Q 23.96875 66.40625 20.09375 61.84375 
Q 16.21875 57.28125 16.21875 49.421875 
Q 16.21875 41.5 20.09375 36.953125 
Q 23.96875 32.421875 30.609375 32.421875 
z
" id="DejaVuSans-57"/>
      </defs>
      <use xlink:href="#DejaVuSans-83"/>
      <use x="63.476562" xlink:href="#DejaVuSans-76"/>
      <use x="119.189453" xlink:href="#DejaVuSans-67"/>
      <use x="189.013672" xlink:href="#DejaVuSans-57"/>
      <use x="252.636719" xlink:href="#DejaVuSans-65"/>
      <use x="321.044922" xlink:href="#DejaVuSans-51"/>
      <use x="384.667969" xlink:href="#DejaVuSans-82"/>
      <use x="454.150391" xlink:href="#DejaVuSans-49"/>
     </g>
    </g>
   </g>
   <g id="text_15">
    <g clip-path="url(#p4bf8f4b460)">
     <!-- RAPGEF2 -->
     <g transform="translate(192.188801 378.438881)scale(0.1 -0.1)">
      <use xlink:href="#DejaVuSans-82"/>
      <use x="65.482422" xlink:href="#DejaVuSans-65"/>
      <use x="133.890625" xlink:href="#DejaVuSans-80"/>
      <use x="194.193359" xlink:href="#DejaVuSans-71"/>
      <use x="271.683594" xlink:href="#DejaVuSans-69"/>
      <use x="334.867188" xlink:href="#DejaVuSans-70"/>
      <use x="392.386719" xlink:href="#DejaVuSans-50"/>
     </g>
    </g>
   </g>
   <g id="text_16">
    <g clip-path="url(#p4bf8f4b460)">
     <!-- RAP2C -->
     <g transform="translate(136.890595 140.414858)scale(0.1 -0.1)">
      <use xlink:href="#DejaVuSans-82"/>
      <use x="65.482422" xlink:href="#DejaVuSans-65"/>
      <use x="133.890625" xlink:href="#DejaVuSans-80"/>
      <use x="194.193359" xlink:href="#DejaVuSans-50"/>
      <use x="257.816406" xlink:href="#DejaVuSans-67"/>
     </g>
    </g>
   </g>
   <g id="text_17">
    <g clip-path="url(#p4bf8f4b460)">
     <!-- CDK4 -->
     <g transform="translate(425.811308 217.279193)scale(0.1 -0.1)">
      <use xlink:href="#DejaVuSans-67"/>
      <use x="69.824219" xlink:href="#DejaVuSans-68"/>
      <use x="146.826172" xlink:href="#DejaVuSans-75"/>
      <use x="212.402344" xlink:href="#DejaVuSans-52"/>
     </g>
    </g>
   </g>
   <g id="text_18">
    <g clip-path="url(#p4bf8f4b460)">
     <!-- ERBB2 -->
     <g transform="translate(602.018434 243.063435)scale(0.1 -0.1)">
      <defs>
       <path d="M 19.671875 34.8125 
L 19.671875 8.109375 
L 35.5 8.109375 
Q 43.453125 8.109375 47.28125 11.40625 
Q 51.125 14.703125 51.125 21.484375 
Q 51.125 28.328125 47.28125 31.5625 
Q 43.453125 34.8125 35.5 34.8125 
z
M 19.671875 64.796875 
L 19.671875 42.828125 
L 34.28125 42.828125 
Q 41.5 42.828125 45.03125 45.53125 
Q 48.578125 48.25 48.578125 53.8125 
Q 48.578125 59.328125 45.03125 62.0625 
Q 41.5 64.796875 34.28125 64.796875 
z
M 9.8125 72.90625 
L 35.015625 72.90625 
Q 46.296875 72.90625 52.390625 68.21875 
Q 58.5 63.53125 58.5 54.890625 
Q 58.5 48.1875 55.375 44.234375 
Q 52.25 40.28125 46.1875 39.3125 
Q 53.46875 37.75 57.5 32.78125 
Q 61.53125 27.828125 61.53125 20.40625 
Q 61.53125 10.640625 54.890625 5.3125 
Q 48.25 0 35.984375 0 
L 9.8125 0 
z
" id="DejaVuSans-66"/>
      </defs>
      <use xlink:href="#DejaVuSans-69"/>
      <use x="63.183594" xlink:href="#DejaVuSans-82"/>
      <use x="132.666016" xlink:href="#DejaVuSans-66"/>
      <use x="201.269531" xlink:href="#DejaVuSans-66"/>
      <use x="269.873047" xlink:href="#DejaVuSans-50"/>
     </g>
    </g>
   </g>
   <g id="text_19">
    <g clip-path="url(#p4bf8f4b460)">
     <!-- PCNA -->
     <g transform="translate(155.153573 386.711477)scale(0.1 -0.1)">
      <use xlink:href="#DejaVuSans-80"/>
      <use x="60.302734" xlink:href="#DejaVuSans-67"/>
      <use x="130.126953" xlink:href="#DejaVuSans-78"/>
      <use x="204.931641" xlink:href="#DejaVuSans-65"/>
     </g>
    </g>
   </g>
   <g id="text_20">
    <g clip-path="url(#p4bf8f4b460)">
     <!-- RUNX1 -->
     <g transform="translate(598.36606 279.184373)scale(0.1 -0.1)">
      <defs>
       <path d="M 8.6875 72.90625 
L 18.609375 72.90625 
L 18.609375 28.609375 
Q 18.609375 16.890625 22.84375 11.734375 
Q 27.09375 6.59375 36.625 6.59375 
Q 46.09375 6.59375 50.34375 11.734375 
Q 54.59375 16.890625 54.59375 28.609375 
L 54.59375 72.90625 
L 64.5 72.90625 
L 64.5 27.390625 
Q 64.5 13.140625 57.4375 5.859375 
Q 50.390625 -1.421875 36.625 -1.421875 
Q 22.796875 -1.421875 15.734375 5.859375 
Q 8.6875 13.140625 8.6875 27.390625 
z
" id="DejaVuSans-85"/>
       <path d="M 6.296875 72.90625 
L 16.890625 72.90625 
L 35.015625 45.796875 
L 53.21875 72.90625 
L 63.8125 72.90625 
L 40.375 37.890625 
L 65.375 0 
L 54.78125 0 
L 34.28125 31 
L 13.625 0 
L 2.984375 0 
L 29 38.921875 
z
" id="DejaVuSans-88"/>
      </defs>
      <use xlink:href="#DejaVuSans-82"/>
      <use x="69.482422" xlink:href="#DejaVuSans-85"/>
      <use x="142.675781" xlink:href="#DejaVuSans-78"/>
      <use x="217.480469" xlink:href="#DejaVuSans-88"/>
      <use x="285.986328" xlink:href="#DejaVuSans-49"/>
     </g>
    </g>
   </g>
   <g id="text_21">
    <g clip-path="url(#p4bf8f4b460)">
     <!-- ARHGEF2 -->
     <g transform="translate(221.431311 87.874204)scale(0.1 -0.1)">
      <use xlink:href="#DejaVuSans-65"/>
      <use x="68.408203" xlink:href="#DejaVuSans-82"/>
      <use x="137.890625" xlink:href="#DejaVuSans-72"/>
      <use x="213.085938" xlink:href="#DejaVuSans-71"/>
      <use x="290.576172" xlink:href="#DejaVuSans-69"/>
      <use x="353.759766" xlink:href="#DejaVuSans-70"/>
      <use x="411.279297" xlink:href="#DejaVuSans-50"/>
     </g>
    </g>
   </g>
   <g id="text_22">
    <g clip-path="url(#p4bf8f4b460)">
     <!-- CCND1 -->
     <g transform="translate(421.159591 65.814889)scale(0.1 -0.1)">
      <use xlink:href="#DejaVuSans-67"/>
      <use x="69.824219" xlink:href="#DejaVuSans-67"/>
      <use x="139.648438" xlink:href="#DejaVuSans-78"/>
      <use x="214.453125" xlink:href="#DejaVuSans-68"/>
      <use x="291.455078" xlink:href="#DejaVuSans-49"/>
     </g>
    </g>
   </g>
   <g id="text_23">
    <g clip-path="url(#p4bf8f4b460)">
     <!-- SYMPK -->
     <g transform="translate(431.987788 252.185476)scale(0.1 -0.1)">
      <defs>
       <path d="M -0.203125 72.90625 
L 10.40625 72.90625 
L 30.609375 42.921875 
L 50.6875 72.90625 
L 61.28125 72.90625 
L 35.5 34.71875 
L 35.5 0 
L 25.59375 0 
L 25.59375 34.71875 
z
" id="DejaVuSans-89"/>
      </defs>
      <use xlink:href="#DejaVuSans-83"/>
      <use x="63.476562" xlink:href="#DejaVuSans-89"/>
      <use x="124.560547" xlink:href="#DejaVuSans-77"/>
      <use x="210.839844" xlink:href="#DejaVuSans-80"/>
      <use x="271.142578" xlink:href="#DejaVuSans-75"/>
     </g>
    </g>
   </g>
   <g id="text_24">
    <g clip-path="url(#p4bf8f4b460)">
     <!-- ITGB1 -->
     <g transform="translate(588.061484 174.02967)scale(0.1 -0.1)">
      <use xlink:href="#DejaVuSans-73"/>
      <use x="29.492188" xlink:href="#DejaVuSans-84"/>
      <use x="90.576172" xlink:href="#DejaVuSans-71"/>
      <use x="168.066406" xlink:href="#DejaVuSans-66"/>
      <use x="236.669922" xlink:href="#DejaVuSans-49"/>
     </g>
    </g>
   </g>
   <g id="text_25">
    <g clip-path="url(#p4bf8f4b460)">
     <!-- MPP5 -->
     <g transform="translate(290.689905 315.810261)scale(0.1 -0.1)">
      <use xlink:href="#DejaVuSans-77"/>
      <use x="86.279297" xlink:href="#DejaVuSans-80"/>
      <use x="146.582031" xlink:href="#DejaVuSans-80"/>
      <use x="206.884766" xlink:href="#DejaVuSans-53"/>
     </g>
    </g>
   </g>
   <g id="text_26">
    <g clip-path="url(#p4bf8f4b460)">
     <!-- TJP3 -->
     <g transform="translate(104.703677 132.252506)scale(0.1 -0.1)">
      <defs>
       <path d="M 9.8125 72.90625 
L 19.671875 72.90625 
L 19.671875 5.078125 
Q 19.671875 -8.109375 14.671875 -14.0625 
Q 9.671875 -20.015625 -1.421875 -20.015625 
L -5.171875 -20.015625 
L -5.171875 -11.71875 
L -2.09375 -11.71875 
Q 4.4375 -11.71875 7.125 -8.046875 
Q 9.8125 -4.390625 9.8125 5.078125 
z
" id="DejaVuSans-74"/>
      </defs>
      <use xlink:href="#DejaVuSans-84"/>
      <use x="61.083984" xlink:href="#DejaVuSans-74"/>
      <use x="90.576172" xlink:href="#DejaVuSans-80"/>
      <use x="150.878906" xlink:href="#DejaVuSans-51"/>
     </g>
    </g>
   </g>
   <g id="text_27">
    <g clip-path="url(#p4bf8f4b460)">
     <!-- PRKCE -->
     <g transform="translate(455.122251 155.289707)scale(0.1 -0.1)">
      <use xlink:href="#DejaVuSans-80"/>
      <use x="60.302734" xlink:href="#DejaVuSans-82"/>
      <use x="129.785156" xlink:href="#DejaVuSans-75"/>
      <use x="189.861328" xlink:href="#DejaVuSans-67"/>
      <use x="259.685547" xlink:href="#DejaVuSans-69"/>
     </g>
    </g>
   </g>
   <g id="text_28">
    <g clip-path="url(#p4bf8f4b460)">
     <!-- ROCK1 -->
     <g transform="translate(222.647862 387.195869)scale(0.1 -0.1)">
      <use xlink:href="#DejaVuSans-82"/>
      <use x="69.482422" xlink:href="#DejaVuSans-79"/>
      <use x="148.193359" xlink:href="#DejaVuSans-67"/>
      <use x="218.017578" xlink:href="#DejaVuSans-75"/>
      <use x="283.59375" xlink:href="#DejaVuSans-49"/>
     </g>
    </g>
   </g>
   <g id="text_29">
    <g clip-path="url(#p4bf8f4b460)">
     <!-- ROCK2 -->
     <g transform="translate(136.202364 87.799618)scale(0.1 -0.1)">
      <use xlink:href="#DejaVuSans-82"/>
      <use x="69.482422" xlink:href="#DejaVuSans-79"/>
      <use x="148.193359" xlink:href="#DejaVuSans-67"/>
      <use x="218.017578" xlink:href="#DejaVuSans-75"/>
      <use x="283.59375" xlink:href="#DejaVuSans-50"/>
     </g>
    </g>
   </g>
   <g id="text_30">
    <g clip-path="url(#p4bf8f4b460)">
     <!-- PRKCI -->
     <g transform="translate(383.205311 106.379156)scale(0.1 -0.1)">
      <use xlink:href="#DejaVuSans-80"/>
      <use x="60.302734" xlink:href="#DejaVuSans-82"/>
      <use x="129.785156" xlink:href="#DejaVuSans-75"/>
      <use x="189.861328" xlink:href="#DejaVuSans-67"/>
      <use x="259.685547" xlink:href="#DejaVuSans-73"/>
     </g>
    </g>
   </g>
   <g id="text_31">
    <g clip-path="url(#p4bf8f4b460)">
     <!-- PRKCZ -->
     <g transform="translate(592.467869 310.771978)scale(0.1 -0.1)">
      <defs>
       <path d="M 5.609375 72.90625 
L 62.890625 72.90625 
L 62.890625 65.375 
L 16.796875 8.296875 
L 64.015625 8.296875 
L 64.015625 0 
L 4.5 0 
L 4.5 7.515625 
L 50.59375 64.59375 
L 5.609375 64.59375 
z
" id="DejaVuSans-90"/>
      </defs>
      <use xlink:href="#DejaVuSans-80"/>
      <use x="60.302734" xlink:href="#DejaVuSans-82"/>
      <use x="129.785156" xlink:href="#DejaVuSans-75"/>
      <use x="189.861328" xlink:href="#DejaVuSans-67"/>
      <use x="259.685547" xlink:href="#DejaVuSans-90"/>
     </g>
    </g>
   </g>
   <g id="text_32">
    <g clip-path="url(#p4bf8f4b460)">
     <!-- EZR -->
     <g transform="translate(499.077898 83.401341)scale(0.1 -0.1)">
      <use xlink:href="#DejaVuSans-69"/>
      <use x="63.183594" xlink:href="#DejaVuSans-90"/>
      <use x="131.689453" xlink:href="#DejaVuSans-82"/>
     </g>
    </g>
   </g>
   <g id="text_33">
    <g clip-path="url(#p4bf8f4b460)">
     <!-- RDX -->
     <g transform="translate(220.925374 71.908355)scale(0.1 -0.1)">
      <use xlink:href="#DejaVuSans-82"/>
      <use x="69.482422" xlink:href="#DejaVuSans-68"/>
      <use x="146.484375" xlink:href="#DejaVuSans-88"/>
     </g>
    </g>
   </g>
   <g id="text_34">
    <g clip-path="url(#p4bf8f4b460)">
     <!-- MSN -->
     <g transform="translate(536.443345 374.741629)scale(0.1 -0.1)">
      <use xlink:href="#DejaVuSans-77"/>
      <use x="86.279297" xlink:href="#DejaVuSans-83"/>
      <use x="149.755859" xlink:href="#DejaVuSans-78"/>
     </g>
    </g>
   </g>
   <g id="text_35">
    <g clip-path="url(#p4bf8f4b460)">
     <!-- TJP2 -->
     <g transform="translate(117.2075 378.630979)scale(0.1 -0.1)">
      <use xlink:href="#DejaVuSans-84"/>
      <use x="61.083984" xlink:href="#DejaVuSans-74"/>
      <use x="90.576172" xlink:href="#DejaVuSans-80"/>
      <use x="150.878906" xlink:href="#DejaVuSans-50"/>
     </g>
    </g>
   </g>
   <g id="text_36">
    <g clip-path="url(#p4bf8f4b460)">
     <!-- WHAMM -->
     <g transform="translate(319.451681 278.262024)scale(0.1 -0.1)">
      <defs>
       <path d="M 3.328125 72.90625 
L 13.28125 72.90625 
L 28.609375 11.28125 
L 43.890625 72.90625 
L 54.984375 72.90625 
L 70.3125 11.28125 
L 85.59375 72.90625 
L 95.609375 72.90625 
L 77.296875 0 
L 64.890625 0 
L 49.515625 63.28125 
L 33.984375 0 
L 21.578125 0 
z
" id="DejaVuSans-87"/>
      </defs>
      <use xlink:href="#DejaVuSans-87"/>
      <use x="98.876953" xlink:href="#DejaVuSans-72"/>
      <use x="174.072266" xlink:href="#DejaVuSans-65"/>
      <use x="242.480469" xlink:href="#DejaVuSans-77"/>
      <use x="328.759766" xlink:href="#DejaVuSans-77"/>
     </g>
    </g>
   </g>
   <g id="text_37">
    <g clip-path="url(#p4bf8f4b460)">
     <!-- WAS -->
     <g transform="translate(392.953392 324.959647)scale(0.1 -0.1)">
      <use xlink:href="#DejaVuSans-87"/>
      <use x="93.376953" xlink:href="#DejaVuSans-65"/>
      <use x="161.785156" xlink:href="#DejaVuSans-83"/>
     </g>
    </g>
   </g>
   <g id="text_38">
    <g clip-path="url(#p4bf8f4b460)">
     <!-- ACTR2 -->
     <g transform="translate(362.947868 411.682064)scale(0.1 -0.1)">
      <use xlink:href="#DejaVuSans-65"/>
      <use x="66.658203" xlink:href="#DejaVuSans-67"/>
      <use x="136.482422" xlink:href="#DejaVuSans-84"/>
      <use x="197.566406" xlink:href="#DejaVuSans-82"/>
      <use x="267.048828" xlink:href="#DejaVuSans-50"/>
     </g>
    </g>
   </g>
   <g id="text_39">
    <g clip-path="url(#p4bf8f4b460)">
     <!-- ACTR3 -->
     <g transform="translate(444.216163 371.894246)scale(0.1 -0.1)">
      <use xlink:href="#DejaVuSans-65"/>
      <use x="66.658203" xlink:href="#DejaVuSans-67"/>
      <use x="136.482422" xlink:href="#DejaVuSans-84"/>
      <use x="197.566406" xlink:href="#DejaVuSans-82"/>
      <use x="267.048828" xlink:href="#DejaVuSans-51"/>
     </g>
    </g>
   </g>
   <g id="text_40">
    <g clip-path="url(#p4bf8f4b460)">
     <!-- ARPC5 -->
     <g transform="translate(370.898156 291.680976)scale(0.1 -0.1)">
      <use xlink:href="#DejaVuSans-65"/>
      <use x="68.408203" xlink:href="#DejaVuSans-82"/>
      <use x="137.890625" xlink:href="#DejaVuSans-80"/>
      <use x="198.193359" xlink:href="#DejaVuSans-67"/>
      <use x="268.017578" xlink:href="#DejaVuSans-53"/>
     </g>
    </g>
   </g>
   <g id="text_41">
    <g clip-path="url(#p4bf8f4b460)">
     <!-- ARPC4 -->
     <g transform="translate(396.905676 428.797074)scale(0.1 -0.1)">
      <use xlink:href="#DejaVuSans-65"/>
      <use x="68.408203" xlink:href="#DejaVuSans-82"/>
      <use x="137.890625" xlink:href="#DejaVuSans-80"/>
      <use x="198.193359" xlink:href="#DejaVuSans-67"/>
      <use x="268.017578" xlink:href="#DejaVuSans-52"/>
     </g>
    </g>
   </g>
   <g id="text_42">
    <g clip-path="url(#p4bf8f4b460)">
     <!-- ARPC3 -->
     <g transform="translate(303.989125 306.951113)scale(0.1 -0.1)">
      <use xlink:href="#DejaVuSans-65"/>
      <use x="68.408203" xlink:href="#DejaVuSans-82"/>
      <use x="137.890625" xlink:href="#DejaVuSans-80"/>
      <use x="198.193359" xlink:href="#DejaVuSans-67"/>
      <use x="268.017578" xlink:href="#DejaVuSans-51"/>
     </g>
    </g>
   </g>
   <g id="text_43">
    <g clip-path="url(#p4bf8f4b460)">
     <!-- ARPC2 -->
     <g transform="translate(345.786091 365.573616)scale(0.1 -0.1)">
      <use xlink:href="#DejaVuSans-65"/>
      <use x="68.408203" xlink:href="#DejaVuSans-82"/>
      <use x="137.890625" xlink:href="#DejaVuSans-80"/>
      <use x="198.193359" xlink:href="#DejaVuSans-67"/>
      <use x="268.017578" xlink:href="#DejaVuSans-50"/>
     </g>
    </g>
   </g>
   <g id="text_44">
    <g clip-path="url(#p4bf8f4b460)">
     <!-- RAB8A -->
     <g transform="translate(56.215562 257.534893)scale(0.1 -0.1)">
      <defs>
       <path d="M 31.78125 34.625 
Q 24.75 34.625 20.71875 30.859375 
Q 16.703125 27.09375 16.703125 20.515625 
Q 16.703125 13.921875 20.71875 10.15625 
Q 24.75 6.390625 31.78125 6.390625 
Q 38.8125 6.390625 42.859375 10.171875 
Q 46.921875 13.96875 46.921875 20.515625 
Q 46.921875 27.09375 42.890625 30.859375 
Q 38.875 34.625 31.78125 34.625 
z
M 21.921875 38.8125 
Q 15.578125 40.375 12.03125 44.71875 
Q 8.5 49.078125 8.5 55.328125 
Q 8.5 64.0625 14.71875 69.140625 
Q 20.953125 74.21875 31.78125 74.21875 
Q 42.671875 74.21875 48.875 69.140625 
Q 55.078125 64.0625 55.078125 55.328125 
Q 55.078125 49.078125 51.53125 44.71875 
Q 48 40.375 41.703125 38.8125 
Q 48.828125 37.15625 52.796875 32.3125 
Q 56.78125 27.484375 56.78125 20.515625 
Q 56.78125 9.90625 50.3125 4.234375 
Q 43.84375 -1.421875 31.78125 -1.421875 
Q 19.734375 -1.421875 13.25 4.234375 
Q 6.78125 9.90625 6.78125 20.515625 
Q 6.78125 27.484375 10.78125 32.3125 
Q 14.796875 37.15625 21.921875 38.8125 
z
M 18.3125 54.390625 
Q 18.3125 48.734375 21.84375 45.5625 
Q 25.390625 42.390625 31.78125 42.390625 
Q 38.140625 42.390625 41.71875 45.5625 
Q 45.3125 48.734375 45.3125 54.390625 
Q 45.3125 60.0625 41.71875 63.234375 
Q 38.140625 66.40625 31.78125 66.40625 
Q 25.390625 66.40625 21.84375 63.234375 
Q 18.3125 60.0625 18.3125 54.390625 
z
" id="DejaVuSans-56"/>
      </defs>
      <use xlink:href="#DejaVuSans-82"/>
      <use x="65.482422" xlink:href="#DejaVuSans-65"/>
      <use x="133.890625" xlink:href="#DejaVuSans-66"/>
      <use x="202.494141" xlink:href="#DejaVuSans-56"/>
      <use x="266.117188" xlink:href="#DejaVuSans-65"/>
     </g>
    </g>
   </g>
   <g id="text_45">
    <g clip-path="url(#p4bf8f4b460)">
     <!-- RAB8B -->
     <g transform="translate(356.288627 63.564773)scale(0.1 -0.1)">
      <use xlink:href="#DejaVuSans-82"/>
      <use x="65.482422" xlink:href="#DejaVuSans-65"/>
      <use x="133.890625" xlink:href="#DejaVuSans-66"/>
      <use x="202.494141" xlink:href="#DejaVuSans-56"/>
      <use x="266.117188" xlink:href="#DejaVuSans-66"/>
     </g>
    </g>
   </g>
   <g id="text_46">
    <!-- Importance Score for Each Node in the Network -->
    <g transform="translate(198.616875 16.318125)scale(0.12 -0.12)">
     <defs>
      <path d="M 52 44.1875 
Q 55.375 50.25 60.0625 53.125 
Q 64.75 56 71.09375 56 
Q 79.640625 56 84.28125 50.015625 
Q 88.921875 44.046875 88.921875 33.015625 
L 88.921875 0 
L 79.890625 0 
L 79.890625 32.71875 
Q 79.890625 40.578125 77.09375 44.375 
Q 74.3125 48.1875 68.609375 48.1875 
Q 61.625 48.1875 57.5625 43.546875 
Q 53.515625 38.921875 53.515625 30.90625 
L 53.515625 0 
L 44.484375 0 
L 44.484375 32.71875 
Q 44.484375 40.625 41.703125 44.40625 
Q 38.921875 48.1875 33.109375 48.1875 
Q 26.21875 48.1875 22.15625 43.53125 
Q 18.109375 38.875 18.109375 30.90625 
L 18.109375 0 
L 9.078125 0 
L 9.078125 54.6875 
L 18.109375 54.6875 
L 18.109375 46.1875 
Q 21.1875 51.21875 25.484375 53.609375 
Q 29.78125 56 35.6875 56 
Q 41.65625 56 45.828125 52.96875 
Q 50 49.953125 52 44.1875 
z
" id="DejaVuSans-109"/>
      <path d="M 18.109375 8.203125 
L 18.109375 -20.796875 
L 9.078125 -20.796875 
L 9.078125 54.6875 
L 18.109375 54.6875 
L 18.109375 46.390625 
Q 20.953125 51.265625 25.265625 53.625 
Q 29.59375 56 35.59375 56 
Q 45.5625 56 51.78125 48.09375 
Q 58.015625 40.1875 58.015625 27.296875 
Q 58.015625 14.40625 51.78125 6.484375 
Q 45.5625 -1.421875 35.59375 -1.421875 
Q 29.59375 -1.421875 25.265625 0.953125 
Q 20.953125 3.328125 18.109375 8.203125 
z
M 48.6875 27.296875 
Q 48.6875 37.203125 44.609375 42.84375 
Q 40.53125 48.484375 33.40625 48.484375 
Q 26.265625 48.484375 22.1875 42.84375 
Q 18.109375 37.203125 18.109375 27.296875 
Q 18.109375 17.390625 22.1875 11.75 
Q 26.265625 6.109375 33.40625 6.109375 
Q 40.53125 6.109375 44.609375 11.75 
Q 48.6875 17.390625 48.6875 27.296875 
z
" id="DejaVuSans-112"/>
      <path d="M 30.609375 48.390625 
Q 23.390625 48.390625 19.1875 42.75 
Q 14.984375 37.109375 14.984375 27.296875 
Q 14.984375 17.484375 19.15625 11.84375 
Q 23.34375 6.203125 30.609375 6.203125 
Q 37.796875 6.203125 41.984375 11.859375 
Q 46.1875 17.53125 46.1875 27.296875 
Q 46.1875 37.015625 41.984375 42.703125 
Q 37.796875 48.390625 30.609375 48.390625 
z
M 30.609375 56 
Q 42.328125 56 49.015625 48.375 
Q 55.71875 40.765625 55.71875 27.296875 
Q 55.71875 13.875 49.015625 6.21875 
Q 42.328125 -1.421875 30.609375 -1.421875 
Q 18.84375 -1.421875 12.171875 6.21875 
Q 5.515625 13.875 5.515625 27.296875 
Q 5.515625 40.765625 12.171875 48.375 
Q 18.84375 56 30.609375 56 
z
" id="DejaVuSans-111"/>
      <path d="M 41.109375 46.296875 
Q 39.59375 47.171875 37.8125 47.578125 
Q 36.03125 48 33.890625 48 
Q 26.265625 48 22.1875 43.046875 
Q 18.109375 38.09375 18.109375 28.8125 
L 18.109375 0 
L 9.078125 0 
L 9.078125 54.6875 
L 18.109375 54.6875 
L 18.109375 46.1875 
Q 20.953125 51.171875 25.484375 53.578125 
Q 30.03125 56 36.53125 56 
Q 37.453125 56 38.578125 55.875 
Q 39.703125 55.765625 41.0625 55.515625 
z
" id="DejaVuSans-114"/>
      <path d="M 18.3125 70.21875 
L 18.3125 54.6875 
L 36.8125 54.6875 
L 36.8125 47.703125 
L 18.3125 47.703125 
L 18.3125 18.015625 
Q 18.3125 11.328125 20.140625 9.421875 
Q 21.96875 7.515625 27.59375 7.515625 
L 36.8125 7.515625 
L 36.8125 0 
L 27.59375 0 
Q 17.1875 0 13.234375 3.875 
Q 9.28125 7.765625 9.28125 18.015625 
L 9.28125 47.703125 
L 2.6875 47.703125 
L 2.6875 54.6875 
L 9.28125 54.6875 
L 9.28125 70.21875 
z
" id="DejaVuSans-116"/>
      <path d="M 34.28125 27.484375 
Q 23.390625 27.484375 19.1875 25 
Q 14.984375 22.515625 14.984375 16.5 
Q 14.984375 11.71875 18.140625 8.90625 
Q 21.296875 6.109375 26.703125 6.109375 
Q 34.1875 6.109375 38.703125 11.40625 
Q 43.21875 16.703125 43.21875 25.484375 
L 43.21875 27.484375 
z
M 52.203125 31.203125 
L 52.203125 0 
L 43.21875 0 
L 43.21875 8.296875 
Q 40.140625 3.328125 35.546875 0.953125 
Q 30.953125 -1.421875 24.3125 -1.421875 
Q 15.921875 -1.421875 10.953125 3.296875 
Q 6 8.015625 6 15.921875 
Q 6 25.140625 12.171875 29.828125 
Q 18.359375 34.515625 30.609375 34.515625 
L 43.21875 34.515625 
L 43.21875 35.40625 
Q 43.21875 41.609375 39.140625 45 
Q 35.0625 48.390625 27.6875 48.390625 
Q 23 48.390625 18.546875 47.265625 
Q 14.109375 46.140625 10.015625 43.890625 
L 10.015625 52.203125 
Q 14.9375 54.109375 19.578125 55.046875 
Q 24.21875 56 28.609375 56 
Q 40.484375 56 46.34375 49.84375 
Q 52.203125 43.703125 52.203125 31.203125 
z
" id="DejaVuSans-97"/>
      <path d="M 54.890625 33.015625 
L 54.890625 0 
L 45.90625 0 
L 45.90625 32.71875 
Q 45.90625 40.484375 42.875 44.328125 
Q 39.84375 48.1875 33.796875 48.1875 
Q 26.515625 48.1875 22.3125 43.546875 
Q 18.109375 38.921875 18.109375 30.90625 
L 18.109375 0 
L 9.078125 0 
L 9.078125 54.6875 
L 18.109375 54.6875 
L 18.109375 46.1875 
Q 21.34375 51.125 25.703125 53.5625 
Q 30.078125 56 35.796875 56 
Q 45.21875 56 50.046875 50.171875 
Q 54.890625 44.34375 54.890625 33.015625 
z
" id="DejaVuSans-110"/>
      <path d="M 48.78125 52.59375 
L 48.78125 44.1875 
Q 44.96875 46.296875 41.140625 47.34375 
Q 37.3125 48.390625 33.40625 48.390625 
Q 24.65625 48.390625 19.8125 42.84375 
Q 14.984375 37.3125 14.984375 27.296875 
Q 14.984375 17.28125 19.8125 11.734375 
Q 24.65625 6.203125 33.40625 6.203125 
Q 37.3125 6.203125 41.140625 7.25 
Q 44.96875 8.296875 48.78125 10.40625 
L 48.78125 2.09375 
Q 45.015625 0.34375 40.984375 -0.53125 
Q 36.96875 -1.421875 32.421875 -1.421875 
Q 20.0625 -1.421875 12.78125 6.34375 
Q 5.515625 14.109375 5.515625 27.296875 
Q 5.515625 40.671875 12.859375 48.328125 
Q 20.21875 56 33.015625 56 
Q 37.15625 56 41.109375 55.140625 
Q 45.0625 54.296875 48.78125 52.59375 
z
" id="DejaVuSans-99"/>
      <path d="M 56.203125 29.59375 
L 56.203125 25.203125 
L 14.890625 25.203125 
Q 15.484375 15.921875 20.484375 11.0625 
Q 25.484375 6.203125 34.421875 6.203125 
Q 39.59375 6.203125 44.453125 7.46875 
Q 49.3125 8.734375 54.109375 11.28125 
L 54.109375 2.78125 
Q 49.265625 0.734375 44.1875 -0.34375 
Q 39.109375 -1.421875 33.890625 -1.421875 
Q 20.796875 -1.421875 13.15625 6.1875 
Q 5.515625 13.8125 5.515625 26.8125 
Q 5.515625 40.234375 12.765625 48.109375 
Q 20.015625 56 32.328125 56 
Q 43.359375 56 49.78125 48.890625 
Q 56.203125 41.796875 56.203125 29.59375 
z
M 47.21875 32.234375 
Q 47.125 39.59375 43.09375 43.984375 
Q 39.0625 48.390625 32.421875 48.390625 
Q 24.90625 48.390625 20.390625 44.140625 
Q 15.875 39.890625 15.1875 32.171875 
z
" id="DejaVuSans-101"/>
      <path id="DejaVuSans-32"/>
      <path d="M 37.109375 75.984375 
L 37.109375 68.5 
L 28.515625 68.5 
Q 23.6875 68.5 21.796875 66.546875 
Q 19.921875 64.59375 19.921875 59.515625 
L 19.921875 54.6875 
L 34.71875 54.6875 
L 34.71875 47.703125 
L 19.921875 47.703125 
L 19.921875 0 
L 10.890625 0 
L 10.890625 47.703125 
L 2.296875 47.703125 
L 2.296875 54.6875 
L 10.890625 54.6875 
L 10.890625 58.5 
Q 10.890625 67.625 15.140625 71.796875 
Q 19.390625 75.984375 28.609375 75.984375 
z
" id="DejaVuSans-102"/>
      <path d="M 54.890625 33.015625 
L 54.890625 0 
L 45.90625 0 
L 45.90625 32.71875 
Q 45.90625 40.484375 42.875 44.328125 
Q 39.84375 48.1875 33.796875 48.1875 
Q 26.515625 48.1875 22.3125 43.546875 
Q 18.109375 38.921875 18.109375 30.90625 
L 18.109375 0 
L 9.078125 0 
L 9.078125 75.984375 
L 18.109375 75.984375 
L 18.109375 46.1875 
Q 21.34375 51.125 25.703125 53.5625 
Q 30.078125 56 35.796875 56 
Q 45.21875 56 50.046875 50.171875 
Q 54.890625 44.34375 54.890625 33.015625 
z
" id="DejaVuSans-104"/>
      <path d="M 45.40625 46.390625 
L 45.40625 75.984375 
L 54.390625 75.984375 
L 54.390625 0 
L 45.40625 0 
L 45.40625 8.203125 
Q 42.578125 3.328125 38.25 0.953125 
Q 33.9375 -1.421875 27.875 -1.421875 
Q 17.96875 -1.421875 11.734375 6.484375 
Q 5.515625 14.40625 5.515625 27.296875 
Q 5.515625 40.1875 11.734375 48.09375 
Q 17.96875 56 27.875 56 
Q 33.9375 56 38.25 53.625 
Q 42.578125 51.265625 45.40625 46.390625 
z
M 14.796875 27.296875 
Q 14.796875 17.390625 18.875 11.75 
Q 22.953125 6.109375 30.078125 6.109375 
Q 37.203125 6.109375 41.296875 11.75 
Q 45.40625 17.390625 45.40625 27.296875 
Q 45.40625 37.203125 41.296875 42.84375 
Q 37.203125 48.484375 30.078125 48.484375 
Q 22.953125 48.484375 18.875 42.84375 
Q 14.796875 37.203125 14.796875 27.296875 
z
" id="DejaVuSans-100"/>
      <path d="M 9.421875 54.6875 
L 18.40625 54.6875 
L 18.40625 0 
L 9.421875 0 
z
M 9.421875 75.984375 
L 18.40625 75.984375 
L 18.40625 64.59375 
L 9.421875 64.59375 
z
" id="DejaVuSans-105"/>
      <path d="M 4.203125 54.6875 
L 13.1875 54.6875 
L 24.421875 12.015625 
L 35.59375 54.6875 
L 46.1875 54.6875 
L 57.421875 12.015625 
L 68.609375 54.6875 
L 77.59375 54.6875 
L 63.28125 0 
L 52.6875 0 
L 40.921875 44.828125 
L 29.109375 0 
L 18.5 0 
z
" id="DejaVuSans-119"/>
      <path d="M 9.078125 75.984375 
L 18.109375 75.984375 
L 18.109375 31.109375 
L 44.921875 54.6875 
L 56.390625 54.6875 
L 27.390625 29.109375 
L 57.625 0 
L 45.90625 0 
L 18.109375 26.703125 
L 18.109375 0 
L 9.078125 0 
z
" id="DejaVuSans-107"/>
     </defs>
     <use xlink:href="#DejaVuSans-73"/>
     <use x="29.492188" xlink:href="#DejaVuSans-109"/>
     <use x="126.904297" xlink:href="#DejaVuSans-112"/>
     <use x="190.380859" xlink:href="#DejaVuSans-111"/>
     <use x="251.5625" xlink:href="#DejaVuSans-114"/>
     <use x="292.675781" xlink:href="#DejaVuSans-116"/>
     <use x="331.884766" xlink:href="#DejaVuSans-97"/>
     <use x="393.164062" xlink:href="#DejaVuSans-110"/>
     <use x="456.542969" xlink:href="#DejaVuSans-99"/>
     <use x="511.523438" xlink:href="#DejaVuSans-101"/>
     <use x="573.046875" xlink:href="#DejaVuSans-32"/>
     <use x="604.833984" xlink:href="#DejaVuSans-83"/>
     <use x="668.310547" xlink:href="#DejaVuSans-99"/>
     <use x="723.291016" xlink:href="#DejaVuSans-111"/>
     <use x="784.472656" xlink:href="#DejaVuSans-114"/>
     <use x="823.335938" xlink:href="#DejaVuSans-101"/>
     <use x="884.859375" xlink:href="#DejaVuSans-32"/>
     <use x="916.646484" xlink:href="#DejaVuSans-102"/>
     <use x="951.851562" xlink:href="#DejaVuSans-111"/>
     <use x="1013.033203" xlink:href="#DejaVuSans-114"/>
     <use x="1054.146484" xlink:href="#DejaVuSans-32"/>
     <use x="1085.933594" xlink:href="#DejaVuSans-69"/>
     <use x="1149.117188" xlink:href="#DejaVuSans-97"/>
     <use x="1210.396484" xlink:href="#DejaVuSans-99"/>
     <use x="1265.376953" xlink:href="#DejaVuSans-104"/>
     <use x="1328.755859" xlink:href="#DejaVuSans-32"/>
     <use x="1360.542969" xlink:href="#DejaVuSans-78"/>
     <use x="1435.347656" xlink:href="#DejaVuSans-111"/>
     <use x="1496.529297" xlink:href="#DejaVuSans-100"/>
     <use x="1560.005859" xlink:href="#DejaVuSans-101"/>
     <use x="1621.529297" xlink:href="#DejaVuSans-32"/>
     <use x="1653.316406" xlink:href="#DejaVuSans-105"/>
     <use x="1681.099609" xlink:href="#DejaVuSans-110"/>
     <use x="1744.478516" xlink:href="#DejaVuSans-32"/>
     <use x="1776.265625" xlink:href="#DejaVuSans-116"/>
     <use x="1815.474609" xlink:href="#DejaVuSans-104"/>
     <use x="1878.853516" xlink:href="#DejaVuSans-101"/>
     <use x="1940.376953" xlink:href="#DejaVuSans-32"/>
     <use x="1972.164062" xlink:href="#DejaVuSans-78"/>
     <use x="2046.96875" xlink:href="#DejaVuSans-101"/>
     <use x="2108.492188" xlink:href="#DejaVuSans-116"/>
     <use x="2147.701172" xlink:href="#DejaVuSans-119"/>
     <use x="2229.488281" xlink:href="#DejaVuSans-111"/>
     <use x="2290.669922" xlink:href="#DejaVuSans-114"/>
     <use x="2331.783203" xlink:href="#DejaVuSans-107"/>
    </g>
   </g>
  </g>
 </g>
 <defs>
  <clipPath id="p4bf8f4b460">
   <rect height="443.52" width="669.6" x="7.2" y="22.318125"/>
  </clipPath>
 </defs>
</svg>
