<?xml version="1.0" encoding="utf-8" standalone="no"?>
<!DOCTYPE svg PUBLIC "-//W3C//DTD SVG 1.1//EN"
  "http://www.w3.org/Graphics/SVG/1.1/DTD/svg11.dtd">
<!-- Created with matplotlib (https://matplotlib.org/) -->
<svg height="473.038125pt" version="1.1" viewBox="0 0 684 473.038125" width="684pt" xmlns="http://www.w3.org/2000/svg" xmlns:xlink="http://www.w3.org/1999/xlink">
 <metadata>
  <rdf:RDF xmlns:cc="http://creativecommons.org/ns#" xmlns:dc="http://purl.org/dc/elements/1.1/" xmlns:rdf="http://www.w3.org/1999/02/22-rdf-syntax-ns#">
   <cc:Work>
    <dc:type rdf:resource="http://purl.org/dc/dcmitype/StillImage"/>
    <dc:date>2024-04-25T16:27:38.926664</dc:date>
    <dc:format>image/svg+xml</dc:format>
    <dc:creator>
     <cc:Agent>
      <dc:title>Matplotlib v3.3.1, https://matplotlib.org/</dc:title>
     </cc:Agent>
    </dc:creator>
   </cc:Work>
  </rdf:RDF>
 </metadata>
 <defs>
  <style type="text/css">*{stroke-linecap:butt;stroke-linejoin:round;}</style>
 </defs>
 <g id="figure_1">
  <g id="patch_1">
   <path d="M 0 473.038125 
L 684 473.038125 
L 684 0 
L 0 0 
z
" style="fill:#ffffff;"/>
  </g>
  <g id="axes_1">
   <g id="patch_2">
    <path clip-path="url(#pdd93ceadc3)" d="M 73.793579 263.902405 
Q 153.404338 247.748616 231.919391 231.817157 
" style="fill:none;stroke:#808080;stroke-linecap:round;"/>
    <path clip-path="url(#pdd93ceadc3)" d="M 227.601563 230.652529 
L 231.919391 231.817157 
L 228.396992 234.572643 
L 227.601563 230.652529 
z
" style="fill:#808080;stroke:#808080;stroke-linecap:round;"/>
   </g>
   <g id="patch_3">
    <path clip-path="url(#pdd93ceadc3)" d="M 73.858951 264.277277 
Q 129.913466 255.446992 184.863567 246.790685 
" style="fill:none;stroke:#808080;stroke-linecap:round;"/>
    <path clip-path="url(#pdd93ceadc3)" d="M 180.601071 245.437494 
L 184.863567 246.790685 
L 181.223517 249.388767 
L 180.601071 245.437494 
z
" style="fill:#808080;stroke:#808080;stroke-linecap:round;"/>
   </g>
   <g id="patch_4">
    <path clip-path="url(#pdd93ceadc3)" d="M 593.91256 336.732023 
Q 565.712278 248.862842 537.853648 162.058214 
" style="fill:none;stroke:#808080;stroke-linecap:round;"/>
    <path clip-path="url(#pdd93ceadc3)" d="M 537.171649 166.478042 
L 537.853648 162.058214 
L 540.980311 165.25571 
L 537.171649 166.478042 
z
" style="fill:#808080;stroke:#808080;stroke-linecap:round;"/>
   </g>
   <g id="patch_5">
    <path clip-path="url(#pdd93ceadc3)" d="M 430.631546 252.272682 
Q 252.295816 258.790522 75.077374 265.267526 
" style="fill:none;stroke:#808080;stroke-linecap:round;"/>
    <path clip-path="url(#pdd93ceadc3)" d="M 79.147752 267.120097 
L 75.077374 265.267526 
L 79.001657 263.122766 
L 79.147752 267.120097 
z
" style="fill:#808080;stroke:#808080;stroke-linecap:round;"/>
   </g>
   <g id="patch_6">
    <path clip-path="url(#pdd93ceadc3)" d="M 445.291278 245.722598 
Q 487.072954 202.355173 528.078918 159.792902 
" style="fill:none;stroke:#808080;stroke-linecap:round;"/>
    <path clip-path="url(#pdd93ceadc3)" d="M 523.863346 161.285868 
L 528.078918 159.792902 
L 526.743948 164.06114 
L 523.863346 161.285868 
z
" style="fill:#808080;stroke:#808080;stroke-linecap:round;"/>
   </g>
   <g id="patch_7">
    <path clip-path="url(#pdd93ceadc3)" d="M 375.901131 365.62578 
Q 482.75933 273.799588 588.76957 182.702071 
" style="fill:none;stroke:#808080;stroke-linecap:round;"/>
    <path clip-path="url(#pdd93ceadc3)" d="M 584.432329 183.79218 
L 588.76957 182.702071 
L 587.039313 186.82593 
L 584.432329 183.79218 
z
" style="fill:#808080;stroke:#808080;stroke-linecap:round;"/>
   </g>
   <g id="patch_8">
    <path clip-path="url(#pdd93ceadc3)" d="M 361.028952 373.719048 
Q 288.933514 394.989925 217.910412 415.944424 
" style="fill:none;stroke:#808080;stroke-linecap:round;"/>
    <path clip-path="url(#pdd93ceadc3)" d="M 222.312874 416.730762 
L 217.910412 415.944424 
L 221.18096 412.894257 
L 222.312874 416.730762 
z
" style="fill:#808080;stroke:#808080;stroke-linecap:round;"/>
   </g>
   <g id="patch_9">
    <path clip-path="url(#pdd93ceadc3)" d="M 355.641568 164.340518 
Q 235.924169 255.822767 117.095127 346.626177 
" style="fill:none;stroke:#808080;stroke-linecap:round;"/>
    <path clip-path="url(#pdd93ceadc3)" d="M 121.487752 345.786629 
L 117.095127 346.626177 
L 119.059064 342.608348 
L 121.487752 345.786629 
z
" style="fill:#808080;stroke:#808080;stroke-linecap:round;"/>
   </g>
   <g id="patch_10">
    <path clip-path="url(#pdd93ceadc3)" d="M 354.679115 155.404007 
Q 277.949666 119.418251 202.232456 83.90723 
" style="fill:none;stroke:#808080;stroke-linecap:round;"/>
    <path clip-path="url(#pdd93ceadc3)" d="M 205.004718 87.416441 
L 202.232456 83.90723 
L 206.703182 83.794947 
L 205.004718 87.416441 
z
" style="fill:#808080;stroke:#808080;stroke-linecap:round;"/>
   </g>
   <g id="patch_11">
    <path clip-path="url(#pdd93ceadc3)" d="M 117.617919 355.048141 
Q 181.100951 374.066259 243.512976 392.763528 
" style="fill:none;stroke:#808080;stroke-linecap:round;"/>
    <path clip-path="url(#pdd93ceadc3)" d="M 240.25518 389.699745 
L 243.512976 392.763528 
L 239.107272 393.531495 
L 240.25518 389.699745 
z
" style="fill:#808080;stroke:#808080;stroke-linecap:round;"/>
   </g>
   <g id="patch_12">
    <path clip-path="url(#pdd93ceadc3)" d="M 261.435816 394.250738 
Q 406.557318 371.904758 550.57381 349.728929 
" style="fill:none;stroke:#808080;stroke-linecap:round;"/>
    <path clip-path="url(#pdd93ceadc3)" d="M 546.316028 348.360976 
L 550.57381 349.728929 
L 546.924778 352.314382 
L 546.316028 348.360976 
z
" style="fill:#808080;stroke:#808080;stroke-linecap:round;"/>
   </g>
   <g id="patch_13">
    <path clip-path="url(#pdd93ceadc3)" d="M 342.9651 365.054805 
Q 459.586429 335.242917 575.124555 305.707927 
" style="fill:none;stroke:#808080;stroke-linecap:round;"/>
    <path clip-path="url(#pdd93ceadc3)" d="M 570.753841 304.760899 
L 575.124555 305.707927 
L 571.744505 308.636282 
L 570.753841 304.760899 
z
" style="fill:#808080;stroke:#808080;stroke-linecap:round;"/>
   </g>
   <g id="patch_14">
    <path clip-path="url(#pdd93ceadc3)" d="M 342.80295 369.889427 
Q 410.086937 391.89013 476.308257 413.543359 
" style="fill:none;stroke:#808080;stroke-linecap:round;"/>
    <path clip-path="url(#pdd93ceadc3)" d="M 473.127923 410.399242 
L 476.308257 413.543359 
L 471.884763 414.201156 
L 473.127923 410.399242 
z
" style="fill:#808080;stroke:#808080;stroke-linecap:round;"/>
   </g>
   <g id="patch_15">
    <path clip-path="url(#pdd93ceadc3)" d="M 220.018808 236.237838 
Q 372.76388 312.510631 524.508692 388.283946 
" style="fill:none;stroke:#808080;stroke-linecap:round;"/>
    <path clip-path="url(#pdd93ceadc3)" d="M 521.823541 384.70764 
L 524.508692 388.283946 
L 520.036557 388.286283 
L 521.823541 384.70764 
z
" style="fill:#808080;stroke:#808080;stroke-linecap:round;"/>
   </g>
   <g id="patch_16">
    <path clip-path="url(#pdd93ceadc3)" d="M 239.218346 70.696926 
Q 159.39084 122.548056 80.50094 173.790173 
" style="fill:none;stroke:#808080;stroke-linecap:round;"/>
    <path clip-path="url(#pdd93ceadc3)" d="M 84.944853 173.288546 
L 80.50094 173.790173 
L 82.765986 169.934066 
L 84.944853 173.288546 
z
" style="fill:#808080;stroke:#808080;stroke-linecap:round;"/>
   </g>
   <g id="patch_17">
    <path clip-path="url(#pdd93ceadc3)" d="M 240.596539 72.33339 
Q 166.95226 151.846387 94.067699 230.539124 
" style="fill:none;stroke:#808080;stroke-linecap:round;"/>
    <path clip-path="url(#pdd93ceadc3)" d="M 98.253078 228.963496 
L 94.067699 230.539124 
L 95.318424 226.245444 
L 98.253078 228.963496 
z
" style="fill:#808080;stroke:#808080;stroke-linecap:round;"/>
   </g>
   <g id="patch_18">
    <path clip-path="url(#pdd93ceadc3)" d="M 254.970587 67.687002 
Q 413.28893 99.545223 570.511209 131.182884 
" style="fill:none;stroke:#808080;stroke-linecap:round;"/>
    <path clip-path="url(#pdd93ceadc3)" d="M 566.984365 128.43309 
L 570.511209 131.182884 
L 566.195267 132.354483 
L 566.984365 128.43309 
z
" style="fill:#808080;stroke:#808080;stroke-linecap:round;"/>
   </g>
   <g id="patch_19">
    <path clip-path="url(#pdd93ceadc3)" d="M 170.772906 108.639145 
Q 275.590341 146.107941 379.354984 183.2004 
" style="fill:none;stroke:#808080;stroke-linecap:round;"/>
    <path clip-path="url(#pdd93ceadc3)" d="M 376.261618 179.97068 
L 379.354984 183.2004 
L 374.915189 183.737261 
L 376.261618 179.97068 
z
" style="fill:#808080;stroke:#808080;stroke-linecap:round;"/>
   </g>
   <g id="patch_20">
    <path clip-path="url(#pdd93ceadc3)" d="M 387.663307 195.104238 
Q 378.947142 278.878792 370.346677 361.541315 
" style="fill:none;stroke:#808080;stroke-linecap:round;"/>
    <path clip-path="url(#pdd93ceadc3)" d="M 372.749877 357.76976 
L 370.346677 361.541315 
L 368.771353 357.355822 
L 372.749877 357.76976 
z
" style="fill:#808080;stroke:#808080;stroke-linecap:round;"/>
   </g>
   <g id="patch_21">
    <path clip-path="url(#pdd93ceadc3)" d="M 434.074197 272.282699 
Q 395.605199 342.298064 357.674579 411.333556 
" style="fill:none;stroke:#808080;stroke-linecap:round;"/>
    <path clip-path="url(#pdd93ceadc3)" d="M 361.353586 408.790938 
L 357.674579 411.333556 
L 357.847888 406.86478 
L 361.353586 408.790938 
z
" style="fill:#808080;stroke:#808080;stroke-linecap:round;"/>
   </g>
   <g id="patch_22">
    <path clip-path="url(#pdd93ceadc3)" d="M 442.132842 256.955508 
Q 483.601512 174.440601 524.568138 92.92467 
" style="fill:none;stroke:#808080;stroke-linecap:round;"/>
    <path clip-path="url(#pdd93ceadc3)" d="M 520.984948 95.600627 
L 524.568138 92.92467 
L 524.55899 97.396796 
L 520.984948 95.600627 
z
" style="fill:#808080;stroke:#808080;stroke-linecap:round;"/>
   </g>
   <g id="patch_23">
    <path clip-path="url(#pdd93ceadc3)" d="M 437.28583 256.083932 
Q 426.889733 162.748862 416.617402 70.524954 
" style="fill:none;stroke:#808080;stroke-linecap:round;"/>
    <path clip-path="url(#pdd93ceadc3)" d="M 415.072495 74.721769 
L 416.617402 70.524954 
L 419.04791 74.278969 
L 415.072495 74.721769 
z
" style="fill:#808080;stroke:#808080;stroke-linecap:round;"/>
   </g>
   <g id="patch_24">
    <path clip-path="url(#pdd93ceadc3)" d="M 439.921933 256.194062 
Q 458.064758 164.270026 475.991096 73.442865 
" style="fill:none;stroke:#808080;stroke-linecap:round;"/>
    <path clip-path="url(#pdd93ceadc3)" d="M 473.254419 76.979897 
L 475.991096 73.442865 
L 477.178716 77.754426 
L 473.254419 76.979897 
z
" style="fill:#808080;stroke:#808080;stroke-linecap:round;"/>
   </g>
   <g id="patch_25">
    <path clip-path="url(#pdd93ceadc3)" d="M 597.307883 287.556442 
Q 487.385993 327.919923 378.513617 367.898021 
" style="fill:none;stroke:#808080;stroke-linecap:round;"/>
    <path clip-path="url(#pdd93ceadc3)" d="M 382.957867 368.39666 
L 378.513617 367.898021 
L 381.579078 364.641804 
L 382.957867 368.39666 
z
" style="fill:#808080;stroke:#808080;stroke-linecap:round;"/>
   </g>
   <g id="patch_26">
    <path clip-path="url(#pdd93ceadc3)" d="M 376.120376 192.790204 
Q 404.351019 225.464077 431.850711 257.291953 
" style="fill:none;stroke:#808080;stroke-linecap:round;"/>
    <path clip-path="url(#pdd93ceadc3)" d="M 430.748944 252.957659 
L 431.850711 257.291953 
L 427.722215 255.572791 
L 430.748944 252.957659 
z
" style="fill:#808080;stroke:#808080;stroke-linecap:round;"/>
   </g>
   <g id="patch_27">
    <path clip-path="url(#pdd93ceadc3)" d="M 369.811717 194.876184 
Q 361.712439 303.07135 353.696622 410.151602 
" style="fill:none;stroke:#808080;stroke-linecap:round;"/>
    <path clip-path="url(#pdd93ceadc3)" d="M 355.989638 406.312061 
L 353.696622 410.151602 
L 352.000799 406.013464 
L 355.989638 406.312061 
z
" style="fill:#808080;stroke:#808080;stroke-linecap:round;"/>
   </g>
   <g id="patch_28">
    <path clip-path="url(#pdd93ceadc3)" d="M 377.740588 181.548564 
Q 449.709682 135.212012 520.73873 89.480699 
" style="fill:none;stroke:#808080;stroke-linecap:round;"/>
    <path clip-path="url(#pdd93ceadc3)" d="M 516.292836 89.964462 
L 520.73873 89.480699 
L 518.458204 93.327672 
L 516.292836 89.964462 
z
" style="fill:#808080;stroke:#808080;stroke-linecap:round;"/>
   </g>
   <g id="patch_29">
    <path clip-path="url(#pdd93ceadc3)" d="M 373.387119 178.087572 
Q 392.996566 123.521368 412.2279 70.007318 
" style="fill:none;stroke:#808080;stroke-linecap:round;"/>
    <path clip-path="url(#pdd93ceadc3)" d="M 408.99297 73.095235 
L 412.2279 70.007318 
L 412.757275 74.448012 
L 408.99297 73.095235 
z
" style="fill:#808080;stroke:#808080;stroke-linecap:round;"/>
   </g>
   <g id="patch_30">
    <path clip-path="url(#pdd93ceadc3)" d="M 376.172646 179.727043 
Q 424.171366 125.043351 471.432547 71.199918 
" style="fill:none;stroke:#808080;stroke-linecap:round;"/>
    <path clip-path="url(#pdd93ceadc3)" d="M 467.290744 72.886771 
L 471.432547 71.199918 
L 470.296948 75.525471 
L 467.290744 72.886771 
z
" style="fill:#808080;stroke:#808080;stroke-linecap:round;"/>
   </g>
   <g id="patch_31">
    <path clip-path="url(#pdd93ceadc3)" d="M 315.406505 89.471186 
Q 198.345824 195.815051 82.112685 301.407135 
" style="fill:none;stroke:#808080;stroke-linecap:round;"/>
    <path clip-path="url(#pdd93ceadc3)" d="M 86.418215 300.197833 
L 82.112685 301.407135 
L 83.728561 297.23713 
L 86.418215 300.197833 
z
" style="fill:#808080;stroke:#808080;stroke-linecap:round;"/>
   </g>
   <g id="patch_32">
    <path clip-path="url(#pdd93ceadc3)" d="M 379.940678 411.748049 
Q 231.505642 361.260049 84.129087 311.132077 
" style="fill:none;stroke:#808080;stroke-linecap:round;"/>
    <path clip-path="url(#pdd93ceadc3)" d="M 87.271986 314.313614 
L 84.129087 311.132077 
L 88.560057 310.52668 
L 87.271986 314.313614 
z
" style="fill:#808080;stroke:#808080;stroke-linecap:round;"/>
   </g>
   <g id="patch_33">
    <path clip-path="url(#pdd93ceadc3)" d="M 264.029282 93.010009 
Q 172.116567 134.288478 81.223751 175.108905 
" style="fill:none;stroke:#808080;stroke-linecap:round;"/>
    <path clip-path="url(#pdd93ceadc3)" d="M 85.692029 175.294616 
L 81.223751 175.108905 
L 84.053287 171.645709 
L 85.692029 175.294616 
z
" style="fill:#808080;stroke:#808080;stroke-linecap:round;"/>
   </g>
   <g id="patch_34">
    <path clip-path="url(#pdd93ceadc3)" d="M 265.179444 94.885021 
Q 179.67781 163.585777 95.047723 231.586243 
" style="fill:none;stroke:#808080;stroke-linecap:round;"/>
    <path clip-path="url(#pdd93ceadc3)" d="M 99.41858 230.63988 
L 95.047723 231.586243 
L 96.913147 227.521739 
L 99.41858 230.63988 
z
" style="fill:#808080;stroke:#808080;stroke-linecap:round;"/>
   </g>
   <g id="patch_35">
    <path clip-path="url(#pdd93ceadc3)" d="M 280.499987 90.676979 
Q 426.013264 111.287474 570.419557 131.741176 
" style="fill:none;stroke:#808080;stroke-linecap:round;"/>
    <path clip-path="url(#pdd93ceadc3)" d="M 566.739567 129.19998 
L 570.419557 131.741176 
L 566.178607 133.16045 
L 566.739567 129.19998 
z
" style="fill:#808080;stroke:#808080;stroke-linecap:round;"/>
   </g>
   <g id="patch_36">
    <path clip-path="url(#pdd93ceadc3)" d="M 282.837547 198.063201 
Q 446.439297 203.844167 608.923711 209.58565 
" style="fill:none;stroke:#808080;stroke-linecap:round;"/>
    <path clip-path="url(#pdd93ceadc3)" d="M 604.996833 207.445644 
L 608.923711 209.58565 
L 604.855578 211.443149 
L 604.996833 207.445644 
z
" style="fill:#808080;stroke:#808080;stroke-linecap:round;"/>
   </g>
   <g id="patch_37">
    <path clip-path="url(#pdd93ceadc3)" d="M 413.657738 421.137053 
Q 513.158434 318.642317 611.880364 216.949781 
" style="fill:none;stroke:#808080;stroke-linecap:round;"/>
    <path clip-path="url(#pdd93ceadc3)" d="M 607.659148 218.426719 
L 611.880364 216.949781 
L 610.529184 221.212916 
L 607.659148 218.426719 
z
" style="fill:#808080;stroke:#808080;stroke-linecap:round;"/>
   </g>
   <g id="patch_38">
    <path clip-path="url(#pdd93ceadc3)" d="M 186.761004 85.344736 
Q 177.998178 92.742115 170.089677 99.418292 
" style="fill:none;stroke:#808080;stroke-linecap:round;"/>
    <path clip-path="url(#pdd93ceadc3)" d="M 174.436322 98.366307 
L 170.089677 99.418292 
L 171.856075 95.309785 
L 174.436322 98.366307 
z
" style="fill:#808080;stroke:#808080;stroke-linecap:round;"/>
   </g>
   <g id="patch_39">
    <path clip-path="url(#pdd93ceadc3)" d="M 241.232441 221.214811 
Q 240.107496 185.279317 239.017534 150.46131 
" style="fill:none;stroke:#808080;stroke-linecap:round;"/>
    <path clip-path="url(#pdd93ceadc3)" d="M 237.14367 154.52193 
L 239.017534 150.46131 
L 241.141712 154.396773 
L 237.14367 154.52193 
z
" style="fill:#808080;stroke:#808080;stroke-linecap:round;"/>
   </g>
   <g id="patch_40">
    <path clip-path="url(#pdd93ceadc3)" d="M 232.933984 231.119851 
Q 193.206777 236.902641 154.585944 242.524383 
" style="fill:none;stroke:#808080;stroke-linecap:round;"/>
    <path clip-path="url(#pdd93ceadc3)" d="M 158.832318 243.927348 
L 154.585944 242.524383 
L 158.25614 239.969063 
L 158.832318 243.927348 
z
" style="fill:#808080;stroke:#808080;stroke-linecap:round;"/>
   </g>
   <g id="patch_41">
    <path clip-path="url(#pdd93ceadc3)" d="M 249.348433 226.201052 
Q 260.477449 220.992731 270.593838 216.258314 
" style="fill:none;stroke:#808080;stroke-linecap:round;"/>
    <path clip-path="url(#pdd93ceadc3)" d="M 266.123205 216.142362 
L 270.593838 216.258314 
L 267.818697 219.765249 
L 266.123205 216.142362 
z
" style="fill:#808080;stroke:#808080;stroke-linecap:round;"/>
   </g>
   <g id="patch_42">
    <path clip-path="url(#pdd93ceadc3)" d="M 236.282137 222.961052 
Q 219.465815 200.701504 203.32343 179.334038 
" style="fill:none;stroke:#808080;stroke-linecap:round;"/>
    <path clip-path="url(#pdd93ceadc3)" d="M 204.138776 183.73122 
L 203.32343 179.334038 
L 207.330384 181.320071 
L 204.138776 183.73122 
z
" style="fill:#808080;stroke:#808080;stroke-linecap:round;"/>
   </g>
   <g id="patch_43">
    <path clip-path="url(#pdd93ceadc3)" d="M 238.053537 237.813851 
Q 232.476708 250.651162 227.345358 262.463024 
" style="fill:none;stroke:#808080;stroke-linecap:round;"/>
    <path clip-path="url(#pdd93ceadc3)" d="M 230.773535 259.59116 
L 227.345358 262.463024 
L 227.104773 257.997364 
L 230.773535 259.59116 
z
" style="fill:#808080;stroke:#808080;stroke-linecap:round;"/>
   </g>
   <g id="patch_44">
    <path clip-path="url(#pdd93ceadc3)" d="M 233.918043 225.69868 
Q 170.448812 190.775587 107.959122 156.391473 
" style="fill:none;stroke:#808080;stroke-linecap:round;"/>
    <path clip-path="url(#pdd93ceadc3)" d="M 110.49948 160.072041 
L 107.959122 156.391473 
L 112.427792 156.567528 
L 110.49948 160.072041 
z
" style="fill:#808080;stroke:#808080;stroke-linecap:round;"/>
   </g>
   <g id="patch_45">
    <path clip-path="url(#pdd93ceadc3)" d="M 197.892117 237.293507 
Q 216.617036 192.97844 234.906792 149.693244 
" style="fill:none;stroke:#808080;stroke-linecap:round;"/>
    <path clip-path="url(#pdd93ceadc3)" d="M 231.507619 152.599379 
L 234.906792 149.693244 
L 235.192197 154.156263 
L 231.507619 152.599379 
z
" style="fill:#808080;stroke:#808080;stroke-linecap:round;"/>
   </g>
   <g id="patch_46">
    <path clip-path="url(#pdd93ceadc3)" d="M 185.864336 245.036053 
Q 169.714295 244.601185 154.681882 244.196411 
" style="fill:none;stroke:#808080;stroke-linecap:round;"/>
    <path clip-path="url(#pdd93ceadc3)" d="M 158.626599 246.303354 
L 154.681882 244.196411 
L 158.734267 242.304803 
L 158.626599 246.303354 
z
" style="fill:#808080;stroke:#808080;stroke-linecap:round;"/>
   </g>
   <g id="patch_47">
    <path clip-path="url(#pdd93ceadc3)" d="M 202.590527 242.119272 
Q 236.987996 228.690581 270.343984 215.668482 
" style="fill:none;stroke:#808080;stroke-linecap:round;"/>
    <path clip-path="url(#pdd93ceadc3)" d="M 265.890534 215.26009 
L 270.343984 215.668482 
L 267.345201 218.986207 
L 265.890534 215.26009 
z
" style="fill:#808080;stroke:#808080;stroke-linecap:round;"/>
   </g>
   <g id="patch_48">
    <path clip-path="url(#pdd93ceadc3)" d="M 194.863399 236.614745 
Q 195.976107 208.401763 197.044754 181.305947 
" style="fill:none;stroke:#808080;stroke-linecap:round;"/>
    <path clip-path="url(#pdd93ceadc3)" d="M 194.888672 185.224022 
L 197.044754 181.305947 
L 198.885564 185.381658 
L 194.888672 185.224022 
z
" style="fill:#808080;stroke:#808080;stroke-linecap:round;"/>
   </g>
   <g id="patch_49">
    <path clip-path="url(#pdd93ceadc3)" d="M 200.945526 251.077736 
Q 208.9852 258.347798 216.19561 264.867979 
" style="fill:none;stroke:#808080;stroke-linecap:round;"/>
    <path clip-path="url(#pdd93ceadc3)" d="M 214.570174 260.701691 
L 216.19561 264.867979 
L 211.887318 263.668555 
L 214.570174 260.701691 
z
" style="fill:#808080;stroke:#808080;stroke-linecap:round;"/>
   </g>
   <g id="patch_50">
    <path clip-path="url(#pdd93ceadc3)" d="M 188.346866 239.193935 
Q 146.955752 198.472853 106.361632 158.535864 
" style="fill:none;stroke:#808080;stroke-linecap:round;"/>
    <path clip-path="url(#pdd93ceadc3)" d="M 107.810418 162.766823 
L 106.361632 158.535864 
L 110.615671 159.915411 
L 107.810418 162.766823 
z
" style="fill:#808080;stroke:#808080;stroke-linecap:round;"/>
   </g>
   <g id="patch_51">
    <path clip-path="url(#pdd93ceadc3)" d="M 232.886057 147.100462 
Q 191.808498 192.312032 151.482771 236.696106 
" style="fill:none;stroke:#808080;stroke-linecap:round;"/>
    <path clip-path="url(#pdd93ceadc3)" d="M 155.652876 235.080485 
L 151.482771 236.696106 
L 152.692338 232.39065 
L 155.652876 235.080485 
z
" style="fill:#808080;stroke:#808080;stroke-linecap:round;"/>
   </g>
   <g id="patch_52">
    <path clip-path="url(#pdd93ceadc3)" d="M 243.002235 148.210745 
Q 259.081414 176.399917 274.606644 203.617934 
" style="fill:none;stroke:#808080;stroke-linecap:round;"/>
    <path clip-path="url(#pdd93ceadc3)" d="M 274.362029 199.152493 
L 274.606644 203.617934 
L 270.887522 201.134361 
L 274.362029 199.152493 
z
" style="fill:#808080;stroke:#808080;stroke-linecap:round;"/>
   </g>
   <g id="patch_53">
    <path clip-path="url(#pdd93ceadc3)" d="M 231.775097 145.871446 
Q 218.070882 156.110941 205.262306 165.681234 
" style="fill:none;stroke:#808080;stroke-linecap:round;"/>
    <path clip-path="url(#pdd93ceadc3)" d="M 209.663745 164.889191 
L 205.262306 165.681234 
L 207.269535 161.684857 
L 209.663745 164.889191 
z
" style="fill:#808080;stroke:#808080;stroke-linecap:round;"/>
   </g>
   <g id="patch_54">
    <path clip-path="url(#pdd93ceadc3)" d="M 237.707957 149.286789 
Q 231.081152 206.057983 224.583973 261.718683 
" style="fill:none;stroke:#808080;stroke-linecap:round;"/>
    <path clip-path="url(#pdd93ceadc3)" d="M 227.03425 257.977541 
L 224.583973 261.718683 
L 223.061225 257.513777 
L 227.03425 257.977541 
z
" style="fill:#808080;stroke:#808080;stroke-linecap:round;"/>
   </g>
   <g id="patch_55">
    <path clip-path="url(#pdd93ceadc3)" d="M 230.07619 141.369621 
Q 169.04964 146.182146 109.137665 150.906776 
" style="fill:none;stroke:#808080;stroke-linecap:round;"/>
    <path clip-path="url(#pdd93ceadc3)" d="M 113.282516 152.586125 
L 109.137665 150.906776 
L 112.968054 148.598504 
L 113.282516 152.586125 
z
" style="fill:#808080;stroke:#808080;stroke-linecap:round;"/>
   </g>
   <g id="patch_56">
    <path clip-path="url(#pdd93ceadc3)" d="M 150.732949 237.52139 
Q 191.810508 192.30982 232.136235 147.925746 
" style="fill:none;stroke:#808080;stroke-linecap:round;"/>
    <path clip-path="url(#pdd93ceadc3)" d="M 227.96613 149.541366 
L 232.136235 147.925746 
L 230.926668 152.231202 
L 227.96613 149.541366 
z
" style="fill:#808080;stroke:#808080;stroke-linecap:round;"/>
   </g>
   <g id="patch_57">
    <path clip-path="url(#pdd93ceadc3)" d="M 153.336974 241.939578 
Q 212.182095 228.022402 269.939198 214.362548 
" style="fill:none;stroke:#808080;stroke-linecap:round;"/>
    <path clip-path="url(#pdd93ceadc3)" d="M 265.586271 213.336864 
L 269.939198 214.362548 
L 266.506895 217.229479 
L 265.586271 213.336864 
z
" style="fill:#808080;stroke:#808080;stroke-linecap:round;"/>
   </g>
   <g id="patch_58">
    <path clip-path="url(#pdd93ceadc3)" d="M 149.993302 236.92256 
Q 171.168207 207.734029 191.686594 179.450475 
" style="fill:none;stroke:#808080;stroke-linecap:round;"/>
    <path clip-path="url(#pdd93ceadc3)" d="M 187.71889 181.513804 
L 191.686594 179.450475 
L 190.956635 183.862635 
L 187.71889 181.513804 
z
" style="fill:#808080;stroke:#808080;stroke-linecap:round;"/>
   </g>
   <g id="patch_59">
    <path clip-path="url(#pdd93ceadc3)" d="M 153.083388 246.795344 
Q 184.180408 257.681329 214.222184 268.197908 
" style="fill:none;stroke:#808080;stroke-linecap:round;"/>
    <path clip-path="url(#pdd93ceadc3)" d="M 211.107637 264.988609 
L 214.222184 268.197908 
L 209.786016 268.763966 
L 211.107637 264.988609 
z
" style="fill:#808080;stroke:#808080;stroke-linecap:round;"/>
   </g>
   <g id="patch_60">
    <path clip-path="url(#pdd93ceadc3)" d="M 141.074799 236.165309 
Q 122.148158 197.804842 103.716206 160.447014 
" style="fill:none;stroke:#808080;stroke-linecap:round;"/>
    <path clip-path="url(#pdd93ceadc3)" d="M 103.692492 164.919087 
L 103.716206 160.447014 
L 107.279636 163.149228 
L 103.692492 164.919087 
z
" style="fill:#808080;stroke:#808080;stroke-linecap:round;"/>
   </g>
   <g id="patch_61">
    <path clip-path="url(#pdd93ceadc3)" d="M 275.161451 204.590593 
Q 259.082272 176.401421 243.557043 149.183403 
" style="fill:none;stroke:#808080;stroke-linecap:round;"/>
    <path clip-path="url(#pdd93ceadc3)" d="M 243.801657 153.648844 
L 243.557043 149.183403 
L 247.276164 151.666976 
L 243.801657 153.648844 
z
" style="fill:#808080;stroke:#808080;stroke-linecap:round;"/>
   </g>
   <g id="patch_62">
    <path clip-path="url(#pdd93ceadc3)" d="M 271.022509 214.106339 
Q 212.177388 228.023515 154.420285 241.683369 
" style="fill:none;stroke:#808080;stroke-linecap:round;"/>
    <path clip-path="url(#pdd93ceadc3)" d="M 158.773212 242.709053 
L 154.420285 241.683369 
L 157.852588 238.816438 
L 158.773212 242.709053 
z
" style="fill:#808080;stroke:#808080;stroke-linecap:round;"/>
   </g>
   <g id="patch_63">
    <path clip-path="url(#pdd93ceadc3)" d="M 271.689939 208.272462 
Q 238.440977 191.822886 206.194115 175.869088 
" style="fill:none;stroke:#808080;stroke-linecap:round;"/>
    <path clip-path="url(#pdd93ceadc3)" d="M 208.892461 179.435449 
L 206.194115 175.869088 
L 210.666212 175.850228 
L 208.892461 179.435449 
z
" style="fill:#808080;stroke:#808080;stroke-linecap:round;"/>
   </g>
   <g id="patch_64">
    <path clip-path="url(#pdd93ceadc3)" d="M 273.508073 218.408483 
Q 251.450569 241.771374 230.160596 264.321311 
" style="fill:none;stroke:#808080;stroke-linecap:round;"/>
    <path clip-path="url(#pdd93ceadc3)" d="M 234.360858 262.785798 
L 230.160596 264.321311 
L 231.452342 260.039794 
L 234.360858 262.785798 
z
" style="fill:#808080;stroke:#808080;stroke-linecap:round;"/>
   </g>
   <g id="patch_65">
    <path clip-path="url(#pdd93ceadc3)" d="M 271.239647 209.356254 
Q 189.419182 181.893778 108.65864 154.787057 
" style="fill:none;stroke:#808080;stroke-linecap:round;"/>
    <path clip-path="url(#pdd93ceadc3)" d="M 111.814342 157.955898 
L 108.65864 154.787057 
L 113.087133 154.1638 
L 111.814342 157.955898 
z
" style="fill:#808080;stroke:#808080;stroke-linecap:round;"/>
   </g>
   <g id="patch_66">
    <path clip-path="url(#pdd93ceadc3)" d="M 204.366693 166.350416 
Q 218.070908 156.110921 230.879485 146.540628 
" style="fill:none;stroke:#808080;stroke-linecap:round;"/>
    <path clip-path="url(#pdd93ceadc3)" d="M 226.478045 147.332671 
L 230.879485 146.540628 
L 228.872255 150.537005 
L 226.478045 147.332671 
z
" style="fill:#808080;stroke:#808080;stroke-linecap:round;"/>
   </g>
   <g id="patch_67">
    <path clip-path="url(#pdd93ceadc3)" d="M 192.344285 178.543881 
Q 171.16938 207.732413 150.650993 236.015967 
" style="fill:none;stroke:#808080;stroke-linecap:round;"/>
    <path clip-path="url(#pdd93ceadc3)" d="M 154.618696 233.952638 
L 150.650993 236.015967 
L 151.380952 231.603806 
L 154.618696 233.952638 
z
" style="fill:#808080;stroke:#808080;stroke-linecap:round;"/>
   </g>
   <g id="patch_68">
    <path clip-path="url(#pdd93ceadc3)" d="M 205.192328 175.373465 
Q 238.44129 191.823041 270.688152 207.776839 
" style="fill:none;stroke:#808080;stroke-linecap:round;"/>
    <path clip-path="url(#pdd93ceadc3)" d="M 267.989806 204.210478 
L 270.688152 207.776839 
L 266.216056 207.795699 
L 267.989806 204.210478 
z
" style="fill:#808080;stroke:#808080;stroke-linecap:round;"/>
   </g>
   <g id="patch_69">
    <path clip-path="url(#pdd93ceadc3)" d="M 199.613109 179.913717 
Q 210.440283 221.480473 220.985639 261.965296 
" style="fill:none;stroke:#808080;stroke-linecap:round;"/>
    <path clip-path="url(#pdd93ceadc3)" d="M 221.912795 257.590324 
L 220.985639 261.965296 
L 218.041954 258.598588 
L 221.912795 257.590324 
z
" style="fill:#808080;stroke:#808080;stroke-linecap:round;"/>
   </g>
   <g id="patch_70">
    <path clip-path="url(#pdd93ceadc3)" d="M 188.941895 169.813984 
Q 148.408098 161.604159 108.970085 153.616276 
" style="fill:none;stroke:#808080;stroke-linecap:round;"/>
    <path clip-path="url(#pdd93ceadc3)" d="M 112.493455 156.370521 
L 108.970085 153.616276 
L 113.287502 152.450127 
L 112.493455 156.370521 
z
" style="fill:#808080;stroke:#808080;stroke-linecap:round;"/>
   </g>
   <g id="patch_71">
    <path clip-path="url(#pdd93ceadc3)" d="M 224.454217 262.830292 
Q 231.081022 206.059098 237.578201 150.398398 
" style="fill:none;stroke:#808080;stroke-linecap:round;"/>
    <path clip-path="url(#pdd93ceadc3)" d="M 235.127924 154.13954 
L 237.578201 150.398398 
L 239.100949 154.603304 
L 235.127924 154.13954 
z
" style="fill:#808080;stroke:#808080;stroke-linecap:round;"/>
   </g>
   <g id="patch_72">
    <path clip-path="url(#pdd93ceadc3)" d="M 215.274582 268.566316 
Q 184.177562 257.680332 154.135787 247.163752 
" style="fill:none;stroke:#808080;stroke-linecap:round;"/>
    <path clip-path="url(#pdd93ceadc3)" d="M 157.250333 250.373052 
L 154.135787 247.163752 
L 158.571954 246.597695 
L 157.250333 250.373052 
z
" style="fill:#808080;stroke:#808080;stroke-linecap:round;"/>
   </g>
   <g id="patch_73">
    <path clip-path="url(#pdd93ceadc3)" d="M 229.394577 265.132664 
Q 251.452082 241.769772 272.742055 219.219835 
" style="fill:none;stroke:#808080;stroke-linecap:round;"/>
    <path clip-path="url(#pdd93ceadc3)" d="M 268.541793 220.755349 
L 272.742055 219.219835 
L 271.450309 223.501353 
L 268.541793 220.755349 
z
" style="fill:#808080;stroke:#808080;stroke-linecap:round;"/>
   </g>
   <g id="patch_74">
    <path clip-path="url(#pdd93ceadc3)" d="M 221.267646 263.047953 
Q 210.440472 221.481198 199.895116 180.996375 
" style="fill:none;stroke:#808080;stroke-linecap:round;"/>
    <path clip-path="url(#pdd93ceadc3)" d="M 198.96796 185.371347 
L 199.895116 180.996375 
L 202.8388 184.363083 
L 198.96796 185.371347 
z
" style="fill:#808080;stroke:#808080;stroke-linecap:round;"/>
   </g>
   <g id="patch_75">
    <path clip-path="url(#pdd93ceadc3)" d="M 217.220583 265.414855 
Q 161.420423 211.552886 106.42468 158.467392 
" style="fill:none;stroke:#808080;stroke-linecap:round;"/>
    <path clip-path="url(#pdd93ceadc3)" d="M 107.913646 162.684379 
L 106.42468 158.467392 
L 110.691649 159.806411 
L 107.913646 162.684379 
z
" style="fill:#808080;stroke:#808080;stroke-linecap:round;"/>
   </g>
   <g id="patch_76">
    <path clip-path="url(#pdd93ceadc3)" d="M 108.023896 150.994608 
Q 169.050445 146.182082 228.962421 141.457452 
" style="fill:none;stroke:#808080;stroke-linecap:round;"/>
    <path clip-path="url(#pdd93ceadc3)" d="M 224.81757 139.778104 
L 228.962421 141.457452 
L 225.132032 143.765724 
L 224.81757 139.778104 
z
" style="fill:#808080;stroke:#808080;stroke-linecap:round;"/>
   </g>
   <g id="patch_77">
    <path clip-path="url(#pdd93ceadc3)" d="M 103.221083 159.4435 
Q 122.147725 197.803966 140.579676 235.161795 
" style="fill:none;stroke:#808080;stroke-linecap:round;"/>
    <path clip-path="url(#pdd93ceadc3)" d="M 140.60339 230.689721 
L 140.579676 235.161795 
L 137.016246 232.45958 
L 140.60339 230.689721 
z
" style="fill:#808080;stroke:#808080;stroke-linecap:round;"/>
   </g>
   <g id="patch_78">
    <path clip-path="url(#pdd93ceadc3)" d="M 107.600916 154.432039 
Q 189.421381 181.894516 270.181923 209.001236 
" style="fill:none;stroke:#808080;stroke-linecap:round;"/>
    <path clip-path="url(#pdd93ceadc3)" d="M 267.026221 205.832396 
L 270.181923 209.001236 
L 265.75343 209.624494 
L 267.026221 205.832396 
z
" style="fill:#808080;stroke:#808080;stroke-linecap:round;"/>
   </g>
   <g id="patch_79">
    <path clip-path="url(#pdd93ceadc3)" d="M 107.876772 153.394834 
Q 148.410569 161.604659 187.848582 169.592542 
" style="fill:none;stroke:#808080;stroke-linecap:round;"/>
    <path clip-path="url(#pdd93ceadc3)" d="M 184.325212 166.838297 
L 187.848582 169.592542 
L 183.531164 170.758691 
L 184.325212 166.838297 
z
" style="fill:#808080;stroke:#808080;stroke-linecap:round;"/>
   </g>
   <g id="patch_80">
    <path clip-path="url(#pdd93ceadc3)" d="M 105.618467 157.689182 
Q 161.418627 211.551152 216.41437 264.636645 
" style="fill:none;stroke:#808080;stroke-linecap:round;"/>
    <path clip-path="url(#pdd93ceadc3)" d="M 214.925404 260.419658 
L 216.41437 264.636645 
L 212.147401 263.297626 
L 214.925404 260.419658 
z
" style="fill:#808080;stroke:#808080;stroke-linecap:round;"/>
   </g>
   <g id="PathCollection_1">
    <defs>
     <path d="M 0 11.18034 
C 2.965061 11.18034 5.80908 10.002309 7.905694 7.905694 
C 10.002309 5.80908 11.18034 2.965061 11.18034 -0 
C 11.18034 -2.965061 10.002309 -5.80908 7.905694 -7.905694 
C 5.80908 -10.002309 2.965061 -11.18034 0 -11.18034 
C -2.965061 -11.18034 -5.80908 -10.002309 -7.905694 -7.905694 
C -10.002309 -5.80908 -11.18034 -2.965061 -11.18034 0 
C -11.18034 2.965061 -10.002309 5.80908 -7.905694 7.905694 
C -5.80908 10.002309 -2.965061 11.18034 0 11.18034 
z
" id="C0_0_f3f8d3999a"/>
    </defs>
    <g clip-path="url(#pdd93ceadc3)">
     <use style="fill:#e9e9e9;stroke:#e9e9e9;" x="74.873222" xlink:href="#C0_0_f3f8d3999a" y="307.98383"/>
    </g>
    <g clip-path="url(#pdd93ceadc3)">
     <use style="fill:#717171;stroke:#717171;" x="65.305785" xlink:href="#C0_0_f3f8d3999a" y="265.62466"/>
    </g>
    <g clip-path="url(#pdd93ceadc3)">
     <use style="fill:#e9e9e9;stroke:#e9e9e9;" x="618.694215" xlink:href="#C0_0_f3f8d3999a" y="209.930897"/>
    </g>
    <g clip-path="url(#pdd93ceadc3)">
     <use style="fill:#dfdfdf;stroke:#dfdfdf;" x="596.55872" xlink:href="#C0_0_f3f8d3999a" y="344.977187"/>
    </g>
    <g clip-path="url(#pdd93ceadc3)">
     <use style="fill:#5f5f5f;stroke:#5f5f5f;" x="439.285417" xlink:href="#C0_0_f3f8d3999a" y="251.956399"/>
    </g>
    <g clip-path="url(#pdd93ceadc3)">
     <use style="fill:#cccccc;stroke:#cccccc;" x="369.334624" xlink:href="#C0_0_f3f8d3999a" y="371.26856"/>
    </g>
    <g clip-path="url(#pdd93ceadc3)">
     <use style="fill:#e9e9e9;stroke:#e9e9e9;" x="534.865812" xlink:href="#C0_0_f3f8d3999a" y="152.748424"/>
    </g>
    <g clip-path="url(#pdd93ceadc3)">
     <use style="fill:#8f8f8f;stroke:#8f8f8f;" x="362.522438" xlink:href="#C0_0_f3f8d3999a" y="159.082489"/>
    </g>
    <g clip-path="url(#pdd93ceadc3)">
     <use style="fill:#d3d3d3;stroke:#d3d3d3;" x="109.32497" xlink:href="#C0_0_f3f8d3999a" y="352.563756"/>
    </g>
    <g clip-path="url(#pdd93ceadc3)">
     <use style="fill:#dfdfdf;stroke:#dfdfdf;" x="252.876672" xlink:href="#C0_0_f3f8d3999a" y="395.568685"/>
    </g>
    <g clip-path="url(#pdd93ceadc3)">
     <use style="fill:#cccccc;stroke:#cccccc;" x="334.575918" xlink:href="#C0_0_f3f8d3999a" y="367.19933"/>
    </g>
    <g clip-path="url(#pdd93ceadc3)">
     <use style="fill:#f2f2f2;stroke:#f2f2f2;" x="533.259186" xlink:href="#C0_0_f3f8d3999a" y="392.653479"/>
    </g>
    <g clip-path="url(#pdd93ceadc3)">
     <use style="fill:#dfdfdf;stroke:#dfdfdf;" x="212.272837" xlink:href="#C0_0_f3f8d3999a" y="232.369911"/>
    </g>
    <g clip-path="url(#pdd93ceadc3)">
     <use style="fill:#e1e1e1;stroke:#e1e1e1;" x="246.48205" xlink:href="#C0_0_f3f8d3999a" y="65.978863"/>
    </g>
    <g clip-path="url(#pdd93ceadc3)">
     <use style="fill:#dfdfdf;stroke:#dfdfdf;" x="162.619398" xlink:href="#C0_0_f3f8d3999a" y="105.724533"/>
    </g>
    <g clip-path="url(#pdd93ceadc3)">
     <use style="fill:#e9e9e9;stroke:#e9e9e9;" x="388.559486" xlink:href="#C0_0_f3f8d3999a" y="186.490707"/>
    </g>
    <g clip-path="url(#pdd93ceadc3)">
     <use style="fill:#cdcdcd;stroke:#cdcdcd;" x="438.244665" xlink:href="#C0_0_f3f8d3999a" y="264.692253"/>
    </g>
    <g clip-path="url(#pdd93ceadc3)">
     <use style="fill:#f3f3f3;stroke:#f3f3f3;" x="415.534793" xlink:href="#C0_0_f3f8d3999a" y="60.805398"/>
    </g>
    <g clip-path="url(#pdd93ceadc3)">
     <use style="fill:#e9e9e9;stroke:#e9e9e9;" x="528.958637" xlink:href="#C0_0_f3f8d3999a" y="84.188398"/>
    </g>
    <g clip-path="url(#pdd93ceadc3)">
     <use style="fill:#f3f3f3;stroke:#f3f3f3;" x="477.884552" xlink:href="#C0_0_f3f8d3999a" y="63.849316"/>
    </g>
    <g clip-path="url(#pdd93ceadc3)">
     <use style="fill:#c3c3c3;stroke:#c3c3c3;" x="605.439106" xlink:href="#C0_0_f3f8d3999a" y="284.570644"/>
    </g>
    <g clip-path="url(#pdd93ceadc3)">
     <use style="fill:#e9e9e9;stroke:#e9e9e9;" x="352.96672" xlink:href="#C0_0_f3f8d3999a" y="419.902077"/>
    </g>
    <g clip-path="url(#pdd93ceadc3)">
     <use style="fill:#959595;stroke:#959595;" x="370.458421" xlink:href="#C0_0_f3f8d3999a" y="186.237112"/>
    </g>
    <g clip-path="url(#pdd93ceadc3)">
     <use style="fill:#eaeaea;stroke:#eaeaea;" x="560.236701" xlink:href="#C0_0_f3f8d3999a" y="348.241025"/>
    </g>
    <g clip-path="url(#pdd93ceadc3)">
     <use style="fill:#dddddd;stroke:#dddddd;" x="321.817887" xlink:href="#C0_0_f3f8d3999a" y="83.646761"/>
    </g>
    <g clip-path="url(#pdd93ceadc3)">
     <use style="fill:#dcdcdc;stroke:#dcdcdc;" x="388.140915" xlink:href="#C0_0_f3f8d3999a" y="414.537239"/>
    </g>
    <g clip-path="url(#pdd93ceadc3)">
     <use style="fill:#c2c2c2;stroke:#c2c2c2;" x="271.92768" xlink:href="#C0_0_f3f8d3999a" y="89.462798"/>
    </g>
    <g clip-path="url(#pdd93ceadc3)">
     <use style="fill:#e9e9e9;stroke:#e9e9e9;" x="596.188919" xlink:href="#C0_0_f3f8d3999a" y="176.32642"/>
    </g>
    <g clip-path="url(#pdd93ceadc3)">
     <use style="fill:#e9e9e9;stroke:#e9e9e9;" x="208.530917" xlink:href="#C0_0_f3f8d3999a" y="418.711729"/>
    </g>
    <g clip-path="url(#pdd93ceadc3)">
     <use style="fill:#dddddd;stroke:#dddddd;" x="274.182165" xlink:href="#C0_0_f3f8d3999a" y="197.757358"/>
    </g>
    <g clip-path="url(#pdd93ceadc3)">
     <use style="fill:#dcdcdc;stroke:#dcdcdc;" x="407.625453" xlink:href="#C0_0_f3f8d3999a" y="427.350852"/>
    </g>
    <g clip-path="url(#pdd93ceadc3)">
     <use style="fill:#ececec;stroke:#ececec;" x="72.302005" xlink:href="#C0_0_f3f8d3999a" y="179.115707"/>
    </g>
    <g clip-path="url(#pdd93ceadc3)">
     <use style="fill:#e9e9e9;stroke:#e9e9e9;" x="87.425226" xlink:href="#C0_0_f3f8d3999a" y="237.710936"/>
    </g>
    <g clip-path="url(#pdd93ceadc3)">
     <use style="fill:#e9e9e9;stroke:#e9e9e9;" x="580.098113" xlink:href="#C0_0_f3f8d3999a" y="133.112046"/>
    </g>
    <g clip-path="url(#pdd93ceadc3)">
     <use style="fill:#d2d2d2;stroke:#d2d2d2;" x="193.381264" xlink:href="#C0_0_f3f8d3999a" y="79.756062"/>
    </g>
    <g clip-path="url(#pdd93ceadc3)">
     <use style="fill:#d7d7d7;stroke:#d7d7d7;" x="241.503465" xlink:href="#C0_0_f3f8d3999a" y="229.872457"/>
    </g>
    <g clip-path="url(#pdd93ceadc3)">
     <use style="fill:#a7a7a7;stroke:#a7a7a7;" x="194.522072" xlink:href="#C0_0_f3f8d3999a" y="245.269178"/>
    </g>
    <g clip-path="url(#pdd93ceadc3)">
     <use style="fill:#eaeaea;stroke:#eaeaea;" x="238.711605" xlink:href="#C0_0_f3f8d3999a" y="140.688636"/>
    </g>
    <g clip-path="url(#pdd93ceadc3)">
     <use style="fill:#e3e3e3;stroke:#e3e3e3;" x="144.907401" xlink:href="#C0_0_f3f8d3999a" y="243.933216"/>
    </g>
    <g clip-path="url(#pdd93ceadc3)">
     <use style="fill:#eaeaea;stroke:#eaeaea;" x="279.452082" xlink:href="#C0_0_f3f8d3999a" y="212.112702"/>
    </g>
    <g clip-path="url(#pdd93ceadc3)">
     <use style="fill:#dedede;stroke:#dedede;" x="197.430185" xlink:href="#C0_0_f3f8d3999a" y="171.533226"/>
    </g>
    <g clip-path="url(#pdd93ceadc3)">
     <use style="fill:#a7a7a7;stroke:#a7a7a7;" x="223.450569" xlink:href="#C0_0_f3f8d3999a" y="271.428445"/>
    </g>
    <g clip-path="url(#pdd93ceadc3)">
     <use style="fill:#e3e3e3;stroke:#e3e3e3;" x="99.388481" xlink:href="#C0_0_f3f8d3999a" y="151.675592"/>
    </g>
    <g clip-path="url(#pdd93ceadc3)">
     <use style="fill:#e9e9e9;stroke:#e9e9e9;" x="584.595659" xlink:href="#C0_0_f3f8d3999a" y="303.286831"/>
    </g>
    <g clip-path="url(#pdd93ceadc3)">
     <use style="fill:#e9e9e9;stroke:#e9e9e9;" x="485.603021" xlink:href="#C0_0_f3f8d3999a" y="416.582586"/>
    </g>
   </g>
   <g id="text_1">
    <g clip-path="url(#pdd93ceadc3)">
     <!-- INADL -->
     <g transform="translate(59.601347 310.743205)scale(0.1 -0.1)">
      <defs>
       <path d="M 9.8125 72.90625 
L 19.671875 72.90625 
L 19.671875 0 
L 9.8125 0 
z
" id="DejaVuSans-73"/>
       <path d="M 9.8125 72.90625 
L 23.09375 72.90625 
L 55.421875 11.921875 
L 55.421875 72.90625 
L 64.984375 72.90625 
L 64.984375 0 
L 51.703125 0 
L 19.390625 60.984375 
L 19.390625 0 
L 9.8125 0 
z
" id="DejaVuSans-78"/>
       <path d="M 34.1875 63.1875 
L 20.796875 26.90625 
L 47.609375 26.90625 
z
M 28.609375 72.90625 
L 39.796875 72.90625 
L 67.578125 0 
L 57.328125 0 
L 50.6875 18.703125 
L 17.828125 18.703125 
L 11.1875 0 
L 0.78125 0 
z
" id="DejaVuSans-65"/>
       <path d="M 19.671875 64.796875 
L 19.671875 8.109375 
L 31.59375 8.109375 
Q 46.6875 8.109375 53.6875 14.9375 
Q 60.6875 21.78125 60.6875 36.53125 
Q 60.6875 51.171875 53.6875 57.984375 
Q 46.6875 64.796875 31.59375 64.796875 
z
M 9.8125 72.90625 
L 30.078125 72.90625 
Q 51.265625 72.90625 61.171875 64.09375 
Q 71.09375 55.28125 71.09375 36.53125 
Q 71.09375 17.671875 61.125 8.828125 
Q 51.171875 0 30.078125 0 
L 9.8125 0 
z
" id="DejaVuSans-68"/>
       <path d="M 9.8125 72.90625 
L 19.671875 72.90625 
L 19.671875 8.296875 
L 55.171875 8.296875 
L 55.171875 0 
L 9.8125 0 
z
" id="DejaVuSans-76"/>
      </defs>
      <use xlink:href="#DejaVuSans-73"/>
      <use x="29.492188" xlink:href="#DejaVuSans-78"/>
      <use x="104.296875" xlink:href="#DejaVuSans-65"/>
      <use x="172.705078" xlink:href="#DejaVuSans-68"/>
      <use x="249.707031" xlink:href="#DejaVuSans-76"/>
     </g>
    </g>
   </g>
   <g id="text_2">
    <g clip-path="url(#pdd93ceadc3)">
     <!-- CDC42 -->
     <g transform="translate(48.110473 268.384035)scale(0.1 -0.1)">
      <defs>
       <path d="M 64.40625 67.28125 
L 64.40625 56.890625 
Q 59.421875 61.53125 53.78125 63.8125 
Q 48.140625 66.109375 41.796875 66.109375 
Q 29.296875 66.109375 22.65625 58.46875 
Q 16.015625 50.828125 16.015625 36.375 
Q 16.015625 21.96875 22.65625 14.328125 
Q 29.296875 6.6875 41.796875 6.6875 
Q 48.140625 6.6875 53.78125 8.984375 
Q 59.421875 11.28125 64.40625 15.921875 
L 64.40625 5.609375 
Q 59.234375 2.09375 53.4375 0.328125 
Q 47.65625 -1.421875 41.21875 -1.421875 
Q 24.65625 -1.421875 15.125 8.703125 
Q 5.609375 18.84375 5.609375 36.375 
Q 5.609375 53.953125 15.125 64.078125 
Q 24.65625 74.21875 41.21875 74.21875 
Q 47.75 74.21875 53.53125 72.484375 
Q 59.328125 70.75 64.40625 67.28125 
z
" id="DejaVuSans-67"/>
       <path d="M 37.796875 64.3125 
L 12.890625 25.390625 
L 37.796875 25.390625 
z
M 35.203125 72.90625 
L 47.609375 72.90625 
L 47.609375 25.390625 
L 58.015625 25.390625 
L 58.015625 17.1875 
L 47.609375 17.1875 
L 47.609375 0 
L 37.796875 0 
L 37.796875 17.1875 
L 4.890625 17.1875 
L 4.890625 26.703125 
z
" id="DejaVuSans-52"/>
       <path d="M 19.1875 8.296875 
L 53.609375 8.296875 
L 53.609375 0 
L 7.328125 0 
L 7.328125 8.296875 
Q 12.9375 14.109375 22.625 23.890625 
Q 32.328125 33.6875 34.8125 36.53125 
Q 39.546875 41.84375 41.421875 45.53125 
Q 43.3125 49.21875 43.3125 52.78125 
Q 43.3125 58.59375 39.234375 62.25 
Q 35.15625 65.921875 28.609375 65.921875 
Q 23.96875 65.921875 18.8125 64.3125 
Q 13.671875 62.703125 7.8125 59.421875 
L 7.8125 69.390625 
Q 13.765625 71.78125 18.9375 73 
Q 24.125 74.21875 28.421875 74.21875 
Q 39.75 74.21875 46.484375 68.546875 
Q 53.21875 62.890625 53.21875 53.421875 
Q 53.21875 48.921875 51.53125 44.890625 
Q 49.859375 40.875 45.40625 35.40625 
Q 44.1875 33.984375 37.640625 27.21875 
Q 31.109375 20.453125 19.1875 8.296875 
z
" id="DejaVuSans-50"/>
      </defs>
      <use xlink:href="#DejaVuSans-67"/>
      <use x="69.824219" xlink:href="#DejaVuSans-68"/>
      <use x="146.826172" xlink:href="#DejaVuSans-67"/>
      <use x="216.650391" xlink:href="#DejaVuSans-52"/>
      <use x="280.273438" xlink:href="#DejaVuSans-50"/>
     </g>
    </g>
   </g>
   <g id="text_3">
    <g clip-path="url(#pdd93ceadc3)">
     <!-- STK11 -->
     <g transform="translate(602.824684 212.690272)scale(0.1 -0.1)">
      <defs>
       <path d="M 53.515625 70.515625 
L 53.515625 60.890625 
Q 47.90625 63.578125 42.921875 64.890625 
Q 37.9375 66.21875 33.296875 66.21875 
Q 25.25 66.21875 20.875 63.09375 
Q 16.5 59.96875 16.5 54.203125 
Q 16.5 49.359375 19.40625 46.890625 
Q 22.3125 44.4375 30.421875 42.921875 
L 36.375 41.703125 
Q 47.40625 39.59375 52.65625 34.296875 
Q 57.90625 29 57.90625 20.125 
Q 57.90625 9.515625 50.796875 4.046875 
Q 43.703125 -1.421875 29.984375 -1.421875 
Q 24.8125 -1.421875 18.96875 -0.25 
Q 13.140625 0.921875 6.890625 3.21875 
L 6.890625 13.375 
Q 12.890625 10.015625 18.65625 8.296875 
Q 24.421875 6.59375 29.984375 6.59375 
Q 38.421875 6.59375 43.015625 9.90625 
Q 47.609375 13.234375 47.609375 19.390625 
Q 47.609375 24.75 44.3125 27.78125 
Q 41.015625 30.8125 33.5 32.328125 
L 27.484375 33.5 
Q 16.453125 35.6875 11.515625 40.375 
Q 6.59375 45.0625 6.59375 53.421875 
Q 6.59375 63.09375 13.40625 68.65625 
Q 20.21875 74.21875 32.171875 74.21875 
Q 37.3125 74.21875 42.625 73.28125 
Q 47.953125 72.359375 53.515625 70.515625 
z
" id="DejaVuSans-83"/>
       <path d="M -0.296875 72.90625 
L 61.375 72.90625 
L 61.375 64.59375 
L 35.5 64.59375 
L 35.5 0 
L 25.59375 0 
L 25.59375 64.59375 
L -0.296875 64.59375 
z
" id="DejaVuSans-84"/>
       <path d="M 9.8125 72.90625 
L 19.671875 72.90625 
L 19.671875 42.09375 
L 52.390625 72.90625 
L 65.09375 72.90625 
L 28.90625 38.921875 
L 67.671875 0 
L 54.6875 0 
L 19.671875 35.109375 
L 19.671875 0 
L 9.8125 0 
z
" id="DejaVuSans-75"/>
       <path d="M 12.40625 8.296875 
L 28.515625 8.296875 
L 28.515625 63.921875 
L 10.984375 60.40625 
L 10.984375 69.390625 
L 28.421875 72.90625 
L 38.28125 72.90625 
L 38.28125 8.296875 
L 54.390625 8.296875 
L 54.390625 0 
L 12.40625 0 
z
" id="DejaVuSans-49"/>
      </defs>
      <use xlink:href="#DejaVuSans-83"/>
      <use x="63.476562" xlink:href="#DejaVuSans-84"/>
      <use x="124.560547" xlink:href="#DejaVuSans-75"/>
      <use x="190.136719" xlink:href="#DejaVuSans-49"/>
      <use x="253.759766" xlink:href="#DejaVuSans-49"/>
     </g>
    </g>
   </g>
   <g id="text_4">
    <g clip-path="url(#pdd93ceadc3)">
     <!-- TIAM1 -->
     <g transform="translate(581.114189 347.736562)scale(0.1 -0.1)">
      <defs>
       <path d="M 9.8125 72.90625 
L 24.515625 72.90625 
L 43.109375 23.296875 
L 61.8125 72.90625 
L 76.515625 72.90625 
L 76.515625 0 
L 66.890625 0 
L 66.890625 64.015625 
L 48.09375 14.015625 
L 38.1875 14.015625 
L 19.390625 64.015625 
L 19.390625 0 
L 9.8125 0 
z
" id="DejaVuSans-77"/>
      </defs>
      <use xlink:href="#DejaVuSans-84"/>
      <use x="61.083984" xlink:href="#DejaVuSans-73"/>
      <use x="90.576172" xlink:href="#DejaVuSans-65"/>
      <use x="158.984375" xlink:href="#DejaVuSans-77"/>
      <use x="245.263672" xlink:href="#DejaVuSans-49"/>
     </g>
    </g>
   </g>
   <g id="text_5">
    <g clip-path="url(#pdd93ceadc3)">
     <!-- ARHGAP17 -->
     <g transform="translate(411.958855 254.715774)scale(0.1 -0.1)">
      <defs>
       <path d="M 44.390625 34.1875 
Q 47.5625 33.109375 50.5625 29.59375 
Q 53.5625 26.078125 56.59375 19.921875 
L 66.609375 0 
L 56 0 
L 46.6875 18.703125 
Q 43.0625 26.03125 39.671875 28.421875 
Q 36.28125 30.8125 30.421875 30.8125 
L 19.671875 30.8125 
L 19.671875 0 
L 9.8125 0 
L 9.8125 72.90625 
L 32.078125 72.90625 
Q 44.578125 72.90625 50.734375 67.671875 
Q 56.890625 62.453125 56.890625 51.90625 
Q 56.890625 45.015625 53.6875 40.46875 
Q 50.484375 35.9375 44.390625 34.1875 
z
M 19.671875 64.796875 
L 19.671875 38.921875 
L 32.078125 38.921875 
Q 39.203125 38.921875 42.84375 42.21875 
Q 46.484375 45.515625 46.484375 51.90625 
Q 46.484375 58.296875 42.84375 61.546875 
Q 39.203125 64.796875 32.078125 64.796875 
z
" id="DejaVuSans-82"/>
       <path d="M 9.8125 72.90625 
L 19.671875 72.90625 
L 19.671875 43.015625 
L 55.515625 43.015625 
L 55.515625 72.90625 
L 65.375 72.90625 
L 65.375 0 
L 55.515625 0 
L 55.515625 34.71875 
L 19.671875 34.71875 
L 19.671875 0 
L 9.8125 0 
z
" id="DejaVuSans-72"/>
       <path d="M 59.515625 10.40625 
L 59.515625 29.984375 
L 43.40625 29.984375 
L 43.40625 38.09375 
L 69.28125 38.09375 
L 69.28125 6.78125 
Q 63.578125 2.734375 56.6875 0.65625 
Q 49.8125 -1.421875 42 -1.421875 
Q 24.90625 -1.421875 15.25 8.5625 
Q 5.609375 18.5625 5.609375 36.375 
Q 5.609375 54.25 15.25 64.234375 
Q 24.90625 74.21875 42 74.21875 
Q 49.125 74.21875 55.546875 72.453125 
Q 61.96875 70.703125 67.390625 67.28125 
L 67.390625 56.78125 
Q 61.921875 61.421875 55.765625 63.765625 
Q 49.609375 66.109375 42.828125 66.109375 
Q 29.4375 66.109375 22.71875 58.640625 
Q 16.015625 51.171875 16.015625 36.375 
Q 16.015625 21.625 22.71875 14.15625 
Q 29.4375 6.6875 42.828125 6.6875 
Q 48.046875 6.6875 52.140625 7.59375 
Q 56.25 8.5 59.515625 10.40625 
z
" id="DejaVuSans-71"/>
       <path d="M 19.671875 64.796875 
L 19.671875 37.40625 
L 32.078125 37.40625 
Q 38.96875 37.40625 42.71875 40.96875 
Q 46.484375 44.53125 46.484375 51.125 
Q 46.484375 57.671875 42.71875 61.234375 
Q 38.96875 64.796875 32.078125 64.796875 
z
M 9.8125 72.90625 
L 32.078125 72.90625 
Q 44.34375 72.90625 50.609375 67.359375 
Q 56.890625 61.8125 56.890625 51.125 
Q 56.890625 40.328125 50.609375 34.8125 
Q 44.34375 29.296875 32.078125 29.296875 
L 19.671875 29.296875 
L 19.671875 0 
L 9.8125 0 
z
" id="DejaVuSans-80"/>
       <path d="M 8.203125 72.90625 
L 55.078125 72.90625 
L 55.078125 68.703125 
L 28.609375 0 
L 18.3125 0 
L 43.21875 64.59375 
L 8.203125 64.59375 
z
" id="DejaVuSans-55"/>
      </defs>
      <use xlink:href="#DejaVuSans-65"/>
      <use x="68.408203" xlink:href="#DejaVuSans-82"/>
      <use x="137.890625" xlink:href="#DejaVuSans-72"/>
      <use x="213.085938" xlink:href="#DejaVuSans-71"/>
      <use x="290.576172" xlink:href="#DejaVuSans-65"/>
      <use x="358.984375" xlink:href="#DejaVuSans-80"/>
      <use x="419.287109" xlink:href="#DejaVuSans-49"/>
      <use x="482.910156" xlink:href="#DejaVuSans-55"/>
     </g>
    </g>
   </g>
   <g id="text_6">
    <g clip-path="url(#pdd93ceadc3)">
     <!-- RHOA -->
     <g transform="translate(354.831499 374.027935)scale(0.1 -0.1)">
      <defs>
       <path d="M 39.40625 66.21875 
Q 28.65625 66.21875 22.328125 58.203125 
Q 16.015625 50.203125 16.015625 36.375 
Q 16.015625 22.609375 22.328125 14.59375 
Q 28.65625 6.59375 39.40625 6.59375 
Q 50.140625 6.59375 56.421875 14.59375 
Q 62.703125 22.609375 62.703125 36.375 
Q 62.703125 50.203125 56.421875 58.203125 
Q 50.140625 66.21875 39.40625 66.21875 
z
M 39.40625 74.21875 
Q 54.734375 74.21875 63.90625 63.9375 
Q 73.09375 53.65625 73.09375 36.375 
Q 73.09375 19.140625 63.90625 8.859375 
Q 54.734375 -1.421875 39.40625 -1.421875 
Q 24.03125 -1.421875 14.8125 8.828125 
Q 5.609375 19.09375 5.609375 36.375 
Q 5.609375 53.65625 14.8125 63.9375 
Q 24.03125 74.21875 39.40625 74.21875 
z
" id="DejaVuSans-79"/>
      </defs>
      <use xlink:href="#DejaVuSans-82"/>
      <use x="69.482422" xlink:href="#DejaVuSans-72"/>
      <use x="144.677734" xlink:href="#DejaVuSans-79"/>
      <use x="221.638672" xlink:href="#DejaVuSans-65"/>
     </g>
    </g>
   </g>
   <g id="text_7">
    <g clip-path="url(#pdd93ceadc3)">
     <!-- RAC1 -->
     <g transform="translate(521.586124 155.507799)scale(0.1 -0.1)">
      <use xlink:href="#DejaVuSans-82"/>
      <use x="65.482422" xlink:href="#DejaVuSans-65"/>
      <use x="132.140625" xlink:href="#DejaVuSans-67"/>
      <use x="201.964844" xlink:href="#DejaVuSans-49"/>
     </g>
    </g>
   </g>
   <g id="text_8">
    <g clip-path="url(#pdd93ceadc3)">
     <!-- F11R -->
     <g transform="translate(349.809938 161.841864)scale(0.1 -0.1)">
      <defs>
       <path d="M 9.8125 72.90625 
L 51.703125 72.90625 
L 51.703125 64.59375 
L 19.671875 64.59375 
L 19.671875 43.109375 
L 48.578125 43.109375 
L 48.578125 34.8125 
L 19.671875 34.8125 
L 19.671875 0 
L 9.8125 0 
z
" id="DejaVuSans-70"/>
      </defs>
      <use xlink:href="#DejaVuSans-70"/>
      <use x="57.519531" xlink:href="#DejaVuSans-49"/>
      <use x="121.142578" xlink:href="#DejaVuSans-49"/>
      <use x="184.765625" xlink:href="#DejaVuSans-82"/>
     </g>
    </g>
   </g>
   <g id="text_9">
    <g clip-path="url(#pdd93ceadc3)">
     <!-- RAPGEF6 -->
     <g transform="translate(86.52497 355.323131)scale(0.1 -0.1)">
      <defs>
       <path d="M 9.8125 72.90625 
L 55.90625 72.90625 
L 55.90625 64.59375 
L 19.671875 64.59375 
L 19.671875 43.015625 
L 54.390625 43.015625 
L 54.390625 34.71875 
L 19.671875 34.71875 
L 19.671875 8.296875 
L 56.78125 8.296875 
L 56.78125 0 
L 9.8125 0 
z
" id="DejaVuSans-69"/>
       <path d="M 33.015625 40.375 
Q 26.375 40.375 22.484375 35.828125 
Q 18.609375 31.296875 18.609375 23.390625 
Q 18.609375 15.53125 22.484375 10.953125 
Q 26.375 6.390625 33.015625 6.390625 
Q 39.65625 6.390625 43.53125 10.953125 
Q 47.40625 15.53125 47.40625 23.390625 
Q 47.40625 31.296875 43.53125 35.828125 
Q 39.65625 40.375 33.015625 40.375 
z
M 52.59375 71.296875 
L 52.59375 62.3125 
Q 48.875 64.0625 45.09375 64.984375 
Q 41.3125 65.921875 37.59375 65.921875 
Q 27.828125 65.921875 22.671875 59.328125 
Q 17.53125 52.734375 16.796875 39.40625 
Q 19.671875 43.65625 24.015625 45.921875 
Q 28.375 48.1875 33.59375 48.1875 
Q 44.578125 48.1875 50.953125 41.515625 
Q 57.328125 34.859375 57.328125 23.390625 
Q 57.328125 12.15625 50.6875 5.359375 
Q 44.046875 -1.421875 33.015625 -1.421875 
Q 20.359375 -1.421875 13.671875 8.265625 
Q 6.984375 17.96875 6.984375 36.375 
Q 6.984375 53.65625 15.1875 63.9375 
Q 23.390625 74.21875 37.203125 74.21875 
Q 40.921875 74.21875 44.703125 73.484375 
Q 48.484375 72.75 52.59375 71.296875 
z
" id="DejaVuSans-54"/>
      </defs>
      <use xlink:href="#DejaVuSans-82"/>
      <use x="65.482422" xlink:href="#DejaVuSans-65"/>
      <use x="133.890625" xlink:href="#DejaVuSans-80"/>
      <use x="194.193359" xlink:href="#DejaVuSans-71"/>
      <use x="271.683594" xlink:href="#DejaVuSans-69"/>
      <use x="334.867188" xlink:href="#DejaVuSans-70"/>
      <use x="392.386719" xlink:href="#DejaVuSans-54"/>
     </g>
    </g>
   </g>
   <g id="text_10">
    <g clip-path="url(#pdd93ceadc3)">
     <!-- RAP1A -->
     <g transform="translate(236.565734 398.32806)scale(0.1 -0.1)">
      <use xlink:href="#DejaVuSans-82"/>
      <use x="65.482422" xlink:href="#DejaVuSans-65"/>
      <use x="133.890625" xlink:href="#DejaVuSans-80"/>
      <use x="194.193359" xlink:href="#DejaVuSans-49"/>
      <use x="257.816406" xlink:href="#DejaVuSans-65"/>
     </g>
    </g>
   </g>
   <g id="text_11">
    <g clip-path="url(#pdd93ceadc3)">
     <!-- MICALL2 -->
     <g transform="translate(313.122012 369.958705)scale(0.1 -0.1)">
      <use xlink:href="#DejaVuSans-77"/>
      <use x="86.279297" xlink:href="#DejaVuSans-73"/>
      <use x="115.771484" xlink:href="#DejaVuSans-67"/>
      <use x="185.595703" xlink:href="#DejaVuSans-65"/>
      <use x="254.003906" xlink:href="#DejaVuSans-76"/>
      <use x="309.716797" xlink:href="#DejaVuSans-76"/>
      <use x="365.429688" xlink:href="#DejaVuSans-50"/>
     </g>
    </g>
   </g>
   <g id="text_12">
    <g clip-path="url(#pdd93ceadc3)">
     <!-- MAP2K7 -->
     <g transform="translate(512.868561 395.412854)scale(0.1 -0.1)">
      <use xlink:href="#DejaVuSans-77"/>
      <use x="86.279297" xlink:href="#DejaVuSans-65"/>
      <use x="154.6875" xlink:href="#DejaVuSans-80"/>
      <use x="214.990234" xlink:href="#DejaVuSans-50"/>
      <use x="278.613281" xlink:href="#DejaVuSans-75"/>
      <use x="344.189453" xlink:href="#DejaVuSans-55"/>
     </g>
    </g>
   </g>
   <g id="text_13">
    <g clip-path="url(#pdd93ceadc3)">
     <!-- MAP3K5 -->
     <g transform="translate(191.882212 235.129286)scale(0.1 -0.1)">
      <defs>
       <path d="M 40.578125 39.3125 
Q 47.65625 37.796875 51.625 33 
Q 55.609375 28.21875 55.609375 21.1875 
Q 55.609375 10.40625 48.1875 4.484375 
Q 40.765625 -1.421875 27.09375 -1.421875 
Q 22.515625 -1.421875 17.65625 -0.515625 
Q 12.796875 0.390625 7.625 2.203125 
L 7.625 11.71875 
Q 11.71875 9.328125 16.59375 8.109375 
Q 21.484375 6.890625 26.8125 6.890625 
Q 36.078125 6.890625 40.9375 10.546875 
Q 45.796875 14.203125 45.796875 21.1875 
Q 45.796875 27.640625 41.28125 31.265625 
Q 36.765625 34.90625 28.71875 34.90625 
L 20.21875 34.90625 
L 20.21875 43.015625 
L 29.109375 43.015625 
Q 36.375 43.015625 40.234375 45.921875 
Q 44.09375 48.828125 44.09375 54.296875 
Q 44.09375 59.90625 40.109375 62.90625 
Q 36.140625 65.921875 28.71875 65.921875 
Q 24.65625 65.921875 20.015625 65.03125 
Q 15.375 64.15625 9.8125 62.3125 
L 9.8125 71.09375 
Q 15.4375 72.65625 20.34375 73.4375 
Q 25.25 74.21875 29.59375 74.21875 
Q 40.828125 74.21875 47.359375 69.109375 
Q 53.90625 64.015625 53.90625 55.328125 
Q 53.90625 49.265625 50.4375 45.09375 
Q 46.96875 40.921875 40.578125 39.3125 
z
" id="DejaVuSans-51"/>
       <path d="M 10.796875 72.90625 
L 49.515625 72.90625 
L 49.515625 64.59375 
L 19.828125 64.59375 
L 19.828125 46.734375 
Q 21.96875 47.46875 24.109375 47.828125 
Q 26.265625 48.1875 28.421875 48.1875 
Q 40.625 48.1875 47.75 41.5 
Q 54.890625 34.8125 54.890625 23.390625 
Q 54.890625 11.625 47.5625 5.09375 
Q 40.234375 -1.421875 26.90625 -1.421875 
Q 22.3125 -1.421875 17.546875 -0.640625 
Q 12.796875 0.140625 7.71875 1.703125 
L 7.71875 11.625 
Q 12.109375 9.234375 16.796875 8.0625 
Q 21.484375 6.890625 26.703125 6.890625 
Q 35.15625 6.890625 40.078125 11.328125 
Q 45.015625 15.765625 45.015625 23.390625 
Q 45.015625 31 40.078125 35.4375 
Q 35.15625 39.890625 26.703125 39.890625 
Q 22.75 39.890625 18.8125 39.015625 
Q 14.890625 38.140625 10.796875 36.28125 
z
" id="DejaVuSans-53"/>
      </defs>
      <use xlink:href="#DejaVuSans-77"/>
      <use x="86.279297" xlink:href="#DejaVuSans-65"/>
      <use x="154.6875" xlink:href="#DejaVuSans-80"/>
      <use x="214.990234" xlink:href="#DejaVuSans-51"/>
      <use x="278.613281" xlink:href="#DejaVuSans-75"/>
      <use x="344.189453" xlink:href="#DejaVuSans-53"/>
     </g>
    </g>
   </g>
   <g id="text_14">
    <g clip-path="url(#pdd93ceadc3)">
     <!-- SLC9A3R1 -->
     <g transform="translate(220.592206 68.738238)scale(0.1 -0.1)">
      <defs>
       <path d="M 10.984375 1.515625 
L 10.984375 10.5 
Q 14.703125 8.734375 18.5 7.8125 
Q 22.3125 6.890625 25.984375 6.890625 
Q 35.75 6.890625 40.890625 13.453125 
Q 46.046875 20.015625 46.78125 33.40625 
Q 43.953125 29.203125 39.59375 26.953125 
Q 35.25 24.703125 29.984375 24.703125 
Q 19.046875 24.703125 12.671875 31.3125 
Q 6.296875 37.9375 6.296875 49.421875 
Q 6.296875 60.640625 12.9375 67.421875 
Q 19.578125 74.21875 30.609375 74.21875 
Q 43.265625 74.21875 49.921875 64.515625 
Q 56.59375 54.828125 56.59375 36.375 
Q 56.59375 19.140625 48.40625 8.859375 
Q 40.234375 -1.421875 26.421875 -1.421875 
Q 22.703125 -1.421875 18.890625 -0.6875 
Q 15.09375 0.046875 10.984375 1.515625 
z
M 30.609375 32.421875 
Q 37.25 32.421875 41.125 36.953125 
Q 45.015625 41.5 45.015625 49.421875 
Q 45.015625 57.28125 41.125 61.84375 
Q 37.25 66.40625 30.609375 66.40625 
Q 23.96875 66.40625 20.09375 61.84375 
Q 16.21875 57.28125 16.21875 49.421875 
Q 16.21875 41.5 20.09375 36.953125 
Q 23.96875 32.421875 30.609375 32.421875 
z
" id="DejaVuSans-57"/>
      </defs>
      <use xlink:href="#DejaVuSans-83"/>
      <use x="63.476562" xlink:href="#DejaVuSans-76"/>
      <use x="119.189453" xlink:href="#DejaVuSans-67"/>
      <use x="189.013672" xlink:href="#DejaVuSans-57"/>
      <use x="252.636719" xlink:href="#DejaVuSans-65"/>
      <use x="321.044922" xlink:href="#DejaVuSans-51"/>
      <use x="384.667969" xlink:href="#DejaVuSans-82"/>
      <use x="454.150391" xlink:href="#DejaVuSans-49"/>
     </g>
    </g>
   </g>
   <g id="text_15">
    <g clip-path="url(#pdd93ceadc3)">
     <!-- RAPGEF2 -->
     <g transform="translate(139.819398 108.483908)scale(0.1 -0.1)">
      <use xlink:href="#DejaVuSans-82"/>
      <use x="65.482422" xlink:href="#DejaVuSans-65"/>
      <use x="133.890625" xlink:href="#DejaVuSans-80"/>
      <use x="194.193359" xlink:href="#DejaVuSans-71"/>
      <use x="271.683594" xlink:href="#DejaVuSans-69"/>
      <use x="334.867188" xlink:href="#DejaVuSans-70"/>
      <use x="392.386719" xlink:href="#DejaVuSans-50"/>
     </g>
    </g>
   </g>
   <g id="text_16">
    <g clip-path="url(#pdd93ceadc3)">
     <!-- RAP2C -->
     <g transform="translate(372.177454 189.250082)scale(0.1 -0.1)">
      <use xlink:href="#DejaVuSans-82"/>
      <use x="65.482422" xlink:href="#DejaVuSans-65"/>
      <use x="133.890625" xlink:href="#DejaVuSans-80"/>
      <use x="194.193359" xlink:href="#DejaVuSans-50"/>
      <use x="257.816406" xlink:href="#DejaVuSans-67"/>
     </g>
    </g>
   </g>
   <g id="text_17">
    <g clip-path="url(#pdd93ceadc3)">
     <!-- CDK4 -->
     <g transform="translate(424.443103 267.451628)scale(0.1 -0.1)">
      <use xlink:href="#DejaVuSans-67"/>
      <use x="69.824219" xlink:href="#DejaVuSans-68"/>
      <use x="146.826172" xlink:href="#DejaVuSans-75"/>
      <use x="212.402344" xlink:href="#DejaVuSans-52"/>
     </g>
    </g>
   </g>
   <g id="text_18">
    <g clip-path="url(#pdd93ceadc3)">
     <!-- ERBB2 -->
     <g transform="translate(398.859011 63.564773)scale(0.1 -0.1)">
      <defs>
       <path d="M 19.671875 34.8125 
L 19.671875 8.109375 
L 35.5 8.109375 
Q 43.453125 8.109375 47.28125 11.40625 
Q 51.125 14.703125 51.125 21.484375 
Q 51.125 28.328125 47.28125 31.5625 
Q 43.453125 34.8125 35.5 34.8125 
z
M 19.671875 64.796875 
L 19.671875 42.828125 
L 34.28125 42.828125 
Q 41.5 42.828125 45.03125 45.53125 
Q 48.578125 48.25 48.578125 53.8125 
Q 48.578125 59.328125 45.03125 62.0625 
Q 41.5 64.796875 34.28125 64.796875 
z
M 9.8125 72.90625 
L 35.015625 72.90625 
Q 46.296875 72.90625 52.390625 68.21875 
Q 58.5 63.53125 58.5 54.890625 
Q 58.5 48.1875 55.375 44.234375 
Q 52.25 40.28125 46.1875 39.3125 
Q 53.46875 37.75 57.5 32.78125 
Q 61.53125 27.828125 61.53125 20.40625 
Q 61.53125 10.640625 54.890625 5.3125 
Q 48.25 0 35.984375 0 
L 9.8125 0 
z
" id="DejaVuSans-66"/>
      </defs>
      <use xlink:href="#DejaVuSans-69"/>
      <use x="63.183594" xlink:href="#DejaVuSans-82"/>
      <use x="132.666016" xlink:href="#DejaVuSans-66"/>
      <use x="201.269531" xlink:href="#DejaVuSans-66"/>
      <use x="269.873047" xlink:href="#DejaVuSans-50"/>
     </g>
    </g>
   </g>
   <g id="text_19">
    <g clip-path="url(#pdd93ceadc3)">
     <!-- PCNA -->
     <g transform="translate(515.291449 86.947773)scale(0.1 -0.1)">
      <use xlink:href="#DejaVuSans-80"/>
      <use x="60.302734" xlink:href="#DejaVuSans-67"/>
      <use x="130.126953" xlink:href="#DejaVuSans-78"/>
      <use x="204.931641" xlink:href="#DejaVuSans-65"/>
     </g>
    </g>
   </g>
   <g id="text_20">
    <g clip-path="url(#pdd93ceadc3)">
     <!-- RUNX1 -->
     <g transform="translate(460.404083 66.608691)scale(0.1 -0.1)">
      <defs>
       <path d="M 8.6875 72.90625 
L 18.609375 72.90625 
L 18.609375 28.609375 
Q 18.609375 16.890625 22.84375 11.734375 
Q 27.09375 6.59375 36.625 6.59375 
Q 46.09375 6.59375 50.34375 11.734375 
Q 54.59375 16.890625 54.59375 28.609375 
L 54.59375 72.90625 
L 64.5 72.90625 
L 64.5 27.390625 
Q 64.5 13.140625 57.4375 5.859375 
Q 50.390625 -1.421875 36.625 -1.421875 
Q 22.796875 -1.421875 15.734375 5.859375 
Q 8.6875 13.140625 8.6875 27.390625 
z
" id="DejaVuSans-85"/>
       <path d="M 6.296875 72.90625 
L 16.890625 72.90625 
L 35.015625 45.796875 
L 53.21875 72.90625 
L 63.8125 72.90625 
L 40.375 37.890625 
L 65.375 0 
L 54.78125 0 
L 34.28125 31 
L 13.625 0 
L 2.984375 0 
L 29 38.921875 
z
" id="DejaVuSans-88"/>
      </defs>
      <use xlink:href="#DejaVuSans-82"/>
      <use x="69.482422" xlink:href="#DejaVuSans-85"/>
      <use x="142.675781" xlink:href="#DejaVuSans-78"/>
      <use x="217.480469" xlink:href="#DejaVuSans-88"/>
      <use x="285.986328" xlink:href="#DejaVuSans-49"/>
     </g>
    </g>
   </g>
   <g id="text_21">
    <g clip-path="url(#pdd93ceadc3)">
     <!-- ARHGEF2 -->
     <g transform="translate(581.693793 287.330019)scale(0.1 -0.1)">
      <use xlink:href="#DejaVuSans-65"/>
      <use x="68.408203" xlink:href="#DejaVuSans-82"/>
      <use x="137.890625" xlink:href="#DejaVuSans-72"/>
      <use x="213.085938" xlink:href="#DejaVuSans-71"/>
      <use x="290.576172" xlink:href="#DejaVuSans-69"/>
      <use x="353.759766" xlink:href="#DejaVuSans-70"/>
      <use x="411.279297" xlink:href="#DejaVuSans-50"/>
     </g>
    </g>
   </g>
   <g id="text_22">
    <g clip-path="url(#pdd93ceadc3)">
     <!-- CCND1 -->
     <g transform="translate(335.212033 422.661452)scale(0.1 -0.1)">
      <use xlink:href="#DejaVuSans-67"/>
      <use x="69.824219" xlink:href="#DejaVuSans-67"/>
      <use x="139.648438" xlink:href="#DejaVuSans-78"/>
      <use x="214.453125" xlink:href="#DejaVuSans-68"/>
      <use x="291.455078" xlink:href="#DejaVuSans-49"/>
     </g>
    </g>
   </g>
   <g id="text_23">
    <g clip-path="url(#pdd93ceadc3)">
     <!-- SYMPK -->
     <g transform="translate(353.622483 188.996487)scale(0.1 -0.1)">
      <defs>
       <path d="M -0.203125 72.90625 
L 10.40625 72.90625 
L 30.609375 42.921875 
L 50.6875 72.90625 
L 61.28125 72.90625 
L 35.5 34.71875 
L 35.5 0 
L 25.59375 0 
L 25.59375 34.71875 
z
" id="DejaVuSans-89"/>
      </defs>
      <use xlink:href="#DejaVuSans-83"/>
      <use x="63.476562" xlink:href="#DejaVuSans-89"/>
      <use x="124.560547" xlink:href="#DejaVuSans-77"/>
      <use x="210.839844" xlink:href="#DejaVuSans-80"/>
      <use x="271.142578" xlink:href="#DejaVuSans-75"/>
     </g>
    </g>
   </g>
   <g id="text_24">
    <g clip-path="url(#pdd93ceadc3)">
     <!-- ITGB1 -->
     <g transform="translate(545.221857 351.0004)scale(0.1 -0.1)">
      <use xlink:href="#DejaVuSans-73"/>
      <use x="29.492188" xlink:href="#DejaVuSans-84"/>
      <use x="90.576172" xlink:href="#DejaVuSans-71"/>
      <use x="168.066406" xlink:href="#DejaVuSans-66"/>
      <use x="236.669922" xlink:href="#DejaVuSans-49"/>
     </g>
    </g>
   </g>
   <g id="text_25">
    <g clip-path="url(#pdd93ceadc3)">
     <!-- MPP5 -->
     <g transform="translate(308.292887 86.406136)scale(0.1 -0.1)">
      <use xlink:href="#DejaVuSans-77"/>
      <use x="86.279297" xlink:href="#DejaVuSans-80"/>
      <use x="146.582031" xlink:href="#DejaVuSans-80"/>
      <use x="206.884766" xlink:href="#DejaVuSans-53"/>
     </g>
    </g>
   </g>
   <g id="text_26">
    <g clip-path="url(#pdd93ceadc3)">
     <!-- TJP3 -->
     <g transform="translate(377.415915 417.296614)scale(0.1 -0.1)">
      <defs>
       <path d="M 9.8125 72.90625 
L 19.671875 72.90625 
L 19.671875 5.078125 
Q 19.671875 -8.109375 14.671875 -14.0625 
Q 9.671875 -20.015625 -1.421875 -20.015625 
L -5.171875 -20.015625 
L -5.171875 -11.71875 
L -2.09375 -11.71875 
Q 4.4375 -11.71875 7.125 -8.046875 
Q 9.8125 -4.390625 9.8125 5.078125 
z
" id="DejaVuSans-74"/>
      </defs>
      <use xlink:href="#DejaVuSans-84"/>
      <use x="61.083984" xlink:href="#DejaVuSans-74"/>
      <use x="90.576172" xlink:href="#DejaVuSans-80"/>
      <use x="150.878906" xlink:href="#DejaVuSans-51"/>
     </g>
    </g>
   </g>
   <g id="text_27">
    <g clip-path="url(#pdd93ceadc3)">
     <!-- PRKCE -->
     <g transform="translate(255.78393 92.222173)scale(0.1 -0.1)">
      <use xlink:href="#DejaVuSans-80"/>
      <use x="60.302734" xlink:href="#DejaVuSans-82"/>
      <use x="129.785156" xlink:href="#DejaVuSans-75"/>
      <use x="189.861328" xlink:href="#DejaVuSans-67"/>
      <use x="259.685547" xlink:href="#DejaVuSans-69"/>
     </g>
    </g>
   </g>
   <g id="text_28">
    <g clip-path="url(#pdd93ceadc3)">
     <!-- ROCK1 -->
     <g transform="translate(578.8272 179.085795)scale(0.1 -0.1)">
      <use xlink:href="#DejaVuSans-82"/>
      <use x="69.482422" xlink:href="#DejaVuSans-79"/>
      <use x="148.193359" xlink:href="#DejaVuSans-67"/>
      <use x="218.017578" xlink:href="#DejaVuSans-75"/>
      <use x="283.59375" xlink:href="#DejaVuSans-49"/>
     </g>
    </g>
   </g>
   <g id="text_29">
    <g clip-path="url(#pdd93ceadc3)">
     <!-- ROCK2 -->
     <g transform="translate(191.169198 421.471104)scale(0.1 -0.1)">
      <use xlink:href="#DejaVuSans-82"/>
      <use x="69.482422" xlink:href="#DejaVuSans-79"/>
      <use x="148.193359" xlink:href="#DejaVuSans-67"/>
      <use x="218.017578" xlink:href="#DejaVuSans-75"/>
      <use x="283.59375" xlink:href="#DejaVuSans-50"/>
     </g>
    </g>
   </g>
   <g id="text_30">
    <g clip-path="url(#pdd93ceadc3)">
     <!-- PRKCI -->
     <g transform="translate(259.72279 200.516733)scale(0.1 -0.1)">
      <use xlink:href="#DejaVuSans-80"/>
      <use x="60.302734" xlink:href="#DejaVuSans-82"/>
      <use x="129.785156" xlink:href="#DejaVuSans-75"/>
      <use x="189.861328" xlink:href="#DejaVuSans-67"/>
      <use x="259.685547" xlink:href="#DejaVuSans-73"/>
     </g>
    </g>
   </g>
   <g id="text_31">
    <g clip-path="url(#pdd93ceadc3)">
     <!-- PRKCZ -->
     <g transform="translate(391.216078 430.110227)scale(0.1 -0.1)">
      <defs>
       <path d="M 5.609375 72.90625 
L 62.890625 72.90625 
L 62.890625 65.375 
L 16.796875 8.296875 
L 64.015625 8.296875 
L 64.015625 0 
L 4.5 0 
L 4.5 7.515625 
L 50.59375 64.59375 
L 5.609375 64.59375 
z
" id="DejaVuSans-90"/>
      </defs>
      <use xlink:href="#DejaVuSans-80"/>
      <use x="60.302734" xlink:href="#DejaVuSans-82"/>
      <use x="129.785156" xlink:href="#DejaVuSans-75"/>
      <use x="189.861328" xlink:href="#DejaVuSans-67"/>
      <use x="259.685547" xlink:href="#DejaVuSans-90"/>
     </g>
    </g>
   </g>
   <g id="text_32">
    <g clip-path="url(#pdd93ceadc3)">
     <!-- EZR -->
     <g transform="translate(62.243411 181.875082)scale(0.1 -0.1)">
      <use xlink:href="#DejaVuSans-69"/>
      <use x="63.183594" xlink:href="#DejaVuSans-90"/>
      <use x="131.689453" xlink:href="#DejaVuSans-82"/>
     </g>
    </g>
   </g>
   <g id="text_33">
    <g clip-path="url(#pdd93ceadc3)">
     <!-- RDX -->
     <g transform="translate(76.676007 240.470311)scale(0.1 -0.1)">
      <use xlink:href="#DejaVuSans-82"/>
      <use x="69.482422" xlink:href="#DejaVuSans-68"/>
      <use x="146.484375" xlink:href="#DejaVuSans-88"/>
     </g>
    </g>
   </g>
   <g id="text_34">
    <g clip-path="url(#pdd93ceadc3)">
     <!-- MSN -->
     <g transform="translate(568.869207 135.871421)scale(0.1 -0.1)">
      <use xlink:href="#DejaVuSans-77"/>
      <use x="86.279297" xlink:href="#DejaVuSans-83"/>
      <use x="149.755859" xlink:href="#DejaVuSans-78"/>
     </g>
    </g>
   </g>
   <g id="text_35">
    <g clip-path="url(#pdd93ceadc3)">
     <!-- TJP2 -->
     <g transform="translate(182.656264 82.515437)scale(0.1 -0.1)">
      <use xlink:href="#DejaVuSans-84"/>
      <use x="61.083984" xlink:href="#DejaVuSans-74"/>
      <use x="90.576172" xlink:href="#DejaVuSans-80"/>
      <use x="150.878906" xlink:href="#DejaVuSans-50"/>
     </g>
    </g>
   </g>
   <g id="text_36">
    <g clip-path="url(#pdd93ceadc3)">
     <!-- WHAMM -->
     <g transform="translate(220.751121 232.631832)scale(0.1 -0.1)">
      <defs>
       <path d="M 3.328125 72.90625 
L 13.28125 72.90625 
L 28.609375 11.28125 
L 43.890625 72.90625 
L 54.984375 72.90625 
L 70.3125 11.28125 
L 85.59375 72.90625 
L 95.609375 72.90625 
L 77.296875 0 
L 64.890625 0 
L 49.515625 63.28125 
L 33.984375 0 
L 21.578125 0 
z
" id="DejaVuSans-87"/>
      </defs>
      <use xlink:href="#DejaVuSans-87"/>
      <use x="98.876953" xlink:href="#DejaVuSans-72"/>
      <use x="174.072266" xlink:href="#DejaVuSans-65"/>
      <use x="242.480469" xlink:href="#DejaVuSans-77"/>
      <use x="328.759766" xlink:href="#DejaVuSans-77"/>
     </g>
    </g>
   </g>
   <g id="text_37">
    <g clip-path="url(#pdd93ceadc3)">
     <!-- WAS -->
     <g transform="translate(183.258791 248.028553)scale(0.1 -0.1)">
      <use xlink:href="#DejaVuSans-87"/>
      <use x="93.376953" xlink:href="#DejaVuSans-65"/>
      <use x="161.785156" xlink:href="#DejaVuSans-83"/>
     </g>
    </g>
   </g>
   <g id="text_38">
    <g clip-path="url(#pdd93ceadc3)">
     <!-- ACTR2 -->
     <g transform="translate(222.178011 143.448011)scale(0.1 -0.1)">
      <use xlink:href="#DejaVuSans-65"/>
      <use x="66.658203" xlink:href="#DejaVuSans-67"/>
      <use x="136.482422" xlink:href="#DejaVuSans-84"/>
      <use x="197.566406" xlink:href="#DejaVuSans-82"/>
      <use x="267.048828" xlink:href="#DejaVuSans-50"/>
     </g>
    </g>
   </g>
   <g id="text_39">
    <g clip-path="url(#pdd93ceadc3)">
     <!-- ACTR3 -->
     <g transform="translate(128.373808 246.692591)scale(0.1 -0.1)">
      <use xlink:href="#DejaVuSans-65"/>
      <use x="66.658203" xlink:href="#DejaVuSans-67"/>
      <use x="136.482422" xlink:href="#DejaVuSans-84"/>
      <use x="197.566406" xlink:href="#DejaVuSans-82"/>
      <use x="267.048828" xlink:href="#DejaVuSans-51"/>
     </g>
    </g>
   </g>
   <g id="text_40">
    <g clip-path="url(#pdd93ceadc3)">
     <!-- ARPC5 -->
     <g transform="translate(262.87005 214.872077)scale(0.1 -0.1)">
      <use xlink:href="#DejaVuSans-65"/>
      <use x="68.408203" xlink:href="#DejaVuSans-82"/>
      <use x="137.890625" xlink:href="#DejaVuSans-80"/>
      <use x="198.193359" xlink:href="#DejaVuSans-67"/>
      <use x="268.017578" xlink:href="#DejaVuSans-53"/>
     </g>
    </g>
   </g>
   <g id="text_41">
    <g clip-path="url(#pdd93ceadc3)">
     <!-- ARPC4 -->
     <g transform="translate(180.848154 174.292601)scale(0.1 -0.1)">
      <use xlink:href="#DejaVuSans-65"/>
      <use x="68.408203" xlink:href="#DejaVuSans-82"/>
      <use x="137.890625" xlink:href="#DejaVuSans-80"/>
      <use x="198.193359" xlink:href="#DejaVuSans-67"/>
      <use x="268.017578" xlink:href="#DejaVuSans-52"/>
     </g>
    </g>
   </g>
   <g id="text_42">
    <g clip-path="url(#pdd93ceadc3)">
     <!-- ARPC3 -->
     <g transform="translate(206.868538 274.18782)scale(0.1 -0.1)">
      <use xlink:href="#DejaVuSans-65"/>
      <use x="68.408203" xlink:href="#DejaVuSans-82"/>
      <use x="137.890625" xlink:href="#DejaVuSans-80"/>
      <use x="198.193359" xlink:href="#DejaVuSans-67"/>
      <use x="268.017578" xlink:href="#DejaVuSans-51"/>
     </g>
    </g>
   </g>
   <g id="text_43">
    <g clip-path="url(#pdd93ceadc3)">
     <!-- ARPC2 -->
     <g transform="translate(82.80645 154.434967)scale(0.1 -0.1)">
      <use xlink:href="#DejaVuSans-65"/>
      <use x="68.408203" xlink:href="#DejaVuSans-82"/>
      <use x="137.890625" xlink:href="#DejaVuSans-80"/>
      <use x="198.193359" xlink:href="#DejaVuSans-67"/>
      <use x="268.017578" xlink:href="#DejaVuSans-50"/>
     </g>
    </g>
   </g>
   <g id="text_44">
    <g clip-path="url(#pdd93ceadc3)">
     <!-- RAB8A -->
     <g transform="translate(567.869096 306.046206)scale(0.1 -0.1)">
      <defs>
       <path d="M 31.78125 34.625 
Q 24.75 34.625 20.71875 30.859375 
Q 16.703125 27.09375 16.703125 20.515625 
Q 16.703125 13.921875 20.71875 10.15625 
Q 24.75 6.390625 31.78125 6.390625 
Q 38.8125 6.390625 42.859375 10.171875 
Q 46.921875 13.96875 46.921875 20.515625 
Q 46.921875 27.09375 42.890625 30.859375 
Q 38.875 34.625 31.78125 34.625 
z
M 21.921875 38.8125 
Q 15.578125 40.375 12.03125 44.71875 
Q 8.5 49.078125 8.5 55.328125 
Q 8.5 64.0625 14.71875 69.140625 
Q 20.953125 74.21875 31.78125 74.21875 
Q 42.671875 74.21875 48.875 69.140625 
Q 55.078125 64.0625 55.078125 55.328125 
Q 55.078125 49.078125 51.53125 44.71875 
Q 48 40.375 41.703125 38.8125 
Q 48.828125 37.15625 52.796875 32.3125 
Q 56.78125 27.484375 56.78125 20.515625 
Q 56.78125 9.90625 50.3125 4.234375 
Q 43.84375 -1.421875 31.78125 -1.421875 
Q 19.734375 -1.421875 13.25 4.234375 
Q 6.78125 9.90625 6.78125 20.515625 
Q 6.78125 27.484375 10.78125 32.3125 
Q 14.796875 37.15625 21.921875 38.8125 
z
M 18.3125 54.390625 
Q 18.3125 48.734375 21.84375 45.5625 
Q 25.390625 42.390625 31.78125 42.390625 
Q 38.140625 42.390625 41.71875 45.5625 
Q 45.3125 48.734375 45.3125 54.390625 
Q 45.3125 60.0625 41.71875 63.234375 
Q 38.140625 66.40625 31.78125 66.40625 
Q 25.390625 66.40625 21.84375 63.234375 
Q 18.3125 60.0625 18.3125 54.390625 
z
" id="DejaVuSans-56"/>
      </defs>
      <use xlink:href="#DejaVuSans-82"/>
      <use x="65.482422" xlink:href="#DejaVuSans-65"/>
      <use x="133.890625" xlink:href="#DejaVuSans-66"/>
      <use x="202.494141" xlink:href="#DejaVuSans-56"/>
      <use x="266.117188" xlink:href="#DejaVuSans-65"/>
     </g>
    </g>
   </g>
   <g id="text_45">
    <g clip-path="url(#pdd93ceadc3)">
     <!-- RAB8B -->
     <g transform="translate(468.866302 419.341961)scale(0.1 -0.1)">
      <use xlink:href="#DejaVuSans-82"/>
      <use x="65.482422" xlink:href="#DejaVuSans-65"/>
      <use x="133.890625" xlink:href="#DejaVuSans-66"/>
      <use x="202.494141" xlink:href="#DejaVuSans-56"/>
      <use x="266.117188" xlink:href="#DejaVuSans-66"/>
     </g>
    </g>
   </g>
   <g id="text_46">
    <!-- Importance Score for Each Node in the Network -->
    <g transform="translate(198.616875 16.318125)scale(0.12 -0.12)">
     <defs>
      <path d="M 52 44.1875 
Q 55.375 50.25 60.0625 53.125 
Q 64.75 56 71.09375 56 
Q 79.640625 56 84.28125 50.015625 
Q 88.921875 44.046875 88.921875 33.015625 
L 88.921875 0 
L 79.890625 0 
L 79.890625 32.71875 
Q 79.890625 40.578125 77.09375 44.375 
Q 74.3125 48.1875 68.609375 48.1875 
Q 61.625 48.1875 57.5625 43.546875 
Q 53.515625 38.921875 53.515625 30.90625 
L 53.515625 0 
L 44.484375 0 
L 44.484375 32.71875 
Q 44.484375 40.625 41.703125 44.40625 
Q 38.921875 48.1875 33.109375 48.1875 
Q 26.21875 48.1875 22.15625 43.53125 
Q 18.109375 38.875 18.109375 30.90625 
L 18.109375 0 
L 9.078125 0 
L 9.078125 54.6875 
L 18.109375 54.6875 
L 18.109375 46.1875 
Q 21.1875 51.21875 25.484375 53.609375 
Q 29.78125 56 35.6875 56 
Q 41.65625 56 45.828125 52.96875 
Q 50 49.953125 52 44.1875 
z
" id="DejaVuSans-109"/>
      <path d="M 18.109375 8.203125 
L 18.109375 -20.796875 
L 9.078125 -20.796875 
L 9.078125 54.6875 
L 18.109375 54.6875 
L 18.109375 46.390625 
Q 20.953125 51.265625 25.265625 53.625 
Q 29.59375 56 35.59375 56 
Q 45.5625 56 51.78125 48.09375 
Q 58.015625 40.1875 58.015625 27.296875 
Q 58.015625 14.40625 51.78125 6.484375 
Q 45.5625 -1.421875 35.59375 -1.421875 
Q 29.59375 -1.421875 25.265625 0.953125 
Q 20.953125 3.328125 18.109375 8.203125 
z
M 48.6875 27.296875 
Q 48.6875 37.203125 44.609375 42.84375 
Q 40.53125 48.484375 33.40625 48.484375 
Q 26.265625 48.484375 22.1875 42.84375 
Q 18.109375 37.203125 18.109375 27.296875 
Q 18.109375 17.390625 22.1875 11.75 
Q 26.265625 6.109375 33.40625 6.109375 
Q 40.53125 6.109375 44.609375 11.75 
Q 48.6875 17.390625 48.6875 27.296875 
z
" id="DejaVuSans-112"/>
      <path d="M 30.609375 48.390625 
Q 23.390625 48.390625 19.1875 42.75 
Q 14.984375 37.109375 14.984375 27.296875 
Q 14.984375 17.484375 19.15625 11.84375 
Q 23.34375 6.203125 30.609375 6.203125 
Q 37.796875 6.203125 41.984375 11.859375 
Q 46.1875 17.53125 46.1875 27.296875 
Q 46.1875 37.015625 41.984375 42.703125 
Q 37.796875 48.390625 30.609375 48.390625 
z
M 30.609375 56 
Q 42.328125 56 49.015625 48.375 
Q 55.71875 40.765625 55.71875 27.296875 
Q 55.71875 13.875 49.015625 6.21875 
Q 42.328125 -1.421875 30.609375 -1.421875 
Q 18.84375 -1.421875 12.171875 6.21875 
Q 5.515625 13.875 5.515625 27.296875 
Q 5.515625 40.765625 12.171875 48.375 
Q 18.84375 56 30.609375 56 
z
" id="DejaVuSans-111"/>
      <path d="M 41.109375 46.296875 
Q 39.59375 47.171875 37.8125 47.578125 
Q 36.03125 48 33.890625 48 
Q 26.265625 48 22.1875 43.046875 
Q 18.109375 38.09375 18.109375 28.8125 
L 18.109375 0 
L 9.078125 0 
L 9.078125 54.6875 
L 18.109375 54.6875 
L 18.109375 46.1875 
Q 20.953125 51.171875 25.484375 53.578125 
Q 30.03125 56 36.53125 56 
Q 37.453125 56 38.578125 55.875 
Q 39.703125 55.765625 41.0625 55.515625 
z
" id="DejaVuSans-114"/>
      <path d="M 18.3125 70.21875 
L 18.3125 54.6875 
L 36.8125 54.6875 
L 36.8125 47.703125 
L 18.3125 47.703125 
L 18.3125 18.015625 
Q 18.3125 11.328125 20.140625 9.421875 
Q 21.96875 7.515625 27.59375 7.515625 
L 36.8125 7.515625 
L 36.8125 0 
L 27.59375 0 
Q 17.1875 0 13.234375 3.875 
Q 9.28125 7.765625 9.28125 18.015625 
L 9.28125 47.703125 
L 2.6875 47.703125 
L 2.6875 54.6875 
L 9.28125 54.6875 
L 9.28125 70.21875 
z
" id="DejaVuSans-116"/>
      <path d="M 34.28125 27.484375 
Q 23.390625 27.484375 19.1875 25 
Q 14.984375 22.515625 14.984375 16.5 
Q 14.984375 11.71875 18.140625 8.90625 
Q 21.296875 6.109375 26.703125 6.109375 
Q 34.1875 6.109375 38.703125 11.40625 
Q 43.21875 16.703125 43.21875 25.484375 
L 43.21875 27.484375 
z
M 52.203125 31.203125 
L 52.203125 0 
L 43.21875 0 
L 43.21875 8.296875 
Q 40.140625 3.328125 35.546875 0.953125 
Q 30.953125 -1.421875 24.3125 -1.421875 
Q 15.921875 -1.421875 10.953125 3.296875 
Q 6 8.015625 6 15.921875 
Q 6 25.140625 12.171875 29.828125 
Q 18.359375 34.515625 30.609375 34.515625 
L 43.21875 34.515625 
L 43.21875 35.40625 
Q 43.21875 41.609375 39.140625 45 
Q 35.0625 48.390625 27.6875 48.390625 
Q 23 48.390625 18.546875 47.265625 
Q 14.109375 46.140625 10.015625 43.890625 
L 10.015625 52.203125 
Q 14.9375 54.109375 19.578125 55.046875 
Q 24.21875 56 28.609375 56 
Q 40.484375 56 46.34375 49.84375 
Q 52.203125 43.703125 52.203125 31.203125 
z
" id="DejaVuSans-97"/>
      <path d="M 54.890625 33.015625 
L 54.890625 0 
L 45.90625 0 
L 45.90625 32.71875 
Q 45.90625 40.484375 42.875 44.328125 
Q 39.84375 48.1875 33.796875 48.1875 
Q 26.515625 48.1875 22.3125 43.546875 
Q 18.109375 38.921875 18.109375 30.90625 
L 18.109375 0 
L 9.078125 0 
L 9.078125 54.6875 
L 18.109375 54.6875 
L 18.109375 46.1875 
Q 21.34375 51.125 25.703125 53.5625 
Q 30.078125 56 35.796875 56 
Q 45.21875 56 50.046875 50.171875 
Q 54.890625 44.34375 54.890625 33.015625 
z
" id="DejaVuSans-110"/>
      <path d="M 48.78125 52.59375 
L 48.78125 44.1875 
Q 44.96875 46.296875 41.140625 47.34375 
Q 37.3125 48.390625 33.40625 48.390625 
Q 24.65625 48.390625 19.8125 42.84375 
Q 14.984375 37.3125 14.984375 27.296875 
Q 14.984375 17.28125 19.8125 11.734375 
Q 24.65625 6.203125 33.40625 6.203125 
Q 37.3125 6.203125 41.140625 7.25 
Q 44.96875 8.296875 48.78125 10.40625 
L 48.78125 2.09375 
Q 45.015625 0.34375 40.984375 -0.53125 
Q 36.96875 -1.421875 32.421875 -1.421875 
Q 20.0625 -1.421875 12.78125 6.34375 
Q 5.515625 14.109375 5.515625 27.296875 
Q 5.515625 40.671875 12.859375 48.328125 
Q 20.21875 56 33.015625 56 
Q 37.15625 56 41.109375 55.140625 
Q 45.0625 54.296875 48.78125 52.59375 
z
" id="DejaVuSans-99"/>
      <path d="M 56.203125 29.59375 
L 56.203125 25.203125 
L 14.890625 25.203125 
Q 15.484375 15.921875 20.484375 11.0625 
Q 25.484375 6.203125 34.421875 6.203125 
Q 39.59375 6.203125 44.453125 7.46875 
Q 49.3125 8.734375 54.109375 11.28125 
L 54.109375 2.78125 
Q 49.265625 0.734375 44.1875 -0.34375 
Q 39.109375 -1.421875 33.890625 -1.421875 
Q 20.796875 -1.421875 13.15625 6.1875 
Q 5.515625 13.8125 5.515625 26.8125 
Q 5.515625 40.234375 12.765625 48.109375 
Q 20.015625 56 32.328125 56 
Q 43.359375 56 49.78125 48.890625 
Q 56.203125 41.796875 56.203125 29.59375 
z
M 47.21875 32.234375 
Q 47.125 39.59375 43.09375 43.984375 
Q 39.0625 48.390625 32.421875 48.390625 
Q 24.90625 48.390625 20.390625 44.140625 
Q 15.875 39.890625 15.1875 32.171875 
z
" id="DejaVuSans-101"/>
      <path id="DejaVuSans-32"/>
      <path d="M 37.109375 75.984375 
L 37.109375 68.5 
L 28.515625 68.5 
Q 23.6875 68.5 21.796875 66.546875 
Q 19.921875 64.59375 19.921875 59.515625 
L 19.921875 54.6875 
L 34.71875 54.6875 
L 34.71875 47.703125 
L 19.921875 47.703125 
L 19.921875 0 
L 10.890625 0 
L 10.890625 47.703125 
L 2.296875 47.703125 
L 2.296875 54.6875 
L 10.890625 54.6875 
L 10.890625 58.5 
Q 10.890625 67.625 15.140625 71.796875 
Q 19.390625 75.984375 28.609375 75.984375 
z
" id="DejaVuSans-102"/>
      <path d="M 54.890625 33.015625 
L 54.890625 0 
L 45.90625 0 
L 45.90625 32.71875 
Q 45.90625 40.484375 42.875 44.328125 
Q 39.84375 48.1875 33.796875 48.1875 
Q 26.515625 48.1875 22.3125 43.546875 
Q 18.109375 38.921875 18.109375 30.90625 
L 18.109375 0 
L 9.078125 0 
L 9.078125 75.984375 
L 18.109375 75.984375 
L 18.109375 46.1875 
Q 21.34375 51.125 25.703125 53.5625 
Q 30.078125 56 35.796875 56 
Q 45.21875 56 50.046875 50.171875 
Q 54.890625 44.34375 54.890625 33.015625 
z
" id="DejaVuSans-104"/>
      <path d="M 45.40625 46.390625 
L 45.40625 75.984375 
L 54.390625 75.984375 
L 54.390625 0 
L 45.40625 0 
L 45.40625 8.203125 
Q 42.578125 3.328125 38.25 0.953125 
Q 33.9375 -1.421875 27.875 -1.421875 
Q 17.96875 -1.421875 11.734375 6.484375 
Q 5.515625 14.40625 5.515625 27.296875 
Q 5.515625 40.1875 11.734375 48.09375 
Q 17.96875 56 27.875 56 
Q 33.9375 56 38.25 53.625 
Q 42.578125 51.265625 45.40625 46.390625 
z
M 14.796875 27.296875 
Q 14.796875 17.390625 18.875 11.75 
Q 22.953125 6.109375 30.078125 6.109375 
Q 37.203125 6.109375 41.296875 11.75 
Q 45.40625 17.390625 45.40625 27.296875 
Q 45.40625 37.203125 41.296875 42.84375 
Q 37.203125 48.484375 30.078125 48.484375 
Q 22.953125 48.484375 18.875 42.84375 
Q 14.796875 37.203125 14.796875 27.296875 
z
" id="DejaVuSans-100"/>
      <path d="M 9.421875 54.6875 
L 18.40625 54.6875 
L 18.40625 0 
L 9.421875 0 
z
M 9.421875 75.984375 
L 18.40625 75.984375 
L 18.40625 64.59375 
L 9.421875 64.59375 
z
" id="DejaVuSans-105"/>
      <path d="M 4.203125 54.6875 
L 13.1875 54.6875 
L 24.421875 12.015625 
L 35.59375 54.6875 
L 46.1875 54.6875 
L 57.421875 12.015625 
L 68.609375 54.6875 
L 77.59375 54.6875 
L 63.28125 0 
L 52.6875 0 
L 40.921875 44.828125 
L 29.109375 0 
L 18.5 0 
z
" id="DejaVuSans-119"/>
      <path d="M 9.078125 75.984375 
L 18.109375 75.984375 
L 18.109375 31.109375 
L 44.921875 54.6875 
L 56.390625 54.6875 
L 27.390625 29.109375 
L 57.625 0 
L 45.90625 0 
L 18.109375 26.703125 
L 18.109375 0 
L 9.078125 0 
z
" id="DejaVuSans-107"/>
     </defs>
     <use xlink:href="#DejaVuSans-73"/>
     <use x="29.492188" xlink:href="#DejaVuSans-109"/>
     <use x="126.904297" xlink:href="#DejaVuSans-112"/>
     <use x="190.380859" xlink:href="#DejaVuSans-111"/>
     <use x="251.5625" xlink:href="#DejaVuSans-114"/>
     <use x="292.675781" xlink:href="#DejaVuSans-116"/>
     <use x="331.884766" xlink:href="#DejaVuSans-97"/>
     <use x="393.164062" xlink:href="#DejaVuSans-110"/>
     <use x="456.542969" xlink:href="#DejaVuSans-99"/>
     <use x="511.523438" xlink:href="#DejaVuSans-101"/>
     <use x="573.046875" xlink:href="#DejaVuSans-32"/>
     <use x="604.833984" xlink:href="#DejaVuSans-83"/>
     <use x="668.310547" xlink:href="#DejaVuSans-99"/>
     <use x="723.291016" xlink:href="#DejaVuSans-111"/>
     <use x="784.472656" xlink:href="#DejaVuSans-114"/>
     <use x="823.335938" xlink:href="#DejaVuSans-101"/>
     <use x="884.859375" xlink:href="#DejaVuSans-32"/>
     <use x="916.646484" xlink:href="#DejaVuSans-102"/>
     <use x="951.851562" xlink:href="#DejaVuSans-111"/>
     <use x="1013.033203" xlink:href="#DejaVuSans-114"/>
     <use x="1054.146484" xlink:href="#DejaVuSans-32"/>
     <use x="1085.933594" xlink:href="#DejaVuSans-69"/>
     <use x="1149.117188" xlink:href="#DejaVuSans-97"/>
     <use x="1210.396484" xlink:href="#DejaVuSans-99"/>
     <use x="1265.376953" xlink:href="#DejaVuSans-104"/>
     <use x="1328.755859" xlink:href="#DejaVuSans-32"/>
     <use x="1360.542969" xlink:href="#DejaVuSans-78"/>
     <use x="1435.347656" xlink:href="#DejaVuSans-111"/>
     <use x="1496.529297" xlink:href="#DejaVuSans-100"/>
     <use x="1560.005859" xlink:href="#DejaVuSans-101"/>
     <use x="1621.529297" xlink:href="#DejaVuSans-32"/>
     <use x="1653.316406" xlink:href="#DejaVuSans-105"/>
     <use x="1681.099609" xlink:href="#DejaVuSans-110"/>
     <use x="1744.478516" xlink:href="#DejaVuSans-32"/>
     <use x="1776.265625" xlink:href="#DejaVuSans-116"/>
     <use x="1815.474609" xlink:href="#DejaVuSans-104"/>
     <use x="1878.853516" xlink:href="#DejaVuSans-101"/>
     <use x="1940.376953" xlink:href="#DejaVuSans-32"/>
     <use x="1972.164062" xlink:href="#DejaVuSans-78"/>
     <use x="2046.96875" xlink:href="#DejaVuSans-101"/>
     <use x="2108.492188" xlink:href="#DejaVuSans-116"/>
     <use x="2147.701172" xlink:href="#DejaVuSans-119"/>
     <use x="2229.488281" xlink:href="#DejaVuSans-111"/>
     <use x="2290.669922" xlink:href="#DejaVuSans-114"/>
     <use x="2331.783203" xlink:href="#DejaVuSans-107"/>
    </g>
   </g>
  </g>
 </g>
 <defs>
  <clipPath id="pdd93ceadc3">
   <rect height="443.52" width="669.6" x="7.2" y="22.318125"/>
  </clipPath>
 </defs>
</svg>
