<?xml version="1.0" encoding="utf-8" standalone="no"?>
<!DOCTYPE svg PUBLIC "-//W3C//DTD SVG 1.1//EN"
  "http://www.w3.org/Graphics/SVG/1.1/DTD/svg11.dtd">
<!-- Created with matplotlib (https://matplotlib.org/) -->
<svg height="473.038125pt" version="1.1" viewBox="0 0 684 473.038125" width="684pt" xmlns="http://www.w3.org/2000/svg" xmlns:xlink="http://www.w3.org/1999/xlink">
 <metadata>
  <rdf:RDF xmlns:cc="http://creativecommons.org/ns#" xmlns:dc="http://purl.org/dc/elements/1.1/" xmlns:rdf="http://www.w3.org/1999/02/22-rdf-syntax-ns#">
   <cc:Work>
    <dc:type rdf:resource="http://purl.org/dc/dcmitype/StillImage"/>
    <dc:date>2024-04-25T16:26:36.165777</dc:date>
    <dc:format>image/svg+xml</dc:format>
    <dc:creator>
     <cc:Agent>
      <dc:title>Matplotlib v3.3.1, https://matplotlib.org/</dc:title>
     </cc:Agent>
    </dc:creator>
   </cc:Work>
  </rdf:RDF>
 </metadata>
 <defs>
  <style type="text/css">*{stroke-linecap:butt;stroke-linejoin:round;}</style>
 </defs>
 <g id="figure_1">
  <g id="patch_1">
   <path d="M 0 473.038125 
L 684 473.038125 
L 684 0 
L 0 0 
z
" style="fill:#ffffff;"/>
  </g>
  <g id="axes_1">
   <g id="patch_2">
    <path clip-path="url(#pf334a5af74)" d="M 418.196409 77.867609 
Q 459.998651 88.359415 500.716493 98.579052 
" style="fill:none;stroke:#808080;stroke-linecap:round;"/>
    <path clip-path="url(#pf334a5af74)" d="M 497.323698 95.665473 
L 500.716493 98.579052 
L 496.349953 99.545141 
L 497.323698 95.665473 
z
" style="fill:#808080;stroke:#808080;stroke-linecap:round;"/>
   </g>
   <g id="patch_3">
    <path clip-path="url(#pf334a5af74)" d="M 528.695474 272.687608 
Q 519.910656 191.127241 511.245568 110.67848 
" style="fill:none;stroke:#808080;stroke-linecap:round;"/>
    <path clip-path="url(#pf334a5af74)" d="M 509.685429 114.869657 
L 511.245568 110.67848 
L 513.662427 114.441297 
L 509.685429 114.869657 
z
" style="fill:#808080;stroke:#808080;stroke-linecap:round;"/>
   </g>
   <g id="patch_4">
    <path clip-path="url(#pf334a5af74)" d="M 535.666149 275.095081 
Q 566.17266 243.783464 595.898965 213.272644 
" style="fill:none;stroke:#808080;stroke-linecap:round;"/>
    <path clip-path="url(#pf334a5af74)" d="M 591.675101 214.741988 
L 595.898965 213.272644 
L 594.540122 217.533342 
L 591.675101 214.741988 
z
" style="fill:#808080;stroke:#808080;stroke-linecap:round;"/>
   </g>
   <g id="patch_5">
    <path clip-path="url(#pf334a5af74)" d="M 532.786794 374.063183 
Q 531.35242 332.007656 529.956156 291.069513 
" style="fill:none;stroke:#808080;stroke-linecap:round;"/>
    <path clip-path="url(#pf334a5af74)" d="M 528.093666 295.135362 
L 529.956156 291.069513 
L 532.091341 294.999015 
L 528.093666 295.135362 
z
" style="fill:#808080;stroke:#808080;stroke-linecap:round;"/>
   </g>
   <g id="patch_6">
    <path clip-path="url(#pf334a5af74)" d="M 538.202349 375.734105 
Q 550.364905 359.139157 561.866548 343.445981 
" style="fill:none;stroke:#808080;stroke-linecap:round;"/>
    <path clip-path="url(#pf334a5af74)" d="M 557.888849 345.489976 
L 561.866548 343.445981 
L 561.115125 347.854537 
L 557.888849 345.489976 
z
" style="fill:#808080;stroke:#808080;stroke-linecap:round;"/>
   </g>
   <g id="patch_7">
    <path clip-path="url(#pf334a5af74)" d="M 526.907159 274.529529 
Q 544.87412 301.443677 562.220329 327.42795 
" style="fill:none;stroke:#808080;stroke-linecap:round;"/>
    <path clip-path="url(#pf334a5af74)" d="M 561.662868 322.990694 
L 562.220329 327.42795 
L 558.336048 325.211565 
L 561.662868 322.990694 
z
" style="fill:#808080;stroke:#808080;stroke-linecap:round;"/>
   </g>
   <g id="patch_8">
    <path clip-path="url(#pf334a5af74)" d="M 75.586965 250.867119 
Q 115.712615 172.147932 155.330526 94.424837 
" style="fill:none;stroke:#808080;stroke-linecap:round;"/>
    <path clip-path="url(#pf334a5af74)" d="M 151.732117 97.080294 
L 155.330526 94.424837 
L 155.295846 98.896839 
L 151.732117 97.080294 
z
" style="fill:#808080;stroke:#808080;stroke-linecap:round;"/>
   </g>
   <g id="patch_9">
    <path clip-path="url(#pf334a5af74)" d="M 75.581946 266.30527 
Q 102.139787 318.522928 128.190784 369.744037 
" style="fill:none;stroke:#808080;stroke-linecap:round;"/>
    <path clip-path="url(#pf334a5af74)" d="M 128.160126 365.272007 
L 128.190784 369.744037 
L 124.594765 367.085345 
L 128.160126 365.272007 
z
" style="fill:#808080;stroke:#808080;stroke-linecap:round;"/>
   </g>
   <g id="patch_10">
    <path clip-path="url(#pf334a5af74)" d="M 196.34448 255.839978 
Q 178.967301 175.010086 161.825112 95.273253 
" style="fill:none;stroke:#808080;stroke-linecap:round;"/>
    <path clip-path="url(#pf334a5af74)" d="M 160.710517 99.604266 
L 161.825112 95.273253 
L 164.621166 98.763537 
L 160.710517 99.604266 
z
" style="fill:#808080;stroke:#808080;stroke-linecap:round;"/>
   </g>
   <g id="patch_11">
    <path clip-path="url(#pf334a5af74)" d="M 193.854353 271.814089 
Q 165.394159 321.38227 137.490663 369.98087 
" style="fill:none;stroke:#808080;stroke-linecap:round;"/>
    <path clip-path="url(#pf334a5af74)" d="M 141.216804 367.507841 
L 137.490663 369.98087 
L 137.747924 365.51614 
L 141.216804 367.507841 
z
" style="fill:#808080;stroke:#808080;stroke-linecap:round;"/>
   </g>
   <g id="patch_12">
    <path clip-path="url(#pf334a5af74)" d="M 315.068471 89.745289 
Q 408.311807 95.10376 500.438952 100.398087 
" style="fill:none;stroke:#808080;stroke-linecap:round;"/>
    <path clip-path="url(#pf334a5af74)" d="M 496.560286 98.17189 
L 500.438952 100.398087 
L 496.330795 102.165301 
L 496.560286 98.17189 
z
" style="fill:#808080;stroke:#808080;stroke-linecap:round;"/>
   </g>
   <g id="patch_13">
    <path clip-path="url(#pf334a5af74)" d="M 559.576592 128.857303 
Q 538.65638 117.037456 518.709579 105.767582 
" style="fill:none;stroke:#808080;stroke-linecap:round;"/>
    <path clip-path="url(#pf334a5af74)" d="M 521.208337 109.476519 
L 518.709579 105.767582 
L 523.175983 105.993938 
L 521.208337 109.476519 
z
" style="fill:#808080;stroke:#808080;stroke-linecap:round;"/>
   </g>
   <g id="patch_14">
    <path clip-path="url(#pf334a5af74)" d="M 379.335078 266.133638 
Q 229.825614 262.464379 81.433846 258.82255 
" style="fill:none;stroke:#808080;stroke-linecap:round;"/>
    <path clip-path="url(#pf334a5af74)" d="M 85.383573 260.920087 
L 81.433846 258.82255 
L 85.481711 256.921291 
L 85.383573 260.920087 
z
" style="fill:#808080;stroke:#808080;stroke-linecap:round;"/>
   </g>
   <g id="patch_15">
    <path clip-path="url(#pf334a5af74)" d="M 396.631971 265.803232 
Q 503.341188 259.10098 608.934569 252.468813 
" style="fill:none;stroke:#808080;stroke-linecap:round;"/>
    <path clip-path="url(#pf334a5af74)" d="M 604.817065 250.723486 
L 608.934569 252.468813 
L 605.067805 254.71562 
L 604.817065 250.723486 
z
" style="fill:#808080;stroke:#808080;stroke-linecap:round;"/>
   </g>
   <g id="patch_16">
    <path clip-path="url(#pf334a5af74)" d="M 380.208643 262.552746 
Q 324.53423 235.41128 269.86479 208.759742 
" style="fill:none;stroke:#808080;stroke-linecap:round;"/>
    <path clip-path="url(#pf334a5af74)" d="M 272.583882 212.310311 
L 269.86479 208.759742 
L 274.336701 208.71481 
L 272.583882 212.310311 
z
" style="fill:#808080;stroke:#808080;stroke-linecap:round;"/>
   </g>
   <g id="patch_17">
    <path clip-path="url(#pf334a5af74)" d="M 396.591381 267.372466 
Q 494.231475 279.023725 590.761412 290.54251 
" style="fill:none;stroke:#808080;stroke-linecap:round;"/>
    <path clip-path="url(#pf334a5af74)" d="M 587.026566 288.082647 
L 590.761412 290.54251 
L 586.552614 292.054469 
L 587.026566 288.082647 
z
" style="fill:#808080;stroke:#808080;stroke-linecap:round;"/>
   </g>
   <g id="patch_18">
    <path clip-path="url(#pf334a5af74)" d="M 610.142499 253.225514 
Q 570.396923 259.591387 531.75531 265.780442 
" style="fill:none;stroke:#808080;stroke-linecap:round;"/>
    <path clip-path="url(#pf334a5af74)" d="M 536.021271 267.122673 
L 531.75531 265.780442 
L 535.388671 263.173013 
L 536.021271 267.122673 
z
" style="fill:#808080;stroke:#808080;stroke-linecap:round;"/>
   </g>
   <g id="patch_19">
    <path clip-path="url(#pf334a5af74)" d="M 269.491767 206.501591 
Q 391.584377 235.900345 512.590021 265.037367 
" style="fill:none;stroke:#808080;stroke-linecap:round;"/>
    <path clip-path="url(#pf334a5af74)" d="M 509.16937 262.156543 
L 512.590021 265.037367 
L 508.232971 266.045393 
L 509.16937 262.156543 
z
" style="fill:#808080;stroke:#808080;stroke-linecap:round;"/>
   </g>
   <g id="patch_20">
    <path clip-path="url(#pf334a5af74)" d="M 592.205021 289.129956 
Q 561.287611 279.514665 531.437797 270.231396 
" style="fill:none;stroke:#808080;stroke-linecap:round;"/>
    <path clip-path="url(#pf334a5af74)" d="M 534.663407 273.329047 
L 531.437797 270.231396 
L 535.851283 269.509498 
L 534.663407 273.329047 
z
" style="fill:#808080;stroke:#808080;stroke-linecap:round;"/>
   </g>
   <g id="patch_21">
    <path clip-path="url(#pf334a5af74)" d="M 171.115713 144.466226 
Q 259.601629 167.24546 347.004813 189.745964 
" style="fill:none;stroke:#808080;stroke-linecap:round;"/>
    <path clip-path="url(#pf334a5af74)" d="M 343.629723 186.811894 
L 347.004813 189.745964 
L 342.632503 190.685594 
L 343.629723 186.811894 
z
" style="fill:#808080;stroke:#808080;stroke-linecap:round;"/>
   </g>
   <g id="patch_22">
    <path clip-path="url(#pf334a5af74)" d="M 157.440652 149.169676 
Q 127.349695 188.220525 97.941153 226.385762 
" style="fill:none;stroke:#808080;stroke-linecap:round;"/>
    <path clip-path="url(#pf334a5af74)" d="M 101.966869 224.438043 
L 97.941153 226.385762 
L 98.798407 221.996558 
L 101.966869 224.438043 
z
" style="fill:#808080;stroke:#808080;stroke-linecap:round;"/>
   </g>
   <g id="patch_23">
    <path clip-path="url(#pf334a5af74)" d="M 351.201062 199.056482 
Q 277.184111 295.540947 203.847672 391.138336 
" style="fill:none;stroke:#808080;stroke-linecap:round;"/>
    <path clip-path="url(#pf334a5af74)" d="M 207.869192 389.181968 
L 203.847672 391.138336 
L 204.69549 386.747299 
L 207.869192 389.181968 
z
" style="fill:#808080;stroke:#808080;stroke-linecap:round;"/>
   </g>
   <g id="patch_24">
    <path clip-path="url(#pf334a5af74)" d="M 96.656638 241.412669 
Q 144.9356 316.512337 192.609972 390.671541 
" style="fill:none;stroke:#808080;stroke-linecap:round;"/>
    <path clip-path="url(#pf334a5af74)" d="M 192.129273 386.225315 
L 192.609972 390.671541 
L 188.764572 388.388365 
L 192.129273 386.225315 
z
" style="fill:#808080;stroke:#808080;stroke-linecap:round;"/>
   </g>
   <g id="patch_25">
    <path clip-path="url(#pf334a5af74)" d="M 272.833861 401.233072 
Q 290.489332 328.625784 307.880635 257.104874 
" style="fill:none;stroke:#808080;stroke-linecap:round;"/>
    <path clip-path="url(#pf334a5af74)" d="M 304.992149 260.519057 
L 307.880635 257.104874 
L 308.87889 261.464172 
L 304.992149 260.519057 
z
" style="fill:#808080;stroke:#808080;stroke-linecap:round;"/>
   </g>
   <g id="patch_26">
    <path clip-path="url(#pf334a5af74)" d="M 354.149717 112.878058 
Q 333.513979 176.122777 313.225044 238.304609 
" style="fill:none;stroke:#808080;stroke-linecap:round;"/>
    <path clip-path="url(#pf334a5af74)" d="M 316.367153 235.12229 
L 313.225044 238.304609 
L 312.564454 233.881531 
L 316.367153 235.12229 
z
" style="fill:#808080;stroke:#808080;stroke-linecap:round;"/>
   </g>
   <g id="patch_27">
    <path clip-path="url(#pf334a5af74)" d="M 510.791197 178.209377 
Q 414.58211 211.49091 319.429622 244.406935 
" style="fill:none;stroke:#808080;stroke-linecap:round;"/>
    <path clip-path="url(#pf334a5af74)" d="M 323.863671 244.989354 
L 319.429622 244.406935 
L 322.555987 241.209147 
L 323.863671 244.989354 
z
" style="fill:#808080;stroke:#808080;stroke-linecap:round;"/>
   </g>
   <g id="patch_28">
    <path clip-path="url(#pf334a5af74)" d="M 284.143953 273.505687 
Q 245.458812 269.366801 207.88536 265.346853 
" style="fill:none;stroke:#808080;stroke-linecap:round;"/>
    <path clip-path="url(#pf334a5af74)" d="M 211.649897 267.761031 
L 207.88536 265.346853 
L 212.075425 263.78373 
L 211.649897 267.761031 
z
" style="fill:#808080;stroke:#808080;stroke-linecap:round;"/>
   </g>
   <g id="patch_29">
    <path clip-path="url(#pf334a5af74)" d="M 345.074455 380.979438 
Q 275.010109 325.335822 205.821281 270.387524 
" style="fill:none;stroke:#808080;stroke-linecap:round;"/>
    <path clip-path="url(#pf334a5af74)" d="M 207.709808 274.441345 
L 205.821281 270.387524 
L 210.197454 271.308995 
L 207.709808 274.441345 
z
" style="fill:#808080;stroke:#808080;stroke-linecap:round;"/>
   </g>
   <g id="patch_30">
    <path clip-path="url(#pf334a5af74)" d="M 73.783814 238.632492 
Q 131.732459 250.594089 188.586155 262.329669 
" style="fill:none;stroke:#808080;stroke-linecap:round;"/>
    <path clip-path="url(#pf334a5af74)" d="M 185.073051 259.562341 
L 188.586155 262.329669 
L 184.26443 263.479755 
L 185.073051 259.562341 
z
" style="fill:#808080;stroke:#808080;stroke-linecap:round;"/>
   </g>
   <g id="patch_31">
    <path clip-path="url(#pf334a5af74)" d="M 203.352384 327.872137 
Q 244.336252 303.37181 284.360485 279.445157 
" style="fill:none;stroke:#808080;stroke-linecap:round;"/>
    <path clip-path="url(#pf334a5af74)" d="M 279.900974 279.780947 
L 284.360485 279.445157 
L 281.953411 283.21424 
L 279.900974 279.780947 
z
" style="fill:#808080;stroke:#808080;stroke-linecap:round;"/>
   </g>
   <g id="patch_32">
    <path clip-path="url(#pf334a5af74)" d="M 204.102789 335.151353 
Q 273.886555 359.339241 342.613944 383.160977 
" style="fill:none;stroke:#808080;stroke-linecap:round;"/>
    <path clip-path="url(#pf334a5af74)" d="M 339.489529 379.961284 
L 342.613944 383.160977 
L 338.179541 383.740693 
L 339.489529 379.961284 
z
" style="fill:#808080;stroke:#808080;stroke-linecap:round;"/>
   </g>
   <g id="patch_33">
    <path clip-path="url(#pf334a5af74)" d="M 188.924665 327.203938 
Q 130.610491 284.597007 73.199062 242.649661 
" style="fill:none;stroke:#808080;stroke-linecap:round;"/>
    <path clip-path="url(#pf334a5af74)" d="M 75.248917 246.624343 
L 73.199062 242.649661 
L 77.608721 243.394587 
L 75.248917 246.624343 
z
" style="fill:#808080;stroke:#808080;stroke-linecap:round;"/>
   </g>
   <g id="patch_34">
    <path clip-path="url(#pf334a5af74)" d="M 305.0285 254.558416 
Q 254.043053 323.25045 203.723955 391.04472 
" style="fill:none;stroke:#808080;stroke-linecap:round;"/>
    <path clip-path="url(#pf334a5af74)" d="M 207.713926 389.024785 
L 203.723955 391.04472 
L 204.50199 386.640783 
L 207.713926 389.024785 
z
" style="fill:#808080;stroke:#808080;stroke-linecap:round;"/>
   </g>
   <g id="patch_35">
    <path clip-path="url(#pf334a5af74)" d="M 302.188474 250.9194 
Q 203.893958 291.656274 106.632289 331.965099 
" style="fill:none;stroke:#808080;stroke-linecap:round;"/>
    <path clip-path="url(#pf334a5af74)" d="M 111.093234 332.281274 
L 106.632289 331.965099 
L 109.561796 328.586048 
L 111.093234 332.281274 
z
" style="fill:#808080;stroke:#808080;stroke-linecap:round;"/>
   </g>
   <g id="patch_36">
    <path clip-path="url(#pf334a5af74)" d="M 312.009707 256.069606 
Q 329.494507 337.477594 346.74453 417.792476 
" style="fill:none;stroke:#808080;stroke-linecap:round;"/>
    <path clip-path="url(#pf334a5af74)" d="M 347.859973 413.461681 
L 346.74453 417.792476 
L 343.949159 414.301645 
L 347.859973 413.461681 
z
" style="fill:#808080;stroke:#808080;stroke-linecap:round;"/>
   </g>
   <g id="patch_37">
    <path clip-path="url(#pf334a5af74)" d="M 308.491079 239.111725 
Q 291.490462 154.204274 274.709347 70.393098 
" style="fill:none;stroke:#808080;stroke-linecap:round;"/>
    <path clip-path="url(#pf334a5af74)" d="M 273.533585 74.707908 
L 274.709347 70.393098 
L 277.455737 73.922594 
L 273.533585 74.707908 
z
" style="fill:#808080;stroke:#808080;stroke-linecap:round;"/>
   </g>
   <g id="PathCollection_1">
    <defs>
     <path d="M 0 11.18034 
C 2.965061 11.18034 5.80908 10.002309 7.905694 7.905694 
C 10.002309 5.80908 11.18034 2.965061 11.18034 -0 
C 11.18034 -2.965061 10.002309 -5.80908 7.905694 -7.905694 
C 5.80908 -10.002309 2.965061 -11.18034 0 -11.18034 
C -2.965061 -11.18034 -5.80908 -10.002309 -7.905694 -7.905694 
C -10.002309 -5.80908 -11.18034 -2.965061 -11.18034 0 
C -11.18034 2.965061 -10.002309 5.80908 -7.905694 7.905694 
C -5.80908 10.002309 -2.965061 11.18034 0 11.18034 
z
" id="C0_0_5033465550"/>
    </defs>
    <g clip-path="url(#pf334a5af74)">
     <use style="fill:#e9e9e9;stroke:#e9e9e9;" x="409.798026" xlink:href="#C0_0_5033465550" y="75.759727"/>
    </g>
    <g clip-path="url(#pf334a5af74)">
     <use style="fill:#f0f0f0;stroke:#f0f0f0;" x="529.622877" xlink:href="#C0_0_5033465550" y="281.297843"/>
    </g>
    <g clip-path="url(#pf334a5af74)">
     <use style="fill:#bfbfbf;stroke:#bfbfbf;" x="533.082062" xlink:href="#C0_0_5033465550" y="382.720374"/>
    </g>
    <g clip-path="url(#pf334a5af74)">
     <use style="fill:#f3f3f3;stroke:#f3f3f3;" x="510.198684" xlink:href="#C0_0_5033465550" y="100.958956"/>
    </g>
    <g clip-path="url(#pf334a5af74)">
     <use style="fill:#d6d6d6;stroke:#d6d6d6;" x="522.099028" xlink:href="#C0_0_5033465550" y="267.327046"/>
    </g>
    <g clip-path="url(#pf334a5af74)">
     <use style="fill:#e6e6e6;stroke:#e6e6e6;" x="71.654173" xlink:href="#C0_0_5033465550" y="258.582538"/>
    </g>
    <g clip-path="url(#pf334a5af74)">
     <use style="fill:#d6d6d6;stroke:#d6d6d6;" x="198.164727" xlink:href="#C0_0_5033465550" y="264.306852"/>
    </g>
    <g clip-path="url(#pf334a5af74)">
     <use style="fill:#e7e7e7;stroke:#e7e7e7;" x="197.896861" xlink:href="#C0_0_5033465550" y="398.895488"/>
    </g>
    <g clip-path="url(#pf334a5af74)">
     <use style="fill:#e7e7e7;stroke:#e7e7e7;" x="567.647688" xlink:href="#C0_0_5033465550" y="335.558024"/>
    </g>
    <g clip-path="url(#pf334a5af74)">
     <use style="fill:#f3f3f3;stroke:#f3f3f3;" x="602.722152" xlink:href="#C0_0_5033465550" y="206.269384"/>
    </g>
    <g clip-path="url(#pf334a5af74)">
     <use style="fill:#e7e7e7;stroke:#e7e7e7;" x="306.421237" xlink:href="#C0_0_5033465550" y="89.248353"/>
    </g>
    <g clip-path="url(#pf334a5af74)">
     <use style="fill:#e7e7e7;stroke:#e7e7e7;" x="567.118943" xlink:href="#C0_0_5033465550" y="133.118705"/>
    </g>
    <g clip-path="url(#pf334a5af74)">
     <use style="fill:#5f5f5f;stroke:#5f5f5f;" x="387.989705" xlink:href="#C0_0_5033465550" y="266.34604"/>
    </g>
    <g clip-path="url(#pf334a5af74)">
     <use style="fill:#c2c2c2;stroke:#c2c2c2;" x="618.694215" xlink:href="#C0_0_5033465550" y="251.855824"/>
    </g>
    <g clip-path="url(#pf334a5af74)">
     <use style="fill:#c2c2c2;stroke:#c2c2c2;" x="261.075906" xlink:href="#C0_0_5033465550" y="204.475131"/>
    </g>
    <g clip-path="url(#pf334a5af74)">
     <use style="fill:#c2c2c2;stroke:#c2c2c2;" x="600.473467" xlink:href="#C0_0_5033465550" y="291.701436"/>
    </g>
    <g clip-path="url(#pf334a5af74)">
     <use style="fill:#ababab;stroke:#ababab;" x="162.728654" xlink:href="#C0_0_5033465550" y="142.307116"/>
    </g>
    <g clip-path="url(#pf334a5af74)">
     <use style="fill:#e6e6e6;stroke:#e6e6e6;" x="356.473563" xlink:href="#C0_0_5033465550" y="192.183536"/>
    </g>
    <g clip-path="url(#pf334a5af74)">
     <use style="fill:#d7d7d7;stroke:#d7d7d7;" x="91.974365" xlink:href="#C0_0_5033465550" y="234.129224"/>
    </g>
    <g clip-path="url(#pf334a5af74)">
     <use style="fill:#979797;stroke:#979797;" x="270.787814" xlink:href="#C0_0_5033465550" y="409.647343"/>
    </g>
    <g clip-path="url(#pf334a5af74)">
     <use style="fill:#959595;stroke:#959595;" x="356.835825" xlink:href="#C0_0_5033465550" y="104.645633"/>
    </g>
    <g clip-path="url(#pf334a5af74)">
     <use style="fill:#959595;stroke:#959595;" x="518.975506" xlink:href="#C0_0_5033465550" y="175.378186"/>
    </g>
    <g clip-path="url(#pf334a5af74)">
     <use style="fill:#c3c3c3;stroke:#c3c3c3;" x="292.754866" xlink:href="#C0_0_5033465550" y="274.426961"/>
    </g>
    <g clip-path="url(#pf334a5af74)">
     <use style="fill:#c3c3c3;stroke:#c3c3c3;" x="351.854182" xlink:href="#C0_0_5033465550" y="386.363754"/>
    </g>
    <g clip-path="url(#pf334a5af74)">
     <use style="fill:#c3c3c3;stroke:#c3c3c3;" x="65.305785" xlink:href="#C0_0_5033465550" y="236.882481"/>
    </g>
    <g clip-path="url(#pf334a5af74)">
     <use style="fill:#e7e7e7;stroke:#e7e7e7;" x="159.770226" xlink:href="#C0_0_5033465550" y="85.714958"/>
    </g>
    <g clip-path="url(#pf334a5af74)">
     <use style="fill:#e7e7e7;stroke:#e7e7e7;" x="132.623032" xlink:href="#C0_0_5033465550" y="378.458662"/>
    </g>
    <g clip-path="url(#pf334a5af74)">
     <use style="fill:#797979;stroke:#797979;" x="195.920155" xlink:href="#C0_0_5033465550" y="332.315154"/>
    </g>
    <g clip-path="url(#pf334a5af74)">
     <use style="fill:#b0b0b0;stroke:#b0b0b0;" x="310.191202" xlink:href="#C0_0_5033465550" y="247.602774"/>
    </g>
    <g clip-path="url(#pf334a5af74)">
     <use style="fill:#e7e7e7;stroke:#e7e7e7;" x="97.598272" xlink:href="#C0_0_5033465550" y="335.709129"/>
    </g>
    <g clip-path="url(#pf334a5af74)">
     <use style="fill:#e7e7e7;stroke:#e7e7e7;" x="348.797477" xlink:href="#C0_0_5033465550" y="427.350852"/>
    </g>
    <g clip-path="url(#pf334a5af74)">
     <use style="fill:#e7e7e7;stroke:#e7e7e7;" x="272.789647" xlink:href="#C0_0_5033465550" y="60.805398"/>
    </g>
   </g>
   <g id="text_1">
    <g clip-path="url(#pf334a5af74)">
     <!-- APC -->
     <g transform="translate(399.871464 78.519102)scale(0.1 -0.1)">
      <defs>
       <path d="M 34.1875 63.1875 
L 20.796875 26.90625 
L 47.609375 26.90625 
z
M 28.609375 72.90625 
L 39.796875 72.90625 
L 67.578125 0 
L 57.328125 0 
L 50.6875 18.703125 
L 17.828125 18.703125 
L 11.1875 0 
L 0.78125 0 
z
" id="DejaVuSans-65"/>
       <path d="M 19.671875 64.796875 
L 19.671875 37.40625 
L 32.078125 37.40625 
Q 38.96875 37.40625 42.71875 40.96875 
Q 46.484375 44.53125 46.484375 51.125 
Q 46.484375 57.671875 42.71875 61.234375 
Q 38.96875 64.796875 32.078125 64.796875 
z
M 9.8125 72.90625 
L 32.078125 72.90625 
Q 44.34375 72.90625 50.609375 67.359375 
Q 56.890625 61.8125 56.890625 51.125 
Q 56.890625 40.328125 50.609375 34.8125 
Q 44.34375 29.296875 32.078125 29.296875 
L 19.671875 29.296875 
L 19.671875 0 
L 9.8125 0 
z
" id="DejaVuSans-80"/>
       <path d="M 64.40625 67.28125 
L 64.40625 56.890625 
Q 59.421875 61.53125 53.78125 63.8125 
Q 48.140625 66.109375 41.796875 66.109375 
Q 29.296875 66.109375 22.65625 58.46875 
Q 16.015625 50.828125 16.015625 36.375 
Q 16.015625 21.96875 22.65625 14.328125 
Q 29.296875 6.6875 41.796875 6.6875 
Q 48.140625 6.6875 53.78125 8.984375 
Q 59.421875 11.28125 64.40625 15.921875 
L 64.40625 5.609375 
Q 59.234375 2.09375 53.4375 0.328125 
Q 47.65625 -1.421875 41.21875 -1.421875 
Q 24.65625 -1.421875 15.125 8.703125 
Q 5.609375 18.84375 5.609375 36.375 
Q 5.609375 53.953125 15.125 64.078125 
Q 24.65625 74.21875 41.21875 74.21875 
Q 47.75 74.21875 53.53125 72.484375 
Q 59.328125 70.75 64.40625 67.28125 
z
" id="DejaVuSans-67"/>
      </defs>
      <use xlink:href="#DejaVuSans-65"/>
      <use x="68.408203" xlink:href="#DejaVuSans-80"/>
      <use x="128.710938" xlink:href="#DejaVuSans-67"/>
     </g>
    </g>
   </g>
   <g id="text_2">
    <g clip-path="url(#pf334a5af74)">
     <!-- CTNNB1 -->
     <g transform="translate(508.984596 284.057218)scale(0.1 -0.1)">
      <defs>
       <path d="M -0.296875 72.90625 
L 61.375 72.90625 
L 61.375 64.59375 
L 35.5 64.59375 
L 35.5 0 
L 25.59375 0 
L 25.59375 64.59375 
L -0.296875 64.59375 
z
" id="DejaVuSans-84"/>
       <path d="M 9.8125 72.90625 
L 23.09375 72.90625 
L 55.421875 11.921875 
L 55.421875 72.90625 
L 64.984375 72.90625 
L 64.984375 0 
L 51.703125 0 
L 19.390625 60.984375 
L 19.390625 0 
L 9.8125 0 
z
" id="DejaVuSans-78"/>
       <path d="M 19.671875 34.8125 
L 19.671875 8.109375 
L 35.5 8.109375 
Q 43.453125 8.109375 47.28125 11.40625 
Q 51.125 14.703125 51.125 21.484375 
Q 51.125 28.328125 47.28125 31.5625 
Q 43.453125 34.8125 35.5 34.8125 
z
M 19.671875 64.796875 
L 19.671875 42.828125 
L 34.28125 42.828125 
Q 41.5 42.828125 45.03125 45.53125 
Q 48.578125 48.25 48.578125 53.8125 
Q 48.578125 59.328125 45.03125 62.0625 
Q 41.5 64.796875 34.28125 64.796875 
z
M 9.8125 72.90625 
L 35.015625 72.90625 
Q 46.296875 72.90625 52.390625 68.21875 
Q 58.5 63.53125 58.5 54.890625 
Q 58.5 48.1875 55.375 44.234375 
Q 52.25 40.28125 46.1875 39.3125 
Q 53.46875 37.75 57.5 32.78125 
Q 61.53125 27.828125 61.53125 20.40625 
Q 61.53125 10.640625 54.890625 5.3125 
Q 48.25 0 35.984375 0 
L 9.8125 0 
z
" id="DejaVuSans-66"/>
       <path d="M 12.40625 8.296875 
L 28.515625 8.296875 
L 28.515625 63.921875 
L 10.984375 60.40625 
L 10.984375 69.390625 
L 28.421875 72.90625 
L 38.28125 72.90625 
L 38.28125 8.296875 
L 54.390625 8.296875 
L 54.390625 0 
L 12.40625 0 
z
" id="DejaVuSans-49"/>
      </defs>
      <use xlink:href="#DejaVuSans-67"/>
      <use x="69.824219" xlink:href="#DejaVuSans-84"/>
      <use x="130.908203" xlink:href="#DejaVuSans-78"/>
      <use x="205.712891" xlink:href="#DejaVuSans-78"/>
      <use x="280.517578" xlink:href="#DejaVuSans-66"/>
      <use x="349.121094" xlink:href="#DejaVuSans-49"/>
     </g>
    </g>
   </g>
   <g id="text_3">
    <g clip-path="url(#pf334a5af74)">
     <!-- GSK3B -->
     <g transform="translate(516.143 385.479749)scale(0.1 -0.1)">
      <defs>
       <path d="M 59.515625 10.40625 
L 59.515625 29.984375 
L 43.40625 29.984375 
L 43.40625 38.09375 
L 69.28125 38.09375 
L 69.28125 6.78125 
Q 63.578125 2.734375 56.6875 0.65625 
Q 49.8125 -1.421875 42 -1.421875 
Q 24.90625 -1.421875 15.25 8.5625 
Q 5.609375 18.5625 5.609375 36.375 
Q 5.609375 54.25 15.25 64.234375 
Q 24.90625 74.21875 42 74.21875 
Q 49.125 74.21875 55.546875 72.453125 
Q 61.96875 70.703125 67.390625 67.28125 
L 67.390625 56.78125 
Q 61.921875 61.421875 55.765625 63.765625 
Q 49.609375 66.109375 42.828125 66.109375 
Q 29.4375 66.109375 22.71875 58.640625 
Q 16.015625 51.171875 16.015625 36.375 
Q 16.015625 21.625 22.71875 14.15625 
Q 29.4375 6.6875 42.828125 6.6875 
Q 48.046875 6.6875 52.140625 7.59375 
Q 56.25 8.5 59.515625 10.40625 
z
" id="DejaVuSans-71"/>
       <path d="M 53.515625 70.515625 
L 53.515625 60.890625 
Q 47.90625 63.578125 42.921875 64.890625 
Q 37.9375 66.21875 33.296875 66.21875 
Q 25.25 66.21875 20.875 63.09375 
Q 16.5 59.96875 16.5 54.203125 
Q 16.5 49.359375 19.40625 46.890625 
Q 22.3125 44.4375 30.421875 42.921875 
L 36.375 41.703125 
Q 47.40625 39.59375 52.65625 34.296875 
Q 57.90625 29 57.90625 20.125 
Q 57.90625 9.515625 50.796875 4.046875 
Q 43.703125 -1.421875 29.984375 -1.421875 
Q 24.8125 -1.421875 18.96875 -0.25 
Q 13.140625 0.921875 6.890625 3.21875 
L 6.890625 13.375 
Q 12.890625 10.015625 18.65625 8.296875 
Q 24.421875 6.59375 29.984375 6.59375 
Q 38.421875 6.59375 43.015625 9.90625 
Q 47.609375 13.234375 47.609375 19.390625 
Q 47.609375 24.75 44.3125 27.78125 
Q 41.015625 30.8125 33.5 32.328125 
L 27.484375 33.5 
Q 16.453125 35.6875 11.515625 40.375 
Q 6.59375 45.0625 6.59375 53.421875 
Q 6.59375 63.09375 13.40625 68.65625 
Q 20.21875 74.21875 32.171875 74.21875 
Q 37.3125 74.21875 42.625 73.28125 
Q 47.953125 72.359375 53.515625 70.515625 
z
" id="DejaVuSans-83"/>
       <path d="M 9.8125 72.90625 
L 19.671875 72.90625 
L 19.671875 42.09375 
L 52.390625 72.90625 
L 65.09375 72.90625 
L 28.90625 38.921875 
L 67.671875 0 
L 54.6875 0 
L 19.671875 35.109375 
L 19.671875 0 
L 9.8125 0 
z
" id="DejaVuSans-75"/>
       <path d="M 40.578125 39.3125 
Q 47.65625 37.796875 51.625 33 
Q 55.609375 28.21875 55.609375 21.1875 
Q 55.609375 10.40625 48.1875 4.484375 
Q 40.765625 -1.421875 27.09375 -1.421875 
Q 22.515625 -1.421875 17.65625 -0.515625 
Q 12.796875 0.390625 7.625 2.203125 
L 7.625 11.71875 
Q 11.71875 9.328125 16.59375 8.109375 
Q 21.484375 6.890625 26.8125 6.890625 
Q 36.078125 6.890625 40.9375 10.546875 
Q 45.796875 14.203125 45.796875 21.1875 
Q 45.796875 27.640625 41.28125 31.265625 
Q 36.765625 34.90625 28.71875 34.90625 
L 20.21875 34.90625 
L 20.21875 43.015625 
L 29.109375 43.015625 
Q 36.375 43.015625 40.234375 45.921875 
Q 44.09375 48.828125 44.09375 54.296875 
Q 44.09375 59.90625 40.109375 62.90625 
Q 36.140625 65.921875 28.71875 65.921875 
Q 24.65625 65.921875 20.015625 65.03125 
Q 15.375 64.15625 9.8125 62.3125 
L 9.8125 71.09375 
Q 15.4375 72.65625 20.34375 73.4375 
Q 25.25 74.21875 29.59375 74.21875 
Q 40.828125 74.21875 47.359375 69.109375 
Q 53.90625 64.015625 53.90625 55.328125 
Q 53.90625 49.265625 50.4375 45.09375 
Q 46.96875 40.921875 40.578125 39.3125 
z
" id="DejaVuSans-51"/>
      </defs>
      <use xlink:href="#DejaVuSans-71"/>
      <use x="77.490234" xlink:href="#DejaVuSans-83"/>
      <use x="140.966797" xlink:href="#DejaVuSans-75"/>
      <use x="206.542969" xlink:href="#DejaVuSans-51"/>
      <use x="270.166016" xlink:href="#DejaVuSans-66"/>
     </g>
    </g>
   </g>
   <g id="text_4">
    <g clip-path="url(#pf334a5af74)">
     <!-- TCF7 -->
     <g transform="translate(497.89009 103.718331)scale(0.1 -0.1)">
      <defs>
       <path d="M 9.8125 72.90625 
L 51.703125 72.90625 
L 51.703125 64.59375 
L 19.671875 64.59375 
L 19.671875 43.109375 
L 48.578125 43.109375 
L 48.578125 34.8125 
L 19.671875 34.8125 
L 19.671875 0 
L 9.8125 0 
z
" id="DejaVuSans-70"/>
       <path d="M 8.203125 72.90625 
L 55.078125 72.90625 
L 55.078125 68.703125 
L 28.609375 0 
L 18.3125 0 
L 43.21875 64.59375 
L 8.203125 64.59375 
z
" id="DejaVuSans-55"/>
      </defs>
      <use xlink:href="#DejaVuSans-84"/>
      <use x="55.208984" xlink:href="#DejaVuSans-67"/>
      <use x="125.033203" xlink:href="#DejaVuSans-70"/>
      <use x="182.552734" xlink:href="#DejaVuSans-55"/>
     </g>
    </g>
   </g>
   <g id="text_5">
    <g clip-path="url(#pf334a5af74)">
     <!-- STAT3 -->
     <g transform="translate(506.990435 270.086421)scale(0.1 -0.1)">
      <use xlink:href="#DejaVuSans-83"/>
      <use x="63.476562" xlink:href="#DejaVuSans-84"/>
      <use x="116.810547" xlink:href="#DejaVuSans-65"/>
      <use x="177.46875" xlink:href="#DejaVuSans-84"/>
      <use x="238.552734" xlink:href="#DejaVuSans-51"/>
     </g>
    </g>
   </g>
   <g id="text_6">
    <g clip-path="url(#pf334a5af74)">
     <!-- GRB2 -->
     <g transform="translate(57.694016 261.341913)scale(0.1 -0.1)">
      <defs>
       <path d="M 44.390625 34.1875 
Q 47.5625 33.109375 50.5625 29.59375 
Q 53.5625 26.078125 56.59375 19.921875 
L 66.609375 0 
L 56 0 
L 46.6875 18.703125 
Q 43.0625 26.03125 39.671875 28.421875 
Q 36.28125 30.8125 30.421875 30.8125 
L 19.671875 30.8125 
L 19.671875 0 
L 9.8125 0 
L 9.8125 72.90625 
L 32.078125 72.90625 
Q 44.578125 72.90625 50.734375 67.671875 
Q 56.890625 62.453125 56.890625 51.90625 
Q 56.890625 45.015625 53.6875 40.46875 
Q 50.484375 35.9375 44.390625 34.1875 
z
M 19.671875 64.796875 
L 19.671875 38.921875 
L 32.078125 38.921875 
Q 39.203125 38.921875 42.84375 42.21875 
Q 46.484375 45.515625 46.484375 51.90625 
Q 46.484375 58.296875 42.84375 61.546875 
Q 39.203125 64.796875 32.078125 64.796875 
z
" id="DejaVuSans-82"/>
       <path d="M 19.1875 8.296875 
L 53.609375 8.296875 
L 53.609375 0 
L 7.328125 0 
L 7.328125 8.296875 
Q 12.9375 14.109375 22.625 23.890625 
Q 32.328125 33.6875 34.8125 36.53125 
Q 39.546875 41.84375 41.421875 45.53125 
Q 43.3125 49.21875 43.3125 52.78125 
Q 43.3125 58.59375 39.234375 62.25 
Q 35.15625 65.921875 28.609375 65.921875 
Q 23.96875 65.921875 18.8125 64.3125 
Q 13.671875 62.703125 7.8125 59.421875 
L 7.8125 69.390625 
Q 13.765625 71.78125 18.9375 73 
Q 24.125 74.21875 28.421875 74.21875 
Q 39.75 74.21875 46.484375 68.546875 
Q 53.21875 62.890625 53.21875 53.421875 
Q 53.21875 48.921875 51.53125 44.890625 
Q 49.859375 40.875 45.40625 35.40625 
Q 44.1875 33.984375 37.640625 27.21875 
Q 31.109375 20.453125 19.1875 8.296875 
z
" id="DejaVuSans-50"/>
      </defs>
      <use xlink:href="#DejaVuSans-71"/>
      <use x="77.490234" xlink:href="#DejaVuSans-82"/>
      <use x="146.972656" xlink:href="#DejaVuSans-66"/>
      <use x="215.576172" xlink:href="#DejaVuSans-50"/>
     </g>
    </g>
   </g>
   <g id="text_7">
    <g clip-path="url(#pf334a5af74)">
     <!-- RAF1 -->
     <g transform="translate(185.413165 267.066227)scale(0.1 -0.1)">
      <use xlink:href="#DejaVuSans-82"/>
      <use x="65.482422" xlink:href="#DejaVuSans-65"/>
      <use x="133.890625" xlink:href="#DejaVuSans-70"/>
      <use x="191.410156" xlink:href="#DejaVuSans-49"/>
     </g>
    </g>
   </g>
   <g id="text_8">
    <g clip-path="url(#pf334a5af74)">
     <!-- SMAD4 -->
     <g transform="translate(179.957018 401.654863)scale(0.1 -0.1)">
      <defs>
       <path d="M 9.8125 72.90625 
L 24.515625 72.90625 
L 43.109375 23.296875 
L 61.8125 72.90625 
L 76.515625 72.90625 
L 76.515625 0 
L 66.890625 0 
L 66.890625 64.015625 
L 48.09375 14.015625 
L 38.1875 14.015625 
L 19.390625 64.015625 
L 19.390625 0 
L 9.8125 0 
z
" id="DejaVuSans-77"/>
       <path d="M 19.671875 64.796875 
L 19.671875 8.109375 
L 31.59375 8.109375 
Q 46.6875 8.109375 53.6875 14.9375 
Q 60.6875 21.78125 60.6875 36.53125 
Q 60.6875 51.171875 53.6875 57.984375 
Q 46.6875 64.796875 31.59375 64.796875 
z
M 9.8125 72.90625 
L 30.078125 72.90625 
Q 51.265625 72.90625 61.171875 64.09375 
Q 71.09375 55.28125 71.09375 36.53125 
Q 71.09375 17.671875 61.125 8.828125 
Q 51.171875 0 30.078125 0 
L 9.8125 0 
z
" id="DejaVuSans-68"/>
       <path d="M 37.796875 64.3125 
L 12.890625 25.390625 
L 37.796875 25.390625 
z
M 35.203125 72.90625 
L 47.609375 72.90625 
L 47.609375 25.390625 
L 58.015625 25.390625 
L 58.015625 17.1875 
L 47.609375 17.1875 
L 47.609375 0 
L 37.796875 0 
L 37.796875 17.1875 
L 4.890625 17.1875 
L 4.890625 26.703125 
z
" id="DejaVuSans-52"/>
      </defs>
      <use xlink:href="#DejaVuSans-83"/>
      <use x="63.476562" xlink:href="#DejaVuSans-77"/>
      <use x="149.755859" xlink:href="#DejaVuSans-65"/>
      <use x="218.164062" xlink:href="#DejaVuSans-68"/>
      <use x="295.166016" xlink:href="#DejaVuSans-52"/>
     </g>
    </g>
   </g>
   <g id="text_9">
    <g clip-path="url(#pf334a5af74)">
     <!-- MYC -->
     <g transform="translate(557.063313 338.317399)scale(0.1 -0.1)">
      <defs>
       <path d="M -0.203125 72.90625 
L 10.40625 72.90625 
L 30.609375 42.921875 
L 50.6875 72.90625 
L 61.28125 72.90625 
L 35.5 34.71875 
L 35.5 0 
L 25.59375 0 
L 25.59375 34.71875 
z
" id="DejaVuSans-89"/>
      </defs>
      <use xlink:href="#DejaVuSans-77"/>
      <use x="86.279297" xlink:href="#DejaVuSans-89"/>
      <use x="141.863281" xlink:href="#DejaVuSans-67"/>
     </g>
    </g>
   </g>
   <g id="text_10">
    <g clip-path="url(#pf334a5af74)">
     <!-- TCF3 -->
     <g transform="translate(590.413558 209.028759)scale(0.1 -0.1)">
      <use xlink:href="#DejaVuSans-84"/>
      <use x="55.208984" xlink:href="#DejaVuSans-67"/>
      <use x="125.033203" xlink:href="#DejaVuSans-70"/>
      <use x="182.552734" xlink:href="#DejaVuSans-51"/>
     </g>
    </g>
   </g>
   <g id="text_11">
    <g clip-path="url(#pf334a5af74)">
     <!-- AXIN1 -->
     <g transform="translate(291.17905 92.007728)scale(0.1 -0.1)">
      <defs>
       <path d="M 6.296875 72.90625 
L 16.890625 72.90625 
L 35.015625 45.796875 
L 53.21875 72.90625 
L 63.8125 72.90625 
L 40.375 37.890625 
L 65.375 0 
L 54.78125 0 
L 34.28125 31 
L 13.625 0 
L 2.984375 0 
L 29 38.921875 
z
" id="DejaVuSans-88"/>
       <path d="M 9.8125 72.90625 
L 19.671875 72.90625 
L 19.671875 0 
L 9.8125 0 
z
" id="DejaVuSans-73"/>
      </defs>
      <use xlink:href="#DejaVuSans-65"/>
      <use x="68.408203" xlink:href="#DejaVuSans-88"/>
      <use x="136.914062" xlink:href="#DejaVuSans-73"/>
      <use x="166.40625" xlink:href="#DejaVuSans-78"/>
      <use x="241.210938" xlink:href="#DejaVuSans-49"/>
     </g>
    </g>
   </g>
   <g id="text_12">
    <g clip-path="url(#pf334a5af74)">
     <!-- AXIN2 -->
     <g transform="translate(551.876756 135.87808)scale(0.1 -0.1)">
      <use xlink:href="#DejaVuSans-65"/>
      <use x="68.408203" xlink:href="#DejaVuSans-88"/>
      <use x="136.914062" xlink:href="#DejaVuSans-73"/>
      <use x="166.40625" xlink:href="#DejaVuSans-78"/>
      <use x="241.210938" xlink:href="#DejaVuSans-50"/>
     </g>
    </g>
   </g>
   <g id="text_13">
    <g clip-path="url(#pf334a5af74)">
     <!-- IL6ST -->
     <g transform="translate(374.319392 269.105415)scale(0.1 -0.1)">
      <defs>
       <path d="M 9.8125 72.90625 
L 19.671875 72.90625 
L 19.671875 8.296875 
L 55.171875 8.296875 
L 55.171875 0 
L 9.8125 0 
z
" id="DejaVuSans-76"/>
       <path d="M 33.015625 40.375 
Q 26.375 40.375 22.484375 35.828125 
Q 18.609375 31.296875 18.609375 23.390625 
Q 18.609375 15.53125 22.484375 10.953125 
Q 26.375 6.390625 33.015625 6.390625 
Q 39.65625 6.390625 43.53125 10.953125 
Q 47.40625 15.53125 47.40625 23.390625 
Q 47.40625 31.296875 43.53125 35.828125 
Q 39.65625 40.375 33.015625 40.375 
z
M 52.59375 71.296875 
L 52.59375 62.3125 
Q 48.875 64.0625 45.09375 64.984375 
Q 41.3125 65.921875 37.59375 65.921875 
Q 27.828125 65.921875 22.671875 59.328125 
Q 17.53125 52.734375 16.796875 39.40625 
Q 19.671875 43.65625 24.015625 45.921875 
Q 28.375 48.1875 33.59375 48.1875 
Q 44.578125 48.1875 50.953125 41.515625 
Q 57.328125 34.859375 57.328125 23.390625 
Q 57.328125 12.15625 50.6875 5.359375 
Q 44.046875 -1.421875 33.015625 -1.421875 
Q 20.359375 -1.421875 13.671875 8.265625 
Q 6.984375 17.96875 6.984375 36.375 
Q 6.984375 53.65625 15.1875 63.9375 
Q 23.390625 74.21875 37.203125 74.21875 
Q 40.921875 74.21875 44.703125 73.484375 
Q 48.484375 72.75 52.59375 71.296875 
z
" id="DejaVuSans-54"/>
      </defs>
      <use xlink:href="#DejaVuSans-73"/>
      <use x="29.492188" xlink:href="#DejaVuSans-76"/>
      <use x="85.205078" xlink:href="#DejaVuSans-54"/>
      <use x="148.828125" xlink:href="#DejaVuSans-83"/>
      <use x="212.304688" xlink:href="#DejaVuSans-84"/>
     </g>
    </g>
   </g>
   <g id="text_14">
    <g clip-path="url(#pf334a5af74)">
     <!-- JAK1 -->
     <g transform="translate(607.426246 254.615199)scale(0.1 -0.1)">
      <defs>
       <path d="M 9.8125 72.90625 
L 19.671875 72.90625 
L 19.671875 5.078125 
Q 19.671875 -8.109375 14.671875 -14.0625 
Q 9.671875 -20.015625 -1.421875 -20.015625 
L -5.171875 -20.015625 
L -5.171875 -11.71875 
L -2.09375 -11.71875 
Q 4.4375 -11.71875 7.125 -8.046875 
Q 9.8125 -4.390625 9.8125 5.078125 
z
" id="DejaVuSans-74"/>
      </defs>
      <use xlink:href="#DejaVuSans-74"/>
      <use x="27.742188" xlink:href="#DejaVuSans-65"/>
      <use x="96.150391" xlink:href="#DejaVuSans-75"/>
      <use x="161.726562" xlink:href="#DejaVuSans-49"/>
     </g>
    </g>
   </g>
   <g id="text_15">
    <g clip-path="url(#pf334a5af74)">
     <!-- JAK2 -->
     <g transform="translate(249.807938 207.234506)scale(0.1 -0.1)">
      <use xlink:href="#DejaVuSans-74"/>
      <use x="27.742188" xlink:href="#DejaVuSans-65"/>
      <use x="96.150391" xlink:href="#DejaVuSans-75"/>
      <use x="161.726562" xlink:href="#DejaVuSans-50"/>
     </g>
    </g>
   </g>
   <g id="text_16">
    <g clip-path="url(#pf334a5af74)">
     <!-- JAK3 -->
     <g transform="translate(589.205499 294.460811)scale(0.1 -0.1)">
      <use xlink:href="#DejaVuSans-74"/>
      <use x="27.742188" xlink:href="#DejaVuSans-65"/>
      <use x="96.150391" xlink:href="#DejaVuSans-75"/>
      <use x="161.726562" xlink:href="#DejaVuSans-51"/>
     </g>
    </g>
   </g>
   <g id="text_17">
    <g clip-path="url(#pf334a5af74)">
     <!-- ACVR2A -->
     <g transform="translate(142.408341 145.066491)scale(0.1 -0.1)">
      <defs>
       <path d="M 28.609375 0 
L 0.78125 72.90625 
L 11.078125 72.90625 
L 34.1875 11.53125 
L 57.328125 72.90625 
L 67.578125 72.90625 
L 39.796875 0 
z
" id="DejaVuSans-86"/>
      </defs>
      <use xlink:href="#DejaVuSans-65"/>
      <use x="66.658203" xlink:href="#DejaVuSans-67"/>
      <use x="136.482422" xlink:href="#DejaVuSans-86"/>
      <use x="204.890625" xlink:href="#DejaVuSans-82"/>
      <use x="274.373047" xlink:href="#DejaVuSans-50"/>
      <use x="337.996094" xlink:href="#DejaVuSans-65"/>
     </g>
    </g>
   </g>
   <g id="text_18">
    <g clip-path="url(#pf334a5af74)">
     <!-- SMAD2 -->
     <g transform="translate(338.533719 194.942911)scale(0.1 -0.1)">
      <use xlink:href="#DejaVuSans-83"/>
      <use x="63.476562" xlink:href="#DejaVuSans-77"/>
      <use x="149.755859" xlink:href="#DejaVuSans-65"/>
      <use x="218.164062" xlink:href="#DejaVuSans-68"/>
      <use x="295.166016" xlink:href="#DejaVuSans-50"/>
     </g>
    </g>
   </g>
   <g id="text_19">
    <g clip-path="url(#pf334a5af74)">
     <!-- SMAD3 -->
     <g transform="translate(74.034521 236.888599)scale(0.1 -0.1)">
      <use xlink:href="#DejaVuSans-83"/>
      <use x="63.476562" xlink:href="#DejaVuSans-77"/>
      <use x="149.755859" xlink:href="#DejaVuSans-65"/>
      <use x="218.164062" xlink:href="#DejaVuSans-68"/>
      <use x="295.166016" xlink:href="#DejaVuSans-51"/>
     </g>
    </g>
   </g>
   <g id="text_20">
    <g clip-path="url(#pf334a5af74)">
     <!-- BMPR1A -->
     <g transform="translate(249.952658 412.406718)scale(0.1 -0.1)">
      <use xlink:href="#DejaVuSans-66"/>
      <use x="68.603516" xlink:href="#DejaVuSans-77"/>
      <use x="154.882812" xlink:href="#DejaVuSans-80"/>
      <use x="215.185547" xlink:href="#DejaVuSans-82"/>
      <use x="284.667969" xlink:href="#DejaVuSans-49"/>
      <use x="348.291016" xlink:href="#DejaVuSans-65"/>
     </g>
    </g>
   </g>
   <g id="text_21">
    <g clip-path="url(#pf334a5af74)">
     <!-- ACVR1 -->
     <g transform="translate(339.935825 107.405008)scale(0.1 -0.1)">
      <use xlink:href="#DejaVuSans-65"/>
      <use x="66.658203" xlink:href="#DejaVuSans-67"/>
      <use x="136.482422" xlink:href="#DejaVuSans-86"/>
      <use x="204.890625" xlink:href="#DejaVuSans-82"/>
      <use x="274.373047" xlink:href="#DejaVuSans-49"/>
     </g>
    </g>
   </g>
   <g id="text_22">
    <g clip-path="url(#pf334a5af74)">
     <!-- BMPR2 -->
     <g transform="translate(501.560662 178.137561)scale(0.1 -0.1)">
      <use xlink:href="#DejaVuSans-66"/>
      <use x="68.603516" xlink:href="#DejaVuSans-77"/>
      <use x="154.882812" xlink:href="#DejaVuSans-80"/>
      <use x="215.185547" xlink:href="#DejaVuSans-82"/>
      <use x="284.667969" xlink:href="#DejaVuSans-50"/>
     </g>
    </g>
   </g>
   <g id="text_23">
    <g clip-path="url(#pf334a5af74)">
     <!-- HRAS -->
     <g transform="translate(279.12596 277.186336)scale(0.1 -0.1)">
      <defs>
       <path d="M 9.8125 72.90625 
L 19.671875 72.90625 
L 19.671875 43.015625 
L 55.515625 43.015625 
L 55.515625 72.90625 
L 65.375 72.90625 
L 65.375 0 
L 55.515625 0 
L 55.515625 34.71875 
L 19.671875 34.71875 
L 19.671875 0 
L 9.8125 0 
z
" id="DejaVuSans-72"/>
      </defs>
      <use xlink:href="#DejaVuSans-72"/>
      <use x="75.195312" xlink:href="#DejaVuSans-82"/>
      <use x="140.677734" xlink:href="#DejaVuSans-65"/>
      <use x="209.085938" xlink:href="#DejaVuSans-83"/>
     </g>
    </g>
   </g>
   <g id="text_24">
    <g clip-path="url(#pf334a5af74)">
     <!-- KRAS -->
     <g transform="translate(338.706526 389.123129)scale(0.1 -0.1)">
      <use xlink:href="#DejaVuSans-75"/>
      <use x="65.576172" xlink:href="#DejaVuSans-82"/>
      <use x="131.058594" xlink:href="#DejaVuSans-65"/>
      <use x="199.466797" xlink:href="#DejaVuSans-83"/>
     </g>
    </g>
   </g>
   <g id="text_25">
    <g clip-path="url(#pf334a5af74)">
     <!-- NRAS -->
     <g transform="translate(51.69641 239.641856)scale(0.1 -0.1)">
      <use xlink:href="#DejaVuSans-78"/>
      <use x="74.804688" xlink:href="#DejaVuSans-82"/>
      <use x="140.287109" xlink:href="#DejaVuSans-65"/>
      <use x="208.695312" xlink:href="#DejaVuSans-83"/>
     </g>
    </g>
   </g>
   <g id="text_26">
    <g clip-path="url(#pf334a5af74)">
     <!-- MAP2K1 -->
     <g transform="translate(139.379601 88.474333)scale(0.1 -0.1)">
      <use xlink:href="#DejaVuSans-77"/>
      <use x="86.279297" xlink:href="#DejaVuSans-65"/>
      <use x="154.6875" xlink:href="#DejaVuSans-80"/>
      <use x="214.990234" xlink:href="#DejaVuSans-50"/>
      <use x="278.613281" xlink:href="#DejaVuSans-75"/>
      <use x="344.189453" xlink:href="#DejaVuSans-49"/>
     </g>
    </g>
   </g>
   <g id="text_27">
    <g clip-path="url(#pf334a5af74)">
     <!-- MAP2K2 -->
     <g transform="translate(112.232407 381.218037)scale(0.1 -0.1)">
      <use xlink:href="#DejaVuSans-77"/>
      <use x="86.279297" xlink:href="#DejaVuSans-65"/>
      <use x="154.6875" xlink:href="#DejaVuSans-80"/>
      <use x="214.990234" xlink:href="#DejaVuSans-50"/>
      <use x="278.613281" xlink:href="#DejaVuSans-75"/>
      <use x="344.189453" xlink:href="#DejaVuSans-50"/>
     </g>
    </g>
   </g>
   <g id="text_28">
    <g clip-path="url(#pf334a5af74)">
     <!-- FGFR1 -->
     <g transform="translate(179.638905 335.074529)scale(0.1 -0.1)">
      <use xlink:href="#DejaVuSans-70"/>
      <use x="57.519531" xlink:href="#DejaVuSans-71"/>
      <use x="135.009766" xlink:href="#DejaVuSans-70"/>
      <use x="192.529297" xlink:href="#DejaVuSans-82"/>
      <use x="262.011719" xlink:href="#DejaVuSans-49"/>
     </g>
    </g>
   </g>
   <g id="text_29">
    <g clip-path="url(#pf334a5af74)">
     <!-- SMAD5 -->
     <g transform="translate(292.251358 250.362149)scale(0.1 -0.1)">
      <defs>
       <path d="M 10.796875 72.90625 
L 49.515625 72.90625 
L 49.515625 64.59375 
L 19.828125 64.59375 
L 19.828125 46.734375 
Q 21.96875 47.46875 24.109375 47.828125 
Q 26.265625 48.1875 28.421875 48.1875 
Q 40.625 48.1875 47.75 41.5 
Q 54.890625 34.8125 54.890625 23.390625 
Q 54.890625 11.625 47.5625 5.09375 
Q 40.234375 -1.421875 26.90625 -1.421875 
Q 22.3125 -1.421875 17.546875 -0.640625 
Q 12.796875 0.140625 7.71875 1.703125 
L 7.71875 11.625 
Q 12.109375 9.234375 16.796875 8.0625 
Q 21.484375 6.890625 26.703125 6.890625 
Q 35.15625 6.890625 40.078125 11.328125 
Q 45.015625 15.765625 45.015625 23.390625 
Q 45.015625 31 40.078125 35.4375 
Q 35.15625 39.890625 26.703125 39.890625 
Q 22.75 39.890625 18.8125 39.015625 
Q 14.890625 38.140625 10.796875 36.28125 
z
" id="DejaVuSans-53"/>
      </defs>
      <use xlink:href="#DejaVuSans-83"/>
      <use x="63.476562" xlink:href="#DejaVuSans-77"/>
      <use x="149.755859" xlink:href="#DejaVuSans-65"/>
      <use x="218.164062" xlink:href="#DejaVuSans-68"/>
      <use x="295.166016" xlink:href="#DejaVuSans-53"/>
     </g>
    </g>
   </g>
   <g id="text_30">
    <g clip-path="url(#pf334a5af74)">
     <!-- ID1 -->
     <g transform="translate(89.092022 338.468504)scale(0.1 -0.1)">
      <use xlink:href="#DejaVuSans-73"/>
      <use x="29.492188" xlink:href="#DejaVuSans-68"/>
      <use x="106.494141" xlink:href="#DejaVuSans-49"/>
     </g>
    </g>
   </g>
   <g id="text_31">
    <g clip-path="url(#pf334a5af74)">
     <!-- ID2 -->
     <g transform="translate(340.291227 430.110227)scale(0.1 -0.1)">
      <use xlink:href="#DejaVuSans-73"/>
      <use x="29.492188" xlink:href="#DejaVuSans-68"/>
      <use x="106.494141" xlink:href="#DejaVuSans-50"/>
     </g>
    </g>
   </g>
   <g id="text_32">
    <g clip-path="url(#pf334a5af74)">
     <!-- ID3 -->
     <g transform="translate(264.283397 63.564773)scale(0.1 -0.1)">
      <use xlink:href="#DejaVuSans-73"/>
      <use x="29.492188" xlink:href="#DejaVuSans-68"/>
      <use x="106.494141" xlink:href="#DejaVuSans-51"/>
     </g>
    </g>
   </g>
   <g id="text_33">
    <!-- Importance Score for Each Node in the Network -->
    <g transform="translate(198.616875 16.318125)scale(0.12 -0.12)">
     <defs>
      <path d="M 52 44.1875 
Q 55.375 50.25 60.0625 53.125 
Q 64.75 56 71.09375 56 
Q 79.640625 56 84.28125 50.015625 
Q 88.921875 44.046875 88.921875 33.015625 
L 88.921875 0 
L 79.890625 0 
L 79.890625 32.71875 
Q 79.890625 40.578125 77.09375 44.375 
Q 74.3125 48.1875 68.609375 48.1875 
Q 61.625 48.1875 57.5625 43.546875 
Q 53.515625 38.921875 53.515625 30.90625 
L 53.515625 0 
L 44.484375 0 
L 44.484375 32.71875 
Q 44.484375 40.625 41.703125 44.40625 
Q 38.921875 48.1875 33.109375 48.1875 
Q 26.21875 48.1875 22.15625 43.53125 
Q 18.109375 38.875 18.109375 30.90625 
L 18.109375 0 
L 9.078125 0 
L 9.078125 54.6875 
L 18.109375 54.6875 
L 18.109375 46.1875 
Q 21.1875 51.21875 25.484375 53.609375 
Q 29.78125 56 35.6875 56 
Q 41.65625 56 45.828125 52.96875 
Q 50 49.953125 52 44.1875 
z
" id="DejaVuSans-109"/>
      <path d="M 18.109375 8.203125 
L 18.109375 -20.796875 
L 9.078125 -20.796875 
L 9.078125 54.6875 
L 18.109375 54.6875 
L 18.109375 46.390625 
Q 20.953125 51.265625 25.265625 53.625 
Q 29.59375 56 35.59375 56 
Q 45.5625 56 51.78125 48.09375 
Q 58.015625 40.1875 58.015625 27.296875 
Q 58.015625 14.40625 51.78125 6.484375 
Q 45.5625 -1.421875 35.59375 -1.421875 
Q 29.59375 -1.421875 25.265625 0.953125 
Q 20.953125 3.328125 18.109375 8.203125 
z
M 48.6875 27.296875 
Q 48.6875 37.203125 44.609375 42.84375 
Q 40.53125 48.484375 33.40625 48.484375 
Q 26.265625 48.484375 22.1875 42.84375 
Q 18.109375 37.203125 18.109375 27.296875 
Q 18.109375 17.390625 22.1875 11.75 
Q 26.265625 6.109375 33.40625 6.109375 
Q 40.53125 6.109375 44.609375 11.75 
Q 48.6875 17.390625 48.6875 27.296875 
z
" id="DejaVuSans-112"/>
      <path d="M 30.609375 48.390625 
Q 23.390625 48.390625 19.1875 42.75 
Q 14.984375 37.109375 14.984375 27.296875 
Q 14.984375 17.484375 19.15625 11.84375 
Q 23.34375 6.203125 30.609375 6.203125 
Q 37.796875 6.203125 41.984375 11.859375 
Q 46.1875 17.53125 46.1875 27.296875 
Q 46.1875 37.015625 41.984375 42.703125 
Q 37.796875 48.390625 30.609375 48.390625 
z
M 30.609375 56 
Q 42.328125 56 49.015625 48.375 
Q 55.71875 40.765625 55.71875 27.296875 
Q 55.71875 13.875 49.015625 6.21875 
Q 42.328125 -1.421875 30.609375 -1.421875 
Q 18.84375 -1.421875 12.171875 6.21875 
Q 5.515625 13.875 5.515625 27.296875 
Q 5.515625 40.765625 12.171875 48.375 
Q 18.84375 56 30.609375 56 
z
" id="DejaVuSans-111"/>
      <path d="M 41.109375 46.296875 
Q 39.59375 47.171875 37.8125 47.578125 
Q 36.03125 48 33.890625 48 
Q 26.265625 48 22.1875 43.046875 
Q 18.109375 38.09375 18.109375 28.8125 
L 18.109375 0 
L 9.078125 0 
L 9.078125 54.6875 
L 18.109375 54.6875 
L 18.109375 46.1875 
Q 20.953125 51.171875 25.484375 53.578125 
Q 30.03125 56 36.53125 56 
Q 37.453125 56 38.578125 55.875 
Q 39.703125 55.765625 41.0625 55.515625 
z
" id="DejaVuSans-114"/>
      <path d="M 18.3125 70.21875 
L 18.3125 54.6875 
L 36.8125 54.6875 
L 36.8125 47.703125 
L 18.3125 47.703125 
L 18.3125 18.015625 
Q 18.3125 11.328125 20.140625 9.421875 
Q 21.96875 7.515625 27.59375 7.515625 
L 36.8125 7.515625 
L 36.8125 0 
L 27.59375 0 
Q 17.1875 0 13.234375 3.875 
Q 9.28125 7.765625 9.28125 18.015625 
L 9.28125 47.703125 
L 2.6875 47.703125 
L 2.6875 54.6875 
L 9.28125 54.6875 
L 9.28125 70.21875 
z
" id="DejaVuSans-116"/>
      <path d="M 34.28125 27.484375 
Q 23.390625 27.484375 19.1875 25 
Q 14.984375 22.515625 14.984375 16.5 
Q 14.984375 11.71875 18.140625 8.90625 
Q 21.296875 6.109375 26.703125 6.109375 
Q 34.1875 6.109375 38.703125 11.40625 
Q 43.21875 16.703125 43.21875 25.484375 
L 43.21875 27.484375 
z
M 52.203125 31.203125 
L 52.203125 0 
L 43.21875 0 
L 43.21875 8.296875 
Q 40.140625 3.328125 35.546875 0.953125 
Q 30.953125 -1.421875 24.3125 -1.421875 
Q 15.921875 -1.421875 10.953125 3.296875 
Q 6 8.015625 6 15.921875 
Q 6 25.140625 12.171875 29.828125 
Q 18.359375 34.515625 30.609375 34.515625 
L 43.21875 34.515625 
L 43.21875 35.40625 
Q 43.21875 41.609375 39.140625 45 
Q 35.0625 48.390625 27.6875 48.390625 
Q 23 48.390625 18.546875 47.265625 
Q 14.109375 46.140625 10.015625 43.890625 
L 10.015625 52.203125 
Q 14.9375 54.109375 19.578125 55.046875 
Q 24.21875 56 28.609375 56 
Q 40.484375 56 46.34375 49.84375 
Q 52.203125 43.703125 52.203125 31.203125 
z
" id="DejaVuSans-97"/>
      <path d="M 54.890625 33.015625 
L 54.890625 0 
L 45.90625 0 
L 45.90625 32.71875 
Q 45.90625 40.484375 42.875 44.328125 
Q 39.84375 48.1875 33.796875 48.1875 
Q 26.515625 48.1875 22.3125 43.546875 
Q 18.109375 38.921875 18.109375 30.90625 
L 18.109375 0 
L 9.078125 0 
L 9.078125 54.6875 
L 18.109375 54.6875 
L 18.109375 46.1875 
Q 21.34375 51.125 25.703125 53.5625 
Q 30.078125 56 35.796875 56 
Q 45.21875 56 50.046875 50.171875 
Q 54.890625 44.34375 54.890625 33.015625 
z
" id="DejaVuSans-110"/>
      <path d="M 48.78125 52.59375 
L 48.78125 44.1875 
Q 44.96875 46.296875 41.140625 47.34375 
Q 37.3125 48.390625 33.40625 48.390625 
Q 24.65625 48.390625 19.8125 42.84375 
Q 14.984375 37.3125 14.984375 27.296875 
Q 14.984375 17.28125 19.8125 11.734375 
Q 24.65625 6.203125 33.40625 6.203125 
Q 37.3125 6.203125 41.140625 7.25 
Q 44.96875 8.296875 48.78125 10.40625 
L 48.78125 2.09375 
Q 45.015625 0.34375 40.984375 -0.53125 
Q 36.96875 -1.421875 32.421875 -1.421875 
Q 20.0625 -1.421875 12.78125 6.34375 
Q 5.515625 14.109375 5.515625 27.296875 
Q 5.515625 40.671875 12.859375 48.328125 
Q 20.21875 56 33.015625 56 
Q 37.15625 56 41.109375 55.140625 
Q 45.0625 54.296875 48.78125 52.59375 
z
" id="DejaVuSans-99"/>
      <path d="M 56.203125 29.59375 
L 56.203125 25.203125 
L 14.890625 25.203125 
Q 15.484375 15.921875 20.484375 11.0625 
Q 25.484375 6.203125 34.421875 6.203125 
Q 39.59375 6.203125 44.453125 7.46875 
Q 49.3125 8.734375 54.109375 11.28125 
L 54.109375 2.78125 
Q 49.265625 0.734375 44.1875 -0.34375 
Q 39.109375 -1.421875 33.890625 -1.421875 
Q 20.796875 -1.421875 13.15625 6.1875 
Q 5.515625 13.8125 5.515625 26.8125 
Q 5.515625 40.234375 12.765625 48.109375 
Q 20.015625 56 32.328125 56 
Q 43.359375 56 49.78125 48.890625 
Q 56.203125 41.796875 56.203125 29.59375 
z
M 47.21875 32.234375 
Q 47.125 39.59375 43.09375 43.984375 
Q 39.0625 48.390625 32.421875 48.390625 
Q 24.90625 48.390625 20.390625 44.140625 
Q 15.875 39.890625 15.1875 32.171875 
z
" id="DejaVuSans-101"/>
      <path id="DejaVuSans-32"/>
      <path d="M 37.109375 75.984375 
L 37.109375 68.5 
L 28.515625 68.5 
Q 23.6875 68.5 21.796875 66.546875 
Q 19.921875 64.59375 19.921875 59.515625 
L 19.921875 54.6875 
L 34.71875 54.6875 
L 34.71875 47.703125 
L 19.921875 47.703125 
L 19.921875 0 
L 10.890625 0 
L 10.890625 47.703125 
L 2.296875 47.703125 
L 2.296875 54.6875 
L 10.890625 54.6875 
L 10.890625 58.5 
Q 10.890625 67.625 15.140625 71.796875 
Q 19.390625 75.984375 28.609375 75.984375 
z
" id="DejaVuSans-102"/>
      <path d="M 9.8125 72.90625 
L 55.90625 72.90625 
L 55.90625 64.59375 
L 19.671875 64.59375 
L 19.671875 43.015625 
L 54.390625 43.015625 
L 54.390625 34.71875 
L 19.671875 34.71875 
L 19.671875 8.296875 
L 56.78125 8.296875 
L 56.78125 0 
L 9.8125 0 
z
" id="DejaVuSans-69"/>
      <path d="M 54.890625 33.015625 
L 54.890625 0 
L 45.90625 0 
L 45.90625 32.71875 
Q 45.90625 40.484375 42.875 44.328125 
Q 39.84375 48.1875 33.796875 48.1875 
Q 26.515625 48.1875 22.3125 43.546875 
Q 18.109375 38.921875 18.109375 30.90625 
L 18.109375 0 
L 9.078125 0 
L 9.078125 75.984375 
L 18.109375 75.984375 
L 18.109375 46.1875 
Q 21.34375 51.125 25.703125 53.5625 
Q 30.078125 56 35.796875 56 
Q 45.21875 56 50.046875 50.171875 
Q 54.890625 44.34375 54.890625 33.015625 
z
" id="DejaVuSans-104"/>
      <path d="M 45.40625 46.390625 
L 45.40625 75.984375 
L 54.390625 75.984375 
L 54.390625 0 
L 45.40625 0 
L 45.40625 8.203125 
Q 42.578125 3.328125 38.25 0.953125 
Q 33.9375 -1.421875 27.875 -1.421875 
Q 17.96875 -1.421875 11.734375 6.484375 
Q 5.515625 14.40625 5.515625 27.296875 
Q 5.515625 40.1875 11.734375 48.09375 
Q 17.96875 56 27.875 56 
Q 33.9375 56 38.25 53.625 
Q 42.578125 51.265625 45.40625 46.390625 
z
M 14.796875 27.296875 
Q 14.796875 17.390625 18.875 11.75 
Q 22.953125 6.109375 30.078125 6.109375 
Q 37.203125 6.109375 41.296875 11.75 
Q 45.40625 17.390625 45.40625 27.296875 
Q 45.40625 37.203125 41.296875 42.84375 
Q 37.203125 48.484375 30.078125 48.484375 
Q 22.953125 48.484375 18.875 42.84375 
Q 14.796875 37.203125 14.796875 27.296875 
z
" id="DejaVuSans-100"/>
      <path d="M 9.421875 54.6875 
L 18.40625 54.6875 
L 18.40625 0 
L 9.421875 0 
z
M 9.421875 75.984375 
L 18.40625 75.984375 
L 18.40625 64.59375 
L 9.421875 64.59375 
z
" id="DejaVuSans-105"/>
      <path d="M 4.203125 54.6875 
L 13.1875 54.6875 
L 24.421875 12.015625 
L 35.59375 54.6875 
L 46.1875 54.6875 
L 57.421875 12.015625 
L 68.609375 54.6875 
L 77.59375 54.6875 
L 63.28125 0 
L 52.6875 0 
L 40.921875 44.828125 
L 29.109375 0 
L 18.5 0 
z
" id="DejaVuSans-119"/>
      <path d="M 9.078125 75.984375 
L 18.109375 75.984375 
L 18.109375 31.109375 
L 44.921875 54.6875 
L 56.390625 54.6875 
L 27.390625 29.109375 
L 57.625 0 
L 45.90625 0 
L 18.109375 26.703125 
L 18.109375 0 
L 9.078125 0 
z
" id="DejaVuSans-107"/>
     </defs>
     <use xlink:href="#DejaVuSans-73"/>
     <use x="29.492188" xlink:href="#DejaVuSans-109"/>
     <use x="126.904297" xlink:href="#DejaVuSans-112"/>
     <use x="190.380859" xlink:href="#DejaVuSans-111"/>
     <use x="251.5625" xlink:href="#DejaVuSans-114"/>
     <use x="292.675781" xlink:href="#DejaVuSans-116"/>
     <use x="331.884766" xlink:href="#DejaVuSans-97"/>
     <use x="393.164062" xlink:href="#DejaVuSans-110"/>
     <use x="456.542969" xlink:href="#DejaVuSans-99"/>
     <use x="511.523438" xlink:href="#DejaVuSans-101"/>
     <use x="573.046875" xlink:href="#DejaVuSans-32"/>
     <use x="604.833984" xlink:href="#DejaVuSans-83"/>
     <use x="668.310547" xlink:href="#DejaVuSans-99"/>
     <use x="723.291016" xlink:href="#DejaVuSans-111"/>
     <use x="784.472656" xlink:href="#DejaVuSans-114"/>
     <use x="823.335938" xlink:href="#DejaVuSans-101"/>
     <use x="884.859375" xlink:href="#DejaVuSans-32"/>
     <use x="916.646484" xlink:href="#DejaVuSans-102"/>
     <use x="951.851562" xlink:href="#DejaVuSans-111"/>
     <use x="1013.033203" xlink:href="#DejaVuSans-114"/>
     <use x="1054.146484" xlink:href="#DejaVuSans-32"/>
     <use x="1085.933594" xlink:href="#DejaVuSans-69"/>
     <use x="1149.117188" xlink:href="#DejaVuSans-97"/>
     <use x="1210.396484" xlink:href="#DejaVuSans-99"/>
     <use x="1265.376953" xlink:href="#DejaVuSans-104"/>
     <use x="1328.755859" xlink:href="#DejaVuSans-32"/>
     <use x="1360.542969" xlink:href="#DejaVuSans-78"/>
     <use x="1435.347656" xlink:href="#DejaVuSans-111"/>
     <use x="1496.529297" xlink:href="#DejaVuSans-100"/>
     <use x="1560.005859" xlink:href="#DejaVuSans-101"/>
     <use x="1621.529297" xlink:href="#DejaVuSans-32"/>
     <use x="1653.316406" xlink:href="#DejaVuSans-105"/>
     <use x="1681.099609" xlink:href="#DejaVuSans-110"/>
     <use x="1744.478516" xlink:href="#DejaVuSans-32"/>
     <use x="1776.265625" xlink:href="#DejaVuSans-116"/>
     <use x="1815.474609" xlink:href="#DejaVuSans-104"/>
     <use x="1878.853516" xlink:href="#DejaVuSans-101"/>
     <use x="1940.376953" xlink:href="#DejaVuSans-32"/>
     <use x="1972.164062" xlink:href="#DejaVuSans-78"/>
     <use x="2046.96875" xlink:href="#DejaVuSans-101"/>
     <use x="2108.492188" xlink:href="#DejaVuSans-116"/>
     <use x="2147.701172" xlink:href="#DejaVuSans-119"/>
     <use x="2229.488281" xlink:href="#DejaVuSans-111"/>
     <use x="2290.669922" xlink:href="#DejaVuSans-114"/>
     <use x="2331.783203" xlink:href="#DejaVuSans-107"/>
    </g>
   </g>
  </g>
 </g>
 <defs>
  <clipPath id="pf334a5af74">
   <rect height="443.52" width="669.6" x="7.2" y="22.318125"/>
  </clipPath>
 </defs>
</svg>
