<?xml version="1.0" encoding="utf-8" standalone="no"?>
<!DOCTYPE svg PUBLIC "-//W3C//DTD SVG 1.1//EN"
  "http://www.w3.org/Graphics/SVG/1.1/DTD/svg11.dtd">
<!-- Created with matplotlib (https://matplotlib.org/) -->
<svg height="473.038125pt" version="1.1" viewBox="0 0 684 473.038125" width="684pt" xmlns="http://www.w3.org/2000/svg" xmlns:xlink="http://www.w3.org/1999/xlink">
 <metadata>
  <rdf:RDF xmlns:cc="http://creativecommons.org/ns#" xmlns:dc="http://purl.org/dc/elements/1.1/" xmlns:rdf="http://www.w3.org/1999/02/22-rdf-syntax-ns#">
   <cc:Work>
    <dc:type rdf:resource="http://purl.org/dc/dcmitype/StillImage"/>
    <dc:date>2024-04-25T16:27:12.886593</dc:date>
    <dc:format>image/svg+xml</dc:format>
    <dc:creator>
     <cc:Agent>
      <dc:title>Matplotlib v3.3.1, https://matplotlib.org/</dc:title>
     </cc:Agent>
    </dc:creator>
   </cc:Work>
  </rdf:RDF>
 </metadata>
 <defs>
  <style type="text/css">*{stroke-linecap:butt;stroke-linejoin:round;}</style>
 </defs>
 <g id="figure_1">
  <g id="patch_1">
   <path d="M 0 473.038125 
L 684 473.038125 
L 684 0 
L 0 0 
z
" style="fill:#ffffff;"/>
  </g>
  <g id="axes_1">
   <g id="patch_2">
    <path clip-path="url(#pc7e8059c01)" d="M 575.572217 134.402126 
Q 470.884263 162.109124 367.27713 189.530069 
" style="fill:none;stroke:#808080;stroke-linecap:round;"/>
    <path clip-path="url(#pc7e8059c01)" d="M 371.655699 190.440086 
L 367.27713 189.530069 
L 370.632285 186.573224 
L 371.655699 190.440086 
z
" style="fill:#808080;stroke:#808080;stroke-linecap:round;"/>
   </g>
   <g id="patch_3">
    <path clip-path="url(#pc7e8059c01)" d="M 366.100574 189.464132 
Q 404.683814 177.492977 442.199236 165.853131 
" style="fill:none;stroke:#808080;stroke-linecap:round;"/>
    <path clip-path="url(#pc7e8059c01)" d="M 437.786232 165.128292 
L 442.199236 165.853131 
L 438.971562 168.948631 
L 437.786232 165.128292 
z
" style="fill:#808080;stroke:#808080;stroke-linecap:round;"/>
   </g>
   <g id="patch_4">
    <path clip-path="url(#pc7e8059c01)" d="M 349.200444 191.270211 
Q 222.902373 180.128609 97.718011 169.085255 
" style="fill:none;stroke:#808080;stroke-linecap:round;"/>
    <path clip-path="url(#pc7e8059c01)" d="M 101.526786 171.42902 
L 97.718011 169.085255 
L 101.878288 167.444494 
L 101.526786 171.42902 
z
" style="fill:#808080;stroke:#808080;stroke-linecap:round;"/>
   </g>
   <g id="patch_5">
    <path clip-path="url(#pc7e8059c01)" d="M 366.36507 193.502209 
Q 488.261654 214.503131 609.056437 235.314229 
" style="fill:none;stroke:#808080;stroke-linecap:round;"/>
    <path clip-path="url(#pc7e8059c01)" d="M 605.454079 232.664133 
L 609.056437 235.314229 
L 604.774945 236.606059 
L 605.454079 232.664133 
z
" style="fill:#808080;stroke:#808080;stroke-linecap:round;"/>
   </g>
   <g id="patch_6">
    <path clip-path="url(#pc7e8059c01)" d="M 435.083108 216.241847 
Q 522.755614 262.304257 609.438375 307.846662 
" style="fill:none;stroke:#808080;stroke-linecap:round;"/>
    <path clip-path="url(#pc7e8059c01)" d="M 606.827566 304.215728 
L 609.438375 307.846662 
L 604.967143 307.756749 
L 606.827566 304.215728 
z
" style="fill:#808080;stroke:#808080;stroke-linecap:round;"/>
   </g>
   <g id="patch_7">
    <path clip-path="url(#pc7e8059c01)" d="M 419.424686 208.880357 
Q 303.244594 160.419603 188.096369 112.389257 
" style="fill:none;stroke:#808080;stroke-linecap:round;"/>
    <path clip-path="url(#pc7e8059c01)" d="M 191.018146 115.774995 
L 188.096369 112.389257 
L 192.558025 112.083279 
L 191.018146 115.774995 
z
" style="fill:#808080;stroke:#808080;stroke-linecap:round;"/>
   </g>
   <g id="patch_8">
    <path clip-path="url(#pc7e8059c01)" d="M 152.867072 175.686144 
Q 196.429398 140.275415 239.124161 105.569905 
" style="fill:none;stroke:#808080;stroke-linecap:round;"/>
    <path clip-path="url(#pc7e8059c01)" d="M 234.758739 106.541034 
L 239.124161 105.569905 
L 237.281811 109.64492 
L 234.758739 106.541034 
z
" style="fill:#808080;stroke:#808080;stroke-linecap:round;"/>
   </g>
   <g id="patch_9">
    <path clip-path="url(#pc7e8059c01)" d="M 262.846485 302.422229 
Q 255.123005 205.228366 247.48809 109.149024 
" style="fill:none;stroke:#808080;stroke-linecap:round;"/>
    <path clip-path="url(#pc7e8059c01)" d="M 245.811234 113.294885 
L 247.48809 109.149024 
L 249.798665 112.978025 
L 245.811234 113.294885 
z
" style="fill:#808080;stroke:#808080;stroke-linecap:round;"/>
   </g>
   <g id="patch_10">
    <path clip-path="url(#pc7e8059c01)" d="M 258.918946 375.352152 
Q 366.247349 390.737432 472.469031 405.964066 
" style="fill:none;stroke:#808080;stroke-linecap:round;"/>
    <path clip-path="url(#pc7e8059c01)" d="M 468.7933 403.416715 
L 472.469031 405.964066 
L 468.225711 407.37624 
L 468.7933 403.416715 
z
" style="fill:#808080;stroke:#808080;stroke-linecap:round;"/>
   </g>
   <g id="patch_11">
    <path clip-path="url(#pc7e8059c01)" d="M 353.743685 69.459541 
Q 355.64116 126.41938 357.501411 182.261805 
" style="fill:none;stroke:#808080;stroke-linecap:round;"/>
    <path clip-path="url(#pc7e8059c01)" d="M 359.367126 178.197434 
L 357.501411 182.261805 
L 355.369344 178.330611 
L 359.367126 178.197434 
z
" style="fill:#808080;stroke:#808080;stroke-linecap:round;"/>
   </g>
   <g id="patch_12">
    <path clip-path="url(#pc7e8059c01)" d="M 457.987917 168.739891 
Q 534.817187 237.674635 610.81429 305.862721 
" style="fill:none;stroke:#808080;stroke-linecap:round;"/>
    <path clip-path="url(#pc7e8059c01)" d="M 609.172702 301.70277 
L 610.81429 305.862721 
L 606.501377 304.680021 
L 609.172702 301.70277 
z
" style="fill:#808080;stroke:#808080;stroke-linecap:round;"/>
   </g>
   <g id="patch_13">
    <path clip-path="url(#pc7e8059c01)" d="M 443.046569 161.261221 
Q 315.30726 135.790282 188.6644 110.537973 
" style="fill:none;stroke:#808080;stroke-linecap:round;"/>
    <path clip-path="url(#pc7e8059c01)" d="M 192.196079 113.281554 
L 188.6644 110.537973 
L 192.978272 109.358777 
L 192.196079 113.281554 
z
" style="fill:#808080;stroke:#808080;stroke-linecap:round;"/>
   </g>
   <g id="patch_14">
    <path clip-path="url(#pc7e8059c01)" d="M 459.529155 103.212527 
Q 523.196358 145.104777 585.929577 186.382476 
" style="fill:none;stroke:#808080;stroke-linecap:round;"/>
    <path clip-path="url(#pc7e8059c01)" d="M 583.687393 182.513031 
L 585.929577 186.382476 
L 581.48871 185.854556 
L 583.687393 182.513031 
z
" style="fill:#808080;stroke:#808080;stroke-linecap:round;"/>
   </g>
   <g id="patch_15">
    <path clip-path="url(#pc7e8059c01)" d="M 174.783079 235.211753 
Q 262.091686 214.615403 348.312128 194.275755 
" style="fill:none;stroke:#808080;stroke-linecap:round;"/>
    <path clip-path="url(#pc7e8059c01)" d="M 343.959787 193.247588 
L 348.312128 194.275755 
L 344.87819 197.140728 
L 343.959787 193.247588 
z
" style="fill:#808080;stroke:#808080;stroke-linecap:round;"/>
   </g>
   <g id="patch_16">
    <path clip-path="url(#pc7e8059c01)" d="M 346.858569 302.867358 
Q 466.529 249.085676 585.179648 195.7623 
" style="fill:none;stroke:#808080;stroke-linecap:round;"/>
    <path clip-path="url(#pc7e8059c01)" d="M 580.711322 195.577741 
L 585.179648 195.7623 
L 582.351006 199.226225 
L 580.711322 195.577741 
z
" style="fill:#808080;stroke:#808080;stroke-linecap:round;"/>
   </g>
   <g id="patch_17">
    <path clip-path="url(#pc7e8059c01)" d="M 345.291232 300.503337 
Q 435.596242 216.156138 525.084189 132.572096 
" style="fill:none;stroke:#808080;stroke-linecap:round;"/>
    <path clip-path="url(#pc7e8059c01)" d="M 520.7958 133.840844 
L 525.084189 132.572096 
L 523.526155 136.764056 
L 520.7958 133.840844 
z
" style="fill:#808080;stroke:#808080;stroke-linecap:round;"/>
   </g>
   <g id="patch_18">
    <path clip-path="url(#pc7e8059c01)" d="M 342.404281 314.363158 
Q 365.173033 366.883057 387.497079 418.377171 
" style="fill:none;stroke:#808080;stroke-linecap:round;"/>
    <path clip-path="url(#pc7e8059c01)" d="M 387.741035 413.911694 
L 387.497079 418.377171 
L 384.071071 415.502719 
L 387.741035 413.911694 
z
" style="fill:#808080;stroke:#808080;stroke-linecap:round;"/>
   </g>
   <g id="patch_19">
    <path clip-path="url(#pc7e8059c01)" d="M 330.595766 304.159683 
Q 202.13034 269.483305 74.744315 235.098287 
" style="fill:none;stroke:#808080;stroke-linecap:round;"/>
    <path clip-path="url(#pc7e8059c01)" d="M 78.0849 238.071584 
L 74.744315 235.098287 
L 79.127303 234.209797 
L 78.0849 238.071584 
z
" style="fill:#808080;stroke:#808080;stroke-linecap:round;"/>
   </g>
   <g id="patch_20">
    <path clip-path="url(#pc7e8059c01)" d="M 333.99706 313.514495 
Q 296.722832 366.822997 260.089274 419.215232 
" style="fill:none;stroke:#808080;stroke-linecap:round;"/>
    <path clip-path="url(#pc7e8059c01)" d="M 264.020468 417.083163 
L 260.089274 419.215232 
L 260.742335 414.791036 
L 264.020468 417.083163 
z
" style="fill:#808080;stroke:#808080;stroke-linecap:round;"/>
   </g>
   <g id="patch_21">
    <path clip-path="url(#pc7e8059c01)" d="M 331.482774 310.790475 
Q 251.925799 357.323508 173.333899 403.292067 
" style="fill:none;stroke:#808080;stroke-linecap:round;"/>
    <path clip-path="url(#pc7e8059c01)" d="M 177.796416 402.998921 
L 173.333899 403.292067 
L 175.776893 399.546165 
L 177.796416 402.998921 
z
" style="fill:#808080;stroke:#808080;stroke-linecap:round;"/>
   </g>
   <g id="patch_22">
    <path clip-path="url(#pc7e8059c01)" d="M 330.503534 308.277001 
Q 222.87767 331.946817 116.343743 355.376486 
" style="fill:none;stroke:#808080;stroke-linecap:round;"/>
    <path clip-path="url(#pc7e8059c01)" d="M 120.679969 356.47063 
L 116.343743 355.376486 
L 119.820794 352.563993 
L 120.679969 356.47063 
z
" style="fill:#808080;stroke:#808080;stroke-linecap:round;"/>
   </g>
   <g id="patch_23">
    <path clip-path="url(#pc7e8059c01)" d="M 332.175339 286.159228 
Q 459.060826 240.425917 584.894513 195.071706 
" style="fill:none;stroke:#808080;stroke-linecap:round;"/>
    <path clip-path="url(#pc7e8059c01)" d="M 580.453325 194.546499 
L 584.894513 195.071706 
L 581.809634 198.309533 
L 580.453325 194.546499 
z
" style="fill:#808080;stroke:#808080;stroke-linecap:round;"/>
   </g>
   <g id="patch_24">
    <path clip-path="url(#pc7e8059c01)" d="M 330.84282 283.754141 
Q 428.127429 207.497982 524.53211 131.931552 
" style="fill:none;stroke:#808080;stroke-linecap:round;"/>
    <path clip-path="url(#pc7e8059c01)" d="M 520.150157 132.825136 
L 524.53211 131.931552 
L 522.617806 135.973264 
L 520.150157 132.825136 
z
" style="fill:#808080;stroke:#808080;stroke-linecap:round;"/>
   </g>
   <g id="patch_25">
    <path clip-path="url(#pc7e8059c01)" d="M 327.820977 296.880103 
Q 357.707945 358.223413 387.105225 418.561634 
" style="fill:none;stroke:#808080;stroke-linecap:round;"/>
    <path clip-path="url(#pc7e8059c01)" d="M 387.151223 414.089735 
L 387.105225 418.561634 
L 383.555304 415.841696 
L 387.151223 414.089735 
z
" style="fill:#808080;stroke:#808080;stroke-linecap:round;"/>
   </g>
   <g id="patch_26">
    <path clip-path="url(#pc7e8059c01)" d="M 315.568209 287.246652 
Q 194.666209 260.822924 74.856461 234.637914 
" style="fill:none;stroke:#808080;stroke-linecap:round;"/>
    <path clip-path="url(#pc7e8059c01)" d="M 78.33719 237.445853 
L 74.856461 234.637914 
L 79.19125 233.538094 
L 78.33719 237.445853 
z
" style="fill:#808080;stroke:#808080;stroke-linecap:round;"/>
   </g>
   <g id="patch_27">
    <path clip-path="url(#pc7e8059c01)" d="M 320.134002 296.831042 
Q 289.256544 358.163625 258.881835 418.497588 
" style="fill:none;stroke:#808080;stroke-linecap:round;"/>
    <path clip-path="url(#pc7e8059c01)" d="M 262.466911 415.824157 
L 258.881835 418.497588 
L 258.894136 414.025469 
L 262.466911 415.824157 
z
" style="fill:#808080;stroke:#808080;stroke-linecap:round;"/>
   </g>
   <g id="patch_28">
    <path clip-path="url(#pc7e8059c01)" d="M 317.095779 294.285569 
Q 244.460579 348.662467 172.720394 402.36933 
" style="fill:none;stroke:#808080;stroke-linecap:round;"/>
    <path clip-path="url(#pc7e8059c01)" d="M 177.121094 401.57319 
L 172.720394 402.36933 
L 174.723903 398.371086 
L 177.121094 401.57319 
z
" style="fill:#808080;stroke:#808080;stroke-linecap:round;"/>
   </g>
   <g id="patch_29">
    <path clip-path="url(#pc7e8059c01)" d="M 315.764798 291.696859 
Q 215.411519 323.286202 116.124686 354.539849 
" style="fill:none;stroke:#808080;stroke-linecap:round;"/>
    <path clip-path="url(#pc7e8059c01)" d="M 120.540633 355.246538 
L 116.124686 354.539849 
L 119.339606 351.431104 
L 120.540633 355.246538 
z
" style="fill:#808080;stroke:#808080;stroke-linecap:round;"/>
   </g>
   <g id="patch_30">
    <path clip-path="url(#pc7e8059c01)" d="M 278.237055 292.644388 
Q 401.616063 211.645806 524.06045 131.260805 
" style="fill:none;stroke:#808080;stroke-linecap:round;"/>
    <path clip-path="url(#pc7e8059c01)" d="M 519.619037 131.784118 
L 524.06045 131.260805 
L 521.814252 135.127922 
L 519.619037 131.784118 
z
" style="fill:#808080;stroke:#808080;stroke-linecap:round;"/>
   </g>
   <g id="patch_31">
    <path clip-path="url(#pc7e8059c01)" d="M 276.878296 303.750569 
Q 331.189573 362.373759 384.741019 420.176793 
" style="fill:none;stroke:#808080;stroke-linecap:round;"/>
    <path clip-path="url(#pc7e8059c01)" d="M 383.489704 415.883285 
L 384.741019 420.176793 
L 380.555424 418.601741 
L 383.489704 415.883285 
z
" style="fill:#808080;stroke:#808080;stroke-linecap:round;"/>
   </g>
   <g id="patch_32">
    <path clip-path="url(#pc7e8059c01)" d="M 262.736669 294.79592 
Q 168.149935 264.974929 74.629496 235.490115 
" style="fill:none;stroke:#808080;stroke-linecap:round;"/>
    <path clip-path="url(#pc7e8059c01)" d="M 77.843015 238.600308 
L 74.629496 235.490115 
L 79.045762 234.785416 
L 77.843015 238.600308 
z
" style="fill:#808080;stroke:#808080;stroke-linecap:round;"/>
   </g>
   <g id="patch_33">
    <path clip-path="url(#pc7e8059c01)" d="M 269.90152 305.993044 
Q 262.740401 362.313297 255.720304 417.524446 
" style="fill:none;stroke:#808080;stroke-linecap:round;"/>
    <path clip-path="url(#pc7e8059c01)" d="M 258.208868 413.808662 
L 255.720304 417.524446 
L 254.240816 413.304124 
L 258.208868 413.808662 
z
" style="fill:#808080;stroke:#808080;stroke-linecap:round;"/>
   </g>
   <g id="patch_34">
    <path clip-path="url(#pc7e8059c01)" d="M 265.007233 303.653129 
Q 217.945746 352.811994 171.657413 401.163249 
" style="fill:none;stroke:#808080;stroke-linecap:round;"/>
    <path clip-path="url(#pc7e8059c01)" d="M 175.868226 399.656913 
L 171.657413 401.163249 
L 172.978833 396.890796 
L 175.868226 399.656913 
z
" style="fill:#808080;stroke:#808080;stroke-linecap:round;"/>
   </g>
   <g id="patch_35">
    <path clip-path="url(#pc7e8059c01)" d="M 262.858991 300.375855 
Q 188.893892 327.438297 115.978754 354.116577 
" style="fill:none;stroke:#808080;stroke-linecap:round;"/>
    <path clip-path="url(#pc7e8059c01)" d="M 120.422421 354.620389 
L 115.978754 354.116577 
L 119.048003 350.863931 
L 120.422421 354.620389 
z
" style="fill:#808080;stroke:#808080;stroke-linecap:round;"/>
   </g>
   <g id="patch_36">
    <path clip-path="url(#pc7e8059c01)" d="M 524.683482 263.427084 
Q 445.235886 229.432444 366.81618 195.877625 
" style="fill:none;stroke:#808080;stroke-linecap:round;"/>
    <path clip-path="url(#pc7e8059c01)" d="M 369.706894 199.289923 
L 366.81618 195.877625 
L 371.280446 195.612433 
L 369.706894 199.289923 
z
" style="fill:#808080;stroke:#808080;stroke-linecap:round;"/>
   </g>
   <g id="patch_37">
    <path clip-path="url(#pc7e8059c01)" d="M 345.2102 155.203426 
Q 220.915919 161.495703 97.738242 167.731453 
" style="fill:none;stroke:#808080;stroke-linecap:round;"/>
    <path clip-path="url(#pc7e8059c01)" d="M 101.834244 169.526658 
L 97.738242 167.731453 
L 101.632007 165.531774 
L 101.834244 169.526658 
z
" style="fill:#808080;stroke:#808080;stroke-linecap:round;"/>
   </g>
   <g id="patch_38">
    <path clip-path="url(#pc7e8059c01)" d="M 362.127879 157.33353 
Q 486.274964 195.870213 609.354275 234.075447 
" style="fill:none;stroke:#808080;stroke-linecap:round;"/>
    <path clip-path="url(#pc7e8059c01)" d="M 606.127005 230.979525 
L 609.354275 234.075447 
L 604.941176 234.79971 
L 606.127005 230.979525 
z
" style="fill:#808080;stroke:#808080;stroke-linecap:round;"/>
   </g>
   <g id="patch_39">
    <path clip-path="url(#pc7e8059c01)" d="M 144.836171 110.112181 
Q 247.290163 149.517336 348.700641 188.521143 
" style="fill:none;stroke:#808080;stroke-linecap:round;"/>
    <path clip-path="url(#pc7e8059c01)" d="M 345.685211 185.218541 
L 348.700641 188.521143 
L 344.249302 188.951926 
L 345.685211 185.218541 
z
" style="fill:#808080;stroke:#808080;stroke-linecap:round;"/>
   </g>
   <g id="PathCollection_1">
    <defs>
     <path d="M 0 11.18034 
C 2.965061 11.18034 5.80908 10.002309 7.905694 7.905694 
C 10.002309 5.80908 11.18034 2.965061 11.18034 -0 
C 11.18034 -2.965061 10.002309 -5.80908 7.905694 -7.905694 
C 5.80908 -10.002309 2.965061 -11.18034 0 -11.18034 
C -2.965061 -11.18034 -5.80908 -10.002309 -7.905694 -7.905694 
C -10.002309 -5.80908 -11.18034 -2.965061 -11.18034 0 
C -11.18034 2.965061 -10.002309 5.80908 -7.905694 7.905694 
C -5.80908 10.002309 -2.965061 11.18034 0 11.18034 
z
" id="C0_0_910fc1121d"/>
    </defs>
    <g clip-path="url(#pc7e8059c01)">
     <use style="fill:#eeeeee;stroke:#eeeeee;" x="583.946109" xlink:href="#C0_0_910fc1121d" y="132.185869"/>
    </g>
    <g clip-path="url(#pc7e8059c01)">
     <use style="fill:#c2c2c2;stroke:#c2c2c2;" x="357.826854" xlink:href="#C0_0_910fc1121d" y="192.031204"/>
    </g>
    <g clip-path="url(#pc7e8059c01)">
     <use style="fill:#dadada;stroke:#dadada;" x="427.416575" xlink:href="#C0_0_910fc1121d" y="212.213914"/>
    </g>
    <g clip-path="url(#pc7e8059c01)">
     <use style="fill:#ececec;stroke:#ececec;" x="146.149073" xlink:href="#C0_0_910fc1121d" y="181.147039"/>
    </g>
    <g clip-path="url(#pc7e8059c01)">
     <use style="fill:#eeeeee;stroke:#eeeeee;" x="246.713447" xlink:href="#C0_0_910fc1121d" y="99.400763"/>
    </g>
    <g clip-path="url(#pc7e8059c01)">
     <use style="fill:#f0f0f0;stroke:#f0f0f0;" x="263.532478" xlink:href="#C0_0_910fc1121d" y="311.054912"/>
    </g>
    <g clip-path="url(#pc7e8059c01)">
     <use style="fill:#dadada;stroke:#dadada;" x="250.348811" xlink:href="#C0_0_910fc1121d" y="374.123643"/>
    </g>
    <g clip-path="url(#pc7e8059c01)">
     <use style="fill:#eeeeee;stroke:#eeeeee;" x="482.149217" xlink:href="#C0_0_910fc1121d" y="407.351699"/>
    </g>
    <g clip-path="url(#pc7e8059c01)">
     <use style="fill:#f0f0f0;stroke:#f0f0f0;" x="353.455394" xlink:href="#C0_0_910fc1121d" y="60.805398"/>
    </g>
    <g clip-path="url(#pc7e8059c01)">
     <use style="fill:#f0f0f0;stroke:#f0f0f0;" x="532.230888" xlink:href="#C0_0_910fc1121d" y="125.896895"/>
    </g>
    <g clip-path="url(#pc7e8059c01)">
     <use style="fill:#f0f0f0;stroke:#f0f0f0;" x="391.387405" xlink:href="#C0_0_910fc1121d" y="427.350852"/>
    </g>
    <g clip-path="url(#pc7e8059c01)">
     <use style="fill:#f0f0f0;stroke:#f0f0f0;" x="65.305785" xlink:href="#C0_0_910fc1121d" y="232.550566"/>
    </g>
    <g clip-path="url(#pc7e8059c01)">
     <use style="fill:#eeeeee;stroke:#eeeeee;" x="254.486473" xlink:href="#C0_0_910fc1121d" y="427.228193"/>
    </g>
    <g clip-path="url(#pc7e8059c01)">
     <use style="fill:#ededed;stroke:#ededed;" x="451.540385" xlink:href="#C0_0_910fc1121d" y="162.954869"/>
    </g>
    <g clip-path="url(#pc7e8059c01)">
     <use style="fill:#f3f3f3;stroke:#f3f3f3;" x="452.295949" xlink:href="#C0_0_910fc1121d" y="98.453165"/>
    </g>
    <g clip-path="url(#pc7e8059c01)">
     <use style="fill:#eeeeee;stroke:#eeeeee;" x="594.095344" xlink:href="#C0_0_910fc1121d" y="191.755453"/>
    </g>
    <g clip-path="url(#pc7e8059c01)">
     <use style="fill:#e0e0e0;stroke:#e0e0e0;" x="166.354142" xlink:href="#C0_0_910fc1121d" y="237.200163"/>
    </g>
    <g clip-path="url(#pc7e8059c01)">
     <use style="fill:#eeeeee;stroke:#eeeeee;" x="87.974635" xlink:href="#C0_0_910fc1121d" y="168.225727"/>
    </g>
    <g clip-path="url(#pc7e8059c01)">
     <use style="fill:#ededed;stroke:#ededed;" x="618.694215" xlink:href="#C0_0_910fc1121d" y="236.974671"/>
    </g>
    <g clip-path="url(#pc7e8059c01)">
     <use style="fill:#868686;stroke:#868686;" x="338.959543" xlink:href="#C0_0_910fc1121d" y="306.417298"/>
    </g>
    <g clip-path="url(#pc7e8059c01)">
     <use style="fill:#5f5f5f;stroke:#5f5f5f;" x="324.028329" xlink:href="#C0_0_910fc1121d" y="289.095653"/>
    </g>
    <g clip-path="url(#pc7e8059c01)">
     <use style="fill:#ededed;stroke:#ededed;" x="618.093583" xlink:href="#C0_0_910fc1121d" y="312.394036"/>
    </g>
    <g clip-path="url(#pc7e8059c01)">
     <use style="fill:#eeeeee;stroke:#eeeeee;" x="179.073076" xlink:href="#C0_0_910fc1121d" y="108.625484"/>
    </g>
    <g clip-path="url(#pc7e8059c01)">
     <use style="fill:#7d7d7d;stroke:#7d7d7d;" x="270.99421" xlink:href="#C0_0_910fc1121d" y="297.399331"/>
    </g>
    <g clip-path="url(#pc7e8059c01)">
     <use style="fill:#f0f0f0;stroke:#f0f0f0;" x="532.646057" xlink:href="#C0_0_910fc1121d" y="266.834171"/>
    </g>
    <g clip-path="url(#pc7e8059c01)">
     <use style="fill:#efefef;stroke:#efefef;" x="164.892921" xlink:href="#C0_0_910fc1121d" y="408.229211"/>
    </g>
    <g clip-path="url(#pc7e8059c01)">
     <use style="fill:#f0f0f0;stroke:#f0f0f0;" x="106.796572" xlink:href="#C0_0_910fc1121d" y="357.476165"/>
    </g>
    <g clip-path="url(#pc7e8059c01)">
     <use style="fill:#d9d9d9;stroke:#d9d9d9;" x="353.855717" xlink:href="#C0_0_910fc1121d" y="154.765755"/>
    </g>
    <g clip-path="url(#pc7e8059c01)">
     <use style="fill:#a4a4a4;stroke:#a4a4a4;" x="136.750223" xlink:href="#C0_0_910fc1121d" y="107.002219"/>
    </g>
   </g>
   <g id="text_1">
    <g clip-path="url(#pc7e8059c01)">
     <!-- FCGR2A -->
     <g transform="translate(563.628922 134.945244)scale(0.1 -0.1)">
      <defs>
       <path d="M 9.8125 72.90625 
L 51.703125 72.90625 
L 51.703125 64.59375 
L 19.671875 64.59375 
L 19.671875 43.109375 
L 48.578125 43.109375 
L 48.578125 34.8125 
L 19.671875 34.8125 
L 19.671875 0 
L 9.8125 0 
z
" id="DejaVuSans-70"/>
       <path d="M 64.40625 67.28125 
L 64.40625 56.890625 
Q 59.421875 61.53125 53.78125 63.8125 
Q 48.140625 66.109375 41.796875 66.109375 
Q 29.296875 66.109375 22.65625 58.46875 
Q 16.015625 50.828125 16.015625 36.375 
Q 16.015625 21.96875 22.65625 14.328125 
Q 29.296875 6.6875 41.796875 6.6875 
Q 48.140625 6.6875 53.78125 8.984375 
Q 59.421875 11.28125 64.40625 15.921875 
L 64.40625 5.609375 
Q 59.234375 2.09375 53.4375 0.328125 
Q 47.65625 -1.421875 41.21875 -1.421875 
Q 24.65625 -1.421875 15.125 8.703125 
Q 5.609375 18.84375 5.609375 36.375 
Q 5.609375 53.953125 15.125 64.078125 
Q 24.65625 74.21875 41.21875 74.21875 
Q 47.75 74.21875 53.53125 72.484375 
Q 59.328125 70.75 64.40625 67.28125 
z
" id="DejaVuSans-67"/>
       <path d="M 59.515625 10.40625 
L 59.515625 29.984375 
L 43.40625 29.984375 
L 43.40625 38.09375 
L 69.28125 38.09375 
L 69.28125 6.78125 
Q 63.578125 2.734375 56.6875 0.65625 
Q 49.8125 -1.421875 42 -1.421875 
Q 24.90625 -1.421875 15.25 8.5625 
Q 5.609375 18.5625 5.609375 36.375 
Q 5.609375 54.25 15.25 64.234375 
Q 24.90625 74.21875 42 74.21875 
Q 49.125 74.21875 55.546875 72.453125 
Q 61.96875 70.703125 67.390625 67.28125 
L 67.390625 56.78125 
Q 61.921875 61.421875 55.765625 63.765625 
Q 49.609375 66.109375 42.828125 66.109375 
Q 29.4375 66.109375 22.71875 58.640625 
Q 16.015625 51.171875 16.015625 36.375 
Q 16.015625 21.625 22.71875 14.15625 
Q 29.4375 6.6875 42.828125 6.6875 
Q 48.046875 6.6875 52.140625 7.59375 
Q 56.25 8.5 59.515625 10.40625 
z
" id="DejaVuSans-71"/>
       <path d="M 44.390625 34.1875 
Q 47.5625 33.109375 50.5625 29.59375 
Q 53.5625 26.078125 56.59375 19.921875 
L 66.609375 0 
L 56 0 
L 46.6875 18.703125 
Q 43.0625 26.03125 39.671875 28.421875 
Q 36.28125 30.8125 30.421875 30.8125 
L 19.671875 30.8125 
L 19.671875 0 
L 9.8125 0 
L 9.8125 72.90625 
L 32.078125 72.90625 
Q 44.578125 72.90625 50.734375 67.671875 
Q 56.890625 62.453125 56.890625 51.90625 
Q 56.890625 45.015625 53.6875 40.46875 
Q 50.484375 35.9375 44.390625 34.1875 
z
M 19.671875 64.796875 
L 19.671875 38.921875 
L 32.078125 38.921875 
Q 39.203125 38.921875 42.84375 42.21875 
Q 46.484375 45.515625 46.484375 51.90625 
Q 46.484375 58.296875 42.84375 61.546875 
Q 39.203125 64.796875 32.078125 64.796875 
z
" id="DejaVuSans-82"/>
       <path d="M 19.1875 8.296875 
L 53.609375 8.296875 
L 53.609375 0 
L 7.328125 0 
L 7.328125 8.296875 
Q 12.9375 14.109375 22.625 23.890625 
Q 32.328125 33.6875 34.8125 36.53125 
Q 39.546875 41.84375 41.421875 45.53125 
Q 43.3125 49.21875 43.3125 52.78125 
Q 43.3125 58.59375 39.234375 62.25 
Q 35.15625 65.921875 28.609375 65.921875 
Q 23.96875 65.921875 18.8125 64.3125 
Q 13.671875 62.703125 7.8125 59.421875 
L 7.8125 69.390625 
Q 13.765625 71.78125 18.9375 73 
Q 24.125 74.21875 28.421875 74.21875 
Q 39.75 74.21875 46.484375 68.546875 
Q 53.21875 62.890625 53.21875 53.421875 
Q 53.21875 48.921875 51.53125 44.890625 
Q 49.859375 40.875 45.40625 35.40625 
Q 44.1875 33.984375 37.640625 27.21875 
Q 31.109375 20.453125 19.1875 8.296875 
z
" id="DejaVuSans-50"/>
       <path d="M 34.1875 63.1875 
L 20.796875 26.90625 
L 47.609375 26.90625 
z
M 28.609375 72.90625 
L 39.796875 72.90625 
L 67.578125 0 
L 57.328125 0 
L 50.6875 18.703125 
L 17.828125 18.703125 
L 11.1875 0 
L 0.78125 0 
z
" id="DejaVuSans-65"/>
      </defs>
      <use xlink:href="#DejaVuSans-70"/>
      <use x="57.519531" xlink:href="#DejaVuSans-67"/>
      <use x="127.34375" xlink:href="#DejaVuSans-71"/>
      <use x="204.833984" xlink:href="#DejaVuSans-82"/>
      <use x="274.316406" xlink:href="#DejaVuSans-50"/>
      <use x="337.939453" xlink:href="#DejaVuSans-65"/>
     </g>
    </g>
   </g>
   <g id="text_2">
    <g clip-path="url(#pc7e8059c01)">
     <!-- SYK -->
     <g transform="translate(348.319823 194.790579)scale(0.1 -0.1)">
      <defs>
       <path d="M 53.515625 70.515625 
L 53.515625 60.890625 
Q 47.90625 63.578125 42.921875 64.890625 
Q 37.9375 66.21875 33.296875 66.21875 
Q 25.25 66.21875 20.875 63.09375 
Q 16.5 59.96875 16.5 54.203125 
Q 16.5 49.359375 19.40625 46.890625 
Q 22.3125 44.4375 30.421875 42.921875 
L 36.375 41.703125 
Q 47.40625 39.59375 52.65625 34.296875 
Q 57.90625 29 57.90625 20.125 
Q 57.90625 9.515625 50.796875 4.046875 
Q 43.703125 -1.421875 29.984375 -1.421875 
Q 24.8125 -1.421875 18.96875 -0.25 
Q 13.140625 0.921875 6.890625 3.21875 
L 6.890625 13.375 
Q 12.890625 10.015625 18.65625 8.296875 
Q 24.421875 6.59375 29.984375 6.59375 
Q 38.421875 6.59375 43.015625 9.90625 
Q 47.609375 13.234375 47.609375 19.390625 
Q 47.609375 24.75 44.3125 27.78125 
Q 41.015625 30.8125 33.5 32.328125 
L 27.484375 33.5 
Q 16.453125 35.6875 11.515625 40.375 
Q 6.59375 45.0625 6.59375 53.421875 
Q 6.59375 63.09375 13.40625 68.65625 
Q 20.21875 74.21875 32.171875 74.21875 
Q 37.3125 74.21875 42.625 73.28125 
Q 47.953125 72.359375 53.515625 70.515625 
z
" id="DejaVuSans-83"/>
       <path d="M -0.203125 72.90625 
L 10.40625 72.90625 
L 30.609375 42.921875 
L 50.6875 72.90625 
L 61.28125 72.90625 
L 35.5 34.71875 
L 35.5 0 
L 25.59375 0 
L 25.59375 34.71875 
z
" id="DejaVuSans-89"/>
       <path d="M 9.8125 72.90625 
L 19.671875 72.90625 
L 19.671875 42.09375 
L 52.390625 72.90625 
L 65.09375 72.90625 
L 28.90625 38.921875 
L 67.671875 0 
L 54.6875 0 
L 19.671875 35.109375 
L 19.671875 0 
L 9.8125 0 
z
" id="DejaVuSans-75"/>
      </defs>
      <use xlink:href="#DejaVuSans-83"/>
      <use x="63.476562" xlink:href="#DejaVuSans-89"/>
      <use x="124.560547" xlink:href="#DejaVuSans-75"/>
     </g>
    </g>
   </g>
   <g id="text_3">
    <g clip-path="url(#pc7e8059c01)">
     <!-- RAF1 -->
     <g transform="translate(414.665013 214.973289)scale(0.1 -0.1)">
      <defs>
       <path d="M 12.40625 8.296875 
L 28.515625 8.296875 
L 28.515625 63.921875 
L 10.984375 60.40625 
L 10.984375 69.390625 
L 28.421875 72.90625 
L 38.28125 72.90625 
L 38.28125 8.296875 
L 54.390625 8.296875 
L 54.390625 0 
L 12.40625 0 
z
" id="DejaVuSans-49"/>
      </defs>
      <use xlink:href="#DejaVuSans-82"/>
      <use x="65.482422" xlink:href="#DejaVuSans-65"/>
      <use x="133.890625" xlink:href="#DejaVuSans-70"/>
      <use x="191.410156" xlink:href="#DejaVuSans-49"/>
     </g>
    </g>
   </g>
   <g id="text_4">
    <g clip-path="url(#pc7e8059c01)">
     <!-- CASP1 -->
     <g transform="translate(129.867041 183.906414)scale(0.1 -0.1)">
      <defs>
       <path d="M 19.671875 64.796875 
L 19.671875 37.40625 
L 32.078125 37.40625 
Q 38.96875 37.40625 42.71875 40.96875 
Q 46.484375 44.53125 46.484375 51.125 
Q 46.484375 57.671875 42.71875 61.234375 
Q 38.96875 64.796875 32.078125 64.796875 
z
M 9.8125 72.90625 
L 32.078125 72.90625 
Q 44.34375 72.90625 50.609375 67.359375 
Q 56.890625 61.8125 56.890625 51.125 
Q 56.890625 40.328125 50.609375 34.8125 
Q 44.34375 29.296875 32.078125 29.296875 
L 19.671875 29.296875 
L 19.671875 0 
L 9.8125 0 
z
" id="DejaVuSans-80"/>
      </defs>
      <use xlink:href="#DejaVuSans-67"/>
      <use x="69.824219" xlink:href="#DejaVuSans-65"/>
      <use x="138.232422" xlink:href="#DejaVuSans-83"/>
      <use x="201.708984" xlink:href="#DejaVuSans-80"/>
      <use x="262.011719" xlink:href="#DejaVuSans-49"/>
     </g>
    </g>
   </g>
   <g id="text_5">
    <g clip-path="url(#pc7e8059c01)">
     <!-- GSDMD -->
     <g transform="translate(227.650947 102.160138)scale(0.1 -0.1)">
      <defs>
       <path d="M 19.671875 64.796875 
L 19.671875 8.109375 
L 31.59375 8.109375 
Q 46.6875 8.109375 53.6875 14.9375 
Q 60.6875 21.78125 60.6875 36.53125 
Q 60.6875 51.171875 53.6875 57.984375 
Q 46.6875 64.796875 31.59375 64.796875 
z
M 9.8125 72.90625 
L 30.078125 72.90625 
Q 51.265625 72.90625 61.171875 64.09375 
Q 71.09375 55.28125 71.09375 36.53125 
Q 71.09375 17.671875 61.125 8.828125 
Q 51.171875 0 30.078125 0 
L 9.8125 0 
z
" id="DejaVuSans-68"/>
       <path d="M 9.8125 72.90625 
L 24.515625 72.90625 
L 43.109375 23.296875 
L 61.8125 72.90625 
L 76.515625 72.90625 
L 76.515625 0 
L 66.890625 0 
L 66.890625 64.015625 
L 48.09375 14.015625 
L 38.1875 14.015625 
L 19.390625 64.015625 
L 19.390625 0 
L 9.8125 0 
z
" id="DejaVuSans-77"/>
      </defs>
      <use xlink:href="#DejaVuSans-71"/>
      <use x="77.490234" xlink:href="#DejaVuSans-83"/>
      <use x="140.966797" xlink:href="#DejaVuSans-68"/>
      <use x="217.96875" xlink:href="#DejaVuSans-77"/>
      <use x="304.248047" xlink:href="#DejaVuSans-68"/>
     </g>
    </g>
   </g>
   <g id="text_6">
    <g clip-path="url(#pc7e8059c01)">
     <!-- CASP4 -->
     <g transform="translate(247.250447 313.814287)scale(0.1 -0.1)">
      <defs>
       <path d="M 37.796875 64.3125 
L 12.890625 25.390625 
L 37.796875 25.390625 
z
M 35.203125 72.90625 
L 47.609375 72.90625 
L 47.609375 25.390625 
L 58.015625 25.390625 
L 58.015625 17.1875 
L 47.609375 17.1875 
L 47.609375 0 
L 37.796875 0 
L 37.796875 17.1875 
L 4.890625 17.1875 
L 4.890625 26.703125 
z
" id="DejaVuSans-52"/>
      </defs>
      <use xlink:href="#DejaVuSans-67"/>
      <use x="69.824219" xlink:href="#DejaVuSans-65"/>
      <use x="138.232422" xlink:href="#DejaVuSans-83"/>
      <use x="201.708984" xlink:href="#DejaVuSans-80"/>
      <use x="262.011719" xlink:href="#DejaVuSans-52"/>
     </g>
    </g>
   </g>
   <g id="text_7">
    <g clip-path="url(#pc7e8059c01)">
     <!-- HMGB1 -->
     <g transform="translate(231.788655 376.883018)scale(0.1 -0.1)">
      <defs>
       <path d="M 9.8125 72.90625 
L 19.671875 72.90625 
L 19.671875 43.015625 
L 55.515625 43.015625 
L 55.515625 72.90625 
L 65.375 72.90625 
L 65.375 0 
L 55.515625 0 
L 55.515625 34.71875 
L 19.671875 34.71875 
L 19.671875 0 
L 9.8125 0 
z
" id="DejaVuSans-72"/>
       <path d="M 19.671875 34.8125 
L 19.671875 8.109375 
L 35.5 8.109375 
Q 43.453125 8.109375 47.28125 11.40625 
Q 51.125 14.703125 51.125 21.484375 
Q 51.125 28.328125 47.28125 31.5625 
Q 43.453125 34.8125 35.5 34.8125 
z
M 19.671875 64.796875 
L 19.671875 42.828125 
L 34.28125 42.828125 
Q 41.5 42.828125 45.03125 45.53125 
Q 48.578125 48.25 48.578125 53.8125 
Q 48.578125 59.328125 45.03125 62.0625 
Q 41.5 64.796875 34.28125 64.796875 
z
M 9.8125 72.90625 
L 35.015625 72.90625 
Q 46.296875 72.90625 52.390625 68.21875 
Q 58.5 63.53125 58.5 54.890625 
Q 58.5 48.1875 55.375 44.234375 
Q 52.25 40.28125 46.1875 39.3125 
Q 53.46875 37.75 57.5 32.78125 
Q 61.53125 27.828125 61.53125 20.40625 
Q 61.53125 10.640625 54.890625 5.3125 
Q 48.25 0 35.984375 0 
L 9.8125 0 
z
" id="DejaVuSans-66"/>
      </defs>
      <use xlink:href="#DejaVuSans-72"/>
      <use x="75.195312" xlink:href="#DejaVuSans-77"/>
      <use x="161.474609" xlink:href="#DejaVuSans-71"/>
      <use x="238.964844" xlink:href="#DejaVuSans-66"/>
      <use x="307.568359" xlink:href="#DejaVuSans-49"/>
     </g>
    </g>
   </g>
   <g id="text_8">
    <g clip-path="url(#pc7e8059c01)">
     <!-- AGER -->
     <g transform="translate(468.308592 410.111074)scale(0.1 -0.1)">
      <defs>
       <path d="M 9.8125 72.90625 
L 55.90625 72.90625 
L 55.90625 64.59375 
L 19.671875 64.59375 
L 19.671875 43.015625 
L 54.390625 43.015625 
L 54.390625 34.71875 
L 19.671875 34.71875 
L 19.671875 8.296875 
L 56.78125 8.296875 
L 56.78125 0 
L 9.8125 0 
z
" id="DejaVuSans-69"/>
      </defs>
      <use xlink:href="#DejaVuSans-65"/>
      <use x="66.658203" xlink:href="#DejaVuSans-71"/>
      <use x="144.148438" xlink:href="#DejaVuSans-69"/>
      <use x="207.332031" xlink:href="#DejaVuSans-82"/>
     </g>
    </g>
   </g>
   <g id="text_9">
    <g clip-path="url(#pc7e8059c01)">
     <!-- ITGAM -->
     <g transform="translate(337.317894 63.564773)scale(0.1 -0.1)">
      <defs>
       <path d="M 9.8125 72.90625 
L 19.671875 72.90625 
L 19.671875 0 
L 9.8125 0 
z
" id="DejaVuSans-73"/>
       <path d="M -0.296875 72.90625 
L 61.375 72.90625 
L 61.375 64.59375 
L 35.5 64.59375 
L 35.5 0 
L 25.59375 0 
L 25.59375 64.59375 
L -0.296875 64.59375 
z
" id="DejaVuSans-84"/>
      </defs>
      <use xlink:href="#DejaVuSans-73"/>
      <use x="29.492188" xlink:href="#DejaVuSans-84"/>
      <use x="90.576172" xlink:href="#DejaVuSans-71"/>
      <use x="168.066406" xlink:href="#DejaVuSans-65"/>
      <use x="236.474609" xlink:href="#DejaVuSans-77"/>
     </g>
    </g>
   </g>
   <g id="text_10">
    <g clip-path="url(#pc7e8059c01)">
     <!-- CYBA -->
     <g transform="translate(518.922294 128.65627)scale(0.1 -0.1)">
      <use xlink:href="#DejaVuSans-67"/>
      <use x="68.074219" xlink:href="#DejaVuSans-89"/>
      <use x="129.158203" xlink:href="#DejaVuSans-66"/>
      <use x="197.761719" xlink:href="#DejaVuSans-65"/>
     </g>
    </g>
   </g>
   <g id="text_11">
    <g clip-path="url(#pc7e8059c01)">
     <!-- NCF1 -->
     <g transform="translate(378.098342 430.110227)scale(0.1 -0.1)">
      <defs>
       <path d="M 9.8125 72.90625 
L 23.09375 72.90625 
L 55.421875 11.921875 
L 55.421875 72.90625 
L 64.984375 72.90625 
L 64.984375 0 
L 51.703125 0 
L 19.390625 60.984375 
L 19.390625 0 
L 9.8125 0 
z
" id="DejaVuSans-78"/>
      </defs>
      <use xlink:href="#DejaVuSans-78"/>
      <use x="74.804688" xlink:href="#DejaVuSans-67"/>
      <use x="144.628906" xlink:href="#DejaVuSans-70"/>
      <use x="202.148438" xlink:href="#DejaVuSans-49"/>
     </g>
    </g>
   </g>
   <g id="text_12">
    <g clip-path="url(#pc7e8059c01)">
     <!-- NCF2 -->
     <g transform="translate(52.016723 235.309941)scale(0.1 -0.1)">
      <use xlink:href="#DejaVuSans-78"/>
      <use x="74.804688" xlink:href="#DejaVuSans-67"/>
      <use x="144.628906" xlink:href="#DejaVuSans-70"/>
      <use x="202.148438" xlink:href="#DejaVuSans-50"/>
     </g>
    </g>
   </g>
   <g id="text_13">
    <g clip-path="url(#pc7e8059c01)">
     <!-- NCF4 -->
     <g transform="translate(241.19741 429.987568)scale(0.1 -0.1)">
      <use xlink:href="#DejaVuSans-78"/>
      <use x="74.804688" xlink:href="#DejaVuSans-67"/>
      <use x="144.628906" xlink:href="#DejaVuSans-70"/>
      <use x="202.148438" xlink:href="#DejaVuSans-52"/>
     </g>
    </g>
   </g>
   <g id="text_14">
    <g clip-path="url(#pc7e8059c01)">
     <!-- MAP3K7 -->
     <g transform="translate(431.14976 165.714244)scale(0.1 -0.1)">
      <defs>
       <path d="M 40.578125 39.3125 
Q 47.65625 37.796875 51.625 33 
Q 55.609375 28.21875 55.609375 21.1875 
Q 55.609375 10.40625 48.1875 4.484375 
Q 40.765625 -1.421875 27.09375 -1.421875 
Q 22.515625 -1.421875 17.65625 -0.515625 
Q 12.796875 0.390625 7.625 2.203125 
L 7.625 11.71875 
Q 11.71875 9.328125 16.59375 8.109375 
Q 21.484375 6.890625 26.8125 6.890625 
Q 36.078125 6.890625 40.9375 10.546875 
Q 45.796875 14.203125 45.796875 21.1875 
Q 45.796875 27.640625 41.28125 31.265625 
Q 36.765625 34.90625 28.71875 34.90625 
L 20.21875 34.90625 
L 20.21875 43.015625 
L 29.109375 43.015625 
Q 36.375 43.015625 40.234375 45.921875 
Q 44.09375 48.828125 44.09375 54.296875 
Q 44.09375 59.90625 40.109375 62.90625 
Q 36.140625 65.921875 28.71875 65.921875 
Q 24.65625 65.921875 20.015625 65.03125 
Q 15.375 64.15625 9.8125 62.3125 
L 9.8125 71.09375 
Q 15.4375 72.65625 20.34375 73.4375 
Q 25.25 74.21875 29.59375 74.21875 
Q 40.828125 74.21875 47.359375 69.109375 
Q 53.90625 64.015625 53.90625 55.328125 
Q 53.90625 49.265625 50.4375 45.09375 
Q 46.96875 40.921875 40.578125 39.3125 
z
" id="DejaVuSans-51"/>
       <path d="M 8.203125 72.90625 
L 55.078125 72.90625 
L 55.078125 68.703125 
L 28.609375 0 
L 18.3125 0 
L 43.21875 64.59375 
L 8.203125 64.59375 
z
" id="DejaVuSans-55"/>
      </defs>
      <use xlink:href="#DejaVuSans-77"/>
      <use x="86.279297" xlink:href="#DejaVuSans-65"/>
      <use x="154.6875" xlink:href="#DejaVuSans-80"/>
      <use x="214.990234" xlink:href="#DejaVuSans-51"/>
      <use x="278.613281" xlink:href="#DejaVuSans-75"/>
      <use x="344.189453" xlink:href="#DejaVuSans-55"/>
     </g>
    </g>
   </g>
   <g id="text_15">
    <g clip-path="url(#pc7e8059c01)">
     <!-- MTOR -->
     <g transform="translate(437.517824 101.21254)scale(0.1 -0.1)">
      <defs>
       <path d="M 39.40625 66.21875 
Q 28.65625 66.21875 22.328125 58.203125 
Q 16.015625 50.203125 16.015625 36.375 
Q 16.015625 22.609375 22.328125 14.59375 
Q 28.65625 6.59375 39.40625 6.59375 
Q 50.140625 6.59375 56.421875 14.59375 
Q 62.703125 22.609375 62.703125 36.375 
Q 62.703125 50.203125 56.421875 58.203125 
Q 50.140625 66.21875 39.40625 66.21875 
z
M 39.40625 74.21875 
Q 54.734375 74.21875 63.90625 63.9375 
Q 73.09375 53.65625 73.09375 36.375 
Q 73.09375 19.140625 63.90625 8.859375 
Q 54.734375 -1.421875 39.40625 -1.421875 
Q 24.03125 -1.421875 14.8125 8.828125 
Q 5.609375 19.09375 5.609375 36.375 
Q 5.609375 53.65625 14.8125 63.9375 
Q 24.03125 74.21875 39.40625 74.21875 
z
" id="DejaVuSans-79"/>
      </defs>
      <use xlink:href="#DejaVuSans-77"/>
      <use x="86.279297" xlink:href="#DejaVuSans-84"/>
      <use x="147.363281" xlink:href="#DejaVuSans-79"/>
      <use x="226.074219" xlink:href="#DejaVuSans-82"/>
     </g>
    </g>
   </g>
   <g id="text_16">
    <g clip-path="url(#pc7e8059c01)">
     <!-- ATG7 -->
     <g transform="translate(580.953157 194.514828)scale(0.1 -0.1)">
      <use xlink:href="#DejaVuSans-65"/>
      <use x="60.658203" xlink:href="#DejaVuSans-84"/>
      <use x="121.742188" xlink:href="#DejaVuSans-71"/>
      <use x="199.232422" xlink:href="#DejaVuSans-55"/>
     </g>
    </g>
   </g>
   <g id="text_17">
    <g clip-path="url(#pc7e8059c01)">
     <!-- CLEC7A -->
     <g transform="translate(146.824455 239.959538)scale(0.1 -0.1)">
      <defs>
       <path d="M 9.8125 72.90625 
L 19.671875 72.90625 
L 19.671875 8.296875 
L 55.171875 8.296875 
L 55.171875 0 
L 9.8125 0 
z
" id="DejaVuSans-76"/>
      </defs>
      <use xlink:href="#DejaVuSans-67"/>
      <use x="69.824219" xlink:href="#DejaVuSans-76"/>
      <use x="125.537109" xlink:href="#DejaVuSans-69"/>
      <use x="188.720703" xlink:href="#DejaVuSans-67"/>
      <use x="258.544922" xlink:href="#DejaVuSans-55"/>
      <use x="322.167969" xlink:href="#DejaVuSans-65"/>
     </g>
    </g>
   </g>
   <g id="text_18">
    <g clip-path="url(#pc7e8059c01)">
     <!-- PLCG1 -->
     <g transform="translate(71.626979 170.985102)scale(0.1 -0.1)">
      <use xlink:href="#DejaVuSans-80"/>
      <use x="60.302734" xlink:href="#DejaVuSans-76"/>
      <use x="116.015625" xlink:href="#DejaVuSans-67"/>
      <use x="185.839844" xlink:href="#DejaVuSans-71"/>
      <use x="263.330078" xlink:href="#DejaVuSans-49"/>
     </g>
    </g>
   </g>
   <g id="text_19">
    <g clip-path="url(#pc7e8059c01)">
     <!-- PLCG2 -->
     <g transform="translate(602.346559 239.734046)scale(0.1 -0.1)">
      <use xlink:href="#DejaVuSans-80"/>
      <use x="60.302734" xlink:href="#DejaVuSans-76"/>
      <use x="116.015625" xlink:href="#DejaVuSans-67"/>
      <use x="185.839844" xlink:href="#DejaVuSans-71"/>
      <use x="263.330078" xlink:href="#DejaVuSans-50"/>
     </g>
    </g>
   </g>
   <g id="text_20">
    <g clip-path="url(#pc7e8059c01)">
     <!-- PRKCA -->
     <g transform="translate(322.554856 309.176673)scale(0.1 -0.1)">
      <use xlink:href="#DejaVuSans-80"/>
      <use x="60.302734" xlink:href="#DejaVuSans-82"/>
      <use x="129.785156" xlink:href="#DejaVuSans-75"/>
      <use x="189.861328" xlink:href="#DejaVuSans-67"/>
      <use x="259.685547" xlink:href="#DejaVuSans-65"/>
     </g>
    </g>
   </g>
   <g id="text_21">
    <g clip-path="url(#pc7e8059c01)">
     <!-- PRKCB -->
     <g transform="translate(307.613485 291.855028)scale(0.1 -0.1)">
      <use xlink:href="#DejaVuSans-80"/>
      <use x="60.302734" xlink:href="#DejaVuSans-82"/>
      <use x="129.785156" xlink:href="#DejaVuSans-75"/>
      <use x="189.861328" xlink:href="#DejaVuSans-67"/>
      <use x="259.685547" xlink:href="#DejaVuSans-66"/>
     </g>
    </g>
   </g>
   <g id="text_22">
    <g clip-path="url(#pc7e8059c01)">
     <!-- MAP2K1 -->
     <g transform="translate(597.702958 315.153411)scale(0.1 -0.1)">
      <use xlink:href="#DejaVuSans-77"/>
      <use x="86.279297" xlink:href="#DejaVuSans-65"/>
      <use x="154.6875" xlink:href="#DejaVuSans-80"/>
      <use x="214.990234" xlink:href="#DejaVuSans-50"/>
      <use x="278.613281" xlink:href="#DejaVuSans-75"/>
      <use x="344.189453" xlink:href="#DejaVuSans-49"/>
     </g>
    </g>
   </g>
   <g id="text_23">
    <g clip-path="url(#pc7e8059c01)">
     <!-- MAP2K2 -->
     <g transform="translate(158.682451 111.384859)scale(0.1 -0.1)">
      <use xlink:href="#DejaVuSans-77"/>
      <use x="86.279297" xlink:href="#DejaVuSans-65"/>
      <use x="154.6875" xlink:href="#DejaVuSans-80"/>
      <use x="214.990234" xlink:href="#DejaVuSans-50"/>
      <use x="278.613281" xlink:href="#DejaVuSans-75"/>
      <use x="344.189453" xlink:href="#DejaVuSans-50"/>
     </g>
    </g>
   </g>
   <g id="text_24">
    <g clip-path="url(#pc7e8059c01)">
     <!-- TLR7 -->
     <g transform="translate(258.498898 300.158706)scale(0.1 -0.1)">
      <use xlink:href="#DejaVuSans-84"/>
      <use x="61.083984" xlink:href="#DejaVuSans-76"/>
      <use x="116.796875" xlink:href="#DejaVuSans-82"/>
      <use x="186.279297" xlink:href="#DejaVuSans-55"/>
     </g>
    </g>
   </g>
   <g id="text_25">
    <g clip-path="url(#pc7e8059c01)">
     <!-- ITGB2 -->
     <g transform="translate(517.631213 269.593546)scale(0.1 -0.1)">
      <use xlink:href="#DejaVuSans-73"/>
      <use x="29.492188" xlink:href="#DejaVuSans-84"/>
      <use x="90.576172" xlink:href="#DejaVuSans-71"/>
      <use x="168.066406" xlink:href="#DejaVuSans-66"/>
      <use x="236.669922" xlink:href="#DejaVuSans-50"/>
     </g>
    </g>
   </g>
   <g id="text_26">
    <g clip-path="url(#pc7e8059c01)">
     <!-- RAC1 -->
     <g transform="translate(151.613234 410.988586)scale(0.1 -0.1)">
      <use xlink:href="#DejaVuSans-82"/>
      <use x="65.482422" xlink:href="#DejaVuSans-65"/>
      <use x="132.140625" xlink:href="#DejaVuSans-67"/>
      <use x="201.964844" xlink:href="#DejaVuSans-49"/>
     </g>
    </g>
   </g>
   <g id="text_27">
    <g clip-path="url(#pc7e8059c01)">
     <!-- RAC2 -->
     <g transform="translate(93.516885 360.23554)scale(0.1 -0.1)">
      <use xlink:href="#DejaVuSans-82"/>
      <use x="65.482422" xlink:href="#DejaVuSans-65"/>
      <use x="132.140625" xlink:href="#DejaVuSans-67"/>
      <use x="201.964844" xlink:href="#DejaVuSans-50"/>
     </g>
    </g>
   </g>
   <g id="text_28">
    <g clip-path="url(#pc7e8059c01)">
     <!-- FPR1 -->
     <g transform="translate(341.309623 157.52513)scale(0.1 -0.1)">
      <use xlink:href="#DejaVuSans-70"/>
      <use x="57.519531" xlink:href="#DejaVuSans-80"/>
      <use x="117.822266" xlink:href="#DejaVuSans-82"/>
      <use x="187.304688" xlink:href="#DejaVuSans-49"/>
     </g>
    </g>
   </g>
   <g id="text_29">
    <g clip-path="url(#pc7e8059c01)">
     <!-- ITGAL -->
     <g transform="translate(122.140848 109.761594)scale(0.1 -0.1)">
      <use xlink:href="#DejaVuSans-73"/>
      <use x="29.492188" xlink:href="#DejaVuSans-84"/>
      <use x="90.576172" xlink:href="#DejaVuSans-71"/>
      <use x="168.066406" xlink:href="#DejaVuSans-65"/>
      <use x="236.474609" xlink:href="#DejaVuSans-76"/>
     </g>
    </g>
   </g>
   <g id="text_30">
    <!-- Importance Score for Each Node in the Network -->
    <g transform="translate(198.616875 16.318125)scale(0.12 -0.12)">
     <defs>
      <path d="M 52 44.1875 
Q 55.375 50.25 60.0625 53.125 
Q 64.75 56 71.09375 56 
Q 79.640625 56 84.28125 50.015625 
Q 88.921875 44.046875 88.921875 33.015625 
L 88.921875 0 
L 79.890625 0 
L 79.890625 32.71875 
Q 79.890625 40.578125 77.09375 44.375 
Q 74.3125 48.1875 68.609375 48.1875 
Q 61.625 48.1875 57.5625 43.546875 
Q 53.515625 38.921875 53.515625 30.90625 
L 53.515625 0 
L 44.484375 0 
L 44.484375 32.71875 
Q 44.484375 40.625 41.703125 44.40625 
Q 38.921875 48.1875 33.109375 48.1875 
Q 26.21875 48.1875 22.15625 43.53125 
Q 18.109375 38.875 18.109375 30.90625 
L 18.109375 0 
L 9.078125 0 
L 9.078125 54.6875 
L 18.109375 54.6875 
L 18.109375 46.1875 
Q 21.1875 51.21875 25.484375 53.609375 
Q 29.78125 56 35.6875 56 
Q 41.65625 56 45.828125 52.96875 
Q 50 49.953125 52 44.1875 
z
" id="DejaVuSans-109"/>
      <path d="M 18.109375 8.203125 
L 18.109375 -20.796875 
L 9.078125 -20.796875 
L 9.078125 54.6875 
L 18.109375 54.6875 
L 18.109375 46.390625 
Q 20.953125 51.265625 25.265625 53.625 
Q 29.59375 56 35.59375 56 
Q 45.5625 56 51.78125 48.09375 
Q 58.015625 40.1875 58.015625 27.296875 
Q 58.015625 14.40625 51.78125 6.484375 
Q 45.5625 -1.421875 35.59375 -1.421875 
Q 29.59375 -1.421875 25.265625 0.953125 
Q 20.953125 3.328125 18.109375 8.203125 
z
M 48.6875 27.296875 
Q 48.6875 37.203125 44.609375 42.84375 
Q 40.53125 48.484375 33.40625 48.484375 
Q 26.265625 48.484375 22.1875 42.84375 
Q 18.109375 37.203125 18.109375 27.296875 
Q 18.109375 17.390625 22.1875 11.75 
Q 26.265625 6.109375 33.40625 6.109375 
Q 40.53125 6.109375 44.609375 11.75 
Q 48.6875 17.390625 48.6875 27.296875 
z
" id="DejaVuSans-112"/>
      <path d="M 30.609375 48.390625 
Q 23.390625 48.390625 19.1875 42.75 
Q 14.984375 37.109375 14.984375 27.296875 
Q 14.984375 17.484375 19.15625 11.84375 
Q 23.34375 6.203125 30.609375 6.203125 
Q 37.796875 6.203125 41.984375 11.859375 
Q 46.1875 17.53125 46.1875 27.296875 
Q 46.1875 37.015625 41.984375 42.703125 
Q 37.796875 48.390625 30.609375 48.390625 
z
M 30.609375 56 
Q 42.328125 56 49.015625 48.375 
Q 55.71875 40.765625 55.71875 27.296875 
Q 55.71875 13.875 49.015625 6.21875 
Q 42.328125 -1.421875 30.609375 -1.421875 
Q 18.84375 -1.421875 12.171875 6.21875 
Q 5.515625 13.875 5.515625 27.296875 
Q 5.515625 40.765625 12.171875 48.375 
Q 18.84375 56 30.609375 56 
z
" id="DejaVuSans-111"/>
      <path d="M 41.109375 46.296875 
Q 39.59375 47.171875 37.8125 47.578125 
Q 36.03125 48 33.890625 48 
Q 26.265625 48 22.1875 43.046875 
Q 18.109375 38.09375 18.109375 28.8125 
L 18.109375 0 
L 9.078125 0 
L 9.078125 54.6875 
L 18.109375 54.6875 
L 18.109375 46.1875 
Q 20.953125 51.171875 25.484375 53.578125 
Q 30.03125 56 36.53125 56 
Q 37.453125 56 38.578125 55.875 
Q 39.703125 55.765625 41.0625 55.515625 
z
" id="DejaVuSans-114"/>
      <path d="M 18.3125 70.21875 
L 18.3125 54.6875 
L 36.8125 54.6875 
L 36.8125 47.703125 
L 18.3125 47.703125 
L 18.3125 18.015625 
Q 18.3125 11.328125 20.140625 9.421875 
Q 21.96875 7.515625 27.59375 7.515625 
L 36.8125 7.515625 
L 36.8125 0 
L 27.59375 0 
Q 17.1875 0 13.234375 3.875 
Q 9.28125 7.765625 9.28125 18.015625 
L 9.28125 47.703125 
L 2.6875 47.703125 
L 2.6875 54.6875 
L 9.28125 54.6875 
L 9.28125 70.21875 
z
" id="DejaVuSans-116"/>
      <path d="M 34.28125 27.484375 
Q 23.390625 27.484375 19.1875 25 
Q 14.984375 22.515625 14.984375 16.5 
Q 14.984375 11.71875 18.140625 8.90625 
Q 21.296875 6.109375 26.703125 6.109375 
Q 34.1875 6.109375 38.703125 11.40625 
Q 43.21875 16.703125 43.21875 25.484375 
L 43.21875 27.484375 
z
M 52.203125 31.203125 
L 52.203125 0 
L 43.21875 0 
L 43.21875 8.296875 
Q 40.140625 3.328125 35.546875 0.953125 
Q 30.953125 -1.421875 24.3125 -1.421875 
Q 15.921875 -1.421875 10.953125 3.296875 
Q 6 8.015625 6 15.921875 
Q 6 25.140625 12.171875 29.828125 
Q 18.359375 34.515625 30.609375 34.515625 
L 43.21875 34.515625 
L 43.21875 35.40625 
Q 43.21875 41.609375 39.140625 45 
Q 35.0625 48.390625 27.6875 48.390625 
Q 23 48.390625 18.546875 47.265625 
Q 14.109375 46.140625 10.015625 43.890625 
L 10.015625 52.203125 
Q 14.9375 54.109375 19.578125 55.046875 
Q 24.21875 56 28.609375 56 
Q 40.484375 56 46.34375 49.84375 
Q 52.203125 43.703125 52.203125 31.203125 
z
" id="DejaVuSans-97"/>
      <path d="M 54.890625 33.015625 
L 54.890625 0 
L 45.90625 0 
L 45.90625 32.71875 
Q 45.90625 40.484375 42.875 44.328125 
Q 39.84375 48.1875 33.796875 48.1875 
Q 26.515625 48.1875 22.3125 43.546875 
Q 18.109375 38.921875 18.109375 30.90625 
L 18.109375 0 
L 9.078125 0 
L 9.078125 54.6875 
L 18.109375 54.6875 
L 18.109375 46.1875 
Q 21.34375 51.125 25.703125 53.5625 
Q 30.078125 56 35.796875 56 
Q 45.21875 56 50.046875 50.171875 
Q 54.890625 44.34375 54.890625 33.015625 
z
" id="DejaVuSans-110"/>
      <path d="M 48.78125 52.59375 
L 48.78125 44.1875 
Q 44.96875 46.296875 41.140625 47.34375 
Q 37.3125 48.390625 33.40625 48.390625 
Q 24.65625 48.390625 19.8125 42.84375 
Q 14.984375 37.3125 14.984375 27.296875 
Q 14.984375 17.28125 19.8125 11.734375 
Q 24.65625 6.203125 33.40625 6.203125 
Q 37.3125 6.203125 41.140625 7.25 
Q 44.96875 8.296875 48.78125 10.40625 
L 48.78125 2.09375 
Q 45.015625 0.34375 40.984375 -0.53125 
Q 36.96875 -1.421875 32.421875 -1.421875 
Q 20.0625 -1.421875 12.78125 6.34375 
Q 5.515625 14.109375 5.515625 27.296875 
Q 5.515625 40.671875 12.859375 48.328125 
Q 20.21875 56 33.015625 56 
Q 37.15625 56 41.109375 55.140625 
Q 45.0625 54.296875 48.78125 52.59375 
z
" id="DejaVuSans-99"/>
      <path d="M 56.203125 29.59375 
L 56.203125 25.203125 
L 14.890625 25.203125 
Q 15.484375 15.921875 20.484375 11.0625 
Q 25.484375 6.203125 34.421875 6.203125 
Q 39.59375 6.203125 44.453125 7.46875 
Q 49.3125 8.734375 54.109375 11.28125 
L 54.109375 2.78125 
Q 49.265625 0.734375 44.1875 -0.34375 
Q 39.109375 -1.421875 33.890625 -1.421875 
Q 20.796875 -1.421875 13.15625 6.1875 
Q 5.515625 13.8125 5.515625 26.8125 
Q 5.515625 40.234375 12.765625 48.109375 
Q 20.015625 56 32.328125 56 
Q 43.359375 56 49.78125 48.890625 
Q 56.203125 41.796875 56.203125 29.59375 
z
M 47.21875 32.234375 
Q 47.125 39.59375 43.09375 43.984375 
Q 39.0625 48.390625 32.421875 48.390625 
Q 24.90625 48.390625 20.390625 44.140625 
Q 15.875 39.890625 15.1875 32.171875 
z
" id="DejaVuSans-101"/>
      <path id="DejaVuSans-32"/>
      <path d="M 37.109375 75.984375 
L 37.109375 68.5 
L 28.515625 68.5 
Q 23.6875 68.5 21.796875 66.546875 
Q 19.921875 64.59375 19.921875 59.515625 
L 19.921875 54.6875 
L 34.71875 54.6875 
L 34.71875 47.703125 
L 19.921875 47.703125 
L 19.921875 0 
L 10.890625 0 
L 10.890625 47.703125 
L 2.296875 47.703125 
L 2.296875 54.6875 
L 10.890625 54.6875 
L 10.890625 58.5 
Q 10.890625 67.625 15.140625 71.796875 
Q 19.390625 75.984375 28.609375 75.984375 
z
" id="DejaVuSans-102"/>
      <path d="M 54.890625 33.015625 
L 54.890625 0 
L 45.90625 0 
L 45.90625 32.71875 
Q 45.90625 40.484375 42.875 44.328125 
Q 39.84375 48.1875 33.796875 48.1875 
Q 26.515625 48.1875 22.3125 43.546875 
Q 18.109375 38.921875 18.109375 30.90625 
L 18.109375 0 
L 9.078125 0 
L 9.078125 75.984375 
L 18.109375 75.984375 
L 18.109375 46.1875 
Q 21.34375 51.125 25.703125 53.5625 
Q 30.078125 56 35.796875 56 
Q 45.21875 56 50.046875 50.171875 
Q 54.890625 44.34375 54.890625 33.015625 
z
" id="DejaVuSans-104"/>
      <path d="M 45.40625 46.390625 
L 45.40625 75.984375 
L 54.390625 75.984375 
L 54.390625 0 
L 45.40625 0 
L 45.40625 8.203125 
Q 42.578125 3.328125 38.25 0.953125 
Q 33.9375 -1.421875 27.875 -1.421875 
Q 17.96875 -1.421875 11.734375 6.484375 
Q 5.515625 14.40625 5.515625 27.296875 
Q 5.515625 40.1875 11.734375 48.09375 
Q 17.96875 56 27.875 56 
Q 33.9375 56 38.25 53.625 
Q 42.578125 51.265625 45.40625 46.390625 
z
M 14.796875 27.296875 
Q 14.796875 17.390625 18.875 11.75 
Q 22.953125 6.109375 30.078125 6.109375 
Q 37.203125 6.109375 41.296875 11.75 
Q 45.40625 17.390625 45.40625 27.296875 
Q 45.40625 37.203125 41.296875 42.84375 
Q 37.203125 48.484375 30.078125 48.484375 
Q 22.953125 48.484375 18.875 42.84375 
Q 14.796875 37.203125 14.796875 27.296875 
z
" id="DejaVuSans-100"/>
      <path d="M 9.421875 54.6875 
L 18.40625 54.6875 
L 18.40625 0 
L 9.421875 0 
z
M 9.421875 75.984375 
L 18.40625 75.984375 
L 18.40625 64.59375 
L 9.421875 64.59375 
z
" id="DejaVuSans-105"/>
      <path d="M 4.203125 54.6875 
L 13.1875 54.6875 
L 24.421875 12.015625 
L 35.59375 54.6875 
L 46.1875 54.6875 
L 57.421875 12.015625 
L 68.609375 54.6875 
L 77.59375 54.6875 
L 63.28125 0 
L 52.6875 0 
L 40.921875 44.828125 
L 29.109375 0 
L 18.5 0 
z
" id="DejaVuSans-119"/>
      <path d="M 9.078125 75.984375 
L 18.109375 75.984375 
L 18.109375 31.109375 
L 44.921875 54.6875 
L 56.390625 54.6875 
L 27.390625 29.109375 
L 57.625 0 
L 45.90625 0 
L 18.109375 26.703125 
L 18.109375 0 
L 9.078125 0 
z
" id="DejaVuSans-107"/>
     </defs>
     <use xlink:href="#DejaVuSans-73"/>
     <use x="29.492188" xlink:href="#DejaVuSans-109"/>
     <use x="126.904297" xlink:href="#DejaVuSans-112"/>
     <use x="190.380859" xlink:href="#DejaVuSans-111"/>
     <use x="251.5625" xlink:href="#DejaVuSans-114"/>
     <use x="292.675781" xlink:href="#DejaVuSans-116"/>
     <use x="331.884766" xlink:href="#DejaVuSans-97"/>
     <use x="393.164062" xlink:href="#DejaVuSans-110"/>
     <use x="456.542969" xlink:href="#DejaVuSans-99"/>
     <use x="511.523438" xlink:href="#DejaVuSans-101"/>
     <use x="573.046875" xlink:href="#DejaVuSans-32"/>
     <use x="604.833984" xlink:href="#DejaVuSans-83"/>
     <use x="668.310547" xlink:href="#DejaVuSans-99"/>
     <use x="723.291016" xlink:href="#DejaVuSans-111"/>
     <use x="784.472656" xlink:href="#DejaVuSans-114"/>
     <use x="823.335938" xlink:href="#DejaVuSans-101"/>
     <use x="884.859375" xlink:href="#DejaVuSans-32"/>
     <use x="916.646484" xlink:href="#DejaVuSans-102"/>
     <use x="951.851562" xlink:href="#DejaVuSans-111"/>
     <use x="1013.033203" xlink:href="#DejaVuSans-114"/>
     <use x="1054.146484" xlink:href="#DejaVuSans-32"/>
     <use x="1085.933594" xlink:href="#DejaVuSans-69"/>
     <use x="1149.117188" xlink:href="#DejaVuSans-97"/>
     <use x="1210.396484" xlink:href="#DejaVuSans-99"/>
     <use x="1265.376953" xlink:href="#DejaVuSans-104"/>
     <use x="1328.755859" xlink:href="#DejaVuSans-32"/>
     <use x="1360.542969" xlink:href="#DejaVuSans-78"/>
     <use x="1435.347656" xlink:href="#DejaVuSans-111"/>
     <use x="1496.529297" xlink:href="#DejaVuSans-100"/>
     <use x="1560.005859" xlink:href="#DejaVuSans-101"/>
     <use x="1621.529297" xlink:href="#DejaVuSans-32"/>
     <use x="1653.316406" xlink:href="#DejaVuSans-105"/>
     <use x="1681.099609" xlink:href="#DejaVuSans-110"/>
     <use x="1744.478516" xlink:href="#DejaVuSans-32"/>
     <use x="1776.265625" xlink:href="#DejaVuSans-116"/>
     <use x="1815.474609" xlink:href="#DejaVuSans-104"/>
     <use x="1878.853516" xlink:href="#DejaVuSans-101"/>
     <use x="1940.376953" xlink:href="#DejaVuSans-32"/>
     <use x="1972.164062" xlink:href="#DejaVuSans-78"/>
     <use x="2046.96875" xlink:href="#DejaVuSans-101"/>
     <use x="2108.492188" xlink:href="#DejaVuSans-116"/>
     <use x="2147.701172" xlink:href="#DejaVuSans-119"/>
     <use x="2229.488281" xlink:href="#DejaVuSans-111"/>
     <use x="2290.669922" xlink:href="#DejaVuSans-114"/>
     <use x="2331.783203" xlink:href="#DejaVuSans-107"/>
    </g>
   </g>
  </g>
 </g>
 <defs>
  <clipPath id="pc7e8059c01">
   <rect height="443.52" width="669.6" x="7.2" y="22.318125"/>
  </clipPath>
 </defs>
</svg>
