<?xml version="1.0" encoding="utf-8" standalone="no"?>
<!DOCTYPE svg PUBLIC "-//W3C//DTD SVG 1.1//EN"
  "http://www.w3.org/Graphics/SVG/1.1/DTD/svg11.dtd">
<!-- Created with matplotlib (https://matplotlib.org/) -->
<svg height="473.038125pt" version="1.1" viewBox="0 0 684 473.038125" width="684pt" xmlns="http://www.w3.org/2000/svg" xmlns:xlink="http://www.w3.org/1999/xlink">
 <metadata>
  <rdf:RDF xmlns:cc="http://creativecommons.org/ns#" xmlns:dc="http://purl.org/dc/elements/1.1/" xmlns:rdf="http://www.w3.org/1999/02/22-rdf-syntax-ns#">
   <cc:Work>
    <dc:type rdf:resource="http://purl.org/dc/dcmitype/StillImage"/>
    <dc:date>2024-04-25T16:26:04.585120</dc:date>
    <dc:format>image/svg+xml</dc:format>
    <dc:creator>
     <cc:Agent>
      <dc:title>Matplotlib v3.3.1, https://matplotlib.org/</dc:title>
     </cc:Agent>
    </dc:creator>
   </cc:Work>
  </rdf:RDF>
 </metadata>
 <defs>
  <style type="text/css">*{stroke-linecap:butt;stroke-linejoin:round;}</style>
 </defs>
 <g id="figure_1">
  <g id="patch_1">
   <path d="M 0 473.038125 
L 684 473.038125 
L 684 0 
L 0 0 
z
" style="fill:#ffffff;"/>
  </g>
  <g id="axes_1">
   <g id="patch_2">
    <path clip-path="url(#pf5ed1f57be)" d="M 545.830308 365.00966 
Q 480.419668 323.812529 415.955063 283.211232 
" style="fill:none;stroke:#808080;stroke-linecap:round;"/>
    <path clip-path="url(#pf5ed1f57be)" d="M 418.273838 287.035272 
L 415.955063 283.211232 
L 420.40556 283.650636 
L 418.273838 287.035272 
z
" style="fill:#808080;stroke:#808080;stroke-linecap:round;"/>
   </g>
   <g id="patch_3">
    <path clip-path="url(#pf5ed1f57be)" d="M 546.140333 364.555352 
Q 490.569273 324.411694 435.904511 284.922732 
" style="fill:none;stroke:#808080;stroke-linecap:round;"/>
    <path clip-path="url(#pf5ed1f57be)" d="M 437.975825 288.886273 
L 435.904511 284.922732 
L 440.318132 285.643805 
L 437.975825 288.886273 
z
" style="fill:#808080;stroke:#808080;stroke-linecap:round;"/>
   </g>
   <g id="patch_4">
    <path clip-path="url(#pf5ed1f57be)" d="M 548.299492 362.458633 
Q 507.158128 301.77665 466.644168 242.020066 
" style="fill:none;stroke:#808080;stroke-linecap:round;"/>
    <path clip-path="url(#pf5ed1f57be)" d="M 467.233436 246.45321 
L 466.644168 242.020066 
L 470.544244 244.208538 
L 467.233436 246.45321 
z
" style="fill:#808080;stroke:#808080;stroke-linecap:round;"/>
   </g>
   <g id="patch_5">
    <path clip-path="url(#pf5ed1f57be)" d="M 440.967482 389.388176 
Q 378.534824 405.11768 317.186321 420.574037 
" style="fill:none;stroke:#808080;stroke-linecap:round;"/>
    <path clip-path="url(#pf5ed1f57be)" d="M 321.553729 421.536196 
L 317.186321 420.574037 
L 320.576493 417.657406 
L 321.553729 421.536196 
z
" style="fill:#808080;stroke:#808080;stroke-linecap:round;"/>
   </g>
   <g id="patch_6">
    <path clip-path="url(#pf5ed1f57be)" d="M 453.927791 379.910088 
Q 504.204881 298.746778 553.893209 218.53392 
" style="fill:none;stroke:#808080;stroke-linecap:round;"/>
    <path clip-path="url(#pf5ed1f57be)" d="M 550.086567 220.881148 
L 553.893209 218.53392 
L 553.487006 222.98757 
L 550.086567 220.881148 
z
" style="fill:#808080;stroke:#808080;stroke-linecap:round;"/>
   </g>
   <g id="patch_7">
    <path clip-path="url(#pf5ed1f57be)" d="M 445.800925 379.37948 
Q 410.083845 300.342428 374.827178 222.32421 
" style="fill:none;stroke:#808080;stroke-linecap:round;"/>
    <path clip-path="url(#pf5ed1f57be)" d="M 374.65186 226.792908 
L 374.827178 222.32421 
L 378.296946 225.145683 
L 374.65186 226.792908 
z
" style="fill:#808080;stroke:#808080;stroke-linecap:round;"/>
   </g>
   <g id="patch_8">
    <path clip-path="url(#pf5ed1f57be)" d="M 556.184324 188.942305 
Q 575.244878 243.423986 593.936227 296.850352 
" style="fill:none;stroke:#808080;stroke-linecap:round;"/>
    <path clip-path="url(#pf5ed1f57be)" d="M 594.503125 292.414293 
L 593.936227 296.850352 
L 590.727518 293.735198 
L 594.503125 292.414293 
z
" style="fill:#808080;stroke:#808080;stroke-linecap:round;"/>
   </g>
   <g id="patch_9">
    <path clip-path="url(#pf5ed1f57be)" d="M 544.843569 179.009673 
Q 461.081057 161.625161 378.413251 144.46785 
" style="fill:none;stroke:#808080;stroke-linecap:round;"/>
    <path clip-path="url(#pf5ed1f57be)" d="M 381.923358 147.238977 
L 378.413251 144.46785 
L 382.736217 143.32244 
L 381.923358 147.238977 
z
" style="fill:#808080;stroke:#808080;stroke-linecap:round;"/>
   </g>
   <g id="patch_10">
    <path clip-path="url(#pf5ed1f57be)" d="M 558.696542 187.561973 
Q 583.105597 218.426943 606.821133 248.414968 
" style="fill:none;stroke:#808080;stroke-linecap:round;"/>
    <path clip-path="url(#pf5ed1f57be)" d="M 605.908656 244.036911 
L 606.821133 248.414968 
L 602.771201 246.518115 
L 605.908656 244.036911 
z
" style="fill:#808080;stroke:#808080;stroke-linecap:round;"/>
   </g>
   <g id="patch_11">
    <path clip-path="url(#pf5ed1f57be)" d="M 544.704759 181.584784 
Q 423.454068 193.045094 303.31645 204.400199 
" style="fill:none;stroke:#808080;stroke-linecap:round;"/>
    <path clip-path="url(#pf5ed1f57be)" d="M 307.486898 206.014933 
L 303.31645 204.400199 
L 307.110505 202.032681 
L 307.486898 206.014933 
z
" style="fill:#808080;stroke:#808080;stroke-linecap:round;"/>
   </g>
   <g id="patch_12">
    <path clip-path="url(#pf5ed1f57be)" d="M 361.569257 291.669233 
Q 456.30255 252.596795 550.002271 213.950651 
" style="fill:none;stroke:#808080;stroke-linecap:round;"/>
    <path clip-path="url(#pf5ed1f57be)" d="M 545.541869 213.626895 
L 550.002271 213.950651 
L 547.067025 217.324719 
L 545.541869 213.626895 
z
" style="fill:#808080;stroke:#808080;stroke-linecap:round;"/>
   </g>
   <g id="patch_13">
    <path clip-path="url(#pf5ed1f57be)" d="M 355.355664 286.495678 
Q 362.182601 254.189105 368.778383 222.976409 
" style="fill:none;stroke:#808080;stroke-linecap:round;"/>
    <path clip-path="url(#pf5ed1f57be)" d="M 365.99459 226.47648 
L 368.778383 222.976409 
L 369.908164 227.303486 
L 365.99459 226.47648 
z
" style="fill:#808080;stroke:#808080;stroke-linecap:round;"/>
   </g>
   <g id="patch_14">
    <path clip-path="url(#pf5ed1f57be)" d="M 222.826554 239.158257 
Q 199.543196 293.345235 176.701219 346.504993 
" style="fill:none;stroke:#808080;stroke-linecap:round;"/>
    <path clip-path="url(#pf5ed1f57be)" d="M 180.117902 343.619465 
L 176.701219 346.504993 
L 176.442806 342.04033 
L 180.117902 343.619465 
z
" style="fill:#808080;stroke:#808080;stroke-linecap:round;"/>
   </g>
   <g id="patch_15">
    <path clip-path="url(#pf5ed1f57be)" d="M 226.202536 239.867052 
Q 225.834394 316.626947 225.471613 392.268821 
" style="fill:none;stroke:#808080;stroke-linecap:round;"/>
    <path clip-path="url(#pf5ed1f57be)" d="M 227.490774 388.278459 
L 225.471613 392.268821 
L 223.49082 388.259275 
L 227.490774 388.278459 
z
" style="fill:#808080;stroke:#808080;stroke-linecap:round;"/>
   </g>
   <g id="patch_16">
    <path clip-path="url(#pf5ed1f57be)" d="M 72.581136 270.972407 
Q 186.506476 344.617217 299.492879 417.655068 
" style="fill:none;stroke:#808080;stroke-linecap:round;"/>
    <path clip-path="url(#pf5ed1f57be)" d="M 297.219394 413.80393 
L 299.492879 417.655068 
L 295.047877 417.163173 
L 297.219394 413.80393 
z
" style="fill:#808080;stroke:#808080;stroke-linecap:round;"/>
   </g>
   <g id="patch_17">
    <path clip-path="url(#pf5ed1f57be)" d="M 222.674086 333.099688 
Q 147.974809 301.376818 74.304615 270.090971 
" style="fill:none;stroke:#808080;stroke-linecap:round;"/>
    <path clip-path="url(#pf5ed1f57be)" d="M 77.204596 273.495396 
L 74.304615 270.090971 
L 78.768143 269.813641 
L 77.204596 273.495396 
z
" style="fill:#808080;stroke:#808080;stroke-linecap:round;"/>
   </g>
   <g id="patch_18">
    <path clip-path="url(#pf5ed1f57be)" d="M 239.077552 338.442537 
Q 340.004602 361.877788 439.842592 385.060159 
" style="fill:none;stroke:#808080;stroke-linecap:round;"/>
    <path clip-path="url(#pf5ed1f57be)" d="M 436.398617 382.20726 
L 439.842592 385.060159 
L 435.493887 386.1036 
L 436.398617 382.20726 
z
" style="fill:#808080;stroke:#808080;stroke-linecap:round;"/>
   </g>
   <g id="patch_19">
    <path clip-path="url(#pf5ed1f57be)" d="M 229.065801 327.970984 
Q 215.678343 255.745948 202.494651 184.62022 
" style="fill:none;stroke:#808080;stroke-linecap:round;"/>
    <path clip-path="url(#pf5ed1f57be)" d="M 201.25716 188.917733 
L 202.494651 184.62022 
L 205.190167 188.188721 
L 201.25716 188.917733 
z
" style="fill:#808080;stroke:#808080;stroke-linecap:round;"/>
   </g>
   <g id="patch_20">
    <path clip-path="url(#pf5ed1f57be)" d="M 223.646461 331.382212 
Q 211.941323 322.847575 201.139577 314.971634 
" style="fill:none;stroke:#808080;stroke-linecap:round;"/>
    <path clip-path="url(#pf5ed1f57be)" d="M 203.193343 318.944297 
L 201.139577 314.971634 
L 205.549967 315.712219 
L 203.193343 318.944297 
z
" style="fill:#808080;stroke:#808080;stroke-linecap:round;"/>
   </g>
   <g id="patch_21">
    <path clip-path="url(#pf5ed1f57be)" d="M 339.458774 249.211836 
Q 206.705661 257.47162 75.068424 265.661976 
" style="fill:none;stroke:#808080;stroke-linecap:round;"/>
    <path clip-path="url(#pf5ed1f57be)" d="M 79.184902 267.40972 
L 75.068424 265.661976 
L 78.936506 263.41744 
L 79.184902 267.40972 
z
" style="fill:#808080;stroke:#808080;stroke-linecap:round;"/>
   </g>
   <g id="patch_22">
    <path clip-path="url(#pf5ed1f57be)" d="M 353.211916 255.667821 
Q 398.735286 317.973699 443.599071 379.376832 
" style="fill:none;stroke:#808080;stroke-linecap:round;"/>
    <path clip-path="url(#pf5ed1f57be)" d="M 442.854149 374.967173 
L 443.599071 379.376832 
L 439.624391 377.326975 
L 442.854149 374.967173 
z
" style="fill:#808080;stroke:#808080;stroke-linecap:round;"/>
   </g>
   <g id="patch_23">
    <path clip-path="url(#pf5ed1f57be)" d="M 340.35418 244.801344 
Q 274.404567 211.836558 209.455014 179.371651 
" style="fill:none;stroke:#808080;stroke-linecap:round;"/>
    <path clip-path="url(#pf5ed1f57be)" d="M 212.13873 182.949033 
L 209.455014 179.371651 
L 213.92715 179.371107 
L 212.13873 182.949033 
z
" style="fill:#808080;stroke:#808080;stroke-linecap:round;"/>
   </g>
   <g id="patch_24">
    <path clip-path="url(#pf5ed1f57be)" d="M 340.037006 251.826741 
Q 270.672386 278.942064 202.349066 305.650333 
" style="fill:none;stroke:#808080;stroke-linecap:round;"/>
    <path clip-path="url(#pf5ed1f57be)" d="M 206.802697 306.056745 
L 202.349066 305.650333 
L 205.346373 302.331275 
L 206.802697 306.056745 
z
" style="fill:#808080;stroke:#808080;stroke-linecap:round;"/>
   </g>
   <g id="patch_25">
    <path clip-path="url(#pf5ed1f57be)" d="M 74.847848 198.439111 
Q 237.051135 237.211706 398.167022 275.724372 
" style="fill:none;stroke:#808080;stroke-linecap:round;"/>
    <path clip-path="url(#pf5ed1f57be)" d="M 394.741599 272.849224 
L 398.167022 275.724372 
L 393.81165 276.739621 
L 394.741599 272.849224 
z
" style="fill:#808080;stroke:#808080;stroke-linecap:round;"/>
   </g>
   <g id="patch_26">
    <path clip-path="url(#pf5ed1f57be)" d="M 409.941102 167.372647 
Q 479.046305 264.963596 547.5054 361.642106 
" style="fill:none;stroke:#808080;stroke-linecap:round;"/>
    <path clip-path="url(#pf5ed1f57be)" d="M 546.826034 357.221872 
L 547.5054 361.642106 
L 543.561594 359.533458 
L 546.826034 357.221872 
z
" style="fill:#808080;stroke:#808080;stroke-linecap:round;"/>
   </g>
   <g id="patch_27">
    <path clip-path="url(#pf5ed1f57be)" d="M 510.645759 326.462947 
Q 413.084426 372.853989 316.53279 418.764914 
" style="fill:none;stroke:#808080;stroke-linecap:round;"/>
    <path clip-path="url(#pf5ed1f57be)" d="M 321.00405 418.853395 
L 316.53279 418.764914 
L 319.286331 415.240994 
L 321.00405 418.853395 
z
" style="fill:#808080;stroke:#808080;stroke-linecap:round;"/>
   </g>
   <g id="patch_28">
    <path clip-path="url(#pf5ed1f57be)" d="M 526.934481 324.543877 
Q 560.453604 331.660246 592.879069 338.544423 
" style="fill:none;stroke:#808080;stroke-linecap:round;"/>
    <path clip-path="url(#pf5ed1f57be)" d="M 589.381639 335.757314 
L 592.879069 338.544423 
L 588.550923 339.670102 
L 589.381639 335.757314 
z
" style="fill:#808080;stroke:#808080;stroke-linecap:round;"/>
   </g>
   <g id="patch_29">
    <path clip-path="url(#pf5ed1f57be)" d="M 521.402302 314.596738 
Q 538.753527 266.481861 555.725474 219.41872 
" style="fill:none;stroke:#808080;stroke-linecap:round;"/>
    <path clip-path="url(#pf5ed1f57be)" d="M 552.487126 222.503052 
L 555.725474 219.41872 
L 556.24993 223.859998 
L 552.487126 222.503052 
z
" style="fill:#808080;stroke:#808080;stroke-linecap:round;"/>
   </g>
   <g id="patch_30">
    <path clip-path="url(#pf5ed1f57be)" d="M 511.503642 317.592083 
Q 444.63078 268.077934 378.65646 219.229085 
" style="fill:none;stroke:#808080;stroke-linecap:round;"/>
    <path clip-path="url(#pf5ed1f57be)" d="M 380.681054 223.216693 
L 378.65646 219.229085 
L 383.061303 220.001975 
L 380.681054 223.216693 
z
" style="fill:#808080;stroke:#808080;stroke-linecap:round;"/>
   </g>
   <g id="patch_31">
    <path clip-path="url(#pf5ed1f57be)" d="M 419.886838 276.10467 
Q 388.04063 263.935519 357.238803 252.165451 
" style="fill:none;stroke:#808080;stroke-linecap:round;"/>
    <path clip-path="url(#pf5ed1f57be)" d="M 360.261398 255.461496 
L 357.238803 252.165451 
L 361.689197 251.725002 
L 360.261398 255.461496 
z
" style="fill:#808080;stroke:#808080;stroke-linecap:round;"/>
   </g>
   <g id="patch_32">
    <path clip-path="url(#pf5ed1f57be)" d="M 419.657646 281.611455 
Q 329.308182 307.840881 240.032422 333.758599 
" style="fill:none;stroke:#808080;stroke-linecap:round;"/>
    <path clip-path="url(#pf5ed1f57be)" d="M 244.431418 334.564099 
L 240.032422 333.758599 
L 243.316219 330.722702 
L 244.431418 334.564099 
z
" style="fill:#808080;stroke:#808080;stroke-linecap:round;"/>
   </g>
   <g id="patch_33">
    <path clip-path="url(#pf5ed1f57be)" d="M 419.392991 280.331832 
Q 256.827048 301.8383 95.369481 323.198137 
" style="fill:none;stroke:#808080;stroke-linecap:round;"/>
    <path clip-path="url(#pf5ed1f57be)" d="M 99.597232 324.656257 
L 95.369481 323.198137 
L 99.072628 320.690808 
L 99.597232 324.656257 
z
" style="fill:#808080;stroke:#808080;stroke-linecap:round;"/>
   </g>
   <g id="patch_34">
    <path clip-path="url(#pf5ed1f57be)" d="M 433.685705 272.683866 
Q 490.39106 207.99343 546.35944 144.143749 
" style="fill:none;stroke:#808080;stroke-linecap:round;"/>
    <path clip-path="url(#pf5ed1f57be)" d="M 542.218771 145.833381 
L 546.35944 144.143749 
L 545.226744 148.470064 
L 542.218771 145.833381 
z
" style="fill:#808080;stroke:#808080;stroke-linecap:round;"/>
   </g>
   <g id="patch_35">
    <path clip-path="url(#pf5ed1f57be)" d="M 399.906707 274.172925 
Q 377.888747 263.335442 356.873893 252.991699 
" style="fill:none;stroke:#808080;stroke-linecap:round;"/>
    <path clip-path="url(#pf5ed1f57be)" d="M 359.579485 256.552566 
L 356.873893 252.991699 
L 361.345942 252.963746 
L 359.579485 256.552566 
z
" style="fill:#808080;stroke:#808080;stroke-linecap:round;"/>
   </g>
   <g id="patch_36">
    <path clip-path="url(#pf5ed1f57be)" d="M 399.451728 280.715126 
Q 319.160033 307.241101 239.929938 333.416355 
" style="fill:none;stroke:#808080;stroke-linecap:round;"/>
    <path clip-path="url(#pf5ed1f57be)" d="M 244.355423 334.060626 
L 239.929938 333.416355 
L 243.100645 330.26253 
L 244.355423 334.060626 
z
" style="fill:#808080;stroke:#808080;stroke-linecap:round;"/>
   </g>
   <g id="patch_37">
    <path clip-path="url(#pf5ed1f57be)" d="M 414.671035 283.100588 
Q 462.474745 317.979862 509.375277 352.200145 
" style="fill:none;stroke:#808080;stroke-linecap:round;"/>
    <path clip-path="url(#pf5ed1f57be)" d="M 507.322806 348.226813 
L 509.375277 352.200145 
L 504.965129 351.458122 
L 507.322806 348.226813 
z
" style="fill:#808080;stroke:#808080;stroke-linecap:round;"/>
   </g>
   <g id="patch_38">
    <path clip-path="url(#pf5ed1f57be)" d="M 248.927599 280.22319 
Q 161.435739 273.574508 75.058698 267.010542 
" style="fill:none;stroke:#808080;stroke-linecap:round;"/>
    <path clip-path="url(#pf5ed1f57be)" d="M 78.895651 269.307886 
L 75.058698 267.010542 
L 79.198745 265.319386 
L 78.895651 269.307886 
z
" style="fill:#808080;stroke:#808080;stroke-linecap:round;"/>
   </g>
   <g id="patch_39">
    <path clip-path="url(#pf5ed1f57be)" d="M 265.132595 285.079063 
Q 353.464769 334.075805 440.819244 382.53023 
" style="fill:none;stroke:#808080;stroke-linecap:round;"/>
    <path clip-path="url(#pf5ed1f57be)" d="M 438.291452 378.841021 
L 440.819244 382.53023 
L 436.351201 382.338938 
L 438.291452 378.841021 
z
" style="fill:#808080;stroke:#808080;stroke-linecap:round;"/>
   </g>
   <g id="patch_40">
    <path clip-path="url(#pf5ed1f57be)" d="M 253.465022 273.250553 
Q 229.136971 227.941315 205.337813 183.617101 
" style="fill:none;stroke:#808080;stroke-linecap:round;"/>
    <path clip-path="url(#pf5ed1f57be)" d="M 205.467972 188.087342 
L 205.337813 183.617101 
L 208.992101 186.195119 
L 205.467972 188.087342 
z
" style="fill:#808080;stroke:#808080;stroke-linecap:round;"/>
   </g>
   <g id="patch_41">
    <path clip-path="url(#pf5ed1f57be)" d="M 339.054843 311.910466 
Q 206.451377 289.802029 74.950723 267.87746 
" style="fill:none;stroke:#808080;stroke-linecap:round;"/>
    <path clip-path="url(#pf5ed1f57be)" d="M 78.567349 270.508052 
L 74.950723 267.87746 
L 79.225173 266.562515 
L 78.567349 270.508052 
z
" style="fill:#808080;stroke:#808080;stroke-linecap:round;"/>
   </g>
   <g id="patch_42">
    <path clip-path="url(#pf5ed1f57be)" d="M 354.600037 318.422724 
Q 398.480026 350.301791 441.455489 381.523716 
" style="fill:none;stroke:#808080;stroke-linecap:round;"/>
    <path clip-path="url(#pf5ed1f57be)" d="M 439.394897 377.554591 
L 441.455489 381.523716 
L 437.043833 380.790715 
L 439.394897 377.554591 
z
" style="fill:#808080;stroke:#808080;stroke-linecap:round;"/>
   </g>
   <g id="patch_43">
    <path clip-path="url(#pf5ed1f57be)" d="M 341.291715 307.396898 
Q 274.153912 244.167793 207.830015 181.705209 
" style="fill:none;stroke:#808080;stroke-linecap:round;"/>
    <path clip-path="url(#pf5ed1f57be)" d="M 209.370741 185.903562 
L 207.830015 181.705209 
L 212.113133 182.99164 
L 209.370741 185.903562 
z
" style="fill:#808080;stroke:#808080;stroke-linecap:round;"/>
   </g>
   <g id="patch_44">
    <path clip-path="url(#pf5ed1f57be)" d="M 412.875449 199.372345 
Q 257.618291 222.251537 103.467222 244.967733 
" style="fill:none;stroke:#808080;stroke-linecap:round;"/>
    <path clip-path="url(#pf5ed1f57be)" d="M 107.716063 246.363209 
L 103.467222 244.967733 
L 107.132908 242.405947 
L 107.716063 246.363209 
z
" style="fill:#808080;stroke:#808080;stroke-linecap:round;"/>
   </g>
   <g id="patch_45">
    <path clip-path="url(#pf5ed1f57be)" d="M 419.254848 206.487509 
Q 391.517816 312.728452 364.06321 417.887621 
" style="fill:none;stroke:#808080;stroke-linecap:round;"/>
    <path clip-path="url(#pf5ed1f57be)" d="M 367.008784 414.522567 
L 364.06321 417.887621 
L 363.138511 413.512129 
L 367.008784 414.522567 
z
" style="fill:#808080;stroke:#808080;stroke-linecap:round;"/>
   </g>
   <g id="patch_46">
    <path clip-path="url(#pf5ed1f57be)" d="M 610.362611 191.348086 
Q 539.924424 211.44989 470.561348 231.244877 
" style="fill:none;stroke:#808080;stroke-linecap:round;"/>
    <path clip-path="url(#pf5ed1f57be)" d="M 474.956632 232.07039 
L 470.561348 231.244877 
L 473.858929 228.223957 
L 474.956632 232.07039 
z
" style="fill:#808080;stroke:#808080;stroke-linecap:round;"/>
   </g>
   <g id="patch_47">
    <path clip-path="url(#pf5ed1f57be)" d="M 131.984376 270.037417 
Q 131.566927 193.591999 131.155583 118.264599 
" style="fill:none;stroke:#808080;stroke-linecap:round;"/>
    <path clip-path="url(#pf5ed1f57be)" d="M 129.177456 122.27546 
L 131.155583 118.264599 
L 133.177396 122.253618 
L 129.177456 122.27546 
z
" style="fill:#808080;stroke:#808080;stroke-linecap:round;"/>
   </g>
   <g id="patch_48">
    <path clip-path="url(#pf5ed1f57be)" d="M 136.141807 271.072633 
Q 188.883687 173.205496 241.095164 76.32257 
" style="fill:none;stroke:#808080;stroke-linecap:round;"/>
    <path clip-path="url(#pf5ed1f57be)" d="M 237.436922 78.894974 
L 241.095164 76.32257 
L 240.958142 80.792606 
L 237.436922 78.894974 
z
" style="fill:#808080;stroke:#808080;stroke-linecap:round;"/>
   </g>
   <g id="patch_49">
    <path clip-path="url(#pf5ed1f57be)" d="M 508.901073 355.762349 
Q 432.436683 335.650006 357.05355 315.822064 
" style="fill:none;stroke:#808080;stroke-linecap:round;"/>
    <path clip-path="url(#pf5ed1f57be)" d="M 360.413217 318.773781 
L 357.05355 315.822064 
L 361.430724 314.90536 
L 360.413217 318.773781 
z
" style="fill:#808080;stroke:#808080;stroke-linecap:round;"/>
   </g>
   <g id="patch_50">
    <path clip-path="url(#pf5ed1f57be)" d="M 508.974494 355.5012 
Q 387.420571 319.422813 266.938466 283.662553 
" style="fill:none;stroke:#808080;stroke-linecap:round;"/>
    <path clip-path="url(#pf5ed1f57be)" d="M 270.20404 286.718044 
L 266.938466 283.662553 
L 271.342203 282.883388 
L 270.20404 286.718044 
z
" style="fill:#808080;stroke:#808080;stroke-linecap:round;"/>
   </g>
   <g id="patch_51">
    <path clip-path="url(#pf5ed1f57be)" d="M 457.300913 241.684723 
Q 418.983731 318.735104 381.164385 394.784405 
" style="fill:none;stroke:#808080;stroke-linecap:round;"/>
    <path clip-path="url(#pf5ed1f57be)" d="M 384.736284 392.093395 
L 381.164385 394.784405 
L 381.154716 390.312279 
L 384.736284 392.093395 
z
" style="fill:#808080;stroke:#808080;stroke-linecap:round;"/>
   </g>
   <g id="patch_52">
    <path clip-path="url(#pf5ed1f57be)" d="M 455.902758 227.046355 
Q 433.047189 197.116545 410.870172 168.075312 
" style="fill:none;stroke:#808080;stroke-linecap:round;"/>
    <path clip-path="url(#pf5ed1f57be)" d="M 411.708298 172.468209 
L 410.870172 168.075312 
L 414.887365 170.040549 
L 411.708298 172.468209 
z
" style="fill:#808080;stroke:#808080;stroke-linecap:round;"/>
   </g>
   <g id="patch_53">
    <path clip-path="url(#pf5ed1f57be)" d="M 460.494273 242.562377 
Q 455.262812 310.600292 450.117065 377.523464 
" style="fill:none;stroke:#808080;stroke-linecap:round;"/>
    <path clip-path="url(#pf5ed1f57be)" d="M 452.417835 373.688564 
L 450.117065 377.523464 
L 448.429607 373.381908 
L 452.417835 373.688564 
z
" style="fill:#808080;stroke:#808080;stroke-linecap:round;"/>
   </g>
   <g id="patch_54">
    <path clip-path="url(#pf5ed1f57be)" d="M 107.049964 290.424735 
Q 162.767612 262.742153 217.483996 235.557036 
" style="fill:none;stroke:#808080;stroke-linecap:round;"/>
    <path clip-path="url(#pf5ed1f57be)" d="M 213.011875 235.545705 
L 217.483996 235.557036 
L 214.791659 239.127934 
L 213.011875 235.545705 
z
" style="fill:#808080;stroke:#808080;stroke-linecap:round;"/>
   </g>
   <g id="patch_55">
    <path clip-path="url(#pf5ed1f57be)" d="M 76.947751 275.137079 
Q 147.442974 254.392948 216.865636 233.964431 
" style="fill:none;stroke:#808080;stroke-linecap:round;"/>
    <path clip-path="url(#pf5ed1f57be)" d="M 212.463736 233.174954 
L 216.865636 233.964431 
L 213.592914 237.012265 
L 212.463736 233.174954 
z
" style="fill:#808080;stroke:#808080;stroke-linecap:round;"/>
   </g>
   <g id="patch_56">
    <path clip-path="url(#pf5ed1f57be)" d="M 209.150107 387.289673 
Q 274.555946 352.351259 338.97563 317.939628 
" style="fill:none;stroke:#808080;stroke-linecap:round;"/>
    <path clip-path="url(#pf5ed1f57be)" d="M 334.50512 318.060217 
L 338.97563 317.939628 
L 336.389795 321.588389 
L 334.50512 318.060217 
z
" style="fill:#808080;stroke:#808080;stroke-linecap:round;"/>
   </g>
   <g id="patch_57">
    <path clip-path="url(#pf5ed1f57be)" d="M 205.429814 383.645242 
Q 229.536255 336.124448 253.136896 289.600732 
" style="fill:none;stroke:#808080;stroke-linecap:round;"/>
    <path clip-path="url(#pf5ed1f57be)" d="M 249.543662 292.263187 
L 253.136896 289.600732 
L 253.11092 294.072793 
L 249.543662 292.263187 
z
" style="fill:#808080;stroke:#808080;stroke-linecap:round;"/>
   </g>
   <g id="patch_58">
    <path clip-path="url(#pf5ed1f57be)" d="M 374.918657 355.942552 
Q 250.272464 256.238932 126.499354 157.233686 
" style="fill:none;stroke:#808080;stroke-linecap:round;"/>
    <path clip-path="url(#pf5ed1f57be)" d="M 128.373704 161.294081 
L 126.499354 157.233686 
L 130.87228 158.170443 
L 128.373704 161.294081 
z
" style="fill:#808080;stroke:#808080;stroke-linecap:round;"/>
   </g>
   <g id="patch_59">
    <path clip-path="url(#pf5ed1f57be)" d="M 389.608681 75.253757 
Q 258.407351 112.021691 128.282581 148.487929 
" style="fill:none;stroke:#808080;stroke-linecap:round;"/>
    <path clip-path="url(#pf5ed1f57be)" d="M 132.673886 149.334358 
L 128.282581 148.487929 
L 131.594507 145.482742 
L 132.673886 149.334358 
z
" style="fill:#808080;stroke:#808080;stroke-linecap:round;"/>
   </g>
   <g id="patch_60">
    <path clip-path="url(#pf5ed1f57be)" d="M 590.462936 311.568575 
Q 540.471481 352.49524 491.345128 392.713668 
" style="fill:none;stroke:#808080;stroke-linecap:round;"/>
    <path clip-path="url(#pf5ed1f57be)" d="M 495.707143 391.727348 
L 491.345128 392.713668 
L 493.173281 388.632264 
L 495.707143 391.727348 
z
" style="fill:#808080;stroke:#808080;stroke-linecap:round;"/>
   </g>
   <g id="patch_61">
    <path clip-path="url(#pf5ed1f57be)" d="M 372.381003 150.380927 
Q 426.308353 270.695865 479.778413 389.990564 
" style="fill:none;stroke:#808080;stroke-linecap:round;"/>
    <path clip-path="url(#pf5ed1f57be)" d="M 479.967423 385.522424 
L 479.778413 389.990564 
L 476.317307 387.158473 
L 479.967423 385.522424 
z
" style="fill:#808080;stroke:#808080;stroke-linecap:round;"/>
   </g>
   <g id="patch_62">
    <path clip-path="url(#pf5ed1f57be)" d="M 551.914856 205.296205 
Q 454.548801 137.998578 358.10247 71.336646 
" style="fill:none;stroke:#808080;stroke-linecap:round;"/>
    <path clip-path="url(#pf5ed1f57be)" d="M 360.255804 75.256231 
L 358.10247 71.336646 
L 362.530139 71.965729 
L 360.255804 75.256231 
z
" style="fill:#808080;stroke:#808080;stroke-linecap:round;"/>
   </g>
   <g id="patch_63">
    <path clip-path="url(#pf5ed1f57be)" d="M 555.100413 202.514612 
Q 526.378601 146.348392 498.165824 91.177604 
" style="fill:none;stroke:#808080;stroke-linecap:round;"/>
    <path clip-path="url(#pf5ed1f57be)" d="M 498.206323 95.649557 
L 498.165824 91.177604 
L 501.767685 93.828377 
L 498.206323 95.649557 
z
" style="fill:#808080;stroke:#808080;stroke-linecap:round;"/>
   </g>
   <g id="patch_64">
    <path clip-path="url(#pf5ed1f57be)" d="M 369.595041 204.837788 
Q 360.429245 139.595664 351.418993 75.460701 
" style="fill:none;stroke:#808080;stroke-linecap:round;"/>
    <path clip-path="url(#pf5ed1f57be)" d="M 349.994933 79.700047 
L 351.418993 75.460701 
L 353.956034 79.143556 
L 349.994933 79.700047 
z
" style="fill:#808080;stroke:#808080;stroke-linecap:round;"/>
   </g>
   <g id="patch_65">
    <path clip-path="url(#pf5ed1f57be)" d="M 376.728079 207.09599 
Q 432.256615 147.940959 487.019963 89.601088 
" style="fill:none;stroke:#808080;stroke-linecap:round;"/>
    <path clip-path="url(#pf5ed1f57be)" d="M 482.82414 91.148688 
L 487.019963 89.601088 
L 485.740549 93.886307 
L 482.82414 91.148688 
z
" style="fill:#808080;stroke:#808080;stroke-linecap:round;"/>
   </g>
   <g id="patch_66">
    <path clip-path="url(#pf5ed1f57be)" d="M 204.141754 182.950665 
Q 254.207564 298.981423 303.830432 413.985632 
" style="fill:none;stroke:#808080;stroke-linecap:round;"/>
    <path clip-path="url(#pf5ed1f57be)" d="M 304.082058 409.520581 
L 303.830432 413.985632 
L 300.409366 411.105301 
L 304.082058 409.520581 
z
" style="fill:#808080;stroke:#808080;stroke-linecap:round;"/>
   </g>
   <g id="patch_67">
    <path clip-path="url(#pf5ed1f57be)" d="M 136.385047 361.982234 
Q 119.920613 331.924889 103.993299 302.848106 
" style="fill:none;stroke:#808080;stroke-linecap:round;"/>
    <path clip-path="url(#pf5ed1f57be)" d="M 104.160875 307.317101 
L 103.993299 302.848106 
L 107.669041 305.395442 
L 104.160875 307.317101 
z
" style="fill:#808080;stroke:#808080;stroke-linecap:round;"/>
   </g>
   <g id="patch_68">
    <path clip-path="url(#pf5ed1f57be)" d="M 135.210677 362.752174 
Q 104.591298 323.578544 74.660438 285.285789 
" style="fill:none;stroke:#808080;stroke-linecap:round;"/>
    <path clip-path="url(#pf5ed1f57be)" d="M 75.548006 289.668964 
L 74.660438 285.285789 
L 78.699519 287.20564 
L 75.548006 289.668964 
z
" style="fill:#808080;stroke:#808080;stroke-linecap:round;"/>
   </g>
   <g id="patch_69">
    <path clip-path="url(#pf5ed1f57be)" d="M 135.489191 226.786675 
Q 119.440134 256.714986 103.919447 285.657991 
" style="fill:none;stroke:#808080;stroke-linecap:round;"/>
    <path clip-path="url(#pf5ed1f57be)" d="M 107.572367 283.078034 
L 103.919447 285.657991 
L 104.047233 281.187682 
L 107.572367 283.078034 
z
" style="fill:#808080;stroke:#808080;stroke-linecap:round;"/>
   </g>
   <g id="patch_70">
    <path clip-path="url(#pf5ed1f57be)" d="M 132.898385 224.659163 
Q 104.111263 248.367706 76.187163 271.36548 
" style="fill:none;stroke:#808080;stroke-linecap:round;"/>
    <path clip-path="url(#pf5ed1f57be)" d="M 80.546267 270.366376 
L 76.187163 271.36548 
L 78.003342 267.278734 
L 80.546267 270.366376 
z
" style="fill:#808080;stroke:#808080;stroke-linecap:round;"/>
   </g>
   <g id="patch_71">
    <path clip-path="url(#pf5ed1f57be)" d="M 335.329076 148.946919 
Q 237.464639 129.5574 140.696919 110.385168 
" style="fill:none;stroke:#808080;stroke-linecap:round;"/>
    <path clip-path="url(#pf5ed1f57be)" d="M 144.231952 113.124427 
L 140.696919 110.385168 
L 145.009346 109.200697 
L 144.231952 113.124427 
z
" style="fill:#808080;stroke:#808080;stroke-linecap:round;"/>
   </g>
   <g id="patch_72">
    <path clip-path="url(#pf5ed1f57be)" d="M 337.210996 145.040274 
Q 294.779346 109.172464 253.201544 74.026417 
" style="fill:none;stroke:#808080;stroke-linecap:round;"/>
    <path clip-path="url(#pf5ed1f57be)" d="M 254.965231 78.13609 
L 253.201544 74.026417 
L 257.547494 75.081271 
L 254.965231 78.13609 
z
" style="fill:#808080;stroke:#808080;stroke-linecap:round;"/>
   </g>
   <g id="patch_73">
    <path clip-path="url(#pf5ed1f57be)" d="M 270.233663 124.025425 
Q 204.971196 116.735494 140.819852 109.569678 
" style="fill:none;stroke:#808080;stroke-linecap:round;"/>
    <path clip-path="url(#pf5ed1f57be)" d="M 144.573105 112.001362 
L 140.819852 109.569678 
L 145.017151 108.026085 
L 144.573105 112.001362 
z
" style="fill:#808080;stroke:#808080;stroke-linecap:round;"/>
   </g>
   <g id="patch_74">
    <path clip-path="url(#pf5ed1f57be)" d="M 274.506323 117.48869 
Q 262.286459 96.348845 250.62612 76.176953 
" style="fill:none;stroke:#808080;stroke-linecap:round;"/>
    <path clip-path="url(#pf5ed1f57be)" d="M 250.896407 80.640914 
L 250.62612 76.176953 
L 254.359461 78.6391 
L 250.896407 80.640914 
z
" style="fill:#808080;stroke:#808080;stroke-linecap:round;"/>
   </g>
   <g id="patch_75">
    <path clip-path="url(#pf5ed1f57be)" d="M 118.699604 126.195217 
Q 122.417196 120.886451 125.493469 116.493496 
" style="fill:none;stroke:#808080;stroke-linecap:round;"/>
    <path clip-path="url(#pf5ed1f57be)" d="M 121.560764 118.622776 
L 125.493469 116.493496 
L 124.837269 120.917228 
L 121.560764 118.622776 
z
" style="fill:#808080;stroke:#808080;stroke-linecap:round;"/>
   </g>
   <g id="patch_76">
    <path clip-path="url(#pf5ed1f57be)" d="M 121.486054 129.437591 
Q 179.733099 100.501965 236.978855 72.063752 
" style="fill:none;stroke:#808080;stroke-linecap:round;"/>
    <path clip-path="url(#pf5ed1f57be)" d="M 232.506734 72.052196 
L 236.978855 72.063752 
L 234.286337 75.634516 
L 232.506734 72.052196 
z
" style="fill:#808080;stroke:#808080;stroke-linecap:round;"/>
   </g>
   <g id="patch_77">
    <path clip-path="url(#pf5ed1f57be)" d="M 156.226282 161.152897 
Q 245.701084 156.133933 334.059606 151.177585 
" style="fill:none;stroke:#808080;stroke-linecap:round;"/>
    <path clip-path="url(#pf5ed1f57be)" d="M 329.953873 149.404746 
L 334.059606 151.177585 
L 330.177896 153.398468 
L 329.953873 149.404746 
z
" style="fill:#808080;stroke:#808080;stroke-linecap:round;"/>
   </g>
   <g id="patch_78">
    <path clip-path="url(#pf5ed1f57be)" d="M 155.925301 159.307986 
Q 213.213637 143.311595 269.425129 127.615886 
" style="fill:none;stroke:#808080;stroke-linecap:round;"/>
    <path clip-path="url(#pf5ed1f57be)" d="M 265.034623 126.765325 
L 269.425129 127.615886 
L 266.110377 130.617955 
L 265.034623 126.765325 
z
" style="fill:#808080;stroke:#808080;stroke-linecap:round;"/>
   </g>
   <g id="patch_79">
    <path clip-path="url(#pf5ed1f57be)" d="M 140.943207 156.078628 
Q 130.657384 147.464707 121.228718 139.568618 
" style="fill:none;stroke:#808080;stroke-linecap:round;"/>
    <path clip-path="url(#pf5ed1f57be)" d="M 123.011281 143.670139 
L 121.228718 139.568618 
L 125.579472 140.60348 
L 123.011281 143.670139 
z
" style="fill:#808080;stroke:#808080;stroke-linecap:round;"/>
   </g>
   <g id="patch_80">
    <path clip-path="url(#pf5ed1f57be)" d="M 364.028418 69.212738 
Q 354.968955 105.718522 346.17878 141.139187 
" style="fill:none;stroke:#808080;stroke-linecap:round;"/>
    <path clip-path="url(#pf5ed1f57be)" d="M 349.083337 137.738665 
L 346.17878 141.139187 
L 345.201097 136.775228 
L 349.083337 137.738665 
z
" style="fill:#808080;stroke:#808080;stroke-linecap:round;"/>
   </g>
   <g id="patch_81">
    <path clip-path="url(#pf5ed1f57be)" d="M 359.139389 65.935134 
Q 322.478324 92.895675 286.717959 119.193841 
" style="fill:none;stroke:#808080;stroke-linecap:round;"/>
    <path clip-path="url(#pf5ed1f57be)" d="M 291.125292 118.435279 
L 286.717959 119.193841 
L 288.755509 115.212837 
L 291.125292 118.435279 
z
" style="fill:#808080;stroke:#808080;stroke-linecap:round;"/>
   </g>
   <g id="patch_82">
    <path clip-path="url(#pf5ed1f57be)" d="M 357.792673 63.19552 
Q 239.923679 97.047491 123.129279 130.59084 
" style="fill:none;stroke:#808080;stroke-linecap:round;"/>
    <path clip-path="url(#pf5ed1f57be)" d="M 127.525945 131.408967 
L 123.129279 130.59084 
L 126.42178 127.564384 
L 127.525945 131.408967 
z
" style="fill:#808080;stroke:#808080;stroke-linecap:round;"/>
   </g>
   <g id="patch_83">
    <path clip-path="url(#pf5ed1f57be)" d="M 441.550642 123.306693 
Q 396.85796 135.80217 353.242019 147.996604 
" style="fill:none;stroke:#808080;stroke-linecap:round;"/>
    <path clip-path="url(#pf5ed1f57be)" d="M 357.63281 148.845696 
L 353.242019 147.996604 
L 356.555767 144.993427 
L 357.63281 148.845696 
z
" style="fill:#808080;stroke:#808080;stroke-linecap:round;"/>
   </g>
   <g id="patch_84">
    <path clip-path="url(#pf5ed1f57be)" d="M 441.234786 121.177558 
Q 364.36666 122.980653 288.616261 124.75753 
" style="fill:none;stroke:#808080;stroke-linecap:round;"/>
    <path clip-path="url(#pf5ed1f57be)" d="M 292.662062 126.663177 
L 288.616261 124.75753 
L 292.56826 122.664277 
L 292.662062 126.663177 
z
" style="fill:#808080;stroke:#808080;stroke-linecap:round;"/>
   </g>
   <g id="patch_85">
    <path clip-path="url(#pf5ed1f57be)" d="M 441.236417 121.291591 
Q 281.81033 127.132254 123.501529 132.931984 
" style="fill:none;stroke:#808080;stroke-linecap:round;"/>
    <path clip-path="url(#pf5ed1f57be)" d="M 127.572069 134.7842 
L 123.501529 132.931984 
L 127.425625 130.786881 
L 127.572069 134.7842 
z
" style="fill:#808080;stroke:#808080;stroke-linecap:round;"/>
   </g>
   <g id="patch_86">
    <path clip-path="url(#pf5ed1f57be)" d="M 199.383963 315.317608 
Q 250.471397 366.086839 300.765795 416.067975 
" style="fill:none;stroke:#808080;stroke-linecap:round;"/>
    <path clip-path="url(#pf5ed1f57be)" d="M 299.338335 411.829773 
L 300.765795 416.067975 
L 296.518757 414.667022 
L 299.338335 411.829773 
z
" style="fill:#808080;stroke:#808080;stroke-linecap:round;"/>
   </g>
   <g id="patch_87">
    <path clip-path="url(#pf5ed1f57be)" d="M 168.777573 347.841465 
Q 152.437716 317.095922 136.622547 287.337648 
" style="fill:none;stroke:#808080;stroke-linecap:round;"/>
    <path clip-path="url(#pf5ed1f57be)" d="M 136.733649 291.808403 
L 136.622547 287.337648 
L 140.265813 289.931219 
L 136.733649 291.808403 
z
" style="fill:#808080;stroke:#808080;stroke-linecap:round;"/>
   </g>
   <g id="patch_88">
    <path clip-path="url(#pf5ed1f57be)" d="M 220.194748 395.135808 
Q 178.727056 340.36966 137.934271 286.494859 
" style="fill:none;stroke:#808080;stroke-linecap:round;"/>
    <path clip-path="url(#pf5ed1f57be)" d="M 138.754405 290.891151 
L 137.934271 286.494859 
L 141.943385 288.476527 
L 138.754405 290.891151 
z
" style="fill:#808080;stroke:#808080;stroke-linecap:round;"/>
   </g>
   <g id="patch_89">
    <path clip-path="url(#pf5ed1f57be)" d="M 607.08196 262.508655 
Q 548.333216 327.496843 490.334225 391.655651 
" style="fill:none;stroke:#808080;stroke-linecap:round;"/>
    <path clip-path="url(#pf5ed1f57be)" d="M 494.50026 390.029568 
L 490.334225 391.655651 
L 491.53298 387.347173 
L 494.50026 390.029568 
z
" style="fill:#808080;stroke:#808080;stroke-linecap:round;"/>
   </g>
   <g id="patch_90">
    <path clip-path="url(#pf5ed1f57be)" d="M 299.646282 211.497361 
Q 388.675516 302.113818 476.921195 391.932752 
" style="fill:none;stroke:#808080;stroke-linecap:round;"/>
    <path clip-path="url(#pf5ed1f57be)" d="M 475.54452 387.677782 
L 476.921195 391.932752 
L 472.691215 390.48111 
L 475.54452 387.677782 
z
" style="fill:#808080;stroke:#808080;stroke-linecap:round;"/>
   </g>
   <g id="PathCollection_1">
    <defs>
     <path d="M 0 11.18034 
C 2.965061 11.18034 5.80908 10.002309 7.905694 7.905694 
C 10.002309 5.80908 11.18034 2.965061 11.18034 -0 
C 11.18034 -2.965061 10.002309 -5.80908 7.905694 -7.905694 
C 5.80908 -10.002309 2.965061 -11.18034 0 -11.18034 
C -2.965061 -11.18034 -5.80908 -10.002309 -7.905694 -7.905694 
C -10.002309 -5.80908 -11.18034 -2.965061 -11.18034 0 
C -11.18034 2.965061 -10.002309 5.80908 -7.905694 7.905694 
C -5.80908 10.002309 -2.965061 11.18034 0 11.18034 
z
" id="C0_0_877c92c743"/>
    </defs>
    <g clip-path="url(#pf5ed1f57be)">
     <use style="fill:#616161;stroke:#616161;" x="553.15807" xlink:href="#C0_0_877c92c743" y="369.624854"/>
    </g>
    <g clip-path="url(#pf5ed1f57be)">
     <use style="fill:#ebebeb;stroke:#ebebeb;" x="483.776297" xlink:href="#C0_0_877c92c743" y="398.910067"/>
    </g>
    <g clip-path="url(#pf5ed1f57be)">
     <use style="fill:#bdbdbd;stroke:#bdbdbd;" x="449.367508" xlink:href="#C0_0_877c92c743" y="387.271844"/>
    </g>
    <g clip-path="url(#pf5ed1f57be)">
     <use style="fill:#b0b0b0;stroke:#b0b0b0;" x="553.325222" xlink:href="#C0_0_877c92c743" y="180.77"/>
    </g>
    <g clip-path="url(#pf5ed1f57be)">
     <use style="fill:#f2f2f2;stroke:#f2f2f2;" x="118.86509" xlink:href="#C0_0_877c92c743" y="151.127092"/>
    </g>
    <g clip-path="url(#pf5ed1f57be)">
     <use style="fill:#ebebeb;stroke:#ebebeb;" x="353.564753" xlink:href="#C0_0_877c92c743" y="294.970664"/>
    </g>
    <g clip-path="url(#pf5ed1f57be)">
     <use style="fill:#cecece;stroke:#cecece;" x="226.244081" xlink:href="#C0_0_877c92c743" y="231.204703"/>
    </g>
    <g clip-path="url(#pf5ed1f57be)">
     <use style="fill:#ececec;stroke:#ececec;" x="65.305785" xlink:href="#C0_0_877c92c743" y="266.269399"/>
    </g>
    <g clip-path="url(#pf5ed1f57be)">
     <use style="fill:#ebebeb;stroke:#ebebeb;" x="230.643793" xlink:href="#C0_0_877c92c743" y="336.484219"/>
    </g>
    <g clip-path="url(#pf5ed1f57be)">
     <use style="fill:#949494;stroke:#949494;" x="348.101974" xlink:href="#C0_0_877c92c743" y="248.674064"/>
    </g>
    <g clip-path="url(#pf5ed1f57be)">
     <use style="fill:#ebebeb;stroke:#ebebeb;" x="66.42538" xlink:href="#C0_0_877c92c743" y="196.425829"/>
    </g>
    <g clip-path="url(#pf5ed1f57be)">
     <use style="fill:#ececec;stroke:#ececec;" x="376.811311" xlink:href="#C0_0_877c92c743" y="403.537816"/>
    </g>
    <g clip-path="url(#pf5ed1f57be)">
     <use style="fill:#616161;stroke:#616161;" x="404.935983" xlink:href="#C0_0_877c92c743" y="160.304376"/>
    </g>
    <g clip-path="url(#pf5ed1f57be)">
     <use style="fill:#c6c6c6;stroke:#c6c6c6;" x="518.463701" xlink:href="#C0_0_877c92c743" y="322.745465"/>
    </g>
    <g clip-path="url(#pf5ed1f57be)">
     <use style="fill:#646464;stroke:#646464;" x="427.977231" xlink:href="#C0_0_877c92c743" y="279.19619"/>
    </g>
    <g clip-path="url(#pf5ed1f57be)">
     <use style="fill:#5f5f5f;stroke:#5f5f5f;" x="407.677235" xlink:href="#C0_0_877c92c743" y="277.997665"/>
    </g>
    <g clip-path="url(#pf5ed1f57be)">
     <use style="fill:#eaeaea;stroke:#eaeaea;" x="257.561137" xlink:href="#C0_0_877c92c743" y="280.87927"/>
    </g>
    <g clip-path="url(#pf5ed1f57be)">
     <use style="fill:#bdbdbd;stroke:#bdbdbd;" x="347.596444" xlink:href="#C0_0_877c92c743" y="313.334572"/>
    </g>
    <g clip-path="url(#pf5ed1f57be)">
     <use style="fill:#ebebeb;stroke:#ebebeb;" x="361.592581" xlink:href="#C0_0_877c92c743" y="427.350852"/>
    </g>
    <g clip-path="url(#pf5ed1f57be)">
     <use style="fill:#ebebeb;stroke:#ebebeb;" x="93.797001" xlink:href="#C0_0_877c92c743" y="246.392768"/>
    </g>
    <g clip-path="url(#pf5ed1f57be)">
     <use style="fill:#d7d7d7;stroke:#d7d7d7;" x="421.442034" xlink:href="#C0_0_877c92c743" y="198.109946"/>
    </g>
    <g clip-path="url(#pf5ed1f57be)">
     <use style="fill:#ececec;stroke:#ececec;" x="618.694215" xlink:href="#C0_0_877c92c743" y="188.970395"/>
    </g>
    <g clip-path="url(#pf5ed1f57be)">
     <use style="fill:#ebebeb;stroke:#ebebeb;" x="307.704066" xlink:href="#C0_0_877c92c743" y="422.96303"/>
    </g>
    <g clip-path="url(#pf5ed1f57be)">
     <use style="fill:#ebebeb;stroke:#ebebeb;" x="132.031677" xlink:href="#C0_0_877c92c743" y="278.699335"/>
    </g>
    <g clip-path="url(#pf5ed1f57be)">
     <use style="fill:#ebebeb;stroke:#ebebeb;" x="517.276869" xlink:href="#C0_0_877c92c743" y="357.965426"/>
    </g>
    <g clip-path="url(#pf5ed1f57be)">
     <use style="fill:#616161;stroke:#616161;" x="461.158143" xlink:href="#C0_0_877c92c743" y="233.928384"/>
    </g>
    <g clip-path="url(#pf5ed1f57be)">
     <use style="fill:#ebebeb;stroke:#ebebeb;" x="602.448721" xlink:href="#C0_0_877c92c743" y="340.576134"/>
    </g>
    <g clip-path="url(#pf5ed1f57be)">
     <use style="fill:#ececec;stroke:#ececec;" x="552.805576" xlink:href="#C0_0_877c92c743" y="136.789888"/>
    </g>
    <g clip-path="url(#pf5ed1f57be)">
     <use style="fill:#ececec;stroke:#ececec;" x="85.673175" xlink:href="#C0_0_877c92c743" y="324.480898"/>
    </g>
    <g clip-path="url(#pf5ed1f57be)">
     <use style="fill:#c1c1c1;stroke:#c1c1c1;" x="99.297911" xlink:href="#C0_0_877c92c743" y="294.276241"/>
    </g>
    <g clip-path="url(#pf5ed1f57be)">
     <use style="fill:#ececec;stroke:#ececec;" x="68.638947" xlink:href="#C0_0_877c92c743" y="277.582052"/>
    </g>
    <g clip-path="url(#pf5ed1f57be)">
     <use style="fill:#9d9d9d;stroke:#9d9d9d;" x="201.511028" xlink:href="#C0_0_877c92c743" y="391.370308"/>
    </g>
    <g clip-path="url(#pf5ed1f57be)">
     <use style="fill:#f3f3f3;stroke:#f3f3f3;" x="381.681973" xlink:href="#C0_0_877c92c743" y="361.352482"/>
    </g>
    <g clip-path="url(#pf5ed1f57be)">
     <use style="fill:#f1f1f1;stroke:#f1f1f1;" x="397.951111" xlink:href="#C0_0_877c92c743" y="72.91587"/>
    </g>
    <g clip-path="url(#pf5ed1f57be)">
     <use style="fill:#e1e1e1;stroke:#e1e1e1;" x="597.165671" xlink:href="#C0_0_877c92c743" y="306.081226"/>
    </g>
    <g clip-path="url(#pf5ed1f57be)">
     <use style="fill:#ebebeb;stroke:#ebebeb;" x="368.840107" xlink:href="#C0_0_877c92c743" y="142.48099"/>
    </g>
    <g clip-path="url(#pf5ed1f57be)">
     <use style="fill:#d8d8d8;stroke:#d8d8d8;" x="559.041899" xlink:href="#C0_0_877c92c743" y="210.222286"/>
    </g>
    <g clip-path="url(#pf5ed1f57be)">
     <use style="fill:#e1e1e1;stroke:#e1e1e1;" x="370.799577" xlink:href="#C0_0_877c92c743" y="213.411675"/>
    </g>
    <g clip-path="url(#pf5ed1f57be)">
     <use style="fill:#ececec;stroke:#ececec;" x="350.058513" xlink:href="#C0_0_877c92c743" y="65.776811"/>
    </g>
    <g clip-path="url(#pf5ed1f57be)">
     <use style="fill:#e1e1e1;stroke:#e1e1e1;" x="493.713312" xlink:href="#C0_0_877c92c743" y="82.470606"/>
    </g>
    <g clip-path="url(#pf5ed1f57be)">
     <use style="fill:#e2e2e2;stroke:#e2e2e2;" x="200.711717" xlink:href="#C0_0_877c92c743" y="175.001331"/>
    </g>
    <g clip-path="url(#pf5ed1f57be)">
     <use style="fill:#909090;stroke:#909090;" x="140.545281" xlink:href="#C0_0_877c92c743" y="369.577126"/>
    </g>
    <g clip-path="url(#pf5ed1f57be)">
     <use style="fill:#909090;stroke:#909090;" x="139.581748" xlink:href="#C0_0_877c92c743" y="219.154869"/>
    </g>
    <g clip-path="url(#pf5ed1f57be)">
     <use style="fill:#ececec;stroke:#ececec;" x="131.102175" xlink:href="#C0_0_877c92c743" y="108.484197"/>
    </g>
    <g clip-path="url(#pf5ed1f57be)">
     <use style="fill:#eaeaea;stroke:#eaeaea;" x="245.734282" xlink:href="#C0_0_877c92c743" y="67.714282"/>
    </g>
    <g clip-path="url(#pf5ed1f57be)">
     <use style="fill:#ececec;stroke:#ececec;" x="343.823518" xlink:href="#C0_0_877c92c743" y="150.629892"/>
    </g>
    <g clip-path="url(#pf5ed1f57be)">
     <use style="fill:#e9e9e9;stroke:#e9e9e9;" x="278.840618" xlink:href="#C0_0_877c92c743" y="124.986837"/>
    </g>
    <g clip-path="url(#pf5ed1f57be)">
     <use style="fill:#ececec;stroke:#ececec;" x="113.731367" xlink:href="#C0_0_877c92c743" y="133.28992"/>
    </g>
    <g clip-path="url(#pf5ed1f57be)">
     <use style="fill:#f3f3f3;stroke:#f3f3f3;" x="147.5814" xlink:href="#C0_0_877c92c743" y="161.63782"/>
    </g>
    <g clip-path="url(#pf5ed1f57be)">
     <use style="fill:#c1c1c1;stroke:#c1c1c1;" x="366.114827" xlink:href="#C0_0_877c92c743" y="60.805398"/>
    </g>
    <g clip-path="url(#pf5ed1f57be)">
     <use style="fill:#c2c2c2;stroke:#c2c2c2;" x="449.892294" xlink:href="#C0_0_877c92c743" y="120.974479"/>
    </g>
    <g clip-path="url(#pf5ed1f57be)">
     <use style="fill:#e2e2e2;stroke:#e2e2e2;" x="193.239455" xlink:href="#C0_0_877c92c743" y="309.211371"/>
    </g>
    <g clip-path="url(#pf5ed1f57be)">
     <use style="fill:#e1e1e1;stroke:#e1e1e1;" x="172.841354" xlink:href="#C0_0_877c92c743" y="355.487992"/>
    </g>
    <g clip-path="url(#pf5ed1f57be)">
     <use style="fill:#e1e1e1;stroke:#e1e1e1;" x="225.424736" xlink:href="#C0_0_877c92c743" y="402.043025"/>
    </g>
    <g clip-path="url(#pf5ed1f57be)">
     <use style="fill:#e1e1e1;stroke:#e1e1e1;" x="612.887801" xlink:href="#C0_0_877c92c743" y="256.086201"/>
    </g>
    <g clip-path="url(#pf5ed1f57be)">
     <use style="fill:#e1e1e1;stroke:#e1e1e1;" x="293.577784" xlink:href="#C0_0_877c92c743" y="205.320673"/>
    </g>
   </g>
   <g id="text_1">
    <g clip-path="url(#pf5ed1f57be)">
     <!-- FYN -->
     <g transform="translate(543.487757 372.384229)scale(0.1 -0.1)">
      <defs>
       <path d="M 9.8125 72.90625 
L 51.703125 72.90625 
L 51.703125 64.59375 
L 19.671875 64.59375 
L 19.671875 43.109375 
L 48.578125 43.109375 
L 48.578125 34.8125 
L 19.671875 34.8125 
L 19.671875 0 
L 9.8125 0 
z
" id="DejaVuSans-70"/>
       <path d="M -0.203125 72.90625 
L 10.40625 72.90625 
L 30.609375 42.921875 
L 50.6875 72.90625 
L 61.28125 72.90625 
L 35.5 34.71875 
L 35.5 0 
L 25.59375 0 
L 25.59375 34.71875 
z
" id="DejaVuSans-89"/>
       <path d="M 9.8125 72.90625 
L 23.09375 72.90625 
L 55.421875 11.921875 
L 55.421875 72.90625 
L 64.984375 72.90625 
L 64.984375 0 
L 51.703125 0 
L 19.390625 60.984375 
L 19.390625 0 
L 9.8125 0 
z
" id="DejaVuSans-78"/>
      </defs>
      <use xlink:href="#DejaVuSans-70"/>
      <use x="57.519531" xlink:href="#DejaVuSans-89"/>
      <use x="118.603516" xlink:href="#DejaVuSans-78"/>
     </g>
    </g>
   </g>
   <g id="text_2">
    <g clip-path="url(#pf5ed1f57be)">
     <!-- TNFSF10 -->
     <g transform="translate(461.780984 401.669442)scale(0.1 -0.1)">
      <defs>
       <path d="M -0.296875 72.90625 
L 61.375 72.90625 
L 61.375 64.59375 
L 35.5 64.59375 
L 35.5 0 
L 25.59375 0 
L 25.59375 64.59375 
L -0.296875 64.59375 
z
" id="DejaVuSans-84"/>
       <path d="M 53.515625 70.515625 
L 53.515625 60.890625 
Q 47.90625 63.578125 42.921875 64.890625 
Q 37.9375 66.21875 33.296875 66.21875 
Q 25.25 66.21875 20.875 63.09375 
Q 16.5 59.96875 16.5 54.203125 
Q 16.5 49.359375 19.40625 46.890625 
Q 22.3125 44.4375 30.421875 42.921875 
L 36.375 41.703125 
Q 47.40625 39.59375 52.65625 34.296875 
Q 57.90625 29 57.90625 20.125 
Q 57.90625 9.515625 50.796875 4.046875 
Q 43.703125 -1.421875 29.984375 -1.421875 
Q 24.8125 -1.421875 18.96875 -0.25 
Q 13.140625 0.921875 6.890625 3.21875 
L 6.890625 13.375 
Q 12.890625 10.015625 18.65625 8.296875 
Q 24.421875 6.59375 29.984375 6.59375 
Q 38.421875 6.59375 43.015625 9.90625 
Q 47.609375 13.234375 47.609375 19.390625 
Q 47.609375 24.75 44.3125 27.78125 
Q 41.015625 30.8125 33.5 32.328125 
L 27.484375 33.5 
Q 16.453125 35.6875 11.515625 40.375 
Q 6.59375 45.0625 6.59375 53.421875 
Q 6.59375 63.09375 13.40625 68.65625 
Q 20.21875 74.21875 32.171875 74.21875 
Q 37.3125 74.21875 42.625 73.28125 
Q 47.953125 72.359375 53.515625 70.515625 
z
" id="DejaVuSans-83"/>
       <path d="M 12.40625 8.296875 
L 28.515625 8.296875 
L 28.515625 63.921875 
L 10.984375 60.40625 
L 10.984375 69.390625 
L 28.421875 72.90625 
L 38.28125 72.90625 
L 38.28125 8.296875 
L 54.390625 8.296875 
L 54.390625 0 
L 12.40625 0 
z
" id="DejaVuSans-49"/>
       <path d="M 31.78125 66.40625 
Q 24.171875 66.40625 20.328125 58.90625 
Q 16.5 51.421875 16.5 36.375 
Q 16.5 21.390625 20.328125 13.890625 
Q 24.171875 6.390625 31.78125 6.390625 
Q 39.453125 6.390625 43.28125 13.890625 
Q 47.125 21.390625 47.125 36.375 
Q 47.125 51.421875 43.28125 58.90625 
Q 39.453125 66.40625 31.78125 66.40625 
z
M 31.78125 74.21875 
Q 44.046875 74.21875 50.515625 64.515625 
Q 56.984375 54.828125 56.984375 36.375 
Q 56.984375 17.96875 50.515625 8.265625 
Q 44.046875 -1.421875 31.78125 -1.421875 
Q 19.53125 -1.421875 13.0625 8.265625 
Q 6.59375 17.96875 6.59375 36.375 
Q 6.59375 54.828125 13.0625 64.515625 
Q 19.53125 74.21875 31.78125 74.21875 
z
" id="DejaVuSans-48"/>
      </defs>
      <use xlink:href="#DejaVuSans-84"/>
      <use x="61.083984" xlink:href="#DejaVuSans-78"/>
      <use x="135.888672" xlink:href="#DejaVuSans-70"/>
      <use x="191.658203" xlink:href="#DejaVuSans-83"/>
      <use x="255.134766" xlink:href="#DejaVuSans-70"/>
      <use x="312.654297" xlink:href="#DejaVuSans-49"/>
      <use x="376.277344" xlink:href="#DejaVuSans-48"/>
     </g>
    </g>
   </g>
   <g id="text_3">
    <g clip-path="url(#pf5ed1f57be)">
     <!-- LAT -->
     <g transform="translate(440.382352 390.031219)scale(0.1 -0.1)">
      <defs>
       <path d="M 9.8125 72.90625 
L 19.671875 72.90625 
L 19.671875 8.296875 
L 55.171875 8.296875 
L 55.171875 0 
L 9.8125 0 
z
" id="DejaVuSans-76"/>
       <path d="M 34.1875 63.1875 
L 20.796875 26.90625 
L 47.609375 26.90625 
z
M 28.609375 72.90625 
L 39.796875 72.90625 
L 67.578125 0 
L 57.328125 0 
L 50.6875 18.703125 
L 17.828125 18.703125 
L 11.1875 0 
L 0.78125 0 
z
" id="DejaVuSans-65"/>
      </defs>
      <use xlink:href="#DejaVuSans-76"/>
      <use x="57.962891" xlink:href="#DejaVuSans-65"/>
      <use x="118.621094" xlink:href="#DejaVuSans-84"/>
     </g>
    </g>
   </g>
   <g id="text_4">
    <g clip-path="url(#pf5ed1f57be)">
     <!-- IFNG -->
     <g transform="translate(541.359597 183.529375)scale(0.1 -0.1)">
      <defs>
       <path d="M 9.8125 72.90625 
L 19.671875 72.90625 
L 19.671875 0 
L 9.8125 0 
z
" id="DejaVuSans-73"/>
       <path d="M 59.515625 10.40625 
L 59.515625 29.984375 
L 43.40625 29.984375 
L 43.40625 38.09375 
L 69.28125 38.09375 
L 69.28125 6.78125 
Q 63.578125 2.734375 56.6875 0.65625 
Q 49.8125 -1.421875 42 -1.421875 
Q 24.90625 -1.421875 15.25 8.5625 
Q 5.609375 18.5625 5.609375 36.375 
Q 5.609375 54.25 15.25 64.234375 
Q 24.90625 74.21875 42 74.21875 
Q 49.125 74.21875 55.546875 72.453125 
Q 61.96875 70.703125 67.390625 67.28125 
L 67.390625 56.78125 
Q 61.921875 61.421875 55.765625 63.765625 
Q 49.609375 66.109375 42.828125 66.109375 
Q 29.4375 66.109375 22.71875 58.640625 
Q 16.015625 51.171875 16.015625 36.375 
Q 16.015625 21.625 22.71875 14.15625 
Q 29.4375 6.6875 42.828125 6.6875 
Q 48.046875 6.6875 52.140625 7.59375 
Q 56.25 8.5 59.515625 10.40625 
z
" id="DejaVuSans-71"/>
      </defs>
      <use xlink:href="#DejaVuSans-73"/>
      <use x="29.492188" xlink:href="#DejaVuSans-70"/>
      <use x="87.011719" xlink:href="#DejaVuSans-78"/>
      <use x="161.816406" xlink:href="#DejaVuSans-71"/>
     </g>
    </g>
   </g>
   <g id="text_5">
    <g clip-path="url(#pf5ed1f57be)">
     <!-- TNF -->
     <g transform="translate(109.194778 153.886467)scale(0.1 -0.1)">
      <use xlink:href="#DejaVuSans-84"/>
      <use x="61.083984" xlink:href="#DejaVuSans-78"/>
      <use x="135.888672" xlink:href="#DejaVuSans-70"/>
     </g>
    </g>
   </g>
   <g id="text_6">
    <g clip-path="url(#pf5ed1f57be)">
     <!-- SH3BP2 -->
     <g transform="translate(333.822565 297.730039)scale(0.1 -0.1)">
      <defs>
       <path d="M 9.8125 72.90625 
L 19.671875 72.90625 
L 19.671875 43.015625 
L 55.515625 43.015625 
L 55.515625 72.90625 
L 65.375 72.90625 
L 65.375 0 
L 55.515625 0 
L 55.515625 34.71875 
L 19.671875 34.71875 
L 19.671875 0 
L 9.8125 0 
z
" id="DejaVuSans-72"/>
       <path d="M 40.578125 39.3125 
Q 47.65625 37.796875 51.625 33 
Q 55.609375 28.21875 55.609375 21.1875 
Q 55.609375 10.40625 48.1875 4.484375 
Q 40.765625 -1.421875 27.09375 -1.421875 
Q 22.515625 -1.421875 17.65625 -0.515625 
Q 12.796875 0.390625 7.625 2.203125 
L 7.625 11.71875 
Q 11.71875 9.328125 16.59375 8.109375 
Q 21.484375 6.890625 26.8125 6.890625 
Q 36.078125 6.890625 40.9375 10.546875 
Q 45.796875 14.203125 45.796875 21.1875 
Q 45.796875 27.640625 41.28125 31.265625 
Q 36.765625 34.90625 28.71875 34.90625 
L 20.21875 34.90625 
L 20.21875 43.015625 
L 29.109375 43.015625 
Q 36.375 43.015625 40.234375 45.921875 
Q 44.09375 48.828125 44.09375 54.296875 
Q 44.09375 59.90625 40.109375 62.90625 
Q 36.140625 65.921875 28.71875 65.921875 
Q 24.65625 65.921875 20.015625 65.03125 
Q 15.375 64.15625 9.8125 62.3125 
L 9.8125 71.09375 
Q 15.4375 72.65625 20.34375 73.4375 
Q 25.25 74.21875 29.59375 74.21875 
Q 40.828125 74.21875 47.359375 69.109375 
Q 53.90625 64.015625 53.90625 55.328125 
Q 53.90625 49.265625 50.4375 45.09375 
Q 46.96875 40.921875 40.578125 39.3125 
z
" id="DejaVuSans-51"/>
       <path d="M 19.671875 34.8125 
L 19.671875 8.109375 
L 35.5 8.109375 
Q 43.453125 8.109375 47.28125 11.40625 
Q 51.125 14.703125 51.125 21.484375 
Q 51.125 28.328125 47.28125 31.5625 
Q 43.453125 34.8125 35.5 34.8125 
z
M 19.671875 64.796875 
L 19.671875 42.828125 
L 34.28125 42.828125 
Q 41.5 42.828125 45.03125 45.53125 
Q 48.578125 48.25 48.578125 53.8125 
Q 48.578125 59.328125 45.03125 62.0625 
Q 41.5 64.796875 34.28125 64.796875 
z
M 9.8125 72.90625 
L 35.015625 72.90625 
Q 46.296875 72.90625 52.390625 68.21875 
Q 58.5 63.53125 58.5 54.890625 
Q 58.5 48.1875 55.375 44.234375 
Q 52.25 40.28125 46.1875 39.3125 
Q 53.46875 37.75 57.5 32.78125 
Q 61.53125 27.828125 61.53125 20.40625 
Q 61.53125 10.640625 54.890625 5.3125 
Q 48.25 0 35.984375 0 
L 9.8125 0 
z
" id="DejaVuSans-66"/>
       <path d="M 19.671875 64.796875 
L 19.671875 37.40625 
L 32.078125 37.40625 
Q 38.96875 37.40625 42.71875 40.96875 
Q 46.484375 44.53125 46.484375 51.125 
Q 46.484375 57.671875 42.71875 61.234375 
Q 38.96875 64.796875 32.078125 64.796875 
z
M 9.8125 72.90625 
L 32.078125 72.90625 
Q 44.34375 72.90625 50.609375 67.359375 
Q 56.890625 61.8125 56.890625 51.125 
Q 56.890625 40.328125 50.609375 34.8125 
Q 44.34375 29.296875 32.078125 29.296875 
L 19.671875 29.296875 
L 19.671875 0 
L 9.8125 0 
z
" id="DejaVuSans-80"/>
       <path d="M 19.1875 8.296875 
L 53.609375 8.296875 
L 53.609375 0 
L 7.328125 0 
L 7.328125 8.296875 
Q 12.9375 14.109375 22.625 23.890625 
Q 32.328125 33.6875 34.8125 36.53125 
Q 39.546875 41.84375 41.421875 45.53125 
Q 43.3125 49.21875 43.3125 52.78125 
Q 43.3125 58.59375 39.234375 62.25 
Q 35.15625 65.921875 28.609375 65.921875 
Q 23.96875 65.921875 18.8125 64.3125 
Q 13.671875 62.703125 7.8125 59.421875 
L 7.8125 69.390625 
Q 13.765625 71.78125 18.9375 73 
Q 24.125 74.21875 28.421875 74.21875 
Q 39.75 74.21875 46.484375 68.546875 
Q 53.21875 62.890625 53.21875 53.421875 
Q 53.21875 48.921875 51.53125 44.890625 
Q 49.859375 40.875 45.40625 35.40625 
Q 44.1875 33.984375 37.640625 27.21875 
Q 31.109375 20.453125 19.1875 8.296875 
z
" id="DejaVuSans-50"/>
      </defs>
      <use xlink:href="#DejaVuSans-83"/>
      <use x="63.476562" xlink:href="#DejaVuSans-72"/>
      <use x="138.671875" xlink:href="#DejaVuSans-51"/>
      <use x="202.294922" xlink:href="#DejaVuSans-66"/>
      <use x="270.898438" xlink:href="#DejaVuSans-80"/>
      <use x="331.201172" xlink:href="#DejaVuSans-50"/>
     </g>
    </g>
   </g>
   <g id="text_7">
    <g clip-path="url(#pf5ed1f57be)">
     <!-- PTK2B -->
     <g transform="translate(210.284706 233.964078)scale(0.1 -0.1)">
      <defs>
       <path d="M 9.8125 72.90625 
L 19.671875 72.90625 
L 19.671875 42.09375 
L 52.390625 72.90625 
L 65.09375 72.90625 
L 28.90625 38.921875 
L 67.671875 0 
L 54.6875 0 
L 19.671875 35.109375 
L 19.671875 0 
L 9.8125 0 
z
" id="DejaVuSans-75"/>
      </defs>
      <use xlink:href="#DejaVuSans-80"/>
      <use x="60.302734" xlink:href="#DejaVuSans-84"/>
      <use x="121.386719" xlink:href="#DejaVuSans-75"/>
      <use x="186.962891" xlink:href="#DejaVuSans-50"/>
      <use x="250.585938" xlink:href="#DejaVuSans-66"/>
     </g>
    </g>
   </g>
   <g id="text_8">
    <g clip-path="url(#pf5ed1f57be)">
     <!-- LCP2 -->
     <g transform="translate(52.832348 269.028774)scale(0.1 -0.1)">
      <defs>
       <path d="M 64.40625 67.28125 
L 64.40625 56.890625 
Q 59.421875 61.53125 53.78125 63.8125 
Q 48.140625 66.109375 41.796875 66.109375 
Q 29.296875 66.109375 22.65625 58.46875 
Q 16.015625 50.828125 16.015625 36.375 
Q 16.015625 21.96875 22.65625 14.328125 
Q 29.296875 6.6875 41.796875 6.6875 
Q 48.140625 6.6875 53.78125 8.984375 
Q 59.421875 11.28125 64.40625 15.921875 
L 64.40625 5.609375 
Q 59.234375 2.09375 53.4375 0.328125 
Q 47.65625 -1.421875 41.21875 -1.421875 
Q 24.65625 -1.421875 15.125 8.703125 
Q 5.609375 18.84375 5.609375 36.375 
Q 5.609375 53.953125 15.125 64.078125 
Q 24.65625 74.21875 41.21875 74.21875 
Q 47.75 74.21875 53.53125 72.484375 
Q 59.328125 70.75 64.40625 67.28125 
z
" id="DejaVuSans-67"/>
      </defs>
      <use xlink:href="#DejaVuSans-76"/>
      <use x="55.712891" xlink:href="#DejaVuSans-67"/>
      <use x="125.537109" xlink:href="#DejaVuSans-80"/>
      <use x="185.839844" xlink:href="#DejaVuSans-50"/>
     </g>
    </g>
   </g>
   <g id="text_9">
    <g clip-path="url(#pf5ed1f57be)">
     <!-- SYK -->
     <g transform="translate(221.136762 339.243594)scale(0.1 -0.1)">
      <use xlink:href="#DejaVuSans-83"/>
      <use x="63.476562" xlink:href="#DejaVuSans-89"/>
      <use x="124.560547" xlink:href="#DejaVuSans-75"/>
     </g>
    </g>
   </g>
   <g id="text_10">
    <g clip-path="url(#pf5ed1f57be)">
     <!-- ZAP70 -->
     <g transform="translate(331.879318 251.433439)scale(0.1 -0.1)">
      <defs>
       <path d="M 5.609375 72.90625 
L 62.890625 72.90625 
L 62.890625 65.375 
L 16.796875 8.296875 
L 64.015625 8.296875 
L 64.015625 0 
L 4.5 0 
L 4.5 7.515625 
L 50.59375 64.59375 
L 5.609375 64.59375 
z
" id="DejaVuSans-90"/>
       <path d="M 8.203125 72.90625 
L 55.078125 72.90625 
L 55.078125 68.703125 
L 28.609375 0 
L 18.3125 0 
L 43.21875 64.59375 
L 8.203125 64.59375 
z
" id="DejaVuSans-55"/>
      </defs>
      <use xlink:href="#DejaVuSans-90"/>
      <use x="68.505859" xlink:href="#DejaVuSans-65"/>
      <use x="136.914062" xlink:href="#DejaVuSans-80"/>
      <use x="197.216797" xlink:href="#DejaVuSans-55"/>
      <use x="260.839844" xlink:href="#DejaVuSans-48"/>
     </g>
    </g>
   </g>
   <g id="text_11">
    <g clip-path="url(#pf5ed1f57be)">
     <!-- LCK -->
     <g transform="translate(56.86913 199.185204)scale(0.1 -0.1)">
      <use xlink:href="#DejaVuSans-76"/>
      <use x="55.712891" xlink:href="#DejaVuSans-67"/>
      <use x="125.537109" xlink:href="#DejaVuSans-75"/>
     </g>
    </g>
   </g>
   <g id="text_12">
    <g clip-path="url(#pf5ed1f57be)">
     <!-- SH2D1B -->
     <g transform="translate(356.233967 406.297191)scale(0.1 -0.1)">
      <defs>
       <path d="M 19.671875 64.796875 
L 19.671875 8.109375 
L 31.59375 8.109375 
Q 46.6875 8.109375 53.6875 14.9375 
Q 60.6875 21.78125 60.6875 36.53125 
Q 60.6875 51.171875 53.6875 57.984375 
Q 46.6875 64.796875 31.59375 64.796875 
z
M 9.8125 72.90625 
L 30.078125 72.90625 
Q 51.265625 72.90625 61.171875 64.09375 
Q 71.09375 55.28125 71.09375 36.53125 
Q 71.09375 17.671875 61.125 8.828125 
Q 51.171875 0 30.078125 0 
L 9.8125 0 
z
" id="DejaVuSans-68"/>
      </defs>
      <use xlink:href="#DejaVuSans-83"/>
      <use x="63.476562" xlink:href="#DejaVuSans-72"/>
      <use x="138.671875" xlink:href="#DejaVuSans-50"/>
      <use x="202.294922" xlink:href="#DejaVuSans-68"/>
      <use x="279.296875" xlink:href="#DejaVuSans-49"/>
      <use x="342.919922" xlink:href="#DejaVuSans-66"/>
     </g>
    </g>
   </g>
   <g id="text_13">
    <g clip-path="url(#pf5ed1f57be)">
     <!-- SH2D1A -->
     <g transform="translate(384.368796 163.063751)scale(0.1 -0.1)">
      <use xlink:href="#DejaVuSans-83"/>
      <use x="63.476562" xlink:href="#DejaVuSans-72"/>
      <use x="138.671875" xlink:href="#DejaVuSans-50"/>
      <use x="202.294922" xlink:href="#DejaVuSans-68"/>
      <use x="279.296875" xlink:href="#DejaVuSans-49"/>
      <use x="342.919922" xlink:href="#DejaVuSans-65"/>
     </g>
    </g>
   </g>
   <g id="text_14">
    <g clip-path="url(#pf5ed1f57be)">
     <!-- HCST -->
     <g transform="translate(504.984014 325.50484)scale(0.1 -0.1)">
      <use xlink:href="#DejaVuSans-72"/>
      <use x="75.195312" xlink:href="#DejaVuSans-67"/>
      <use x="145.019531" xlink:href="#DejaVuSans-83"/>
      <use x="208.496094" xlink:href="#DejaVuSans-84"/>
     </g>
    </g>
   </g>
   <g id="text_15">
    <g clip-path="url(#pf5ed1f57be)">
     <!-- FCER1G -->
     <g transform="translate(407.920981 281.955565)scale(0.1 -0.1)">
      <defs>
       <path d="M 9.8125 72.90625 
L 55.90625 72.90625 
L 55.90625 64.59375 
L 19.671875 64.59375 
L 19.671875 43.015625 
L 54.390625 43.015625 
L 54.390625 34.71875 
L 19.671875 34.71875 
L 19.671875 8.296875 
L 56.78125 8.296875 
L 56.78125 0 
L 9.8125 0 
z
" id="DejaVuSans-69"/>
       <path d="M 44.390625 34.1875 
Q 47.5625 33.109375 50.5625 29.59375 
Q 53.5625 26.078125 56.59375 19.921875 
L 66.609375 0 
L 56 0 
L 46.6875 18.703125 
Q 43.0625 26.03125 39.671875 28.421875 
Q 36.28125 30.8125 30.421875 30.8125 
L 19.671875 30.8125 
L 19.671875 0 
L 9.8125 0 
L 9.8125 72.90625 
L 32.078125 72.90625 
Q 44.578125 72.90625 50.734375 67.671875 
Q 56.890625 62.453125 56.890625 51.90625 
Q 56.890625 45.015625 53.6875 40.46875 
Q 50.484375 35.9375 44.390625 34.1875 
z
M 19.671875 64.796875 
L 19.671875 38.921875 
L 32.078125 38.921875 
Q 39.203125 38.921875 42.84375 42.21875 
Q 46.484375 45.515625 46.484375 51.90625 
Q 46.484375 58.296875 42.84375 61.546875 
Q 39.203125 64.796875 32.078125 64.796875 
z
" id="DejaVuSans-82"/>
      </defs>
      <use xlink:href="#DejaVuSans-70"/>
      <use x="57.519531" xlink:href="#DejaVuSans-67"/>
      <use x="127.34375" xlink:href="#DejaVuSans-69"/>
      <use x="190.527344" xlink:href="#DejaVuSans-82"/>
      <use x="260.009766" xlink:href="#DejaVuSans-49"/>
      <use x="323.632812" xlink:href="#DejaVuSans-71"/>
     </g>
    </g>
   </g>
   <g id="text_16">
    <g clip-path="url(#pf5ed1f57be)">
     <!-- TYROBP -->
     <g transform="translate(387.713954 280.75704)scale(0.1 -0.1)">
      <defs>
       <path d="M 39.40625 66.21875 
Q 28.65625 66.21875 22.328125 58.203125 
Q 16.015625 50.203125 16.015625 36.375 
Q 16.015625 22.609375 22.328125 14.59375 
Q 28.65625 6.59375 39.40625 6.59375 
Q 50.140625 6.59375 56.421875 14.59375 
Q 62.703125 22.609375 62.703125 36.375 
Q 62.703125 50.203125 56.421875 58.203125 
Q 50.140625 66.21875 39.40625 66.21875 
z
M 39.40625 74.21875 
Q 54.734375 74.21875 63.90625 63.9375 
Q 73.09375 53.65625 73.09375 36.375 
Q 73.09375 19.140625 63.90625 8.859375 
Q 54.734375 -1.421875 39.40625 -1.421875 
Q 24.03125 -1.421875 14.8125 8.828125 
Q 5.609375 19.09375 5.609375 36.375 
Q 5.609375 53.65625 14.8125 63.9375 
Q 24.03125 74.21875 39.40625 74.21875 
z
" id="DejaVuSans-79"/>
      </defs>
      <use xlink:href="#DejaVuSans-84"/>
      <use x="61.083984" xlink:href="#DejaVuSans-89"/>
      <use x="122.167969" xlink:href="#DejaVuSans-82"/>
      <use x="191.650391" xlink:href="#DejaVuSans-79"/>
      <use x="270.361328" xlink:href="#DejaVuSans-66"/>
      <use x="338.964844" xlink:href="#DejaVuSans-80"/>
     </g>
    </g>
   </g>
   <g id="text_17">
    <g clip-path="url(#pf5ed1f57be)">
     <!-- PTPN11 -->
     <g transform="translate(238.374418 283.638645)scale(0.1 -0.1)">
      <use xlink:href="#DejaVuSans-80"/>
      <use x="60.302734" xlink:href="#DejaVuSans-84"/>
      <use x="121.386719" xlink:href="#DejaVuSans-80"/>
      <use x="181.689453" xlink:href="#DejaVuSans-78"/>
      <use x="256.494141" xlink:href="#DejaVuSans-49"/>
      <use x="320.117188" xlink:href="#DejaVuSans-49"/>
     </g>
    </g>
   </g>
   <g id="text_18">
    <g clip-path="url(#pf5ed1f57be)">
     <!-- PTPN6 -->
     <g transform="translate(331.590975 316.093947)scale(0.1 -0.1)">
      <defs>
       <path d="M 33.015625 40.375 
Q 26.375 40.375 22.484375 35.828125 
Q 18.609375 31.296875 18.609375 23.390625 
Q 18.609375 15.53125 22.484375 10.953125 
Q 26.375 6.390625 33.015625 6.390625 
Q 39.65625 6.390625 43.53125 10.953125 
Q 47.40625 15.53125 47.40625 23.390625 
Q 47.40625 31.296875 43.53125 35.828125 
Q 39.65625 40.375 33.015625 40.375 
z
M 52.59375 71.296875 
L 52.59375 62.3125 
Q 48.875 64.0625 45.09375 64.984375 
Q 41.3125 65.921875 37.59375 65.921875 
Q 27.828125 65.921875 22.671875 59.328125 
Q 17.53125 52.734375 16.796875 39.40625 
Q 19.671875 43.65625 24.015625 45.921875 
Q 28.375 48.1875 33.59375 48.1875 
Q 44.578125 48.1875 50.953125 41.515625 
Q 57.328125 34.859375 57.328125 23.390625 
Q 57.328125 12.15625 50.6875 5.359375 
Q 44.046875 -1.421875 33.015625 -1.421875 
Q 20.359375 -1.421875 13.671875 8.265625 
Q 6.984375 17.96875 6.984375 36.375 
Q 6.984375 53.65625 15.1875 63.9375 
Q 23.390625 74.21875 37.203125 74.21875 
Q 40.921875 74.21875 44.703125 73.484375 
Q 48.484375 72.75 52.59375 71.296875 
z
" id="DejaVuSans-54"/>
      </defs>
      <use xlink:href="#DejaVuSans-80"/>
      <use x="60.302734" xlink:href="#DejaVuSans-84"/>
      <use x="121.386719" xlink:href="#DejaVuSans-80"/>
      <use x="181.689453" xlink:href="#DejaVuSans-78"/>
      <use x="256.494141" xlink:href="#DejaVuSans-54"/>
     </g>
    </g>
   </g>
   <g id="text_19">
    <g clip-path="url(#pf5ed1f57be)">
     <!-- BID -->
     <g transform="translate(352.837112 430.110227)scale(0.1 -0.1)">
      <use xlink:href="#DejaVuSans-66"/>
      <use x="68.603516" xlink:href="#DejaVuSans-73"/>
      <use x="98.095703" xlink:href="#DejaVuSans-68"/>
     </g>
    </g>
   </g>
   <g id="text_20">
    <g clip-path="url(#pf5ed1f57be)">
     <!-- CASP3 -->
     <g transform="translate(77.51497 249.152143)scale(0.1 -0.1)">
      <use xlink:href="#DejaVuSans-67"/>
      <use x="69.824219" xlink:href="#DejaVuSans-65"/>
      <use x="138.232422" xlink:href="#DejaVuSans-83"/>
      <use x="201.708984" xlink:href="#DejaVuSans-80"/>
      <use x="262.011719" xlink:href="#DejaVuSans-51"/>
     </g>
    </g>
   </g>
   <g id="text_21">
    <g clip-path="url(#pf5ed1f57be)">
     <!-- GZMB -->
     <g transform="translate(406.398284 200.869321)scale(0.1 -0.1)">
      <defs>
       <path d="M 9.8125 72.90625 
L 24.515625 72.90625 
L 43.109375 23.296875 
L 61.8125 72.90625 
L 76.515625 72.90625 
L 76.515625 0 
L 66.890625 0 
L 66.890625 64.015625 
L 48.09375 14.015625 
L 38.1875 14.015625 
L 19.390625 64.015625 
L 19.390625 0 
L 9.8125 0 
z
" id="DejaVuSans-77"/>
      </defs>
      <use xlink:href="#DejaVuSans-71"/>
      <use x="77.490234" xlink:href="#DejaVuSans-90"/>
      <use x="145.996094" xlink:href="#DejaVuSans-77"/>
      <use x="232.275391" xlink:href="#DejaVuSans-66"/>
     </g>
    </g>
   </g>
   <g id="text_22">
    <g clip-path="url(#pf5ed1f57be)">
     <!-- CD48 -->
     <g transform="translate(604.990309 191.72977)scale(0.1 -0.1)">
      <defs>
       <path d="M 37.796875 64.3125 
L 12.890625 25.390625 
L 37.796875 25.390625 
z
M 35.203125 72.90625 
L 47.609375 72.90625 
L 47.609375 25.390625 
L 58.015625 25.390625 
L 58.015625 17.1875 
L 47.609375 17.1875 
L 47.609375 0 
L 37.796875 0 
L 37.796875 17.1875 
L 4.890625 17.1875 
L 4.890625 26.703125 
z
" id="DejaVuSans-52"/>
       <path d="M 31.78125 34.625 
Q 24.75 34.625 20.71875 30.859375 
Q 16.703125 27.09375 16.703125 20.515625 
Q 16.703125 13.921875 20.71875 10.15625 
Q 24.75 6.390625 31.78125 6.390625 
Q 38.8125 6.390625 42.859375 10.171875 
Q 46.921875 13.96875 46.921875 20.515625 
Q 46.921875 27.09375 42.890625 30.859375 
Q 38.875 34.625 31.78125 34.625 
z
M 21.921875 38.8125 
Q 15.578125 40.375 12.03125 44.71875 
Q 8.5 49.078125 8.5 55.328125 
Q 8.5 64.0625 14.71875 69.140625 
Q 20.953125 74.21875 31.78125 74.21875 
Q 42.671875 74.21875 48.875 69.140625 
Q 55.078125 64.0625 55.078125 55.328125 
Q 55.078125 49.078125 51.53125 44.71875 
Q 48 40.375 41.703125 38.8125 
Q 48.828125 37.15625 52.796875 32.3125 
Q 56.78125 27.484375 56.78125 20.515625 
Q 56.78125 9.90625 50.3125 4.234375 
Q 43.84375 -1.421875 31.78125 -1.421875 
Q 19.734375 -1.421875 13.25 4.234375 
Q 6.78125 9.90625 6.78125 20.515625 
Q 6.78125 27.484375 10.78125 32.3125 
Q 14.796875 37.15625 21.921875 38.8125 
z
M 18.3125 54.390625 
Q 18.3125 48.734375 21.84375 45.5625 
Q 25.390625 42.390625 31.78125 42.390625 
Q 38.140625 42.390625 41.71875 45.5625 
Q 45.3125 48.734375 45.3125 54.390625 
Q 45.3125 60.0625 41.71875 63.234375 
Q 38.140625 66.40625 31.78125 66.40625 
Q 25.390625 66.40625 21.84375 63.234375 
Q 18.3125 60.0625 18.3125 54.390625 
z
" id="DejaVuSans-56"/>
      </defs>
      <use xlink:href="#DejaVuSans-67"/>
      <use x="69.824219" xlink:href="#DejaVuSans-68"/>
      <use x="146.826172" xlink:href="#DejaVuSans-52"/>
      <use x="210.449219" xlink:href="#DejaVuSans-56"/>
     </g>
    </g>
   </g>
   <g id="text_23">
    <g clip-path="url(#pf5ed1f57be)">
     <!-- GRB2 -->
     <g transform="translate(293.74391 425.722405)scale(0.1 -0.1)">
      <use xlink:href="#DejaVuSans-71"/>
      <use x="77.490234" xlink:href="#DejaVuSans-82"/>
      <use x="146.972656" xlink:href="#DejaVuSans-66"/>
      <use x="215.576172" xlink:href="#DejaVuSans-50"/>
     </g>
    </g>
   </g>
   <g id="text_24">
    <g clip-path="url(#pf5ed1f57be)">
     <!-- PAK1 -->
     <g transform="translate(119.455114 281.45871)scale(0.1 -0.1)">
      <use xlink:href="#DejaVuSans-80"/>
      <use x="53.927734" xlink:href="#DejaVuSans-65"/>
      <use x="122.335938" xlink:href="#DejaVuSans-75"/>
      <use x="187.912109" xlink:href="#DejaVuSans-49"/>
     </g>
    </g>
   </g>
   <g id="text_25">
    <g clip-path="url(#pf5ed1f57be)">
     <!-- KLRD1 -->
     <g transform="translate(500.706557 360.724801)scale(0.1 -0.1)">
      <use xlink:href="#DejaVuSans-75"/>
      <use x="65.576172" xlink:href="#DejaVuSans-76"/>
      <use x="121.289062" xlink:href="#DejaVuSans-82"/>
      <use x="190.771484" xlink:href="#DejaVuSans-68"/>
      <use x="267.773438" xlink:href="#DejaVuSans-49"/>
     </g>
    </g>
   </g>
   <g id="text_26">
    <g clip-path="url(#pf5ed1f57be)">
     <!-- CD244 -->
     <g transform="translate(444.272987 236.687759)scale(0.1 -0.1)">
      <use xlink:href="#DejaVuSans-67"/>
      <use x="69.824219" xlink:href="#DejaVuSans-68"/>
      <use x="146.826172" xlink:href="#DejaVuSans-50"/>
      <use x="210.449219" xlink:href="#DejaVuSans-52"/>
      <use x="274.072266" xlink:href="#DejaVuSans-52"/>
     </g>
    </g>
   </g>
   <g id="text_27">
    <g clip-path="url(#pf5ed1f57be)">
     <!-- KLRK1 -->
     <g transform="translate(586.449502 343.335509)scale(0.1 -0.1)">
      <use xlink:href="#DejaVuSans-75"/>
      <use x="65.576172" xlink:href="#DejaVuSans-76"/>
      <use x="121.289062" xlink:href="#DejaVuSans-82"/>
      <use x="190.771484" xlink:href="#DejaVuSans-75"/>
      <use x="256.347656" xlink:href="#DejaVuSans-49"/>
     </g>
    </g>
   </g>
   <g id="text_28">
    <g clip-path="url(#pf5ed1f57be)">
     <!-- NCR3 -->
     <g transform="translate(538.918076 139.549263)scale(0.1 -0.1)">
      <use xlink:href="#DejaVuSans-78"/>
      <use x="74.804688" xlink:href="#DejaVuSans-67"/>
      <use x="144.628906" xlink:href="#DejaVuSans-82"/>
      <use x="214.111328" xlink:href="#DejaVuSans-51"/>
     </g>
    </g>
   </g>
   <g id="text_29">
    <g clip-path="url(#pf5ed1f57be)">
     <!-- NCR1 -->
     <g transform="translate(71.785675 327.240273)scale(0.1 -0.1)">
      <use xlink:href="#DejaVuSans-78"/>
      <use x="74.804688" xlink:href="#DejaVuSans-67"/>
      <use x="144.628906" xlink:href="#DejaVuSans-82"/>
      <use x="214.111328" xlink:href="#DejaVuSans-49"/>
     </g>
    </g>
   </g>
   <g id="text_30">
    <g clip-path="url(#pf5ed1f57be)">
     <!-- ITGB2 -->
     <g transform="translate(84.283067 297.035616)scale(0.1 -0.1)">
      <use xlink:href="#DejaVuSans-73"/>
      <use x="29.492188" xlink:href="#DejaVuSans-84"/>
      <use x="90.576172" xlink:href="#DejaVuSans-71"/>
      <use x="168.066406" xlink:href="#DejaVuSans-66"/>
      <use x="236.669922" xlink:href="#DejaVuSans-50"/>
     </g>
    </g>
   </g>
   <g id="text_31">
    <g clip-path="url(#pf5ed1f57be)">
     <!-- ITGAL -->
     <g transform="translate(54.029572 280.341427)scale(0.1 -0.1)">
      <use xlink:href="#DejaVuSans-73"/>
      <use x="29.492188" xlink:href="#DejaVuSans-84"/>
      <use x="90.576172" xlink:href="#DejaVuSans-71"/>
      <use x="168.066406" xlink:href="#DejaVuSans-65"/>
      <use x="236.474609" xlink:href="#DejaVuSans-76"/>
     </g>
    </g>
   </g>
   <g id="text_32">
    <g clip-path="url(#pf5ed1f57be)">
     <!-- KLRC1 -->
     <g transform="translate(185.549309 394.129683)scale(0.1 -0.1)">
      <use xlink:href="#DejaVuSans-75"/>
      <use x="65.576172" xlink:href="#DejaVuSans-76"/>
      <use x="121.289062" xlink:href="#DejaVuSans-82"/>
      <use x="185.771484" xlink:href="#DejaVuSans-67"/>
      <use x="255.595703" xlink:href="#DejaVuSans-49"/>
     </g>
    </g>
   </g>
   <g id="text_33">
    <g clip-path="url(#pf5ed1f57be)">
     <!-- NFATC2 -->
     <g transform="translate(363.056192 364.111857)scale(0.1 -0.1)">
      <use xlink:href="#DejaVuSans-78"/>
      <use x="74.804688" xlink:href="#DejaVuSans-70"/>
      <use x="123.199219" xlink:href="#DejaVuSans-65"/>
      <use x="183.857422" xlink:href="#DejaVuSans-84"/>
      <use x="239.066406" xlink:href="#DejaVuSans-67"/>
      <use x="308.890625" xlink:href="#DejaVuSans-50"/>
     </g>
    </g>
   </g>
   <g id="text_34">
    <g clip-path="url(#pf5ed1f57be)">
     <!-- NFATC1 -->
     <g transform="translate(379.32533 75.675245)scale(0.1 -0.1)">
      <use xlink:href="#DejaVuSans-78"/>
      <use x="74.804688" xlink:href="#DejaVuSans-70"/>
      <use x="123.199219" xlink:href="#DejaVuSans-65"/>
      <use x="183.857422" xlink:href="#DejaVuSans-84"/>
      <use x="239.066406" xlink:href="#DejaVuSans-67"/>
      <use x="308.890625" xlink:href="#DejaVuSans-49"/>
     </g>
    </g>
   </g>
   <g id="text_35">
    <g clip-path="url(#pf5ed1f57be)">
     <!-- IFNGR1 -->
     <g transform="translate(578.544578 308.840601)scale(0.1 -0.1)">
      <use xlink:href="#DejaVuSans-73"/>
      <use x="29.492188" xlink:href="#DejaVuSans-70"/>
      <use x="87.011719" xlink:href="#DejaVuSans-78"/>
      <use x="161.816406" xlink:href="#DejaVuSans-71"/>
      <use x="239.306641" xlink:href="#DejaVuSans-82"/>
      <use x="308.789062" xlink:href="#DejaVuSans-49"/>
     </g>
    </g>
   </g>
   <g id="text_36">
    <g clip-path="url(#pf5ed1f57be)">
     <!-- IFNGR2 -->
     <g transform="translate(350.219014 145.240365)scale(0.1 -0.1)">
      <use xlink:href="#DejaVuSans-73"/>
      <use x="29.492188" xlink:href="#DejaVuSans-70"/>
      <use x="87.011719" xlink:href="#DejaVuSans-78"/>
      <use x="161.816406" xlink:href="#DejaVuSans-71"/>
      <use x="239.306641" xlink:href="#DejaVuSans-82"/>
      <use x="308.789062" xlink:href="#DejaVuSans-50"/>
     </g>
    </g>
   </g>
   <g id="text_37">
    <g clip-path="url(#pf5ed1f57be)">
     <!-- PLCG1 -->
     <g transform="translate(542.694243 212.981661)scale(0.1 -0.1)">
      <use xlink:href="#DejaVuSans-80"/>
      <use x="60.302734" xlink:href="#DejaVuSans-76"/>
      <use x="116.015625" xlink:href="#DejaVuSans-67"/>
      <use x="185.839844" xlink:href="#DejaVuSans-71"/>
      <use x="263.330078" xlink:href="#DejaVuSans-49"/>
     </g>
    </g>
   </g>
   <g id="text_38">
    <g clip-path="url(#pf5ed1f57be)">
     <!-- PLCG2 -->
     <g transform="translate(354.451921 216.17105)scale(0.1 -0.1)">
      <use xlink:href="#DejaVuSans-80"/>
      <use x="60.302734" xlink:href="#DejaVuSans-76"/>
      <use x="116.015625" xlink:href="#DejaVuSans-67"/>
      <use x="185.839844" xlink:href="#DejaVuSans-71"/>
      <use x="263.330078" xlink:href="#DejaVuSans-50"/>
     </g>
    </g>
   </g>
   <g id="text_39">
    <g clip-path="url(#pf5ed1f57be)">
     <!-- PRKCA -->
     <g transform="translate(333.653826 68.536186)scale(0.1 -0.1)">
      <use xlink:href="#DejaVuSans-80"/>
      <use x="60.302734" xlink:href="#DejaVuSans-82"/>
      <use x="129.785156" xlink:href="#DejaVuSans-75"/>
      <use x="189.861328" xlink:href="#DejaVuSans-67"/>
      <use x="259.685547" xlink:href="#DejaVuSans-65"/>
     </g>
    </g>
   </g>
   <g id="text_40">
    <g clip-path="url(#pf5ed1f57be)">
     <!-- PRKCB -->
     <g transform="translate(477.298468 85.229981)scale(0.1 -0.1)">
      <use xlink:href="#DejaVuSans-80"/>
      <use x="60.302734" xlink:href="#DejaVuSans-82"/>
      <use x="129.785156" xlink:href="#DejaVuSans-75"/>
      <use x="189.861328" xlink:href="#DejaVuSans-67"/>
      <use x="259.685547" xlink:href="#DejaVuSans-66"/>
     </g>
    </g>
   </g>
   <g id="text_41">
    <g clip-path="url(#pf5ed1f57be)">
     <!-- LAT2 -->
     <g transform="translate(188.545311 177.760706)scale(0.1 -0.1)">
      <use xlink:href="#DejaVuSans-76"/>
      <use x="57.962891" xlink:href="#DejaVuSans-65"/>
      <use x="118.621094" xlink:href="#DejaVuSans-84"/>
      <use x="179.705078" xlink:href="#DejaVuSans-50"/>
     </g>
    </g>
   </g>
   <g id="text_42">
    <g clip-path="url(#pf5ed1f57be)">
     <!-- ICAM1 -->
     <g transform="translate(124.66325 372.336501)scale(0.1 -0.1)">
      <use xlink:href="#DejaVuSans-73"/>
      <use x="29.492188" xlink:href="#DejaVuSans-67"/>
      <use x="99.316406" xlink:href="#DejaVuSans-65"/>
      <use x="167.724609" xlink:href="#DejaVuSans-77"/>
      <use x="254.003906" xlink:href="#DejaVuSans-49"/>
     </g>
    </g>
   </g>
   <g id="text_43">
    <g clip-path="url(#pf5ed1f57be)">
     <!-- ICAM2 -->
     <g transform="translate(123.699716 221.914244)scale(0.1 -0.1)">
      <use xlink:href="#DejaVuSans-73"/>
      <use x="29.492188" xlink:href="#DejaVuSans-67"/>
      <use x="99.316406" xlink:href="#DejaVuSans-65"/>
      <use x="167.724609" xlink:href="#DejaVuSans-77"/>
      <use x="254.003906" xlink:href="#DejaVuSans-50"/>
     </g>
    </g>
   </g>
   <g id="text_44">
    <g clip-path="url(#pf5ed1f57be)">
     <!-- MAP2K1 -->
     <g transform="translate(110.71155 111.243572)scale(0.1 -0.1)">
      <use xlink:href="#DejaVuSans-77"/>
      <use x="86.279297" xlink:href="#DejaVuSans-65"/>
      <use x="154.6875" xlink:href="#DejaVuSans-80"/>
      <use x="214.990234" xlink:href="#DejaVuSans-50"/>
      <use x="278.613281" xlink:href="#DejaVuSans-75"/>
      <use x="344.189453" xlink:href="#DejaVuSans-49"/>
     </g>
    </g>
   </g>
   <g id="text_45">
    <g clip-path="url(#pf5ed1f57be)">
     <!-- MAP2K2 -->
     <g transform="translate(225.343657 70.473657)scale(0.1 -0.1)">
      <use xlink:href="#DejaVuSans-77"/>
      <use x="86.279297" xlink:href="#DejaVuSans-65"/>
      <use x="154.6875" xlink:href="#DejaVuSans-80"/>
      <use x="214.990234" xlink:href="#DejaVuSans-50"/>
      <use x="278.613281" xlink:href="#DejaVuSans-75"/>
      <use x="344.189453" xlink:href="#DejaVuSans-50"/>
     </g>
    </g>
   </g>
   <g id="text_46">
    <g clip-path="url(#pf5ed1f57be)">
     <!-- BRAF -->
     <g transform="translate(330.822737 153.389267)scale(0.1 -0.1)">
      <use xlink:href="#DejaVuSans-66"/>
      <use x="68.603516" xlink:href="#DejaVuSans-82"/>
      <use x="134.085938" xlink:href="#DejaVuSans-65"/>
      <use x="202.494141" xlink:href="#DejaVuSans-70"/>
     </g>
    </g>
   </g>
   <g id="text_47">
    <g clip-path="url(#pf5ed1f57be)">
     <!-- RAF1 -->
     <g transform="translate(266.089055 127.746212)scale(0.1 -0.1)">
      <use xlink:href="#DejaVuSans-82"/>
      <use x="65.482422" xlink:href="#DejaVuSans-65"/>
      <use x="133.890625" xlink:href="#DejaVuSans-70"/>
      <use x="191.410156" xlink:href="#DejaVuSans-49"/>
     </g>
    </g>
   </g>
   <g id="text_48">
    <g clip-path="url(#pf5ed1f57be)">
     <!-- ARAF -->
     <g transform="translate(100.740742 136.049295)scale(0.1 -0.1)">
      <use xlink:href="#DejaVuSans-65"/>
      <use x="68.408203" xlink:href="#DejaVuSans-82"/>
      <use x="133.890625" xlink:href="#DejaVuSans-65"/>
      <use x="202.298828" xlink:href="#DejaVuSans-70"/>
     </g>
    </g>
   </g>
   <g id="text_49">
    <g clip-path="url(#pf5ed1f57be)">
     <!-- HRAS -->
     <g transform="translate(133.952494 164.397195)scale(0.1 -0.1)">
      <use xlink:href="#DejaVuSans-72"/>
      <use x="75.195312" xlink:href="#DejaVuSans-82"/>
      <use x="140.677734" xlink:href="#DejaVuSans-65"/>
      <use x="209.085938" xlink:href="#DejaVuSans-83"/>
     </g>
    </g>
   </g>
   <g id="text_50">
    <g clip-path="url(#pf5ed1f57be)">
     <!-- KRAS -->
     <g transform="translate(352.967171 63.564773)scale(0.1 -0.1)">
      <use xlink:href="#DejaVuSans-75"/>
      <use x="65.576172" xlink:href="#DejaVuSans-82"/>
      <use x="131.058594" xlink:href="#DejaVuSans-65"/>
      <use x="199.466797" xlink:href="#DejaVuSans-83"/>
     </g>
    </g>
   </g>
   <g id="text_51">
    <g clip-path="url(#pf5ed1f57be)">
     <!-- NRAS -->
     <g transform="translate(436.282919 123.733854)scale(0.1 -0.1)">
      <use xlink:href="#DejaVuSans-78"/>
      <use x="74.804688" xlink:href="#DejaVuSans-82"/>
      <use x="140.287109" xlink:href="#DejaVuSans-65"/>
      <use x="208.695312" xlink:href="#DejaVuSans-83"/>
     </g>
    </g>
   </g>
   <g id="text_52">
    <g clip-path="url(#pf5ed1f57be)">
     <!-- SHC1 -->
     <g transform="translate(179.632424 311.970746)scale(0.1 -0.1)">
      <use xlink:href="#DejaVuSans-83"/>
      <use x="63.476562" xlink:href="#DejaVuSans-72"/>
      <use x="138.671875" xlink:href="#DejaVuSans-67"/>
      <use x="208.496094" xlink:href="#DejaVuSans-49"/>
     </g>
    </g>
   </g>
   <g id="text_53">
    <g clip-path="url(#pf5ed1f57be)">
     <!-- RAC1 -->
     <g transform="translate(159.561667 358.247367)scale(0.1 -0.1)">
      <use xlink:href="#DejaVuSans-82"/>
      <use x="65.482422" xlink:href="#DejaVuSans-65"/>
      <use x="132.140625" xlink:href="#DejaVuSans-67"/>
      <use x="201.964844" xlink:href="#DejaVuSans-49"/>
     </g>
    </g>
   </g>
   <g id="text_54">
    <g clip-path="url(#pf5ed1f57be)">
     <!-- RAC2 -->
     <g transform="translate(212.145049 404.8024)scale(0.1 -0.1)">
      <use xlink:href="#DejaVuSans-82"/>
      <use x="65.482422" xlink:href="#DejaVuSans-65"/>
      <use x="132.140625" xlink:href="#DejaVuSans-67"/>
      <use x="201.964844" xlink:href="#DejaVuSans-50"/>
     </g>
    </g>
   </g>
   <g id="text_55">
    <g clip-path="url(#pf5ed1f57be)">
     <!-- IFNAR1 -->
     <g transform="translate(594.720614 258.845576)scale(0.1 -0.1)">
      <use xlink:href="#DejaVuSans-73"/>
      <use x="29.492188" xlink:href="#DejaVuSans-70"/>
      <use x="87.011719" xlink:href="#DejaVuSans-78"/>
      <use x="161.816406" xlink:href="#DejaVuSans-65"/>
      <use x="230.224609" xlink:href="#DejaVuSans-82"/>
      <use x="299.707031" xlink:href="#DejaVuSans-49"/>
     </g>
    </g>
   </g>
   <g id="text_56">
    <g clip-path="url(#pf5ed1f57be)">
     <!-- IFNAR2 -->
     <g transform="translate(275.410597 208.080048)scale(0.1 -0.1)">
      <use xlink:href="#DejaVuSans-73"/>
      <use x="29.492188" xlink:href="#DejaVuSans-70"/>
      <use x="87.011719" xlink:href="#DejaVuSans-78"/>
      <use x="161.816406" xlink:href="#DejaVuSans-65"/>
      <use x="230.224609" xlink:href="#DejaVuSans-82"/>
      <use x="299.707031" xlink:href="#DejaVuSans-50"/>
     </g>
    </g>
   </g>
   <g id="text_57">
    <!-- Importance Score for Each Node in the Network -->
    <g transform="translate(198.616875 16.318125)scale(0.12 -0.12)">
     <defs>
      <path d="M 52 44.1875 
Q 55.375 50.25 60.0625 53.125 
Q 64.75 56 71.09375 56 
Q 79.640625 56 84.28125 50.015625 
Q 88.921875 44.046875 88.921875 33.015625 
L 88.921875 0 
L 79.890625 0 
L 79.890625 32.71875 
Q 79.890625 40.578125 77.09375 44.375 
Q 74.3125 48.1875 68.609375 48.1875 
Q 61.625 48.1875 57.5625 43.546875 
Q 53.515625 38.921875 53.515625 30.90625 
L 53.515625 0 
L 44.484375 0 
L 44.484375 32.71875 
Q 44.484375 40.625 41.703125 44.40625 
Q 38.921875 48.1875 33.109375 48.1875 
Q 26.21875 48.1875 22.15625 43.53125 
Q 18.109375 38.875 18.109375 30.90625 
L 18.109375 0 
L 9.078125 0 
L 9.078125 54.6875 
L 18.109375 54.6875 
L 18.109375 46.1875 
Q 21.1875 51.21875 25.484375 53.609375 
Q 29.78125 56 35.6875 56 
Q 41.65625 56 45.828125 52.96875 
Q 50 49.953125 52 44.1875 
z
" id="DejaVuSans-109"/>
      <path d="M 18.109375 8.203125 
L 18.109375 -20.796875 
L 9.078125 -20.796875 
L 9.078125 54.6875 
L 18.109375 54.6875 
L 18.109375 46.390625 
Q 20.953125 51.265625 25.265625 53.625 
Q 29.59375 56 35.59375 56 
Q 45.5625 56 51.78125 48.09375 
Q 58.015625 40.1875 58.015625 27.296875 
Q 58.015625 14.40625 51.78125 6.484375 
Q 45.5625 -1.421875 35.59375 -1.421875 
Q 29.59375 -1.421875 25.265625 0.953125 
Q 20.953125 3.328125 18.109375 8.203125 
z
M 48.6875 27.296875 
Q 48.6875 37.203125 44.609375 42.84375 
Q 40.53125 48.484375 33.40625 48.484375 
Q 26.265625 48.484375 22.1875 42.84375 
Q 18.109375 37.203125 18.109375 27.296875 
Q 18.109375 17.390625 22.1875 11.75 
Q 26.265625 6.109375 33.40625 6.109375 
Q 40.53125 6.109375 44.609375 11.75 
Q 48.6875 17.390625 48.6875 27.296875 
z
" id="DejaVuSans-112"/>
      <path d="M 30.609375 48.390625 
Q 23.390625 48.390625 19.1875 42.75 
Q 14.984375 37.109375 14.984375 27.296875 
Q 14.984375 17.484375 19.15625 11.84375 
Q 23.34375 6.203125 30.609375 6.203125 
Q 37.796875 6.203125 41.984375 11.859375 
Q 46.1875 17.53125 46.1875 27.296875 
Q 46.1875 37.015625 41.984375 42.703125 
Q 37.796875 48.390625 30.609375 48.390625 
z
M 30.609375 56 
Q 42.328125 56 49.015625 48.375 
Q 55.71875 40.765625 55.71875 27.296875 
Q 55.71875 13.875 49.015625 6.21875 
Q 42.328125 -1.421875 30.609375 -1.421875 
Q 18.84375 -1.421875 12.171875 6.21875 
Q 5.515625 13.875 5.515625 27.296875 
Q 5.515625 40.765625 12.171875 48.375 
Q 18.84375 56 30.609375 56 
z
" id="DejaVuSans-111"/>
      <path d="M 41.109375 46.296875 
Q 39.59375 47.171875 37.8125 47.578125 
Q 36.03125 48 33.890625 48 
Q 26.265625 48 22.1875 43.046875 
Q 18.109375 38.09375 18.109375 28.8125 
L 18.109375 0 
L 9.078125 0 
L 9.078125 54.6875 
L 18.109375 54.6875 
L 18.109375 46.1875 
Q 20.953125 51.171875 25.484375 53.578125 
Q 30.03125 56 36.53125 56 
Q 37.453125 56 38.578125 55.875 
Q 39.703125 55.765625 41.0625 55.515625 
z
" id="DejaVuSans-114"/>
      <path d="M 18.3125 70.21875 
L 18.3125 54.6875 
L 36.8125 54.6875 
L 36.8125 47.703125 
L 18.3125 47.703125 
L 18.3125 18.015625 
Q 18.3125 11.328125 20.140625 9.421875 
Q 21.96875 7.515625 27.59375 7.515625 
L 36.8125 7.515625 
L 36.8125 0 
L 27.59375 0 
Q 17.1875 0 13.234375 3.875 
Q 9.28125 7.765625 9.28125 18.015625 
L 9.28125 47.703125 
L 2.6875 47.703125 
L 2.6875 54.6875 
L 9.28125 54.6875 
L 9.28125 70.21875 
z
" id="DejaVuSans-116"/>
      <path d="M 34.28125 27.484375 
Q 23.390625 27.484375 19.1875 25 
Q 14.984375 22.515625 14.984375 16.5 
Q 14.984375 11.71875 18.140625 8.90625 
Q 21.296875 6.109375 26.703125 6.109375 
Q 34.1875 6.109375 38.703125 11.40625 
Q 43.21875 16.703125 43.21875 25.484375 
L 43.21875 27.484375 
z
M 52.203125 31.203125 
L 52.203125 0 
L 43.21875 0 
L 43.21875 8.296875 
Q 40.140625 3.328125 35.546875 0.953125 
Q 30.953125 -1.421875 24.3125 -1.421875 
Q 15.921875 -1.421875 10.953125 3.296875 
Q 6 8.015625 6 15.921875 
Q 6 25.140625 12.171875 29.828125 
Q 18.359375 34.515625 30.609375 34.515625 
L 43.21875 34.515625 
L 43.21875 35.40625 
Q 43.21875 41.609375 39.140625 45 
Q 35.0625 48.390625 27.6875 48.390625 
Q 23 48.390625 18.546875 47.265625 
Q 14.109375 46.140625 10.015625 43.890625 
L 10.015625 52.203125 
Q 14.9375 54.109375 19.578125 55.046875 
Q 24.21875 56 28.609375 56 
Q 40.484375 56 46.34375 49.84375 
Q 52.203125 43.703125 52.203125 31.203125 
z
" id="DejaVuSans-97"/>
      <path d="M 54.890625 33.015625 
L 54.890625 0 
L 45.90625 0 
L 45.90625 32.71875 
Q 45.90625 40.484375 42.875 44.328125 
Q 39.84375 48.1875 33.796875 48.1875 
Q 26.515625 48.1875 22.3125 43.546875 
Q 18.109375 38.921875 18.109375 30.90625 
L 18.109375 0 
L 9.078125 0 
L 9.078125 54.6875 
L 18.109375 54.6875 
L 18.109375 46.1875 
Q 21.34375 51.125 25.703125 53.5625 
Q 30.078125 56 35.796875 56 
Q 45.21875 56 50.046875 50.171875 
Q 54.890625 44.34375 54.890625 33.015625 
z
" id="DejaVuSans-110"/>
      <path d="M 48.78125 52.59375 
L 48.78125 44.1875 
Q 44.96875 46.296875 41.140625 47.34375 
Q 37.3125 48.390625 33.40625 48.390625 
Q 24.65625 48.390625 19.8125 42.84375 
Q 14.984375 37.3125 14.984375 27.296875 
Q 14.984375 17.28125 19.8125 11.734375 
Q 24.65625 6.203125 33.40625 6.203125 
Q 37.3125 6.203125 41.140625 7.25 
Q 44.96875 8.296875 48.78125 10.40625 
L 48.78125 2.09375 
Q 45.015625 0.34375 40.984375 -0.53125 
Q 36.96875 -1.421875 32.421875 -1.421875 
Q 20.0625 -1.421875 12.78125 6.34375 
Q 5.515625 14.109375 5.515625 27.296875 
Q 5.515625 40.671875 12.859375 48.328125 
Q 20.21875 56 33.015625 56 
Q 37.15625 56 41.109375 55.140625 
Q 45.0625 54.296875 48.78125 52.59375 
z
" id="DejaVuSans-99"/>
      <path d="M 56.203125 29.59375 
L 56.203125 25.203125 
L 14.890625 25.203125 
Q 15.484375 15.921875 20.484375 11.0625 
Q 25.484375 6.203125 34.421875 6.203125 
Q 39.59375 6.203125 44.453125 7.46875 
Q 49.3125 8.734375 54.109375 11.28125 
L 54.109375 2.78125 
Q 49.265625 0.734375 44.1875 -0.34375 
Q 39.109375 -1.421875 33.890625 -1.421875 
Q 20.796875 -1.421875 13.15625 6.1875 
Q 5.515625 13.8125 5.515625 26.8125 
Q 5.515625 40.234375 12.765625 48.109375 
Q 20.015625 56 32.328125 56 
Q 43.359375 56 49.78125 48.890625 
Q 56.203125 41.796875 56.203125 29.59375 
z
M 47.21875 32.234375 
Q 47.125 39.59375 43.09375 43.984375 
Q 39.0625 48.390625 32.421875 48.390625 
Q 24.90625 48.390625 20.390625 44.140625 
Q 15.875 39.890625 15.1875 32.171875 
z
" id="DejaVuSans-101"/>
      <path id="DejaVuSans-32"/>
      <path d="M 37.109375 75.984375 
L 37.109375 68.5 
L 28.515625 68.5 
Q 23.6875 68.5 21.796875 66.546875 
Q 19.921875 64.59375 19.921875 59.515625 
L 19.921875 54.6875 
L 34.71875 54.6875 
L 34.71875 47.703125 
L 19.921875 47.703125 
L 19.921875 0 
L 10.890625 0 
L 10.890625 47.703125 
L 2.296875 47.703125 
L 2.296875 54.6875 
L 10.890625 54.6875 
L 10.890625 58.5 
Q 10.890625 67.625 15.140625 71.796875 
Q 19.390625 75.984375 28.609375 75.984375 
z
" id="DejaVuSans-102"/>
      <path d="M 54.890625 33.015625 
L 54.890625 0 
L 45.90625 0 
L 45.90625 32.71875 
Q 45.90625 40.484375 42.875 44.328125 
Q 39.84375 48.1875 33.796875 48.1875 
Q 26.515625 48.1875 22.3125 43.546875 
Q 18.109375 38.921875 18.109375 30.90625 
L 18.109375 0 
L 9.078125 0 
L 9.078125 75.984375 
L 18.109375 75.984375 
L 18.109375 46.1875 
Q 21.34375 51.125 25.703125 53.5625 
Q 30.078125 56 35.796875 56 
Q 45.21875 56 50.046875 50.171875 
Q 54.890625 44.34375 54.890625 33.015625 
z
" id="DejaVuSans-104"/>
      <path d="M 45.40625 46.390625 
L 45.40625 75.984375 
L 54.390625 75.984375 
L 54.390625 0 
L 45.40625 0 
L 45.40625 8.203125 
Q 42.578125 3.328125 38.25 0.953125 
Q 33.9375 -1.421875 27.875 -1.421875 
Q 17.96875 -1.421875 11.734375 6.484375 
Q 5.515625 14.40625 5.515625 27.296875 
Q 5.515625 40.1875 11.734375 48.09375 
Q 17.96875 56 27.875 56 
Q 33.9375 56 38.25 53.625 
Q 42.578125 51.265625 45.40625 46.390625 
z
M 14.796875 27.296875 
Q 14.796875 17.390625 18.875 11.75 
Q 22.953125 6.109375 30.078125 6.109375 
Q 37.203125 6.109375 41.296875 11.75 
Q 45.40625 17.390625 45.40625 27.296875 
Q 45.40625 37.203125 41.296875 42.84375 
Q 37.203125 48.484375 30.078125 48.484375 
Q 22.953125 48.484375 18.875 42.84375 
Q 14.796875 37.203125 14.796875 27.296875 
z
" id="DejaVuSans-100"/>
      <path d="M 9.421875 54.6875 
L 18.40625 54.6875 
L 18.40625 0 
L 9.421875 0 
z
M 9.421875 75.984375 
L 18.40625 75.984375 
L 18.40625 64.59375 
L 9.421875 64.59375 
z
" id="DejaVuSans-105"/>
      <path d="M 4.203125 54.6875 
L 13.1875 54.6875 
L 24.421875 12.015625 
L 35.59375 54.6875 
L 46.1875 54.6875 
L 57.421875 12.015625 
L 68.609375 54.6875 
L 77.59375 54.6875 
L 63.28125 0 
L 52.6875 0 
L 40.921875 44.828125 
L 29.109375 0 
L 18.5 0 
z
" id="DejaVuSans-119"/>
      <path d="M 9.078125 75.984375 
L 18.109375 75.984375 
L 18.109375 31.109375 
L 44.921875 54.6875 
L 56.390625 54.6875 
L 27.390625 29.109375 
L 57.625 0 
L 45.90625 0 
L 18.109375 26.703125 
L 18.109375 0 
L 9.078125 0 
z
" id="DejaVuSans-107"/>
     </defs>
     <use xlink:href="#DejaVuSans-73"/>
     <use x="29.492188" xlink:href="#DejaVuSans-109"/>
     <use x="126.904297" xlink:href="#DejaVuSans-112"/>
     <use x="190.380859" xlink:href="#DejaVuSans-111"/>
     <use x="251.5625" xlink:href="#DejaVuSans-114"/>
     <use x="292.675781" xlink:href="#DejaVuSans-116"/>
     <use x="331.884766" xlink:href="#DejaVuSans-97"/>
     <use x="393.164062" xlink:href="#DejaVuSans-110"/>
     <use x="456.542969" xlink:href="#DejaVuSans-99"/>
     <use x="511.523438" xlink:href="#DejaVuSans-101"/>
     <use x="573.046875" xlink:href="#DejaVuSans-32"/>
     <use x="604.833984" xlink:href="#DejaVuSans-83"/>
     <use x="668.310547" xlink:href="#DejaVuSans-99"/>
     <use x="723.291016" xlink:href="#DejaVuSans-111"/>
     <use x="784.472656" xlink:href="#DejaVuSans-114"/>
     <use x="823.335938" xlink:href="#DejaVuSans-101"/>
     <use x="884.859375" xlink:href="#DejaVuSans-32"/>
     <use x="916.646484" xlink:href="#DejaVuSans-102"/>
     <use x="951.851562" xlink:href="#DejaVuSans-111"/>
     <use x="1013.033203" xlink:href="#DejaVuSans-114"/>
     <use x="1054.146484" xlink:href="#DejaVuSans-32"/>
     <use x="1085.933594" xlink:href="#DejaVuSans-69"/>
     <use x="1149.117188" xlink:href="#DejaVuSans-97"/>
     <use x="1210.396484" xlink:href="#DejaVuSans-99"/>
     <use x="1265.376953" xlink:href="#DejaVuSans-104"/>
     <use x="1328.755859" xlink:href="#DejaVuSans-32"/>
     <use x="1360.542969" xlink:href="#DejaVuSans-78"/>
     <use x="1435.347656" xlink:href="#DejaVuSans-111"/>
     <use x="1496.529297" xlink:href="#DejaVuSans-100"/>
     <use x="1560.005859" xlink:href="#DejaVuSans-101"/>
     <use x="1621.529297" xlink:href="#DejaVuSans-32"/>
     <use x="1653.316406" xlink:href="#DejaVuSans-105"/>
     <use x="1681.099609" xlink:href="#DejaVuSans-110"/>
     <use x="1744.478516" xlink:href="#DejaVuSans-32"/>
     <use x="1776.265625" xlink:href="#DejaVuSans-116"/>
     <use x="1815.474609" xlink:href="#DejaVuSans-104"/>
     <use x="1878.853516" xlink:href="#DejaVuSans-101"/>
     <use x="1940.376953" xlink:href="#DejaVuSans-32"/>
     <use x="1972.164062" xlink:href="#DejaVuSans-78"/>
     <use x="2046.96875" xlink:href="#DejaVuSans-101"/>
     <use x="2108.492188" xlink:href="#DejaVuSans-116"/>
     <use x="2147.701172" xlink:href="#DejaVuSans-119"/>
     <use x="2229.488281" xlink:href="#DejaVuSans-111"/>
     <use x="2290.669922" xlink:href="#DejaVuSans-114"/>
     <use x="2331.783203" xlink:href="#DejaVuSans-107"/>
    </g>
   </g>
  </g>
 </g>
 <defs>
  <clipPath id="pf5ed1f57be">
   <rect height="443.52" width="669.6" x="7.2" y="22.318125"/>
  </clipPath>
 </defs>
</svg>
