<?xml version="1.0" encoding="utf-8" standalone="no"?>
<!DOCTYPE svg PUBLIC "-//W3C//DTD SVG 1.1//EN"
  "http://www.w3.org/Graphics/SVG/1.1/DTD/svg11.dtd">
<!-- Created with matplotlib (https://matplotlib.org/) -->
<svg height="473.038125pt" version="1.1" viewBox="0 0 684 473.038125" width="684pt" xmlns="http://www.w3.org/2000/svg" xmlns:xlink="http://www.w3.org/1999/xlink">
 <metadata>
  <rdf:RDF xmlns:cc="http://creativecommons.org/ns#" xmlns:dc="http://purl.org/dc/elements/1.1/" xmlns:rdf="http://www.w3.org/1999/02/22-rdf-syntax-ns#">
   <cc:Work>
    <dc:type rdf:resource="http://purl.org/dc/dcmitype/StillImage"/>
    <dc:date>2024-04-26T10:46:15.220566</dc:date>
    <dc:format>image/svg+xml</dc:format>
    <dc:creator>
     <cc:Agent>
      <dc:title>Matplotlib v3.3.1, https://matplotlib.org/</dc:title>
     </cc:Agent>
    </dc:creator>
   </cc:Work>
  </rdf:RDF>
 </metadata>
 <defs>
  <style type="text/css">*{stroke-linecap:butt;stroke-linejoin:round;}</style>
 </defs>
 <g id="figure_1">
  <g id="patch_1">
   <path d="M 0 473.038125 
L 684 473.038125 
L 684 0 
L 0 0 
z
" style="fill:#ffffff;"/>
  </g>
  <g id="axes_1">
   <g id="patch_2">
    <path clip-path="url(#pd6cb473e3f)" d="M 379.188025 146.999637 
Q 330.409486 135.107055 282.717164 123.479301 
" style="fill:none;stroke:#808080;stroke-linecap:round;"/>
    <path clip-path="url(#pd6cb473e3f)" d="M 286.129592 126.369861 
L 282.717164 123.479301 
L 287.077069 122.483695 
L 286.129592 126.369861 
z
" style="fill:#808080;stroke:#808080;stroke-linecap:round;"/>
   </g>
   <g id="patch_3">
    <path clip-path="url(#pd6cb473e3f)" d="M 384.56444 157.164566 
Q 374.392967 184.311794 364.613767 210.412062 
" style="fill:none;stroke:#808080;stroke-linecap:round;"/>
    <path clip-path="url(#pd6cb473e3f)" d="M 367.89006 207.368068 
L 364.613767 210.412062 
L 364.144347 205.964631 
L 367.89006 207.368068 
z
" style="fill:#808080;stroke:#808080;stroke-linecap:round;"/>
   </g>
   <g id="patch_4">
    <path clip-path="url(#pd6cb473e3f)" d="M 379.524758 152.176273 
Q 306.961004 180.240137 235.440015 207.900713 
" style="fill:none;stroke:#808080;stroke-linecap:round;"/>
    <path clip-path="url(#pd6cb473e3f)" d="M 239.892148 208.323225 
L 235.440015 207.900713 
L 238.449304 204.592514 
L 239.892148 208.323225 
z
" style="fill:#808080;stroke:#808080;stroke-linecap:round;"/>
   </g>
   <g id="patch_5">
    <path clip-path="url(#pd6cb473e3f)" d="M 271.920619 227.621678 
Q 437.097175 247.455613 601.163671 267.156256 
" style="fill:none;stroke:#808080;stroke-linecap:round;"/>
    <path clip-path="url(#pd6cb473e3f)" d="M 597.430641 264.693638 
L 601.163671 267.156256 
L 596.953758 268.665109 
L 597.430641 264.693638 
z
" style="fill:#808080;stroke:#808080;stroke-linecap:round;"/>
   </g>
   <g id="patch_6">
    <path clip-path="url(#pd6cb473e3f)" d="M 267.492282 218.998313 
Q 296.317104 166.537575 324.603534 115.056701 
" style="fill:none;stroke:#808080;stroke-linecap:round;"/>
    <path clip-path="url(#pd6cb473e3f)" d="M 320.924491 117.599267 
L 324.603534 115.056701 
L 324.430161 119.525475 
L 320.924491 117.599267 
z
" style="fill:#808080;stroke:#808080;stroke-linecap:round;"/>
   </g>
   <g id="patch_7">
    <path clip-path="url(#pd6cb473e3f)" d="M 261.578059 218.108756 
Q 256.914425 195.423813 252.47593 173.834 
" style="fill:none;stroke:#808080;stroke-linecap:round;"/>
    <path clip-path="url(#pd6cb473e3f)" d="M 251.322386 178.154803 
L 252.47593 173.834 
L 255.240446 177.349317 
L 251.322386 178.154803 
z
" style="fill:#808080;stroke:#808080;stroke-linecap:round;"/>
   </g>
   <g id="patch_8">
    <path clip-path="url(#pd6cb473e3f)" d="M 380.609594 314.500788 
Q 328.846117 347.370691 278.026464 379.641264 
" style="fill:none;stroke:#808080;stroke-linecap:round;"/>
    <path clip-path="url(#pd6cb473e3f)" d="M 282.475306 379.185399 
L 278.026464 379.641264 
L 280.331078 375.808672 
L 282.475306 379.185399 
z
" style="fill:#808080;stroke:#808080;stroke-linecap:round;"/>
   </g>
   <g id="patch_9">
    <path clip-path="url(#pd6cb473e3f)" d="M 379.424782 311.538264 
Q 284.345607 330.32631 190.363257 348.897618 
" style="fill:none;stroke:#808080;stroke-linecap:round;"/>
    <path clip-path="url(#pd6cb473e3f)" d="M 194.675089 350.084256 
L 190.363257 348.897618 
L 193.899666 346.160135 
L 194.675089 350.084256 
z
" style="fill:#808080;stroke:#808080;stroke-linecap:round;"/>
   </g>
   <g id="patch_10">
    <path clip-path="url(#pd6cb473e3f)" d="M 396.569873 309.438903 
Q 463.764782 306.168607 529.842978 302.952661 
" style="fill:none;stroke:#808080;stroke-linecap:round;"/>
    <path clip-path="url(#pd6cb473e3f)" d="M 525.750484 301.14947 
L 529.842978 302.952661 
L 525.944929 305.144741 
L 525.750484 301.14947 
z
" style="fill:#808080;stroke:#808080;stroke-linecap:round;"/>
   </g>
   <g id="patch_11">
    <path clip-path="url(#pd6cb473e3f)" d="M 392.723758 302.65243 
Q 449.892976 216.912793 506.441949 132.10337 
" style="fill:none;stroke:#808080;stroke-linecap:round;"/>
    <path clip-path="url(#pd6cb473e3f)" d="M 502.558878 134.321874 
L 506.441949 132.10337 
L 505.88691 136.540929 
L 502.558878 134.321874 
z
" style="fill:#808080;stroke:#808080;stroke-linecap:round;"/>
   </g>
   <g id="patch_12">
    <path clip-path="url(#pd6cb473e3f)" d="M 445.841581 131.710975 
Q 391.81103 120.014513 338.873202 108.554602 
" style="fill:none;stroke:#808080;stroke-linecap:round;"/>
    <path clip-path="url(#pd6cb473e3f)" d="M 342.359491 111.355635 
L 338.873202 108.554602 
L 343.205803 107.446191 
L 342.359491 111.355635 
z
" style="fill:#808080;stroke:#808080;stroke-linecap:round;"/>
   </g>
   <g id="patch_13">
    <path clip-path="url(#pd6cb473e3f)" d="M 445.744812 134.833448 
Q 352.408208 148.898986 260.177155 162.797922 
" style="fill:none;stroke:#808080;stroke-linecap:round;"/>
    <path clip-path="url(#pd6cb473e3f)" d="M 264.430524 164.179534 
L 260.177155 162.797922 
L 263.834467 160.224194 
L 264.430524 164.179534 
z
" style="fill:#808080;stroke:#808080;stroke-linecap:round;"/>
   </g>
   <g id="patch_14">
    <path clip-path="url(#pd6cb473e3f)" d="M 474.426272 103.854895 
Q 350.133562 92.826169 226.95451 81.89626 
" style="fill:none;stroke:#808080;stroke-linecap:round;"/>
    <path clip-path="url(#pd6cb473e3f)" d="M 230.762086 84.241971 
L 226.95451 81.89626 
L 231.115624 80.257626 
L 230.762086 84.241971 
z
" style="fill:#808080;stroke:#808080;stroke-linecap:round;"/>
   </g>
   <g id="patch_15">
    <path clip-path="url(#pd6cb473e3f)" d="M 474.713059 102.287057 
Q 421.134264 87.298412 368.632166 72.610973 
" style="fill:none;stroke:#808080;stroke-linecap:round;"/>
    <path clip-path="url(#pd6cb473e3f)" d="M 371.94546 75.614652 
L 368.632166 72.610973 
L 373.023085 71.762545 
L 371.94546 75.614652 
z
" style="fill:#808080;stroke:#808080;stroke-linecap:round;"/>
   </g>
   <g id="patch_16">
    <path clip-path="url(#pd6cb473e3f)" d="M 363.280234 231.574041 
Q 482.79389 249.312446 601.201626 266.886708 
" style="fill:none;stroke:#808080;stroke-linecap:round;"/>
    <path clip-path="url(#pd6cb473e3f)" d="M 597.538595 264.321127 
L 601.201626 266.886708 
L 596.951342 268.277783 
L 597.538595 264.321127 
z
" style="fill:#808080;stroke:#808080;stroke-linecap:round;"/>
   </g>
   <g id="patch_17">
    <path clip-path="url(#pd6cb473e3f)" d="M 327.163422 230.591713 
Q 336.609544 230.492728 344.937694 230.405459 
" style="fill:none;stroke:#808080;stroke-linecap:round;"/>
    <path clip-path="url(#pd6cb473e3f)" d="M 340.916957 228.447482 
L 344.937694 230.405459 
L 340.95887 232.447262 
L 340.916957 228.447482 
z
" style="fill:#808080;stroke:#808080;stroke-linecap:round;"/>
   </g>
   <g id="patch_18">
    <path clip-path="url(#pd6cb473e3f)" d="M 309.864596 230.041624 
Q 290.912421 228.635777 273.075217 227.312637 
" style="fill:none;stroke:#808080;stroke-linecap:round;"/>
    <path clip-path="url(#pd6cb473e3f)" d="M 276.916307 229.603059 
L 273.075217 227.312637 
L 277.212209 225.614018 
L 276.916307 229.603059 
z
" style="fill:#808080;stroke:#808080;stroke-linecap:round;"/>
   </g>
   <g id="patch_19">
    <path clip-path="url(#pd6cb473e3f)" d="M 325.134472 225.116079 
Q 395.964233 165.656581 465.937686 106.915927 
" style="fill:none;stroke:#808080;stroke-linecap:round;"/>
    <path clip-path="url(#pd6cb473e3f)" d="M 461.588159 107.955935 
L 465.937686 106.915927 
L 464.159976 111.019553 
L 461.588159 107.955935 
z
" style="fill:#808080;stroke:#808080;stroke-linecap:round;"/>
   </g>
   <g id="patch_20">
    <path clip-path="url(#pd6cb473e3f)" d="M 326.332466 234.384398 
Q 434.74202 285.647022 542.140841 336.43171 
" style="fill:none;stroke:#808080;stroke-linecap:round;"/>
    <path clip-path="url(#pd6cb473e3f)" d="M 539.379695 332.913746 
L 542.140841 336.43171 
L 537.669782 336.529849 
L 539.379695 332.913746 
z
" style="fill:#808080;stroke:#808080;stroke-linecap:round;"/>
   </g>
   <g id="patch_21">
    <path clip-path="url(#pd6cb473e3f)" d="M 281.142291 194.950732 
Q 314.024778 210.750714 345.899527 226.066479 
" style="fill:none;stroke:#808080;stroke-linecap:round;"/>
    <path clip-path="url(#pd6cb473e3f)" d="M 343.160328 222.531399 
L 345.899527 226.066479 
L 341.427944 226.13679 
L 343.160328 222.531399 
z
" style="fill:#808080;stroke:#808080;stroke-linecap:round;"/>
   </g>
   <g id="patch_22">
    <path clip-path="url(#pd6cb473e3f)" d="M 270.978304 199.533289 
Q 268.328978 208.89483 265.9841 217.180587 
" style="fill:none;stroke:#808080;stroke-linecap:round;"/>
    <path clip-path="url(#pd6cb473e3f)" d="M 268.997747 213.876358 
L 265.9841 217.180587 
L 265.148905 212.787132 
L 268.997747 213.876358 
z
" style="fill:#808080;stroke:#808080;stroke-linecap:round;"/>
   </g>
   <g id="patch_23">
    <path clip-path="url(#pd6cb473e3f)" d="M 281.228927 187.627651 
Q 373.381579 145.914762 464.515684 104.662917 
" style="fill:none;stroke:#808080;stroke-linecap:round;"/>
    <path clip-path="url(#pd6cb473e3f)" d="M 460.046878 104.49037 
L 464.515684 104.662917 
L 461.696363 108.134434 
L 460.046878 104.49037 
z
" style="fill:#808080;stroke:#808080;stroke-linecap:round;"/>
   </g>
   <g id="patch_24">
    <path clip-path="url(#pd6cb473e3f)" d="M 280.966467 195.306059 
Q 412.158767 265.906097 542.366539 335.976319 
" style="fill:none;stroke:#808080;stroke-linecap:round;"/>
    <path clip-path="url(#pd6cb473e3f)" d="M 539.791948 332.319616 
L 542.366539 335.976319 
L 537.896422 335.841971 
L 539.791948 332.319616 
z
" style="fill:#808080;stroke:#808080;stroke-linecap:round;"/>
   </g>
   <g id="patch_25">
    <path clip-path="url(#pd6cb473e3f)" d="M 458.38965 184.968788 
Q 369.897306 154.476494 282.462003 124.34843 
" style="fill:none;stroke:#808080;stroke-linecap:round;"/>
    <path clip-path="url(#pd6cb473e3f)" d="M 285.592234 127.542434 
L 282.462003 124.34843 
L 286.895344 123.760648 
L 285.592234 127.542434 
z
" style="fill:#808080;stroke:#808080;stroke-linecap:round;"/>
   </g>
   <g id="patch_26">
    <path clip-path="url(#pd6cb473e3f)" d="M 330.075763 377.659948 
Q 357.783534 267.553911 385.218462 158.532104 
" style="fill:none;stroke:#808080;stroke-linecap:round;"/>
    <path clip-path="url(#pd6cb473e3f)" d="M 382.302779 161.923091 
L 385.218462 158.532104 
L 386.181842 162.899243 
L 382.302779 161.923091 
z
" style="fill:#808080;stroke:#808080;stroke-linecap:round;"/>
   </g>
   <g id="patch_27">
    <path clip-path="url(#pd6cb473e3f)" d="M 437.161543 229.200152 
Q 519.793101 247.809845 601.333943 266.173894 
" style="fill:none;stroke:#808080;stroke-linecap:round;"/>
    <path clip-path="url(#pd6cb473e3f)" d="M 597.871102 263.343924 
L 601.333943 266.173894 
L 596.992263 267.246185 
L 597.871102 263.343924 
z
" style="fill:#808080;stroke:#808080;stroke-linecap:round;"/>
   </g>
   <g id="patch_28">
    <path clip-path="url(#pd6cb473e3f)" d="M 433.205245 234.700877 
Q 476.849239 306.650946 519.913385 377.645098 
" style="fill:none;stroke:#808080;stroke-linecap:round;"/>
    <path clip-path="url(#pd6cb473e3f)" d="M 519.548858 373.187843 
L 519.913385 377.645098 
L 516.128865 375.262367 
L 519.548858 373.187843 
z
" style="fill:#808080;stroke:#808080;stroke-linecap:round;"/>
   </g>
   <g id="patch_29">
    <path clip-path="url(#pd6cb473e3f)" d="M 423.214916 220.613428 
Q 379.016545 166.894598 335.528526 114.039133 
" style="fill:none;stroke:#808080;stroke-linecap:round;"/>
    <path clip-path="url(#pd6cb473e3f)" d="M 336.525527 118.398719 
L 335.528526 114.039133 
L 339.614395 115.857283 
L 336.525527 118.398719 
z
" style="fill:#808080;stroke:#808080;stroke-linecap:round;"/>
   </g>
   <g id="patch_30">
    <path clip-path="url(#pd6cb473e3f)" d="M 420.548763 224.409053 
Q 339.610391 195.776417 259.726044 167.516651 
" style="fill:none;stroke:#808080;stroke-linecap:round;"/>
    <path clip-path="url(#pd6cb473e3f)" d="M 262.830026 170.736168 
L 259.726044 167.516651 
L 264.164047 166.965175 
L 262.830026 170.736168 
z
" style="fill:#808080;stroke:#808080;stroke-linecap:round;"/>
   </g>
   <g id="patch_31">
    <path clip-path="url(#pd6cb473e3f)" d="M 352.939587 216.905875 
Q 317.259385 205.383859 282.64312 194.205415 
" style="fill:none;stroke:#808080;stroke-linecap:round;"/>
    <path clip-path="url(#pd6cb473e3f)" d="M 285.834973 197.337838 
L 282.64312 194.205415 
L 287.06417 193.531386 
L 285.834973 197.337838 
z
" style="fill:#808080;stroke:#808080;stroke-linecap:round;"/>
   </g>
   <g id="patch_32">
    <path clip-path="url(#pd6cb473e3f)" d="M 352.803109 221.750291 
Q 339.842419 225.125477 327.963677 228.218905 
" style="fill:none;stroke:#808080;stroke-linecap:round;"/>
    <path clip-path="url(#pd6cb473e3f)" d="M 332.338598 229.146305 
L 327.963677 228.218905 
L 331.33055 225.275409 
L 332.338598 229.146305 
z
" style="fill:#808080;stroke:#808080;stroke-linecap:round;"/>
   </g>
   <g id="patch_33">
    <path clip-path="url(#pd6cb473e3f)" d="M 363.983575 227.762465 
Q 395.332666 319.498437 426.320216 410.176446 
" style="fill:none;stroke:#808080;stroke-linecap:round;"/>
    <path clip-path="url(#pd6cb473e3f)" d="M 426.919276 405.744614 
L 426.320216 410.176446 
L 423.134187 407.038099 
L 426.919276 405.744614 
z
" style="fill:#808080;stroke:#808080;stroke-linecap:round;"/>
   </g>
   <g id="patch_34">
    <path clip-path="url(#pd6cb473e3f)" d="M 361.297906 228.226635 
Q 362.558903 323.457512 363.805097 417.570454 
" style="fill:none;stroke:#808080;stroke-linecap:round;"/>
    <path clip-path="url(#pd6cb473e3f)" d="M 365.75196 413.544324 
L 363.805097 417.570454 
L 361.752311 413.597285 
L 365.75196 413.544324 
z
" style="fill:#808080;stroke:#808080;stroke-linecap:round;"/>
   </g>
   <g id="patch_35">
    <path clip-path="url(#pd6cb473e3f)" d="M 273.234037 129.819947 
Q 273.278086 156.181124 273.320267 181.424269 
" style="fill:none;stroke:#808080;stroke-linecap:round;"/>
    <path clip-path="url(#pd6cb473e3f)" d="M 275.31358 177.420932 
L 273.320267 181.424269 
L 271.313586 177.427616 
L 275.31358 177.420932 
z
" style="fill:#808080;stroke:#808080;stroke-linecap:round;"/>
   </g>
   <g id="patch_36">
    <path clip-path="url(#pd6cb473e3f)" d="M 276.529367 129.168396 
Q 295.862158 175.924407 314.76774 221.647223 
" style="fill:none;stroke:#808080;stroke-linecap:round;"/>
    <path clip-path="url(#pd6cb473e3f)" d="M 315.087549 217.186537 
L 314.76774 221.647223 
L 311.391077 218.714964 
L 315.087549 217.186537 
z
" style="fill:#808080;stroke:#808080;stroke-linecap:round;"/>
   </g>
   <g id="patch_37">
    <path clip-path="url(#pd6cb473e3f)" d="M 281.730449 122.773567 
Q 445.958894 153.837765 609.088786 184.694168 
" style="fill:none;stroke:#808080;stroke-linecap:round;"/>
    <path clip-path="url(#pd6cb473e3f)" d="M 605.530192 181.985587 
L 609.088786 184.694168 
L 604.786765 185.915895 
L 605.530192 181.985587 
z
" style="fill:#808080;stroke:#808080;stroke-linecap:round;"/>
   </g>
   <g id="patch_38">
    <path clip-path="url(#pd6cb473e3f)" d="M 372.878574 69.410111 
Q 364.283317 145.552881 355.813471 220.584674 
" style="fill:none;stroke:#808080;stroke-linecap:round;"/>
    <path clip-path="url(#pd6cb473e3f)" d="M 358.249533 216.83426 
L 355.813471 220.584674 
L 354.274777 216.385576 
L 358.249533 216.83426 
z
" style="fill:#808080;stroke:#808080;stroke-linecap:round;"/>
   </g>
   <g id="patch_39">
    <path clip-path="url(#pd6cb473e3f)" d="M 369.04498 68.012396 
Q 318.584495 143.69905 268.744206 218.455458 
" style="fill:none;stroke:#808080;stroke-linecap:round;"/>
    <path clip-path="url(#pd6cb473e3f)" d="M 272.627163 216.236754 
L 268.744206 218.455458 
L 269.299017 214.017871 
L 272.627163 216.236754 
z
" style="fill:#808080;stroke:#808080;stroke-linecap:round;"/>
   </g>
   <g id="patch_40">
    <path clip-path="url(#pd6cb473e3f)" d="M 381.893673 64.022399 
Q 423.638869 80.717848 464.345975 96.998126 
" style="fill:none;stroke:#808080;stroke-linecap:round;"/>
    <path clip-path="url(#pd6cb473e3f)" d="M 461.374668 93.655771 
L 464.345975 96.998126 
L 459.889307 97.369759 
L 461.374668 93.655771 
z
" style="fill:#808080;stroke:#808080;stroke-linecap:round;"/>
   </g>
   <g id="patch_41">
    <path clip-path="url(#pd6cb473e3f)" d="M 508.65372 190.032335 
Q 435.873159 209.072042 364.174234 227.828788 
" style="fill:none;stroke:#808080;stroke-linecap:round;"/>
    <path clip-path="url(#pd6cb473e3f)" d="M 368.550182 228.751325 
L 364.174234 227.828788 
L 367.537833 224.881551 
L 368.550182 228.751325 
z
" style="fill:#808080;stroke:#808080;stroke-linecap:round;"/>
   </g>
   <g id="patch_42">
    <path clip-path="url(#pd6cb473e3f)" d="M 508.473059 189.147669 
Q 390.178517 207.214527 272.989193 225.112588 
" style="fill:none;stroke:#808080;stroke-linecap:round;"/>
    <path clip-path="url(#pd6cb473e3f)" d="M 277.245297 226.485754 
L 272.989193 225.112588 
L 276.641388 222.531605 
L 277.245297 226.485754 
z
" style="fill:#808080;stroke:#808080;stroke-linecap:round;"/>
   </g>
   <g id="patch_43">
    <path clip-path="url(#pd6cb473e3f)" d="M 513.158705 180.09288 
Q 495.229447 144.235225 477.800199 109.377565 
" style="fill:none;stroke:#808080;stroke-linecap:round;"/>
    <path clip-path="url(#pd6cb473e3f)" d="M 477.800242 113.849701 
L 477.800199 109.377565 
L 481.377933 112.060813 
L 477.800242 113.849701 
z
" style="fill:#808080;stroke:#808080;stroke-linecap:round;"/>
   </g>
   <g id="patch_44">
    <path clip-path="url(#pd6cb473e3f)" d="M 304.876753 148.12931 
Q 212.306944 251.951525 120.481188 354.939242 
" style="fill:none;stroke:#808080;stroke-linecap:round;"/>
    <path clip-path="url(#pd6cb473e3f)" d="M 124.635987 353.284657 
L 120.481188 354.939242 
L 121.650399 350.622653 
L 124.635987 353.284657 
z
" style="fill:#808080;stroke:#808080;stroke-linecap:round;"/>
   </g>
   <g id="patch_45">
    <path clip-path="url(#pd6cb473e3f)" d="M 319.258086 142.489868 
Q 462.850125 156.256518 605.329233 169.916467 
" style="fill:none;stroke:#808080;stroke-linecap:round;"/>
    <path clip-path="url(#pd6cb473e3f)" d="M 601.538363 167.543853 
L 605.329233 169.916467 
L 601.15662 171.525595 
L 601.538363 167.543853 
z
" style="fill:#808080;stroke:#808080;stroke-linecap:round;"/>
   </g>
   <g id="patch_46">
    <path clip-path="url(#pd6cb473e3f)" d="M 229.956049 81.047031 
Q 228.258909 141.910301 226.592933 201.655971 
" style="fill:none;stroke:#808080;stroke-linecap:round;"/>
    <path clip-path="url(#pd6cb473e3f)" d="M 228.703651 197.713273 
L 226.592933 201.655971 
L 224.705205 197.601778 
L 228.703651 197.713273 
z
" style="fill:#808080;stroke:#808080;stroke-linecap:round;"/>
   </g>
   <g id="patch_47">
    <path clip-path="url(#pd6cb473e3f)" d="M 523.942685 105.004302 
Q 353.522236 116.693687 184.2172 128.306564 
" style="fill:none;stroke:#808080;stroke-linecap:round;"/>
    <path clip-path="url(#pd6cb473e3f)" d="M 188.344685 130.028153 
L 184.2172 128.306564 
L 188.070962 126.037529 
L 188.344685 130.028153 
z
" style="fill:#808080;stroke:#808080;stroke-linecap:round;"/>
   </g>
   <g id="patch_48">
    <path clip-path="url(#pd6cb473e3f)" d="M 540.710287 101.413906 
Q 545.186292 99.762625 548.613367 98.498314 
" style="fill:none;stroke:#808080;stroke-linecap:round;"/>
    <path clip-path="url(#pd6cb473e3f)" d="M 544.168368 98.006396 
L 548.613367 98.498314 
L 545.552833 101.759162 
L 544.168368 98.006396 
z
" style="fill:#808080;stroke:#808080;stroke-linecap:round;"/>
   </g>
   <g id="patch_49">
    <path clip-path="url(#pd6cb473e3f)" d="M 610.035228 186.624283 
Q 567.863591 187.175724 526.809893 187.712546 
" style="fill:none;stroke:#808080;stroke-linecap:round;"/>
    <path clip-path="url(#pd6cb473e3f)" d="M 530.835701 189.660075 
L 526.809893 187.712546 
L 530.783401 185.660417 
L 530.835701 189.660075 
z
" style="fill:#808080;stroke:#808080;stroke-linecap:round;"/>
   </g>
   <g id="patch_50">
    <path clip-path="url(#pd6cb473e3f)" d="M 610.98679 182.553984 
Q 496.270157 123.657251 382.548131 65.27116 
" style="fill:none;stroke:#808080;stroke-linecap:round;"/>
    <path clip-path="url(#pd6cb473e3f)" d="M 385.193083 68.877297 
L 382.548131 65.27116 
L 387.020012 65.31888 
L 385.193083 68.877297 
z
" style="fill:#808080;stroke:#808080;stroke-linecap:round;"/>
   </g>
   <g id="patch_51">
    <path clip-path="url(#pd6cb473e3f)" d="M 217.686947 210.732003 
Q 145.814173 204.940568 75.055822 199.238932 
" style="fill:none;stroke:#808080;stroke-linecap:round;"/>
    <path clip-path="url(#pd6cb473e3f)" d="M 78.882261 201.553745 
L 75.055822 199.238932 
L 79.203536 197.566668 
L 78.882261 201.553745 
z
" style="fill:#808080;stroke:#808080;stroke-linecap:round;"/>
   </g>
   <g id="patch_52">
    <path clip-path="url(#pd6cb473e3f)" d="M 230.676994 218.912806 
Q 277.140904 298.744087 323.042411 377.609085 
" style="fill:none;stroke:#808080;stroke-linecap:round;"/>
    <path clip-path="url(#pd6cb473e3f)" d="M 322.758839 373.145948 
L 323.042411 377.609085 
L 319.301759 375.15806 
L 322.758839 373.145948 
z
" style="fill:#808080;stroke:#808080;stroke-linecap:round;"/>
   </g>
   <g id="patch_53">
    <path clip-path="url(#pd6cb473e3f)" d="M 234.337643 214.712783 
Q 244.8227 219.009111 254.273206 222.881523 
" style="fill:none;stroke:#808080;stroke-linecap:round;"/>
    <path clip-path="url(#pd6cb473e3f)" d="M 251.330205 219.514218 
L 254.273206 222.881523 
L 249.813561 223.215541 
L 251.330205 219.514218 
z
" style="fill:#808080;stroke:#808080;stroke-linecap:round;"/>
   </g>
   <g id="patch_54">
    <path clip-path="url(#pd6cb473e3f)" d="M 319.578323 340.77042 
Q 398.85045 226.257362 477.486215 112.663567 
" style="fill:none;stroke:#808080;stroke-linecap:round;"/>
    <path clip-path="url(#pd6cb473e3f)" d="M 473.565069 114.814058 
L 477.486215 112.663567 
L 476.85392 117.090778 
L 473.565069 114.814058 
z
" style="fill:#808080;stroke:#808080;stroke-linecap:round;"/>
   </g>
   <g id="patch_55">
    <path clip-path="url(#pd6cb473e3f)" d="M 590.961893 271.762379 
Q 539.356784 191.82954 488.358087 112.835991 
" style="fill:none;stroke:#808080;stroke-linecap:round;"/>
    <path clip-path="url(#pd6cb473e3f)" d="M 488.847396 117.281278 
L 488.358087 112.835991 
L 492.207902 115.111715 
L 488.847396 117.281278 
z
" style="fill:#808080;stroke:#808080;stroke-linecap:round;"/>
   </g>
   <g id="patch_56">
    <path clip-path="url(#pd6cb473e3f)" d="M 431.493532 268.593971 
Q 471.113544 231.190486 509.920572 194.554503 
" style="fill:none;stroke:#808080;stroke-linecap:round;"/>
    <path clip-path="url(#pd6cb473e3f)" d="M 505.639007 195.84609 
L 509.920572 194.554503 
L 508.384903 198.754707 
L 505.639007 195.84609 
z
" style="fill:#808080;stroke:#808080;stroke-linecap:round;"/>
   </g>
   <g id="patch_57">
    <path clip-path="url(#pd6cb473e3f)" d="M 423.173865 266.121703 
Q 399.523034 167.672572 376.133363 70.310546 
" style="fill:none;stroke:#808080;stroke-linecap:round;"/>
    <path clip-path="url(#pd6cb473e3f)" d="M 375.123044 74.667064 
L 376.133363 70.310546 
L 379.012387 73.732712 
L 375.123044 74.667064 
z
" style="fill:#808080;stroke:#808080;stroke-linecap:round;"/>
   </g>
   <g id="patch_58">
    <path clip-path="url(#pd6cb473e3f)" d="M 95.343609 259.70693 
Q 124.254723 310.568524 152.613338 360.458138 
" style="fill:none;stroke:#808080;stroke-linecap:round;"/>
    <path clip-path="url(#pd6cb473e3f)" d="M 152.375385 355.992337 
L 152.613338 360.458138 
L 148.897926 357.96902 
L 152.375385 355.992337 
z
" style="fill:#808080;stroke:#808080;stroke-linecap:round;"/>
   </g>
   <g id="patch_59">
    <path clip-path="url(#pd6cb473e3f)" d="M 99.281913 307.034352 
Q 125.399318 334.841165 150.751296 361.833041 
" style="fill:none;stroke:#808080;stroke-linecap:round;"/>
    <path clip-path="url(#pd6cb473e3f)" d="M 149.47063 357.548196 
L 150.751296 361.833041 
L 146.555021 360.286667 
L 149.47063 357.548196 
z
" style="fill:#808080;stroke:#808080;stroke-linecap:round;"/>
   </g>
   <g id="patch_60">
    <path clip-path="url(#pd6cb473e3f)" d="M 278.426921 385.235364 
Q 376.578174 389.241669 473.612324 393.202377 
" style="fill:none;stroke:#808080;stroke-linecap:round;"/>
    <path clip-path="url(#pd6cb473e3f)" d="M 469.69722 391.040907 
L 473.612324 393.202377 
L 469.534085 395.037579 
L 469.69722 391.040907 
z
" style="fill:#808080;stroke:#808080;stroke-linecap:round;"/>
   </g>
   <g id="patch_61">
    <path clip-path="url(#pd6cb473e3f)" d="M 189.344598 352.006295 
Q 332.076732 372.197298 473.701853 392.231702 
" style="fill:none;stroke:#808080;stroke-linecap:round;"/>
    <path clip-path="url(#pd6cb473e3f)" d="M 470.021417 389.691152 
L 473.701853 392.231702 
L 469.461152 393.651721 
L 470.021417 389.691152 
z
" style="fill:#808080;stroke:#808080;stroke-linecap:round;"/>
   </g>
   <g id="patch_62">
    <path clip-path="url(#pd6cb473e3f)" d="M 335.682482 112.355709 
Q 456.845493 224.033885 577.186412 334.954323 
" style="fill:none;stroke:#808080;stroke-linecap:round;"/>
    <path clip-path="url(#pd6cb473e3f)" d="M 575.600689 330.772759 
L 577.186412 334.954323 
L 572.889727 333.713963 
L 575.600689 330.772759 
z
" style="fill:#808080;stroke:#808080;stroke-linecap:round;"/>
   </g>
   <g id="patch_63">
    <path clip-path="url(#pd6cb473e3f)" d="M 337.546068 103.800666 
Q 394.631457 85.187257 450.653889 66.920439 
" style="fill:none;stroke:#808080;stroke-linecap:round;"/>
    <path clip-path="url(#pd6cb473e3f)" d="M 446.230943 66.258964 
L 450.653889 66.920439 
L 447.470942 70.061911 
L 446.230943 66.258964 
z
" style="fill:#808080;stroke:#808080;stroke-linecap:round;"/>
   </g>
   <g id="patch_64">
    <path clip-path="url(#pd6cb473e3f)" d="M 258.156051 168.317999 
Q 417.442899 252.91939 575.742343 336.996345 
" style="fill:none;stroke:#808080;stroke-linecap:round;"/>
    <path clip-path="url(#pd6cb473e3f)" d="M 573.147839 333.353744 
L 575.742343 336.996345 
L 571.271559 336.886388 
L 573.147839 333.353744 
z
" style="fill:#808080;stroke:#808080;stroke-linecap:round;"/>
   </g>
   <g id="patch_65">
    <path clip-path="url(#pd6cb473e3f)" d="M 258.314306 160.513821 
Q 355.228096 114.072691 451.133638 68.114714 
" style="fill:none;stroke:#808080;stroke-linecap:round;"/>
    <path clip-path="url(#pd6cb473e3f)" d="M 446.662132 68.039686 
L 451.133638 68.114714 
L 448.390711 71.646902 
L 446.662132 68.039686 
z
" style="fill:#808080;stroke:#808080;stroke-linecap:round;"/>
   </g>
   <g id="patch_66">
    <path clip-path="url(#pd6cb473e3f)" d="M 478.914646 107.325946 
Q 542.147982 184.474404 604.672585 260.758167 
" style="fill:none;stroke:#808080;stroke-linecap:round;"/>
    <path clip-path="url(#pd6cb473e3f)" d="M 603.683763 256.396719 
L 604.672585 260.758167 
L 600.590133 258.932356 
L 603.683763 256.396719 
z
" style="fill:#808080;stroke:#808080;stroke-linecap:round;"/>
   </g>
   <g id="patch_67">
    <path clip-path="url(#pd6cb473e3f)" d="M 345.480388 190.678281 
Q 330.896959 265.037584 316.528701 338.299753 
" style="fill:none;stroke:#808080;stroke-linecap:round;"/>
    <path clip-path="url(#pd6cb473e3f)" d="M 319.261132 334.759439 
L 316.528701 338.299753 
L 315.335908 333.98962 
L 319.261132 334.759439 
z
" style="fill:#808080;stroke:#808080;stroke-linecap:round;"/>
   </g>
   <g id="patch_68">
    <path clip-path="url(#pd6cb473e3f)" d="M 355.212667 185.323176 
Q 471.401238 230.607316 586.548098 275.485452 
" style="fill:none;stroke:#808080;stroke-linecap:round;"/>
    <path clip-path="url(#pd6cb473e3f)" d="M 583.547442 272.169421 
L 586.548098 275.485452 
L 582.094879 275.896358 
L 583.547442 272.169421 
z
" style="fill:#808080;stroke:#808080;stroke-linecap:round;"/>
   </g>
   <g id="patch_69">
    <path clip-path="url(#pd6cb473e3f)" d="M 437.252399 388.848502 
Q 380.056171 369.742876 323.92038 350.991474 
" style="fill:none;stroke:#808080;stroke-linecap:round;"/>
    <path clip-path="url(#pd6cb473e3f)" d="M 327.080656 354.155751 
L 323.92038 350.991474 
L 328.347968 350.361819 
L 327.080656 354.155751 
z
" style="fill:#808080;stroke:#808080;stroke-linecap:round;"/>
   </g>
   <g id="patch_70">
    <path clip-path="url(#pd6cb473e3f)" d="M 452.392426 386.39972 
Q 520.559083 335.315242 587.831058 284.901244 
" style="fill:none;stroke:#808080;stroke-linecap:round;"/>
    <path clip-path="url(#pd6cb473e3f)" d="M 583.430754 285.69957 
L 587.831058 284.901244 
L 585.829536 288.900483 
L 583.430754 285.69957 
z
" style="fill:#808080;stroke:#808080;stroke-linecap:round;"/>
   </g>
   <g id="patch_71">
    <path clip-path="url(#pd6cb473e3f)" d="M 194.633825 246.557455 
Q 185.279318 192.034924 176.113872 138.614327 
" style="fill:none;stroke:#808080;stroke-linecap:round;"/>
    <path clip-path="url(#pd6cb473e3f)" d="M 174.819077 142.894923 
L 176.113872 138.614327 
L 178.761472 142.218521 
L 174.819077 142.894923 
z
" style="fill:#808080;stroke:#808080;stroke-linecap:round;"/>
   </g>
   <g id="patch_72">
    <path clip-path="url(#pd6cb473e3f)" d="M 204.020245 251.585896 
Q 376.943651 175.101511 548.844574 99.069374 
" style="fill:none;stroke:#808080;stroke-linecap:round;"/>
    <path clip-path="url(#pd6cb473e3f)" d="M 544.377422 98.858306 
L 548.844574 99.069374 
L 545.995429 102.516455 
L 544.377422 98.858306 
z
" style="fill:#808080;stroke:#808080;stroke-linecap:round;"/>
   </g>
   <g id="patch_73">
    <path clip-path="url(#pd6cb473e3f)" d="M 330.66882 263.051613 
Q 255.85023 198.833895 181.880024 135.344356 
" style="fill:none;stroke:#808080;stroke-linecap:round;"/>
    <path clip-path="url(#pd6cb473e3f)" d="M 183.61269 139.467203 
L 181.880024 135.344356 
L 186.217901 136.431931 
L 183.61269 139.467203 
z
" style="fill:#808080;stroke:#808080;stroke-linecap:round;"/>
   </g>
   <g id="patch_74">
    <path clip-path="url(#pd6cb473e3f)" d="M 344.046533 263.332356 
Q 447.514315 181.901328 550.103524 101.161754 
" style="fill:none;stroke:#808080;stroke-linecap:round;"/>
    <path clip-path="url(#pd6cb473e3f)" d="M 545.723333 102.063933 
L 550.103524 101.161754 
L 548.197153 105.207214 
L 545.723333 102.063933 
z
" style="fill:#808080;stroke:#808080;stroke-linecap:round;"/>
   </g>
   <g id="patch_75">
    <path clip-path="url(#pd6cb473e3f)" d="M 352.380739 233.687254 
Q 267.152024 183.527667 182.886856 133.935157 
" style="fill:none;stroke:#808080;stroke-linecap:round;"/>
    <path clip-path="url(#pd6cb473e3f)" d="M 185.319733 137.687637 
L 182.886856 133.935157 
L 187.348567 134.240343 
L 185.319733 137.687637 
z
" style="fill:#808080;stroke:#808080;stroke-linecap:round;"/>
   </g>
   <g id="patch_76">
    <path clip-path="url(#pd6cb473e3f)" d="M 366.868196 233.008676 
Q 458.819498 166.595421 549.864452 100.83679 
" style="fill:none;stroke:#808080;stroke-linecap:round;"/>
    <path clip-path="url(#pd6cb473e3f)" d="M 545.450775 101.557519 
L 549.864452 100.83679 
L 547.792829 104.800169 
L 545.450775 101.557519 
z
" style="fill:#808080;stroke:#808080;stroke-linecap:round;"/>
   </g>
   <g id="patch_77">
    <path clip-path="url(#pd6cb473e3f)" d="M 206.165634 369.5943 
Q 201.510998 316.65599 196.954288 264.831417 
" style="fill:none;stroke:#808080;stroke-linecap:round;"/>
    <path clip-path="url(#pd6cb473e3f)" d="M 195.312325 268.99122 
L 196.954288 264.831417 
L 199.296952 268.640869 
L 195.312325 268.99122 
z
" style="fill:#808080;stroke:#808080;stroke-linecap:round;"/>
   </g>
   <g id="patch_78">
    <path clip-path="url(#pd6cb473e3f)" d="M 213.555328 372.644271 
Q 272.080992 323.454318 329.750777 274.98372 
" style="fill:none;stroke:#808080;stroke-linecap:round;"/>
    <path clip-path="url(#pd6cb473e3f)" d="M 325.401869 276.026316 
L 329.750777 274.98372 
L 327.975509 279.088403 
L 325.401869 276.026316 
z
" style="fill:#808080;stroke:#808080;stroke-linecap:round;"/>
   </g>
   <g id="patch_79">
    <path clip-path="url(#pd6cb473e3f)" d="M 213.310398 372.365318 
Q 283.386295 308.147978 352.637918 244.686 
" style="fill:none;stroke:#808080;stroke-linecap:round;"/>
    <path clip-path="url(#pd6cb473e3f)" d="M 348.337672 245.91396 
L 352.637918 244.686 
L 351.040138 248.862973 
L 348.337672 245.91396 
z
" style="fill:#808080;stroke:#808080;stroke-linecap:round;"/>
   </g>
   <g id="patch_80">
    <path clip-path="url(#pd6cb473e3f)" d="M 350.783445 345.737457 
Q 277.175807 302.602607 204.532778 260.033027 
" style="fill:none;stroke:#808080;stroke-linecap:round;"/>
    <path clip-path="url(#pd6cb473e3f)" d="M 206.972679 263.780945 
L 204.532778 260.033027 
L 208.995052 260.329857 
L 206.972679 263.780945 
z
" style="fill:#808080;stroke:#808080;stroke-linecap:round;"/>
   </g>
   <g id="patch_81">
    <path clip-path="url(#pd6cb473e3f)" d="M 356.088884 341.728438 
Q 347.745758 309.402074 339.68203 278.15827 
" style="fill:none;stroke:#808080;stroke-linecap:round;"/>
    <path clip-path="url(#pd6cb473e3f)" d="M 338.745094 282.531158 
L 339.68203 278.15827 
L 342.618179 281.531551 
L 338.745094 282.531158 
z
" style="fill:#808080;stroke:#808080;stroke-linecap:round;"/>
   </g>
   <g id="patch_82">
    <path clip-path="url(#pd6cb473e3f)" d="M 358.376451 341.45454 
Q 359.049599 294.097465 359.706856 247.85831 
" style="fill:none;stroke:#808080;stroke-linecap:round;"/>
    <path clip-path="url(#pd6cb473e3f)" d="M 357.650207 251.82948 
L 359.706856 247.85831 
L 361.649803 251.886331 
L 357.650207 251.82948 
z
" style="fill:#808080;stroke:#808080;stroke-linecap:round;"/>
   </g>
   <g id="patch_83">
    <path clip-path="url(#pd6cb473e3f)" d="M 108.074486 273.840846 
Q 147.851243 265.367555 186.534501 257.127202 
" style="fill:none;stroke:#808080;stroke-linecap:round;"/>
    <path clip-path="url(#pd6cb473e3f)" d="M 182.205587 256.004478 
L 186.534501 257.127202 
L 183.038973 259.916698 
L 182.205587 256.004478 
z
" style="fill:#808080;stroke:#808080;stroke-linecap:round;"/>
   </g>
   <g id="patch_84">
    <path clip-path="url(#pd6cb473e3f)" d="M 108.25763 275.39228 
Q 218.420768 272.168004 327.46635 268.976437 
" style="fill:none;stroke:#808080;stroke-linecap:round;"/>
    <path clip-path="url(#pd6cb473e3f)" d="M 323.409551 267.094316 
L 327.46635 268.976437 
L 323.526574 271.092604 
L 323.409551 267.094316 
z
" style="fill:#808080;stroke:#808080;stroke-linecap:round;"/>
   </g>
   <g id="patch_85">
    <path clip-path="url(#pd6cb473e3f)" d="M 108.175663 274.408079 
Q 229.723188 256.86327 350.164146 239.478189 
" style="fill:none;stroke:#808080;stroke-linecap:round;"/>
    <path clip-path="url(#pd6cb473e3f)" d="M 345.919448 238.070163 
L 350.164146 239.478189 
L 346.490907 242.029132 
L 345.919448 238.070163 
z
" style="fill:#808080;stroke:#808080;stroke-linecap:round;"/>
   </g>
   <g id="patch_86">
    <path clip-path="url(#pd6cb473e3f)" d="M 556.50284 333.941194 
Q 580.924071 304.466837 604.631983 275.853395 
" style="fill:none;stroke:#808080;stroke-linecap:round;"/>
    <path clip-path="url(#pd6cb473e3f)" d="M 600.539882 277.657477 
L 604.631983 275.853395 
L 603.619988 280.209525 
L 600.539882 277.657477 
z
" style="fill:#808080;stroke:#808080;stroke-linecap:round;"/>
   </g>
   <g id="patch_87">
    <path clip-path="url(#pd6cb473e3f)" d="M 225.856065 81.672695 
Q 374.902881 92.722031 522.834723 103.688711 
" style="fill:none;stroke:#808080;stroke-linecap:round;"/>
    <path clip-path="url(#pd6cb473e3f)" d="M 518.99353 101.398463 
L 522.834723 103.688711 
L 518.697808 105.387516 
L 518.99353 101.398463 
z
" style="fill:#808080;stroke:#808080;stroke-linecap:round;"/>
   </g>
   <g id="patch_88">
    <path clip-path="url(#pd6cb473e3f)" d="M 367.706816 71.662971 
Q 445.897848 87.193498 522.992268 102.506212 
" style="fill:none;stroke:#808080;stroke-linecap:round;"/>
    <path clip-path="url(#pd6cb473e3f)" d="M 519.458544 99.765264 
L 522.992268 102.506212 
L 518.679275 103.688623 
L 519.458544 99.765264 
z
" style="fill:#808080;stroke:#808080;stroke-linecap:round;"/>
   </g>
   <g id="patch_89">
    <path clip-path="url(#pd6cb473e3f)" d="M 535.058396 309.849556 
Q 511.493904 348.041047 488.516491 385.281046 
" style="fill:none;stroke:#808080;stroke-linecap:round;"/>
    <path clip-path="url(#pd6cb473e3f)" d="M 492.318972 382.927082 
L 488.516491 385.281046 
L 488.914809 380.826683 
L 492.318972 382.927082 
z
" style="fill:#808080;stroke:#808080;stroke-linecap:round;"/>
   </g>
   <g id="patch_90">
    <path clip-path="url(#pd6cb473e3f)" d="M 510.957433 132.578166 
Q 497.625207 258.782177 484.410435 383.874339 
" style="fill:none;stroke:#808080;stroke-linecap:round;"/>
    <path clip-path="url(#pd6cb473e3f)" d="M 486.819591 380.106586 
L 484.410435 383.874339 
L 482.841726 379.686363 
L 486.819591 380.106586 
z
" style="fill:#808080;stroke:#808080;stroke-linecap:round;"/>
   </g>
   <g id="PathCollection_1">
    <defs>
     <path d="M 0 11.18034 
C 2.965061 11.18034 5.80908 10.002309 7.905694 7.905694 
C 10.002309 5.80908 11.18034 2.965061 11.18034 -0 
C 11.18034 -2.965061 10.002309 -5.80908 7.905694 -7.905694 
C 5.80908 -10.002309 2.965061 -11.18034 0 -11.18034 
C -2.965061 -11.18034 -5.80908 -10.002309 -7.905694 -7.905694 
C -10.002309 -5.80908 -11.18034 -2.965061 -11.18034 0 
C -11.18034 2.965061 -10.002309 5.80908 -7.905694 7.905694 
C -5.80908 10.002309 -2.965061 11.18034 0 11.18034 
z
" id="C0_0_d883cf9396"/>
    </defs>
    <g clip-path="url(#pd6cb473e3f)">
     <use style="fill:#5f5f5f;stroke:#5f5f5f;" x="387.604203" xlink:href="#C0_0_d883cf9396" y="149.051566"/>
    </g>
    <g clip-path="url(#pd6cb473e3f)">
     <use style="fill:#eeeeee;stroke:#eeeeee;" x="483.382888" xlink:href="#C0_0_d883cf9396" y="393.601189"/>
    </g>
    <g clip-path="url(#pd6cb473e3f)">
     <use style="fill:#c9c9c9;stroke:#c9c9c9;" x="263.321476" xlink:href="#C0_0_d883cf9396" y="226.589117"/>
    </g>
    <g clip-path="url(#pd6cb473e3f)">
     <use style="fill:#c6c6c6;stroke:#c6c6c6;" x="387.917927" xlink:href="#C0_0_d883cf9396" y="309.859983"/>
    </g>
    <g clip-path="url(#pd6cb473e3f)">
     <use style="fill:#f2f2f2;stroke:#f2f2f2;" x="157.447211" xlink:href="#C0_0_d883cf9396" y="368.962082"/>
    </g>
    <g clip-path="url(#pd6cb473e3f)">
     <use style="fill:#ededed;stroke:#ededed;" x="454.305895" xlink:href="#C0_0_d883cf9396" y="133.543319"/>
    </g>
    <g clip-path="url(#pd6cb473e3f)">
     <use style="fill:#d7d7d7;stroke:#d7d7d7;" x="483.05409" xlink:href="#C0_0_d883cf9396" y="104.620457"/>
    </g>
    <g clip-path="url(#pd6cb473e3f)">
     <use style="fill:#efefef;stroke:#efefef;" x="354.716434" xlink:href="#C0_0_d883cf9396" y="230.302989"/>
    </g>
    <g clip-path="url(#pd6cb473e3f)">
     <use style="fill:#efefef;stroke:#efefef;" x="318.503651" xlink:href="#C0_0_d883cf9396" y="230.682458"/>
    </g>
    <g clip-path="url(#pd6cb473e3f)">
     <use style="fill:#bfbfbf;stroke:#bfbfbf;" x="273.336602" xlink:href="#C0_0_d883cf9396" y="191.200111"/>
    </g>
    <g clip-path="url(#pd6cb473e3f)">
     <use style="fill:#888888;stroke:#888888;" x="466.577011" xlink:href="#C0_0_d883cf9396" y="187.789952"/>
    </g>
    <g clip-path="url(#pd6cb473e3f)">
     <use style="fill:#eeeeee;stroke:#eeeeee;" x="65.305785" xlink:href="#C0_0_d883cf9396" y="198.453284"/>
    </g>
    <g clip-path="url(#pd6cb473e3f)">
     <use style="fill:#5f5f5f;stroke:#5f5f5f;" x="327.961663" xlink:href="#C0_0_d883cf9396" y="386.061025"/>
    </g>
    <g clip-path="url(#pd6cb473e3f)">
     <use style="fill:#c3c3c3;stroke:#c3c3c3;" x="428.714632" xlink:href="#C0_0_d883cf9396" y="227.297798"/>
    </g>
    <g clip-path="url(#pd6cb473e3f)">
     <use style="fill:#878787;stroke:#878787;" x="361.183253" xlink:href="#C0_0_d883cf9396" y="219.567958"/>
    </g>
    <g clip-path="url(#pd6cb473e3f)">
     <use style="fill:#939393;stroke:#939393;" x="273.219572" xlink:href="#C0_0_d883cf9396" y="121.163715"/>
    </g>
    <g clip-path="url(#pd6cb473e3f)">
     <use style="fill:#ebebeb;stroke:#ebebeb;" x="373.849903" xlink:href="#C0_0_d883cf9396" y="60.805398"/>
    </g>
    <g clip-path="url(#pd6cb473e3f)">
     <use style="fill:#dddddd;stroke:#dddddd;" x="517.032556" xlink:href="#C0_0_d883cf9396" y="187.840396"/>
    </g>
    <g clip-path="url(#pd6cb473e3f)">
     <use style="fill:#eeeeee;stroke:#eeeeee;" x="615.058544" xlink:href="#C0_0_d883cf9396" y="170.849248"/>
    </g>
    <g clip-path="url(#pd6cb473e3f)">
     <use style="fill:#eeeeee;stroke:#eeeeee;" x="113.972368" xlink:href="#C0_0_d883cf9396" y="362.239248"/>
    </g>
    <g clip-path="url(#pd6cb473e3f)">
     <use style="fill:#dfdfdf;stroke:#dfdfdf;" x="310.641546" xlink:href="#C0_0_d883cf9396" y="141.663772"/>
    </g>
    <g clip-path="url(#pd6cb473e3f)">
     <use style="fill:#eeeeee;stroke:#eeeeee;" x="230.197538" xlink:href="#C0_0_d883cf9396" y="72.38667"/>
    </g>
    <g clip-path="url(#pd6cb473e3f)">
     <use style="fill:#efefef;stroke:#efefef;" x="610.872164" xlink:href="#C0_0_d883cf9396" y="268.322025"/>
    </g>
    <g clip-path="url(#pd6cb473e3f)">
     <use style="fill:#eeeeee;stroke:#eeeeee;" x="532.58487" xlink:href="#C0_0_d883cf9396" y="104.411522"/>
    </g>
    <g clip-path="url(#pd6cb473e3f)">
     <use style="fill:#eeeeee;stroke:#eeeeee;" x="618.694215" xlink:href="#C0_0_d883cf9396" y="186.511057"/>
    </g>
    <g clip-path="url(#pd6cb473e3f)">
     <use style="fill:#5f5f5f;stroke:#5f5f5f;" x="226.320454" xlink:href="#C0_0_d883cf9396" y="211.427682"/>
    </g>
    <g clip-path="url(#pd6cb473e3f)">
     <use style="fill:#eeeeee;stroke:#eeeeee;" x="524.984442" xlink:href="#C0_0_d883cf9396" y="386.005076"/>
    </g>
    <g clip-path="url(#pd6cb473e3f)">
     <use style="fill:#eeeeee;stroke:#eeeeee;" x="363.934603" xlink:href="#C0_0_d883cf9396" y="427.350852"/>
    </g>
    <g clip-path="url(#pd6cb473e3f)">
     <use style="fill:#eeeeee;stroke:#eeeeee;" x="429.4832" xlink:href="#C0_0_d883cf9396" y="419.432198"/>
    </g>
    <g clip-path="url(#pd6cb473e3f)">
     <use style="fill:#cfcfcf;stroke:#cfcfcf;" x="314.647094" xlink:href="#C0_0_d883cf9396" y="347.893858"/>
    </g>
    <g clip-path="url(#pd6cb473e3f)">
     <use style="fill:#cfcfcf;stroke:#cfcfcf;" x="595.65772" xlink:href="#C0_0_d883cf9396" y="279.035899"/>
    </g>
    <g clip-path="url(#pd6cb473e3f)">
     <use style="fill:#dfdfdf;stroke:#dfdfdf;" x="425.196025" xlink:href="#C0_0_d883cf9396" y="274.539166"/>
    </g>
    <g clip-path="url(#pd6cb473e3f)">
     <use style="fill:#f3f3f3;stroke:#f3f3f3;" x="91.062907" xlink:href="#C0_0_d883cf9396" y="252.176148"/>
    </g>
    <g clip-path="url(#pd6cb473e3f)">
     <use style="fill:#f2f2f2;stroke:#f2f2f2;" x="93.353305" xlink:href="#C0_0_d883cf9396" y="300.722251"/>
    </g>
    <g clip-path="url(#pd6cb473e3f)">
     <use style="fill:#e7e7e7;stroke:#e7e7e7;" x="269.773144" xlink:href="#C0_0_d883cf9396" y="384.882137"/>
    </g>
    <g clip-path="url(#pd6cb473e3f)">
     <use style="fill:#eeeeee;stroke:#eeeeee;" x="180.769885" xlink:href="#C0_0_d883cf9396" y="350.793309"/>
    </g>
    <g clip-path="url(#pd6cb473e3f)">
     <use style="fill:#d7d7d7;stroke:#d7d7d7;" x="329.313257" xlink:href="#C0_0_d883cf9396" y="106.485077"/>
    </g>
    <g clip-path="url(#pd6cb473e3f)">
     <use style="fill:#d5d5d5;stroke:#d5d5d5;" x="250.5067" xlink:href="#C0_0_d883cf9396" y="164.25523"/>
    </g>
    <g clip-path="url(#pd6cb473e3f)">
     <use style="fill:#efefef;stroke:#efefef;" x="584.378065" xlink:href="#C0_0_d883cf9396" y="341.583002"/>
    </g>
    <g clip-path="url(#pd6cb473e3f)">
     <use style="fill:#efefef;stroke:#efefef;" x="459.953817" xlink:href="#C0_0_d883cf9396" y="63.888081"/>
    </g>
    <g clip-path="url(#pd6cb473e3f)">
     <use style="fill:#e9e9e9;stroke:#e9e9e9;" x="473.426116" xlink:href="#C0_0_d883cf9396" y="100.629611"/>
    </g>
    <g clip-path="url(#pd6cb473e3f)">
     <use style="fill:#ebebeb;stroke:#ebebeb;" x="347.147146" xlink:href="#C0_0_d883cf9396" y="182.179664"/>
    </g>
    <g clip-path="url(#pd6cb473e3f)">
     <use style="fill:#ededed;stroke:#ededed;" x="445.464412" xlink:href="#C0_0_d883cf9396" y="391.591614"/>
    </g>
    <g clip-path="url(#pd6cb473e3f)">
     <use style="fill:#eeeeee;stroke:#eeeeee;" x="174.460179" xlink:href="#C0_0_d883cf9396" y="128.975812"/>
    </g>
    <g clip-path="url(#pd6cb473e3f)">
     <use style="fill:#eeeeee;stroke:#eeeeee;" x="557.788738" xlink:href="#C0_0_d883cf9396" y="95.113351"/>
    </g>
    <g clip-path="url(#pd6cb473e3f)">
     <use style="fill:#eeeeee;stroke:#eeeeee;" x="196.097769" xlink:href="#C0_0_d883cf9396" y="255.090023"/>
    </g>
    <g clip-path="url(#pd6cb473e3f)">
     <use style="fill:#ececec;stroke:#ececec;" x="337.23847" xlink:href="#C0_0_d883cf9396" y="268.690425"/>
    </g>
    <g clip-path="url(#pd6cb473e3f)">
     <use style="fill:#eeeeee;stroke:#eeeeee;" x="359.845839" xlink:href="#C0_0_d883cf9396" y="238.080683"/>
    </g>
    <g clip-path="url(#pd6cb473e3f)">
     <use style="fill:#f3f3f3;stroke:#f3f3f3;" x="206.923871" xlink:href="#C0_0_d883cf9396" y="378.217912"/>
    </g>
    <g clip-path="url(#pd6cb473e3f)">
     <use style="fill:#e7e7e7;stroke:#e7e7e7;" x="358.25335" xlink:href="#C0_0_d883cf9396" y="350.1149"/>
    </g>
    <g clip-path="url(#pd6cb473e3f)">
     <use style="fill:#e1e1e1;stroke:#e1e1e1;" x="99.602271" xlink:href="#C0_0_d883cf9396" y="275.645607"/>
    </g>
    <g clip-path="url(#pd6cb473e3f)">
     <use style="fill:#e9e9e9;stroke:#e9e9e9;" x="550.977257" xlink:href="#C0_0_d883cf9396" y="340.610105"/>
    </g>
    <g clip-path="url(#pd6cb473e3f)">
     <use style="fill:#eeeeee;stroke:#eeeeee;" x="217.218325" xlink:href="#C0_0_d883cf9396" y="81.03235"/>
    </g>
    <g clip-path="url(#pd6cb473e3f)">
     <use style="fill:#e7e7e7;stroke:#e7e7e7;" x="359.212257" xlink:href="#C0_0_d883cf9396" y="69.975758"/>
    </g>
    <g clip-path="url(#pd6cb473e3f)">
     <use style="fill:#e7e7e7;stroke:#e7e7e7;" x="539.607049" xlink:href="#C0_0_d883cf9396" y="302.477455"/>
    </g>
    <g clip-path="url(#pd6cb473e3f)">
     <use style="fill:#e7e7e7;stroke:#e7e7e7;" x="511.867124" xlink:href="#C0_0_d883cf9396" y="123.966953"/>
    </g>
   </g>
   <g id="text_1">
    <g clip-path="url(#pd6cb473e3f)">
     <!-- FYN -->
     <g transform="translate(377.933891 151.810941)scale(0.1 -0.1)">
      <defs>
       <path d="M 9.8125 72.90625 
L 51.703125 72.90625 
L 51.703125 64.59375 
L 19.671875 64.59375 
L 19.671875 43.109375 
L 48.578125 43.109375 
L 48.578125 34.8125 
L 19.671875 34.8125 
L 19.671875 0 
L 9.8125 0 
z
" id="DejaVuSans-70"/>
       <path d="M -0.203125 72.90625 
L 10.40625 72.90625 
L 30.609375 42.921875 
L 50.6875 72.90625 
L 61.28125 72.90625 
L 35.5 34.71875 
L 35.5 0 
L 25.59375 0 
L 25.59375 34.71875 
z
" id="DejaVuSans-89"/>
       <path d="M 9.8125 72.90625 
L 23.09375 72.90625 
L 55.421875 11.921875 
L 55.421875 72.90625 
L 64.984375 72.90625 
L 64.984375 0 
L 51.703125 0 
L 19.390625 60.984375 
L 19.390625 0 
L 9.8125 0 
z
" id="DejaVuSans-78"/>
      </defs>
      <use xlink:href="#DejaVuSans-70"/>
      <use x="57.519531" xlink:href="#DejaVuSans-89"/>
      <use x="118.603516" xlink:href="#DejaVuSans-78"/>
     </g>
    </g>
   </g>
   <g id="text_2">
    <g clip-path="url(#pd6cb473e3f)">
     <!-- TNFSF10 -->
     <g transform="translate(461.387576 396.360564)scale(0.1 -0.1)">
      <defs>
       <path d="M -0.296875 72.90625 
L 61.375 72.90625 
L 61.375 64.59375 
L 35.5 64.59375 
L 35.5 0 
L 25.59375 0 
L 25.59375 64.59375 
L -0.296875 64.59375 
z
" id="DejaVuSans-84"/>
       <path d="M 53.515625 70.515625 
L 53.515625 60.890625 
Q 47.90625 63.578125 42.921875 64.890625 
Q 37.9375 66.21875 33.296875 66.21875 
Q 25.25 66.21875 20.875 63.09375 
Q 16.5 59.96875 16.5 54.203125 
Q 16.5 49.359375 19.40625 46.890625 
Q 22.3125 44.4375 30.421875 42.921875 
L 36.375 41.703125 
Q 47.40625 39.59375 52.65625 34.296875 
Q 57.90625 29 57.90625 20.125 
Q 57.90625 9.515625 50.796875 4.046875 
Q 43.703125 -1.421875 29.984375 -1.421875 
Q 24.8125 -1.421875 18.96875 -0.25 
Q 13.140625 0.921875 6.890625 3.21875 
L 6.890625 13.375 
Q 12.890625 10.015625 18.65625 8.296875 
Q 24.421875 6.59375 29.984375 6.59375 
Q 38.421875 6.59375 43.015625 9.90625 
Q 47.609375 13.234375 47.609375 19.390625 
Q 47.609375 24.75 44.3125 27.78125 
Q 41.015625 30.8125 33.5 32.328125 
L 27.484375 33.5 
Q 16.453125 35.6875 11.515625 40.375 
Q 6.59375 45.0625 6.59375 53.421875 
Q 6.59375 63.09375 13.40625 68.65625 
Q 20.21875 74.21875 32.171875 74.21875 
Q 37.3125 74.21875 42.625 73.28125 
Q 47.953125 72.359375 53.515625 70.515625 
z
" id="DejaVuSans-83"/>
       <path d="M 12.40625 8.296875 
L 28.515625 8.296875 
L 28.515625 63.921875 
L 10.984375 60.40625 
L 10.984375 69.390625 
L 28.421875 72.90625 
L 38.28125 72.90625 
L 38.28125 8.296875 
L 54.390625 8.296875 
L 54.390625 0 
L 12.40625 0 
z
" id="DejaVuSans-49"/>
       <path d="M 31.78125 66.40625 
Q 24.171875 66.40625 20.328125 58.90625 
Q 16.5 51.421875 16.5 36.375 
Q 16.5 21.390625 20.328125 13.890625 
Q 24.171875 6.390625 31.78125 6.390625 
Q 39.453125 6.390625 43.28125 13.890625 
Q 47.125 21.390625 47.125 36.375 
Q 47.125 51.421875 43.28125 58.90625 
Q 39.453125 66.40625 31.78125 66.40625 
z
M 31.78125 74.21875 
Q 44.046875 74.21875 50.515625 64.515625 
Q 56.984375 54.828125 56.984375 36.375 
Q 56.984375 17.96875 50.515625 8.265625 
Q 44.046875 -1.421875 31.78125 -1.421875 
Q 19.53125 -1.421875 13.0625 8.265625 
Q 6.59375 17.96875 6.59375 36.375 
Q 6.59375 54.828125 13.0625 64.515625 
Q 19.53125 74.21875 31.78125 74.21875 
z
" id="DejaVuSans-48"/>
      </defs>
      <use xlink:href="#DejaVuSans-84"/>
      <use x="61.083984" xlink:href="#DejaVuSans-78"/>
      <use x="135.888672" xlink:href="#DejaVuSans-70"/>
      <use x="191.658203" xlink:href="#DejaVuSans-83"/>
      <use x="255.134766" xlink:href="#DejaVuSans-70"/>
      <use x="312.654297" xlink:href="#DejaVuSans-49"/>
      <use x="376.277344" xlink:href="#DejaVuSans-48"/>
     </g>
    </g>
   </g>
   <g id="text_3">
    <g clip-path="url(#pd6cb473e3f)">
     <!-- LAT -->
     <g transform="translate(254.336319 229.348492)scale(0.1 -0.1)">
      <defs>
       <path d="M 9.8125 72.90625 
L 19.671875 72.90625 
L 19.671875 8.296875 
L 55.171875 8.296875 
L 55.171875 0 
L 9.8125 0 
z
" id="DejaVuSans-76"/>
       <path d="M 34.1875 63.1875 
L 20.796875 26.90625 
L 47.609375 26.90625 
z
M 28.609375 72.90625 
L 39.796875 72.90625 
L 67.578125 0 
L 57.328125 0 
L 50.6875 18.703125 
L 17.828125 18.703125 
L 11.1875 0 
L 0.78125 0 
z
" id="DejaVuSans-65"/>
      </defs>
      <use xlink:href="#DejaVuSans-76"/>
      <use x="57.962891" xlink:href="#DejaVuSans-65"/>
      <use x="118.621094" xlink:href="#DejaVuSans-84"/>
     </g>
    </g>
   </g>
   <g id="text_4">
    <g clip-path="url(#pd6cb473e3f)">
     <!-- IFNG -->
     <g transform="translate(375.952302 312.619358)scale(0.1 -0.1)">
      <defs>
       <path d="M 9.8125 72.90625 
L 19.671875 72.90625 
L 19.671875 0 
L 9.8125 0 
z
" id="DejaVuSans-73"/>
       <path d="M 59.515625 10.40625 
L 59.515625 29.984375 
L 43.40625 29.984375 
L 43.40625 38.09375 
L 69.28125 38.09375 
L 69.28125 6.78125 
Q 63.578125 2.734375 56.6875 0.65625 
Q 49.8125 -1.421875 42 -1.421875 
Q 24.90625 -1.421875 15.25 8.5625 
Q 5.609375 18.5625 5.609375 36.375 
Q 5.609375 54.25 15.25 64.234375 
Q 24.90625 74.21875 42 74.21875 
Q 49.125 74.21875 55.546875 72.453125 
Q 61.96875 70.703125 67.390625 67.28125 
L 67.390625 56.78125 
Q 61.921875 61.421875 55.765625 63.765625 
Q 49.609375 66.109375 42.828125 66.109375 
Q 29.4375 66.109375 22.71875 58.640625 
Q 16.015625 51.171875 16.015625 36.375 
Q 16.015625 21.625 22.71875 14.15625 
Q 29.4375 6.6875 42.828125 6.6875 
Q 48.046875 6.6875 52.140625 7.59375 
Q 56.25 8.5 59.515625 10.40625 
z
" id="DejaVuSans-71"/>
      </defs>
      <use xlink:href="#DejaVuSans-73"/>
      <use x="29.492188" xlink:href="#DejaVuSans-70"/>
      <use x="87.011719" xlink:href="#DejaVuSans-78"/>
      <use x="161.816406" xlink:href="#DejaVuSans-71"/>
     </g>
    </g>
   </g>
   <g id="text_5">
    <g clip-path="url(#pd6cb473e3f)">
     <!-- TNF -->
     <g transform="translate(147.776899 371.721457)scale(0.1 -0.1)">
      <use xlink:href="#DejaVuSans-84"/>
      <use x="61.083984" xlink:href="#DejaVuSans-78"/>
      <use x="135.888672" xlink:href="#DejaVuSans-70"/>
     </g>
    </g>
   </g>
   <g id="text_6">
    <g clip-path="url(#pd6cb473e3f)">
     <!-- SH3BP2 -->
     <g transform="translate(434.563708 136.302694)scale(0.1 -0.1)">
      <defs>
       <path d="M 9.8125 72.90625 
L 19.671875 72.90625 
L 19.671875 43.015625 
L 55.515625 43.015625 
L 55.515625 72.90625 
L 65.375 72.90625 
L 65.375 0 
L 55.515625 0 
L 55.515625 34.71875 
L 19.671875 34.71875 
L 19.671875 0 
L 9.8125 0 
z
" id="DejaVuSans-72"/>
       <path d="M 40.578125 39.3125 
Q 47.65625 37.796875 51.625 33 
Q 55.609375 28.21875 55.609375 21.1875 
Q 55.609375 10.40625 48.1875 4.484375 
Q 40.765625 -1.421875 27.09375 -1.421875 
Q 22.515625 -1.421875 17.65625 -0.515625 
Q 12.796875 0.390625 7.625 2.203125 
L 7.625 11.71875 
Q 11.71875 9.328125 16.59375 8.109375 
Q 21.484375 6.890625 26.8125 6.890625 
Q 36.078125 6.890625 40.9375 10.546875 
Q 45.796875 14.203125 45.796875 21.1875 
Q 45.796875 27.640625 41.28125 31.265625 
Q 36.765625 34.90625 28.71875 34.90625 
L 20.21875 34.90625 
L 20.21875 43.015625 
L 29.109375 43.015625 
Q 36.375 43.015625 40.234375 45.921875 
Q 44.09375 48.828125 44.09375 54.296875 
Q 44.09375 59.90625 40.109375 62.90625 
Q 36.140625 65.921875 28.71875 65.921875 
Q 24.65625 65.921875 20.015625 65.03125 
Q 15.375 64.15625 9.8125 62.3125 
L 9.8125 71.09375 
Q 15.4375 72.65625 20.34375 73.4375 
Q 25.25 74.21875 29.59375 74.21875 
Q 40.828125 74.21875 47.359375 69.109375 
Q 53.90625 64.015625 53.90625 55.328125 
Q 53.90625 49.265625 50.4375 45.09375 
Q 46.96875 40.921875 40.578125 39.3125 
z
" id="DejaVuSans-51"/>
       <path d="M 19.671875 34.8125 
L 19.671875 8.109375 
L 35.5 8.109375 
Q 43.453125 8.109375 47.28125 11.40625 
Q 51.125 14.703125 51.125 21.484375 
Q 51.125 28.328125 47.28125 31.5625 
Q 43.453125 34.8125 35.5 34.8125 
z
M 19.671875 64.796875 
L 19.671875 42.828125 
L 34.28125 42.828125 
Q 41.5 42.828125 45.03125 45.53125 
Q 48.578125 48.25 48.578125 53.8125 
Q 48.578125 59.328125 45.03125 62.0625 
Q 41.5 64.796875 34.28125 64.796875 
z
M 9.8125 72.90625 
L 35.015625 72.90625 
Q 46.296875 72.90625 52.390625 68.21875 
Q 58.5 63.53125 58.5 54.890625 
Q 58.5 48.1875 55.375 44.234375 
Q 52.25 40.28125 46.1875 39.3125 
Q 53.46875 37.75 57.5 32.78125 
Q 61.53125 27.828125 61.53125 20.40625 
Q 61.53125 10.640625 54.890625 5.3125 
Q 48.25 0 35.984375 0 
L 9.8125 0 
z
" id="DejaVuSans-66"/>
       <path d="M 19.671875 64.796875 
L 19.671875 37.40625 
L 32.078125 37.40625 
Q 38.96875 37.40625 42.71875 40.96875 
Q 46.484375 44.53125 46.484375 51.125 
Q 46.484375 57.671875 42.71875 61.234375 
Q 38.96875 64.796875 32.078125 64.796875 
z
M 9.8125 72.90625 
L 32.078125 72.90625 
Q 44.34375 72.90625 50.609375 67.359375 
Q 56.890625 61.8125 56.890625 51.125 
Q 56.890625 40.328125 50.609375 34.8125 
Q 44.34375 29.296875 32.078125 29.296875 
L 19.671875 29.296875 
L 19.671875 0 
L 9.8125 0 
z
" id="DejaVuSans-80"/>
       <path d="M 19.1875 8.296875 
L 53.609375 8.296875 
L 53.609375 0 
L 7.328125 0 
L 7.328125 8.296875 
Q 12.9375 14.109375 22.625 23.890625 
Q 32.328125 33.6875 34.8125 36.53125 
Q 39.546875 41.84375 41.421875 45.53125 
Q 43.3125 49.21875 43.3125 52.78125 
Q 43.3125 58.59375 39.234375 62.25 
Q 35.15625 65.921875 28.609375 65.921875 
Q 23.96875 65.921875 18.8125 64.3125 
Q 13.671875 62.703125 7.8125 59.421875 
L 7.8125 69.390625 
Q 13.765625 71.78125 18.9375 73 
Q 24.125 74.21875 28.421875 74.21875 
Q 39.75 74.21875 46.484375 68.546875 
Q 53.21875 62.890625 53.21875 53.421875 
Q 53.21875 48.921875 51.53125 44.890625 
Q 49.859375 40.875 45.40625 35.40625 
Q 44.1875 33.984375 37.640625 27.21875 
Q 31.109375 20.453125 19.1875 8.296875 
z
" id="DejaVuSans-50"/>
      </defs>
      <use xlink:href="#DejaVuSans-83"/>
      <use x="63.476562" xlink:href="#DejaVuSans-72"/>
      <use x="138.671875" xlink:href="#DejaVuSans-51"/>
      <use x="202.294922" xlink:href="#DejaVuSans-66"/>
      <use x="270.898438" xlink:href="#DejaVuSans-80"/>
      <use x="331.201172" xlink:href="#DejaVuSans-50"/>
     </g>
    </g>
   </g>
   <g id="text_7">
    <g clip-path="url(#pd6cb473e3f)">
     <!-- PTK2B -->
     <g transform="translate(467.094715 107.379832)scale(0.1 -0.1)">
      <defs>
       <path d="M 9.8125 72.90625 
L 19.671875 72.90625 
L 19.671875 42.09375 
L 52.390625 72.90625 
L 65.09375 72.90625 
L 28.90625 38.921875 
L 67.671875 0 
L 54.6875 0 
L 19.671875 35.109375 
L 19.671875 0 
L 9.8125 0 
z
" id="DejaVuSans-75"/>
      </defs>
      <use xlink:href="#DejaVuSans-80"/>
      <use x="60.302734" xlink:href="#DejaVuSans-84"/>
      <use x="121.386719" xlink:href="#DejaVuSans-75"/>
      <use x="186.962891" xlink:href="#DejaVuSans-50"/>
      <use x="250.585938" xlink:href="#DejaVuSans-66"/>
     </g>
    </g>
   </g>
   <g id="text_8">
    <g clip-path="url(#pd6cb473e3f)">
     <!-- LCP2 -->
     <g transform="translate(342.242997 233.062364)scale(0.1 -0.1)">
      <defs>
       <path d="M 64.40625 67.28125 
L 64.40625 56.890625 
Q 59.421875 61.53125 53.78125 63.8125 
Q 48.140625 66.109375 41.796875 66.109375 
Q 29.296875 66.109375 22.65625 58.46875 
Q 16.015625 50.828125 16.015625 36.375 
Q 16.015625 21.96875 22.65625 14.328125 
Q 29.296875 6.6875 41.796875 6.6875 
Q 48.140625 6.6875 53.78125 8.984375 
Q 59.421875 11.28125 64.40625 15.921875 
L 64.40625 5.609375 
Q 59.234375 2.09375 53.4375 0.328125 
Q 47.65625 -1.421875 41.21875 -1.421875 
Q 24.65625 -1.421875 15.125 8.703125 
Q 5.609375 18.84375 5.609375 36.375 
Q 5.609375 53.953125 15.125 64.078125 
Q 24.65625 74.21875 41.21875 74.21875 
Q 47.75 74.21875 53.53125 72.484375 
Q 59.328125 70.75 64.40625 67.28125 
z
" id="DejaVuSans-67"/>
      </defs>
      <use xlink:href="#DejaVuSans-76"/>
      <use x="55.712891" xlink:href="#DejaVuSans-67"/>
      <use x="125.537109" xlink:href="#DejaVuSans-80"/>
      <use x="185.839844" xlink:href="#DejaVuSans-50"/>
     </g>
    </g>
   </g>
   <g id="text_9">
    <g clip-path="url(#pd6cb473e3f)">
     <!-- SYK -->
     <g transform="translate(308.99662 233.441833)scale(0.1 -0.1)">
      <use xlink:href="#DejaVuSans-83"/>
      <use x="63.476562" xlink:href="#DejaVuSans-89"/>
      <use x="124.560547" xlink:href="#DejaVuSans-75"/>
     </g>
    </g>
   </g>
   <g id="text_10">
    <g clip-path="url(#pd6cb473e3f)">
     <!-- ZAP70 -->
     <g transform="translate(257.113946 193.959486)scale(0.1 -0.1)">
      <defs>
       <path d="M 5.609375 72.90625 
L 62.890625 72.90625 
L 62.890625 65.375 
L 16.796875 8.296875 
L 64.015625 8.296875 
L 64.015625 0 
L 4.5 0 
L 4.5 7.515625 
L 50.59375 64.59375 
L 5.609375 64.59375 
z
" id="DejaVuSans-90"/>
       <path d="M 8.203125 72.90625 
L 55.078125 72.90625 
L 55.078125 68.703125 
L 28.609375 0 
L 18.3125 0 
L 43.21875 64.59375 
L 8.203125 64.59375 
z
" id="DejaVuSans-55"/>
      </defs>
      <use xlink:href="#DejaVuSans-90"/>
      <use x="68.505859" xlink:href="#DejaVuSans-65"/>
      <use x="136.914062" xlink:href="#DejaVuSans-80"/>
      <use x="197.216797" xlink:href="#DejaVuSans-55"/>
      <use x="260.839844" xlink:href="#DejaVuSans-48"/>
     </g>
    </g>
   </g>
   <g id="text_11">
    <g clip-path="url(#pd6cb473e3f)">
     <!-- LCK -->
     <g transform="translate(457.020761 190.549327)scale(0.1 -0.1)">
      <use xlink:href="#DejaVuSans-76"/>
      <use x="55.712891" xlink:href="#DejaVuSans-67"/>
      <use x="125.537109" xlink:href="#DejaVuSans-75"/>
     </g>
    </g>
   </g>
   <g id="text_12">
    <g clip-path="url(#pd6cb473e3f)">
     <!-- SH2D1B -->
     <g transform="translate(44.728441 201.212659)scale(0.1 -0.1)">
      <defs>
       <path d="M 19.671875 64.796875 
L 19.671875 8.109375 
L 31.59375 8.109375 
Q 46.6875 8.109375 53.6875 14.9375 
Q 60.6875 21.78125 60.6875 36.53125 
Q 60.6875 51.171875 53.6875 57.984375 
Q 46.6875 64.796875 31.59375 64.796875 
z
M 9.8125 72.90625 
L 30.078125 72.90625 
Q 51.265625 72.90625 61.171875 64.09375 
Q 71.09375 55.28125 71.09375 36.53125 
Q 71.09375 17.671875 61.125 8.828125 
Q 51.171875 0 30.078125 0 
L 9.8125 0 
z
" id="DejaVuSans-68"/>
      </defs>
      <use xlink:href="#DejaVuSans-83"/>
      <use x="63.476562" xlink:href="#DejaVuSans-72"/>
      <use x="138.671875" xlink:href="#DejaVuSans-50"/>
      <use x="202.294922" xlink:href="#DejaVuSans-68"/>
      <use x="279.296875" xlink:href="#DejaVuSans-49"/>
      <use x="342.919922" xlink:href="#DejaVuSans-66"/>
     </g>
    </g>
   </g>
   <g id="text_13">
    <g clip-path="url(#pd6cb473e3f)">
     <!-- SH2D1A -->
     <g transform="translate(307.394476 388.8204)scale(0.1 -0.1)">
      <use xlink:href="#DejaVuSans-83"/>
      <use x="63.476562" xlink:href="#DejaVuSans-72"/>
      <use x="138.671875" xlink:href="#DejaVuSans-50"/>
      <use x="202.294922" xlink:href="#DejaVuSans-68"/>
      <use x="279.296875" xlink:href="#DejaVuSans-49"/>
      <use x="342.919922" xlink:href="#DejaVuSans-65"/>
     </g>
    </g>
   </g>
   <g id="text_14">
    <g clip-path="url(#pd6cb473e3f)">
     <!-- HCST -->
     <g transform="translate(415.234945 230.057173)scale(0.1 -0.1)">
      <use xlink:href="#DejaVuSans-72"/>
      <use x="75.195312" xlink:href="#DejaVuSans-67"/>
      <use x="145.019531" xlink:href="#DejaVuSans-83"/>
      <use x="208.496094" xlink:href="#DejaVuSans-84"/>
     </g>
    </g>
   </g>
   <g id="text_15">
    <g clip-path="url(#pd6cb473e3f)">
     <!-- FCER1G -->
     <g transform="translate(341.127003 222.327333)scale(0.1 -0.1)">
      <defs>
       <path d="M 9.8125 72.90625 
L 55.90625 72.90625 
L 55.90625 64.59375 
L 19.671875 64.59375 
L 19.671875 43.015625 
L 54.390625 43.015625 
L 54.390625 34.71875 
L 19.671875 34.71875 
L 19.671875 8.296875 
L 56.78125 8.296875 
L 56.78125 0 
L 9.8125 0 
z
" id="DejaVuSans-69"/>
       <path d="M 44.390625 34.1875 
Q 47.5625 33.109375 50.5625 29.59375 
Q 53.5625 26.078125 56.59375 19.921875 
L 66.609375 0 
L 56 0 
L 46.6875 18.703125 
Q 43.0625 26.03125 39.671875 28.421875 
Q 36.28125 30.8125 30.421875 30.8125 
L 19.671875 30.8125 
L 19.671875 0 
L 9.8125 0 
L 9.8125 72.90625 
L 32.078125 72.90625 
Q 44.578125 72.90625 50.734375 67.671875 
Q 56.890625 62.453125 56.890625 51.90625 
Q 56.890625 45.015625 53.6875 40.46875 
Q 50.484375 35.9375 44.390625 34.1875 
z
M 19.671875 64.796875 
L 19.671875 38.921875 
L 32.078125 38.921875 
Q 39.203125 38.921875 42.84375 42.21875 
Q 46.484375 45.515625 46.484375 51.90625 
Q 46.484375 58.296875 42.84375 61.546875 
Q 39.203125 64.796875 32.078125 64.796875 
z
" id="DejaVuSans-82"/>
      </defs>
      <use xlink:href="#DejaVuSans-70"/>
      <use x="57.519531" xlink:href="#DejaVuSans-67"/>
      <use x="127.34375" xlink:href="#DejaVuSans-69"/>
      <use x="190.527344" xlink:href="#DejaVuSans-82"/>
      <use x="260.009766" xlink:href="#DejaVuSans-49"/>
      <use x="323.632812" xlink:href="#DejaVuSans-71"/>
     </g>
    </g>
   </g>
   <g id="text_16">
    <g clip-path="url(#pd6cb473e3f)">
     <!-- TYROBP -->
     <g transform="translate(253.256291 123.92309)scale(0.1 -0.1)">
      <defs>
       <path d="M 39.40625 66.21875 
Q 28.65625 66.21875 22.328125 58.203125 
Q 16.015625 50.203125 16.015625 36.375 
Q 16.015625 22.609375 22.328125 14.59375 
Q 28.65625 6.59375 39.40625 6.59375 
Q 50.140625 6.59375 56.421875 14.59375 
Q 62.703125 22.609375 62.703125 36.375 
Q 62.703125 50.203125 56.421875 58.203125 
Q 50.140625 66.21875 39.40625 66.21875 
z
M 39.40625 74.21875 
Q 54.734375 74.21875 63.90625 63.9375 
Q 73.09375 53.65625 73.09375 36.375 
Q 73.09375 19.140625 63.90625 8.859375 
Q 54.734375 -1.421875 39.40625 -1.421875 
Q 24.03125 -1.421875 14.8125 8.828125 
Q 5.609375 19.09375 5.609375 36.375 
Q 5.609375 53.65625 14.8125 63.9375 
Q 24.03125 74.21875 39.40625 74.21875 
z
" id="DejaVuSans-79"/>
      </defs>
      <use xlink:href="#DejaVuSans-84"/>
      <use x="61.083984" xlink:href="#DejaVuSans-89"/>
      <use x="122.167969" xlink:href="#DejaVuSans-82"/>
      <use x="191.650391" xlink:href="#DejaVuSans-79"/>
      <use x="270.361328" xlink:href="#DejaVuSans-66"/>
      <use x="338.964844" xlink:href="#DejaVuSans-80"/>
     </g>
    </g>
   </g>
   <g id="text_17">
    <g clip-path="url(#pd6cb473e3f)">
     <!-- PTPN11 -->
     <g transform="translate(354.663185 63.564773)scale(0.1 -0.1)">
      <use xlink:href="#DejaVuSans-80"/>
      <use x="60.302734" xlink:href="#DejaVuSans-84"/>
      <use x="121.386719" xlink:href="#DejaVuSans-80"/>
      <use x="181.689453" xlink:href="#DejaVuSans-78"/>
      <use x="256.494141" xlink:href="#DejaVuSans-49"/>
      <use x="320.117188" xlink:href="#DejaVuSans-49"/>
     </g>
    </g>
   </g>
   <g id="text_18">
    <g clip-path="url(#pd6cb473e3f)">
     <!-- PTPN6 -->
     <g transform="translate(501.027088 190.599771)scale(0.1 -0.1)">
      <defs>
       <path d="M 33.015625 40.375 
Q 26.375 40.375 22.484375 35.828125 
Q 18.609375 31.296875 18.609375 23.390625 
Q 18.609375 15.53125 22.484375 10.953125 
Q 26.375 6.390625 33.015625 6.390625 
Q 39.65625 6.390625 43.53125 10.953125 
Q 47.40625 15.53125 47.40625 23.390625 
Q 47.40625 31.296875 43.53125 35.828125 
Q 39.65625 40.375 33.015625 40.375 
z
M 52.59375 71.296875 
L 52.59375 62.3125 
Q 48.875 64.0625 45.09375 64.984375 
Q 41.3125 65.921875 37.59375 65.921875 
Q 27.828125 65.921875 22.671875 59.328125 
Q 17.53125 52.734375 16.796875 39.40625 
Q 19.671875 43.65625 24.015625 45.921875 
Q 28.375 48.1875 33.59375 48.1875 
Q 44.578125 48.1875 50.953125 41.515625 
Q 57.328125 34.859375 57.328125 23.390625 
Q 57.328125 12.15625 50.6875 5.359375 
Q 44.046875 -1.421875 33.015625 -1.421875 
Q 20.359375 -1.421875 13.671875 8.265625 
Q 6.984375 17.96875 6.984375 36.375 
Q 6.984375 53.65625 15.1875 63.9375 
Q 23.390625 74.21875 37.203125 74.21875 
Q 40.921875 74.21875 44.703125 73.484375 
Q 48.484375 72.75 52.59375 71.296875 
z
" id="DejaVuSans-54"/>
      </defs>
      <use xlink:href="#DejaVuSans-80"/>
      <use x="60.302734" xlink:href="#DejaVuSans-84"/>
      <use x="121.386719" xlink:href="#DejaVuSans-80"/>
      <use x="181.689453" xlink:href="#DejaVuSans-78"/>
      <use x="256.494141" xlink:href="#DejaVuSans-54"/>
     </g>
    </g>
   </g>
   <g id="text_19">
    <g clip-path="url(#pd6cb473e3f)">
     <!-- BID -->
     <g transform="translate(606.303075 173.608623)scale(0.1 -0.1)">
      <use xlink:href="#DejaVuSans-66"/>
      <use x="68.603516" xlink:href="#DejaVuSans-73"/>
      <use x="98.095703" xlink:href="#DejaVuSans-68"/>
     </g>
    </g>
   </g>
   <g id="text_20">
    <g clip-path="url(#pd6cb473e3f)">
     <!-- CASP3 -->
     <g transform="translate(97.690337 364.998623)scale(0.1 -0.1)">
      <use xlink:href="#DejaVuSans-67"/>
      <use x="69.824219" xlink:href="#DejaVuSans-65"/>
      <use x="138.232422" xlink:href="#DejaVuSans-83"/>
      <use x="201.708984" xlink:href="#DejaVuSans-80"/>
      <use x="262.011719" xlink:href="#DejaVuSans-51"/>
     </g>
    </g>
   </g>
   <g id="text_21">
    <g clip-path="url(#pd6cb473e3f)">
     <!-- GZMB -->
     <g transform="translate(295.597796 144.423147)scale(0.1 -0.1)">
      <defs>
       <path d="M 9.8125 72.90625 
L 24.515625 72.90625 
L 43.109375 23.296875 
L 61.8125 72.90625 
L 76.515625 72.90625 
L 76.515625 0 
L 66.890625 0 
L 66.890625 64.015625 
L 48.09375 14.015625 
L 38.1875 14.015625 
L 19.390625 64.015625 
L 19.390625 0 
L 9.8125 0 
z
" id="DejaVuSans-77"/>
      </defs>
      <use xlink:href="#DejaVuSans-71"/>
      <use x="77.490234" xlink:href="#DejaVuSans-90"/>
      <use x="145.996094" xlink:href="#DejaVuSans-77"/>
      <use x="232.275391" xlink:href="#DejaVuSans-66"/>
     </g>
    </g>
   </g>
   <g id="text_22">
    <g clip-path="url(#pd6cb473e3f)">
     <!-- CD48 -->
     <g transform="translate(216.493632 75.146045)scale(0.1 -0.1)">
      <defs>
       <path d="M 37.796875 64.3125 
L 12.890625 25.390625 
L 37.796875 25.390625 
z
M 35.203125 72.90625 
L 47.609375 72.90625 
L 47.609375 25.390625 
L 58.015625 25.390625 
L 58.015625 17.1875 
L 47.609375 17.1875 
L 47.609375 0 
L 37.796875 0 
L 37.796875 17.1875 
L 4.890625 17.1875 
L 4.890625 26.703125 
z
" id="DejaVuSans-52"/>
       <path d="M 31.78125 34.625 
Q 24.75 34.625 20.71875 30.859375 
Q 16.703125 27.09375 16.703125 20.515625 
Q 16.703125 13.921875 20.71875 10.15625 
Q 24.75 6.390625 31.78125 6.390625 
Q 38.8125 6.390625 42.859375 10.171875 
Q 46.921875 13.96875 46.921875 20.515625 
Q 46.921875 27.09375 42.890625 30.859375 
Q 38.875 34.625 31.78125 34.625 
z
M 21.921875 38.8125 
Q 15.578125 40.375 12.03125 44.71875 
Q 8.5 49.078125 8.5 55.328125 
Q 8.5 64.0625 14.71875 69.140625 
Q 20.953125 74.21875 31.78125 74.21875 
Q 42.671875 74.21875 48.875 69.140625 
Q 55.078125 64.0625 55.078125 55.328125 
Q 55.078125 49.078125 51.53125 44.71875 
Q 48 40.375 41.703125 38.8125 
Q 48.828125 37.15625 52.796875 32.3125 
Q 56.78125 27.484375 56.78125 20.515625 
Q 56.78125 9.90625 50.3125 4.234375 
Q 43.84375 -1.421875 31.78125 -1.421875 
Q 19.734375 -1.421875 13.25 4.234375 
Q 6.78125 9.90625 6.78125 20.515625 
Q 6.78125 27.484375 10.78125 32.3125 
Q 14.796875 37.15625 21.921875 38.8125 
z
M 18.3125 54.390625 
Q 18.3125 48.734375 21.84375 45.5625 
Q 25.390625 42.390625 31.78125 42.390625 
Q 38.140625 42.390625 41.71875 45.5625 
Q 45.3125 48.734375 45.3125 54.390625 
Q 45.3125 60.0625 41.71875 63.234375 
Q 38.140625 66.40625 31.78125 66.40625 
Q 25.390625 66.40625 21.84375 63.234375 
Q 18.3125 60.0625 18.3125 54.390625 
z
" id="DejaVuSans-56"/>
      </defs>
      <use xlink:href="#DejaVuSans-67"/>
      <use x="69.824219" xlink:href="#DejaVuSans-68"/>
      <use x="146.826172" xlink:href="#DejaVuSans-52"/>
      <use x="210.449219" xlink:href="#DejaVuSans-56"/>
     </g>
    </g>
   </g>
   <g id="text_23">
    <g clip-path="url(#pd6cb473e3f)">
     <!-- GRB2 -->
     <g transform="translate(596.912008 271.0814)scale(0.1 -0.1)">
      <use xlink:href="#DejaVuSans-71"/>
      <use x="77.490234" xlink:href="#DejaVuSans-82"/>
      <use x="146.972656" xlink:href="#DejaVuSans-66"/>
      <use x="215.576172" xlink:href="#DejaVuSans-50"/>
     </g>
    </g>
   </g>
   <g id="text_24">
    <g clip-path="url(#pd6cb473e3f)">
     <!-- PAK1 -->
     <g transform="translate(520.008307 107.170897)scale(0.1 -0.1)">
      <use xlink:href="#DejaVuSans-80"/>
      <use x="53.927734" xlink:href="#DejaVuSans-65"/>
      <use x="122.335938" xlink:href="#DejaVuSans-75"/>
      <use x="187.912109" xlink:href="#DejaVuSans-49"/>
     </g>
    </g>
   </g>
   <g id="text_25">
    <g clip-path="url(#pd6cb473e3f)">
     <!-- KLRD1 -->
     <g transform="translate(602.123902 189.270432)scale(0.1 -0.1)">
      <use xlink:href="#DejaVuSans-75"/>
      <use x="65.576172" xlink:href="#DejaVuSans-76"/>
      <use x="121.289062" xlink:href="#DejaVuSans-82"/>
      <use x="190.771484" xlink:href="#DejaVuSans-68"/>
      <use x="267.773438" xlink:href="#DejaVuSans-49"/>
     </g>
    </g>
   </g>
   <g id="text_26">
    <g clip-path="url(#pd6cb473e3f)">
     <!-- CD244 -->
     <g transform="translate(209.435298 214.187057)scale(0.1 -0.1)">
      <use xlink:href="#DejaVuSans-67"/>
      <use x="69.824219" xlink:href="#DejaVuSans-68"/>
      <use x="146.826172" xlink:href="#DejaVuSans-50"/>
      <use x="210.449219" xlink:href="#DejaVuSans-52"/>
      <use x="274.072266" xlink:href="#DejaVuSans-52"/>
     </g>
    </g>
   </g>
   <g id="text_27">
    <g clip-path="url(#pd6cb473e3f)">
     <!-- KLRK1 -->
     <g transform="translate(508.985223 388.764451)scale(0.1 -0.1)">
      <use xlink:href="#DejaVuSans-75"/>
      <use x="65.576172" xlink:href="#DejaVuSans-76"/>
      <use x="121.289062" xlink:href="#DejaVuSans-82"/>
      <use x="190.771484" xlink:href="#DejaVuSans-75"/>
      <use x="256.347656" xlink:href="#DejaVuSans-49"/>
     </g>
    </g>
   </g>
   <g id="text_28">
    <g clip-path="url(#pd6cb473e3f)">
     <!-- NCR3 -->
     <g transform="translate(350.047103 430.110227)scale(0.1 -0.1)">
      <use xlink:href="#DejaVuSans-78"/>
      <use x="74.804688" xlink:href="#DejaVuSans-67"/>
      <use x="144.628906" xlink:href="#DejaVuSans-82"/>
      <use x="214.111328" xlink:href="#DejaVuSans-51"/>
     </g>
    </g>
   </g>
   <g id="text_29">
    <g clip-path="url(#pd6cb473e3f)">
     <!-- NCR1 -->
     <g transform="translate(415.5957 422.191573)scale(0.1 -0.1)">
      <use xlink:href="#DejaVuSans-78"/>
      <use x="74.804688" xlink:href="#DejaVuSans-67"/>
      <use x="144.628906" xlink:href="#DejaVuSans-82"/>
      <use x="214.111328" xlink:href="#DejaVuSans-49"/>
     </g>
    </g>
   </g>
   <g id="text_30">
    <g clip-path="url(#pd6cb473e3f)">
     <!-- ITGB2 -->
     <g transform="translate(299.63225 350.653233)scale(0.1 -0.1)">
      <use xlink:href="#DejaVuSans-73"/>
      <use x="29.492188" xlink:href="#DejaVuSans-84"/>
      <use x="90.576172" xlink:href="#DejaVuSans-71"/>
      <use x="168.066406" xlink:href="#DejaVuSans-66"/>
      <use x="236.669922" xlink:href="#DejaVuSans-50"/>
     </g>
    </g>
   </g>
   <g id="text_31">
    <g clip-path="url(#pd6cb473e3f)">
     <!-- ITGAL -->
     <g transform="translate(581.048345 281.795274)scale(0.1 -0.1)">
      <use xlink:href="#DejaVuSans-73"/>
      <use x="29.492188" xlink:href="#DejaVuSans-84"/>
      <use x="90.576172" xlink:href="#DejaVuSans-71"/>
      <use x="168.066406" xlink:href="#DejaVuSans-65"/>
      <use x="236.474609" xlink:href="#DejaVuSans-76"/>
     </g>
    </g>
   </g>
   <g id="text_32">
    <g clip-path="url(#pd6cb473e3f)">
     <!-- KLRC1 -->
     <g transform="translate(409.234307 277.298541)scale(0.1 -0.1)">
      <use xlink:href="#DejaVuSans-75"/>
      <use x="65.576172" xlink:href="#DejaVuSans-76"/>
      <use x="121.289062" xlink:href="#DejaVuSans-82"/>
      <use x="185.771484" xlink:href="#DejaVuSans-67"/>
      <use x="255.595703" xlink:href="#DejaVuSans-49"/>
     </g>
    </g>
   </g>
   <g id="text_33">
    <g clip-path="url(#pd6cb473e3f)">
     <!-- NFATC2 -->
     <g transform="translate(72.437126 254.935523)scale(0.1 -0.1)">
      <use xlink:href="#DejaVuSans-78"/>
      <use x="74.804688" xlink:href="#DejaVuSans-70"/>
      <use x="123.199219" xlink:href="#DejaVuSans-65"/>
      <use x="183.857422" xlink:href="#DejaVuSans-84"/>
      <use x="239.066406" xlink:href="#DejaVuSans-67"/>
      <use x="308.890625" xlink:href="#DejaVuSans-50"/>
     </g>
    </g>
   </g>
   <g id="text_34">
    <g clip-path="url(#pd6cb473e3f)">
     <!-- NFATC1 -->
     <g transform="translate(74.727524 303.481626)scale(0.1 -0.1)">
      <use xlink:href="#DejaVuSans-78"/>
      <use x="74.804688" xlink:href="#DejaVuSans-70"/>
      <use x="123.199219" xlink:href="#DejaVuSans-65"/>
      <use x="183.857422" xlink:href="#DejaVuSans-84"/>
      <use x="239.066406" xlink:href="#DejaVuSans-67"/>
      <use x="308.890625" xlink:href="#DejaVuSans-49"/>
     </g>
    </g>
   </g>
   <g id="text_35">
    <g clip-path="url(#pd6cb473e3f)">
     <!-- IFNGR1 -->
     <g transform="translate(251.152051 387.641512)scale(0.1 -0.1)">
      <use xlink:href="#DejaVuSans-73"/>
      <use x="29.492188" xlink:href="#DejaVuSans-70"/>
      <use x="87.011719" xlink:href="#DejaVuSans-78"/>
      <use x="161.816406" xlink:href="#DejaVuSans-71"/>
      <use x="239.306641" xlink:href="#DejaVuSans-82"/>
      <use x="308.789062" xlink:href="#DejaVuSans-49"/>
     </g>
    </g>
   </g>
   <g id="text_36">
    <g clip-path="url(#pd6cb473e3f)">
     <!-- IFNGR2 -->
     <g transform="translate(162.148792 353.552684)scale(0.1 -0.1)">
      <use xlink:href="#DejaVuSans-73"/>
      <use x="29.492188" xlink:href="#DejaVuSans-70"/>
      <use x="87.011719" xlink:href="#DejaVuSans-78"/>
      <use x="161.816406" xlink:href="#DejaVuSans-71"/>
      <use x="239.306641" xlink:href="#DejaVuSans-82"/>
      <use x="308.789062" xlink:href="#DejaVuSans-50"/>
     </g>
    </g>
   </g>
   <g id="text_37">
    <g clip-path="url(#pd6cb473e3f)">
     <!-- PLCG1 -->
     <g transform="translate(312.965601 109.244452)scale(0.1 -0.1)">
      <use xlink:href="#DejaVuSans-80"/>
      <use x="60.302734" xlink:href="#DejaVuSans-76"/>
      <use x="116.015625" xlink:href="#DejaVuSans-67"/>
      <use x="185.839844" xlink:href="#DejaVuSans-71"/>
      <use x="263.330078" xlink:href="#DejaVuSans-49"/>
     </g>
    </g>
   </g>
   <g id="text_38">
    <g clip-path="url(#pd6cb473e3f)">
     <!-- PLCG2 -->
     <g transform="translate(234.159043 167.014605)scale(0.1 -0.1)">
      <use xlink:href="#DejaVuSans-80"/>
      <use x="60.302734" xlink:href="#DejaVuSans-76"/>
      <use x="116.015625" xlink:href="#DejaVuSans-67"/>
      <use x="185.839844" xlink:href="#DejaVuSans-71"/>
      <use x="263.330078" xlink:href="#DejaVuSans-50"/>
     </g>
    </g>
   </g>
   <g id="text_39">
    <g clip-path="url(#pd6cb473e3f)">
     <!-- PRKCA -->
     <g transform="translate(567.973377 344.342377)scale(0.1 -0.1)">
      <use xlink:href="#DejaVuSans-80"/>
      <use x="60.302734" xlink:href="#DejaVuSans-82"/>
      <use x="129.785156" xlink:href="#DejaVuSans-75"/>
      <use x="189.861328" xlink:href="#DejaVuSans-67"/>
      <use x="259.685547" xlink:href="#DejaVuSans-65"/>
     </g>
    </g>
   </g>
   <g id="text_40">
    <g clip-path="url(#pd6cb473e3f)">
     <!-- PRKCB -->
     <g transform="translate(443.538973 66.647456)scale(0.1 -0.1)">
      <use xlink:href="#DejaVuSans-80"/>
      <use x="60.302734" xlink:href="#DejaVuSans-82"/>
      <use x="129.785156" xlink:href="#DejaVuSans-75"/>
      <use x="189.861328" xlink:href="#DejaVuSans-67"/>
      <use x="259.685547" xlink:href="#DejaVuSans-66"/>
     </g>
    </g>
   </g>
   <g id="text_41">
    <g clip-path="url(#pd6cb473e3f)">
     <!-- LAT2 -->
     <g transform="translate(461.25971 103.388986)scale(0.1 -0.1)">
      <use xlink:href="#DejaVuSans-76"/>
      <use x="57.962891" xlink:href="#DejaVuSans-65"/>
      <use x="118.621094" xlink:href="#DejaVuSans-84"/>
      <use x="179.705078" xlink:href="#DejaVuSans-50"/>
     </g>
    </g>
   </g>
   <g id="text_42">
    <g clip-path="url(#pd6cb473e3f)">
     <!-- ICAM1 -->
     <g transform="translate(331.265115 184.939039)scale(0.1 -0.1)">
      <use xlink:href="#DejaVuSans-73"/>
      <use x="29.492188" xlink:href="#DejaVuSans-67"/>
      <use x="99.316406" xlink:href="#DejaVuSans-65"/>
      <use x="167.724609" xlink:href="#DejaVuSans-77"/>
      <use x="254.003906" xlink:href="#DejaVuSans-49"/>
     </g>
    </g>
   </g>
   <g id="text_43">
    <g clip-path="url(#pd6cb473e3f)">
     <!-- ICAM2 -->
     <g transform="translate(429.58238 394.350989)scale(0.1 -0.1)">
      <use xlink:href="#DejaVuSans-73"/>
      <use x="29.492188" xlink:href="#DejaVuSans-67"/>
      <use x="99.316406" xlink:href="#DejaVuSans-65"/>
      <use x="167.724609" xlink:href="#DejaVuSans-77"/>
      <use x="254.003906" xlink:href="#DejaVuSans-50"/>
     </g>
    </g>
   </g>
   <g id="text_44">
    <g clip-path="url(#pd6cb473e3f)">
     <!-- MAP2K1 -->
     <g transform="translate(154.069554 131.735187)scale(0.1 -0.1)">
      <use xlink:href="#DejaVuSans-77"/>
      <use x="86.279297" xlink:href="#DejaVuSans-65"/>
      <use x="154.6875" xlink:href="#DejaVuSans-80"/>
      <use x="214.990234" xlink:href="#DejaVuSans-50"/>
      <use x="278.613281" xlink:href="#DejaVuSans-75"/>
      <use x="344.189453" xlink:href="#DejaVuSans-49"/>
     </g>
    </g>
   </g>
   <g id="text_45">
    <g clip-path="url(#pd6cb473e3f)">
     <!-- MAP2K2 -->
     <g transform="translate(537.398113 97.872726)scale(0.1 -0.1)">
      <use xlink:href="#DejaVuSans-77"/>
      <use x="86.279297" xlink:href="#DejaVuSans-65"/>
      <use x="154.6875" xlink:href="#DejaVuSans-80"/>
      <use x="214.990234" xlink:href="#DejaVuSans-50"/>
      <use x="278.613281" xlink:href="#DejaVuSans-75"/>
      <use x="344.189453" xlink:href="#DejaVuSans-50"/>
     </g>
    </g>
   </g>
   <g id="text_46">
    <g clip-path="url(#pd6cb473e3f)">
     <!-- BRAF -->
     <g transform="translate(183.096988 257.849398)scale(0.1 -0.1)">
      <use xlink:href="#DejaVuSans-66"/>
      <use x="68.603516" xlink:href="#DejaVuSans-82"/>
      <use x="134.085938" xlink:href="#DejaVuSans-65"/>
      <use x="202.494141" xlink:href="#DejaVuSans-70"/>
     </g>
    </g>
   </g>
   <g id="text_47">
    <g clip-path="url(#pd6cb473e3f)">
     <!-- RAF1 -->
     <g transform="translate(324.486908 271.4498)scale(0.1 -0.1)">
      <use xlink:href="#DejaVuSans-82"/>
      <use x="65.482422" xlink:href="#DejaVuSans-65"/>
      <use x="133.890625" xlink:href="#DejaVuSans-70"/>
      <use x="191.410156" xlink:href="#DejaVuSans-49"/>
     </g>
    </g>
   </g>
   <g id="text_48">
    <g clip-path="url(#pd6cb473e3f)">
     <!-- ARAF -->
     <g transform="translate(346.855214 240.840058)scale(0.1 -0.1)">
      <use xlink:href="#DejaVuSans-65"/>
      <use x="68.408203" xlink:href="#DejaVuSans-82"/>
      <use x="133.890625" xlink:href="#DejaVuSans-65"/>
      <use x="202.298828" xlink:href="#DejaVuSans-70"/>
     </g>
    </g>
   </g>
   <g id="text_49">
    <g clip-path="url(#pd6cb473e3f)">
     <!-- HRAS -->
     <g transform="translate(193.294965 380.977287)scale(0.1 -0.1)">
      <use xlink:href="#DejaVuSans-72"/>
      <use x="75.195312" xlink:href="#DejaVuSans-82"/>
      <use x="140.677734" xlink:href="#DejaVuSans-65"/>
      <use x="209.085938" xlink:href="#DejaVuSans-83"/>
     </g>
    </g>
   </g>
   <g id="text_50">
    <g clip-path="url(#pd6cb473e3f)">
     <!-- KRAS -->
     <g transform="translate(345.105693 352.874275)scale(0.1 -0.1)">
      <use xlink:href="#DejaVuSans-75"/>
      <use x="65.576172" xlink:href="#DejaVuSans-82"/>
      <use x="131.058594" xlink:href="#DejaVuSans-65"/>
      <use x="199.466797" xlink:href="#DejaVuSans-83"/>
     </g>
    </g>
   </g>
   <g id="text_51">
    <g clip-path="url(#pd6cb473e3f)">
     <!-- NRAS -->
     <g transform="translate(85.992896 278.404982)scale(0.1 -0.1)">
      <use xlink:href="#DejaVuSans-78"/>
      <use x="74.804688" xlink:href="#DejaVuSans-82"/>
      <use x="140.287109" xlink:href="#DejaVuSans-65"/>
      <use x="208.695312" xlink:href="#DejaVuSans-83"/>
     </g>
    </g>
   </g>
   <g id="text_52">
    <g clip-path="url(#pd6cb473e3f)">
     <!-- SHC1 -->
     <g transform="translate(537.370226 343.36948)scale(0.1 -0.1)">
      <use xlink:href="#DejaVuSans-83"/>
      <use x="63.476562" xlink:href="#DejaVuSans-72"/>
      <use x="138.671875" xlink:href="#DejaVuSans-67"/>
      <use x="208.496094" xlink:href="#DejaVuSans-49"/>
     </g>
    </g>
   </g>
   <g id="text_53">
    <g clip-path="url(#pd6cb473e3f)">
     <!-- RAC1 -->
     <g transform="translate(203.938638 83.791725)scale(0.1 -0.1)">
      <use xlink:href="#DejaVuSans-82"/>
      <use x="65.482422" xlink:href="#DejaVuSans-65"/>
      <use x="132.140625" xlink:href="#DejaVuSans-67"/>
      <use x="201.964844" xlink:href="#DejaVuSans-49"/>
     </g>
    </g>
   </g>
   <g id="text_54">
    <g clip-path="url(#pd6cb473e3f)">
     <!-- RAC2 -->
     <g transform="translate(345.932569 72.735133)scale(0.1 -0.1)">
      <use xlink:href="#DejaVuSans-82"/>
      <use x="65.482422" xlink:href="#DejaVuSans-65"/>
      <use x="132.140625" xlink:href="#DejaVuSans-67"/>
      <use x="201.964844" xlink:href="#DejaVuSans-50"/>
     </g>
    </g>
   </g>
   <g id="text_55">
    <g clip-path="url(#pd6cb473e3f)">
     <!-- IFNAR1 -->
     <g transform="translate(521.439861 305.23683)scale(0.1 -0.1)">
      <use xlink:href="#DejaVuSans-73"/>
      <use x="29.492188" xlink:href="#DejaVuSans-70"/>
      <use x="87.011719" xlink:href="#DejaVuSans-78"/>
      <use x="161.816406" xlink:href="#DejaVuSans-65"/>
      <use x="230.224609" xlink:href="#DejaVuSans-82"/>
      <use x="299.707031" xlink:href="#DejaVuSans-49"/>
     </g>
    </g>
   </g>
   <g id="text_56">
    <g clip-path="url(#pd6cb473e3f)">
     <!-- IFNAR2 -->
     <g transform="translate(493.699937 126.726328)scale(0.1 -0.1)">
      <use xlink:href="#DejaVuSans-73"/>
      <use x="29.492188" xlink:href="#DejaVuSans-70"/>
      <use x="87.011719" xlink:href="#DejaVuSans-78"/>
      <use x="161.816406" xlink:href="#DejaVuSans-65"/>
      <use x="230.224609" xlink:href="#DejaVuSans-82"/>
      <use x="299.707031" xlink:href="#DejaVuSans-50"/>
     </g>
    </g>
   </g>
   <g id="text_57">
    <!-- Importance Score for Each Node in the Network -->
    <g transform="translate(198.616875 16.318125)scale(0.12 -0.12)">
     <defs>
      <path d="M 52 44.1875 
Q 55.375 50.25 60.0625 53.125 
Q 64.75 56 71.09375 56 
Q 79.640625 56 84.28125 50.015625 
Q 88.921875 44.046875 88.921875 33.015625 
L 88.921875 0 
L 79.890625 0 
L 79.890625 32.71875 
Q 79.890625 40.578125 77.09375 44.375 
Q 74.3125 48.1875 68.609375 48.1875 
Q 61.625 48.1875 57.5625 43.546875 
Q 53.515625 38.921875 53.515625 30.90625 
L 53.515625 0 
L 44.484375 0 
L 44.484375 32.71875 
Q 44.484375 40.625 41.703125 44.40625 
Q 38.921875 48.1875 33.109375 48.1875 
Q 26.21875 48.1875 22.15625 43.53125 
Q 18.109375 38.875 18.109375 30.90625 
L 18.109375 0 
L 9.078125 0 
L 9.078125 54.6875 
L 18.109375 54.6875 
L 18.109375 46.1875 
Q 21.1875 51.21875 25.484375 53.609375 
Q 29.78125 56 35.6875 56 
Q 41.65625 56 45.828125 52.96875 
Q 50 49.953125 52 44.1875 
z
" id="DejaVuSans-109"/>
      <path d="M 18.109375 8.203125 
L 18.109375 -20.796875 
L 9.078125 -20.796875 
L 9.078125 54.6875 
L 18.109375 54.6875 
L 18.109375 46.390625 
Q 20.953125 51.265625 25.265625 53.625 
Q 29.59375 56 35.59375 56 
Q 45.5625 56 51.78125 48.09375 
Q 58.015625 40.1875 58.015625 27.296875 
Q 58.015625 14.40625 51.78125 6.484375 
Q 45.5625 -1.421875 35.59375 -1.421875 
Q 29.59375 -1.421875 25.265625 0.953125 
Q 20.953125 3.328125 18.109375 8.203125 
z
M 48.6875 27.296875 
Q 48.6875 37.203125 44.609375 42.84375 
Q 40.53125 48.484375 33.40625 48.484375 
Q 26.265625 48.484375 22.1875 42.84375 
Q 18.109375 37.203125 18.109375 27.296875 
Q 18.109375 17.390625 22.1875 11.75 
Q 26.265625 6.109375 33.40625 6.109375 
Q 40.53125 6.109375 44.609375 11.75 
Q 48.6875 17.390625 48.6875 27.296875 
z
" id="DejaVuSans-112"/>
      <path d="M 30.609375 48.390625 
Q 23.390625 48.390625 19.1875 42.75 
Q 14.984375 37.109375 14.984375 27.296875 
Q 14.984375 17.484375 19.15625 11.84375 
Q 23.34375 6.203125 30.609375 6.203125 
Q 37.796875 6.203125 41.984375 11.859375 
Q 46.1875 17.53125 46.1875 27.296875 
Q 46.1875 37.015625 41.984375 42.703125 
Q 37.796875 48.390625 30.609375 48.390625 
z
M 30.609375 56 
Q 42.328125 56 49.015625 48.375 
Q 55.71875 40.765625 55.71875 27.296875 
Q 55.71875 13.875 49.015625 6.21875 
Q 42.328125 -1.421875 30.609375 -1.421875 
Q 18.84375 -1.421875 12.171875 6.21875 
Q 5.515625 13.875 5.515625 27.296875 
Q 5.515625 40.765625 12.171875 48.375 
Q 18.84375 56 30.609375 56 
z
" id="DejaVuSans-111"/>
      <path d="M 41.109375 46.296875 
Q 39.59375 47.171875 37.8125 47.578125 
Q 36.03125 48 33.890625 48 
Q 26.265625 48 22.1875 43.046875 
Q 18.109375 38.09375 18.109375 28.8125 
L 18.109375 0 
L 9.078125 0 
L 9.078125 54.6875 
L 18.109375 54.6875 
L 18.109375 46.1875 
Q 20.953125 51.171875 25.484375 53.578125 
Q 30.03125 56 36.53125 56 
Q 37.453125 56 38.578125 55.875 
Q 39.703125 55.765625 41.0625 55.515625 
z
" id="DejaVuSans-114"/>
      <path d="M 18.3125 70.21875 
L 18.3125 54.6875 
L 36.8125 54.6875 
L 36.8125 47.703125 
L 18.3125 47.703125 
L 18.3125 18.015625 
Q 18.3125 11.328125 20.140625 9.421875 
Q 21.96875 7.515625 27.59375 7.515625 
L 36.8125 7.515625 
L 36.8125 0 
L 27.59375 0 
Q 17.1875 0 13.234375 3.875 
Q 9.28125 7.765625 9.28125 18.015625 
L 9.28125 47.703125 
L 2.6875 47.703125 
L 2.6875 54.6875 
L 9.28125 54.6875 
L 9.28125 70.21875 
z
" id="DejaVuSans-116"/>
      <path d="M 34.28125 27.484375 
Q 23.390625 27.484375 19.1875 25 
Q 14.984375 22.515625 14.984375 16.5 
Q 14.984375 11.71875 18.140625 8.90625 
Q 21.296875 6.109375 26.703125 6.109375 
Q 34.1875 6.109375 38.703125 11.40625 
Q 43.21875 16.703125 43.21875 25.484375 
L 43.21875 27.484375 
z
M 52.203125 31.203125 
L 52.203125 0 
L 43.21875 0 
L 43.21875 8.296875 
Q 40.140625 3.328125 35.546875 0.953125 
Q 30.953125 -1.421875 24.3125 -1.421875 
Q 15.921875 -1.421875 10.953125 3.296875 
Q 6 8.015625 6 15.921875 
Q 6 25.140625 12.171875 29.828125 
Q 18.359375 34.515625 30.609375 34.515625 
L 43.21875 34.515625 
L 43.21875 35.40625 
Q 43.21875 41.609375 39.140625 45 
Q 35.0625 48.390625 27.6875 48.390625 
Q 23 48.390625 18.546875 47.265625 
Q 14.109375 46.140625 10.015625 43.890625 
L 10.015625 52.203125 
Q 14.9375 54.109375 19.578125 55.046875 
Q 24.21875 56 28.609375 56 
Q 40.484375 56 46.34375 49.84375 
Q 52.203125 43.703125 52.203125 31.203125 
z
" id="DejaVuSans-97"/>
      <path d="M 54.890625 33.015625 
L 54.890625 0 
L 45.90625 0 
L 45.90625 32.71875 
Q 45.90625 40.484375 42.875 44.328125 
Q 39.84375 48.1875 33.796875 48.1875 
Q 26.515625 48.1875 22.3125 43.546875 
Q 18.109375 38.921875 18.109375 30.90625 
L 18.109375 0 
L 9.078125 0 
L 9.078125 54.6875 
L 18.109375 54.6875 
L 18.109375 46.1875 
Q 21.34375 51.125 25.703125 53.5625 
Q 30.078125 56 35.796875 56 
Q 45.21875 56 50.046875 50.171875 
Q 54.890625 44.34375 54.890625 33.015625 
z
" id="DejaVuSans-110"/>
      <path d="M 48.78125 52.59375 
L 48.78125 44.1875 
Q 44.96875 46.296875 41.140625 47.34375 
Q 37.3125 48.390625 33.40625 48.390625 
Q 24.65625 48.390625 19.8125 42.84375 
Q 14.984375 37.3125 14.984375 27.296875 
Q 14.984375 17.28125 19.8125 11.734375 
Q 24.65625 6.203125 33.40625 6.203125 
Q 37.3125 6.203125 41.140625 7.25 
Q 44.96875 8.296875 48.78125 10.40625 
L 48.78125 2.09375 
Q 45.015625 0.34375 40.984375 -0.53125 
Q 36.96875 -1.421875 32.421875 -1.421875 
Q 20.0625 -1.421875 12.78125 6.34375 
Q 5.515625 14.109375 5.515625 27.296875 
Q 5.515625 40.671875 12.859375 48.328125 
Q 20.21875 56 33.015625 56 
Q 37.15625 56 41.109375 55.140625 
Q 45.0625 54.296875 48.78125 52.59375 
z
" id="DejaVuSans-99"/>
      <path d="M 56.203125 29.59375 
L 56.203125 25.203125 
L 14.890625 25.203125 
Q 15.484375 15.921875 20.484375 11.0625 
Q 25.484375 6.203125 34.421875 6.203125 
Q 39.59375 6.203125 44.453125 7.46875 
Q 49.3125 8.734375 54.109375 11.28125 
L 54.109375 2.78125 
Q 49.265625 0.734375 44.1875 -0.34375 
Q 39.109375 -1.421875 33.890625 -1.421875 
Q 20.796875 -1.421875 13.15625 6.1875 
Q 5.515625 13.8125 5.515625 26.8125 
Q 5.515625 40.234375 12.765625 48.109375 
Q 20.015625 56 32.328125 56 
Q 43.359375 56 49.78125 48.890625 
Q 56.203125 41.796875 56.203125 29.59375 
z
M 47.21875 32.234375 
Q 47.125 39.59375 43.09375 43.984375 
Q 39.0625 48.390625 32.421875 48.390625 
Q 24.90625 48.390625 20.390625 44.140625 
Q 15.875 39.890625 15.1875 32.171875 
z
" id="DejaVuSans-101"/>
      <path id="DejaVuSans-32"/>
      <path d="M 37.109375 75.984375 
L 37.109375 68.5 
L 28.515625 68.5 
Q 23.6875 68.5 21.796875 66.546875 
Q 19.921875 64.59375 19.921875 59.515625 
L 19.921875 54.6875 
L 34.71875 54.6875 
L 34.71875 47.703125 
L 19.921875 47.703125 
L 19.921875 0 
L 10.890625 0 
L 10.890625 47.703125 
L 2.296875 47.703125 
L 2.296875 54.6875 
L 10.890625 54.6875 
L 10.890625 58.5 
Q 10.890625 67.625 15.140625 71.796875 
Q 19.390625 75.984375 28.609375 75.984375 
z
" id="DejaVuSans-102"/>
      <path d="M 54.890625 33.015625 
L 54.890625 0 
L 45.90625 0 
L 45.90625 32.71875 
Q 45.90625 40.484375 42.875 44.328125 
Q 39.84375 48.1875 33.796875 48.1875 
Q 26.515625 48.1875 22.3125 43.546875 
Q 18.109375 38.921875 18.109375 30.90625 
L 18.109375 0 
L 9.078125 0 
L 9.078125 75.984375 
L 18.109375 75.984375 
L 18.109375 46.1875 
Q 21.34375 51.125 25.703125 53.5625 
Q 30.078125 56 35.796875 56 
Q 45.21875 56 50.046875 50.171875 
Q 54.890625 44.34375 54.890625 33.015625 
z
" id="DejaVuSans-104"/>
      <path d="M 45.40625 46.390625 
L 45.40625 75.984375 
L 54.390625 75.984375 
L 54.390625 0 
L 45.40625 0 
L 45.40625 8.203125 
Q 42.578125 3.328125 38.25 0.953125 
Q 33.9375 -1.421875 27.875 -1.421875 
Q 17.96875 -1.421875 11.734375 6.484375 
Q 5.515625 14.40625 5.515625 27.296875 
Q 5.515625 40.1875 11.734375 48.09375 
Q 17.96875 56 27.875 56 
Q 33.9375 56 38.25 53.625 
Q 42.578125 51.265625 45.40625 46.390625 
z
M 14.796875 27.296875 
Q 14.796875 17.390625 18.875 11.75 
Q 22.953125 6.109375 30.078125 6.109375 
Q 37.203125 6.109375 41.296875 11.75 
Q 45.40625 17.390625 45.40625 27.296875 
Q 45.40625 37.203125 41.296875 42.84375 
Q 37.203125 48.484375 30.078125 48.484375 
Q 22.953125 48.484375 18.875 42.84375 
Q 14.796875 37.203125 14.796875 27.296875 
z
" id="DejaVuSans-100"/>
      <path d="M 9.421875 54.6875 
L 18.40625 54.6875 
L 18.40625 0 
L 9.421875 0 
z
M 9.421875 75.984375 
L 18.40625 75.984375 
L 18.40625 64.59375 
L 9.421875 64.59375 
z
" id="DejaVuSans-105"/>
      <path d="M 4.203125 54.6875 
L 13.1875 54.6875 
L 24.421875 12.015625 
L 35.59375 54.6875 
L 46.1875 54.6875 
L 57.421875 12.015625 
L 68.609375 54.6875 
L 77.59375 54.6875 
L 63.28125 0 
L 52.6875 0 
L 40.921875 44.828125 
L 29.109375 0 
L 18.5 0 
z
" id="DejaVuSans-119"/>
      <path d="M 9.078125 75.984375 
L 18.109375 75.984375 
L 18.109375 31.109375 
L 44.921875 54.6875 
L 56.390625 54.6875 
L 27.390625 29.109375 
L 57.625 0 
L 45.90625 0 
L 18.109375 26.703125 
L 18.109375 0 
L 9.078125 0 
z
" id="DejaVuSans-107"/>
     </defs>
     <use xlink:href="#DejaVuSans-73"/>
     <use x="29.492188" xlink:href="#DejaVuSans-109"/>
     <use x="126.904297" xlink:href="#DejaVuSans-112"/>
     <use x="190.380859" xlink:href="#DejaVuSans-111"/>
     <use x="251.5625" xlink:href="#DejaVuSans-114"/>
     <use x="292.675781" xlink:href="#DejaVuSans-116"/>
     <use x="331.884766" xlink:href="#DejaVuSans-97"/>
     <use x="393.164062" xlink:href="#DejaVuSans-110"/>
     <use x="456.542969" xlink:href="#DejaVuSans-99"/>
     <use x="511.523438" xlink:href="#DejaVuSans-101"/>
     <use x="573.046875" xlink:href="#DejaVuSans-32"/>
     <use x="604.833984" xlink:href="#DejaVuSans-83"/>
     <use x="668.310547" xlink:href="#DejaVuSans-99"/>
     <use x="723.291016" xlink:href="#DejaVuSans-111"/>
     <use x="784.472656" xlink:href="#DejaVuSans-114"/>
     <use x="823.335938" xlink:href="#DejaVuSans-101"/>
     <use x="884.859375" xlink:href="#DejaVuSans-32"/>
     <use x="916.646484" xlink:href="#DejaVuSans-102"/>
     <use x="951.851562" xlink:href="#DejaVuSans-111"/>
     <use x="1013.033203" xlink:href="#DejaVuSans-114"/>
     <use x="1054.146484" xlink:href="#DejaVuSans-32"/>
     <use x="1085.933594" xlink:href="#DejaVuSans-69"/>
     <use x="1149.117188" xlink:href="#DejaVuSans-97"/>
     <use x="1210.396484" xlink:href="#DejaVuSans-99"/>
     <use x="1265.376953" xlink:href="#DejaVuSans-104"/>
     <use x="1328.755859" xlink:href="#DejaVuSans-32"/>
     <use x="1360.542969" xlink:href="#DejaVuSans-78"/>
     <use x="1435.347656" xlink:href="#DejaVuSans-111"/>
     <use x="1496.529297" xlink:href="#DejaVuSans-100"/>
     <use x="1560.005859" xlink:href="#DejaVuSans-101"/>
     <use x="1621.529297" xlink:href="#DejaVuSans-32"/>
     <use x="1653.316406" xlink:href="#DejaVuSans-105"/>
     <use x="1681.099609" xlink:href="#DejaVuSans-110"/>
     <use x="1744.478516" xlink:href="#DejaVuSans-32"/>
     <use x="1776.265625" xlink:href="#DejaVuSans-116"/>
     <use x="1815.474609" xlink:href="#DejaVuSans-104"/>
     <use x="1878.853516" xlink:href="#DejaVuSans-101"/>
     <use x="1940.376953" xlink:href="#DejaVuSans-32"/>
     <use x="1972.164062" xlink:href="#DejaVuSans-78"/>
     <use x="2046.96875" xlink:href="#DejaVuSans-101"/>
     <use x="2108.492188" xlink:href="#DejaVuSans-116"/>
     <use x="2147.701172" xlink:href="#DejaVuSans-119"/>
     <use x="2229.488281" xlink:href="#DejaVuSans-111"/>
     <use x="2290.669922" xlink:href="#DejaVuSans-114"/>
     <use x="2331.783203" xlink:href="#DejaVuSans-107"/>
    </g>
   </g>
  </g>
 </g>
 <defs>
  <clipPath id="pd6cb473e3f">
   <rect height="443.52" width="669.6" x="7.2" y="22.318125"/>
  </clipPath>
 </defs>
</svg>
