<?xml version="1.0" encoding="utf-8" standalone="no"?>
<!DOCTYPE svg PUBLIC "-//W3C//DTD SVG 1.1//EN"
  "http://www.w3.org/Graphics/SVG/1.1/DTD/svg11.dtd">
<!-- Created with matplotlib (https://matplotlib.org/) -->
<svg height="473.038125pt" version="1.1" viewBox="0 0 684 473.038125" width="684pt" xmlns="http://www.w3.org/2000/svg" xmlns:xlink="http://www.w3.org/1999/xlink">
 <metadata>
  <rdf:RDF xmlns:cc="http://creativecommons.org/ns#" xmlns:dc="http://purl.org/dc/elements/1.1/" xmlns:rdf="http://www.w3.org/1999/02/22-rdf-syntax-ns#">
   <cc:Work>
    <dc:type rdf:resource="http://purl.org/dc/dcmitype/StillImage"/>
    <dc:date>2024-04-26T10:51:00.696166</dc:date>
    <dc:format>image/svg+xml</dc:format>
    <dc:creator>
     <cc:Agent>
      <dc:title>Matplotlib v3.3.1, https://matplotlib.org/</dc:title>
     </cc:Agent>
    </dc:creator>
   </cc:Work>
  </rdf:RDF>
 </metadata>
 <defs>
  <style type="text/css">*{stroke-linecap:butt;stroke-linejoin:round;}</style>
 </defs>
 <g id="figure_1">
  <g id="patch_1">
   <path d="M 0 473.038125 
L 684 473.038125 
L 684 0 
L 0 0 
z
" style="fill:#ffffff;"/>
  </g>
  <g id="axes_1">
   <g id="patch_2">
    <path clip-path="url(#paa111d911d)" d="M 384.620723 89.75761 
Q 347.430798 134.918363 310.951601 179.21606 
" style="fill:none;stroke:#808080;stroke-linecap:round;"/>
    <path clip-path="url(#paa111d911d)" d="M 315.038259 177.399685 
L 310.951601 179.21606 
L 311.950495 174.856908 
L 315.038259 177.399685 
z
" style="fill:#808080;stroke:#808080;stroke-linecap:round;"/>
   </g>
   <g id="patch_3">
    <path clip-path="url(#paa111d911d)" d="M 387.149243 91.204592 
Q 358.840863 168.522561 330.916874 244.790651 
" style="fill:none;stroke:#808080;stroke-linecap:round;"/>
    <path clip-path="url(#paa111d911d)" d="M 334.170192 241.722114 
L 330.916874 244.790651 
L 330.414035 240.346874 
L 334.170192 241.722114 
z
" style="fill:#808080;stroke:#808080;stroke-linecap:round;"/>
   </g>
   <g id="patch_4">
    <path clip-path="url(#paa111d911d)" d="M 296.11344 187.595413 
Q 198.424277 196.985231 101.848019 206.268076 
" style="fill:none;stroke:#808080;stroke-linecap:round;"/>
    <path clip-path="url(#paa111d911d)" d="M 106.021025 207.876188 
L 101.848019 206.268076 
L 105.638312 203.894538 
L 106.021025 207.876188 
z
" style="fill:#808080;stroke:#808080;stroke-linecap:round;"/>
   </g>
   <g id="patch_5">
    <path clip-path="url(#paa111d911d)" d="M 301.478167 194.792532 
Q 259.705039 297.779348 218.352149 399.730114 
" style="fill:none;stroke:#808080;stroke-linecap:round;"/>
    <path clip-path="url(#paa111d911d)" d="M 221.708983 396.775175 
L 218.352149 399.730114 
L 218.002298 395.271683 
L 221.708983 396.775175 
z
" style="fill:#808080;stroke:#808080;stroke-linecap:round;"/>
   </g>
   <g id="patch_6">
    <path clip-path="url(#paa111d911d)" d="M 401.346446 239.364809 
Q 379.262506 317.159885 357.483883 393.879424 
" style="fill:none;stroke:#808080;stroke-linecap:round;"/>
    <path clip-path="url(#paa111d911d)" d="M 360.500197 390.577629 
L 357.483883 393.879424 
L 356.652235 389.485296 
L 360.500197 390.577629 
z
" style="fill:#808080;stroke:#808080;stroke-linecap:round;"/>
   </g>
   <g id="patch_7">
    <path clip-path="url(#paa111d911d)" d="M 410.26129 225.373238 
Q 430.962226 207.478764 450.817339 190.315441 
" style="fill:none;stroke:#808080;stroke-linecap:round;"/>
    <path clip-path="url(#paa111d911d)" d="M 446.483307 191.41824 
L 450.817339 190.315441 
L 449.099158 194.444346 
L 446.483307 191.41824 
z
" style="fill:#808080;stroke:#808080;stroke-linecap:round;"/>
   </g>
   <g id="patch_8">
    <path clip-path="url(#paa111d911d)" d="M 395.49494 228.293576 
Q 268.897068 186.042404 143.359726 144.145175 
" style="fill:none;stroke:#808080;stroke-linecap:round;"/>
    <path clip-path="url(#paa111d911d)" d="M 146.520837 147.308619 
L 143.359726 144.145175 
L 147.787147 143.514353 
L 146.520837 147.308619 
z
" style="fill:#808080;stroke:#808080;stroke-linecap:round;"/>
   </g>
   <g id="patch_9">
    <path clip-path="url(#paa111d911d)" d="M 395.133719 229.843246 
Q 289.228292 215.120911 184.430251 200.552518 
" style="fill:none;stroke:#808080;stroke-linecap:round;"/>
    <path clip-path="url(#paa111d911d)" d="M 188.116772 203.084229 
L 184.430251 200.552518 
L 188.667532 199.122327 
L 188.116772 203.084229 
z
" style="fill:#808080;stroke:#808080;stroke-linecap:round;"/>
   </g>
   <g id="patch_10">
    <path clip-path="url(#paa111d911d)" d="M 290.486308 258.242557 
Q 294.883573 338.473265 299.219652 417.587614 
" style="fill:none;stroke:#808080;stroke-linecap:round;"/>
    <path clip-path="url(#paa111d911d)" d="M 300.997753 413.484157 
L 299.219652 417.587614 
L 297.003747 413.70306 
L 300.997753 413.484157 
z
" style="fill:#808080;stroke:#808080;stroke-linecap:round;"/>
   </g>
   <g id="patch_11">
    <path clip-path="url(#paa111d911d)" d="M 284.653831 242.789367 
Q 232.235476 176.235054 180.508891 110.559066 
" style="fill:none;stroke:#808080;stroke-linecap:round;"/>
    <path clip-path="url(#paa111d911d)" d="M 181.41265 114.938931 
L 180.508891 110.559066 
L 184.555039 112.463977 
L 181.41265 114.938931 
z
" style="fill:#808080;stroke:#808080;stroke-linecap:round;"/>
   </g>
   <g id="patch_12">
    <path clip-path="url(#paa111d911d)" d="M 295.253575 256.488682 
Q 355.491336 335.741769 415.052556 414.104748 
" style="fill:none;stroke:#808080;stroke-linecap:round;"/>
    <path clip-path="url(#paa111d911d)" d="M 414.224357 409.709969 
L 415.052556 414.104748 
L 411.039813 412.13044 
L 414.224357 409.709969 
z
" style="fill:#808080;stroke:#808080;stroke-linecap:round;"/>
   </g>
   <g id="patch_13">
    <path clip-path="url(#paa111d911d)" d="M 282.905441 244.645647 
Q 212.050808 195.322589 142.113774 146.638288 
" style="fill:none;stroke:#808080;stroke-linecap:round;"/>
    <path clip-path="url(#paa111d911d)" d="M 144.254039 150.565026 
L 142.113774 146.638288 
L 146.539323 147.282119 
L 144.254039 150.565026 
z
" style="fill:#808080;stroke:#808080;stroke-linecap:round;"/>
   </g>
   <g id="patch_14">
    <path clip-path="url(#paa111d911d)" d="M 297.761663 245.733285 
Q 431.318993 179.216562 563.875539 113.198268 
" style="fill:none;stroke:#808080;stroke-linecap:round;"/>
    <path clip-path="url(#paa111d911d)" d="M 559.403409 113.191246 
L 563.875539 113.198268 
L 561.186643 116.771759 
L 559.403409 113.191246 
z
" style="fill:#808080;stroke:#808080;stroke-linecap:round;"/>
   </g>
   <g id="patch_15">
    <path clip-path="url(#paa111d911d)" d="M 349.862516 396.179622 
Q 293.525104 315.307729 237.826762 235.353218 
" style="fill:none;stroke:#808080;stroke-linecap:round;"/>
    <path clip-path="url(#paa111d911d)" d="M 238.472111 239.778546 
L 237.826762 235.353218 
L 241.754234 237.492136 
L 238.472111 239.778546 
z
" style="fill:#808080;stroke:#808080;stroke-linecap:round;"/>
   </g>
   <g id="patch_16">
    <path clip-path="url(#paa111d911d)" d="M 296.984388 419.14371 
Q 265.994717 327.337548 235.362623 236.590696 
" style="fill:none;stroke:#808080;stroke-linecap:round;"/>
    <path clip-path="url(#paa111d911d)" d="M 234.746973 241.020253 
L 235.362623 236.590696 
L 238.536879 239.74095 
L 234.746973 241.020253 
z
" style="fill:#808080;stroke:#808080;stroke-linecap:round;"/>
   </g>
   <g id="patch_17">
    <path clip-path="url(#paa111d911d)" d="M 240.605946 229.554324 
Q 359.748309 261.253594 477.810226 292.665397 
" style="fill:none;stroke:#808080;stroke-linecap:round;"/>
    <path clip-path="url(#paa111d911d)" d="M 474.458939 289.704168 
L 477.810226 292.665397 
L 473.43047 293.569689 
L 474.458939 289.704168 
z
" style="fill:#808080;stroke:#808080;stroke-linecap:round;"/>
   </g>
   <g id="patch_18">
    <path clip-path="url(#paa111d911d)" d="M 235.920049 219.488577 
Q 271.369835 144.065883 306.344041 69.65503 
" style="fill:none;stroke:#808080;stroke-linecap:round;"/>
    <path clip-path="url(#paa111d911d)" d="M 302.832515 72.42436 
L 306.344041 69.65503 
L 306.452589 74.125848 
L 302.832515 72.42436 
z
" style="fill:#808080;stroke:#808080;stroke-linecap:round;"/>
   </g>
   <g id="patch_19">
    <path clip-path="url(#paa111d911d)" d="M 387.512147 176.657999 
Q 309.430939 129.847704 232.308646 83.612285 
" style="fill:none;stroke:#808080;stroke-linecap:round;"/>
    <path clip-path="url(#paa111d911d)" d="M 234.710992 87.384385 
L 232.308646 83.612285 
L 236.767733 83.953669 
L 234.710992 87.384385 
z
" style="fill:#808080;stroke:#808080;stroke-linecap:round;"/>
   </g>
   <g id="patch_20">
    <path clip-path="url(#paa111d911d)" d="M 386.783023 178.217034 
Q 284.701232 141.994853 183.673108 106.146549 
" style="fill:none;stroke:#808080;stroke-linecap:round;"/>
    <path clip-path="url(#paa111d911d)" d="M 186.77401 109.369034 
L 183.673108 106.146549 
L 188.111637 105.599318 
L 186.77401 109.369034 
z
" style="fill:#808080;stroke:#808080;stroke-linecap:round;"/>
   </g>
   <g id="patch_21">
    <path clip-path="url(#paa111d911d)" d="M 395.871941 189.719976 
Q 407.954431 301.49762 419.916769 412.163705 
" style="fill:none;stroke:#808080;stroke-linecap:round;"/>
    <path clip-path="url(#paa111d911d)" d="M 421.475314 407.971935 
L 419.916769 412.163705 
L 417.49848 408.401807 
L 421.475314 407.971935 
z
" style="fill:#808080;stroke:#808080;stroke-linecap:round;"/>
   </g>
   <g id="patch_22">
    <path clip-path="url(#paa111d911d)" d="M 319.351832 251.199427 
Q 207.937075 213.504979 97.581382 176.168838 
" style="fill:none;stroke:#808080;stroke-linecap:round;"/>
    <path clip-path="url(#paa111d911d)" d="M 100.729441 179.34527 
L 97.581382 176.168838 
L 102.011363 175.55625 
L 100.729441 179.34527 
z
" style="fill:#808080;stroke:#808080;stroke-linecap:round;"/>
   </g>
   <g id="patch_23">
    <path clip-path="url(#paa111d911d)" d="M 319.747989 257.722408 
Q 245.117852 293.55238 171.49561 328.898461 
" style="fill:none;stroke:#808080;stroke-linecap:round;"/>
    <path clip-path="url(#paa111d911d)" d="M 175.96717 328.970217 
L 171.49561 328.898461 
L 174.235951 325.364267 
L 175.96717 328.970217 
z
" style="fill:#808080;stroke:#808080;stroke-linecap:round;"/>
   </g>
   <g id="patch_24">
    <path clip-path="url(#paa111d911d)" d="M 91.327044 181.154864 
Q 116.997985 250.449159 142.280533 318.695051 
" style="fill:none;stroke:#808080;stroke-linecap:round;"/>
    <path clip-path="url(#paa111d911d)" d="M 142.766412 314.249388 
L 142.280533 318.695051 
L 139.01553 315.63895 
L 142.766412 314.249388 
z
" style="fill:#808080;stroke:#808080;stroke-linecap:round;"/>
   </g>
   <g id="patch_25">
    <path clip-path="url(#paa111d911d)" d="M 96.41614 176.108609 
Q 189.165673 211.313991 280.869938 246.122615 
" style="fill:none;stroke:#808080;stroke-linecap:round;"/>
    <path clip-path="url(#paa111d911d)" d="M 277.840016 242.833303 
L 280.869938 246.122615 
L 276.420535 246.572965 
L 277.840016 242.833303 
z
" style="fill:#808080;stroke:#808080;stroke-linecap:round;"/>
   </g>
   <g id="patch_26">
    <path clip-path="url(#paa111d911d)" d="M 153.823058 330.798714 
Q 250.243908 365.573243 345.613034 399.968464 
" style="fill:none;stroke:#808080;stroke-linecap:round;"/>
    <path clip-path="url(#paa111d911d)" d="M 342.528796 396.730026 
L 345.613034 399.968464 
L 341.171741 400.492791 
L 342.528796 396.730026 
z
" style="fill:#808080;stroke:#808080;stroke-linecap:round;"/>
   </g>
   <g id="patch_27">
    <path clip-path="url(#paa111d911d)" d="M 152.952481 332.558965 
Q 222.716937 377.606663 291.542148 422.04788 
" style="fill:none;stroke:#808080;stroke-linecap:round;"/>
    <path clip-path="url(#paa111d911d)" d="M 289.26671 418.197895 
L 291.542148 422.04788 
L 287.096897 421.55824 
L 289.26671 418.197895 
z
" style="fill:#808080;stroke:#808080;stroke-linecap:round;"/>
   </g>
   <g id="patch_28">
    <path clip-path="url(#paa111d911d)" d="M 449.634294 185.061931 
Q 261.761305 210.075182 74.996571 234.94088 
" style="fill:none;stroke:#808080;stroke-linecap:round;"/>
    <path clip-path="url(#paa111d911d)" d="M 79.225533 236.395488 
L 74.996571 234.94088 
L 78.697634 232.430476 
L 79.225533 236.395488 
z
" style="fill:#808080;stroke:#808080;stroke-linecap:round;"/>
   </g>
   <g id="patch_29">
    <path clip-path="url(#paa111d911d)" d="M 69.895248 243.572999 
Q 114.986795 315.70724 159.485714 386.893436 
" style="fill:none;stroke:#808080;stroke-linecap:round;"/>
    <path clip-path="url(#paa111d911d)" d="M 159.061375 382.441477 
L 159.485714 386.893436 
L 155.669544 384.561732 
L 159.061375 382.441477 
z
" style="fill:#808080;stroke:#808080;stroke-linecap:round;"/>
   </g>
   <g id="patch_30">
    <path clip-path="url(#paa111d911d)" d="M 173.331478 395.29105 
Q 334.676902 397.235654 494.904374 399.166784 
" style="fill:none;stroke:#808080;stroke-linecap:round;"/>
    <path clip-path="url(#paa111d911d)" d="M 490.928767 397.118723 
L 494.904374 399.166784 
L 490.880561 401.118433 
L 490.928767 397.118723 
z
" style="fill:#808080;stroke:#808080;stroke-linecap:round;"/>
   </g>
   <g id="patch_31">
    <path clip-path="url(#paa111d911d)" d="M 380.297216 243.32844 
Q 280.953638 175.542578 182.533587 108.386873 
" style="fill:none;stroke:#808080;stroke-linecap:round;"/>
    <path clip-path="url(#paa111d911d)" d="M 184.710438 112.293447 
L 182.533587 108.386873 
L 186.964957 108.989337 
L 184.710438 112.293447 
z
" style="fill:#808080;stroke:#808080;stroke-linecap:round;"/>
   </g>
   <g id="patch_32">
    <path clip-path="url(#paa111d911d)" d="M 389.091663 256.713594 
Q 404.209448 335.049878 419.115376 412.288384 
" style="fill:none;stroke:#808080;stroke-linecap:round;"/>
    <path clip-path="url(#paa111d911d)" d="M 420.321185 407.981874 
L 419.115376 412.288384 
L 416.393653 408.739832 
L 420.321185 407.981874 
z
" style="fill:#808080;stroke:#808080;stroke-linecap:round;"/>
   </g>
   <g id="patch_33">
    <path clip-path="url(#paa111d911d)" d="M 183.3808 199.874729 
Q 265.3642 206.222484 346.232901 212.483932 
" style="fill:none;stroke:#808080;stroke-linecap:round;"/>
    <path clip-path="url(#paa111d911d)" d="M 342.39923 210.181115 
L 346.232901 212.483932 
L 342.090445 214.169178 
L 342.39923 210.181115 
z
" style="fill:#808080;stroke:#808080;stroke-linecap:round;"/>
   </g>
   <g id="patch_34">
    <path clip-path="url(#paa111d911d)" d="M 181.161767 205.017352 
Q 237.46155 255.998524 292.932588 306.229242 
" style="fill:none;stroke:#808080;stroke-linecap:round;"/>
    <path clip-path="url(#paa111d911d)" d="M 291.310032 302.061831 
L 292.932588 306.229242 
L 288.625126 305.02684 
L 291.310032 302.061831 
z
" style="fill:#808080;stroke:#808080;stroke-linecap:round;"/>
   </g>
   <g id="patch_35">
    <path clip-path="url(#paa111d911d)" d="M 523.18115 249.071241 
Q 401.575289 196.283005 280.995002 143.939962 
" style="fill:none;stroke:#808080;stroke-linecap:round;"/>
    <path clip-path="url(#paa111d911d)" d="M 283.867819 147.36734 
L 280.995002 143.939962 
L 285.460595 143.698135 
L 283.867819 147.36734 
z
" style="fill:#808080;stroke:#808080;stroke-linecap:round;"/>
   </g>
   <g id="patch_36">
    <path clip-path="url(#paa111d911d)" d="M 278.550942 145.73529 
Q 314.002675 176.641139 348.611656 206.812299 
" style="fill:none;stroke:#808080;stroke-linecap:round;"/>
    <path clip-path="url(#paa111d911d)" d="M 346.910783 202.676234 
L 348.611656 206.812299 
L 344.28228 205.691359 
L 346.910783 202.676234 
z
" style="fill:#808080;stroke:#808080;stroke-linecap:round;"/>
   </g>
   <g id="patch_37">
    <path clip-path="url(#paa111d911d)" d="M 273.418185 148.594312 
Q 286.102315 226.419795 298.6066 303.141804 
" style="fill:none;stroke:#808080;stroke-linecap:round;"/>
    <path clip-path="url(#paa111d911d)" d="M 299.937118 298.872176 
L 298.6066 303.141804 
L 295.989208 299.515613 
L 299.937118 298.872176 
z
" style="fill:#808080;stroke:#808080;stroke-linecap:round;"/>
   </g>
   <g id="patch_38">
    <path clip-path="url(#paa111d911d)" d="M 262.745112 365.082672 
Q 275.383866 311.551241 287.765715 259.107929 
" style="fill:none;stroke:#808080;stroke-linecap:round;"/>
    <path clip-path="url(#paa111d911d)" d="M 284.900102 262.541333 
L 287.765715 259.107929 
L 288.793071 263.460461 
L 284.900102 262.541333 
z
" style="fill:#808080;stroke:#808080;stroke-linecap:round;"/>
   </g>
   <g id="patch_39">
    <path clip-path="url(#paa111d911d)" d="M 252.702064 370.317561 
Q 203.214578 350.685934 154.766338 331.466576 
" style="fill:none;stroke:#808080;stroke-linecap:round;"/>
    <path clip-path="url(#paa111d911d)" d="M 157.746975 334.800613 
L 154.766338 331.466576 
L 159.22195 331.082489 
L 157.746975 334.800613 
z
" style="fill:#808080;stroke:#808080;stroke-linecap:round;"/>
   </g>
   <g id="patch_40">
    <path clip-path="url(#paa111d911d)" d="M 480.232286 290.115559 
Q 379.640801 217.612311 279.956309 145.762795 
" style="fill:none;stroke:#808080;stroke-linecap:round;"/>
    <path clip-path="url(#paa111d911d)" d="M 282.031831 149.724134 
L 279.956309 145.762795 
L 284.370694 146.479181 
L 282.031831 149.724134 
z
" style="fill:#808080;stroke:#808080;stroke-linecap:round;"/>
   </g>
   <g id="patch_41">
    <path clip-path="url(#paa111d911d)" d="M 306.721173 68.594535 
Q 291.265234 100.423732 276.297668 131.247199 
" style="fill:none;stroke:#808080;stroke-linecap:round;"/>
    <path clip-path="url(#paa111d911d)" d="M 279.844026 128.522618 
L 276.297668 131.247199 
L 276.245818 126.775364 
L 279.844026 128.522618 
z
" style="fill:#808080;stroke:#808080;stroke-linecap:round;"/>
   </g>
   <g id="patch_42">
    <path clip-path="url(#paa111d911d)" d="M 311.074836 255.773038 
Q 242.012232 316.973257 173.786392 377.431974 
" style="fill:none;stroke:#808080;stroke-linecap:round;"/>
    <path clip-path="url(#paa111d911d)" d="M 178.10653 376.275941 
L 173.786392 377.431974 
L 175.453648 373.282244 
L 178.10653 376.275941 
z
" style="fill:#808080;stroke:#808080;stroke-linecap:round;"/>
   </g>
   <g id="patch_43">
    <path clip-path="url(#paa111d911d)" d="M 315.031335 258.315887 
Q 292.726624 331.536854 270.747709 403.68831 
" style="fill:none;stroke:#808080;stroke-linecap:round;"/>
    <path clip-path="url(#paa111d911d)" d="M 273.826517 400.44471 
L 270.747709 403.68831 
L 270.000114 399.279103 
L 273.826517 400.44471 
z
" style="fill:#808080;stroke:#808080;stroke-linecap:round;"/>
   </g>
   <g id="patch_44">
    <path clip-path="url(#paa111d911d)" d="M 309.255933 252.512107 
Q 208.292749 282.703189 108.400733 312.57396 
" style="fill:none;stroke:#808080;stroke-linecap:round;"/>
    <path clip-path="url(#paa111d911d)" d="M 112.806051 313.34414 
L 108.400733 312.57396 
L 111.660068 309.511814 
L 112.806051 313.34414 
z
" style="fill:#808080;stroke:#808080;stroke-linecap:round;"/>
   </g>
   <g id="patch_45">
    <path clip-path="url(#paa111d911d)" d="M 323.826481 244.061193 
Q 412.384367 159.768493 500.132423 76.24662 
" style="fill:none;stroke:#808080;stroke-linecap:round;"/>
    <path clip-path="url(#paa111d911d)" d="M 495.856187 77.555745 
L 500.132423 76.24662 
L 498.613982 80.453083 
L 495.856187 77.555745 
z
" style="fill:#808080;stroke:#808080;stroke-linecap:round;"/>
   </g>
   <g id="patch_46">
    <path clip-path="url(#paa111d911d)" d="M 325.672131 253.061553 
Q 449.420802 299.275123 572.122092 345.097552 
" style="fill:none;stroke:#808080;stroke-linecap:round;"/>
    <path clip-path="url(#paa111d911d)" d="M 569.074561 341.824548 
L 572.122092 345.097552 
L 567.67517 345.571775 
L 569.074561 341.824548 
z
" style="fill:#808080;stroke:#808080;stroke-linecap:round;"/>
   </g>
   <g id="patch_47">
    <path clip-path="url(#paa111d911d)" d="M 362.961471 307.882965 
Q 268.752417 344.337417 175.586055 380.388396 
" style="fill:none;stroke:#808080;stroke-linecap:round;"/>
    <path clip-path="url(#paa111d911d)" d="M 180.038263 380.810114 
L 175.586055 380.388396 
L 178.594754 377.07966 
L 180.038263 380.810114 
z
" style="fill:#808080;stroke:#808080;stroke-linecap:round;"/>
   </g>
   <g id="patch_48">
    <path clip-path="url(#paa111d911d)" d="M 365.065754 311.027156 
Q 319.469208 358.89932 274.643755 405.961907 
" style="fill:none;stroke:#808080;stroke-linecap:round;"/>
    <path clip-path="url(#paa111d911d)" d="M 278.850718 404.44485 
L 274.643755 405.961907 
L 275.954287 401.686103 
L 278.850718 404.44485 
z
" style="fill:#808080;stroke:#808080;stroke-linecap:round;"/>
   </g>
   <g id="patch_49">
    <path clip-path="url(#paa111d911d)" d="M 362.382927 305.096037 
Q 235.032827 310.067054 108.799911 314.994463 
" style="fill:none;stroke:#808080;stroke-linecap:round;"/>
    <path clip-path="url(#paa111d911d)" d="M 112.874876 316.836922 
L 108.799911 314.994463 
L 112.718858 312.839966 
L 112.874876 316.836922 
z
" style="fill:#808080;stroke:#808080;stroke-linecap:round;"/>
   </g>
   <g id="patch_50">
    <path clip-path="url(#paa111d911d)" d="M 375.373223 297.266644 
Q 439.12355 187.134933 502.313767 77.970836 
" style="fill:none;stroke:#808080;stroke-linecap:round;"/>
    <path clip-path="url(#paa111d911d)" d="M 498.578939 80.430727 
L 502.313767 77.970836 
L 502.040782 82.434633 
L 498.578939 80.430727 
z
" style="fill:#808080;stroke:#808080;stroke-linecap:round;"/>
   </g>
   <g id="patch_51">
    <path clip-path="url(#paa111d911d)" d="M 379.515817 306.523104 
Q 476.163042 326.63938 571.715692 346.52783 
" style="fill:none;stroke:#808080;stroke-linecap:round;"/>
    <path clip-path="url(#paa111d911d)" d="M 568.207169 343.754698 
L 571.715692 346.52783 
L 567.392072 347.67077 
L 568.207169 343.754698 
z
" style="fill:#808080;stroke:#808080;stroke-linecap:round;"/>
   </g>
   <g id="patch_52">
    <path clip-path="url(#paa111d911d)" d="M 593.067554 162.174382 
Q 464.404914 206.659002 336.798934 250.778286 
" style="fill:none;stroke:#808080;stroke-linecap:round;"/>
    <path clip-path="url(#paa111d911d)" d="M 341.232888 251.36143 
L 336.798934 250.778286 
L 339.925822 247.58101 
L 341.232888 251.36143 
z
" style="fill:#808080;stroke:#808080;stroke-linecap:round;"/>
   </g>
   <g id="patch_53">
    <path clip-path="url(#paa111d911d)" d="M 364.317507 215.587013 
Q 487.339091 250.24862 609.284541 284.607022 
" style="fill:none;stroke:#808080;stroke-linecap:round;"/>
    <path clip-path="url(#paa111d911d)" d="M 605.976828 281.597199 
L 609.284541 284.607022 
L 604.892054 285.447298 
L 605.976828 281.597199 
z
" style="fill:#808080;stroke:#808080;stroke-linecap:round;"/>
   </g>
   <g id="patch_54">
    <path clip-path="url(#paa111d911d)" d="M 364.568733 214.378137 
Q 485.327297 230.402565 604.977543 246.279921 
" style="fill:none;stroke:#808080;stroke-linecap:round;"/>
    <path clip-path="url(#paa111d911d)" d="M 601.275392 243.771121 
L 604.977543 246.279921 
L 600.749212 247.736362 
L 601.275392 243.771121 
z
" style="fill:#808080;stroke:#808080;stroke-linecap:round;"/>
   </g>
   <g id="patch_55">
    <path clip-path="url(#paa111d911d)" d="M 308.815791 312.099034 
Q 459.440366 300.024501 608.950482 288.039307 
" style="fill:none;stroke:#808080;stroke-linecap:round;"/>
    <path clip-path="url(#paa111d911d)" d="M 604.803459 286.365329 
L 608.950482 288.039307 
L 605.123086 290.352539 
L 604.803459 286.365329 
z
" style="fill:#808080;stroke:#808080;stroke-linecap:round;"/>
   </g>
   <g id="patch_56">
    <path clip-path="url(#paa111d911d)" d="M 308.658649 311.032735 
Q 457.421499 280.179132 605.089613 249.55258 
" style="fill:none;stroke:#808080;stroke-linecap:round;"/>
    <path clip-path="url(#paa111d911d)" d="M 600.766805 248.406573 
L 605.089613 249.55258 
L 601.579123 252.323222 
L 600.766805 248.406573 
z
" style="fill:#808080;stroke:#808080;stroke-linecap:round;"/>
   </g>
   <g id="PathCollection_1">
    <defs>
     <path d="M 0 11.18034 
C 2.965061 11.18034 5.80908 10.002309 7.905694 7.905694 
C 10.002309 5.80908 11.18034 2.965061 11.18034 -0 
C 11.18034 -2.965061 10.002309 -5.80908 7.905694 -7.905694 
C 5.80908 -10.002309 2.965061 -11.18034 0 -11.18034 
C -2.965061 -11.18034 -5.80908 -10.002309 -7.905694 -7.905694 
C -10.002309 -5.80908 -11.18034 -2.965061 -11.18034 0 
C -11.18034 2.965061 -10.002309 5.80908 -7.905694 7.905694 
C -5.80908 10.002309 -2.965061 11.18034 0 11.18034 
z
" id="C0_0_31394b6b3e"/>
    </defs>
    <g clip-path="url(#paa111d911d)">
     <use style="fill:#d6d6d6;stroke:#d6d6d6;" x="390.12722" xlink:href="#C0_0_31394b6b3e" y="83.070918"/>
    </g>
    <g clip-path="url(#paa111d911d)">
     <use style="fill:#dfdfdf;stroke:#dfdfdf;" x="304.733512" xlink:href="#C0_0_31394b6b3e" y="186.766857"/>
    </g>
    <g clip-path="url(#paa111d911d)">
     <use style="fill:#eeeeee;stroke:#eeeeee;" x="92.115894" xlink:href="#C0_0_31394b6b3e" y="207.203522"/>
    </g>
    <g clip-path="url(#paa111d911d)">
     <use style="fill:#a2a2a2;stroke:#a2a2a2;" x="403.710887" xlink:href="#C0_0_31394b6b3e" y="231.035592"/>
    </g>
    <g clip-path="url(#paa111d911d)">
     <use style="fill:#e4e4e4;stroke:#e4e4e4;" x="290.012234" xlink:href="#C0_0_31394b6b3e" y="249.5928"/>
    </g>
    <g clip-path="url(#paa111d911d)">
     <use style="fill:#eeeeee;stroke:#eeeeee;" x="354.813431" xlink:href="#C0_0_31394b6b3e" y="403.28662"/>
    </g>
    <g clip-path="url(#paa111d911d)">
     <use style="fill:#eeeeee;stroke:#eeeeee;" x="299.754753" xlink:href="#C0_0_31394b6b3e" y="427.350852"/>
    </g>
    <g clip-path="url(#paa111d911d)">
     <use style="fill:#d0d0d0;stroke:#d0d0d0;" x="232.235721" xlink:href="#C0_0_31394b6b3e" y="227.327324"/>
    </g>
    <g clip-path="url(#paa111d911d)">
     <use style="fill:#e4e4e4;stroke:#e4e4e4;" x="394.941464" xlink:href="#C0_0_31394b6b3e" y="181.111933"/>
    </g>
    <g clip-path="url(#paa111d911d)">
     <use style="fill:#ededed;stroke:#ededed;" x="223.923648" xlink:href="#C0_0_31394b6b3e" y="78.585414"/>
    </g>
    <g clip-path="url(#paa111d911d)">
     <use style="fill:#6b6b6b;stroke:#6b6b6b;" x="327.554376" xlink:href="#C0_0_31394b6b3e" y="253.974557"/>
    </g>
    <g clip-path="url(#paa111d911d)">
     <use style="fill:#848484;stroke:#848484;" x="88.318989" xlink:href="#C0_0_31394b6b3e" y="173.035135"/>
    </g>
    <g clip-path="url(#paa111d911d)">
     <use style="fill:#e5e5e5;stroke:#e5e5e5;" x="145.675964" xlink:href="#C0_0_31394b6b3e" y="327.860435"/>
    </g>
    <g clip-path="url(#paa111d911d)">
     <use style="fill:#dadada;stroke:#dadada;" x="458.216628" xlink:href="#C0_0_31394b6b3e" y="183.919286"/>
    </g>
    <g clip-path="url(#paa111d911d)">
     <use style="fill:#eeeeee;stroke:#eeeeee;" x="214.677687" xlink:href="#C0_0_31394b6b3e" y="408.789075"/>
    </g>
    <g clip-path="url(#paa111d911d)">
     <use style="fill:#e1e1e1;stroke:#e1e1e1;" x="65.305785" xlink:href="#C0_0_31394b6b3e" y="236.231103"/>
    </g>
    <g clip-path="url(#paa111d911d)">
     <use style="fill:#e8e8e8;stroke:#e8e8e8;" x="164.669856" xlink:href="#C0_0_31394b6b3e" y="395.186656"/>
    </g>
    <g clip-path="url(#paa111d911d)">
     <use style="fill:#eeeeee;stroke:#eeeeee;" x="504.680706" xlink:href="#C0_0_31394b6b3e" y="399.284613"/>
    </g>
    <g clip-path="url(#paa111d911d)">
     <use style="fill:#dcdcdc;stroke:#dcdcdc;" x="387.450471" xlink:href="#C0_0_31394b6b3e" y="248.209375"/>
    </g>
    <g clip-path="url(#paa111d911d)">
     <use style="fill:#ededed;stroke:#ededed;" x="134.086299" xlink:href="#C0_0_31394b6b3e" y="141.050233"/>
    </g>
    <g clip-path="url(#paa111d911d)">
     <use style="fill:#eeeeee;stroke:#eeeeee;" x="162.681863" xlink:href="#C0_0_31394b6b3e" y="333.129946"/>
    </g>
    <g clip-path="url(#paa111d911d)">
     <use style="fill:#d3d3d3;stroke:#d3d3d3;" x="174.744165" xlink:href="#C0_0_31394b6b3e" y="199.206017"/>
    </g>
    <g clip-path="url(#paa111d911d)">
     <use style="fill:#eeeeee;stroke:#eeeeee;" x="618.694215" xlink:href="#C0_0_31394b6b3e" y="287.258219"/>
    </g>
    <g clip-path="url(#paa111d911d)">
     <use style="fill:#eeeeee;stroke:#eeeeee;" x="614.668541" xlink:href="#C0_0_31394b6b3e" y="247.565898"/>
    </g>
    <g clip-path="url(#paa111d911d)">
     <use style="fill:#eeeeee;stroke:#eeeeee;" x="531.1238" xlink:href="#C0_0_31394b6b3e" y="252.519089"/>
    </g>
    <g clip-path="url(#paa111d911d)">
     <use style="fill:#eaeaea;stroke:#eaeaea;" x="272.024989" xlink:href="#C0_0_31394b6b3e" y="140.046144"/>
    </g>
    <g clip-path="url(#paa111d911d)">
     <use style="fill:#838383;stroke:#838383;" x="260.754922" xlink:href="#C0_0_31394b6b3e" y="373.51212"/>
    </g>
    <g clip-path="url(#paa111d911d)">
     <use style="fill:#ededed;stroke:#ededed;" x="174.45834" xlink:href="#C0_0_31394b6b3e" y="102.876828"/>
    </g>
    <g clip-path="url(#paa111d911d)">
     <use style="fill:#ededed;stroke:#ededed;" x="420.967831" xlink:href="#C0_0_31394b6b3e" y="421.887306"/>
    </g>
    <g clip-path="url(#paa111d911d)">
     <use style="fill:#eeeeee;stroke:#eeeeee;" x="572.63136" xlink:href="#C0_0_31394b6b3e" y="108.83753"/>
    </g>
    <g clip-path="url(#paa111d911d)">
     <use style="fill:#ededed;stroke:#ededed;" x="487.257151" xlink:href="#C0_0_31394b6b3e" y="295.178866"/>
    </g>
    <g clip-path="url(#paa111d911d)">
     <use style="fill:#f3f3f3;stroke:#f3f3f3;" x="310.503499" xlink:href="#C0_0_31394b6b3e" y="60.805398"/>
    </g>
    <g clip-path="url(#paa111d911d)">
     <use style="fill:#c9c9c9;stroke:#c9c9c9;" x="317.555293" xlink:href="#C0_0_31394b6b3e" y="250.030344"/>
    </g>
    <g clip-path="url(#paa111d911d)">
     <use style="fill:#d3d3d3;stroke:#d3d3d3;" x="371.036671" xlink:href="#C0_0_31394b6b3e" y="304.758244"/>
    </g>
    <g clip-path="url(#paa111d911d)">
     <use style="fill:#ededed;stroke:#ededed;" x="166.469114" xlink:href="#C0_0_31394b6b3e" y="383.916222"/>
    </g>
    <g clip-path="url(#paa111d911d)">
     <use style="fill:#ededed;stroke:#ededed;" x="267.897502" xlink:href="#C0_0_31394b6b3e" y="413.04485"/>
    </g>
    <g clip-path="url(#paa111d911d)">
     <use style="fill:#ededed;stroke:#ededed;" x="99.031046" xlink:href="#C0_0_31394b6b3e" y="315.375783"/>
    </g>
    <g clip-path="url(#paa111d911d)">
     <use style="fill:#ededed;stroke:#ededed;" x="507.213151" xlink:href="#C0_0_31394b6b3e" y="69.506919"/>
    </g>
    <g clip-path="url(#paa111d911d)">
     <use style="fill:#ededed;stroke:#ededed;" x="581.286123" xlink:href="#C0_0_31394b6b3e" y="348.519832"/>
    </g>
    <g clip-path="url(#paa111d911d)">
     <use style="fill:#5f5f5f;stroke:#5f5f5f;" x="601.24882" xlink:href="#C0_0_31394b6b3e" y="159.345741"/>
    </g>
    <g clip-path="url(#paa111d911d)">
     <use style="fill:#e8e8e8;stroke:#e8e8e8;" x="355.98353" xlink:href="#C0_0_31394b6b3e" y="213.238897"/>
    </g>
    <g clip-path="url(#paa111d911d)">
     <use style="fill:#e1e1e1;stroke:#e1e1e1;" x="300.179302" xlink:href="#C0_0_31394b6b3e" y="312.791362"/>
    </g>
   </g>
   <g id="text_1">
    <g clip-path="url(#paa111d911d)">
     <!-- TNF -->
     <g transform="translate(380.456908 85.830293)scale(0.1 -0.1)">
      <defs>
       <path d="M -0.296875 72.90625 
L 61.375 72.90625 
L 61.375 64.59375 
L 35.5 64.59375 
L 35.5 0 
L 25.59375 0 
L 25.59375 64.59375 
L -0.296875 64.59375 
z
" id="DejaVuSans-84"/>
       <path d="M 9.8125 72.90625 
L 23.09375 72.90625 
L 55.421875 11.921875 
L 55.421875 72.90625 
L 64.984375 72.90625 
L 64.984375 0 
L 51.703125 0 
L 19.390625 60.984375 
L 19.390625 0 
L 9.8125 0 
z
" id="DejaVuSans-78"/>
       <path d="M 9.8125 72.90625 
L 51.703125 72.90625 
L 51.703125 64.59375 
L 19.671875 64.59375 
L 19.671875 43.109375 
L 48.578125 43.109375 
L 48.578125 34.8125 
L 19.671875 34.8125 
L 19.671875 0 
L 9.8125 0 
z
" id="DejaVuSans-70"/>
      </defs>
      <use xlink:href="#DejaVuSans-84"/>
      <use x="61.083984" xlink:href="#DejaVuSans-78"/>
      <use x="135.888672" xlink:href="#DejaVuSans-70"/>
     </g>
    </g>
   </g>
   <g id="text_2">
    <g clip-path="url(#paa111d911d)">
     <!-- TNFRSF1A -->
     <g transform="translate(278.937418 189.526232)scale(0.1 -0.1)">
      <defs>
       <path d="M 44.390625 34.1875 
Q 47.5625 33.109375 50.5625 29.59375 
Q 53.5625 26.078125 56.59375 19.921875 
L 66.609375 0 
L 56 0 
L 46.6875 18.703125 
Q 43.0625 26.03125 39.671875 28.421875 
Q 36.28125 30.8125 30.421875 30.8125 
L 19.671875 30.8125 
L 19.671875 0 
L 9.8125 0 
L 9.8125 72.90625 
L 32.078125 72.90625 
Q 44.578125 72.90625 50.734375 67.671875 
Q 56.890625 62.453125 56.890625 51.90625 
Q 56.890625 45.015625 53.6875 40.46875 
Q 50.484375 35.9375 44.390625 34.1875 
z
M 19.671875 64.796875 
L 19.671875 38.921875 
L 32.078125 38.921875 
Q 39.203125 38.921875 42.84375 42.21875 
Q 46.484375 45.515625 46.484375 51.90625 
Q 46.484375 58.296875 42.84375 61.546875 
Q 39.203125 64.796875 32.078125 64.796875 
z
" id="DejaVuSans-82"/>
       <path d="M 53.515625 70.515625 
L 53.515625 60.890625 
Q 47.90625 63.578125 42.921875 64.890625 
Q 37.9375 66.21875 33.296875 66.21875 
Q 25.25 66.21875 20.875 63.09375 
Q 16.5 59.96875 16.5 54.203125 
Q 16.5 49.359375 19.40625 46.890625 
Q 22.3125 44.4375 30.421875 42.921875 
L 36.375 41.703125 
Q 47.40625 39.59375 52.65625 34.296875 
Q 57.90625 29 57.90625 20.125 
Q 57.90625 9.515625 50.796875 4.046875 
Q 43.703125 -1.421875 29.984375 -1.421875 
Q 24.8125 -1.421875 18.96875 -0.25 
Q 13.140625 0.921875 6.890625 3.21875 
L 6.890625 13.375 
Q 12.890625 10.015625 18.65625 8.296875 
Q 24.421875 6.59375 29.984375 6.59375 
Q 38.421875 6.59375 43.015625 9.90625 
Q 47.609375 13.234375 47.609375 19.390625 
Q 47.609375 24.75 44.3125 27.78125 
Q 41.015625 30.8125 33.5 32.328125 
L 27.484375 33.5 
Q 16.453125 35.6875 11.515625 40.375 
Q 6.59375 45.0625 6.59375 53.421875 
Q 6.59375 63.09375 13.40625 68.65625 
Q 20.21875 74.21875 32.171875 74.21875 
Q 37.3125 74.21875 42.625 73.28125 
Q 47.953125 72.359375 53.515625 70.515625 
z
" id="DejaVuSans-83"/>
       <path d="M 12.40625 8.296875 
L 28.515625 8.296875 
L 28.515625 63.921875 
L 10.984375 60.40625 
L 10.984375 69.390625 
L 28.421875 72.90625 
L 38.28125 72.90625 
L 38.28125 8.296875 
L 54.390625 8.296875 
L 54.390625 0 
L 12.40625 0 
z
" id="DejaVuSans-49"/>
       <path d="M 34.1875 63.1875 
L 20.796875 26.90625 
L 47.609375 26.90625 
z
M 28.609375 72.90625 
L 39.796875 72.90625 
L 67.578125 0 
L 57.328125 0 
L 50.6875 18.703125 
L 17.828125 18.703125 
L 11.1875 0 
L 0.78125 0 
z
" id="DejaVuSans-65"/>
      </defs>
      <use xlink:href="#DejaVuSans-84"/>
      <use x="61.083984" xlink:href="#DejaVuSans-78"/>
      <use x="135.888672" xlink:href="#DejaVuSans-70"/>
      <use x="193.408203" xlink:href="#DejaVuSans-82"/>
      <use x="262.890625" xlink:href="#DejaVuSans-83"/>
      <use x="326.367188" xlink:href="#DejaVuSans-70"/>
      <use x="383.886719" xlink:href="#DejaVuSans-49"/>
      <use x="447.509766" xlink:href="#DejaVuSans-65"/>
     </g>
    </g>
   </g>
   <g id="text_3">
    <g clip-path="url(#paa111d911d)">
     <!-- TRADD -->
     <g transform="translate(74.667457 209.962897)scale(0.1 -0.1)">
      <defs>
       <path d="M 19.671875 64.796875 
L 19.671875 8.109375 
L 31.59375 8.109375 
Q 46.6875 8.109375 53.6875 14.9375 
Q 60.6875 21.78125 60.6875 36.53125 
Q 60.6875 51.171875 53.6875 57.984375 
Q 46.6875 64.796875 31.59375 64.796875 
z
M 9.8125 72.90625 
L 30.078125 72.90625 
Q 51.265625 72.90625 61.171875 64.09375 
Q 71.09375 55.28125 71.09375 36.53125 
Q 71.09375 17.671875 61.125 8.828125 
Q 51.171875 0 30.078125 0 
L 9.8125 0 
z
" id="DejaVuSans-68"/>
      </defs>
      <use xlink:href="#DejaVuSans-84"/>
      <use x="61.083984" xlink:href="#DejaVuSans-82"/>
      <use x="126.566406" xlink:href="#DejaVuSans-65"/>
      <use x="194.974609" xlink:href="#DejaVuSans-68"/>
      <use x="271.976562" xlink:href="#DejaVuSans-68"/>
     </g>
    </g>
   </g>
   <g id="text_4">
    <g clip-path="url(#paa111d911d)">
     <!-- RIPK1 -->
     <g transform="translate(389.286668 233.794967)scale(0.1 -0.1)">
      <defs>
       <path d="M 9.8125 72.90625 
L 19.671875 72.90625 
L 19.671875 0 
L 9.8125 0 
z
" id="DejaVuSans-73"/>
       <path d="M 19.671875 64.796875 
L 19.671875 37.40625 
L 32.078125 37.40625 
Q 38.96875 37.40625 42.71875 40.96875 
Q 46.484375 44.53125 46.484375 51.125 
Q 46.484375 57.671875 42.71875 61.234375 
Q 38.96875 64.796875 32.078125 64.796875 
z
M 9.8125 72.90625 
L 32.078125 72.90625 
Q 44.34375 72.90625 50.609375 67.359375 
Q 56.890625 61.8125 56.890625 51.125 
Q 56.890625 40.328125 50.609375 34.8125 
Q 44.34375 29.296875 32.078125 29.296875 
L 19.671875 29.296875 
L 19.671875 0 
L 9.8125 0 
z
" id="DejaVuSans-80"/>
       <path d="M 9.8125 72.90625 
L 19.671875 72.90625 
L 19.671875 42.09375 
L 52.390625 72.90625 
L 65.09375 72.90625 
L 28.90625 38.921875 
L 67.671875 0 
L 54.6875 0 
L 19.671875 35.109375 
L 19.671875 0 
L 9.8125 0 
z
" id="DejaVuSans-75"/>
      </defs>
      <use xlink:href="#DejaVuSans-82"/>
      <use x="69.482422" xlink:href="#DejaVuSans-73"/>
      <use x="98.974609" xlink:href="#DejaVuSans-80"/>
      <use x="159.277344" xlink:href="#DejaVuSans-75"/>
      <use x="224.853516" xlink:href="#DejaVuSans-49"/>
     </g>
    </g>
   </g>
   <g id="text_5">
    <g clip-path="url(#paa111d911d)">
     <!-- MAP3K7 -->
     <g transform="translate(269.621609 252.352175)scale(0.1 -0.1)">
      <defs>
       <path d="M 9.8125 72.90625 
L 24.515625 72.90625 
L 43.109375 23.296875 
L 61.8125 72.90625 
L 76.515625 72.90625 
L 76.515625 0 
L 66.890625 0 
L 66.890625 64.015625 
L 48.09375 14.015625 
L 38.1875 14.015625 
L 19.390625 64.015625 
L 19.390625 0 
L 9.8125 0 
z
" id="DejaVuSans-77"/>
       <path d="M 40.578125 39.3125 
Q 47.65625 37.796875 51.625 33 
Q 55.609375 28.21875 55.609375 21.1875 
Q 55.609375 10.40625 48.1875 4.484375 
Q 40.765625 -1.421875 27.09375 -1.421875 
Q 22.515625 -1.421875 17.65625 -0.515625 
Q 12.796875 0.390625 7.625 2.203125 
L 7.625 11.71875 
Q 11.71875 9.328125 16.59375 8.109375 
Q 21.484375 6.890625 26.8125 6.890625 
Q 36.078125 6.890625 40.9375 10.546875 
Q 45.796875 14.203125 45.796875 21.1875 
Q 45.796875 27.640625 41.28125 31.265625 
Q 36.765625 34.90625 28.71875 34.90625 
L 20.21875 34.90625 
L 20.21875 43.015625 
L 29.109375 43.015625 
Q 36.375 43.015625 40.234375 45.921875 
Q 44.09375 48.828125 44.09375 54.296875 
Q 44.09375 59.90625 40.109375 62.90625 
Q 36.140625 65.921875 28.71875 65.921875 
Q 24.65625 65.921875 20.015625 65.03125 
Q 15.375 64.15625 9.8125 62.3125 
L 9.8125 71.09375 
Q 15.4375 72.65625 20.34375 73.4375 
Q 25.25 74.21875 29.59375 74.21875 
Q 40.828125 74.21875 47.359375 69.109375 
Q 53.90625 64.015625 53.90625 55.328125 
Q 53.90625 49.265625 50.4375 45.09375 
Q 46.96875 40.921875 40.578125 39.3125 
z
" id="DejaVuSans-51"/>
       <path d="M 8.203125 72.90625 
L 55.078125 72.90625 
L 55.078125 68.703125 
L 28.609375 0 
L 18.3125 0 
L 43.21875 64.59375 
L 8.203125 64.59375 
z
" id="DejaVuSans-55"/>
      </defs>
      <use xlink:href="#DejaVuSans-77"/>
      <use x="86.279297" xlink:href="#DejaVuSans-65"/>
      <use x="154.6875" xlink:href="#DejaVuSans-80"/>
      <use x="214.990234" xlink:href="#DejaVuSans-51"/>
      <use x="278.613281" xlink:href="#DejaVuSans-75"/>
      <use x="344.189453" xlink:href="#DejaVuSans-55"/>
     </g>
    </g>
   </g>
   <g id="text_6">
    <g clip-path="url(#paa111d911d)">
     <!-- IKBKG -->
     <g transform="translate(339.475931 406.045995)scale(0.1 -0.1)">
      <defs>
       <path d="M 19.671875 34.8125 
L 19.671875 8.109375 
L 35.5 8.109375 
Q 43.453125 8.109375 47.28125 11.40625 
Q 51.125 14.703125 51.125 21.484375 
Q 51.125 28.328125 47.28125 31.5625 
Q 43.453125 34.8125 35.5 34.8125 
z
M 19.671875 64.796875 
L 19.671875 42.828125 
L 34.28125 42.828125 
Q 41.5 42.828125 45.03125 45.53125 
Q 48.578125 48.25 48.578125 53.8125 
Q 48.578125 59.328125 45.03125 62.0625 
Q 41.5 64.796875 34.28125 64.796875 
z
M 9.8125 72.90625 
L 35.015625 72.90625 
Q 46.296875 72.90625 52.390625 68.21875 
Q 58.5 63.53125 58.5 54.890625 
Q 58.5 48.1875 55.375 44.234375 
Q 52.25 40.28125 46.1875 39.3125 
Q 53.46875 37.75 57.5 32.78125 
Q 61.53125 27.828125 61.53125 20.40625 
Q 61.53125 10.640625 54.890625 5.3125 
Q 48.25 0 35.984375 0 
L 9.8125 0 
z
" id="DejaVuSans-66"/>
       <path d="M 59.515625 10.40625 
L 59.515625 29.984375 
L 43.40625 29.984375 
L 43.40625 38.09375 
L 69.28125 38.09375 
L 69.28125 6.78125 
Q 63.578125 2.734375 56.6875 0.65625 
Q 49.8125 -1.421875 42 -1.421875 
Q 24.90625 -1.421875 15.25 8.5625 
Q 5.609375 18.5625 5.609375 36.375 
Q 5.609375 54.25 15.25 64.234375 
Q 24.90625 74.21875 42 74.21875 
Q 49.125 74.21875 55.546875 72.453125 
Q 61.96875 70.703125 67.390625 67.28125 
L 67.390625 56.78125 
Q 61.921875 61.421875 55.765625 63.765625 
Q 49.609375 66.109375 42.828125 66.109375 
Q 29.4375 66.109375 22.71875 58.640625 
Q 16.015625 51.171875 16.015625 36.375 
Q 16.015625 21.625 22.71875 14.15625 
Q 29.4375 6.6875 42.828125 6.6875 
Q 48.046875 6.6875 52.140625 7.59375 
Q 56.25 8.5 59.515625 10.40625 
z
" id="DejaVuSans-71"/>
      </defs>
      <use xlink:href="#DejaVuSans-73"/>
      <use x="29.492188" xlink:href="#DejaVuSans-75"/>
      <use x="95.068359" xlink:href="#DejaVuSans-66"/>
      <use x="163.671875" xlink:href="#DejaVuSans-75"/>
      <use x="229.248047" xlink:href="#DejaVuSans-71"/>
     </g>
    </g>
   </g>
   <g id="text_7">
    <g clip-path="url(#paa111d911d)">
     <!-- IKBKB -->
     <g transform="translate(284.861003 430.110227)scale(0.1 -0.1)">
      <use xlink:href="#DejaVuSans-73"/>
      <use x="29.492188" xlink:href="#DejaVuSans-75"/>
      <use x="95.068359" xlink:href="#DejaVuSans-66"/>
      <use x="163.671875" xlink:href="#DejaVuSans-75"/>
      <use x="229.248047" xlink:href="#DejaVuSans-66"/>
     </g>
    </g>
   </g>
   <g id="text_8">
    <g clip-path="url(#paa111d911d)">
     <!-- NFKBIA -->
     <g transform="translate(214.014627 230.086699)scale(0.1 -0.1)">
      <use xlink:href="#DejaVuSans-78"/>
      <use x="74.804688" xlink:href="#DejaVuSans-70"/>
      <use x="132.324219" xlink:href="#DejaVuSans-75"/>
      <use x="197.900391" xlink:href="#DejaVuSans-66"/>
      <use x="266.503906" xlink:href="#DejaVuSans-73"/>
      <use x="295.996094" xlink:href="#DejaVuSans-65"/>
     </g>
    </g>
   </g>
   <g id="text_9">
    <g clip-path="url(#paa111d911d)">
     <!-- MAP3K8 -->
     <g transform="translate(374.550839 183.871308)scale(0.1 -0.1)">
      <defs>
       <path d="M 31.78125 34.625 
Q 24.75 34.625 20.71875 30.859375 
Q 16.703125 27.09375 16.703125 20.515625 
Q 16.703125 13.921875 20.71875 10.15625 
Q 24.75 6.390625 31.78125 6.390625 
Q 38.8125 6.390625 42.859375 10.171875 
Q 46.921875 13.96875 46.921875 20.515625 
Q 46.921875 27.09375 42.890625 30.859375 
Q 38.875 34.625 31.78125 34.625 
z
M 21.921875 38.8125 
Q 15.578125 40.375 12.03125 44.71875 
Q 8.5 49.078125 8.5 55.328125 
Q 8.5 64.0625 14.71875 69.140625 
Q 20.953125 74.21875 31.78125 74.21875 
Q 42.671875 74.21875 48.875 69.140625 
Q 55.078125 64.0625 55.078125 55.328125 
Q 55.078125 49.078125 51.53125 44.71875 
Q 48 40.375 41.703125 38.8125 
Q 48.828125 37.15625 52.796875 32.3125 
Q 56.78125 27.484375 56.78125 20.515625 
Q 56.78125 9.90625 50.3125 4.234375 
Q 43.84375 -1.421875 31.78125 -1.421875 
Q 19.734375 -1.421875 13.25 4.234375 
Q 6.78125 9.90625 6.78125 20.515625 
Q 6.78125 27.484375 10.78125 32.3125 
Q 14.796875 37.15625 21.921875 38.8125 
z
M 18.3125 54.390625 
Q 18.3125 48.734375 21.84375 45.5625 
Q 25.390625 42.390625 31.78125 42.390625 
Q 38.140625 42.390625 41.71875 45.5625 
Q 45.3125 48.734375 45.3125 54.390625 
Q 45.3125 60.0625 41.71875 63.234375 
Q 38.140625 66.40625 31.78125 66.40625 
Q 25.390625 66.40625 21.84375 63.234375 
Q 18.3125 60.0625 18.3125 54.390625 
z
" id="DejaVuSans-56"/>
      </defs>
      <use xlink:href="#DejaVuSans-77"/>
      <use x="86.279297" xlink:href="#DejaVuSans-65"/>
      <use x="154.6875" xlink:href="#DejaVuSans-80"/>
      <use x="214.990234" xlink:href="#DejaVuSans-51"/>
      <use x="278.613281" xlink:href="#DejaVuSans-75"/>
      <use x="344.189453" xlink:href="#DejaVuSans-56"/>
     </g>
    </g>
   </g>
   <g id="text_10">
    <g clip-path="url(#paa111d911d)">
     <!-- MAP2K1 -->
     <g transform="translate(203.533023 81.344789)scale(0.1 -0.1)">
      <defs>
       <path d="M 19.1875 8.296875 
L 53.609375 8.296875 
L 53.609375 0 
L 7.328125 0 
L 7.328125 8.296875 
Q 12.9375 14.109375 22.625 23.890625 
Q 32.328125 33.6875 34.8125 36.53125 
Q 39.546875 41.84375 41.421875 45.53125 
Q 43.3125 49.21875 43.3125 52.78125 
Q 43.3125 58.59375 39.234375 62.25 
Q 35.15625 65.921875 28.609375 65.921875 
Q 23.96875 65.921875 18.8125 64.3125 
Q 13.671875 62.703125 7.8125 59.421875 
L 7.8125 69.390625 
Q 13.765625 71.78125 18.9375 73 
Q 24.125 74.21875 28.421875 74.21875 
Q 39.75 74.21875 46.484375 68.546875 
Q 53.21875 62.890625 53.21875 53.421875 
Q 53.21875 48.921875 51.53125 44.890625 
Q 49.859375 40.875 45.40625 35.40625 
Q 44.1875 33.984375 37.640625 27.21875 
Q 31.109375 20.453125 19.1875 8.296875 
z
" id="DejaVuSans-50"/>
      </defs>
      <use xlink:href="#DejaVuSans-77"/>
      <use x="86.279297" xlink:href="#DejaVuSans-65"/>
      <use x="154.6875" xlink:href="#DejaVuSans-80"/>
      <use x="214.990234" xlink:href="#DejaVuSans-50"/>
      <use x="278.613281" xlink:href="#DejaVuSans-75"/>
      <use x="344.189453" xlink:href="#DejaVuSans-49"/>
     </g>
    </g>
   </g>
   <g id="text_11">
    <g clip-path="url(#paa111d911d)">
     <!-- TNFRSF1B -->
     <g transform="translate(301.748126 256.733932)scale(0.1 -0.1)">
      <use xlink:href="#DejaVuSans-84"/>
      <use x="61.083984" xlink:href="#DejaVuSans-78"/>
      <use x="135.888672" xlink:href="#DejaVuSans-70"/>
      <use x="193.408203" xlink:href="#DejaVuSans-82"/>
      <use x="262.890625" xlink:href="#DejaVuSans-83"/>
      <use x="326.367188" xlink:href="#DejaVuSans-70"/>
      <use x="383.886719" xlink:href="#DejaVuSans-49"/>
      <use x="447.509766" xlink:href="#DejaVuSans-66"/>
     </g>
    </g>
   </g>
   <g id="text_12">
    <g clip-path="url(#paa111d911d)">
     <!-- TRAF2 -->
     <g transform="translate(72.51352 175.79451)scale(0.1 -0.1)">
      <use xlink:href="#DejaVuSans-84"/>
      <use x="61.083984" xlink:href="#DejaVuSans-82"/>
      <use x="126.566406" xlink:href="#DejaVuSans-65"/>
      <use x="194.974609" xlink:href="#DejaVuSans-70"/>
      <use x="252.494141" xlink:href="#DejaVuSans-50"/>
     </g>
    </g>
   </g>
   <g id="text_13">
    <g clip-path="url(#paa111d911d)">
     <!-- MAP3K14 -->
     <g transform="translate(122.104089 330.61981)scale(0.1 -0.1)">
      <defs>
       <path d="M 37.796875 64.3125 
L 12.890625 25.390625 
L 37.796875 25.390625 
z
M 35.203125 72.90625 
L 47.609375 72.90625 
L 47.609375 25.390625 
L 58.015625 25.390625 
L 58.015625 17.1875 
L 47.609375 17.1875 
L 47.609375 0 
L 37.796875 0 
L 37.796875 17.1875 
L 4.890625 17.1875 
L 4.890625 26.703125 
z
" id="DejaVuSans-52"/>
      </defs>
      <use xlink:href="#DejaVuSans-77"/>
      <use x="86.279297" xlink:href="#DejaVuSans-65"/>
      <use x="154.6875" xlink:href="#DejaVuSans-80"/>
      <use x="214.990234" xlink:href="#DejaVuSans-51"/>
      <use x="278.613281" xlink:href="#DejaVuSans-75"/>
      <use x="344.189453" xlink:href="#DejaVuSans-49"/>
      <use x="407.8125" xlink:href="#DejaVuSans-52"/>
     </g>
    </g>
   </g>
   <g id="text_14">
    <g clip-path="url(#paa111d911d)">
     <!-- RIPK3 -->
     <g transform="translate(443.792409 186.678661)scale(0.1 -0.1)">
      <use xlink:href="#DejaVuSans-82"/>
      <use x="69.482422" xlink:href="#DejaVuSans-73"/>
      <use x="98.974609" xlink:href="#DejaVuSans-80"/>
      <use x="159.277344" xlink:href="#DejaVuSans-75"/>
      <use x="224.853516" xlink:href="#DejaVuSans-51"/>
     </g>
    </g>
   </g>
   <g id="text_15">
    <g clip-path="url(#paa111d911d)">
     <!-- BAG4 -->
     <g transform="translate(200.858937 411.54845)scale(0.1 -0.1)">
      <use xlink:href="#DejaVuSans-66"/>
      <use x="68.603516" xlink:href="#DejaVuSans-65"/>
      <use x="135.261719" xlink:href="#DejaVuSans-71"/>
      <use x="212.751953" xlink:href="#DejaVuSans-52"/>
     </g>
    </g>
   </g>
   <g id="text_16">
    <g clip-path="url(#paa111d911d)">
     <!-- MLKL -->
     <g transform="translate(52.140941 238.990478)scale(0.1 -0.1)">
      <defs>
       <path d="M 9.8125 72.90625 
L 19.671875 72.90625 
L 19.671875 8.296875 
L 55.171875 8.296875 
L 55.171875 0 
L 9.8125 0 
z
" id="DejaVuSans-76"/>
      </defs>
      <use xlink:href="#DejaVuSans-77"/>
      <use x="86.279297" xlink:href="#DejaVuSans-76"/>
      <use x="141.992188" xlink:href="#DejaVuSans-75"/>
      <use x="207.568359" xlink:href="#DejaVuSans-76"/>
     </g>
    </g>
   </g>
   <g id="text_17">
    <g clip-path="url(#paa111d911d)">
     <!-- PGAM5 -->
     <g transform="translate(146.865168 397.946031)scale(0.1 -0.1)">
      <defs>
       <path d="M 10.796875 72.90625 
L 49.515625 72.90625 
L 49.515625 64.59375 
L 19.828125 64.59375 
L 19.828125 46.734375 
Q 21.96875 47.46875 24.109375 47.828125 
Q 26.265625 48.1875 28.421875 48.1875 
Q 40.625 48.1875 47.75 41.5 
Q 54.890625 34.8125 54.890625 23.390625 
Q 54.890625 11.625 47.5625 5.09375 
Q 40.234375 -1.421875 26.90625 -1.421875 
Q 22.3125 -1.421875 17.546875 -0.640625 
Q 12.796875 0.140625 7.71875 1.703125 
L 7.71875 11.625 
Q 12.109375 9.234375 16.796875 8.0625 
Q 21.484375 6.890625 26.703125 6.890625 
Q 35.15625 6.890625 40.078125 11.328125 
Q 45.015625 15.765625 45.015625 23.390625 
Q 45.015625 31 40.078125 35.4375 
Q 35.15625 39.890625 26.703125 39.890625 
Q 22.75 39.890625 18.8125 39.015625 
Q 14.890625 38.140625 10.796875 36.28125 
z
" id="DejaVuSans-53"/>
      </defs>
      <use xlink:href="#DejaVuSans-80"/>
      <use x="60.302734" xlink:href="#DejaVuSans-71"/>
      <use x="137.792969" xlink:href="#DejaVuSans-65"/>
      <use x="206.201172" xlink:href="#DejaVuSans-77"/>
      <use x="292.480469" xlink:href="#DejaVuSans-53"/>
     </g>
    </g>
   </g>
   <g id="text_18">
    <g clip-path="url(#paa111d911d)">
     <!-- DNM1L -->
     <g transform="translate(486.808831 402.043988)scale(0.1 -0.1)">
      <use xlink:href="#DejaVuSans-68"/>
      <use x="77.001953" xlink:href="#DejaVuSans-78"/>
      <use x="151.806641" xlink:href="#DejaVuSans-77"/>
      <use x="238.085938" xlink:href="#DejaVuSans-49"/>
      <use x="301.708984" xlink:href="#DejaVuSans-76"/>
     </g>
    </g>
   </g>
   <g id="text_19">
    <g clip-path="url(#paa111d911d)">
     <!-- MAP3K5 -->
     <g transform="translate(367.059846 250.96875)scale(0.1 -0.1)">
      <use xlink:href="#DejaVuSans-77"/>
      <use x="86.279297" xlink:href="#DejaVuSans-65"/>
      <use x="154.6875" xlink:href="#DejaVuSans-80"/>
      <use x="214.990234" xlink:href="#DejaVuSans-51"/>
      <use x="278.613281" xlink:href="#DejaVuSans-75"/>
      <use x="344.189453" xlink:href="#DejaVuSans-53"/>
     </g>
    </g>
   </g>
   <g id="text_20">
    <g clip-path="url(#paa111d911d)">
     <!-- MAP2K3 -->
     <g transform="translate(113.695674 143.809608)scale(0.1 -0.1)">
      <use xlink:href="#DejaVuSans-77"/>
      <use x="86.279297" xlink:href="#DejaVuSans-65"/>
      <use x="154.6875" xlink:href="#DejaVuSans-80"/>
      <use x="214.990234" xlink:href="#DejaVuSans-50"/>
      <use x="278.613281" xlink:href="#DejaVuSans-75"/>
      <use x="344.189453" xlink:href="#DejaVuSans-51"/>
     </g>
    </g>
   </g>
   <g id="text_21">
    <g clip-path="url(#paa111d911d)">
     <!-- IRF1 -->
     <g transform="translate(151.675613 335.889321)scale(0.1 -0.1)">
      <use xlink:href="#DejaVuSans-73"/>
      <use x="29.492188" xlink:href="#DejaVuSans-82"/>
      <use x="98.974609" xlink:href="#DejaVuSans-70"/>
      <use x="156.494141" xlink:href="#DejaVuSans-49"/>
     </g>
    </g>
   </g>
   <g id="text_22">
    <g clip-path="url(#paa111d911d)">
     <!-- FADD -->
     <g transform="translate(161.204321 201.965392)scale(0.1 -0.1)">
      <use xlink:href="#DejaVuSans-70"/>
      <use x="48.394531" xlink:href="#DejaVuSans-65"/>
      <use x="116.802734" xlink:href="#DejaVuSans-68"/>
      <use x="193.804688" xlink:href="#DejaVuSans-68"/>
     </g>
    </g>
   </g>
   <g id="text_23">
    <g clip-path="url(#paa111d911d)">
     <!-- CASP7 -->
     <g transform="translate(602.412184 290.017594)scale(0.1 -0.1)">
      <defs>
       <path d="M 64.40625 67.28125 
L 64.40625 56.890625 
Q 59.421875 61.53125 53.78125 63.8125 
Q 48.140625 66.109375 41.796875 66.109375 
Q 29.296875 66.109375 22.65625 58.46875 
Q 16.015625 50.828125 16.015625 36.375 
Q 16.015625 21.96875 22.65625 14.328125 
Q 29.296875 6.6875 41.796875 6.6875 
Q 48.140625 6.6875 53.78125 8.984375 
Q 59.421875 11.28125 64.40625 15.921875 
L 64.40625 5.609375 
Q 59.234375 2.09375 53.4375 0.328125 
Q 47.65625 -1.421875 41.21875 -1.421875 
Q 24.65625 -1.421875 15.125 8.703125 
Q 5.609375 18.84375 5.609375 36.375 
Q 5.609375 53.953125 15.125 64.078125 
Q 24.65625 74.21875 41.21875 74.21875 
Q 47.75 74.21875 53.53125 72.484375 
Q 59.328125 70.75 64.40625 67.28125 
z
" id="DejaVuSans-67"/>
      </defs>
      <use xlink:href="#DejaVuSans-67"/>
      <use x="69.824219" xlink:href="#DejaVuSans-65"/>
      <use x="138.232422" xlink:href="#DejaVuSans-83"/>
      <use x="201.708984" xlink:href="#DejaVuSans-80"/>
      <use x="262.011719" xlink:href="#DejaVuSans-55"/>
     </g>
    </g>
   </g>
   <g id="text_24">
    <g clip-path="url(#paa111d911d)">
     <!-- CASP3 -->
     <g transform="translate(598.38651 250.325273)scale(0.1 -0.1)">
      <use xlink:href="#DejaVuSans-67"/>
      <use x="69.824219" xlink:href="#DejaVuSans-65"/>
      <use x="138.232422" xlink:href="#DejaVuSans-83"/>
      <use x="201.708984" xlink:href="#DejaVuSans-80"/>
      <use x="262.011719" xlink:href="#DejaVuSans-51"/>
     </g>
    </g>
   </g>
   <g id="text_25">
    <g clip-path="url(#paa111d911d)">
     <!-- ITCH -->
     <g transform="translate(519.637082 255.278464)scale(0.1 -0.1)">
      <defs>
       <path d="M 9.8125 72.90625 
L 19.671875 72.90625 
L 19.671875 43.015625 
L 55.515625 43.015625 
L 55.515625 72.90625 
L 65.375 72.90625 
L 65.375 0 
L 55.515625 0 
L 55.515625 34.71875 
L 19.671875 34.71875 
L 19.671875 0 
L 9.8125 0 
z
" id="DejaVuSans-72"/>
      </defs>
      <use xlink:href="#DejaVuSans-73"/>
      <use x="29.492188" xlink:href="#DejaVuSans-84"/>
      <use x="84.701172" xlink:href="#DejaVuSans-67"/>
      <use x="154.525391" xlink:href="#DejaVuSans-72"/>
     </g>
    </g>
   </g>
   <g id="text_26">
    <g clip-path="url(#paa111d911d)">
     <!-- CFLAR -->
     <g transform="translate(255.864833 142.805519)scale(0.1 -0.1)">
      <use xlink:href="#DejaVuSans-67"/>
      <use x="69.824219" xlink:href="#DejaVuSans-70"/>
      <use x="127.34375" xlink:href="#DejaVuSans-76"/>
      <use x="185.306641" xlink:href="#DejaVuSans-65"/>
      <use x="253.714844" xlink:href="#DejaVuSans-82"/>
     </g>
    </g>
   </g>
   <g id="text_27">
    <g clip-path="url(#paa111d911d)">
     <!-- TRAF5 -->
     <g transform="translate(244.949454 376.271495)scale(0.1 -0.1)">
      <use xlink:href="#DejaVuSans-84"/>
      <use x="61.083984" xlink:href="#DejaVuSans-82"/>
      <use x="126.566406" xlink:href="#DejaVuSans-65"/>
      <use x="194.974609" xlink:href="#DejaVuSans-70"/>
      <use x="252.494141" xlink:href="#DejaVuSans-53"/>
     </g>
    </g>
   </g>
   <g id="text_28">
    <g clip-path="url(#paa111d911d)">
     <!-- MAP2K4 -->
     <g transform="translate(154.067715 105.636203)scale(0.1 -0.1)">
      <use xlink:href="#DejaVuSans-77"/>
      <use x="86.279297" xlink:href="#DejaVuSans-65"/>
      <use x="154.6875" xlink:href="#DejaVuSans-80"/>
      <use x="214.990234" xlink:href="#DejaVuSans-50"/>
      <use x="278.613281" xlink:href="#DejaVuSans-75"/>
      <use x="344.189453" xlink:href="#DejaVuSans-52"/>
     </g>
    </g>
   </g>
   <g id="text_29">
    <g clip-path="url(#paa111d911d)">
     <!-- MAP2K7 -->
     <g transform="translate(400.577206 424.646681)scale(0.1 -0.1)">
      <use xlink:href="#DejaVuSans-77"/>
      <use x="86.279297" xlink:href="#DejaVuSans-65"/>
      <use x="154.6875" xlink:href="#DejaVuSans-80"/>
      <use x="214.990234" xlink:href="#DejaVuSans-50"/>
      <use x="278.613281" xlink:href="#DejaVuSans-75"/>
      <use x="344.189453" xlink:href="#DejaVuSans-55"/>
     </g>
    </g>
   </g>
   <g id="text_30">
    <g clip-path="url(#paa111d911d)">
     <!-- MAP2K6 -->
     <g transform="translate(552.240735 111.596905)scale(0.1 -0.1)">
      <defs>
       <path d="M 33.015625 40.375 
Q 26.375 40.375 22.484375 35.828125 
Q 18.609375 31.296875 18.609375 23.390625 
Q 18.609375 15.53125 22.484375 10.953125 
Q 26.375 6.390625 33.015625 6.390625 
Q 39.65625 6.390625 43.53125 10.953125 
Q 47.40625 15.53125 47.40625 23.390625 
Q 47.40625 31.296875 43.53125 35.828125 
Q 39.65625 40.375 33.015625 40.375 
z
M 52.59375 71.296875 
L 52.59375 62.3125 
Q 48.875 64.0625 45.09375 64.984375 
Q 41.3125 65.921875 37.59375 65.921875 
Q 27.828125 65.921875 22.671875 59.328125 
Q 17.53125 52.734375 16.796875 39.40625 
Q 19.671875 43.65625 24.015625 45.921875 
Q 28.375 48.1875 33.59375 48.1875 
Q 44.578125 48.1875 50.953125 41.515625 
Q 57.328125 34.859375 57.328125 23.390625 
Q 57.328125 12.15625 50.6875 5.359375 
Q 44.046875 -1.421875 33.015625 -1.421875 
Q 20.359375 -1.421875 13.671875 8.265625 
Q 6.984375 17.96875 6.984375 36.375 
Q 6.984375 53.65625 15.1875 63.9375 
Q 23.390625 74.21875 37.203125 74.21875 
Q 40.921875 74.21875 44.703125 73.484375 
Q 48.484375 72.75 52.59375 71.296875 
z
" id="DejaVuSans-54"/>
      </defs>
      <use xlink:href="#DejaVuSans-77"/>
      <use x="86.279297" xlink:href="#DejaVuSans-65"/>
      <use x="154.6875" xlink:href="#DejaVuSans-80"/>
      <use x="214.990234" xlink:href="#DejaVuSans-50"/>
      <use x="278.613281" xlink:href="#DejaVuSans-75"/>
      <use x="344.189453" xlink:href="#DejaVuSans-54"/>
     </g>
    </g>
   </g>
   <g id="text_31">
    <g clip-path="url(#paa111d911d)">
     <!-- RELA -->
     <g transform="translate(474.304808 297.938241)scale(0.1 -0.1)">
      <defs>
       <path d="M 9.8125 72.90625 
L 55.90625 72.90625 
L 55.90625 64.59375 
L 19.671875 64.59375 
L 19.671875 43.015625 
L 54.390625 43.015625 
L 54.390625 34.71875 
L 19.671875 34.71875 
L 19.671875 8.296875 
L 56.78125 8.296875 
L 56.78125 0 
L 9.8125 0 
z
" id="DejaVuSans-69"/>
      </defs>
      <use xlink:href="#DejaVuSans-82"/>
      <use x="69.482422" xlink:href="#DejaVuSans-69"/>
      <use x="132.666016" xlink:href="#DejaVuSans-76"/>
      <use x="190.628906" xlink:href="#DejaVuSans-65"/>
     </g>
    </g>
   </g>
   <g id="text_32">
    <g clip-path="url(#paa111d911d)">
     <!-- NFKB1 -->
     <g transform="translate(293.996468 63.564773)scale(0.1 -0.1)">
      <use xlink:href="#DejaVuSans-78"/>
      <use x="74.804688" xlink:href="#DejaVuSans-70"/>
      <use x="132.324219" xlink:href="#DejaVuSans-75"/>
      <use x="197.900391" xlink:href="#DejaVuSans-66"/>
      <use x="266.503906" xlink:href="#DejaVuSans-49"/>
     </g>
    </g>
   </g>
   <g id="text_33">
    <g clip-path="url(#paa111d911d)">
     <!-- RPS6KA5 -->
     <g transform="translate(294.917793 252.789719)scale(0.1 -0.1)">
      <use xlink:href="#DejaVuSans-82"/>
      <use x="69.482422" xlink:href="#DejaVuSans-80"/>
      <use x="129.785156" xlink:href="#DejaVuSans-83"/>
      <use x="193.261719" xlink:href="#DejaVuSans-54"/>
      <use x="256.884766" xlink:href="#DejaVuSans-75"/>
      <use x="320.710938" xlink:href="#DejaVuSans-65"/>
      <use x="389.119141" xlink:href="#DejaVuSans-53"/>
     </g>
    </g>
   </g>
   <g id="text_34">
    <g clip-path="url(#paa111d911d)">
     <!-- RPS6KA4 -->
     <g transform="translate(348.399171 307.517619)scale(0.1 -0.1)">
      <use xlink:href="#DejaVuSans-82"/>
      <use x="69.482422" xlink:href="#DejaVuSans-80"/>
      <use x="129.785156" xlink:href="#DejaVuSans-83"/>
      <use x="193.261719" xlink:href="#DejaVuSans-54"/>
      <use x="256.884766" xlink:href="#DejaVuSans-75"/>
      <use x="320.710938" xlink:href="#DejaVuSans-65"/>
      <use x="389.119141" xlink:href="#DejaVuSans-52"/>
     </g>
    </g>
   </g>
   <g id="text_35">
    <g clip-path="url(#paa111d911d)">
     <!-- CREB1 -->
     <g transform="translate(149.732395 386.675597)scale(0.1 -0.1)">
      <use xlink:href="#DejaVuSans-67"/>
      <use x="69.824219" xlink:href="#DejaVuSans-82"/>
      <use x="139.306641" xlink:href="#DejaVuSans-69"/>
      <use x="202.490234" xlink:href="#DejaVuSans-66"/>
      <use x="271.09375" xlink:href="#DejaVuSans-49"/>
     </g>
    </g>
   </g>
   <g id="text_36">
    <g clip-path="url(#paa111d911d)">
     <!-- CREB3 -->
     <g transform="translate(251.160783 415.804225)scale(0.1 -0.1)">
      <use xlink:href="#DejaVuSans-67"/>
      <use x="69.824219" xlink:href="#DejaVuSans-82"/>
      <use x="139.306641" xlink:href="#DejaVuSans-69"/>
      <use x="202.490234" xlink:href="#DejaVuSans-66"/>
      <use x="271.09375" xlink:href="#DejaVuSans-51"/>
     </g>
    </g>
   </g>
   <g id="text_37">
    <g clip-path="url(#paa111d911d)">
     <!-- ATF2 -->
     <g transform="translate(86.887296 318.135158)scale(0.1 -0.1)">
      <use xlink:href="#DejaVuSans-65"/>
      <use x="60.658203" xlink:href="#DejaVuSans-84"/>
      <use x="121.742188" xlink:href="#DejaVuSans-70"/>
      <use x="179.261719" xlink:href="#DejaVuSans-50"/>
     </g>
    </g>
   </g>
   <g id="text_38">
    <g clip-path="url(#paa111d911d)">
     <!-- ATF4 -->
     <g transform="translate(495.069401 72.266294)scale(0.1 -0.1)">
      <use xlink:href="#DejaVuSans-65"/>
      <use x="60.658203" xlink:href="#DejaVuSans-84"/>
      <use x="121.742188" xlink:href="#DejaVuSans-70"/>
      <use x="179.261719" xlink:href="#DejaVuSans-52"/>
     </g>
    </g>
   </g>
   <g id="text_39">
    <g clip-path="url(#paa111d911d)">
     <!-- ATF6B -->
     <g transform="translate(565.711904 351.279207)scale(0.1 -0.1)">
      <use xlink:href="#DejaVuSans-65"/>
      <use x="60.658203" xlink:href="#DejaVuSans-84"/>
      <use x="121.742188" xlink:href="#DejaVuSans-70"/>
      <use x="179.261719" xlink:href="#DejaVuSans-54"/>
      <use x="242.884766" xlink:href="#DejaVuSans-66"/>
     </g>
    </g>
   </g>
   <g id="text_40">
    <g clip-path="url(#paa111d911d)">
     <!-- LTA -->
     <g transform="translate(593.063663 162.105116)scale(0.1 -0.1)">
      <use xlink:href="#DejaVuSans-76"/>
      <use x="41.962891" xlink:href="#DejaVuSans-84"/>
      <use x="95.296875" xlink:href="#DejaVuSans-65"/>
     </g>
    </g>
   </g>
   <g id="text_41">
    <g clip-path="url(#paa111d911d)">
     <!-- CASP8 -->
     <g transform="translate(339.701499 215.998272)scale(0.1 -0.1)">
      <use xlink:href="#DejaVuSans-67"/>
      <use x="69.824219" xlink:href="#DejaVuSans-65"/>
      <use x="138.232422" xlink:href="#DejaVuSans-83"/>
      <use x="201.708984" xlink:href="#DejaVuSans-80"/>
      <use x="262.011719" xlink:href="#DejaVuSans-56"/>
     </g>
    </g>
   </g>
   <g id="text_42">
    <g clip-path="url(#paa111d911d)">
     <!-- CASP10 -->
     <g transform="translate(280.71602 315.550737)scale(0.1 -0.1)">
      <defs>
       <path d="M 31.78125 66.40625 
Q 24.171875 66.40625 20.328125 58.90625 
Q 16.5 51.421875 16.5 36.375 
Q 16.5 21.390625 20.328125 13.890625 
Q 24.171875 6.390625 31.78125 6.390625 
Q 39.453125 6.390625 43.28125 13.890625 
Q 47.125 21.390625 47.125 36.375 
Q 47.125 51.421875 43.28125 58.90625 
Q 39.453125 66.40625 31.78125 66.40625 
z
M 31.78125 74.21875 
Q 44.046875 74.21875 50.515625 64.515625 
Q 56.984375 54.828125 56.984375 36.375 
Q 56.984375 17.96875 50.515625 8.265625 
Q 44.046875 -1.421875 31.78125 -1.421875 
Q 19.53125 -1.421875 13.0625 8.265625 
Q 6.59375 17.96875 6.59375 36.375 
Q 6.59375 54.828125 13.0625 64.515625 
Q 19.53125 74.21875 31.78125 74.21875 
z
" id="DejaVuSans-48"/>
      </defs>
      <use xlink:href="#DejaVuSans-67"/>
      <use x="69.824219" xlink:href="#DejaVuSans-65"/>
      <use x="138.232422" xlink:href="#DejaVuSans-83"/>
      <use x="201.708984" xlink:href="#DejaVuSans-80"/>
      <use x="262.011719" xlink:href="#DejaVuSans-49"/>
      <use x="325.634766" xlink:href="#DejaVuSans-48"/>
     </g>
    </g>
   </g>
   <g id="text_43">
    <!-- Importance Score for Each Node in the Network -->
    <g transform="translate(198.616875 16.318125)scale(0.12 -0.12)">
     <defs>
      <path d="M 52 44.1875 
Q 55.375 50.25 60.0625 53.125 
Q 64.75 56 71.09375 56 
Q 79.640625 56 84.28125 50.015625 
Q 88.921875 44.046875 88.921875 33.015625 
L 88.921875 0 
L 79.890625 0 
L 79.890625 32.71875 
Q 79.890625 40.578125 77.09375 44.375 
Q 74.3125 48.1875 68.609375 48.1875 
Q 61.625 48.1875 57.5625 43.546875 
Q 53.515625 38.921875 53.515625 30.90625 
L 53.515625 0 
L 44.484375 0 
L 44.484375 32.71875 
Q 44.484375 40.625 41.703125 44.40625 
Q 38.921875 48.1875 33.109375 48.1875 
Q 26.21875 48.1875 22.15625 43.53125 
Q 18.109375 38.875 18.109375 30.90625 
L 18.109375 0 
L 9.078125 0 
L 9.078125 54.6875 
L 18.109375 54.6875 
L 18.109375 46.1875 
Q 21.1875 51.21875 25.484375 53.609375 
Q 29.78125 56 35.6875 56 
Q 41.65625 56 45.828125 52.96875 
Q 50 49.953125 52 44.1875 
z
" id="DejaVuSans-109"/>
      <path d="M 18.109375 8.203125 
L 18.109375 -20.796875 
L 9.078125 -20.796875 
L 9.078125 54.6875 
L 18.109375 54.6875 
L 18.109375 46.390625 
Q 20.953125 51.265625 25.265625 53.625 
Q 29.59375 56 35.59375 56 
Q 45.5625 56 51.78125 48.09375 
Q 58.015625 40.1875 58.015625 27.296875 
Q 58.015625 14.40625 51.78125 6.484375 
Q 45.5625 -1.421875 35.59375 -1.421875 
Q 29.59375 -1.421875 25.265625 0.953125 
Q 20.953125 3.328125 18.109375 8.203125 
z
M 48.6875 27.296875 
Q 48.6875 37.203125 44.609375 42.84375 
Q 40.53125 48.484375 33.40625 48.484375 
Q 26.265625 48.484375 22.1875 42.84375 
Q 18.109375 37.203125 18.109375 27.296875 
Q 18.109375 17.390625 22.1875 11.75 
Q 26.265625 6.109375 33.40625 6.109375 
Q 40.53125 6.109375 44.609375 11.75 
Q 48.6875 17.390625 48.6875 27.296875 
z
" id="DejaVuSans-112"/>
      <path d="M 30.609375 48.390625 
Q 23.390625 48.390625 19.1875 42.75 
Q 14.984375 37.109375 14.984375 27.296875 
Q 14.984375 17.484375 19.15625 11.84375 
Q 23.34375 6.203125 30.609375 6.203125 
Q 37.796875 6.203125 41.984375 11.859375 
Q 46.1875 17.53125 46.1875 27.296875 
Q 46.1875 37.015625 41.984375 42.703125 
Q 37.796875 48.390625 30.609375 48.390625 
z
M 30.609375 56 
Q 42.328125 56 49.015625 48.375 
Q 55.71875 40.765625 55.71875 27.296875 
Q 55.71875 13.875 49.015625 6.21875 
Q 42.328125 -1.421875 30.609375 -1.421875 
Q 18.84375 -1.421875 12.171875 6.21875 
Q 5.515625 13.875 5.515625 27.296875 
Q 5.515625 40.765625 12.171875 48.375 
Q 18.84375 56 30.609375 56 
z
" id="DejaVuSans-111"/>
      <path d="M 41.109375 46.296875 
Q 39.59375 47.171875 37.8125 47.578125 
Q 36.03125 48 33.890625 48 
Q 26.265625 48 22.1875 43.046875 
Q 18.109375 38.09375 18.109375 28.8125 
L 18.109375 0 
L 9.078125 0 
L 9.078125 54.6875 
L 18.109375 54.6875 
L 18.109375 46.1875 
Q 20.953125 51.171875 25.484375 53.578125 
Q 30.03125 56 36.53125 56 
Q 37.453125 56 38.578125 55.875 
Q 39.703125 55.765625 41.0625 55.515625 
z
" id="DejaVuSans-114"/>
      <path d="M 18.3125 70.21875 
L 18.3125 54.6875 
L 36.8125 54.6875 
L 36.8125 47.703125 
L 18.3125 47.703125 
L 18.3125 18.015625 
Q 18.3125 11.328125 20.140625 9.421875 
Q 21.96875 7.515625 27.59375 7.515625 
L 36.8125 7.515625 
L 36.8125 0 
L 27.59375 0 
Q 17.1875 0 13.234375 3.875 
Q 9.28125 7.765625 9.28125 18.015625 
L 9.28125 47.703125 
L 2.6875 47.703125 
L 2.6875 54.6875 
L 9.28125 54.6875 
L 9.28125 70.21875 
z
" id="DejaVuSans-116"/>
      <path d="M 34.28125 27.484375 
Q 23.390625 27.484375 19.1875 25 
Q 14.984375 22.515625 14.984375 16.5 
Q 14.984375 11.71875 18.140625 8.90625 
Q 21.296875 6.109375 26.703125 6.109375 
Q 34.1875 6.109375 38.703125 11.40625 
Q 43.21875 16.703125 43.21875 25.484375 
L 43.21875 27.484375 
z
M 52.203125 31.203125 
L 52.203125 0 
L 43.21875 0 
L 43.21875 8.296875 
Q 40.140625 3.328125 35.546875 0.953125 
Q 30.953125 -1.421875 24.3125 -1.421875 
Q 15.921875 -1.421875 10.953125 3.296875 
Q 6 8.015625 6 15.921875 
Q 6 25.140625 12.171875 29.828125 
Q 18.359375 34.515625 30.609375 34.515625 
L 43.21875 34.515625 
L 43.21875 35.40625 
Q 43.21875 41.609375 39.140625 45 
Q 35.0625 48.390625 27.6875 48.390625 
Q 23 48.390625 18.546875 47.265625 
Q 14.109375 46.140625 10.015625 43.890625 
L 10.015625 52.203125 
Q 14.9375 54.109375 19.578125 55.046875 
Q 24.21875 56 28.609375 56 
Q 40.484375 56 46.34375 49.84375 
Q 52.203125 43.703125 52.203125 31.203125 
z
" id="DejaVuSans-97"/>
      <path d="M 54.890625 33.015625 
L 54.890625 0 
L 45.90625 0 
L 45.90625 32.71875 
Q 45.90625 40.484375 42.875 44.328125 
Q 39.84375 48.1875 33.796875 48.1875 
Q 26.515625 48.1875 22.3125 43.546875 
Q 18.109375 38.921875 18.109375 30.90625 
L 18.109375 0 
L 9.078125 0 
L 9.078125 54.6875 
L 18.109375 54.6875 
L 18.109375 46.1875 
Q 21.34375 51.125 25.703125 53.5625 
Q 30.078125 56 35.796875 56 
Q 45.21875 56 50.046875 50.171875 
Q 54.890625 44.34375 54.890625 33.015625 
z
" id="DejaVuSans-110"/>
      <path d="M 48.78125 52.59375 
L 48.78125 44.1875 
Q 44.96875 46.296875 41.140625 47.34375 
Q 37.3125 48.390625 33.40625 48.390625 
Q 24.65625 48.390625 19.8125 42.84375 
Q 14.984375 37.3125 14.984375 27.296875 
Q 14.984375 17.28125 19.8125 11.734375 
Q 24.65625 6.203125 33.40625 6.203125 
Q 37.3125 6.203125 41.140625 7.25 
Q 44.96875 8.296875 48.78125 10.40625 
L 48.78125 2.09375 
Q 45.015625 0.34375 40.984375 -0.53125 
Q 36.96875 -1.421875 32.421875 -1.421875 
Q 20.0625 -1.421875 12.78125 6.34375 
Q 5.515625 14.109375 5.515625 27.296875 
Q 5.515625 40.671875 12.859375 48.328125 
Q 20.21875 56 33.015625 56 
Q 37.15625 56 41.109375 55.140625 
Q 45.0625 54.296875 48.78125 52.59375 
z
" id="DejaVuSans-99"/>
      <path d="M 56.203125 29.59375 
L 56.203125 25.203125 
L 14.890625 25.203125 
Q 15.484375 15.921875 20.484375 11.0625 
Q 25.484375 6.203125 34.421875 6.203125 
Q 39.59375 6.203125 44.453125 7.46875 
Q 49.3125 8.734375 54.109375 11.28125 
L 54.109375 2.78125 
Q 49.265625 0.734375 44.1875 -0.34375 
Q 39.109375 -1.421875 33.890625 -1.421875 
Q 20.796875 -1.421875 13.15625 6.1875 
Q 5.515625 13.8125 5.515625 26.8125 
Q 5.515625 40.234375 12.765625 48.109375 
Q 20.015625 56 32.328125 56 
Q 43.359375 56 49.78125 48.890625 
Q 56.203125 41.796875 56.203125 29.59375 
z
M 47.21875 32.234375 
Q 47.125 39.59375 43.09375 43.984375 
Q 39.0625 48.390625 32.421875 48.390625 
Q 24.90625 48.390625 20.390625 44.140625 
Q 15.875 39.890625 15.1875 32.171875 
z
" id="DejaVuSans-101"/>
      <path id="DejaVuSans-32"/>
      <path d="M 37.109375 75.984375 
L 37.109375 68.5 
L 28.515625 68.5 
Q 23.6875 68.5 21.796875 66.546875 
Q 19.921875 64.59375 19.921875 59.515625 
L 19.921875 54.6875 
L 34.71875 54.6875 
L 34.71875 47.703125 
L 19.921875 47.703125 
L 19.921875 0 
L 10.890625 0 
L 10.890625 47.703125 
L 2.296875 47.703125 
L 2.296875 54.6875 
L 10.890625 54.6875 
L 10.890625 58.5 
Q 10.890625 67.625 15.140625 71.796875 
Q 19.390625 75.984375 28.609375 75.984375 
z
" id="DejaVuSans-102"/>
      <path d="M 54.890625 33.015625 
L 54.890625 0 
L 45.90625 0 
L 45.90625 32.71875 
Q 45.90625 40.484375 42.875 44.328125 
Q 39.84375 48.1875 33.796875 48.1875 
Q 26.515625 48.1875 22.3125 43.546875 
Q 18.109375 38.921875 18.109375 30.90625 
L 18.109375 0 
L 9.078125 0 
L 9.078125 75.984375 
L 18.109375 75.984375 
L 18.109375 46.1875 
Q 21.34375 51.125 25.703125 53.5625 
Q 30.078125 56 35.796875 56 
Q 45.21875 56 50.046875 50.171875 
Q 54.890625 44.34375 54.890625 33.015625 
z
" id="DejaVuSans-104"/>
      <path d="M 45.40625 46.390625 
L 45.40625 75.984375 
L 54.390625 75.984375 
L 54.390625 0 
L 45.40625 0 
L 45.40625 8.203125 
Q 42.578125 3.328125 38.25 0.953125 
Q 33.9375 -1.421875 27.875 -1.421875 
Q 17.96875 -1.421875 11.734375 6.484375 
Q 5.515625 14.40625 5.515625 27.296875 
Q 5.515625 40.1875 11.734375 48.09375 
Q 17.96875 56 27.875 56 
Q 33.9375 56 38.25 53.625 
Q 42.578125 51.265625 45.40625 46.390625 
z
M 14.796875 27.296875 
Q 14.796875 17.390625 18.875 11.75 
Q 22.953125 6.109375 30.078125 6.109375 
Q 37.203125 6.109375 41.296875 11.75 
Q 45.40625 17.390625 45.40625 27.296875 
Q 45.40625 37.203125 41.296875 42.84375 
Q 37.203125 48.484375 30.078125 48.484375 
Q 22.953125 48.484375 18.875 42.84375 
Q 14.796875 37.203125 14.796875 27.296875 
z
" id="DejaVuSans-100"/>
      <path d="M 9.421875 54.6875 
L 18.40625 54.6875 
L 18.40625 0 
L 9.421875 0 
z
M 9.421875 75.984375 
L 18.40625 75.984375 
L 18.40625 64.59375 
L 9.421875 64.59375 
z
" id="DejaVuSans-105"/>
      <path d="M 4.203125 54.6875 
L 13.1875 54.6875 
L 24.421875 12.015625 
L 35.59375 54.6875 
L 46.1875 54.6875 
L 57.421875 12.015625 
L 68.609375 54.6875 
L 77.59375 54.6875 
L 63.28125 0 
L 52.6875 0 
L 40.921875 44.828125 
L 29.109375 0 
L 18.5 0 
z
" id="DejaVuSans-119"/>
      <path d="M 9.078125 75.984375 
L 18.109375 75.984375 
L 18.109375 31.109375 
L 44.921875 54.6875 
L 56.390625 54.6875 
L 27.390625 29.109375 
L 57.625 0 
L 45.90625 0 
L 18.109375 26.703125 
L 18.109375 0 
L 9.078125 0 
z
" id="DejaVuSans-107"/>
     </defs>
     <use xlink:href="#DejaVuSans-73"/>
     <use x="29.492188" xlink:href="#DejaVuSans-109"/>
     <use x="126.904297" xlink:href="#DejaVuSans-112"/>
     <use x="190.380859" xlink:href="#DejaVuSans-111"/>
     <use x="251.5625" xlink:href="#DejaVuSans-114"/>
     <use x="292.675781" xlink:href="#DejaVuSans-116"/>
     <use x="331.884766" xlink:href="#DejaVuSans-97"/>
     <use x="393.164062" xlink:href="#DejaVuSans-110"/>
     <use x="456.542969" xlink:href="#DejaVuSans-99"/>
     <use x="511.523438" xlink:href="#DejaVuSans-101"/>
     <use x="573.046875" xlink:href="#DejaVuSans-32"/>
     <use x="604.833984" xlink:href="#DejaVuSans-83"/>
     <use x="668.310547" xlink:href="#DejaVuSans-99"/>
     <use x="723.291016" xlink:href="#DejaVuSans-111"/>
     <use x="784.472656" xlink:href="#DejaVuSans-114"/>
     <use x="823.335938" xlink:href="#DejaVuSans-101"/>
     <use x="884.859375" xlink:href="#DejaVuSans-32"/>
     <use x="916.646484" xlink:href="#DejaVuSans-102"/>
     <use x="951.851562" xlink:href="#DejaVuSans-111"/>
     <use x="1013.033203" xlink:href="#DejaVuSans-114"/>
     <use x="1054.146484" xlink:href="#DejaVuSans-32"/>
     <use x="1085.933594" xlink:href="#DejaVuSans-69"/>
     <use x="1149.117188" xlink:href="#DejaVuSans-97"/>
     <use x="1210.396484" xlink:href="#DejaVuSans-99"/>
     <use x="1265.376953" xlink:href="#DejaVuSans-104"/>
     <use x="1328.755859" xlink:href="#DejaVuSans-32"/>
     <use x="1360.542969" xlink:href="#DejaVuSans-78"/>
     <use x="1435.347656" xlink:href="#DejaVuSans-111"/>
     <use x="1496.529297" xlink:href="#DejaVuSans-100"/>
     <use x="1560.005859" xlink:href="#DejaVuSans-101"/>
     <use x="1621.529297" xlink:href="#DejaVuSans-32"/>
     <use x="1653.316406" xlink:href="#DejaVuSans-105"/>
     <use x="1681.099609" xlink:href="#DejaVuSans-110"/>
     <use x="1744.478516" xlink:href="#DejaVuSans-32"/>
     <use x="1776.265625" xlink:href="#DejaVuSans-116"/>
     <use x="1815.474609" xlink:href="#DejaVuSans-104"/>
     <use x="1878.853516" xlink:href="#DejaVuSans-101"/>
     <use x="1940.376953" xlink:href="#DejaVuSans-32"/>
     <use x="1972.164062" xlink:href="#DejaVuSans-78"/>
     <use x="2046.96875" xlink:href="#DejaVuSans-101"/>
     <use x="2108.492188" xlink:href="#DejaVuSans-116"/>
     <use x="2147.701172" xlink:href="#DejaVuSans-119"/>
     <use x="2229.488281" xlink:href="#DejaVuSans-111"/>
     <use x="2290.669922" xlink:href="#DejaVuSans-114"/>
     <use x="2331.783203" xlink:href="#DejaVuSans-107"/>
    </g>
   </g>
  </g>
 </g>
 <defs>
  <clipPath id="paa111d911d">
   <rect height="443.52" width="669.6" x="7.2" y="22.318125"/>
  </clipPath>
 </defs>
</svg>
