<?xml version="1.0" encoding="utf-8" standalone="no"?>
<!DOCTYPE svg PUBLIC "-//W3C//DTD SVG 1.1//EN"
  "http://www.w3.org/Graphics/SVG/1.1/DTD/svg11.dtd">
<!-- Created with matplotlib (https://matplotlib.org/) -->
<svg height="473.038125pt" version="1.1" viewBox="0 0 684 473.038125" width="684pt" xmlns="http://www.w3.org/2000/svg" xmlns:xlink="http://www.w3.org/1999/xlink">
 <metadata>
  <rdf:RDF xmlns:cc="http://creativecommons.org/ns#" xmlns:dc="http://purl.org/dc/elements/1.1/" xmlns:rdf="http://www.w3.org/1999/02/22-rdf-syntax-ns#">
   <cc:Work>
    <dc:type rdf:resource="http://purl.org/dc/dcmitype/StillImage"/>
    <dc:date>2024-04-26T10:55:21.759665</dc:date>
    <dc:format>image/svg+xml</dc:format>
    <dc:creator>
     <cc:Agent>
      <dc:title>Matplotlib v3.3.1, https://matplotlib.org/</dc:title>
     </cc:Agent>
    </dc:creator>
   </cc:Work>
  </rdf:RDF>
 </metadata>
 <defs>
  <style type="text/css">*{stroke-linecap:butt;stroke-linejoin:round;}</style>
 </defs>
 <g id="figure_1">
  <g id="patch_1">
   <path d="M 0 473.038125 
L 684 473.038125 
L 684 0 
L 0 0 
z
" style="fill:#ffffff;"/>
  </g>
  <g id="axes_1">
   <g id="patch_2">
    <path clip-path="url(#pfa10794bde)" d="M 468.105348 338.702453 
Q 413.841575 269.659638 360.268671 201.495855 
" style="fill:none;stroke:#808080;stroke-linecap:round;"/>
    <path clip-path="url(#pfa10794bde)" d="M 361.167943 205.876644 
L 360.268671 201.495855 
L 364.312865 203.404911 
L 361.167943 205.876644 
z
" style="fill:#808080;stroke:#808080;stroke-linecap:round;"/>
   </g>
   <g id="patch_3">
    <path clip-path="url(#pfa10794bde)" d="M 481.942941 343.803678 
Q 503.256092 339.518216 523.473148 335.453148 
" style="fill:none;stroke:#808080;stroke-linecap:round;"/>
    <path clip-path="url(#pfa10794bde)" d="M 519.157384 334.280895 
L 523.473148 335.453148 
L 519.945887 338.202408 
L 519.157384 334.280895 
z
" style="fill:#808080;stroke:#808080;stroke-linecap:round;"/>
   </g>
   <g id="patch_4">
    <path clip-path="url(#pfa10794bde)" d="M 465.808747 349.575026 
Q 450.398989 357.766127 435.976461 365.432464 
" style="fill:none;stroke:#808080;stroke-linecap:round;"/>
    <path clip-path="url(#pfa10794bde)" d="M 440.447208 365.321019 
L 435.976461 365.432464 
L 438.569753 361.788999 
L 440.447208 365.321019 
z
" style="fill:#808080;stroke:#808080;stroke-linecap:round;"/>
   </g>
   <g id="patch_5">
    <path clip-path="url(#pfa10794bde)" d="M 504.946724 397.583556 
Q 556.008356 362.362401 606.14966 327.776066 
" style="fill:none;stroke:#808080;stroke-linecap:round;"/>
    <path clip-path="url(#pfa10794bde)" d="M 601.721395 328.400939 
L 606.14966 327.776066 
L 603.992599 331.693602 
L 601.721395 328.400939 
z
" style="fill:#808080;stroke:#808080;stroke-linecap:round;"/>
   </g>
   <g id="patch_6">
    <path clip-path="url(#pfa10794bde)" d="M 334.98839 293.268428 
Q 470.289924 307.298707 604.479386 321.213668 
" style="fill:none;stroke:#808080;stroke-linecap:round;"/>
    <path clip-path="url(#pfa10794bde)" d="M 600.707007 318.811762 
L 604.479386 321.213668 
L 600.294434 322.790428 
L 600.707007 318.811762 
z
" style="fill:#808080;stroke:#808080;stroke-linecap:round;"/>
   </g>
   <g id="patch_7">
    <path clip-path="url(#pfa10794bde)" d="M 452.687041 422.774237 
Q 529.768611 374.786464 605.90105 327.389581 
" style="fill:none;stroke:#808080;stroke-linecap:round;"/>
    <path clip-path="url(#pfa10794bde)" d="M 601.448321 327.805754 
L 605.90105 327.389581 
L 603.562351 331.201468 
L 601.448321 327.805754 
z
" style="fill:#808080;stroke:#808080;stroke-linecap:round;"/>
   </g>
   <g id="patch_8">
    <path clip-path="url(#pfa10794bde)" d="M 612.882622 242.279959 
Q 532.014713 331.605978 451.897159 420.103161 
" style="fill:none;stroke:#808080;stroke-linecap:round;"/>
    <path clip-path="url(#pfa10794bde)" d="M 456.064375 418.480104 
L 451.897159 420.103161 
L 453.099043 415.795554 
L 456.064375 418.480104 
z
" style="fill:#808080;stroke:#808080;stroke-linecap:round;"/>
   </g>
   <g id="patch_9">
    <path clip-path="url(#pfa10794bde)" d="M 276.199219 189.393335 
Q 323.793932 173.266264 370.329747 157.497992 
" style="fill:none;stroke:#808080;stroke-linecap:round;"/>
    <path clip-path="url(#pfa10794bde)" d="M 365.899483 156.887455 
L 370.329747 157.497992 
L 367.183159 160.675882 
L 365.899483 156.887455 
z
" style="fill:#808080;stroke:#808080;stroke-linecap:round;"/>
   </g>
   <g id="patch_10">
    <path clip-path="url(#pfa10794bde)" d="M 274.451663 197.948117 
Q 315.24103 234.431707 355.197068 270.169936 
" style="fill:none;stroke:#808080;stroke-linecap:round;"/>
    <path clip-path="url(#pfa10794bde)" d="M 353.549004 266.012547 
L 355.197068 270.169936 
L 350.882318 268.993954 
L 353.549004 266.012547 
z
" style="fill:#808080;stroke:#808080;stroke-linecap:round;"/>
   </g>
   <g id="patch_11">
    <path clip-path="url(#pfa10794bde)" d="M 263.426416 199.526944 
Q 254.932731 213.198085 247.029064 225.919553 
" style="fill:none;stroke:#808080;stroke-linecap:round;"/>
    <path clip-path="url(#pfa10794bde)" d="M 250.838804 223.577357 
L 247.029064 225.919553 
L 247.441151 221.466444 
L 250.838804 223.577357 
z
" style="fill:#808080;stroke:#808080;stroke-linecap:round;"/>
   </g>
   <g id="patch_12">
    <path clip-path="url(#pfa10794bde)" d="M 347.961818 257.43932 
Q 338.84427 170.620706 329.843495 84.914011 
" style="fill:none;stroke:#808080;stroke-linecap:round;"/>
    <path clip-path="url(#pfa10794bde)" d="M 328.272209 89.101022 
L 329.843495 84.914011 
L 332.250332 88.683246 
L 328.272209 89.101022 
z
" style="fill:#808080;stroke:#808080;stroke-linecap:round;"/>
   </g>
   <g id="patch_13">
    <path clip-path="url(#pfa10794bde)" d="M 342.47165 260.209436 
Q 308.430173 229.111636 275.214148 198.767909 
" style="fill:none;stroke:#808080;stroke-linecap:round;"/>
    <path clip-path="url(#pfa10794bde)" d="M 276.818451 202.94238 
L 275.214148 198.767909 
L 279.516307 199.989149 
L 276.818451 202.94238 
z
" style="fill:#808080;stroke:#808080;stroke-linecap:round;"/>
   </g>
   <g id="patch_14">
    <path clip-path="url(#pfa10794bde)" d="M 357.475373 265.087771 
Q 483.782033 250.955573 608.977592 236.947695 
" style="fill:none;stroke:#808080;stroke-linecap:round;"/>
    <path clip-path="url(#pfa10794bde)" d="M 604.780009 235.404874 
L 608.977592 236.947695 
L 605.224786 239.380069 
L 604.780009 235.404874 
z
" style="fill:#808080;stroke:#808080;stroke-linecap:round;"/>
   </g>
   <g id="patch_15">
    <path clip-path="url(#pfa10794bde)" d="M 337.016964 77.983048 
Q 425.65544 108.198363 513.235676 138.052942 
" style="fill:none;stroke:#808080;stroke-linecap:round;"/>
    <path clip-path="url(#pfa10794bde)" d="M 510.094907 134.8693 
L 513.235676 138.052942 
L 508.804301 138.655372 
L 510.094907 134.8693 
z
" style="fill:#808080;stroke:#808080;stroke-linecap:round;"/>
   </g>
   <g id="patch_16">
    <path clip-path="url(#pfa10794bde)" d="M 320.664929 78.105986 
Q 273.295568 95.041277 226.978981 111.600184 
" style="fill:none;stroke:#808080;stroke-linecap:round;"/>
    <path clip-path="url(#pfa10794bde)" d="M 231.418799 112.136854 
L 226.978981 111.600184 
L 230.072208 108.370332 
L 231.418799 112.136854 
z
" style="fill:#808080;stroke:#808080;stroke-linecap:round;"/>
   </g>
   <g id="patch_17">
    <path clip-path="url(#pfa10794bde)" d="M 515.458845 146.266172 
Q 435.679385 203.62988 356.807666 260.340897 
" style="fill:none;stroke:#808080;stroke-linecap:round;"/>
    <path clip-path="url(#pfa10794bde)" d="M 361.222869 259.629572 
L 356.807666 260.340897 
L 358.887729 256.38194 
L 361.222869 259.629572 
z
" style="fill:#808080;stroke:#808080;stroke-linecap:round;"/>
   </g>
   <g id="patch_18">
    <path clip-path="url(#pfa10794bde)" d="M 290.803491 237.96878 
Q 182.336741 254.055254 74.975928 269.977709 
" style="fill:none;stroke:#808080;stroke-linecap:round;"/>
    <path clip-path="url(#pfa10794bde)" d="M 79.226057 271.369257 
L 74.975928 269.977709 
L 78.639244 267.412535 
L 79.226057 271.369257 
z
" style="fill:#808080;stroke:#808080;stroke-linecap:round;"/>
   </g>
   <g id="patch_19">
    <path clip-path="url(#pfa10794bde)" d="M 302.370644 228.573859 
Q 331.836575 148.750979 360.915332 69.976953 
" style="fill:none;stroke:#808080;stroke-linecap:round;"/>
    <path clip-path="url(#pfa10794bde)" d="M 357.653883 73.036847 
L 360.915332 69.976953 
L 361.406378 74.422048 
L 357.653883 73.036847 
z
" style="fill:#808080;stroke:#808080;stroke-linecap:round;"/>
   </g>
   <g id="patch_20">
    <path clip-path="url(#pfa10794bde)" d="M 307.33493 233.290002 
Q 410.933179 188.952897 513.50357 145.055686 
" style="fill:none;stroke:#808080;stroke-linecap:round;"/>
    <path clip-path="url(#pfa10794bde)" d="M 509.039285 144.79081 
L 513.50357 145.055686 
L 510.613098 148.468189 
L 509.039285 144.79081 
z
" style="fill:#808080;stroke:#808080;stroke-linecap:round;"/>
   </g>
   <g id="patch_21">
    <path clip-path="url(#pfa10794bde)" d="M 303.05247 228.857478 
Q 317.674713 197.710253 331.821839 167.575086 
" style="fill:none;stroke:#808080;stroke-linecap:round;"/>
    <path clip-path="url(#pfa10794bde)" d="M 328.311583 170.346024 
L 331.821839 167.575086 
L 331.932436 172.045855 
L 328.311583 170.346024 
z
" style="fill:#808080;stroke:#808080;stroke-linecap:round;"/>
   </g>
   <g id="patch_22">
    <path clip-path="url(#pfa10794bde)" d="M 290.821345 235.340122 
Q 188.674066 219.117487 87.630981 203.070216 
" style="fill:none;stroke:#808080;stroke-linecap:round;"/>
    <path clip-path="url(#pfa10794bde)" d="M 91.26777 205.672862 
L 87.630981 203.070216 
L 91.895172 201.722372 
L 91.26777 205.672862 
z
" style="fill:#808080;stroke:#808080;stroke-linecap:round;"/>
   </g>
   <g id="patch_23">
    <path clip-path="url(#pfa10794bde)" d="M 307.329336 240.117622 
Q 436.541541 295.642709 564.726538 350.726384 
" style="fill:none;stroke:#808080;stroke-linecap:round;"/>
    <path clip-path="url(#pfa10794bde)" d="M 561.841109 347.309616 
L 564.726538 350.726384 
L 560.261866 350.984666 
L 561.841109 347.309616 
z
" style="fill:#808080;stroke:#808080;stroke-linecap:round;"/>
   </g>
   <g id="patch_24">
    <path clip-path="url(#pfa10794bde)" d="M 293.8938 243.40197 
Q 232.119152 319.002957 171.051931 393.73818 
" style="fill:none;stroke:#808080;stroke-linecap:round;"/>
    <path clip-path="url(#pfa10794bde)" d="M 175.131626 391.906216 
L 171.051931 393.73818 
L 172.034176 389.375246 
L 175.131626 391.906216 
z
" style="fill:#808080;stroke:#808080;stroke-linecap:round;"/>
   </g>
   <g id="patch_25">
    <path clip-path="url(#pfa10794bde)" d="M 335.237345 150.095977 
Q 332.399223 116.956404 329.656503 84.930787 
" style="fill:none;stroke:#808080;stroke-linecap:round;"/>
    <path clip-path="url(#pfa10794bde)" d="M 328.005114 89.086856 
L 329.656503 84.930787 
L 331.990525 88.74554 
L 328.005114 89.086856 
z
" style="fill:#808080;stroke:#808080;stroke-linecap:round;"/>
   </g>
   <g id="patch_26">
    <path clip-path="url(#pfa10794bde)" d="M 337.008967 167.323101 
Q 342.421401 212.389112 347.700518 256.345066 
" style="fill:none;stroke:#808080;stroke-linecap:round;"/>
    <path clip-path="url(#pfa10794bde)" d="M 349.209275 252.135119 
L 347.700518 256.345066 
L 345.237815 252.612092 
L 349.209275 252.135119 
z
" style="fill:#808080;stroke:#808080;stroke-linecap:round;"/>
   </g>
   <g id="patch_27">
    <path clip-path="url(#pfa10794bde)" d="M 327.357939 159.574892 
Q 203.947495 171.739219 81.649693 183.793874 
" style="fill:none;stroke:#808080;stroke-linecap:round;"/>
    <path clip-path="url(#pfa10794bde)" d="M 85.826587 185.391858 
L 81.649693 183.793874 
L 85.434216 181.411148 
L 85.826587 185.391858 
z
" style="fill:#808080;stroke:#808080;stroke-linecap:round;"/>
   </g>
   <g id="patch_28">
    <path clip-path="url(#pfa10794bde)" d="M 395.913904 248.187621 
Q 313.223942 323.316071 231.361478 397.692692 
" style="fill:none;stroke:#808080;stroke-linecap:round;"/>
    <path clip-path="url(#pfa10794bde)" d="M 235.666939 396.483143 
L 231.361478 397.692692 
L 232.977115 393.522594 
L 235.666939 396.483143 
z
" style="fill:#808080;stroke:#808080;stroke-linecap:round;"/>
   </g>
   <g id="patch_29">
    <path clip-path="url(#pfa10794bde)" d="M 402.55684 233.710854 
Q 404.387794 166.013481 406.18852 99.433733 
" style="fill:none;stroke:#808080;stroke-linecap:round;"/>
    <path clip-path="url(#pfa10794bde)" d="M 404.081106 103.378198 
L 406.18852 99.433733 
L 408.079644 103.486343 
L 404.081106 103.378198 
z
" style="fill:#808080;stroke:#808080;stroke-linecap:round;"/>
   </g>
   <g id="patch_30">
    <path clip-path="url(#pfa10794bde)" d="M 408.949593 236.786508 
Q 462.406873 191.787452 515.008818 147.508397 
" style="fill:none;stroke:#808080;stroke-linecap:round;"/>
    <path clip-path="url(#pfa10794bde)" d="M 510.6607 148.554279 
L 515.008818 147.508397 
L 513.236654 151.614421 
L 510.6607 148.554279 
z
" style="fill:#808080;stroke:#808080;stroke-linecap:round;"/>
   </g>
   <g id="patch_31">
    <path clip-path="url(#pfa10794bde)" d="M 396.939023 235.577772 
Q 369.148817 200.544128 342.053426 166.3864 
" style="fill:none;stroke:#808080;stroke-linecap:round;"/>
    <path clip-path="url(#pfa10794bde)" d="M 342.972386 170.763102 
L 342.053426 166.3864 
L 346.106163 168.277254 
L 342.972386 170.763102 
z
" style="fill:#808080;stroke:#808080;stroke-linecap:round;"/>
   </g>
   <g id="patch_32">
    <path clip-path="url(#pfa10794bde)" d="M 229.160979 327.807037 
Q 182.31012 341.418675 136.5329 354.718388 
" style="fill:none;stroke:#808080;stroke-linecap:round;"/>
    <path clip-path="url(#pfa10794bde)" d="M 140.932061 355.522993 
L 136.5329 354.718388 
L 139.816081 351.681823 
L 140.932061 355.522993 
z
" style="fill:#808080;stroke:#808080;stroke-linecap:round;"/>
   </g>
   <g id="patch_33">
    <path clip-path="url(#pfa10794bde)" d="M 228.834312 324.758003 
Q 159.566647 319.676711 91.41402 314.677216 
" style="fill:none;stroke:#808080;stroke-linecap:round;"/>
    <path clip-path="url(#pfa10794bde)" d="M 95.256979 316.964499 
L 91.41402 314.677216 
L 95.549622 312.975218 
L 95.256979 316.964499 
z
" style="fill:#808080;stroke:#808080;stroke-linecap:round;"/>
   </g>
   <g id="patch_34">
    <path clip-path="url(#pfa10794bde)" d="M 84.870889 196.294328 
Q 158.356459 140.425491 230.952008 85.23331 
" style="fill:none;stroke:#808080;stroke-linecap:round;"/>
    <path clip-path="url(#pfa10794bde)" d="M 226.557335 86.062069 
L 230.952008 85.23331 
L 228.978212 89.246304 
L 226.557335 86.062069 
z
" style="fill:#808080;stroke:#808080;stroke-linecap:round;"/>
   </g>
   <g id="patch_35">
    <path clip-path="url(#pfa10794bde)" d="M 83.194882 194.629537 
Q 95.887382 177.832866 107.905837 161.928194 
" style="fill:none;stroke:#808080;stroke-linecap:round;"/>
    <path clip-path="url(#pfa10794bde)" d="M 103.898643 163.913742 
L 107.905837 161.928194 
L 107.089959 166.325278 
L 103.898643 163.913742 
z
" style="fill:#808080;stroke:#808080;stroke-linecap:round;"/>
   </g>
   <g id="patch_36">
    <path clip-path="url(#pfa10794bde)" d="M 398.797763 316.051913 
Q 285.898997 357.19831 174.050676 397.961867 
" style="fill:none;stroke:#808080;stroke-linecap:round;"/>
    <path clip-path="url(#pfa10794bde)" d="M 178.493704 398.471275 
L 174.050676 397.961867 
L 177.124019 394.713089 
L 178.493704 398.471275 
z
" style="fill:#808080;stroke:#808080;stroke-linecap:round;"/>
   </g>
   <g id="patch_37">
    <path clip-path="url(#pfa10794bde)" d="M 400.204459 307.634623 
Q 377.899079 289.567437 356.462485 272.203961 
" style="fill:none;stroke:#808080;stroke-linecap:round;"/>
    <path clip-path="url(#pfa10794bde)" d="M 358.311916 276.275767 
L 356.462485 272.203961 
L 360.829588 273.1675 
L 358.311916 276.275767 
z
" style="fill:#808080;stroke:#808080;stroke-linecap:round;"/>
   </g>
   <g id="patch_38">
    <path clip-path="url(#pfa10794bde)" d="M 171.842244 396.180777 
Q 256.865662 333.680336 340.98825 271.842093 
" style="fill:none;stroke:#808080;stroke-linecap:round;"/>
    <path clip-path="url(#pfa10794bde)" d="M 336.580768 272.599788 
L 340.98825 271.842093 
L 338.949917 275.822696 
L 336.580768 272.599788 
z
" style="fill:#808080;stroke:#808080;stroke-linecap:round;"/>
   </g>
   <g id="patch_39">
    <path clip-path="url(#pfa10794bde)" d="M 362.403749 196.656992 
Q 479.832145 237.553816 596.204707 278.082925 
" style="fill:none;stroke:#808080;stroke-linecap:round;"/>
    <path clip-path="url(#pfa10794bde)" d="M 593.08503 274.878613 
L 596.204707 278.082925 
L 591.769451 278.656079 
L 593.08503 274.878613 
z
" style="fill:#808080;stroke:#808080;stroke-linecap:round;"/>
   </g>
   <g id="patch_40">
    <path clip-path="url(#pfa10794bde)" d="M 362.722278 195.508578 
Q 483.276648 219.621699 602.7347 243.515536 
" style="fill:none;stroke:#808080;stroke-linecap:round;"/>
    <path clip-path="url(#pfa10794bde)" d="M 599.204659 240.769847 
L 602.7347 243.515536 
L 598.420124 244.692155 
L 599.204659 240.769847 
z
" style="fill:#808080;stroke:#808080;stroke-linecap:round;"/>
   </g>
   <g id="patch_41">
    <path clip-path="url(#pfa10794bde)" d="M 540.080216 328.458987 
Q 569.246492 307.413197 597.506125 287.021623 
" style="fill:none;stroke:#808080;stroke-linecap:round;"/>
    <path clip-path="url(#pfa10794bde)" d="M 593.092123 287.740362 
L 597.506125 287.021623 
L 595.432715 290.984068 
L 593.092123 287.740362 
z
" style="fill:#808080;stroke:#808080;stroke-linecap:round;"/>
   </g>
   <g id="patch_42">
    <path clip-path="url(#pfa10794bde)" d="M 538.851542 327.087164 
Q 572.690267 289.478279 605.781179 252.700524 
" style="fill:none;stroke:#808080;stroke-linecap:round;"/>
    <path clip-path="url(#pfa10794bde)" d="M 601.618955 254.336338 
L 605.781179 252.700524 
L 604.592496 257.011792 
L 601.618955 254.336338 
z
" style="fill:#808080;stroke:#808080;stroke-linecap:round;"/>
   </g>
   <g id="patch_43">
    <path clip-path="url(#pfa10794bde)" d="M 435.095532 366.159466 
Q 516.389823 325.660269 596.683386 285.659614 
" style="fill:none;stroke:#808080;stroke-linecap:round;"/>
    <path clip-path="url(#pfa10794bde)" d="M 592.211255 285.653099 
L 596.683386 285.659614 
L 593.994895 289.23341 
L 592.211255 285.653099 
z
" style="fill:#808080;stroke:#808080;stroke-linecap:round;"/>
   </g>
   <g id="patch_44">
    <path clip-path="url(#pfa10794bde)" d="M 434.525819 365.183648 
Q 519.832502 307.72661 604.211874 250.894149 
" style="fill:none;stroke:#808080;stroke-linecap:round;"/>
    <path clip-path="url(#pfa10794bde)" d="M 599.776952 251.469877 
L 604.211874 250.894149 
L 602.011503 254.787524 
L 599.776952 251.469877 
z
" style="fill:#808080;stroke:#808080;stroke-linecap:round;"/>
   </g>
   <g id="patch_45">
    <path clip-path="url(#pfa10794bde)" d="M 374.052844 161.023202 
Q 308.530044 239.878043 243.721772 317.872971 
" style="fill:none;stroke:#808080;stroke-linecap:round;"/>
    <path clip-path="url(#pfa10794bde)" d="M 247.816401 316.074637 
L 243.721772 317.872971 
L 244.739882 313.518267 
L 247.816401 316.074637 
z
" style="fill:#808080;stroke:#808080;stroke-linecap:round;"/>
   </g>
   <g id="patch_46">
    <path clip-path="url(#pfa10794bde)" d="M 388.225649 154.990963 
Q 472.224799 161.122189 555.108881 167.172025 
" style="fill:none;stroke:#808080;stroke-linecap:round;"/>
    <path clip-path="url(#pfa10794bde)" d="M 551.26509 164.886141 
L 555.108881 167.172025 
L 550.973898 168.875527 
L 551.26509 164.886141 
z
" style="fill:#808080;stroke:#808080;stroke-linecap:round;"/>
   </g>
   <g id="patch_47">
    <path clip-path="url(#pfa10794bde)" d="M 371.125191 152.540865 
Q 269.403503 130.671028 168.774872 109.036194 
" style="fill:none;stroke:#808080;stroke-linecap:round;"/>
    <path clip-path="url(#pfa10794bde)" d="M 172.265123 111.832289 
L 168.774872 109.036194 
L 173.105898 107.92165 
L 172.265123 111.832289 
z
" style="fill:#808080;stroke:#808080;stroke-linecap:round;"/>
   </g>
   <g id="patch_48">
    <path clip-path="url(#pfa10794bde)" d="M 354.417437 279.833174 
Q 299.980355 301.040708 246.585042 321.842391 
" style="fill:none;stroke:#808080;stroke-linecap:round;"/>
    <path clip-path="url(#pfa10794bde)" d="M 251.0382 322.253947 
L 246.585042 321.842391 
L 249.586182 318.526798 
L 251.0382 322.253947 
z
" style="fill:#808080;stroke:#808080;stroke-linecap:round;"/>
   </g>
   <g id="patch_49">
    <path clip-path="url(#pfa10794bde)" d="M 370.116784 272.58725 
Q 463.675498 222.286173 556.249479 172.51453 
" style="fill:none;stroke:#808080;stroke-linecap:round;"/>
    <path clip-path="url(#pfa10794bde)" d="M 551.77931 172.647145 
L 556.249479 172.51453 
L 553.67347 176.170235 
L 551.77931 172.647145 
z
" style="fill:#808080;stroke:#808080;stroke-linecap:round;"/>
   </g>
   <g id="patch_50">
    <path clip-path="url(#pfa10794bde)" d="M 355.839361 271.140292 
Q 260.8491 191.834536 166.717082 113.245313 
" style="fill:none;stroke:#808080;stroke-linecap:round;"/>
    <path clip-path="url(#pfa10794bde)" d="M 168.505853 117.34413 
L 166.717082 113.245313 
L 171.069398 114.273586 
L 168.505853 117.34413 
z
" style="fill:#808080;stroke:#808080;stroke-linecap:round;"/>
   </g>
   <g id="patch_51">
    <path clip-path="url(#pfa10794bde)" d="M 241.450981 242.876514 
Q 239.67101 279.809205 237.94486 315.625159 
" style="fill:none;stroke:#808080;stroke-linecap:round;"/>
    <path clip-path="url(#pfa10794bde)" d="M 240.135098 311.726074 
L 237.94486 315.625159 
L 236.139735 311.533518 
L 240.135098 311.726074 
z
" style="fill:#808080;stroke:#808080;stroke-linecap:round;"/>
   </g>
   <g id="patch_52">
    <path clip-path="url(#pfa10794bde)" d="M 250.35227 232.484166 
Q 403.367311 201.054937 555.287182 169.850656 
" style="fill:none;stroke:#808080;stroke-linecap:round;"/>
    <path clip-path="url(#pfa10794bde)" d="M 550.966582 168.696353 
L 555.287182 169.850656 
L 551.771379 172.614554 
L 550.966582 168.696353 
z
" style="fill:#808080;stroke:#808080;stroke-linecap:round;"/>
   </g>
   <g id="patch_53">
    <path clip-path="url(#pfa10794bde)" d="M 237.148405 226.961298 
Q 200.538992 170.601286 164.538607 115.178869 
" style="fill:none;stroke:#808080;stroke-linecap:round;"/>
    <path clip-path="url(#pfa10794bde)" d="M 165.04031 119.622774 
L 164.538607 115.178869 
L 168.394753 117.44385 
L 165.04031 119.622774 
z
" style="fill:#808080;stroke:#808080;stroke-linecap:round;"/>
   </g>
   <g id="PathCollection_1">
    <defs>
     <path d="M 0 11.18034 
C 2.965061 11.18034 5.80908 10.002309 7.905694 7.905694 
C 10.002309 5.80908 11.18034 2.965061 11.18034 -0 
C 11.18034 -2.965061 10.002309 -5.80908 7.905694 -7.905694 
C 5.80908 -10.002309 2.965061 -11.18034 0 -11.18034 
C -2.965061 -11.18034 -5.80908 -10.002309 -7.905694 -7.905694 
C -10.002309 -5.80908 -11.18034 -2.965061 -11.18034 0 
C -11.18034 2.965061 -10.002309 5.80908 -7.905694 7.905694 
C -5.80908 10.002309 -2.965061 11.18034 0 11.18034 
z
" id="C0_0_3e078d39e0"/>
    </defs>
    <g clip-path="url(#pfa10794bde)">
     <use style="fill:#dadada;stroke:#dadada;" x="473.455846" xlink:href="#C0_0_3e078d39e0" y="345.510189"/>
    </g>
    <g clip-path="url(#pfa10794bde)">
     <use style="fill:#f0f0f0;stroke:#f0f0f0;" x="614.201845" xlink:href="#C0_0_3e078d39e0" y="322.221852"/>
    </g>
    <g clip-path="url(#pfa10794bde)">
     <use style="fill:#f0f0f0;stroke:#f0f0f0;" x="497.818379" xlink:href="#C0_0_3e078d39e0" y="402.500527"/>
    </g>
    <g clip-path="url(#pfa10794bde)">
     <use style="fill:#ececec;stroke:#ececec;" x="326.375923" xlink:href="#C0_0_3e078d39e0" y="292.375346"/>
    </g>
    <g clip-path="url(#pfa10794bde)">
     <use style="fill:#f0f0f0;stroke:#f0f0f0;" x="445.335738" xlink:href="#C0_0_3e078d39e0" y="427.350852"/>
    </g>
    <g clip-path="url(#pfa10794bde)">
     <use style="fill:#ebebeb;stroke:#ebebeb;" x="618.694215" xlink:href="#C0_0_3e078d39e0" y="235.860522"/>
    </g>
    <g clip-path="url(#pfa10794bde)">
     <use style="fill:#f0f0f0;stroke:#f0f0f0;" x="573.708205" xlink:href="#C0_0_3e078d39e0" y="354.585987"/>
    </g>
    <g clip-path="url(#pfa10794bde)">
     <use style="fill:#c9c9c9;stroke:#c9c9c9;" x="267.995193" xlink:href="#C0_0_3e078d39e0" y="192.1732"/>
    </g>
    <g clip-path="url(#pfa10794bde)">
     <use style="fill:#b4b4b4;stroke:#b4b4b4;" x="348.866206" xlink:href="#C0_0_3e078d39e0" y="266.051033"/>
    </g>
    <g clip-path="url(#pfa10794bde)">
     <use style="fill:#a0a0a0;stroke:#a0a0a0;" x="328.822255" xlink:href="#C0_0_3e078d39e0" y="75.189614"/>
    </g>
    <g clip-path="url(#pfa10794bde)">
     <use style="fill:#adadad;stroke:#adadad;" x="522.492822" xlink:href="#C0_0_3e078d39e0" y="141.208542"/>
    </g>
    <g clip-path="url(#pfa10794bde)">
     <use style="fill:#5f5f5f;stroke:#5f5f5f;" x="299.371668" xlink:href="#C0_0_3e078d39e0" y="236.698052"/>
    </g>
    <g clip-path="url(#pfa10794bde)">
     <use style="fill:#f0f0f0;stroke:#f0f0f0;" x="364.300932" xlink:href="#C0_0_3e078d39e0" y="60.805398"/>
    </g>
    <g clip-path="url(#pfa10794bde)">
     <use style="fill:#f0f0f0;stroke:#f0f0f0;" x="65.305785" xlink:href="#C0_0_3e078d39e0" y="271.411867"/>
    </g>
    <g clip-path="url(#pfa10794bde)">
     <use style="fill:#ececec;stroke:#ececec;" x="335.97638" xlink:href="#C0_0_3e078d39e0" y="158.72539"/>
    </g>
    <g clip-path="url(#pfa10794bde)">
     <use style="fill:#e7e7e7;stroke:#e7e7e7;" x="402.322784" xlink:href="#C0_0_3e078d39e0" y="242.364796"/>
    </g>
    <g clip-path="url(#pfa10794bde)">
     <use style="fill:#f0f0f0;stroke:#f0f0f0;" x="406.452856" xlink:href="#C0_0_3e078d39e0" y="89.660234"/>
    </g>
    <g clip-path="url(#pfa10794bde)">
     <use style="fill:#f0f0f0;stroke:#f0f0f0;" x="224.124921" xlink:href="#C0_0_3e078d39e0" y="404.267509"/>
    </g>
    <g clip-path="url(#pfa10794bde)">
     <use style="fill:#e7e7e7;stroke:#e7e7e7;" x="237.474157" xlink:href="#C0_0_3e078d39e0" y="325.391799"/>
    </g>
    <g clip-path="url(#pfa10794bde)">
     <use style="fill:#f0f0f0;stroke:#f0f0f0;" x="217.771473" xlink:href="#C0_0_3e078d39e0" y="114.892013"/>
    </g>
    <g clip-path="url(#pfa10794bde)">
     <use style="fill:#f0f0f0;stroke:#f0f0f0;" x="71.91927" xlink:href="#C0_0_3e078d39e0" y="184.752983"/>
    </g>
    <g clip-path="url(#pfa10794bde)">
     <use style="fill:#e7e7e7;stroke:#e7e7e7;" x="77.975404" xlink:href="#C0_0_3e078d39e0" y="201.536754"/>
    </g>
    <g clip-path="url(#pfa10794bde)">
     <use style="fill:#a4a4a4;stroke:#a4a4a4;" x="406.934963" xlink:href="#C0_0_3e078d39e0" y="313.086279"/>
    </g>
    <g clip-path="url(#pfa10794bde)">
     <use style="fill:#f0f0f0;stroke:#f0f0f0;" x="164.86528" xlink:href="#C0_0_3e078d39e0" y="401.309521"/>
    </g>
    <g clip-path="url(#pfa10794bde)">
     <use style="fill:#e7e7e7;stroke:#e7e7e7;" x="354.227619" xlink:href="#C0_0_3e078d39e0" y="193.809488"/>
    </g>
    <g clip-path="url(#pfa10794bde)">
     <use style="fill:#e7e7e7;stroke:#e7e7e7;" x="533.058315" xlink:href="#C0_0_3e078d39e0" y="333.525847"/>
    </g>
    <g clip-path="url(#pfa10794bde)">
     <use style="fill:#e7e7e7;stroke:#e7e7e7;" x="427.34246" xlink:href="#C0_0_3e078d39e0" y="370.021892"/>
    </g>
    <g clip-path="url(#pfa10794bde)">
     <use style="fill:#f0f0f0;stroke:#f0f0f0;" x="605.437567" xlink:href="#C0_0_3e078d39e0" y="281.298456"/>
    </g>
    <g clip-path="url(#pfa10794bde)">
     <use style="fill:#f0f0f0;stroke:#f0f0f0;" x="612.320307" xlink:href="#C0_0_3e078d39e0" y="245.432836"/>
    </g>
    <g clip-path="url(#pfa10794bde)">
     <use style="fill:#f0f0f0;stroke:#f0f0f0;" x="564.862259" xlink:href="#C0_0_3e078d39e0" y="167.883939"/>
    </g>
    <g clip-path="url(#pfa10794bde)">
     <use style="fill:#f0f0f0;stroke:#f0f0f0;" x="159.213226" xlink:href="#C0_0_3e078d39e0" y="106.980471"/>
    </g>
    <g clip-path="url(#pfa10794bde)">
     <use style="fill:#e7e7e7;stroke:#e7e7e7;" x="379.589026" xlink:href="#C0_0_3e078d39e0" y="154.360563"/>
    </g>
    <g clip-path="url(#pfa10794bde)">
     <use style="fill:#e3e3e3;stroke:#e3e3e3;" x="362.486306" xlink:href="#C0_0_3e078d39e0" y="276.689713"/>
    </g>
    <g clip-path="url(#pfa10794bde)">
     <use style="fill:#f0f0f0;stroke:#f0f0f0;" x="241.867851" xlink:href="#C0_0_3e078d39e0" y="234.226862"/>
    </g>
    <g clip-path="url(#pfa10794bde)">
     <use style="fill:#f0f0f0;stroke:#f0f0f0;" x="238.737575" xlink:href="#C0_0_3e078d39e0" y="79.314181"/>
    </g>
    <g clip-path="url(#pfa10794bde)">
     <use style="fill:#f0f0f0;stroke:#f0f0f0;" x="113.801095" xlink:href="#C0_0_3e078d39e0" y="154.12668"/>
    </g>
    <g clip-path="url(#pfa10794bde)">
     <use style="fill:#f3f3f3;stroke:#f3f3f3;" x="127.143572" xlink:href="#C0_0_3e078d39e0" y="357.446281"/>
    </g>
    <g clip-path="url(#pfa10794bde)">
     <use style="fill:#f0f0f0;stroke:#f0f0f0;" x="81.662139" xlink:href="#C0_0_3e078d39e0" y="313.961844"/>
    </g>
   </g>
   <g id="text_1">
    <g clip-path="url(#pfa10794bde)">
     <!-- IKBKB -->
     <g transform="translate(458.562096 348.269564)scale(0.1 -0.1)">
      <defs>
       <path d="M 9.8125 72.90625 
L 19.671875 72.90625 
L 19.671875 0 
L 9.8125 0 
z
" id="DejaVuSans-73"/>
       <path d="M 9.8125 72.90625 
L 19.671875 72.90625 
L 19.671875 42.09375 
L 52.390625 72.90625 
L 65.09375 72.90625 
L 28.90625 38.921875 
L 67.671875 0 
L 54.6875 0 
L 19.671875 35.109375 
L 19.671875 0 
L 9.8125 0 
z
" id="DejaVuSans-75"/>
       <path d="M 19.671875 34.8125 
L 19.671875 8.109375 
L 35.5 8.109375 
Q 43.453125 8.109375 47.28125 11.40625 
Q 51.125 14.703125 51.125 21.484375 
Q 51.125 28.328125 47.28125 31.5625 
Q 43.453125 34.8125 35.5 34.8125 
z
M 19.671875 64.796875 
L 19.671875 42.828125 
L 34.28125 42.828125 
Q 41.5 42.828125 45.03125 45.53125 
Q 48.578125 48.25 48.578125 53.8125 
Q 48.578125 59.328125 45.03125 62.0625 
Q 41.5 64.796875 34.28125 64.796875 
z
M 9.8125 72.90625 
L 35.015625 72.90625 
Q 46.296875 72.90625 52.390625 68.21875 
Q 58.5 63.53125 58.5 54.890625 
Q 58.5 48.1875 55.375 44.234375 
Q 52.25 40.28125 46.1875 39.3125 
Q 53.46875 37.75 57.5 32.78125 
Q 61.53125 27.828125 61.53125 20.40625 
Q 61.53125 10.640625 54.890625 5.3125 
Q 48.25 0 35.984375 0 
L 9.8125 0 
z
" id="DejaVuSans-66"/>
      </defs>
      <use xlink:href="#DejaVuSans-73"/>
      <use x="29.492188" xlink:href="#DejaVuSans-75"/>
      <use x="95.068359" xlink:href="#DejaVuSans-66"/>
      <use x="163.671875" xlink:href="#DejaVuSans-75"/>
      <use x="229.248047" xlink:href="#DejaVuSans-66"/>
     </g>
    </g>
   </g>
   <g id="text_2">
    <g clip-path="url(#pfa10794bde)">
     <!-- IKBKG -->
     <g transform="translate(598.864345 324.981227)scale(0.1 -0.1)">
      <defs>
       <path d="M 59.515625 10.40625 
L 59.515625 29.984375 
L 43.40625 29.984375 
L 43.40625 38.09375 
L 69.28125 38.09375 
L 69.28125 6.78125 
Q 63.578125 2.734375 56.6875 0.65625 
Q 49.8125 -1.421875 42 -1.421875 
Q 24.90625 -1.421875 15.25 8.5625 
Q 5.609375 18.5625 5.609375 36.375 
Q 5.609375 54.25 15.25 64.234375 
Q 24.90625 74.21875 42 74.21875 
Q 49.125 74.21875 55.546875 72.453125 
Q 61.96875 70.703125 67.390625 67.28125 
L 67.390625 56.78125 
Q 61.921875 61.421875 55.765625 63.765625 
Q 49.609375 66.109375 42.828125 66.109375 
Q 29.4375 66.109375 22.71875 58.640625 
Q 16.015625 51.171875 16.015625 36.375 
Q 16.015625 21.625 22.71875 14.15625 
Q 29.4375 6.6875 42.828125 6.6875 
Q 48.046875 6.6875 52.140625 7.59375 
Q 56.25 8.5 59.515625 10.40625 
z
" id="DejaVuSans-71"/>
      </defs>
      <use xlink:href="#DejaVuSans-73"/>
      <use x="29.492188" xlink:href="#DejaVuSans-75"/>
      <use x="95.068359" xlink:href="#DejaVuSans-66"/>
      <use x="163.671875" xlink:href="#DejaVuSans-75"/>
      <use x="229.248047" xlink:href="#DejaVuSans-71"/>
     </g>
    </g>
   </g>
   <g id="text_3">
    <g clip-path="url(#pfa10794bde)">
     <!-- MALT1 -->
     <g transform="translate(481.75041 405.259902)scale(0.1 -0.1)">
      <defs>
       <path d="M 9.8125 72.90625 
L 24.515625 72.90625 
L 43.109375 23.296875 
L 61.8125 72.90625 
L 76.515625 72.90625 
L 76.515625 0 
L 66.890625 0 
L 66.890625 64.015625 
L 48.09375 14.015625 
L 38.1875 14.015625 
L 19.390625 64.015625 
L 19.390625 0 
L 9.8125 0 
z
" id="DejaVuSans-77"/>
       <path d="M 34.1875 63.1875 
L 20.796875 26.90625 
L 47.609375 26.90625 
z
M 28.609375 72.90625 
L 39.796875 72.90625 
L 67.578125 0 
L 57.328125 0 
L 50.6875 18.703125 
L 17.828125 18.703125 
L 11.1875 0 
L 0.78125 0 
z
" id="DejaVuSans-65"/>
       <path d="M 9.8125 72.90625 
L 19.671875 72.90625 
L 19.671875 8.296875 
L 55.171875 8.296875 
L 55.171875 0 
L 9.8125 0 
z
" id="DejaVuSans-76"/>
       <path d="M -0.296875 72.90625 
L 61.375 72.90625 
L 61.375 64.59375 
L 35.5 64.59375 
L 35.5 0 
L 25.59375 0 
L 25.59375 64.59375 
L -0.296875 64.59375 
z
" id="DejaVuSans-84"/>
       <path d="M 12.40625 8.296875 
L 28.515625 8.296875 
L 28.515625 63.921875 
L 10.984375 60.40625 
L 10.984375 69.390625 
L 28.421875 72.90625 
L 38.28125 72.90625 
L 38.28125 8.296875 
L 54.390625 8.296875 
L 54.390625 0 
L 12.40625 0 
z
" id="DejaVuSans-49"/>
      </defs>
      <use xlink:href="#DejaVuSans-77"/>
      <use x="86.279297" xlink:href="#DejaVuSans-65"/>
      <use x="154.6875" xlink:href="#DejaVuSans-76"/>
      <use x="196.650391" xlink:href="#DejaVuSans-84"/>
      <use x="257.734375" xlink:href="#DejaVuSans-49"/>
     </g>
    </g>
   </g>
   <g id="text_4">
    <g clip-path="url(#pfa10794bde)">
     <!-- BCL10 -->
     <g transform="translate(310.393111 295.134721)scale(0.1 -0.1)">
      <defs>
       <path d="M 64.40625 67.28125 
L 64.40625 56.890625 
Q 59.421875 61.53125 53.78125 63.8125 
Q 48.140625 66.109375 41.796875 66.109375 
Q 29.296875 66.109375 22.65625 58.46875 
Q 16.015625 50.828125 16.015625 36.375 
Q 16.015625 21.96875 22.65625 14.328125 
Q 29.296875 6.6875 41.796875 6.6875 
Q 48.140625 6.6875 53.78125 8.984375 
Q 59.421875 11.28125 64.40625 15.921875 
L 64.40625 5.609375 
Q 59.234375 2.09375 53.4375 0.328125 
Q 47.65625 -1.421875 41.21875 -1.421875 
Q 24.65625 -1.421875 15.125 8.703125 
Q 5.609375 18.84375 5.609375 36.375 
Q 5.609375 53.953125 15.125 64.078125 
Q 24.65625 74.21875 41.21875 74.21875 
Q 47.75 74.21875 53.53125 72.484375 
Q 59.328125 70.75 64.40625 67.28125 
z
" id="DejaVuSans-67"/>
       <path d="M 31.78125 66.40625 
Q 24.171875 66.40625 20.328125 58.90625 
Q 16.5 51.421875 16.5 36.375 
Q 16.5 21.390625 20.328125 13.890625 
Q 24.171875 6.390625 31.78125 6.390625 
Q 39.453125 6.390625 43.28125 13.890625 
Q 47.125 21.390625 47.125 36.375 
Q 47.125 51.421875 43.28125 58.90625 
Q 39.453125 66.40625 31.78125 66.40625 
z
M 31.78125 74.21875 
Q 44.046875 74.21875 50.515625 64.515625 
Q 56.984375 54.828125 56.984375 36.375 
Q 56.984375 17.96875 50.515625 8.265625 
Q 44.046875 -1.421875 31.78125 -1.421875 
Q 19.53125 -1.421875 13.0625 8.265625 
Q 6.59375 17.96875 6.59375 36.375 
Q 6.59375 54.828125 13.0625 64.515625 
Q 19.53125 74.21875 31.78125 74.21875 
z
" id="DejaVuSans-48"/>
      </defs>
      <use xlink:href="#DejaVuSans-66"/>
      <use x="66.853516" xlink:href="#DejaVuSans-67"/>
      <use x="136.677734" xlink:href="#DejaVuSans-76"/>
      <use x="192.390625" xlink:href="#DejaVuSans-49"/>
      <use x="256.013672" xlink:href="#DejaVuSans-48"/>
     </g>
    </g>
   </g>
   <g id="text_5">
    <g clip-path="url(#pfa10794bde)">
     <!-- CARD11 -->
     <g transform="translate(424.737301 430.110227)scale(0.1 -0.1)">
      <defs>
       <path d="M 44.390625 34.1875 
Q 47.5625 33.109375 50.5625 29.59375 
Q 53.5625 26.078125 56.59375 19.921875 
L 66.609375 0 
L 56 0 
L 46.6875 18.703125 
Q 43.0625 26.03125 39.671875 28.421875 
Q 36.28125 30.8125 30.421875 30.8125 
L 19.671875 30.8125 
L 19.671875 0 
L 9.8125 0 
L 9.8125 72.90625 
L 32.078125 72.90625 
Q 44.578125 72.90625 50.734375 67.671875 
Q 56.890625 62.453125 56.890625 51.90625 
Q 56.890625 45.015625 53.6875 40.46875 
Q 50.484375 35.9375 44.390625 34.1875 
z
M 19.671875 64.796875 
L 19.671875 38.921875 
L 32.078125 38.921875 
Q 39.203125 38.921875 42.84375 42.21875 
Q 46.484375 45.515625 46.484375 51.90625 
Q 46.484375 58.296875 42.84375 61.546875 
Q 39.203125 64.796875 32.078125 64.796875 
z
" id="DejaVuSans-82"/>
       <path d="M 19.671875 64.796875 
L 19.671875 8.109375 
L 31.59375 8.109375 
Q 46.6875 8.109375 53.6875 14.9375 
Q 60.6875 21.78125 60.6875 36.53125 
Q 60.6875 51.171875 53.6875 57.984375 
Q 46.6875 64.796875 31.59375 64.796875 
z
M 9.8125 72.90625 
L 30.078125 72.90625 
Q 51.265625 72.90625 61.171875 64.09375 
Q 71.09375 55.28125 71.09375 36.53125 
Q 71.09375 17.671875 61.125 8.828125 
Q 51.171875 0 30.078125 0 
L 9.8125 0 
z
" id="DejaVuSans-68"/>
      </defs>
      <use xlink:href="#DejaVuSans-67"/>
      <use x="69.824219" xlink:href="#DejaVuSans-65"/>
      <use x="138.232422" xlink:href="#DejaVuSans-82"/>
      <use x="207.714844" xlink:href="#DejaVuSans-68"/>
      <use x="284.716797" xlink:href="#DejaVuSans-49"/>
      <use x="348.339844" xlink:href="#DejaVuSans-49"/>
     </g>
    </g>
   </g>
   <g id="text_6">
    <g clip-path="url(#pfa10794bde)">
     <!-- PRKCB -->
     <g transform="translate(602.279371 238.619897)scale(0.1 -0.1)">
      <defs>
       <path d="M 19.671875 64.796875 
L 19.671875 37.40625 
L 32.078125 37.40625 
Q 38.96875 37.40625 42.71875 40.96875 
Q 46.484375 44.53125 46.484375 51.125 
Q 46.484375 57.671875 42.71875 61.234375 
Q 38.96875 64.796875 32.078125 64.796875 
z
M 9.8125 72.90625 
L 32.078125 72.90625 
Q 44.34375 72.90625 50.609375 67.359375 
Q 56.890625 61.8125 56.890625 51.125 
Q 56.890625 40.328125 50.609375 34.8125 
Q 44.34375 29.296875 32.078125 29.296875 
L 19.671875 29.296875 
L 19.671875 0 
L 9.8125 0 
z
" id="DejaVuSans-80"/>
      </defs>
      <use xlink:href="#DejaVuSans-80"/>
      <use x="60.302734" xlink:href="#DejaVuSans-82"/>
      <use x="129.785156" xlink:href="#DejaVuSans-75"/>
      <use x="189.861328" xlink:href="#DejaVuSans-67"/>
      <use x="259.685547" xlink:href="#DejaVuSans-66"/>
     </g>
    </g>
   </g>
   <g id="text_7">
    <g clip-path="url(#pfa10794bde)">
     <!-- CD19 -->
     <g transform="translate(560.004298 357.345362)scale(0.1 -0.1)">
      <defs>
       <path d="M 10.984375 1.515625 
L 10.984375 10.5 
Q 14.703125 8.734375 18.5 7.8125 
Q 22.3125 6.890625 25.984375 6.890625 
Q 35.75 6.890625 40.890625 13.453125 
Q 46.046875 20.015625 46.78125 33.40625 
Q 43.953125 29.203125 39.59375 26.953125 
Q 35.25 24.703125 29.984375 24.703125 
Q 19.046875 24.703125 12.671875 31.3125 
Q 6.296875 37.9375 6.296875 49.421875 
Q 6.296875 60.640625 12.9375 67.421875 
Q 19.578125 74.21875 30.609375 74.21875 
Q 43.265625 74.21875 49.921875 64.515625 
Q 56.59375 54.828125 56.59375 36.375 
Q 56.59375 19.140625 48.40625 8.859375 
Q 40.234375 -1.421875 26.421875 -1.421875 
Q 22.703125 -1.421875 18.890625 -0.6875 
Q 15.09375 0.046875 10.984375 1.515625 
z
M 30.609375 32.421875 
Q 37.25 32.421875 41.125 36.953125 
Q 45.015625 41.5 45.015625 49.421875 
Q 45.015625 57.28125 41.125 61.84375 
Q 37.25 66.40625 30.609375 66.40625 
Q 23.96875 66.40625 20.09375 61.84375 
Q 16.21875 57.28125 16.21875 49.421875 
Q 16.21875 41.5 20.09375 36.953125 
Q 23.96875 32.421875 30.609375 32.421875 
z
" id="DejaVuSans-57"/>
      </defs>
      <use xlink:href="#DejaVuSans-67"/>
      <use x="69.824219" xlink:href="#DejaVuSans-68"/>
      <use x="146.826172" xlink:href="#DejaVuSans-49"/>
      <use x="210.449219" xlink:href="#DejaVuSans-57"/>
     </g>
    </g>
   </g>
   <g id="text_8">
    <g clip-path="url(#pfa10794bde)">
     <!-- RASGRP3 -->
     <g transform="translate(244.581912 194.932575)scale(0.1 -0.1)">
      <defs>
       <path d="M 53.515625 70.515625 
L 53.515625 60.890625 
Q 47.90625 63.578125 42.921875 64.890625 
Q 37.9375 66.21875 33.296875 66.21875 
Q 25.25 66.21875 20.875 63.09375 
Q 16.5 59.96875 16.5 54.203125 
Q 16.5 49.359375 19.40625 46.890625 
Q 22.3125 44.4375 30.421875 42.921875 
L 36.375 41.703125 
Q 47.40625 39.59375 52.65625 34.296875 
Q 57.90625 29 57.90625 20.125 
Q 57.90625 9.515625 50.796875 4.046875 
Q 43.703125 -1.421875 29.984375 -1.421875 
Q 24.8125 -1.421875 18.96875 -0.25 
Q 13.140625 0.921875 6.890625 3.21875 
L 6.890625 13.375 
Q 12.890625 10.015625 18.65625 8.296875 
Q 24.421875 6.59375 29.984375 6.59375 
Q 38.421875 6.59375 43.015625 9.90625 
Q 47.609375 13.234375 47.609375 19.390625 
Q 47.609375 24.75 44.3125 27.78125 
Q 41.015625 30.8125 33.5 32.328125 
L 27.484375 33.5 
Q 16.453125 35.6875 11.515625 40.375 
Q 6.59375 45.0625 6.59375 53.421875 
Q 6.59375 63.09375 13.40625 68.65625 
Q 20.21875 74.21875 32.171875 74.21875 
Q 37.3125 74.21875 42.625 73.28125 
Q 47.953125 72.359375 53.515625 70.515625 
z
" id="DejaVuSans-83"/>
       <path d="M 40.578125 39.3125 
Q 47.65625 37.796875 51.625 33 
Q 55.609375 28.21875 55.609375 21.1875 
Q 55.609375 10.40625 48.1875 4.484375 
Q 40.765625 -1.421875 27.09375 -1.421875 
Q 22.515625 -1.421875 17.65625 -0.515625 
Q 12.796875 0.390625 7.625 2.203125 
L 7.625 11.71875 
Q 11.71875 9.328125 16.59375 8.109375 
Q 21.484375 6.890625 26.8125 6.890625 
Q 36.078125 6.890625 40.9375 10.546875 
Q 45.796875 14.203125 45.796875 21.1875 
Q 45.796875 27.640625 41.28125 31.265625 
Q 36.765625 34.90625 28.71875 34.90625 
L 20.21875 34.90625 
L 20.21875 43.015625 
L 29.109375 43.015625 
Q 36.375 43.015625 40.234375 45.921875 
Q 44.09375 48.828125 44.09375 54.296875 
Q 44.09375 59.90625 40.109375 62.90625 
Q 36.140625 65.921875 28.71875 65.921875 
Q 24.65625 65.921875 20.015625 65.03125 
Q 15.375 64.15625 9.8125 62.3125 
L 9.8125 71.09375 
Q 15.4375 72.65625 20.34375 73.4375 
Q 25.25 74.21875 29.59375 74.21875 
Q 40.828125 74.21875 47.359375 69.109375 
Q 53.90625 64.015625 53.90625 55.328125 
Q 53.90625 49.265625 50.4375 45.09375 
Q 46.96875 40.921875 40.578125 39.3125 
z
" id="DejaVuSans-51"/>
      </defs>
      <use xlink:href="#DejaVuSans-82"/>
      <use x="65.482422" xlink:href="#DejaVuSans-65"/>
      <use x="133.890625" xlink:href="#DejaVuSans-83"/>
      <use x="197.367188" xlink:href="#DejaVuSans-71"/>
      <use x="274.857422" xlink:href="#DejaVuSans-82"/>
      <use x="344.339844" xlink:href="#DejaVuSans-80"/>
      <use x="404.642578" xlink:href="#DejaVuSans-51"/>
     </g>
    </g>
   </g>
   <g id="text_9">
    <g clip-path="url(#pfa10794bde)">
     <!-- PLCG2 -->
     <g transform="translate(332.51855 268.810408)scale(0.1 -0.1)">
      <defs>
       <path d="M 19.1875 8.296875 
L 53.609375 8.296875 
L 53.609375 0 
L 7.328125 0 
L 7.328125 8.296875 
Q 12.9375 14.109375 22.625 23.890625 
Q 32.328125 33.6875 34.8125 36.53125 
Q 39.546875 41.84375 41.421875 45.53125 
Q 43.3125 49.21875 43.3125 52.78125 
Q 43.3125 58.59375 39.234375 62.25 
Q 35.15625 65.921875 28.609375 65.921875 
Q 23.96875 65.921875 18.8125 64.3125 
Q 13.671875 62.703125 7.8125 59.421875 
L 7.8125 69.390625 
Q 13.765625 71.78125 18.9375 73 
Q 24.125 74.21875 28.421875 74.21875 
Q 39.75 74.21875 46.484375 68.546875 
Q 53.21875 62.890625 53.21875 53.421875 
Q 53.21875 48.921875 51.53125 44.890625 
Q 49.859375 40.875 45.40625 35.40625 
Q 44.1875 33.984375 37.640625 27.21875 
Q 31.109375 20.453125 19.1875 8.296875 
z
" id="DejaVuSans-50"/>
      </defs>
      <use xlink:href="#DejaVuSans-80"/>
      <use x="60.302734" xlink:href="#DejaVuSans-76"/>
      <use x="116.015625" xlink:href="#DejaVuSans-67"/>
      <use x="185.839844" xlink:href="#DejaVuSans-71"/>
      <use x="263.330078" xlink:href="#DejaVuSans-50"/>
     </g>
    </g>
   </g>
   <g id="text_10">
    <g clip-path="url(#pfa10794bde)">
     <!-- BLNK -->
     <g transform="translate(315.586317 77.948989)scale(0.1 -0.1)">
      <defs>
       <path d="M 9.8125 72.90625 
L 23.09375 72.90625 
L 55.421875 11.921875 
L 55.421875 72.90625 
L 64.984375 72.90625 
L 64.984375 0 
L 51.703125 0 
L 19.390625 60.984375 
L 19.390625 0 
L 9.8125 0 
z
" id="DejaVuSans-78"/>
      </defs>
      <use xlink:href="#DejaVuSans-66"/>
      <use x="68.603516" xlink:href="#DejaVuSans-76"/>
      <use x="124.316406" xlink:href="#DejaVuSans-78"/>
      <use x="199.121094" xlink:href="#DejaVuSans-75"/>
     </g>
    </g>
   </g>
   <g id="text_11">
    <g clip-path="url(#pfa10794bde)">
     <!-- BTK -->
     <g transform="translate(512.72954 143.967917)scale(0.1 -0.1)">
      <use xlink:href="#DejaVuSans-66"/>
      <use x="68.603516" xlink:href="#DejaVuSans-84"/>
      <use x="129.6875" xlink:href="#DejaVuSans-75"/>
     </g>
    </g>
   </g>
   <g id="text_12">
    <g clip-path="url(#pfa10794bde)">
     <!-- LYN -->
     <g transform="translate(290.453699 239.457427)scale(0.1 -0.1)">
      <defs>
       <path d="M -0.203125 72.90625 
L 10.40625 72.90625 
L 30.609375 42.921875 
L 50.6875 72.90625 
L 61.28125 72.90625 
L 35.5 34.71875 
L 35.5 0 
L 25.59375 0 
L 25.59375 34.71875 
z
" id="DejaVuSans-89"/>
      </defs>
      <use xlink:href="#DejaVuSans-76"/>
      <use x="42.462891" xlink:href="#DejaVuSans-89"/>
      <use x="103.546875" xlink:href="#DejaVuSans-78"/>
     </g>
    </g>
   </g>
   <g id="text_13">
    <g clip-path="url(#pfa10794bde)">
     <!-- CD79B -->
     <g transform="translate(347.166557 63.564773)scale(0.1 -0.1)">
      <defs>
       <path d="M 8.203125 72.90625 
L 55.078125 72.90625 
L 55.078125 68.703125 
L 28.609375 0 
L 18.3125 0 
L 43.21875 64.59375 
L 8.203125 64.59375 
z
" id="DejaVuSans-55"/>
      </defs>
      <use xlink:href="#DejaVuSans-67"/>
      <use x="69.824219" xlink:href="#DejaVuSans-68"/>
      <use x="146.826172" xlink:href="#DejaVuSans-55"/>
      <use x="210.449219" xlink:href="#DejaVuSans-57"/>
      <use x="274.072266" xlink:href="#DejaVuSans-66"/>
     </g>
    </g>
   </g>
   <g id="text_14">
    <g clip-path="url(#pfa10794bde)">
     <!-- CD79A -->
     <g transform="translate(48.181566 274.171242)scale(0.1 -0.1)">
      <use xlink:href="#DejaVuSans-67"/>
      <use x="69.824219" xlink:href="#DejaVuSans-68"/>
      <use x="146.826172" xlink:href="#DejaVuSans-55"/>
      <use x="210.449219" xlink:href="#DejaVuSans-57"/>
      <use x="274.072266" xlink:href="#DejaVuSans-65"/>
     </g>
    </g>
   </g>
   <g id="text_15">
    <g clip-path="url(#pfa10794bde)">
     <!-- SYK -->
     <g transform="translate(326.469349 161.484765)scale(0.1 -0.1)">
      <use xlink:href="#DejaVuSans-83"/>
      <use x="63.476562" xlink:href="#DejaVuSans-89"/>
      <use x="124.560547" xlink:href="#DejaVuSans-75"/>
     </g>
    </g>
   </g>
   <g id="text_16">
    <g clip-path="url(#pfa10794bde)">
     <!-- PTPN6 -->
     <g transform="translate(386.317316 245.124171)scale(0.1 -0.1)">
      <defs>
       <path d="M 33.015625 40.375 
Q 26.375 40.375 22.484375 35.828125 
Q 18.609375 31.296875 18.609375 23.390625 
Q 18.609375 15.53125 22.484375 10.953125 
Q 26.375 6.390625 33.015625 6.390625 
Q 39.65625 6.390625 43.53125 10.953125 
Q 47.40625 15.53125 47.40625 23.390625 
Q 47.40625 31.296875 43.53125 35.828125 
Q 39.65625 40.375 33.015625 40.375 
z
M 52.59375 71.296875 
L 52.59375 62.3125 
Q 48.875 64.0625 45.09375 64.984375 
Q 41.3125 65.921875 37.59375 65.921875 
Q 27.828125 65.921875 22.671875 59.328125 
Q 17.53125 52.734375 16.796875 39.40625 
Q 19.671875 43.65625 24.015625 45.921875 
Q 28.375 48.1875 33.59375 48.1875 
Q 44.578125 48.1875 50.953125 41.515625 
Q 57.328125 34.859375 57.328125 23.390625 
Q 57.328125 12.15625 50.6875 5.359375 
Q 44.046875 -1.421875 33.015625 -1.421875 
Q 20.359375 -1.421875 13.671875 8.265625 
Q 6.984375 17.96875 6.984375 36.375 
Q 6.984375 53.65625 15.1875 63.9375 
Q 23.390625 74.21875 37.203125 74.21875 
Q 40.921875 74.21875 44.703125 73.484375 
Q 48.484375 72.75 52.59375 71.296875 
z
" id="DejaVuSans-54"/>
      </defs>
      <use xlink:href="#DejaVuSans-80"/>
      <use x="60.302734" xlink:href="#DejaVuSans-84"/>
      <use x="121.386719" xlink:href="#DejaVuSans-80"/>
      <use x="181.689453" xlink:href="#DejaVuSans-78"/>
      <use x="256.494141" xlink:href="#DejaVuSans-54"/>
     </g>
    </g>
   </g>
   <g id="text_17">
    <g clip-path="url(#pfa10794bde)">
     <!-- CD72 -->
     <g transform="translate(392.74895 92.419609)scale(0.1 -0.1)">
      <use xlink:href="#DejaVuSans-67"/>
      <use x="69.824219" xlink:href="#DejaVuSans-68"/>
      <use x="146.826172" xlink:href="#DejaVuSans-55"/>
      <use x="210.449219" xlink:href="#DejaVuSans-50"/>
     </g>
    </g>
   </g>
   <g id="text_18">
    <g clip-path="url(#pfa10794bde)">
     <!-- CD22 -->
     <g transform="translate(210.421015 407.026884)scale(0.1 -0.1)">
      <use xlink:href="#DejaVuSans-67"/>
      <use x="69.824219" xlink:href="#DejaVuSans-68"/>
      <use x="146.826172" xlink:href="#DejaVuSans-50"/>
      <use x="210.449219" xlink:href="#DejaVuSans-50"/>
     </g>
    </g>
   </g>
   <g id="text_19">
    <g clip-path="url(#pfa10794bde)">
     <!-- RAF1 -->
     <g transform="translate(224.722595 328.151174)scale(0.1 -0.1)">
      <defs>
       <path d="M 9.8125 72.90625 
L 51.703125 72.90625 
L 51.703125 64.59375 
L 19.671875 64.59375 
L 19.671875 43.109375 
L 48.578125 43.109375 
L 48.578125 34.8125 
L 19.671875 34.8125 
L 19.671875 0 
L 9.8125 0 
z
" id="DejaVuSans-70"/>
      </defs>
      <use xlink:href="#DejaVuSans-82"/>
      <use x="65.482422" xlink:href="#DejaVuSans-65"/>
      <use x="133.890625" xlink:href="#DejaVuSans-70"/>
      <use x="191.410156" xlink:href="#DejaVuSans-49"/>
     </g>
    </g>
   </g>
   <g id="text_20">
    <g clip-path="url(#pfa10794bde)">
     <!-- GRB2 -->
     <g transform="translate(203.811316 117.651388)scale(0.1 -0.1)">
      <use xlink:href="#DejaVuSans-71"/>
      <use x="77.490234" xlink:href="#DejaVuSans-82"/>
      <use x="146.972656" xlink:href="#DejaVuSans-66"/>
      <use x="215.576172" xlink:href="#DejaVuSans-50"/>
     </g>
    </g>
   </g>
   <g id="text_21">
    <g clip-path="url(#pfa10794bde)">
     <!-- PIK3AP1 -->
     <g transform="translate(51.352863 187.512358)scale(0.1 -0.1)">
      <use xlink:href="#DejaVuSans-80"/>
      <use x="60.302734" xlink:href="#DejaVuSans-73"/>
      <use x="89.794922" xlink:href="#DejaVuSans-75"/>
      <use x="155.371094" xlink:href="#DejaVuSans-51"/>
      <use x="218.994141" xlink:href="#DejaVuSans-65"/>
      <use x="287.402344" xlink:href="#DejaVuSans-80"/>
      <use x="347.705078" xlink:href="#DejaVuSans-49"/>
     </g>
    </g>
   </g>
   <g id="text_22">
    <g clip-path="url(#pfa10794bde)">
     <!-- DAPP1 -->
     <g transform="translate(61.581654 204.296129)scale(0.1 -0.1)">
      <use xlink:href="#DejaVuSans-68"/>
      <use x="75.251953" xlink:href="#DejaVuSans-65"/>
      <use x="143.660156" xlink:href="#DejaVuSans-80"/>
      <use x="203.962891" xlink:href="#DejaVuSans-80"/>
      <use x="264.265625" xlink:href="#DejaVuSans-49"/>
     </g>
    </g>
   </g>
   <g id="text_23">
    <g clip-path="url(#pfa10794bde)">
     <!-- BLK -->
     <g transform="translate(397.43965 315.845654)scale(0.1 -0.1)">
      <use xlink:href="#DejaVuSans-66"/>
      <use x="68.603516" xlink:href="#DejaVuSans-76"/>
      <use x="124.316406" xlink:href="#DejaVuSans-75"/>
     </g>
    </g>
   </g>
   <g id="text_24">
    <g clip-path="url(#pfa10794bde)">
     <!-- BANK1 -->
     <g transform="translate(147.813718 404.068896)scale(0.1 -0.1)">
      <use xlink:href="#DejaVuSans-66"/>
      <use x="68.603516" xlink:href="#DejaVuSans-65"/>
      <use x="137.011719" xlink:href="#DejaVuSans-78"/>
      <use x="211.816406" xlink:href="#DejaVuSans-75"/>
      <use x="277.392578" xlink:href="#DejaVuSans-49"/>
     </g>
    </g>
   </g>
   <g id="text_25">
    <g clip-path="url(#pfa10794bde)">
     <!-- NFKBIB -->
     <g transform="translate(335.996369 196.568863)scale(0.1 -0.1)">
      <use xlink:href="#DejaVuSans-78"/>
      <use x="74.804688" xlink:href="#DejaVuSans-70"/>
      <use x="132.324219" xlink:href="#DejaVuSans-75"/>
      <use x="197.900391" xlink:href="#DejaVuSans-66"/>
      <use x="266.503906" xlink:href="#DejaVuSans-73"/>
      <use x="295.996094" xlink:href="#DejaVuSans-66"/>
     </g>
    </g>
   </g>
   <g id="text_26">
    <g clip-path="url(#pfa10794bde)">
     <!-- NFKBIA -->
     <g transform="translate(514.837221 336.285222)scale(0.1 -0.1)">
      <use xlink:href="#DejaVuSans-78"/>
      <use x="74.804688" xlink:href="#DejaVuSans-70"/>
      <use x="132.324219" xlink:href="#DejaVuSans-75"/>
      <use x="197.900391" xlink:href="#DejaVuSans-66"/>
      <use x="266.503906" xlink:href="#DejaVuSans-73"/>
      <use x="295.996094" xlink:href="#DejaVuSans-65"/>
     </g>
    </g>
   </g>
   <g id="text_27">
    <g clip-path="url(#pfa10794bde)">
     <!-- NFKBIE -->
     <g transform="translate(409.382304 372.781267)scale(0.1 -0.1)">
      <defs>
       <path d="M 9.8125 72.90625 
L 55.90625 72.90625 
L 55.90625 64.59375 
L 19.671875 64.59375 
L 19.671875 43.015625 
L 54.390625 43.015625 
L 54.390625 34.71875 
L 19.671875 34.71875 
L 19.671875 8.296875 
L 56.78125 8.296875 
L 56.78125 0 
L 9.8125 0 
z
" id="DejaVuSans-69"/>
      </defs>
      <use xlink:href="#DejaVuSans-78"/>
      <use x="74.804688" xlink:href="#DejaVuSans-70"/>
      <use x="132.324219" xlink:href="#DejaVuSans-75"/>
      <use x="197.900391" xlink:href="#DejaVuSans-66"/>
      <use x="266.503906" xlink:href="#DejaVuSans-73"/>
      <use x="295.996094" xlink:href="#DejaVuSans-69"/>
     </g>
    </g>
   </g>
   <g id="text_28">
    <g clip-path="url(#pfa10794bde)">
     <!-- NFKB1 -->
     <g transform="translate(588.930535 284.057831)scale(0.1 -0.1)">
      <use xlink:href="#DejaVuSans-78"/>
      <use x="74.804688" xlink:href="#DejaVuSans-70"/>
      <use x="132.324219" xlink:href="#DejaVuSans-75"/>
      <use x="197.900391" xlink:href="#DejaVuSans-66"/>
      <use x="266.503906" xlink:href="#DejaVuSans-49"/>
     </g>
    </g>
   </g>
   <g id="text_29">
    <g clip-path="url(#pfa10794bde)">
     <!-- RELA -->
     <g transform="translate(599.367963 248.192211)scale(0.1 -0.1)">
      <use xlink:href="#DejaVuSans-82"/>
      <use x="69.482422" xlink:href="#DejaVuSans-69"/>
      <use x="132.666016" xlink:href="#DejaVuSans-76"/>
      <use x="190.628906" xlink:href="#DejaVuSans-65"/>
     </g>
    </g>
   </g>
   <g id="text_30">
    <g clip-path="url(#pfa10794bde)">
     <!-- FOS -->
     <g transform="translate(554.876321 170.643314)scale(0.1 -0.1)">
      <defs>
       <path d="M 39.40625 66.21875 
Q 28.65625 66.21875 22.328125 58.203125 
Q 16.015625 50.203125 16.015625 36.375 
Q 16.015625 22.609375 22.328125 14.59375 
Q 28.65625 6.59375 39.40625 6.59375 
Q 50.140625 6.59375 56.421875 14.59375 
Q 62.703125 22.609375 62.703125 36.375 
Q 62.703125 50.203125 56.421875 58.203125 
Q 50.140625 66.21875 39.40625 66.21875 
z
M 39.40625 74.21875 
Q 54.734375 74.21875 63.90625 63.9375 
Q 73.09375 53.65625 73.09375 36.375 
Q 73.09375 19.140625 63.90625 8.859375 
Q 54.734375 -1.421875 39.40625 -1.421875 
Q 24.03125 -1.421875 14.8125 8.828125 
Q 5.609375 19.09375 5.609375 36.375 
Q 5.609375 53.65625 14.8125 63.9375 
Q 24.03125 74.21875 39.40625 74.21875 
z
" id="DejaVuSans-79"/>
      </defs>
      <use xlink:href="#DejaVuSans-70"/>
      <use x="57.519531" xlink:href="#DejaVuSans-79"/>
      <use x="136.230469" xlink:href="#DejaVuSans-83"/>
     </g>
    </g>
   </g>
   <g id="text_31">
    <g clip-path="url(#pfa10794bde)">
     <!-- JUN -->
     <g transform="translate(150.338226 109.739846)scale(0.1 -0.1)">
      <defs>
       <path d="M 9.8125 72.90625 
L 19.671875 72.90625 
L 19.671875 5.078125 
Q 19.671875 -8.109375 14.671875 -14.0625 
Q 9.671875 -20.015625 -1.421875 -20.015625 
L -5.171875 -20.015625 
L -5.171875 -11.71875 
L -2.09375 -11.71875 
Q 4.4375 -11.71875 7.125 -8.046875 
Q 9.8125 -4.390625 9.8125 5.078125 
z
" id="DejaVuSans-74"/>
       <path d="M 8.6875 72.90625 
L 18.609375 72.90625 
L 18.609375 28.609375 
Q 18.609375 16.890625 22.84375 11.734375 
Q 27.09375 6.59375 36.625 6.59375 
Q 46.09375 6.59375 50.34375 11.734375 
Q 54.59375 16.890625 54.59375 28.609375 
L 54.59375 72.90625 
L 64.5 72.90625 
L 64.5 27.390625 
Q 64.5 13.140625 57.4375 5.859375 
Q 50.390625 -1.421875 36.625 -1.421875 
Q 22.796875 -1.421875 15.734375 5.859375 
Q 8.6875 13.140625 8.6875 27.390625 
z
" id="DejaVuSans-85"/>
      </defs>
      <use xlink:href="#DejaVuSans-74"/>
      <use x="29.492188" xlink:href="#DejaVuSans-85"/>
      <use x="102.685547" xlink:href="#DejaVuSans-78"/>
     </g>
    </g>
   </g>
   <g id="text_32">
    <g clip-path="url(#pfa10794bde)">
     <!-- HRAS -->
     <g transform="translate(365.96012 157.119938)scale(0.1 -0.1)">
      <defs>
       <path d="M 9.8125 72.90625 
L 19.671875 72.90625 
L 19.671875 43.015625 
L 55.515625 43.015625 
L 55.515625 72.90625 
L 65.375 72.90625 
L 65.375 0 
L 55.515625 0 
L 55.515625 34.71875 
L 19.671875 34.71875 
L 19.671875 0 
L 9.8125 0 
z
" id="DejaVuSans-72"/>
      </defs>
      <use xlink:href="#DejaVuSans-72"/>
      <use x="75.195312" xlink:href="#DejaVuSans-82"/>
      <use x="140.677734" xlink:href="#DejaVuSans-65"/>
      <use x="209.085938" xlink:href="#DejaVuSans-83"/>
     </g>
    </g>
   </g>
   <g id="text_33">
    <g clip-path="url(#pfa10794bde)">
     <!-- KRAS -->
     <g transform="translate(349.33865 279.449088)scale(0.1 -0.1)">
      <use xlink:href="#DejaVuSans-75"/>
      <use x="65.576172" xlink:href="#DejaVuSans-82"/>
      <use x="131.058594" xlink:href="#DejaVuSans-65"/>
      <use x="199.466797" xlink:href="#DejaVuSans-83"/>
     </g>
    </g>
   </g>
   <g id="text_34">
    <g clip-path="url(#pfa10794bde)">
     <!-- NRAS -->
     <g transform="translate(228.258476 236.986237)scale(0.1 -0.1)">
      <use xlink:href="#DejaVuSans-78"/>
      <use x="74.804688" xlink:href="#DejaVuSans-82"/>
      <use x="140.287109" xlink:href="#DejaVuSans-65"/>
      <use x="208.695312" xlink:href="#DejaVuSans-83"/>
     </g>
    </g>
   </g>
   <g id="text_35">
    <g clip-path="url(#pfa10794bde)">
     <!-- RAC1 -->
     <g transform="translate(225.457887 82.073556)scale(0.1 -0.1)">
      <use xlink:href="#DejaVuSans-82"/>
      <use x="65.482422" xlink:href="#DejaVuSans-65"/>
      <use x="132.140625" xlink:href="#DejaVuSans-67"/>
      <use x="201.964844" xlink:href="#DejaVuSans-49"/>
     </g>
    </g>
   </g>
   <g id="text_36">
    <g clip-path="url(#pfa10794bde)">
     <!-- RAC2 -->
     <g transform="translate(100.521408 156.886055)scale(0.1 -0.1)">
      <use xlink:href="#DejaVuSans-82"/>
      <use x="65.482422" xlink:href="#DejaVuSans-65"/>
      <use x="132.140625" xlink:href="#DejaVuSans-67"/>
      <use x="201.964844" xlink:href="#DejaVuSans-50"/>
     </g>
    </g>
   </g>
   <g id="text_37">
    <g clip-path="url(#pfa10794bde)">
     <!-- MAP2K1 -->
     <g transform="translate(106.752947 360.205656)scale(0.1 -0.1)">
      <use xlink:href="#DejaVuSans-77"/>
      <use x="86.279297" xlink:href="#DejaVuSans-65"/>
      <use x="154.6875" xlink:href="#DejaVuSans-80"/>
      <use x="214.990234" xlink:href="#DejaVuSans-50"/>
      <use x="278.613281" xlink:href="#DejaVuSans-75"/>
      <use x="344.189453" xlink:href="#DejaVuSans-49"/>
     </g>
    </g>
   </g>
   <g id="text_38">
    <g clip-path="url(#pfa10794bde)">
     <!-- MAP2K2 -->
     <g transform="translate(61.271514 316.721219)scale(0.1 -0.1)">
      <use xlink:href="#DejaVuSans-77"/>
      <use x="86.279297" xlink:href="#DejaVuSans-65"/>
      <use x="154.6875" xlink:href="#DejaVuSans-80"/>
      <use x="214.990234" xlink:href="#DejaVuSans-50"/>
      <use x="278.613281" xlink:href="#DejaVuSans-75"/>
      <use x="344.189453" xlink:href="#DejaVuSans-50"/>
     </g>
    </g>
   </g>
   <g id="text_39">
    <!-- Importance Score for Each Node in the Network -->
    <g transform="translate(198.616875 16.318125)scale(0.12 -0.12)">
     <defs>
      <path d="M 52 44.1875 
Q 55.375 50.25 60.0625 53.125 
Q 64.75 56 71.09375 56 
Q 79.640625 56 84.28125 50.015625 
Q 88.921875 44.046875 88.921875 33.015625 
L 88.921875 0 
L 79.890625 0 
L 79.890625 32.71875 
Q 79.890625 40.578125 77.09375 44.375 
Q 74.3125 48.1875 68.609375 48.1875 
Q 61.625 48.1875 57.5625 43.546875 
Q 53.515625 38.921875 53.515625 30.90625 
L 53.515625 0 
L 44.484375 0 
L 44.484375 32.71875 
Q 44.484375 40.625 41.703125 44.40625 
Q 38.921875 48.1875 33.109375 48.1875 
Q 26.21875 48.1875 22.15625 43.53125 
Q 18.109375 38.875 18.109375 30.90625 
L 18.109375 0 
L 9.078125 0 
L 9.078125 54.6875 
L 18.109375 54.6875 
L 18.109375 46.1875 
Q 21.1875 51.21875 25.484375 53.609375 
Q 29.78125 56 35.6875 56 
Q 41.65625 56 45.828125 52.96875 
Q 50 49.953125 52 44.1875 
z
" id="DejaVuSans-109"/>
      <path d="M 18.109375 8.203125 
L 18.109375 -20.796875 
L 9.078125 -20.796875 
L 9.078125 54.6875 
L 18.109375 54.6875 
L 18.109375 46.390625 
Q 20.953125 51.265625 25.265625 53.625 
Q 29.59375 56 35.59375 56 
Q 45.5625 56 51.78125 48.09375 
Q 58.015625 40.1875 58.015625 27.296875 
Q 58.015625 14.40625 51.78125 6.484375 
Q 45.5625 -1.421875 35.59375 -1.421875 
Q 29.59375 -1.421875 25.265625 0.953125 
Q 20.953125 3.328125 18.109375 8.203125 
z
M 48.6875 27.296875 
Q 48.6875 37.203125 44.609375 42.84375 
Q 40.53125 48.484375 33.40625 48.484375 
Q 26.265625 48.484375 22.1875 42.84375 
Q 18.109375 37.203125 18.109375 27.296875 
Q 18.109375 17.390625 22.1875 11.75 
Q 26.265625 6.109375 33.40625 6.109375 
Q 40.53125 6.109375 44.609375 11.75 
Q 48.6875 17.390625 48.6875 27.296875 
z
" id="DejaVuSans-112"/>
      <path d="M 30.609375 48.390625 
Q 23.390625 48.390625 19.1875 42.75 
Q 14.984375 37.109375 14.984375 27.296875 
Q 14.984375 17.484375 19.15625 11.84375 
Q 23.34375 6.203125 30.609375 6.203125 
Q 37.796875 6.203125 41.984375 11.859375 
Q 46.1875 17.53125 46.1875 27.296875 
Q 46.1875 37.015625 41.984375 42.703125 
Q 37.796875 48.390625 30.609375 48.390625 
z
M 30.609375 56 
Q 42.328125 56 49.015625 48.375 
Q 55.71875 40.765625 55.71875 27.296875 
Q 55.71875 13.875 49.015625 6.21875 
Q 42.328125 -1.421875 30.609375 -1.421875 
Q 18.84375 -1.421875 12.171875 6.21875 
Q 5.515625 13.875 5.515625 27.296875 
Q 5.515625 40.765625 12.171875 48.375 
Q 18.84375 56 30.609375 56 
z
" id="DejaVuSans-111"/>
      <path d="M 41.109375 46.296875 
Q 39.59375 47.171875 37.8125 47.578125 
Q 36.03125 48 33.890625 48 
Q 26.265625 48 22.1875 43.046875 
Q 18.109375 38.09375 18.109375 28.8125 
L 18.109375 0 
L 9.078125 0 
L 9.078125 54.6875 
L 18.109375 54.6875 
L 18.109375 46.1875 
Q 20.953125 51.171875 25.484375 53.578125 
Q 30.03125 56 36.53125 56 
Q 37.453125 56 38.578125 55.875 
Q 39.703125 55.765625 41.0625 55.515625 
z
" id="DejaVuSans-114"/>
      <path d="M 18.3125 70.21875 
L 18.3125 54.6875 
L 36.8125 54.6875 
L 36.8125 47.703125 
L 18.3125 47.703125 
L 18.3125 18.015625 
Q 18.3125 11.328125 20.140625 9.421875 
Q 21.96875 7.515625 27.59375 7.515625 
L 36.8125 7.515625 
L 36.8125 0 
L 27.59375 0 
Q 17.1875 0 13.234375 3.875 
Q 9.28125 7.765625 9.28125 18.015625 
L 9.28125 47.703125 
L 2.6875 47.703125 
L 2.6875 54.6875 
L 9.28125 54.6875 
L 9.28125 70.21875 
z
" id="DejaVuSans-116"/>
      <path d="M 34.28125 27.484375 
Q 23.390625 27.484375 19.1875 25 
Q 14.984375 22.515625 14.984375 16.5 
Q 14.984375 11.71875 18.140625 8.90625 
Q 21.296875 6.109375 26.703125 6.109375 
Q 34.1875 6.109375 38.703125 11.40625 
Q 43.21875 16.703125 43.21875 25.484375 
L 43.21875 27.484375 
z
M 52.203125 31.203125 
L 52.203125 0 
L 43.21875 0 
L 43.21875 8.296875 
Q 40.140625 3.328125 35.546875 0.953125 
Q 30.953125 -1.421875 24.3125 -1.421875 
Q 15.921875 -1.421875 10.953125 3.296875 
Q 6 8.015625 6 15.921875 
Q 6 25.140625 12.171875 29.828125 
Q 18.359375 34.515625 30.609375 34.515625 
L 43.21875 34.515625 
L 43.21875 35.40625 
Q 43.21875 41.609375 39.140625 45 
Q 35.0625 48.390625 27.6875 48.390625 
Q 23 48.390625 18.546875 47.265625 
Q 14.109375 46.140625 10.015625 43.890625 
L 10.015625 52.203125 
Q 14.9375 54.109375 19.578125 55.046875 
Q 24.21875 56 28.609375 56 
Q 40.484375 56 46.34375 49.84375 
Q 52.203125 43.703125 52.203125 31.203125 
z
" id="DejaVuSans-97"/>
      <path d="M 54.890625 33.015625 
L 54.890625 0 
L 45.90625 0 
L 45.90625 32.71875 
Q 45.90625 40.484375 42.875 44.328125 
Q 39.84375 48.1875 33.796875 48.1875 
Q 26.515625 48.1875 22.3125 43.546875 
Q 18.109375 38.921875 18.109375 30.90625 
L 18.109375 0 
L 9.078125 0 
L 9.078125 54.6875 
L 18.109375 54.6875 
L 18.109375 46.1875 
Q 21.34375 51.125 25.703125 53.5625 
Q 30.078125 56 35.796875 56 
Q 45.21875 56 50.046875 50.171875 
Q 54.890625 44.34375 54.890625 33.015625 
z
" id="DejaVuSans-110"/>
      <path d="M 48.78125 52.59375 
L 48.78125 44.1875 
Q 44.96875 46.296875 41.140625 47.34375 
Q 37.3125 48.390625 33.40625 48.390625 
Q 24.65625 48.390625 19.8125 42.84375 
Q 14.984375 37.3125 14.984375 27.296875 
Q 14.984375 17.28125 19.8125 11.734375 
Q 24.65625 6.203125 33.40625 6.203125 
Q 37.3125 6.203125 41.140625 7.25 
Q 44.96875 8.296875 48.78125 10.40625 
L 48.78125 2.09375 
Q 45.015625 0.34375 40.984375 -0.53125 
Q 36.96875 -1.421875 32.421875 -1.421875 
Q 20.0625 -1.421875 12.78125 6.34375 
Q 5.515625 14.109375 5.515625 27.296875 
Q 5.515625 40.671875 12.859375 48.328125 
Q 20.21875 56 33.015625 56 
Q 37.15625 56 41.109375 55.140625 
Q 45.0625 54.296875 48.78125 52.59375 
z
" id="DejaVuSans-99"/>
      <path d="M 56.203125 29.59375 
L 56.203125 25.203125 
L 14.890625 25.203125 
Q 15.484375 15.921875 20.484375 11.0625 
Q 25.484375 6.203125 34.421875 6.203125 
Q 39.59375 6.203125 44.453125 7.46875 
Q 49.3125 8.734375 54.109375 11.28125 
L 54.109375 2.78125 
Q 49.265625 0.734375 44.1875 -0.34375 
Q 39.109375 -1.421875 33.890625 -1.421875 
Q 20.796875 -1.421875 13.15625 6.1875 
Q 5.515625 13.8125 5.515625 26.8125 
Q 5.515625 40.234375 12.765625 48.109375 
Q 20.015625 56 32.328125 56 
Q 43.359375 56 49.78125 48.890625 
Q 56.203125 41.796875 56.203125 29.59375 
z
M 47.21875 32.234375 
Q 47.125 39.59375 43.09375 43.984375 
Q 39.0625 48.390625 32.421875 48.390625 
Q 24.90625 48.390625 20.390625 44.140625 
Q 15.875 39.890625 15.1875 32.171875 
z
" id="DejaVuSans-101"/>
      <path id="DejaVuSans-32"/>
      <path d="M 37.109375 75.984375 
L 37.109375 68.5 
L 28.515625 68.5 
Q 23.6875 68.5 21.796875 66.546875 
Q 19.921875 64.59375 19.921875 59.515625 
L 19.921875 54.6875 
L 34.71875 54.6875 
L 34.71875 47.703125 
L 19.921875 47.703125 
L 19.921875 0 
L 10.890625 0 
L 10.890625 47.703125 
L 2.296875 47.703125 
L 2.296875 54.6875 
L 10.890625 54.6875 
L 10.890625 58.5 
Q 10.890625 67.625 15.140625 71.796875 
Q 19.390625 75.984375 28.609375 75.984375 
z
" id="DejaVuSans-102"/>
      <path d="M 54.890625 33.015625 
L 54.890625 0 
L 45.90625 0 
L 45.90625 32.71875 
Q 45.90625 40.484375 42.875 44.328125 
Q 39.84375 48.1875 33.796875 48.1875 
Q 26.515625 48.1875 22.3125 43.546875 
Q 18.109375 38.921875 18.109375 30.90625 
L 18.109375 0 
L 9.078125 0 
L 9.078125 75.984375 
L 18.109375 75.984375 
L 18.109375 46.1875 
Q 21.34375 51.125 25.703125 53.5625 
Q 30.078125 56 35.796875 56 
Q 45.21875 56 50.046875 50.171875 
Q 54.890625 44.34375 54.890625 33.015625 
z
" id="DejaVuSans-104"/>
      <path d="M 45.40625 46.390625 
L 45.40625 75.984375 
L 54.390625 75.984375 
L 54.390625 0 
L 45.40625 0 
L 45.40625 8.203125 
Q 42.578125 3.328125 38.25 0.953125 
Q 33.9375 -1.421875 27.875 -1.421875 
Q 17.96875 -1.421875 11.734375 6.484375 
Q 5.515625 14.40625 5.515625 27.296875 
Q 5.515625 40.1875 11.734375 48.09375 
Q 17.96875 56 27.875 56 
Q 33.9375 56 38.25 53.625 
Q 42.578125 51.265625 45.40625 46.390625 
z
M 14.796875 27.296875 
Q 14.796875 17.390625 18.875 11.75 
Q 22.953125 6.109375 30.078125 6.109375 
Q 37.203125 6.109375 41.296875 11.75 
Q 45.40625 17.390625 45.40625 27.296875 
Q 45.40625 37.203125 41.296875 42.84375 
Q 37.203125 48.484375 30.078125 48.484375 
Q 22.953125 48.484375 18.875 42.84375 
Q 14.796875 37.203125 14.796875 27.296875 
z
" id="DejaVuSans-100"/>
      <path d="M 9.421875 54.6875 
L 18.40625 54.6875 
L 18.40625 0 
L 9.421875 0 
z
M 9.421875 75.984375 
L 18.40625 75.984375 
L 18.40625 64.59375 
L 9.421875 64.59375 
z
" id="DejaVuSans-105"/>
      <path d="M 4.203125 54.6875 
L 13.1875 54.6875 
L 24.421875 12.015625 
L 35.59375 54.6875 
L 46.1875 54.6875 
L 57.421875 12.015625 
L 68.609375 54.6875 
L 77.59375 54.6875 
L 63.28125 0 
L 52.6875 0 
L 40.921875 44.828125 
L 29.109375 0 
L 18.5 0 
z
" id="DejaVuSans-119"/>
      <path d="M 9.078125 75.984375 
L 18.109375 75.984375 
L 18.109375 31.109375 
L 44.921875 54.6875 
L 56.390625 54.6875 
L 27.390625 29.109375 
L 57.625 0 
L 45.90625 0 
L 18.109375 26.703125 
L 18.109375 0 
L 9.078125 0 
z
" id="DejaVuSans-107"/>
     </defs>
     <use xlink:href="#DejaVuSans-73"/>
     <use x="29.492188" xlink:href="#DejaVuSans-109"/>
     <use x="126.904297" xlink:href="#DejaVuSans-112"/>
     <use x="190.380859" xlink:href="#DejaVuSans-111"/>
     <use x="251.5625" xlink:href="#DejaVuSans-114"/>
     <use x="292.675781" xlink:href="#DejaVuSans-116"/>
     <use x="331.884766" xlink:href="#DejaVuSans-97"/>
     <use x="393.164062" xlink:href="#DejaVuSans-110"/>
     <use x="456.542969" xlink:href="#DejaVuSans-99"/>
     <use x="511.523438" xlink:href="#DejaVuSans-101"/>
     <use x="573.046875" xlink:href="#DejaVuSans-32"/>
     <use x="604.833984" xlink:href="#DejaVuSans-83"/>
     <use x="668.310547" xlink:href="#DejaVuSans-99"/>
     <use x="723.291016" xlink:href="#DejaVuSans-111"/>
     <use x="784.472656" xlink:href="#DejaVuSans-114"/>
     <use x="823.335938" xlink:href="#DejaVuSans-101"/>
     <use x="884.859375" xlink:href="#DejaVuSans-32"/>
     <use x="916.646484" xlink:href="#DejaVuSans-102"/>
     <use x="951.851562" xlink:href="#DejaVuSans-111"/>
     <use x="1013.033203" xlink:href="#DejaVuSans-114"/>
     <use x="1054.146484" xlink:href="#DejaVuSans-32"/>
     <use x="1085.933594" xlink:href="#DejaVuSans-69"/>
     <use x="1149.117188" xlink:href="#DejaVuSans-97"/>
     <use x="1210.396484" xlink:href="#DejaVuSans-99"/>
     <use x="1265.376953" xlink:href="#DejaVuSans-104"/>
     <use x="1328.755859" xlink:href="#DejaVuSans-32"/>
     <use x="1360.542969" xlink:href="#DejaVuSans-78"/>
     <use x="1435.347656" xlink:href="#DejaVuSans-111"/>
     <use x="1496.529297" xlink:href="#DejaVuSans-100"/>
     <use x="1560.005859" xlink:href="#DejaVuSans-101"/>
     <use x="1621.529297" xlink:href="#DejaVuSans-32"/>
     <use x="1653.316406" xlink:href="#DejaVuSans-105"/>
     <use x="1681.099609" xlink:href="#DejaVuSans-110"/>
     <use x="1744.478516" xlink:href="#DejaVuSans-32"/>
     <use x="1776.265625" xlink:href="#DejaVuSans-116"/>
     <use x="1815.474609" xlink:href="#DejaVuSans-104"/>
     <use x="1878.853516" xlink:href="#DejaVuSans-101"/>
     <use x="1940.376953" xlink:href="#DejaVuSans-32"/>
     <use x="1972.164062" xlink:href="#DejaVuSans-78"/>
     <use x="2046.96875" xlink:href="#DejaVuSans-101"/>
     <use x="2108.492188" xlink:href="#DejaVuSans-116"/>
     <use x="2147.701172" xlink:href="#DejaVuSans-119"/>
     <use x="2229.488281" xlink:href="#DejaVuSans-111"/>
     <use x="2290.669922" xlink:href="#DejaVuSans-114"/>
     <use x="2331.783203" xlink:href="#DejaVuSans-107"/>
    </g>
   </g>
  </g>
 </g>
 <defs>
  <clipPath id="pfa10794bde">
   <rect height="443.52" width="669.6" x="7.2" y="22.318125"/>
  </clipPath>
 </defs>
</svg>
