<?xml version="1.0" encoding="utf-8" standalone="no"?>
<!DOCTYPE svg PUBLIC "-//W3C//DTD SVG 1.1//EN"
  "http://www.w3.org/Graphics/SVG/1.1/DTD/svg11.dtd">
<!-- Created with matplotlib (https://matplotlib.org/) -->
<svg height="473.038125pt" version="1.1" viewBox="0 0 684 473.038125" width="684pt" xmlns="http://www.w3.org/2000/svg" xmlns:xlink="http://www.w3.org/1999/xlink">
 <metadata>
  <rdf:RDF xmlns:cc="http://creativecommons.org/ns#" xmlns:dc="http://purl.org/dc/elements/1.1/" xmlns:rdf="http://www.w3.org/1999/02/22-rdf-syntax-ns#">
   <cc:Work>
    <dc:type rdf:resource="http://purl.org/dc/dcmitype/StillImage"/>
    <dc:date>2024-04-25T16:28:50.930219</dc:date>
    <dc:format>image/svg+xml</dc:format>
    <dc:creator>
     <cc:Agent>
      <dc:title>Matplotlib v3.3.1, https://matplotlib.org/</dc:title>
     </cc:Agent>
    </dc:creator>
   </cc:Work>
  </rdf:RDF>
 </metadata>
 <defs>
  <style type="text/css">*{stroke-linecap:butt;stroke-linejoin:round;}</style>
 </defs>
 <g id="figure_1">
  <g id="patch_1">
   <path d="M 0 473.038125 
L 684 473.038125 
L 684 0 
L 0 0 
z
" style="fill:#ffffff;"/>
  </g>
  <g id="axes_1">
   <g id="patch_2">
    <path clip-path="url(#pba36388051)" d="M 480.185663 263.055281 
Q 435.07566 255.529768 391.068451 248.188229 
" style="fill:none;stroke:#808080;stroke-linecap:round;"/>
    <path clip-path="url(#pba36388051)" d="M 394.684821 250.819173 
L 391.068451 248.188229 
L 395.343028 246.873699 
L 394.684821 250.819173 
z
" style="fill:#808080;stroke:#808080;stroke-linecap:round;"/>
   </g>
   <g id="patch_3">
    <path clip-path="url(#pba36388051)" d="M 481.093237 268.564959 
Q 435.827052 292.775557 391.546747 316.458859 
" style="fill:none;stroke:#808080;stroke-linecap:round;"/>
    <path clip-path="url(#pba36388051)" d="M 396.017194 316.335938 
L 391.546747 316.458859 
L 394.130678 312.808749 
L 396.017194 316.335938 
z
" style="fill:#808080;stroke:#808080;stroke-linecap:round;"/>
   </g>
   <g id="patch_4">
    <path clip-path="url(#pba36388051)" d="M 480.393093 266.830005 
Q 433.852905 279.945772 388.388834 292.758272 
" style="fill:none;stroke:#808080;stroke-linecap:round;"/>
    <path clip-path="url(#pba36388051)" d="M 392.78137 293.598288 
L 388.388834 292.758272 
L 391.696369 289.748253 
L 392.78137 293.598288 
z
" style="fill:#808080;stroke:#808080;stroke-linecap:round;"/>
   </g>
   <g id="patch_5">
    <path clip-path="url(#pba36388051)" d="M 480.103437 263.709202 
Q 466.543049 262.496507 454.096252 261.3834 
" style="fill:none;stroke:#808080;stroke-linecap:round;"/>
    <path clip-path="url(#pba36388051)" d="M 457.902204 263.731745 
L 454.096252 261.3834 
L 458.258499 259.747645 
L 457.902204 263.731745 
z
" style="fill:#808080;stroke:#808080;stroke-linecap:round;"/>
   </g>
   <g id="patch_6">
    <path clip-path="url(#pba36388051)" d="M 480.072029 264.437329 
Q 420.633742 264.14001 362.313474 263.848282 
" style="fill:none;stroke:#808080;stroke-linecap:round;"/>
    <path clip-path="url(#pba36388051)" d="M 366.30342 265.868266 
L 362.313474 263.848282 
L 366.323429 261.868316 
L 366.30342 265.868266 
z
" style="fill:#808080;stroke:#808080;stroke-linecap:round;"/>
   </g>
   <g id="patch_7">
    <path clip-path="url(#pba36388051)" d="M 483.310419 271.233892 
Q 475.797401 280.596384 468.984121 289.086884 
" style="fill:none;stroke:#808080;stroke-linecap:round;"/>
    <path clip-path="url(#pba36388051)" d="M 473.047441 287.218883 
L 468.984121 289.086884 
L 469.927712 284.715427 
L 473.047441 287.218883 
z
" style="fill:#808080;stroke:#808080;stroke-linecap:round;"/>
   </g>
   <g id="patch_8">
    <path clip-path="url(#pba36388051)" d="M 480.21832 266.101707 
Q 416.288111 278.277901 353.456194 290.244913 
" style="fill:none;stroke:#808080;stroke-linecap:round;"/>
    <path clip-path="url(#pba36388051)" d="M 357.759754 291.461206 
L 353.456194 290.244913 
L 357.011364 287.531841 
L 357.759754 291.461206 
z
" style="fill:#808080;stroke:#808080;stroke-linecap:round;"/>
   </g>
   <g id="patch_9">
    <path clip-path="url(#pba36388051)" d="M 480.542084 261.645506 
Q 454.697195 252.696109 429.908794 244.112546 
" style="fill:none;stroke:#808080;stroke-linecap:round;"/>
    <path clip-path="url(#pba36388051)" d="M 433.034176 247.311294 
L 429.908794 244.112546 
L 434.343021 243.53149 
L 433.034176 247.311294 
z
" style="fill:#808080;stroke:#808080;stroke-linecap:round;"/>
   </g>
   <g id="patch_10">
    <path clip-path="url(#pba36388051)" d="M 482.391076 270.37976 
Q 458.123143 292.965272 434.67364 314.789095 
" style="fill:none;stroke:#808080;stroke-linecap:round;"/>
    <path clip-path="url(#pba36388051)" d="M 438.964298 313.528039 
L 434.67364 314.789095 
L 436.23919 310.599935 
L 438.964298 313.528039 
z
" style="fill:#808080;stroke:#808080;stroke-linecap:round;"/>
   </g>
   <g id="patch_11">
    <path clip-path="url(#pba36388051)" d="M 480.854538 268.080649 
Q 457.518109 278.748642 435.198504 288.951804 
" style="fill:none;stroke:#808080;stroke-linecap:round;"/>
    <path clip-path="url(#pba36388051)" d="M 439.667921 289.107728 
L 435.198504 288.951804 
L 438.004894 285.469825 
L 439.667921 289.107728 
z
" style="fill:#808080;stroke:#808080;stroke-linecap:round;"/>
   </g>
   <g id="patch_12">
    <path clip-path="url(#pba36388051)" d="M 394.05077 279.389631 
Q 290.885425 350.903694 188.638936 421.780809 
" style="fill:none;stroke:#808080;stroke-linecap:round;"/>
    <path clip-path="url(#pba36388051)" d="M 193.065743 421.145688 
L 188.638936 421.780809 
L 190.786924 417.858291 
L 193.065743 421.145688 
z
" style="fill:#808080;stroke:#808080;stroke-linecap:round;"/>
   </g>
   <g id="patch_13">
    <path clip-path="url(#pba36388051)" d="M 399.951129 265.878172 
Q 386.001762 167.630301 372.209559 70.489364 
" style="fill:none;stroke:#808080;stroke-linecap:round;"/>
    <path clip-path="url(#pba36388051)" d="M 370.791704 74.730789 
L 372.209559 70.489364 
L 374.751986 74.168503 
L 370.791704 74.730789 
z
" style="fill:#808080;stroke:#808080;stroke-linecap:round;"/>
   </g>
   <g id="patch_14">
    <path clip-path="url(#pba36388051)" d="M 409.795456 275.214625 
Q 509.930497 284.02831 608.95181 292.743967 
" style="fill:none;stroke:#808080;stroke-linecap:round;"/>
    <path clip-path="url(#pba36388051)" d="M 605.142573 290.400953 
L 608.95181 292.743967 
L 604.791857 294.385548 
L 605.142573 290.400953 
z
" style="fill:#808080;stroke:#808080;stroke-linecap:round;"/>
   </g>
   <g id="patch_15">
    <path clip-path="url(#pba36388051)" d="M 407.897034 279.908715 
Q 471.046967 331.094083 533.328346 381.575453 
" style="fill:none;stroke:#808080;stroke-linecap:round;"/>
    <path clip-path="url(#pba36388051)" d="M 531.480254 377.503039 
L 533.328346 381.575453 
L 528.961559 380.610478 
L 531.480254 377.503039 
z
" style="fill:#808080;stroke:#808080;stroke-linecap:round;"/>
   </g>
   <g id="patch_16">
    <path clip-path="url(#pba36388051)" d="M 396.161982 267.387504 
Q 391.295335 260.517719 387.07498 254.560243 
" style="fill:none;stroke:#808080;stroke-linecap:round;"/>
    <path clip-path="url(#pba36388051)" d="M 387.755235 258.980339 
L 387.07498 254.560243 
L 391.01921 256.668096 
L 387.755235 258.980339 
z
" style="fill:#808080;stroke:#808080;stroke-linecap:round;"/>
   </g>
   <g id="patch_17">
    <path clip-path="url(#pba36388051)" d="M 398.011988 282.521379 
Q 392.046103 297.764339 386.487702 311.966167 
" style="fill:none;stroke:#808080;stroke-linecap:round;"/>
    <path clip-path="url(#pba36388051)" d="M 389.807998 308.970231 
L 386.487702 311.966167 
L 386.083131 307.512369 
L 389.807998 308.970231 
z
" style="fill:#808080;stroke:#808080;stroke-linecap:round;"/>
   </g>
   <g id="patch_18">
    <path clip-path="url(#pba36388051)" d="M 394.870854 280.40266 
Q 390.072162 284.934106 386.086352 288.697942 
" style="fill:none;stroke:#808080;stroke-linecap:round;"/>
    <path clip-path="url(#pba36388051)" d="M 390.367744 287.405781 
L 386.086352 288.697942 
L 387.621459 284.497532 
L 390.367744 287.405781 
z
" style="fill:#808080;stroke:#808080;stroke-linecap:round;"/>
   </g>
   <g id="patch_19">
    <path clip-path="url(#pba36388051)" d="M 409.411385 271.794209 
Q 422.760705 267.484302 435.046068 263.5179 
" style="fill:none;stroke:#808080;stroke-linecap:round;"/>
    <path clip-path="url(#pba36388051)" d="M 430.625059 262.843596 
L 435.046068 263.5179 
L 431.85402 266.650124 
L 430.625059 262.843596 
z
" style="fill:#808080;stroke:#808080;stroke-linecap:round;"/>
   </g>
   <g id="patch_20">
    <path clip-path="url(#pba36388051)" d="M 392.712105 272.602378 
Q 376.852604 269.127437 362.085229 265.891788 
" style="fill:none;stroke:#808080;stroke-linecap:round;"/>
    <path clip-path="url(#pba36388051)" d="M 365.564476 268.701564 
L 362.085229 265.891788 
L 366.420598 264.794256 
L 365.564476 268.701564 
z
" style="fill:#808080;stroke:#808080;stroke-linecap:round;"/>
   </g>
   <g id="patch_21">
    <path clip-path="url(#pba36388051)" d="M 409.314172 277.39345 
Q 432.016026 285.582356 453.666176 293.391896 
" style="fill:none;stroke:#808080;stroke-linecap:round;"/>
    <path clip-path="url(#pba36388051)" d="M 450.582115 290.153291 
L 453.666176 293.391896 
L 449.224855 293.915982 
L 450.582115 290.153291 
z
" style="fill:#808080;stroke:#808080;stroke-linecap:round;"/>
   </g>
   <g id="patch_22">
    <path clip-path="url(#pba36388051)" d="M 392.887644 277.000859 
Q 372.505505 283.265978 353.192053 289.202601 
" style="fill:none;stroke:#808080;stroke-linecap:round;"/>
    <path clip-path="url(#pba36388051)" d="M 357.603133 289.939063 
L 353.192053 289.202601 
L 356.427871 286.115614 
L 357.603133 289.939063 
z
" style="fill:#808080;stroke:#808080;stroke-linecap:round;"/>
   </g>
   <g id="patch_23">
    <path clip-path="url(#pba36388051)" d="M 405.522949 266.96657 
Q 410.919405 257.684856 415.753905 249.369685 
" style="fill:none;stroke:#808080;stroke-linecap:round;"/>
    <path clip-path="url(#pba36388051)" d="M 412.014387 251.82244 
L 415.753905 249.369685 
L 415.472398 253.832952 
L 412.014387 251.82244 
z
" style="fill:#808080;stroke:#808080;stroke-linecap:round;"/>
   </g>
   <g id="patch_24">
    <path clip-path="url(#pba36388051)" d="M 405.402861 282.007897 
Q 414.341988 297.95366 422.734397 312.92418 
" style="fill:none;stroke:#808080;stroke-linecap:round;"/>
    <path clip-path="url(#pba36388051)" d="M 422.52297 308.457045 
L 422.734397 312.92418 
L 419.033833 310.41304 
L 422.52297 308.457045 
z
" style="fill:#808080;stroke:#808080;stroke-linecap:round;"/>
   </g>
   <g id="patch_25">
    <path clip-path="url(#pba36388051)" d="M 408.138019 279.600756 
Q 413.739612 283.736525 418.441761 287.208216 
" style="fill:none;stroke:#808080;stroke-linecap:round;"/>
    <path clip-path="url(#pba36388051)" d="M 416.411749 283.223363 
L 418.441761 287.208216 
L 414.035871 286.441313 
L 416.411749 283.223363 
z
" style="fill:#808080;stroke:#808080;stroke-linecap:round;"/>
   </g>
   <g id="patch_26">
    <path clip-path="url(#pba36388051)" d="M 73.943614 226.532416 
Q 101.873121 224.585767 128.687299 222.716856 
" style="fill:none;stroke:#808080;stroke-linecap:round;"/>
    <path clip-path="url(#pba36388051)" d="M 124.55792 220.999816 
L 128.687299 222.716856 
L 124.83604 224.990135 
L 124.55792 220.999816 
z
" style="fill:#808080;stroke:#808080;stroke-linecap:round;"/>
   </g>
   <g id="patch_27">
    <path clip-path="url(#pba36388051)" d="M 133.603279 229.216729 
Q 106.759507 269.033262 80.540727 307.922764 
" style="fill:none;stroke:#808080;stroke-linecap:round;"/>
    <path clip-path="url(#pba36388051)" d="M 84.435087 305.724138 
L 80.540727 307.922764 
L 81.118442 303.4881 
L 84.435087 305.724138 
z
" style="fill:#808080;stroke:#808080;stroke-linecap:round;"/>
   </g>
   <g id="patch_28">
    <path clip-path="url(#pba36388051)" d="M 137.262927 213.458483 
Q 131.045071 168.291924 124.979692 124.232953 
" style="fill:none;stroke:#808080;stroke-linecap:round;"/>
    <path clip-path="url(#pba36388051)" d="M 123.543893 128.468338 
L 124.979692 124.232953 
L 127.506521 127.922823 
L 123.543893 128.468338 
z
" style="fill:#808080;stroke:#808080;stroke-linecap:round;"/>
   </g>
   <g id="patch_29">
    <path clip-path="url(#pba36388051)" d="M 143.053264 214.70768 
Q 185.865494 146.634244 228.082506 79.507232 
" style="fill:none;stroke:#808080;stroke-linecap:round;"/>
    <path clip-path="url(#pba36388051)" d="M 224.25998 81.828501 
L 228.082506 79.507232 
L 227.646006 83.958015 
L 224.25998 81.828501 
z
" style="fill:#808080;stroke:#808080;stroke-linecap:round;"/>
   </g>
   <g id="patch_30">
    <path clip-path="url(#pba36388051)" d="M 141.301682 230.209659 
Q 169.899845 311.995103 198.128973 392.725172 
" style="fill:none;stroke:#808080;stroke-linecap:round;"/>
    <path clip-path="url(#pba36388051)" d="M 198.69658 388.289203 
L 198.128973 392.725172 
L 194.920762 389.609505 
L 198.69658 388.289203 
z
" style="fill:#808080;stroke:#808080;stroke-linecap:round;"/>
   </g>
   <g id="patch_31">
    <path clip-path="url(#pba36388051)" d="M 374.982844 252.374071 
Q 281.012834 336.964248 187.873776 420.806417 
" style="fill:none;stroke:#808080;stroke-linecap:round;"/>
    <path clip-path="url(#pba36388051)" d="M 192.184762 419.616711 
L 187.873776 420.806417 
L 189.508603 416.643805 
L 192.184762 419.616711 
z
" style="fill:#808080;stroke:#808080;stroke-linecap:round;"/>
   </g>
   <g id="patch_32">
    <path clip-path="url(#pba36388051)" d="M 380.927949 237.930151 
Q 376.127625 153.690758 371.390908 70.567588 
" style="fill:none;stroke:#808080;stroke-linecap:round;"/>
    <path clip-path="url(#pba36388051)" d="M 369.621715 74.674893 
L 371.390908 70.567588 
L 373.615237 74.447325 
L 369.621715 74.674893 
z
" style="fill:#808080;stroke:#808080;stroke-linecap:round;"/>
   </g>
   <g id="patch_33">
    <path clip-path="url(#pba36388051)" d="M 389.918109 248.262745 
Q 500.059547 270.090517 609.104281 291.700945 
" style="fill:none;stroke:#808080;stroke-linecap:round;"/>
    <path clip-path="url(#pba36388051)" d="M 605.569388 288.961505 
L 609.104281 291.700945 
L 604.791793 292.885196 
L 605.569388 288.961505 
z
" style="fill:#808080;stroke:#808080;stroke-linecap:round;"/>
   </g>
   <g id="patch_34">
    <path clip-path="url(#pba36388051)" d="M 387.907006 252.318762 
Q 461.174461 317.157142 533.604652 381.254582 
" style="fill:none;stroke:#808080;stroke-linecap:round;"/>
    <path clip-path="url(#pba36388051)" d="M 531.934604 377.105975 
L 533.604652 381.254582 
L 529.283738 380.101457 
L 531.934604 377.105975 
z
" style="fill:#808080;stroke:#808080;stroke-linecap:round;"/>
   </g>
   <g id="patch_35">
    <path clip-path="url(#pba36388051)" d="M 375.25894 325.097231 
Q 281.764346 374.210518 189.259533 422.803867 
" style="fill:none;stroke:#808080;stroke-linecap:round;"/>
    <path clip-path="url(#pba36388051)" d="M 193.730771 422.714254 
L 189.259533 422.803867 
L 191.870586 419.173109 
L 193.730771 422.714254 
z
" style="fill:#808080;stroke:#808080;stroke-linecap:round;"/>
   </g>
   <g id="patch_36">
    <path clip-path="url(#pba36388051)" d="M 382.52241 312.416998 
Q 376.879415 190.936156 371.288298 70.572144 
" style="fill:none;stroke:#808080;stroke-linecap:round;"/>
    <path clip-path="url(#pba36388051)" d="M 369.476059 74.660639 
L 371.288298 70.572144 
L 373.471751 74.475032 
L 369.476059 74.660639 
z
" style="fill:#808080;stroke:#808080;stroke-linecap:round;"/>
   </g>
   <g id="patch_37">
    <path clip-path="url(#pba36388051)" d="M 391.526152 320.068353 
Q 500.810226 307.335892 608.983779 294.732816 
" style="fill:none;stroke:#808080;stroke-linecap:round;"/>
    <path clip-path="url(#pba36388051)" d="M 604.779203 293.209154 
L 608.983779 294.732816 
L 605.242104 297.182279 
L 604.779203 293.209154 
z
" style="fill:#808080;stroke:#808080;stroke-linecap:round;"/>
   </g>
   <g id="patch_38">
    <path clip-path="url(#pba36388051)" d="M 390.902087 324.436432 
Q 461.923943 354.401532 531.915696 383.932018 
" style="fill:none;stroke:#808080;stroke-linecap:round;"/>
    <path clip-path="url(#pba36388051)" d="M 529.007752 380.534392 
L 531.915696 383.932018 
L 527.452829 384.219797 
L 529.007752 380.534392 
z
" style="fill:#808080;stroke:#808080;stroke-linecap:round;"/>
   </g>
   <g id="patch_39">
    <path clip-path="url(#pba36388051)" d="M 371.76481 300.207963 
Q 279.790965 361.38054 188.74805 421.933948 
" style="fill:none;stroke:#808080;stroke-linecap:round;"/>
    <path clip-path="url(#pba36388051)" d="M 193.186247 421.384039 
L 188.74805 421.933948 
L 190.971041 418.053444 
L 193.186247 421.384039 
z
" style="fill:#808080;stroke:#808080;stroke-linecap:round;"/>
   </g>
   <g id="patch_40">
    <path clip-path="url(#pba36388051)" d="M 378.677705 286.758036 
Q 374.906414 178.110384 371.173908 70.580093 
" style="fill:none;stroke:#808080;stroke-linecap:round;"/>
    <path clip-path="url(#pba36388051)" d="M 369.313873 74.647066 
L 371.173908 70.580093 
L 373.311465 74.508305 
L 369.313873 74.647066 
z
" style="fill:#808080;stroke:#808080;stroke-linecap:round;"/>
   </g>
   <g id="patch_41">
    <path clip-path="url(#pba36388051)" d="M 387.636 295.34505 
Q 498.833824 294.505946 608.913645 293.675278 
" style="fill:none;stroke:#808080;stroke-linecap:round;"/>
    <path clip-path="url(#pba36388051)" d="M 604.898667 291.705518 
L 608.913645 293.675278 
L 604.928851 295.705405 
L 604.898667 291.705518 
z
" style="fill:#808080;stroke:#808080;stroke-linecap:round;"/>
   </g>
   <g id="patch_42">
    <path clip-path="url(#pba36388051)" d="M 386.502623 299.699996 
Q 459.952402 341.572213 532.430891 382.890719 
" style="fill:none;stroke:#808080;stroke-linecap:round;"/>
    <path clip-path="url(#pba36388051)" d="M 529.946411 379.172203 
L 532.430891 382.890719 
L 527.965391 382.647193 
L 529.946411 379.172203 
z
" style="fill:#808080;stroke:#808080;stroke-linecap:round;"/>
   </g>
   <g id="patch_43">
    <path clip-path="url(#pba36388051)" d="M 437.034879 265.14302 
Q 312.479721 343.931484 188.869429 422.122265 
" style="fill:none;stroke:#808080;stroke-linecap:round;"/>
    <path clip-path="url(#pba36388051)" d="M 193.319058 421.674156 
L 188.869429 422.122265 
L 191.180718 418.293696 
L 193.319058 421.674156 
z
" style="fill:#808080;stroke:#808080;stroke-linecap:round;"/>
   </g>
   <g id="patch_44">
    <path clip-path="url(#pba36388051)" d="M 441.36356 252.385182 
Q 407.595525 160.660105 374.213744 69.984221 
" style="fill:none;stroke:#808080;stroke-linecap:round;"/>
    <path clip-path="url(#pba36388051)" d="M 373.718795 74.428883 
L 374.213744 69.984221 
L 377.472505 73.046978 
L 373.718795 74.428883 
z
" style="fill:#808080;stroke:#808080;stroke-linecap:round;"/>
   </g>
   <g id="patch_45">
    <path clip-path="url(#pba36388051)" d="M 452.865479 262.12747 
Q 531.52507 277.056923 609.086238 291.777896 
" style="fill:none;stroke:#808080;stroke-linecap:round;"/>
    <path clip-path="url(#pba36388051)" d="M 605.529333 289.067097 
L 609.086238 291.777896 
L 604.783456 292.996941 
L 605.529333 289.067097 
z
" style="fill:#808080;stroke:#808080;stroke-linecap:round;"/>
   </g>
   <g id="patch_46">
    <path clip-path="url(#pba36388051)" d="M 449.592493 267.411467 
Q 492.640545 324.122718 535.012616 379.943435 
" style="fill:none;stroke:#808080;stroke-linecap:round;"/>
    <path clip-path="url(#pba36388051)" d="M 534.187187 375.548135 
L 535.012616 379.943435 
L 531.001118 377.966598 
L 534.187187 375.548135 
z
" style="fill:#808080;stroke:#808080;stroke-linecap:round;"/>
   </g>
   <g id="patch_47">
    <path clip-path="url(#pba36388051)" d="M 346.262798 269.766345 
Q 266.571439 345.573351 187.690145 420.609777 
" style="fill:none;stroke:#808080;stroke-linecap:round;"/>
    <path clip-path="url(#pba36388051)" d="M 191.966779 419.301953 
L 187.690145 420.609777 
L 189.209866 416.403776 
L 191.966779 419.301953 
z
" style="fill:#808080;stroke:#808080;stroke-linecap:round;"/>
   </g>
   <g id="patch_48">
    <path clip-path="url(#pba36388051)" d="M 353.313153 255.172995 
Q 361.685015 162.302973 369.956497 70.54647 
" style="fill:none;stroke:#808080;stroke-linecap:round;"/>
    <path clip-path="url(#pba36388051)" d="M 367.605447 74.350752 
L 369.956497 70.54647 
L 371.589292 74.70988 
L 367.605447 74.350752 
z
" style="fill:#808080;stroke:#808080;stroke-linecap:round;"/>
   </g>
   <g id="patch_49">
    <path clip-path="url(#pba36388051)" d="M 361.141329 264.762974 
Q 485.616447 278.700599 608.980474 292.513815 
" style="fill:none;stroke:#808080;stroke-linecap:round;"/>
    <path clip-path="url(#pba36388051)" d="M 605.227868 290.081132 
L 608.980474 292.513815 
L 604.782765 294.056291 
L 605.227868 290.081132 
z
" style="fill:#808080;stroke:#808080;stroke-linecap:round;"/>
   </g>
   <g id="patch_50">
    <path clip-path="url(#pba36388051)" d="M 359.77091 268.559233 
Q 446.731435 325.766938 532.757918 382.360176 
" style="fill:none;stroke:#808080;stroke-linecap:round;"/>
    <path clip-path="url(#pba36388051)" d="M 530.515385 378.490933 
L 532.757918 382.360176 
L 528.317004 381.832657 
L 530.515385 378.490933 
z
" style="fill:#808080;stroke:#808080;stroke-linecap:round;"/>
   </g>
   <g id="patch_51">
    <path clip-path="url(#pba36388051)" d="M 455.006173 300.348545 
Q 321.734461 362.030978 189.477379 423.243808 
" style="fill:none;stroke:#808080;stroke-linecap:round;"/>
    <path clip-path="url(#pba36388051)" d="M 193.94748 423.378729 
L 189.477379 423.243808 
L 192.267376 419.748681 
L 193.94748 423.378729 
z
" style="fill:#808080;stroke:#808080;stroke-linecap:round;"/>
   </g>
   <g id="patch_52">
    <path clip-path="url(#pba36388051)" d="M 459.719403 288.643803 
Q 416.850966 178.759123 374.388871 69.916021 
" style="fill:none;stroke:#808080;stroke-linecap:round;"/>
    <path clip-path="url(#pba36388051)" d="M 373.979415 74.369373 
L 374.388871 69.916021 
L 377.705879 72.915598 
L 373.979415 74.369373 
z
" style="fill:#808080;stroke:#808080;stroke-linecap:round;"/>
   </g>
   <g id="patch_53">
    <path clip-path="url(#pba36388051)" d="M 471.526167 296.537787 
Q 540.782908 295.155969 608.921837 293.796453 
" style="fill:none;stroke:#808080;stroke-linecap:round;"/>
    <path clip-path="url(#pba36388051)" d="M 604.882737 291.876644 
L 608.921837 293.796453 
L 604.962529 295.875848 
L 604.882737 291.876644 
z
" style="fill:#808080;stroke:#808080;stroke-linecap:round;"/>
   </g>
   <g id="patch_54">
    <path clip-path="url(#pba36388051)" d="M 468.505059 303.285622 
Q 501.896479 342.222432 534.560078 380.31055 
" style="fill:none;stroke:#808080;stroke-linecap:round;"/>
    <path clip-path="url(#pba36388051)" d="M 533.474333 375.972214 
L 534.560078 380.31055 
L 530.437962 378.576144 
L 533.474333 375.972214 
z
" style="fill:#808080;stroke:#808080;stroke-linecap:round;"/>
   </g>
   <g id="patch_55">
    <path clip-path="url(#pba36388051)" d="M 337.179057 297.600766 
Q 262.225417 359.712958 188.132644 421.111771 
" style="fill:none;stroke:#808080;stroke-linecap:round;"/>
    <path clip-path="url(#pba36388051)" d="M 192.488704 420.099475 
L 188.132644 421.111771 
L 189.936444 417.019545 
L 192.488704 420.099475 
z
" style="fill:#808080;stroke:#808080;stroke-linecap:round;"/>
   </g>
   <g id="patch_56">
    <path clip-path="url(#pba36388051)" d="M 344.850738 283.475134 
Q 357.340928 176.440018 369.701532 70.5154 
" style="fill:none;stroke:#808080;stroke-linecap:round;"/>
    <path clip-path="url(#pba36388051)" d="M 367.251388 74.256629 
L 369.701532 70.5154 
L 371.224429 74.720253 
L 367.251388 74.256629 
z
" style="fill:#808080;stroke:#808080;stroke-linecap:round;"/>
   </g>
   <g id="patch_57">
    <path clip-path="url(#pba36388051)" d="M 352.507457 292.123147 
Q 481.269046 292.838253 608.912618 293.547149 
" style="fill:none;stroke:#808080;stroke-linecap:round;"/>
    <path clip-path="url(#pba36388051)" d="M 604.923787 291.524966 
L 608.912618 293.547149 
L 604.901573 295.524904 
L 604.923787 291.524966 
z
" style="fill:#808080;stroke:#808080;stroke-linecap:round;"/>
   </g>
   <g id="patch_58">
    <path clip-path="url(#pba36388051)" d="M 351.638801 295.856959 
Q 442.387482 339.904753 532.13035 383.464345 
" style="fill:none;stroke:#808080;stroke-linecap:round;"/>
    <path clip-path="url(#pba36388051)" d="M 529.405172 379.918445 
L 532.13035 383.464345 
L 527.658523 383.516947 
L 529.405172 379.918445 
z
" style="fill:#808080;stroke:#808080;stroke-linecap:round;"/>
   </g>
   <g id="patch_59">
    <path clip-path="url(#pba36388051)" d="M 413.831317 246.224784 
Q 300.635687 334.133222 188.323081 421.355899 
" style="fill:none;stroke:#808080;stroke-linecap:round;"/>
    <path clip-path="url(#pba36388051)" d="M 192.70901 420.482044 
L 188.323081 421.355899 
L 190.255555 417.322842 
L 192.70901 420.482044 
z
" style="fill:#808080;stroke:#808080;stroke-linecap:round;"/>
   </g>
   <g id="patch_60">
    <path clip-path="url(#pba36388051)" d="M 418.36094 232.567148 
Q 395.75265 150.860018 373.442515 70.230434 
" style="fill:none;stroke:#808080;stroke-linecap:round;"/>
    <path clip-path="url(#pba36388051)" d="M 372.581659 74.618933 
L 373.442515 70.230434 
L 376.436801 73.552219 
L 372.581659 74.618933 
z
" style="fill:#808080;stroke:#808080;stroke-linecap:round;"/>
   </g>
   <g id="patch_61">
    <path clip-path="url(#pba36388051)" d="M 429.037197 243.139677 
Q 519.682521 267.257561 609.2474 291.087972 
" style="fill:none;stroke:#808080;stroke-linecap:round;"/>
    <path clip-path="url(#pba36388051)" d="M 605.896132 288.126722 
L 609.2474 291.087972 
L 604.86764 291.992237 
L 605.896132 288.126722 
z
" style="fill:#808080;stroke:#808080;stroke-linecap:round;"/>
   </g>
   <g id="patch_62">
    <path clip-path="url(#pba36388051)" d="M 426.158721 247.614252 
Q 480.799036 314.32464 534.73091 380.170093 
" style="fill:none;stroke:#808080;stroke-linecap:round;"/>
    <path clip-path="url(#pba36388051)" d="M 533.74356 375.808311 
L 534.73091 380.170093 
L 530.649075 378.342904 
L 533.74356 375.808311 
z
" style="fill:#808080;stroke:#808080;stroke-linecap:round;"/>
   </g>
   <g id="patch_63">
    <path clip-path="url(#pba36388051)" d="M 419.553968 324.865988 
Q 304.058522 374.401538 189.590591 423.496391 
" style="fill:none;stroke:#808080;stroke-linecap:round;"/>
    <path clip-path="url(#pba36388051)" d="M 194.055082 423.757779 
L 189.590591 423.496391 
L 192.478396 420.081631 
L 194.055082 423.757779 
z
" style="fill:#808080;stroke:#808080;stroke-linecap:round;"/>
   </g>
   <g id="patch_64">
    <path clip-path="url(#pba36388051)" d="M 425.675253 312.992215 
Q 399.174998 191.129754 372.912319 70.359794 
" style="fill:none;stroke:#808080;stroke-linecap:round;"/>
    <path clip-path="url(#pba36388051)" d="M 371.80797 74.693432 
L 372.912319 70.359794 
L 375.71662 73.843456 
L 371.80797 74.693432 
z
" style="fill:#808080;stroke:#808080;stroke-linecap:round;"/>
   </g>
   <g id="patch_65">
    <path clip-path="url(#pba36388051)" d="M 436.08255 320.203498 
Q 523.104242 307.526579 609.019577 295.01083 
" style="fill:none;stroke:#808080;stroke-linecap:round;"/>
    <path clip-path="url(#pba36388051)" d="M 604.773049 293.608335 
L 609.019577 295.01083 
L 605.349664 297.566556 
L 604.773049 293.608335 
z
" style="fill:#808080;stroke:#808080;stroke-linecap:round;"/>
   </g>
   <g id="patch_66">
    <path clip-path="url(#pba36388051)" d="M 434.994121 325.822796 
Q 484.221292 354.593117 532.483193 382.799296 
" style="fill:none;stroke:#808080;stroke-linecap:round;"/>
    <path clip-path="url(#pba36388051)" d="M 530.038909 379.054235 
L 532.483193 382.799296 
L 528.020575 382.507687 
L 530.038909 379.054235 
z
" style="fill:#808080;stroke:#808080;stroke-linecap:round;"/>
   </g>
   <g id="patch_67">
    <path clip-path="url(#pba36388051)" d="M 418.708458 297.170926 
Q 303.454558 360.18412 189.181648 422.660975 
" style="fill:none;stroke:#808080;stroke-linecap:round;"/>
    <path clip-path="url(#pba36388051)" d="M 193.650775 422.496954 
L 189.181648 422.660975 
L 191.731908 418.987261 
L 193.650775 422.496954 
z
" style="fill:#808080;stroke:#808080;stroke-linecap:round;"/>
   </g>
   <g id="patch_68">
    <path clip-path="url(#pba36388051)" d="M 424.295959 284.593696 
Q 398.571522 176.911627 373.106865 70.316992 
" style="fill:none;stroke:#808080;stroke-linecap:round;"/>
    <path clip-path="url(#pba36388051)" d="M 372.091019 74.672226 
L 373.106865 70.316992 
L 375.981544 73.742808 
L 372.091019 74.672226 
z
" style="fill:#808080;stroke:#808080;stroke-linecap:round;"/>
   </g>
   <g id="patch_69">
    <path clip-path="url(#pba36388051)" d="M 434.970885 293.04237 
Q 522.502706 293.308745 608.916497 293.571718 
" style="fill:none;stroke:#808080;stroke-linecap:round;"/>
    <path clip-path="url(#pba36388051)" d="M 604.922602 291.559555 
L 608.916497 293.571718 
L 604.910429 295.559536 
L 604.922602 291.559555 
z
" style="fill:#808080;stroke:#808080;stroke-linecap:round;"/>
   </g>
   <g id="patch_70">
    <path clip-path="url(#pba36388051)" d="M 432.985402 298.534067 
Q 483.617091 340.374903 533.386941 381.503535 
" style="fill:none;stroke:#808080;stroke-linecap:round;"/>
    <path clip-path="url(#pba36388051)" d="M 531.577561 377.413775 
L 533.386941 381.503535 
L 529.029504 380.497183 
L 531.577561 377.413775 
z
" style="fill:#808080;stroke:#808080;stroke-linecap:round;"/>
   </g>
   <g id="PathCollection_1">
    <defs>
     <path d="M 0 11.18034 
C 2.965061 11.18034 5.80908 10.002309 7.905694 7.905694 
C 10.002309 5.80908 11.18034 2.965061 11.18034 -0 
C 11.18034 -2.965061 10.002309 -5.80908 7.905694 -7.905694 
C 5.80908 -10.002309 2.965061 -11.18034 0 -11.18034 
C -2.965061 -11.18034 -5.80908 -10.002309 -7.905694 -7.905694 
C -10.002309 -5.80908 -11.18034 -2.965061 -11.18034 0 
C -11.18034 2.965061 -10.002309 5.80908 -7.905694 7.905694 
C -5.80908 10.002309 -2.965061 11.18034 0 11.18034 
z
" id="C0_0_c90a2a9890"/>
    </defs>
    <g clip-path="url(#pba36388051)">
     <use style="fill:#5f5f5f;stroke:#5f5f5f;" x="488.729632" xlink:href="#C0_0_c90a2a9890" y="264.480636"/>
    </g>
    <g clip-path="url(#pba36388051)">
     <use style="fill:#d9d9d9;stroke:#d9d9d9;" x="401.168927" xlink:href="#C0_0_c90a2a9890" y="274.455335"/>
    </g>
    <g clip-path="url(#pba36388051)">
     <use style="fill:#bebebe;stroke:#bebebe;" x="65.305785" xlink:href="#C0_0_c90a2a9890" y="227.134461"/>
    </g>
    <g clip-path="url(#pba36388051)">
     <use style="fill:#c9c9c9;stroke:#c9c9c9;" x="138.443866" xlink:href="#C0_0_c90a2a9890" y="222.036836"/>
    </g>
    <g clip-path="url(#pba36388051)">
     <use style="fill:#ededed;stroke:#ededed;" x="75.073372" xlink:href="#C0_0_c90a2a9890" y="316.032323"/>
    </g>
    <g clip-path="url(#pba36388051)">
     <use style="fill:#e4e4e4;stroke:#e4e4e4;" x="381.420783" xlink:href="#C0_0_c90a2a9890" y="246.578749"/>
    </g>
    <g clip-path="url(#pba36388051)">
     <use style="fill:#dcdcdc;stroke:#dcdcdc;" x="382.924381" xlink:href="#C0_0_c90a2a9890" y="321.070528"/>
    </g>
    <g clip-path="url(#pba36388051)">
     <use style="fill:#e4e4e4;stroke:#e4e4e4;" x="378.978038" xlink:href="#C0_0_c90a2a9890" y="295.410384"/>
    </g>
    <g clip-path="url(#pba36388051)">
     <use style="fill:#e4e4e4;stroke:#e4e4e4;" x="444.355506" xlink:href="#C0_0_c90a2a9890" y="260.512292"/>
    </g>
    <g clip-path="url(#pba36388051)">
     <use style="fill:#ededed;stroke:#ededed;" x="352.53552" xlink:href="#C0_0_c90a2a9890" y="263.799371"/>
    </g>
    <g clip-path="url(#pba36388051)">
     <use style="fill:#e4e4e4;stroke:#e4e4e4;" x="462.866426" xlink:href="#C0_0_c90a2a9890" y="296.710567"/>
    </g>
    <g clip-path="url(#pba36388051)">
     <use style="fill:#ededed;stroke:#ededed;" x="343.847192" xlink:href="#C0_0_c90a2a9890" y="292.07505"/>
    </g>
    <g clip-path="url(#pba36388051)">
     <use style="fill:#e4e4e4;stroke:#e4e4e4;" x="420.670376" xlink:href="#C0_0_c90a2a9890" y="240.913528"/>
    </g>
    <g clip-path="url(#pba36388051)">
     <use style="fill:#f3f3f3;stroke:#f3f3f3;" x="427.514834" xlink:href="#C0_0_c90a2a9890" y="321.451603"/>
    </g>
    <g clip-path="url(#pba36388051)">
     <use style="fill:#dcdcdc;stroke:#dcdcdc;" x="426.307986" xlink:href="#C0_0_c90a2a9890" y="293.016008"/>
    </g>
    <g clip-path="url(#pba36388051)">
     <use style="fill:#ececec;stroke:#ececec;" x="180.603657" xlink:href="#C0_0_c90a2a9890" y="427.350852"/>
    </g>
    <g clip-path="url(#pba36388051)">
     <use style="fill:#ededed;stroke:#ededed;" x="370.834616" xlink:href="#C0_0_c90a2a9890" y="60.805398"/>
    </g>
    <g clip-path="url(#pba36388051)">
     <use style="fill:#ededed;stroke:#ededed;" x="618.694215" xlink:href="#C0_0_c90a2a9890" y="293.601474"/>
    </g>
    <g clip-path="url(#pba36388051)">
     <use style="fill:#ededed;stroke:#ededed;" x="540.925885" xlink:href="#C0_0_c90a2a9890" y="387.733541"/>
    </g>
    <g clip-path="url(#pba36388051)">
     <use style="fill:#ededed;stroke:#ededed;" x="123.645771" xlink:href="#C0_0_c90a2a9890" y="114.543342"/>
    </g>
    <g clip-path="url(#pba36388051)">
     <use style="fill:#ededed;stroke:#ededed;" x="233.288917" xlink:href="#C0_0_c90a2a9890" y="71.228796"/>
    </g>
    <g clip-path="url(#pba36388051)">
     <use style="fill:#ededed;stroke:#ededed;" x="201.35613" xlink:href="#C0_0_c90a2a9890" y="401.954242"/>
    </g>
   </g>
   <g id="text_1">
    <g clip-path="url(#pba36388051)">
     <!-- RASD1 -->
     <g transform="translate(471.829632 267.240011)scale(0.1 -0.1)">
      <defs>
       <path d="M 44.390625 34.1875 
Q 47.5625 33.109375 50.5625 29.59375 
Q 53.5625 26.078125 56.59375 19.921875 
L 66.609375 0 
L 56 0 
L 46.6875 18.703125 
Q 43.0625 26.03125 39.671875 28.421875 
Q 36.28125 30.8125 30.421875 30.8125 
L 19.671875 30.8125 
L 19.671875 0 
L 9.8125 0 
L 9.8125 72.90625 
L 32.078125 72.90625 
Q 44.578125 72.90625 50.734375 67.671875 
Q 56.890625 62.453125 56.890625 51.90625 
Q 56.890625 45.015625 53.6875 40.46875 
Q 50.484375 35.9375 44.390625 34.1875 
z
M 19.671875 64.796875 
L 19.671875 38.921875 
L 32.078125 38.921875 
Q 39.203125 38.921875 42.84375 42.21875 
Q 46.484375 45.515625 46.484375 51.90625 
Q 46.484375 58.296875 42.84375 61.546875 
Q 39.203125 64.796875 32.078125 64.796875 
z
" id="DejaVuSans-82"/>
       <path d="M 34.1875 63.1875 
L 20.796875 26.90625 
L 47.609375 26.90625 
z
M 28.609375 72.90625 
L 39.796875 72.90625 
L 67.578125 0 
L 57.328125 0 
L 50.6875 18.703125 
L 17.828125 18.703125 
L 11.1875 0 
L 0.78125 0 
z
" id="DejaVuSans-65"/>
       <path d="M 53.515625 70.515625 
L 53.515625 60.890625 
Q 47.90625 63.578125 42.921875 64.890625 
Q 37.9375 66.21875 33.296875 66.21875 
Q 25.25 66.21875 20.875 63.09375 
Q 16.5 59.96875 16.5 54.203125 
Q 16.5 49.359375 19.40625 46.890625 
Q 22.3125 44.4375 30.421875 42.921875 
L 36.375 41.703125 
Q 47.40625 39.59375 52.65625 34.296875 
Q 57.90625 29 57.90625 20.125 
Q 57.90625 9.515625 50.796875 4.046875 
Q 43.703125 -1.421875 29.984375 -1.421875 
Q 24.8125 -1.421875 18.96875 -0.25 
Q 13.140625 0.921875 6.890625 3.21875 
L 6.890625 13.375 
Q 12.890625 10.015625 18.65625 8.296875 
Q 24.421875 6.59375 29.984375 6.59375 
Q 38.421875 6.59375 43.015625 9.90625 
Q 47.609375 13.234375 47.609375 19.390625 
Q 47.609375 24.75 44.3125 27.78125 
Q 41.015625 30.8125 33.5 32.328125 
L 27.484375 33.5 
Q 16.453125 35.6875 11.515625 40.375 
Q 6.59375 45.0625 6.59375 53.421875 
Q 6.59375 63.09375 13.40625 68.65625 
Q 20.21875 74.21875 32.171875 74.21875 
Q 37.3125 74.21875 42.625 73.28125 
Q 47.953125 72.359375 53.515625 70.515625 
z
" id="DejaVuSans-83"/>
       <path d="M 19.671875 64.796875 
L 19.671875 8.109375 
L 31.59375 8.109375 
Q 46.6875 8.109375 53.6875 14.9375 
Q 60.6875 21.78125 60.6875 36.53125 
Q 60.6875 51.171875 53.6875 57.984375 
Q 46.6875 64.796875 31.59375 64.796875 
z
M 9.8125 72.90625 
L 30.078125 72.90625 
Q 51.265625 72.90625 61.171875 64.09375 
Q 71.09375 55.28125 71.09375 36.53125 
Q 71.09375 17.671875 61.125 8.828125 
Q 51.171875 0 30.078125 0 
L 9.8125 0 
z
" id="DejaVuSans-68"/>
       <path d="M 12.40625 8.296875 
L 28.515625 8.296875 
L 28.515625 63.921875 
L 10.984375 60.40625 
L 10.984375 69.390625 
L 28.421875 72.90625 
L 38.28125 72.90625 
L 38.28125 8.296875 
L 54.390625 8.296875 
L 54.390625 0 
L 12.40625 0 
z
" id="DejaVuSans-49"/>
      </defs>
      <use xlink:href="#DejaVuSans-82"/>
      <use x="65.482422" xlink:href="#DejaVuSans-65"/>
      <use x="133.890625" xlink:href="#DejaVuSans-83"/>
      <use x="197.367188" xlink:href="#DejaVuSans-68"/>
      <use x="274.369141" xlink:href="#DejaVuSans-49"/>
     </g>
    </g>
   </g>
   <g id="text_2">
    <g clip-path="url(#pba36388051)">
     <!-- GNAS -->
     <g transform="translate(386.959552 277.21471)scale(0.1 -0.1)">
      <defs>
       <path d="M 59.515625 10.40625 
L 59.515625 29.984375 
L 43.40625 29.984375 
L 43.40625 38.09375 
L 69.28125 38.09375 
L 69.28125 6.78125 
Q 63.578125 2.734375 56.6875 0.65625 
Q 49.8125 -1.421875 42 -1.421875 
Q 24.90625 -1.421875 15.25 8.5625 
Q 5.609375 18.5625 5.609375 36.375 
Q 5.609375 54.25 15.25 64.234375 
Q 24.90625 74.21875 42 74.21875 
Q 49.125 74.21875 55.546875 72.453125 
Q 61.96875 70.703125 67.390625 67.28125 
L 67.390625 56.78125 
Q 61.921875 61.421875 55.765625 63.765625 
Q 49.609375 66.109375 42.828125 66.109375 
Q 29.4375 66.109375 22.71875 58.640625 
Q 16.015625 51.171875 16.015625 36.375 
Q 16.015625 21.625 22.71875 14.15625 
Q 29.4375 6.6875 42.828125 6.6875 
Q 48.046875 6.6875 52.140625 7.59375 
Q 56.25 8.5 59.515625 10.40625 
z
" id="DejaVuSans-71"/>
       <path d="M 9.8125 72.90625 
L 23.09375 72.90625 
L 55.421875 11.921875 
L 55.421875 72.90625 
L 64.984375 72.90625 
L 64.984375 0 
L 51.703125 0 
L 19.390625 60.984375 
L 19.390625 0 
L 9.8125 0 
z
" id="DejaVuSans-78"/>
      </defs>
      <use xlink:href="#DejaVuSans-71"/>
      <use x="77.490234" xlink:href="#DejaVuSans-78"/>
      <use x="152.294922" xlink:href="#DejaVuSans-65"/>
      <use x="220.703125" xlink:href="#DejaVuSans-83"/>
     </g>
    </g>
   </g>
   <g id="text_3">
    <g clip-path="url(#pba36388051)">
     <!-- RPS6KA5 -->
     <g transform="translate(42.668285 229.893836)scale(0.1 -0.1)">
      <defs>
       <path d="M 19.671875 64.796875 
L 19.671875 37.40625 
L 32.078125 37.40625 
Q 38.96875 37.40625 42.71875 40.96875 
Q 46.484375 44.53125 46.484375 51.125 
Q 46.484375 57.671875 42.71875 61.234375 
Q 38.96875 64.796875 32.078125 64.796875 
z
M 9.8125 72.90625 
L 32.078125 72.90625 
Q 44.34375 72.90625 50.609375 67.359375 
Q 56.890625 61.8125 56.890625 51.125 
Q 56.890625 40.328125 50.609375 34.8125 
Q 44.34375 29.296875 32.078125 29.296875 
L 19.671875 29.296875 
L 19.671875 0 
L 9.8125 0 
z
" id="DejaVuSans-80"/>
       <path d="M 33.015625 40.375 
Q 26.375 40.375 22.484375 35.828125 
Q 18.609375 31.296875 18.609375 23.390625 
Q 18.609375 15.53125 22.484375 10.953125 
Q 26.375 6.390625 33.015625 6.390625 
Q 39.65625 6.390625 43.53125 10.953125 
Q 47.40625 15.53125 47.40625 23.390625 
Q 47.40625 31.296875 43.53125 35.828125 
Q 39.65625 40.375 33.015625 40.375 
z
M 52.59375 71.296875 
L 52.59375 62.3125 
Q 48.875 64.0625 45.09375 64.984375 
Q 41.3125 65.921875 37.59375 65.921875 
Q 27.828125 65.921875 22.671875 59.328125 
Q 17.53125 52.734375 16.796875 39.40625 
Q 19.671875 43.65625 24.015625 45.921875 
Q 28.375 48.1875 33.59375 48.1875 
Q 44.578125 48.1875 50.953125 41.515625 
Q 57.328125 34.859375 57.328125 23.390625 
Q 57.328125 12.15625 50.6875 5.359375 
Q 44.046875 -1.421875 33.015625 -1.421875 
Q 20.359375 -1.421875 13.671875 8.265625 
Q 6.984375 17.96875 6.984375 36.375 
Q 6.984375 53.65625 15.1875 63.9375 
Q 23.390625 74.21875 37.203125 74.21875 
Q 40.921875 74.21875 44.703125 73.484375 
Q 48.484375 72.75 52.59375 71.296875 
z
" id="DejaVuSans-54"/>
       <path d="M 9.8125 72.90625 
L 19.671875 72.90625 
L 19.671875 42.09375 
L 52.390625 72.90625 
L 65.09375 72.90625 
L 28.90625 38.921875 
L 67.671875 0 
L 54.6875 0 
L 19.671875 35.109375 
L 19.671875 0 
L 9.8125 0 
z
" id="DejaVuSans-75"/>
       <path d="M 10.796875 72.90625 
L 49.515625 72.90625 
L 49.515625 64.59375 
L 19.828125 64.59375 
L 19.828125 46.734375 
Q 21.96875 47.46875 24.109375 47.828125 
Q 26.265625 48.1875 28.421875 48.1875 
Q 40.625 48.1875 47.75 41.5 
Q 54.890625 34.8125 54.890625 23.390625 
Q 54.890625 11.625 47.5625 5.09375 
Q 40.234375 -1.421875 26.90625 -1.421875 
Q 22.3125 -1.421875 17.546875 -0.640625 
Q 12.796875 0.140625 7.71875 1.703125 
L 7.71875 11.625 
Q 12.109375 9.234375 16.796875 8.0625 
Q 21.484375 6.890625 26.703125 6.890625 
Q 35.15625 6.890625 40.078125 11.328125 
Q 45.015625 15.765625 45.015625 23.390625 
Q 45.015625 31 40.078125 35.4375 
Q 35.15625 39.890625 26.703125 39.890625 
Q 22.75 39.890625 18.8125 39.015625 
Q 14.890625 38.140625 10.796875 36.28125 
z
" id="DejaVuSans-53"/>
      </defs>
      <use xlink:href="#DejaVuSans-82"/>
      <use x="69.482422" xlink:href="#DejaVuSans-80"/>
      <use x="129.785156" xlink:href="#DejaVuSans-83"/>
      <use x="193.261719" xlink:href="#DejaVuSans-54"/>
      <use x="256.884766" xlink:href="#DejaVuSans-75"/>
      <use x="320.710938" xlink:href="#DejaVuSans-65"/>
      <use x="389.119141" xlink:href="#DejaVuSans-53"/>
     </g>
    </g>
   </g>
   <g id="text_4">
    <g clip-path="url(#pba36388051)">
     <!-- CREB1 -->
     <g transform="translate(121.707147 224.796211)scale(0.1 -0.1)">
      <defs>
       <path d="M 64.40625 67.28125 
L 64.40625 56.890625 
Q 59.421875 61.53125 53.78125 63.8125 
Q 48.140625 66.109375 41.796875 66.109375 
Q 29.296875 66.109375 22.65625 58.46875 
Q 16.015625 50.828125 16.015625 36.375 
Q 16.015625 21.96875 22.65625 14.328125 
Q 29.296875 6.6875 41.796875 6.6875 
Q 48.140625 6.6875 53.78125 8.984375 
Q 59.421875 11.28125 64.40625 15.921875 
L 64.40625 5.609375 
Q 59.234375 2.09375 53.4375 0.328125 
Q 47.65625 -1.421875 41.21875 -1.421875 
Q 24.65625 -1.421875 15.125 8.703125 
Q 5.609375 18.84375 5.609375 36.375 
Q 5.609375 53.953125 15.125 64.078125 
Q 24.65625 74.21875 41.21875 74.21875 
Q 47.75 74.21875 53.53125 72.484375 
Q 59.328125 70.75 64.40625 67.28125 
z
" id="DejaVuSans-67"/>
       <path d="M 9.8125 72.90625 
L 55.90625 72.90625 
L 55.90625 64.59375 
L 19.671875 64.59375 
L 19.671875 43.015625 
L 54.390625 43.015625 
L 54.390625 34.71875 
L 19.671875 34.71875 
L 19.671875 8.296875 
L 56.78125 8.296875 
L 56.78125 0 
L 9.8125 0 
z
" id="DejaVuSans-69"/>
       <path d="M 19.671875 34.8125 
L 19.671875 8.109375 
L 35.5 8.109375 
Q 43.453125 8.109375 47.28125 11.40625 
Q 51.125 14.703125 51.125 21.484375 
Q 51.125 28.328125 47.28125 31.5625 
Q 43.453125 34.8125 35.5 34.8125 
z
M 19.671875 64.796875 
L 19.671875 42.828125 
L 34.28125 42.828125 
Q 41.5 42.828125 45.03125 45.53125 
Q 48.578125 48.25 48.578125 53.8125 
Q 48.578125 59.328125 45.03125 62.0625 
Q 41.5 64.796875 34.28125 64.796875 
z
M 9.8125 72.90625 
L 35.015625 72.90625 
Q 46.296875 72.90625 52.390625 68.21875 
Q 58.5 63.53125 58.5 54.890625 
Q 58.5 48.1875 55.375 44.234375 
Q 52.25 40.28125 46.1875 39.3125 
Q 53.46875 37.75 57.5 32.78125 
Q 61.53125 27.828125 61.53125 20.40625 
Q 61.53125 10.640625 54.890625 5.3125 
Q 48.25 0 35.984375 0 
L 9.8125 0 
z
" id="DejaVuSans-66"/>
      </defs>
      <use xlink:href="#DejaVuSans-67"/>
      <use x="69.824219" xlink:href="#DejaVuSans-82"/>
      <use x="139.306641" xlink:href="#DejaVuSans-69"/>
      <use x="202.490234" xlink:href="#DejaVuSans-66"/>
      <use x="271.09375" xlink:href="#DejaVuSans-49"/>
     </g>
    </g>
   </g>
   <g id="text_5">
    <g clip-path="url(#pba36388051)">
     <!-- FOS -->
     <g transform="translate(65.087434 318.791698)scale(0.1 -0.1)">
      <defs>
       <path d="M 9.8125 72.90625 
L 51.703125 72.90625 
L 51.703125 64.59375 
L 19.671875 64.59375 
L 19.671875 43.109375 
L 48.578125 43.109375 
L 48.578125 34.8125 
L 19.671875 34.8125 
L 19.671875 0 
L 9.8125 0 
z
" id="DejaVuSans-70"/>
       <path d="M 39.40625 66.21875 
Q 28.65625 66.21875 22.328125 58.203125 
Q 16.015625 50.203125 16.015625 36.375 
Q 16.015625 22.609375 22.328125 14.59375 
Q 28.65625 6.59375 39.40625 6.59375 
Q 50.140625 6.59375 56.421875 14.59375 
Q 62.703125 22.609375 62.703125 36.375 
Q 62.703125 50.203125 56.421875 58.203125 
Q 50.140625 66.21875 39.40625 66.21875 
z
M 39.40625 74.21875 
Q 54.734375 74.21875 63.90625 63.9375 
Q 73.09375 53.65625 73.09375 36.375 
Q 73.09375 19.140625 63.90625 8.859375 
Q 54.734375 -1.421875 39.40625 -1.421875 
Q 24.03125 -1.421875 14.8125 8.828125 
Q 5.609375 19.09375 5.609375 36.375 
Q 5.609375 53.65625 14.8125 63.9375 
Q 24.03125 74.21875 39.40625 74.21875 
z
" id="DejaVuSans-79"/>
      </defs>
      <use xlink:href="#DejaVuSans-70"/>
      <use x="57.519531" xlink:href="#DejaVuSans-79"/>
      <use x="136.230469" xlink:href="#DejaVuSans-83"/>
     </g>
    </g>
   </g>
   <g id="text_6">
    <g clip-path="url(#pba36388051)">
     <!-- GNB1 -->
     <g transform="translate(367.194221 249.338124)scale(0.1 -0.1)">
      <use xlink:href="#DejaVuSans-71"/>
      <use x="77.490234" xlink:href="#DejaVuSans-78"/>
      <use x="152.294922" xlink:href="#DejaVuSans-66"/>
      <use x="220.898438" xlink:href="#DejaVuSans-49"/>
     </g>
    </g>
   </g>
   <g id="text_7">
    <g clip-path="url(#pba36388051)">
     <!-- GNB2 -->
     <g transform="translate(368.697818 323.829903)scale(0.1 -0.1)">
      <defs>
       <path d="M 19.1875 8.296875 
L 53.609375 8.296875 
L 53.609375 0 
L 7.328125 0 
L 7.328125 8.296875 
Q 12.9375 14.109375 22.625 23.890625 
Q 32.328125 33.6875 34.8125 36.53125 
Q 39.546875 41.84375 41.421875 45.53125 
Q 43.3125 49.21875 43.3125 52.78125 
Q 43.3125 58.59375 39.234375 62.25 
Q 35.15625 65.921875 28.609375 65.921875 
Q 23.96875 65.921875 18.8125 64.3125 
Q 13.671875 62.703125 7.8125 59.421875 
L 7.8125 69.390625 
Q 13.765625 71.78125 18.9375 73 
Q 24.125 74.21875 28.421875 74.21875 
Q 39.75 74.21875 46.484375 68.546875 
Q 53.21875 62.890625 53.21875 53.421875 
Q 53.21875 48.921875 51.53125 44.890625 
Q 49.859375 40.875 45.40625 35.40625 
Q 44.1875 33.984375 37.640625 27.21875 
Q 31.109375 20.453125 19.1875 8.296875 
z
" id="DejaVuSans-50"/>
      </defs>
      <use xlink:href="#DejaVuSans-71"/>
      <use x="77.490234" xlink:href="#DejaVuSans-78"/>
      <use x="152.294922" xlink:href="#DejaVuSans-66"/>
      <use x="220.898438" xlink:href="#DejaVuSans-50"/>
     </g>
    </g>
   </g>
   <g id="text_8">
    <g clip-path="url(#pba36388051)">
     <!-- GNB4 -->
     <g transform="translate(364.751476 298.169759)scale(0.1 -0.1)">
      <defs>
       <path d="M 37.796875 64.3125 
L 12.890625 25.390625 
L 37.796875 25.390625 
z
M 35.203125 72.90625 
L 47.609375 72.90625 
L 47.609375 25.390625 
L 58.015625 25.390625 
L 58.015625 17.1875 
L 47.609375 17.1875 
L 47.609375 0 
L 37.796875 0 
L 37.796875 17.1875 
L 4.890625 17.1875 
L 4.890625 26.703125 
z
" id="DejaVuSans-52"/>
      </defs>
      <use xlink:href="#DejaVuSans-71"/>
      <use x="77.490234" xlink:href="#DejaVuSans-78"/>
      <use x="152.294922" xlink:href="#DejaVuSans-66"/>
      <use x="220.898438" xlink:href="#DejaVuSans-52"/>
     </g>
    </g>
   </g>
   <g id="text_9">
    <g clip-path="url(#pba36388051)">
     <!-- GNB5 -->
     <g transform="translate(430.128944 263.271667)scale(0.1 -0.1)">
      <use xlink:href="#DejaVuSans-71"/>
      <use x="77.490234" xlink:href="#DejaVuSans-78"/>
      <use x="152.294922" xlink:href="#DejaVuSans-66"/>
      <use x="220.898438" xlink:href="#DejaVuSans-53"/>
     </g>
    </g>
   </g>
   <g id="text_10">
    <g clip-path="url(#pba36388051)">
     <!-- GNG2 -->
     <g transform="translate(337.865207 266.558746)scale(0.1 -0.1)">
      <use xlink:href="#DejaVuSans-71"/>
      <use x="77.490234" xlink:href="#DejaVuSans-78"/>
      <use x="152.294922" xlink:href="#DejaVuSans-71"/>
      <use x="229.785156" xlink:href="#DejaVuSans-50"/>
     </g>
    </g>
   </g>
   <g id="text_11">
    <g clip-path="url(#pba36388051)">
     <!-- GNG5 -->
     <g transform="translate(448.196114 299.469942)scale(0.1 -0.1)">
      <use xlink:href="#DejaVuSans-71"/>
      <use x="77.490234" xlink:href="#DejaVuSans-78"/>
      <use x="152.294922" xlink:href="#DejaVuSans-71"/>
      <use x="229.785156" xlink:href="#DejaVuSans-53"/>
     </g>
    </g>
   </g>
   <g id="text_12">
    <g clip-path="url(#pba36388051)">
     <!-- GNG7 -->
     <g transform="translate(329.17688 294.834425)scale(0.1 -0.1)">
      <defs>
       <path d="M 8.203125 72.90625 
L 55.078125 72.90625 
L 55.078125 68.703125 
L 28.609375 0 
L 18.3125 0 
L 43.21875 64.59375 
L 8.203125 64.59375 
z
" id="DejaVuSans-55"/>
      </defs>
      <use xlink:href="#DejaVuSans-71"/>
      <use x="77.490234" xlink:href="#DejaVuSans-78"/>
      <use x="152.294922" xlink:href="#DejaVuSans-71"/>
      <use x="229.785156" xlink:href="#DejaVuSans-55"/>
     </g>
    </g>
   </g>
   <g id="text_13">
    <g clip-path="url(#pba36388051)">
     <!-- GNG10 -->
     <g transform="translate(402.818813 243.672903)scale(0.1 -0.1)">
      <defs>
       <path d="M 31.78125 66.40625 
Q 24.171875 66.40625 20.328125 58.90625 
Q 16.5 51.421875 16.5 36.375 
Q 16.5 21.390625 20.328125 13.890625 
Q 24.171875 6.390625 31.78125 6.390625 
Q 39.453125 6.390625 43.28125 13.890625 
Q 47.125 21.390625 47.125 36.375 
Q 47.125 51.421875 43.28125 58.90625 
Q 39.453125 66.40625 31.78125 66.40625 
z
M 31.78125 74.21875 
Q 44.046875 74.21875 50.515625 64.515625 
Q 56.984375 54.828125 56.984375 36.375 
Q 56.984375 17.96875 50.515625 8.265625 
Q 44.046875 -1.421875 31.78125 -1.421875 
Q 19.53125 -1.421875 13.0625 8.265625 
Q 6.59375 17.96875 6.59375 36.375 
Q 6.59375 54.828125 13.0625 64.515625 
Q 19.53125 74.21875 31.78125 74.21875 
z
" id="DejaVuSans-48"/>
      </defs>
      <use xlink:href="#DejaVuSans-71"/>
      <use x="77.490234" xlink:href="#DejaVuSans-78"/>
      <use x="152.294922" xlink:href="#DejaVuSans-71"/>
      <use x="229.785156" xlink:href="#DejaVuSans-49"/>
      <use x="293.408203" xlink:href="#DejaVuSans-48"/>
     </g>
    </g>
   </g>
   <g id="text_14">
    <g clip-path="url(#pba36388051)">
     <!-- GNG11 -->
     <g transform="translate(409.663272 324.210978)scale(0.1 -0.1)">
      <use xlink:href="#DejaVuSans-71"/>
      <use x="77.490234" xlink:href="#DejaVuSans-78"/>
      <use x="152.294922" xlink:href="#DejaVuSans-71"/>
      <use x="229.785156" xlink:href="#DejaVuSans-49"/>
      <use x="293.408203" xlink:href="#DejaVuSans-49"/>
     </g>
    </g>
   </g>
   <g id="text_15">
    <g clip-path="url(#pba36388051)">
     <!-- GNGT2 -->
     <g transform="translate(408.765017 295.775383)scale(0.1 -0.1)">
      <defs>
       <path d="M -0.296875 72.90625 
L 61.375 72.90625 
L 61.375 64.59375 
L 35.5 64.59375 
L 35.5 0 
L 25.59375 0 
L 25.59375 64.59375 
L -0.296875 64.59375 
z
" id="DejaVuSans-84"/>
      </defs>
      <use xlink:href="#DejaVuSans-71"/>
      <use x="77.490234" xlink:href="#DejaVuSans-78"/>
      <use x="152.294922" xlink:href="#DejaVuSans-71"/>
      <use x="226.160156" xlink:href="#DejaVuSans-84"/>
      <use x="287.244141" xlink:href="#DejaVuSans-50"/>
     </g>
    </g>
   </g>
   <g id="text_16">
    <g clip-path="url(#pba36388051)">
     <!-- ADCY3 -->
     <g transform="translate(163.694282 430.110227)scale(0.1 -0.1)">
      <defs>
       <path d="M -0.203125 72.90625 
L 10.40625 72.90625 
L 30.609375 42.921875 
L 50.6875 72.90625 
L 61.28125 72.90625 
L 35.5 34.71875 
L 35.5 0 
L 25.59375 0 
L 25.59375 34.71875 
z
" id="DejaVuSans-89"/>
       <path d="M 40.578125 39.3125 
Q 47.65625 37.796875 51.625 33 
Q 55.609375 28.21875 55.609375 21.1875 
Q 55.609375 10.40625 48.1875 4.484375 
Q 40.765625 -1.421875 27.09375 -1.421875 
Q 22.515625 -1.421875 17.65625 -0.515625 
Q 12.796875 0.390625 7.625 2.203125 
L 7.625 11.71875 
Q 11.71875 9.328125 16.59375 8.109375 
Q 21.484375 6.890625 26.8125 6.890625 
Q 36.078125 6.890625 40.9375 10.546875 
Q 45.796875 14.203125 45.796875 21.1875 
Q 45.796875 27.640625 41.28125 31.265625 
Q 36.765625 34.90625 28.71875 34.90625 
L 20.21875 34.90625 
L 20.21875 43.015625 
L 29.109375 43.015625 
Q 36.375 43.015625 40.234375 45.921875 
Q 44.09375 48.828125 44.09375 54.296875 
Q 44.09375 59.90625 40.109375 62.90625 
Q 36.140625 65.921875 28.71875 65.921875 
Q 24.65625 65.921875 20.015625 65.03125 
Q 15.375 64.15625 9.8125 62.3125 
L 9.8125 71.09375 
Q 15.4375 72.65625 20.34375 73.4375 
Q 25.25 74.21875 29.59375 74.21875 
Q 40.828125 74.21875 47.359375 69.109375 
Q 53.90625 64.015625 53.90625 55.328125 
Q 53.90625 49.265625 50.4375 45.09375 
Q 46.96875 40.921875 40.578125 39.3125 
z
" id="DejaVuSans-51"/>
      </defs>
      <use xlink:href="#DejaVuSans-65"/>
      <use x="68.408203" xlink:href="#DejaVuSans-68"/>
      <use x="145.410156" xlink:href="#DejaVuSans-67"/>
      <use x="213.484375" xlink:href="#DejaVuSans-89"/>
      <use x="274.568359" xlink:href="#DejaVuSans-51"/>
     </g>
    </g>
   </g>
   <g id="text_17">
    <g clip-path="url(#pba36388051)">
     <!-- ADCY4 -->
     <g transform="translate(353.925241 63.564773)scale(0.1 -0.1)">
      <use xlink:href="#DejaVuSans-65"/>
      <use x="68.408203" xlink:href="#DejaVuSans-68"/>
      <use x="145.410156" xlink:href="#DejaVuSans-67"/>
      <use x="213.484375" xlink:href="#DejaVuSans-89"/>
      <use x="274.568359" xlink:href="#DejaVuSans-52"/>
     </g>
    </g>
   </g>
   <g id="text_18">
    <g clip-path="url(#pba36388051)">
     <!-- ADCY7 -->
     <g transform="translate(601.78484 296.360849)scale(0.1 -0.1)">
      <use xlink:href="#DejaVuSans-65"/>
      <use x="68.408203" xlink:href="#DejaVuSans-68"/>
      <use x="145.410156" xlink:href="#DejaVuSans-67"/>
      <use x="213.484375" xlink:href="#DejaVuSans-89"/>
      <use x="274.568359" xlink:href="#DejaVuSans-55"/>
     </g>
    </g>
   </g>
   <g id="text_19">
    <g clip-path="url(#pba36388051)">
     <!-- ADCY9 -->
     <g transform="translate(524.01651 390.492916)scale(0.1 -0.1)">
      <defs>
       <path d="M 10.984375 1.515625 
L 10.984375 10.5 
Q 14.703125 8.734375 18.5 7.8125 
Q 22.3125 6.890625 25.984375 6.890625 
Q 35.75 6.890625 40.890625 13.453125 
Q 46.046875 20.015625 46.78125 33.40625 
Q 43.953125 29.203125 39.59375 26.953125 
Q 35.25 24.703125 29.984375 24.703125 
Q 19.046875 24.703125 12.671875 31.3125 
Q 6.296875 37.9375 6.296875 49.421875 
Q 6.296875 60.640625 12.9375 67.421875 
Q 19.578125 74.21875 30.609375 74.21875 
Q 43.265625 74.21875 49.921875 64.515625 
Q 56.59375 54.828125 56.59375 36.375 
Q 56.59375 19.140625 48.40625 8.859375 
Q 40.234375 -1.421875 26.421875 -1.421875 
Q 22.703125 -1.421875 18.890625 -0.6875 
Q 15.09375 0.046875 10.984375 1.515625 
z
M 30.609375 32.421875 
Q 37.25 32.421875 41.125 36.953125 
Q 45.015625 41.5 45.015625 49.421875 
Q 45.015625 57.28125 41.125 61.84375 
Q 37.25 66.40625 30.609375 66.40625 
Q 23.96875 66.40625 20.09375 61.84375 
Q 16.21875 57.28125 16.21875 49.421875 
Q 16.21875 41.5 20.09375 36.953125 
Q 23.96875 32.421875 30.609375 32.421875 
z
" id="DejaVuSans-57"/>
      </defs>
      <use xlink:href="#DejaVuSans-65"/>
      <use x="68.408203" xlink:href="#DejaVuSans-68"/>
      <use x="145.410156" xlink:href="#DejaVuSans-67"/>
      <use x="213.484375" xlink:href="#DejaVuSans-89"/>
      <use x="274.568359" xlink:href="#DejaVuSans-57"/>
     </g>
    </g>
   </g>
   <g id="text_20">
    <g clip-path="url(#pba36388051)">
     <!-- PER1 -->
     <g transform="translate(110.816084 117.302717)scale(0.1 -0.1)">
      <use xlink:href="#DejaVuSans-80"/>
      <use x="60.302734" xlink:href="#DejaVuSans-69"/>
      <use x="123.486328" xlink:href="#DejaVuSans-82"/>
      <use x="192.96875" xlink:href="#DejaVuSans-49"/>
     </g>
    </g>
   </g>
   <g id="text_21">
    <g clip-path="url(#pba36388051)">
     <!-- PER2 -->
     <g transform="translate(220.45923 73.988171)scale(0.1 -0.1)">
      <use xlink:href="#DejaVuSans-80"/>
      <use x="60.302734" xlink:href="#DejaVuSans-69"/>
      <use x="123.486328" xlink:href="#DejaVuSans-82"/>
      <use x="192.96875" xlink:href="#DejaVuSans-50"/>
     </g>
    </g>
   </g>
   <g id="text_22">
    <g clip-path="url(#pba36388051)">
     <!-- PER3 -->
     <g transform="translate(188.526442 404.713617)scale(0.1 -0.1)">
      <use xlink:href="#DejaVuSans-80"/>
      <use x="60.302734" xlink:href="#DejaVuSans-69"/>
      <use x="123.486328" xlink:href="#DejaVuSans-82"/>
      <use x="192.96875" xlink:href="#DejaVuSans-51"/>
     </g>
    </g>
   </g>
   <g id="text_23">
    <!-- Importance Score for Each Node in the Network -->
    <g transform="translate(198.616875 16.318125)scale(0.12 -0.12)">
     <defs>
      <path d="M 9.8125 72.90625 
L 19.671875 72.90625 
L 19.671875 0 
L 9.8125 0 
z
" id="DejaVuSans-73"/>
      <path d="M 52 44.1875 
Q 55.375 50.25 60.0625 53.125 
Q 64.75 56 71.09375 56 
Q 79.640625 56 84.28125 50.015625 
Q 88.921875 44.046875 88.921875 33.015625 
L 88.921875 0 
L 79.890625 0 
L 79.890625 32.71875 
Q 79.890625 40.578125 77.09375 44.375 
Q 74.3125 48.1875 68.609375 48.1875 
Q 61.625 48.1875 57.5625 43.546875 
Q 53.515625 38.921875 53.515625 30.90625 
L 53.515625 0 
L 44.484375 0 
L 44.484375 32.71875 
Q 44.484375 40.625 41.703125 44.40625 
Q 38.921875 48.1875 33.109375 48.1875 
Q 26.21875 48.1875 22.15625 43.53125 
Q 18.109375 38.875 18.109375 30.90625 
L 18.109375 0 
L 9.078125 0 
L 9.078125 54.6875 
L 18.109375 54.6875 
L 18.109375 46.1875 
Q 21.1875 51.21875 25.484375 53.609375 
Q 29.78125 56 35.6875 56 
Q 41.65625 56 45.828125 52.96875 
Q 50 49.953125 52 44.1875 
z
" id="DejaVuSans-109"/>
      <path d="M 18.109375 8.203125 
L 18.109375 -20.796875 
L 9.078125 -20.796875 
L 9.078125 54.6875 
L 18.109375 54.6875 
L 18.109375 46.390625 
Q 20.953125 51.265625 25.265625 53.625 
Q 29.59375 56 35.59375 56 
Q 45.5625 56 51.78125 48.09375 
Q 58.015625 40.1875 58.015625 27.296875 
Q 58.015625 14.40625 51.78125 6.484375 
Q 45.5625 -1.421875 35.59375 -1.421875 
Q 29.59375 -1.421875 25.265625 0.953125 
Q 20.953125 3.328125 18.109375 8.203125 
z
M 48.6875 27.296875 
Q 48.6875 37.203125 44.609375 42.84375 
Q 40.53125 48.484375 33.40625 48.484375 
Q 26.265625 48.484375 22.1875 42.84375 
Q 18.109375 37.203125 18.109375 27.296875 
Q 18.109375 17.390625 22.1875 11.75 
Q 26.265625 6.109375 33.40625 6.109375 
Q 40.53125 6.109375 44.609375 11.75 
Q 48.6875 17.390625 48.6875 27.296875 
z
" id="DejaVuSans-112"/>
      <path d="M 30.609375 48.390625 
Q 23.390625 48.390625 19.1875 42.75 
Q 14.984375 37.109375 14.984375 27.296875 
Q 14.984375 17.484375 19.15625 11.84375 
Q 23.34375 6.203125 30.609375 6.203125 
Q 37.796875 6.203125 41.984375 11.859375 
Q 46.1875 17.53125 46.1875 27.296875 
Q 46.1875 37.015625 41.984375 42.703125 
Q 37.796875 48.390625 30.609375 48.390625 
z
M 30.609375 56 
Q 42.328125 56 49.015625 48.375 
Q 55.71875 40.765625 55.71875 27.296875 
Q 55.71875 13.875 49.015625 6.21875 
Q 42.328125 -1.421875 30.609375 -1.421875 
Q 18.84375 -1.421875 12.171875 6.21875 
Q 5.515625 13.875 5.515625 27.296875 
Q 5.515625 40.765625 12.171875 48.375 
Q 18.84375 56 30.609375 56 
z
" id="DejaVuSans-111"/>
      <path d="M 41.109375 46.296875 
Q 39.59375 47.171875 37.8125 47.578125 
Q 36.03125 48 33.890625 48 
Q 26.265625 48 22.1875 43.046875 
Q 18.109375 38.09375 18.109375 28.8125 
L 18.109375 0 
L 9.078125 0 
L 9.078125 54.6875 
L 18.109375 54.6875 
L 18.109375 46.1875 
Q 20.953125 51.171875 25.484375 53.578125 
Q 30.03125 56 36.53125 56 
Q 37.453125 56 38.578125 55.875 
Q 39.703125 55.765625 41.0625 55.515625 
z
" id="DejaVuSans-114"/>
      <path d="M 18.3125 70.21875 
L 18.3125 54.6875 
L 36.8125 54.6875 
L 36.8125 47.703125 
L 18.3125 47.703125 
L 18.3125 18.015625 
Q 18.3125 11.328125 20.140625 9.421875 
Q 21.96875 7.515625 27.59375 7.515625 
L 36.8125 7.515625 
L 36.8125 0 
L 27.59375 0 
Q 17.1875 0 13.234375 3.875 
Q 9.28125 7.765625 9.28125 18.015625 
L 9.28125 47.703125 
L 2.6875 47.703125 
L 2.6875 54.6875 
L 9.28125 54.6875 
L 9.28125 70.21875 
z
" id="DejaVuSans-116"/>
      <path d="M 34.28125 27.484375 
Q 23.390625 27.484375 19.1875 25 
Q 14.984375 22.515625 14.984375 16.5 
Q 14.984375 11.71875 18.140625 8.90625 
Q 21.296875 6.109375 26.703125 6.109375 
Q 34.1875 6.109375 38.703125 11.40625 
Q 43.21875 16.703125 43.21875 25.484375 
L 43.21875 27.484375 
z
M 52.203125 31.203125 
L 52.203125 0 
L 43.21875 0 
L 43.21875 8.296875 
Q 40.140625 3.328125 35.546875 0.953125 
Q 30.953125 -1.421875 24.3125 -1.421875 
Q 15.921875 -1.421875 10.953125 3.296875 
Q 6 8.015625 6 15.921875 
Q 6 25.140625 12.171875 29.828125 
Q 18.359375 34.515625 30.609375 34.515625 
L 43.21875 34.515625 
L 43.21875 35.40625 
Q 43.21875 41.609375 39.140625 45 
Q 35.0625 48.390625 27.6875 48.390625 
Q 23 48.390625 18.546875 47.265625 
Q 14.109375 46.140625 10.015625 43.890625 
L 10.015625 52.203125 
Q 14.9375 54.109375 19.578125 55.046875 
Q 24.21875 56 28.609375 56 
Q 40.484375 56 46.34375 49.84375 
Q 52.203125 43.703125 52.203125 31.203125 
z
" id="DejaVuSans-97"/>
      <path d="M 54.890625 33.015625 
L 54.890625 0 
L 45.90625 0 
L 45.90625 32.71875 
Q 45.90625 40.484375 42.875 44.328125 
Q 39.84375 48.1875 33.796875 48.1875 
Q 26.515625 48.1875 22.3125 43.546875 
Q 18.109375 38.921875 18.109375 30.90625 
L 18.109375 0 
L 9.078125 0 
L 9.078125 54.6875 
L 18.109375 54.6875 
L 18.109375 46.1875 
Q 21.34375 51.125 25.703125 53.5625 
Q 30.078125 56 35.796875 56 
Q 45.21875 56 50.046875 50.171875 
Q 54.890625 44.34375 54.890625 33.015625 
z
" id="DejaVuSans-110"/>
      <path d="M 48.78125 52.59375 
L 48.78125 44.1875 
Q 44.96875 46.296875 41.140625 47.34375 
Q 37.3125 48.390625 33.40625 48.390625 
Q 24.65625 48.390625 19.8125 42.84375 
Q 14.984375 37.3125 14.984375 27.296875 
Q 14.984375 17.28125 19.8125 11.734375 
Q 24.65625 6.203125 33.40625 6.203125 
Q 37.3125 6.203125 41.140625 7.25 
Q 44.96875 8.296875 48.78125 10.40625 
L 48.78125 2.09375 
Q 45.015625 0.34375 40.984375 -0.53125 
Q 36.96875 -1.421875 32.421875 -1.421875 
Q 20.0625 -1.421875 12.78125 6.34375 
Q 5.515625 14.109375 5.515625 27.296875 
Q 5.515625 40.671875 12.859375 48.328125 
Q 20.21875 56 33.015625 56 
Q 37.15625 56 41.109375 55.140625 
Q 45.0625 54.296875 48.78125 52.59375 
z
" id="DejaVuSans-99"/>
      <path d="M 56.203125 29.59375 
L 56.203125 25.203125 
L 14.890625 25.203125 
Q 15.484375 15.921875 20.484375 11.0625 
Q 25.484375 6.203125 34.421875 6.203125 
Q 39.59375 6.203125 44.453125 7.46875 
Q 49.3125 8.734375 54.109375 11.28125 
L 54.109375 2.78125 
Q 49.265625 0.734375 44.1875 -0.34375 
Q 39.109375 -1.421875 33.890625 -1.421875 
Q 20.796875 -1.421875 13.15625 6.1875 
Q 5.515625 13.8125 5.515625 26.8125 
Q 5.515625 40.234375 12.765625 48.109375 
Q 20.015625 56 32.328125 56 
Q 43.359375 56 49.78125 48.890625 
Q 56.203125 41.796875 56.203125 29.59375 
z
M 47.21875 32.234375 
Q 47.125 39.59375 43.09375 43.984375 
Q 39.0625 48.390625 32.421875 48.390625 
Q 24.90625 48.390625 20.390625 44.140625 
Q 15.875 39.890625 15.1875 32.171875 
z
" id="DejaVuSans-101"/>
      <path id="DejaVuSans-32"/>
      <path d="M 37.109375 75.984375 
L 37.109375 68.5 
L 28.515625 68.5 
Q 23.6875 68.5 21.796875 66.546875 
Q 19.921875 64.59375 19.921875 59.515625 
L 19.921875 54.6875 
L 34.71875 54.6875 
L 34.71875 47.703125 
L 19.921875 47.703125 
L 19.921875 0 
L 10.890625 0 
L 10.890625 47.703125 
L 2.296875 47.703125 
L 2.296875 54.6875 
L 10.890625 54.6875 
L 10.890625 58.5 
Q 10.890625 67.625 15.140625 71.796875 
Q 19.390625 75.984375 28.609375 75.984375 
z
" id="DejaVuSans-102"/>
      <path d="M 54.890625 33.015625 
L 54.890625 0 
L 45.90625 0 
L 45.90625 32.71875 
Q 45.90625 40.484375 42.875 44.328125 
Q 39.84375 48.1875 33.796875 48.1875 
Q 26.515625 48.1875 22.3125 43.546875 
Q 18.109375 38.921875 18.109375 30.90625 
L 18.109375 0 
L 9.078125 0 
L 9.078125 75.984375 
L 18.109375 75.984375 
L 18.109375 46.1875 
Q 21.34375 51.125 25.703125 53.5625 
Q 30.078125 56 35.796875 56 
Q 45.21875 56 50.046875 50.171875 
Q 54.890625 44.34375 54.890625 33.015625 
z
" id="DejaVuSans-104"/>
      <path d="M 45.40625 46.390625 
L 45.40625 75.984375 
L 54.390625 75.984375 
L 54.390625 0 
L 45.40625 0 
L 45.40625 8.203125 
Q 42.578125 3.328125 38.25 0.953125 
Q 33.9375 -1.421875 27.875 -1.421875 
Q 17.96875 -1.421875 11.734375 6.484375 
Q 5.515625 14.40625 5.515625 27.296875 
Q 5.515625 40.1875 11.734375 48.09375 
Q 17.96875 56 27.875 56 
Q 33.9375 56 38.25 53.625 
Q 42.578125 51.265625 45.40625 46.390625 
z
M 14.796875 27.296875 
Q 14.796875 17.390625 18.875 11.75 
Q 22.953125 6.109375 30.078125 6.109375 
Q 37.203125 6.109375 41.296875 11.75 
Q 45.40625 17.390625 45.40625 27.296875 
Q 45.40625 37.203125 41.296875 42.84375 
Q 37.203125 48.484375 30.078125 48.484375 
Q 22.953125 48.484375 18.875 42.84375 
Q 14.796875 37.203125 14.796875 27.296875 
z
" id="DejaVuSans-100"/>
      <path d="M 9.421875 54.6875 
L 18.40625 54.6875 
L 18.40625 0 
L 9.421875 0 
z
M 9.421875 75.984375 
L 18.40625 75.984375 
L 18.40625 64.59375 
L 9.421875 64.59375 
z
" id="DejaVuSans-105"/>
      <path d="M 4.203125 54.6875 
L 13.1875 54.6875 
L 24.421875 12.015625 
L 35.59375 54.6875 
L 46.1875 54.6875 
L 57.421875 12.015625 
L 68.609375 54.6875 
L 77.59375 54.6875 
L 63.28125 0 
L 52.6875 0 
L 40.921875 44.828125 
L 29.109375 0 
L 18.5 0 
z
" id="DejaVuSans-119"/>
      <path d="M 9.078125 75.984375 
L 18.109375 75.984375 
L 18.109375 31.109375 
L 44.921875 54.6875 
L 56.390625 54.6875 
L 27.390625 29.109375 
L 57.625 0 
L 45.90625 0 
L 18.109375 26.703125 
L 18.109375 0 
L 9.078125 0 
z
" id="DejaVuSans-107"/>
     </defs>
     <use xlink:href="#DejaVuSans-73"/>
     <use x="29.492188" xlink:href="#DejaVuSans-109"/>
     <use x="126.904297" xlink:href="#DejaVuSans-112"/>
     <use x="190.380859" xlink:href="#DejaVuSans-111"/>
     <use x="251.5625" xlink:href="#DejaVuSans-114"/>
     <use x="292.675781" xlink:href="#DejaVuSans-116"/>
     <use x="331.884766" xlink:href="#DejaVuSans-97"/>
     <use x="393.164062" xlink:href="#DejaVuSans-110"/>
     <use x="456.542969" xlink:href="#DejaVuSans-99"/>
     <use x="511.523438" xlink:href="#DejaVuSans-101"/>
     <use x="573.046875" xlink:href="#DejaVuSans-32"/>
     <use x="604.833984" xlink:href="#DejaVuSans-83"/>
     <use x="668.310547" xlink:href="#DejaVuSans-99"/>
     <use x="723.291016" xlink:href="#DejaVuSans-111"/>
     <use x="784.472656" xlink:href="#DejaVuSans-114"/>
     <use x="823.335938" xlink:href="#DejaVuSans-101"/>
     <use x="884.859375" xlink:href="#DejaVuSans-32"/>
     <use x="916.646484" xlink:href="#DejaVuSans-102"/>
     <use x="951.851562" xlink:href="#DejaVuSans-111"/>
     <use x="1013.033203" xlink:href="#DejaVuSans-114"/>
     <use x="1054.146484" xlink:href="#DejaVuSans-32"/>
     <use x="1085.933594" xlink:href="#DejaVuSans-69"/>
     <use x="1149.117188" xlink:href="#DejaVuSans-97"/>
     <use x="1210.396484" xlink:href="#DejaVuSans-99"/>
     <use x="1265.376953" xlink:href="#DejaVuSans-104"/>
     <use x="1328.755859" xlink:href="#DejaVuSans-32"/>
     <use x="1360.542969" xlink:href="#DejaVuSans-78"/>
     <use x="1435.347656" xlink:href="#DejaVuSans-111"/>
     <use x="1496.529297" xlink:href="#DejaVuSans-100"/>
     <use x="1560.005859" xlink:href="#DejaVuSans-101"/>
     <use x="1621.529297" xlink:href="#DejaVuSans-32"/>
     <use x="1653.316406" xlink:href="#DejaVuSans-105"/>
     <use x="1681.099609" xlink:href="#DejaVuSans-110"/>
     <use x="1744.478516" xlink:href="#DejaVuSans-32"/>
     <use x="1776.265625" xlink:href="#DejaVuSans-116"/>
     <use x="1815.474609" xlink:href="#DejaVuSans-104"/>
     <use x="1878.853516" xlink:href="#DejaVuSans-101"/>
     <use x="1940.376953" xlink:href="#DejaVuSans-32"/>
     <use x="1972.164062" xlink:href="#DejaVuSans-78"/>
     <use x="2046.96875" xlink:href="#DejaVuSans-101"/>
     <use x="2108.492188" xlink:href="#DejaVuSans-116"/>
     <use x="2147.701172" xlink:href="#DejaVuSans-119"/>
     <use x="2229.488281" xlink:href="#DejaVuSans-111"/>
     <use x="2290.669922" xlink:href="#DejaVuSans-114"/>
     <use x="2331.783203" xlink:href="#DejaVuSans-107"/>
    </g>
   </g>
  </g>
 </g>
 <defs>
  <clipPath id="pba36388051">
   <rect height="443.52" width="669.6" x="7.2" y="22.318125"/>
  </clipPath>
 </defs>
</svg>
