<?xml version="1.0" encoding="utf-8" standalone="no"?>
<!DOCTYPE svg PUBLIC "-//W3C//DTD SVG 1.1//EN"
  "http://www.w3.org/Graphics/SVG/1.1/DTD/svg11.dtd">
<!-- Created with matplotlib (https://matplotlib.org/) -->
<svg height="473.038125pt" version="1.1" viewBox="0 0 684 473.038125" width="684pt" xmlns="http://www.w3.org/2000/svg" xmlns:xlink="http://www.w3.org/1999/xlink">
 <metadata>
  <rdf:RDF xmlns:cc="http://creativecommons.org/ns#" xmlns:dc="http://purl.org/dc/elements/1.1/" xmlns:rdf="http://www.w3.org/1999/02/22-rdf-syntax-ns#">
   <cc:Work>
    <dc:type rdf:resource="http://purl.org/dc/dcmitype/StillImage"/>
    <dc:date>2024-04-26T10:51:17.667245</dc:date>
    <dc:format>image/svg+xml</dc:format>
    <dc:creator>
     <cc:Agent>
      <dc:title>Matplotlib v3.3.1, https://matplotlib.org/</dc:title>
     </cc:Agent>
    </dc:creator>
   </cc:Work>
  </rdf:RDF>
 </metadata>
 <defs>
  <style type="text/css">*{stroke-linecap:butt;stroke-linejoin:round;}</style>
 </defs>
 <g id="figure_1">
  <g id="patch_1">
   <path d="M 0 473.038125 
L 684 473.038125 
L 684 0 
L 0 0 
z
" style="fill:#ffffff;"/>
  </g>
  <g id="axes_1">
   <g id="patch_2">
    <path clip-path="url(#pca0c2e8cdc)" d="M 271.305029 337.399654 
Q 379.543553 380.76457 486.744237 423.713684 
" style="fill:none;stroke:#808080;stroke-linecap:round;"/>
    <path clip-path="url(#pca0c2e8cdc)" d="M 483.774962 420.369524 
L 486.744237 423.713684 
L 482.287344 424.082608 
L 483.774962 420.369524 
z
" style="fill:#808080;stroke:#808080;stroke-linecap:round;"/>
   </g>
   <g id="patch_3">
    <path clip-path="url(#pca0c2e8cdc)" d="M 256.874292 328.339076 
Q 174.609534 253.1886 93.170232 178.792194 
" style="fill:none;stroke:#808080;stroke-linecap:round;"/>
    <path clip-path="url(#pca0c2e8cdc)" d="M 94.774552 182.966659 
L 93.170232 178.792194 
L 97.472396 180.013418 
L 94.774552 182.966659 
z
" style="fill:#808080;stroke:#808080;stroke-linecap:round;"/>
   </g>
   <g id="patch_4">
    <path clip-path="url(#pca0c2e8cdc)" d="M 414.850199 211.381318 
Q 448.909479 160.479578 482.34701 110.507046 
" style="fill:none;stroke:#808080;stroke-linecap:round;"/>
    <path clip-path="url(#pca0c2e8cdc)" d="M 478.460352 112.719261 
L 482.34701 110.507046 
L 481.784787 114.943701 
L 478.460352 112.719261 
z
" style="fill:#808080;stroke:#808080;stroke-linecap:round;"/>
   </g>
   <g id="patch_5">
    <path clip-path="url(#pca0c2e8cdc)" d="M 404.628658 211.814255 
Q 354.36941 148.967321 304.808437 86.993549 
" style="fill:none;stroke:#808080;stroke-linecap:round;"/>
    <path clip-path="url(#pca0c2e8cdc)" d="M 305.744704 91.366581 
L 304.808437 86.993549 
L 308.868622 88.868356 
L 305.744704 91.366581 
z
" style="fill:#808080;stroke:#808080;stroke-linecap:round;"/>
   </g>
   <g id="patch_6">
    <path clip-path="url(#pca0c2e8cdc)" d="M 417.607884 214.372743 
Q 495.621799 171.06544 572.658197 128.300778 
" style="fill:none;stroke:#808080;stroke-linecap:round;"/>
    <path clip-path="url(#pca0c2e8cdc)" d="M 568.190218 128.493558 
L 572.658197 128.300778 
L 570.131633 131.990829 
L 568.190218 128.493558 
z
" style="fill:#808080;stroke:#808080;stroke-linecap:round;"/>
   </g>
   <g id="patch_7">
    <path clip-path="url(#pca0c2e8cdc)" d="M 401.496216 220.016307 
Q 237.670325 247.646336 74.9469 275.090429 
" style="fill:none;stroke:#808080;stroke-linecap:round;"/>
    <path clip-path="url(#pca0c2e8cdc)" d="M 79.223809 276.397353 
L 74.9469 275.090429 
L 78.558584 272.453056 
L 79.223809 276.397353 
z
" style="fill:#808080;stroke:#808080;stroke-linecap:round;"/>
   </g>
   <g id="patch_8">
    <path clip-path="url(#pca0c2e8cdc)" d="M 332.834877 175.419791 
Q 406.392451 140.747442 478.938709 106.55179 
" style="fill:none;stroke:#808080;stroke-linecap:round;"/>
    <path clip-path="url(#pca0c2e8cdc)" d="M 474.467773 106.448177 
L 478.938709 106.55179 
L 476.173257 110.066371 
L 474.467773 106.448177 
z
" style="fill:#808080;stroke:#808080;stroke-linecap:round;"/>
   </g>
   <g id="patch_9">
    <path clip-path="url(#pca0c2e8cdc)" d="M 322.795145 170.73639 
Q 311.851789 129.233244 301.193488 88.811183 
" style="fill:none;stroke:#808080;stroke-linecap:round;"/>
    <path clip-path="url(#pca0c2e8cdc)" d="M 300.279431 93.18891 
L 301.193488 88.811183 
L 304.147236 92.169065 
L 300.279431 93.18891 
z
" style="fill:#808080;stroke:#808080;stroke-linecap:round;"/>
   </g>
   <g id="patch_10">
    <path clip-path="url(#pca0c2e8cdc)" d="M 333.467153 177.275953 
Q 453.105165 151.3332 571.650536 125.627379 
" style="fill:none;stroke:#808080;stroke-linecap:round;"/>
    <path clip-path="url(#pca0c2e8cdc)" d="M 567.31755 124.520479 
L 571.650536 125.627379 
L 568.165224 128.429628 
L 567.31755 124.520479 
z
" style="fill:#808080;stroke:#808080;stroke-linecap:round;"/>
   </g>
   <g id="patch_11">
    <path clip-path="url(#pca0c2e8cdc)" d="M 316.899731 182.15696 
Q 195.154842 227.913762 74.456512 273.277225 
" style="fill:none;stroke:#808080;stroke-linecap:round;"/>
    <path clip-path="url(#pca0c2e8cdc)" d="M 78.90442 273.742109 
L 74.456512 273.277225 
L 77.497164 269.997829 
L 78.90442 273.742109 
z
" style="fill:#808080;stroke:#808080;stroke-linecap:round;"/>
   </g>
   <g id="patch_12">
    <path clip-path="url(#pca0c2e8cdc)" d="M 322.571889 250.649843 
Q 355.13162 159.804861 387.314133 70.012356 
" style="fill:none;stroke:#808080;stroke-linecap:round;"/>
    <path clip-path="url(#pca0c2e8cdc)" d="M 384.08183 73.103022 
L 387.314133 70.012356 
L 387.847284 74.452598 
L 384.08183 73.103022 
z
" style="fill:#808080;stroke:#808080;stroke-linecap:round;"/>
   </g>
   <g id="patch_13">
    <path clip-path="url(#pca0c2e8cdc)" d="M 328.263765 259.707478 
Q 468.766851 274.441428 608.158001 289.058774 
" style="fill:none;stroke:#808080;stroke-linecap:round;"/>
    <path clip-path="url(#pca0c2e8cdc)" d="M 604.388402 286.652506 
L 608.158001 289.058774 
L 603.971227 290.630692 
L 604.388402 286.652506 
z
" style="fill:#808080;stroke:#808080;stroke-linecap:round;"/>
   </g>
   <g id="patch_14">
    <path clip-path="url(#pca0c2e8cdc)" d="M 312.175512 263.177425 
Q 231.839515 310.186138 152.468488 356.630197 
" style="fill:none;stroke:#808080;stroke-linecap:round;"/>
    <path clip-path="url(#pca0c2e8cdc)" d="M 156.930951 356.336223 
L 152.468488 356.630197 
L 154.910786 352.883842 
L 156.930951 356.336223 
z
" style="fill:#808080;stroke:#808080;stroke-linecap:round;"/>
   </g>
   <g id="patch_15">
    <path clip-path="url(#pca0c2e8cdc)" d="M 327.967781 261.222596 
Q 469.172123 302.275802 609.302884 343.01688 
" style="fill:none;stroke:#808080;stroke-linecap:round;"/>
    <path clip-path="url(#pca0c2e8cdc)" d="M 606.020278 339.979695 
L 609.302884 343.01688 
L 604.903572 343.820654 
L 606.020278 339.979695 
z
" style="fill:#808080;stroke:#808080;stroke-linecap:round;"/>
   </g>
   <g id="patch_16">
    <path clip-path="url(#pca0c2e8cdc)" d="M 311.082275 257.53822 
Q 199.93895 241.115273 89.90165 224.855756 
" style="fill:none;stroke:#808080;stroke-linecap:round;"/>
    <path clip-path="url(#pca0c2e8cdc)" d="M 93.566331 227.418979 
L 89.90165 224.855756 
L 94.151037 223.461945 
L 93.566331 227.418979 
z
" style="fill:#808080;stroke:#808080;stroke-linecap:round;"/>
   </g>
   <g id="patch_17">
    <path clip-path="url(#pca0c2e8cdc)" d="M 326.677037 263.869837 
Q 403.727167 319.409095 479.870328 374.294591 
" style="fill:none;stroke:#808080;stroke-linecap:round;"/>
    <path clip-path="url(#pca0c2e8cdc)" d="M 477.794937 370.333182 
L 479.870328 374.294591 
L 475.455967 373.578058 
L 477.794937 370.333182 
z
" style="fill:#808080;stroke:#808080;stroke-linecap:round;"/>
   </g>
   <g id="patch_18">
    <path clip-path="url(#pca0c2e8cdc)" d="M 313.942253 252.292119 
Q 250.514256 179.918124 187.823152 108.384955 
" style="fill:none;stroke:#808080;stroke-linecap:round;"/>
    <path clip-path="url(#pca0c2e8cdc)" d="M 188.955426 112.711381 
L 187.823152 108.384955 
L 191.963657 110.074991 
L 188.955426 112.711381 
z
" style="fill:#808080;stroke:#808080;stroke-linecap:round;"/>
   </g>
   <g id="patch_19">
    <path clip-path="url(#pca0c2e8cdc)" d="M 311.354906 261.288948 
Q 199.443018 294.815381 88.602136 328.020963 
" style="fill:none;stroke:#808080;stroke-linecap:round;"/>
    <path clip-path="url(#pca0c2e8cdc)" d="M 93.00784 328.788926 
L 88.602136 328.020963 
L 91.859929 324.957177 
L 93.00784 328.788926 
z
" style="fill:#808080;stroke:#808080;stroke-linecap:round;"/>
   </g>
   <g id="patch_20">
    <path clip-path="url(#pca0c2e8cdc)" d="M 175.927111 275.104869 
Q 216.011061 302.216519 255.16892 328.701786 
" style="fill:none;stroke:#808080;stroke-linecap:round;"/>
    <path clip-path="url(#pca0c2e8cdc)" d="M 252.97614 324.80413 
L 255.16892 328.701786 
L 250.735128 328.117416 
L 252.97614 324.80413 
z
" style="fill:#808080;stroke:#808080;stroke-linecap:round;"/>
   </g>
   <g id="patch_21">
    <path clip-path="url(#pca0c2e8cdc)" d="M 530.282501 284.438213 
Q 401.030712 308.516112 272.878048 332.389258 
" style="fill:none;stroke:#808080;stroke-linecap:round;"/>
    <path clip-path="url(#pca0c2e8cdc)" d="M 277.176671 333.622889 
L 272.878048 332.389258 
L 276.444126 329.690538 
L 277.176671 333.622889 
z
" style="fill:#808080;stroke:#808080;stroke-linecap:round;"/>
   </g>
   <g id="patch_22">
    <path clip-path="url(#pca0c2e8cdc)" d="M 187.886855 402.287071 
Q 222.364695 371.135901 256.012957 340.734265 
" style="fill:none;stroke:#808080;stroke-linecap:round;"/>
    <path clip-path="url(#pca0c2e8cdc)" d="M 251.704163 341.931886 
L 256.012957 340.734265 
L 254.385777 344.899873 
L 251.704163 341.931886 
z
" style="fill:#808080;stroke:#808080;stroke-linecap:round;"/>
   </g>
   <g id="patch_23">
    <path clip-path="url(#pca0c2e8cdc)" d="M 470.456832 293.018928 
Q 372.171371 355.334591 274.830151 417.05158 
" style="fill:none;stroke:#808080;stroke-linecap:round;"/>
    <path clip-path="url(#pca0c2e8cdc)" d="M 279.279307 416.598807 
L 274.830151 417.05158 
L 277.137426 413.22059 
L 279.279307 416.598807 
z
" style="fill:#808080;stroke:#808080;stroke-linecap:round;"/>
   </g>
   <g id="patch_24">
    <path clip-path="url(#pca0c2e8cdc)" d="M 361.969707 230.013385 
Q 375.569145 149.678578 388.981971 70.446121 
" style="fill:none;stroke:#808080;stroke-linecap:round;"/>
    <path clip-path="url(#pca0c2e8cdc)" d="M 386.342388 74.05619 
L 388.981971 70.446121 
L 390.286277 74.723829 
L 386.342388 74.05619 
z
" style="fill:#808080;stroke:#808080;stroke-linecap:round;"/>
   </g>
   <g id="patch_25">
    <path clip-path="url(#pca0c2e8cdc)" d="M 369.017956 240.254753 
Q 489.203127 264.316333 608.292017 288.158434 
" style="fill:none;stroke:#808080;stroke-linecap:round;"/>
    <path clip-path="url(#pca0c2e8cdc)" d="M 604.762466 285.412114 
L 608.292017 288.158434 
L 603.977231 289.334283 
L 604.762466 285.412114 
z
" style="fill:#808080;stroke:#808080;stroke-linecap:round;"/>
   </g>
   <g id="patch_26">
    <path clip-path="url(#pca0c2e8cdc)" d="M 352.995339 242.831988 
Q 252.276582 300.061302 152.529896 356.738278 
" style="fill:none;stroke:#808080;stroke-linecap:round;"/>
    <path clip-path="url(#pca0c2e8cdc)" d="M 156.995736 356.501061 
L 152.529896 356.738278 
L 155.019627 353.023276 
L 156.995736 356.501061 
z
" style="fill:#808080;stroke:#808080;stroke-linecap:round;"/>
   </g>
   <g id="patch_27">
    <path clip-path="url(#pca0c2e8cdc)" d="M 368.524733 241.87618 
Q 489.610869 292.151498 609.664439 341.99809 
" style="fill:none;stroke:#808080;stroke-linecap:round;"/>
    <path clip-path="url(#pca0c2e8cdc)" d="M 606.737141 338.617125 
L 609.664439 341.99809 
L 605.203288 342.31135 
L 606.737141 338.617125 
z
" style="fill:#808080;stroke:#808080;stroke-linecap:round;"/>
   </g>
   <g id="patch_28">
    <path clip-path="url(#pca0c2e8cdc)" d="M 351.880023 238.087676 
Q 220.378018 230.99025 89.992423 223.953079 
" style="fill:none;stroke:#808080;stroke-linecap:round;"/>
    <path clip-path="url(#pca0c2e8cdc)" d="M 93.878822 226.165747 
L 89.992423 223.953079 
L 94.094396 222.17156 
L 93.878822 226.165747 
z
" style="fill:#808080;stroke:#808080;stroke-linecap:round;"/>
   </g>
   <g id="patch_29">
    <path clip-path="url(#pca0c2e8cdc)" d="M 388.60361 244.755178 
Q 389.561486 157.109855 390.507143 70.5825 
" style="fill:none;stroke:#808080;stroke-linecap:round;"/>
    <path clip-path="url(#pca0c2e8cdc)" d="M 388.463549 74.560404 
L 390.507143 70.5825 
L 392.46331 74.604118 
L 388.463549 74.560404 
z
" style="fill:#808080;stroke:#808080;stroke-linecap:round;"/>
   </g>
   <g id="patch_30">
    <path clip-path="url(#pca0c2e8cdc)" d="M 397.05938 254.783107 
Q 503.196995 271.74768 608.230589 288.535791 
" style="fill:none;stroke:#808080;stroke-linecap:round;"/>
    <path clip-path="url(#pca0c2e8cdc)" d="M 604.59639 285.92953 
L 608.230589 288.535791 
L 603.965061 289.879394 
L 604.59639 285.92953 
z
" style="fill:#808080;stroke:#808080;stroke-linecap:round;"/>
   </g>
   <g id="patch_31">
    <path clip-path="url(#pca0c2e8cdc)" d="M 380.589188 256.919957 
Q 266.270957 307.491588 152.975182 357.61091 
" style="fill:none;stroke:#808080;stroke-linecap:round;"/>
    <path clip-path="url(#pca0c2e8cdc)" d="M 157.442347 357.821702 
L 152.975182 357.61091 
L 155.824114 354.163653 
L 157.442347 357.821702 
z
" style="fill:#808080;stroke:#808080;stroke-linecap:round;"/>
   </g>
   <g id="patch_32">
    <path clip-path="url(#pca0c2e8cdc)" d="M 396.548717 256.641317 
Q 503.60301 299.582434 609.619635 342.107327 
" style="fill:none;stroke:#808080;stroke-linecap:round;"/>
    <path clip-path="url(#pca0c2e8cdc)" d="M 606.651724 338.761957 
L 609.619635 342.107327 
L 605.162592 342.474434 
L 606.651724 338.761957 
z
" style="fill:#808080;stroke:#808080;stroke-linecap:round;"/>
   </g>
   <g id="patch_33">
    <path clip-path="url(#pca0c2e8cdc)" d="M 379.88645 252.577628 
Q 234.365346 238.421017 89.957023 224.372658 
" style="fill:none;stroke:#808080;stroke-linecap:round;"/>
    <path clip-path="url(#pca0c2e8cdc)" d="M 93.744578 226.750562 
L 89.957023 224.372658 
L 94.131879 222.769356 
L 93.744578 226.750562 
z
" style="fill:#808080;stroke:#808080;stroke-linecap:round;"/>
   </g>
   <g id="patch_34">
    <path clip-path="url(#pca0c2e8cdc)" d="M 367.871838 263.374711 
Q 378.759695 166.394219 389.522816 70.524782 
" style="fill:none;stroke:#808080;stroke-linecap:round;"/>
    <path clip-path="url(#pca0c2e8cdc)" d="M 387.089031 74.276674 
L 389.522816 70.524782 
L 391.064059 74.722945 
L 387.089031 74.276674 
z
" style="fill:#808080;stroke:#808080;stroke-linecap:round;"/>
   </g>
   <g id="patch_35">
    <path clip-path="url(#pca0c2e8cdc)" d="M 375.541347 272.604146 
Q 492.394962 281.03007 608.133438 289.375585 
" style="fill:none;stroke:#808080;stroke-linecap:round;"/>
    <path clip-path="url(#pca0c2e8cdc)" d="M 604.287637 287.093085 
L 608.133438 289.375585 
L 603.999957 291.082726 
L 604.287637 287.093085 
z
" style="fill:#808080;stroke:#808080;stroke-linecap:round;"/>
   </g>
   <g id="patch_36">
    <path clip-path="url(#pca0c2e8cdc)" d="M 358.869441 275.211636 
Q 255.466962 316.775085 153.10185 357.921556 
" style="fill:none;stroke:#808080;stroke-linecap:round;"/>
    <path clip-path="url(#pca0c2e8cdc)" d="M 157.559158 358.285429 
L 153.10185 357.921556 
L 156.067333 354.574033 
L 157.559158 358.285429 
z
" style="fill:#808080;stroke:#808080;stroke-linecap:round;"/>
   </g>
   <g id="patch_37">
    <path clip-path="url(#pca0c2e8cdc)" d="M 375.215796 274.416073 
Q 492.79957 308.86427 609.310407 342.998131 
" style="fill:none;stroke:#808080;stroke-linecap:round;"/>
    <path clip-path="url(#pca0c2e8cdc)" d="M 606.034052 339.954203 
L 609.310407 342.998131 
L 604.909452 343.792858 
L 606.034052 339.954203 
z
" style="fill:#808080;stroke:#808080;stroke-linecap:round;"/>
   </g>
   <g id="patch_38">
    <path clip-path="url(#pca0c2e8cdc)" d="M 358.371125 270.535956 
Q 223.565646 247.703734 89.862501 225.058215 
" style="fill:none;stroke:#808080;stroke-linecap:round;"/>
    <path clip-path="url(#pca0c2e8cdc)" d="M 93.472346 227.698104 
L 89.862501 225.058215 
L 94.14032 223.754272 
L 93.472346 227.698104 
z
" style="fill:#808080;stroke:#808080;stroke-linecap:round;"/>
   </g>
   <g id="PathCollection_1">
    <defs>
     <path d="M 0 11.18034 
C 2.965061 11.18034 5.80908 10.002309 7.905694 7.905694 
C 10.002309 5.80908 11.18034 2.965061 11.18034 -0 
C 11.18034 -2.965061 10.002309 -5.80908 7.905694 -7.905694 
C 5.80908 -10.002309 2.965061 -11.18034 0 -11.18034 
C -2.965061 -11.18034 -5.80908 -10.002309 -7.905694 -7.905694 
C -10.002309 -5.80908 -11.18034 -2.965061 -11.18034 0 
C -11.18034 2.965061 -10.002309 5.80908 -7.905694 7.905694 
C -5.80908 10.002309 -2.965061 11.18034 0 11.18034 
z
" id="C0_0_db23aeb2a6"/>
    </defs>
    <g clip-path="url(#pca0c2e8cdc)">
     <use style="fill:#cacaca;stroke:#cacaca;" x="263.267662" xlink:href="#C0_0_db23aeb2a6" y="334.179546"/>
    </g>
    <g clip-path="url(#pca0c2e8cdc)">
     <use style="fill:#cacaca;stroke:#cacaca;" x="410.036097" xlink:href="#C0_0_db23aeb2a6" y="218.576014"/>
    </g>
    <g clip-path="url(#pca0c2e8cdc)">
     <use style="fill:#efefef;stroke:#efefef;" x="266.571861" xlink:href="#C0_0_db23aeb2a6" y="422.287561"/>
    </g>
    <g clip-path="url(#pca0c2e8cdc)">
     <use style="fill:#f0f0f0;stroke:#f0f0f0;" x="325.003393" xlink:href="#C0_0_db23aeb2a6" y="179.111266"/>
    </g>
    <g clip-path="url(#pca0c2e8cdc)">
     <use style="fill:#efefef;stroke:#efefef;" x="390.613997" xlink:href="#C0_0_db23aeb2a6" y="60.805398"/>
    </g>
    <g clip-path="url(#pca0c2e8cdc)">
     <use style="fill:#efefef;stroke:#efefef;" x="617.883035" xlink:href="#C0_0_db23aeb2a6" y="290.078596"/>
    </g>
    <g clip-path="url(#pca0c2e8cdc)">
     <use style="fill:#f0f0f0;stroke:#f0f0f0;" x="144.029627" xlink:href="#C0_0_db23aeb2a6" y="361.568208"/>
    </g>
    <g clip-path="url(#pca0c2e8cdc)">
     <use style="fill:#efefef;stroke:#efefef;" x="618.694215" xlink:href="#C0_0_db23aeb2a6" y="345.74728"/>
    </g>
    <g clip-path="url(#pca0c2e8cdc)">
     <use style="fill:#f0f0f0;stroke:#f0f0f0;" x="80.225138" xlink:href="#C0_0_db23aeb2a6" y="223.425919"/>
    </g>
    <g clip-path="url(#pca0c2e8cdc)">
     <use style="fill:#5f5f5f;stroke:#5f5f5f;" x="319.649318" xlink:href="#C0_0_db23aeb2a6" y="258.804118"/>
    </g>
    <g clip-path="url(#pca0c2e8cdc)">
     <use style="fill:#efefef;stroke:#efefef;" x="487.801412" xlink:href="#C0_0_db23aeb2a6" y="380.011473"/>
    </g>
    <g clip-path="url(#pca0c2e8cdc)">
     <use style="fill:#efefef;stroke:#efefef;" x="181.380116" xlink:href="#C0_0_db23aeb2a6" y="101.033182"/>
    </g>
    <g clip-path="url(#pca0c2e8cdc)">
     <use style="fill:#efefef;stroke:#efefef;" x="79.232439" xlink:href="#C0_0_db23aeb2a6" y="330.827925"/>
    </g>
    <g clip-path="url(#pca0c2e8cdc)">
     <use style="fill:#eeeeee;stroke:#eeeeee;" x="168.75377" xlink:href="#C0_0_db23aeb2a6" y="270.253024"/>
    </g>
    <g clip-path="url(#pca0c2e8cdc)">
     <use style="fill:#efefef;stroke:#efefef;" x="538.796066" xlink:href="#C0_0_db23aeb2a6" y="282.852249"/>
    </g>
    <g clip-path="url(#pca0c2e8cdc)">
     <use style="fill:#f3f3f3;stroke:#f3f3f3;" x="181.463447" xlink:href="#C0_0_db23aeb2a6" y="408.090703"/>
    </g>
    <g clip-path="url(#pca0c2e8cdc)">
     <use style="fill:#efefef;stroke:#efefef;" x="495.822583" xlink:href="#C0_0_db23aeb2a6" y="427.350852"/>
    </g>
    <g clip-path="url(#pca0c2e8cdc)">
     <use style="fill:#efefef;stroke:#efefef;" x="85.952419" xlink:href="#C0_0_db23aeb2a6" y="172.19858"/>
    </g>
    <g clip-path="url(#pca0c2e8cdc)">
     <use style="fill:#efefef;stroke:#efefef;" x="487.78302" xlink:href="#C0_0_db23aeb2a6" y="102.382905"/>
    </g>
    <g clip-path="url(#pca0c2e8cdc)">
     <use style="fill:#efefef;stroke:#efefef;" x="298.700276" xlink:href="#C0_0_db23aeb2a6" y="79.355568"/>
    </g>
    <g clip-path="url(#pca0c2e8cdc)">
     <use style="fill:#f0f0f0;stroke:#f0f0f0;" x="581.207069" xlink:href="#C0_0_db23aeb2a6" y="123.555105"/>
    </g>
    <g clip-path="url(#pca0c2e8cdc)">
     <use style="fill:#f0f0f0;stroke:#f0f0f0;" x="65.305785" xlink:href="#C0_0_db23aeb2a6" y="276.71645"/>
    </g>
    <g clip-path="url(#pca0c2e8cdc)">
     <use style="fill:#dedede;stroke:#dedede;" x="477.768938" xlink:href="#C0_0_db23aeb2a6" y="288.382854"/>
    </g>
    <g clip-path="url(#pca0c2e8cdc)">
     <use style="fill:#cacaca;stroke:#cacaca;" x="360.523879" xlink:href="#C0_0_db23aeb2a6" y="238.554203"/>
    </g>
    <g clip-path="url(#pca0c2e8cdc)">
     <use style="fill:#dadada;stroke:#dadada;" x="388.508951" xlink:href="#C0_0_db23aeb2a6" y="253.416444"/>
    </g>
    <g clip-path="url(#pca0c2e8cdc)">
     <use style="fill:#f0f0f0;stroke:#f0f0f0;" x="366.905572" xlink:href="#C0_0_db23aeb2a6" y="271.981449"/>
    </g>
   </g>
   <g id="text_1">
    <g clip-path="url(#pca0c2e8cdc)">
     <!-- RAF1 -->
     <g transform="translate(250.5161 336.938921)scale(0.1 -0.1)">
      <defs>
       <path d="M 44.390625 34.1875 
Q 47.5625 33.109375 50.5625 29.59375 
Q 53.5625 26.078125 56.59375 19.921875 
L 66.609375 0 
L 56 0 
L 46.6875 18.703125 
Q 43.0625 26.03125 39.671875 28.421875 
Q 36.28125 30.8125 30.421875 30.8125 
L 19.671875 30.8125 
L 19.671875 0 
L 9.8125 0 
L 9.8125 72.90625 
L 32.078125 72.90625 
Q 44.578125 72.90625 50.734375 67.671875 
Q 56.890625 62.453125 56.890625 51.90625 
Q 56.890625 45.015625 53.6875 40.46875 
Q 50.484375 35.9375 44.390625 34.1875 
z
M 19.671875 64.796875 
L 19.671875 38.921875 
L 32.078125 38.921875 
Q 39.203125 38.921875 42.84375 42.21875 
Q 46.484375 45.515625 46.484375 51.90625 
Q 46.484375 58.296875 42.84375 61.546875 
Q 39.203125 64.796875 32.078125 64.796875 
z
" id="DejaVuSans-82"/>
       <path d="M 34.1875 63.1875 
L 20.796875 26.90625 
L 47.609375 26.90625 
z
M 28.609375 72.90625 
L 39.796875 72.90625 
L 67.578125 0 
L 57.328125 0 
L 50.6875 18.703125 
L 17.828125 18.703125 
L 11.1875 0 
L 0.78125 0 
z
" id="DejaVuSans-65"/>
       <path d="M 9.8125 72.90625 
L 51.703125 72.90625 
L 51.703125 64.59375 
L 19.671875 64.59375 
L 19.671875 43.109375 
L 48.578125 43.109375 
L 48.578125 34.8125 
L 19.671875 34.8125 
L 19.671875 0 
L 9.8125 0 
z
" id="DejaVuSans-70"/>
       <path d="M 12.40625 8.296875 
L 28.515625 8.296875 
L 28.515625 63.921875 
L 10.984375 60.40625 
L 10.984375 69.390625 
L 28.421875 72.90625 
L 38.28125 72.90625 
L 38.28125 8.296875 
L 54.390625 8.296875 
L 54.390625 0 
L 12.40625 0 
z
" id="DejaVuSans-49"/>
      </defs>
      <use xlink:href="#DejaVuSans-82"/>
      <use x="65.482422" xlink:href="#DejaVuSans-65"/>
      <use x="133.890625" xlink:href="#DejaVuSans-70"/>
      <use x="191.410156" xlink:href="#DejaVuSans-49"/>
     </g>
    </g>
   </g>
   <g id="text_2">
    <g clip-path="url(#pca0c2e8cdc)">
     <!-- PRKCD -->
     <g transform="translate(393.201722 221.335389)scale(0.1 -0.1)">
      <defs>
       <path d="M 19.671875 64.796875 
L 19.671875 37.40625 
L 32.078125 37.40625 
Q 38.96875 37.40625 42.71875 40.96875 
Q 46.484375 44.53125 46.484375 51.125 
Q 46.484375 57.671875 42.71875 61.234375 
Q 38.96875 64.796875 32.078125 64.796875 
z
M 9.8125 72.90625 
L 32.078125 72.90625 
Q 44.34375 72.90625 50.609375 67.359375 
Q 56.890625 61.8125 56.890625 51.125 
Q 56.890625 40.328125 50.609375 34.8125 
Q 44.34375 29.296875 32.078125 29.296875 
L 19.671875 29.296875 
L 19.671875 0 
L 9.8125 0 
z
" id="DejaVuSans-80"/>
       <path d="M 9.8125 72.90625 
L 19.671875 72.90625 
L 19.671875 42.09375 
L 52.390625 72.90625 
L 65.09375 72.90625 
L 28.90625 38.921875 
L 67.671875 0 
L 54.6875 0 
L 19.671875 35.109375 
L 19.671875 0 
L 9.8125 0 
z
" id="DejaVuSans-75"/>
       <path d="M 64.40625 67.28125 
L 64.40625 56.890625 
Q 59.421875 61.53125 53.78125 63.8125 
Q 48.140625 66.109375 41.796875 66.109375 
Q 29.296875 66.109375 22.65625 58.46875 
Q 16.015625 50.828125 16.015625 36.375 
Q 16.015625 21.96875 22.65625 14.328125 
Q 29.296875 6.6875 41.796875 6.6875 
Q 48.140625 6.6875 53.78125 8.984375 
Q 59.421875 11.28125 64.40625 15.921875 
L 64.40625 5.609375 
Q 59.234375 2.09375 53.4375 0.328125 
Q 47.65625 -1.421875 41.21875 -1.421875 
Q 24.65625 -1.421875 15.125 8.703125 
Q 5.609375 18.84375 5.609375 36.375 
Q 5.609375 53.953125 15.125 64.078125 
Q 24.65625 74.21875 41.21875 74.21875 
Q 47.75 74.21875 53.53125 72.484375 
Q 59.328125 70.75 64.40625 67.28125 
z
" id="DejaVuSans-67"/>
       <path d="M 19.671875 64.796875 
L 19.671875 8.109375 
L 31.59375 8.109375 
Q 46.6875 8.109375 53.6875 14.9375 
Q 60.6875 21.78125 60.6875 36.53125 
Q 60.6875 51.171875 53.6875 57.984375 
Q 46.6875 64.796875 31.59375 64.796875 
z
M 9.8125 72.90625 
L 30.078125 72.90625 
Q 51.265625 72.90625 61.171875 64.09375 
Q 71.09375 55.28125 71.09375 36.53125 
Q 71.09375 17.671875 61.125 8.828125 
Q 51.171875 0 30.078125 0 
L 9.8125 0 
z
" id="DejaVuSans-68"/>
      </defs>
      <use xlink:href="#DejaVuSans-80"/>
      <use x="60.302734" xlink:href="#DejaVuSans-82"/>
      <use x="129.785156" xlink:href="#DejaVuSans-75"/>
      <use x="189.861328" xlink:href="#DejaVuSans-67"/>
      <use x="259.685547" xlink:href="#DejaVuSans-68"/>
     </g>
    </g>
   </g>
   <g id="text_3">
    <g clip-path="url(#pca0c2e8cdc)">
     <!-- GRB2 -->
     <g transform="translate(252.611704 425.046936)scale(0.1 -0.1)">
      <defs>
       <path d="M 59.515625 10.40625 
L 59.515625 29.984375 
L 43.40625 29.984375 
L 43.40625 38.09375 
L 69.28125 38.09375 
L 69.28125 6.78125 
Q 63.578125 2.734375 56.6875 0.65625 
Q 49.8125 -1.421875 42 -1.421875 
Q 24.90625 -1.421875 15.25 8.5625 
Q 5.609375 18.5625 5.609375 36.375 
Q 5.609375 54.25 15.25 64.234375 
Q 24.90625 74.21875 42 74.21875 
Q 49.125 74.21875 55.546875 72.453125 
Q 61.96875 70.703125 67.390625 67.28125 
L 67.390625 56.78125 
Q 61.921875 61.421875 55.765625 63.765625 
Q 49.609375 66.109375 42.828125 66.109375 
Q 29.4375 66.109375 22.71875 58.640625 
Q 16.015625 51.171875 16.015625 36.375 
Q 16.015625 21.625 22.71875 14.15625 
Q 29.4375 6.6875 42.828125 6.6875 
Q 48.046875 6.6875 52.140625 7.59375 
Q 56.25 8.5 59.515625 10.40625 
z
" id="DejaVuSans-71"/>
       <path d="M 19.671875 34.8125 
L 19.671875 8.109375 
L 35.5 8.109375 
Q 43.453125 8.109375 47.28125 11.40625 
Q 51.125 14.703125 51.125 21.484375 
Q 51.125 28.328125 47.28125 31.5625 
Q 43.453125 34.8125 35.5 34.8125 
z
M 19.671875 64.796875 
L 19.671875 42.828125 
L 34.28125 42.828125 
Q 41.5 42.828125 45.03125 45.53125 
Q 48.578125 48.25 48.578125 53.8125 
Q 48.578125 59.328125 45.03125 62.0625 
Q 41.5 64.796875 34.28125 64.796875 
z
M 9.8125 72.90625 
L 35.015625 72.90625 
Q 46.296875 72.90625 52.390625 68.21875 
Q 58.5 63.53125 58.5 54.890625 
Q 58.5 48.1875 55.375 44.234375 
Q 52.25 40.28125 46.1875 39.3125 
Q 53.46875 37.75 57.5 32.78125 
Q 61.53125 27.828125 61.53125 20.40625 
Q 61.53125 10.640625 54.890625 5.3125 
Q 48.25 0 35.984375 0 
L 9.8125 0 
z
" id="DejaVuSans-66"/>
       <path d="M 19.1875 8.296875 
L 53.609375 8.296875 
L 53.609375 0 
L 7.328125 0 
L 7.328125 8.296875 
Q 12.9375 14.109375 22.625 23.890625 
Q 32.328125 33.6875 34.8125 36.53125 
Q 39.546875 41.84375 41.421875 45.53125 
Q 43.3125 49.21875 43.3125 52.78125 
Q 43.3125 58.59375 39.234375 62.25 
Q 35.15625 65.921875 28.609375 65.921875 
Q 23.96875 65.921875 18.8125 64.3125 
Q 13.671875 62.703125 7.8125 59.421875 
L 7.8125 69.390625 
Q 13.765625 71.78125 18.9375 73 
Q 24.125 74.21875 28.421875 74.21875 
Q 39.75 74.21875 46.484375 68.546875 
Q 53.21875 62.890625 53.21875 53.421875 
Q 53.21875 48.921875 51.53125 44.890625 
Q 49.859375 40.875 45.40625 35.40625 
Q 44.1875 33.984375 37.640625 27.21875 
Q 31.109375 20.453125 19.1875 8.296875 
z
" id="DejaVuSans-50"/>
      </defs>
      <use xlink:href="#DejaVuSans-71"/>
      <use x="77.490234" xlink:href="#DejaVuSans-82"/>
      <use x="146.972656" xlink:href="#DejaVuSans-66"/>
      <use x="215.576172" xlink:href="#DejaVuSans-50"/>
     </g>
    </g>
   </g>
   <g id="text_4">
    <g clip-path="url(#pca0c2e8cdc)">
     <!-- GNAS -->
     <g transform="translate(310.794018 181.870641)scale(0.1 -0.1)">
      <defs>
       <path d="M 9.8125 72.90625 
L 23.09375 72.90625 
L 55.421875 11.921875 
L 55.421875 72.90625 
L 64.984375 72.90625 
L 64.984375 0 
L 51.703125 0 
L 19.390625 60.984375 
L 19.390625 0 
L 9.8125 0 
z
" id="DejaVuSans-78"/>
       <path d="M 53.515625 70.515625 
L 53.515625 60.890625 
Q 47.90625 63.578125 42.921875 64.890625 
Q 37.9375 66.21875 33.296875 66.21875 
Q 25.25 66.21875 20.875 63.09375 
Q 16.5 59.96875 16.5 54.203125 
Q 16.5 49.359375 19.40625 46.890625 
Q 22.3125 44.4375 30.421875 42.921875 
L 36.375 41.703125 
Q 47.40625 39.59375 52.65625 34.296875 
Q 57.90625 29 57.90625 20.125 
Q 57.90625 9.515625 50.796875 4.046875 
Q 43.703125 -1.421875 29.984375 -1.421875 
Q 24.8125 -1.421875 18.96875 -0.25 
Q 13.140625 0.921875 6.890625 3.21875 
L 6.890625 13.375 
Q 12.890625 10.015625 18.65625 8.296875 
Q 24.421875 6.59375 29.984375 6.59375 
Q 38.421875 6.59375 43.015625 9.90625 
Q 47.609375 13.234375 47.609375 19.390625 
Q 47.609375 24.75 44.3125 27.78125 
Q 41.015625 30.8125 33.5 32.328125 
L 27.484375 33.5 
Q 16.453125 35.6875 11.515625 40.375 
Q 6.59375 45.0625 6.59375 53.421875 
Q 6.59375 63.09375 13.40625 68.65625 
Q 20.21875 74.21875 32.171875 74.21875 
Q 37.3125 74.21875 42.625 73.28125 
Q 47.953125 72.359375 53.515625 70.515625 
z
" id="DejaVuSans-83"/>
      </defs>
      <use xlink:href="#DejaVuSans-71"/>
      <use x="77.490234" xlink:href="#DejaVuSans-78"/>
      <use x="152.294922" xlink:href="#DejaVuSans-65"/>
      <use x="220.703125" xlink:href="#DejaVuSans-83"/>
     </g>
    </g>
   </g>
   <g id="text_5">
    <g clip-path="url(#pca0c2e8cdc)">
     <!-- BCL2 -->
     <g transform="translate(377.812434 63.564773)scale(0.1 -0.1)">
      <defs>
       <path d="M 9.8125 72.90625 
L 19.671875 72.90625 
L 19.671875 8.296875 
L 55.171875 8.296875 
L 55.171875 0 
L 9.8125 0 
z
" id="DejaVuSans-76"/>
      </defs>
      <use xlink:href="#DejaVuSans-66"/>
      <use x="66.853516" xlink:href="#DejaVuSans-67"/>
      <use x="136.677734" xlink:href="#DejaVuSans-76"/>
      <use x="192.390625" xlink:href="#DejaVuSans-50"/>
     </g>
    </g>
   </g>
   <g id="text_6">
    <g clip-path="url(#pca0c2e8cdc)">
     <!-- EBAG9 -->
     <g transform="translate(600.90491 292.837971)scale(0.1 -0.1)">
      <defs>
       <path d="M 9.8125 72.90625 
L 55.90625 72.90625 
L 55.90625 64.59375 
L 19.671875 64.59375 
L 19.671875 43.015625 
L 54.390625 43.015625 
L 54.390625 34.71875 
L 19.671875 34.71875 
L 19.671875 8.296875 
L 56.78125 8.296875 
L 56.78125 0 
L 9.8125 0 
z
" id="DejaVuSans-69"/>
       <path d="M 10.984375 1.515625 
L 10.984375 10.5 
Q 14.703125 8.734375 18.5 7.8125 
Q 22.3125 6.890625 25.984375 6.890625 
Q 35.75 6.890625 40.890625 13.453125 
Q 46.046875 20.015625 46.78125 33.40625 
Q 43.953125 29.203125 39.59375 26.953125 
Q 35.25 24.703125 29.984375 24.703125 
Q 19.046875 24.703125 12.671875 31.3125 
Q 6.296875 37.9375 6.296875 49.421875 
Q 6.296875 60.640625 12.9375 67.421875 
Q 19.578125 74.21875 30.609375 74.21875 
Q 43.265625 74.21875 49.921875 64.515625 
Q 56.59375 54.828125 56.59375 36.375 
Q 56.59375 19.140625 48.40625 8.859375 
Q 40.234375 -1.421875 26.421875 -1.421875 
Q 22.703125 -1.421875 18.890625 -0.6875 
Q 15.09375 0.046875 10.984375 1.515625 
z
M 30.609375 32.421875 
Q 37.25 32.421875 41.125 36.953125 
Q 45.015625 41.5 45.015625 49.421875 
Q 45.015625 57.28125 41.125 61.84375 
Q 37.25 66.40625 30.609375 66.40625 
Q 23.96875 66.40625 20.09375 61.84375 
Q 16.21875 57.28125 16.21875 49.421875 
Q 16.21875 41.5 20.09375 36.953125 
Q 23.96875 32.421875 30.609375 32.421875 
z
" id="DejaVuSans-57"/>
      </defs>
      <use xlink:href="#DejaVuSans-69"/>
      <use x="63.183594" xlink:href="#DejaVuSans-66"/>
      <use x="131.787109" xlink:href="#DejaVuSans-65"/>
      <use x="198.445312" xlink:href="#DejaVuSans-71"/>
      <use x="275.935547" xlink:href="#DejaVuSans-57"/>
     </g>
    </g>
   </g>
   <g id="text_7">
    <g clip-path="url(#pca0c2e8cdc)">
     <!-- CTSD -->
     <g transform="translate(130.460095 364.327583)scale(0.1 -0.1)">
      <defs>
       <path d="M -0.296875 72.90625 
L 61.375 72.90625 
L 61.375 64.59375 
L 35.5 64.59375 
L 35.5 0 
L 25.59375 0 
L 25.59375 64.59375 
L -0.296875 64.59375 
z
" id="DejaVuSans-84"/>
      </defs>
      <use xlink:href="#DejaVuSans-67"/>
      <use x="69.824219" xlink:href="#DejaVuSans-84"/>
      <use x="130.908203" xlink:href="#DejaVuSans-83"/>
      <use x="194.384766" xlink:href="#DejaVuSans-68"/>
     </g>
    </g>
   </g>
   <g id="text_8">
    <g clip-path="url(#pca0c2e8cdc)">
     <!-- TGFA -->
     <g transform="translate(605.926246 348.506655)scale(0.1 -0.1)">
      <use xlink:href="#DejaVuSans-84"/>
      <use x="61.083984" xlink:href="#DejaVuSans-71"/>
      <use x="138.574219" xlink:href="#DejaVuSans-70"/>
      <use x="186.96875" xlink:href="#DejaVuSans-65"/>
     </g>
    </g>
   </g>
   <g id="text_9">
    <g clip-path="url(#pca0c2e8cdc)">
     <!-- RARA -->
     <g transform="translate(66.836076 226.185294)scale(0.1 -0.1)">
      <use xlink:href="#DejaVuSans-82"/>
      <use x="65.482422" xlink:href="#DejaVuSans-65"/>
      <use x="133.890625" xlink:href="#DejaVuSans-82"/>
      <use x="199.373047" xlink:href="#DejaVuSans-65"/>
     </g>
    </g>
   </g>
   <g id="text_10">
    <g clip-path="url(#pca0c2e8cdc)">
     <!-- ESR2 -->
     <g transform="translate(306.660255 261.563493)scale(0.1 -0.1)">
      <use xlink:href="#DejaVuSans-69"/>
      <use x="63.183594" xlink:href="#DejaVuSans-83"/>
      <use x="126.660156" xlink:href="#DejaVuSans-82"/>
      <use x="196.142578" xlink:href="#DejaVuSans-50"/>
     </g>
    </g>
   </g>
   <g id="text_11">
    <g clip-path="url(#pca0c2e8cdc)">
     <!-- FOS -->
     <g transform="translate(477.815474 382.770848)scale(0.1 -0.1)">
      <defs>
       <path d="M 39.40625 66.21875 
Q 28.65625 66.21875 22.328125 58.203125 
Q 16.015625 50.203125 16.015625 36.375 
Q 16.015625 22.609375 22.328125 14.59375 
Q 28.65625 6.59375 39.40625 6.59375 
Q 50.140625 6.59375 56.421875 14.59375 
Q 62.703125 22.609375 62.703125 36.375 
Q 62.703125 50.203125 56.421875 58.203125 
Q 50.140625 66.21875 39.40625 66.21875 
z
M 39.40625 74.21875 
Q 54.734375 74.21875 63.90625 63.9375 
Q 73.09375 53.65625 73.09375 36.375 
Q 73.09375 19.140625 63.90625 8.859375 
Q 54.734375 -1.421875 39.40625 -1.421875 
Q 24.03125 -1.421875 14.8125 8.828125 
Q 5.609375 19.09375 5.609375 36.375 
Q 5.609375 53.65625 14.8125 63.9375 
Q 24.03125 74.21875 39.40625 74.21875 
z
" id="DejaVuSans-79"/>
      </defs>
      <use xlink:href="#DejaVuSans-70"/>
      <use x="57.519531" xlink:href="#DejaVuSans-79"/>
      <use x="136.230469" xlink:href="#DejaVuSans-83"/>
     </g>
    </g>
   </g>
   <g id="text_12">
    <g clip-path="url(#pca0c2e8cdc)">
     <!-- JUN -->
     <g transform="translate(172.505116 103.792557)scale(0.1 -0.1)">
      <defs>
       <path d="M 9.8125 72.90625 
L 19.671875 72.90625 
L 19.671875 5.078125 
Q 19.671875 -8.109375 14.671875 -14.0625 
Q 9.671875 -20.015625 -1.421875 -20.015625 
L -5.171875 -20.015625 
L -5.171875 -11.71875 
L -2.09375 -11.71875 
Q 4.4375 -11.71875 7.125 -8.046875 
Q 9.8125 -4.390625 9.8125 5.078125 
z
" id="DejaVuSans-74"/>
       <path d="M 8.6875 72.90625 
L 18.609375 72.90625 
L 18.609375 28.609375 
Q 18.609375 16.890625 22.84375 11.734375 
Q 27.09375 6.59375 36.625 6.59375 
Q 46.09375 6.59375 50.34375 11.734375 
Q 54.59375 16.890625 54.59375 28.609375 
L 54.59375 72.90625 
L 64.5 72.90625 
L 64.5 27.390625 
Q 64.5 13.140625 57.4375 5.859375 
Q 50.390625 -1.421875 36.625 -1.421875 
Q 22.796875 -1.421875 15.734375 5.859375 
Q 8.6875 13.140625 8.6875 27.390625 
z
" id="DejaVuSans-85"/>
      </defs>
      <use xlink:href="#DejaVuSans-74"/>
      <use x="29.492188" xlink:href="#DejaVuSans-85"/>
      <use x="102.685547" xlink:href="#DejaVuSans-78"/>
     </g>
    </g>
   </g>
   <g id="text_13">
    <g clip-path="url(#pca0c2e8cdc)">
     <!-- SP1 -->
     <g transform="translate(69.862127 333.5873)scale(0.1 -0.1)">
      <use xlink:href="#DejaVuSans-83"/>
      <use x="63.476562" xlink:href="#DejaVuSans-80"/>
      <use x="123.779297" xlink:href="#DejaVuSans-49"/>
     </g>
    </g>
   </g>
   <g id="text_14">
    <g clip-path="url(#pca0c2e8cdc)">
     <!-- HRAS -->
     <g transform="translate(155.124863 273.012399)scale(0.1 -0.1)">
      <defs>
       <path d="M 9.8125 72.90625 
L 19.671875 72.90625 
L 19.671875 43.015625 
L 55.515625 43.015625 
L 55.515625 72.90625 
L 65.375 72.90625 
L 65.375 0 
L 55.515625 0 
L 55.515625 34.71875 
L 19.671875 34.71875 
L 19.671875 0 
L 9.8125 0 
z
" id="DejaVuSans-72"/>
      </defs>
      <use xlink:href="#DejaVuSans-72"/>
      <use x="75.195312" xlink:href="#DejaVuSans-82"/>
      <use x="140.677734" xlink:href="#DejaVuSans-65"/>
      <use x="209.085938" xlink:href="#DejaVuSans-83"/>
     </g>
    </g>
   </g>
   <g id="text_15">
    <g clip-path="url(#pca0c2e8cdc)">
     <!-- KRAS -->
     <g transform="translate(525.64841 285.611624)scale(0.1 -0.1)">
      <use xlink:href="#DejaVuSans-75"/>
      <use x="65.576172" xlink:href="#DejaVuSans-82"/>
      <use x="131.058594" xlink:href="#DejaVuSans-65"/>
      <use x="199.466797" xlink:href="#DejaVuSans-83"/>
     </g>
    </g>
   </g>
   <g id="text_16">
    <g clip-path="url(#pca0c2e8cdc)">
     <!-- NRAS -->
     <g transform="translate(167.854072 410.850078)scale(0.1 -0.1)">
      <use xlink:href="#DejaVuSans-78"/>
      <use x="74.804688" xlink:href="#DejaVuSans-82"/>
      <use x="140.287109" xlink:href="#DejaVuSans-65"/>
      <use x="208.695312" xlink:href="#DejaVuSans-83"/>
     </g>
    </g>
   </g>
   <g id="text_17">
    <g clip-path="url(#pca0c2e8cdc)">
     <!-- MAP2K1 -->
     <g transform="translate(475.431958 430.110227)scale(0.1 -0.1)">
      <defs>
       <path d="M 9.8125 72.90625 
L 24.515625 72.90625 
L 43.109375 23.296875 
L 61.8125 72.90625 
L 76.515625 72.90625 
L 76.515625 0 
L 66.890625 0 
L 66.890625 64.015625 
L 48.09375 14.015625 
L 38.1875 14.015625 
L 19.390625 64.015625 
L 19.390625 0 
L 9.8125 0 
z
" id="DejaVuSans-77"/>
      </defs>
      <use xlink:href="#DejaVuSans-77"/>
      <use x="86.279297" xlink:href="#DejaVuSans-65"/>
      <use x="154.6875" xlink:href="#DejaVuSans-80"/>
      <use x="214.990234" xlink:href="#DejaVuSans-50"/>
      <use x="278.613281" xlink:href="#DejaVuSans-75"/>
      <use x="344.189453" xlink:href="#DejaVuSans-49"/>
     </g>
    </g>
   </g>
   <g id="text_18">
    <g clip-path="url(#pca0c2e8cdc)">
     <!-- MAP2K2 -->
     <g transform="translate(65.561794 174.957955)scale(0.1 -0.1)">
      <use xlink:href="#DejaVuSans-77"/>
      <use x="86.279297" xlink:href="#DejaVuSans-65"/>
      <use x="154.6875" xlink:href="#DejaVuSans-80"/>
      <use x="214.990234" xlink:href="#DejaVuSans-50"/>
      <use x="278.613281" xlink:href="#DejaVuSans-75"/>
      <use x="344.189453" xlink:href="#DejaVuSans-50"/>
     </g>
    </g>
   </g>
   <g id="text_19">
    <g clip-path="url(#pca0c2e8cdc)">
     <!-- ADCY3 -->
     <g transform="translate(470.873645 105.14228)scale(0.1 -0.1)">
      <defs>
       <path d="M -0.203125 72.90625 
L 10.40625 72.90625 
L 30.609375 42.921875 
L 50.6875 72.90625 
L 61.28125 72.90625 
L 35.5 34.71875 
L 35.5 0 
L 25.59375 0 
L 25.59375 34.71875 
z
" id="DejaVuSans-89"/>
       <path d="M 40.578125 39.3125 
Q 47.65625 37.796875 51.625 33 
Q 55.609375 28.21875 55.609375 21.1875 
Q 55.609375 10.40625 48.1875 4.484375 
Q 40.765625 -1.421875 27.09375 -1.421875 
Q 22.515625 -1.421875 17.65625 -0.515625 
Q 12.796875 0.390625 7.625 2.203125 
L 7.625 11.71875 
Q 11.71875 9.328125 16.59375 8.109375 
Q 21.484375 6.890625 26.8125 6.890625 
Q 36.078125 6.890625 40.9375 10.546875 
Q 45.796875 14.203125 45.796875 21.1875 
Q 45.796875 27.640625 41.28125 31.265625 
Q 36.765625 34.90625 28.71875 34.90625 
L 20.21875 34.90625 
L 20.21875 43.015625 
L 29.109375 43.015625 
Q 36.375 43.015625 40.234375 45.921875 
Q 44.09375 48.828125 44.09375 54.296875 
Q 44.09375 59.90625 40.109375 62.90625 
Q 36.140625 65.921875 28.71875 65.921875 
Q 24.65625 65.921875 20.015625 65.03125 
Q 15.375 64.15625 9.8125 62.3125 
L 9.8125 71.09375 
Q 15.4375 72.65625 20.34375 73.4375 
Q 25.25 74.21875 29.59375 74.21875 
Q 40.828125 74.21875 47.359375 69.109375 
Q 53.90625 64.015625 53.90625 55.328125 
Q 53.90625 49.265625 50.4375 45.09375 
Q 46.96875 40.921875 40.578125 39.3125 
z
" id="DejaVuSans-51"/>
      </defs>
      <use xlink:href="#DejaVuSans-65"/>
      <use x="68.408203" xlink:href="#DejaVuSans-68"/>
      <use x="145.410156" xlink:href="#DejaVuSans-67"/>
      <use x="213.484375" xlink:href="#DejaVuSans-89"/>
      <use x="274.568359" xlink:href="#DejaVuSans-51"/>
     </g>
    </g>
   </g>
   <g id="text_20">
    <g clip-path="url(#pca0c2e8cdc)">
     <!-- ADCY4 -->
     <g transform="translate(281.790901 82.114943)scale(0.1 -0.1)">
      <defs>
       <path d="M 37.796875 64.3125 
L 12.890625 25.390625 
L 37.796875 25.390625 
z
M 35.203125 72.90625 
L 47.609375 72.90625 
L 47.609375 25.390625 
L 58.015625 25.390625 
L 58.015625 17.1875 
L 47.609375 17.1875 
L 47.609375 0 
L 37.796875 0 
L 37.796875 17.1875 
L 4.890625 17.1875 
L 4.890625 26.703125 
z
" id="DejaVuSans-52"/>
      </defs>
      <use xlink:href="#DejaVuSans-65"/>
      <use x="68.408203" xlink:href="#DejaVuSans-68"/>
      <use x="145.410156" xlink:href="#DejaVuSans-67"/>
      <use x="213.484375" xlink:href="#DejaVuSans-89"/>
      <use x="274.568359" xlink:href="#DejaVuSans-52"/>
     </g>
    </g>
   </g>
   <g id="text_21">
    <g clip-path="url(#pca0c2e8cdc)">
     <!-- ADCY7 -->
     <g transform="translate(564.297694 126.31448)scale(0.1 -0.1)">
      <defs>
       <path d="M 8.203125 72.90625 
L 55.078125 72.90625 
L 55.078125 68.703125 
L 28.609375 0 
L 18.3125 0 
L 43.21875 64.59375 
L 8.203125 64.59375 
z
" id="DejaVuSans-55"/>
      </defs>
      <use xlink:href="#DejaVuSans-65"/>
      <use x="68.408203" xlink:href="#DejaVuSans-68"/>
      <use x="145.410156" xlink:href="#DejaVuSans-67"/>
      <use x="213.484375" xlink:href="#DejaVuSans-89"/>
      <use x="274.568359" xlink:href="#DejaVuSans-55"/>
     </g>
    </g>
   </g>
   <g id="text_22">
    <g clip-path="url(#pca0c2e8cdc)">
     <!-- ADCY9 -->
     <g transform="translate(48.39641 279.475825)scale(0.1 -0.1)">
      <use xlink:href="#DejaVuSans-65"/>
      <use x="68.408203" xlink:href="#DejaVuSans-68"/>
      <use x="145.410156" xlink:href="#DejaVuSans-67"/>
      <use x="213.484375" xlink:href="#DejaVuSans-89"/>
      <use x="274.568359" xlink:href="#DejaVuSans-57"/>
     </g>
    </g>
   </g>
   <g id="text_23">
    <g clip-path="url(#pca0c2e8cdc)">
     <!-- SHC1 -->
     <g transform="translate(464.161907 291.142229)scale(0.1 -0.1)">
      <use xlink:href="#DejaVuSans-83"/>
      <use x="63.476562" xlink:href="#DejaVuSans-72"/>
      <use x="138.671875" xlink:href="#DejaVuSans-67"/>
      <use x="208.496094" xlink:href="#DejaVuSans-49"/>
     </g>
    </g>
   </g>
   <g id="text_24">
    <g clip-path="url(#pca0c2e8cdc)">
     <!-- NCOA1 -->
     <g transform="translate(342.841848 241.313578)scale(0.1 -0.1)">
      <use xlink:href="#DejaVuSans-78"/>
      <use x="74.804688" xlink:href="#DejaVuSans-67"/>
      <use x="144.628906" xlink:href="#DejaVuSans-79"/>
      <use x="221.589844" xlink:href="#DejaVuSans-65"/>
      <use x="289.998047" xlink:href="#DejaVuSans-49"/>
     </g>
    </g>
   </g>
   <g id="text_25">
    <g clip-path="url(#pca0c2e8cdc)">
     <!-- NCOA2 -->
     <g transform="translate(370.82692 256.175819)scale(0.1 -0.1)">
      <use xlink:href="#DejaVuSans-78"/>
      <use x="74.804688" xlink:href="#DejaVuSans-67"/>
      <use x="144.628906" xlink:href="#DejaVuSans-79"/>
      <use x="221.589844" xlink:href="#DejaVuSans-65"/>
      <use x="289.998047" xlink:href="#DejaVuSans-50"/>
     </g>
    </g>
   </g>
   <g id="text_26">
    <g clip-path="url(#pca0c2e8cdc)">
     <!-- NCOA3 -->
     <g transform="translate(349.223541 274.740824)scale(0.1 -0.1)">
      <use xlink:href="#DejaVuSans-78"/>
      <use x="74.804688" xlink:href="#DejaVuSans-67"/>
      <use x="144.628906" xlink:href="#DejaVuSans-79"/>
      <use x="221.589844" xlink:href="#DejaVuSans-65"/>
      <use x="289.998047" xlink:href="#DejaVuSans-51"/>
     </g>
    </g>
   </g>
   <g id="text_27">
    <!-- Importance Score for Each Node in the Network -->
    <g transform="translate(198.616875 16.318125)scale(0.12 -0.12)">
     <defs>
      <path d="M 9.8125 72.90625 
L 19.671875 72.90625 
L 19.671875 0 
L 9.8125 0 
z
" id="DejaVuSans-73"/>
      <path d="M 52 44.1875 
Q 55.375 50.25 60.0625 53.125 
Q 64.75 56 71.09375 56 
Q 79.640625 56 84.28125 50.015625 
Q 88.921875 44.046875 88.921875 33.015625 
L 88.921875 0 
L 79.890625 0 
L 79.890625 32.71875 
Q 79.890625 40.578125 77.09375 44.375 
Q 74.3125 48.1875 68.609375 48.1875 
Q 61.625 48.1875 57.5625 43.546875 
Q 53.515625 38.921875 53.515625 30.90625 
L 53.515625 0 
L 44.484375 0 
L 44.484375 32.71875 
Q 44.484375 40.625 41.703125 44.40625 
Q 38.921875 48.1875 33.109375 48.1875 
Q 26.21875 48.1875 22.15625 43.53125 
Q 18.109375 38.875 18.109375 30.90625 
L 18.109375 0 
L 9.078125 0 
L 9.078125 54.6875 
L 18.109375 54.6875 
L 18.109375 46.1875 
Q 21.1875 51.21875 25.484375 53.609375 
Q 29.78125 56 35.6875 56 
Q 41.65625 56 45.828125 52.96875 
Q 50 49.953125 52 44.1875 
z
" id="DejaVuSans-109"/>
      <path d="M 18.109375 8.203125 
L 18.109375 -20.796875 
L 9.078125 -20.796875 
L 9.078125 54.6875 
L 18.109375 54.6875 
L 18.109375 46.390625 
Q 20.953125 51.265625 25.265625 53.625 
Q 29.59375 56 35.59375 56 
Q 45.5625 56 51.78125 48.09375 
Q 58.015625 40.1875 58.015625 27.296875 
Q 58.015625 14.40625 51.78125 6.484375 
Q 45.5625 -1.421875 35.59375 -1.421875 
Q 29.59375 -1.421875 25.265625 0.953125 
Q 20.953125 3.328125 18.109375 8.203125 
z
M 48.6875 27.296875 
Q 48.6875 37.203125 44.609375 42.84375 
Q 40.53125 48.484375 33.40625 48.484375 
Q 26.265625 48.484375 22.1875 42.84375 
Q 18.109375 37.203125 18.109375 27.296875 
Q 18.109375 17.390625 22.1875 11.75 
Q 26.265625 6.109375 33.40625 6.109375 
Q 40.53125 6.109375 44.609375 11.75 
Q 48.6875 17.390625 48.6875 27.296875 
z
" id="DejaVuSans-112"/>
      <path d="M 30.609375 48.390625 
Q 23.390625 48.390625 19.1875 42.75 
Q 14.984375 37.109375 14.984375 27.296875 
Q 14.984375 17.484375 19.15625 11.84375 
Q 23.34375 6.203125 30.609375 6.203125 
Q 37.796875 6.203125 41.984375 11.859375 
Q 46.1875 17.53125 46.1875 27.296875 
Q 46.1875 37.015625 41.984375 42.703125 
Q 37.796875 48.390625 30.609375 48.390625 
z
M 30.609375 56 
Q 42.328125 56 49.015625 48.375 
Q 55.71875 40.765625 55.71875 27.296875 
Q 55.71875 13.875 49.015625 6.21875 
Q 42.328125 -1.421875 30.609375 -1.421875 
Q 18.84375 -1.421875 12.171875 6.21875 
Q 5.515625 13.875 5.515625 27.296875 
Q 5.515625 40.765625 12.171875 48.375 
Q 18.84375 56 30.609375 56 
z
" id="DejaVuSans-111"/>
      <path d="M 41.109375 46.296875 
Q 39.59375 47.171875 37.8125 47.578125 
Q 36.03125 48 33.890625 48 
Q 26.265625 48 22.1875 43.046875 
Q 18.109375 38.09375 18.109375 28.8125 
L 18.109375 0 
L 9.078125 0 
L 9.078125 54.6875 
L 18.109375 54.6875 
L 18.109375 46.1875 
Q 20.953125 51.171875 25.484375 53.578125 
Q 30.03125 56 36.53125 56 
Q 37.453125 56 38.578125 55.875 
Q 39.703125 55.765625 41.0625 55.515625 
z
" id="DejaVuSans-114"/>
      <path d="M 18.3125 70.21875 
L 18.3125 54.6875 
L 36.8125 54.6875 
L 36.8125 47.703125 
L 18.3125 47.703125 
L 18.3125 18.015625 
Q 18.3125 11.328125 20.140625 9.421875 
Q 21.96875 7.515625 27.59375 7.515625 
L 36.8125 7.515625 
L 36.8125 0 
L 27.59375 0 
Q 17.1875 0 13.234375 3.875 
Q 9.28125 7.765625 9.28125 18.015625 
L 9.28125 47.703125 
L 2.6875 47.703125 
L 2.6875 54.6875 
L 9.28125 54.6875 
L 9.28125 70.21875 
z
" id="DejaVuSans-116"/>
      <path d="M 34.28125 27.484375 
Q 23.390625 27.484375 19.1875 25 
Q 14.984375 22.515625 14.984375 16.5 
Q 14.984375 11.71875 18.140625 8.90625 
Q 21.296875 6.109375 26.703125 6.109375 
Q 34.1875 6.109375 38.703125 11.40625 
Q 43.21875 16.703125 43.21875 25.484375 
L 43.21875 27.484375 
z
M 52.203125 31.203125 
L 52.203125 0 
L 43.21875 0 
L 43.21875 8.296875 
Q 40.140625 3.328125 35.546875 0.953125 
Q 30.953125 -1.421875 24.3125 -1.421875 
Q 15.921875 -1.421875 10.953125 3.296875 
Q 6 8.015625 6 15.921875 
Q 6 25.140625 12.171875 29.828125 
Q 18.359375 34.515625 30.609375 34.515625 
L 43.21875 34.515625 
L 43.21875 35.40625 
Q 43.21875 41.609375 39.140625 45 
Q 35.0625 48.390625 27.6875 48.390625 
Q 23 48.390625 18.546875 47.265625 
Q 14.109375 46.140625 10.015625 43.890625 
L 10.015625 52.203125 
Q 14.9375 54.109375 19.578125 55.046875 
Q 24.21875 56 28.609375 56 
Q 40.484375 56 46.34375 49.84375 
Q 52.203125 43.703125 52.203125 31.203125 
z
" id="DejaVuSans-97"/>
      <path d="M 54.890625 33.015625 
L 54.890625 0 
L 45.90625 0 
L 45.90625 32.71875 
Q 45.90625 40.484375 42.875 44.328125 
Q 39.84375 48.1875 33.796875 48.1875 
Q 26.515625 48.1875 22.3125 43.546875 
Q 18.109375 38.921875 18.109375 30.90625 
L 18.109375 0 
L 9.078125 0 
L 9.078125 54.6875 
L 18.109375 54.6875 
L 18.109375 46.1875 
Q 21.34375 51.125 25.703125 53.5625 
Q 30.078125 56 35.796875 56 
Q 45.21875 56 50.046875 50.171875 
Q 54.890625 44.34375 54.890625 33.015625 
z
" id="DejaVuSans-110"/>
      <path d="M 48.78125 52.59375 
L 48.78125 44.1875 
Q 44.96875 46.296875 41.140625 47.34375 
Q 37.3125 48.390625 33.40625 48.390625 
Q 24.65625 48.390625 19.8125 42.84375 
Q 14.984375 37.3125 14.984375 27.296875 
Q 14.984375 17.28125 19.8125 11.734375 
Q 24.65625 6.203125 33.40625 6.203125 
Q 37.3125 6.203125 41.140625 7.25 
Q 44.96875 8.296875 48.78125 10.40625 
L 48.78125 2.09375 
Q 45.015625 0.34375 40.984375 -0.53125 
Q 36.96875 -1.421875 32.421875 -1.421875 
Q 20.0625 -1.421875 12.78125 6.34375 
Q 5.515625 14.109375 5.515625 27.296875 
Q 5.515625 40.671875 12.859375 48.328125 
Q 20.21875 56 33.015625 56 
Q 37.15625 56 41.109375 55.140625 
Q 45.0625 54.296875 48.78125 52.59375 
z
" id="DejaVuSans-99"/>
      <path d="M 56.203125 29.59375 
L 56.203125 25.203125 
L 14.890625 25.203125 
Q 15.484375 15.921875 20.484375 11.0625 
Q 25.484375 6.203125 34.421875 6.203125 
Q 39.59375 6.203125 44.453125 7.46875 
Q 49.3125 8.734375 54.109375 11.28125 
L 54.109375 2.78125 
Q 49.265625 0.734375 44.1875 -0.34375 
Q 39.109375 -1.421875 33.890625 -1.421875 
Q 20.796875 -1.421875 13.15625 6.1875 
Q 5.515625 13.8125 5.515625 26.8125 
Q 5.515625 40.234375 12.765625 48.109375 
Q 20.015625 56 32.328125 56 
Q 43.359375 56 49.78125 48.890625 
Q 56.203125 41.796875 56.203125 29.59375 
z
M 47.21875 32.234375 
Q 47.125 39.59375 43.09375 43.984375 
Q 39.0625 48.390625 32.421875 48.390625 
Q 24.90625 48.390625 20.390625 44.140625 
Q 15.875 39.890625 15.1875 32.171875 
z
" id="DejaVuSans-101"/>
      <path id="DejaVuSans-32"/>
      <path d="M 37.109375 75.984375 
L 37.109375 68.5 
L 28.515625 68.5 
Q 23.6875 68.5 21.796875 66.546875 
Q 19.921875 64.59375 19.921875 59.515625 
L 19.921875 54.6875 
L 34.71875 54.6875 
L 34.71875 47.703125 
L 19.921875 47.703125 
L 19.921875 0 
L 10.890625 0 
L 10.890625 47.703125 
L 2.296875 47.703125 
L 2.296875 54.6875 
L 10.890625 54.6875 
L 10.890625 58.5 
Q 10.890625 67.625 15.140625 71.796875 
Q 19.390625 75.984375 28.609375 75.984375 
z
" id="DejaVuSans-102"/>
      <path d="M 54.890625 33.015625 
L 54.890625 0 
L 45.90625 0 
L 45.90625 32.71875 
Q 45.90625 40.484375 42.875 44.328125 
Q 39.84375 48.1875 33.796875 48.1875 
Q 26.515625 48.1875 22.3125 43.546875 
Q 18.109375 38.921875 18.109375 30.90625 
L 18.109375 0 
L 9.078125 0 
L 9.078125 75.984375 
L 18.109375 75.984375 
L 18.109375 46.1875 
Q 21.34375 51.125 25.703125 53.5625 
Q 30.078125 56 35.796875 56 
Q 45.21875 56 50.046875 50.171875 
Q 54.890625 44.34375 54.890625 33.015625 
z
" id="DejaVuSans-104"/>
      <path d="M 45.40625 46.390625 
L 45.40625 75.984375 
L 54.390625 75.984375 
L 54.390625 0 
L 45.40625 0 
L 45.40625 8.203125 
Q 42.578125 3.328125 38.25 0.953125 
Q 33.9375 -1.421875 27.875 -1.421875 
Q 17.96875 -1.421875 11.734375 6.484375 
Q 5.515625 14.40625 5.515625 27.296875 
Q 5.515625 40.1875 11.734375 48.09375 
Q 17.96875 56 27.875 56 
Q 33.9375 56 38.25 53.625 
Q 42.578125 51.265625 45.40625 46.390625 
z
M 14.796875 27.296875 
Q 14.796875 17.390625 18.875 11.75 
Q 22.953125 6.109375 30.078125 6.109375 
Q 37.203125 6.109375 41.296875 11.75 
Q 45.40625 17.390625 45.40625 27.296875 
Q 45.40625 37.203125 41.296875 42.84375 
Q 37.203125 48.484375 30.078125 48.484375 
Q 22.953125 48.484375 18.875 42.84375 
Q 14.796875 37.203125 14.796875 27.296875 
z
" id="DejaVuSans-100"/>
      <path d="M 9.421875 54.6875 
L 18.40625 54.6875 
L 18.40625 0 
L 9.421875 0 
z
M 9.421875 75.984375 
L 18.40625 75.984375 
L 18.40625 64.59375 
L 9.421875 64.59375 
z
" id="DejaVuSans-105"/>
      <path d="M 4.203125 54.6875 
L 13.1875 54.6875 
L 24.421875 12.015625 
L 35.59375 54.6875 
L 46.1875 54.6875 
L 57.421875 12.015625 
L 68.609375 54.6875 
L 77.59375 54.6875 
L 63.28125 0 
L 52.6875 0 
L 40.921875 44.828125 
L 29.109375 0 
L 18.5 0 
z
" id="DejaVuSans-119"/>
      <path d="M 9.078125 75.984375 
L 18.109375 75.984375 
L 18.109375 31.109375 
L 44.921875 54.6875 
L 56.390625 54.6875 
L 27.390625 29.109375 
L 57.625 0 
L 45.90625 0 
L 18.109375 26.703125 
L 18.109375 0 
L 9.078125 0 
z
" id="DejaVuSans-107"/>
     </defs>
     <use xlink:href="#DejaVuSans-73"/>
     <use x="29.492188" xlink:href="#DejaVuSans-109"/>
     <use x="126.904297" xlink:href="#DejaVuSans-112"/>
     <use x="190.380859" xlink:href="#DejaVuSans-111"/>
     <use x="251.5625" xlink:href="#DejaVuSans-114"/>
     <use x="292.675781" xlink:href="#DejaVuSans-116"/>
     <use x="331.884766" xlink:href="#DejaVuSans-97"/>
     <use x="393.164062" xlink:href="#DejaVuSans-110"/>
     <use x="456.542969" xlink:href="#DejaVuSans-99"/>
     <use x="511.523438" xlink:href="#DejaVuSans-101"/>
     <use x="573.046875" xlink:href="#DejaVuSans-32"/>
     <use x="604.833984" xlink:href="#DejaVuSans-83"/>
     <use x="668.310547" xlink:href="#DejaVuSans-99"/>
     <use x="723.291016" xlink:href="#DejaVuSans-111"/>
     <use x="784.472656" xlink:href="#DejaVuSans-114"/>
     <use x="823.335938" xlink:href="#DejaVuSans-101"/>
     <use x="884.859375" xlink:href="#DejaVuSans-32"/>
     <use x="916.646484" xlink:href="#DejaVuSans-102"/>
     <use x="951.851562" xlink:href="#DejaVuSans-111"/>
     <use x="1013.033203" xlink:href="#DejaVuSans-114"/>
     <use x="1054.146484" xlink:href="#DejaVuSans-32"/>
     <use x="1085.933594" xlink:href="#DejaVuSans-69"/>
     <use x="1149.117188" xlink:href="#DejaVuSans-97"/>
     <use x="1210.396484" xlink:href="#DejaVuSans-99"/>
     <use x="1265.376953" xlink:href="#DejaVuSans-104"/>
     <use x="1328.755859" xlink:href="#DejaVuSans-32"/>
     <use x="1360.542969" xlink:href="#DejaVuSans-78"/>
     <use x="1435.347656" xlink:href="#DejaVuSans-111"/>
     <use x="1496.529297" xlink:href="#DejaVuSans-100"/>
     <use x="1560.005859" xlink:href="#DejaVuSans-101"/>
     <use x="1621.529297" xlink:href="#DejaVuSans-32"/>
     <use x="1653.316406" xlink:href="#DejaVuSans-105"/>
     <use x="1681.099609" xlink:href="#DejaVuSans-110"/>
     <use x="1744.478516" xlink:href="#DejaVuSans-32"/>
     <use x="1776.265625" xlink:href="#DejaVuSans-116"/>
     <use x="1815.474609" xlink:href="#DejaVuSans-104"/>
     <use x="1878.853516" xlink:href="#DejaVuSans-101"/>
     <use x="1940.376953" xlink:href="#DejaVuSans-32"/>
     <use x="1972.164062" xlink:href="#DejaVuSans-78"/>
     <use x="2046.96875" xlink:href="#DejaVuSans-101"/>
     <use x="2108.492188" xlink:href="#DejaVuSans-116"/>
     <use x="2147.701172" xlink:href="#DejaVuSans-119"/>
     <use x="2229.488281" xlink:href="#DejaVuSans-111"/>
     <use x="2290.669922" xlink:href="#DejaVuSans-114"/>
     <use x="2331.783203" xlink:href="#DejaVuSans-107"/>
    </g>
   </g>
  </g>
 </g>
 <defs>
  <clipPath id="pca0c2e8cdc">
   <rect height="443.52" width="669.6" x="7.2" y="22.318125"/>
  </clipPath>
 </defs>
</svg>
