<?xml version="1.0" encoding="utf-8" standalone="no"?>
<!DOCTYPE svg PUBLIC "-//W3C//DTD SVG 1.1//EN"
  "http://www.w3.org/Graphics/SVG/1.1/DTD/svg11.dtd">
<!-- Created with matplotlib (https://matplotlib.org/) -->
<svg height="473.038125pt" version="1.1" viewBox="0 0 684 473.038125" width="684pt" xmlns="http://www.w3.org/2000/svg" xmlns:xlink="http://www.w3.org/1999/xlink">
 <metadata>
  <rdf:RDF xmlns:cc="http://creativecommons.org/ns#" xmlns:dc="http://purl.org/dc/elements/1.1/" xmlns:rdf="http://www.w3.org/1999/02/22-rdf-syntax-ns#">
   <cc:Work>
    <dc:type rdf:resource="http://purl.org/dc/dcmitype/StillImage"/>
    <dc:date>2024-04-26T11:01:17.604608</dc:date>
    <dc:format>image/svg+xml</dc:format>
    <dc:creator>
     <cc:Agent>
      <dc:title>Matplotlib v3.3.1, https://matplotlib.org/</dc:title>
     </cc:Agent>
    </dc:creator>
   </cc:Work>
  </rdf:RDF>
 </metadata>
 <defs>
  <style type="text/css">*{stroke-linecap:butt;stroke-linejoin:round;}</style>
 </defs>
 <g id="figure_1">
  <g id="patch_1">
   <path d="M 0 473.038125 
L 684 473.038125 
L 684 0 
L 0 0 
z
" style="fill:#ffffff;"/>
  </g>
  <g id="axes_1">
   <g id="patch_2">
    <path clip-path="url(#p452dc40882)" d="M 411.386863 270.932898 
Q 439.93074 334.851626 468.018734 397.749487 
" style="fill:none;stroke:#808080;stroke-linecap:round;"/>
    <path clip-path="url(#p452dc40882)" d="M 468.213898 393.281611 
L 468.018734 397.749487 
L 464.561532 394.912631 
L 468.213898 393.281611 
z
" style="fill:#808080;stroke:#808080;stroke-linecap:round;"/>
   </g>
   <g id="patch_3">
    <path clip-path="url(#p452dc40882)" d="M 400.49249 267.586781 
Q 299.005208 330.396544 198.468618 392.617931 
" style="fill:none;stroke:#808080;stroke-linecap:round;"/>
    <path clip-path="url(#p452dc40882)" d="M 202.922433 392.213541 
L 198.468618 392.617931 
L 200.817395 388.812245 
L 202.922433 392.213541 
z
" style="fill:#808080;stroke:#808080;stroke-linecap:round;"/>
   </g>
   <g id="patch_4">
    <path clip-path="url(#p452dc40882)" d="M 414.47092 257.439923 
Q 481.394718 200.886354 547.464556 145.054417 
" style="fill:none;stroke:#808080;stroke-linecap:round;"/>
    <path clip-path="url(#p452dc40882)" d="M 543.118444 146.108602 
L 547.464556 145.054417 
L 545.700237 149.163818 
L 543.118444 146.108602 
z
" style="fill:#808080;stroke:#808080;stroke-linecap:round;"/>
   </g>
   <g id="patch_5">
    <path clip-path="url(#p452dc40882)" d="M 415.572206 259.091643 
Q 489.224508 221.504906 561.880958 184.42638 
" style="fill:none;stroke:#808080;stroke-linecap:round;"/>
    <path clip-path="url(#p452dc40882)" d="M 557.408974 184.463173 
L 561.880958 184.42638 
L 559.227202 188.026043 
L 557.408974 184.463173 
z
" style="fill:#808080;stroke:#808080;stroke-linecap:round;"/>
   </g>
   <g id="patch_6">
    <path clip-path="url(#p452dc40882)" d="M 401.162683 257.539073 
Q 294.841817 170.351736 189.385474 83.873343 
" style="fill:none;stroke:#808080;stroke-linecap:round;"/>
    <path clip-path="url(#p452dc40882)" d="M 191.210289 87.95624 
L 189.385474 83.873343 
L 193.74668 84.863229 
L 191.210289 87.95624 
z
" style="fill:#808080;stroke:#808080;stroke-linecap:round;"/>
   </g>
   <g id="patch_7">
    <path clip-path="url(#p452dc40882)" d="M 406.375215 406.157331 
Q 509.089261 327.97635 610.913665 250.472521 
" style="fill:none;stroke:#808080;stroke-linecap:round;"/>
    <path clip-path="url(#p452dc40882)" d="M 606.519455 251.303736 
L 610.913665 250.472521 
L 608.942111 254.486618 
L 606.519455 251.303736 
z
" style="fill:#808080;stroke:#808080;stroke-linecap:round;"/>
   </g>
   <g id="patch_8">
    <path clip-path="url(#p452dc40882)" d="M 354.500869 198.991736 
Q 433.903777 155.365722 512.326808 112.278078 
" style="fill:none;stroke:#808080;stroke-linecap:round;"/>
    <path clip-path="url(#p452dc40882)" d="M 507.858031 112.451351 
L 512.326808 112.278078 
L 509.78416 115.957064 
L 507.858031 112.451351 
z
" style="fill:#808080;stroke:#808080;stroke-linecap:round;"/>
   </g>
   <g id="patch_9">
    <path clip-path="url(#p452dc40882)" d="M 338.905913 199.865586 
Q 229.550673 154.834202 121.229244 110.228532 
" style="fill:none;stroke:#808080;stroke-linecap:round;"/>
    <path clip-path="url(#p452dc40882)" d="M 124.166384 113.600951 
L 121.229244 110.228532 
L 125.689463 109.902271 
L 124.166384 113.600951 
z
" style="fill:#808080;stroke:#808080;stroke-linecap:round;"/>
   </g>
   <g id="patch_10">
    <path clip-path="url(#p452dc40882)" d="M 489.908181 255.021669 
Q 549.983832 250.137041 608.945126 245.34302 
" style="fill:none;stroke:#808080;stroke-linecap:round;"/>
    <path clip-path="url(#p452dc40882)" d="M 604.796202 243.67376 
L 608.945126 245.34302 
L 605.120364 247.660603 
L 604.796202 243.67376 
z
" style="fill:#808080;stroke:#808080;stroke-linecap:round;"/>
   </g>
   <g id="patch_11">
    <path clip-path="url(#p452dc40882)" d="M 474.848541 249.922506 
Q 374.355332 159.181046 274.691928 69.188868 
" style="fill:none;stroke:#808080;stroke-linecap:round;"/>
    <path clip-path="url(#p452dc40882)" d="M 276.320374 73.35398 
L 274.691928 69.188868 
L 279.001086 70.385179 
L 276.320374 73.35398 
z
" style="fill:#808080;stroke:#808080;stroke-linecap:round;"/>
   </g>
   <g id="patch_12">
    <path clip-path="url(#p452dc40882)" d="M 478.267947 263.844724 
Q 449.516569 341.537329 421.153219 418.181396 
" style="fill:none;stroke:#808080;stroke-linecap:round;"/>
    <path clip-path="url(#p452dc40882)" d="M 424.417155 415.124155 
L 421.153219 418.181396 
L 420.665788 413.735902 
L 424.417155 415.124155 
z
" style="fill:#808080;stroke:#808080;stroke-linecap:round;"/>
   </g>
   <g id="patch_13">
    <path clip-path="url(#p452dc40882)" d="M 484.973899 263.549348 
Q 508.232401 312.732869 531.012943 360.905671 
" style="fill:none;stroke:#808080;stroke-linecap:round;"/>
    <path clip-path="url(#p452dc40882)" d="M 531.110966 356.434609 
L 531.012943 360.905671 
L 527.494908 358.144615 
L 531.110966 356.434609 
z
" style="fill:#808080;stroke:#808080;stroke-linecap:round;"/>
   </g>
   <g id="patch_14">
    <path clip-path="url(#p452dc40882)" d="M 502.199696 259.296043 
Q 363.698034 178.865814 226.163206 98.997041 
" style="fill:none;stroke:#808080;stroke-linecap:round;"/>
    <path clip-path="url(#p452dc40882)" d="M 228.61789 102.735292 
L 226.163206 98.997041 
L 230.626618 99.276244 
L 228.61789 102.735292 
z
" style="fill:#808080;stroke:#808080;stroke-linecap:round;"/>
   </g>
   <g id="patch_15">
    <path clip-path="url(#p452dc40882)" d="M 258.541991 257.781441 
Q 365.576088 256.792616 471.492198 255.81412 
" style="fill:none;stroke:#808080;stroke-linecap:round;"/>
    <path clip-path="url(#p452dc40882)" d="M 467.473892 253.851157 
L 471.492198 255.81412 
L 467.510844 257.850986 
L 467.473892 253.851157 
z
" style="fill:#808080;stroke:#808080;stroke-linecap:round;"/>
   </g>
   <g id="patch_16">
    <path clip-path="url(#p452dc40882)" d="M 242.031733 254.19972 
Q 157.593695 214.808951 74.168864 175.890848 
" style="fill:none;stroke:#808080;stroke-linecap:round;"/>
    <path clip-path="url(#p452dc40882)" d="M 76.94829 179.394387 
L 74.168864 175.890848 
L 78.639351 175.76943 
L 76.94829 179.394387 
z
" style="fill:#808080;stroke:#808080;stroke-linecap:round;"/>
   </g>
   <g id="patch_17">
    <path clip-path="url(#p452dc40882)" d="M 258.52774 258.329378 
Q 419.390142 267.034563 579.136143 275.679334 
" style="fill:none;stroke:#808080;stroke-linecap:round;"/>
    <path clip-path="url(#p452dc40882)" d="M 575.250061 273.46611 
L 579.136143 275.679334 
L 575.033914 277.460265 
L 575.250061 273.46611 
z
" style="fill:#808080;stroke:#808080;stroke-linecap:round;"/>
   </g>
   <g id="patch_18">
    <path clip-path="url(#p452dc40882)" d="M 283.376504 279.885793 
Q 378.026379 268.329596 471.566461 256.908899 
" style="fill:none;stroke:#808080;stroke-linecap:round;"/>
    <path clip-path="url(#p452dc40882)" d="M 467.353557 255.408418 
L 471.566461 256.908899 
L 467.838334 259.378933 
L 467.353557 255.408418 
z
" style="fill:#808080;stroke:#808080;stroke-linecap:round;"/>
   </g>
   <g id="patch_19">
    <path clip-path="url(#p452dc40882)" d="M 267.097096 276.932377 
Q 170.042607 226.346342 73.979563 176.27706 
" style="fill:none;stroke:#808080;stroke-linecap:round;"/>
    <path clip-path="url(#p452dc40882)" d="M 76.60227 179.899409 
L 73.979563 176.27706 
L 78.451066 176.352304 
L 76.60227 179.899409 
z
" style="fill:#808080;stroke:#808080;stroke-linecap:round;"/>
   </g>
   <g id="patch_20">
    <path clip-path="url(#p452dc40882)" d="M 283.438969 280.805286 
Q 431.842036 278.571651 579.127196 276.354841 
" style="fill:none;stroke:#808080;stroke-linecap:round;"/>
    <path clip-path="url(#p452dc40882)" d="M 575.09755 274.415265 
L 579.127196 276.354841 
L 575.157748 278.414812 
L 575.09755 274.415265 
z
" style="fill:#808080;stroke:#808080;stroke-linecap:round;"/>
   </g>
   <g id="patch_21">
    <path clip-path="url(#p452dc40882)" d="M 387.898654 308.094577 
Q 430.808846 284.027622 472.743908 260.507587 
" style="fill:none;stroke:#808080;stroke-linecap:round;"/>
    <path clip-path="url(#p452dc40882)" d="M 468.276817 260.719939 
L 472.743908 260.507587 
L 470.233535 264.208671 
L 468.276817 260.719939 
z
" style="fill:#808080;stroke:#808080;stroke-linecap:round;"/>
   </g>
   <g id="patch_22">
    <path clip-path="url(#p452dc40882)" d="M 372.432997 308.802637 
Q 222.823532 242.043826 74.235065 175.740605 
" style="fill:none;stroke:#808080;stroke-linecap:round;"/>
    <path clip-path="url(#p452dc40882)" d="M 77.072915 179.196992 
L 74.235065 175.740605 
L 78.702885 175.544157 
L 77.072915 179.196992 
z
" style="fill:#808080;stroke:#808080;stroke-linecap:round;"/>
   </g>
   <g id="patch_23">
    <path clip-path="url(#p452dc40882)" d="M 388.874898 310.854457 
Q 484.622336 294.269911 579.268145 277.87618 
" style="fill:none;stroke:#808080;stroke-linecap:round;"/>
    <path clip-path="url(#p452dc40882)" d="M 574.985491 276.588204 
L 579.268145 277.87618 
L 575.668172 280.529517 
L 574.985491 276.588204 
z
" style="fill:#808080;stroke:#808080;stroke-linecap:round;"/>
   </g>
   <g id="patch_24">
    <path clip-path="url(#p452dc40882)" d="M 397.749612 150.150971 
Q 436.823569 199.539949 475.20384 248.052116 
" style="fill:none;stroke:#808080;stroke-linecap:round;"/>
    <path clip-path="url(#p452dc40882)" d="M 474.290518 243.674235 
L 475.20384 248.052116 
L 471.153542 246.156045 
L 474.290518 243.674235 
z
" style="fill:#808080;stroke:#808080;stroke-linecap:round;"/>
   </g>
   <g id="patch_25">
    <path clip-path="url(#p452dc40882)" d="M 383.748858 144.106854 
Q 228.839734 157.557084 75.044452 170.910602 
" style="fill:none;stroke:#808080;stroke-linecap:round;"/>
    <path clip-path="url(#p452dc40882)" d="M 79.202462 172.557101 
L 75.044452 170.910602 
L 78.856457 168.572094 
L 79.202462 172.557101 
z
" style="fill:#808080;stroke:#808080;stroke-linecap:round;"/>
   </g>
   <g id="patch_26">
    <path clip-path="url(#p452dc40882)" d="M 399.551235 148.208772 
Q 490.63889 209.783471 580.800292 270.732029 
" style="fill:none;stroke:#808080;stroke-linecap:round;"/>
    <path clip-path="url(#p452dc40882)" d="M 578.606502 266.834942 
L 580.800292 270.732029 
L 576.366349 270.148809 
L 578.606502 266.834942 
z
" style="fill:#808080;stroke:#808080;stroke-linecap:round;"/>
   </g>
   <g id="patch_27">
    <path clip-path="url(#p452dc40882)" d="M 92.192757 217.399811 
Q 239.951606 143.516004 386.710467 70.132222 
" style="fill:none;stroke:#808080;stroke-linecap:round;"/>
    <path clip-path="url(#p452dc40882)" d="M 382.238331 70.132328 
L 386.710467 70.132222 
L 384.02727 73.709994 
L 382.238331 70.132328 
z
" style="fill:#808080;stroke:#808080;stroke-linecap:round;"/>
   </g>
   <g id="patch_28">
    <path clip-path="url(#p452dc40882)" d="M 544.041031 203.781663 
Q 369.746114 201.10358 196.5691 198.442673 
" style="fill:none;stroke:#808080;stroke-linecap:round;"/>
    <path clip-path="url(#p452dc40882)" d="M 200.537901 200.503891 
L 196.5691 198.442673 
L 200.599355 196.504363 
L 200.537901 200.503891 
z
" style="fill:#808080;stroke:#808080;stroke-linecap:round;"/>
   </g>
   <g id="patch_29">
    <path clip-path="url(#p452dc40882)" d="M 181.686598 205.289001 
Q 129.597129 276.673747 78.166689 347.155342 
" style="fill:none;stroke:#808080;stroke-linecap:round;"/>
    <path clip-path="url(#p452dc40882)" d="M 82.140108 345.10304 
L 78.166689 347.155342 
L 78.908899 342.745226 
L 82.140108 345.10304 
z
" style="fill:#808080;stroke:#808080;stroke-linecap:round;"/>
   </g>
   <g id="patch_30">
    <path clip-path="url(#p452dc40882)" d="M 145.75356 276.444548 
Q 236.194873 171.900558 325.904706 68.202109 
" style="fill:none;stroke:#808080;stroke-linecap:round;"/>
    <path clip-path="url(#p452dc40882)" d="M 321.775138 69.918695 
L 325.904706 68.202109 
L 324.800234 72.535715 
L 321.775138 69.918695 
z
" style="fill:#808080;stroke:#808080;stroke-linecap:round;"/>
   </g>
   <g id="patch_31">
    <path clip-path="url(#p452dc40882)" d="M 450.401658 101.044027 
Q 395.452265 82.321546 341.561164 63.959648 
" style="fill:none;stroke:#808080;stroke-linecap:round;"/>
    <path clip-path="url(#p452dc40882)" d="M 344.702389 67.142838 
L 341.561164 63.959648 
L 345.992451 63.356582 
L 344.702389 67.142838 
z
" style="fill:#808080;stroke:#808080;stroke-linecap:round;"/>
   </g>
   <g id="patch_32">
    <path clip-path="url(#p452dc40882)" d="M 546.659785 141.304251 
Q 450.922854 170.951776 356.253918 200.268568 
" style="fill:none;stroke:#808080;stroke-linecap:round;"/>
    <path clip-path="url(#p452dc40882)" d="M 360.666531 200.995788 
L 356.253918 200.268568 
L 359.483262 197.17481 
L 360.666531 200.995788 
z
" style="fill:#808080;stroke:#808080;stroke-linecap:round;"/>
   </g>
   <g id="patch_33">
    <path clip-path="url(#p452dc40882)" d="M 561.979146 180.874136 
Q 458.752181 191.571666 356.637294 202.153949 
" style="fill:none;stroke:#808080;stroke-linecap:round;"/>
    <path clip-path="url(#p452dc40882)" d="M 360.822145 203.730979 
L 356.637294 202.153949 
L 360.409828 199.752287 
L 360.822145 203.730979 
z
" style="fill:#808080;stroke:#808080;stroke-linecap:round;"/>
   </g>
   <g id="patch_34">
    <path clip-path="url(#p452dc40882)" d="M 188.71849 82.913415 
Q 264.366498 140.416588 339.124431 197.243177 
" style="fill:none;stroke:#808080;stroke-linecap:round;"/>
    <path clip-path="url(#p452dc40882)" d="M 337.150308 193.230343 
L 339.124431 197.243177 
L 334.729689 196.414775 
L 337.150308 193.230343 
z
" style="fill:#808080;stroke:#808080;stroke-linecap:round;"/>
   </g>
   <g id="patch_35">
    <path clip-path="url(#p452dc40882)" d="M 407.802602 241.440519 
Q 440.289054 247.756127 471.678019 253.858376 
" style="fill:none;stroke:#808080;stroke-linecap:round;"/>
    <path clip-path="url(#p452dc40882)" d="M 468.133199 251.131793 
L 471.678019 253.858376 
L 467.369861 255.058282 
L 468.133199 251.131793 
z
" style="fill:#808080;stroke:#808080;stroke-linecap:round;"/>
   </g>
   <g id="patch_36">
    <path clip-path="url(#p452dc40882)" d="M 390.811576 238.058545 
Q 232.30159 205.7716 74.887142 173.707806 
" style="fill:none;stroke:#808080;stroke-linecap:round;"/>
    <path clip-path="url(#p452dc40882)" d="M 78.407475 176.465932 
L 74.887142 173.707806 
L 79.205843 172.546415 
L 78.407475 176.465932 
z
" style="fill:#808080;stroke:#808080;stroke-linecap:round;"/>
   </g>
   <g id="patch_37">
    <path clip-path="url(#p452dc40882)" d="M 407.802298 241.420747 
Q 494.100016 257.997597 579.299774 274.36354 
" style="fill:none;stroke:#808080;stroke-linecap:round;"/>
    <path clip-path="url(#p452dc40882)" d="M 575.74887 271.644886 
L 579.299774 274.36354 
L 574.994308 275.573071 
L 575.74887 271.644886 
z
" style="fill:#808080;stroke:#808080;stroke-linecap:round;"/>
   </g>
   <g id="patch_38">
    <path clip-path="url(#p452dc40882)" d="M 271.314926 177.77543 
Q 372.23338 215.242033 472.103703 252.319511 
" style="fill:none;stroke:#808080;stroke-linecap:round;"/>
    <path clip-path="url(#p452dc40882)" d="M 469.04988 249.052377 
L 472.103703 252.319511 
L 467.657701 252.802289 
L 469.04988 249.052377 
z
" style="fill:#808080;stroke:#808080;stroke-linecap:round;"/>
   </g>
   <g id="patch_39">
    <path clip-path="url(#p452dc40882)" d="M 254.54181 174.630844 
Q 164.253623 173.259284 75.08334 171.904707 
" style="fill:none;stroke:#808080;stroke-linecap:round;"/>
    <path clip-path="url(#p452dc40882)" d="M 79.052501 173.965233 
L 75.08334 171.904707 
L 79.113257 169.965694 
L 79.052501 173.965233 
z
" style="fill:#808080;stroke:#808080;stroke-linecap:round;"/>
   </g>
   <g id="patch_40">
    <path clip-path="url(#p452dc40882)" d="M 271.466315 177.337343 
Q 426.048147 225.484539 579.562524 273.299257 
" style="fill:none;stroke:#808080;stroke-linecap:round;"/>
    <path clip-path="url(#p452dc40882)" d="M 576.338237 270.20023 
L 579.562524 273.299257 
L 575.14873 274.019271 
L 576.338237 270.20023 
z
" style="fill:#808080;stroke:#808080;stroke-linecap:round;"/>
   </g>
   <g id="patch_41">
    <path clip-path="url(#p452dc40882)" d="M 278.776455 309.126804 
Q 375.836548 283.529832 471.815568 258.217963 
" style="fill:none;stroke:#808080;stroke-linecap:round;"/>
    <path clip-path="url(#p452dc40882)" d="M 467.4378 257.3041 
L 471.815568 258.217963 
L 468.457817 261.17186 
L 467.4378 257.3041 
z
" style="fill:#808080;stroke:#808080;stroke-linecap:round;"/>
   </g>
   <g id="patch_42">
    <path clip-path="url(#p452dc40882)" d="M 263.243722 306.464748 
Q 167.855311 241.547246 73.391192 177.258778 
" style="fill:none;stroke:#808080;stroke-linecap:round;"/>
    <path clip-path="url(#p452dc40882)" d="M 75.572784 181.162706 
L 73.391192 177.258778 
L 77.82329 177.855861 
L 75.572784 181.162706 
z
" style="fill:#808080;stroke:#808080;stroke-linecap:round;"/>
   </g>
   <g id="patch_43">
    <path clip-path="url(#p452dc40882)" d="M 279.007811 310.38636 
Q 429.648792 293.771898 579.178478 277.280004 
" style="fill:none;stroke:#808080;stroke-linecap:round;"/>
    <path clip-path="url(#p452dc40882)" d="M 574.983333 275.730566 
L 579.178478 277.280004 
L 575.421841 279.706457 
L 574.983333 275.730566 
z
" style="fill:#808080;stroke:#808080;stroke-linecap:round;"/>
   </g>
   <g id="patch_44">
    <path clip-path="url(#p452dc40882)" d="M 316.771104 330.554595 
Q 395.080054 294.932417 472.371316 259.773179 
" style="fill:none;stroke:#808080;stroke-linecap:round;"/>
    <path clip-path="url(#p452dc40882)" d="M 467.902197 259.608944 
L 472.371316 259.773179 
L 469.558457 263.249933 
L 467.902197 259.608944 
z
" style="fill:#808080;stroke:#808080;stroke-linecap:round;"/>
   </g>
   <g id="patch_45">
    <path clip-path="url(#p452dc40882)" d="M 301.681005 329.33621 
Q 187.094785 252.947067 73.438831 177.178089 
" style="fill:none;stroke:#808080;stroke-linecap:round;"/>
    <path clip-path="url(#p452dc40882)" d="M 75.657671 181.060968 
L 73.438831 177.178089 
L 77.876438 177.732744 
L 75.657671 181.060968 
z
" style="fill:#808080;stroke:#808080;stroke-linecap:round;"/>
   </g>
   <g id="patch_46">
    <path clip-path="url(#p452dc40882)" d="M 317.369036 332.385933 
Q 448.894176 305.174193 579.324468 278.188969 
" style="fill:none;stroke:#808080;stroke-linecap:round;"/>
    <path clip-path="url(#p452dc40882)" d="M 575.002218 277.04086 
L 579.324468 278.188969 
L 575.812631 280.957904 
L 575.002218 277.04086 
z
" style="fill:#808080;stroke:#808080;stroke-linecap:round;"/>
   </g>
   <g id="patch_47">
    <path clip-path="url(#p452dc40882)" d="M 374.13503 170.759869 
Q 424.311926 210.551688 473.612813 249.648806 
" style="fill:none;stroke:#808080;stroke-linecap:round;"/>
    <path clip-path="url(#p452dc40882)" d="M 471.721431 245.596316 
L 473.612813 249.648806 
L 469.235992 248.730418 
L 471.721431 245.596316 
z
" style="fill:#808080;stroke:#808080;stroke-linecap:round;"/>
   </g>
   <g id="patch_48">
    <path clip-path="url(#p452dc40882)" d="M 358.692142 165.56366 
Q 216.330191 168.568499 75.086024 171.549745 
" style="fill:none;stroke:#808080;stroke-linecap:round;"/>
    <path clip-path="url(#p452dc40882)" d="M 79.127338 173.46489 
L 75.086024 171.549745 
L 79.042929 169.465781 
L 79.127338 173.46489 
z
" style="fill:#808080;stroke:#808080;stroke-linecap:round;"/>
   </g>
   <g id="patch_49">
    <path clip-path="url(#p452dc40882)" d="M 375.097056 169.255145 
Q 478.124715 220.793482 580.152469 271.831629 
" style="fill:none;stroke:#808080;stroke-linecap:round;"/>
    <path clip-path="url(#p452dc40882)" d="M 577.469868 268.25341 
L 580.152469 271.831629 
L 575.680333 271.830778 
L 577.469868 268.25341 
z
" style="fill:#808080;stroke:#808080;stroke-linecap:round;"/>
   </g>
   <g id="patch_50">
    <path clip-path="url(#p452dc40882)" d="M 272.794985 228.220371 
Q 372.741183 241.405722 471.57895 254.444844 
" style="fill:none;stroke:#808080;stroke-linecap:round;"/>
    <path clip-path="url(#p452dc40882)" d="M 467.874893 251.938859 
L 471.57895 254.444844 
L 467.351728 255.904499 
L 467.874893 251.938859 
z
" style="fill:#808080;stroke:#808080;stroke-linecap:round;"/>
   </g>
   <g id="patch_51">
    <path clip-path="url(#p452dc40882)" d="M 255.863343 224.766397 
Q 164.755627 199.421614 74.725045 174.376472 
" style="fill:none;stroke:#808080;stroke-linecap:round;"/>
    <path clip-path="url(#p452dc40882)" d="M 78.042696 177.375337 
L 74.725045 174.376472 
L 79.114727 173.52167 
L 78.042696 177.375337 
z
" style="fill:#808080;stroke:#808080;stroke-linecap:round;"/>
   </g>
   <g id="patch_52">
    <path clip-path="url(#p452dc40882)" d="M 272.77026 228.382883 
Q 426.554304 251.647659 579.232893 274.7452 
" style="fill:none;stroke:#808080;stroke-linecap:round;"/>
    <path clip-path="url(#p452dc40882)" d="M 575.577054 272.16938 
L 579.232893 274.7452 
L 574.978734 276.124379 
L 575.577054 272.16938 
z
" style="fill:#808080;stroke:#808080;stroke-linecap:round;"/>
   </g>
   <g id="patch_53">
    <path clip-path="url(#p452dc40882)" d="M 340.066505 248.035277 
Q 406.345502 251.644063 471.508118 255.192063 
" style="fill:none;stroke:#808080;stroke-linecap:round;"/>
    <path clip-path="url(#p452dc40882)" d="M 467.62277 252.97755 
L 471.508118 255.192063 
L 467.405299 256.971633 
L 467.62277 252.97755 
z
" style="fill:#808080;stroke:#808080;stroke-linecap:round;"/>
   </g>
   <g id="patch_54">
    <path clip-path="url(#p452dc40882)" d="M 323.090375 245.191934 
Q 198.36167 209.660148 74.708219 174.434672 
" style="fill:none;stroke:#808080;stroke-linecap:round;"/>
    <path clip-path="url(#p452dc40882)" d="M 78.007224 177.454038 
L 74.708219 174.434672 
L 79.103114 173.607088 
L 78.007224 177.454038 
z
" style="fill:#808080;stroke:#808080;stroke-linecap:round;"/>
   </g>
   <g id="patch_55">
    <path clip-path="url(#p452dc40882)" d="M 340.02672 248.522015 
Q 460.159145 261.88603 579.18039 275.126433 
" style="fill:none;stroke:#808080;stroke-linecap:round;"/>
    <path clip-path="url(#p452dc40882)" d="M 575.426037 272.696447 
L 579.18039 275.126433 
L 574.983789 276.671924 
L 575.426037 272.696447 
z
" style="fill:#808080;stroke:#808080;stroke-linecap:round;"/>
   </g>
   <g id="patch_56">
    <path clip-path="url(#p452dc40882)" d="M 319.646898 214.772403 
Q 396.263791 234.184867 471.796897 253.322732 
" style="fill:none;stroke:#808080;stroke-linecap:round;"/>
    <path clip-path="url(#p452dc40882)" d="M 468.410641 250.401557 
L 471.796897 253.322732 
L 467.428203 254.279032 
L 468.410641 250.401557 
z
" style="fill:#808080;stroke:#808080;stroke-linecap:round;"/>
   </g>
   <g id="patch_57">
    <path clip-path="url(#p452dc40882)" d="M 302.709094 211.225304 
Q 188.280163 192.201095 74.954128 173.360247 
" style="fill:none;stroke:#808080;stroke-linecap:round;"/>
    <path clip-path="url(#p452dc40882)" d="M 78.571963 175.989177 
L 74.954128 173.360247 
L 79.227972 172.043337 
L 78.571963 175.989177 
z
" style="fill:#808080;stroke:#808080;stroke-linecap:round;"/>
   </g>
   <g id="patch_58">
    <path clip-path="url(#p452dc40882)" d="M 319.697829 214.578952 
Q 450.078511 244.427105 579.369353 274.025761 
" style="fill:none;stroke:#808080;stroke-linecap:round;"/>
    <path clip-path="url(#p452dc40882)" d="M 575.916539 271.183565 
L 579.369353 274.025761 
L 575.023908 275.082695 
L 575.916539 271.183565 
z
" style="fill:#808080;stroke:#808080;stroke-linecap:round;"/>
   </g>
   <g id="patch_59">
    <path clip-path="url(#p452dc40882)" d="M 338.943833 306.091892 
Q 406.027772 282.351943 472.057728 258.984982 
" style="fill:none;stroke:#808080;stroke-linecap:round;"/>
    <path clip-path="url(#p452dc40882)" d="M 467.619663 258.434003 
L 472.057728 258.984982 
L 468.954105 262.204847 
L 467.619663 258.434003 
z
" style="fill:#808080;stroke:#808080;stroke-linecap:round;"/>
   </g>
   <g id="patch_60">
    <path clip-path="url(#p452dc40882)" d="M 323.090197 305.003705 
Q 198.042966 240.36739 73.988932 176.244454 
" style="fill:none;stroke:#808080;stroke-linecap:round;"/>
    <path clip-path="url(#p452dc40882)" d="M 76.623944 179.857861 
L 73.988932 176.244454 
L 78.460665 176.304489 
L 76.623944 179.857861 
z
" style="fill:#808080;stroke:#808080;stroke-linecap:round;"/>
   </g>
   <g id="patch_61">
    <path clip-path="url(#p452dc40882)" d="M 339.372784 307.889321 
Q 459.839904 292.594073 579.197894 277.439648 
" style="fill:none;stroke:#808080;stroke-linecap:round;"/>
    <path clip-path="url(#p452dc40882)" d="M 574.97784 275.959396 
L 579.197894 277.439648 
L 575.48166 279.92754 
L 574.97784 275.959396 
z
" style="fill:#808080;stroke:#808080;stroke-linecap:round;"/>
   </g>
   <g id="patch_62">
    <path clip-path="url(#p452dc40882)" d="M 320.783659 173.269974 
Q 397.17759 212.518433 472.577057 251.255972 
" style="fill:none;stroke:#808080;stroke-linecap:round;"/>
    <path clip-path="url(#p452dc40882)" d="M 469.933113 247.649095 
L 472.577057 251.255972 
L 468.105189 251.207001 
L 469.933113 247.649095 
z
" style="fill:#808080;stroke:#808080;stroke-linecap:round;"/>
   </g>
   <g id="patch_63">
    <path clip-path="url(#p452dc40882)" d="M 304.420175 169.398495 
Q 189.192039 170.534651 75.081883 171.659784 
" style="fill:none;stroke:#808080;stroke-linecap:round;"/>
    <path clip-path="url(#p452dc40882)" d="M 79.101408 173.620248 
L 75.081883 171.659784 
L 79.06197 169.620443 
L 79.101408 173.620248 
z
" style="fill:#808080;stroke:#808080;stroke-linecap:round;"/>
   </g>
   <g id="patch_64">
    <path clip-path="url(#p452dc40882)" d="M 321.158319 172.443138 
Q 450.990986 222.760325 579.78117 272.673495 
" style="fill:none;stroke:#808080;stroke-linecap:round;"/>
    <path clip-path="url(#p452dc40882)" d="M 576.774202 269.363186 
L 579.78117 272.673495 
L 575.328742 273.092884 
L 576.774202 269.363186 
z
" style="fill:#808080;stroke:#808080;stroke-linecap:round;"/>
   </g>
   <g id="patch_65">
    <path clip-path="url(#p452dc40882)" d="M 344.539109 277.090619 
Q 408.626973 267.075881 471.610209 257.233759 
" style="fill:none;stroke:#808080;stroke-linecap:round;"/>
    <path clip-path="url(#p452dc40882)" d="M 467.349386 255.875308 
L 471.610209 257.233759 
L 467.966954 259.827346 
L 467.349386 255.875308 
z
" style="fill:#808080;stroke:#808080;stroke-linecap:round;"/>
   </g>
   <g id="patch_66">
    <path clip-path="url(#p452dc40882)" d="M 327.928167 275.251547 
Q 200.646316 225.091761 74.404641 175.341894 
" style="fill:none;stroke:#808080;stroke-linecap:round;"/>
    <path clip-path="url(#p452dc40882)" d="M 77.392808 178.669183 
L 74.404641 175.341894 
L 78.859373 174.947734 
L 77.392808 178.669183 
z
" style="fill:#808080;stroke:#808080;stroke-linecap:round;"/>
   </g>
   <g id="patch_67">
    <path clip-path="url(#p452dc40882)" d="M 344.642405 278.35117 
Q 462.442461 277.317444 579.124526 276.293528 
" style="fill:none;stroke:#808080;stroke-linecap:round;"/>
    <path clip-path="url(#p452dc40882)" d="M 575.10713 274.328705 
L 579.124526 276.293528 
L 575.14223 278.328551 
L 575.10713 274.328705 
z
" style="fill:#808080;stroke:#808080;stroke-linecap:round;"/>
   </g>
   <g id="patch_68">
    <path clip-path="url(#p452dc40882)" d="M 411.645936 194.747738 
Q 443.201119 222.382149 473.915209 249.279973 
" style="fill:none;stroke:#808080;stroke-linecap:round;"/>
    <path clip-path="url(#p452dc40882)" d="M 472.223666 245.140084 
L 473.915209 249.279973 
L 469.588372 248.149274 
L 472.223666 245.140084 
z
" style="fill:#808080;stroke:#808080;stroke-linecap:round;"/>
   </g>
   <g id="patch_69">
    <path clip-path="url(#p452dc40882)" d="M 396.486256 188.604021 
Q 235.220479 180.400093 75.071291 172.252969 
" style="fill:none;stroke:#808080;stroke-linecap:round;"/>
    <path clip-path="url(#p452dc40882)" d="M 78.964513 174.453611 
L 75.071291 172.252969 
L 79.167738 170.458777 
L 78.964513 174.453611 
z
" style="fill:#808080;stroke:#808080;stroke-linecap:round;"/>
   </g>
   <g id="patch_70">
    <path clip-path="url(#p452dc40882)" d="M 412.958993 192.755962 
Q 497.016878 232.62591 580.0646 272.016723 
" style="fill:none;stroke:#808080;stroke-linecap:round;"/>
    <path clip-path="url(#p452dc40882)" d="M 577.307635 268.49548 
L 580.0646 272.016723 
L 575.593427 272.109549 
L 577.307635 268.49548 
z
" style="fill:#808080;stroke:#808080;stroke-linecap:round;"/>
   </g>
   <g id="patch_71">
    <path clip-path="url(#p452dc40882)" d="M 471.569156 179.550573 
Q 475.874217 213.343591 480.037989 246.027537 
" style="fill:none;stroke:#808080;stroke-linecap:round;"/>
    <path clip-path="url(#p452dc40882)" d="M 481.51646 241.806859 
L 480.037989 246.027537 
L 477.548529 242.312354 
L 481.51646 241.806859 
z
" style="fill:#808080;stroke:#808080;stroke-linecap:round;"/>
   </g>
   <g id="patch_72">
    <path clip-path="url(#p452dc40882)" d="M 461.816307 170.976864 
Q 267.891527 171.358009 75.084779 171.736957 
" style="fill:none;stroke:#808080;stroke-linecap:round;"/>
    <path clip-path="url(#p452dc40882)" d="M 79.088702 173.729091 
L 75.084779 171.736957 
L 79.08084 169.729099 
L 79.088702 173.729091 
z
" style="fill:#808080;stroke:#808080;stroke-linecap:round;"/>
   </g>
   <g id="patch_73">
    <path clip-path="url(#p452dc40882)" d="M 476.947537 176.712378 
Q 529.686868 223.583111 581.590502 269.711139 
" style="fill:none;stroke:#808080;stroke-linecap:round;"/>
    <path clip-path="url(#p452dc40882)" d="M 579.929211 265.559018 
L 581.590502 269.711139 
L 577.27203 268.548899 
L 579.929211 265.559018 
z
" style="fill:#808080;stroke:#808080;stroke-linecap:round;"/>
   </g>
   <g id="PathCollection_1">
    <defs>
     <path d="M 0 11.18034 
C 2.965061 11.18034 5.80908 10.002309 7.905694 7.905694 
C 10.002309 5.80908 11.18034 2.965061 11.18034 -0 
C 11.18034 -2.965061 10.002309 -5.80908 7.905694 -7.905694 
C 5.80908 -10.002309 2.965061 -11.18034 0 -11.18034 
C -2.965061 -11.18034 -5.80908 -10.002309 -7.905694 -7.905694 
C -10.002309 -5.80908 -11.18034 -2.965061 -11.18034 0 
C -11.18034 2.965061 -10.002309 5.80908 -7.905694 7.905694 
C -5.80908 10.002309 -2.965061 11.18034 0 11.18034 
z
" id="C0_0_5247f99051"/>
    </defs>
    <g clip-path="url(#p452dc40882)">
     <use style="fill:#5f5f5f;stroke:#5f5f5f;" x="407.85718" xlink:href="#C0_0_5247f99051" y="263.028826"/>
    </g>
    <g clip-path="url(#p452dc40882)">
     <use style="fill:#ececec;stroke:#ececec;" x="618.694215" xlink:href="#C0_0_5247f99051" y="244.550341"/>
    </g>
    <g clip-path="url(#p452dc40882)">
     <use style="fill:#ebebeb;stroke:#ebebeb;" x="399.481329" xlink:href="#C0_0_5247f99051" y="411.404625"/>
    </g>
    <g clip-path="url(#p452dc40882)">
     <use style="fill:#d1d1d1;stroke:#d1d1d1;" x="346.910799" xlink:href="#C0_0_5247f99051" y="203.161917"/>
    </g>
    <g clip-path="url(#p452dc40882)">
     <use style="fill:#adadad;stroke:#adadad;" x="481.273239" xlink:href="#C0_0_5247f99051" y="255.723758"/>
    </g>
    <g clip-path="url(#p452dc40882)">
     <use style="fill:#efefef;stroke:#efefef;" x="72.403351" xlink:href="#C0_0_5247f99051" y="355.053569"/>
    </g>
    <g clip-path="url(#p452dc40882)">
     <use style="fill:#e3e3e3;stroke:#e3e3e3;" x="509.686785" xlink:href="#C0_0_5247f99051" y="263.643921"/>
    </g>
    <g clip-path="url(#p452dc40882)">
     <use style="fill:#ececec;stroke:#ececec;" x="395.454418" xlink:href="#C0_0_5247f99051" y="65.759987"/>
    </g>
    <g clip-path="url(#p452dc40882)">
     <use style="fill:#eeeeee;stroke:#eeeeee;" x="217.705924" xlink:href="#C0_0_5247f99051" y="94.085756"/>
    </g>
    <g clip-path="url(#p452dc40882)">
     <use style="fill:#ececec;stroke:#ececec;" x="332.303623" xlink:href="#C0_0_5247f99051" y="60.805398"/>
    </g>
    <g clip-path="url(#p452dc40882)">
     <use style="fill:#eeeeee;stroke:#eeeeee;" x="249.881025" xlink:href="#C0_0_5247f99051" y="257.861455"/>
    </g>
    <g clip-path="url(#p452dc40882)">
     <use style="fill:#f3f3f3;stroke:#f3f3f3;" x="274.777778" xlink:href="#C0_0_5247f99051" y="280.935647"/>
    </g>
    <g clip-path="url(#p452dc40882)">
     <use style="fill:#f3f3f3;stroke:#f3f3f3;" x="380.343059" xlink:href="#C0_0_5247f99051" y="312.332269"/>
    </g>
    <g clip-path="url(#p452dc40882)">
     <use style="fill:#b6b6b6;stroke:#b6b6b6;" x="392.375255" xlink:href="#C0_0_5247f99051" y="143.357854"/>
    </g>
    <g clip-path="url(#p452dc40882)">
     <use style="fill:#e0e0e0;stroke:#e0e0e0;" x="84.445534" xlink:href="#C0_0_5247f99051" y="221.273652"/>
    </g>
    <g clip-path="url(#p452dc40882)">
     <use style="fill:#ececec;stroke:#ececec;" x="552.697908" xlink:href="#C0_0_5247f99051" y="203.914678"/>
    </g>
    <g clip-path="url(#p452dc40882)">
     <use style="fill:#e6e6e6;stroke:#e6e6e6;" x="186.791987" xlink:href="#C0_0_5247f99051" y="198.292445"/>
    </g>
    <g clip-path="url(#p452dc40882)">
     <use style="fill:#ececec;stroke:#ececec;" x="140.09004" xlink:href="#C0_0_5247f99051" y="282.99119"/>
    </g>
    <g clip-path="url(#p452dc40882)">
     <use style="fill:#ebebeb;stroke:#ebebeb;" x="458.599645" xlink:href="#C0_0_5247f99051" y="103.837263"/>
    </g>
    <g clip-path="url(#p452dc40882)">
     <use style="fill:#ececec;stroke:#ececec;" x="472.006182" xlink:href="#C0_0_5247f99051" y="406.678637"/>
    </g>
    <g clip-path="url(#p452dc40882)">
     <use style="fill:#ececec;stroke:#ececec;" x="190.152031" xlink:href="#C0_0_5247f99051" y="397.765008"/>
    </g>
    <g clip-path="url(#p452dc40882)">
     <use style="fill:#ececec;stroke:#ececec;" x="554.934915" xlink:href="#C0_0_5247f99051" y="138.741634"/>
    </g>
    <g clip-path="url(#p452dc40882)">
     <use style="fill:#c2c2c2;stroke:#c2c2c2;" x="570.590345" xlink:href="#C0_0_5247f99051" y="179.981748"/>
    </g>
    <g clip-path="url(#p452dc40882)">
     <use style="fill:#c2c2c2;stroke:#c2c2c2;" x="181.823916" xlink:href="#C0_0_5247f99051" y="77.672565"/>
    </g>
    <g clip-path="url(#p452dc40882)">
     <use style="fill:#ececec;stroke:#ececec;" x="520.895708" xlink:href="#C0_0_5247f99051" y="107.570103"/>
    </g>
    <g clip-path="url(#p452dc40882)">
     <use style="fill:#ececec;stroke:#ececec;" x="112.186783" xlink:href="#C0_0_5247f99051" y="106.504938"/>
    </g>
    <g clip-path="url(#p452dc40882)">
     <use style="fill:#eeeeee;stroke:#eeeeee;" x="65.305785" xlink:href="#C0_0_5247f99051" y="171.756177"/>
    </g>
    <g clip-path="url(#p452dc40882)">
     <use style="fill:#ececec;stroke:#ececec;" x="588.900531" xlink:href="#C0_0_5247f99051" y="276.207741"/>
    </g>
    <g clip-path="url(#p452dc40882)">
     <use style="fill:#ececec;stroke:#ececec;" x="399.299531" xlink:href="#C0_0_5247f99051" y="239.787459"/>
    </g>
    <g clip-path="url(#p452dc40882)">
     <use style="fill:#838383;stroke:#838383;" x="263.199036" xlink:href="#C0_0_5247f99051" y="174.762355"/>
    </g>
    <g clip-path="url(#p452dc40882)">
     <use style="fill:#ececec;stroke:#ececec;" x="270.400895" xlink:href="#C0_0_5247f99051" y="311.335632"/>
    </g>
    <g clip-path="url(#p452dc40882)">
     <use style="fill:#e1e1e1;stroke:#e1e1e1;" x="308.887816" xlink:href="#C0_0_5247f99051" y="334.140645"/>
    </g>
    <g clip-path="url(#p452dc40882)">
     <use style="fill:#e3e3e3;stroke:#e3e3e3;" x="367.352195" xlink:href="#C0_0_5247f99051" y="165.380872"/>
    </g>
    <g clip-path="url(#p452dc40882)">
     <use style="fill:#ececec;stroke:#ececec;" x="264.206515" xlink:href="#C0_0_5247f99051" y="227.087341"/>
    </g>
    <g clip-path="url(#p452dc40882)">
     <use style="fill:#e1e1e1;stroke:#e1e1e1;" x="331.418582" xlink:href="#C0_0_5247f99051" y="247.564411"/>
    </g>
    <g clip-path="url(#p452dc40882)">
     <use style="fill:#ececec;stroke:#ececec;" x="311.254397" xlink:href="#C0_0_5247f99051" y="212.64599"/>
    </g>
    <g clip-path="url(#p452dc40882)">
     <use style="fill:#ececec;stroke:#ececec;" x="330.782775" xlink:href="#C0_0_5247f99051" y="308.979961"/>
    </g>
    <g clip-path="url(#p452dc40882)">
     <use style="fill:#dfdfdf;stroke:#dfdfdf;" x="313.081904" xlink:href="#C0_0_5247f99051" y="169.313089"/>
    </g>
    <g clip-path="url(#p452dc40882)">
     <use style="fill:#dfdfdf;stroke:#dfdfdf;" x="335.986299" xlink:href="#C0_0_5247f99051" y="278.42713"/>
    </g>
    <g clip-path="url(#p452dc40882)">
     <use style="fill:#ececec;stroke:#ececec;" x="405.132826" xlink:href="#C0_0_5247f99051" y="189.04389"/>
    </g>
    <g clip-path="url(#p452dc40882)">
     <use style="fill:#ececec;stroke:#ececec;" x="470.47474" xlink:href="#C0_0_5247f99051" y="170.959846"/>
    </g>
    <g clip-path="url(#p452dc40882)">
     <use style="fill:#ececec;stroke:#ececec;" x="267.434229" xlink:href="#C0_0_5247f99051" y="62.635447"/>
    </g>
    <g clip-path="url(#p452dc40882)">
     <use style="fill:#ececec;stroke:#ececec;" x="417.759917" xlink:href="#C0_0_5247f99051" y="427.350852"/>
    </g>
    <g clip-path="url(#p452dc40882)">
     <use style="fill:#ececec;stroke:#ececec;" x="535.191973" xlink:href="#C0_0_5247f99051" y="369.742845"/>
    </g>
   </g>
   <g id="text_1">
    <g clip-path="url(#p452dc40882)">
     <!-- ITGAV -->
     <g transform="translate(392.93218 265.788201)scale(0.1 -0.1)">
      <defs>
       <path d="M 9.8125 72.90625 
L 19.671875 72.90625 
L 19.671875 0 
L 9.8125 0 
z
" id="DejaVuSans-73"/>
       <path d="M -0.296875 72.90625 
L 61.375 72.90625 
L 61.375 64.59375 
L 35.5 64.59375 
L 35.5 0 
L 25.59375 0 
L 25.59375 64.59375 
L -0.296875 64.59375 
z
" id="DejaVuSans-84"/>
       <path d="M 59.515625 10.40625 
L 59.515625 29.984375 
L 43.40625 29.984375 
L 43.40625 38.09375 
L 69.28125 38.09375 
L 69.28125 6.78125 
Q 63.578125 2.734375 56.6875 0.65625 
Q 49.8125 -1.421875 42 -1.421875 
Q 24.90625 -1.421875 15.25 8.5625 
Q 5.609375 18.5625 5.609375 36.375 
Q 5.609375 54.25 15.25 64.234375 
Q 24.90625 74.21875 42 74.21875 
Q 49.125 74.21875 55.546875 72.453125 
Q 61.96875 70.703125 67.390625 67.28125 
L 67.390625 56.78125 
Q 61.921875 61.421875 55.765625 63.765625 
Q 49.609375 66.109375 42.828125 66.109375 
Q 29.4375 66.109375 22.71875 58.640625 
Q 16.015625 51.171875 16.015625 36.375 
Q 16.015625 21.625 22.71875 14.15625 
Q 29.4375 6.6875 42.828125 6.6875 
Q 48.046875 6.6875 52.140625 7.59375 
Q 56.25 8.5 59.515625 10.40625 
z
" id="DejaVuSans-71"/>
       <path d="M 34.1875 63.1875 
L 20.796875 26.90625 
L 47.609375 26.90625 
z
M 28.609375 72.90625 
L 39.796875 72.90625 
L 67.578125 0 
L 57.328125 0 
L 50.6875 18.703125 
L 17.828125 18.703125 
L 11.1875 0 
L 0.78125 0 
z
" id="DejaVuSans-65"/>
       <path d="M 28.609375 0 
L 0.78125 72.90625 
L 11.078125 72.90625 
L 34.1875 11.53125 
L 57.328125 72.90625 
L 67.578125 72.90625 
L 39.796875 0 
z
" id="DejaVuSans-86"/>
      </defs>
      <use xlink:href="#DejaVuSans-73"/>
      <use x="29.492188" xlink:href="#DejaVuSans-84"/>
      <use x="90.576172" xlink:href="#DejaVuSans-71"/>
      <use x="168.066406" xlink:href="#DejaVuSans-65"/>
      <use x="230.099609" xlink:href="#DejaVuSans-86"/>
     </g>
    </g>
   </g>
   <g id="text_2">
    <g clip-path="url(#p452dc40882)">
     <!-- CTNNB1 -->
     <g transform="translate(598.055934 247.309716)scale(0.1 -0.1)">
      <defs>
       <path d="M 64.40625 67.28125 
L 64.40625 56.890625 
Q 59.421875 61.53125 53.78125 63.8125 
Q 48.140625 66.109375 41.796875 66.109375 
Q 29.296875 66.109375 22.65625 58.46875 
Q 16.015625 50.828125 16.015625 36.375 
Q 16.015625 21.96875 22.65625 14.328125 
Q 29.296875 6.6875 41.796875 6.6875 
Q 48.140625 6.6875 53.78125 8.984375 
Q 59.421875 11.28125 64.40625 15.921875 
L 64.40625 5.609375 
Q 59.234375 2.09375 53.4375 0.328125 
Q 47.65625 -1.421875 41.21875 -1.421875 
Q 24.65625 -1.421875 15.125 8.703125 
Q 5.609375 18.84375 5.609375 36.375 
Q 5.609375 53.953125 15.125 64.078125 
Q 24.65625 74.21875 41.21875 74.21875 
Q 47.75 74.21875 53.53125 72.484375 
Q 59.328125 70.75 64.40625 67.28125 
z
" id="DejaVuSans-67"/>
       <path d="M 9.8125 72.90625 
L 23.09375 72.90625 
L 55.421875 11.921875 
L 55.421875 72.90625 
L 64.984375 72.90625 
L 64.984375 0 
L 51.703125 0 
L 19.390625 60.984375 
L 19.390625 0 
L 9.8125 0 
z
" id="DejaVuSans-78"/>
       <path d="M 19.671875 34.8125 
L 19.671875 8.109375 
L 35.5 8.109375 
Q 43.453125 8.109375 47.28125 11.40625 
Q 51.125 14.703125 51.125 21.484375 
Q 51.125 28.328125 47.28125 31.5625 
Q 43.453125 34.8125 35.5 34.8125 
z
M 19.671875 64.796875 
L 19.671875 42.828125 
L 34.28125 42.828125 
Q 41.5 42.828125 45.03125 45.53125 
Q 48.578125 48.25 48.578125 53.8125 
Q 48.578125 59.328125 45.03125 62.0625 
Q 41.5 64.796875 34.28125 64.796875 
z
M 9.8125 72.90625 
L 35.015625 72.90625 
Q 46.296875 72.90625 52.390625 68.21875 
Q 58.5 63.53125 58.5 54.890625 
Q 58.5 48.1875 55.375 44.234375 
Q 52.25 40.28125 46.1875 39.3125 
Q 53.46875 37.75 57.5 32.78125 
Q 61.53125 27.828125 61.53125 20.40625 
Q 61.53125 10.640625 54.890625 5.3125 
Q 48.25 0 35.984375 0 
L 9.8125 0 
z
" id="DejaVuSans-66"/>
       <path d="M 12.40625 8.296875 
L 28.515625 8.296875 
L 28.515625 63.921875 
L 10.984375 60.40625 
L 10.984375 69.390625 
L 28.421875 72.90625 
L 38.28125 72.90625 
L 38.28125 8.296875 
L 54.390625 8.296875 
L 54.390625 0 
L 12.40625 0 
z
" id="DejaVuSans-49"/>
      </defs>
      <use xlink:href="#DejaVuSans-67"/>
      <use x="69.824219" xlink:href="#DejaVuSans-84"/>
      <use x="130.908203" xlink:href="#DejaVuSans-78"/>
      <use x="205.712891" xlink:href="#DejaVuSans-78"/>
      <use x="280.517578" xlink:href="#DejaVuSans-66"/>
      <use x="349.121094" xlink:href="#DejaVuSans-49"/>
     </g>
    </g>
   </g>
   <g id="text_3">
    <g clip-path="url(#p452dc40882)">
     <!-- GSK3B -->
     <g transform="translate(382.542266 414.164)scale(0.1 -0.1)">
      <defs>
       <path d="M 53.515625 70.515625 
L 53.515625 60.890625 
Q 47.90625 63.578125 42.921875 64.890625 
Q 37.9375 66.21875 33.296875 66.21875 
Q 25.25 66.21875 20.875 63.09375 
Q 16.5 59.96875 16.5 54.203125 
Q 16.5 49.359375 19.40625 46.890625 
Q 22.3125 44.4375 30.421875 42.921875 
L 36.375 41.703125 
Q 47.40625 39.59375 52.65625 34.296875 
Q 57.90625 29 57.90625 20.125 
Q 57.90625 9.515625 50.796875 4.046875 
Q 43.703125 -1.421875 29.984375 -1.421875 
Q 24.8125 -1.421875 18.96875 -0.25 
Q 13.140625 0.921875 6.890625 3.21875 
L 6.890625 13.375 
Q 12.890625 10.015625 18.65625 8.296875 
Q 24.421875 6.59375 29.984375 6.59375 
Q 38.421875 6.59375 43.015625 9.90625 
Q 47.609375 13.234375 47.609375 19.390625 
Q 47.609375 24.75 44.3125 27.78125 
Q 41.015625 30.8125 33.5 32.328125 
L 27.484375 33.5 
Q 16.453125 35.6875 11.515625 40.375 
Q 6.59375 45.0625 6.59375 53.421875 
Q 6.59375 63.09375 13.40625 68.65625 
Q 20.21875 74.21875 32.171875 74.21875 
Q 37.3125 74.21875 42.625 73.28125 
Q 47.953125 72.359375 53.515625 70.515625 
z
" id="DejaVuSans-83"/>
       <path d="M 9.8125 72.90625 
L 19.671875 72.90625 
L 19.671875 42.09375 
L 52.390625 72.90625 
L 65.09375 72.90625 
L 28.90625 38.921875 
L 67.671875 0 
L 54.6875 0 
L 19.671875 35.109375 
L 19.671875 0 
L 9.8125 0 
z
" id="DejaVuSans-75"/>
       <path d="M 40.578125 39.3125 
Q 47.65625 37.796875 51.625 33 
Q 55.609375 28.21875 55.609375 21.1875 
Q 55.609375 10.40625 48.1875 4.484375 
Q 40.765625 -1.421875 27.09375 -1.421875 
Q 22.515625 -1.421875 17.65625 -0.515625 
Q 12.796875 0.390625 7.625 2.203125 
L 7.625 11.71875 
Q 11.71875 9.328125 16.59375 8.109375 
Q 21.484375 6.890625 26.8125 6.890625 
Q 36.078125 6.890625 40.9375 10.546875 
Q 45.796875 14.203125 45.796875 21.1875 
Q 45.796875 27.640625 41.28125 31.265625 
Q 36.765625 34.90625 28.71875 34.90625 
L 20.21875 34.90625 
L 20.21875 43.015625 
L 29.109375 43.015625 
Q 36.375 43.015625 40.234375 45.921875 
Q 44.09375 48.828125 44.09375 54.296875 
Q 44.09375 59.90625 40.109375 62.90625 
Q 36.140625 65.921875 28.71875 65.921875 
Q 24.65625 65.921875 20.015625 65.03125 
Q 15.375 64.15625 9.8125 62.3125 
L 9.8125 71.09375 
Q 15.4375 72.65625 20.34375 73.4375 
Q 25.25 74.21875 29.59375 74.21875 
Q 40.828125 74.21875 47.359375 69.109375 
Q 53.90625 64.015625 53.90625 55.328125 
Q 53.90625 49.265625 50.4375 45.09375 
Q 46.96875 40.921875 40.578125 39.3125 
z
" id="DejaVuSans-51"/>
      </defs>
      <use xlink:href="#DejaVuSans-71"/>
      <use x="77.490234" xlink:href="#DejaVuSans-83"/>
      <use x="140.966797" xlink:href="#DejaVuSans-75"/>
      <use x="206.542969" xlink:href="#DejaVuSans-51"/>
      <use x="270.166016" xlink:href="#DejaVuSans-66"/>
     </g>
    </g>
   </g>
   <g id="text_4">
    <g clip-path="url(#p452dc40882)">
     <!-- RAF1 -->
     <g transform="translate(334.159236 205.921292)scale(0.1 -0.1)">
      <defs>
       <path d="M 44.390625 34.1875 
Q 47.5625 33.109375 50.5625 29.59375 
Q 53.5625 26.078125 56.59375 19.921875 
L 66.609375 0 
L 56 0 
L 46.6875 18.703125 
Q 43.0625 26.03125 39.671875 28.421875 
Q 36.28125 30.8125 30.421875 30.8125 
L 19.671875 30.8125 
L 19.671875 0 
L 9.8125 0 
L 9.8125 72.90625 
L 32.078125 72.90625 
Q 44.578125 72.90625 50.734375 67.671875 
Q 56.890625 62.453125 56.890625 51.90625 
Q 56.890625 45.015625 53.6875 40.46875 
Q 50.484375 35.9375 44.390625 34.1875 
z
M 19.671875 64.796875 
L 19.671875 38.921875 
L 32.078125 38.921875 
Q 39.203125 38.921875 42.84375 42.21875 
Q 46.484375 45.515625 46.484375 51.90625 
Q 46.484375 58.296875 42.84375 61.546875 
Q 39.203125 64.796875 32.078125 64.796875 
z
" id="DejaVuSans-82"/>
       <path d="M 9.8125 72.90625 
L 51.703125 72.90625 
L 51.703125 64.59375 
L 19.671875 64.59375 
L 19.671875 43.109375 
L 48.578125 43.109375 
L 48.578125 34.8125 
L 19.671875 34.8125 
L 19.671875 0 
L 9.8125 0 
z
" id="DejaVuSans-70"/>
      </defs>
      <use xlink:href="#DejaVuSans-82"/>
      <use x="65.482422" xlink:href="#DejaVuSans-65"/>
      <use x="133.890625" xlink:href="#DejaVuSans-70"/>
      <use x="191.410156" xlink:href="#DejaVuSans-49"/>
     </g>
    </g>
   </g>
   <g id="text_5">
    <g clip-path="url(#p452dc40882)">
     <!-- THRA -->
     <g transform="translate(467.764645 258.483133)scale(0.1 -0.1)">
      <defs>
       <path d="M 9.8125 72.90625 
L 19.671875 72.90625 
L 19.671875 43.015625 
L 55.515625 43.015625 
L 55.515625 72.90625 
L 65.375 72.90625 
L 65.375 0 
L 55.515625 0 
L 55.515625 34.71875 
L 19.671875 34.71875 
L 19.671875 0 
L 9.8125 0 
z
" id="DejaVuSans-72"/>
      </defs>
      <use xlink:href="#DejaVuSans-84"/>
      <use x="61.083984" xlink:href="#DejaVuSans-72"/>
      <use x="136.279297" xlink:href="#DejaVuSans-82"/>
      <use x="201.761719" xlink:href="#DejaVuSans-65"/>
     </g>
    </g>
   </g>
   <g id="text_6">
    <g clip-path="url(#p452dc40882)">
     <!-- MTOR -->
     <g transform="translate(57.625226 357.812944)scale(0.1 -0.1)">
      <defs>
       <path d="M 9.8125 72.90625 
L 24.515625 72.90625 
L 43.109375 23.296875 
L 61.8125 72.90625 
L 76.515625 72.90625 
L 76.515625 0 
L 66.890625 0 
L 66.890625 64.015625 
L 48.09375 14.015625 
L 38.1875 14.015625 
L 19.390625 64.015625 
L 19.390625 0 
L 9.8125 0 
z
" id="DejaVuSans-77"/>
       <path d="M 39.40625 66.21875 
Q 28.65625 66.21875 22.328125 58.203125 
Q 16.015625 50.203125 16.015625 36.375 
Q 16.015625 22.609375 22.328125 14.59375 
Q 28.65625 6.59375 39.40625 6.59375 
Q 50.140625 6.59375 56.421875 14.59375 
Q 62.703125 22.609375 62.703125 36.375 
Q 62.703125 50.203125 56.421875 58.203125 
Q 50.140625 66.21875 39.40625 66.21875 
z
M 39.40625 74.21875 
Q 54.734375 74.21875 63.90625 63.9375 
Q 73.09375 53.65625 73.09375 36.375 
Q 73.09375 19.140625 63.90625 8.859375 
Q 54.734375 -1.421875 39.40625 -1.421875 
Q 24.03125 -1.421875 14.8125 8.828125 
Q 5.609375 19.09375 5.609375 36.375 
Q 5.609375 53.65625 14.8125 63.9375 
Q 24.03125 74.21875 39.40625 74.21875 
z
" id="DejaVuSans-79"/>
      </defs>
      <use xlink:href="#DejaVuSans-77"/>
      <use x="86.279297" xlink:href="#DejaVuSans-84"/>
      <use x="147.363281" xlink:href="#DejaVuSans-79"/>
      <use x="226.074219" xlink:href="#DejaVuSans-82"/>
     </g>
    </g>
   </g>
   <g id="text_7">
    <g clip-path="url(#p452dc40882)">
     <!-- HIF1A -->
     <g transform="translate(494.974285 266.403296)scale(0.1 -0.1)">
      <use xlink:href="#DejaVuSans-72"/>
      <use x="75.195312" xlink:href="#DejaVuSans-73"/>
      <use x="104.6875" xlink:href="#DejaVuSans-70"/>
      <use x="162.207031" xlink:href="#DejaVuSans-49"/>
      <use x="225.830078" xlink:href="#DejaVuSans-65"/>
     </g>
    </g>
   </g>
   <g id="text_8">
    <g clip-path="url(#p452dc40882)">
     <!-- TP53 -->
     <g transform="translate(383.023168 68.519362)scale(0.1 -0.1)">
      <defs>
       <path d="M 19.671875 64.796875 
L 19.671875 37.40625 
L 32.078125 37.40625 
Q 38.96875 37.40625 42.71875 40.96875 
Q 46.484375 44.53125 46.484375 51.125 
Q 46.484375 57.671875 42.71875 61.234375 
Q 38.96875 64.796875 32.078125 64.796875 
z
M 9.8125 72.90625 
L 32.078125 72.90625 
Q 44.34375 72.90625 50.609375 67.359375 
Q 56.890625 61.8125 56.890625 51.125 
Q 56.890625 40.328125 50.609375 34.8125 
Q 44.34375 29.296875 32.078125 29.296875 
L 19.671875 29.296875 
L 19.671875 0 
L 9.8125 0 
z
" id="DejaVuSans-80"/>
       <path d="M 10.796875 72.90625 
L 49.515625 72.90625 
L 49.515625 64.59375 
L 19.828125 64.59375 
L 19.828125 46.734375 
Q 21.96875 47.46875 24.109375 47.828125 
Q 26.265625 48.1875 28.421875 48.1875 
Q 40.625 48.1875 47.75 41.5 
Q 54.890625 34.8125 54.890625 23.390625 
Q 54.890625 11.625 47.5625 5.09375 
Q 40.234375 -1.421875 26.90625 -1.421875 
Q 22.3125 -1.421875 17.546875 -0.640625 
Q 12.796875 0.140625 7.71875 1.703125 
L 7.71875 11.625 
Q 12.109375 9.234375 16.796875 8.0625 
Q 21.484375 6.890625 26.703125 6.890625 
Q 35.15625 6.890625 40.078125 11.328125 
Q 45.015625 15.765625 45.015625 23.390625 
Q 45.015625 31 40.078125 35.4375 
Q 35.15625 39.890625 26.703125 39.890625 
Q 22.75 39.890625 18.8125 39.015625 
Q 14.890625 38.140625 10.796875 36.28125 
z
" id="DejaVuSans-53"/>
      </defs>
      <use xlink:href="#DejaVuSans-84"/>
      <use x="61.083984" xlink:href="#DejaVuSans-80"/>
      <use x="121.386719" xlink:href="#DejaVuSans-53"/>
      <use x="185.009766" xlink:href="#DejaVuSans-51"/>
     </g>
    </g>
   </g>
   <g id="text_9">
    <g clip-path="url(#p452dc40882)">
     <!-- SLC2A1 -->
     <g transform="translate(198.471549 96.845131)scale(0.1 -0.1)">
      <defs>
       <path d="M 9.8125 72.90625 
L 19.671875 72.90625 
L 19.671875 8.296875 
L 55.171875 8.296875 
L 55.171875 0 
L 9.8125 0 
z
" id="DejaVuSans-76"/>
       <path d="M 19.1875 8.296875 
L 53.609375 8.296875 
L 53.609375 0 
L 7.328125 0 
L 7.328125 8.296875 
Q 12.9375 14.109375 22.625 23.890625 
Q 32.328125 33.6875 34.8125 36.53125 
Q 39.546875 41.84375 41.421875 45.53125 
Q 43.3125 49.21875 43.3125 52.78125 
Q 43.3125 58.59375 39.234375 62.25 
Q 35.15625 65.921875 28.609375 65.921875 
Q 23.96875 65.921875 18.8125 64.3125 
Q 13.671875 62.703125 7.8125 59.421875 
L 7.8125 69.390625 
Q 13.765625 71.78125 18.9375 73 
Q 24.125 74.21875 28.421875 74.21875 
Q 39.75 74.21875 46.484375 68.546875 
Q 53.21875 62.890625 53.21875 53.421875 
Q 53.21875 48.921875 51.53125 44.890625 
Q 49.859375 40.875 45.40625 35.40625 
Q 44.1875 33.984375 37.640625 27.21875 
Q 31.109375 20.453125 19.1875 8.296875 
z
" id="DejaVuSans-50"/>
      </defs>
      <use xlink:href="#DejaVuSans-83"/>
      <use x="63.476562" xlink:href="#DejaVuSans-76"/>
      <use x="119.189453" xlink:href="#DejaVuSans-67"/>
      <use x="189.013672" xlink:href="#DejaVuSans-50"/>
      <use x="252.636719" xlink:href="#DejaVuSans-65"/>
      <use x="321.044922" xlink:href="#DejaVuSans-49"/>
     </g>
    </g>
   </g>
   <g id="text_10">
    <g clip-path="url(#p452dc40882)">
     <!-- SLC9A1 -->
     <g transform="translate(313.069248 63.564773)scale(0.1 -0.1)">
      <defs>
       <path d="M 10.984375 1.515625 
L 10.984375 10.5 
Q 14.703125 8.734375 18.5 7.8125 
Q 22.3125 6.890625 25.984375 6.890625 
Q 35.75 6.890625 40.890625 13.453125 
Q 46.046875 20.015625 46.78125 33.40625 
Q 43.953125 29.203125 39.59375 26.953125 
Q 35.25 24.703125 29.984375 24.703125 
Q 19.046875 24.703125 12.671875 31.3125 
Q 6.296875 37.9375 6.296875 49.421875 
Q 6.296875 60.640625 12.9375 67.421875 
Q 19.578125 74.21875 30.609375 74.21875 
Q 43.265625 74.21875 49.921875 64.515625 
Q 56.59375 54.828125 56.59375 36.375 
Q 56.59375 19.140625 48.40625 8.859375 
Q 40.234375 -1.421875 26.421875 -1.421875 
Q 22.703125 -1.421875 18.890625 -0.6875 
Q 15.09375 0.046875 10.984375 1.515625 
z
M 30.609375 32.421875 
Q 37.25 32.421875 41.125 36.953125 
Q 45.015625 41.5 45.015625 49.421875 
Q 45.015625 57.28125 41.125 61.84375 
Q 37.25 66.40625 30.609375 66.40625 
Q 23.96875 66.40625 20.09375 61.84375 
Q 16.21875 57.28125 16.21875 49.421875 
Q 16.21875 41.5 20.09375 36.953125 
Q 23.96875 32.421875 30.609375 32.421875 
z
" id="DejaVuSans-57"/>
      </defs>
      <use xlink:href="#DejaVuSans-83"/>
      <use x="63.476562" xlink:href="#DejaVuSans-76"/>
      <use x="119.189453" xlink:href="#DejaVuSans-67"/>
      <use x="189.013672" xlink:href="#DejaVuSans-57"/>
      <use x="252.636719" xlink:href="#DejaVuSans-65"/>
      <use x="321.044922" xlink:href="#DejaVuSans-49"/>
     </g>
    </g>
   </g>
   <g id="text_11">
    <g clip-path="url(#p452dc40882)">
     <!-- NCOR1 -->
     <g transform="translate(232.057587 260.62083)scale(0.1 -0.1)">
      <use xlink:href="#DejaVuSans-78"/>
      <use x="74.804688" xlink:href="#DejaVuSans-67"/>
      <use x="144.628906" xlink:href="#DejaVuSans-79"/>
      <use x="223.339844" xlink:href="#DejaVuSans-82"/>
      <use x="292.822266" xlink:href="#DejaVuSans-49"/>
     </g>
    </g>
   </g>
   <g id="text_12">
    <g clip-path="url(#p452dc40882)">
     <!-- SIN3A -->
     <g transform="translate(259.786372 283.695022)scale(0.1 -0.1)">
      <use xlink:href="#DejaVuSans-83"/>
      <use x="63.476562" xlink:href="#DejaVuSans-73"/>
      <use x="92.96875" xlink:href="#DejaVuSans-78"/>
      <use x="167.773438" xlink:href="#DejaVuSans-51"/>
      <use x="231.396484" xlink:href="#DejaVuSans-65"/>
     </g>
    </g>
   </g>
   <g id="text_13">
    <g clip-path="url(#p452dc40882)">
     <!-- EP300 -->
     <g transform="translate(364.62509 315.091644)scale(0.1 -0.1)">
      <defs>
       <path d="M 9.8125 72.90625 
L 55.90625 72.90625 
L 55.90625 64.59375 
L 19.671875 64.59375 
L 19.671875 43.015625 
L 54.390625 43.015625 
L 54.390625 34.71875 
L 19.671875 34.71875 
L 19.671875 8.296875 
L 56.78125 8.296875 
L 56.78125 0 
L 9.8125 0 
z
" id="DejaVuSans-69"/>
       <path d="M 31.78125 66.40625 
Q 24.171875 66.40625 20.328125 58.90625 
Q 16.5 51.421875 16.5 36.375 
Q 16.5 21.390625 20.328125 13.890625 
Q 24.171875 6.390625 31.78125 6.390625 
Q 39.453125 6.390625 43.28125 13.890625 
Q 47.125 21.390625 47.125 36.375 
Q 47.125 51.421875 43.28125 58.90625 
Q 39.453125 66.40625 31.78125 66.40625 
z
M 31.78125 74.21875 
Q 44.046875 74.21875 50.515625 64.515625 
Q 56.984375 54.828125 56.984375 36.375 
Q 56.984375 17.96875 50.515625 8.265625 
Q 44.046875 -1.421875 31.78125 -1.421875 
Q 19.53125 -1.421875 13.0625 8.265625 
Q 6.59375 17.96875 6.59375 36.375 
Q 6.59375 54.828125 13.0625 64.515625 
Q 19.53125 74.21875 31.78125 74.21875 
z
" id="DejaVuSans-48"/>
      </defs>
      <use xlink:href="#DejaVuSans-69"/>
      <use x="63.183594" xlink:href="#DejaVuSans-80"/>
      <use x="123.486328" xlink:href="#DejaVuSans-51"/>
      <use x="187.109375" xlink:href="#DejaVuSans-48"/>
      <use x="250.732422" xlink:href="#DejaVuSans-48"/>
     </g>
    </g>
   </g>
   <g id="text_14">
    <g clip-path="url(#p452dc40882)">
     <!-- MED1 -->
     <g transform="translate(377.870568 146.117229)scale(0.1 -0.1)">
      <defs>
       <path d="M 19.671875 64.796875 
L 19.671875 8.109375 
L 31.59375 8.109375 
Q 46.6875 8.109375 53.6875 14.9375 
Q 60.6875 21.78125 60.6875 36.53125 
Q 60.6875 51.171875 53.6875 57.984375 
Q 46.6875 64.796875 31.59375 64.796875 
z
M 9.8125 72.90625 
L 30.078125 72.90625 
Q 51.265625 72.90625 61.171875 64.09375 
Q 71.09375 55.28125 71.09375 36.53125 
Q 71.09375 17.671875 61.125 8.828125 
Q 51.171875 0 30.078125 0 
L 9.8125 0 
z
" id="DejaVuSans-68"/>
      </defs>
      <use xlink:href="#DejaVuSans-77"/>
      <use x="86.279297" xlink:href="#DejaVuSans-69"/>
      <use x="149.462891" xlink:href="#DejaVuSans-68"/>
      <use x="226.464844" xlink:href="#DejaVuSans-49"/>
     </g>
    </g>
   </g>
   <g id="text_15">
    <g clip-path="url(#p452dc40882)">
     <!-- MDM2 -->
     <g transform="translate(68.786159 224.033027)scale(0.1 -0.1)">
      <use xlink:href="#DejaVuSans-77"/>
      <use x="86.279297" xlink:href="#DejaVuSans-68"/>
      <use x="163.28125" xlink:href="#DejaVuSans-77"/>
      <use x="249.560547" xlink:href="#DejaVuSans-50"/>
     </g>
    </g>
   </g>
   <g id="text_16">
    <g clip-path="url(#p452dc40882)">
     <!-- TSC2 -->
     <g transform="translate(539.797127 206.674053)scale(0.1 -0.1)">
      <use xlink:href="#DejaVuSans-84"/>
      <use x="61.083984" xlink:href="#DejaVuSans-83"/>
      <use x="124.560547" xlink:href="#DejaVuSans-67"/>
      <use x="194.384766" xlink:href="#DejaVuSans-50"/>
     </g>
    </g>
   </g>
   <g id="text_17">
    <g clip-path="url(#p452dc40882)">
     <!-- RHEB -->
     <g transform="translate(172.967768 201.05182)scale(0.1 -0.1)">
      <use xlink:href="#DejaVuSans-82"/>
      <use x="69.482422" xlink:href="#DejaVuSans-72"/>
      <use x="144.677734" xlink:href="#DejaVuSans-69"/>
      <use x="207.861328" xlink:href="#DejaVuSans-66"/>
     </g>
    </g>
   </g>
   <g id="text_18">
    <g clip-path="url(#p452dc40882)">
     <!-- PRKCA -->
     <g transform="translate(123.685353 285.750565)scale(0.1 -0.1)">
      <use xlink:href="#DejaVuSans-80"/>
      <use x="60.302734" xlink:href="#DejaVuSans-82"/>
      <use x="129.785156" xlink:href="#DejaVuSans-75"/>
      <use x="189.861328" xlink:href="#DejaVuSans-67"/>
      <use x="259.685547" xlink:href="#DejaVuSans-65"/>
     </g>
    </g>
   </g>
   <g id="text_19">
    <g clip-path="url(#p452dc40882)">
     <!-- PRKCB -->
     <g transform="translate(442.184801 106.596638)scale(0.1 -0.1)">
      <use xlink:href="#DejaVuSans-80"/>
      <use x="60.302734" xlink:href="#DejaVuSans-82"/>
      <use x="129.785156" xlink:href="#DejaVuSans-75"/>
      <use x="189.861328" xlink:href="#DejaVuSans-67"/>
      <use x="259.685547" xlink:href="#DejaVuSans-66"/>
     </g>
    </g>
   </g>
   <g id="text_20">
    <g clip-path="url(#p452dc40882)">
     <!-- PLCG1 -->
     <g transform="translate(455.658526 409.438012)scale(0.1 -0.1)">
      <use xlink:href="#DejaVuSans-80"/>
      <use x="60.302734" xlink:href="#DejaVuSans-76"/>
      <use x="116.015625" xlink:href="#DejaVuSans-67"/>
      <use x="185.839844" xlink:href="#DejaVuSans-71"/>
      <use x="263.330078" xlink:href="#DejaVuSans-49"/>
     </g>
    </g>
   </g>
   <g id="text_21">
    <g clip-path="url(#p452dc40882)">
     <!-- PLCG2 -->
     <g transform="translate(173.804375 400.524383)scale(0.1 -0.1)">
      <use xlink:href="#DejaVuSans-80"/>
      <use x="60.302734" xlink:href="#DejaVuSans-76"/>
      <use x="116.015625" xlink:href="#DejaVuSans-67"/>
      <use x="185.839844" xlink:href="#DejaVuSans-71"/>
      <use x="263.330078" xlink:href="#DejaVuSans-50"/>
     </g>
    </g>
   </g>
   <g id="text_22">
    <g clip-path="url(#p452dc40882)">
     <!-- HRAS -->
     <g transform="translate(541.306008 141.501009)scale(0.1 -0.1)">
      <use xlink:href="#DejaVuSans-72"/>
      <use x="75.195312" xlink:href="#DejaVuSans-82"/>
      <use x="140.677734" xlink:href="#DejaVuSans-65"/>
      <use x="209.085938" xlink:href="#DejaVuSans-83"/>
     </g>
    </g>
   </g>
   <g id="text_23">
    <g clip-path="url(#p452dc40882)">
     <!-- KRAS -->
     <g transform="translate(557.442689 182.741123)scale(0.1 -0.1)">
      <use xlink:href="#DejaVuSans-75"/>
      <use x="65.576172" xlink:href="#DejaVuSans-82"/>
      <use x="131.058594" xlink:href="#DejaVuSans-65"/>
      <use x="199.466797" xlink:href="#DejaVuSans-83"/>
     </g>
    </g>
   </g>
   <g id="text_24">
    <g clip-path="url(#p452dc40882)">
     <!-- NRAS -->
     <g transform="translate(168.214541 80.43194)scale(0.1 -0.1)">
      <use xlink:href="#DejaVuSans-78"/>
      <use x="74.804688" xlink:href="#DejaVuSans-82"/>
      <use x="140.287109" xlink:href="#DejaVuSans-65"/>
      <use x="208.695312" xlink:href="#DejaVuSans-83"/>
     </g>
    </g>
   </g>
   <g id="text_25">
    <g clip-path="url(#p452dc40882)">
     <!-- MAP2K1 -->
     <g transform="translate(500.505083 110.329478)scale(0.1 -0.1)">
      <use xlink:href="#DejaVuSans-77"/>
      <use x="86.279297" xlink:href="#DejaVuSans-65"/>
      <use x="154.6875" xlink:href="#DejaVuSans-80"/>
      <use x="214.990234" xlink:href="#DejaVuSans-50"/>
      <use x="278.613281" xlink:href="#DejaVuSans-75"/>
      <use x="344.189453" xlink:href="#DejaVuSans-49"/>
     </g>
    </g>
   </g>
   <g id="text_26">
    <g clip-path="url(#p452dc40882)">
     <!-- MAP2K2 -->
     <g transform="translate(91.796158 109.264313)scale(0.1 -0.1)">
      <use xlink:href="#DejaVuSans-77"/>
      <use x="86.279297" xlink:href="#DejaVuSans-65"/>
      <use x="154.6875" xlink:href="#DejaVuSans-80"/>
      <use x="214.990234" xlink:href="#DejaVuSans-50"/>
      <use x="278.613281" xlink:href="#DejaVuSans-75"/>
      <use x="344.189453" xlink:href="#DejaVuSans-50"/>
     </g>
    </g>
   </g>
   <g id="text_27">
    <g clip-path="url(#p452dc40882)">
     <!-- RXRA -->
     <g transform="translate(51.712035 174.515552)scale(0.1 -0.1)">
      <defs>
       <path d="M 6.296875 72.90625 
L 16.890625 72.90625 
L 35.015625 45.796875 
L 53.21875 72.90625 
L 63.8125 72.90625 
L 40.375 37.890625 
L 65.375 0 
L 54.78125 0 
L 34.28125 31 
L 13.625 0 
L 2.984375 0 
L 29 38.921875 
z
" id="DejaVuSans-88"/>
      </defs>
      <use xlink:href="#DejaVuSans-82"/>
      <use x="69.482422" xlink:href="#DejaVuSans-88"/>
      <use x="137.988281" xlink:href="#DejaVuSans-82"/>
      <use x="203.470703" xlink:href="#DejaVuSans-65"/>
     </g>
    </g>
   </g>
   <g id="text_28">
    <g clip-path="url(#p452dc40882)">
     <!-- RXRB -->
     <g transform="translate(575.096625 278.967116)scale(0.1 -0.1)">
      <use xlink:href="#DejaVuSans-82"/>
      <use x="69.482422" xlink:href="#DejaVuSans-88"/>
      <use x="137.988281" xlink:href="#DejaVuSans-82"/>
      <use x="207.470703" xlink:href="#DejaVuSans-66"/>
     </g>
    </g>
   </g>
   <g id="text_29">
    <g clip-path="url(#p452dc40882)">
     <!-- HDAC3 -->
     <g transform="translate(381.771406 242.546834)scale(0.1 -0.1)">
      <use xlink:href="#DejaVuSans-72"/>
      <use x="75.195312" xlink:href="#DejaVuSans-68"/>
      <use x="150.447266" xlink:href="#DejaVuSans-65"/>
      <use x="217.105469" xlink:href="#DejaVuSans-67"/>
      <use x="286.929688" xlink:href="#DejaVuSans-51"/>
     </g>
    </g>
   </g>
   <g id="text_30">
    <g clip-path="url(#p452dc40882)">
     <!-- NCOA1 -->
     <g transform="translate(245.517005 177.52173)scale(0.1 -0.1)">
      <use xlink:href="#DejaVuSans-78"/>
      <use x="74.804688" xlink:href="#DejaVuSans-67"/>
      <use x="144.628906" xlink:href="#DejaVuSans-79"/>
      <use x="221.589844" xlink:href="#DejaVuSans-65"/>
      <use x="289.998047" xlink:href="#DejaVuSans-49"/>
     </g>
    </g>
   </g>
   <g id="text_31">
    <g clip-path="url(#p452dc40882)">
     <!-- NCOA2 -->
     <g transform="translate(252.718864 314.095007)scale(0.1 -0.1)">
      <use xlink:href="#DejaVuSans-78"/>
      <use x="74.804688" xlink:href="#DejaVuSans-67"/>
      <use x="144.628906" xlink:href="#DejaVuSans-79"/>
      <use x="221.589844" xlink:href="#DejaVuSans-65"/>
      <use x="289.998047" xlink:href="#DejaVuSans-50"/>
     </g>
    </g>
   </g>
   <g id="text_32">
    <g clip-path="url(#p452dc40882)">
     <!-- NCOA3 -->
     <g transform="translate(291.205785 336.90002)scale(0.1 -0.1)">
      <use xlink:href="#DejaVuSans-78"/>
      <use x="74.804688" xlink:href="#DejaVuSans-67"/>
      <use x="144.628906" xlink:href="#DejaVuSans-79"/>
      <use x="221.589844" xlink:href="#DejaVuSans-65"/>
      <use x="289.998047" xlink:href="#DejaVuSans-51"/>
     </g>
    </g>
   </g>
   <g id="text_33">
    <g clip-path="url(#p452dc40882)">
     <!-- MED4 -->
     <g transform="translate(352.847507 168.140247)scale(0.1 -0.1)">
      <defs>
       <path d="M 37.796875 64.3125 
L 12.890625 25.390625 
L 37.796875 25.390625 
z
M 35.203125 72.90625 
L 47.609375 72.90625 
L 47.609375 25.390625 
L 58.015625 25.390625 
L 58.015625 17.1875 
L 47.609375 17.1875 
L 47.609375 0 
L 37.796875 0 
L 37.796875 17.1875 
L 4.890625 17.1875 
L 4.890625 26.703125 
z
" id="DejaVuSans-52"/>
      </defs>
      <use xlink:href="#DejaVuSans-77"/>
      <use x="86.279297" xlink:href="#DejaVuSans-69"/>
      <use x="149.462891" xlink:href="#DejaVuSans-68"/>
      <use x="226.464844" xlink:href="#DejaVuSans-52"/>
     </g>
    </g>
   </g>
   <g id="text_34">
    <g clip-path="url(#p452dc40882)">
     <!-- MED12 -->
     <g transform="translate(246.520577 229.846716)scale(0.1 -0.1)">
      <use xlink:href="#DejaVuSans-77"/>
      <use x="86.279297" xlink:href="#DejaVuSans-69"/>
      <use x="149.462891" xlink:href="#DejaVuSans-68"/>
      <use x="226.464844" xlink:href="#DejaVuSans-49"/>
      <use x="290.087891" xlink:href="#DejaVuSans-50"/>
     </g>
    </g>
   </g>
   <g id="text_35">
    <g clip-path="url(#p452dc40882)">
     <!-- MED13 -->
     <g transform="translate(313.732645 250.323786)scale(0.1 -0.1)">
      <use xlink:href="#DejaVuSans-77"/>
      <use x="86.279297" xlink:href="#DejaVuSans-69"/>
      <use x="149.462891" xlink:href="#DejaVuSans-68"/>
      <use x="226.464844" xlink:href="#DejaVuSans-49"/>
      <use x="290.087891" xlink:href="#DejaVuSans-51"/>
     </g>
    </g>
   </g>
   <g id="text_36">
    <g clip-path="url(#p452dc40882)">
     <!-- MED14 -->
     <g transform="translate(293.56846 215.405365)scale(0.1 -0.1)">
      <use xlink:href="#DejaVuSans-77"/>
      <use x="86.279297" xlink:href="#DejaVuSans-69"/>
      <use x="149.462891" xlink:href="#DejaVuSans-68"/>
      <use x="226.464844" xlink:href="#DejaVuSans-49"/>
      <use x="290.087891" xlink:href="#DejaVuSans-52"/>
     </g>
    </g>
   </g>
   <g id="text_37">
    <g clip-path="url(#p452dc40882)">
     <!-- MED16 -->
     <g transform="translate(313.096838 311.739336)scale(0.1 -0.1)">
      <defs>
       <path d="M 33.015625 40.375 
Q 26.375 40.375 22.484375 35.828125 
Q 18.609375 31.296875 18.609375 23.390625 
Q 18.609375 15.53125 22.484375 10.953125 
Q 26.375 6.390625 33.015625 6.390625 
Q 39.65625 6.390625 43.53125 10.953125 
Q 47.40625 15.53125 47.40625 23.390625 
Q 47.40625 31.296875 43.53125 35.828125 
Q 39.65625 40.375 33.015625 40.375 
z
M 52.59375 71.296875 
L 52.59375 62.3125 
Q 48.875 64.0625 45.09375 64.984375 
Q 41.3125 65.921875 37.59375 65.921875 
Q 27.828125 65.921875 22.671875 59.328125 
Q 17.53125 52.734375 16.796875 39.40625 
Q 19.671875 43.65625 24.015625 45.921875 
Q 28.375 48.1875 33.59375 48.1875 
Q 44.578125 48.1875 50.953125 41.515625 
Q 57.328125 34.859375 57.328125 23.390625 
Q 57.328125 12.15625 50.6875 5.359375 
Q 44.046875 -1.421875 33.015625 -1.421875 
Q 20.359375 -1.421875 13.671875 8.265625 
Q 6.984375 17.96875 6.984375 36.375 
Q 6.984375 53.65625 15.1875 63.9375 
Q 23.390625 74.21875 37.203125 74.21875 
Q 40.921875 74.21875 44.703125 73.484375 
Q 48.484375 72.75 52.59375 71.296875 
z
" id="DejaVuSans-54"/>
      </defs>
      <use xlink:href="#DejaVuSans-77"/>
      <use x="86.279297" xlink:href="#DejaVuSans-69"/>
      <use x="149.462891" xlink:href="#DejaVuSans-68"/>
      <use x="226.464844" xlink:href="#DejaVuSans-49"/>
      <use x="290.087891" xlink:href="#DejaVuSans-54"/>
     </g>
    </g>
   </g>
   <g id="text_38">
    <g clip-path="url(#p452dc40882)">
     <!-- MED17 -->
     <g transform="translate(295.395966 172.072464)scale(0.1 -0.1)">
      <defs>
       <path d="M 8.203125 72.90625 
L 55.078125 72.90625 
L 55.078125 68.703125 
L 28.609375 0 
L 18.3125 0 
L 43.21875 64.59375 
L 8.203125 64.59375 
z
" id="DejaVuSans-55"/>
      </defs>
      <use xlink:href="#DejaVuSans-77"/>
      <use x="86.279297" xlink:href="#DejaVuSans-69"/>
      <use x="149.462891" xlink:href="#DejaVuSans-68"/>
      <use x="226.464844" xlink:href="#DejaVuSans-49"/>
      <use x="290.087891" xlink:href="#DejaVuSans-55"/>
     </g>
    </g>
   </g>
   <g id="text_39">
    <g clip-path="url(#p452dc40882)">
     <!-- MED24 -->
     <g transform="translate(318.300361 281.186505)scale(0.1 -0.1)">
      <use xlink:href="#DejaVuSans-77"/>
      <use x="86.279297" xlink:href="#DejaVuSans-69"/>
      <use x="149.462891" xlink:href="#DejaVuSans-68"/>
      <use x="226.464844" xlink:href="#DejaVuSans-50"/>
      <use x="290.087891" xlink:href="#DejaVuSans-52"/>
     </g>
    </g>
   </g>
   <g id="text_40">
    <g clip-path="url(#p452dc40882)">
     <!-- MED27 -->
     <g transform="translate(387.446888 191.803265)scale(0.1 -0.1)">
      <use xlink:href="#DejaVuSans-77"/>
      <use x="86.279297" xlink:href="#DejaVuSans-69"/>
      <use x="149.462891" xlink:href="#DejaVuSans-68"/>
      <use x="226.464844" xlink:href="#DejaVuSans-50"/>
      <use x="290.087891" xlink:href="#DejaVuSans-55"/>
     </g>
    </g>
   </g>
   <g id="text_41">
    <g clip-path="url(#p452dc40882)">
     <!-- MED30 -->
     <g transform="translate(452.788803 173.719221)scale(0.1 -0.1)">
      <use xlink:href="#DejaVuSans-77"/>
      <use x="86.279297" xlink:href="#DejaVuSans-69"/>
      <use x="149.462891" xlink:href="#DejaVuSans-68"/>
      <use x="226.464844" xlink:href="#DejaVuSans-51"/>
      <use x="290.087891" xlink:href="#DejaVuSans-48"/>
     </g>
    </g>
   </g>
   <g id="text_42">
    <g clip-path="url(#p452dc40882)">
     <!-- NOTCH1 -->
     <g transform="translate(246.564698 65.394822)scale(0.1 -0.1)">
      <use xlink:href="#DejaVuSans-78"/>
      <use x="74.804688" xlink:href="#DejaVuSans-79"/>
      <use x="153.515625" xlink:href="#DejaVuSans-84"/>
      <use x="208.724609" xlink:href="#DejaVuSans-67"/>
      <use x="278.548828" xlink:href="#DejaVuSans-72"/>
      <use x="353.744141" xlink:href="#DejaVuSans-49"/>
     </g>
    </g>
   </g>
   <g id="text_43">
    <g clip-path="url(#p452dc40882)">
     <!-- NOTCH2 -->
     <g transform="translate(396.890385 430.110227)scale(0.1 -0.1)">
      <use xlink:href="#DejaVuSans-78"/>
      <use x="74.804688" xlink:href="#DejaVuSans-79"/>
      <use x="153.515625" xlink:href="#DejaVuSans-84"/>
      <use x="208.724609" xlink:href="#DejaVuSans-67"/>
      <use x="278.548828" xlink:href="#DejaVuSans-72"/>
      <use x="353.744141" xlink:href="#DejaVuSans-50"/>
     </g>
    </g>
   </g>
   <g id="text_44">
    <g clip-path="url(#p452dc40882)">
     <!-- NOTCH4 -->
     <g transform="translate(514.322442 372.50222)scale(0.1 -0.1)">
      <use xlink:href="#DejaVuSans-78"/>
      <use x="74.804688" xlink:href="#DejaVuSans-79"/>
      <use x="153.515625" xlink:href="#DejaVuSans-84"/>
      <use x="208.724609" xlink:href="#DejaVuSans-67"/>
      <use x="278.548828" xlink:href="#DejaVuSans-72"/>
      <use x="353.744141" xlink:href="#DejaVuSans-52"/>
     </g>
    </g>
   </g>
   <g id="text_45">
    <!-- Importance Score for Each Node in the Network -->
    <g transform="translate(198.616875 16.318125)scale(0.12 -0.12)">
     <defs>
      <path d="M 52 44.1875 
Q 55.375 50.25 60.0625 53.125 
Q 64.75 56 71.09375 56 
Q 79.640625 56 84.28125 50.015625 
Q 88.921875 44.046875 88.921875 33.015625 
L 88.921875 0 
L 79.890625 0 
L 79.890625 32.71875 
Q 79.890625 40.578125 77.09375 44.375 
Q 74.3125 48.1875 68.609375 48.1875 
Q 61.625 48.1875 57.5625 43.546875 
Q 53.515625 38.921875 53.515625 30.90625 
L 53.515625 0 
L 44.484375 0 
L 44.484375 32.71875 
Q 44.484375 40.625 41.703125 44.40625 
Q 38.921875 48.1875 33.109375 48.1875 
Q 26.21875 48.1875 22.15625 43.53125 
Q 18.109375 38.875 18.109375 30.90625 
L 18.109375 0 
L 9.078125 0 
L 9.078125 54.6875 
L 18.109375 54.6875 
L 18.109375 46.1875 
Q 21.1875 51.21875 25.484375 53.609375 
Q 29.78125 56 35.6875 56 
Q 41.65625 56 45.828125 52.96875 
Q 50 49.953125 52 44.1875 
z
" id="DejaVuSans-109"/>
      <path d="M 18.109375 8.203125 
L 18.109375 -20.796875 
L 9.078125 -20.796875 
L 9.078125 54.6875 
L 18.109375 54.6875 
L 18.109375 46.390625 
Q 20.953125 51.265625 25.265625 53.625 
Q 29.59375 56 35.59375 56 
Q 45.5625 56 51.78125 48.09375 
Q 58.015625 40.1875 58.015625 27.296875 
Q 58.015625 14.40625 51.78125 6.484375 
Q 45.5625 -1.421875 35.59375 -1.421875 
Q 29.59375 -1.421875 25.265625 0.953125 
Q 20.953125 3.328125 18.109375 8.203125 
z
M 48.6875 27.296875 
Q 48.6875 37.203125 44.609375 42.84375 
Q 40.53125 48.484375 33.40625 48.484375 
Q 26.265625 48.484375 22.1875 42.84375 
Q 18.109375 37.203125 18.109375 27.296875 
Q 18.109375 17.390625 22.1875 11.75 
Q 26.265625 6.109375 33.40625 6.109375 
Q 40.53125 6.109375 44.609375 11.75 
Q 48.6875 17.390625 48.6875 27.296875 
z
" id="DejaVuSans-112"/>
      <path d="M 30.609375 48.390625 
Q 23.390625 48.390625 19.1875 42.75 
Q 14.984375 37.109375 14.984375 27.296875 
Q 14.984375 17.484375 19.15625 11.84375 
Q 23.34375 6.203125 30.609375 6.203125 
Q 37.796875 6.203125 41.984375 11.859375 
Q 46.1875 17.53125 46.1875 27.296875 
Q 46.1875 37.015625 41.984375 42.703125 
Q 37.796875 48.390625 30.609375 48.390625 
z
M 30.609375 56 
Q 42.328125 56 49.015625 48.375 
Q 55.71875 40.765625 55.71875 27.296875 
Q 55.71875 13.875 49.015625 6.21875 
Q 42.328125 -1.421875 30.609375 -1.421875 
Q 18.84375 -1.421875 12.171875 6.21875 
Q 5.515625 13.875 5.515625 27.296875 
Q 5.515625 40.765625 12.171875 48.375 
Q 18.84375 56 30.609375 56 
z
" id="DejaVuSans-111"/>
      <path d="M 41.109375 46.296875 
Q 39.59375 47.171875 37.8125 47.578125 
Q 36.03125 48 33.890625 48 
Q 26.265625 48 22.1875 43.046875 
Q 18.109375 38.09375 18.109375 28.8125 
L 18.109375 0 
L 9.078125 0 
L 9.078125 54.6875 
L 18.109375 54.6875 
L 18.109375 46.1875 
Q 20.953125 51.171875 25.484375 53.578125 
Q 30.03125 56 36.53125 56 
Q 37.453125 56 38.578125 55.875 
Q 39.703125 55.765625 41.0625 55.515625 
z
" id="DejaVuSans-114"/>
      <path d="M 18.3125 70.21875 
L 18.3125 54.6875 
L 36.8125 54.6875 
L 36.8125 47.703125 
L 18.3125 47.703125 
L 18.3125 18.015625 
Q 18.3125 11.328125 20.140625 9.421875 
Q 21.96875 7.515625 27.59375 7.515625 
L 36.8125 7.515625 
L 36.8125 0 
L 27.59375 0 
Q 17.1875 0 13.234375 3.875 
Q 9.28125 7.765625 9.28125 18.015625 
L 9.28125 47.703125 
L 2.6875 47.703125 
L 2.6875 54.6875 
L 9.28125 54.6875 
L 9.28125 70.21875 
z
" id="DejaVuSans-116"/>
      <path d="M 34.28125 27.484375 
Q 23.390625 27.484375 19.1875 25 
Q 14.984375 22.515625 14.984375 16.5 
Q 14.984375 11.71875 18.140625 8.90625 
Q 21.296875 6.109375 26.703125 6.109375 
Q 34.1875 6.109375 38.703125 11.40625 
Q 43.21875 16.703125 43.21875 25.484375 
L 43.21875 27.484375 
z
M 52.203125 31.203125 
L 52.203125 0 
L 43.21875 0 
L 43.21875 8.296875 
Q 40.140625 3.328125 35.546875 0.953125 
Q 30.953125 -1.421875 24.3125 -1.421875 
Q 15.921875 -1.421875 10.953125 3.296875 
Q 6 8.015625 6 15.921875 
Q 6 25.140625 12.171875 29.828125 
Q 18.359375 34.515625 30.609375 34.515625 
L 43.21875 34.515625 
L 43.21875 35.40625 
Q 43.21875 41.609375 39.140625 45 
Q 35.0625 48.390625 27.6875 48.390625 
Q 23 48.390625 18.546875 47.265625 
Q 14.109375 46.140625 10.015625 43.890625 
L 10.015625 52.203125 
Q 14.9375 54.109375 19.578125 55.046875 
Q 24.21875 56 28.609375 56 
Q 40.484375 56 46.34375 49.84375 
Q 52.203125 43.703125 52.203125 31.203125 
z
" id="DejaVuSans-97"/>
      <path d="M 54.890625 33.015625 
L 54.890625 0 
L 45.90625 0 
L 45.90625 32.71875 
Q 45.90625 40.484375 42.875 44.328125 
Q 39.84375 48.1875 33.796875 48.1875 
Q 26.515625 48.1875 22.3125 43.546875 
Q 18.109375 38.921875 18.109375 30.90625 
L 18.109375 0 
L 9.078125 0 
L 9.078125 54.6875 
L 18.109375 54.6875 
L 18.109375 46.1875 
Q 21.34375 51.125 25.703125 53.5625 
Q 30.078125 56 35.796875 56 
Q 45.21875 56 50.046875 50.171875 
Q 54.890625 44.34375 54.890625 33.015625 
z
" id="DejaVuSans-110"/>
      <path d="M 48.78125 52.59375 
L 48.78125 44.1875 
Q 44.96875 46.296875 41.140625 47.34375 
Q 37.3125 48.390625 33.40625 48.390625 
Q 24.65625 48.390625 19.8125 42.84375 
Q 14.984375 37.3125 14.984375 27.296875 
Q 14.984375 17.28125 19.8125 11.734375 
Q 24.65625 6.203125 33.40625 6.203125 
Q 37.3125 6.203125 41.140625 7.25 
Q 44.96875 8.296875 48.78125 10.40625 
L 48.78125 2.09375 
Q 45.015625 0.34375 40.984375 -0.53125 
Q 36.96875 -1.421875 32.421875 -1.421875 
Q 20.0625 -1.421875 12.78125 6.34375 
Q 5.515625 14.109375 5.515625 27.296875 
Q 5.515625 40.671875 12.859375 48.328125 
Q 20.21875 56 33.015625 56 
Q 37.15625 56 41.109375 55.140625 
Q 45.0625 54.296875 48.78125 52.59375 
z
" id="DejaVuSans-99"/>
      <path d="M 56.203125 29.59375 
L 56.203125 25.203125 
L 14.890625 25.203125 
Q 15.484375 15.921875 20.484375 11.0625 
Q 25.484375 6.203125 34.421875 6.203125 
Q 39.59375 6.203125 44.453125 7.46875 
Q 49.3125 8.734375 54.109375 11.28125 
L 54.109375 2.78125 
Q 49.265625 0.734375 44.1875 -0.34375 
Q 39.109375 -1.421875 33.890625 -1.421875 
Q 20.796875 -1.421875 13.15625 6.1875 
Q 5.515625 13.8125 5.515625 26.8125 
Q 5.515625 40.234375 12.765625 48.109375 
Q 20.015625 56 32.328125 56 
Q 43.359375 56 49.78125 48.890625 
Q 56.203125 41.796875 56.203125 29.59375 
z
M 47.21875 32.234375 
Q 47.125 39.59375 43.09375 43.984375 
Q 39.0625 48.390625 32.421875 48.390625 
Q 24.90625 48.390625 20.390625 44.140625 
Q 15.875 39.890625 15.1875 32.171875 
z
" id="DejaVuSans-101"/>
      <path id="DejaVuSans-32"/>
      <path d="M 37.109375 75.984375 
L 37.109375 68.5 
L 28.515625 68.5 
Q 23.6875 68.5 21.796875 66.546875 
Q 19.921875 64.59375 19.921875 59.515625 
L 19.921875 54.6875 
L 34.71875 54.6875 
L 34.71875 47.703125 
L 19.921875 47.703125 
L 19.921875 0 
L 10.890625 0 
L 10.890625 47.703125 
L 2.296875 47.703125 
L 2.296875 54.6875 
L 10.890625 54.6875 
L 10.890625 58.5 
Q 10.890625 67.625 15.140625 71.796875 
Q 19.390625 75.984375 28.609375 75.984375 
z
" id="DejaVuSans-102"/>
      <path d="M 54.890625 33.015625 
L 54.890625 0 
L 45.90625 0 
L 45.90625 32.71875 
Q 45.90625 40.484375 42.875 44.328125 
Q 39.84375 48.1875 33.796875 48.1875 
Q 26.515625 48.1875 22.3125 43.546875 
Q 18.109375 38.921875 18.109375 30.90625 
L 18.109375 0 
L 9.078125 0 
L 9.078125 75.984375 
L 18.109375 75.984375 
L 18.109375 46.1875 
Q 21.34375 51.125 25.703125 53.5625 
Q 30.078125 56 35.796875 56 
Q 45.21875 56 50.046875 50.171875 
Q 54.890625 44.34375 54.890625 33.015625 
z
" id="DejaVuSans-104"/>
      <path d="M 45.40625 46.390625 
L 45.40625 75.984375 
L 54.390625 75.984375 
L 54.390625 0 
L 45.40625 0 
L 45.40625 8.203125 
Q 42.578125 3.328125 38.25 0.953125 
Q 33.9375 -1.421875 27.875 -1.421875 
Q 17.96875 -1.421875 11.734375 6.484375 
Q 5.515625 14.40625 5.515625 27.296875 
Q 5.515625 40.1875 11.734375 48.09375 
Q 17.96875 56 27.875 56 
Q 33.9375 56 38.25 53.625 
Q 42.578125 51.265625 45.40625 46.390625 
z
M 14.796875 27.296875 
Q 14.796875 17.390625 18.875 11.75 
Q 22.953125 6.109375 30.078125 6.109375 
Q 37.203125 6.109375 41.296875 11.75 
Q 45.40625 17.390625 45.40625 27.296875 
Q 45.40625 37.203125 41.296875 42.84375 
Q 37.203125 48.484375 30.078125 48.484375 
Q 22.953125 48.484375 18.875 42.84375 
Q 14.796875 37.203125 14.796875 27.296875 
z
" id="DejaVuSans-100"/>
      <path d="M 9.421875 54.6875 
L 18.40625 54.6875 
L 18.40625 0 
L 9.421875 0 
z
M 9.421875 75.984375 
L 18.40625 75.984375 
L 18.40625 64.59375 
L 9.421875 64.59375 
z
" id="DejaVuSans-105"/>
      <path d="M 4.203125 54.6875 
L 13.1875 54.6875 
L 24.421875 12.015625 
L 35.59375 54.6875 
L 46.1875 54.6875 
L 57.421875 12.015625 
L 68.609375 54.6875 
L 77.59375 54.6875 
L 63.28125 0 
L 52.6875 0 
L 40.921875 44.828125 
L 29.109375 0 
L 18.5 0 
z
" id="DejaVuSans-119"/>
      <path d="M 9.078125 75.984375 
L 18.109375 75.984375 
L 18.109375 31.109375 
L 44.921875 54.6875 
L 56.390625 54.6875 
L 27.390625 29.109375 
L 57.625 0 
L 45.90625 0 
L 18.109375 26.703125 
L 18.109375 0 
L 9.078125 0 
z
" id="DejaVuSans-107"/>
     </defs>
     <use xlink:href="#DejaVuSans-73"/>
     <use x="29.492188" xlink:href="#DejaVuSans-109"/>
     <use x="126.904297" xlink:href="#DejaVuSans-112"/>
     <use x="190.380859" xlink:href="#DejaVuSans-111"/>
     <use x="251.5625" xlink:href="#DejaVuSans-114"/>
     <use x="292.675781" xlink:href="#DejaVuSans-116"/>
     <use x="331.884766" xlink:href="#DejaVuSans-97"/>
     <use x="393.164062" xlink:href="#DejaVuSans-110"/>
     <use x="456.542969" xlink:href="#DejaVuSans-99"/>
     <use x="511.523438" xlink:href="#DejaVuSans-101"/>
     <use x="573.046875" xlink:href="#DejaVuSans-32"/>
     <use x="604.833984" xlink:href="#DejaVuSans-83"/>
     <use x="668.310547" xlink:href="#DejaVuSans-99"/>
     <use x="723.291016" xlink:href="#DejaVuSans-111"/>
     <use x="784.472656" xlink:href="#DejaVuSans-114"/>
     <use x="823.335938" xlink:href="#DejaVuSans-101"/>
     <use x="884.859375" xlink:href="#DejaVuSans-32"/>
     <use x="916.646484" xlink:href="#DejaVuSans-102"/>
     <use x="951.851562" xlink:href="#DejaVuSans-111"/>
     <use x="1013.033203" xlink:href="#DejaVuSans-114"/>
     <use x="1054.146484" xlink:href="#DejaVuSans-32"/>
     <use x="1085.933594" xlink:href="#DejaVuSans-69"/>
     <use x="1149.117188" xlink:href="#DejaVuSans-97"/>
     <use x="1210.396484" xlink:href="#DejaVuSans-99"/>
     <use x="1265.376953" xlink:href="#DejaVuSans-104"/>
     <use x="1328.755859" xlink:href="#DejaVuSans-32"/>
     <use x="1360.542969" xlink:href="#DejaVuSans-78"/>
     <use x="1435.347656" xlink:href="#DejaVuSans-111"/>
     <use x="1496.529297" xlink:href="#DejaVuSans-100"/>
     <use x="1560.005859" xlink:href="#DejaVuSans-101"/>
     <use x="1621.529297" xlink:href="#DejaVuSans-32"/>
     <use x="1653.316406" xlink:href="#DejaVuSans-105"/>
     <use x="1681.099609" xlink:href="#DejaVuSans-110"/>
     <use x="1744.478516" xlink:href="#DejaVuSans-32"/>
     <use x="1776.265625" xlink:href="#DejaVuSans-116"/>
     <use x="1815.474609" xlink:href="#DejaVuSans-104"/>
     <use x="1878.853516" xlink:href="#DejaVuSans-101"/>
     <use x="1940.376953" xlink:href="#DejaVuSans-32"/>
     <use x="1972.164062" xlink:href="#DejaVuSans-78"/>
     <use x="2046.96875" xlink:href="#DejaVuSans-101"/>
     <use x="2108.492188" xlink:href="#DejaVuSans-116"/>
     <use x="2147.701172" xlink:href="#DejaVuSans-119"/>
     <use x="2229.488281" xlink:href="#DejaVuSans-111"/>
     <use x="2290.669922" xlink:href="#DejaVuSans-114"/>
     <use x="2331.783203" xlink:href="#DejaVuSans-107"/>
    </g>
   </g>
  </g>
 </g>
 <defs>
  <clipPath id="p452dc40882">
   <rect height="443.52" width="669.6" x="7.2" y="22.318125"/>
  </clipPath>
 </defs>
</svg>
