<?xml version="1.0" encoding="utf-8" standalone="no"?>
<!DOCTYPE svg PUBLIC "-//W3C//DTD SVG 1.1//EN"
  "http://www.w3.org/Graphics/SVG/1.1/DTD/svg11.dtd">
<!-- Created with matplotlib (https://matplotlib.org/) -->
<svg height="473.038125pt" version="1.1" viewBox="0 0 684 473.038125" width="684pt" xmlns="http://www.w3.org/2000/svg" xmlns:xlink="http://www.w3.org/1999/xlink">
 <metadata>
  <rdf:RDF xmlns:cc="http://creativecommons.org/ns#" xmlns:dc="http://purl.org/dc/elements/1.1/" xmlns:rdf="http://www.w3.org/1999/02/22-rdf-syntax-ns#">
   <cc:Work>
    <dc:type rdf:resource="http://purl.org/dc/dcmitype/StillImage"/>
    <dc:date>2024-04-26T10:56:47.334541</dc:date>
    <dc:format>image/svg+xml</dc:format>
    <dc:creator>
     <cc:Agent>
      <dc:title>Matplotlib v3.3.1, https://matplotlib.org/</dc:title>
     </cc:Agent>
    </dc:creator>
   </cc:Work>
  </rdf:RDF>
 </metadata>
 <defs>
  <style type="text/css">*{stroke-linecap:butt;stroke-linejoin:round;}</style>
 </defs>
 <g id="figure_1">
  <g id="patch_1">
   <path d="M 0 473.038125 
L 684 473.038125 
L 684 0 
L 0 0 
z
" style="fill:#ffffff;"/>
  </g>
  <g id="axes_1">
   <g id="patch_2">
    <path clip-path="url(#pb25023c27f)" d="M 347.005337 246.570008 
Q 448.756002 182.851403 549.559098 119.726187 
" style="fill:none;stroke:#808080;stroke-linecap:round;"/>
    <path clip-path="url(#pb25023c27f)" d="M 545.107481 120.154099 
L 549.559098 119.726187 
L 547.230458 123.544228 
L 545.107481 120.154099 
z
" style="fill:#808080;stroke:#808080;stroke-linecap:round;"/>
   </g>
   <g id="patch_3">
    <path clip-path="url(#pb25023c27f)" d="M 348.18491 252.708009 
Q 461.741857 273.246091 574.198619 293.585191 
" style="fill:none;stroke:#808080;stroke-linecap:round;"/>
    <path clip-path="url(#pb25023c27f)" d="M 570.618426 290.905224 
L 574.198619 293.585191 
L 569.90653 294.841365 
L 570.618426 290.905224 
z
" style="fill:#808080;stroke:#808080;stroke-linecap:round;"/>
   </g>
   <g id="patch_4">
    <path clip-path="url(#pb25023c27f)" d="M 342.69031 243.054089 
Q 368.294782 174.402086 393.50856 106.797632 
" style="fill:none;stroke:#808080;stroke-linecap:round;"/>
    <path clip-path="url(#pb25023c27f)" d="M 390.236859 109.846561 
L 393.50856 106.797632 
L 393.984683 111.24435 
L 390.236859 109.846561 
z
" style="fill:#808080;stroke:#808080;stroke-linecap:round;"/>
   </g>
   <g id="patch_5">
    <path clip-path="url(#pb25023c27f)" d="M 347.714758 254.361051 
Q 461.05997 299.332453 573.365959 343.891528 
" style="fill:none;stroke:#808080;stroke-linecap:round;"/>
    <path clip-path="url(#pb25023c27f)" d="M 570.385513 340.55732 
L 573.365959 343.891528 
L 568.910325 344.27536 
L 570.385513 340.55732 
z
" style="fill:#808080;stroke:#808080;stroke-linecap:round;"/>
   </g>
   <g id="patch_6">
    <path clip-path="url(#pb25023c27f)" d="M 333.156405 256.877446 
Q 276.551188 306.544867 220.786362 355.474899 
" style="fill:none;stroke:#808080;stroke-linecap:round;"/>
    <path clip-path="url(#pb25023c27f)" d="M 225.112119 354.340073 
L 220.786362 355.474899 
L 222.473956 351.333398 
L 225.112119 354.340073 
z
" style="fill:#808080;stroke:#808080;stroke-linecap:round;"/>
   </g>
   <g id="patch_7">
    <path clip-path="url(#pb25023c27f)" d="M 331.49594 248.284559 
Q 213.582476 206.676534 96.723332 165.440546 
" style="fill:none;stroke:#808080;stroke-linecap:round;"/>
    <path clip-path="url(#pb25023c27f)" d="M 99.829859 168.657608 
L 96.723332 165.440546 
L 101.160898 164.885561 
L 99.829859 168.657608 
z
" style="fill:#808080;stroke:#808080;stroke-linecap:round;"/>
   </g>
   <g id="patch_8">
    <path clip-path="url(#pb25023c27f)" d="M 332.964044 245.68168 
Q 249.34779 177.229537 166.59665 109.485616 
" style="fill:none;stroke:#808080;stroke-linecap:round;"/>
    <path clip-path="url(#pb25023c27f)" d="M 168.424868 113.56699 
L 166.59665 109.485616 
L 170.95868 110.471866 
L 168.424868 113.56699 
z
" style="fill:#808080;stroke:#808080;stroke-linecap:round;"/>
   </g>
   <g id="patch_9">
    <path clip-path="url(#pb25023c27f)" d="M 332.11771 255.413741 
Q 236.840239 309.02833 142.537126 362.094627 
" style="fill:none;stroke:#808080;stroke-linecap:round;"/>
    <path clip-path="url(#pb25023c27f)" d="M 147.003915 361.875985 
L 142.537126 362.094627 
L 145.042286 358.390011 
L 147.003915 361.875985 
z
" style="fill:#808080;stroke:#808080;stroke-linecap:round;"/>
   </g>
   <g id="patch_10">
    <path clip-path="url(#pb25023c27f)" d="M 331.053129 252.08778 
Q 202.483821 265.835191 75.02621 279.463733 
" style="fill:none;stroke:#808080;stroke-linecap:round;"/>
    <path clip-path="url(#pb25023c27f)" d="M 79.216178 281.027117 
L 75.02621 279.463733 
L 78.790898 277.049789 
L 79.216178 281.027117 
z
" style="fill:#808080;stroke:#808080;stroke-linecap:round;"/>
   </g>
   <g id="patch_11">
    <path clip-path="url(#pb25023c27f)" d="M 346.513801 256.468089 
Q 428.269649 319.744073 509.141343 382.335755 
" style="fill:none;stroke:#808080;stroke-linecap:round;"/>
    <path clip-path="url(#pb25023c27f)" d="M 507.202213 378.305894 
L 509.141343 382.335755 
L 504.753977 381.469143 
L 507.202213 378.305894 
z
" style="fill:#808080;stroke:#808080;stroke-linecap:round;"/>
   </g>
   <g id="patch_12">
    <path clip-path="url(#pb25023c27f)" d="M 343.727983 243.516278 
Q 385.531799 164.807773 426.811183 87.086674 
" style="fill:none;stroke:#808080;stroke-linecap:round;"/>
    <path clip-path="url(#pb25023c27f)" d="M 423.16859 89.681191 
L 426.811183 87.086674 
L 426.70124 91.557459 
L 423.16859 89.681191 
z
" style="fill:#808080;stroke:#808080;stroke-linecap:round;"/>
   </g>
   <g id="patch_13">
    <path clip-path="url(#pb25023c27f)" d="M 331.502403 254.050008 
Q 217.705629 294.24514 104.963059 334.067907 
" style="fill:none;stroke:#808080;stroke-linecap:round;"/>
    <path clip-path="url(#pb25023c27f)" d="M 109.400797 334.621513 
L 104.963059 334.067907 
L 108.068586 330.84988 
L 109.400797 334.621513 
z
" style="fill:#808080;stroke:#808080;stroke-linecap:round;"/>
   </g>
   <g id="patch_14">
    <path clip-path="url(#pb25023c27f)" d="M 343.010254 259.15615 
Q 373.387255 331.692172 403.332382 403.19694 
" style="fill:none;stroke:#808080;stroke-linecap:round;"/>
    <path clip-path="url(#pb25023c27f)" d="M 403.632027 398.734853 
L 403.332382 403.19694 
L 399.9425 400.279972 
L 403.632027 398.734853 
z
" style="fill:#808080;stroke:#808080;stroke-linecap:round;"/>
   </g>
   <g id="patch_15">
    <path clip-path="url(#pb25023c27f)" d="M 344.974158 258.011441 
Q 399.972485 328.907549 454.285517 398.920271 
" style="fill:none;stroke:#808080;stroke-linecap:round;"/>
    <path clip-path="url(#pb25023c27f)" d="M 453.41398 394.53388 
L 454.285517 398.920271 
L 450.253482 396.985666 
L 453.41398 394.53388 
z
" style="fill:#808080;stroke:#808080;stroke-linecap:round;"/>
   </g>
   <g id="patch_16">
    <path clip-path="url(#pb25023c27f)" d="M 348.320612 250.972012 
Q 475.053294 248.117251 600.668226 245.287668 
" style="fill:none;stroke:#808080;stroke-linecap:round;"/>
    <path clip-path="url(#pb25023c27f)" d="M 596.624201 243.378256 
L 600.668226 245.287668 
L 596.714281 247.377242 
L 596.624201 243.378256 
z
" style="fill:#808080;stroke:#808080;stroke-linecap:round;"/>
   </g>
   <g id="patch_17">
    <path clip-path="url(#pb25023c27f)" d="M 331.013762 250.69182 
Q 203.837665 243.706145 77.777918 236.781791 
" style="fill:none;stroke:#808080;stroke-linecap:round;"/>
    <path clip-path="url(#pb25023c27f)" d="M 81.662205 238.998166 
L 77.777918 236.781791 
L 81.881591 235.004187 
L 81.662205 238.998166 
z
" style="fill:#808080;stroke:#808080;stroke-linecap:round;"/>
   </g>
   <g id="patch_18">
    <path clip-path="url(#pb25023c27f)" d="M 347.095088 246.720627 
Q 439.576448 191.380811 531.09842 136.615082 
" style="fill:none;stroke:#808080;stroke-linecap:round;"/>
    <path clip-path="url(#pb25023c27f)" d="M 526.639053 136.952793 
L 531.09842 136.615082 
L 528.692969 140.385202 
L 526.639053 136.952793 
z
" style="fill:#808080;stroke:#808080;stroke-linecap:round;"/>
   </g>
   <g id="patch_19">
    <path clip-path="url(#pb25023c27f)" d="M 340.321444 259.804674 
Q 346.364395 339.261025 352.32256 417.602562 
" style="fill:none;stroke:#808080;stroke-linecap:round;"/>
    <path clip-path="url(#pb25023c27f)" d="M 354.013462 413.462411 
L 352.32256 417.602562 
L 350.02498 413.76575 
L 354.013462 413.462411 
z
" style="fill:#808080;stroke:#808080;stroke-linecap:round;"/>
   </g>
   <g id="patch_20">
    <path clip-path="url(#pb25023c27f)" d="M 340.375848 242.537172 
Q 347.509886 155.98747 354.552078 70.552023 
" style="fill:none;stroke:#808080;stroke-linecap:round;"/>
    <path clip-path="url(#pb25023c27f)" d="M 352.230244 74.374207 
L 354.552078 70.552023 
L 356.216724 74.7028 
L 352.230244 74.374207 
z
" style="fill:#808080;stroke:#808080;stroke-linecap:round;"/>
   </g>
   <g id="patch_21">
    <path clip-path="url(#pb25023c27f)" d="M 331.094098 249.924731 
Q 202.737853 231.319712 75.488079 212.875075 
" style="fill:none;stroke:#808080;stroke-linecap:round;"/>
    <path clip-path="url(#pb25023c27f)" d="M 79.159811 215.428187 
L 75.488079 212.875075 
L 79.733608 211.469557 
L 79.159811 215.428187 
z
" style="fill:#808080;stroke:#808080;stroke-linecap:round;"/>
   </g>
   <g id="patch_22">
    <path clip-path="url(#pb25023c27f)" d="M 345.662507 244.924828 
Q 418.186442 169.448415 489.935734 94.778183 
" style="fill:none;stroke:#808080;stroke-linecap:round;"/>
    <path clip-path="url(#pb25023c27f)" d="M 485.722144 96.276735 
L 489.935734 94.778183 
L 488.606422 99.048186 
L 485.722144 96.276735 
z
" style="fill:#808080;stroke:#808080;stroke-linecap:round;"/>
   </g>
   <g id="patch_23">
    <path clip-path="url(#pb25023c27f)" d="M 345.667718 257.405656 
Q 415.467979 329.943608 484.49302 401.675934 
" style="fill:none;stroke:#808080;stroke-linecap:round;"/>
    <path clip-path="url(#pb25023c27f)" d="M 483.160654 397.406882 
L 484.49302 401.675934 
L 480.278359 400.180395 
L 483.160654 397.406882 
z
" style="fill:#808080;stroke:#808080;stroke-linecap:round;"/>
   </g>
   <g id="patch_24">
    <path clip-path="url(#pb25023c27f)" d="M 347.117822 255.576462 
Q 443.45906 312.573088 538.83805 369.000435 
" style="fill:none;stroke:#808080;stroke-linecap:round;"/>
    <path clip-path="url(#pb25023c27f)" d="M 536.413759 365.242402 
L 538.83805 369.000435 
L 534.377049 368.685048 
L 536.413759 365.242402 
z
" style="fill:#808080;stroke:#808080;stroke-linecap:round;"/>
   </g>
   <g id="patch_25">
    <path clip-path="url(#pb25023c27f)" d="M 339.373932 242.509965 
Q 336.735624 163.910033 334.134822 86.427505 
" style="fill:none;stroke:#808080;stroke-linecap:round;"/>
    <path clip-path="url(#pb25023c27f)" d="M 332.270137 90.492349 
L 334.134822 86.427505 
L 336.267886 90.358159 
L 332.270137 90.492349 
z
" style="fill:#808080;stroke:#808080;stroke-linecap:round;"/>
   </g>
   <g id="patch_26">
    <path clip-path="url(#pb25023c27f)" d="M 336.23714 259.12141 
Q 303.259671 335.656998 270.724618 411.165811 
" style="fill:none;stroke:#808080;stroke-linecap:round;"/>
    <path clip-path="url(#pb25023c27f)" d="M 274.144202 408.283721 
L 270.724618 411.165811 
L 270.470697 406.70089 
L 274.144202 408.283721 
z
" style="fill:#808080;stroke:#808080;stroke-linecap:round;"/>
   </g>
   <g id="patch_27">
    <path clip-path="url(#pb25023c27f)" d="M 348.3033 251.72563 
Q 479.176942 260.188643 608.934881 268.579509 
" style="fill:none;stroke:#808080;stroke-linecap:round;"/>
    <path clip-path="url(#pb25023c27f)" d="M 605.072279 266.325554 
L 608.934881 268.579509 
L 604.814156 270.317217 
L 605.072279 266.325554 
z
" style="fill:#808080;stroke:#808080;stroke-linecap:round;"/>
   </g>
   <g id="patch_28">
    <path clip-path="url(#pb25023c27f)" d="M 332.406799 246.439957 
Q 236.577596 184.025213 141.68524 122.22065 
" style="fill:none;stroke:#808080;stroke-linecap:round;"/>
    <path clip-path="url(#pb25023c27f)" d="M 143.945481 126.079576 
L 141.68524 122.22065 
L 146.128526 122.727813 
L 143.945481 126.079576 
z
" style="fill:#808080;stroke:#808080;stroke-linecap:round;"/>
   </g>
   <g id="patch_29">
    <path clip-path="url(#pb25023c27f)" d="M 331.148052 252.741795 
Q 213.902206 274.421967 97.755756 295.898846 
" style="fill:none;stroke:#808080;stroke-linecap:round;"/>
    <path clip-path="url(#pb25023c27f)" d="M 102.052735 297.138188 
L 97.755756 295.898846 
L 101.325417 293.204868 
L 102.052735 297.138188 
z
" style="fill:#808080;stroke:#808080;stroke-linecap:round;"/>
   </g>
   <g id="patch_30">
    <path clip-path="url(#pb25023c27f)" d="M 331.140531 249.642865 
Q 217.748405 229.367764 105.456858 209.289451 
" style="fill:none;stroke:#808080;stroke-linecap:round;"/>
    <path clip-path="url(#pb25023c27f)" d="M 109.042382 211.962281 
L 105.456858 209.289451 
L 109.746436 208.02473 
L 109.042382 211.962281 
z
" style="fill:#808080;stroke:#808080;stroke-linecap:round;"/>
   </g>
   <g id="patch_31">
    <path clip-path="url(#pb25023c27f)" d="M 331.986109 247.164223 
Q 227.591148 192.742839 124.187596 138.838279 
" style="fill:none;stroke:#808080;stroke-linecap:round;"/>
    <path clip-path="url(#pb25023c27f)" d="M 126.810046 142.460813 
L 124.187596 138.838279 
L 128.659093 138.913839 
L 126.810046 142.460813 
z
" style="fill:#808080;stroke:#808080;stroke-linecap:round;"/>
   </g>
   <g id="patch_32">
    <path clip-path="url(#pb25023c27f)" d="M 344.926853 244.286104 
Q 401.227848 170.668381 456.849655 97.938747 
" style="fill:none;stroke:#808080;stroke-linecap:round;"/>
    <path clip-path="url(#pb25023c27f)" d="M 452.831053 99.901103 
L 456.849655 97.938747 
L 456.008379 102.331042 
L 452.831053 99.901103 
z
" style="fill:#808080;stroke:#808080;stroke-linecap:round;"/>
   </g>
   <g id="patch_33">
    <path clip-path="url(#pb25023c27f)" d="M 347.899486 248.493914 
Q 465.936678 210.178857 582.910456 172.208985 
" style="fill:none;stroke:#808080;stroke-linecap:round;"/>
    <path clip-path="url(#pb25023c27f)" d="M 578.488388 171.541668 
L 582.910456 172.208985 
L 579.723361 175.346249 
L 578.488388 171.541668 
z
" style="fill:#808080;stroke:#808080;stroke-linecap:round;"/>
   </g>
   <g id="patch_34">
    <path clip-path="url(#pb25023c27f)" d="M 334.088683 244.543176 
Q 270.6402 169.169435 207.911722 94.651027 
" style="fill:none;stroke:#808080;stroke-linecap:round;"/>
    <path clip-path="url(#pb25023c27f)" d="M 208.957628 98.999139 
L 207.911722 94.651027 
L 212.017756 96.423169 
L 208.957628 98.999139 
z
" style="fill:#808080;stroke:#808080;stroke-linecap:round;"/>
   </g>
   <g id="patch_35">
    <path clip-path="url(#pb25023c27f)" d="M 347.669675 247.870214 
Q 444.714102 207.904168 540.724731 168.363874 
" style="fill:none;stroke:#808080;stroke-linecap:round;"/>
    <path clip-path="url(#pb25023c27f)" d="M 536.2645 168.037775 
L 540.724731 168.363874 
L 537.787714 171.736399 
L 536.2645 168.037775 
z
" style="fill:#808080;stroke:#808080;stroke-linecap:round;"/>
   </g>
   <g id="patch_36">
    <path clip-path="url(#pb25023c27f)" d="M 337.345814 259.513381 
Q 317.686288 330.279625 298.32603 399.968631 
" style="fill:none;stroke:#808080;stroke-linecap:round;"/>
    <path clip-path="url(#pb25023c27f)" d="M 301.323738 396.649935 
L 298.32603 399.968631 
L 297.469698 395.579246 
L 301.323738 396.649935 
z
" style="fill:#808080;stroke:#808080;stroke-linecap:round;"/>
   </g>
   <g id="patch_37">
    <path clip-path="url(#pb25023c27f)" d="M 333.195988 256.920833 
Q 257.73351 324.045621 183.106403 390.427337 
" style="fill:none;stroke:#808080;stroke-linecap:round;"/>
    <path clip-path="url(#pb25023c27f)" d="M 187.424363 389.263198 
L 183.106403 390.427337 
L 184.765867 386.274486 
L 187.424363 389.263198 
z
" style="fill:#808080;stroke:#808080;stroke-linecap:round;"/>
   </g>
   <g id="patch_38">
    <path clip-path="url(#pb25023c27f)" d="M 332.650995 256.246488 
Q 255.819976 311.890766 179.894455 366.879245 
" style="fill:none;stroke:#808080;stroke-linecap:round;"/>
    <path clip-path="url(#pb25023c27f)" d="M 184.307193 366.152788 
L 179.894455 366.879245 
L 181.960932 362.91318 
L 184.307193 366.152788 
z
" style="fill:#808080;stroke:#808080;stroke-linecap:round;"/>
   </g>
   <g id="patch_39">
    <path clip-path="url(#pb25023c27f)" d="M 338.593439 259.759444 
Q 328.980576 336.876167 319.506009 412.883442 
" style="fill:none;stroke:#808080;stroke-linecap:round;"/>
    <path clip-path="url(#pb25023c27f)" d="M 321.985434 409.161554 
L 319.506009 412.883442 
L 318.016154 408.666769 
L 321.985434 409.161554 
z
" style="fill:#808080;stroke:#808080;stroke-linecap:round;"/>
   </g>
   <g id="patch_40">
    <path clip-path="url(#pb25023c27f)" d="M 336.043199 243.2971 
Q 298.674381 162.086664 261.77292 81.891894 
" style="fill:none;stroke:#808080;stroke-linecap:round;"/>
    <path clip-path="url(#pb25023c27f)" d="M 261.628108 86.361685 
L 261.77292 81.891894 
L 265.261865 84.689618 
L 261.628108 86.361685 
z
" style="fill:#808080;stroke:#808080;stroke-linecap:round;"/>
   </g>
   <g id="patch_41">
    <path clip-path="url(#pb25023c27f)" d="M 333.433278 245.154956 
Q 263.333771 177.521343 194.038858 110.664021 
" style="fill:none;stroke:#808080;stroke-linecap:round;"/>
    <path clip-path="url(#pb25023c27f)" d="M 195.528791 114.880667 
L 194.038858 110.664021 
L 198.306134 112.002063 
L 195.528791 114.880667 
z
" style="fill:#808080;stroke:#808080;stroke-linecap:round;"/>
   </g>
   <g id="patch_42">
    <path clip-path="url(#pb25023c27f)" d="M 341.376272 259.653663 
Q 355.608357 330.214547 369.619387 399.679468 
" style="fill:none;stroke:#808080;stroke-linecap:round;"/>
    <path clip-path="url(#pb25023c27f)" d="M 370.789035 395.362997 
L 369.619387 399.679468 
L 366.867999 396.153867 
L 370.789035 395.362997 
z
" style="fill:#808080;stroke:#808080;stroke-linecap:round;"/>
   </g>
   <g id="patch_43">
    <path clip-path="url(#pb25023c27f)" d="M 347.557949 254.735183 
Q 445.713325 299.105802 542.849922 343.015889 
" style="fill:none;stroke:#808080;stroke-linecap:round;"/>
    <path clip-path="url(#pb25023c27f)" d="M 540.028857 339.545789 
L 542.849922 343.015889 
L 538.381203 343.190681 
L 540.028857 339.545789 
z
" style="fill:#808080;stroke:#808080;stroke-linecap:round;"/>
   </g>
   <g id="patch_44">
    <path clip-path="url(#pb25023c27f)" d="M 348.087077 249.166998 
Q 465.282699 221.338013 581.390535 193.767332 
" style="fill:none;stroke:#808080;stroke-linecap:round;"/>
    <path clip-path="url(#pb25023c27f)" d="M 577.036685 192.745574 
L 581.390535 193.767332 
L 577.960818 196.637357 
L 577.036685 192.745574 
z
" style="fill:#808080;stroke:#808080;stroke-linecap:round;"/>
   </g>
   <g id="patch_45">
    <path clip-path="url(#pb25023c27f)" d="M 343.501856 258.931875 
Q 381.930385 336.692216 419.863576 413.45024 
" style="fill:none;stroke:#808080;stroke-linecap:round;"/>
    <path clip-path="url(#pb25023c27f)" d="M 419.884404 408.978153 
L 419.863576 413.45024 
L 416.298403 410.750325 
L 419.884404 408.978153 
z
" style="fill:#808080;stroke:#808080;stroke-linecap:round;"/>
   </g>
   <g id="patch_46">
    <path clip-path="url(#pb25023c27f)" d="M 331.598066 254.312215 
Q 231.382916 293.387444 132.209419 332.056518 
" style="fill:none;stroke:#808080;stroke-linecap:round;"/>
    <path clip-path="url(#pb25023c27f)" d="M 136.662697 332.466781 
L 132.209419 332.056518 
L 135.209596 328.740053 
L 136.662697 332.466781 
z
" style="fill:#808080;stroke:#808080;stroke-linecap:round;"/>
   </g>
   <g id="patch_47">
    <path clip-path="url(#pb25023c27f)" d="M 309.159007 378.432695 
Q 446.62751 350.124525 583.000957 322.041853 
" style="fill:none;stroke:#808080;stroke-linecap:round;"/>
    <path clip-path="url(#pb25023c27f)" d="M 578.679776 320.889727 
L 583.000957 322.041853 
L 579.486547 324.807522 
L 578.679776 320.889727 
z
" style="fill:#808080;stroke:#808080;stroke-linecap:round;"/>
   </g>
   <g id="patch_48">
    <path clip-path="url(#pb25023c27f)" d="M 556.91903 123.147766 
Q 550.837704 179.696479 544.875924 235.133568 
" style="fill:none;stroke:#808080;stroke-linecap:round;"/>
    <path clip-path="url(#pb25023c27f)" d="M 547.292158 231.370349 
L 544.875924 235.133568 
L 543.315089 230.94265 
L 547.292158 231.370349 
z
" style="fill:#808080;stroke:#808080;stroke-linecap:round;"/>
   </g>
   <g id="patch_49">
    <path clip-path="url(#pb25023c27f)" d="M 202.637403 293.059735 
Q 399.45073 253.48885 595.167958 214.138344 
" style="fill:none;stroke:#808080;stroke-linecap:round;"/>
    <path clip-path="url(#pb25023c27f)" d="M 590.852208 212.966036 
L 595.167958 214.138344 
L 591.640662 216.887559 
L 590.852208 212.966036 
z
" style="fill:#808080;stroke:#808080;stroke-linecap:round;"/>
   </g>
   <g id="patch_50">
    <path clip-path="url(#pb25023c27f)" d="M 205.597892 85.976852 
Q 200.108523 186.047214 194.680391 285.001222 
" style="fill:none;stroke:#808080;stroke-linecap:round;"/>
    <path clip-path="url(#pb25023c27f)" d="M 196.89648 281.116772 
L 194.680391 285.001222 
L 192.902484 280.897681 
L 196.89648 281.116772 
z
" style="fill:#808080;stroke:#808080;stroke-linecap:round;"/>
   </g>
   <g id="patch_51">
    <path clip-path="url(#pb25023c27f)" d="M 536.665042 239.986932 
Q 414.184168 156.707506 292.627853 74.056722 
" style="fill:none;stroke:#808080;stroke-linecap:round;"/>
    <path clip-path="url(#pb25023c27f)" d="M 294.811104 77.959723 
L 292.627853 74.056722 
L 297.060205 74.651922 
L 294.811104 77.959723 
z
" style="fill:#808080;stroke:#808080;stroke-linecap:round;"/>
   </g>
   <g id="patch_52">
    <path clip-path="url(#pb25023c27f)" d="M 283.990293 77.205711 
Q 277.55845 177.648645 271.198053 276.97583 
" style="fill:none;stroke:#808080;stroke-linecap:round;"/>
    <path clip-path="url(#pb25023c27f)" d="M 273.449581 273.111814 
L 271.198053 276.97583 
L 269.457757 272.856198 
L 273.449581 273.111814 
z
" style="fill:#808080;stroke:#808080;stroke-linecap:round;"/>
   </g>
   <g id="patch_53">
    <path clip-path="url(#pb25023c27f)" d="M 263.95909 281.142492 
Q 192.245813 220.52298 121.386387 160.625232 
" style="fill:none;stroke:#808080;stroke-linecap:round;"/>
    <path clip-path="url(#pb25023c27f)" d="M 123.150084 164.7349 
L 121.386387 160.625232 
L 125.73234 161.680075 
L 123.150084 164.7349 
z
" style="fill:#808080;stroke:#808080;stroke-linecap:round;"/>
   </g>
   <g id="patch_54">
    <path clip-path="url(#pb25023c27f)" d="M 273.228905 294.97789 
Q 285.623498 333.456375 297.675297 370.870674 
" style="fill:none;stroke:#808080;stroke-linecap:round;"/>
    <path clip-path="url(#pb25023c27f)" d="M 298.352558 366.450118 
L 297.675297 370.870674 
L 294.545209 367.676532 
L 298.352558 366.450118 
z
" style="fill:#808080;stroke:#808080;stroke-linecap:round;"/>
   </g>
   <g id="patch_55">
    <path clip-path="url(#pb25023c27f)" d="M 306.736342 236.072905 
Q 400.283832 177.224275 492.884969 118.970974 
" style="fill:none;stroke:#808080;stroke-linecap:round;"/>
    <path clip-path="url(#pb25023c27f)" d="M 488.434238 119.408002 
L 492.884969 118.970974 
L 490.564153 122.793776 
L 488.434238 119.408002 
z
" style="fill:#808080;stroke:#808080;stroke-linecap:round;"/>
   </g>
   <g id="patch_56">
    <path clip-path="url(#pb25023c27f)" d="M 307.569627 237.788572 
Q 440.268828 190.720805 571.914315 144.026784 
" style="fill:none;stroke:#808080;stroke-linecap:round;"/>
    <path clip-path="url(#pb25023c27f)" d="M 567.475854 143.479003 
L 571.914315 144.026784 
L 568.813013 147.248884 
L 567.475854 143.479003 
z
" style="fill:#808080;stroke:#808080;stroke-linecap:round;"/>
   </g>
   <g id="patch_57">
    <path clip-path="url(#pb25023c27f)" d="M 308.056447 240.352126 
Q 443.505263 235.154551 577.836866 229.999846 
" style="fill:none;stroke:#808080;stroke-linecap:round;"/>
    <path clip-path="url(#pb25023c27f)" d="M 573.763118 228.154696 
L 577.836866 229.999846 
L 573.916498 232.151754 
L 573.763118 228.154696 
z
" style="fill:#808080;stroke:#808080;stroke-linecap:round;"/>
   </g>
   <g id="patch_58">
    <path clip-path="url(#pb25023c27f)" d="M 291.007698 238.583699 
Q 187.763603 212.764028 85.604138 187.215605 
" style="fill:none;stroke:#808080;stroke-linecap:round;"/>
    <path clip-path="url(#pb25023c27f)" d="M 88.999408 190.1263 
L 85.604138 187.215605 
L 89.969856 186.245807 
L 88.999408 190.1263 
z
" style="fill:#808080;stroke:#808080;stroke-linecap:round;"/>
   </g>
   <g id="patch_59">
    <path clip-path="url(#pb25023c27f)" d="M 303.642821 233.129016 
Q 348.304814 153.482361 392.419973 74.810885 
" style="fill:none;stroke:#808080;stroke-linecap:round;"/>
    <path clip-path="url(#pb25023c27f)" d="M 388.719111 77.321586 
L 392.419973 74.810885 
L 392.208016 79.277995 
L 388.719111 77.321586 
z
" style="fill:#808080;stroke:#808080;stroke-linecap:round;"/>
   </g>
   <g id="patch_60">
    <path clip-path="url(#pb25023c27f)" d="M 290.769387 241.321863 
Q 182.79641 249.295262 75.938431 257.186323 
" style="fill:none;stroke:#808080;stroke-linecap:round;"/>
    <path clip-path="url(#pb25023c27f)" d="M 80.074861 258.886309 
L 75.938431 257.186323 
L 79.780278 254.897171 
L 80.074861 258.886309 
z
" style="fill:#808080;stroke:#808080;stroke-linecap:round;"/>
   </g>
   <g id="patch_61">
    <path clip-path="url(#pb25023c27f)" d="M 282.524257 182.832673 
Q 291.202677 277.195674 299.778705 370.445339 
" style="fill:none;stroke:#808080;stroke-linecap:round;"/>
    <path clip-path="url(#pb25023c27f)" d="M 301.403972 366.278985 
L 299.778705 370.445339 
L 297.420782 366.645313 
L 301.403972 366.278985 
z
" style="fill:#808080;stroke:#808080;stroke-linecap:round;"/>
   </g>
   <g id="patch_62">
    <path clip-path="url(#pb25023c27f)" d="M 437.282043 370.517214 
Q 373.299127 375.042946 310.431459 379.489792 
" style="fill:none;stroke:#808080;stroke-linecap:round;"/>
    <path clip-path="url(#pb25023c27f)" d="M 314.562605 381.202579 
L 310.431459 379.489792 
L 314.280376 377.212548 
L 314.562605 381.202579 
z
" style="fill:#808080;stroke:#808080;stroke-linecap:round;"/>
   </g>
   <g id="patch_63">
    <path clip-path="url(#pb25023c27f)" d="M 237.853976 407.087846 
Q 265.282133 395.339465 291.682567 384.031291 
" style="fill:none;stroke:#808080;stroke-linecap:round;"/>
    <path clip-path="url(#pb25023c27f)" d="M 287.218201 383.767779 
L 291.682567 384.031291 
L 288.793137 387.444676 
L 287.218201 383.767779 
z
" style="fill:#808080;stroke:#808080;stroke-linecap:round;"/>
   </g>
   <g id="patch_64">
    <path clip-path="url(#pb25023c27f)" d="M 185.664486 282.041628 
Q 239.875277 328.300044 293.235584 373.832737 
" style="fill:none;stroke:#808080;stroke-linecap:round;"/>
    <path clip-path="url(#pb25023c27f)" d="M 291.491012 369.714913 
L 293.235584 373.832737 
L 288.894582 372.7577 
L 291.491012 369.714913 
z
" style="fill:#808080;stroke:#808080;stroke-linecap:round;"/>
   </g>
   <g id="PathCollection_1">
    <defs>
     <path d="M 0 11.18034 
C 2.965061 11.18034 5.80908 10.002309 7.905694 7.905694 
C 10.002309 5.80908 11.18034 2.965061 11.18034 -0 
C 11.18034 -2.965061 10.002309 -5.80908 7.905694 -7.905694 
C 5.80908 -10.002309 2.965061 -11.18034 0 -11.18034 
C -2.965061 -11.18034 -5.80908 -10.002309 -7.905694 -7.905694 
C -10.002309 -5.80908 -11.18034 -2.965061 -11.18034 0 
C -11.18034 2.965061 -10.002309 5.80908 -7.905694 7.905694 
C -5.80908 10.002309 -2.965061 11.18034 0 11.18034 
z
" id="C0_0_93a0d44c5f"/>
    </defs>
    <g clip-path="url(#pb25023c27f)">
     <use style="fill:#5f5f5f;stroke:#5f5f5f;" x="339.664517" xlink:href="#C0_0_93a0d44c5f" y="251.166998"/>
    </g>
    <g clip-path="url(#pb25023c27f)">
     <use style="fill:#f3f3f3;stroke:#f3f3f3;" x="583.823889" xlink:href="#C0_0_93a0d44c5f" y="295.326032"/>
    </g>
    <g clip-path="url(#pb25023c27f)">
     <use style="fill:#f3f3f3;stroke:#f3f3f3;" x="213.43912" xlink:href="#C0_0_93a0d44c5f" y="361.921629"/>
    </g>
    <g clip-path="url(#pb25023c27f)">
     <use style="fill:#f3f3f3;stroke:#f3f3f3;" x="87.504441" xlink:href="#C0_0_93a0d44c5f" y="162.187484"/>
    </g>
    <g clip-path="url(#pb25023c27f)">
     <use style="fill:#f3f3f3;stroke:#f3f3f3;" x="396.926539" xlink:href="#C0_0_93a0d44c5f" y="97.633175"/>
    </g>
    <g clip-path="url(#pb25023c27f)">
     <use style="fill:#eeeeee;stroke:#eeeeee;" x="300.673984" xlink:href="#C0_0_93a0d44c5f" y="380.179972"/>
    </g>
    <g clip-path="url(#pb25023c27f)">
     <use style="fill:#f2f2f2;stroke:#f2f2f2;" x="592.576572" xlink:href="#C0_0_93a0d44c5f" y="320.069997"/>
    </g>
    <g clip-path="url(#pb25023c27f)">
     <use style="fill:#f3f3f3;stroke:#f3f3f3;" x="582.453554" xlink:href="#C0_0_93a0d44c5f" y="347.497167"/>
    </g>
    <g clip-path="url(#pb25023c27f)">
     <use style="fill:#eeeeee;stroke:#eeeeee;" x="557.845005" xlink:href="#C0_0_93a0d44c5f" y="114.537362"/>
    </g>
    <g clip-path="url(#pb25023c27f)">
     <use style="fill:#eeeeee;stroke:#eeeeee;" x="194.144674" xlink:href="#C0_0_93a0d44c5f" y="294.767266"/>
    </g>
    <g clip-path="url(#pb25023c27f)">
     <use style="fill:#f2f2f2;stroke:#f2f2f2;" x="604.752931" xlink:href="#C0_0_93a0d44c5f" y="212.211209"/>
    </g>
    <g clip-path="url(#pb25023c27f)">
     <use style="fill:#ebebeb;stroke:#ebebeb;" x="206.072372" xlink:href="#C0_0_93a0d44c5f" y="77.327157"/>
    </g>
    <g clip-path="url(#pb25023c27f)">
     <use style="fill:#f0f0f0;stroke:#f0f0f0;" x="543.830069" xlink:href="#C0_0_93a0d44c5f" y="244.858708"/>
    </g>
    <g clip-path="url(#pb25023c27f)">
     <use style="fill:#f1f1f1;stroke:#f1f1f1;" x="284.54391" xlink:href="#C0_0_93a0d44c5f" y="68.560141"/>
    </g>
    <g clip-path="url(#pb25023c27f)">
     <use style="fill:#f2f2f2;stroke:#f2f2f2;" x="270.573226" xlink:href="#C0_0_93a0d44c5f" y="286.733447"/>
    </g>
    <g clip-path="url(#pb25023c27f)">
     <use style="fill:#f3f3f3;stroke:#f3f3f3;" x="113.918345" xlink:href="#C0_0_93a0d44c5f" y="154.312467"/>
    </g>
    <g clip-path="url(#pb25023c27f)">
     <use style="fill:#f3f3f3;stroke:#f3f3f3;" x="159.030133" xlink:href="#C0_0_93a0d44c5f" y="103.291315"/>
    </g>
    <g clip-path="url(#pb25023c27f)">
     <use style="fill:#dcdcdc;stroke:#dcdcdc;" x="299.406319" xlink:href="#C0_0_93a0d44c5f" y="240.684058"/>
    </g>
    <g clip-path="url(#pb25023c27f)">
     <use style="fill:#f2f2f2;stroke:#f2f2f2;" x="501.162039" xlink:href="#C0_0_93a0d44c5f" y="113.764055"/>
    </g>
    <g clip-path="url(#pb25023c27f)">
     <use style="fill:#f2f2f2;stroke:#f2f2f2;" x="581.128547" xlink:href="#C0_0_93a0d44c5f" y="140.758541"/>
    </g>
    <g clip-path="url(#pb25023c27f)">
     <use style="fill:#f2f2f2;stroke:#f2f2f2;" x="587.60905" xlink:href="#C0_0_93a0d44c5f" y="229.624858"/>
    </g>
    <g clip-path="url(#pb25023c27f)">
     <use style="fill:#f2f2f2;stroke:#f2f2f2;" x="76.115442" xlink:href="#C0_0_93a0d44c5f" y="184.842636"/>
    </g>
    <g clip-path="url(#pb25023c27f)">
     <use style="fill:#f3f3f3;stroke:#f3f3f3;" x="134.01481" xlink:href="#C0_0_93a0d44c5f" y="366.890309"/>
    </g>
    <g clip-path="url(#pb25023c27f)">
     <use style="fill:#f3f3f3;stroke:#f3f3f3;" x="65.305785" xlink:href="#C0_0_93a0d44c5f" y="280.5031"/>
    </g>
    <g clip-path="url(#pb25023c27f)">
     <use style="fill:#f3f3f3;stroke:#f3f3f3;" x="516.875203" xlink:href="#C0_0_93a0d44c5f" y="388.321475"/>
    </g>
    <g clip-path="url(#pb25023c27f)">
     <use style="fill:#f3f3f3;stroke:#f3f3f3;" x="431.398343" xlink:href="#C0_0_93a0d44c5f" y="78.449939"/>
    </g>
    <g clip-path="url(#pb25023c27f)">
     <use style="fill:#f3f3f3;stroke:#f3f3f3;" x="95.746468" xlink:href="#C0_0_93a0d44c5f" y="337.323378"/>
    </g>
    <g clip-path="url(#pb25023c27f)">
     <use style="fill:#f3f3f3;stroke:#f3f3f3;" x="407.110299" xlink:href="#C0_0_93a0d44c5f" y="412.218075"/>
    </g>
    <g clip-path="url(#pb25023c27f)">
     <use style="fill:#f3f3f3;stroke:#f3f3f3;" x="460.278956" xlink:href="#C0_0_93a0d44c5f" y="406.646171"/>
    </g>
    <g clip-path="url(#pb25023c27f)">
     <use style="fill:#f3f3f3;stroke:#f3f3f3;" x="610.44534" xlink:href="#C0_0_93a0d44c5f" y="245.067431"/>
    </g>
    <g clip-path="url(#pb25023c27f)">
     <use style="fill:#f3f3f3;stroke:#f3f3f3;" x="68.013408" xlink:href="#C0_0_93a0d44c5f" y="236.245435"/>
    </g>
    <g clip-path="url(#pb25023c27f)">
     <use style="fill:#f3f3f3;stroke:#f3f3f3;" x="539.488022" xlink:href="#C0_0_93a0d44c5f" y="131.594838"/>
    </g>
    <g clip-path="url(#pb25023c27f)">
     <use style="fill:#f3f3f3;stroke:#f3f3f3;" x="353.063954" xlink:href="#C0_0_93a0d44c5f" y="427.350852"/>
    </g>
    <g clip-path="url(#pb25023c27f)">
     <use style="fill:#f3f3f3;stroke:#f3f3f3;" x="355.355464" xlink:href="#C0_0_93a0d44c5f" y="60.805398"/>
    </g>
    <g clip-path="url(#pb25023c27f)">
     <use style="fill:#f3f3f3;stroke:#f3f3f3;" x="65.812246" xlink:href="#C0_0_93a0d44c5f" y="211.47258"/>
    </g>
    <g clip-path="url(#pb25023c27f)">
     <use style="fill:#f3f3f3;stroke:#f3f3f3;" x="496.709768" xlink:href="#C0_0_93a0d44c5f" y="87.728375"/>
    </g>
    <g clip-path="url(#pb25023c27f)">
     <use style="fill:#f3f3f3;stroke:#f3f3f3;" x="491.273686" xlink:href="#C0_0_93a0d44c5f" y="408.722551"/>
    </g>
    <g clip-path="url(#pb25023c27f)">
     <use style="fill:#f3f3f3;stroke:#f3f3f3;" x="547.254739" xlink:href="#C0_0_93a0d44c5f" y="373.979849"/>
    </g>
    <g clip-path="url(#pb25023c27f)">
     <use style="fill:#f3f3f3;stroke:#f3f3f3;" x="333.806704" xlink:href="#C0_0_93a0d44c5f" y="76.652277"/>
    </g>
    <g clip-path="url(#pb25023c27f)">
     <use style="fill:#f3f3f3;stroke:#f3f3f3;" x="266.855244" xlink:href="#C0_0_93a0d44c5f" y="420.146028"/>
    </g>
    <g clip-path="url(#pb25023c27f)">
     <use style="fill:#f3f3f3;stroke:#f3f3f3;" x="618.694215" xlink:href="#C0_0_93a0d44c5f" y="269.210601"/>
    </g>
    <g clip-path="url(#pb25023c27f)">
     <use style="fill:#f3f3f3;stroke:#f3f3f3;" x="133.491204" xlink:href="#C0_0_93a0d44c5f" y="116.883773"/>
    </g>
    <g clip-path="url(#pb25023c27f)">
     <use style="fill:#f3f3f3;stroke:#f3f3f3;" x="88.13903" xlink:href="#C0_0_93a0d44c5f" y="297.677095"/>
    </g>
    <g clip-path="url(#pb25023c27f)">
     <use style="fill:#f3f3f3;stroke:#f3f3f3;" x="95.828665" xlink:href="#C0_0_93a0d44c5f" y="207.56788"/>
    </g>
    <g clip-path="url(#pb25023c27f)">
     <use style="fill:#f3f3f3;stroke:#f3f3f3;" x="115.516564" xlink:href="#C0_0_93a0d44c5f" y="134.318046"/>
    </g>
    <g clip-path="url(#pb25023c27f)">
     <use style="fill:#f3f3f3;stroke:#f3f3f3;" x="462.789274" xlink:href="#C0_0_93a0d44c5f" y="90.172255"/>
    </g>
    <g clip-path="url(#pb25023c27f)">
     <use style="fill:#f3f3f3;stroke:#f3f3f3;" x="592.208718" xlink:href="#C0_0_93a0d44c5f" y="169.190755"/>
    </g>
    <g clip-path="url(#pb25023c27f)">
     <use style="fill:#f3f3f3;stroke:#f3f3f3;" x="201.614695" xlink:href="#C0_0_93a0d44c5f" y="87.170461"/>
    </g>
    <g clip-path="url(#pb25023c27f)">
     <use style="fill:#f3f3f3;stroke:#f3f3f3;" x="549.767056" xlink:href="#C0_0_93a0d44c5f" y="164.63995"/>
    </g>
    <g clip-path="url(#pb25023c27f)">
     <use style="fill:#f3f3f3;stroke:#f3f3f3;" x="295.707749" xlink:href="#C0_0_93a0d44c5f" y="409.393371"/>
    </g>
    <g clip-path="url(#pb25023c27f)">
     <use style="fill:#f3f3f3;stroke:#f3f3f3;" x="175.798463" xlink:href="#C0_0_93a0d44c5f" y="396.927839"/>
    </g>
    <g clip-path="url(#pb25023c27f)">
     <use style="fill:#f3f3f3;stroke:#f3f3f3;" x="171.974564" xlink:href="#C0_0_93a0d44c5f" y="372.615165"/>
    </g>
    <g clip-path="url(#pb25023c27f)">
     <use style="fill:#f3f3f3;stroke:#f3f3f3;" x="318.296434" xlink:href="#C0_0_93a0d44c5f" y="422.58695"/>
    </g>
    <g clip-path="url(#pb25023c27f)">
     <use style="fill:#f3f3f3;stroke:#f3f3f3;" x="257.686392" xlink:href="#C0_0_93a0d44c5f" y="73.010993"/>
    </g>
    <g clip-path="url(#pb25023c27f)">
     <use style="fill:#f3f3f3;stroke:#f3f3f3;" x="187.00265" xlink:href="#C0_0_93a0d44c5f" y="103.875326"/>
    </g>
    <g clip-path="url(#pb25023c27f)">
     <use style="fill:#f3f3f3;stroke:#f3f3f3;" x="371.5524" xlink:href="#C0_0_93a0d44c5f" y="409.2631"/>
    </g>
    <g clip-path="url(#pb25023c27f)">
     <use style="fill:#f3f3f3;stroke:#f3f3f3;" x="551.761263" xlink:href="#C0_0_93a0d44c5f" y="347.044213"/>
    </g>
    <g clip-path="url(#pb25023c27f)">
     <use style="fill:#f3f3f3;stroke:#f3f3f3;" x="590.907529" xlink:href="#C0_0_93a0d44c5f" y="191.50745"/>
    </g>
    <g clip-path="url(#pb25023c27f)">
     <use style="fill:#f3f3f3;stroke:#f3f3f3;" x="424.196903" xlink:href="#C0_0_93a0d44c5f" y="422.21875"/>
    </g>
    <g clip-path="url(#pb25023c27f)">
     <use style="fill:#f3f3f3;stroke:#f3f3f3;" x="123.096342" xlink:href="#C0_0_93a0d44c5f" y="335.609829"/>
    </g>
    <g clip-path="url(#pb25023c27f)">
     <use style="fill:#f2f2f2;stroke:#f2f2f2;" x="281.731419" xlink:href="#C0_0_93a0d44c5f" y="174.211909"/>
    </g>
    <g clip-path="url(#pb25023c27f)">
     <use style="fill:#f2f2f2;stroke:#f2f2f2;" x="445.921165" xlink:href="#C0_0_93a0d44c5f" y="369.906139"/>
    </g>
    <g clip-path="url(#pb25023c27f)">
     <use style="fill:#f1f1f1;stroke:#f1f1f1;" x="229.89185" xlink:href="#C0_0_93a0d44c5f" y="410.498286"/>
    </g>
    <g clip-path="url(#pb25023c27f)">
     <use style="fill:#f2f2f2;stroke:#f2f2f2;" x="179.077777" xlink:href="#C0_0_93a0d44c5f" y="276.421147"/>
    </g>
    <g clip-path="url(#pb25023c27f)">
     <use style="fill:#f2f2f2;stroke:#f2f2f2;" x="397.202518" xlink:href="#C0_0_93a0d44c5f" y="66.282074"/>
    </g>
    <g clip-path="url(#pb25023c27f)">
     <use style="fill:#f2f2f2;stroke:#f2f2f2;" x="66.184225" xlink:href="#C0_0_93a0d44c5f" y="257.906635"/>
    </g>
   </g>
   <g id="text_1">
    <g clip-path="url(#pb25023c27f)">
     <!-- PRNP -->
     <g transform="translate(326.419986 253.926373)scale(0.1 -0.1)">
      <defs>
       <path d="M 19.671875 64.796875 
L 19.671875 37.40625 
L 32.078125 37.40625 
Q 38.96875 37.40625 42.71875 40.96875 
Q 46.484375 44.53125 46.484375 51.125 
Q 46.484375 57.671875 42.71875 61.234375 
Q 38.96875 64.796875 32.078125 64.796875 
z
M 9.8125 72.90625 
L 32.078125 72.90625 
Q 44.34375 72.90625 50.609375 67.359375 
Q 56.890625 61.8125 56.890625 51.125 
Q 56.890625 40.328125 50.609375 34.8125 
Q 44.34375 29.296875 32.078125 29.296875 
L 19.671875 29.296875 
L 19.671875 0 
L 9.8125 0 
z
" id="DejaVuSans-80"/>
       <path d="M 44.390625 34.1875 
Q 47.5625 33.109375 50.5625 29.59375 
Q 53.5625 26.078125 56.59375 19.921875 
L 66.609375 0 
L 56 0 
L 46.6875 18.703125 
Q 43.0625 26.03125 39.671875 28.421875 
Q 36.28125 30.8125 30.421875 30.8125 
L 19.671875 30.8125 
L 19.671875 0 
L 9.8125 0 
L 9.8125 72.90625 
L 32.078125 72.90625 
Q 44.578125 72.90625 50.734375 67.671875 
Q 56.890625 62.453125 56.890625 51.90625 
Q 56.890625 45.015625 53.6875 40.46875 
Q 50.484375 35.9375 44.390625 34.1875 
z
M 19.671875 64.796875 
L 19.671875 38.921875 
L 32.078125 38.921875 
Q 39.203125 38.921875 42.84375 42.21875 
Q 46.484375 45.515625 46.484375 51.90625 
Q 46.484375 58.296875 42.84375 61.546875 
Q 39.203125 64.796875 32.078125 64.796875 
z
" id="DejaVuSans-82"/>
       <path d="M 9.8125 72.90625 
L 23.09375 72.90625 
L 55.421875 11.921875 
L 55.421875 72.90625 
L 64.984375 72.90625 
L 64.984375 0 
L 51.703125 0 
L 19.390625 60.984375 
L 19.390625 0 
L 9.8125 0 
z
" id="DejaVuSans-78"/>
      </defs>
      <use xlink:href="#DejaVuSans-80"/>
      <use x="60.302734" xlink:href="#DejaVuSans-82"/>
      <use x="129.785156" xlink:href="#DejaVuSans-78"/>
      <use x="204.589844" xlink:href="#DejaVuSans-80"/>
     </g>
    </g>
   </g>
   <g id="text_2">
    <g clip-path="url(#pb25023c27f)">
     <!-- STIP1 -->
     <g transform="translate(569.924671 298.085407)scale(0.1 -0.1)">
      <defs>
       <path d="M 53.515625 70.515625 
L 53.515625 60.890625 
Q 47.90625 63.578125 42.921875 64.890625 
Q 37.9375 66.21875 33.296875 66.21875 
Q 25.25 66.21875 20.875 63.09375 
Q 16.5 59.96875 16.5 54.203125 
Q 16.5 49.359375 19.40625 46.890625 
Q 22.3125 44.4375 30.421875 42.921875 
L 36.375 41.703125 
Q 47.40625 39.59375 52.65625 34.296875 
Q 57.90625 29 57.90625 20.125 
Q 57.90625 9.515625 50.796875 4.046875 
Q 43.703125 -1.421875 29.984375 -1.421875 
Q 24.8125 -1.421875 18.96875 -0.25 
Q 13.140625 0.921875 6.890625 3.21875 
L 6.890625 13.375 
Q 12.890625 10.015625 18.65625 8.296875 
Q 24.421875 6.59375 29.984375 6.59375 
Q 38.421875 6.59375 43.015625 9.90625 
Q 47.609375 13.234375 47.609375 19.390625 
Q 47.609375 24.75 44.3125 27.78125 
Q 41.015625 30.8125 33.5 32.328125 
L 27.484375 33.5 
Q 16.453125 35.6875 11.515625 40.375 
Q 6.59375 45.0625 6.59375 53.421875 
Q 6.59375 63.09375 13.40625 68.65625 
Q 20.21875 74.21875 32.171875 74.21875 
Q 37.3125 74.21875 42.625 73.28125 
Q 47.953125 72.359375 53.515625 70.515625 
z
" id="DejaVuSans-83"/>
       <path d="M -0.296875 72.90625 
L 61.375 72.90625 
L 61.375 64.59375 
L 35.5 64.59375 
L 35.5 0 
L 25.59375 0 
L 25.59375 64.59375 
L -0.296875 64.59375 
z
" id="DejaVuSans-84"/>
       <path d="M 9.8125 72.90625 
L 19.671875 72.90625 
L 19.671875 0 
L 9.8125 0 
z
" id="DejaVuSans-73"/>
       <path d="M 12.40625 8.296875 
L 28.515625 8.296875 
L 28.515625 63.921875 
L 10.984375 60.40625 
L 10.984375 69.390625 
L 28.421875 72.90625 
L 38.28125 72.90625 
L 38.28125 8.296875 
L 54.390625 8.296875 
L 54.390625 0 
L 12.40625 0 
z
" id="DejaVuSans-49"/>
      </defs>
      <use xlink:href="#DejaVuSans-83"/>
      <use x="63.476562" xlink:href="#DejaVuSans-84"/>
      <use x="124.560547" xlink:href="#DejaVuSans-73"/>
      <use x="154.052734" xlink:href="#DejaVuSans-80"/>
      <use x="214.355469" xlink:href="#DejaVuSans-49"/>
     </g>
    </g>
   </g>
   <g id="text_3">
    <g clip-path="url(#pb25023c27f)">
     <!-- SOD1 -->
     <g transform="translate(199.297714 364.681004)scale(0.1 -0.1)">
      <defs>
       <path d="M 39.40625 66.21875 
Q 28.65625 66.21875 22.328125 58.203125 
Q 16.015625 50.203125 16.015625 36.375 
Q 16.015625 22.609375 22.328125 14.59375 
Q 28.65625 6.59375 39.40625 6.59375 
Q 50.140625 6.59375 56.421875 14.59375 
Q 62.703125 22.609375 62.703125 36.375 
Q 62.703125 50.203125 56.421875 58.203125 
Q 50.140625 66.21875 39.40625 66.21875 
z
M 39.40625 74.21875 
Q 54.734375 74.21875 63.90625 63.9375 
Q 73.09375 53.65625 73.09375 36.375 
Q 73.09375 19.140625 63.90625 8.859375 
Q 54.734375 -1.421875 39.40625 -1.421875 
Q 24.03125 -1.421875 14.8125 8.828125 
Q 5.609375 19.09375 5.609375 36.375 
Q 5.609375 53.65625 14.8125 63.9375 
Q 24.03125 74.21875 39.40625 74.21875 
z
" id="DejaVuSans-79"/>
       <path d="M 19.671875 64.796875 
L 19.671875 8.109375 
L 31.59375 8.109375 
Q 46.6875 8.109375 53.6875 14.9375 
Q 60.6875 21.78125 60.6875 36.53125 
Q 60.6875 51.171875 53.6875 57.984375 
Q 46.6875 64.796875 31.59375 64.796875 
z
M 9.8125 72.90625 
L 30.078125 72.90625 
Q 51.265625 72.90625 61.171875 64.09375 
Q 71.09375 55.28125 71.09375 36.53125 
Q 71.09375 17.671875 61.125 8.828125 
Q 51.171875 0 30.078125 0 
L 9.8125 0 
z
" id="DejaVuSans-68"/>
      </defs>
      <use xlink:href="#DejaVuSans-83"/>
      <use x="63.476562" xlink:href="#DejaVuSans-79"/>
      <use x="142.1875" xlink:href="#DejaVuSans-68"/>
      <use x="219.189453" xlink:href="#DejaVuSans-49"/>
     </g>
    </g>
   </g>
   <g id="text_4">
    <g clip-path="url(#pb25023c27f)">
     <!-- BAX -->
     <g transform="translate(77.22866 164.946859)scale(0.1 -0.1)">
      <defs>
       <path d="M 19.671875 34.8125 
L 19.671875 8.109375 
L 35.5 8.109375 
Q 43.453125 8.109375 47.28125 11.40625 
Q 51.125 14.703125 51.125 21.484375 
Q 51.125 28.328125 47.28125 31.5625 
Q 43.453125 34.8125 35.5 34.8125 
z
M 19.671875 64.796875 
L 19.671875 42.828125 
L 34.28125 42.828125 
Q 41.5 42.828125 45.03125 45.53125 
Q 48.578125 48.25 48.578125 53.8125 
Q 48.578125 59.328125 45.03125 62.0625 
Q 41.5 64.796875 34.28125 64.796875 
z
M 9.8125 72.90625 
L 35.015625 72.90625 
Q 46.296875 72.90625 52.390625 68.21875 
Q 58.5 63.53125 58.5 54.890625 
Q 58.5 48.1875 55.375 44.234375 
Q 52.25 40.28125 46.1875 39.3125 
Q 53.46875 37.75 57.5 32.78125 
Q 61.53125 27.828125 61.53125 20.40625 
Q 61.53125 10.640625 54.890625 5.3125 
Q 48.25 0 35.984375 0 
L 9.8125 0 
z
" id="DejaVuSans-66"/>
       <path d="M 34.1875 63.1875 
L 20.796875 26.90625 
L 47.609375 26.90625 
z
M 28.609375 72.90625 
L 39.796875 72.90625 
L 67.578125 0 
L 57.328125 0 
L 50.6875 18.703125 
L 17.828125 18.703125 
L 11.1875 0 
L 0.78125 0 
z
" id="DejaVuSans-65"/>
       <path d="M 6.296875 72.90625 
L 16.890625 72.90625 
L 35.015625 45.796875 
L 53.21875 72.90625 
L 63.8125 72.90625 
L 40.375 37.890625 
L 65.375 0 
L 54.78125 0 
L 34.28125 31 
L 13.625 0 
L 2.984375 0 
L 29 38.921875 
z
" id="DejaVuSans-88"/>
      </defs>
      <use xlink:href="#DejaVuSans-66"/>
      <use x="68.603516" xlink:href="#DejaVuSans-65"/>
      <use x="137.011719" xlink:href="#DejaVuSans-88"/>
     </g>
    </g>
   </g>
   <g id="text_5">
    <g clip-path="url(#pb25023c27f)">
     <!-- FYN -->
     <g transform="translate(387.256227 100.39255)scale(0.1 -0.1)">
      <defs>
       <path d="M 9.8125 72.90625 
L 51.703125 72.90625 
L 51.703125 64.59375 
L 19.671875 64.59375 
L 19.671875 43.109375 
L 48.578125 43.109375 
L 48.578125 34.8125 
L 19.671875 34.8125 
L 19.671875 0 
L 9.8125 0 
z
" id="DejaVuSans-70"/>
       <path d="M -0.203125 72.90625 
L 10.40625 72.90625 
L 30.609375 42.921875 
L 50.6875 72.90625 
L 61.28125 72.90625 
L 35.5 34.71875 
L 35.5 0 
L 25.59375 0 
L 25.59375 34.71875 
z
" id="DejaVuSans-89"/>
      </defs>
      <use xlink:href="#DejaVuSans-70"/>
      <use x="57.519531" xlink:href="#DejaVuSans-89"/>
      <use x="118.603516" xlink:href="#DejaVuSans-78"/>
     </g>
    </g>
   </g>
   <g id="text_6">
    <g clip-path="url(#pb25023c27f)">
     <!-- EGR1 -->
     <g transform="translate(286.984922 382.939347)scale(0.1 -0.1)">
      <defs>
       <path d="M 9.8125 72.90625 
L 55.90625 72.90625 
L 55.90625 64.59375 
L 19.671875 64.59375 
L 19.671875 43.015625 
L 54.390625 43.015625 
L 54.390625 34.71875 
L 19.671875 34.71875 
L 19.671875 8.296875 
L 56.78125 8.296875 
L 56.78125 0 
L 9.8125 0 
z
" id="DejaVuSans-69"/>
       <path d="M 59.515625 10.40625 
L 59.515625 29.984375 
L 43.40625 29.984375 
L 43.40625 38.09375 
L 69.28125 38.09375 
L 69.28125 6.78125 
Q 63.578125 2.734375 56.6875 0.65625 
Q 49.8125 -1.421875 42 -1.421875 
Q 24.90625 -1.421875 15.25 8.5625 
Q 5.609375 18.5625 5.609375 36.375 
Q 5.609375 54.25 15.25 64.234375 
Q 24.90625 74.21875 42 74.21875 
Q 49.125 74.21875 55.546875 72.453125 
Q 61.96875 70.703125 67.390625 67.28125 
L 67.390625 56.78125 
Q 61.921875 61.421875 55.765625 63.765625 
Q 49.609375 66.109375 42.828125 66.109375 
Q 29.4375 66.109375 22.71875 58.640625 
Q 16.015625 51.171875 16.015625 36.375 
Q 16.015625 21.625 22.71875 14.15625 
Q 29.4375 6.6875 42.828125 6.6875 
Q 48.046875 6.6875 52.140625 7.59375 
Q 56.25 8.5 59.515625 10.40625 
z
" id="DejaVuSans-71"/>
      </defs>
      <use xlink:href="#DejaVuSans-69"/>
      <use x="63.183594" xlink:href="#DejaVuSans-71"/>
      <use x="140.673828" xlink:href="#DejaVuSans-82"/>
      <use x="210.15625" xlink:href="#DejaVuSans-49"/>
     </g>
    </g>
   </g>
   <g id="text_7">
    <g clip-path="url(#pb25023c27f)">
     <!-- CCL5 -->
     <g transform="translate(579.626572 322.829372)scale(0.1 -0.1)">
      <defs>
       <path d="M 64.40625 67.28125 
L 64.40625 56.890625 
Q 59.421875 61.53125 53.78125 63.8125 
Q 48.140625 66.109375 41.796875 66.109375 
Q 29.296875 66.109375 22.65625 58.46875 
Q 16.015625 50.828125 16.015625 36.375 
Q 16.015625 21.96875 22.65625 14.328125 
Q 29.296875 6.6875 41.796875 6.6875 
Q 48.140625 6.6875 53.78125 8.984375 
Q 59.421875 11.28125 64.40625 15.921875 
L 64.40625 5.609375 
Q 59.234375 2.09375 53.4375 0.328125 
Q 47.65625 -1.421875 41.21875 -1.421875 
Q 24.65625 -1.421875 15.125 8.703125 
Q 5.609375 18.84375 5.609375 36.375 
Q 5.609375 53.953125 15.125 64.078125 
Q 24.65625 74.21875 41.21875 74.21875 
Q 47.75 74.21875 53.53125 72.484375 
Q 59.328125 70.75 64.40625 67.28125 
z
" id="DejaVuSans-67"/>
       <path d="M 9.8125 72.90625 
L 19.671875 72.90625 
L 19.671875 8.296875 
L 55.171875 8.296875 
L 55.171875 0 
L 9.8125 0 
z
" id="DejaVuSans-76"/>
       <path d="M 10.796875 72.90625 
L 49.515625 72.90625 
L 49.515625 64.59375 
L 19.828125 64.59375 
L 19.828125 46.734375 
Q 21.96875 47.46875 24.109375 47.828125 
Q 26.265625 48.1875 28.421875 48.1875 
Q 40.625 48.1875 47.75 41.5 
Q 54.890625 34.8125 54.890625 23.390625 
Q 54.890625 11.625 47.5625 5.09375 
Q 40.234375 -1.421875 26.90625 -1.421875 
Q 22.3125 -1.421875 17.546875 -0.640625 
Q 12.796875 0.140625 7.71875 1.703125 
L 7.71875 11.625 
Q 12.109375 9.234375 16.796875 8.0625 
Q 21.484375 6.890625 26.703125 6.890625 
Q 35.15625 6.890625 40.078125 11.328125 
Q 45.015625 15.765625 45.015625 23.390625 
Q 45.015625 31 40.078125 35.4375 
Q 35.15625 39.890625 26.703125 39.890625 
Q 22.75 39.890625 18.8125 39.015625 
Q 14.890625 38.140625 10.796875 36.28125 
z
" id="DejaVuSans-53"/>
      </defs>
      <use xlink:href="#DejaVuSans-67"/>
      <use x="69.824219" xlink:href="#DejaVuSans-67"/>
      <use x="139.648438" xlink:href="#DejaVuSans-76"/>
      <use x="195.361328" xlink:href="#DejaVuSans-53"/>
     </g>
    </g>
   </g>
   <g id="text_8">
    <g clip-path="url(#pb25023c27f)">
     <!-- NOTCH1 -->
     <g transform="translate(561.584023 350.256542)scale(0.1 -0.1)">
      <defs>
       <path d="M 9.8125 72.90625 
L 19.671875 72.90625 
L 19.671875 43.015625 
L 55.515625 43.015625 
L 55.515625 72.90625 
L 65.375 72.90625 
L 65.375 0 
L 55.515625 0 
L 55.515625 34.71875 
L 19.671875 34.71875 
L 19.671875 0 
L 9.8125 0 
z
" id="DejaVuSans-72"/>
      </defs>
      <use xlink:href="#DejaVuSans-78"/>
      <use x="74.804688" xlink:href="#DejaVuSans-79"/>
      <use x="153.515625" xlink:href="#DejaVuSans-84"/>
      <use x="208.724609" xlink:href="#DejaVuSans-67"/>
      <use x="278.548828" xlink:href="#DejaVuSans-72"/>
      <use x="353.744141" xlink:href="#DejaVuSans-49"/>
     </g>
    </g>
   </g>
   <g id="text_9">
    <g clip-path="url(#pb25023c27f)">
     <!-- HSPA5 -->
     <g transform="translate(541.612974 117.296737)scale(0.1 -0.1)">
      <use xlink:href="#DejaVuSans-72"/>
      <use x="75.195312" xlink:href="#DejaVuSans-83"/>
      <use x="138.671875" xlink:href="#DejaVuSans-80"/>
      <use x="192.599609" xlink:href="#DejaVuSans-65"/>
      <use x="261.007812" xlink:href="#DejaVuSans-53"/>
     </g>
    </g>
   </g>
   <g id="text_10">
    <g clip-path="url(#pb25023c27f)">
     <!-- CASP9 -->
     <g transform="translate(177.862642 297.526641)scale(0.1 -0.1)">
      <defs>
       <path d="M 10.984375 1.515625 
L 10.984375 10.5 
Q 14.703125 8.734375 18.5 7.8125 
Q 22.3125 6.890625 25.984375 6.890625 
Q 35.75 6.890625 40.890625 13.453125 
Q 46.046875 20.015625 46.78125 33.40625 
Q 43.953125 29.203125 39.59375 26.953125 
Q 35.25 24.703125 29.984375 24.703125 
Q 19.046875 24.703125 12.671875 31.3125 
Q 6.296875 37.9375 6.296875 49.421875 
Q 6.296875 60.640625 12.9375 67.421875 
Q 19.578125 74.21875 30.609375 74.21875 
Q 43.265625 74.21875 49.921875 64.515625 
Q 56.59375 54.828125 56.59375 36.375 
Q 56.59375 19.140625 48.40625 8.859375 
Q 40.234375 -1.421875 26.421875 -1.421875 
Q 22.703125 -1.421875 18.890625 -0.6875 
Q 15.09375 0.046875 10.984375 1.515625 
z
M 30.609375 32.421875 
Q 37.25 32.421875 41.125 36.953125 
Q 45.015625 41.5 45.015625 49.421875 
Q 45.015625 57.28125 41.125 61.84375 
Q 37.25 66.40625 30.609375 66.40625 
Q 23.96875 66.40625 20.09375 61.84375 
Q 16.21875 57.28125 16.21875 49.421875 
Q 16.21875 41.5 20.09375 36.953125 
Q 23.96875 32.421875 30.609375 32.421875 
z
" id="DejaVuSans-57"/>
      </defs>
      <use xlink:href="#DejaVuSans-67"/>
      <use x="69.824219" xlink:href="#DejaVuSans-65"/>
      <use x="138.232422" xlink:href="#DejaVuSans-83"/>
      <use x="201.708984" xlink:href="#DejaVuSans-80"/>
      <use x="262.011719" xlink:href="#DejaVuSans-57"/>
     </g>
    </g>
   </g>
   <g id="text_11">
    <g clip-path="url(#pb25023c27f)">
     <!-- CASP3 -->
     <g transform="translate(588.470899 214.970584)scale(0.1 -0.1)">
      <defs>
       <path d="M 40.578125 39.3125 
Q 47.65625 37.796875 51.625 33 
Q 55.609375 28.21875 55.609375 21.1875 
Q 55.609375 10.40625 48.1875 4.484375 
Q 40.765625 -1.421875 27.09375 -1.421875 
Q 22.515625 -1.421875 17.65625 -0.515625 
Q 12.796875 0.390625 7.625 2.203125 
L 7.625 11.71875 
Q 11.71875 9.328125 16.59375 8.109375 
Q 21.484375 6.890625 26.8125 6.890625 
Q 36.078125 6.890625 40.9375 10.546875 
Q 45.796875 14.203125 45.796875 21.1875 
Q 45.796875 27.640625 41.28125 31.265625 
Q 36.765625 34.90625 28.71875 34.90625 
L 20.21875 34.90625 
L 20.21875 43.015625 
L 29.109375 43.015625 
Q 36.375 43.015625 40.234375 45.921875 
Q 44.09375 48.828125 44.09375 54.296875 
Q 44.09375 59.90625 40.109375 62.90625 
Q 36.140625 65.921875 28.71875 65.921875 
Q 24.65625 65.921875 20.015625 65.03125 
Q 15.375 64.15625 9.8125 62.3125 
L 9.8125 71.09375 
Q 15.4375 72.65625 20.34375 73.4375 
Q 25.25 74.21875 29.59375 74.21875 
Q 40.828125 74.21875 47.359375 69.109375 
Q 53.90625 64.015625 53.90625 55.328125 
Q 53.90625 49.265625 50.4375 45.09375 
Q 46.96875 40.921875 40.578125 39.3125 
z
" id="DejaVuSans-51"/>
      </defs>
      <use xlink:href="#DejaVuSans-67"/>
      <use x="69.824219" xlink:href="#DejaVuSans-65"/>
      <use x="138.232422" xlink:href="#DejaVuSans-83"/>
      <use x="201.708984" xlink:href="#DejaVuSans-80"/>
      <use x="262.011719" xlink:href="#DejaVuSans-51"/>
     </g>
    </g>
   </g>
   <g id="text_12">
    <g clip-path="url(#pb25023c27f)">
     <!-- APAF1 -->
     <g transform="translate(190.478622 80.086532)scale(0.1 -0.1)">
      <use xlink:href="#DejaVuSans-65"/>
      <use x="68.408203" xlink:href="#DejaVuSans-80"/>
      <use x="122.335938" xlink:href="#DejaVuSans-65"/>
      <use x="190.744141" xlink:href="#DejaVuSans-70"/>
      <use x="248.263672" xlink:href="#DejaVuSans-49"/>
     </g>
    </g>
   </g>
   <g id="text_13">
    <g clip-path="url(#pb25023c27f)">
     <!-- EIF2AK3 -->
     <g transform="translate(523.258194 247.618083)scale(0.1 -0.1)">
      <defs>
       <path d="M 19.1875 8.296875 
L 53.609375 8.296875 
L 53.609375 0 
L 7.328125 0 
L 7.328125 8.296875 
Q 12.9375 14.109375 22.625 23.890625 
Q 32.328125 33.6875 34.8125 36.53125 
Q 39.546875 41.84375 41.421875 45.53125 
Q 43.3125 49.21875 43.3125 52.78125 
Q 43.3125 58.59375 39.234375 62.25 
Q 35.15625 65.921875 28.609375 65.921875 
Q 23.96875 65.921875 18.8125 64.3125 
Q 13.671875 62.703125 7.8125 59.421875 
L 7.8125 69.390625 
Q 13.765625 71.78125 18.9375 73 
Q 24.125 74.21875 28.421875 74.21875 
Q 39.75 74.21875 46.484375 68.546875 
Q 53.21875 62.890625 53.21875 53.421875 
Q 53.21875 48.921875 51.53125 44.890625 
Q 49.859375 40.875 45.40625 35.40625 
Q 44.1875 33.984375 37.640625 27.21875 
Q 31.109375 20.453125 19.1875 8.296875 
z
" id="DejaVuSans-50"/>
       <path d="M 9.8125 72.90625 
L 19.671875 72.90625 
L 19.671875 42.09375 
L 52.390625 72.90625 
L 65.09375 72.90625 
L 28.90625 38.921875 
L 67.671875 0 
L 54.6875 0 
L 19.671875 35.109375 
L 19.671875 0 
L 9.8125 0 
z
" id="DejaVuSans-75"/>
      </defs>
      <use xlink:href="#DejaVuSans-69"/>
      <use x="63.183594" xlink:href="#DejaVuSans-73"/>
      <use x="92.675781" xlink:href="#DejaVuSans-70"/>
      <use x="150.195312" xlink:href="#DejaVuSans-50"/>
      <use x="213.818359" xlink:href="#DejaVuSans-65"/>
      <use x="282.226562" xlink:href="#DejaVuSans-75"/>
      <use x="347.802734" xlink:href="#DejaVuSans-51"/>
     </g>
    </g>
   </g>
   <g id="text_14">
    <g clip-path="url(#pb25023c27f)">
     <!-- EIF2S1 -->
     <g transform="translate(267.497035 71.319516)scale(0.1 -0.1)">
      <use xlink:href="#DejaVuSans-69"/>
      <use x="63.183594" xlink:href="#DejaVuSans-73"/>
      <use x="92.675781" xlink:href="#DejaVuSans-70"/>
      <use x="150.195312" xlink:href="#DejaVuSans-50"/>
      <use x="213.818359" xlink:href="#DejaVuSans-83"/>
      <use x="277.294922" xlink:href="#DejaVuSans-49"/>
     </g>
    </g>
   </g>
   <g id="text_15">
    <g clip-path="url(#pb25023c27f)">
     <!-- ATF4 -->
     <g transform="translate(258.429476 289.492822)scale(0.1 -0.1)">
      <defs>
       <path d="M 37.796875 64.3125 
L 12.890625 25.390625 
L 37.796875 25.390625 
z
M 35.203125 72.90625 
L 47.609375 72.90625 
L 47.609375 25.390625 
L 58.015625 25.390625 
L 58.015625 17.1875 
L 47.609375 17.1875 
L 47.609375 0 
L 37.796875 0 
L 37.796875 17.1875 
L 4.890625 17.1875 
L 4.890625 26.703125 
z
" id="DejaVuSans-52"/>
      </defs>
      <use xlink:href="#DejaVuSans-65"/>
      <use x="60.658203" xlink:href="#DejaVuSans-84"/>
      <use x="121.742188" xlink:href="#DejaVuSans-70"/>
      <use x="179.261719" xlink:href="#DejaVuSans-52"/>
     </g>
    </g>
   </g>
   <g id="text_16">
    <g clip-path="url(#pb25023c27f)">
     <!-- DDIT3 -->
     <g transform="translate(98.508189 157.071842)scale(0.1 -0.1)">
      <use xlink:href="#DejaVuSans-68"/>
      <use x="77.001953" xlink:href="#DejaVuSans-68"/>
      <use x="154.003906" xlink:href="#DejaVuSans-73"/>
      <use x="183.496094" xlink:href="#DejaVuSans-84"/>
      <use x="244.580078" xlink:href="#DejaVuSans-51"/>
     </g>
    </g>
   </g>
   <g id="text_17">
    <g clip-path="url(#pb25023c27f)">
     <!-- GSK3B -->
     <g transform="translate(142.091071 106.05069)scale(0.1 -0.1)">
      <use xlink:href="#DejaVuSans-71"/>
      <use x="77.490234" xlink:href="#DejaVuSans-83"/>
      <use x="140.966797" xlink:href="#DejaVuSans-75"/>
      <use x="206.542969" xlink:href="#DejaVuSans-51"/>
      <use x="270.166016" xlink:href="#DejaVuSans-66"/>
     </g>
    </g>
   </g>
   <g id="text_18">
    <g clip-path="url(#pb25023c27f)">
     <!-- PRKCD -->
     <g transform="translate(282.571944 243.443433)scale(0.1 -0.1)">
      <use xlink:href="#DejaVuSans-80"/>
      <use x="60.302734" xlink:href="#DejaVuSans-82"/>
      <use x="129.785156" xlink:href="#DejaVuSans-75"/>
      <use x="189.861328" xlink:href="#DejaVuSans-67"/>
      <use x="259.685547" xlink:href="#DejaVuSans-68"/>
     </g>
    </g>
   </g>
   <g id="text_19">
    <g clip-path="url(#pb25023c27f)">
     <!-- CYBA -->
     <g transform="translate(487.853446 116.52343)scale(0.1 -0.1)">
      <use xlink:href="#DejaVuSans-67"/>
      <use x="68.074219" xlink:href="#DejaVuSans-89"/>
      <use x="129.158203" xlink:href="#DejaVuSans-66"/>
      <use x="197.761719" xlink:href="#DejaVuSans-65"/>
     </g>
    </g>
   </g>
   <g id="text_20">
    <g clip-path="url(#pb25023c27f)">
     <!-- NCF1 -->
     <g transform="translate(567.839484 143.517916)scale(0.1 -0.1)">
      <use xlink:href="#DejaVuSans-78"/>
      <use x="74.804688" xlink:href="#DejaVuSans-67"/>
      <use x="144.628906" xlink:href="#DejaVuSans-70"/>
      <use x="202.148438" xlink:href="#DejaVuSans-49"/>
     </g>
    </g>
   </g>
   <g id="text_21">
    <g clip-path="url(#pb25023c27f)">
     <!-- NCF2 -->
     <g transform="translate(574.319987 232.384233)scale(0.1 -0.1)">
      <use xlink:href="#DejaVuSans-78"/>
      <use x="74.804688" xlink:href="#DejaVuSans-67"/>
      <use x="144.628906" xlink:href="#DejaVuSans-70"/>
      <use x="202.148438" xlink:href="#DejaVuSans-50"/>
     </g>
    </g>
   </g>
   <g id="text_22">
    <g clip-path="url(#pb25023c27f)">
     <!-- NCF4 -->
     <g transform="translate(62.826379 187.602011)scale(0.1 -0.1)">
      <use xlink:href="#DejaVuSans-78"/>
      <use x="74.804688" xlink:href="#DejaVuSans-67"/>
      <use x="144.628906" xlink:href="#DejaVuSans-70"/>
      <use x="202.148438" xlink:href="#DejaVuSans-52"/>
     </g>
    </g>
   </g>
   <g id="text_23">
    <g clip-path="url(#pb25023c27f)">
     <!-- RYR1 -->
     <g transform="translate(121.149966 369.649684)scale(0.1 -0.1)">
      <use xlink:href="#DejaVuSans-82"/>
      <use x="63.107422" xlink:href="#DejaVuSans-89"/>
      <use x="124.191406" xlink:href="#DejaVuSans-82"/>
      <use x="193.673828" xlink:href="#DejaVuSans-49"/>
     </g>
    </g>
   </g>
   <g id="text_24">
    <g clip-path="url(#pb25023c27f)">
     <!-- ITPR1 -->
     <g transform="translate(51.106566 283.262475)scale(0.1 -0.1)">
      <use xlink:href="#DejaVuSans-73"/>
      <use x="29.492188" xlink:href="#DejaVuSans-84"/>
      <use x="90.576172" xlink:href="#DejaVuSans-80"/>
      <use x="150.878906" xlink:href="#DejaVuSans-82"/>
      <use x="220.361328" xlink:href="#DejaVuSans-49"/>
     </g>
    </g>
   </g>
   <g id="text_25">
    <g clip-path="url(#pb25023c27f)">
     <!-- ITPR2 -->
     <g transform="translate(502.675985 391.08085)scale(0.1 -0.1)">
      <use xlink:href="#DejaVuSans-73"/>
      <use x="29.492188" xlink:href="#DejaVuSans-84"/>
      <use x="90.576172" xlink:href="#DejaVuSans-80"/>
      <use x="150.878906" xlink:href="#DejaVuSans-82"/>
      <use x="220.361328" xlink:href="#DejaVuSans-50"/>
     </g>
    </g>
   </g>
   <g id="text_26">
    <g clip-path="url(#pb25023c27f)">
     <!-- ITPR3 -->
     <g transform="translate(417.199125 81.209314)scale(0.1 -0.1)">
      <use xlink:href="#DejaVuSans-73"/>
      <use x="29.492188" xlink:href="#DejaVuSans-84"/>
      <use x="90.576172" xlink:href="#DejaVuSans-80"/>
      <use x="150.878906" xlink:href="#DejaVuSans-82"/>
      <use x="220.361328" xlink:href="#DejaVuSans-51"/>
     </g>
    </g>
   </g>
   <g id="text_27">
    <g clip-path="url(#pb25023c27f)">
     <!-- PSMA6 -->
     <g transform="translate(78.641781 340.082753)scale(0.1 -0.1)">
      <defs>
       <path d="M 9.8125 72.90625 
L 24.515625 72.90625 
L 43.109375 23.296875 
L 61.8125 72.90625 
L 76.515625 72.90625 
L 76.515625 0 
L 66.890625 0 
L 66.890625 64.015625 
L 48.09375 14.015625 
L 38.1875 14.015625 
L 19.390625 64.015625 
L 19.390625 0 
L 9.8125 0 
z
" id="DejaVuSans-77"/>
       <path d="M 33.015625 40.375 
Q 26.375 40.375 22.484375 35.828125 
Q 18.609375 31.296875 18.609375 23.390625 
Q 18.609375 15.53125 22.484375 10.953125 
Q 26.375 6.390625 33.015625 6.390625 
Q 39.65625 6.390625 43.53125 10.953125 
Q 47.40625 15.53125 47.40625 23.390625 
Q 47.40625 31.296875 43.53125 35.828125 
Q 39.65625 40.375 33.015625 40.375 
z
M 52.59375 71.296875 
L 52.59375 62.3125 
Q 48.875 64.0625 45.09375 64.984375 
Q 41.3125 65.921875 37.59375 65.921875 
Q 27.828125 65.921875 22.671875 59.328125 
Q 17.53125 52.734375 16.796875 39.40625 
Q 19.671875 43.65625 24.015625 45.921875 
Q 28.375 48.1875 33.59375 48.1875 
Q 44.578125 48.1875 50.953125 41.515625 
Q 57.328125 34.859375 57.328125 23.390625 
Q 57.328125 12.15625 50.6875 5.359375 
Q 44.046875 -1.421875 33.015625 -1.421875 
Q 20.359375 -1.421875 13.671875 8.265625 
Q 6.984375 17.96875 6.984375 36.375 
Q 6.984375 53.65625 15.1875 63.9375 
Q 23.390625 74.21875 37.203125 74.21875 
Q 40.921875 74.21875 44.703125 73.484375 
Q 48.484375 72.75 52.59375 71.296875 
z
" id="DejaVuSans-54"/>
      </defs>
      <use xlink:href="#DejaVuSans-80"/>
      <use x="60.302734" xlink:href="#DejaVuSans-83"/>
      <use x="123.779297" xlink:href="#DejaVuSans-77"/>
      <use x="210.058594" xlink:href="#DejaVuSans-65"/>
      <use x="278.466797" xlink:href="#DejaVuSans-54"/>
     </g>
    </g>
   </g>
   <g id="text_28">
    <g clip-path="url(#pb25023c27f)">
     <!-- PSMA2 -->
     <g transform="translate(390.005611 414.97745)scale(0.1 -0.1)">
      <use xlink:href="#DejaVuSans-80"/>
      <use x="60.302734" xlink:href="#DejaVuSans-83"/>
      <use x="123.779297" xlink:href="#DejaVuSans-77"/>
      <use x="210.058594" xlink:href="#DejaVuSans-65"/>
      <use x="278.466797" xlink:href="#DejaVuSans-50"/>
     </g>
    </g>
   </g>
   <g id="text_29">
    <g clip-path="url(#pb25023c27f)">
     <!-- PSMA4 -->
     <g transform="translate(443.174269 409.405546)scale(0.1 -0.1)">
      <use xlink:href="#DejaVuSans-80"/>
      <use x="60.302734" xlink:href="#DejaVuSans-83"/>
      <use x="123.779297" xlink:href="#DejaVuSans-77"/>
      <use x="210.058594" xlink:href="#DejaVuSans-65"/>
      <use x="278.466797" xlink:href="#DejaVuSans-52"/>
     </g>
    </g>
   </g>
   <g id="text_30">
    <g clip-path="url(#pb25023c27f)">
     <!-- PSMA7 -->
     <g transform="translate(593.340653 247.826806)scale(0.1 -0.1)">
      <defs>
       <path d="M 8.203125 72.90625 
L 55.078125 72.90625 
L 55.078125 68.703125 
L 28.609375 0 
L 18.3125 0 
L 43.21875 64.59375 
L 8.203125 64.59375 
z
" id="DejaVuSans-55"/>
      </defs>
      <use xlink:href="#DejaVuSans-80"/>
      <use x="60.302734" xlink:href="#DejaVuSans-83"/>
      <use x="123.779297" xlink:href="#DejaVuSans-77"/>
      <use x="210.058594" xlink:href="#DejaVuSans-65"/>
      <use x="278.466797" xlink:href="#DejaVuSans-55"/>
     </g>
    </g>
   </g>
   <g id="text_31">
    <g clip-path="url(#pb25023c27f)">
     <!-- PSMA5 -->
     <g transform="translate(50.908721 239.00481)scale(0.1 -0.1)">
      <use xlink:href="#DejaVuSans-80"/>
      <use x="60.302734" xlink:href="#DejaVuSans-83"/>
      <use x="123.779297" xlink:href="#DejaVuSans-77"/>
      <use x="210.058594" xlink:href="#DejaVuSans-65"/>
      <use x="278.466797" xlink:href="#DejaVuSans-53"/>
     </g>
    </g>
   </g>
   <g id="text_32">
    <g clip-path="url(#pb25023c27f)">
     <!-- PSMA1 -->
     <g transform="translate(522.383334 134.354213)scale(0.1 -0.1)">
      <use xlink:href="#DejaVuSans-80"/>
      <use x="60.302734" xlink:href="#DejaVuSans-83"/>
      <use x="123.779297" xlink:href="#DejaVuSans-77"/>
      <use x="210.058594" xlink:href="#DejaVuSans-65"/>
      <use x="278.466797" xlink:href="#DejaVuSans-49"/>
     </g>
    </g>
   </g>
   <g id="text_33">
    <g clip-path="url(#pb25023c27f)">
     <!-- PSMA3 -->
     <g transform="translate(335.959266 430.110227)scale(0.1 -0.1)">
      <use xlink:href="#DejaVuSans-80"/>
      <use x="60.302734" xlink:href="#DejaVuSans-83"/>
      <use x="123.779297" xlink:href="#DejaVuSans-77"/>
      <use x="210.058594" xlink:href="#DejaVuSans-65"/>
      <use x="278.466797" xlink:href="#DejaVuSans-51"/>
     </g>
    </g>
   </g>
   <g id="text_34">
    <g clip-path="url(#pb25023c27f)">
     <!-- PSMB6 -->
     <g transform="translate(338.24062 63.564773)scale(0.1 -0.1)">
      <use xlink:href="#DejaVuSans-80"/>
      <use x="60.302734" xlink:href="#DejaVuSans-83"/>
      <use x="123.779297" xlink:href="#DejaVuSans-77"/>
      <use x="210.058594" xlink:href="#DejaVuSans-66"/>
      <use x="278.662109" xlink:href="#DejaVuSans-54"/>
     </g>
    </g>
   </g>
   <g id="text_35">
    <g clip-path="url(#pb25023c27f)">
     <!-- PSMB7 -->
     <g transform="translate(48.697402 214.231955)scale(0.1 -0.1)">
      <use xlink:href="#DejaVuSans-80"/>
      <use x="60.302734" xlink:href="#DejaVuSans-83"/>
      <use x="123.779297" xlink:href="#DejaVuSans-77"/>
      <use x="210.058594" xlink:href="#DejaVuSans-66"/>
      <use x="278.662109" xlink:href="#DejaVuSans-55"/>
     </g>
    </g>
   </g>
   <g id="text_36">
    <g clip-path="url(#pb25023c27f)">
     <!-- PSMB3 -->
     <g transform="translate(479.594924 90.48775)scale(0.1 -0.1)">
      <use xlink:href="#DejaVuSans-80"/>
      <use x="60.302734" xlink:href="#DejaVuSans-83"/>
      <use x="123.779297" xlink:href="#DejaVuSans-77"/>
      <use x="210.058594" xlink:href="#DejaVuSans-66"/>
      <use x="278.662109" xlink:href="#DejaVuSans-51"/>
     </g>
    </g>
   </g>
   <g id="text_37">
    <g clip-path="url(#pb25023c27f)">
     <!-- PSMB2 -->
     <g transform="translate(474.158843 411.481926)scale(0.1 -0.1)">
      <use xlink:href="#DejaVuSans-80"/>
      <use x="60.302734" xlink:href="#DejaVuSans-83"/>
      <use x="123.779297" xlink:href="#DejaVuSans-77"/>
      <use x="210.058594" xlink:href="#DejaVuSans-66"/>
      <use x="278.662109" xlink:href="#DejaVuSans-50"/>
     </g>
    </g>
   </g>
   <g id="text_38">
    <g clip-path="url(#pb25023c27f)">
     <!-- PSMB5 -->
     <g transform="translate(530.139895 376.739224)scale(0.1 -0.1)">
      <use xlink:href="#DejaVuSans-80"/>
      <use x="60.302734" xlink:href="#DejaVuSans-83"/>
      <use x="123.779297" xlink:href="#DejaVuSans-77"/>
      <use x="210.058594" xlink:href="#DejaVuSans-66"/>
      <use x="278.662109" xlink:href="#DejaVuSans-53"/>
     </g>
    </g>
   </g>
   <g id="text_39">
    <g clip-path="url(#pb25023c27f)">
     <!-- PSMB1 -->
     <g transform="translate(316.69186 79.411652)scale(0.1 -0.1)">
      <use xlink:href="#DejaVuSans-80"/>
      <use x="60.302734" xlink:href="#DejaVuSans-83"/>
      <use x="123.779297" xlink:href="#DejaVuSans-77"/>
      <use x="210.058594" xlink:href="#DejaVuSans-66"/>
      <use x="278.662109" xlink:href="#DejaVuSans-49"/>
     </g>
    </g>
   </g>
   <g id="text_40">
    <g clip-path="url(#pb25023c27f)">
     <!-- PSMB4 -->
     <g transform="translate(249.740401 422.905403)scale(0.1 -0.1)">
      <use xlink:href="#DejaVuSans-80"/>
      <use x="60.302734" xlink:href="#DejaVuSans-83"/>
      <use x="123.779297" xlink:href="#DejaVuSans-77"/>
      <use x="210.058594" xlink:href="#DejaVuSans-66"/>
      <use x="278.662109" xlink:href="#DejaVuSans-52"/>
     </g>
    </g>
   </g>
   <g id="text_41">
    <g clip-path="url(#pb25023c27f)">
     <!-- PSMC2 -->
     <g transform="translate(601.518434 271.969976)scale(0.1 -0.1)">
      <use xlink:href="#DejaVuSans-80"/>
      <use x="60.302734" xlink:href="#DejaVuSans-83"/>
      <use x="123.779297" xlink:href="#DejaVuSans-77"/>
      <use x="210.058594" xlink:href="#DejaVuSans-67"/>
      <use x="279.882812" xlink:href="#DejaVuSans-50"/>
     </g>
    </g>
   </g>
   <g id="text_42">
    <g clip-path="url(#pb25023c27f)">
     <!-- PSMC1 -->
     <g transform="translate(116.315423 119.643148)scale(0.1 -0.1)">
      <use xlink:href="#DejaVuSans-80"/>
      <use x="60.302734" xlink:href="#DejaVuSans-83"/>
      <use x="123.779297" xlink:href="#DejaVuSans-77"/>
      <use x="210.058594" xlink:href="#DejaVuSans-67"/>
      <use x="279.882812" xlink:href="#DejaVuSans-49"/>
     </g>
    </g>
   </g>
   <g id="text_43">
    <g clip-path="url(#pb25023c27f)">
     <!-- PSMC4 -->
     <g transform="translate(70.963248 300.43647)scale(0.1 -0.1)">
      <use xlink:href="#DejaVuSans-80"/>
      <use x="60.302734" xlink:href="#DejaVuSans-83"/>
      <use x="123.779297" xlink:href="#DejaVuSans-77"/>
      <use x="210.058594" xlink:href="#DejaVuSans-67"/>
      <use x="279.882812" xlink:href="#DejaVuSans-52"/>
     </g>
    </g>
   </g>
   <g id="text_44">
    <g clip-path="url(#pb25023c27f)">
     <!-- PSMC6 -->
     <g transform="translate(78.652884 210.327255)scale(0.1 -0.1)">
      <use xlink:href="#DejaVuSans-80"/>
      <use x="60.302734" xlink:href="#DejaVuSans-83"/>
      <use x="123.779297" xlink:href="#DejaVuSans-77"/>
      <use x="210.058594" xlink:href="#DejaVuSans-67"/>
      <use x="279.882812" xlink:href="#DejaVuSans-54"/>
     </g>
    </g>
   </g>
   <g id="text_45">
    <g clip-path="url(#pb25023c27f)">
     <!-- PSMC3 -->
     <g transform="translate(98.340783 137.077421)scale(0.1 -0.1)">
      <use xlink:href="#DejaVuSans-80"/>
      <use x="60.302734" xlink:href="#DejaVuSans-83"/>
      <use x="123.779297" xlink:href="#DejaVuSans-77"/>
      <use x="210.058594" xlink:href="#DejaVuSans-67"/>
      <use x="279.882812" xlink:href="#DejaVuSans-51"/>
     </g>
    </g>
   </g>
   <g id="text_46">
    <g clip-path="url(#pb25023c27f)">
     <!-- PSMC5 -->
     <g transform="translate(445.613493 92.93163)scale(0.1 -0.1)">
      <use xlink:href="#DejaVuSans-80"/>
      <use x="60.302734" xlink:href="#DejaVuSans-83"/>
      <use x="123.779297" xlink:href="#DejaVuSans-77"/>
      <use x="210.058594" xlink:href="#DejaVuSans-67"/>
      <use x="279.882812" xlink:href="#DejaVuSans-53"/>
     </g>
    </g>
   </g>
   <g id="text_47">
    <g clip-path="url(#pb25023c27f)">
     <!-- PSMD2 -->
     <g transform="translate(574.674343 171.95013)scale(0.1 -0.1)">
      <use xlink:href="#DejaVuSans-80"/>
      <use x="60.302734" xlink:href="#DejaVuSans-83"/>
      <use x="123.779297" xlink:href="#DejaVuSans-77"/>
      <use x="210.058594" xlink:href="#DejaVuSans-68"/>
      <use x="287.060547" xlink:href="#DejaVuSans-50"/>
     </g>
    </g>
   </g>
   <g id="text_48">
    <g clip-path="url(#pb25023c27f)">
     <!-- PSMD1 -->
     <g transform="translate(184.08032 89.929836)scale(0.1 -0.1)">
      <use xlink:href="#DejaVuSans-80"/>
      <use x="60.302734" xlink:href="#DejaVuSans-83"/>
      <use x="123.779297" xlink:href="#DejaVuSans-77"/>
      <use x="210.058594" xlink:href="#DejaVuSans-68"/>
      <use x="287.060547" xlink:href="#DejaVuSans-49"/>
     </g>
    </g>
   </g>
   <g id="text_49">
    <g clip-path="url(#pb25023c27f)">
     <!-- PSMD3 -->
     <g transform="translate(532.232681 167.399325)scale(0.1 -0.1)">
      <use xlink:href="#DejaVuSans-80"/>
      <use x="60.302734" xlink:href="#DejaVuSans-83"/>
      <use x="123.779297" xlink:href="#DejaVuSans-77"/>
      <use x="210.058594" xlink:href="#DejaVuSans-68"/>
      <use x="287.060547" xlink:href="#DejaVuSans-51"/>
     </g>
    </g>
   </g>
   <g id="text_50">
    <g clip-path="url(#pb25023c27f)">
     <!-- PSMD9 -->
     <g transform="translate(278.173374 412.152746)scale(0.1 -0.1)">
      <use xlink:href="#DejaVuSans-80"/>
      <use x="60.302734" xlink:href="#DejaVuSans-83"/>
      <use x="123.779297" xlink:href="#DejaVuSans-77"/>
      <use x="210.058594" xlink:href="#DejaVuSans-68"/>
      <use x="287.060547" xlink:href="#DejaVuSans-57"/>
     </g>
    </g>
   </g>
   <g id="text_51">
    <g clip-path="url(#pb25023c27f)">
     <!-- PSMD12 -->
     <g transform="translate(155.082838 399.687214)scale(0.1 -0.1)">
      <use xlink:href="#DejaVuSans-80"/>
      <use x="60.302734" xlink:href="#DejaVuSans-83"/>
      <use x="123.779297" xlink:href="#DejaVuSans-77"/>
      <use x="210.058594" xlink:href="#DejaVuSans-68"/>
      <use x="287.060547" xlink:href="#DejaVuSans-49"/>
      <use x="350.683594" xlink:href="#DejaVuSans-50"/>
     </g>
    </g>
   </g>
   <g id="text_52">
    <g clip-path="url(#pb25023c27f)">
     <!-- PSMD11 -->
     <g transform="translate(151.258939 375.37454)scale(0.1 -0.1)">
      <use xlink:href="#DejaVuSans-80"/>
      <use x="60.302734" xlink:href="#DejaVuSans-83"/>
      <use x="123.779297" xlink:href="#DejaVuSans-77"/>
      <use x="210.058594" xlink:href="#DejaVuSans-68"/>
      <use x="287.060547" xlink:href="#DejaVuSans-49"/>
      <use x="350.683594" xlink:href="#DejaVuSans-49"/>
     </g>
    </g>
   </g>
   <g id="text_53">
    <g clip-path="url(#pb25023c27f)">
     <!-- PSMD6 -->
     <g transform="translate(300.762059 425.346325)scale(0.1 -0.1)">
      <use xlink:href="#DejaVuSans-80"/>
      <use x="60.302734" xlink:href="#DejaVuSans-83"/>
      <use x="123.779297" xlink:href="#DejaVuSans-77"/>
      <use x="210.058594" xlink:href="#DejaVuSans-68"/>
      <use x="287.060547" xlink:href="#DejaVuSans-54"/>
     </g>
    </g>
   </g>
   <g id="text_54">
    <g clip-path="url(#pb25023c27f)">
     <!-- PSMD7 -->
     <g transform="translate(240.152017 75.770368)scale(0.1 -0.1)">
      <use xlink:href="#DejaVuSans-80"/>
      <use x="60.302734" xlink:href="#DejaVuSans-83"/>
      <use x="123.779297" xlink:href="#DejaVuSans-77"/>
      <use x="210.058594" xlink:href="#DejaVuSans-68"/>
      <use x="287.060547" xlink:href="#DejaVuSans-55"/>
     </g>
    </g>
   </g>
   <g id="text_55">
    <g clip-path="url(#pb25023c27f)">
     <!-- PSMD13 -->
     <g transform="translate(166.287025 106.634701)scale(0.1 -0.1)">
      <use xlink:href="#DejaVuSans-80"/>
      <use x="60.302734" xlink:href="#DejaVuSans-83"/>
      <use x="123.779297" xlink:href="#DejaVuSans-77"/>
      <use x="210.058594" xlink:href="#DejaVuSans-68"/>
      <use x="287.060547" xlink:href="#DejaVuSans-49"/>
      <use x="350.683594" xlink:href="#DejaVuSans-51"/>
     </g>
    </g>
   </g>
   <g id="text_56">
    <g clip-path="url(#pb25023c27f)">
     <!-- PSMD4 -->
     <g transform="translate(354.018025 412.022475)scale(0.1 -0.1)">
      <use xlink:href="#DejaVuSans-80"/>
      <use x="60.302734" xlink:href="#DejaVuSans-83"/>
      <use x="123.779297" xlink:href="#DejaVuSans-77"/>
      <use x="210.058594" xlink:href="#DejaVuSans-68"/>
      <use x="287.060547" xlink:href="#DejaVuSans-52"/>
     </g>
    </g>
   </g>
   <g id="text_57">
    <g clip-path="url(#pb25023c27f)">
     <!-- PSMD14 -->
     <g transform="translate(531.045638 349.803588)scale(0.1 -0.1)">
      <use xlink:href="#DejaVuSans-80"/>
      <use x="60.302734" xlink:href="#DejaVuSans-83"/>
      <use x="123.779297" xlink:href="#DejaVuSans-77"/>
      <use x="210.058594" xlink:href="#DejaVuSans-68"/>
      <use x="287.060547" xlink:href="#DejaVuSans-49"/>
      <use x="350.683594" xlink:href="#DejaVuSans-52"/>
     </g>
    </g>
   </g>
   <g id="text_58">
    <g clip-path="url(#pb25023c27f)">
     <!-- PSMD8 -->
     <g transform="translate(573.373154 194.266825)scale(0.1 -0.1)">
      <defs>
       <path d="M 31.78125 34.625 
Q 24.75 34.625 20.71875 30.859375 
Q 16.703125 27.09375 16.703125 20.515625 
Q 16.703125 13.921875 20.71875 10.15625 
Q 24.75 6.390625 31.78125 6.390625 
Q 38.8125 6.390625 42.859375 10.171875 
Q 46.921875 13.96875 46.921875 20.515625 
Q 46.921875 27.09375 42.890625 30.859375 
Q 38.875 34.625 31.78125 34.625 
z
M 21.921875 38.8125 
Q 15.578125 40.375 12.03125 44.71875 
Q 8.5 49.078125 8.5 55.328125 
Q 8.5 64.0625 14.71875 69.140625 
Q 20.953125 74.21875 31.78125 74.21875 
Q 42.671875 74.21875 48.875 69.140625 
Q 55.078125 64.0625 55.078125 55.328125 
Q 55.078125 49.078125 51.53125 44.71875 
Q 48 40.375 41.703125 38.8125 
Q 48.828125 37.15625 52.796875 32.3125 
Q 56.78125 27.484375 56.78125 20.515625 
Q 56.78125 9.90625 50.3125 4.234375 
Q 43.84375 -1.421875 31.78125 -1.421875 
Q 19.734375 -1.421875 13.25 4.234375 
Q 6.78125 9.90625 6.78125 20.515625 
Q 6.78125 27.484375 10.78125 32.3125 
Q 14.796875 37.15625 21.921875 38.8125 
z
M 18.3125 54.390625 
Q 18.3125 48.734375 21.84375 45.5625 
Q 25.390625 42.390625 31.78125 42.390625 
Q 38.140625 42.390625 41.71875 45.5625 
Q 45.3125 48.734375 45.3125 54.390625 
Q 45.3125 60.0625 41.71875 63.234375 
Q 38.140625 66.40625 31.78125 66.40625 
Q 25.390625 66.40625 21.84375 63.234375 
Q 18.3125 60.0625 18.3125 54.390625 
z
" id="DejaVuSans-56"/>
      </defs>
      <use xlink:href="#DejaVuSans-80"/>
      <use x="60.302734" xlink:href="#DejaVuSans-83"/>
      <use x="123.779297" xlink:href="#DejaVuSans-77"/>
      <use x="210.058594" xlink:href="#DejaVuSans-68"/>
      <use x="287.060547" xlink:href="#DejaVuSans-56"/>
     </g>
    </g>
   </g>
   <g id="text_59">
    <g clip-path="url(#pb25023c27f)">
     <!-- SHFM1 -->
     <g transform="translate(406.891434 424.978125)scale(0.1 -0.1)">
      <use xlink:href="#DejaVuSans-83"/>
      <use x="63.476562" xlink:href="#DejaVuSans-72"/>
      <use x="138.671875" xlink:href="#DejaVuSans-70"/>
      <use x="196.191406" xlink:href="#DejaVuSans-77"/>
      <use x="282.470703" xlink:href="#DejaVuSans-49"/>
     </g>
    </g>
   </g>
   <g id="text_60">
    <g clip-path="url(#pb25023c27f)">
     <!-- CSNK2B -->
     <g transform="translate(102.799467 338.369204)scale(0.1 -0.1)">
      <use xlink:href="#DejaVuSans-67"/>
      <use x="69.824219" xlink:href="#DejaVuSans-83"/>
      <use x="133.300781" xlink:href="#DejaVuSans-78"/>
      <use x="208.105469" xlink:href="#DejaVuSans-75"/>
      <use x="273.681641" xlink:href="#DejaVuSans-50"/>
      <use x="337.304688" xlink:href="#DejaVuSans-66"/>
     </g>
    </g>
   </g>
   <g id="text_61">
    <g clip-path="url(#pb25023c27f)">
     <!-- CREB1 -->
     <g transform="translate(264.9947 176.971284)scale(0.1 -0.1)">
      <use xlink:href="#DejaVuSans-67"/>
      <use x="69.824219" xlink:href="#DejaVuSans-82"/>
      <use x="139.306641" xlink:href="#DejaVuSans-69"/>
      <use x="202.490234" xlink:href="#DejaVuSans-66"/>
      <use x="271.09375" xlink:href="#DejaVuSans-49"/>
     </g>
    </g>
   </g>
   <g id="text_62">
    <g clip-path="url(#pb25023c27f)">
     <!-- ATF2 -->
     <g transform="translate(433.777415 372.665514)scale(0.1 -0.1)">
      <use xlink:href="#DejaVuSans-65"/>
      <use x="60.658203" xlink:href="#DejaVuSans-84"/>
      <use x="121.742188" xlink:href="#DejaVuSans-70"/>
      <use x="179.261719" xlink:href="#DejaVuSans-50"/>
     </g>
    </g>
   </g>
   <g id="text_63">
    <g clip-path="url(#pb25023c27f)">
     <!-- CREB3 -->
     <g transform="translate(213.155131 413.257661)scale(0.1 -0.1)">
      <use xlink:href="#DejaVuSans-67"/>
      <use x="69.824219" xlink:href="#DejaVuSans-82"/>
      <use x="139.306641" xlink:href="#DejaVuSans-69"/>
      <use x="202.490234" xlink:href="#DejaVuSans-66"/>
      <use x="271.09375" xlink:href="#DejaVuSans-51"/>
     </g>
    </g>
   </g>
   <g id="text_64">
    <g clip-path="url(#pb25023c27f)">
     <!-- ATF6B -->
     <g transform="translate(163.503558 279.180522)scale(0.1 -0.1)">
      <use xlink:href="#DejaVuSans-65"/>
      <use x="60.658203" xlink:href="#DejaVuSans-84"/>
      <use x="121.742188" xlink:href="#DejaVuSans-70"/>
      <use x="179.261719" xlink:href="#DejaVuSans-54"/>
      <use x="242.884766" xlink:href="#DejaVuSans-66"/>
     </g>
    </g>
   </g>
   <g id="text_65">
    <g clip-path="url(#pb25023c27f)">
     <!-- RAC1 -->
     <g transform="translate(383.922831 69.041449)scale(0.1 -0.1)">
      <use xlink:href="#DejaVuSans-82"/>
      <use x="65.482422" xlink:href="#DejaVuSans-65"/>
      <use x="132.140625" xlink:href="#DejaVuSans-67"/>
      <use x="201.964844" xlink:href="#DejaVuSans-49"/>
     </g>
    </g>
   </g>
   <g id="text_66">
    <g clip-path="url(#pb25023c27f)">
     <!-- RAC2 -->
     <g transform="translate(52.904537 260.66601)scale(0.1 -0.1)">
      <use xlink:href="#DejaVuSans-82"/>
      <use x="65.482422" xlink:href="#DejaVuSans-65"/>
      <use x="132.140625" xlink:href="#DejaVuSans-67"/>
      <use x="201.964844" xlink:href="#DejaVuSans-50"/>
     </g>
    </g>
   </g>
   <g id="text_67">
    <!-- Importance Score for Each Node in the Network -->
    <g transform="translate(198.616875 16.318125)scale(0.12 -0.12)">
     <defs>
      <path d="M 52 44.1875 
Q 55.375 50.25 60.0625 53.125 
Q 64.75 56 71.09375 56 
Q 79.640625 56 84.28125 50.015625 
Q 88.921875 44.046875 88.921875 33.015625 
L 88.921875 0 
L 79.890625 0 
L 79.890625 32.71875 
Q 79.890625 40.578125 77.09375 44.375 
Q 74.3125 48.1875 68.609375 48.1875 
Q 61.625 48.1875 57.5625 43.546875 
Q 53.515625 38.921875 53.515625 30.90625 
L 53.515625 0 
L 44.484375 0 
L 44.484375 32.71875 
Q 44.484375 40.625 41.703125 44.40625 
Q 38.921875 48.1875 33.109375 48.1875 
Q 26.21875 48.1875 22.15625 43.53125 
Q 18.109375 38.875 18.109375 30.90625 
L 18.109375 0 
L 9.078125 0 
L 9.078125 54.6875 
L 18.109375 54.6875 
L 18.109375 46.1875 
Q 21.1875 51.21875 25.484375 53.609375 
Q 29.78125 56 35.6875 56 
Q 41.65625 56 45.828125 52.96875 
Q 50 49.953125 52 44.1875 
z
" id="DejaVuSans-109"/>
      <path d="M 18.109375 8.203125 
L 18.109375 -20.796875 
L 9.078125 -20.796875 
L 9.078125 54.6875 
L 18.109375 54.6875 
L 18.109375 46.390625 
Q 20.953125 51.265625 25.265625 53.625 
Q 29.59375 56 35.59375 56 
Q 45.5625 56 51.78125 48.09375 
Q 58.015625 40.1875 58.015625 27.296875 
Q 58.015625 14.40625 51.78125 6.484375 
Q 45.5625 -1.421875 35.59375 -1.421875 
Q 29.59375 -1.421875 25.265625 0.953125 
Q 20.953125 3.328125 18.109375 8.203125 
z
M 48.6875 27.296875 
Q 48.6875 37.203125 44.609375 42.84375 
Q 40.53125 48.484375 33.40625 48.484375 
Q 26.265625 48.484375 22.1875 42.84375 
Q 18.109375 37.203125 18.109375 27.296875 
Q 18.109375 17.390625 22.1875 11.75 
Q 26.265625 6.109375 33.40625 6.109375 
Q 40.53125 6.109375 44.609375 11.75 
Q 48.6875 17.390625 48.6875 27.296875 
z
" id="DejaVuSans-112"/>
      <path d="M 30.609375 48.390625 
Q 23.390625 48.390625 19.1875 42.75 
Q 14.984375 37.109375 14.984375 27.296875 
Q 14.984375 17.484375 19.15625 11.84375 
Q 23.34375 6.203125 30.609375 6.203125 
Q 37.796875 6.203125 41.984375 11.859375 
Q 46.1875 17.53125 46.1875 27.296875 
Q 46.1875 37.015625 41.984375 42.703125 
Q 37.796875 48.390625 30.609375 48.390625 
z
M 30.609375 56 
Q 42.328125 56 49.015625 48.375 
Q 55.71875 40.765625 55.71875 27.296875 
Q 55.71875 13.875 49.015625 6.21875 
Q 42.328125 -1.421875 30.609375 -1.421875 
Q 18.84375 -1.421875 12.171875 6.21875 
Q 5.515625 13.875 5.515625 27.296875 
Q 5.515625 40.765625 12.171875 48.375 
Q 18.84375 56 30.609375 56 
z
" id="DejaVuSans-111"/>
      <path d="M 41.109375 46.296875 
Q 39.59375 47.171875 37.8125 47.578125 
Q 36.03125 48 33.890625 48 
Q 26.265625 48 22.1875 43.046875 
Q 18.109375 38.09375 18.109375 28.8125 
L 18.109375 0 
L 9.078125 0 
L 9.078125 54.6875 
L 18.109375 54.6875 
L 18.109375 46.1875 
Q 20.953125 51.171875 25.484375 53.578125 
Q 30.03125 56 36.53125 56 
Q 37.453125 56 38.578125 55.875 
Q 39.703125 55.765625 41.0625 55.515625 
z
" id="DejaVuSans-114"/>
      <path d="M 18.3125 70.21875 
L 18.3125 54.6875 
L 36.8125 54.6875 
L 36.8125 47.703125 
L 18.3125 47.703125 
L 18.3125 18.015625 
Q 18.3125 11.328125 20.140625 9.421875 
Q 21.96875 7.515625 27.59375 7.515625 
L 36.8125 7.515625 
L 36.8125 0 
L 27.59375 0 
Q 17.1875 0 13.234375 3.875 
Q 9.28125 7.765625 9.28125 18.015625 
L 9.28125 47.703125 
L 2.6875 47.703125 
L 2.6875 54.6875 
L 9.28125 54.6875 
L 9.28125 70.21875 
z
" id="DejaVuSans-116"/>
      <path d="M 34.28125 27.484375 
Q 23.390625 27.484375 19.1875 25 
Q 14.984375 22.515625 14.984375 16.5 
Q 14.984375 11.71875 18.140625 8.90625 
Q 21.296875 6.109375 26.703125 6.109375 
Q 34.1875 6.109375 38.703125 11.40625 
Q 43.21875 16.703125 43.21875 25.484375 
L 43.21875 27.484375 
z
M 52.203125 31.203125 
L 52.203125 0 
L 43.21875 0 
L 43.21875 8.296875 
Q 40.140625 3.328125 35.546875 0.953125 
Q 30.953125 -1.421875 24.3125 -1.421875 
Q 15.921875 -1.421875 10.953125 3.296875 
Q 6 8.015625 6 15.921875 
Q 6 25.140625 12.171875 29.828125 
Q 18.359375 34.515625 30.609375 34.515625 
L 43.21875 34.515625 
L 43.21875 35.40625 
Q 43.21875 41.609375 39.140625 45 
Q 35.0625 48.390625 27.6875 48.390625 
Q 23 48.390625 18.546875 47.265625 
Q 14.109375 46.140625 10.015625 43.890625 
L 10.015625 52.203125 
Q 14.9375 54.109375 19.578125 55.046875 
Q 24.21875 56 28.609375 56 
Q 40.484375 56 46.34375 49.84375 
Q 52.203125 43.703125 52.203125 31.203125 
z
" id="DejaVuSans-97"/>
      <path d="M 54.890625 33.015625 
L 54.890625 0 
L 45.90625 0 
L 45.90625 32.71875 
Q 45.90625 40.484375 42.875 44.328125 
Q 39.84375 48.1875 33.796875 48.1875 
Q 26.515625 48.1875 22.3125 43.546875 
Q 18.109375 38.921875 18.109375 30.90625 
L 18.109375 0 
L 9.078125 0 
L 9.078125 54.6875 
L 18.109375 54.6875 
L 18.109375 46.1875 
Q 21.34375 51.125 25.703125 53.5625 
Q 30.078125 56 35.796875 56 
Q 45.21875 56 50.046875 50.171875 
Q 54.890625 44.34375 54.890625 33.015625 
z
" id="DejaVuSans-110"/>
      <path d="M 48.78125 52.59375 
L 48.78125 44.1875 
Q 44.96875 46.296875 41.140625 47.34375 
Q 37.3125 48.390625 33.40625 48.390625 
Q 24.65625 48.390625 19.8125 42.84375 
Q 14.984375 37.3125 14.984375 27.296875 
Q 14.984375 17.28125 19.8125 11.734375 
Q 24.65625 6.203125 33.40625 6.203125 
Q 37.3125 6.203125 41.140625 7.25 
Q 44.96875 8.296875 48.78125 10.40625 
L 48.78125 2.09375 
Q 45.015625 0.34375 40.984375 -0.53125 
Q 36.96875 -1.421875 32.421875 -1.421875 
Q 20.0625 -1.421875 12.78125 6.34375 
Q 5.515625 14.109375 5.515625 27.296875 
Q 5.515625 40.671875 12.859375 48.328125 
Q 20.21875 56 33.015625 56 
Q 37.15625 56 41.109375 55.140625 
Q 45.0625 54.296875 48.78125 52.59375 
z
" id="DejaVuSans-99"/>
      <path d="M 56.203125 29.59375 
L 56.203125 25.203125 
L 14.890625 25.203125 
Q 15.484375 15.921875 20.484375 11.0625 
Q 25.484375 6.203125 34.421875 6.203125 
Q 39.59375 6.203125 44.453125 7.46875 
Q 49.3125 8.734375 54.109375 11.28125 
L 54.109375 2.78125 
Q 49.265625 0.734375 44.1875 -0.34375 
Q 39.109375 -1.421875 33.890625 -1.421875 
Q 20.796875 -1.421875 13.15625 6.1875 
Q 5.515625 13.8125 5.515625 26.8125 
Q 5.515625 40.234375 12.765625 48.109375 
Q 20.015625 56 32.328125 56 
Q 43.359375 56 49.78125 48.890625 
Q 56.203125 41.796875 56.203125 29.59375 
z
M 47.21875 32.234375 
Q 47.125 39.59375 43.09375 43.984375 
Q 39.0625 48.390625 32.421875 48.390625 
Q 24.90625 48.390625 20.390625 44.140625 
Q 15.875 39.890625 15.1875 32.171875 
z
" id="DejaVuSans-101"/>
      <path id="DejaVuSans-32"/>
      <path d="M 37.109375 75.984375 
L 37.109375 68.5 
L 28.515625 68.5 
Q 23.6875 68.5 21.796875 66.546875 
Q 19.921875 64.59375 19.921875 59.515625 
L 19.921875 54.6875 
L 34.71875 54.6875 
L 34.71875 47.703125 
L 19.921875 47.703125 
L 19.921875 0 
L 10.890625 0 
L 10.890625 47.703125 
L 2.296875 47.703125 
L 2.296875 54.6875 
L 10.890625 54.6875 
L 10.890625 58.5 
Q 10.890625 67.625 15.140625 71.796875 
Q 19.390625 75.984375 28.609375 75.984375 
z
" id="DejaVuSans-102"/>
      <path d="M 54.890625 33.015625 
L 54.890625 0 
L 45.90625 0 
L 45.90625 32.71875 
Q 45.90625 40.484375 42.875 44.328125 
Q 39.84375 48.1875 33.796875 48.1875 
Q 26.515625 48.1875 22.3125 43.546875 
Q 18.109375 38.921875 18.109375 30.90625 
L 18.109375 0 
L 9.078125 0 
L 9.078125 75.984375 
L 18.109375 75.984375 
L 18.109375 46.1875 
Q 21.34375 51.125 25.703125 53.5625 
Q 30.078125 56 35.796875 56 
Q 45.21875 56 50.046875 50.171875 
Q 54.890625 44.34375 54.890625 33.015625 
z
" id="DejaVuSans-104"/>
      <path d="M 45.40625 46.390625 
L 45.40625 75.984375 
L 54.390625 75.984375 
L 54.390625 0 
L 45.40625 0 
L 45.40625 8.203125 
Q 42.578125 3.328125 38.25 0.953125 
Q 33.9375 -1.421875 27.875 -1.421875 
Q 17.96875 -1.421875 11.734375 6.484375 
Q 5.515625 14.40625 5.515625 27.296875 
Q 5.515625 40.1875 11.734375 48.09375 
Q 17.96875 56 27.875 56 
Q 33.9375 56 38.25 53.625 
Q 42.578125 51.265625 45.40625 46.390625 
z
M 14.796875 27.296875 
Q 14.796875 17.390625 18.875 11.75 
Q 22.953125 6.109375 30.078125 6.109375 
Q 37.203125 6.109375 41.296875 11.75 
Q 45.40625 17.390625 45.40625 27.296875 
Q 45.40625 37.203125 41.296875 42.84375 
Q 37.203125 48.484375 30.078125 48.484375 
Q 22.953125 48.484375 18.875 42.84375 
Q 14.796875 37.203125 14.796875 27.296875 
z
" id="DejaVuSans-100"/>
      <path d="M 9.421875 54.6875 
L 18.40625 54.6875 
L 18.40625 0 
L 9.421875 0 
z
M 9.421875 75.984375 
L 18.40625 75.984375 
L 18.40625 64.59375 
L 9.421875 64.59375 
z
" id="DejaVuSans-105"/>
      <path d="M 4.203125 54.6875 
L 13.1875 54.6875 
L 24.421875 12.015625 
L 35.59375 54.6875 
L 46.1875 54.6875 
L 57.421875 12.015625 
L 68.609375 54.6875 
L 77.59375 54.6875 
L 63.28125 0 
L 52.6875 0 
L 40.921875 44.828125 
L 29.109375 0 
L 18.5 0 
z
" id="DejaVuSans-119"/>
      <path d="M 9.078125 75.984375 
L 18.109375 75.984375 
L 18.109375 31.109375 
L 44.921875 54.6875 
L 56.390625 54.6875 
L 27.390625 29.109375 
L 57.625 0 
L 45.90625 0 
L 18.109375 26.703125 
L 18.109375 0 
L 9.078125 0 
z
" id="DejaVuSans-107"/>
     </defs>
     <use xlink:href="#DejaVuSans-73"/>
     <use x="29.492188" xlink:href="#DejaVuSans-109"/>
     <use x="126.904297" xlink:href="#DejaVuSans-112"/>
     <use x="190.380859" xlink:href="#DejaVuSans-111"/>
     <use x="251.5625" xlink:href="#DejaVuSans-114"/>
     <use x="292.675781" xlink:href="#DejaVuSans-116"/>
     <use x="331.884766" xlink:href="#DejaVuSans-97"/>
     <use x="393.164062" xlink:href="#DejaVuSans-110"/>
     <use x="456.542969" xlink:href="#DejaVuSans-99"/>
     <use x="511.523438" xlink:href="#DejaVuSans-101"/>
     <use x="573.046875" xlink:href="#DejaVuSans-32"/>
     <use x="604.833984" xlink:href="#DejaVuSans-83"/>
     <use x="668.310547" xlink:href="#DejaVuSans-99"/>
     <use x="723.291016" xlink:href="#DejaVuSans-111"/>
     <use x="784.472656" xlink:href="#DejaVuSans-114"/>
     <use x="823.335938" xlink:href="#DejaVuSans-101"/>
     <use x="884.859375" xlink:href="#DejaVuSans-32"/>
     <use x="916.646484" xlink:href="#DejaVuSans-102"/>
     <use x="951.851562" xlink:href="#DejaVuSans-111"/>
     <use x="1013.033203" xlink:href="#DejaVuSans-114"/>
     <use x="1054.146484" xlink:href="#DejaVuSans-32"/>
     <use x="1085.933594" xlink:href="#DejaVuSans-69"/>
     <use x="1149.117188" xlink:href="#DejaVuSans-97"/>
     <use x="1210.396484" xlink:href="#DejaVuSans-99"/>
     <use x="1265.376953" xlink:href="#DejaVuSans-104"/>
     <use x="1328.755859" xlink:href="#DejaVuSans-32"/>
     <use x="1360.542969" xlink:href="#DejaVuSans-78"/>
     <use x="1435.347656" xlink:href="#DejaVuSans-111"/>
     <use x="1496.529297" xlink:href="#DejaVuSans-100"/>
     <use x="1560.005859" xlink:href="#DejaVuSans-101"/>
     <use x="1621.529297" xlink:href="#DejaVuSans-32"/>
     <use x="1653.316406" xlink:href="#DejaVuSans-105"/>
     <use x="1681.099609" xlink:href="#DejaVuSans-110"/>
     <use x="1744.478516" xlink:href="#DejaVuSans-32"/>
     <use x="1776.265625" xlink:href="#DejaVuSans-116"/>
     <use x="1815.474609" xlink:href="#DejaVuSans-104"/>
     <use x="1878.853516" xlink:href="#DejaVuSans-101"/>
     <use x="1940.376953" xlink:href="#DejaVuSans-32"/>
     <use x="1972.164062" xlink:href="#DejaVuSans-78"/>
     <use x="2046.96875" xlink:href="#DejaVuSans-101"/>
     <use x="2108.492188" xlink:href="#DejaVuSans-116"/>
     <use x="2147.701172" xlink:href="#DejaVuSans-119"/>
     <use x="2229.488281" xlink:href="#DejaVuSans-111"/>
     <use x="2290.669922" xlink:href="#DejaVuSans-114"/>
     <use x="2331.783203" xlink:href="#DejaVuSans-107"/>
    </g>
   </g>
  </g>
 </g>
 <defs>
  <clipPath id="pb25023c27f">
   <rect height="443.52" width="669.6" x="7.2" y="22.318125"/>
  </clipPath>
 </defs>
</svg>
