<?xml version="1.0" encoding="utf-8" standalone="no"?>
<!DOCTYPE svg PUBLIC "-//W3C//DTD SVG 1.1//EN"
  "http://www.w3.org/Graphics/SVG/1.1/DTD/svg11.dtd">
<!-- Created with matplotlib (https://matplotlib.org/) -->
<svg height="473.038125pt" version="1.1" viewBox="0 0 684 473.038125" width="684pt" xmlns="http://www.w3.org/2000/svg" xmlns:xlink="http://www.w3.org/1999/xlink">
 <metadata>
  <rdf:RDF xmlns:cc="http://creativecommons.org/ns#" xmlns:dc="http://purl.org/dc/elements/1.1/" xmlns:rdf="http://www.w3.org/1999/02/22-rdf-syntax-ns#">
   <cc:Work>
    <dc:type rdf:resource="http://purl.org/dc/dcmitype/StillImage"/>
    <dc:date>2024-04-26T10:50:34.918137</dc:date>
    <dc:format>image/svg+xml</dc:format>
    <dc:creator>
     <cc:Agent>
      <dc:title>Matplotlib v3.3.1, https://matplotlib.org/</dc:title>
     </cc:Agent>
    </dc:creator>
   </cc:Work>
  </rdf:RDF>
 </metadata>
 <defs>
  <style type="text/css">*{stroke-linecap:butt;stroke-linejoin:round;}</style>
 </defs>
 <g id="figure_1">
  <g id="patch_1">
   <path d="M 0 473.038125 
L 684 473.038125 
L 684 0 
L 0 0 
z
" style="fill:#ffffff;"/>
  </g>
  <g id="axes_1">
   <g id="patch_2">
    <path clip-path="url(#p446c213478)" d="M 446.736538 353.836924 
Q 440.568319 323.793603 434.624954 294.845471 
" style="fill:none;stroke:#808080;stroke-linecap:round;"/>
    <path clip-path="url(#p446c213478)" d="M 433.470283 299.165972 
L 434.624954 294.845471 
L 437.388553 298.361509 
L 433.470283 299.165972 
z
" style="fill:#808080;stroke:#808080;stroke-linecap:round;"/>
   </g>
   <g id="patch_3">
    <path clip-path="url(#p446c213478)" d="M 447.747618 353.687023 
Q 439.695788 258.477937 431.738175 164.382909 
" style="fill:none;stroke:#808080;stroke-linecap:round;"/>
    <path clip-path="url(#p446c213478)" d="M 430.082366 168.537219 
L 431.738175 164.382909 
L 434.068138 168.200142 
L 430.082366 168.537219 
z
" style="fill:#808080;stroke:#808080;stroke-linecap:round;"/>
   </g>
   <g id="patch_4">
    <path clip-path="url(#p446c213478)" d="M 142.171817 148.952144 
Q 223.572235 193.875561 303.993792 238.258762 
" style="fill:none;stroke:#808080;stroke-linecap:round;"/>
    <path clip-path="url(#p446c213478)" d="M 301.458082 234.574991 
L 303.993792 238.258762 
L 299.525349 238.077068 
L 301.458082 234.574991 
z
" style="fill:#808080;stroke:#808080;stroke-linecap:round;"/>
   </g>
   <g id="patch_5">
    <path clip-path="url(#p446c213478)" d="M 318.05166 249.67647 
Q 350.561952 289.267906 382.36273 327.995287 
" style="fill:none;stroke:#808080;stroke-linecap:round;"/>
    <path clip-path="url(#p446c213478)" d="M 381.369964 323.634735 
L 382.36273 327.995287 
L 378.278629 326.173168 
L 381.369964 323.634735 
z
" style="fill:#808080;stroke:#808080;stroke-linecap:round;"/>
   </g>
   <g id="patch_6">
    <path clip-path="url(#p446c213478)" d="M 320.086697 247.25397 
Q 326.428749 250.849899 331.798225 253.894379 
" style="fill:none;stroke:#808080;stroke-linecap:round;"/>
    <path clip-path="url(#p446c213478)" d="M 329.305091 250.18166 
L 331.798225 253.894379 
L 327.332169 253.661255 
L 329.305091 250.18166 
z
" style="fill:#808080;stroke:#808080;stroke-linecap:round;"/>
   </g>
   <g id="patch_7">
    <path clip-path="url(#p446c213478)" d="M 303.913093 242.474221 
Q 188.932959 235.688251 75.068916 228.968152 
" style="fill:none;stroke:#808080;stroke-linecap:round;"/>
    <path clip-path="url(#p446c213478)" d="M 78.944136 231.200342 
L 75.068916 228.968152 
L 79.1798 227.20729 
L 78.944136 231.200342 
z
" style="fill:#808080;stroke:#808080;stroke-linecap:round;"/>
   </g>
   <g id="patch_8">
    <path clip-path="url(#p446c213478)" d="M 319.491142 237.79627 
Q 406.572886 172.64753 492.759402 108.16854 
" style="fill:none;stroke:#808080;stroke-linecap:round;"/>
    <path clip-path="url(#p446c213478)" d="M 488.358449 108.963278 
L 492.759402 108.16854 
L 490.75462 112.166146 
L 488.358449 108.963278 
z
" style="fill:#808080;stroke:#808080;stroke-linecap:round;"/>
   </g>
   <g id="patch_9">
    <path clip-path="url(#p446c213478)" d="M 106.393027 338.671819 
Q 137.591812 357.608616 167.834844 375.965297 
" style="fill:none;stroke:#808080;stroke-linecap:round;"/>
    <path clip-path="url(#p446c213478)" d="M 165.453178 372.180106 
L 167.834844 375.965297 
L 163.377692 375.599515 
L 165.453178 372.180106 
z
" style="fill:#808080;stroke:#808080;stroke-linecap:round;"/>
   </g>
   <g id="patch_10">
    <path clip-path="url(#p446c213478)" d="M 342.21328 390.794392 
Q 418.634711 406.234971 493.960252 421.454131 
" style="fill:none;stroke:#808080;stroke-linecap:round;"/>
    <path clip-path="url(#p446c213478)" d="M 490.435565 418.701572 
L 493.960252 421.454131 
L 489.643392 422.622345 
L 490.435565 418.701572 
z
" style="fill:#808080;stroke:#808080;stroke-linecap:round;"/>
   </g>
   <g id="patch_11">
    <path clip-path="url(#p446c213478)" d="M 341.000402 384.380286 
Q 444.527853 317.48961 547.116233 251.205682 
" style="fill:none;stroke:#808080;stroke-linecap:round;"/>
    <path clip-path="url(#p446c213478)" d="M 542.671122 251.69659 
L 547.116233 251.205682 
L 544.841893 255.056316 
L 542.671122 251.69659 
z
" style="fill:#808080;stroke:#808080;stroke-linecap:round;"/>
   </g>
   <g id="patch_12">
    <path clip-path="url(#p446c213478)" d="M 260.31688 183.708063 
Q 210.317698 222.405338 161.202673 260.418313 
" style="fill:none;stroke:#808080;stroke-linecap:round;"/>
    <path clip-path="url(#p446c213478)" d="M 165.590042 259.551713 
L 161.202673 260.418313 
L 163.141814 256.388458 
L 165.590042 259.551713 
z
" style="fill:#808080;stroke:#808080;stroke-linecap:round;"/>
   </g>
   <g id="patch_13">
    <path clip-path="url(#p446c213478)" d="M 275.669237 180.031841 
Q 416.306213 206.848877 555.844943 233.456497 
" style="fill:none;stroke:#808080;stroke-linecap:round;"/>
    <path clip-path="url(#p446c213478)" d="M 552.290354 230.742663 
L 555.844943 233.456497 
L 551.541123 234.671868 
L 552.290354 230.742663 
z
" style="fill:#808080;stroke:#808080;stroke-linecap:round;"/>
   </g>
   <g id="patch_14">
    <path clip-path="url(#p446c213478)" d="M 334.364168 84.817994 
Q 318.240464 75.054816 303.073131 65.870736 
" style="fill:none;stroke:#808080;stroke-linecap:round;"/>
    <path clip-path="url(#p446c213478)" d="M 305.458823 69.653391 
L 303.073131 65.870736 
L 307.53067 66.231775 
L 305.458823 69.653391 
z
" style="fill:#808080;stroke:#808080;stroke-linecap:round;"/>
   </g>
   <g id="patch_15">
    <path clip-path="url(#p446c213478)" d="M 208.168867 349.658521 
Q 239.54337 229.070352 270.636357 109.564195 
" style="fill:none;stroke:#808080;stroke-linecap:round;"/>
    <path clip-path="url(#p446c213478)" d="M 267.693612 112.931724 
L 270.636357 109.564195 
L 271.564734 113.938909 
L 267.693612 112.931724 
z
" style="fill:#808080;stroke:#808080;stroke-linecap:round;"/>
   </g>
   <g id="patch_16">
    <path clip-path="url(#p446c213478)" d="M 254.376624 362.183201 
Q 263.428897 235.46303 272.401506 109.85805 
" style="fill:none;stroke:#808080;stroke-linecap:round;"/>
    <path clip-path="url(#p446c213478)" d="M 270.121575 113.705376 
L 272.401506 109.85805 
L 274.111408 113.99039 
L 270.121575 113.705376 
z
" style="fill:#808080;stroke:#808080;stroke-linecap:round;"/>
   </g>
   <g id="patch_17">
    <path clip-path="url(#p446c213478)" d="M 299.617374 309.786589 
Q 330.977743 226.60891 361.943685 144.477378 
" style="fill:none;stroke:#808080;stroke-linecap:round;"/>
    <path clip-path="url(#p446c213478)" d="M 358.661129 147.514619 
L 361.943685 144.477378 
L 362.403944 148.925767 
L 358.661129 147.514619 
z
" style="fill:#808080;stroke:#808080;stroke-linecap:round;"/>
   </g>
   <g id="patch_18">
    <path clip-path="url(#p446c213478)" d="M 292.351719 310.320058 
Q 263.82177 259.023207 235.835248 208.703437 
" style="fill:none;stroke:#808080;stroke-linecap:round;"/>
    <path clip-path="url(#p446c213478)" d="M 236.031614 213.17126 
L 235.835248 208.703437 
L 239.527326 211.227038 
L 236.031614 213.17126 
z
" style="fill:#808080;stroke:#808080;stroke-linecap:round;"/>
   </g>
   <g id="patch_19">
    <path clip-path="url(#p446c213478)" d="M 408.412015 218.84122 
Q 509.502192 256.962955 609.546248 294.690191 
" style="fill:none;stroke:#808080;stroke-linecap:round;"/>
    <path clip-path="url(#p446c213478)" d="M 606.50923 291.407429 
L 609.546248 294.690191 
L 605.097828 295.150148 
L 606.50923 291.407429 
z
" style="fill:#808080;stroke:#808080;stroke-linecap:round;"/>
   </g>
   <g id="patch_20">
    <path clip-path="url(#p446c213478)" d="M 184.773934 379.9064 
Q 214.974108 375.928966 244.065819 372.097519 
" style="fill:none;stroke:#808080;stroke-linecap:round;"/>
    <path clip-path="url(#p446c213478)" d="M 239.838916 370.636941 
L 244.065819 372.097519 
L 240.361215 374.602695 
L 239.838916 370.636941 
z
" style="fill:#808080;stroke:#808080;stroke-linecap:round;"/>
   </g>
   <g id="patch_21">
    <path clip-path="url(#p446c213478)" d="M 424.82409 281.574105 
Q 283.622777 215.016619 143.432779 148.935832 
" style="fill:none;stroke:#808080;stroke-linecap:round;"/>
    <path clip-path="url(#p446c213478)" d="M 146.198224 152.450419 
L 143.432779 148.935832 
L 147.903715 148.832229 
L 146.198224 152.450419 
z
" style="fill:#808080;stroke:#808080;stroke-linecap:round;"/>
   </g>
   <g id="patch_22">
    <path clip-path="url(#p446c213478)" d="M 422.255379 154.351606 
Q 282.74709 149.703096 144.356214 145.091819 
" style="fill:none;stroke:#808080;stroke-linecap:round;"/>
    <path clip-path="url(#p446c213478)" d="M 148.287391 147.223919 
L 144.356214 145.091819 
L 148.4206 143.226137 
L 148.287391 147.223919 
z
" style="fill:#808080;stroke:#808080;stroke-linecap:round;"/>
   </g>
   <g id="patch_23">
    <path clip-path="url(#p446c213478)" d="M 379.914294 335.960508 
Q 239.89912 342.606213 101.000724 349.198912 
" style="fill:none;stroke:#808080;stroke-linecap:round;"/>
    <path clip-path="url(#p446c213478)" d="M 105.091047 351.007019 
L 101.000724 349.198912 
L 104.901404 347.011517 
L 105.091047 351.007019 
z
" style="fill:#808080;stroke:#808080;stroke-linecap:round;"/>
   </g>
   <g id="patch_24">
    <path clip-path="url(#p446c213478)" d="M 390.568069 327.122964 
Q 412.155107 236.255574 433.48373 146.475944 
" style="fill:none;stroke:#808080;stroke-linecap:round;"/>
    <path clip-path="url(#p446c213478)" d="M 430.613352 149.905365 
L 433.48373 146.475944 
L 434.50504 150.829899 
L 430.613352 149.905365 
z
" style="fill:#808080;stroke:#808080;stroke-linecap:round;"/>
   </g>
   <g id="patch_25">
    <path clip-path="url(#p446c213478)" d="M 332.169377 261.689452 
Q 215.771152 304.19057 100.423141 346.308217 
" style="fill:none;stroke:#808080;stroke-linecap:round;"/>
    <path clip-path="url(#p446c213478)" d="M 104.866475 346.814952 
L 100.423141 346.308217 
L 103.49453 343.05759 
L 104.866475 346.814952 
z
" style="fill:#808080;stroke:#808080;stroke-linecap:round;"/>
   </g>
   <g id="patch_26">
    <path clip-path="url(#p446c213478)" d="M 345.650679 251.900232 
Q 388.025909 197.840145 429.711406 144.659983 
" style="fill:none;stroke:#808080;stroke-linecap:round;"/>
    <path clip-path="url(#p446c213478)" d="M 425.669684 146.574267 
L 429.711406 144.659983 
L 428.8178 149.041931 
L 425.669684 146.574267 
z
" style="fill:#808080;stroke:#808080;stroke-linecap:round;"/>
   </g>
   <g id="patch_27">
    <path clip-path="url(#p446c213478)" d="M 97.999872 344.256315 
Q 155.170075 298.555005 211.46698 253.551801 
" style="fill:none;stroke:#808080;stroke-linecap:round;"/>
    <path clip-path="url(#p446c213478)" d="M 207.093766 254.487218 
L 211.46698 253.551801 
L 209.591385 257.611622 
L 207.093766 254.487218 
z
" style="fill:#808080;stroke:#808080;stroke-linecap:round;"/>
   </g>
   <g id="patch_28">
    <path clip-path="url(#p446c213478)" d="M 97.705919 343.904344 
Q 175.1835 274.939403 251.825966 206.717821 
" style="fill:none;stroke:#808080;stroke-linecap:round;"/>
    <path clip-path="url(#p446c213478)" d="M 247.508406 207.883444 
L 251.825966 206.717821 
L 250.167928 210.871243 
L 247.508406 207.883444 
z
" style="fill:#808080;stroke:#808080;stroke-linecap:round;"/>
   </g>
   <g id="patch_29">
    <path clip-path="url(#p446c213478)" d="M 428.031274 140.897812 
Q 327.428364 192.202941 227.821448 243.000136 
" style="fill:none;stroke:#808080;stroke-linecap:round;"/>
    <path clip-path="url(#p446c213478)" d="M 232.293443 242.964586 
L 227.821448 243.000136 
L 230.476205 239.40121 
L 232.293443 242.964586 
z
" style="fill:#808080;stroke:#808080;stroke-linecap:round;"/>
   </g>
   <g id="patch_30">
    <path clip-path="url(#p446c213478)" d="M 427.591235 139.884366 
Q 347.43703 168.589966 268.335395 196.918609 
" style="fill:none;stroke:#808080;stroke-linecap:round;"/>
    <path clip-path="url(#p446c213478)" d="M 272.775505 197.452863 
L 268.335395 196.918609 
L 271.426864 193.687073 
L 272.775505 197.452863 
z
" style="fill:#808080;stroke:#808080;stroke-linecap:round;"/>
   </g>
   <g id="patch_31">
    <path clip-path="url(#p446c213478)" d="M 212.08757 252.512836 
Q 159.049725 290.809201 106.918318 328.451066 
" style="fill:none;stroke:#808080;stroke-linecap:round;"/>
    <path clip-path="url(#p446c213478)" d="M 111.332094 327.730941 
L 106.918318 328.451066 
L 108.990483 324.48797 
L 111.332094 327.730941 
z
" style="fill:#808080;stroke:#808080;stroke-linecap:round;"/>
   </g>
   <g id="patch_32">
    <path clip-path="url(#p446c213478)" d="M 222.359403 239.415877 
Q 256.908046 154.123759 291.036943 69.86789 
" style="fill:none;stroke:#808080;stroke-linecap:round;"/>
    <path clip-path="url(#p446c213478)" d="M 287.681515 72.824426 
L 291.036943 69.86789 
L 291.388914 74.326154 
L 287.681515 72.824426 
z
" style="fill:#808080;stroke:#808080;stroke-linecap:round;"/>
   </g>
   <g id="patch_33">
    <path clip-path="url(#p446c213478)" d="M 210.523984 248.598856 
Q 145.208664 257.386234 81.001395 266.024536 
" style="fill:none;stroke:#808080;stroke-linecap:round;"/>
    <path clip-path="url(#p446c213478)" d="M 85.232351 267.473332 
L 81.001395 266.024536 
L 84.699005 263.509049 
L 85.232351 267.473332 
z
" style="fill:#808080;stroke:#808080;stroke-linecap:round;"/>
   </g>
   <g id="patch_34">
    <path clip-path="url(#p446c213478)" d="M 216.850897 239.084275 
Q 197.159895 166.13698 177.76026 94.269085 
" style="fill:none;stroke:#808080;stroke-linecap:round;"/>
    <path clip-path="url(#p446c213478)" d="M 176.871799 98.652079 
L 177.76026 94.269085 
L 180.733578 97.609651 
L 176.871799 98.652079 
z
" style="fill:#808080;stroke:#808080;stroke-linecap:round;"/>
   </g>
   <g id="patch_35">
    <path clip-path="url(#p446c213478)" d="M 227.755988 247.93851 
Q 321.379362 253.291228 413.886524 258.58013 
" style="fill:none;stroke:#808080;stroke-linecap:round;"/>
    <path clip-path="url(#p446c213478)" d="M 410.007205 256.355072 
L 413.886524 258.58013 
L 409.778886 260.34855 
L 410.007205 256.355072 
z
" style="fill:#808080;stroke:#808080;stroke-linecap:round;"/>
   </g>
   <g id="patch_36">
    <path clip-path="url(#p446c213478)" d="M 252.487663 205.772609 
Q 179.060283 267.195634 106.490457 327.901304 
" style="fill:none;stroke:#808080;stroke-linecap:round;"/>
    <path clip-path="url(#p446c213478)" d="M 110.841784 326.868852 
L 106.490457 327.901304 
L 108.275292 323.800772 
L 110.841784 326.868852 
z
" style="fill:#808080;stroke:#808080;stroke-linecap:round;"/>
   </g>
   <g id="patch_37">
    <path clip-path="url(#p446c213478)" d="M 261.273885 191.820687 
Q 276.920024 130.509226 292.28971 70.281081 
" style="fill:none;stroke:#808080;stroke-linecap:round;"/>
    <path clip-path="url(#p446c213478)" d="M 289.362748 73.662338 
L 292.28971 70.281081 
L 293.238538 74.651405 
L 289.362748 73.662338 
z
" style="fill:#808080;stroke:#808080;stroke-linecap:round;"/>
   </g>
   <g id="patch_38">
    <path clip-path="url(#p446c213478)" d="M 250.9781 203.128193 
Q 165.220623 233.771306 80.515984 264.038216 
" style="fill:none;stroke:#808080;stroke-linecap:round;"/>
    <path clip-path="url(#p446c213478)" d="M 84.955711 264.575645 
L 80.515984 264.038216 
L 83.609763 260.808892 
L 84.955711 264.575645 
z
" style="fill:#808080;stroke:#808080;stroke-linecap:round;"/>
   </g>
   <g id="patch_39">
    <path clip-path="url(#p446c213478)" d="M 254.037849 193.210545 
Q 217.170644 142.518562 180.961039 92.73077 
" style="fill:none;stroke:#808080;stroke-linecap:round;"/>
    <path clip-path="url(#p446c213478)" d="M 181.696271 97.142055 
L 180.961039 92.73077 
L 184.931206 94.789355 
L 181.696271 97.142055 
z
" style="fill:#808080;stroke:#808080;stroke-linecap:round;"/>
   </g>
   <g id="patch_40">
    <path clip-path="url(#p446c213478)" d="M 267.282924 203.134075 
Q 341.390136 229.676201 414.444788 255.841343 
" style="fill:none;stroke:#808080;stroke-linecap:round;"/>
    <path clip-path="url(#p446c213478)" d="M 411.353402 252.609729 
L 414.444788 255.841343 
L 410.004665 256.375483 
L 411.353402 252.609729 
z
" style="fill:#808080;stroke:#808080;stroke-linecap:round;"/>
   </g>
   <g id="patch_41">
    <path clip-path="url(#p446c213478)" d="M 415.768899 262.719412 
Q 314.820841 308.587484 214.890669 353.993055 
" style="fill:none;stroke:#808080;stroke-linecap:round;"/>
    <path clip-path="url(#p446c213478)" d="M 219.359718 354.159215 
L 214.890669 353.993055 
L 217.705026 350.517513 
L 219.359718 354.159215 
z
" style="fill:#808080;stroke:#808080;stroke-linecap:round;"/>
   </g>
   <g id="patch_42">
    <path clip-path="url(#p446c213478)" d="M 417.698087 252.85072 
Q 348.375854 179.62119 279.822234 107.203594 
" style="fill:none;stroke:#808080;stroke-linecap:round;"/>
    <path clip-path="url(#p446c213478)" d="M 281.119671 111.483391 
L 279.822234 107.203594 
L 284.024533 108.733522 
L 281.119671 111.483391 
z
" style="fill:#808080;stroke:#808080;stroke-linecap:round;"/>
   </g>
   <g id="patch_43">
    <path clip-path="url(#p446c213478)" d="M 160.627269 271.2774 
Q 243.596842 327.742045 325.642118 383.577663 
" style="fill:none;stroke:#808080;stroke-linecap:round;"/>
    <path clip-path="url(#p446c213478)" d="M 323.46049 379.673755 
L 325.642118 383.577663 
L 321.210014 382.980621 
L 323.46049 379.673755 
z
" style="fill:#808080;stroke:#808080;stroke-linecap:round;"/>
   </g>
   <g id="patch_44">
    <path clip-path="url(#p446c213478)" d="M 159.774523 260.473273 
Q 247.620209 177.854347 334.651468 96.00139 
" style="fill:none;stroke:#808080;stroke-linecap:round;"/>
    <path clip-path="url(#p446c213478)" d="M 330.367479 97.284913 
L 334.651468 96.00139 
L 333.107893 100.198696 
L 330.367479 97.284913 
z
" style="fill:#808080;stroke:#808080;stroke-linecap:round;"/>
   </g>
   <g id="patch_45">
    <path clip-path="url(#p446c213478)" d="M 558.229538 240.076843 
Q 449.587156 312.183065 341.876307 383.671026 
" style="fill:none;stroke:#808080;stroke-linecap:round;"/>
    <path clip-path="url(#p446c213478)" d="M 346.315039 383.125446 
L 341.876307 383.671026 
L 344.103082 379.792693 
L 346.315039 383.125446 
z
" style="fill:#808080;stroke:#808080;stroke-linecap:round;"/>
   </g>
   <g id="patch_46">
    <path clip-path="url(#p446c213478)" d="M 337.776557 301.999967 
Q 468.123745 323.751066 597.368148 345.318143 
" style="fill:none;stroke:#808080;stroke-linecap:round;"/>
    <path clip-path="url(#p446c213478)" d="M 593.751892 342.687042 
L 597.368148 345.318143 
L 593.093514 346.632487 
L 593.751892 342.687042 
z
" style="fill:#808080;stroke:#808080;stroke-linecap:round;"/>
   </g>
   <g id="patch_47">
    <path clip-path="url(#p446c213478)" d="M 466.526466 80.250424 
Q 538.990203 148.772509 610.641586 216.526427 
" style="fill:none;stroke:#808080;stroke-linecap:round;"/>
    <path clip-path="url(#p446c213478)" d="M 609.109356 212.324966 
L 610.641586 216.526427 
L 606.361079 215.231334 
L 609.109356 212.324966 
z
" style="fill:#808080;stroke:#808080;stroke-linecap:round;"/>
   </g>
   <g id="patch_48">
    <path clip-path="url(#p446c213478)" d="M 451.630707 75.291747 
Q 336.346837 88.609989 222.173614 101.799923 
" style="fill:none;stroke:#808080;stroke-linecap:round;"/>
    <path clip-path="url(#p446c213478)" d="M 226.376711 103.32766 
L 222.173614 101.799923 
L 225.917661 99.354088 
L 226.376711 103.32766 
z
" style="fill:#808080;stroke:#808080;stroke-linecap:round;"/>
   </g>
   <g id="patch_49">
    <path clip-path="url(#p446c213478)" d="M 358.031071 139.879497 
Q 259.431023 200.865038 161.781828 261.262464 
" style="fill:none;stroke:#808080;stroke-linecap:round;"/>
    <path clip-path="url(#p446c213478)" d="M 166.235754 260.859293 
L 161.781828 261.262464 
L 164.131647 257.457421 
L 166.235754 260.859293 
z
" style="fill:#808080;stroke:#808080;stroke-linecap:round;"/>
   </g>
   <g id="patch_50">
    <path clip-path="url(#p446c213478)" d="M 373.138618 139.194914 
Q 465.417467 185.304897 556.696189 230.915135 
" style="fill:none;stroke:#808080;stroke-linecap:round;"/>
    <path clip-path="url(#p446c213478)" d="M 554.011994 227.338112 
L 556.696189 230.915135 
L 552.224053 230.916277 
L 554.011994 227.338112 
z
" style="fill:#808080;stroke:#808080;stroke-linecap:round;"/>
   </g>
   <g id="patch_51">
    <path clip-path="url(#p446c213478)" d="M 224.495793 205.781088 
Q 192.275385 233.28179 160.905372 260.056663 
" style="fill:none;stroke:#808080;stroke-linecap:round;"/>
    <path clip-path="url(#p446c213478)" d="M 165.246242 258.981096 
L 160.905372 260.056663 
L 162.64944 255.938627 
L 165.246242 258.981096 
z
" style="fill:#808080;stroke:#808080;stroke-linecap:round;"/>
   </g>
   <g id="patch_52">
    <path clip-path="url(#p446c213478)" d="M 239.697645 201.063888 
Q 398.264866 217.723078 555.720173 234.26545 
" style="fill:none;stroke:#808080;stroke-linecap:round;"/>
    <path clip-path="url(#p446c213478)" d="M 551.951039 231.858454 
L 555.720173 234.26545 
L 551.533096 235.83656 
L 551.951039 231.858454 
z
" style="fill:#808080;stroke:#808080;stroke-linecap:round;"/>
   </g>
   <g id="patch_53">
    <path clip-path="url(#p446c213478)" d="M 338.386555 421.778551 
Q 249.2411 346.876258 160.951635 272.693188 
" style="fill:none;stroke:#808080;stroke-linecap:round;"/>
    <path clip-path="url(#p446c213478)" d="M 162.727527 276.797601 
L 160.951635 272.693188 
L 165.300701 273.735122 
L 162.727527 276.797601 
z
" style="fill:#808080;stroke:#808080;stroke-linecap:round;"/>
   </g>
   <g id="patch_54">
    <path clip-path="url(#p446c213478)" d="M 352.151592 422.436583 
Q 436.789841 364.126232 520.507401 306.450176 
" style="fill:none;stroke:#808080;stroke-linecap:round;"/>
    <path clip-path="url(#p446c213478)" d="M 516.07878 307.072524 
L 520.507401 306.450176 
L 518.348107 310.366482 
L 516.07878 307.072524 
z
" style="fill:#808080;stroke:#808080;stroke-linecap:round;"/>
   </g>
   <g id="patch_55">
    <path clip-path="url(#p446c213478)" d="M 345.686941 321.353618 
Q 253.74072 295.069451 162.869473 269.092581 
" style="fill:none;stroke:#808080;stroke-linecap:round;"/>
    <path clip-path="url(#p446c213478)" d="M 166.165707 272.114972 
L 162.869473 269.092581 
L 167.265126 268.269029 
L 166.165707 272.114972 
z
" style="fill:#808080;stroke:#808080;stroke-linecap:round;"/>
   </g>
   <g id="patch_56">
    <path clip-path="url(#p446c213478)" d="M 362.602731 322.610392 
Q 441.287153 312.318506 518.862984 302.171622 
" style="fill:none;stroke:#808080;stroke-linecap:round;"/>
    <path clip-path="url(#p446c213478)" d="M 514.637379 300.707293 
L 518.862984 302.171622 
L 515.156158 304.673509 
L 514.637379 300.707293 
z
" style="fill:#808080;stroke:#808080;stroke-linecap:round;"/>
   </g>
   <g id="patch_57">
    <path clip-path="url(#p446c213478)" d="M 522.826948 294.410425 
Q 435.166055 195.104222 348.245057 96.636205 
" style="fill:none;stroke:#808080;stroke-linecap:round;"/>
    <path clip-path="url(#p446c213478)" d="M 349.392792 100.958554 
L 348.245057 96.636205 
L 352.391578 98.311426 
L 349.392792 100.958554 
z
" style="fill:#808080;stroke:#808080;stroke-linecap:round;"/>
   </g>
   <g id="PathCollection_1">
    <defs>
     <path d="M 0 11.18034 
C 2.965061 11.18034 5.80908 10.002309 7.905694 7.905694 
C 10.002309 5.80908 11.18034 2.965061 11.18034 -0 
C 11.18034 -2.965061 10.002309 -5.80908 7.905694 -7.905694 
C 5.80908 -10.002309 2.965061 -11.18034 0 -11.18034 
C -2.965061 -11.18034 -5.80908 -10.002309 -7.905694 -7.905694 
C -10.002309 -5.80908 -11.18034 -2.965061 -11.18034 0 
C -11.18034 2.965061 -10.002309 5.80908 -7.905694 7.905694 
C -5.80908 10.002309 -2.965061 11.18034 0 11.18034 
z
" id="C0_0_3868665155"/>
    </defs>
    <g clip-path="url(#p446c213478)">
     <use style="fill:#5f5f5f;stroke:#5f5f5f;" x="448.47736" xlink:href="#C0_0_3868665155" y="362.315885"/>
    </g>
    <g clip-path="url(#p446c213478)">
     <use style="fill:#767676;stroke:#767676;" x="134.587158" xlink:href="#C0_0_3868665155" y="144.766308"/>
    </g>
    <g clip-path="url(#p446c213478)">
     <use style="fill:#7e7e7e;stroke:#7e7e7e;" x="312.556454" xlink:href="#C0_0_3868665155" y="242.98434"/>
    </g>
    <g clip-path="url(#p446c213478)">
     <use style="fill:#eaeaea;stroke:#eaeaea;" x="98.988029" xlink:href="#C0_0_3868665155" y="334.17719"/>
    </g>
    <g clip-path="url(#p446c213478)">
     <use style="fill:#dfdfdf;stroke:#dfdfdf;" x="333.726956" xlink:href="#C0_0_3868665155" y="389.079771"/>
    </g>
    <g clip-path="url(#p446c213478)">
     <use style="fill:#f1f1f1;stroke:#f1f1f1;" x="503.546727" xlink:href="#C0_0_3868665155" y="423.391032"/>
    </g>
    <g clip-path="url(#p446c213478)">
     <use style="fill:#f1f1f1;stroke:#f1f1f1;" x="555.332037" xlink:href="#C0_0_3868665155" y="245.897326"/>
    </g>
    <g clip-path="url(#p446c213478)">
     <use style="fill:#f1f1f1;stroke:#f1f1f1;" x="267.162589" xlink:href="#C0_0_3868665155" y="178.409771"/>
    </g>
    <g clip-path="url(#p446c213478)">
     <use style="fill:#ececec;stroke:#ececec;" x="341.772623" xlink:href="#C0_0_3868665155" y="89.30394"/>
    </g>
    <g clip-path="url(#p446c213478)">
     <use style="fill:#f0f0f0;stroke:#f0f0f0;" x="205.988741" xlink:href="#C0_0_3868665155" y="358.037851"/>
    </g>
    <g clip-path="url(#p446c213478)">
     <use style="fill:#f3f3f3;stroke:#f3f3f3;" x="273.09851" xlink:href="#C0_0_3868665155" y="100.100892"/>
    </g>
    <g clip-path="url(#p446c213478)">
     <use style="fill:#f3f3f3;stroke:#f3f3f3;" x="253.759594" xlink:href="#C0_0_3868665155" y="370.820826"/>
    </g>
    <g clip-path="url(#p446c213478)">
     <use style="fill:#f1f1f1;stroke:#f1f1f1;" x="607.011892" xlink:href="#C0_0_3868665155" y="346.927399"/>
    </g>
    <g clip-path="url(#p446c213478)">
     <use style="fill:#afafaf;stroke:#afafaf;" x="296.56206" xlink:href="#C0_0_3868665155" y="317.890252"/>
    </g>
    <g clip-path="url(#p446c213478)">
     <use style="fill:#f1f1f1;stroke:#f1f1f1;" x="618.694215" xlink:href="#C0_0_3868665155" y="298.139947"/>
    </g>
    <g clip-path="url(#p446c213478)">
     <use style="fill:#e9e9e9;stroke:#e9e9e9;" x="400.311294" xlink:href="#C0_0_3868665155" y="215.786387"/>
    </g>
    <g clip-path="url(#p446c213478)">
     <use style="fill:#f0f0f0;stroke:#f0f0f0;" x="176.190378" xlink:href="#C0_0_3868665155" y="381.036875"/>
    </g>
    <g clip-path="url(#p446c213478)">
     <use style="fill:#f3f3f3;stroke:#f3f3f3;" x="432.658374" xlink:href="#C0_0_3868665155" y="285.266919"/>
    </g>
    <g clip-path="url(#p446c213478)">
     <use style="fill:#6e6e6e;stroke:#6e6e6e;" x="430.914228" xlink:href="#C0_0_3868665155" y="154.640125"/>
    </g>
    <g clip-path="url(#p446c213478)">
     <use style="fill:#9f9f9f;stroke:#9f9f9f;" x="388.566123" xlink:href="#C0_0_3868665155" y="335.549856"/>
    </g>
    <g clip-path="url(#p446c213478)">
     <use style="fill:#9f9f9f;stroke:#9f9f9f;" x="340.30623" xlink:href="#C0_0_3868665155" y="258.718398"/>
    </g>
    <g clip-path="url(#p446c213478)">
     <use style="fill:#b0b0b0;stroke:#b0b0b0;" x="91.237201" xlink:href="#C0_0_3868665155" y="349.662329"/>
    </g>
    <g clip-path="url(#p446c213478)">
     <use style="fill:#b0b0b0;stroke:#b0b0b0;" x="435.743236" xlink:href="#C0_0_3868665155" y="136.964892"/>
    </g>
    <g clip-path="url(#p446c213478)">
     <use style="fill:#cecece;stroke:#cecece;" x="219.10749" xlink:href="#C0_0_3868665155" y="247.44405"/>
    </g>
    <g clip-path="url(#p446c213478)">
     <use style="fill:#c1c1c1;stroke:#c1c1c1;" x="259.131812" xlink:href="#C0_0_3868665155" y="200.214685"/>
    </g>
    <g clip-path="url(#p446c213478)">
     <use style="fill:#f3f3f3;stroke:#f3f3f3;" x="65.305785" xlink:href="#C0_0_3868665155" y="228.391945"/>
    </g>
    <g clip-path="url(#p446c213478)">
     <use style="fill:#f3f3f3;stroke:#f3f3f3;" x="500.587789" xlink:href="#C0_0_3868665155" y="102.311864"/>
    </g>
    <g clip-path="url(#p446c213478)">
     <use style="fill:#f3f3f3;stroke:#f3f3f3;" x="294.70782" xlink:href="#C0_0_3868665155" y="60.805398"/>
    </g>
    <g clip-path="url(#p446c213478)">
     <use style="fill:#f3f3f3;stroke:#f3f3f3;" x="71.306993" xlink:href="#C0_0_3868665155" y="267.328799"/>
    </g>
    <g clip-path="url(#p446c213478)">
     <use style="fill:#f3f3f3;stroke:#f3f3f3;" x="175.210759" xlink:href="#C0_0_3868665155" y="84.824201"/>
    </g>
    <g clip-path="url(#p446c213478)">
     <use style="fill:#eaeaea;stroke:#eaeaea;" x="423.650227" xlink:href="#C0_0_3868665155" y="259.138349"/>
    </g>
    <g clip-path="url(#p446c213478)">
     <use style="fill:#c3c3c3;stroke:#c3c3c3;" x="153.467616" xlink:href="#C0_0_3868665155" y="266.404923"/>
    </g>
    <g clip-path="url(#p446c213478)">
     <use style="fill:#d5d5d5;stroke:#d5d5d5;" x="565.446008" xlink:href="#C0_0_3868665155" y="235.287253"/>
    </g>
    <g clip-path="url(#p446c213478)">
     <use style="fill:#e8e8e8;stroke:#e8e8e8;" x="329.235929" xlink:href="#C0_0_3868665155" y="300.574789"/>
    </g>
    <g clip-path="url(#p446c213478)">
     <use style="fill:#f0f0f0;stroke:#f0f0f0;" x="617.746307" xlink:href="#C0_0_3868665155" y="223.244687"/>
    </g>
    <g clip-path="url(#p446c213478)">
     <use style="fill:#f0f0f0;stroke:#f0f0f0;" x="212.461246" xlink:href="#C0_0_3868665155" y="102.921951"/>
    </g>
    <g clip-path="url(#p446c213478)">
     <use style="fill:#dfdfdf;stroke:#dfdfdf;" x="460.231749" xlink:href="#C0_0_3868665155" y="74.298106"/>
    </g>
    <g clip-path="url(#p446c213478)">
     <use style="fill:#f1f1f1;stroke:#f1f1f1;" x="365.394307" xlink:href="#C0_0_3868665155" y="135.325229"/>
    </g>
    <g clip-path="url(#p446c213478)">
     <use style="fill:#f1f1f1;stroke:#f1f1f1;" x="231.082959" xlink:href="#C0_0_3868665155" y="200.158823"/>
    </g>
    <g clip-path="url(#p446c213478)">
     <use style="fill:#f1f1f1;stroke:#f1f1f1;" x="345.018465" xlink:href="#C0_0_3868665155" y="427.350852"/>
    </g>
    <g clip-path="url(#p446c213478)">
     <use style="fill:#eeeeee;stroke:#eeeeee;" x="354.013436" xlink:href="#C0_0_3868665155" y="323.733868"/>
    </g>
    <g clip-path="url(#p446c213478)">
     <use style="fill:#e2e2e2;stroke:#e2e2e2;" x="528.558553" xlink:href="#C0_0_3868665155" y="300.903446"/>
    </g>
   </g>
   <g id="text_1">
    <g clip-path="url(#p446c213478)">
     <!-- MYD88 -->
     <g transform="translate(430.896891 365.07526)scale(0.1 -0.1)">
      <defs>
       <path d="M 9.8125 72.90625 
L 24.515625 72.90625 
L 43.109375 23.296875 
L 61.8125 72.90625 
L 76.515625 72.90625 
L 76.515625 0 
L 66.890625 0 
L 66.890625 64.015625 
L 48.09375 14.015625 
L 38.1875 14.015625 
L 19.390625 64.015625 
L 19.390625 0 
L 9.8125 0 
z
" id="DejaVuSans-77"/>
       <path d="M -0.203125 72.90625 
L 10.40625 72.90625 
L 30.609375 42.921875 
L 50.6875 72.90625 
L 61.28125 72.90625 
L 35.5 34.71875 
L 35.5 0 
L 25.59375 0 
L 25.59375 34.71875 
z
" id="DejaVuSans-89"/>
       <path d="M 19.671875 64.796875 
L 19.671875 8.109375 
L 31.59375 8.109375 
Q 46.6875 8.109375 53.6875 14.9375 
Q 60.6875 21.78125 60.6875 36.53125 
Q 60.6875 51.171875 53.6875 57.984375 
Q 46.6875 64.796875 31.59375 64.796875 
z
M 9.8125 72.90625 
L 30.078125 72.90625 
Q 51.265625 72.90625 61.171875 64.09375 
Q 71.09375 55.28125 71.09375 36.53125 
Q 71.09375 17.671875 61.125 8.828125 
Q 51.171875 0 30.078125 0 
L 9.8125 0 
z
" id="DejaVuSans-68"/>
       <path d="M 31.78125 34.625 
Q 24.75 34.625 20.71875 30.859375 
Q 16.703125 27.09375 16.703125 20.515625 
Q 16.703125 13.921875 20.71875 10.15625 
Q 24.75 6.390625 31.78125 6.390625 
Q 38.8125 6.390625 42.859375 10.171875 
Q 46.921875 13.96875 46.921875 20.515625 
Q 46.921875 27.09375 42.890625 30.859375 
Q 38.875 34.625 31.78125 34.625 
z
M 21.921875 38.8125 
Q 15.578125 40.375 12.03125 44.71875 
Q 8.5 49.078125 8.5 55.328125 
Q 8.5 64.0625 14.71875 69.140625 
Q 20.953125 74.21875 31.78125 74.21875 
Q 42.671875 74.21875 48.875 69.140625 
Q 55.078125 64.0625 55.078125 55.328125 
Q 55.078125 49.078125 51.53125 44.71875 
Q 48 40.375 41.703125 38.8125 
Q 48.828125 37.15625 52.796875 32.3125 
Q 56.78125 27.484375 56.78125 20.515625 
Q 56.78125 9.90625 50.3125 4.234375 
Q 43.84375 -1.421875 31.78125 -1.421875 
Q 19.734375 -1.421875 13.25 4.234375 
Q 6.78125 9.90625 6.78125 20.515625 
Q 6.78125 27.484375 10.78125 32.3125 
Q 14.796875 37.15625 21.921875 38.8125 
z
M 18.3125 54.390625 
Q 18.3125 48.734375 21.84375 45.5625 
Q 25.390625 42.390625 31.78125 42.390625 
Q 38.140625 42.390625 41.71875 45.5625 
Q 45.3125 48.734375 45.3125 54.390625 
Q 45.3125 60.0625 41.71875 63.234375 
Q 38.140625 66.40625 31.78125 66.40625 
Q 25.390625 66.40625 21.84375 63.234375 
Q 18.3125 60.0625 18.3125 54.390625 
z
" id="DejaVuSans-56"/>
      </defs>
      <use xlink:href="#DejaVuSans-77"/>
      <use x="86.279297" xlink:href="#DejaVuSans-89"/>
      <use x="147.363281" xlink:href="#DejaVuSans-68"/>
      <use x="224.365234" xlink:href="#DejaVuSans-56"/>
      <use x="287.988281" xlink:href="#DejaVuSans-56"/>
     </g>
    </g>
   </g>
   <g id="text_2">
    <g clip-path="url(#p446c213478)">
     <!-- TRAF6 -->
     <g transform="translate(118.781689 147.525683)scale(0.1 -0.1)">
      <defs>
       <path d="M -0.296875 72.90625 
L 61.375 72.90625 
L 61.375 64.59375 
L 35.5 64.59375 
L 35.5 0 
L 25.59375 0 
L 25.59375 64.59375 
L -0.296875 64.59375 
z
" id="DejaVuSans-84"/>
       <path d="M 44.390625 34.1875 
Q 47.5625 33.109375 50.5625 29.59375 
Q 53.5625 26.078125 56.59375 19.921875 
L 66.609375 0 
L 56 0 
L 46.6875 18.703125 
Q 43.0625 26.03125 39.671875 28.421875 
Q 36.28125 30.8125 30.421875 30.8125 
L 19.671875 30.8125 
L 19.671875 0 
L 9.8125 0 
L 9.8125 72.90625 
L 32.078125 72.90625 
Q 44.578125 72.90625 50.734375 67.671875 
Q 56.890625 62.453125 56.890625 51.90625 
Q 56.890625 45.015625 53.6875 40.46875 
Q 50.484375 35.9375 44.390625 34.1875 
z
M 19.671875 64.796875 
L 19.671875 38.921875 
L 32.078125 38.921875 
Q 39.203125 38.921875 42.84375 42.21875 
Q 46.484375 45.515625 46.484375 51.90625 
Q 46.484375 58.296875 42.84375 61.546875 
Q 39.203125 64.796875 32.078125 64.796875 
z
" id="DejaVuSans-82"/>
       <path d="M 34.1875 63.1875 
L 20.796875 26.90625 
L 47.609375 26.90625 
z
M 28.609375 72.90625 
L 39.796875 72.90625 
L 67.578125 0 
L 57.328125 0 
L 50.6875 18.703125 
L 17.828125 18.703125 
L 11.1875 0 
L 0.78125 0 
z
" id="DejaVuSans-65"/>
       <path d="M 9.8125 72.90625 
L 51.703125 72.90625 
L 51.703125 64.59375 
L 19.671875 64.59375 
L 19.671875 43.109375 
L 48.578125 43.109375 
L 48.578125 34.8125 
L 19.671875 34.8125 
L 19.671875 0 
L 9.8125 0 
z
" id="DejaVuSans-70"/>
       <path d="M 33.015625 40.375 
Q 26.375 40.375 22.484375 35.828125 
Q 18.609375 31.296875 18.609375 23.390625 
Q 18.609375 15.53125 22.484375 10.953125 
Q 26.375 6.390625 33.015625 6.390625 
Q 39.65625 6.390625 43.53125 10.953125 
Q 47.40625 15.53125 47.40625 23.390625 
Q 47.40625 31.296875 43.53125 35.828125 
Q 39.65625 40.375 33.015625 40.375 
z
M 52.59375 71.296875 
L 52.59375 62.3125 
Q 48.875 64.0625 45.09375 64.984375 
Q 41.3125 65.921875 37.59375 65.921875 
Q 27.828125 65.921875 22.671875 59.328125 
Q 17.53125 52.734375 16.796875 39.40625 
Q 19.671875 43.65625 24.015625 45.921875 
Q 28.375 48.1875 33.59375 48.1875 
Q 44.578125 48.1875 50.953125 41.515625 
Q 57.328125 34.859375 57.328125 23.390625 
Q 57.328125 12.15625 50.6875 5.359375 
Q 44.046875 -1.421875 33.015625 -1.421875 
Q 20.359375 -1.421875 13.671875 8.265625 
Q 6.984375 17.96875 6.984375 36.375 
Q 6.984375 53.65625 15.1875 63.9375 
Q 23.390625 74.21875 37.203125 74.21875 
Q 40.921875 74.21875 44.703125 73.484375 
Q 48.484375 72.75 52.59375 71.296875 
z
" id="DejaVuSans-54"/>
      </defs>
      <use xlink:href="#DejaVuSans-84"/>
      <use x="61.083984" xlink:href="#DejaVuSans-82"/>
      <use x="126.566406" xlink:href="#DejaVuSans-65"/>
      <use x="194.974609" xlink:href="#DejaVuSans-70"/>
      <use x="252.494141" xlink:href="#DejaVuSans-54"/>
     </g>
    </g>
   </g>
   <g id="text_3">
    <g clip-path="url(#p446c213478)">
     <!-- MAP3K7 -->
     <g transform="translate(292.165829 245.743715)scale(0.1 -0.1)">
      <defs>
       <path d="M 19.671875 64.796875 
L 19.671875 37.40625 
L 32.078125 37.40625 
Q 38.96875 37.40625 42.71875 40.96875 
Q 46.484375 44.53125 46.484375 51.125 
Q 46.484375 57.671875 42.71875 61.234375 
Q 38.96875 64.796875 32.078125 64.796875 
z
M 9.8125 72.90625 
L 32.078125 72.90625 
Q 44.34375 72.90625 50.609375 67.359375 
Q 56.890625 61.8125 56.890625 51.125 
Q 56.890625 40.328125 50.609375 34.8125 
Q 44.34375 29.296875 32.078125 29.296875 
L 19.671875 29.296875 
L 19.671875 0 
L 9.8125 0 
z
" id="DejaVuSans-80"/>
       <path d="M 40.578125 39.3125 
Q 47.65625 37.796875 51.625 33 
Q 55.609375 28.21875 55.609375 21.1875 
Q 55.609375 10.40625 48.1875 4.484375 
Q 40.765625 -1.421875 27.09375 -1.421875 
Q 22.515625 -1.421875 17.65625 -0.515625 
Q 12.796875 0.390625 7.625 2.203125 
L 7.625 11.71875 
Q 11.71875 9.328125 16.59375 8.109375 
Q 21.484375 6.890625 26.8125 6.890625 
Q 36.078125 6.890625 40.9375 10.546875 
Q 45.796875 14.203125 45.796875 21.1875 
Q 45.796875 27.640625 41.28125 31.265625 
Q 36.765625 34.90625 28.71875 34.90625 
L 20.21875 34.90625 
L 20.21875 43.015625 
L 29.109375 43.015625 
Q 36.375 43.015625 40.234375 45.921875 
Q 44.09375 48.828125 44.09375 54.296875 
Q 44.09375 59.90625 40.109375 62.90625 
Q 36.140625 65.921875 28.71875 65.921875 
Q 24.65625 65.921875 20.015625 65.03125 
Q 15.375 64.15625 9.8125 62.3125 
L 9.8125 71.09375 
Q 15.4375 72.65625 20.34375 73.4375 
Q 25.25 74.21875 29.59375 74.21875 
Q 40.828125 74.21875 47.359375 69.109375 
Q 53.90625 64.015625 53.90625 55.328125 
Q 53.90625 49.265625 50.4375 45.09375 
Q 46.96875 40.921875 40.578125 39.3125 
z
" id="DejaVuSans-51"/>
       <path d="M 9.8125 72.90625 
L 19.671875 72.90625 
L 19.671875 42.09375 
L 52.390625 72.90625 
L 65.09375 72.90625 
L 28.90625 38.921875 
L 67.671875 0 
L 54.6875 0 
L 19.671875 35.109375 
L 19.671875 0 
L 9.8125 0 
z
" id="DejaVuSans-75"/>
       <path d="M 8.203125 72.90625 
L 55.078125 72.90625 
L 55.078125 68.703125 
L 28.609375 0 
L 18.3125 0 
L 43.21875 64.59375 
L 8.203125 64.59375 
z
" id="DejaVuSans-55"/>
      </defs>
      <use xlink:href="#DejaVuSans-77"/>
      <use x="86.279297" xlink:href="#DejaVuSans-65"/>
      <use x="154.6875" xlink:href="#DejaVuSans-80"/>
      <use x="214.990234" xlink:href="#DejaVuSans-51"/>
      <use x="278.613281" xlink:href="#DejaVuSans-75"/>
      <use x="344.189453" xlink:href="#DejaVuSans-55"/>
     </g>
    </g>
   </g>
   <g id="text_4">
    <g clip-path="url(#p446c213478)">
     <!-- TNF -->
     <g transform="translate(89.317716 336.936565)scale(0.1 -0.1)">
      <defs>
       <path d="M 9.8125 72.90625 
L 23.09375 72.90625 
L 55.421875 11.921875 
L 55.421875 72.90625 
L 64.984375 72.90625 
L 64.984375 0 
L 51.703125 0 
L 19.390625 60.984375 
L 19.390625 0 
L 9.8125 0 
z
" id="DejaVuSans-78"/>
      </defs>
      <use xlink:href="#DejaVuSans-84"/>
      <use x="61.083984" xlink:href="#DejaVuSans-78"/>
      <use x="135.888672" xlink:href="#DejaVuSans-70"/>
     </g>
    </g>
   </g>
   <g id="text_5">
    <g clip-path="url(#p446c213478)">
     <!-- STAT1 -->
     <g transform="translate(318.618362 391.839146)scale(0.1 -0.1)">
      <defs>
       <path d="M 53.515625 70.515625 
L 53.515625 60.890625 
Q 47.90625 63.578125 42.921875 64.890625 
Q 37.9375 66.21875 33.296875 66.21875 
Q 25.25 66.21875 20.875 63.09375 
Q 16.5 59.96875 16.5 54.203125 
Q 16.5 49.359375 19.40625 46.890625 
Q 22.3125 44.4375 30.421875 42.921875 
L 36.375 41.703125 
Q 47.40625 39.59375 52.65625 34.296875 
Q 57.90625 29 57.90625 20.125 
Q 57.90625 9.515625 50.796875 4.046875 
Q 43.703125 -1.421875 29.984375 -1.421875 
Q 24.8125 -1.421875 18.96875 -0.25 
Q 13.140625 0.921875 6.890625 3.21875 
L 6.890625 13.375 
Q 12.890625 10.015625 18.65625 8.296875 
Q 24.421875 6.59375 29.984375 6.59375 
Q 38.421875 6.59375 43.015625 9.90625 
Q 47.609375 13.234375 47.609375 19.390625 
Q 47.609375 24.75 44.3125 27.78125 
Q 41.015625 30.8125 33.5 32.328125 
L 27.484375 33.5 
Q 16.453125 35.6875 11.515625 40.375 
Q 6.59375 45.0625 6.59375 53.421875 
Q 6.59375 63.09375 13.40625 68.65625 
Q 20.21875 74.21875 32.171875 74.21875 
Q 37.3125 74.21875 42.625 73.28125 
Q 47.953125 72.359375 53.515625 70.515625 
z
" id="DejaVuSans-83"/>
       <path d="M 12.40625 8.296875 
L 28.515625 8.296875 
L 28.515625 63.921875 
L 10.984375 60.40625 
L 10.984375 69.390625 
L 28.421875 72.90625 
L 38.28125 72.90625 
L 38.28125 8.296875 
L 54.390625 8.296875 
L 54.390625 0 
L 12.40625 0 
z
" id="DejaVuSans-49"/>
      </defs>
      <use xlink:href="#DejaVuSans-83"/>
      <use x="63.476562" xlink:href="#DejaVuSans-84"/>
      <use x="116.810547" xlink:href="#DejaVuSans-65"/>
      <use x="177.46875" xlink:href="#DejaVuSans-84"/>
      <use x="238.552734" xlink:href="#DejaVuSans-49"/>
     </g>
    </g>
   </g>
   <g id="text_6">
    <g clip-path="url(#p446c213478)">
     <!-- CIITA -->
     <g transform="translate(491.018602 426.150407)scale(0.1 -0.1)">
      <defs>
       <path d="M 64.40625 67.28125 
L 64.40625 56.890625 
Q 59.421875 61.53125 53.78125 63.8125 
Q 48.140625 66.109375 41.796875 66.109375 
Q 29.296875 66.109375 22.65625 58.46875 
Q 16.015625 50.828125 16.015625 36.375 
Q 16.015625 21.96875 22.65625 14.328125 
Q 29.296875 6.6875 41.796875 6.6875 
Q 48.140625 6.6875 53.78125 8.984375 
Q 59.421875 11.28125 64.40625 15.921875 
L 64.40625 5.609375 
Q 59.234375 2.09375 53.4375 0.328125 
Q 47.65625 -1.421875 41.21875 -1.421875 
Q 24.65625 -1.421875 15.125 8.703125 
Q 5.609375 18.84375 5.609375 36.375 
Q 5.609375 53.953125 15.125 64.078125 
Q 24.65625 74.21875 41.21875 74.21875 
Q 47.75 74.21875 53.53125 72.484375 
Q 59.328125 70.75 64.40625 67.28125 
z
" id="DejaVuSans-67"/>
       <path d="M 9.8125 72.90625 
L 19.671875 72.90625 
L 19.671875 0 
L 9.8125 0 
z
" id="DejaVuSans-73"/>
      </defs>
      <use xlink:href="#DejaVuSans-67"/>
      <use x="69.824219" xlink:href="#DejaVuSans-73"/>
      <use x="99.316406" xlink:href="#DejaVuSans-73"/>
      <use x="128.808594" xlink:href="#DejaVuSans-84"/>
      <use x="182.142578" xlink:href="#DejaVuSans-65"/>
     </g>
    </g>
   </g>
   <g id="text_7">
    <g clip-path="url(#p446c213478)">
     <!-- IRGM -->
     <g transform="translate(542.194537 248.656701)scale(0.1 -0.1)">
      <defs>
       <path d="M 59.515625 10.40625 
L 59.515625 29.984375 
L 43.40625 29.984375 
L 43.40625 38.09375 
L 69.28125 38.09375 
L 69.28125 6.78125 
Q 63.578125 2.734375 56.6875 0.65625 
Q 49.8125 -1.421875 42 -1.421875 
Q 24.90625 -1.421875 15.25 8.5625 
Q 5.609375 18.5625 5.609375 36.375 
Q 5.609375 54.25 15.25 64.234375 
Q 24.90625 74.21875 42 74.21875 
Q 49.125 74.21875 55.546875 72.453125 
Q 61.96875 70.703125 67.390625 67.28125 
L 67.390625 56.78125 
Q 61.921875 61.421875 55.765625 63.765625 
Q 49.609375 66.109375 42.828125 66.109375 
Q 29.4375 66.109375 22.71875 58.640625 
Q 16.015625 51.171875 16.015625 36.375 
Q 16.015625 21.625 22.71875 14.15625 
Q 29.4375 6.6875 42.828125 6.6875 
Q 48.046875 6.6875 52.140625 7.59375 
Q 56.25 8.5 59.515625 10.40625 
z
" id="DejaVuSans-71"/>
      </defs>
      <use xlink:href="#DejaVuSans-73"/>
      <use x="29.492188" xlink:href="#DejaVuSans-82"/>
      <use x="98.974609" xlink:href="#DejaVuSans-71"/>
      <use x="176.464844" xlink:href="#DejaVuSans-77"/>
     </g>
    </g>
   </g>
   <g id="text_8">
    <g clip-path="url(#p446c213478)">
     <!-- SOCS1 -->
     <g transform="translate(250.205558 181.169146)scale(0.1 -0.1)">
      <defs>
       <path d="M 39.40625 66.21875 
Q 28.65625 66.21875 22.328125 58.203125 
Q 16.015625 50.203125 16.015625 36.375 
Q 16.015625 22.609375 22.328125 14.59375 
Q 28.65625 6.59375 39.40625 6.59375 
Q 50.140625 6.59375 56.421875 14.59375 
Q 62.703125 22.609375 62.703125 36.375 
Q 62.703125 50.203125 56.421875 58.203125 
Q 50.140625 66.21875 39.40625 66.21875 
z
M 39.40625 74.21875 
Q 54.734375 74.21875 63.90625 63.9375 
Q 73.09375 53.65625 73.09375 36.375 
Q 73.09375 19.140625 63.90625 8.859375 
Q 54.734375 -1.421875 39.40625 -1.421875 
Q 24.03125 -1.421875 14.8125 8.828125 
Q 5.609375 19.09375 5.609375 36.375 
Q 5.609375 53.65625 14.8125 63.9375 
Q 24.03125 74.21875 39.40625 74.21875 
z
" id="DejaVuSans-79"/>
      </defs>
      <use xlink:href="#DejaVuSans-83"/>
      <use x="63.476562" xlink:href="#DejaVuSans-79"/>
      <use x="142.1875" xlink:href="#DejaVuSans-67"/>
      <use x="212.011719" xlink:href="#DejaVuSans-83"/>
      <use x="275.488281" xlink:href="#DejaVuSans-49"/>
     </g>
    </g>
   </g>
   <g id="text_9">
    <g clip-path="url(#p446c213478)">
     <!-- STAT3 -->
     <g transform="translate(326.664029 92.063315)scale(0.1 -0.1)">
      <use xlink:href="#DejaVuSans-83"/>
      <use x="63.476562" xlink:href="#DejaVuSans-84"/>
      <use x="116.810547" xlink:href="#DejaVuSans-65"/>
      <use x="177.46875" xlink:href="#DejaVuSans-84"/>
      <use x="238.552734" xlink:href="#DejaVuSans-51"/>
     </g>
    </g>
   </g>
   <g id="text_10">
    <g clip-path="url(#p446c213478)">
     <!-- CASP9 -->
     <g transform="translate(189.70671 360.797226)scale(0.1 -0.1)">
      <defs>
       <path d="M 10.984375 1.515625 
L 10.984375 10.5 
Q 14.703125 8.734375 18.5 7.8125 
Q 22.3125 6.890625 25.984375 6.890625 
Q 35.75 6.890625 40.890625 13.453125 
Q 46.046875 20.015625 46.78125 33.40625 
Q 43.953125 29.203125 39.59375 26.953125 
Q 35.25 24.703125 29.984375 24.703125 
Q 19.046875 24.703125 12.671875 31.3125 
Q 6.296875 37.9375 6.296875 49.421875 
Q 6.296875 60.640625 12.9375 67.421875 
Q 19.578125 74.21875 30.609375 74.21875 
Q 43.265625 74.21875 49.921875 64.515625 
Q 56.59375 54.828125 56.59375 36.375 
Q 56.59375 19.140625 48.40625 8.859375 
Q 40.234375 -1.421875 26.421875 -1.421875 
Q 22.703125 -1.421875 18.890625 -0.6875 
Q 15.09375 0.046875 10.984375 1.515625 
z
M 30.609375 32.421875 
Q 37.25 32.421875 41.125 36.953125 
Q 45.015625 41.5 45.015625 49.421875 
Q 45.015625 57.28125 41.125 61.84375 
Q 37.25 66.40625 30.609375 66.40625 
Q 23.96875 66.40625 20.09375 61.84375 
Q 16.21875 57.28125 16.21875 49.421875 
Q 16.21875 41.5 20.09375 36.953125 
Q 23.96875 32.421875 30.609375 32.421875 
z
" id="DejaVuSans-57"/>
      </defs>
      <use xlink:href="#DejaVuSans-67"/>
      <use x="69.824219" xlink:href="#DejaVuSans-65"/>
      <use x="138.232422" xlink:href="#DejaVuSans-83"/>
      <use x="201.708984" xlink:href="#DejaVuSans-80"/>
      <use x="262.011719" xlink:href="#DejaVuSans-57"/>
     </g>
    </g>
   </g>
   <g id="text_11">
    <g clip-path="url(#p446c213478)">
     <!-- CASP3 -->
     <g transform="translate(256.816478 102.860267)scale(0.1 -0.1)">
      <use xlink:href="#DejaVuSans-67"/>
      <use x="69.824219" xlink:href="#DejaVuSans-65"/>
      <use x="138.232422" xlink:href="#DejaVuSans-83"/>
      <use x="201.708984" xlink:href="#DejaVuSans-80"/>
      <use x="262.011719" xlink:href="#DejaVuSans-51"/>
     </g>
    </g>
   </g>
   <g id="text_12">
    <g clip-path="url(#p446c213478)">
     <!-- CASP8 -->
     <g transform="translate(237.477562 373.580201)scale(0.1 -0.1)">
      <use xlink:href="#DejaVuSans-67"/>
      <use x="69.824219" xlink:href="#DejaVuSans-65"/>
      <use x="138.232422" xlink:href="#DejaVuSans-83"/>
      <use x="201.708984" xlink:href="#DejaVuSans-80"/>
      <use x="262.011719" xlink:href="#DejaVuSans-56"/>
     </g>
    </g>
   </g>
   <g id="text_13">
    <g clip-path="url(#p446c213478)">
     <!-- PDPK1 -->
     <g transform="translate(590.672049 349.686774)scale(0.1 -0.1)">
      <use xlink:href="#DejaVuSans-80"/>
      <use x="60.302734" xlink:href="#DejaVuSans-68"/>
      <use x="137.304688" xlink:href="#DejaVuSans-80"/>
      <use x="197.607422" xlink:href="#DejaVuSans-75"/>
      <use x="263.183594" xlink:href="#DejaVuSans-49"/>
     </g>
    </g>
   </g>
   <g id="text_14">
    <g clip-path="url(#p446c213478)">
     <!-- IFNG -->
     <g transform="translate(284.596435 320.649627)scale(0.1 -0.1)">
      <use xlink:href="#DejaVuSans-73"/>
      <use x="29.492188" xlink:href="#DejaVuSans-70"/>
      <use x="87.011719" xlink:href="#DejaVuSans-78"/>
      <use x="161.816406" xlink:href="#DejaVuSans-71"/>
     </g>
    </g>
   </g>
   <g id="text_15">
    <g clip-path="url(#p446c213478)">
     <!-- CCR5 -->
     <g transform="translate(605.055934 300.899322)scale(0.1 -0.1)">
      <defs>
       <path d="M 10.796875 72.90625 
L 49.515625 72.90625 
L 49.515625 64.59375 
L 19.828125 64.59375 
L 19.828125 46.734375 
Q 21.96875 47.46875 24.109375 47.828125 
Q 26.265625 48.1875 28.421875 48.1875 
Q 40.625 48.1875 47.75 41.5 
Q 54.890625 34.8125 54.890625 23.390625 
Q 54.890625 11.625 47.5625 5.09375 
Q 40.234375 -1.421875 26.90625 -1.421875 
Q 22.3125 -1.421875 17.546875 -0.640625 
Q 12.796875 0.140625 7.71875 1.703125 
L 7.71875 11.625 
Q 12.109375 9.234375 16.796875 8.0625 
Q 21.484375 6.890625 26.703125 6.890625 
Q 35.15625 6.890625 40.078125 11.328125 
Q 45.015625 15.765625 45.015625 23.390625 
Q 45.015625 31 40.078125 35.4375 
Q 35.15625 39.890625 26.703125 39.890625 
Q 22.75 39.890625 18.8125 39.015625 
Q 14.890625 38.140625 10.796875 36.28125 
z
" id="DejaVuSans-53"/>
      </defs>
      <use xlink:href="#DejaVuSans-67"/>
      <use x="69.824219" xlink:href="#DejaVuSans-67"/>
      <use x="139.648438" xlink:href="#DejaVuSans-82"/>
      <use x="209.130859" xlink:href="#DejaVuSans-53"/>
     </g>
    </g>
   </g>
   <g id="text_16">
    <g clip-path="url(#p446c213478)">
     <!-- PPIF -->
     <g transform="translate(389.930825 218.545762)scale(0.1 -0.1)">
      <use xlink:href="#DejaVuSans-80"/>
      <use x="60.302734" xlink:href="#DejaVuSans-80"/>
      <use x="120.605469" xlink:href="#DejaVuSans-73"/>
      <use x="150.097656" xlink:href="#DejaVuSans-70"/>
     </g>
    </g>
   </g>
   <g id="text_17">
    <g clip-path="url(#p446c213478)">
     <!-- TNFRSF1A -->
     <g transform="translate(150.394284 383.79625)scale(0.1 -0.1)">
      <use xlink:href="#DejaVuSans-84"/>
      <use x="61.083984" xlink:href="#DejaVuSans-78"/>
      <use x="135.888672" xlink:href="#DejaVuSans-70"/>
      <use x="193.408203" xlink:href="#DejaVuSans-82"/>
      <use x="262.890625" xlink:href="#DejaVuSans-83"/>
      <use x="326.367188" xlink:href="#DejaVuSans-70"/>
      <use x="383.886719" xlink:href="#DejaVuSans-49"/>
      <use x="447.509766" xlink:href="#DejaVuSans-65"/>
     </g>
    </g>
   </g>
   <g id="text_18">
    <g clip-path="url(#p446c213478)">
     <!-- IRAK1 -->
     <g transform="translate(418.028687 288.026294)scale(0.1 -0.1)">
      <use xlink:href="#DejaVuSans-73"/>
      <use x="29.492188" xlink:href="#DejaVuSans-82"/>
      <use x="94.974609" xlink:href="#DejaVuSans-65"/>
      <use x="163.382812" xlink:href="#DejaVuSans-75"/>
      <use x="228.958984" xlink:href="#DejaVuSans-49"/>
     </g>
    </g>
   </g>
   <g id="text_19">
    <g clip-path="url(#p446c213478)">
     <!-- IRAK4 -->
     <g transform="translate(416.284541 157.3995)scale(0.1 -0.1)">
      <defs>
       <path d="M 37.796875 64.3125 
L 12.890625 25.390625 
L 37.796875 25.390625 
z
M 35.203125 72.90625 
L 47.609375 72.90625 
L 47.609375 25.390625 
L 58.015625 25.390625 
L 58.015625 17.1875 
L 47.609375 17.1875 
L 47.609375 0 
L 37.796875 0 
L 37.796875 17.1875 
L 4.890625 17.1875 
L 4.890625 26.703125 
z
" id="DejaVuSans-52"/>
      </defs>
      <use xlink:href="#DejaVuSans-73"/>
      <use x="29.492188" xlink:href="#DejaVuSans-82"/>
      <use x="94.974609" xlink:href="#DejaVuSans-65"/>
      <use x="163.382812" xlink:href="#DejaVuSans-75"/>
      <use x="228.958984" xlink:href="#DejaVuSans-52"/>
     </g>
    </g>
   </g>
   <g id="text_20">
    <g clip-path="url(#p446c213478)">
     <!-- IKBKB -->
     <g transform="translate(373.672373 338.309231)scale(0.1 -0.1)">
      <defs>
       <path d="M 19.671875 34.8125 
L 19.671875 8.109375 
L 35.5 8.109375 
Q 43.453125 8.109375 47.28125 11.40625 
Q 51.125 14.703125 51.125 21.484375 
Q 51.125 28.328125 47.28125 31.5625 
Q 43.453125 34.8125 35.5 34.8125 
z
M 19.671875 64.796875 
L 19.671875 42.828125 
L 34.28125 42.828125 
Q 41.5 42.828125 45.03125 45.53125 
Q 48.578125 48.25 48.578125 53.8125 
Q 48.578125 59.328125 45.03125 62.0625 
Q 41.5 64.796875 34.28125 64.796875 
z
M 9.8125 72.90625 
L 35.015625 72.90625 
Q 46.296875 72.90625 52.390625 68.21875 
Q 58.5 63.53125 58.5 54.890625 
Q 58.5 48.1875 55.375 44.234375 
Q 52.25 40.28125 46.1875 39.3125 
Q 53.46875 37.75 57.5 32.78125 
Q 61.53125 27.828125 61.53125 20.40625 
Q 61.53125 10.640625 54.890625 5.3125 
Q 48.25 0 35.984375 0 
L 9.8125 0 
z
" id="DejaVuSans-66"/>
      </defs>
      <use xlink:href="#DejaVuSans-73"/>
      <use x="29.492188" xlink:href="#DejaVuSans-75"/>
      <use x="95.068359" xlink:href="#DejaVuSans-66"/>
      <use x="163.671875" xlink:href="#DejaVuSans-75"/>
      <use x="229.248047" xlink:href="#DejaVuSans-66"/>
     </g>
    </g>
   </g>
   <g id="text_21">
    <g clip-path="url(#p446c213478)">
     <!-- IKBKG -->
     <g transform="translate(324.96873 261.477773)scale(0.1 -0.1)">
      <use xlink:href="#DejaVuSans-73"/>
      <use x="29.492188" xlink:href="#DejaVuSans-75"/>
      <use x="95.068359" xlink:href="#DejaVuSans-66"/>
      <use x="163.671875" xlink:href="#DejaVuSans-75"/>
      <use x="229.248047" xlink:href="#DejaVuSans-71"/>
     </g>
    </g>
   </g>
   <g id="text_22">
    <g clip-path="url(#p446c213478)">
     <!-- NFKBIA -->
     <g transform="translate(73.016107 352.421704)scale(0.1 -0.1)">
      <use xlink:href="#DejaVuSans-78"/>
      <use x="74.804688" xlink:href="#DejaVuSans-70"/>
      <use x="132.324219" xlink:href="#DejaVuSans-75"/>
      <use x="197.900391" xlink:href="#DejaVuSans-66"/>
      <use x="266.503906" xlink:href="#DejaVuSans-73"/>
      <use x="295.996094" xlink:href="#DejaVuSans-65"/>
     </g>
    </g>
   </g>
   <g id="text_23">
    <g clip-path="url(#p446c213478)">
     <!-- NFKBIB -->
     <g transform="translate(417.511986 139.724267)scale(0.1 -0.1)">
      <use xlink:href="#DejaVuSans-78"/>
      <use x="74.804688" xlink:href="#DejaVuSans-70"/>
      <use x="132.324219" xlink:href="#DejaVuSans-75"/>
      <use x="197.900391" xlink:href="#DejaVuSans-66"/>
      <use x="266.503906" xlink:href="#DejaVuSans-73"/>
      <use x="295.996094" xlink:href="#DejaVuSans-66"/>
     </g>
    </g>
   </g>
   <g id="text_24">
    <g clip-path="url(#p446c213478)">
     <!-- NFKB1 -->
     <g transform="translate(202.600459 250.203425)scale(0.1 -0.1)">
      <use xlink:href="#DejaVuSans-78"/>
      <use x="74.804688" xlink:href="#DejaVuSans-70"/>
      <use x="132.324219" xlink:href="#DejaVuSans-75"/>
      <use x="197.900391" xlink:href="#DejaVuSans-66"/>
      <use x="266.503906" xlink:href="#DejaVuSans-49"/>
     </g>
    </g>
   </g>
   <g id="text_25">
    <g clip-path="url(#p446c213478)">
     <!-- RELA -->
     <g transform="translate(246.179468 202.97406)scale(0.1 -0.1)">
      <defs>
       <path d="M 9.8125 72.90625 
L 55.90625 72.90625 
L 55.90625 64.59375 
L 19.671875 64.59375 
L 19.671875 43.015625 
L 54.390625 43.015625 
L 54.390625 34.71875 
L 19.671875 34.71875 
L 19.671875 8.296875 
L 56.78125 8.296875 
L 56.78125 0 
L 9.8125 0 
z
" id="DejaVuSans-69"/>
       <path d="M 9.8125 72.90625 
L 19.671875 72.90625 
L 19.671875 8.296875 
L 55.171875 8.296875 
L 55.171875 0 
L 9.8125 0 
z
" id="DejaVuSans-76"/>
      </defs>
      <use xlink:href="#DejaVuSans-82"/>
      <use x="69.482422" xlink:href="#DejaVuSans-69"/>
      <use x="132.666016" xlink:href="#DejaVuSans-76"/>
      <use x="190.628906" xlink:href="#DejaVuSans-65"/>
     </g>
    </g>
   </g>
   <g id="text_26">
    <g clip-path="url(#p446c213478)">
     <!-- MAP2K3 -->
     <g transform="translate(44.91516 231.15132)scale(0.1 -0.1)">
      <defs>
       <path d="M 19.1875 8.296875 
L 53.609375 8.296875 
L 53.609375 0 
L 7.328125 0 
L 7.328125 8.296875 
Q 12.9375 14.109375 22.625 23.890625 
Q 32.328125 33.6875 34.8125 36.53125 
Q 39.546875 41.84375 41.421875 45.53125 
Q 43.3125 49.21875 43.3125 52.78125 
Q 43.3125 58.59375 39.234375 62.25 
Q 35.15625 65.921875 28.609375 65.921875 
Q 23.96875 65.921875 18.8125 64.3125 
Q 13.671875 62.703125 7.8125 59.421875 
L 7.8125 69.390625 
Q 13.765625 71.78125 18.9375 73 
Q 24.125 74.21875 28.421875 74.21875 
Q 39.75 74.21875 46.484375 68.546875 
Q 53.21875 62.890625 53.21875 53.421875 
Q 53.21875 48.921875 51.53125 44.890625 
Q 49.859375 40.875 45.40625 35.40625 
Q 44.1875 33.984375 37.640625 27.21875 
Q 31.109375 20.453125 19.1875 8.296875 
z
" id="DejaVuSans-50"/>
      </defs>
      <use xlink:href="#DejaVuSans-77"/>
      <use x="86.279297" xlink:href="#DejaVuSans-65"/>
      <use x="154.6875" xlink:href="#DejaVuSans-80"/>
      <use x="214.990234" xlink:href="#DejaVuSans-50"/>
      <use x="278.613281" xlink:href="#DejaVuSans-75"/>
      <use x="344.189453" xlink:href="#DejaVuSans-51"/>
     </g>
    </g>
   </g>
   <g id="text_27">
    <g clip-path="url(#p446c213478)">
     <!-- MAP2K6 -->
     <g transform="translate(480.197164 105.071239)scale(0.1 -0.1)">
      <use xlink:href="#DejaVuSans-77"/>
      <use x="86.279297" xlink:href="#DejaVuSans-65"/>
      <use x="154.6875" xlink:href="#DejaVuSans-80"/>
      <use x="214.990234" xlink:href="#DejaVuSans-50"/>
      <use x="278.613281" xlink:href="#DejaVuSans-75"/>
      <use x="344.189453" xlink:href="#DejaVuSans-54"/>
     </g>
    </g>
   </g>
   <g id="text_28">
    <g clip-path="url(#p446c213478)">
     <!-- IL12A -->
     <g transform="translate(280.66407 63.564773)scale(0.1 -0.1)">
      <use xlink:href="#DejaVuSans-73"/>
      <use x="29.492188" xlink:href="#DejaVuSans-76"/>
      <use x="85.205078" xlink:href="#DejaVuSans-49"/>
      <use x="148.828125" xlink:href="#DejaVuSans-50"/>
      <use x="212.451172" xlink:href="#DejaVuSans-65"/>
     </g>
    </g>
   </g>
   <g id="text_29">
    <g clip-path="url(#p446c213478)">
     <!-- BCL2 -->
     <g transform="translate(58.505431 270.088174)scale(0.1 -0.1)">
      <use xlink:href="#DejaVuSans-66"/>
      <use x="66.853516" xlink:href="#DejaVuSans-67"/>
      <use x="136.677734" xlink:href="#DejaVuSans-76"/>
      <use x="192.390625" xlink:href="#DejaVuSans-50"/>
     </g>
    </g>
   </g>
   <g id="text_30">
    <g clip-path="url(#p446c213478)">
     <!-- BCL2L1 -->
     <g transform="translate(156.442009 87.583576)scale(0.1 -0.1)">
      <use xlink:href="#DejaVuSans-66"/>
      <use x="66.853516" xlink:href="#DejaVuSans-67"/>
      <use x="136.677734" xlink:href="#DejaVuSans-76"/>
      <use x="192.390625" xlink:href="#DejaVuSans-50"/>
      <use x="256.013672" xlink:href="#DejaVuSans-76"/>
      <use x="311.726562" xlink:href="#DejaVuSans-49"/>
     </g>
    </g>
   </g>
   <g id="text_31">
    <g clip-path="url(#p446c213478)">
     <!-- XIAP -->
     <g transform="translate(412.315071 261.897724)scale(0.1 -0.1)">
      <defs>
       <path d="M 6.296875 72.90625 
L 16.890625 72.90625 
L 35.015625 45.796875 
L 53.21875 72.90625 
L 63.8125 72.90625 
L 40.375 37.890625 
L 65.375 0 
L 54.78125 0 
L 34.28125 31 
L 13.625 0 
L 2.984375 0 
L 29 38.921875 
z
" id="DejaVuSans-88"/>
      </defs>
      <use xlink:href="#DejaVuSans-88"/>
      <use x="68.505859" xlink:href="#DejaVuSans-73"/>
      <use x="97.998047" xlink:href="#DejaVuSans-65"/>
      <use x="166.40625" xlink:href="#DejaVuSans-80"/>
     </g>
    </g>
   </g>
   <g id="text_32">
    <g clip-path="url(#p446c213478)">
     <!-- JAK1 -->
     <g transform="translate(142.199647 269.164298)scale(0.1 -0.1)">
      <defs>
       <path d="M 9.8125 72.90625 
L 19.671875 72.90625 
L 19.671875 5.078125 
Q 19.671875 -8.109375 14.671875 -14.0625 
Q 9.671875 -20.015625 -1.421875 -20.015625 
L -5.171875 -20.015625 
L -5.171875 -11.71875 
L -2.09375 -11.71875 
Q 4.4375 -11.71875 7.125 -8.046875 
Q 9.8125 -4.390625 9.8125 5.078125 
z
" id="DejaVuSans-74"/>
      </defs>
      <use xlink:href="#DejaVuSans-74"/>
      <use x="27.742188" xlink:href="#DejaVuSans-65"/>
      <use x="96.150391" xlink:href="#DejaVuSans-75"/>
      <use x="161.726562" xlink:href="#DejaVuSans-49"/>
     </g>
    </g>
   </g>
   <g id="text_33">
    <g clip-path="url(#p446c213478)">
     <!-- JAK2 -->
     <g transform="translate(554.17804 238.046628)scale(0.1 -0.1)">
      <use xlink:href="#DejaVuSans-74"/>
      <use x="27.742188" xlink:href="#DejaVuSans-65"/>
      <use x="96.150391" xlink:href="#DejaVuSans-75"/>
      <use x="161.726562" xlink:href="#DejaVuSans-50"/>
     </g>
    </g>
   </g>
   <g id="text_34">
    <g clip-path="url(#p446c213478)">
     <!-- PIK3CG -->
     <g transform="translate(310.920304 303.334164)scale(0.1 -0.1)">
      <use xlink:href="#DejaVuSans-80"/>
      <use x="60.302734" xlink:href="#DejaVuSans-73"/>
      <use x="89.794922" xlink:href="#DejaVuSans-75"/>
      <use x="155.371094" xlink:href="#DejaVuSans-51"/>
      <use x="218.994141" xlink:href="#DejaVuSans-67"/>
      <use x="288.818359" xlink:href="#DejaVuSans-71"/>
     </g>
    </g>
   </g>
   <g id="text_35">
    <g clip-path="url(#p446c213478)">
     <!-- ITGA6 -->
     <g transform="translate(602.741619 226.004062)scale(0.1 -0.1)">
      <use xlink:href="#DejaVuSans-73"/>
      <use x="29.492188" xlink:href="#DejaVuSans-84"/>
      <use x="90.576172" xlink:href="#DejaVuSans-71"/>
      <use x="168.066406" xlink:href="#DejaVuSans-65"/>
      <use x="236.474609" xlink:href="#DejaVuSans-54"/>
     </g>
    </g>
   </g>
   <g id="text_36">
    <g clip-path="url(#p446c213478)">
     <!-- ITGB1 -->
     <g transform="translate(197.446402 105.681326)scale(0.1 -0.1)">
      <use xlink:href="#DejaVuSans-73"/>
      <use x="29.492188" xlink:href="#DejaVuSans-84"/>
      <use x="90.576172" xlink:href="#DejaVuSans-71"/>
      <use x="168.066406" xlink:href="#DejaVuSans-66"/>
      <use x="236.669922" xlink:href="#DejaVuSans-49"/>
     </g>
    </g>
   </g>
   <g id="text_37">
    <g clip-path="url(#p446c213478)">
     <!-- LAMB1 -->
     <g transform="translate(442.987217 77.057481)scale(0.1 -0.1)">
      <use xlink:href="#DejaVuSans-76"/>
      <use x="57.962891" xlink:href="#DejaVuSans-65"/>
      <use x="126.371094" xlink:href="#DejaVuSans-77"/>
      <use x="212.650391" xlink:href="#DejaVuSans-66"/>
      <use x="281.253906" xlink:href="#DejaVuSans-49"/>
     </g>
    </g>
   </g>
   <g id="text_38">
    <g clip-path="url(#p446c213478)">
     <!-- IFNGR1 -->
     <g transform="translate(346.773214 138.084604)scale(0.1 -0.1)">
      <use xlink:href="#DejaVuSans-73"/>
      <use x="29.492188" xlink:href="#DejaVuSans-70"/>
      <use x="87.011719" xlink:href="#DejaVuSans-78"/>
      <use x="161.816406" xlink:href="#DejaVuSans-71"/>
      <use x="239.306641" xlink:href="#DejaVuSans-82"/>
      <use x="308.789062" xlink:href="#DejaVuSans-49"/>
     </g>
    </g>
   </g>
   <g id="text_39">
    <g clip-path="url(#p446c213478)">
     <!-- IFNGR2 -->
     <g transform="translate(212.461866 202.918198)scale(0.1 -0.1)">
      <use xlink:href="#DejaVuSans-73"/>
      <use x="29.492188" xlink:href="#DejaVuSans-70"/>
      <use x="87.011719" xlink:href="#DejaVuSans-78"/>
      <use x="161.816406" xlink:href="#DejaVuSans-71"/>
      <use x="239.306641" xlink:href="#DejaVuSans-82"/>
      <use x="308.789062" xlink:href="#DejaVuSans-50"/>
     </g>
    </g>
   </g>
   <g id="text_40">
    <g clip-path="url(#p446c213478)">
     <!-- IL10RA -->
     <g transform="translate(327.700497 430.110227)scale(0.1 -0.1)">
      <defs>
       <path d="M 31.78125 66.40625 
Q 24.171875 66.40625 20.328125 58.90625 
Q 16.5 51.421875 16.5 36.375 
Q 16.5 21.390625 20.328125 13.890625 
Q 24.171875 6.390625 31.78125 6.390625 
Q 39.453125 6.390625 43.28125 13.890625 
Q 47.125 21.390625 47.125 36.375 
Q 47.125 51.421875 43.28125 58.90625 
Q 39.453125 66.40625 31.78125 66.40625 
z
M 31.78125 74.21875 
Q 44.046875 74.21875 50.515625 64.515625 
Q 56.984375 54.828125 56.984375 36.375 
Q 56.984375 17.96875 50.515625 8.265625 
Q 44.046875 -1.421875 31.78125 -1.421875 
Q 19.53125 -1.421875 13.0625 8.265625 
Q 6.59375 17.96875 6.59375 36.375 
Q 6.59375 54.828125 13.0625 64.515625 
Q 19.53125 74.21875 31.78125 74.21875 
z
" id="DejaVuSans-48"/>
      </defs>
      <use xlink:href="#DejaVuSans-73"/>
      <use x="29.492188" xlink:href="#DejaVuSans-76"/>
      <use x="85.205078" xlink:href="#DejaVuSans-49"/>
      <use x="148.828125" xlink:href="#DejaVuSans-48"/>
      <use x="212.451172" xlink:href="#DejaVuSans-82"/>
      <use x="277.933594" xlink:href="#DejaVuSans-65"/>
     </g>
    </g>
   </g>
   <g id="text_41">
    <g clip-path="url(#p446c213478)">
     <!-- IL10RB -->
     <g transform="translate(336.485311 326.493243)scale(0.1 -0.1)">
      <use xlink:href="#DejaVuSans-73"/>
      <use x="29.492188" xlink:href="#DejaVuSans-76"/>
      <use x="85.205078" xlink:href="#DejaVuSans-49"/>
      <use x="148.828125" xlink:href="#DejaVuSans-48"/>
      <use x="212.451172" xlink:href="#DejaVuSans-82"/>
      <use x="281.933594" xlink:href="#DejaVuSans-66"/>
     </g>
    </g>
   </g>
   <g id="text_42">
    <g clip-path="url(#p446c213478)">
     <!-- TYK2 -->
     <g transform="translate(515.990585 303.662821)scale(0.1 -0.1)">
      <use xlink:href="#DejaVuSans-84"/>
      <use x="61.083984" xlink:href="#DejaVuSans-89"/>
      <use x="122.167969" xlink:href="#DejaVuSans-75"/>
      <use x="187.744141" xlink:href="#DejaVuSans-50"/>
     </g>
    </g>
   </g>
   <g id="text_43">
    <!-- Importance Score for Each Node in the Network -->
    <g transform="translate(198.616875 16.318125)scale(0.12 -0.12)">
     <defs>
      <path d="M 52 44.1875 
Q 55.375 50.25 60.0625 53.125 
Q 64.75 56 71.09375 56 
Q 79.640625 56 84.28125 50.015625 
Q 88.921875 44.046875 88.921875 33.015625 
L 88.921875 0 
L 79.890625 0 
L 79.890625 32.71875 
Q 79.890625 40.578125 77.09375 44.375 
Q 74.3125 48.1875 68.609375 48.1875 
Q 61.625 48.1875 57.5625 43.546875 
Q 53.515625 38.921875 53.515625 30.90625 
L 53.515625 0 
L 44.484375 0 
L 44.484375 32.71875 
Q 44.484375 40.625 41.703125 44.40625 
Q 38.921875 48.1875 33.109375 48.1875 
Q 26.21875 48.1875 22.15625 43.53125 
Q 18.109375 38.875 18.109375 30.90625 
L 18.109375 0 
L 9.078125 0 
L 9.078125 54.6875 
L 18.109375 54.6875 
L 18.109375 46.1875 
Q 21.1875 51.21875 25.484375 53.609375 
Q 29.78125 56 35.6875 56 
Q 41.65625 56 45.828125 52.96875 
Q 50 49.953125 52 44.1875 
z
" id="DejaVuSans-109"/>
      <path d="M 18.109375 8.203125 
L 18.109375 -20.796875 
L 9.078125 -20.796875 
L 9.078125 54.6875 
L 18.109375 54.6875 
L 18.109375 46.390625 
Q 20.953125 51.265625 25.265625 53.625 
Q 29.59375 56 35.59375 56 
Q 45.5625 56 51.78125 48.09375 
Q 58.015625 40.1875 58.015625 27.296875 
Q 58.015625 14.40625 51.78125 6.484375 
Q 45.5625 -1.421875 35.59375 -1.421875 
Q 29.59375 -1.421875 25.265625 0.953125 
Q 20.953125 3.328125 18.109375 8.203125 
z
M 48.6875 27.296875 
Q 48.6875 37.203125 44.609375 42.84375 
Q 40.53125 48.484375 33.40625 48.484375 
Q 26.265625 48.484375 22.1875 42.84375 
Q 18.109375 37.203125 18.109375 27.296875 
Q 18.109375 17.390625 22.1875 11.75 
Q 26.265625 6.109375 33.40625 6.109375 
Q 40.53125 6.109375 44.609375 11.75 
Q 48.6875 17.390625 48.6875 27.296875 
z
" id="DejaVuSans-112"/>
      <path d="M 30.609375 48.390625 
Q 23.390625 48.390625 19.1875 42.75 
Q 14.984375 37.109375 14.984375 27.296875 
Q 14.984375 17.484375 19.15625 11.84375 
Q 23.34375 6.203125 30.609375 6.203125 
Q 37.796875 6.203125 41.984375 11.859375 
Q 46.1875 17.53125 46.1875 27.296875 
Q 46.1875 37.015625 41.984375 42.703125 
Q 37.796875 48.390625 30.609375 48.390625 
z
M 30.609375 56 
Q 42.328125 56 49.015625 48.375 
Q 55.71875 40.765625 55.71875 27.296875 
Q 55.71875 13.875 49.015625 6.21875 
Q 42.328125 -1.421875 30.609375 -1.421875 
Q 18.84375 -1.421875 12.171875 6.21875 
Q 5.515625 13.875 5.515625 27.296875 
Q 5.515625 40.765625 12.171875 48.375 
Q 18.84375 56 30.609375 56 
z
" id="DejaVuSans-111"/>
      <path d="M 41.109375 46.296875 
Q 39.59375 47.171875 37.8125 47.578125 
Q 36.03125 48 33.890625 48 
Q 26.265625 48 22.1875 43.046875 
Q 18.109375 38.09375 18.109375 28.8125 
L 18.109375 0 
L 9.078125 0 
L 9.078125 54.6875 
L 18.109375 54.6875 
L 18.109375 46.1875 
Q 20.953125 51.171875 25.484375 53.578125 
Q 30.03125 56 36.53125 56 
Q 37.453125 56 38.578125 55.875 
Q 39.703125 55.765625 41.0625 55.515625 
z
" id="DejaVuSans-114"/>
      <path d="M 18.3125 70.21875 
L 18.3125 54.6875 
L 36.8125 54.6875 
L 36.8125 47.703125 
L 18.3125 47.703125 
L 18.3125 18.015625 
Q 18.3125 11.328125 20.140625 9.421875 
Q 21.96875 7.515625 27.59375 7.515625 
L 36.8125 7.515625 
L 36.8125 0 
L 27.59375 0 
Q 17.1875 0 13.234375 3.875 
Q 9.28125 7.765625 9.28125 18.015625 
L 9.28125 47.703125 
L 2.6875 47.703125 
L 2.6875 54.6875 
L 9.28125 54.6875 
L 9.28125 70.21875 
z
" id="DejaVuSans-116"/>
      <path d="M 34.28125 27.484375 
Q 23.390625 27.484375 19.1875 25 
Q 14.984375 22.515625 14.984375 16.5 
Q 14.984375 11.71875 18.140625 8.90625 
Q 21.296875 6.109375 26.703125 6.109375 
Q 34.1875 6.109375 38.703125 11.40625 
Q 43.21875 16.703125 43.21875 25.484375 
L 43.21875 27.484375 
z
M 52.203125 31.203125 
L 52.203125 0 
L 43.21875 0 
L 43.21875 8.296875 
Q 40.140625 3.328125 35.546875 0.953125 
Q 30.953125 -1.421875 24.3125 -1.421875 
Q 15.921875 -1.421875 10.953125 3.296875 
Q 6 8.015625 6 15.921875 
Q 6 25.140625 12.171875 29.828125 
Q 18.359375 34.515625 30.609375 34.515625 
L 43.21875 34.515625 
L 43.21875 35.40625 
Q 43.21875 41.609375 39.140625 45 
Q 35.0625 48.390625 27.6875 48.390625 
Q 23 48.390625 18.546875 47.265625 
Q 14.109375 46.140625 10.015625 43.890625 
L 10.015625 52.203125 
Q 14.9375 54.109375 19.578125 55.046875 
Q 24.21875 56 28.609375 56 
Q 40.484375 56 46.34375 49.84375 
Q 52.203125 43.703125 52.203125 31.203125 
z
" id="DejaVuSans-97"/>
      <path d="M 54.890625 33.015625 
L 54.890625 0 
L 45.90625 0 
L 45.90625 32.71875 
Q 45.90625 40.484375 42.875 44.328125 
Q 39.84375 48.1875 33.796875 48.1875 
Q 26.515625 48.1875 22.3125 43.546875 
Q 18.109375 38.921875 18.109375 30.90625 
L 18.109375 0 
L 9.078125 0 
L 9.078125 54.6875 
L 18.109375 54.6875 
L 18.109375 46.1875 
Q 21.34375 51.125 25.703125 53.5625 
Q 30.078125 56 35.796875 56 
Q 45.21875 56 50.046875 50.171875 
Q 54.890625 44.34375 54.890625 33.015625 
z
" id="DejaVuSans-110"/>
      <path d="M 48.78125 52.59375 
L 48.78125 44.1875 
Q 44.96875 46.296875 41.140625 47.34375 
Q 37.3125 48.390625 33.40625 48.390625 
Q 24.65625 48.390625 19.8125 42.84375 
Q 14.984375 37.3125 14.984375 27.296875 
Q 14.984375 17.28125 19.8125 11.734375 
Q 24.65625 6.203125 33.40625 6.203125 
Q 37.3125 6.203125 41.140625 7.25 
Q 44.96875 8.296875 48.78125 10.40625 
L 48.78125 2.09375 
Q 45.015625 0.34375 40.984375 -0.53125 
Q 36.96875 -1.421875 32.421875 -1.421875 
Q 20.0625 -1.421875 12.78125 6.34375 
Q 5.515625 14.109375 5.515625 27.296875 
Q 5.515625 40.671875 12.859375 48.328125 
Q 20.21875 56 33.015625 56 
Q 37.15625 56 41.109375 55.140625 
Q 45.0625 54.296875 48.78125 52.59375 
z
" id="DejaVuSans-99"/>
      <path d="M 56.203125 29.59375 
L 56.203125 25.203125 
L 14.890625 25.203125 
Q 15.484375 15.921875 20.484375 11.0625 
Q 25.484375 6.203125 34.421875 6.203125 
Q 39.59375 6.203125 44.453125 7.46875 
Q 49.3125 8.734375 54.109375 11.28125 
L 54.109375 2.78125 
Q 49.265625 0.734375 44.1875 -0.34375 
Q 39.109375 -1.421875 33.890625 -1.421875 
Q 20.796875 -1.421875 13.15625 6.1875 
Q 5.515625 13.8125 5.515625 26.8125 
Q 5.515625 40.234375 12.765625 48.109375 
Q 20.015625 56 32.328125 56 
Q 43.359375 56 49.78125 48.890625 
Q 56.203125 41.796875 56.203125 29.59375 
z
M 47.21875 32.234375 
Q 47.125 39.59375 43.09375 43.984375 
Q 39.0625 48.390625 32.421875 48.390625 
Q 24.90625 48.390625 20.390625 44.140625 
Q 15.875 39.890625 15.1875 32.171875 
z
" id="DejaVuSans-101"/>
      <path id="DejaVuSans-32"/>
      <path d="M 37.109375 75.984375 
L 37.109375 68.5 
L 28.515625 68.5 
Q 23.6875 68.5 21.796875 66.546875 
Q 19.921875 64.59375 19.921875 59.515625 
L 19.921875 54.6875 
L 34.71875 54.6875 
L 34.71875 47.703125 
L 19.921875 47.703125 
L 19.921875 0 
L 10.890625 0 
L 10.890625 47.703125 
L 2.296875 47.703125 
L 2.296875 54.6875 
L 10.890625 54.6875 
L 10.890625 58.5 
Q 10.890625 67.625 15.140625 71.796875 
Q 19.390625 75.984375 28.609375 75.984375 
z
" id="DejaVuSans-102"/>
      <path d="M 54.890625 33.015625 
L 54.890625 0 
L 45.90625 0 
L 45.90625 32.71875 
Q 45.90625 40.484375 42.875 44.328125 
Q 39.84375 48.1875 33.796875 48.1875 
Q 26.515625 48.1875 22.3125 43.546875 
Q 18.109375 38.921875 18.109375 30.90625 
L 18.109375 0 
L 9.078125 0 
L 9.078125 75.984375 
L 18.109375 75.984375 
L 18.109375 46.1875 
Q 21.34375 51.125 25.703125 53.5625 
Q 30.078125 56 35.796875 56 
Q 45.21875 56 50.046875 50.171875 
Q 54.890625 44.34375 54.890625 33.015625 
z
" id="DejaVuSans-104"/>
      <path d="M 45.40625 46.390625 
L 45.40625 75.984375 
L 54.390625 75.984375 
L 54.390625 0 
L 45.40625 0 
L 45.40625 8.203125 
Q 42.578125 3.328125 38.25 0.953125 
Q 33.9375 -1.421875 27.875 -1.421875 
Q 17.96875 -1.421875 11.734375 6.484375 
Q 5.515625 14.40625 5.515625 27.296875 
Q 5.515625 40.1875 11.734375 48.09375 
Q 17.96875 56 27.875 56 
Q 33.9375 56 38.25 53.625 
Q 42.578125 51.265625 45.40625 46.390625 
z
M 14.796875 27.296875 
Q 14.796875 17.390625 18.875 11.75 
Q 22.953125 6.109375 30.078125 6.109375 
Q 37.203125 6.109375 41.296875 11.75 
Q 45.40625 17.390625 45.40625 27.296875 
Q 45.40625 37.203125 41.296875 42.84375 
Q 37.203125 48.484375 30.078125 48.484375 
Q 22.953125 48.484375 18.875 42.84375 
Q 14.796875 37.203125 14.796875 27.296875 
z
" id="DejaVuSans-100"/>
      <path d="M 9.421875 54.6875 
L 18.40625 54.6875 
L 18.40625 0 
L 9.421875 0 
z
M 9.421875 75.984375 
L 18.40625 75.984375 
L 18.40625 64.59375 
L 9.421875 64.59375 
z
" id="DejaVuSans-105"/>
      <path d="M 4.203125 54.6875 
L 13.1875 54.6875 
L 24.421875 12.015625 
L 35.59375 54.6875 
L 46.1875 54.6875 
L 57.421875 12.015625 
L 68.609375 54.6875 
L 77.59375 54.6875 
L 63.28125 0 
L 52.6875 0 
L 40.921875 44.828125 
L 29.109375 0 
L 18.5 0 
z
" id="DejaVuSans-119"/>
      <path d="M 9.078125 75.984375 
L 18.109375 75.984375 
L 18.109375 31.109375 
L 44.921875 54.6875 
L 56.390625 54.6875 
L 27.390625 29.109375 
L 57.625 0 
L 45.90625 0 
L 18.109375 26.703125 
L 18.109375 0 
L 9.078125 0 
z
" id="DejaVuSans-107"/>
     </defs>
     <use xlink:href="#DejaVuSans-73"/>
     <use x="29.492188" xlink:href="#DejaVuSans-109"/>
     <use x="126.904297" xlink:href="#DejaVuSans-112"/>
     <use x="190.380859" xlink:href="#DejaVuSans-111"/>
     <use x="251.5625" xlink:href="#DejaVuSans-114"/>
     <use x="292.675781" xlink:href="#DejaVuSans-116"/>
     <use x="331.884766" xlink:href="#DejaVuSans-97"/>
     <use x="393.164062" xlink:href="#DejaVuSans-110"/>
     <use x="456.542969" xlink:href="#DejaVuSans-99"/>
     <use x="511.523438" xlink:href="#DejaVuSans-101"/>
     <use x="573.046875" xlink:href="#DejaVuSans-32"/>
     <use x="604.833984" xlink:href="#DejaVuSans-83"/>
     <use x="668.310547" xlink:href="#DejaVuSans-99"/>
     <use x="723.291016" xlink:href="#DejaVuSans-111"/>
     <use x="784.472656" xlink:href="#DejaVuSans-114"/>
     <use x="823.335938" xlink:href="#DejaVuSans-101"/>
     <use x="884.859375" xlink:href="#DejaVuSans-32"/>
     <use x="916.646484" xlink:href="#DejaVuSans-102"/>
     <use x="951.851562" xlink:href="#DejaVuSans-111"/>
     <use x="1013.033203" xlink:href="#DejaVuSans-114"/>
     <use x="1054.146484" xlink:href="#DejaVuSans-32"/>
     <use x="1085.933594" xlink:href="#DejaVuSans-69"/>
     <use x="1149.117188" xlink:href="#DejaVuSans-97"/>
     <use x="1210.396484" xlink:href="#DejaVuSans-99"/>
     <use x="1265.376953" xlink:href="#DejaVuSans-104"/>
     <use x="1328.755859" xlink:href="#DejaVuSans-32"/>
     <use x="1360.542969" xlink:href="#DejaVuSans-78"/>
     <use x="1435.347656" xlink:href="#DejaVuSans-111"/>
     <use x="1496.529297" xlink:href="#DejaVuSans-100"/>
     <use x="1560.005859" xlink:href="#DejaVuSans-101"/>
     <use x="1621.529297" xlink:href="#DejaVuSans-32"/>
     <use x="1653.316406" xlink:href="#DejaVuSans-105"/>
     <use x="1681.099609" xlink:href="#DejaVuSans-110"/>
     <use x="1744.478516" xlink:href="#DejaVuSans-32"/>
     <use x="1776.265625" xlink:href="#DejaVuSans-116"/>
     <use x="1815.474609" xlink:href="#DejaVuSans-104"/>
     <use x="1878.853516" xlink:href="#DejaVuSans-101"/>
     <use x="1940.376953" xlink:href="#DejaVuSans-32"/>
     <use x="1972.164062" xlink:href="#DejaVuSans-78"/>
     <use x="2046.96875" xlink:href="#DejaVuSans-101"/>
     <use x="2108.492188" xlink:href="#DejaVuSans-116"/>
     <use x="2147.701172" xlink:href="#DejaVuSans-119"/>
     <use x="2229.488281" xlink:href="#DejaVuSans-111"/>
     <use x="2290.669922" xlink:href="#DejaVuSans-114"/>
     <use x="2331.783203" xlink:href="#DejaVuSans-107"/>
    </g>
   </g>
  </g>
 </g>
 <defs>
  <clipPath id="p446c213478">
   <rect height="443.52" width="669.6" x="7.2" y="22.318125"/>
  </clipPath>
 </defs>
</svg>
