<?xml version="1.0" encoding="utf-8" standalone="no"?>
<!DOCTYPE svg PUBLIC "-//W3C//DTD SVG 1.1//EN"
  "http://www.w3.org/Graphics/SVG/1.1/DTD/svg11.dtd">
<!-- Created with matplotlib (https://matplotlib.org/) -->
<svg height="473.038125pt" version="1.1" viewBox="0 0 684 473.038125" width="684pt" xmlns="http://www.w3.org/2000/svg" xmlns:xlink="http://www.w3.org/1999/xlink">
 <metadata>
  <rdf:RDF xmlns:cc="http://creativecommons.org/ns#" xmlns:dc="http://purl.org/dc/elements/1.1/" xmlns:rdf="http://www.w3.org/1999/02/22-rdf-syntax-ns#">
   <cc:Work>
    <dc:type rdf:resource="http://purl.org/dc/dcmitype/StillImage"/>
    <dc:date>2024-04-26T10:56:32.964377</dc:date>
    <dc:format>image/svg+xml</dc:format>
    <dc:creator>
     <cc:Agent>
      <dc:title>Matplotlib v3.3.1, https://matplotlib.org/</dc:title>
     </cc:Agent>
    </dc:creator>
   </cc:Work>
  </rdf:RDF>
 </metadata>
 <defs>
  <style type="text/css">*{stroke-linecap:butt;stroke-linejoin:round;}</style>
 </defs>
 <g id="figure_1">
  <g id="patch_1">
   <path d="M 0 473.038125 
L 684 473.038125 
L 684 0 
L 0 0 
z
" style="fill:#ffffff;"/>
  </g>
  <g id="axes_1">
   <g id="patch_2">
    <path clip-path="url(#p15aa61acf7)" d="M 236.632097 234.210232 
Q 240.790418 326.455685 244.89839 417.584238 
" style="fill:none;stroke:#808080;stroke-linecap:round;"/>
    <path clip-path="url(#p15aa61acf7)" d="M 246.716228 413.498229 
L 244.89839 417.584238 
L 242.720286 413.678362 
L 246.716228 413.498229 
z
" style="fill:#808080;stroke:#808080;stroke-linecap:round;"/>
   </g>
   <g id="patch_3">
    <path clip-path="url(#p15aa61acf7)" d="M 229.124592 220.625892 
Q 188.15382 192.217401 148.101824 164.445975 
" style="fill:none;stroke:#808080;stroke-linecap:round;"/>
    <path clip-path="url(#p15aa61acf7)" d="M 150.24932 168.368762 
L 148.101824 164.445975 
L 152.528552 165.081651 
L 150.24932 168.368762 
z
" style="fill:#808080;stroke:#808080;stroke-linecap:round;"/>
   </g>
   <g id="patch_4">
    <path clip-path="url(#p15aa61acf7)" d="M 244.899918 225.274519 
Q 322.657247 222.700353 399.297155 220.16318 
" style="fill:none;stroke:#808080;stroke-linecap:round;"/>
    <path clip-path="url(#p15aa61acf7)" d="M 395.233171 218.296623 
L 399.297155 220.16318 
L 395.365519 222.294433 
L 395.233171 218.296623 
z
" style="fill:#808080;stroke:#808080;stroke-linecap:round;"/>
   </g>
   <g id="patch_5">
    <path clip-path="url(#p15aa61acf7)" d="M 402.087183 224.959054 
Q 276.242223 317.228363 151.298909 408.836586 
" style="fill:none;stroke:#808080;stroke-linecap:round;"/>
    <path clip-path="url(#p15aa61acf7)" d="M 155.707322 408.084329 
L 151.298909 408.836586 
L 153.342151 404.858501 
L 155.707322 408.084329 
z
" style="fill:#808080;stroke:#808080;stroke-linecap:round;"/>
   </g>
   <g id="patch_6">
    <path clip-path="url(#p15aa61acf7)" d="M 207.462784 195.293656 
Q 349.758287 160.519403 490.967717 126.010566 
" style="fill:none;stroke:#808080;stroke-linecap:round;"/>
    <path clip-path="url(#p15aa61acf7)" d="M 486.607275 125.017317 
L 490.967717 126.010566 
L 487.556853 128.902971 
L 486.607275 125.017317 
z
" style="fill:#808080;stroke:#808080;stroke-linecap:round;"/>
   </g>
   <g id="patch_7">
    <path clip-path="url(#p15aa61acf7)" d="M 206.064646 202.423069 
Q 258.808236 240.577286 310.645962 278.076208 
" style="fill:none;stroke:#808080;stroke-linecap:round;"/>
    <path clip-path="url(#p15aa61acf7)" d="M 308.577269 274.111299 
L 310.645962 278.076208 
L 306.232819 277.352218 
L 308.577269 274.111299 
z
" style="fill:#808080;stroke:#808080;stroke-linecap:round;"/>
   </g>
   <g id="patch_8">
    <path clip-path="url(#p15aa61acf7)" d="M 611.258844 212.378965 
Q 510.165003 151.917516 410.030684 92.029931 
" style="fill:none;stroke:#808080;stroke-linecap:round;"/>
    <path clip-path="url(#p15aa61acf7)" d="M 412.437013 95.79949 
L 410.030684 92.029931 
L 414.490129 92.366603 
L 412.437013 95.79949 
z
" style="fill:#808080;stroke:#808080;stroke-linecap:round;"/>
   </g>
   <g id="patch_9">
    <path clip-path="url(#p15aa61acf7)" d="M 437.870612 289.651388 
Q 524.256739 246.154857 609.644274 203.16113 
" style="fill:none;stroke:#808080;stroke-linecap:round;"/>
    <path clip-path="url(#p15aa61acf7)" d="M 605.172155 203.17368 
L 609.644274 203.16113 
L 606.971043 206.746355 
L 605.172155 203.17368 
z
" style="fill:#808080;stroke:#808080;stroke-linecap:round;"/>
   </g>
   <g id="patch_10">
    <path clip-path="url(#p15aa61acf7)" d="M 428.627814 285.021201 
Q 411.389353 187.534298 394.345573 91.14835 
" style="fill:none;stroke:#808080;stroke-linecap:round;"/>
    <path clip-path="url(#p15aa61acf7)" d="M 393.072635 95.435497 
L 394.345573 91.14835 
L 397.011527 94.738988 
L 393.072635 95.435497 
z
" style="fill:#808080;stroke:#808080;stroke-linecap:round;"/>
   </g>
   <g id="patch_11">
    <path clip-path="url(#p15aa61acf7)" d="M 136.364704 127.85956 
Q 233.883125 178.955603 330.411219 229.532751 
" style="fill:none;stroke:#808080;stroke-linecap:round;"/>
    <path clip-path="url(#p15aa61acf7)" d="M 327.796344 225.904745 
L 330.411219 229.532751 
L 325.939889 229.447848 
L 327.796344 225.904745 
z
" style="fill:#808080;stroke:#808080;stroke-linecap:round;"/>
   </g>
   <g id="patch_12">
    <path clip-path="url(#p15aa61acf7)" d="M 137.21903 125.384836 
Q 239.835425 143.968476 341.35168 162.352883 
" style="fill:none;stroke:#808080;stroke-linecap:round;"/>
    <path clip-path="url(#p15aa61acf7)" d="M 337.772102 159.672096 
L 341.35168 162.352883 
L 337.059304 163.608074 
L 337.772102 159.672096 
z
" style="fill:#808080;stroke:#808080;stroke-linecap:round;"/>
   </g>
   <g id="patch_13">
    <path clip-path="url(#p15aa61acf7)" d="M 379.04427 377.721448 
Q 226.505112 380.056795 75.083858 382.375027 
" style="fill:none;stroke:#808080;stroke-linecap:round;"/>
    <path clip-path="url(#p15aa61acf7)" d="M 79.114006 384.31356 
L 75.083858 382.375027 
L 79.052774 380.314029 
L 79.114006 384.31356 
z
" style="fill:#808080;stroke:#808080;stroke-linecap:round;"/>
   </g>
   <g id="patch_14">
    <path clip-path="url(#p15aa61acf7)" d="M 591.191804 323.314672 
Q 510.610846 281.096666 431.020233 239.397521 
" style="fill:none;stroke:#808080;stroke-linecap:round;"/>
    <path clip-path="url(#p15aa61acf7)" d="M 433.63523 243.02544 
L 431.020233 239.397521 
L 435.491566 239.482275 
L 433.63523 243.02544 
z
" style="fill:#808080;stroke:#808080;stroke-linecap:round;"/>
   </g>
   <g id="patch_15">
    <path clip-path="url(#p15aa61acf7)" d="M 413.957383 236.946268 
Q 368.006083 248.351255 323.139893 259.48692 
" style="fill:none;stroke:#808080;stroke-linecap:round;"/>
    <path clip-path="url(#p15aa61acf7)" d="M 327.503881 260.464472 
L 323.139893 259.48692 
L 326.540327 256.58226 
L 327.503881 260.464472 
z
" style="fill:#808080;stroke:#808080;stroke-linecap:round;"/>
   </g>
   <g id="patch_16">
    <path clip-path="url(#p15aa61acf7)" d="M 414.085287 232.306065 
Q 380.706666 222.002398 348.396337 212.028502 
" style="fill:none;stroke:#808080;stroke-linecap:round;"/>
    <path clip-path="url(#p15aa61acf7)" d="M 351.628465 215.119352 
L 348.396337 212.028502 
L 352.808294 211.29731 
L 351.628465 215.119352 
z
" style="fill:#808080;stroke:#808080;stroke-linecap:round;"/>
   </g>
   <g id="patch_17">
    <path clip-path="url(#p15aa61acf7)" d="M 508.215531 127.559522 
Q 534.62794 140.74349 560.040013 153.428133 
" style="fill:none;stroke:#808080;stroke-linecap:round;"/>
    <path clip-path="url(#p15aa61acf7)" d="M 557.354321 149.852233 
L 560.040013 153.428133 
L 555.567878 153.431146 
L 557.354321 149.852233 
z
" style="fill:#808080;stroke:#808080;stroke-linecap:round;"/>
   </g>
   <g id="patch_18">
    <path clip-path="url(#p15aa61acf7)" d="M 493.314552 128.579533 
Q 419.768858 178.881722 347.145993 228.552734 
" style="fill:none;stroke:#808080;stroke-linecap:round;"/>
    <path clip-path="url(#p15aa61acf7)" d="M 351.576694 227.945374 
L 347.145993 228.552734 
L 349.318526 224.643757 
L 351.576694 227.945374 
z
" style="fill:#808080;stroke:#808080;stroke-linecap:round;"/>
   </g>
   <g id="patch_19">
    <path clip-path="url(#p15aa61acf7)" d="M 492.101212 125.950234 
Q 425.717655 143.893135 360.4134 161.54431 
" style="fill:none;stroke:#808080;stroke-linecap:round;"/>
    <path clip-path="url(#p15aa61acf7)" d="M 364.796689 162.431314 
L 360.4134 161.54431 
L 363.752977 158.569881 
L 364.796689 162.431314 
z
" style="fill:#808080;stroke:#808080;stroke-linecap:round;"/>
   </g>
   <g id="patch_20">
    <path clip-path="url(#p15aa61acf7)" d="M 326.297534 279.911833 
Q 443.673007 220.800793 560.049926 162.192632 
" style="fill:none;stroke:#808080;stroke-linecap:round;"/>
    <path clip-path="url(#p15aa61acf7)" d="M 555.577808 162.205516 
L 560.049926 162.192632 
L 557.376962 165.778056 
L 555.577808 162.205516 
z
" style="fill:#808080;stroke:#808080;stroke-linecap:round;"/>
   </g>
   <g id="patch_21">
    <path clip-path="url(#p15aa61acf7)" d="M 321.867007 275.800985 
Q 328.820705 258.939226 335.348154 243.111059 
" style="fill:none;stroke:#808080;stroke-linecap:round;"/>
    <path clip-path="url(#p15aa61acf7)" d="M 331.974218 246.046456 
L 335.348154 243.111059 
L 335.67211 247.571447 
L 331.974218 246.046456 
z
" style="fill:#808080;stroke:#808080;stroke-linecap:round;"/>
   </g>
   <g id="patch_22">
    <path clip-path="url(#p15aa61acf7)" d="M 320.829883 275.44318 
Q 334.770209 223.950682 348.418373 173.53737 
" style="fill:none;stroke:#808080;stroke-linecap:round;"/>
    <path clip-path="url(#p15aa61acf7)" d="M 345.442594 176.875744 
L 348.418373 173.53737 
L 349.303605 177.921017 
L 345.442594 176.875744 
z
" style="fill:#808080;stroke:#808080;stroke-linecap:round;"/>
   </g>
   <g id="patch_23">
    <path clip-path="url(#p15aa61acf7)" d="M 236.744446 426.277139 
Q 194.376205 420.983886 153.117373 415.829236 
" style="fill:none;stroke:#808080;stroke-linecap:round;"/>
    <path clip-path="url(#p15aa61acf7)" d="M 156.838575 418.309691 
L 153.117373 415.829236 
L 157.334458 414.340547 
L 156.838575 418.309691 
z
" style="fill:#808080;stroke:#808080;stroke-linecap:round;"/>
   </g>
   <g id="patch_24">
    <path clip-path="url(#p15aa61acf7)" d="M 140.178336 167.532594 
Q 141.739935 286.744747 143.286889 404.838962 
" style="fill:none;stroke:#808080;stroke-linecap:round;"/>
    <path clip-path="url(#p15aa61acf7)" d="M 145.234325 400.813109 
L 143.286889 404.838962 
L 141.234668 400.865502 
L 145.234325 400.813109 
z
" style="fill:#808080;stroke:#808080;stroke-linecap:round;"/>
   </g>
   <g id="patch_25">
    <path clip-path="url(#p15aa61acf7)" d="M 300.726266 402.621173 
Q 269.965571 318.158596 239.587472 234.746551 
" style="fill:none;stroke:#808080;stroke-linecap:round;"/>
    <path clip-path="url(#p15aa61acf7)" d="M 239.077042 239.189462 
L 239.587472 234.746551 
L 242.835543 237.820642 
L 239.077042 239.189462 
z
" style="fill:#808080;stroke:#808080;stroke-linecap:round;"/>
   </g>
   <g id="patch_26">
    <path clip-path="url(#p15aa61acf7)" d="M 203.265103 292.082634 
Q 217.83046 262.701357 231.899236 234.321783 
" style="fill:none;stroke:#808080;stroke-linecap:round;"/>
    <path clip-path="url(#p15aa61acf7)" d="M 228.330717 237.017274 
L 231.899236 234.321783 
L 231.914517 238.793893 
L 228.330717 237.017274 
z
" style="fill:#808080;stroke:#808080;stroke-linecap:round;"/>
   </g>
   <g id="patch_27">
    <path clip-path="url(#p15aa61acf7)" d="M 347.715533 233.53965 
Q 478.881934 225.449389 608.932421 217.427957 
" style="fill:none;stroke:#808080;stroke-linecap:round;"/>
    <path clip-path="url(#p15aa61acf7)" d="M 604.816883 215.678 
L 608.932421 217.427957 
L 605.063133 219.670413 
L 604.816883 215.678 
z
" style="fill:#808080;stroke:#808080;stroke-linecap:round;"/>
   </g>
   <g id="patch_28">
    <path clip-path="url(#p15aa61acf7)" d="M 359.475559 165.769933 
Q 484.83485 190.460804 609.097181 214.935616 
" style="fill:none;stroke:#808080;stroke-linecap:round;"/>
    <path clip-path="url(#p15aa61acf7)" d="M 605.559078 212.200324 
L 609.097181 214.935616 
L 604.786085 216.124923 
L 605.559078 212.200324 
z
" style="fill:#808080;stroke:#808080;stroke-linecap:round;"/>
   </g>
   <g id="patch_29">
    <path clip-path="url(#p15aa61acf7)" d="M 307.464026 255.784082 
Q 268.690775 217.828114 230.716469 180.65425 
" style="fill:none;stroke:#808080;stroke-linecap:round;"/>
    <path clip-path="url(#p15aa61acf7)" d="M 232.175791 184.881588 
L 230.716469 180.65425 
L 234.973932 182.023196 
L 232.175791 184.881588 
z
" style="fill:#808080;stroke:#808080;stroke-linecap:round;"/>
   </g>
   <g id="patch_30">
    <path clip-path="url(#p15aa61acf7)" d="M 311.004592 253.59639 
Q 281.698594 162.327382 252.734403 72.122879 
" style="fill:none;stroke:#808080;stroke-linecap:round;"/>
    <path clip-path="url(#p15aa61acf7)" d="M 252.053045 76.542806 
L 252.734403 72.122879 
L 255.861529 75.319921 
L 252.053045 76.542806 
z
" style="fill:#808080;stroke:#808080;stroke-linecap:round;"/>
   </g>
   <g id="patch_31">
    <path clip-path="url(#p15aa61acf7)" d="M 330.77166 206.60736 
Q 281.391809 191.48013 233.080956 176.680382 
" style="fill:none;stroke:#808080;stroke-linecap:round;"/>
    <path clip-path="url(#p15aa61acf7)" d="M 236.319702 179.764295 
L 233.080956 176.680382 
L 237.491334 175.939733 
L 236.319702 179.764295 
z
" style="fill:#808080;stroke:#808080;stroke-linecap:round;"/>
   </g>
   <g id="patch_32">
    <path clip-path="url(#p15aa61acf7)" d="M 334.540639 201.751175 
Q 294.397782 135.976388 254.837365 71.155939 
" style="fill:none;stroke:#808080;stroke-linecap:round;"/>
    <path clip-path="url(#p15aa61acf7)" d="M 255.213994 75.612188 
L 254.837365 71.155939 
L 258.628341 73.528385 
L 255.213994 75.612188 
z
" style="fill:#808080;stroke:#808080;stroke-linecap:round;"/>
   </g>
   <g id="patch_33">
    <path clip-path="url(#p15aa61acf7)" d="M 231.35291 169.710289 
Q 328.624541 117.310944 424.911869 65.441833 
" style="fill:none;stroke:#808080;stroke-linecap:round;"/>
    <path clip-path="url(#p15aa61acf7)" d="M 420.441809 65.578085 
L 424.911869 65.441833 
L 422.338834 69.099633 
L 420.441809 65.578085 
z
" style="fill:#808080;stroke:#808080;stroke-linecap:round;"/>
   </g>
   <g id="patch_34">
    <path clip-path="url(#p15aa61acf7)" d="M 231.514095 170.0187 
Q 312.684956 130.414732 392.851005 91.301022 
" style="fill:none;stroke:#808080;stroke-linecap:round;"/>
    <path clip-path="url(#p15aa61acf7)" d="M 388.37908 91.257554 
L 392.851005 91.301022 
L 390.133076 94.852481 
L 388.37908 91.257554 
z
" style="fill:#808080;stroke:#808080;stroke-linecap:round;"/>
   </g>
   <g id="patch_35">
    <path clip-path="url(#p15aa61acf7)" d="M 258.406524 62.716543 
Q 341.632649 61.808227 423.740806 60.912112 
" style="fill:none;stroke:#808080;stroke-linecap:round;"/>
    <path clip-path="url(#p15aa61acf7)" d="M 419.719218 58.955884 
L 423.740806 60.912112 
L 419.76287 62.955646 
L 419.719218 58.955884 
z
" style="fill:#808080;stroke:#808080;stroke-linecap:round;"/>
   </g>
   <g id="patch_36">
    <path clip-path="url(#p15aa61acf7)" d="M 258.29696 64.173727 
Q 325.6929 74.911718 391.984732 85.473794 
" style="fill:none;stroke:#808080;stroke-linecap:round;"/>
    <path clip-path="url(#p15aa61acf7)" d="M 388.349241 82.869336 
L 391.984732 85.473794 
L 387.719871 86.819513 
L 388.349241 82.869336 
z
" style="fill:#808080;stroke:#808080;stroke-linecap:round;"/>
   </g>
   <g id="patch_37">
    <path clip-path="url(#p15aa61acf7)" d="M 617.079755 207.328113 
Q 608.62184 263.052013 600.331701 317.670539 
" style="fill:none;stroke:#808080;stroke-linecap:round;"/>
    <path clip-path="url(#p15aa61acf7)" d="M 602.909309 314.015962 
L 600.331701 317.670539 
L 598.954604 313.415706 
L 602.909309 314.015962 
z
" style="fill:#808080;stroke:#808080;stroke-linecap:round;"/>
   </g>
   <g id="patch_38">
    <path clip-path="url(#p15aa61acf7)" d="M 398.209055 88.152649 
Q 495.755337 204.428004 592.583048 319.846822 
" style="fill:none;stroke:#808080;stroke-linecap:round;"/>
    <path clip-path="url(#p15aa61acf7)" d="M 591.544433 315.496962 
L 592.583048 319.846822 
L 588.479991 318.067798 
L 591.544433 315.496962 
z
" style="fill:#808080;stroke:#808080;stroke-linecap:round;"/>
   </g>
   <g id="PathCollection_1">
    <defs>
     <path d="M 0 11.18034 
C 2.965061 11.18034 5.80908 10.002309 7.905694 7.905694 
C 10.002309 5.80908 11.18034 2.965061 11.18034 -0 
C 11.18034 -2.965061 10.002309 -5.80908 7.905694 -7.905694 
C 5.80908 -10.002309 2.965061 -11.18034 0 -11.18034 
C -2.965061 -11.18034 -5.80908 -10.002309 -7.905694 -7.905694 
C -10.002309 -5.80908 -11.18034 -2.965061 -11.18034 0 
C -11.18034 2.965061 -10.002309 5.80908 -7.905694 7.905694 
C -5.80908 10.002309 -2.965061 11.18034 0 11.18034 
z
" id="C0_0_062d184311"/>
    </defs>
    <g clip-path="url(#p15aa61acf7)">
     <use style="fill:#c3c3c3;stroke:#c3c3c3;" x="236.242205" xlink:href="#C0_0_062d184311" y="225.561133"/>
    </g>
    <g clip-path="url(#p15aa61acf7)">
     <use style="fill:#e9e9e9;stroke:#e9e9e9;" x="409.06945" xlink:href="#C0_0_062d184311" y="219.839668"/>
    </g>
    <g clip-path="url(#p15aa61acf7)">
     <use style="fill:#a9a9a9;stroke:#a9a9a9;" x="199.050864" xlink:href="#C0_0_062d184311" y="197.349366"/>
    </g>
    <g clip-path="url(#p15aa61acf7)">
     <use style="fill:#f3f3f3;stroke:#f3f3f3;" x="618.694215" xlink:href="#C0_0_062d184311" y="216.825856"/>
    </g>
    <g clip-path="url(#p15aa61acf7)">
     <use style="fill:#5f5f5f;stroke:#5f5f5f;" x="430.135282" xlink:href="#C0_0_062d184311" y="293.546227"/>
    </g>
    <g clip-path="url(#p15aa61acf7)">
     <use style="fill:#f3f3f3;stroke:#f3f3f3;" x="433.518726" xlink:href="#C0_0_062d184311" y="60.805398"/>
    </g>
    <g clip-path="url(#p15aa61acf7)">
     <use style="fill:#f3f3f3;stroke:#f3f3f3;" x="128.695673" xlink:href="#C0_0_062d184311" y="123.841272"/>
    </g>
    <g clip-path="url(#p15aa61acf7)">
     <use style="fill:#eaeaea;stroke:#eaeaea;" x="387.707436" xlink:href="#C0_0_062d184311" y="377.588816"/>
    </g>
    <g clip-path="url(#p15aa61acf7)">
     <use style="fill:#f3f3f3;stroke:#f3f3f3;" x="65.305785" xlink:href="#C0_0_062d184311" y="382.524727"/>
    </g>
    <g clip-path="url(#p15aa61acf7)">
     <use style="fill:#f3f3f3;stroke:#f3f3f3;" x="568.785327" xlink:href="#C0_0_062d184311" y="157.793428"/>
    </g>
    <g clip-path="url(#p15aa61acf7)">
     <use style="fill:#909090;stroke:#909090;" x="598.864845" xlink:href="#C0_0_062d184311" y="327.334735"/>
    </g>
    <g clip-path="url(#p15aa61acf7)">
     <use style="fill:#a3a3a3;stroke:#a3a3a3;" x="422.360664" xlink:href="#C0_0_062d184311" y="234.860597"/>
    </g>
    <g clip-path="url(#p15aa61acf7)">
     <use style="fill:#e9e9e9;stroke:#e9e9e9;" x="500.463431" xlink:href="#C0_0_062d184311" y="123.689998"/>
    </g>
    <g clip-path="url(#p15aa61acf7)">
     <use style="fill:#d5d5d5;stroke:#d5d5d5;" x="318.565995" xlink:href="#C0_0_062d184311" y="283.805485"/>
    </g>
    <g clip-path="url(#p15aa61acf7)">
     <use style="fill:#f3f3f3;stroke:#f3f3f3;" x="143.414976" xlink:href="#C0_0_062d184311" y="414.617072"/>
    </g>
    <g clip-path="url(#p15aa61acf7)">
     <use style="fill:#e9e9e9;stroke:#e9e9e9;" x="245.338658" xlink:href="#C0_0_062d184311" y="427.350852"/>
    </g>
    <g clip-path="url(#p15aa61acf7)">
     <use style="fill:#e9e9e9;stroke:#e9e9e9;" x="140.064905" xlink:href="#C0_0_062d184311" y="158.873301"/>
    </g>
    <g clip-path="url(#p15aa61acf7)">
     <use style="fill:#b3b3b3;stroke:#b3b3b3;" x="303.689217" xlink:href="#C0_0_062d184311" y="410.75683"/>
    </g>
    <g clip-path="url(#p15aa61acf7)">
     <use style="fill:#b3b3b3;stroke:#b3b3b3;" x="199.41843" xlink:href="#C0_0_062d184311" y="299.842154"/>
    </g>
    <g clip-path="url(#p15aa61acf7)">
     <use style="fill:#e9e9e9;stroke:#e9e9e9;" x="339.075584" xlink:href="#C0_0_062d184311" y="234.072557"/>
    </g>
    <g clip-path="url(#p15aa61acf7)">
     <use style="fill:#e9e9e9;stroke:#e9e9e9;" x="350.974511" xlink:href="#C0_0_062d184311" y="164.09556"/>
    </g>
    <g clip-path="url(#p15aa61acf7)">
     <use style="fill:#c5c5c5;stroke:#c5c5c5;" x="313.652136" xlink:href="#C0_0_062d184311" y="261.841755"/>
    </g>
    <g clip-path="url(#p15aa61acf7)">
     <use style="fill:#c5c5c5;stroke:#c5c5c5;" x="339.052656" xlink:href="#C0_0_062d184311" y="209.144195"/>
    </g>
    <g clip-path="url(#p15aa61acf7)">
     <use style="fill:#dfdfdf;stroke:#dfdfdf;" x="223.731078" xlink:href="#C0_0_062d184311" y="173.816101"/>
    </g>
    <g clip-path="url(#p15aa61acf7)">
     <use style="fill:#dfdfdf;stroke:#dfdfdf;" x="249.744433" xlink:href="#C0_0_062d184311" y="62.811079"/>
    </g>
    <g clip-path="url(#p15aa61acf7)">
     <use style="fill:#f3f3f3;stroke:#f3f3f3;" x="401.641014" xlink:href="#C0_0_062d184311" y="87.0123"/>
    </g>
    <g clip-path="url(#p15aa61acf7)">
     <use style="fill:#f3f3f3;stroke:#f3f3f3;" x="618.379842" xlink:href="#C0_0_062d184311" y="198.762658"/>
    </g>
    <g clip-path="url(#p15aa61acf7)">
     <use style="fill:#7f7f7f;stroke:#7f7f7f;" x="392.642537" xlink:href="#C0_0_062d184311" y="81.51735"/>
    </g>
   </g>
   <g id="text_1">
    <g clip-path="url(#p15aa61acf7)">
     <!-- PRKCB -->
     <g transform="translate(219.827362 228.320508)scale(0.1 -0.1)">
      <defs>
       <path d="M 19.671875 64.796875 
L 19.671875 37.40625 
L 32.078125 37.40625 
Q 38.96875 37.40625 42.71875 40.96875 
Q 46.484375 44.53125 46.484375 51.125 
Q 46.484375 57.671875 42.71875 61.234375 
Q 38.96875 64.796875 32.078125 64.796875 
z
M 9.8125 72.90625 
L 32.078125 72.90625 
Q 44.34375 72.90625 50.609375 67.359375 
Q 56.890625 61.8125 56.890625 51.125 
Q 56.890625 40.328125 50.609375 34.8125 
Q 44.34375 29.296875 32.078125 29.296875 
L 19.671875 29.296875 
L 19.671875 0 
L 9.8125 0 
z
" id="DejaVuSans-80"/>
       <path d="M 44.390625 34.1875 
Q 47.5625 33.109375 50.5625 29.59375 
Q 53.5625 26.078125 56.59375 19.921875 
L 66.609375 0 
L 56 0 
L 46.6875 18.703125 
Q 43.0625 26.03125 39.671875 28.421875 
Q 36.28125 30.8125 30.421875 30.8125 
L 19.671875 30.8125 
L 19.671875 0 
L 9.8125 0 
L 9.8125 72.90625 
L 32.078125 72.90625 
Q 44.578125 72.90625 50.734375 67.671875 
Q 56.890625 62.453125 56.890625 51.90625 
Q 56.890625 45.015625 53.6875 40.46875 
Q 50.484375 35.9375 44.390625 34.1875 
z
M 19.671875 64.796875 
L 19.671875 38.921875 
L 32.078125 38.921875 
Q 39.203125 38.921875 42.84375 42.21875 
Q 46.484375 45.515625 46.484375 51.90625 
Q 46.484375 58.296875 42.84375 61.546875 
Q 39.203125 64.796875 32.078125 64.796875 
z
" id="DejaVuSans-82"/>
       <path d="M 9.8125 72.90625 
L 19.671875 72.90625 
L 19.671875 42.09375 
L 52.390625 72.90625 
L 65.09375 72.90625 
L 28.90625 38.921875 
L 67.671875 0 
L 54.6875 0 
L 19.671875 35.109375 
L 19.671875 0 
L 9.8125 0 
z
" id="DejaVuSans-75"/>
       <path d="M 64.40625 67.28125 
L 64.40625 56.890625 
Q 59.421875 61.53125 53.78125 63.8125 
Q 48.140625 66.109375 41.796875 66.109375 
Q 29.296875 66.109375 22.65625 58.46875 
Q 16.015625 50.828125 16.015625 36.375 
Q 16.015625 21.96875 22.65625 14.328125 
Q 29.296875 6.6875 41.796875 6.6875 
Q 48.140625 6.6875 53.78125 8.984375 
Q 59.421875 11.28125 64.40625 15.921875 
L 64.40625 5.609375 
Q 59.234375 2.09375 53.4375 0.328125 
Q 47.65625 -1.421875 41.21875 -1.421875 
Q 24.65625 -1.421875 15.125 8.703125 
Q 5.609375 18.84375 5.609375 36.375 
Q 5.609375 53.953125 15.125 64.078125 
Q 24.65625 74.21875 41.21875 74.21875 
Q 47.75 74.21875 53.53125 72.484375 
Q 59.328125 70.75 64.40625 67.28125 
z
" id="DejaVuSans-67"/>
       <path d="M 19.671875 34.8125 
L 19.671875 8.109375 
L 35.5 8.109375 
Q 43.453125 8.109375 47.28125 11.40625 
Q 51.125 14.703125 51.125 21.484375 
Q 51.125 28.328125 47.28125 31.5625 
Q 43.453125 34.8125 35.5 34.8125 
z
M 19.671875 64.796875 
L 19.671875 42.828125 
L 34.28125 42.828125 
Q 41.5 42.828125 45.03125 45.53125 
Q 48.578125 48.25 48.578125 53.8125 
Q 48.578125 59.328125 45.03125 62.0625 
Q 41.5 64.796875 34.28125 64.796875 
z
M 9.8125 72.90625 
L 35.015625 72.90625 
Q 46.296875 72.90625 52.390625 68.21875 
Q 58.5 63.53125 58.5 54.890625 
Q 58.5 48.1875 55.375 44.234375 
Q 52.25 40.28125 46.1875 39.3125 
Q 53.46875 37.75 57.5 32.78125 
Q 61.53125 27.828125 61.53125 20.40625 
Q 61.53125 10.640625 54.890625 5.3125 
Q 48.25 0 35.984375 0 
L 9.8125 0 
z
" id="DejaVuSans-66"/>
      </defs>
      <use xlink:href="#DejaVuSans-80"/>
      <use x="60.302734" xlink:href="#DejaVuSans-82"/>
      <use x="129.785156" xlink:href="#DejaVuSans-75"/>
      <use x="189.861328" xlink:href="#DejaVuSans-67"/>
      <use x="259.685547" xlink:href="#DejaVuSans-66"/>
     </g>
    </g>
   </g>
   <g id="text_2">
    <g clip-path="url(#p15aa61acf7)">
     <!-- NCF1 -->
     <g transform="translate(395.780387 222.599043)scale(0.1 -0.1)">
      <defs>
       <path d="M 9.8125 72.90625 
L 23.09375 72.90625 
L 55.421875 11.921875 
L 55.421875 72.90625 
L 64.984375 72.90625 
L 64.984375 0 
L 51.703125 0 
L 19.390625 60.984375 
L 19.390625 0 
L 9.8125 0 
z
" id="DejaVuSans-78"/>
       <path d="M 9.8125 72.90625 
L 51.703125 72.90625 
L 51.703125 64.59375 
L 19.671875 64.59375 
L 19.671875 43.109375 
L 48.578125 43.109375 
L 48.578125 34.8125 
L 19.671875 34.8125 
L 19.671875 0 
L 9.8125 0 
z
" id="DejaVuSans-70"/>
       <path d="M 12.40625 8.296875 
L 28.515625 8.296875 
L 28.515625 63.921875 
L 10.984375 60.40625 
L 10.984375 69.390625 
L 28.421875 72.90625 
L 38.28125 72.90625 
L 38.28125 8.296875 
L 54.390625 8.296875 
L 54.390625 0 
L 12.40625 0 
z
" id="DejaVuSans-49"/>
      </defs>
      <use xlink:href="#DejaVuSans-78"/>
      <use x="74.804688" xlink:href="#DejaVuSans-67"/>
      <use x="144.628906" xlink:href="#DejaVuSans-70"/>
      <use x="202.148438" xlink:href="#DejaVuSans-49"/>
     </g>
    </g>
   </g>
   <g id="text_3">
    <g clip-path="url(#p15aa61acf7)">
     <!-- IFNG -->
     <g transform="translate(187.085239 200.108741)scale(0.1 -0.1)">
      <defs>
       <path d="M 9.8125 72.90625 
L 19.671875 72.90625 
L 19.671875 0 
L 9.8125 0 
z
" id="DejaVuSans-73"/>
       <path d="M 59.515625 10.40625 
L 59.515625 29.984375 
L 43.40625 29.984375 
L 43.40625 38.09375 
L 69.28125 38.09375 
L 69.28125 6.78125 
Q 63.578125 2.734375 56.6875 0.65625 
Q 49.8125 -1.421875 42 -1.421875 
Q 24.90625 -1.421875 15.25 8.5625 
Q 5.609375 18.5625 5.609375 36.375 
Q 5.609375 54.25 15.25 64.234375 
Q 24.90625 74.21875 42 74.21875 
Q 49.125 74.21875 55.546875 72.453125 
Q 61.96875 70.703125 67.390625 67.28125 
L 67.390625 56.78125 
Q 61.921875 61.421875 55.765625 63.765625 
Q 49.609375 66.109375 42.828125 66.109375 
Q 29.4375 66.109375 22.71875 58.640625 
Q 16.015625 51.171875 16.015625 36.375 
Q 16.015625 21.625 22.71875 14.15625 
Q 29.4375 6.6875 42.828125 6.6875 
Q 48.046875 6.6875 52.140625 7.59375 
Q 56.25 8.5 59.515625 10.40625 
z
" id="DejaVuSans-71"/>
      </defs>
      <use xlink:href="#DejaVuSans-73"/>
      <use x="29.492188" xlink:href="#DejaVuSans-70"/>
      <use x="87.011719" xlink:href="#DejaVuSans-78"/>
      <use x="161.816406" xlink:href="#DejaVuSans-71"/>
     </g>
    </g>
   </g>
   <g id="text_4">
    <g clip-path="url(#p15aa61acf7)">
     <!-- STAT1 -->
     <g transform="translate(603.585621 219.585231)scale(0.1 -0.1)">
      <defs>
       <path d="M 53.515625 70.515625 
L 53.515625 60.890625 
Q 47.90625 63.578125 42.921875 64.890625 
Q 37.9375 66.21875 33.296875 66.21875 
Q 25.25 66.21875 20.875 63.09375 
Q 16.5 59.96875 16.5 54.203125 
Q 16.5 49.359375 19.40625 46.890625 
Q 22.3125 44.4375 30.421875 42.921875 
L 36.375 41.703125 
Q 47.40625 39.59375 52.65625 34.296875 
Q 57.90625 29 57.90625 20.125 
Q 57.90625 9.515625 50.796875 4.046875 
Q 43.703125 -1.421875 29.984375 -1.421875 
Q 24.8125 -1.421875 18.96875 -0.25 
Q 13.140625 0.921875 6.890625 3.21875 
L 6.890625 13.375 
Q 12.890625 10.015625 18.65625 8.296875 
Q 24.421875 6.59375 29.984375 6.59375 
Q 38.421875 6.59375 43.015625 9.90625 
Q 47.609375 13.234375 47.609375 19.390625 
Q 47.609375 24.75 44.3125 27.78125 
Q 41.015625 30.8125 33.5 32.328125 
L 27.484375 33.5 
Q 16.453125 35.6875 11.515625 40.375 
Q 6.59375 45.0625 6.59375 53.421875 
Q 6.59375 63.09375 13.40625 68.65625 
Q 20.21875 74.21875 32.171875 74.21875 
Q 37.3125 74.21875 42.625 73.28125 
Q 47.953125 72.359375 53.515625 70.515625 
z
" id="DejaVuSans-83"/>
       <path d="M -0.296875 72.90625 
L 61.375 72.90625 
L 61.375 64.59375 
L 35.5 64.59375 
L 35.5 0 
L 25.59375 0 
L 25.59375 64.59375 
L -0.296875 64.59375 
z
" id="DejaVuSans-84"/>
       <path d="M 34.1875 63.1875 
L 20.796875 26.90625 
L 47.609375 26.90625 
z
M 28.609375 72.90625 
L 39.796875 72.90625 
L 67.578125 0 
L 57.328125 0 
L 50.6875 18.703125 
L 17.828125 18.703125 
L 11.1875 0 
L 0.78125 0 
z
" id="DejaVuSans-65"/>
      </defs>
      <use xlink:href="#DejaVuSans-83"/>
      <use x="63.476562" xlink:href="#DejaVuSans-84"/>
      <use x="116.810547" xlink:href="#DejaVuSans-65"/>
      <use x="177.46875" xlink:href="#DejaVuSans-84"/>
      <use x="238.552734" xlink:href="#DejaVuSans-49"/>
     </g>
    </g>
   </g>
   <g id="text_5">
    <g clip-path="url(#p15aa61acf7)">
     <!-- MYD88 -->
     <g transform="translate(412.554813 296.305602)scale(0.1 -0.1)">
      <defs>
       <path d="M 9.8125 72.90625 
L 24.515625 72.90625 
L 43.109375 23.296875 
L 61.8125 72.90625 
L 76.515625 72.90625 
L 76.515625 0 
L 66.890625 0 
L 66.890625 64.015625 
L 48.09375 14.015625 
L 38.1875 14.015625 
L 19.390625 64.015625 
L 19.390625 0 
L 9.8125 0 
z
" id="DejaVuSans-77"/>
       <path d="M -0.203125 72.90625 
L 10.40625 72.90625 
L 30.609375 42.921875 
L 50.6875 72.90625 
L 61.28125 72.90625 
L 35.5 34.71875 
L 35.5 0 
L 25.59375 0 
L 25.59375 34.71875 
z
" id="DejaVuSans-89"/>
       <path d="M 19.671875 64.796875 
L 19.671875 8.109375 
L 31.59375 8.109375 
Q 46.6875 8.109375 53.6875 14.9375 
Q 60.6875 21.78125 60.6875 36.53125 
Q 60.6875 51.171875 53.6875 57.984375 
Q 46.6875 64.796875 31.59375 64.796875 
z
M 9.8125 72.90625 
L 30.078125 72.90625 
Q 51.265625 72.90625 61.171875 64.09375 
Q 71.09375 55.28125 71.09375 36.53125 
Q 71.09375 17.671875 61.125 8.828125 
Q 51.171875 0 30.078125 0 
L 9.8125 0 
z
" id="DejaVuSans-68"/>
       <path d="M 31.78125 34.625 
Q 24.75 34.625 20.71875 30.859375 
Q 16.703125 27.09375 16.703125 20.515625 
Q 16.703125 13.921875 20.71875 10.15625 
Q 24.75 6.390625 31.78125 6.390625 
Q 38.8125 6.390625 42.859375 10.171875 
Q 46.921875 13.96875 46.921875 20.515625 
Q 46.921875 27.09375 42.890625 30.859375 
Q 38.875 34.625 31.78125 34.625 
z
M 21.921875 38.8125 
Q 15.578125 40.375 12.03125 44.71875 
Q 8.5 49.078125 8.5 55.328125 
Q 8.5 64.0625 14.71875 69.140625 
Q 20.953125 74.21875 31.78125 74.21875 
Q 42.671875 74.21875 48.875 69.140625 
Q 55.078125 64.0625 55.078125 55.328125 
Q 55.078125 49.078125 51.53125 44.71875 
Q 48 40.375 41.703125 38.8125 
Q 48.828125 37.15625 52.796875 32.3125 
Q 56.78125 27.484375 56.78125 20.515625 
Q 56.78125 9.90625 50.3125 4.234375 
Q 43.84375 -1.421875 31.78125 -1.421875 
Q 19.734375 -1.421875 13.25 4.234375 
Q 6.78125 9.90625 6.78125 20.515625 
Q 6.78125 27.484375 10.78125 32.3125 
Q 14.796875 37.15625 21.921875 38.8125 
z
M 18.3125 54.390625 
Q 18.3125 48.734375 21.84375 45.5625 
Q 25.390625 42.390625 31.78125 42.390625 
Q 38.140625 42.390625 41.71875 45.5625 
Q 45.3125 48.734375 45.3125 54.390625 
Q 45.3125 60.0625 41.71875 63.234375 
Q 38.140625 66.40625 31.78125 66.40625 
Q 25.390625 66.40625 21.84375 63.234375 
Q 18.3125 60.0625 18.3125 54.390625 
z
" id="DejaVuSans-56"/>
      </defs>
      <use xlink:href="#DejaVuSans-77"/>
      <use x="86.279297" xlink:href="#DejaVuSans-89"/>
      <use x="147.363281" xlink:href="#DejaVuSans-68"/>
      <use x="224.365234" xlink:href="#DejaVuSans-56"/>
      <use x="287.988281" xlink:href="#DejaVuSans-56"/>
     </g>
    </g>
   </g>
   <g id="text_6">
    <g clip-path="url(#p15aa61acf7)">
     <!-- TNF -->
     <g transform="translate(423.848413 63.564773)scale(0.1 -0.1)">
      <use xlink:href="#DejaVuSans-84"/>
      <use x="61.083984" xlink:href="#DejaVuSans-78"/>
      <use x="135.888672" xlink:href="#DejaVuSans-70"/>
     </g>
    </g>
   </g>
   <g id="text_7">
    <g clip-path="url(#p15aa61acf7)">
     <!-- PTPN6 -->
     <g transform="translate(112.690205 126.600647)scale(0.1 -0.1)">
      <defs>
       <path d="M 33.015625 40.375 
Q 26.375 40.375 22.484375 35.828125 
Q 18.609375 31.296875 18.609375 23.390625 
Q 18.609375 15.53125 22.484375 10.953125 
Q 26.375 6.390625 33.015625 6.390625 
Q 39.65625 6.390625 43.53125 10.953125 
Q 47.40625 15.53125 47.40625 23.390625 
Q 47.40625 31.296875 43.53125 35.828125 
Q 39.65625 40.375 33.015625 40.375 
z
M 52.59375 71.296875 
L 52.59375 62.3125 
Q 48.875 64.0625 45.09375 64.984375 
Q 41.3125 65.921875 37.59375 65.921875 
Q 27.828125 65.921875 22.671875 59.328125 
Q 17.53125 52.734375 16.796875 39.40625 
Q 19.671875 43.65625 24.015625 45.921875 
Q 28.375 48.1875 33.59375 48.1875 
Q 44.578125 48.1875 50.953125 41.515625 
Q 57.328125 34.859375 57.328125 23.390625 
Q 57.328125 12.15625 50.6875 5.359375 
Q 44.046875 -1.421875 33.015625 -1.421875 
Q 20.359375 -1.421875 13.671875 8.265625 
Q 6.984375 17.96875 6.984375 36.375 
Q 6.984375 53.65625 15.1875 63.9375 
Q 23.390625 74.21875 37.203125 74.21875 
Q 40.921875 74.21875 44.703125 73.484375 
Q 48.484375 72.75 52.59375 71.296875 
z
" id="DejaVuSans-54"/>
      </defs>
      <use xlink:href="#DejaVuSans-80"/>
      <use x="60.302734" xlink:href="#DejaVuSans-84"/>
      <use x="121.386719" xlink:href="#DejaVuSans-80"/>
      <use x="181.689453" xlink:href="#DejaVuSans-78"/>
      <use x="256.494141" xlink:href="#DejaVuSans-54"/>
     </g>
    </g>
   </g>
   <g id="text_8">
    <g clip-path="url(#p15aa61acf7)">
     <!-- ELK1 -->
     <g transform="translate(375.301968 380.348191)scale(0.1 -0.1)">
      <defs>
       <path d="M 9.8125 72.90625 
L 55.90625 72.90625 
L 55.90625 64.59375 
L 19.671875 64.59375 
L 19.671875 43.015625 
L 54.390625 43.015625 
L 54.390625 34.71875 
L 19.671875 34.71875 
L 19.671875 8.296875 
L 56.78125 8.296875 
L 56.78125 0 
L 9.8125 0 
z
" id="DejaVuSans-69"/>
       <path d="M 9.8125 72.90625 
L 19.671875 72.90625 
L 19.671875 8.296875 
L 55.171875 8.296875 
L 55.171875 0 
L 9.8125 0 
z
" id="DejaVuSans-76"/>
      </defs>
      <use xlink:href="#DejaVuSans-69"/>
      <use x="63.183594" xlink:href="#DejaVuSans-76"/>
      <use x="118.896484" xlink:href="#DejaVuSans-75"/>
      <use x="184.472656" xlink:href="#DejaVuSans-49"/>
     </g>
    </g>
   </g>
   <g id="text_9">
    <g clip-path="url(#p15aa61acf7)">
     <!-- FOS -->
     <g transform="translate(55.319848 385.284102)scale(0.1 -0.1)">
      <defs>
       <path d="M 39.40625 66.21875 
Q 28.65625 66.21875 22.328125 58.203125 
Q 16.015625 50.203125 16.015625 36.375 
Q 16.015625 22.609375 22.328125 14.59375 
Q 28.65625 6.59375 39.40625 6.59375 
Q 50.140625 6.59375 56.421875 14.59375 
Q 62.703125 22.609375 62.703125 36.375 
Q 62.703125 50.203125 56.421875 58.203125 
Q 50.140625 66.21875 39.40625 66.21875 
z
M 39.40625 74.21875 
Q 54.734375 74.21875 63.90625 63.9375 
Q 73.09375 53.65625 73.09375 36.375 
Q 73.09375 19.140625 63.90625 8.859375 
Q 54.734375 -1.421875 39.40625 -1.421875 
Q 24.03125 -1.421875 14.8125 8.828125 
Q 5.609375 19.09375 5.609375 36.375 
Q 5.609375 53.65625 14.8125 63.9375 
Q 24.03125 74.21875 39.40625 74.21875 
z
" id="DejaVuSans-79"/>
      </defs>
      <use xlink:href="#DejaVuSans-70"/>
      <use x="57.519531" xlink:href="#DejaVuSans-79"/>
      <use x="136.230469" xlink:href="#DejaVuSans-83"/>
     </g>
    </g>
   </g>
   <g id="text_10">
    <g clip-path="url(#p15aa61acf7)">
     <!-- MARCKSL1 -->
     <g transform="translate(541.915015 160.552803)scale(0.1 -0.1)">
      <use xlink:href="#DejaVuSans-77"/>
      <use x="86.279297" xlink:href="#DejaVuSans-65"/>
      <use x="154.6875" xlink:href="#DejaVuSans-82"/>
      <use x="219.169922" xlink:href="#DejaVuSans-67"/>
      <use x="288.994141" xlink:href="#DejaVuSans-75"/>
      <use x="354.570312" xlink:href="#DejaVuSans-83"/>
      <use x="418.046875" xlink:href="#DejaVuSans-76"/>
      <use x="473.759766" xlink:href="#DejaVuSans-49"/>
     </g>
    </g>
   </g>
   <g id="text_11">
    <g clip-path="url(#p15aa61acf7)">
     <!-- TRAF6 -->
     <g transform="translate(583.059376 330.09411)scale(0.1 -0.1)">
      <use xlink:href="#DejaVuSans-84"/>
      <use x="61.083984" xlink:href="#DejaVuSans-82"/>
      <use x="126.566406" xlink:href="#DejaVuSans-65"/>
      <use x="194.974609" xlink:href="#DejaVuSans-70"/>
      <use x="252.494141" xlink:href="#DejaVuSans-54"/>
     </g>
    </g>
   </g>
   <g id="text_12">
    <g clip-path="url(#p15aa61acf7)">
     <!-- MAP3K7 -->
     <g transform="translate(401.970039 237.619972)scale(0.1 -0.1)">
      <defs>
       <path d="M 40.578125 39.3125 
Q 47.65625 37.796875 51.625 33 
Q 55.609375 28.21875 55.609375 21.1875 
Q 55.609375 10.40625 48.1875 4.484375 
Q 40.765625 -1.421875 27.09375 -1.421875 
Q 22.515625 -1.421875 17.65625 -0.515625 
Q 12.796875 0.390625 7.625 2.203125 
L 7.625 11.71875 
Q 11.71875 9.328125 16.59375 8.109375 
Q 21.484375 6.890625 26.8125 6.890625 
Q 36.078125 6.890625 40.9375 10.546875 
Q 45.796875 14.203125 45.796875 21.1875 
Q 45.796875 27.640625 41.28125 31.265625 
Q 36.765625 34.90625 28.71875 34.90625 
L 20.21875 34.90625 
L 20.21875 43.015625 
L 29.109375 43.015625 
Q 36.375 43.015625 40.234375 45.921875 
Q 44.09375 48.828125 44.09375 54.296875 
Q 44.09375 59.90625 40.109375 62.90625 
Q 36.140625 65.921875 28.71875 65.921875 
Q 24.65625 65.921875 20.015625 65.03125 
Q 15.375 64.15625 9.8125 62.3125 
L 9.8125 71.09375 
Q 15.4375 72.65625 20.34375 73.4375 
Q 25.25 74.21875 29.59375 74.21875 
Q 40.828125 74.21875 47.359375 69.109375 
Q 53.90625 64.015625 53.90625 55.328125 
Q 53.90625 49.265625 50.4375 45.09375 
Q 46.96875 40.921875 40.578125 39.3125 
z
" id="DejaVuSans-51"/>
       <path d="M 8.203125 72.90625 
L 55.078125 72.90625 
L 55.078125 68.703125 
L 28.609375 0 
L 18.3125 0 
L 43.21875 64.59375 
L 8.203125 64.59375 
z
" id="DejaVuSans-55"/>
      </defs>
      <use xlink:href="#DejaVuSans-77"/>
      <use x="86.279297" xlink:href="#DejaVuSans-65"/>
      <use x="154.6875" xlink:href="#DejaVuSans-80"/>
      <use x="214.990234" xlink:href="#DejaVuSans-51"/>
      <use x="278.613281" xlink:href="#DejaVuSans-75"/>
      <use x="344.189453" xlink:href="#DejaVuSans-55"/>
     </g>
    </g>
   </g>
   <g id="text_13">
    <g clip-path="url(#p15aa61acf7)">
     <!-- IFNGR1 -->
     <g transform="translate(481.842338 126.449373)scale(0.1 -0.1)">
      <use xlink:href="#DejaVuSans-73"/>
      <use x="29.492188" xlink:href="#DejaVuSans-70"/>
      <use x="87.011719" xlink:href="#DejaVuSans-78"/>
      <use x="161.816406" xlink:href="#DejaVuSans-71"/>
      <use x="239.306641" xlink:href="#DejaVuSans-82"/>
      <use x="308.789062" xlink:href="#DejaVuSans-49"/>
     </g>
    </g>
   </g>
   <g id="text_14">
    <g clip-path="url(#p15aa61acf7)">
     <!-- IFNGR2 -->
     <g transform="translate(299.944901 286.56486)scale(0.1 -0.1)">
      <defs>
       <path d="M 19.1875 8.296875 
L 53.609375 8.296875 
L 53.609375 0 
L 7.328125 0 
L 7.328125 8.296875 
Q 12.9375 14.109375 22.625 23.890625 
Q 32.328125 33.6875 34.8125 36.53125 
Q 39.546875 41.84375 41.421875 45.53125 
Q 43.3125 49.21875 43.3125 52.78125 
Q 43.3125 58.59375 39.234375 62.25 
Q 35.15625 65.921875 28.609375 65.921875 
Q 23.96875 65.921875 18.8125 64.3125 
Q 13.671875 62.703125 7.8125 59.421875 
L 7.8125 69.390625 
Q 13.765625 71.78125 18.9375 73 
Q 24.125 74.21875 28.421875 74.21875 
Q 39.75 74.21875 46.484375 68.546875 
Q 53.21875 62.890625 53.21875 53.421875 
Q 53.21875 48.921875 51.53125 44.890625 
Q 49.859375 40.875 45.40625 35.40625 
Q 44.1875 33.984375 37.640625 27.21875 
Q 31.109375 20.453125 19.1875 8.296875 
z
" id="DejaVuSans-50"/>
      </defs>
      <use xlink:href="#DejaVuSans-73"/>
      <use x="29.492188" xlink:href="#DejaVuSans-70"/>
      <use x="87.011719" xlink:href="#DejaVuSans-78"/>
      <use x="161.816406" xlink:href="#DejaVuSans-71"/>
      <use x="239.306641" xlink:href="#DejaVuSans-82"/>
      <use x="308.789062" xlink:href="#DejaVuSans-50"/>
     </g>
    </g>
   </g>
   <g id="text_15">
    <g clip-path="url(#p15aa61acf7)">
     <!-- CYBA -->
     <g transform="translate(130.106382 417.376447)scale(0.1 -0.1)">
      <use xlink:href="#DejaVuSans-67"/>
      <use x="68.074219" xlink:href="#DejaVuSans-89"/>
      <use x="129.158203" xlink:href="#DejaVuSans-66"/>
      <use x="197.761719" xlink:href="#DejaVuSans-65"/>
     </g>
    </g>
   </g>
   <g id="text_16">
    <g clip-path="url(#p15aa61acf7)">
     <!-- NCF2 -->
     <g transform="translate(232.049595 430.110227)scale(0.1 -0.1)">
      <use xlink:href="#DejaVuSans-78"/>
      <use x="74.804688" xlink:href="#DejaVuSans-67"/>
      <use x="144.628906" xlink:href="#DejaVuSans-70"/>
      <use x="202.148438" xlink:href="#DejaVuSans-50"/>
     </g>
    </g>
   </g>
   <g id="text_17">
    <g clip-path="url(#p15aa61acf7)">
     <!-- NCF4 -->
     <g transform="translate(126.775843 161.632676)scale(0.1 -0.1)">
      <defs>
       <path d="M 37.796875 64.3125 
L 12.890625 25.390625 
L 37.796875 25.390625 
z
M 35.203125 72.90625 
L 47.609375 72.90625 
L 47.609375 25.390625 
L 58.015625 25.390625 
L 58.015625 17.1875 
L 47.609375 17.1875 
L 47.609375 0 
L 37.796875 0 
L 37.796875 17.1875 
L 4.890625 17.1875 
L 4.890625 26.703125 
z
" id="DejaVuSans-52"/>
      </defs>
      <use xlink:href="#DejaVuSans-78"/>
      <use x="74.804688" xlink:href="#DejaVuSans-67"/>
      <use x="144.628906" xlink:href="#DejaVuSans-70"/>
      <use x="202.148438" xlink:href="#DejaVuSans-52"/>
     </g>
    </g>
   </g>
   <g id="text_18">
    <g clip-path="url(#p15aa61acf7)">
     <!-- FCGR1A -->
     <g transform="translate(283.37203 413.516205)scale(0.1 -0.1)">
      <use xlink:href="#DejaVuSans-70"/>
      <use x="57.519531" xlink:href="#DejaVuSans-67"/>
      <use x="127.34375" xlink:href="#DejaVuSans-71"/>
      <use x="204.833984" xlink:href="#DejaVuSans-82"/>
      <use x="274.316406" xlink:href="#DejaVuSans-49"/>
      <use x="337.939453" xlink:href="#DejaVuSans-65"/>
     </g>
    </g>
   </g>
   <g id="text_19">
    <g clip-path="url(#p15aa61acf7)">
     <!-- FCGR2A -->
     <g transform="translate(179.101243 302.601529)scale(0.1 -0.1)">
      <use xlink:href="#DejaVuSans-70"/>
      <use x="57.519531" xlink:href="#DejaVuSans-67"/>
      <use x="127.34375" xlink:href="#DejaVuSans-71"/>
      <use x="204.833984" xlink:href="#DejaVuSans-82"/>
      <use x="274.316406" xlink:href="#DejaVuSans-50"/>
      <use x="337.939453" xlink:href="#DejaVuSans-65"/>
     </g>
    </g>
   </g>
   <g id="text_20">
    <g clip-path="url(#p15aa61acf7)">
     <!-- JAK1 -->
     <g transform="translate(327.807615 236.831932)scale(0.1 -0.1)">
      <defs>
       <path d="M 9.8125 72.90625 
L 19.671875 72.90625 
L 19.671875 5.078125 
Q 19.671875 -8.109375 14.671875 -14.0625 
Q 9.671875 -20.015625 -1.421875 -20.015625 
L -5.171875 -20.015625 
L -5.171875 -11.71875 
L -2.09375 -11.71875 
Q 4.4375 -11.71875 7.125 -8.046875 
Q 9.8125 -4.390625 9.8125 5.078125 
z
" id="DejaVuSans-74"/>
      </defs>
      <use xlink:href="#DejaVuSans-74"/>
      <use x="27.742188" xlink:href="#DejaVuSans-65"/>
      <use x="96.150391" xlink:href="#DejaVuSans-75"/>
      <use x="161.726562" xlink:href="#DejaVuSans-49"/>
     </g>
    </g>
   </g>
   <g id="text_21">
    <g clip-path="url(#p15aa61acf7)">
     <!-- JAK2 -->
     <g transform="translate(339.706542 166.854935)scale(0.1 -0.1)">
      <use xlink:href="#DejaVuSans-74"/>
      <use x="27.742188" xlink:href="#DejaVuSans-65"/>
      <use x="96.150391" xlink:href="#DejaVuSans-75"/>
      <use x="161.726562" xlink:href="#DejaVuSans-50"/>
     </g>
    </g>
   </g>
   <g id="text_22">
    <g clip-path="url(#p15aa61acf7)">
     <!-- NFKBIB -->
     <g transform="translate(295.420886 264.60113)scale(0.1 -0.1)">
      <use xlink:href="#DejaVuSans-78"/>
      <use x="74.804688" xlink:href="#DejaVuSans-70"/>
      <use x="132.324219" xlink:href="#DejaVuSans-75"/>
      <use x="197.900391" xlink:href="#DejaVuSans-66"/>
      <use x="266.503906" xlink:href="#DejaVuSans-73"/>
      <use x="295.996094" xlink:href="#DejaVuSans-66"/>
     </g>
    </g>
   </g>
   <g id="text_23">
    <g clip-path="url(#p15aa61acf7)">
     <!-- NFKBIA -->
     <g transform="translate(320.831562 211.90357)scale(0.1 -0.1)">
      <use xlink:href="#DejaVuSans-78"/>
      <use x="74.804688" xlink:href="#DejaVuSans-70"/>
      <use x="132.324219" xlink:href="#DejaVuSans-75"/>
      <use x="197.900391" xlink:href="#DejaVuSans-66"/>
      <use x="266.503906" xlink:href="#DejaVuSans-73"/>
      <use x="295.996094" xlink:href="#DejaVuSans-65"/>
     </g>
    </g>
   </g>
   <g id="text_24">
    <g clip-path="url(#p15aa61acf7)">
     <!-- NFKB1 -->
     <g transform="translate(207.224047 176.575476)scale(0.1 -0.1)">
      <use xlink:href="#DejaVuSans-78"/>
      <use x="74.804688" xlink:href="#DejaVuSans-70"/>
      <use x="132.324219" xlink:href="#DejaVuSans-75"/>
      <use x="197.900391" xlink:href="#DejaVuSans-66"/>
      <use x="266.503906" xlink:href="#DejaVuSans-49"/>
     </g>
    </g>
   </g>
   <g id="text_25">
    <g clip-path="url(#p15aa61acf7)">
     <!-- RELA -->
     <g transform="translate(236.792089 65.570454)scale(0.1 -0.1)">
      <use xlink:href="#DejaVuSans-82"/>
      <use x="69.482422" xlink:href="#DejaVuSans-69"/>
      <use x="132.666016" xlink:href="#DejaVuSans-76"/>
      <use x="190.628906" xlink:href="#DejaVuSans-65"/>
     </g>
    </g>
   </g>
   <g id="text_26">
    <g clip-path="url(#p15aa61acf7)">
     <!-- IL12A -->
     <g transform="translate(387.597264 89.771675)scale(0.1 -0.1)">
      <use xlink:href="#DejaVuSans-73"/>
      <use x="29.492188" xlink:href="#DejaVuSans-76"/>
      <use x="85.205078" xlink:href="#DejaVuSans-49"/>
      <use x="148.828125" xlink:href="#DejaVuSans-50"/>
      <use x="212.451172" xlink:href="#DejaVuSans-65"/>
     </g>
    </g>
   </g>
   <g id="text_27">
    <g clip-path="url(#p15aa61acf7)">
     <!-- IRAK1 -->
     <g transform="translate(603.750155 201.522033)scale(0.1 -0.1)">
      <use xlink:href="#DejaVuSans-73"/>
      <use x="29.492188" xlink:href="#DejaVuSans-82"/>
      <use x="94.974609" xlink:href="#DejaVuSans-65"/>
      <use x="163.382812" xlink:href="#DejaVuSans-75"/>
      <use x="228.958984" xlink:href="#DejaVuSans-49"/>
     </g>
    </g>
   </g>
   <g id="text_28">
    <g clip-path="url(#p15aa61acf7)">
     <!-- IRAK4 -->
     <g transform="translate(378.01285 84.276725)scale(0.1 -0.1)">
      <use xlink:href="#DejaVuSans-73"/>
      <use x="29.492188" xlink:href="#DejaVuSans-82"/>
      <use x="94.974609" xlink:href="#DejaVuSans-65"/>
      <use x="163.382812" xlink:href="#DejaVuSans-75"/>
      <use x="228.958984" xlink:href="#DejaVuSans-52"/>
     </g>
    </g>
   </g>
   <g id="text_29">
    <!-- Importance Score for Each Node in the Network -->
    <g transform="translate(198.616875 16.318125)scale(0.12 -0.12)">
     <defs>
      <path d="M 52 44.1875 
Q 55.375 50.25 60.0625 53.125 
Q 64.75 56 71.09375 56 
Q 79.640625 56 84.28125 50.015625 
Q 88.921875 44.046875 88.921875 33.015625 
L 88.921875 0 
L 79.890625 0 
L 79.890625 32.71875 
Q 79.890625 40.578125 77.09375 44.375 
Q 74.3125 48.1875 68.609375 48.1875 
Q 61.625 48.1875 57.5625 43.546875 
Q 53.515625 38.921875 53.515625 30.90625 
L 53.515625 0 
L 44.484375 0 
L 44.484375 32.71875 
Q 44.484375 40.625 41.703125 44.40625 
Q 38.921875 48.1875 33.109375 48.1875 
Q 26.21875 48.1875 22.15625 43.53125 
Q 18.109375 38.875 18.109375 30.90625 
L 18.109375 0 
L 9.078125 0 
L 9.078125 54.6875 
L 18.109375 54.6875 
L 18.109375 46.1875 
Q 21.1875 51.21875 25.484375 53.609375 
Q 29.78125 56 35.6875 56 
Q 41.65625 56 45.828125 52.96875 
Q 50 49.953125 52 44.1875 
z
" id="DejaVuSans-109"/>
      <path d="M 18.109375 8.203125 
L 18.109375 -20.796875 
L 9.078125 -20.796875 
L 9.078125 54.6875 
L 18.109375 54.6875 
L 18.109375 46.390625 
Q 20.953125 51.265625 25.265625 53.625 
Q 29.59375 56 35.59375 56 
Q 45.5625 56 51.78125 48.09375 
Q 58.015625 40.1875 58.015625 27.296875 
Q 58.015625 14.40625 51.78125 6.484375 
Q 45.5625 -1.421875 35.59375 -1.421875 
Q 29.59375 -1.421875 25.265625 0.953125 
Q 20.953125 3.328125 18.109375 8.203125 
z
M 48.6875 27.296875 
Q 48.6875 37.203125 44.609375 42.84375 
Q 40.53125 48.484375 33.40625 48.484375 
Q 26.265625 48.484375 22.1875 42.84375 
Q 18.109375 37.203125 18.109375 27.296875 
Q 18.109375 17.390625 22.1875 11.75 
Q 26.265625 6.109375 33.40625 6.109375 
Q 40.53125 6.109375 44.609375 11.75 
Q 48.6875 17.390625 48.6875 27.296875 
z
" id="DejaVuSans-112"/>
      <path d="M 30.609375 48.390625 
Q 23.390625 48.390625 19.1875 42.75 
Q 14.984375 37.109375 14.984375 27.296875 
Q 14.984375 17.484375 19.15625 11.84375 
Q 23.34375 6.203125 30.609375 6.203125 
Q 37.796875 6.203125 41.984375 11.859375 
Q 46.1875 17.53125 46.1875 27.296875 
Q 46.1875 37.015625 41.984375 42.703125 
Q 37.796875 48.390625 30.609375 48.390625 
z
M 30.609375 56 
Q 42.328125 56 49.015625 48.375 
Q 55.71875 40.765625 55.71875 27.296875 
Q 55.71875 13.875 49.015625 6.21875 
Q 42.328125 -1.421875 30.609375 -1.421875 
Q 18.84375 -1.421875 12.171875 6.21875 
Q 5.515625 13.875 5.515625 27.296875 
Q 5.515625 40.765625 12.171875 48.375 
Q 18.84375 56 30.609375 56 
z
" id="DejaVuSans-111"/>
      <path d="M 41.109375 46.296875 
Q 39.59375 47.171875 37.8125 47.578125 
Q 36.03125 48 33.890625 48 
Q 26.265625 48 22.1875 43.046875 
Q 18.109375 38.09375 18.109375 28.8125 
L 18.109375 0 
L 9.078125 0 
L 9.078125 54.6875 
L 18.109375 54.6875 
L 18.109375 46.1875 
Q 20.953125 51.171875 25.484375 53.578125 
Q 30.03125 56 36.53125 56 
Q 37.453125 56 38.578125 55.875 
Q 39.703125 55.765625 41.0625 55.515625 
z
" id="DejaVuSans-114"/>
      <path d="M 18.3125 70.21875 
L 18.3125 54.6875 
L 36.8125 54.6875 
L 36.8125 47.703125 
L 18.3125 47.703125 
L 18.3125 18.015625 
Q 18.3125 11.328125 20.140625 9.421875 
Q 21.96875 7.515625 27.59375 7.515625 
L 36.8125 7.515625 
L 36.8125 0 
L 27.59375 0 
Q 17.1875 0 13.234375 3.875 
Q 9.28125 7.765625 9.28125 18.015625 
L 9.28125 47.703125 
L 2.6875 47.703125 
L 2.6875 54.6875 
L 9.28125 54.6875 
L 9.28125 70.21875 
z
" id="DejaVuSans-116"/>
      <path d="M 34.28125 27.484375 
Q 23.390625 27.484375 19.1875 25 
Q 14.984375 22.515625 14.984375 16.5 
Q 14.984375 11.71875 18.140625 8.90625 
Q 21.296875 6.109375 26.703125 6.109375 
Q 34.1875 6.109375 38.703125 11.40625 
Q 43.21875 16.703125 43.21875 25.484375 
L 43.21875 27.484375 
z
M 52.203125 31.203125 
L 52.203125 0 
L 43.21875 0 
L 43.21875 8.296875 
Q 40.140625 3.328125 35.546875 0.953125 
Q 30.953125 -1.421875 24.3125 -1.421875 
Q 15.921875 -1.421875 10.953125 3.296875 
Q 6 8.015625 6 15.921875 
Q 6 25.140625 12.171875 29.828125 
Q 18.359375 34.515625 30.609375 34.515625 
L 43.21875 34.515625 
L 43.21875 35.40625 
Q 43.21875 41.609375 39.140625 45 
Q 35.0625 48.390625 27.6875 48.390625 
Q 23 48.390625 18.546875 47.265625 
Q 14.109375 46.140625 10.015625 43.890625 
L 10.015625 52.203125 
Q 14.9375 54.109375 19.578125 55.046875 
Q 24.21875 56 28.609375 56 
Q 40.484375 56 46.34375 49.84375 
Q 52.203125 43.703125 52.203125 31.203125 
z
" id="DejaVuSans-97"/>
      <path d="M 54.890625 33.015625 
L 54.890625 0 
L 45.90625 0 
L 45.90625 32.71875 
Q 45.90625 40.484375 42.875 44.328125 
Q 39.84375 48.1875 33.796875 48.1875 
Q 26.515625 48.1875 22.3125 43.546875 
Q 18.109375 38.921875 18.109375 30.90625 
L 18.109375 0 
L 9.078125 0 
L 9.078125 54.6875 
L 18.109375 54.6875 
L 18.109375 46.1875 
Q 21.34375 51.125 25.703125 53.5625 
Q 30.078125 56 35.796875 56 
Q 45.21875 56 50.046875 50.171875 
Q 54.890625 44.34375 54.890625 33.015625 
z
" id="DejaVuSans-110"/>
      <path d="M 48.78125 52.59375 
L 48.78125 44.1875 
Q 44.96875 46.296875 41.140625 47.34375 
Q 37.3125 48.390625 33.40625 48.390625 
Q 24.65625 48.390625 19.8125 42.84375 
Q 14.984375 37.3125 14.984375 27.296875 
Q 14.984375 17.28125 19.8125 11.734375 
Q 24.65625 6.203125 33.40625 6.203125 
Q 37.3125 6.203125 41.140625 7.25 
Q 44.96875 8.296875 48.78125 10.40625 
L 48.78125 2.09375 
Q 45.015625 0.34375 40.984375 -0.53125 
Q 36.96875 -1.421875 32.421875 -1.421875 
Q 20.0625 -1.421875 12.78125 6.34375 
Q 5.515625 14.109375 5.515625 27.296875 
Q 5.515625 40.671875 12.859375 48.328125 
Q 20.21875 56 33.015625 56 
Q 37.15625 56 41.109375 55.140625 
Q 45.0625 54.296875 48.78125 52.59375 
z
" id="DejaVuSans-99"/>
      <path d="M 56.203125 29.59375 
L 56.203125 25.203125 
L 14.890625 25.203125 
Q 15.484375 15.921875 20.484375 11.0625 
Q 25.484375 6.203125 34.421875 6.203125 
Q 39.59375 6.203125 44.453125 7.46875 
Q 49.3125 8.734375 54.109375 11.28125 
L 54.109375 2.78125 
Q 49.265625 0.734375 44.1875 -0.34375 
Q 39.109375 -1.421875 33.890625 -1.421875 
Q 20.796875 -1.421875 13.15625 6.1875 
Q 5.515625 13.8125 5.515625 26.8125 
Q 5.515625 40.234375 12.765625 48.109375 
Q 20.015625 56 32.328125 56 
Q 43.359375 56 49.78125 48.890625 
Q 56.203125 41.796875 56.203125 29.59375 
z
M 47.21875 32.234375 
Q 47.125 39.59375 43.09375 43.984375 
Q 39.0625 48.390625 32.421875 48.390625 
Q 24.90625 48.390625 20.390625 44.140625 
Q 15.875 39.890625 15.1875 32.171875 
z
" id="DejaVuSans-101"/>
      <path id="DejaVuSans-32"/>
      <path d="M 37.109375 75.984375 
L 37.109375 68.5 
L 28.515625 68.5 
Q 23.6875 68.5 21.796875 66.546875 
Q 19.921875 64.59375 19.921875 59.515625 
L 19.921875 54.6875 
L 34.71875 54.6875 
L 34.71875 47.703125 
L 19.921875 47.703125 
L 19.921875 0 
L 10.890625 0 
L 10.890625 47.703125 
L 2.296875 47.703125 
L 2.296875 54.6875 
L 10.890625 54.6875 
L 10.890625 58.5 
Q 10.890625 67.625 15.140625 71.796875 
Q 19.390625 75.984375 28.609375 75.984375 
z
" id="DejaVuSans-102"/>
      <path d="M 54.890625 33.015625 
L 54.890625 0 
L 45.90625 0 
L 45.90625 32.71875 
Q 45.90625 40.484375 42.875 44.328125 
Q 39.84375 48.1875 33.796875 48.1875 
Q 26.515625 48.1875 22.3125 43.546875 
Q 18.109375 38.921875 18.109375 30.90625 
L 18.109375 0 
L 9.078125 0 
L 9.078125 75.984375 
L 18.109375 75.984375 
L 18.109375 46.1875 
Q 21.34375 51.125 25.703125 53.5625 
Q 30.078125 56 35.796875 56 
Q 45.21875 56 50.046875 50.171875 
Q 54.890625 44.34375 54.890625 33.015625 
z
" id="DejaVuSans-104"/>
      <path d="M 45.40625 46.390625 
L 45.40625 75.984375 
L 54.390625 75.984375 
L 54.390625 0 
L 45.40625 0 
L 45.40625 8.203125 
Q 42.578125 3.328125 38.25 0.953125 
Q 33.9375 -1.421875 27.875 -1.421875 
Q 17.96875 -1.421875 11.734375 6.484375 
Q 5.515625 14.40625 5.515625 27.296875 
Q 5.515625 40.1875 11.734375 48.09375 
Q 17.96875 56 27.875 56 
Q 33.9375 56 38.25 53.625 
Q 42.578125 51.265625 45.40625 46.390625 
z
M 14.796875 27.296875 
Q 14.796875 17.390625 18.875 11.75 
Q 22.953125 6.109375 30.078125 6.109375 
Q 37.203125 6.109375 41.296875 11.75 
Q 45.40625 17.390625 45.40625 27.296875 
Q 45.40625 37.203125 41.296875 42.84375 
Q 37.203125 48.484375 30.078125 48.484375 
Q 22.953125 48.484375 18.875 42.84375 
Q 14.796875 37.203125 14.796875 27.296875 
z
" id="DejaVuSans-100"/>
      <path d="M 9.421875 54.6875 
L 18.40625 54.6875 
L 18.40625 0 
L 9.421875 0 
z
M 9.421875 75.984375 
L 18.40625 75.984375 
L 18.40625 64.59375 
L 9.421875 64.59375 
z
" id="DejaVuSans-105"/>
      <path d="M 4.203125 54.6875 
L 13.1875 54.6875 
L 24.421875 12.015625 
L 35.59375 54.6875 
L 46.1875 54.6875 
L 57.421875 12.015625 
L 68.609375 54.6875 
L 77.59375 54.6875 
L 63.28125 0 
L 52.6875 0 
L 40.921875 44.828125 
L 29.109375 0 
L 18.5 0 
z
" id="DejaVuSans-119"/>
      <path d="M 9.078125 75.984375 
L 18.109375 75.984375 
L 18.109375 31.109375 
L 44.921875 54.6875 
L 56.390625 54.6875 
L 27.390625 29.109375 
L 57.625 0 
L 45.90625 0 
L 18.109375 26.703125 
L 18.109375 0 
L 9.078125 0 
z
" id="DejaVuSans-107"/>
     </defs>
     <use xlink:href="#DejaVuSans-73"/>
     <use x="29.492188" xlink:href="#DejaVuSans-109"/>
     <use x="126.904297" xlink:href="#DejaVuSans-112"/>
     <use x="190.380859" xlink:href="#DejaVuSans-111"/>
     <use x="251.5625" xlink:href="#DejaVuSans-114"/>
     <use x="292.675781" xlink:href="#DejaVuSans-116"/>
     <use x="331.884766" xlink:href="#DejaVuSans-97"/>
     <use x="393.164062" xlink:href="#DejaVuSans-110"/>
     <use x="456.542969" xlink:href="#DejaVuSans-99"/>
     <use x="511.523438" xlink:href="#DejaVuSans-101"/>
     <use x="573.046875" xlink:href="#DejaVuSans-32"/>
     <use x="604.833984" xlink:href="#DejaVuSans-83"/>
     <use x="668.310547" xlink:href="#DejaVuSans-99"/>
     <use x="723.291016" xlink:href="#DejaVuSans-111"/>
     <use x="784.472656" xlink:href="#DejaVuSans-114"/>
     <use x="823.335938" xlink:href="#DejaVuSans-101"/>
     <use x="884.859375" xlink:href="#DejaVuSans-32"/>
     <use x="916.646484" xlink:href="#DejaVuSans-102"/>
     <use x="951.851562" xlink:href="#DejaVuSans-111"/>
     <use x="1013.033203" xlink:href="#DejaVuSans-114"/>
     <use x="1054.146484" xlink:href="#DejaVuSans-32"/>
     <use x="1085.933594" xlink:href="#DejaVuSans-69"/>
     <use x="1149.117188" xlink:href="#DejaVuSans-97"/>
     <use x="1210.396484" xlink:href="#DejaVuSans-99"/>
     <use x="1265.376953" xlink:href="#DejaVuSans-104"/>
     <use x="1328.755859" xlink:href="#DejaVuSans-32"/>
     <use x="1360.542969" xlink:href="#DejaVuSans-78"/>
     <use x="1435.347656" xlink:href="#DejaVuSans-111"/>
     <use x="1496.529297" xlink:href="#DejaVuSans-100"/>
     <use x="1560.005859" xlink:href="#DejaVuSans-101"/>
     <use x="1621.529297" xlink:href="#DejaVuSans-32"/>
     <use x="1653.316406" xlink:href="#DejaVuSans-105"/>
     <use x="1681.099609" xlink:href="#DejaVuSans-110"/>
     <use x="1744.478516" xlink:href="#DejaVuSans-32"/>
     <use x="1776.265625" xlink:href="#DejaVuSans-116"/>
     <use x="1815.474609" xlink:href="#DejaVuSans-104"/>
     <use x="1878.853516" xlink:href="#DejaVuSans-101"/>
     <use x="1940.376953" xlink:href="#DejaVuSans-32"/>
     <use x="1972.164062" xlink:href="#DejaVuSans-78"/>
     <use x="2046.96875" xlink:href="#DejaVuSans-101"/>
     <use x="2108.492188" xlink:href="#DejaVuSans-116"/>
     <use x="2147.701172" xlink:href="#DejaVuSans-119"/>
     <use x="2229.488281" xlink:href="#DejaVuSans-111"/>
     <use x="2290.669922" xlink:href="#DejaVuSans-114"/>
     <use x="2331.783203" xlink:href="#DejaVuSans-107"/>
    </g>
   </g>
  </g>
 </g>
 <defs>
  <clipPath id="p15aa61acf7">
   <rect height="443.52" width="669.6" x="7.2" y="22.318125"/>
  </clipPath>
 </defs>
</svg>
