<?xml version="1.0" encoding="utf-8" standalone="no"?>
<!DOCTYPE svg PUBLIC "-//W3C//DTD SVG 1.1//EN"
  "http://www.w3.org/Graphics/SVG/1.1/DTD/svg11.dtd">
<!-- Created with matplotlib (https://matplotlib.org/) -->
<svg height="473.038125pt" version="1.1" viewBox="0 0 684 473.038125" width="684pt" xmlns="http://www.w3.org/2000/svg" xmlns:xlink="http://www.w3.org/1999/xlink">
 <metadata>
  <rdf:RDF xmlns:cc="http://creativecommons.org/ns#" xmlns:dc="http://purl.org/dc/elements/1.1/" xmlns:rdf="http://www.w3.org/1999/02/22-rdf-syntax-ns#">
   <cc:Work>
    <dc:type rdf:resource="http://purl.org/dc/dcmitype/StillImage"/>
    <dc:date>2024-04-26T11:05:17.984803</dc:date>
    <dc:format>image/svg+xml</dc:format>
    <dc:creator>
     <cc:Agent>
      <dc:title>Matplotlib v3.3.1, https://matplotlib.org/</dc:title>
     </cc:Agent>
    </dc:creator>
   </cc:Work>
  </rdf:RDF>
 </metadata>
 <defs>
  <style type="text/css">*{stroke-linecap:butt;stroke-linejoin:round;}</style>
 </defs>
 <g id="figure_1">
  <g id="patch_1">
   <path d="M 0 473.038125 
L 684 473.038125 
L 684 0 
L 0 0 
z
" style="fill:#ffffff;"/>
  </g>
  <g id="axes_1">
   <g id="patch_2">
    <path clip-path="url(#p7bb5039db0)" d="M 389.303153 141.837081 
Q 265.477953 176.3393 142.729759 210.541426 
" style="fill:none;stroke:#808080;stroke-linecap:round;"/>
    <path clip-path="url(#p7bb5039db0)" d="M 147.1198 211.394388 
L 142.729759 210.541426 
L 146.046153 207.541171 
L 147.1198 211.394388 
z
" style="fill:#808080;stroke:#808080;stroke-linecap:round;"/>
   </g>
   <g id="patch_3">
    <path clip-path="url(#p7bb5039db0)" d="M 402.560713 146.643212 
Q 428.122939 183.752358 453.050929 219.940773 
" style="fill:none;stroke:#808080;stroke-linecap:round;"/>
    <path clip-path="url(#p7bb5039db0)" d="M 452.428873 215.512111 
L 453.050929 219.940773 
L 449.134766 217.781221 
L 452.428873 215.512111 
z
" style="fill:#808080;stroke:#808080;stroke-linecap:round;"/>
   </g>
   <g id="patch_4">
    <path clip-path="url(#p7bb5039db0)" d="M 141.688194 215.374561 
Q 292.544372 255.171047 442.3195 294.682348 
" style="fill:none;stroke:#808080;stroke-linecap:round;"/>
    <path clip-path="url(#p7bb5039db0)" d="M 438.961973 291.728196 
L 442.3195 294.682348 
L 437.941663 295.595878 
L 438.961973 291.728196 
z
" style="fill:#808080;stroke:#808080;stroke-linecap:round;"/>
   </g>
   <g id="patch_5">
    <path clip-path="url(#p7bb5039db0)" d="M 450.981498 232.111894 
Q 350.878926 286.228678 251.759865 339.813763 
" style="fill:none;stroke:#808080;stroke-linecap:round;"/>
    <path clip-path="url(#p7bb5039db0)" d="M 256.229717 339.670856 
L 251.759865 339.813763 
L 254.327451 336.152137 
L 256.229717 339.670856 
z
" style="fill:#808080;stroke:#808080;stroke-linecap:round;"/>
   </g>
   <g id="patch_6">
    <path clip-path="url(#p7bb5039db0)" d="M 466.652142 231.182229 
Q 507.12834 247.204933 546.564989 262.816128 
" style="fill:none;stroke:#808080;stroke-linecap:round;"/>
    <path clip-path="url(#p7bb5039db0)" d="M 543.581922 259.484265 
L 546.564989 262.816128 
L 542.109659 263.203464 
L 543.581922 259.484265 
z
" style="fill:#808080;stroke:#808080;stroke-linecap:round;"/>
   </g>
   <g id="patch_7">
    <path clip-path="url(#p7bb5039db0)" d="M 404.455097 76.6415 
Q 313.101908 109.159818 222.802012 141.303203 
" style="fill:none;stroke:#808080;stroke-linecap:round;"/>
    <path clip-path="url(#p7bb5039db0)" d="M 227.241086 141.845989 
L 222.802012 141.303203 
L 225.899686 138.077615 
L 227.241086 141.845989 
z
" style="fill:#808080;stroke:#808080;stroke-linecap:round;"/>
   </g>
   <g id="patch_8">
    <path clip-path="url(#p7bb5039db0)" d="M 420.916455 71.265183 
Q 421.921994 70.965792 421.855987 70.985445 
" style="fill:none;stroke:#808080;stroke-linecap:round;"/>
    <path clip-path="url(#p7bb5039db0)" d="M 417.451584 70.210051 
L 421.855987 70.985445 
L 418.59303 74.043731 
L 417.451584 70.210051 
z
" style="fill:#808080;stroke:#808080;stroke-linecap:round;"/>
   </g>
   <g id="patch_9">
    <path clip-path="url(#p7bb5039db0)" d="M 550.496218 259.462517 
Q 484.136115 170.07551 418.442454 81.586198 
" style="fill:none;stroke:#808080;stroke-linecap:round;"/>
    <path clip-path="url(#p7bb5039db0)" d="M 419.220939 85.990056 
L 418.442454 81.586198 
L 422.432631 83.605725 
L 419.220939 85.990056 
z
" style="fill:#808080;stroke:#808080;stroke-linecap:round;"/>
   </g>
   <g id="patch_10">
    <path clip-path="url(#p7bb5039db0)" d="M 551.758527 274.146956 
Q 517.411509 342.240716 483.568008 409.336242 
" style="fill:none;stroke:#808080;stroke-linecap:round;"/>
    <path clip-path="url(#p7bb5039db0)" d="M 487.155139 406.66557 
L 483.568008 409.336242 
L 483.583749 404.864134 
L 487.155139 406.66557 
z
" style="fill:#808080;stroke:#808080;stroke-linecap:round;"/>
   </g>
   <g id="patch_11">
    <path clip-path="url(#p7bb5039db0)" d="M 547.01691 267.024154 
Q 506.446266 269.880696 466.990896 272.658713 
" style="fill:none;stroke:#808080;stroke-linecap:round;"/>
    <path clip-path="url(#p7bb5039db0)" d="M 471.121488 274.372833 
L 466.990896 272.658713 
L 470.840548 270.382711 
L 471.121488 274.372833 
z
" style="fill:#808080;stroke:#808080;stroke-linecap:round;"/>
   </g>
   <g id="patch_12">
    <path clip-path="url(#p7bb5039db0)" d="M 296.06862 101.805177 
Q 367.843973 210.209561 439.002098 317.681728 
" style="fill:none;stroke:#808080;stroke-linecap:round;"/>
    <path clip-path="url(#p7bb5039db0)" d="M 438.461436 313.242394 
L 439.002098 317.681728 
L 435.126234 315.450657 
L 438.461436 313.242394 
z
" style="fill:#808080;stroke:#808080;stroke-linecap:round;"/>
   </g>
   <g id="patch_13">
    <path clip-path="url(#p7bb5039db0)" d="M 303.612503 280.249074 
Q 418.783934 246.16698 532.883288 212.402141 
" style="fill:none;stroke:#808080;stroke-linecap:round;"/>
    <path clip-path="url(#p7bb5039db0)" d="M 528.480186 211.619394 
L 532.883288 212.402141 
L 529.61523 215.454974 
L 528.480186 211.619394 
z
" style="fill:#808080;stroke:#808080;stroke-linecap:round;"/>
   </g>
   <g id="patch_14">
    <path clip-path="url(#p7bb5039db0)" d="M 286.655031 282.52524 
Q 227.161439 281.285464 168.785638 280.068981 
" style="fill:none;stroke:#808080;stroke-linecap:round;"/>
    <path clip-path="url(#p7bb5039db0)" d="M 172.743101 282.151884 
L 168.785638 280.068981 
L 172.826439 278.152753 
L 172.743101 282.151884 
z
" style="fill:#808080;stroke:#808080;stroke-linecap:round;"/>
   </g>
   <g id="patch_15">
    <path clip-path="url(#p7bb5039db0)" d="M 365.286423 66.05426 
Q 281.685053 129.795025 198.972775 192.857914 
" style="fill:none;stroke:#808080;stroke-linecap:round;"/>
    <path clip-path="url(#p7bb5039db0)" d="M 203.366307 192.023126 
L 198.972775 192.857914 
L 200.941064 188.842215 
L 203.366307 192.023126 
z
" style="fill:#808080;stroke:#808080;stroke-linecap:round;"/>
   </g>
   <g id="patch_16">
    <path clip-path="url(#p7bb5039db0)" d="M 198.934431 202.670583 
Q 317.797134 262.311532 435.660543 321.451072 
" style="fill:none;stroke:#808080;stroke-linecap:round;"/>
    <path clip-path="url(#p7bb5039db0)" d="M 432.982308 317.869584 
L 435.660543 321.451072 
L 431.188412 321.444767 
L 432.982308 317.869584 
z
" style="fill:#808080;stroke:#808080;stroke-linecap:round;"/>
   </g>
   <g id="patch_17">
    <path clip-path="url(#p7bb5039db0)" d="M 470.636115 416.568132 
Q 331.714959 392.115128 193.894909 367.855942 
" style="fill:none;stroke:#808080;stroke-linecap:round;"/>
    <path clip-path="url(#p7bb5039db0)" d="M 197.487635 370.519083 
L 193.894909 367.855942 
L 198.181058 366.579646 
L 197.487635 370.519083 
z
" style="fill:#808080;stroke:#808080;stroke-linecap:round;"/>
   </g>
   <g id="patch_18">
    <path clip-path="url(#p7bb5039db0)" d="M 177.526911 360.726996 
Q 124.787982 318.214198 72.919495 276.403062 
" style="fill:none;stroke:#808080;stroke-linecap:round;"/>
    <path clip-path="url(#p7bb5039db0)" d="M 74.778511 280.470501 
L 72.919495 276.403062 
L 77.288856 277.356312 
L 74.778511 280.470501 
z
" style="fill:#808080;stroke:#808080;stroke-linecap:round;"/>
   </g>
   <g id="patch_19">
    <path clip-path="url(#p7bb5039db0)" d="M 177.080387 361.32961 
Q 141.736519 337.571714 107.320538 314.437538 
" style="fill:none;stroke:#808080;stroke-linecap:round;"/>
    <path clip-path="url(#p7bb5039db0)" d="M 109.524505 318.328878 
L 107.320538 314.437538 
L 111.75599 315.009168 
L 109.524505 318.328878 
z
" style="fill:#808080;stroke:#808080;stroke-linecap:round;"/>
   </g>
   <g id="patch_20">
    <path clip-path="url(#p7bb5039db0)" d="M 260.405257 141.209713 
Q 358.22131 222.911944 455.179282 303.897451 
" style="fill:none;stroke:#808080;stroke-linecap:round;"/>
    <path clip-path="url(#p7bb5039db0)" d="M 453.39143 299.798233 
L 455.179282 303.897451 
L 450.827196 302.868201 
L 453.39143 299.798233 
z
" style="fill:#808080;stroke:#808080;stroke-linecap:round;"/>
   </g>
   <g id="patch_21">
    <path clip-path="url(#p7bb5039db0)" d="M 456.562696 304.037347 
Q 429.29404 276.7355 402.815472 250.224703 
" style="fill:none;stroke:#808080;stroke-linecap:round;"/>
    <path clip-path="url(#p7bb5039db0)" d="M 404.227105 254.468203 
L 402.815472 250.224703 
L 407.057252 251.641497 
L 404.227105 254.468203 
z
" style="fill:#808080;stroke:#808080;stroke-linecap:round;"/>
   </g>
   <g id="patch_22">
    <path clip-path="url(#p7bb5039db0)" d="M 454.986351 314.13337 
Q 371.408724 357.231003 288.824796 399.816225 
" style="fill:none;stroke:#808080;stroke-linecap:round;"/>
    <path clip-path="url(#p7bb5039db0)" d="M 293.296586 399.760552 
L 288.824796 399.816225 
L 291.463331 396.20539 
L 293.296586 399.760552 
z
" style="fill:#808080;stroke:#808080;stroke-linecap:round;"/>
   </g>
   <g id="patch_23">
    <path clip-path="url(#p7bb5039db0)" d="M 617.651899 297.805069 
Q 606.595338 206.575958 595.673292 116.456758 
" style="fill:none;stroke:#808080;stroke-linecap:round;"/>
    <path clip-path="url(#p7bb5039db0)" d="M 594.169081 120.668332 
L 595.673292 116.456758 
L 598.140024 120.187071 
L 594.169081 120.668332 
z
" style="fill:#808080;stroke:#808080;stroke-linecap:round;"/>
   </g>
   <g id="patch_24">
    <path clip-path="url(#p7bb5039db0)" d="M 386.161483 308.543994 
Q 487.218564 210.659784 587.472569 113.553436 
" style="fill:none;stroke:#808080;stroke-linecap:round;"/>
    <path clip-path="url(#p7bb5039db0)" d="M 583.207915 114.899814 
L 587.472569 113.553436 
L 585.990879 117.772985 
L 583.207915 114.899814 
z
" style="fill:#808080;stroke:#808080;stroke-linecap:round;"/>
   </g>
   <g id="patch_25">
    <path clip-path="url(#p7bb5039db0)" d="M 453.01063 324.877355 
Q 531.548279 316.121219 608.97478 307.488965 
" style="fill:none;stroke:#808080;stroke-linecap:round;"/>
    <path clip-path="url(#p7bb5039db0)" d="M 604.777804 305.944493 
L 608.97478 307.488965 
L 605.221016 309.919862 
L 604.777804 305.944493 
z
" style="fill:#808080;stroke:#808080;stroke-linecap:round;"/>
   </g>
   <g id="patch_26">
    <path clip-path="url(#p7bb5039db0)" d="M 435.867766 324.345844 
Q 412.168184 320.204434 389.569947 316.25548 
" style="fill:none;stroke:#808080;stroke-linecap:round;"/>
    <path clip-path="url(#p7bb5039db0)" d="M 393.165964 318.914176 
L 389.569947 316.25548 
L 393.854514 314.973884 
L 393.165964 318.914176 
z
" style="fill:#808080;stroke:#808080;stroke-linecap:round;"/>
   </g>
   <g id="patch_27">
    <path clip-path="url(#p7bb5039db0)" d="M 449.035603 276.134106 
Q 320.750741 319.754187 193.524396 363.014346 
" style="fill:none;stroke:#808080;stroke-linecap:round;"/>
    <path clip-path="url(#p7bb5039db0)" d="M 197.955306 363.620181 
L 193.524396 363.014346 
L 196.66761 359.833119 
L 197.955306 363.620181 
z
" style="fill:#808080;stroke:#808080;stroke-linecap:round;"/>
   </g>
   <g id="patch_28">
    <path clip-path="url(#p7bb5039db0)" d="M 459.422834 301.225757 
Q 522.885726 334.815227 585.360457 367.881686 
" style="fill:none;stroke:#808080;stroke-linecap:round;"/>
    <path clip-path="url(#p7bb5039db0)" d="M 582.760699 364.242832 
L 585.360457 367.881686 
L 580.889519 367.77818 
L 582.760699 364.242832 
z
" style="fill:#808080;stroke:#808080;stroke-linecap:round;"/>
   </g>
   <g id="patch_29">
    <path clip-path="url(#p7bb5039db0)" d="M 448.144769 305.037415 
Q 421.75372 362.261724 395.830897 418.470767 
" style="fill:none;stroke:#808080;stroke-linecap:round;"/>
    <path clip-path="url(#p7bb5039db0)" d="M 399.322237 415.676031 
L 395.830897 418.470767 
L 395.689912 414.000854 
L 399.322237 415.676031 
z
" style="fill:#808080;stroke:#808080;stroke-linecap:round;"/>
   </g>
   <g id="patch_30">
    <path clip-path="url(#p7bb5039db0)" d="M 251.562742 342.365477 
Q 399.408843 305.439988 546.17023 268.785412 
" style="fill:none;stroke:#808080;stroke-linecap:round;"/>
    <path clip-path="url(#p7bb5039db0)" d="M 541.804812 267.814268 
L 546.17023 268.785412 
L 542.774064 271.69506 
L 541.804812 267.814268 
z
" style="fill:#808080;stroke:#808080;stroke-linecap:round;"/>
   </g>
   <g id="patch_31">
    <path clip-path="url(#p7bb5039db0)" d="M 179.698082 269.746312 
Q 317.684154 345.416206 454.68992 420.548513 
" style="fill:none;stroke:#808080;stroke-linecap:round;"/>
    <path clip-path="url(#p7bb5039db0)" d="M 452.144338 416.871556 
L 454.68992 420.548513 
L 450.221006 420.378804 
L 452.144338 416.871556 
z
" style="fill:#808080;stroke:#808080;stroke-linecap:round;"/>
   </g>
   <g id="patch_32">
    <path clip-path="url(#p7bb5039db0)" d="M 454.60985 424.839932 
Q 391.031524 421.824569 328.569977 418.862173 
" style="fill:none;stroke:#808080;stroke-linecap:round;"/>
    <path clip-path="url(#p7bb5039db0)" d="M 332.470737 421.049424 
L 328.569977 418.862173 
L 332.660234 417.053915 
L 332.470737 421.049424 
z
" style="fill:#808080;stroke:#808080;stroke-linecap:round;"/>
   </g>
   <g id="patch_33">
    <path clip-path="url(#p7bb5039db0)" d="M 469.750071 419.512758 
Q 538.339398 358.839351 606.09131 298.906712 
" style="fill:none;stroke:#808080;stroke-linecap:round;"/>
    <path clip-path="url(#p7bb5039db0)" d="M 601.770159 300.058952 
L 606.09131 298.906712 
L 604.420412 303.054976 
L 601.770159 300.058952 
z
" style="fill:#808080;stroke:#808080;stroke-linecap:round;"/>
   </g>
   <g id="patch_34">
    <path clip-path="url(#p7bb5039db0)" d="M 332.396913 88.15256 
Q 348.716469 76.931778 364.114746 66.344435 
" style="fill:none;stroke:#808080;stroke-linecap:round;"/>
    <path clip-path="url(#p7bb5039db0)" d="M 359.685549 66.962667 
L 364.114746 66.344435 
L 361.951813 70.258732 
L 359.685549 66.962667 
z
" style="fill:#808080;stroke:#808080;stroke-linecap:round;"/>
   </g>
   <g id="patch_35">
    <path clip-path="url(#p7bb5039db0)" d="M 333.906614 93.500214 
Q 459.87751 99.905098 584.731815 106.25321 
" style="fill:none;stroke:#808080;stroke-linecap:round;"/>
    <path clip-path="url(#p7bb5039db0)" d="M 580.838533 104.052676 
L 584.731815 106.25321 
L 580.635419 108.047515 
L 580.838533 104.052676 
z
" style="fill:#808080;stroke:#808080;stroke-linecap:round;"/>
   </g>
   <g id="patch_36">
    <path clip-path="url(#p7bb5039db0)" d="M 545.03468 240.575487 
Q 544.034557 229.413655 543.134212 219.365397 
" style="fill:none;stroke:#808080;stroke-linecap:round;"/>
    <path clip-path="url(#p7bb5039db0)" d="M 541.499171 223.527925 
L 543.134212 219.365397 
L 545.48321 223.170947 
L 541.499171 223.527925 
z
" style="fill:#808080;stroke:#808080;stroke-linecap:round;"/>
   </g>
   <g id="patch_37">
    <path clip-path="url(#p7bb5039db0)" d="M 537.17546 249.882195 
Q 352.409519 264.531385 168.758115 279.092209 
" style="fill:none;stroke:#808080;stroke-linecap:round;"/>
    <path clip-path="url(#p7bb5039db0)" d="M 172.903676 280.769804 
L 168.758115 279.092209 
L 172.587527 276.782318 
L 172.903676 280.769804 
z
" style="fill:#808080;stroke:#808080;stroke-linecap:round;"/>
   </g>
   <g id="patch_38">
    <path clip-path="url(#p7bb5039db0)" d="M 533.87541 207.476728 
Q 398.012089 172.642885 263.231772 138.086713 
" style="fill:none;stroke:#808080;stroke-linecap:round;"/>
    <path clip-path="url(#p7bb5039db0)" d="M 266.609736 141.017474 
L 263.231772 138.086713 
L 267.60316 137.142799 
L 266.609736 141.017474 
z
" style="fill:#808080;stroke:#808080;stroke-linecap:round;"/>
   </g>
   <g id="patch_39">
    <path clip-path="url(#p7bb5039db0)" d="M 163.763362 272.628017 
Q 206.38317 207.761767 248.389044 143.829908 
" style="fill:none;stroke:#808080;stroke-linecap:round;"/>
    <path clip-path="url(#p7bb5039db0)" d="M 244.52108 146.074649 
L 248.389044 143.829908 
L 247.864058 148.271123 
L 244.52108 146.074649 
z
" style="fill:#808080;stroke:#808080;stroke-linecap:round;"/>
   </g>
   <g id="patch_40">
    <path clip-path="url(#p7bb5039db0)" d="M 207.008369 150.205781 
Q 173.45221 178.873573 140.746109 206.815141 
" style="fill:none;stroke:#808080;stroke-linecap:round;"/>
    <path clip-path="url(#p7bb5039db0)" d="M 145.086478 205.737553 
L 140.746109 206.815141 
L 142.48826 202.696293 
L 145.086478 205.737553 
z
" style="fill:#808080;stroke:#808080;stroke-linecap:round;"/>
   </g>
   <g id="patch_41">
    <path clip-path="url(#p7bb5039db0)" d="M 221.00118 140.106892 
Q 279.318831 104.887806 336.679434 70.246699 
" style="fill:none;stroke:#808080;stroke-linecap:round;"/>
    <path clip-path="url(#p7bb5039db0)" d="M 332.221476 70.602519 
L 336.679434 70.246699 
L 334.289315 74.026557 
L 332.221476 70.602519 
z
" style="fill:#808080;stroke:#808080;stroke-linecap:round;"/>
   </g>
   <g id="patch_42">
    <path clip-path="url(#p7bb5039db0)" d="M 423.436855 71.985949 
Q 282.268536 140.680941 142.105539 208.886724 
" style="fill:none;stroke:#808080;stroke-linecap:round;"/>
    <path clip-path="url(#p7bb5039db0)" d="M 146.577416 208.934857 
L 142.105539 208.886724 
L 144.827172 205.338102 
L 146.577416 208.934857 
z
" style="fill:#808080;stroke:#808080;stroke-linecap:round;"/>
   </g>
   <g id="patch_43">
    <path clip-path="url(#p7bb5039db0)" d="M 422.571393 67.893711 
Q 388.138913 66.692717 354.823788 65.530697 
" style="fill:none;stroke:#808080;stroke-linecap:round;"/>
    <path clip-path="url(#p7bb5039db0)" d="M 358.75164 67.668915 
L 354.823788 65.530697 
L 358.891074 63.671346 
L 358.75164 67.668915 
z
" style="fill:#808080;stroke:#808080;stroke-linecap:round;"/>
   </g>
   <g id="patch_44">
    <path clip-path="url(#p7bb5039db0)" d="M 316.979841 232.599676 
Q 432.030642 248.900121 545.974463 265.043729 
" style="fill:none;stroke:#808080;stroke-linecap:round;"/>
    <path clip-path="url(#p7bb5039db0)" d="M 542.294575 262.502387 
L 545.974463 265.043729 
L 541.733457 266.462835 
L 542.294575 262.502387 
z
" style="fill:#808080;stroke:#808080;stroke-linecap:round;"/>
   </g>
   <g id="patch_45">
    <path clip-path="url(#p7bb5039db0)" d="M 316.152733 227.51961 
Q 342.328718 214.462531 367.504232 201.904507 
" style="fill:none;stroke:#808080;stroke-linecap:round;"/>
    <path clip-path="url(#p7bb5039db0)" d="M 363.032098 201.90028 
L 367.504232 201.904507 
L 364.81757 205.479678 
L 363.032098 201.90028 
z
" style="fill:#808080;stroke:#808080;stroke-linecap:round;"/>
   </g>
   <g id="patch_46">
    <path clip-path="url(#p7bb5039db0)" d="M 396.17465 270.882283 
Q 471.587191 268.770252 545.882136 266.68952 
" style="fill:none;stroke:#808080;stroke-linecap:round;"/>
    <path clip-path="url(#p7bb5039db0)" d="M 541.827713 264.802286 
L 545.882136 266.68952 
L 541.939695 268.800718 
L 541.827713 264.802286 
z
" style="fill:#808080;stroke:#808080;stroke-linecap:round;"/>
   </g>
   <g id="patch_47">
    <path clip-path="url(#p7bb5039db0)" d="M 386.205031 262.559836 
Q 381.885454 234.329474 377.734981 207.204284 
" style="fill:none;stroke:#808080;stroke-linecap:round;"/>
    <path clip-path="url(#p7bb5039db0)" d="M 376.362996 211.460768 
L 377.734981 207.204284 
L 380.316978 210.855762 
L 376.362996 211.460768 
z
" style="fill:#808080;stroke:#808080;stroke-linecap:round;"/>
   </g>
   <g id="patch_48">
    <path clip-path="url(#p7bb5039db0)" d="M 379.91943 205.389523 
Q 427.709677 307.804183 475.027149 409.205687 
" style="fill:none;stroke:#808080;stroke-linecap:round;"/>
    <path clip-path="url(#p7bb5039db0)" d="M 475.14809 404.735186 
L 475.027149 409.205687 
L 471.523314 406.426633 
L 475.14809 404.735186 
z
" style="fill:#808080;stroke:#808080;stroke-linecap:round;"/>
   </g>
   <g id="patch_49">
    <path clip-path="url(#p7bb5039db0)" d="M 382.580217 203.459 
Q 416.747319 235.443031 450.098205 266.662999 
" style="fill:none;stroke:#808080;stroke-linecap:round;"/>
    <path clip-path="url(#p7bb5039db0)" d="M 448.544825 262.469312 
L 450.098205 266.662999 
L 445.811228 265.389491 
L 448.544825 262.469312 
z
" style="fill:#808080;stroke:#808080;stroke-linecap:round;"/>
   </g>
   <g id="patch_50">
    <path clip-path="url(#p7bb5039db0)" d="M 395.707489 251.962453 
Q 393.81954 335.327875 391.956904 417.575551 
" style="fill:none;stroke:#808080;stroke-linecap:round;"/>
    <path clip-path="url(#p7bb5039db0)" d="M 394.046955 413.621858 
L 391.956904 417.575551 
L 390.04798 413.531294 
L 394.046955 413.621858 
z
" style="fill:#808080;stroke:#808080;stroke-linecap:round;"/>
   </g>
   <g id="patch_51">
    <path clip-path="url(#p7bb5039db0)" d="M 403.161092 248.035966 
Q 494.953636 307.880606 585.809609 367.114644 
" style="fill:none;stroke:#808080;stroke-linecap:round;"/>
    <path clip-path="url(#p7bb5039db0)" d="M 583.55111 363.254698 
L 585.809609 367.114644 
L 581.366553 366.605475 
L 583.55111 363.254698 
z
" style="fill:#808080;stroke:#808080;stroke-linecap:round;"/>
   </g>
   <g id="patch_52">
    <path clip-path="url(#p7bb5039db0)" d="M 288.617691 406.050295 
Q 335.936152 415.824643 382.159695 425.372819 
" style="fill:none;stroke:#808080;stroke-linecap:round;"/>
    <path clip-path="url(#p7bb5039db0)" d="M 378.646985 422.604991 
L 382.159695 425.372819 
L 377.837807 426.52229 
L 378.646985 422.604991 
z
" style="fill:#808080;stroke:#808080;stroke-linecap:round;"/>
   </g>
   <g id="patch_53">
    <path clip-path="url(#p7bb5039db0)" d="M 288.749609 403.423698 
Q 437.068662 388.375898 584.275392 373.44095 
" style="fill:none;stroke:#808080;stroke-linecap:round;"/>
    <path clip-path="url(#p7bb5039db0)" d="M 580.093946 371.854914 
L 584.275392 373.44095 
L 580.497695 375.834485 
L 580.093946 371.854914 
z
" style="fill:#808080;stroke:#808080;stroke-linecap:round;"/>
   </g>
   <g id="PathCollection_1">
    <defs>
     <path d="M 0 11.18034 
C 2.965061 11.18034 5.80908 10.002309 7.905694 7.905694 
C 10.002309 5.80908 11.18034 2.965061 11.18034 -0 
C 11.18034 -2.965061 10.002309 -5.80908 7.905694 -7.905694 
C 5.80908 -10.002309 2.965061 -11.18034 0 -11.18034 
C -2.965061 -11.18034 -5.80908 -10.002309 -7.905694 -7.905694 
C -10.002309 -5.80908 -11.18034 -2.965061 -11.18034 0 
C -11.18034 2.965061 -10.002309 5.80908 -7.905694 7.905694 
C -5.80908 10.002309 -2.965061 11.18034 0 11.18034 
z
" id="C0_0_95f9e512b5"/>
    </defs>
    <g clip-path="url(#p7bb5039db0)">
     <use style="fill:#8a8a8a;stroke:#8a8a8a;" x="397.648326" xlink:href="#C0_0_95f9e512b5" y="139.511811"/>
    </g>
    <g clip-path="url(#p7bb5039db0)">
     <use style="fill:#e4e4e4;stroke:#e4e4e4;" x="133.313237" xlink:href="#C0_0_95f9e512b5" y="213.165213"/>
    </g>
    <g clip-path="url(#p7bb5039db0)">
     <use style="fill:#989898;stroke:#989898;" x="458.598379" xlink:href="#C0_0_95f9e512b5" y="227.994107"/>
    </g>
    <g clip-path="url(#p7bb5039db0)">
     <use style="fill:#c1c1c1;stroke:#c1c1c1;" x="412.615151" xlink:href="#C0_0_95f9e512b5" y="73.736826"/>
    </g>
    <g clip-path="url(#p7bb5039db0)">
     <use style="fill:#b5b5b5;stroke:#b5b5b5;" x="555.658218" xlink:href="#C0_0_95f9e512b5" y="266.415728"/>
    </g>
    <g clip-path="url(#p7bb5039db0)">
     <use style="fill:#d0d0d0;stroke:#d0d0d0;" x="291.286089" xlink:href="#C0_0_95f9e512b5" y="94.581982"/>
    </g>
    <g clip-path="url(#p7bb5039db0)">
     <use style="fill:#f3f3f3;stroke:#f3f3f3;" x="295.311238" xlink:href="#C0_0_95f9e512b5" y="282.705625"/>
    </g>
    <g clip-path="url(#p7bb5039db0)">
     <use style="fill:#c5c5c5;stroke:#c5c5c5;" x="372.170747" xlink:href="#C0_0_95f9e512b5" y="60.805398"/>
    </g>
    <g clip-path="url(#p7bb5039db0)">
     <use style="fill:#cfcfcf;stroke:#cfcfcf;" x="191.195599" xlink:href="#C0_0_95f9e512b5" y="198.78752"/>
    </g>
    <g clip-path="url(#p7bb5039db0)">
     <use style="fill:#f2f2f2;stroke:#f2f2f2;" x="594.496841" xlink:href="#C0_0_95f9e512b5" y="106.749704"/>
    </g>
    <g clip-path="url(#p7bb5039db0)">
     <use style="fill:#f3f3f3;stroke:#f3f3f3;" x="479.163107" xlink:href="#C0_0_95f9e512b5" y="418.069059"/>
    </g>
    <g clip-path="url(#p7bb5039db0)">
     <use style="fill:#e4e4e4;stroke:#e4e4e4;" x="184.268674" xlink:href="#C0_0_95f9e512b5" y="366.161525"/>
    </g>
    <g clip-path="url(#p7bb5039db0)">
     <use style="fill:#cfcfcf;stroke:#cfcfcf;" x="253.758423" xlink:href="#C0_0_95f9e512b5" y="135.657851"/>
    </g>
    <g clip-path="url(#p7bb5039db0)">
     <use style="fill:#f3f3f3;stroke:#f3f3f3;" x="65.305785" xlink:href="#C0_0_95f9e512b5" y="270.265658"/>
    </g>
    <g clip-path="url(#p7bb5039db0)">
     <use style="fill:#dadada;stroke:#dadada;" x="462.682614" xlink:href="#C0_0_95f9e512b5" y="310.164715"/>
    </g>
    <g clip-path="url(#p7bb5039db0)">
     <use style="fill:#ebebeb;stroke:#ebebeb;" x="618.694215" xlink:href="#C0_0_95f9e512b5" y="306.405348"/>
    </g>
    <g clip-path="url(#p7bb5039db0)">
     <use style="fill:#ebebeb;stroke:#ebebeb;" x="379.937777" xlink:href="#C0_0_95f9e512b5" y="314.572295"/>
    </g>
    <g clip-path="url(#p7bb5039db0)">
     <use style="fill:#f3f3f3;stroke:#f3f3f3;" x="99.203382" xlink:href="#C0_0_95f9e512b5" y="308.981244"/>
    </g>
    <g clip-path="url(#p7bb5039db0)">
     <use style="fill:#dadada;stroke:#dadada;" x="444.40186" xlink:href="#C0_0_95f9e512b5" y="325.837144"/>
    </g>
    <g clip-path="url(#p7bb5039db0)">
     <use style="fill:#f3f3f3;stroke:#f3f3f3;" x="457.236809" xlink:href="#C0_0_95f9e512b5" y="273.34549"/>
    </g>
    <g clip-path="url(#p7bb5039db0)">
     <use style="fill:#ececec;stroke:#ececec;" x="451.77054" xlink:href="#C0_0_95f9e512b5" y="297.175571"/>
    </g>
    <g clip-path="url(#p7bb5039db0)">
     <use style="fill:#f2f2f2;stroke:#f2f2f2;" x="243.156044" xlink:href="#C0_0_95f9e512b5" y="344.465103"/>
    </g>
    <g clip-path="url(#p7bb5039db0)">
     <use style="fill:#dcdcdc;stroke:#dcdcdc;" x="172.103184" xlink:href="#C0_0_95f9e512b5" y="265.581362"/>
    </g>
    <g clip-path="url(#p7bb5039db0)">
     <use style="fill:#e4e4e4;stroke:#e4e4e4;" x="463.263884" xlink:href="#C0_0_95f9e512b5" y="425.250371"/>
    </g>
    <g clip-path="url(#p7bb5039db0)">
     <use style="fill:#b9b9b9;stroke:#b9b9b9;" x="325.258753" xlink:href="#C0_0_95f9e512b5" y="93.06052"/>
    </g>
    <g clip-path="url(#p7bb5039db0)">
     <use style="fill:#f3f3f3;stroke:#f3f3f3;" x="345.052775" xlink:href="#C0_0_95f9e512b5" y="65.189887"/>
    </g>
    <g clip-path="url(#p7bb5039db0)">
     <use style="fill:#aaaaaa;stroke:#aaaaaa;" x="545.80726" xlink:href="#C0_0_95f9e512b5" y="249.197822"/>
    </g>
    <g clip-path="url(#p7bb5039db0)">
     <use style="fill:#c5c5c5;stroke:#c5c5c5;" x="542.261619" xlink:href="#C0_0_95f9e512b5" y="209.626859"/>
    </g>
    <g clip-path="url(#p7bb5039db0)">
     <use style="fill:#f2f2f2;stroke:#f2f2f2;" x="159.008213" xlink:href="#C0_0_95f9e512b5" y="279.865231"/>
    </g>
    <g clip-path="url(#p7bb5039db0)">
     <use style="fill:#f2f2f2;stroke:#f2f2f2;" x="391.735526" xlink:href="#C0_0_95f9e512b5" y="427.350852"/>
    </g>
    <g clip-path="url(#p7bb5039db0)">
     <use style="fill:#f3f3f3;stroke:#f3f3f3;" x="593.999895" xlink:href="#C0_0_95f9e512b5" y="372.454344"/>
    </g>
    <g clip-path="url(#p7bb5039db0)">
     <use style="fill:#d4d4d4;stroke:#d4d4d4;" x="213.591222" xlink:href="#C0_0_95f9e512b5" y="144.581899"/>
    </g>
    <g clip-path="url(#p7bb5039db0)">
     <use style="fill:#d4d4d4;stroke:#d4d4d4;" x="431.226065" xlink:href="#C0_0_95f9e512b5" y="68.195583"/>
    </g>
    <g clip-path="url(#p7bb5039db0)">
     <use style="fill:#5f5f5f;stroke:#5f5f5f;" x="308.404277" xlink:href="#C0_0_95f9e512b5" y="231.384686"/>
    </g>
    <g clip-path="url(#p7bb5039db0)">
     <use style="fill:#606060;stroke:#606060;" x="387.51557" xlink:href="#C0_0_95f9e512b5" y="271.124792"/>
    </g>
    <g clip-path="url(#p7bb5039db0)">
     <use style="fill:#f3f3f3;stroke:#f3f3f3;" x="376.256068" xlink:href="#C0_0_95f9e512b5" y="197.538925"/>
    </g>
    <g clip-path="url(#p7bb5039db0)">
     <use style="fill:#f2f2f2;stroke:#f2f2f2;" x="395.903565" xlink:href="#C0_0_95f9e512b5" y="243.304383"/>
    </g>
    <g clip-path="url(#p7bb5039db0)">
     <use style="fill:#ebebeb;stroke:#ebebeb;" x="280.133808" xlink:href="#C0_0_95f9e512b5" y="404.297819"/>
    </g>
    <g clip-path="url(#p7bb5039db0)">
     <use style="fill:#f3f3f3;stroke:#f3f3f3;" x="318.803678" xlink:href="#C0_0_95f9e512b5" y="418.398981"/>
    </g>
    <g clip-path="url(#p7bb5039db0)">
     <use style="fill:#f3f3f3;stroke:#f3f3f3;" x="613.415319" xlink:href="#C0_0_95f9e512b5" y="292.427969"/>
    </g>
   </g>
   <g id="text_1">
    <g clip-path="url(#p7bb5039db0)">
     <!-- ADAM17 -->
     <g transform="translate(376.368639 142.271186)scale(0.1 -0.1)">
      <defs>
       <path d="M 34.1875 63.1875 
L 20.796875 26.90625 
L 47.609375 26.90625 
z
M 28.609375 72.90625 
L 39.796875 72.90625 
L 67.578125 0 
L 57.328125 0 
L 50.6875 18.703125 
L 17.828125 18.703125 
L 11.1875 0 
L 0.78125 0 
z
" id="DejaVuSans-65"/>
       <path d="M 19.671875 64.796875 
L 19.671875 8.109375 
L 31.59375 8.109375 
Q 46.6875 8.109375 53.6875 14.9375 
Q 60.6875 21.78125 60.6875 36.53125 
Q 60.6875 51.171875 53.6875 57.984375 
Q 46.6875 64.796875 31.59375 64.796875 
z
M 9.8125 72.90625 
L 30.078125 72.90625 
Q 51.265625 72.90625 61.171875 64.09375 
Q 71.09375 55.28125 71.09375 36.53125 
Q 71.09375 17.671875 61.125 8.828125 
Q 51.171875 0 30.078125 0 
L 9.8125 0 
z
" id="DejaVuSans-68"/>
       <path d="M 9.8125 72.90625 
L 24.515625 72.90625 
L 43.109375 23.296875 
L 61.8125 72.90625 
L 76.515625 72.90625 
L 76.515625 0 
L 66.890625 0 
L 66.890625 64.015625 
L 48.09375 14.015625 
L 38.1875 14.015625 
L 19.390625 64.015625 
L 19.390625 0 
L 9.8125 0 
z
" id="DejaVuSans-77"/>
       <path d="M 12.40625 8.296875 
L 28.515625 8.296875 
L 28.515625 63.921875 
L 10.984375 60.40625 
L 10.984375 69.390625 
L 28.421875 72.90625 
L 38.28125 72.90625 
L 38.28125 8.296875 
L 54.390625 8.296875 
L 54.390625 0 
L 12.40625 0 
z
" id="DejaVuSans-49"/>
       <path d="M 8.203125 72.90625 
L 55.078125 72.90625 
L 55.078125 68.703125 
L 28.609375 0 
L 18.3125 0 
L 43.21875 64.59375 
L 8.203125 64.59375 
z
" id="DejaVuSans-55"/>
      </defs>
      <use xlink:href="#DejaVuSans-65"/>
      <use x="68.408203" xlink:href="#DejaVuSans-68"/>
      <use x="143.660156" xlink:href="#DejaVuSans-65"/>
      <use x="212.068359" xlink:href="#DejaVuSans-77"/>
      <use x="298.347656" xlink:href="#DejaVuSans-49"/>
      <use x="361.970703" xlink:href="#DejaVuSans-55"/>
     </g>
    </g>
   </g>
   <g id="text_2">
    <g clip-path="url(#p7bb5039db0)">
     <!-- TNF -->
     <g transform="translate(123.642925 215.924588)scale(0.1 -0.1)">
      <defs>
       <path d="M -0.296875 72.90625 
L 61.375 72.90625 
L 61.375 64.59375 
L 35.5 64.59375 
L 35.5 0 
L 25.59375 0 
L 25.59375 64.59375 
L -0.296875 64.59375 
z
" id="DejaVuSans-84"/>
       <path d="M 9.8125 72.90625 
L 23.09375 72.90625 
L 55.421875 11.921875 
L 55.421875 72.90625 
L 64.984375 72.90625 
L 64.984375 0 
L 51.703125 0 
L 19.390625 60.984375 
L 19.390625 0 
L 9.8125 0 
z
" id="DejaVuSans-78"/>
       <path d="M 9.8125 72.90625 
L 51.703125 72.90625 
L 51.703125 64.59375 
L 19.671875 64.59375 
L 19.671875 43.109375 
L 48.578125 43.109375 
L 48.578125 34.8125 
L 19.671875 34.8125 
L 19.671875 0 
L 9.8125 0 
z
" id="DejaVuSans-70"/>
      </defs>
      <use xlink:href="#DejaVuSans-84"/>
      <use x="61.083984" xlink:href="#DejaVuSans-78"/>
      <use x="135.888672" xlink:href="#DejaVuSans-70"/>
     </g>
    </g>
   </g>
   <g id="text_3">
    <g clip-path="url(#p7bb5039db0)">
     <!-- IL6R -->
     <g transform="translate(447.681973 230.753482)scale(0.1 -0.1)">
      <defs>
       <path d="M 9.8125 72.90625 
L 19.671875 72.90625 
L 19.671875 0 
L 9.8125 0 
z
" id="DejaVuSans-73"/>
       <path d="M 9.8125 72.90625 
L 19.671875 72.90625 
L 19.671875 8.296875 
L 55.171875 8.296875 
L 55.171875 0 
L 9.8125 0 
z
" id="DejaVuSans-76"/>
       <path d="M 33.015625 40.375 
Q 26.375 40.375 22.484375 35.828125 
Q 18.609375 31.296875 18.609375 23.390625 
Q 18.609375 15.53125 22.484375 10.953125 
Q 26.375 6.390625 33.015625 6.390625 
Q 39.65625 6.390625 43.53125 10.953125 
Q 47.40625 15.53125 47.40625 23.390625 
Q 47.40625 31.296875 43.53125 35.828125 
Q 39.65625 40.375 33.015625 40.375 
z
M 52.59375 71.296875 
L 52.59375 62.3125 
Q 48.875 64.0625 45.09375 64.984375 
Q 41.3125 65.921875 37.59375 65.921875 
Q 27.828125 65.921875 22.671875 59.328125 
Q 17.53125 52.734375 16.796875 39.40625 
Q 19.671875 43.65625 24.015625 45.921875 
Q 28.375 48.1875 33.59375 48.1875 
Q 44.578125 48.1875 50.953125 41.515625 
Q 57.328125 34.859375 57.328125 23.390625 
Q 57.328125 12.15625 50.6875 5.359375 
Q 44.046875 -1.421875 33.015625 -1.421875 
Q 20.359375 -1.421875 13.671875 8.265625 
Q 6.984375 17.96875 6.984375 36.375 
Q 6.984375 53.65625 15.1875 63.9375 
Q 23.390625 74.21875 37.203125 74.21875 
Q 40.921875 74.21875 44.703125 73.484375 
Q 48.484375 72.75 52.59375 71.296875 
z
" id="DejaVuSans-54"/>
       <path d="M 44.390625 34.1875 
Q 47.5625 33.109375 50.5625 29.59375 
Q 53.5625 26.078125 56.59375 19.921875 
L 66.609375 0 
L 56 0 
L 46.6875 18.703125 
Q 43.0625 26.03125 39.671875 28.421875 
Q 36.28125 30.8125 30.421875 30.8125 
L 19.671875 30.8125 
L 19.671875 0 
L 9.8125 0 
L 9.8125 72.90625 
L 32.078125 72.90625 
Q 44.578125 72.90625 50.734375 67.671875 
Q 56.890625 62.453125 56.890625 51.90625 
Q 56.890625 45.015625 53.6875 40.46875 
Q 50.484375 35.9375 44.390625 34.1875 
z
M 19.671875 64.796875 
L 19.671875 38.921875 
L 32.078125 38.921875 
Q 39.203125 38.921875 42.84375 42.21875 
Q 46.484375 45.515625 46.484375 51.90625 
Q 46.484375 58.296875 42.84375 61.546875 
Q 39.203125 64.796875 32.078125 64.796875 
z
" id="DejaVuSans-82"/>
      </defs>
      <use xlink:href="#DejaVuSans-73"/>
      <use x="29.492188" xlink:href="#DejaVuSans-76"/>
      <use x="85.205078" xlink:href="#DejaVuSans-54"/>
      <use x="148.828125" xlink:href="#DejaVuSans-82"/>
     </g>
    </g>
   </g>
   <g id="text_4">
    <g clip-path="url(#p7bb5039db0)">
     <!-- STAT3 -->
     <g transform="translate(397.506557 76.496201)scale(0.1 -0.1)">
      <defs>
       <path d="M 53.515625 70.515625 
L 53.515625 60.890625 
Q 47.90625 63.578125 42.921875 64.890625 
Q 37.9375 66.21875 33.296875 66.21875 
Q 25.25 66.21875 20.875 63.09375 
Q 16.5 59.96875 16.5 54.203125 
Q 16.5 49.359375 19.40625 46.890625 
Q 22.3125 44.4375 30.421875 42.921875 
L 36.375 41.703125 
Q 47.40625 39.59375 52.65625 34.296875 
Q 57.90625 29 57.90625 20.125 
Q 57.90625 9.515625 50.796875 4.046875 
Q 43.703125 -1.421875 29.984375 -1.421875 
Q 24.8125 -1.421875 18.96875 -0.25 
Q 13.140625 0.921875 6.890625 3.21875 
L 6.890625 13.375 
Q 12.890625 10.015625 18.65625 8.296875 
Q 24.421875 6.59375 29.984375 6.59375 
Q 38.421875 6.59375 43.015625 9.90625 
Q 47.609375 13.234375 47.609375 19.390625 
Q 47.609375 24.75 44.3125 27.78125 
Q 41.015625 30.8125 33.5 32.328125 
L 27.484375 33.5 
Q 16.453125 35.6875 11.515625 40.375 
Q 6.59375 45.0625 6.59375 53.421875 
Q 6.59375 63.09375 13.40625 68.65625 
Q 20.21875 74.21875 32.171875 74.21875 
Q 37.3125 74.21875 42.625 73.28125 
Q 47.953125 72.359375 53.515625 70.515625 
z
" id="DejaVuSans-83"/>
       <path d="M 40.578125 39.3125 
Q 47.65625 37.796875 51.625 33 
Q 55.609375 28.21875 55.609375 21.1875 
Q 55.609375 10.40625 48.1875 4.484375 
Q 40.765625 -1.421875 27.09375 -1.421875 
Q 22.515625 -1.421875 17.65625 -0.515625 
Q 12.796875 0.390625 7.625 2.203125 
L 7.625 11.71875 
Q 11.71875 9.328125 16.59375 8.109375 
Q 21.484375 6.890625 26.8125 6.890625 
Q 36.078125 6.890625 40.9375 10.546875 
Q 45.796875 14.203125 45.796875 21.1875 
Q 45.796875 27.640625 41.28125 31.265625 
Q 36.765625 34.90625 28.71875 34.90625 
L 20.21875 34.90625 
L 20.21875 43.015625 
L 29.109375 43.015625 
Q 36.375 43.015625 40.234375 45.921875 
Q 44.09375 48.828125 44.09375 54.296875 
Q 44.09375 59.90625 40.109375 62.90625 
Q 36.140625 65.921875 28.71875 65.921875 
Q 24.65625 65.921875 20.015625 65.03125 
Q 15.375 64.15625 9.8125 62.3125 
L 9.8125 71.09375 
Q 15.4375 72.65625 20.34375 73.4375 
Q 25.25 74.21875 29.59375 74.21875 
Q 40.828125 74.21875 47.359375 69.109375 
Q 53.90625 64.015625 53.90625 55.328125 
Q 53.90625 49.265625 50.4375 45.09375 
Q 46.96875 40.921875 40.578125 39.3125 
z
" id="DejaVuSans-51"/>
      </defs>
      <use xlink:href="#DejaVuSans-83"/>
      <use x="63.476562" xlink:href="#DejaVuSans-84"/>
      <use x="116.810547" xlink:href="#DejaVuSans-65"/>
      <use x="177.46875" xlink:href="#DejaVuSans-84"/>
      <use x="238.552734" xlink:href="#DejaVuSans-51"/>
     </g>
    </g>
   </g>
   <g id="text_5">
    <g clip-path="url(#p7bb5039db0)">
     <!-- JAK1 -->
     <g transform="translate(544.390249 269.175103)scale(0.1 -0.1)">
      <defs>
       <path d="M 9.8125 72.90625 
L 19.671875 72.90625 
L 19.671875 5.078125 
Q 19.671875 -8.109375 14.671875 -14.0625 
Q 9.671875 -20.015625 -1.421875 -20.015625 
L -5.171875 -20.015625 
L -5.171875 -11.71875 
L -2.09375 -11.71875 
Q 4.4375 -11.71875 7.125 -8.046875 
Q 9.8125 -4.390625 9.8125 5.078125 
z
" id="DejaVuSans-74"/>
       <path d="M 9.8125 72.90625 
L 19.671875 72.90625 
L 19.671875 42.09375 
L 52.390625 72.90625 
L 65.09375 72.90625 
L 28.90625 38.921875 
L 67.671875 0 
L 54.6875 0 
L 19.671875 35.109375 
L 19.671875 0 
L 9.8125 0 
z
" id="DejaVuSans-75"/>
      </defs>
      <use xlink:href="#DejaVuSans-74"/>
      <use x="27.742188" xlink:href="#DejaVuSans-65"/>
      <use x="96.150391" xlink:href="#DejaVuSans-75"/>
      <use x="161.726562" xlink:href="#DejaVuSans-49"/>
     </g>
    </g>
   </g>
   <g id="text_6">
    <g clip-path="url(#p7bb5039db0)">
     <!-- TLR3 -->
     <g transform="translate(278.790776 97.341357)scale(0.1 -0.1)">
      <use xlink:href="#DejaVuSans-84"/>
      <use x="61.083984" xlink:href="#DejaVuSans-76"/>
      <use x="116.796875" xlink:href="#DejaVuSans-82"/>
      <use x="186.279297" xlink:href="#DejaVuSans-51"/>
     </g>
    </g>
   </g>
   <g id="text_7">
    <g clip-path="url(#p7bb5039db0)">
     <!-- MYD88 -->
     <g transform="translate(277.730769 285.465)scale(0.1 -0.1)">
      <defs>
       <path d="M -0.203125 72.90625 
L 10.40625 72.90625 
L 30.609375 42.921875 
L 50.6875 72.90625 
L 61.28125 72.90625 
L 35.5 34.71875 
L 35.5 0 
L 25.59375 0 
L 25.59375 34.71875 
z
" id="DejaVuSans-89"/>
       <path d="M 31.78125 34.625 
Q 24.75 34.625 20.71875 30.859375 
Q 16.703125 27.09375 16.703125 20.515625 
Q 16.703125 13.921875 20.71875 10.15625 
Q 24.75 6.390625 31.78125 6.390625 
Q 38.8125 6.390625 42.859375 10.171875 
Q 46.921875 13.96875 46.921875 20.515625 
Q 46.921875 27.09375 42.890625 30.859375 
Q 38.875 34.625 31.78125 34.625 
z
M 21.921875 38.8125 
Q 15.578125 40.375 12.03125 44.71875 
Q 8.5 49.078125 8.5 55.328125 
Q 8.5 64.0625 14.71875 69.140625 
Q 20.953125 74.21875 31.78125 74.21875 
Q 42.671875 74.21875 48.875 69.140625 
Q 55.078125 64.0625 55.078125 55.328125 
Q 55.078125 49.078125 51.53125 44.71875 
Q 48 40.375 41.703125 38.8125 
Q 48.828125 37.15625 52.796875 32.3125 
Q 56.78125 27.484375 56.78125 20.515625 
Q 56.78125 9.90625 50.3125 4.234375 
Q 43.84375 -1.421875 31.78125 -1.421875 
Q 19.734375 -1.421875 13.25 4.234375 
Q 6.78125 9.90625 6.78125 20.515625 
Q 6.78125 27.484375 10.78125 32.3125 
Q 14.796875 37.15625 21.921875 38.8125 
z
M 18.3125 54.390625 
Q 18.3125 48.734375 21.84375 45.5625 
Q 25.390625 42.390625 31.78125 42.390625 
Q 38.140625 42.390625 41.71875 45.5625 
Q 45.3125 48.734375 45.3125 54.390625 
Q 45.3125 60.0625 41.71875 63.234375 
Q 38.140625 66.40625 31.78125 66.40625 
Q 25.390625 66.40625 21.84375 63.234375 
Q 18.3125 60.0625 18.3125 54.390625 
z
" id="DejaVuSans-56"/>
      </defs>
      <use xlink:href="#DejaVuSans-77"/>
      <use x="86.279297" xlink:href="#DejaVuSans-89"/>
      <use x="147.363281" xlink:href="#DejaVuSans-68"/>
      <use x="224.365234" xlink:href="#DejaVuSans-56"/>
      <use x="287.988281" xlink:href="#DejaVuSans-56"/>
     </g>
    </g>
   </g>
   <g id="text_8">
    <g clip-path="url(#p7bb5039db0)">
     <!-- IFIH1 -->
     <g transform="translate(359.40356 63.564773)scale(0.1 -0.1)">
      <defs>
       <path d="M 9.8125 72.90625 
L 19.671875 72.90625 
L 19.671875 43.015625 
L 55.515625 43.015625 
L 55.515625 72.90625 
L 65.375 72.90625 
L 65.375 0 
L 55.515625 0 
L 55.515625 34.71875 
L 19.671875 34.71875 
L 19.671875 0 
L 9.8125 0 
z
" id="DejaVuSans-72"/>
      </defs>
      <use xlink:href="#DejaVuSans-73"/>
      <use x="29.492188" xlink:href="#DejaVuSans-70"/>
      <use x="87.011719" xlink:href="#DejaVuSans-73"/>
      <use x="116.503906" xlink:href="#DejaVuSans-72"/>
      <use x="191.699219" xlink:href="#DejaVuSans-49"/>
     </g>
    </g>
   </g>
   <g id="text_9">
    <g clip-path="url(#p7bb5039db0)">
     <!-- MAVS -->
     <g transform="translate(177.185442 201.546895)scale(0.1 -0.1)">
      <defs>
       <path d="M 28.609375 0 
L 0.78125 72.90625 
L 11.078125 72.90625 
L 34.1875 11.53125 
L 57.328125 72.90625 
L 67.578125 72.90625 
L 39.796875 0 
z
" id="DejaVuSans-86"/>
      </defs>
      <use xlink:href="#DejaVuSans-77"/>
      <use x="86.279297" xlink:href="#DejaVuSans-65"/>
      <use x="148.3125" xlink:href="#DejaVuSans-86"/>
      <use x="216.720703" xlink:href="#DejaVuSans-83"/>
     </g>
    </g>
   </g>
   <g id="text_10">
    <g clip-path="url(#p7bb5039db0)">
     <!-- IRF3 -->
     <g transform="translate(583.490591 109.509079)scale(0.1 -0.1)">
      <use xlink:href="#DejaVuSans-73"/>
      <use x="29.492188" xlink:href="#DejaVuSans-82"/>
      <use x="98.974609" xlink:href="#DejaVuSans-70"/>
      <use x="156.494141" xlink:href="#DejaVuSans-51"/>
     </g>
    </g>
   </g>
   <g id="text_11">
    <g clip-path="url(#p7bb5039db0)">
     <!-- STAT1 -->
     <g transform="translate(464.054514 420.828434)scale(0.1 -0.1)">
      <use xlink:href="#DejaVuSans-83"/>
      <use x="63.476562" xlink:href="#DejaVuSans-84"/>
      <use x="116.810547" xlink:href="#DejaVuSans-65"/>
      <use x="177.46875" xlink:href="#DejaVuSans-84"/>
      <use x="238.552734" xlink:href="#DejaVuSans-49"/>
     </g>
    </g>
   </g>
   <g id="text_12">
    <g clip-path="url(#p7bb5039db0)">
     <!-- IRF9 -->
     <g transform="translate(173.262424 368.9209)scale(0.1 -0.1)">
      <defs>
       <path d="M 10.984375 1.515625 
L 10.984375 10.5 
Q 14.703125 8.734375 18.5 7.8125 
Q 22.3125 6.890625 25.984375 6.890625 
Q 35.75 6.890625 40.890625 13.453125 
Q 46.046875 20.015625 46.78125 33.40625 
Q 43.953125 29.203125 39.59375 26.953125 
Q 35.25 24.703125 29.984375 24.703125 
Q 19.046875 24.703125 12.671875 31.3125 
Q 6.296875 37.9375 6.296875 49.421875 
Q 6.296875 60.640625 12.9375 67.421875 
Q 19.578125 74.21875 30.609375 74.21875 
Q 43.265625 74.21875 49.921875 64.515625 
Q 56.59375 54.828125 56.59375 36.375 
Q 56.59375 19.140625 48.40625 8.859375 
Q 40.234375 -1.421875 26.421875 -1.421875 
Q 22.703125 -1.421875 18.890625 -0.6875 
Q 15.09375 0.046875 10.984375 1.515625 
z
M 30.609375 32.421875 
Q 37.25 32.421875 41.125 36.953125 
Q 45.015625 41.5 45.015625 49.421875 
Q 45.015625 57.28125 41.125 61.84375 
Q 37.25 66.40625 30.609375 66.40625 
Q 23.96875 66.40625 20.09375 61.84375 
Q 16.21875 57.28125 16.21875 49.421875 
Q 16.21875 41.5 20.09375 36.953125 
Q 23.96875 32.421875 30.609375 32.421875 
z
" id="DejaVuSans-57"/>
      </defs>
      <use xlink:href="#DejaVuSans-73"/>
      <use x="29.492188" xlink:href="#DejaVuSans-82"/>
      <use x="98.974609" xlink:href="#DejaVuSans-70"/>
      <use x="156.494141" xlink:href="#DejaVuSans-57"/>
     </g>
    </g>
   </g>
   <g id="text_13">
    <g clip-path="url(#p7bb5039db0)">
     <!-- TRAF6 -->
     <g transform="translate(237.952954 138.417226)scale(0.1 -0.1)">
      <use xlink:href="#DejaVuSans-84"/>
      <use x="61.083984" xlink:href="#DejaVuSans-82"/>
      <use x="126.566406" xlink:href="#DejaVuSans-65"/>
      <use x="194.974609" xlink:href="#DejaVuSans-70"/>
      <use x="252.494141" xlink:href="#DejaVuSans-54"/>
     </g>
    </g>
   </g>
   <g id="text_14">
    <g clip-path="url(#p7bb5039db0)">
     <!-- ADAR -->
     <g transform="translate(51.228441 273.025033)scale(0.1 -0.1)">
      <use xlink:href="#DejaVuSans-65"/>
      <use x="68.408203" xlink:href="#DejaVuSans-68"/>
      <use x="143.660156" xlink:href="#DejaVuSans-65"/>
      <use x="212.068359" xlink:href="#DejaVuSans-82"/>
     </g>
    </g>
   </g>
   <g id="text_15">
    <g clip-path="url(#p7bb5039db0)">
     <!-- MAP3K7 -->
     <g transform="translate(442.291989 312.92409)scale(0.1 -0.1)">
      <defs>
       <path d="M 19.671875 64.796875 
L 19.671875 37.40625 
L 32.078125 37.40625 
Q 38.96875 37.40625 42.71875 40.96875 
Q 46.484375 44.53125 46.484375 51.125 
Q 46.484375 57.671875 42.71875 61.234375 
Q 38.96875 64.796875 32.078125 64.796875 
z
M 9.8125 72.90625 
L 32.078125 72.90625 
Q 44.34375 72.90625 50.609375 67.359375 
Q 56.890625 61.8125 56.890625 51.125 
Q 56.890625 40.328125 50.609375 34.8125 
Q 44.34375 29.296875 32.078125 29.296875 
L 19.671875 29.296875 
L 19.671875 0 
L 9.8125 0 
z
" id="DejaVuSans-80"/>
      </defs>
      <use xlink:href="#DejaVuSans-77"/>
      <use x="86.279297" xlink:href="#DejaVuSans-65"/>
      <use x="154.6875" xlink:href="#DejaVuSans-80"/>
      <use x="214.990234" xlink:href="#DejaVuSans-51"/>
      <use x="278.613281" xlink:href="#DejaVuSans-75"/>
      <use x="344.189453" xlink:href="#DejaVuSans-55"/>
     </g>
    </g>
   </g>
   <g id="text_16">
    <g clip-path="url(#p7bb5039db0)">
     <!-- IKBKE -->
     <g transform="translate(604.071559 309.164723)scale(0.1 -0.1)">
      <defs>
       <path d="M 19.671875 34.8125 
L 19.671875 8.109375 
L 35.5 8.109375 
Q 43.453125 8.109375 47.28125 11.40625 
Q 51.125 14.703125 51.125 21.484375 
Q 51.125 28.328125 47.28125 31.5625 
Q 43.453125 34.8125 35.5 34.8125 
z
M 19.671875 64.796875 
L 19.671875 42.828125 
L 34.28125 42.828125 
Q 41.5 42.828125 45.03125 45.53125 
Q 48.578125 48.25 48.578125 53.8125 
Q 48.578125 59.328125 45.03125 62.0625 
Q 41.5 64.796875 34.28125 64.796875 
z
M 9.8125 72.90625 
L 35.015625 72.90625 
Q 46.296875 72.90625 52.390625 68.21875 
Q 58.5 63.53125 58.5 54.890625 
Q 58.5 48.1875 55.375 44.234375 
Q 52.25 40.28125 46.1875 39.3125 
Q 53.46875 37.75 57.5 32.78125 
Q 61.53125 27.828125 61.53125 20.40625 
Q 61.53125 10.640625 54.890625 5.3125 
Q 48.25 0 35.984375 0 
L 9.8125 0 
z
" id="DejaVuSans-66"/>
       <path d="M 9.8125 72.90625 
L 55.90625 72.90625 
L 55.90625 64.59375 
L 19.671875 64.59375 
L 19.671875 43.015625 
L 54.390625 43.015625 
L 54.390625 34.71875 
L 19.671875 34.71875 
L 19.671875 8.296875 
L 56.78125 8.296875 
L 56.78125 0 
L 9.8125 0 
z
" id="DejaVuSans-69"/>
      </defs>
      <use xlink:href="#DejaVuSans-73"/>
      <use x="29.492188" xlink:href="#DejaVuSans-75"/>
      <use x="95.068359" xlink:href="#DejaVuSans-66"/>
      <use x="163.671875" xlink:href="#DejaVuSans-75"/>
      <use x="229.248047" xlink:href="#DejaVuSans-69"/>
     </g>
    </g>
   </g>
   <g id="text_17">
    <g clip-path="url(#p7bb5039db0)">
     <!-- TBK1 -->
     <g transform="translate(366.993246 317.33167)scale(0.1 -0.1)">
      <use xlink:href="#DejaVuSans-84"/>
      <use x="61.083984" xlink:href="#DejaVuSans-66"/>
      <use x="129.6875" xlink:href="#DejaVuSans-75"/>
      <use x="195.263672" xlink:href="#DejaVuSans-49"/>
     </g>
    </g>
   </g>
   <g id="text_18">
    <g clip-path="url(#p7bb5039db0)">
     <!-- EIF2AK2 -->
     <g transform="translate(78.631507 311.740619)scale(0.1 -0.1)">
      <defs>
       <path d="M 19.1875 8.296875 
L 53.609375 8.296875 
L 53.609375 0 
L 7.328125 0 
L 7.328125 8.296875 
Q 12.9375 14.109375 22.625 23.890625 
Q 32.328125 33.6875 34.8125 36.53125 
Q 39.546875 41.84375 41.421875 45.53125 
Q 43.3125 49.21875 43.3125 52.78125 
Q 43.3125 58.59375 39.234375 62.25 
Q 35.15625 65.921875 28.609375 65.921875 
Q 23.96875 65.921875 18.8125 64.3125 
Q 13.671875 62.703125 7.8125 59.421875 
L 7.8125 69.390625 
Q 13.765625 71.78125 18.9375 73 
Q 24.125 74.21875 28.421875 74.21875 
Q 39.75 74.21875 46.484375 68.546875 
Q 53.21875 62.890625 53.21875 53.421875 
Q 53.21875 48.921875 51.53125 44.890625 
Q 49.859375 40.875 45.40625 35.40625 
Q 44.1875 33.984375 37.640625 27.21875 
Q 31.109375 20.453125 19.1875 8.296875 
z
" id="DejaVuSans-50"/>
      </defs>
      <use xlink:href="#DejaVuSans-69"/>
      <use x="63.183594" xlink:href="#DejaVuSans-73"/>
      <use x="92.675781" xlink:href="#DejaVuSans-70"/>
      <use x="150.195312" xlink:href="#DejaVuSans-50"/>
      <use x="213.818359" xlink:href="#DejaVuSans-65"/>
      <use x="282.226562" xlink:href="#DejaVuSans-75"/>
      <use x="347.802734" xlink:href="#DejaVuSans-50"/>
     </g>
    </g>
   </g>
   <g id="text_19">
    <g clip-path="url(#p7bb5039db0)">
     <!-- TRAF3 -->
     <g transform="translate(428.596391 328.596519)scale(0.1 -0.1)">
      <use xlink:href="#DejaVuSans-84"/>
      <use x="61.083984" xlink:href="#DejaVuSans-82"/>
      <use x="126.566406" xlink:href="#DejaVuSans-65"/>
      <use x="194.974609" xlink:href="#DejaVuSans-70"/>
      <use x="252.494141" xlink:href="#DejaVuSans-51"/>
     </g>
    </g>
   </g>
   <g id="text_20">
    <g clip-path="url(#p7bb5039db0)">
     <!-- STAT2 -->
     <g transform="translate(442.128216 276.104865)scale(0.1 -0.1)">
      <use xlink:href="#DejaVuSans-83"/>
      <use x="63.476562" xlink:href="#DejaVuSans-84"/>
      <use x="116.810547" xlink:href="#DejaVuSans-65"/>
      <use x="177.46875" xlink:href="#DejaVuSans-84"/>
      <use x="238.552734" xlink:href="#DejaVuSans-50"/>
     </g>
    </g>
   </g>
   <g id="text_21">
    <g clip-path="url(#p7bb5039db0)">
     <!-- TNFRSF1A -->
     <g transform="translate(425.974447 299.934946)scale(0.1 -0.1)">
      <use xlink:href="#DejaVuSans-84"/>
      <use x="61.083984" xlink:href="#DejaVuSans-78"/>
      <use x="135.888672" xlink:href="#DejaVuSans-70"/>
      <use x="193.408203" xlink:href="#DejaVuSans-82"/>
      <use x="262.890625" xlink:href="#DejaVuSans-83"/>
      <use x="326.367188" xlink:href="#DejaVuSans-70"/>
      <use x="383.886719" xlink:href="#DejaVuSans-49"/>
      <use x="447.509766" xlink:href="#DejaVuSans-65"/>
     </g>
    </g>
   </g>
   <g id="text_22">
    <g clip-path="url(#p7bb5039db0)">
     <!-- IL6ST -->
     <g transform="translate(229.485732 347.224478)scale(0.1 -0.1)">
      <use xlink:href="#DejaVuSans-73"/>
      <use x="29.492188" xlink:href="#DejaVuSans-76"/>
      <use x="85.205078" xlink:href="#DejaVuSans-54"/>
      <use x="148.828125" xlink:href="#DejaVuSans-83"/>
      <use x="212.304688" xlink:href="#DejaVuSans-84"/>
     </g>
    </g>
   </g>
   <g id="text_23">
    <g clip-path="url(#p7bb5039db0)">
     <!-- FCGR2A -->
     <g transform="translate(151.785996 268.340737)scale(0.1 -0.1)">
      <defs>
       <path d="M 64.40625 67.28125 
L 64.40625 56.890625 
Q 59.421875 61.53125 53.78125 63.8125 
Q 48.140625 66.109375 41.796875 66.109375 
Q 29.296875 66.109375 22.65625 58.46875 
Q 16.015625 50.828125 16.015625 36.375 
Q 16.015625 21.96875 22.65625 14.328125 
Q 29.296875 6.6875 41.796875 6.6875 
Q 48.140625 6.6875 53.78125 8.984375 
Q 59.421875 11.28125 64.40625 15.921875 
L 64.40625 5.609375 
Q 59.234375 2.09375 53.4375 0.328125 
Q 47.65625 -1.421875 41.21875 -1.421875 
Q 24.65625 -1.421875 15.125 8.703125 
Q 5.609375 18.84375 5.609375 36.375 
Q 5.609375 53.953125 15.125 64.078125 
Q 24.65625 74.21875 41.21875 74.21875 
Q 47.75 74.21875 53.53125 72.484375 
Q 59.328125 70.75 64.40625 67.28125 
z
" id="DejaVuSans-67"/>
       <path d="M 59.515625 10.40625 
L 59.515625 29.984375 
L 43.40625 29.984375 
L 43.40625 38.09375 
L 69.28125 38.09375 
L 69.28125 6.78125 
Q 63.578125 2.734375 56.6875 0.65625 
Q 49.8125 -1.421875 42 -1.421875 
Q 24.90625 -1.421875 15.25 8.5625 
Q 5.609375 18.5625 5.609375 36.375 
Q 5.609375 54.25 15.25 64.234375 
Q 24.90625 74.21875 42 74.21875 
Q 49.125 74.21875 55.546875 72.453125 
Q 61.96875 70.703125 67.390625 67.28125 
L 67.390625 56.78125 
Q 61.921875 61.421875 55.765625 63.765625 
Q 49.609375 66.109375 42.828125 66.109375 
Q 29.4375 66.109375 22.71875 58.640625 
Q 16.015625 51.171875 16.015625 36.375 
Q 16.015625 21.625 22.71875 14.15625 
Q 29.4375 6.6875 42.828125 6.6875 
Q 48.046875 6.6875 52.140625 7.59375 
Q 56.25 8.5 59.515625 10.40625 
z
" id="DejaVuSans-71"/>
      </defs>
      <use xlink:href="#DejaVuSans-70"/>
      <use x="57.519531" xlink:href="#DejaVuSans-67"/>
      <use x="127.34375" xlink:href="#DejaVuSans-71"/>
      <use x="204.833984" xlink:href="#DejaVuSans-82"/>
      <use x="274.316406" xlink:href="#DejaVuSans-50"/>
      <use x="337.939453" xlink:href="#DejaVuSans-65"/>
     </g>
    </g>
   </g>
   <g id="text_24">
    <g clip-path="url(#p7bb5039db0)">
     <!-- SYK -->
     <g transform="translate(453.756853 428.009746)scale(0.1 -0.1)">
      <use xlink:href="#DejaVuSans-83"/>
      <use x="63.476562" xlink:href="#DejaVuSans-89"/>
      <use x="124.560547" xlink:href="#DejaVuSans-75"/>
     </g>
    </g>
   </g>
   <g id="text_25">
    <g clip-path="url(#p7bb5039db0)">
     <!-- ISG15 -->
     <g transform="translate(310.372816 95.819895)scale(0.1 -0.1)">
      <defs>
       <path d="M 10.796875 72.90625 
L 49.515625 72.90625 
L 49.515625 64.59375 
L 19.828125 64.59375 
L 19.828125 46.734375 
Q 21.96875 47.46875 24.109375 47.828125 
Q 26.265625 48.1875 28.421875 48.1875 
Q 40.625 48.1875 47.75 41.5 
Q 54.890625 34.8125 54.890625 23.390625 
Q 54.890625 11.625 47.5625 5.09375 
Q 40.234375 -1.421875 26.90625 -1.421875 
Q 22.3125 -1.421875 17.546875 -0.640625 
Q 12.796875 0.140625 7.71875 1.703125 
L 7.71875 11.625 
Q 12.109375 9.234375 16.796875 8.0625 
Q 21.484375 6.890625 26.703125 6.890625 
Q 35.15625 6.890625 40.078125 11.328125 
Q 45.015625 15.765625 45.015625 23.390625 
Q 45.015625 31 40.078125 35.4375 
Q 35.15625 39.890625 26.703125 39.890625 
Q 22.75 39.890625 18.8125 39.015625 
Q 14.890625 38.140625 10.796875 36.28125 
z
" id="DejaVuSans-53"/>
      </defs>
      <use xlink:href="#DejaVuSans-73"/>
      <use x="29.492188" xlink:href="#DejaVuSans-83"/>
      <use x="92.96875" xlink:href="#DejaVuSans-71"/>
      <use x="170.458984" xlink:href="#DejaVuSans-49"/>
      <use x="234.082031" xlink:href="#DejaVuSans-53"/>
     </g>
    </g>
   </g>
   <g id="text_26">
    <g clip-path="url(#p7bb5039db0)">
     <!-- IL12A -->
     <g transform="translate(331.009025 67.949262)scale(0.1 -0.1)">
      <use xlink:href="#DejaVuSans-73"/>
      <use x="29.492188" xlink:href="#DejaVuSans-76"/>
      <use x="85.205078" xlink:href="#DejaVuSans-49"/>
      <use x="148.828125" xlink:href="#DejaVuSans-50"/>
      <use x="212.451172" xlink:href="#DejaVuSans-65"/>
     </g>
    </g>
   </g>
   <g id="text_27">
    <g clip-path="url(#p7bb5039db0)">
     <!-- TLR7 -->
     <g transform="translate(533.311947 251.957197)scale(0.1 -0.1)">
      <use xlink:href="#DejaVuSans-84"/>
      <use x="61.083984" xlink:href="#DejaVuSans-76"/>
      <use x="116.796875" xlink:href="#DejaVuSans-82"/>
      <use x="186.279297" xlink:href="#DejaVuSans-55"/>
     </g>
    </g>
   </g>
   <g id="text_28">
    <g clip-path="url(#p7bb5039db0)">
     <!-- IRAK1 -->
     <g transform="translate(527.631932 212.386234)scale(0.1 -0.1)">
      <use xlink:href="#DejaVuSans-73"/>
      <use x="29.492188" xlink:href="#DejaVuSans-82"/>
      <use x="94.974609" xlink:href="#DejaVuSans-65"/>
      <use x="163.382812" xlink:href="#DejaVuSans-75"/>
      <use x="228.958984" xlink:href="#DejaVuSans-49"/>
     </g>
    </g>
   </g>
   <g id="text_29">
    <g clip-path="url(#p7bb5039db0)">
     <!-- IRAK4 -->
     <g transform="translate(144.378526 282.624606)scale(0.1 -0.1)">
      <defs>
       <path d="M 37.796875 64.3125 
L 12.890625 25.390625 
L 37.796875 25.390625 
z
M 35.203125 72.90625 
L 47.609375 72.90625 
L 47.609375 25.390625 
L 58.015625 25.390625 
L 58.015625 17.1875 
L 47.609375 17.1875 
L 47.609375 0 
L 37.796875 0 
L 37.796875 17.1875 
L 4.890625 17.1875 
L 4.890625 26.703125 
z
" id="DejaVuSans-52"/>
      </defs>
      <use xlink:href="#DejaVuSans-73"/>
      <use x="29.492188" xlink:href="#DejaVuSans-82"/>
      <use x="94.974609" xlink:href="#DejaVuSans-65"/>
      <use x="163.382812" xlink:href="#DejaVuSans-75"/>
      <use x="228.958984" xlink:href="#DejaVuSans-52"/>
     </g>
    </g>
   </g>
   <g id="text_30">
    <g clip-path="url(#p7bb5039db0)">
     <!-- NFKBIB -->
     <g transform="translate(373.504276 430.110227)scale(0.1 -0.1)">
      <use xlink:href="#DejaVuSans-78"/>
      <use x="74.804688" xlink:href="#DejaVuSans-70"/>
      <use x="132.324219" xlink:href="#DejaVuSans-75"/>
      <use x="197.900391" xlink:href="#DejaVuSans-66"/>
      <use x="266.503906" xlink:href="#DejaVuSans-73"/>
      <use x="295.996094" xlink:href="#DejaVuSans-66"/>
     </g>
    </g>
   </g>
   <g id="text_31">
    <g clip-path="url(#p7bb5039db0)">
     <!-- NFKBIA -->
     <g transform="translate(575.778801 375.213719)scale(0.1 -0.1)">
      <use xlink:href="#DejaVuSans-78"/>
      <use x="74.804688" xlink:href="#DejaVuSans-70"/>
      <use x="132.324219" xlink:href="#DejaVuSans-75"/>
      <use x="197.900391" xlink:href="#DejaVuSans-66"/>
      <use x="266.503906" xlink:href="#DejaVuSans-73"/>
      <use x="295.996094" xlink:href="#DejaVuSans-65"/>
     </g>
    </g>
   </g>
   <g id="text_32">
    <g clip-path="url(#p7bb5039db0)">
     <!-- NFKB1 -->
     <g transform="translate(197.084191 147.341274)scale(0.1 -0.1)">
      <use xlink:href="#DejaVuSans-78"/>
      <use x="74.804688" xlink:href="#DejaVuSans-70"/>
      <use x="132.324219" xlink:href="#DejaVuSans-75"/>
      <use x="197.900391" xlink:href="#DejaVuSans-66"/>
      <use x="266.503906" xlink:href="#DejaVuSans-49"/>
     </g>
    </g>
   </g>
   <g id="text_33">
    <g clip-path="url(#p7bb5039db0)">
     <!-- RELA -->
     <g transform="translate(418.273721 70.954958)scale(0.1 -0.1)">
      <use xlink:href="#DejaVuSans-82"/>
      <use x="69.482422" xlink:href="#DejaVuSans-69"/>
      <use x="132.666016" xlink:href="#DejaVuSans-76"/>
      <use x="190.628906" xlink:href="#DejaVuSans-65"/>
     </g>
    </g>
   </g>
   <g id="text_34">
    <g clip-path="url(#p7bb5039db0)">
     <!-- IFNAR1 -->
     <g transform="translate(290.237089 234.144061)scale(0.1 -0.1)">
      <use xlink:href="#DejaVuSans-73"/>
      <use x="29.492188" xlink:href="#DejaVuSans-70"/>
      <use x="87.011719" xlink:href="#DejaVuSans-78"/>
      <use x="161.816406" xlink:href="#DejaVuSans-65"/>
      <use x="230.224609" xlink:href="#DejaVuSans-82"/>
      <use x="299.707031" xlink:href="#DejaVuSans-49"/>
     </g>
    </g>
   </g>
   <g id="text_35">
    <g clip-path="url(#p7bb5039db0)">
     <!-- IFNAR2 -->
     <g transform="translate(369.348383 273.884167)scale(0.1 -0.1)">
      <use xlink:href="#DejaVuSans-73"/>
      <use x="29.492188" xlink:href="#DejaVuSans-70"/>
      <use x="87.011719" xlink:href="#DejaVuSans-78"/>
      <use x="161.816406" xlink:href="#DejaVuSans-65"/>
      <use x="230.224609" xlink:href="#DejaVuSans-82"/>
      <use x="299.707031" xlink:href="#DejaVuSans-50"/>
     </g>
    </g>
   </g>
   <g id="text_36">
    <g clip-path="url(#p7bb5039db0)">
     <!-- TYK2 -->
     <g transform="translate(363.688099 200.2983)scale(0.1 -0.1)">
      <use xlink:href="#DejaVuSans-84"/>
      <use x="61.083984" xlink:href="#DejaVuSans-89"/>
      <use x="122.167969" xlink:href="#DejaVuSans-75"/>
      <use x="187.744141" xlink:href="#DejaVuSans-50"/>
     </g>
    </g>
   </g>
   <g id="text_37">
    <g clip-path="url(#p7bb5039db0)">
     <!-- IKBKB -->
     <g transform="translate(381.009815 246.063758)scale(0.1 -0.1)">
      <use xlink:href="#DejaVuSans-73"/>
      <use x="29.492188" xlink:href="#DejaVuSans-75"/>
      <use x="95.068359" xlink:href="#DejaVuSans-66"/>
      <use x="163.671875" xlink:href="#DejaVuSans-75"/>
      <use x="229.248047" xlink:href="#DejaVuSans-66"/>
     </g>
    </g>
   </g>
   <g id="text_38">
    <g clip-path="url(#p7bb5039db0)">
     <!-- IKBKG -->
     <g transform="translate(264.796308 407.057194)scale(0.1 -0.1)">
      <use xlink:href="#DejaVuSans-73"/>
      <use x="29.492188" xlink:href="#DejaVuSans-75"/>
      <use x="95.068359" xlink:href="#DejaVuSans-66"/>
      <use x="163.671875" xlink:href="#DejaVuSans-75"/>
      <use x="229.248047" xlink:href="#DejaVuSans-71"/>
     </g>
    </g>
   </g>
   <g id="text_39">
    <g clip-path="url(#p7bb5039db0)">
     <!-- PLCG1 -->
     <g transform="translate(302.456021 421.158356)scale(0.1 -0.1)">
      <use xlink:href="#DejaVuSans-80"/>
      <use x="60.302734" xlink:href="#DejaVuSans-76"/>
      <use x="116.015625" xlink:href="#DejaVuSans-67"/>
      <use x="185.839844" xlink:href="#DejaVuSans-71"/>
      <use x="263.330078" xlink:href="#DejaVuSans-49"/>
     </g>
    </g>
   </g>
   <g id="text_40">
    <g clip-path="url(#p7bb5039db0)">
     <!-- PLCG2 -->
     <g transform="translate(597.067663 295.187344)scale(0.1 -0.1)">
      <use xlink:href="#DejaVuSans-80"/>
      <use x="60.302734" xlink:href="#DejaVuSans-76"/>
      <use x="116.015625" xlink:href="#DejaVuSans-67"/>
      <use x="185.839844" xlink:href="#DejaVuSans-71"/>
      <use x="263.330078" xlink:href="#DejaVuSans-50"/>
     </g>
    </g>
   </g>
   <g id="text_41">
    <!-- Importance Score for Each Node in the Network -->
    <g transform="translate(198.616875 16.318125)scale(0.12 -0.12)">
     <defs>
      <path d="M 52 44.1875 
Q 55.375 50.25 60.0625 53.125 
Q 64.75 56 71.09375 56 
Q 79.640625 56 84.28125 50.015625 
Q 88.921875 44.046875 88.921875 33.015625 
L 88.921875 0 
L 79.890625 0 
L 79.890625 32.71875 
Q 79.890625 40.578125 77.09375 44.375 
Q 74.3125 48.1875 68.609375 48.1875 
Q 61.625 48.1875 57.5625 43.546875 
Q 53.515625 38.921875 53.515625 30.90625 
L 53.515625 0 
L 44.484375 0 
L 44.484375 32.71875 
Q 44.484375 40.625 41.703125 44.40625 
Q 38.921875 48.1875 33.109375 48.1875 
Q 26.21875 48.1875 22.15625 43.53125 
Q 18.109375 38.875 18.109375 30.90625 
L 18.109375 0 
L 9.078125 0 
L 9.078125 54.6875 
L 18.109375 54.6875 
L 18.109375 46.1875 
Q 21.1875 51.21875 25.484375 53.609375 
Q 29.78125 56 35.6875 56 
Q 41.65625 56 45.828125 52.96875 
Q 50 49.953125 52 44.1875 
z
" id="DejaVuSans-109"/>
      <path d="M 18.109375 8.203125 
L 18.109375 -20.796875 
L 9.078125 -20.796875 
L 9.078125 54.6875 
L 18.109375 54.6875 
L 18.109375 46.390625 
Q 20.953125 51.265625 25.265625 53.625 
Q 29.59375 56 35.59375 56 
Q 45.5625 56 51.78125 48.09375 
Q 58.015625 40.1875 58.015625 27.296875 
Q 58.015625 14.40625 51.78125 6.484375 
Q 45.5625 -1.421875 35.59375 -1.421875 
Q 29.59375 -1.421875 25.265625 0.953125 
Q 20.953125 3.328125 18.109375 8.203125 
z
M 48.6875 27.296875 
Q 48.6875 37.203125 44.609375 42.84375 
Q 40.53125 48.484375 33.40625 48.484375 
Q 26.265625 48.484375 22.1875 42.84375 
Q 18.109375 37.203125 18.109375 27.296875 
Q 18.109375 17.390625 22.1875 11.75 
Q 26.265625 6.109375 33.40625 6.109375 
Q 40.53125 6.109375 44.609375 11.75 
Q 48.6875 17.390625 48.6875 27.296875 
z
" id="DejaVuSans-112"/>
      <path d="M 30.609375 48.390625 
Q 23.390625 48.390625 19.1875 42.75 
Q 14.984375 37.109375 14.984375 27.296875 
Q 14.984375 17.484375 19.15625 11.84375 
Q 23.34375 6.203125 30.609375 6.203125 
Q 37.796875 6.203125 41.984375 11.859375 
Q 46.1875 17.53125 46.1875 27.296875 
Q 46.1875 37.015625 41.984375 42.703125 
Q 37.796875 48.390625 30.609375 48.390625 
z
M 30.609375 56 
Q 42.328125 56 49.015625 48.375 
Q 55.71875 40.765625 55.71875 27.296875 
Q 55.71875 13.875 49.015625 6.21875 
Q 42.328125 -1.421875 30.609375 -1.421875 
Q 18.84375 -1.421875 12.171875 6.21875 
Q 5.515625 13.875 5.515625 27.296875 
Q 5.515625 40.765625 12.171875 48.375 
Q 18.84375 56 30.609375 56 
z
" id="DejaVuSans-111"/>
      <path d="M 41.109375 46.296875 
Q 39.59375 47.171875 37.8125 47.578125 
Q 36.03125 48 33.890625 48 
Q 26.265625 48 22.1875 43.046875 
Q 18.109375 38.09375 18.109375 28.8125 
L 18.109375 0 
L 9.078125 0 
L 9.078125 54.6875 
L 18.109375 54.6875 
L 18.109375 46.1875 
Q 20.953125 51.171875 25.484375 53.578125 
Q 30.03125 56 36.53125 56 
Q 37.453125 56 38.578125 55.875 
Q 39.703125 55.765625 41.0625 55.515625 
z
" id="DejaVuSans-114"/>
      <path d="M 18.3125 70.21875 
L 18.3125 54.6875 
L 36.8125 54.6875 
L 36.8125 47.703125 
L 18.3125 47.703125 
L 18.3125 18.015625 
Q 18.3125 11.328125 20.140625 9.421875 
Q 21.96875 7.515625 27.59375 7.515625 
L 36.8125 7.515625 
L 36.8125 0 
L 27.59375 0 
Q 17.1875 0 13.234375 3.875 
Q 9.28125 7.765625 9.28125 18.015625 
L 9.28125 47.703125 
L 2.6875 47.703125 
L 2.6875 54.6875 
L 9.28125 54.6875 
L 9.28125 70.21875 
z
" id="DejaVuSans-116"/>
      <path d="M 34.28125 27.484375 
Q 23.390625 27.484375 19.1875 25 
Q 14.984375 22.515625 14.984375 16.5 
Q 14.984375 11.71875 18.140625 8.90625 
Q 21.296875 6.109375 26.703125 6.109375 
Q 34.1875 6.109375 38.703125 11.40625 
Q 43.21875 16.703125 43.21875 25.484375 
L 43.21875 27.484375 
z
M 52.203125 31.203125 
L 52.203125 0 
L 43.21875 0 
L 43.21875 8.296875 
Q 40.140625 3.328125 35.546875 0.953125 
Q 30.953125 -1.421875 24.3125 -1.421875 
Q 15.921875 -1.421875 10.953125 3.296875 
Q 6 8.015625 6 15.921875 
Q 6 25.140625 12.171875 29.828125 
Q 18.359375 34.515625 30.609375 34.515625 
L 43.21875 34.515625 
L 43.21875 35.40625 
Q 43.21875 41.609375 39.140625 45 
Q 35.0625 48.390625 27.6875 48.390625 
Q 23 48.390625 18.546875 47.265625 
Q 14.109375 46.140625 10.015625 43.890625 
L 10.015625 52.203125 
Q 14.9375 54.109375 19.578125 55.046875 
Q 24.21875 56 28.609375 56 
Q 40.484375 56 46.34375 49.84375 
Q 52.203125 43.703125 52.203125 31.203125 
z
" id="DejaVuSans-97"/>
      <path d="M 54.890625 33.015625 
L 54.890625 0 
L 45.90625 0 
L 45.90625 32.71875 
Q 45.90625 40.484375 42.875 44.328125 
Q 39.84375 48.1875 33.796875 48.1875 
Q 26.515625 48.1875 22.3125 43.546875 
Q 18.109375 38.921875 18.109375 30.90625 
L 18.109375 0 
L 9.078125 0 
L 9.078125 54.6875 
L 18.109375 54.6875 
L 18.109375 46.1875 
Q 21.34375 51.125 25.703125 53.5625 
Q 30.078125 56 35.796875 56 
Q 45.21875 56 50.046875 50.171875 
Q 54.890625 44.34375 54.890625 33.015625 
z
" id="DejaVuSans-110"/>
      <path d="M 48.78125 52.59375 
L 48.78125 44.1875 
Q 44.96875 46.296875 41.140625 47.34375 
Q 37.3125 48.390625 33.40625 48.390625 
Q 24.65625 48.390625 19.8125 42.84375 
Q 14.984375 37.3125 14.984375 27.296875 
Q 14.984375 17.28125 19.8125 11.734375 
Q 24.65625 6.203125 33.40625 6.203125 
Q 37.3125 6.203125 41.140625 7.25 
Q 44.96875 8.296875 48.78125 10.40625 
L 48.78125 2.09375 
Q 45.015625 0.34375 40.984375 -0.53125 
Q 36.96875 -1.421875 32.421875 -1.421875 
Q 20.0625 -1.421875 12.78125 6.34375 
Q 5.515625 14.109375 5.515625 27.296875 
Q 5.515625 40.671875 12.859375 48.328125 
Q 20.21875 56 33.015625 56 
Q 37.15625 56 41.109375 55.140625 
Q 45.0625 54.296875 48.78125 52.59375 
z
" id="DejaVuSans-99"/>
      <path d="M 56.203125 29.59375 
L 56.203125 25.203125 
L 14.890625 25.203125 
Q 15.484375 15.921875 20.484375 11.0625 
Q 25.484375 6.203125 34.421875 6.203125 
Q 39.59375 6.203125 44.453125 7.46875 
Q 49.3125 8.734375 54.109375 11.28125 
L 54.109375 2.78125 
Q 49.265625 0.734375 44.1875 -0.34375 
Q 39.109375 -1.421875 33.890625 -1.421875 
Q 20.796875 -1.421875 13.15625 6.1875 
Q 5.515625 13.8125 5.515625 26.8125 
Q 5.515625 40.234375 12.765625 48.109375 
Q 20.015625 56 32.328125 56 
Q 43.359375 56 49.78125 48.890625 
Q 56.203125 41.796875 56.203125 29.59375 
z
M 47.21875 32.234375 
Q 47.125 39.59375 43.09375 43.984375 
Q 39.0625 48.390625 32.421875 48.390625 
Q 24.90625 48.390625 20.390625 44.140625 
Q 15.875 39.890625 15.1875 32.171875 
z
" id="DejaVuSans-101"/>
      <path id="DejaVuSans-32"/>
      <path d="M 37.109375 75.984375 
L 37.109375 68.5 
L 28.515625 68.5 
Q 23.6875 68.5 21.796875 66.546875 
Q 19.921875 64.59375 19.921875 59.515625 
L 19.921875 54.6875 
L 34.71875 54.6875 
L 34.71875 47.703125 
L 19.921875 47.703125 
L 19.921875 0 
L 10.890625 0 
L 10.890625 47.703125 
L 2.296875 47.703125 
L 2.296875 54.6875 
L 10.890625 54.6875 
L 10.890625 58.5 
Q 10.890625 67.625 15.140625 71.796875 
Q 19.390625 75.984375 28.609375 75.984375 
z
" id="DejaVuSans-102"/>
      <path d="M 54.890625 33.015625 
L 54.890625 0 
L 45.90625 0 
L 45.90625 32.71875 
Q 45.90625 40.484375 42.875 44.328125 
Q 39.84375 48.1875 33.796875 48.1875 
Q 26.515625 48.1875 22.3125 43.546875 
Q 18.109375 38.921875 18.109375 30.90625 
L 18.109375 0 
L 9.078125 0 
L 9.078125 75.984375 
L 18.109375 75.984375 
L 18.109375 46.1875 
Q 21.34375 51.125 25.703125 53.5625 
Q 30.078125 56 35.796875 56 
Q 45.21875 56 50.046875 50.171875 
Q 54.890625 44.34375 54.890625 33.015625 
z
" id="DejaVuSans-104"/>
      <path d="M 45.40625 46.390625 
L 45.40625 75.984375 
L 54.390625 75.984375 
L 54.390625 0 
L 45.40625 0 
L 45.40625 8.203125 
Q 42.578125 3.328125 38.25 0.953125 
Q 33.9375 -1.421875 27.875 -1.421875 
Q 17.96875 -1.421875 11.734375 6.484375 
Q 5.515625 14.40625 5.515625 27.296875 
Q 5.515625 40.1875 11.734375 48.09375 
Q 17.96875 56 27.875 56 
Q 33.9375 56 38.25 53.625 
Q 42.578125 51.265625 45.40625 46.390625 
z
M 14.796875 27.296875 
Q 14.796875 17.390625 18.875 11.75 
Q 22.953125 6.109375 30.078125 6.109375 
Q 37.203125 6.109375 41.296875 11.75 
Q 45.40625 17.390625 45.40625 27.296875 
Q 45.40625 37.203125 41.296875 42.84375 
Q 37.203125 48.484375 30.078125 48.484375 
Q 22.953125 48.484375 18.875 42.84375 
Q 14.796875 37.203125 14.796875 27.296875 
z
" id="DejaVuSans-100"/>
      <path d="M 9.421875 54.6875 
L 18.40625 54.6875 
L 18.40625 0 
L 9.421875 0 
z
M 9.421875 75.984375 
L 18.40625 75.984375 
L 18.40625 64.59375 
L 9.421875 64.59375 
z
" id="DejaVuSans-105"/>
      <path d="M 4.203125 54.6875 
L 13.1875 54.6875 
L 24.421875 12.015625 
L 35.59375 54.6875 
L 46.1875 54.6875 
L 57.421875 12.015625 
L 68.609375 54.6875 
L 77.59375 54.6875 
L 63.28125 0 
L 52.6875 0 
L 40.921875 44.828125 
L 29.109375 0 
L 18.5 0 
z
" id="DejaVuSans-119"/>
      <path d="M 9.078125 75.984375 
L 18.109375 75.984375 
L 18.109375 31.109375 
L 44.921875 54.6875 
L 56.390625 54.6875 
L 27.390625 29.109375 
L 57.625 0 
L 45.90625 0 
L 18.109375 26.703125 
L 18.109375 0 
L 9.078125 0 
z
" id="DejaVuSans-107"/>
     </defs>
     <use xlink:href="#DejaVuSans-73"/>
     <use x="29.492188" xlink:href="#DejaVuSans-109"/>
     <use x="126.904297" xlink:href="#DejaVuSans-112"/>
     <use x="190.380859" xlink:href="#DejaVuSans-111"/>
     <use x="251.5625" xlink:href="#DejaVuSans-114"/>
     <use x="292.675781" xlink:href="#DejaVuSans-116"/>
     <use x="331.884766" xlink:href="#DejaVuSans-97"/>
     <use x="393.164062" xlink:href="#DejaVuSans-110"/>
     <use x="456.542969" xlink:href="#DejaVuSans-99"/>
     <use x="511.523438" xlink:href="#DejaVuSans-101"/>
     <use x="573.046875" xlink:href="#DejaVuSans-32"/>
     <use x="604.833984" xlink:href="#DejaVuSans-83"/>
     <use x="668.310547" xlink:href="#DejaVuSans-99"/>
     <use x="723.291016" xlink:href="#DejaVuSans-111"/>
     <use x="784.472656" xlink:href="#DejaVuSans-114"/>
     <use x="823.335938" xlink:href="#DejaVuSans-101"/>
     <use x="884.859375" xlink:href="#DejaVuSans-32"/>
     <use x="916.646484" xlink:href="#DejaVuSans-102"/>
     <use x="951.851562" xlink:href="#DejaVuSans-111"/>
     <use x="1013.033203" xlink:href="#DejaVuSans-114"/>
     <use x="1054.146484" xlink:href="#DejaVuSans-32"/>
     <use x="1085.933594" xlink:href="#DejaVuSans-69"/>
     <use x="1149.117188" xlink:href="#DejaVuSans-97"/>
     <use x="1210.396484" xlink:href="#DejaVuSans-99"/>
     <use x="1265.376953" xlink:href="#DejaVuSans-104"/>
     <use x="1328.755859" xlink:href="#DejaVuSans-32"/>
     <use x="1360.542969" xlink:href="#DejaVuSans-78"/>
     <use x="1435.347656" xlink:href="#DejaVuSans-111"/>
     <use x="1496.529297" xlink:href="#DejaVuSans-100"/>
     <use x="1560.005859" xlink:href="#DejaVuSans-101"/>
     <use x="1621.529297" xlink:href="#DejaVuSans-32"/>
     <use x="1653.316406" xlink:href="#DejaVuSans-105"/>
     <use x="1681.099609" xlink:href="#DejaVuSans-110"/>
     <use x="1744.478516" xlink:href="#DejaVuSans-32"/>
     <use x="1776.265625" xlink:href="#DejaVuSans-116"/>
     <use x="1815.474609" xlink:href="#DejaVuSans-104"/>
     <use x="1878.853516" xlink:href="#DejaVuSans-101"/>
     <use x="1940.376953" xlink:href="#DejaVuSans-32"/>
     <use x="1972.164062" xlink:href="#DejaVuSans-78"/>
     <use x="2046.96875" xlink:href="#DejaVuSans-101"/>
     <use x="2108.492188" xlink:href="#DejaVuSans-116"/>
     <use x="2147.701172" xlink:href="#DejaVuSans-119"/>
     <use x="2229.488281" xlink:href="#DejaVuSans-111"/>
     <use x="2290.669922" xlink:href="#DejaVuSans-114"/>
     <use x="2331.783203" xlink:href="#DejaVuSans-107"/>
    </g>
   </g>
  </g>
 </g>
 <defs>
  <clipPath id="p7bb5039db0">
   <rect height="443.52" width="669.6" x="7.2" y="22.318125"/>
  </clipPath>
 </defs>
</svg>
