<?xml version="1.0" encoding="utf-8" standalone="no"?>
<!DOCTYPE svg PUBLIC "-//W3C//DTD SVG 1.1//EN"
  "http://www.w3.org/Graphics/SVG/1.1/DTD/svg11.dtd">
<!-- Created with matplotlib (https://matplotlib.org/) -->
<svg height="473.038125pt" version="1.1" viewBox="0 0 684 473.038125" width="684pt" xmlns="http://www.w3.org/2000/svg" xmlns:xlink="http://www.w3.org/1999/xlink">
 <metadata>
  <rdf:RDF xmlns:cc="http://creativecommons.org/ns#" xmlns:dc="http://purl.org/dc/elements/1.1/" xmlns:rdf="http://www.w3.org/1999/02/22-rdf-syntax-ns#">
   <cc:Work>
    <dc:type rdf:resource="http://purl.org/dc/dcmitype/StillImage"/>
    <dc:date>2024-04-26T10:45:50.731479</dc:date>
    <dc:format>image/svg+xml</dc:format>
    <dc:creator>
     <cc:Agent>
      <dc:title>Matplotlib v3.3.1, https://matplotlib.org/</dc:title>
     </cc:Agent>
    </dc:creator>
   </cc:Work>
  </rdf:RDF>
 </metadata>
 <defs>
  <style type="text/css">*{stroke-linecap:butt;stroke-linejoin:round;}</style>
 </defs>
 <g id="figure_1">
  <g id="patch_1">
   <path d="M 0 473.038125 
L 684 473.038125 
L 684 0 
L 0 0 
z
" style="fill:#ffffff;"/>
  </g>
  <g id="axes_1">
   <g id="patch_2">
    <path clip-path="url(#p4427a38bab)" d="M 349.725941 260.383086 
Q 320.016159 273.363593 291.330895 285.896479 
" style="fill:none;stroke:#808080;stroke-linecap:round;"/>
    <path clip-path="url(#p4427a38bab)" d="M 295.797048 286.127729 
L 291.330895 285.896479 
L 294.195587 282.462307 
L 295.797048 286.127729 
z
" style="fill:#808080;stroke:#808080;stroke-linecap:round;"/>
   </g>
   <g id="patch_3">
    <path clip-path="url(#p4427a38bab)" d="M 359.495485 248.452519 
Q 376.137379 171.708829 392.542334 96.057779 
" style="fill:none;stroke:#808080;stroke-linecap:round;"/>
    <path clip-path="url(#p4427a38bab)" d="M 389.740063 99.543073 
L 392.542334 96.057779 
L 393.649207 100.390772 
L 389.740063 99.543073 
z
" style="fill:#808080;stroke:#808080;stroke-linecap:round;"/>
   </g>
   <g id="patch_4">
    <path clip-path="url(#p4427a38bab)" d="M 365.606419 253.47682 
Q 456.854298 213.978027 547.076145 174.923376 
" style="fill:none;stroke:#808080;stroke-linecap:round;"/>
    <path clip-path="url(#p4427a38bab)" d="M 542.610803 174.676965 
L 547.076145 174.923376 
L 544.199812 178.347803 
L 542.610803 174.676965 
z
" style="fill:#808080;stroke:#808080;stroke-linecap:round;"/>
   </g>
   <g id="patch_5">
    <path clip-path="url(#p4427a38bab)" d="M 341.592982 299.685296 
Q 226.796268 230.150349 112.955837 161.194643 
" style="fill:none;stroke:#808080;stroke-linecap:round;"/>
    <path clip-path="url(#p4427a38bab)" d="M 115.340961 164.977656 
L 112.955837 161.194643 
L 117.413322 161.556352 
L 115.340961 164.977656 
z
" style="fill:#808080;stroke:#808080;stroke-linecap:round;"/>
   </g>
   <g id="patch_6">
    <path clip-path="url(#p4427a38bab)" d="M 461.798416 285.870743 
Q 409.674445 294.328889 358.654073 302.607954 
" style="fill:none;stroke:#808080;stroke-linecap:round;"/>
    <path clip-path="url(#p4427a38bab)" d="M 362.922777 303.941432 
L 358.654073 302.607954 
L 362.282079 299.993078 
L 362.922777 303.941432 
z
" style="fill:#808080;stroke:#808080;stroke-linecap:round;"/>
   </g>
   <g id="patch_7">
    <path clip-path="url(#p4427a38bab)" d="M 478.547688 287.28171 
Q 544.521512 309.800823 609.437242 331.958773 
" style="fill:none;stroke:#808080;stroke-linecap:round;"/>
    <path clip-path="url(#p4427a38bab)" d="M 606.297761 328.773862 
L 609.437242 331.958773 
L 605.005624 332.559411 
L 606.297761 328.773862 
z
" style="fill:#808080;stroke:#808080;stroke-linecap:round;"/>
   </g>
   <g id="patch_8">
    <path clip-path="url(#p4427a38bab)" d="M 462.500289 280.833009 
Q 323.132391 216.017123 184.778256 151.672708 
" style="fill:none;stroke:#808080;stroke-linecap:round;"/>
    <path clip-path="url(#p4427a38bab)" d="M 187.561811 155.172969 
L 184.778256 151.672708 
L 189.248597 151.546021 
L 187.561811 155.172969 
z
" style="fill:#808080;stroke:#808080;stroke-linecap:round;"/>
   </g>
   <g id="patch_9">
    <path clip-path="url(#p4427a38bab)" d="M 472.560956 292.853498 
Q 486.152981 344.288154 499.459362 394.641881 
" style="fill:none;stroke:#808080;stroke-linecap:round;"/>
    <path clip-path="url(#p4427a38bab)" d="M 500.371034 390.263656 
L 499.459362 394.641881 
L 496.503785 391.285608 
L 500.371034 390.263656 
z
" style="fill:#808080;stroke:#808080;stroke-linecap:round;"/>
   </g>
   <g id="patch_10">
    <path clip-path="url(#p4427a38bab)" d="M 104.239087 164.778079 
Q 100.6951 252.252403 97.196374 338.60961 
" style="fill:none;stroke:#808080;stroke-linecap:round;"/>
    <path clip-path="url(#p4427a38bab)" d="M 99.35666 334.693851 
L 97.196374 338.60961 
L 95.359939 334.531926 
L 99.35666 334.693851 
z
" style="fill:#808080;stroke:#808080;stroke-linecap:round;"/>
   </g>
   <g id="patch_11">
    <path clip-path="url(#p4427a38bab)" d="M 110.291638 149.605227 
Q 136.684128 119.418545 162.340716 90.073557 
" style="fill:none;stroke:#808080;stroke-linecap:round;"/>
    <path clip-path="url(#p4427a38bab)" d="M 158.202207 91.768475 
L 162.340716 90.073557 
L 161.213545 94.401315 
L 158.202207 91.768475 
z
" style="fill:#808080;stroke:#808080;stroke-linecap:round;"/>
   </g>
   <g id="patch_12">
    <path clip-path="url(#p4427a38bab)" d="M 112.623793 152.899495 
Q 223.230484 108.46637 332.799723 64.450011 
" style="fill:none;stroke:#808080;stroke-linecap:round;"/>
    <path clip-path="url(#p4427a38bab)" d="M 328.342489 64.085232 
L 332.799723 64.450011 
L 329.83356 67.796931 
L 328.342489 64.085232 
z
" style="fill:#808080;stroke:#808080;stroke-linecap:round;"/>
   </g>
   <g id="patch_13">
    <path clip-path="url(#p4427a38bab)" d="M 610.147938 333.733259 
Q 473.671587 311.612309 338.298867 289.670242 
" style="fill:none;stroke:#808080;stroke-linecap:round;"/>
    <path clip-path="url(#p4427a38bab)" d="M 341.92734 292.28447 
L 338.298867 289.670242 
L 342.567333 288.336 
L 341.92734 292.28447 
z
" style="fill:#808080;stroke:#808080;stroke-linecap:round;"/>
   </g>
   <g id="patch_14">
    <path clip-path="url(#p4427a38bab)" d="M 335.079047 282.307814 
Q 432.177175 194.844774 528.444593 108.130013 
" style="fill:none;stroke:#808080;stroke-linecap:round;"/>
    <path clip-path="url(#p4427a38bab)" d="M 524.133993 109.321116 
L 528.444593 108.130013 
L 526.811115 112.293155 
L 524.133993 109.321116 
z
" style="fill:#808080;stroke:#808080;stroke-linecap:round;"/>
   </g>
   <g id="patch_15">
    <path clip-path="url(#p4427a38bab)" d="M 188.243426 262.484675 
Q 168.806384 253.305492 150.380312 244.603742 
" style="fill:none;stroke:#808080;stroke-linecap:round;"/>
    <path clip-path="url(#p4427a38bab)" d="M 153.143208 248.120332 
L 150.380312 244.603742 
L 154.851321 244.503379 
L 153.143208 248.120332 
z
" style="fill:#808080;stroke:#808080;stroke-linecap:round;"/>
   </g>
   <g id="patch_16">
    <path clip-path="url(#p4427a38bab)" d="M 204.621874 264.807123 
Q 262.652822 255.460734 319.579961 246.292123 
" style="fill:none;stroke:#808080;stroke-linecap:round;"/>
    <path clip-path="url(#p4427a38bab)" d="M 315.312834 244.953607 
L 319.579961 246.292123 
L 315.948872 248.902715 
L 315.312834 244.953607 
z
" style="fill:#808080;stroke:#808080;stroke-linecap:round;"/>
   </g>
   <g id="patch_17">
    <path clip-path="url(#p4427a38bab)" d="M 204.687542 267.119267 
Q 286.376885 275.995422 366.954737 284.750806 
" style="fill:none;stroke:#808080;stroke-linecap:round;"/>
    <path clip-path="url(#p4427a38bab)" d="M 363.194186 282.330422 
L 366.954737 284.750806 
L 362.7621 286.307016 
L 363.194186 282.330422 
z
" style="fill:#808080;stroke:#808080;stroke-linecap:round;"/>
   </g>
   <g id="patch_18">
    <path clip-path="url(#p4427a38bab)" d="M 420.129846 223.805775 
Q 285.155355 231.859189 151.296913 239.846013 
" style="fill:none;stroke:#808080;stroke-linecap:round;"/>
    <path clip-path="url(#p4427a38bab)" d="M 155.408932 241.604221 
L 151.296913 239.846013 
L 155.170691 237.611323 
L 155.408932 241.604221 
z
" style="fill:#808080;stroke:#808080;stroke-linecap:round;"/>
   </g>
   <g id="patch_19">
    <path clip-path="url(#p4427a38bab)" d="M 420.311147 225.113935 
Q 379.005463 234.013649 338.792731 242.677874 
" style="fill:none;stroke:#808080;stroke-linecap:round;"/>
    <path clip-path="url(#p4427a38bab)" d="M 343.12425 243.790503 
L 338.792731 242.677874 
L 342.281745 239.880236 
L 343.12425 243.790503 
z
" style="fill:#808080;stroke:#808080;stroke-linecap:round;"/>
   </g>
   <g id="patch_20">
    <path clip-path="url(#p4427a38bab)" d="M 423.234649 229.940676 
Q 402.72773 254.547644 382.936581 278.295733 
" style="fill:none;stroke:#808080;stroke-linecap:round;"/>
    <path clip-path="url(#p4427a38bab)" d="M 387.033809 276.503326 
L 382.936581 278.295733 
L 383.960992 273.942506 
L 387.033809 276.503326 
z
" style="fill:#808080;stroke:#808080;stroke-linecap:round;"/>
   </g>
   <g id="patch_21">
    <path clip-path="url(#p4427a38bab)" d="M 401.087704 170.427383 
Q 275.493385 204.300407 150.97853 237.882299 
" style="fill:none;stroke:#808080;stroke-linecap:round;"/>
    <path clip-path="url(#p4427a38bab)" d="M 155.361331 238.771711 
L 150.97853 237.882299 
L 154.319741 234.909705 
L 155.361331 238.771711 
z
" style="fill:#808080;stroke:#808080;stroke-linecap:round;"/>
   </g>
   <g id="patch_22">
    <path clip-path="url(#p4427a38bab)" d="M 403.183557 174.151941 
Q 369.341216 206.455604 336.307615 237.987297 
" style="fill:none;stroke:#808080;stroke-linecap:round;"/>
    <path clip-path="url(#p4427a38bab)" d="M 340.581997 236.672131 
L 336.307615 237.987297 
L 337.820111 233.778692 
L 340.581997 236.672131 
z
" style="fill:#808080;stroke:#808080;stroke-linecap:round;"/>
   </g>
   <g id="patch_23">
    <path clip-path="url(#p4427a38bab)" d="M 407.12439 176.512086 
Q 393.062501 226.988684 379.300652 276.38826 
" style="fill:none;stroke:#808080;stroke-linecap:round;"/>
    <path clip-path="url(#p4427a38bab)" d="M 382.300741 273.071715 
L 379.300652 276.38826 
L 378.44747 271.998262 
L 382.300741 273.071715 
z
" style="fill:#808080;stroke:#808080;stroke-linecap:round;"/>
   </g>
   <g id="patch_24">
    <path clip-path="url(#p4427a38bab)" d="M 217.711099 199.787815 
Q 183.445354 218.069686 150.166028 235.825271 
" style="fill:none;stroke:#808080;stroke-linecap:round;"/>
    <path clip-path="url(#p4427a38bab)" d="M 154.636598 235.706932 
L 150.166028 235.825271 
L 152.753699 232.177812 
L 154.636598 235.706932 
z
" style="fill:#808080;stroke:#808080;stroke-linecap:round;"/>
   </g>
   <g id="patch_25">
    <path clip-path="url(#p4427a38bab)" d="M 233.185001 199.408565 
Q 277.296091 220.225293 320.39608 240.564867 
" style="fill:none;stroke:#808080;stroke-linecap:round;"/>
    <path clip-path="url(#p4427a38bab)" d="M 317.632218 237.049037 
L 320.39608 240.564867 
L 315.925099 240.666459 
L 317.632218 237.049037 
z
" style="fill:#808080;stroke:#808080;stroke-linecap:round;"/>
   </g>
   <g id="patch_26">
    <path clip-path="url(#p4427a38bab)" d="M 232.793161 200.142441 
Q 301.01468 240.759857 368.275538 280.805319 
" style="fill:none;stroke:#808080;stroke-linecap:round;"/>
    <path clip-path="url(#p4427a38bab)" d="M 365.861716 277.040553 
L 368.275538 280.805319 
L 363.815432 280.477517 
L 365.861716 277.040553 
z
" style="fill:#808080;stroke:#808080;stroke-linecap:round;"/>
   </g>
   <g id="patch_27">
    <path clip-path="url(#p4427a38bab)" d="M 287.589532 296.719346 
Q 334.360855 358.580747 380.457901 419.550325 
" style="fill:none;stroke:#808080;stroke-linecap:round;"/>
    <path clip-path="url(#p4427a38bab)" d="M 379.640873 415.153455 
L 380.457901 419.550325 
L 376.450188 417.565825 
L 379.640873 415.153455 
z
" style="fill:#808080;stroke:#808080;stroke-linecap:round;"/>
   </g>
   <g id="patch_28">
    <path clip-path="url(#p4427a38bab)" d="M 256.581777 409.358349 
Q 388.942638 387.586017 520.200291 365.995155 
" style="fill:none;stroke:#808080;stroke-linecap:round;"/>
    <path clip-path="url(#p4427a38bab)" d="M 515.92871 364.670919 
L 520.200291 365.995155 
L 516.577954 368.617878 
L 515.92871 364.670919 
z
" style="fill:#808080;stroke:#808080;stroke-linecap:round;"/>
   </g>
   <g id="patch_29">
    <path clip-path="url(#p4427a38bab)" d="M 240.997159 405.719551 
Q 156.670071 345.301162 73.251823 285.533935 
" style="fill:none;stroke:#808080;stroke-linecap:round;"/>
    <path clip-path="url(#p4427a38bab)" d="M 75.33855 289.489383 
L 73.251823 285.533935 
L 77.668218 286.237822 
L 75.33855 289.489383 
z
" style="fill:#808080;stroke:#808080;stroke-linecap:round;"/>
   </g>
   <g id="patch_30">
    <path clip-path="url(#p4427a38bab)" d="M 364.657087 216.111673 
Q 444.029562 287.366967 522.570071 357.875379 
" style="fill:none;stroke:#808080;stroke-linecap:round;"/>
    <path clip-path="url(#p4427a38bab)" d="M 520.929606 353.714986 
L 522.570071 357.875379 
L 518.257477 356.691515 
L 520.929606 353.714986 
z
" style="fill:#808080;stroke:#808080;stroke-linecap:round;"/>
   </g>
   <g id="patch_31">
    <path clip-path="url(#p4427a38bab)" d="M 349.787053 212.32503 
Q 211.759204 245.08309 74.819173 277.582978 
" style="fill:none;stroke:#808080;stroke-linecap:round;"/>
    <path clip-path="url(#p4427a38bab)" d="M 79.172899 278.605265 
L 74.819173 277.582978 
L 78.249238 274.71337 
L 79.172899 278.605265 
z
" style="fill:#808080;stroke:#808080;stroke-linecap:round;"/>
   </g>
   <g id="patch_32">
    <path clip-path="url(#p4427a38bab)" d="M 177.699332 289.951339 
Q 349.53773 326.284276 520.282277 362.385932 
" style="fill:none;stroke:#808080;stroke-linecap:round;"/>
    <path clip-path="url(#p4427a38bab)" d="M 516.782524 359.60174 
L 520.282277 362.385932 
L 515.955071 363.515219 
L 516.782524 359.60174 
z
" style="fill:#808080;stroke:#808080;stroke-linecap:round;"/>
   </g>
   <g id="patch_33">
    <path clip-path="url(#p4427a38bab)" d="M 160.598529 287.469371 
Q 117.269237 284.000678 75.054414 280.621203 
" style="fill:none;stroke:#808080;stroke-linecap:round;"/>
    <path clip-path="url(#p4427a38bab)" d="M 78.88206 282.934021 
L 75.054414 280.621203 
L 79.201256 278.946777 
L 78.88206 282.934021 
z
" style="fill:#808080;stroke:#808080;stroke-linecap:round;"/>
   </g>
   <g id="patch_34">
    <path clip-path="url(#p4427a38bab)" d="M 182.288825 153.416428 
Q 252.280293 217.829073 321.449086 281.484614 
" style="fill:none;stroke:#808080;stroke-linecap:round;"/>
    <path clip-path="url(#p4427a38bab)" d="M 319.860138 277.304274 
L 321.449086 281.484614 
L 317.151445 280.247569 
L 319.860138 277.304274 
z
" style="fill:#808080;stroke:#808080;stroke-linecap:round;"/>
   </g>
   <g id="patch_35">
    <path clip-path="url(#p4427a38bab)" d="M 494.762333 399.282136 
Q 415.30081 346.101727 336.768433 293.54316 
" style="fill:none;stroke:#808080;stroke-linecap:round;"/>
    <path clip-path="url(#p4427a38bab)" d="M 338.980268 297.430034 
L 336.768433 293.54316 
L 341.205033 294.105816 
L 338.980268 297.430034 
z
" style="fill:#808080;stroke:#808080;stroke-linecap:round;"/>
   </g>
   <g id="patch_36">
    <path clip-path="url(#p4427a38bab)" d="M 146.129402 247.770749 
Q 194.787516 325.595112 242.852916 402.471481 
" style="fill:none;stroke:#808080;stroke-linecap:round;"/>
    <path clip-path="url(#p4427a38bab)" d="M 242.428181 398.01956 
L 242.852916 402.471481 
L 239.036538 400.140116 
L 242.428181 398.01956 
z
" style="fill:#808080;stroke:#808080;stroke-linecap:round;"/>
   </g>
   <g id="patch_37">
    <path clip-path="url(#p4427a38bab)" d="M 150.118166 239.236289 
Q 249.876826 225.376696 348.528088 211.670954 
" style="fill:none;stroke:#808080;stroke-linecap:round;"/>
    <path clip-path="url(#p4427a38bab)" d="M 344.290923 210.240419 
L 348.528088 211.670954 
L 344.841361 214.202366 
L 344.290923 210.240419 
z
" style="fill:#808080;stroke:#808080;stroke-linecap:round;"/>
   </g>
   <g id="patch_38">
    <path clip-path="url(#p4427a38bab)" d="M 145.883714 247.918415 
Q 155.383741 264.294887 164.322756 279.704267 
" style="fill:none;stroke:#808080;stroke-linecap:round;"/>
    <path clip-path="url(#p4427a38bab)" d="M 164.045604 275.240727 
L 164.322756 279.704267 
L 160.585633 277.247864 
L 164.045604 275.240727 
z
" style="fill:#808080;stroke:#808080;stroke-linecap:round;"/>
   </g>
   <g id="patch_39">
    <path clip-path="url(#p4427a38bab)" d="M 325.431614 252.516821 
Q 288.636475 327.751511 252.332536 401.981848 
" style="fill:none;stroke:#808080;stroke-linecap:round;"/>
    <path clip-path="url(#p4427a38bab)" d="M 255.886545 399.267254 
L 252.332536 401.981848 
L 252.293267 397.509884 
L 255.886545 399.267254 
z
" style="fill:#808080;stroke:#808080;stroke-linecap:round;"/>
   </g>
   <g id="patch_40">
    <path clip-path="url(#p4427a38bab)" d="M 334.816231 238.110404 
Q 343.725246 227.529988 351.914134 217.8048 
" style="fill:none;stroke:#808080;stroke-linecap:round;"/>
    <path clip-path="url(#p4427a38bab)" d="M 347.807848 219.576357 
L 351.914134 217.8048 
L 350.867608 222.152764 
L 347.807848 219.576357 
z
" style="fill:#808080;stroke:#808080;stroke-linecap:round;"/>
   </g>
   <g id="patch_41">
    <path clip-path="url(#p4427a38bab)" d="M 320.879202 247.004879 
Q 249.230425 266.449035 178.660654 285.60037 
" style="fill:none;stroke:#808080;stroke-linecap:round;"/>
    <path clip-path="url(#p4427a38bab)" d="M 183.044842 286.482922 
L 178.660654 285.60037 
L 181.997208 282.622551 
L 183.044842 286.482922 
z
" style="fill:#808080;stroke:#808080;stroke-linecap:round;"/>
   </g>
   <g id="patch_42">
    <path clip-path="url(#p4427a38bab)" d="M 370.464201 291.841835 
Q 312.356552 348.286042 255.050869 403.951241 
" style="fill:none;stroke:#808080;stroke-linecap:round;"/>
    <path clip-path="url(#p4427a38bab)" d="M 259.313596 402.598779 
L 255.050869 403.951241 
L 256.526535 399.729582 
L 259.313596 402.598779 
z
" style="fill:#808080;stroke:#808080;stroke-linecap:round;"/>
   </g>
   <g id="patch_43">
    <path clip-path="url(#p4427a38bab)" d="M 374.619925 277.399339 
Q 367.4449 248.068896 360.535543 219.824465 
" style="fill:none;stroke:#808080;stroke-linecap:round;"/>
    <path clip-path="url(#p4427a38bab)" d="M 359.54331 224.185138 
L 360.535543 219.824465 
L 363.428742 223.234656 
L 359.54331 224.185138 
z
" style="fill:#808080;stroke:#808080;stroke-linecap:round;"/>
   </g>
   <g id="patch_44">
    <path clip-path="url(#p4427a38bab)" d="M 368.019299 285.905369 
Q 272.953736 286.983671 179.006134 288.049291 
" style="fill:none;stroke:#808080;stroke-linecap:round;"/>
    <path clip-path="url(#p4427a38bab)" d="M 183.028561 290.003795 
L 179.006134 288.049291 
L 182.983193 286.004052 
L 183.028561 290.003795 
z
" style="fill:#808080;stroke:#808080;stroke-linecap:round;"/>
   </g>
   <g id="PathCollection_1">
    <defs>
     <path d="M 0 11.18034 
C 2.965061 11.18034 5.80908 10.002309 7.905694 7.905694 
C 10.002309 5.80908 11.18034 2.965061 11.18034 -0 
C 11.18034 -2.965061 10.002309 -5.80908 7.905694 -7.905694 
C 5.80908 -10.002309 2.965061 -11.18034 0 -11.18034 
C -2.965061 -11.18034 -5.80908 -10.002309 -7.905694 -7.905694 
C -10.002309 -5.80908 -11.18034 -2.965061 -11.18034 0 
C -11.18034 2.965061 -10.002309 5.80908 -7.905694 7.905694 
C -5.80908 10.002309 -2.965061 11.18034 0 11.18034 
z
" id="C0_0_da2013c510"/>
    </defs>
    <g clip-path="url(#p4427a38bab)">
     <use style="fill:#c4c4c4;stroke:#c4c4c4;" x="357.660048" xlink:href="#C0_0_da2013c510" y="256.916594"/>
    </g>
    <g clip-path="url(#p4427a38bab)">
     <use style="fill:#ececec;stroke:#ececec;" x="386.355617" xlink:href="#C0_0_da2013c510" y="427.350852"/>
    </g>
    <g clip-path="url(#p4427a38bab)">
     <use style="fill:#bebebe;stroke:#bebebe;" x="349.003417" xlink:href="#C0_0_da2013c510" y="304.173964"/>
    </g>
    <g clip-path="url(#p4427a38bab)">
     <use style="fill:#5f5f5f;stroke:#5f5f5f;" x="470.349046" xlink:href="#C0_0_da2013c510" y="284.483234"/>
    </g>
    <g clip-path="url(#p4427a38bab)">
     <use style="fill:#cacaca;stroke:#cacaca;" x="104.589581" xlink:href="#C0_0_da2013c510" y="156.127014"/>
    </g>
    <g clip-path="url(#p4427a38bab)">
     <use style="fill:#d6d6d6;stroke:#d6d6d6;" x="618.694215" xlink:href="#C0_0_da2013c510" y="335.118493"/>
    </g>
    <g clip-path="url(#p4427a38bab)">
     <use style="fill:#e1e1e1;stroke:#e1e1e1;" x="328.643048" xlink:href="#C0_0_da2013c510" y="288.105166"/>
    </g>
    <g clip-path="url(#p4427a38bab)">
     <use style="fill:#ebebeb;stroke:#ebebeb;" x="96.800501" xlink:href="#C0_0_da2013c510" y="348.380728"/>
    </g>
    <g clip-path="url(#p4427a38bab)">
     <use style="fill:#ebebeb;stroke:#ebebeb;" x="168.775431" xlink:href="#C0_0_da2013c510" y="82.713785"/>
    </g>
    <g clip-path="url(#p4427a38bab)">
     <use style="fill:#ebebeb;stroke:#ebebeb;" x="341.872203" xlink:href="#C0_0_da2013c510" y="60.805398"/>
    </g>
    <g clip-path="url(#p4427a38bab)">
     <use style="fill:#9e9e9e;stroke:#9e9e9e;" x="196.07582" xlink:href="#C0_0_da2013c510" y="266.183539"/>
    </g>
    <g clip-path="url(#p4427a38bab)">
     <use style="fill:#ebebeb;stroke:#ebebeb;" x="428.777337" xlink:href="#C0_0_da2013c510" y="223.289812"/>
    </g>
    <g clip-path="url(#p4427a38bab)">
     <use style="fill:#ececec;stroke:#ececec;" x="409.447595" xlink:href="#C0_0_da2013c510" y="168.172704"/>
    </g>
    <g clip-path="url(#p4427a38bab)">
     <use style="fill:#dfdfdf;stroke:#dfdfdf;" x="225.351108" xlink:href="#C0_0_da2013c510" y="195.711626"/>
    </g>
    <g clip-path="url(#p4427a38bab)">
     <use style="fill:#e3e3e3;stroke:#e3e3e3;" x="282.367599" xlink:href="#C0_0_da2013c510" y="289.812634"/>
    </g>
    <g clip-path="url(#p4427a38bab)">
     <use style="fill:#d5d5d5;stroke:#d5d5d5;" x="248.037529" xlink:href="#C0_0_da2013c510" y="410.763811"/>
    </g>
    <g clip-path="url(#p4427a38bab)">
     <use style="fill:#d5d5d5;stroke:#d5d5d5;" x="358.211857" xlink:href="#C0_0_da2013c510" y="210.325576"/>
    </g>
    <g clip-path="url(#p4427a38bab)">
     <use style="fill:#f3f3f3;stroke:#f3f3f3;" x="169.228062" xlink:href="#C0_0_da2013c510" y="288.160201"/>
    </g>
    <g clip-path="url(#p4427a38bab)">
     <use style="fill:#ebebeb;stroke:#ebebeb;" x="529.847214" xlink:href="#C0_0_da2013c510" y="364.408311"/>
    </g>
    <g clip-path="url(#p4427a38bab)">
     <use style="fill:#ebebeb;stroke:#ebebeb;" x="65.305785" xlink:href="#C0_0_da2013c510" y="279.840785"/>
    </g>
    <g clip-path="url(#p4427a38bab)">
     <use style="fill:#d6d6d6;stroke:#d6d6d6;" x="175.91506" xlink:href="#C0_0_da2013c510" y="147.550698"/>
    </g>
    <g clip-path="url(#p4427a38bab)">
     <use style="fill:#d6d6d6;stroke:#d6d6d6;" x="501.958235" xlink:href="#C0_0_da2013c510" y="404.098064"/>
    </g>
    <g clip-path="url(#p4427a38bab)">
     <use style="fill:#ebebeb;stroke:#ebebeb;" x="535.707183" xlink:href="#C0_0_da2013c510" y="101.588093"/>
    </g>
    <g clip-path="url(#p4427a38bab)">
     <use style="fill:#ececec;stroke:#ececec;" x="394.614648" xlink:href="#C0_0_da2013c510" y="86.501353"/>
    </g>
    <g clip-path="url(#p4427a38bab)">
     <use style="fill:#ececec;stroke:#ececec;" x="556.049914" xlink:href="#C0_0_da2013c510" y="171.038869"/>
    </g>
    <g clip-path="url(#p4427a38bab)">
     <use style="fill:#c9c9c9;stroke:#c9c9c9;" x="141.538653" xlink:href="#C0_0_da2013c510" y="240.428251"/>
    </g>
    <g clip-path="url(#p4427a38bab)">
     <use style="fill:#c9c9c9;stroke:#c9c9c9;" x="329.23658" xlink:href="#C0_0_da2013c510" y="244.73684"/>
    </g>
    <g clip-path="url(#p4427a38bab)">
     <use style="fill:#c7c7c7;stroke:#c7c7c7;" x="376.67671" xlink:href="#C0_0_da2013c510" y="285.80717"/>
    </g>
   </g>
   <g id="text_1">
    <g clip-path="url(#p4427a38bab)">
     <!-- IGF1R -->
     <g transform="translate(342.779579 259.675969)scale(0.1 -0.1)">
      <defs>
       <path d="M 9.8125 72.90625 
L 19.671875 72.90625 
L 19.671875 0 
L 9.8125 0 
z
" id="DejaVuSans-73"/>
       <path d="M 59.515625 10.40625 
L 59.515625 29.984375 
L 43.40625 29.984375 
L 43.40625 38.09375 
L 69.28125 38.09375 
L 69.28125 6.78125 
Q 63.578125 2.734375 56.6875 0.65625 
Q 49.8125 -1.421875 42 -1.421875 
Q 24.90625 -1.421875 15.25 8.5625 
Q 5.609375 18.5625 5.609375 36.375 
Q 5.609375 54.25 15.25 64.234375 
Q 24.90625 74.21875 42 74.21875 
Q 49.125 74.21875 55.546875 72.453125 
Q 61.96875 70.703125 67.390625 67.28125 
L 67.390625 56.78125 
Q 61.921875 61.421875 55.765625 63.765625 
Q 49.609375 66.109375 42.828125 66.109375 
Q 29.4375 66.109375 22.71875 58.640625 
Q 16.015625 51.171875 16.015625 36.375 
Q 16.015625 21.625 22.71875 14.15625 
Q 29.4375 6.6875 42.828125 6.6875 
Q 48.046875 6.6875 52.140625 7.59375 
Q 56.25 8.5 59.515625 10.40625 
z
" id="DejaVuSans-71"/>
       <path d="M 9.8125 72.90625 
L 51.703125 72.90625 
L 51.703125 64.59375 
L 19.671875 64.59375 
L 19.671875 43.109375 
L 48.578125 43.109375 
L 48.578125 34.8125 
L 19.671875 34.8125 
L 19.671875 0 
L 9.8125 0 
z
" id="DejaVuSans-70"/>
       <path d="M 12.40625 8.296875 
L 28.515625 8.296875 
L 28.515625 63.921875 
L 10.984375 60.40625 
L 10.984375 69.390625 
L 28.421875 72.90625 
L 38.28125 72.90625 
L 38.28125 8.296875 
L 54.390625 8.296875 
L 54.390625 0 
L 12.40625 0 
z
" id="DejaVuSans-49"/>
       <path d="M 44.390625 34.1875 
Q 47.5625 33.109375 50.5625 29.59375 
Q 53.5625 26.078125 56.59375 19.921875 
L 66.609375 0 
L 56 0 
L 46.6875 18.703125 
Q 43.0625 26.03125 39.671875 28.421875 
Q 36.28125 30.8125 30.421875 30.8125 
L 19.671875 30.8125 
L 19.671875 0 
L 9.8125 0 
L 9.8125 72.90625 
L 32.078125 72.90625 
Q 44.578125 72.90625 50.734375 67.671875 
Q 56.890625 62.453125 56.890625 51.90625 
Q 56.890625 45.015625 53.6875 40.46875 
Q 50.484375 35.9375 44.390625 34.1875 
z
M 19.671875 64.796875 
L 19.671875 38.921875 
L 32.078125 38.921875 
Q 39.203125 38.921875 42.84375 42.21875 
Q 46.484375 45.515625 46.484375 51.90625 
Q 46.484375 58.296875 42.84375 61.546875 
Q 39.203125 64.796875 32.078125 64.796875 
z
" id="DejaVuSans-82"/>
      </defs>
      <use xlink:href="#DejaVuSans-73"/>
      <use x="29.492188" xlink:href="#DejaVuSans-71"/>
      <use x="106.982422" xlink:href="#DejaVuSans-70"/>
      <use x="164.501953" xlink:href="#DejaVuSans-49"/>
      <use x="228.125" xlink:href="#DejaVuSans-82"/>
     </g>
    </g>
   </g>
   <g id="text_2">
    <g clip-path="url(#p4427a38bab)">
     <!-- GRB2 -->
     <g transform="translate(372.39546 430.110227)scale(0.1 -0.1)">
      <defs>
       <path d="M 19.671875 34.8125 
L 19.671875 8.109375 
L 35.5 8.109375 
Q 43.453125 8.109375 47.28125 11.40625 
Q 51.125 14.703125 51.125 21.484375 
Q 51.125 28.328125 47.28125 31.5625 
Q 43.453125 34.8125 35.5 34.8125 
z
M 19.671875 64.796875 
L 19.671875 42.828125 
L 34.28125 42.828125 
Q 41.5 42.828125 45.03125 45.53125 
Q 48.578125 48.25 48.578125 53.8125 
Q 48.578125 59.328125 45.03125 62.0625 
Q 41.5 64.796875 34.28125 64.796875 
z
M 9.8125 72.90625 
L 35.015625 72.90625 
Q 46.296875 72.90625 52.390625 68.21875 
Q 58.5 63.53125 58.5 54.890625 
Q 58.5 48.1875 55.375 44.234375 
Q 52.25 40.28125 46.1875 39.3125 
Q 53.46875 37.75 57.5 32.78125 
Q 61.53125 27.828125 61.53125 20.40625 
Q 61.53125 10.640625 54.890625 5.3125 
Q 48.25 0 35.984375 0 
L 9.8125 0 
z
" id="DejaVuSans-66"/>
       <path d="M 19.1875 8.296875 
L 53.609375 8.296875 
L 53.609375 0 
L 7.328125 0 
L 7.328125 8.296875 
Q 12.9375 14.109375 22.625 23.890625 
Q 32.328125 33.6875 34.8125 36.53125 
Q 39.546875 41.84375 41.421875 45.53125 
Q 43.3125 49.21875 43.3125 52.78125 
Q 43.3125 58.59375 39.234375 62.25 
Q 35.15625 65.921875 28.609375 65.921875 
Q 23.96875 65.921875 18.8125 64.3125 
Q 13.671875 62.703125 7.8125 59.421875 
L 7.8125 69.390625 
Q 13.765625 71.78125 18.9375 73 
Q 24.125 74.21875 28.421875 74.21875 
Q 39.75 74.21875 46.484375 68.546875 
Q 53.21875 62.890625 53.21875 53.421875 
Q 53.21875 48.921875 51.53125 44.890625 
Q 49.859375 40.875 45.40625 35.40625 
Q 44.1875 33.984375 37.640625 27.21875 
Q 31.109375 20.453125 19.1875 8.296875 
z
" id="DejaVuSans-50"/>
      </defs>
      <use xlink:href="#DejaVuSans-71"/>
      <use x="77.490234" xlink:href="#DejaVuSans-82"/>
      <use x="146.972656" xlink:href="#DejaVuSans-66"/>
      <use x="215.576172" xlink:href="#DejaVuSans-50"/>
     </g>
    </g>
   </g>
   <g id="text_3">
    <g clip-path="url(#p4427a38bab)">
     <!-- MDM2 -->
     <g transform="translate(333.344042 306.933339)scale(0.1 -0.1)">
      <defs>
       <path d="M 9.8125 72.90625 
L 24.515625 72.90625 
L 43.109375 23.296875 
L 61.8125 72.90625 
L 76.515625 72.90625 
L 76.515625 0 
L 66.890625 0 
L 66.890625 64.015625 
L 48.09375 14.015625 
L 38.1875 14.015625 
L 19.390625 64.015625 
L 19.390625 0 
L 9.8125 0 
z
" id="DejaVuSans-77"/>
       <path d="M 19.671875 64.796875 
L 19.671875 8.109375 
L 31.59375 8.109375 
Q 46.6875 8.109375 53.6875 14.9375 
Q 60.6875 21.78125 60.6875 36.53125 
Q 60.6875 51.171875 53.6875 57.984375 
Q 46.6875 64.796875 31.59375 64.796875 
z
M 9.8125 72.90625 
L 30.078125 72.90625 
Q 51.265625 72.90625 61.171875 64.09375 
Q 71.09375 55.28125 71.09375 36.53125 
Q 71.09375 17.671875 61.125 8.828125 
Q 51.171875 0 30.078125 0 
L 9.8125 0 
z
" id="DejaVuSans-68"/>
      </defs>
      <use xlink:href="#DejaVuSans-77"/>
      <use x="86.279297" xlink:href="#DejaVuSans-68"/>
      <use x="163.28125" xlink:href="#DejaVuSans-77"/>
      <use x="249.560547" xlink:href="#DejaVuSans-50"/>
     </g>
    </g>
   </g>
   <g id="text_4">
    <g clip-path="url(#p4427a38bab)">
     <!-- CDKN2A -->
     <g transform="translate(449.386546 287.242609)scale(0.1 -0.1)">
      <defs>
       <path d="M 64.40625 67.28125 
L 64.40625 56.890625 
Q 59.421875 61.53125 53.78125 63.8125 
Q 48.140625 66.109375 41.796875 66.109375 
Q 29.296875 66.109375 22.65625 58.46875 
Q 16.015625 50.828125 16.015625 36.375 
Q 16.015625 21.96875 22.65625 14.328125 
Q 29.296875 6.6875 41.796875 6.6875 
Q 48.140625 6.6875 53.78125 8.984375 
Q 59.421875 11.28125 64.40625 15.921875 
L 64.40625 5.609375 
Q 59.234375 2.09375 53.4375 0.328125 
Q 47.65625 -1.421875 41.21875 -1.421875 
Q 24.65625 -1.421875 15.125 8.703125 
Q 5.609375 18.84375 5.609375 36.375 
Q 5.609375 53.953125 15.125 64.078125 
Q 24.65625 74.21875 41.21875 74.21875 
Q 47.75 74.21875 53.53125 72.484375 
Q 59.328125 70.75 64.40625 67.28125 
z
" id="DejaVuSans-67"/>
       <path d="M 9.8125 72.90625 
L 19.671875 72.90625 
L 19.671875 42.09375 
L 52.390625 72.90625 
L 65.09375 72.90625 
L 28.90625 38.921875 
L 67.671875 0 
L 54.6875 0 
L 19.671875 35.109375 
L 19.671875 0 
L 9.8125 0 
z
" id="DejaVuSans-75"/>
       <path d="M 9.8125 72.90625 
L 23.09375 72.90625 
L 55.421875 11.921875 
L 55.421875 72.90625 
L 64.984375 72.90625 
L 64.984375 0 
L 51.703125 0 
L 19.390625 60.984375 
L 19.390625 0 
L 9.8125 0 
z
" id="DejaVuSans-78"/>
       <path d="M 34.1875 63.1875 
L 20.796875 26.90625 
L 47.609375 26.90625 
z
M 28.609375 72.90625 
L 39.796875 72.90625 
L 67.578125 0 
L 57.328125 0 
L 50.6875 18.703125 
L 17.828125 18.703125 
L 11.1875 0 
L 0.78125 0 
z
" id="DejaVuSans-65"/>
      </defs>
      <use xlink:href="#DejaVuSans-67"/>
      <use x="69.824219" xlink:href="#DejaVuSans-68"/>
      <use x="146.826172" xlink:href="#DejaVuSans-75"/>
      <use x="212.402344" xlink:href="#DejaVuSans-78"/>
      <use x="287.207031" xlink:href="#DejaVuSans-50"/>
      <use x="350.830078" xlink:href="#DejaVuSans-65"/>
     </g>
    </g>
   </g>
   <g id="text_5">
    <g clip-path="url(#p4427a38bab)">
     <!-- TP53 -->
     <g transform="translate(92.158331 158.886389)scale(0.1 -0.1)">
      <defs>
       <path d="M -0.296875 72.90625 
L 61.375 72.90625 
L 61.375 64.59375 
L 35.5 64.59375 
L 35.5 0 
L 25.59375 0 
L 25.59375 64.59375 
L -0.296875 64.59375 
z
" id="DejaVuSans-84"/>
       <path d="M 19.671875 64.796875 
L 19.671875 37.40625 
L 32.078125 37.40625 
Q 38.96875 37.40625 42.71875 40.96875 
Q 46.484375 44.53125 46.484375 51.125 
Q 46.484375 57.671875 42.71875 61.234375 
Q 38.96875 64.796875 32.078125 64.796875 
z
M 9.8125 72.90625 
L 32.078125 72.90625 
Q 44.34375 72.90625 50.609375 67.359375 
Q 56.890625 61.8125 56.890625 51.125 
Q 56.890625 40.328125 50.609375 34.8125 
Q 44.34375 29.296875 32.078125 29.296875 
L 19.671875 29.296875 
L 19.671875 0 
L 9.8125 0 
z
" id="DejaVuSans-80"/>
       <path d="M 10.796875 72.90625 
L 49.515625 72.90625 
L 49.515625 64.59375 
L 19.828125 64.59375 
L 19.828125 46.734375 
Q 21.96875 47.46875 24.109375 47.828125 
Q 26.265625 48.1875 28.421875 48.1875 
Q 40.625 48.1875 47.75 41.5 
Q 54.890625 34.8125 54.890625 23.390625 
Q 54.890625 11.625 47.5625 5.09375 
Q 40.234375 -1.421875 26.90625 -1.421875 
Q 22.3125 -1.421875 17.546875 -0.640625 
Q 12.796875 0.140625 7.71875 1.703125 
L 7.71875 11.625 
Q 12.109375 9.234375 16.796875 8.0625 
Q 21.484375 6.890625 26.703125 6.890625 
Q 35.15625 6.890625 40.078125 11.328125 
Q 45.015625 15.765625 45.015625 23.390625 
Q 45.015625 31 40.078125 35.4375 
Q 35.15625 39.890625 26.703125 39.890625 
Q 22.75 39.890625 18.8125 39.015625 
Q 14.890625 38.140625 10.796875 36.28125 
z
" id="DejaVuSans-53"/>
       <path d="M 40.578125 39.3125 
Q 47.65625 37.796875 51.625 33 
Q 55.609375 28.21875 55.609375 21.1875 
Q 55.609375 10.40625 48.1875 4.484375 
Q 40.765625 -1.421875 27.09375 -1.421875 
Q 22.515625 -1.421875 17.65625 -0.515625 
Q 12.796875 0.390625 7.625 2.203125 
L 7.625 11.71875 
Q 11.71875 9.328125 16.59375 8.109375 
Q 21.484375 6.890625 26.8125 6.890625 
Q 36.078125 6.890625 40.9375 10.546875 
Q 45.796875 14.203125 45.796875 21.1875 
Q 45.796875 27.640625 41.28125 31.265625 
Q 36.765625 34.90625 28.71875 34.90625 
L 20.21875 34.90625 
L 20.21875 43.015625 
L 29.109375 43.015625 
Q 36.375 43.015625 40.234375 45.921875 
Q 44.09375 48.828125 44.09375 54.296875 
Q 44.09375 59.90625 40.109375 62.90625 
Q 36.140625 65.921875 28.71875 65.921875 
Q 24.65625 65.921875 20.015625 65.03125 
Q 15.375 64.15625 9.8125 62.3125 
L 9.8125 71.09375 
Q 15.4375 72.65625 20.34375 73.4375 
Q 25.25 74.21875 29.59375 74.21875 
Q 40.828125 74.21875 47.359375 69.109375 
Q 53.90625 64.015625 53.90625 55.328125 
Q 53.90625 49.265625 50.4375 45.09375 
Q 46.96875 40.921875 40.578125 39.3125 
z
" id="DejaVuSans-51"/>
      </defs>
      <use xlink:href="#DejaVuSans-84"/>
      <use x="61.083984" xlink:href="#DejaVuSans-80"/>
      <use x="121.386719" xlink:href="#DejaVuSans-53"/>
      <use x="185.009766" xlink:href="#DejaVuSans-51"/>
     </g>
    </g>
   </g>
   <g id="text_6">
    <g clip-path="url(#p4427a38bab)">
     <!-- CCND1 -->
     <g transform="translate(600.939527 337.877868)scale(0.1 -0.1)">
      <use xlink:href="#DejaVuSans-67"/>
      <use x="69.824219" xlink:href="#DejaVuSans-67"/>
      <use x="139.648438" xlink:href="#DejaVuSans-78"/>
      <use x="214.453125" xlink:href="#DejaVuSans-68"/>
      <use x="291.455078" xlink:href="#DejaVuSans-49"/>
     </g>
    </g>
   </g>
   <g id="text_7">
    <g clip-path="url(#p4427a38bab)">
     <!-- RB1 -->
     <g transform="translate(318.557111 290.864541)scale(0.1 -0.1)">
      <use xlink:href="#DejaVuSans-82"/>
      <use x="69.482422" xlink:href="#DejaVuSans-66"/>
      <use x="138.085938" xlink:href="#DejaVuSans-49"/>
     </g>
    </g>
   </g>
   <g id="text_8">
    <g clip-path="url(#p4427a38bab)">
     <!-- BAX -->
     <g transform="translate(86.52472 351.140103)scale(0.1 -0.1)">
      <defs>
       <path d="M 6.296875 72.90625 
L 16.890625 72.90625 
L 35.015625 45.796875 
L 53.21875 72.90625 
L 63.8125 72.90625 
L 40.375 37.890625 
L 65.375 0 
L 54.78125 0 
L 34.28125 31 
L 13.625 0 
L 2.984375 0 
L 29 38.921875 
z
" id="DejaVuSans-88"/>
      </defs>
      <use xlink:href="#DejaVuSans-66"/>
      <use x="68.603516" xlink:href="#DejaVuSans-65"/>
      <use x="137.011719" xlink:href="#DejaVuSans-88"/>
     </g>
    </g>
   </g>
   <g id="text_9">
    <g clip-path="url(#p4427a38bab)">
     <!-- DDB2 -->
     <g transform="translate(154.463713 85.47316)scale(0.1 -0.1)">
      <use xlink:href="#DejaVuSans-68"/>
      <use x="77.001953" xlink:href="#DejaVuSans-68"/>
      <use x="154.003906" xlink:href="#DejaVuSans-66"/>
      <use x="222.607422" xlink:href="#DejaVuSans-50"/>
     </g>
    </g>
   </g>
   <g id="text_10">
    <g clip-path="url(#p4427a38bab)">
     <!-- POLK -->
     <g transform="translate(328.856578 63.564773)scale(0.1 -0.1)">
      <defs>
       <path d="M 39.40625 66.21875 
Q 28.65625 66.21875 22.328125 58.203125 
Q 16.015625 50.203125 16.015625 36.375 
Q 16.015625 22.609375 22.328125 14.59375 
Q 28.65625 6.59375 39.40625 6.59375 
Q 50.140625 6.59375 56.421875 14.59375 
Q 62.703125 22.609375 62.703125 36.375 
Q 62.703125 50.203125 56.421875 58.203125 
Q 50.140625 66.21875 39.40625 66.21875 
z
M 39.40625 74.21875 
Q 54.734375 74.21875 63.90625 63.9375 
Q 73.09375 53.65625 73.09375 36.375 
Q 73.09375 19.140625 63.90625 8.859375 
Q 54.734375 -1.421875 39.40625 -1.421875 
Q 24.03125 -1.421875 14.8125 8.828125 
Q 5.609375 19.09375 5.609375 36.375 
Q 5.609375 53.65625 14.8125 63.9375 
Q 24.03125 74.21875 39.40625 74.21875 
z
" id="DejaVuSans-79"/>
       <path d="M 9.8125 72.90625 
L 19.671875 72.90625 
L 19.671875 8.296875 
L 55.171875 8.296875 
L 55.171875 0 
L 9.8125 0 
z
" id="DejaVuSans-76"/>
      </defs>
      <use xlink:href="#DejaVuSans-80"/>
      <use x="60.302734" xlink:href="#DejaVuSans-79"/>
      <use x="139.013672" xlink:href="#DejaVuSans-76"/>
      <use x="194.726562" xlink:href="#DejaVuSans-75"/>
     </g>
    </g>
   </g>
   <g id="text_11">
    <g clip-path="url(#p4427a38bab)">
     <!-- CAMK1 -->
     <g transform="translate(178.389883 268.942914)scale(0.1 -0.1)">
      <use xlink:href="#DejaVuSans-67"/>
      <use x="69.824219" xlink:href="#DejaVuSans-65"/>
      <use x="138.232422" xlink:href="#DejaVuSans-77"/>
      <use x="224.511719" xlink:href="#DejaVuSans-75"/>
      <use x="290.087891" xlink:href="#DejaVuSans-49"/>
     </g>
    </g>
   </g>
   <g id="text_12">
    <g clip-path="url(#p4427a38bab)">
     <!-- CAMK4 -->
     <g transform="translate(411.091399 226.049187)scale(0.1 -0.1)">
      <defs>
       <path d="M 37.796875 64.3125 
L 12.890625 25.390625 
L 37.796875 25.390625 
z
M 35.203125 72.90625 
L 47.609375 72.90625 
L 47.609375 25.390625 
L 58.015625 25.390625 
L 58.015625 17.1875 
L 47.609375 17.1875 
L 47.609375 0 
L 37.796875 0 
L 37.796875 17.1875 
L 4.890625 17.1875 
L 4.890625 26.703125 
z
" id="DejaVuSans-52"/>
      </defs>
      <use xlink:href="#DejaVuSans-67"/>
      <use x="69.824219" xlink:href="#DejaVuSans-65"/>
      <use x="138.232422" xlink:href="#DejaVuSans-77"/>
      <use x="224.511719" xlink:href="#DejaVuSans-75"/>
      <use x="290.087891" xlink:href="#DejaVuSans-52"/>
     </g>
    </g>
   </g>
   <g id="text_13">
    <g clip-path="url(#p4427a38bab)">
     <!-- PRKCA -->
     <g transform="translate(393.042907 170.932079)scale(0.1 -0.1)">
      <use xlink:href="#DejaVuSans-80"/>
      <use x="60.302734" xlink:href="#DejaVuSans-82"/>
      <use x="129.785156" xlink:href="#DejaVuSans-75"/>
      <use x="189.861328" xlink:href="#DejaVuSans-67"/>
      <use x="259.685547" xlink:href="#DejaVuSans-65"/>
     </g>
    </g>
   </g>
   <g id="text_14">
    <g clip-path="url(#p4427a38bab)">
     <!-- PRKCB -->
     <g transform="translate(208.936264 198.471001)scale(0.1 -0.1)">
      <use xlink:href="#DejaVuSans-80"/>
      <use x="60.302734" xlink:href="#DejaVuSans-82"/>
      <use x="129.785156" xlink:href="#DejaVuSans-75"/>
      <use x="189.861328" xlink:href="#DejaVuSans-67"/>
      <use x="259.685547" xlink:href="#DejaVuSans-66"/>
     </g>
    </g>
   </g>
   <g id="text_15">
    <g clip-path="url(#p4427a38bab)">
     <!-- SHC1 -->
     <g transform="translate(268.760568 292.572009)scale(0.1 -0.1)">
      <defs>
       <path d="M 53.515625 70.515625 
L 53.515625 60.890625 
Q 47.90625 63.578125 42.921875 64.890625 
Q 37.9375 66.21875 33.296875 66.21875 
Q 25.25 66.21875 20.875 63.09375 
Q 16.5 59.96875 16.5 54.203125 
Q 16.5 49.359375 19.40625 46.890625 
Q 22.3125 44.4375 30.421875 42.921875 
L 36.375 41.703125 
Q 47.40625 39.59375 52.65625 34.296875 
Q 57.90625 29 57.90625 20.125 
Q 57.90625 9.515625 50.796875 4.046875 
Q 43.703125 -1.421875 29.984375 -1.421875 
Q 24.8125 -1.421875 18.96875 -0.25 
Q 13.140625 0.921875 6.890625 3.21875 
L 6.890625 13.375 
Q 12.890625 10.015625 18.65625 8.296875 
Q 24.421875 6.59375 29.984375 6.59375 
Q 38.421875 6.59375 43.015625 9.90625 
Q 47.609375 13.234375 47.609375 19.390625 
Q 47.609375 24.75 44.3125 27.78125 
Q 41.015625 30.8125 33.5 32.328125 
L 27.484375 33.5 
Q 16.453125 35.6875 11.515625 40.375 
Q 6.59375 45.0625 6.59375 53.421875 
Q 6.59375 63.09375 13.40625 68.65625 
Q 20.21875 74.21875 32.171875 74.21875 
Q 37.3125 74.21875 42.625 73.28125 
Q 47.953125 72.359375 53.515625 70.515625 
z
" id="DejaVuSans-83"/>
       <path d="M 9.8125 72.90625 
L 19.671875 72.90625 
L 19.671875 43.015625 
L 55.515625 43.015625 
L 55.515625 72.90625 
L 65.375 72.90625 
L 65.375 0 
L 55.515625 0 
L 55.515625 34.71875 
L 19.671875 34.71875 
L 19.671875 0 
L 9.8125 0 
z
" id="DejaVuSans-72"/>
      </defs>
      <use xlink:href="#DejaVuSans-83"/>
      <use x="63.476562" xlink:href="#DejaVuSans-72"/>
      <use x="138.671875" xlink:href="#DejaVuSans-67"/>
      <use x="208.496094" xlink:href="#DejaVuSans-49"/>
     </g>
    </g>
   </g>
   <g id="text_16">
    <g clip-path="url(#p4427a38bab)">
     <!-- BRAF -->
     <g transform="translate(235.036747 413.523186)scale(0.1 -0.1)">
      <use xlink:href="#DejaVuSans-66"/>
      <use x="68.603516" xlink:href="#DejaVuSans-82"/>
      <use x="134.085938" xlink:href="#DejaVuSans-65"/>
      <use x="202.494141" xlink:href="#DejaVuSans-70"/>
     </g>
    </g>
   </g>
   <g id="text_17">
    <g clip-path="url(#p4427a38bab)">
     <!-- RAF1 -->
     <g transform="translate(345.460294 213.084951)scale(0.1 -0.1)">
      <use xlink:href="#DejaVuSans-82"/>
      <use x="65.482422" xlink:href="#DejaVuSans-65"/>
      <use x="133.890625" xlink:href="#DejaVuSans-70"/>
      <use x="191.410156" xlink:href="#DejaVuSans-49"/>
     </g>
    </g>
   </g>
   <g id="text_18">
    <g clip-path="url(#p4427a38bab)">
     <!-- ARAF -->
     <g transform="translate(156.237437 290.919576)scale(0.1 -0.1)">
      <use xlink:href="#DejaVuSans-65"/>
      <use x="68.408203" xlink:href="#DejaVuSans-82"/>
      <use x="133.890625" xlink:href="#DejaVuSans-65"/>
      <use x="202.298828" xlink:href="#DejaVuSans-70"/>
     </g>
    </g>
   </g>
   <g id="text_19">
    <g clip-path="url(#p4427a38bab)">
     <!-- MAP2K1 -->
     <g transform="translate(509.456589 367.167686)scale(0.1 -0.1)">
      <use xlink:href="#DejaVuSans-77"/>
      <use x="86.279297" xlink:href="#DejaVuSans-65"/>
      <use x="154.6875" xlink:href="#DejaVuSans-80"/>
      <use x="214.990234" xlink:href="#DejaVuSans-50"/>
      <use x="278.613281" xlink:href="#DejaVuSans-75"/>
      <use x="344.189453" xlink:href="#DejaVuSans-49"/>
     </g>
    </g>
   </g>
   <g id="text_20">
    <g clip-path="url(#p4427a38bab)">
     <!-- MAP2K2 -->
     <g transform="translate(44.91516 282.60016)scale(0.1 -0.1)">
      <use xlink:href="#DejaVuSans-77"/>
      <use x="86.279297" xlink:href="#DejaVuSans-65"/>
      <use x="154.6875" xlink:href="#DejaVuSans-80"/>
      <use x="214.990234" xlink:href="#DejaVuSans-50"/>
      <use x="278.613281" xlink:href="#DejaVuSans-75"/>
      <use x="344.189453" xlink:href="#DejaVuSans-50"/>
     </g>
    </g>
   </g>
   <g id="text_21">
    <g clip-path="url(#p4427a38bab)">
     <!-- CDK4 -->
     <g transform="translate(162.113497 150.310073)scale(0.1 -0.1)">
      <use xlink:href="#DejaVuSans-67"/>
      <use x="69.824219" xlink:href="#DejaVuSans-68"/>
      <use x="146.826172" xlink:href="#DejaVuSans-75"/>
      <use x="212.402344" xlink:href="#DejaVuSans-52"/>
     </g>
    </g>
   </g>
   <g id="text_22">
    <g clip-path="url(#p4427a38bab)">
     <!-- CDK6 -->
     <g transform="translate(488.156672 406.857439)scale(0.1 -0.1)">
      <defs>
       <path d="M 33.015625 40.375 
Q 26.375 40.375 22.484375 35.828125 
Q 18.609375 31.296875 18.609375 23.390625 
Q 18.609375 15.53125 22.484375 10.953125 
Q 26.375 6.390625 33.015625 6.390625 
Q 39.65625 6.390625 43.53125 10.953125 
Q 47.40625 15.53125 47.40625 23.390625 
Q 47.40625 31.296875 43.53125 35.828125 
Q 39.65625 40.375 33.015625 40.375 
z
M 52.59375 71.296875 
L 52.59375 62.3125 
Q 48.875 64.0625 45.09375 64.984375 
Q 41.3125 65.921875 37.59375 65.921875 
Q 27.828125 65.921875 22.671875 59.328125 
Q 17.53125 52.734375 16.796875 39.40625 
Q 19.671875 43.65625 24.015625 45.921875 
Q 28.375 48.1875 33.59375 48.1875 
Q 44.578125 48.1875 50.953125 41.515625 
Q 57.328125 34.859375 57.328125 23.390625 
Q 57.328125 12.15625 50.6875 5.359375 
Q 44.046875 -1.421875 33.015625 -1.421875 
Q 20.359375 -1.421875 13.671875 8.265625 
Q 6.984375 17.96875 6.984375 36.375 
Q 6.984375 53.65625 15.1875 63.9375 
Q 23.390625 74.21875 37.203125 74.21875 
Q 40.921875 74.21875 44.703125 73.484375 
Q 48.484375 72.75 52.59375 71.296875 
z
" id="DejaVuSans-54"/>
      </defs>
      <use xlink:href="#DejaVuSans-67"/>
      <use x="69.824219" xlink:href="#DejaVuSans-68"/>
      <use x="146.826172" xlink:href="#DejaVuSans-75"/>
      <use x="212.402344" xlink:href="#DejaVuSans-54"/>
     </g>
    </g>
   </g>
   <g id="text_23">
    <g clip-path="url(#p4427a38bab)">
     <!-- E2F3 -->
     <g transform="translate(523.309527 104.347468)scale(0.1 -0.1)">
      <defs>
       <path d="M 9.8125 72.90625 
L 55.90625 72.90625 
L 55.90625 64.59375 
L 19.671875 64.59375 
L 19.671875 43.015625 
L 54.390625 43.015625 
L 54.390625 34.71875 
L 19.671875 34.71875 
L 19.671875 8.296875 
L 56.78125 8.296875 
L 56.78125 0 
L 9.8125 0 
z
" id="DejaVuSans-69"/>
      </defs>
      <use xlink:href="#DejaVuSans-69"/>
      <use x="63.183594" xlink:href="#DejaVuSans-50"/>
      <use x="126.806641" xlink:href="#DejaVuSans-70"/>
      <use x="184.326172" xlink:href="#DejaVuSans-51"/>
     </g>
    </g>
   </g>
   <g id="text_24">
    <g clip-path="url(#p4427a38bab)">
     <!-- PLCG1 -->
     <g transform="translate(378.266992 89.260728)scale(0.1 -0.1)">
      <use xlink:href="#DejaVuSans-80"/>
      <use x="60.302734" xlink:href="#DejaVuSans-76"/>
      <use x="116.015625" xlink:href="#DejaVuSans-67"/>
      <use x="185.839844" xlink:href="#DejaVuSans-71"/>
      <use x="263.330078" xlink:href="#DejaVuSans-49"/>
     </g>
    </g>
   </g>
   <g id="text_25">
    <g clip-path="url(#p4427a38bab)">
     <!-- PLCG2 -->
     <g transform="translate(539.702258 173.798244)scale(0.1 -0.1)">
      <use xlink:href="#DejaVuSans-80"/>
      <use x="60.302734" xlink:href="#DejaVuSans-76"/>
      <use x="116.015625" xlink:href="#DejaVuSans-67"/>
      <use x="185.839844" xlink:href="#DejaVuSans-71"/>
      <use x="263.330078" xlink:href="#DejaVuSans-50"/>
     </g>
    </g>
   </g>
   <g id="text_26">
    <g clip-path="url(#p4427a38bab)">
     <!-- HRAS -->
     <g transform="translate(127.909747 243.187626)scale(0.1 -0.1)">
      <use xlink:href="#DejaVuSans-72"/>
      <use x="75.195312" xlink:href="#DejaVuSans-82"/>
      <use x="140.677734" xlink:href="#DejaVuSans-65"/>
      <use x="209.085938" xlink:href="#DejaVuSans-83"/>
     </g>
    </g>
   </g>
   <g id="text_27">
    <g clip-path="url(#p4427a38bab)">
     <!-- KRAS -->
     <g transform="translate(316.088924 247.496215)scale(0.1 -0.1)">
      <use xlink:href="#DejaVuSans-75"/>
      <use x="65.576172" xlink:href="#DejaVuSans-82"/>
      <use x="131.058594" xlink:href="#DejaVuSans-65"/>
      <use x="199.466797" xlink:href="#DejaVuSans-83"/>
     </g>
    </g>
   </g>
   <g id="text_28">
    <g clip-path="url(#p4427a38bab)">
     <!-- NRAS -->
     <g transform="translate(363.067335 288.566545)scale(0.1 -0.1)">
      <use xlink:href="#DejaVuSans-78"/>
      <use x="74.804688" xlink:href="#DejaVuSans-82"/>
      <use x="140.287109" xlink:href="#DejaVuSans-65"/>
      <use x="208.695312" xlink:href="#DejaVuSans-83"/>
     </g>
    </g>
   </g>
   <g id="text_29">
    <!-- Importance Score for Each Node in the Network -->
    <g transform="translate(198.616875 16.318125)scale(0.12 -0.12)">
     <defs>
      <path d="M 52 44.1875 
Q 55.375 50.25 60.0625 53.125 
Q 64.75 56 71.09375 56 
Q 79.640625 56 84.28125 50.015625 
Q 88.921875 44.046875 88.921875 33.015625 
L 88.921875 0 
L 79.890625 0 
L 79.890625 32.71875 
Q 79.890625 40.578125 77.09375 44.375 
Q 74.3125 48.1875 68.609375 48.1875 
Q 61.625 48.1875 57.5625 43.546875 
Q 53.515625 38.921875 53.515625 30.90625 
L 53.515625 0 
L 44.484375 0 
L 44.484375 32.71875 
Q 44.484375 40.625 41.703125 44.40625 
Q 38.921875 48.1875 33.109375 48.1875 
Q 26.21875 48.1875 22.15625 43.53125 
Q 18.109375 38.875 18.109375 30.90625 
L 18.109375 0 
L 9.078125 0 
L 9.078125 54.6875 
L 18.109375 54.6875 
L 18.109375 46.1875 
Q 21.1875 51.21875 25.484375 53.609375 
Q 29.78125 56 35.6875 56 
Q 41.65625 56 45.828125 52.96875 
Q 50 49.953125 52 44.1875 
z
" id="DejaVuSans-109"/>
      <path d="M 18.109375 8.203125 
L 18.109375 -20.796875 
L 9.078125 -20.796875 
L 9.078125 54.6875 
L 18.109375 54.6875 
L 18.109375 46.390625 
Q 20.953125 51.265625 25.265625 53.625 
Q 29.59375 56 35.59375 56 
Q 45.5625 56 51.78125 48.09375 
Q 58.015625 40.1875 58.015625 27.296875 
Q 58.015625 14.40625 51.78125 6.484375 
Q 45.5625 -1.421875 35.59375 -1.421875 
Q 29.59375 -1.421875 25.265625 0.953125 
Q 20.953125 3.328125 18.109375 8.203125 
z
M 48.6875 27.296875 
Q 48.6875 37.203125 44.609375 42.84375 
Q 40.53125 48.484375 33.40625 48.484375 
Q 26.265625 48.484375 22.1875 42.84375 
Q 18.109375 37.203125 18.109375 27.296875 
Q 18.109375 17.390625 22.1875 11.75 
Q 26.265625 6.109375 33.40625 6.109375 
Q 40.53125 6.109375 44.609375 11.75 
Q 48.6875 17.390625 48.6875 27.296875 
z
" id="DejaVuSans-112"/>
      <path d="M 30.609375 48.390625 
Q 23.390625 48.390625 19.1875 42.75 
Q 14.984375 37.109375 14.984375 27.296875 
Q 14.984375 17.484375 19.15625 11.84375 
Q 23.34375 6.203125 30.609375 6.203125 
Q 37.796875 6.203125 41.984375 11.859375 
Q 46.1875 17.53125 46.1875 27.296875 
Q 46.1875 37.015625 41.984375 42.703125 
Q 37.796875 48.390625 30.609375 48.390625 
z
M 30.609375 56 
Q 42.328125 56 49.015625 48.375 
Q 55.71875 40.765625 55.71875 27.296875 
Q 55.71875 13.875 49.015625 6.21875 
Q 42.328125 -1.421875 30.609375 -1.421875 
Q 18.84375 -1.421875 12.171875 6.21875 
Q 5.515625 13.875 5.515625 27.296875 
Q 5.515625 40.765625 12.171875 48.375 
Q 18.84375 56 30.609375 56 
z
" id="DejaVuSans-111"/>
      <path d="M 41.109375 46.296875 
Q 39.59375 47.171875 37.8125 47.578125 
Q 36.03125 48 33.890625 48 
Q 26.265625 48 22.1875 43.046875 
Q 18.109375 38.09375 18.109375 28.8125 
L 18.109375 0 
L 9.078125 0 
L 9.078125 54.6875 
L 18.109375 54.6875 
L 18.109375 46.1875 
Q 20.953125 51.171875 25.484375 53.578125 
Q 30.03125 56 36.53125 56 
Q 37.453125 56 38.578125 55.875 
Q 39.703125 55.765625 41.0625 55.515625 
z
" id="DejaVuSans-114"/>
      <path d="M 18.3125 70.21875 
L 18.3125 54.6875 
L 36.8125 54.6875 
L 36.8125 47.703125 
L 18.3125 47.703125 
L 18.3125 18.015625 
Q 18.3125 11.328125 20.140625 9.421875 
Q 21.96875 7.515625 27.59375 7.515625 
L 36.8125 7.515625 
L 36.8125 0 
L 27.59375 0 
Q 17.1875 0 13.234375 3.875 
Q 9.28125 7.765625 9.28125 18.015625 
L 9.28125 47.703125 
L 2.6875 47.703125 
L 2.6875 54.6875 
L 9.28125 54.6875 
L 9.28125 70.21875 
z
" id="DejaVuSans-116"/>
      <path d="M 34.28125 27.484375 
Q 23.390625 27.484375 19.1875 25 
Q 14.984375 22.515625 14.984375 16.5 
Q 14.984375 11.71875 18.140625 8.90625 
Q 21.296875 6.109375 26.703125 6.109375 
Q 34.1875 6.109375 38.703125 11.40625 
Q 43.21875 16.703125 43.21875 25.484375 
L 43.21875 27.484375 
z
M 52.203125 31.203125 
L 52.203125 0 
L 43.21875 0 
L 43.21875 8.296875 
Q 40.140625 3.328125 35.546875 0.953125 
Q 30.953125 -1.421875 24.3125 -1.421875 
Q 15.921875 -1.421875 10.953125 3.296875 
Q 6 8.015625 6 15.921875 
Q 6 25.140625 12.171875 29.828125 
Q 18.359375 34.515625 30.609375 34.515625 
L 43.21875 34.515625 
L 43.21875 35.40625 
Q 43.21875 41.609375 39.140625 45 
Q 35.0625 48.390625 27.6875 48.390625 
Q 23 48.390625 18.546875 47.265625 
Q 14.109375 46.140625 10.015625 43.890625 
L 10.015625 52.203125 
Q 14.9375 54.109375 19.578125 55.046875 
Q 24.21875 56 28.609375 56 
Q 40.484375 56 46.34375 49.84375 
Q 52.203125 43.703125 52.203125 31.203125 
z
" id="DejaVuSans-97"/>
      <path d="M 54.890625 33.015625 
L 54.890625 0 
L 45.90625 0 
L 45.90625 32.71875 
Q 45.90625 40.484375 42.875 44.328125 
Q 39.84375 48.1875 33.796875 48.1875 
Q 26.515625 48.1875 22.3125 43.546875 
Q 18.109375 38.921875 18.109375 30.90625 
L 18.109375 0 
L 9.078125 0 
L 9.078125 54.6875 
L 18.109375 54.6875 
L 18.109375 46.1875 
Q 21.34375 51.125 25.703125 53.5625 
Q 30.078125 56 35.796875 56 
Q 45.21875 56 50.046875 50.171875 
Q 54.890625 44.34375 54.890625 33.015625 
z
" id="DejaVuSans-110"/>
      <path d="M 48.78125 52.59375 
L 48.78125 44.1875 
Q 44.96875 46.296875 41.140625 47.34375 
Q 37.3125 48.390625 33.40625 48.390625 
Q 24.65625 48.390625 19.8125 42.84375 
Q 14.984375 37.3125 14.984375 27.296875 
Q 14.984375 17.28125 19.8125 11.734375 
Q 24.65625 6.203125 33.40625 6.203125 
Q 37.3125 6.203125 41.140625 7.25 
Q 44.96875 8.296875 48.78125 10.40625 
L 48.78125 2.09375 
Q 45.015625 0.34375 40.984375 -0.53125 
Q 36.96875 -1.421875 32.421875 -1.421875 
Q 20.0625 -1.421875 12.78125 6.34375 
Q 5.515625 14.109375 5.515625 27.296875 
Q 5.515625 40.671875 12.859375 48.328125 
Q 20.21875 56 33.015625 56 
Q 37.15625 56 41.109375 55.140625 
Q 45.0625 54.296875 48.78125 52.59375 
z
" id="DejaVuSans-99"/>
      <path d="M 56.203125 29.59375 
L 56.203125 25.203125 
L 14.890625 25.203125 
Q 15.484375 15.921875 20.484375 11.0625 
Q 25.484375 6.203125 34.421875 6.203125 
Q 39.59375 6.203125 44.453125 7.46875 
Q 49.3125 8.734375 54.109375 11.28125 
L 54.109375 2.78125 
Q 49.265625 0.734375 44.1875 -0.34375 
Q 39.109375 -1.421875 33.890625 -1.421875 
Q 20.796875 -1.421875 13.15625 6.1875 
Q 5.515625 13.8125 5.515625 26.8125 
Q 5.515625 40.234375 12.765625 48.109375 
Q 20.015625 56 32.328125 56 
Q 43.359375 56 49.78125 48.890625 
Q 56.203125 41.796875 56.203125 29.59375 
z
M 47.21875 32.234375 
Q 47.125 39.59375 43.09375 43.984375 
Q 39.0625 48.390625 32.421875 48.390625 
Q 24.90625 48.390625 20.390625 44.140625 
Q 15.875 39.890625 15.1875 32.171875 
z
" id="DejaVuSans-101"/>
      <path id="DejaVuSans-32"/>
      <path d="M 37.109375 75.984375 
L 37.109375 68.5 
L 28.515625 68.5 
Q 23.6875 68.5 21.796875 66.546875 
Q 19.921875 64.59375 19.921875 59.515625 
L 19.921875 54.6875 
L 34.71875 54.6875 
L 34.71875 47.703125 
L 19.921875 47.703125 
L 19.921875 0 
L 10.890625 0 
L 10.890625 47.703125 
L 2.296875 47.703125 
L 2.296875 54.6875 
L 10.890625 54.6875 
L 10.890625 58.5 
Q 10.890625 67.625 15.140625 71.796875 
Q 19.390625 75.984375 28.609375 75.984375 
z
" id="DejaVuSans-102"/>
      <path d="M 54.890625 33.015625 
L 54.890625 0 
L 45.90625 0 
L 45.90625 32.71875 
Q 45.90625 40.484375 42.875 44.328125 
Q 39.84375 48.1875 33.796875 48.1875 
Q 26.515625 48.1875 22.3125 43.546875 
Q 18.109375 38.921875 18.109375 30.90625 
L 18.109375 0 
L 9.078125 0 
L 9.078125 75.984375 
L 18.109375 75.984375 
L 18.109375 46.1875 
Q 21.34375 51.125 25.703125 53.5625 
Q 30.078125 56 35.796875 56 
Q 45.21875 56 50.046875 50.171875 
Q 54.890625 44.34375 54.890625 33.015625 
z
" id="DejaVuSans-104"/>
      <path d="M 45.40625 46.390625 
L 45.40625 75.984375 
L 54.390625 75.984375 
L 54.390625 0 
L 45.40625 0 
L 45.40625 8.203125 
Q 42.578125 3.328125 38.25 0.953125 
Q 33.9375 -1.421875 27.875 -1.421875 
Q 17.96875 -1.421875 11.734375 6.484375 
Q 5.515625 14.40625 5.515625 27.296875 
Q 5.515625 40.1875 11.734375 48.09375 
Q 17.96875 56 27.875 56 
Q 33.9375 56 38.25 53.625 
Q 42.578125 51.265625 45.40625 46.390625 
z
M 14.796875 27.296875 
Q 14.796875 17.390625 18.875 11.75 
Q 22.953125 6.109375 30.078125 6.109375 
Q 37.203125 6.109375 41.296875 11.75 
Q 45.40625 17.390625 45.40625 27.296875 
Q 45.40625 37.203125 41.296875 42.84375 
Q 37.203125 48.484375 30.078125 48.484375 
Q 22.953125 48.484375 18.875 42.84375 
Q 14.796875 37.203125 14.796875 27.296875 
z
" id="DejaVuSans-100"/>
      <path d="M 9.421875 54.6875 
L 18.40625 54.6875 
L 18.40625 0 
L 9.421875 0 
z
M 9.421875 75.984375 
L 18.40625 75.984375 
L 18.40625 64.59375 
L 9.421875 64.59375 
z
" id="DejaVuSans-105"/>
      <path d="M 4.203125 54.6875 
L 13.1875 54.6875 
L 24.421875 12.015625 
L 35.59375 54.6875 
L 46.1875 54.6875 
L 57.421875 12.015625 
L 68.609375 54.6875 
L 77.59375 54.6875 
L 63.28125 0 
L 52.6875 0 
L 40.921875 44.828125 
L 29.109375 0 
L 18.5 0 
z
" id="DejaVuSans-119"/>
      <path d="M 9.078125 75.984375 
L 18.109375 75.984375 
L 18.109375 31.109375 
L 44.921875 54.6875 
L 56.390625 54.6875 
L 27.390625 29.109375 
L 57.625 0 
L 45.90625 0 
L 18.109375 26.703125 
L 18.109375 0 
L 9.078125 0 
z
" id="DejaVuSans-107"/>
     </defs>
     <use xlink:href="#DejaVuSans-73"/>
     <use x="29.492188" xlink:href="#DejaVuSans-109"/>
     <use x="126.904297" xlink:href="#DejaVuSans-112"/>
     <use x="190.380859" xlink:href="#DejaVuSans-111"/>
     <use x="251.5625" xlink:href="#DejaVuSans-114"/>
     <use x="292.675781" xlink:href="#DejaVuSans-116"/>
     <use x="331.884766" xlink:href="#DejaVuSans-97"/>
     <use x="393.164062" xlink:href="#DejaVuSans-110"/>
     <use x="456.542969" xlink:href="#DejaVuSans-99"/>
     <use x="511.523438" xlink:href="#DejaVuSans-101"/>
     <use x="573.046875" xlink:href="#DejaVuSans-32"/>
     <use x="604.833984" xlink:href="#DejaVuSans-83"/>
     <use x="668.310547" xlink:href="#DejaVuSans-99"/>
     <use x="723.291016" xlink:href="#DejaVuSans-111"/>
     <use x="784.472656" xlink:href="#DejaVuSans-114"/>
     <use x="823.335938" xlink:href="#DejaVuSans-101"/>
     <use x="884.859375" xlink:href="#DejaVuSans-32"/>
     <use x="916.646484" xlink:href="#DejaVuSans-102"/>
     <use x="951.851562" xlink:href="#DejaVuSans-111"/>
     <use x="1013.033203" xlink:href="#DejaVuSans-114"/>
     <use x="1054.146484" xlink:href="#DejaVuSans-32"/>
     <use x="1085.933594" xlink:href="#DejaVuSans-69"/>
     <use x="1149.117188" xlink:href="#DejaVuSans-97"/>
     <use x="1210.396484" xlink:href="#DejaVuSans-99"/>
     <use x="1265.376953" xlink:href="#DejaVuSans-104"/>
     <use x="1328.755859" xlink:href="#DejaVuSans-32"/>
     <use x="1360.542969" xlink:href="#DejaVuSans-78"/>
     <use x="1435.347656" xlink:href="#DejaVuSans-111"/>
     <use x="1496.529297" xlink:href="#DejaVuSans-100"/>
     <use x="1560.005859" xlink:href="#DejaVuSans-101"/>
     <use x="1621.529297" xlink:href="#DejaVuSans-32"/>
     <use x="1653.316406" xlink:href="#DejaVuSans-105"/>
     <use x="1681.099609" xlink:href="#DejaVuSans-110"/>
     <use x="1744.478516" xlink:href="#DejaVuSans-32"/>
     <use x="1776.265625" xlink:href="#DejaVuSans-116"/>
     <use x="1815.474609" xlink:href="#DejaVuSans-104"/>
     <use x="1878.853516" xlink:href="#DejaVuSans-101"/>
     <use x="1940.376953" xlink:href="#DejaVuSans-32"/>
     <use x="1972.164062" xlink:href="#DejaVuSans-78"/>
     <use x="2046.96875" xlink:href="#DejaVuSans-101"/>
     <use x="2108.492188" xlink:href="#DejaVuSans-116"/>
     <use x="2147.701172" xlink:href="#DejaVuSans-119"/>
     <use x="2229.488281" xlink:href="#DejaVuSans-111"/>
     <use x="2290.669922" xlink:href="#DejaVuSans-114"/>
     <use x="2331.783203" xlink:href="#DejaVuSans-107"/>
    </g>
   </g>
  </g>
 </g>
 <defs>
  <clipPath id="p4427a38bab">
   <rect height="443.52" width="669.6" x="7.2" y="22.318125"/>
  </clipPath>
 </defs>
</svg>
