<?xml version="1.0" encoding="utf-8" standalone="no"?>
<!DOCTYPE svg PUBLIC "-//W3C//DTD SVG 1.1//EN"
  "http://www.w3.org/Graphics/SVG/1.1/DTD/svg11.dtd">
<!-- Created with matplotlib (https://matplotlib.org/) -->
<svg height="473.038125pt" version="1.1" viewBox="0 0 684 473.038125" width="684pt" xmlns="http://www.w3.org/2000/svg" xmlns:xlink="http://www.w3.org/1999/xlink">
 <metadata>
  <rdf:RDF xmlns:cc="http://creativecommons.org/ns#" xmlns:dc="http://purl.org/dc/elements/1.1/" xmlns:rdf="http://www.w3.org/1999/02/22-rdf-syntax-ns#">
   <cc:Work>
    <dc:type rdf:resource="http://purl.org/dc/dcmitype/StillImage"/>
    <dc:date>2024-04-26T10:48:44.976799</dc:date>
    <dc:format>image/svg+xml</dc:format>
    <dc:creator>
     <cc:Agent>
      <dc:title>Matplotlib v3.3.1, https://matplotlib.org/</dc:title>
     </cc:Agent>
    </dc:creator>
   </cc:Work>
  </rdf:RDF>
 </metadata>
 <defs>
  <style type="text/css">*{stroke-linecap:butt;stroke-linejoin:round;}</style>
 </defs>
 <g id="figure_1">
  <g id="patch_1">
   <path d="M 0 473.038125 
L 684 473.038125 
L 684 0 
L 0 0 
z
" style="fill:#ffffff;"/>
  </g>
  <g id="axes_1">
   <g id="patch_2">
    <path clip-path="url(#p3ded61ed04)" d="M 70.07441 163.146162 
Q 71.642094 173.107184 73.03596 181.963765 
" style="fill:none;stroke:#808080;stroke-linecap:round;"/>
    <path clip-path="url(#p3ded61ed04)" d="M 74.389768 177.701465 
L 73.03596 181.963765 
L 70.438405 178.323338 
L 74.389768 177.701465 
z
" style="fill:#808080;stroke:#808080;stroke-linecap:round;"/>
   </g>
   <g id="patch_3">
    <path clip-path="url(#p3ded61ed04)" d="M 341.633622 118.556381 
Q 212.270017 153.947519 83.984816 189.043628 
" style="fill:none;stroke:#808080;stroke-linecap:round;"/>
    <path clip-path="url(#p3ded61ed04)" d="M 88.3708 189.917211 
L 83.984816 189.043628 
L 87.315273 186.058991 
L 88.3708 189.917211 
z
" style="fill:#808080;stroke:#808080;stroke-linecap:round;"/>
   </g>
   <g id="patch_4">
    <path clip-path="url(#p3ded61ed04)" d="M 117.872291 142.314537 
Q 97.500794 147.402202 78.214014 152.218966 
" style="fill:none;stroke:#808080;stroke-linecap:round;"/>
    <path clip-path="url(#p3ded61ed04)" d="M 82.579422 153.190159 
L 78.214014 152.218966 
L 81.610213 149.309356 
L 82.579422 153.190159 
z
" style="fill:#808080;stroke:#808080;stroke-linecap:round;"/>
   </g>
   <g id="patch_5">
    <path clip-path="url(#p3ded61ed04)" d="M 603.583418 287.804624 
Q 596.476668 285.720237 590.44276 283.95051 
" style="fill:none;stroke:#808080;stroke-linecap:round;"/>
    <path clip-path="url(#p3ded61ed04)" d="M 593.718191 286.995433 
L 590.44276 283.95051 
L 594.843956 283.157119 
L 593.718191 286.995433 
z
" style="fill:#808080;stroke:#808080;stroke-linecap:round;"/>
   </g>
   <g id="patch_6">
    <path clip-path="url(#p3ded61ed04)" d="M 340.830149 132.689311 
Q 472.614888 209.288251 603.433014 285.325355 
" style="fill:none;stroke:#808080;stroke-linecap:round;"/>
    <path clip-path="url(#p3ded61ed04)" d="M 600.9798 281.586138 
L 603.433014 285.325355 
L 598.969712 285.044396 
L 600.9798 281.586138 
z
" style="fill:#808080;stroke:#808080;stroke-linecap:round;"/>
   </g>
   <g id="patch_7">
    <path clip-path="url(#p3ded61ed04)" d="M 345.684304 212.685517 
Q 347.641376 168.805325 349.548632 126.042055 
" style="fill:none;stroke:#808080;stroke-linecap:round;"/>
    <path clip-path="url(#p3ded61ed04)" d="M 347.372394 129.948971 
L 349.548632 126.042055 
L 351.368422 130.127195 
L 347.372394 129.948971 
z
" style="fill:#808080;stroke:#808080;stroke-linecap:round;"/>
   </g>
   <g id="patch_8">
    <path clip-path="url(#p3ded61ed04)" d="M 342.690521 213.080249 
Q 320.608189 143.141595 298.862484 74.269093 
" style="fill:none;stroke:#808080;stroke-linecap:round;"/>
    <path clip-path="url(#p3ded61ed04)" d="M 298.15964 78.685654 
L 298.862484 74.269093 
L 301.974026 77.481305 
L 298.15964 78.685654 
z
" style="fill:#808080;stroke:#808080;stroke-linecap:round;"/>
   </g>
   <g id="patch_9">
    <path clip-path="url(#p3ded61ed04)" d="M 340.685893 228.673227 
Q 305.461025 284.679408 270.831396 339.739179 
" style="fill:none;stroke:#808080;stroke-linecap:round;"/>
    <path clip-path="url(#p3ded61ed04)" d="M 274.653979 337.418002 
L 270.831396 339.739179 
L 271.268005 335.288407 
L 274.653979 337.418002 
z
" style="fill:#808080;stroke:#808080;stroke-linecap:round;"/>
   </g>
   <g id="patch_10">
    <path clip-path="url(#p3ded61ed04)" d="M 345.567571 229.997862 
Q 347.131065 280.275951 348.659807 329.436545 
" style="fill:none;stroke:#808080;stroke-linecap:round;"/>
    <path clip-path="url(#p3ded61ed04)" d="M 350.534514 325.376314 
L 348.659807 329.436545 
L 346.536446 325.500642 
L 350.534514 325.376314 
z
" style="fill:#808080;stroke:#808080;stroke-linecap:round;"/>
   </g>
   <g id="patch_11">
    <path clip-path="url(#p3ded61ed04)" d="M 338.264417 247.094864 
Q 343.737946 185.997118 349.111714 126.012946 
" style="fill:none;stroke:#808080;stroke-linecap:round;"/>
    <path clip-path="url(#p3ded61ed04)" d="M 346.762776 129.818532 
L 349.111714 126.012946 
L 350.74682 130.175449 
L 346.762776 129.818532 
z
" style="fill:#808080;stroke:#808080;stroke-linecap:round;"/>
   </g>
   <g id="patch_12">
    <path clip-path="url(#p3ded61ed04)" d="M 335.647533 247.258697 
Q 316.704545 160.330983 297.999608 74.495667 
" style="fill:none;stroke:#808080;stroke-linecap:round;"/>
    <path clip-path="url(#p3ded61ed04)" d="M 296.897148 78.829785 
L 297.999608 74.495667 
L 300.805426 77.978106 
L 296.897148 78.829785 
z
" style="fill:#808080;stroke:#808080;stroke-linecap:round;"/>
   </g>
   <g id="patch_13">
    <path clip-path="url(#p3ded61ed04)" d="M 332.173129 262.551455 
Q 301.558524 301.868837 271.630806 340.304071 
" style="fill:none;stroke:#808080;stroke-linecap:round;"/>
    <path clip-path="url(#p3ded61ed04)" d="M 275.666325 338.376743 
L 271.630806 340.304071 
L 272.510255 335.91926 
L 275.666325 338.376743 
z
" style="fill:#808080;stroke:#808080;stroke-linecap:round;"/>
   </g>
   <g id="patch_14">
    <path clip-path="url(#p3ded61ed04)" d="M 338.670414 264.299737 
Q 343.227449 297.463683 347.632287 329.520002 
" style="fill:none;stroke:#808080;stroke-linecap:round;"/>
    <path clip-path="url(#p3ded61ed04)" d="M 349.069148 325.284978 
L 347.632287 329.520002 
L 345.106384 325.829498 
L 349.069148 325.284978 
z
" style="fill:#808080;stroke:#808080;stroke-linecap:round;"/>
   </g>
   <g id="patch_15">
    <path clip-path="url(#p3ded61ed04)" d="M 100.893988 332.530504 
Q 216.695969 378.34698 331.458328 423.752134 
" style="fill:none;stroke:#808080;stroke-linecap:round;"/>
    <path clip-path="url(#p3ded61ed04)" d="M 328.474656 420.420813 
L 331.458328 423.752134 
L 327.003067 424.140279 
L 328.474656 420.420813 
z
" style="fill:#808080;stroke:#808080;stroke-linecap:round;"/>
   </g>
   <g id="patch_16">
    <path clip-path="url(#p3ded61ed04)" d="M 473.681688 236.352893 
Q 391.101529 253.531066 309.615972 270.481542 
" style="fill:none;stroke:#808080;stroke-linecap:round;"/>
    <path clip-path="url(#p3ded61ed04)" d="M 313.939457 271.624992 
L 309.615972 270.481542 
L 313.124823 267.708824 
L 313.939457 271.624992 
z
" style="fill:#808080;stroke:#808080;stroke-linecap:round;"/>
   </g>
   <g id="patch_17">
    <path clip-path="url(#p3ded61ed04)" d="M 473.817946 236.920415 
Q 388.316997 260.813269 303.892829 284.405222 
" style="fill:none;stroke:#808080;stroke-linecap:round;"/>
    <path clip-path="url(#p3ded61ed04)" d="M 308.283509 285.254888 
L 303.892829 284.405222 
L 307.20697 281.402478 
L 308.283509 285.254888 
z
" style="fill:#808080;stroke:#808080;stroke-linecap:round;"/>
   </g>
   <g id="patch_18">
    <path clip-path="url(#p3ded61ed04)" d="M 343.039868 63.688029 
Q 238.742042 100.51011 135.498476 136.959987 
" style="fill:none;stroke:#808080;stroke-linecap:round;"/>
    <path clip-path="url(#p3ded61ed04)" d="M 139.93613 137.514268 
L 135.498476 136.959987 
L 138.604493 133.742432 
L 139.93613 137.514268 
z
" style="fill:#808080;stroke:#808080;stroke-linecap:round;"/>
   </g>
   <g id="patch_19">
    <path clip-path="url(#p3ded61ed04)" d="M 423.587616 251.687957 
Q 383.921324 335.604676 344.732823 418.510595 
" style="fill:none;stroke:#808080;stroke-linecap:round;"/>
    <path clip-path="url(#p3ded61ed04)" d="M 348.250393 415.748948 
L 344.732823 418.510595 
L 344.634047 414.03955 
L 348.250393 415.748948 
z
" style="fill:#808080;stroke:#808080;stroke-linecap:round;"/>
   </g>
   <g id="patch_20">
    <path clip-path="url(#p3ded61ed04)" d="M 420.009999 239.159874 
Q 317.719621 173.160543 216.368699 107.767364 
" style="fill:none;stroke:#808080;stroke-linecap:round;"/>
    <path clip-path="url(#p3ded61ed04)" d="M 218.645485 111.616552 
L 216.368699 107.767364 
L 220.814121 108.255448 
L 218.645485 111.616552 
z
" style="fill:#808080;stroke:#808080;stroke-linecap:round;"/>
   </g>
   <g id="patch_21">
    <path clip-path="url(#p3ded61ed04)" d="M 435.943129 243.531637 
Q 522.992221 240.262413 608.924066 237.035149 
" style="fill:none;stroke:#808080;stroke-linecap:round;"/>
    <path clip-path="url(#p3ded61ed04)" d="M 604.851825 235.186676 
L 608.924066 237.035149 
L 605.001943 239.183858 
L 604.851825 235.186676 
z
" style="fill:#808080;stroke:#808080;stroke-linecap:round;"/>
   </g>
   <g id="patch_22">
    <path clip-path="url(#p3ded61ed04)" d="M 350.276303 305.06654 
Q 385.239271 352.064997 419.534916 398.166414 
" style="fill:none;stroke:#808080;stroke-linecap:round;"/>
    <path clip-path="url(#p3ded61ed04)" d="M 418.752101 393.763324 
L 419.534916 398.166414 
L 415.542755 396.150812 
L 418.752101 393.763324 
z
" style="fill:#808080;stroke:#808080;stroke-linecap:round;"/>
   </g>
   <g id="patch_23">
    <path clip-path="url(#p3ded61ed04)" d="M 336.784081 300.522469 
Q 238.467201 328.958386 141.224336 357.08367 
" style="fill:none;stroke:#808080;stroke-linecap:round;"/>
    <path clip-path="url(#p3ded61ed04)" d="M 145.622525 357.893566 
L 141.224336 357.08367 
L 144.511167 354.051056 
L 145.622525 357.893566 
z
" style="fill:#808080;stroke:#808080;stroke-linecap:round;"/>
   </g>
   <g id="patch_24">
    <path clip-path="url(#p3ded61ed04)" d="M 338.992922 291.981203 
Q 245.604802 198.257474 153.005831 105.325732 
" style="fill:none;stroke:#808080;stroke-linecap:round;"/>
    <path clip-path="url(#p3ded61ed04)" d="M 154.412433 109.570902 
L 153.005831 105.325732 
L 157.245928 106.747553 
L 154.412433 109.570902 
z
" style="fill:#808080;stroke:#808080;stroke-linecap:round;"/>
   </g>
   <g id="patch_25">
    <path clip-path="url(#p3ded61ed04)" d="M 351.710974 218.793946 
Q 386.955145 308.37266 421.789976 396.910969 
" style="fill:none;stroke:#808080;stroke-linecap:round;"/>
    <path clip-path="url(#p3ded61ed04)" d="M 422.186607 392.456456 
L 421.789976 396.910969 
L 418.464344 393.920957 
L 422.186607 392.456456 
z
" style="fill:#808080;stroke:#808080;stroke-linecap:round;"/>
   </g>
   <g id="patch_26">
    <path clip-path="url(#p3ded61ed04)" d="M 341.407139 215.640201 
Q 240.185035 285.266928 139.884082 354.260032 
" style="fill:none;stroke:#808080;stroke-linecap:round;"/>
    <path clip-path="url(#p3ded61ed04)" d="M 144.313155 353.640915 
L 139.884082 354.260032 
L 142.046233 350.345303 
L 144.313155 353.640915 
z
" style="fill:#808080;stroke:#808080;stroke-linecap:round;"/>
   </g>
   <g id="patch_27">
    <path clip-path="url(#p3ded61ed04)" d="M 340.968834 206.532657 
Q 247.322819 154.56691 154.654407 103.143652 
" style="fill:none;stroke:#808080;stroke-linecap:round;"/>
    <path clip-path="url(#p3ded61ed04)" d="M 157.181552 106.833305 
L 154.654407 103.143652 
L 159.122416 103.335728 
L 157.181552 106.833305 
z
" style="fill:#808080;stroke:#808080;stroke-linecap:round;"/>
   </g>
   <g id="patch_28">
    <path clip-path="url(#p3ded61ed04)" d="M 402.672736 100.392288 
Q 440.210239 163.766013 477.17796 226.177787 
" style="fill:none;stroke:#808080;stroke-linecap:round;"/>
    <path clip-path="url(#p3ded61ed04)" d="M 476.860235 221.716952 
L 477.17796 226.177787 
L 473.418657 223.755467 
L 476.860235 221.716952 
z
" style="fill:#808080;stroke:#808080;stroke-linecap:round;"/>
   </g>
   <g id="patch_29">
    <path clip-path="url(#p3ded61ed04)" d="M 562.562027 156.6968 
Q 525.471143 192.630045 489.183261 227.785351 
" style="fill:none;stroke:#808080;stroke-linecap:round;"/>
    <path clip-path="url(#p3ded61ed04)" d="M 493.447785 226.438564 
L 489.183261 227.785351 
L 490.664546 223.565659 
L 493.447785 226.438564 
z
" style="fill:#808080;stroke:#808080;stroke-linecap:round;"/>
   </g>
   <g id="patch_30">
    <path clip-path="url(#p3ded61ed04)" d="M 159.971885 381.995069 
Q 119.03722 290.761131 78.560235 200.547256 
" style="fill:none;stroke:#808080;stroke-linecap:round;"/>
    <path clip-path="url(#p3ded61ed04)" d="M 78.372936 205.015468 
L 78.560235 200.547256 
L 82.022425 203.378022 
L 78.372936 205.015468 
z
" style="fill:#808080;stroke:#808080;stroke-linecap:round;"/>
   </g>
   <g id="patch_31">
    <path clip-path="url(#p3ded61ed04)" d="M 258.922339 342.530813 
Q 170.091185 269.82059 82.125198 197.818525 
" style="fill:none;stroke:#808080;stroke-linecap:round;"/>
    <path clip-path="url(#p3ded61ed04)" d="M 83.953721 201.899763 
L 82.125198 197.818525 
L 86.487302 198.804449 
L 83.953721 201.899763 
z
" style="fill:#808080;stroke:#808080;stroke-linecap:round;"/>
   </g>
   <g id="patch_32">
    <path clip-path="url(#p3ded61ed04)" d="M 341.338959 335.108642 
Q 211.75985 265.416263 83.165394 196.253465 
" style="fill:none;stroke:#808080;stroke-linecap:round;"/>
    <path clip-path="url(#p3ded61ed04)" d="M 85.740851 199.909559 
L 83.165394 196.253465 
L 87.635543 196.386756 
L 85.740851 199.909559 
z
" style="fill:#808080;stroke:#808080;stroke-linecap:round;"/>
   </g>
   <g id="patch_33">
    <path clip-path="url(#p3ded61ed04)" d="M 302.677719 264.224375 
Q 325.012248 194.372675 347.006277 125.585898 
" style="fill:none;stroke:#808080;stroke-linecap:round;"/>
    <path clip-path="url(#p3ded61ed04)" d="M 343.883074 128.786773 
L 347.006277 125.585898 
L 347.693056 130.004985 
L 343.883074 128.786773 
z
" style="fill:#808080;stroke:#808080;stroke-linecap:round;"/>
   </g>
   <g id="patch_34">
    <path clip-path="url(#p3ded61ed04)" d="M 291.843743 275.276041 
Q 197.25361 307.61877 103.72138 339.599777 
" style="fill:none;stroke:#808080;stroke-linecap:round;"/>
    <path clip-path="url(#p3ded61ed04)" d="M 108.153314 340.198069 
L 103.72138 339.599777 
L 106.859175 336.413204 
L 108.153314 340.198069 
z
" style="fill:#808080;stroke:#808080;stroke-linecap:round;"/>
   </g>
   <g id="patch_35">
    <path clip-path="url(#p3ded61ed04)" d="M 291.377894 272.354158 
Q 193.53052 271.00618 96.801074 269.673603 
" style="fill:none;stroke:#808080;stroke-linecap:round;"/>
    <path clip-path="url(#p3ded61ed04)" d="M 100.773144 271.728513 
L 96.801074 269.673603 
L 100.828244 267.728892 
L 100.773144 271.728513 
z
" style="fill:#808080;stroke:#808080;stroke-linecap:round;"/>
   </g>
   <g id="patch_36">
    <path clip-path="url(#p3ded61ed04)" d="M 306.446574 266.641011 
Q 390.878656 189.773343 474.484002 113.658342 
" style="fill:none;stroke:#808080;stroke-linecap:round;"/>
    <path clip-path="url(#p3ded61ed04)" d="M 470.17977 114.872256 
L 474.484002 113.658342 
L 472.872594 117.830076 
L 470.17977 114.872256 
z
" style="fill:#808080;stroke:#808080;stroke-linecap:round;"/>
   </g>
   <g id="patch_37">
    <path clip-path="url(#p3ded61ed04)" d="M 308.488878 274.363682 
Q 444.457262 304.783109 579.334584 334.95844 
" style="fill:none;stroke:#808080;stroke-linecap:round;"/>
    <path clip-path="url(#p3ded61ed04)" d="M 575.867735 332.13338 
L 579.334584 334.95844 
L 574.994427 336.036883 
L 575.867735 332.13338 
z
" style="fill:#808080;stroke:#808080;stroke-linecap:round;"/>
   </g>
   <g id="patch_38">
    <path clip-path="url(#p3ded61ed04)" d="M 308.130931 275.562749 
Q 417.195709 317.206224 525.216001 358.45089 
" style="fill:none;stroke:#808080;stroke-linecap:round;"/>
    <path clip-path="url(#p3ded61ed04)" d="M 522.192545 355.155633 
L 525.216001 358.45089 
L 520.765722 358.8925 
L 522.192545 355.155633 
z
" style="fill:#808080;stroke:#808080;stroke-linecap:round;"/>
   </g>
   <g id="patch_39">
    <path clip-path="url(#p3ded61ed04)" d="M 291.511954 270.960504 
Q 182.673361 251.651398 74.935612 232.537592 
" style="fill:none;stroke:#808080;stroke-linecap:round;"/>
    <path clip-path="url(#p3ded61ed04)" d="M 78.524746 235.205573 
L 74.935612 232.537592 
L 79.223477 231.267074 
L 78.524746 235.205573 
z
" style="fill:#808080;stroke:#808080;stroke-linecap:round;"/>
   </g>
   <g id="patch_40">
    <path clip-path="url(#p3ded61ed04)" d="M 297.654997 280.802884 
Q 280.071635 342.207747 262.796054 402.537776 
" style="fill:none;stroke:#808080;stroke-linecap:round;"/>
    <path clip-path="url(#p3ded61ed04)" d="M 265.819927 399.242902 
L 262.796054 402.537776 
L 261.974479 398.141753 
L 265.819927 399.242902 
z
" style="fill:#808080;stroke:#808080;stroke-linecap:round;"/>
   </g>
   <g id="patch_41">
    <path clip-path="url(#p3ded61ed04)" d="M 293.093042 277.648379 
Q 223.980583 329.130271 155.764741 379.944272 
" style="fill:none;stroke:#808080;stroke-linecap:round;"/>
    <path clip-path="url(#p3ded61ed04)" d="M 160.167335 379.158672 
L 155.764741 379.944272 
L 157.777818 375.950837 
L 160.167335 379.158672 
z
" style="fill:#808080;stroke:#808080;stroke-linecap:round;"/>
   </g>
   <g id="patch_42">
    <path clip-path="url(#p3ded61ed04)" d="M 297.155143 278.799698 
Q 322.23122 201.653748 346.961683 125.571072 
" style="fill:none;stroke:#808080;stroke-linecap:round;"/>
    <path clip-path="url(#p3ded61ed04)" d="M 343.823135 128.756902 
L 346.961683 125.571072 
L 347.627218 129.993409 
L 343.823135 128.756902 
z
" style="fill:#808080;stroke:#808080;stroke-linecap:round;"/>
   </g>
   <g id="patch_43">
    <path clip-path="url(#p3ded61ed04)" d="M 286.137055 289.360139 
Q 194.474824 314.899418 103.889602 340.138616 
" style="fill:none;stroke:#808080;stroke-linecap:round;"/>
    <path clip-path="url(#p3ded61ed04)" d="M 108.279633 340.991629 
L 103.889602 340.138616 
L 107.206031 337.1384 
L 108.279633 340.991629 
z
" style="fill:#808080;stroke:#808080;stroke-linecap:round;"/>
   </g>
   <g id="patch_44">
    <path clip-path="url(#p3ded61ed04)" d="M 285.845587 286.308108 
Q 190.750303 278.287495 96.769097 270.360846 
" style="fill:none;stroke:#808080;stroke-linecap:round;"/>
    <path clip-path="url(#p3ded61ed04)" d="M 100.586856 272.689948 
L 96.769097 270.360846 
L 100.923034 268.7041 
L 100.586856 272.689948 
z
" style="fill:#808080;stroke:#808080;stroke-linecap:round;"/>
   </g>
   <g id="patch_45">
    <path clip-path="url(#p3ded61ed04)" d="M 300.720497 281.036173 
Q 388.096027 197.05611 474.66548 113.850799 
" style="fill:none;stroke:#808080;stroke-linecap:round;"/>
    <path clip-path="url(#p3ded61ed04)" d="M 470.395654 115.180682 
L 474.66548 113.850799 
L 473.167491 118.064589 
L 470.395654 115.180682 
z
" style="fill:#808080;stroke:#808080;stroke-linecap:round;"/>
   </g>
   <g id="patch_46">
    <path clip-path="url(#p3ded61ed04)" d="M 303.017472 288.488177 
Q 441.678372 312.06486 579.237058 335.454133 
" style="fill:none;stroke:#808080;stroke-linecap:round;"/>
    <path clip-path="url(#p3ded61ed04)" d="M 575.628905 332.81193 
L 579.237058 335.454133 
L 574.958404 336.755333 
L 575.628905 332.81193 
z
" style="fill:#808080;stroke:#808080;stroke-linecap:round;"/>
   </g>
   <g id="patch_47">
    <path clip-path="url(#p3ded61ed04)" d="M 302.746125 289.618009 
Q 414.414117 324.487308 525.014894 359.02336 
" style="fill:none;stroke:#808080;stroke-linecap:round;"/>
    <path clip-path="url(#p3ded61ed04)" d="M 521.792842 355.922009 
L 525.014894 359.02336 
L 520.600582 359.740191 
L 521.792842 355.922009 
z
" style="fill:#808080;stroke:#808080;stroke-linecap:round;"/>
   </g>
   <g id="patch_48">
    <path clip-path="url(#p3ded61ed04)" d="M 286.067878 284.973531 
Q 179.892482 258.932828 74.802937 233.158443 
" style="fill:none;stroke:#808080;stroke-linecap:round;"/>
    <path clip-path="url(#p3ded61ed04)" d="M 78.211397 236.05368 
L 74.802937 233.158443 
L 79.164203 232.168817 
L 78.211397 236.05368 
z
" style="fill:#808080;stroke:#808080;stroke-linecap:round;"/>
   </g>
   <g id="patch_49">
    <path clip-path="url(#p3ded61ed04)" d="M 292.179485 295.387806 
Q 277.290204 349.490262 262.697582 402.51476 
" style="fill:none;stroke:#808080;stroke-linecap:round;"/>
    <path clip-path="url(#p3ded61ed04)" d="M 265.687253 399.188822 
L 262.697582 402.51476 
L 261.830634 398.12746 
L 265.687253 399.188822 
z
" style="fill:#808080;stroke:#808080;stroke-linecap:round;"/>
   </g>
   <g id="patch_50">
    <path clip-path="url(#p3ded61ed04)" d="M 287.297334 291.874477 
Q 221.201434 336.410194 156.032728 380.321162 
" style="fill:none;stroke:#808080;stroke-linecap:round;"/>
    <path clip-path="url(#p3ded61ed04)" d="M 160.467544 379.744612 
L 156.032728 380.321162 
L 158.232377 376.427379 
L 160.467544 379.744612 
z
" style="fill:#808080;stroke:#808080;stroke-linecap:round;"/>
   </g>
   <g id="PathCollection_1">
    <defs>
     <path d="M 0 11.18034 
C 2.965061 11.18034 5.80908 10.002309 7.905694 7.905694 
C 10.002309 5.80908 11.18034 2.965061 11.18034 -0 
C 11.18034 -2.965061 10.002309 -5.80908 7.905694 -7.905694 
C 5.80908 -10.002309 2.965061 -11.18034 0 -11.18034 
C -2.965061 -11.18034 -5.80908 -10.002309 -7.905694 -7.905694 
C -10.002309 -5.80908 -11.18034 -2.965061 -11.18034 0 
C -11.18034 2.965061 -10.002309 5.80908 -7.905694 7.905694 
C -5.80908 10.002309 -2.965061 11.18034 0 11.18034 
z
" id="C0_0_cad836aaeb"/>
    </defs>
    <g clip-path="url(#p3ded61ed04)">
     <use style="fill:#f2f2f2;stroke:#f2f2f2;" x="68.727535" xlink:href="#C0_0_cad836aaeb" y="154.58816"/>
    </g>
    <g clip-path="url(#p3ded61ed04)">
     <use style="fill:#e1e1e1;stroke:#e1e1e1;" x="349.98439" xlink:href="#C0_0_cad836aaeb" y="116.271788"/>
    </g>
    <g clip-path="url(#p3ded61ed04)">
     <use style="fill:#ebebeb;stroke:#ebebeb;" x="425.369971" xlink:href="#C0_0_cad836aaeb" y="406.010101"/>
    </g>
    <g clip-path="url(#p3ded61ed04)">
     <use style="fill:#ebebeb;stroke:#ebebeb;" x="295.918029" xlink:href="#C0_0_cad836aaeb" y="64.943483"/>
    </g>
    <g clip-path="url(#p3ded61ed04)">
     <use style="fill:#e3e3e3;stroke:#e3e3e3;" x="126.277938" xlink:href="#C0_0_cad836aaeb" y="140.215275"/>
    </g>
    <g clip-path="url(#p3ded61ed04)">
     <use style="fill:#e1e1e1;stroke:#e1e1e1;" x="611.890004" xlink:href="#C0_0_cad836aaeb" y="290.24092"/>
    </g>
    <g clip-path="url(#p3ded61ed04)">
     <use style="fill:#d8d8d8;stroke:#d8d8d8;" x="333.345455" xlink:href="#C0_0_cad836aaeb" y="128.338885"/>
    </g>
    <g clip-path="url(#p3ded61ed04)">
     <use style="fill:#d7d7d7;stroke:#d7d7d7;" x="345.298327" xlink:href="#C0_0_cad836aaeb" y="221.339635"/>
    </g>
    <g clip-path="url(#p3ded61ed04)">
     <use style="fill:#bebebe;stroke:#bebebe;" x="337.491626" xlink:href="#C0_0_cad836aaeb" y="255.721076"/>
    </g>
    <g clip-path="url(#p3ded61ed04)">
     <use style="fill:#ebebeb;stroke:#ebebeb;" x="92.839169" xlink:href="#C0_0_cad836aaeb" y="329.343655"/>
    </g>
    <g clip-path="url(#p3ded61ed04)">
     <use style="fill:#5f5f5f;stroke:#5f5f5f;" x="482.160209" xlink:href="#C0_0_cad836aaeb" y="234.589207"/>
    </g>
    <g clip-path="url(#p3ded61ed04)">
     <use style="fill:#ebebeb;stroke:#ebebeb;" x="94.468628" xlink:href="#C0_0_cad836aaeb" y="342.763524"/>
    </g>
    <g clip-path="url(#p3ded61ed04)">
     <use style="fill:#ebebeb;stroke:#ebebeb;" x="74.556165" xlink:href="#C0_0_cad836aaeb" y="191.623107"/>
    </g>
    <g clip-path="url(#p3ded61ed04)">
     <use style="fill:#dadada;stroke:#dadada;" x="351.204863" xlink:href="#C0_0_cad836aaeb" y="60.805398"/>
    </g>
    <g clip-path="url(#p3ded61ed04)">
     <use style="fill:#ebebeb;stroke:#ebebeb;" x="340.554153" xlink:href="#C0_0_cad836aaeb" y="427.350852"/>
    </g>
    <g clip-path="url(#p3ded61ed04)">
     <use style="fill:#ececec;stroke:#ececec;" x="581.0574" xlink:href="#C0_0_cad836aaeb" y="281.197814"/>
    </g>
    <g clip-path="url(#p3ded61ed04)">
     <use style="fill:#cacaca;stroke:#cacaca;" x="427.289374" xlink:href="#C0_0_cad836aaeb" y="243.856638"/>
    </g>
    <g clip-path="url(#p3ded61ed04)">
     <use style="fill:#ebebeb;stroke:#ebebeb;" x="208.152458" xlink:href="#C0_0_cad836aaeb" y="102.466119"/>
    </g>
    <g clip-path="url(#p3ded61ed04)">
     <use style="fill:#ebebeb;stroke:#ebebeb;" x="618.694215" xlink:href="#C0_0_cad836aaeb" y="236.66822"/>
    </g>
    <g clip-path="url(#p3ded61ed04)">
     <use style="fill:#ececec;stroke:#ececec;" x="131.828375" xlink:href="#C0_0_cad836aaeb" y="359.801238"/>
    </g>
    <g clip-path="url(#p3ded61ed04)">
     <use style="fill:#ececec;stroke:#ececec;" x="146.103533" xlink:href="#C0_0_cad836aaeb" y="98.398629"/>
    </g>
    <g clip-path="url(#p3ded61ed04)">
     <use style="fill:#d7d7d7;stroke:#d7d7d7;" x="345.105454" xlink:href="#C0_0_cad836aaeb" y="298.115701"/>
    </g>
    <g clip-path="url(#p3ded61ed04)">
     <use style="fill:#d7d7d7;stroke:#d7d7d7;" x="348.539808" xlink:href="#C0_0_cad836aaeb" y="210.733917"/>
    </g>
    <g clip-path="url(#p3ded61ed04)">
     <use style="fill:#ebebeb;stroke:#ebebeb;" x="87.023921" xlink:href="#C0_0_cad836aaeb" y="269.538909"/>
    </g>
    <g clip-path="url(#p3ded61ed04)">
     <use style="fill:#e3e3e3;stroke:#e3e3e3;" x="398.259823" xlink:href="#C0_0_cad836aaeb" y="92.942066"/>
    </g>
    <g clip-path="url(#p3ded61ed04)">
     <use style="fill:#e6e6e6;stroke:#e6e6e6;" x="568.782164" xlink:href="#C0_0_cad836aaeb" y="150.670799"/>
    </g>
    <g clip-path="url(#p3ded61ed04)">
     <use style="fill:#ebebeb;stroke:#ebebeb;" x="481.715921" xlink:href="#C0_0_cad836aaeb" y="107.074343"/>
    </g>
    <g clip-path="url(#p3ded61ed04)">
     <use style="fill:#ebebeb;stroke:#ebebeb;" x="588.875405" xlink:href="#C0_0_cad836aaeb" y="337.092953"/>
    </g>
    <g clip-path="url(#p3ded61ed04)">
     <use style="fill:#f3f3f3;stroke:#f3f3f3;" x="534.348053" xlink:href="#C0_0_cad836aaeb" y="361.93772"/>
    </g>
    <g clip-path="url(#p3ded61ed04)">
     <use style="fill:#ebebeb;stroke:#ebebeb;" x="65.305785" xlink:href="#C0_0_cad836aaeb" y="230.82916"/>
    </g>
    <g clip-path="url(#p3ded61ed04)">
     <use style="fill:#ebebeb;stroke:#ebebeb;" x="260.103487" xlink:href="#C0_0_cad836aaeb" y="411.940797"/>
    </g>
    <g clip-path="url(#p3ded61ed04)">
     <use style="fill:#ebebeb;stroke:#ebebeb;" x="147.923762" xlink:href="#C0_0_cad836aaeb" y="385.78502"/>
    </g>
    <g clip-path="url(#p3ded61ed04)">
     <use style="fill:#ececec;stroke:#ececec;" x="163.516111" xlink:href="#C0_0_cad836aaeb" y="389.894333"/>
    </g>
    <g clip-path="url(#p3ded61ed04)">
     <use style="fill:#ebebeb;stroke:#ebebeb;" x="265.625026" xlink:href="#C0_0_cad836aaeb" y="348.017107"/>
    </g>
    <g clip-path="url(#p3ded61ed04)">
     <use style="fill:#ebebeb;stroke:#ebebeb;" x="348.963717" xlink:href="#C0_0_cad836aaeb" y="339.209516"/>
    </g>
    <g clip-path="url(#p3ded61ed04)">
     <use style="fill:#bebebe;stroke:#bebebe;" x="300.040129" xlink:href="#C0_0_cad836aaeb" y="272.473492"/>
    </g>
    <g clip-path="url(#p3ded61ed04)">
     <use style="fill:#eaeaea;stroke:#eaeaea;" x="294.477896" xlink:href="#C0_0_cad836aaeb" y="287.036182"/>
    </g>
   </g>
   <g id="text_1">
    <g clip-path="url(#p3ded61ed04)">
     <!-- CDK2 -->
     <g transform="translate(54.925973 157.347535)scale(0.1 -0.1)">
      <defs>
       <path d="M 64.40625 67.28125 
L 64.40625 56.890625 
Q 59.421875 61.53125 53.78125 63.8125 
Q 48.140625 66.109375 41.796875 66.109375 
Q 29.296875 66.109375 22.65625 58.46875 
Q 16.015625 50.828125 16.015625 36.375 
Q 16.015625 21.96875 22.65625 14.328125 
Q 29.296875 6.6875 41.796875 6.6875 
Q 48.140625 6.6875 53.78125 8.984375 
Q 59.421875 11.28125 64.40625 15.921875 
L 64.40625 5.609375 
Q 59.234375 2.09375 53.4375 0.328125 
Q 47.65625 -1.421875 41.21875 -1.421875 
Q 24.65625 -1.421875 15.125 8.703125 
Q 5.609375 18.84375 5.609375 36.375 
Q 5.609375 53.953125 15.125 64.078125 
Q 24.65625 74.21875 41.21875 74.21875 
Q 47.75 74.21875 53.53125 72.484375 
Q 59.328125 70.75 64.40625 67.28125 
z
" id="DejaVuSans-67"/>
       <path d="M 19.671875 64.796875 
L 19.671875 8.109375 
L 31.59375 8.109375 
Q 46.6875 8.109375 53.6875 14.9375 
Q 60.6875 21.78125 60.6875 36.53125 
Q 60.6875 51.171875 53.6875 57.984375 
Q 46.6875 64.796875 31.59375 64.796875 
z
M 9.8125 72.90625 
L 30.078125 72.90625 
Q 51.265625 72.90625 61.171875 64.09375 
Q 71.09375 55.28125 71.09375 36.53125 
Q 71.09375 17.671875 61.125 8.828125 
Q 51.171875 0 30.078125 0 
L 9.8125 0 
z
" id="DejaVuSans-68"/>
       <path d="M 9.8125 72.90625 
L 19.671875 72.90625 
L 19.671875 42.09375 
L 52.390625 72.90625 
L 65.09375 72.90625 
L 28.90625 38.921875 
L 67.671875 0 
L 54.6875 0 
L 19.671875 35.109375 
L 19.671875 0 
L 9.8125 0 
z
" id="DejaVuSans-75"/>
       <path d="M 19.1875 8.296875 
L 53.609375 8.296875 
L 53.609375 0 
L 7.328125 0 
L 7.328125 8.296875 
Q 12.9375 14.109375 22.625 23.890625 
Q 32.328125 33.6875 34.8125 36.53125 
Q 39.546875 41.84375 41.421875 45.53125 
Q 43.3125 49.21875 43.3125 52.78125 
Q 43.3125 58.59375 39.234375 62.25 
Q 35.15625 65.921875 28.609375 65.921875 
Q 23.96875 65.921875 18.8125 64.3125 
Q 13.671875 62.703125 7.8125 59.421875 
L 7.8125 69.390625 
Q 13.765625 71.78125 18.9375 73 
Q 24.125 74.21875 28.421875 74.21875 
Q 39.75 74.21875 46.484375 68.546875 
Q 53.21875 62.890625 53.21875 53.421875 
Q 53.21875 48.921875 51.53125 44.890625 
Q 49.859375 40.875 45.40625 35.40625 
Q 44.1875 33.984375 37.640625 27.21875 
Q 31.109375 20.453125 19.1875 8.296875 
z
" id="DejaVuSans-50"/>
      </defs>
      <use xlink:href="#DejaVuSans-67"/>
      <use x="69.824219" xlink:href="#DejaVuSans-68"/>
      <use x="146.826172" xlink:href="#DejaVuSans-75"/>
      <use x="212.402344" xlink:href="#DejaVuSans-50"/>
     </g>
    </g>
   </g>
   <g id="text_2">
    <g clip-path="url(#p3ded61ed04)">
     <!-- CCND1 -->
     <g transform="translate(332.229702 119.031163)scale(0.1 -0.1)">
      <defs>
       <path d="M 9.8125 72.90625 
L 23.09375 72.90625 
L 55.421875 11.921875 
L 55.421875 72.90625 
L 64.984375 72.90625 
L 64.984375 0 
L 51.703125 0 
L 19.390625 60.984375 
L 19.390625 0 
L 9.8125 0 
z
" id="DejaVuSans-78"/>
       <path d="M 12.40625 8.296875 
L 28.515625 8.296875 
L 28.515625 63.921875 
L 10.984375 60.40625 
L 10.984375 69.390625 
L 28.421875 72.90625 
L 38.28125 72.90625 
L 38.28125 8.296875 
L 54.390625 8.296875 
L 54.390625 0 
L 12.40625 0 
z
" id="DejaVuSans-49"/>
      </defs>
      <use xlink:href="#DejaVuSans-67"/>
      <use x="69.824219" xlink:href="#DejaVuSans-67"/>
      <use x="139.648438" xlink:href="#DejaVuSans-78"/>
      <use x="214.453125" xlink:href="#DejaVuSans-68"/>
      <use x="291.455078" xlink:href="#DejaVuSans-49"/>
     </g>
    </g>
   </g>
   <g id="text_3">
    <g clip-path="url(#p3ded61ed04)">
     <!-- ITGB1 -->
     <g transform="translate(410.355127 408.769476)scale(0.1 -0.1)">
      <defs>
       <path d="M 9.8125 72.90625 
L 19.671875 72.90625 
L 19.671875 0 
L 9.8125 0 
z
" id="DejaVuSans-73"/>
       <path d="M -0.296875 72.90625 
L 61.375 72.90625 
L 61.375 64.59375 
L 35.5 64.59375 
L 35.5 0 
L 25.59375 0 
L 25.59375 64.59375 
L -0.296875 64.59375 
z
" id="DejaVuSans-84"/>
       <path d="M 59.515625 10.40625 
L 59.515625 29.984375 
L 43.40625 29.984375 
L 43.40625 38.09375 
L 69.28125 38.09375 
L 69.28125 6.78125 
Q 63.578125 2.734375 56.6875 0.65625 
Q 49.8125 -1.421875 42 -1.421875 
Q 24.90625 -1.421875 15.25 8.5625 
Q 5.609375 18.5625 5.609375 36.375 
Q 5.609375 54.25 15.25 64.234375 
Q 24.90625 74.21875 42 74.21875 
Q 49.125 74.21875 55.546875 72.453125 
Q 61.96875 70.703125 67.390625 67.28125 
L 67.390625 56.78125 
Q 61.921875 61.421875 55.765625 63.765625 
Q 49.609375 66.109375 42.828125 66.109375 
Q 29.4375 66.109375 22.71875 58.640625 
Q 16.015625 51.171875 16.015625 36.375 
Q 16.015625 21.625 22.71875 14.15625 
Q 29.4375 6.6875 42.828125 6.6875 
Q 48.046875 6.6875 52.140625 7.59375 
Q 56.25 8.5 59.515625 10.40625 
z
" id="DejaVuSans-71"/>
       <path d="M 19.671875 34.8125 
L 19.671875 8.109375 
L 35.5 8.109375 
Q 43.453125 8.109375 47.28125 11.40625 
Q 51.125 14.703125 51.125 21.484375 
Q 51.125 28.328125 47.28125 31.5625 
Q 43.453125 34.8125 35.5 34.8125 
z
M 19.671875 64.796875 
L 19.671875 42.828125 
L 34.28125 42.828125 
Q 41.5 42.828125 45.03125 45.53125 
Q 48.578125 48.25 48.578125 53.8125 
Q 48.578125 59.328125 45.03125 62.0625 
Q 41.5 64.796875 34.28125 64.796875 
z
M 9.8125 72.90625 
L 35.015625 72.90625 
Q 46.296875 72.90625 52.390625 68.21875 
Q 58.5 63.53125 58.5 54.890625 
Q 58.5 48.1875 55.375 44.234375 
Q 52.25 40.28125 46.1875 39.3125 
Q 53.46875 37.75 57.5 32.78125 
Q 61.53125 27.828125 61.53125 20.40625 
Q 61.53125 10.640625 54.890625 5.3125 
Q 48.25 0 35.984375 0 
L 9.8125 0 
z
" id="DejaVuSans-66"/>
      </defs>
      <use xlink:href="#DejaVuSans-73"/>
      <use x="29.492188" xlink:href="#DejaVuSans-84"/>
      <use x="90.576172" xlink:href="#DejaVuSans-71"/>
      <use x="168.066406" xlink:href="#DejaVuSans-66"/>
      <use x="236.669922" xlink:href="#DejaVuSans-49"/>
     </g>
    </g>
   </g>
   <g id="text_4">
    <g clip-path="url(#p3ded61ed04)">
     <!-- ZBTB17 -->
     <g transform="translate(276.215686 67.702858)scale(0.1 -0.1)">
      <defs>
       <path d="M 5.609375 72.90625 
L 62.890625 72.90625 
L 62.890625 65.375 
L 16.796875 8.296875 
L 64.015625 8.296875 
L 64.015625 0 
L 4.5 0 
L 4.5 7.515625 
L 50.59375 64.59375 
L 5.609375 64.59375 
z
" id="DejaVuSans-90"/>
       <path d="M 8.203125 72.90625 
L 55.078125 72.90625 
L 55.078125 68.703125 
L 28.609375 0 
L 18.3125 0 
L 43.21875 64.59375 
L 8.203125 64.59375 
z
" id="DejaVuSans-55"/>
      </defs>
      <use xlink:href="#DejaVuSans-90"/>
      <use x="68.505859" xlink:href="#DejaVuSans-66"/>
      <use x="137.109375" xlink:href="#DejaVuSans-84"/>
      <use x="198.193359" xlink:href="#DejaVuSans-66"/>
      <use x="266.796875" xlink:href="#DejaVuSans-49"/>
      <use x="330.419922" xlink:href="#DejaVuSans-55"/>
     </g>
    </g>
   </g>
   <g id="text_5">
    <g clip-path="url(#p3ded61ed04)">
     <!-- CDKN1B -->
     <g transform="translate(105.305282 142.97465)scale(0.1 -0.1)">
      <use xlink:href="#DejaVuSans-67"/>
      <use x="69.824219" xlink:href="#DejaVuSans-68"/>
      <use x="146.826172" xlink:href="#DejaVuSans-75"/>
      <use x="212.402344" xlink:href="#DejaVuSans-78"/>
      <use x="287.207031" xlink:href="#DejaVuSans-49"/>
      <use x="350.830078" xlink:href="#DejaVuSans-66"/>
     </g>
    </g>
   </g>
   <g id="text_6">
    <g clip-path="url(#p3ded61ed04)">
     <!-- CASP9 -->
     <g transform="translate(595.607973 293.000295)scale(0.1 -0.1)">
      <defs>
       <path d="M 34.1875 63.1875 
L 20.796875 26.90625 
L 47.609375 26.90625 
z
M 28.609375 72.90625 
L 39.796875 72.90625 
L 67.578125 0 
L 57.328125 0 
L 50.6875 18.703125 
L 17.828125 18.703125 
L 11.1875 0 
L 0.78125 0 
z
" id="DejaVuSans-65"/>
       <path d="M 53.515625 70.515625 
L 53.515625 60.890625 
Q 47.90625 63.578125 42.921875 64.890625 
Q 37.9375 66.21875 33.296875 66.21875 
Q 25.25 66.21875 20.875 63.09375 
Q 16.5 59.96875 16.5 54.203125 
Q 16.5 49.359375 19.40625 46.890625 
Q 22.3125 44.4375 30.421875 42.921875 
L 36.375 41.703125 
Q 47.40625 39.59375 52.65625 34.296875 
Q 57.90625 29 57.90625 20.125 
Q 57.90625 9.515625 50.796875 4.046875 
Q 43.703125 -1.421875 29.984375 -1.421875 
Q 24.8125 -1.421875 18.96875 -0.25 
Q 13.140625 0.921875 6.890625 3.21875 
L 6.890625 13.375 
Q 12.890625 10.015625 18.65625 8.296875 
Q 24.421875 6.59375 29.984375 6.59375 
Q 38.421875 6.59375 43.015625 9.90625 
Q 47.609375 13.234375 47.609375 19.390625 
Q 47.609375 24.75 44.3125 27.78125 
Q 41.015625 30.8125 33.5 32.328125 
L 27.484375 33.5 
Q 16.453125 35.6875 11.515625 40.375 
Q 6.59375 45.0625 6.59375 53.421875 
Q 6.59375 63.09375 13.40625 68.65625 
Q 20.21875 74.21875 32.171875 74.21875 
Q 37.3125 74.21875 42.625 73.28125 
Q 47.953125 72.359375 53.515625 70.515625 
z
" id="DejaVuSans-83"/>
       <path d="M 19.671875 64.796875 
L 19.671875 37.40625 
L 32.078125 37.40625 
Q 38.96875 37.40625 42.71875 40.96875 
Q 46.484375 44.53125 46.484375 51.125 
Q 46.484375 57.671875 42.71875 61.234375 
Q 38.96875 64.796875 32.078125 64.796875 
z
M 9.8125 72.90625 
L 32.078125 72.90625 
Q 44.34375 72.90625 50.609375 67.359375 
Q 56.890625 61.8125 56.890625 51.125 
Q 56.890625 40.328125 50.609375 34.8125 
Q 44.34375 29.296875 32.078125 29.296875 
L 19.671875 29.296875 
L 19.671875 0 
L 9.8125 0 
z
" id="DejaVuSans-80"/>
       <path d="M 10.984375 1.515625 
L 10.984375 10.5 
Q 14.703125 8.734375 18.5 7.8125 
Q 22.3125 6.890625 25.984375 6.890625 
Q 35.75 6.890625 40.890625 13.453125 
Q 46.046875 20.015625 46.78125 33.40625 
Q 43.953125 29.203125 39.59375 26.953125 
Q 35.25 24.703125 29.984375 24.703125 
Q 19.046875 24.703125 12.671875 31.3125 
Q 6.296875 37.9375 6.296875 49.421875 
Q 6.296875 60.640625 12.9375 67.421875 
Q 19.578125 74.21875 30.609375 74.21875 
Q 43.265625 74.21875 49.921875 64.515625 
Q 56.59375 54.828125 56.59375 36.375 
Q 56.59375 19.140625 48.40625 8.859375 
Q 40.234375 -1.421875 26.421875 -1.421875 
Q 22.703125 -1.421875 18.890625 -0.6875 
Q 15.09375 0.046875 10.984375 1.515625 
z
M 30.609375 32.421875 
Q 37.25 32.421875 41.125 36.953125 
Q 45.015625 41.5 45.015625 49.421875 
Q 45.015625 57.28125 41.125 61.84375 
Q 37.25 66.40625 30.609375 66.40625 
Q 23.96875 66.40625 20.09375 61.84375 
Q 16.21875 57.28125 16.21875 49.421875 
Q 16.21875 41.5 20.09375 36.953125 
Q 23.96875 32.421875 30.609375 32.421875 
z
" id="DejaVuSans-57"/>
      </defs>
      <use xlink:href="#DejaVuSans-67"/>
      <use x="69.824219" xlink:href="#DejaVuSans-65"/>
      <use x="138.232422" xlink:href="#DejaVuSans-83"/>
      <use x="201.708984" xlink:href="#DejaVuSans-80"/>
      <use x="262.011719" xlink:href="#DejaVuSans-57"/>
     </g>
    </g>
   </g>
   <g id="text_7">
    <g clip-path="url(#p3ded61ed04)">
     <!-- APAF1 -->
     <g transform="translate(317.751705 131.09826)scale(0.1 -0.1)">
      <defs>
       <path d="M 9.8125 72.90625 
L 51.703125 72.90625 
L 51.703125 64.59375 
L 19.671875 64.59375 
L 19.671875 43.109375 
L 48.578125 43.109375 
L 48.578125 34.8125 
L 19.671875 34.8125 
L 19.671875 0 
L 9.8125 0 
z
" id="DejaVuSans-70"/>
      </defs>
      <use xlink:href="#DejaVuSans-65"/>
      <use x="68.408203" xlink:href="#DejaVuSans-80"/>
      <use x="122.335938" xlink:href="#DejaVuSans-65"/>
      <use x="190.744141" xlink:href="#DejaVuSans-70"/>
      <use x="248.263672" xlink:href="#DejaVuSans-49"/>
     </g>
    </g>
   </g>
   <g id="text_8">
    <g clip-path="url(#p3ded61ed04)">
     <!-- MAX -->
     <g transform="translate(334.138952 224.09901)scale(0.1 -0.1)">
      <defs>
       <path d="M 9.8125 72.90625 
L 24.515625 72.90625 
L 43.109375 23.296875 
L 61.8125 72.90625 
L 76.515625 72.90625 
L 76.515625 0 
L 66.890625 0 
L 66.890625 64.015625 
L 48.09375 14.015625 
L 38.1875 14.015625 
L 19.390625 64.015625 
L 19.390625 0 
L 9.8125 0 
z
" id="DejaVuSans-77"/>
       <path d="M 6.296875 72.90625 
L 16.890625 72.90625 
L 35.015625 45.796875 
L 53.21875 72.90625 
L 63.8125 72.90625 
L 40.375 37.890625 
L 65.375 0 
L 54.78125 0 
L 34.28125 31 
L 13.625 0 
L 2.984375 0 
L 29 38.921875 
z
" id="DejaVuSans-88"/>
      </defs>
      <use xlink:href="#DejaVuSans-77"/>
      <use x="86.279297" xlink:href="#DejaVuSans-65"/>
      <use x="154.6875" xlink:href="#DejaVuSans-88"/>
     </g>
    </g>
   </g>
   <g id="text_9">
    <g clip-path="url(#p3ded61ed04)">
     <!-- MYC -->
     <g transform="translate(326.907251 258.480451)scale(0.1 -0.1)">
      <defs>
       <path d="M -0.203125 72.90625 
L 10.40625 72.90625 
L 30.609375 42.921875 
L 50.6875 72.90625 
L 61.28125 72.90625 
L 35.5 34.71875 
L 35.5 0 
L 25.59375 0 
L 25.59375 34.71875 
z
" id="DejaVuSans-89"/>
      </defs>
      <use xlink:href="#DejaVuSans-77"/>
      <use x="86.279297" xlink:href="#DejaVuSans-89"/>
      <use x="141.863281" xlink:href="#DejaVuSans-67"/>
     </g>
    </g>
   </g>
   <g id="text_10">
    <g clip-path="url(#p3ded61ed04)">
     <!-- BCL2 -->
     <g transform="translate(80.037606 332.10303)scale(0.1 -0.1)">
      <defs>
       <path d="M 9.8125 72.90625 
L 19.671875 72.90625 
L 19.671875 8.296875 
L 55.171875 8.296875 
L 55.171875 0 
L 9.8125 0 
z
" id="DejaVuSans-76"/>
      </defs>
      <use xlink:href="#DejaVuSans-66"/>
      <use x="66.853516" xlink:href="#DejaVuSans-67"/>
      <use x="136.677734" xlink:href="#DejaVuSans-76"/>
      <use x="192.390625" xlink:href="#DejaVuSans-50"/>
     </g>
    </g>
   </g>
   <g id="text_11">
    <g clip-path="url(#p3ded61ed04)">
     <!-- NFKBIA -->
     <g transform="translate(463.939115 237.348582)scale(0.1 -0.1)">
      <use xlink:href="#DejaVuSans-78"/>
      <use x="74.804688" xlink:href="#DejaVuSans-70"/>
      <use x="132.324219" xlink:href="#DejaVuSans-75"/>
      <use x="197.900391" xlink:href="#DejaVuSans-66"/>
      <use x="266.503906" xlink:href="#DejaVuSans-73"/>
      <use x="295.996094" xlink:href="#DejaVuSans-65"/>
     </g>
    </g>
   </g>
   <g id="text_12">
    <g clip-path="url(#p3ded61ed04)">
     <!-- BCL2L1 -->
     <g transform="translate(75.699878 345.522899)scale(0.1 -0.1)">
      <use xlink:href="#DejaVuSans-66"/>
      <use x="66.853516" xlink:href="#DejaVuSans-67"/>
      <use x="136.677734" xlink:href="#DejaVuSans-76"/>
      <use x="192.390625" xlink:href="#DejaVuSans-50"/>
      <use x="256.013672" xlink:href="#DejaVuSans-76"/>
      <use x="311.726562" xlink:href="#DejaVuSans-49"/>
     </g>
    </g>
   </g>
   <g id="text_13">
    <g clip-path="url(#p3ded61ed04)">
     <!-- RB1 -->
     <g transform="translate(64.470228 194.382482)scale(0.1 -0.1)">
      <defs>
       <path d="M 44.390625 34.1875 
Q 47.5625 33.109375 50.5625 29.59375 
Q 53.5625 26.078125 56.59375 19.921875 
L 66.609375 0 
L 56 0 
L 46.6875 18.703125 
Q 43.0625 26.03125 39.671875 28.421875 
Q 36.28125 30.8125 30.421875 30.8125 
L 19.671875 30.8125 
L 19.671875 0 
L 9.8125 0 
L 9.8125 72.90625 
L 32.078125 72.90625 
Q 44.578125 72.90625 50.734375 67.671875 
Q 56.890625 62.453125 56.890625 51.90625 
Q 56.890625 45.015625 53.6875 40.46875 
Q 50.484375 35.9375 44.390625 34.1875 
z
M 19.671875 64.796875 
L 19.671875 38.921875 
L 32.078125 38.921875 
Q 39.203125 38.921875 42.84375 42.21875 
Q 46.484375 45.515625 46.484375 51.90625 
Q 46.484375 58.296875 42.84375 61.546875 
Q 39.203125 64.796875 32.078125 64.796875 
z
" id="DejaVuSans-82"/>
      </defs>
      <use xlink:href="#DejaVuSans-82"/>
      <use x="69.482422" xlink:href="#DejaVuSans-66"/>
      <use x="138.085938" xlink:href="#DejaVuSans-49"/>
     </g>
    </g>
   </g>
   <g id="text_14">
    <g clip-path="url(#p3ded61ed04)">
     <!-- SKP2 -->
     <g transform="translate(338.555645 63.564773)scale(0.1 -0.1)">
      <use xlink:href="#DejaVuSans-83"/>
      <use x="63.476562" xlink:href="#DejaVuSans-75"/>
      <use x="129.052734" xlink:href="#DejaVuSans-80"/>
      <use x="189.355469" xlink:href="#DejaVuSans-50"/>
     </g>
    </g>
   </g>
   <g id="text_15">
    <g clip-path="url(#p3ded61ed04)">
     <!-- BAX -->
     <g transform="translate(330.278372 430.110227)scale(0.1 -0.1)">
      <use xlink:href="#DejaVuSans-66"/>
      <use x="68.603516" xlink:href="#DejaVuSans-65"/>
      <use x="137.011719" xlink:href="#DejaVuSans-88"/>
     </g>
    </g>
   </g>
   <g id="text_16">
    <g clip-path="url(#p3ded61ed04)">
     <!-- CASP3 -->
     <g transform="translate(564.775369 283.957189)scale(0.1 -0.1)">
      <defs>
       <path d="M 40.578125 39.3125 
Q 47.65625 37.796875 51.625 33 
Q 55.609375 28.21875 55.609375 21.1875 
Q 55.609375 10.40625 48.1875 4.484375 
Q 40.765625 -1.421875 27.09375 -1.421875 
Q 22.515625 -1.421875 17.65625 -0.515625 
Q 12.796875 0.390625 7.625 2.203125 
L 7.625 11.71875 
Q 11.71875 9.328125 16.59375 8.109375 
Q 21.484375 6.890625 26.8125 6.890625 
Q 36.078125 6.890625 40.9375 10.546875 
Q 45.796875 14.203125 45.796875 21.1875 
Q 45.796875 27.640625 41.28125 31.265625 
Q 36.765625 34.90625 28.71875 34.90625 
L 20.21875 34.90625 
L 20.21875 43.015625 
L 29.109375 43.015625 
Q 36.375 43.015625 40.234375 45.921875 
Q 44.09375 48.828125 44.09375 54.296875 
Q 44.09375 59.90625 40.109375 62.90625 
Q 36.140625 65.921875 28.71875 65.921875 
Q 24.65625 65.921875 20.015625 65.03125 
Q 15.375 64.15625 9.8125 62.3125 
L 9.8125 71.09375 
Q 15.4375 72.65625 20.34375 73.4375 
Q 25.25 74.21875 29.59375 74.21875 
Q 40.828125 74.21875 47.359375 69.109375 
Q 53.90625 64.015625 53.90625 55.328125 
Q 53.90625 49.265625 50.4375 45.09375 
Q 46.96875 40.921875 40.578125 39.3125 
z
" id="DejaVuSans-51"/>
      </defs>
      <use xlink:href="#DejaVuSans-67"/>
      <use x="69.824219" xlink:href="#DejaVuSans-65"/>
      <use x="138.232422" xlink:href="#DejaVuSans-83"/>
      <use x="201.708984" xlink:href="#DejaVuSans-80"/>
      <use x="262.011719" xlink:href="#DejaVuSans-51"/>
     </g>
    </g>
   </g>
   <g id="text_17">
    <g clip-path="url(#p3ded61ed04)">
     <!-- TP53 -->
     <g transform="translate(414.858124 246.616013)scale(0.1 -0.1)">
      <defs>
       <path d="M 10.796875 72.90625 
L 49.515625 72.90625 
L 49.515625 64.59375 
L 19.828125 64.59375 
L 19.828125 46.734375 
Q 21.96875 47.46875 24.109375 47.828125 
Q 26.265625 48.1875 28.421875 48.1875 
Q 40.625 48.1875 47.75 41.5 
Q 54.890625 34.8125 54.890625 23.390625 
Q 54.890625 11.625 47.5625 5.09375 
Q 40.234375 -1.421875 26.90625 -1.421875 
Q 22.3125 -1.421875 17.546875 -0.640625 
Q 12.796875 0.140625 7.71875 1.703125 
L 7.71875 11.625 
Q 12.109375 9.234375 16.796875 8.0625 
Q 21.484375 6.890625 26.703125 6.890625 
Q 35.15625 6.890625 40.078125 11.328125 
Q 45.015625 15.765625 45.015625 23.390625 
Q 45.015625 31 40.078125 35.4375 
Q 35.15625 39.890625 26.703125 39.890625 
Q 22.75 39.890625 18.8125 39.015625 
Q 14.890625 38.140625 10.796875 36.28125 
z
" id="DejaVuSans-53"/>
      </defs>
      <use xlink:href="#DejaVuSans-84"/>
      <use x="61.083984" xlink:href="#DejaVuSans-80"/>
      <use x="121.386719" xlink:href="#DejaVuSans-53"/>
      <use x="185.009766" xlink:href="#DejaVuSans-51"/>
     </g>
    </g>
   </g>
   <g id="text_18">
    <g clip-path="url(#p3ded61ed04)">
     <!-- DDB2 -->
     <g transform="translate(193.840739 105.225494)scale(0.1 -0.1)">
      <use xlink:href="#DejaVuSans-68"/>
      <use x="77.001953" xlink:href="#DejaVuSans-68"/>
      <use x="154.003906" xlink:href="#DejaVuSans-66"/>
      <use x="222.607422" xlink:href="#DejaVuSans-50"/>
     </g>
    </g>
   </g>
   <g id="text_19">
    <g clip-path="url(#p3ded61ed04)">
     <!-- POLK -->
     <g transform="translate(605.67859 239.427595)scale(0.1 -0.1)">
      <defs>
       <path d="M 39.40625 66.21875 
Q 28.65625 66.21875 22.328125 58.203125 
Q 16.015625 50.203125 16.015625 36.375 
Q 16.015625 22.609375 22.328125 14.59375 
Q 28.65625 6.59375 39.40625 6.59375 
Q 50.140625 6.59375 56.421875 14.59375 
Q 62.703125 22.609375 62.703125 36.375 
Q 62.703125 50.203125 56.421875 58.203125 
Q 50.140625 66.21875 39.40625 66.21875 
z
M 39.40625 74.21875 
Q 54.734375 74.21875 63.90625 63.9375 
Q 73.09375 53.65625 73.09375 36.375 
Q 73.09375 19.140625 63.90625 8.859375 
Q 54.734375 -1.421875 39.40625 -1.421875 
Q 24.03125 -1.421875 14.8125 8.828125 
Q 5.609375 19.09375 5.609375 36.375 
Q 5.609375 53.65625 14.8125 63.9375 
Q 24.03125 74.21875 39.40625 74.21875 
z
" id="DejaVuSans-79"/>
      </defs>
      <use xlink:href="#DejaVuSans-80"/>
      <use x="60.302734" xlink:href="#DejaVuSans-79"/>
      <use x="139.013672" xlink:href="#DejaVuSans-76"/>
      <use x="194.726562" xlink:href="#DejaVuSans-75"/>
     </g>
    </g>
   </g>
   <g id="text_20">
    <g clip-path="url(#p3ded61ed04)">
     <!-- ITGA6 -->
     <g transform="translate(116.823687 362.560613)scale(0.1 -0.1)">
      <defs>
       <path d="M 33.015625 40.375 
Q 26.375 40.375 22.484375 35.828125 
Q 18.609375 31.296875 18.609375 23.390625 
Q 18.609375 15.53125 22.484375 10.953125 
Q 26.375 6.390625 33.015625 6.390625 
Q 39.65625 6.390625 43.53125 10.953125 
Q 47.40625 15.53125 47.40625 23.390625 
Q 47.40625 31.296875 43.53125 35.828125 
Q 39.65625 40.375 33.015625 40.375 
z
M 52.59375 71.296875 
L 52.59375 62.3125 
Q 48.875 64.0625 45.09375 64.984375 
Q 41.3125 65.921875 37.59375 65.921875 
Q 27.828125 65.921875 22.671875 59.328125 
Q 17.53125 52.734375 16.796875 39.40625 
Q 19.671875 43.65625 24.015625 45.921875 
Q 28.375 48.1875 33.59375 48.1875 
Q 44.578125 48.1875 50.953125 41.515625 
Q 57.328125 34.859375 57.328125 23.390625 
Q 57.328125 12.15625 50.6875 5.359375 
Q 44.046875 -1.421875 33.015625 -1.421875 
Q 20.359375 -1.421875 13.671875 8.265625 
Q 6.984375 17.96875 6.984375 36.375 
Q 6.984375 53.65625 15.1875 63.9375 
Q 23.390625 74.21875 37.203125 74.21875 
Q 40.921875 74.21875 44.703125 73.484375 
Q 48.484375 72.75 52.59375 71.296875 
z
" id="DejaVuSans-54"/>
      </defs>
      <use xlink:href="#DejaVuSans-73"/>
      <use x="29.492188" xlink:href="#DejaVuSans-84"/>
      <use x="90.576172" xlink:href="#DejaVuSans-71"/>
      <use x="168.066406" xlink:href="#DejaVuSans-65"/>
      <use x="236.474609" xlink:href="#DejaVuSans-54"/>
     </g>
    </g>
   </g>
   <g id="text_21">
    <g clip-path="url(#p3ded61ed04)">
     <!-- ITGAV -->
     <g transform="translate(131.178533 101.158004)scale(0.1 -0.1)">
      <defs>
       <path d="M 28.609375 0 
L 0.78125 72.90625 
L 11.078125 72.90625 
L 34.1875 11.53125 
L 57.328125 72.90625 
L 67.578125 72.90625 
L 39.796875 0 
z
" id="DejaVuSans-86"/>
      </defs>
      <use xlink:href="#DejaVuSans-73"/>
      <use x="29.492188" xlink:href="#DejaVuSans-84"/>
      <use x="90.576172" xlink:href="#DejaVuSans-71"/>
      <use x="168.066406" xlink:href="#DejaVuSans-65"/>
      <use x="230.099609" xlink:href="#DejaVuSans-86"/>
     </g>
    </g>
   </g>
   <g id="text_22">
    <g clip-path="url(#p3ded61ed04)">
     <!-- LAMB1 -->
     <g transform="translate(327.860922 300.875076)scale(0.1 -0.1)">
      <use xlink:href="#DejaVuSans-76"/>
      <use x="57.962891" xlink:href="#DejaVuSans-65"/>
      <use x="126.371094" xlink:href="#DejaVuSans-77"/>
      <use x="212.650391" xlink:href="#DejaVuSans-66"/>
      <use x="281.253906" xlink:href="#DejaVuSans-49"/>
     </g>
    </g>
   </g>
   <g id="text_23">
    <g clip-path="url(#p3ded61ed04)">
     <!-- FN1 -->
     <g transform="translate(338.742151 213.493292)scale(0.1 -0.1)">
      <use xlink:href="#DejaVuSans-70"/>
      <use x="57.519531" xlink:href="#DejaVuSans-78"/>
      <use x="132.324219" xlink:href="#DejaVuSans-49"/>
     </g>
    </g>
   </g>
   <g id="text_24">
    <g clip-path="url(#p3ded61ed04)">
     <!-- XIAP -->
     <g transform="translate(75.688764 272.298284)scale(0.1 -0.1)">
      <use xlink:href="#DejaVuSans-88"/>
      <use x="68.505859" xlink:href="#DejaVuSans-73"/>
      <use x="97.998047" xlink:href="#DejaVuSans-65"/>
      <use x="166.40625" xlink:href="#DejaVuSans-80"/>
     </g>
    </g>
   </g>
   <g id="text_25">
    <g clip-path="url(#p3ded61ed04)">
     <!-- IKBKB -->
     <g transform="translate(383.366073 95.701441)scale(0.1 -0.1)">
      <use xlink:href="#DejaVuSans-73"/>
      <use x="29.492188" xlink:href="#DejaVuSans-75"/>
      <use x="95.068359" xlink:href="#DejaVuSans-66"/>
      <use x="163.671875" xlink:href="#DejaVuSans-75"/>
      <use x="229.248047" xlink:href="#DejaVuSans-66"/>
     </g>
    </g>
   </g>
   <g id="text_26">
    <g clip-path="url(#p3ded61ed04)">
     <!-- IKBKG -->
     <g transform="translate(553.444664 153.430174)scale(0.1 -0.1)">
      <use xlink:href="#DejaVuSans-73"/>
      <use x="29.492188" xlink:href="#DejaVuSans-75"/>
      <use x="95.068359" xlink:href="#DejaVuSans-66"/>
      <use x="163.671875" xlink:href="#DejaVuSans-75"/>
      <use x="229.248047" xlink:href="#DejaVuSans-71"/>
     </g>
    </g>
   </g>
   <g id="text_27">
    <g clip-path="url(#p3ded61ed04)">
     <!-- TRAF1 -->
     <g transform="translate(465.910452 109.833718)scale(0.1 -0.1)">
      <use xlink:href="#DejaVuSans-84"/>
      <use x="61.083984" xlink:href="#DejaVuSans-82"/>
      <use x="126.566406" xlink:href="#DejaVuSans-65"/>
      <use x="194.974609" xlink:href="#DejaVuSans-70"/>
      <use x="252.494141" xlink:href="#DejaVuSans-49"/>
     </g>
    </g>
   </g>
   <g id="text_28">
    <g clip-path="url(#p3ded61ed04)">
     <!-- TRAF2 -->
     <g transform="translate(573.069936 339.852328)scale(0.1 -0.1)">
      <use xlink:href="#DejaVuSans-84"/>
      <use x="61.083984" xlink:href="#DejaVuSans-82"/>
      <use x="126.566406" xlink:href="#DejaVuSans-65"/>
      <use x="194.974609" xlink:href="#DejaVuSans-70"/>
      <use x="252.494141" xlink:href="#DejaVuSans-50"/>
     </g>
    </g>
   </g>
   <g id="text_29">
    <g clip-path="url(#p3ded61ed04)">
     <!-- TRAF3 -->
     <g transform="translate(518.542584 364.697095)scale(0.1 -0.1)">
      <use xlink:href="#DejaVuSans-84"/>
      <use x="61.083984" xlink:href="#DejaVuSans-82"/>
      <use x="126.566406" xlink:href="#DejaVuSans-65"/>
      <use x="194.974609" xlink:href="#DejaVuSans-70"/>
      <use x="252.494141" xlink:href="#DejaVuSans-51"/>
     </g>
    </g>
   </g>
   <g id="text_30">
    <g clip-path="url(#p3ded61ed04)">
     <!-- TRAF6 -->
     <g transform="translate(49.500316 233.588535)scale(0.1 -0.1)">
      <use xlink:href="#DejaVuSans-84"/>
      <use x="61.083984" xlink:href="#DejaVuSans-82"/>
      <use x="126.566406" xlink:href="#DejaVuSans-65"/>
      <use x="194.974609" xlink:href="#DejaVuSans-70"/>
      <use x="252.494141" xlink:href="#DejaVuSans-54"/>
     </g>
    </g>
   </g>
   <g id="text_31">
    <g clip-path="url(#p3ded61ed04)">
     <!-- TRAF4 -->
     <g transform="translate(244.298018 414.700172)scale(0.1 -0.1)">
      <defs>
       <path d="M 37.796875 64.3125 
L 12.890625 25.390625 
L 37.796875 25.390625 
z
M 35.203125 72.90625 
L 47.609375 72.90625 
L 47.609375 25.390625 
L 58.015625 25.390625 
L 58.015625 17.1875 
L 47.609375 17.1875 
L 47.609375 0 
L 37.796875 0 
L 37.796875 17.1875 
L 4.890625 17.1875 
L 4.890625 26.703125 
z
" id="DejaVuSans-52"/>
      </defs>
      <use xlink:href="#DejaVuSans-84"/>
      <use x="61.083984" xlink:href="#DejaVuSans-82"/>
      <use x="126.566406" xlink:href="#DejaVuSans-65"/>
      <use x="194.974609" xlink:href="#DejaVuSans-70"/>
      <use x="252.494141" xlink:href="#DejaVuSans-52"/>
     </g>
    </g>
   </g>
   <g id="text_32">
    <g clip-path="url(#p3ded61ed04)">
     <!-- TRAF5 -->
     <g transform="translate(132.118293 388.544395)scale(0.1 -0.1)">
      <use xlink:href="#DejaVuSans-84"/>
      <use x="61.083984" xlink:href="#DejaVuSans-82"/>
      <use x="126.566406" xlink:href="#DejaVuSans-65"/>
      <use x="194.974609" xlink:href="#DejaVuSans-70"/>
      <use x="252.494141" xlink:href="#DejaVuSans-53"/>
     </g>
    </g>
   </g>
   <g id="text_33">
    <g clip-path="url(#p3ded61ed04)">
     <!-- E2F3 -->
     <g transform="translate(151.118455 392.653708)scale(0.1 -0.1)">
      <defs>
       <path d="M 9.8125 72.90625 
L 55.90625 72.90625 
L 55.90625 64.59375 
L 19.671875 64.59375 
L 19.671875 43.015625 
L 54.390625 43.015625 
L 54.390625 34.71875 
L 19.671875 34.71875 
L 19.671875 8.296875 
L 56.78125 8.296875 
L 56.78125 0 
L 9.8125 0 
z
" id="DejaVuSans-69"/>
      </defs>
      <use xlink:href="#DejaVuSans-69"/>
      <use x="63.183594" xlink:href="#DejaVuSans-50"/>
      <use x="126.806641" xlink:href="#DejaVuSans-70"/>
      <use x="184.326172" xlink:href="#DejaVuSans-51"/>
     </g>
    </g>
   </g>
   <g id="text_34">
    <g clip-path="url(#p3ded61ed04)">
     <!-- CDK4 -->
     <g transform="translate(251.823463 350.776482)scale(0.1 -0.1)">
      <use xlink:href="#DejaVuSans-67"/>
      <use x="69.824219" xlink:href="#DejaVuSans-68"/>
      <use x="146.826172" xlink:href="#DejaVuSans-75"/>
      <use x="212.402344" xlink:href="#DejaVuSans-52"/>
     </g>
    </g>
   </g>
   <g id="text_35">
    <g clip-path="url(#p3ded61ed04)">
     <!-- CDK6 -->
     <g transform="translate(335.162154 341.968891)scale(0.1 -0.1)">
      <use xlink:href="#DejaVuSans-67"/>
      <use x="69.824219" xlink:href="#DejaVuSans-68"/>
      <use x="146.826172" xlink:href="#DejaVuSans-75"/>
      <use x="212.402344" xlink:href="#DejaVuSans-54"/>
     </g>
    </g>
   </g>
   <g id="text_36">
    <g clip-path="url(#p3ded61ed04)">
     <!-- NFKB1 -->
     <g transform="translate(283.533098 275.232867)scale(0.1 -0.1)">
      <use xlink:href="#DejaVuSans-78"/>
      <use x="74.804688" xlink:href="#DejaVuSans-70"/>
      <use x="132.324219" xlink:href="#DejaVuSans-75"/>
      <use x="197.900391" xlink:href="#DejaVuSans-66"/>
      <use x="266.503906" xlink:href="#DejaVuSans-49"/>
     </g>
    </g>
   </g>
   <g id="text_37">
    <g clip-path="url(#p3ded61ed04)">
     <!-- RELA -->
     <g transform="translate(281.525552 289.795557)scale(0.1 -0.1)">
      <use xlink:href="#DejaVuSans-82"/>
      <use x="69.482422" xlink:href="#DejaVuSans-69"/>
      <use x="132.666016" xlink:href="#DejaVuSans-76"/>
      <use x="190.628906" xlink:href="#DejaVuSans-65"/>
     </g>
    </g>
   </g>
   <g id="text_38">
    <!-- Importance Score for Each Node in the Network -->
    <g transform="translate(198.616875 16.318125)scale(0.12 -0.12)">
     <defs>
      <path d="M 52 44.1875 
Q 55.375 50.25 60.0625 53.125 
Q 64.75 56 71.09375 56 
Q 79.640625 56 84.28125 50.015625 
Q 88.921875 44.046875 88.921875 33.015625 
L 88.921875 0 
L 79.890625 0 
L 79.890625 32.71875 
Q 79.890625 40.578125 77.09375 44.375 
Q 74.3125 48.1875 68.609375 48.1875 
Q 61.625 48.1875 57.5625 43.546875 
Q 53.515625 38.921875 53.515625 30.90625 
L 53.515625 0 
L 44.484375 0 
L 44.484375 32.71875 
Q 44.484375 40.625 41.703125 44.40625 
Q 38.921875 48.1875 33.109375 48.1875 
Q 26.21875 48.1875 22.15625 43.53125 
Q 18.109375 38.875 18.109375 30.90625 
L 18.109375 0 
L 9.078125 0 
L 9.078125 54.6875 
L 18.109375 54.6875 
L 18.109375 46.1875 
Q 21.1875 51.21875 25.484375 53.609375 
Q 29.78125 56 35.6875 56 
Q 41.65625 56 45.828125 52.96875 
Q 50 49.953125 52 44.1875 
z
" id="DejaVuSans-109"/>
      <path d="M 18.109375 8.203125 
L 18.109375 -20.796875 
L 9.078125 -20.796875 
L 9.078125 54.6875 
L 18.109375 54.6875 
L 18.109375 46.390625 
Q 20.953125 51.265625 25.265625 53.625 
Q 29.59375 56 35.59375 56 
Q 45.5625 56 51.78125 48.09375 
Q 58.015625 40.1875 58.015625 27.296875 
Q 58.015625 14.40625 51.78125 6.484375 
Q 45.5625 -1.421875 35.59375 -1.421875 
Q 29.59375 -1.421875 25.265625 0.953125 
Q 20.953125 3.328125 18.109375 8.203125 
z
M 48.6875 27.296875 
Q 48.6875 37.203125 44.609375 42.84375 
Q 40.53125 48.484375 33.40625 48.484375 
Q 26.265625 48.484375 22.1875 42.84375 
Q 18.109375 37.203125 18.109375 27.296875 
Q 18.109375 17.390625 22.1875 11.75 
Q 26.265625 6.109375 33.40625 6.109375 
Q 40.53125 6.109375 44.609375 11.75 
Q 48.6875 17.390625 48.6875 27.296875 
z
" id="DejaVuSans-112"/>
      <path d="M 30.609375 48.390625 
Q 23.390625 48.390625 19.1875 42.75 
Q 14.984375 37.109375 14.984375 27.296875 
Q 14.984375 17.484375 19.15625 11.84375 
Q 23.34375 6.203125 30.609375 6.203125 
Q 37.796875 6.203125 41.984375 11.859375 
Q 46.1875 17.53125 46.1875 27.296875 
Q 46.1875 37.015625 41.984375 42.703125 
Q 37.796875 48.390625 30.609375 48.390625 
z
M 30.609375 56 
Q 42.328125 56 49.015625 48.375 
Q 55.71875 40.765625 55.71875 27.296875 
Q 55.71875 13.875 49.015625 6.21875 
Q 42.328125 -1.421875 30.609375 -1.421875 
Q 18.84375 -1.421875 12.171875 6.21875 
Q 5.515625 13.875 5.515625 27.296875 
Q 5.515625 40.765625 12.171875 48.375 
Q 18.84375 56 30.609375 56 
z
" id="DejaVuSans-111"/>
      <path d="M 41.109375 46.296875 
Q 39.59375 47.171875 37.8125 47.578125 
Q 36.03125 48 33.890625 48 
Q 26.265625 48 22.1875 43.046875 
Q 18.109375 38.09375 18.109375 28.8125 
L 18.109375 0 
L 9.078125 0 
L 9.078125 54.6875 
L 18.109375 54.6875 
L 18.109375 46.1875 
Q 20.953125 51.171875 25.484375 53.578125 
Q 30.03125 56 36.53125 56 
Q 37.453125 56 38.578125 55.875 
Q 39.703125 55.765625 41.0625 55.515625 
z
" id="DejaVuSans-114"/>
      <path d="M 18.3125 70.21875 
L 18.3125 54.6875 
L 36.8125 54.6875 
L 36.8125 47.703125 
L 18.3125 47.703125 
L 18.3125 18.015625 
Q 18.3125 11.328125 20.140625 9.421875 
Q 21.96875 7.515625 27.59375 7.515625 
L 36.8125 7.515625 
L 36.8125 0 
L 27.59375 0 
Q 17.1875 0 13.234375 3.875 
Q 9.28125 7.765625 9.28125 18.015625 
L 9.28125 47.703125 
L 2.6875 47.703125 
L 2.6875 54.6875 
L 9.28125 54.6875 
L 9.28125 70.21875 
z
" id="DejaVuSans-116"/>
      <path d="M 34.28125 27.484375 
Q 23.390625 27.484375 19.1875 25 
Q 14.984375 22.515625 14.984375 16.5 
Q 14.984375 11.71875 18.140625 8.90625 
Q 21.296875 6.109375 26.703125 6.109375 
Q 34.1875 6.109375 38.703125 11.40625 
Q 43.21875 16.703125 43.21875 25.484375 
L 43.21875 27.484375 
z
M 52.203125 31.203125 
L 52.203125 0 
L 43.21875 0 
L 43.21875 8.296875 
Q 40.140625 3.328125 35.546875 0.953125 
Q 30.953125 -1.421875 24.3125 -1.421875 
Q 15.921875 -1.421875 10.953125 3.296875 
Q 6 8.015625 6 15.921875 
Q 6 25.140625 12.171875 29.828125 
Q 18.359375 34.515625 30.609375 34.515625 
L 43.21875 34.515625 
L 43.21875 35.40625 
Q 43.21875 41.609375 39.140625 45 
Q 35.0625 48.390625 27.6875 48.390625 
Q 23 48.390625 18.546875 47.265625 
Q 14.109375 46.140625 10.015625 43.890625 
L 10.015625 52.203125 
Q 14.9375 54.109375 19.578125 55.046875 
Q 24.21875 56 28.609375 56 
Q 40.484375 56 46.34375 49.84375 
Q 52.203125 43.703125 52.203125 31.203125 
z
" id="DejaVuSans-97"/>
      <path d="M 54.890625 33.015625 
L 54.890625 0 
L 45.90625 0 
L 45.90625 32.71875 
Q 45.90625 40.484375 42.875 44.328125 
Q 39.84375 48.1875 33.796875 48.1875 
Q 26.515625 48.1875 22.3125 43.546875 
Q 18.109375 38.921875 18.109375 30.90625 
L 18.109375 0 
L 9.078125 0 
L 9.078125 54.6875 
L 18.109375 54.6875 
L 18.109375 46.1875 
Q 21.34375 51.125 25.703125 53.5625 
Q 30.078125 56 35.796875 56 
Q 45.21875 56 50.046875 50.171875 
Q 54.890625 44.34375 54.890625 33.015625 
z
" id="DejaVuSans-110"/>
      <path d="M 48.78125 52.59375 
L 48.78125 44.1875 
Q 44.96875 46.296875 41.140625 47.34375 
Q 37.3125 48.390625 33.40625 48.390625 
Q 24.65625 48.390625 19.8125 42.84375 
Q 14.984375 37.3125 14.984375 27.296875 
Q 14.984375 17.28125 19.8125 11.734375 
Q 24.65625 6.203125 33.40625 6.203125 
Q 37.3125 6.203125 41.140625 7.25 
Q 44.96875 8.296875 48.78125 10.40625 
L 48.78125 2.09375 
Q 45.015625 0.34375 40.984375 -0.53125 
Q 36.96875 -1.421875 32.421875 -1.421875 
Q 20.0625 -1.421875 12.78125 6.34375 
Q 5.515625 14.109375 5.515625 27.296875 
Q 5.515625 40.671875 12.859375 48.328125 
Q 20.21875 56 33.015625 56 
Q 37.15625 56 41.109375 55.140625 
Q 45.0625 54.296875 48.78125 52.59375 
z
" id="DejaVuSans-99"/>
      <path d="M 56.203125 29.59375 
L 56.203125 25.203125 
L 14.890625 25.203125 
Q 15.484375 15.921875 20.484375 11.0625 
Q 25.484375 6.203125 34.421875 6.203125 
Q 39.59375 6.203125 44.453125 7.46875 
Q 49.3125 8.734375 54.109375 11.28125 
L 54.109375 2.78125 
Q 49.265625 0.734375 44.1875 -0.34375 
Q 39.109375 -1.421875 33.890625 -1.421875 
Q 20.796875 -1.421875 13.15625 6.1875 
Q 5.515625 13.8125 5.515625 26.8125 
Q 5.515625 40.234375 12.765625 48.109375 
Q 20.015625 56 32.328125 56 
Q 43.359375 56 49.78125 48.890625 
Q 56.203125 41.796875 56.203125 29.59375 
z
M 47.21875 32.234375 
Q 47.125 39.59375 43.09375 43.984375 
Q 39.0625 48.390625 32.421875 48.390625 
Q 24.90625 48.390625 20.390625 44.140625 
Q 15.875 39.890625 15.1875 32.171875 
z
" id="DejaVuSans-101"/>
      <path id="DejaVuSans-32"/>
      <path d="M 37.109375 75.984375 
L 37.109375 68.5 
L 28.515625 68.5 
Q 23.6875 68.5 21.796875 66.546875 
Q 19.921875 64.59375 19.921875 59.515625 
L 19.921875 54.6875 
L 34.71875 54.6875 
L 34.71875 47.703125 
L 19.921875 47.703125 
L 19.921875 0 
L 10.890625 0 
L 10.890625 47.703125 
L 2.296875 47.703125 
L 2.296875 54.6875 
L 10.890625 54.6875 
L 10.890625 58.5 
Q 10.890625 67.625 15.140625 71.796875 
Q 19.390625 75.984375 28.609375 75.984375 
z
" id="DejaVuSans-102"/>
      <path d="M 54.890625 33.015625 
L 54.890625 0 
L 45.90625 0 
L 45.90625 32.71875 
Q 45.90625 40.484375 42.875 44.328125 
Q 39.84375 48.1875 33.796875 48.1875 
Q 26.515625 48.1875 22.3125 43.546875 
Q 18.109375 38.921875 18.109375 30.90625 
L 18.109375 0 
L 9.078125 0 
L 9.078125 75.984375 
L 18.109375 75.984375 
L 18.109375 46.1875 
Q 21.34375 51.125 25.703125 53.5625 
Q 30.078125 56 35.796875 56 
Q 45.21875 56 50.046875 50.171875 
Q 54.890625 44.34375 54.890625 33.015625 
z
" id="DejaVuSans-104"/>
      <path d="M 45.40625 46.390625 
L 45.40625 75.984375 
L 54.390625 75.984375 
L 54.390625 0 
L 45.40625 0 
L 45.40625 8.203125 
Q 42.578125 3.328125 38.25 0.953125 
Q 33.9375 -1.421875 27.875 -1.421875 
Q 17.96875 -1.421875 11.734375 6.484375 
Q 5.515625 14.40625 5.515625 27.296875 
Q 5.515625 40.1875 11.734375 48.09375 
Q 17.96875 56 27.875 56 
Q 33.9375 56 38.25 53.625 
Q 42.578125 51.265625 45.40625 46.390625 
z
M 14.796875 27.296875 
Q 14.796875 17.390625 18.875 11.75 
Q 22.953125 6.109375 30.078125 6.109375 
Q 37.203125 6.109375 41.296875 11.75 
Q 45.40625 17.390625 45.40625 27.296875 
Q 45.40625 37.203125 41.296875 42.84375 
Q 37.203125 48.484375 30.078125 48.484375 
Q 22.953125 48.484375 18.875 42.84375 
Q 14.796875 37.203125 14.796875 27.296875 
z
" id="DejaVuSans-100"/>
      <path d="M 9.421875 54.6875 
L 18.40625 54.6875 
L 18.40625 0 
L 9.421875 0 
z
M 9.421875 75.984375 
L 18.40625 75.984375 
L 18.40625 64.59375 
L 9.421875 64.59375 
z
" id="DejaVuSans-105"/>
      <path d="M 4.203125 54.6875 
L 13.1875 54.6875 
L 24.421875 12.015625 
L 35.59375 54.6875 
L 46.1875 54.6875 
L 57.421875 12.015625 
L 68.609375 54.6875 
L 77.59375 54.6875 
L 63.28125 0 
L 52.6875 0 
L 40.921875 44.828125 
L 29.109375 0 
L 18.5 0 
z
" id="DejaVuSans-119"/>
      <path d="M 9.078125 75.984375 
L 18.109375 75.984375 
L 18.109375 31.109375 
L 44.921875 54.6875 
L 56.390625 54.6875 
L 27.390625 29.109375 
L 57.625 0 
L 45.90625 0 
L 18.109375 26.703125 
L 18.109375 0 
L 9.078125 0 
z
" id="DejaVuSans-107"/>
     </defs>
     <use xlink:href="#DejaVuSans-73"/>
     <use x="29.492188" xlink:href="#DejaVuSans-109"/>
     <use x="126.904297" xlink:href="#DejaVuSans-112"/>
     <use x="190.380859" xlink:href="#DejaVuSans-111"/>
     <use x="251.5625" xlink:href="#DejaVuSans-114"/>
     <use x="292.675781" xlink:href="#DejaVuSans-116"/>
     <use x="331.884766" xlink:href="#DejaVuSans-97"/>
     <use x="393.164062" xlink:href="#DejaVuSans-110"/>
     <use x="456.542969" xlink:href="#DejaVuSans-99"/>
     <use x="511.523438" xlink:href="#DejaVuSans-101"/>
     <use x="573.046875" xlink:href="#DejaVuSans-32"/>
     <use x="604.833984" xlink:href="#DejaVuSans-83"/>
     <use x="668.310547" xlink:href="#DejaVuSans-99"/>
     <use x="723.291016" xlink:href="#DejaVuSans-111"/>
     <use x="784.472656" xlink:href="#DejaVuSans-114"/>
     <use x="823.335938" xlink:href="#DejaVuSans-101"/>
     <use x="884.859375" xlink:href="#DejaVuSans-32"/>
     <use x="916.646484" xlink:href="#DejaVuSans-102"/>
     <use x="951.851562" xlink:href="#DejaVuSans-111"/>
     <use x="1013.033203" xlink:href="#DejaVuSans-114"/>
     <use x="1054.146484" xlink:href="#DejaVuSans-32"/>
     <use x="1085.933594" xlink:href="#DejaVuSans-69"/>
     <use x="1149.117188" xlink:href="#DejaVuSans-97"/>
     <use x="1210.396484" xlink:href="#DejaVuSans-99"/>
     <use x="1265.376953" xlink:href="#DejaVuSans-104"/>
     <use x="1328.755859" xlink:href="#DejaVuSans-32"/>
     <use x="1360.542969" xlink:href="#DejaVuSans-78"/>
     <use x="1435.347656" xlink:href="#DejaVuSans-111"/>
     <use x="1496.529297" xlink:href="#DejaVuSans-100"/>
     <use x="1560.005859" xlink:href="#DejaVuSans-101"/>
     <use x="1621.529297" xlink:href="#DejaVuSans-32"/>
     <use x="1653.316406" xlink:href="#DejaVuSans-105"/>
     <use x="1681.099609" xlink:href="#DejaVuSans-110"/>
     <use x="1744.478516" xlink:href="#DejaVuSans-32"/>
     <use x="1776.265625" xlink:href="#DejaVuSans-116"/>
     <use x="1815.474609" xlink:href="#DejaVuSans-104"/>
     <use x="1878.853516" xlink:href="#DejaVuSans-101"/>
     <use x="1940.376953" xlink:href="#DejaVuSans-32"/>
     <use x="1972.164062" xlink:href="#DejaVuSans-78"/>
     <use x="2046.96875" xlink:href="#DejaVuSans-101"/>
     <use x="2108.492188" xlink:href="#DejaVuSans-116"/>
     <use x="2147.701172" xlink:href="#DejaVuSans-119"/>
     <use x="2229.488281" xlink:href="#DejaVuSans-111"/>
     <use x="2290.669922" xlink:href="#DejaVuSans-114"/>
     <use x="2331.783203" xlink:href="#DejaVuSans-107"/>
    </g>
   </g>
  </g>
 </g>
 <defs>
  <clipPath id="p3ded61ed04">
   <rect height="443.52" width="669.6" x="7.2" y="22.318125"/>
  </clipPath>
 </defs>
</svg>
