<?xml version="1.0" encoding="utf-8" standalone="no"?>
<!DOCTYPE svg PUBLIC "-//W3C//DTD SVG 1.1//EN"
  "http://www.w3.org/Graphics/SVG/1.1/DTD/svg11.dtd">
<!-- Created with matplotlib (https://matplotlib.org/) -->
<svg height="473.038125pt" version="1.1" viewBox="0 0 684 473.038125" width="684pt" xmlns="http://www.w3.org/2000/svg" xmlns:xlink="http://www.w3.org/1999/xlink">
 <metadata>
  <rdf:RDF xmlns:cc="http://creativecommons.org/ns#" xmlns:dc="http://purl.org/dc/elements/1.1/" xmlns:rdf="http://www.w3.org/1999/02/22-rdf-syntax-ns#">
   <cc:Work>
    <dc:type rdf:resource="http://purl.org/dc/dcmitype/StillImage"/>
    <dc:date>2024-04-26T10:58:58.025198</dc:date>
    <dc:format>image/svg+xml</dc:format>
    <dc:creator>
     <cc:Agent>
      <dc:title>Matplotlib v3.3.1, https://matplotlib.org/</dc:title>
     </cc:Agent>
    </dc:creator>
   </cc:Work>
  </rdf:RDF>
 </metadata>
 <defs>
  <style type="text/css">*{stroke-linecap:butt;stroke-linejoin:round;}</style>
 </defs>
 <g id="figure_1">
  <g id="patch_1">
   <path d="M 0 473.038125 
L 684 473.038125 
L 684 0 
L 0 0 
z
" style="fill:#ffffff;"/>
  </g>
  <g id="axes_1">
   <g id="patch_2">
    <path clip-path="url(#p476cfad1b0)" d="M 136.672531 249.250968 
Q 271.572269 335.959028 405.531499 422.062568 
" style="fill:none;stroke:#808080;stroke-linecap:round;"/>
    <path clip-path="url(#p476cfad1b0)" d="M 403.248034 418.217339 
L 405.531499 422.062568 
L 401.085237 421.582203 
L 403.248034 418.217339 
z
" style="fill:#808080;stroke:#808080;stroke-linecap:round;"/>
   </g>
   <g id="patch_3">
    <path clip-path="url(#p476cfad1b0)" d="M 73.954929 293.235212 
Q 174.691291 287.501215 274.311425 281.830755 
" style="fill:none;stroke:#808080;stroke-linecap:round;"/>
    <path clip-path="url(#p476cfad1b0)" d="M 270.204232 280.061303 
L 274.311425 281.830755 
L 270.431547 284.054838 
L 270.204232 280.061303 
z
" style="fill:#808080;stroke:#808080;stroke-linecap:round;"/>
   </g>
   <g id="patch_4">
    <path clip-path="url(#p476cfad1b0)" d="M 292.563242 279.561182 
Q 451.385134 247.494985 609.111106 215.650055 
" style="fill:none;stroke:#808080;stroke-linecap:round;"/>
    <path clip-path="url(#p476cfad1b0)" d="M 604.794409 214.481241 
L 609.111106 215.650055 
L 605.586037 218.402124 
L 604.794409 214.481241 
z
" style="fill:#808080;stroke:#808080;stroke-linecap:round;"/>
   </g>
   <g id="patch_5">
    <path clip-path="url(#p476cfad1b0)" d="M 276.400299 277.255211 
Q 185.72447 229.759709 96.039037 182.78297 
" style="fill:none;stroke:#808080;stroke-linecap:round;"/>
    <path clip-path="url(#p476cfad1b0)" d="M 98.654392 186.410631 
L 96.039037 182.78297 
L 100.510378 182.867283 
L 98.654392 186.410631 
z
" style="fill:#808080;stroke:#808080;stroke-linecap:round;"/>
   </g>
   <g id="patch_6">
    <path clip-path="url(#p476cfad1b0)" d="M 275.886424 284.086687 
Q 183.320383 315.871722 91.811773 347.293661 
" style="fill:none;stroke:#808080;stroke-linecap:round;"/>
    <path clip-path="url(#p476cfad1b0)" d="M 96.244482 347.886195 
L 91.811773 347.293661 
L 94.945425 344.103014 
L 96.244482 347.886195 
z
" style="fill:#808080;stroke:#808080;stroke-linecap:round;"/>
   </g>
   <g id="patch_7">
    <path clip-path="url(#p476cfad1b0)" d="M 256.95475 203.958828 
Q 239.442163 229.98111 222.553802 255.075845 
" style="fill:none;stroke:#808080;stroke-linecap:round;"/>
    <path clip-path="url(#p476cfad1b0)" d="M 226.446343 252.873999 
L 222.553802 255.075845 
L 223.127849 250.640705 
L 226.446343 252.873999 
z
" style="fill:#808080;stroke:#808080;stroke-linecap:round;"/>
   </g>
   <g id="patch_8">
    <path clip-path="url(#p476cfad1b0)" d="M 269.688809 200.32905 
Q 405.798415 261.639098 540.888632 322.489966 
" style="fill:none;stroke:#808080;stroke-linecap:round;"/>
    <path clip-path="url(#p476cfad1b0)" d="M 538.062961 319.023616 
L 540.888632 322.489966 
L 536.420149 322.670692 
L 538.062961 319.023616 
z
" style="fill:#808080;stroke:#808080;stroke-linecap:round;"/>
   </g>
   <g id="patch_9">
    <path clip-path="url(#p476cfad1b0)" d="M 253.649736 199.710983 
Q 195.594155 220.669325 138.59018 241.248032 
" style="fill:none;stroke:#808080;stroke-linecap:round;"/>
    <path clip-path="url(#p476cfad1b0)" d="M 143.031635 241.77098 
L 138.59018 241.248032 
L 141.673411 238.008636 
L 143.031635 241.77098 
z
" style="fill:#808080;stroke:#808080;stroke-linecap:round;"/>
   </g>
   <g id="patch_10">
    <path clip-path="url(#p476cfad1b0)" d="M 225.601601 264.805132 
Q 383.448922 294.845721 540.197922 324.677285 
" style="fill:none;stroke:#808080;stroke-linecap:round;"/>
    <path clip-path="url(#p476cfad1b0)" d="M 536.642368 321.964715 
L 540.197922 324.677285 
L 535.894534 325.894186 
L 536.642368 321.964715 
z
" style="fill:#808080;stroke:#808080;stroke-linecap:round;"/>
   </g>
   <g id="patch_11">
    <path clip-path="url(#p476cfad1b0)" d="M 159.589784 337.725549 
Q 145.824541 295.265505 132.40409 253.869001 
" style="fill:none;stroke:#808080;stroke-linecap:round;"/>
    <path clip-path="url(#p476cfad1b0)" d="M 131.735138 258.290822 
L 132.40409 253.869001 
L 135.540176 257.057256 
L 131.735138 258.290822 
z
" style="fill:#808080;stroke:#808080;stroke-linecap:round;"/>
   </g>
   <g id="patch_12">
    <path clip-path="url(#p476cfad1b0)" d="M 169.859779 350.115084 
Q 231.307802 383.669144 291.774555 416.687377 
" style="fill:none;stroke:#808080;stroke-linecap:round;"/>
    <path clip-path="url(#p476cfad1b0)" d="M 289.222379 413.014994 
L 291.774555 416.687377 
L 287.305343 416.525688 
L 289.222379 413.014994 
z
" style="fill:#808080;stroke:#808080;stroke-linecap:round;"/>
   </g>
   <g id="patch_13">
    <path clip-path="url(#p476cfad1b0)" d="M 168.508977 339.968147 
Q 214.567803 295.752649 259.820085 252.311416 
" style="fill:none;stroke:#808080;stroke-linecap:round;"/>
    <path clip-path="url(#p476cfad1b0)" d="M 255.549457 253.638721 
L 259.820085 252.311416 
L 258.319553 256.524301 
L 255.549457 253.638721 
z
" style="fill:#808080;stroke:#808080;stroke-linecap:round;"/>
   </g>
   <g id="patch_14">
    <path clip-path="url(#p476cfad1b0)" d="M 429.883054 168.507115 
Q 350.106526 181.921562 271.432555 195.150615 
" style="fill:none;stroke:#808080;stroke-linecap:round;"/>
    <path clip-path="url(#p476cfad1b0)" d="M 275.708822 196.459636 
L 271.432555 195.150615 
L 275.045533 192.515014 
L 275.708822 196.459636 
z
" style="fill:#808080;stroke:#808080;stroke-linecap:round;"/>
   </g>
   <g id="patch_15">
    <path clip-path="url(#p476cfad1b0)" d="M 433.185527 160.172137 
Q 405.775742 124.075871 379.042094 88.87002 
" style="fill:none;stroke:#808080;stroke-linecap:round;"/>
    <path clip-path="url(#p476cfad1b0)" d="M 379.868298 93.265175 
L 379.042094 88.87002 
L 383.05394 90.846149 
L 379.868298 93.265175 
z
" style="fill:#808080;stroke:#808080;stroke-linecap:round;"/>
   </g>
   <g id="patch_16">
    <path clip-path="url(#p476cfad1b0)" d="M 446.441293 170.349077 
Q 522.276987 201.357677 597.077817 231.943129 
" style="fill:none;stroke:#808080;stroke-linecap:round;"/>
    <path clip-path="url(#p476cfad1b0)" d="M 594.132321 228.578005 
L 597.077817 231.943129 
L 592.61842 232.280451 
L 594.132321 228.578005 
z
" style="fill:#808080;stroke:#808080;stroke-linecap:round;"/>
   </g>
   <g id="patch_17">
    <path clip-path="url(#p476cfad1b0)" d="M 438.450805 175.73438 
Q 438.608857 227.088629 438.763469 277.324849 
" style="fill:none;stroke:#808080;stroke-linecap:round;"/>
    <path clip-path="url(#p476cfad1b0)" d="M 440.751149 273.318712 
L 438.763469 277.324849 
L 436.751167 273.331023 
L 440.751149 273.318712 
z
" style="fill:#808080;stroke:#808080;stroke-linecap:round;"/>
   </g>
   <g id="patch_18">
    <path clip-path="url(#p476cfad1b0)" d="M 363.265925 329.363907 
Q 268.676548 353.757489 175.169784 377.871878 
" style="fill:none;stroke:#808080;stroke-linecap:round;"/>
    <path clip-path="url(#p476cfad1b0)" d="M 179.542496 378.809639 
L 175.169784 377.871878 
L 178.54362 374.936365 
L 179.542496 378.809639 
z
" style="fill:#808080;stroke:#808080;stroke-linecap:round;"/>
   </g>
   <g id="patch_19">
    <path clip-path="url(#p476cfad1b0)" d="M 363.122864 325.686081 
Q 233.204421 302.615984 104.386791 279.741363 
" style="fill:none;stroke:#808080;stroke-linecap:round;"/>
    <path clip-path="url(#p476cfad1b0)" d="M 107.975503 282.409912 
L 104.386791 279.741363 
L 108.674857 278.471523 
L 107.975503 282.409912 
z
" style="fill:#808080;stroke:#808080;stroke-linecap:round;"/>
   </g>
   <g id="patch_20">
    <path clip-path="url(#p476cfad1b0)" d="M 378.18924 321.519801 
Q 480.645554 232.463248 582.258048 144.140156 
" style="fill:none;stroke:#808080;stroke-linecap:round;"/>
    <path clip-path="url(#p476cfad1b0)" d="M 577.927046 145.254796 
L 582.258048 144.140156 
L 580.551158 148.273741 
L 577.927046 145.254796 
z
" style="fill:#808080;stroke:#808080;stroke-linecap:round;"/>
   </g>
   <g id="patch_21">
    <path clip-path="url(#p476cfad1b0)" d="M 452.617714 223.645681 
Q 514.816669 200.746726 575.966435 178.234036 
" style="fill:none;stroke:#808080;stroke-linecap:round;"/>
    <path clip-path="url(#p476cfad1b0)" d="M 571.521767 177.739136 
L 575.966435 178.234036 
L 572.903714 181.49283 
L 571.521767 177.739136 
z
" style="fill:#808080;stroke:#808080;stroke-linecap:round;"/>
   </g>
   <g id="patch_22">
    <path clip-path="url(#p476cfad1b0)" d="M 448.993113 219.240021 
Q 484.675341 160.594195 519.776433 102.903502 
" style="fill:none;stroke:#808080;stroke-linecap:round;"/>
    <path clip-path="url(#p476cfad1b0)" d="M 515.988698 105.28112 
L 519.776433 102.903502 
L 519.405887 107.36026 
L 515.988698 105.28112 
z
" style="fill:#808080;stroke:#808080;stroke-linecap:round;"/>
   </g>
   <g id="patch_23">
    <path clip-path="url(#p476cfad1b0)" d="M 436.975744 222.340743 
Q 300.409249 144.284682 164.813424 66.783418 
" style="fill:none;stroke:#808080;stroke-linecap:round;"/>
    <path clip-path="url(#p476cfad1b0)" d="M 167.293748 70.504707 
L 164.813424 66.783418 
L 169.27865 67.031933 
L 167.293748 70.504707 
z
" style="fill:#808080;stroke:#808080;stroke-linecap:round;"/>
   </g>
   <g id="patch_24">
    <path clip-path="url(#p476cfad1b0)" d="M 423.905495 220.379818 
Q 400.001329 154.80222 376.480061 90.275045 
" style="fill:none;stroke:#808080;stroke-linecap:round;"/>
    <path clip-path="url(#p476cfad1b0)" d="M 375.970902 94.718103 
L 376.480061 90.275045 
L 379.729011 93.348207 
L 375.970902 94.718103 
z
" style="fill:#808080;stroke:#808080;stroke-linecap:round;"/>
   </g>
   <g id="patch_25">
    <path clip-path="url(#p476cfad1b0)" d="M 435.523875 228.862995 
Q 516.497469 232.081068 596.353911 235.254743 
" style="fill:none;stroke:#808080;stroke-linecap:round;"/>
    <path clip-path="url(#p476cfad1b0)" d="M 592.436488 233.097477 
L 596.353911 235.254743 
L 592.277645 237.094321 
L 592.436488 233.097477 
z
" style="fill:#808080;stroke:#808080;stroke-linecap:round;"/>
   </g>
   <g id="patch_26">
    <path clip-path="url(#p476cfad1b0)" d="M 428.599044 237.004737 
Q 432.832972 257.812659 436.843974 277.524996 
" style="fill:none;stroke:#808080;stroke-linecap:round;"/>
    <path clip-path="url(#p476cfad1b0)" d="M 438.00625 273.206534 
L 436.843974 277.524996 
L 434.08657 274.004098 
L 438.00625 273.206534 
z
" style="fill:#808080;stroke:#808080;stroke-linecap:round;"/>
   </g>
   <g id="patch_27">
    <path clip-path="url(#p476cfad1b0)" d="M 408.487106 195.968428 
Q 392.082222 142.665046 376.006206 90.430237 
" style="fill:none;stroke:#808080;stroke-linecap:round;"/>
    <path clip-path="url(#p476cfad1b0)" d="M 375.271282 94.841573 
L 376.006206 90.430237 
L 379.094321 93.664978 
L 375.271282 94.841573 
z
" style="fill:#808080;stroke:#808080;stroke-linecap:round;"/>
   </g>
   <g id="patch_28">
    <path clip-path="url(#p476cfad1b0)" d="M 419.588022 205.625105 
Q 508.583549 219.946374 596.475243 234.090014 
" style="fill:none;stroke:#808080;stroke-linecap:round;"/>
    <path clip-path="url(#p476cfad1b0)" d="M 592.843804 231.479908 
L 596.475243 234.090014 
L 592.208295 235.429101 
L 592.843804 231.479908 
z
" style="fill:#808080;stroke:#808080;stroke-linecap:round;"/>
   </g>
   <g id="patch_29">
    <path clip-path="url(#p476cfad1b0)" d="M 413.78608 212.459234 
Q 424.913835 245.675506 435.686437 277.831651 
" style="fill:none;stroke:#808080;stroke-linecap:round;"/>
    <path clip-path="url(#p476cfad1b0)" d="M 436.312218 273.403514 
L 435.686437 277.831651 
L 432.519396 274.674144 
L 436.312218 273.403514 
z
" style="fill:#808080;stroke:#808080;stroke-linecap:round;"/>
   </g>
   <g id="patch_30">
    <path clip-path="url(#p476cfad1b0)" d="M 309.006736 421.830414 
Q 357.059203 424.362777 403.995185 426.836301 
" style="fill:none;stroke:#808080;stroke-linecap:round;"/>
    <path clip-path="url(#p476cfad1b0)" d="M 400.105981 424.628565 
L 403.995185 426.836301 
L 399.895474 428.623022 
L 400.105981 424.628565 
z
" style="fill:#808080;stroke:#808080;stroke-linecap:round;"/>
   </g>
   <g id="patch_31">
    <path clip-path="url(#p476cfad1b0)" d="M 272.317576 252.278867 
Q 340.317832 336.447577 407.615474 419.746612 
" style="fill:none;stroke:#808080;stroke-linecap:round;"/>
    <path clip-path="url(#p476cfad1b0)" d="M 406.657448 415.378296 
L 407.615474 419.746612 
L 403.546005 417.892044 
L 406.657448 415.378296 
z
" style="fill:#808080;stroke:#808080;stroke-linecap:round;"/>
   </g>
   <g id="patch_32">
    <path clip-path="url(#p476cfad1b0)" d="M 529.0432 157.874446 
Q 473.104772 288.63029 417.606096 418.358214 
" style="fill:none;stroke:#808080;stroke-linecap:round;"/>
    <path clip-path="url(#p476cfad1b0)" d="M 421.018199 415.467272 
L 417.606096 418.358214 
L 417.340604 413.893966 
L 421.018199 415.467272 
z
" style="fill:#808080;stroke:#808080;stroke-linecap:round;"/>
   </g>
   <g id="patch_33">
    <path clip-path="url(#p476cfad1b0)" d="M 361.885156 271.449428 
Q 367.252068 180.590435 372.553054 90.84753 
" style="fill:none;stroke:#808080;stroke-linecap:round;"/>
    <path clip-path="url(#p476cfad1b0)" d="M 370.320671 94.722638 
L 372.553054 90.84753 
L 374.313711 94.958501 
L 370.320671 94.722638 
z
" style="fill:#808080;stroke:#808080;stroke-linecap:round;"/>
   </g>
   <g id="patch_34">
    <path clip-path="url(#p476cfad1b0)" d="M 369.893159 278.547656 
Q 483.751039 257.868889 596.508881 237.38991 
" style="fill:none;stroke:#808080;stroke-linecap:round;"/>
    <path clip-path="url(#p476cfad1b0)" d="M 592.215872 236.136885 
L 596.508881 237.38991 
L 592.930655 240.072502 
L 592.215872 236.136885 
z
" style="fill:#808080;stroke:#808080;stroke-linecap:round;"/>
   </g>
   <g id="patch_35">
    <path clip-path="url(#p476cfad1b0)" d="M 369.998133 280.875828 
Q 400.081442 283.600386 429.051274 286.2241 
" style="fill:none;stroke:#808080;stroke-linecap:round;"/>
    <path clip-path="url(#p476cfad1b0)" d="M 425.247974 283.871461 
L 429.051274 286.2241 
L 424.887183 287.855156 
L 425.247974 283.871461 
z
" style="fill:#808080;stroke:#808080;stroke-linecap:round;"/>
   </g>
   <g id="patch_36">
    <path clip-path="url(#p476cfad1b0)" d="M 433.964427 132.265327 
Q 406.860999 109.462715 380.613099 87.379874 
" style="fill:none;stroke:#808080;stroke-linecap:round;"/>
    <path clip-path="url(#p476cfad1b0)" d="M 382.386363 91.485423 
L 380.613099 87.379874 
L 384.961496 88.424592 
L 382.386363 91.485423 
z
" style="fill:#808080;stroke:#808080;stroke-linecap:round;"/>
   </g>
   <g id="patch_37">
    <path clip-path="url(#p476cfad1b0)" d="M 448.045441 142.244808 
Q 523.358115 186.741409 597.708208 230.669293 
" style="fill:none;stroke:#808080;stroke-linecap:round;"/>
    <path clip-path="url(#p476cfad1b0)" d="M 595.281726 226.912675 
L 597.708208 230.669293 
L 593.247024 230.356508 
L 595.281726 226.912675 
z
" style="fill:#808080;stroke:#808080;stroke-linecap:round;"/>
   </g>
   <g id="patch_38">
    <path clip-path="url(#p476cfad1b0)" d="M 440.487303 146.50038 
Q 439.692618 212.471686 438.911399 277.325039 
" style="fill:none;stroke:#808080;stroke-linecap:round;"/>
    <path clip-path="url(#p476cfad1b0)" d="M 440.959434 273.349419 
L 438.911399 277.325039 
L 436.959725 273.301239 
L 440.959434 273.349419 
z
" style="fill:#808080;stroke:#808080;stroke-linecap:round;"/>
   </g>
   <g id="patch_39">
    <path clip-path="url(#p476cfad1b0)" d="M 379.532827 86.914411 
Q 469.597538 168.924164 558.835577 250.181179 
" style="fill:none;stroke:#808080;stroke-linecap:round;"/>
    <path clip-path="url(#p476cfad1b0)" d="M 557.224526 246.009307 
L 558.835577 250.181179 
L 554.531449 248.966897 
L 557.224526 246.009307 
z
" style="fill:#808080;stroke:#808080;stroke-linecap:round;"/>
   </g>
   <g id="patch_40">
    <path clip-path="url(#p476cfad1b0)" d="M 381.287651 78.16921 
Q 401.509381 70.944003 420.678264 64.094978 
" style="fill:none;stroke:#808080;stroke-linecap:round;"/>
    <path clip-path="url(#p476cfad1b0)" d="M 416.238549 63.557455 
L 420.678264 64.094978 
L 417.584417 67.324236 
L 416.238549 63.557455 
z
" style="fill:#808080;stroke:#808080;stroke-linecap:round;"/>
   </g>
   <g id="patch_41">
    <path clip-path="url(#p476cfad1b0)" d="M 598.465656 239.681665 
Q 586.095296 246.202737 574.713964 252.202441 
" style="fill:none;stroke:#808080;stroke-linecap:round;"/>
    <path clip-path="url(#p476cfad1b0)" d="M 579.185068 252.106361 
L 574.713964 252.202441 
L 577.319763 248.56791 
L 579.185068 252.106361 
z
" style="fill:#808080;stroke:#808080;stroke-linecap:round;"/>
   </g>
   <g id="patch_42">
    <path clip-path="url(#p476cfad1b0)" d="M 599.9764 229.541848 
Q 518.004967 148.223371 436.827257 67.692297 
" style="fill:none;stroke:#808080;stroke-linecap:round;"/>
    <path clip-path="url(#p476cfad1b0)" d="M 438.258425 71.929248 
L 436.827257 67.692297 
L 441.075519 69.089534 
L 438.258425 71.929248 
z
" style="fill:#808080;stroke:#808080;stroke-linecap:round;"/>
   </g>
   <g id="patch_43">
    <path clip-path="url(#p476cfad1b0)" d="M 447.217899 285.097894 
Q 502.428042 271.934625 556.550635 259.03065 
" style="fill:none;stroke:#808080;stroke-linecap:round;"/>
    <path clip-path="url(#p476cfad1b0)" d="M 552.195855 258.012863 
L 556.550635 259.03065 
L 553.123538 261.903802 
L 552.195855 258.012863 
z
" style="fill:#808080;stroke:#808080;stroke-linecap:round;"/>
   </g>
   <g id="patch_44">
    <path clip-path="url(#p476cfad1b0)" d="M 438.452789 278.449561 
Q 434.339204 173.953064 430.269597 70.573736 
" style="fill:none;stroke:#808080;stroke-linecap:round;"/>
    <path clip-path="url(#p476cfad1b0)" d="M 428.428486 74.649311 
L 430.269597 70.573736 
L 432.425391 74.49197 
L 428.428486 74.649311 
z
" style="fill:#808080;stroke:#808080;stroke-linecap:round;"/>
   </g>
   <g id="patch_45">
    <path clip-path="url(#p476cfad1b0)" d="M 342.64683 204.309969 
Q 356.155569 261.541923 369.407469 317.685743 
" style="fill:none;stroke:#808080;stroke-linecap:round;"/>
    <path clip-path="url(#p476cfad1b0)" d="M 370.435092 313.333273 
L 369.407469 317.685743 
L 366.542067 314.252163 
L 370.435092 313.333273 
z
" style="fill:#808080;stroke:#808080;stroke-linecap:round;"/>
   </g>
   <g id="patch_46">
    <path clip-path="url(#p476cfad1b0)" d="M 342.726857 204.293636 
Q 351.016652 237.991014 359.039366 270.602728 
" style="fill:none;stroke:#808080;stroke-linecap:round;"/>
    <path clip-path="url(#p476cfad1b0)" d="M 360.025923 266.240767 
L 359.039366 270.602728 
L 356.141731 267.196306 
L 360.025923 266.240767 
z
" style="fill:#808080;stroke:#808080;stroke-linecap:round;"/>
   </g>
   <g id="patch_47">
    <path clip-path="url(#p476cfad1b0)" d="M 348.966891 193.433428 
Q 389.541793 181.476255 429.044259 169.835122 
" style="fill:none;stroke:#808080;stroke-linecap:round;"/>
    <path clip-path="url(#p476cfad1b0)" d="M 424.642046 169.04739 
L 429.044259 169.835122 
L 425.772746 172.884253 
L 424.642046 169.04739 
z
" style="fill:#808080;stroke:#808080;stroke-linecap:round;"/>
   </g>
   <g id="patch_48">
    <path clip-path="url(#p476cfad1b0)" d="M 348.144691 191.533647 
Q 390.622935 166.862479 432.134379 142.752825 
" style="fill:none;stroke:#808080;stroke-linecap:round;"/>
    <path clip-path="url(#p476cfad1b0)" d="M 427.670983 143.032291 
L 432.134379 142.752825 
L 429.679914 146.491221 
L 427.670983 143.032291 
z
" style="fill:#808080;stroke:#808080;stroke-linecap:round;"/>
   </g>
   <g id="PathCollection_1">
    <defs>
     <path d="M 0 11.18034 
C 2.965061 11.18034 5.80908 10.002309 7.905694 7.905694 
C 10.002309 5.80908 11.18034 2.965061 11.18034 -0 
C 11.18034 -2.965061 10.002309 -5.80908 7.905694 -7.905694 
C 5.80908 -10.002309 2.965061 -11.18034 0 -11.18034 
C -2.965061 -11.18034 -5.80908 -10.002309 -7.905694 -7.905694 
C -10.002309 -5.80908 -11.18034 -2.965061 -11.18034 0 
C -11.18034 2.965061 -10.002309 5.80908 -7.905694 7.905694 
C -5.80908 10.002309 -2.965061 11.18034 0 11.18034 
z
" id="C0_0_dad7dc3595"/>
    </defs>
    <g clip-path="url(#p476cfad1b0)">
     <use style="fill:#eeeeee;stroke:#eeeeee;" x="129.38929" xlink:href="#C0_0_dad7dc3595" y="244.569597"/>
    </g>
    <g clip-path="url(#p476cfad1b0)">
     <use style="fill:#d5d5d5;stroke:#d5d5d5;" x="65.305785" xlink:href="#C0_0_dad7dc3595" y="293.727528"/>
    </g>
    <g clip-path="url(#p476cfad1b0)">
     <use style="fill:#efefef;stroke:#efefef;" x="549.802459" xlink:href="#C0_0_dad7dc3595" y="326.505165"/>
    </g>
    <g clip-path="url(#p476cfad1b0)">
     <use style="fill:#dcdcdc;stroke:#dcdcdc;" x="284.074702" xlink:href="#C0_0_dad7dc3595" y="281.275021"/>
    </g>
    <g clip-path="url(#p476cfad1b0)">
     <use style="fill:#efefef;stroke:#efefef;" x="413.758971" xlink:href="#C0_0_dad7dc3595" y="427.350852"/>
    </g>
    <g clip-path="url(#p476cfad1b0)">
     <use style="fill:#f0f0f0;stroke:#f0f0f0;" x="618.694215" xlink:href="#C0_0_dad7dc3595" y="213.715222"/>
    </g>
    <g clip-path="url(#p476cfad1b0)">
     <use style="fill:#dfdfdf;stroke:#dfdfdf;" x="261.791537" xlink:href="#C0_0_dad7dc3595" y="196.771755"/>
    </g>
    <g clip-path="url(#p476cfad1b0)">
     <use style="fill:#e8e8e8;stroke:#e8e8e8;" x="217.095583" xlink:href="#C0_0_dad7dc3595" y="263.186316"/>
    </g>
    <g clip-path="url(#p476cfad1b0)">
     <use style="fill:#e4e4e4;stroke:#e4e4e4;" x="162.261231" xlink:href="#C0_0_dad7dc3595" y="345.965851"/>
    </g>
    <g clip-path="url(#p476cfad1b0)">
     <use style="fill:#aaaaaa;stroke:#aaaaaa;" x="438.424141" xlink:href="#C0_0_dad7dc3595" y="167.070929"/>
    </g>
    <g clip-path="url(#p476cfad1b0)">
     <use style="fill:#dadada;stroke:#dadada;" x="371.653372" xlink:href="#C0_0_dad7dc3595" y="327.200874"/>
    </g>
    <g clip-path="url(#p476cfad1b0)">
     <use style="fill:#dbdbdb;stroke:#dbdbdb;" x="444.492506" xlink:href="#C0_0_dad7dc3595" y="226.63703"/>
    </g>
    <g clip-path="url(#p476cfad1b0)">
     <use style="fill:#efefef;stroke:#efefef;" x="585.140576" xlink:href="#C0_0_dad7dc3595" y="174.856515"/>
    </g>
    <g clip-path="url(#p476cfad1b0)">
     <use style="fill:#efefef;stroke:#efefef;" x="524.860827" xlink:href="#C0_0_dad7dc3595" y="94.547004"/>
    </g>
    <g clip-path="url(#p476cfad1b0)">
     <use style="fill:#efefef;stroke:#efefef;" x="156.327219" xlink:href="#C0_0_dad7dc3595" y="61.933035"/>
    </g>
    <g clip-path="url(#p476cfad1b0)">
     <use style="fill:#dcdcdc;stroke:#dcdcdc;" x="426.872428" xlink:href="#C0_0_dad7dc3595" y="228.519167"/>
    </g>
    <g clip-path="url(#p476cfad1b0)">
     <use style="fill:#cccccc;stroke:#cccccc;" x="411.035518" xlink:href="#C0_0_dad7dc3595" y="204.248826"/>
    </g>
    <g clip-path="url(#p476cfad1b0)">
     <use style="fill:#f3f3f3;stroke:#f3f3f3;" x="300.358421" xlink:href="#C0_0_dad7dc3595" y="421.374648"/>
    </g>
    <g clip-path="url(#p476cfad1b0)">
     <use style="fill:#f0f0f0;stroke:#f0f0f0;" x="266.87347" xlink:href="#C0_0_dad7dc3595" y="245.540314"/>
    </g>
    <g clip-path="url(#p476cfad1b0)">
     <use style="fill:#efefef;stroke:#efefef;" x="532.44984" xlink:href="#C0_0_dad7dc3595" y="149.91144"/>
    </g>
    <g clip-path="url(#p476cfad1b0)">
     <use style="fill:#d4d4d4;stroke:#d4d4d4;" x="361.374486" xlink:href="#C0_0_dad7dc3595" y="280.09481"/>
    </g>
    <g clip-path="url(#p476cfad1b0)">
     <use style="fill:#efefef;stroke:#efefef;" x="440.591614" xlink:href="#C0_0_dad7dc3595" y="137.840902"/>
    </g>
    <g clip-path="url(#p476cfad1b0)">
     <use style="fill:#f0f0f0;stroke:#f0f0f0;" x="87.379477" xlink:href="#C0_0_dad7dc3595" y="178.24714"/>
    </g>
    <g clip-path="url(#p476cfad1b0)">
     <use style="fill:#f0f0f0;stroke:#f0f0f0;" x="82.562501" xlink:href="#C0_0_dad7dc3595" y="350.469647"/>
    </g>
    <g clip-path="url(#p476cfad1b0)">
     <use style="fill:#f0f0f0;stroke:#f0f0f0;" x="566.063422" xlink:href="#C0_0_dad7dc3595" y="256.7626"/>
    </g>
    <g clip-path="url(#p476cfad1b0)">
     <use style="fill:#f0f0f0;stroke:#f0f0f0;" x="429.885059" xlink:href="#C0_0_dad7dc3595" y="60.805398"/>
    </g>
    <g clip-path="url(#p476cfad1b0)">
     <use style="fill:#e3e3e3;stroke:#e3e3e3;" x="373.129771" xlink:href="#C0_0_dad7dc3595" y="81.084013"/>
    </g>
    <g clip-path="url(#p476cfad1b0)">
     <use style="fill:#e3e3e3;stroke:#e3e3e3;" x="606.126677" xlink:href="#C0_0_dad7dc3595" y="235.643134"/>
    </g>
    <g clip-path="url(#p476cfad1b0)">
     <use style="fill:#e3e3e3;stroke:#e3e3e3;" x="438.793573" xlink:href="#C0_0_dad7dc3595" y="287.106432"/>
    </g>
    <g clip-path="url(#p476cfad1b0)">
     <use style="fill:#5f5f5f;stroke:#5f5f5f;" x="340.657567" xlink:href="#C0_0_dad7dc3595" y="195.882134"/>
    </g>
    <g clip-path="url(#p476cfad1b0)">
     <use style="fill:#efefef;stroke:#efefef;" x="165.703678" xlink:href="#C0_0_dad7dc3595" y="380.313085"/>
    </g>
    <g clip-path="url(#p476cfad1b0)">
     <use style="fill:#efefef;stroke:#efefef;" x="94.756197" xlink:href="#C0_0_dad7dc3595" y="278.031223"/>
    </g>
    <g clip-path="url(#p476cfad1b0)">
     <use style="fill:#efefef;stroke:#efefef;" x="589.635352" xlink:href="#C0_0_dad7dc3595" y="137.727693"/>
    </g>
   </g>
   <g id="text_1">
    <g clip-path="url(#p476cfad1b0)">
     <!-- CCND1 -->
     <g transform="translate(111.634602 247.328972)scale(0.1 -0.1)">
      <defs>
       <path d="M 64.40625 67.28125 
L 64.40625 56.890625 
Q 59.421875 61.53125 53.78125 63.8125 
Q 48.140625 66.109375 41.796875 66.109375 
Q 29.296875 66.109375 22.65625 58.46875 
Q 16.015625 50.828125 16.015625 36.375 
Q 16.015625 21.96875 22.65625 14.328125 
Q 29.296875 6.6875 41.796875 6.6875 
Q 48.140625 6.6875 53.78125 8.984375 
Q 59.421875 11.28125 64.40625 15.921875 
L 64.40625 5.609375 
Q 59.234375 2.09375 53.4375 0.328125 
Q 47.65625 -1.421875 41.21875 -1.421875 
Q 24.65625 -1.421875 15.125 8.703125 
Q 5.609375 18.84375 5.609375 36.375 
Q 5.609375 53.953125 15.125 64.078125 
Q 24.65625 74.21875 41.21875 74.21875 
Q 47.75 74.21875 53.53125 72.484375 
Q 59.328125 70.75 64.40625 67.28125 
z
" id="DejaVuSans-67"/>
       <path d="M 9.8125 72.90625 
L 23.09375 72.90625 
L 55.421875 11.921875 
L 55.421875 72.90625 
L 64.984375 72.90625 
L 64.984375 0 
L 51.703125 0 
L 19.390625 60.984375 
L 19.390625 0 
L 9.8125 0 
z
" id="DejaVuSans-78"/>
       <path d="M 19.671875 64.796875 
L 19.671875 8.109375 
L 31.59375 8.109375 
Q 46.6875 8.109375 53.6875 14.9375 
Q 60.6875 21.78125 60.6875 36.53125 
Q 60.6875 51.171875 53.6875 57.984375 
Q 46.6875 64.796875 31.59375 64.796875 
z
M 9.8125 72.90625 
L 30.078125 72.90625 
Q 51.265625 72.90625 61.171875 64.09375 
Q 71.09375 55.28125 71.09375 36.53125 
Q 71.09375 17.671875 61.125 8.828125 
Q 51.171875 0 30.078125 0 
L 9.8125 0 
z
" id="DejaVuSans-68"/>
       <path d="M 12.40625 8.296875 
L 28.515625 8.296875 
L 28.515625 63.921875 
L 10.984375 60.40625 
L 10.984375 69.390625 
L 28.421875 72.90625 
L 38.28125 72.90625 
L 38.28125 8.296875 
L 54.390625 8.296875 
L 54.390625 0 
L 12.40625 0 
z
" id="DejaVuSans-49"/>
      </defs>
      <use xlink:href="#DejaVuSans-67"/>
      <use x="69.824219" xlink:href="#DejaVuSans-67"/>
      <use x="139.648438" xlink:href="#DejaVuSans-78"/>
      <use x="214.453125" xlink:href="#DejaVuSans-68"/>
      <use x="291.455078" xlink:href="#DejaVuSans-49"/>
     </g>
    </g>
   </g>
   <g id="text_2">
    <g clip-path="url(#p476cfad1b0)">
     <!-- TGFA -->
     <g transform="translate(52.537816 296.486903)scale(0.1 -0.1)">
      <defs>
       <path d="M -0.296875 72.90625 
L 61.375 72.90625 
L 61.375 64.59375 
L 35.5 64.59375 
L 35.5 0 
L 25.59375 0 
L 25.59375 64.59375 
L -0.296875 64.59375 
z
" id="DejaVuSans-84"/>
       <path d="M 59.515625 10.40625 
L 59.515625 29.984375 
L 43.40625 29.984375 
L 43.40625 38.09375 
L 69.28125 38.09375 
L 69.28125 6.78125 
Q 63.578125 2.734375 56.6875 0.65625 
Q 49.8125 -1.421875 42 -1.421875 
Q 24.90625 -1.421875 15.25 8.5625 
Q 5.609375 18.5625 5.609375 36.375 
Q 5.609375 54.25 15.25 64.234375 
Q 24.90625 74.21875 42 74.21875 
Q 49.125 74.21875 55.546875 72.453125 
Q 61.96875 70.703125 67.390625 67.28125 
L 67.390625 56.78125 
Q 61.921875 61.421875 55.765625 63.765625 
Q 49.609375 66.109375 42.828125 66.109375 
Q 29.4375 66.109375 22.71875 58.640625 
Q 16.015625 51.171875 16.015625 36.375 
Q 16.015625 21.625 22.71875 14.15625 
Q 29.4375 6.6875 42.828125 6.6875 
Q 48.046875 6.6875 52.140625 7.59375 
Q 56.25 8.5 59.515625 10.40625 
z
" id="DejaVuSans-71"/>
       <path d="M 9.8125 72.90625 
L 51.703125 72.90625 
L 51.703125 64.59375 
L 19.671875 64.59375 
L 19.671875 43.109375 
L 48.578125 43.109375 
L 48.578125 34.8125 
L 19.671875 34.8125 
L 19.671875 0 
L 9.8125 0 
z
" id="DejaVuSans-70"/>
       <path d="M 34.1875 63.1875 
L 20.796875 26.90625 
L 47.609375 26.90625 
z
M 28.609375 72.90625 
L 39.796875 72.90625 
L 67.578125 0 
L 57.328125 0 
L 50.6875 18.703125 
L 17.828125 18.703125 
L 11.1875 0 
L 0.78125 0 
z
" id="DejaVuSans-65"/>
      </defs>
      <use xlink:href="#DejaVuSans-84"/>
      <use x="61.083984" xlink:href="#DejaVuSans-71"/>
      <use x="138.574219" xlink:href="#DejaVuSans-70"/>
      <use x="186.96875" xlink:href="#DejaVuSans-65"/>
     </g>
    </g>
   </g>
   <g id="text_3">
    <g clip-path="url(#p476cfad1b0)">
     <!-- STK4 -->
     <g transform="translate(537.114178 329.26454)scale(0.1 -0.1)">
      <defs>
       <path d="M 53.515625 70.515625 
L 53.515625 60.890625 
Q 47.90625 63.578125 42.921875 64.890625 
Q 37.9375 66.21875 33.296875 66.21875 
Q 25.25 66.21875 20.875 63.09375 
Q 16.5 59.96875 16.5 54.203125 
Q 16.5 49.359375 19.40625 46.890625 
Q 22.3125 44.4375 30.421875 42.921875 
L 36.375 41.703125 
Q 47.40625 39.59375 52.65625 34.296875 
Q 57.90625 29 57.90625 20.125 
Q 57.90625 9.515625 50.796875 4.046875 
Q 43.703125 -1.421875 29.984375 -1.421875 
Q 24.8125 -1.421875 18.96875 -0.25 
Q 13.140625 0.921875 6.890625 3.21875 
L 6.890625 13.375 
Q 12.890625 10.015625 18.65625 8.296875 
Q 24.421875 6.59375 29.984375 6.59375 
Q 38.421875 6.59375 43.015625 9.90625 
Q 47.609375 13.234375 47.609375 19.390625 
Q 47.609375 24.75 44.3125 27.78125 
Q 41.015625 30.8125 33.5 32.328125 
L 27.484375 33.5 
Q 16.453125 35.6875 11.515625 40.375 
Q 6.59375 45.0625 6.59375 53.421875 
Q 6.59375 63.09375 13.40625 68.65625 
Q 20.21875 74.21875 32.171875 74.21875 
Q 37.3125 74.21875 42.625 73.28125 
Q 47.953125 72.359375 53.515625 70.515625 
z
" id="DejaVuSans-83"/>
       <path d="M 9.8125 72.90625 
L 19.671875 72.90625 
L 19.671875 42.09375 
L 52.390625 72.90625 
L 65.09375 72.90625 
L 28.90625 38.921875 
L 67.671875 0 
L 54.6875 0 
L 19.671875 35.109375 
L 19.671875 0 
L 9.8125 0 
z
" id="DejaVuSans-75"/>
       <path d="M 37.796875 64.3125 
L 12.890625 25.390625 
L 37.796875 25.390625 
z
M 35.203125 72.90625 
L 47.609375 72.90625 
L 47.609375 25.390625 
L 58.015625 25.390625 
L 58.015625 17.1875 
L 47.609375 17.1875 
L 47.609375 0 
L 37.796875 0 
L 37.796875 17.1875 
L 4.890625 17.1875 
L 4.890625 26.703125 
z
" id="DejaVuSans-52"/>
      </defs>
      <use xlink:href="#DejaVuSans-83"/>
      <use x="63.476562" xlink:href="#DejaVuSans-84"/>
      <use x="124.560547" xlink:href="#DejaVuSans-75"/>
      <use x="190.136719" xlink:href="#DejaVuSans-52"/>
     </g>
    </g>
   </g>
   <g id="text_4">
    <g clip-path="url(#p476cfad1b0)">
     <!-- ERBB2 -->
     <g transform="translate(267.398921 284.034396)scale(0.1 -0.1)">
      <defs>
       <path d="M 9.8125 72.90625 
L 55.90625 72.90625 
L 55.90625 64.59375 
L 19.671875 64.59375 
L 19.671875 43.015625 
L 54.390625 43.015625 
L 54.390625 34.71875 
L 19.671875 34.71875 
L 19.671875 8.296875 
L 56.78125 8.296875 
L 56.78125 0 
L 9.8125 0 
z
" id="DejaVuSans-69"/>
       <path d="M 44.390625 34.1875 
Q 47.5625 33.109375 50.5625 29.59375 
Q 53.5625 26.078125 56.59375 19.921875 
L 66.609375 0 
L 56 0 
L 46.6875 18.703125 
Q 43.0625 26.03125 39.671875 28.421875 
Q 36.28125 30.8125 30.421875 30.8125 
L 19.671875 30.8125 
L 19.671875 0 
L 9.8125 0 
L 9.8125 72.90625 
L 32.078125 72.90625 
Q 44.578125 72.90625 50.734375 67.671875 
Q 56.890625 62.453125 56.890625 51.90625 
Q 56.890625 45.015625 53.6875 40.46875 
Q 50.484375 35.9375 44.390625 34.1875 
z
M 19.671875 64.796875 
L 19.671875 38.921875 
L 32.078125 38.921875 
Q 39.203125 38.921875 42.84375 42.21875 
Q 46.484375 45.515625 46.484375 51.90625 
Q 46.484375 58.296875 42.84375 61.546875 
Q 39.203125 64.796875 32.078125 64.796875 
z
" id="DejaVuSans-82"/>
       <path d="M 19.671875 34.8125 
L 19.671875 8.109375 
L 35.5 8.109375 
Q 43.453125 8.109375 47.28125 11.40625 
Q 51.125 14.703125 51.125 21.484375 
Q 51.125 28.328125 47.28125 31.5625 
Q 43.453125 34.8125 35.5 34.8125 
z
M 19.671875 64.796875 
L 19.671875 42.828125 
L 34.28125 42.828125 
Q 41.5 42.828125 45.03125 45.53125 
Q 48.578125 48.25 48.578125 53.8125 
Q 48.578125 59.328125 45.03125 62.0625 
Q 41.5 64.796875 34.28125 64.796875 
z
M 9.8125 72.90625 
L 35.015625 72.90625 
Q 46.296875 72.90625 52.390625 68.21875 
Q 58.5 63.53125 58.5 54.890625 
Q 58.5 48.1875 55.375 44.234375 
Q 52.25 40.28125 46.1875 39.3125 
Q 53.46875 37.75 57.5 32.78125 
Q 61.53125 27.828125 61.53125 20.40625 
Q 61.53125 10.640625 54.890625 5.3125 
Q 48.25 0 35.984375 0 
L 9.8125 0 
z
" id="DejaVuSans-66"/>
       <path d="M 19.1875 8.296875 
L 53.609375 8.296875 
L 53.609375 0 
L 7.328125 0 
L 7.328125 8.296875 
Q 12.9375 14.109375 22.625 23.890625 
Q 32.328125 33.6875 34.8125 36.53125 
Q 39.546875 41.84375 41.421875 45.53125 
Q 43.3125 49.21875 43.3125 52.78125 
Q 43.3125 58.59375 39.234375 62.25 
Q 35.15625 65.921875 28.609375 65.921875 
Q 23.96875 65.921875 18.8125 64.3125 
Q 13.671875 62.703125 7.8125 59.421875 
L 7.8125 69.390625 
Q 13.765625 71.78125 18.9375 73 
Q 24.125 74.21875 28.421875 74.21875 
Q 39.75 74.21875 46.484375 68.546875 
Q 53.21875 62.890625 53.21875 53.421875 
Q 53.21875 48.921875 51.53125 44.890625 
Q 49.859375 40.875 45.40625 35.40625 
Q 44.1875 33.984375 37.640625 27.21875 
Q 31.109375 20.453125 19.1875 8.296875 
z
" id="DejaVuSans-50"/>
      </defs>
      <use xlink:href="#DejaVuSans-69"/>
      <use x="63.183594" xlink:href="#DejaVuSans-82"/>
      <use x="132.666016" xlink:href="#DejaVuSans-66"/>
      <use x="201.269531" xlink:href="#DejaVuSans-66"/>
      <use x="269.873047" xlink:href="#DejaVuSans-50"/>
     </g>
    </g>
   </g>
   <g id="text_5">
    <g clip-path="url(#p476cfad1b0)">
     <!-- RB1 -->
     <g transform="translate(403.673034 430.110227)scale(0.1 -0.1)">
      <use xlink:href="#DejaVuSans-82"/>
      <use x="69.482422" xlink:href="#DejaVuSans-66"/>
      <use x="138.085938" xlink:href="#DejaVuSans-49"/>
     </g>
    </g>
   </g>
   <g id="text_6">
    <g clip-path="url(#p476cfad1b0)">
     <!-- GRB2 -->
     <g transform="translate(604.734059 216.474597)scale(0.1 -0.1)">
      <use xlink:href="#DejaVuSans-71"/>
      <use x="77.490234" xlink:href="#DejaVuSans-82"/>
      <use x="146.972656" xlink:href="#DejaVuSans-66"/>
      <use x="215.576172" xlink:href="#DejaVuSans-50"/>
     </g>
    </g>
   </g>
   <g id="text_7">
    <g clip-path="url(#p476cfad1b0)">
     <!-- RASSF1 -->
     <g transform="translate(242.691537 199.53113)scale(0.1 -0.1)">
      <use xlink:href="#DejaVuSans-82"/>
      <use x="65.482422" xlink:href="#DejaVuSans-65"/>
      <use x="133.890625" xlink:href="#DejaVuSans-83"/>
      <use x="197.367188" xlink:href="#DejaVuSans-83"/>
      <use x="260.84375" xlink:href="#DejaVuSans-70"/>
      <use x="318.363281" xlink:href="#DejaVuSans-49"/>
     </g>
    </g>
   </g>
   <g id="text_8">
    <g clip-path="url(#p476cfad1b0)">
     <!-- RASSF5 -->
     <g transform="translate(197.995583 265.945691)scale(0.1 -0.1)">
      <defs>
       <path d="M 10.796875 72.90625 
L 49.515625 72.90625 
L 49.515625 64.59375 
L 19.828125 64.59375 
L 19.828125 46.734375 
Q 21.96875 47.46875 24.109375 47.828125 
Q 26.265625 48.1875 28.421875 48.1875 
Q 40.625 48.1875 47.75 41.5 
Q 54.890625 34.8125 54.890625 23.390625 
Q 54.890625 11.625 47.5625 5.09375 
Q 40.234375 -1.421875 26.90625 -1.421875 
Q 22.3125 -1.421875 17.546875 -0.640625 
Q 12.796875 0.140625 7.71875 1.703125 
L 7.71875 11.625 
Q 12.109375 9.234375 16.796875 8.0625 
Q 21.484375 6.890625 26.703125 6.890625 
Q 35.15625 6.890625 40.078125 11.328125 
Q 45.015625 15.765625 45.015625 23.390625 
Q 45.015625 31 40.078125 35.4375 
Q 35.15625 39.890625 26.703125 39.890625 
Q 22.75 39.890625 18.8125 39.015625 
Q 14.890625 38.140625 10.796875 36.28125 
z
" id="DejaVuSans-53"/>
      </defs>
      <use xlink:href="#DejaVuSans-82"/>
      <use x="65.482422" xlink:href="#DejaVuSans-65"/>
      <use x="133.890625" xlink:href="#DejaVuSans-83"/>
      <use x="197.367188" xlink:href="#DejaVuSans-83"/>
      <use x="260.84375" xlink:href="#DejaVuSans-70"/>
      <use x="318.363281" xlink:href="#DejaVuSans-53"/>
     </g>
    </g>
   </g>
   <g id="text_9">
    <g clip-path="url(#p476cfad1b0)">
     <!-- CDKN2A -->
     <g transform="translate(141.298731 348.725226)scale(0.1 -0.1)">
      <use xlink:href="#DejaVuSans-67"/>
      <use x="69.824219" xlink:href="#DejaVuSans-68"/>
      <use x="146.826172" xlink:href="#DejaVuSans-75"/>
      <use x="212.402344" xlink:href="#DejaVuSans-78"/>
      <use x="287.207031" xlink:href="#DejaVuSans-50"/>
      <use x="350.830078" xlink:href="#DejaVuSans-65"/>
     </g>
    </g>
   </g>
   <g id="text_10">
    <g clip-path="url(#p476cfad1b0)">
     <!-- KRAS -->
     <g transform="translate(425.276485 169.830304)scale(0.1 -0.1)">
      <use xlink:href="#DejaVuSans-75"/>
      <use x="65.576172" xlink:href="#DejaVuSans-82"/>
      <use x="131.058594" xlink:href="#DejaVuSans-65"/>
      <use x="199.466797" xlink:href="#DejaVuSans-83"/>
     </g>
    </g>
   </g>
   <g id="text_11">
    <g clip-path="url(#p476cfad1b0)">
     <!-- JAK3 -->
     <g transform="translate(360.385404 329.960249)scale(0.1 -0.1)">
      <defs>
       <path d="M 9.8125 72.90625 
L 19.671875 72.90625 
L 19.671875 5.078125 
Q 19.671875 -8.109375 14.671875 -14.0625 
Q 9.671875 -20.015625 -1.421875 -20.015625 
L -5.171875 -20.015625 
L -5.171875 -11.71875 
L -2.09375 -11.71875 
Q 4.4375 -11.71875 7.125 -8.046875 
Q 9.8125 -4.390625 9.8125 5.078125 
z
" id="DejaVuSans-74"/>
       <path d="M 40.578125 39.3125 
Q 47.65625 37.796875 51.625 33 
Q 55.609375 28.21875 55.609375 21.1875 
Q 55.609375 10.40625 48.1875 4.484375 
Q 40.765625 -1.421875 27.09375 -1.421875 
Q 22.515625 -1.421875 17.65625 -0.515625 
Q 12.796875 0.390625 7.625 2.203125 
L 7.625 11.71875 
Q 11.71875 9.328125 16.59375 8.109375 
Q 21.484375 6.890625 26.8125 6.890625 
Q 36.078125 6.890625 40.9375 10.546875 
Q 45.796875 14.203125 45.796875 21.1875 
Q 45.796875 27.640625 41.28125 31.265625 
Q 36.765625 34.90625 28.71875 34.90625 
L 20.21875 34.90625 
L 20.21875 43.015625 
L 29.109375 43.015625 
Q 36.375 43.015625 40.234375 45.921875 
Q 44.09375 48.828125 44.09375 54.296875 
Q 44.09375 59.90625 40.109375 62.90625 
Q 36.140625 65.921875 28.71875 65.921875 
Q 24.65625 65.921875 20.015625 65.03125 
Q 15.375 64.15625 9.8125 62.3125 
L 9.8125 71.09375 
Q 15.4375 72.65625 20.34375 73.4375 
Q 25.25 74.21875 29.59375 74.21875 
Q 40.828125 74.21875 47.359375 69.109375 
Q 53.90625 64.015625 53.90625 55.328125 
Q 53.90625 49.265625 50.4375 45.09375 
Q 46.96875 40.921875 40.578125 39.3125 
z
" id="DejaVuSans-51"/>
      </defs>
      <use xlink:href="#DejaVuSans-74"/>
      <use x="27.742188" xlink:href="#DejaVuSans-65"/>
      <use x="96.150391" xlink:href="#DejaVuSans-75"/>
      <use x="161.726562" xlink:href="#DejaVuSans-51"/>
     </g>
    </g>
   </g>
   <g id="text_12">
    <g clip-path="url(#p476cfad1b0)">
     <!-- TP53 -->
     <g transform="translate(432.061256 229.396405)scale(0.1 -0.1)">
      <defs>
       <path d="M 19.671875 64.796875 
L 19.671875 37.40625 
L 32.078125 37.40625 
Q 38.96875 37.40625 42.71875 40.96875 
Q 46.484375 44.53125 46.484375 51.125 
Q 46.484375 57.671875 42.71875 61.234375 
Q 38.96875 64.796875 32.078125 64.796875 
z
M 9.8125 72.90625 
L 32.078125 72.90625 
Q 44.34375 72.90625 50.609375 67.359375 
Q 56.890625 61.8125 56.890625 51.125 
Q 56.890625 40.328125 50.609375 34.8125 
Q 44.34375 29.296875 32.078125 29.296875 
L 19.671875 29.296875 
L 19.671875 0 
L 9.8125 0 
z
" id="DejaVuSans-80"/>
      </defs>
      <use xlink:href="#DejaVuSans-84"/>
      <use x="61.083984" xlink:href="#DejaVuSans-80"/>
      <use x="121.386719" xlink:href="#DejaVuSans-53"/>
      <use x="185.009766" xlink:href="#DejaVuSans-51"/>
     </g>
    </g>
   </g>
   <g id="text_13">
    <g clip-path="url(#p476cfad1b0)">
     <!-- BAX -->
     <g transform="translate(574.864795 177.61589)scale(0.1 -0.1)">
      <defs>
       <path d="M 6.296875 72.90625 
L 16.890625 72.90625 
L 35.015625 45.796875 
L 53.21875 72.90625 
L 63.8125 72.90625 
L 40.375 37.890625 
L 65.375 0 
L 54.78125 0 
L 34.28125 31 
L 13.625 0 
L 2.984375 0 
L 29 38.921875 
z
" id="DejaVuSans-88"/>
      </defs>
      <use xlink:href="#DejaVuSans-66"/>
      <use x="68.603516" xlink:href="#DejaVuSans-65"/>
      <use x="137.011719" xlink:href="#DejaVuSans-88"/>
     </g>
    </g>
   </g>
   <g id="text_14">
    <g clip-path="url(#p476cfad1b0)">
     <!-- DDB2 -->
     <g transform="translate(510.549108 97.306379)scale(0.1 -0.1)">
      <use xlink:href="#DejaVuSans-68"/>
      <use x="77.001953" xlink:href="#DejaVuSans-68"/>
      <use x="154.003906" xlink:href="#DejaVuSans-66"/>
      <use x="222.607422" xlink:href="#DejaVuSans-50"/>
     </g>
    </g>
   </g>
   <g id="text_15">
    <g clip-path="url(#p476cfad1b0)">
     <!-- POLK -->
     <g transform="translate(143.311594 64.69241)scale(0.1 -0.1)">
      <defs>
       <path d="M 39.40625 66.21875 
Q 28.65625 66.21875 22.328125 58.203125 
Q 16.015625 50.203125 16.015625 36.375 
Q 16.015625 22.609375 22.328125 14.59375 
Q 28.65625 6.59375 39.40625 6.59375 
Q 50.140625 6.59375 56.421875 14.59375 
Q 62.703125 22.609375 62.703125 36.375 
Q 62.703125 50.203125 56.421875 58.203125 
Q 50.140625 66.21875 39.40625 66.21875 
z
M 39.40625 74.21875 
Q 54.734375 74.21875 63.90625 63.9375 
Q 73.09375 53.65625 73.09375 36.375 
Q 73.09375 19.140625 63.90625 8.859375 
Q 54.734375 -1.421875 39.40625 -1.421875 
Q 24.03125 -1.421875 14.8125 8.828125 
Q 5.609375 19.09375 5.609375 36.375 
Q 5.609375 53.65625 14.8125 63.9375 
Q 24.03125 74.21875 39.40625 74.21875 
z
" id="DejaVuSans-79"/>
       <path d="M 9.8125 72.90625 
L 19.671875 72.90625 
L 19.671875 8.296875 
L 55.171875 8.296875 
L 55.171875 0 
L 9.8125 0 
z
" id="DejaVuSans-76"/>
      </defs>
      <use xlink:href="#DejaVuSans-80"/>
      <use x="60.302734" xlink:href="#DejaVuSans-79"/>
      <use x="139.013672" xlink:href="#DejaVuSans-76"/>
      <use x="194.726562" xlink:href="#DejaVuSans-75"/>
     </g>
    </g>
   </g>
   <g id="text_16">
    <g clip-path="url(#p476cfad1b0)">
     <!-- PRKCA -->
     <g transform="translate(410.467741 231.278542)scale(0.1 -0.1)">
      <use xlink:href="#DejaVuSans-80"/>
      <use x="60.302734" xlink:href="#DejaVuSans-82"/>
      <use x="129.785156" xlink:href="#DejaVuSans-75"/>
      <use x="189.861328" xlink:href="#DejaVuSans-67"/>
      <use x="259.685547" xlink:href="#DejaVuSans-65"/>
     </g>
    </g>
   </g>
   <g id="text_17">
    <g clip-path="url(#p476cfad1b0)">
     <!-- PRKCB -->
     <g transform="translate(394.620675 207.008201)scale(0.1 -0.1)">
      <use xlink:href="#DejaVuSans-80"/>
      <use x="60.302734" xlink:href="#DejaVuSans-82"/>
      <use x="129.785156" xlink:href="#DejaVuSans-75"/>
      <use x="189.861328" xlink:href="#DejaVuSans-67"/>
      <use x="259.685547" xlink:href="#DejaVuSans-66"/>
     </g>
    </g>
   </g>
   <g id="text_18">
    <g clip-path="url(#p476cfad1b0)">
     <!-- CDK4 -->
     <g transform="translate(286.556859 424.134023)scale(0.1 -0.1)">
      <use xlink:href="#DejaVuSans-67"/>
      <use x="69.824219" xlink:href="#DejaVuSans-68"/>
      <use x="146.826172" xlink:href="#DejaVuSans-75"/>
      <use x="212.402344" xlink:href="#DejaVuSans-52"/>
     </g>
    </g>
   </g>
   <g id="text_19">
    <g clip-path="url(#p476cfad1b0)">
     <!-- CDK6 -->
     <g transform="translate(253.071908 248.299689)scale(0.1 -0.1)">
      <defs>
       <path d="M 33.015625 40.375 
Q 26.375 40.375 22.484375 35.828125 
Q 18.609375 31.296875 18.609375 23.390625 
Q 18.609375 15.53125 22.484375 10.953125 
Q 26.375 6.390625 33.015625 6.390625 
Q 39.65625 6.390625 43.53125 10.953125 
Q 47.40625 15.53125 47.40625 23.390625 
Q 47.40625 31.296875 43.53125 35.828125 
Q 39.65625 40.375 33.015625 40.375 
z
M 52.59375 71.296875 
L 52.59375 62.3125 
Q 48.875 64.0625 45.09375 64.984375 
Q 41.3125 65.921875 37.59375 65.921875 
Q 27.828125 65.921875 22.671875 59.328125 
Q 17.53125 52.734375 16.796875 39.40625 
Q 19.671875 43.65625 24.015625 45.921875 
Q 28.375 48.1875 33.59375 48.1875 
Q 44.578125 48.1875 50.953125 41.515625 
Q 57.328125 34.859375 57.328125 23.390625 
Q 57.328125 12.15625 50.6875 5.359375 
Q 44.046875 -1.421875 33.015625 -1.421875 
Q 20.359375 -1.421875 13.671875 8.265625 
Q 6.984375 17.96875 6.984375 36.375 
Q 6.984375 53.65625 15.1875 63.9375 
Q 23.390625 74.21875 37.203125 74.21875 
Q 40.921875 74.21875 44.703125 73.484375 
Q 48.484375 72.75 52.59375 71.296875 
z
" id="DejaVuSans-54"/>
      </defs>
      <use xlink:href="#DejaVuSans-67"/>
      <use x="69.824219" xlink:href="#DejaVuSans-68"/>
      <use x="146.826172" xlink:href="#DejaVuSans-75"/>
      <use x="212.402344" xlink:href="#DejaVuSans-54"/>
     </g>
    </g>
   </g>
   <g id="text_20">
    <g clip-path="url(#p476cfad1b0)">
     <!-- E2F3 -->
     <g transform="translate(520.052184 152.670815)scale(0.1 -0.1)">
      <use xlink:href="#DejaVuSans-69"/>
      <use x="63.183594" xlink:href="#DejaVuSans-50"/>
      <use x="126.806641" xlink:href="#DejaVuSans-70"/>
      <use x="184.326172" xlink:href="#DejaVuSans-51"/>
     </g>
    </g>
   </g>
   <g id="text_21">
    <g clip-path="url(#p476cfad1b0)">
     <!-- HRAS -->
     <g transform="translate(347.74558 282.854185)scale(0.1 -0.1)">
      <defs>
       <path d="M 9.8125 72.90625 
L 19.671875 72.90625 
L 19.671875 43.015625 
L 55.515625 43.015625 
L 55.515625 72.90625 
L 65.375 72.90625 
L 65.375 0 
L 55.515625 0 
L 55.515625 34.71875 
L 19.671875 34.71875 
L 19.671875 0 
L 9.8125 0 
z
" id="DejaVuSans-72"/>
      </defs>
      <use xlink:href="#DejaVuSans-72"/>
      <use x="75.195312" xlink:href="#DejaVuSans-82"/>
      <use x="140.677734" xlink:href="#DejaVuSans-65"/>
      <use x="209.085938" xlink:href="#DejaVuSans-83"/>
     </g>
    </g>
   </g>
   <g id="text_22">
    <g clip-path="url(#p476cfad1b0)">
     <!-- NRAS -->
     <g transform="translate(426.982239 140.600277)scale(0.1 -0.1)">
      <use xlink:href="#DejaVuSans-78"/>
      <use x="74.804688" xlink:href="#DejaVuSans-82"/>
      <use x="140.287109" xlink:href="#DejaVuSans-65"/>
      <use x="208.695312" xlink:href="#DejaVuSans-83"/>
     </g>
    </g>
   </g>
   <g id="text_23">
    <g clip-path="url(#p476cfad1b0)">
     <!-- PLCG1 -->
     <g transform="translate(71.031821 181.006515)scale(0.1 -0.1)">
      <use xlink:href="#DejaVuSans-80"/>
      <use x="60.302734" xlink:href="#DejaVuSans-76"/>
      <use x="116.015625" xlink:href="#DejaVuSans-67"/>
      <use x="185.839844" xlink:href="#DejaVuSans-71"/>
      <use x="263.330078" xlink:href="#DejaVuSans-49"/>
     </g>
    </g>
   </g>
   <g id="text_24">
    <g clip-path="url(#p476cfad1b0)">
     <!-- PLCG2 -->
     <g transform="translate(66.214844 353.229022)scale(0.1 -0.1)">
      <use xlink:href="#DejaVuSans-80"/>
      <use x="60.302734" xlink:href="#DejaVuSans-76"/>
      <use x="116.015625" xlink:href="#DejaVuSans-67"/>
      <use x="185.839844" xlink:href="#DejaVuSans-71"/>
      <use x="263.330078" xlink:href="#DejaVuSans-50"/>
     </g>
    </g>
   </g>
   <g id="text_25">
    <g clip-path="url(#p476cfad1b0)">
     <!-- MAP2K1 -->
     <g transform="translate(545.672797 259.521975)scale(0.1 -0.1)">
      <defs>
       <path d="M 9.8125 72.90625 
L 24.515625 72.90625 
L 43.109375 23.296875 
L 61.8125 72.90625 
L 76.515625 72.90625 
L 76.515625 0 
L 66.890625 0 
L 66.890625 64.015625 
L 48.09375 14.015625 
L 38.1875 14.015625 
L 19.390625 64.015625 
L 19.390625 0 
L 9.8125 0 
z
" id="DejaVuSans-77"/>
      </defs>
      <use xlink:href="#DejaVuSans-77"/>
      <use x="86.279297" xlink:href="#DejaVuSans-65"/>
      <use x="154.6875" xlink:href="#DejaVuSans-80"/>
      <use x="214.990234" xlink:href="#DejaVuSans-50"/>
      <use x="278.613281" xlink:href="#DejaVuSans-75"/>
      <use x="344.189453" xlink:href="#DejaVuSans-49"/>
     </g>
    </g>
   </g>
   <g id="text_26">
    <g clip-path="url(#p476cfad1b0)">
     <!-- MAP2K2 -->
     <g transform="translate(409.494434 63.564773)scale(0.1 -0.1)">
      <use xlink:href="#DejaVuSans-77"/>
      <use x="86.279297" xlink:href="#DejaVuSans-65"/>
      <use x="154.6875" xlink:href="#DejaVuSans-80"/>
      <use x="214.990234" xlink:href="#DejaVuSans-50"/>
      <use x="278.613281" xlink:href="#DejaVuSans-75"/>
      <use x="344.189453" xlink:href="#DejaVuSans-50"/>
     </g>
    </g>
   </g>
   <g id="text_27">
    <g clip-path="url(#p476cfad1b0)">
     <!-- BRAF -->
     <g transform="translate(360.12899 83.843388)scale(0.1 -0.1)">
      <use xlink:href="#DejaVuSans-66"/>
      <use x="68.603516" xlink:href="#DejaVuSans-82"/>
      <use x="134.085938" xlink:href="#DejaVuSans-65"/>
      <use x="202.494141" xlink:href="#DejaVuSans-70"/>
     </g>
    </g>
   </g>
   <g id="text_28">
    <g clip-path="url(#p476cfad1b0)">
     <!-- RAF1 -->
     <g transform="translate(593.375115 238.402509)scale(0.1 -0.1)">
      <use xlink:href="#DejaVuSans-82"/>
      <use x="65.482422" xlink:href="#DejaVuSans-65"/>
      <use x="133.890625" xlink:href="#DejaVuSans-70"/>
      <use x="191.410156" xlink:href="#DejaVuSans-49"/>
     </g>
    </g>
   </g>
   <g id="text_29">
    <g clip-path="url(#p476cfad1b0)">
     <!-- ARAF -->
     <g transform="translate(425.802948 289.865807)scale(0.1 -0.1)">
      <use xlink:href="#DejaVuSans-65"/>
      <use x="68.408203" xlink:href="#DejaVuSans-82"/>
      <use x="133.890625" xlink:href="#DejaVuSans-65"/>
      <use x="202.298828" xlink:href="#DejaVuSans-70"/>
     </g>
    </g>
   </g>
   <g id="text_30">
    <g clip-path="url(#p476cfad1b0)">
     <!-- EML4 -->
     <g transform="translate(327.216942 198.641509)scale(0.1 -0.1)">
      <use xlink:href="#DejaVuSans-69"/>
      <use x="63.183594" xlink:href="#DejaVuSans-77"/>
      <use x="149.462891" xlink:href="#DejaVuSans-76"/>
      <use x="205.175781" xlink:href="#DejaVuSans-52"/>
     </g>
    </g>
   </g>
   <g id="text_31">
    <g clip-path="url(#p476cfad1b0)">
     <!-- STAT3 -->
     <g transform="translate(150.595085 383.07246)scale(0.1 -0.1)">
      <use xlink:href="#DejaVuSans-83"/>
      <use x="63.476562" xlink:href="#DejaVuSans-84"/>
      <use x="116.810547" xlink:href="#DejaVuSans-65"/>
      <use x="177.46875" xlink:href="#DejaVuSans-84"/>
      <use x="238.552734" xlink:href="#DejaVuSans-51"/>
     </g>
    </g>
   </g>
   <g id="text_32">
    <g clip-path="url(#p476cfad1b0)">
     <!-- STAT5A -->
     <g transform="translate(76.227291 280.790598)scale(0.1 -0.1)">
      <use xlink:href="#DejaVuSans-83"/>
      <use x="63.476562" xlink:href="#DejaVuSans-84"/>
      <use x="116.810547" xlink:href="#DejaVuSans-65"/>
      <use x="177.46875" xlink:href="#DejaVuSans-84"/>
      <use x="238.552734" xlink:href="#DejaVuSans-53"/>
      <use x="302.175781" xlink:href="#DejaVuSans-65"/>
     </g>
    </g>
   </g>
   <g id="text_33">
    <g clip-path="url(#p476cfad1b0)">
     <!-- STAT5B -->
     <g transform="translate(571.09629 140.487068)scale(0.1 -0.1)">
      <use xlink:href="#DejaVuSans-83"/>
      <use x="63.476562" xlink:href="#DejaVuSans-84"/>
      <use x="116.810547" xlink:href="#DejaVuSans-65"/>
      <use x="177.46875" xlink:href="#DejaVuSans-84"/>
      <use x="238.552734" xlink:href="#DejaVuSans-53"/>
      <use x="302.175781" xlink:href="#DejaVuSans-66"/>
     </g>
    </g>
   </g>
   <g id="text_34">
    <!-- Importance Score for Each Node in the Network -->
    <g transform="translate(198.616875 16.318125)scale(0.12 -0.12)">
     <defs>
      <path d="M 9.8125 72.90625 
L 19.671875 72.90625 
L 19.671875 0 
L 9.8125 0 
z
" id="DejaVuSans-73"/>
      <path d="M 52 44.1875 
Q 55.375 50.25 60.0625 53.125 
Q 64.75 56 71.09375 56 
Q 79.640625 56 84.28125 50.015625 
Q 88.921875 44.046875 88.921875 33.015625 
L 88.921875 0 
L 79.890625 0 
L 79.890625 32.71875 
Q 79.890625 40.578125 77.09375 44.375 
Q 74.3125 48.1875 68.609375 48.1875 
Q 61.625 48.1875 57.5625 43.546875 
Q 53.515625 38.921875 53.515625 30.90625 
L 53.515625 0 
L 44.484375 0 
L 44.484375 32.71875 
Q 44.484375 40.625 41.703125 44.40625 
Q 38.921875 48.1875 33.109375 48.1875 
Q 26.21875 48.1875 22.15625 43.53125 
Q 18.109375 38.875 18.109375 30.90625 
L 18.109375 0 
L 9.078125 0 
L 9.078125 54.6875 
L 18.109375 54.6875 
L 18.109375 46.1875 
Q 21.1875 51.21875 25.484375 53.609375 
Q 29.78125 56 35.6875 56 
Q 41.65625 56 45.828125 52.96875 
Q 50 49.953125 52 44.1875 
z
" id="DejaVuSans-109"/>
      <path d="M 18.109375 8.203125 
L 18.109375 -20.796875 
L 9.078125 -20.796875 
L 9.078125 54.6875 
L 18.109375 54.6875 
L 18.109375 46.390625 
Q 20.953125 51.265625 25.265625 53.625 
Q 29.59375 56 35.59375 56 
Q 45.5625 56 51.78125 48.09375 
Q 58.015625 40.1875 58.015625 27.296875 
Q 58.015625 14.40625 51.78125 6.484375 
Q 45.5625 -1.421875 35.59375 -1.421875 
Q 29.59375 -1.421875 25.265625 0.953125 
Q 20.953125 3.328125 18.109375 8.203125 
z
M 48.6875 27.296875 
Q 48.6875 37.203125 44.609375 42.84375 
Q 40.53125 48.484375 33.40625 48.484375 
Q 26.265625 48.484375 22.1875 42.84375 
Q 18.109375 37.203125 18.109375 27.296875 
Q 18.109375 17.390625 22.1875 11.75 
Q 26.265625 6.109375 33.40625 6.109375 
Q 40.53125 6.109375 44.609375 11.75 
Q 48.6875 17.390625 48.6875 27.296875 
z
" id="DejaVuSans-112"/>
      <path d="M 30.609375 48.390625 
Q 23.390625 48.390625 19.1875 42.75 
Q 14.984375 37.109375 14.984375 27.296875 
Q 14.984375 17.484375 19.15625 11.84375 
Q 23.34375 6.203125 30.609375 6.203125 
Q 37.796875 6.203125 41.984375 11.859375 
Q 46.1875 17.53125 46.1875 27.296875 
Q 46.1875 37.015625 41.984375 42.703125 
Q 37.796875 48.390625 30.609375 48.390625 
z
M 30.609375 56 
Q 42.328125 56 49.015625 48.375 
Q 55.71875 40.765625 55.71875 27.296875 
Q 55.71875 13.875 49.015625 6.21875 
Q 42.328125 -1.421875 30.609375 -1.421875 
Q 18.84375 -1.421875 12.171875 6.21875 
Q 5.515625 13.875 5.515625 27.296875 
Q 5.515625 40.765625 12.171875 48.375 
Q 18.84375 56 30.609375 56 
z
" id="DejaVuSans-111"/>
      <path d="M 41.109375 46.296875 
Q 39.59375 47.171875 37.8125 47.578125 
Q 36.03125 48 33.890625 48 
Q 26.265625 48 22.1875 43.046875 
Q 18.109375 38.09375 18.109375 28.8125 
L 18.109375 0 
L 9.078125 0 
L 9.078125 54.6875 
L 18.109375 54.6875 
L 18.109375 46.1875 
Q 20.953125 51.171875 25.484375 53.578125 
Q 30.03125 56 36.53125 56 
Q 37.453125 56 38.578125 55.875 
Q 39.703125 55.765625 41.0625 55.515625 
z
" id="DejaVuSans-114"/>
      <path d="M 18.3125 70.21875 
L 18.3125 54.6875 
L 36.8125 54.6875 
L 36.8125 47.703125 
L 18.3125 47.703125 
L 18.3125 18.015625 
Q 18.3125 11.328125 20.140625 9.421875 
Q 21.96875 7.515625 27.59375 7.515625 
L 36.8125 7.515625 
L 36.8125 0 
L 27.59375 0 
Q 17.1875 0 13.234375 3.875 
Q 9.28125 7.765625 9.28125 18.015625 
L 9.28125 47.703125 
L 2.6875 47.703125 
L 2.6875 54.6875 
L 9.28125 54.6875 
L 9.28125 70.21875 
z
" id="DejaVuSans-116"/>
      <path d="M 34.28125 27.484375 
Q 23.390625 27.484375 19.1875 25 
Q 14.984375 22.515625 14.984375 16.5 
Q 14.984375 11.71875 18.140625 8.90625 
Q 21.296875 6.109375 26.703125 6.109375 
Q 34.1875 6.109375 38.703125 11.40625 
Q 43.21875 16.703125 43.21875 25.484375 
L 43.21875 27.484375 
z
M 52.203125 31.203125 
L 52.203125 0 
L 43.21875 0 
L 43.21875 8.296875 
Q 40.140625 3.328125 35.546875 0.953125 
Q 30.953125 -1.421875 24.3125 -1.421875 
Q 15.921875 -1.421875 10.953125 3.296875 
Q 6 8.015625 6 15.921875 
Q 6 25.140625 12.171875 29.828125 
Q 18.359375 34.515625 30.609375 34.515625 
L 43.21875 34.515625 
L 43.21875 35.40625 
Q 43.21875 41.609375 39.140625 45 
Q 35.0625 48.390625 27.6875 48.390625 
Q 23 48.390625 18.546875 47.265625 
Q 14.109375 46.140625 10.015625 43.890625 
L 10.015625 52.203125 
Q 14.9375 54.109375 19.578125 55.046875 
Q 24.21875 56 28.609375 56 
Q 40.484375 56 46.34375 49.84375 
Q 52.203125 43.703125 52.203125 31.203125 
z
" id="DejaVuSans-97"/>
      <path d="M 54.890625 33.015625 
L 54.890625 0 
L 45.90625 0 
L 45.90625 32.71875 
Q 45.90625 40.484375 42.875 44.328125 
Q 39.84375 48.1875 33.796875 48.1875 
Q 26.515625 48.1875 22.3125 43.546875 
Q 18.109375 38.921875 18.109375 30.90625 
L 18.109375 0 
L 9.078125 0 
L 9.078125 54.6875 
L 18.109375 54.6875 
L 18.109375 46.1875 
Q 21.34375 51.125 25.703125 53.5625 
Q 30.078125 56 35.796875 56 
Q 45.21875 56 50.046875 50.171875 
Q 54.890625 44.34375 54.890625 33.015625 
z
" id="DejaVuSans-110"/>
      <path d="M 48.78125 52.59375 
L 48.78125 44.1875 
Q 44.96875 46.296875 41.140625 47.34375 
Q 37.3125 48.390625 33.40625 48.390625 
Q 24.65625 48.390625 19.8125 42.84375 
Q 14.984375 37.3125 14.984375 27.296875 
Q 14.984375 17.28125 19.8125 11.734375 
Q 24.65625 6.203125 33.40625 6.203125 
Q 37.3125 6.203125 41.140625 7.25 
Q 44.96875 8.296875 48.78125 10.40625 
L 48.78125 2.09375 
Q 45.015625 0.34375 40.984375 -0.53125 
Q 36.96875 -1.421875 32.421875 -1.421875 
Q 20.0625 -1.421875 12.78125 6.34375 
Q 5.515625 14.109375 5.515625 27.296875 
Q 5.515625 40.671875 12.859375 48.328125 
Q 20.21875 56 33.015625 56 
Q 37.15625 56 41.109375 55.140625 
Q 45.0625 54.296875 48.78125 52.59375 
z
" id="DejaVuSans-99"/>
      <path d="M 56.203125 29.59375 
L 56.203125 25.203125 
L 14.890625 25.203125 
Q 15.484375 15.921875 20.484375 11.0625 
Q 25.484375 6.203125 34.421875 6.203125 
Q 39.59375 6.203125 44.453125 7.46875 
Q 49.3125 8.734375 54.109375 11.28125 
L 54.109375 2.78125 
Q 49.265625 0.734375 44.1875 -0.34375 
Q 39.109375 -1.421875 33.890625 -1.421875 
Q 20.796875 -1.421875 13.15625 6.1875 
Q 5.515625 13.8125 5.515625 26.8125 
Q 5.515625 40.234375 12.765625 48.109375 
Q 20.015625 56 32.328125 56 
Q 43.359375 56 49.78125 48.890625 
Q 56.203125 41.796875 56.203125 29.59375 
z
M 47.21875 32.234375 
Q 47.125 39.59375 43.09375 43.984375 
Q 39.0625 48.390625 32.421875 48.390625 
Q 24.90625 48.390625 20.390625 44.140625 
Q 15.875 39.890625 15.1875 32.171875 
z
" id="DejaVuSans-101"/>
      <path id="DejaVuSans-32"/>
      <path d="M 37.109375 75.984375 
L 37.109375 68.5 
L 28.515625 68.5 
Q 23.6875 68.5 21.796875 66.546875 
Q 19.921875 64.59375 19.921875 59.515625 
L 19.921875 54.6875 
L 34.71875 54.6875 
L 34.71875 47.703125 
L 19.921875 47.703125 
L 19.921875 0 
L 10.890625 0 
L 10.890625 47.703125 
L 2.296875 47.703125 
L 2.296875 54.6875 
L 10.890625 54.6875 
L 10.890625 58.5 
Q 10.890625 67.625 15.140625 71.796875 
Q 19.390625 75.984375 28.609375 75.984375 
z
" id="DejaVuSans-102"/>
      <path d="M 54.890625 33.015625 
L 54.890625 0 
L 45.90625 0 
L 45.90625 32.71875 
Q 45.90625 40.484375 42.875 44.328125 
Q 39.84375 48.1875 33.796875 48.1875 
Q 26.515625 48.1875 22.3125 43.546875 
Q 18.109375 38.921875 18.109375 30.90625 
L 18.109375 0 
L 9.078125 0 
L 9.078125 75.984375 
L 18.109375 75.984375 
L 18.109375 46.1875 
Q 21.34375 51.125 25.703125 53.5625 
Q 30.078125 56 35.796875 56 
Q 45.21875 56 50.046875 50.171875 
Q 54.890625 44.34375 54.890625 33.015625 
z
" id="DejaVuSans-104"/>
      <path d="M 45.40625 46.390625 
L 45.40625 75.984375 
L 54.390625 75.984375 
L 54.390625 0 
L 45.40625 0 
L 45.40625 8.203125 
Q 42.578125 3.328125 38.25 0.953125 
Q 33.9375 -1.421875 27.875 -1.421875 
Q 17.96875 -1.421875 11.734375 6.484375 
Q 5.515625 14.40625 5.515625 27.296875 
Q 5.515625 40.1875 11.734375 48.09375 
Q 17.96875 56 27.875 56 
Q 33.9375 56 38.25 53.625 
Q 42.578125 51.265625 45.40625 46.390625 
z
M 14.796875 27.296875 
Q 14.796875 17.390625 18.875 11.75 
Q 22.953125 6.109375 30.078125 6.109375 
Q 37.203125 6.109375 41.296875 11.75 
Q 45.40625 17.390625 45.40625 27.296875 
Q 45.40625 37.203125 41.296875 42.84375 
Q 37.203125 48.484375 30.078125 48.484375 
Q 22.953125 48.484375 18.875 42.84375 
Q 14.796875 37.203125 14.796875 27.296875 
z
" id="DejaVuSans-100"/>
      <path d="M 9.421875 54.6875 
L 18.40625 54.6875 
L 18.40625 0 
L 9.421875 0 
z
M 9.421875 75.984375 
L 18.40625 75.984375 
L 18.40625 64.59375 
L 9.421875 64.59375 
z
" id="DejaVuSans-105"/>
      <path d="M 4.203125 54.6875 
L 13.1875 54.6875 
L 24.421875 12.015625 
L 35.59375 54.6875 
L 46.1875 54.6875 
L 57.421875 12.015625 
L 68.609375 54.6875 
L 77.59375 54.6875 
L 63.28125 0 
L 52.6875 0 
L 40.921875 44.828125 
L 29.109375 0 
L 18.5 0 
z
" id="DejaVuSans-119"/>
      <path d="M 9.078125 75.984375 
L 18.109375 75.984375 
L 18.109375 31.109375 
L 44.921875 54.6875 
L 56.390625 54.6875 
L 27.390625 29.109375 
L 57.625 0 
L 45.90625 0 
L 18.109375 26.703125 
L 18.109375 0 
L 9.078125 0 
z
" id="DejaVuSans-107"/>
     </defs>
     <use xlink:href="#DejaVuSans-73"/>
     <use x="29.492188" xlink:href="#DejaVuSans-109"/>
     <use x="126.904297" xlink:href="#DejaVuSans-112"/>
     <use x="190.380859" xlink:href="#DejaVuSans-111"/>
     <use x="251.5625" xlink:href="#DejaVuSans-114"/>
     <use x="292.675781" xlink:href="#DejaVuSans-116"/>
     <use x="331.884766" xlink:href="#DejaVuSans-97"/>
     <use x="393.164062" xlink:href="#DejaVuSans-110"/>
     <use x="456.542969" xlink:href="#DejaVuSans-99"/>
     <use x="511.523438" xlink:href="#DejaVuSans-101"/>
     <use x="573.046875" xlink:href="#DejaVuSans-32"/>
     <use x="604.833984" xlink:href="#DejaVuSans-83"/>
     <use x="668.310547" xlink:href="#DejaVuSans-99"/>
     <use x="723.291016" xlink:href="#DejaVuSans-111"/>
     <use x="784.472656" xlink:href="#DejaVuSans-114"/>
     <use x="823.335938" xlink:href="#DejaVuSans-101"/>
     <use x="884.859375" xlink:href="#DejaVuSans-32"/>
     <use x="916.646484" xlink:href="#DejaVuSans-102"/>
     <use x="951.851562" xlink:href="#DejaVuSans-111"/>
     <use x="1013.033203" xlink:href="#DejaVuSans-114"/>
     <use x="1054.146484" xlink:href="#DejaVuSans-32"/>
     <use x="1085.933594" xlink:href="#DejaVuSans-69"/>
     <use x="1149.117188" xlink:href="#DejaVuSans-97"/>
     <use x="1210.396484" xlink:href="#DejaVuSans-99"/>
     <use x="1265.376953" xlink:href="#DejaVuSans-104"/>
     <use x="1328.755859" xlink:href="#DejaVuSans-32"/>
     <use x="1360.542969" xlink:href="#DejaVuSans-78"/>
     <use x="1435.347656" xlink:href="#DejaVuSans-111"/>
     <use x="1496.529297" xlink:href="#DejaVuSans-100"/>
     <use x="1560.005859" xlink:href="#DejaVuSans-101"/>
     <use x="1621.529297" xlink:href="#DejaVuSans-32"/>
     <use x="1653.316406" xlink:href="#DejaVuSans-105"/>
     <use x="1681.099609" xlink:href="#DejaVuSans-110"/>
     <use x="1744.478516" xlink:href="#DejaVuSans-32"/>
     <use x="1776.265625" xlink:href="#DejaVuSans-116"/>
     <use x="1815.474609" xlink:href="#DejaVuSans-104"/>
     <use x="1878.853516" xlink:href="#DejaVuSans-101"/>
     <use x="1940.376953" xlink:href="#DejaVuSans-32"/>
     <use x="1972.164062" xlink:href="#DejaVuSans-78"/>
     <use x="2046.96875" xlink:href="#DejaVuSans-101"/>
     <use x="2108.492188" xlink:href="#DejaVuSans-116"/>
     <use x="2147.701172" xlink:href="#DejaVuSans-119"/>
     <use x="2229.488281" xlink:href="#DejaVuSans-111"/>
     <use x="2290.669922" xlink:href="#DejaVuSans-114"/>
     <use x="2331.783203" xlink:href="#DejaVuSans-107"/>
    </g>
   </g>
  </g>
 </g>
 <defs>
  <clipPath id="p476cfad1b0">
   <rect height="443.52" width="669.6" x="7.2" y="22.318125"/>
  </clipPath>
 </defs>
</svg>
