<?xml version="1.0" encoding="utf-8" standalone="no"?>
<!DOCTYPE svg PUBLIC "-//W3C//DTD SVG 1.1//EN"
  "http://www.w3.org/Graphics/SVG/1.1/DTD/svg11.dtd">
<!-- Created with matplotlib (https://matplotlib.org/) -->
<svg height="576pt" version="1.1" viewBox="0 0 864 576" width="864pt" xmlns="http://www.w3.org/2000/svg" xmlns:xlink="http://www.w3.org/1999/xlink">
 <metadata>
  <rdf:RDF xmlns:cc="http://creativecommons.org/ns#" xmlns:dc="http://purl.org/dc/elements/1.1/" xmlns:rdf="http://www.w3.org/1999/02/22-rdf-syntax-ns#">
   <cc:Work>
    <dc:type rdf:resource="http://purl.org/dc/dcmitype/StillImage"/>
    <dc:date>2024-04-04T21:03:47.496863</dc:date>
    <dc:format>image/svg+xml</dc:format>
    <dc:creator>
     <cc:Agent>
      <dc:title>Matplotlib v3.3.1, https://matplotlib.org/</dc:title>
     </cc:Agent>
    </dc:creator>
   </cc:Work>
  </rdf:RDF>
 </metadata>
 <defs>
  <style type="text/css">*{stroke-linecap:butt;stroke-linejoin:round;}</style>
 </defs>
 <g id="figure_1">
  <g id="patch_1">
   <path d="M 0 576 
L 864 576 
L 864 0 
L 0 0 
z
" style="fill:#ffffff;"/>
  </g>
  <g id="axes_1">
   <g id="patch_2">
    <path clip-path="url(#p59dcead0c1)" d="M 519.227294 255.485459 
Q 491.506801 287.329481 464.520392 318.330223 
" style="fill:none;stroke:#000000;stroke-linecap:round;"/>
    <path clip-path="url(#p59dcead0c1)" d="M 468.655233 316.626378 
L 464.520392 318.330223 
L 465.638221 314.000043 
L 468.655233 316.626378 
z
" style="stroke:#000000;stroke-linecap:round;"/>
   </g>
   <g id="patch_3">
    <path clip-path="url(#p59dcead0c1)" d="M 375.59274 279.949665 
Q 413.059939 300.729083 449.549405 320.966247 
" style="fill:none;stroke:#000000;stroke-linecap:round;"/>
    <path clip-path="url(#p59dcead0c1)" d="M 447.021375 317.277201 
L 449.549405 320.966247 
L 445.08135 320.775244 
L 447.021375 317.277201 
z
" style="stroke:#000000;stroke-linecap:round;"/>
   </g>
   <g id="patch_4">
    <path clip-path="url(#p59dcead0c1)" d="M 459.637783 323.36479 
Q 585.345156 294.702857 709.96247 266.289464 
" style="fill:none;stroke:#000000;stroke-linecap:round;"/>
    <path clip-path="url(#p59dcead0c1)" d="M 705.617957 265.228708 
L 709.96247 266.289464 
L 706.507157 269.128621 
L 705.617957 265.228708 
z
" style="stroke:#000000;stroke-linecap:round;"/>
   </g>
   <g id="patch_5">
    <path clip-path="url(#p59dcead0c1)" d="M 445.45312 331.77646 
Q 392.408032 391.727753 340.103811 450.841721 
" style="fill:none;stroke:#000000;stroke-linecap:round;"/>
    <path clip-path="url(#p59dcead0c1)" d="M 344.252276 449.171319 
L 340.103811 450.841721 
L 341.256568 446.520708 
L 344.252276 449.171319 
z
" style="stroke:#000000;stroke-linecap:round;"/>
   </g>
   <g id="patch_6">
    <path clip-path="url(#p59dcead0c1)" d="M 458.458445 330.004739 
Q 533.045874 378.394329 606.695366 426.175418 
" style="fill:none;stroke:#000000;stroke-linecap:round;"/>
    <path clip-path="url(#p59dcead0c1)" d="M 604.428214 422.320548 
L 606.695366 426.175418 
L 602.251179 425.676218 
L 604.428214 422.320548 
z
" style="stroke:#000000;stroke-linecap:round;"/>
   </g>
   <g id="patch_7">
    <path clip-path="url(#p59dcead0c1)" d="M 449.512153 333.790283 
Q 436.481903 399.724393 423.668413 464.561683 
" style="fill:none;stroke:#000000;stroke-linecap:round;"/>
    <path clip-path="url(#p59dcead0c1)" d="M 426.405968 461.02533 
L 423.668413 464.561683 
L 422.481864 460.249827 
L 426.405968 461.02533 
z
" style="stroke:#000000;stroke-linecap:round;"/>
   </g>
   <g id="patch_8">
    <path clip-path="url(#p59dcead0c1)" d="M 444.198006 330.399936 
Q 373.31966 382.180487 303.344097 433.301506 
" style="fill:none;stroke:#000000;stroke-linecap:round;"/>
    <path clip-path="url(#p59dcead0c1)" d="M 307.753799 432.556837 
L 303.344097 433.301506 
L 305.394183 429.326943 
L 307.753799 432.556837 
z
" style="stroke:#000000;stroke-linecap:round;"/>
   </g>
   <g id="patch_9">
    <path clip-path="url(#p59dcead0c1)" d="M 443.078816 322.270458 
Q 324.053636 277.964425 206.076251 234.048424 
" style="fill:none;stroke:#000000;stroke-linecap:round;"/>
    <path clip-path="url(#p59dcead0c1)" d="M 209.127247 237.318198 
L 206.076251 234.048424 
L 210.522668 233.569492 
L 209.127247 237.318198 
z
" style="stroke:#000000;stroke-linecap:round;"/>
   </g>
   <g id="patch_10">
    <path clip-path="url(#p59dcead0c1)" d="M 445.903543 318.432522 
Q 411.31815 273.582251 377.415491 229.617347 
" style="fill:none;stroke:#000000;stroke-linecap:round;"/>
    <path clip-path="url(#p59dcead0c1)" d="M 378.274318 234.006243 
L 377.415491 229.617347 
L 381.441905 231.563622 
L 378.274318 234.006243 
z
" style="stroke:#000000;stroke-linecap:round;"/>
   </g>
   <g id="patch_11">
    <path clip-path="url(#p59dcead0c1)" d="M 455.439791 317.74457 
Q 507.115801 225.947132 558.243361 135.123964 
" style="fill:none;stroke:#000000;stroke-linecap:round;"/>
    <path clip-path="url(#p59dcead0c1)" d="M 554.538337 137.628519 
L 558.243361 135.123964 
L 558.023991 139.590716 
L 554.538337 137.628519 
z
" style="stroke:#000000;stroke-linecap:round;"/>
   </g>
   <g id="patch_12">
    <path clip-path="url(#p59dcead0c1)" d="M 451.839336 333.930611 
Q 456.384144 394.584286 460.845412 454.123052 
" style="fill:none;stroke:#000000;stroke-linecap:round;"/>
    <path clip-path="url(#p59dcead0c1)" d="M 462.540937 449.984792 
L 460.845412 454.123052 
L 458.552119 450.283676 
L 462.540937 449.984792 
z
" style="stroke:#000000;stroke-linecap:round;"/>
   </g>
   <g id="patch_13">
    <path clip-path="url(#p59dcead0c1)" d="M 442.719281 327.069214 
Q 325.284146 351.723242 208.943193 376.14756 
" style="fill:none;stroke:#000000;stroke-linecap:round;"/>
    <path clip-path="url(#p59dcead0c1)" d="M 213.268773 377.283057 
L 208.943193 376.14756 
L 212.446939 373.368394 
L 213.268773 377.283057 
z
" style="stroke:#000000;stroke-linecap:round;"/>
   </g>
   <g id="patch_14">
    <path clip-path="url(#p59dcead0c1)" d="M 457.375987 331.356562 
Q 517.697002 390.526705 577.219871 448.913928 
" style="fill:none;stroke:#000000;stroke-linecap:round;"/>
    <path clip-path="url(#p59dcead0c1)" d="M 575.764862 444.685105 
L 577.219871 448.913928 
L 572.963807 447.540641 
L 575.764862 444.685105 
z
" style="stroke:#000000;stroke-linecap:round;"/>
   </g>
   <g id="patch_15">
    <path clip-path="url(#p59dcead0c1)" d="M 459.546026 327.586537 
Q 569.749052 357.874841 678.87402 387.86685 
" style="fill:none;stroke:#000000;stroke-linecap:round;"/>
    <path clip-path="url(#p59dcead0c1)" d="M 675.54707 384.878306 
L 678.87402 387.86685 
L 674.487014 388.735284 
L 675.54707 384.878306 
z
" style="stroke:#000000;stroke-linecap:round;"/>
   </g>
   <g id="patch_16">
    <path clip-path="url(#p59dcead0c1)" d="M 453.208308 316.870278 
Q 477.256137 216.448878 501.043593 117.11477 
" style="fill:none;stroke:#000000;stroke-linecap:round;"/>
    <path clip-path="url(#p59dcead0c1)" d="M 498.167045 120.539018 
L 501.043593 117.11477 
L 502.057062 121.470557 
L 498.167045 120.539018 
z
" style="stroke:#000000;stroke-linecap:round;"/>
   </g>
   <g id="patch_17">
    <path clip-path="url(#p59dcead0c1)" d="M 458.935083 321.421066 
Q 576.982906 262.430007 694.030618 203.938726 
" style="fill:none;stroke:#000000;stroke-linecap:round;"/>
    <path clip-path="url(#p59dcead0c1)" d="M 689.558482 203.93773 
L 694.030618 203.938726 
L 691.34654 207.515837 
L 689.558482 203.93773 
z
" style="stroke:#000000;stroke-linecap:round;"/>
   </g>
   <g id="patch_18">
    <path clip-path="url(#p59dcead0c1)" d="M 457.04387 318.9113 
Q 531.056358 238.230452 604.313058 158.373487 
" style="fill:none;stroke:#000000;stroke-linecap:round;"/>
    <path clip-path="url(#p59dcead0c1)" d="M 600.135259 159.969106 
L 604.313058 158.373487 
L 603.082874 162.673097 
L 600.135259 159.969106 
z
" style="stroke:#000000;stroke-linecap:round;"/>
   </g>
   <g id="patch_19">
    <path clip-path="url(#p59dcead0c1)" d="M 448.950142 316.926166 
Q 437.772543 275.221452 426.884383 234.596657 
" style="fill:none;stroke:#000000;stroke-linecap:round;"/>
    <path clip-path="url(#p59dcead0c1)" d="M 425.988087 238.978055 
L 426.884383 234.596657 
L 429.851724 237.942533 
L 425.988087 238.978055 
z
" style="stroke:#000000;stroke-linecap:round;"/>
   </g>
   <g id="patch_20">
    <path clip-path="url(#p59dcead0c1)" d="M 443.028246 328.178563 
Q 340.880885 364.315344 239.787545 400.079243 
" style="fill:none;stroke:#000000;stroke-linecap:round;"/>
    <path clip-path="url(#p59dcead0c1)" d="M 244.225555 400.630669 
L 239.787545 400.079243 
L 242.891492 396.859691 
L 244.225555 400.630669 
z
" style="stroke:#000000;stroke-linecap:round;"/>
   </g>
   <g id="patch_21">
    <path clip-path="url(#p59dcead0c1)" d="M 442.587429 326.257552 
Q 329.18666 339.002715 216.89693 351.623007 
" style="fill:none;stroke:#000000;stroke-linecap:round;"/>
    <path clip-path="url(#p59dcead0c1)" d="M 221.095278 353.163745 
L 216.89693 351.623007 
L 220.648529 349.188771 
L 221.095278 353.163745 
z
" style="stroke:#000000;stroke-linecap:round;"/>
   </g>
   <g id="patch_22">
    <path clip-path="url(#p59dcead0c1)" d="M 443.521316 329.308768 
Q 351.569658 377.477997 260.608373 425.128415 
" style="fill:none;stroke:#000000;stroke-linecap:round;"/>
    <path clip-path="url(#p59dcead0c1)" d="M 265.07971 425.043895 
L 260.608373 425.128415 
L 263.223559 421.500633 
L 265.07971 425.043895 
z
" style="stroke:#000000;stroke-linecap:round;"/>
   </g>
   <g id="patch_23">
    <path clip-path="url(#p59dcead0c1)" d="M 447.07841 332.910238 
Q 415.094684 392.155868 383.642077 450.417671 
" style="fill:none;stroke:#000000;stroke-linecap:round;"/>
    <path clip-path="url(#p59dcead0c1)" d="M 387.302184 447.847921 
L 383.642077 450.417671 
L 383.782341 445.947735 
L 387.302184 447.847921 
z
" style="stroke:#000000;stroke-linecap:round;"/>
   </g>
   <g id="patch_24">
    <path clip-path="url(#p59dcead0c1)" d="M 459.2806 322.187828 
Q 574.644394 277.936478 688.964313 234.085538 
" style="fill:none;stroke:#000000;stroke-linecap:round;"/>
    <path clip-path="url(#p59dcead0c1)" d="M 684.513363 233.65075 
L 688.964313 234.085538 
L 685.945913 237.385426 
L 684.513363 233.65075 
z
" style="stroke:#000000;stroke-linecap:round;"/>
   </g>
   <g id="patch_25">
    <path clip-path="url(#p59dcead0c1)" d="M 454.474896 333.30845 
Q 479.910861 395.430442 504.923181 456.517772 
" style="fill:none;stroke:#000000;stroke-linecap:round;"/>
    <path clip-path="url(#p59dcead0c1)" d="M 505.258365 452.058215 
L 504.923181 456.517772 
L 501.556645 453.573891 
L 505.258365 452.058215 
z
" style="stroke:#000000;stroke-linecap:round;"/>
   </g>
   <g id="patch_26">
    <path clip-path="url(#p59dcead0c1)" d="M 459.133694 328.741112 
Q 552.25336 369.200733 644.347601 409.214816 
" style="fill:none;stroke:#000000;stroke-linecap:round;"/>
    <path clip-path="url(#p59dcead0c1)" d="M 641.475931 405.786477 
L 644.347601 409.214816 
L 639.881927 409.455148 
L 641.475931 405.786477 
z
" style="stroke:#000000;stroke-linecap:round;"/>
   </g>
   <g id="patch_27">
    <path clip-path="url(#p59dcead0c1)" d="M 442.739113 323.414261 
Q 312.772226 294.566177 183.896809 265.96036 
" style="fill:none;stroke:#000000;stroke-linecap:round;"/>
    <path clip-path="url(#p59dcead0c1)" d="M 187.368387 268.779605 
L 183.896809 265.96036 
L 188.235152 264.874644 
L 187.368387 268.779605 
z
" style="stroke:#000000;stroke-linecap:round;"/>
   </g>
   <g id="patch_28">
    <path clip-path="url(#p59dcead0c1)" d="M 462.803049 319.724723 
Q 586.916533 292.837275 709.937331 266.186542 
" style="fill:none;stroke:#000000;stroke-linecap:round;"/>
    <path clip-path="url(#p59dcead0c1)" d="M 705.604564 265.078782 
L 709.937331 266.186542 
L 706.451463 268.988099 
L 705.604564 265.078782 
z
" style="stroke:#000000;stroke-linecap:round;"/>
   </g>
   <g id="patch_29">
    <path clip-path="url(#p59dcead0c1)" d="M 448.608892 328.04638 
Q 393.984425 389.860324 340.100303 450.83648 
" style="fill:none;stroke:#000000;stroke-linecap:round;"/>
    <path clip-path="url(#p59dcead0c1)" d="M 344.247725 449.163492 
L 340.100303 450.83648 
L 341.250365 446.51475 
L 344.247725 449.163492 
z
" style="stroke:#000000;stroke-linecap:round;"/>
   </g>
   <g id="patch_30">
    <path clip-path="url(#p59dcead0c1)" d="M 461.489346 326.450824 
Q 534.619987 376.526848 606.828137 425.971199 
" style="fill:none;stroke:#000000;stroke-linecap:round;"/>
    <path clip-path="url(#p59dcead0c1)" d="M 604.657706 422.061055 
L 606.828137 425.971199 
L 602.397763 425.361458 
L 604.657706 422.061055 
z
" style="stroke:#000000;stroke-linecap:round;"/>
   </g>
   <g id="patch_31">
    <path clip-path="url(#p59dcead0c1)" d="M 452.535088 330.028241 
Q 438.057615 397.857091 423.813519 464.592536 
" style="fill:none;stroke:#000000;stroke-linecap:round;"/>
    <path clip-path="url(#p59dcead0c1)" d="M 426.604419 461.09813 
L 423.813519 464.592536 
L 422.692534 460.263172 
L 426.604419 461.09813 
z
" style="stroke:#000000;stroke-linecap:round;"/>
   </g>
   <g id="patch_32">
    <path clip-path="url(#p59dcead0c1)" d="M 447.38224 326.705434 
Q 374.896212 380.31326 303.309094 433.256287 
" style="fill:none;stroke:#000000;stroke-linecap:round;"/>
    <path clip-path="url(#p59dcead0c1)" d="M 307.714367 432.485849 
L 303.309094 433.256287 
L 305.335908 429.269806 
L 307.714367 432.485849 
z
" style="stroke:#000000;stroke-linecap:round;"/>
   </g>
   <g id="patch_33">
    <path clip-path="url(#p59dcead0c1)" d="M 446.176587 318.673176 
Q 325.626971 276.097071 206.131569 233.893298 
" style="fill:none;stroke:#000000;stroke-linecap:round;"/>
    <path clip-path="url(#p59dcead0c1)" d="M 209.237198 237.111228 
L 206.131569 233.893298 
L 210.56929 233.339553 
L 209.237198 237.111228 
z
" style="stroke:#000000;stroke-linecap:round;"/>
   </g>
   <g id="patch_34">
    <path clip-path="url(#p59dcead0c1)" d="M 448.805272 314.898368 
Q 412.893295 271.715235 377.696196 229.391724 
" style="fill:none;stroke:#000000;stroke-linecap:round;"/>
    <path clip-path="url(#p59dcead0c1)" d="M 378.716086 233.746012 
L 377.696196 229.391724 
L 381.79156 231.188385 
L 378.716086 233.746012 
z
" style="stroke:#000000;stroke-linecap:round;"/>
   </g>
   <g id="patch_35">
    <path clip-path="url(#p59dcead0c1)" d="M 458.560851 313.992675 
Q 508.6917 224.080053 558.278096 135.14394 
" style="fill:none;stroke:#000000;stroke-linecap:round;"/>
    <path clip-path="url(#p59dcead0c1)" d="M 554.583367 137.663658 
L 558.278096 135.14394 
L 558.077033 139.611554 
L 554.583367 137.663658 
z
" style="stroke:#000000;stroke-linecap:round;"/>
   </g>
   <g id="patch_36">
    <path clip-path="url(#p59dcead0c1)" d="M 454.782566 330.20448 
Q 457.959333 392.711661 461.079353 454.102249 
" style="fill:none;stroke:#000000;stroke-linecap:round;"/>
    <path clip-path="url(#p59dcead0c1)" d="M 462.873747 450.005891 
L 461.079353 454.102249 
L 458.878903 450.208919 
L 462.873747 450.005891 
z
" style="stroke:#000000;stroke-linecap:round;"/>
   </g>
   <g id="patch_37">
    <path clip-path="url(#p59dcead0c1)" d="M 445.888931 323.434141 
Q 326.856472 349.85742 208.915478 376.038412 
" style="fill:none;stroke:#000000;stroke-linecap:round;"/>
    <path clip-path="url(#p59dcead0c1)" d="M 213.253841 377.12405 
L 208.915478 376.038412 
L 212.387006 373.219104 
L 213.253841 377.12405 
z
" style="stroke:#000000;stroke-linecap:round;"/>
   </g>
   <g id="patch_38">
    <path clip-path="url(#p59dcead0c1)" d="M 460.364802 327.780705 
Q 519.271823 388.659423 577.401393 448.734667 
" style="fill:none;stroke:#000000;stroke-linecap:round;"/>
    <path clip-path="url(#p59dcead0c1)" d="M 576.057196 444.469326 
L 577.401393 448.734667 
L 573.182602 447.25082 
L 576.057196 444.469326 
z
" style="stroke:#000000;stroke-linecap:round;"/>
   </g>
   <g id="patch_39">
    <path clip-path="url(#p59dcead0c1)" d="M 462.650438 324.003949 
Q 571.323504 356.007999 678.924077 387.696201 
" style="fill:none;stroke:#000000;stroke-linecap:round;"/>
    <path clip-path="url(#p59dcead0c1)" d="M 675.652016 384.647658 
L 678.924077 387.696201 
L 674.522006 388.484724 
L 675.652016 384.647658 
z
" style="stroke:#000000;stroke-linecap:round;"/>
   </g>
   <g id="patch_40">
    <path clip-path="url(#p59dcead0c1)" d="M 456.27496 313.118408 
Q 478.83106 214.585264 501.137674 117.141962 
" style="fill:none;stroke:#000000;stroke-linecap:round;"/>
    <path clip-path="url(#p59dcead0c1)" d="M 498.295518 120.594808 
L 501.137674 117.141962 
L 502.194657 121.487395 
L 498.295518 120.594808 
z
" style="stroke:#000000;stroke-linecap:round;"/>
   </g>
   <g id="patch_41">
    <path clip-path="url(#p59dcead0c1)" d="M 462.118165 317.739632 
Q 578.562605 260.561439 694.003472 203.876035 
" style="fill:none;stroke:#000000;stroke-linecap:round;"/>
    <path clip-path="url(#p59dcead0c1)" d="M 689.531452 203.843843 
L 694.003472 203.876035 
L 691.294506 207.434336 
L 689.531452 203.843843 
z
" style="stroke:#000000;stroke-linecap:round;"/>
   </g>
   <g id="patch_42">
    <path clip-path="url(#p59dcead0c1)" d="M 460.203837 315.179832 
Q 532.632051 236.363818 604.303759 158.371029 
" style="fill:none;stroke:#000000;stroke-linecap:round;"/>
    <path clip-path="url(#p59dcead0c1)" d="M 600.124573 159.963012 
L 604.303759 158.371029 
L 603.069833 162.669567 
L 600.124573 159.963012 
z
" style="stroke:#000000;stroke-linecap:round;"/>
   </g>
   <g id="patch_43">
    <path clip-path="url(#p59dcead0c1)" d="M 451.770383 313.287222 
Q 439.348021 273.354471 427.257761 234.489291 
" style="fill:none;stroke:#000000;stroke-linecap:round;"/>
    <path clip-path="url(#p59dcead0c1)" d="M 426.536197 238.902832 
L 427.257761 234.489291 
L 430.355655 237.714667 
L 426.536197 238.902832 
z
" style="stroke:#000000;stroke-linecap:round;"/>
   </g>
   <g id="patch_44">
    <path clip-path="url(#p59dcead0c1)" d="M 446.206232 324.531246 
Q 342.455275 362.449248 239.754419 399.983469 
" style="fill:none;stroke:#000000;stroke-linecap:round;"/>
    <path clip-path="url(#p59dcead0c1)" d="M 244.197904 400.488887 
L 239.754419 399.983469 
L 242.824844 396.731932 
L 244.197904 400.488887 
z
" style="stroke:#000000;stroke-linecap:round;"/>
   </g>
   <g id="patch_45">
    <path clip-path="url(#p59dcead0c1)" d="M 445.748168 322.64094 
Q 330.7629 337.136126 216.886887 351.491477 
" style="fill:none;stroke:#000000;stroke-linecap:round;"/>
    <path clip-path="url(#p59dcead0c1)" d="M 221.105621 352.975487 
L 216.886887 351.491477 
L 220.605336 349.006896 
L 221.105621 352.975487 
z
" style="stroke:#000000;stroke-linecap:round;"/>
   </g>
   <g id="patch_46">
    <path clip-path="url(#p59dcead0c1)" d="M 446.705596 325.636965 
Q 353.145331 375.611418 260.571236 425.059118 
" style="fill:none;stroke:#000000;stroke-linecap:round;"/>
    <path clip-path="url(#p59dcead0c1)" d="M 265.04175 424.938657 
L 260.571236 425.059118 
L 263.157176 421.410431 
L 265.04175 424.938657 
z
" style="stroke:#000000;stroke-linecap:round;"/>
   </g>
   <g id="patch_47">
    <path clip-path="url(#p59dcead0c1)" d="M 450.178812 329.154964 
Q 416.669088 390.291545 383.696744 450.447705 
" style="fill:none;stroke:#000000;stroke-linecap:round;"/>
    <path clip-path="url(#p59dcead0c1)" d="M 387.373162 447.901345 
L 383.696744 450.447705 
L 383.865506 445.978755 
L 387.373162 447.901345 
z
" style="stroke:#000000;stroke-linecap:round;"/>
   </g>
   <g id="patch_48">
    <path clip-path="url(#p59dcead0c1)" d="M 462.455 318.529891 
Q 576.217019 276.071079 688.93158 234.003204 
" style="fill:none;stroke:#000000;stroke-linecap:round;"/>
    <path clip-path="url(#p59dcead0c1)" d="M 684.484751 233.528114 
L 688.93158 234.003204 
L 685.883411 237.275614 
L 684.484751 233.528114 
z
" style="stroke:#000000;stroke-linecap:round;"/>
   </g>
   <g id="patch_49">
    <path clip-path="url(#p59dcead0c1)" d="M 457.396254 329.656949 
Q 481.485039 393.560453 505.179462 456.417784 
" style="fill:none;stroke:#000000;stroke-linecap:round;"/>
    <path clip-path="url(#p59dcead0c1)" d="M 505.640006 451.969425 
L 505.179462 456.417784 
L 501.897101 453.380334 
L 505.640006 451.969425 
z
" style="stroke:#000000;stroke-linecap:round;"/>
   </g>
   <g id="patch_50">
    <path clip-path="url(#p59dcead0c1)" d="M 462.209634 325.177103 
Q 553.830918 367.335095 644.43653 409.025741 
" style="fill:none;stroke:#000000;stroke-linecap:round;"/>
    <path clip-path="url(#p59dcead0c1)" d="M 641.638763 405.536831 
L 644.43653 409.025741 
L 639.966741 409.170609 
L 641.638763 405.536831 
z
" style="stroke:#000000;stroke-linecap:round;"/>
   </g>
   <g id="patch_51">
    <path clip-path="url(#p59dcead0c1)" d="M 445.862432 319.809295 
Q 314.345806 292.699213 183.924191 265.814849 
" style="fill:none;stroke:#000000;stroke-linecap:round;"/>
    <path clip-path="url(#p59dcead0c1)" d="M 187.438045 268.581224 
L 183.924191 265.814849 
L 188.245603 264.663591 
L 187.438045 268.581224 
z
" style="stroke:#000000;stroke-linecap:round;"/>
   </g>
   <g id="patch_52">
    <path clip-path="url(#p59dcead0c1)" d="M 466.526258 323.721716 
Q 588.797063 294.911675 709.979635 266.358048 
" style="fill:none;stroke:#000000;stroke-linecap:round;"/>
    <path clip-path="url(#p59dcead0c1)" d="M 705.627565 265.328735 
L 709.979635 266.358048 
L 706.544942 269.222116 
L 705.627565 265.328735 
z
" style="stroke:#000000;stroke-linecap:round;"/>
   </g>
   <g id="patch_53">
    <path clip-path="url(#p59dcead0c1)" d="M 452.166798 332.019541 
Q 395.861157 391.936373 340.321153 451.038465 
" style="fill:none;stroke:#000000;stroke-linecap:round;"/>
    <path clip-path="url(#p59dcead0c1)" d="M 344.517827 449.493172 
L 340.321153 451.038465 
L 341.602923 446.75395 
L 344.517827 449.493172 
z
" style="stroke:#000000;stroke-linecap:round;"/>
   </g>
   <g id="patch_54">
    <path clip-path="url(#p59dcead0c1)" d="M 465.27845 330.551779 
Q 536.497779 378.601994 606.790289 426.026903 
" style="fill:none;stroke:#000000;stroke-linecap:round;"/>
    <path clip-path="url(#p59dcead0c1)" d="M 604.592982 422.131798 
L 606.790289 426.026903 
L 602.355821 425.447686 
L 604.592982 422.131798 
z
" style="stroke:#000000;stroke-linecap:round;"/>
   </g>
   <g id="patch_55">
    <path clip-path="url(#p59dcead0c1)" d="M 456.039778 334.120093 
Q 439.93591 399.929192 424.09779 464.652299 
" style="fill:none;stroke:#000000;stroke-linecap:round;"/>
    <path clip-path="url(#p59dcead0c1)" d="M 426.991242 461.242323 
L 424.09779 464.652299 
L 423.10588 460.291552 
L 426.991242 461.242323 
z
" style="stroke:#000000;stroke-linecap:round;"/>
   </g>
   <g id="patch_56">
    <path clip-path="url(#p59dcead0c1)" d="M 450.99286 330.659871 
Q 376.772378 382.38935 303.469128 433.479545 
" style="fill:none;stroke:#000000;stroke-linecap:round;"/>
    <path clip-path="url(#p59dcead0c1)" d="M 307.894306 432.833169 
L 303.469128 433.479545 
L 305.607134 429.551577 
L 307.894306 432.833169 
z
" style="stroke:#000000;stroke-linecap:round;"/>
   </g>
   <g id="patch_57">
    <path clip-path="url(#p59dcead0c1)" d="M 449.96418 322.746729 
Q 327.505583 278.172465 206.097587 233.980613 
" style="fill:none;stroke:#000000;stroke-linecap:round;"/>
    <path clip-path="url(#p59dcead0c1)" d="M 209.172247 237.228145 
L 206.097587 233.980613 
L 210.540408 233.469403 
L 209.172247 237.228145 
z
" style="stroke:#000000;stroke-linecap:round;"/>
   </g>
   <g id="patch_58">
    <path clip-path="url(#p59dcead0c1)" d="M 452.547686 319.056396 
Q 414.769709 273.788813 377.708096 229.379614 
" style="fill:none;stroke:#000000;stroke-linecap:round;"/>
    <path clip-path="url(#p59dcead0c1)" d="M 378.735509 233.732133 
L 377.708096 229.379614 
L 381.806559 231.169194 
L 378.735509 233.732133 
z
" style="stroke:#000000;stroke-linecap:round;"/>
   </g>
   <g id="patch_59">
    <path clip-path="url(#p59dcead0c1)" d="M 462.135183 318.048558 
Q 510.567932 226.157708 558.479378 135.255919 
" style="fill:none;stroke:#000000;stroke-linecap:round;"/>
    <path clip-path="url(#p59dcead0c1)" d="M 554.84502 137.861959 
L 558.479378 135.255919 
L 558.383595 139.727029 
L 554.84502 137.861959 
z
" style="stroke:#000000;stroke-linecap:round;"/>
   </g>
   <g id="patch_60">
    <path clip-path="url(#p59dcead0c1)" d="M 458.31625 334.363818 
Q 459.837057 394.787614 461.329734 454.09373 
" style="fill:none;stroke:#000000;stroke-linecap:round;"/>
    <path clip-path="url(#p59dcead0c1)" d="M 463.228457 450.044675 
L 461.329734 454.09373 
L 459.229723 450.145319 
L 463.228457 450.044675 
z
" style="stroke:#000000;stroke-linecap:round;"/>
   </g>
   <g id="patch_61">
    <path clip-path="url(#p59dcead0c1)" d="M 449.614441 327.42741 
Q 328.737273 351.931801 208.955851 376.214061 
" style="fill:none;stroke:#000000;stroke-linecap:round;"/>
    <path clip-path="url(#p59dcead0c1)" d="M 213.273469 377.37947 
L 208.955851 376.214061 
L 212.478749 373.459212 
L 213.273469 377.37947 
z
" style="stroke:#000000;stroke-linecap:round;"/>
   </g>
   <g id="patch_62">
    <path clip-path="url(#p59dcead0c1)" d="M 464.126813 331.924882 
Q 521.149028 390.734017 577.392962 448.740482 
" style="fill:none;stroke:#000000;stroke-linecap:round;"/>
    <path clip-path="url(#p59dcead0c1)" d="M 576.04436 444.476532 
L 577.392962 448.740482 
L 573.17264 447.260994 
L 576.04436 444.476532 
z
" style="stroke:#000000;stroke-linecap:round;"/>
   </g>
   <g id="patch_63">
    <path clip-path="url(#p59dcead0c1)" d="M 466.433958 328.052122 
Q 573.20028 358.082805 678.890333 387.81076 
" style="fill:none;stroke:#000000;stroke-linecap:round;"/>
    <path clip-path="url(#p59dcead0c1)" d="M 675.58129 384.8024 
L 678.890333 387.81076 
L 674.498219 388.652979 
L 675.58129 384.8024 
z
" style="stroke:#000000;stroke-linecap:round;"/>
   </g>
   <g id="patch_64">
    <path clip-path="url(#p59dcead0c1)" d="M 459.857273 317.2246 
Q 480.709745 216.655557 501.335228 117.181263 
" style="fill:none;stroke:#000000;stroke-linecap:round;"/>
    <path clip-path="url(#p59dcead0c1)" d="M 498.564775 120.691903 
L 501.335228 117.181263 
L 502.481468 121.504009 
L 498.564775 120.691903 
z
" style="stroke:#000000;stroke-linecap:round;"/>
   </g>
   <g id="patch_65">
    <path clip-path="url(#p59dcead0c1)" d="M 465.793253 321.740586 
Q 580.43781 262.637722 694.088617 204.047168 
" style="fill:none;stroke:#000000;stroke-linecap:round;"/>
    <path clip-path="url(#p59dcead0c1)" d="M 689.616822 204.102388 
L 694.088617 204.047168 
L 691.449716 207.657736 
L 689.616822 204.102388 
z
" style="stroke:#000000;stroke-linecap:round;"/>
   </g>
   <g id="patch_66">
    <path clip-path="url(#p59dcead0c1)" d="M 463.804563 319.190556 
Q 534.511417 238.436923 604.481762 158.524451 
" style="fill:none;stroke:#000000;stroke-linecap:round;"/>
    <path clip-path="url(#p59dcead0c1)" d="M 600.342027 160.216372 
L 604.481762 158.524451 
L 603.351458 162.851391 
L 600.342027 160.216372 
z
" style="stroke:#000000;stroke-linecap:round;"/>
   </g>
   <g id="patch_67">
    <path clip-path="url(#p59dcead0c1)" d="M 455.343571 317.498638 
Q 441.225665 275.429506 427.463462 234.420314 
" style="fill:none;stroke:#000000;stroke-linecap:round;"/>
    <path clip-path="url(#p59dcead0c1)" d="M 426.839986 238.848776 
L 427.463462 234.420314 
L 430.632146 237.576171 
L 426.839986 238.848776 
z
" style="stroke:#000000;stroke-linecap:round;"/>
   </g>
   <g id="patch_68">
    <path clip-path="url(#p59dcead0c1)" d="M 449.901341 328.504362 
Q 344.332386 364.524472 239.821567 400.183546 
" style="fill:none;stroke:#000000;stroke-linecap:round;"/>
    <path clip-path="url(#p59dcead0c1)" d="M 244.253113 400.784717 
L 239.821567 400.183546 
L 242.961431 396.999012 
L 244.253113 400.784717 
z
" style="stroke:#000000;stroke-linecap:round;"/>
   </g>
   <g id="patch_69">
    <path clip-path="url(#p59dcead0c1)" d="M 449.487716 326.634341 
Q 332.640878 339.211126 216.905654 351.668264 
" style="fill:none;stroke:#000000;stroke-linecap:round;"/>
    <path clip-path="url(#p59dcead0c1)" d="M 221.096716 353.228711 
L 216.905654 351.668264 
L 220.66865 349.251682 
L 221.096716 353.228711 
z
" style="stroke:#000000;stroke-linecap:round;"/>
   </g>
   <g id="patch_70">
    <path clip-path="url(#p59dcead0c1)" d="M 450.363206 329.608235 
Q 355.02166 377.687165 260.678399 425.262679 
" style="fill:none;stroke:#000000;stroke-linecap:round;"/>
    <path clip-path="url(#p59dcead0c1)" d="M 265.150509 425.247389 
L 260.678399 425.262679 
L 263.349433 421.675817 
L 265.150509 425.247389 
z
" style="stroke:#000000;stroke-linecap:round;"/>
   </g>
   <g id="patch_71">
    <path clip-path="url(#p59dcead0c1)" d="M 453.678263 333.157053 
Q 418.546247 392.367401 383.984741 450.616231 
" style="fill:none;stroke:#000000;stroke-linecap:round;"/>
    <path clip-path="url(#p59dcead0c1)" d="M 387.745877 448.196756 
L 383.984741 450.616231 
L 384.305842 446.155637 
L 387.745877 448.196756 
z
" style="stroke:#000000;stroke-linecap:round;"/>
   </g>
   <g id="patch_72">
    <path clip-path="url(#p59dcead0c1)" d="M 466.15122 322.515734 
Q 578.096923 278.14526 689.003258 234.186747 
" style="fill:none;stroke:#000000;stroke-linecap:round;"/>
    <path clip-path="url(#p59dcead0c1)" d="M 684.54776 233.801345 
L 689.003258 234.186747 
L 686.021638 237.519904 
L 684.54776 233.801345 
z
" style="stroke:#000000;stroke-linecap:round;"/>
   </g>
   <g id="patch_73">
    <path clip-path="url(#p59dcead0c1)" d="M 461.042093 333.855308 
Q 483.362875 395.636027 505.303756 456.365234 
" style="fill:none;stroke:#000000;stroke-linecap:round;"/>
    <path clip-path="url(#p59dcead0c1)" d="M 505.825581 451.923647 
L 505.303756 456.365234 
L 502.063581 453.282821 
L 505.825581 451.923647 
z
" style="stroke:#000000;stroke-linecap:round;"/>
   </g>
   <g id="patch_74">
    <path clip-path="url(#p59dcead0c1)" d="M 466.001129 329.245798 
Q 555.707502 369.409652 644.393449 409.116634 
" style="fill:none;stroke:#000000;stroke-linecap:round;"/>
    <path clip-path="url(#p59dcead0c1)" d="M 641.559938 405.65669 
L 644.393449 409.116634 
L 639.925387 409.307476 
L 641.559938 405.65669 
z
" style="stroke:#000000;stroke-linecap:round;"/>
   </g>
   <g id="patch_75">
    <path clip-path="url(#p59dcead0c1)" d="M 449.633857 323.861997 
Q 316.223209 294.774202 183.904933 265.92458 
" style="fill:none;stroke:#000000;stroke-linecap:round;"/>
    <path clip-path="url(#p59dcead0c1)" d="M 187.387063 268.730782 
L 183.904933 265.92458 
L 188.239173 264.822597 
L 187.387063 268.730782 
z
" style="stroke:#000000;stroke-linecap:round;"/>
   </g>
   <g id="patch_76">
    <path clip-path="url(#p59dcead0c1)" d="M 368.30129 307.492725 
Q 381.054791 324.514525 393.137904 340.641573 
" style="fill:none;stroke:#000000;stroke-linecap:round;"/>
    <path clip-path="url(#p59dcead0c1)" d="M 392.340031 336.241187 
L 393.137904 340.641573 
L 389.138871 338.639641 
L 392.340031 336.241187 
z
" style="stroke:#000000;stroke-linecap:round;"/>
   </g>
   <g id="patch_77">
    <path clip-path="url(#p59dcead0c1)" d="M 416.128913 222.433472 
Q 345.855358 199.213028 276.643385 176.343362 
" style="fill:none;stroke:#000000;stroke-linecap:round;"/>
    <path clip-path="url(#p59dcead0c1)" d="M 279.813924 179.497357 
L 276.643385 176.343362 
L 281.068904 175.699328 
L 279.813924 179.497357 
z
" style="stroke:#000000;stroke-linecap:round;"/>
   </g>
   <g id="patch_78">
    <path clip-path="url(#p59dcead0c1)" d="M 379.774356 219.501576 
Q 391.354972 216.201654 401.860356 213.208121 
" style="fill:none;stroke:#000000;stroke-linecap:round;"/>
    <path clip-path="url(#p59dcead0c1)" d="M 397.4654 212.38086 
L 401.860356 213.208121 
L 398.561574 216.22773 
L 397.4654 212.38086 
z
" style="stroke:#000000;stroke-linecap:round;"/>
   </g>
   <g id="patch_79">
    <path clip-path="url(#p59dcead0c1)" d="M 379.836354 224.02494 
Q 388.153668 226.155941 395.387931 228.009451 
" style="fill:none;stroke:#000000;stroke-linecap:round;"/>
    <path clip-path="url(#p59dcead0c1)" d="M 392.009483 225.079248 
L 395.387931 228.009451 
L 391.0167 228.954088 
L 392.009483 225.079248 
z
" style="stroke:#000000;stroke-linecap:round;"/>
   </g>
   <g id="patch_80">
    <path clip-path="url(#p59dcead0c1)" d="M 376.693697 214.987069 
Q 382.051455 207.955825 386.731588 201.813863 
" style="fill:none;stroke:#000000;stroke-linecap:round;"/>
    <path clip-path="url(#p59dcead0c1)" d="M 382.716441 203.783279 
L 386.731588 201.813863 
L 385.898033 206.20763 
L 382.716441 203.783279 
z
" style="stroke:#000000;stroke-linecap:round;"/>
   </g>
   <g id="patch_81">
    <path clip-path="url(#p59dcead0c1)" d="M 378.490727 216.843394 
Q 381.12626 214.961227 382.851953 213.728823 
" style="fill:none;stroke:#000000;stroke-linecap:round;"/>
    <path clip-path="url(#p59dcead0c1)" d="M 378.43448 214.425913 
L 382.851953 213.728823 
L 380.759141 217.681056 
L 378.43448 214.425913 
z
" style="stroke:#000000;stroke-linecap:round;"/>
   </g>
   <g id="patch_82">
    <path clip-path="url(#p59dcead0c1)" d="M 531.063333 319.514528 
Q 562.343054 322.530447 592.509902 325.439065 
" style="fill:none;stroke:#000000;stroke-linecap:round;"/>
    <path clip-path="url(#p59dcead0c1)" d="M 588.720312 323.064407 
L 592.509902 325.439065 
L 588.336421 327.045943 
L 588.720312 323.064407 
z
" style="stroke:#000000;stroke-linecap:round;"/>
   </g>
   <g id="patch_83">
    <path clip-path="url(#p59dcead0c1)" d="M 519.287049 326.748659 
Q 505.00819 363.188396 491.137233 398.587165 
" style="fill:none;stroke:#000000;stroke-linecap:round;"/>
    <path clip-path="url(#p59dcead0c1)" d="M 494.458729 395.59256 
L 491.137233 398.587165 
L 490.734447 394.133205 
L 494.458729 395.59256 
z
" style="stroke:#000000;stroke-linecap:round;"/>
   </g>
   <g id="patch_84">
    <path clip-path="url(#p59dcead0c1)" d="M 434.028246 343.726607 
Q 490.38499 345.542812 545.624279 347.323006 
" style="fill:none;stroke:#000000;stroke-linecap:round;"/>
    <path clip-path="url(#p59dcead0c1)" d="M 541.690775 345.195202 
L 545.624279 347.323006 
L 541.561935 349.193127 
L 541.690775 345.195202 
z
" style="stroke:#000000;stroke-linecap:round;"/>
   </g>
   <g id="patch_85">
    <path clip-path="url(#p59dcead0c1)" d="M 433.512214 346.410959 
Q 469.568922 359.539801 504.575071 372.286117 
" style="fill:none;stroke:#000000;stroke-linecap:round;"/>
    <path clip-path="url(#p59dcead0c1)" d="M 501.50076 369.038255 
L 504.575071 372.286117 
L 500.132194 372.796848 
L 501.50076 369.038255 
z
" style="stroke:#000000;stroke-linecap:round;"/>
   </g>
   <g id="patch_86">
    <path clip-path="url(#p59dcead0c1)" d="M 554.725996 229.85249 
Q 528.136015 263.439703 502.240003 296.150327 
" style="fill:none;stroke:#000000;stroke-linecap:round;"/>
    <path clip-path="url(#p59dcead0c1)" d="M 506.29091 294.255557 
L 502.240003 296.150327 
L 503.154731 291.772739 
L 506.29091 294.255557 
z
" style="stroke:#000000;stroke-linecap:round;"/>
   </g>
   <g id="patch_87">
    <path clip-path="url(#p59dcead0c1)" d="M 502.232618 309.99851 
Q 533.278722 341.637024 563.541763 372.477533 
" style="fill:none;stroke:#000000;stroke-linecap:round;"/>
    <path clip-path="url(#p59dcead0c1)" d="M 562.167707 368.221718 
L 563.541763 372.477533 
L 559.312677 371.023289 
L 562.167707 368.221718 
z
" style="stroke:#000000;stroke-linecap:round;"/>
   </g>
   <g id="patch_88">
    <path clip-path="url(#p59dcead0c1)" d="M 562.582395 375.720503 
Q 514.244827 352.582942 466.915717 329.928095 
" style="fill:none;stroke:#000000;stroke-linecap:round;"/>
    <path clip-path="url(#p59dcead0c1)" d="M 469.660178 333.459091 
L 466.915717 329.928095 
L 471.38719 329.851123 
L 469.660178 333.459091 
z
" style="stroke:#000000;stroke-linecap:round;"/>
   </g>
   <g id="patch_89">
    <path clip-path="url(#p59dcead0c1)" d="M 390.387126 347.59483 
Q 290.489397 337.489909 191.704025 327.497506 
" style="fill:none;stroke:#000000;stroke-linecap:round;"/>
    <path clip-path="url(#p59dcead0c1)" d="M 195.482439 329.889909 
L 191.704025 327.497506 
L 195.884995 325.910217 
L 195.482439 329.889909 
z
" style="stroke:#000000;stroke-linecap:round;"/>
   </g>
   <g id="patch_90">
    <path clip-path="url(#p59dcead0c1)" d="M 381.446925 167.649342 
Q 393.883953 185.533324 405.68265 202.499409 
" style="fill:none;stroke:#000000;stroke-linecap:round;"/>
    <path clip-path="url(#p59dcead0c1)" d="M 405.04087 198.073563 
L 405.68265 202.499409 
L 401.756905 200.357325 
L 405.04087 198.073563 
z
" style="stroke:#000000;stroke-linecap:round;"/>
   </g>
   <g id="patch_91">
    <path clip-path="url(#p59dcead0c1)" d="M 379.756985 168.562009 
Q 390.681934 195.486973 401.18652 221.375936 
" style="fill:none;stroke:#000000;stroke-linecap:round;"/>
    <path clip-path="url(#p59dcead0c1)" d="M 401.535838 216.917464 
L 401.18652 221.375936 
L 397.829333 218.421398 
L 401.535838 216.917464 
z
" style="stroke:#000000;stroke-linecap:round;"/>
   </g>
   <g id="patch_92">
    <path clip-path="url(#p59dcead0c1)" d="M 380.261729 168.335573 
Q 384.577788 177.28524 388.408191 185.227862 
" style="fill:none;stroke:#000000;stroke-linecap:round;"/>
    <path clip-path="url(#p59dcead0c1)" d="M 388.472109 180.756183 
L 388.408191 185.227862 
L 384.869199 182.49372 
L 388.472109 180.756183 
z
" style="stroke:#000000;stroke-linecap:round;"/>
   </g>
   <g id="patch_93">
    <path clip-path="url(#p59dcead0c1)" d="M 378.997197 168.827587 
Q 383.652897 184.28921 387.98624 198.680279 
" style="fill:none;stroke:#000000;stroke-linecap:round;"/>
    <path clip-path="url(#p59dcead0c1)" d="M 388.748002 194.273498 
L 387.98624 198.680279 
L 384.917872 195.426801 
L 388.748002 194.273498 
z
" style="stroke:#000000;stroke-linecap:round;"/>
   </g>
   <g id="patch_94">
    <path clip-path="url(#p59dcead0c1)" d="M 443.561398 193.367941 
Q 431.235747 199.917117 419.89741 205.941689 
" style="fill:none;stroke:#000000;stroke-linecap:round;"/>
    <path clip-path="url(#p59dcead0c1)" d="M 424.368175 205.830968 
L 419.89741 205.941689 
L 422.491292 202.298644 
L 424.368175 205.830968 
z
" style="stroke:#000000;stroke-linecap:round;"/>
   </g>
   <g id="patch_95">
    <path clip-path="url(#p59dcead0c1)" d="M 444.734244 195.050945 
Q 428.036517 209.870418 412.17499 223.947751 
" style="fill:none;stroke:#000000;stroke-linecap:round;"/>
    <path clip-path="url(#p59dcead0c1)" d="M 416.494247 222.788433 
L 412.17499 223.947751 
L 413.83909 219.796754 
L 416.494247 222.788433 
z
" style="stroke:#000000;stroke-linecap:round;"/>
   </g>
   <g id="patch_96">
    <path clip-path="url(#p59dcead0c1)" d="M 442.57862 190.002021 
Q 421.933797 191.671002 402.403372 193.249892 
" style="fill:none;stroke:#000000;stroke-linecap:round;"/>
    <path clip-path="url(#p59dcead0c1)" d="M 406.551524 194.921069 
L 402.403372 193.249892 
L 406.229206 190.934077 
L 406.551524 194.921069 
z
" style="stroke:#000000;stroke-linecap:round;"/>
   </g>
   <g id="patch_97">
    <path clip-path="url(#p59dcead0c1)" d="M 442.940043 191.870318 
Q 421.008429 198.675931 400.14462 205.150193 
" style="fill:none;stroke:#000000;stroke-linecap:round;"/>
    <path clip-path="url(#p59dcead0c1)" d="M 404.557653 205.874862 
L 400.14462 205.150193 
L 403.372175 202.054568 
L 404.557653 205.874862 
z
" style="stroke:#000000;stroke-linecap:round;"/>
   </g>
   <g id="patch_98">
    <path clip-path="url(#p59dcead0c1)" d="M 403.107157 213.421408 
Q 288.687526 253.999148 175.321628 294.203192 
" style="fill:none;stroke:#000000;stroke-linecap:round;"/>
    <path clip-path="url(#p59dcead0c1)" d="M 179.760062 294.751193 
L 175.321628 294.203192 
L 178.423089 290.981246 
L 179.760062 294.751193 
z
" style="stroke:#000000;stroke-linecap:round;"/>
   </g>
   <g id="patch_99">
    <path clip-path="url(#p59dcead0c1)" d="M 419.7598 208.842878 
Q 533.499806 186.277952 646.143152 163.930592 
" style="fill:none;stroke:#000000;stroke-linecap:round;"/>
    <path clip-path="url(#p59dcead0c1)" d="M 641.830424 162.747217 
L 646.143152 163.930592 
L 642.608815 166.67075 
L 641.830424 162.747217 
z
" style="stroke:#000000;stroke-linecap:round;"/>
   </g>
   <g id="patch_100">
    <path clip-path="url(#p59dcead0c1)" d="M 396.523978 232.778454 
Q 285.482984 263.954724 175.518403 294.828775 
" style="fill:none;stroke:#000000;stroke-linecap:round;"/>
    <path clip-path="url(#p59dcead0c1)" d="M 179.910118 295.673075 
L 175.518403 294.828775 
L 178.828871 291.821983 
L 179.910118 295.673075 
z
" style="stroke:#000000;stroke-linecap:round;"/>
   </g>
   <g id="patch_101">
    <path clip-path="url(#p59dcead0c1)" d="M 413.21963 228.158413 
Q 530.300737 196.231893 646.303195 164.599506 
" style="fill:none;stroke:#000000;stroke-linecap:round;"/>
    <path clip-path="url(#p59dcead0c1)" d="M 641.917937 163.722285 
L 646.303195 164.599506 
L 642.970263 167.581379 
L 641.917937 163.722285 
z
" style="stroke:#000000;stroke-linecap:round;"/>
   </g>
   <g id="patch_102">
    <path clip-path="url(#p59dcead0c1)" d="M 384.778611 197.634707 
Q 279.381152 245.754741 175.000741 293.410434 
" style="fill:none;stroke:#000000;stroke-linecap:round;"/>
    <path clip-path="url(#p59dcead0c1)" d="M 179.470082 293.568508 
L 175.000741 293.410434 
L 177.808804 289.929805 
L 179.470082 293.568508 
z
" style="stroke:#000000;stroke-linecap:round;"/>
   </g>
   <g id="patch_103">
    <path clip-path="url(#p59dcead0c1)" d="M 401.251354 192.992089 
Q 524.195939 178.032788 646.030675 163.208528 
" style="fill:none;stroke:#000000;stroke-linecap:round;"/>
    <path clip-path="url(#p59dcead0c1)" d="M 641.818392 161.706308 
L 646.030675 163.208528 
L 642.301529 165.677023 
L 641.818392 161.706308 
z
" style="stroke:#000000;stroke-linecap:round;"/>
   </g>
   <g id="patch_104">
    <path clip-path="url(#p59dcead0c1)" d="M 382.759837 211.250257 
Q 278.454412 252.76041 175.187782 293.857158 
" style="fill:none;stroke:#000000;stroke-linecap:round;"/>
    <path clip-path="url(#p59dcead0c1)" d="M 179.643812 294.236362 
L 175.187782 293.857158 
L 178.164764 290.519856 
L 179.643812 294.236362 
z
" style="stroke:#000000;stroke-linecap:round;"/>
   </g>
   <g id="patch_105">
    <path clip-path="url(#p59dcead0c1)" d="M 399.34056 206.565421 
Q 523.270876 185.037751 646.099654 163.701426 
" style="fill:none;stroke:#000000;stroke-linecap:round;"/>
    <path clip-path="url(#p59dcead0c1)" d="M 641.816381 162.415514 
L 646.099654 163.701426 
L 642.500961 166.356498 
L 641.816381 162.415514 
z
" style="stroke:#000000;stroke-linecap:round;"/>
   </g>
   <g id="patch_106">
    <path clip-path="url(#p59dcead0c1)" d="M 490.731501 267.173117 
Q 431.108099 282.77076 372.566332 298.085446 
" style="fill:none;stroke:#000000;stroke-linecap:round;"/>
    <path clip-path="url(#p59dcead0c1)" d="M 376.942279 299.007989 
L 372.566332 298.085446 
L 375.929936 295.138214 
L 376.942279 299.007989 
z
" style="stroke:#000000;stroke-linecap:round;"/>
   </g>
   <g id="patch_107">
    <path clip-path="url(#p59dcead0c1)" d="M 271.242743 244.294018 
Q 313.481295 270.164742 354.766434 295.451511 
" style="fill:none;stroke:#000000;stroke-linecap:round;"/>
    <path clip-path="url(#p59dcead0c1)" d="M 352.400015 291.656769 
L 354.766434 295.451511 
L 350.31079 295.067801 
L 352.400015 291.656769 
z
" style="stroke:#000000;stroke-linecap:round;"/>
   </g>
   <g id="patch_108">
    <path clip-path="url(#p59dcead0c1)" d="M 262.070343 278.622525 
Q 308.356714 288.672418 353.550509 298.485085 
" style="fill:none;stroke:#000000;stroke-linecap:round;"/>
    <path clip-path="url(#p59dcead0c1)" d="M 350.065947 295.681903 
L 353.550509 298.485085 
L 349.217226 299.590825 
L 350.065947 295.681903 
z
" style="stroke:#000000;stroke-linecap:round;"/>
   </g>
   <g id="patch_109">
    <path clip-path="url(#p59dcead0c1)" d="M 593.585256 326.337614 
Q 530.172949 326.042716 467.878664 325.753017 
" style="fill:none;stroke:#000000;stroke-linecap:round;"/>
    <path clip-path="url(#p59dcead0c1)" d="M 471.86932 327.771597 
L 467.878664 325.753017 
L 471.887922 323.77164 
L 471.86932 327.771597 
z
" style="stroke:#000000;stroke-linecap:round;"/>
   </g>
   <g id="patch_110">
    <path clip-path="url(#p59dcead0c1)" d="M 484.639694 399.544413 
Q 472.834284 366.702234 461.407071 334.912181 
" style="fill:none;stroke:#000000;stroke-linecap:round;"/>
    <path clip-path="url(#p59dcead0c1)" d="M 460.878046 339.352916 
L 461.407071 334.912181 
L 464.642244 337.999842 
L 460.878046 339.352916 
z
" style="stroke:#000000;stroke-linecap:round;"/>
   </g>
   <g id="patch_111">
    <path clip-path="url(#p59dcead0c1)" d="M 563.281265 344.060458 
Q 578.822142 337.008047 593.344911 330.417651 
" style="fill:none;stroke:#000000;stroke-linecap:round;"/>
    <path clip-path="url(#p59dcead0c1)" d="M 588.875943 330.249358 
L 593.344911 330.417651 
L 590.528896 333.89185 
L 588.875943 330.249358 
z
" style="stroke:#000000;stroke-linecap:round;"/>
   </g>
   <g id="patch_112">
    <path clip-path="url(#p59dcead0c1)" d="M 548.912536 353.379975 
Q 521.482208 377.666731 494.888957 401.21234 
" style="fill:none;stroke:#000000;stroke-linecap:round;"/>
    <path clip-path="url(#p59dcead0c1)" d="M 499.209585 400.058141 
L 494.888957 401.21234 
L 496.557975 397.063318 
L 499.209585 400.058141 
z
" style="stroke:#000000;stroke-linecap:round;"/>
   </g>
   <g id="patch_113">
    <path clip-path="url(#p59dcead0c1)" d="M 521.332862 371.418711 
Q 558.005732 351.004781 593.701719 331.134632 
" style="fill:none;stroke:#000000;stroke-linecap:round;"/>
    <path clip-path="url(#p59dcead0c1)" d="M 589.233968 331.332622 
L 593.701719 331.134632 
L 591.17946 334.827627 
L 589.233968 331.332622 
z
" style="stroke:#000000;stroke-linecap:round;"/>
   </g>
   <g id="patch_114">
    <path clip-path="url(#p59dcead0c1)" d="M 508.284808 382.338169 
Q 500.666821 391.662245 493.756215 400.120519 
" style="fill:none;stroke:#000000;stroke-linecap:round;"/>
    <path clip-path="url(#p59dcead0c1)" d="M 497.83581 398.288332 
L 493.756215 400.120519 
L 494.738222 395.757532 
L 497.83581 398.288332 
z
" style="stroke:#000000;stroke-linecap:round;"/>
   </g>
   <g id="PathCollection_1">
    <defs>
     <path d="M 0 8.660254 
C 2.296726 8.660254 4.499694 7.747755 6.123724 6.123724 
C 7.747755 4.499694 8.660254 2.296726 8.660254 -0 
C 8.660254 -2.296726 7.747755 -4.499694 6.123724 -6.123724 
C 4.499694 -7.747755 2.296726 -8.660254 0 -8.660254 
C -2.296726 -8.660254 -4.499694 -7.747755 -6.123724 -6.123724 
C -7.747755 -4.499694 -8.660254 -2.296726 -8.660254 0 
C -8.660254 2.296726 -7.747755 4.499694 -6.123724 6.123724 
C -4.499694 7.747755 -2.296726 8.660254 0 8.660254 
z
" id="C0_0_e30c8ece01"/>
    </defs>
    <g clip-path="url(#p59dcead0c1)">
     <use style="fill:#ff0000;stroke:#ff0000;" x="524.914226" xlink:href="#C0_0_e30c8ece01" y="248.952573"/>
    </g>
    <g clip-path="url(#p59dcead0c1)">
     <use style="fill:#008000;stroke:#008000;" x="295.448242" xlink:href="#C0_0_e30c8ece01" y="439.069865"/>
    </g>
    <g clip-path="url(#p59dcead0c1)">
     <use style="fill:#008000;stroke:#008000;" x="368.019254" xlink:href="#C0_0_e30c8ece01" y="275.749388"/>
    </g>
    <g clip-path="url(#p59dcead0c1)">
     <use style="fill:#ff0000;stroke:#ff0000;" x="451.191927" xlink:href="#C0_0_e30c8ece01" y="325.290489"/>
    </g>
    <g clip-path="url(#p59dcead0c1)">
     <use style="fill:#ff0000;stroke:#ff0000;" x="454.343103" xlink:href="#C0_0_e30c8ece01" y="321.557452"/>
    </g>
    <g clip-path="url(#p59dcead0c1)">
     <use style="fill:#008000;stroke:#008000;" x="458.09838" xlink:href="#C0_0_e30c8ece01" y="325.707534"/>
    </g>
    <g clip-path="url(#p59dcead0c1)">
     <use style="fill:#008000;stroke:#008000;" x="610.922411" xlink:href="#C0_0_e30c8ece01" y="151.168646"/>
    </g>
    <g clip-path="url(#p59dcead0c1)">
     <use style="fill:#ff0000;stroke:#ff0000;" x="363.107003" xlink:href="#C0_0_e30c8ece01" y="300.560032"/>
    </g>
    <g clip-path="url(#p59dcead0c1)">
     <use style="fill:#008000;stroke:#008000;" x="424.352745" xlink:href="#C0_0_e30c8ece01" y="225.150868"/>
    </g>
    <g clip-path="url(#p59dcead0c1)">
     <use style="fill:#008000;stroke:#008000;" x="230.567182" xlink:href="#C0_0_e30c8ece01" y="403.341141"/>
    </g>
    <g clip-path="url(#p59dcead0c1)">
     <use style="fill:#008000;stroke:#008000;" x="207.183087" xlink:href="#C0_0_e30c8ece01" y="352.71475"/>
    </g>
    <g clip-path="url(#p59dcead0c1)">
     <use style="fill:#008000;stroke:#008000;" x="333.624419" xlink:href="#C0_0_e30c8ece01" y="458.164697"/>
    </g>
    <g clip-path="url(#p59dcead0c1)">
     <use style="fill:#008000;stroke:#008000;" x="614.897143" xlink:href="#C0_0_e30c8ece01" y="431.496431"/>
    </g>
    <g clip-path="url(#p59dcead0c1)">
     <use style="fill:#008000;stroke:#008000;" x="421.77298" xlink:href="#C0_0_e30c8ece01" y="474.152727"/>
    </g>
    <g clip-path="url(#p59dcead0c1)">
     <use style="fill:#008000;stroke:#008000;" x="196.911267" xlink:href="#C0_0_e30c8ece01" y="230.636842"/>
    </g>
    <g clip-path="url(#p59dcead0c1)">
     <use style="fill:#008000;stroke:#008000;" x="371.445138" xlink:href="#C0_0_e30c8ece01" y="221.875005"/>
    </g>
    <g clip-path="url(#p59dcead0c1)">
     <use style="fill:#008000;stroke:#008000;" x="563.039245" xlink:href="#C0_0_e30c8ece01" y="126.60454"/>
    </g>
    <g clip-path="url(#p59dcead0c1)">
     <use style="fill:#008000;stroke:#008000;" x="461.575812" xlink:href="#C0_0_e30c8ece01" y="463.870765"/>
    </g>
    <g clip-path="url(#p59dcead0c1)">
     <use style="fill:#008000;stroke:#008000;" x="719.494215" xlink:href="#C0_0_e30c8ece01" y="264.116176"/>
    </g>
    <g clip-path="url(#p59dcead0c1)">
     <use style="fill:#ff0000;stroke:#ff0000;" x="199.371803" xlink:href="#C0_0_e30c8ece01" y="378.156953"/>
    </g>
    <g clip-path="url(#p59dcead0c1)">
     <use style="fill:#008000;stroke:#008000;" x="584.200967" xlink:href="#C0_0_e30c8ece01" y="455.761832"/>
    </g>
    <g clip-path="url(#p59dcead0c1)">
     <use style="fill:#008000;stroke:#008000;" x="688.30505" xlink:href="#C0_0_e30c8ece01" y="390.458884"/>
    </g>
    <g clip-path="url(#p59dcead0c1)">
     <use style="fill:#008000;stroke:#008000;" x="503.320345" xlink:href="#C0_0_e30c8ece01" y="107.607273"/>
    </g>
    <g clip-path="url(#p59dcead0c1)">
     <use style="fill:#008000;stroke:#008000;" x="702.781147" xlink:href="#C0_0_e30c8ece01" y="199.565897"/>
    </g>
    <g clip-path="url(#p59dcead0c1)">
     <use style="fill:#ff0000;stroke:#ff0000;" x="522.447257" xlink:href="#C0_0_e30c8ece01" y="318.683786"/>
    </g>
    <g clip-path="url(#p59dcead0c1)">
     <use style="fill:#ff0000;stroke:#ff0000;" x="425.374017" xlink:href="#C0_0_e30c8ece01" y="343.447708"/>
    </g>
    <g clip-path="url(#p59dcead0c1)">
     <use style="fill:#ff0000;stroke:#ff0000;" x="560.101162" xlink:href="#C0_0_e30c8ece01" y="223.062835"/>
    </g>
    <g clip-path="url(#p59dcead0c1)">
     <use style="fill:#ff0000;stroke:#ff0000;" x="496.168888" xlink:href="#C0_0_e30c8ece01" y="303.819074"/>
    </g>
    <g clip-path="url(#p59dcead0c1)">
     <use style="fill:#ff0000;stroke:#ff0000;" x="570.392394" xlink:href="#C0_0_e30c8ece01" y="379.458886"/>
    </g>
    <g clip-path="url(#p59dcead0c1)">
     <use style="fill:#008000;stroke:#008000;" x="399.000381" xlink:href="#C0_0_e30c8ece01" y="348.466084"/>
    </g>
    <g clip-path="url(#p59dcead0c1)">
     <use style="fill:#ff0000;stroke:#ff0000;" x="181.976806" xlink:href="#C0_0_e30c8ece01" y="326.513572"/>
    </g>
    <g clip-path="url(#p59dcead0c1)">
     <use style="fill:#008000;stroke:#008000;" x="251.944523" xlink:href="#C0_0_e30c8ece01" y="429.667007"/>
    </g>
    <g clip-path="url(#p59dcead0c1)">
     <use style="fill:#ff0000;stroke:#ff0000;" x="376.500783" xlink:href="#C0_0_e30c8ece01" y="160.536974"/>
    </g>
    <g clip-path="url(#p59dcead0c1)">
     <use style="fill:#ff0000;stroke:#ff0000;" x="451.209231" xlink:href="#C0_0_e30c8ece01" y="189.304301"/>
    </g>
    <g clip-path="url(#p59dcead0c1)">
     <use style="fill:#008000;stroke:#008000;" x="411.265944" xlink:href="#C0_0_e30c8ece01" y="210.527978"/>
    </g>
    <g clip-path="url(#p59dcead0c1)">
     <use style="fill:#008000;stroke:#008000;" x="404.863144" xlink:href="#C0_0_e30c8ece01" y="230.43712"/>
    </g>
    <g clip-path="url(#p59dcead0c1)">
     <use style="fill:#ff0000;stroke:#ff0000;" x="392.656875" xlink:href="#C0_0_e30c8ece01" y="194.037824"/>
    </g>
    <g clip-path="url(#p59dcead0c1)">
     <use style="fill:#008000;stroke:#008000;" x="390.806919" xlink:href="#C0_0_e30c8ece01" y="208.047781"/>
    </g>
    <g clip-path="url(#p59dcead0c1)">
     <use style="fill:#ff0000;stroke:#ff0000;" x="499.111412" xlink:href="#C0_0_e30c8ece01" y="264.980909"/>
    </g>
    <g clip-path="url(#p59dcead0c1)">
     <use style="fill:#ff0000;stroke:#ff0000;" x="263.855195" xlink:href="#C0_0_e30c8ece01" y="239.769213"/>
    </g>
    <g clip-path="url(#p59dcead0c1)">
     <use style="fill:#ff0000;stroke:#ff0000;" x="253.605787" xlink:href="#C0_0_e30c8ece01" y="276.784665"/>
    </g>
    <g clip-path="url(#p59dcead0c1)">
     <use style="fill:#008000;stroke:#008000;" x="267.359727" xlink:href="#C0_0_e30c8ece01" y="173.275769"/>
    </g>
    <g clip-path="url(#p59dcead0c1)">
     <use style="fill:#008000;stroke:#008000;" x="378.994952" xlink:href="#C0_0_e30c8ece01" y="459.025858"/>
    </g>
    <g clip-path="url(#p59dcead0c1)">
     <use style="fill:#008000;stroke:#008000;" x="698.094238" xlink:href="#C0_0_e30c8ece01" y="230.583473"/>
    </g>
    <g clip-path="url(#p59dcead0c1)">
     <use style="fill:#ff0000;stroke:#ff0000;" x="508.627232" xlink:href="#C0_0_e30c8ece01" y="465.564139"/>
    </g>
    <g clip-path="url(#p59dcead0c1)">
     <use style="fill:#ff0000;stroke:#ff0000;" x="602.24702" xlink:href="#C0_0_e30c8ece01" y="326.377896"/>
    </g>
    <g clip-path="url(#p59dcead0c1)">
     <use style="fill:#ff0000;stroke:#ff0000;" x="487.568942" xlink:href="#C0_0_e30c8ece01" y="407.693466"/>
    </g>
    <g clip-path="url(#p59dcead0c1)">
     <use style="fill:#ff0000;stroke:#ff0000;" x="555.397756" xlink:href="#C0_0_e30c8ece01" y="347.637975"/>
    </g>
    <g clip-path="url(#p59dcead0c1)">
     <use style="fill:#ff0000;stroke:#ff0000;" x="513.763952" xlink:href="#C0_0_e30c8ece01" y="375.63194"/>
    </g>
    <g clip-path="url(#p59dcead0c1)">
     <use style="fill:#ff0000;stroke:#ff0000;" x="166.105785" xlink:href="#C0_0_e30c8ece01" y="297.471496"/>
    </g>
    <g clip-path="url(#p59dcead0c1)">
     <use style="fill:#ff0000;stroke:#ff0000;" x="655.733811" xlink:href="#C0_0_e30c8ece01" y="162.027898"/>
    </g>
    <g clip-path="url(#p59dcead0c1)">
     <use style="fill:#008000;stroke:#008000;" x="653.316827" xlink:href="#C0_0_e30c8ece01" y="413.111861"/>
    </g>
    <g clip-path="url(#p59dcead0c1)">
     <use style="fill:#008000;stroke:#008000;" x="174.348512" xlink:href="#C0_0_e30c8ece01" y="263.840974"/>
    </g>
   </g>
   <g id="text_1">
    <g clip-path="url(#p59dcead0c1)">
     <!-- RBX1 -->
     <g transform="translate(508.701101 252.263823)scale(0.12 -0.12)">
      <defs>
       <path d="M 44.390625 34.1875 
Q 47.5625 33.109375 50.5625 29.59375 
Q 53.5625 26.078125 56.59375 19.921875 
L 66.609375 0 
L 56 0 
L 46.6875 18.703125 
Q 43.0625 26.03125 39.671875 28.421875 
Q 36.28125 30.8125 30.421875 30.8125 
L 19.671875 30.8125 
L 19.671875 0 
L 9.8125 0 
L 9.8125 72.90625 
L 32.078125 72.90625 
Q 44.578125 72.90625 50.734375 67.671875 
Q 56.890625 62.453125 56.890625 51.90625 
Q 56.890625 45.015625 53.6875 40.46875 
Q 50.484375 35.9375 44.390625 34.1875 
z
M 19.671875 64.796875 
L 19.671875 38.921875 
L 32.078125 38.921875 
Q 39.203125 38.921875 42.84375 42.21875 
Q 46.484375 45.515625 46.484375 51.90625 
Q 46.484375 58.296875 42.84375 61.546875 
Q 39.203125 64.796875 32.078125 64.796875 
z
" id="DejaVuSans-82"/>
       <path d="M 19.671875 34.8125 
L 19.671875 8.109375 
L 35.5 8.109375 
Q 43.453125 8.109375 47.28125 11.40625 
Q 51.125 14.703125 51.125 21.484375 
Q 51.125 28.328125 47.28125 31.5625 
Q 43.453125 34.8125 35.5 34.8125 
z
M 19.671875 64.796875 
L 19.671875 42.828125 
L 34.28125 42.828125 
Q 41.5 42.828125 45.03125 45.53125 
Q 48.578125 48.25 48.578125 53.8125 
Q 48.578125 59.328125 45.03125 62.0625 
Q 41.5 64.796875 34.28125 64.796875 
z
M 9.8125 72.90625 
L 35.015625 72.90625 
Q 46.296875 72.90625 52.390625 68.21875 
Q 58.5 63.53125 58.5 54.890625 
Q 58.5 48.1875 55.375 44.234375 
Q 52.25 40.28125 46.1875 39.3125 
Q 53.46875 37.75 57.5 32.78125 
Q 61.53125 27.828125 61.53125 20.40625 
Q 61.53125 10.640625 54.890625 5.3125 
Q 48.25 0 35.984375 0 
L 9.8125 0 
z
" id="DejaVuSans-66"/>
       <path d="M 6.296875 72.90625 
L 16.890625 72.90625 
L 35.015625 45.796875 
L 53.21875 72.90625 
L 63.8125 72.90625 
L 40.375 37.890625 
L 65.375 0 
L 54.78125 0 
L 34.28125 31 
L 13.625 0 
L 2.984375 0 
L 29 38.921875 
z
" id="DejaVuSans-88"/>
       <path d="M 12.40625 8.296875 
L 28.515625 8.296875 
L 28.515625 63.921875 
L 10.984375 60.40625 
L 10.984375 69.390625 
L 28.421875 72.90625 
L 38.28125 72.90625 
L 38.28125 8.296875 
L 54.390625 8.296875 
L 54.390625 0 
L 12.40625 0 
z
" id="DejaVuSans-49"/>
      </defs>
      <use xlink:href="#DejaVuSans-82"/>
      <use x="69.482422" xlink:href="#DejaVuSans-66"/>
      <use x="138.085938" xlink:href="#DejaVuSans-88"/>
      <use x="206.591797" xlink:href="#DejaVuSans-49"/>
     </g>
    </g>
   </g>
   <g id="text_2">
    <g clip-path="url(#p59dcead0c1)">
     <!-- VEGFA -->
     <g transform="translate(275.895742 442.381115)scale(0.12 -0.12)">
      <defs>
       <path d="M 28.609375 0 
L 0.78125 72.90625 
L 11.078125 72.90625 
L 34.1875 11.53125 
L 57.328125 72.90625 
L 67.578125 72.90625 
L 39.796875 0 
z
" id="DejaVuSans-86"/>
       <path d="M 9.8125 72.90625 
L 55.90625 72.90625 
L 55.90625 64.59375 
L 19.671875 64.59375 
L 19.671875 43.015625 
L 54.390625 43.015625 
L 54.390625 34.71875 
L 19.671875 34.71875 
L 19.671875 8.296875 
L 56.78125 8.296875 
L 56.78125 0 
L 9.8125 0 
z
" id="DejaVuSans-69"/>
       <path d="M 59.515625 10.40625 
L 59.515625 29.984375 
L 43.40625 29.984375 
L 43.40625 38.09375 
L 69.28125 38.09375 
L 69.28125 6.78125 
Q 63.578125 2.734375 56.6875 0.65625 
Q 49.8125 -1.421875 42 -1.421875 
Q 24.90625 -1.421875 15.25 8.5625 
Q 5.609375 18.5625 5.609375 36.375 
Q 5.609375 54.25 15.25 64.234375 
Q 24.90625 74.21875 42 74.21875 
Q 49.125 74.21875 55.546875 72.453125 
Q 61.96875 70.703125 67.390625 67.28125 
L 67.390625 56.78125 
Q 61.921875 61.421875 55.765625 63.765625 
Q 49.609375 66.109375 42.828125 66.109375 
Q 29.4375 66.109375 22.71875 58.640625 
Q 16.015625 51.171875 16.015625 36.375 
Q 16.015625 21.625 22.71875 14.15625 
Q 29.4375 6.6875 42.828125 6.6875 
Q 48.046875 6.6875 52.140625 7.59375 
Q 56.25 8.5 59.515625 10.40625 
z
" id="DejaVuSans-71"/>
       <path d="M 9.8125 72.90625 
L 51.703125 72.90625 
L 51.703125 64.59375 
L 19.671875 64.59375 
L 19.671875 43.109375 
L 48.578125 43.109375 
L 48.578125 34.8125 
L 19.671875 34.8125 
L 19.671875 0 
L 9.8125 0 
z
" id="DejaVuSans-70"/>
       <path d="M 34.1875 63.1875 
L 20.796875 26.90625 
L 47.609375 26.90625 
z
M 28.609375 72.90625 
L 39.796875 72.90625 
L 67.578125 0 
L 57.328125 0 
L 50.6875 18.703125 
L 17.828125 18.703125 
L 11.1875 0 
L 0.78125 0 
z
" id="DejaVuSans-65"/>
      </defs>
      <use xlink:href="#DejaVuSans-86"/>
      <use x="68.408203" xlink:href="#DejaVuSans-69"/>
      <use x="131.591797" xlink:href="#DejaVuSans-71"/>
      <use x="209.082031" xlink:href="#DejaVuSans-70"/>
      <use x="257.476562" xlink:href="#DejaVuSans-65"/>
     </g>
    </g>
   </g>
   <g id="text_3">
    <g clip-path="url(#p59dcead0c1)">
     <!-- VHL -->
     <g transform="translate(356.059566 279.060638)scale(0.12 -0.12)">
      <defs>
       <path d="M 9.8125 72.90625 
L 19.671875 72.90625 
L 19.671875 43.015625 
L 55.515625 43.015625 
L 55.515625 72.90625 
L 65.375 72.90625 
L 65.375 0 
L 55.515625 0 
L 55.515625 34.71875 
L 19.671875 34.71875 
L 19.671875 0 
L 9.8125 0 
z
" id="DejaVuSans-72"/>
       <path d="M 9.8125 72.90625 
L 19.671875 72.90625 
L 19.671875 8.296875 
L 55.171875 8.296875 
L 55.171875 0 
L 9.8125 0 
z
" id="DejaVuSans-76"/>
      </defs>
      <use xlink:href="#DejaVuSans-86"/>
      <use x="68.408203" xlink:href="#DejaVuSans-72"/>
      <use x="143.603516" xlink:href="#DejaVuSans-76"/>
     </g>
    </g>
   </g>
   <g id="text_4">
    <g clip-path="url(#p59dcead0c1)">
     <!-- ARNT -->
     <g transform="translate(434.765052 328.601739)scale(0.12 -0.12)">
      <defs>
       <path d="M 9.8125 72.90625 
L 23.09375 72.90625 
L 55.421875 11.921875 
L 55.421875 72.90625 
L 64.984375 72.90625 
L 64.984375 0 
L 51.703125 0 
L 19.390625 60.984375 
L 19.390625 0 
L 9.8125 0 
z
" id="DejaVuSans-78"/>
       <path d="M -0.296875 72.90625 
L 61.375 72.90625 
L 61.375 64.59375 
L 35.5 64.59375 
L 35.5 0 
L 25.59375 0 
L 25.59375 64.59375 
L -0.296875 64.59375 
z
" id="DejaVuSans-84"/>
      </defs>
      <use xlink:href="#DejaVuSans-65"/>
      <use x="68.408203" xlink:href="#DejaVuSans-82"/>
      <use x="137.890625" xlink:href="#DejaVuSans-78"/>
      <use x="212.695312" xlink:href="#DejaVuSans-84"/>
     </g>
    </g>
   </g>
   <g id="text_5">
    <g clip-path="url(#p59dcead0c1)">
     <!-- EP300 -->
     <g transform="translate(435.481541 324.868702)scale(0.12 -0.12)">
      <defs>
       <path d="M 19.671875 64.796875 
L 19.671875 37.40625 
L 32.078125 37.40625 
Q 38.96875 37.40625 42.71875 40.96875 
Q 46.484375 44.53125 46.484375 51.125 
Q 46.484375 57.671875 42.71875 61.234375 
Q 38.96875 64.796875 32.078125 64.796875 
z
M 9.8125 72.90625 
L 32.078125 72.90625 
Q 44.34375 72.90625 50.609375 67.359375 
Q 56.890625 61.8125 56.890625 51.125 
Q 56.890625 40.328125 50.609375 34.8125 
Q 44.34375 29.296875 32.078125 29.296875 
L 19.671875 29.296875 
L 19.671875 0 
L 9.8125 0 
z
" id="DejaVuSans-80"/>
       <path d="M 40.578125 39.3125 
Q 47.65625 37.796875 51.625 33 
Q 55.609375 28.21875 55.609375 21.1875 
Q 55.609375 10.40625 48.1875 4.484375 
Q 40.765625 -1.421875 27.09375 -1.421875 
Q 22.515625 -1.421875 17.65625 -0.515625 
Q 12.796875 0.390625 7.625 2.203125 
L 7.625 11.71875 
Q 11.71875 9.328125 16.59375 8.109375 
Q 21.484375 6.890625 26.8125 6.890625 
Q 36.078125 6.890625 40.9375 10.546875 
Q 45.796875 14.203125 45.796875 21.1875 
Q 45.796875 27.640625 41.28125 31.265625 
Q 36.765625 34.90625 28.71875 34.90625 
L 20.21875 34.90625 
L 20.21875 43.015625 
L 29.109375 43.015625 
Q 36.375 43.015625 40.234375 45.921875 
Q 44.09375 48.828125 44.09375 54.296875 
Q 44.09375 59.90625 40.109375 62.90625 
Q 36.140625 65.921875 28.71875 65.921875 
Q 24.65625 65.921875 20.015625 65.03125 
Q 15.375 64.15625 9.8125 62.3125 
L 9.8125 71.09375 
Q 15.4375 72.65625 20.34375 73.4375 
Q 25.25 74.21875 29.59375 74.21875 
Q 40.828125 74.21875 47.359375 69.109375 
Q 53.90625 64.015625 53.90625 55.328125 
Q 53.90625 49.265625 50.4375 45.09375 
Q 46.96875 40.921875 40.578125 39.3125 
z
" id="DejaVuSans-51"/>
       <path d="M 31.78125 66.40625 
Q 24.171875 66.40625 20.328125 58.90625 
Q 16.5 51.421875 16.5 36.375 
Q 16.5 21.390625 20.328125 13.890625 
Q 24.171875 6.390625 31.78125 6.390625 
Q 39.453125 6.390625 43.28125 13.890625 
Q 47.125 21.390625 47.125 36.375 
Q 47.125 51.421875 43.28125 58.90625 
Q 39.453125 66.40625 31.78125 66.40625 
z
M 31.78125 74.21875 
Q 44.046875 74.21875 50.515625 64.515625 
Q 56.984375 54.828125 56.984375 36.375 
Q 56.984375 17.96875 50.515625 8.265625 
Q 44.046875 -1.421875 31.78125 -1.421875 
Q 19.53125 -1.421875 13.0625 8.265625 
Q 6.59375 17.96875 6.59375 36.375 
Q 6.59375 54.828125 13.0625 64.515625 
Q 19.53125 74.21875 31.78125 74.21875 
z
" id="DejaVuSans-48"/>
      </defs>
      <use xlink:href="#DejaVuSans-69"/>
      <use x="63.183594" xlink:href="#DejaVuSans-80"/>
      <use x="123.486328" xlink:href="#DejaVuSans-51"/>
      <use x="187.109375" xlink:href="#DejaVuSans-48"/>
      <use x="250.732422" xlink:href="#DejaVuSans-48"/>
     </g>
    </g>
   </g>
   <g id="text_6">
    <g clip-path="url(#p59dcead0c1)">
     <!-- HIF1A -->
     <g transform="translate(440.44338 329.018784)scale(0.12 -0.12)">
      <defs>
       <path d="M 9.8125 72.90625 
L 19.671875 72.90625 
L 19.671875 0 
L 9.8125 0 
z
" id="DejaVuSans-73"/>
      </defs>
      <use xlink:href="#DejaVuSans-72"/>
      <use x="75.195312" xlink:href="#DejaVuSans-73"/>
      <use x="104.6875" xlink:href="#DejaVuSans-70"/>
      <use x="162.207031" xlink:href="#DejaVuSans-49"/>
      <use x="225.830078" xlink:href="#DejaVuSans-65"/>
     </g>
    </g>
   </g>
   <g id="text_7">
    <g clip-path="url(#p59dcead0c1)">
     <!-- SLC2A1 -->
     <g transform="translate(587.841161 154.479896)scale(0.12 -0.12)">
      <defs>
       <path d="M 53.515625 70.515625 
L 53.515625 60.890625 
Q 47.90625 63.578125 42.921875 64.890625 
Q 37.9375 66.21875 33.296875 66.21875 
Q 25.25 66.21875 20.875 63.09375 
Q 16.5 59.96875 16.5 54.203125 
Q 16.5 49.359375 19.40625 46.890625 
Q 22.3125 44.4375 30.421875 42.921875 
L 36.375 41.703125 
Q 47.40625 39.59375 52.65625 34.296875 
Q 57.90625 29 57.90625 20.125 
Q 57.90625 9.515625 50.796875 4.046875 
Q 43.703125 -1.421875 29.984375 -1.421875 
Q 24.8125 -1.421875 18.96875 -0.25 
Q 13.140625 0.921875 6.890625 3.21875 
L 6.890625 13.375 
Q 12.890625 10.015625 18.65625 8.296875 
Q 24.421875 6.59375 29.984375 6.59375 
Q 38.421875 6.59375 43.015625 9.90625 
Q 47.609375 13.234375 47.609375 19.390625 
Q 47.609375 24.75 44.3125 27.78125 
Q 41.015625 30.8125 33.5 32.328125 
L 27.484375 33.5 
Q 16.453125 35.6875 11.515625 40.375 
Q 6.59375 45.0625 6.59375 53.421875 
Q 6.59375 63.09375 13.40625 68.65625 
Q 20.21875 74.21875 32.171875 74.21875 
Q 37.3125 74.21875 42.625 73.28125 
Q 47.953125 72.359375 53.515625 70.515625 
z
" id="DejaVuSans-83"/>
       <path d="M 64.40625 67.28125 
L 64.40625 56.890625 
Q 59.421875 61.53125 53.78125 63.8125 
Q 48.140625 66.109375 41.796875 66.109375 
Q 29.296875 66.109375 22.65625 58.46875 
Q 16.015625 50.828125 16.015625 36.375 
Q 16.015625 21.96875 22.65625 14.328125 
Q 29.296875 6.6875 41.796875 6.6875 
Q 48.140625 6.6875 53.78125 8.984375 
Q 59.421875 11.28125 64.40625 15.921875 
L 64.40625 5.609375 
Q 59.234375 2.09375 53.4375 0.328125 
Q 47.65625 -1.421875 41.21875 -1.421875 
Q 24.65625 -1.421875 15.125 8.703125 
Q 5.609375 18.84375 5.609375 36.375 
Q 5.609375 53.953125 15.125 64.078125 
Q 24.65625 74.21875 41.21875 74.21875 
Q 47.75 74.21875 53.53125 72.484375 
Q 59.328125 70.75 64.40625 67.28125 
z
" id="DejaVuSans-67"/>
       <path d="M 19.1875 8.296875 
L 53.609375 8.296875 
L 53.609375 0 
L 7.328125 0 
L 7.328125 8.296875 
Q 12.9375 14.109375 22.625 23.890625 
Q 32.328125 33.6875 34.8125 36.53125 
Q 39.546875 41.84375 41.421875 45.53125 
Q 43.3125 49.21875 43.3125 52.78125 
Q 43.3125 58.59375 39.234375 62.25 
Q 35.15625 65.921875 28.609375 65.921875 
Q 23.96875 65.921875 18.8125 64.3125 
Q 13.671875 62.703125 7.8125 59.421875 
L 7.8125 69.390625 
Q 13.765625 71.78125 18.9375 73 
Q 24.125 74.21875 28.421875 74.21875 
Q 39.75 74.21875 46.484375 68.546875 
Q 53.21875 62.890625 53.21875 53.421875 
Q 53.21875 48.921875 51.53125 44.890625 
Q 49.859375 40.875 45.40625 35.40625 
Q 44.1875 33.984375 37.640625 27.21875 
Q 31.109375 20.453125 19.1875 8.296875 
z
" id="DejaVuSans-50"/>
      </defs>
      <use xlink:href="#DejaVuSans-83"/>
      <use x="63.476562" xlink:href="#DejaVuSans-76"/>
      <use x="119.189453" xlink:href="#DejaVuSans-67"/>
      <use x="189.013672" xlink:href="#DejaVuSans-50"/>
      <use x="252.636719" xlink:href="#DejaVuSans-65"/>
      <use x="321.044922" xlink:href="#DejaVuSans-49"/>
     </g>
    </g>
   </g>
   <g id="text_8">
    <g clip-path="url(#p59dcead0c1)">
     <!-- MTOR -->
     <g transform="translate(345.373253 303.871282)scale(0.12 -0.12)">
      <defs>
       <path d="M 9.8125 72.90625 
L 24.515625 72.90625 
L 43.109375 23.296875 
L 61.8125 72.90625 
L 76.515625 72.90625 
L 76.515625 0 
L 66.890625 0 
L 66.890625 64.015625 
L 48.09375 14.015625 
L 38.1875 14.015625 
L 19.390625 64.015625 
L 19.390625 0 
L 9.8125 0 
z
" id="DejaVuSans-77"/>
       <path d="M 39.40625 66.21875 
Q 28.65625 66.21875 22.328125 58.203125 
Q 16.015625 50.203125 16.015625 36.375 
Q 16.015625 22.609375 22.328125 14.59375 
Q 28.65625 6.59375 39.40625 6.59375 
Q 50.140625 6.59375 56.421875 14.59375 
Q 62.703125 22.609375 62.703125 36.375 
Q 62.703125 50.203125 56.421875 58.203125 
Q 50.140625 66.21875 39.40625 66.21875 
z
M 39.40625 74.21875 
Q 54.734375 74.21875 63.90625 63.9375 
Q 73.09375 53.65625 73.09375 36.375 
Q 73.09375 19.140625 63.90625 8.859375 
Q 54.734375 -1.421875 39.40625 -1.421875 
Q 24.03125 -1.421875 14.8125 8.828125 
Q 5.609375 19.09375 5.609375 36.375 
Q 5.609375 53.65625 14.8125 63.9375 
Q 24.03125 74.21875 39.40625 74.21875 
z
" id="DejaVuSans-79"/>
      </defs>
      <use xlink:href="#DejaVuSans-77"/>
      <use x="86.279297" xlink:href="#DejaVuSans-84"/>
      <use x="147.363281" xlink:href="#DejaVuSans-79"/>
      <use x="226.074219" xlink:href="#DejaVuSans-82"/>
     </g>
    </g>
   </g>
   <g id="text_9">
    <g clip-path="url(#p59dcead0c1)">
     <!-- PDK1 -->
     <g transform="translate(408.362745 228.462118)scale(0.12 -0.12)">
      <defs>
       <path d="M 19.671875 64.796875 
L 19.671875 8.109375 
L 31.59375 8.109375 
Q 46.6875 8.109375 53.6875 14.9375 
Q 60.6875 21.78125 60.6875 36.53125 
Q 60.6875 51.171875 53.6875 57.984375 
Q 46.6875 64.796875 31.59375 64.796875 
z
M 9.8125 72.90625 
L 30.078125 72.90625 
Q 51.265625 72.90625 61.171875 64.09375 
Q 71.09375 55.28125 71.09375 36.53125 
Q 71.09375 17.671875 61.125 8.828125 
Q 51.171875 0 30.078125 0 
L 9.8125 0 
z
" id="DejaVuSans-68"/>
       <path d="M 9.8125 72.90625 
L 19.671875 72.90625 
L 19.671875 42.09375 
L 52.390625 72.90625 
L 65.09375 72.90625 
L 28.90625 38.921875 
L 67.671875 0 
L 54.6875 0 
L 19.671875 35.109375 
L 19.671875 0 
L 9.8125 0 
z
" id="DejaVuSans-75"/>
      </defs>
      <use xlink:href="#DejaVuSans-80"/>
      <use x="60.302734" xlink:href="#DejaVuSans-68"/>
      <use x="137.304688" xlink:href="#DejaVuSans-75"/>
      <use x="202.880859" xlink:href="#DejaVuSans-49"/>
     </g>
    </g>
   </g>
   <g id="text_10">
    <g clip-path="url(#p59dcead0c1)">
     <!-- GAPDH -->
     <g transform="translate(209.063745 406.652391)scale(0.12 -0.12)">
      <use xlink:href="#DejaVuSans-71"/>
      <use x="77.490234" xlink:href="#DejaVuSans-65"/>
      <use x="145.898438" xlink:href="#DejaVuSans-80"/>
      <use x="206.201172" xlink:href="#DejaVuSans-68"/>
      <use x="283.203125" xlink:href="#DejaVuSans-72"/>
     </g>
    </g>
   </g>
   <g id="text_11">
    <g clip-path="url(#p59dcead0c1)">
     <!-- PFKFB3 -->
     <g transform="translate(184.794649 356.026)scale(0.12 -0.12)">
      <use xlink:href="#DejaVuSans-80"/>
      <use x="60.302734" xlink:href="#DejaVuSans-70"/>
      <use x="117.822266" xlink:href="#DejaVuSans-75"/>
      <use x="183.398438" xlink:href="#DejaVuSans-70"/>
      <use x="240.917969" xlink:href="#DejaVuSans-66"/>
      <use x="309.521484" xlink:href="#DejaVuSans-51"/>
     </g>
    </g>
   </g>
   <g id="text_12">
    <g clip-path="url(#p59dcead0c1)">
     <!-- EPO -->
     <g transform="translate(321.492231 461.475947)scale(0.12 -0.12)">
      <use xlink:href="#DejaVuSans-69"/>
      <use x="63.183594" xlink:href="#DejaVuSans-80"/>
      <use x="123.486328" xlink:href="#DejaVuSans-79"/>
     </g>
    </g>
   </g>
   <g id="text_13">
    <g clip-path="url(#p59dcead0c1)">
     <!-- TF -->
     <g transform="translate(607.781518 434.807681)scale(0.12 -0.12)">
      <use xlink:href="#DejaVuSans-84"/>
      <use x="61.083984" xlink:href="#DejaVuSans-70"/>
     </g>
    </g>
   </g>
   <g id="text_14">
    <g clip-path="url(#p59dcead0c1)">
     <!-- TFRC -->
     <g transform="translate(406.598605 477.463977)scale(0.12 -0.12)">
      <use xlink:href="#DejaVuSans-84"/>
      <use x="61.083984" xlink:href="#DejaVuSans-70"/>
      <use x="118.603516" xlink:href="#DejaVuSans-82"/>
      <use x="183.085938" xlink:href="#DejaVuSans-67"/>
     </g>
    </g>
   </g>
   <g id="text_15">
    <g clip-path="url(#p59dcead0c1)">
     <!-- FLT1 -->
     <g transform="translate(183.460017 233.948092)scale(0.12 -0.12)">
      <use xlink:href="#DejaVuSans-70"/>
      <use x="57.519531" xlink:href="#DejaVuSans-76"/>
      <use x="99.482422" xlink:href="#DejaVuSans-84"/>
      <use x="160.566406" xlink:href="#DejaVuSans-49"/>
     </g>
    </g>
   </g>
   <g id="text_16">
    <g clip-path="url(#p59dcead0c1)">
     <!-- EGF -->
     <g transform="translate(359.553888 225.186255)scale(0.12 -0.12)">
      <use xlink:href="#DejaVuSans-69"/>
      <use x="63.183594" xlink:href="#DejaVuSans-71"/>
      <use x="140.673828" xlink:href="#DejaVuSans-70"/>
     </g>
    </g>
   </g>
   <g id="text_17">
    <g clip-path="url(#p59dcead0c1)">
     <!-- SERPINE1 -->
     <g transform="translate(533.784558 129.91579)scale(0.12 -0.12)">
      <use xlink:href="#DejaVuSans-83"/>
      <use x="63.476562" xlink:href="#DejaVuSans-69"/>
      <use x="126.660156" xlink:href="#DejaVuSans-82"/>
      <use x="196.142578" xlink:href="#DejaVuSans-80"/>
      <use x="256.445312" xlink:href="#DejaVuSans-73"/>
      <use x="285.9375" xlink:href="#DejaVuSans-78"/>
      <use x="360.742188" xlink:href="#DejaVuSans-69"/>
      <use x="423.925781" xlink:href="#DejaVuSans-49"/>
     </g>
    </g>
   </g>
   <g id="text_18">
    <g clip-path="url(#p59dcead0c1)">
     <!-- TEK -->
     <g transform="translate(450.185187 467.182015)scale(0.12 -0.12)">
      <use xlink:href="#DejaVuSans-84"/>
      <use x="61.083984" xlink:href="#DejaVuSans-69"/>
      <use x="124.267578" xlink:href="#DejaVuSans-75"/>
     </g>
    </g>
   </g>
   <g id="text_19">
    <g clip-path="url(#p59dcead0c1)">
     <!-- TIMP1 -->
     <g transform="translate(701.44734 267.427426)scale(0.12 -0.12)">
      <use xlink:href="#DejaVuSans-84"/>
      <use x="61.083984" xlink:href="#DejaVuSans-73"/>
      <use x="90.576172" xlink:href="#DejaVuSans-77"/>
      <use x="176.855469" xlink:href="#DejaVuSans-80"/>
      <use x="237.158203" xlink:href="#DejaVuSans-49"/>
     </g>
    </g>
   </g>
   <g id="text_20">
    <g clip-path="url(#p59dcead0c1)">
     <!-- EDN1 -->
     <g transform="translate(182.654303 381.468203)scale(0.12 -0.12)">
      <use xlink:href="#DejaVuSans-69"/>
      <use x="63.183594" xlink:href="#DejaVuSans-68"/>
      <use x="140.185547" xlink:href="#DejaVuSans-78"/>
      <use x="214.990234" xlink:href="#DejaVuSans-49"/>
     </g>
    </g>
   </g>
   <g id="text_21">
    <g clip-path="url(#p59dcead0c1)">
     <!-- NOS2 -->
     <g transform="translate(567.36253 459.073082)scale(0.12 -0.12)">
      <use xlink:href="#DejaVuSans-78"/>
      <use x="74.804688" xlink:href="#DejaVuSans-79"/>
      <use x="153.515625" xlink:href="#DejaVuSans-83"/>
      <use x="216.992188" xlink:href="#DejaVuSans-50"/>
     </g>
    </g>
   </g>
   <g id="text_22">
    <g clip-path="url(#p59dcead0c1)">
     <!-- NOS3 -->
     <g transform="translate(671.466613 393.770134)scale(0.12 -0.12)">
      <use xlink:href="#DejaVuSans-78"/>
      <use x="74.804688" xlink:href="#DejaVuSans-79"/>
      <use x="153.515625" xlink:href="#DejaVuSans-83"/>
      <use x="216.992188" xlink:href="#DejaVuSans-51"/>
     </g>
    </g>
   </g>
   <g id="text_23">
    <g clip-path="url(#p59dcead0c1)">
     <!-- HMOX1 -->
     <g transform="translate(481.363158 110.918523)scale(0.12 -0.12)">
      <use xlink:href="#DejaVuSans-72"/>
      <use x="75.195312" xlink:href="#DejaVuSans-77"/>
      <use x="161.474609" xlink:href="#DejaVuSans-79"/>
      <use x="233.810547" xlink:href="#DejaVuSans-88"/>
      <use x="302.316406" xlink:href="#DejaVuSans-49"/>
     </g>
    </g>
   </g>
   <g id="text_24">
    <g clip-path="url(#p59dcead0c1)">
     <!-- NPPA -->
     <g transform="translate(687.334897 202.877147)scale(0.12 -0.12)">
      <use xlink:href="#DejaVuSans-78"/>
      <use x="74.804688" xlink:href="#DejaVuSans-80"/>
      <use x="135.107422" xlink:href="#DejaVuSans-80"/>
      <use x="189.035156" xlink:href="#DejaVuSans-65"/>
     </g>
    </g>
   </g>
   <g id="text_25">
    <g clip-path="url(#p59dcead0c1)">
     <!-- TLR4 -->
     <g transform="translate(507.452882 321.995036)scale(0.12 -0.12)">
      <defs>
       <path d="M 37.796875 64.3125 
L 12.890625 25.390625 
L 37.796875 25.390625 
z
M 35.203125 72.90625 
L 47.609375 72.90625 
L 47.609375 25.390625 
L 58.015625 25.390625 
L 58.015625 17.1875 
L 47.609375 17.1875 
L 47.609375 0 
L 37.796875 0 
L 37.796875 17.1875 
L 4.890625 17.1875 
L 4.890625 26.703125 
z
" id="DejaVuSans-52"/>
      </defs>
      <use xlink:href="#DejaVuSans-84"/>
      <use x="61.083984" xlink:href="#DejaVuSans-76"/>
      <use x="116.796875" xlink:href="#DejaVuSans-82"/>
      <use x="186.279297" xlink:href="#DejaVuSans-52"/>
     </g>
    </g>
   </g>
   <g id="text_26">
    <g clip-path="url(#p59dcead0c1)">
     <!-- IFNG -->
     <g transform="translate(411.015267 346.758958)scale(0.12 -0.12)">
      <use xlink:href="#DejaVuSans-73"/>
      <use x="29.492188" xlink:href="#DejaVuSans-70"/>
      <use x="87.011719" xlink:href="#DejaVuSans-78"/>
      <use x="161.816406" xlink:href="#DejaVuSans-71"/>
     </g>
    </g>
   </g>
   <g id="text_27">
    <g clip-path="url(#p59dcead0c1)">
     <!-- IL6 -->
     <g transform="translate(551.170537 226.374085)scale(0.12 -0.12)">
      <defs>
       <path d="M 33.015625 40.375 
Q 26.375 40.375 22.484375 35.828125 
Q 18.609375 31.296875 18.609375 23.390625 
Q 18.609375 15.53125 22.484375 10.953125 
Q 26.375 6.390625 33.015625 6.390625 
Q 39.65625 6.390625 43.53125 10.953125 
Q 47.40625 15.53125 47.40625 23.390625 
Q 47.40625 31.296875 43.53125 35.828125 
Q 39.65625 40.375 33.015625 40.375 
z
M 52.59375 71.296875 
L 52.59375 62.3125 
Q 48.875 64.0625 45.09375 64.984375 
Q 41.3125 65.921875 37.59375 65.921875 
Q 27.828125 65.921875 22.671875 59.328125 
Q 17.53125 52.734375 16.796875 39.40625 
Q 19.671875 43.65625 24.015625 45.921875 
Q 28.375 48.1875 33.59375 48.1875 
Q 44.578125 48.1875 50.953125 41.515625 
Q 57.328125 34.859375 57.328125 23.390625 
Q 57.328125 12.15625 50.6875 5.359375 
Q 44.046875 -1.421875 33.015625 -1.421875 
Q 20.359375 -1.421875 13.671875 8.265625 
Q 6.984375 17.96875 6.984375 36.375 
Q 6.984375 53.65625 15.1875 63.9375 
Q 23.390625 74.21875 37.203125 74.21875 
Q 40.921875 74.21875 44.703125 73.484375 
Q 48.484375 72.75 52.59375 71.296875 
z
" id="DejaVuSans-54"/>
      </defs>
      <use xlink:href="#DejaVuSans-73"/>
      <use x="29.492188" xlink:href="#DejaVuSans-76"/>
      <use x="85.205078" xlink:href="#DejaVuSans-54"/>
     </g>
    </g>
   </g>
   <g id="text_28">
    <g clip-path="url(#p59dcead0c1)">
     <!-- IL6R -->
     <g transform="translate(483.0692 307.130324)scale(0.12 -0.12)">
      <use xlink:href="#DejaVuSans-73"/>
      <use x="29.492188" xlink:href="#DejaVuSans-76"/>
      <use x="85.205078" xlink:href="#DejaVuSans-54"/>
      <use x="148.828125" xlink:href="#DejaVuSans-82"/>
     </g>
    </g>
   </g>
   <g id="text_29">
    <g clip-path="url(#p59dcead0c1)">
     <!-- STAT3 -->
     <g transform="translate(552.262082 382.770136)scale(0.12 -0.12)">
      <use xlink:href="#DejaVuSans-83"/>
      <use x="63.476562" xlink:href="#DejaVuSans-84"/>
      <use x="116.810547" xlink:href="#DejaVuSans-65"/>
      <use x="177.46875" xlink:href="#DejaVuSans-84"/>
      <use x="238.552734" xlink:href="#DejaVuSans-51"/>
     </g>
    </g>
   </g>
   <g id="text_30">
    <g clip-path="url(#p59dcead0c1)">
     <!-- EIF4EBP1 -->
     <g transform="translate(370.827569 351.777334)scale(0.12 -0.12)">
      <use xlink:href="#DejaVuSans-69"/>
      <use x="63.183594" xlink:href="#DejaVuSans-73"/>
      <use x="92.675781" xlink:href="#DejaVuSans-70"/>
      <use x="150.195312" xlink:href="#DejaVuSans-52"/>
      <use x="213.818359" xlink:href="#DejaVuSans-69"/>
      <use x="277.001953" xlink:href="#DejaVuSans-66"/>
      <use x="345.605469" xlink:href="#DejaVuSans-80"/>
      <use x="405.908203" xlink:href="#DejaVuSans-49"/>
     </g>
    </g>
   </g>
   <g id="text_31">
    <g clip-path="url(#p59dcead0c1)">
     <!-- EIF4E -->
     <g transform="translate(165.355869 329.824822)scale(0.12 -0.12)">
      <use xlink:href="#DejaVuSans-69"/>
      <use x="63.183594" xlink:href="#DejaVuSans-73"/>
      <use x="92.675781" xlink:href="#DejaVuSans-70"/>
      <use x="150.195312" xlink:href="#DejaVuSans-52"/>
      <use x="213.818359" xlink:href="#DejaVuSans-69"/>
     </g>
    </g>
   </g>
   <g id="text_32">
    <g clip-path="url(#p59dcead0c1)">
     <!-- BCL2 -->
     <g transform="translate(236.582648 432.978257)scale(0.12 -0.12)">
      <use xlink:href="#DejaVuSans-66"/>
      <use x="66.853516" xlink:href="#DejaVuSans-67"/>
      <use x="136.677734" xlink:href="#DejaVuSans-76"/>
      <use x="192.390625" xlink:href="#DejaVuSans-50"/>
     </g>
    </g>
   </g>
   <g id="text_33">
    <g clip-path="url(#p59dcead0c1)">
     <!-- INS -->
     <g transform="translate(366.432971 163.848224)scale(0.12 -0.12)">
      <use xlink:href="#DejaVuSans-73"/>
      <use x="29.492188" xlink:href="#DejaVuSans-78"/>
      <use x="104.296875" xlink:href="#DejaVuSans-83"/>
     </g>
    </g>
   </g>
   <g id="text_34">
    <g clip-path="url(#p59dcead0c1)">
     <!-- IGF1 -->
     <g transform="translate(437.521731 192.615551)scale(0.12 -0.12)">
      <use xlink:href="#DejaVuSans-73"/>
      <use x="29.492188" xlink:href="#DejaVuSans-71"/>
      <use x="106.982422" xlink:href="#DejaVuSans-70"/>
      <use x="164.501953" xlink:href="#DejaVuSans-49"/>
     </g>
    </g>
   </g>
   <g id="text_35">
    <g clip-path="url(#p59dcead0c1)">
     <!-- INSR -->
     <g transform="translate(397.029069 213.839228)scale(0.12 -0.12)">
      <use xlink:href="#DejaVuSans-73"/>
      <use x="29.492188" xlink:href="#DejaVuSans-78"/>
      <use x="104.296875" xlink:href="#DejaVuSans-83"/>
      <use x="167.773438" xlink:href="#DejaVuSans-82"/>
     </g>
    </g>
   </g>
   <g id="text_36">
    <g clip-path="url(#p59dcead0c1)">
     <!-- EGFR -->
     <g transform="translate(388.802831 233.74837)scale(0.12 -0.12)">
      <use xlink:href="#DejaVuSans-69"/>
      <use x="63.183594" xlink:href="#DejaVuSans-71"/>
      <use x="140.673828" xlink:href="#DejaVuSans-70"/>
      <use x="198.193359" xlink:href="#DejaVuSans-82"/>
     </g>
    </g>
   </g>
   <g id="text_37">
    <g clip-path="url(#p59dcead0c1)">
     <!-- IGF1R -->
     <g transform="translate(374.800313 197.349074)scale(0.12 -0.12)">
      <use xlink:href="#DejaVuSans-73"/>
      <use x="29.492188" xlink:href="#DejaVuSans-71"/>
      <use x="106.982422" xlink:href="#DejaVuSans-70"/>
      <use x="164.501953" xlink:href="#DejaVuSans-49"/>
      <use x="228.125" xlink:href="#DejaVuSans-82"/>
     </g>
    </g>
   </g>
   <g id="text_38">
    <g clip-path="url(#p59dcead0c1)">
     <!-- ERBB2 -->
     <g transform="translate(370.795981 211.359031)scale(0.12 -0.12)">
      <use xlink:href="#DejaVuSans-69"/>
      <use x="63.183594" xlink:href="#DejaVuSans-82"/>
      <use x="132.666016" xlink:href="#DejaVuSans-66"/>
      <use x="201.269531" xlink:href="#DejaVuSans-66"/>
      <use x="269.873047" xlink:href="#DejaVuSans-50"/>
     </g>
    </g>
   </g>
   <g id="text_39">
    <g clip-path="url(#p59dcead0c1)">
     <!-- PRKCA -->
     <g transform="translate(479.425787 268.292159)scale(0.12 -0.12)">
      <use xlink:href="#DejaVuSans-80"/>
      <use x="60.302734" xlink:href="#DejaVuSans-82"/>
      <use x="129.785156" xlink:href="#DejaVuSans-75"/>
      <use x="189.861328" xlink:href="#DejaVuSans-67"/>
      <use x="259.685547" xlink:href="#DejaVuSans-65"/>
     </g>
    </g>
   </g>
   <g id="text_40">
    <g clip-path="url(#p59dcead0c1)">
     <!-- PRKCB -->
     <g transform="translate(244.157383 243.080463)scale(0.12 -0.12)">
      <use xlink:href="#DejaVuSans-80"/>
      <use x="60.302734" xlink:href="#DejaVuSans-82"/>
      <use x="129.785156" xlink:href="#DejaVuSans-75"/>
      <use x="189.861328" xlink:href="#DejaVuSans-67"/>
      <use x="259.685547" xlink:href="#DejaVuSans-66"/>
     </g>
    </g>
   </g>
   <g id="text_41">
    <g clip-path="url(#p59dcead0c1)">
     <!-- PRKCG -->
     <g transform="translate(233.375474 280.095915)scale(0.12 -0.12)">
      <use xlink:href="#DejaVuSans-80"/>
      <use x="60.302734" xlink:href="#DejaVuSans-82"/>
      <use x="129.785156" xlink:href="#DejaVuSans-75"/>
      <use x="189.861328" xlink:href="#DejaVuSans-67"/>
      <use x="259.685547" xlink:href="#DejaVuSans-71"/>
     </g>
    </g>
   </g>
   <g id="text_42">
    <g clip-path="url(#p59dcead0c1)">
     <!-- PDHB -->
     <g transform="translate(250.493165 176.587019)scale(0.12 -0.12)">
      <use xlink:href="#DejaVuSans-80"/>
      <use x="60.302734" xlink:href="#DejaVuSans-68"/>
      <use x="137.304688" xlink:href="#DejaVuSans-72"/>
      <use x="212.5" xlink:href="#DejaVuSans-66"/>
     </g>
    </g>
   </g>
   <g id="text_43">
    <g clip-path="url(#p59dcead0c1)">
     <!-- ANGPT1 -->
     <g transform="translate(354.652764 462.337108)scale(0.12 -0.12)">
      <use xlink:href="#DejaVuSans-65"/>
      <use x="68.408203" xlink:href="#DejaVuSans-78"/>
      <use x="143.212891" xlink:href="#DejaVuSans-71"/>
      <use x="220.703125" xlink:href="#DejaVuSans-80"/>
      <use x="281.005859" xlink:href="#DejaVuSans-84"/>
      <use x="342.089844" xlink:href="#DejaVuSans-49"/>
     </g>
    </g>
   </g>
   <g id="text_44">
    <g clip-path="url(#p59dcead0c1)">
     <!-- ANGPT2 -->
     <g transform="translate(673.752051 233.894723)scale(0.12 -0.12)">
      <use xlink:href="#DejaVuSans-65"/>
      <use x="68.408203" xlink:href="#DejaVuSans-78"/>
      <use x="143.212891" xlink:href="#DejaVuSans-71"/>
      <use x="220.703125" xlink:href="#DejaVuSans-80"/>
      <use x="281.005859" xlink:href="#DejaVuSans-84"/>
      <use x="342.089844" xlink:href="#DejaVuSans-50"/>
     </g>
    </g>
   </g>
   <g id="text_45">
    <g clip-path="url(#p59dcead0c1)">
     <!-- ANGPT4 -->
     <g transform="translate(484.285045 468.875389)scale(0.12 -0.12)">
      <use xlink:href="#DejaVuSans-65"/>
      <use x="68.408203" xlink:href="#DejaVuSans-78"/>
      <use x="143.212891" xlink:href="#DejaVuSans-71"/>
      <use x="220.703125" xlink:href="#DejaVuSans-80"/>
      <use x="281.005859" xlink:href="#DejaVuSans-84"/>
      <use x="342.089844" xlink:href="#DejaVuSans-52"/>
     </g>
    </g>
   </g>
   <g id="text_46">
    <g clip-path="url(#p59dcead0c1)">
     <!-- RELA -->
     <g transform="translate(586.704207 329.689146)scale(0.12 -0.12)">
      <use xlink:href="#DejaVuSans-82"/>
      <use x="69.482422" xlink:href="#DejaVuSans-69"/>
      <use x="132.666016" xlink:href="#DejaVuSans-76"/>
      <use x="190.628906" xlink:href="#DejaVuSans-65"/>
     </g>
    </g>
   </g>
   <g id="text_47">
    <g clip-path="url(#p59dcead0c1)">
     <!-- NFKB1 -->
     <g transform="translate(467.760505 411.004716)scale(0.12 -0.12)">
      <use xlink:href="#DejaVuSans-78"/>
      <use x="74.804688" xlink:href="#DejaVuSans-70"/>
      <use x="132.324219" xlink:href="#DejaVuSans-75"/>
      <use x="197.900391" xlink:href="#DejaVuSans-66"/>
      <use x="266.503906" xlink:href="#DejaVuSans-49"/>
     </g>
    </g>
   </g>
   <g id="text_48">
    <g clip-path="url(#p59dcead0c1)">
     <!-- IFNGR1 -->
     <g transform="translate(533.052443 350.949225)scale(0.12 -0.12)">
      <use xlink:href="#DejaVuSans-73"/>
      <use x="29.492188" xlink:href="#DejaVuSans-70"/>
      <use x="87.011719" xlink:href="#DejaVuSans-78"/>
      <use x="161.816406" xlink:href="#DejaVuSans-71"/>
      <use x="239.306641" xlink:href="#DejaVuSans-82"/>
      <use x="308.789062" xlink:href="#DejaVuSans-49"/>
     </g>
    </g>
   </g>
   <g id="text_49">
    <g clip-path="url(#p59dcead0c1)">
     <!-- IFNGR2 -->
     <g transform="translate(491.418639 378.94319)scale(0.12 -0.12)">
      <use xlink:href="#DejaVuSans-73"/>
      <use x="29.492188" xlink:href="#DejaVuSans-70"/>
      <use x="87.011719" xlink:href="#DejaVuSans-78"/>
      <use x="161.816406" xlink:href="#DejaVuSans-71"/>
      <use x="239.306641" xlink:href="#DejaVuSans-82"/>
      <use x="308.789062" xlink:href="#DejaVuSans-50"/>
     </g>
    </g>
   </g>
   <g id="text_50">
    <g clip-path="url(#p59dcead0c1)">
     <!-- MAP2K1 -->
     <g transform="translate(141.637035 300.782746)scale(0.12 -0.12)">
      <use xlink:href="#DejaVuSans-77"/>
      <use x="86.279297" xlink:href="#DejaVuSans-65"/>
      <use x="154.6875" xlink:href="#DejaVuSans-80"/>
      <use x="214.990234" xlink:href="#DejaVuSans-50"/>
      <use x="278.613281" xlink:href="#DejaVuSans-75"/>
      <use x="344.189453" xlink:href="#DejaVuSans-49"/>
     </g>
    </g>
   </g>
   <g id="text_51">
    <g clip-path="url(#p59dcead0c1)">
     <!-- MAP2K2 -->
     <g transform="translate(631.265061 165.339148)scale(0.12 -0.12)">
      <use xlink:href="#DejaVuSans-77"/>
      <use x="86.279297" xlink:href="#DejaVuSans-65"/>
      <use x="154.6875" xlink:href="#DejaVuSans-80"/>
      <use x="214.990234" xlink:href="#DejaVuSans-50"/>
      <use x="278.613281" xlink:href="#DejaVuSans-75"/>
      <use x="344.189453" xlink:href="#DejaVuSans-50"/>
     </g>
    </g>
   </g>
   <g id="text_52">
    <g clip-path="url(#p59dcead0c1)">
     <!-- CDKN1A -->
     <g transform="translate(628.161827 416.423111)scale(0.12 -0.12)">
      <use xlink:href="#DejaVuSans-67"/>
      <use x="69.824219" xlink:href="#DejaVuSans-68"/>
      <use x="146.826172" xlink:href="#DejaVuSans-75"/>
      <use x="212.402344" xlink:href="#DejaVuSans-78"/>
      <use x="287.207031" xlink:href="#DejaVuSans-49"/>
      <use x="350.830078" xlink:href="#DejaVuSans-65"/>
     </g>
    </g>
   </g>
   <g id="text_53">
    <g clip-path="url(#p59dcead0c1)">
     <!-- CDKN1B -->
     <g transform="translate(149.181325 267.152224)scale(0.12 -0.12)">
      <use xlink:href="#DejaVuSans-67"/>
      <use x="69.824219" xlink:href="#DejaVuSans-68"/>
      <use x="146.826172" xlink:href="#DejaVuSans-75"/>
      <use x="212.402344" xlink:href="#DejaVuSans-78"/>
      <use x="287.207031" xlink:href="#DejaVuSans-49"/>
      <use x="350.830078" xlink:href="#DejaVuSans-66"/>
     </g>
    </g>
   </g>
   <g id="text_54">
    <!-- Frame: 11 -->
    <g transform="translate(121.392 91.296)scale(0.1 -0.1)">
     <defs>
      <path d="M 41.109375 46.296875 
Q 39.59375 47.171875 37.8125 47.578125 
Q 36.03125 48 33.890625 48 
Q 26.265625 48 22.1875 43.046875 
Q 18.109375 38.09375 18.109375 28.8125 
L 18.109375 0 
L 9.078125 0 
L 9.078125 54.6875 
L 18.109375 54.6875 
L 18.109375 46.1875 
Q 20.953125 51.171875 25.484375 53.578125 
Q 30.03125 56 36.53125 56 
Q 37.453125 56 38.578125 55.875 
Q 39.703125 55.765625 41.0625 55.515625 
z
" id="DejaVuSans-114"/>
      <path d="M 34.28125 27.484375 
Q 23.390625 27.484375 19.1875 25 
Q 14.984375 22.515625 14.984375 16.5 
Q 14.984375 11.71875 18.140625 8.90625 
Q 21.296875 6.109375 26.703125 6.109375 
Q 34.1875 6.109375 38.703125 11.40625 
Q 43.21875 16.703125 43.21875 25.484375 
L 43.21875 27.484375 
z
M 52.203125 31.203125 
L 52.203125 0 
L 43.21875 0 
L 43.21875 8.296875 
Q 40.140625 3.328125 35.546875 0.953125 
Q 30.953125 -1.421875 24.3125 -1.421875 
Q 15.921875 -1.421875 10.953125 3.296875 
Q 6 8.015625 6 15.921875 
Q 6 25.140625 12.171875 29.828125 
Q 18.359375 34.515625 30.609375 34.515625 
L 43.21875 34.515625 
L 43.21875 35.40625 
Q 43.21875 41.609375 39.140625 45 
Q 35.0625 48.390625 27.6875 48.390625 
Q 23 48.390625 18.546875 47.265625 
Q 14.109375 46.140625 10.015625 43.890625 
L 10.015625 52.203125 
Q 14.9375 54.109375 19.578125 55.046875 
Q 24.21875 56 28.609375 56 
Q 40.484375 56 46.34375 49.84375 
Q 52.203125 43.703125 52.203125 31.203125 
z
" id="DejaVuSans-97"/>
      <path d="M 52 44.1875 
Q 55.375 50.25 60.0625 53.125 
Q 64.75 56 71.09375 56 
Q 79.640625 56 84.28125 50.015625 
Q 88.921875 44.046875 88.921875 33.015625 
L 88.921875 0 
L 79.890625 0 
L 79.890625 32.71875 
Q 79.890625 40.578125 77.09375 44.375 
Q 74.3125 48.1875 68.609375 48.1875 
Q 61.625 48.1875 57.5625 43.546875 
Q 53.515625 38.921875 53.515625 30.90625 
L 53.515625 0 
L 44.484375 0 
L 44.484375 32.71875 
Q 44.484375 40.625 41.703125 44.40625 
Q 38.921875 48.1875 33.109375 48.1875 
Q 26.21875 48.1875 22.15625 43.53125 
Q 18.109375 38.875 18.109375 30.90625 
L 18.109375 0 
L 9.078125 0 
L 9.078125 54.6875 
L 18.109375 54.6875 
L 18.109375 46.1875 
Q 21.1875 51.21875 25.484375 53.609375 
Q 29.78125 56 35.6875 56 
Q 41.65625 56 45.828125 52.96875 
Q 50 49.953125 52 44.1875 
z
" id="DejaVuSans-109"/>
      <path d="M 56.203125 29.59375 
L 56.203125 25.203125 
L 14.890625 25.203125 
Q 15.484375 15.921875 20.484375 11.0625 
Q 25.484375 6.203125 34.421875 6.203125 
Q 39.59375 6.203125 44.453125 7.46875 
Q 49.3125 8.734375 54.109375 11.28125 
L 54.109375 2.78125 
Q 49.265625 0.734375 44.1875 -0.34375 
Q 39.109375 -1.421875 33.890625 -1.421875 
Q 20.796875 -1.421875 13.15625 6.1875 
Q 5.515625 13.8125 5.515625 26.8125 
Q 5.515625 40.234375 12.765625 48.109375 
Q 20.015625 56 32.328125 56 
Q 43.359375 56 49.78125 48.890625 
Q 56.203125 41.796875 56.203125 29.59375 
z
M 47.21875 32.234375 
Q 47.125 39.59375 43.09375 43.984375 
Q 39.0625 48.390625 32.421875 48.390625 
Q 24.90625 48.390625 20.390625 44.140625 
Q 15.875 39.890625 15.1875 32.171875 
z
" id="DejaVuSans-101"/>
      <path d="M 11.71875 12.40625 
L 22.015625 12.40625 
L 22.015625 0 
L 11.71875 0 
z
M 11.71875 51.703125 
L 22.015625 51.703125 
L 22.015625 39.3125 
L 11.71875 39.3125 
z
" id="DejaVuSans-58"/>
      <path id="DejaVuSans-32"/>
     </defs>
     <use xlink:href="#DejaVuSans-70"/>
     <use x="50.269531" xlink:href="#DejaVuSans-114"/>
     <use x="91.382812" xlink:href="#DejaVuSans-97"/>
     <use x="152.662109" xlink:href="#DejaVuSans-109"/>
     <use x="250.074219" xlink:href="#DejaVuSans-101"/>
     <use x="311.597656" xlink:href="#DejaVuSans-58"/>
     <use x="345.289062" xlink:href="#DejaVuSans-32"/>
     <use x="377.076172" xlink:href="#DejaVuSans-49"/>
     <use x="440.699219" xlink:href="#DejaVuSans-49"/>
    </g>
   </g>
   <g id="text_55">
    <!-- Network: hsa04066 -->
    <g transform="translate(384.1275 63.12)scale(0.12 -0.12)">
     <defs>
      <path d="M 18.3125 70.21875 
L 18.3125 54.6875 
L 36.8125 54.6875 
L 36.8125 47.703125 
L 18.3125 47.703125 
L 18.3125 18.015625 
Q 18.3125 11.328125 20.140625 9.421875 
Q 21.96875 7.515625 27.59375 7.515625 
L 36.8125 7.515625 
L 36.8125 0 
L 27.59375 0 
Q 17.1875 0 13.234375 3.875 
Q 9.28125 7.765625 9.28125 18.015625 
L 9.28125 47.703125 
L 2.6875 47.703125 
L 2.6875 54.6875 
L 9.28125 54.6875 
L 9.28125 70.21875 
z
" id="DejaVuSans-116"/>
      <path d="M 4.203125 54.6875 
L 13.1875 54.6875 
L 24.421875 12.015625 
L 35.59375 54.6875 
L 46.1875 54.6875 
L 57.421875 12.015625 
L 68.609375 54.6875 
L 77.59375 54.6875 
L 63.28125 0 
L 52.6875 0 
L 40.921875 44.828125 
L 29.109375 0 
L 18.5 0 
z
" id="DejaVuSans-119"/>
      <path d="M 30.609375 48.390625 
Q 23.390625 48.390625 19.1875 42.75 
Q 14.984375 37.109375 14.984375 27.296875 
Q 14.984375 17.484375 19.15625 11.84375 
Q 23.34375 6.203125 30.609375 6.203125 
Q 37.796875 6.203125 41.984375 11.859375 
Q 46.1875 17.53125 46.1875 27.296875 
Q 46.1875 37.015625 41.984375 42.703125 
Q 37.796875 48.390625 30.609375 48.390625 
z
M 30.609375 56 
Q 42.328125 56 49.015625 48.375 
Q 55.71875 40.765625 55.71875 27.296875 
Q 55.71875 13.875 49.015625 6.21875 
Q 42.328125 -1.421875 30.609375 -1.421875 
Q 18.84375 -1.421875 12.171875 6.21875 
Q 5.515625 13.875 5.515625 27.296875 
Q 5.515625 40.765625 12.171875 48.375 
Q 18.84375 56 30.609375 56 
z
" id="DejaVuSans-111"/>
      <path d="M 9.078125 75.984375 
L 18.109375 75.984375 
L 18.109375 31.109375 
L 44.921875 54.6875 
L 56.390625 54.6875 
L 27.390625 29.109375 
L 57.625 0 
L 45.90625 0 
L 18.109375 26.703125 
L 18.109375 0 
L 9.078125 0 
z
" id="DejaVuSans-107"/>
      <path d="M 54.890625 33.015625 
L 54.890625 0 
L 45.90625 0 
L 45.90625 32.71875 
Q 45.90625 40.484375 42.875 44.328125 
Q 39.84375 48.1875 33.796875 48.1875 
Q 26.515625 48.1875 22.3125 43.546875 
Q 18.109375 38.921875 18.109375 30.90625 
L 18.109375 0 
L 9.078125 0 
L 9.078125 75.984375 
L 18.109375 75.984375 
L 18.109375 46.1875 
Q 21.34375 51.125 25.703125 53.5625 
Q 30.078125 56 35.796875 56 
Q 45.21875 56 50.046875 50.171875 
Q 54.890625 44.34375 54.890625 33.015625 
z
" id="DejaVuSans-104"/>
      <path d="M 44.28125 53.078125 
L 44.28125 44.578125 
Q 40.484375 46.53125 36.375 47.5 
Q 32.28125 48.484375 27.875 48.484375 
Q 21.1875 48.484375 17.84375 46.4375 
Q 14.5 44.390625 14.5 40.28125 
Q 14.5 37.15625 16.890625 35.375 
Q 19.28125 33.59375 26.515625 31.984375 
L 29.59375 31.296875 
Q 39.15625 29.25 43.1875 25.515625 
Q 47.21875 21.78125 47.21875 15.09375 
Q 47.21875 7.46875 41.1875 3.015625 
Q 35.15625 -1.421875 24.609375 -1.421875 
Q 20.21875 -1.421875 15.453125 -0.5625 
Q 10.6875 0.296875 5.421875 2 
L 5.421875 11.28125 
Q 10.40625 8.6875 15.234375 7.390625 
Q 20.0625 6.109375 24.8125 6.109375 
Q 31.15625 6.109375 34.5625 8.28125 
Q 37.984375 10.453125 37.984375 14.40625 
Q 37.984375 18.0625 35.515625 20.015625 
Q 33.0625 21.96875 24.703125 23.78125 
L 21.578125 24.515625 
Q 13.234375 26.265625 9.515625 29.90625 
Q 5.8125 33.546875 5.8125 39.890625 
Q 5.8125 47.609375 11.28125 51.796875 
Q 16.75 56 26.8125 56 
Q 31.78125 56 36.171875 55.265625 
Q 40.578125 54.546875 44.28125 53.078125 
z
" id="DejaVuSans-115"/>
     </defs>
     <use xlink:href="#DejaVuSans-78"/>
     <use x="74.804688" xlink:href="#DejaVuSans-101"/>
     <use x="136.328125" xlink:href="#DejaVuSans-116"/>
     <use x="175.537109" xlink:href="#DejaVuSans-119"/>
     <use x="257.324219" xlink:href="#DejaVuSans-111"/>
     <use x="318.505859" xlink:href="#DejaVuSans-114"/>
     <use x="359.619141" xlink:href="#DejaVuSans-107"/>
     <use x="417.529297" xlink:href="#DejaVuSans-58"/>
     <use x="451.220703" xlink:href="#DejaVuSans-32"/>
     <use x="483.007812" xlink:href="#DejaVuSans-104"/>
     <use x="546.386719" xlink:href="#DejaVuSans-115"/>
     <use x="598.486328" xlink:href="#DejaVuSans-97"/>
     <use x="659.765625" xlink:href="#DejaVuSans-48"/>
     <use x="723.388672" xlink:href="#DejaVuSans-52"/>
     <use x="787.011719" xlink:href="#DejaVuSans-48"/>
     <use x="850.634766" xlink:href="#DejaVuSans-54"/>
     <use x="914.257812" xlink:href="#DejaVuSans-54"/>
    </g>
   </g>
  </g>
 </g>
 <defs>
  <clipPath id="p59dcead0c1">
   <rect height="443.52" width="669.6" x="108" y="69.12"/>
  </clipPath>
 </defs>
</svg>
