<?xml version="1.0" encoding="utf-8" standalone="no"?>
<!DOCTYPE svg PUBLIC "-//W3C//DTD SVG 1.1//EN"
  "http://www.w3.org/Graphics/SVG/1.1/DTD/svg11.dtd">
<!-- Created with matplotlib (https://matplotlib.org/) -->
<svg height="576pt" version="1.1" viewBox="0 0 864 576" width="864pt" xmlns="http://www.w3.org/2000/svg" xmlns:xlink="http://www.w3.org/1999/xlink">
 <metadata>
  <rdf:RDF xmlns:cc="http://creativecommons.org/ns#" xmlns:dc="http://purl.org/dc/elements/1.1/" xmlns:rdf="http://www.w3.org/1999/02/22-rdf-syntax-ns#">
   <cc:Work>
    <dc:type rdf:resource="http://purl.org/dc/dcmitype/StillImage"/>
    <dc:date>2024-04-10T12:42:25.154617</dc:date>
    <dc:format>image/svg+xml</dc:format>
    <dc:creator>
     <cc:Agent>
      <dc:title>Matplotlib v3.3.1, https://matplotlib.org/</dc:title>
     </cc:Agent>
    </dc:creator>
   </cc:Work>
  </rdf:RDF>
 </metadata>
 <defs>
  <style type="text/css">*{stroke-linecap:butt;stroke-linejoin:round;}</style>
 </defs>
 <g id="figure_1">
  <g id="patch_1">
   <path d="M 0 576 
L 864 576 
L 864 0 
L 0 0 
z
" style="fill:#ffffff;"/>
  </g>
  <g id="axes_1">
   <g id="patch_2">
    <path clip-path="url(#p5945bfb66e)" d="M 431.840837 227.185426 
Q 427.496464 260.444621 423.296899 292.595199 
" style="fill:none;stroke:#000000;stroke-linecap:round;"/>
    <path clip-path="url(#p5945bfb66e)" d="M 425.798138 288.887936 
L 423.296899 292.595199 
L 421.831832 288.36985 
L 425.798138 288.887936 
z
" style="stroke:#000000;stroke-linecap:round;"/>
   </g>
   <g id="patch_3">
    <path clip-path="url(#p5945bfb66e)" d="M 534.712273 245.25894 
Q 482.234894 271.818909 430.75506 297.873997 
" style="fill:none;stroke:#000000;stroke-linecap:round;"/>
    <path clip-path="url(#p5945bfb66e)" d="M 435.227142 297.852148 
L 430.75506 297.873997 
L 433.420829 294.283221 
L 435.227142 297.852148 
z
" style="stroke:#000000;stroke-linecap:round;"/>
   </g>
   <g id="patch_4">
    <path clip-path="url(#p5945bfb66e)" d="M 424.461101 304.565682 
Q 498.73809 377.125749 572.215319 448.904543 
" style="fill:none;stroke:#000000;stroke-linecap:round;"/>
    <path clip-path="url(#p5945bfb66e)" d="M 570.751598 444.678728 
L 572.215319 448.904543 
L 567.956433 447.540031 
L 570.751598 444.678728 
z
" style="stroke:#000000;stroke-linecap:round;"/>
   </g>
   <g id="patch_5">
    <path clip-path="url(#p5945bfb66e)" d="M 409.837359 300.499851 
Q 300.501135 326.277154 192.253111 351.797901 
" style="fill:none;stroke:#000000;stroke-linecap:round;"/>
    <path clip-path="url(#p5945bfb66e)" d="M 196.605315 352.82665 
L 192.253111 351.797901 
L 195.687432 348.933388 
L 196.605315 352.82665 
z
" style="stroke:#000000;stroke-linecap:round;"/>
   </g>
   <g id="patch_6">
    <path clip-path="url(#p5945bfb66e)" d="M 421.171788 290.357738 
Q 450.1301 209.110384 478.71305 128.91617 
" style="fill:none;stroke:#000000;stroke-linecap:round;"/>
    <path clip-path="url(#p5945bfb66e)" d="M 475.486201 132.01253 
L 478.71305 128.91617 
L 479.254029 133.355465 
L 475.486201 132.01253 
z
" style="stroke:#000000;stroke-linecap:round;"/>
   </g>
   <g id="patch_7">
    <path clip-path="url(#p5945bfb66e)" d="M 419.959762 307.008128 
Q 435.559276 385.207735 450.94007 462.310911 
" style="fill:none;stroke:#000000;stroke-linecap:round;"/>
    <path clip-path="url(#p5945bfb66e)" d="M 452.11891 457.996941 
L 450.94007 462.310911 
L 448.196198 458.779457 
L 452.11891 457.996941 
z
" style="stroke:#000000;stroke-linecap:round;"/>
   </g>
   <g id="patch_8">
    <path clip-path="url(#p5945bfb66e)" d="M 426.237228 295.137178 
Q 551.339518 242.163595 675.412269 189.625962 
" style="fill:none;stroke:#000000;stroke-linecap:round;"/>
    <path clip-path="url(#p5945bfb66e)" d="M 670.949033 189.343969 
L 675.412269 189.625962 
L 672.508734 193.027356 
L 670.949033 189.343969 
z
" style="stroke:#000000;stroke-linecap:round;"/>
   </g>
   <g id="patch_9">
    <path clip-path="url(#p5945bfb66e)" d="M 409.660124 297.509417 
Q 295.400857 284.184767 182.252098 270.989622 
" style="fill:none;stroke:#000000;stroke-linecap:round;"/>
    <path clip-path="url(#p5945bfb66e)" d="M 185.993507 273.43949 
L 182.252098 270.989622 
L 186.456838 269.466415 
L 185.993507 273.43949 
z
" style="stroke:#000000;stroke-linecap:round;"/>
   </g>
   <g id="patch_10">
    <path clip-path="url(#p5945bfb66e)" d="M 426.466357 301.288153 
Q 481.737045 319.991352 535.94869 338.336179 
" style="fill:none;stroke:#000000;stroke-linecap:round;"/>
    <path clip-path="url(#p5945bfb66e)" d="M 532.800823 335.159556 
L 535.94869 338.336179 
L 531.518672 338.948499 
L 532.800823 335.159556 
z
" style="stroke:#000000;stroke-linecap:round;"/>
   </g>
   <g id="patch_11">
    <path clip-path="url(#p5945bfb66e)" d="M 409.604058 298.639429 
Q 292.185323 300.354654 175.884504 302.053549 
" style="fill:none;stroke:#000000;stroke-linecap:round;"/>
    <path clip-path="url(#p5945bfb66e)" d="M 179.91329 303.994911 
L 175.884504 302.053549 
L 179.854865 299.995337 
L 179.91329 303.994911 
z
" style="stroke:#000000;stroke-linecap:round;"/>
   </g>
   <g id="patch_12">
    <path clip-path="url(#p5945bfb66e)" d="M 414.938546 306.506321 
Q 384.591353 379.427712 354.67373 451.316888 
" style="fill:none;stroke:#000000;stroke-linecap:round;"/>
    <path clip-path="url(#p5945bfb66e)" d="M 358.057091 448.392359 
L 354.67373 451.316888 
L 354.364124 446.855482 
L 358.057091 448.392359 
z
" style="stroke:#000000;stroke-linecap:round;"/>
   </g>
   <g id="patch_13">
    <path clip-path="url(#p5945bfb66e)" d="M 422.737937 291.095504 
Q 473.551835 206.829508 523.788386 123.520942 
" style="fill:none;stroke:#000000;stroke-linecap:round;"/>
    <path clip-path="url(#p5945bfb66e)" d="M 520.010106 125.913555 
L 523.788386 123.520942 
L 523.435508 127.979134 
L 520.010106 125.913555 
z
" style="stroke:#000000;stroke-linecap:round;"/>
   </g>
   <g id="patch_14">
    <path clip-path="url(#p5945bfb66e)" d="M 410.712803 294.273533 
Q 321.40692 244.142974 233.075972 194.559681 
" style="fill:none;stroke:#000000;stroke-linecap:round;"/>
    <path clip-path="url(#p5945bfb66e)" d="M 235.585029 198.261657 
L 233.075972 194.559681 
L 237.542988 194.773621 
L 235.585029 198.261657 
z
" style="stroke:#000000;stroke-linecap:round;"/>
   </g>
   <g id="patch_15">
    <path clip-path="url(#p5945bfb66e)" d="M 411.844917 292.701826 
Q 338.967471 226.738538 266.918938 161.52552 
" style="fill:none;stroke:#000000;stroke-linecap:round;"/>
    <path clip-path="url(#p5945bfb66e)" d="M 268.54242 165.692571 
L 266.918938 161.52552 
L 271.226667 162.726965 
L 268.54242 165.692571 
z
" style="stroke:#000000;stroke-linecap:round;"/>
   </g>
   <g id="patch_16">
    <path clip-path="url(#p5945bfb66e)" d="M 415.475326 290.311813 
Q 389.508996 213.978838 363.902727 138.704332 
" style="fill:none;stroke:#000000;stroke-linecap:round;"/>
    <path clip-path="url(#p5945bfb66e)" d="M 363.297475 143.135322 
L 363.902727 138.704332 
L 367.084368 141.847127 
L 363.297475 143.135322 
z
" style="stroke:#000000;stroke-linecap:round;"/>
   </g>
   <g id="patch_17">
    <path clip-path="url(#p5945bfb66e)" d="M 417.365717 307.123914 
Q 409.092647 386.332364 400.93572 464.428829 
" style="fill:none;stroke:#000000;stroke-linecap:round;"/>
    <path clip-path="url(#p5945bfb66e)" d="M 403.340426 460.658234 
L 400.93572 464.428829 
L 399.362067 460.242707 
L 403.340426 460.658234 
z
" style="stroke:#000000;stroke-linecap:round;"/>
   </g>
   <g id="patch_18">
    <path clip-path="url(#p5945bfb66e)" d="M 409.83787 296.530857 
Q 294.933047 269.50569 181.116561 242.736497 
" style="fill:none;stroke:#000000;stroke-linecap:round;"/>
    <path clip-path="url(#p5945bfb66e)" d="M 184.552417 245.599169 
L 181.116561 242.736497 
L 185.468213 241.705416 
L 184.552417 245.599169 
z
" style="stroke:#000000;stroke-linecap:round;"/>
   </g>
   <g id="patch_19">
    <path clip-path="url(#p5945bfb66e)" d="M 411.978535 292.554065 
Q 396.617392 277.993721 382.067686 264.202513 
" style="fill:none;stroke:#000000;stroke-linecap:round;"/>
    <path clip-path="url(#p5945bfb66e)" d="M 383.5949 268.405799 
L 382.067686 264.202513 
L 386.346643 265.502714 
L 383.5949 268.405799 
z
" style="stroke:#000000;stroke-linecap:round;"/>
   </g>
   <g id="patch_20">
    <path clip-path="url(#p5945bfb66e)" d="M 424.439712 292.44301 
Q 504.034355 214.198054 582.831698 136.736879 
" style="fill:none;stroke:#000000;stroke-linecap:round;"/>
    <path clip-path="url(#p5945bfb66e)" d="M 578.57712 138.114764 
L 582.831698 136.736879 
L 581.381259 140.967272 
L 578.57712 138.114764 
z
" style="stroke:#000000;stroke-linecap:round;"/>
   </g>
   <g id="patch_21">
    <path clip-path="url(#p5945bfb66e)" d="M 426.897104 299.204548 
Q 565.050168 310.274059 702.088769 321.254273 
" style="fill:none;stroke:#000000;stroke-linecap:round;"/>
    <path clip-path="url(#p5945bfb66e)" d="M 698.261286 318.941186 
L 702.088769 321.254273 
L 697.94181 322.928408 
L 698.261286 318.941186 
z
" style="stroke:#000000;stroke-linecap:round;"/>
   </g>
   <g id="patch_22">
    <path clip-path="url(#p5945bfb66e)" d="M 410.222113 301.72053 
Q 308.315585 342.361776 207.447551 382.588862 
" style="fill:none;stroke:#000000;stroke-linecap:round;"/>
    <path clip-path="url(#p5945bfb66e)" d="M 211.903855 382.96483 
L 207.447551 382.588862 
L 210.422108 379.2494 
L 211.903855 382.96483 
z
" style="stroke:#000000;stroke-linecap:round;"/>
   </g>
   <g id="patch_23">
    <path clip-path="url(#p5945bfb66e)" d="M 411.782573 304.252224 
Q 340.824653 367.074832 270.70383 429.156316 
" style="fill:none;stroke:#000000;stroke-linecap:round;"/>
    <path clip-path="url(#p5945bfb66e)" d="M 275.024489 428.002233 
L 270.70383 429.156316 
L 272.372959 425.007339 
L 275.024489 428.002233 
z
" style="stroke:#000000;stroke-linecap:round;"/>
   </g>
   <g id="patch_24">
    <path clip-path="url(#p5945bfb66e)" d="M 426.342805 301.643542 
Q 545.094286 347.667444 662.803288 393.287318 
" style="fill:none;stroke:#000000;stroke-linecap:round;"/>
    <path clip-path="url(#p5945bfb66e)" d="M 659.796351 389.976981 
L 662.803288 393.287318 
L 658.350857 393.706665 
L 659.796351 389.976981 
z
" style="stroke:#000000;stroke-linecap:round;"/>
   </g>
   <g id="patch_25">
    <path clip-path="url(#p5945bfb66e)" d="M 410.842467 302.980748 
Q 321.244264 356.911709 232.603955 410.266094 
" style="fill:none;stroke:#000000;stroke-linecap:round;"/>
    <path clip-path="url(#p5945bfb66e)" d="M 237.06243 409.916807 
L 232.603955 410.266094 
L 234.99961 406.489742 
L 237.06243 409.916807 
z
" style="stroke:#000000;stroke-linecap:round;"/>
   </g>
   <g id="patch_26">
    <path clip-path="url(#p5945bfb66e)" d="M 422.508182 306.06476 
Q 466.896758 385.067828 510.737679 463.096179 
" style="fill:none;stroke:#000000;stroke-linecap:round;"/>
    <path clip-path="url(#p5945bfb66e)" d="M 510.521962 458.629248 
L 510.737679 463.096179 
L 507.034705 460.588595 
L 510.521962 458.629248 
z
" style="stroke:#000000;stroke-linecap:round;"/>
   </g>
   <g id="patch_27">
    <path clip-path="url(#p5945bfb66e)" d="M 426.634323 296.277991 
Q 557.830207 261.243377 687.945908 226.497217 
" style="fill:none;stroke:#000000;stroke-linecap:round;"/>
    <path clip-path="url(#p5945bfb66e)" d="M 683.565329 225.596926 
L 687.945908 226.497217 
L 684.597328 229.461506 
L 683.565329 225.596926 
z
" style="stroke:#000000;stroke-linecap:round;"/>
   </g>
   <g id="patch_28">
    <path clip-path="url(#p5945bfb66e)" d="M 421.488732 308.422858 
Q 497.185202 379.124783 572.064607 449.063553 
" style="fill:none;stroke:#000000;stroke-linecap:round;"/>
    <path clip-path="url(#p5945bfb66e)" d="M 570.506558 444.871599 
L 572.064607 449.063553 
L 567.776214 447.79482 
L 570.506558 444.871599 
z
" style="stroke:#000000;stroke-linecap:round;"/>
   </g>
   <g id="patch_29">
    <path clip-path="url(#p5945bfb66e)" d="M 406.699671 304.385308 
Q 298.945815 328.276094 192.283486 351.924871 
" style="fill:none;stroke:#000000;stroke-linecap:round;"/>
    <path clip-path="url(#p5945bfb66e)" d="M 196.621572 353.011615 
L 192.283486 351.924871 
L 195.755733 349.106448 
L 196.621572 353.011615 
z
" style="stroke:#000000;stroke-linecap:round;"/>
   </g>
   <g id="patch_30">
    <path clip-path="url(#p5945bfb66e)" d="M 418.131021 294.378879 
Q 448.576988 211.107794 478.639031 128.886757 
" style="fill:none;stroke:#000000;stroke-linecap:round;"/>
    <path clip-path="url(#p5945bfb66e)" d="M 475.387079 131.956742 
L 478.639031 128.886757 
L 479.143848 133.330309 
L 475.387079 131.956742 
z
" style="stroke:#000000;stroke-linecap:round;"/>
   </g>
   <g id="patch_31">
    <path clip-path="url(#p5945bfb66e)" d="M 417.039501 310.964395 
Q 434.005371 387.204247 450.728382 462.35276 
" style="fill:none;stroke:#000000;stroke-linecap:round;"/>
    <path clip-path="url(#p5945bfb66e)" d="M 451.81175 458.01383 
L 450.728382 462.35276 
L 447.907259 458.882707 
L 451.81175 458.01383 
z
" style="stroke:#000000;stroke-linecap:round;"/>
   </g>
   <g id="patch_32">
    <path clip-path="url(#p5945bfb66e)" d="M 423.10825 299.064339 
Q 549.790484 244.160199 675.446885 189.700655 
" style="fill:none;stroke:#000000;stroke-linecap:round;"/>
    <path clip-path="url(#p5945bfb66e)" d="M 670.981433 189.456226 
L 675.446885 189.700655 
L 672.572071 193.126359 
L 670.981433 189.456226 
z
" style="stroke:#000000;stroke-linecap:round;"/>
   </g>
   <g id="patch_33">
    <path clip-path="url(#p5945bfb66e)" d="M 406.573077 301.354512 
Q 293.847773 286.183294 182.230513 271.161202 
" style="fill:none;stroke:#000000;stroke-linecap:round;"/>
    <path clip-path="url(#p5945bfb66e)" d="M 185.928005 273.676864 
L 182.230513 271.161202 
L 186.461537 269.712606 
L 185.928005 273.676864 
z
" style="stroke:#000000;stroke-linecap:round;"/>
   </g>
   <g id="patch_34">
    <path clip-path="url(#p5945bfb66e)" d="M 423.456896 304.996035 
Q 480.184129 321.990024 535.840354 338.663168 
" style="fill:none;stroke:#000000;stroke-linecap:round;"/>
    <path clip-path="url(#p5945bfb66e)" d="M 532.582546 335.599398 
L 535.840354 338.663168 
L 531.434653 339.431153 
L 532.582546 335.599398 
z
" style="stroke:#000000;stroke-linecap:round;"/>
   </g>
   <g id="patch_35">
    <path clip-path="url(#p5945bfb66e)" d="M 406.497367 302.499032 
Q 290.63175 302.353164 175.884166 302.208704 
" style="fill:none;stroke:#000000;stroke-linecap:round;"/>
    <path clip-path="url(#p5945bfb66e)" d="M 179.881645 304.213739 
L 175.884166 302.208704 
L 179.88668 300.213742 
L 179.881645 304.213739 
z
" style="stroke:#000000;stroke-linecap:round;"/>
   </g>
   <g id="patch_36">
    <path clip-path="url(#p5945bfb66e)" d="M 411.892863 310.532311 
Q 383.037261 381.427628 354.603144 451.287401 
" style="fill:none;stroke:#000000;stroke-linecap:round;"/>
    <path clip-path="url(#p5945bfb66e)" d="M 357.963529 448.3365 
L 354.603144 451.287401 
L 354.258654 446.828553 
L 357.963529 448.3365 
z
" style="stroke:#000000;stroke-linecap:round;"/>
   </g>
   <g id="patch_37">
    <path clip-path="url(#p5945bfb66e)" d="M 419.649069 295.1081 
Q 471.997269 208.829774 523.765518 123.507301 
" style="fill:none;stroke:#000000;stroke-linecap:round;"/>
    <path clip-path="url(#p5945bfb66e)" d="M 519.980738 125.889619 
L 523.765518 123.507301 
L 523.400504 127.964516 
L 519.980738 125.889619 
z
" style="stroke:#000000;stroke-linecap:round;"/>
   </g>
   <g id="patch_38">
    <path clip-path="url(#p5945bfb66e)" d="M 407.703664 298.100967 
Q 319.852484 246.140948 232.963619 194.750095 
" style="fill:none;stroke:#000000;stroke-linecap:round;"/>
    <path clip-path="url(#p5945bfb66e)" d="M 235.388346 198.507847 
L 232.963619 194.750095 
L 237.424656 195.064964 
L 235.388346 198.507847 
z
" style="stroke:#000000;stroke-linecap:round;"/>
   </g>
   <g id="patch_39">
    <path clip-path="url(#p5945bfb66e)" d="M 408.877926 296.550553 
Q 337.414556 228.737611 266.762198 161.694252 
" style="fill:none;stroke:#000000;stroke-linecap:round;"/>
    <path clip-path="url(#p5945bfb66e)" d="M 268.287088 165.898383 
L 266.762198 161.694252 
L 271.040436 162.996819 
L 268.287088 165.898383 
z
" style="stroke:#000000;stroke-linecap:round;"/>
   </g>
   <g id="patch_40">
    <path clip-path="url(#p5945bfb66e)" d="M 412.560545 294.24699 
Q 387.955174 215.976322 363.685093 138.772229 
" style="fill:none;stroke:#000000;stroke-linecap:round;"/>
    <path clip-path="url(#p5945bfb66e)" d="M 362.976721 143.187906 
L 363.685093 138.772229 
L 366.792612 141.988333 
L 362.976721 143.187906 
z
" style="stroke:#000000;stroke-linecap:round;"/>
   </g>
   <g id="patch_41">
    <path clip-path="url(#p5945bfb66e)" d="M 414.392439 311.134503 
Q 407.538964 388.332846 400.784356 464.417535 
" style="fill:none;stroke:#000000;stroke-linecap:round;"/>
    <path clip-path="url(#p5945bfb66e)" d="M 403.130239 460.610064 
L 400.784356 464.417535 
L 399.14591 460.256345 
L 403.130239 460.610064 
z
" style="stroke:#000000;stroke-linecap:round;"/>
   </g>
   <g id="patch_42">
    <path clip-path="url(#p5945bfb66e)" d="M 406.762689 300.372401 
Q 293.376932 271.503565 181.074643 242.910589 
" style="fill:none;stroke:#000000;stroke-linecap:round;"/>
    <path clip-path="url(#p5945bfb66e)" d="M 184.457503 245.835696 
L 181.074643 242.910589 
L 185.444445 241.959365 
L 184.457503 245.835696 
z
" style="stroke:#000000;stroke-linecap:round;"/>
   </g>
   <g id="patch_43">
    <path clip-path="url(#p5945bfb66e)" d="M 409.391359 296.047676 
Q 395.064157 279.992509 381.481358 264.771525 
" style="fill:none;stroke:#000000;stroke-linecap:round;"/>
    <path clip-path="url(#p5945bfb66e)" d="M 382.652383 269.087623 
L 381.481358 264.771525 
L 385.636851 266.424364 
L 382.652383 269.087623 
z
" style="stroke:#000000;stroke-linecap:round;"/>
   </g>
   <g id="patch_44">
    <path clip-path="url(#p5945bfb66e)" d="M 421.316634 296.422595 
Q 502.481355 216.196071 582.850923 136.755508 
" style="fill:none;stroke:#000000;stroke-linecap:round;"/>
    <path clip-path="url(#p5945bfb66e)" d="M 578.600134 138.145035 
L 582.850923 136.755508 
L 581.412071 140.989856 
L 578.600134 138.145035 
z
" style="stroke:#000000;stroke-linecap:round;"/>
   </g>
   <g id="patch_45">
    <path clip-path="url(#p5945bfb66e)" d="M 423.799975 303.078683 
Q 563.494255 312.272401 702.072914 321.392696 
" style="fill:none;stroke:#000000;stroke-linecap:round;"/>
    <path clip-path="url(#p5945bfb66e)" d="M 698.212891 319.134329 
L 702.072914 321.392696 
L 697.950207 323.125694 
L 698.212891 319.134329 
z
" style="stroke:#000000;stroke-linecap:round;"/>
   </g>
   <g id="patch_46">
    <path clip-path="url(#p5945bfb66e)" d="M 407.076581 305.630113 
Q 306.75952 344.361299 207.485455 382.689798 
" style="fill:none;stroke:#000000;stroke-linecap:round;"/>
    <path clip-path="url(#p5945bfb66e)" d="M 211.937345 383.114866 
L 207.485455 382.689798 
L 210.496643 379.383327 
L 211.937345 383.114866 
z
" style="stroke:#000000;stroke-linecap:round;"/>
   </g>
   <g id="patch_47">
    <path clip-path="url(#p5945bfb66e)" d="M 408.648134 308.220086 
Q 339.27098 369.073497 270.734341 429.189659 
" style="fill:none;stroke:#000000;stroke-linecap:round;"/>
    <path clip-path="url(#p5945bfb66e)" d="M 275.060288 428.055558 
L 270.734341 429.189659 
L 272.422628 425.048441 
L 275.060288 428.055558 
z
" style="stroke:#000000;stroke-linecap:round;"/>
   </g>
   <g id="patch_48">
    <path clip-path="url(#p5945bfb66e)" d="M 423.287731 305.496012 
Q 543.539283 349.66538 662.741356 393.449266 
" style="fill:none;stroke:#000000;stroke-linecap:round;"/>
    <path clip-path="url(#p5945bfb66e)" d="M 659.6762 390.192761 
L 662.741356 393.449266 
L 658.297059 393.947487 
L 659.6762 390.192761 
z
" style="stroke:#000000;stroke-linecap:round;"/>
   </g>
   <g id="patch_49">
    <path clip-path="url(#p5945bfb66e)" d="M 407.702825 306.914371 
Q 319.693232 358.908735 232.646239 410.334414 
" style="fill:none;stroke:#000000;stroke-linecap:round;"/>
    <path clip-path="url(#p5945bfb66e)" d="M 237.107433 410.021774 
L 232.646239 410.334414 
L 235.072844 406.577875 
L 237.107433 410.021774 
z
" style="stroke:#000000;stroke-linecap:round;"/>
   </g>
   <g id="patch_50">
    <path clip-path="url(#p5945bfb66e)" d="M 419.579606 309.959668 
Q 465.343725 387.067101 510.537214 463.213087 
" style="fill:none;stroke:#000000;stroke-linecap:round;"/>
    <path clip-path="url(#p5945bfb66e)" d="M 510.215556 458.752534 
L 510.537214 463.213087 
L 506.775777 460.794081 
L 510.215556 458.752534 
z
" style="stroke:#000000;stroke-linecap:round;"/>
   </g>
   <g id="patch_51">
    <path clip-path="url(#p5945bfb66e)" d="M 423.499896 300.188725 
Q 556.273078 263.242882 687.969149 226.59676 
" style="fill:none;stroke:#000000;stroke-linecap:round;"/>
    <path clip-path="url(#p5945bfb66e)" d="M 683.579405 225.742276 
L 687.969149 226.59676 
L 684.651715 229.595865 
L 683.579405 225.742276 
z
" style="stroke:#000000;stroke-linecap:round;"/>
   </g>
   <g id="patch_52">
    <path clip-path="url(#p5945bfb66e)" d="M 428.225524 308.337503 
Q 500.619608 379.01292 572.213683 448.90732 
" style="fill:none;stroke:#000000;stroke-linecap:round;"/>
    <path clip-path="url(#p5945bfb66e)" d="M 570.748609 444.681973 
L 572.213683 448.90732 
L 567.954361 447.544171 
L 570.748609 444.681973 
z
" style="stroke:#000000;stroke-linecap:round;"/>
   </g>
   <g id="patch_53">
    <path clip-path="url(#p5945bfb66e)" d="M 413.563044 304.120914 
Q 302.380303 328.166327 192.290331 351.975407 
" style="fill:none;stroke:#000000;stroke-linecap:round;"/>
    <path clip-path="url(#p5945bfb66e)" d="M 196.62271 353.084685 
L 192.290331 351.975407 
L 195.77718 349.175071 
L 196.62271 353.084685 
z
" style="stroke:#000000;stroke-linecap:round;"/>
   </g>
   <g id="patch_54">
    <path clip-path="url(#p5945bfb66e)" d="M 424.732595 294.062517 
Q 452.013092 210.998119 478.944731 128.995934 
" style="fill:none;stroke:#000000;stroke-linecap:round;"/>
    <path clip-path="url(#p5945bfb66e)" d="M 475.796472 132.172168 
L 478.944731 128.995934 
L 479.596763 133.420282 
L 475.796472 132.172168 
z
" style="stroke:#000000;stroke-linecap:round;"/>
   </g>
   <g id="patch_55">
    <path clip-path="url(#p5945bfb66e)" d="M 423.579319 310.812035 
Q 437.441931 387.095798 451.104643 462.279542 
" style="fill:none;stroke:#000000;stroke-linecap:round;"/>
    <path clip-path="url(#p5945bfb66e)" d="M 452.357231 457.986405 
L 451.104643 462.279542 
L 448.421687 458.701589 
L 452.357231 457.986405 
z
" style="stroke:#000000;stroke-linecap:round;"/>
   </g>
   <g id="patch_56">
    <path clip-path="url(#p5945bfb66e)" d="M 429.945979 298.775905 
Q 553.22401 244.051241 675.480168 189.780199 
" style="fill:none;stroke:#000000;stroke-linecap:round;"/>
    <path clip-path="url(#p5945bfb66e)" d="M 671.012736 189.575146 
L 675.480168 189.780199 
L 672.635666 193.231113 
L 671.012736 189.575146 
z
" style="stroke:#000000;stroke-linecap:round;"/>
   </g>
   <g id="patch_57">
    <path clip-path="url(#p5945bfb66e)" d="M 413.446023 301.173688 
Q 297.288945 286.073798 182.240573 271.118033 
" style="fill:none;stroke:#000000;stroke-linecap:round;"/>
    <path clip-path="url(#p5945bfb66e)" d="M 185.949376 273.616989 
L 182.240573 271.118033 
L 186.46502 269.650364 
L 185.949376 273.616989 
z
" style="stroke:#000000;stroke-linecap:round;"/>
   </g>
   <g id="patch_58">
    <path clip-path="url(#p5945bfb66e)" d="M 430.281779 304.914151 
Q 483.618677 321.879357 535.890139 338.505674 
" style="fill:none;stroke:#000000;stroke-linecap:round;"/>
    <path clip-path="url(#p5945bfb66e)" d="M 532.684545 335.387315 
L 535.890139 338.505674 
L 531.472095 339.199134 
L 532.684545 335.387315 
z
" style="stroke:#000000;stroke-linecap:round;"/>
   </g>
   <g id="patch_59">
    <path clip-path="url(#p5945bfb66e)" d="M 413.372981 302.286489 
Q 294.068898 302.243019 175.882849 302.199956 
" style="fill:none;stroke:#000000;stroke-linecap:round;"/>
    <path clip-path="url(#p5945bfb66e)" d="M 179.88212 304.201414 
L 175.882849 302.199956 
L 179.883578 300.201414 
L 179.88212 304.201414 
z
" style="stroke:#000000;stroke-linecap:round;"/>
   </g>
   <g id="patch_60">
    <path clip-path="url(#p5945bfb66e)" d="M 418.476809 310.188158 
Q 386.473074 381.31851 354.928082 451.429275 
" style="fill:none;stroke:#000000;stroke-linecap:round;"/>
    <path clip-path="url(#p5945bfb66e)" d="M 358.393221 448.602119 
L 354.928082 451.429275 
L 354.74544 446.960871 
L 358.393221 448.602119 
z
" style="stroke:#000000;stroke-linecap:round;"/>
   </g>
   <g id="patch_61">
    <path clip-path="url(#p5945bfb66e)" d="M 426.321768 294.770865 
Q 475.433376 208.719998 523.990797 123.640149 
" style="fill:none;stroke:#000000;stroke-linecap:round;"/>
    <path clip-path="url(#p5945bfb66e)" d="M 520.271067 126.12281 
L 523.990797 123.640149 
L 523.745088 128.10553 
L 520.271067 126.12281 
z
" style="stroke:#000000;stroke-linecap:round;"/>
   </g>
   <g id="patch_62">
    <path clip-path="url(#p5945bfb66e)" d="M 414.506261 298.002605 
Q 323.29075 246.031964 233.046663 194.614799 
" style="fill:none;stroke:#000000;stroke-linecap:round;"/>
    <path clip-path="url(#p5945bfb66e)" d="M 235.532049 198.33271 
L 233.046663 194.614799 
L 237.512223 194.857237 
L 235.532049 198.33271 
z
" style="stroke:#000000;stroke-linecap:round;"/>
   </g>
   <g id="patch_63">
    <path clip-path="url(#p5945bfb66e)" d="M 415.616525 296.469544 
Q 340.849554 228.626306 266.910559 161.534371 
" style="fill:none;stroke:#000000;stroke-linecap:round;"/>
    <path clip-path="url(#p5945bfb66e)" d="M 268.528847 165.703441 
L 266.910559 161.534371 
L 271.216788 162.741182 
L 268.528847 165.703441 
z
" style="stroke:#000000;stroke-linecap:round;"/>
   </g>
   <g id="patch_64">
    <path clip-path="url(#p5945bfb66e)" d="M 419.136698 294.126887 
Q 391.39203 215.86803 364.020949 138.662943 
" style="fill:none;stroke:#000000;stroke-linecap:round;"/>
    <path clip-path="url(#p5945bfb66e)" d="M 363.472493 143.101321 
L 364.020949 138.662943 
L 367.242578 141.764734 
L 363.472493 143.101321 
z
" style="stroke:#000000;stroke-linecap:round;"/>
   </g>
   <g id="patch_65">
    <path clip-path="url(#p5945bfb66e)" d="M 420.925676 310.878077 
Q 410.975299 388.22152 401.167583 464.456068 
" style="fill:none;stroke:#000000;stroke-linecap:round;"/>
    <path clip-path="url(#p5945bfb66e)" d="M 403.661635 460.743966 
L 401.167583 464.456068 
L 399.694332 460.233565 
L 403.661635 460.743966 
z
" style="stroke:#000000;stroke-linecap:round;"/>
   </g>
   <g id="patch_66">
    <path clip-path="url(#p5945bfb66e)" d="M 413.619919 300.214389 
Q 296.813434 271.393492 181.092428 242.840428 
" style="fill:none;stroke:#000000;stroke-linecap:round;"/>
    <path clip-path="url(#p5945bfb66e)" d="M 184.496846 245.740417 
L 181.092428 242.840428 
L 185.45507 241.856887 
L 184.496846 245.740417 
z
" style="stroke:#000000;stroke-linecap:round;"/>
   </g>
   <g id="patch_67">
    <path clip-path="url(#p5945bfb66e)" d="M 415.760244 296.318522 
Q 398.500796 279.882717 382.050999 264.217925 
" style="fill:none;stroke:#000000;stroke-linecap:round;"/>
    <path clip-path="url(#p5945bfb66e)" d="M 383.568466 268.424741 
L 382.050999 264.217925 
L 386.326932 265.528041 
L 383.568466 268.424741 
z
" style="stroke:#000000;stroke-linecap:round;"/>
   </g>
   <g id="patch_68">
    <path clip-path="url(#p5945bfb66e)" d="M 428.069657 296.083798 
Q 505.917096 216.086419 582.984805 136.890303 
" style="fill:none;stroke:#000000;stroke-linecap:round;"/>
    <path clip-path="url(#p5945bfb66e)" d="M 578.761819 138.362167 
L 582.984805 136.890303 
L 581.628505 141.15181 
L 578.761819 138.362167 
z
" style="stroke:#000000;stroke-linecap:round;"/>
   </g>
   <g id="patch_69">
    <path clip-path="url(#p5945bfb66e)" d="M 430.666843 302.878066 
Q 566.932064 312.162358 702.081837 321.370651 
" style="fill:none;stroke:#000000;stroke-linecap:round;"/>
    <path clip-path="url(#p5945bfb66e)" d="M 698.227042 319.103371 
L 702.081837 321.370651 
L 697.955136 323.094119 
L 698.227042 319.103371 
z
" style="stroke:#000000;stroke-linecap:round;"/>
   </g>
   <g id="patch_70">
    <path clip-path="url(#p5945bfb66e)" d="M 413.924958 305.330956 
Q 310.197852 344.25036 207.517522 382.777003 
" style="fill:none;stroke:#000000;stroke-linecap:round;"/>
    <path clip-path="url(#p5945bfb66e)" d="M 211.965172 383.244351 
L 207.517522 382.777003 
L 210.55999 379.499292 
L 211.965172 383.244351 
z
" style="stroke:#000000;stroke-linecap:round;"/>
   </g>
   <g id="patch_71">
    <path clip-path="url(#p5945bfb66e)" d="M 415.400138 307.862744 
Q 342.707814 368.962856 270.871351 429.343592 
" style="fill:none;stroke:#000000;stroke-linecap:round;"/>
    <path clip-path="url(#p5945bfb66e)" d="M 275.22023 428.300881 
L 270.871351 429.343592 
L 272.64651 425.238862 
L 275.22023 428.300881 
z
" style="stroke:#000000;stroke-linecap:round;"/>
   </g>
   <g id="patch_72">
    <path clip-path="url(#p5945bfb66e)" d="M 430.133273 305.354817 
Q 546.978053 349.556186 662.77712 393.361972 
" style="fill:none;stroke:#000000;stroke-linecap:round;"/>
    <path clip-path="url(#p5945bfb66e)" d="M 659.743509 390.076062 
L 662.77712 393.361972 
L 658.328226 393.817315 
L 659.743509 390.076062 
z
" style="stroke:#000000;stroke-linecap:round;"/>
   </g>
   <g id="patch_73">
    <path clip-path="url(#p5945bfb66e)" d="M 414.512199 306.585414 
Q 323.128836 358.798955 232.716224 410.45784 
" style="fill:none;stroke:#000000;stroke-linecap:round;"/>
    <path clip-path="url(#p5945bfb66e)" d="M 237.181486 410.209974 
L 232.716224 410.45784 
L 235.197088 406.736911 
L 237.181486 410.209974 
z
" style="stroke:#000000;stroke-linecap:round;"/>
   </g>
   <g id="patch_74">
    <path clip-path="url(#p5945bfb66e)" d="M 426.217825 309.873103 
Q 468.780301 386.957655 510.802359 463.063458 
" style="fill:none;stroke:#000000;stroke-linecap:round;"/>
    <path clip-path="url(#p5945bfb66e)" d="M 510.619736 458.595053 
L 510.802359 463.063458 
L 507.118061 460.528514 
L 510.619736 458.595053 
z
" style="stroke:#000000;stroke-linecap:round;"/>
   </g>
   <g id="patch_75">
    <path clip-path="url(#p5945bfb66e)" d="M 430.362536 299.919975 
Q 559.711167 263.132225 687.984412 226.650323 
" style="fill:none;stroke:#000000;stroke-linecap:round;"/>
    <path clip-path="url(#p5945bfb66e)" d="M 683.589873 225.820849 
L 687.984412 226.650323 
L 684.684109 229.668269 
L 683.589873 225.820849 
z
" style="stroke:#000000;stroke-linecap:round;"/>
   </g>
   <g id="patch_76">
    <path clip-path="url(#p5945bfb66e)" d="M 262.489767 291.429768 
Q 307.829977 281.715246 352.076964 272.234957 
" style="fill:none;stroke:#000000;stroke-linecap:round;"/>
    <path clip-path="url(#p5945bfb66e)" d="M 347.746725 271.117355 
L 352.076964 272.234957 
L 348.584739 275.028587 
L 347.746725 271.117355 
z
" style="stroke:#000000;stroke-linecap:round;"/>
   </g>
   <g id="patch_77">
    <path clip-path="url(#p5945bfb66e)" d="M 378.084056 249.393241 
Q 403.845308 182.539478 429.204554 116.728975 
" style="fill:none;stroke:#000000;stroke-linecap:round;"/>
    <path clip-path="url(#p5945bfb66e)" d="M 425.900051 119.742322 
L 429.204554 116.728975 
L 429.63253 121.180585 
L 425.900051 119.742322 
z
" style="stroke:#000000;stroke-linecap:round;"/>
   </g>
   <g id="patch_78">
    <path clip-path="url(#p5945bfb66e)" d="M 542.450036 349.678798 
Q 537.623859 364.043232 533.153759 377.34785 
" style="fill:none;stroke:#000000;stroke-linecap:round;"/>
    <path clip-path="url(#p5945bfb66e)" d="M 536.323557 374.193111 
L 533.153759 377.34785 
L 532.531847 372.919168 
L 536.323557 374.193111 
z
" style="stroke:#000000;stroke-linecap:round;"/>
   </g>
   <g id="patch_79">
    <path clip-path="url(#p5945bfb66e)" d="M 537.615733 345.629719 
Q 521.351167 354.541676 506.067092 362.916386 
" style="fill:none;stroke:#000000;stroke-linecap:round;"/>
    <path clip-path="url(#p5945bfb66e)" d="M 510.536066 362.748227 
L 506.067092 362.916386 
L 508.613949 359.240312 
L 510.536066 362.748227 
z
" style="stroke:#000000;stroke-linecap:round;"/>
   </g>
   <g id="patch_80">
    <path clip-path="url(#p5945bfb66e)" d="M 536.58416 342.284167 
Q 524.481528 343.4274 513.491976 344.465489 
" style="fill:none;stroke:#000000;stroke-linecap:round;"/>
    <path clip-path="url(#p5945bfb66e)" d="M 517.662334 346.080454 
L 513.491976 344.465489 
L 517.286163 342.098181 
L 517.662334 346.080454 
z
" style="stroke:#000000;stroke-linecap:round;"/>
   </g>
   <g id="patch_81">
    <path clip-path="url(#p5945bfb66e)" d="M 536.824726 343.637185 
Q 518.865663 348.280738 501.989036 352.644413 
" style="fill:none;stroke:#000000;stroke-linecap:round;"/>
    <path clip-path="url(#p5945bfb66e)" d="M 506.362339 353.579411 
L 501.989036 352.644413 
L 505.361016 349.706769 
L 506.362339 353.579411 
z
" style="stroke:#000000;stroke-linecap:round;"/>
   </g>
   <g id="patch_82">
    <path clip-path="url(#p5945bfb66e)" d="M 525.435293 263.496564 
Q 546.013834 292.299088 565.94242 320.19191 
" style="fill:none;stroke:#000000;stroke-linecap:round;"/>
    <path clip-path="url(#p5945bfb66e)" d="M 565.244395 315.774585 
L 565.94242 320.19191 
L 561.989745 318.099935 
L 565.244395 315.774585 
z
" style="stroke:#000000;stroke-linecap:round;"/>
   </g>
   <g id="patch_83">
    <path clip-path="url(#p5945bfb66e)" d="M 511.993788 254.355331 
Q 447.871489 238.384493 384.834079 222.683867 
" style="fill:none;stroke:#000000;stroke-linecap:round;"/>
    <path clip-path="url(#p5945bfb66e)" d="M 388.232129 225.591315 
L 384.834079 222.683867 
L 389.198868 221.709896 
L 388.232129 225.591315 
z
" style="stroke:#000000;stroke-linecap:round;"/>
   </g>
   <g id="patch_84">
    <path clip-path="url(#p5945bfb66e)" d="M 508.150682 218.392841 
Q 497.375804 240.264729 487.095009 261.133679 
" style="fill:none;stroke:#000000;stroke-linecap:round;"/>
    <path clip-path="url(#p5945bfb66e)" d="M 490.656801 258.429305 
L 487.095009 261.133679 
L 487.068585 256.661621 
L 490.656801 258.429305 
z
" style="stroke:#000000;stroke-linecap:round;"/>
   </g>
   <g id="patch_85">
    <path clip-path="url(#p5945bfb66e)" d="M 508.887307 218.714918 
Q 503.943619 231.657346 499.398878 243.555341 
" style="fill:none;stroke:#000000;stroke-linecap:round;"/>
    <path clip-path="url(#p5945bfb66e)" d="M 502.694536 240.532323 
L 499.398878 243.555341 
L 498.957858 239.105004 
L 502.694536 240.532323 
z
" style="stroke:#000000;stroke-linecap:round;"/>
   </g>
   <g id="patch_86">
    <path clip-path="url(#p5945bfb66e)" d="M 586.284277 398.42757 
Q 592.262207 396.316167 597.185928 394.57711 
" style="fill:none;stroke:#000000;stroke-linecap:round;"/>
    <path clip-path="url(#p5945bfb66e)" d="M 592.748199 394.02343 
L 597.185928 394.57711 
L 594.080347 397.795085 
L 592.748199 394.02343 
z
" style="stroke:#000000;stroke-linecap:round;"/>
   </g>
   <g id="patch_87">
    <path clip-path="url(#p5945bfb66e)" d="M 597.749373 391.104262 
Q 515.029833 389.044585 433.427981 387.012738 
" style="fill:none;stroke:#000000;stroke-linecap:round;"/>
    <path clip-path="url(#p5945bfb66e)" d="M 437.376958 389.111686 
L 433.427981 387.012738 
L 437.476526 385.112925 
L 437.376958 389.111686 
z
" style="stroke:#000000;stroke-linecap:round;"/>
   </g>
   <g id="patch_88">
    <path clip-path="url(#p5945bfb66e)" d="M 423.486464 378.109449 
Q 422.841657 344.528735 422.218314 312.065849 
" style="fill:none;stroke:#000000;stroke-linecap:round;"/>
    <path clip-path="url(#p5945bfb66e)" d="M 420.295475 316.103508 
L 422.218314 312.065849 
L 424.294738 316.026715 
L 420.295475 316.103508 
z
" style="stroke:#000000;stroke-linecap:round;"/>
   </g>
   <g id="patch_89">
    <path clip-path="url(#p5945bfb66e)" d="M 358.412377 262.14534 
Q 332.444607 197.441824 306.893259 133.775898 
" style="fill:none;stroke:#000000;stroke-linecap:round;"/>
    <path clip-path="url(#p5945bfb66e)" d="M 306.526994 138.23301 
L 306.893259 133.775898 
L 310.23919 136.743177 
L 306.526994 138.23301 
z
" style="stroke:#000000;stroke-linecap:round;"/>
   </g>
   <g id="patch_90">
    <path clip-path="url(#p5945bfb66e)" d="M 551.693798 371.403695 
Q 544.409814 376.521633 538.040629 380.996807 
" style="fill:none;stroke:#000000;stroke-linecap:round;"/>
    <path clip-path="url(#p5945bfb66e)" d="M 542.463319 380.333626 
L 538.040629 380.996807 
L 540.163699 377.060746 
L 542.463319 380.333626 
z
" style="stroke:#000000;stroke-linecap:round;"/>
   </g>
   <g id="patch_91">
    <path clip-path="url(#p5945bfb66e)" d="M 550.117282 366.594986 
Q 528.132996 367.020993 507.266535 367.425339 
" style="fill:none;stroke:#000000;stroke-linecap:round;"/>
    <path clip-path="url(#p5945bfb66e)" d="M 511.304533 369.347467 
L 507.266535 367.425339 
L 511.227036 365.348218 
L 511.304533 369.347467 
z
" style="stroke:#000000;stroke-linecap:round;"/>
   </g>
   <g id="patch_92">
    <path clip-path="url(#p5945bfb66e)" d="M 550.687245 363.333244 
Q 531.269406 355.906382 512.895826 348.878925 
" style="fill:none;stroke:#000000;stroke-linecap:round;"/>
    <path clip-path="url(#p5945bfb66e)" d="M 515.917404 352.175903 
L 512.895826 348.878925 
L 517.346356 348.43985 
L 515.917404 352.175903 
z
" style="stroke:#000000;stroke-linecap:round;"/>
   </g>
   <g id="patch_93">
    <path clip-path="url(#p5945bfb66e)" d="M 550.239826 364.966759 
Q 525.648502 360.75974 502.159201 356.741253 
" style="fill:none;stroke:#000000;stroke-linecap:round;"/>
    <path clip-path="url(#p5945bfb66e)" d="M 505.764665 359.387123 
L 502.159201 356.741253 
L 506.439175 355.444403 
L 505.764665 359.387123 
z
" style="stroke:#000000;stroke-linecap:round;"/>
   </g>
   <g id="patch_94">
    <path clip-path="url(#p5945bfb66e)" d="M 503.217778 397.654571 
Q 512.622482 393.785029 520.993249 390.340897 
" style="fill:none;stroke:#000000;stroke-linecap:round;"/>
    <path clip-path="url(#p5945bfb66e)" d="M 516.533126 390.01333 
L 520.993249 390.340897 
L 518.055122 393.712456 
L 516.533126 390.01333 
z
" style="stroke:#000000;stroke-linecap:round;"/>
   </g>
   <g id="patch_95">
    <path clip-path="url(#p5945bfb66e)" d="M 495.803524 392.309684 
Q 496.352452 384.283525 496.825093 377.372795 
" style="fill:none;stroke:#000000;stroke-linecap:round;"/>
    <path clip-path="url(#p5945bfb66e)" d="M 494.556822 381.227007 
L 496.825093 377.372795 
L 498.5475 381.499939 
L 494.556822 381.227007 
z
" style="stroke:#000000;stroke-linecap:round;"/>
   </g>
   <g id="patch_96">
    <path clip-path="url(#p5945bfb66e)" d="M 496.528956 392.391923 
Q 499.486291 373.167591 502.273636 355.048295 
" style="fill:none;stroke:#000000;stroke-linecap:round;"/>
    <path clip-path="url(#p5945bfb66e)" d="M 499.688711 358.697701 
L 502.273636 355.048295 
L 503.642205 359.305878 
L 499.688711 358.697701 
z
" style="stroke:#000000;stroke-linecap:round;"/>
   </g>
   <g id="patch_97">
    <path clip-path="url(#p5945bfb66e)" d="M 494.705278 392.302691 
Q 493.866953 378.019527 493.094136 364.852475 
" style="fill:none;stroke:#000000;stroke-linecap:round;"/>
    <path clip-path="url(#p5945bfb66e)" d="M 491.331942 368.962788 
L 493.094136 364.852475 
L 495.32507 368.728418 
L 491.331942 368.962788 
z
" style="stroke:#000000;stroke-linecap:round;"/>
   </g>
   <g id="patch_98">
    <path clip-path="url(#p5945bfb66e)" d="M 521.7744 389.207245 
Q 416.207023 422.267184 311.706585 454.992995 
" style="fill:none;stroke:#000000;stroke-linecap:round;"/>
    <path clip-path="url(#p5945bfb66e)" d="M 316.121487 455.706184 
L 311.706585 454.992995 
L 314.926077 451.888987 
L 316.121487 455.706184 
z
" style="stroke:#000000;stroke-linecap:round;"/>
   </g>
   <g id="patch_99">
    <path clip-path="url(#p5945bfb66e)" d="M 537.476967 382.179438 
Q 624.768091 330.077187 711.099189 278.547956 
" style="fill:none;stroke:#000000;stroke-linecap:round;"/>
    <path clip-path="url(#p5945bfb66e)" d="M 706.63945 278.880706 
L 711.099189 278.547956 
L 708.689545 282.315398 
L 706.63945 278.880706 
z
" style="stroke:#000000;stroke-linecap:round;"/>
   </g>
   <g id="patch_100">
    <path clip-path="url(#p5945bfb66e)" d="M 489.635448 371.25097 
Q 399.935038 412.764346 311.249269 453.808146 
" style="fill:none;stroke:#000000;stroke-linecap:round;"/>
    <path clip-path="url(#p5945bfb66e)" d="M 315.719365 453.943185 
L 311.249269 453.808146 
L 314.039358 450.313092 
L 315.719365 453.943185 
z
" style="stroke:#000000;stroke-linecap:round;"/>
   </g>
   <g id="patch_101">
    <path clip-path="url(#p5945bfb66e)" d="M 505.463205 364.236983 
Q 608.492735 320.576197 710.492849 277.351646 
" style="fill:none;stroke:#000000;stroke-linecap:round;"/>
    <path clip-path="url(#p5945bfb66e)" d="M 706.029534 277.070893 
L 710.492849 277.351646 
L 707.590257 280.753846 
L 706.029534 277.070893 
z
" style="stroke:#000000;stroke-linecap:round;"/>
   </g>
   <g id="patch_102">
    <path clip-path="url(#p5945bfb66e)" d="M 496.197773 349.610512 
Q 403.067054 401.65022 310.912333 453.144559 
" style="fill:none;stroke:#000000;stroke-linecap:round;"/>
    <path clip-path="url(#p5945bfb66e)" d="M 315.379756 452.939304 
L 310.912333 453.144559 
L 313.428583 449.447467 
L 315.379756 452.939304 
z
" style="stroke:#000000;stroke-linecap:round;"/>
   </g>
   <g id="patch_103">
    <path clip-path="url(#p5945bfb66e)" d="M 511.979928 342.647286 
Q 611.628646 309.460475 710.216609 276.626936 
" style="fill:none;stroke:#000000;stroke-linecap:round;"/>
    <path clip-path="url(#p5945bfb66e)" d="M 705.789589 275.993304 
L 710.216609 276.626936 
L 707.053491 279.788373 
L 705.789589 275.993304 
z
" style="stroke:#000000;stroke-linecap:round;"/>
   </g>
   <g id="patch_104">
    <path clip-path="url(#p5945bfb66e)" d="M 484.905065 359.210938 
Q 397.448281 406.503678 310.97495 453.264609 
" style="fill:none;stroke:#000000;stroke-linecap:round;"/>
    <path clip-path="url(#p5945bfb66e)" d="M 315.444786 453.12121 
L 310.97495 453.264609 
L 313.542133 449.602701 
L 315.444786 453.12121 
z
" style="stroke:#000000;stroke-linecap:round;"/>
   </g>
   <g id="patch_105">
    <path clip-path="url(#p5945bfb66e)" d="M 500.670507 352.164269 
Q 606.00713 314.315006 710.29158 276.843806 
" style="fill:none;stroke:#000000;stroke-linecap:round;"/>
    <path clip-path="url(#p5945bfb66e)" d="M 705.850911 276.314224 
L 710.29158 276.843806 
L 707.203513 280.078592 
L 705.850911 276.314224 
z
" style="stroke:#000000;stroke-linecap:round;"/>
   </g>
   <g id="patch_106">
    <path clip-path="url(#p5945bfb66e)" d="M 189.084094 234.322686 
Q 218.344491 260.873321 246.776909 286.672657 
" style="fill:none;stroke:#000000;stroke-linecap:round;"/>
    <path clip-path="url(#p5945bfb66e)" d="M 245.158612 282.50359 
L 246.776909 286.672657 
L 242.470678 285.465855 
L 245.158612 282.50359 
z
" style="stroke:#000000;stroke-linecap:round;"/>
   </g>
   <g id="patch_107">
    <path clip-path="url(#p5945bfb66e)" d="M 238.525749 261.036678 
Q 244.395507 273.238488 249.780591 284.432779 
" style="fill:none;stroke:#000000;stroke-linecap:round;"/>
    <path clip-path="url(#p5945bfb66e)" d="M 249.848876 279.961165 
L 249.780591 284.432779 
L 246.24427 281.695183 
L 249.848876 279.961165 
z
" style="stroke:#000000;stroke-linecap:round;"/>
   </g>
   <g id="patch_108">
    <path clip-path="url(#p5945bfb66e)" d="M 335.194187 253.351686 
Q 298.492447 271.388587 262.794116 288.932367 
" style="fill:none;stroke:#000000;stroke-linecap:round;"/>
    <path clip-path="url(#p5945bfb66e)" d="M 267.266147 288.963077 
L 262.794116 288.932367 
L 265.501903 285.373168 
L 267.266147 288.963077 
z
" style="stroke:#000000;stroke-linecap:round;"/>
   </g>
   <g id="patch_109">
    <path clip-path="url(#p5945bfb66e)" d="M 563.09215 326.670188 
Q 496.829637 315.217627 431.668825 303.955479 
" style="fill:none;stroke:#000000;stroke-linecap:round;"/>
    <path clip-path="url(#p5945bfb66e)" d="M 435.269764 306.607504 
L 431.668825 303.955479 
L 435.951009 302.665943 
L 435.269764 306.607504 
z
" style="stroke:#000000;stroke-linecap:round;"/>
   </g>
   <g id="patch_110">
    <path clip-path="url(#p5945bfb66e)" d="M 379.633232 227.847758 
Q 398.688626 261.305487 417.190706 293.7917 
" style="fill:none;stroke:#000000;stroke-linecap:round;"/>
    <path clip-path="url(#p5945bfb66e)" d="M 416.949011 289.3261 
L 417.190706 293.7917 
L 413.473209 291.305696 
L 416.949011 289.3261 
z
" style="stroke:#000000;stroke-linecap:round;"/>
   </g>
   <g id="patch_111">
    <path clip-path="url(#p5945bfb66e)" d="M 490.016072 274.652894 
Q 527.197909 299.024505 563.444683 322.78321 
" style="fill:none;stroke:#000000;stroke-linecap:round;"/>
    <path clip-path="url(#p5945bfb66e)" d="M 561.195698 318.917713 
L 563.444683 322.78321 
L 559.002894 322.263099 
L 561.195698 318.917713 
z
" style="stroke:#000000;stroke-linecap:round;"/>
   </g>
   <g id="patch_112">
    <path clip-path="url(#p5945bfb66e)" d="M 474.90868 266.275478 
Q 429.057682 245.112163 384.221802 224.417393 
" style="fill:none;stroke:#000000;stroke-linecap:round;"/>
    <path clip-path="url(#p5945bfb66e)" d="M 387.01544 227.90961 
L 384.221802 224.417393 
L 388.691759 224.277813 
L 387.01544 227.90961 
z
" style="stroke:#000000;stroke-linecap:round;"/>
   </g>
   <g id="patch_113">
    <path clip-path="url(#p5945bfb66e)" d="M 502.043827 258.805181 
Q 533.766907 290.418364 564.698047 321.242351 
" style="fill:none;stroke:#000000;stroke-linecap:round;"/>
    <path clip-path="url(#p5945bfb66e)" d="M 563.276474 317.002171 
L 564.698047 321.242351 
L 560.452959 319.835501 
L 563.276474 317.002171 
z
" style="stroke:#000000;stroke-linecap:round;"/>
   </g>
   <g id="patch_114">
    <path clip-path="url(#p5945bfb66e)" d="M 487.546029 250.446191 
Q 435.628677 236.506473 384.791113 222.856676 
" style="fill:none;stroke:#000000;stroke-linecap:round;"/>
    <path clip-path="url(#p5945bfb66e)" d="M 388.135658 225.825517 
L 384.791113 222.856676 
L 389.172913 221.962345 
L 388.135658 225.825517 
z
" style="stroke:#000000;stroke-linecap:round;"/>
   </g>
   <g id="PathCollection_1">
    <defs>
     <path d="M 0 8.660254 
C 2.296726 8.660254 4.499694 7.747755 6.123724 6.123724 
C 7.747755 4.499694 8.660254 2.296726 8.660254 -0 
C 8.660254 -2.296726 7.747755 -4.499694 6.123724 -6.123724 
C 4.499694 -7.747755 2.296726 -8.660254 0 -8.660254 
C -2.296726 -8.660254 -4.499694 -7.747755 -6.123724 -6.123724 
C -7.747755 -4.499694 -8.660254 -2.296726 -8.660254 0 
C -8.660254 2.296726 -7.747755 4.499694 -6.123724 6.123724 
C -4.499694 7.747755 -2.296726 8.660254 0 8.660254 
z
" id="C0_0_fd1aa4645f"/>
    </defs>
    <g clip-path="url(#p5945bfb66e)">
     <use style="fill:#ff0000;stroke:#ff0000;" x="432.962818" xlink:href="#C0_0_fd1aa4645f" y="218.595884"/>
    </g>
    <g clip-path="url(#p5945bfb66e)">
     <use style="fill:#ff0000;stroke:#ff0000;" x="684.41939" xlink:href="#C0_0_fd1aa4645f" y="185.811967"/>
    </g>
    <g clip-path="url(#p5945bfb66e)">
     <use style="fill:#ff0000;stroke:#ff0000;" x="542.439962" xlink:href="#C0_0_fd1aa4645f" y="241.347785"/>
    </g>
    <g clip-path="url(#p5945bfb66e)">
     <use style="fill:#ff0000;stroke:#ff0000;" x="418.265109" xlink:href="#C0_0_fd1aa4645f" y="298.51291"/>
    </g>
    <g clip-path="url(#p5945bfb66e)">
     <use style="fill:#ff0000;stroke:#ff0000;" x="415.158107" xlink:href="#C0_0_fd1aa4645f" y="302.509935"/>
    </g>
    <g clip-path="url(#p5945bfb66e)">
     <use style="fill:#ff0000;stroke:#ff0000;" x="422.030594" xlink:href="#C0_0_fd1aa4645f" y="302.289643"/>
    </g>
    <g clip-path="url(#p5945bfb66e)">
     <use style="fill:#008000;stroke:#008000;" x="171.598078" xlink:href="#C0_0_fd1aa4645f" y="240.497787"/>
    </g>
    <g clip-path="url(#p5945bfb66e)">
     <use style="fill:#ff0000;stroke:#ff0000;" x="254.019564" xlink:href="#C0_0_fd1aa4645f" y="293.24458"/>
    </g>
    <g clip-path="url(#p5945bfb66e)">
     <use style="fill:#ff0000;stroke:#ff0000;" x="374.969937" xlink:href="#C0_0_fd1aa4645f" y="257.47478"/>
    </g>
    <g clip-path="url(#p5945bfb66e)">
     <use style="fill:#ff0000;stroke:#ff0000;" x="589.80339" xlink:href="#C0_0_fd1aa4645f" y="129.883407"/>
    </g>
    <g clip-path="url(#p5945bfb66e)">
     <use style="fill:#ff0000;stroke:#ff0000;" x="711.833586" xlink:href="#C0_0_fd1aa4645f" y="322.035076"/>
    </g>
    <g clip-path="url(#p5945bfb66e)">
     <use style="fill:#ff0000;stroke:#ff0000;" x="182.733774" xlink:href="#C0_0_fd1aa4645f" y="354.042197"/>
    </g>
    <g clip-path="url(#p5945bfb66e)">
     <use style="fill:#ff0000;stroke:#ff0000;" x="481.996169" xlink:href="#C0_0_fd1aa4645f" y="119.704834"/>
    </g>
    <g clip-path="url(#p5945bfb66e)">
     <use style="fill:#ff0000;stroke:#ff0000;" x="452.852725" xlink:href="#C0_0_fd1aa4645f" y="471.898958"/>
    </g>
    <g clip-path="url(#p5945bfb66e)">
     <use style="fill:#ff0000;stroke:#ff0000;" x="172.541254" xlink:href="#C0_0_fd1aa4645f" y="269.857166"/>
    </g>
    <g clip-path="url(#p5945bfb66e)">
     <use style="fill:#ff0000;stroke:#ff0000;" x="545.208195" xlink:href="#C0_0_fd1aa4645f" y="341.469528"/>
    </g>
    <g clip-path="url(#p5945bfb66e)">
     <use style="fill:#ff0000;stroke:#ff0000;" x="166.105785" xlink:href="#C0_0_fd1aa4645f" y="302.196394"/>
    </g>
    <g clip-path="url(#p5945bfb66e)">
     <use style="fill:#ff0000;stroke:#ff0000;" x="350.915831" xlink:href="#C0_0_fd1aa4645f" y="460.34676"/>
    </g>
    <g clip-path="url(#p5945bfb66e)">
     <use style="fill:#ff0000;stroke:#ff0000;" x="579.208664" xlink:href="#C0_0_fd1aa4645f" y="455.736236"/>
    </g>
    <g clip-path="url(#p5945bfb66e)">
     <use style="fill:#ff0000;stroke:#ff0000;" x="528.838955" xlink:href="#C0_0_fd1aa4645f" y="115.145453"/>
    </g>
    <g clip-path="url(#p5945bfb66e)">
     <use style="fill:#ff0000;stroke:#ff0000;" x="224.547738" xlink:href="#C0_0_fd1aa4645f" y="189.772481"/>
    </g>
    <g clip-path="url(#p5945bfb66e)">
     <use style="fill:#ff0000;stroke:#ff0000;" x="259.669668" xlink:href="#C0_0_fd1aa4645f" y="154.964016"/>
    </g>
    <g clip-path="url(#p5945bfb66e)">
     <use style="fill:#ff0000;stroke:#ff0000;" x="360.75294" xlink:href="#C0_0_fd1aa4645f" y="129.444932"/>
    </g>
    <g clip-path="url(#p5945bfb66e)">
     <use style="fill:#ff0000;stroke:#ff0000;" x="399.92009" xlink:href="#C0_0_fd1aa4645f" y="474.152727"/>
    </g>
    <g clip-path="url(#p5945bfb66e)">
     <use style="fill:#ff0000;stroke:#ff0000;" x="520.40007" xlink:href="#C0_0_fd1aa4645f" y="256.44907"/>
    </g>
    <g clip-path="url(#p5945bfb66e)">
     <use style="fill:#ff0000;stroke:#ff0000;" x="511.977652" xlink:href="#C0_0_fd1aa4645f" y="210.624488"/>
    </g>
    <g clip-path="url(#p5945bfb66e)">
     <use style="fill:#ff0000;stroke:#ff0000;" x="578.116655" xlink:href="#C0_0_fd1aa4645f" y="401.312371"/>
    </g>
    <g clip-path="url(#p5945bfb66e)">
     <use style="fill:#ff0000;stroke:#ff0000;" x="606.408053" xlink:href="#C0_0_fd1aa4645f" y="391.319859"/>
    </g>
    <g clip-path="url(#p5945bfb66e)">
     <use style="fill:#ff0000;stroke:#ff0000;" x="423.652748" xlink:href="#C0_0_fd1aa4645f" y="386.769339"/>
    </g>
    <g clip-path="url(#p5945bfb66e)">
     <use style="fill:#008000;stroke:#008000;" x="361.639421" xlink:href="#C0_0_fd1aa4645f" y="270.18612"/>
    </g>
    <g clip-path="url(#p5945bfb66e)">
     <use style="fill:#ff0000;stroke:#ff0000;" x="303.2497" xlink:href="#C0_0_fd1aa4645f" y="124.697295"/>
    </g>
    <g clip-path="url(#p5945bfb66e)">
     <use style="fill:#ff0000;stroke:#ff0000;" x="198.362826" xlink:href="#C0_0_fd1aa4645f" y="386.211933"/>
    </g>
    <g clip-path="url(#p5945bfb66e)">
     <use style="fill:#ff0000;stroke:#ff0000;" x="558.776493" xlink:href="#C0_0_fd1aa4645f" y="366.427189"/>
    </g>
    <g clip-path="url(#p5945bfb66e)">
     <use style="fill:#ff0000;stroke:#ff0000;" x="495.212713" xlink:href="#C0_0_fd1aa4645f" y="400.948236"/>
    </g>
    <g clip-path="url(#p5945bfb66e)">
     <use style="fill:#ff0000;stroke:#ff0000;" x="530.038783" xlink:href="#C0_0_fd1aa4645f" y="386.619134"/>
    </g>
    <g clip-path="url(#p5945bfb66e)">
     <use style="fill:#ff0000;stroke:#ff0000;" x="497.492469" xlink:href="#C0_0_fd1aa4645f" y="367.614739"/>
    </g>
    <g clip-path="url(#p5945bfb66e)">
     <use style="fill:#ff0000;stroke:#ff0000;" x="503.760204" xlink:href="#C0_0_fd1aa4645f" y="345.384767"/>
    </g>
    <g clip-path="url(#p5945bfb66e)">
     <use style="fill:#ff0000;stroke:#ff0000;" x="492.521287" xlink:href="#C0_0_fd1aa4645f" y="355.092424"/>
    </g>
    <g clip-path="url(#p5945bfb66e)">
     <use style="fill:#ff0000;stroke:#ff0000;" x="182.671762" xlink:href="#C0_0_fd1aa4645f" y="228.504191"/>
    </g>
    <g clip-path="url(#p5945bfb66e)">
     <use style="fill:#ff0000;stroke:#ff0000;" x="234.772413" xlink:href="#C0_0_fd1aa4645f" y="253.2344"/>
    </g>
    <g clip-path="url(#p5945bfb66e)">
     <use style="fill:#ff0000;stroke:#ff0000;" x="342.965562" xlink:href="#C0_0_fd1aa4645f" y="249.53248"/>
    </g>
    <g clip-path="url(#p5945bfb66e)">
     <use style="fill:#ff0000;stroke:#ff0000;" x="432.719486" xlink:href="#C0_0_fd1aa4645f" y="107.607273"/>
    </g>
    <g clip-path="url(#p5945bfb66e)">
     <use style="fill:#ff0000;stroke:#ff0000;" x="263.383796" xlink:href="#C0_0_fd1aa4645f" y="435.63711"/>
    </g>
    <g clip-path="url(#p5945bfb66e)">
     <use style="fill:#ff0000;stroke:#ff0000;" x="671.92104" xlink:href="#C0_0_fd1aa4645f" y="396.821038"/>
    </g>
    <g clip-path="url(#p5945bfb66e)">
     <use style="fill:#ff0000;stroke:#ff0000;" x="224.228307" xlink:href="#C0_0_fd1aa4645f" y="415.307565"/>
    </g>
    <g clip-path="url(#p5945bfb66e)">
     <use style="fill:#ff0000;stroke:#ff0000;" x="571.624596" xlink:href="#C0_0_fd1aa4645f" y="328.144904"/>
    </g>
    <g clip-path="url(#p5945bfb66e)">
     <use style="fill:#ff0000;stroke:#ff0000;" x="375.346338" xlink:href="#C0_0_fd1aa4645f" y="220.320771"/>
    </g>
    <g clip-path="url(#p5945bfb66e)">
     <use style="fill:#ff0000;stroke:#ff0000;" x="482.77361" xlink:href="#C0_0_fd1aa4645f" y="269.905671"/>
    </g>
    <g clip-path="url(#p5945bfb66e)">
     <use style="fill:#ff0000;stroke:#ff0000;" x="495.909036" xlink:href="#C0_0_fd1aa4645f" y="252.691643"/>
    </g>
    <g clip-path="url(#p5945bfb66e)">
     <use style="fill:#ff0000;stroke:#ff0000;" x="302.373965" xlink:href="#C0_0_fd1aa4645f" y="457.915639"/>
    </g>
    <g clip-path="url(#p5945bfb66e)">
     <use style="fill:#ff0000;stroke:#ff0000;" x="719.494215" xlink:href="#C0_0_fd1aa4645f" y="273.537141"/>
    </g>
    <g clip-path="url(#p5945bfb66e)">
     <use style="fill:#008000;stroke:#008000;" x="515.527822" xlink:href="#C0_0_fd1aa4645f" y="471.621704"/>
    </g>
    <g clip-path="url(#p5945bfb66e)">
     <use style="fill:#ff0000;stroke:#ff0000;" x="697.392254" xlink:href="#C0_0_fd1aa4645f" y="223.97466"/>
    </g>
   </g>
   <g id="text_1">
    <g clip-path="url(#p5945bfb66e)">
     <!-- RBX1 -->
     <g transform="translate(416.749693 221.907134)scale(0.12 -0.12)">
      <defs>
       <path d="M 44.390625 34.1875 
Q 47.5625 33.109375 50.5625 29.59375 
Q 53.5625 26.078125 56.59375 19.921875 
L 66.609375 0 
L 56 0 
L 46.6875 18.703125 
Q 43.0625 26.03125 39.671875 28.421875 
Q 36.28125 30.8125 30.421875 30.8125 
L 19.671875 30.8125 
L 19.671875 0 
L 9.8125 0 
L 9.8125 72.90625 
L 32.078125 72.90625 
Q 44.578125 72.90625 50.734375 67.671875 
Q 56.890625 62.453125 56.890625 51.90625 
Q 56.890625 45.015625 53.6875 40.46875 
Q 50.484375 35.9375 44.390625 34.1875 
z
M 19.671875 64.796875 
L 19.671875 38.921875 
L 32.078125 38.921875 
Q 39.203125 38.921875 42.84375 42.21875 
Q 46.484375 45.515625 46.484375 51.90625 
Q 46.484375 58.296875 42.84375 61.546875 
Q 39.203125 64.796875 32.078125 64.796875 
z
" id="DejaVuSans-82"/>
       <path d="M 19.671875 34.8125 
L 19.671875 8.109375 
L 35.5 8.109375 
Q 43.453125 8.109375 47.28125 11.40625 
Q 51.125 14.703125 51.125 21.484375 
Q 51.125 28.328125 47.28125 31.5625 
Q 43.453125 34.8125 35.5 34.8125 
z
M 19.671875 64.796875 
L 19.671875 42.828125 
L 34.28125 42.828125 
Q 41.5 42.828125 45.03125 45.53125 
Q 48.578125 48.25 48.578125 53.8125 
Q 48.578125 59.328125 45.03125 62.0625 
Q 41.5 64.796875 34.28125 64.796875 
z
M 9.8125 72.90625 
L 35.015625 72.90625 
Q 46.296875 72.90625 52.390625 68.21875 
Q 58.5 63.53125 58.5 54.890625 
Q 58.5 48.1875 55.375 44.234375 
Q 52.25 40.28125 46.1875 39.3125 
Q 53.46875 37.75 57.5 32.78125 
Q 61.53125 27.828125 61.53125 20.40625 
Q 61.53125 10.640625 54.890625 5.3125 
Q 48.25 0 35.984375 0 
L 9.8125 0 
z
" id="DejaVuSans-66"/>
       <path d="M 6.296875 72.90625 
L 16.890625 72.90625 
L 35.015625 45.796875 
L 53.21875 72.90625 
L 63.8125 72.90625 
L 40.375 37.890625 
L 65.375 0 
L 54.78125 0 
L 34.28125 31 
L 13.625 0 
L 2.984375 0 
L 29 38.921875 
z
" id="DejaVuSans-88"/>
       <path d="M 12.40625 8.296875 
L 28.515625 8.296875 
L 28.515625 63.921875 
L 10.984375 60.40625 
L 10.984375 69.390625 
L 28.421875 72.90625 
L 38.28125 72.90625 
L 38.28125 8.296875 
L 54.390625 8.296875 
L 54.390625 0 
L 12.40625 0 
z
" id="DejaVuSans-49"/>
      </defs>
      <use xlink:href="#DejaVuSans-82"/>
      <use x="69.482422" xlink:href="#DejaVuSans-66"/>
      <use x="138.085938" xlink:href="#DejaVuSans-88"/>
      <use x="206.591797" xlink:href="#DejaVuSans-49"/>
     </g>
    </g>
   </g>
   <g id="text_2">
    <g clip-path="url(#p5945bfb66e)">
     <!-- VEGFA -->
     <g transform="translate(664.86689 189.123217)scale(0.12 -0.12)">
      <defs>
       <path d="M 28.609375 0 
L 0.78125 72.90625 
L 11.078125 72.90625 
L 34.1875 11.53125 
L 57.328125 72.90625 
L 67.578125 72.90625 
L 39.796875 0 
z
" id="DejaVuSans-86"/>
       <path d="M 9.8125 72.90625 
L 55.90625 72.90625 
L 55.90625 64.59375 
L 19.671875 64.59375 
L 19.671875 43.015625 
L 54.390625 43.015625 
L 54.390625 34.71875 
L 19.671875 34.71875 
L 19.671875 8.296875 
L 56.78125 8.296875 
L 56.78125 0 
L 9.8125 0 
z
" id="DejaVuSans-69"/>
       <path d="M 59.515625 10.40625 
L 59.515625 29.984375 
L 43.40625 29.984375 
L 43.40625 38.09375 
L 69.28125 38.09375 
L 69.28125 6.78125 
Q 63.578125 2.734375 56.6875 0.65625 
Q 49.8125 -1.421875 42 -1.421875 
Q 24.90625 -1.421875 15.25 8.5625 
Q 5.609375 18.5625 5.609375 36.375 
Q 5.609375 54.25 15.25 64.234375 
Q 24.90625 74.21875 42 74.21875 
Q 49.125 74.21875 55.546875 72.453125 
Q 61.96875 70.703125 67.390625 67.28125 
L 67.390625 56.78125 
Q 61.921875 61.421875 55.765625 63.765625 
Q 49.609375 66.109375 42.828125 66.109375 
Q 29.4375 66.109375 22.71875 58.640625 
Q 16.015625 51.171875 16.015625 36.375 
Q 16.015625 21.625 22.71875 14.15625 
Q 29.4375 6.6875 42.828125 6.6875 
Q 48.046875 6.6875 52.140625 7.59375 
Q 56.25 8.5 59.515625 10.40625 
z
" id="DejaVuSans-71"/>
       <path d="M 9.8125 72.90625 
L 51.703125 72.90625 
L 51.703125 64.59375 
L 19.671875 64.59375 
L 19.671875 43.109375 
L 48.578125 43.109375 
L 48.578125 34.8125 
L 19.671875 34.8125 
L 19.671875 0 
L 9.8125 0 
z
" id="DejaVuSans-70"/>
       <path d="M 34.1875 63.1875 
L 20.796875 26.90625 
L 47.609375 26.90625 
z
M 28.609375 72.90625 
L 39.796875 72.90625 
L 67.578125 0 
L 57.328125 0 
L 50.6875 18.703125 
L 17.828125 18.703125 
L 11.1875 0 
L 0.78125 0 
z
" id="DejaVuSans-65"/>
      </defs>
      <use xlink:href="#DejaVuSans-86"/>
      <use x="68.408203" xlink:href="#DejaVuSans-69"/>
      <use x="131.591797" xlink:href="#DejaVuSans-71"/>
      <use x="209.082031" xlink:href="#DejaVuSans-70"/>
      <use x="257.476562" xlink:href="#DejaVuSans-65"/>
     </g>
    </g>
   </g>
   <g id="text_3">
    <g clip-path="url(#p5945bfb66e)">
     <!-- VHL -->
     <g transform="translate(530.480275 244.659035)scale(0.12 -0.12)">
      <defs>
       <path d="M 9.8125 72.90625 
L 19.671875 72.90625 
L 19.671875 43.015625 
L 55.515625 43.015625 
L 55.515625 72.90625 
L 65.375 72.90625 
L 65.375 0 
L 55.515625 0 
L 55.515625 34.71875 
L 19.671875 34.71875 
L 19.671875 0 
L 9.8125 0 
z
" id="DejaVuSans-72"/>
       <path d="M 9.8125 72.90625 
L 19.671875 72.90625 
L 19.671875 8.296875 
L 55.171875 8.296875 
L 55.171875 0 
L 9.8125 0 
z
" id="DejaVuSans-76"/>
      </defs>
      <use xlink:href="#DejaVuSans-86"/>
      <use x="68.408203" xlink:href="#DejaVuSans-72"/>
      <use x="143.603516" xlink:href="#DejaVuSans-76"/>
     </g>
    </g>
   </g>
   <g id="text_4">
    <g clip-path="url(#p5945bfb66e)">
     <!-- ARNT -->
     <g transform="translate(401.838234 301.82416)scale(0.12 -0.12)">
      <defs>
       <path d="M 9.8125 72.90625 
L 23.09375 72.90625 
L 55.421875 11.921875 
L 55.421875 72.90625 
L 64.984375 72.90625 
L 64.984375 0 
L 51.703125 0 
L 19.390625 60.984375 
L 19.390625 0 
L 9.8125 0 
z
" id="DejaVuSans-78"/>
       <path d="M -0.296875 72.90625 
L 61.375 72.90625 
L 61.375 64.59375 
L 35.5 64.59375 
L 35.5 0 
L 25.59375 0 
L 25.59375 64.59375 
L -0.296875 64.59375 
z
" id="DejaVuSans-84"/>
      </defs>
      <use xlink:href="#DejaVuSans-65"/>
      <use x="68.408203" xlink:href="#DejaVuSans-82"/>
      <use x="137.890625" xlink:href="#DejaVuSans-78"/>
      <use x="212.695312" xlink:href="#DejaVuSans-84"/>
     </g>
    </g>
   </g>
   <g id="text_5">
    <g clip-path="url(#p5945bfb66e)">
     <!-- EP300 -->
     <g transform="translate(396.296544 305.821185)scale(0.12 -0.12)">
      <defs>
       <path d="M 19.671875 64.796875 
L 19.671875 37.40625 
L 32.078125 37.40625 
Q 38.96875 37.40625 42.71875 40.96875 
Q 46.484375 44.53125 46.484375 51.125 
Q 46.484375 57.671875 42.71875 61.234375 
Q 38.96875 64.796875 32.078125 64.796875 
z
M 9.8125 72.90625 
L 32.078125 72.90625 
Q 44.34375 72.90625 50.609375 67.359375 
Q 56.890625 61.8125 56.890625 51.125 
Q 56.890625 40.328125 50.609375 34.8125 
Q 44.34375 29.296875 32.078125 29.296875 
L 19.671875 29.296875 
L 19.671875 0 
L 9.8125 0 
z
" id="DejaVuSans-80"/>
       <path d="M 40.578125 39.3125 
Q 47.65625 37.796875 51.625 33 
Q 55.609375 28.21875 55.609375 21.1875 
Q 55.609375 10.40625 48.1875 4.484375 
Q 40.765625 -1.421875 27.09375 -1.421875 
Q 22.515625 -1.421875 17.65625 -0.515625 
Q 12.796875 0.390625 7.625 2.203125 
L 7.625 11.71875 
Q 11.71875 9.328125 16.59375 8.109375 
Q 21.484375 6.890625 26.8125 6.890625 
Q 36.078125 6.890625 40.9375 10.546875 
Q 45.796875 14.203125 45.796875 21.1875 
Q 45.796875 27.640625 41.28125 31.265625 
Q 36.765625 34.90625 28.71875 34.90625 
L 20.21875 34.90625 
L 20.21875 43.015625 
L 29.109375 43.015625 
Q 36.375 43.015625 40.234375 45.921875 
Q 44.09375 48.828125 44.09375 54.296875 
Q 44.09375 59.90625 40.109375 62.90625 
Q 36.140625 65.921875 28.71875 65.921875 
Q 24.65625 65.921875 20.015625 65.03125 
Q 15.375 64.15625 9.8125 62.3125 
L 9.8125 71.09375 
Q 15.4375 72.65625 20.34375 73.4375 
Q 25.25 74.21875 29.59375 74.21875 
Q 40.828125 74.21875 47.359375 69.109375 
Q 53.90625 64.015625 53.90625 55.328125 
Q 53.90625 49.265625 50.4375 45.09375 
Q 46.96875 40.921875 40.578125 39.3125 
z
" id="DejaVuSans-51"/>
       <path d="M 31.78125 66.40625 
Q 24.171875 66.40625 20.328125 58.90625 
Q 16.5 51.421875 16.5 36.375 
Q 16.5 21.390625 20.328125 13.890625 
Q 24.171875 6.390625 31.78125 6.390625 
Q 39.453125 6.390625 43.28125 13.890625 
Q 47.125 21.390625 47.125 36.375 
Q 47.125 51.421875 43.28125 58.90625 
Q 39.453125 66.40625 31.78125 66.40625 
z
M 31.78125 74.21875 
Q 44.046875 74.21875 50.515625 64.515625 
Q 56.984375 54.828125 56.984375 36.375 
Q 56.984375 17.96875 50.515625 8.265625 
Q 44.046875 -1.421875 31.78125 -1.421875 
Q 19.53125 -1.421875 13.0625 8.265625 
Q 6.59375 17.96875 6.59375 36.375 
Q 6.59375 54.828125 13.0625 64.515625 
Q 19.53125 74.21875 31.78125 74.21875 
z
" id="DejaVuSans-48"/>
      </defs>
      <use xlink:href="#DejaVuSans-69"/>
      <use x="63.183594" xlink:href="#DejaVuSans-80"/>
      <use x="123.486328" xlink:href="#DejaVuSans-51"/>
      <use x="187.109375" xlink:href="#DejaVuSans-48"/>
      <use x="250.732422" xlink:href="#DejaVuSans-48"/>
     </g>
    </g>
   </g>
   <g id="text_6">
    <g clip-path="url(#p5945bfb66e)">
     <!-- HIF1A -->
     <g transform="translate(404.375594 305.600893)scale(0.12 -0.12)">
      <defs>
       <path d="M 9.8125 72.90625 
L 19.671875 72.90625 
L 19.671875 0 
L 9.8125 0 
z
" id="DejaVuSans-73"/>
      </defs>
      <use xlink:href="#DejaVuSans-72"/>
      <use x="75.195312" xlink:href="#DejaVuSans-73"/>
      <use x="104.6875" xlink:href="#DejaVuSans-70"/>
      <use x="162.207031" xlink:href="#DejaVuSans-49"/>
      <use x="225.830078" xlink:href="#DejaVuSans-65"/>
     </g>
    </g>
   </g>
   <g id="text_7">
    <g clip-path="url(#p5945bfb66e)">
     <!-- SLC2A1 -->
     <g transform="translate(148.516828 243.809037)scale(0.12 -0.12)">
      <defs>
       <path d="M 53.515625 70.515625 
L 53.515625 60.890625 
Q 47.90625 63.578125 42.921875 64.890625 
Q 37.9375 66.21875 33.296875 66.21875 
Q 25.25 66.21875 20.875 63.09375 
Q 16.5 59.96875 16.5 54.203125 
Q 16.5 49.359375 19.40625 46.890625 
Q 22.3125 44.4375 30.421875 42.921875 
L 36.375 41.703125 
Q 47.40625 39.59375 52.65625 34.296875 
Q 57.90625 29 57.90625 20.125 
Q 57.90625 9.515625 50.796875 4.046875 
Q 43.703125 -1.421875 29.984375 -1.421875 
Q 24.8125 -1.421875 18.96875 -0.25 
Q 13.140625 0.921875 6.890625 3.21875 
L 6.890625 13.375 
Q 12.890625 10.015625 18.65625 8.296875 
Q 24.421875 6.59375 29.984375 6.59375 
Q 38.421875 6.59375 43.015625 9.90625 
Q 47.609375 13.234375 47.609375 19.390625 
Q 47.609375 24.75 44.3125 27.78125 
Q 41.015625 30.8125 33.5 32.328125 
L 27.484375 33.5 
Q 16.453125 35.6875 11.515625 40.375 
Q 6.59375 45.0625 6.59375 53.421875 
Q 6.59375 63.09375 13.40625 68.65625 
Q 20.21875 74.21875 32.171875 74.21875 
Q 37.3125 74.21875 42.625 73.28125 
Q 47.953125 72.359375 53.515625 70.515625 
z
" id="DejaVuSans-83"/>
       <path d="M 64.40625 67.28125 
L 64.40625 56.890625 
Q 59.421875 61.53125 53.78125 63.8125 
Q 48.140625 66.109375 41.796875 66.109375 
Q 29.296875 66.109375 22.65625 58.46875 
Q 16.015625 50.828125 16.015625 36.375 
Q 16.015625 21.96875 22.65625 14.328125 
Q 29.296875 6.6875 41.796875 6.6875 
Q 48.140625 6.6875 53.78125 8.984375 
Q 59.421875 11.28125 64.40625 15.921875 
L 64.40625 5.609375 
Q 59.234375 2.09375 53.4375 0.328125 
Q 47.65625 -1.421875 41.21875 -1.421875 
Q 24.65625 -1.421875 15.125 8.703125 
Q 5.609375 18.84375 5.609375 36.375 
Q 5.609375 53.953125 15.125 64.078125 
Q 24.65625 74.21875 41.21875 74.21875 
Q 47.75 74.21875 53.53125 72.484375 
Q 59.328125 70.75 64.40625 67.28125 
z
" id="DejaVuSans-67"/>
       <path d="M 19.1875 8.296875 
L 53.609375 8.296875 
L 53.609375 0 
L 7.328125 0 
L 7.328125 8.296875 
Q 12.9375 14.109375 22.625 23.890625 
Q 32.328125 33.6875 34.8125 36.53125 
Q 39.546875 41.84375 41.421875 45.53125 
Q 43.3125 49.21875 43.3125 52.78125 
Q 43.3125 58.59375 39.234375 62.25 
Q 35.15625 65.921875 28.609375 65.921875 
Q 23.96875 65.921875 18.8125 64.3125 
Q 13.671875 62.703125 7.8125 59.421875 
L 7.8125 69.390625 
Q 13.765625 71.78125 18.9375 73 
Q 24.125 74.21875 28.421875 74.21875 
Q 39.75 74.21875 46.484375 68.546875 
Q 53.21875 62.890625 53.21875 53.421875 
Q 53.21875 48.921875 51.53125 44.890625 
Q 49.859375 40.875 45.40625 35.40625 
Q 44.1875 33.984375 37.640625 27.21875 
Q 31.109375 20.453125 19.1875 8.296875 
z
" id="DejaVuSans-50"/>
      </defs>
      <use xlink:href="#DejaVuSans-83"/>
      <use x="63.476562" xlink:href="#DejaVuSans-76"/>
      <use x="119.189453" xlink:href="#DejaVuSans-67"/>
      <use x="189.013672" xlink:href="#DejaVuSans-50"/>
      <use x="252.636719" xlink:href="#DejaVuSans-65"/>
      <use x="321.044922" xlink:href="#DejaVuSans-49"/>
     </g>
    </g>
   </g>
   <g id="text_8">
    <g clip-path="url(#p5945bfb66e)">
     <!-- MTOR -->
     <g transform="translate(236.285814 296.55583)scale(0.12 -0.12)">
      <defs>
       <path d="M 9.8125 72.90625 
L 24.515625 72.90625 
L 43.109375 23.296875 
L 61.8125 72.90625 
L 76.515625 72.90625 
L 76.515625 0 
L 66.890625 0 
L 66.890625 64.015625 
L 48.09375 14.015625 
L 38.1875 14.015625 
L 19.390625 64.015625 
L 19.390625 0 
L 9.8125 0 
z
" id="DejaVuSans-77"/>
       <path d="M 39.40625 66.21875 
Q 28.65625 66.21875 22.328125 58.203125 
Q 16.015625 50.203125 16.015625 36.375 
Q 16.015625 22.609375 22.328125 14.59375 
Q 28.65625 6.59375 39.40625 6.59375 
Q 50.140625 6.59375 56.421875 14.59375 
Q 62.703125 22.609375 62.703125 36.375 
Q 62.703125 50.203125 56.421875 58.203125 
Q 50.140625 66.21875 39.40625 66.21875 
z
M 39.40625 74.21875 
Q 54.734375 74.21875 63.90625 63.9375 
Q 73.09375 53.65625 73.09375 36.375 
Q 73.09375 19.140625 63.90625 8.859375 
Q 54.734375 -1.421875 39.40625 -1.421875 
Q 24.03125 -1.421875 14.8125 8.828125 
Q 5.609375 19.09375 5.609375 36.375 
Q 5.609375 53.65625 14.8125 63.9375 
Q 24.03125 74.21875 39.40625 74.21875 
z
" id="DejaVuSans-79"/>
      </defs>
      <use xlink:href="#DejaVuSans-77"/>
      <use x="86.279297" xlink:href="#DejaVuSans-84"/>
      <use x="147.363281" xlink:href="#DejaVuSans-79"/>
      <use x="226.074219" xlink:href="#DejaVuSans-82"/>
     </g>
    </g>
   </g>
   <g id="text_9">
    <g clip-path="url(#p5945bfb66e)">
     <!-- PDK1 -->
     <g transform="translate(358.979937 260.78603)scale(0.12 -0.12)">
      <defs>
       <path d="M 19.671875 64.796875 
L 19.671875 8.109375 
L 31.59375 8.109375 
Q 46.6875 8.109375 53.6875 14.9375 
Q 60.6875 21.78125 60.6875 36.53125 
Q 60.6875 51.171875 53.6875 57.984375 
Q 46.6875 64.796875 31.59375 64.796875 
z
M 9.8125 72.90625 
L 30.078125 72.90625 
Q 51.265625 72.90625 61.171875 64.09375 
Q 71.09375 55.28125 71.09375 36.53125 
Q 71.09375 17.671875 61.125 8.828125 
Q 51.171875 0 30.078125 0 
L 9.8125 0 
z
" id="DejaVuSans-68"/>
       <path d="M 9.8125 72.90625 
L 19.671875 72.90625 
L 19.671875 42.09375 
L 52.390625 72.90625 
L 65.09375 72.90625 
L 28.90625 38.921875 
L 67.671875 0 
L 54.6875 0 
L 19.671875 35.109375 
L 19.671875 0 
L 9.8125 0 
z
" id="DejaVuSans-75"/>
      </defs>
      <use xlink:href="#DejaVuSans-80"/>
      <use x="60.302734" xlink:href="#DejaVuSans-68"/>
      <use x="137.304688" xlink:href="#DejaVuSans-75"/>
      <use x="202.880859" xlink:href="#DejaVuSans-49"/>
     </g>
    </g>
   </g>
   <g id="text_10">
    <g clip-path="url(#p5945bfb66e)">
     <!-- GAPDH -->
     <g transform="translate(568.299952 133.194657)scale(0.12 -0.12)">
      <use xlink:href="#DejaVuSans-71"/>
      <use x="77.490234" xlink:href="#DejaVuSans-65"/>
      <use x="145.898438" xlink:href="#DejaVuSans-80"/>
      <use x="206.201172" xlink:href="#DejaVuSans-68"/>
      <use x="283.203125" xlink:href="#DejaVuSans-72"/>
     </g>
    </g>
   </g>
   <g id="text_11">
    <g clip-path="url(#p5945bfb66e)">
     <!-- PFKFB3 -->
     <g transform="translate(689.445149 325.346326)scale(0.12 -0.12)">
      <use xlink:href="#DejaVuSans-80"/>
      <use x="60.302734" xlink:href="#DejaVuSans-70"/>
      <use x="117.822266" xlink:href="#DejaVuSans-75"/>
      <use x="183.398438" xlink:href="#DejaVuSans-70"/>
      <use x="240.917969" xlink:href="#DejaVuSans-66"/>
      <use x="309.521484" xlink:href="#DejaVuSans-51"/>
     </g>
    </g>
   </g>
   <g id="text_12">
    <g clip-path="url(#p5945bfb66e)">
     <!-- EPO -->
     <g transform="translate(170.601587 357.353447)scale(0.12 -0.12)">
      <use xlink:href="#DejaVuSans-69"/>
      <use x="63.183594" xlink:href="#DejaVuSans-80"/>
      <use x="123.486328" xlink:href="#DejaVuSans-79"/>
     </g>
    </g>
   </g>
   <g id="text_13">
    <g clip-path="url(#p5945bfb66e)">
     <!-- TF -->
     <g transform="translate(474.880544 123.016084)scale(0.12 -0.12)">
      <use xlink:href="#DejaVuSans-84"/>
      <use x="61.083984" xlink:href="#DejaVuSans-70"/>
     </g>
    </g>
   </g>
   <g id="text_14">
    <g clip-path="url(#p5945bfb66e)">
     <!-- TFRC -->
     <g transform="translate(437.67835 475.210208)scale(0.12 -0.12)">
      <use xlink:href="#DejaVuSans-84"/>
      <use x="61.083984" xlink:href="#DejaVuSans-70"/>
      <use x="118.603516" xlink:href="#DejaVuSans-82"/>
      <use x="183.085938" xlink:href="#DejaVuSans-67"/>
     </g>
    </g>
   </g>
   <g id="text_15">
    <g clip-path="url(#p5945bfb66e)">
     <!-- FLT1 -->
     <g transform="translate(159.090004 273.168416)scale(0.12 -0.12)">
      <use xlink:href="#DejaVuSans-70"/>
      <use x="57.519531" xlink:href="#DejaVuSans-76"/>
      <use x="99.482422" xlink:href="#DejaVuSans-84"/>
      <use x="160.566406" xlink:href="#DejaVuSans-49"/>
     </g>
    </g>
   </g>
   <g id="text_16">
    <g clip-path="url(#p5945bfb66e)">
     <!-- EGF -->
     <g transform="translate(533.316945 344.780778)scale(0.12 -0.12)">
      <use xlink:href="#DejaVuSans-69"/>
      <use x="63.183594" xlink:href="#DejaVuSans-71"/>
      <use x="140.673828" xlink:href="#DejaVuSans-70"/>
     </g>
    </g>
   </g>
   <g id="text_17">
    <g clip-path="url(#p5945bfb66e)">
     <!-- SERPINE1 -->
     <g transform="translate(136.851098 305.507644)scale(0.12 -0.12)">
      <use xlink:href="#DejaVuSans-83"/>
      <use x="63.476562" xlink:href="#DejaVuSans-69"/>
      <use x="126.660156" xlink:href="#DejaVuSans-82"/>
      <use x="196.142578" xlink:href="#DejaVuSans-80"/>
      <use x="256.445312" xlink:href="#DejaVuSans-73"/>
      <use x="285.9375" xlink:href="#DejaVuSans-78"/>
      <use x="360.742188" xlink:href="#DejaVuSans-69"/>
      <use x="423.925781" xlink:href="#DejaVuSans-49"/>
     </g>
    </g>
   </g>
   <g id="text_18">
    <g clip-path="url(#p5945bfb66e)">
     <!-- TEK -->
     <g transform="translate(339.525206 463.65801)scale(0.12 -0.12)">
      <use xlink:href="#DejaVuSans-84"/>
      <use x="61.083984" xlink:href="#DejaVuSans-69"/>
      <use x="124.267578" xlink:href="#DejaVuSans-75"/>
     </g>
    </g>
   </g>
   <g id="text_19">
    <g clip-path="url(#p5945bfb66e)">
     <!-- TIMP1 -->
     <g transform="translate(561.161789 459.047486)scale(0.12 -0.12)">
      <use xlink:href="#DejaVuSans-84"/>
      <use x="61.083984" xlink:href="#DejaVuSans-73"/>
      <use x="90.576172" xlink:href="#DejaVuSans-77"/>
      <use x="176.855469" xlink:href="#DejaVuSans-80"/>
      <use x="237.158203" xlink:href="#DejaVuSans-49"/>
     </g>
    </g>
   </g>
   <g id="text_20">
    <g clip-path="url(#p5945bfb66e)">
     <!-- EDN1 -->
     <g transform="translate(512.121455 118.456703)scale(0.12 -0.12)">
      <use xlink:href="#DejaVuSans-69"/>
      <use x="63.183594" xlink:href="#DejaVuSans-68"/>
      <use x="140.185547" xlink:href="#DejaVuSans-78"/>
      <use x="214.990234" xlink:href="#DejaVuSans-49"/>
     </g>
    </g>
   </g>
   <g id="text_21">
    <g clip-path="url(#p5945bfb66e)">
     <!-- NOS2 -->
     <g transform="translate(207.709301 193.083731)scale(0.12 -0.12)">
      <use xlink:href="#DejaVuSans-78"/>
      <use x="74.804688" xlink:href="#DejaVuSans-79"/>
      <use x="153.515625" xlink:href="#DejaVuSans-83"/>
      <use x="216.992188" xlink:href="#DejaVuSans-50"/>
     </g>
    </g>
   </g>
   <g id="text_22">
    <g clip-path="url(#p5945bfb66e)">
     <!-- NOS3 -->
     <g transform="translate(242.831231 158.275266)scale(0.12 -0.12)">
      <use xlink:href="#DejaVuSans-78"/>
      <use x="74.804688" xlink:href="#DejaVuSans-79"/>
      <use x="153.515625" xlink:href="#DejaVuSans-83"/>
      <use x="216.992188" xlink:href="#DejaVuSans-51"/>
     </g>
    </g>
   </g>
   <g id="text_23">
    <g clip-path="url(#p5945bfb66e)">
     <!-- HMOX1 -->
     <g transform="translate(338.795752 132.756182)scale(0.12 -0.12)">
      <use xlink:href="#DejaVuSans-72"/>
      <use x="75.195312" xlink:href="#DejaVuSans-77"/>
      <use x="161.474609" xlink:href="#DejaVuSans-79"/>
      <use x="233.810547" xlink:href="#DejaVuSans-88"/>
      <use x="302.316406" xlink:href="#DejaVuSans-49"/>
     </g>
    </g>
   </g>
   <g id="text_24">
    <g clip-path="url(#p5945bfb66e)">
     <!-- NPPA -->
     <g transform="translate(384.47384 477.463977)scale(0.12 -0.12)">
      <use xlink:href="#DejaVuSans-78"/>
      <use x="74.804688" xlink:href="#DejaVuSans-80"/>
      <use x="135.107422" xlink:href="#DejaVuSans-80"/>
      <use x="189.035156" xlink:href="#DejaVuSans-65"/>
     </g>
    </g>
   </g>
   <g id="text_25">
    <g clip-path="url(#p5945bfb66e)">
     <!-- TLR4 -->
     <g transform="translate(505.405695 259.76032)scale(0.12 -0.12)">
      <defs>
       <path d="M 37.796875 64.3125 
L 12.890625 25.390625 
L 37.796875 25.390625 
z
M 35.203125 72.90625 
L 47.609375 72.90625 
L 47.609375 25.390625 
L 58.015625 25.390625 
L 58.015625 17.1875 
L 47.609375 17.1875 
L 47.609375 0 
L 37.796875 0 
L 37.796875 17.1875 
L 4.890625 17.1875 
L 4.890625 26.703125 
z
" id="DejaVuSans-52"/>
      </defs>
      <use xlink:href="#DejaVuSans-84"/>
      <use x="61.083984" xlink:href="#DejaVuSans-76"/>
      <use x="116.796875" xlink:href="#DejaVuSans-82"/>
      <use x="186.279297" xlink:href="#DejaVuSans-52"/>
     </g>
    </g>
   </g>
   <g id="text_26">
    <g clip-path="url(#p5945bfb66e)">
     <!-- IFNG -->
     <g transform="translate(497.618902 213.935738)scale(0.12 -0.12)">
      <use xlink:href="#DejaVuSans-73"/>
      <use x="29.492188" xlink:href="#DejaVuSans-70"/>
      <use x="87.011719" xlink:href="#DejaVuSans-78"/>
      <use x="161.816406" xlink:href="#DejaVuSans-71"/>
     </g>
    </g>
   </g>
   <g id="text_27">
    <g clip-path="url(#p5945bfb66e)">
     <!-- IL6 -->
     <g transform="translate(569.18603 404.623621)scale(0.12 -0.12)">
      <defs>
       <path d="M 33.015625 40.375 
Q 26.375 40.375 22.484375 35.828125 
Q 18.609375 31.296875 18.609375 23.390625 
Q 18.609375 15.53125 22.484375 10.953125 
Q 26.375 6.390625 33.015625 6.390625 
Q 39.65625 6.390625 43.53125 10.953125 
Q 47.40625 15.53125 47.40625 23.390625 
Q 47.40625 31.296875 43.53125 35.828125 
Q 39.65625 40.375 33.015625 40.375 
z
M 52.59375 71.296875 
L 52.59375 62.3125 
Q 48.875 64.0625 45.09375 64.984375 
Q 41.3125 65.921875 37.59375 65.921875 
Q 27.828125 65.921875 22.671875 59.328125 
Q 17.53125 52.734375 16.796875 39.40625 
Q 19.671875 43.65625 24.015625 45.921875 
Q 28.375 48.1875 33.59375 48.1875 
Q 44.578125 48.1875 50.953125 41.515625 
Q 57.328125 34.859375 57.328125 23.390625 
Q 57.328125 12.15625 50.6875 5.359375 
Q 44.046875 -1.421875 33.015625 -1.421875 
Q 20.359375 -1.421875 13.671875 8.265625 
Q 6.984375 17.96875 6.984375 36.375 
Q 6.984375 53.65625 15.1875 63.9375 
Q 23.390625 74.21875 37.203125 74.21875 
Q 40.921875 74.21875 44.703125 73.484375 
Q 48.484375 72.75 52.59375 71.296875 
z
" id="DejaVuSans-54"/>
      </defs>
      <use xlink:href="#DejaVuSans-73"/>
      <use x="29.492188" xlink:href="#DejaVuSans-76"/>
      <use x="85.205078" xlink:href="#DejaVuSans-54"/>
     </g>
    </g>
   </g>
   <g id="text_28">
    <g clip-path="url(#p5945bfb66e)">
     <!-- IL6R -->
     <g transform="translate(593.308365 394.631109)scale(0.12 -0.12)">
      <use xlink:href="#DejaVuSans-73"/>
      <use x="29.492188" xlink:href="#DejaVuSans-76"/>
      <use x="85.205078" xlink:href="#DejaVuSans-54"/>
      <use x="148.828125" xlink:href="#DejaVuSans-82"/>
     </g>
    </g>
   </g>
   <g id="text_29">
    <g clip-path="url(#p5945bfb66e)">
     <!-- STAT3 -->
     <g transform="translate(405.522436 390.080589)scale(0.12 -0.12)">
      <use xlink:href="#DejaVuSans-83"/>
      <use x="63.476562" xlink:href="#DejaVuSans-84"/>
      <use x="116.810547" xlink:href="#DejaVuSans-65"/>
      <use x="177.46875" xlink:href="#DejaVuSans-84"/>
      <use x="238.552734" xlink:href="#DejaVuSans-51"/>
     </g>
    </g>
   </g>
   <g id="text_30">
    <g clip-path="url(#p5945bfb66e)">
     <!-- EIF4EBP1 -->
     <g transform="translate(333.466608 273.49737)scale(0.12 -0.12)">
      <use xlink:href="#DejaVuSans-69"/>
      <use x="63.183594" xlink:href="#DejaVuSans-73"/>
      <use x="92.675781" xlink:href="#DejaVuSans-70"/>
      <use x="150.195312" xlink:href="#DejaVuSans-52"/>
      <use x="213.818359" xlink:href="#DejaVuSans-69"/>
      <use x="277.001953" xlink:href="#DejaVuSans-66"/>
      <use x="345.605469" xlink:href="#DejaVuSans-80"/>
      <use x="405.908203" xlink:href="#DejaVuSans-49"/>
     </g>
    </g>
   </g>
   <g id="text_31">
    <g clip-path="url(#p5945bfb66e)">
     <!-- EIF4E -->
     <g transform="translate(286.628762 128.008545)scale(0.12 -0.12)">
      <use xlink:href="#DejaVuSans-69"/>
      <use x="63.183594" xlink:href="#DejaVuSans-73"/>
      <use x="92.675781" xlink:href="#DejaVuSans-70"/>
      <use x="150.195312" xlink:href="#DejaVuSans-52"/>
      <use x="213.818359" xlink:href="#DejaVuSans-69"/>
     </g>
    </g>
   </g>
   <g id="text_32">
    <g clip-path="url(#p5945bfb66e)">
     <!-- BCL2 -->
     <g transform="translate(183.000951 389.523183)scale(0.12 -0.12)">
      <use xlink:href="#DejaVuSans-66"/>
      <use x="66.853516" xlink:href="#DejaVuSans-67"/>
      <use x="136.677734" xlink:href="#DejaVuSans-76"/>
      <use x="192.390625" xlink:href="#DejaVuSans-50"/>
     </g>
    </g>
   </g>
   <g id="text_33">
    <g clip-path="url(#p5945bfb66e)">
     <!-- INS -->
     <g transform="translate(548.70868 369.738439)scale(0.12 -0.12)">
      <use xlink:href="#DejaVuSans-73"/>
      <use x="29.492188" xlink:href="#DejaVuSans-78"/>
      <use x="104.296875" xlink:href="#DejaVuSans-83"/>
     </g>
    </g>
   </g>
   <g id="text_34">
    <g clip-path="url(#p5945bfb66e)">
     <!-- IGF1 -->
     <g transform="translate(481.525213 404.259486)scale(0.12 -0.12)">
      <use xlink:href="#DejaVuSans-73"/>
      <use x="29.492188" xlink:href="#DejaVuSans-71"/>
      <use x="106.982422" xlink:href="#DejaVuSans-70"/>
      <use x="164.501953" xlink:href="#DejaVuSans-49"/>
     </g>
    </g>
   </g>
   <g id="text_35">
    <g clip-path="url(#p5945bfb66e)">
     <!-- INSR -->
     <g transform="translate(515.801908 389.930384)scale(0.12 -0.12)">
      <use xlink:href="#DejaVuSans-73"/>
      <use x="29.492188" xlink:href="#DejaVuSans-78"/>
      <use x="104.296875" xlink:href="#DejaVuSans-83"/>
      <use x="167.773438" xlink:href="#DejaVuSans-82"/>
     </g>
    </g>
   </g>
   <g id="text_36">
    <g clip-path="url(#p5945bfb66e)">
     <!-- EGFR -->
     <g transform="translate(481.432157 370.925989)scale(0.12 -0.12)">
      <use xlink:href="#DejaVuSans-69"/>
      <use x="63.183594" xlink:href="#DejaVuSans-71"/>
      <use x="140.673828" xlink:href="#DejaVuSans-70"/>
      <use x="198.193359" xlink:href="#DejaVuSans-82"/>
     </g>
    </g>
   </g>
   <g id="text_37">
    <g clip-path="url(#p5945bfb66e)">
     <!-- IGF1R -->
     <g transform="translate(485.903642 348.696017)scale(0.12 -0.12)">
      <use xlink:href="#DejaVuSans-73"/>
      <use x="29.492188" xlink:href="#DejaVuSans-71"/>
      <use x="106.982422" xlink:href="#DejaVuSans-70"/>
      <use x="164.501953" xlink:href="#DejaVuSans-49"/>
      <use x="228.125" xlink:href="#DejaVuSans-82"/>
     </g>
    </g>
   </g>
   <g id="text_38">
    <g clip-path="url(#p5945bfb66e)">
     <!-- ERBB2 -->
     <g transform="translate(472.51035 358.403674)scale(0.12 -0.12)">
      <use xlink:href="#DejaVuSans-69"/>
      <use x="63.183594" xlink:href="#DejaVuSans-82"/>
      <use x="132.666016" xlink:href="#DejaVuSans-66"/>
      <use x="201.269531" xlink:href="#DejaVuSans-66"/>
      <use x="269.873047" xlink:href="#DejaVuSans-50"/>
     </g>
    </g>
   </g>
   <g id="text_39">
    <g clip-path="url(#p5945bfb66e)">
     <!-- PRKCA -->
     <g transform="translate(162.986137 231.815441)scale(0.12 -0.12)">
      <use xlink:href="#DejaVuSans-80"/>
      <use x="60.302734" xlink:href="#DejaVuSans-82"/>
      <use x="129.785156" xlink:href="#DejaVuSans-75"/>
      <use x="189.861328" xlink:href="#DejaVuSans-67"/>
      <use x="259.685547" xlink:href="#DejaVuSans-65"/>
     </g>
    </g>
   </g>
   <g id="text_40">
    <g clip-path="url(#p5945bfb66e)">
     <!-- PRKCB -->
     <g transform="translate(215.074601 256.54565)scale(0.12 -0.12)">
      <use xlink:href="#DejaVuSans-80"/>
      <use x="60.302734" xlink:href="#DejaVuSans-82"/>
      <use x="129.785156" xlink:href="#DejaVuSans-75"/>
      <use x="189.861328" xlink:href="#DejaVuSans-67"/>
      <use x="259.685547" xlink:href="#DejaVuSans-66"/>
     </g>
    </g>
   </g>
   <g id="text_41">
    <g clip-path="url(#p5945bfb66e)">
     <!-- PRKCG -->
     <g transform="translate(322.735249 252.84373)scale(0.12 -0.12)">
      <use xlink:href="#DejaVuSans-80"/>
      <use x="60.302734" xlink:href="#DejaVuSans-82"/>
      <use x="129.785156" xlink:href="#DejaVuSans-75"/>
      <use x="189.861328" xlink:href="#DejaVuSans-67"/>
      <use x="259.685547" xlink:href="#DejaVuSans-71"/>
     </g>
    </g>
   </g>
   <g id="text_42">
    <g clip-path="url(#p5945bfb66e)">
     <!-- PDHB -->
     <g transform="translate(415.852924 110.918523)scale(0.12 -0.12)">
      <use xlink:href="#DejaVuSans-80"/>
      <use x="60.302734" xlink:href="#DejaVuSans-68"/>
      <use x="137.304688" xlink:href="#DejaVuSans-72"/>
      <use x="212.5" xlink:href="#DejaVuSans-66"/>
     </g>
    </g>
   </g>
   <g id="text_43">
    <g clip-path="url(#p5945bfb66e)">
     <!-- ANGPT1 -->
     <g transform="translate(239.041608 438.94836)scale(0.12 -0.12)">
      <use xlink:href="#DejaVuSans-65"/>
      <use x="68.408203" xlink:href="#DejaVuSans-78"/>
      <use x="143.212891" xlink:href="#DejaVuSans-71"/>
      <use x="220.703125" xlink:href="#DejaVuSans-80"/>
      <use x="281.005859" xlink:href="#DejaVuSans-84"/>
      <use x="342.089844" xlink:href="#DejaVuSans-49"/>
     </g>
    </g>
   </g>
   <g id="text_44">
    <g clip-path="url(#p5945bfb66e)">
     <!-- ANGPT2 -->
     <g transform="translate(647.578852 400.132288)scale(0.12 -0.12)">
      <use xlink:href="#DejaVuSans-65"/>
      <use x="68.408203" xlink:href="#DejaVuSans-78"/>
      <use x="143.212891" xlink:href="#DejaVuSans-71"/>
      <use x="220.703125" xlink:href="#DejaVuSans-80"/>
      <use x="281.005859" xlink:href="#DejaVuSans-84"/>
      <use x="342.089844" xlink:href="#DejaVuSans-50"/>
     </g>
    </g>
   </g>
   <g id="text_45">
    <g clip-path="url(#p5945bfb66e)">
     <!-- ANGPT4 -->
     <g transform="translate(199.88612 418.618815)scale(0.12 -0.12)">
      <use xlink:href="#DejaVuSans-65"/>
      <use x="68.408203" xlink:href="#DejaVuSans-78"/>
      <use x="143.212891" xlink:href="#DejaVuSans-71"/>
      <use x="220.703125" xlink:href="#DejaVuSans-80"/>
      <use x="281.005859" xlink:href="#DejaVuSans-84"/>
      <use x="342.089844" xlink:href="#DejaVuSans-52"/>
     </g>
    </g>
   </g>
   <g id="text_46">
    <g clip-path="url(#p5945bfb66e)">
     <!-- RELA -->
     <g transform="translate(556.081783 331.456154)scale(0.12 -0.12)">
      <use xlink:href="#DejaVuSans-82"/>
      <use x="69.482422" xlink:href="#DejaVuSans-69"/>
      <use x="132.666016" xlink:href="#DejaVuSans-76"/>
      <use x="190.628906" xlink:href="#DejaVuSans-65"/>
     </g>
    </g>
   </g>
   <g id="text_47">
    <g clip-path="url(#p5945bfb66e)">
     <!-- NFKB1 -->
     <g transform="translate(355.537901 223.632021)scale(0.12 -0.12)">
      <use xlink:href="#DejaVuSans-78"/>
      <use x="74.804688" xlink:href="#DejaVuSans-70"/>
      <use x="132.324219" xlink:href="#DejaVuSans-75"/>
      <use x="197.900391" xlink:href="#DejaVuSans-66"/>
      <use x="266.503906" xlink:href="#DejaVuSans-49"/>
     </g>
    </g>
   </g>
   <g id="text_48">
    <g clip-path="url(#p5945bfb66e)">
     <!-- IFNGR1 -->
     <g transform="translate(460.428298 273.216921)scale(0.12 -0.12)">
      <use xlink:href="#DejaVuSans-73"/>
      <use x="29.492188" xlink:href="#DejaVuSans-70"/>
      <use x="87.011719" xlink:href="#DejaVuSans-78"/>
      <use x="161.816406" xlink:href="#DejaVuSans-71"/>
      <use x="239.306641" xlink:href="#DejaVuSans-82"/>
      <use x="308.789062" xlink:href="#DejaVuSans-49"/>
     </g>
    </g>
   </g>
   <g id="text_49">
    <g clip-path="url(#p5945bfb66e)">
     <!-- IFNGR2 -->
     <g transform="translate(473.563724 256.002893)scale(0.12 -0.12)">
      <use xlink:href="#DejaVuSans-73"/>
      <use x="29.492188" xlink:href="#DejaVuSans-70"/>
      <use x="87.011719" xlink:href="#DejaVuSans-78"/>
      <use x="161.816406" xlink:href="#DejaVuSans-71"/>
      <use x="239.306641" xlink:href="#DejaVuSans-82"/>
      <use x="308.789062" xlink:href="#DejaVuSans-50"/>
     </g>
    </g>
   </g>
   <g id="text_50">
    <g clip-path="url(#p5945bfb66e)">
     <!-- MAP2K1 -->
     <g transform="translate(277.905215 461.226889)scale(0.12 -0.12)">
      <use xlink:href="#DejaVuSans-77"/>
      <use x="86.279297" xlink:href="#DejaVuSans-65"/>
      <use x="154.6875" xlink:href="#DejaVuSans-80"/>
      <use x="214.990234" xlink:href="#DejaVuSans-50"/>
      <use x="278.613281" xlink:href="#DejaVuSans-75"/>
      <use x="344.189453" xlink:href="#DejaVuSans-49"/>
     </g>
    </g>
   </g>
   <g id="text_51">
    <g clip-path="url(#p5945bfb66e)">
     <!-- MAP2K2 -->
     <g transform="translate(695.025465 276.848391)scale(0.12 -0.12)">
      <use xlink:href="#DejaVuSans-77"/>
      <use x="86.279297" xlink:href="#DejaVuSans-65"/>
      <use x="154.6875" xlink:href="#DejaVuSans-80"/>
      <use x="214.990234" xlink:href="#DejaVuSans-50"/>
      <use x="278.613281" xlink:href="#DejaVuSans-75"/>
      <use x="344.189453" xlink:href="#DejaVuSans-50"/>
     </g>
    </g>
   </g>
   <g id="text_52">
    <g clip-path="url(#p5945bfb66e)">
     <!-- CDKN1A -->
     <g transform="translate(490.372822 474.932954)scale(0.12 -0.12)">
      <use xlink:href="#DejaVuSans-67"/>
      <use x="69.824219" xlink:href="#DejaVuSans-68"/>
      <use x="146.826172" xlink:href="#DejaVuSans-75"/>
      <use x="212.402344" xlink:href="#DejaVuSans-78"/>
      <use x="287.207031" xlink:href="#DejaVuSans-49"/>
      <use x="350.830078" xlink:href="#DejaVuSans-65"/>
     </g>
    </g>
   </g>
   <g id="text_53">
    <g clip-path="url(#p5945bfb66e)">
     <!-- CDKN1B -->
     <g transform="translate(672.225066 227.28591)scale(0.12 -0.12)">
      <use xlink:href="#DejaVuSans-67"/>
      <use x="69.824219" xlink:href="#DejaVuSans-68"/>
      <use x="146.826172" xlink:href="#DejaVuSans-75"/>
      <use x="212.402344" xlink:href="#DejaVuSans-78"/>
      <use x="287.207031" xlink:href="#DejaVuSans-49"/>
      <use x="350.830078" xlink:href="#DejaVuSans-66"/>
     </g>
    </g>
   </g>
   <g id="text_54">
    <!-- Frame: 11 -->
    <g transform="translate(121.392 91.296)scale(0.1 -0.1)">
     <defs>
      <path d="M 41.109375 46.296875 
Q 39.59375 47.171875 37.8125 47.578125 
Q 36.03125 48 33.890625 48 
Q 26.265625 48 22.1875 43.046875 
Q 18.109375 38.09375 18.109375 28.8125 
L 18.109375 0 
L 9.078125 0 
L 9.078125 54.6875 
L 18.109375 54.6875 
L 18.109375 46.1875 
Q 20.953125 51.171875 25.484375 53.578125 
Q 30.03125 56 36.53125 56 
Q 37.453125 56 38.578125 55.875 
Q 39.703125 55.765625 41.0625 55.515625 
z
" id="DejaVuSans-114"/>
      <path d="M 34.28125 27.484375 
Q 23.390625 27.484375 19.1875 25 
Q 14.984375 22.515625 14.984375 16.5 
Q 14.984375 11.71875 18.140625 8.90625 
Q 21.296875 6.109375 26.703125 6.109375 
Q 34.1875 6.109375 38.703125 11.40625 
Q 43.21875 16.703125 43.21875 25.484375 
L 43.21875 27.484375 
z
M 52.203125 31.203125 
L 52.203125 0 
L 43.21875 0 
L 43.21875 8.296875 
Q 40.140625 3.328125 35.546875 0.953125 
Q 30.953125 -1.421875 24.3125 -1.421875 
Q 15.921875 -1.421875 10.953125 3.296875 
Q 6 8.015625 6 15.921875 
Q 6 25.140625 12.171875 29.828125 
Q 18.359375 34.515625 30.609375 34.515625 
L 43.21875 34.515625 
L 43.21875 35.40625 
Q 43.21875 41.609375 39.140625 45 
Q 35.0625 48.390625 27.6875 48.390625 
Q 23 48.390625 18.546875 47.265625 
Q 14.109375 46.140625 10.015625 43.890625 
L 10.015625 52.203125 
Q 14.9375 54.109375 19.578125 55.046875 
Q 24.21875 56 28.609375 56 
Q 40.484375 56 46.34375 49.84375 
Q 52.203125 43.703125 52.203125 31.203125 
z
" id="DejaVuSans-97"/>
      <path d="M 52 44.1875 
Q 55.375 50.25 60.0625 53.125 
Q 64.75 56 71.09375 56 
Q 79.640625 56 84.28125 50.015625 
Q 88.921875 44.046875 88.921875 33.015625 
L 88.921875 0 
L 79.890625 0 
L 79.890625 32.71875 
Q 79.890625 40.578125 77.09375 44.375 
Q 74.3125 48.1875 68.609375 48.1875 
Q 61.625 48.1875 57.5625 43.546875 
Q 53.515625 38.921875 53.515625 30.90625 
L 53.515625 0 
L 44.484375 0 
L 44.484375 32.71875 
Q 44.484375 40.625 41.703125 44.40625 
Q 38.921875 48.1875 33.109375 48.1875 
Q 26.21875 48.1875 22.15625 43.53125 
Q 18.109375 38.875 18.109375 30.90625 
L 18.109375 0 
L 9.078125 0 
L 9.078125 54.6875 
L 18.109375 54.6875 
L 18.109375 46.1875 
Q 21.1875 51.21875 25.484375 53.609375 
Q 29.78125 56 35.6875 56 
Q 41.65625 56 45.828125 52.96875 
Q 50 49.953125 52 44.1875 
z
" id="DejaVuSans-109"/>
      <path d="M 56.203125 29.59375 
L 56.203125 25.203125 
L 14.890625 25.203125 
Q 15.484375 15.921875 20.484375 11.0625 
Q 25.484375 6.203125 34.421875 6.203125 
Q 39.59375 6.203125 44.453125 7.46875 
Q 49.3125 8.734375 54.109375 11.28125 
L 54.109375 2.78125 
Q 49.265625 0.734375 44.1875 -0.34375 
Q 39.109375 -1.421875 33.890625 -1.421875 
Q 20.796875 -1.421875 13.15625 6.1875 
Q 5.515625 13.8125 5.515625 26.8125 
Q 5.515625 40.234375 12.765625 48.109375 
Q 20.015625 56 32.328125 56 
Q 43.359375 56 49.78125 48.890625 
Q 56.203125 41.796875 56.203125 29.59375 
z
M 47.21875 32.234375 
Q 47.125 39.59375 43.09375 43.984375 
Q 39.0625 48.390625 32.421875 48.390625 
Q 24.90625 48.390625 20.390625 44.140625 
Q 15.875 39.890625 15.1875 32.171875 
z
" id="DejaVuSans-101"/>
      <path d="M 11.71875 12.40625 
L 22.015625 12.40625 
L 22.015625 0 
L 11.71875 0 
z
M 11.71875 51.703125 
L 22.015625 51.703125 
L 22.015625 39.3125 
L 11.71875 39.3125 
z
" id="DejaVuSans-58"/>
      <path id="DejaVuSans-32"/>
     </defs>
     <use xlink:href="#DejaVuSans-70"/>
     <use x="50.269531" xlink:href="#DejaVuSans-114"/>
     <use x="91.382812" xlink:href="#DejaVuSans-97"/>
     <use x="152.662109" xlink:href="#DejaVuSans-109"/>
     <use x="250.074219" xlink:href="#DejaVuSans-101"/>
     <use x="311.597656" xlink:href="#DejaVuSans-58"/>
     <use x="345.289062" xlink:href="#DejaVuSans-32"/>
     <use x="377.076172" xlink:href="#DejaVuSans-49"/>
     <use x="440.699219" xlink:href="#DejaVuSans-49"/>
    </g>
   </g>
   <g id="text_55">
    <!-- Network: hsa04066 -->
    <g transform="translate(384.1275 63.12)scale(0.12 -0.12)">
     <defs>
      <path d="M 18.3125 70.21875 
L 18.3125 54.6875 
L 36.8125 54.6875 
L 36.8125 47.703125 
L 18.3125 47.703125 
L 18.3125 18.015625 
Q 18.3125 11.328125 20.140625 9.421875 
Q 21.96875 7.515625 27.59375 7.515625 
L 36.8125 7.515625 
L 36.8125 0 
L 27.59375 0 
Q 17.1875 0 13.234375 3.875 
Q 9.28125 7.765625 9.28125 18.015625 
L 9.28125 47.703125 
L 2.6875 47.703125 
L 2.6875 54.6875 
L 9.28125 54.6875 
L 9.28125 70.21875 
z
" id="DejaVuSans-116"/>
      <path d="M 4.203125 54.6875 
L 13.1875 54.6875 
L 24.421875 12.015625 
L 35.59375 54.6875 
L 46.1875 54.6875 
L 57.421875 12.015625 
L 68.609375 54.6875 
L 77.59375 54.6875 
L 63.28125 0 
L 52.6875 0 
L 40.921875 44.828125 
L 29.109375 0 
L 18.5 0 
z
" id="DejaVuSans-119"/>
      <path d="M 30.609375 48.390625 
Q 23.390625 48.390625 19.1875 42.75 
Q 14.984375 37.109375 14.984375 27.296875 
Q 14.984375 17.484375 19.15625 11.84375 
Q 23.34375 6.203125 30.609375 6.203125 
Q 37.796875 6.203125 41.984375 11.859375 
Q 46.1875 17.53125 46.1875 27.296875 
Q 46.1875 37.015625 41.984375 42.703125 
Q 37.796875 48.390625 30.609375 48.390625 
z
M 30.609375 56 
Q 42.328125 56 49.015625 48.375 
Q 55.71875 40.765625 55.71875 27.296875 
Q 55.71875 13.875 49.015625 6.21875 
Q 42.328125 -1.421875 30.609375 -1.421875 
Q 18.84375 -1.421875 12.171875 6.21875 
Q 5.515625 13.875 5.515625 27.296875 
Q 5.515625 40.765625 12.171875 48.375 
Q 18.84375 56 30.609375 56 
z
" id="DejaVuSans-111"/>
      <path d="M 9.078125 75.984375 
L 18.109375 75.984375 
L 18.109375 31.109375 
L 44.921875 54.6875 
L 56.390625 54.6875 
L 27.390625 29.109375 
L 57.625 0 
L 45.90625 0 
L 18.109375 26.703125 
L 18.109375 0 
L 9.078125 0 
z
" id="DejaVuSans-107"/>
      <path d="M 54.890625 33.015625 
L 54.890625 0 
L 45.90625 0 
L 45.90625 32.71875 
Q 45.90625 40.484375 42.875 44.328125 
Q 39.84375 48.1875 33.796875 48.1875 
Q 26.515625 48.1875 22.3125 43.546875 
Q 18.109375 38.921875 18.109375 30.90625 
L 18.109375 0 
L 9.078125 0 
L 9.078125 75.984375 
L 18.109375 75.984375 
L 18.109375 46.1875 
Q 21.34375 51.125 25.703125 53.5625 
Q 30.078125 56 35.796875 56 
Q 45.21875 56 50.046875 50.171875 
Q 54.890625 44.34375 54.890625 33.015625 
z
" id="DejaVuSans-104"/>
      <path d="M 44.28125 53.078125 
L 44.28125 44.578125 
Q 40.484375 46.53125 36.375 47.5 
Q 32.28125 48.484375 27.875 48.484375 
Q 21.1875 48.484375 17.84375 46.4375 
Q 14.5 44.390625 14.5 40.28125 
Q 14.5 37.15625 16.890625 35.375 
Q 19.28125 33.59375 26.515625 31.984375 
L 29.59375 31.296875 
Q 39.15625 29.25 43.1875 25.515625 
Q 47.21875 21.78125 47.21875 15.09375 
Q 47.21875 7.46875 41.1875 3.015625 
Q 35.15625 -1.421875 24.609375 -1.421875 
Q 20.21875 -1.421875 15.453125 -0.5625 
Q 10.6875 0.296875 5.421875 2 
L 5.421875 11.28125 
Q 10.40625 8.6875 15.234375 7.390625 
Q 20.0625 6.109375 24.8125 6.109375 
Q 31.15625 6.109375 34.5625 8.28125 
Q 37.984375 10.453125 37.984375 14.40625 
Q 37.984375 18.0625 35.515625 20.015625 
Q 33.0625 21.96875 24.703125 23.78125 
L 21.578125 24.515625 
Q 13.234375 26.265625 9.515625 29.90625 
Q 5.8125 33.546875 5.8125 39.890625 
Q 5.8125 47.609375 11.28125 51.796875 
Q 16.75 56 26.8125 56 
Q 31.78125 56 36.171875 55.265625 
Q 40.578125 54.546875 44.28125 53.078125 
z
" id="DejaVuSans-115"/>
     </defs>
     <use xlink:href="#DejaVuSans-78"/>
     <use x="74.804688" xlink:href="#DejaVuSans-101"/>
     <use x="136.328125" xlink:href="#DejaVuSans-116"/>
     <use x="175.537109" xlink:href="#DejaVuSans-119"/>
     <use x="257.324219" xlink:href="#DejaVuSans-111"/>
     <use x="318.505859" xlink:href="#DejaVuSans-114"/>
     <use x="359.619141" xlink:href="#DejaVuSans-107"/>
     <use x="417.529297" xlink:href="#DejaVuSans-58"/>
     <use x="451.220703" xlink:href="#DejaVuSans-32"/>
     <use x="483.007812" xlink:href="#DejaVuSans-104"/>
     <use x="546.386719" xlink:href="#DejaVuSans-115"/>
     <use x="598.486328" xlink:href="#DejaVuSans-97"/>
     <use x="659.765625" xlink:href="#DejaVuSans-48"/>
     <use x="723.388672" xlink:href="#DejaVuSans-52"/>
     <use x="787.011719" xlink:href="#DejaVuSans-48"/>
     <use x="850.634766" xlink:href="#DejaVuSans-54"/>
     <use x="914.257812" xlink:href="#DejaVuSans-54"/>
    </g>
   </g>
  </g>
 </g>
 <defs>
  <clipPath id="p5945bfb66e">
   <rect height="443.52" width="669.6" x="108" y="69.12"/>
  </clipPath>
 </defs>
</svg>
