<?xml version="1.0" encoding="utf-8" standalone="no"?>
<!DOCTYPE svg PUBLIC "-//W3C//DTD SVG 1.1//EN"
  "http://www.w3.org/Graphics/SVG/1.1/DTD/svg11.dtd">
<!-- Created with matplotlib (https://matplotlib.org/) -->
<svg height="576pt" version="1.1" viewBox="0 0 864 576" width="864pt" xmlns="http://www.w3.org/2000/svg" xmlns:xlink="http://www.w3.org/1999/xlink">
 <metadata>
  <rdf:RDF xmlns:cc="http://creativecommons.org/ns#" xmlns:dc="http://purl.org/dc/elements/1.1/" xmlns:rdf="http://www.w3.org/1999/02/22-rdf-syntax-ns#">
   <cc:Work>
    <dc:type rdf:resource="http://purl.org/dc/dcmitype/StillImage"/>
    <dc:date>2024-04-12T11:39:51.918572</dc:date>
    <dc:format>image/svg+xml</dc:format>
    <dc:creator>
     <cc:Agent>
      <dc:title>Matplotlib v3.3.1, https://matplotlib.org/</dc:title>
     </cc:Agent>
    </dc:creator>
   </cc:Work>
  </rdf:RDF>
 </metadata>
 <defs>
  <style type="text/css">*{stroke-linecap:butt;stroke-linejoin:round;}</style>
 </defs>
 <g id="figure_1">
  <g id="patch_1">
   <path d="M 0 576 
L 864 576 
L 864 0 
L 0 0 
z
" style="fill:#ffffff;"/>
  </g>
  <g id="axes_1">
   <g id="patch_2">
    <path clip-path="url(#p7323348440)" d="M 414.285128 356.008214 
Q 435.717976 326.689767 456.491008 298.273897 
" style="fill:none;stroke:#000000;stroke-linecap:round;"/>
    <path clip-path="url(#p7323348440)" d="M 452.515803 300.322736 
L 456.491008 298.273897 
L 455.744957 302.683365 
L 452.515803 300.322736 
z
" style="stroke:#000000;stroke-linecap:round;"/>
   </g>
   <g id="patch_3">
    <path clip-path="url(#p7323348440)" d="M 531.534935 351.346863 
Q 500.148131 323.724805 469.600627 296.841375 
" style="fill:none;stroke:#000000;stroke-linecap:round;"/>
    <path clip-path="url(#p7323348440)" d="M 471.282101 300.985365 
L 469.600627 296.841375 
L 473.924703 297.98259 
L 471.282101 300.985365 
z
" style="stroke:#000000;stroke-linecap:round;"/>
   </g>
   <g id="patch_4">
    <path clip-path="url(#p7323348440)" d="M 458.852706 282.64679 
Q 489.630997 200.084157 520.018753 118.569133 
" style="fill:none;stroke:#000000;stroke-linecap:round;"/>
    <path clip-path="url(#p7323348440)" d="M 516.747515 121.618559 
L 520.018753 118.569133 
L 520.495552 123.015779 
L 516.747515 121.618559 
z
" style="stroke:#000000;stroke-linecap:round;"/>
   </g>
   <g id="patch_5">
    <path clip-path="url(#p7323348440)" d="M 463.90311 293.884918 
Q 568.198894 334.200376 671.451844 374.112726 
" style="fill:none;stroke:#000000;stroke-linecap:round;"/>
    <path clip-path="url(#p7323348440)" d="M 668.441984 370.805046 
L 671.451844 374.112726 
L 666.999784 374.536006 
L 668.441984 370.805046 
z
" style="stroke:#000000;stroke-linecap:round;"/>
   </g>
   <g id="patch_6">
    <path clip-path="url(#p7323348440)" d="M 453.810668 282.338311 
Q 434.297781 200.809626 415.045132 120.368266 
" style="fill:none;stroke:#000000;stroke-linecap:round;"/>
    <path clip-path="url(#p7323348440)" d="M 414.031121 124.723926 
L 415.045132 120.368266 
L 417.921254 123.792871 
L 414.031121 124.723926 
z
" style="stroke:#000000;stroke-linecap:round;"/>
   </g>
   <g id="patch_7">
    <path clip-path="url(#p7323348440)" d="M 447.967617 287.132072 
Q 335.765376 235.294731 224.578088 183.926297 
" style="fill:none;stroke:#000000;stroke-linecap:round;"/>
    <path clip-path="url(#p7323348440)" d="M 227.370483 187.419509 
L 224.578088 183.926297 
L 229.048094 183.788308 
L 227.370483 187.419509 
z
" style="stroke:#000000;stroke-linecap:round;"/>
   </g>
   <g id="patch_8">
    <path clip-path="url(#p7323348440)" d="M 462.336932 296.472329 
Q 538.155048 362.965226 613.132594 428.720938 
" style="fill:none;stroke:#000000;stroke-linecap:round;"/>
    <path clip-path="url(#p7323348440)" d="M 611.443994 424.579847 
L 613.132594 428.720938 
L 608.806562 427.587163 
L 611.443994 424.579847 
z
" style="stroke:#000000;stroke-linecap:round;"/>
   </g>
   <g id="patch_9">
    <path clip-path="url(#p7323348440)" d="M 461.914262 284.598767 
Q 529.951746 215.699148 597.203654 147.59506 
" style="fill:none;stroke:#000000;stroke-linecap:round;"/>
    <path clip-path="url(#p7323348440)" d="M 592.970001 149.035956 
L 597.203654 147.59506 
L 595.816179 151.84652 
L 592.970001 149.035956 
z
" style="stroke:#000000;stroke-linecap:round;"/>
   </g>
   <g id="patch_10">
    <path clip-path="url(#p7323348440)" d="M 448.674773 285.882057 
Q 382.839299 240.952663 317.927303 196.653497 
" style="fill:none;stroke:#000000;stroke-linecap:round;"/>
    <path clip-path="url(#p7323348440)" d="M 320.103856 200.560237 
L 317.927303 196.653497 
L 322.358627 197.256299 
L 320.103856 200.560237 
z
" style="stroke:#000000;stroke-linecap:round;"/>
   </g>
   <g id="patch_11">
    <path clip-path="url(#p7323348440)" d="M 464.464943 290.137059 
Q 587.662028 281.207921 709.744005 272.359606 
" style="fill:none;stroke:#000000;stroke-linecap:round;"/>
    <path clip-path="url(#p7323348440)" d="M 705.609893 270.653994 
L 709.744005 272.359606 
L 705.899048 274.643528 
L 705.609893 270.653994 
z
" style="stroke:#000000;stroke-linecap:round;"/>
   </g>
   <g id="patch_12">
    <path clip-path="url(#p7323348440)" d="M 463.343356 295.065699 
Q 557.644786 349.046866 650.975911 402.472598 
" style="fill:none;stroke:#000000;stroke-linecap:round;"/>
    <path clip-path="url(#p7323348440)" d="M 648.498031 398.749681 
L 650.975911 402.472598 
L 646.51085 402.221152 
L 648.498031 398.749681 
z
" style="stroke:#000000;stroke-linecap:round;"/>
   </g>
   <g id="patch_13">
    <path clip-path="url(#p7323348440)" d="M 462.89123 285.750656 
Q 550.96829 223.254708 638.133534 161.405747 
" style="fill:none;stroke:#000000;stroke-linecap:round;"/>
    <path clip-path="url(#p7323348440)" d="M 633.713958 162.089375 
L 638.133534 161.405747 
L 636.028691 165.351585 
L 633.713958 162.089375 
z
" style="stroke:#000000;stroke-linecap:round;"/>
   </g>
   <g id="patch_14">
    <path clip-path="url(#p7323348440)" d="M 459.434375 298.635455 
Q 493.896544 373.842754 527.892967 448.033647 
" style="fill:none;stroke:#000000;stroke-linecap:round;"/>
    <path clip-path="url(#p7323348440)" d="M 528.044863 443.564091 
L 527.892967 448.033647 
L 524.40846 445.230397 
L 528.044863 443.564091 
z
" style="stroke:#000000;stroke-linecap:round;"/>
   </g>
   <g id="patch_15">
    <path clip-path="url(#p7323348440)" d="M 454.096294 299.250146 
Q 437.262625 381.79697 420.652358 463.248308 
" style="fill:none;stroke:#000000;stroke-linecap:round;"/>
    <path clip-path="url(#p7323348440)" d="M 423.411289 459.728606 
L 420.652358 463.248308 
L 419.491956 458.929342 
L 423.411289 459.728606 
z
" style="stroke:#000000;stroke-linecap:round;"/>
   </g>
   <g id="patch_16">
    <path clip-path="url(#p7323348440)" d="M 464.434818 289.830411 
Q 569.514275 278.444356 673.482205 267.178743 
" style="fill:none;stroke:#000000;stroke-linecap:round;"/>
    <path clip-path="url(#p7323348440)" d="M 669.29003 265.621286 
L 673.482205 267.178743 
L 669.720934 269.598008 
L 669.29003 265.621286 
z
" style="stroke:#000000;stroke-linecap:round;"/>
   </g>
   <g id="patch_17">
    <path clip-path="url(#p7323348440)" d="M 447.250039 291.952716 
Q 312.505628 310.641221 178.868651 329.17613 
" style="fill:none;stroke:#000000;stroke-linecap:round;"/>
    <path clip-path="url(#p7323348440)" d="M 183.105486 330.607643 
L 178.868651 329.17613 
L 182.555962 326.64557 
L 183.105486 330.607643 
z
" style="stroke:#000000;stroke-linecap:round;"/>
   </g>
   <g id="patch_18">
    <path clip-path="url(#p7323348440)" d="M 464.062534 288.092278 
Q 569.260851 253.975531 673.395664 220.203687 
" style="fill:none;stroke:#000000;stroke-linecap:round;"/>
    <path clip-path="url(#p7323348440)" d="M 668.973773 219.535199 
L 673.395664 220.203687 
L 670.207739 223.340107 
L 668.973773 219.535199 
z
" style="stroke:#000000;stroke-linecap:round;"/>
   </g>
   <g id="patch_19">
    <path clip-path="url(#p7323348440)" d="M 451.692566 283.153053 
Q 406.073601 199.185137 360.988369 116.19963 
" style="fill:none;stroke:#000000;stroke-linecap:round;"/>
    <path clip-path="url(#p7323348440)" d="M 361.140525 120.669177 
L 360.988369 116.19963 
L 364.6553 118.759634 
L 361.140525 120.669177 
z
" style="stroke:#000000;stroke-linecap:round;"/>
   </g>
   <g id="patch_20">
    <path clip-path="url(#p7323348440)" d="M 447.237437 289.683341 
Q 310.967774 272.553194 175.807415 255.562494 
" style="fill:none;stroke:#000000;stroke-linecap:round;"/>
    <path clip-path="url(#p7323348440)" d="M 179.526728 258.045781 
L 175.807415 255.562494 
L 180.025632 254.077016 
L 179.526728 258.045781 
z
" style="stroke:#000000;stroke-linecap:round;"/>
   </g>
   <g id="patch_21">
    <path clip-path="url(#p7323348440)" d="M 449.749179 296.933728 
Q 376.512202 371.288249 304.059786 444.846237 
" style="fill:none;stroke:#000000;stroke-linecap:round;"/>
    <path clip-path="url(#p7323348440)" d="M 308.291597 443.39994 
L 304.059786 444.846237 
L 305.441835 440.59301 
L 308.291597 443.39994 
z
" style="stroke:#000000;stroke-linecap:round;"/>
   </g>
   <g id="patch_22">
    <path clip-path="url(#p7323348440)" d="M 448.589634 295.515599 
Q 356.556746 355.949432 265.458415 415.769584 
" style="fill:none;stroke:#000000;stroke-linecap:round;"/>
    <path clip-path="url(#p7323348440)" d="M 269.899771 415.245798 
L 265.458415 415.769584 
L 267.7042 411.902227 
L 269.899771 415.245798 
z
" style="stroke:#000000;stroke-linecap:round;"/>
   </g>
   <g id="patch_23">
    <path clip-path="url(#p7323348440)" d="M 447.595745 293.45455 
Q 335.576871 330.081939 224.620668 366.361862 
" style="fill:none;stroke:#000000;stroke-linecap:round;"/>
    <path clip-path="url(#p7323348440)" d="M 229.044158 367.019689 
L 224.620668 366.361862 
L 227.801024 363.217766 
L 229.044158 367.019689 
z
" style="stroke:#000000;stroke-linecap:round;"/>
   </g>
   <g id="patch_24">
    <path clip-path="url(#p7323348440)" d="M 447.485937 288.444264 
Q 320.183853 253.053835 193.958952 217.962867 
" style="fill:none;stroke:#000000;stroke-linecap:round;"/>
    <path clip-path="url(#p7323348440)" d="M 197.277108 220.961174 
L 193.958952 217.962867 
L 198.348491 217.107326 
L 197.277108 220.961174 
z
" style="stroke:#000000;stroke-linecap:round;"/>
   </g>
   <g id="patch_25">
    <path clip-path="url(#p7323348440)" d="M 463.556088 286.85029 
Q 560.096668 237.976613 655.639754 189.607917 
" style="fill:none;stroke:#000000;stroke-linecap:round;"/>
    <path clip-path="url(#p7323348440)" d="M 651.167673 189.630222 
L 655.639754 189.607917 
L 652.974349 193.198965 
L 651.167673 189.630222 
z
" style="stroke:#000000;stroke-linecap:round;"/>
   </g>
   <g id="patch_26">
    <path clip-path="url(#p7323348440)" d="M 456.925449 299.351113 
Q 467.554626 382.456297 478.041962 464.45248 
" style="fill:none;stroke:#000000;stroke-linecap:round;"/>
    <path clip-path="url(#p7323348440)" d="M 479.518334 460.231067 
L 478.041962 464.45248 
L 475.550655 460.738534 
L 479.518334 460.231067 
z
" style="stroke:#000000;stroke-linecap:round;"/>
   </g>
   <g id="patch_27">
    <path clip-path="url(#p7323348440)" d="M 464.460035 291.436549 
Q 586.129901 300.927576 706.685119 310.331653 
" style="fill:none;stroke:#000000;stroke-linecap:round;"/>
    <path clip-path="url(#p7323348440)" d="M 702.852774 308.026629 
L 706.685119 310.331653 
L 702.541693 312.014515 
L 702.852774 308.026629 
z
" style="stroke:#000000;stroke-linecap:round;"/>
   </g>
   <g id="patch_28">
    <path clip-path="url(#p7323348440)" d="M 461.466774 278.588522 
Q 490.960471 198.065841 520.06964 118.592988 
" style="fill:none;stroke:#000000;stroke-linecap:round;"/>
    <path clip-path="url(#p7323348440)" d="M 516.815919 121.661098 
L 520.06964 118.592988 
L 520.571896 123.036831 
L 516.815919 121.661098 
z
" style="stroke:#000000;stroke-linecap:round;"/>
   </g>
   <g id="patch_29">
    <path clip-path="url(#p7323348440)" d="M 466.50319 289.999651 
Q 569.531064 332.17864 671.524255 373.934035 
" style="fill:none;stroke:#000000;stroke-linecap:round;"/>
    <path clip-path="url(#p7323348440)" d="M 668.580207 370.567646 
L 671.524255 373.934035 
L 667.064714 374.26944 
L 668.580207 370.567646 
z
" style="stroke:#000000;stroke-linecap:round;"/>
   </g>
   <g id="patch_30">
    <path clip-path="url(#p7323348440)" d="M 456.31019 278.33833 
Q 435.628859 198.788066 415.228842 120.319866 
" style="fill:none;stroke:#000000;stroke-linecap:round;"/>
    <path clip-path="url(#p7323348440)" d="M 414.299643 124.694405 
L 415.228842 120.319866 
L 418.170954 123.687948 
L 414.299643 124.694405 
z
" style="stroke:#000000;stroke-linecap:round;"/>
   </g>
   <g id="patch_31">
    <path clip-path="url(#p7323348440)" d="M 450.564568 283.229759 
Q 337.093482 233.271198 224.645646 183.763149 
" style="fill:none;stroke:#000000;stroke-linecap:round;"/>
    <path clip-path="url(#p7323348440)" d="M 227.500634 187.205393 
L 224.645646 183.763149 
L 229.112434 183.544505 
L 227.500634 187.205393 
z
" style="stroke:#000000;stroke-linecap:round;"/>
   </g>
   <g id="patch_32">
    <path clip-path="url(#p7323348440)" d="M 464.873766 292.569632 
Q 539.487575 360.944393 613.277104 428.563799 
" style="fill:none;stroke:#000000;stroke-linecap:round;"/>
    <path clip-path="url(#p7323348440)" d="M 611.679291 424.38684 
L 613.277104 428.563799 
L 608.976849 427.335874 
L 611.679291 424.38684 
z
" style="stroke:#000000;stroke-linecap:round;"/>
   </g>
   <g id="patch_33">
    <path clip-path="url(#p7323348440)" d="M 464.600095 280.586622 
Q 531.279782 213.679819 597.170245 147.564928 
" style="fill:none;stroke:#000000;stroke-linecap:round;"/>
    <path clip-path="url(#p7323348440)" d="M 592.930015 148.986353 
L 597.170245 147.564928 
L 595.763247 151.809967 
L 592.930015 148.986353 
z
" style="stroke:#000000;stroke-linecap:round;"/>
   </g>
   <g id="patch_34">
    <path clip-path="url(#p7323348440)" d="M 451.206199 282.035743 
Q 384.170233 238.930408 318.074664 196.429765 
" style="fill:none;stroke:#000000;stroke-linecap:round;"/>
    <path clip-path="url(#p7323348440)" d="M 320.357425 200.275413 
L 318.074664 196.429765 
L 322.520838 196.910945 
L 320.357425 200.275413 
z
" style="stroke:#000000;stroke-linecap:round;"/>
   </g>
   <g id="patch_35">
    <path clip-path="url(#p7323348440)" d="M 467.135168 286.219565 
Q 588.992288 279.185742 709.733232 272.216348 
" style="fill:none;stroke:#000000;stroke-linecap:round;"/>
    <path clip-path="url(#p7323348440)" d="M 705.624627 270.450175 
L 709.733232 272.216348 
L 705.855131 274.443528 
L 705.624627 270.450175 
z
" style="stroke:#000000;stroke-linecap:round;"/>
   </g>
   <g id="patch_36">
    <path clip-path="url(#p7323348440)" d="M 465.913083 291.17419 
Q 558.972973 347.023015 651.074215 402.296518 
" style="fill:none;stroke:#000000;stroke-linecap:round;"/>
    <path clip-path="url(#p7323348440)" d="M 648.673619 398.523305 
L 651.074215 402.296518 
L 646.615286 401.953067 
L 648.673619 398.523305 
z
" style="stroke:#000000;stroke-linecap:round;"/>
   </g>
   <g id="patch_37">
    <path clip-path="url(#p7323348440)" d="M 465.591674 281.760402 
Q 552.298958 221.232644 638.089482 161.344849 
" style="fill:none;stroke:#000000;stroke-linecap:round;"/>
    <path clip-path="url(#p7323348440)" d="M 633.664784 161.994499 
L 638.089482 161.344849 
L 635.954383 165.274397 
L 633.664784 161.994499 
z
" style="stroke:#000000;stroke-linecap:round;"/>
   </g>
   <g id="patch_38">
    <path clip-path="url(#p7323348440)" d="M 461.920775 294.668328 
Q 495.227218 371.81997 528.090533 447.945143 
" style="fill:none;stroke:#000000;stroke-linecap:round;"/>
    <path clip-path="url(#p7323348440)" d="M 528.341354 443.480046 
L 528.090533 447.945143 
L 524.668948 445.065427 
L 528.341354 443.480046 
z
" style="stroke:#000000;stroke-linecap:round;"/>
   </g>
   <g id="patch_39">
    <path clip-path="url(#p7323348440)" d="M 456.677771 295.18974 
Q 438.593846 379.773254 420.743674 463.263443 
" style="fill:none;stroke:#000000;stroke-linecap:round;"/>
    <path clip-path="url(#p7323348440)" d="M 423.535772 459.769994 
L 420.743674 463.263443 
L 419.624173 458.933695 
L 423.535772 459.769994 
z
" style="stroke:#000000;stroke-linecap:round;"/>
   </g>
   <g id="patch_40">
    <path clip-path="url(#p7323348440)" d="M 467.112476 285.928363 
Q 570.846439 276.421994 673.467034 267.017655 
" style="fill:none;stroke:#000000;stroke-linecap:round;"/>
    <path clip-path="url(#p7323348440)" d="M 669.301207 265.391039 
L 673.467034 267.017655 
L 669.666244 269.374347 
L 669.301207 265.391039 
z
" style="stroke:#000000;stroke-linecap:round;"/>
   </g>
   <g id="patch_41">
    <path clip-path="url(#p7323348440)" d="M 449.929352 288.014557 
Q 313.839476 308.618554 178.855035 329.055187 
" style="fill:none;stroke:#000000;stroke-linecap:round;"/>
    <path clip-path="url(#p7323348440)" d="M 183.109353 330.433876 
L 178.855035 329.055187 
L 182.510577 326.478946 
L 183.109353 330.433876 
z
" style="stroke:#000000;stroke-linecap:round;"/>
   </g>
   <g id="patch_42">
    <path clip-path="url(#p7323348440)" d="M 466.757755 284.154302 
Q 570.590038 251.953822 673.354458 220.084507 
" style="fill:none;stroke:#000000;stroke-linecap:round;"/>
    <path clip-path="url(#p7323348440)" d="M 668.941552 219.359071 
L 673.354458 220.084507 
L 670.126365 223.17957 
L 668.941552 219.359071 
z
" style="stroke:#000000;stroke-linecap:round;"/>
   </g>
   <g id="patch_43">
    <path clip-path="url(#p7323348440)" d="M 454.197043 279.194633 
Q 407.40402 197.162019 361.164958 116.100552 
" style="fill:none;stroke:#000000;stroke-linecap:round;"/>
    <path clip-path="url(#p7323348440)" d="M 361.40963 120.56599 
L 361.164958 116.100552 
L 364.884111 118.584077 
L 361.40963 120.56599 
z
" style="stroke:#000000;stroke-linecap:round;"/>
   </g>
   <g id="patch_44">
    <path clip-path="url(#p7323348440)" d="M 449.882824 285.765691 
Q 312.296253 270.530664 175.820924 255.418687 
" style="fill:none;stroke:#000000;stroke-linecap:round;"/>
    <path clip-path="url(#p7323348440)" d="M 179.576509 257.846768 
L 175.820924 255.418687 
L 180.01674 253.871068 
L 179.576509 257.846768 
z
" style="stroke:#000000;stroke-linecap:round;"/>
   </g>
   <g id="patch_45">
    <path clip-path="url(#p7323348440)" d="M 452.437014 292.91322 
Q 377.843337 369.265794 304.030963 444.818641 
" style="fill:none;stroke:#000000;stroke-linecap:round;"/>
    <path clip-path="url(#p7323348440)" d="M 308.256838 443.35509 
L 304.030963 444.818641 
L 305.395647 440.559811 
L 308.256838 443.35509 
z
" style="stroke:#000000;stroke-linecap:round;"/>
   </g>
   <g id="patch_46">
    <path clip-path="url(#p7323348440)" d="M 451.28953 291.528312 
Q 357.889673 353.925862 265.419474 415.702336 
" style="fill:none;stroke:#000000;stroke-linecap:round;"/>
    <path clip-path="url(#p7323348440)" d="M 269.856535 415.14333 
L 265.419474 415.702336 
L 267.634506 411.817283 
L 269.856535 415.14333 
z
" style="stroke:#000000;stroke-linecap:round;"/>
   </g>
   <g id="patch_47">
    <path clip-path="url(#p7323348440)" d="M 450.292641 289.505602 
Q 336.908581 328.059422 224.583036 366.253316 
" style="fill:none;stroke:#000000;stroke-linecap:round;"/>
    <path clip-path="url(#p7323348440)" d="M 229.013948 366.859137 
L 224.583036 366.253316 
L 227.72624 363.072079 
L 229.013948 366.859137 
z
" style="stroke:#000000;stroke-linecap:round;"/>
   </g>
   <g id="patch_48">
    <path clip-path="url(#p7323348440)" d="M 450.107741 284.535031 
Q 321.51608 251.031934 194.006334 217.810717 
" style="fill:none;stroke:#000000;stroke-linecap:round;"/>
    <path clip-path="url(#p7323348440)" d="M 197.372872 220.754596 
L 194.006334 217.810717 
L 198.38136 216.883814 
L 197.372872 220.754596 
z
" style="stroke:#000000;stroke-linecap:round;"/>
   </g>
   <g id="patch_49">
    <path clip-path="url(#p7323348440)" d="M 466.257496 282.887554 
Q 561.426782 235.954804 655.593335 189.516551 
" style="fill:none;stroke:#000000;stroke-linecap:round;"/>
    <path clip-path="url(#p7323348440)" d="M 651.121267 189.491978 
L 655.593335 189.516551 
L 652.890435 193.079462 
L 651.121267 189.491978 
z
" style="stroke:#000000;stroke-linecap:round;"/>
   </g>
   <g id="patch_50">
    <path clip-path="url(#p7323348440)" d="M 459.443606 295.324436 
Q 468.885576 380.434052 478.204269 464.432452 
" style="fill:none;stroke:#000000;stroke-linecap:round;"/>
    <path clip-path="url(#p7323348440)" d="M 479.751024 460.236317 
L 478.204269 464.432452 
L 475.775414 460.677367 
L 479.751024 460.236317 
z
" style="stroke:#000000;stroke-linecap:round;"/>
   </g>
   <g id="patch_51">
    <path clip-path="url(#p7323348440)" d="M 467.11242 287.533491 
Q 587.459676 298.905241 706.693856 310.171815 
" style="fill:none;stroke:#000000;stroke-linecap:round;"/>
    <path clip-path="url(#p7323348440)" d="M 702.899738 307.804396 
L 706.693856 310.171815 
L 702.52345 311.786657 
L 702.899738 307.804396 
z
" style="stroke:#000000;stroke-linecap:round;"/>
   </g>
   <g id="patch_52">
    <path clip-path="url(#p7323348440)" d="M 465.033717 282.177485 
Q 492.846624 199.896513 520.30151 118.674703 
" style="fill:none;stroke:#000000;stroke-linecap:round;"/>
    <path clip-path="url(#p7323348440)" d="M 517.125931 121.823623 
L 520.30151 118.674703 
L 520.915298 123.104518 
L 517.125931 121.823623 
z
" style="stroke:#000000;stroke-linecap:round;"/>
   </g>
   <g id="patch_53">
    <path clip-path="url(#p7323348440)" d="M 470.30526 293.597068 
Q 571.416627 334.01005 671.489815 374.008084 
" style="fill:none;stroke:#000000;stroke-linecap:round;"/>
    <path clip-path="url(#p7323348440)" d="M 668.51779 370.666367 
L 671.489815 374.008084 
L 667.033227 374.380674 
L 668.51779 370.666367 
z
" style="stroke:#000000;stroke-linecap:round;"/>
   </g>
   <g id="patch_54">
    <path clip-path="url(#p7323348440)" d="M 459.959472 282.034997 
Q 437.515271 200.621788 415.368208 120.286405 
" style="fill:none;stroke:#000000;stroke-linecap:round;"/>
    <path clip-path="url(#p7323348440)" d="M 414.503207 124.674089 
L 415.368208 120.286405 
L 418.359355 123.611017 
L 414.503207 124.674089 
z
" style="stroke:#000000;stroke-linecap:round;"/>
   </g>
   <g id="patch_55">
    <path clip-path="url(#p7323348440)" d="M 454.356051 286.837342 
Q 338.976707 235.101554 224.617533 183.823207 
" style="fill:none;stroke:#000000;stroke-linecap:round;"/>
    <path clip-path="url(#p7323348440)" d="M 227.449108 187.284736 
L 224.617533 183.823207 
L 229.085701 183.634864 
L 227.449108 187.284736 
z
" style="stroke:#000000;stroke-linecap:round;"/>
   </g>
   <g id="patch_56">
    <path clip-path="url(#p7323348440)" d="M 468.651249 296.229688 
Q 541.375041 362.777427 613.274017 428.570397 
" style="fill:none;stroke:#000000;stroke-linecap:round;"/>
    <path clip-path="url(#p7323348440)" d="M 611.673235 424.394574 
L 613.274017 428.570397 
L 608.97289 427.345528 
L 611.673235 424.394574 
z
" style="stroke:#000000;stroke-linecap:round;"/>
   </g>
   <g id="patch_57">
    <path clip-path="url(#p7323348440)" d="M 468.213392 284.095893 
Q 533.165632 215.511375 597.34909 147.73863 
" style="fill:none;stroke:#000000;stroke-linecap:round;"/>
    <path clip-path="url(#p7323348440)" d="M 593.146471 149.267681 
L 597.34909 147.73863 
L 596.050759 152.018156 
L 593.146471 149.267681 
z
" style="stroke:#000000;stroke-linecap:round;"/>
   </g>
   <g id="patch_58">
    <path clip-path="url(#p7323348440)" d="M 455.002326 285.655589 
Q 386.055359 240.761486 318.045313 196.477449 
" style="fill:none;stroke:#000000;stroke-linecap:round;"/>
    <path clip-path="url(#p7323348440)" d="M 320.306021 200.336101 
L 318.045313 196.477449 
L 322.48866 196.984073 
L 320.306021 200.336101 
z
" style="stroke:#000000;stroke-linecap:round;"/>
   </g>
   <g id="patch_59">
    <path clip-path="url(#p7323348440)" d="M 470.899596 289.752681 
Q 590.878287 281.017234 709.741896 272.362975 
" style="fill:none;stroke:#000000;stroke-linecap:round;"/>
    <path clip-path="url(#p7323348440)" d="M 705.607224 270.65872 
L 709.741896 272.362975 
L 705.897688 274.648159 
L 705.607224 270.65872 
z
" style="stroke:#000000;stroke-linecap:round;"/>
   </g>
   <g id="patch_60">
    <path clip-path="url(#p7323348440)" d="M 469.70786 294.798268 
Q 560.859208 348.854797 651.048911 402.34103 
" style="fill:none;stroke:#000000;stroke-linecap:round;"/>
    <path clip-path="url(#p7323348440)" d="M 648.628599 398.580433 
L 651.048911 402.34103 
L 646.588246 402.020922 
L 648.628599 398.580433 
z
" style="stroke:#000000;stroke-linecap:round;"/>
   </g>
   <g id="patch_61">
    <path clip-path="url(#p7323348440)" d="M 469.248563 285.264221 
Q 554.185862 223.063377 638.221136 161.5231 
" style="fill:none;stroke:#000000;stroke-linecap:round;"/>
    <path clip-path="url(#p7323348440)" d="M 633.812291 162.272823 
L 638.221136 161.5231 
L 636.175608 165.50001 
L 633.812291 162.272823 
z
" style="stroke:#000000;stroke-linecap:round;"/>
   </g>
   <g id="patch_62">
    <path clip-path="url(#p7323348440)" d="M 465.603448 298.36865 
Q 497.112192 373.649492 528.18927 447.898994 
" style="fill:none;stroke:#000000;stroke-linecap:round;"/>
    <path clip-path="url(#p7323348440)" d="M 528.48981 443.436968 
L 528.18927 447.898994 
L 524.799973 444.981346 
L 528.48981 443.436968 
z
" style="stroke:#000000;stroke-linecap:round;"/>
   </g>
   <g id="patch_63">
    <path clip-path="url(#p7323348440)" d="M 460.249799 298.802968 
Q 440.48024 381.602285 420.97033 463.314135 
" style="fill:none;stroke:#000000;stroke-linecap:round;"/>
    <path clip-path="url(#p7323348440)" d="M 423.844596 459.887972 
L 420.97033 463.314135 
L 419.953959 458.959025 
L 423.844596 459.887972 
z
" style="stroke:#000000;stroke-linecap:round;"/>
   </g>
   <g id="patch_64">
    <path clip-path="url(#p7323348440)" d="M 470.867465 289.43676 
Q 572.730809 278.253658 673.482798 267.192566 
" style="fill:none;stroke:#000000;stroke-linecap:round;"/>
    <path clip-path="url(#p7323348440)" d="M 669.288428 265.641029 
L 673.482798 267.192566 
L 669.724947 269.617139 
L 669.288428 265.641029 
z
" style="stroke:#000000;stroke-linecap:round;"/>
   </g>
   <g id="patch_65">
    <path clip-path="url(#p7323348440)" d="M 453.678819 291.556965 
Q 315.723642 310.450323 178.876158 329.191979 
" style="fill:none;stroke:#000000;stroke-linecap:round;"/>
    <path clip-path="url(#p7323348440)" d="M 183.110538 330.630738 
L 178.876158 329.191979 
L 182.567793 326.66773 
L 183.110538 330.630738 
z
" style="stroke:#000000;stroke-linecap:round;"/>
   </g>
   <g id="patch_66">
    <path clip-path="url(#p7323348440)" d="M 470.477727 287.653203 
Q 572.475954 253.785355 673.413111 220.269829 
" style="fill:none;stroke:#000000;stroke-linecap:round;"/>
    <path clip-path="url(#p7323348440)" d="M 668.986659 219.632232 
L 673.413111 220.269829 
L 670.247163 223.428432 
L 668.986659 219.632232 
z
" style="stroke:#000000;stroke-linecap:round;"/>
   </g>
   <g id="patch_67">
    <path clip-path="url(#p7323348440)" d="M 457.916916 282.887861 
Q 409.289684 198.993301 361.223118 116.066034 
" style="fill:none;stroke:#000000;stroke-linecap:round;"/>
    <path clip-path="url(#p7323348440)" d="M 361.498669 120.529673 
L 361.223118 116.066034 
L 364.959359 118.523777 
L 361.498669 120.529673 
z
" style="stroke:#000000;stroke-linecap:round;"/>
   </g>
   <g id="patch_68">
    <path clip-path="url(#p7323348440)" d="M 453.660921 289.335204 
Q 314.181147 272.362058 175.811221 255.523969 
" style="fill:none;stroke:#000000;stroke-linecap:round;"/>
    <path clip-path="url(#p7323348440)" d="M 179.540334 257.992514 
L 175.811221 255.523969 
L 180.023525 254.021806 
L 179.540334 257.992514 
z
" style="stroke:#000000;stroke-linecap:round;"/>
   </g>
   <g id="patch_69">
    <path clip-path="url(#p7323348440)" d="M 456.067116 296.438812 
Q 379.729149 371.097315 304.190496 444.97409 
" style="fill:none;stroke:#000000;stroke-linecap:round;"/>
    <path clip-path="url(#p7323348440)" d="M 308.448603 443.60715 
L 304.190496 444.97409 
L 305.651808 440.74744 
L 308.448603 443.60715 
z
" style="stroke:#000000;stroke-linecap:round;"/>
   </g>
   <g id="patch_70">
    <path clip-path="url(#p7323348440)" d="M 454.957469 295.040324 
Q 359.773631 355.758603 265.532375 415.875603 
" style="fill:none;stroke:#000000;stroke-linecap:round;"/>
    <path clip-path="url(#p7323348440)" d="M 269.980265 415.410547 
L 265.532375 415.875603 
L 267.829064 412.038258 
L 269.980265 415.410547 
z
" style="stroke:#000000;stroke-linecap:round;"/>
   </g>
   <g id="patch_71">
    <path clip-path="url(#p7323348440)" d="M 454.012489 293.021053 
Q 338.793348 329.891307 224.639049 366.420809 
" style="fill:none;stroke:#000000;stroke-linecap:round;"/>
    <path clip-path="url(#p7323348440)" d="M 229.058297 367.10655 
L 224.639049 366.420809 
L 227.839191 363.296855 
L 229.058297 367.10655 
z
" style="stroke:#000000;stroke-linecap:round;"/>
   </g>
   <g id="patch_72">
    <path clip-path="url(#p7323348440)" d="M 453.899577 288.122638 
Q 323.401981 252.86349 193.983716 217.895965 
" style="fill:none;stroke:#000000;stroke-linecap:round;"/>
    <path clip-path="url(#p7323348440)" d="M 197.323574 220.870079 
L 193.983716 217.895965 
L 198.366921 217.008547 
L 197.323574 220.870079 
z
" style="stroke:#000000;stroke-linecap:round;"/>
   </g>
   <g id="patch_73">
    <path clip-path="url(#p7323348440)" d="M 469.942301 286.383472 
Q 563.31174 237.786723 655.689435 189.706156 
" style="fill:none;stroke:#000000;stroke-linecap:round;"/>
    <path clip-path="url(#p7323348440)" d="M 651.217889 189.778815 
L 655.689435 189.706156 
L 653.064636 193.326988 
L 651.217889 189.778815 
z
" style="stroke:#000000;stroke-linecap:round;"/>
   </g>
   <g id="patch_74">
    <path clip-path="url(#p7323348440)" d="M 463.059197 299.004358 
Q 470.77149 382.26638 478.380664 464.415133 
" style="fill:none;stroke:#000000;stroke-linecap:round;"/>
    <path clip-path="url(#p7323348440)" d="M 480.003212 460.247719 
L 478.380664 464.415133 
L 476.020261 460.616647 
L 480.003212 460.247719 
z
" style="stroke:#000000;stroke-linecap:round;"/>
   </g>
   <g id="patch_75">
    <path clip-path="url(#p7323348440)" d="M 470.889809 291.084807 
Q 589.346264 300.736827 706.688377 310.298048 
" style="fill:none;stroke:#000000;stroke-linecap:round;"/>
    <path clip-path="url(#p7323348440)" d="M 702.864015 307.979805 
L 706.688377 310.298048 
L 702.539165 311.966592 
L 702.864015 307.979805 
z
" style="stroke:#000000;stroke-linecap:round;"/>
   </g>
   <g id="patch_76">
    <path clip-path="url(#p7323348440)" d="M 493.016058 198.1922 
Q 503.432769 234.697262 513.542694 270.127204 
" style="fill:none;stroke:#000000;stroke-linecap:round;"/>
    <path clip-path="url(#p7323348440)" d="M 514.368339 265.731944 
L 513.542694 270.127204 
L 510.521873 266.829532 
L 514.368339 265.731944 
z
" style="stroke:#000000;stroke-linecap:round;"/>
   </g>
   <g id="patch_77">
    <path clip-path="url(#p7323348440)" d="M 364.974998 107.837608 
Q 418.26843 109.255943 470.444223 110.644533 
" style="fill:none;stroke:#000000;stroke-linecap:round;"/>
    <path clip-path="url(#p7323348440)" d="M 466.498848 108.538824 
L 470.444223 110.644533 
L 466.392431 112.537408 
L 466.498848 108.538824 
z
" style="stroke:#000000;stroke-linecap:round;"/>
   </g>
   <g id="patch_78">
    <path clip-path="url(#p7323348440)" d="M 318.183632 188.781393 
Q 326.575969 186.404677 333.892579 184.332608 
" style="fill:none;stroke:#000000;stroke-linecap:round;"/>
    <path clip-path="url(#p7323348440)" d="M 329.498969 183.498225 
L 333.892579 184.332608 
L 330.588907 187.346866 
L 329.498969 183.498225 
z
" style="stroke:#000000;stroke-linecap:round;"/>
   </g>
   <g id="patch_79">
    <path clip-path="url(#p7323348440)" d="M 306.454588 183.176229 
Q 296.546693 159.936116 287.077263 137.724472 
" style="fill:none;stroke:#000000;stroke-linecap:round;"/>
    <path clip-path="url(#p7323348440)" d="M 286.80618 142.188384 
L 287.077263 137.724472 
L 290.485743 140.619686 
L 286.80618 142.188384 
z
" style="stroke:#000000;stroke-linecap:round;"/>
   </g>
   <g id="patch_80">
    <path clip-path="url(#p7323348440)" d="M 303.780328 197.315505 
Q 301.363805 199.773471 299.731101 201.434175 
" style="fill:none;stroke:#000000;stroke-linecap:round;"/>
    <path clip-path="url(#p7323348440)" d="M 303.961566 199.983943 
L 299.731101 201.434175 
L 301.109195 197.179664 
L 303.961566 199.983943 
z
" style="stroke:#000000;stroke-linecap:round;"/>
   </g>
   <g id="patch_81">
    <path clip-path="url(#p7323348440)" d="M 318.166267 188.718075 
Q 352.227735 178.792356 385.215816 169.179428 
" style="fill:none;stroke:#000000;stroke-linecap:round;"/>
    <path clip-path="url(#p7323348440)" d="M 380.816008 168.378372 
L 385.215816 169.179428 
L 381.935086 172.21864 
L 380.816008 168.378372 
z
" style="stroke:#000000;stroke-linecap:round;"/>
   </g>
   <g id="patch_82">
    <path clip-path="url(#p7323348440)" d="M 453.238134 379.367575 
Q 408.918307 357.99884 365.605569 337.11567 
" style="fill:none;stroke:#000000;stroke-linecap:round;"/>
    <path clip-path="url(#p7323348440)" d="M 368.340029 340.654417 
L 365.605569 337.11567 
L 370.077242 337.05135 
L 368.340029 340.654417 
z
" style="stroke:#000000;stroke-linecap:round;"/>
   </g>
   <g id="patch_83">
    <path clip-path="url(#p7323348440)" d="M 468.724812 379.13608 
Q 513.644572 355.783706 557.57234 332.947037 
" style="fill:none;stroke:#000000;stroke-linecap:round;"/>
    <path clip-path="url(#p7323348440)" d="M 553.10076 333.017552 
L 557.57234 332.947037 
L 554.945804 336.56661 
L 553.10076 333.017552 
z
" style="stroke:#000000;stroke-linecap:round;"/>
   </g>
   <g id="patch_84">
    <path clip-path="url(#p7323348440)" d="M 410.414231 393.958237 
Q 439.986188 382.12426 468.520139 370.705667 
" style="fill:none;stroke:#000000;stroke-linecap:round;"/>
    <path clip-path="url(#p7323348440)" d="M 464.063394 370.334951 
L 468.520139 370.705667 
L 465.549519 374.048633 
L 464.063394 370.334951 
z
" style="stroke:#000000;stroke-linecap:round;"/>
   </g>
   <g id="patch_85">
    <path clip-path="url(#p7323348440)" d="M 408.916863 391.499202 
Q 429.621294 373.535056 449.48125 356.303617 
" style="fill:none;stroke:#000000;stroke-linecap:round;"/>
    <path clip-path="url(#p7323348440)" d="M 445.149254 357.414387 
L 449.48125 356.303617 
L 447.770668 360.435676 
L 445.149254 357.414387 
z
" style="stroke:#000000;stroke-linecap:round;"/>
   </g>
   <g id="patch_86">
    <path clip-path="url(#p7323348440)" d="M 333.309687 271.988619 
Q 403.343081 258.976758 472.277253 246.169127 
" style="fill:none;stroke:#000000;stroke-linecap:round;"/>
    <path clip-path="url(#p7323348440)" d="M 467.979217 244.933454 
L 472.277253 246.169127 
L 468.709893 248.866152 
L 467.979217 244.933454 
z
" style="stroke:#000000;stroke-linecap:round;"/>
   </g>
   <g id="patch_87">
    <path clip-path="url(#p7323348440)" d="M 489.845979 247.79959 
Q 530.816329 265.38431 570.759279 282.528065 
" style="fill:none;stroke:#000000;stroke-linecap:round;"/>
    <path clip-path="url(#p7323348440)" d="M 567.872368 279.11255 
L 570.759279 282.528065 
L 566.294721 282.788285 
L 567.872368 279.11255 
z
" style="stroke:#000000;stroke-linecap:round;"/>
   </g>
   <g id="patch_88">
    <path clip-path="url(#p7323348440)" d="M 571.086981 286.67961 
Q 521.002824 288.383377 472.036055 290.049133 
" style="fill:none;stroke:#000000;stroke-linecap:round;"/>
    <path clip-path="url(#p7323348440)" d="M 476.101739 291.911983 
L 472.036055 290.049133 
L 475.965746 287.914295 
L 476.101739 291.911983 
z
" style="stroke:#000000;stroke-linecap:round;"/>
   </g>
   <g id="patch_89">
    <path clip-path="url(#p7323348440)" d="M 524.212841 282.872702 
Q 598.707939 314.048023 672.171674 344.791731 
" style="fill:none;stroke:#000000;stroke-linecap:round;"/>
    <path clip-path="url(#p7323348440)" d="M 669.253851 341.402586 
L 672.171674 344.791731 
L 667.709664 345.092503 
L 669.253851 341.402586 
z
" style="stroke:#000000;stroke-linecap:round;"/>
   </g>
   <g id="patch_90">
    <path clip-path="url(#p7323348440)" d="M 358.779055 229.638378 
Q 352.368374 209.774612 346.30108 190.97484 
" style="fill:none;stroke:#000000;stroke-linecap:round;"/>
    <path clip-path="url(#p7323348440)" d="M 345.626281 195.395773 
L 346.30108 190.97484 
L 349.432947 194.167239 
L 345.626281 195.395773 
z
" style="stroke:#000000;stroke-linecap:round;"/>
   </g>
   <g id="patch_91">
    <path clip-path="url(#p7323348440)" d="M 356.397485 230.844602 
Q 322.341802 183.307396 288.937235 136.679063 
" style="fill:none;stroke:#000000;stroke-linecap:round;"/>
    <path clip-path="url(#p7323348440)" d="M 289.6409 141.095493 
L 288.937235 136.679063 
L 292.892578 138.765989 
L 289.6409 141.095493 
z
" style="stroke:#000000;stroke-linecap:round;"/>
   </g>
   <g id="patch_92">
    <path clip-path="url(#p7323348440)" d="M 353.484284 234.4634 
Q 327.157521 223.146727 301.857916 212.271583 
" style="fill:none;stroke:#000000;stroke-linecap:round;"/>
    <path clip-path="url(#p7323348440)" d="M 304.742957 215.688678 
L 301.857916 212.271583 
L 306.322616 212.013807 
L 304.742957 215.688678 
z
" style="stroke:#000000;stroke-linecap:round;"/>
   </g>
   <g id="patch_93">
    <path clip-path="url(#p7323348440)" d="M 365.085896 230.030093 
Q 378.024354 202.161999 390.492004 175.307975 
" style="fill:none;stroke:#000000;stroke-linecap:round;"/>
    <path clip-path="url(#p7323348440)" d="M 386.993565 178.09382 
L 390.492004 175.307975 
L 390.621616 179.778233 
L 386.993565 178.09382 
z
" style="stroke:#000000;stroke-linecap:round;"/>
   </g>
   <g id="patch_94">
    <path clip-path="url(#p7323348440)" d="M 329.934519 171.287459 
Q 333.195407 173.820758 335.573386 175.668148 
" style="fill:none;stroke:#000000;stroke-linecap:round;"/>
    <path clip-path="url(#p7323348440)" d="M 333.641586 171.634769 
L 335.573386 175.668148 
L 331.187602 174.793561 
L 333.641586 171.634769 
z
" style="stroke:#000000;stroke-linecap:round;"/>
   </g>
   <g id="patch_95">
    <path clip-path="url(#p7323348440)" d="M 316.769466 160.062362 
Q 303.170784 147.353884 290.388957 135.408786 
" style="fill:none;stroke:#000000;stroke-linecap:round;"/>
    <path clip-path="url(#p7323348440)" d="M 291.945845 139.601172 
L 290.388957 135.408786 
L 294.676998 136.678707 
L 291.945845 139.601172 
z
" style="stroke:#000000;stroke-linecap:round;"/>
   </g>
   <g id="patch_96">
    <path clip-path="url(#p7323348440)" d="M 318.073275 173.027578 
Q 307.98577 187.19094 298.546866 200.443635 
" style="fill:none;stroke:#000000;stroke-linecap:round;"/>
    <path clip-path="url(#p7323348440)" d="M 302.496424 198.345782 
L 298.546866 200.443635 
L 299.238318 196.025276 
L 302.496424 198.345782 
z
" style="stroke:#000000;stroke-linecap:round;"/>
   </g>
   <g id="patch_97">
    <path clip-path="url(#p7323348440)" d="M 331.760278 166.03165 
Q 358.855316 166.208768 384.832344 166.378577 
" style="fill:none;stroke:#000000;stroke-linecap:round;"/>
    <path clip-path="url(#p7323348440)" d="M 380.845503 164.352473 
L 384.832344 166.378577 
L 380.819356 168.352387 
L 380.845503 164.352473 
z
" style="stroke:#000000;stroke-linecap:round;"/>
   </g>
   <g id="patch_98">
    <path clip-path="url(#p7323348440)" d="M 334.903514 179.532426 
Q 302.400373 171.259321 270.980719 163.261999 
" style="fill:none;stroke:#000000;stroke-linecap:round;"/>
    <path clip-path="url(#p7323348440)" d="M 274.363785 166.186869 
L 270.980719 163.261999 
L 275.350454 162.310468 
L 274.363785 166.186869 
z
" style="stroke:#000000;stroke-linecap:round;"/>
   </g>
   <g id="patch_99">
    <path clip-path="url(#p7323348440)" d="M 346.653627 173.684026 
Q 358.345906 145.86287 369.605013 119.072425 
" style="fill:none;stroke:#000000;stroke-linecap:round;"/>
    <path clip-path="url(#p7323348440)" d="M 366.211461 121.985122 
L 369.605013 119.072425 
L 369.899039 123.534885 
L 366.211461 121.985122 
z
" style="stroke:#000000;stroke-linecap:round;"/>
   </g>
   <g id="patch_100">
    <path clip-path="url(#p7323348440)" d="M 278.389905 135.90185 
Q 272.375014 144.790119 266.986728 152.752448 
" style="fill:none;stroke:#000000;stroke-linecap:round;"/>
    <path clip-path="url(#p7323348440)" d="M 270.884911 150.560606 
L 266.986728 152.752448 
L 267.572164 148.318796 
L 270.884911 150.560606 
z
" style="stroke:#000000;stroke-linecap:round;"/>
   </g>
   <g id="patch_101">
    <path clip-path="url(#p7323348440)" d="M 291.72463 126.974063 
Q 328.317635 119.396088 363.815834 112.044835 
" style="fill:none;stroke:#000000;stroke-linecap:round;"/>
    <path clip-path="url(#p7323348440)" d="M 359.493371 110.897531 
L 363.815834 112.044835 
L 360.304513 114.814423 
L 359.493371 110.897531 
z
" style="stroke:#000000;stroke-linecap:round;"/>
   </g>
   <g id="patch_102">
    <path clip-path="url(#p7323348440)" d="M 288.104394 201.178727 
Q 277.189452 184.629247 266.890067 169.013088 
" style="fill:none;stroke:#000000;stroke-linecap:round;"/>
    <path clip-path="url(#p7323348440)" d="M 267.422775 173.453384 
L 266.890067 169.013088 
L 270.761928 171.251099 
L 267.422775 173.453384 
z
" style="stroke:#000000;stroke-linecap:round;"/>
   </g>
   <g id="patch_103">
    <path clip-path="url(#p7323348440)" d="M 298.36035 201.707547 
Q 333.134108 159.233825 367.19961 117.625188 
" style="fill:none;stroke:#000000;stroke-linecap:round;"/>
    <path clip-path="url(#p7323348440)" d="M 363.118164 119.453246 
L 367.19961 117.625188 
L 366.213188 121.98718 
L 363.118164 119.453246 
z
" style="stroke:#000000;stroke-linecap:round;"/>
   </g>
   <g id="patch_104">
    <path clip-path="url(#p7323348440)" d="M 385.95205 166.078818 
Q 328.056878 163.646483 271.278755 161.261079 
" style="fill:none;stroke:#000000;stroke-linecap:round;"/>
    <path clip-path="url(#p7323348440)" d="M 275.191278 163.427219 
L 271.278755 161.261079 
L 275.359181 159.430744 
L 275.191278 163.427219 
z
" style="stroke:#000000;stroke-linecap:round;"/>
   </g>
   <g id="patch_105">
    <path clip-path="url(#p7323348440)" d="M 391.55847 158.338438 
Q 384.000335 138.253107 376.835962 119.214176 
" style="fill:none;stroke:#000000;stroke-linecap:round;"/>
    <path clip-path="url(#p7323348440)" d="M 376.37287 123.662271 
L 376.835962 119.214176 
L 380.116582 122.253507 
L 376.37287 123.662271 
z
" style="stroke:#000000;stroke-linecap:round;"/>
   </g>
   <g id="patch_106">
    <path clip-path="url(#p7323348440)" d="M 409.327283 221.476319 
Q 445.947549 207.239963 481.525756 193.408715 
" style="fill:none;stroke:#000000;stroke-linecap:round;"/>
    <path clip-path="url(#p7323348440)" d="M 477.072893 192.993977 
L 481.525756 193.408715 
L 478.522248 196.722163 
L 477.072893 192.993977 
z
" style="stroke:#000000;stroke-linecap:round;"/>
   </g>
   <g id="patch_107">
    <path clip-path="url(#p7323348440)" d="M 516.316157 225.429279 
Q 506.012954 211.158395 496.3642 197.793984 
" style="fill:none;stroke:#000000;stroke-linecap:round;"/>
    <path clip-path="url(#p7323348440)" d="M 497.084083 202.2078 
L 496.3642 197.793984 
L 500.327183 199.866367 
L 497.084083 202.2078 
z
" style="stroke:#000000;stroke-linecap:round;"/>
   </g>
   <g id="patch_108">
    <path clip-path="url(#p7323348440)" d="M 549.145075 129.467149 
Q 522.90547 156.555898 497.443748 182.841591 
" style="fill:none;stroke:#000000;stroke-linecap:round;"/>
    <path clip-path="url(#p7323348440)" d="M 501.663335 181.36001 
L 497.443748 182.841591 
L 498.790236 178.576973 
L 501.663335 181.36001 
z
" style="stroke:#000000;stroke-linecap:round;"/>
   </g>
   <g id="patch_109">
    <path clip-path="url(#p7323348440)" d="M 364.826321 329.633226 
Q 409.527762 311.625165 453.192158 294.03488 
" style="fill:none;stroke:#000000;stroke-linecap:round;"/>
    <path clip-path="url(#p7323348440)" d="M 448.734571 293.674436 
L 453.192158 294.03488 
L 450.229251 297.384683 
L 448.734571 293.674436 
z
" style="stroke:#000000;stroke-linecap:round;"/>
   </g>
   <g id="patch_110">
    <path clip-path="url(#p7323348440)" d="M 558.112286 325.461419 
Q 514.253837 309.410147 471.445317 293.743126 
" style="fill:none;stroke:#000000;stroke-linecap:round;"/>
    <path clip-path="url(#p7323348440)" d="M 474.514285 296.996037 
L 471.445317 293.743126 
L 475.889027 293.239698 
L 474.514285 296.996037 
z
" style="stroke:#000000;stroke-linecap:round;"/>
   </g>
   <g id="patch_111">
    <path clip-path="url(#p7323348440)" d="M 469.264085 364.712216 
Q 417.195138 349.969494 366.201935 335.531356 
" style="fill:none;stroke:#000000;stroke-linecap:round;"/>
    <path clip-path="url(#p7323348440)" d="M 369.505781 338.545424 
L 366.201935 335.531356 
L 370.595497 334.69672 
L 369.505781 338.545424 
z
" style="stroke:#000000;stroke-linecap:round;"/>
   </g>
   <g id="patch_112">
    <path clip-path="url(#p7323348440)" d="M 485.539502 363.611873 
Q 521.92352 347.754781 557.282614 332.344378 
" style="fill:none;stroke:#000000;stroke-linecap:round;"/>
    <path clip-path="url(#p7323348440)" d="M 552.816674 332.109058 
L 557.282614 332.344378 
L 554.414794 335.775939 
L 552.816674 332.109058 
z
" style="stroke:#000000;stroke-linecap:round;"/>
   </g>
   <g id="patch_113">
    <path clip-path="url(#p7323348440)" d="M 448.331053 348.443235 
Q 406.833336 341.382236 366.43781 334.508779 
" style="fill:none;stroke:#000000;stroke-linecap:round;"/>
    <path clip-path="url(#p7323348440)" d="M 370.045648 337.151413 
L 366.43781 334.508779 
L 370.716619 333.20809 
L 370.045648 337.151413 
z
" style="stroke:#000000;stroke-linecap:round;"/>
   </g>
   <g id="patch_114">
    <path clip-path="url(#p7323348440)" d="M 465.361898 348.229067 
Q 511.553588 339.167348 556.648157 330.320859 
" style="fill:none;stroke:#000000;stroke-linecap:round;"/>
    <path clip-path="url(#p7323348440)" d="M 552.33796 329.128295 
L 556.648157 330.320859 
L 553.107988 333.053478 
L 552.33796 329.128295 
z
" style="stroke:#000000;stroke-linecap:round;"/>
   </g>
   <g id="PathCollection_1">
    <defs>
     <path d="M 0 8.660254 
C 2.296726 8.660254 4.499694 7.747755 6.123724 6.123724 
C 7.747755 4.499694 8.660254 2.296726 8.660254 -0 
C 8.660254 -2.296726 7.747755 -4.499694 6.123724 -6.123724 
C 4.499694 -7.747755 2.296726 -8.660254 0 -8.660254 
C -2.296726 -8.660254 -4.499694 -7.747755 -6.123724 -6.123724 
C -7.747755 -4.499694 -8.660254 -2.296726 -8.660254 0 
C -8.660254 2.296726 -7.747755 4.499694 -6.123724 6.123724 
C -4.499694 7.747755 -2.296726 8.660254 0 8.660254 
z
" id="C0_0_8b9b215b18"/>
    </defs>
    <g clip-path="url(#p7323348440)">
     <use style="fill:#ff0000;stroke:#ff0000;" x="409.173782" xlink:href="#C0_0_8b9b215b18" y="363.000133"/>
    </g>
    <g clip-path="url(#p7323348440)">
     <use style="fill:#008000;stroke:#008000;" x="620.486305" xlink:href="#C0_0_8b9b215b18" y="435.170182"/>
    </g>
    <g clip-path="url(#p7323348440)">
     <use style="fill:#008000;stroke:#008000;" x="538.035266" xlink:href="#C0_0_8b9b215b18" y="357.067501"/>
    </g>
    <g clip-path="url(#p7323348440)">
     <use style="fill:#ff0000;stroke:#ff0000;" x="455.827043" xlink:href="#C0_0_8b9b215b18" y="290.76312"/>
    </g>
    <g clip-path="url(#p7323348440)">
     <use style="fill:#ff0000;stroke:#ff0000;" x="458.488888" xlink:href="#C0_0_8b9b215b18" y="286.718644"/>
    </g>
    <g clip-path="url(#p7323348440)">
     <use style="fill:#008000;stroke:#008000;" x="462.260506" xlink:href="#C0_0_8b9b215b18" y="290.381678"/>
    </g>
    <g clip-path="url(#p7323348440)">
     <use style="fill:#008000;stroke:#008000;" x="682.695953" xlink:href="#C0_0_8b9b215b18" y="217.187521"/>
    </g>
    <g clip-path="url(#p7323348440)">
     <use style="fill:#ff0000;stroke:#ff0000;" x="490.640032" xlink:href="#C0_0_8b9b215b18" y="189.865484"/>
    </g>
    <g clip-path="url(#p7323348440)">
     <use style="fill:#008000;stroke:#008000;" x="356.320223" xlink:href="#C0_0_8b9b215b18" y="107.607273"/>
    </g>
    <g clip-path="url(#p7323348440)">
     <use style="fill:#008000;stroke:#008000;" x="166.105785" xlink:href="#C0_0_8b9b215b18" y="254.342925"/>
    </g>
    <g clip-path="url(#p7323348440)">
     <use style="fill:#008000;stroke:#008000;" x="297.197458" xlink:href="#C0_0_8b9b215b18" y="451.813279"/>
    </g>
    <g clip-path="url(#p7323348440)">
     <use style="fill:#008000;stroke:#008000;" x="680.571473" xlink:href="#C0_0_8b9b215b18" y="377.637912"/>
    </g>
    <g clip-path="url(#p7323348440)">
     <use style="fill:#008000;stroke:#008000;" x="412.769009" xlink:href="#C0_0_8b9b215b18" y="110.858172"/>
    </g>
    <g clip-path="url(#p7323348440)">
     <use style="fill:#008000;stroke:#008000;" x="215.698684" xlink:href="#C0_0_8b9b215b18" y="179.824019"/>
    </g>
    <g clip-path="url(#p7323348440)">
     <use style="fill:#008000;stroke:#008000;" x="604.073787" xlink:href="#C0_0_8b9b215b18" y="140.637873"/>
    </g>
    <g clip-path="url(#p7323348440)">
     <use style="fill:#008000;stroke:#008000;" x="309.850351" xlink:href="#C0_0_8b9b215b18" y="191.141384"/>
    </g>
    <g clip-path="url(#p7323348440)">
     <use style="fill:#008000;stroke:#008000;" x="719.494215" xlink:href="#C0_0_8b9b215b18" y="271.652925"/>
    </g>
    <g clip-path="url(#p7323348440)">
     <use style="fill:#008000;stroke:#008000;" x="659.460406" xlink:href="#C0_0_8b9b215b18" y="407.329395"/>
    </g>
    <g clip-path="url(#p7323348440)">
     <use style="fill:#008000;stroke:#008000;" x="523.433559" xlink:href="#C0_0_8b9b215b18" y="109.408931"/>
    </g>
    <g clip-path="url(#p7323348440)">
     <use style="fill:#ff0000;stroke:#ff0000;" x="646.110077" xlink:href="#C0_0_8b9b215b18" y="155.745912"/>
    </g>
    <g clip-path="url(#p7323348440)">
     <use style="fill:#008000;stroke:#008000;" x="531.965573" xlink:href="#C0_0_8b9b215b18" y="456.921356"/>
    </g>
    <g clip-path="url(#p7323348440)">
     <use style="fill:#008000;stroke:#008000;" x="418.69895" xlink:href="#C0_0_8b9b215b18" y="472.827182"/>
    </g>
    <g clip-path="url(#p7323348440)">
     <use style="fill:#008000;stroke:#008000;" x="683.202781" xlink:href="#C0_0_8b9b215b18" y="266.125454"/>
    </g>
    <g clip-path="url(#p7323348440)">
     <use style="fill:#008000;stroke:#008000;" x="169.186284" xlink:href="#C0_0_8b9b215b18" y="330.519035"/>
    </g>
    <g clip-path="url(#p7323348440)">
     <use style="fill:#ff0000;stroke:#ff0000;" x="461.041936" xlink:href="#C0_0_8b9b215b18" y="383.130167"/>
    </g>
    <g clip-path="url(#p7323348440)">
     <use style="fill:#ff0000;stroke:#ff0000;" x="402.374766" xlink:href="#C0_0_8b9b215b18" y="397.175436"/>
    </g>
    <g clip-path="url(#p7323348440)">
     <use style="fill:#ff0000;stroke:#ff0000;" x="324.790366" xlink:href="#C0_0_8b9b215b18" y="273.571467"/>
    </g>
    <g clip-path="url(#p7323348440)">
     <use style="fill:#ff0000;stroke:#ff0000;" x="481.887219" xlink:href="#C0_0_8b9b215b18" y="244.383643"/>
    </g>
    <g clip-path="url(#p7323348440)">
     <use style="fill:#ff0000;stroke:#ff0000;" x="579.745629" xlink:href="#C0_0_8b9b215b18" y="286.38506"/>
    </g>
    <g clip-path="url(#p7323348440)">
     <use style="fill:#008000;stroke:#008000;" x="516.225848" xlink:href="#C0_0_8b9b215b18" y="279.530239"/>
    </g>
    <g clip-path="url(#p7323348440)">
     <use style="fill:#ff0000;stroke:#ff0000;" x="681.191371" xlink:href="#C0_0_8b9b215b18" y="348.566368"/>
    </g>
    <g clip-path="url(#p7323348440)">
     <use style="fill:#008000;stroke:#008000;" x="257.287563" xlink:href="#C0_0_8b9b215b18" y="421.135013"/>
    </g>
    <g clip-path="url(#p7323348440)">
     <use style="fill:#ff0000;stroke:#ff0000;" x="361.439914" xlink:href="#C0_0_8b9b215b18" y="237.883161"/>
    </g>
    <g clip-path="url(#p7323348440)">
     <use style="fill:#ff0000;stroke:#ff0000;" x="323.096288" xlink:href="#C0_0_8b9b215b18" y="165.975015"/>
    </g>
    <g clip-path="url(#p7323348440)">
     <use style="fill:#008000;stroke:#008000;" x="343.297797" xlink:href="#C0_0_8b9b215b18" y="181.669043"/>
    </g>
    <g clip-path="url(#p7323348440)">
     <use style="fill:#008000;stroke:#008000;" x="283.2429" xlink:href="#C0_0_8b9b215b18" y="128.730528"/>
    </g>
    <g clip-path="url(#p7323348440)">
     <use style="fill:#ff0000;stroke:#ff0000;" x="292.873354" xlink:href="#C0_0_8b9b215b18" y="208.409531"/>
    </g>
    <g clip-path="url(#p7323348440)">
     <use style="fill:#008000;stroke:#008000;" x="394.608031" xlink:href="#C0_0_8b9b215b18" y="166.44248"/>
    </g>
    <g clip-path="url(#p7323348440)">
     <use style="fill:#ff0000;stroke:#ff0000;" x="401.255747" xlink:href="#C0_0_8b9b215b18" y="224.614178"/>
    </g>
    <g clip-path="url(#p7323348440)">
     <use style="fill:#ff0000;stroke:#ff0000;" x="521.384579" xlink:href="#C0_0_8b9b215b18" y="232.449509"/>
    </g>
    <g clip-path="url(#p7323348440)">
     <use style="fill:#ff0000;stroke:#ff0000;" x="555.169072" xlink:href="#C0_0_8b9b215b18" y="123.248209"/>
    </g>
    <g clip-path="url(#p7323348440)">
     <use style="fill:#008000;stroke:#008000;" x="480.216967" xlink:href="#C0_0_8b9b215b18" y="110.904622"/>
    </g>
    <g clip-path="url(#p7323348440)">
     <use style="fill:#008000;stroke:#008000;" x="215.324887" xlink:href="#C0_0_8b9b215b18" y="369.401352"/>
    </g>
    <g clip-path="url(#p7323348440)">
     <use style="fill:#008000;stroke:#008000;" x="184.54034" xlink:href="#C0_0_8b9b215b18" y="215.344459"/>
    </g>
    <g clip-path="url(#p7323348440)">
     <use style="fill:#ff0000;stroke:#ff0000;" x="664.361719" xlink:href="#C0_0_8b9b215b18" y="185.192421"/>
    </g>
    <g clip-path="url(#p7323348440)">
     <use style="fill:#ff0000;stroke:#ff0000;" x="356.796119" xlink:href="#C0_0_8b9b215b18" y="332.868208"/>
    </g>
    <g clip-path="url(#p7323348440)">
     <use style="fill:#ff0000;stroke:#ff0000;" x="566.245646" xlink:href="#C0_0_8b9b215b18" y="328.438058"/>
    </g>
    <g clip-path="url(#p7323348440)">
     <use style="fill:#ff0000;stroke:#ff0000;" x="477.599551" xlink:href="#C0_0_8b9b215b18" y="367.072307"/>
    </g>
    <g clip-path="url(#p7323348440)">
     <use style="fill:#ff0000;stroke:#ff0000;" x="456.86674" xlink:href="#C0_0_8b9b215b18" y="349.895616"/>
    </g>
    <g clip-path="url(#p7323348440)">
     <use style="fill:#ff0000;stroke:#ff0000;" x="261.506579" xlink:href="#C0_0_8b9b215b18" y="160.850523"/>
    </g>
    <g clip-path="url(#p7323348440)">
     <use style="fill:#ff0000;stroke:#ff0000;" x="373.391892" xlink:href="#C0_0_8b9b215b18" y="110.061748"/>
    </g>
    <g clip-path="url(#p7323348440)">
     <use style="fill:#008000;stroke:#008000;" x="479.282626" xlink:href="#C0_0_8b9b215b18" y="474.152727"/>
    </g>
    <g clip-path="url(#p7323348440)">
     <use style="fill:#008000;stroke:#008000;" x="716.431289" xlink:href="#C0_0_8b9b215b18" y="311.091916"/>
    </g>
   </g>
   <g id="text_1">
    <g clip-path="url(#p7323348440)">
     <!-- RBX1 -->
     <g transform="translate(392.960657 366.311383)scale(0.12 -0.12)">
      <defs>
       <path d="M 44.390625 34.1875 
Q 47.5625 33.109375 50.5625 29.59375 
Q 53.5625 26.078125 56.59375 19.921875 
L 66.609375 0 
L 56 0 
L 46.6875 18.703125 
Q 43.0625 26.03125 39.671875 28.421875 
Q 36.28125 30.8125 30.421875 30.8125 
L 19.671875 30.8125 
L 19.671875 0 
L 9.8125 0 
L 9.8125 72.90625 
L 32.078125 72.90625 
Q 44.578125 72.90625 50.734375 67.671875 
Q 56.890625 62.453125 56.890625 51.90625 
Q 56.890625 45.015625 53.6875 40.46875 
Q 50.484375 35.9375 44.390625 34.1875 
z
M 19.671875 64.796875 
L 19.671875 38.921875 
L 32.078125 38.921875 
Q 39.203125 38.921875 42.84375 42.21875 
Q 46.484375 45.515625 46.484375 51.90625 
Q 46.484375 58.296875 42.84375 61.546875 
Q 39.203125 64.796875 32.078125 64.796875 
z
" id="DejaVuSans-82"/>
       <path d="M 19.671875 34.8125 
L 19.671875 8.109375 
L 35.5 8.109375 
Q 43.453125 8.109375 47.28125 11.40625 
Q 51.125 14.703125 51.125 21.484375 
Q 51.125 28.328125 47.28125 31.5625 
Q 43.453125 34.8125 35.5 34.8125 
z
M 19.671875 64.796875 
L 19.671875 42.828125 
L 34.28125 42.828125 
Q 41.5 42.828125 45.03125 45.53125 
Q 48.578125 48.25 48.578125 53.8125 
Q 48.578125 59.328125 45.03125 62.0625 
Q 41.5 64.796875 34.28125 64.796875 
z
M 9.8125 72.90625 
L 35.015625 72.90625 
Q 46.296875 72.90625 52.390625 68.21875 
Q 58.5 63.53125 58.5 54.890625 
Q 58.5 48.1875 55.375 44.234375 
Q 52.25 40.28125 46.1875 39.3125 
Q 53.46875 37.75 57.5 32.78125 
Q 61.53125 27.828125 61.53125 20.40625 
Q 61.53125 10.640625 54.890625 5.3125 
Q 48.25 0 35.984375 0 
L 9.8125 0 
z
" id="DejaVuSans-66"/>
       <path d="M 6.296875 72.90625 
L 16.890625 72.90625 
L 35.015625 45.796875 
L 53.21875 72.90625 
L 63.8125 72.90625 
L 40.375 37.890625 
L 65.375 0 
L 54.78125 0 
L 34.28125 31 
L 13.625 0 
L 2.984375 0 
L 29 38.921875 
z
" id="DejaVuSans-88"/>
       <path d="M 12.40625 8.296875 
L 28.515625 8.296875 
L 28.515625 63.921875 
L 10.984375 60.40625 
L 10.984375 69.390625 
L 28.421875 72.90625 
L 38.28125 72.90625 
L 38.28125 8.296875 
L 54.390625 8.296875 
L 54.390625 0 
L 12.40625 0 
z
" id="DejaVuSans-49"/>
      </defs>
      <use xlink:href="#DejaVuSans-82"/>
      <use x="69.482422" xlink:href="#DejaVuSans-66"/>
      <use x="138.085938" xlink:href="#DejaVuSans-88"/>
      <use x="206.591797" xlink:href="#DejaVuSans-49"/>
     </g>
    </g>
   </g>
   <g id="text_2">
    <g clip-path="url(#p7323348440)">
     <!-- VEGFA -->
     <g transform="translate(600.933805 438.481432)scale(0.12 -0.12)">
      <defs>
       <path d="M 28.609375 0 
L 0.78125 72.90625 
L 11.078125 72.90625 
L 34.1875 11.53125 
L 57.328125 72.90625 
L 67.578125 72.90625 
L 39.796875 0 
z
" id="DejaVuSans-86"/>
       <path d="M 9.8125 72.90625 
L 55.90625 72.90625 
L 55.90625 64.59375 
L 19.671875 64.59375 
L 19.671875 43.015625 
L 54.390625 43.015625 
L 54.390625 34.71875 
L 19.671875 34.71875 
L 19.671875 8.296875 
L 56.78125 8.296875 
L 56.78125 0 
L 9.8125 0 
z
" id="DejaVuSans-69"/>
       <path d="M 59.515625 10.40625 
L 59.515625 29.984375 
L 43.40625 29.984375 
L 43.40625 38.09375 
L 69.28125 38.09375 
L 69.28125 6.78125 
Q 63.578125 2.734375 56.6875 0.65625 
Q 49.8125 -1.421875 42 -1.421875 
Q 24.90625 -1.421875 15.25 8.5625 
Q 5.609375 18.5625 5.609375 36.375 
Q 5.609375 54.25 15.25 64.234375 
Q 24.90625 74.21875 42 74.21875 
Q 49.125 74.21875 55.546875 72.453125 
Q 61.96875 70.703125 67.390625 67.28125 
L 67.390625 56.78125 
Q 61.921875 61.421875 55.765625 63.765625 
Q 49.609375 66.109375 42.828125 66.109375 
Q 29.4375 66.109375 22.71875 58.640625 
Q 16.015625 51.171875 16.015625 36.375 
Q 16.015625 21.625 22.71875 14.15625 
Q 29.4375 6.6875 42.828125 6.6875 
Q 48.046875 6.6875 52.140625 7.59375 
Q 56.25 8.5 59.515625 10.40625 
z
" id="DejaVuSans-71"/>
       <path d="M 9.8125 72.90625 
L 51.703125 72.90625 
L 51.703125 64.59375 
L 19.671875 64.59375 
L 19.671875 43.109375 
L 48.578125 43.109375 
L 48.578125 34.8125 
L 19.671875 34.8125 
L 19.671875 0 
L 9.8125 0 
z
" id="DejaVuSans-70"/>
       <path d="M 34.1875 63.1875 
L 20.796875 26.90625 
L 47.609375 26.90625 
z
M 28.609375 72.90625 
L 39.796875 72.90625 
L 67.578125 0 
L 57.328125 0 
L 50.6875 18.703125 
L 17.828125 18.703125 
L 11.1875 0 
L 0.78125 0 
z
" id="DejaVuSans-65"/>
      </defs>
      <use xlink:href="#DejaVuSans-86"/>
      <use x="68.408203" xlink:href="#DejaVuSans-69"/>
      <use x="131.591797" xlink:href="#DejaVuSans-71"/>
      <use x="209.082031" xlink:href="#DejaVuSans-70"/>
      <use x="257.476562" xlink:href="#DejaVuSans-65"/>
     </g>
    </g>
   </g>
   <g id="text_3">
    <g clip-path="url(#p7323348440)">
     <!-- VHL -->
     <g transform="translate(526.075579 360.378751)scale(0.12 -0.12)">
      <defs>
       <path d="M 9.8125 72.90625 
L 19.671875 72.90625 
L 19.671875 43.015625 
L 55.515625 43.015625 
L 55.515625 72.90625 
L 65.375 72.90625 
L 65.375 0 
L 55.515625 0 
L 55.515625 34.71875 
L 19.671875 34.71875 
L 19.671875 0 
L 9.8125 0 
z
" id="DejaVuSans-72"/>
       <path d="M 9.8125 72.90625 
L 19.671875 72.90625 
L 19.671875 8.296875 
L 55.171875 8.296875 
L 55.171875 0 
L 9.8125 0 
z
" id="DejaVuSans-76"/>
      </defs>
      <use xlink:href="#DejaVuSans-86"/>
      <use x="68.408203" xlink:href="#DejaVuSans-72"/>
      <use x="143.603516" xlink:href="#DejaVuSans-76"/>
     </g>
    </g>
   </g>
   <g id="text_4">
    <g clip-path="url(#p7323348440)">
     <!-- ARNT -->
     <g transform="translate(439.400168 294.07437)scale(0.12 -0.12)">
      <defs>
       <path d="M 9.8125 72.90625 
L 23.09375 72.90625 
L 55.421875 11.921875 
L 55.421875 72.90625 
L 64.984375 72.90625 
L 64.984375 0 
L 51.703125 0 
L 19.390625 60.984375 
L 19.390625 0 
L 9.8125 0 
z
" id="DejaVuSans-78"/>
       <path d="M -0.296875 72.90625 
L 61.375 72.90625 
L 61.375 64.59375 
L 35.5 64.59375 
L 35.5 0 
L 25.59375 0 
L 25.59375 64.59375 
L -0.296875 64.59375 
z
" id="DejaVuSans-84"/>
      </defs>
      <use xlink:href="#DejaVuSans-65"/>
      <use x="68.408203" xlink:href="#DejaVuSans-82"/>
      <use x="137.890625" xlink:href="#DejaVuSans-78"/>
      <use x="212.695312" xlink:href="#DejaVuSans-84"/>
     </g>
    </g>
   </g>
   <g id="text_5">
    <g clip-path="url(#p7323348440)">
     <!-- EP300 -->
     <g transform="translate(439.627326 290.029894)scale(0.12 -0.12)">
      <defs>
       <path d="M 19.671875 64.796875 
L 19.671875 37.40625 
L 32.078125 37.40625 
Q 38.96875 37.40625 42.71875 40.96875 
Q 46.484375 44.53125 46.484375 51.125 
Q 46.484375 57.671875 42.71875 61.234375 
Q 38.96875 64.796875 32.078125 64.796875 
z
M 9.8125 72.90625 
L 32.078125 72.90625 
Q 44.34375 72.90625 50.609375 67.359375 
Q 56.890625 61.8125 56.890625 51.125 
Q 56.890625 40.328125 50.609375 34.8125 
Q 44.34375 29.296875 32.078125 29.296875 
L 19.671875 29.296875 
L 19.671875 0 
L 9.8125 0 
z
" id="DejaVuSans-80"/>
       <path d="M 40.578125 39.3125 
Q 47.65625 37.796875 51.625 33 
Q 55.609375 28.21875 55.609375 21.1875 
Q 55.609375 10.40625 48.1875 4.484375 
Q 40.765625 -1.421875 27.09375 -1.421875 
Q 22.515625 -1.421875 17.65625 -0.515625 
Q 12.796875 0.390625 7.625 2.203125 
L 7.625 11.71875 
Q 11.71875 9.328125 16.59375 8.109375 
Q 21.484375 6.890625 26.8125 6.890625 
Q 36.078125 6.890625 40.9375 10.546875 
Q 45.796875 14.203125 45.796875 21.1875 
Q 45.796875 27.640625 41.28125 31.265625 
Q 36.765625 34.90625 28.71875 34.90625 
L 20.21875 34.90625 
L 20.21875 43.015625 
L 29.109375 43.015625 
Q 36.375 43.015625 40.234375 45.921875 
Q 44.09375 48.828125 44.09375 54.296875 
Q 44.09375 59.90625 40.109375 62.90625 
Q 36.140625 65.921875 28.71875 65.921875 
Q 24.65625 65.921875 20.015625 65.03125 
Q 15.375 64.15625 9.8125 62.3125 
L 9.8125 71.09375 
Q 15.4375 72.65625 20.34375 73.4375 
Q 25.25 74.21875 29.59375 74.21875 
Q 40.828125 74.21875 47.359375 69.109375 
Q 53.90625 64.015625 53.90625 55.328125 
Q 53.90625 49.265625 50.4375 45.09375 
Q 46.96875 40.921875 40.578125 39.3125 
z
" id="DejaVuSans-51"/>
       <path d="M 31.78125 66.40625 
Q 24.171875 66.40625 20.328125 58.90625 
Q 16.5 51.421875 16.5 36.375 
Q 16.5 21.390625 20.328125 13.890625 
Q 24.171875 6.390625 31.78125 6.390625 
Q 39.453125 6.390625 43.28125 13.890625 
Q 47.125 21.390625 47.125 36.375 
Q 47.125 51.421875 43.28125 58.90625 
Q 39.453125 66.40625 31.78125 66.40625 
z
M 31.78125 74.21875 
Q 44.046875 74.21875 50.515625 64.515625 
Q 56.984375 54.828125 56.984375 36.375 
Q 56.984375 17.96875 50.515625 8.265625 
Q 44.046875 -1.421875 31.78125 -1.421875 
Q 19.53125 -1.421875 13.0625 8.265625 
Q 6.59375 17.96875 6.59375 36.375 
Q 6.59375 54.828125 13.0625 64.515625 
Q 19.53125 74.21875 31.78125 74.21875 
z
" id="DejaVuSans-48"/>
      </defs>
      <use xlink:href="#DejaVuSans-69"/>
      <use x="63.183594" xlink:href="#DejaVuSans-80"/>
      <use x="123.486328" xlink:href="#DejaVuSans-51"/>
      <use x="187.109375" xlink:href="#DejaVuSans-48"/>
      <use x="250.732422" xlink:href="#DejaVuSans-48"/>
     </g>
    </g>
   </g>
   <g id="text_6">
    <g clip-path="url(#p7323348440)">
     <!-- HIF1A -->
     <g transform="translate(444.605506 293.692928)scale(0.12 -0.12)">
      <defs>
       <path d="M 9.8125 72.90625 
L 19.671875 72.90625 
L 19.671875 0 
L 9.8125 0 
z
" id="DejaVuSans-73"/>
      </defs>
      <use xlink:href="#DejaVuSans-72"/>
      <use x="75.195312" xlink:href="#DejaVuSans-73"/>
      <use x="104.6875" xlink:href="#DejaVuSans-70"/>
      <use x="162.207031" xlink:href="#DejaVuSans-49"/>
      <use x="225.830078" xlink:href="#DejaVuSans-65"/>
     </g>
    </g>
   </g>
   <g id="text_7">
    <g clip-path="url(#p7323348440)">
     <!-- SLC2A1 -->
     <g transform="translate(659.614703 220.498771)scale(0.12 -0.12)">
      <defs>
       <path d="M 53.515625 70.515625 
L 53.515625 60.890625 
Q 47.90625 63.578125 42.921875 64.890625 
Q 37.9375 66.21875 33.296875 66.21875 
Q 25.25 66.21875 20.875 63.09375 
Q 16.5 59.96875 16.5 54.203125 
Q 16.5 49.359375 19.40625 46.890625 
Q 22.3125 44.4375 30.421875 42.921875 
L 36.375 41.703125 
Q 47.40625 39.59375 52.65625 34.296875 
Q 57.90625 29 57.90625 20.125 
Q 57.90625 9.515625 50.796875 4.046875 
Q 43.703125 -1.421875 29.984375 -1.421875 
Q 24.8125 -1.421875 18.96875 -0.25 
Q 13.140625 0.921875 6.890625 3.21875 
L 6.890625 13.375 
Q 12.890625 10.015625 18.65625 8.296875 
Q 24.421875 6.59375 29.984375 6.59375 
Q 38.421875 6.59375 43.015625 9.90625 
Q 47.609375 13.234375 47.609375 19.390625 
Q 47.609375 24.75 44.3125 27.78125 
Q 41.015625 30.8125 33.5 32.328125 
L 27.484375 33.5 
Q 16.453125 35.6875 11.515625 40.375 
Q 6.59375 45.0625 6.59375 53.421875 
Q 6.59375 63.09375 13.40625 68.65625 
Q 20.21875 74.21875 32.171875 74.21875 
Q 37.3125 74.21875 42.625 73.28125 
Q 47.953125 72.359375 53.515625 70.515625 
z
" id="DejaVuSans-83"/>
       <path d="M 64.40625 67.28125 
L 64.40625 56.890625 
Q 59.421875 61.53125 53.78125 63.8125 
Q 48.140625 66.109375 41.796875 66.109375 
Q 29.296875 66.109375 22.65625 58.46875 
Q 16.015625 50.828125 16.015625 36.375 
Q 16.015625 21.96875 22.65625 14.328125 
Q 29.296875 6.6875 41.796875 6.6875 
Q 48.140625 6.6875 53.78125 8.984375 
Q 59.421875 11.28125 64.40625 15.921875 
L 64.40625 5.609375 
Q 59.234375 2.09375 53.4375 0.328125 
Q 47.65625 -1.421875 41.21875 -1.421875 
Q 24.65625 -1.421875 15.125 8.703125 
Q 5.609375 18.84375 5.609375 36.375 
Q 5.609375 53.953125 15.125 64.078125 
Q 24.65625 74.21875 41.21875 74.21875 
Q 47.75 74.21875 53.53125 72.484375 
Q 59.328125 70.75 64.40625 67.28125 
z
" id="DejaVuSans-67"/>
       <path d="M 19.1875 8.296875 
L 53.609375 8.296875 
L 53.609375 0 
L 7.328125 0 
L 7.328125 8.296875 
Q 12.9375 14.109375 22.625 23.890625 
Q 32.328125 33.6875 34.8125 36.53125 
Q 39.546875 41.84375 41.421875 45.53125 
Q 43.3125 49.21875 43.3125 52.78125 
Q 43.3125 58.59375 39.234375 62.25 
Q 35.15625 65.921875 28.609375 65.921875 
Q 23.96875 65.921875 18.8125 64.3125 
Q 13.671875 62.703125 7.8125 59.421875 
L 7.8125 69.390625 
Q 13.765625 71.78125 18.9375 73 
Q 24.125 74.21875 28.421875 74.21875 
Q 39.75 74.21875 46.484375 68.546875 
Q 53.21875 62.890625 53.21875 53.421875 
Q 53.21875 48.921875 51.53125 44.890625 
Q 49.859375 40.875 45.40625 35.40625 
Q 44.1875 33.984375 37.640625 27.21875 
Q 31.109375 20.453125 19.1875 8.296875 
z
" id="DejaVuSans-50"/>
      </defs>
      <use xlink:href="#DejaVuSans-83"/>
      <use x="63.476562" xlink:href="#DejaVuSans-76"/>
      <use x="119.189453" xlink:href="#DejaVuSans-67"/>
      <use x="189.013672" xlink:href="#DejaVuSans-50"/>
      <use x="252.636719" xlink:href="#DejaVuSans-65"/>
      <use x="321.044922" xlink:href="#DejaVuSans-49"/>
     </g>
    </g>
   </g>
   <g id="text_8">
    <g clip-path="url(#p7323348440)">
     <!-- MTOR -->
     <g transform="translate(472.906282 193.176734)scale(0.12 -0.12)">
      <defs>
       <path d="M 9.8125 72.90625 
L 24.515625 72.90625 
L 43.109375 23.296875 
L 61.8125 72.90625 
L 76.515625 72.90625 
L 76.515625 0 
L 66.890625 0 
L 66.890625 64.015625 
L 48.09375 14.015625 
L 38.1875 14.015625 
L 19.390625 64.015625 
L 19.390625 0 
L 9.8125 0 
z
" id="DejaVuSans-77"/>
       <path d="M 39.40625 66.21875 
Q 28.65625 66.21875 22.328125 58.203125 
Q 16.015625 50.203125 16.015625 36.375 
Q 16.015625 22.609375 22.328125 14.59375 
Q 28.65625 6.59375 39.40625 6.59375 
Q 50.140625 6.59375 56.421875 14.59375 
Q 62.703125 22.609375 62.703125 36.375 
Q 62.703125 50.203125 56.421875 58.203125 
Q 50.140625 66.21875 39.40625 66.21875 
z
M 39.40625 74.21875 
Q 54.734375 74.21875 63.90625 63.9375 
Q 73.09375 53.65625 73.09375 36.375 
Q 73.09375 19.140625 63.90625 8.859375 
Q 54.734375 -1.421875 39.40625 -1.421875 
Q 24.03125 -1.421875 14.8125 8.828125 
Q 5.609375 19.09375 5.609375 36.375 
Q 5.609375 53.65625 14.8125 63.9375 
Q 24.03125 74.21875 39.40625 74.21875 
z
" id="DejaVuSans-79"/>
      </defs>
      <use xlink:href="#DejaVuSans-77"/>
      <use x="86.279297" xlink:href="#DejaVuSans-84"/>
      <use x="147.363281" xlink:href="#DejaVuSans-79"/>
      <use x="226.074219" xlink:href="#DejaVuSans-82"/>
     </g>
    </g>
   </g>
   <g id="text_9">
    <g clip-path="url(#p7323348440)">
     <!-- PDK1 -->
     <g transform="translate(340.330223 110.918523)scale(0.12 -0.12)">
      <defs>
       <path d="M 19.671875 64.796875 
L 19.671875 8.109375 
L 31.59375 8.109375 
Q 46.6875 8.109375 53.6875 14.9375 
Q 60.6875 21.78125 60.6875 36.53125 
Q 60.6875 51.171875 53.6875 57.984375 
Q 46.6875 64.796875 31.59375 64.796875 
z
M 9.8125 72.90625 
L 30.078125 72.90625 
Q 51.265625 72.90625 61.171875 64.09375 
Q 71.09375 55.28125 71.09375 36.53125 
Q 71.09375 17.671875 61.125 8.828125 
Q 51.171875 0 30.078125 0 
L 9.8125 0 
z
" id="DejaVuSans-68"/>
       <path d="M 9.8125 72.90625 
L 19.671875 72.90625 
L 19.671875 42.09375 
L 52.390625 72.90625 
L 65.09375 72.90625 
L 28.90625 38.921875 
L 67.671875 0 
L 54.6875 0 
L 19.671875 35.109375 
L 19.671875 0 
L 9.8125 0 
z
" id="DejaVuSans-75"/>
      </defs>
      <use xlink:href="#DejaVuSans-80"/>
      <use x="60.302734" xlink:href="#DejaVuSans-68"/>
      <use x="137.304688" xlink:href="#DejaVuSans-75"/>
      <use x="202.880859" xlink:href="#DejaVuSans-49"/>
     </g>
    </g>
   </g>
   <g id="text_10">
    <g clip-path="url(#p7323348440)">
     <!-- GAPDH -->
     <g transform="translate(144.602348 257.654175)scale(0.12 -0.12)">
      <use xlink:href="#DejaVuSans-71"/>
      <use x="77.490234" xlink:href="#DejaVuSans-65"/>
      <use x="145.898438" xlink:href="#DejaVuSans-80"/>
      <use x="206.201172" xlink:href="#DejaVuSans-68"/>
      <use x="283.203125" xlink:href="#DejaVuSans-72"/>
     </g>
    </g>
   </g>
   <g id="text_11">
    <g clip-path="url(#p7323348440)">
     <!-- PFKFB3 -->
     <g transform="translate(274.80902 455.124529)scale(0.12 -0.12)">
      <use xlink:href="#DejaVuSans-80"/>
      <use x="60.302734" xlink:href="#DejaVuSans-70"/>
      <use x="117.822266" xlink:href="#DejaVuSans-75"/>
      <use x="183.398438" xlink:href="#DejaVuSans-70"/>
      <use x="240.917969" xlink:href="#DejaVuSans-66"/>
      <use x="309.521484" xlink:href="#DejaVuSans-51"/>
     </g>
    </g>
   </g>
   <g id="text_12">
    <g clip-path="url(#p7323348440)">
     <!-- EPO -->
     <g transform="translate(668.439286 380.949162)scale(0.12 -0.12)">
      <use xlink:href="#DejaVuSans-69"/>
      <use x="63.183594" xlink:href="#DejaVuSans-80"/>
      <use x="123.486328" xlink:href="#DejaVuSans-79"/>
     </g>
    </g>
   </g>
   <g id="text_13">
    <g clip-path="url(#p7323348440)">
     <!-- TF -->
     <g transform="translate(405.653384 114.169422)scale(0.12 -0.12)">
      <use xlink:href="#DejaVuSans-84"/>
      <use x="61.083984" xlink:href="#DejaVuSans-70"/>
     </g>
    </g>
   </g>
   <g id="text_14">
    <g clip-path="url(#p7323348440)">
     <!-- TFRC -->
     <g transform="translate(200.524309 183.135269)scale(0.12 -0.12)">
      <use xlink:href="#DejaVuSans-84"/>
      <use x="61.083984" xlink:href="#DejaVuSans-70"/>
      <use x="118.603516" xlink:href="#DejaVuSans-82"/>
      <use x="183.085938" xlink:href="#DejaVuSans-67"/>
     </g>
    </g>
   </g>
   <g id="text_15">
    <g clip-path="url(#p7323348440)">
     <!-- FLT1 -->
     <g transform="translate(590.622537 143.949123)scale(0.12 -0.12)">
      <use xlink:href="#DejaVuSans-70"/>
      <use x="57.519531" xlink:href="#DejaVuSans-76"/>
      <use x="99.482422" xlink:href="#DejaVuSans-84"/>
      <use x="160.566406" xlink:href="#DejaVuSans-49"/>
     </g>
    </g>
   </g>
   <g id="text_16">
    <g clip-path="url(#p7323348440)">
     <!-- EGF -->
     <g transform="translate(297.959101 194.452634)scale(0.12 -0.12)">
      <use xlink:href="#DejaVuSans-69"/>
      <use x="63.183594" xlink:href="#DejaVuSans-71"/>
      <use x="140.673828" xlink:href="#DejaVuSans-70"/>
     </g>
    </g>
   </g>
   <g id="text_17">
    <g clip-path="url(#p7323348440)">
     <!-- SERPINE1 -->
     <g transform="translate(690.239527 274.964175)scale(0.12 -0.12)">
      <use xlink:href="#DejaVuSans-83"/>
      <use x="63.476562" xlink:href="#DejaVuSans-69"/>
      <use x="126.660156" xlink:href="#DejaVuSans-82"/>
      <use x="196.142578" xlink:href="#DejaVuSans-80"/>
      <use x="256.445312" xlink:href="#DejaVuSans-73"/>
      <use x="285.9375" xlink:href="#DejaVuSans-78"/>
      <use x="360.742188" xlink:href="#DejaVuSans-69"/>
      <use x="423.925781" xlink:href="#DejaVuSans-49"/>
     </g>
    </g>
   </g>
   <g id="text_18">
    <g clip-path="url(#p7323348440)">
     <!-- TEK -->
     <g transform="translate(648.069781 410.640645)scale(0.12 -0.12)">
      <use xlink:href="#DejaVuSans-84"/>
      <use x="61.083984" xlink:href="#DejaVuSans-69"/>
      <use x="124.267578" xlink:href="#DejaVuSans-75"/>
     </g>
    </g>
   </g>
   <g id="text_19">
    <g clip-path="url(#p7323348440)">
     <!-- TIMP1 -->
     <g transform="translate(505.386684 112.720181)scale(0.12 -0.12)">
      <use xlink:href="#DejaVuSans-84"/>
      <use x="61.083984" xlink:href="#DejaVuSans-73"/>
      <use x="90.576172" xlink:href="#DejaVuSans-77"/>
      <use x="176.855469" xlink:href="#DejaVuSans-80"/>
      <use x="237.158203" xlink:href="#DejaVuSans-49"/>
     </g>
    </g>
   </g>
   <g id="text_20">
    <g clip-path="url(#p7323348440)">
     <!-- EDN1 -->
     <g transform="translate(629.392577 159.057162)scale(0.12 -0.12)">
      <use xlink:href="#DejaVuSans-69"/>
      <use x="63.183594" xlink:href="#DejaVuSans-68"/>
      <use x="140.185547" xlink:href="#DejaVuSans-78"/>
      <use x="214.990234" xlink:href="#DejaVuSans-49"/>
     </g>
    </g>
   </g>
   <g id="text_21">
    <g clip-path="url(#p7323348440)">
     <!-- NOS2 -->
     <g transform="translate(515.127136 460.232606)scale(0.12 -0.12)">
      <use xlink:href="#DejaVuSans-78"/>
      <use x="74.804688" xlink:href="#DejaVuSans-79"/>
      <use x="153.515625" xlink:href="#DejaVuSans-83"/>
      <use x="216.992188" xlink:href="#DejaVuSans-50"/>
     </g>
    </g>
   </g>
   <g id="text_22">
    <g clip-path="url(#p7323348440)">
     <!-- NOS3 -->
     <g transform="translate(401.860513 476.138432)scale(0.12 -0.12)">
      <use xlink:href="#DejaVuSans-78"/>
      <use x="74.804688" xlink:href="#DejaVuSans-79"/>
      <use x="153.515625" xlink:href="#DejaVuSans-83"/>
      <use x="216.992188" xlink:href="#DejaVuSans-51"/>
     </g>
    </g>
   </g>
   <g id="text_23">
    <g clip-path="url(#p7323348440)">
     <!-- HMOX1 -->
     <g transform="translate(661.245593 269.436704)scale(0.12 -0.12)">
      <use xlink:href="#DejaVuSans-72"/>
      <use x="75.195312" xlink:href="#DejaVuSans-77"/>
      <use x="161.474609" xlink:href="#DejaVuSans-79"/>
      <use x="233.810547" xlink:href="#DejaVuSans-88"/>
      <use x="302.316406" xlink:href="#DejaVuSans-49"/>
     </g>
    </g>
   </g>
   <g id="text_24">
    <g clip-path="url(#p7323348440)">
     <!-- NPPA -->
     <g transform="translate(153.740034 333.830285)scale(0.12 -0.12)">
      <use xlink:href="#DejaVuSans-78"/>
      <use x="74.804688" xlink:href="#DejaVuSans-80"/>
      <use x="135.107422" xlink:href="#DejaVuSans-80"/>
      <use x="189.035156" xlink:href="#DejaVuSans-65"/>
     </g>
    </g>
   </g>
   <g id="text_25">
    <g clip-path="url(#p7323348440)">
     <!-- TLR4 -->
     <g transform="translate(446.047561 386.441417)scale(0.12 -0.12)">
      <defs>
       <path d="M 37.796875 64.3125 
L 12.890625 25.390625 
L 37.796875 25.390625 
z
M 35.203125 72.90625 
L 47.609375 72.90625 
L 47.609375 25.390625 
L 58.015625 25.390625 
L 58.015625 17.1875 
L 47.609375 17.1875 
L 47.609375 0 
L 37.796875 0 
L 37.796875 17.1875 
L 4.890625 17.1875 
L 4.890625 26.703125 
z
" id="DejaVuSans-52"/>
      </defs>
      <use xlink:href="#DejaVuSans-84"/>
      <use x="61.083984" xlink:href="#DejaVuSans-76"/>
      <use x="116.796875" xlink:href="#DejaVuSans-82"/>
      <use x="186.279297" xlink:href="#DejaVuSans-52"/>
     </g>
    </g>
   </g>
   <g id="text_26">
    <g clip-path="url(#p7323348440)">
     <!-- IFNG -->
     <g transform="translate(388.016016 400.486686)scale(0.12 -0.12)">
      <use xlink:href="#DejaVuSans-73"/>
      <use x="29.492188" xlink:href="#DejaVuSans-70"/>
      <use x="87.011719" xlink:href="#DejaVuSans-78"/>
      <use x="161.816406" xlink:href="#DejaVuSans-71"/>
     </g>
    </g>
   </g>
   <g id="text_27">
    <g clip-path="url(#p7323348440)">
     <!-- IL6 -->
     <g transform="translate(315.859741 276.882717)scale(0.12 -0.12)">
      <defs>
       <path d="M 33.015625 40.375 
Q 26.375 40.375 22.484375 35.828125 
Q 18.609375 31.296875 18.609375 23.390625 
Q 18.609375 15.53125 22.484375 10.953125 
Q 26.375 6.390625 33.015625 6.390625 
Q 39.65625 6.390625 43.53125 10.953125 
Q 47.40625 15.53125 47.40625 23.390625 
Q 47.40625 31.296875 43.53125 35.828125 
Q 39.65625 40.375 33.015625 40.375 
z
M 52.59375 71.296875 
L 52.59375 62.3125 
Q 48.875 64.0625 45.09375 64.984375 
Q 41.3125 65.921875 37.59375 65.921875 
Q 27.828125 65.921875 22.671875 59.328125 
Q 17.53125 52.734375 16.796875 39.40625 
Q 19.671875 43.65625 24.015625 45.921875 
Q 28.375 48.1875 33.59375 48.1875 
Q 44.578125 48.1875 50.953125 41.515625 
Q 57.328125 34.859375 57.328125 23.390625 
Q 57.328125 12.15625 50.6875 5.359375 
Q 44.046875 -1.421875 33.015625 -1.421875 
Q 20.359375 -1.421875 13.671875 8.265625 
Q 6.984375 17.96875 6.984375 36.375 
Q 6.984375 53.65625 15.1875 63.9375 
Q 23.390625 74.21875 37.203125 74.21875 
Q 40.921875 74.21875 44.703125 73.484375 
Q 48.484375 72.75 52.59375 71.296875 
z
" id="DejaVuSans-54"/>
      </defs>
      <use xlink:href="#DejaVuSans-73"/>
      <use x="29.492188" xlink:href="#DejaVuSans-76"/>
      <use x="85.205078" xlink:href="#DejaVuSans-54"/>
     </g>
    </g>
   </g>
   <g id="text_28">
    <g clip-path="url(#p7323348440)">
     <!-- IL6R -->
     <g transform="translate(468.787531 247.694893)scale(0.12 -0.12)">
      <use xlink:href="#DejaVuSans-73"/>
      <use x="29.492188" xlink:href="#DejaVuSans-76"/>
      <use x="85.205078" xlink:href="#DejaVuSans-54"/>
      <use x="148.828125" xlink:href="#DejaVuSans-82"/>
     </g>
    </g>
   </g>
   <g id="text_29">
    <g clip-path="url(#p7323348440)">
     <!-- STAT3 -->
     <g transform="translate(561.615316 289.69631)scale(0.12 -0.12)">
      <use xlink:href="#DejaVuSans-83"/>
      <use x="63.476562" xlink:href="#DejaVuSans-84"/>
      <use x="116.810547" xlink:href="#DejaVuSans-65"/>
      <use x="177.46875" xlink:href="#DejaVuSans-84"/>
      <use x="238.552734" xlink:href="#DejaVuSans-51"/>
     </g>
    </g>
   </g>
   <g id="text_30">
    <g clip-path="url(#p7323348440)">
     <!-- EIF4EBP1 -->
     <g transform="translate(488.053035 282.841489)scale(0.12 -0.12)">
      <use xlink:href="#DejaVuSans-69"/>
      <use x="63.183594" xlink:href="#DejaVuSans-73"/>
      <use x="92.675781" xlink:href="#DejaVuSans-70"/>
      <use x="150.195312" xlink:href="#DejaVuSans-52"/>
      <use x="213.818359" xlink:href="#DejaVuSans-69"/>
      <use x="277.001953" xlink:href="#DejaVuSans-66"/>
      <use x="345.605469" xlink:href="#DejaVuSans-80"/>
      <use x="405.908203" xlink:href="#DejaVuSans-49"/>
     </g>
    </g>
   </g>
   <g id="text_31">
    <g clip-path="url(#p7323348440)">
     <!-- EIF4E -->
     <g transform="translate(664.570433 351.877618)scale(0.12 -0.12)">
      <use xlink:href="#DejaVuSans-69"/>
      <use x="63.183594" xlink:href="#DejaVuSans-73"/>
      <use x="92.675781" xlink:href="#DejaVuSans-70"/>
      <use x="150.195312" xlink:href="#DejaVuSans-52"/>
      <use x="213.818359" xlink:href="#DejaVuSans-69"/>
     </g>
    </g>
   </g>
   <g id="text_32">
    <g clip-path="url(#p7323348440)">
     <!-- BCL2 -->
     <g transform="translate(241.925688 424.446263)scale(0.12 -0.12)">
      <use xlink:href="#DejaVuSans-66"/>
      <use x="66.853516" xlink:href="#DejaVuSans-67"/>
      <use x="136.677734" xlink:href="#DejaVuSans-76"/>
      <use x="192.390625" xlink:href="#DejaVuSans-50"/>
     </g>
    </g>
   </g>
   <g id="text_33">
    <g clip-path="url(#p7323348440)">
     <!-- INS -->
     <g transform="translate(351.372101 241.194411)scale(0.12 -0.12)">
      <use xlink:href="#DejaVuSans-73"/>
      <use x="29.492188" xlink:href="#DejaVuSans-78"/>
      <use x="104.296875" xlink:href="#DejaVuSans-83"/>
     </g>
    </g>
   </g>
   <g id="text_34">
    <g clip-path="url(#p7323348440)">
     <!-- IGF1 -->
     <g transform="translate(309.408788 169.286265)scale(0.12 -0.12)">
      <use xlink:href="#DejaVuSans-73"/>
      <use x="29.492188" xlink:href="#DejaVuSans-71"/>
      <use x="106.982422" xlink:href="#DejaVuSans-70"/>
      <use x="164.501953" xlink:href="#DejaVuSans-49"/>
     </g>
    </g>
   </g>
   <g id="text_35">
    <g clip-path="url(#p7323348440)">
     <!-- INSR -->
     <g transform="translate(329.060922 184.980293)scale(0.12 -0.12)">
      <use xlink:href="#DejaVuSans-73"/>
      <use x="29.492188" xlink:href="#DejaVuSans-78"/>
      <use x="104.296875" xlink:href="#DejaVuSans-83"/>
      <use x="167.773438" xlink:href="#DejaVuSans-82"/>
     </g>
    </g>
   </g>
   <g id="text_36">
    <g clip-path="url(#p7323348440)">
     <!-- EGFR -->
     <g transform="translate(267.182587 132.041778)scale(0.12 -0.12)">
      <use xlink:href="#DejaVuSans-69"/>
      <use x="63.183594" xlink:href="#DejaVuSans-71"/>
      <use x="140.673828" xlink:href="#DejaVuSans-70"/>
      <use x="198.193359" xlink:href="#DejaVuSans-82"/>
     </g>
    </g>
   </g>
   <g id="text_37">
    <g clip-path="url(#p7323348440)">
     <!-- IGF1R -->
     <g transform="translate(275.016791 211.720781)scale(0.12 -0.12)">
      <use xlink:href="#DejaVuSans-73"/>
      <use x="29.492188" xlink:href="#DejaVuSans-71"/>
      <use x="106.982422" xlink:href="#DejaVuSans-70"/>
      <use x="164.501953" xlink:href="#DejaVuSans-49"/>
      <use x="228.125" xlink:href="#DejaVuSans-82"/>
     </g>
    </g>
   </g>
   <g id="text_38">
    <g clip-path="url(#p7323348440)">
     <!-- ERBB2 -->
     <g transform="translate(374.597094 169.75373)scale(0.12 -0.12)">
      <use xlink:href="#DejaVuSans-69"/>
      <use x="63.183594" xlink:href="#DejaVuSans-82"/>
      <use x="132.666016" xlink:href="#DejaVuSans-66"/>
      <use x="201.269531" xlink:href="#DejaVuSans-66"/>
      <use x="269.873047" xlink:href="#DejaVuSans-50"/>
     </g>
    </g>
   </g>
   <g id="text_39">
    <g clip-path="url(#p7323348440)">
     <!-- PRKCA -->
     <g transform="translate(381.570122 227.925428)scale(0.12 -0.12)">
      <use xlink:href="#DejaVuSans-80"/>
      <use x="60.302734" xlink:href="#DejaVuSans-82"/>
      <use x="129.785156" xlink:href="#DejaVuSans-75"/>
      <use x="189.861328" xlink:href="#DejaVuSans-67"/>
      <use x="259.685547" xlink:href="#DejaVuSans-65"/>
     </g>
    </g>
   </g>
   <g id="text_40">
    <g clip-path="url(#p7323348440)">
     <!-- PRKCB -->
     <g transform="translate(501.686766 235.760759)scale(0.12 -0.12)">
      <use xlink:href="#DejaVuSans-80"/>
      <use x="60.302734" xlink:href="#DejaVuSans-82"/>
      <use x="129.785156" xlink:href="#DejaVuSans-75"/>
      <use x="189.861328" xlink:href="#DejaVuSans-67"/>
      <use x="259.685547" xlink:href="#DejaVuSans-66"/>
     </g>
    </g>
   </g>
   <g id="text_41">
    <g clip-path="url(#p7323348440)">
     <!-- PRKCG -->
     <g transform="translate(534.938759 126.559459)scale(0.12 -0.12)">
      <use xlink:href="#DejaVuSans-80"/>
      <use x="60.302734" xlink:href="#DejaVuSans-82"/>
      <use x="129.785156" xlink:href="#DejaVuSans-75"/>
      <use x="189.861328" xlink:href="#DejaVuSans-67"/>
      <use x="259.685547" xlink:href="#DejaVuSans-71"/>
     </g>
    </g>
   </g>
   <g id="text_42">
    <g clip-path="url(#p7323348440)">
     <!-- PDHB -->
     <g transform="translate(463.350404 114.215872)scale(0.12 -0.12)">
      <use xlink:href="#DejaVuSans-80"/>
      <use x="60.302734" xlink:href="#DejaVuSans-68"/>
      <use x="137.304688" xlink:href="#DejaVuSans-72"/>
      <use x="212.5" xlink:href="#DejaVuSans-66"/>
     </g>
    </g>
   </g>
   <g id="text_43">
    <g clip-path="url(#p7323348440)">
     <!-- ANGPT1 -->
     <g transform="translate(190.982699 372.712602)scale(0.12 -0.12)">
      <use xlink:href="#DejaVuSans-65"/>
      <use x="68.408203" xlink:href="#DejaVuSans-78"/>
      <use x="143.212891" xlink:href="#DejaVuSans-71"/>
      <use x="220.703125" xlink:href="#DejaVuSans-80"/>
      <use x="281.005859" xlink:href="#DejaVuSans-84"/>
      <use x="342.089844" xlink:href="#DejaVuSans-49"/>
     </g>
    </g>
   </g>
   <g id="text_44">
    <g clip-path="url(#p7323348440)">
     <!-- ANGPT2 -->
     <g transform="translate(160.198152 218.655709)scale(0.12 -0.12)">
      <use xlink:href="#DejaVuSans-65"/>
      <use x="68.408203" xlink:href="#DejaVuSans-78"/>
      <use x="143.212891" xlink:href="#DejaVuSans-71"/>
      <use x="220.703125" xlink:href="#DejaVuSans-80"/>
      <use x="281.005859" xlink:href="#DejaVuSans-84"/>
      <use x="342.089844" xlink:href="#DejaVuSans-50"/>
     </g>
    </g>
   </g>
   <g id="text_45">
    <g clip-path="url(#p7323348440)">
     <!-- ANGPT4 -->
     <g transform="translate(640.019532 188.503671)scale(0.12 -0.12)">
      <use xlink:href="#DejaVuSans-65"/>
      <use x="68.408203" xlink:href="#DejaVuSans-78"/>
      <use x="143.212891" xlink:href="#DejaVuSans-71"/>
      <use x="220.703125" xlink:href="#DejaVuSans-80"/>
      <use x="281.005859" xlink:href="#DejaVuSans-84"/>
      <use x="342.089844" xlink:href="#DejaVuSans-52"/>
     </g>
    </g>
   </g>
   <g id="text_46">
    <g clip-path="url(#p7323348440)">
     <!-- RELA -->
     <g transform="translate(341.253307 336.179458)scale(0.12 -0.12)">
      <use xlink:href="#DejaVuSans-82"/>
      <use x="69.482422" xlink:href="#DejaVuSans-69"/>
      <use x="132.666016" xlink:href="#DejaVuSans-76"/>
      <use x="190.628906" xlink:href="#DejaVuSans-65"/>
     </g>
    </g>
   </g>
   <g id="text_47">
    <g clip-path="url(#p7323348440)">
     <!-- NFKB1 -->
     <g transform="translate(546.437208 331.749308)scale(0.12 -0.12)">
      <use xlink:href="#DejaVuSans-78"/>
      <use x="74.804688" xlink:href="#DejaVuSans-70"/>
      <use x="132.324219" xlink:href="#DejaVuSans-75"/>
      <use x="197.900391" xlink:href="#DejaVuSans-66"/>
      <use x="266.503906" xlink:href="#DejaVuSans-49"/>
     </g>
    </g>
   </g>
   <g id="text_48">
    <g clip-path="url(#p7323348440)">
     <!-- IFNGR1 -->
     <g transform="translate(455.254239 370.383557)scale(0.12 -0.12)">
      <use xlink:href="#DejaVuSans-73"/>
      <use x="29.492188" xlink:href="#DejaVuSans-70"/>
      <use x="87.011719" xlink:href="#DejaVuSans-78"/>
      <use x="161.816406" xlink:href="#DejaVuSans-71"/>
      <use x="239.306641" xlink:href="#DejaVuSans-82"/>
      <use x="308.789062" xlink:href="#DejaVuSans-49"/>
     </g>
    </g>
   </g>
   <g id="text_49">
    <g clip-path="url(#p7323348440)">
     <!-- IFNGR2 -->
     <g transform="translate(434.521428 353.206866)scale(0.12 -0.12)">
      <use xlink:href="#DejaVuSans-73"/>
      <use x="29.492188" xlink:href="#DejaVuSans-70"/>
      <use x="87.011719" xlink:href="#DejaVuSans-78"/>
      <use x="161.816406" xlink:href="#DejaVuSans-71"/>
      <use x="239.306641" xlink:href="#DejaVuSans-82"/>
      <use x="308.789062" xlink:href="#DejaVuSans-50"/>
     </g>
    </g>
   </g>
   <g id="text_50">
    <g clip-path="url(#p7323348440)">
     <!-- MAP2K1 -->
     <g transform="translate(237.037829 164.161773)scale(0.12 -0.12)">
      <use xlink:href="#DejaVuSans-77"/>
      <use x="86.279297" xlink:href="#DejaVuSans-65"/>
      <use x="154.6875" xlink:href="#DejaVuSans-80"/>
      <use x="214.990234" xlink:href="#DejaVuSans-50"/>
      <use x="278.613281" xlink:href="#DejaVuSans-75"/>
      <use x="344.189453" xlink:href="#DejaVuSans-49"/>
     </g>
    </g>
   </g>
   <g id="text_51">
    <g clip-path="url(#p7323348440)">
     <!-- MAP2K2 -->
     <g transform="translate(348.923142 113.372998)scale(0.12 -0.12)">
      <use xlink:href="#DejaVuSans-77"/>
      <use x="86.279297" xlink:href="#DejaVuSans-65"/>
      <use x="154.6875" xlink:href="#DejaVuSans-80"/>
      <use x="214.990234" xlink:href="#DejaVuSans-50"/>
      <use x="278.613281" xlink:href="#DejaVuSans-75"/>
      <use x="344.189453" xlink:href="#DejaVuSans-50"/>
     </g>
    </g>
   </g>
   <g id="text_52">
    <g clip-path="url(#p7323348440)">
     <!-- CDKN1A -->
     <g transform="translate(454.127626 477.463977)scale(0.12 -0.12)">
      <use xlink:href="#DejaVuSans-67"/>
      <use x="69.824219" xlink:href="#DejaVuSans-68"/>
      <use x="146.826172" xlink:href="#DejaVuSans-75"/>
      <use x="212.402344" xlink:href="#DejaVuSans-78"/>
      <use x="287.207031" xlink:href="#DejaVuSans-49"/>
      <use x="350.830078" xlink:href="#DejaVuSans-65"/>
     </g>
    </g>
   </g>
   <g id="text_53">
    <g clip-path="url(#p7323348440)">
     <!-- CDKN1B -->
     <g transform="translate(691.264101 314.403166)scale(0.12 -0.12)">
      <use xlink:href="#DejaVuSans-67"/>
      <use x="69.824219" xlink:href="#DejaVuSans-68"/>
      <use x="146.826172" xlink:href="#DejaVuSans-75"/>
      <use x="212.402344" xlink:href="#DejaVuSans-78"/>
      <use x="287.207031" xlink:href="#DejaVuSans-49"/>
      <use x="350.830078" xlink:href="#DejaVuSans-66"/>
     </g>
    </g>
   </g>
   <g id="text_54">
    <!-- Frame: 11 -->
    <g transform="translate(121.392 91.296)scale(0.1 -0.1)">
     <defs>
      <path d="M 41.109375 46.296875 
Q 39.59375 47.171875 37.8125 47.578125 
Q 36.03125 48 33.890625 48 
Q 26.265625 48 22.1875 43.046875 
Q 18.109375 38.09375 18.109375 28.8125 
L 18.109375 0 
L 9.078125 0 
L 9.078125 54.6875 
L 18.109375 54.6875 
L 18.109375 46.1875 
Q 20.953125 51.171875 25.484375 53.578125 
Q 30.03125 56 36.53125 56 
Q 37.453125 56 38.578125 55.875 
Q 39.703125 55.765625 41.0625 55.515625 
z
" id="DejaVuSans-114"/>
      <path d="M 34.28125 27.484375 
Q 23.390625 27.484375 19.1875 25 
Q 14.984375 22.515625 14.984375 16.5 
Q 14.984375 11.71875 18.140625 8.90625 
Q 21.296875 6.109375 26.703125 6.109375 
Q 34.1875 6.109375 38.703125 11.40625 
Q 43.21875 16.703125 43.21875 25.484375 
L 43.21875 27.484375 
z
M 52.203125 31.203125 
L 52.203125 0 
L 43.21875 0 
L 43.21875 8.296875 
Q 40.140625 3.328125 35.546875 0.953125 
Q 30.953125 -1.421875 24.3125 -1.421875 
Q 15.921875 -1.421875 10.953125 3.296875 
Q 6 8.015625 6 15.921875 
Q 6 25.140625 12.171875 29.828125 
Q 18.359375 34.515625 30.609375 34.515625 
L 43.21875 34.515625 
L 43.21875 35.40625 
Q 43.21875 41.609375 39.140625 45 
Q 35.0625 48.390625 27.6875 48.390625 
Q 23 48.390625 18.546875 47.265625 
Q 14.109375 46.140625 10.015625 43.890625 
L 10.015625 52.203125 
Q 14.9375 54.109375 19.578125 55.046875 
Q 24.21875 56 28.609375 56 
Q 40.484375 56 46.34375 49.84375 
Q 52.203125 43.703125 52.203125 31.203125 
z
" id="DejaVuSans-97"/>
      <path d="M 52 44.1875 
Q 55.375 50.25 60.0625 53.125 
Q 64.75 56 71.09375 56 
Q 79.640625 56 84.28125 50.015625 
Q 88.921875 44.046875 88.921875 33.015625 
L 88.921875 0 
L 79.890625 0 
L 79.890625 32.71875 
Q 79.890625 40.578125 77.09375 44.375 
Q 74.3125 48.1875 68.609375 48.1875 
Q 61.625 48.1875 57.5625 43.546875 
Q 53.515625 38.921875 53.515625 30.90625 
L 53.515625 0 
L 44.484375 0 
L 44.484375 32.71875 
Q 44.484375 40.625 41.703125 44.40625 
Q 38.921875 48.1875 33.109375 48.1875 
Q 26.21875 48.1875 22.15625 43.53125 
Q 18.109375 38.875 18.109375 30.90625 
L 18.109375 0 
L 9.078125 0 
L 9.078125 54.6875 
L 18.109375 54.6875 
L 18.109375 46.1875 
Q 21.1875 51.21875 25.484375 53.609375 
Q 29.78125 56 35.6875 56 
Q 41.65625 56 45.828125 52.96875 
Q 50 49.953125 52 44.1875 
z
" id="DejaVuSans-109"/>
      <path d="M 56.203125 29.59375 
L 56.203125 25.203125 
L 14.890625 25.203125 
Q 15.484375 15.921875 20.484375 11.0625 
Q 25.484375 6.203125 34.421875 6.203125 
Q 39.59375 6.203125 44.453125 7.46875 
Q 49.3125 8.734375 54.109375 11.28125 
L 54.109375 2.78125 
Q 49.265625 0.734375 44.1875 -0.34375 
Q 39.109375 -1.421875 33.890625 -1.421875 
Q 20.796875 -1.421875 13.15625 6.1875 
Q 5.515625 13.8125 5.515625 26.8125 
Q 5.515625 40.234375 12.765625 48.109375 
Q 20.015625 56 32.328125 56 
Q 43.359375 56 49.78125 48.890625 
Q 56.203125 41.796875 56.203125 29.59375 
z
M 47.21875 32.234375 
Q 47.125 39.59375 43.09375 43.984375 
Q 39.0625 48.390625 32.421875 48.390625 
Q 24.90625 48.390625 20.390625 44.140625 
Q 15.875 39.890625 15.1875 32.171875 
z
" id="DejaVuSans-101"/>
      <path d="M 11.71875 12.40625 
L 22.015625 12.40625 
L 22.015625 0 
L 11.71875 0 
z
M 11.71875 51.703125 
L 22.015625 51.703125 
L 22.015625 39.3125 
L 11.71875 39.3125 
z
" id="DejaVuSans-58"/>
      <path id="DejaVuSans-32"/>
     </defs>
     <use xlink:href="#DejaVuSans-70"/>
     <use x="50.269531" xlink:href="#DejaVuSans-114"/>
     <use x="91.382812" xlink:href="#DejaVuSans-97"/>
     <use x="152.662109" xlink:href="#DejaVuSans-109"/>
     <use x="250.074219" xlink:href="#DejaVuSans-101"/>
     <use x="311.597656" xlink:href="#DejaVuSans-58"/>
     <use x="345.289062" xlink:href="#DejaVuSans-32"/>
     <use x="377.076172" xlink:href="#DejaVuSans-49"/>
     <use x="440.699219" xlink:href="#DejaVuSans-49"/>
    </g>
   </g>
   <g id="text_55">
    <!-- Network: hsa04066 -->
    <g transform="translate(384.1275 63.12)scale(0.12 -0.12)">
     <defs>
      <path d="M 18.3125 70.21875 
L 18.3125 54.6875 
L 36.8125 54.6875 
L 36.8125 47.703125 
L 18.3125 47.703125 
L 18.3125 18.015625 
Q 18.3125 11.328125 20.140625 9.421875 
Q 21.96875 7.515625 27.59375 7.515625 
L 36.8125 7.515625 
L 36.8125 0 
L 27.59375 0 
Q 17.1875 0 13.234375 3.875 
Q 9.28125 7.765625 9.28125 18.015625 
L 9.28125 47.703125 
L 2.6875 47.703125 
L 2.6875 54.6875 
L 9.28125 54.6875 
L 9.28125 70.21875 
z
" id="DejaVuSans-116"/>
      <path d="M 4.203125 54.6875 
L 13.1875 54.6875 
L 24.421875 12.015625 
L 35.59375 54.6875 
L 46.1875 54.6875 
L 57.421875 12.015625 
L 68.609375 54.6875 
L 77.59375 54.6875 
L 63.28125 0 
L 52.6875 0 
L 40.921875 44.828125 
L 29.109375 0 
L 18.5 0 
z
" id="DejaVuSans-119"/>
      <path d="M 30.609375 48.390625 
Q 23.390625 48.390625 19.1875 42.75 
Q 14.984375 37.109375 14.984375 27.296875 
Q 14.984375 17.484375 19.15625 11.84375 
Q 23.34375 6.203125 30.609375 6.203125 
Q 37.796875 6.203125 41.984375 11.859375 
Q 46.1875 17.53125 46.1875 27.296875 
Q 46.1875 37.015625 41.984375 42.703125 
Q 37.796875 48.390625 30.609375 48.390625 
z
M 30.609375 56 
Q 42.328125 56 49.015625 48.375 
Q 55.71875 40.765625 55.71875 27.296875 
Q 55.71875 13.875 49.015625 6.21875 
Q 42.328125 -1.421875 30.609375 -1.421875 
Q 18.84375 -1.421875 12.171875 6.21875 
Q 5.515625 13.875 5.515625 27.296875 
Q 5.515625 40.765625 12.171875 48.375 
Q 18.84375 56 30.609375 56 
z
" id="DejaVuSans-111"/>
      <path d="M 9.078125 75.984375 
L 18.109375 75.984375 
L 18.109375 31.109375 
L 44.921875 54.6875 
L 56.390625 54.6875 
L 27.390625 29.109375 
L 57.625 0 
L 45.90625 0 
L 18.109375 26.703125 
L 18.109375 0 
L 9.078125 0 
z
" id="DejaVuSans-107"/>
      <path d="M 54.890625 33.015625 
L 54.890625 0 
L 45.90625 0 
L 45.90625 32.71875 
Q 45.90625 40.484375 42.875 44.328125 
Q 39.84375 48.1875 33.796875 48.1875 
Q 26.515625 48.1875 22.3125 43.546875 
Q 18.109375 38.921875 18.109375 30.90625 
L 18.109375 0 
L 9.078125 0 
L 9.078125 75.984375 
L 18.109375 75.984375 
L 18.109375 46.1875 
Q 21.34375 51.125 25.703125 53.5625 
Q 30.078125 56 35.796875 56 
Q 45.21875 56 50.046875 50.171875 
Q 54.890625 44.34375 54.890625 33.015625 
z
" id="DejaVuSans-104"/>
      <path d="M 44.28125 53.078125 
L 44.28125 44.578125 
Q 40.484375 46.53125 36.375 47.5 
Q 32.28125 48.484375 27.875 48.484375 
Q 21.1875 48.484375 17.84375 46.4375 
Q 14.5 44.390625 14.5 40.28125 
Q 14.5 37.15625 16.890625 35.375 
Q 19.28125 33.59375 26.515625 31.984375 
L 29.59375 31.296875 
Q 39.15625 29.25 43.1875 25.515625 
Q 47.21875 21.78125 47.21875 15.09375 
Q 47.21875 7.46875 41.1875 3.015625 
Q 35.15625 -1.421875 24.609375 -1.421875 
Q 20.21875 -1.421875 15.453125 -0.5625 
Q 10.6875 0.296875 5.421875 2 
L 5.421875 11.28125 
Q 10.40625 8.6875 15.234375 7.390625 
Q 20.0625 6.109375 24.8125 6.109375 
Q 31.15625 6.109375 34.5625 8.28125 
Q 37.984375 10.453125 37.984375 14.40625 
Q 37.984375 18.0625 35.515625 20.015625 
Q 33.0625 21.96875 24.703125 23.78125 
L 21.578125 24.515625 
Q 13.234375 26.265625 9.515625 29.90625 
Q 5.8125 33.546875 5.8125 39.890625 
Q 5.8125 47.609375 11.28125 51.796875 
Q 16.75 56 26.8125 56 
Q 31.78125 56 36.171875 55.265625 
Q 40.578125 54.546875 44.28125 53.078125 
z
" id="DejaVuSans-115"/>
     </defs>
     <use xlink:href="#DejaVuSans-78"/>
     <use x="74.804688" xlink:href="#DejaVuSans-101"/>
     <use x="136.328125" xlink:href="#DejaVuSans-116"/>
     <use x="175.537109" xlink:href="#DejaVuSans-119"/>
     <use x="257.324219" xlink:href="#DejaVuSans-111"/>
     <use x="318.505859" xlink:href="#DejaVuSans-114"/>
     <use x="359.619141" xlink:href="#DejaVuSans-107"/>
     <use x="417.529297" xlink:href="#DejaVuSans-58"/>
     <use x="451.220703" xlink:href="#DejaVuSans-32"/>
     <use x="483.007812" xlink:href="#DejaVuSans-104"/>
     <use x="546.386719" xlink:href="#DejaVuSans-115"/>
     <use x="598.486328" xlink:href="#DejaVuSans-97"/>
     <use x="659.765625" xlink:href="#DejaVuSans-48"/>
     <use x="723.388672" xlink:href="#DejaVuSans-52"/>
     <use x="787.011719" xlink:href="#DejaVuSans-48"/>
     <use x="850.634766" xlink:href="#DejaVuSans-54"/>
     <use x="914.257812" xlink:href="#DejaVuSans-54"/>
    </g>
   </g>
  </g>
 </g>
 <defs>
  <clipPath id="p7323348440">
   <rect height="443.52" width="669.6" x="108" y="69.12"/>
  </clipPath>
 </defs>
</svg>
