<?xml version="1.0" encoding="utf-8" standalone="no"?>
<!DOCTYPE svg PUBLIC "-//W3C//DTD SVG 1.1//EN"
  "http://www.w3.org/Graphics/SVG/1.1/DTD/svg11.dtd">
<!-- Created with matplotlib (https://matplotlib.org/) -->
<svg height="576pt" version="1.1" viewBox="0 0 864 576" width="864pt" xmlns="http://www.w3.org/2000/svg" xmlns:xlink="http://www.w3.org/1999/xlink">
 <metadata>
  <rdf:RDF xmlns:cc="http://creativecommons.org/ns#" xmlns:dc="http://purl.org/dc/elements/1.1/" xmlns:rdf="http://www.w3.org/1999/02/22-rdf-syntax-ns#">
   <cc:Work>
    <dc:type rdf:resource="http://purl.org/dc/dcmitype/StillImage"/>
    <dc:date>2024-04-26T13:37:06.929004</dc:date>
    <dc:format>image/svg+xml</dc:format>
    <dc:creator>
     <cc:Agent>
      <dc:title>Matplotlib v3.3.1, https://matplotlib.org/</dc:title>
     </cc:Agent>
    </dc:creator>
   </cc:Work>
  </rdf:RDF>
 </metadata>
 <defs>
  <style type="text/css">*{stroke-linecap:butt;stroke-linejoin:round;}</style>
 </defs>
 <g id="figure_1">
  <g id="patch_1">
   <path d="M 0 576 
L 864 576 
L 864 0 
L 0 0 
z
" style="fill:#ffffff;"/>
  </g>
  <g id="axes_1">
   <g id="patch_2">
    <path clip-path="url(#padca3c9f54)" d="M 530.753675 328.164919 
Q 557.623446 283.326877 583.918514 239.447853 
" style="fill:none;stroke:#000000;stroke-linecap:round;"/>
    <path clip-path="url(#padca3c9f54)" d="M 580.146847 241.850879 
L 583.918514 239.447853 
L 583.577934 243.907002 
L 580.146847 241.850879 
z
" style="stroke:#000000;stroke-linecap:round;"/>
   </g>
   <g id="patch_3">
    <path clip-path="url(#padca3c9f54)" d="M 517.780188 334.070227 
Q 461.998693 324.089802 407.317756 314.306288 
" style="fill:none;stroke:#000000;stroke-linecap:round;"/>
    <path clip-path="url(#padca3c9f54)" d="M 410.902982 316.979517 
L 407.317756 314.306288 
L 411.607475 313.042045 
L 410.902982 316.979517 
z
" style="stroke:#000000;stroke-linecap:round;"/>
   </g>
   <g id="patch_4">
    <path clip-path="url(#padca3c9f54)" d="M 602.119624 344.099583 
Q 596.033624 291.879622 590.07705 240.770179 
" style="fill:none;stroke:#000000;stroke-linecap:round;"/>
    <path clip-path="url(#padca3c9f54)" d="M 588.553544 244.974811 
L 590.07705 240.770179 
L 592.526651 244.511763 
L 588.553544 244.974811 
z
" style="stroke:#000000;stroke-linecap:round;"/>
   </g>
   <g id="patch_5">
    <path clip-path="url(#padca3c9f54)" d="M 406.30311 313.473276 
Q 425.007921 315.405325 442.600616 317.222502 
" style="fill:none;stroke:#000000;stroke-linecap:round;"/>
    <path clip-path="url(#padca3c9f54)" d="M 438.827274 314.822107 
L 442.600616 317.222502 
L 438.416295 318.800938 
L 438.827274 314.822107 
z
" style="stroke:#000000;stroke-linecap:round;"/>
   </g>
   <g id="patch_6">
    <path clip-path="url(#padca3c9f54)" d="M 390.182061 316.89664 
Q 322.716938 355.658921 256.221233 393.86422 
" style="fill:none;stroke:#000000;stroke-linecap:round;"/>
    <path clip-path="url(#padca3c9f54)" d="M 260.685888 393.605649 
L 256.221233 393.86422 
L 258.693169 390.137354 
L 260.685888 393.605649 
z
" style="stroke:#000000;stroke-linecap:round;"/>
   </g>
   <g id="patch_7">
    <path clip-path="url(#padca3c9f54)" d="M 389.252319 310.61978 
Q 295.712989 288.847457 203.262583 267.328594 
" style="fill:none;stroke:#000000;stroke-linecap:round;"/>
    <path clip-path="url(#padca3c9f54)" d="M 206.705039 270.183327 
L 203.262583 267.328594 
L 207.611843 266.287469 
L 206.705039 270.183327 
z
" style="stroke:#000000;stroke-linecap:round;"/>
   </g>
   <g id="patch_8">
    <path clip-path="url(#padca3c9f54)" d="M 403.387285 306.064575 
Q 456.019883 245.852041 507.916673 186.481282 
" style="fill:none;stroke:#000000;stroke-linecap:round;"/>
    <path clip-path="url(#padca3c9f54)" d="M 503.778352 188.176659 
L 507.916673 186.481282 
L 506.789982 190.809165 
L 503.778352 188.176659 
z
" style="stroke:#000000;stroke-linecap:round;"/>
   </g>
   <g id="patch_9">
    <path clip-path="url(#padca3c9f54)" d="M 399.77641 304.180462 
Q 400.519185 301.190364 400.992419 299.285323 
" style="fill:none;stroke:#000000;stroke-linecap:round;"/>
    <path clip-path="url(#padca3c9f54)" d="M 398.087073 302.685171 
L 400.992419 299.285323 
L 401.969089 303.649509 
L 398.087073 302.685171 
z
" style="stroke:#000000;stroke-linecap:round;"/>
   </g>
   <g id="patch_10">
    <path clip-path="url(#padca3c9f54)" d="M 405.593748 316.121627 
Q 486.608009 352.383087 566.601793 388.187789 
" style="fill:none;stroke:#000000;stroke-linecap:round;"/>
    <path clip-path="url(#padca3c9f54)" d="M 563.767901 384.728156 
L 566.601793 388.187789 
L 562.133752 388.379123 
L 563.767901 384.728156 
z
" style="stroke:#000000;stroke-linecap:round;"/>
   </g>
   <g id="patch_11">
    <path clip-path="url(#padca3c9f54)" d="M 406.280689 313.657426 
Q 461.011288 320.498458 514.632486 327.200821 
" style="fill:none;stroke:#000000;stroke-linecap:round;"/>
    <path clip-path="url(#padca3c9f54)" d="M 510.911431 324.720146 
L 514.632486 327.200821 
L 510.415313 328.68926 
L 510.911431 324.720146 
z
" style="stroke:#000000;stroke-linecap:round;"/>
   </g>
   <g id="patch_12">
    <path clip-path="url(#padca3c9f54)" d="M 395.031873 304.33708 
Q 386.886117 279.056558 379.083247 254.840192 
" style="fill:none;stroke:#000000;stroke-linecap:round;"/>
    <path clip-path="url(#padca3c9f54)" d="M 378.406376 259.260808 
L 379.083247 254.840192 
L 382.213617 258.034058 
L 378.406376 259.260808 
z
" style="stroke:#000000;stroke-linecap:round;"/>
   </g>
   <g id="patch_13">
    <path clip-path="url(#padca3c9f54)" d="M 438.600419 256.380216 
Q 440.41856 252.904453 441.718484 250.419373 
" style="fill:none;stroke:#000000;stroke-linecap:round;"/>
    <path clip-path="url(#padca3c9f54)" d="M 438.092268 253.036729 
L 441.718484 250.419373 
L 441.63664 254.890759 
L 438.092268 253.036729 
z
" style="stroke:#000000;stroke-linecap:round;"/>
   </g>
   <g id="patch_14">
    <path clip-path="url(#padca3c9f54)" d="M 442.587619 267.359392 
Q 569.932509 319.986695 696.244124 372.18698 
" style="fill:none;stroke:#000000;stroke-linecap:round;"/>
    <path clip-path="url(#padca3c9f54)" d="M 693.31124 368.810859 
L 696.244124 372.18698 
L 691.783497 372.507614 
L 693.31124 368.810859 
z
" style="stroke:#000000;stroke-linecap:round;"/>
   </g>
   <g id="patch_15">
    <path clip-path="url(#padca3c9f54)" d="M 425.938749 263.558653 
Q 300.345812 256.38009 175.869087 249.265326 
" style="fill:none;stroke:#000000;stroke-linecap:round;"/>
    <path clip-path="url(#padca3c9f54)" d="M 179.748441 251.490324 
L 175.869087 249.265326 
L 179.976698 247.496842 
L 179.748441 251.490324 
z
" style="stroke:#000000;stroke-linecap:round;"/>
   </g>
   <g id="patch_16">
    <path clip-path="url(#padca3c9f54)" d="M 432.423641 255.664436 
Q 414.413847 185.82662 396.683239 117.07142 
" style="fill:none;stroke:#000000;stroke-linecap:round;"/>
    <path clip-path="url(#padca3c9f54)" d="M 395.745441 121.444123 
L 396.683239 117.07142 
L 399.618722 120.44528 
L 395.745441 121.444123 
z
" style="stroke:#000000;stroke-linecap:round;"/>
   </g>
   <g id="patch_17">
    <path clip-path="url(#padca3c9f54)" d="M 565.739653 301.651135 
Q 613.765898 357.588213 661.063835 412.677018 
" style="fill:none;stroke:#000000;stroke-linecap:round;"/>
    <path clip-path="url(#padca3c9f54)" d="M 659.975601 408.339306 
L 661.063835 412.677018 
L 656.940725 410.944978 
L 659.975601 408.339306 
z
" style="stroke:#000000;stroke-linecap:round;"/>
   </g>
   <g id="patch_18">
    <path clip-path="url(#padca3c9f54)" d="M 565.334983 288.186739 
Q 602.304631 239.53215 638.597867 191.767766 
" style="fill:none;stroke:#000000;stroke-linecap:round;"/>
    <path clip-path="url(#padca3c9f54)" d="M 634.585411 193.742658 
L 638.597867 191.767766 
L 637.770307 196.162666 
L 634.585411 193.742658 
z
" style="stroke:#000000;stroke-linecap:round;"/>
   </g>
   <g id="patch_19">
    <path clip-path="url(#padca3c9f54)" d="M 552.02263 291.951984 
Q 501.168574 272.254724 451.357079 252.961279 
" style="fill:none;stroke:#000000;stroke-linecap:round;"/>
    <path clip-path="url(#padca3c9f54)" d="M 454.364694 256.270999 
L 451.357079 252.961279 
L 455.809424 252.541019 
L 454.364694 256.270999 
z
" style="stroke:#000000;stroke-linecap:round;"/>
   </g>
   <g id="patch_20">
    <path clip-path="url(#padca3c9f54)" d="M 484.06471 373.521992 
Q 519.06815 337.409247 553.293447 302.099305 
" style="fill:none;stroke:#000000;stroke-linecap:round;"/>
    <path clip-path="url(#padca3c9f54)" d="M 549.07338 303.579518 
L 553.293447 302.099305 
L 551.945577 306.363487 
L 549.07338 303.579518 
z
" style="stroke:#000000;stroke-linecap:round;"/>
   </g>
   <g id="patch_21">
    <path clip-path="url(#padca3c9f54)" d="M 438.223157 257.101432 
Q 436.405016 260.577195 435.105092 263.062275 
" style="fill:none;stroke:#000000;stroke-linecap:round;"/>
    <path clip-path="url(#padca3c9f54)" d="M 438.731308 260.444918 
L 435.105092 263.062275 
L 435.186936 258.590888 
L 438.731308 260.444918 
z
" style="stroke:#000000;stroke-linecap:round;"/>
   </g>
   <g id="patch_22">
    <path clip-path="url(#padca3c9f54)" d="M 449.833201 245.27084 
Q 480.591069 228.4359 510.368197 212.137755 
" style="fill:none;stroke:#000000;stroke-linecap:round;"/>
    <path clip-path="url(#padca3c9f54)" d="M 505.899147 212.303854 
L 510.368197 212.137755 
L 507.819646 215.812654 
L 505.899147 212.303854 
z
" style="stroke:#000000;stroke-linecap:round;"/>
   </g>
   <g id="patch_23">
    <path clip-path="url(#padca3c9f54)" d="M 450.043456 253.182805 
Q 573.76234 312.67679 696.473637 371.686245 
" style="fill:none;stroke:#000000;stroke-linecap:round;"/>
    <path clip-path="url(#padca3c9f54)" d="M 693.735535 368.150315 
L 696.473637 371.686245 
L 692.002032 371.755168 
L 693.735535 368.150315 
z
" style="stroke:#000000;stroke-linecap:round;"/>
   </g>
   <g id="patch_24">
    <path clip-path="url(#padca3c9f54)" d="M 433.578116 249.406069 
Q 304.170174 249.067983 175.880261 248.732818 
" style="fill:none;stroke:#000000;stroke-linecap:round;"/>
    <path clip-path="url(#padca3c9f54)" d="M 179.875022 250.743261 
L 175.880261 248.732818 
L 179.885472 246.743275 
L 179.875022 250.743261 
z
" style="stroke:#000000;stroke-linecap:round;"/>
   </g>
   <g id="patch_25">
    <path clip-path="url(#padca3c9f54)" d="M 439.461165 241.227043 
Q 418.239444 178.517337 397.376113 116.866667 
" style="fill:none;stroke:#000000;stroke-linecap:round;"/>
    <path clip-path="url(#padca3c9f54)" d="M 396.763869 121.296696 
L 397.376113 116.866667 
L 400.55279 120.01448 
L 396.763869 121.296696 
z
" style="stroke:#000000;stroke-linecap:round;"/>
   </g>
   <g id="patch_26">
    <path clip-path="url(#padca3c9f54)" d="M 589.169368 222.397685 
Q 589.986423 190.809877 590.774569 160.339729 
" style="fill:none;stroke:#000000;stroke-linecap:round;"/>
    <path clip-path="url(#padca3c9f54)" d="M 588.671807 164.286676 
L 590.774569 160.339729 
L 592.67047 164.390106 
L 588.671807 164.286676 
z
" style="stroke:#000000;stroke-linecap:round;"/>
   </g>
   <g id="patch_27">
    <path clip-path="url(#padca3c9f54)" d="M 580.442925 229.42426 
Q 469.525299 208.091295 359.705585 186.969493 
" style="fill:none;stroke:#000000;stroke-linecap:round;"/>
    <path clip-path="url(#padca3c9f54)" d="M 363.255853 189.688978 
L 359.705585 186.969493 
L 364.011334 185.760969 
L 363.255853 189.688978 
z
" style="stroke:#000000;stroke-linecap:round;"/>
   </g>
   <g id="patch_28">
    <path clip-path="url(#padca3c9f54)" d="M 597.31631 233.285825 
Q 653.185812 248.144459 707.974838 262.715738 
" style="fill:none;stroke:#000000;stroke-linecap:round;"/>
    <path clip-path="url(#padca3c9f54)" d="M 704.623249 259.754852 
L 707.974838 262.715738 
L 703.595176 263.620479 
L 704.623249 259.754852 
z
" style="stroke:#000000;stroke-linecap:round;"/>
   </g>
   <g id="patch_29">
    <path clip-path="url(#padca3c9f54)" d="M 595.897462 236.223348 
Q 654.220057 279.543342 711.645117 322.196679 
" style="fill:none;stroke:#000000;stroke-linecap:round;"/>
    <path clip-path="url(#padca3c9f54)" d="M 709.626554 318.206014 
L 711.645117 322.196679 
L 707.241448 321.417131 
L 709.626554 318.206014 
z
" style="stroke:#000000;stroke-linecap:round;"/>
   </g>
   <g id="patch_30">
    <path clip-path="url(#padca3c9f54)" d="M 262.38137 284.171604 
Q 304.293233 285.65808 345.087765 287.104928 
" style="fill:none;stroke:#000000;stroke-linecap:round;"/>
    <path clip-path="url(#padca3c9f54)" d="M 341.161167 284.964407 
L 345.087765 287.104928 
L 341.019389 288.961893 
L 341.161167 284.964407 
z
" style="stroke:#000000;stroke-linecap:round;"/>
   </g>
   <g id="patch_31">
    <path clip-path="url(#padca3c9f54)" d="M 261.899682 281.012991 
Q 294.524169 269.634245 326.092989 258.623695 
" style="fill:none;stroke:#000000;stroke-linecap:round;"/>
    <path clip-path="url(#padca3c9f54)" d="M 321.657473 258.052554 
L 326.092989 258.623695 
L 322.974767 261.829423 
L 321.657473 258.052554 
z
" style="stroke:#000000;stroke-linecap:round;"/>
   </g>
   <g id="patch_32">
    <path clip-path="url(#padca3c9f54)" d="M 406.668617 164.334791 
Q 347.041667 154.24018 288.517066 144.332192 
" style="fill:none;stroke:#000000;stroke-linecap:round;"/>
    <path clip-path="url(#padca3c9f54)" d="M 292.127105 146.971816 
L 288.517066 144.332192 
L 292.794789 143.027935 
L 292.127105 146.971816 
z
" style="stroke:#000000;stroke-linecap:round;"/>
   </g>
   <g id="patch_33">
    <path clip-path="url(#padca3c9f54)" d="M 363.49549 126.734834 
Q 385.898142 143.64945 407.408525 159.890378 
" style="fill:none;stroke:#000000;stroke-linecap:round;"/>
    <path clip-path="url(#padca3c9f54)" d="M 405.421375 155.883979 
L 407.408525 159.890378 
L 403.011116 159.076259 
L 405.421375 155.883979 
z
" style="stroke:#000000;stroke-linecap:round;"/>
   </g>
   <g id="patch_34">
    <path clip-path="url(#padca3c9f54)" d="M 445.218517 323.175902 
Q 383.744338 365.962758 323.187804 408.110921 
" style="fill:none;stroke:#000000;stroke-linecap:round;"/>
    <path clip-path="url(#padca3c9f54)" d="M 327.613397 407.467396 
L 323.187804 408.110921 
L 325.32834 404.184331 
L 327.613397 407.467396 
z
" style="stroke:#000000;stroke-linecap:round;"/>
   </g>
   <g id="patch_35">
    <path clip-path="url(#padca3c9f54)" d="M 455.854825 310.318316 
Q 483.34125 248.671755 510.372382 188.046326 
" style="fill:none;stroke:#000000;stroke-linecap:round;"/>
    <path clip-path="url(#padca3c9f54)" d="M 506.916822 190.885182 
L 510.372382 188.046326 
L 510.570131 192.514087 
L 506.916822 190.885182 
z
" style="stroke:#000000;stroke-linecap:round;"/>
   </g>
   <g id="patch_36">
    <path clip-path="url(#padca3c9f54)" d="M 444.839881 313.880521 
Q 427.838764 304.012107 411.80459 294.70496 
" style="fill:none;stroke:#000000;stroke-linecap:round;"/>
    <path clip-path="url(#padca3c9f54)" d="M 414.260001 298.442735 
L 411.80459 294.70496 
L 416.268056 294.983296 
L 414.260001 298.442735 
z
" style="stroke:#000000;stroke-linecap:round;"/>
   </g>
   <g id="patch_37">
    <path clip-path="url(#padca3c9f54)" d="M 459.753965 322.684792 
Q 513.929562 355.205986 567.146577 387.151749 
" style="fill:none;stroke:#000000;stroke-linecap:round;"/>
    <path clip-path="url(#padca3c9f54)" d="M 564.746408 383.378265 
L 567.146577 387.151749 
L 562.687688 386.807794 
L 564.746408 383.378265 
z
" style="stroke:#000000;stroke-linecap:round;"/>
   </g>
   <g id="patch_38">
    <path clip-path="url(#padca3c9f54)" d="M 460.902871 319.440272 
Q 488.330871 323.320329 514.651859 327.043784 
" style="fill:none;stroke:#000000;stroke-linecap:round;"/>
    <path clip-path="url(#padca3c9f54)" d="M 510.971429 324.503226 
L 514.651859 327.043784 
L 510.411154 328.463793 
L 510.971429 324.503226 
z
" style="stroke:#000000;stroke-linecap:round;"/>
   </g>
   <g id="patch_39">
    <path clip-path="url(#padca3c9f54)" d="M 446.062366 312.252895 
Q 414.207086 281.880351 383.160982 252.27932 
" style="fill:none;stroke:#000000;stroke-linecap:round;"/>
    <path clip-path="url(#padca3c9f54)" d="M 384.675857 256.487069 
L 383.160982 252.27932 
L 387.436106 253.59207 
L 384.675857 256.487069 
z
" style="stroke:#000000;stroke-linecap:round;"/>
   </g>
   <g id="patch_40">
    <path clip-path="url(#padca3c9f54)" d="M 323.638929 411.929884 
Q 396.599594 396.718975 468.465758 381.736248 
" style="fill:none;stroke:#000000;stroke-linecap:round;"/>
    <path clip-path="url(#padca3c9f54)" d="M 464.141766 380.594716 
L 468.465758 381.736248 
L 464.958137 384.510523 
L 464.141766 380.594716 
z
" style="stroke:#000000;stroke-linecap:round;"/>
   </g>
   <g id="patch_41">
    <path clip-path="url(#padca3c9f54)" d="M 200.445022 259.631484 
Q 241.69151 225.917517 282.072347 192.911115 
" style="fill:none;stroke:#000000;stroke-linecap:round;"/>
    <path clip-path="url(#padca3c9f54)" d="M 277.709568 193.89405 
L 282.072347 192.911115 
L 280.241028 196.991099 
L 277.709568 193.89405 
z
" style="stroke:#000000;stroke-linecap:round;"/>
   </g>
   <g id="patch_42">
    <path clip-path="url(#padca3c9f54)" d="M 254.63115 403.985509 
Q 297.223144 436.444914 338.925902 468.226631 
" style="fill:none;stroke:#000000;stroke-linecap:round;"/>
    <path clip-path="url(#padca3c9f54)" d="M 336.95676 464.21135 
L 338.925902 468.226631 
L 334.532192 467.392776 
L 336.95676 464.21135 
z
" style="stroke:#000000;stroke-linecap:round;"/>
   </g>
   <g id="patch_43">
    <path clip-path="url(#padca3c9f54)" d="M 244.49756 390.706361 
Q 220.741317 331.924117 197.403998 274.178455 
" style="fill:none;stroke:#000000;stroke-linecap:round;"/>
    <path clip-path="url(#padca3c9f54)" d="M 197.048492 278.636438 
L 197.403998 274.178455 
L 200.757081 277.13765 
L 197.048492 278.636438 
z
" style="stroke:#000000;stroke-linecap:round;"/>
   </g>
   <g id="patch_44">
    <path clip-path="url(#padca3c9f54)" d="M 338.405199 471.663508 
Q 284.031472 455.350015 230.728619 439.357812 
" style="fill:none;stroke:#000000;stroke-linecap:round;"/>
    <path clip-path="url(#padca3c9f54)" d="M 233.985157 442.422932 
L 230.728619 439.357812 
L 235.134638 438.591653 
L 233.985157 442.422932 
z
" style="stroke:#000000;stroke-linecap:round;"/>
   </g>
   <g id="patch_45">
    <path clip-path="url(#padca3c9f54)" d="M 304.597308 412.765628 
Q 323.199241 439.886631 341.168787 466.085634 
" style="fill:none;stroke:#000000;stroke-linecap:round;"/>
    <path clip-path="url(#padca3c9f54)" d="M 340.555612 461.655734 
L 341.168787 466.085634 
L 337.256962 463.918234 
L 340.555612 461.655734 
z
" style="stroke:#000000;stroke-linecap:round;"/>
   </g>
   <g id="patch_46">
    <path clip-path="url(#padca3c9f54)" d="M 297.283848 190.800176 
Q 362.116034 225.388911 425.961793 259.451375 
" style="fill:none;stroke:#000000;stroke-linecap:round;"/>
    <path clip-path="url(#padca3c9f54)" d="M 423.374064 255.803956 
L 425.961793 259.451375 
L 421.491221 259.333107 
L 423.374064 255.803956 
z
" style="stroke:#000000;stroke-linecap:round;"/>
   </g>
   <g id="patch_47">
    <path clip-path="url(#padca3c9f54)" d="M 281.902614 190.606881 
Q 227.87552 217.714668 174.847728 244.321062 
" style="fill:none;stroke:#000000;stroke-linecap:round;"/>
    <path clip-path="url(#padca3c9f54)" d="M 179.319859 244.314825 
L 174.847728 244.321062 
L 177.526018 240.739615 
L 179.319859 244.314825 
z
" style="stroke:#000000;stroke-linecap:round;"/>
   </g>
   <g id="patch_48">
    <path clip-path="url(#padca3c9f54)" d="M 296.547113 181.501012 
Q 341.94088 147.166627 386.442954 113.506691 
" style="fill:none;stroke:#000000;stroke-linecap:round;"/>
    <path clip-path="url(#padca3c9f54)" d="M 382.04624 114.324561 
L 386.442954 113.506691 
L 384.459222 117.514784 
L 382.04624 114.324561 
z
" style="stroke:#000000;stroke-linecap:round;"/>
   </g>
   <g id="patch_49">
    <path clip-path="url(#padca3c9f54)" d="M 373.07942 391.273621 
Q 384.092069 356.060228 394.771003 321.913904 
" style="fill:none;stroke:#000000;stroke-linecap:round;"/>
    <path clip-path="url(#padca3c9f54)" d="M 391.668238 325.134595 
L 394.771003 321.913904 
L 395.485897 326.328531 
L 391.668238 325.134595 
z
" style="stroke:#000000;stroke-linecap:round;"/>
   </g>
   <g id="patch_50">
    <path clip-path="url(#padca3c9f54)" d="M 363.169784 285.013007 
Q 394.722068 275.752794 425.201565 266.807432 
" style="fill:none;stroke:#000000;stroke-linecap:round;"/>
    <path clip-path="url(#padca3c9f54)" d="M 420.800229 266.014814 
L 425.201565 266.807432 
L 421.926669 269.85293 
L 420.800229 266.014814 
z
" style="stroke:#000000;stroke-linecap:round;"/>
   </g>
   <g id="patch_51">
    <path clip-path="url(#padca3c9f54)" d="M 362.804438 283.994821 
Q 398.551138 268.439113 433.272666 253.329524 
" style="fill:none;stroke:#000000;stroke-linecap:round;"/>
    <path clip-path="url(#padca3c9f54)" d="M 428.806857 253.091723 
L 433.272666 253.329524 
L 430.402941 256.759491 
L 428.806857 253.091723 
z
" style="stroke:#000000;stroke-linecap:round;"/>
   </g>
   <g id="patch_52">
    <path clip-path="url(#padca3c9f54)" d="M 343.398234 190.604023 
Q 341.29058 192.326258 340.048682 193.341055 
" style="fill:none;stroke:#000000;stroke-linecap:round;"/>
    <path clip-path="url(#padca3c9f54)" d="M 344.411604 192.358759 
L 340.048682 193.341055 
L 341.880598 189.261339 
L 344.411604 192.358759 
z
" style="stroke:#000000;stroke-linecap:round;"/>
   </g>
   <g id="patch_53">
    <path clip-path="url(#padca3c9f54)" d="M 344.055356 191.32159 
Q 301.915081 234.493525 260.555758 276.865389 
" style="fill:none;stroke:#000000;stroke-linecap:round;"/>
    <path clip-path="url(#padca3c9f54)" d="M 264.780988 275.399977 
L 260.555758 276.865389 
L 261.918567 272.605958 
L 264.780988 275.399977 
z
" style="stroke:#000000;stroke-linecap:round;"/>
   </g>
   <g id="patch_54">
    <path clip-path="url(#padca3c9f54)" d="M 350.983383 176.508652 
Q 353.345842 153.321249 355.594976 131.246121 
" style="fill:none;stroke:#000000;stroke-linecap:round;"/>
    <path clip-path="url(#padca3c9f54)" d="M 353.199834 135.022799 
L 355.594976 131.246121 
L 357.179233 135.428242 
L 353.199834 135.022799 
z
" style="stroke:#000000;stroke-linecap:round;"/>
   </g>
   <g id="patch_55">
    <path clip-path="url(#padca3c9f54)" d="M 348.324294 193.594954 
Q 342.717232 220.260529 337.340232 245.831996 
" style="fill:none;stroke:#000000;stroke-linecap:round;"/>
    <path clip-path="url(#padca3c9f54)" d="M 340.120526 242.329145 
L 337.340232 245.831996 
L 336.206127 241.506051 
L 340.120526 242.329145 
z
" style="stroke:#000000;stroke-linecap:round;"/>
   </g>
   <g id="patch_56">
    <path clip-path="url(#padca3c9f54)" d="M 323.822558 199.770368 
Q 314.796927 200.02329 306.888892 200.244894 
" style="fill:none;stroke:#000000;stroke-linecap:round;"/>
    <path clip-path="url(#padca3c9f54)" d="M 310.943346 202.132063 
L 306.888892 200.244894 
L 310.831299 198.133632 
L 310.943346 202.132063 
z
" style="stroke:#000000;stroke-linecap:round;"/>
   </g>
   <g id="patch_57">
    <path clip-path="url(#padca3c9f54)" d="M 326.567484 205.856693 
Q 293.101162 241.6956 260.397898 276.717351 
" style="fill:none;stroke:#000000;stroke-linecap:round;"/>
    <path clip-path="url(#padca3c9f54)" d="M 264.589669 275.158809 
L 260.397898 276.717351 
L 261.666126 272.428809 
L 264.589669 275.158809 
z
" style="stroke:#000000;stroke-linecap:round;"/>
   </g>
   <g id="patch_58">
    <path clip-path="url(#padca3c9f54)" d="M 335.033326 191.257392 
Q 344.531737 160.522971 353.700028 130.856736 
" style="fill:none;stroke:#000000;stroke-linecap:round;"/>
    <path clip-path="url(#padca3c9f54)" d="M 350.608124 134.087855 
L 353.700028 130.856736 
L 354.429781 135.26893 
L 350.608124 134.087855 
z
" style="stroke:#000000;stroke-linecap:round;"/>
   </g>
   <g id="patch_59">
    <path clip-path="url(#padca3c9f54)" d="M 332.918733 208.179862 
Q 333.902614 227.466502 334.829535 245.63656 
" style="fill:none;stroke:#000000;stroke-linecap:round;"/>
    <path clip-path="url(#padca3c9f54)" d="M 336.623148 241.53986 
L 334.829535 245.63656 
L 332.628343 241.743649 
L 336.623148 241.53986 
z
" style="stroke:#000000;stroke-linecap:round;"/>
   </g>
   <g id="patch_60">
    <path clip-path="url(#padca3c9f54)" d="M 293.115239 208.202714 
Q 275.419289 242.192584 258.239633 275.190769 
" style="fill:none;stroke:#000000;stroke-linecap:round;"/>
    <path clip-path="url(#padca3c9f54)" d="M 261.860768 272.566386 
L 258.239633 275.190769 
L 258.312807 270.719232 
L 261.860768 272.566386 
z
" style="stroke:#000000;stroke-linecap:round;"/>
   </g>
   <g id="patch_61">
    <path clip-path="url(#padca3c9f54)" d="M 302.322619 193.601866 
Q 326.850325 161.019191 350.705621 129.329748 
" style="fill:none;stroke:#000000;stroke-linecap:round;"/>
    <path clip-path="url(#padca3c9f54)" d="M 346.702069 131.322628 
L 350.705621 129.329748 
L 349.897794 133.728318 
L 346.702069 131.322628 
z
" style="stroke:#000000;stroke-linecap:round;"/>
   </g>
   <g id="patch_62">
    <path clip-path="url(#padca3c9f54)" d="M 302.062453 207.62381 
Q 316.221115 227.959919 329.740949 247.378478 
" style="fill:none;stroke:#000000;stroke-linecap:round;"/>
    <path clip-path="url(#padca3c9f54)" d="M 329.096771 242.952979 
L 329.740949 247.378478 
L 325.814043 245.238521 
L 329.096771 242.952979 
z
" style="stroke:#000000;stroke-linecap:round;"/>
   </g>
   <g id="patch_63">
    <path clip-path="url(#padca3c9f54)" d="M 453.068663 246.279512 
Q 405.309091 217.912006 358.510775 190.115454 
" style="fill:none;stroke:#000000;stroke-linecap:round;"/>
    <path clip-path="url(#padca3c9f54)" d="M 360.928519 193.877702 
L 358.510775 190.115454 
L 362.97122 190.438607 
L 360.928519 193.877702 
z
" style="stroke:#000000;stroke-linecap:round;"/>
   </g>
   <g id="patch_64">
    <path clip-path="url(#padca3c9f54)" d="M 606.424493 316.107674 
Q 570.569768 324.82806 535.801407 333.284227 
" style="fill:none;stroke:#000000;stroke-linecap:round;"/>
    <path clip-path="url(#padca3c9f54)" d="M 540.160754 334.282274 
L 535.801407 333.284227 
L 539.215453 330.395578 
L 540.160754 334.282274 
z
" style="stroke:#000000;stroke-linecap:round;"/>
   </g>
   <g id="patch_65">
    <path clip-path="url(#padca3c9f54)" d="M 612.26262 305.795433 
Q 601.894078 272.562501 591.858527 240.396863 
" style="fill:none;stroke:#000000;stroke-linecap:round;"/>
    <path clip-path="url(#padca3c9f54)" d="M 591.14064 244.811004 
L 591.858527 240.396863 
L 594.959107 243.619657 
L 591.14064 244.811004 
z
" style="stroke:#000000;stroke-linecap:round;"/>
   </g>
   <g id="patch_66">
    <path clip-path="url(#padca3c9f54)" d="M 518.322719 193.577266 
Q 510.625208 210.994625 503.379639 227.389366 
" style="fill:none;stroke:#000000;stroke-linecap:round;"/>
    <path clip-path="url(#padca3c9f54)" d="M 506.825868 224.53919 
L 503.379639 227.389366 
L 503.167236 222.922277 
L 506.825868 224.53919 
z
" style="stroke:#000000;stroke-linecap:round;"/>
   </g>
   <g id="patch_67">
    <path clip-path="url(#padca3c9f54)" d="M 514.43756 181.13768 
Q 458.03566 146.633276 402.587482 112.712321 
" style="fill:none;stroke:#000000;stroke-linecap:round;"/>
    <path clip-path="url(#padca3c9f54)" d="M 404.955919 116.505803 
L 402.587482 112.712321 
L 407.04333 113.093661 
L 404.955919 116.505803 
z
" style="stroke:#000000;stroke-linecap:round;"/>
   </g>
   <g id="patch_68">
    <path clip-path="url(#padca3c9f54)" d="M 493.946464 229.624249 
Q 446.834512 171.968919 400.429996 115.179345 
" style="fill:none;stroke:#000000;stroke-linecap:round;"/>
    <path clip-path="url(#padca3c9f54)" d="M 401.412285 119.54227 
L 400.429996 115.179345 
L 404.509709 117.011269 
L 401.412285 119.54227 
z
" style="stroke:#000000;stroke-linecap:round;"/>
   </g>
   <g id="patch_69">
    <path clip-path="url(#padca3c9f54)" d="M 527.587156 207.992153 
Q 602.941498 212.783408 677.180059 217.503719 
" style="fill:none;stroke:#000000;stroke-linecap:round;"/>
    <path clip-path="url(#padca3c9f54)" d="M 673.315029 215.25393 
L 677.180059 217.503719 
L 673.06121 219.245869 
L 673.315029 215.25393 
z
" style="stroke:#000000;stroke-linecap:round;"/>
   </g>
   <g id="patch_70">
    <path clip-path="url(#padca3c9f54)" d="M 512.18349 202.02868 
Q 456.59457 157.525157 401.878439 113.720375 
" style="fill:none;stroke:#000000;stroke-linecap:round;"/>
    <path clip-path="url(#padca3c9f54)" d="M 403.751082 117.781558 
L 401.878439 113.720375 
L 406.250972 114.658971 
L 403.751082 117.781558 
z
" style="stroke:#000000;stroke-linecap:round;"/>
   </g>
   <g id="patch_71">
    <path clip-path="url(#padca3c9f54)" d="M 475.556364 168.860186 
Q 438.357461 140.838586 402.051573 113.489685 
" style="fill:none;stroke:#000000;stroke-linecap:round;"/>
    <path clip-path="url(#padca3c9f54)" d="M 404.043157 117.493882 
L 402.051573 113.489685 
L 406.449881 114.298937 
L 404.043157 117.493882 
z
" style="stroke:#000000;stroke-linecap:round;"/>
   </g>
   <g id="patch_72">
    <path clip-path="url(#padca3c9f54)" d="M 517.532203 187.175468 
Q 537.22554 237.09859 556.508609 285.981674 
" style="fill:none;stroke:#000000;stroke-linecap:round;"/>
    <path clip-path="url(#padca3c9f54)" d="M 556.90127 281.526809 
L 556.508609 285.981674 
L 553.180314 282.994627 
L 556.90127 281.526809 
z
" style="stroke:#000000;stroke-linecap:round;"/>
   </g>
   <g id="patch_73">
    <path clip-path="url(#padca3c9f54)" d="M 412.002889 290.08872 
Q 481.722786 292.438332 550.325284 294.750287 
" style="fill:none;stroke:#000000;stroke-linecap:round;"/>
    <path clip-path="url(#padca3c9f54)" d="M 546.394917 292.616695 
L 550.325284 294.750287 
L 546.26019 296.614426 
L 546.394917 292.616695 
z
" style="stroke:#000000;stroke-linecap:round;"/>
   </g>
   <g id="patch_74">
    <path clip-path="url(#padca3c9f54)" d="M 574.168794 383.628 
Q 567.812709 343.63017 561.632091 304.73652 
" style="fill:none;stroke:#000000;stroke-linecap:round;"/>
    <path clip-path="url(#padca3c9f54)" d="M 560.284641 309.000835 
L 561.632091 304.73652 
L 564.235072 308.373069 
L 560.284641 309.000835 
z
" style="stroke:#000000;stroke-linecap:round;"/>
   </g>
   <g id="patch_75">
    <path clip-path="url(#padca3c9f54)" d="M 530.671051 322.507236 
Q 542.217845 311.744776 552.946781 301.744619 
" style="fill:none;stroke:#000000;stroke-linecap:round;"/>
    <path clip-path="url(#padca3c9f54)" d="M 548.65707 303.008892 
L 552.946781 301.744619 
L 551.384373 305.934951 
L 548.65707 303.008892 
z
" style="stroke:#000000;stroke-linecap:round;"/>
   </g>
   <g id="patch_76">
    <path clip-path="url(#padca3c9f54)" d="M 384.448407 247.783895 
Q 468.090516 270.305582 550.653042 292.536578 
" style="fill:none;stroke:#000000;stroke-linecap:round;"/>
    <path clip-path="url(#padca3c9f54)" d="M 547.310614 289.565353 
L 550.653042 292.536578 
L 546.270605 293.427786 
L 547.310614 289.565353 
z
" style="stroke:#000000;stroke-linecap:round;"/>
   </g>
   <g id="patch_77">
    <path clip-path="url(#padca3c9f54)" d="M 339.836691 262.800774 
Q 345.09573 271.429449 349.772902 279.103434 
" style="fill:none;stroke:#000000;stroke-linecap:round;"/>
    <path clip-path="url(#padca3c9f54)" d="M 349.398949 274.646961 
L 349.772902 279.103434 
L 345.983351 276.728713 
L 349.398949 274.646961 
z
" style="stroke:#000000;stroke-linecap:round;"/>
   </g>
   <g id="PathCollection_1">
    <defs>
     <path d="M 0 8.660254 
C 2.296726 8.660254 4.499694 7.747755 6.123724 6.123724 
C 7.747755 4.499694 8.660254 2.296726 8.660254 -0 
C 8.660254 -2.296726 7.747755 -4.499694 6.123724 -6.123724 
C 4.499694 -7.747755 2.296726 -8.660254 0 -8.660254 
C -2.296726 -8.660254 -4.499694 -7.747755 -6.123724 -6.123724 
C -7.747755 -4.499694 -8.660254 -2.296726 -8.660254 0 
C -8.660254 2.296726 -7.747755 4.499694 -6.123724 6.123724 
C -4.499694 7.747755 -2.296726 8.660254 0 8.660254 
z
" id="C0_0_04f6b90e73"/>
    </defs>
    <g clip-path="url(#padca3c9f54)">
     <use style="fill:#008000;stroke:#008000;" x="526.301218" xlink:href="#C0_0_04f6b90e73" y="335.594809"/>
    </g>
    <g clip-path="url(#padca3c9f54)">
     <use style="fill:#ff0000;stroke:#ff0000;" x="603.122049" xlink:href="#C0_0_04f6b90e73" y="352.700738"/>
    </g>
    <g clip-path="url(#padca3c9f54)">
     <use style="fill:#ff0000;stroke:#ff0000;" x="397.688994" xlink:href="#C0_0_04f6b90e73" y="312.58351"/>
    </g>
    <g clip-path="url(#padca3c9f54)">
     <use style="fill:#ff0000;stroke:#ff0000;" x="667.430971" xlink:href="#C0_0_04f6b90e73" y="420.092942"/>
    </g>
    <g clip-path="url(#padca3c9f54)">
     <use style="fill:#ff0000;stroke:#ff0000;" x="644.515443" xlink:href="#C0_0_04f6b90e73" y="183.979832"/>
    </g>
    <g clip-path="url(#padca3c9f54)">
     <use style="fill:#ffd700;stroke:#ffd700;" x="434.586875" xlink:href="#C0_0_04f6b90e73" y="264.052957"/>
    </g>
    <g clip-path="url(#padca3c9f54)">
     <use style="fill:#ff0000;stroke:#ff0000;" x="560.097505" xlink:href="#C0_0_04f6b90e73" y="295.079618"/>
    </g>
    <g clip-path="url(#padca3c9f54)">
     <use style="fill:#ff0000;stroke:#ff0000;" x="478.03688" xlink:href="#C0_0_04f6b90e73" y="379.740852"/>
    </g>
    <g clip-path="url(#padca3c9f54)">
     <use style="fill:#ff0000;stroke:#ff0000;" x="442.236701" xlink:href="#C0_0_04f6b90e73" y="249.42869"/>
    </g>
    <g clip-path="url(#padca3c9f54)">
     <use style="fill:#ff0000;stroke:#ff0000;" x="588.945319" xlink:href="#C0_0_04f6b90e73" y="231.059538"/>
    </g>
    <g clip-path="url(#padca3c9f54)">
     <use style="fill:#008000;stroke:#008000;" x="166.105785" xlink:href="#C0_0_04f6b90e73" y="248.707282"/>
    </g>
    <g clip-path="url(#padca3c9f54)">
     <use style="fill:#ff0000;stroke:#ff0000;" x="717.423368" xlink:href="#C0_0_04f6b90e73" y="265.228599"/>
    </g>
    <g clip-path="url(#padca3c9f54)">
     <use style="fill:#ff0000;stroke:#ff0000;" x="253.723853" xlink:href="#C0_0_04f6b90e73" y="283.864551"/>
    </g>
    <g clip-path="url(#padca3c9f54)">
     <use style="fill:#ff0000;stroke:#ff0000;" x="278.877918" xlink:href="#C0_0_04f6b90e73" y="142.700322"/>
    </g>
    <g clip-path="url(#padca3c9f54)">
     <use style="fill:#ff0000;stroke:#ff0000;" x="415.210186" xlink:href="#C0_0_04f6b90e73" y="165.780845"/>
    </g>
    <g clip-path="url(#padca3c9f54)">
     <use style="fill:#ff0000;stroke:#ff0000;" x="356.586123" xlink:href="#C0_0_04f6b90e73" y="121.518073"/>
    </g>
    <g clip-path="url(#padca3c9f54)">
     <use style="fill:#ff0000;stroke:#ff0000;" x="452.328435" xlink:href="#C0_0_04f6b90e73" y="318.227304"/>
    </g>
    <g clip-path="url(#padca3c9f54)">
     <use style="fill:#ff0000;stroke:#ff0000;" x="315.161643" xlink:href="#C0_0_04f6b90e73" y="413.697237"/>
    </g>
    <g clip-path="url(#padca3c9f54)">
     <use style="fill:#ff0000;stroke:#ff0000;" x="193.739918" xlink:href="#C0_0_04f6b90e73" y="265.112087"/>
    </g>
    <g clip-path="url(#padca3c9f54)">
     <use style="fill:#ff0000;stroke:#ff0000;" x="247.742529" xlink:href="#C0_0_04f6b90e73" y="398.735684"/>
    </g>
    <g clip-path="url(#padca3c9f54)">
     <use style="fill:#ff0000;stroke:#ff0000;" x="346.701899" xlink:href="#C0_0_04f6b90e73" y="474.152727"/>
    </g>
    <g clip-path="url(#padca3c9f54)">
     <use style="fill:#ff0000;stroke:#ff0000;" x="221.360147" xlink:href="#C0_0_04f6b90e73" y="436.547034"/>
    </g>
    <g clip-path="url(#padca3c9f54)">
     <use style="fill:#008000;stroke:#008000;" x="299.698756" xlink:href="#C0_0_04f6b90e73" y="405.623702"/>
    </g>
    <g clip-path="url(#padca3c9f54)">
     <use style="fill:#ff0000;stroke:#ff0000;" x="289.64251" xlink:href="#C0_0_04f6b90e73" y="186.723432"/>
    </g>
    <g clip-path="url(#padca3c9f54)">
     <use style="fill:#ff0000;stroke:#ff0000;" x="370.494224" xlink:href="#C0_0_04f6b90e73" y="399.53989"/>
    </g>
    <g clip-path="url(#padca3c9f54)">
     <use style="fill:#ff0000;stroke:#ff0000;" x="354.860945" xlink:href="#C0_0_04f6b90e73" y="287.45155"/>
    </g>
    <g clip-path="url(#padca3c9f54)">
     <use style="fill:#ff0000;stroke:#ff0000;" x="350.105693" xlink:href="#C0_0_04f6b90e73" y="185.123131"/>
    </g>
    <g clip-path="url(#padca3c9f54)">
     <use style="fill:#ff0000;stroke:#ff0000;" x="332.477362" xlink:href="#C0_0_04f6b90e73" y="199.527837"/>
    </g>
    <g clip-path="url(#padca3c9f54)">
     <use style="fill:#ff0000;stroke:#ff0000;" x="297.115689" xlink:href="#C0_0_04f6b90e73" y="200.518766"/>
    </g>
    <g clip-path="url(#padca3c9f54)">
     <use style="fill:#ff0000;stroke:#ff0000;" x="460.511485" xlink:href="#C0_0_04f6b90e73" y="250.700286"/>
    </g>
    <g clip-path="url(#padca3c9f54)">
     <use style="fill:#ff0000;stroke:#ff0000;" x="591.027461" xlink:href="#C0_0_04f6b90e73" y="150.562769"/>
    </g>
    <g clip-path="url(#padca3c9f54)">
     <use style="fill:#ff0000;stroke:#ff0000;" x="719.494215" xlink:href="#C0_0_04f6b90e73" y="328.026715"/>
    </g>
    <g clip-path="url(#padca3c9f54)">
     <use style="fill:#008000;stroke:#008000;" x="705.282175" xlink:href="#C0_0_04f6b90e73" y="375.922098"/>
    </g>
    <g clip-path="url(#padca3c9f54)">
     <use style="fill:#ff0000;stroke:#ff0000;" x="614.841314" xlink:href="#C0_0_04f6b90e73" y="314.060582"/>
    </g>
    <g clip-path="url(#padca3c9f54)">
     <use style="fill:#008000;stroke:#008000;" x="521.82345" xlink:href="#C0_0_04f6b90e73" y="185.656069"/>
    </g>
    <g clip-path="url(#padca3c9f54)">
     <use style="fill:#ff0000;stroke:#ff0000;" x="499.427519" xlink:href="#C0_0_04f6b90e73" y="236.331932"/>
    </g>
    <g clip-path="url(#padca3c9f54)">
     <use style="fill:#ff0000;stroke:#ff0000;" x="686.937359" xlink:href="#C0_0_04f6b90e73" y="218.124118"/>
    </g>
    <g clip-path="url(#padca3c9f54)">
     <use style="fill:#ffd700;stroke:#ffd700;" x="518.946128" xlink:href="#C0_0_04f6b90e73" y="207.44273"/>
    </g>
    <g clip-path="url(#padca3c9f54)">
     <use style="fill:#ff0000;stroke:#ff0000;" x="482.473647" xlink:href="#C0_0_04f6b90e73" y="174.070913"/>
    </g>
    <g clip-path="url(#padca3c9f54)">
     <use style="fill:#ff0000;stroke:#ff0000;" x="514.353521" xlink:href="#C0_0_04f6b90e73" y="179.117426"/>
    </g>
    <g clip-path="url(#padca3c9f54)">
     <use style="fill:#ff0000;stroke:#ff0000;" x="403.349407" xlink:href="#C0_0_04f6b90e73" y="289.797092"/>
    </g>
    <g clip-path="url(#padca3c9f54)">
     <use style="fill:#ff0000;stroke:#ff0000;" x="575.528314" xlink:href="#C0_0_04f6b90e73" y="392.183241"/>
    </g>
    <g clip-path="url(#padca3c9f54)">
     <use style="fill:#ff0000;stroke:#ff0000;" x="524.334356" xlink:href="#C0_0_04f6b90e73" y="328.413503"/>
    </g>
    <g clip-path="url(#padca3c9f54)">
     <use style="fill:#ff0000;stroke:#ff0000;" x="376.083897" xlink:href="#C0_0_04f6b90e73" y="245.531645"/>
    </g>
    <g clip-path="url(#padca3c9f54)">
     <use style="fill:#ff0000;stroke:#ff0000;" x="335.327746" xlink:href="#C0_0_04f6b90e73" y="255.402803"/>
    </g>
    <g clip-path="url(#padca3c9f54)">
     <use style="fill:#ff0000;stroke:#ff0000;" x="394.242622" xlink:href="#C0_0_04f6b90e73" y="107.607273"/>
    </g>
   </g>
   <g id="text_1">
    <g clip-path="url(#padca3c9f54)">
     <!-- CLEC7A -->
     <g transform="translate(502.865593 338.906059)scale(0.12 -0.12)">
      <defs>
       <path d="M 64.40625 67.28125 
L 64.40625 56.890625 
Q 59.421875 61.53125 53.78125 63.8125 
Q 48.140625 66.109375 41.796875 66.109375 
Q 29.296875 66.109375 22.65625 58.46875 
Q 16.015625 50.828125 16.015625 36.375 
Q 16.015625 21.96875 22.65625 14.328125 
Q 29.296875 6.6875 41.796875 6.6875 
Q 48.140625 6.6875 53.78125 8.984375 
Q 59.421875 11.28125 64.40625 15.921875 
L 64.40625 5.609375 
Q 59.234375 2.09375 53.4375 0.328125 
Q 47.65625 -1.421875 41.21875 -1.421875 
Q 24.65625 -1.421875 15.125 8.703125 
Q 5.609375 18.84375 5.609375 36.375 
Q 5.609375 53.953125 15.125 64.078125 
Q 24.65625 74.21875 41.21875 74.21875 
Q 47.75 74.21875 53.53125 72.484375 
Q 59.328125 70.75 64.40625 67.28125 
z
" id="DejaVuSans-67"/>
       <path d="M 9.8125 72.90625 
L 19.671875 72.90625 
L 19.671875 8.296875 
L 55.171875 8.296875 
L 55.171875 0 
L 9.8125 0 
z
" id="DejaVuSans-76"/>
       <path d="M 9.8125 72.90625 
L 55.90625 72.90625 
L 55.90625 64.59375 
L 19.671875 64.59375 
L 19.671875 43.015625 
L 54.390625 43.015625 
L 54.390625 34.71875 
L 19.671875 34.71875 
L 19.671875 8.296875 
L 56.78125 8.296875 
L 56.78125 0 
L 9.8125 0 
z
" id="DejaVuSans-69"/>
       <path d="M 8.203125 72.90625 
L 55.078125 72.90625 
L 55.078125 68.703125 
L 28.609375 0 
L 18.3125 0 
L 43.21875 64.59375 
L 8.203125 64.59375 
z
" id="DejaVuSans-55"/>
       <path d="M 34.1875 63.1875 
L 20.796875 26.90625 
L 47.609375 26.90625 
z
M 28.609375 72.90625 
L 39.796875 72.90625 
L 67.578125 0 
L 57.328125 0 
L 50.6875 18.703125 
L 17.828125 18.703125 
L 11.1875 0 
L 0.78125 0 
z
" id="DejaVuSans-65"/>
      </defs>
      <use xlink:href="#DejaVuSans-67"/>
      <use x="69.824219" xlink:href="#DejaVuSans-76"/>
      <use x="125.537109" xlink:href="#DejaVuSans-69"/>
      <use x="188.720703" xlink:href="#DejaVuSans-67"/>
      <use x="258.544922" xlink:href="#DejaVuSans-55"/>
      <use x="322.167969" xlink:href="#DejaVuSans-65"/>
     </g>
    </g>
   </g>
   <g id="text_2">
    <g clip-path="url(#padca3c9f54)">
     <!-- FCER1G -->
     <g transform="translate(579.054549 356.011988)scale(0.12 -0.12)">
      <defs>
       <path d="M 9.8125 72.90625 
L 51.703125 72.90625 
L 51.703125 64.59375 
L 19.671875 64.59375 
L 19.671875 43.109375 
L 48.578125 43.109375 
L 48.578125 34.8125 
L 19.671875 34.8125 
L 19.671875 0 
L 9.8125 0 
z
" id="DejaVuSans-70"/>
       <path d="M 44.390625 34.1875 
Q 47.5625 33.109375 50.5625 29.59375 
Q 53.5625 26.078125 56.59375 19.921875 
L 66.609375 0 
L 56 0 
L 46.6875 18.703125 
Q 43.0625 26.03125 39.671875 28.421875 
Q 36.28125 30.8125 30.421875 30.8125 
L 19.671875 30.8125 
L 19.671875 0 
L 9.8125 0 
L 9.8125 72.90625 
L 32.078125 72.90625 
Q 44.578125 72.90625 50.734375 67.671875 
Q 56.890625 62.453125 56.890625 51.90625 
Q 56.890625 45.015625 53.6875 40.46875 
Q 50.484375 35.9375 44.390625 34.1875 
z
M 19.671875 64.796875 
L 19.671875 38.921875 
L 32.078125 38.921875 
Q 39.203125 38.921875 42.84375 42.21875 
Q 46.484375 45.515625 46.484375 51.90625 
Q 46.484375 58.296875 42.84375 61.546875 
Q 39.203125 64.796875 32.078125 64.796875 
z
" id="DejaVuSans-82"/>
       <path d="M 12.40625 8.296875 
L 28.515625 8.296875 
L 28.515625 63.921875 
L 10.984375 60.40625 
L 10.984375 69.390625 
L 28.421875 72.90625 
L 38.28125 72.90625 
L 38.28125 8.296875 
L 54.390625 8.296875 
L 54.390625 0 
L 12.40625 0 
z
" id="DejaVuSans-49"/>
       <path d="M 59.515625 10.40625 
L 59.515625 29.984375 
L 43.40625 29.984375 
L 43.40625 38.09375 
L 69.28125 38.09375 
L 69.28125 6.78125 
Q 63.578125 2.734375 56.6875 0.65625 
Q 49.8125 -1.421875 42 -1.421875 
Q 24.90625 -1.421875 15.25 8.5625 
Q 5.609375 18.5625 5.609375 36.375 
Q 5.609375 54.25 15.25 64.234375 
Q 24.90625 74.21875 42 74.21875 
Q 49.125 74.21875 55.546875 72.453125 
Q 61.96875 70.703125 67.390625 67.28125 
L 67.390625 56.78125 
Q 61.921875 61.421875 55.765625 63.765625 
Q 49.609375 66.109375 42.828125 66.109375 
Q 29.4375 66.109375 22.71875 58.640625 
Q 16.015625 51.171875 16.015625 36.375 
Q 16.015625 21.625 22.71875 14.15625 
Q 29.4375 6.6875 42.828125 6.6875 
Q 48.046875 6.6875 52.140625 7.59375 
Q 56.25 8.5 59.515625 10.40625 
z
" id="DejaVuSans-71"/>
      </defs>
      <use xlink:href="#DejaVuSans-70"/>
      <use x="57.519531" xlink:href="#DejaVuSans-67"/>
      <use x="127.34375" xlink:href="#DejaVuSans-69"/>
      <use x="190.527344" xlink:href="#DejaVuSans-82"/>
      <use x="260.009766" xlink:href="#DejaVuSans-49"/>
      <use x="323.632812" xlink:href="#DejaVuSans-71"/>
     </g>
    </g>
   </g>
   <g id="text_3">
    <g clip-path="url(#padca3c9f54)">
     <!-- LSP1 -->
     <g transform="translate(383.101494 315.89476)scale(0.12 -0.12)">
      <defs>
       <path d="M 53.515625 70.515625 
L 53.515625 60.890625 
Q 47.90625 63.578125 42.921875 64.890625 
Q 37.9375 66.21875 33.296875 66.21875 
Q 25.25 66.21875 20.875 63.09375 
Q 16.5 59.96875 16.5 54.203125 
Q 16.5 49.359375 19.40625 46.890625 
Q 22.3125 44.4375 30.421875 42.921875 
L 36.375 41.703125 
Q 47.40625 39.59375 52.65625 34.296875 
Q 57.90625 29 57.90625 20.125 
Q 57.90625 9.515625 50.796875 4.046875 
Q 43.703125 -1.421875 29.984375 -1.421875 
Q 24.8125 -1.421875 18.96875 -0.25 
Q 13.140625 0.921875 6.890625 3.21875 
L 6.890625 13.375 
Q 12.890625 10.015625 18.65625 8.296875 
Q 24.421875 6.59375 29.984375 6.59375 
Q 38.421875 6.59375 43.015625 9.90625 
Q 47.609375 13.234375 47.609375 19.390625 
Q 47.609375 24.75 44.3125 27.78125 
Q 41.015625 30.8125 33.5 32.328125 
L 27.484375 33.5 
Q 16.453125 35.6875 11.515625 40.375 
Q 6.59375 45.0625 6.59375 53.421875 
Q 6.59375 63.09375 13.40625 68.65625 
Q 20.21875 74.21875 32.171875 74.21875 
Q 37.3125 74.21875 42.625 73.28125 
Q 47.953125 72.359375 53.515625 70.515625 
z
" id="DejaVuSans-83"/>
       <path d="M 19.671875 64.796875 
L 19.671875 37.40625 
L 32.078125 37.40625 
Q 38.96875 37.40625 42.71875 40.96875 
Q 46.484375 44.53125 46.484375 51.125 
Q 46.484375 57.671875 42.71875 61.234375 
Q 38.96875 64.796875 32.078125 64.796875 
z
M 9.8125 72.90625 
L 32.078125 72.90625 
Q 44.34375 72.90625 50.609375 67.359375 
Q 56.890625 61.8125 56.890625 51.125 
Q 56.890625 40.328125 50.609375 34.8125 
Q 44.34375 29.296875 32.078125 29.296875 
L 19.671875 29.296875 
L 19.671875 0 
L 9.8125 0 
z
" id="DejaVuSans-80"/>
      </defs>
      <use xlink:href="#DejaVuSans-76"/>
      <use x="55.712891" xlink:href="#DejaVuSans-83"/>
      <use x="119.189453" xlink:href="#DejaVuSans-80"/>
      <use x="179.492188" xlink:href="#DejaVuSans-49"/>
     </g>
    </g>
   </g>
   <g id="text_4">
    <g clip-path="url(#padca3c9f54)">
     <!-- KSR1 -->
     <g transform="translate(651.700658 423.404192)scale(0.12 -0.12)">
      <defs>
       <path d="M 9.8125 72.90625 
L 19.671875 72.90625 
L 19.671875 42.09375 
L 52.390625 72.90625 
L 65.09375 72.90625 
L 28.90625 38.921875 
L 67.671875 0 
L 54.6875 0 
L 19.671875 35.109375 
L 19.671875 0 
L 9.8125 0 
z
" id="DejaVuSans-75"/>
      </defs>
      <use xlink:href="#DejaVuSans-75"/>
      <use x="65.576172" xlink:href="#DejaVuSans-83"/>
      <use x="129.052734" xlink:href="#DejaVuSans-82"/>
      <use x="198.535156" xlink:href="#DejaVuSans-49"/>
     </g>
    </g>
   </g>
   <g id="text_5">
    <g clip-path="url(#padca3c9f54)">
     <!-- PLK3 -->
     <g transform="translate(629.802318 187.291082)scale(0.12 -0.12)">
      <defs>
       <path d="M 40.578125 39.3125 
Q 47.65625 37.796875 51.625 33 
Q 55.609375 28.21875 55.609375 21.1875 
Q 55.609375 10.40625 48.1875 4.484375 
Q 40.765625 -1.421875 27.09375 -1.421875 
Q 22.515625 -1.421875 17.65625 -0.515625 
Q 12.796875 0.390625 7.625 2.203125 
L 7.625 11.71875 
Q 11.71875 9.328125 16.59375 8.109375 
Q 21.484375 6.890625 26.8125 6.890625 
Q 36.078125 6.890625 40.9375 10.546875 
Q 45.796875 14.203125 45.796875 21.1875 
Q 45.796875 27.640625 41.28125 31.265625 
Q 36.765625 34.90625 28.71875 34.90625 
L 20.21875 34.90625 
L 20.21875 43.015625 
L 29.109375 43.015625 
Q 36.375 43.015625 40.234375 45.921875 
Q 44.09375 48.828125 44.09375 54.296875 
Q 44.09375 59.90625 40.109375 62.90625 
Q 36.140625 65.921875 28.71875 65.921875 
Q 24.65625 65.921875 20.015625 65.03125 
Q 15.375 64.15625 9.8125 62.3125 
L 9.8125 71.09375 
Q 15.4375 72.65625 20.34375 73.4375 
Q 25.25 74.21875 29.59375 74.21875 
Q 40.828125 74.21875 47.359375 69.109375 
Q 53.90625 64.015625 53.90625 55.328125 
Q 53.90625 49.265625 50.4375 45.09375 
Q 46.96875 40.921875 40.578125 39.3125 
z
" id="DejaVuSans-51"/>
      </defs>
      <use xlink:href="#DejaVuSans-80"/>
      <use x="60.302734" xlink:href="#DejaVuSans-76"/>
      <use x="116.015625" xlink:href="#DejaVuSans-75"/>
      <use x="181.591797" xlink:href="#DejaVuSans-51"/>
     </g>
    </g>
   </g>
   <g id="text_6">
    <g clip-path="url(#padca3c9f54)">
     <!-- NFKB1 -->
     <g transform="translate(414.778437 267.364207)scale(0.12 -0.12)">
      <defs>
       <path d="M 9.8125 72.90625 
L 23.09375 72.90625 
L 55.421875 11.921875 
L 55.421875 72.90625 
L 64.984375 72.90625 
L 64.984375 0 
L 51.703125 0 
L 19.390625 60.984375 
L 19.390625 0 
L 9.8125 0 
z
" id="DejaVuSans-78"/>
       <path d="M 19.671875 34.8125 
L 19.671875 8.109375 
L 35.5 8.109375 
Q 43.453125 8.109375 47.28125 11.40625 
Q 51.125 14.703125 51.125 21.484375 
Q 51.125 28.328125 47.28125 31.5625 
Q 43.453125 34.8125 35.5 34.8125 
z
M 19.671875 64.796875 
L 19.671875 42.828125 
L 34.28125 42.828125 
Q 41.5 42.828125 45.03125 45.53125 
Q 48.578125 48.25 48.578125 53.8125 
Q 48.578125 59.328125 45.03125 62.0625 
Q 41.5 64.796875 34.28125 64.796875 
z
M 9.8125 72.90625 
L 35.015625 72.90625 
Q 46.296875 72.90625 52.390625 68.21875 
Q 58.5 63.53125 58.5 54.890625 
Q 58.5 48.1875 55.375 44.234375 
Q 52.25 40.28125 46.1875 39.3125 
Q 53.46875 37.75 57.5 32.78125 
Q 61.53125 27.828125 61.53125 20.40625 
Q 61.53125 10.640625 54.890625 5.3125 
Q 48.25 0 35.984375 0 
L 9.8125 0 
z
" id="DejaVuSans-66"/>
      </defs>
      <use xlink:href="#DejaVuSans-78"/>
      <use x="74.804688" xlink:href="#DejaVuSans-70"/>
      <use x="132.324219" xlink:href="#DejaVuSans-75"/>
      <use x="197.900391" xlink:href="#DejaVuSans-66"/>
      <use x="266.503906" xlink:href="#DejaVuSans-49"/>
     </g>
    </g>
   </g>
   <g id="text_7">
    <g clip-path="url(#padca3c9f54)">
     <!-- RAF1 -->
     <g transform="translate(544.79563 298.390868)scale(0.12 -0.12)">
      <use xlink:href="#DejaVuSans-82"/>
      <use x="65.482422" xlink:href="#DejaVuSans-65"/>
      <use x="133.890625" xlink:href="#DejaVuSans-70"/>
      <use x="191.410156" xlink:href="#DejaVuSans-49"/>
     </g>
    </g>
   </g>
   <g id="text_8">
    <g clip-path="url(#padca3c9f54)">
     <!-- PAK1 -->
     <g transform="translate(462.945005 383.052102)scale(0.12 -0.12)">
      <use xlink:href="#DejaVuSans-80"/>
      <use x="53.927734" xlink:href="#DejaVuSans-65"/>
      <use x="122.335938" xlink:href="#DejaVuSans-75"/>
      <use x="187.912109" xlink:href="#DejaVuSans-49"/>
     </g>
    </g>
   </g>
   <g id="text_9">
    <g clip-path="url(#padca3c9f54)">
     <!-- RELA -->
     <g transform="translate(426.693889 252.73994)scale(0.12 -0.12)">
      <use xlink:href="#DejaVuSans-82"/>
      <use x="69.482422" xlink:href="#DejaVuSans-69"/>
      <use x="132.666016" xlink:href="#DejaVuSans-76"/>
      <use x="190.628906" xlink:href="#DejaVuSans-65"/>
     </g>
    </g>
   </g>
   <g id="text_10">
    <g clip-path="url(#padca3c9f54)">
     <!-- SYK -->
     <g transform="translate(577.536881 234.370788)scale(0.12 -0.12)">
      <defs>
       <path d="M -0.203125 72.90625 
L 10.40625 72.90625 
L 30.609375 42.921875 
L 50.6875 72.90625 
L 61.28125 72.90625 
L 35.5 34.71875 
L 35.5 0 
L 25.59375 0 
L 25.59375 34.71875 
z
" id="DejaVuSans-89"/>
      </defs>
      <use xlink:href="#DejaVuSans-83"/>
      <use x="63.476562" xlink:href="#DejaVuSans-89"/>
      <use x="124.560547" xlink:href="#DejaVuSans-75"/>
     </g>
    </g>
   </g>
   <g id="text_11">
    <g clip-path="url(#padca3c9f54)">
     <!-- IL23A -->
     <g transform="translate(149.253285 252.018532)scale(0.12 -0.12)">
      <defs>
       <path d="M 9.8125 72.90625 
L 19.671875 72.90625 
L 19.671875 0 
L 9.8125 0 
z
" id="DejaVuSans-73"/>
       <path d="M 19.1875 8.296875 
L 53.609375 8.296875 
L 53.609375 0 
L 7.328125 0 
L 7.328125 8.296875 
Q 12.9375 14.109375 22.625 23.890625 
Q 32.328125 33.6875 34.8125 36.53125 
Q 39.546875 41.84375 41.421875 45.53125 
Q 43.3125 49.21875 43.3125 52.78125 
Q 43.3125 58.59375 39.234375 62.25 
Q 35.15625 65.921875 28.609375 65.921875 
Q 23.96875 65.921875 18.8125 64.3125 
Q 13.671875 62.703125 7.8125 59.421875 
L 7.8125 69.390625 
Q 13.765625 71.78125 18.9375 73 
Q 24.125 74.21875 28.421875 74.21875 
Q 39.75 74.21875 46.484375 68.546875 
Q 53.21875 62.890625 53.21875 53.421875 
Q 53.21875 48.921875 51.53125 44.890625 
Q 49.859375 40.875 45.40625 35.40625 
Q 44.1875 33.984375 37.640625 27.21875 
Q 31.109375 20.453125 19.1875 8.296875 
z
" id="DejaVuSans-50"/>
      </defs>
      <use xlink:href="#DejaVuSans-73"/>
      <use x="29.492188" xlink:href="#DejaVuSans-76"/>
      <use x="85.205078" xlink:href="#DejaVuSans-50"/>
      <use x="148.828125" xlink:href="#DejaVuSans-51"/>
      <use x="212.451172" xlink:href="#DejaVuSans-65"/>
     </g>
    </g>
   </g>
   <g id="text_12">
    <g clip-path="url(#padca3c9f54)">
     <!-- PTPN11 -->
     <g transform="translate(694.399306 268.539849)scale(0.12 -0.12)">
      <defs>
       <path d="M -0.296875 72.90625 
L 61.375 72.90625 
L 61.375 64.59375 
L 35.5 64.59375 
L 35.5 0 
L 25.59375 0 
L 25.59375 64.59375 
L -0.296875 64.59375 
z
" id="DejaVuSans-84"/>
      </defs>
      <use xlink:href="#DejaVuSans-80"/>
      <use x="60.302734" xlink:href="#DejaVuSans-84"/>
      <use x="121.386719" xlink:href="#DejaVuSans-80"/>
      <use x="181.689453" xlink:href="#DejaVuSans-78"/>
      <use x="256.494141" xlink:href="#DejaVuSans-49"/>
      <use x="320.117188" xlink:href="#DejaVuSans-49"/>
     </g>
    </g>
   </g>
   <g id="text_13">
    <g clip-path="url(#padca3c9f54)">
     <!-- IKBKG -->
     <g transform="translate(235.318853 287.175801)scale(0.12 -0.12)">
      <use xlink:href="#DejaVuSans-73"/>
      <use x="29.492188" xlink:href="#DejaVuSans-75"/>
      <use x="95.068359" xlink:href="#DejaVuSans-66"/>
      <use x="163.671875" xlink:href="#DejaVuSans-75"/>
      <use x="229.248047" xlink:href="#DejaVuSans-71"/>
     </g>
    </g>
   </g>
   <g id="text_14">
    <g clip-path="url(#padca3c9f54)">
     <!-- CASP1 -->
     <g transform="translate(259.339481 146.011572)scale(0.12 -0.12)">
      <use xlink:href="#DejaVuSans-67"/>
      <use x="69.824219" xlink:href="#DejaVuSans-65"/>
      <use x="138.232422" xlink:href="#DejaVuSans-83"/>
      <use x="201.708984" xlink:href="#DejaVuSans-80"/>
      <use x="262.011719" xlink:href="#DejaVuSans-49"/>
     </g>
    </g>
   </g>
   <g id="text_15">
    <g clip-path="url(#padca3c9f54)">
     <!-- PYCARD -->
     <g transform="translate(391.309561 169.092095)scale(0.12 -0.12)">
      <defs>
       <path d="M 19.671875 64.796875 
L 19.671875 8.109375 
L 31.59375 8.109375 
Q 46.6875 8.109375 53.6875 14.9375 
Q 60.6875 21.78125 60.6875 36.53125 
Q 60.6875 51.171875 53.6875 57.984375 
Q 46.6875 64.796875 31.59375 64.796875 
z
M 9.8125 72.90625 
L 30.078125 72.90625 
Q 51.265625 72.90625 61.171875 64.09375 
Q 71.09375 55.28125 71.09375 36.53125 
Q 71.09375 17.671875 61.125 8.828125 
Q 51.171875 0 30.078125 0 
L 9.8125 0 
z
" id="DejaVuSans-68"/>
      </defs>
      <use xlink:href="#DejaVuSans-80"/>
      <use x="58.052734" xlink:href="#DejaVuSans-89"/>
      <use x="113.636719" xlink:href="#DejaVuSans-67"/>
      <use x="183.460938" xlink:href="#DejaVuSans-65"/>
      <use x="251.869141" xlink:href="#DejaVuSans-82"/>
      <use x="321.351562" xlink:href="#DejaVuSans-68"/>
     </g>
    </g>
   </g>
   <g id="text_16">
    <g clip-path="url(#padca3c9f54)">
     <!-- CASP8 -->
     <g transform="translate(337.047685 124.829323)scale(0.12 -0.12)">
      <defs>
       <path d="M 31.78125 34.625 
Q 24.75 34.625 20.71875 30.859375 
Q 16.703125 27.09375 16.703125 20.515625 
Q 16.703125 13.921875 20.71875 10.15625 
Q 24.75 6.390625 31.78125 6.390625 
Q 38.8125 6.390625 42.859375 10.171875 
Q 46.921875 13.96875 46.921875 20.515625 
Q 46.921875 27.09375 42.890625 30.859375 
Q 38.875 34.625 31.78125 34.625 
z
M 21.921875 38.8125 
Q 15.578125 40.375 12.03125 44.71875 
Q 8.5 49.078125 8.5 55.328125 
Q 8.5 64.0625 14.71875 69.140625 
Q 20.953125 74.21875 31.78125 74.21875 
Q 42.671875 74.21875 48.875 69.140625 
Q 55.078125 64.0625 55.078125 55.328125 
Q 55.078125 49.078125 51.53125 44.71875 
Q 48 40.375 41.703125 38.8125 
Q 48.828125 37.15625 52.796875 32.3125 
Q 56.78125 27.484375 56.78125 20.515625 
Q 56.78125 9.90625 50.3125 4.234375 
Q 43.84375 -1.421875 31.78125 -1.421875 
Q 19.734375 -1.421875 13.25 4.234375 
Q 6.78125 9.90625 6.78125 20.515625 
Q 6.78125 27.484375 10.78125 32.3125 
Q 14.796875 37.15625 21.921875 38.8125 
z
M 18.3125 54.390625 
Q 18.3125 48.734375 21.84375 45.5625 
Q 25.390625 42.390625 31.78125 42.390625 
Q 38.140625 42.390625 41.71875 45.5625 
Q 45.3125 48.734375 45.3125 54.390625 
Q 45.3125 60.0625 41.71875 63.234375 
Q 38.140625 66.40625 31.78125 66.40625 
Q 25.390625 66.40625 21.84375 63.234375 
Q 18.3125 60.0625 18.3125 54.390625 
z
" id="DejaVuSans-56"/>
      </defs>
      <use xlink:href="#DejaVuSans-67"/>
      <use x="69.824219" xlink:href="#DejaVuSans-65"/>
      <use x="138.232422" xlink:href="#DejaVuSans-83"/>
      <use x="201.708984" xlink:href="#DejaVuSans-80"/>
      <use x="262.011719" xlink:href="#DejaVuSans-56"/>
     </g>
    </g>
   </g>
   <g id="text_17">
    <g clip-path="url(#padca3c9f54)">
     <!-- ARHGEF12 -->
     <g transform="translate(420.01656 321.538554)scale(0.12 -0.12)">
      <defs>
       <path d="M 9.8125 72.90625 
L 19.671875 72.90625 
L 19.671875 43.015625 
L 55.515625 43.015625 
L 55.515625 72.90625 
L 65.375 72.90625 
L 65.375 0 
L 55.515625 0 
L 55.515625 34.71875 
L 19.671875 34.71875 
L 19.671875 0 
L 9.8125 0 
z
" id="DejaVuSans-72"/>
      </defs>
      <use xlink:href="#DejaVuSans-65"/>
      <use x="68.408203" xlink:href="#DejaVuSans-82"/>
      <use x="137.890625" xlink:href="#DejaVuSans-72"/>
      <use x="213.085938" xlink:href="#DejaVuSans-71"/>
      <use x="290.576172" xlink:href="#DejaVuSans-69"/>
      <use x="353.759766" xlink:href="#DejaVuSans-70"/>
      <use x="411.279297" xlink:href="#DejaVuSans-49"/>
      <use x="474.902344" xlink:href="#DejaVuSans-50"/>
     </g>
    </g>
   </g>
   <g id="text_18">
    <g clip-path="url(#padca3c9f54)">
     <!-- RHOA -->
     <g transform="translate(297.757893 417.008487)scale(0.12 -0.12)">
      <defs>
       <path d="M 39.40625 66.21875 
Q 28.65625 66.21875 22.328125 58.203125 
Q 16.015625 50.203125 16.015625 36.375 
Q 16.015625 22.609375 22.328125 14.59375 
Q 28.65625 6.59375 39.40625 6.59375 
Q 50.140625 6.59375 56.421875 14.59375 
Q 62.703125 22.609375 62.703125 36.375 
Q 62.703125 50.203125 56.421875 58.203125 
Q 50.140625 66.21875 39.40625 66.21875 
z
M 39.40625 74.21875 
Q 54.734375 74.21875 63.90625 63.9375 
Q 73.09375 53.65625 73.09375 36.375 
Q 73.09375 19.140625 63.90625 8.859375 
Q 54.734375 -1.421875 39.40625 -1.421875 
Q 24.03125 -1.421875 14.8125 8.828125 
Q 5.609375 19.09375 5.609375 36.375 
Q 5.609375 53.65625 14.8125 63.9375 
Q 24.03125 74.21875 39.40625 74.21875 
z
" id="DejaVuSans-79"/>
      </defs>
      <use xlink:href="#DejaVuSans-82"/>
      <use x="69.482422" xlink:href="#DejaVuSans-72"/>
      <use x="144.677734" xlink:href="#DejaVuSans-79"/>
      <use x="221.638672" xlink:href="#DejaVuSans-65"/>
     </g>
    </g>
   </g>
   <g id="text_19">
    <g clip-path="url(#padca3c9f54)">
     <!-- CYLD -->
     <g transform="translate(178.027418 268.423337)scale(0.12 -0.12)">
      <use xlink:href="#DejaVuSans-67"/>
      <use x="68.074219" xlink:href="#DejaVuSans-89"/>
      <use x="129.158203" xlink:href="#DejaVuSans-76"/>
      <use x="184.871094" xlink:href="#DejaVuSans-68"/>
     </g>
    </g>
   </g>
   <g id="text_20">
    <g clip-path="url(#padca3c9f54)">
     <!-- IKBKE -->
     <g transform="translate(230.195341 402.046934)scale(0.12 -0.12)">
      <use xlink:href="#DejaVuSans-73"/>
      <use x="29.492188" xlink:href="#DejaVuSans-75"/>
      <use x="95.068359" xlink:href="#DejaVuSans-66"/>
      <use x="163.671875" xlink:href="#DejaVuSans-75"/>
      <use x="229.248047" xlink:href="#DejaVuSans-69"/>
     </g>
    </g>
   </g>
   <g id="text_21">
    <g clip-path="url(#padca3c9f54)">
     <!-- STAT1 -->
     <g transform="translate(328.571587 477.463977)scale(0.12 -0.12)">
      <use xlink:href="#DejaVuSans-83"/>
      <use x="63.476562" xlink:href="#DejaVuSans-84"/>
      <use x="116.810547" xlink:href="#DejaVuSans-65"/>
      <use x="177.46875" xlink:href="#DejaVuSans-84"/>
      <use x="238.552734" xlink:href="#DejaVuSans-49"/>
     </g>
    </g>
   </g>
   <g id="text_22">
    <g clip-path="url(#padca3c9f54)">
     <!-- STAT2 -->
     <g transform="translate(203.229835 439.858284)scale(0.12 -0.12)">
      <use xlink:href="#DejaVuSans-83"/>
      <use x="63.476562" xlink:href="#DejaVuSans-84"/>
      <use x="116.810547" xlink:href="#DejaVuSans-65"/>
      <use x="177.46875" xlink:href="#DejaVuSans-84"/>
      <use x="238.552734" xlink:href="#DejaVuSans-50"/>
     </g>
    </g>
   </g>
   <g id="text_23">
    <g clip-path="url(#padca3c9f54)">
     <!-- IRF9 -->
     <g transform="translate(286.491256 408.934952)scale(0.12 -0.12)">
      <defs>
       <path d="M 10.984375 1.515625 
L 10.984375 10.5 
Q 14.703125 8.734375 18.5 7.8125 
Q 22.3125 6.890625 25.984375 6.890625 
Q 35.75 6.890625 40.890625 13.453125 
Q 46.046875 20.015625 46.78125 33.40625 
Q 43.953125 29.203125 39.59375 26.953125 
Q 35.25 24.703125 29.984375 24.703125 
Q 19.046875 24.703125 12.671875 31.3125 
Q 6.296875 37.9375 6.296875 49.421875 
Q 6.296875 60.640625 12.9375 67.421875 
Q 19.578125 74.21875 30.609375 74.21875 
Q 43.265625 74.21875 49.921875 64.515625 
Q 56.59375 54.828125 56.59375 36.375 
Q 56.59375 19.140625 48.40625 8.859375 
Q 40.234375 -1.421875 26.421875 -1.421875 
Q 22.703125 -1.421875 18.890625 -0.6875 
Q 15.09375 0.046875 10.984375 1.515625 
z
M 30.609375 32.421875 
Q 37.25 32.421875 41.125 36.953125 
Q 45.015625 41.5 45.015625 49.421875 
Q 45.015625 57.28125 41.125 61.84375 
Q 37.25 66.40625 30.609375 66.40625 
Q 23.96875 66.40625 20.09375 61.84375 
Q 16.21875 57.28125 16.21875 49.421875 
Q 16.21875 41.5 20.09375 36.953125 
Q 23.96875 32.421875 30.609375 32.421875 
z
" id="DejaVuSans-57"/>
      </defs>
      <use xlink:href="#DejaVuSans-73"/>
      <use x="29.492188" xlink:href="#DejaVuSans-82"/>
      <use x="98.974609" xlink:href="#DejaVuSans-70"/>
      <use x="156.494141" xlink:href="#DejaVuSans-57"/>
     </g>
    </g>
   </g>
   <g id="text_24">
    <g clip-path="url(#padca3c9f54)">
     <!-- BCL3 -->
     <g transform="translate(274.280635 190.034682)scale(0.12 -0.12)">
      <use xlink:href="#DejaVuSans-66"/>
      <use x="66.853516" xlink:href="#DejaVuSans-67"/>
      <use x="136.677734" xlink:href="#DejaVuSans-76"/>
      <use x="192.390625" xlink:href="#DejaVuSans-51"/>
     </g>
    </g>
   </g>
   <g id="text_25">
    <g clip-path="url(#padca3c9f54)">
     <!-- MAPKAPK2 -->
     <g transform="translate(338.291099 402.85114)scale(0.12 -0.12)">
      <defs>
       <path d="M 9.8125 72.90625 
L 24.515625 72.90625 
L 43.109375 23.296875 
L 61.8125 72.90625 
L 76.515625 72.90625 
L 76.515625 0 
L 66.890625 0 
L 66.890625 64.015625 
L 48.09375 14.015625 
L 38.1875 14.015625 
L 19.390625 64.015625 
L 19.390625 0 
L 9.8125 0 
z
" id="DejaVuSans-77"/>
      </defs>
      <use xlink:href="#DejaVuSans-77"/>
      <use x="86.279297" xlink:href="#DejaVuSans-65"/>
      <use x="154.6875" xlink:href="#DejaVuSans-80"/>
      <use x="214.990234" xlink:href="#DejaVuSans-75"/>
      <use x="278.816406" xlink:href="#DejaVuSans-65"/>
      <use x="347.224609" xlink:href="#DejaVuSans-80"/>
      <use x="407.527344" xlink:href="#DejaVuSans-75"/>
      <use x="473.103516" xlink:href="#DejaVuSans-50"/>
     </g>
    </g>
   </g>
   <g id="text_26">
    <g clip-path="url(#padca3c9f54)">
     <!-- NFKBIA -->
     <g transform="translate(332.995633 290.7628)scale(0.12 -0.12)">
      <use xlink:href="#DejaVuSans-78"/>
      <use x="74.804688" xlink:href="#DejaVuSans-70"/>
      <use x="132.324219" xlink:href="#DejaVuSans-75"/>
      <use x="197.900391" xlink:href="#DejaVuSans-66"/>
      <use x="266.503906" xlink:href="#DejaVuSans-73"/>
      <use x="295.996094" xlink:href="#DejaVuSans-65"/>
     </g>
    </g>
   </g>
   <g id="text_27">
    <g clip-path="url(#padca3c9f54)">
     <!-- CARD9 -->
     <g transform="translate(329.205068 188.434381)scale(0.12 -0.12)">
      <use xlink:href="#DejaVuSans-67"/>
      <use x="69.824219" xlink:href="#DejaVuSans-65"/>
      <use x="138.232422" xlink:href="#DejaVuSans-82"/>
      <use x="207.714844" xlink:href="#DejaVuSans-68"/>
      <use x="284.716797" xlink:href="#DejaVuSans-57"/>
     </g>
    </g>
   </g>
   <g id="text_28">
    <g clip-path="url(#padca3c9f54)">
     <!-- BCL10 -->
     <g transform="translate(313.297987 202.839087)scale(0.12 -0.12)">
      <defs>
       <path d="M 31.78125 66.40625 
Q 24.171875 66.40625 20.328125 58.90625 
Q 16.5 51.421875 16.5 36.375 
Q 16.5 21.390625 20.328125 13.890625 
Q 24.171875 6.390625 31.78125 6.390625 
Q 39.453125 6.390625 43.28125 13.890625 
Q 47.125 21.390625 47.125 36.375 
Q 47.125 51.421875 43.28125 58.90625 
Q 39.453125 66.40625 31.78125 66.40625 
z
M 31.78125 74.21875 
Q 44.046875 74.21875 50.515625 64.515625 
Q 56.984375 54.828125 56.984375 36.375 
Q 56.984375 17.96875 50.515625 8.265625 
Q 44.046875 -1.421875 31.78125 -1.421875 
Q 19.53125 -1.421875 13.0625 8.265625 
Q 6.59375 17.96875 6.59375 36.375 
Q 6.59375 54.828125 13.0625 64.515625 
Q 19.53125 74.21875 31.78125 74.21875 
z
" id="DejaVuSans-48"/>
      </defs>
      <use xlink:href="#DejaVuSans-66"/>
      <use x="66.853516" xlink:href="#DejaVuSans-67"/>
      <use x="136.677734" xlink:href="#DejaVuSans-76"/>
      <use x="192.390625" xlink:href="#DejaVuSans-49"/>
      <use x="256.013672" xlink:href="#DejaVuSans-48"/>
     </g>
    </g>
   </g>
   <g id="text_29">
    <g clip-path="url(#padca3c9f54)">
     <!-- MALT1 -->
     <g transform="translate(277.834127 203.830016)scale(0.12 -0.12)">
      <use xlink:href="#DejaVuSans-77"/>
      <use x="86.279297" xlink:href="#DejaVuSans-65"/>
      <use x="154.6875" xlink:href="#DejaVuSans-76"/>
      <use x="196.650391" xlink:href="#DejaVuSans-84"/>
      <use x="257.734375" xlink:href="#DejaVuSans-49"/>
     </g>
    </g>
   </g>
   <g id="text_30">
    <g clip-path="url(#padca3c9f54)">
     <!-- PRKCD -->
     <g transform="translate(440.310235 254.011536)scale(0.12 -0.12)">
      <use xlink:href="#DejaVuSans-80"/>
      <use x="60.302734" xlink:href="#DejaVuSans-82"/>
      <use x="129.785156" xlink:href="#DejaVuSans-75"/>
      <use x="189.861328" xlink:href="#DejaVuSans-67"/>
      <use x="259.685547" xlink:href="#DejaVuSans-68"/>
     </g>
    </g>
   </g>
   <g id="text_31">
    <g clip-path="url(#padca3c9f54)">
     <!-- PLCG2 -->
     <g transform="translate(571.410274 153.874019)scale(0.12 -0.12)">
      <use xlink:href="#DejaVuSans-80"/>
      <use x="60.302734" xlink:href="#DejaVuSans-76"/>
      <use x="116.015625" xlink:href="#DejaVuSans-67"/>
      <use x="185.839844" xlink:href="#DejaVuSans-71"/>
      <use x="263.330078" xlink:href="#DejaVuSans-50"/>
     </g>
    </g>
   </g>
   <g id="text_32">
    <g clip-path="url(#padca3c9f54)">
     <!-- MAP3K14 -->
     <g transform="translate(691.207965 331.337965)scale(0.12 -0.12)">
      <defs>
       <path d="M 37.796875 64.3125 
L 12.890625 25.390625 
L 37.796875 25.390625 
z
M 35.203125 72.90625 
L 47.609375 72.90625 
L 47.609375 25.390625 
L 58.015625 25.390625 
L 58.015625 17.1875 
L 47.609375 17.1875 
L 47.609375 0 
L 37.796875 0 
L 37.796875 17.1875 
L 4.890625 17.1875 
L 4.890625 26.703125 
z
" id="DejaVuSans-52"/>
      </defs>
      <use xlink:href="#DejaVuSans-77"/>
      <use x="86.279297" xlink:href="#DejaVuSans-65"/>
      <use x="154.6875" xlink:href="#DejaVuSans-80"/>
      <use x="214.990234" xlink:href="#DejaVuSans-51"/>
      <use x="278.613281" xlink:href="#DejaVuSans-75"/>
      <use x="344.189453" xlink:href="#DejaVuSans-49"/>
      <use x="407.8125" xlink:href="#DejaVuSans-52"/>
     </g>
    </g>
   </g>
   <g id="text_33">
    <g clip-path="url(#padca3c9f54)">
     <!-- TNF -->
     <g transform="translate(693.6778 379.233348)scale(0.12 -0.12)">
      <use xlink:href="#DejaVuSans-84"/>
      <use x="61.083984" xlink:href="#DejaVuSans-78"/>
      <use x="135.888672" xlink:href="#DejaVuSans-70"/>
     </g>
    </g>
   </g>
   <g id="text_34">
    <g clip-path="url(#padca3c9f54)">
     <!-- CBLB -->
     <g transform="translate(599.075377 317.371832)scale(0.12 -0.12)">
      <use xlink:href="#DejaVuSans-67"/>
      <use x="69.824219" xlink:href="#DejaVuSans-66"/>
      <use x="138.427734" xlink:href="#DejaVuSans-76"/>
      <use x="194.140625" xlink:href="#DejaVuSans-66"/>
     </g>
    </g>
   </g>
   <g id="text_35">
    <g clip-path="url(#padca3c9f54)">
     <!-- MDM2 -->
     <g transform="translate(503.0322 188.967319)scale(0.12 -0.12)">
      <use xlink:href="#DejaVuSans-77"/>
      <use x="86.279297" xlink:href="#DejaVuSans-68"/>
      <use x="163.28125" xlink:href="#DejaVuSans-77"/>
      <use x="249.560547" xlink:href="#DejaVuSans-50"/>
     </g>
    </g>
   </g>
   <g id="text_36">
    <g clip-path="url(#padca3c9f54)">
     <!-- IRF1 -->
     <g transform="translate(486.220019 239.643182)scale(0.12 -0.12)">
      <use xlink:href="#DejaVuSans-73"/>
      <use x="29.492188" xlink:href="#DejaVuSans-82"/>
      <use x="98.974609" xlink:href="#DejaVuSans-70"/>
      <use x="156.494141" xlink:href="#DejaVuSans-49"/>
     </g>
    </g>
   </g>
   <g id="text_37">
    <g clip-path="url(#padca3c9f54)">
     <!-- NFKB2 -->
     <g transform="translate(667.128921 221.435368)scale(0.12 -0.12)">
      <use xlink:href="#DejaVuSans-78"/>
      <use x="74.804688" xlink:href="#DejaVuSans-70"/>
      <use x="132.324219" xlink:href="#DejaVuSans-75"/>
      <use x="197.900391" xlink:href="#DejaVuSans-66"/>
      <use x="266.503906" xlink:href="#DejaVuSans-50"/>
     </g>
    </g>
   </g>
   <g id="text_38">
    <g clip-path="url(#padca3c9f54)">
     <!-- RELB -->
     <g transform="translate(503.526128 210.75398)scale(0.12 -0.12)">
      <use xlink:href="#DejaVuSans-82"/>
      <use x="69.482422" xlink:href="#DejaVuSans-69"/>
      <use x="132.666016" xlink:href="#DejaVuSans-76"/>
      <use x="188.378906" xlink:href="#DejaVuSans-66"/>
     </g>
    </g>
   </g>
   <g id="text_39">
    <g clip-path="url(#padca3c9f54)">
     <!-- JUN -->
     <g transform="translate(471.823647 177.382163)scale(0.12 -0.12)">
      <defs>
       <path d="M 9.8125 72.90625 
L 19.671875 72.90625 
L 19.671875 5.078125 
Q 19.671875 -8.109375 14.671875 -14.0625 
Q 9.671875 -20.015625 -1.421875 -20.015625 
L -5.171875 -20.015625 
L -5.171875 -11.71875 
L -2.09375 -11.71875 
Q 4.4375 -11.71875 7.125 -8.046875 
Q 9.8125 -4.390625 9.8125 5.078125 
z
" id="DejaVuSans-74"/>
       <path d="M 8.6875 72.90625 
L 18.609375 72.90625 
L 18.609375 28.609375 
Q 18.609375 16.890625 22.84375 11.734375 
Q 27.09375 6.59375 36.625 6.59375 
Q 46.09375 6.59375 50.34375 11.734375 
Q 54.59375 16.890625 54.59375 28.609375 
L 54.59375 72.90625 
L 64.5 72.90625 
L 64.5 27.390625 
Q 64.5 13.140625 57.4375 5.859375 
Q 50.390625 -1.421875 36.625 -1.421875 
Q 22.796875 -1.421875 15.734375 5.859375 
Q 8.6875 13.140625 8.6875 27.390625 
z
" id="DejaVuSans-85"/>
      </defs>
      <use xlink:href="#DejaVuSans-74"/>
      <use x="29.492188" xlink:href="#DejaVuSans-85"/>
      <use x="102.685547" xlink:href="#DejaVuSans-78"/>
     </g>
    </g>
   </g>
   <g id="text_40">
    <g clip-path="url(#padca3c9f54)">
     <!-- HRAS -->
     <g transform="translate(497.998833 182.428676)scale(0.12 -0.12)">
      <use xlink:href="#DejaVuSans-72"/>
      <use x="75.195312" xlink:href="#DejaVuSans-82"/>
      <use x="140.677734" xlink:href="#DejaVuSans-65"/>
      <use x="209.085938" xlink:href="#DejaVuSans-83"/>
     </g>
    </g>
   </g>
   <g id="text_41">
    <g clip-path="url(#padca3c9f54)">
     <!-- KRAS -->
     <g transform="translate(387.572219 293.108342)scale(0.12 -0.12)">
      <use xlink:href="#DejaVuSans-75"/>
      <use x="65.576172" xlink:href="#DejaVuSans-82"/>
      <use x="131.058594" xlink:href="#DejaVuSans-65"/>
      <use x="199.466797" xlink:href="#DejaVuSans-83"/>
     </g>
    </g>
   </g>
   <g id="text_42">
    <g clip-path="url(#padca3c9f54)">
     <!-- NRAS -->
     <g transform="translate(559.197064 395.494491)scale(0.12 -0.12)">
      <use xlink:href="#DejaVuSans-78"/>
      <use x="74.804688" xlink:href="#DejaVuSans-82"/>
      <use x="140.287109" xlink:href="#DejaVuSans-65"/>
      <use x="208.695312" xlink:href="#DejaVuSans-83"/>
     </g>
    </g>
   </g>
   <g id="text_43">
    <g clip-path="url(#padca3c9f54)">
     <!-- RRAS -->
     <g transform="translate(508.322793 331.724753)scale(0.12 -0.12)">
      <use xlink:href="#DejaVuSans-82"/>
      <use x="69.482422" xlink:href="#DejaVuSans-82"/>
      <use x="134.964844" xlink:href="#DejaVuSans-65"/>
      <use x="203.373047" xlink:href="#DejaVuSans-83"/>
     </g>
    </g>
   </g>
   <g id="text_44">
    <g clip-path="url(#padca3c9f54)">
     <!-- RRAS2 -->
     <g transform="translate(356.254834 248.842895)scale(0.12 -0.12)">
      <use xlink:href="#DejaVuSans-82"/>
      <use x="69.482422" xlink:href="#DejaVuSans-82"/>
      <use x="134.964844" xlink:href="#DejaVuSans-65"/>
      <use x="203.373047" xlink:href="#DejaVuSans-83"/>
      <use x="266.849609" xlink:href="#DejaVuSans-50"/>
     </g>
    </g>
   </g>
   <g id="text_45">
    <g clip-path="url(#padca3c9f54)">
     <!-- IKBKB -->
     <g transform="translate(317.455246 258.714053)scale(0.12 -0.12)">
      <use xlink:href="#DejaVuSans-73"/>
      <use x="29.492188" xlink:href="#DejaVuSans-75"/>
      <use x="95.068359" xlink:href="#DejaVuSans-66"/>
      <use x="163.671875" xlink:href="#DejaVuSans-75"/>
      <use x="229.248047" xlink:href="#DejaVuSans-66"/>
     </g>
    </g>
   </g>
   <g id="text_46">
    <g clip-path="url(#padca3c9f54)">
     <!-- IL12A -->
     <g transform="translate(377.390122 110.918523)scale(0.12 -0.12)">
      <use xlink:href="#DejaVuSans-73"/>
      <use x="29.492188" xlink:href="#DejaVuSans-76"/>
      <use x="85.205078" xlink:href="#DejaVuSans-49"/>
      <use x="148.828125" xlink:href="#DejaVuSans-50"/>
      <use x="212.451172" xlink:href="#DejaVuSans-65"/>
     </g>
    </g>
   </g>
   <g id="text_47">
    <!-- Frame: 11 -->
    <g transform="translate(121.392 91.296)scale(0.1 -0.1)">
     <defs>
      <path d="M 41.109375 46.296875 
Q 39.59375 47.171875 37.8125 47.578125 
Q 36.03125 48 33.890625 48 
Q 26.265625 48 22.1875 43.046875 
Q 18.109375 38.09375 18.109375 28.8125 
L 18.109375 0 
L 9.078125 0 
L 9.078125 54.6875 
L 18.109375 54.6875 
L 18.109375 46.1875 
Q 20.953125 51.171875 25.484375 53.578125 
Q 30.03125 56 36.53125 56 
Q 37.453125 56 38.578125 55.875 
Q 39.703125 55.765625 41.0625 55.515625 
z
" id="DejaVuSans-114"/>
      <path d="M 34.28125 27.484375 
Q 23.390625 27.484375 19.1875 25 
Q 14.984375 22.515625 14.984375 16.5 
Q 14.984375 11.71875 18.140625 8.90625 
Q 21.296875 6.109375 26.703125 6.109375 
Q 34.1875 6.109375 38.703125 11.40625 
Q 43.21875 16.703125 43.21875 25.484375 
L 43.21875 27.484375 
z
M 52.203125 31.203125 
L 52.203125 0 
L 43.21875 0 
L 43.21875 8.296875 
Q 40.140625 3.328125 35.546875 0.953125 
Q 30.953125 -1.421875 24.3125 -1.421875 
Q 15.921875 -1.421875 10.953125 3.296875 
Q 6 8.015625 6 15.921875 
Q 6 25.140625 12.171875 29.828125 
Q 18.359375 34.515625 30.609375 34.515625 
L 43.21875 34.515625 
L 43.21875 35.40625 
Q 43.21875 41.609375 39.140625 45 
Q 35.0625 48.390625 27.6875 48.390625 
Q 23 48.390625 18.546875 47.265625 
Q 14.109375 46.140625 10.015625 43.890625 
L 10.015625 52.203125 
Q 14.9375 54.109375 19.578125 55.046875 
Q 24.21875 56 28.609375 56 
Q 40.484375 56 46.34375 49.84375 
Q 52.203125 43.703125 52.203125 31.203125 
z
" id="DejaVuSans-97"/>
      <path d="M 52 44.1875 
Q 55.375 50.25 60.0625 53.125 
Q 64.75 56 71.09375 56 
Q 79.640625 56 84.28125 50.015625 
Q 88.921875 44.046875 88.921875 33.015625 
L 88.921875 0 
L 79.890625 0 
L 79.890625 32.71875 
Q 79.890625 40.578125 77.09375 44.375 
Q 74.3125 48.1875 68.609375 48.1875 
Q 61.625 48.1875 57.5625 43.546875 
Q 53.515625 38.921875 53.515625 30.90625 
L 53.515625 0 
L 44.484375 0 
L 44.484375 32.71875 
Q 44.484375 40.625 41.703125 44.40625 
Q 38.921875 48.1875 33.109375 48.1875 
Q 26.21875 48.1875 22.15625 43.53125 
Q 18.109375 38.875 18.109375 30.90625 
L 18.109375 0 
L 9.078125 0 
L 9.078125 54.6875 
L 18.109375 54.6875 
L 18.109375 46.1875 
Q 21.1875 51.21875 25.484375 53.609375 
Q 29.78125 56 35.6875 56 
Q 41.65625 56 45.828125 52.96875 
Q 50 49.953125 52 44.1875 
z
" id="DejaVuSans-109"/>
      <path d="M 56.203125 29.59375 
L 56.203125 25.203125 
L 14.890625 25.203125 
Q 15.484375 15.921875 20.484375 11.0625 
Q 25.484375 6.203125 34.421875 6.203125 
Q 39.59375 6.203125 44.453125 7.46875 
Q 49.3125 8.734375 54.109375 11.28125 
L 54.109375 2.78125 
Q 49.265625 0.734375 44.1875 -0.34375 
Q 39.109375 -1.421875 33.890625 -1.421875 
Q 20.796875 -1.421875 13.15625 6.1875 
Q 5.515625 13.8125 5.515625 26.8125 
Q 5.515625 40.234375 12.765625 48.109375 
Q 20.015625 56 32.328125 56 
Q 43.359375 56 49.78125 48.890625 
Q 56.203125 41.796875 56.203125 29.59375 
z
M 47.21875 32.234375 
Q 47.125 39.59375 43.09375 43.984375 
Q 39.0625 48.390625 32.421875 48.390625 
Q 24.90625 48.390625 20.390625 44.140625 
Q 15.875 39.890625 15.1875 32.171875 
z
" id="DejaVuSans-101"/>
      <path d="M 11.71875 12.40625 
L 22.015625 12.40625 
L 22.015625 0 
L 11.71875 0 
z
M 11.71875 51.703125 
L 22.015625 51.703125 
L 22.015625 39.3125 
L 11.71875 39.3125 
z
" id="DejaVuSans-58"/>
      <path id="DejaVuSans-32"/>
     </defs>
     <use xlink:href="#DejaVuSans-70"/>
     <use x="50.269531" xlink:href="#DejaVuSans-114"/>
     <use x="91.382812" xlink:href="#DejaVuSans-97"/>
     <use x="152.662109" xlink:href="#DejaVuSans-109"/>
     <use x="250.074219" xlink:href="#DejaVuSans-101"/>
     <use x="311.597656" xlink:href="#DejaVuSans-58"/>
     <use x="345.289062" xlink:href="#DejaVuSans-32"/>
     <use x="377.076172" xlink:href="#DejaVuSans-49"/>
     <use x="440.699219" xlink:href="#DejaVuSans-49"/>
    </g>
   </g>
   <g id="text_48">
    <!-- Network: hsa04625 -->
    <g transform="translate(384.1275 63.12)scale(0.12 -0.12)">
     <defs>
      <path d="M 18.3125 70.21875 
L 18.3125 54.6875 
L 36.8125 54.6875 
L 36.8125 47.703125 
L 18.3125 47.703125 
L 18.3125 18.015625 
Q 18.3125 11.328125 20.140625 9.421875 
Q 21.96875 7.515625 27.59375 7.515625 
L 36.8125 7.515625 
L 36.8125 0 
L 27.59375 0 
Q 17.1875 0 13.234375 3.875 
Q 9.28125 7.765625 9.28125 18.015625 
L 9.28125 47.703125 
L 2.6875 47.703125 
L 2.6875 54.6875 
L 9.28125 54.6875 
L 9.28125 70.21875 
z
" id="DejaVuSans-116"/>
      <path d="M 4.203125 54.6875 
L 13.1875 54.6875 
L 24.421875 12.015625 
L 35.59375 54.6875 
L 46.1875 54.6875 
L 57.421875 12.015625 
L 68.609375 54.6875 
L 77.59375 54.6875 
L 63.28125 0 
L 52.6875 0 
L 40.921875 44.828125 
L 29.109375 0 
L 18.5 0 
z
" id="DejaVuSans-119"/>
      <path d="M 30.609375 48.390625 
Q 23.390625 48.390625 19.1875 42.75 
Q 14.984375 37.109375 14.984375 27.296875 
Q 14.984375 17.484375 19.15625 11.84375 
Q 23.34375 6.203125 30.609375 6.203125 
Q 37.796875 6.203125 41.984375 11.859375 
Q 46.1875 17.53125 46.1875 27.296875 
Q 46.1875 37.015625 41.984375 42.703125 
Q 37.796875 48.390625 30.609375 48.390625 
z
M 30.609375 56 
Q 42.328125 56 49.015625 48.375 
Q 55.71875 40.765625 55.71875 27.296875 
Q 55.71875 13.875 49.015625 6.21875 
Q 42.328125 -1.421875 30.609375 -1.421875 
Q 18.84375 -1.421875 12.171875 6.21875 
Q 5.515625 13.875 5.515625 27.296875 
Q 5.515625 40.765625 12.171875 48.375 
Q 18.84375 56 30.609375 56 
z
" id="DejaVuSans-111"/>
      <path d="M 9.078125 75.984375 
L 18.109375 75.984375 
L 18.109375 31.109375 
L 44.921875 54.6875 
L 56.390625 54.6875 
L 27.390625 29.109375 
L 57.625 0 
L 45.90625 0 
L 18.109375 26.703125 
L 18.109375 0 
L 9.078125 0 
z
" id="DejaVuSans-107"/>
      <path d="M 54.890625 33.015625 
L 54.890625 0 
L 45.90625 0 
L 45.90625 32.71875 
Q 45.90625 40.484375 42.875 44.328125 
Q 39.84375 48.1875 33.796875 48.1875 
Q 26.515625 48.1875 22.3125 43.546875 
Q 18.109375 38.921875 18.109375 30.90625 
L 18.109375 0 
L 9.078125 0 
L 9.078125 75.984375 
L 18.109375 75.984375 
L 18.109375 46.1875 
Q 21.34375 51.125 25.703125 53.5625 
Q 30.078125 56 35.796875 56 
Q 45.21875 56 50.046875 50.171875 
Q 54.890625 44.34375 54.890625 33.015625 
z
" id="DejaVuSans-104"/>
      <path d="M 44.28125 53.078125 
L 44.28125 44.578125 
Q 40.484375 46.53125 36.375 47.5 
Q 32.28125 48.484375 27.875 48.484375 
Q 21.1875 48.484375 17.84375 46.4375 
Q 14.5 44.390625 14.5 40.28125 
Q 14.5 37.15625 16.890625 35.375 
Q 19.28125 33.59375 26.515625 31.984375 
L 29.59375 31.296875 
Q 39.15625 29.25 43.1875 25.515625 
Q 47.21875 21.78125 47.21875 15.09375 
Q 47.21875 7.46875 41.1875 3.015625 
Q 35.15625 -1.421875 24.609375 -1.421875 
Q 20.21875 -1.421875 15.453125 -0.5625 
Q 10.6875 0.296875 5.421875 2 
L 5.421875 11.28125 
Q 10.40625 8.6875 15.234375 7.390625 
Q 20.0625 6.109375 24.8125 6.109375 
Q 31.15625 6.109375 34.5625 8.28125 
Q 37.984375 10.453125 37.984375 14.40625 
Q 37.984375 18.0625 35.515625 20.015625 
Q 33.0625 21.96875 24.703125 23.78125 
L 21.578125 24.515625 
Q 13.234375 26.265625 9.515625 29.90625 
Q 5.8125 33.546875 5.8125 39.890625 
Q 5.8125 47.609375 11.28125 51.796875 
Q 16.75 56 26.8125 56 
Q 31.78125 56 36.171875 55.265625 
Q 40.578125 54.546875 44.28125 53.078125 
z
" id="DejaVuSans-115"/>
      <path d="M 33.015625 40.375 
Q 26.375 40.375 22.484375 35.828125 
Q 18.609375 31.296875 18.609375 23.390625 
Q 18.609375 15.53125 22.484375 10.953125 
Q 26.375 6.390625 33.015625 6.390625 
Q 39.65625 6.390625 43.53125 10.953125 
Q 47.40625 15.53125 47.40625 23.390625 
Q 47.40625 31.296875 43.53125 35.828125 
Q 39.65625 40.375 33.015625 40.375 
z
M 52.59375 71.296875 
L 52.59375 62.3125 
Q 48.875 64.0625 45.09375 64.984375 
Q 41.3125 65.921875 37.59375 65.921875 
Q 27.828125 65.921875 22.671875 59.328125 
Q 17.53125 52.734375 16.796875 39.40625 
Q 19.671875 43.65625 24.015625 45.921875 
Q 28.375 48.1875 33.59375 48.1875 
Q 44.578125 48.1875 50.953125 41.515625 
Q 57.328125 34.859375 57.328125 23.390625 
Q 57.328125 12.15625 50.6875 5.359375 
Q 44.046875 -1.421875 33.015625 -1.421875 
Q 20.359375 -1.421875 13.671875 8.265625 
Q 6.984375 17.96875 6.984375 36.375 
Q 6.984375 53.65625 15.1875 63.9375 
Q 23.390625 74.21875 37.203125 74.21875 
Q 40.921875 74.21875 44.703125 73.484375 
Q 48.484375 72.75 52.59375 71.296875 
z
" id="DejaVuSans-54"/>
      <path d="M 10.796875 72.90625 
L 49.515625 72.90625 
L 49.515625 64.59375 
L 19.828125 64.59375 
L 19.828125 46.734375 
Q 21.96875 47.46875 24.109375 47.828125 
Q 26.265625 48.1875 28.421875 48.1875 
Q 40.625 48.1875 47.75 41.5 
Q 54.890625 34.8125 54.890625 23.390625 
Q 54.890625 11.625 47.5625 5.09375 
Q 40.234375 -1.421875 26.90625 -1.421875 
Q 22.3125 -1.421875 17.546875 -0.640625 
Q 12.796875 0.140625 7.71875 1.703125 
L 7.71875 11.625 
Q 12.109375 9.234375 16.796875 8.0625 
Q 21.484375 6.890625 26.703125 6.890625 
Q 35.15625 6.890625 40.078125 11.328125 
Q 45.015625 15.765625 45.015625 23.390625 
Q 45.015625 31 40.078125 35.4375 
Q 35.15625 39.890625 26.703125 39.890625 
Q 22.75 39.890625 18.8125 39.015625 
Q 14.890625 38.140625 10.796875 36.28125 
z
" id="DejaVuSans-53"/>
     </defs>
     <use xlink:href="#DejaVuSans-78"/>
     <use x="74.804688" xlink:href="#DejaVuSans-101"/>
     <use x="136.328125" xlink:href="#DejaVuSans-116"/>
     <use x="175.537109" xlink:href="#DejaVuSans-119"/>
     <use x="257.324219" xlink:href="#DejaVuSans-111"/>
     <use x="318.505859" xlink:href="#DejaVuSans-114"/>
     <use x="359.619141" xlink:href="#DejaVuSans-107"/>
     <use x="417.529297" xlink:href="#DejaVuSans-58"/>
     <use x="451.220703" xlink:href="#DejaVuSans-32"/>
     <use x="483.007812" xlink:href="#DejaVuSans-104"/>
     <use x="546.386719" xlink:href="#DejaVuSans-115"/>
     <use x="598.486328" xlink:href="#DejaVuSans-97"/>
     <use x="659.765625" xlink:href="#DejaVuSans-48"/>
     <use x="723.388672" xlink:href="#DejaVuSans-52"/>
     <use x="787.011719" xlink:href="#DejaVuSans-54"/>
     <use x="850.634766" xlink:href="#DejaVuSans-50"/>
     <use x="914.257812" xlink:href="#DejaVuSans-53"/>
    </g>
   </g>
  </g>
 </g>
 <defs>
  <clipPath id="padca3c9f54">
   <rect height="443.52" width="669.6" x="108" y="69.12"/>
  </clipPath>
 </defs>
</svg>
