<?xml version="1.0" encoding="utf-8" standalone="no"?>
<!DOCTYPE svg PUBLIC "-//W3C//DTD SVG 1.1//EN"
  "http://www.w3.org/Graphics/SVG/1.1/DTD/svg11.dtd">
<!-- Created with matplotlib (https://matplotlib.org/) -->
<svg height="576pt" version="1.1" viewBox="0 0 864 576" width="864pt" xmlns="http://www.w3.org/2000/svg" xmlns:xlink="http://www.w3.org/1999/xlink">
 <metadata>
  <rdf:RDF xmlns:cc="http://creativecommons.org/ns#" xmlns:dc="http://purl.org/dc/elements/1.1/" xmlns:rdf="http://www.w3.org/1999/02/22-rdf-syntax-ns#">
   <cc:Work>
    <dc:type rdf:resource="http://purl.org/dc/dcmitype/StillImage"/>
    <dc:date>2024-04-26T13:35:56.566900</dc:date>
    <dc:format>image/svg+xml</dc:format>
    <dc:creator>
     <cc:Agent>
      <dc:title>Matplotlib v3.3.1, https://matplotlib.org/</dc:title>
     </cc:Agent>
    </dc:creator>
   </cc:Work>
  </rdf:RDF>
 </metadata>
 <defs>
  <style type="text/css">*{stroke-linecap:butt;stroke-linejoin:round;}</style>
 </defs>
 <g id="figure_1">
  <g id="patch_1">
   <path d="M 0 576 
L 864 576 
L 864 0 
L 0 0 
z
" style="fill:#ffffff;"/>
  </g>
  <g id="axes_1">
   <g id="patch_2">
    <path clip-path="url(#p73252b0be9)" d="M 297.11209 271.538852 
Q 236.496945 274.589944 176.998419 277.58483 
" style="fill:none;stroke:#000000;stroke-linecap:round;"/>
    <path clip-path="url(#p73252b0be9)" d="M 181.093905 279.381214 
L 176.998419 277.58483 
L 180.892818 275.386271 
L 181.093905 279.381214 
z
" style="stroke:#000000;stroke-linecap:round;"/>
   </g>
   <g id="patch_3">
    <path clip-path="url(#p73252b0be9)" d="M 301.064873 263.823941 
Q 271.233956 217.546149 242.008787 172.208076 
" style="fill:none;stroke:#000000;stroke-linecap:round;"/>
    <path clip-path="url(#p73252b0be9)" d="M 242.494956 176.653707 
L 242.008787 172.208076 
L 245.856994 174.486519 
L 242.494956 176.653707 
z
" style="stroke:#000000;stroke-linecap:round;"/>
   </g>
   <g id="patch_4">
    <path clip-path="url(#p73252b0be9)" d="M 354.7869 264.016231 
Q 394.25511 189.636297 433.199265 116.243969 
" style="fill:none;stroke:#000000;stroke-linecap:round;"/>
    <path clip-path="url(#p73252b0be9)" d="M 429.557669 118.839884 
L 433.199265 116.243969 
L 433.091039 120.714795 
L 429.557669 118.839884 
z
" style="stroke:#000000;stroke-linecap:round;"/>
   </g>
   <g id="patch_5">
    <path clip-path="url(#p73252b0be9)" d="M 346.558722 279.25661 
Q 306.945729 351.382051 267.870952 422.527531 
" style="fill:none;stroke:#000000;stroke-linecap:round;"/>
    <path clip-path="url(#p73252b0be9)" d="M 271.549543 419.984311 
L 267.870952 422.527531 
L 268.043531 418.058726 
L 271.549543 419.984311 
z
" style="stroke:#000000;stroke-linecap:round;"/>
   </g>
   <g id="patch_6">
    <path clip-path="url(#p73252b0be9)" d="M 336.975986 256.091771 
Q 384.946438 185.432717 432.288904 115.698666 
" style="fill:none;stroke:#000000;stroke-linecap:round;"/>
    <path clip-path="url(#p73252b0be9)" d="M 428.387455 117.884688 
L 432.288904 115.698666 
L 431.696852 120.131439 
L 428.387455 117.884688 
z
" style="stroke:#000000;stroke-linecap:round;"/>
   </g>
   <g id="patch_7">
    <path clip-path="url(#p73252b0be9)" d="M 328.821517 271.265732 
Q 297.637676 347.177072 266.878668 422.054237 
" style="fill:none;stroke:#000000;stroke-linecap:round;"/>
    <path clip-path="url(#p73252b0be9)" d="M 270.24858 419.114222 
L 266.878668 422.054237 
L 266.548603 417.594298 
L 270.24858 419.114222 
z
" style="stroke:#000000;stroke-linecap:round;"/>
   </g>
   <g id="patch_8">
    <path clip-path="url(#p73252b0be9)" d="M 591.105799 177.058363 
Q 547.177769 156.90442 504.265928 137.216699 
" style="fill:none;stroke:#000000;stroke-linecap:round;"/>
    <path clip-path="url(#p73252b0be9)" d="M 507.067549 140.702516 
L 504.265928 137.216699 
L 508.735554 137.066892 
L 507.067549 140.702516 
z
" style="stroke:#000000;stroke-linecap:round;"/>
   </g>
   <g id="patch_9">
    <path clip-path="url(#p73252b0be9)" d="M 677.960402 202.241426 
Q 688.44801 224.381669 698.456998 245.511504 
" style="fill:none;stroke:#000000;stroke-linecap:round;"/>
    <path clip-path="url(#p73252b0be9)" d="M 698.552108 241.04038 
L 698.456998 245.511504 
L 694.937164 242.752742 
L 698.552108 241.04038 
z
" style="stroke:#000000;stroke-linecap:round;"/>
   </g>
   <g id="patch_10">
    <path clip-path="url(#p73252b0be9)" d="M 547.046682 372.269111 
Q 612.719607 362.578433 677.286474 353.050965 
" style="fill:none;stroke:#000000;stroke-linecap:round;"/>
    <path clip-path="url(#p73252b0be9)" d="M 673.037365 351.656306 
L 677.286474 353.050965 
L 673.621281 355.613456 
L 673.037365 351.656306 
z
" style="stroke:#000000;stroke-linecap:round;"/>
   </g>
   <g id="patch_11">
    <path clip-path="url(#p73252b0be9)" d="M 424.807913 247.855066 
Q 307.653198 244.076627 191.615936 240.334228 
" style="fill:none;stroke:#000000;stroke-linecap:round;"/>
    <path clip-path="url(#p73252b0be9)" d="M 195.549388 242.462128 
L 191.615936 240.334228 
L 195.678327 238.464207 
L 195.549388 242.462128 
z
" style="stroke:#000000;stroke-linecap:round;"/>
   </g>
   <g id="patch_12">
    <path clip-path="url(#p73252b0be9)" d="M 430.395253 240.032909 
Q 408.644766 182.648596 387.29054 126.309738 
" style="fill:none;stroke:#000000;stroke-linecap:round;"/>
    <path clip-path="url(#p73252b0be9)" d="M 386.838078 130.758927 
L 387.29054 126.309738 
L 390.578414 129.34122 
L 386.838078 130.758927 
z
" style="stroke:#000000;stroke-linecap:round;"/>
   </g>
   <g id="patch_13">
    <path clip-path="url(#p73252b0be9)" d="M 441.484399 251.407809 
Q 560.213527 299.878542 677.907556 347.9267 
" style="fill:none;stroke:#000000;stroke-linecap:round;"/>
    <path clip-path="url(#p73252b0be9)" d="M 674.960199 344.563207 
L 677.907556 347.9267 
L 673.448347 348.26649 
L 674.960199 344.563207 
z
" style="stroke:#000000;stroke-linecap:round;"/>
   </g>
   <g id="patch_14">
    <path clip-path="url(#p73252b0be9)" d="M 253.363582 400.775807 
Q 275.081616 425.337992 296.059061 449.062603 
" style="fill:none;stroke:#000000;stroke-linecap:round;"/>
    <path clip-path="url(#p73252b0be9)" d="M 294.907751 444.741204 
L 296.059061 449.062603 
L 291.911157 447.390812 
L 294.907751 444.741204 
z
" style="stroke:#000000;stroke-linecap:round;"/>
   </g>
   <g id="patch_15">
    <path clip-path="url(#p73252b0be9)" d="M 239.432232 391.491729 
Q 221.854144 385.492144 205.334157 379.8537 
" style="fill:none;stroke:#000000;stroke-linecap:round;"/>
    <path clip-path="url(#p73252b0be9)" d="M 208.473705 383.038545 
L 205.334157 379.8537 
L 209.765762 379.252968 
L 208.473705 383.038545 
z
" style="stroke:#000000;stroke-linecap:round;"/>
   </g>
   <g id="patch_16">
    <path clip-path="url(#p73252b0be9)" d="M 424.361473 291.116687 
Q 313.986476 244.712417 204.642131 198.741457 
" style="fill:none;stroke:#000000;stroke-linecap:round;"/>
    <path clip-path="url(#p73252b0be9)" d="M 207.554373 202.1354 
L 204.642131 198.741457 
L 209.104631 198.44803 
L 207.554373 202.1354 
z
" style="stroke:#000000;stroke-linecap:round;"/>
   </g>
   <g id="patch_17">
    <path clip-path="url(#p73252b0be9)" d="M 440.467532 297.494399 
Q 554.233218 339.808735 666.951006 381.733312 
" style="fill:none;stroke:#000000;stroke-linecap:round;"/>
    <path clip-path="url(#p73252b0be9)" d="M 663.899155 378.464336 
L 666.951006 381.733312 
L 662.504715 382.213407 
L 663.899155 378.464336 
z
" style="stroke:#000000;stroke-linecap:round;"/>
   </g>
   <g id="patch_18">
    <path clip-path="url(#p73252b0be9)" d="M 549.786381 271.767173 
Q 546.809306 199.659257 543.878351 128.668424 
" style="fill:none;stroke:#000000;stroke-linecap:round;"/>
    <path clip-path="url(#p73252b0be9)" d="M 542.045058 132.747522 
L 543.878351 128.668424 
L 546.041654 132.582517 
L 542.045058 132.747522 
z
" style="stroke:#000000;stroke-linecap:round;"/>
   </g>
   <g id="patch_19">
    <path clip-path="url(#p73252b0be9)" d="M 547.996713 288.810481 
Q 525.364452 377.286121 503.009266 464.678602 
" style="fill:none;stroke:#000000;stroke-linecap:round;"/>
    <path clip-path="url(#p73252b0be9)" d="M 505.938167 461.299026 
L 503.009266 464.678602 
L 502.062945 460.307736 
L 505.938167 461.299026 
z
" style="stroke:#000000;stroke-linecap:round;"/>
   </g>
   <g id="patch_20">
    <path clip-path="url(#p73252b0be9)" d="M 554.586821 272.980492 
Q 583.957582 223.817772 612.754942 175.614849 
" style="fill:none;stroke:#000000;stroke-linecap:round;"/>
    <path clip-path="url(#p73252b0be9)" d="M 608.986541 178.022992 
L 612.754942 175.614849 
L 612.420416 180.074456 
L 608.986541 178.022992 
z
" style="stroke:#000000;stroke-linecap:round;"/>
   </g>
   <g id="patch_21">
    <path clip-path="url(#p73252b0be9)" d="M 502.242385 338.817792 
Q 547.583492 384.676253 592.138528 429.739673 
" style="fill:none;stroke:#000000;stroke-linecap:round;"/>
    <path clip-path="url(#p73252b0be9)" d="M 590.748404 425.489078 
L 592.138528 429.739673 
L 587.903978 428.301415 
L 590.748404 425.489078 
z
" style="stroke:#000000;stroke-linecap:round;"/>
   </g>
   <g id="patch_22">
    <path clip-path="url(#p73252b0be9)" d="M 336.948165 420.502964 
Q 279.855015 417.252956 223.878092 414.066488 
" style="fill:none;stroke:#000000;stroke-linecap:round;"/>
    <path clip-path="url(#p73252b0be9)" d="M 227.757961 416.290586 
L 223.878092 414.066488 
L 227.985292 412.297051 
L 227.757961 416.290586 
z
" style="stroke:#000000;stroke-linecap:round;"/>
   </g>
   <g id="patch_23">
    <path clip-path="url(#p73252b0be9)" d="M 242.729352 348.187231 
Q 230.158538 376.883849 218.036333 404.556382 
" style="fill:none;stroke:#000000;stroke-linecap:round;"/>
    <path clip-path="url(#p73252b0be9)" d="M 221.473266 401.695003 
L 218.036333 404.556382 
L 217.809389 400.090008 
L 221.473266 401.695003 
z
" style="stroke:#000000;stroke-linecap:round;"/>
   </g>
   <g id="patch_24">
    <path clip-path="url(#p73252b0be9)" d="M 473.696647 473.195573 
Q 516.477758 469.29257 558.14546 465.491146 
" style="fill:none;stroke:#000000;stroke-linecap:round;"/>
    <path clip-path="url(#p73252b0be9)" d="M 553.980294 463.862836 
L 558.14546 465.491146 
L 554.343712 467.846293 
L 553.980294 463.862836 
z
" style="stroke:#000000;stroke-linecap:round;"/>
   </g>
   <g id="patch_25">
    <path clip-path="url(#p73252b0be9)" d="M 542.870782 438.222149 
Q 596.814258 429.961181 649.652584 421.869457 
" style="fill:none;stroke:#000000;stroke-linecap:round;"/>
    <path clip-path="url(#p73252b0be9)" d="M 645.395927 420.49801 
L 649.652584 421.869457 
L 646.001432 424.451915 
L 645.395927 420.49801 
z
" style="stroke:#000000;stroke-linecap:round;"/>
   </g>
   <g id="patch_26">
    <path clip-path="url(#p73252b0be9)" d="M 295.28327 131.991335 
Q 310.024104 128.341579 323.679674 124.960529 
" style="fill:none;stroke:#000000;stroke-linecap:round;"/>
    <path clip-path="url(#p73252b0be9)" d="M 319.316242 123.980501 
L 323.679674 124.960529 
L 320.277593 127.863259 
L 319.316242 123.980501 
z
" style="stroke:#000000;stroke-linecap:round;"/>
   </g>
   <g id="patch_27">
    <path clip-path="url(#p73252b0be9)" d="M 359.623833 221.823068 
Q 275.039278 230.480265 191.566946 239.023627 
" style="fill:none;stroke:#000000;stroke-linecap:round;"/>
    <path clip-path="url(#p73252b0be9)" d="M 195.749794 240.605963 
L 191.566946 239.023627 
L 195.342523 236.62675 
L 195.749794 240.605963 
z
" style="stroke:#000000;stroke-linecap:round;"/>
   </g>
   <g id="patch_28">
    <path clip-path="url(#p73252b0be9)" d="M 369.525609 212.374917 
Q 376.032725 169.05319 382.37377 126.837095 
" style="fill:none;stroke:#000000;stroke-linecap:round;"/>
    <path clip-path="url(#p73252b0be9)" d="M 379.801804 130.495645 
L 382.37377 126.837095 
L 383.75743 131.089798 
L 379.801804 130.495645 
z
" style="stroke:#000000;stroke-linecap:round;"/>
   </g>
   <g id="patch_29">
    <path clip-path="url(#p73252b0be9)" d="M 552.66623 247.0079 
Q 631.860902 265.3087 709.966247 283.357771 
" style="fill:none;stroke:#000000;stroke-linecap:round;"/>
    <path clip-path="url(#p73252b0be9)" d="M 706.519259 280.508513 
L 709.966247 283.357771 
L 705.618648 284.405807 
L 706.519259 280.508513 
z
" style="stroke:#000000;stroke-linecap:round;"/>
   </g>
   <g id="patch_30">
    <path clip-path="url(#p73252b0be9)" d="M 629.004183 244.908756 
Q 670.298821 263.459528 710.573606 281.552152 
" style="fill:none;stroke:#000000;stroke-linecap:round;"/>
    <path clip-path="url(#p73252b0be9)" d="M 707.744429 278.088662 
L 710.573606 281.552152 
L 706.105308 281.7374 
L 707.744429 278.088662 
z
" style="stroke:#000000;stroke-linecap:round;"/>
   </g>
   <g id="patch_31">
    <path clip-path="url(#p73252b0be9)" d="M 628.926663 237.640133 
Q 658.990937 223.343755 688.045523 209.527511 
" style="fill:none;stroke:#000000;stroke-linecap:round;"/>
    <path clip-path="url(#p73252b0be9)" d="M 683.574261 209.439106 
L 688.045523 209.527511 
L 685.292042 213.051477 
L 683.574261 209.439106 
z
" style="stroke:#000000;stroke-linecap:round;"/>
   </g>
   <g id="patch_32">
    <path clip-path="url(#p73252b0be9)" d="M 669.53085 278.739387 
Q 690.22338 281.563986 709.808149 284.237373 
" style="fill:none;stroke:#000000;stroke-linecap:round;"/>
    <path clip-path="url(#p73252b0be9)" d="M 706.115401 281.714753 
L 709.808149 284.237373 
L 705.574404 285.677999 
L 706.115401 281.714753 
z
" style="stroke:#000000;stroke-linecap:round;"/>
   </g>
   <g id="patch_33">
    <path clip-path="url(#p73252b0be9)" d="M 664.808197 269.812747 
Q 678.911659 241.450048 692.517322 214.088445 
" style="fill:none;stroke:#000000;stroke-linecap:round;"/>
    <path clip-path="url(#p73252b0be9)" d="M 688.945523 216.779588 
L 692.517322 214.088445 
L 692.527158 218.56057 
L 688.945523 216.779588 
z
" style="stroke:#000000;stroke-linecap:round;"/>
   </g>
   <g id="patch_34">
    <path clip-path="url(#p73252b0be9)" d="M 497.727503 214.037075 
Q 541.506981 179.793198 584.405822 146.238145 
" style="fill:none;stroke:#000000;stroke-linecap:round;"/>
    <path clip-path="url(#p73252b0be9)" d="M 580.022955 147.12723 
L 584.405822 146.238145 
L 582.48737 150.27789 
L 580.022955 147.12723 
z
" style="stroke:#000000;stroke-linecap:round;"/>
   </g>
   <g id="patch_35">
    <path clip-path="url(#p73252b0be9)" d="M 581.139633 205.245538 
Q 513.040674 158.864532 445.865782 113.11289 
" style="fill:none;stroke:#000000;stroke-linecap:round;"/>
    <path clip-path="url(#p73252b0be9)" d="M 448.04598 117.017597 
L 445.865782 113.11289 
L 450.297666 113.711556 
L 448.04598 117.017597 
z
" style="stroke:#000000;stroke-linecap:round;"/>
   </g>
   <g id="patch_36">
    <path clip-path="url(#p73252b0be9)" d="M 594.69101 215.96039 
Q 652.611253 268.865989 709.705999 321.017563 
" style="fill:none;stroke:#000000;stroke-linecap:round;"/>
    <path clip-path="url(#p73252b0be9)" d="M 708.101456 316.843184 
L 709.705999 321.017563 
L 705.40377 319.79657 
L 708.101456 316.843184 
z
" style="stroke:#000000;stroke-linecap:round;"/>
   </g>
   <g id="patch_37">
    <path clip-path="url(#p73252b0be9)" d="M 369.354505 383.996042 
Q 271.84716 352.302035 175.40309 320.953637 
" style="fill:none;stroke:#000000;stroke-linecap:round;"/>
    <path clip-path="url(#p73252b0be9)" d="M 178.588934 324.092171 
L 175.40309 320.953637 
L 179.825424 320.288082 
L 178.588934 324.092171 
z
" style="stroke:#000000;stroke-linecap:round;"/>
   </g>
   <g id="patch_38">
    <path clip-path="url(#p73252b0be9)" d="M 386.042942 388.582693 
Q 488.304085 411.682722 589.474673 434.536402 
" style="fill:none;stroke:#000000;stroke-linecap:round;"/>
    <path clip-path="url(#p73252b0be9)" d="M 586.013663 431.704193 
L 589.474673 434.536402 
L 585.1323 435.605884 
L 586.013663 431.704193 
z
" style="stroke:#000000;stroke-linecap:round;"/>
   </g>
   <g id="PathCollection_1">
    <defs>
     <path d="M 0 8.660254 
C 2.296726 8.660254 4.499694 7.747755 6.123724 6.123724 
C 7.747755 4.499694 8.660254 2.296726 8.660254 -0 
C 8.660254 -2.296726 7.747755 -4.499694 6.123724 -6.123724 
C 4.499694 -7.747755 2.296726 -8.660254 0 -8.660254 
C -2.296726 -8.660254 -4.499694 -7.747755 -6.123724 -6.123724 
C -7.747755 -4.499694 -8.660254 -2.296726 -8.660254 0 
C -8.660254 2.296726 -7.747755 4.499694 -6.123724 6.123724 
C -4.499694 7.747755 -2.296726 8.660254 0 8.660254 
z
" id="C0_0_75819d17b6"/>
    </defs>
    <g clip-path="url(#p73252b0be9)">
     <use style="fill:#ff0000;stroke:#ff0000;" x="716.927184" xlink:href="#C0_0_75819d17b6" y="327.613549"/>
    </g>
    <g clip-path="url(#p73252b0be9)">
     <use style="fill:#ff0000;stroke:#ff0000;" x="302.534903" xlink:href="#C0_0_75819d17b6" y="456.386508"/>
    </g>
    <g clip-path="url(#p73252b0be9)">
     <use style="fill:#ff0000;stroke:#ff0000;" x="500.585764" xlink:href="#C0_0_75819d17b6" y="474.152727"/>
    </g>
    <g clip-path="url(#p73252b0be9)">
     <use style="fill:#ff0000;stroke:#ff0000;" x="617.768906" xlink:href="#C0_0_75819d17b6" y="167.222145"/>
    </g>
    <g clip-path="url(#p73252b0be9)">
     <use style="fill:#ff0000;stroke:#ff0000;" x="214.11383" xlink:href="#C0_0_75819d17b6" y="413.510661"/>
    </g>
    <g clip-path="url(#p73252b0be9)">
     <use style="fill:#ff0000;stroke:#ff0000;" x="167.229004" xlink:href="#C0_0_75819d17b6" y="278.076578"/>
    </g>
    <g clip-path="url(#p73252b0be9)">
     <use style="fill:#ff0000;stroke:#ff0000;" x="236.711242" xlink:href="#C0_0_75819d17b6" y="163.9898"/>
    </g>
    <g clip-path="url(#p73252b0be9)">
     <use style="fill:#ff0000;stroke:#ff0000;" x="437.782154" xlink:href="#C0_0_75819d17b6" y="107.607273"/>
    </g>
    <g clip-path="url(#p73252b0be9)">
     <use style="fill:#ff0000;stroke:#ff0000;" x="263.162678" xlink:href="#C0_0_75819d17b6" y="431.100131"/>
    </g>
    <g clip-path="url(#p73252b0be9)">
     <use style="fill:#ff0000;stroke:#ff0000;" x="305.757435" xlink:href="#C0_0_75819d17b6" y="271.103684"/>
    </g>
    <g clip-path="url(#p73252b0be9)">
     <use style="fill:#ff0000;stroke:#ff0000;" x="350.728858" xlink:href="#C0_0_75819d17b6" y="271.663826"/>
    </g>
    <g clip-path="url(#p73252b0be9)">
     <use style="fill:#ff0000;stroke:#ff0000;" x="332.11135" xlink:href="#C0_0_75819d17b6" y="263.257237"/>
    </g>
    <g clip-path="url(#p73252b0be9)">
     <use style="fill:#ff0000;stroke:#ff0000;" x="495.376495" xlink:href="#C0_0_75819d17b6" y="133.138276"/>
    </g>
    <g clip-path="url(#p73252b0be9)">
     <use style="fill:#ff0000;stroke:#ff0000;" x="702.643152" xlink:href="#C0_0_75819d17b6" y="254.348837"/>
    </g>
    <g clip-path="url(#p73252b0be9)">
     <use style="fill:#ff0000;stroke:#ff0000;" x="686.962185" xlink:href="#C0_0_75819d17b6" y="351.62322"/>
    </g>
    <g clip-path="url(#p73252b0be9)">
     <use style="fill:#ff0000;stroke:#ff0000;" x="598.974957" xlink:href="#C0_0_75819d17b6" y="180.66869"/>
    </g>
    <g clip-path="url(#p73252b0be9)">
     <use style="fill:#ff0000;stroke:#ff0000;" x="674.254091" xlink:href="#C0_0_75819d17b6" y="194.417084"/>
    </g>
    <g clip-path="url(#p73252b0be9)">
     <use style="fill:#ff0000;stroke:#ff0000;" x="538.477837" xlink:href="#C0_0_75819d17b6" y="373.533527"/>
    </g>
    <g clip-path="url(#p73252b0be9)">
     <use style="fill:#ff0000;stroke:#ff0000;" x="433.46594" xlink:href="#C0_0_75819d17b6" y="248.134302"/>
    </g>
    <g clip-path="url(#p73252b0be9)">
     <use style="fill:#ff0000;stroke:#ff0000;" x="196.08168" xlink:href="#C0_0_75819d17b6" y="376.695733"/>
    </g>
    <g clip-path="url(#p73252b0be9)">
     <use style="fill:#ff0000;stroke:#ff0000;" x="195.629453" xlink:href="#C0_0_75819d17b6" y="194.952313"/>
    </g>
    <g clip-path="url(#p73252b0be9)">
     <use style="fill:#ff0000;stroke:#ff0000;" x="676.114365" xlink:href="#C0_0_75819d17b6" y="385.141558"/>
    </g>
    <g clip-path="url(#p73252b0be9)">
     <use style="fill:#ff0000;stroke:#ff0000;" x="247.627906" xlink:href="#C0_0_75819d17b6" y="394.288997"/>
    </g>
    <g clip-path="url(#p73252b0be9)">
     <use style="fill:#ff0000;stroke:#ff0000;" x="432.347679" xlink:href="#C0_0_75819d17b6" y="294.474278"/>
    </g>
    <g clip-path="url(#p73252b0be9)">
     <use style="fill:#ff0000;stroke:#ff0000;" x="543.474939" xlink:href="#C0_0_75819d17b6" y="118.897366"/>
    </g>
    <g clip-path="url(#p73252b0be9)">
     <use style="fill:#ff0000;stroke:#ff0000;" x="550.143541" xlink:href="#C0_0_75819d17b6" y="280.417948"/>
    </g>
    <g clip-path="url(#p73252b0be9)">
     <use style="fill:#ff0000;stroke:#ff0000;" x="599.011031" xlink:href="#C0_0_75819d17b6" y="436.690594"/>
    </g>
    <g clip-path="url(#p73252b0be9)">
     <use style="fill:#ff0000;stroke:#ff0000;" x="166.105785" xlink:href="#C0_0_75819d17b6" y="317.93162"/>
    </g>
    <g clip-path="url(#p73252b0be9)">
     <use style="fill:#ff0000;stroke:#ff0000;" x="496.156089" xlink:href="#C0_0_75819d17b6" y="332.66205"/>
    </g>
    <g clip-path="url(#p73252b0be9)">
     <use style="fill:#ff0000;stroke:#ff0000;" x="345.59508" xlink:href="#C0_0_75819d17b6" y="420.995186"/>
    </g>
    <g clip-path="url(#p73252b0be9)">
     <use style="fill:#ff0000;stroke:#ff0000;" x="246.206151" xlink:href="#C0_0_75819d17b6" y="340.250405"/>
    </g>
    <g clip-path="url(#p73252b0be9)">
     <use style="fill:#ff0000;stroke:#ff0000;" x="659.318611" xlink:href="#C0_0_75819d17b6" y="420.38919"/>
    </g>
    <g clip-path="url(#p73252b0be9)">
     <use style="fill:#ff0000;stroke:#ff0000;" x="567.88494" xlink:href="#C0_0_75819d17b6" y="464.602595"/>
    </g>
    <g clip-path="url(#p73252b0be9)">
     <use style="fill:#ff0000;stroke:#ff0000;" x="465.071323" xlink:href="#C0_0_75819d17b6" y="473.982478"/>
    </g>
    <g clip-path="url(#p73252b0be9)">
     <use style="fill:#ff0000;stroke:#ff0000;" x="534.314107" xlink:href="#C0_0_75819d17b6" y="439.532529"/>
    </g>
    <g clip-path="url(#p73252b0be9)">
     <use style="fill:#ff0000;stroke:#ff0000;" x="181.841777" xlink:href="#C0_0_75819d17b6" y="240.018995"/>
    </g>
    <g clip-path="url(#p73252b0be9)">
     <use style="fill:#ff0000;stroke:#ff0000;" x="383.825946" xlink:href="#C0_0_75819d17b6" y="117.169099"/>
    </g>
    <g clip-path="url(#p73252b0be9)">
     <use style="fill:#ff0000;stroke:#ff0000;" x="333.167792" xlink:href="#C0_0_75819d17b6" y="122.611319"/>
    </g>
    <g clip-path="url(#p73252b0be9)">
     <use style="fill:#ff0000;stroke:#ff0000;" x="286.877986" xlink:href="#C0_0_75819d17b6" y="134.072441"/>
    </g>
    <g clip-path="url(#p73252b0be9)">
     <use style="fill:#ff0000;stroke:#ff0000;" x="368.238897" xlink:href="#C0_0_75819d17b6" y="220.941319"/>
    </g>
    <g clip-path="url(#p73252b0be9)">
     <use style="fill:#ff0000;stroke:#ff0000;" x="719.494215" xlink:href="#C0_0_75819d17b6" y="285.559553"/>
    </g>
    <g clip-path="url(#p73252b0be9)">
     <use style="fill:#ff0000;stroke:#ff0000;" x="544.228688" xlink:href="#C0_0_75819d17b6" y="245.058101"/>
    </g>
    <g clip-path="url(#p73252b0be9)">
     <use style="fill:#ff0000;stroke:#ff0000;" x="621.104283" xlink:href="#C0_0_75819d17b6" y="241.359887"/>
    </g>
    <g clip-path="url(#p73252b0be9)">
     <use style="fill:#ff0000;stroke:#ff0000;" x="696.872462" xlink:href="#C0_0_75819d17b6" y="205.330062"/>
    </g>
    <g clip-path="url(#p73252b0be9)">
     <use style="fill:#ff0000;stroke:#ff0000;" x="660.951716" xlink:href="#C0_0_75819d17b6" y="277.568306"/>
    </g>
    <g clip-path="url(#p73252b0be9)">
     <use style="fill:#ff0000;stroke:#ff0000;" x="490.904936" xlink:href="#C0_0_75819d17b6" y="219.37362"/>
    </g>
    <g clip-path="url(#p73252b0be9)">
     <use style="fill:#ff0000;stroke:#ff0000;" x="592.109945" xlink:href="#C0_0_75819d17b6" y="140.212056"/>
    </g>
    <g clip-path="url(#p73252b0be9)">
     <use style="fill:#ff0000;stroke:#ff0000;" x="588.298435" xlink:href="#C0_0_75819d17b6" y="210.121273"/>
    </g>
    <g clip-path="url(#p73252b0be9)">
     <use style="fill:#ff0000;stroke:#ff0000;" x="377.593141" xlink:href="#C0_0_75819d17b6" y="386.673946"/>
    </g>
   </g>
   <g id="text_1">
    <g clip-path="url(#p73252b0be9)">
     <!-- ACVR2A -->
     <g transform="translate(692.542809 330.924799)scale(0.12 -0.12)">
      <defs>
       <path d="M 34.1875 63.1875 
L 20.796875 26.90625 
L 47.609375 26.90625 
z
M 28.609375 72.90625 
L 39.796875 72.90625 
L 67.578125 0 
L 57.328125 0 
L 50.6875 18.703125 
L 17.828125 18.703125 
L 11.1875 0 
L 0.78125 0 
z
" id="DejaVuSans-65"/>
       <path d="M 64.40625 67.28125 
L 64.40625 56.890625 
Q 59.421875 61.53125 53.78125 63.8125 
Q 48.140625 66.109375 41.796875 66.109375 
Q 29.296875 66.109375 22.65625 58.46875 
Q 16.015625 50.828125 16.015625 36.375 
Q 16.015625 21.96875 22.65625 14.328125 
Q 29.296875 6.6875 41.796875 6.6875 
Q 48.140625 6.6875 53.78125 8.984375 
Q 59.421875 11.28125 64.40625 15.921875 
L 64.40625 5.609375 
Q 59.234375 2.09375 53.4375 0.328125 
Q 47.65625 -1.421875 41.21875 -1.421875 
Q 24.65625 -1.421875 15.125 8.703125 
Q 5.609375 18.84375 5.609375 36.375 
Q 5.609375 53.953125 15.125 64.078125 
Q 24.65625 74.21875 41.21875 74.21875 
Q 47.75 74.21875 53.53125 72.484375 
Q 59.328125 70.75 64.40625 67.28125 
z
" id="DejaVuSans-67"/>
       <path d="M 28.609375 0 
L 0.78125 72.90625 
L 11.078125 72.90625 
L 34.1875 11.53125 
L 57.328125 72.90625 
L 67.578125 72.90625 
L 39.796875 0 
z
" id="DejaVuSans-86"/>
       <path d="M 44.390625 34.1875 
Q 47.5625 33.109375 50.5625 29.59375 
Q 53.5625 26.078125 56.59375 19.921875 
L 66.609375 0 
L 56 0 
L 46.6875 18.703125 
Q 43.0625 26.03125 39.671875 28.421875 
Q 36.28125 30.8125 30.421875 30.8125 
L 19.671875 30.8125 
L 19.671875 0 
L 9.8125 0 
L 9.8125 72.90625 
L 32.078125 72.90625 
Q 44.578125 72.90625 50.734375 67.671875 
Q 56.890625 62.453125 56.890625 51.90625 
Q 56.890625 45.015625 53.6875 40.46875 
Q 50.484375 35.9375 44.390625 34.1875 
z
M 19.671875 64.796875 
L 19.671875 38.921875 
L 32.078125 38.921875 
Q 39.203125 38.921875 42.84375 42.21875 
Q 46.484375 45.515625 46.484375 51.90625 
Q 46.484375 58.296875 42.84375 61.546875 
Q 39.203125 64.796875 32.078125 64.796875 
z
" id="DejaVuSans-82"/>
       <path d="M 19.1875 8.296875 
L 53.609375 8.296875 
L 53.609375 0 
L 7.328125 0 
L 7.328125 8.296875 
Q 12.9375 14.109375 22.625 23.890625 
Q 32.328125 33.6875 34.8125 36.53125 
Q 39.546875 41.84375 41.421875 45.53125 
Q 43.3125 49.21875 43.3125 52.78125 
Q 43.3125 58.59375 39.234375 62.25 
Q 35.15625 65.921875 28.609375 65.921875 
Q 23.96875 65.921875 18.8125 64.3125 
Q 13.671875 62.703125 7.8125 59.421875 
L 7.8125 69.390625 
Q 13.765625 71.78125 18.9375 73 
Q 24.125 74.21875 28.421875 74.21875 
Q 39.75 74.21875 46.484375 68.546875 
Q 53.21875 62.890625 53.21875 53.421875 
Q 53.21875 48.921875 51.53125 44.890625 
Q 49.859375 40.875 45.40625 35.40625 
Q 44.1875 33.984375 37.640625 27.21875 
Q 31.109375 20.453125 19.1875 8.296875 
z
" id="DejaVuSans-50"/>
      </defs>
      <use xlink:href="#DejaVuSans-65"/>
      <use x="66.658203" xlink:href="#DejaVuSans-67"/>
      <use x="136.482422" xlink:href="#DejaVuSans-86"/>
      <use x="204.890625" xlink:href="#DejaVuSans-82"/>
      <use x="274.373047" xlink:href="#DejaVuSans-50"/>
      <use x="337.996094" xlink:href="#DejaVuSans-65"/>
     </g>
    </g>
   </g>
   <g id="text_2">
    <g clip-path="url(#p73252b0be9)">
     <!-- IL10RB -->
     <g transform="translate(281.501153 459.697758)scale(0.12 -0.12)">
      <defs>
       <path d="M 9.8125 72.90625 
L 19.671875 72.90625 
L 19.671875 0 
L 9.8125 0 
z
" id="DejaVuSans-73"/>
       <path d="M 9.8125 72.90625 
L 19.671875 72.90625 
L 19.671875 8.296875 
L 55.171875 8.296875 
L 55.171875 0 
L 9.8125 0 
z
" id="DejaVuSans-76"/>
       <path d="M 12.40625 8.296875 
L 28.515625 8.296875 
L 28.515625 63.921875 
L 10.984375 60.40625 
L 10.984375 69.390625 
L 28.421875 72.90625 
L 38.28125 72.90625 
L 38.28125 8.296875 
L 54.390625 8.296875 
L 54.390625 0 
L 12.40625 0 
z
" id="DejaVuSans-49"/>
       <path d="M 31.78125 66.40625 
Q 24.171875 66.40625 20.328125 58.90625 
Q 16.5 51.421875 16.5 36.375 
Q 16.5 21.390625 20.328125 13.890625 
Q 24.171875 6.390625 31.78125 6.390625 
Q 39.453125 6.390625 43.28125 13.890625 
Q 47.125 21.390625 47.125 36.375 
Q 47.125 51.421875 43.28125 58.90625 
Q 39.453125 66.40625 31.78125 66.40625 
z
M 31.78125 74.21875 
Q 44.046875 74.21875 50.515625 64.515625 
Q 56.984375 54.828125 56.984375 36.375 
Q 56.984375 17.96875 50.515625 8.265625 
Q 44.046875 -1.421875 31.78125 -1.421875 
Q 19.53125 -1.421875 13.0625 8.265625 
Q 6.59375 17.96875 6.59375 36.375 
Q 6.59375 54.828125 13.0625 64.515625 
Q 19.53125 74.21875 31.78125 74.21875 
z
" id="DejaVuSans-48"/>
       <path d="M 19.671875 34.8125 
L 19.671875 8.109375 
L 35.5 8.109375 
Q 43.453125 8.109375 47.28125 11.40625 
Q 51.125 14.703125 51.125 21.484375 
Q 51.125 28.328125 47.28125 31.5625 
Q 43.453125 34.8125 35.5 34.8125 
z
M 19.671875 64.796875 
L 19.671875 42.828125 
L 34.28125 42.828125 
Q 41.5 42.828125 45.03125 45.53125 
Q 48.578125 48.25 48.578125 53.8125 
Q 48.578125 59.328125 45.03125 62.0625 
Q 41.5 64.796875 34.28125 64.796875 
z
M 9.8125 72.90625 
L 35.015625 72.90625 
Q 46.296875 72.90625 52.390625 68.21875 
Q 58.5 63.53125 58.5 54.890625 
Q 58.5 48.1875 55.375 44.234375 
Q 52.25 40.28125 46.1875 39.3125 
Q 53.46875 37.75 57.5 32.78125 
Q 61.53125 27.828125 61.53125 20.40625 
Q 61.53125 10.640625 54.890625 5.3125 
Q 48.25 0 35.984375 0 
L 9.8125 0 
z
" id="DejaVuSans-66"/>
      </defs>
      <use xlink:href="#DejaVuSans-73"/>
      <use x="29.492188" xlink:href="#DejaVuSans-76"/>
      <use x="85.205078" xlink:href="#DejaVuSans-49"/>
      <use x="148.828125" xlink:href="#DejaVuSans-48"/>
      <use x="212.451172" xlink:href="#DejaVuSans-82"/>
      <use x="281.933594" xlink:href="#DejaVuSans-66"/>
     </g>
    </g>
   </g>
   <g id="text_3">
    <g clip-path="url(#p73252b0be9)">
     <!-- IL2RG -->
     <g transform="translate(482.837014 477.463977)scale(0.12 -0.12)">
      <defs>
       <path d="M 59.515625 10.40625 
L 59.515625 29.984375 
L 43.40625 29.984375 
L 43.40625 38.09375 
L 69.28125 38.09375 
L 69.28125 6.78125 
Q 63.578125 2.734375 56.6875 0.65625 
Q 49.8125 -1.421875 42 -1.421875 
Q 24.90625 -1.421875 15.25 8.5625 
Q 5.609375 18.5625 5.609375 36.375 
Q 5.609375 54.25 15.25 64.234375 
Q 24.90625 74.21875 42 74.21875 
Q 49.125 74.21875 55.546875 72.453125 
Q 61.96875 70.703125 67.390625 67.28125 
L 67.390625 56.78125 
Q 61.921875 61.421875 55.765625 63.765625 
Q 49.609375 66.109375 42.828125 66.109375 
Q 29.4375 66.109375 22.71875 58.640625 
Q 16.015625 51.171875 16.015625 36.375 
Q 16.015625 21.625 22.71875 14.15625 
Q 29.4375 6.6875 42.828125 6.6875 
Q 48.046875 6.6875 52.140625 7.59375 
Q 56.25 8.5 59.515625 10.40625 
z
" id="DejaVuSans-71"/>
      </defs>
      <use xlink:href="#DejaVuSans-73"/>
      <use x="29.492188" xlink:href="#DejaVuSans-76"/>
      <use x="85.205078" xlink:href="#DejaVuSans-50"/>
      <use x="148.828125" xlink:href="#DejaVuSans-82"/>
      <use x="218.310547" xlink:href="#DejaVuSans-71"/>
     </g>
    </g>
   </g>
   <g id="text_4">
    <g clip-path="url(#p73252b0be9)">
     <!-- IL2RB -->
     <g transform="translate(600.552656 170.533395)scale(0.12 -0.12)">
      <use xlink:href="#DejaVuSans-73"/>
      <use x="29.492188" xlink:href="#DejaVuSans-76"/>
      <use x="85.205078" xlink:href="#DejaVuSans-50"/>
      <use x="148.828125" xlink:href="#DejaVuSans-82"/>
      <use x="218.310547" xlink:href="#DejaVuSans-66"/>
     </g>
    </g>
   </g>
   <g id="text_5">
    <g clip-path="url(#p73252b0be9)">
     <!-- IL6ST -->
     <g transform="translate(197.709455 416.821911)scale(0.12 -0.12)">
      <defs>
       <path d="M 33.015625 40.375 
Q 26.375 40.375 22.484375 35.828125 
Q 18.609375 31.296875 18.609375 23.390625 
Q 18.609375 15.53125 22.484375 10.953125 
Q 26.375 6.390625 33.015625 6.390625 
Q 39.65625 6.390625 43.53125 10.953125 
Q 47.40625 15.53125 47.40625 23.390625 
Q 47.40625 31.296875 43.53125 35.828125 
Q 39.65625 40.375 33.015625 40.375 
z
M 52.59375 71.296875 
L 52.59375 62.3125 
Q 48.875 64.0625 45.09375 64.984375 
Q 41.3125 65.921875 37.59375 65.921875 
Q 27.828125 65.921875 22.671875 59.328125 
Q 17.53125 52.734375 16.796875 39.40625 
Q 19.671875 43.65625 24.015625 45.921875 
Q 28.375 48.1875 33.59375 48.1875 
Q 44.578125 48.1875 50.953125 41.515625 
Q 57.328125 34.859375 57.328125 23.390625 
Q 57.328125 12.15625 50.6875 5.359375 
Q 44.046875 -1.421875 33.015625 -1.421875 
Q 20.359375 -1.421875 13.671875 8.265625 
Q 6.984375 17.96875 6.984375 36.375 
Q 6.984375 53.65625 15.1875 63.9375 
Q 23.390625 74.21875 37.203125 74.21875 
Q 40.921875 74.21875 44.703125 73.484375 
Q 48.484375 72.75 52.59375 71.296875 
z
" id="DejaVuSans-54"/>
       <path d="M 53.515625 70.515625 
L 53.515625 60.890625 
Q 47.90625 63.578125 42.921875 64.890625 
Q 37.9375 66.21875 33.296875 66.21875 
Q 25.25 66.21875 20.875 63.09375 
Q 16.5 59.96875 16.5 54.203125 
Q 16.5 49.359375 19.40625 46.890625 
Q 22.3125 44.4375 30.421875 42.921875 
L 36.375 41.703125 
Q 47.40625 39.59375 52.65625 34.296875 
Q 57.90625 29 57.90625 20.125 
Q 57.90625 9.515625 50.796875 4.046875 
Q 43.703125 -1.421875 29.984375 -1.421875 
Q 24.8125 -1.421875 18.96875 -0.25 
Q 13.140625 0.921875 6.890625 3.21875 
L 6.890625 13.375 
Q 12.890625 10.015625 18.65625 8.296875 
Q 24.421875 6.59375 29.984375 6.59375 
Q 38.421875 6.59375 43.015625 9.90625 
Q 47.609375 13.234375 47.609375 19.390625 
Q 47.609375 24.75 44.3125 27.78125 
Q 41.015625 30.8125 33.5 32.328125 
L 27.484375 33.5 
Q 16.453125 35.6875 11.515625 40.375 
Q 6.59375 45.0625 6.59375 53.421875 
Q 6.59375 63.09375 13.40625 68.65625 
Q 20.21875 74.21875 32.171875 74.21875 
Q 37.3125 74.21875 42.625 73.28125 
Q 47.953125 72.359375 53.515625 70.515625 
z
" id="DejaVuSans-83"/>
       <path d="M -0.296875 72.90625 
L 61.375 72.90625 
L 61.375 64.59375 
L 35.5 64.59375 
L 35.5 0 
L 25.59375 0 
L 25.59375 64.59375 
L -0.296875 64.59375 
z
" id="DejaVuSans-84"/>
      </defs>
      <use xlink:href="#DejaVuSans-73"/>
      <use x="29.492188" xlink:href="#DejaVuSans-76"/>
      <use x="85.205078" xlink:href="#DejaVuSans-54"/>
      <use x="148.828125" xlink:href="#DejaVuSans-83"/>
      <use x="212.304688" xlink:href="#DejaVuSans-84"/>
     </g>
    </g>
   </g>
   <g id="text_6">
    <g clip-path="url(#p73252b0be9)">
     <!-- IL18RAP -->
     <g transform="translate(142.829629 281.387828)scale(0.12 -0.12)">
      <defs>
       <path d="M 31.78125 34.625 
Q 24.75 34.625 20.71875 30.859375 
Q 16.703125 27.09375 16.703125 20.515625 
Q 16.703125 13.921875 20.71875 10.15625 
Q 24.75 6.390625 31.78125 6.390625 
Q 38.8125 6.390625 42.859375 10.171875 
Q 46.921875 13.96875 46.921875 20.515625 
Q 46.921875 27.09375 42.890625 30.859375 
Q 38.875 34.625 31.78125 34.625 
z
M 21.921875 38.8125 
Q 15.578125 40.375 12.03125 44.71875 
Q 8.5 49.078125 8.5 55.328125 
Q 8.5 64.0625 14.71875 69.140625 
Q 20.953125 74.21875 31.78125 74.21875 
Q 42.671875 74.21875 48.875 69.140625 
Q 55.078125 64.0625 55.078125 55.328125 
Q 55.078125 49.078125 51.53125 44.71875 
Q 48 40.375 41.703125 38.8125 
Q 48.828125 37.15625 52.796875 32.3125 
Q 56.78125 27.484375 56.78125 20.515625 
Q 56.78125 9.90625 50.3125 4.234375 
Q 43.84375 -1.421875 31.78125 -1.421875 
Q 19.734375 -1.421875 13.25 4.234375 
Q 6.78125 9.90625 6.78125 20.515625 
Q 6.78125 27.484375 10.78125 32.3125 
Q 14.796875 37.15625 21.921875 38.8125 
z
M 18.3125 54.390625 
Q 18.3125 48.734375 21.84375 45.5625 
Q 25.390625 42.390625 31.78125 42.390625 
Q 38.140625 42.390625 41.71875 45.5625 
Q 45.3125 48.734375 45.3125 54.390625 
Q 45.3125 60.0625 41.71875 63.234375 
Q 38.140625 66.40625 31.78125 66.40625 
Q 25.390625 66.40625 21.84375 63.234375 
Q 18.3125 60.0625 18.3125 54.390625 
z
" id="DejaVuSans-56"/>
       <path d="M 19.671875 64.796875 
L 19.671875 37.40625 
L 32.078125 37.40625 
Q 38.96875 37.40625 42.71875 40.96875 
Q 46.484375 44.53125 46.484375 51.125 
Q 46.484375 57.671875 42.71875 61.234375 
Q 38.96875 64.796875 32.078125 64.796875 
z
M 9.8125 72.90625 
L 32.078125 72.90625 
Q 44.34375 72.90625 50.609375 67.359375 
Q 56.890625 61.8125 56.890625 51.125 
Q 56.890625 40.328125 50.609375 34.8125 
Q 44.34375 29.296875 32.078125 29.296875 
L 19.671875 29.296875 
L 19.671875 0 
L 9.8125 0 
z
" id="DejaVuSans-80"/>
      </defs>
      <use xlink:href="#DejaVuSans-73"/>
      <use x="29.492188" xlink:href="#DejaVuSans-76"/>
      <use x="85.205078" xlink:href="#DejaVuSans-49"/>
      <use x="148.828125" xlink:href="#DejaVuSans-56"/>
      <use x="212.451172" xlink:href="#DejaVuSans-82"/>
      <use x="277.933594" xlink:href="#DejaVuSans-65"/>
      <use x="346.341797" xlink:href="#DejaVuSans-80"/>
     </g>
    </g>
   </g>
   <g id="text_7">
    <g clip-path="url(#p73252b0be9)">
     <!-- IL18R1 -->
     <g transform="translate(215.976555 167.30105)scale(0.12 -0.12)">
      <use xlink:href="#DejaVuSans-73"/>
      <use x="29.492188" xlink:href="#DejaVuSans-76"/>
      <use x="85.205078" xlink:href="#DejaVuSans-49"/>
      <use x="148.828125" xlink:href="#DejaVuSans-56"/>
      <use x="212.451172" xlink:href="#DejaVuSans-82"/>
      <use x="281.933594" xlink:href="#DejaVuSans-49"/>
     </g>
    </g>
   </g>
   <g id="text_8">
    <g clip-path="url(#p73252b0be9)">
     <!-- TGFBR1 -->
     <g transform="translate(413.914341 110.918523)scale(0.12 -0.12)">
      <defs>
       <path d="M 9.8125 72.90625 
L 51.703125 72.90625 
L 51.703125 64.59375 
L 19.671875 64.59375 
L 19.671875 43.109375 
L 48.578125 43.109375 
L 48.578125 34.8125 
L 19.671875 34.8125 
L 19.671875 0 
L 9.8125 0 
z
" id="DejaVuSans-70"/>
      </defs>
      <use xlink:href="#DejaVuSans-84"/>
      <use x="61.083984" xlink:href="#DejaVuSans-71"/>
      <use x="138.574219" xlink:href="#DejaVuSans-70"/>
      <use x="196.09375" xlink:href="#DejaVuSans-66"/>
      <use x="264.697266" xlink:href="#DejaVuSans-82"/>
      <use x="334.179688" xlink:href="#DejaVuSans-49"/>
     </g>
    </g>
   </g>
   <g id="text_9">
    <g clip-path="url(#p73252b0be9)">
     <!-- TGFBR2 -->
     <g transform="translate(239.294866 434.411381)scale(0.12 -0.12)">
      <use xlink:href="#DejaVuSans-84"/>
      <use x="61.083984" xlink:href="#DejaVuSans-71"/>
      <use x="138.574219" xlink:href="#DejaVuSans-70"/>
      <use x="196.09375" xlink:href="#DejaVuSans-66"/>
      <use x="264.697266" xlink:href="#DejaVuSans-82"/>
      <use x="334.179688" xlink:href="#DejaVuSans-50"/>
     </g>
    </g>
   </g>
   <g id="text_10">
    <g clip-path="url(#p73252b0be9)">
     <!-- IL18 -->
     <g transform="translate(293.00931 274.414934)scale(0.12 -0.12)">
      <use xlink:href="#DejaVuSans-73"/>
      <use x="29.492188" xlink:href="#DejaVuSans-76"/>
      <use x="85.205078" xlink:href="#DejaVuSans-49"/>
      <use x="148.828125" xlink:href="#DejaVuSans-56"/>
     </g>
    </g>
   </g>
   <g id="text_11">
    <g clip-path="url(#p73252b0be9)">
     <!-- TGFB3 -->
     <g transform="translate(331.030108 274.975076)scale(0.12 -0.12)">
      <defs>
       <path d="M 40.578125 39.3125 
Q 47.65625 37.796875 51.625 33 
Q 55.609375 28.21875 55.609375 21.1875 
Q 55.609375 10.40625 48.1875 4.484375 
Q 40.765625 -1.421875 27.09375 -1.421875 
Q 22.515625 -1.421875 17.65625 -0.515625 
Q 12.796875 0.390625 7.625 2.203125 
L 7.625 11.71875 
Q 11.71875 9.328125 16.59375 8.109375 
Q 21.484375 6.890625 26.8125 6.890625 
Q 36.078125 6.890625 40.9375 10.546875 
Q 45.796875 14.203125 45.796875 21.1875 
Q 45.796875 27.640625 41.28125 31.265625 
Q 36.765625 34.90625 28.71875 34.90625 
L 20.21875 34.90625 
L 20.21875 43.015625 
L 29.109375 43.015625 
Q 36.375 43.015625 40.234375 45.921875 
Q 44.09375 48.828125 44.09375 54.296875 
Q 44.09375 59.90625 40.109375 62.90625 
Q 36.140625 65.921875 28.71875 65.921875 
Q 24.65625 65.921875 20.015625 65.03125 
Q 15.375 64.15625 9.8125 62.3125 
L 9.8125 71.09375 
Q 15.4375 72.65625 20.34375 73.4375 
Q 25.25 74.21875 29.59375 74.21875 
Q 40.828125 74.21875 47.359375 69.109375 
Q 53.90625 64.015625 53.90625 55.328125 
Q 53.90625 49.265625 50.4375 45.09375 
Q 46.96875 40.921875 40.578125 39.3125 
z
" id="DejaVuSans-51"/>
      </defs>
      <use xlink:href="#DejaVuSans-84"/>
      <use x="61.083984" xlink:href="#DejaVuSans-71"/>
      <use x="138.574219" xlink:href="#DejaVuSans-70"/>
      <use x="196.09375" xlink:href="#DejaVuSans-66"/>
      <use x="264.697266" xlink:href="#DejaVuSans-51"/>
     </g>
    </g>
   </g>
   <g id="text_12">
    <g clip-path="url(#p73252b0be9)">
     <!-- TGFB1 -->
     <g transform="translate(312.4126 266.568487)scale(0.12 -0.12)">
      <use xlink:href="#DejaVuSans-84"/>
      <use x="61.083984" xlink:href="#DejaVuSans-71"/>
      <use x="138.574219" xlink:href="#DejaVuSans-70"/>
      <use x="196.09375" xlink:href="#DejaVuSans-66"/>
      <use x="264.697266" xlink:href="#DejaVuSans-49"/>
     </g>
    </g>
   </g>
   <g id="text_13">
    <g clip-path="url(#p73252b0be9)">
     <!-- TNFRSF13C -->
     <g transform="translate(460.51837 136.449526)scale(0.12 -0.12)">
      <defs>
       <path d="M 9.8125 72.90625 
L 23.09375 72.90625 
L 55.421875 11.921875 
L 55.421875 72.90625 
L 64.984375 72.90625 
L 64.984375 0 
L 51.703125 0 
L 19.390625 60.984375 
L 19.390625 0 
L 9.8125 0 
z
" id="DejaVuSans-78"/>
      </defs>
      <use xlink:href="#DejaVuSans-84"/>
      <use x="61.083984" xlink:href="#DejaVuSans-78"/>
      <use x="135.888672" xlink:href="#DejaVuSans-70"/>
      <use x="193.408203" xlink:href="#DejaVuSans-82"/>
      <use x="262.890625" xlink:href="#DejaVuSans-83"/>
      <use x="326.367188" xlink:href="#DejaVuSans-70"/>
      <use x="383.886719" xlink:href="#DejaVuSans-49"/>
      <use x="447.509766" xlink:href="#DejaVuSans-51"/>
      <use x="511.132812" xlink:href="#DejaVuSans-67"/>
     </g>
    </g>
   </g>
   <g id="text_14">
    <g clip-path="url(#p73252b0be9)">
     <!-- TNFRSF9 -->
     <g transform="translate(675.792215 257.660087)scale(0.12 -0.12)">
      <defs>
       <path d="M 10.984375 1.515625 
L 10.984375 10.5 
Q 14.703125 8.734375 18.5 7.8125 
Q 22.3125 6.890625 25.984375 6.890625 
Q 35.75 6.890625 40.890625 13.453125 
Q 46.046875 20.015625 46.78125 33.40625 
Q 43.953125 29.203125 39.59375 26.953125 
Q 35.25 24.703125 29.984375 24.703125 
Q 19.046875 24.703125 12.671875 31.3125 
Q 6.296875 37.9375 6.296875 49.421875 
Q 6.296875 60.640625 12.9375 67.421875 
Q 19.578125 74.21875 30.609375 74.21875 
Q 43.265625 74.21875 49.921875 64.515625 
Q 56.59375 54.828125 56.59375 36.375 
Q 56.59375 19.140625 48.40625 8.859375 
Q 40.234375 -1.421875 26.421875 -1.421875 
Q 22.703125 -1.421875 18.890625 -0.6875 
Q 15.09375 0.046875 10.984375 1.515625 
z
M 30.609375 32.421875 
Q 37.25 32.421875 41.125 36.953125 
Q 45.015625 41.5 45.015625 49.421875 
Q 45.015625 57.28125 41.125 61.84375 
Q 37.25 66.40625 30.609375 66.40625 
Q 23.96875 66.40625 20.09375 61.84375 
Q 16.21875 57.28125 16.21875 49.421875 
Q 16.21875 41.5 20.09375 36.953125 
Q 23.96875 32.421875 30.609375 32.421875 
z
" id="DejaVuSans-57"/>
      </defs>
      <use xlink:href="#DejaVuSans-84"/>
      <use x="61.083984" xlink:href="#DejaVuSans-78"/>
      <use x="135.888672" xlink:href="#DejaVuSans-70"/>
      <use x="193.408203" xlink:href="#DejaVuSans-82"/>
      <use x="262.890625" xlink:href="#DejaVuSans-83"/>
      <use x="326.367188" xlink:href="#DejaVuSans-70"/>
      <use x="383.886719" xlink:href="#DejaVuSans-57"/>
     </g>
    </g>
   </g>
   <g id="text_15">
    <g clip-path="url(#p73252b0be9)">
     <!-- TNFRSF14 -->
     <g transform="translate(656.293748 354.93447)scale(0.12 -0.12)">
      <defs>
       <path d="M 37.796875 64.3125 
L 12.890625 25.390625 
L 37.796875 25.390625 
z
M 35.203125 72.90625 
L 47.609375 72.90625 
L 47.609375 25.390625 
L 58.015625 25.390625 
L 58.015625 17.1875 
L 47.609375 17.1875 
L 47.609375 0 
L 37.796875 0 
L 37.796875 17.1875 
L 4.890625 17.1875 
L 4.890625 26.703125 
z
" id="DejaVuSans-52"/>
      </defs>
      <use xlink:href="#DejaVuSans-84"/>
      <use x="61.083984" xlink:href="#DejaVuSans-78"/>
      <use x="135.888672" xlink:href="#DejaVuSans-70"/>
      <use x="193.408203" xlink:href="#DejaVuSans-82"/>
      <use x="262.890625" xlink:href="#DejaVuSans-83"/>
      <use x="326.367188" xlink:href="#DejaVuSans-70"/>
      <use x="383.886719" xlink:href="#DejaVuSans-49"/>
      <use x="447.509766" xlink:href="#DejaVuSans-52"/>
     </g>
    </g>
   </g>
   <g id="text_16">
    <g clip-path="url(#p73252b0be9)">
     <!-- TNFSF13B -->
     <g transform="translate(568.464019 183.97994)scale(0.12 -0.12)">
      <use xlink:href="#DejaVuSans-84"/>
      <use x="61.083984" xlink:href="#DejaVuSans-78"/>
      <use x="135.888672" xlink:href="#DejaVuSans-70"/>
      <use x="191.658203" xlink:href="#DejaVuSans-83"/>
      <use x="255.134766" xlink:href="#DejaVuSans-70"/>
      <use x="312.654297" xlink:href="#DejaVuSans-49"/>
      <use x="376.277344" xlink:href="#DejaVuSans-51"/>
      <use x="439.900391" xlink:href="#DejaVuSans-66"/>
     </g>
    </g>
   </g>
   <g id="text_17">
    <g clip-path="url(#p73252b0be9)">
     <!-- TNFSF9 -->
     <g transform="translate(651.677216 197.728334)scale(0.12 -0.12)">
      <use xlink:href="#DejaVuSans-84"/>
      <use x="61.083984" xlink:href="#DejaVuSans-78"/>
      <use x="135.888672" xlink:href="#DejaVuSans-70"/>
      <use x="191.658203" xlink:href="#DejaVuSans-83"/>
      <use x="255.134766" xlink:href="#DejaVuSans-70"/>
      <use x="312.654297" xlink:href="#DejaVuSans-57"/>
     </g>
    </g>
   </g>
   <g id="text_18">
    <g clip-path="url(#p73252b0be9)">
     <!-- TNFSF14 -->
     <g transform="translate(512.083462 376.844777)scale(0.12 -0.12)">
      <use xlink:href="#DejaVuSans-84"/>
      <use x="61.083984" xlink:href="#DejaVuSans-78"/>
      <use x="135.888672" xlink:href="#DejaVuSans-70"/>
      <use x="191.658203" xlink:href="#DejaVuSans-83"/>
      <use x="255.134766" xlink:href="#DejaVuSans-70"/>
      <use x="312.654297" xlink:href="#DejaVuSans-49"/>
      <use x="376.277344" xlink:href="#DejaVuSans-52"/>
     </g>
    </g>
   </g>
   <g id="text_19">
    <g clip-path="url(#p73252b0be9)">
     <!-- LTA -->
     <g transform="translate(423.643753 251.445552)scale(0.12 -0.12)">
      <use xlink:href="#DejaVuSans-76"/>
      <use x="41.962891" xlink:href="#DejaVuSans-84"/>
      <use x="95.296875" xlink:href="#DejaVuSans-65"/>
     </g>
    </g>
   </g>
   <g id="text_20">
    <g clip-path="url(#p73252b0be9)">
     <!-- IFNLR1 -->
     <g transform="translate(175.042305 380.006983)scale(0.12 -0.12)">
      <use xlink:href="#DejaVuSans-73"/>
      <use x="29.492188" xlink:href="#DejaVuSans-70"/>
      <use x="87.011719" xlink:href="#DejaVuSans-78"/>
      <use x="161.816406" xlink:href="#DejaVuSans-76"/>
      <use x="217.529297" xlink:href="#DejaVuSans-82"/>
      <use x="287.011719" xlink:href="#DejaVuSans-49"/>
     </g>
    </g>
   </g>
   <g id="text_21">
    <g clip-path="url(#p73252b0be9)">
     <!-- IFNGR2 -->
     <g transform="translate(173.28414 198.263563)scale(0.12 -0.12)">
      <use xlink:href="#DejaVuSans-73"/>
      <use x="29.492188" xlink:href="#DejaVuSans-70"/>
      <use x="87.011719" xlink:href="#DejaVuSans-78"/>
      <use x="161.816406" xlink:href="#DejaVuSans-71"/>
      <use x="239.306641" xlink:href="#DejaVuSans-82"/>
      <use x="308.789062" xlink:href="#DejaVuSans-50"/>
     </g>
    </g>
   </g>
   <g id="text_22">
    <g clip-path="url(#p73252b0be9)">
     <!-- IFNGR1 -->
     <g transform="translate(653.769053 388.452808)scale(0.12 -0.12)">
      <use xlink:href="#DejaVuSans-73"/>
      <use x="29.492188" xlink:href="#DejaVuSans-70"/>
      <use x="87.011719" xlink:href="#DejaVuSans-78"/>
      <use x="161.816406" xlink:href="#DejaVuSans-71"/>
      <use x="239.306641" xlink:href="#DejaVuSans-82"/>
      <use x="308.789062" xlink:href="#DejaVuSans-49"/>
     </g>
    </g>
   </g>
   <g id="text_23">
    <g clip-path="url(#p73252b0be9)">
     <!-- IFNL1 -->
     <g transform="translate(230.757593 397.600247)scale(0.12 -0.12)">
      <use xlink:href="#DejaVuSans-73"/>
      <use x="29.492188" xlink:href="#DejaVuSans-70"/>
      <use x="87.011719" xlink:href="#DejaVuSans-78"/>
      <use x="161.816406" xlink:href="#DejaVuSans-76"/>
      <use x="217.529297" xlink:href="#DejaVuSans-49"/>
     </g>
    </g>
   </g>
   <g id="text_24">
    <g clip-path="url(#p73252b0be9)">
     <!-- IFNG -->
     <g transform="translate(417.988929 297.785528)scale(0.12 -0.12)">
      <use xlink:href="#DejaVuSans-73"/>
      <use x="29.492188" xlink:href="#DejaVuSans-70"/>
      <use x="87.011719" xlink:href="#DejaVuSans-78"/>
      <use x="161.816406" xlink:href="#DejaVuSans-71"/>
     </g>
    </g>
   </g>
   <g id="text_25">
    <g clip-path="url(#p73252b0be9)">
     <!-- IL15RA -->
     <g transform="translate(522.693377 122.208616)scale(0.12 -0.12)">
      <defs>
       <path d="M 10.796875 72.90625 
L 49.515625 72.90625 
L 49.515625 64.59375 
L 19.828125 64.59375 
L 19.828125 46.734375 
Q 21.96875 47.46875 24.109375 47.828125 
Q 26.265625 48.1875 28.421875 48.1875 
Q 40.625 48.1875 47.75 41.5 
Q 54.890625 34.8125 54.890625 23.390625 
Q 54.890625 11.625 47.5625 5.09375 
Q 40.234375 -1.421875 26.90625 -1.421875 
Q 22.3125 -1.421875 17.546875 -0.640625 
Q 12.796875 0.140625 7.71875 1.703125 
L 7.71875 11.625 
Q 12.109375 9.234375 16.796875 8.0625 
Q 21.484375 6.890625 26.703125 6.890625 
Q 35.15625 6.890625 40.078125 11.328125 
Q 45.015625 15.765625 45.015625 23.390625 
Q 45.015625 31 40.078125 35.4375 
Q 35.15625 39.890625 26.703125 39.890625 
Q 22.75 39.890625 18.8125 39.015625 
Q 14.890625 38.140625 10.796875 36.28125 
z
" id="DejaVuSans-53"/>
      </defs>
      <use xlink:href="#DejaVuSans-73"/>
      <use x="29.492188" xlink:href="#DejaVuSans-76"/>
      <use x="85.205078" xlink:href="#DejaVuSans-49"/>
      <use x="148.828125" xlink:href="#DejaVuSans-53"/>
      <use x="212.451172" xlink:href="#DejaVuSans-82"/>
      <use x="277.933594" xlink:href="#DejaVuSans-65"/>
     </g>
    </g>
   </g>
   <g id="text_26">
    <g clip-path="url(#p73252b0be9)">
     <!-- IL15 -->
     <g transform="translate(537.395416 283.729198)scale(0.12 -0.12)">
      <use xlink:href="#DejaVuSans-73"/>
      <use x="29.492188" xlink:href="#DejaVuSans-76"/>
      <use x="85.205078" xlink:href="#DejaVuSans-49"/>
      <use x="148.828125" xlink:href="#DejaVuSans-53"/>
     </g>
    </g>
   </g>
   <g id="text_27">
    <g clip-path="url(#p73252b0be9)">
     <!-- IL12RB1 -->
     <g transform="translate(574.159781 440.001844)scale(0.12 -0.12)">
      <use xlink:href="#DejaVuSans-73"/>
      <use x="29.492188" xlink:href="#DejaVuSans-76"/>
      <use x="85.205078" xlink:href="#DejaVuSans-49"/>
      <use x="148.828125" xlink:href="#DejaVuSans-50"/>
      <use x="212.451172" xlink:href="#DejaVuSans-82"/>
      <use x="281.933594" xlink:href="#DejaVuSans-66"/>
      <use x="350.537109" xlink:href="#DejaVuSans-49"/>
     </g>
    </g>
   </g>
   <g id="text_28">
    <g clip-path="url(#p73252b0be9)">
     <!-- IL12RB2 -->
     <g transform="translate(141.254535 321.24287)scale(0.12 -0.12)">
      <use xlink:href="#DejaVuSans-73"/>
      <use x="29.492188" xlink:href="#DejaVuSans-76"/>
      <use x="85.205078" xlink:href="#DejaVuSans-49"/>
      <use x="148.828125" xlink:href="#DejaVuSans-50"/>
      <use x="212.451172" xlink:href="#DejaVuSans-82"/>
      <use x="281.933594" xlink:href="#DejaVuSans-66"/>
      <use x="350.537109" xlink:href="#DejaVuSans-50"/>
     </g>
    </g>
   </g>
   <g id="text_29">
    <g clip-path="url(#p73252b0be9)">
     <!-- IL23A -->
     <g transform="translate(479.303589 335.9733)scale(0.12 -0.12)">
      <use xlink:href="#DejaVuSans-73"/>
      <use x="29.492188" xlink:href="#DejaVuSans-76"/>
      <use x="85.205078" xlink:href="#DejaVuSans-50"/>
      <use x="148.828125" xlink:href="#DejaVuSans-51"/>
      <use x="212.451172" xlink:href="#DejaVuSans-65"/>
     </g>
    </g>
   </g>
   <g id="text_30">
    <g clip-path="url(#p73252b0be9)">
     <!-- CLCF1 -->
     <g transform="translate(326.604142 424.306436)scale(0.12 -0.12)">
      <use xlink:href="#DejaVuSans-67"/>
      <use x="69.824219" xlink:href="#DejaVuSans-76"/>
      <use x="125.537109" xlink:href="#DejaVuSans-67"/>
      <use x="195.361328" xlink:href="#DejaVuSans-70"/>
      <use x="252.880859" xlink:href="#DejaVuSans-49"/>
     </g>
    </g>
   </g>
   <g id="text_31">
    <g clip-path="url(#p73252b0be9)">
     <!-- OSM -->
     <g transform="translate(232.497088 343.561655)scale(0.12 -0.12)">
      <defs>
       <path d="M 39.40625 66.21875 
Q 28.65625 66.21875 22.328125 58.203125 
Q 16.015625 50.203125 16.015625 36.375 
Q 16.015625 22.609375 22.328125 14.59375 
Q 28.65625 6.59375 39.40625 6.59375 
Q 50.140625 6.59375 56.421875 14.59375 
Q 62.703125 22.609375 62.703125 36.375 
Q 62.703125 50.203125 56.421875 58.203125 
Q 50.140625 66.21875 39.40625 66.21875 
z
M 39.40625 74.21875 
Q 54.734375 74.21875 63.90625 63.9375 
Q 73.09375 53.65625 73.09375 36.375 
Q 73.09375 19.140625 63.90625 8.859375 
Q 54.734375 -1.421875 39.40625 -1.421875 
Q 24.03125 -1.421875 14.8125 8.828125 
Q 5.609375 19.09375 5.609375 36.375 
Q 5.609375 53.65625 14.8125 63.9375 
Q 24.03125 74.21875 39.40625 74.21875 
z
" id="DejaVuSans-79"/>
       <path d="M 9.8125 72.90625 
L 24.515625 72.90625 
L 43.109375 23.296875 
L 61.8125 72.90625 
L 76.515625 72.90625 
L 76.515625 0 
L 66.890625 0 
L 66.890625 64.015625 
L 48.09375 14.015625 
L 38.1875 14.015625 
L 19.390625 64.015625 
L 19.390625 0 
L 9.8125 0 
z
" id="DejaVuSans-77"/>
      </defs>
      <use xlink:href="#DejaVuSans-79"/>
      <use x="78.710938" xlink:href="#DejaVuSans-83"/>
      <use x="142.1875" xlink:href="#DejaVuSans-77"/>
     </g>
    </g>
   </g>
   <g id="text_32">
    <g clip-path="url(#p73252b0be9)">
     <!-- CXCR6 -->
     <g transform="translate(639.277674 423.70044)scale(0.12 -0.12)">
      <defs>
       <path d="M 6.296875 72.90625 
L 16.890625 72.90625 
L 35.015625 45.796875 
L 53.21875 72.90625 
L 63.8125 72.90625 
L 40.375 37.890625 
L 65.375 0 
L 54.78125 0 
L 34.28125 31 
L 13.625 0 
L 2.984375 0 
L 29 38.921875 
z
" id="DejaVuSans-88"/>
      </defs>
      <use xlink:href="#DejaVuSans-67"/>
      <use x="69.824219" xlink:href="#DejaVuSans-88"/>
      <use x="131.080078" xlink:href="#DejaVuSans-67"/>
      <use x="200.904297" xlink:href="#DejaVuSans-82"/>
      <use x="270.386719" xlink:href="#DejaVuSans-54"/>
     </g>
    </g>
   </g>
   <g id="text_33">
    <g clip-path="url(#p73252b0be9)">
     <!-- CXCR3 -->
     <g transform="translate(547.844002 467.913845)scale(0.12 -0.12)">
      <use xlink:href="#DejaVuSans-67"/>
      <use x="69.824219" xlink:href="#DejaVuSans-88"/>
      <use x="131.080078" xlink:href="#DejaVuSans-67"/>
      <use x="200.904297" xlink:href="#DejaVuSans-82"/>
      <use x="270.386719" xlink:href="#DejaVuSans-51"/>
     </g>
    </g>
   </g>
   <g id="text_34">
    <g clip-path="url(#p73252b0be9)">
     <!-- PF4 -->
     <g transform="translate(454.185073 477.293728)scale(0.12 -0.12)">
      <use xlink:href="#DejaVuSans-80"/>
      <use x="60.302734" xlink:href="#DejaVuSans-70"/>
      <use x="117.822266" xlink:href="#DejaVuSans-52"/>
     </g>
    </g>
   </g>
   <g id="text_35">
    <g clip-path="url(#p73252b0be9)">
     <!-- CXCL16 -->
     <g transform="translate(511.281607 442.843779)scale(0.12 -0.12)">
      <use xlink:href="#DejaVuSans-67"/>
      <use x="69.824219" xlink:href="#DejaVuSans-88"/>
      <use x="131.080078" xlink:href="#DejaVuSans-67"/>
      <use x="200.904297" xlink:href="#DejaVuSans-76"/>
      <use x="256.617188" xlink:href="#DejaVuSans-49"/>
      <use x="320.240234" xlink:href="#DejaVuSans-54"/>
     </g>
    </g>
   </g>
   <g id="text_36">
    <g clip-path="url(#p73252b0be9)">
     <!-- TNFRSF1A -->
     <g transform="translate(150.886464 243.330245)scale(0.12 -0.12)">
      <use xlink:href="#DejaVuSans-84"/>
      <use x="61.083984" xlink:href="#DejaVuSans-78"/>
      <use x="135.888672" xlink:href="#DejaVuSans-70"/>
      <use x="193.408203" xlink:href="#DejaVuSans-82"/>
      <use x="262.890625" xlink:href="#DejaVuSans-83"/>
      <use x="326.367188" xlink:href="#DejaVuSans-70"/>
      <use x="383.886719" xlink:href="#DejaVuSans-49"/>
      <use x="447.509766" xlink:href="#DejaVuSans-65"/>
     </g>
    </g>
   </g>
   <g id="text_37">
    <g clip-path="url(#p73252b0be9)">
     <!-- TNFRSF1B -->
     <g transform="translate(352.858446 120.480349)scale(0.12 -0.12)">
      <use xlink:href="#DejaVuSans-84"/>
      <use x="61.083984" xlink:href="#DejaVuSans-78"/>
      <use x="135.888672" xlink:href="#DejaVuSans-70"/>
      <use x="193.408203" xlink:href="#DejaVuSans-82"/>
      <use x="262.890625" xlink:href="#DejaVuSans-83"/>
      <use x="326.367188" xlink:href="#DejaVuSans-70"/>
      <use x="383.886719" xlink:href="#DejaVuSans-49"/>
      <use x="447.509766" xlink:href="#DejaVuSans-66"/>
     </g>
    </g>
   </g>
   <g id="text_38">
    <g clip-path="url(#p73252b0be9)">
     <!-- TNFRSF12A -->
     <g transform="translate(298.394979 125.922569)scale(0.12 -0.12)">
      <use xlink:href="#DejaVuSans-84"/>
      <use x="61.083984" xlink:href="#DejaVuSans-78"/>
      <use x="135.888672" xlink:href="#DejaVuSans-70"/>
      <use x="193.408203" xlink:href="#DejaVuSans-82"/>
      <use x="262.890625" xlink:href="#DejaVuSans-83"/>
      <use x="326.367188" xlink:href="#DejaVuSans-70"/>
      <use x="383.886719" xlink:href="#DejaVuSans-49"/>
      <use x="447.509766" xlink:href="#DejaVuSans-50"/>
      <use x="511.132812" xlink:href="#DejaVuSans-65"/>
     </g>
    </g>
   </g>
   <g id="text_39">
    <g clip-path="url(#p73252b0be9)">
     <!-- TNFSF12 -->
     <g transform="translate(260.483611 137.383691)scale(0.12 -0.12)">
      <use xlink:href="#DejaVuSans-84"/>
      <use x="61.083984" xlink:href="#DejaVuSans-78"/>
      <use x="135.888672" xlink:href="#DejaVuSans-70"/>
      <use x="191.658203" xlink:href="#DejaVuSans-83"/>
      <use x="255.134766" xlink:href="#DejaVuSans-70"/>
      <use x="312.654297" xlink:href="#DejaVuSans-49"/>
      <use x="376.277344" xlink:href="#DejaVuSans-50"/>
     </g>
    </g>
   </g>
   <g id="text_40">
    <g clip-path="url(#p73252b0be9)">
     <!-- TNF -->
     <g transform="translate(356.634522 224.252569)scale(0.12 -0.12)">
      <use xlink:href="#DejaVuSans-84"/>
      <use x="61.083984" xlink:href="#DejaVuSans-78"/>
      <use x="135.888672" xlink:href="#DejaVuSans-70"/>
     </g>
    </g>
   </g>
   <g id="text_41">
    <g clip-path="url(#p73252b0be9)">
     <!-- CCR5 -->
     <g transform="translate(703.128277 288.870803)scale(0.12 -0.12)">
      <use xlink:href="#DejaVuSans-67"/>
      <use x="69.824219" xlink:href="#DejaVuSans-67"/>
      <use x="139.648438" xlink:href="#DejaVuSans-82"/>
      <use x="209.130859" xlink:href="#DejaVuSans-53"/>
     </g>
    </g>
   </g>
   <g id="text_42">
    <g clip-path="url(#p73252b0be9)">
     <!-- CCL4 -->
     <g transform="translate(528.688688 248.369351)scale(0.12 -0.12)">
      <use xlink:href="#DejaVuSans-67"/>
      <use x="69.824219" xlink:href="#DejaVuSans-67"/>
      <use x="139.648438" xlink:href="#DejaVuSans-76"/>
      <use x="195.361328" xlink:href="#DejaVuSans-52"/>
     </g>
    </g>
   </g>
   <g id="text_43">
    <g clip-path="url(#p73252b0be9)">
     <!-- CCL3 -->
     <g transform="translate(605.564283 244.671137)scale(0.12 -0.12)">
      <use xlink:href="#DejaVuSans-67"/>
      <use x="69.824219" xlink:href="#DejaVuSans-67"/>
      <use x="139.648438" xlink:href="#DejaVuSans-76"/>
      <use x="195.361328" xlink:href="#DejaVuSans-51"/>
     </g>
    </g>
   </g>
   <g id="text_44">
    <g clip-path="url(#p73252b0be9)">
     <!-- CCR1 -->
     <g transform="translate(680.506524 208.641312)scale(0.12 -0.12)">
      <use xlink:href="#DejaVuSans-67"/>
      <use x="69.824219" xlink:href="#DejaVuSans-67"/>
      <use x="139.648438" xlink:href="#DejaVuSans-82"/>
      <use x="209.130859" xlink:href="#DejaVuSans-49"/>
     </g>
    </g>
   </g>
   <g id="text_45">
    <g clip-path="url(#p73252b0be9)">
     <!-- CCL5 -->
     <g transform="translate(645.411716 280.879556)scale(0.12 -0.12)">
      <use xlink:href="#DejaVuSans-67"/>
      <use x="69.824219" xlink:href="#DejaVuSans-67"/>
      <use x="139.648438" xlink:href="#DejaVuSans-76"/>
      <use x="195.361328" xlink:href="#DejaVuSans-53"/>
     </g>
    </g>
   </g>
   <g id="text_46">
    <g clip-path="url(#p73252b0be9)">
     <!-- IL16 -->
     <g transform="translate(478.156811 222.68487)scale(0.12 -0.12)">
      <use xlink:href="#DejaVuSans-73"/>
      <use x="29.492188" xlink:href="#DejaVuSans-76"/>
      <use x="85.205078" xlink:href="#DejaVuSans-49"/>
      <use x="148.828125" xlink:href="#DejaVuSans-54"/>
     </g>
    </g>
   </g>
   <g id="text_47">
    <g clip-path="url(#p73252b0be9)">
     <!-- CD4 -->
     <g transform="translate(579.482758 143.523306)scale(0.12 -0.12)">
      <defs>
       <path d="M 19.671875 64.796875 
L 19.671875 8.109375 
L 31.59375 8.109375 
Q 46.6875 8.109375 53.6875 14.9375 
Q 60.6875 21.78125 60.6875 36.53125 
Q 60.6875 51.171875 53.6875 57.984375 
Q 46.6875 64.796875 31.59375 64.796875 
z
M 9.8125 72.90625 
L 30.078125 72.90625 
Q 51.265625 72.90625 61.171875 64.09375 
Q 71.09375 55.28125 71.09375 36.53125 
Q 71.09375 17.671875 61.125 8.828125 
Q 51.171875 0 30.078125 0 
L 9.8125 0 
z
" id="DejaVuSans-68"/>
      </defs>
      <use xlink:href="#DejaVuSans-67"/>
      <use x="69.824219" xlink:href="#DejaVuSans-68"/>
      <use x="146.826172" xlink:href="#DejaVuSans-52"/>
     </g>
    </g>
   </g>
   <g id="text_48">
    <g clip-path="url(#p73252b0be9)">
     <!-- GDF11 -->
     <g transform="translate(567.943435 213.432523)scale(0.12 -0.12)">
      <use xlink:href="#DejaVuSans-71"/>
      <use x="77.490234" xlink:href="#DejaVuSans-68"/>
      <use x="154.492188" xlink:href="#DejaVuSans-70"/>
      <use x="212.011719" xlink:href="#DejaVuSans-49"/>
      <use x="275.634766" xlink:href="#DejaVuSans-49"/>
     </g>
    </g>
   </g>
   <g id="text_49">
    <g clip-path="url(#p73252b0be9)">
     <!-- IL12A -->
     <g transform="translate(360.740641 389.985196)scale(0.12 -0.12)">
      <use xlink:href="#DejaVuSans-73"/>
      <use x="29.492188" xlink:href="#DejaVuSans-76"/>
      <use x="85.205078" xlink:href="#DejaVuSans-49"/>
      <use x="148.828125" xlink:href="#DejaVuSans-50"/>
      <use x="212.451172" xlink:href="#DejaVuSans-65"/>
     </g>
    </g>
   </g>
   <g id="text_50">
    <!-- Frame: 11 -->
    <g transform="translate(121.392 91.296)scale(0.1 -0.1)">
     <defs>
      <path d="M 41.109375 46.296875 
Q 39.59375 47.171875 37.8125 47.578125 
Q 36.03125 48 33.890625 48 
Q 26.265625 48 22.1875 43.046875 
Q 18.109375 38.09375 18.109375 28.8125 
L 18.109375 0 
L 9.078125 0 
L 9.078125 54.6875 
L 18.109375 54.6875 
L 18.109375 46.1875 
Q 20.953125 51.171875 25.484375 53.578125 
Q 30.03125 56 36.53125 56 
Q 37.453125 56 38.578125 55.875 
Q 39.703125 55.765625 41.0625 55.515625 
z
" id="DejaVuSans-114"/>
      <path d="M 34.28125 27.484375 
Q 23.390625 27.484375 19.1875 25 
Q 14.984375 22.515625 14.984375 16.5 
Q 14.984375 11.71875 18.140625 8.90625 
Q 21.296875 6.109375 26.703125 6.109375 
Q 34.1875 6.109375 38.703125 11.40625 
Q 43.21875 16.703125 43.21875 25.484375 
L 43.21875 27.484375 
z
M 52.203125 31.203125 
L 52.203125 0 
L 43.21875 0 
L 43.21875 8.296875 
Q 40.140625 3.328125 35.546875 0.953125 
Q 30.953125 -1.421875 24.3125 -1.421875 
Q 15.921875 -1.421875 10.953125 3.296875 
Q 6 8.015625 6 15.921875 
Q 6 25.140625 12.171875 29.828125 
Q 18.359375 34.515625 30.609375 34.515625 
L 43.21875 34.515625 
L 43.21875 35.40625 
Q 43.21875 41.609375 39.140625 45 
Q 35.0625 48.390625 27.6875 48.390625 
Q 23 48.390625 18.546875 47.265625 
Q 14.109375 46.140625 10.015625 43.890625 
L 10.015625 52.203125 
Q 14.9375 54.109375 19.578125 55.046875 
Q 24.21875 56 28.609375 56 
Q 40.484375 56 46.34375 49.84375 
Q 52.203125 43.703125 52.203125 31.203125 
z
" id="DejaVuSans-97"/>
      <path d="M 52 44.1875 
Q 55.375 50.25 60.0625 53.125 
Q 64.75 56 71.09375 56 
Q 79.640625 56 84.28125 50.015625 
Q 88.921875 44.046875 88.921875 33.015625 
L 88.921875 0 
L 79.890625 0 
L 79.890625 32.71875 
Q 79.890625 40.578125 77.09375 44.375 
Q 74.3125 48.1875 68.609375 48.1875 
Q 61.625 48.1875 57.5625 43.546875 
Q 53.515625 38.921875 53.515625 30.90625 
L 53.515625 0 
L 44.484375 0 
L 44.484375 32.71875 
Q 44.484375 40.625 41.703125 44.40625 
Q 38.921875 48.1875 33.109375 48.1875 
Q 26.21875 48.1875 22.15625 43.53125 
Q 18.109375 38.875 18.109375 30.90625 
L 18.109375 0 
L 9.078125 0 
L 9.078125 54.6875 
L 18.109375 54.6875 
L 18.109375 46.1875 
Q 21.1875 51.21875 25.484375 53.609375 
Q 29.78125 56 35.6875 56 
Q 41.65625 56 45.828125 52.96875 
Q 50 49.953125 52 44.1875 
z
" id="DejaVuSans-109"/>
      <path d="M 56.203125 29.59375 
L 56.203125 25.203125 
L 14.890625 25.203125 
Q 15.484375 15.921875 20.484375 11.0625 
Q 25.484375 6.203125 34.421875 6.203125 
Q 39.59375 6.203125 44.453125 7.46875 
Q 49.3125 8.734375 54.109375 11.28125 
L 54.109375 2.78125 
Q 49.265625 0.734375 44.1875 -0.34375 
Q 39.109375 -1.421875 33.890625 -1.421875 
Q 20.796875 -1.421875 13.15625 6.1875 
Q 5.515625 13.8125 5.515625 26.8125 
Q 5.515625 40.234375 12.765625 48.109375 
Q 20.015625 56 32.328125 56 
Q 43.359375 56 49.78125 48.890625 
Q 56.203125 41.796875 56.203125 29.59375 
z
M 47.21875 32.234375 
Q 47.125 39.59375 43.09375 43.984375 
Q 39.0625 48.390625 32.421875 48.390625 
Q 24.90625 48.390625 20.390625 44.140625 
Q 15.875 39.890625 15.1875 32.171875 
z
" id="DejaVuSans-101"/>
      <path d="M 11.71875 12.40625 
L 22.015625 12.40625 
L 22.015625 0 
L 11.71875 0 
z
M 11.71875 51.703125 
L 22.015625 51.703125 
L 22.015625 39.3125 
L 11.71875 39.3125 
z
" id="DejaVuSans-58"/>
      <path id="DejaVuSans-32"/>
     </defs>
     <use xlink:href="#DejaVuSans-70"/>
     <use x="50.269531" xlink:href="#DejaVuSans-114"/>
     <use x="91.382812" xlink:href="#DejaVuSans-97"/>
     <use x="152.662109" xlink:href="#DejaVuSans-109"/>
     <use x="250.074219" xlink:href="#DejaVuSans-101"/>
     <use x="311.597656" xlink:href="#DejaVuSans-58"/>
     <use x="345.289062" xlink:href="#DejaVuSans-32"/>
     <use x="377.076172" xlink:href="#DejaVuSans-49"/>
     <use x="440.699219" xlink:href="#DejaVuSans-49"/>
    </g>
   </g>
   <g id="text_51">
    <!-- Network: hsa04060 -->
    <g transform="translate(384.1275 63.12)scale(0.12 -0.12)">
     <defs>
      <path d="M 18.3125 70.21875 
L 18.3125 54.6875 
L 36.8125 54.6875 
L 36.8125 47.703125 
L 18.3125 47.703125 
L 18.3125 18.015625 
Q 18.3125 11.328125 20.140625 9.421875 
Q 21.96875 7.515625 27.59375 7.515625 
L 36.8125 7.515625 
L 36.8125 0 
L 27.59375 0 
Q 17.1875 0 13.234375 3.875 
Q 9.28125 7.765625 9.28125 18.015625 
L 9.28125 47.703125 
L 2.6875 47.703125 
L 2.6875 54.6875 
L 9.28125 54.6875 
L 9.28125 70.21875 
z
" id="DejaVuSans-116"/>
      <path d="M 4.203125 54.6875 
L 13.1875 54.6875 
L 24.421875 12.015625 
L 35.59375 54.6875 
L 46.1875 54.6875 
L 57.421875 12.015625 
L 68.609375 54.6875 
L 77.59375 54.6875 
L 63.28125 0 
L 52.6875 0 
L 40.921875 44.828125 
L 29.109375 0 
L 18.5 0 
z
" id="DejaVuSans-119"/>
      <path d="M 30.609375 48.390625 
Q 23.390625 48.390625 19.1875 42.75 
Q 14.984375 37.109375 14.984375 27.296875 
Q 14.984375 17.484375 19.15625 11.84375 
Q 23.34375 6.203125 30.609375 6.203125 
Q 37.796875 6.203125 41.984375 11.859375 
Q 46.1875 17.53125 46.1875 27.296875 
Q 46.1875 37.015625 41.984375 42.703125 
Q 37.796875 48.390625 30.609375 48.390625 
z
M 30.609375 56 
Q 42.328125 56 49.015625 48.375 
Q 55.71875 40.765625 55.71875 27.296875 
Q 55.71875 13.875 49.015625 6.21875 
Q 42.328125 -1.421875 30.609375 -1.421875 
Q 18.84375 -1.421875 12.171875 6.21875 
Q 5.515625 13.875 5.515625 27.296875 
Q 5.515625 40.765625 12.171875 48.375 
Q 18.84375 56 30.609375 56 
z
" id="DejaVuSans-111"/>
      <path d="M 9.078125 75.984375 
L 18.109375 75.984375 
L 18.109375 31.109375 
L 44.921875 54.6875 
L 56.390625 54.6875 
L 27.390625 29.109375 
L 57.625 0 
L 45.90625 0 
L 18.109375 26.703125 
L 18.109375 0 
L 9.078125 0 
z
" id="DejaVuSans-107"/>
      <path d="M 54.890625 33.015625 
L 54.890625 0 
L 45.90625 0 
L 45.90625 32.71875 
Q 45.90625 40.484375 42.875 44.328125 
Q 39.84375 48.1875 33.796875 48.1875 
Q 26.515625 48.1875 22.3125 43.546875 
Q 18.109375 38.921875 18.109375 30.90625 
L 18.109375 0 
L 9.078125 0 
L 9.078125 75.984375 
L 18.109375 75.984375 
L 18.109375 46.1875 
Q 21.34375 51.125 25.703125 53.5625 
Q 30.078125 56 35.796875 56 
Q 45.21875 56 50.046875 50.171875 
Q 54.890625 44.34375 54.890625 33.015625 
z
" id="DejaVuSans-104"/>
      <path d="M 44.28125 53.078125 
L 44.28125 44.578125 
Q 40.484375 46.53125 36.375 47.5 
Q 32.28125 48.484375 27.875 48.484375 
Q 21.1875 48.484375 17.84375 46.4375 
Q 14.5 44.390625 14.5 40.28125 
Q 14.5 37.15625 16.890625 35.375 
Q 19.28125 33.59375 26.515625 31.984375 
L 29.59375 31.296875 
Q 39.15625 29.25 43.1875 25.515625 
Q 47.21875 21.78125 47.21875 15.09375 
Q 47.21875 7.46875 41.1875 3.015625 
Q 35.15625 -1.421875 24.609375 -1.421875 
Q 20.21875 -1.421875 15.453125 -0.5625 
Q 10.6875 0.296875 5.421875 2 
L 5.421875 11.28125 
Q 10.40625 8.6875 15.234375 7.390625 
Q 20.0625 6.109375 24.8125 6.109375 
Q 31.15625 6.109375 34.5625 8.28125 
Q 37.984375 10.453125 37.984375 14.40625 
Q 37.984375 18.0625 35.515625 20.015625 
Q 33.0625 21.96875 24.703125 23.78125 
L 21.578125 24.515625 
Q 13.234375 26.265625 9.515625 29.90625 
Q 5.8125 33.546875 5.8125 39.890625 
Q 5.8125 47.609375 11.28125 51.796875 
Q 16.75 56 26.8125 56 
Q 31.78125 56 36.171875 55.265625 
Q 40.578125 54.546875 44.28125 53.078125 
z
" id="DejaVuSans-115"/>
     </defs>
     <use xlink:href="#DejaVuSans-78"/>
     <use x="74.804688" xlink:href="#DejaVuSans-101"/>
     <use x="136.328125" xlink:href="#DejaVuSans-116"/>
     <use x="175.537109" xlink:href="#DejaVuSans-119"/>
     <use x="257.324219" xlink:href="#DejaVuSans-111"/>
     <use x="318.505859" xlink:href="#DejaVuSans-114"/>
     <use x="359.619141" xlink:href="#DejaVuSans-107"/>
     <use x="417.529297" xlink:href="#DejaVuSans-58"/>
     <use x="451.220703" xlink:href="#DejaVuSans-32"/>
     <use x="483.007812" xlink:href="#DejaVuSans-104"/>
     <use x="546.386719" xlink:href="#DejaVuSans-115"/>
     <use x="598.486328" xlink:href="#DejaVuSans-97"/>
     <use x="659.765625" xlink:href="#DejaVuSans-48"/>
     <use x="723.388672" xlink:href="#DejaVuSans-52"/>
     <use x="787.011719" xlink:href="#DejaVuSans-48"/>
     <use x="850.634766" xlink:href="#DejaVuSans-54"/>
     <use x="914.257812" xlink:href="#DejaVuSans-48"/>
    </g>
   </g>
  </g>
 </g>
 <defs>
  <clipPath id="p73252b0be9">
   <rect height="443.52" width="669.6" x="108" y="69.12"/>
  </clipPath>
 </defs>
</svg>
