<?xml version="1.0" encoding="utf-8" standalone="no"?>
<!DOCTYPE svg PUBLIC "-//W3C//DTD SVG 1.1//EN"
  "http://www.w3.org/Graphics/SVG/1.1/DTD/svg11.dtd">
<!-- Created with matplotlib (https://matplotlib.org/) -->
<svg height="576pt" version="1.1" viewBox="0 0 864 576" width="864pt" xmlns="http://www.w3.org/2000/svg" xmlns:xlink="http://www.w3.org/1999/xlink">
 <metadata>
  <rdf:RDF xmlns:cc="http://creativecommons.org/ns#" xmlns:dc="http://purl.org/dc/elements/1.1/" xmlns:rdf="http://www.w3.org/1999/02/22-rdf-syntax-ns#">
   <cc:Work>
    <dc:type rdf:resource="http://purl.org/dc/dcmitype/StillImage"/>
    <dc:date>2024-04-26T13:36:04.025908</dc:date>
    <dc:format>image/svg+xml</dc:format>
    <dc:creator>
     <cc:Agent>
      <dc:title>Matplotlib v3.3.1, https://matplotlib.org/</dc:title>
     </cc:Agent>
    </dc:creator>
   </cc:Work>
  </rdf:RDF>
 </metadata>
 <defs>
  <style type="text/css">*{stroke-linecap:butt;stroke-linejoin:round;}</style>
 </defs>
 <g id="figure_1">
  <g id="patch_1">
   <path d="M 0 576 
L 864 576 
L 864 0 
L 0 0 
z
" style="fill:#ffffff;"/>
  </g>
  <g id="axes_1">
   <g id="patch_2">
    <path clip-path="url(#p450f438343)" d="M 410.641753 316.887555 
Q 418.231024 308.186537 425.085389 300.328082 
" style="fill:none;stroke:#000000;stroke-linecap:round;"/>
    <path clip-path="url(#p450f438343)" d="M 420.948884 302.027885 
L 425.085389 300.328082 
L 423.963329 304.657167 
L 420.948884 302.027885 
z
" style="stroke:#000000;stroke-linecap:round;"/>
   </g>
   <g id="patch_3">
    <path clip-path="url(#p450f438343)" d="M 398.927356 329.633724 
Q 346.847229 383.426734 295.544779 436.41649 
" style="fill:none;stroke:#000000;stroke-linecap:round;"/>
    <path clip-path="url(#p450f438343)" d="M 299.763988 434.93383 
L 295.544779 436.41649 
L 296.890177 432.151527 
L 299.763988 434.93383 
z
" style="stroke:#000000;stroke-linecap:round;"/>
   </g>
   <g id="patch_4">
    <path clip-path="url(#p450f438343)" d="M 399.302841 316.848138 
Q 387.88445 303.577669 377.195274 291.154695 
" style="fill:none;stroke:#000000;stroke-linecap:round;"/>
    <path clip-path="url(#p450f438343)" d="M 378.288148 295.49124 
L 377.195274 291.154695 
L 381.320235 292.882323 
L 378.288148 295.49124 
z
" style="stroke:#000000;stroke-linecap:round;"/>
   </g>
   <g id="patch_5">
    <path clip-path="url(#p450f438343)" d="M 374.354642 190.929299 
Q 388.678377 252.951813 402.750531 313.884966 
" style="fill:none;stroke:#000000;stroke-linecap:round;"/>
    <path clip-path="url(#p450f438343)" d="M 403.799153 309.537508 
L 402.750531 313.884966 
L 399.901738 310.437593 
L 403.799153 309.537508 
z
" style="stroke:#000000;stroke-linecap:round;"/>
   </g>
   <g id="patch_6">
    <path clip-path="url(#p450f438343)" d="M 363.792749 181.56615 
Q 288.087876 173.47118 213.494698 165.495082 
" style="fill:none;stroke:#000000;stroke-linecap:round;"/>
    <path clip-path="url(#p450f438343)" d="M 217.259382 167.909033 
L 213.494698 165.495082 
L 217.684669 163.931706 
L 217.259382 167.909033 
z
" style="stroke:#000000;stroke-linecap:round;"/>
   </g>
   <g id="patch_7">
    <path clip-path="url(#p450f438343)" d="M 543.950408 155.023899 
Q 462.45349 168.070942 382.060548 180.941247 
" style="fill:none;stroke:#000000;stroke-linecap:round;"/>
    <path clip-path="url(#p450f438343)" d="M 386.326412 182.283782 
L 382.060548 180.941247 
L 385.694094 178.334076 
L 386.326412 182.283782 
z
" style="stroke:#000000;stroke-linecap:round;"/>
   </g>
   <g id="patch_8">
    <path clip-path="url(#p450f438343)" d="M 299.644782 111.776175 
Q 255.505347 136.029973 212.345765 159.74536 
" style="fill:none;stroke:#000000;stroke-linecap:round;"/>
    <path clip-path="url(#p450f438343)" d="M 216.814536 159.571897 
L 212.345765 159.74536 
L 214.888256 156.066266 
L 216.814536 159.571897 
z
" style="stroke:#000000;stroke-linecap:round;"/>
   </g>
   <g id="patch_9">
    <path clip-path="url(#p450f438343)" d="M 302.245864 213.927736 
Q 361.7627 198.525581 420.197159 183.40353 
" style="fill:none;stroke:#000000;stroke-linecap:round;"/>
    <path clip-path="url(#p450f438343)" d="M 415.823661 182.469447 
L 420.197159 183.40353 
L 416.825794 186.341879 
L 415.823661 182.469447 
z
" style="stroke:#000000;stroke-linecap:round;"/>
   </g>
   <g id="patch_10">
    <path clip-path="url(#p450f438343)" d="M 286.347872 211.7903 
Q 248.816734 190.276047 212.255564 169.317816 
" style="fill:none;stroke:#000000;stroke-linecap:round;"/>
    <path clip-path="url(#p450f438343)" d="M 214.731186 173.042235 
L 212.255564 169.317816 
L 216.720472 169.57197 
L 214.731186 173.042235 
z
" style="stroke:#000000;stroke-linecap:round;"/>
   </g>
   <g id="patch_11">
    <path clip-path="url(#p450f438343)" d="M 208.949184 240.94895 
Q 206.653738 207.023243 204.433766 174.213021 
" style="fill:none;stroke:#000000;stroke-linecap:round;"/>
    <path clip-path="url(#p450f438343)" d="M 202.708355 178.338909 
L 204.433766 174.213021 
L 206.699231 178.068883 
L 202.708355 178.338909 
z
" style="stroke:#000000;stroke-linecap:round;"/>
   </g>
   <g id="patch_12">
    <path clip-path="url(#p450f438343)" d="M 299.537239 182.546817 
Q 360.271583 181.802858 419.887978 181.072593 
" style="fill:none;stroke:#000000;stroke-linecap:round;"/>
    <path clip-path="url(#p450f438343)" d="M 415.863781 179.121737 
L 419.887978 181.072593 
L 415.912775 183.121437 
L 415.863781 179.121737 
z
" style="stroke:#000000;stroke-linecap:round;"/>
   </g>
   <g id="patch_13">
    <path clip-path="url(#p450f438343)" d="M 284.190479 188.153847 
Q 250.205544 216.119326 217.083929 243.374396 
" style="fill:none;stroke:#000000;stroke-linecap:round;"/>
    <path clip-path="url(#p450f438343)" d="M 221.443451 242.377119 
L 217.083929 243.374396 
L 218.90182 239.288412 
L 221.443451 242.377119 
z
" style="stroke:#000000;stroke-linecap:round;"/>
   </g>
   <g id="patch_14">
    <path clip-path="url(#p450f438343)" d="M 409.214962 361.605754 
Q 530.400831 367.514247 650.469993 373.368295 
" style="fill:none;stroke:#000000;stroke-linecap:round;"/>
    <path clip-path="url(#p450f438343)" d="M 646.572135 371.175876 
L 650.469993 373.368295 
L 646.377344 375.171131 
L 646.572135 371.175876 
z
" style="stroke:#000000;stroke-linecap:round;"/>
   </g>
   <g id="patch_15">
    <path clip-path="url(#p450f438343)" d="M 352.583844 255.841345 
Q 374.780068 304.572947 396.512859 352.287085 
" style="fill:none;stroke:#000000;stroke-linecap:round;"/>
    <path clip-path="url(#p450f438343)" d="M 396.674923 347.817887 
L 396.512859 352.287085 
L 393.034738 349.475915 
L 396.674923 347.817887 
z
" style="stroke:#000000;stroke-linecap:round;"/>
   </g>
   <g id="patch_16">
    <path clip-path="url(#p450f438343)" d="M 406.452695 340.382935 
Q 399.967349 331.633917 394.147792 323.783078 
" style="fill:none;stroke:#000000;stroke-linecap:round;"/>
    <path clip-path="url(#p450f438343)" d="M 394.923081 328.187499 
L 394.147792 323.783078 
L 398.136502 325.8055 
L 394.923081 328.187499 
z
" style="stroke:#000000;stroke-linecap:round;"/>
   </g>
   <g id="patch_17">
    <path clip-path="url(#p450f438343)" d="M 415.549976 355.05284 
Q 428.059622 379.545401 440.060722 403.042281 
" style="fill:none;stroke:#000000;stroke-linecap:round;"/>
    <path clip-path="url(#p450f438343)" d="M 440.022418 398.570309 
L 440.060722 403.042281 
L 436.460162 400.389741 
L 440.022418 398.570309 
z
" style="stroke:#000000;stroke-linecap:round;"/>
   </g>
   <g id="patch_18">
    <path clip-path="url(#p450f438343)" d="M 419.080312 351.730647 
Q 430.315848 358.330761 440.587373 364.364584 
" style="fill:none;stroke:#000000;stroke-linecap:round;"/>
    <path clip-path="url(#p450f438343)" d="M 438.151437 360.614089 
L 440.587373 364.364584 
L 436.125415 364.063036 
L 438.151437 360.614089 
z
" style="stroke:#000000;stroke-linecap:round;"/>
   </g>
   <g id="patch_19">
    <path clip-path="url(#p450f438343)" d="M 483.502512 332.620336 
Q 509.375835 395.840491 534.825687 458.025913 
" style="fill:none;stroke:#000000;stroke-linecap:round;"/>
    <path clip-path="url(#p450f438343)" d="M 535.161613 453.566412 
L 534.825687 458.025913 
L 531.459641 455.081472 
L 535.161613 453.566412 
z
" style="stroke:#000000;stroke-linecap:round;"/>
   </g>
   <g id="patch_20">
    <path clip-path="url(#p450f438343)" d="M 488.576287 326.892151 
Q 570.231263 349.22602 650.807816 371.264924 
" style="fill:none;stroke:#000000;stroke-linecap:round;"/>
    <path clip-path="url(#p450f438343)" d="M 647.477183 368.280484 
L 650.807816 371.264924 
L 646.421884 372.138767 
L 647.477183 368.280484 
z
" style="stroke:#000000;stroke-linecap:round;"/>
   </g>
   <g id="patch_21">
    <path clip-path="url(#p450f438343)" d="M 473.291947 319.411086 
Q 385.547713 253.62898 298.698033 188.517525 
" style="fill:none;stroke:#000000;stroke-linecap:round;"/>
    <path clip-path="url(#p450f438343)" d="M 300.698794 192.517144 
L 298.698033 188.517525 
L 303.098186 189.316688 
L 300.698794 192.517144 
z
" style="stroke:#000000;stroke-linecap:round;"/>
   </g>
   <g id="patch_22">
    <path clip-path="url(#p450f438343)" d="M 472.002806 327.331546 
Q 445.919353 335.975176 420.897178 344.267114 
" style="fill:none;stroke:#000000;stroke-linecap:round;"/>
    <path clip-path="url(#p450f438343)" d="M 425.323249 344.907342 
L 420.897178 344.267114 
L 424.065003 341.110394 
L 425.323249 344.907342 
z
" style="stroke:#000000;stroke-linecap:round;"/>
   </g>
   <g id="patch_23">
    <path clip-path="url(#p450f438343)" d="M 657.483345 382.056625 
Q 656.194916 385.895642 655.262216 388.674726 
" style="fill:none;stroke:#000000;stroke-linecap:round;"/>
    <path clip-path="url(#p450f438343)" d="M 658.430974 385.518942 
L 655.262216 388.674726 
L 654.638844 384.246249 
L 658.430974 385.518942 
z
" style="stroke:#000000;stroke-linecap:round;"/>
   </g>
   <g id="patch_24">
    <path clip-path="url(#p450f438343)" d="M 644.753884 402.447793 
Q 595.341765 432.509687 546.884798 461.990475 
" style="fill:none;stroke:#000000;stroke-linecap:round;"/>
    <path clip-path="url(#p450f438343)" d="M 551.341569 461.620074 
L 546.884798 461.990475 
L 549.262541 458.202818 
L 551.341569 461.620074 
z
" style="stroke:#000000;stroke-linecap:round;"/>
   </g>
   <g id="patch_25">
    <path clip-path="url(#p450f438343)" d="M 444.866181 426.075324 
Q 327.096386 403.330219 210.424341 380.797125 
" style="fill:none;stroke:#000000;stroke-linecap:round;"/>
    <path clip-path="url(#p450f438343)" d="M 213.972509 383.519348 
L 210.424341 380.797125 
L 214.73102 379.591924 
L 213.972509 383.519348 
z
" style="stroke:#000000;stroke-linecap:round;"/>
   </g>
   <g id="patch_26">
    <path clip-path="url(#p450f438343)" d="M 461.751621 425.535348 
Q 556.805334 400.781197 650.777101 376.308811 
" style="fill:none;stroke:#000000;stroke-linecap:round;"/>
    <path clip-path="url(#p450f438343)" d="M 646.402175 375.381433 
L 650.777101 376.308811 
L 647.410244 379.252325 
L 646.402175 375.381433 
z
" style="stroke:#000000;stroke-linecap:round;"/>
   </g>
   <g id="patch_27">
    <path clip-path="url(#p450f438343)" d="M 461.232349 431.351073 
Q 495.949453 447.39585 529.651667 462.971587 
" style="fill:none;stroke:#000000;stroke-linecap:round;"/>
    <path clip-path="url(#p450f438343)" d="M 526.859728 459.47801 
L 529.651667 462.971587 
L 525.181642 463.108992 
L 526.859728 459.47801 
z
" style="stroke:#000000;stroke-linecap:round;"/>
   </g>
   <g id="patch_28">
    <path clip-path="url(#p450f438343)" d="M 561.259961 302.16241 
Q 503.38998 335.638418 446.487777 368.554597 
" style="fill:none;stroke:#000000;stroke-linecap:round;"/>
    <path clip-path="url(#p450f438343)" d="M 450.951652 368.282903 
L 446.487777 368.554597 
L 448.948747 364.82048 
L 450.951652 368.282903 
z
" style="stroke:#000000;stroke-linecap:round;"/>
   </g>
   <g id="patch_29">
    <path clip-path="url(#p450f438343)" d="M 445.716577 369.474278 
Q 462.744597 360.672447 478.779423 352.384002 
" style="fill:none;stroke:#000000;stroke-linecap:round;"/>
    <path clip-path="url(#p450f438343)" d="M 474.30769 352.444064 
L 478.779423 352.384002 
L 476.144432 355.997425 
L 474.30769 352.444064 
z
" style="stroke:#000000;stroke-linecap:round;"/>
   </g>
   <g id="patch_30">
    <path clip-path="url(#p450f438343)" d="M 440.38035 381.780525 
Q 445.697028 400.581357 450.709469 418.306346 
" style="fill:none;stroke:#000000;stroke-linecap:round;"/>
    <path clip-path="url(#p450f438343)" d="M 451.545524 413.913054 
L 450.709469 418.306346 
L 447.696468 415.001527 
L 451.545524 413.913054 
z
" style="stroke:#000000;stroke-linecap:round;"/>
   </g>
   <g id="patch_31">
    <path clip-path="url(#p450f438343)" d="M 352.979128 369.360655 
Q 415.947785 359.309696 477.812384 349.434965 
" style="fill:none;stroke:#000000;stroke-linecap:round;"/>
    <path clip-path="url(#p450f438343)" d="M 473.54714 348.090459 
L 477.812384 349.434965 
L 474.177632 352.040456 
L 473.54714 348.090459 
z
" style="stroke:#000000;stroke-linecap:round;"/>
   </g>
   <g id="patch_32">
    <path clip-path="url(#p450f438343)" d="M 353.085366 370.977636 
Q 391.227423 372.087971 428.25192 373.165773 
" style="fill:none;stroke:#000000;stroke-linecap:round;"/>
    <path clip-path="url(#p450f438343)" d="M 424.31181 371.050227 
L 428.25192 373.165773 
L 424.195417 375.048534 
L 424.31181 371.050227 
z
" style="stroke:#000000;stroke-linecap:round;"/>
   </g>
   <g id="patch_33">
    <path clip-path="url(#p450f438343)" d="M 352.104461 374.741573 
Q 398.900963 399.222576 444.706801 423.185326 
" style="fill:none;stroke:#000000;stroke-linecap:round;"/>
    <path clip-path="url(#p450f438343)" d="M 442.089576 419.559015 
L 444.706801 423.185326 
L 440.235417 423.10332 
L 442.089576 419.559015 
z
" style="stroke:#000000;stroke-linecap:round;"/>
   </g>
   <g id="patch_34">
    <path clip-path="url(#p450f438343)" d="M 484.064148 355.857522 
Q 470.417626 387.807392 457.21026 418.729088 
" style="fill:none;stroke:#000000;stroke-linecap:round;"/>
    <path clip-path="url(#p450f438343)" d="M 460.620688 415.836169 
L 457.21026 418.729088 
L 456.942182 414.264995 
L 460.620688 415.836169 
z
" style="stroke:#000000;stroke-linecap:round;"/>
   </g>
   <g id="patch_35">
    <path clip-path="url(#p450f438343)" d="M 380.461894 297.378807 
Q 430.046734 320.787323 478.620542 343.718541 
" style="fill:none;stroke:#000000;stroke-linecap:round;"/>
    <path clip-path="url(#p450f438343)" d="M 475.85718 340.202317 
L 478.620542 343.718541 
L 474.149545 343.819496 
L 475.85718 340.202317 
z
" style="stroke:#000000;stroke-linecap:round;"/>
   </g>
   <g id="patch_36">
    <path clip-path="url(#p450f438343)" d="M 378.119478 300.378038 
Q 405.327076 333.565824 431.82585 365.888989 
" style="fill:none;stroke:#000000;stroke-linecap:round;"/>
    <path clip-path="url(#p450f438343)" d="M 430.836569 361.527645 
L 431.82585 365.888989 
L 427.743206 364.063607 
L 430.836569 361.527645 
z
" style="stroke:#000000;stroke-linecap:round;"/>
   </g>
   <g id="patch_37">
    <path clip-path="url(#p450f438343)" d="M 594.97003 330.403311 
Q 591.860716 383.329187 588.816971 435.138953 
" style="fill:none;stroke:#000000;stroke-linecap:round;"/>
    <path clip-path="url(#p450f438343)" d="M 591.048118 431.263132 
L 588.816971 435.138953 
L 587.055003 431.028543 
L 591.048118 431.263132 
z
" style="stroke:#000000;stroke-linecap:round;"/>
   </g>
   <g id="patch_38">
    <path clip-path="url(#p450f438343)" d="M 602.951901 326.129715 
Q 643.667771 349.958024 683.418707 373.22162 
" style="fill:none;stroke:#000000;stroke-linecap:round;"/>
    <path clip-path="url(#p450f438343)" d="M 680.976639 369.475114 
L 683.418707 373.22162 
L 678.956262 372.927371 
L 680.976639 369.475114 
z
" style="stroke:#000000;stroke-linecap:round;"/>
   </g>
   <g id="patch_39">
    <path clip-path="url(#p450f438343)" d="M 428.186565 189.486976 
Q 417.308621 252.184721 406.621799 313.780888 
" style="fill:none;stroke:#000000;stroke-linecap:round;"/>
    <path clip-path="url(#p450f438343)" d="M 409.276138 310.181654 
L 406.621799 313.780888 
L 405.335015 309.497876 
L 409.276138 310.181654 
z
" style="stroke:#000000;stroke-linecap:round;"/>
   </g>
   <g id="patch_40">
    <path clip-path="url(#p450f438343)" d="M 496.877924 228.06105 
Q 466.817916 206.991869 437.673448 186.564395 
" style="fill:none;stroke:#000000;stroke-linecap:round;"/>
    <path clip-path="url(#p450f438343)" d="M 439.801066 190.497999 
L 437.673448 186.564395 
L 442.096902 187.222463 
L 439.801066 190.497999 
z
" style="stroke:#000000;stroke-linecap:round;"/>
   </g>
   <g id="patch_41">
    <path clip-path="url(#p450f438343)" d="M 395.705104 320.157367 
Q 399.692703 346.679188 403.514072 372.095403 
" style="fill:none;stroke:#000000;stroke-linecap:round;"/>
    <path clip-path="url(#p450f438343)" d="M 404.897121 367.842501 
L 403.514072 372.095403 
L 400.94158 368.437223 
L 404.897121 367.842501 
z
" style="stroke:#000000;stroke-linecap:round;"/>
   </g>
   <g id="patch_42">
    <path clip-path="url(#p450f438343)" d="M 389.534327 318.747499 
Q 350.138989 376.433937 311.374176 433.197099 
" style="fill:none;stroke:#000000;stroke-linecap:round;"/>
    <path clip-path="url(#p450f438343)" d="M 315.281617 431.021805 
L 311.374176 433.197099 
L 311.978406 428.76597 
L 315.281617 431.021805 
z
" style="stroke:#000000;stroke-linecap:round;"/>
   </g>
   <g id="patch_43">
    <path clip-path="url(#p450f438343)" d="M 386.72774 315.577772 
Q 346.746356 336.276781 307.757837 356.461767 
" style="fill:none;stroke:#000000;stroke-linecap:round;"/>
    <path clip-path="url(#p450f438343)" d="M 312.22953 356.398836 
L 307.757837 356.461767 
L 310.390508 352.846654 
L 312.22953 356.398836 
z
" style="stroke:#000000;stroke-linecap:round;"/>
   </g>
   <g id="patch_44">
    <path clip-path="url(#p450f438343)" d="M 425.247584 298.933517 
Q 391.103427 331.495183 357.768366 363.285251 
" style="fill:none;stroke:#000000;stroke-linecap:round;"/>
    <path clip-path="url(#p450f438343)" d="M 362.043354 361.972057 
L 357.768366 363.285251 
L 359.282804 359.077344 
L 362.043354 361.972057 
z
" style="stroke:#000000;stroke-linecap:round;"/>
   </g>
   <g id="patch_45">
    <path clip-path="url(#p450f438343)" d="M 427.563155 300.665654 
Q 406.581833 341.594418 386.110539 381.528258 
" style="fill:none;stroke:#000000;stroke-linecap:round;"/>
    <path clip-path="url(#p450f438343)" d="M 389.715042 378.881079 
L 386.110539 381.528258 
L 386.155497 377.056348 
L 389.715042 378.881079 
z
" style="stroke:#000000;stroke-linecap:round;"/>
   </g>
   <g id="patch_46">
    <path clip-path="url(#p450f438343)" d="M 294.331113 436.820406 
Q 319.718619 406.736492 344.385067 377.507024 
" style="fill:none;stroke:#000000;stroke-linecap:round;"/>
    <path clip-path="url(#p450f438343)" d="M 340.276856 379.274113 
L 344.385067 377.507024 
L 343.333811 381.853846 
L 340.276856 379.274113 
z
" style="stroke:#000000;stroke-linecap:round;"/>
   </g>
   <g id="patch_47">
    <path clip-path="url(#p450f438343)" d="M 296.261137 439.135101 
Q 335.199542 416.833099 373.167775 395.086765 
" style="fill:none;stroke:#000000;stroke-linecap:round;"/>
    <path clip-path="url(#p450f438343)" d="M 368.702773 395.339282 
L 373.167775 395.086765 
L 370.690788 398.810276 
L 368.702773 395.339282 
z
" style="stroke:#000000;stroke-linecap:round;"/>
   </g>
   <g id="patch_48">
    <path clip-path="url(#p450f438343)" d="M 368.849966 292.177092 
Q 360.75406 326.888473 352.912103 360.511042 
" style="fill:none;stroke:#000000;stroke-linecap:round;"/>
    <path clip-path="url(#p450f438343)" d="M 355.768383 357.06987 
L 352.912103 360.511042 
L 351.872933 356.161315 
L 355.768383 357.06987 
z
" style="stroke:#000000;stroke-linecap:round;"/>
   </g>
   <g id="patch_49">
    <path clip-path="url(#p450f438343)" d="M 371.693728 292.357122 
Q 376.233895 336.9842 380.660903 380.498986 
" style="fill:none;stroke:#000000;stroke-linecap:round;"/>
    <path clip-path="url(#p450f438343)" d="M 382.245779 376.3171 
L 380.660903 380.498986 
L 378.26632 376.721953 
L 382.245779 376.3171 
z
" style="stroke:#000000;stroke-linecap:round;"/>
   </g>
   <g id="patch_50">
    <path clip-path="url(#p450f438343)" d="M 342.210572 368.283419 
Q 268.695939 353.101305 196.276234 338.145313 
" style="fill:none;stroke:#000000;stroke-linecap:round;"/>
    <path clip-path="url(#p450f438343)" d="M 199.789068 340.912982 
L 196.276234 338.145313 
L 200.59807 336.995647 
L 199.789068 340.912982 
z
" style="stroke:#000000;stroke-linecap:round;"/>
   </g>
   <g id="patch_51">
    <path clip-path="url(#p450f438343)" d="M 357.056012 375.902861 
Q 405.260175 420.342742 452.642325 464.0248 
" style="fill:none;stroke:#000000;stroke-linecap:round;"/>
    <path clip-path="url(#p450f438343)" d="M 451.057033 459.843072 
L 452.642325 464.0248 
L 448.345767 462.783996 
L 451.057033 459.843072 
z
" style="stroke:#000000;stroke-linecap:round;"/>
   </g>
   <g id="patch_52">
    <path clip-path="url(#p450f438343)" d="M 351.034738 378.687317 
Q 352.678311 420.040273 354.277483 460.276077 
" style="fill:none;stroke:#000000;stroke-linecap:round;"/>
    <path clip-path="url(#p450f438343)" d="M 356.11705 456.199805 
L 354.277483 460.276077 
L 352.120206 456.35866 
L 356.11705 456.199805 
z
" style="stroke:#000000;stroke-linecap:round;"/>
   </g>
   <g id="patch_53">
    <path clip-path="url(#p450f438343)" d="M 373.306666 387.914325 
Q 284.176463 363.19819 196.123638 338.780815 
" style="fill:none;stroke:#000000;stroke-linecap:round;"/>
    <path clip-path="url(#p450f438343)" d="M 199.443741 341.776965 
L 196.123638 338.780815 
L 200.51262 337.922423 
L 199.443741 341.776965 
z
" style="stroke:#000000;stroke-linecap:round;"/>
   </g>
   <g id="patch_54">
    <path clip-path="url(#p450f438343)" d="M 387.684865 396.435457 
Q 420.742155 430.441277 453.020136 463.645425 
" style="fill:none;stroke:#000000;stroke-linecap:round;"/>
    <path clip-path="url(#p450f438343)" d="M 451.666065 459.383208 
L 453.020136 463.645425 
L 448.79792 462.171352 
L 451.666065 459.383208 
z
" style="stroke:#000000;stroke-linecap:round;"/>
   </g>
   <g id="patch_55">
    <path clip-path="url(#p450f438343)" d="M 378.876281 398.434362 
Q 368.157819 430.137443 357.797441 460.781384 
" style="fill:none;stroke:#000000;stroke-linecap:round;"/>
    <path clip-path="url(#p450f438343)" d="M 360.973205 457.632651 
L 357.797441 460.781384 
L 357.183913 456.351533 
L 360.973205 457.632651 
z
" style="stroke:#000000;stroke-linecap:round;"/>
   </g>
   <g id="patch_56">
    <path clip-path="url(#p450f438343)" d="M 396.981168 316.169352 
Q 491.899912 318.840708 585.701066 321.48061 
" style="fill:none;stroke:#000000;stroke-linecap:round;"/>
    <path clip-path="url(#p450f438343)" d="M 581.758914 319.368872 
L 585.701066 321.48061 
L 581.646384 323.367289 
L 581.758914 319.368872 
z
" style="stroke:#000000;stroke-linecap:round;"/>
   </g>
   <g id="patch_57">
    <path clip-path="url(#p450f438343)" d="M 385.058662 323.941866 
Q 373.408626 352.547305 362.180295 380.117289 
" style="fill:none;stroke:#000000;stroke-linecap:round;"/>
    <path clip-path="url(#p450f438343)" d="M 365.541311 377.167107 
L 362.180295 380.117289 
L 361.836759 375.658367 
L 365.541311 377.167107 
z
" style="stroke:#000000;stroke-linecap:round;"/>
   </g>
   <g id="patch_58">
    <path clip-path="url(#p450f438343)" d="M 382.383976 322.229252 
Q 329.362965 378.501074 277.108669 433.959171 
" style="fill:none;stroke:#000000;stroke-linecap:round;"/>
    <path clip-path="url(#p450f438343)" d="M 281.307388 432.419445 
L 277.108669 433.959171 
L 278.39612 429.67636 
L 281.307388 432.419445 
z
" style="stroke:#000000;stroke-linecap:round;"/>
   </g>
   <g id="patch_59">
    <path clip-path="url(#p450f438343)" d="M 451.947415 407.317535 
Q 519.992846 366.754161 587.077932 326.763271 
" style="fill:none;stroke:#000000;stroke-linecap:round;"/>
    <path clip-path="url(#p450f438343)" d="M 582.618007 327.09353 
L 587.077932 326.763271 
L 584.666184 330.529366 
L 582.618007 327.09353 
z
" style="stroke:#000000;stroke-linecap:round;"/>
   </g>
   <g id="patch_60">
    <path clip-path="url(#p450f438343)" d="M 436.132517 409.553192 
Q 401.498616 400.463232 367.946123 391.657098 
" style="fill:none;stroke:#000000;stroke-linecap:round;"/>
    <path clip-path="url(#p450f438343)" d="M 371.307366 394.607022 
L 367.946123 391.657098 
L 372.322808 390.738058 
L 371.307366 394.607022 
z
" style="stroke:#000000;stroke-linecap:round;"/>
   </g>
   <g id="patch_61">
    <path clip-path="url(#p450f438343)" d="M 435.968108 413.19009 
Q 357.45778 426.41215 280.049961 439.448534 
" style="fill:none;stroke:#000000;stroke-linecap:round;"/>
    <path clip-path="url(#p450f438343)" d="M 284.326561 440.756468 
L 280.049961 439.448534 
L 283.662269 436.812014 
L 284.326561 440.756468 
z
" style="stroke:#000000;stroke-linecap:round;"/>
   </g>
   <g id="patch_62">
    <path clip-path="url(#p450f438343)" d="M 457.254896 366.64163 
Q 522.24737 345.536318 586.176473 324.776318 
" style="fill:none;stroke:#000000;stroke-linecap:round;"/>
    <path clip-path="url(#p450f438343)" d="M 581.754325 324.109533 
L 586.176473 324.776318 
L 582.989756 327.913966 
L 581.754325 324.109533 
z
" style="stroke:#000000;stroke-linecap:round;"/>
   </g>
   <g id="patch_63">
    <path clip-path="url(#p450f438343)" d="M 440.560933 371.171747 
Q 403.755016 379.245938 368.041164 387.08056 
" style="fill:none;stroke:#000000;stroke-linecap:round;"/>
    <path clip-path="url(#p450f438343)" d="M 372.376809 388.176999 
L 368.041164 387.08056 
L 371.519702 384.269908 
L 372.376809 388.176999 
z
" style="stroke:#000000;stroke-linecap:round;"/>
   </g>
   <g id="patch_64">
    <path clip-path="url(#p450f438343)" d="M 440.980197 372.545529 
Q 359.710507 405.195152 279.47826 437.427989 
" style="fill:none;stroke:#000000;stroke-linecap:round;"/>
    <path clip-path="url(#p450f438343)" d="M 283.935501 437.792682 
L 279.47826 437.427989 
L 282.444359 434.081012 
L 283.935501 437.792682 
z
" style="stroke:#000000;stroke-linecap:round;"/>
   </g>
   <g id="patch_65">
    <path clip-path="url(#p450f438343)" d="M 350.215668 386.622073 
Q 272.596152 362.671752 196.044969 339.051076 
" style="fill:none;stroke:#000000;stroke-linecap:round;"/>
    <path clip-path="url(#p450f438343)" d="M 199.277464 342.141541 
L 196.044969 339.051076 
L 200.456838 338.319359 
L 199.277464 342.141541 
z
" style="stroke:#000000;stroke-linecap:round;"/>
   </g>
   <g id="patch_66">
    <path clip-path="url(#p450f438343)" d="M 365.242656 394.603747 
Q 409.162651 429.915316 452.21131 464.526332 
" style="fill:none;stroke:#000000;stroke-linecap:round;"/>
    <path clip-path="url(#p450f438343)" d="M 450.347109 460.461267 
L 452.21131 464.526332 
L 447.840737 463.578654 
L 450.347109 460.461267 
z
" style="stroke:#000000;stroke-linecap:round;"/>
   </g>
   <g id="patch_67">
    <path clip-path="url(#p450f438343)" d="M 358.081862 397.828093 
Q 356.57844 429.610048 355.127847 460.275218 
" style="fill:none;stroke:#000000;stroke-linecap:round;"/>
    <path clip-path="url(#p450f438343)" d="M 357.314619 456.374188 
L 355.127847 460.275218 
L 353.319087 456.185183 
L 357.314619 456.374188 
z
" style="stroke:#000000;stroke-linecap:round;"/>
   </g>
   <g id="patch_68">
    <path clip-path="url(#p450f438343)" d="M 265.003368 434.301617 
Q 228.553431 388.620322 192.800813 343.812951 
" style="fill:none;stroke:#000000;stroke-linecap:round;"/>
    <path clip-path="url(#p450f438343)" d="M 193.732299 348.187003 
L 192.800813 343.812951 
L 196.858946 345.692194 
L 193.732299 348.187003 
z
" style="stroke:#000000;stroke-linecap:round;"/>
   </g>
   <g id="patch_69">
    <path clip-path="url(#p450f438343)" d="M 278.964739 442.40926 
Q 365.120554 455.864112 450.171724 469.146452 
" style="fill:none;stroke:#000000;stroke-linecap:round;"/>
    <path clip-path="url(#p450f438343)" d="M 446.528224 466.553209 
L 450.171724 469.146452 
L 445.91103 470.505306 
L 446.528224 466.553209 
z
" style="stroke:#000000;stroke-linecap:round;"/>
   </g>
   <g id="patch_70">
    <path clip-path="url(#p450f438343)" d="M 278.596022 443.888677 
Q 312.538133 455.559287 345.422964 466.866363 
" style="fill:none;stroke:#000000;stroke-linecap:round;"/>
    <path clip-path="url(#p450f438343)" d="M 342.29063 463.674423 
L 345.422964 466.866363 
L 340.990011 467.457066 
L 342.29063 463.674423 
z
" style="stroke:#000000;stroke-linecap:round;"/>
   </g>
   <g id="patch_71">
    <path clip-path="url(#p450f438343)" d="M 396.491476 379.992126 
Q 295.835958 358.965648 196.274851 338.167788 
" style="fill:none;stroke:#000000;stroke-linecap:round;"/>
    <path clip-path="url(#p450f438343)" d="M 199.78137 340.943455 
L 196.274851 338.167788 
L 200.599296 337.027973 
L 199.78137 340.943455 
z
" style="stroke:#000000;stroke-linecap:round;"/>
   </g>
   <g id="patch_72">
    <path clip-path="url(#p450f438343)" d="M 409.516948 389.133399 
Q 432.400861 426.208692 454.697543 462.332585 
" style="fill:none;stroke:#000000;stroke-linecap:round;"/>
    <path clip-path="url(#p450f438343)" d="M 454.298519 457.878286 
L 454.697543 462.332585 
L 450.894689 459.979225 
L 454.298519 457.878286 
z
" style="stroke:#000000;stroke-linecap:round;"/>
   </g>
   <g id="patch_73">
    <path clip-path="url(#p450f438343)" d="M 400.680065 389.287482 
Q 379.816476 425.903865 359.506386 461.548837 
" style="fill:none;stroke:#000000;stroke-linecap:round;"/>
    <path clip-path="url(#p450f438343)" d="M 363.224356 459.06354 
L 359.506386 461.548837 
L 359.748931 457.083283 
L 363.224356 459.06354 
z
" style="stroke:#000000;stroke-linecap:round;"/>
   </g>
   <g id="patch_74">
    <path clip-path="url(#p450f438343)" d="M 299.360379 435.541526 
Q 246.27777 388.718981 194.033622 342.636017 
" style="fill:none;stroke:#000000;stroke-linecap:round;"/>
    <path clip-path="url(#p450f438343)" d="M 195.710392 346.781912 
L 194.033622 342.636017 
L 198.3564 343.782139 
L 195.710392 346.781912 
z
" style="stroke:#000000;stroke-linecap:round;"/>
   </g>
   <g id="patch_75">
    <path clip-path="url(#p450f438343)" d="M 314.368499 442.897323 
Q 382.846545 455.964457 450.226374 468.822026 
" style="fill:none;stroke:#000000;stroke-linecap:round;"/>
    <path clip-path="url(#p450f438343)" d="M 446.67215 466.107714 
L 450.226374 468.822026 
L 445.92239 470.036818 
L 446.67215 466.107714 
z
" style="stroke:#000000;stroke-linecap:round;"/>
   </g>
   <g id="patch_76">
    <path clip-path="url(#p450f438343)" d="M 313.320917 445.67233 
Q 330.262345 455.65901 346.240627 465.077932 
" style="fill:none;stroke:#000000;stroke-linecap:round;"/>
    <path clip-path="url(#p450f438343)" d="M 343.810407 461.323731 
L 346.240627 465.077932 
L 341.779134 464.769587 
L 343.810407 461.323731 
z
" style="stroke:#000000;stroke-linecap:round;"/>
   </g>
   <g id="patch_77">
    <path clip-path="url(#p450f438343)" d="M 290.614168 359.090974 
Q 242.886158 348.562234 196.249932 338.274341 
" style="fill:none;stroke:#000000;stroke-linecap:round;"/>
    <path clip-path="url(#p450f438343)" d="M 199.72518 341.089062 
L 196.249932 338.274341 
L 200.586858 337.182976 
L 199.72518 341.089062 
z
" style="stroke:#000000;stroke-linecap:round;"/>
   </g>
   <g id="patch_78">
    <path clip-path="url(#p450f438343)" d="M 306.229864 365.839955 
Q 379.454427 415.806309 451.755478 465.142485 
" style="fill:none;stroke:#000000;stroke-linecap:round;"/>
    <path clip-path="url(#p450f438343)" d="M 449.578717 461.235861 
L 451.755478 465.142485 
L 447.324122 464.539919 
L 449.578717 461.235861 
z
" style="stroke:#000000;stroke-linecap:round;"/>
   </g>
   <g id="patch_79">
    <path clip-path="url(#p450f438343)" d="M 303.00526 368.670764 
Q 326.868743 415.49821 350.224587 461.329513 
" style="fill:none;stroke:#000000;stroke-linecap:round;"/>
    <path clip-path="url(#p450f438343)" d="M 350.190357 456.857508 
L 350.224587 461.329513 
L 346.626445 458.673694 
L 350.190357 456.857508 
z
" style="stroke:#000000;stroke-linecap:round;"/>
   </g>
   <g id="patch_80">
    <path clip-path="url(#p450f438343)" d="M 582.305553 395.455166 
Q 562.675604 427.569863 543.628747 458.730619 
" style="fill:none;stroke:#000000;stroke-linecap:round;"/>
    <path clip-path="url(#p450f438343)" d="M 547.421341 456.360762 
L 543.628747 458.730619 
L 544.008417 454.274629 
L 547.421341 456.360762 
z
" style="stroke:#000000;stroke-linecap:round;"/>
   </g>
   <g id="patch_81">
    <path clip-path="url(#p450f438343)" d="M 579.382819 383.635992 
Q 533.523603 356.336552 488.625085 329.609004 
" style="fill:none;stroke:#000000;stroke-linecap:round;"/>
    <path clip-path="url(#p450f438343)" d="M 491.03915 333.373614 
L 488.625085 329.609004 
L 493.085212 329.936518 
L 491.03915 333.373614 
z
" style="stroke:#000000;stroke-linecap:round;"/>
   </g>
   <g id="patch_82">
    <path clip-path="url(#p450f438343)" d="M 495.827663 319.655436 
Q 515.973468 389.205622 535.808212 457.681919 
" style="fill:none;stroke:#000000;stroke-linecap:round;"/>
    <path clip-path="url(#p450f438343)" d="M 536.616358 453.283407 
L 535.808212 457.681919 
L 532.774291 454.396295 
L 536.616358 453.283407 
z
" style="stroke:#000000;stroke-linecap:round;"/>
   </g>
   <g id="patch_83">
    <path clip-path="url(#p450f438343)" d="M 499.537192 305.205815 
Q 576.803063 227.848159 653.278834 151.281541 
" style="fill:none;stroke:#000000;stroke-linecap:round;"/>
    <path clip-path="url(#p450f438343)" d="M 649.037033 152.698272 
L 653.278834 151.281541 
L 651.867139 155.52502 
L 649.037033 152.698272 
z
" style="stroke:#000000;stroke-linecap:round;"/>
   </g>
   <g id="patch_84">
    <path clip-path="url(#p450f438343)" d="M 484.77331 310.785997 
Q 330.356928 301.010177 177.056346 291.304996 
" style="fill:none;stroke:#000000;stroke-linecap:round;"/>
    <path clip-path="url(#p450f438343)" d="M 180.921991 293.553727 
L 177.056346 291.304996 
L 181.174718 289.561719 
L 180.921991 293.553727 
z
" style="stroke:#000000;stroke-linecap:round;"/>
   </g>
   <g id="patch_85">
    <path clip-path="url(#p450f438343)" d="M 502.058468 310.713442 
Q 606.458217 303.225731 709.742796 295.818002 
" style="fill:none;stroke:#000000;stroke-linecap:round;"/>
    <path clip-path="url(#p450f438343)" d="M 705.609969 294.109278 
L 709.742796 295.818002 
L 705.89612 298.099029 
L 705.609969 294.109278 
z
" style="stroke:#000000;stroke-linecap:round;"/>
   </g>
   <g id="patch_86">
    <path clip-path="url(#p450f438343)" d="M 489.380309 318.99271 
Q 450.511891 392.7432 412.164742 465.504611 
" style="fill:none;stroke:#000000;stroke-linecap:round;"/>
    <path clip-path="url(#p450f438343)" d="M 415.799014 462.898451 
L 412.164742 465.504611 
L 412.260377 461.033498 
L 415.799014 462.898451 
z
" style="stroke:#000000;stroke-linecap:round;"/>
   </g>
   <g id="patch_87">
    <path clip-path="url(#p450f438343)" d="M 504.534557 327.940308 
Q 520.504098 393.301566 536.208278 457.576737 
" style="fill:none;stroke:#000000;stroke-linecap:round;"/>
    <path clip-path="url(#p450f438343)" d="M 537.201745 453.216345 
L 536.208278 457.576737 
L 533.316044 454.165728 
L 537.201745 453.216345 
z
" style="stroke:#000000;stroke-linecap:round;"/>
   </g>
   <g id="patch_88">
    <path clip-path="url(#p450f438343)" d="M 508.270755 313.091117 
Q 581.333906 231.943604 653.648959 151.626964 
" style="fill:none;stroke:#000000;stroke-linecap:round;"/>
    <path clip-path="url(#p450f438343)" d="M 649.486174 153.26135 
L 653.648959 151.626964 
L 652.458797 155.937824 
L 649.486174 153.26135 
z
" style="stroke:#000000;stroke-linecap:round;"/>
   </g>
   <g id="patch_89">
    <path clip-path="url(#p450f438343)" d="M 493.847589 318.781918 
Q 334.884355 305.105562 177.03504 291.525042 
" style="fill:none;stroke:#000000;stroke-linecap:round;"/>
    <path clip-path="url(#p450f438343)" d="M 180.848881 293.860553 
L 177.03504 291.525042 
L 181.191754 289.875275 
L 180.848881 293.860553 
z
" style="stroke:#000000;stroke-linecap:round;"/>
   </g>
   <g id="patch_90">
    <path clip-path="url(#p450f438343)" d="M 511.084664 318.556584 
Q 610.985204 307.321659 709.774715 296.211681 
" style="fill:none;stroke:#000000;stroke-linecap:round;"/>
    <path clip-path="url(#p450f438343)" d="M 705.57626 294.671236 
L 709.774715 296.211681 
L 706.023286 298.646179 
L 705.57626 294.671236 
z
" style="stroke:#000000;stroke-linecap:round;"/>
   </g>
   <g id="patch_91">
    <path clip-path="url(#p450f438343)" d="M 497.948726 326.907149 
Q 455.042039 396.839587 412.720039 465.81906 
" style="fill:none;stroke:#000000;stroke-linecap:round;"/>
    <path clip-path="url(#p450f438343)" d="M 416.516593 463.455549 
L 412.720039 465.81906 
L 413.107163 461.363711 
L 416.516593 463.455549 
z
" style="stroke:#000000;stroke-linecap:round;"/>
   </g>
   <g id="patch_92">
    <path clip-path="url(#p450f438343)" d="M 432.480182 216.693882 
Q 458.299011 278.300112 483.685694 338.875202 
" style="fill:none;stroke:#000000;stroke-linecap:round;"/>
    <path clip-path="url(#p450f438343)" d="M 483.984164 334.413037 
L 483.685694 338.875202 
L 480.295044 335.959127 
L 483.984164 334.413037 
z
" style="stroke:#000000;stroke-linecap:round;"/>
   </g>
   <g id="patch_93">
    <path clip-path="url(#p450f438343)" d="M 403.051742 228.234439 
Q 442.763658 284.5276 481.831087 339.907177 
" style="fill:none;stroke:#000000;stroke-linecap:round;"/>
    <path clip-path="url(#p450f438343)" d="M 481.159571 335.485744 
L 481.831087 339.907177 
L 477.891032 337.79153 
L 481.159571 335.485744 
z
" style="stroke:#000000;stroke-linecap:round;"/>
   </g>
   <g id="patch_94">
    <path clip-path="url(#p450f438343)" d="M 608.819529 413.653079 
Q 551.947783 382.835606 496.059029 352.550793 
" style="fill:none;stroke:#000000;stroke-linecap:round;"/>
    <path clip-path="url(#p450f438343)" d="M 498.623036 356.214926 
L 496.059029 352.550793 
L 500.52874 352.698067 
L 498.623036 356.214926 
z
" style="stroke:#000000;stroke-linecap:round;"/>
   </g>
   <g id="patch_95">
    <path clip-path="url(#p450f438343)" d="M 294.522104 356.999846 
Q 233.387385 296.306503 173.046095 236.40086 
" style="fill:none;stroke:#000000;stroke-linecap:round;"/>
    <path clip-path="url(#p450f438343)" d="M 174.47567 240.638349 
L 173.046095 236.40086 
L 177.293831 237.799694 
L 174.47567 240.638349 
z
" style="stroke:#000000;stroke-linecap:round;"/>
   </g>
   <g id="patch_96">
    <path clip-path="url(#p450f438343)" d="M 308.643307 366.475852 
Q 377.021022 395.410124 444.369093 423.908699 
" style="fill:none;stroke:#000000;stroke-linecap:round;"/>
    <path clip-path="url(#p450f438343)" d="M 441.464725 420.508016 
L 444.369093 423.908699 
L 439.905925 424.191783 
L 441.464725 420.508016 
z
" style="stroke:#000000;stroke-linecap:round;"/>
   </g>
   <g id="patch_97">
    <path clip-path="url(#p450f438343)" d="M 332.090059 296.532236 
Q 253.113548 264.642887 175.173748 233.172144 
" style="fill:none;stroke:#000000;stroke-linecap:round;"/>
    <path clip-path="url(#p450f438343)" d="M 178.133972 236.524319 
L 175.173748 233.172144 
L 179.631622 232.81527 
L 178.133972 236.524319 
z
" style="stroke:#000000;stroke-linecap:round;"/>
   </g>
   <g id="patch_98">
    <path clip-path="url(#p450f438343)" d="M 345.861097 306.258917 
Q 396.74684 363.746941 446.89155 420.397785 
" style="fill:none;stroke:#000000;stroke-linecap:round;"/>
    <path clip-path="url(#p450f438343)" d="M 445.737943 416.076999 
L 446.89155 420.397785 
L 442.742757 418.728199 
L 445.737943 416.076999 
z
" style="stroke:#000000;stroke-linecap:round;"/>
   </g>
   <g id="PathCollection_1">
    <defs>
     <path d="M 0 8.660254 
C 2.296726 8.660254 4.499694 7.747755 6.123724 6.123724 
C 7.747755 4.499694 8.660254 2.296726 8.660254 -0 
C 8.660254 -2.296726 7.747755 -4.499694 6.123724 -6.123724 
C 4.499694 -7.747755 2.296726 -8.660254 0 -8.660254 
C -2.296726 -8.660254 -4.499694 -7.747755 -6.123724 -6.123724 
C -7.747755 -4.499694 -8.660254 -2.296726 -8.660254 0 
C -8.660254 2.296726 -7.747755 4.499694 -6.123724 6.123724 
C -4.499694 7.747755 -2.296726 8.660254 0 8.660254 
z
" id="C0_0_81a3639e84"/>
    </defs>
    <g clip-path="url(#p450f438343)">
     <use style="fill:#ff0000;stroke:#ff0000;" x="354.665724" xlink:href="#C0_0_81a3639e84" y="470.044381"/>
    </g>
    <g clip-path="url(#p450f438343)">
     <use style="fill:#ff0000;stroke:#ff0000;" x="459.834683" xlink:href="#C0_0_81a3639e84" y="470.655505"/>
    </g>
    <g clip-path="url(#p450f438343)">
     <use style="fill:#ff0000;stroke:#ff0000;" x="186.700581" xlink:href="#C0_0_81a3639e84" y="336.167766"/>
    </g>
    <g clip-path="url(#p450f438343)">
     <use style="fill:#ff0000;stroke:#ff0000;" x="404.950787" xlink:href="#C0_0_81a3639e84" y="323.412187"/>
    </g>
    <g clip-path="url(#p450f438343)">
     <use style="fill:#ff0000;stroke:#ff0000;" x="203.773571" xlink:href="#C0_0_81a3639e84" y="164.455621"/>
    </g>
    <g clip-path="url(#p450f438343)">
     <use style="fill:#ff0000;stroke:#ff0000;" x="372.404951" xlink:href="#C0_0_81a3639e84" y="182.487036"/>
    </g>
    <g clip-path="url(#p450f438343)">
     <use style="fill:#ff0000;stroke:#ff0000;" x="552.499514" xlink:href="#C0_0_81a3639e84" y="153.655252"/>
    </g>
    <g clip-path="url(#p450f438343)">
     <use style="fill:#ff0000;stroke:#ff0000;" x="307.231758" xlink:href="#C0_0_81a3639e84" y="107.607273"/>
    </g>
    <g clip-path="url(#p450f438343)">
     <use style="fill:#ff0000;stroke:#ff0000;" x="293.861625" xlink:href="#C0_0_81a3639e84" y="216.097464"/>
    </g>
    <g clip-path="url(#p450f438343)">
     <use style="fill:#ff0000;stroke:#ff0000;" x="209.533666" xlink:href="#C0_0_81a3639e84" y="249.587347"/>
    </g>
    <g clip-path="url(#p450f438343)">
     <use style="fill:#ff0000;stroke:#ff0000;" x="290.87546" xlink:href="#C0_0_81a3639e84" y="182.652919"/>
    </g>
    <g clip-path="url(#p450f438343)">
     <use style="fill:#ff0000;stroke:#ff0000;" x="400.565231" xlink:href="#C0_0_81a3639e84" y="361.184031"/>
    </g>
    <g clip-path="url(#p450f438343)">
     <use style="fill:#ff0000;stroke:#ff0000;" x="348.993935" xlink:href="#C0_0_81a3639e84" y="247.959735"/>
    </g>
    <g clip-path="url(#p450f438343)">
     <use style="fill:#ff0000;stroke:#ff0000;" x="411.612598" xlink:href="#C0_0_81a3639e84" y="347.343872"/>
    </g>
    <g clip-path="url(#p450f438343)">
     <use style="fill:#ff0000;stroke:#ff0000;" x="480.223178" xlink:href="#C0_0_81a3639e84" y="324.60745"/>
    </g>
    <g clip-path="url(#p450f438343)">
     <use style="fill:#ff0000;stroke:#ff0000;" x="660.239415" xlink:href="#C0_0_81a3639e84" y="373.844609"/>
    </g>
    <g clip-path="url(#p450f438343)">
     <use style="fill:#ff0000;stroke:#ff0000;" x="652.14994" xlink:href="#C0_0_81a3639e84" y="397.948098"/>
    </g>
    <g clip-path="url(#p450f438343)">
     <use style="fill:#ff0000;stroke:#ff0000;" x="538.528769" xlink:href="#C0_0_81a3639e84" y="467.074208"/>
    </g>
    <g clip-path="url(#p450f438343)">
     <use style="fill:#ff0000;stroke:#ff0000;" x="453.370948" xlink:href="#C0_0_81a3639e84" y="427.717866"/>
    </g>
    <g clip-path="url(#p450f438343)">
     <use style="fill:#ff0000;stroke:#ff0000;" x="568.756453" xlink:href="#C0_0_81a3639e84" y="297.825919"/>
    </g>
    <g clip-path="url(#p450f438343)">
     <use style="fill:#ff0000;stroke:#ff0000;" x="438.024639" xlink:href="#C0_0_81a3639e84" y="373.450262"/>
    </g>
    <g clip-path="url(#p450f438343)">
     <use style="fill:#ff0000;stroke:#ff0000;" x="344.42777" xlink:href="#C0_0_81a3639e84" y="370.725609"/>
    </g>
    <g clip-path="url(#p450f438343)">
     <use style="fill:#ff0000;stroke:#ff0000;" x="487.465486" xlink:href="#C0_0_81a3639e84" y="347.894152"/>
    </g>
    <g clip-path="url(#p450f438343)">
     <use style="fill:#ff0000;stroke:#ff0000;" x="372.629286" xlink:href="#C0_0_81a3639e84" y="293.68111"/>
    </g>
    <g clip-path="url(#p450f438343)">
     <use style="fill:#ff0000;stroke:#ff0000;" x="166.105785" xlink:href="#C0_0_81a3639e84" y="229.510658"/>
    </g>
    <g clip-path="url(#p450f438343)">
     <use style="fill:#ff0000;stroke:#ff0000;" x="595.47806" xlink:href="#C0_0_81a3639e84" y="321.75577"/>
    </g>
    <g clip-path="url(#p450f438343)">
     <use style="fill:#ff0000;stroke:#ff0000;" x="429.667229" xlink:href="#C0_0_81a3639e84" y="180.952803"/>
    </g>
    <g clip-path="url(#p450f438343)">
     <use style="fill:#ff0000;stroke:#ff0000;" x="503.968367" xlink:href="#C0_0_81a3639e84" y="233.03077"/>
    </g>
    <g clip-path="url(#p450f438343)">
     <use style="fill:#ff0000;stroke:#ff0000;" x="200.825226" xlink:href="#C0_0_81a3639e84" y="378.94323"/>
    </g>
    <g clip-path="url(#p450f438343)">
     <use style="fill:#ff0000;stroke:#ff0000;" x="394.417953" xlink:href="#C0_0_81a3639e84" y="311.596425"/>
    </g>
    <g clip-path="url(#p450f438343)">
     <use style="fill:#ff0000;stroke:#ff0000;" x="431.515116" xlink:href="#C0_0_81a3639e84" y="292.956469"/>
    </g>
    <g clip-path="url(#p450f438343)">
     <use style="fill:#ff0000;stroke:#ff0000;" x="288.744859" xlink:href="#C0_0_81a3639e84" y="443.440055"/>
    </g>
    <g clip-path="url(#p450f438343)">
     <use style="fill:#ff0000;stroke:#ff0000;" x="370.817281" xlink:href="#C0_0_81a3639e84" y="283.742183"/>
    </g>
    <g clip-path="url(#p450f438343)">
     <use style="fill:#ff0000;stroke:#ff0000;" x="350.690842" xlink:href="#C0_0_81a3639e84" y="370.03475"/>
    </g>
    <g clip-path="url(#p450f438343)">
     <use style="fill:#ff0000;stroke:#ff0000;" x="381.650707" xlink:href="#C0_0_81a3639e84" y="390.228159"/>
    </g>
    <g clip-path="url(#p450f438343)">
     <use style="fill:#ff0000;stroke:#ff0000;" x="388.323382" xlink:href="#C0_0_81a3639e84" y="315.925691"/>
    </g>
    <g clip-path="url(#p450f438343)">
     <use style="fill:#ff0000;stroke:#ff0000;" x="444.509078" xlink:href="#C0_0_81a3639e84" y="411.751691"/>
    </g>
    <g clip-path="url(#p450f438343)">
     <use style="fill:#ff0000;stroke:#ff0000;" x="449.017376" xlink:href="#C0_0_81a3639e84" y="369.316639"/>
    </g>
    <g clip-path="url(#p450f438343)">
     <use style="fill:#008000;stroke:#008000;" x="358.491163" xlink:href="#C0_0_81a3639e84" y="389.175564"/>
    </g>
    <g clip-path="url(#p450f438343)">
     <use style="fill:#ff0000;stroke:#ff0000;" x="270.406115" xlink:href="#C0_0_81a3639e84" y="441.07267"/>
    </g>
    <g clip-path="url(#p450f438343)">
     <use style="fill:#ff0000;stroke:#ff0000;" x="404.967573" xlink:href="#C0_0_81a3639e84" y="381.762744"/>
    </g>
    <g clip-path="url(#p450f438343)">
     <use style="fill:#ff0000;stroke:#ff0000;" x="305.858654" xlink:href="#C0_0_81a3639e84" y="441.273455"/>
    </g>
    <g clip-path="url(#p450f438343)">
     <use style="fill:#ff0000;stroke:#ff0000;" x="299.074444" xlink:href="#C0_0_81a3639e84" y="360.9573"/>
    </g>
    <g clip-path="url(#p450f438343)">
     <use style="fill:#ff0000;stroke:#ff0000;" x="586.822802" xlink:href="#C0_0_81a3639e84" y="388.064924"/>
    </g>
    <g clip-path="url(#p450f438343)">
     <use style="fill:#ff0000;stroke:#ff0000;" x="660.189998" xlink:href="#C0_0_81a3639e84" y="144.362167"/>
    </g>
    <g clip-path="url(#p450f438343)">
     <use style="fill:#ff0000;stroke:#ff0000;" x="167.293364" xlink:href="#C0_0_81a3639e84" y="290.686919"/>
    </g>
    <g clip-path="url(#p450f438343)">
     <use style="fill:#ff0000;stroke:#ff0000;" x="719.494215" xlink:href="#C0_0_81a3639e84" y="295.118616"/>
    </g>
    <g clip-path="url(#p450f438343)">
     <use style="fill:#ff0000;stroke:#ff0000;" x="407.606961" xlink:href="#C0_0_81a3639e84" y="474.152727"/>
    </g>
    <g clip-path="url(#p450f438343)">
     <use style="fill:#ff0000;stroke:#ff0000;" x="493.417061" xlink:href="#C0_0_81a3639e84" y="311.333217"/>
    </g>
    <g clip-path="url(#p450f438343)">
     <use style="fill:#ff0000;stroke:#ff0000;" x="502.478336" xlink:href="#C0_0_81a3639e84" y="319.524461"/>
    </g>
    <g clip-path="url(#p450f438343)">
     <use style="fill:#ff0000;stroke:#ff0000;" x="429.13161" xlink:href="#C0_0_81a3639e84" y="208.703863"/>
    </g>
    <g clip-path="url(#p450f438343)">
     <use style="fill:#ff0000;stroke:#ff0000;" x="398.061511" xlink:href="#C0_0_81a3639e84" y="221.160596"/>
    </g>
    <g clip-path="url(#p450f438343)">
     <use style="fill:#ff0000;stroke:#ff0000;" x="616.435397" xlink:href="#C0_0_81a3639e84" y="417.779941"/>
    </g>
    <g clip-path="url(#p450f438343)">
     <use style="fill:#ff0000;stroke:#ff0000;" x="300.667477" xlink:href="#C0_0_81a3639e84" y="363.100851"/>
    </g>
    <g clip-path="url(#p450f438343)">
     <use style="fill:#ff0000;stroke:#ff0000;" x="340.122284" xlink:href="#C0_0_81a3639e84" y="299.77551"/>
    </g>
    <g clip-path="url(#p450f438343)">
     <use style="fill:#ff0000;stroke:#ff0000;" x="588.243327" xlink:href="#C0_0_81a3639e84" y="444.903367"/>
    </g>
    <g clip-path="url(#p450f438343)">
     <use style="fill:#ff0000;stroke:#ff0000;" x="691.858551" xlink:href="#C0_0_81a3639e84" y="378.160903"/>
    </g>
   </g>
   <g id="text_1">
    <g clip-path="url(#p450f438343)">
     <!-- CDK4 -->
     <g transform="translate(338.103849 473.355631)scale(0.12 -0.12)">
      <defs>
       <path d="M 64.40625 67.28125 
L 64.40625 56.890625 
Q 59.421875 61.53125 53.78125 63.8125 
Q 48.140625 66.109375 41.796875 66.109375 
Q 29.296875 66.109375 22.65625 58.46875 
Q 16.015625 50.828125 16.015625 36.375 
Q 16.015625 21.96875 22.65625 14.328125 
Q 29.296875 6.6875 41.796875 6.6875 
Q 48.140625 6.6875 53.78125 8.984375 
Q 59.421875 11.28125 64.40625 15.921875 
L 64.40625 5.609375 
Q 59.234375 2.09375 53.4375 0.328125 
Q 47.65625 -1.421875 41.21875 -1.421875 
Q 24.65625 -1.421875 15.125 8.703125 
Q 5.609375 18.84375 5.609375 36.375 
Q 5.609375 53.953125 15.125 64.078125 
Q 24.65625 74.21875 41.21875 74.21875 
Q 47.75 74.21875 53.53125 72.484375 
Q 59.328125 70.75 64.40625 67.28125 
z
" id="DejaVuSans-67"/>
       <path d="M 19.671875 64.796875 
L 19.671875 8.109375 
L 31.59375 8.109375 
Q 46.6875 8.109375 53.6875 14.9375 
Q 60.6875 21.78125 60.6875 36.53125 
Q 60.6875 51.171875 53.6875 57.984375 
Q 46.6875 64.796875 31.59375 64.796875 
z
M 9.8125 72.90625 
L 30.078125 72.90625 
Q 51.265625 72.90625 61.171875 64.09375 
Q 71.09375 55.28125 71.09375 36.53125 
Q 71.09375 17.671875 61.125 8.828125 
Q 51.171875 0 30.078125 0 
L 9.8125 0 
z
" id="DejaVuSans-68"/>
       <path d="M 9.8125 72.90625 
L 19.671875 72.90625 
L 19.671875 42.09375 
L 52.390625 72.90625 
L 65.09375 72.90625 
L 28.90625 38.921875 
L 67.671875 0 
L 54.6875 0 
L 19.671875 35.109375 
L 19.671875 0 
L 9.8125 0 
z
" id="DejaVuSans-75"/>
       <path d="M 37.796875 64.3125 
L 12.890625 25.390625 
L 37.796875 25.390625 
z
M 35.203125 72.90625 
L 47.609375 72.90625 
L 47.609375 25.390625 
L 58.015625 25.390625 
L 58.015625 17.1875 
L 47.609375 17.1875 
L 47.609375 0 
L 37.796875 0 
L 37.796875 17.1875 
L 4.890625 17.1875 
L 4.890625 26.703125 
z
" id="DejaVuSans-52"/>
      </defs>
      <use xlink:href="#DejaVuSans-67"/>
      <use x="69.824219" xlink:href="#DejaVuSans-68"/>
      <use x="146.826172" xlink:href="#DejaVuSans-75"/>
      <use x="212.402344" xlink:href="#DejaVuSans-52"/>
     </g>
    </g>
   </g>
   <g id="text_2">
    <g clip-path="url(#p450f438343)">
     <!-- TNF -->
     <g transform="translate(448.230308 473.966755)scale(0.12 -0.12)">
      <defs>
       <path d="M -0.296875 72.90625 
L 61.375 72.90625 
L 61.375 64.59375 
L 35.5 64.59375 
L 35.5 0 
L 25.59375 0 
L 25.59375 64.59375 
L -0.296875 64.59375 
z
" id="DejaVuSans-84"/>
       <path d="M 9.8125 72.90625 
L 23.09375 72.90625 
L 55.421875 11.921875 
L 55.421875 72.90625 
L 64.984375 72.90625 
L 64.984375 0 
L 51.703125 0 
L 19.390625 60.984375 
L 19.390625 0 
L 9.8125 0 
z
" id="DejaVuSans-78"/>
       <path d="M 9.8125 72.90625 
L 51.703125 72.90625 
L 51.703125 64.59375 
L 19.671875 64.59375 
L 19.671875 43.109375 
L 48.578125 43.109375 
L 48.578125 34.8125 
L 19.671875 34.8125 
L 19.671875 0 
L 9.8125 0 
z
" id="DejaVuSans-70"/>
      </defs>
      <use xlink:href="#DejaVuSans-84"/>
      <use x="61.083984" xlink:href="#DejaVuSans-78"/>
      <use x="135.888672" xlink:href="#DejaVuSans-70"/>
     </g>
    </g>
   </g>
   <g id="text_3">
    <g clip-path="url(#p450f438343)">
     <!-- IFNG -->
     <g transform="translate(172.341831 339.479016)scale(0.12 -0.12)">
      <defs>
       <path d="M 9.8125 72.90625 
L 19.671875 72.90625 
L 19.671875 0 
L 9.8125 0 
z
" id="DejaVuSans-73"/>
       <path d="M 59.515625 10.40625 
L 59.515625 29.984375 
L 43.40625 29.984375 
L 43.40625 38.09375 
L 69.28125 38.09375 
L 69.28125 6.78125 
Q 63.578125 2.734375 56.6875 0.65625 
Q 49.8125 -1.421875 42 -1.421875 
Q 24.90625 -1.421875 15.25 8.5625 
Q 5.609375 18.5625 5.609375 36.375 
Q 5.609375 54.25 15.25 64.234375 
Q 24.90625 74.21875 42 74.21875 
Q 49.125 74.21875 55.546875 72.453125 
Q 61.96875 70.703125 67.390625 67.28125 
L 67.390625 56.78125 
Q 61.921875 61.421875 55.765625 63.765625 
Q 49.609375 66.109375 42.828125 66.109375 
Q 29.4375 66.109375 22.71875 58.640625 
Q 16.015625 51.171875 16.015625 36.375 
Q 16.015625 21.625 22.71875 14.15625 
Q 29.4375 6.6875 42.828125 6.6875 
Q 48.046875 6.6875 52.140625 7.59375 
Q 56.25 8.5 59.515625 10.40625 
z
" id="DejaVuSans-71"/>
      </defs>
      <use xlink:href="#DejaVuSans-73"/>
      <use x="29.492188" xlink:href="#DejaVuSans-70"/>
      <use x="87.011719" xlink:href="#DejaVuSans-78"/>
      <use x="161.816406" xlink:href="#DejaVuSans-71"/>
     </g>
    </g>
   </g>
   <g id="text_4">
    <g clip-path="url(#p450f438343)">
     <!-- IKBKB -->
     <g transform="translate(387.078287 326.723437)scale(0.12 -0.12)">
      <defs>
       <path d="M 19.671875 34.8125 
L 19.671875 8.109375 
L 35.5 8.109375 
Q 43.453125 8.109375 47.28125 11.40625 
Q 51.125 14.703125 51.125 21.484375 
Q 51.125 28.328125 47.28125 31.5625 
Q 43.453125 34.8125 35.5 34.8125 
z
M 19.671875 64.796875 
L 19.671875 42.828125 
L 34.28125 42.828125 
Q 41.5 42.828125 45.03125 45.53125 
Q 48.578125 48.25 48.578125 53.8125 
Q 48.578125 59.328125 45.03125 62.0625 
Q 41.5 64.796875 34.28125 64.796875 
z
M 9.8125 72.90625 
L 35.015625 72.90625 
Q 46.296875 72.90625 52.390625 68.21875 
Q 58.5 63.53125 58.5 54.890625 
Q 58.5 48.1875 55.375 44.234375 
Q 52.25 40.28125 46.1875 39.3125 
Q 53.46875 37.75 57.5 32.78125 
Q 61.53125 27.828125 61.53125 20.40625 
Q 61.53125 10.640625 54.890625 5.3125 
Q 48.25 0 35.984375 0 
L 9.8125 0 
z
" id="DejaVuSans-66"/>
      </defs>
      <use xlink:href="#DejaVuSans-73"/>
      <use x="29.492188" xlink:href="#DejaVuSans-75"/>
      <use x="95.068359" xlink:href="#DejaVuSans-66"/>
      <use x="163.671875" xlink:href="#DejaVuSans-75"/>
      <use x="229.248047" xlink:href="#DejaVuSans-66"/>
     </g>
    </g>
   </g>
   <g id="text_5">
    <g clip-path="url(#p450f438343)">
     <!-- IKBKG -->
     <g transform="translate(185.368571 167.766871)scale(0.12 -0.12)">
      <use xlink:href="#DejaVuSans-73"/>
      <use x="29.492188" xlink:href="#DejaVuSans-75"/>
      <use x="95.068359" xlink:href="#DejaVuSans-66"/>
      <use x="163.671875" xlink:href="#DejaVuSans-75"/>
      <use x="229.248047" xlink:href="#DejaVuSans-71"/>
     </g>
    </g>
   </g>
   <g id="text_6">
    <g clip-path="url(#p450f438343)">
     <!-- MAP3K14 -->
     <g transform="translate(344.118701 185.798286)scale(0.12 -0.12)">
      <defs>
       <path d="M 9.8125 72.90625 
L 24.515625 72.90625 
L 43.109375 23.296875 
L 61.8125 72.90625 
L 76.515625 72.90625 
L 76.515625 0 
L 66.890625 0 
L 66.890625 64.015625 
L 48.09375 14.015625 
L 38.1875 14.015625 
L 19.390625 64.015625 
L 19.390625 0 
L 9.8125 0 
z
" id="DejaVuSans-77"/>
       <path d="M 34.1875 63.1875 
L 20.796875 26.90625 
L 47.609375 26.90625 
z
M 28.609375 72.90625 
L 39.796875 72.90625 
L 67.578125 0 
L 57.328125 0 
L 50.6875 18.703125 
L 17.828125 18.703125 
L 11.1875 0 
L 0.78125 0 
z
" id="DejaVuSans-65"/>
       <path d="M 19.671875 64.796875 
L 19.671875 37.40625 
L 32.078125 37.40625 
Q 38.96875 37.40625 42.71875 40.96875 
Q 46.484375 44.53125 46.484375 51.125 
Q 46.484375 57.671875 42.71875 61.234375 
Q 38.96875 64.796875 32.078125 64.796875 
z
M 9.8125 72.90625 
L 32.078125 72.90625 
Q 44.34375 72.90625 50.609375 67.359375 
Q 56.890625 61.8125 56.890625 51.125 
Q 56.890625 40.328125 50.609375 34.8125 
Q 44.34375 29.296875 32.078125 29.296875 
L 19.671875 29.296875 
L 19.671875 0 
L 9.8125 0 
z
" id="DejaVuSans-80"/>
       <path d="M 40.578125 39.3125 
Q 47.65625 37.796875 51.625 33 
Q 55.609375 28.21875 55.609375 21.1875 
Q 55.609375 10.40625 48.1875 4.484375 
Q 40.765625 -1.421875 27.09375 -1.421875 
Q 22.515625 -1.421875 17.65625 -0.515625 
Q 12.796875 0.390625 7.625 2.203125 
L 7.625 11.71875 
Q 11.71875 9.328125 16.59375 8.109375 
Q 21.484375 6.890625 26.8125 6.890625 
Q 36.078125 6.890625 40.9375 10.546875 
Q 45.796875 14.203125 45.796875 21.1875 
Q 45.796875 27.640625 41.28125 31.265625 
Q 36.765625 34.90625 28.71875 34.90625 
L 20.21875 34.90625 
L 20.21875 43.015625 
L 29.109375 43.015625 
Q 36.375 43.015625 40.234375 45.921875 
Q 44.09375 48.828125 44.09375 54.296875 
Q 44.09375 59.90625 40.109375 62.90625 
Q 36.140625 65.921875 28.71875 65.921875 
Q 24.65625 65.921875 20.015625 65.03125 
Q 15.375 64.15625 9.8125 62.3125 
L 9.8125 71.09375 
Q 15.4375 72.65625 20.34375 73.4375 
Q 25.25 74.21875 29.59375 74.21875 
Q 40.828125 74.21875 47.359375 69.109375 
Q 53.90625 64.015625 53.90625 55.328125 
Q 53.90625 49.265625 50.4375 45.09375 
Q 46.96875 40.921875 40.578125 39.3125 
z
" id="DejaVuSans-51"/>
       <path d="M 12.40625 8.296875 
L 28.515625 8.296875 
L 28.515625 63.921875 
L 10.984375 60.40625 
L 10.984375 69.390625 
L 28.421875 72.90625 
L 38.28125 72.90625 
L 38.28125 8.296875 
L 54.390625 8.296875 
L 54.390625 0 
L 12.40625 0 
z
" id="DejaVuSans-49"/>
      </defs>
      <use xlink:href="#DejaVuSans-77"/>
      <use x="86.279297" xlink:href="#DejaVuSans-65"/>
      <use x="154.6875" xlink:href="#DejaVuSans-80"/>
      <use x="214.990234" xlink:href="#DejaVuSans-51"/>
      <use x="278.613281" xlink:href="#DejaVuSans-75"/>
      <use x="344.189453" xlink:href="#DejaVuSans-49"/>
      <use x="407.8125" xlink:href="#DejaVuSans-52"/>
     </g>
    </g>
   </g>
   <g id="text_7">
    <g clip-path="url(#p450f438343)">
     <!-- MAP3K8 -->
     <g transform="translate(528.030764 156.966502)scale(0.12 -0.12)">
      <defs>
       <path d="M 31.78125 34.625 
Q 24.75 34.625 20.71875 30.859375 
Q 16.703125 27.09375 16.703125 20.515625 
Q 16.703125 13.921875 20.71875 10.15625 
Q 24.75 6.390625 31.78125 6.390625 
Q 38.8125 6.390625 42.859375 10.171875 
Q 46.921875 13.96875 46.921875 20.515625 
Q 46.921875 27.09375 42.890625 30.859375 
Q 38.875 34.625 31.78125 34.625 
z
M 21.921875 38.8125 
Q 15.578125 40.375 12.03125 44.71875 
Q 8.5 49.078125 8.5 55.328125 
Q 8.5 64.0625 14.71875 69.140625 
Q 20.953125 74.21875 31.78125 74.21875 
Q 42.671875 74.21875 48.875 69.140625 
Q 55.078125 64.0625 55.078125 55.328125 
Q 55.078125 49.078125 51.53125 44.71875 
Q 48 40.375 41.703125 38.8125 
Q 48.828125 37.15625 52.796875 32.3125 
Q 56.78125 27.484375 56.78125 20.515625 
Q 56.78125 9.90625 50.3125 4.234375 
Q 43.84375 -1.421875 31.78125 -1.421875 
Q 19.734375 -1.421875 13.25 4.234375 
Q 6.78125 9.90625 6.78125 20.515625 
Q 6.78125 27.484375 10.78125 32.3125 
Q 14.796875 37.15625 21.921875 38.8125 
z
M 18.3125 54.390625 
Q 18.3125 48.734375 21.84375 45.5625 
Q 25.390625 42.390625 31.78125 42.390625 
Q 38.140625 42.390625 41.71875 45.5625 
Q 45.3125 48.734375 45.3125 54.390625 
Q 45.3125 60.0625 41.71875 63.234375 
Q 38.140625 66.40625 31.78125 66.40625 
Q 25.390625 66.40625 21.84375 63.234375 
Q 18.3125 60.0625 18.3125 54.390625 
z
" id="DejaVuSans-56"/>
      </defs>
      <use xlink:href="#DejaVuSans-77"/>
      <use x="86.279297" xlink:href="#DejaVuSans-65"/>
      <use x="154.6875" xlink:href="#DejaVuSans-80"/>
      <use x="214.990234" xlink:href="#DejaVuSans-51"/>
      <use x="278.613281" xlink:href="#DejaVuSans-75"/>
      <use x="344.189453" xlink:href="#DejaVuSans-56"/>
     </g>
    </g>
   </g>
   <g id="text_8">
    <g clip-path="url(#p450f438343)">
     <!-- MALT1 -->
     <g transform="translate(287.950195 110.918523)scale(0.12 -0.12)">
      <defs>
       <path d="M 9.8125 72.90625 
L 19.671875 72.90625 
L 19.671875 8.296875 
L 55.171875 8.296875 
L 55.171875 0 
L 9.8125 0 
z
" id="DejaVuSans-76"/>
      </defs>
      <use xlink:href="#DejaVuSans-77"/>
      <use x="86.279297" xlink:href="#DejaVuSans-65"/>
      <use x="154.6875" xlink:href="#DejaVuSans-76"/>
      <use x="196.650391" xlink:href="#DejaVuSans-84"/>
      <use x="257.734375" xlink:href="#DejaVuSans-49"/>
     </g>
    </g>
   </g>
   <g id="text_9">
    <g clip-path="url(#p450f438343)">
     <!-- BCL10 -->
     <g transform="translate(274.68225 219.408714)scale(0.12 -0.12)">
      <defs>
       <path d="M 31.78125 66.40625 
Q 24.171875 66.40625 20.328125 58.90625 
Q 16.5 51.421875 16.5 36.375 
Q 16.5 21.390625 20.328125 13.890625 
Q 24.171875 6.390625 31.78125 6.390625 
Q 39.453125 6.390625 43.28125 13.890625 
Q 47.125 21.390625 47.125 36.375 
Q 47.125 51.421875 43.28125 58.90625 
Q 39.453125 66.40625 31.78125 66.40625 
z
M 31.78125 74.21875 
Q 44.046875 74.21875 50.515625 64.515625 
Q 56.984375 54.828125 56.984375 36.375 
Q 56.984375 17.96875 50.515625 8.265625 
Q 44.046875 -1.421875 31.78125 -1.421875 
Q 19.53125 -1.421875 13.0625 8.265625 
Q 6.59375 17.96875 6.59375 36.375 
Q 6.59375 54.828125 13.0625 64.515625 
Q 19.53125 74.21875 31.78125 74.21875 
z
" id="DejaVuSans-48"/>
      </defs>
      <use xlink:href="#DejaVuSans-66"/>
      <use x="66.853516" xlink:href="#DejaVuSans-67"/>
      <use x="136.677734" xlink:href="#DejaVuSans-76"/>
      <use x="192.390625" xlink:href="#DejaVuSans-49"/>
      <use x="256.013672" xlink:href="#DejaVuSans-48"/>
     </g>
    </g>
   </g>
   <g id="text_10">
    <g clip-path="url(#p450f438343)">
     <!-- CARD11 -->
     <g transform="translate(184.815541 252.898597)scale(0.12 -0.12)">
      <defs>
       <path d="M 44.390625 34.1875 
Q 47.5625 33.109375 50.5625 29.59375 
Q 53.5625 26.078125 56.59375 19.921875 
L 66.609375 0 
L 56 0 
L 46.6875 18.703125 
Q 43.0625 26.03125 39.671875 28.421875 
Q 36.28125 30.8125 30.421875 30.8125 
L 19.671875 30.8125 
L 19.671875 0 
L 9.8125 0 
L 9.8125 72.90625 
L 32.078125 72.90625 
Q 44.578125 72.90625 50.734375 67.671875 
Q 56.890625 62.453125 56.890625 51.90625 
Q 56.890625 45.015625 53.6875 40.46875 
Q 50.484375 35.9375 44.390625 34.1875 
z
M 19.671875 64.796875 
L 19.671875 38.921875 
L 32.078125 38.921875 
Q 39.203125 38.921875 42.84375 42.21875 
Q 46.484375 45.515625 46.484375 51.90625 
Q 46.484375 58.296875 42.84375 61.546875 
Q 39.203125 64.796875 32.078125 64.796875 
z
" id="DejaVuSans-82"/>
      </defs>
      <use xlink:href="#DejaVuSans-67"/>
      <use x="69.824219" xlink:href="#DejaVuSans-65"/>
      <use x="138.232422" xlink:href="#DejaVuSans-82"/>
      <use x="207.714844" xlink:href="#DejaVuSans-68"/>
      <use x="284.716797" xlink:href="#DejaVuSans-49"/>
      <use x="348.339844" xlink:href="#DejaVuSans-49"/>
     </g>
    </g>
   </g>
   <g id="text_11">
    <g clip-path="url(#p450f438343)">
     <!-- PRKCQ -->
     <g transform="translate(270.571085 185.964169)scale(0.12 -0.12)">
      <defs>
       <path d="M 39.40625 66.21875 
Q 28.65625 66.21875 22.328125 58.203125 
Q 16.015625 50.203125 16.015625 36.375 
Q 16.015625 22.609375 22.328125 14.59375 
Q 28.65625 6.59375 39.40625 6.59375 
Q 50.140625 6.59375 56.421875 14.59375 
Q 62.703125 22.609375 62.703125 36.375 
Q 62.703125 50.203125 56.421875 58.203125 
Q 50.140625 66.21875 39.40625 66.21875 
z
M 53.21875 1.3125 
L 66.21875 -12.890625 
L 54.296875 -12.890625 
L 43.5 -1.21875 
Q 41.890625 -1.3125 41.03125 -1.359375 
Q 40.1875 -1.421875 39.40625 -1.421875 
Q 24.03125 -1.421875 14.8125 8.859375 
Q 5.609375 19.140625 5.609375 36.375 
Q 5.609375 53.65625 14.8125 63.9375 
Q 24.03125 74.21875 39.40625 74.21875 
Q 54.734375 74.21875 63.90625 63.9375 
Q 73.09375 53.65625 73.09375 36.375 
Q 73.09375 23.6875 67.984375 14.640625 
Q 62.890625 5.609375 53.21875 1.3125 
z
" id="DejaVuSans-81"/>
      </defs>
      <use xlink:href="#DejaVuSans-80"/>
      <use x="60.302734" xlink:href="#DejaVuSans-82"/>
      <use x="129.785156" xlink:href="#DejaVuSans-75"/>
      <use x="189.861328" xlink:href="#DejaVuSans-67"/>
      <use x="259.685547" xlink:href="#DejaVuSans-81"/>
     </g>
    </g>
   </g>
   <g id="text_12">
    <g clip-path="url(#p450f438343)">
     <!-- GRB2 -->
     <g transform="translate(383.813044 364.495281)scale(0.12 -0.12)">
      <defs>
       <path d="M 19.1875 8.296875 
L 53.609375 8.296875 
L 53.609375 0 
L 7.328125 0 
L 7.328125 8.296875 
Q 12.9375 14.109375 22.625 23.890625 
Q 32.328125 33.6875 34.8125 36.53125 
Q 39.546875 41.84375 41.421875 45.53125 
Q 43.3125 49.21875 43.3125 52.78125 
Q 43.3125 58.59375 39.234375 62.25 
Q 35.15625 65.921875 28.609375 65.921875 
Q 23.96875 65.921875 18.8125 64.3125 
Q 13.671875 62.703125 7.8125 59.421875 
L 7.8125 69.390625 
Q 13.765625 71.78125 18.9375 73 
Q 24.125 74.21875 28.421875 74.21875 
Q 39.75 74.21875 46.484375 68.546875 
Q 53.21875 62.890625 53.21875 53.421875 
Q 53.21875 48.921875 51.53125 44.890625 
Q 49.859375 40.875 45.40625 35.40625 
Q 44.1875 33.984375 37.640625 27.21875 
Q 31.109375 20.453125 19.1875 8.296875 
z
" id="DejaVuSans-50"/>
      </defs>
      <use xlink:href="#DejaVuSans-71"/>
      <use x="77.490234" xlink:href="#DejaVuSans-82"/>
      <use x="146.972656" xlink:href="#DejaVuSans-66"/>
      <use x="215.576172" xlink:href="#DejaVuSans-50"/>
     </g>
    </g>
   </g>
   <g id="text_13">
    <g clip-path="url(#p450f438343)">
     <!-- CD28 -->
     <g transform="translate(332.549248 251.270985)scale(0.12 -0.12)">
      <use xlink:href="#DejaVuSans-67"/>
      <use x="69.824219" xlink:href="#DejaVuSans-68"/>
      <use x="146.826172" xlink:href="#DejaVuSans-50"/>
      <use x="210.449219" xlink:href="#DejaVuSans-56"/>
     </g>
    </g>
   </g>
   <g id="text_14">
    <g clip-path="url(#p450f438343)">
     <!-- RASGRP1 -->
     <g transform="translate(383.516661 350.655122)scale(0.12 -0.12)">
      <defs>
       <path d="M 53.515625 70.515625 
L 53.515625 60.890625 
Q 47.90625 63.578125 42.921875 64.890625 
Q 37.9375 66.21875 33.296875 66.21875 
Q 25.25 66.21875 20.875 63.09375 
Q 16.5 59.96875 16.5 54.203125 
Q 16.5 49.359375 19.40625 46.890625 
Q 22.3125 44.4375 30.421875 42.921875 
L 36.375 41.703125 
Q 47.40625 39.59375 52.65625 34.296875 
Q 57.90625 29 57.90625 20.125 
Q 57.90625 9.515625 50.796875 4.046875 
Q 43.703125 -1.421875 29.984375 -1.421875 
Q 24.8125 -1.421875 18.96875 -0.25 
Q 13.140625 0.921875 6.890625 3.21875 
L 6.890625 13.375 
Q 12.890625 10.015625 18.65625 8.296875 
Q 24.421875 6.59375 29.984375 6.59375 
Q 38.421875 6.59375 43.015625 9.90625 
Q 47.609375 13.234375 47.609375 19.390625 
Q 47.609375 24.75 44.3125 27.78125 
Q 41.015625 30.8125 33.5 32.328125 
L 27.484375 33.5 
Q 16.453125 35.6875 11.515625 40.375 
Q 6.59375 45.0625 6.59375 53.421875 
Q 6.59375 63.09375 13.40625 68.65625 
Q 20.21875 74.21875 32.171875 74.21875 
Q 37.3125 74.21875 42.625 73.28125 
Q 47.953125 72.359375 53.515625 70.515625 
z
" id="DejaVuSans-83"/>
      </defs>
      <use xlink:href="#DejaVuSans-82"/>
      <use x="65.482422" xlink:href="#DejaVuSans-65"/>
      <use x="133.890625" xlink:href="#DejaVuSans-83"/>
      <use x="197.367188" xlink:href="#DejaVuSans-71"/>
      <use x="274.857422" xlink:href="#DejaVuSans-82"/>
      <use x="344.339844" xlink:href="#DejaVuSans-80"/>
      <use x="404.642578" xlink:href="#DejaVuSans-49"/>
     </g>
    </g>
   </g>
   <g id="text_15">
    <g clip-path="url(#p450f438343)">
     <!-- PLCG1 -->
     <g transform="translate(460.60599 327.9187)scale(0.12 -0.12)">
      <use xlink:href="#DejaVuSans-80"/>
      <use x="60.302734" xlink:href="#DejaVuSans-76"/>
      <use x="116.015625" xlink:href="#DejaVuSans-67"/>
      <use x="185.839844" xlink:href="#DejaVuSans-71"/>
      <use x="263.330078" xlink:href="#DejaVuSans-49"/>
     </g>
    </g>
   </g>
   <g id="text_16">
    <g clip-path="url(#p450f438343)">
     <!-- LAT -->
     <g transform="translate(649.457227 377.155859)scale(0.12 -0.12)">
      <use xlink:href="#DejaVuSans-76"/>
      <use x="57.962891" xlink:href="#DejaVuSans-65"/>
      <use x="118.621094" xlink:href="#DejaVuSans-84"/>
     </g>
    </g>
   </g>
   <g id="text_17">
    <g clip-path="url(#p450f438343)">
     <!-- GRAP2 -->
     <g transform="translate(632.032128 401.259348)scale(0.12 -0.12)">
      <use xlink:href="#DejaVuSans-71"/>
      <use x="77.490234" xlink:href="#DejaVuSans-82"/>
      <use x="142.972656" xlink:href="#DejaVuSans-65"/>
      <use x="211.380859" xlink:href="#DejaVuSans-80"/>
      <use x="271.683594" xlink:href="#DejaVuSans-50"/>
     </g>
    </g>
   </g>
   <g id="text_18">
    <g clip-path="url(#p450f438343)">
     <!-- LCP2 -->
     <g transform="translate(523.560644 470.385458)scale(0.12 -0.12)">
      <use xlink:href="#DejaVuSans-76"/>
      <use x="55.712891" xlink:href="#DejaVuSans-67"/>
      <use x="125.537109" xlink:href="#DejaVuSans-80"/>
      <use x="185.839844" xlink:href="#DejaVuSans-50"/>
     </g>
    </g>
   </g>
   <g id="text_19">
    <g clip-path="url(#p450f438343)">
     <!-- ZAP70 -->
     <g transform="translate(433.90376 431.029116)scale(0.12 -0.12)">
      <defs>
       <path d="M 5.609375 72.90625 
L 62.890625 72.90625 
L 62.890625 65.375 
L 16.796875 8.296875 
L 64.015625 8.296875 
L 64.015625 0 
L 4.5 0 
L 4.5 7.515625 
L 50.59375 64.59375 
L 5.609375 64.59375 
z
" id="DejaVuSans-90"/>
       <path d="M 8.203125 72.90625 
L 55.078125 72.90625 
L 55.078125 68.703125 
L 28.609375 0 
L 18.3125 0 
L 43.21875 64.59375 
L 8.203125 64.59375 
z
" id="DejaVuSans-55"/>
      </defs>
      <use xlink:href="#DejaVuSans-90"/>
      <use x="68.505859" xlink:href="#DejaVuSans-65"/>
      <use x="136.914062" xlink:href="#DejaVuSans-80"/>
      <use x="197.216797" xlink:href="#DejaVuSans-55"/>
      <use x="260.839844" xlink:href="#DejaVuSans-48"/>
     </g>
    </g>
   </g>
   <g id="text_20">
    <g clip-path="url(#p450f438343)">
     <!-- CD3E -->
     <g transform="translate(552.338016 301.137169)scale(0.12 -0.12)">
      <defs>
       <path d="M 9.8125 72.90625 
L 55.90625 72.90625 
L 55.90625 64.59375 
L 19.671875 64.59375 
L 19.671875 43.015625 
L 54.390625 43.015625 
L 54.390625 34.71875 
L 19.671875 34.71875 
L 19.671875 8.296875 
L 56.78125 8.296875 
L 56.78125 0 
L 9.8125 0 
z
" id="DejaVuSans-69"/>
      </defs>
      <use xlink:href="#DejaVuSans-67"/>
      <use x="69.824219" xlink:href="#DejaVuSans-68"/>
      <use x="146.826172" xlink:href="#DejaVuSans-51"/>
      <use x="210.449219" xlink:href="#DejaVuSans-69"/>
     </g>
    </g>
   </g>
   <g id="text_21">
    <g clip-path="url(#p450f438343)">
     <!-- FYN -->
     <g transform="translate(426.420264 376.761512)scale(0.12 -0.12)">
      <defs>
       <path d="M -0.203125 72.90625 
L 10.40625 72.90625 
L 30.609375 42.921875 
L 50.6875 72.90625 
L 61.28125 72.90625 
L 35.5 34.71875 
L 35.5 0 
L 25.59375 0 
L 25.59375 34.71875 
z
" id="DejaVuSans-89"/>
      </defs>
      <use xlink:href="#DejaVuSans-70"/>
      <use x="57.519531" xlink:href="#DejaVuSans-89"/>
      <use x="118.603516" xlink:href="#DejaVuSans-78"/>
     </g>
    </g>
   </g>
   <g id="text_22">
    <g clip-path="url(#p450f438343)">
     <!-- CBLB -->
     <g transform="translate(328.661833 374.036859)scale(0.12 -0.12)">
      <use xlink:href="#DejaVuSans-67"/>
      <use x="69.824219" xlink:href="#DejaVuSans-66"/>
      <use x="138.427734" xlink:href="#DejaVuSans-76"/>
      <use x="194.140625" xlink:href="#DejaVuSans-66"/>
     </g>
    </g>
   </g>
   <g id="text_23">
    <g clip-path="url(#p450f438343)">
     <!-- LCK -->
     <g transform="translate(475.997986 351.205402)scale(0.12 -0.12)">
      <use xlink:href="#DejaVuSans-76"/>
      <use x="55.712891" xlink:href="#DejaVuSans-67"/>
      <use x="125.537109" xlink:href="#DejaVuSans-75"/>
     </g>
    </g>
   </g>
   <g id="text_24">
    <g clip-path="url(#p450f438343)">
     <!-- PTPRC -->
     <g transform="translate(353.670223 296.99236)scale(0.12 -0.12)">
      <use xlink:href="#DejaVuSans-80"/>
      <use x="60.302734" xlink:href="#DejaVuSans-84"/>
      <use x="121.386719" xlink:href="#DejaVuSans-80"/>
      <use x="181.689453" xlink:href="#DejaVuSans-82"/>
      <use x="246.171875" xlink:href="#DejaVuSans-67"/>
     </g>
    </g>
   </g>
   <g id="text_25">
    <g clip-path="url(#p450f438343)">
     <!-- PDCD1 -->
     <g transform="translate(145.240785 232.821908)scale(0.12 -0.12)">
      <use xlink:href="#DejaVuSans-80"/>
      <use x="60.302734" xlink:href="#DejaVuSans-68"/>
      <use x="137.304688" xlink:href="#DejaVuSans-67"/>
      <use x="207.128906" xlink:href="#DejaVuSans-68"/>
      <use x="284.130859" xlink:href="#DejaVuSans-49"/>
     </g>
    </g>
   </g>
   <g id="text_26">
    <g clip-path="url(#p450f438343)">
     <!-- RAF1 -->
     <g transform="translate(580.176185 325.06702)scale(0.12 -0.12)">
      <use xlink:href="#DejaVuSans-82"/>
      <use x="65.482422" xlink:href="#DejaVuSans-65"/>
      <use x="133.890625" xlink:href="#DejaVuSans-70"/>
      <use x="191.410156" xlink:href="#DejaVuSans-49"/>
     </g>
    </g>
   </g>
   <g id="text_27">
    <g clip-path="url(#p450f438343)">
     <!-- MAP3K7 -->
     <g transform="translate(405.198479 184.264053)scale(0.12 -0.12)">
      <use xlink:href="#DejaVuSans-77"/>
      <use x="86.279297" xlink:href="#DejaVuSans-65"/>
      <use x="154.6875" xlink:href="#DejaVuSans-80"/>
      <use x="214.990234" xlink:href="#DejaVuSans-51"/>
      <use x="278.613281" xlink:href="#DejaVuSans-75"/>
      <use x="344.189453" xlink:href="#DejaVuSans-55"/>
     </g>
    </g>
   </g>
   <g id="text_28">
    <g clip-path="url(#p450f438343)">
     <!-- MAP2K7 -->
     <g transform="translate(479.499617 236.34202)scale(0.12 -0.12)">
      <use xlink:href="#DejaVuSans-77"/>
      <use x="86.279297" xlink:href="#DejaVuSans-65"/>
      <use x="154.6875" xlink:href="#DejaVuSans-80"/>
      <use x="214.990234" xlink:href="#DejaVuSans-50"/>
      <use x="278.613281" xlink:href="#DejaVuSans-75"/>
      <use x="344.189453" xlink:href="#DejaVuSans-55"/>
     </g>
    </g>
   </g>
   <g id="text_29">
    <g clip-path="url(#p450f438343)">
     <!-- DLG1 -->
     <g transform="translate(184.395539 382.25448)scale(0.12 -0.12)">
      <use xlink:href="#DejaVuSans-68"/>
      <use x="77.001953" xlink:href="#DejaVuSans-76"/>
      <use x="132.714844" xlink:href="#DejaVuSans-71"/>
      <use x="210.205078" xlink:href="#DejaVuSans-49"/>
     </g>
    </g>
   </g>
   <g id="text_30">
    <g clip-path="url(#p450f438343)">
     <!-- GSK3B -->
     <g transform="translate(374.091078 314.907675)scale(0.12 -0.12)">
      <use xlink:href="#DejaVuSans-71"/>
      <use x="77.490234" xlink:href="#DejaVuSans-83"/>
      <use x="140.966797" xlink:href="#DejaVuSans-75"/>
      <use x="206.542969" xlink:href="#DejaVuSans-51"/>
      <use x="270.166016" xlink:href="#DejaVuSans-66"/>
     </g>
    </g>
   </g>
   <g id="text_31">
    <g clip-path="url(#p450f438343)">
     <!-- NFKBIB -->
     <g transform="translate(409.637616 296.267719)scale(0.12 -0.12)">
      <use xlink:href="#DejaVuSans-78"/>
      <use x="74.804688" xlink:href="#DejaVuSans-70"/>
      <use x="132.324219" xlink:href="#DejaVuSans-75"/>
      <use x="197.900391" xlink:href="#DejaVuSans-66"/>
      <use x="266.503906" xlink:href="#DejaVuSans-73"/>
      <use x="295.996094" xlink:href="#DejaVuSans-66"/>
     </g>
    </g>
   </g>
   <g id="text_32">
    <g clip-path="url(#p450f438343)">
     <!-- NFKBIA -->
     <g transform="translate(266.879547 446.751305)scale(0.12 -0.12)">
      <use xlink:href="#DejaVuSans-78"/>
      <use x="74.804688" xlink:href="#DejaVuSans-70"/>
      <use x="132.324219" xlink:href="#DejaVuSans-75"/>
      <use x="197.900391" xlink:href="#DejaVuSans-66"/>
      <use x="266.503906" xlink:href="#DejaVuSans-73"/>
      <use x="295.996094" xlink:href="#DejaVuSans-65"/>
     </g>
    </g>
   </g>
   <g id="text_33">
    <g clip-path="url(#p450f438343)">
     <!-- NFKBIE -->
     <g transform="translate(349.265093 287.053433)scale(0.12 -0.12)">
      <use xlink:href="#DejaVuSans-78"/>
      <use x="74.804688" xlink:href="#DejaVuSans-70"/>
      <use x="132.324219" xlink:href="#DejaVuSans-75"/>
      <use x="197.900391" xlink:href="#DejaVuSans-66"/>
      <use x="266.503906" xlink:href="#DejaVuSans-73"/>
      <use x="295.996094" xlink:href="#DejaVuSans-69"/>
     </g>
    </g>
   </g>
   <g id="text_34">
    <g clip-path="url(#p450f438343)">
     <!-- NFKB1 -->
     <g transform="translate(330.882405 373.346)scale(0.12 -0.12)">
      <use xlink:href="#DejaVuSans-78"/>
      <use x="74.804688" xlink:href="#DejaVuSans-70"/>
      <use x="132.324219" xlink:href="#DejaVuSans-75"/>
      <use x="197.900391" xlink:href="#DejaVuSans-66"/>
      <use x="266.503906" xlink:href="#DejaVuSans-49"/>
     </g>
    </g>
   </g>
   <g id="text_35">
    <g clip-path="url(#p450f438343)">
     <!-- RELA -->
     <g transform="translate(366.107895 393.539409)scale(0.12 -0.12)">
      <use xlink:href="#DejaVuSans-82"/>
      <use x="69.482422" xlink:href="#DejaVuSans-69"/>
      <use x="132.666016" xlink:href="#DejaVuSans-76"/>
      <use x="190.628906" xlink:href="#DejaVuSans-65"/>
     </g>
    </g>
   </g>
   <g id="text_36">
    <g clip-path="url(#p450f438343)">
     <!-- HRAS -->
     <g transform="translate(371.968694 319.236941)scale(0.12 -0.12)">
      <defs>
       <path d="M 9.8125 72.90625 
L 19.671875 72.90625 
L 19.671875 43.015625 
L 55.515625 43.015625 
L 55.515625 72.90625 
L 65.375 72.90625 
L 65.375 0 
L 55.515625 0 
L 55.515625 34.71875 
L 19.671875 34.71875 
L 19.671875 0 
L 9.8125 0 
z
" id="DejaVuSans-72"/>
      </defs>
      <use xlink:href="#DejaVuSans-72"/>
      <use x="75.195312" xlink:href="#DejaVuSans-82"/>
      <use x="140.677734" xlink:href="#DejaVuSans-65"/>
      <use x="209.085938" xlink:href="#DejaVuSans-83"/>
     </g>
    </g>
   </g>
   <g id="text_37">
    <g clip-path="url(#p450f438343)">
     <!-- KRAS -->
     <g transform="translate(428.731891 415.062941)scale(0.12 -0.12)">
      <use xlink:href="#DejaVuSans-75"/>
      <use x="65.576172" xlink:href="#DejaVuSans-82"/>
      <use x="131.058594" xlink:href="#DejaVuSans-65"/>
      <use x="199.466797" xlink:href="#DejaVuSans-83"/>
     </g>
    </g>
   </g>
   <g id="text_38">
    <g clip-path="url(#p450f438343)">
     <!-- NRAS -->
     <g transform="translate(432.686126 372.627889)scale(0.12 -0.12)">
      <use xlink:href="#DejaVuSans-78"/>
      <use x="74.804688" xlink:href="#DejaVuSans-82"/>
      <use x="140.287109" xlink:href="#DejaVuSans-65"/>
      <use x="208.695312" xlink:href="#DejaVuSans-83"/>
     </g>
    </g>
   </g>
   <g id="text_39">
    <g clip-path="url(#p450f438343)">
     <!-- FOS -->
     <g transform="translate(346.508038 392.486814)scale(0.12 -0.12)">
      <defs>
       <path d="M 39.40625 66.21875 
Q 28.65625 66.21875 22.328125 58.203125 
Q 16.015625 50.203125 16.015625 36.375 
Q 16.015625 22.609375 22.328125 14.59375 
Q 28.65625 6.59375 39.40625 6.59375 
Q 50.140625 6.59375 56.421875 14.59375 
Q 62.703125 22.609375 62.703125 36.375 
Q 62.703125 50.203125 56.421875 58.203125 
Q 50.140625 66.21875 39.40625 66.21875 
z
M 39.40625 74.21875 
Q 54.734375 74.21875 63.90625 63.9375 
Q 73.09375 53.65625 73.09375 36.375 
Q 73.09375 19.140625 63.90625 8.859375 
Q 54.734375 -1.421875 39.40625 -1.421875 
Q 24.03125 -1.421875 14.8125 8.828125 
Q 5.609375 19.09375 5.609375 36.375 
Q 5.609375 53.65625 14.8125 63.9375 
Q 24.03125 74.21875 39.40625 74.21875 
z
" id="DejaVuSans-79"/>
      </defs>
      <use xlink:href="#DejaVuSans-70"/>
      <use x="57.519531" xlink:href="#DejaVuSans-79"/>
      <use x="136.230469" xlink:href="#DejaVuSans-83"/>
     </g>
    </g>
   </g>
   <g id="text_40">
    <g clip-path="url(#p450f438343)">
     <!-- JUN -->
     <g transform="translate(259.756115 444.38392)scale(0.12 -0.12)">
      <defs>
       <path d="M 9.8125 72.90625 
L 19.671875 72.90625 
L 19.671875 5.078125 
Q 19.671875 -8.109375 14.671875 -14.0625 
Q 9.671875 -20.015625 -1.421875 -20.015625 
L -5.171875 -20.015625 
L -5.171875 -11.71875 
L -2.09375 -11.71875 
Q 4.4375 -11.71875 7.125 -8.046875 
Q 9.8125 -4.390625 9.8125 5.078125 
z
" id="DejaVuSans-74"/>
       <path d="M 8.6875 72.90625 
L 18.609375 72.90625 
L 18.609375 28.609375 
Q 18.609375 16.890625 22.84375 11.734375 
Q 27.09375 6.59375 36.625 6.59375 
Q 46.09375 6.59375 50.34375 11.734375 
Q 54.59375 16.890625 54.59375 28.609375 
L 54.59375 72.90625 
L 64.5 72.90625 
L 64.5 27.390625 
Q 64.5 13.140625 57.4375 5.859375 
Q 50.390625 -1.421875 36.625 -1.421875 
Q 22.796875 -1.421875 15.734375 5.859375 
Q 8.6875 13.140625 8.6875 27.390625 
z
" id="DejaVuSans-85"/>
      </defs>
      <use xlink:href="#DejaVuSans-74"/>
      <use x="29.492188" xlink:href="#DejaVuSans-85"/>
      <use x="102.685547" xlink:href="#DejaVuSans-78"/>
     </g>
    </g>
   </g>
   <g id="text_41">
    <g clip-path="url(#p450f438343)">
     <!-- NFATC2 -->
     <g transform="translate(382.616635 385.073994)scale(0.12 -0.12)">
      <use xlink:href="#DejaVuSans-78"/>
      <use x="74.804688" xlink:href="#DejaVuSans-70"/>
      <use x="123.199219" xlink:href="#DejaVuSans-65"/>
      <use x="183.857422" xlink:href="#DejaVuSans-84"/>
      <use x="239.066406" xlink:href="#DejaVuSans-67"/>
      <use x="308.890625" xlink:href="#DejaVuSans-50"/>
     </g>
    </g>
   </g>
   <g id="text_42">
    <g clip-path="url(#p450f438343)">
     <!-- NFATC1 -->
     <g transform="translate(283.507717 444.584705)scale(0.12 -0.12)">
      <use xlink:href="#DejaVuSans-78"/>
      <use x="74.804688" xlink:href="#DejaVuSans-70"/>
      <use x="123.199219" xlink:href="#DejaVuSans-65"/>
      <use x="183.857422" xlink:href="#DejaVuSans-84"/>
      <use x="239.066406" xlink:href="#DejaVuSans-67"/>
      <use x="308.890625" xlink:href="#DejaVuSans-49"/>
     </g>
    </g>
   </g>
   <g id="text_43">
    <g clip-path="url(#p450f438343)">
     <!-- NFATC3 -->
     <g transform="translate(276.723506 364.26855)scale(0.12 -0.12)">
      <use xlink:href="#DejaVuSans-78"/>
      <use x="74.804688" xlink:href="#DejaVuSans-70"/>
      <use x="123.199219" xlink:href="#DejaVuSans-65"/>
      <use x="183.857422" xlink:href="#DejaVuSans-84"/>
      <use x="239.066406" xlink:href="#DejaVuSans-67"/>
      <use x="308.890625" xlink:href="#DejaVuSans-51"/>
     </g>
    </g>
   </g>
   <g id="text_44">
    <g clip-path="url(#p450f438343)">
     <!-- ITK -->
     <g transform="translate(577.453427 391.376174)scale(0.12 -0.12)">
      <use xlink:href="#DejaVuSans-73"/>
      <use x="29.492188" xlink:href="#DejaVuSans-84"/>
      <use x="90.576172" xlink:href="#DejaVuSans-75"/>
     </g>
    </g>
   </g>
   <g id="text_45">
    <g clip-path="url(#p450f438343)">
     <!-- PAK1 -->
     <g transform="translate(645.098123 147.673417)scale(0.12 -0.12)">
      <use xlink:href="#DejaVuSans-80"/>
      <use x="53.927734" xlink:href="#DejaVuSans-65"/>
      <use x="122.335938" xlink:href="#DejaVuSans-75"/>
      <use x="187.912109" xlink:href="#DejaVuSans-49"/>
     </g>
    </g>
   </g>
   <g id="text_46">
    <g clip-path="url(#p450f438343)">
     <!-- PAK2 -->
     <g transform="translate(152.201489 293.998169)scale(0.12 -0.12)">
      <use xlink:href="#DejaVuSans-80"/>
      <use x="53.927734" xlink:href="#DejaVuSans-65"/>
      <use x="122.335938" xlink:href="#DejaVuSans-75"/>
      <use x="187.912109" xlink:href="#DejaVuSans-50"/>
     </g>
    </g>
   </g>
   <g id="text_47">
    <g clip-path="url(#p450f438343)">
     <!-- PAK4 -->
     <g transform="translate(704.40234 298.429866)scale(0.12 -0.12)">
      <use xlink:href="#DejaVuSans-80"/>
      <use x="53.927734" xlink:href="#DejaVuSans-65"/>
      <use x="122.335938" xlink:href="#DejaVuSans-75"/>
      <use x="187.912109" xlink:href="#DejaVuSans-52"/>
     </g>
    </g>
   </g>
   <g id="text_48">
    <g clip-path="url(#p450f438343)">
     <!-- PAK6 -->
     <g transform="translate(392.515086 477.463977)scale(0.12 -0.12)">
      <defs>
       <path d="M 33.015625 40.375 
Q 26.375 40.375 22.484375 35.828125 
Q 18.609375 31.296875 18.609375 23.390625 
Q 18.609375 15.53125 22.484375 10.953125 
Q 26.375 6.390625 33.015625 6.390625 
Q 39.65625 6.390625 43.53125 10.953125 
Q 47.40625 15.53125 47.40625 23.390625 
Q 47.40625 31.296875 43.53125 35.828125 
Q 39.65625 40.375 33.015625 40.375 
z
M 52.59375 71.296875 
L 52.59375 62.3125 
Q 48.875 64.0625 45.09375 64.984375 
Q 41.3125 65.921875 37.59375 65.921875 
Q 27.828125 65.921875 22.671875 59.328125 
Q 17.53125 52.734375 16.796875 39.40625 
Q 19.671875 43.65625 24.015625 45.921875 
Q 28.375 48.1875 33.59375 48.1875 
Q 44.578125 48.1875 50.953125 41.515625 
Q 57.328125 34.859375 57.328125 23.390625 
Q 57.328125 12.15625 50.6875 5.359375 
Q 44.046875 -1.421875 33.015625 -1.421875 
Q 20.359375 -1.421875 13.671875 8.265625 
Q 6.984375 17.96875 6.984375 36.375 
Q 6.984375 53.65625 15.1875 63.9375 
Q 23.390625 74.21875 37.203125 74.21875 
Q 40.921875 74.21875 44.703125 73.484375 
Q 48.484375 72.75 52.59375 71.296875 
z
" id="DejaVuSans-54"/>
      </defs>
      <use xlink:href="#DejaVuSans-80"/>
      <use x="53.927734" xlink:href="#DejaVuSans-65"/>
      <use x="122.335938" xlink:href="#DejaVuSans-75"/>
      <use x="187.912109" xlink:href="#DejaVuSans-54"/>
     </g>
    </g>
   </g>
   <g id="text_49">
    <g clip-path="url(#p450f438343)">
     <!-- NCK1 -->
     <g transform="translate(476.986436 314.644467)scale(0.12 -0.12)">
      <use xlink:href="#DejaVuSans-78"/>
      <use x="74.804688" xlink:href="#DejaVuSans-67"/>
      <use x="144.628906" xlink:href="#DejaVuSans-75"/>
      <use x="210.205078" xlink:href="#DejaVuSans-49"/>
     </g>
    </g>
   </g>
   <g id="text_50">
    <g clip-path="url(#p450f438343)">
     <!-- NCK2 -->
     <g transform="translate(486.047711 322.835711)scale(0.12 -0.12)">
      <use xlink:href="#DejaVuSans-78"/>
      <use x="74.804688" xlink:href="#DejaVuSans-67"/>
      <use x="144.628906" xlink:href="#DejaVuSans-75"/>
      <use x="210.205078" xlink:href="#DejaVuSans-50"/>
     </g>
    </g>
   </g>
   <g id="text_51">
    <g clip-path="url(#p450f438343)">
     <!-- CD4 -->
     <g transform="translate(416.504422 212.015113)scale(0.12 -0.12)">
      <use xlink:href="#DejaVuSans-67"/>
      <use x="69.824219" xlink:href="#DejaVuSans-68"/>
      <use x="146.826172" xlink:href="#DejaVuSans-52"/>
     </g>
    </g>
   </g>
   <g id="text_52">
    <g clip-path="url(#p450f438343)">
     <!-- CD8A -->
     <g transform="translate(381.329949 224.471846)scale(0.12 -0.12)">
      <use xlink:href="#DejaVuSans-67"/>
      <use x="69.824219" xlink:href="#DejaVuSans-68"/>
      <use x="146.826172" xlink:href="#DejaVuSans-56"/>
      <use x="210.449219" xlink:href="#DejaVuSans-65"/>
     </g>
    </g>
   </g>
   <g id="text_53">
    <g clip-path="url(#p450f438343)">
     <!-- CD8B -->
     <g transform="translate(599.691647 421.091191)scale(0.12 -0.12)">
      <use xlink:href="#DejaVuSans-67"/>
      <use x="69.824219" xlink:href="#DejaVuSans-68"/>
      <use x="146.826172" xlink:href="#DejaVuSans-56"/>
      <use x="210.449219" xlink:href="#DejaVuSans-66"/>
     </g>
    </g>
   </g>
   <g id="text_54">
    <g clip-path="url(#p450f438343)">
     <!-- PTPN6 -->
     <g transform="translate(281.460915 366.412101)scale(0.12 -0.12)">
      <use xlink:href="#DejaVuSans-80"/>
      <use x="60.302734" xlink:href="#DejaVuSans-84"/>
      <use x="121.386719" xlink:href="#DejaVuSans-80"/>
      <use x="181.689453" xlink:href="#DejaVuSans-78"/>
      <use x="256.494141" xlink:href="#DejaVuSans-54"/>
     </g>
    </g>
   </g>
   <g id="text_55">
    <g clip-path="url(#p450f438343)">
     <!-- PTPN11 -->
     <g transform="translate(317.098222 303.08676)scale(0.12 -0.12)">
      <use xlink:href="#DejaVuSans-80"/>
      <use x="60.302734" xlink:href="#DejaVuSans-84"/>
      <use x="121.386719" xlink:href="#DejaVuSans-80"/>
      <use x="181.689453" xlink:href="#DejaVuSans-78"/>
      <use x="256.494141" xlink:href="#DejaVuSans-49"/>
      <use x="320.117188" xlink:href="#DejaVuSans-49"/>
     </g>
    </g>
   </g>
   <g id="text_56">
    <g clip-path="url(#p450f438343)">
     <!-- MAP2K1 -->
     <g transform="translate(563.774577 448.214617)scale(0.12 -0.12)">
      <use xlink:href="#DejaVuSans-77"/>
      <use x="86.279297" xlink:href="#DejaVuSans-65"/>
      <use x="154.6875" xlink:href="#DejaVuSans-80"/>
      <use x="214.990234" xlink:href="#DejaVuSans-50"/>
      <use x="278.613281" xlink:href="#DejaVuSans-75"/>
      <use x="344.189453" xlink:href="#DejaVuSans-49"/>
     </g>
    </g>
   </g>
   <g id="text_57">
    <g clip-path="url(#p450f438343)">
     <!-- MAP2K2 -->
     <g transform="translate(667.389801 381.472153)scale(0.12 -0.12)">
      <use xlink:href="#DejaVuSans-77"/>
      <use x="86.279297" xlink:href="#DejaVuSans-65"/>
      <use x="154.6875" xlink:href="#DejaVuSans-80"/>
      <use x="214.990234" xlink:href="#DejaVuSans-50"/>
      <use x="278.613281" xlink:href="#DejaVuSans-75"/>
      <use x="344.189453" xlink:href="#DejaVuSans-50"/>
     </g>
    </g>
   </g>
   <g id="text_58">
    <!-- Frame: 11 -->
    <g transform="translate(121.392 91.296)scale(0.1 -0.1)">
     <defs>
      <path d="M 41.109375 46.296875 
Q 39.59375 47.171875 37.8125 47.578125 
Q 36.03125 48 33.890625 48 
Q 26.265625 48 22.1875 43.046875 
Q 18.109375 38.09375 18.109375 28.8125 
L 18.109375 0 
L 9.078125 0 
L 9.078125 54.6875 
L 18.109375 54.6875 
L 18.109375 46.1875 
Q 20.953125 51.171875 25.484375 53.578125 
Q 30.03125 56 36.53125 56 
Q 37.453125 56 38.578125 55.875 
Q 39.703125 55.765625 41.0625 55.515625 
z
" id="DejaVuSans-114"/>
      <path d="M 34.28125 27.484375 
Q 23.390625 27.484375 19.1875 25 
Q 14.984375 22.515625 14.984375 16.5 
Q 14.984375 11.71875 18.140625 8.90625 
Q 21.296875 6.109375 26.703125 6.109375 
Q 34.1875 6.109375 38.703125 11.40625 
Q 43.21875 16.703125 43.21875 25.484375 
L 43.21875 27.484375 
z
M 52.203125 31.203125 
L 52.203125 0 
L 43.21875 0 
L 43.21875 8.296875 
Q 40.140625 3.328125 35.546875 0.953125 
Q 30.953125 -1.421875 24.3125 -1.421875 
Q 15.921875 -1.421875 10.953125 3.296875 
Q 6 8.015625 6 15.921875 
Q 6 25.140625 12.171875 29.828125 
Q 18.359375 34.515625 30.609375 34.515625 
L 43.21875 34.515625 
L 43.21875 35.40625 
Q 43.21875 41.609375 39.140625 45 
Q 35.0625 48.390625 27.6875 48.390625 
Q 23 48.390625 18.546875 47.265625 
Q 14.109375 46.140625 10.015625 43.890625 
L 10.015625 52.203125 
Q 14.9375 54.109375 19.578125 55.046875 
Q 24.21875 56 28.609375 56 
Q 40.484375 56 46.34375 49.84375 
Q 52.203125 43.703125 52.203125 31.203125 
z
" id="DejaVuSans-97"/>
      <path d="M 52 44.1875 
Q 55.375 50.25 60.0625 53.125 
Q 64.75 56 71.09375 56 
Q 79.640625 56 84.28125 50.015625 
Q 88.921875 44.046875 88.921875 33.015625 
L 88.921875 0 
L 79.890625 0 
L 79.890625 32.71875 
Q 79.890625 40.578125 77.09375 44.375 
Q 74.3125 48.1875 68.609375 48.1875 
Q 61.625 48.1875 57.5625 43.546875 
Q 53.515625 38.921875 53.515625 30.90625 
L 53.515625 0 
L 44.484375 0 
L 44.484375 32.71875 
Q 44.484375 40.625 41.703125 44.40625 
Q 38.921875 48.1875 33.109375 48.1875 
Q 26.21875 48.1875 22.15625 43.53125 
Q 18.109375 38.875 18.109375 30.90625 
L 18.109375 0 
L 9.078125 0 
L 9.078125 54.6875 
L 18.109375 54.6875 
L 18.109375 46.1875 
Q 21.1875 51.21875 25.484375 53.609375 
Q 29.78125 56 35.6875 56 
Q 41.65625 56 45.828125 52.96875 
Q 50 49.953125 52 44.1875 
z
" id="DejaVuSans-109"/>
      <path d="M 56.203125 29.59375 
L 56.203125 25.203125 
L 14.890625 25.203125 
Q 15.484375 15.921875 20.484375 11.0625 
Q 25.484375 6.203125 34.421875 6.203125 
Q 39.59375 6.203125 44.453125 7.46875 
Q 49.3125 8.734375 54.109375 11.28125 
L 54.109375 2.78125 
Q 49.265625 0.734375 44.1875 -0.34375 
Q 39.109375 -1.421875 33.890625 -1.421875 
Q 20.796875 -1.421875 13.15625 6.1875 
Q 5.515625 13.8125 5.515625 26.8125 
Q 5.515625 40.234375 12.765625 48.109375 
Q 20.015625 56 32.328125 56 
Q 43.359375 56 49.78125 48.890625 
Q 56.203125 41.796875 56.203125 29.59375 
z
M 47.21875 32.234375 
Q 47.125 39.59375 43.09375 43.984375 
Q 39.0625 48.390625 32.421875 48.390625 
Q 24.90625 48.390625 20.390625 44.140625 
Q 15.875 39.890625 15.1875 32.171875 
z
" id="DejaVuSans-101"/>
      <path d="M 11.71875 12.40625 
L 22.015625 12.40625 
L 22.015625 0 
L 11.71875 0 
z
M 11.71875 51.703125 
L 22.015625 51.703125 
L 22.015625 39.3125 
L 11.71875 39.3125 
z
" id="DejaVuSans-58"/>
      <path id="DejaVuSans-32"/>
     </defs>
     <use xlink:href="#DejaVuSans-70"/>
     <use x="50.269531" xlink:href="#DejaVuSans-114"/>
     <use x="91.382812" xlink:href="#DejaVuSans-97"/>
     <use x="152.662109" xlink:href="#DejaVuSans-109"/>
     <use x="250.074219" xlink:href="#DejaVuSans-101"/>
     <use x="311.597656" xlink:href="#DejaVuSans-58"/>
     <use x="345.289062" xlink:href="#DejaVuSans-32"/>
     <use x="377.076172" xlink:href="#DejaVuSans-49"/>
     <use x="440.699219" xlink:href="#DejaVuSans-49"/>
    </g>
   </g>
   <g id="text_59">
    <!-- Network: hsa04660 -->
    <g transform="translate(384.1275 63.12)scale(0.12 -0.12)">
     <defs>
      <path d="M 18.3125 70.21875 
L 18.3125 54.6875 
L 36.8125 54.6875 
L 36.8125 47.703125 
L 18.3125 47.703125 
L 18.3125 18.015625 
Q 18.3125 11.328125 20.140625 9.421875 
Q 21.96875 7.515625 27.59375 7.515625 
L 36.8125 7.515625 
L 36.8125 0 
L 27.59375 0 
Q 17.1875 0 13.234375 3.875 
Q 9.28125 7.765625 9.28125 18.015625 
L 9.28125 47.703125 
L 2.6875 47.703125 
L 2.6875 54.6875 
L 9.28125 54.6875 
L 9.28125 70.21875 
z
" id="DejaVuSans-116"/>
      <path d="M 4.203125 54.6875 
L 13.1875 54.6875 
L 24.421875 12.015625 
L 35.59375 54.6875 
L 46.1875 54.6875 
L 57.421875 12.015625 
L 68.609375 54.6875 
L 77.59375 54.6875 
L 63.28125 0 
L 52.6875 0 
L 40.921875 44.828125 
L 29.109375 0 
L 18.5 0 
z
" id="DejaVuSans-119"/>
      <path d="M 30.609375 48.390625 
Q 23.390625 48.390625 19.1875 42.75 
Q 14.984375 37.109375 14.984375 27.296875 
Q 14.984375 17.484375 19.15625 11.84375 
Q 23.34375 6.203125 30.609375 6.203125 
Q 37.796875 6.203125 41.984375 11.859375 
Q 46.1875 17.53125 46.1875 27.296875 
Q 46.1875 37.015625 41.984375 42.703125 
Q 37.796875 48.390625 30.609375 48.390625 
z
M 30.609375 56 
Q 42.328125 56 49.015625 48.375 
Q 55.71875 40.765625 55.71875 27.296875 
Q 55.71875 13.875 49.015625 6.21875 
Q 42.328125 -1.421875 30.609375 -1.421875 
Q 18.84375 -1.421875 12.171875 6.21875 
Q 5.515625 13.875 5.515625 27.296875 
Q 5.515625 40.765625 12.171875 48.375 
Q 18.84375 56 30.609375 56 
z
" id="DejaVuSans-111"/>
      <path d="M 9.078125 75.984375 
L 18.109375 75.984375 
L 18.109375 31.109375 
L 44.921875 54.6875 
L 56.390625 54.6875 
L 27.390625 29.109375 
L 57.625 0 
L 45.90625 0 
L 18.109375 26.703125 
L 18.109375 0 
L 9.078125 0 
z
" id="DejaVuSans-107"/>
      <path d="M 54.890625 33.015625 
L 54.890625 0 
L 45.90625 0 
L 45.90625 32.71875 
Q 45.90625 40.484375 42.875 44.328125 
Q 39.84375 48.1875 33.796875 48.1875 
Q 26.515625 48.1875 22.3125 43.546875 
Q 18.109375 38.921875 18.109375 30.90625 
L 18.109375 0 
L 9.078125 0 
L 9.078125 75.984375 
L 18.109375 75.984375 
L 18.109375 46.1875 
Q 21.34375 51.125 25.703125 53.5625 
Q 30.078125 56 35.796875 56 
Q 45.21875 56 50.046875 50.171875 
Q 54.890625 44.34375 54.890625 33.015625 
z
" id="DejaVuSans-104"/>
      <path d="M 44.28125 53.078125 
L 44.28125 44.578125 
Q 40.484375 46.53125 36.375 47.5 
Q 32.28125 48.484375 27.875 48.484375 
Q 21.1875 48.484375 17.84375 46.4375 
Q 14.5 44.390625 14.5 40.28125 
Q 14.5 37.15625 16.890625 35.375 
Q 19.28125 33.59375 26.515625 31.984375 
L 29.59375 31.296875 
Q 39.15625 29.25 43.1875 25.515625 
Q 47.21875 21.78125 47.21875 15.09375 
Q 47.21875 7.46875 41.1875 3.015625 
Q 35.15625 -1.421875 24.609375 -1.421875 
Q 20.21875 -1.421875 15.453125 -0.5625 
Q 10.6875 0.296875 5.421875 2 
L 5.421875 11.28125 
Q 10.40625 8.6875 15.234375 7.390625 
Q 20.0625 6.109375 24.8125 6.109375 
Q 31.15625 6.109375 34.5625 8.28125 
Q 37.984375 10.453125 37.984375 14.40625 
Q 37.984375 18.0625 35.515625 20.015625 
Q 33.0625 21.96875 24.703125 23.78125 
L 21.578125 24.515625 
Q 13.234375 26.265625 9.515625 29.90625 
Q 5.8125 33.546875 5.8125 39.890625 
Q 5.8125 47.609375 11.28125 51.796875 
Q 16.75 56 26.8125 56 
Q 31.78125 56 36.171875 55.265625 
Q 40.578125 54.546875 44.28125 53.078125 
z
" id="DejaVuSans-115"/>
     </defs>
     <use xlink:href="#DejaVuSans-78"/>
     <use x="74.804688" xlink:href="#DejaVuSans-101"/>
     <use x="136.328125" xlink:href="#DejaVuSans-116"/>
     <use x="175.537109" xlink:href="#DejaVuSans-119"/>
     <use x="257.324219" xlink:href="#DejaVuSans-111"/>
     <use x="318.505859" xlink:href="#DejaVuSans-114"/>
     <use x="359.619141" xlink:href="#DejaVuSans-107"/>
     <use x="417.529297" xlink:href="#DejaVuSans-58"/>
     <use x="451.220703" xlink:href="#DejaVuSans-32"/>
     <use x="483.007812" xlink:href="#DejaVuSans-104"/>
     <use x="546.386719" xlink:href="#DejaVuSans-115"/>
     <use x="598.486328" xlink:href="#DejaVuSans-97"/>
     <use x="659.765625" xlink:href="#DejaVuSans-48"/>
     <use x="723.388672" xlink:href="#DejaVuSans-52"/>
     <use x="787.011719" xlink:href="#DejaVuSans-54"/>
     <use x="850.634766" xlink:href="#DejaVuSans-54"/>
     <use x="914.257812" xlink:href="#DejaVuSans-48"/>
    </g>
   </g>
  </g>
 </g>
 <defs>
  <clipPath id="p450f438343">
   <rect height="443.52" width="669.6" x="108" y="69.12"/>
  </clipPath>
 </defs>
</svg>
