<?xml version="1.0" encoding="utf-8" standalone="no"?>
<!DOCTYPE svg PUBLIC "-//W3C//DTD SVG 1.1//EN"
  "http://www.w3.org/Graphics/SVG/1.1/DTD/svg11.dtd">
<!-- Created with matplotlib (https://matplotlib.org/) -->
<svg height="576pt" version="1.1" viewBox="0 0 864 576" width="864pt" xmlns="http://www.w3.org/2000/svg" xmlns:xlink="http://www.w3.org/1999/xlink">
 <metadata>
  <rdf:RDF xmlns:cc="http://creativecommons.org/ns#" xmlns:dc="http://purl.org/dc/elements/1.1/" xmlns:rdf="http://www.w3.org/1999/02/22-rdf-syntax-ns#">
   <cc:Work>
    <dc:type rdf:resource="http://purl.org/dc/dcmitype/StillImage"/>
    <dc:date>2024-04-12T11:39:55.630196</dc:date>
    <dc:format>image/svg+xml</dc:format>
    <dc:creator>
     <cc:Agent>
      <dc:title>Matplotlib v3.3.1, https://matplotlib.org/</dc:title>
     </cc:Agent>
    </dc:creator>
   </cc:Work>
  </rdf:RDF>
 </metadata>
 <defs>
  <style type="text/css">*{stroke-linecap:butt;stroke-linejoin:round;}</style>
 </defs>
 <g id="figure_1">
  <g id="patch_1">
   <path d="M 0 576 
L 864 576 
L 864 0 
L 0 0 
z
" style="fill:#ffffff;"/>
  </g>
  <g id="axes_1">
   <g id="patch_2">
    <path clip-path="url(#p0a25fe8597)" d="M 471.575241 146.12401 
Q 406.898164 128.479724 343.299704 111.12969 
" style="fill:none;stroke:#000000;stroke-linecap:round;"/>
    <path clip-path="url(#p0a25fe8597)" d="M 346.632307 114.111932 
L 343.299704 111.12969 
L 347.685059 110.252953 
L 346.632307 114.111932 
z
" style="stroke:#000000;stroke-linecap:round;"/>
   </g>
   <g id="patch_3">
    <path clip-path="url(#p0a25fe8597)" d="M 500.75583 353.20593 
Q 581.666605 342.416442 661.469155 331.774736 
" style="fill:none;stroke:#000000;stroke-linecap:round;"/>
    <path clip-path="url(#p0a25fe8597)" d="M 657.239891 330.321007 
L 661.469155 331.774736 
L 657.768613 334.285909 
L 657.239891 330.321007 
z
" style="stroke:#000000;stroke-linecap:round;"/>
   </g>
   <g id="patch_4">
    <path clip-path="url(#p0a25fe8597)" d="M 434.609613 231.096299 
Q 510.689065 235.103855 585.65203 239.052598 
" style="fill:none;stroke:#000000;stroke-linecap:round;"/>
    <path clip-path="url(#p0a25fe8597)" d="M 581.762774 236.844955 
L 585.65203 239.052598 
L 581.552362 240.839417 
L 581.762774 236.844955 
z
" style="stroke:#000000;stroke-linecap:round;"/>
   </g>
   <g id="patch_5">
    <path clip-path="url(#p0a25fe8597)" d="M 248.373365 193.846763 
Q 268.645138 162.512601 288.309607 132.117152 
" style="fill:none;stroke:#000000;stroke-linecap:round;"/>
    <path clip-path="url(#p0a25fe8597)" d="M 284.457629 134.389214 
L 288.309607 132.117152 
L 287.81607 136.561972 
L 284.457629 134.389214 
z
" style="stroke:#000000;stroke-linecap:round;"/>
   </g>
   <g id="patch_6">
    <path clip-path="url(#p0a25fe8597)" d="M 237.755789 207.43781 
Q 211.887785 235.086588 186.783622 261.918941 
" style="fill:none;stroke:#000000;stroke-linecap:round;"/>
    <path clip-path="url(#p0a25fe8597)" d="M 190.976884 260.364414 
L 186.783622 261.918941 
L 188.055957 257.631615 
L 190.976884 260.364414 
z
" style="stroke:#000000;stroke-linecap:round;"/>
   </g>
   <g id="patch_7">
    <path clip-path="url(#p0a25fe8597)" d="M 235.061982 202.052662 
Q 220.914308 203.592385 207.878104 205.011145 
" style="fill:none;stroke:#000000;stroke-linecap:round;"/>
    <path clip-path="url(#p0a25fe8597)" d="M 212.071011 206.566631 
L 207.878104 205.011145 
L 211.638237 202.590111 
L 212.071011 206.566631 
z
" style="stroke:#000000;stroke-linecap:round;"/>
   </g>
   <g id="patch_8">
    <path clip-path="url(#p0a25fe8597)" d="M 249.749629 207.279967 
Q 277.604024 235.524906 304.673373 262.97379 
" style="fill:none;stroke:#000000;stroke-linecap:round;"/>
    <path clip-path="url(#p0a25fe8597)" d="M 303.288728 258.721408 
L 304.673373 262.97379 
L 300.44068 261.530076 
L 303.288728 258.721408 
z
" style="stroke:#000000;stroke-linecap:round;"/>
   </g>
   <g id="patch_9">
    <path clip-path="url(#p0a25fe8597)" d="M 233.011292 203.260411 
Q 260.688937 167.023472 287.687942 131.675042 
" style="fill:none;stroke:#000000;stroke-linecap:round;"/>
    <path clip-path="url(#p0a25fe8597)" d="M 283.670553 133.63988 
L 287.687942 131.675042 
L 286.849379 136.067855 
L 283.670553 133.63988 
z
" style="stroke:#000000;stroke-linecap:round;"/>
   </g>
   <g id="patch_10">
    <path clip-path="url(#p0a25fe8597)" d="M 222.307377 216.877688 
Q 203.929179 239.600602 186.254063 261.454221 
" style="fill:none;stroke:#000000;stroke-linecap:round;"/>
    <path clip-path="url(#p0a25fe8597)" d="M 190.324532 259.601847 
L 186.254063 261.454221 
L 187.214445 257.086422 
L 190.324532 259.601847 
z
" style="stroke:#000000;stroke-linecap:round;"/>
   </g>
   <g id="patch_11">
    <path clip-path="url(#p0a25fe8597)" d="M 219.174189 208.96141 
Q 212.95674 208.105737 207.846884 207.402496 
" style="fill:none;stroke:#000000;stroke-linecap:round;"/>
    <path clip-path="url(#p0a25fe8597)" d="M 211.536854 209.929178 
L 207.846884 207.402496 
L 212.082212 205.966529 
L 211.536854 209.929178 
z
" style="stroke:#000000;stroke-linecap:round;"/>
   </g>
   <g id="patch_12">
    <path clip-path="url(#p0a25fe8597)" d="M 234.804311 215.173223 
Q 269.646483 240.03878 303.578605 264.254869 
" style="fill:none;stroke:#000000;stroke-linecap:round;"/>
    <path clip-path="url(#p0a25fe8597)" d="M 301.484516 260.303313 
L 303.578605 264.254869 
L 299.160907 263.559206 
L 301.484516 260.303313 
z
" style="stroke:#000000;stroke-linecap:round;"/>
   </g>
   <g id="patch_13">
    <path clip-path="url(#p0a25fe8597)" d="M 410.769823 315.479277 
Q 354.454228 223.386319 298.721906 132.247191 
" style="fill:none;stroke:#000000;stroke-linecap:round;"/>
    <path clip-path="url(#p0a25fe8597)" d="M 299.102431 136.703109 
L 298.721906 132.247191 
L 302.514955 134.616322 
L 299.102431 136.703109 
z
" style="stroke:#000000;stroke-linecap:round;"/>
   </g>
   <g id="patch_14">
    <path clip-path="url(#p0a25fe8597)" d="M 422.54984 327.577323 
Q 499.356316 377.402706 575.224832 426.619623 
" style="fill:none;stroke:#000000;stroke-linecap:round;"/>
    <path clip-path="url(#p0a25fe8597)" d="M 572.957545 422.764833 
L 575.224832 426.619623 
L 570.780628 426.120579 
L 572.957545 422.764833 
z
" style="stroke:#000000;stroke-linecap:round;"/>
   </g>
   <g id="patch_15">
    <path clip-path="url(#p0a25fe8597)" d="M 417.31976 331.2822 
Q 433.559108 398.507823 449.53593 464.646672 
" style="fill:none;stroke:#000000;stroke-linecap:round;"/>
    <path clip-path="url(#p0a25fe8597)" d="M 450.540768 460.288886 
L 449.53593 464.646672 
L 446.652604 461.228129 
L 450.540768 460.288886 
z
" style="stroke:#000000;stroke-linecap:round;"/>
   </g>
   <g id="patch_16">
    <path clip-path="url(#p0a25fe8597)" d="M 575.181775 434.584878 
Q 517.630839 453.04597 461.144504 471.165561 
" style="fill:none;stroke:#000000;stroke-linecap:round;"/>
    <path clip-path="url(#p0a25fe8597)" d="M 465.564235 471.848187 
L 461.144504 471.165561 
L 464.342444 468.039352 
L 465.564235 471.848187 
z
" style="stroke:#000000;stroke-linecap:round;"/>
   </g>
   <g id="patch_17">
    <path clip-path="url(#p0a25fe8597)" d="M 251.829155 265.676871 
Q 242.556956 216.994597 233.493941 169.410614 
" style="fill:none;stroke:#000000;stroke-linecap:round;"/>
    <path clip-path="url(#p0a25fe8597)" d="M 232.27766 173.714178 
L 233.493941 169.410614 
L 236.207023 172.965777 
L 232.27766 173.714178 
z
" style="stroke:#000000;stroke-linecap:round;"/>
   </g>
   <g id="patch_18">
    <path clip-path="url(#p0a25fe8597)" d="M 260.895535 269.763419 
Q 286.690475 254.452126 311.523995 239.71151 
" style="fill:none;stroke:#000000;stroke-linecap:round;"/>
    <path clip-path="url(#p0a25fe8597)" d="M 307.063457 240.033387 
L 311.523995 239.71151 
L 309.105173 243.473066 
L 307.063457 240.033387 
z
" style="stroke:#000000;stroke-linecap:round;"/>
   </g>
   <g id="patch_19">
    <path clip-path="url(#p0a25fe8597)" d="M 513.214261 397.301284 
Q 609.477726 367.914186 704.671875 338.853525 
" style="fill:none;stroke:#000000;stroke-linecap:round;"/>
    <path clip-path="url(#p0a25fe8597)" d="M 700.262221 338.108576 
L 704.671875 338.853525 
L 701.430123 341.934279 
L 700.262221 338.108576 
z
" style="stroke:#000000;stroke-linecap:round;"/>
   </g>
   <g id="patch_20">
    <path clip-path="url(#p0a25fe8597)" d="M 496.382211 401.237087 
Q 397.261908 417.547833 299.244802 433.677042 
" style="fill:none;stroke:#000000;stroke-linecap:round;"/>
    <path clip-path="url(#p0a25fe8597)" d="M 303.516463 435.001016 
L 299.244802 433.677042 
L 302.866978 431.054097 
L 303.516463 435.001016 
z
" style="stroke:#000000;stroke-linecap:round;"/>
   </g>
   <g id="patch_21">
    <path clip-path="url(#p0a25fe8597)" d="M 324.439301 227.322167 
Q 358.643854 171.163796 392.266825 115.960288 
" style="fill:none;stroke:#000000;stroke-linecap:round;"/>
    <path clip-path="url(#p0a25fe8597)" d="M 388.477986 118.336145 
L 392.266825 115.960288 
L 391.894207 120.416874 
L 388.477986 118.336145 
z
" style="stroke:#000000;stroke-linecap:round;"/>
   </g>
   <g id="patch_22">
    <path clip-path="url(#p0a25fe8597)" d="M 353.835771 298.674887 
Q 325.139455 215.385501 296.807334 133.153169 
" style="fill:none;stroke:#000000;stroke-linecap:round;"/>
    <path clip-path="url(#p0a25fe8597)" d="M 296.219401 137.58649 
L 296.807334 133.153169 
L 300.001231 136.283508 
L 296.219401 137.58649 
z
" style="stroke:#000000;stroke-linecap:round;"/>
   </g>
   <g id="patch_23">
    <path clip-path="url(#p0a25fe8597)" d="M 360.939575 314.390658 
Q 404.245218 390.508986 446.997995 465.655542 
" style="fill:none;stroke:#000000;stroke-linecap:round;"/>
    <path clip-path="url(#p0a25fe8597)" d="M 446.758362 461.189831 
L 446.997995 465.655542 
L 443.281646 463.167822 
L 446.758362 461.189831 
z
" style="stroke:#000000;stroke-linecap:round;"/>
   </g>
   <g id="patch_24">
    <path clip-path="url(#p0a25fe8597)" d="M 651.923528 202.931694 
Q 674.443097 217.54216 696.024739 231.544108 
" style="fill:none;stroke:#000000;stroke-linecap:round;"/>
    <path clip-path="url(#p0a25fe8597)" d="M 693.757659 227.689196 
L 696.024739 231.544108 
L 691.580561 231.044825 
L 693.757659 227.689196 
z
" style="stroke:#000000;stroke-linecap:round;"/>
   </g>
   <g id="patch_25">
    <path clip-path="url(#p0a25fe8597)" d="M 575.883599 134.692885 
Q 585.779733 164.138686 595.319695 192.524703 
" style="fill:none;stroke:#000000;stroke-linecap:round;"/>
    <path clip-path="url(#p0a25fe8597)" d="M 595.941215 188.095966 
L 595.319695 192.524703 
L 592.149617 189.370245 
L 595.941215 188.095966 
z
" style="stroke:#000000;stroke-linecap:round;"/>
   </g>
   <g id="patch_26">
    <path clip-path="url(#p0a25fe8597)" d="M 595.678276 193.591656 
Q 585.782142 164.145855 576.24218 135.759839 
" style="fill:none;stroke:#000000;stroke-linecap:round;"/>
    <path clip-path="url(#p0a25fe8597)" d="M 575.62066 140.188576 
L 576.24218 135.759839 
L 579.412258 138.914297 
L 575.62066 140.188576 
z
" style="stroke:#000000;stroke-linecap:round;"/>
   </g>
   <g id="patch_27">
    <path clip-path="url(#p0a25fe8597)" d="M 607.070872 201.127448 
Q 621.548202 200.006083 634.910837 198.971059 
" style="fill:none;stroke:#000000;stroke-linecap:round;"/>
    <path clip-path="url(#p0a25fe8597)" d="M 630.768331 197.285933 
L 634.910837 198.971059 
L 631.077233 201.273987 
L 630.768331 197.285933 
z
" style="stroke:#000000;stroke-linecap:round;"/>
   </g>
   <g id="patch_28">
    <path clip-path="url(#p0a25fe8597)" d="M 558.804046 114.562504 
Q 597.015313 139.901178 634.294798 164.621968 
" style="fill:none;stroke:#000000;stroke-linecap:round;"/>
    <path clip-path="url(#p0a25fe8597)" d="M 632.066456 160.744535 
L 634.294798 164.621968 
L 629.855846 164.078182 
L 632.066456 160.744535 
z
" style="stroke:#000000;stroke-linecap:round;"/>
   </g>
   <g id="patch_29">
    <path clip-path="url(#p0a25fe8597)" d="M 647.642536 176.95126 
Q 663.416604 197.961767 678.519411 218.078178 
" style="fill:none;stroke:#000000;stroke-linecap:round;"/>
    <path clip-path="url(#p0a25fe8597)" d="M 677.717242 213.678573 
L 678.519411 218.078178 
L 674.518426 216.08015 
L 677.717242 213.678573 
z
" style="stroke:#000000;stroke-linecap:round;"/>
   </g>
   <g id="patch_30">
    <path clip-path="url(#p0a25fe8597)" d="M 680.747442 218.043549 
Q 667.340583 189.142617 654.40421 161.255905 
" style="fill:none;stroke:#000000;stroke-linecap:round;"/>
    <path clip-path="url(#p0a25fe8597)" d="M 654.273183 165.726121 
L 654.40421 161.255905 
L 657.901767 164.042857 
L 654.273183 165.726121 
z
" style="stroke:#000000;stroke-linecap:round;"/>
   </g>
   <g id="patch_31">
    <path clip-path="url(#p0a25fe8597)" d="M 678.831337 219.265264 
Q 676.346539 216.300381 674.579885 214.192394 
" style="fill:none;stroke:#000000;stroke-linecap:round;"/>
    <path clip-path="url(#p0a25fe8597)" d="M 675.616333 218.54277 
L 674.579885 214.192394 
L 678.682055 215.973461 
L 675.616333 218.54277 
z
" style="stroke:#000000;stroke-linecap:round;"/>
   </g>
   <g id="patch_32">
    <path clip-path="url(#p0a25fe8597)" d="M 600.033581 232.237053 
Q 622.854976 195.97387 645.080873 160.656932 
" style="fill:none;stroke:#000000;stroke-linecap:round;"/>
    <path clip-path="url(#p0a25fe8597)" d="M 641.257657 162.977066 
L 645.080873 160.656932 
L 644.64305 165.107585 
L 641.257657 162.977066 
z
" style="stroke:#000000;stroke-linecap:round;"/>
   </g>
   <g id="patch_33">
    <path clip-path="url(#p0a25fe8597)" d="M 603.633794 236.820556 
Q 634.639279 226.451955 664.584446 216.437936 
" style="fill:none;stroke:#000000;stroke-linecap:round;"/>
    <path clip-path="url(#p0a25fe8597)" d="M 660.156646 215.809777 
L 664.584446 216.437936 
L 661.425239 219.603281 
L 660.156646 215.809777 
z
" style="stroke:#000000;stroke-linecap:round;"/>
   </g>
   <g id="patch_34">
    <path clip-path="url(#p0a25fe8597)" d="M 451.854882 329.563539 
Q 519.96949 286.864835 587.136802 244.759957 
" style="fill:none;stroke:#000000;stroke-linecap:round;"/>
    <path clip-path="url(#p0a25fe8597)" d="M 582.685383 245.189924 
L 587.136802 244.759957 
L 584.809924 248.579072 
L 582.685383 245.189924 
z
" style="stroke:#000000;stroke-linecap:round;"/>
   </g>
   <g id="patch_35">
    <path clip-path="url(#p0a25fe8597)" d="M 665.648492 216.082106 
Q 634.643008 226.450708 604.69784 236.464726 
" style="fill:none;stroke:#000000;stroke-linecap:round;"/>
    <path clip-path="url(#p0a25fe8597)" d="M 609.125641 237.092886 
L 604.69784 236.464726 
L 607.857048 233.299382 
L 609.125641 237.092886 
z
" style="stroke:#000000;stroke-linecap:round;"/>
   </g>
   <g id="patch_36">
    <path clip-path="url(#p0a25fe8597)" d="M 548.552119 241.574201 
Q 567.435731 191.910989 585.921985 143.292816 
" style="fill:none;stroke:#000000;stroke-linecap:round;"/>
    <path clip-path="url(#p0a25fe8597)" d="M 582.630929 146.320843 
L 585.921985 143.292816 
L 586.369773 147.742477 
L 582.630929 146.320843 
z
" style="stroke:#000000;stroke-linecap:round;"/>
   </g>
   <g id="patch_37">
    <path clip-path="url(#p0a25fe8597)" d="M 206.766421 205.132132 
Q 220.914095 203.592408 233.950299 202.173649 
" style="fill:none;stroke:#000000;stroke-linecap:round;"/>
    <path clip-path="url(#p0a25fe8597)" d="M 229.757392 200.618163 
L 233.950299 202.173649 
L 230.190166 204.594682 
L 229.757392 200.618163 
z
" style="stroke:#000000;stroke-linecap:round;"/>
   </g>
   <g id="patch_38">
    <path clip-path="url(#p0a25fe8597)" d="M 206.738468 207.24995 
Q 212.955917 208.105624 218.065772 208.808865 
" style="fill:none;stroke:#000000;stroke-linecap:round;"/>
    <path clip-path="url(#p0a25fe8597)" d="M 214.375803 206.282183 
L 218.065772 208.808865 
L 213.830445 210.244832 
L 214.375803 206.282183 
z
" style="stroke:#000000;stroke-linecap:round;"/>
   </g>
   <g id="patch_39">
    <path clip-path="url(#p0a25fe8597)" d="M 186.017688 262.737603 
Q 211.885692 235.088825 236.989855 208.256472 
" style="fill:none;stroke:#000000;stroke-linecap:round;"/>
    <path clip-path="url(#p0a25fe8597)" d="M 232.796593 209.810999 
L 236.989855 208.256472 
L 235.71752 212.543798 
L 232.796593 209.810999 
z
" style="stroke:#000000;stroke-linecap:round;"/>
   </g>
   <g id="patch_40">
    <path clip-path="url(#p0a25fe8597)" d="M 185.550354 262.324292 
Q 203.928552 239.601378 221.603667 217.747759 
" style="fill:none;stroke:#000000;stroke-linecap:round;"/>
    <path clip-path="url(#p0a25fe8597)" d="M 217.533199 219.600133 
L 221.603667 217.747759 
L 220.643286 222.115558 
L 217.533199 219.600133 
z
" style="stroke:#000000;stroke-linecap:round;"/>
   </g>
   <g id="patch_41">
    <path clip-path="url(#p0a25fe8597)" d="M 305.46078 263.772238 
Q 277.606385 235.527299 250.537036 208.078414 
" style="fill:none;stroke:#000000;stroke-linecap:round;"/>
    <path clip-path="url(#p0a25fe8597)" d="M 251.92168 212.330797 
L 250.537036 208.078414 
L 254.769729 209.522129 
L 251.92168 212.330797 
z
" style="stroke:#000000;stroke-linecap:round;"/>
   </g>
   <g id="patch_42">
    <path clip-path="url(#p0a25fe8597)" d="M 304.490351 264.905549 
Q 269.64818 240.039991 235.716058 215.823902 
" style="fill:none;stroke:#000000;stroke-linecap:round;"/>
    <path clip-path="url(#p0a25fe8597)" d="M 237.810146 219.775458 
L 235.716058 215.823902 
L 240.133756 216.519565 
L 237.810146 219.775458 
z
" style="stroke:#000000;stroke-linecap:round;"/>
   </g>
   <g id="patch_43">
    <path clip-path="url(#p0a25fe8597)" d="M 304.417607 274.868219 
Q 252.396009 310.890899 201.293585 346.277092 
" style="fill:none;stroke:#000000;stroke-linecap:round;"/>
    <path clip-path="url(#p0a25fe8597)" d="M 205.72071 345.644192 
L 201.293585 346.277092 
L 203.44354 342.355651 
L 205.72071 345.644192 
z
" style="stroke:#000000;stroke-linecap:round;"/>
   </g>
   <g id="patch_44">
    <path clip-path="url(#p0a25fe8597)" d="M 478.482321 240.504879 
Q 404.600368 261.194075 331.795032 281.581786 
" style="fill:none;stroke:#000000;stroke-linecap:round;"/>
    <path clip-path="url(#p0a25fe8597)" d="M 336.186172 282.42907 
L 331.795032 281.581786 
L 335.107544 278.577244 
L 336.186172 282.42907 
z
" style="stroke:#000000;stroke-linecap:round;"/>
   </g>
   <g id="patch_45">
    <path clip-path="url(#p0a25fe8597)" d="M 478.228538 237.107015 
Q 456.393192 234.405672 435.667422 231.841601 
" style="fill:none;stroke:#000000;stroke-linecap:round;"/>
    <path clip-path="url(#p0a25fe8597)" d="M 439.391602 234.317582 
L 435.667422 231.841601 
L 439.882715 230.347845 
L 439.391602 234.317582 
z
" style="stroke:#000000;stroke-linecap:round;"/>
   </g>
   <g id="patch_46">
    <path clip-path="url(#p0a25fe8597)" d="M 495.40819 237.029712 
Q 580.34218 225.752581 664.167862 214.622606 
" style="fill:none;stroke:#000000;stroke-linecap:round;"/>
    <path clip-path="url(#p0a25fe8597)" d="M 659.939421 213.166486 
L 664.167862 214.622606 
L 660.465902 217.131687 
L 659.939421 213.166486 
z
" style="stroke:#000000;stroke-linecap:round;"/>
   </g>
   <g id="patch_47">
    <path clip-path="url(#p0a25fe8597)" d="M 330.714823 281.884277 
Q 404.596776 261.195081 477.402112 240.80737 
" style="fill:none;stroke:#000000;stroke-linecap:round;"/>
    <path clip-path="url(#p0a25fe8597)" d="M 473.010972 239.960086 
L 477.402112 240.80737 
L 474.0896 243.811912 
L 473.010972 239.960086 
z
" style="stroke:#000000;stroke-linecap:round;"/>
   </g>
   <g id="patch_48">
    <path clip-path="url(#p0a25fe8597)" d="M 316.422356 277.932171 
Q 283.024912 242.668778 250.396268 208.21714 
" style="fill:none;stroke:#000000;stroke-linecap:round;"/>
    <path clip-path="url(#p0a25fe8597)" d="M 251.694703 212.496634 
L 250.396268 208.21714 
L 254.598924 209.746088 
L 251.694703 212.496634 
z
" style="stroke:#000000;stroke-linecap:round;"/>
   </g>
   <g id="patch_49">
    <path clip-path="url(#p0a25fe8597)" d="M 314.704513 288.237337 
Q 257.813337 318.032764 201.912584 347.30948 
" style="fill:none;stroke:#000000;stroke-linecap:round;"/>
    <path clip-path="url(#p0a25fe8597)" d="M 206.38393 347.225406 
L 201.912584 347.30948 
L 204.528132 343.681959 
L 206.38393 347.225406 
z
" style="stroke:#000000;stroke-linecap:round;"/>
   </g>
   <g id="patch_50">
    <path clip-path="url(#p0a25fe8597)" d="M 191.895141 343.292567 
Q 186.678062 310.450936 181.636389 278.713494 
" style="fill:none;stroke:#000000;stroke-linecap:round;"/>
    <path clip-path="url(#p0a25fe8597)" d="M 180.28871 282.977736 
L 181.636389 278.713494 
L 184.239176 282.350182 
L 180.28871 282.977736 
z
" style="stroke:#000000;stroke-linecap:round;"/>
   </g>
   <g id="patch_51">
    <path clip-path="url(#p0a25fe8597)" d="M 328.254244 236.944155 
Q 289.949246 220.718708 252.673733 204.929335 
" style="fill:none;stroke:#000000;stroke-linecap:round;"/>
    <path clip-path="url(#p0a25fe8597)" d="M 255.576855 208.331083 
L 252.673733 204.929335 
L 257.137004 204.647886 
L 255.576855 208.331083 
z
" style="stroke:#000000;stroke-linecap:round;"/>
   </g>
   <g id="patch_52">
    <path clip-path="url(#p0a25fe8597)" d="M 327.882808 237.999948 
Q 281.991364 225.232013 237.177042 212.763757 
" style="fill:none;stroke:#000000;stroke-linecap:round;"/>
    <path clip-path="url(#p0a25fe8597)" d="M 240.494594 215.762731 
L 237.177042 212.763757 
L 241.566753 211.9091 
L 240.494594 215.762731 
z
" style="stroke:#000000;stroke-linecap:round;"/>
   </g>
   <g id="patch_53">
    <path clip-path="url(#p0a25fe8597)" d="M 344.891094 240.198013 
Q 411.526589 239.245844 477.044165 238.309649 
" style="fill:none;stroke:#000000;stroke-linecap:round;"/>
    <path clip-path="url(#p0a25fe8597)" d="M 473.015998 236.367004 
L 477.044165 238.309649 
L 473.073149 240.366596 
L 473.015998 236.367004 
z
" style="stroke:#000000;stroke-linecap:round;"/>
   </g>
   <g id="patch_54">
    <path clip-path="url(#p0a25fe8597)" d="M 333.621729 248.582035 
Q 329.302583 262.270065 325.319871 274.891882 
" style="fill:none;stroke:#000000;stroke-linecap:round;"/>
    <path clip-path="url(#p0a25fe8597)" d="M 328.430839 271.679114 
L 325.319871 274.891882 
L 324.616237 270.475447 
L 328.430839 271.679114 
z
" style="stroke:#000000;stroke-linecap:round;"/>
   </g>
   <g id="patch_55">
    <path clip-path="url(#p0a25fe8597)" d="M 512.861693 419.206922 
Q 452.150857 441.78569 392.48793 463.974733 
" style="fill:none;stroke:#000000;stroke-linecap:round;"/>
    <path clip-path="url(#p0a25fe8597)" d="M 396.934207 464.454969 
L 392.48793 463.974733 
L 395.539885 460.705854 
L 396.934207 464.454969 
z
" style="stroke:#000000;stroke-linecap:round;"/>
   </g>
   <g id="patch_56">
    <path clip-path="url(#p0a25fe8597)" d="M 537.28549 222.805739 
Q 510.46383 207.921208 484.61976 193.579185 
" style="fill:none;stroke:#000000;stroke-linecap:round;"/>
    <path clip-path="url(#p0a25fe8597)" d="M 487.146827 197.268891 
L 484.61976 193.579185 
L 489.087766 193.771355 
L 487.146827 197.268891 
z
" style="stroke:#000000;stroke-linecap:round;"/>
   </g>
   <g id="patch_57">
    <path clip-path="url(#p0a25fe8597)" d="M 553.012109 229.914059 
Q 632.174686 258.131728 710.284133 285.974007 
" style="fill:none;stroke:#000000;stroke-linecap:round;"/>
    <path clip-path="url(#p0a25fe8597)" d="M 707.18786 282.747074 
L 710.284133 285.974007 
L 705.844823 286.514865 
L 707.18786 282.747074 
z
" style="stroke:#000000;stroke-linecap:round;"/>
   </g>
   <g id="patch_58">
    <path clip-path="url(#p0a25fe8597)" d="M 504.089857 252.933478 
Q 491.814271 224.852665 479.986514 197.796278 
" style="fill:none;stroke:#000000;stroke-linecap:round;"/>
    <path clip-path="url(#p0a25fe8597)" d="M 479.75617 202.262478 
L 479.986514 197.796278 
L 483.421268 200.660273 
L 479.75617 202.262478 
z
" style="stroke:#000000;stroke-linecap:round;"/>
   </g>
   <g id="patch_59">
    <path clip-path="url(#p0a25fe8597)" d="M 516.145062 262.019588 
Q 613.526829 275.063279 709.800459 287.958541 
" style="fill:none;stroke:#000000;stroke-linecap:round;"/>
    <path clip-path="url(#p0a25fe8597)" d="M 706.101381 285.445211 
L 709.800459 287.958541 
L 705.570348 289.409805 
L 706.101381 285.445211 
z
" style="stroke:#000000;stroke-linecap:round;"/>
   </g>
   <g id="patch_60">
    <path clip-path="url(#p0a25fe8597)" d="M 479.537784 196.769793 
Q 491.813371 224.850606 503.641127 251.906993 
" style="fill:none;stroke:#000000;stroke-linecap:round;"/>
    <path clip-path="url(#p0a25fe8597)" d="M 503.871471 247.440793 
L 503.641127 251.906993 
L 500.206374 249.042999 
L 503.871471 247.440793 
z
" style="stroke:#000000;stroke-linecap:round;"/>
   </g>
   <g id="patch_61">
    <path clip-path="url(#p0a25fe8597)" d="M 544.263671 186.793071 
Q 464.230687 156.81494 385.244698 127.228984 
" style="fill:none;stroke:#000000;stroke-linecap:round;"/>
    <path clip-path="url(#p0a25fe8597)" d="M 388.288997 130.504994 
L 385.244698 127.228984 
L 389.692086 126.759151 
L 388.288997 130.504994 
z
" style="stroke:#000000;stroke-linecap:round;"/>
   </g>
   <g id="patch_62">
    <path clip-path="url(#p0a25fe8597)" d="M 543.715903 189.717768 
Q 514.221326 189.332317 485.844688 188.961476 
" style="fill:none;stroke:#000000;stroke-linecap:round;"/>
    <path clip-path="url(#p0a25fe8597)" d="M 489.818212 191.013575 
L 485.844688 188.961476 
L 489.870481 187.013917 
L 489.818212 191.013575 
z
" style="stroke:#000000;stroke-linecap:round;"/>
   </g>
   <g id="patch_63">
    <path clip-path="url(#p0a25fe8597)" d="M 559.817447 194.259391 
Q 635.934116 239.543991 711.089941 284.256949 
" style="fill:none;stroke:#000000;stroke-linecap:round;"/>
    <path clip-path="url(#p0a25fe8597)" d="M 708.674899 280.492965 
L 711.089941 284.256949 
L 706.629729 283.930592 
L 708.674899 280.492965 
z
" style="stroke:#000000;stroke-linecap:round;"/>
   </g>
   <g id="patch_64">
    <path clip-path="url(#p0a25fe8597)" d="M 166.768297 305.873087 
Q 169.442356 271.026467 172.03087 237.294604 
" style="fill:none;stroke:#000000;stroke-linecap:round;"/>
    <path clip-path="url(#p0a25fe8597)" d="M 169.730681 241.129852 
L 172.03087 237.294604 
L 173.718955 241.435904 
L 169.730681 241.129852 
z
" style="stroke:#000000;stroke-linecap:round;"/>
   </g>
   <g id="patch_65">
    <path clip-path="url(#p0a25fe8597)" d="M 504.099342 314.826223 
Q 539.548755 380.017443 574.464066 444.226454 
" style="fill:none;stroke:#000000;stroke-linecap:round;"/>
    <path clip-path="url(#p0a25fe8597)" d="M 574.310235 439.756964 
L 574.464066 444.226454 
L 570.796176 441.667825 
L 574.310235 439.756964 
z
" style="stroke:#000000;stroke-linecap:round;"/>
   </g>
   <g id="patch_66">
    <path clip-path="url(#p0a25fe8597)" d="M 579.01119 347.8434 
Q 558.216479 400.793621 537.830458 452.703182 
" style="fill:none;stroke:#000000;stroke-linecap:round;"/>
    <path clip-path="url(#p0a25fe8597)" d="M 541.15422 449.711091 
L 537.830458 452.703182 
L 537.431042 448.248918 
L 541.15422 449.711091 
z
" style="stroke:#000000;stroke-linecap:round;"/>
   </g>
   <g id="patch_67">
    <path clip-path="url(#p0a25fe8597)" d="M 436.314265 356.327763 
Q 385.65859 405.172025 335.807743 453.240239 
" style="fill:none;stroke:#000000;stroke-linecap:round;"/>
    <path clip-path="url(#p0a25fe8597)" d="M 340.075423 451.903485 
L 335.807743 453.240239 
L 337.298948 449.024043 
L 340.075423 451.903485 
z
" style="stroke:#000000;stroke-linecap:round;"/>
   </g>
   <g id="patch_68">
    <path clip-path="url(#p0a25fe8597)" d="M 451.13823 351.418268 
Q 553.688709 364.55065 655.130211 377.541018 
" style="fill:none;stroke:#000000;stroke-linecap:round;"/>
    <path clip-path="url(#p0a25fe8597)" d="M 651.416651 375.049136 
L 655.130211 377.541018 
L 650.908569 379.016736 
L 651.416651 375.049136 
z
" style="stroke:#000000;stroke-linecap:round;"/>
   </g>
   <g id="patch_69">
    <path clip-path="url(#p0a25fe8597)" d="M 445.711719 358.379015 
Q 464.035977 405.050682 481.951635 450.681653 
" style="fill:none;stroke:#000000;stroke-linecap:round;"/>
    <path clip-path="url(#p0a25fe8597)" d="M 482.351441 446.227424 
L 481.951635 450.681653 
L 478.628136 447.68927 
L 482.351441 446.227424 
z
" style="stroke:#000000;stroke-linecap:round;"/>
   </g>
   <g id="patch_70">
    <path clip-path="url(#p0a25fe8597)" d="M 436.848929 343.795697 
Q 350.616066 245.085071 265.118762 147.216438 
" style="fill:none;stroke:#000000;stroke-linecap:round;"/>
    <path clip-path="url(#p0a25fe8597)" d="M 266.244175 151.544653 
L 265.118762 147.216438 
L 269.256582 148.913037 
L 266.244175 151.544653 
z
" style="stroke:#000000;stroke-linecap:round;"/>
   </g>
   <g id="patch_71">
    <path clip-path="url(#p0a25fe8597)" d="M 450.349668 354.079762 
Q 529.782596 392.373763 608.208414 430.182245 
" style="fill:none;stroke:#000000;stroke-linecap:round;"/>
    <path clip-path="url(#p0a25fe8597)" d="M 605.473792 426.643623 
L 608.208414 430.182245 
L 603.736743 430.246769 
L 605.473792 426.643623 
z
" style="stroke:#000000;stroke-linecap:round;"/>
   </g>
   <g id="patch_72">
    <path clip-path="url(#p0a25fe8597)" d="M 174.67835 245.130871 
Q 183.714641 214.408591 192.435451 184.758911 
" style="fill:none;stroke:#000000;stroke-linecap:round;"/>
    <path clip-path="url(#p0a25fe8597)" d="M 189.388023 188.03201 
L 192.435451 184.758911 
L 193.225474 189.160713 
L 189.388023 188.03201 
z
" style="stroke:#000000;stroke-linecap:round;"/>
   </g>
   <g id="PathCollection_1">
    <defs>
     <path d="M 0 8.660254 
C 2.296726 8.660254 4.499694 7.747755 6.123724 6.123724 
C 7.747755 4.499694 8.660254 2.296726 8.660254 -0 
C 8.660254 -2.296726 7.747755 -4.499694 6.123724 -6.123724 
C 4.499694 -7.747755 2.296726 -8.660254 0 -8.660254 
C -2.296726 -8.660254 -4.499694 -7.747755 -6.123724 -6.123724 
C -7.747755 -4.499694 -8.660254 -2.296726 -8.660254 0 
C -8.660254 2.296726 -7.747755 4.499694 -6.123724 6.123724 
C -4.499694 7.747755 -2.296726 8.660254 0 8.660254 
z
" id="C0_0_345a7e6370"/>
    </defs>
    <g clip-path="url(#p0a25fe8597)">
     <use style="fill:#ff0000;stroke:#ff0000;" x="479.933523" xlink:href="#C0_0_345a7e6370" y="148.404199"/>
    </g>
    <g clip-path="url(#p0a25fe8597)">
     <use style="fill:#ff0000;stroke:#ff0000;" x="333.861965" xlink:href="#C0_0_345a7e6370" y="108.55502"/>
    </g>
    <g clip-path="url(#p0a25fe8597)">
     <use style="fill:#ff0000;stroke:#ff0000;" x="492.171823" xlink:href="#C0_0_345a7e6370" y="354.350612"/>
    </g>
    <g clip-path="url(#p0a25fe8597)">
     <use style="fill:#ff0000;stroke:#ff0000;" x="671.160538" xlink:href="#C0_0_345a7e6370" y="330.482386"/>
    </g>
    <g clip-path="url(#p0a25fe8597)">
     <use style="fill:#ff0000;stroke:#ff0000;" x="425.96025" xlink:href="#C0_0_345a7e6370" y="230.640686"/>
    </g>
    <g clip-path="url(#p0a25fe8597)">
     <use style="fill:#ff0000;stroke:#ff0000;" x="243.670655" xlink:href="#C0_0_345a7e6370" y="201.115761"/>
    </g>
    <g clip-path="url(#p0a25fe8597)">
     <use style="fill:#ff0000;stroke:#ff0000;" x="227.754909" xlink:href="#C0_0_345a7e6370" y="210.142328"/>
    </g>
    <g clip-path="url(#p0a25fe8597)">
     <use style="fill:#ff0000;stroke:#ff0000;" x="415.286595" xlink:href="#C0_0_345a7e6370" y="322.865558"/>
    </g>
    <g clip-path="url(#p0a25fe8597)">
     <use style="fill:#ff0000;stroke:#ff0000;" x="583.426495" xlink:href="#C0_0_345a7e6370" y="431.940151"/>
    </g>
    <g clip-path="url(#p0a25fe8597)">
     <use style="fill:#ff0000;stroke:#ff0000;" x="253.449323" xlink:href="#C0_0_345a7e6370" y="274.183321"/>
    </g>
    <g clip-path="url(#p0a25fe8597)">
     <use style="fill:#ff0000;stroke:#ff0000;" x="289.593785" xlink:href="#C0_0_345a7e6370" y="435.265165"/>
    </g>
    <g clip-path="url(#p0a25fe8597)">
     <use style="fill:#ff0000;stroke:#ff0000;" x="231.664468" xlink:href="#C0_0_345a7e6370" y="159.805244"/>
    </g>
    <g clip-path="url(#p0a25fe8597)">
     <use style="fill:#ff0000;stroke:#ff0000;" x="504.928436" xlink:href="#C0_0_345a7e6370" y="399.830763"/>
    </g>
    <g clip-path="url(#p0a25fe8597)">
     <use style="fill:#ff0000;stroke:#ff0000;" x="319.933643" xlink:href="#C0_0_345a7e6370" y="234.719734"/>
    </g>
    <g clip-path="url(#p0a25fe8597)">
     <use style="fill:#ff0000;stroke:#ff0000;" x="397.354422" xlink:href="#C0_0_345a7e6370" y="107.607273"/>
    </g>
    <g clip-path="url(#p0a25fe8597)">
     <use style="fill:#ff0000;stroke:#ff0000;" x="534.257251" xlink:href="#C0_0_345a7e6370" y="461.801749"/>
    </g>
    <g clip-path="url(#p0a25fe8597)">
     <use style="fill:#ff0000;stroke:#ff0000;" x="714.023468" xlink:href="#C0_0_345a7e6370" y="335.998691"/>
    </g>
    <g clip-path="url(#p0a25fe8597)">
     <use style="fill:#ff0000;stroke:#ff0000;" x="356.656856" xlink:href="#C0_0_345a7e6370" y="306.862923"/>
    </g>
    <g clip-path="url(#p0a25fe8597)">
     <use style="fill:#ff0000;stroke:#ff0000;" x="293.621515" xlink:href="#C0_0_345a7e6370" y="123.906515"/>
    </g>
    <g clip-path="url(#p0a25fe8597)">
     <use style="fill:#ff0000;stroke:#ff0000;" x="644.655498" xlink:href="#C0_0_345a7e6370" y="198.21627"/>
    </g>
    <g clip-path="url(#p0a25fe8597)">
     <use style="fill:#ff0000;stroke:#ff0000;" x="704.224983" xlink:href="#C0_0_345a7e6370" y="236.864343"/>
    </g>
    <g clip-path="url(#p0a25fe8597)">
     <use style="fill:#ff0000;stroke:#ff0000;" x="573.126185" xlink:href="#C0_0_345a7e6370" y="126.488242"/>
    </g>
    <g clip-path="url(#p0a25fe8597)">
     <use style="fill:#ff0000;stroke:#ff0000;" x="598.43569" xlink:href="#C0_0_345a7e6370" y="201.7963"/>
    </g>
    <g clip-path="url(#p0a25fe8597)">
     <use style="fill:#ff0000;stroke:#ff0000;" x="551.586726" xlink:href="#C0_0_345a7e6370" y="109.776552"/>
    </g>
    <g clip-path="url(#p0a25fe8597)">
     <use style="fill:#ff0000;stroke:#ff0000;" x="642.442322" xlink:href="#C0_0_345a7e6370" y="170.024758"/>
    </g>
    <g clip-path="url(#p0a25fe8597)">
     <use style="fill:#ff0000;stroke:#ff0000;" x="684.392245" xlink:href="#C0_0_345a7e6370" y="225.900588"/>
    </g>
    <g clip-path="url(#p0a25fe8597)">
     <use style="fill:#ff0000;stroke:#ff0000;" x="595.420545" xlink:href="#C0_0_345a7e6370" y="239.567164"/>
    </g>
    <g clip-path="url(#p0a25fe8597)">
     <use style="fill:#ff0000;stroke:#ff0000;" x="650.28804" xlink:href="#C0_0_345a7e6370" y="152.382747"/>
    </g>
    <g clip-path="url(#p0a25fe8597)">
     <use style="fill:#ff0000;stroke:#ff0000;" x="444.516452" xlink:href="#C0_0_345a7e6370" y="334.163749"/>
    </g>
    <g clip-path="url(#p0a25fe8597)">
     <use style="fill:#ff0000;stroke:#ff0000;" x="673.861742" xlink:href="#C0_0_345a7e6370" y="213.335498"/>
    </g>
    <g clip-path="url(#p0a25fe8597)">
     <use style="fill:#ff0000;stroke:#ff0000;" x="545.47311" xlink:href="#C0_0_345a7e6370" y="249.671883"/>
    </g>
    <g clip-path="url(#p0a25fe8597)">
     <use style="fill:#ff0000;stroke:#ff0000;" x="589.396913" xlink:href="#C0_0_345a7e6370" y="134.153881"/>
    </g>
    <g clip-path="url(#p0a25fe8597)">
     <use style="fill:#ff0000;stroke:#ff0000;" x="198.157748" xlink:href="#C0_0_345a7e6370" y="206.069033"/>
    </g>
    <g clip-path="url(#p0a25fe8597)">
     <use style="fill:#ff0000;stroke:#ff0000;" x="180.102822" xlink:href="#C0_0_345a7e6370" y="269.059652"/>
    </g>
    <g clip-path="url(#p0a25fe8597)">
     <use style="fill:#ff0000;stroke:#ff0000;" x="311.539753" xlink:href="#C0_0_345a7e6370" y="269.936444"/>
    </g>
    <g clip-path="url(#p0a25fe8597)">
     <use style="fill:#ff0000;stroke:#ff0000;" x="486.820433" xlink:href="#C0_0_345a7e6370" y="238.169954"/>
    </g>
    <g clip-path="url(#p0a25fe8597)">
     <use style="fill:#ff0000;stroke:#ff0000;" x="322.376711" xlink:href="#C0_0_345a7e6370" y="284.219202"/>
    </g>
    <g clip-path="url(#p0a25fe8597)">
     <use style="fill:#ff0000;stroke:#ff0000;" x="193.253647" xlink:href="#C0_0_345a7e6370" y="351.844397"/>
    </g>
    <g clip-path="url(#p0a25fe8597)">
     <use style="fill:#ff0000;stroke:#ff0000;" x="336.228179" xlink:href="#C0_0_345a7e6370" y="240.3218"/>
    </g>
    <g clip-path="url(#p0a25fe8597)">
     <use style="fill:#ff0000;stroke:#ff0000;" x="520.982207" xlink:href="#C0_0_345a7e6370" y="416.186848"/>
    </g>
    <g clip-path="url(#p0a25fe8597)">
     <use style="fill:#ff0000;stroke:#ff0000;" x="383.324159" xlink:href="#C0_0_345a7e6370" y="467.382801"/>
    </g>
    <g clip-path="url(#p0a25fe8597)">
     <use style="fill:#ff0000;stroke:#ff0000;" x="544.855219" xlink:href="#C0_0_345a7e6370" y="227.006518"/>
    </g>
    <g clip-path="url(#p0a25fe8597)">
     <use style="fill:#ff0000;stroke:#ff0000;" x="507.55913" xlink:href="#C0_0_345a7e6370" y="260.869555"/>
    </g>
    <g clip-path="url(#p0a25fe8597)">
     <use style="fill:#ff0000;stroke:#ff0000;" x="476.068511" xlink:href="#C0_0_345a7e6370" y="188.833716"/>
    </g>
    <g clip-path="url(#p0a25fe8597)">
     <use style="fill:#ff0000;stroke:#ff0000;" x="376.085983" xlink:href="#C0_0_345a7e6370" y="123.798384"/>
    </g>
    <g clip-path="url(#p0a25fe8597)">
     <use style="fill:#ff0000;stroke:#ff0000;" x="552.373837" xlink:href="#C0_0_345a7e6370" y="189.830915"/>
    </g>
    <g clip-path="url(#p0a25fe8597)">
     <use style="fill:#ff0000;stroke:#ff0000;" x="719.494215" xlink:href="#C0_0_345a7e6370" y="289.25696"/>
    </g>
    <g clip-path="url(#p0a25fe8597)">
     <use style="fill:#ff0000;stroke:#ff0000;" x="451.832259" xlink:href="#C0_0_345a7e6370" y="474.152727"/>
    </g>
    <g clip-path="url(#p0a25fe8597)">
     <use style="fill:#ff0000;stroke:#ff0000;" x="172.77938" xlink:href="#C0_0_345a7e6370" y="227.540506"/>
    </g>
    <g clip-path="url(#p0a25fe8597)">
     <use style="fill:#ff0000;stroke:#ff0000;" x="579.136089" xlink:href="#C0_0_345a7e6370" y="452.818271"/>
    </g>
    <g clip-path="url(#p0a25fe8597)">
     <use style="fill:#ff0000;stroke:#ff0000;" x="166.105785" xlink:href="#C0_0_345a7e6370" y="314.506523"/>
    </g>
    <g clip-path="url(#p0a25fe8597)">
     <use style="fill:#ff0000;stroke:#ff0000;" x="499.961575" xlink:href="#C0_0_345a7e6370" y="307.216898"/>
    </g>
    <g clip-path="url(#p0a25fe8597)">
     <use style="fill:#ff0000;stroke:#ff0000;" x="582.177294" xlink:href="#C0_0_345a7e6370" y="339.781451"/>
    </g>
    <g clip-path="url(#p0a25fe8597)">
     <use style="fill:#ff0000;stroke:#ff0000;" x="442.546828" xlink:href="#C0_0_345a7e6370" y="350.318073"/>
    </g>
    <g clip-path="url(#p0a25fe8597)">
     <use style="fill:#ff0000;stroke:#ff0000;" x="172.235987" xlink:href="#C0_0_345a7e6370" y="253.434605"/>
    </g>
    <g clip-path="url(#p0a25fe8597)">
     <use style="fill:#ff0000;stroke:#ff0000;" x="195.193919" xlink:href="#C0_0_345a7e6370" y="175.38046"/>
    </g>
    <g clip-path="url(#p0a25fe8597)">
     <use style="fill:#ff0000;stroke:#ff0000;" x="328.77044" xlink:href="#C0_0_345a7e6370" y="460.025892"/>
    </g>
    <g clip-path="url(#p0a25fe8597)">
     <use style="fill:#ff0000;stroke:#ff0000;" x="664.831119" xlink:href="#C0_0_345a7e6370" y="378.783294"/>
    </g>
    <g clip-path="url(#p0a25fe8597)">
     <use style="fill:#ff0000;stroke:#ff0000;" x="485.525349" xlink:href="#C0_0_345a7e6370" y="459.78386"/>
    </g>
    <g clip-path="url(#p0a25fe8597)">
     <use style="fill:#ff0000;stroke:#ff0000;" x="258.6879" xlink:href="#C0_0_345a7e6370" y="139.85504"/>
    </g>
    <g clip-path="url(#p0a25fe8597)">
     <use style="fill:#ff0000;stroke:#ff0000;" x="617.015258" xlink:href="#C0_0_345a7e6370" y="434.427956"/>
    </g>
   </g>
   <g id="text_1">
    <g clip-path="url(#p0a25fe8597)">
     <!-- ALCAM -->
     <g transform="translate(459.015085 151.715449)scale(0.12 -0.12)">
      <defs>
       <path d="M 34.1875 63.1875 
L 20.796875 26.90625 
L 47.609375 26.90625 
z
M 28.609375 72.90625 
L 39.796875 72.90625 
L 67.578125 0 
L 57.328125 0 
L 50.6875 18.703125 
L 17.828125 18.703125 
L 11.1875 0 
L 0.78125 0 
z
" id="DejaVuSans-65"/>
       <path d="M 9.8125 72.90625 
L 19.671875 72.90625 
L 19.671875 8.296875 
L 55.171875 8.296875 
L 55.171875 0 
L 9.8125 0 
z
" id="DejaVuSans-76"/>
       <path d="M 64.40625 67.28125 
L 64.40625 56.890625 
Q 59.421875 61.53125 53.78125 63.8125 
Q 48.140625 66.109375 41.796875 66.109375 
Q 29.296875 66.109375 22.65625 58.46875 
Q 16.015625 50.828125 16.015625 36.375 
Q 16.015625 21.96875 22.65625 14.328125 
Q 29.296875 6.6875 41.796875 6.6875 
Q 48.140625 6.6875 53.78125 8.984375 
Q 59.421875 11.28125 64.40625 15.921875 
L 64.40625 5.609375 
Q 59.234375 2.09375 53.4375 0.328125 
Q 47.65625 -1.421875 41.21875 -1.421875 
Q 24.65625 -1.421875 15.125 8.703125 
Q 5.609375 18.84375 5.609375 36.375 
Q 5.609375 53.953125 15.125 64.078125 
Q 24.65625 74.21875 41.21875 74.21875 
Q 47.75 74.21875 53.53125 72.484375 
Q 59.328125 70.75 64.40625 67.28125 
z
" id="DejaVuSans-67"/>
       <path d="M 9.8125 72.90625 
L 24.515625 72.90625 
L 43.109375 23.296875 
L 61.8125 72.90625 
L 76.515625 72.90625 
L 76.515625 0 
L 66.890625 0 
L 66.890625 64.015625 
L 48.09375 14.015625 
L 38.1875 14.015625 
L 19.390625 64.015625 
L 19.390625 0 
L 9.8125 0 
z
" id="DejaVuSans-77"/>
      </defs>
      <use xlink:href="#DejaVuSans-65"/>
      <use x="68.408203" xlink:href="#DejaVuSans-76"/>
      <use x="124.121094" xlink:href="#DejaVuSans-67"/>
      <use x="193.945312" xlink:href="#DejaVuSans-65"/>
      <use x="262.353516" xlink:href="#DejaVuSans-77"/>
     </g>
    </g>
   </g>
   <g id="text_2">
    <g clip-path="url(#p0a25fe8597)">
     <!-- CD6 -->
     <g transform="translate(321.234778 111.86627)scale(0.12 -0.12)">
      <defs>
       <path d="M 19.671875 64.796875 
L 19.671875 8.109375 
L 31.59375 8.109375 
Q 46.6875 8.109375 53.6875 14.9375 
Q 60.6875 21.78125 60.6875 36.53125 
Q 60.6875 51.171875 53.6875 57.984375 
Q 46.6875 64.796875 31.59375 64.796875 
z
M 9.8125 72.90625 
L 30.078125 72.90625 
Q 51.265625 72.90625 61.171875 64.09375 
Q 71.09375 55.28125 71.09375 36.53125 
Q 71.09375 17.671875 61.125 8.828125 
Q 51.171875 0 30.078125 0 
L 9.8125 0 
z
" id="DejaVuSans-68"/>
       <path d="M 33.015625 40.375 
Q 26.375 40.375 22.484375 35.828125 
Q 18.609375 31.296875 18.609375 23.390625 
Q 18.609375 15.53125 22.484375 10.953125 
Q 26.375 6.390625 33.015625 6.390625 
Q 39.65625 6.390625 43.53125 10.953125 
Q 47.40625 15.53125 47.40625 23.390625 
Q 47.40625 31.296875 43.53125 35.828125 
Q 39.65625 40.375 33.015625 40.375 
z
M 52.59375 71.296875 
L 52.59375 62.3125 
Q 48.875 64.0625 45.09375 64.984375 
Q 41.3125 65.921875 37.59375 65.921875 
Q 27.828125 65.921875 22.671875 59.328125 
Q 17.53125 52.734375 16.796875 39.40625 
Q 19.671875 43.65625 24.015625 45.921875 
Q 28.375 48.1875 33.59375 48.1875 
Q 44.578125 48.1875 50.953125 41.515625 
Q 57.328125 34.859375 57.328125 23.390625 
Q 57.328125 12.15625 50.6875 5.359375 
Q 44.046875 -1.421875 33.015625 -1.421875 
Q 20.359375 -1.421875 13.671875 8.265625 
Q 6.984375 17.96875 6.984375 36.375 
Q 6.984375 53.65625 15.1875 63.9375 
Q 23.390625 74.21875 37.203125 74.21875 
Q 40.921875 74.21875 44.703125 73.484375 
Q 48.484375 72.75 52.59375 71.296875 
z
" id="DejaVuSans-54"/>
      </defs>
      <use xlink:href="#DejaVuSans-67"/>
      <use x="69.824219" xlink:href="#DejaVuSans-68"/>
      <use x="146.826172" xlink:href="#DejaVuSans-54"/>
     </g>
    </g>
   </g>
   <g id="text_3">
    <g clip-path="url(#p0a25fe8597)">
     <!-- PTPRC -->
     <g transform="translate(473.21276 357.661862)scale(0.12 -0.12)">
      <defs>
       <path d="M 19.671875 64.796875 
L 19.671875 37.40625 
L 32.078125 37.40625 
Q 38.96875 37.40625 42.71875 40.96875 
Q 46.484375 44.53125 46.484375 51.125 
Q 46.484375 57.671875 42.71875 61.234375 
Q 38.96875 64.796875 32.078125 64.796875 
z
M 9.8125 72.90625 
L 32.078125 72.90625 
Q 44.34375 72.90625 50.609375 67.359375 
Q 56.890625 61.8125 56.890625 51.125 
Q 56.890625 40.328125 50.609375 34.8125 
Q 44.34375 29.296875 32.078125 29.296875 
L 19.671875 29.296875 
L 19.671875 0 
L 9.8125 0 
z
" id="DejaVuSans-80"/>
       <path d="M -0.296875 72.90625 
L 61.375 72.90625 
L 61.375 64.59375 
L 35.5 64.59375 
L 35.5 0 
L 25.59375 0 
L 25.59375 64.59375 
L -0.296875 64.59375 
z
" id="DejaVuSans-84"/>
       <path d="M 44.390625 34.1875 
Q 47.5625 33.109375 50.5625 29.59375 
Q 53.5625 26.078125 56.59375 19.921875 
L 66.609375 0 
L 56 0 
L 46.6875 18.703125 
Q 43.0625 26.03125 39.671875 28.421875 
Q 36.28125 30.8125 30.421875 30.8125 
L 19.671875 30.8125 
L 19.671875 0 
L 9.8125 0 
L 9.8125 72.90625 
L 32.078125 72.90625 
Q 44.578125 72.90625 50.734375 67.671875 
Q 56.890625 62.453125 56.890625 51.90625 
Q 56.890625 45.015625 53.6875 40.46875 
Q 50.484375 35.9375 44.390625 34.1875 
z
M 19.671875 64.796875 
L 19.671875 38.921875 
L 32.078125 38.921875 
Q 39.203125 38.921875 42.84375 42.21875 
Q 46.484375 45.515625 46.484375 51.90625 
Q 46.484375 58.296875 42.84375 61.546875 
Q 39.203125 64.796875 32.078125 64.796875 
z
" id="DejaVuSans-82"/>
      </defs>
      <use xlink:href="#DejaVuSans-80"/>
      <use x="60.302734" xlink:href="#DejaVuSans-84"/>
      <use x="121.386719" xlink:href="#DejaVuSans-80"/>
      <use x="181.689453" xlink:href="#DejaVuSans-82"/>
      <use x="246.171875" xlink:href="#DejaVuSans-67"/>
     </g>
    </g>
   </g>
   <g id="text_4">
    <g clip-path="url(#p0a25fe8597)">
     <!-- CD22 -->
     <g transform="translate(654.715851 333.793636)scale(0.12 -0.12)">
      <defs>
       <path d="M 19.1875 8.296875 
L 53.609375 8.296875 
L 53.609375 0 
L 7.328125 0 
L 7.328125 8.296875 
Q 12.9375 14.109375 22.625 23.890625 
Q 32.328125 33.6875 34.8125 36.53125 
Q 39.546875 41.84375 41.421875 45.53125 
Q 43.3125 49.21875 43.3125 52.78125 
Q 43.3125 58.59375 39.234375 62.25 
Q 35.15625 65.921875 28.609375 65.921875 
Q 23.96875 65.921875 18.8125 64.3125 
Q 13.671875 62.703125 7.8125 59.421875 
L 7.8125 69.390625 
Q 13.765625 71.78125 18.9375 73 
Q 24.125 74.21875 28.421875 74.21875 
Q 39.75 74.21875 46.484375 68.546875 
Q 53.21875 62.890625 53.21875 53.421875 
Q 53.21875 48.921875 51.53125 44.890625 
Q 49.859375 40.875 45.40625 35.40625 
Q 44.1875 33.984375 37.640625 27.21875 
Q 31.109375 20.453125 19.1875 8.296875 
z
" id="DejaVuSans-50"/>
      </defs>
      <use xlink:href="#DejaVuSans-67"/>
      <use x="69.824219" xlink:href="#DejaVuSans-68"/>
      <use x="146.826172" xlink:href="#DejaVuSans-50"/>
      <use x="210.449219" xlink:href="#DejaVuSans-50"/>
     </g>
    </g>
   </g>
   <g id="text_5">
    <g clip-path="url(#p0a25fe8597)">
     <!-- ITGB1 -->
     <g transform="translate(407.942437 233.951936)scale(0.12 -0.12)">
      <defs>
       <path d="M 9.8125 72.90625 
L 19.671875 72.90625 
L 19.671875 0 
L 9.8125 0 
z
" id="DejaVuSans-73"/>
       <path d="M 59.515625 10.40625 
L 59.515625 29.984375 
L 43.40625 29.984375 
L 43.40625 38.09375 
L 69.28125 38.09375 
L 69.28125 6.78125 
Q 63.578125 2.734375 56.6875 0.65625 
Q 49.8125 -1.421875 42 -1.421875 
Q 24.90625 -1.421875 15.25 8.5625 
Q 5.609375 18.5625 5.609375 36.375 
Q 5.609375 54.25 15.25 64.234375 
Q 24.90625 74.21875 42 74.21875 
Q 49.125 74.21875 55.546875 72.453125 
Q 61.96875 70.703125 67.390625 67.28125 
L 67.390625 56.78125 
Q 61.921875 61.421875 55.765625 63.765625 
Q 49.609375 66.109375 42.828125 66.109375 
Q 29.4375 66.109375 22.71875 58.640625 
Q 16.015625 51.171875 16.015625 36.375 
Q 16.015625 21.625 22.71875 14.15625 
Q 29.4375 6.6875 42.828125 6.6875 
Q 48.046875 6.6875 52.140625 7.59375 
Q 56.25 8.5 59.515625 10.40625 
z
" id="DejaVuSans-71"/>
       <path d="M 19.671875 34.8125 
L 19.671875 8.109375 
L 35.5 8.109375 
Q 43.453125 8.109375 47.28125 11.40625 
Q 51.125 14.703125 51.125 21.484375 
Q 51.125 28.328125 47.28125 31.5625 
Q 43.453125 34.8125 35.5 34.8125 
z
M 19.671875 64.796875 
L 19.671875 42.828125 
L 34.28125 42.828125 
Q 41.5 42.828125 45.03125 45.53125 
Q 48.578125 48.25 48.578125 53.8125 
Q 48.578125 59.328125 45.03125 62.0625 
Q 41.5 64.796875 34.28125 64.796875 
z
M 9.8125 72.90625 
L 35.015625 72.90625 
Q 46.296875 72.90625 52.390625 68.21875 
Q 58.5 63.53125 58.5 54.890625 
Q 58.5 48.1875 55.375 44.234375 
Q 52.25 40.28125 46.1875 39.3125 
Q 53.46875 37.75 57.5 32.78125 
Q 61.53125 27.828125 61.53125 20.40625 
Q 61.53125 10.640625 54.890625 5.3125 
Q 48.25 0 35.984375 0 
L 9.8125 0 
z
" id="DejaVuSans-66"/>
       <path d="M 12.40625 8.296875 
L 28.515625 8.296875 
L 28.515625 63.921875 
L 10.984375 60.40625 
L 10.984375 69.390625 
L 28.421875 72.90625 
L 38.28125 72.90625 
L 38.28125 8.296875 
L 54.390625 8.296875 
L 54.390625 0 
L 12.40625 0 
z
" id="DejaVuSans-49"/>
      </defs>
      <use xlink:href="#DejaVuSans-73"/>
      <use x="29.492188" xlink:href="#DejaVuSans-84"/>
      <use x="90.576172" xlink:href="#DejaVuSans-71"/>
      <use x="168.066406" xlink:href="#DejaVuSans-66"/>
      <use x="236.669922" xlink:href="#DejaVuSans-49"/>
     </g>
    </g>
   </g>
   <g id="text_6">
    <g clip-path="url(#p0a25fe8597)">
     <!-- ITGB2 -->
     <g transform="translate(225.652843 204.427011)scale(0.12 -0.12)">
      <use xlink:href="#DejaVuSans-73"/>
      <use x="29.492188" xlink:href="#DejaVuSans-84"/>
      <use x="90.576172" xlink:href="#DejaVuSans-71"/>
      <use x="168.066406" xlink:href="#DejaVuSans-66"/>
      <use x="236.669922" xlink:href="#DejaVuSans-50"/>
     </g>
    </g>
   </g>
   <g id="text_7">
    <g clip-path="url(#p0a25fe8597)">
     <!-- ITGAL -->
     <g transform="translate(210.223659 213.453578)scale(0.12 -0.12)">
      <use xlink:href="#DejaVuSans-73"/>
      <use x="29.492188" xlink:href="#DejaVuSans-84"/>
      <use x="90.576172" xlink:href="#DejaVuSans-71"/>
      <use x="168.066406" xlink:href="#DejaVuSans-65"/>
      <use x="236.474609" xlink:href="#DejaVuSans-76"/>
     </g>
    </g>
   </g>
   <g id="text_8">
    <g clip-path="url(#p0a25fe8597)">
     <!-- PVRL2 -->
     <g transform="translate(396.23472 326.176808)scale(0.12 -0.12)">
      <defs>
       <path d="M 28.609375 0 
L 0.78125 72.90625 
L 11.078125 72.90625 
L 34.1875 11.53125 
L 57.328125 72.90625 
L 67.578125 72.90625 
L 39.796875 0 
z
" id="DejaVuSans-86"/>
      </defs>
      <use xlink:href="#DejaVuSans-80"/>
      <use x="60.302734" xlink:href="#DejaVuSans-86"/>
      <use x="128.710938" xlink:href="#DejaVuSans-82"/>
      <use x="198.193359" xlink:href="#DejaVuSans-76"/>
      <use x="253.90625" xlink:href="#DejaVuSans-50"/>
     </g>
    </g>
   </g>
   <g id="text_9">
    <g clip-path="url(#p0a25fe8597)">
     <!-- PVRL3 -->
     <g transform="translate(564.37462 435.251401)scale(0.12 -0.12)">
      <defs>
       <path d="M 40.578125 39.3125 
Q 47.65625 37.796875 51.625 33 
Q 55.609375 28.21875 55.609375 21.1875 
Q 55.609375 10.40625 48.1875 4.484375 
Q 40.765625 -1.421875 27.09375 -1.421875 
Q 22.515625 -1.421875 17.65625 -0.515625 
Q 12.796875 0.390625 7.625 2.203125 
L 7.625 11.71875 
Q 11.71875 9.328125 16.59375 8.109375 
Q 21.484375 6.890625 26.8125 6.890625 
Q 36.078125 6.890625 40.9375 10.546875 
Q 45.796875 14.203125 45.796875 21.1875 
Q 45.796875 27.640625 41.28125 31.265625 
Q 36.765625 34.90625 28.71875 34.90625 
L 20.21875 34.90625 
L 20.21875 43.015625 
L 29.109375 43.015625 
Q 36.375 43.015625 40.234375 45.921875 
Q 44.09375 48.828125 44.09375 54.296875 
Q 44.09375 59.90625 40.109375 62.90625 
Q 36.140625 65.921875 28.71875 65.921875 
Q 24.65625 65.921875 20.015625 65.03125 
Q 15.375 64.15625 9.8125 62.3125 
L 9.8125 71.09375 
Q 15.4375 72.65625 20.34375 73.4375 
Q 25.25 74.21875 29.59375 74.21875 
Q 40.828125 74.21875 47.359375 69.109375 
Q 53.90625 64.015625 53.90625 55.328125 
Q 53.90625 49.265625 50.4375 45.09375 
Q 46.96875 40.921875 40.578125 39.3125 
z
" id="DejaVuSans-51"/>
      </defs>
      <use xlink:href="#DejaVuSans-80"/>
      <use x="60.302734" xlink:href="#DejaVuSans-86"/>
      <use x="128.710938" xlink:href="#DejaVuSans-82"/>
      <use x="198.193359" xlink:href="#DejaVuSans-76"/>
      <use x="253.90625" xlink:href="#DejaVuSans-51"/>
     </g>
    </g>
   </g>
   <g id="text_10">
    <g clip-path="url(#p0a25fe8597)">
     <!-- NFASC -->
     <g transform="translate(233.954011 277.494571)scale(0.12 -0.12)">
      <defs>
       <path d="M 9.8125 72.90625 
L 23.09375 72.90625 
L 55.421875 11.921875 
L 55.421875 72.90625 
L 64.984375 72.90625 
L 64.984375 0 
L 51.703125 0 
L 19.390625 60.984375 
L 19.390625 0 
L 9.8125 0 
z
" id="DejaVuSans-78"/>
       <path d="M 9.8125 72.90625 
L 51.703125 72.90625 
L 51.703125 64.59375 
L 19.671875 64.59375 
L 19.671875 43.109375 
L 48.578125 43.109375 
L 48.578125 34.8125 
L 19.671875 34.8125 
L 19.671875 0 
L 9.8125 0 
z
" id="DejaVuSans-70"/>
       <path d="M 53.515625 70.515625 
L 53.515625 60.890625 
Q 47.90625 63.578125 42.921875 64.890625 
Q 37.9375 66.21875 33.296875 66.21875 
Q 25.25 66.21875 20.875 63.09375 
Q 16.5 59.96875 16.5 54.203125 
Q 16.5 49.359375 19.40625 46.890625 
Q 22.3125 44.4375 30.421875 42.921875 
L 36.375 41.703125 
Q 47.40625 39.59375 52.65625 34.296875 
Q 57.90625 29 57.90625 20.125 
Q 57.90625 9.515625 50.796875 4.046875 
Q 43.703125 -1.421875 29.984375 -1.421875 
Q 24.8125 -1.421875 18.96875 -0.25 
Q 13.140625 0.921875 6.890625 3.21875 
L 6.890625 13.375 
Q 12.890625 10.015625 18.65625 8.296875 
Q 24.421875 6.59375 29.984375 6.59375 
Q 38.421875 6.59375 43.015625 9.90625 
Q 47.609375 13.234375 47.609375 19.390625 
Q 47.609375 24.75 44.3125 27.78125 
Q 41.015625 30.8125 33.5 32.328125 
L 27.484375 33.5 
Q 16.453125 35.6875 11.515625 40.375 
Q 6.59375 45.0625 6.59375 53.421875 
Q 6.59375 63.09375 13.40625 68.65625 
Q 20.21875 74.21875 32.171875 74.21875 
Q 37.3125 74.21875 42.625 73.28125 
Q 47.953125 72.359375 53.515625 70.515625 
z
" id="DejaVuSans-83"/>
      </defs>
      <use xlink:href="#DejaVuSans-78"/>
      <use x="74.804688" xlink:href="#DejaVuSans-70"/>
      <use x="123.199219" xlink:href="#DejaVuSans-65"/>
      <use x="191.607422" xlink:href="#DejaVuSans-83"/>
      <use x="255.083984" xlink:href="#DejaVuSans-67"/>
     </g>
    </g>
   </g>
   <g id="text_11">
    <g clip-path="url(#p0a25fe8597)">
     <!-- CNTNAP2 -->
     <g transform="translate(261.222223 438.576415)scale(0.12 -0.12)">
      <use xlink:href="#DejaVuSans-67"/>
      <use x="69.824219" xlink:href="#DejaVuSans-78"/>
      <use x="144.628906" xlink:href="#DejaVuSans-84"/>
      <use x="205.712891" xlink:href="#DejaVuSans-78"/>
      <use x="280.517578" xlink:href="#DejaVuSans-65"/>
      <use x="348.925781" xlink:href="#DejaVuSans-80"/>
      <use x="409.228516" xlink:href="#DejaVuSans-50"/>
     </g>
    </g>
   </g>
   <g id="text_12">
    <g clip-path="url(#p0a25fe8597)">
     <!-- CNTNAP1 -->
     <g transform="translate(203.292905 163.116494)scale(0.12 -0.12)">
      <use xlink:href="#DejaVuSans-67"/>
      <use x="69.824219" xlink:href="#DejaVuSans-78"/>
      <use x="144.628906" xlink:href="#DejaVuSans-84"/>
      <use x="205.712891" xlink:href="#DejaVuSans-78"/>
      <use x="280.517578" xlink:href="#DejaVuSans-65"/>
      <use x="348.925781" xlink:href="#DejaVuSans-80"/>
      <use x="409.228516" xlink:href="#DejaVuSans-49"/>
     </g>
    </g>
   </g>
   <g id="text_13">
    <g clip-path="url(#p0a25fe8597)">
     <!-- CNTN2 -->
     <g transform="translate(484.279061 403.142013)scale(0.12 -0.12)">
      <use xlink:href="#DejaVuSans-67"/>
      <use x="69.824219" xlink:href="#DejaVuSans-78"/>
      <use x="144.628906" xlink:href="#DejaVuSans-84"/>
      <use x="205.712891" xlink:href="#DejaVuSans-78"/>
      <use x="280.517578" xlink:href="#DejaVuSans-50"/>
     </g>
    </g>
   </g>
   <g id="text_14">
    <g clip-path="url(#p0a25fe8597)">
     <!-- CNTN1 -->
     <g transform="translate(299.284268 238.030984)scale(0.12 -0.12)">
      <use xlink:href="#DejaVuSans-67"/>
      <use x="69.824219" xlink:href="#DejaVuSans-78"/>
      <use x="144.628906" xlink:href="#DejaVuSans-84"/>
      <use x="205.712891" xlink:href="#DejaVuSans-78"/>
      <use x="280.517578" xlink:href="#DejaVuSans-49"/>
     </g>
    </g>
   </g>
   <g id="text_15">
    <g clip-path="url(#p0a25fe8597)">
     <!-- NRCAM -->
     <g transform="translate(375.525672 110.918523)scale(0.12 -0.12)">
      <use xlink:href="#DejaVuSans-78"/>
      <use x="74.804688" xlink:href="#DejaVuSans-82"/>
      <use x="139.287109" xlink:href="#DejaVuSans-67"/>
      <use x="209.111328" xlink:href="#DejaVuSans-65"/>
      <use x="277.519531" xlink:href="#DejaVuSans-77"/>
     </g>
    </g>
   </g>
   <g id="text_16">
    <g clip-path="url(#p0a25fe8597)">
     <!-- PTPRF -->
     <g transform="translate(515.736939 465.112999)scale(0.12 -0.12)">
      <use xlink:href="#DejaVuSans-80"/>
      <use x="60.302734" xlink:href="#DejaVuSans-84"/>
      <use x="121.386719" xlink:href="#DejaVuSans-80"/>
      <use x="181.689453" xlink:href="#DejaVuSans-82"/>
      <use x="251.171875" xlink:href="#DejaVuSans-70"/>
     </g>
    </g>
   </g>
   <g id="text_17">
    <g clip-path="url(#p0a25fe8597)">
     <!-- L1CAM -->
     <g transform="translate(693.391906 339.309941)scale(0.12 -0.12)">
      <use xlink:href="#DejaVuSans-76"/>
      <use x="55.712891" xlink:href="#DejaVuSans-49"/>
      <use x="119.335938" xlink:href="#DejaVuSans-67"/>
      <use x="189.160156" xlink:href="#DejaVuSans-65"/>
      <use x="257.568359" xlink:href="#DejaVuSans-77"/>
     </g>
    </g>
   </g>
   <g id="text_18">
    <g clip-path="url(#p0a25fe8597)">
     <!-- PVR -->
     <g transform="translate(344.765606 310.174173)scale(0.12 -0.12)">
      <use xlink:href="#DejaVuSans-80"/>
      <use x="60.302734" xlink:href="#DejaVuSans-86"/>
      <use x="128.710938" xlink:href="#DejaVuSans-82"/>
     </g>
    </g>
   </g>
   <g id="text_19">
    <g clip-path="url(#p0a25fe8597)">
     <!-- CD226 -->
     <g transform="translate(273.359327 127.217765)scale(0.12 -0.12)">
      <use xlink:href="#DejaVuSans-67"/>
      <use x="69.824219" xlink:href="#DejaVuSans-68"/>
      <use x="146.826172" xlink:href="#DejaVuSans-50"/>
      <use x="210.449219" xlink:href="#DejaVuSans-50"/>
      <use x="274.072266" xlink:href="#DejaVuSans-54"/>
     </g>
    </g>
   </g>
   <g id="text_20">
    <g clip-path="url(#p0a25fe8597)">
     <!-- SELE -->
     <g transform="translate(629.92081 201.52752)scale(0.12 -0.12)">
      <defs>
       <path d="M 9.8125 72.90625 
L 55.90625 72.90625 
L 55.90625 64.59375 
L 19.671875 64.59375 
L 19.671875 43.015625 
L 54.390625 43.015625 
L 54.390625 34.71875 
L 19.671875 34.71875 
L 19.671875 8.296875 
L 56.78125 8.296875 
L 56.78125 0 
L 9.8125 0 
z
" id="DejaVuSans-69"/>
      </defs>
      <use xlink:href="#DejaVuSans-83"/>
      <use x="63.476562" xlink:href="#DejaVuSans-69"/>
      <use x="126.660156" xlink:href="#DejaVuSans-76"/>
      <use x="182.373047" xlink:href="#DejaVuSans-69"/>
     </g>
    </g>
   </g>
   <g id="text_21">
    <g clip-path="url(#p0a25fe8597)">
     <!-- GLG1 -->
     <g transform="translate(687.766233 240.175593)scale(0.12 -0.12)">
      <use xlink:href="#DejaVuSans-71"/>
      <use x="77.490234" xlink:href="#DejaVuSans-76"/>
      <use x="133.203125" xlink:href="#DejaVuSans-71"/>
      <use x="210.693359" xlink:href="#DejaVuSans-49"/>
     </g>
    </g>
   </g>
   <g id="text_22">
    <g clip-path="url(#p0a25fe8597)">
     <!-- SELP -->
     <g transform="translate(558.564935 129.799492)scale(0.12 -0.12)">
      <use xlink:href="#DejaVuSans-83"/>
      <use x="63.476562" xlink:href="#DejaVuSans-69"/>
      <use x="126.660156" xlink:href="#DejaVuSans-76"/>
      <use x="182.373047" xlink:href="#DejaVuSans-80"/>
     </g>
    </g>
   </g>
   <g id="text_23">
    <g clip-path="url(#p0a25fe8597)">
     <!-- SELPLG -->
     <g transform="translate(575.882252 205.10755)scale(0.12 -0.12)">
      <use xlink:href="#DejaVuSans-83"/>
      <use x="63.476562" xlink:href="#DejaVuSans-69"/>
      <use x="126.660156" xlink:href="#DejaVuSans-76"/>
      <use x="182.373047" xlink:href="#DejaVuSans-80"/>
      <use x="242.675781" xlink:href="#DejaVuSans-76"/>
      <use x="298.388672" xlink:href="#DejaVuSans-71"/>
     </g>
    </g>
   </g>
   <g id="text_24">
    <g clip-path="url(#p0a25fe8597)">
     <!-- CD34 -->
     <g transform="translate(535.142039 113.087802)scale(0.12 -0.12)">
      <defs>
       <path d="M 37.796875 64.3125 
L 12.890625 25.390625 
L 37.796875 25.390625 
z
M 35.203125 72.90625 
L 47.609375 72.90625 
L 47.609375 25.390625 
L 58.015625 25.390625 
L 58.015625 17.1875 
L 47.609375 17.1875 
L 47.609375 0 
L 37.796875 0 
L 37.796875 17.1875 
L 4.890625 17.1875 
L 4.890625 26.703125 
z
" id="DejaVuSans-52"/>
      </defs>
      <use xlink:href="#DejaVuSans-67"/>
      <use x="69.824219" xlink:href="#DejaVuSans-68"/>
      <use x="146.826172" xlink:href="#DejaVuSans-51"/>
      <use x="210.449219" xlink:href="#DejaVuSans-52"/>
     </g>
    </g>
   </g>
   <g id="text_25">
    <g clip-path="url(#p0a25fe8597)">
     <!-- SELL -->
     <g transform="translate(628.15576 173.336008)scale(0.12 -0.12)">
      <use xlink:href="#DejaVuSans-83"/>
      <use x="63.476562" xlink:href="#DejaVuSans-69"/>
      <use x="126.660156" xlink:href="#DejaVuSans-76"/>
      <use x="182.373047" xlink:href="#DejaVuSans-76"/>
     </g>
    </g>
   </g>
   <g id="text_26">
    <g clip-path="url(#p0a25fe8597)">
     <!-- MADCAM1 -->
     <g transform="translate(653.202558 229.211838)scale(0.12 -0.12)">
      <use xlink:href="#DejaVuSans-77"/>
      <use x="86.279297" xlink:href="#DejaVuSans-65"/>
      <use x="154.6875" xlink:href="#DejaVuSans-68"/>
      <use x="231.689453" xlink:href="#DejaVuSans-67"/>
      <use x="301.513672" xlink:href="#DejaVuSans-65"/>
      <use x="369.921875" xlink:href="#DejaVuSans-77"/>
      <use x="456.201172" xlink:href="#DejaVuSans-49"/>
     </g>
    </g>
   </g>
   <g id="text_27">
    <g clip-path="url(#p0a25fe8597)">
     <!-- VCAM1 -->
     <g transform="translate(574.027733 242.878414)scale(0.12 -0.12)">
      <use xlink:href="#DejaVuSans-86"/>
      <use x="68.408203" xlink:href="#DejaVuSans-67"/>
      <use x="138.232422" xlink:href="#DejaVuSans-65"/>
      <use x="206.640625" xlink:href="#DejaVuSans-77"/>
      <use x="292.919922" xlink:href="#DejaVuSans-49"/>
     </g>
    </g>
   </g>
   <g id="text_28">
    <g clip-path="url(#p0a25fe8597)">
     <!-- ITGB7 -->
     <g transform="translate(632.270227 155.693997)scale(0.12 -0.12)">
      <defs>
       <path d="M 8.203125 72.90625 
L 55.078125 72.90625 
L 55.078125 68.703125 
L 28.609375 0 
L 18.3125 0 
L 43.21875 64.59375 
L 8.203125 64.59375 
z
" id="DejaVuSans-55"/>
      </defs>
      <use xlink:href="#DejaVuSans-73"/>
      <use x="29.492188" xlink:href="#DejaVuSans-84"/>
      <use x="90.576172" xlink:href="#DejaVuSans-71"/>
      <use x="168.066406" xlink:href="#DejaVuSans-66"/>
      <use x="236.669922" xlink:href="#DejaVuSans-55"/>
     </g>
    </g>
   </g>
   <g id="text_29">
    <g clip-path="url(#p0a25fe8597)">
     <!-- ITGA9 -->
     <g transform="translate(426.510827 337.474999)scale(0.12 -0.12)">
      <defs>
       <path d="M 10.984375 1.515625 
L 10.984375 10.5 
Q 14.703125 8.734375 18.5 7.8125 
Q 22.3125 6.890625 25.984375 6.890625 
Q 35.75 6.890625 40.890625 13.453125 
Q 46.046875 20.015625 46.78125 33.40625 
Q 43.953125 29.203125 39.59375 26.953125 
Q 35.25 24.703125 29.984375 24.703125 
Q 19.046875 24.703125 12.671875 31.3125 
Q 6.296875 37.9375 6.296875 49.421875 
Q 6.296875 60.640625 12.9375 67.421875 
Q 19.578125 74.21875 30.609375 74.21875 
Q 43.265625 74.21875 49.921875 64.515625 
Q 56.59375 54.828125 56.59375 36.375 
Q 56.59375 19.140625 48.40625 8.859375 
Q 40.234375 -1.421875 26.421875 -1.421875 
Q 22.703125 -1.421875 18.890625 -0.6875 
Q 15.09375 0.046875 10.984375 1.515625 
z
M 30.609375 32.421875 
Q 37.25 32.421875 41.125 36.953125 
Q 45.015625 41.5 45.015625 49.421875 
Q 45.015625 57.28125 41.125 61.84375 
Q 37.25 66.40625 30.609375 66.40625 
Q 23.96875 66.40625 20.09375 61.84375 
Q 16.21875 57.28125 16.21875 49.421875 
Q 16.21875 41.5 20.09375 36.953125 
Q 23.96875 32.421875 30.609375 32.421875 
z
" id="DejaVuSans-57"/>
      </defs>
      <use xlink:href="#DejaVuSans-73"/>
      <use x="29.492188" xlink:href="#DejaVuSans-84"/>
      <use x="90.576172" xlink:href="#DejaVuSans-71"/>
      <use x="168.066406" xlink:href="#DejaVuSans-65"/>
      <use x="236.474609" xlink:href="#DejaVuSans-57"/>
     </g>
    </g>
   </g>
   <g id="text_30">
    <g clip-path="url(#p0a25fe8597)">
     <!-- ITGA4 -->
     <g transform="translate(655.856117 216.646748)scale(0.12 -0.12)">
      <use xlink:href="#DejaVuSans-73"/>
      <use x="29.492188" xlink:href="#DejaVuSans-84"/>
      <use x="90.576172" xlink:href="#DejaVuSans-71"/>
      <use x="168.066406" xlink:href="#DejaVuSans-65"/>
      <use x="236.474609" xlink:href="#DejaVuSans-52"/>
     </g>
    </g>
   </g>
   <g id="text_31">
    <g clip-path="url(#p0a25fe8597)">
     <!-- CD58 -->
     <g transform="translate(529.028423 252.983133)scale(0.12 -0.12)">
      <defs>
       <path d="M 10.796875 72.90625 
L 49.515625 72.90625 
L 49.515625 64.59375 
L 19.828125 64.59375 
L 19.828125 46.734375 
Q 21.96875 47.46875 24.109375 47.828125 
Q 26.265625 48.1875 28.421875 48.1875 
Q 40.625 48.1875 47.75 41.5 
Q 54.890625 34.8125 54.890625 23.390625 
Q 54.890625 11.625 47.5625 5.09375 
Q 40.234375 -1.421875 26.90625 -1.421875 
Q 22.3125 -1.421875 17.546875 -0.640625 
Q 12.796875 0.140625 7.71875 1.703125 
L 7.71875 11.625 
Q 12.109375 9.234375 16.796875 8.0625 
Q 21.484375 6.890625 26.703125 6.890625 
Q 35.15625 6.890625 40.078125 11.328125 
Q 45.015625 15.765625 45.015625 23.390625 
Q 45.015625 31 40.078125 35.4375 
Q 35.15625 39.890625 26.703125 39.890625 
Q 22.75 39.890625 18.8125 39.015625 
Q 14.890625 38.140625 10.796875 36.28125 
z
" id="DejaVuSans-53"/>
       <path d="M 31.78125 34.625 
Q 24.75 34.625 20.71875 30.859375 
Q 16.703125 27.09375 16.703125 20.515625 
Q 16.703125 13.921875 20.71875 10.15625 
Q 24.75 6.390625 31.78125 6.390625 
Q 38.8125 6.390625 42.859375 10.171875 
Q 46.921875 13.96875 46.921875 20.515625 
Q 46.921875 27.09375 42.890625 30.859375 
Q 38.875 34.625 31.78125 34.625 
z
M 21.921875 38.8125 
Q 15.578125 40.375 12.03125 44.71875 
Q 8.5 49.078125 8.5 55.328125 
Q 8.5 64.0625 14.71875 69.140625 
Q 20.953125 74.21875 31.78125 74.21875 
Q 42.671875 74.21875 48.875 69.140625 
Q 55.078125 64.0625 55.078125 55.328125 
Q 55.078125 49.078125 51.53125 44.71875 
Q 48 40.375 41.703125 38.8125 
Q 48.828125 37.15625 52.796875 32.3125 
Q 56.78125 27.484375 56.78125 20.515625 
Q 56.78125 9.90625 50.3125 4.234375 
Q 43.84375 -1.421875 31.78125 -1.421875 
Q 19.734375 -1.421875 13.25 4.234375 
Q 6.78125 9.90625 6.78125 20.515625 
Q 6.78125 27.484375 10.78125 32.3125 
Q 14.796875 37.15625 21.921875 38.8125 
z
M 18.3125 54.390625 
Q 18.3125 48.734375 21.84375 45.5625 
Q 25.390625 42.390625 31.78125 42.390625 
Q 38.140625 42.390625 41.71875 45.5625 
Q 45.3125 48.734375 45.3125 54.390625 
Q 45.3125 60.0625 41.71875 63.234375 
Q 38.140625 66.40625 31.78125 66.40625 
Q 25.390625 66.40625 21.84375 63.234375 
Q 18.3125 60.0625 18.3125 54.390625 
z
" id="DejaVuSans-56"/>
      </defs>
      <use xlink:href="#DejaVuSans-67"/>
      <use x="69.824219" xlink:href="#DejaVuSans-68"/>
      <use x="146.826172" xlink:href="#DejaVuSans-53"/>
      <use x="210.449219" xlink:href="#DejaVuSans-56"/>
     </g>
    </g>
   </g>
   <g id="text_32">
    <g clip-path="url(#p0a25fe8597)">
     <!-- CD2 -->
     <g transform="translate(576.769725 137.465131)scale(0.12 -0.12)">
      <use xlink:href="#DejaVuSans-67"/>
      <use x="69.824219" xlink:href="#DejaVuSans-68"/>
      <use x="146.826172" xlink:href="#DejaVuSans-50"/>
     </g>
    </g>
   </g>
   <g id="text_33">
    <g clip-path="url(#p0a25fe8597)">
     <!-- ICAM3 -->
     <g transform="translate(179.09931 209.380283)scale(0.12 -0.12)">
      <use xlink:href="#DejaVuSans-73"/>
      <use x="29.492188" xlink:href="#DejaVuSans-67"/>
      <use x="99.316406" xlink:href="#DejaVuSans-65"/>
      <use x="167.724609" xlink:href="#DejaVuSans-77"/>
      <use x="254.003906" xlink:href="#DejaVuSans-51"/>
     </g>
    </g>
   </g>
   <g id="text_34">
    <g clip-path="url(#p0a25fe8597)">
     <!-- ICAM1 -->
     <g transform="translate(161.044384 272.370902)scale(0.12 -0.12)">
      <use xlink:href="#DejaVuSans-73"/>
      <use x="29.492188" xlink:href="#DejaVuSans-67"/>
      <use x="99.316406" xlink:href="#DejaVuSans-65"/>
      <use x="167.724609" xlink:href="#DejaVuSans-77"/>
      <use x="254.003906" xlink:href="#DejaVuSans-49"/>
     </g>
    </g>
   </g>
   <g id="text_35">
    <g clip-path="url(#p0a25fe8597)">
     <!-- ICAM2 -->
     <g transform="translate(292.481316 273.247694)scale(0.12 -0.12)">
      <use xlink:href="#DejaVuSans-73"/>
      <use x="29.492188" xlink:href="#DejaVuSans-67"/>
      <use x="99.316406" xlink:href="#DejaVuSans-65"/>
      <use x="167.724609" xlink:href="#DejaVuSans-77"/>
      <use x="254.003906" xlink:href="#DejaVuSans-50"/>
     </g>
    </g>
   </g>
   <g id="text_36">
    <g clip-path="url(#p0a25fe8597)">
     <!-- JAM2 -->
     <g transform="translate(472.056683 241.481204)scale(0.12 -0.12)">
      <defs>
       <path d="M 9.8125 72.90625 
L 19.671875 72.90625 
L 19.671875 5.078125 
Q 19.671875 -8.109375 14.671875 -14.0625 
Q 9.671875 -20.015625 -1.421875 -20.015625 
L -5.171875 -20.015625 
L -5.171875 -11.71875 
L -2.09375 -11.71875 
Q 4.4375 -11.71875 7.125 -8.046875 
Q 9.8125 -4.390625 9.8125 5.078125 
z
" id="DejaVuSans-74"/>
      </defs>
      <use xlink:href="#DejaVuSans-74"/>
      <use x="27.742188" xlink:href="#DejaVuSans-65"/>
      <use x="96.150391" xlink:href="#DejaVuSans-77"/>
      <use x="182.429688" xlink:href="#DejaVuSans-50"/>
     </g>
    </g>
   </g>
   <g id="text_37">
    <g clip-path="url(#p0a25fe8597)">
     <!-- JAM3 -->
     <g transform="translate(307.612961 287.530452)scale(0.12 -0.12)">
      <use xlink:href="#DejaVuSans-74"/>
      <use x="27.742188" xlink:href="#DejaVuSans-65"/>
      <use x="96.150391" xlink:href="#DejaVuSans-77"/>
      <use x="182.429688" xlink:href="#DejaVuSans-51"/>
     </g>
    </g>
   </g>
   <g id="text_38">
    <g clip-path="url(#p0a25fe8597)">
     <!-- ITGAM -->
     <g transform="translate(173.888647 355.155647)scale(0.12 -0.12)">
      <use xlink:href="#DejaVuSans-73"/>
      <use x="29.492188" xlink:href="#DejaVuSans-84"/>
      <use x="90.576172" xlink:href="#DejaVuSans-71"/>
      <use x="168.066406" xlink:href="#DejaVuSans-65"/>
      <use x="236.474609" xlink:href="#DejaVuSans-77"/>
     </g>
    </g>
   </g>
   <g id="text_39">
    <g clip-path="url(#p0a25fe8597)">
     <!-- F11R -->
     <g transform="translate(320.973179 243.63305)scale(0.12 -0.12)">
      <use xlink:href="#DejaVuSans-70"/>
      <use x="57.519531" xlink:href="#DejaVuSans-49"/>
      <use x="121.142578" xlink:href="#DejaVuSans-49"/>
      <use x="184.765625" xlink:href="#DejaVuSans-82"/>
     </g>
    </g>
   </g>
   <g id="text_40">
    <g clip-path="url(#p0a25fe8597)">
     <!-- PDCD1LG2 -->
     <g transform="translate(488.30752 419.498098)scale(0.12 -0.12)">
      <use xlink:href="#DejaVuSans-80"/>
      <use x="60.302734" xlink:href="#DejaVuSans-68"/>
      <use x="137.304688" xlink:href="#DejaVuSans-67"/>
      <use x="207.128906" xlink:href="#DejaVuSans-68"/>
      <use x="284.130859" xlink:href="#DejaVuSans-49"/>
      <use x="347.753906" xlink:href="#DejaVuSans-76"/>
      <use x="403.466797" xlink:href="#DejaVuSans-71"/>
      <use x="480.957031" xlink:href="#DejaVuSans-50"/>
     </g>
    </g>
   </g>
   <g id="text_41">
    <g clip-path="url(#p0a25fe8597)">
     <!-- PDCD1 -->
     <g transform="translate(362.459159 470.694051)scale(0.12 -0.12)">
      <use xlink:href="#DejaVuSans-80"/>
      <use x="60.302734" xlink:href="#DejaVuSans-68"/>
      <use x="137.304688" xlink:href="#DejaVuSans-67"/>
      <use x="207.128906" xlink:href="#DejaVuSans-68"/>
      <use x="284.130859" xlink:href="#DejaVuSans-49"/>
     </g>
    </g>
   </g>
   <g id="text_42">
    <g clip-path="url(#p0a25fe8597)">
     <!-- CD86 -->
     <g transform="translate(528.410532 230.317768)scale(0.12 -0.12)">
      <use xlink:href="#DejaVuSans-67"/>
      <use x="69.824219" xlink:href="#DejaVuSans-68"/>
      <use x="146.826172" xlink:href="#DejaVuSans-56"/>
      <use x="210.449219" xlink:href="#DejaVuSans-54"/>
     </g>
    </g>
   </g>
   <g id="text_43">
    <g clip-path="url(#p0a25fe8597)">
     <!-- CD80 -->
     <g transform="translate(491.114443 264.180805)scale(0.12 -0.12)">
      <defs>
       <path d="M 31.78125 66.40625 
Q 24.171875 66.40625 20.328125 58.90625 
Q 16.5 51.421875 16.5 36.375 
Q 16.5 21.390625 20.328125 13.890625 
Q 24.171875 6.390625 31.78125 6.390625 
Q 39.453125 6.390625 43.28125 13.890625 
Q 47.125 21.390625 47.125 36.375 
Q 47.125 51.421875 43.28125 58.90625 
Q 39.453125 66.40625 31.78125 66.40625 
z
M 31.78125 74.21875 
Q 44.046875 74.21875 50.515625 64.515625 
Q 56.984375 54.828125 56.984375 36.375 
Q 56.984375 17.96875 50.515625 8.265625 
Q 44.046875 -1.421875 31.78125 -1.421875 
Q 19.53125 -1.421875 13.0625 8.265625 
Q 6.59375 17.96875 6.59375 36.375 
Q 6.59375 54.828125 13.0625 64.515625 
Q 19.53125 74.21875 31.78125 74.21875 
z
" id="DejaVuSans-48"/>
      </defs>
      <use xlink:href="#DejaVuSans-67"/>
      <use x="69.824219" xlink:href="#DejaVuSans-68"/>
      <use x="146.826172" xlink:href="#DejaVuSans-56"/>
      <use x="210.449219" xlink:href="#DejaVuSans-48"/>
     </g>
    </g>
   </g>
   <g id="text_44">
    <g clip-path="url(#p0a25fe8597)">
     <!-- CD28 -->
     <g transform="translate(459.623823 192.144966)scale(0.12 -0.12)">
      <use xlink:href="#DejaVuSans-67"/>
      <use x="69.824219" xlink:href="#DejaVuSans-68"/>
      <use x="146.826172" xlink:href="#DejaVuSans-50"/>
      <use x="210.449219" xlink:href="#DejaVuSans-56"/>
     </g>
    </g>
   </g>
   <g id="text_45">
    <g clip-path="url(#p0a25fe8597)">
     <!-- ICOS -->
     <g transform="translate(361.594108 127.109634)scale(0.12 -0.12)">
      <defs>
       <path d="M 39.40625 66.21875 
Q 28.65625 66.21875 22.328125 58.203125 
Q 16.015625 50.203125 16.015625 36.375 
Q 16.015625 22.609375 22.328125 14.59375 
Q 28.65625 6.59375 39.40625 6.59375 
Q 50.140625 6.59375 56.421875 14.59375 
Q 62.703125 22.609375 62.703125 36.375 
Q 62.703125 50.203125 56.421875 58.203125 
Q 50.140625 66.21875 39.40625 66.21875 
z
M 39.40625 74.21875 
Q 54.734375 74.21875 63.90625 63.9375 
Q 73.09375 53.65625 73.09375 36.375 
Q 73.09375 19.140625 63.90625 8.859375 
Q 54.734375 -1.421875 39.40625 -1.421875 
Q 24.03125 -1.421875 14.8125 8.828125 
Q 5.609375 19.09375 5.609375 36.375 
Q 5.609375 53.65625 14.8125 63.9375 
Q 24.03125 74.21875 39.40625 74.21875 
z
" id="DejaVuSans-79"/>
      </defs>
      <use xlink:href="#DejaVuSans-73"/>
      <use x="29.492188" xlink:href="#DejaVuSans-67"/>
      <use x="99.316406" xlink:href="#DejaVuSans-79"/>
      <use x="178.027344" xlink:href="#DejaVuSans-83"/>
     </g>
    </g>
   </g>
   <g id="text_46">
    <g clip-path="url(#p0a25fe8597)">
     <!-- ICOSLG -->
     <g transform="translate(529.889775 193.142165)scale(0.12 -0.12)">
      <use xlink:href="#DejaVuSans-73"/>
      <use x="29.492188" xlink:href="#DejaVuSans-67"/>
      <use x="99.316406" xlink:href="#DejaVuSans-79"/>
      <use x="178.027344" xlink:href="#DejaVuSans-83"/>
      <use x="241.503906" xlink:href="#DejaVuSans-76"/>
      <use x="297.216797" xlink:href="#DejaVuSans-71"/>
     </g>
    </g>
   </g>
   <g id="text_47">
    <g clip-path="url(#p0a25fe8597)">
     <!-- CTLA4 -->
     <g transform="translate(700.23984 292.56821)scale(0.12 -0.12)">
      <use xlink:href="#DejaVuSans-67"/>
      <use x="69.824219" xlink:href="#DejaVuSans-84"/>
      <use x="130.908203" xlink:href="#DejaVuSans-76"/>
      <use x="188.871094" xlink:href="#DejaVuSans-65"/>
      <use x="257.279297" xlink:href="#DejaVuSans-52"/>
     </g>
    </g>
   </g>
   <g id="text_48">
    <g clip-path="url(#p0a25fe8597)">
     <!-- TIGIT -->
     <g transform="translate(436.313821 477.463977)scale(0.12 -0.12)">
      <use xlink:href="#DejaVuSans-84"/>
      <use x="61.083984" xlink:href="#DejaVuSans-73"/>
      <use x="90.576172" xlink:href="#DejaVuSans-71"/>
      <use x="168.066406" xlink:href="#DejaVuSans-73"/>
      <use x="197.558594" xlink:href="#DejaVuSans-84"/>
     </g>
    </g>
   </g>
   <g id="text_49">
    <g clip-path="url(#p0a25fe8597)">
     <!-- NTNG1 -->
     <g transform="translate(151.67063 230.851756)scale(0.12 -0.12)">
      <use xlink:href="#DejaVuSans-78"/>
      <use x="74.804688" xlink:href="#DejaVuSans-84"/>
      <use x="135.888672" xlink:href="#DejaVuSans-78"/>
      <use x="210.693359" xlink:href="#DejaVuSans-71"/>
      <use x="288.183594" xlink:href="#DejaVuSans-49"/>
     </g>
    </g>
   </g>
   <g id="text_50">
    <g clip-path="url(#p0a25fe8597)">
     <!-- NTNG2 -->
     <g transform="translate(558.027339 456.129521)scale(0.12 -0.12)">
      <use xlink:href="#DejaVuSans-78"/>
      <use x="74.804688" xlink:href="#DejaVuSans-84"/>
      <use x="135.888672" xlink:href="#DejaVuSans-78"/>
      <use x="210.693359" xlink:href="#DejaVuSans-71"/>
      <use x="288.183594" xlink:href="#DejaVuSans-50"/>
     </g>
    </g>
   </g>
   <g id="text_51">
    <g clip-path="url(#p0a25fe8597)">
     <!-- LRRC4C -->
     <g transform="translate(142.52766 317.817773)scale(0.12 -0.12)">
      <use xlink:href="#DejaVuSans-76"/>
      <use x="55.712891" xlink:href="#DejaVuSans-82"/>
      <use x="125.195312" xlink:href="#DejaVuSans-82"/>
      <use x="189.677734" xlink:href="#DejaVuSans-67"/>
      <use x="259.501953" xlink:href="#DejaVuSans-52"/>
      <use x="323.125" xlink:href="#DejaVuSans-67"/>
     </g>
    </g>
   </g>
   <g id="text_52">
    <g clip-path="url(#p0a25fe8597)">
     <!-- LRRC4 -->
     <g transform="translate(480.573138 310.528148)scale(0.12 -0.12)">
      <use xlink:href="#DejaVuSans-76"/>
      <use x="55.712891" xlink:href="#DejaVuSans-82"/>
      <use x="125.195312" xlink:href="#DejaVuSans-82"/>
      <use x="189.677734" xlink:href="#DejaVuSans-67"/>
      <use x="259.501953" xlink:href="#DejaVuSans-52"/>
     </g>
    </g>
   </g>
   <g id="text_53">
    <g clip-path="url(#p0a25fe8597)">
     <!-- LRRC4B -->
     <g transform="translate(558.672294 343.092701)scale(0.12 -0.12)">
      <use xlink:href="#DejaVuSans-76"/>
      <use x="55.712891" xlink:href="#DejaVuSans-82"/>
      <use x="125.195312" xlink:href="#DejaVuSans-82"/>
      <use x="189.677734" xlink:href="#DejaVuSans-67"/>
      <use x="259.501953" xlink:href="#DejaVuSans-52"/>
      <use x="323.125" xlink:href="#DejaVuSans-66"/>
     </g>
    </g>
   </g>
   <g id="text_54">
    <g clip-path="url(#p0a25fe8597)">
     <!-- PTPRS -->
     <g transform="translate(423.66839 353.629323)scale(0.12 -0.12)">
      <use xlink:href="#DejaVuSans-80"/>
      <use x="60.302734" xlink:href="#DejaVuSans-84"/>
      <use x="121.386719" xlink:href="#DejaVuSans-80"/>
      <use x="181.689453" xlink:href="#DejaVuSans-82"/>
      <use x="251.171875" xlink:href="#DejaVuSans-83"/>
     </g>
    </g>
   </g>
   <g id="text_55">
    <g clip-path="url(#p0a25fe8597)">
     <!-- PTPRD -->
     <g transform="translate(152.546612 256.745855)scale(0.12 -0.12)">
      <use xlink:href="#DejaVuSans-80"/>
      <use x="60.302734" xlink:href="#DejaVuSans-84"/>
      <use x="121.386719" xlink:href="#DejaVuSans-80"/>
      <use x="181.689453" xlink:href="#DejaVuSans-82"/>
      <use x="251.171875" xlink:href="#DejaVuSans-68"/>
     </g>
    </g>
   </g>
   <g id="text_56">
    <g clip-path="url(#p0a25fe8597)">
     <!-- SLITRK3 -->
     <g transform="translate(170.685794 178.69171)scale(0.12 -0.12)">
      <defs>
       <path d="M 9.8125 72.90625 
L 19.671875 72.90625 
L 19.671875 42.09375 
L 52.390625 72.90625 
L 65.09375 72.90625 
L 28.90625 38.921875 
L 67.671875 0 
L 54.6875 0 
L 19.671875 35.109375 
L 19.671875 0 
L 9.8125 0 
z
" id="DejaVuSans-75"/>
      </defs>
      <use xlink:href="#DejaVuSans-83"/>
      <use x="63.476562" xlink:href="#DejaVuSans-76"/>
      <use x="119.189453" xlink:href="#DejaVuSans-73"/>
      <use x="148.681641" xlink:href="#DejaVuSans-84"/>
      <use x="209.765625" xlink:href="#DejaVuSans-82"/>
      <use x="279.248047" xlink:href="#DejaVuSans-75"/>
      <use x="344.824219" xlink:href="#DejaVuSans-51"/>
     </g>
    </g>
   </g>
   <g id="text_57">
    <g clip-path="url(#p0a25fe8597)">
     <!-- SLITRK1 -->
     <g transform="translate(304.262315 463.337142)scale(0.12 -0.12)">
      <use xlink:href="#DejaVuSans-83"/>
      <use x="63.476562" xlink:href="#DejaVuSans-76"/>
      <use x="119.189453" xlink:href="#DejaVuSans-73"/>
      <use x="148.681641" xlink:href="#DejaVuSans-84"/>
      <use x="209.765625" xlink:href="#DejaVuSans-82"/>
      <use x="279.248047" xlink:href="#DejaVuSans-75"/>
      <use x="344.824219" xlink:href="#DejaVuSans-49"/>
     </g>
    </g>
   </g>
   <g id="text_58">
    <g clip-path="url(#p0a25fe8597)">
     <!-- SLITRK2 -->
     <g transform="translate(640.322994 382.094544)scale(0.12 -0.12)">
      <use xlink:href="#DejaVuSans-83"/>
      <use x="63.476562" xlink:href="#DejaVuSans-76"/>
      <use x="119.189453" xlink:href="#DejaVuSans-73"/>
      <use x="148.681641" xlink:href="#DejaVuSans-84"/>
      <use x="209.765625" xlink:href="#DejaVuSans-82"/>
      <use x="279.248047" xlink:href="#DejaVuSans-75"/>
      <use x="344.824219" xlink:href="#DejaVuSans-50"/>
     </g>
    </g>
   </g>
   <g id="text_59">
    <g clip-path="url(#p0a25fe8597)">
     <!-- SLITRK4 -->
     <g transform="translate(461.017224 463.09511)scale(0.12 -0.12)">
      <use xlink:href="#DejaVuSans-83"/>
      <use x="63.476562" xlink:href="#DejaVuSans-76"/>
      <use x="119.189453" xlink:href="#DejaVuSans-73"/>
      <use x="148.681641" xlink:href="#DejaVuSans-84"/>
      <use x="209.765625" xlink:href="#DejaVuSans-82"/>
      <use x="279.248047" xlink:href="#DejaVuSans-75"/>
      <use x="344.824219" xlink:href="#DejaVuSans-52"/>
     </g>
    </g>
   </g>
   <g id="text_60">
    <g clip-path="url(#p0a25fe8597)">
     <!-- SLITRK5 -->
     <g transform="translate(234.179775 143.16629)scale(0.12 -0.12)">
      <use xlink:href="#DejaVuSans-83"/>
      <use x="63.476562" xlink:href="#DejaVuSans-76"/>
      <use x="119.189453" xlink:href="#DejaVuSans-73"/>
      <use x="148.681641" xlink:href="#DejaVuSans-84"/>
      <use x="209.765625" xlink:href="#DejaVuSans-82"/>
      <use x="279.248047" xlink:href="#DejaVuSans-75"/>
      <use x="344.824219" xlink:href="#DejaVuSans-53"/>
     </g>
    </g>
   </g>
   <g id="text_61">
    <g clip-path="url(#p0a25fe8597)">
     <!-- SLITRK6 -->
     <g transform="translate(592.507133 437.739206)scale(0.12 -0.12)">
      <use xlink:href="#DejaVuSans-83"/>
      <use x="63.476562" xlink:href="#DejaVuSans-76"/>
      <use x="119.189453" xlink:href="#DejaVuSans-73"/>
      <use x="148.681641" xlink:href="#DejaVuSans-84"/>
      <use x="209.765625" xlink:href="#DejaVuSans-82"/>
      <use x="279.248047" xlink:href="#DejaVuSans-75"/>
      <use x="344.824219" xlink:href="#DejaVuSans-54"/>
     </g>
    </g>
   </g>
   <g id="text_62">
    <!-- Frame: 11 -->
    <g transform="translate(121.392 91.296)scale(0.1 -0.1)">
     <defs>
      <path d="M 41.109375 46.296875 
Q 39.59375 47.171875 37.8125 47.578125 
Q 36.03125 48 33.890625 48 
Q 26.265625 48 22.1875 43.046875 
Q 18.109375 38.09375 18.109375 28.8125 
L 18.109375 0 
L 9.078125 0 
L 9.078125 54.6875 
L 18.109375 54.6875 
L 18.109375 46.1875 
Q 20.953125 51.171875 25.484375 53.578125 
Q 30.03125 56 36.53125 56 
Q 37.453125 56 38.578125 55.875 
Q 39.703125 55.765625 41.0625 55.515625 
z
" id="DejaVuSans-114"/>
      <path d="M 34.28125 27.484375 
Q 23.390625 27.484375 19.1875 25 
Q 14.984375 22.515625 14.984375 16.5 
Q 14.984375 11.71875 18.140625 8.90625 
Q 21.296875 6.109375 26.703125 6.109375 
Q 34.1875 6.109375 38.703125 11.40625 
Q 43.21875 16.703125 43.21875 25.484375 
L 43.21875 27.484375 
z
M 52.203125 31.203125 
L 52.203125 0 
L 43.21875 0 
L 43.21875 8.296875 
Q 40.140625 3.328125 35.546875 0.953125 
Q 30.953125 -1.421875 24.3125 -1.421875 
Q 15.921875 -1.421875 10.953125 3.296875 
Q 6 8.015625 6 15.921875 
Q 6 25.140625 12.171875 29.828125 
Q 18.359375 34.515625 30.609375 34.515625 
L 43.21875 34.515625 
L 43.21875 35.40625 
Q 43.21875 41.609375 39.140625 45 
Q 35.0625 48.390625 27.6875 48.390625 
Q 23 48.390625 18.546875 47.265625 
Q 14.109375 46.140625 10.015625 43.890625 
L 10.015625 52.203125 
Q 14.9375 54.109375 19.578125 55.046875 
Q 24.21875 56 28.609375 56 
Q 40.484375 56 46.34375 49.84375 
Q 52.203125 43.703125 52.203125 31.203125 
z
" id="DejaVuSans-97"/>
      <path d="M 52 44.1875 
Q 55.375 50.25 60.0625 53.125 
Q 64.75 56 71.09375 56 
Q 79.640625 56 84.28125 50.015625 
Q 88.921875 44.046875 88.921875 33.015625 
L 88.921875 0 
L 79.890625 0 
L 79.890625 32.71875 
Q 79.890625 40.578125 77.09375 44.375 
Q 74.3125 48.1875 68.609375 48.1875 
Q 61.625 48.1875 57.5625 43.546875 
Q 53.515625 38.921875 53.515625 30.90625 
L 53.515625 0 
L 44.484375 0 
L 44.484375 32.71875 
Q 44.484375 40.625 41.703125 44.40625 
Q 38.921875 48.1875 33.109375 48.1875 
Q 26.21875 48.1875 22.15625 43.53125 
Q 18.109375 38.875 18.109375 30.90625 
L 18.109375 0 
L 9.078125 0 
L 9.078125 54.6875 
L 18.109375 54.6875 
L 18.109375 46.1875 
Q 21.1875 51.21875 25.484375 53.609375 
Q 29.78125 56 35.6875 56 
Q 41.65625 56 45.828125 52.96875 
Q 50 49.953125 52 44.1875 
z
" id="DejaVuSans-109"/>
      <path d="M 56.203125 29.59375 
L 56.203125 25.203125 
L 14.890625 25.203125 
Q 15.484375 15.921875 20.484375 11.0625 
Q 25.484375 6.203125 34.421875 6.203125 
Q 39.59375 6.203125 44.453125 7.46875 
Q 49.3125 8.734375 54.109375 11.28125 
L 54.109375 2.78125 
Q 49.265625 0.734375 44.1875 -0.34375 
Q 39.109375 -1.421875 33.890625 -1.421875 
Q 20.796875 -1.421875 13.15625 6.1875 
Q 5.515625 13.8125 5.515625 26.8125 
Q 5.515625 40.234375 12.765625 48.109375 
Q 20.015625 56 32.328125 56 
Q 43.359375 56 49.78125 48.890625 
Q 56.203125 41.796875 56.203125 29.59375 
z
M 47.21875 32.234375 
Q 47.125 39.59375 43.09375 43.984375 
Q 39.0625 48.390625 32.421875 48.390625 
Q 24.90625 48.390625 20.390625 44.140625 
Q 15.875 39.890625 15.1875 32.171875 
z
" id="DejaVuSans-101"/>
      <path d="M 11.71875 12.40625 
L 22.015625 12.40625 
L 22.015625 0 
L 11.71875 0 
z
M 11.71875 51.703125 
L 22.015625 51.703125 
L 22.015625 39.3125 
L 11.71875 39.3125 
z
" id="DejaVuSans-58"/>
      <path id="DejaVuSans-32"/>
     </defs>
     <use xlink:href="#DejaVuSans-70"/>
     <use x="50.269531" xlink:href="#DejaVuSans-114"/>
     <use x="91.382812" xlink:href="#DejaVuSans-97"/>
     <use x="152.662109" xlink:href="#DejaVuSans-109"/>
     <use x="250.074219" xlink:href="#DejaVuSans-101"/>
     <use x="311.597656" xlink:href="#DejaVuSans-58"/>
     <use x="345.289062" xlink:href="#DejaVuSans-32"/>
     <use x="377.076172" xlink:href="#DejaVuSans-49"/>
     <use x="440.699219" xlink:href="#DejaVuSans-49"/>
    </g>
   </g>
   <g id="text_63">
    <!-- Network: hsa04514 -->
    <g transform="translate(384.1275 63.12)scale(0.12 -0.12)">
     <defs>
      <path d="M 18.3125 70.21875 
L 18.3125 54.6875 
L 36.8125 54.6875 
L 36.8125 47.703125 
L 18.3125 47.703125 
L 18.3125 18.015625 
Q 18.3125 11.328125 20.140625 9.421875 
Q 21.96875 7.515625 27.59375 7.515625 
L 36.8125 7.515625 
L 36.8125 0 
L 27.59375 0 
Q 17.1875 0 13.234375 3.875 
Q 9.28125 7.765625 9.28125 18.015625 
L 9.28125 47.703125 
L 2.6875 47.703125 
L 2.6875 54.6875 
L 9.28125 54.6875 
L 9.28125 70.21875 
z
" id="DejaVuSans-116"/>
      <path d="M 4.203125 54.6875 
L 13.1875 54.6875 
L 24.421875 12.015625 
L 35.59375 54.6875 
L 46.1875 54.6875 
L 57.421875 12.015625 
L 68.609375 54.6875 
L 77.59375 54.6875 
L 63.28125 0 
L 52.6875 0 
L 40.921875 44.828125 
L 29.109375 0 
L 18.5 0 
z
" id="DejaVuSans-119"/>
      <path d="M 30.609375 48.390625 
Q 23.390625 48.390625 19.1875 42.75 
Q 14.984375 37.109375 14.984375 27.296875 
Q 14.984375 17.484375 19.15625 11.84375 
Q 23.34375 6.203125 30.609375 6.203125 
Q 37.796875 6.203125 41.984375 11.859375 
Q 46.1875 17.53125 46.1875 27.296875 
Q 46.1875 37.015625 41.984375 42.703125 
Q 37.796875 48.390625 30.609375 48.390625 
z
M 30.609375 56 
Q 42.328125 56 49.015625 48.375 
Q 55.71875 40.765625 55.71875 27.296875 
Q 55.71875 13.875 49.015625 6.21875 
Q 42.328125 -1.421875 30.609375 -1.421875 
Q 18.84375 -1.421875 12.171875 6.21875 
Q 5.515625 13.875 5.515625 27.296875 
Q 5.515625 40.765625 12.171875 48.375 
Q 18.84375 56 30.609375 56 
z
" id="DejaVuSans-111"/>
      <path d="M 9.078125 75.984375 
L 18.109375 75.984375 
L 18.109375 31.109375 
L 44.921875 54.6875 
L 56.390625 54.6875 
L 27.390625 29.109375 
L 57.625 0 
L 45.90625 0 
L 18.109375 26.703125 
L 18.109375 0 
L 9.078125 0 
z
" id="DejaVuSans-107"/>
      <path d="M 54.890625 33.015625 
L 54.890625 0 
L 45.90625 0 
L 45.90625 32.71875 
Q 45.90625 40.484375 42.875 44.328125 
Q 39.84375 48.1875 33.796875 48.1875 
Q 26.515625 48.1875 22.3125 43.546875 
Q 18.109375 38.921875 18.109375 30.90625 
L 18.109375 0 
L 9.078125 0 
L 9.078125 75.984375 
L 18.109375 75.984375 
L 18.109375 46.1875 
Q 21.34375 51.125 25.703125 53.5625 
Q 30.078125 56 35.796875 56 
Q 45.21875 56 50.046875 50.171875 
Q 54.890625 44.34375 54.890625 33.015625 
z
" id="DejaVuSans-104"/>
      <path d="M 44.28125 53.078125 
L 44.28125 44.578125 
Q 40.484375 46.53125 36.375 47.5 
Q 32.28125 48.484375 27.875 48.484375 
Q 21.1875 48.484375 17.84375 46.4375 
Q 14.5 44.390625 14.5 40.28125 
Q 14.5 37.15625 16.890625 35.375 
Q 19.28125 33.59375 26.515625 31.984375 
L 29.59375 31.296875 
Q 39.15625 29.25 43.1875 25.515625 
Q 47.21875 21.78125 47.21875 15.09375 
Q 47.21875 7.46875 41.1875 3.015625 
Q 35.15625 -1.421875 24.609375 -1.421875 
Q 20.21875 -1.421875 15.453125 -0.5625 
Q 10.6875 0.296875 5.421875 2 
L 5.421875 11.28125 
Q 10.40625 8.6875 15.234375 7.390625 
Q 20.0625 6.109375 24.8125 6.109375 
Q 31.15625 6.109375 34.5625 8.28125 
Q 37.984375 10.453125 37.984375 14.40625 
Q 37.984375 18.0625 35.515625 20.015625 
Q 33.0625 21.96875 24.703125 23.78125 
L 21.578125 24.515625 
Q 13.234375 26.265625 9.515625 29.90625 
Q 5.8125 33.546875 5.8125 39.890625 
Q 5.8125 47.609375 11.28125 51.796875 
Q 16.75 56 26.8125 56 
Q 31.78125 56 36.171875 55.265625 
Q 40.578125 54.546875 44.28125 53.078125 
z
" id="DejaVuSans-115"/>
     </defs>
     <use xlink:href="#DejaVuSans-78"/>
     <use x="74.804688" xlink:href="#DejaVuSans-101"/>
     <use x="136.328125" xlink:href="#DejaVuSans-116"/>
     <use x="175.537109" xlink:href="#DejaVuSans-119"/>
     <use x="257.324219" xlink:href="#DejaVuSans-111"/>
     <use x="318.505859" xlink:href="#DejaVuSans-114"/>
     <use x="359.619141" xlink:href="#DejaVuSans-107"/>
     <use x="417.529297" xlink:href="#DejaVuSans-58"/>
     <use x="451.220703" xlink:href="#DejaVuSans-32"/>
     <use x="483.007812" xlink:href="#DejaVuSans-104"/>
     <use x="546.386719" xlink:href="#DejaVuSans-115"/>
     <use x="598.486328" xlink:href="#DejaVuSans-97"/>
     <use x="659.765625" xlink:href="#DejaVuSans-48"/>
     <use x="723.388672" xlink:href="#DejaVuSans-52"/>
     <use x="787.011719" xlink:href="#DejaVuSans-53"/>
     <use x="850.634766" xlink:href="#DejaVuSans-49"/>
     <use x="914.257812" xlink:href="#DejaVuSans-52"/>
    </g>
   </g>
  </g>
 </g>
 <defs>
  <clipPath id="p0a25fe8597">
   <rect height="443.52" width="669.6" x="108" y="69.12"/>
  </clipPath>
 </defs>
</svg>
