<?xml version="1.0" encoding="utf-8" standalone="no"?>
<!DOCTYPE svg PUBLIC "-//W3C//DTD SVG 1.1//EN"
  "http://www.w3.org/Graphics/SVG/1.1/DTD/svg11.dtd">
<!-- Created with matplotlib (https://matplotlib.org/) -->
<svg height="576pt" version="1.1" viewBox="0 0 864 576" width="864pt" xmlns="http://www.w3.org/2000/svg" xmlns:xlink="http://www.w3.org/1999/xlink">
 <metadata>
  <rdf:RDF xmlns:cc="http://creativecommons.org/ns#" xmlns:dc="http://purl.org/dc/elements/1.1/" xmlns:rdf="http://www.w3.org/1999/02/22-rdf-syntax-ns#">
   <cc:Work>
    <dc:type rdf:resource="http://purl.org/dc/dcmitype/StillImage"/>
    <dc:date>2024-05-23T11:56:31.345807</dc:date>
    <dc:format>image/svg+xml</dc:format>
    <dc:creator>
     <cc:Agent>
      <dc:title>Matplotlib v3.3.1, https://matplotlib.org/</dc:title>
     </cc:Agent>
    </dc:creator>
   </cc:Work>
  </rdf:RDF>
 </metadata>
 <defs>
  <style type="text/css">*{stroke-linecap:butt;stroke-linejoin:round;}</style>
 </defs>
 <g id="figure_1">
  <g id="patch_1">
   <path d="M 0 576 
L 864 576 
L 864 0 
L 0 0 
z
" style="fill:#ffffff;"/>
  </g>
  <g id="axes_1">
   <g id="patch_2">
    <path clip-path="url(#pc6bf333860)" d="M 391.328023 248.568675 
Q 488.099831 192.685132 583.903446 137.360699 
" style="fill:none;stroke:#000000;stroke-linecap:round;"/>
    <path clip-path="url(#pc6bf333860)" d="M 579.43937 137.629074 
L 583.903446 137.360699 
L 581.439701 141.092985 
L 579.43937 137.629074 
z
" style="stroke:#000000;stroke-linecap:round;"/>
   </g>
   <g id="patch_3">
    <path clip-path="url(#pc6bf333860)" d="M 377.607694 258.924903 
Q 309.469064 324.926723 242.133494 390.150666 
" style="fill:none;stroke:#000000;stroke-linecap:round;"/>
    <path clip-path="url(#pc6bf333860)" d="M 246.398122 388.804207 
L 242.133494 390.150666 
L 243.615104 385.931089 
L 246.398122 388.804207 
z
" style="stroke:#000000;stroke-linecap:round;"/>
   </g>
   <g id="patch_4">
    <path clip-path="url(#pc6bf333860)" d="M 399.766194 234.834416 
Q 492.244145 185.6852 583.734833 137.060685 
" style="fill:none;stroke:#000000;stroke-linecap:round;"/>
    <path clip-path="url(#pc6bf333860)" d="M 579.264078 137.171839 
L 583.734833 137.060685 
L 581.141304 140.703981 
L 579.264078 137.171839 
z
" style="stroke:#000000;stroke-linecap:round;"/>
   </g>
   <g id="patch_5">
    <path clip-path="url(#pc6bf333860)" d="M 383.492369 238.153757 
Q 286.536089 229.77418 190.693691 221.490871 
" style="fill:none;stroke:#000000;stroke-linecap:round;"/>
    <path clip-path="url(#pc6bf333860)" d="M 194.506624 223.827865 
L 190.693691 221.490871 
L 194.851046 219.842721 
L 194.506624 223.827865 
z
" style="stroke:#000000;stroke-linecap:round;"/>
   </g>
   <g id="patch_6">
    <path clip-path="url(#pc6bf333860)" d="M 383.683042 236.940332 
Q 290.987201 215.412857 199.380411 194.138302 
" style="fill:none;stroke:#000000;stroke-linecap:round;"/>
    <path clip-path="url(#pc6bf333860)" d="M 202.824284 196.991325 
L 199.380411 194.138302 
L 203.729154 193.095018 
L 202.824284 196.991325 
z
" style="stroke:#000000;stroke-linecap:round;"/>
   </g>
   <g id="patch_7">
    <path clip-path="url(#pc6bf333860)" d="M 189.246381 297.209864 
Q 185.566703 263.23557 182.007412 230.37281 
" style="fill:none;stroke:#000000;stroke-linecap:round;"/>
    <path clip-path="url(#pc6bf333860)" d="M 180.449752 234.564909 
L 182.007412 230.37281 
L 184.426496 234.134197 
L 180.449752 234.564909 
z
" style="stroke:#000000;stroke-linecap:round;"/>
   </g>
   <g id="patch_8">
    <path clip-path="url(#pc6bf333860)" d="M 426.792059 229.43533 
Q 505.846593 183.140319 583.93635 137.410289 
" style="fill:none;stroke:#000000;stroke-linecap:round;"/>
    <path clip-path="url(#pc6bf333860)" d="M 579.473987 137.705784 
L 583.93635 137.410289 
L 581.495328 141.157476 
L 579.473987 137.705784 
z
" style="stroke:#000000;stroke-linecap:round;"/>
   </g>
   <g id="patch_9">
    <path clip-path="url(#pc6bf333860)" d="M 410.797728 232.25805 
Q 304.585211 212.869485 199.472554 193.681694 
" style="fill:none;stroke:#000000;stroke-linecap:round;"/>
    <path clip-path="url(#pc6bf333860)" d="M 203.048374 196.367491 
L 199.472554 193.681694 
L 203.766684 192.432516 
L 203.048374 196.367491 
z
" style="stroke:#000000;stroke-linecap:round;"/>
   </g>
   <g id="patch_10">
    <path clip-path="url(#pc6bf333860)" d="M 427.943637 233.083025 
Q 554.76906 222.350378 680.480431 211.712008 
" style="fill:none;stroke:#000000;stroke-linecap:round;"/>
    <path clip-path="url(#pc6bf333860)" d="M 676.32603 210.056427 
L 680.480431 211.712008 
L 676.663326 214.042181 
L 676.32603 210.056427 
z
" style="stroke:#000000;stroke-linecap:round;"/>
   </g>
   <g id="patch_11">
    <path clip-path="url(#pc6bf333860)" d="M 412.832009 239.556003 
Q 327.212807 315.383896 242.430583 390.470527 
" style="fill:none;stroke:#000000;stroke-linecap:round;"/>
    <path clip-path="url(#pc6bf333860)" d="M 246.751053 389.315739 
L 242.430583 390.470527 
L 244.099035 386.321278 
L 246.751053 389.315739 
z
" style="stroke:#000000;stroke-linecap:round;"/>
   </g>
   <g id="patch_12">
    <path clip-path="url(#pc6bf333860)" d="M 169.603269 237.787236 
Q 177.978781 218.818708 185.902691 200.872948 
" style="fill:none;stroke:#000000;stroke-linecap:round;"/>
    <path clip-path="url(#pc6bf333860)" d="M 182.457409 203.724268 
L 185.902691 200.872948 
L 186.116578 205.339966 
L 182.457409 203.724268 
z
" style="stroke:#000000;stroke-linecap:round;"/>
   </g>
   <g id="patch_13">
    <path clip-path="url(#pc6bf333860)" d="M 341.278632 149.683962 
Q 462.505502 141.37324 582.616956 133.138986 
" style="fill:none;stroke:#000000;stroke-linecap:round;"/>
    <path clip-path="url(#pc6bf333860)" d="M 578.489533 131.417248 
L 582.616956 133.138986 
L 578.763112 135.407881 
L 578.489533 131.417248 
z
" style="stroke:#000000;stroke-linecap:round;"/>
   </g>
   <g id="patch_14">
    <path clip-path="url(#pc6bf333860)" d="M 324.777129 153.922099 
Q 256.791769 185.464101 189.820604 216.535563 
" style="fill:none;stroke:#000000;stroke-linecap:round;"/>
    <path clip-path="url(#pc6bf333860)" d="M 194.290827 216.66636 
L 189.820604 216.535563 
L 192.607375 213.037863 
L 194.290827 216.66636 
z
" style="stroke:#000000;stroke-linecap:round;"/>
   </g>
   <g id="patch_15">
    <path clip-path="url(#pc6bf333860)" d="M 324.325268 152.700406 
Q 261.244343 171.101051 199.236722 189.188615 
" style="fill:none;stroke:#000000;stroke-linecap:round;"/>
    <path clip-path="url(#pc6bf333860)" d="M 203.636746 189.988484 
L 199.236722 189.188615 
L 202.516631 186.148517 
L 203.636746 189.988484 
z
" style="stroke:#000000;stroke-linecap:round;"/>
   </g>
   <g id="patch_16">
    <path clip-path="url(#pc6bf333860)" d="M 368.521017 172.726739 
Q 283.493279 181.863523 199.577175 190.880855 
" style="fill:none;stroke:#000000;stroke-linecap:round;"/>
    <path clip-path="url(#pc6bf333860)" d="M 203.767962 192.442042 
L 199.577175 190.880855 
L 203.340596 188.464937 
L 203.767962 192.442042 
z
" style="stroke:#000000;stroke-linecap:round;"/>
   </g>
   <g id="patch_17">
    <path clip-path="url(#pc6bf333860)" d="M 446.236597 259.568606 
Q 322.232854 226.852092 199.310152 194.420794 
" style="fill:none;stroke:#000000;stroke-linecap:round;"/>
    <path clip-path="url(#pc6bf333860)" d="M 202.667594 197.375042 
L 199.310152 194.420794 
L 203.688016 193.507389 
L 202.667594 197.375042 
z
" style="stroke:#000000;stroke-linecap:round;"/>
   </g>
   <g id="patch_18">
    <path clip-path="url(#pc6bf333860)" d="M 462.797976 264.614162 
Q 581.56973 305.758889 699.285043 346.537645 
" style="fill:none;stroke:#000000;stroke-linecap:round;"/>
    <path clip-path="url(#pc6bf333860)" d="M 696.160076 343.338493 
L 699.285043 346.537645 
L 694.850741 347.118128 
L 696.160076 343.338493 
z
" style="stroke:#000000;stroke-linecap:round;"/>
   </g>
   <g id="patch_19">
    <path clip-path="url(#pc6bf333860)" d="M 483.486495 229.899007 
Q 582.546008 220.789519 680.492185 211.782413 
" style="fill:none;stroke:#000000;stroke-linecap:round;"/>
    <path clip-path="url(#pc6bf333860)" d="M 676.325845 210.15711 
L 680.492185 211.782413 
L 676.692138 214.140303 
L 676.325845 210.15711 
z
" style="stroke:#000000;stroke-linecap:round;"/>
   </g>
   <g id="patch_20">
    <path clip-path="url(#pc6bf333860)" d="M 644.467795 161.333593 
Q 664.410674 182.93012 683.595055 203.705256 
" style="fill:none;stroke:#000000;stroke-linecap:round;"/>
    <path clip-path="url(#pc6bf333860)" d="M 682.350723 199.409719 
L 683.595055 203.705256 
L 679.412027 202.123399 
L 682.350723 199.409719 
z
" style="stroke:#000000;stroke-linecap:round;"/>
   </g>
   <g id="patch_21">
    <path clip-path="url(#pc6bf333860)" d="M 321.655301 426.65463 
Q 282.477588 413.209797 244.357371 400.127871 
" style="fill:none;stroke:#000000;stroke-linecap:round;"/>
    <path clip-path="url(#pc6bf333860)" d="M 247.491598 403.317953 
L 244.357371 400.127871 
L 248.789973 399.534539 
L 247.491598 403.317953 
z
" style="stroke:#000000;stroke-linecap:round;"/>
   </g>
   <g id="patch_22">
    <path clip-path="url(#pc6bf333860)" d="M 357.252755 207.133229 
Q 447.363926 166.209697 536.457123 125.748473 
" style="fill:none;stroke:#000000;stroke-linecap:round;"/>
    <path clip-path="url(#pc6bf333860)" d="M 531.988107 125.581469 
L 536.457123 125.748473 
L 533.642109 129.223484 
L 531.988107 125.581469 
z
" style="stroke:#000000;stroke-linecap:round;"/>
   </g>
   <g id="patch_23">
    <path clip-path="url(#pc6bf333860)" d="M 355.242808 258.427246 
Q 393.955908 186.827112 432.137255 116.210459 
" style="fill:none;stroke:#000000;stroke-linecap:round;"/>
    <path clip-path="url(#pc6bf333860)" d="M 428.475487 118.777843 
L 432.137255 116.210459 
L 431.994101 120.680304 
L 428.475487 118.777843 
z
" style="stroke:#000000;stroke-linecap:round;"/>
   </g>
   <g id="patch_24">
    <path clip-path="url(#pc6bf333860)" d="M 469.801918 336.186393 
Q 425.11505 393.218372 381.117743 449.370291 
" style="fill:none;stroke:#000000;stroke-linecap:round;"/>
    <path clip-path="url(#pc6bf333860)" d="M 385.159093 447.455222 
L 381.117743 449.370291 
L 382.010498 444.98817 
L 385.159093 447.455222 
z
" style="stroke:#000000;stroke-linecap:round;"/>
   </g>
   <g id="patch_25">
    <path clip-path="url(#pc6bf333860)" d="M 483.80114 329.205432 
Q 596.656428 327.050763 708.393886 324.917436 
" style="fill:none;stroke:#000000;stroke-linecap:round;"/>
    <path clip-path="url(#pc6bf333860)" d="M 704.356437 322.994155 
L 708.393886 324.917436 
L 704.432792 326.993426 
L 704.356437 322.994155 
z
" style="stroke:#000000;stroke-linecap:round;"/>
   </g>
   <g id="patch_26">
    <path clip-path="url(#pc6bf333860)" d="M 462.493854 280.672017 
Q 586.065676 301.966263 708.535703 323.070645 
" style="fill:none;stroke:#000000;stroke-linecap:round;"/>
    <path clip-path="url(#pc6bf333860)" d="M 704.933442 320.420415 
L 708.535703 323.070645 
L 704.254162 324.362316 
L 704.933442 320.420415 
z
" style="stroke:#000000;stroke-linecap:round;"/>
   </g>
   <g id="patch_27">
    <path clip-path="url(#pc6bf333860)" d="M 446.027286 275.730943 
Q 341.785813 230.12302 238.568626 184.963245 
" style="fill:none;stroke:#000000;stroke-linecap:round;"/>
    <path clip-path="url(#pc6bf333860)" d="M 241.431555 188.398888 
L 238.568626 184.963245 
L 243.034898 184.734288 
L 241.431555 188.398888 
z
" style="stroke:#000000;stroke-linecap:round;"/>
   </g>
   <g id="patch_28">
    <path clip-path="url(#pc6bf333860)" d="M 504.067958 235.495623 
Q 607.121711 278.447265 709.143476 320.968787 
" style="fill:none;stroke:#000000;stroke-linecap:round;"/>
    <path clip-path="url(#pc6bf333860)" d="M 706.220752 317.583868 
L 709.143476 320.968787 
L 704.681906 321.276016 
L 706.220752 317.583868 
z
" style="stroke:#000000;stroke-linecap:round;"/>
   </g>
   <g id="patch_29">
    <path clip-path="url(#pc6bf333860)" d="M 487.571648 230.532568 
Q 362.843365 206.603818 239.213092 182.885719 
" style="fill:none;stroke:#000000;stroke-linecap:round;"/>
    <path clip-path="url(#pc6bf333860)" d="M 242.76463 185.603543 
L 239.213092 182.885719 
L 243.518275 181.675182 
L 242.76463 185.603543 
z
" style="stroke:#000000;stroke-linecap:round;"/>
   </g>
   <g id="patch_30">
    <path clip-path="url(#pc6bf333860)" d="M 568.315426 333.910899 
Q 503.372171 400.921439 439.207003 467.129122 
" style="fill:none;stroke:#000000;stroke-linecap:round;"/>
    <path clip-path="url(#pc6bf333860)" d="M 443.42697 465.648622 
L 439.207003 467.129122 
L 440.554583 462.864848 
L 443.42697 465.648622 
z
" style="stroke:#000000;stroke-linecap:round;"/>
   </g>
   <g id="patch_31">
    <path clip-path="url(#pc6bf333860)" d="M 466.23288 348.262971 
Q 340.820345 371.258879 216.50751 394.053144 
" style="fill:none;stroke:#000000;stroke-linecap:round;"/>
    <path clip-path="url(#pc6bf333860)" d="M 220.802627 395.298926 
L 216.50751 394.053144 
L 220.081206 391.36452 
L 220.802627 395.298926 
z
" style="stroke:#000000;stroke-linecap:round;"/>
   </g>
   <g id="patch_32">
    <path clip-path="url(#pc6bf333860)" d="M 395.991466 293.938478 
Q 377.409146 208.813717 359.065272 124.781267 
" style="fill:none;stroke:#000000;stroke-linecap:round;"/>
    <path clip-path="url(#pc6bf333860)" d="M 357.964377 129.115784 
L 359.065272 124.781267 
L 361.872348 128.262693 
L 357.964377 129.115784 
z
" style="stroke:#000000;stroke-linecap:round;"/>
   </g>
   <g id="patch_33">
    <path clip-path="url(#pc6bf333860)" d="M 402.86578 309.453951 
Q 457.157074 385.626108 510.799453 460.887821 
" style="fill:none;stroke:#000000;stroke-linecap:round;"/>
    <path clip-path="url(#pc6bf333860)" d="M 510.106479 456.469701 
L 510.799453 460.887821 
L 506.849172 458.791328 
L 510.106479 456.469701 
z
" style="stroke:#000000;stroke-linecap:round;"/>
   </g>
   <g id="patch_34">
    <path clip-path="url(#pc6bf333860)" d="M 519.648727 356.092046 
Q 518.183126 408.143447 516.748992 459.077258 
" style="fill:none;stroke:#000000;stroke-linecap:round;"/>
    <path clip-path="url(#pc6bf333860)" d="M 518.860782 455.135134 
L 516.748992 459.077258 
L 514.862367 455.022551 
L 518.860782 455.135134 
z
" style="stroke:#000000;stroke-linecap:round;"/>
   </g>
   <g id="patch_35">
    <path clip-path="url(#pc6bf333860)" d="M 548.388959 315.65984 
Q 533.314308 388.016637 518.46769 459.278902 
" style="fill:none;stroke:#000000;stroke-linecap:round;"/>
    <path clip-path="url(#pc6bf333860)" d="M 521.241483 455.7709 
L 518.46769 459.278902 
L 517.325565 454.955067 
L 521.241483 455.7709 
z
" style="stroke:#000000;stroke-linecap:round;"/>
   </g>
   <g id="patch_36">
    <path clip-path="url(#pc6bf333860)" d="M 416.366351 316.306492 
Q 464.044043 388.957213 511.108312 460.673209 
" style="fill:none;stroke:#000000;stroke-linecap:round;"/>
    <path clip-path="url(#pc6bf333860)" d="M 510.585754 456.231708 
L 511.108312 460.673209 
L 507.241576 458.426354 
L 510.585754 456.231708 
z
" style="stroke:#000000;stroke-linecap:round;"/>
   </g>
   <g id="patch_37">
    <path clip-path="url(#pc6bf333860)" d="M 418.059564 470.047937 
Q 462.937354 469.501279 506.697193 468.968239 
" style="fill:none;stroke:#000000;stroke-linecap:round;"/>
    <path clip-path="url(#pc6bf333860)" d="M 502.673129 467.017108 
L 506.697193 468.968239 
L 502.72185 471.016811 
L 502.673129 467.017108 
z
" style="stroke:#000000;stroke-linecap:round;"/>
   </g>
   <g id="patch_38">
    <path clip-path="url(#pc6bf333860)" d="M 443.709199 203.360132 
Q 351.210395 180.176148 259.79608 157.26398 
" style="fill:none;stroke:#000000;stroke-linecap:round;"/>
    <path clip-path="url(#pc6bf333860)" d="M 263.189823 160.176455 
L 259.79608 157.26398 
L 264.162305 156.296471 
L 263.189823 160.176455 
z
" style="stroke:#000000;stroke-linecap:round;"/>
   </g>
   <g id="patch_39">
    <path clip-path="url(#pc6bf333860)" d="M 452.592315 424.546901 
Q 560.316999 402.771749 666.945813 381.218113 
" style="fill:none;stroke:#000000;stroke-linecap:round;"/>
    <path clip-path="url(#pc6bf333860)" d="M 662.62885 380.050281 
L 666.945813 381.218113 
L 663.421369 383.970984 
L 662.62885 380.050281 
z
" style="stroke:#000000;stroke-linecap:round;"/>
   </g>
   <g id="patch_40">
    <path clip-path="url(#pc6bf333860)" d="M 544.708895 268.557487 
Q 588.523804 337.060631 631.736297 404.621917 
" style="fill:none;stroke:#000000;stroke-linecap:round;"/>
    <path clip-path="url(#pc6bf333860)" d="M 631.265874 400.174592 
L 631.736297 404.621917 
L 627.896183 402.329861 
L 631.265874 400.174592 
z
" style="stroke:#000000;stroke-linecap:round;"/>
   </g>
   <g id="patch_41">
    <path clip-path="url(#pc6bf333860)" d="M 534.048982 255.015289 
Q 469.910796 188.161901 406.546627 122.115296 
" style="fill:none;stroke:#000000;stroke-linecap:round;"/>
    <path clip-path="url(#pc6bf333860)" d="M 407.872614 126.386333 
L 406.546627 122.115296 
L 410.759048 123.617129 
L 407.872614 126.386333 
z
" style="stroke:#000000;stroke-linecap:round;"/>
   </g>
   <g id="patch_42">
    <path clip-path="url(#pc6bf333860)" d="M 473.285681 310.673366 
Q 592.063942 305.879003 709.725079 301.129731 
" style="fill:none;stroke:#000000;stroke-linecap:round;"/>
    <path clip-path="url(#pc6bf333860)" d="M 705.647671 299.292683 
L 709.725079 301.129731 
L 705.808995 303.289429 
L 705.647671 299.292683 
z
" style="stroke:#000000;stroke-linecap:round;"/>
   </g>
   <g id="patch_43">
    <path clip-path="url(#pc6bf333860)" d="M 693.467565 225.947424 
Q 663.676352 200.257021 634.731832 175.296762 
" style="fill:none;stroke:#000000;stroke-linecap:round;"/>
    <path clip-path="url(#pc6bf333860)" d="M 636.454931 179.423617 
L 634.731832 175.296762 
L 639.067175 176.394396 
L 636.454931 179.423617 
z
" style="stroke:#000000;stroke-linecap:round;"/>
   </g>
   <g id="patch_44">
    <path clip-path="url(#pc6bf333860)" d="M 696.71708 223.600148 
Q 691.494875 210.974986 686.700013 199.382964 
" style="fill:none;stroke:#000000;stroke-linecap:round;"/>
    <path clip-path="url(#pc6bf333860)" d="M 686.380783 203.843692 
L 686.700013 199.382964 
L 690.077057 202.314785 
L 686.380783 203.843692 
z
" style="stroke:#000000;stroke-linecap:round;"/>
   </g>
   <g id="patch_45">
    <path clip-path="url(#pc6bf333860)" d="M 708.685904 231.537762 
Q 710.191542 231.526083 710.579179 231.523076 
" style="fill:none;stroke:#000000;stroke-linecap:round;"/>
    <path clip-path="url(#pc6bf333860)" d="M 706.563787 229.554162 
L 710.579179 231.523076 
L 706.594812 233.554042 
L 706.563787 229.554162 
z
" style="stroke:#000000;stroke-linecap:round;"/>
   </g>
   <g id="patch_46">
    <path clip-path="url(#pc6bf333860)" d="M 533.041669 259.551283 
Q 515.112317 189.557633 497.460399 120.647049 
" style="fill:none;stroke:#000000;stroke-linecap:round;"/>
    <path clip-path="url(#pc6bf333860)" d="M 496.515533 125.018231 
L 497.460399 120.647049 
L 500.390425 124.025651 
L 496.515533 125.018231 
z
" style="stroke:#000000;stroke-linecap:round;"/>
   </g>
   <g id="patch_47">
    <path clip-path="url(#pc6bf333860)" d="M 541.082259 274.28126 
Q 601.517018 339.343394 661.190875 403.586365 
" style="fill:none;stroke:#000000;stroke-linecap:round;"/>
    <path clip-path="url(#pc6bf333860)" d="M 659.933952 399.294495 
L 661.190875 403.586365 
L 657.003225 402.016781 
L 659.933952 399.294495 
z
" style="stroke:#000000;stroke-linecap:round;"/>
   </g>
   <g id="patch_48">
    <path clip-path="url(#pc6bf333860)" d="M 405.006995 328.726427 
Q 506.309978 379.037828 606.61162 428.851921 
" style="fill:none;stroke:#000000;stroke-linecap:round;"/>
    <path clip-path="url(#pc6bf333860)" d="M 603.918726 425.281441 
L 606.61162 428.851921 
L 602.1395 428.863948 
L 603.918726 425.281441 
z
" style="stroke:#000000;stroke-linecap:round;"/>
   </g>
   <g id="patch_49">
    <path clip-path="url(#pc6bf333860)" d="M 415.293268 410.483405 
Q 511.029153 421.354257 605.654143 432.098966 
" style="fill:none;stroke:#000000;stroke-linecap:round;"/>
    <path clip-path="url(#pc6bf333860)" d="M 601.905335 429.660435 
L 605.654143 432.098966 
L 601.454033 433.634894 
L 601.905335 429.660435 
z
" style="stroke:#000000;stroke-linecap:round;"/>
   </g>
   <g id="patch_50">
    <path clip-path="url(#pc6bf333860)" d="M 567.840605 452.371682 
Q 531.29235 453.665459 495.86143 454.919683 
" style="fill:none;stroke:#000000;stroke-linecap:round;"/>
    <path clip-path="url(#pc6bf333860)" d="M 499.92968 456.776923 
L 495.86143 454.919683 
L 499.788172 452.779427 
L 499.92968 456.776923 
z
" style="stroke:#000000;stroke-linecap:round;"/>
   </g>
   <g id="patch_51">
    <path clip-path="url(#pc6bf333860)" d="M 340.939749 302.005997 
Q 261.211401 315.728262 182.584886 329.260889 
" style="fill:none;stroke:#000000;stroke-linecap:round;"/>
    <path clip-path="url(#pc6bf333860)" d="M 186.866163 330.553433 
L 182.584886 329.260889 
L 186.187687 326.611394 
L 186.866163 330.553433 
z
" style="stroke:#000000;stroke-linecap:round;"/>
   </g>
   <g id="patch_52">
    <path clip-path="url(#pc6bf333860)" d="M 348.518402 291.930801 
Q 340.120492 216.432369 331.846181 142.045118 
" style="fill:none;stroke:#000000;stroke-linecap:round;"/>
    <path clip-path="url(#pc6bf333860)" d="M 330.300645 146.241702 
L 331.846181 142.045118 
L 334.276126 145.799498 
L 330.300645 146.241702 
z
" style="stroke:#000000;stroke-linecap:round;"/>
   </g>
   <g id="patch_53">
    <path clip-path="url(#pc6bf333860)" d="M 355.20602 307.027174 
Q 417.779542 377.899422 479.613089 447.933555 
" style="fill:none;stroke:#000000;stroke-linecap:round;"/>
    <path clip-path="url(#pc6bf333860)" d="M 478.464935 443.611317 
L 479.613089 447.933555 
L 475.466406 446.258736 
L 478.464935 443.611317 
z
" style="stroke:#000000;stroke-linecap:round;"/>
   </g>
   <g id="patch_54">
    <path clip-path="url(#pc6bf333860)" d="M 203.516863 230.129924 
Q 189.490299 276.37987 175.788216 321.559904 
" style="fill:none;stroke:#000000;stroke-linecap:round;"/>
    <path clip-path="url(#pc6bf333860)" d="M 178.863029 318.312517 
L 175.788216 321.559904 
L 175.035194 317.151621 
L 178.863029 318.312517 
z
" style="stroke:#000000;stroke-linecap:round;"/>
   </g>
   <g id="patch_55">
    <path clip-path="url(#pc6bf333860)" d="M 213.068008 216.793623 
Q 268.398427 177.08537 322.820515 138.028988 
" style="fill:none;stroke:#000000;stroke-linecap:round;"/>
    <path clip-path="url(#pc6bf333860)" d="M 318.40467 138.736317 
L 322.820515 138.028988 
L 320.736871 141.986061 
L 318.40467 138.736317 
z
" style="stroke:#000000;stroke-linecap:round;"/>
   </g>
   <g id="patch_56">
    <path clip-path="url(#pc6bf333860)" d="M 646.04041 327.901987 
Q 600.475673 389.004869 555.579291 449.21148 
" style="fill:none;stroke:#000000;stroke-linecap:round;"/>
    <path clip-path="url(#pc6bf333860)" d="M 559.573767 447.20047 
L 555.579291 449.21148 
L 556.367169 444.809293 
L 559.573767 447.20047 
z
" style="stroke:#000000;stroke-linecap:round;"/>
   </g>
   <g id="patch_57">
    <path clip-path="url(#pc6bf333860)" d="M 651.993659 312.333673 
Q 658.032773 245.256395 663.971634 179.292647 
" style="fill:none;stroke:#000000;stroke-linecap:round;"/>
    <path clip-path="url(#pc6bf333860)" d="M 661.621013 183.097194 
L 663.971634 179.292647 
L 665.604899 183.455872 
L 661.621013 183.097194 
z
" style="stroke:#000000;stroke-linecap:round;"/>
   </g>
   <g id="patch_58">
    <path clip-path="url(#pc6bf333860)" d="M 354.283085 242.817355 
Q 469.398576 189.464777 583.499685 136.582335 
" style="fill:none;stroke:#000000;stroke-linecap:round;"/>
    <path clip-path="url(#pc6bf333860)" d="M 579.029515 136.449762 
L 583.499685 136.582335 
L 580.711524 140.078928 
L 579.029515 136.449762 
z
" style="stroke:#000000;stroke-linecap:round;"/>
   </g>
   <g id="patch_59">
    <path clip-path="url(#pc6bf333860)" d="M 337.871461 245.123118 
Q 263.691594 233.553467 190.616407 222.156109 
" style="fill:none;stroke:#000000;stroke-linecap:round;"/>
    <path clip-path="url(#pc6bf333860)" d="M 194.260416 224.748636 
L 190.616407 222.156109 
L 194.876834 220.796417 
L 194.260416 224.748636 
z
" style="stroke:#000000;stroke-linecap:round;"/>
   </g>
   <g id="patch_60">
    <path clip-path="url(#pc6bf333860)" d="M 341.28004 253.418107 
Q 290.769873 321.704885 240.924573 389.092801 
" style="fill:none;stroke:#000000;stroke-linecap:round;"/>
    <path clip-path="url(#pc6bf333860)" d="M 244.911206 387.066288 
L 240.924573 389.092801 
L 241.695342 384.687587 
L 244.911206 387.066288 
z
" style="stroke:#000000;stroke-linecap:round;"/>
   </g>
   <g id="patch_61">
    <path clip-path="url(#pc6bf333860)" d="M 517.712897 151.225987 
Q 550.843392 142.903 582.889546 134.85242 
" style="fill:none;stroke:#000000;stroke-linecap:round;"/>
    <path clip-path="url(#pc6bf333860)" d="M 578.522796 133.887282 
L 582.889546 134.85242 
L 579.497386 137.766738 
L 578.522796 133.887282 
z
" style="stroke:#000000;stroke-linecap:round;"/>
   </g>
   <g id="patch_62">
    <path clip-path="url(#pc6bf333860)" d="M 633.084967 246.432611 
Q 614.185334 193.529201 595.661835 141.678656 
" style="fill:none;stroke:#000000;stroke-linecap:round;"/>
    <path clip-path="url(#pc6bf333860)" d="M 595.124111 146.118346 
L 595.661835 141.678656 
L 598.890953 144.77265 
L 595.124111 146.118346 
z
" style="stroke:#000000;stroke-linecap:round;"/>
   </g>
   <g id="patch_63">
    <path clip-path="url(#pc6bf333860)" d="M 384.929286 266.837607 
Q 287.163761 244.699402 190.488663 222.808115 
" style="fill:none;stroke:#000000;stroke-linecap:round;"/>
    <path clip-path="url(#pc6bf333860)" d="M 193.948193 225.642132 
L 190.488663 222.808115 
L 194.831594 221.740902 
L 193.948193 225.642132 
z
" style="stroke:#000000;stroke-linecap:round;"/>
   </g>
   <g id="patch_64">
    <path clip-path="url(#pc6bf333860)" d="M 385.270593 265.691189 
Q 291.612768 230.337557 199.000936 195.378764 
" style="fill:none;stroke:#000000;stroke-linecap:round;"/>
    <path clip-path="url(#pc6bf333860)" d="M 202.03689 198.66251 
L 199.000936 195.378764 
L 203.449505 194.920249 
L 202.03689 198.66251 
z
" style="stroke:#000000;stroke-linecap:round;"/>
   </g>
   <g id="patch_65">
    <path clip-path="url(#pc6bf333860)" d="M 401.764213 270.906034 
Q 550.953774 309.245384 699.060486 347.306458 
" style="fill:none;stroke:#000000;stroke-linecap:round;"/>
    <path clip-path="url(#pc6bf333860)" d="M 695.68416 344.373811 
L 699.060486 347.306458 
L 694.688573 348.247931 
L 695.68416 344.373811 
z
" style="stroke:#000000;stroke-linecap:round;"/>
   </g>
   <g id="patch_66">
    <path clip-path="url(#pc6bf333860)" d="M 329.860441 165.6102 
Q 264.114599 177.967698 199.467549 190.118669 
" style="fill:none;stroke:#000000;stroke-linecap:round;"/>
    <path clip-path="url(#pc6bf333860)" d="M 203.768159 191.345354 
L 199.467549 190.118669 
L 203.029263 187.414192 
L 203.768159 191.345354 
z
" style="stroke:#000000;stroke-linecap:round;"/>
   </g>
   <g id="patch_67">
    <path clip-path="url(#pc6bf333860)" d="M 501.003409 377.732119 
Q 584.438663 378.46796 666.755927 379.193941 
" style="fill:none;stroke:#000000;stroke-linecap:round;"/>
    <path clip-path="url(#pc6bf333860)" d="M 662.773721 377.158743 
L 666.755927 379.193941 
L 662.738445 381.158588 
L 662.773721 377.158743 
z
" style="stroke:#000000;stroke-linecap:round;"/>
   </g>
   <g id="patch_68">
    <path clip-path="url(#pc6bf333860)" d="M 583.37939 249.421503 
Q 541.537969 183.945806 500.298585 119.412207 
" style="fill:none;stroke:#000000;stroke-linecap:round;"/>
    <path clip-path="url(#pc6bf333860)" d="M 500.767218 123.859722 
L 500.298585 119.412207 
L 504.137776 121.705809 
L 500.767218 123.859722 
z
" style="stroke:#000000;stroke-linecap:round;"/>
   </g>
   <g id="patch_69">
    <path clip-path="url(#pc6bf333860)" d="M 592.024555 264.404938 
Q 627.943336 333.733495 663.347799 402.069341 
" style="fill:none;stroke:#000000;stroke-linecap:round;"/>
    <path clip-path="url(#pc6bf333860)" d="M 663.283532 397.597667 
L 663.347799 402.069341 
L 659.731899 399.43775 
L 663.283532 397.597667 
z
" style="stroke:#000000;stroke-linecap:round;"/>
   </g>
   <g id="patch_70">
    <path clip-path="url(#pc6bf333860)" d="M 427.802278 384.863027 
Q 446.616255 424.315096 464.948982 462.758008 
" style="fill:none;stroke:#000000;stroke-linecap:round;"/>
    <path clip-path="url(#pc6bf333860)" d="M 465.03245 458.286651 
L 464.948982 462.758008 
L 461.421977 460.00842 
L 465.03245 458.286651 
z
" style="stroke:#000000;stroke-linecap:round;"/>
   </g>
   <g id="patch_71">
    <path clip-path="url(#pc6bf333860)" d="M 415.902225 379.90536 
Q 346.379947 404.21378 277.913049 428.153186 
" style="fill:none;stroke:#000000;stroke-linecap:round;"/>
    <path clip-path="url(#pc6bf333860)" d="M 282.349006 428.720886 
L 277.913049 428.153186 
L 281.028784 424.94504 
L 282.349006 428.720886 
z
" style="stroke:#000000;stroke-linecap:round;"/>
   </g>
   <g id="patch_72">
    <path clip-path="url(#pc6bf333860)" d="M 477.310155 350.274812 
Q 473.524095 406.606391 469.81301 461.822453 
" style="fill:none;stroke:#000000;stroke-linecap:round;"/>
    <path clip-path="url(#pc6bf333860)" d="M 472.076744 457.965575 
L 469.81301 461.822453 
L 468.085748 457.697339 
L 472.076744 457.965575 
z
" style="stroke:#000000;stroke-linecap:round;"/>
   </g>
   <g id="patch_73">
    <path clip-path="url(#pc6bf333860)" d="M 469.932728 345.047468 
Q 373.287296 386.506946 277.669345 427.52565 
" style="fill:none;stroke:#000000;stroke-linecap:round;"/>
    <path clip-path="url(#pc6bf333860)" d="M 282.133855 427.786701 
L 277.669345 427.52565 
L 280.556893 424.110672 
L 282.133855 427.786701 
z
" style="stroke:#000000;stroke-linecap:round;"/>
   </g>
   <g id="patch_74">
    <path clip-path="url(#pc6bf333860)" d="M 486.235357 339.313214 
Q 596.92777 308.533422 706.543018 278.053153 
" style="fill:none;stroke:#000000;stroke-linecap:round;"/>
    <path clip-path="url(#pc6bf333860)" d="M 702.15343 277.197867 
L 706.543018 278.053153 
L 703.225036 281.051652 
L 702.15343 277.197867 
z
" style="stroke:#000000;stroke-linecap:round;"/>
   </g>
   <g id="patch_75">
    <path clip-path="url(#pc6bf333860)" d="M 508.204733 402.666355 
Q 490.815124 433.357525 473.97667 463.075954 
" style="fill:none;stroke:#000000;stroke-linecap:round;"/>
    <path clip-path="url(#pc6bf333860)" d="M 477.688638 460.581702 
L 473.97667 463.075954 
L 474.20845 458.609828 
L 477.688638 460.581702 
z
" style="stroke:#000000;stroke-linecap:round;"/>
   </g>
   <g id="patch_76">
    <path clip-path="url(#pc6bf333860)" d="M 503.906214 396.406697 
Q 390.579522 413.256249 278.358707 429.941378 
" style="fill:none;stroke:#000000;stroke-linecap:round;"/>
    <path clip-path="url(#pc6bf333860)" d="M 282.609344 431.331374 
L 278.358707 429.941378 
L 282.021086 427.374866 
L 282.609344 431.331374 
z
" style="stroke:#000000;stroke-linecap:round;"/>
   </g>
   <g id="patch_77">
    <path clip-path="url(#pc6bf333860)" d="M 519.940833 390.74027 
Q 614.222295 335.281442 707.540081 280.389473 
" style="fill:none;stroke:#000000;stroke-linecap:round;"/>
    <path clip-path="url(#pc6bf333860)" d="M 703.078301 280.693655 
L 707.540081 280.389473 
L 705.106359 284.141405 
L 703.078301 280.693655 
z
" style="stroke:#000000;stroke-linecap:round;"/>
   </g>
   <g id="PathCollection_1">
    <defs>
     <path d="M 0 8.660254 
C 2.296726 8.660254 4.499694 7.747755 6.123724 6.123724 
C 7.747755 4.499694 8.660254 2.296726 8.660254 0 
C 8.660254 -2.296726 7.747755 -4.499694 6.123724 -6.123724 
C 4.499694 -7.747755 2.296726 -8.660254 0 -8.660254 
C -2.296726 -8.660254 -4.499694 -7.747755 -6.123724 -6.123724 
C -7.747755 -4.499694 -8.660254 -2.296726 -8.660254 0 
C -8.660254 2.296726 -7.747755 4.499694 -6.123724 6.123724 
C -4.499694 7.747755 -2.296726 8.660254 0 8.660254 
z
" id="m097df58ecb" style="stroke:#1f78b4;"/>
    </defs>
    <g clip-path="url(#pc6bf333860)">
     <use style="fill:#1f78b4;stroke:#1f78b4;" x="592.37214" xlink:href="#m097df58ecb" y="132.470218"/>
     <use style="fill:#1f78b4;stroke:#1f78b4;" x="383.82773" xlink:href="#m097df58ecb" y="252.899925"/>
     <use style="fill:#1f78b4;stroke:#1f78b4;" x="392.117936" xlink:href="#m097df58ecb" y="238.899233"/>
     <use style="fill:#1f78b4;stroke:#1f78b4;" x="180.954262" xlink:href="#m097df58ecb" y="220.649128"/>
     <use style="fill:#1f78b4;stroke:#1f78b4;" x="190.17905" xlink:href="#m097df58ecb" y="305.821159"/>
     <use style="fill:#1f78b4;stroke:#1f78b4;" x="189.853308" xlink:href="#m097df58ecb" y="191.925748"/>
     <use style="fill:#1f78b4;stroke:#1f78b4;" x="419.316463" xlink:href="#m097df58ecb" y="233.813103"/>
     <use style="fill:#1f78b4;stroke:#1f78b4;" x="166.105785" xlink:href="#m097df58ecb" y="245.708199"/>
     <use style="fill:#1f78b4;stroke:#1f78b4;" x="332.634721" xlink:href="#m097df58ecb" y="150.276546"/>
     <use style="fill:#1f78b4;stroke:#1f78b4;" x="377.131062" xlink:href="#m097df58ecb" y="171.801534"/>
     <use style="fill:#1f78b4;stroke:#1f78b4;" x="454.611281" xlink:href="#m097df58ecb" y="261.77814"/>
     <use style="fill:#1f78b4;stroke:#1f78b4;" x="690.227073" xlink:href="#m097df58ecb" y="210.887195"/>
     <use style="fill:#1f78b4;stroke:#1f78b4;" x="474.860118" xlink:href="#m097df58ecb" y="230.692286"/>
     <use style="fill:#1f78b4;stroke:#1f78b4;" x="638.589907" xlink:href="#m097df58ecb" y="154.968315"/>
     <use style="fill:#1f78b4;stroke:#1f78b4;" x="235.109624" xlink:href="#m097df58ecb" y="396.95427"/>
     <use style="fill:#1f78b4;stroke:#1f78b4;" x="329.845844" xlink:href="#m097df58ecb" y="429.465425"/>
     <use style="fill:#1f78b4;stroke:#1f78b4;" x="349.366489" xlink:href="#m097df58ecb" y="210.714736"/>
     <use style="fill:#1f78b4;stroke:#1f78b4;" x="545.359771" xlink:href="#m097df58ecb" y="121.705381"/>
     <use style="fill:#1f78b4;stroke:#1f78b4;" x="351.124003" xlink:href="#m097df58ecb" y="266.045003"/>
     <use style="fill:#1f78b4;stroke:#1f78b4;" x="436.788867" xlink:href="#m097df58ecb" y="107.607273"/>
     <use style="fill:#1f78b4;stroke:#1f78b4;" x="475.142251" xlink:href="#m097df58ecb" y="329.37075"/>
     <use style="fill:#1f78b4;stroke:#1f78b4;" x="708.526691" xlink:href="#m097df58ecb" y="349.739123"/>
     <use style="fill:#1f78b4;stroke:#1f78b4;" x="453.959098" xlink:href="#m097df58ecb" y="279.201284"/>
     <use style="fill:#1f78b4;stroke:#1f78b4;" x="496.0735" xlink:href="#m097df58ecb" y="232.163623"/>
     <use style="fill:#1f78b4;stroke:#1f78b4;" x="574.343065" xlink:href="#m097df58ecb" y="327.691387"/>
     <use style="fill:#1f78b4;stroke:#1f78b4;" x="432.400077" xlink:href="#m097df58ecb" y="474.152727"/>
     <use style="fill:#1f78b4;stroke:#1f78b4;" x="206.88776" xlink:href="#m097df58ecb" y="395.817042"/>
     <use style="fill:#1f78b4;stroke:#1f78b4;" x="474.754962" xlink:href="#m097df58ecb" y="346.700344"/>
     <use style="fill:#1f78b4;stroke:#1f78b4;" x="516.473847" xlink:href="#m097df58ecb" y="468.849149"/>
     <use style="fill:#1f78b4;stroke:#1f78b4;" x="397.838778" xlink:href="#m097df58ecb" y="302.400931"/>
     <use style="fill:#1f78b4;stroke:#1f78b4;" x="356.979695" xlink:href="#m097df58ecb" y="115.227337"/>
     <use style="fill:#1f78b4;stroke:#1f78b4;" x="519.892547" xlink:href="#m097df58ecb" y="347.432674"/>
     <use style="fill:#1f78b4;stroke:#1f78b4;" x="550.155368" xlink:href="#m097df58ecb" y="307.181255"/>
     <use style="fill:#1f78b4;stroke:#1f78b4;" x="411.615937" xlink:href="#m097df58ecb" y="309.067865"/>
     <use style="fill:#1f78b4;stroke:#1f78b4;" x="409.396807" xlink:href="#m097df58ecb" y="470.153458"/>
     <use style="fill:#1f78b4;stroke:#1f78b4;" x="452.112505" xlink:href="#m097df58ecb" y="205.466344"/>
     <use style="fill:#1f78b4;stroke:#1f78b4;" x="250.309987" xlink:href="#m097df58ecb" y="154.886377"/>
     <use style="fill:#1f78b4;stroke:#1f78b4;" x="676.533089" xlink:href="#m097df58ecb" y="379.280169"/>
     <use style="fill:#1f78b4;stroke:#1f78b4;" x="444.105384" xlink:href="#m097df58ecb" y="426.262424"/>
     <use style="fill:#1f78b4;stroke:#1f78b4;" x="637.004473" xlink:href="#m097df58ecb" y="412.858534"/>
     <use style="fill:#1f78b4;stroke:#1f78b4;" x="399.77563" xlink:href="#m097df58ecb" y="115.057659"/>
     <use style="fill:#1f78b4;stroke:#1f78b4;" x="540.044035" xlink:href="#m097df58ecb" y="261.264134"/>
     <use style="fill:#1f78b4;stroke:#1f78b4;" x="719.494215" xlink:href="#m097df58ecb" y="300.73541"/>
     <use style="fill:#1f78b4;stroke:#1f78b4;" x="464.632935" xlink:href="#m097df58ecb" y="311.022626"/>
     <use style="fill:#1f78b4;stroke:#1f78b4;" x="627.327217" xlink:href="#m097df58ecb" y="168.911405"/>
     <use style="fill:#1f78b4;stroke:#1f78b4;" x="682.963567" xlink:href="#m097df58ecb" y="190.349762"/>
     <use style="fill:#1f78b4;stroke:#1f78b4;" x="711.69718" xlink:href="#m097df58ecb" y="231.514405"/>
     <use style="fill:#1f78b4;stroke:#1f78b4;" x="700.02813" xlink:href="#m097df58ecb" y="231.604917"/>
     <use style="fill:#1f78b4;stroke:#1f78b4;" x="495.033646" xlink:href="#m097df58ecb" y="111.173349"/>
     <use style="fill:#1f78b4;stroke:#1f78b4;" x="667.845445" xlink:href="#m097df58ecb" y="410.750463"/>
     <use style="fill:#1f78b4;stroke:#1f78b4;" x="535.189922" xlink:href="#m097df58ecb" y="267.937758"/>
     <use style="fill:#1f78b4;stroke:#1f78b4;" x="469.157058" xlink:href="#m097df58ecb" y="471.582156"/>
     <use style="fill:#1f78b4;stroke:#1f78b4;" x="268.685447" xlink:href="#m097df58ecb" y="431.37961"/>
     <use style="fill:#1f78b4;stroke:#1f78b4;" x="715.96659" xlink:href="#m097df58ecb" y="275.432779"/>
     <use style="fill:#1f78b4;stroke:#1f78b4;" x="397.24876" xlink:href="#m097df58ecb" y="324.873355"/>
     <use style="fill:#1f78b4;stroke:#1f78b4;" x="406.686152" xlink:href="#m097df58ecb" y="409.506063"/>
     <use style="fill:#1f78b4;stroke:#1f78b4;" x="615.3713" xlink:href="#m097df58ecb" y="433.202353"/>
     <use style="fill:#1f78b4;stroke:#1f78b4;" x="486.086683" xlink:href="#m097df58ecb" y="455.265701"/>
     <use style="fill:#1f78b4;stroke:#1f78b4;" x="576.495799" xlink:href="#m097df58ecb" y="452.065296"/>
     <use style="fill:#1f78b4;stroke:#1f78b4;" x="349.475678" xlink:href="#m097df58ecb" y="300.536854"/>
     <use style="fill:#1f78b4;stroke:#1f78b4;" x="172.949747" xlink:href="#m097df58ecb" y="330.919219"/>
     <use style="fill:#1f78b4;stroke:#1f78b4;" x="330.76525" xlink:href="#m097df58ecb" y="132.327394"/>
     <use style="fill:#1f78b4;stroke:#1f78b4;" x="206.029546" xlink:href="#m097df58ecb" y="221.844824"/>
     <use style="fill:#1f78b4;stroke:#1f78b4;" x="651.217001" xlink:href="#m097df58ecb" y="320.960113"/>
     <use style="fill:#1f78b4;stroke:#1f78b4;" x="346.428469" xlink:href="#m097df58ecb" y="246.457734"/>
     <use style="fill:#1f78b4;stroke:#1f78b4;" x="509.315475" xlink:href="#m097df58ecb" y="153.335573"/>
     <use style="fill:#1f78b4;stroke:#1f78b4;" x="635.999398" xlink:href="#m097df58ecb" y="254.590617"/>
     <use style="fill:#1f78b4;stroke:#1f78b4;" x="393.372739" xlink:href="#m097df58ecb" y="268.749558"/>
     <use style="fill:#1f78b4;stroke:#1f78b4;" x="338.367559" xlink:href="#m097df58ecb" y="164.011214"/>
     <use style="fill:#1f78b4;stroke:#1f78b4;" x="375.089632" xlink:href="#m097df58ecb" y="457.063718"/>
     <use style="fill:#1f78b4;stroke:#1f78b4;" x="718.169647" xlink:href="#m097df58ecb" y="324.730794"/>
     <use style="fill:#1f78b4;stroke:#1f78b4;" x="229.608957" xlink:href="#m097df58ecb" y="181.043194"/>
     <use style="fill:#1f78b4;stroke:#1f78b4;" x="492.344263" xlink:href="#m097df58ecb" y="377.655752"/>
     <use style="fill:#1f78b4;stroke:#1f78b4;" x="588.041416" xlink:href="#m097df58ecb" y="256.716891"/>
     <use style="fill:#1f78b4;stroke:#1f78b4;" x="424.075271" xlink:href="#m097df58ecb" y="377.04766"/>
     <use style="fill:#1f78b4;stroke:#1f78b4;" x="477.890939" xlink:href="#m097df58ecb" y="341.633512"/>
     <use style="fill:#1f78b4;stroke:#1f78b4;" x="512.473156" xlink:href="#m097df58ecb" y="395.132954"/>
     <use style="fill:#1f78b4;stroke:#1f78b4;" x="549.735364" xlink:href="#m097df58ecb" y="457.04826"/>
     <use style="fill:#1f78b4;stroke:#1f78b4;" x="664.84823" xlink:href="#m097df58ecb" y="169.556171"/>
    </g>
   </g>
   <g id="text_1">
    <g clip-path="url(#pc6bf333860)">
     <!-- CCR1 -->
     <g transform="translate(576.006203 135.781468)scale(0.12 -0.12)">
      <defs>
       <path d="M 64.40625 67.28125 
L 64.40625 56.890625 
Q 59.421875 61.53125 53.78125 63.8125 
Q 48.140625 66.109375 41.796875 66.109375 
Q 29.296875 66.109375 22.65625 58.46875 
Q 16.015625 50.828125 16.015625 36.375 
Q 16.015625 21.96875 22.65625 14.328125 
Q 29.296875 6.6875 41.796875 6.6875 
Q 48.140625 6.6875 53.78125 8.984375 
Q 59.421875 11.28125 64.40625 15.921875 
L 64.40625 5.609375 
Q 59.234375 2.09375 53.4375 0.328125 
Q 47.65625 -1.421875 41.21875 -1.421875 
Q 24.65625 -1.421875 15.125 8.703125 
Q 5.609375 18.84375 5.609375 36.375 
Q 5.609375 53.953125 15.125 64.078125 
Q 24.65625 74.21875 41.21875 74.21875 
Q 47.75 74.21875 53.53125 72.484375 
Q 59.328125 70.75 64.40625 67.28125 
z
" id="DejaVuSans-67"/>
       <path d="M 44.390625 34.1875 
Q 47.5625 33.109375 50.5625 29.59375 
Q 53.5625 26.078125 56.59375 19.921875 
L 66.609375 0 
L 56 0 
L 46.6875 18.703125 
Q 43.0625 26.03125 39.671875 28.421875 
Q 36.28125 30.8125 30.421875 30.8125 
L 19.671875 30.8125 
L 19.671875 0 
L 9.8125 0 
L 9.8125 72.90625 
L 32.078125 72.90625 
Q 44.578125 72.90625 50.734375 67.671875 
Q 56.890625 62.453125 56.890625 51.90625 
Q 56.890625 45.015625 53.6875 40.46875 
Q 50.484375 35.9375 44.390625 34.1875 
z
M 19.671875 64.796875 
L 19.671875 38.921875 
L 32.078125 38.921875 
Q 39.203125 38.921875 42.84375 42.21875 
Q 46.484375 45.515625 46.484375 51.90625 
Q 46.484375 58.296875 42.84375 61.546875 
Q 39.203125 64.796875 32.078125 64.796875 
z
" id="DejaVuSans-82"/>
       <path d="M 12.40625 8.296875 
L 28.515625 8.296875 
L 28.515625 63.921875 
L 10.984375 60.40625 
L 10.984375 69.390625 
L 28.421875 72.90625 
L 38.28125 72.90625 
L 38.28125 8.296875 
L 54.390625 8.296875 
L 54.390625 0 
L 12.40625 0 
z
" id="DejaVuSans-49"/>
      </defs>
      <use xlink:href="#DejaVuSans-67"/>
      <use x="69.824219" xlink:href="#DejaVuSans-67"/>
      <use x="139.648438" xlink:href="#DejaVuSans-82"/>
      <use x="209.130859" xlink:href="#DejaVuSans-49"/>
     </g>
    </g>
   </g>
   <g id="text_2">
    <g clip-path="url(#pc6bf333860)">
     <!-- CCL3 -->
     <g transform="translate(368.28773 256.211175)scale(0.12 -0.12)">
      <defs>
       <path d="M 9.8125 72.90625 
L 19.671875 72.90625 
L 19.671875 8.296875 
L 55.171875 8.296875 
L 55.171875 0 
L 9.8125 0 
z
" id="DejaVuSans-76"/>
       <path d="M 40.578125 39.3125 
Q 47.65625 37.796875 51.625 33 
Q 55.609375 28.21875 55.609375 21.1875 
Q 55.609375 10.40625 48.1875 4.484375 
Q 40.765625 -1.421875 27.09375 -1.421875 
Q 22.515625 -1.421875 17.65625 -0.515625 
Q 12.796875 0.390625 7.625 2.203125 
L 7.625 11.71875 
Q 11.71875 9.328125 16.59375 8.109375 
Q 21.484375 6.890625 26.8125 6.890625 
Q 36.078125 6.890625 40.9375 10.546875 
Q 45.796875 14.203125 45.796875 21.1875 
Q 45.796875 27.640625 41.28125 31.265625 
Q 36.765625 34.90625 28.71875 34.90625 
L 20.21875 34.90625 
L 20.21875 43.015625 
L 29.109375 43.015625 
Q 36.375 43.015625 40.234375 45.921875 
Q 44.09375 48.828125 44.09375 54.296875 
Q 44.09375 59.90625 40.109375 62.90625 
Q 36.140625 65.921875 28.71875 65.921875 
Q 24.65625 65.921875 20.015625 65.03125 
Q 15.375 64.15625 9.8125 62.3125 
L 9.8125 71.09375 
Q 15.4375 72.65625 20.34375 73.4375 
Q 25.25 74.21875 29.59375 74.21875 
Q 40.828125 74.21875 47.359375 69.109375 
Q 53.90625 64.015625 53.90625 55.328125 
Q 53.90625 49.265625 50.4375 45.09375 
Q 46.96875 40.921875 40.578125 39.3125 
z
" id="DejaVuSans-51"/>
      </defs>
      <use xlink:href="#DejaVuSans-67"/>
      <use x="69.824219" xlink:href="#DejaVuSans-67"/>
      <use x="139.648438" xlink:href="#DejaVuSans-76"/>
      <use x="195.361328" xlink:href="#DejaVuSans-51"/>
     </g>
    </g>
   </g>
   <g id="text_3">
    <g clip-path="url(#pc6bf333860)">
     <!-- CCL7 -->
     <g transform="translate(376.577936 242.210483)scale(0.12 -0.12)">
      <defs>
       <path d="M 8.203125 72.90625 
L 55.078125 72.90625 
L 55.078125 68.703125 
L 28.609375 0 
L 18.3125 0 
L 43.21875 64.59375 
L 8.203125 64.59375 
z
" id="DejaVuSans-55"/>
      </defs>
      <use xlink:href="#DejaVuSans-67"/>
      <use x="69.824219" xlink:href="#DejaVuSans-67"/>
      <use x="139.648438" xlink:href="#DejaVuSans-76"/>
      <use x="195.361328" xlink:href="#DejaVuSans-55"/>
     </g>
    </g>
   </g>
   <g id="text_4">
    <g clip-path="url(#pc6bf333860)">
     <!-- CCR2 -->
     <g transform="translate(164.588325 223.960378)scale(0.12 -0.12)">
      <defs>
       <path d="M 19.1875 8.296875 
L 53.609375 8.296875 
L 53.609375 0 
L 7.328125 0 
L 7.328125 8.296875 
Q 12.9375 14.109375 22.625 23.890625 
Q 32.328125 33.6875 34.8125 36.53125 
Q 39.546875 41.84375 41.421875 45.53125 
Q 43.3125 49.21875 43.3125 52.78125 
Q 43.3125 58.59375 39.234375 62.25 
Q 35.15625 65.921875 28.609375 65.921875 
Q 23.96875 65.921875 18.8125 64.3125 
Q 13.671875 62.703125 7.8125 59.421875 
L 7.8125 69.390625 
Q 13.765625 71.78125 18.9375 73 
Q 24.125 74.21875 28.421875 74.21875 
Q 39.75 74.21875 46.484375 68.546875 
Q 53.21875 62.890625 53.21875 53.421875 
Q 53.21875 48.921875 51.53125 44.890625 
Q 49.859375 40.875 45.40625 35.40625 
Q 44.1875 33.984375 37.640625 27.21875 
Q 31.109375 20.453125 19.1875 8.296875 
z
" id="DejaVuSans-50"/>
      </defs>
      <use xlink:href="#DejaVuSans-67"/>
      <use x="69.824219" xlink:href="#DejaVuSans-67"/>
      <use x="139.648438" xlink:href="#DejaVuSans-82"/>
      <use x="209.130859" xlink:href="#DejaVuSans-50"/>
     </g>
    </g>
   </g>
   <g id="text_5">
    <g clip-path="url(#pc6bf333860)">
     <!-- CCL2 -->
     <g transform="translate(174.63905 309.132409)scale(0.12 -0.12)">
      <use xlink:href="#DejaVuSans-67"/>
      <use x="69.824219" xlink:href="#DejaVuSans-67"/>
      <use x="139.648438" xlink:href="#DejaVuSans-76"/>
      <use x="195.361328" xlink:href="#DejaVuSans-50"/>
     </g>
    </g>
   </g>
   <g id="text_6">
    <g clip-path="url(#pc6bf333860)">
     <!-- CCR3 -->
     <g transform="translate(173.48737 195.236998)scale(0.12 -0.12)">
      <use xlink:href="#DejaVuSans-67"/>
      <use x="69.824219" xlink:href="#DejaVuSans-67"/>
      <use x="139.648438" xlink:href="#DejaVuSans-82"/>
      <use x="209.130859" xlink:href="#DejaVuSans-51"/>
     </g>
    </g>
   </g>
   <g id="text_7">
    <g clip-path="url(#pc6bf333860)">
     <!-- CCL5 -->
     <g transform="translate(403.776463 237.124353)scale(0.12 -0.12)">
      <defs>
       <path d="M 10.796875 72.90625 
L 49.515625 72.90625 
L 49.515625 64.59375 
L 19.828125 64.59375 
L 19.828125 46.734375 
Q 21.96875 47.46875 24.109375 47.828125 
Q 26.265625 48.1875 28.421875 48.1875 
Q 40.625 48.1875 47.75 41.5 
Q 54.890625 34.8125 54.890625 23.390625 
Q 54.890625 11.625 47.5625 5.09375 
Q 40.234375 -1.421875 26.90625 -1.421875 
Q 22.3125 -1.421875 17.546875 -0.640625 
Q 12.796875 0.140625 7.71875 1.703125 
L 7.71875 11.625 
Q 12.109375 9.234375 16.796875 8.0625 
Q 21.484375 6.890625 26.703125 6.890625 
Q 35.15625 6.890625 40.078125 11.328125 
Q 45.015625 15.765625 45.015625 23.390625 
Q 45.015625 31 40.078125 35.4375 
Q 35.15625 39.890625 26.703125 39.890625 
Q 22.75 39.890625 18.8125 39.015625 
Q 14.890625 38.140625 10.796875 36.28125 
z
" id="DejaVuSans-53"/>
      </defs>
      <use xlink:href="#DejaVuSans-67"/>
      <use x="69.824219" xlink:href="#DejaVuSans-67"/>
      <use x="139.648438" xlink:href="#DejaVuSans-76"/>
      <use x="195.361328" xlink:href="#DejaVuSans-53"/>
     </g>
    </g>
   </g>
   <g id="text_8">
    <g clip-path="url(#pc6bf333860)">
     <!-- CCL11 -->
     <g transform="translate(146.748285 249.019449)scale(0.12 -0.12)">
      <use xlink:href="#DejaVuSans-67"/>
      <use x="69.824219" xlink:href="#DejaVuSans-67"/>
      <use x="139.648438" xlink:href="#DejaVuSans-76"/>
      <use x="195.361328" xlink:href="#DejaVuSans-49"/>
      <use x="258.984375" xlink:href="#DejaVuSans-49"/>
     </g>
    </g>
   </g>
   <g id="text_9">
    <g clip-path="url(#pc6bf333860)">
     <!-- CCL13 -->
     <g transform="translate(313.277221 153.587796)scale(0.12 -0.12)">
      <use xlink:href="#DejaVuSans-67"/>
      <use x="69.824219" xlink:href="#DejaVuSans-67"/>
      <use x="139.648438" xlink:href="#DejaVuSans-76"/>
      <use x="195.361328" xlink:href="#DejaVuSans-49"/>
      <use x="258.984375" xlink:href="#DejaVuSans-51"/>
     </g>
    </g>
   </g>
   <g id="text_10">
    <g clip-path="url(#pc6bf333860)">
     <!-- CCL26 -->
     <g transform="translate(357.773562 175.112784)scale(0.12 -0.12)">
      <defs>
       <path d="M 33.015625 40.375 
Q 26.375 40.375 22.484375 35.828125 
Q 18.609375 31.296875 18.609375 23.390625 
Q 18.609375 15.53125 22.484375 10.953125 
Q 26.375 6.390625 33.015625 6.390625 
Q 39.65625 6.390625 43.53125 10.953125 
Q 47.40625 15.53125 47.40625 23.390625 
Q 47.40625 31.296875 43.53125 35.828125 
Q 39.65625 40.375 33.015625 40.375 
z
M 52.59375 71.296875 
L 52.59375 62.3125 
Q 48.875 64.0625 45.09375 64.984375 
Q 41.3125 65.921875 37.59375 65.921875 
Q 27.828125 65.921875 22.671875 59.328125 
Q 17.53125 52.734375 16.796875 39.40625 
Q 19.671875 43.65625 24.015625 45.921875 
Q 28.375 48.1875 33.59375 48.1875 
Q 44.578125 48.1875 50.953125 41.515625 
Q 57.328125 34.859375 57.328125 23.390625 
Q 57.328125 12.15625 50.6875 5.359375 
Q 44.046875 -1.421875 33.015625 -1.421875 
Q 20.359375 -1.421875 13.671875 8.265625 
Q 6.984375 17.96875 6.984375 36.375 
Q 6.984375 53.65625 15.1875 63.9375 
Q 23.390625 74.21875 37.203125 74.21875 
Q 40.921875 74.21875 44.703125 73.484375 
Q 48.484375 72.75 52.59375 71.296875 
z
" id="DejaVuSans-54"/>
      </defs>
      <use xlink:href="#DejaVuSans-67"/>
      <use x="69.824219" xlink:href="#DejaVuSans-67"/>
      <use x="139.648438" xlink:href="#DejaVuSans-76"/>
      <use x="195.361328" xlink:href="#DejaVuSans-50"/>
      <use x="258.984375" xlink:href="#DejaVuSans-54"/>
     </g>
    </g>
   </g>
   <g id="text_11">
    <g clip-path="url(#pc6bf333860)">
     <!-- CCL28 -->
     <g transform="translate(435.253781 265.08939)scale(0.12 -0.12)">
      <defs>
       <path d="M 31.78125 34.625 
Q 24.75 34.625 20.71875 30.859375 
Q 16.703125 27.09375 16.703125 20.515625 
Q 16.703125 13.921875 20.71875 10.15625 
Q 24.75 6.390625 31.78125 6.390625 
Q 38.8125 6.390625 42.859375 10.171875 
Q 46.921875 13.96875 46.921875 20.515625 
Q 46.921875 27.09375 42.890625 30.859375 
Q 38.875 34.625 31.78125 34.625 
z
M 21.921875 38.8125 
Q 15.578125 40.375 12.03125 44.71875 
Q 8.5 49.078125 8.5 55.328125 
Q 8.5 64.0625 14.71875 69.140625 
Q 20.953125 74.21875 31.78125 74.21875 
Q 42.671875 74.21875 48.875 69.140625 
Q 55.078125 64.0625 55.078125 55.328125 
Q 55.078125 49.078125 51.53125 44.71875 
Q 48 40.375 41.703125 38.8125 
Q 48.828125 37.15625 52.796875 32.3125 
Q 56.78125 27.484375 56.78125 20.515625 
Q 56.78125 9.90625 50.3125 4.234375 
Q 43.84375 -1.421875 31.78125 -1.421875 
Q 19.734375 -1.421875 13.25 4.234375 
Q 6.78125 9.90625 6.78125 20.515625 
Q 6.78125 27.484375 10.78125 32.3125 
Q 14.796875 37.15625 21.921875 38.8125 
z
M 18.3125 54.390625 
Q 18.3125 48.734375 21.84375 45.5625 
Q 25.390625 42.390625 31.78125 42.390625 
Q 38.140625 42.390625 41.71875 45.5625 
Q 45.3125 48.734375 45.3125 54.390625 
Q 45.3125 60.0625 41.71875 63.234375 
Q 38.140625 66.40625 31.78125 66.40625 
Q 25.390625 66.40625 21.84375 63.234375 
Q 18.3125 60.0625 18.3125 54.390625 
z
" id="DejaVuSans-56"/>
      </defs>
      <use xlink:href="#DejaVuSans-67"/>
      <use x="69.824219" xlink:href="#DejaVuSans-67"/>
      <use x="139.648438" xlink:href="#DejaVuSans-76"/>
      <use x="195.361328" xlink:href="#DejaVuSans-50"/>
      <use x="258.984375" xlink:href="#DejaVuSans-56"/>
     </g>
    </g>
   </g>
   <g id="text_12">
    <g clip-path="url(#pc6bf333860)">
     <!-- CCR4 -->
     <g transform="translate(673.861135 214.198445)scale(0.12 -0.12)">
      <defs>
       <path d="M 37.796875 64.3125 
L 12.890625 25.390625 
L 37.796875 25.390625 
z
M 35.203125 72.90625 
L 47.609375 72.90625 
L 47.609375 25.390625 
L 58.015625 25.390625 
L 58.015625 17.1875 
L 47.609375 17.1875 
L 47.609375 0 
L 37.796875 0 
L 37.796875 17.1875 
L 4.890625 17.1875 
L 4.890625 26.703125 
z
" id="DejaVuSans-52"/>
      </defs>
      <use xlink:href="#DejaVuSans-67"/>
      <use x="69.824219" xlink:href="#DejaVuSans-67"/>
      <use x="139.648438" xlink:href="#DejaVuSans-82"/>
      <use x="209.130859" xlink:href="#DejaVuSans-52"/>
     </g>
    </g>
   </g>
   <g id="text_13">
    <g clip-path="url(#pc6bf333860)">
     <!-- CCL17 -->
     <g transform="translate(455.502618 234.003536)scale(0.12 -0.12)">
      <use xlink:href="#DejaVuSans-67"/>
      <use x="69.824219" xlink:href="#DejaVuSans-67"/>
      <use x="139.648438" xlink:href="#DejaVuSans-76"/>
      <use x="195.361328" xlink:href="#DejaVuSans-49"/>
      <use x="258.984375" xlink:href="#DejaVuSans-55"/>
     </g>
    </g>
   </g>
   <g id="text_14">
    <g clip-path="url(#pc6bf333860)">
     <!-- CCL22 -->
     <g transform="translate(619.232407 158.279565)scale(0.12 -0.12)">
      <use xlink:href="#DejaVuSans-67"/>
      <use x="69.824219" xlink:href="#DejaVuSans-67"/>
      <use x="139.648438" xlink:href="#DejaVuSans-76"/>
      <use x="195.361328" xlink:href="#DejaVuSans-50"/>
      <use x="258.984375" xlink:href="#DejaVuSans-50"/>
     </g>
    </g>
   </g>
   <g id="text_15">
    <g clip-path="url(#pc6bf333860)">
     <!-- CCR5 -->
     <g transform="translate(218.743686 400.26552)scale(0.12 -0.12)">
      <use xlink:href="#DejaVuSans-67"/>
      <use x="69.824219" xlink:href="#DejaVuSans-67"/>
      <use x="139.648438" xlink:href="#DejaVuSans-82"/>
      <use x="209.130859" xlink:href="#DejaVuSans-53"/>
     </g>
    </g>
   </g>
   <g id="text_16">
    <g clip-path="url(#pc6bf333860)">
     <!-- CCL4 -->
     <g transform="translate(314.305844 432.776675)scale(0.12 -0.12)">
      <use xlink:href="#DejaVuSans-67"/>
      <use x="69.824219" xlink:href="#DejaVuSans-67"/>
      <use x="139.648438" xlink:href="#DejaVuSans-76"/>
      <use x="195.361328" xlink:href="#DejaVuSans-52"/>
     </g>
    </g>
   </g>
   <g id="text_17">
    <g clip-path="url(#pc6bf333860)">
     <!-- CCL20 -->
     <g transform="translate(330.008989 214.025986)scale(0.12 -0.12)">
      <defs>
       <path d="M 31.78125 66.40625 
Q 24.171875 66.40625 20.328125 58.90625 
Q 16.5 51.421875 16.5 36.375 
Q 16.5 21.390625 20.328125 13.890625 
Q 24.171875 6.390625 31.78125 6.390625 
Q 39.453125 6.390625 43.28125 13.890625 
Q 47.125 21.390625 47.125 36.375 
Q 47.125 51.421875 43.28125 58.90625 
Q 39.453125 66.40625 31.78125 66.40625 
z
M 31.78125 74.21875 
Q 44.046875 74.21875 50.515625 64.515625 
Q 56.984375 54.828125 56.984375 36.375 
Q 56.984375 17.96875 50.515625 8.265625 
Q 44.046875 -1.421875 31.78125 -1.421875 
Q 19.53125 -1.421875 13.0625 8.265625 
Q 6.59375 17.96875 6.59375 36.375 
Q 6.59375 54.828125 13.0625 64.515625 
Q 19.53125 74.21875 31.78125 74.21875 
z
" id="DejaVuSans-48"/>
      </defs>
      <use xlink:href="#DejaVuSans-67"/>
      <use x="69.824219" xlink:href="#DejaVuSans-67"/>
      <use x="139.648438" xlink:href="#DejaVuSans-76"/>
      <use x="195.361328" xlink:href="#DejaVuSans-50"/>
      <use x="258.984375" xlink:href="#DejaVuSans-48"/>
     </g>
    </g>
   </g>
   <g id="text_18">
    <g clip-path="url(#pc6bf333860)">
     <!-- CCR6 -->
     <g transform="translate(528.993834 125.016631)scale(0.12 -0.12)">
      <use xlink:href="#DejaVuSans-67"/>
      <use x="69.824219" xlink:href="#DejaVuSans-67"/>
      <use x="139.648438" xlink:href="#DejaVuSans-82"/>
      <use x="209.130859" xlink:href="#DejaVuSans-54"/>
     </g>
    </g>
   </g>
   <g id="text_19">
    <g clip-path="url(#pc6bf333860)">
     <!-- CCL1 -->
     <g transform="translate(335.584003 269.356253)scale(0.12 -0.12)">
      <use xlink:href="#DejaVuSans-67"/>
      <use x="69.824219" xlink:href="#DejaVuSans-67"/>
      <use x="139.648438" xlink:href="#DejaVuSans-76"/>
      <use x="195.361328" xlink:href="#DejaVuSans-49"/>
     </g>
    </g>
   </g>
   <g id="text_20">
    <g clip-path="url(#pc6bf333860)">
     <!-- CCR8 -->
     <g transform="translate(420.422929 110.918523)scale(0.12 -0.12)">
      <use xlink:href="#DejaVuSans-67"/>
      <use x="69.824219" xlink:href="#DejaVuSans-67"/>
      <use x="139.648438" xlink:href="#DejaVuSans-82"/>
      <use x="209.130859" xlink:href="#DejaVuSans-56"/>
     </g>
    </g>
   </g>
   <g id="text_21">
    <g clip-path="url(#pc6bf333860)">
     <!-- CCL25 -->
     <g transform="translate(455.784751 332.682)scale(0.12 -0.12)">
      <use xlink:href="#DejaVuSans-67"/>
      <use x="69.824219" xlink:href="#DejaVuSans-67"/>
      <use x="139.648438" xlink:href="#DejaVuSans-76"/>
      <use x="195.361328" xlink:href="#DejaVuSans-50"/>
      <use x="258.984375" xlink:href="#DejaVuSans-53"/>
     </g>
    </g>
   </g>
   <g id="text_22">
    <g clip-path="url(#pc6bf333860)">
     <!-- CCR10 -->
     <g transform="translate(688.343254 353.050373)scale(0.12 -0.12)">
      <use xlink:href="#DejaVuSans-67"/>
      <use x="69.824219" xlink:href="#DejaVuSans-67"/>
      <use x="139.648438" xlink:href="#DejaVuSans-82"/>
      <use x="209.130859" xlink:href="#DejaVuSans-49"/>
      <use x="272.753906" xlink:href="#DejaVuSans-48"/>
     </g>
    </g>
   </g>
   <g id="text_23">
    <g clip-path="url(#pc6bf333860)">
     <!-- CCL19 -->
     <g transform="translate(434.601598 282.512534)scale(0.12 -0.12)">
      <defs>
       <path d="M 10.984375 1.515625 
L 10.984375 10.5 
Q 14.703125 8.734375 18.5 7.8125 
Q 22.3125 6.890625 25.984375 6.890625 
Q 35.75 6.890625 40.890625 13.453125 
Q 46.046875 20.015625 46.78125 33.40625 
Q 43.953125 29.203125 39.59375 26.953125 
Q 35.25 24.703125 29.984375 24.703125 
Q 19.046875 24.703125 12.671875 31.3125 
Q 6.296875 37.9375 6.296875 49.421875 
Q 6.296875 60.640625 12.9375 67.421875 
Q 19.578125 74.21875 30.609375 74.21875 
Q 43.265625 74.21875 49.921875 64.515625 
Q 56.59375 54.828125 56.59375 36.375 
Q 56.59375 19.140625 48.40625 8.859375 
Q 40.234375 -1.421875 26.421875 -1.421875 
Q 22.703125 -1.421875 18.890625 -0.6875 
Q 15.09375 0.046875 10.984375 1.515625 
z
M 30.609375 32.421875 
Q 37.25 32.421875 41.125 36.953125 
Q 45.015625 41.5 45.015625 49.421875 
Q 45.015625 57.28125 41.125 61.84375 
Q 37.25 66.40625 30.609375 66.40625 
Q 23.96875 66.40625 20.09375 61.84375 
Q 16.21875 57.28125 16.21875 49.421875 
Q 16.21875 41.5 20.09375 36.953125 
Q 23.96875 32.421875 30.609375 32.421875 
z
" id="DejaVuSans-57"/>
      </defs>
      <use xlink:href="#DejaVuSans-67"/>
      <use x="69.824219" xlink:href="#DejaVuSans-67"/>
      <use x="139.648438" xlink:href="#DejaVuSans-76"/>
      <use x="195.361328" xlink:href="#DejaVuSans-49"/>
      <use x="258.984375" xlink:href="#DejaVuSans-57"/>
     </g>
    </g>
   </g>
   <g id="text_24">
    <g clip-path="url(#pc6bf333860)">
     <!-- CCL21 -->
     <g transform="translate(476.716 235.474873)scale(0.12 -0.12)">
      <use xlink:href="#DejaVuSans-67"/>
      <use x="69.824219" xlink:href="#DejaVuSans-67"/>
      <use x="139.648438" xlink:href="#DejaVuSans-76"/>
      <use x="195.361328" xlink:href="#DejaVuSans-50"/>
      <use x="258.984375" xlink:href="#DejaVuSans-49"/>
     </g>
    </g>
   </g>
   <g id="text_25">
    <g clip-path="url(#pc6bf333860)">
     <!-- CX3CL1 -->
     <g transform="translate(550.875565 331.002637)scale(0.12 -0.12)">
      <defs>
       <path d="M 6.296875 72.90625 
L 16.890625 72.90625 
L 35.015625 45.796875 
L 53.21875 72.90625 
L 63.8125 72.90625 
L 40.375 37.890625 
L 65.375 0 
L 54.78125 0 
L 34.28125 31 
L 13.625 0 
L 2.984375 0 
L 29 38.921875 
z
" id="DejaVuSans-88"/>
      </defs>
      <use xlink:href="#DejaVuSans-67"/>
      <use x="69.824219" xlink:href="#DejaVuSans-88"/>
      <use x="138.330078" xlink:href="#DejaVuSans-51"/>
      <use x="201.953125" xlink:href="#DejaVuSans-67"/>
      <use x="271.777344" xlink:href="#DejaVuSans-76"/>
      <use x="327.490234" xlink:href="#DejaVuSans-49"/>
     </g>
    </g>
   </g>
   <g id="text_26">
    <g clip-path="url(#pc6bf333860)">
     <!-- CX3CR1 -->
     <g transform="translate(408.10664 477.463977)scale(0.12 -0.12)">
      <use xlink:href="#DejaVuSans-67"/>
      <use x="69.824219" xlink:href="#DejaVuSans-88"/>
      <use x="138.330078" xlink:href="#DejaVuSans-51"/>
      <use x="201.953125" xlink:href="#DejaVuSans-67"/>
      <use x="271.777344" xlink:href="#DejaVuSans-82"/>
      <use x="341.259766" xlink:href="#DejaVuSans-49"/>
     </g>
    </g>
   </g>
   <g id="text_27">
    <g clip-path="url(#pc6bf333860)">
     <!-- CXCR2 -->
     <g transform="translate(186.846822 399.128292)scale(0.12 -0.12)">
      <use xlink:href="#DejaVuSans-67"/>
      <use x="69.824219" xlink:href="#DejaVuSans-88"/>
      <use x="131.080078" xlink:href="#DejaVuSans-67"/>
      <use x="200.904297" xlink:href="#DejaVuSans-82"/>
      <use x="270.386719" xlink:href="#DejaVuSans-50"/>
     </g>
    </g>
   </g>
   <g id="text_28">
    <g clip-path="url(#pc6bf333860)">
     <!-- PPBP -->
     <g transform="translate(459.784962 350.011594)scale(0.12 -0.12)">
      <defs>
       <path d="M 19.671875 64.796875 
L 19.671875 37.40625 
L 32.078125 37.40625 
Q 38.96875 37.40625 42.71875 40.96875 
Q 46.484375 44.53125 46.484375 51.125 
Q 46.484375 57.671875 42.71875 61.234375 
Q 38.96875 64.796875 32.078125 64.796875 
z
M 9.8125 72.90625 
L 32.078125 72.90625 
Q 44.34375 72.90625 50.609375 67.359375 
Q 56.890625 61.8125 56.890625 51.125 
Q 56.890625 40.328125 50.609375 34.8125 
Q 44.34375 29.296875 32.078125 29.296875 
L 19.671875 29.296875 
L 19.671875 0 
L 9.8125 0 
z
" id="DejaVuSans-80"/>
       <path d="M 19.671875 34.8125 
L 19.671875 8.109375 
L 35.5 8.109375 
Q 43.453125 8.109375 47.28125 11.40625 
Q 51.125 14.703125 51.125 21.484375 
Q 51.125 28.328125 47.28125 31.5625 
Q 43.453125 34.8125 35.5 34.8125 
z
M 19.671875 64.796875 
L 19.671875 42.828125 
L 34.28125 42.828125 
Q 41.5 42.828125 45.03125 45.53125 
Q 48.578125 48.25 48.578125 53.8125 
Q 48.578125 59.328125 45.03125 62.0625 
Q 41.5 64.796875 34.28125 64.796875 
z
M 9.8125 72.90625 
L 35.015625 72.90625 
Q 46.296875 72.90625 52.390625 68.21875 
Q 58.5 63.53125 58.5 54.890625 
Q 58.5 48.1875 55.375 44.234375 
Q 52.25 40.28125 46.1875 39.3125 
Q 53.46875 37.75 57.5 32.78125 
Q 61.53125 27.828125 61.53125 20.40625 
Q 61.53125 10.640625 54.890625 5.3125 
Q 48.25 0 35.984375 0 
L 9.8125 0 
z
" id="DejaVuSans-66"/>
      </defs>
      <use xlink:href="#DejaVuSans-80"/>
      <use x="60.302734" xlink:href="#DejaVuSans-80"/>
      <use x="120.605469" xlink:href="#DejaVuSans-66"/>
      <use x="189.208984" xlink:href="#DejaVuSans-80"/>
     </g>
    </g>
   </g>
   <g id="text_29">
    <g clip-path="url(#pc6bf333860)">
     <!-- CXCR3 -->
     <g transform="translate(496.432909 472.160399)scale(0.12 -0.12)">
      <use xlink:href="#DejaVuSans-67"/>
      <use x="69.824219" xlink:href="#DejaVuSans-88"/>
      <use x="131.080078" xlink:href="#DejaVuSans-67"/>
      <use x="200.904297" xlink:href="#DejaVuSans-82"/>
      <use x="270.386719" xlink:href="#DejaVuSans-51"/>
     </g>
    </g>
   </g>
   <g id="text_30">
    <g clip-path="url(#pc6bf333860)">
     <!-- CXCL13 -->
     <g transform="translate(374.806278 305.712181)scale(0.12 -0.12)">
      <use xlink:href="#DejaVuSans-67"/>
      <use x="69.824219" xlink:href="#DejaVuSans-88"/>
      <use x="131.080078" xlink:href="#DejaVuSans-67"/>
      <use x="200.904297" xlink:href="#DejaVuSans-76"/>
      <use x="256.617188" xlink:href="#DejaVuSans-49"/>
      <use x="320.240234" xlink:href="#DejaVuSans-51"/>
     </g>
    </g>
   </g>
   <g id="text_31">
    <g clip-path="url(#pc6bf333860)">
     <!-- CXCR5 -->
     <g transform="translate(336.938758 118.538587)scale(0.12 -0.12)">
      <use xlink:href="#DejaVuSans-67"/>
      <use x="69.824219" xlink:href="#DejaVuSans-88"/>
      <use x="131.080078" xlink:href="#DejaVuSans-67"/>
      <use x="200.904297" xlink:href="#DejaVuSans-82"/>
      <use x="270.386719" xlink:href="#DejaVuSans-53"/>
     </g>
    </g>
   </g>
   <g id="text_32">
    <g clip-path="url(#pc6bf333860)">
     <!-- PF4 -->
     <g transform="translate(509.006297 350.743924)scale(0.12 -0.12)">
      <defs>
       <path d="M 9.8125 72.90625 
L 51.703125 72.90625 
L 51.703125 64.59375 
L 19.671875 64.59375 
L 19.671875 43.109375 
L 48.578125 43.109375 
L 48.578125 34.8125 
L 19.671875 34.8125 
L 19.671875 0 
L 9.8125 0 
z
" id="DejaVuSans-70"/>
      </defs>
      <use xlink:href="#DejaVuSans-80"/>
      <use x="60.302734" xlink:href="#DejaVuSans-70"/>
      <use x="117.822266" xlink:href="#DejaVuSans-52"/>
     </g>
    </g>
   </g>
   <g id="text_33">
    <g clip-path="url(#pc6bf333860)">
     <!-- CXCL9 -->
     <g transform="translate(530.940368 310.492505)scale(0.12 -0.12)">
      <use xlink:href="#DejaVuSans-67"/>
      <use x="69.824219" xlink:href="#DejaVuSans-88"/>
      <use x="131.080078" xlink:href="#DejaVuSans-67"/>
      <use x="200.904297" xlink:href="#DejaVuSans-76"/>
      <use x="256.617188" xlink:href="#DejaVuSans-57"/>
     </g>
    </g>
   </g>
   <g id="text_34">
    <g clip-path="url(#pc6bf333860)">
     <!-- CXCL10 -->
     <g transform="translate(388.583437 312.379115)scale(0.12 -0.12)">
      <use xlink:href="#DejaVuSans-67"/>
      <use x="69.824219" xlink:href="#DejaVuSans-88"/>
      <use x="131.080078" xlink:href="#DejaVuSans-67"/>
      <use x="200.904297" xlink:href="#DejaVuSans-76"/>
      <use x="256.617188" xlink:href="#DejaVuSans-49"/>
      <use x="320.240234" xlink:href="#DejaVuSans-48"/>
     </g>
    </g>
   </g>
   <g id="text_35">
    <g clip-path="url(#pc6bf333860)">
     <!-- CXCL11 -->
     <g transform="translate(386.364307 473.464708)scale(0.12 -0.12)">
      <use xlink:href="#DejaVuSans-67"/>
      <use x="69.824219" xlink:href="#DejaVuSans-88"/>
      <use x="131.080078" xlink:href="#DejaVuSans-67"/>
      <use x="200.904297" xlink:href="#DejaVuSans-76"/>
      <use x="256.617188" xlink:href="#DejaVuSans-49"/>
      <use x="320.240234" xlink:href="#DejaVuSans-49"/>
     </g>
    </g>
   </g>
   <g id="text_36">
    <g clip-path="url(#pc6bf333860)">
     <!-- CXCL12 -->
     <g transform="translate(429.080005 208.777594)scale(0.12 -0.12)">
      <use xlink:href="#DejaVuSans-67"/>
      <use x="69.824219" xlink:href="#DejaVuSans-88"/>
      <use x="131.080078" xlink:href="#DejaVuSans-67"/>
      <use x="200.904297" xlink:href="#DejaVuSans-76"/>
      <use x="256.617188" xlink:href="#DejaVuSans-49"/>
      <use x="320.240234" xlink:href="#DejaVuSans-50"/>
     </g>
    </g>
   </g>
   <g id="text_37">
    <g clip-path="url(#pc6bf333860)">
     <!-- CXCR4 -->
     <g transform="translate(230.269049 158.197627)scale(0.12 -0.12)">
      <use xlink:href="#DejaVuSans-67"/>
      <use x="69.824219" xlink:href="#DejaVuSans-88"/>
      <use x="131.080078" xlink:href="#DejaVuSans-67"/>
      <use x="200.904297" xlink:href="#DejaVuSans-82"/>
      <use x="270.386719" xlink:href="#DejaVuSans-52"/>
     </g>
    </g>
   </g>
   <g id="text_38">
    <g clip-path="url(#pc6bf333860)">
     <!-- XCR1 -->
     <g transform="translate(660.681839 382.591419)scale(0.12 -0.12)">
      <use xlink:href="#DejaVuSans-88"/>
      <use x="61.255859" xlink:href="#DejaVuSans-67"/>
      <use x="131.080078" xlink:href="#DejaVuSans-82"/>
      <use x="200.5625" xlink:href="#DejaVuSans-49"/>
     </g>
    </g>
   </g>
   <g id="text_39">
    <g clip-path="url(#pc6bf333860)">
     <!-- XCL1 -->
     <g transform="translate(429.080072 429.573674)scale(0.12 -0.12)">
      <use xlink:href="#DejaVuSans-88"/>
      <use x="61.255859" xlink:href="#DejaVuSans-67"/>
      <use x="131.080078" xlink:href="#DejaVuSans-76"/>
      <use x="186.792969" xlink:href="#DejaVuSans-49"/>
     </g>
    </g>
   </g>
   <g id="text_40">
    <g clip-path="url(#pc6bf333860)">
     <!-- IL10RB -->
     <g transform="translate(615.970723 416.169784)scale(0.12 -0.12)">
      <defs>
       <path d="M 9.8125 72.90625 
L 19.671875 72.90625 
L 19.671875 0 
L 9.8125 0 
z
" id="DejaVuSans-73"/>
      </defs>
      <use xlink:href="#DejaVuSans-73"/>
      <use x="29.492188" xlink:href="#DejaVuSans-76"/>
      <use x="85.205078" xlink:href="#DejaVuSans-49"/>
      <use x="148.828125" xlink:href="#DejaVuSans-48"/>
      <use x="212.451172" xlink:href="#DejaVuSans-82"/>
      <use x="281.933594" xlink:href="#DejaVuSans-66"/>
     </g>
    </g>
   </g>
   <g id="text_41">
    <g clip-path="url(#pc6bf333860)">
     <!-- IL10RA -->
     <g transform="translate(378.994068 118.368909)scale(0.12 -0.12)">
      <defs>
       <path d="M 34.1875 63.1875 
L 20.796875 26.90625 
L 47.609375 26.90625 
z
M 28.609375 72.90625 
L 39.796875 72.90625 
L 67.578125 0 
L 57.328125 0 
L 50.6875 18.703125 
L 17.828125 18.703125 
L 11.1875 0 
L 0.78125 0 
z
" id="DejaVuSans-65"/>
      </defs>
      <use xlink:href="#DejaVuSans-73"/>
      <use x="29.492188" xlink:href="#DejaVuSans-76"/>
      <use x="85.205078" xlink:href="#DejaVuSans-49"/>
      <use x="148.828125" xlink:href="#DejaVuSans-48"/>
      <use x="212.451172" xlink:href="#DejaVuSans-82"/>
      <use x="277.933594" xlink:href="#DejaVuSans-65"/>
     </g>
    </g>
   </g>
   <g id="text_42">
    <g clip-path="url(#pc6bf333860)">
     <!-- IL10 -->
     <g transform="translate(527.29591 264.575384)scale(0.12 -0.12)">
      <use xlink:href="#DejaVuSans-73"/>
      <use x="29.492188" xlink:href="#DejaVuSans-76"/>
      <use x="85.205078" xlink:href="#DejaVuSans-49"/>
      <use x="148.828125" xlink:href="#DejaVuSans-48"/>
     </g>
    </g>
   </g>
   <g id="text_43">
    <g clip-path="url(#pc6bf333860)">
     <!-- IL6R -->
     <g transform="translate(706.394527 304.04666)scale(0.12 -0.12)">
      <use xlink:href="#DejaVuSans-73"/>
      <use x="29.492188" xlink:href="#DejaVuSans-76"/>
      <use x="85.205078" xlink:href="#DejaVuSans-54"/>
      <use x="148.828125" xlink:href="#DejaVuSans-82"/>
     </g>
    </g>
   </g>
   <g id="text_44">
    <g clip-path="url(#pc6bf333860)">
     <!-- IL6 -->
     <g transform="translate(455.70231 314.333876)scale(0.12 -0.12)">
      <use xlink:href="#DejaVuSans-73"/>
      <use x="29.492188" xlink:href="#DejaVuSans-76"/>
      <use x="85.205078" xlink:href="#DejaVuSans-54"/>
     </g>
    </g>
   </g>
   <g id="text_45">
    <g clip-path="url(#pc6bf333860)">
     <!-- IL2RG -->
     <g transform="translate(609.578467 172.222655)scale(0.12 -0.12)">
      <defs>
       <path d="M 59.515625 10.40625 
L 59.515625 29.984375 
L 43.40625 29.984375 
L 43.40625 38.09375 
L 69.28125 38.09375 
L 69.28125 6.78125 
Q 63.578125 2.734375 56.6875 0.65625 
Q 49.8125 -1.421875 42 -1.421875 
Q 24.90625 -1.421875 15.25 8.5625 
Q 5.609375 18.5625 5.609375 36.375 
Q 5.609375 54.25 15.25 64.234375 
Q 24.90625 74.21875 42 74.21875 
Q 49.125 74.21875 55.546875 72.453125 
Q 61.96875 70.703125 67.390625 67.28125 
L 67.390625 56.78125 
Q 61.921875 61.421875 55.765625 63.765625 
Q 49.609375 66.109375 42.828125 66.109375 
Q 29.4375 66.109375 22.71875 58.640625 
Q 16.015625 51.171875 16.015625 36.375 
Q 16.015625 21.625 22.71875 14.15625 
Q 29.4375 6.6875 42.828125 6.6875 
Q 48.046875 6.6875 52.140625 7.59375 
Q 56.25 8.5 59.515625 10.40625 
z
" id="DejaVuSans-71"/>
      </defs>
      <use xlink:href="#DejaVuSans-73"/>
      <use x="29.492188" xlink:href="#DejaVuSans-76"/>
      <use x="85.205078" xlink:href="#DejaVuSans-50"/>
      <use x="148.828125" xlink:href="#DejaVuSans-82"/>
      <use x="218.310547" xlink:href="#DejaVuSans-71"/>
     </g>
    </g>
   </g>
   <g id="text_46">
    <g clip-path="url(#pc6bf333860)">
     <!-- IL2RB -->
     <g transform="translate(665.747317 193.661012)scale(0.12 -0.12)">
      <use xlink:href="#DejaVuSans-73"/>
      <use x="29.492188" xlink:href="#DejaVuSans-76"/>
      <use x="85.205078" xlink:href="#DejaVuSans-50"/>
      <use x="148.828125" xlink:href="#DejaVuSans-82"/>
      <use x="218.310547" xlink:href="#DejaVuSans-66"/>
     </g>
    </g>
   </g>
   <g id="text_47">
    <g clip-path="url(#pc6bf333860)">
     <!-- IL2RA -->
     <g transform="translate(694.733117 234.825655)scale(0.12 -0.12)">
      <use xlink:href="#DejaVuSans-73"/>
      <use x="29.492188" xlink:href="#DejaVuSans-76"/>
      <use x="85.205078" xlink:href="#DejaVuSans-50"/>
      <use x="148.828125" xlink:href="#DejaVuSans-82"/>
      <use x="214.310547" xlink:href="#DejaVuSans-65"/>
     </g>
    </g>
   </g>
   <g id="text_48">
    <g clip-path="url(#pc6bf333860)">
     <!-- IL2 -->
     <g transform="translate(691.097505 234.916167)scale(0.12 -0.12)">
      <use xlink:href="#DejaVuSans-73"/>
      <use x="29.492188" xlink:href="#DejaVuSans-76"/>
      <use x="85.205078" xlink:href="#DejaVuSans-50"/>
     </g>
    </g>
   </g>
   <g id="text_49">
    <g clip-path="url(#pc6bf333860)">
     <!-- IL18RAP -->
     <g transform="translate(470.634271 114.484599)scale(0.12 -0.12)">
      <use xlink:href="#DejaVuSans-73"/>
      <use x="29.492188" xlink:href="#DejaVuSans-76"/>
      <use x="85.205078" xlink:href="#DejaVuSans-49"/>
      <use x="148.828125" xlink:href="#DejaVuSans-56"/>
      <use x="212.451172" xlink:href="#DejaVuSans-82"/>
      <use x="277.933594" xlink:href="#DejaVuSans-65"/>
      <use x="346.341797" xlink:href="#DejaVuSans-80"/>
     </g>
    </g>
   </g>
   <g id="text_50">
    <g clip-path="url(#pc6bf333860)">
     <!-- IL18R1 -->
     <g transform="translate(647.110757 414.061713)scale(0.12 -0.12)">
      <use xlink:href="#DejaVuSans-73"/>
      <use x="29.492188" xlink:href="#DejaVuSans-76"/>
      <use x="85.205078" xlink:href="#DejaVuSans-49"/>
      <use x="148.828125" xlink:href="#DejaVuSans-56"/>
      <use x="212.451172" xlink:href="#DejaVuSans-82"/>
      <use x="281.933594" xlink:href="#DejaVuSans-49"/>
     </g>
    </g>
   </g>
   <g id="text_51">
    <g clip-path="url(#pc6bf333860)">
     <!-- IL18 -->
     <g transform="translate(522.441797 271.249008)scale(0.12 -0.12)">
      <use xlink:href="#DejaVuSans-73"/>
      <use x="29.492188" xlink:href="#DejaVuSans-76"/>
      <use x="85.205078" xlink:href="#DejaVuSans-49"/>
      <use x="148.828125" xlink:href="#DejaVuSans-56"/>
     </g>
    </g>
   </g>
   <g id="text_52">
    <g clip-path="url(#pc6bf333860)">
     <!-- IL20RB -->
     <g transform="translate(448.123308 474.893406)scale(0.12 -0.12)">
      <use xlink:href="#DejaVuSans-73"/>
      <use x="29.492188" xlink:href="#DejaVuSans-76"/>
      <use x="85.205078" xlink:href="#DejaVuSans-50"/>
      <use x="148.828125" xlink:href="#DejaVuSans-48"/>
      <use x="212.451172" xlink:href="#DejaVuSans-82"/>
      <use x="281.933594" xlink:href="#DejaVuSans-66"/>
     </g>
    </g>
   </g>
   <g id="text_53">
    <g clip-path="url(#pc6bf333860)">
     <!-- IL20RA -->
     <g transform="translate(247.903885 434.69086)scale(0.12 -0.12)">
      <use xlink:href="#DejaVuSans-73"/>
      <use x="29.492188" xlink:href="#DejaVuSans-76"/>
      <use x="85.205078" xlink:href="#DejaVuSans-50"/>
      <use x="148.828125" xlink:href="#DejaVuSans-48"/>
      <use x="212.451172" xlink:href="#DejaVuSans-82"/>
      <use x="277.933594" xlink:href="#DejaVuSans-65"/>
     </g>
    </g>
   </g>
   <g id="text_54">
    <g clip-path="url(#pc6bf333860)">
     <!-- IL22RA1 -->
     <g transform="translate(691.367527 278.744029)scale(0.12 -0.12)">
      <use xlink:href="#DejaVuSans-73"/>
      <use x="29.492188" xlink:href="#DejaVuSans-76"/>
      <use x="85.205078" xlink:href="#DejaVuSans-50"/>
      <use x="148.828125" xlink:href="#DejaVuSans-50"/>
      <use x="212.451172" xlink:href="#DejaVuSans-82"/>
      <use x="277.933594" xlink:href="#DejaVuSans-65"/>
      <use x="346.341797" xlink:href="#DejaVuSans-49"/>
     </g>
    </g>
   </g>
   <g id="text_55">
    <g clip-path="url(#pc6bf333860)">
     <!-- IL34 -->
     <g transform="translate(384.500635 328.184605)scale(0.12 -0.12)">
      <use xlink:href="#DejaVuSans-73"/>
      <use x="29.492188" xlink:href="#DejaVuSans-76"/>
      <use x="85.205078" xlink:href="#DejaVuSans-51"/>
      <use x="148.828125" xlink:href="#DejaVuSans-52"/>
     </g>
    </g>
   </g>
   <g id="text_56">
    <g clip-path="url(#pc6bf333860)">
     <!-- CSF1 -->
     <g transform="translate(391.418965 412.817313)scale(0.12 -0.12)">
      <defs>
       <path d="M 53.515625 70.515625 
L 53.515625 60.890625 
Q 47.90625 63.578125 42.921875 64.890625 
Q 37.9375 66.21875 33.296875 66.21875 
Q 25.25 66.21875 20.875 63.09375 
Q 16.5 59.96875 16.5 54.203125 
Q 16.5 49.359375 19.40625 46.890625 
Q 22.3125 44.4375 30.421875 42.921875 
L 36.375 41.703125 
Q 47.40625 39.59375 52.65625 34.296875 
Q 57.90625 29 57.90625 20.125 
Q 57.90625 9.515625 50.796875 4.046875 
Q 43.703125 -1.421875 29.984375 -1.421875 
Q 24.8125 -1.421875 18.96875 -0.25 
Q 13.140625 0.921875 6.890625 3.21875 
L 6.890625 13.375 
Q 12.890625 10.015625 18.65625 8.296875 
Q 24.421875 6.59375 29.984375 6.59375 
Q 38.421875 6.59375 43.015625 9.90625 
Q 47.609375 13.234375 47.609375 19.390625 
Q 47.609375 24.75 44.3125 27.78125 
Q 41.015625 30.8125 33.5 32.328125 
L 27.484375 33.5 
Q 16.453125 35.6875 11.515625 40.375 
Q 6.59375 45.0625 6.59375 53.421875 
Q 6.59375 63.09375 13.40625 68.65625 
Q 20.21875 74.21875 32.171875 74.21875 
Q 37.3125 74.21875 42.625 73.28125 
Q 47.953125 72.359375 53.515625 70.515625 
z
" id="DejaVuSans-83"/>
      </defs>
      <use xlink:href="#DejaVuSans-67"/>
      <use x="69.824219" xlink:href="#DejaVuSans-83"/>
      <use x="133.300781" xlink:href="#DejaVuSans-70"/>
      <use x="190.820312" xlink:href="#DejaVuSans-49"/>
     </g>
    </g>
   </g>
   <g id="text_57">
    <g clip-path="url(#pc6bf333860)">
     <!-- CSF1R -->
     <g transform="translate(595.93505 436.513603)scale(0.12 -0.12)">
      <use xlink:href="#DejaVuSans-67"/>
      <use x="69.824219" xlink:href="#DejaVuSans-83"/>
      <use x="133.300781" xlink:href="#DejaVuSans-70"/>
      <use x="190.820312" xlink:href="#DejaVuSans-49"/>
      <use x="254.443359" xlink:href="#DejaVuSans-82"/>
     </g>
    </g>
   </g>
   <g id="text_58">
    <g clip-path="url(#pc6bf333860)">
     <!-- TNFRSF14 -->
     <g transform="translate(455.418245 458.576951)scale(0.12 -0.12)">
      <defs>
       <path d="M -0.296875 72.90625 
L 61.375 72.90625 
L 61.375 64.59375 
L 35.5 64.59375 
L 35.5 0 
L 25.59375 0 
L 25.59375 64.59375 
L -0.296875 64.59375 
z
" id="DejaVuSans-84"/>
       <path d="M 9.8125 72.90625 
L 23.09375 72.90625 
L 55.421875 11.921875 
L 55.421875 72.90625 
L 64.984375 72.90625 
L 64.984375 0 
L 51.703125 0 
L 19.390625 60.984375 
L 19.390625 0 
L 9.8125 0 
z
" id="DejaVuSans-78"/>
      </defs>
      <use xlink:href="#DejaVuSans-84"/>
      <use x="61.083984" xlink:href="#DejaVuSans-78"/>
      <use x="135.888672" xlink:href="#DejaVuSans-70"/>
      <use x="193.408203" xlink:href="#DejaVuSans-82"/>
      <use x="262.890625" xlink:href="#DejaVuSans-83"/>
      <use x="326.367188" xlink:href="#DejaVuSans-70"/>
      <use x="383.886719" xlink:href="#DejaVuSans-49"/>
      <use x="447.509766" xlink:href="#DejaVuSans-52"/>
     </g>
    </g>
   </g>
   <g id="text_59">
    <g clip-path="url(#pc6bf333860)">
     <!-- TNFSF14 -->
     <g transform="translate(550.101424 455.376546)scale(0.12 -0.12)">
      <use xlink:href="#DejaVuSans-84"/>
      <use x="61.083984" xlink:href="#DejaVuSans-78"/>
      <use x="135.888672" xlink:href="#DejaVuSans-70"/>
      <use x="191.658203" xlink:href="#DejaVuSans-83"/>
      <use x="255.134766" xlink:href="#DejaVuSans-70"/>
      <use x="312.654297" xlink:href="#DejaVuSans-49"/>
      <use x="376.277344" xlink:href="#DejaVuSans-52"/>
     </g>
    </g>
   </g>
   <g id="text_60">
    <g clip-path="url(#pc6bf333860)">
     <!-- LTA -->
     <g transform="translate(339.653491 303.848104)scale(0.12 -0.12)">
      <use xlink:href="#DejaVuSans-76"/>
      <use x="41.962891" xlink:href="#DejaVuSans-84"/>
      <use x="95.296875" xlink:href="#DejaVuSans-65"/>
     </g>
    </g>
   </g>
   <g id="text_61">
    <g clip-path="url(#pc6bf333860)">
     <!-- TNFRSF1A -->
     <g transform="translate(141.994434 334.230469)scale(0.12 -0.12)">
      <use xlink:href="#DejaVuSans-84"/>
      <use x="61.083984" xlink:href="#DejaVuSans-78"/>
      <use x="135.888672" xlink:href="#DejaVuSans-70"/>
      <use x="193.408203" xlink:href="#DejaVuSans-82"/>
      <use x="262.890625" xlink:href="#DejaVuSans-83"/>
      <use x="326.367188" xlink:href="#DejaVuSans-70"/>
      <use x="383.886719" xlink:href="#DejaVuSans-49"/>
      <use x="447.509766" xlink:href="#DejaVuSans-65"/>
     </g>
    </g>
   </g>
   <g id="text_62">
    <g clip-path="url(#pc6bf333860)">
     <!-- TNFRSF1B -->
     <g transform="translate(299.79775 135.638644)scale(0.12 -0.12)">
      <use xlink:href="#DejaVuSans-84"/>
      <use x="61.083984" xlink:href="#DejaVuSans-78"/>
      <use x="135.888672" xlink:href="#DejaVuSans-70"/>
      <use x="193.408203" xlink:href="#DejaVuSans-82"/>
      <use x="262.890625" xlink:href="#DejaVuSans-83"/>
      <use x="326.367188" xlink:href="#DejaVuSans-70"/>
      <use x="383.886719" xlink:href="#DejaVuSans-49"/>
      <use x="447.509766" xlink:href="#DejaVuSans-66"/>
     </g>
    </g>
   </g>
   <g id="text_63">
    <g clip-path="url(#pc6bf333860)">
     <!-- TNF -->
     <g transform="translate(194.425171 225.156074)scale(0.12 -0.12)">
      <use xlink:href="#DejaVuSans-84"/>
      <use x="61.083984" xlink:href="#DejaVuSans-78"/>
      <use x="135.888672" xlink:href="#DejaVuSans-70"/>
     </g>
    </g>
   </g>
   <g id="text_64">
    <g clip-path="url(#pc6bf333860)">
     <!-- TNFSF10 -->
     <g transform="translate(624.822626 324.271363)scale(0.12 -0.12)">
      <use xlink:href="#DejaVuSans-84"/>
      <use x="61.083984" xlink:href="#DejaVuSans-78"/>
      <use x="135.888672" xlink:href="#DejaVuSans-70"/>
      <use x="191.658203" xlink:href="#DejaVuSans-83"/>
      <use x="255.134766" xlink:href="#DejaVuSans-70"/>
      <use x="312.654297" xlink:href="#DejaVuSans-49"/>
      <use x="376.277344" xlink:href="#DejaVuSans-48"/>
     </g>
    </g>
   </g>
   <g id="text_65">
    <g clip-path="url(#pc6bf333860)">
     <!-- CCL8 -->
     <g transform="translate(330.888469 249.768984)scale(0.12 -0.12)">
      <use xlink:href="#DejaVuSans-67"/>
      <use x="69.824219" xlink:href="#DejaVuSans-67"/>
      <use x="139.648438" xlink:href="#DejaVuSans-76"/>
      <use x="195.361328" xlink:href="#DejaVuSans-56"/>
     </g>
    </g>
   </g>
   <g id="text_66">
    <g clip-path="url(#pc6bf333860)">
     <!-- CCL14 -->
     <g transform="translate(489.957975 156.646823)scale(0.12 -0.12)">
      <use xlink:href="#DejaVuSans-67"/>
      <use x="69.824219" xlink:href="#DejaVuSans-67"/>
      <use x="139.648438" xlink:href="#DejaVuSans-76"/>
      <use x="195.361328" xlink:href="#DejaVuSans-49"/>
      <use x="258.984375" xlink:href="#DejaVuSans-52"/>
     </g>
    </g>
   </g>
   <g id="text_67">
    <g clip-path="url(#pc6bf333860)">
     <!-- CCL16 -->
     <g transform="translate(616.641898 257.901867)scale(0.12 -0.12)">
      <use xlink:href="#DejaVuSans-67"/>
      <use x="69.824219" xlink:href="#DejaVuSans-67"/>
      <use x="139.648438" xlink:href="#DejaVuSans-76"/>
      <use x="195.361328" xlink:href="#DejaVuSans-49"/>
      <use x="258.984375" xlink:href="#DejaVuSans-54"/>
     </g>
    </g>
   </g>
   <g id="text_68">
    <g clip-path="url(#pc6bf333860)">
     <!-- CCL27 -->
     <g transform="translate(374.015239 272.060808)scale(0.12 -0.12)">
      <use xlink:href="#DejaVuSans-67"/>
      <use x="69.824219" xlink:href="#DejaVuSans-67"/>
      <use x="139.648438" xlink:href="#DejaVuSans-76"/>
      <use x="195.361328" xlink:href="#DejaVuSans-50"/>
      <use x="258.984375" xlink:href="#DejaVuSans-55"/>
     </g>
    </g>
   </g>
   <g id="text_69">
    <g clip-path="url(#pc6bf333860)">
     <!-- CCL24 -->
     <g transform="translate(319.010059 167.322464)scale(0.12 -0.12)">
      <use xlink:href="#DejaVuSans-67"/>
      <use x="69.824219" xlink:href="#DejaVuSans-67"/>
      <use x="139.648438" xlink:href="#DejaVuSans-76"/>
      <use x="195.361328" xlink:href="#DejaVuSans-50"/>
      <use x="258.984375" xlink:href="#DejaVuSans-52"/>
     </g>
    </g>
   </g>
   <g id="text_70">
    <g clip-path="url(#pc6bf333860)">
     <!-- CCR9 -->
     <g transform="translate(358.723694 460.374968)scale(0.12 -0.12)">
      <use xlink:href="#DejaVuSans-67"/>
      <use x="69.824219" xlink:href="#DejaVuSans-67"/>
      <use x="139.648438" xlink:href="#DejaVuSans-82"/>
      <use x="209.130859" xlink:href="#DejaVuSans-57"/>
     </g>
    </g>
   </g>
   <g id="text_71">
    <g clip-path="url(#pc6bf333860)">
     <!-- ACKR4 -->
     <g transform="translate(698.059334 328.042044)scale(0.12 -0.12)">
      <defs>
       <path d="M 9.8125 72.90625 
L 19.671875 72.90625 
L 19.671875 42.09375 
L 52.390625 72.90625 
L 65.09375 72.90625 
L 28.90625 38.921875 
L 67.671875 0 
L 54.6875 0 
L 19.671875 35.109375 
L 19.671875 0 
L 9.8125 0 
z
" id="DejaVuSans-75"/>
      </defs>
      <use xlink:href="#DejaVuSans-65"/>
      <use x="66.658203" xlink:href="#DejaVuSans-67"/>
      <use x="136.482422" xlink:href="#DejaVuSans-75"/>
      <use x="202.058594" xlink:href="#DejaVuSans-82"/>
      <use x="271.541016" xlink:href="#DejaVuSans-52"/>
     </g>
    </g>
   </g>
   <g id="text_72">
    <g clip-path="url(#pc6bf333860)">
     <!-- CCR7 -->
     <g transform="translate(213.243019 184.354444)scale(0.12 -0.12)">
      <use xlink:href="#DejaVuSans-67"/>
      <use x="69.824219" xlink:href="#DejaVuSans-67"/>
      <use x="139.648438" xlink:href="#DejaVuSans-82"/>
      <use x="209.130859" xlink:href="#DejaVuSans-55"/>
     </g>
    </g>
   </g>
   <g id="text_73">
    <g clip-path="url(#pc6bf333860)">
     <!-- XCL2 -->
     <g transform="translate(477.318951 380.967002)scale(0.12 -0.12)">
      <use xlink:href="#DejaVuSans-88"/>
      <use x="61.255859" xlink:href="#DejaVuSans-67"/>
      <use x="131.080078" xlink:href="#DejaVuSans-76"/>
      <use x="186.792969" xlink:href="#DejaVuSans-50"/>
     </g>
    </g>
   </g>
   <g id="text_74">
    <g clip-path="url(#pc6bf333860)">
     <!-- IL37 -->
     <g transform="translate(575.293291 260.028141)scale(0.12 -0.12)">
      <use xlink:href="#DejaVuSans-73"/>
      <use x="29.492188" xlink:href="#DejaVuSans-76"/>
      <use x="85.205078" xlink:href="#DejaVuSans-51"/>
      <use x="148.828125" xlink:href="#DejaVuSans-55"/>
     </g>
    </g>
   </g>
   <g id="text_75">
    <g clip-path="url(#pc6bf333860)">
     <!-- IL19 -->
     <g transform="translate(411.327146 380.35891)scale(0.12 -0.12)">
      <use xlink:href="#DejaVuSans-73"/>
      <use x="29.492188" xlink:href="#DejaVuSans-76"/>
      <use x="85.205078" xlink:href="#DejaVuSans-49"/>
      <use x="148.828125" xlink:href="#DejaVuSans-57"/>
     </g>
    </g>
   </g>
   <g id="text_76">
    <g clip-path="url(#pc6bf333860)">
     <!-- IL20 -->
     <g transform="translate(465.142814 344.944762)scale(0.12 -0.12)">
      <use xlink:href="#DejaVuSans-73"/>
      <use x="29.492188" xlink:href="#DejaVuSans-76"/>
      <use x="85.205078" xlink:href="#DejaVuSans-50"/>
      <use x="148.828125" xlink:href="#DejaVuSans-48"/>
     </g>
    </g>
   </g>
   <g id="text_77">
    <g clip-path="url(#pc6bf333860)">
     <!-- IL24 -->
     <g transform="translate(499.725031 398.444204)scale(0.12 -0.12)">
      <use xlink:href="#DejaVuSans-73"/>
      <use x="29.492188" xlink:href="#DejaVuSans-76"/>
      <use x="85.205078" xlink:href="#DejaVuSans-50"/>
      <use x="148.828125" xlink:href="#DejaVuSans-52"/>
     </g>
    </g>
   </g>
   <g id="text_78">
    <g clip-path="url(#pc6bf333860)">
     <!-- TNFRSF10C -->
     <g transform="translate(514.877239 460.35951)scale(0.12 -0.12)">
      <use xlink:href="#DejaVuSans-84"/>
      <use x="61.083984" xlink:href="#DejaVuSans-78"/>
      <use x="135.888672" xlink:href="#DejaVuSans-70"/>
      <use x="193.408203" xlink:href="#DejaVuSans-82"/>
      <use x="262.890625" xlink:href="#DejaVuSans-83"/>
      <use x="326.367188" xlink:href="#DejaVuSans-70"/>
      <use x="383.886719" xlink:href="#DejaVuSans-49"/>
      <use x="447.509766" xlink:href="#DejaVuSans-48"/>
      <use x="511.132812" xlink:href="#DejaVuSans-67"/>
     </g>
    </g>
   </g>
   <g id="text_79">
    <g clip-path="url(#pc6bf333860)">
     <!-- TNFRSF10D -->
     <g transform="translate(629.559793 172.867421)scale(0.12 -0.12)">
      <defs>
       <path d="M 19.671875 64.796875 
L 19.671875 8.109375 
L 31.59375 8.109375 
Q 46.6875 8.109375 53.6875 14.9375 
Q 60.6875 21.78125 60.6875 36.53125 
Q 60.6875 51.171875 53.6875 57.984375 
Q 46.6875 64.796875 31.59375 64.796875 
z
M 9.8125 72.90625 
L 30.078125 72.90625 
Q 51.265625 72.90625 61.171875 64.09375 
Q 71.09375 55.28125 71.09375 36.53125 
Q 71.09375 17.671875 61.125 8.828125 
Q 51.171875 0 30.078125 0 
L 9.8125 0 
z
" id="DejaVuSans-68"/>
      </defs>
      <use xlink:href="#DejaVuSans-84"/>
      <use x="61.083984" xlink:href="#DejaVuSans-78"/>
      <use x="135.888672" xlink:href="#DejaVuSans-70"/>
      <use x="193.408203" xlink:href="#DejaVuSans-82"/>
      <use x="262.890625" xlink:href="#DejaVuSans-83"/>
      <use x="326.367188" xlink:href="#DejaVuSans-70"/>
      <use x="383.886719" xlink:href="#DejaVuSans-49"/>
      <use x="447.509766" xlink:href="#DejaVuSans-48"/>
      <use x="511.132812" xlink:href="#DejaVuSans-68"/>
     </g>
    </g>
   </g>
   <g id="text_80">
    <!-- Network: hsa04061 -->
    <g transform="translate(384.1275 63.12)scale(0.12 -0.12)">
     <defs>
      <path d="M 56.203125 29.59375 
L 56.203125 25.203125 
L 14.890625 25.203125 
Q 15.484375 15.921875 20.484375 11.0625 
Q 25.484375 6.203125 34.421875 6.203125 
Q 39.59375 6.203125 44.453125 7.46875 
Q 49.3125 8.734375 54.109375 11.28125 
L 54.109375 2.78125 
Q 49.265625 0.734375 44.1875 -0.34375 
Q 39.109375 -1.421875 33.890625 -1.421875 
Q 20.796875 -1.421875 13.15625 6.1875 
Q 5.515625 13.8125 5.515625 26.8125 
Q 5.515625 40.234375 12.765625 48.109375 
Q 20.015625 56 32.328125 56 
Q 43.359375 56 49.78125 48.890625 
Q 56.203125 41.796875 56.203125 29.59375 
z
M 47.21875 32.234375 
Q 47.125 39.59375 43.09375 43.984375 
Q 39.0625 48.390625 32.421875 48.390625 
Q 24.90625 48.390625 20.390625 44.140625 
Q 15.875 39.890625 15.1875 32.171875 
z
" id="DejaVuSans-101"/>
      <path d="M 18.3125 70.21875 
L 18.3125 54.6875 
L 36.8125 54.6875 
L 36.8125 47.703125 
L 18.3125 47.703125 
L 18.3125 18.015625 
Q 18.3125 11.328125 20.140625 9.421875 
Q 21.96875 7.515625 27.59375 7.515625 
L 36.8125 7.515625 
L 36.8125 0 
L 27.59375 0 
Q 17.1875 0 13.234375 3.875 
Q 9.28125 7.765625 9.28125 18.015625 
L 9.28125 47.703125 
L 2.6875 47.703125 
L 2.6875 54.6875 
L 9.28125 54.6875 
L 9.28125 70.21875 
z
" id="DejaVuSans-116"/>
      <path d="M 4.203125 54.6875 
L 13.1875 54.6875 
L 24.421875 12.015625 
L 35.59375 54.6875 
L 46.1875 54.6875 
L 57.421875 12.015625 
L 68.609375 54.6875 
L 77.59375 54.6875 
L 63.28125 0 
L 52.6875 0 
L 40.921875 44.828125 
L 29.109375 0 
L 18.5 0 
z
" id="DejaVuSans-119"/>
      <path d="M 30.609375 48.390625 
Q 23.390625 48.390625 19.1875 42.75 
Q 14.984375 37.109375 14.984375 27.296875 
Q 14.984375 17.484375 19.15625 11.84375 
Q 23.34375 6.203125 30.609375 6.203125 
Q 37.796875 6.203125 41.984375 11.859375 
Q 46.1875 17.53125 46.1875 27.296875 
Q 46.1875 37.015625 41.984375 42.703125 
Q 37.796875 48.390625 30.609375 48.390625 
z
M 30.609375 56 
Q 42.328125 56 49.015625 48.375 
Q 55.71875 40.765625 55.71875 27.296875 
Q 55.71875 13.875 49.015625 6.21875 
Q 42.328125 -1.421875 30.609375 -1.421875 
Q 18.84375 -1.421875 12.171875 6.21875 
Q 5.515625 13.875 5.515625 27.296875 
Q 5.515625 40.765625 12.171875 48.375 
Q 18.84375 56 30.609375 56 
z
" id="DejaVuSans-111"/>
      <path d="M 41.109375 46.296875 
Q 39.59375 47.171875 37.8125 47.578125 
Q 36.03125 48 33.890625 48 
Q 26.265625 48 22.1875 43.046875 
Q 18.109375 38.09375 18.109375 28.8125 
L 18.109375 0 
L 9.078125 0 
L 9.078125 54.6875 
L 18.109375 54.6875 
L 18.109375 46.1875 
Q 20.953125 51.171875 25.484375 53.578125 
Q 30.03125 56 36.53125 56 
Q 37.453125 56 38.578125 55.875 
Q 39.703125 55.765625 41.0625 55.515625 
z
" id="DejaVuSans-114"/>
      <path d="M 9.078125 75.984375 
L 18.109375 75.984375 
L 18.109375 31.109375 
L 44.921875 54.6875 
L 56.390625 54.6875 
L 27.390625 29.109375 
L 57.625 0 
L 45.90625 0 
L 18.109375 26.703125 
L 18.109375 0 
L 9.078125 0 
z
" id="DejaVuSans-107"/>
      <path d="M 11.71875 12.40625 
L 22.015625 12.40625 
L 22.015625 0 
L 11.71875 0 
z
M 11.71875 51.703125 
L 22.015625 51.703125 
L 22.015625 39.3125 
L 11.71875 39.3125 
z
" id="DejaVuSans-58"/>
      <path id="DejaVuSans-32"/>
      <path d="M 54.890625 33.015625 
L 54.890625 0 
L 45.90625 0 
L 45.90625 32.71875 
Q 45.90625 40.484375 42.875 44.328125 
Q 39.84375 48.1875 33.796875 48.1875 
Q 26.515625 48.1875 22.3125 43.546875 
Q 18.109375 38.921875 18.109375 30.90625 
L 18.109375 0 
L 9.078125 0 
L 9.078125 75.984375 
L 18.109375 75.984375 
L 18.109375 46.1875 
Q 21.34375 51.125 25.703125 53.5625 
Q 30.078125 56 35.796875 56 
Q 45.21875 56 50.046875 50.171875 
Q 54.890625 44.34375 54.890625 33.015625 
z
" id="DejaVuSans-104"/>
      <path d="M 44.28125 53.078125 
L 44.28125 44.578125 
Q 40.484375 46.53125 36.375 47.5 
Q 32.28125 48.484375 27.875 48.484375 
Q 21.1875 48.484375 17.84375 46.4375 
Q 14.5 44.390625 14.5 40.28125 
Q 14.5 37.15625 16.890625 35.375 
Q 19.28125 33.59375 26.515625 31.984375 
L 29.59375 31.296875 
Q 39.15625 29.25 43.1875 25.515625 
Q 47.21875 21.78125 47.21875 15.09375 
Q 47.21875 7.46875 41.1875 3.015625 
Q 35.15625 -1.421875 24.609375 -1.421875 
Q 20.21875 -1.421875 15.453125 -0.5625 
Q 10.6875 0.296875 5.421875 2 
L 5.421875 11.28125 
Q 10.40625 8.6875 15.234375 7.390625 
Q 20.0625 6.109375 24.8125 6.109375 
Q 31.15625 6.109375 34.5625 8.28125 
Q 37.984375 10.453125 37.984375 14.40625 
Q 37.984375 18.0625 35.515625 20.015625 
Q 33.0625 21.96875 24.703125 23.78125 
L 21.578125 24.515625 
Q 13.234375 26.265625 9.515625 29.90625 
Q 5.8125 33.546875 5.8125 39.890625 
Q 5.8125 47.609375 11.28125 51.796875 
Q 16.75 56 26.8125 56 
Q 31.78125 56 36.171875 55.265625 
Q 40.578125 54.546875 44.28125 53.078125 
z
" id="DejaVuSans-115"/>
      <path d="M 34.28125 27.484375 
Q 23.390625 27.484375 19.1875 25 
Q 14.984375 22.515625 14.984375 16.5 
Q 14.984375 11.71875 18.140625 8.90625 
Q 21.296875 6.109375 26.703125 6.109375 
Q 34.1875 6.109375 38.703125 11.40625 
Q 43.21875 16.703125 43.21875 25.484375 
L 43.21875 27.484375 
z
M 52.203125 31.203125 
L 52.203125 0 
L 43.21875 0 
L 43.21875 8.296875 
Q 40.140625 3.328125 35.546875 0.953125 
Q 30.953125 -1.421875 24.3125 -1.421875 
Q 15.921875 -1.421875 10.953125 3.296875 
Q 6 8.015625 6 15.921875 
Q 6 25.140625 12.171875 29.828125 
Q 18.359375 34.515625 30.609375 34.515625 
L 43.21875 34.515625 
L 43.21875 35.40625 
Q 43.21875 41.609375 39.140625 45 
Q 35.0625 48.390625 27.6875 48.390625 
Q 23 48.390625 18.546875 47.265625 
Q 14.109375 46.140625 10.015625 43.890625 
L 10.015625 52.203125 
Q 14.9375 54.109375 19.578125 55.046875 
Q 24.21875 56 28.609375 56 
Q 40.484375 56 46.34375 49.84375 
Q 52.203125 43.703125 52.203125 31.203125 
z
" id="DejaVuSans-97"/>
     </defs>
     <use xlink:href="#DejaVuSans-78"/>
     <use x="74.804688" xlink:href="#DejaVuSans-101"/>
     <use x="136.328125" xlink:href="#DejaVuSans-116"/>
     <use x="175.537109" xlink:href="#DejaVuSans-119"/>
     <use x="257.324219" xlink:href="#DejaVuSans-111"/>
     <use x="318.505859" xlink:href="#DejaVuSans-114"/>
     <use x="359.619141" xlink:href="#DejaVuSans-107"/>
     <use x="417.529297" xlink:href="#DejaVuSans-58"/>
     <use x="451.220703" xlink:href="#DejaVuSans-32"/>
     <use x="483.007812" xlink:href="#DejaVuSans-104"/>
     <use x="546.386719" xlink:href="#DejaVuSans-115"/>
     <use x="598.486328" xlink:href="#DejaVuSans-97"/>
     <use x="659.765625" xlink:href="#DejaVuSans-48"/>
     <use x="723.388672" xlink:href="#DejaVuSans-52"/>
     <use x="787.011719" xlink:href="#DejaVuSans-48"/>
     <use x="850.634766" xlink:href="#DejaVuSans-54"/>
     <use x="914.257812" xlink:href="#DejaVuSans-49"/>
    </g>
   </g>
  </g>
 </g>
 <defs>
  <clipPath id="pc6bf333860">
   <rect height="443.52" width="669.6" x="108" y="69.12"/>
  </clipPath>
 </defs>
</svg>
