<?xml version="1.0" encoding="utf-8" standalone="no"?>
<!DOCTYPE svg PUBLIC "-//W3C//DTD SVG 1.1//EN"
  "http://www.w3.org/Graphics/SVG/1.1/DTD/svg11.dtd">
<!-- Created with matplotlib (https://matplotlib.org/) -->
<svg height="576pt" version="1.1" viewBox="0 0 864 576" width="864pt" xmlns="http://www.w3.org/2000/svg" xmlns:xlink="http://www.w3.org/1999/xlink">
 <metadata>
  <rdf:RDF xmlns:cc="http://creativecommons.org/ns#" xmlns:dc="http://purl.org/dc/elements/1.1/" xmlns:rdf="http://www.w3.org/1999/02/22-rdf-syntax-ns#">
   <cc:Work>
    <dc:type rdf:resource="http://purl.org/dc/dcmitype/StillImage"/>
    <dc:date>2024-04-26T13:37:05.144829</dc:date>
    <dc:format>image/svg+xml</dc:format>
    <dc:creator>
     <cc:Agent>
      <dc:title>Matplotlib v3.3.1, https://matplotlib.org/</dc:title>
     </cc:Agent>
    </dc:creator>
   </cc:Work>
  </rdf:RDF>
 </metadata>
 <defs>
  <style type="text/css">*{stroke-linecap:butt;stroke-linejoin:round;}</style>
 </defs>
 <g id="figure_1">
  <g id="patch_1">
   <path d="M 0 576 
L 864 576 
L 864 0 
L 0 0 
z
" style="fill:#ffffff;"/>
  </g>
  <g id="axes_1">
   <g id="patch_2">
    <path clip-path="url(#p2cb2a7b1e7)" d="M 576.1408 295.693962 
Q 609.684364 243.123577 642.626538 191.495705 
" style="fill:none;stroke:#000000;stroke-linecap:round;"/>
    <path clip-path="url(#p2cb2a7b1e7)" d="M 638.788924 193.791946 
L 642.626538 191.495705 
L 642.160962 195.943541 
L 638.788924 193.791946 
z
" style="stroke:#000000;stroke-linecap:round;"/>
   </g>
   <g id="patch_3">
    <path clip-path="url(#p2cb2a7b1e7)" d="M 679.238123 243.600502 
Q 665.558404 217.271018 652.394149 191.93365 
" style="fill:none;stroke:#000000;stroke-linecap:round;"/>
    <path clip-path="url(#p2cb2a7b1e7)" d="M 652.463573 196.405248 
L 652.394149 191.93365 
L 656.013081 194.561069 
L 652.463573 196.405248 
z
" style="stroke:#000000;stroke-linecap:round;"/>
   </g>
   <g id="patch_4">
    <path clip-path="url(#p2cb2a7b1e7)" d="M 404.721737 143.392155 
Q 381.496976 149.222298 359.356605 154.780225 
" style="fill:none;stroke:#000000;stroke-linecap:round;"/>
    <path clip-path="url(#p2cb2a7b1e7)" d="M 363.723185 155.746131 
L 359.356605 154.780225 
L 362.749277 151.866504 
L 363.723185 155.746131 
z
" style="stroke:#000000;stroke-linecap:round;"/>
   </g>
   <g id="patch_5">
    <path clip-path="url(#p2cb2a7b1e7)" d="M 414.263857 149.864734 
Q 418.240217 179.628672 422.068527 208.284421 
" style="fill:none;stroke:#000000;stroke-linecap:round;"/>
    <path clip-path="url(#p2cb2a7b1e7)" d="M 423.521234 204.054806 
L 422.068527 208.284421 
L 419.556459 204.584486 
L 423.521234 204.054806 
z
" style="stroke:#000000;stroke-linecap:round;"/>
   </g>
   <g id="patch_6">
    <path clip-path="url(#p2cb2a7b1e7)" d="M 351.247095 296.194407 
Q 366.80626 328.545576 381.880842 359.889183 
" style="fill:none;stroke:#000000;stroke-linecap:round;"/>
    <path clip-path="url(#p2cb2a7b1e7)" d="M 381.949527 355.417575 
L 381.880842 359.889183 
L 378.344766 357.15127 
L 381.949527 355.417575 
z
" style="stroke:#000000;stroke-linecap:round;"/>
   </g>
   <g id="patch_7">
    <path clip-path="url(#p2cb2a7b1e7)" d="M 351.824594 280.892076 
Q 364.693187 258.622483 377.002397 237.320923 
" style="fill:none;stroke:#000000;stroke-linecap:round;"/>
    <path clip-path="url(#p2cb2a7b1e7)" d="M 373.269414 239.783612 
L 377.002397 237.320923 
L 376.732759 241.784923 
L 373.269414 239.783612 
z
" style="stroke:#000000;stroke-linecap:round;"/>
   </g>
   <g id="patch_8">
    <path clip-path="url(#p2cb2a7b1e7)" d="M 349.501926 279.968265 
Q 355.431607 255.117149 361.1018 231.353537 
" style="fill:none;stroke:#000000;stroke-linecap:round;"/>
    <path clip-path="url(#p2cb2a7b1e7)" d="M 358.228042 234.780126 
L 361.1018 231.353537 
L 362.118816 235.708497 
L 358.228042 234.780126 
z
" style="stroke:#000000;stroke-linecap:round;"/>
   </g>
   <g id="patch_9">
    <path clip-path="url(#p2cb2a7b1e7)" d="M 353.618737 282.270762 
Q 371.561687 264.352128 388.713532 247.223527 
" style="fill:none;stroke:#000000;stroke-linecap:round;"/>
    <path clip-path="url(#p2cb2a7b1e7)" d="M 384.469933 248.634864 
L 388.713532 247.223527 
L 387.296442 251.465208 
L 384.469933 248.634864 
z
" style="stroke:#000000;stroke-linecap:round;"/>
   </g>
   <g id="patch_10">
    <path clip-path="url(#p2cb2a7b1e7)" d="M 392.804253 363.198781 
Q 412.313842 347.151977 430.959955 331.815389 
" style="fill:none;stroke:#000000;stroke-linecap:round;"/>
    <path clip-path="url(#p2cb2a7b1e7)" d="M 426.600212 332.811704 
L 430.959955 331.815389 
L 429.141161 335.900972 
L 426.600212 332.811704 
z
" style="stroke:#000000;stroke-linecap:round;"/>
   </g>
   <g id="patch_11">
    <path clip-path="url(#p2cb2a7b1e7)" d="M 391.621291 362.014421 
Q 407.844426 342.31147 423.356892 323.471624 
" style="fill:none;stroke:#000000;stroke-linecap:round;"/>
    <path clip-path="url(#p2cb2a7b1e7)" d="M 419.270358 325.28828 
L 423.356892 323.471624 
L 422.358296 327.830845 
L 419.270358 325.28828 
z
" style="stroke:#000000;stroke-linecap:round;"/>
   </g>
   <g id="patch_12">
    <path clip-path="url(#p2cb2a7b1e7)" d="M 348.662512 254.867383 
Q 333.218015 201.077482 318.082069 148.362196 
" style="fill:none;stroke:#000000;stroke-linecap:round;"/>
    <path clip-path="url(#p2cb2a7b1e7)" d="M 317.263643 152.758805 
L 318.082069 148.362196 
L 321.108301 151.654903 
L 317.263643 152.758805 
z
" style="stroke:#000000;stroke-linecap:round;"/>
   </g>
   <g id="patch_13">
    <path clip-path="url(#p2cb2a7b1e7)" d="M 485.184737 179.41791 
Q 404.495892 160.194753 324.894643 141.230703 
" style="fill:none;stroke:#000000;stroke-linecap:round;"/>
    <path clip-path="url(#p2cb2a7b1e7)" d="M 328.322238 144.103261 
L 324.894643 141.230703 
L 329.249246 140.212161 
L 328.322238 144.103261 
z
" style="stroke:#000000;stroke-linecap:round;"/>
   </g>
   <g id="patch_14">
    <path clip-path="url(#p2cb2a7b1e7)" d="M 406.887653 110.2035 
Q 365.267217 123.285587 324.713369 136.032426 
" style="fill:none;stroke:#000000;stroke-linecap:round;"/>
    <path clip-path="url(#p2cb2a7b1e7)" d="M 329.129018 136.740973 
L 324.713369 136.032426 
L 327.929597 132.925035 
L 329.129018 136.740973 
z
" style="stroke:#000000;stroke-linecap:round;"/>
   </g>
   <g id="patch_15">
    <path clip-path="url(#p2cb2a7b1e7)" d="M 508.7134 265.835495 
Q 609.075879 326.687688 708.48233 386.960218 
" style="fill:none;stroke:#000000;stroke-linecap:round;"/>
    <path clip-path="url(#p2cb2a7b1e7)" d="M 706.098871 383.176156 
L 708.48233 386.960218 
L 704.025005 386.596548 
L 706.098871 383.176156 
z
" style="stroke:#000000;stroke-linecap:round;"/>
   </g>
   <g id="patch_16">
    <path clip-path="url(#p2cb2a7b1e7)" d="M 492.652752 261.107922 
Q 335.650139 256.774003 179.765135 252.470935 
" style="fill:none;stroke:#000000;stroke-linecap:round;"/>
    <path clip-path="url(#p2cb2a7b1e7)" d="M 183.708424 254.580547 
L 179.765135 252.470935 
L 183.818799 250.582071 
L 183.708424 254.580547 
z
" style="stroke:#000000;stroke-linecap:round;"/>
   </g>
   <g id="patch_17">
    <path clip-path="url(#p2cb2a7b1e7)" d="M 507.905188 255.734269 
Q 571.907037 201.263609 635.057466 147.517577 
" style="fill:none;stroke:#000000;stroke-linecap:round;"/>
    <path clip-path="url(#p2cb2a7b1e7)" d="M 630.715081 148.587012 
L 635.057466 147.517577 
L 633.307583 151.633146 
L 630.715081 148.587012 
z
" style="stroke:#000000;stroke-linecap:round;"/>
   </g>
   <g id="patch_18">
    <path clip-path="url(#p2cb2a7b1e7)" d="M 388.346267 401.524081 
Q 432.779275 369.132586 476.30883 337.399705 
" style="fill:none;stroke:#000000;stroke-linecap:round;"/>
    <path clip-path="url(#p2cb2a7b1e7)" d="M 471.898374 338.139887 
L 476.30883 337.399705 
L 474.254703 341.37218 
L 471.898374 338.139887 
z
" style="stroke:#000000;stroke-linecap:round;"/>
   </g>
   <g id="patch_19">
    <path clip-path="url(#p2cb2a7b1e7)" d="M 486.950193 323.420716 
Q 493.128055 304.873539 498.952598 287.3871 
" style="fill:none;stroke:#000000;stroke-linecap:round;"/>
    <path clip-path="url(#p2cb2a7b1e7)" d="M 495.791016 290.550072 
L 498.952598 287.3871 
L 499.586027 291.814149 
L 495.791016 290.550072 
z
" style="stroke:#000000;stroke-linecap:round;"/>
   </g>
   <g id="patch_20">
    <path clip-path="url(#p2cb2a7b1e7)" d="M 483.942651 322.981925 
Q 483.352946 304.124113 482.798186 286.383789 
" style="fill:none;stroke:#000000;stroke-linecap:round;"/>
    <path clip-path="url(#p2cb2a7b1e7)" d="M 480.924187 290.444346 
L 482.798186 286.383789 
L 484.922232 290.319323 
L 480.924187 290.444346 
z
" style="stroke:#000000;stroke-linecap:round;"/>
   </g>
   <g id="patch_21">
    <path clip-path="url(#p2cb2a7b1e7)" d="M 483.06907 323.053255 
Q 481.33865 310.071699 479.755956 298.198374 
" style="fill:none;stroke:#000000;stroke-linecap:round;"/>
    <path clip-path="url(#p2cb2a7b1e7)" d="M 478.30201 302.427563 
L 479.755956 298.198374 
L 482.266939 301.899045 
L 478.30201 302.427563 
z
" style="stroke:#000000;stroke-linecap:round;"/>
   </g>
   <g id="patch_22">
    <path clip-path="url(#p2cb2a7b1e7)" d="M 585.068998 468.70903 
Q 607.255725 450.790228 628.572663 433.573899 
" style="fill:none;stroke:#000000;stroke-linecap:round;"/>
    <path clip-path="url(#p2cb2a7b1e7)" d="M 624.204192 434.531217 
L 628.572663 433.573899 
L 626.717434 437.643067 
L 624.204192 434.531217 
z
" style="stroke:#000000;stroke-linecap:round;"/>
   </g>
   <g id="patch_23">
    <path clip-path="url(#p2cb2a7b1e7)" d="M 708.912069 395.508433 
Q 676.511239 409.729345 645.134176 423.500919 
" style="fill:none;stroke:#000000;stroke-linecap:round;"/>
    <path clip-path="url(#p2cb2a7b1e7)" d="M 649.60071 423.724691 
L 645.134176 423.500919 
L 647.993114 420.061955 
L 649.60071 423.724691 
z
" style="stroke:#000000;stroke-linecap:round;"/>
   </g>
   <g id="patch_24">
    <path clip-path="url(#p2cb2a7b1e7)" d="M 498.309112 221.980542 
Q 428.06143 191.304586 358.83835 161.076056 
" style="fill:none;stroke:#000000;stroke-linecap:round;"/>
    <path clip-path="url(#p2cb2a7b1e7)" d="M 361.703698 164.509681 
L 358.83835 161.076056 
L 363.304458 160.843953 
L 361.703698 164.509681 
z
" style="stroke:#000000;stroke-linecap:round;"/>
   </g>
   <g id="patch_25">
    <path clip-path="url(#p2cb2a7b1e7)" d="M 497.624829 224.670042 
Q 464.806874 221.712379 433.102441 218.85507 
" style="fill:none;stroke:#000000;stroke-linecap:round;"/>
    <path clip-path="url(#p2cb2a7b1e7)" d="M 436.906775 221.206035 
L 433.102441 218.85507 
L 437.265814 217.222181 
L 436.906775 221.206035 
z
" style="stroke:#000000;stroke-linecap:round;"/>
   </g>
   <g id="patch_26">
    <path clip-path="url(#p2cb2a7b1e7)" d="M 508.532523 372.240426 
Q 568.379616 398.117452 627.200495 423.550759 
" style="fill:none;stroke:#000000;stroke-linecap:round;"/>
    <path clip-path="url(#p2cb2a7b1e7)" d="M 624.322754 420.127514 
L 627.200495 423.550759 
L 622.735254 423.799004 
L 624.322754 420.127514 
z
" style="stroke:#000000;stroke-linecap:round;"/>
   </g>
   <g id="patch_27">
    <path clip-path="url(#p2cb2a7b1e7)" d="M 687.483988 367.958907 
Q 664.659936 394.415871 642.566192 420.026283 
" style="fill:none;stroke:#000000;stroke-linecap:round;"/>
    <path clip-path="url(#p2cb2a7b1e7)" d="M 646.69338 418.303983 
L 642.566192 420.026283 
L 643.664664 415.691153 
L 646.69338 418.303983 
z
" style="stroke:#000000;stroke-linecap:round;"/>
   </g>
   <g id="patch_28">
    <path clip-path="url(#p2cb2a7b1e7)" d="M 629.245598 448.596251 
Q 631.363927 442.128445 633.134268 436.723137 
" style="fill:none;stroke:#000000;stroke-linecap:round;"/>
    <path clip-path="url(#p2cb2a7b1e7)" d="M 629.98861 439.901948 
L 633.134268 436.723137 
L 633.789922 441.14695 
L 629.98861 439.901948 
z
" style="stroke:#000000;stroke-linecap:round;"/>
   </g>
   <g id="patch_29">
    <path clip-path="url(#p2cb2a7b1e7)" d="M 341.702156 160.036837 
Q 290.558876 178.038101 240.470209 195.668165 
" style="fill:none;stroke:#000000;stroke-linecap:round;"/>
    <path clip-path="url(#p2cb2a7b1e7)" d="M 244.907334 196.22667 
L 240.470209 195.668165 
L 243.579288 192.453569 
L 244.907334 196.22667 
z
" style="stroke:#000000;stroke-linecap:round;"/>
   </g>
   <g id="patch_30">
    <path clip-path="url(#p2cb2a7b1e7)" d="M 414.747948 217.122459 
Q 327.305838 208.445737 240.976298 199.879413 
" style="fill:none;stroke:#000000;stroke-linecap:round;"/>
    <path clip-path="url(#p2cb2a7b1e7)" d="M 244.759263 202.264612 
L 240.976298 199.879413 
L 245.154236 198.284161 
L 244.759263 202.264612 
z
" style="stroke:#000000;stroke-linecap:round;"/>
   </g>
   <g id="patch_31">
    <path clip-path="url(#p2cb2a7b1e7)" d="M 389.296921 224.353126 
Q 474.012461 172.840001 557.772713 121.907758 
" style="fill:none;stroke:#000000;stroke-linecap:round;"/>
    <path clip-path="url(#p2cb2a7b1e7)" d="M 553.315856 122.277119 
L 557.772713 121.907758 
L 555.394088 125.69486 
L 553.315856 122.277119 
z
" style="stroke:#000000;stroke-linecap:round;"/>
   </g>
   <g id="patch_32">
    <path clip-path="url(#p2cb2a7b1e7)" d="M 375.090451 234.206809 
Q 301.312055 292.244311 228.412392 349.590562 
" style="fill:none;stroke:#000000;stroke-linecap:round;"/>
    <path clip-path="url(#p2cb2a7b1e7)" d="M 232.79279 348.689389 
L 228.412392 349.590562 
L 230.319692 345.54554 
L 232.79279 348.689389 
z
" style="stroke:#000000;stroke-linecap:round;"/>
   </g>
   <g id="patch_33">
    <path clip-path="url(#p2cb2a7b1e7)" d="M 371.060026 217.857911 
Q 464.750484 169.333135 557.448162 121.322546 
" style="fill:none;stroke:#000000;stroke-linecap:round;"/>
    <path clip-path="url(#p2cb2a7b1e7)" d="M 552.976479 121.386219 
L 557.448162 121.322546 
L 554.81609 124.938096 
L 552.976479 121.386219 
z
" style="stroke:#000000;stroke-linecap:round;"/>
   </g>
   <g id="patch_34">
    <path clip-path="url(#p2cb2a7b1e7)" d="M 357.053305 227.766433 
Q 292.04985 288.737786 227.861851 348.944266 
" style="fill:none;stroke:#000000;stroke-linecap:round;"/>
    <path clip-path="url(#p2cb2a7b1e7)" d="M 232.147562 347.666502 
L 227.861851 348.944266 
L 229.411066 344.749039 
L 232.147562 347.666502 
z
" style="stroke:#000000;stroke-linecap:round;"/>
   </g>
   <g id="patch_35">
    <path clip-path="url(#p2cb2a7b1e7)" d="M 402.641824 235.237743 
Q 480.87937 178.571527 558.211436 122.561137 
" style="fill:none;stroke:#000000;stroke-linecap:round;"/>
    <path clip-path="url(#p2cb2a7b1e7)" d="M 553.798717 123.287715 
L 558.211436 122.561137 
L 556.145067 126.527259 
L 553.798717 123.287715 
z
" style="stroke:#000000;stroke-linecap:round;"/>
   </g>
   <g id="patch_36">
    <path clip-path="url(#p2cb2a7b1e7)" d="M 388.400759 245.082757 
Q 308.178715 297.975986 228.890077 350.253787 
" style="fill:none;stroke:#000000;stroke-linecap:round;"/>
    <path clip-path="url(#p2cb2a7b1e7)" d="M 233.330446 349.721693 
L 228.890077 350.253787 
L 231.128624 346.382236 
L 233.330446 349.721693 
z
" style="stroke:#000000;stroke-linecap:round;"/>
   </g>
   <g id="patch_37">
    <path clip-path="url(#p2cb2a7b1e7)" d="M 509.135414 283.07671 
Q 599.490664 346.34992 688.930101 408.981812 
" style="fill:none;stroke:#000000;stroke-linecap:round;"/>
    <path clip-path="url(#p2cb2a7b1e7)" d="M 686.800814 405.049111 
L 688.930101 408.981812 
L 684.506368 408.32562 
L 686.800814 405.049111 
z
" style="stroke:#000000;stroke-linecap:round;"/>
   </g>
   <g id="patch_38">
    <path clip-path="url(#p2cb2a7b1e7)" d="M 493.42139 277.257926 
Q 426.544423 270.648998 360.780071 264.15002 
" style="fill:none;stroke:#000000;stroke-linecap:round;"/>
    <path clip-path="url(#p2cb2a7b1e7)" d="M 364.563995 266.533698 
L 360.780071 264.15002 
L 364.957368 262.553088 
L 364.563995 266.533698 
z
" style="stroke:#000000;stroke-linecap:round;"/>
   </g>
   <g id="patch_39">
    <path clip-path="url(#p2cb2a7b1e7)" d="M 495.101695 272.935704 
Q 408.713123 208.537263 323.220932 144.80703 
" style="fill:none;stroke:#000000;stroke-linecap:round;"/>
    <path clip-path="url(#p2cb2a7b1e7)" d="M 325.232595 148.801178 
L 323.220932 144.80703 
L 327.623248 145.594189 
L 325.232595 148.801178 
z
" style="stroke:#000000;stroke-linecap:round;"/>
   </g>
   <g id="patch_40">
    <path clip-path="url(#p2cb2a7b1e7)" d="M 489.773097 281.292576 
Q 589.715745 345.599083 688.718174 409.300622 
" style="fill:none;stroke:#000000;stroke-linecap:round;"/>
    <path clip-path="url(#p2cb2a7b1e7)" d="M 686.436545 405.454303 
L 688.718174 409.300622 
L 684.272141 408.818134 
L 686.436545 405.454303 
z
" style="stroke:#000000;stroke-linecap:round;"/>
   </g>
   <g id="patch_41">
    <path clip-path="url(#p2cb2a7b1e7)" d="M 473.880327 275.728731 
Q 416.774867 269.898595 360.781659 264.182013 
" style="fill:none;stroke:#000000;stroke-linecap:round;"/>
    <path clip-path="url(#p2cb2a7b1e7)" d="M 364.557842 266.577936 
L 360.781659 264.182013 
L 364.964107 262.598621 
L 364.557842 266.577936 
z
" style="stroke:#000000;stroke-linecap:round;"/>
   </g>
   <g id="patch_42">
    <path clip-path="url(#p2cb2a7b1e7)" d="M 475.809262 271.103182 
Q 398.93916 207.787243 322.93204 145.182121 
" style="fill:none;stroke:#000000;stroke-linecap:round;"/>
    <path clip-path="url(#p2cb2a7b1e7)" d="M 324.747994 149.268968 
L 322.93204 145.182121 
L 327.29109 146.181467 
L 324.747994 149.268968 
z
" style="stroke:#000000;stroke-linecap:round;"/>
   </g>
   <g id="patch_43">
    <path clip-path="url(#p2cb2a7b1e7)" d="M 485.968405 292.839432 
Q 587.701481 351.549387 688.466205 409.700508 
" style="fill:none;stroke:#000000;stroke-linecap:round;"/>
    <path clip-path="url(#p2cb2a7b1e7)" d="M 686.001397 405.968923 
L 688.466205 409.700508 
L 684.002052 409.433403 
L 686.001397 405.968923 
z
" style="stroke:#000000;stroke-linecap:round;"/>
   </g>
   <g id="patch_44">
    <path clip-path="url(#p2cb2a7b1e7)" d="M 469.968373 286.820489 
Q 414.757869 275.848717 360.643955 265.094867 
" style="fill:none;stroke:#000000;stroke-linecap:round;"/>
    <path clip-path="url(#p2cb2a7b1e7)" d="M 364.177406 267.836166 
L 360.643955 265.094867 
L 364.957065 263.912885 
L 364.177406 267.836166 
z
" style="stroke:#000000;stroke-linecap:round;"/>
   </g>
   <g id="patch_45">
    <path clip-path="url(#p2cb2a7b1e7)" d="M 472.081586 282.655892 
Q 396.923531 213.73634 322.589504 145.572418 
" style="fill:none;stroke:#000000;stroke-linecap:round;"/>
    <path clip-path="url(#p2cb2a7b1e7)" d="M 324.185927 149.749909 
L 322.589504 145.572418 
L 326.889351 146.801775 
L 324.185927 149.749909 
z
" style="stroke:#000000;stroke-linecap:round;"/>
   </g>
   <g id="patch_46">
    <path clip-path="url(#p2cb2a7b1e7)" d="M 434.318317 333.181611 
Q 400.290097 394.683188 366.803148 455.206488 
" style="fill:none;stroke:#000000;stroke-linecap:round;"/>
    <path clip-path="url(#p2cb2a7b1e7)" d="M 370.489653 452.674753 
L 366.803148 455.206488 
L 366.989663 450.738243 
L 370.489653 452.674753 
z
" style="stroke:#000000;stroke-linecap:round;"/>
   </g>
   <g id="patch_47">
    <path clip-path="url(#p2cb2a7b1e7)" d="M 429.868787 324.985807 
Q 302.307806 315.842958 175.861998 306.780038 
" style="fill:none;stroke:#000000;stroke-linecap:round;"/>
    <path clip-path="url(#p2cb2a7b1e7)" d="M 179.708781 309.060885 
L 175.861998 306.780038 
L 179.994745 305.07112 
L 179.708781 309.060885 
z
" style="stroke:#000000;stroke-linecap:round;"/>
   </g>
   <g id="patch_48">
    <path clip-path="url(#p2cb2a7b1e7)" d="M 446.523571 322.320734 
Q 579.004052 268.020305 710.450024 214.143896 
" style="fill:none;stroke:#000000;stroke-linecap:round;"/>
    <path clip-path="url(#p2cb2a7b1e7)" d="M 705.990345 213.810327 
L 710.450024 214.143896 
L 707.507362 217.511497 
L 705.990345 213.810327 
z
" style="stroke:#000000;stroke-linecap:round;"/>
   </g>
   <g id="patch_49">
    <path clip-path="url(#p2cb2a7b1e7)" d="M 425.97484 323.803214 
Q 395.821734 389.841543 366.133004 454.862839 
" style="fill:none;stroke:#000000;stroke-linecap:round;"/>
    <path clip-path="url(#p2cb2a7b1e7)" d="M 369.613732 452.054898 
L 366.133004 454.862839 
L 365.975087 450.393492 
L 369.613732 452.054898 
z
" style="stroke:#000000;stroke-linecap:round;"/>
   </g>
   <g id="patch_50">
    <path clip-path="url(#p2cb2a7b1e7)" d="M 420.918227 315.598021 
Q 297.83755 311.000954 175.874128 306.445616 
" style="fill:none;stroke:#000000;stroke-linecap:round;"/>
    <path clip-path="url(#p2cb2a7b1e7)" d="M 179.796693 308.593519 
L 175.874128 306.445616 
L 179.945989 304.596306 
L 179.796693 308.593519 
z
" style="stroke:#000000;stroke-linecap:round;"/>
   </g>
   <g id="patch_51">
    <path clip-path="url(#p2cb2a7b1e7)" d="M 437.709155 312.961315 
Q 574.53202 263.179815 710.304232 213.780583 
" style="fill:none;stroke:#000000;stroke-linecap:round;"/>
    <path clip-path="url(#p2cb2a7b1e7)" d="M 705.861481 213.268763 
L 710.304232 213.780583 
L 707.229126 217.027692 
L 705.861481 213.268763 
z
" style="stroke:#000000;stroke-linecap:round;"/>
   </g>
   <g id="patch_52">
    <path clip-path="url(#p2cb2a7b1e7)" d="M 312.176808 218.949249 
Q 342.748752 223.292549 372.213778 227.478591 
" style="fill:none;stroke:#000000;stroke-linecap:round;"/>
    <path clip-path="url(#p2cb2a7b1e7)" d="M 368.534856 224.935851 
L 372.213778 227.478591 
L 367.972232 228.896085 
L 368.534856 224.935851 
z
" style="stroke:#000000;stroke-linecap:round;"/>
   </g>
   <g id="patch_53">
    <path clip-path="url(#p2cb2a7b1e7)" d="M 312.24154 218.324753 
Q 333.486022 219.785252 353.615102 221.169071 
" style="fill:none;stroke:#000000;stroke-linecap:round;"/>
    <path clip-path="url(#p2cb2a7b1e7)" d="M 349.761692 218.899439 
L 353.615102 221.169071 
L 349.48735 222.89002 
L 349.761692 218.899439 
z
" style="stroke:#000000;stroke-linecap:round;"/>
   </g>
   <g id="patch_54">
    <path clip-path="url(#p2cb2a7b1e7)" d="M 312.010529 219.794894 
Q 349.616293 229.023663 386.136241 237.985965 
" style="fill:none;stroke:#000000;stroke-linecap:round;"/>
    <path clip-path="url(#p2cb2a7b1e7)" d="M 382.728183 235.090254 
L 386.136241 237.985965 
L 381.774838 238.974985 
L 382.728183 235.090254 
z
" style="stroke:#000000;stroke-linecap:round;"/>
   </g>
   <g id="patch_55">
    <path clip-path="url(#p2cb2a7b1e7)" d="M 363.112239 196.216908 
Q 370.34266 208.780512 377.015405 220.375098 
" style="fill:none;stroke:#000000;stroke-linecap:round;"/>
    <path clip-path="url(#p2cb2a7b1e7)" d="M 376.753638 215.910629 
L 377.015405 220.375098 
L 373.28677 217.90583 
L 376.753638 215.910629 
z
" style="stroke:#000000;stroke-linecap:round;"/>
   </g>
   <g id="patch_56">
    <path clip-path="url(#p2cb2a7b1e7)" d="M 359.978783 197.289467 
Q 361.0824 205.274625 362.03295 212.152277 
" style="fill:none;stroke:#000000;stroke-linecap:round;"/>
    <path clip-path="url(#p2cb2a7b1e7)" d="M 363.466489 207.916128 
L 362.03295 212.152277 
L 359.504154 208.463756 
L 363.466489 207.916128 
z
" style="stroke:#000000;stroke-linecap:round;"/>
   </g>
   <g id="patch_57">
    <path clip-path="url(#p2cb2a7b1e7)" d="M 363.822944 195.758132 
Q 377.211664 214.513802 389.950804 232.359502 
" style="fill:none;stroke:#000000;stroke-linecap:round;"/>
    <path clip-path="url(#p2cb2a7b1e7)" d="M 389.254595 227.94189 
L 389.950804 232.359502 
L 385.998989 230.265902 
L 389.254595 227.94189 
z
" style="stroke:#000000;stroke-linecap:round;"/>
   </g>
   <g id="PathCollection_1">
    <defs>
     <path d="M 0 8.660254 
C 2.296726 8.660254 4.499694 7.747755 6.123724 6.123724 
C 7.747755 4.499694 8.660254 2.296726 8.660254 -0 
C 8.660254 -2.296726 7.747755 -4.499694 6.123724 -6.123724 
C 4.499694 -7.747755 2.296726 -8.660254 0 -8.660254 
C -2.296726 -8.660254 -4.499694 -7.747755 -6.123724 -6.123724 
C -7.747755 -4.499694 -8.660254 -2.296726 -8.660254 0 
C -8.660254 2.296726 -7.747755 4.499694 -6.123724 6.123724 
C -4.499694 7.747755 -2.296726 8.660254 0 8.660254 
z
" id="C0_0_0ff4c4ec09"/>
    </defs>
    <g clip-path="url(#p2cb2a7b1e7)">
     <use style="fill:#ff0000;stroke:#ff0000;" x="647.8849" xlink:href="#C0_0_0ff4c4ec09" y="183.254657"/>
    </g>
    <g clip-path="url(#p2cb2a7b1e7)">
     <use style="fill:#ff0000;stroke:#ff0000;" x="571.484697" xlink:href="#C0_0_0ff4c4ec09" y="302.991135"/>
    </g>
    <g clip-path="url(#p2cb2a7b1e7)">
     <use style="fill:#ff0000;stroke:#ff0000;" x="683.231436" xlink:href="#C0_0_0ff4c4ec09" y="251.286469"/>
    </g>
    <g clip-path="url(#p2cb2a7b1e7)">
     <use style="fill:#ff0000;stroke:#ff0000;" x="413.117573" xlink:href="#C0_0_0ff4c4ec09" y="141.284538"/>
    </g>
    <g clip-path="url(#p2cb2a7b1e7)">
     <use style="fill:#ff0000;stroke:#ff0000;" x="231.248176" xlink:href="#C0_0_0ff4c4ec09" y="198.91411"/>
    </g>
    <g clip-path="url(#p2cb2a7b1e7)">
     <use style="fill:#ff0000;stroke:#ff0000;" x="347.492818" xlink:href="#C0_0_0ff4c4ec09" y="288.38838"/>
    </g>
    <g clip-path="url(#p2cb2a7b1e7)">
     <use style="fill:#ff0000;stroke:#ff0000;" x="386.117672" xlink:href="#C0_0_0ff4c4ec09" y="368.698552"/>
    </g>
    <g clip-path="url(#p2cb2a7b1e7)">
     <use style="fill:#ff0000;stroke:#ff0000;" x="696.938387" xlink:href="#C0_0_0ff4c4ec09" y="414.589787"/>
    </g>
    <g clip-path="url(#p2cb2a7b1e7)">
     <use style="fill:#ff0000;stroke:#ff0000;" x="351.051766" xlink:href="#C0_0_0ff4c4ec09" y="263.188648"/>
    </g>
    <g clip-path="url(#p2cb2a7b1e7)">
     <use style="fill:#ff0000;stroke:#ff0000;" x="315.383849" xlink:href="#C0_0_0ff4c4ec09" y="138.964869"/>
    </g>
    <g clip-path="url(#p2cb2a7b1e7)">
     <use style="fill:#ff0000;stroke:#ff0000;" x="493.60693" xlink:href="#C0_0_0ff4c4ec09" y="181.424398"/>
    </g>
    <g clip-path="url(#p2cb2a7b1e7)">
     <use style="fill:#ff0000;stroke:#ff0000;" x="415.147504" xlink:href="#C0_0_0ff4c4ec09" y="107.607273"/>
    </g>
    <g clip-path="url(#p2cb2a7b1e7)">
     <use style="fill:#ff0000;stroke:#ff0000;" x="636.177235" xlink:href="#C0_0_0ff4c4ec09" y="427.432173"/>
    </g>
    <g clip-path="url(#p2cb2a7b1e7)">
     <use style="fill:#ff0000;stroke:#ff0000;" x="501.310454" xlink:href="#C0_0_0ff4c4ec09" y="261.34691"/>
    </g>
    <g clip-path="url(#p2cb2a7b1e7)">
     <use style="fill:#ff0000;stroke:#ff0000;" x="381.349062" xlink:href="#C0_0_0ff4c4ec09" y="406.625017"/>
    </g>
    <g clip-path="url(#p2cb2a7b1e7)">
     <use style="fill:#ff0000;stroke:#ff0000;" x="484.213317" xlink:href="#C0_0_0ff4c4ec09" y="331.637364"/>
    </g>
    <g clip-path="url(#p2cb2a7b1e7)">
     <use style="fill:#ff0000;stroke:#ff0000;" x="578.328713" xlink:href="#C0_0_0ff4c4ec09" y="474.152727"/>
    </g>
    <g clip-path="url(#p2cb2a7b1e7)">
     <use style="fill:#ff0000;stroke:#ff0000;" x="716.841093" xlink:href="#C0_0_0ff4c4ec09" y="392.028338"/>
    </g>
    <g clip-path="url(#p2cb2a7b1e7)">
     <use style="fill:#ff0000;stroke:#ff0000;" x="506.247635" xlink:href="#C0_0_0ff4c4ec09" y="225.447158"/>
    </g>
    <g clip-path="url(#p2cb2a7b1e7)">
     <use style="fill:#ff0000;stroke:#ff0000;" x="169.987113" xlink:href="#C0_0_0ff4c4ec09" y="252.201021"/>
    </g>
    <g clip-path="url(#p2cb2a7b1e7)">
     <use style="fill:#ff0000;stroke:#ff0000;" x="642.503669" xlink:href="#C0_0_0ff4c4ec09" y="141.180266"/>
    </g>
    <g clip-path="url(#p2cb2a7b1e7)">
     <use style="fill:#ff0000;stroke:#ff0000;" x="500.583436" xlink:href="#C0_0_0ff4c4ec09" y="368.803354"/>
    </g>
    <g clip-path="url(#p2cb2a7b1e7)">
     <use style="fill:#ff0000;stroke:#ff0000;" x="693.142629" xlink:href="#C0_0_0ff4c4ec09" y="361.399577"/>
    </g>
    <g clip-path="url(#p2cb2a7b1e7)">
     <use style="fill:#ff0000;stroke:#ff0000;" x="626.551202" xlink:href="#C0_0_0ff4c4ec09" y="456.822939"/>
    </g>
    <g clip-path="url(#p2cb2a7b1e7)">
     <use style="fill:#ff0000;stroke:#ff0000;" x="349.872803" xlink:href="#C0_0_0ff4c4ec09" y="157.160956"/>
    </g>
    <g clip-path="url(#p2cb2a7b1e7)">
     <use style="fill:#ff0000;stroke:#ff0000;" x="423.36347" xlink:href="#C0_0_0ff4c4ec09" y="217.977361"/>
    </g>
    <g clip-path="url(#p2cb2a7b1e7)">
     <use style="fill:#ff0000;stroke:#ff0000;" x="381.895054" xlink:href="#C0_0_0ff4c4ec09" y="228.853993"/>
    </g>
    <g clip-path="url(#p2cb2a7b1e7)">
     <use style="fill:#ff0000;stroke:#ff0000;" x="363.371851" xlink:href="#C0_0_0ff4c4ec09" y="221.839821"/>
    </g>
    <g clip-path="url(#p2cb2a7b1e7)">
     <use style="fill:#ff0000;stroke:#ff0000;" x="395.630498" xlink:href="#C0_0_0ff4c4ec09" y="240.315935"/>
    </g>
    <g clip-path="url(#p2cb2a7b1e7)">
     <use style="fill:#ff0000;stroke:#ff0000;" x="362.070498" xlink:href="#C0_0_0ff4c4ec09" y="463.760136"/>
    </g>
    <g clip-path="url(#p2cb2a7b1e7)">
     <use style="fill:#ff0000;stroke:#ff0000;" x="166.105785" xlink:href="#C0_0_0ff4c4ec09" y="306.080768"/>
    </g>
    <g clip-path="url(#p2cb2a7b1e7)">
     <use style="fill:#ff0000;stroke:#ff0000;" x="719.494215" xlink:href="#C0_0_0ff4c4ec09" y="210.436908"/>
    </g>
    <g clip-path="url(#p2cb2a7b1e7)">
     <use style="fill:#ff0000;stroke:#ff0000;" x="566.129295" xlink:href="#C0_0_0ff4c4ec09" y="116.826357"/>
    </g>
    <g clip-path="url(#p2cb2a7b1e7)">
     <use style="fill:#ff0000;stroke:#ff0000;" x="220.728999" xlink:href="#C0_0_0ff4c4ec09" y="355.634675"/>
    </g>
    <g clip-path="url(#p2cb2a7b1e7)">
     <use style="fill:#ff0000;stroke:#ff0000;" x="502.04273" xlink:href="#C0_0_0ff4c4ec09" y="278.109906"/>
    </g>
    <g clip-path="url(#p2cb2a7b1e7)">
     <use style="fill:#ff0000;stroke:#ff0000;" x="482.492486" xlink:href="#C0_0_0ff4c4ec09" y="276.607983"/>
    </g>
    <g clip-path="url(#p2cb2a7b1e7)">
     <use style="fill:#ff0000;stroke:#ff0000;" x="478.464361" xlink:href="#C0_0_0ff4c4ec09" y="288.508864"/>
    </g>
    <g clip-path="url(#p2cb2a7b1e7)">
     <use style="fill:#ff0000;stroke:#ff0000;" x="438.510281" xlink:href="#C0_0_0ff4c4ec09" y="325.605181"/>
    </g>
    <g clip-path="url(#p2cb2a7b1e7)">
     <use style="fill:#ff0000;stroke:#ff0000;" x="429.573721" xlink:href="#C0_0_0ff4c4ec09" y="315.921304"/>
    </g>
    <g clip-path="url(#p2cb2a7b1e7)">
     <use style="fill:#ff0000;stroke:#ff0000;" x="303.598821" xlink:href="#C0_0_0ff4c4ec09" y="217.73059"/>
    </g>
    <g clip-path="url(#p2cb2a7b1e7)">
     <use style="fill:#ff0000;stroke:#ff0000;" x="358.793362" xlink:href="#C0_0_0ff4c4ec09" y="188.712412"/>
    </g>
   </g>
   <g id="text_1">
    <g clip-path="url(#p2cb2a7b1e7)">
     <!-- CASP3 -->
     <g transform="translate(628.346462 186.565907)scale(0.12 -0.12)">
      <defs>
       <path d="M 64.40625 67.28125 
L 64.40625 56.890625 
Q 59.421875 61.53125 53.78125 63.8125 
Q 48.140625 66.109375 41.796875 66.109375 
Q 29.296875 66.109375 22.65625 58.46875 
Q 16.015625 50.828125 16.015625 36.375 
Q 16.015625 21.96875 22.65625 14.328125 
Q 29.296875 6.6875 41.796875 6.6875 
Q 48.140625 6.6875 53.78125 8.984375 
Q 59.421875 11.28125 64.40625 15.921875 
L 64.40625 5.609375 
Q 59.234375 2.09375 53.4375 0.328125 
Q 47.65625 -1.421875 41.21875 -1.421875 
Q 24.65625 -1.421875 15.125 8.703125 
Q 5.609375 18.84375 5.609375 36.375 
Q 5.609375 53.953125 15.125 64.078125 
Q 24.65625 74.21875 41.21875 74.21875 
Q 47.75 74.21875 53.53125 72.484375 
Q 59.328125 70.75 64.40625 67.28125 
z
" id="DejaVuSans-67"/>
       <path d="M 34.1875 63.1875 
L 20.796875 26.90625 
L 47.609375 26.90625 
z
M 28.609375 72.90625 
L 39.796875 72.90625 
L 67.578125 0 
L 57.328125 0 
L 50.6875 18.703125 
L 17.828125 18.703125 
L 11.1875 0 
L 0.78125 0 
z
" id="DejaVuSans-65"/>
       <path d="M 53.515625 70.515625 
L 53.515625 60.890625 
Q 47.90625 63.578125 42.921875 64.890625 
Q 37.9375 66.21875 33.296875 66.21875 
Q 25.25 66.21875 20.875 63.09375 
Q 16.5 59.96875 16.5 54.203125 
Q 16.5 49.359375 19.40625 46.890625 
Q 22.3125 44.4375 30.421875 42.921875 
L 36.375 41.703125 
Q 47.40625 39.59375 52.65625 34.296875 
Q 57.90625 29 57.90625 20.125 
Q 57.90625 9.515625 50.796875 4.046875 
Q 43.703125 -1.421875 29.984375 -1.421875 
Q 24.8125 -1.421875 18.96875 -0.25 
Q 13.140625 0.921875 6.890625 3.21875 
L 6.890625 13.375 
Q 12.890625 10.015625 18.65625 8.296875 
Q 24.421875 6.59375 29.984375 6.59375 
Q 38.421875 6.59375 43.015625 9.90625 
Q 47.609375 13.234375 47.609375 19.390625 
Q 47.609375 24.75 44.3125 27.78125 
Q 41.015625 30.8125 33.5 32.328125 
L 27.484375 33.5 
Q 16.453125 35.6875 11.515625 40.375 
Q 6.59375 45.0625 6.59375 53.421875 
Q 6.59375 63.09375 13.40625 68.65625 
Q 20.21875 74.21875 32.171875 74.21875 
Q 37.3125 74.21875 42.625 73.28125 
Q 47.953125 72.359375 53.515625 70.515625 
z
" id="DejaVuSans-83"/>
       <path d="M 19.671875 64.796875 
L 19.671875 37.40625 
L 32.078125 37.40625 
Q 38.96875 37.40625 42.71875 40.96875 
Q 46.484375 44.53125 46.484375 51.125 
Q 46.484375 57.671875 42.71875 61.234375 
Q 38.96875 64.796875 32.078125 64.796875 
z
M 9.8125 72.90625 
L 32.078125 72.90625 
Q 44.34375 72.90625 50.609375 67.359375 
Q 56.890625 61.8125 56.890625 51.125 
Q 56.890625 40.328125 50.609375 34.8125 
Q 44.34375 29.296875 32.078125 29.296875 
L 19.671875 29.296875 
L 19.671875 0 
L 9.8125 0 
z
" id="DejaVuSans-80"/>
       <path d="M 40.578125 39.3125 
Q 47.65625 37.796875 51.625 33 
Q 55.609375 28.21875 55.609375 21.1875 
Q 55.609375 10.40625 48.1875 4.484375 
Q 40.765625 -1.421875 27.09375 -1.421875 
Q 22.515625 -1.421875 17.65625 -0.515625 
Q 12.796875 0.390625 7.625 2.203125 
L 7.625 11.71875 
Q 11.71875 9.328125 16.59375 8.109375 
Q 21.484375 6.890625 26.8125 6.890625 
Q 36.078125 6.890625 40.9375 10.546875 
Q 45.796875 14.203125 45.796875 21.1875 
Q 45.796875 27.640625 41.28125 31.265625 
Q 36.765625 34.90625 28.71875 34.90625 
L 20.21875 34.90625 
L 20.21875 43.015625 
L 29.109375 43.015625 
Q 36.375 43.015625 40.234375 45.921875 
Q 44.09375 48.828125 44.09375 54.296875 
Q 44.09375 59.90625 40.109375 62.90625 
Q 36.140625 65.921875 28.71875 65.921875 
Q 24.65625 65.921875 20.015625 65.03125 
Q 15.375 64.15625 9.8125 62.3125 
L 9.8125 71.09375 
Q 15.4375 72.65625 20.34375 73.4375 
Q 25.25 74.21875 29.59375 74.21875 
Q 40.828125 74.21875 47.359375 69.109375 
Q 53.90625 64.015625 53.90625 55.328125 
Q 53.90625 49.265625 50.4375 45.09375 
Q 46.96875 40.921875 40.578125 39.3125 
z
" id="DejaVuSans-51"/>
      </defs>
      <use xlink:href="#DejaVuSans-67"/>
      <use x="69.824219" xlink:href="#DejaVuSans-65"/>
      <use x="138.232422" xlink:href="#DejaVuSans-83"/>
      <use x="201.708984" xlink:href="#DejaVuSans-80"/>
      <use x="262.011719" xlink:href="#DejaVuSans-51"/>
     </g>
    </g>
   </g>
   <g id="text_2">
    <g clip-path="url(#p2cb2a7b1e7)">
     <!-- CASP9 -->
     <g transform="translate(551.946259 306.302385)scale(0.12 -0.12)">
      <defs>
       <path d="M 10.984375 1.515625 
L 10.984375 10.5 
Q 14.703125 8.734375 18.5 7.8125 
Q 22.3125 6.890625 25.984375 6.890625 
Q 35.75 6.890625 40.890625 13.453125 
Q 46.046875 20.015625 46.78125 33.40625 
Q 43.953125 29.203125 39.59375 26.953125 
Q 35.25 24.703125 29.984375 24.703125 
Q 19.046875 24.703125 12.671875 31.3125 
Q 6.296875 37.9375 6.296875 49.421875 
Q 6.296875 60.640625 12.9375 67.421875 
Q 19.578125 74.21875 30.609375 74.21875 
Q 43.265625 74.21875 49.921875 64.515625 
Q 56.59375 54.828125 56.59375 36.375 
Q 56.59375 19.140625 48.40625 8.859375 
Q 40.234375 -1.421875 26.421875 -1.421875 
Q 22.703125 -1.421875 18.890625 -0.6875 
Q 15.09375 0.046875 10.984375 1.515625 
z
M 30.609375 32.421875 
Q 37.25 32.421875 41.125 36.953125 
Q 45.015625 41.5 45.015625 49.421875 
Q 45.015625 57.28125 41.125 61.84375 
Q 37.25 66.40625 30.609375 66.40625 
Q 23.96875 66.40625 20.09375 61.84375 
Q 16.21875 57.28125 16.21875 49.421875 
Q 16.21875 41.5 20.09375 36.953125 
Q 23.96875 32.421875 30.609375 32.421875 
z
" id="DejaVuSans-57"/>
      </defs>
      <use xlink:href="#DejaVuSans-67"/>
      <use x="69.824219" xlink:href="#DejaVuSans-65"/>
      <use x="138.232422" xlink:href="#DejaVuSans-83"/>
      <use x="201.708984" xlink:href="#DejaVuSans-80"/>
      <use x="262.011719" xlink:href="#DejaVuSans-57"/>
     </g>
    </g>
   </g>
   <g id="text_3">
    <g clip-path="url(#p2cb2a7b1e7)">
     <!-- APPL1 -->
     <g transform="translate(664.730811 254.597719)scale(0.12 -0.12)">
      <defs>
       <path d="M 9.8125 72.90625 
L 19.671875 72.90625 
L 19.671875 8.296875 
L 55.171875 8.296875 
L 55.171875 0 
L 9.8125 0 
z
" id="DejaVuSans-76"/>
       <path d="M 12.40625 8.296875 
L 28.515625 8.296875 
L 28.515625 63.921875 
L 10.984375 60.40625 
L 10.984375 69.390625 
L 28.421875 72.90625 
L 38.28125 72.90625 
L 38.28125 8.296875 
L 54.390625 8.296875 
L 54.390625 0 
L 12.40625 0 
z
" id="DejaVuSans-49"/>
      </defs>
      <use xlink:href="#DejaVuSans-65"/>
      <use x="68.408203" xlink:href="#DejaVuSans-80"/>
      <use x="128.710938" xlink:href="#DejaVuSans-80"/>
      <use x="189.013672" xlink:href="#DejaVuSans-76"/>
      <use x="244.726562" xlink:href="#DejaVuSans-49"/>
     </g>
    </g>
   </g>
   <g id="text_4">
    <g clip-path="url(#p2cb2a7b1e7)">
     <!-- TGFBR1 -->
     <g transform="translate(389.24976 144.595788)scale(0.12 -0.12)">
      <defs>
       <path d="M -0.296875 72.90625 
L 61.375 72.90625 
L 61.375 64.59375 
L 35.5 64.59375 
L 35.5 0 
L 25.59375 0 
L 25.59375 64.59375 
L -0.296875 64.59375 
z
" id="DejaVuSans-84"/>
       <path d="M 59.515625 10.40625 
L 59.515625 29.984375 
L 43.40625 29.984375 
L 43.40625 38.09375 
L 69.28125 38.09375 
L 69.28125 6.78125 
Q 63.578125 2.734375 56.6875 0.65625 
Q 49.8125 -1.421875 42 -1.421875 
Q 24.90625 -1.421875 15.25 8.5625 
Q 5.609375 18.5625 5.609375 36.375 
Q 5.609375 54.25 15.25 64.234375 
Q 24.90625 74.21875 42 74.21875 
Q 49.125 74.21875 55.546875 72.453125 
Q 61.96875 70.703125 67.390625 67.28125 
L 67.390625 56.78125 
Q 61.921875 61.421875 55.765625 63.765625 
Q 49.609375 66.109375 42.828125 66.109375 
Q 29.4375 66.109375 22.71875 58.640625 
Q 16.015625 51.171875 16.015625 36.375 
Q 16.015625 21.625 22.71875 14.15625 
Q 29.4375 6.6875 42.828125 6.6875 
Q 48.046875 6.6875 52.140625 7.59375 
Q 56.25 8.5 59.515625 10.40625 
z
" id="DejaVuSans-71"/>
       <path d="M 9.8125 72.90625 
L 51.703125 72.90625 
L 51.703125 64.59375 
L 19.671875 64.59375 
L 19.671875 43.109375 
L 48.578125 43.109375 
L 48.578125 34.8125 
L 19.671875 34.8125 
L 19.671875 0 
L 9.8125 0 
z
" id="DejaVuSans-70"/>
       <path d="M 19.671875 34.8125 
L 19.671875 8.109375 
L 35.5 8.109375 
Q 43.453125 8.109375 47.28125 11.40625 
Q 51.125 14.703125 51.125 21.484375 
Q 51.125 28.328125 47.28125 31.5625 
Q 43.453125 34.8125 35.5 34.8125 
z
M 19.671875 64.796875 
L 19.671875 42.828125 
L 34.28125 42.828125 
Q 41.5 42.828125 45.03125 45.53125 
Q 48.578125 48.25 48.578125 53.8125 
Q 48.578125 59.328125 45.03125 62.0625 
Q 41.5 64.796875 34.28125 64.796875 
z
M 9.8125 72.90625 
L 35.015625 72.90625 
Q 46.296875 72.90625 52.390625 68.21875 
Q 58.5 63.53125 58.5 54.890625 
Q 58.5 48.1875 55.375 44.234375 
Q 52.25 40.28125 46.1875 39.3125 
Q 53.46875 37.75 57.5 32.78125 
Q 61.53125 27.828125 61.53125 20.40625 
Q 61.53125 10.640625 54.890625 5.3125 
Q 48.25 0 35.984375 0 
L 9.8125 0 
z
" id="DejaVuSans-66"/>
       <path d="M 44.390625 34.1875 
Q 47.5625 33.109375 50.5625 29.59375 
Q 53.5625 26.078125 56.59375 19.921875 
L 66.609375 0 
L 56 0 
L 46.6875 18.703125 
Q 43.0625 26.03125 39.671875 28.421875 
Q 36.28125 30.8125 30.421875 30.8125 
L 19.671875 30.8125 
L 19.671875 0 
L 9.8125 0 
L 9.8125 72.90625 
L 32.078125 72.90625 
Q 44.578125 72.90625 50.734375 67.671875 
Q 56.890625 62.453125 56.890625 51.90625 
Q 56.890625 45.015625 53.6875 40.46875 
Q 50.484375 35.9375 44.390625 34.1875 
z
M 19.671875 64.796875 
L 19.671875 38.921875 
L 32.078125 38.921875 
Q 39.203125 38.921875 42.84375 42.21875 
Q 46.484375 45.515625 46.484375 51.90625 
Q 46.484375 58.296875 42.84375 61.546875 
Q 39.203125 64.796875 32.078125 64.796875 
z
" id="DejaVuSans-82"/>
      </defs>
      <use xlink:href="#DejaVuSans-84"/>
      <use x="61.083984" xlink:href="#DejaVuSans-71"/>
      <use x="138.574219" xlink:href="#DejaVuSans-70"/>
      <use x="196.09375" xlink:href="#DejaVuSans-66"/>
      <use x="264.697266" xlink:href="#DejaVuSans-82"/>
      <use x="334.179688" xlink:href="#DejaVuSans-49"/>
     </g>
    </g>
   </g>
   <g id="text_5">
    <g clip-path="url(#p2cb2a7b1e7)">
     <!-- SMAD4 -->
     <g transform="translate(209.720364 202.22536)scale(0.12 -0.12)">
      <defs>
       <path d="M 9.8125 72.90625 
L 24.515625 72.90625 
L 43.109375 23.296875 
L 61.8125 72.90625 
L 76.515625 72.90625 
L 76.515625 0 
L 66.890625 0 
L 66.890625 64.015625 
L 48.09375 14.015625 
L 38.1875 14.015625 
L 19.390625 64.015625 
L 19.390625 0 
L 9.8125 0 
z
" id="DejaVuSans-77"/>
       <path d="M 19.671875 64.796875 
L 19.671875 8.109375 
L 31.59375 8.109375 
Q 46.6875 8.109375 53.6875 14.9375 
Q 60.6875 21.78125 60.6875 36.53125 
Q 60.6875 51.171875 53.6875 57.984375 
Q 46.6875 64.796875 31.59375 64.796875 
z
M 9.8125 72.90625 
L 30.078125 72.90625 
Q 51.265625 72.90625 61.171875 64.09375 
Q 71.09375 55.28125 71.09375 36.53125 
Q 71.09375 17.671875 61.125 8.828125 
Q 51.171875 0 30.078125 0 
L 9.8125 0 
z
" id="DejaVuSans-68"/>
       <path d="M 37.796875 64.3125 
L 12.890625 25.390625 
L 37.796875 25.390625 
z
M 35.203125 72.90625 
L 47.609375 72.90625 
L 47.609375 25.390625 
L 58.015625 25.390625 
L 58.015625 17.1875 
L 47.609375 17.1875 
L 47.609375 0 
L 37.796875 0 
L 37.796875 17.1875 
L 4.890625 17.1875 
L 4.890625 26.703125 
z
" id="DejaVuSans-52"/>
      </defs>
      <use xlink:href="#DejaVuSans-83"/>
      <use x="63.476562" xlink:href="#DejaVuSans-77"/>
      <use x="149.755859" xlink:href="#DejaVuSans-65"/>
      <use x="218.164062" xlink:href="#DejaVuSans-68"/>
      <use x="295.166016" xlink:href="#DejaVuSans-52"/>
     </g>
    </g>
   </g>
   <g id="text_6">
    <g clip-path="url(#p2cb2a7b1e7)">
     <!-- KRAS -->
     <g transform="translate(331.71563 291.69963)scale(0.12 -0.12)">
      <defs>
       <path d="M 9.8125 72.90625 
L 19.671875 72.90625 
L 19.671875 42.09375 
L 52.390625 72.90625 
L 65.09375 72.90625 
L 28.90625 38.921875 
L 67.671875 0 
L 54.6875 0 
L 19.671875 35.109375 
L 19.671875 0 
L 9.8125 0 
z
" id="DejaVuSans-75"/>
      </defs>
      <use xlink:href="#DejaVuSans-75"/>
      <use x="65.576172" xlink:href="#DejaVuSans-82"/>
      <use x="131.058594" xlink:href="#DejaVuSans-65"/>
      <use x="199.466797" xlink:href="#DejaVuSans-83"/>
     </g>
    </g>
   </g>
   <g id="text_7">
    <g clip-path="url(#p2cb2a7b1e7)">
     <!-- RALGDS -->
     <g transform="translate(361.662984 372.009802)scale(0.12 -0.12)">
      <use xlink:href="#DejaVuSans-82"/>
      <use x="65.482422" xlink:href="#DejaVuSans-65"/>
      <use x="133.890625" xlink:href="#DejaVuSans-76"/>
      <use x="189.603516" xlink:href="#DejaVuSans-71"/>
      <use x="267.09375" xlink:href="#DejaVuSans-68"/>
      <use x="344.095703" xlink:href="#DejaVuSans-83"/>
     </g>
    </g>
   </g>
   <g id="text_8">
    <g clip-path="url(#p2cb2a7b1e7)">
     <!-- BIRC5 -->
     <g transform="translate(679.175574 417.901037)scale(0.12 -0.12)">
      <defs>
       <path d="M 9.8125 72.90625 
L 19.671875 72.90625 
L 19.671875 0 
L 9.8125 0 
z
" id="DejaVuSans-73"/>
       <path d="M 10.796875 72.90625 
L 49.515625 72.90625 
L 49.515625 64.59375 
L 19.828125 64.59375 
L 19.828125 46.734375 
Q 21.96875 47.46875 24.109375 47.828125 
Q 26.265625 48.1875 28.421875 48.1875 
Q 40.625 48.1875 47.75 41.5 
Q 54.890625 34.8125 54.890625 23.390625 
Q 54.890625 11.625 47.5625 5.09375 
Q 40.234375 -1.421875 26.90625 -1.421875 
Q 22.3125 -1.421875 17.546875 -0.640625 
Q 12.796875 0.140625 7.71875 1.703125 
L 7.71875 11.625 
Q 12.109375 9.234375 16.796875 8.0625 
Q 21.484375 6.890625 26.703125 6.890625 
Q 35.15625 6.890625 40.078125 11.328125 
Q 45.015625 15.765625 45.015625 23.390625 
Q 45.015625 31 40.078125 35.4375 
Q 35.15625 39.890625 26.703125 39.890625 
Q 22.75 39.890625 18.8125 39.015625 
Q 14.890625 38.140625 10.796875 36.28125 
z
" id="DejaVuSans-53"/>
      </defs>
      <use xlink:href="#DejaVuSans-66"/>
      <use x="68.603516" xlink:href="#DejaVuSans-73"/>
      <use x="98.095703" xlink:href="#DejaVuSans-82"/>
      <use x="162.578125" xlink:href="#DejaVuSans-67"/>
      <use x="232.402344" xlink:href="#DejaVuSans-53"/>
     </g>
    </g>
   </g>
   <g id="text_9">
    <g clip-path="url(#p2cb2a7b1e7)">
     <!-- MYC -->
     <g transform="translate(338.350516 266.499898)scale(0.12 -0.12)">
      <defs>
       <path d="M -0.203125 72.90625 
L 10.40625 72.90625 
L 30.609375 42.921875 
L 50.6875 72.90625 
L 61.28125 72.90625 
L 35.5 34.71875 
L 35.5 0 
L 25.59375 0 
L 25.59375 34.71875 
z
" id="DejaVuSans-89"/>
      </defs>
      <use xlink:href="#DejaVuSans-77"/>
      <use x="86.279297" xlink:href="#DejaVuSans-89"/>
      <use x="141.863281" xlink:href="#DejaVuSans-67"/>
     </g>
    </g>
   </g>
   <g id="text_10">
    <g clip-path="url(#p2cb2a7b1e7)">
     <!-- CCND1 -->
     <g transform="translate(294.078224 142.276119)scale(0.12 -0.12)">
      <defs>
       <path d="M 9.8125 72.90625 
L 23.09375 72.90625 
L 55.421875 11.921875 
L 55.421875 72.90625 
L 64.984375 72.90625 
L 64.984375 0 
L 51.703125 0 
L 19.390625 60.984375 
L 19.390625 0 
L 9.8125 0 
z
" id="DejaVuSans-78"/>
      </defs>
      <use xlink:href="#DejaVuSans-67"/>
      <use x="69.824219" xlink:href="#DejaVuSans-67"/>
      <use x="139.648438" xlink:href="#DejaVuSans-78"/>
      <use x="214.453125" xlink:href="#DejaVuSans-68"/>
      <use x="291.455078" xlink:href="#DejaVuSans-49"/>
     </g>
    </g>
   </g>
   <g id="text_11">
    <g clip-path="url(#p2cb2a7b1e7)">
     <!-- JUN -->
     <g transform="translate(482.95693 184.735648)scale(0.12 -0.12)">
      <defs>
       <path d="M 9.8125 72.90625 
L 19.671875 72.90625 
L 19.671875 5.078125 
Q 19.671875 -8.109375 14.671875 -14.0625 
Q 9.671875 -20.015625 -1.421875 -20.015625 
L -5.171875 -20.015625 
L -5.171875 -11.71875 
L -2.09375 -11.71875 
Q 4.4375 -11.71875 7.125 -8.046875 
Q 9.8125 -4.390625 9.8125 5.078125 
z
" id="DejaVuSans-74"/>
       <path d="M 8.6875 72.90625 
L 18.609375 72.90625 
L 18.609375 28.609375 
Q 18.609375 16.890625 22.84375 11.734375 
Q 27.09375 6.59375 36.625 6.59375 
Q 46.09375 6.59375 50.34375 11.734375 
Q 54.59375 16.890625 54.59375 28.609375 
L 54.59375 72.90625 
L 64.5 72.90625 
L 64.5 27.390625 
Q 64.5 13.140625 57.4375 5.859375 
Q 50.390625 -1.421875 36.625 -1.421875 
Q 22.796875 -1.421875 15.734375 5.859375 
Q 8.6875 13.140625 8.6875 27.390625 
z
" id="DejaVuSans-85"/>
      </defs>
      <use xlink:href="#DejaVuSans-74"/>
      <use x="29.492188" xlink:href="#DejaVuSans-85"/>
      <use x="102.685547" xlink:href="#DejaVuSans-78"/>
     </g>
    </g>
   </g>
   <g id="text_12">
    <g clip-path="url(#p2cb2a7b1e7)">
     <!-- FOS -->
     <g transform="translate(403.164379 110.918523)scale(0.12 -0.12)">
      <defs>
       <path d="M 39.40625 66.21875 
Q 28.65625 66.21875 22.328125 58.203125 
Q 16.015625 50.203125 16.015625 36.375 
Q 16.015625 22.609375 22.328125 14.59375 
Q 28.65625 6.59375 39.40625 6.59375 
Q 50.140625 6.59375 56.421875 14.59375 
Q 62.703125 22.609375 62.703125 36.375 
Q 62.703125 50.203125 56.421875 58.203125 
Q 50.140625 66.21875 39.40625 66.21875 
z
M 39.40625 74.21875 
Q 54.734375 74.21875 63.90625 63.9375 
Q 73.09375 53.65625 73.09375 36.375 
Q 73.09375 19.140625 63.90625 8.859375 
Q 54.734375 -1.421875 39.40625 -1.421875 
Q 24.03125 -1.421875 14.8125 8.828125 
Q 5.609375 19.09375 5.609375 36.375 
Q 5.609375 53.65625 14.8125 63.9375 
Q 24.03125 74.21875 39.40625 74.21875 
z
" id="DejaVuSans-79"/>
      </defs>
      <use xlink:href="#DejaVuSans-70"/>
      <use x="57.519531" xlink:href="#DejaVuSans-79"/>
      <use x="136.230469" xlink:href="#DejaVuSans-83"/>
     </g>
    </g>
   </g>
   <g id="text_13">
    <g clip-path="url(#p2cb2a7b1e7)">
     <!-- BCL2 -->
     <g transform="translate(620.81536 430.743423)scale(0.12 -0.12)">
      <defs>
       <path d="M 19.1875 8.296875 
L 53.609375 8.296875 
L 53.609375 0 
L 7.328125 0 
L 7.328125 8.296875 
Q 12.9375 14.109375 22.625 23.890625 
Q 32.328125 33.6875 34.8125 36.53125 
Q 39.546875 41.84375 41.421875 45.53125 
Q 43.3125 49.21875 43.3125 52.78125 
Q 43.3125 58.59375 39.234375 62.25 
Q 35.15625 65.921875 28.609375 65.921875 
Q 23.96875 65.921875 18.8125 64.3125 
Q 13.671875 62.703125 7.8125 59.421875 
L 7.8125 69.390625 
Q 13.765625 71.78125 18.9375 73 
Q 24.125 74.21875 28.421875 74.21875 
Q 39.75 74.21875 46.484375 68.546875 
Q 53.21875 62.890625 53.21875 53.421875 
Q 53.21875 48.921875 51.53125 44.890625 
Q 49.859375 40.875 45.40625 35.40625 
Q 44.1875 33.984375 37.640625 27.21875 
Q 31.109375 20.453125 19.1875 8.296875 
z
" id="DejaVuSans-50"/>
      </defs>
      <use xlink:href="#DejaVuSans-66"/>
      <use x="66.853516" xlink:href="#DejaVuSans-67"/>
      <use x="136.677734" xlink:href="#DejaVuSans-76"/>
      <use x="192.390625" xlink:href="#DejaVuSans-50"/>
     </g>
    </g>
   </g>
   <g id="text_14">
    <g clip-path="url(#p2cb2a7b1e7)">
     <!-- TP53 -->
     <g transform="translate(486.392954 264.65816)scale(0.12 -0.12)">
      <use xlink:href="#DejaVuSans-84"/>
      <use x="61.083984" xlink:href="#DejaVuSans-80"/>
      <use x="121.386719" xlink:href="#DejaVuSans-53"/>
      <use x="185.009766" xlink:href="#DejaVuSans-51"/>
     </g>
    </g>
   </g>
   <g id="text_15">
    <g clip-path="url(#p2cb2a7b1e7)">
     <!-- GSK3B -->
     <g transform="translate(361.022187 409.936267)scale(0.12 -0.12)">
      <use xlink:href="#DejaVuSans-71"/>
      <use x="77.490234" xlink:href="#DejaVuSans-83"/>
      <use x="140.966797" xlink:href="#DejaVuSans-75"/>
      <use x="206.542969" xlink:href="#DejaVuSans-51"/>
      <use x="270.166016" xlink:href="#DejaVuSans-66"/>
     </g>
    </g>
   </g>
   <g id="text_16">
    <g clip-path="url(#p2cb2a7b1e7)">
     <!-- CTNNB1 -->
     <g transform="translate(459.447379 334.948614)scale(0.12 -0.12)">
      <use xlink:href="#DejaVuSans-67"/>
      <use x="69.824219" xlink:href="#DejaVuSans-84"/>
      <use x="130.908203" xlink:href="#DejaVuSans-78"/>
      <use x="205.712891" xlink:href="#DejaVuSans-78"/>
      <use x="280.517578" xlink:href="#DejaVuSans-66"/>
      <use x="349.121094" xlink:href="#DejaVuSans-49"/>
     </g>
    </g>
   </g>
   <g id="text_17">
    <g clip-path="url(#p2cb2a7b1e7)">
     <!-- BAD -->
     <g transform="translate(565.487775 477.463977)scale(0.12 -0.12)">
      <use xlink:href="#DejaVuSans-66"/>
      <use x="68.603516" xlink:href="#DejaVuSans-65"/>
      <use x="137.011719" xlink:href="#DejaVuSans-68"/>
     </g>
    </g>
   </g>
   <g id="text_18">
    <g clip-path="url(#p2cb2a7b1e7)">
     <!-- BAX -->
     <g transform="translate(704.510156 395.339588)scale(0.12 -0.12)">
      <defs>
       <path d="M 6.296875 72.90625 
L 16.890625 72.90625 
L 35.015625 45.796875 
L 53.21875 72.90625 
L 63.8125 72.90625 
L 40.375 37.890625 
L 65.375 0 
L 54.78125 0 
L 34.28125 31 
L 13.625 0 
L 2.984375 0 
L 29 38.921875 
z
" id="DejaVuSans-88"/>
      </defs>
      <use xlink:href="#DejaVuSans-66"/>
      <use x="68.603516" xlink:href="#DejaVuSans-65"/>
      <use x="137.011719" xlink:href="#DejaVuSans-88"/>
     </g>
    </g>
   </g>
   <g id="text_19">
    <g clip-path="url(#p2cb2a7b1e7)">
     <!-- TGFBR2 -->
     <g transform="translate(482.379823 228.758408)scale(0.12 -0.12)">
      <use xlink:href="#DejaVuSans-84"/>
      <use x="61.083984" xlink:href="#DejaVuSans-71"/>
      <use x="138.574219" xlink:href="#DejaVuSans-70"/>
      <use x="196.09375" xlink:href="#DejaVuSans-66"/>
      <use x="264.697266" xlink:href="#DejaVuSans-82"/>
      <use x="334.179688" xlink:href="#DejaVuSans-50"/>
     </g>
    </g>
   </g>
   <g id="text_20">
    <g clip-path="url(#p2cb2a7b1e7)">
     <!-- DDB2 -->
     <g transform="translate(152.81305 255.512271)scale(0.12 -0.12)">
      <use xlink:href="#DejaVuSans-68"/>
      <use x="77.001953" xlink:href="#DejaVuSans-68"/>
      <use x="154.003906" xlink:href="#DejaVuSans-66"/>
      <use x="222.607422" xlink:href="#DejaVuSans-50"/>
     </g>
    </g>
   </g>
   <g id="text_21">
    <g clip-path="url(#p2cb2a7b1e7)">
     <!-- POLK -->
     <g transform="translate(626.884919 144.491516)scale(0.12 -0.12)">
      <use xlink:href="#DejaVuSans-80"/>
      <use x="60.302734" xlink:href="#DejaVuSans-79"/>
      <use x="139.013672" xlink:href="#DejaVuSans-76"/>
      <use x="194.726562" xlink:href="#DejaVuSans-75"/>
     </g>
    </g>
   </g>
   <g id="text_22">
    <g clip-path="url(#p2cb2a7b1e7)">
     <!-- PMAIP1 -->
     <g transform="translate(478.479061 372.114604)scale(0.12 -0.12)">
      <use xlink:href="#DejaVuSans-80"/>
      <use x="60.302734" xlink:href="#DejaVuSans-77"/>
      <use x="146.582031" xlink:href="#DejaVuSans-65"/>
      <use x="214.990234" xlink:href="#DejaVuSans-73"/>
      <use x="244.482422" xlink:href="#DejaVuSans-80"/>
      <use x="304.785156" xlink:href="#DejaVuSans-49"/>
     </g>
    </g>
   </g>
   <g id="text_23">
    <g clip-path="url(#p2cb2a7b1e7)">
     <!-- BCL2L11 -->
     <g transform="translate(666.802629 364.710827)scale(0.12 -0.12)">
      <use xlink:href="#DejaVuSans-66"/>
      <use x="66.853516" xlink:href="#DejaVuSans-67"/>
      <use x="136.677734" xlink:href="#DejaVuSans-76"/>
      <use x="192.390625" xlink:href="#DejaVuSans-50"/>
      <use x="256.013672" xlink:href="#DejaVuSans-76"/>
      <use x="311.726562" xlink:href="#DejaVuSans-49"/>
      <use x="375.349609" xlink:href="#DejaVuSans-49"/>
     </g>
    </g>
   </g>
   <g id="text_24">
    <g clip-path="url(#p2cb2a7b1e7)">
     <!-- BBC3 -->
     <g transform="translate(610.41589 460.134189)scale(0.12 -0.12)">
      <use xlink:href="#DejaVuSans-66"/>
      <use x="68.603516" xlink:href="#DejaVuSans-66"/>
      <use x="135.457031" xlink:href="#DejaVuSans-67"/>
      <use x="205.28125" xlink:href="#DejaVuSans-51"/>
     </g>
    </g>
   </g>
   <g id="text_25">
    <g clip-path="url(#p2cb2a7b1e7)">
     <!-- SMAD2 -->
     <g transform="translate(328.344991 160.472206)scale(0.12 -0.12)">
      <use xlink:href="#DejaVuSans-83"/>
      <use x="63.476562" xlink:href="#DejaVuSans-77"/>
      <use x="149.755859" xlink:href="#DejaVuSans-65"/>
      <use x="218.164062" xlink:href="#DejaVuSans-68"/>
      <use x="295.166016" xlink:href="#DejaVuSans-50"/>
     </g>
    </g>
   </g>
   <g id="text_26">
    <g clip-path="url(#p2cb2a7b1e7)">
     <!-- SMAD3 -->
     <g transform="translate(401.835658 221.288611)scale(0.12 -0.12)">
      <use xlink:href="#DejaVuSans-83"/>
      <use x="63.476562" xlink:href="#DejaVuSans-77"/>
      <use x="149.755859" xlink:href="#DejaVuSans-65"/>
      <use x="218.164062" xlink:href="#DejaVuSans-68"/>
      <use x="295.166016" xlink:href="#DejaVuSans-51"/>
     </g>
    </g>
   </g>
   <g id="text_27">
    <g clip-path="url(#p2cb2a7b1e7)">
     <!-- BRAF -->
     <g transform="translate(366.294117 232.165243)scale(0.12 -0.12)">
      <use xlink:href="#DejaVuSans-66"/>
      <use x="68.603516" xlink:href="#DejaVuSans-82"/>
      <use x="134.085938" xlink:href="#DejaVuSans-65"/>
      <use x="202.494141" xlink:href="#DejaVuSans-70"/>
     </g>
    </g>
   </g>
   <g id="text_28">
    <g clip-path="url(#p2cb2a7b1e7)">
     <!-- RAF1 -->
     <g transform="translate(348.069976 225.151071)scale(0.12 -0.12)">
      <use xlink:href="#DejaVuSans-82"/>
      <use x="65.482422" xlink:href="#DejaVuSans-65"/>
      <use x="133.890625" xlink:href="#DejaVuSans-70"/>
      <use x="191.410156" xlink:href="#DejaVuSans-49"/>
     </g>
    </g>
   </g>
   <g id="text_29">
    <g clip-path="url(#p2cb2a7b1e7)">
     <!-- ARAF -->
     <g transform="translate(380.041748 243.627185)scale(0.12 -0.12)">
      <use xlink:href="#DejaVuSans-65"/>
      <use x="68.408203" xlink:href="#DejaVuSans-82"/>
      <use x="133.890625" xlink:href="#DejaVuSans-65"/>
      <use x="202.298828" xlink:href="#DejaVuSans-70"/>
     </g>
    </g>
   </g>
   <g id="text_30">
    <g clip-path="url(#p2cb2a7b1e7)">
     <!-- RAC1 -->
     <g transform="translate(346.134873 467.071386)scale(0.12 -0.12)">
      <use xlink:href="#DejaVuSans-82"/>
      <use x="65.482422" xlink:href="#DejaVuSans-65"/>
      <use x="132.140625" xlink:href="#DejaVuSans-67"/>
      <use x="201.964844" xlink:href="#DejaVuSans-49"/>
     </g>
    </g>
   </g>
   <g id="text_31">
    <g clip-path="url(#p2cb2a7b1e7)">
     <!-- RAC2 -->
     <g transform="translate(150.17016 309.392018)scale(0.12 -0.12)">
      <use xlink:href="#DejaVuSans-82"/>
      <use x="65.482422" xlink:href="#DejaVuSans-65"/>
      <use x="132.140625" xlink:href="#DejaVuSans-67"/>
      <use x="201.964844" xlink:href="#DejaVuSans-50"/>
     </g>
    </g>
   </g>
   <g id="text_32">
    <g clip-path="url(#p2cb2a7b1e7)">
     <!-- RHOA -->
     <g transform="translate(702.090465 213.748158)scale(0.12 -0.12)">
      <defs>
       <path d="M 9.8125 72.90625 
L 19.671875 72.90625 
L 19.671875 43.015625 
L 55.515625 43.015625 
L 55.515625 72.90625 
L 65.375 72.90625 
L 65.375 0 
L 55.515625 0 
L 55.515625 34.71875 
L 19.671875 34.71875 
L 19.671875 0 
L 9.8125 0 
z
" id="DejaVuSans-72"/>
      </defs>
      <use xlink:href="#DejaVuSans-82"/>
      <use x="69.482422" xlink:href="#DejaVuSans-72"/>
      <use x="144.677734" xlink:href="#DejaVuSans-79"/>
      <use x="221.638672" xlink:href="#DejaVuSans-65"/>
     </g>
    </g>
   </g>
   <g id="text_33">
    <g clip-path="url(#p2cb2a7b1e7)">
     <!-- MAP2K1 -->
     <g transform="translate(541.660545 120.137607)scale(0.12 -0.12)">
      <use xlink:href="#DejaVuSans-77"/>
      <use x="86.279297" xlink:href="#DejaVuSans-65"/>
      <use x="154.6875" xlink:href="#DejaVuSans-80"/>
      <use x="214.990234" xlink:href="#DejaVuSans-50"/>
      <use x="278.613281" xlink:href="#DejaVuSans-75"/>
      <use x="344.189453" xlink:href="#DejaVuSans-49"/>
     </g>
    </g>
   </g>
   <g id="text_34">
    <g clip-path="url(#p2cb2a7b1e7)">
     <!-- MAP2K2 -->
     <g transform="translate(196.260249 358.945925)scale(0.12 -0.12)">
      <use xlink:href="#DejaVuSans-77"/>
      <use x="86.279297" xlink:href="#DejaVuSans-65"/>
      <use x="154.6875" xlink:href="#DejaVuSans-80"/>
      <use x="214.990234" xlink:href="#DejaVuSans-50"/>
      <use x="278.613281" xlink:href="#DejaVuSans-75"/>
      <use x="344.189453" xlink:href="#DejaVuSans-50"/>
     </g>
    </g>
   </g>
   <g id="text_35">
    <g clip-path="url(#p2cb2a7b1e7)">
     <!-- TCF7 -->
     <g transform="translate(487.272418 281.421156)scale(0.12 -0.12)">
      <defs>
       <path d="M 8.203125 72.90625 
L 55.078125 72.90625 
L 55.078125 68.703125 
L 28.609375 0 
L 18.3125 0 
L 43.21875 64.59375 
L 8.203125 64.59375 
z
" id="DejaVuSans-55"/>
      </defs>
      <use xlink:href="#DejaVuSans-84"/>
      <use x="55.208984" xlink:href="#DejaVuSans-67"/>
      <use x="125.033203" xlink:href="#DejaVuSans-70"/>
      <use x="182.552734" xlink:href="#DejaVuSans-55"/>
     </g>
    </g>
   </g>
   <g id="text_36">
    <g clip-path="url(#p2cb2a7b1e7)">
     <!-- TCF7L2 -->
     <g transform="translate(460.561548 279.919233)scale(0.12 -0.12)">
      <use xlink:href="#DejaVuSans-84"/>
      <use x="55.208984" xlink:href="#DejaVuSans-67"/>
      <use x="125.033203" xlink:href="#DejaVuSans-70"/>
      <use x="182.552734" xlink:href="#DejaVuSans-55"/>
      <use x="246.175781" xlink:href="#DejaVuSans-76"/>
      <use x="301.888672" xlink:href="#DejaVuSans-50"/>
     </g>
    </g>
   </g>
   <g id="text_37">
    <g clip-path="url(#p2cb2a7b1e7)">
     <!-- LEF1 -->
     <g transform="translate(464.061548 291.820114)scale(0.12 -0.12)">
      <defs>
       <path d="M 9.8125 72.90625 
L 55.90625 72.90625 
L 55.90625 64.59375 
L 19.671875 64.59375 
L 19.671875 43.015625 
L 54.390625 43.015625 
L 54.390625 34.71875 
L 19.671875 34.71875 
L 19.671875 8.296875 
L 56.78125 8.296875 
L 56.78125 0 
L 9.8125 0 
z
" id="DejaVuSans-69"/>
      </defs>
      <use xlink:href="#DejaVuSans-76"/>
      <use x="55.712891" xlink:href="#DejaVuSans-69"/>
      <use x="118.896484" xlink:href="#DejaVuSans-70"/>
      <use x="176.416016" xlink:href="#DejaVuSans-49"/>
     </g>
    </g>
   </g>
   <g id="text_38">
    <g clip-path="url(#p2cb2a7b1e7)">
     <!-- RALA -->
     <g transform="translate(422.894344 328.916431)scale(0.12 -0.12)">
      <use xlink:href="#DejaVuSans-82"/>
      <use x="65.482422" xlink:href="#DejaVuSans-65"/>
      <use x="133.890625" xlink:href="#DejaVuSans-76"/>
      <use x="191.853516" xlink:href="#DejaVuSans-65"/>
     </g>
    </g>
   </g>
   <g id="text_39">
    <g clip-path="url(#p2cb2a7b1e7)">
     <!-- RALB -->
     <g transform="translate(414.080596 319.232554)scale(0.12 -0.12)">
      <use xlink:href="#DejaVuSans-82"/>
      <use x="65.482422" xlink:href="#DejaVuSans-65"/>
      <use x="133.890625" xlink:href="#DejaVuSans-76"/>
      <use x="189.603516" xlink:href="#DejaVuSans-66"/>
     </g>
    </g>
   </g>
   <g id="text_40">
    <g clip-path="url(#p2cb2a7b1e7)">
     <!-- HRAS -->
     <g transform="translate(287.244133 221.04184)scale(0.12 -0.12)">
      <use xlink:href="#DejaVuSans-72"/>
      <use x="75.195312" xlink:href="#DejaVuSans-82"/>
      <use x="140.677734" xlink:href="#DejaVuSans-65"/>
      <use x="209.085938" xlink:href="#DejaVuSans-83"/>
     </g>
    </g>
   </g>
   <g id="text_41">
    <g clip-path="url(#p2cb2a7b1e7)">
     <!-- NRAS -->
     <g transform="translate(342.462112 192.023662)scale(0.12 -0.12)">
      <use xlink:href="#DejaVuSans-78"/>
      <use x="74.804688" xlink:href="#DejaVuSans-82"/>
      <use x="140.287109" xlink:href="#DejaVuSans-65"/>
      <use x="208.695312" xlink:href="#DejaVuSans-83"/>
     </g>
    </g>
   </g>
   <g id="text_42">
    <!-- Frame: 11 -->
    <g transform="translate(121.392 91.296)scale(0.1 -0.1)">
     <defs>
      <path d="M 41.109375 46.296875 
Q 39.59375 47.171875 37.8125 47.578125 
Q 36.03125 48 33.890625 48 
Q 26.265625 48 22.1875 43.046875 
Q 18.109375 38.09375 18.109375 28.8125 
L 18.109375 0 
L 9.078125 0 
L 9.078125 54.6875 
L 18.109375 54.6875 
L 18.109375 46.1875 
Q 20.953125 51.171875 25.484375 53.578125 
Q 30.03125 56 36.53125 56 
Q 37.453125 56 38.578125 55.875 
Q 39.703125 55.765625 41.0625 55.515625 
z
" id="DejaVuSans-114"/>
      <path d="M 34.28125 27.484375 
Q 23.390625 27.484375 19.1875 25 
Q 14.984375 22.515625 14.984375 16.5 
Q 14.984375 11.71875 18.140625 8.90625 
Q 21.296875 6.109375 26.703125 6.109375 
Q 34.1875 6.109375 38.703125 11.40625 
Q 43.21875 16.703125 43.21875 25.484375 
L 43.21875 27.484375 
z
M 52.203125 31.203125 
L 52.203125 0 
L 43.21875 0 
L 43.21875 8.296875 
Q 40.140625 3.328125 35.546875 0.953125 
Q 30.953125 -1.421875 24.3125 -1.421875 
Q 15.921875 -1.421875 10.953125 3.296875 
Q 6 8.015625 6 15.921875 
Q 6 25.140625 12.171875 29.828125 
Q 18.359375 34.515625 30.609375 34.515625 
L 43.21875 34.515625 
L 43.21875 35.40625 
Q 43.21875 41.609375 39.140625 45 
Q 35.0625 48.390625 27.6875 48.390625 
Q 23 48.390625 18.546875 47.265625 
Q 14.109375 46.140625 10.015625 43.890625 
L 10.015625 52.203125 
Q 14.9375 54.109375 19.578125 55.046875 
Q 24.21875 56 28.609375 56 
Q 40.484375 56 46.34375 49.84375 
Q 52.203125 43.703125 52.203125 31.203125 
z
" id="DejaVuSans-97"/>
      <path d="M 52 44.1875 
Q 55.375 50.25 60.0625 53.125 
Q 64.75 56 71.09375 56 
Q 79.640625 56 84.28125 50.015625 
Q 88.921875 44.046875 88.921875 33.015625 
L 88.921875 0 
L 79.890625 0 
L 79.890625 32.71875 
Q 79.890625 40.578125 77.09375 44.375 
Q 74.3125 48.1875 68.609375 48.1875 
Q 61.625 48.1875 57.5625 43.546875 
Q 53.515625 38.921875 53.515625 30.90625 
L 53.515625 0 
L 44.484375 0 
L 44.484375 32.71875 
Q 44.484375 40.625 41.703125 44.40625 
Q 38.921875 48.1875 33.109375 48.1875 
Q 26.21875 48.1875 22.15625 43.53125 
Q 18.109375 38.875 18.109375 30.90625 
L 18.109375 0 
L 9.078125 0 
L 9.078125 54.6875 
L 18.109375 54.6875 
L 18.109375 46.1875 
Q 21.1875 51.21875 25.484375 53.609375 
Q 29.78125 56 35.6875 56 
Q 41.65625 56 45.828125 52.96875 
Q 50 49.953125 52 44.1875 
z
" id="DejaVuSans-109"/>
      <path d="M 56.203125 29.59375 
L 56.203125 25.203125 
L 14.890625 25.203125 
Q 15.484375 15.921875 20.484375 11.0625 
Q 25.484375 6.203125 34.421875 6.203125 
Q 39.59375 6.203125 44.453125 7.46875 
Q 49.3125 8.734375 54.109375 11.28125 
L 54.109375 2.78125 
Q 49.265625 0.734375 44.1875 -0.34375 
Q 39.109375 -1.421875 33.890625 -1.421875 
Q 20.796875 -1.421875 13.15625 6.1875 
Q 5.515625 13.8125 5.515625 26.8125 
Q 5.515625 40.234375 12.765625 48.109375 
Q 20.015625 56 32.328125 56 
Q 43.359375 56 49.78125 48.890625 
Q 56.203125 41.796875 56.203125 29.59375 
z
M 47.21875 32.234375 
Q 47.125 39.59375 43.09375 43.984375 
Q 39.0625 48.390625 32.421875 48.390625 
Q 24.90625 48.390625 20.390625 44.140625 
Q 15.875 39.890625 15.1875 32.171875 
z
" id="DejaVuSans-101"/>
      <path d="M 11.71875 12.40625 
L 22.015625 12.40625 
L 22.015625 0 
L 11.71875 0 
z
M 11.71875 51.703125 
L 22.015625 51.703125 
L 22.015625 39.3125 
L 11.71875 39.3125 
z
" id="DejaVuSans-58"/>
      <path id="DejaVuSans-32"/>
     </defs>
     <use xlink:href="#DejaVuSans-70"/>
     <use x="50.269531" xlink:href="#DejaVuSans-114"/>
     <use x="91.382812" xlink:href="#DejaVuSans-97"/>
     <use x="152.662109" xlink:href="#DejaVuSans-109"/>
     <use x="250.074219" xlink:href="#DejaVuSans-101"/>
     <use x="311.597656" xlink:href="#DejaVuSans-58"/>
     <use x="345.289062" xlink:href="#DejaVuSans-32"/>
     <use x="377.076172" xlink:href="#DejaVuSans-49"/>
     <use x="440.699219" xlink:href="#DejaVuSans-49"/>
    </g>
   </g>
   <g id="text_43">
    <!-- Network: hsa05210 -->
    <g transform="translate(384.1275 63.12)scale(0.12 -0.12)">
     <defs>
      <path d="M 18.3125 70.21875 
L 18.3125 54.6875 
L 36.8125 54.6875 
L 36.8125 47.703125 
L 18.3125 47.703125 
L 18.3125 18.015625 
Q 18.3125 11.328125 20.140625 9.421875 
Q 21.96875 7.515625 27.59375 7.515625 
L 36.8125 7.515625 
L 36.8125 0 
L 27.59375 0 
Q 17.1875 0 13.234375 3.875 
Q 9.28125 7.765625 9.28125 18.015625 
L 9.28125 47.703125 
L 2.6875 47.703125 
L 2.6875 54.6875 
L 9.28125 54.6875 
L 9.28125 70.21875 
z
" id="DejaVuSans-116"/>
      <path d="M 4.203125 54.6875 
L 13.1875 54.6875 
L 24.421875 12.015625 
L 35.59375 54.6875 
L 46.1875 54.6875 
L 57.421875 12.015625 
L 68.609375 54.6875 
L 77.59375 54.6875 
L 63.28125 0 
L 52.6875 0 
L 40.921875 44.828125 
L 29.109375 0 
L 18.5 0 
z
" id="DejaVuSans-119"/>
      <path d="M 30.609375 48.390625 
Q 23.390625 48.390625 19.1875 42.75 
Q 14.984375 37.109375 14.984375 27.296875 
Q 14.984375 17.484375 19.15625 11.84375 
Q 23.34375 6.203125 30.609375 6.203125 
Q 37.796875 6.203125 41.984375 11.859375 
Q 46.1875 17.53125 46.1875 27.296875 
Q 46.1875 37.015625 41.984375 42.703125 
Q 37.796875 48.390625 30.609375 48.390625 
z
M 30.609375 56 
Q 42.328125 56 49.015625 48.375 
Q 55.71875 40.765625 55.71875 27.296875 
Q 55.71875 13.875 49.015625 6.21875 
Q 42.328125 -1.421875 30.609375 -1.421875 
Q 18.84375 -1.421875 12.171875 6.21875 
Q 5.515625 13.875 5.515625 27.296875 
Q 5.515625 40.765625 12.171875 48.375 
Q 18.84375 56 30.609375 56 
z
" id="DejaVuSans-111"/>
      <path d="M 9.078125 75.984375 
L 18.109375 75.984375 
L 18.109375 31.109375 
L 44.921875 54.6875 
L 56.390625 54.6875 
L 27.390625 29.109375 
L 57.625 0 
L 45.90625 0 
L 18.109375 26.703125 
L 18.109375 0 
L 9.078125 0 
z
" id="DejaVuSans-107"/>
      <path d="M 54.890625 33.015625 
L 54.890625 0 
L 45.90625 0 
L 45.90625 32.71875 
Q 45.90625 40.484375 42.875 44.328125 
Q 39.84375 48.1875 33.796875 48.1875 
Q 26.515625 48.1875 22.3125 43.546875 
Q 18.109375 38.921875 18.109375 30.90625 
L 18.109375 0 
L 9.078125 0 
L 9.078125 75.984375 
L 18.109375 75.984375 
L 18.109375 46.1875 
Q 21.34375 51.125 25.703125 53.5625 
Q 30.078125 56 35.796875 56 
Q 45.21875 56 50.046875 50.171875 
Q 54.890625 44.34375 54.890625 33.015625 
z
" id="DejaVuSans-104"/>
      <path d="M 44.28125 53.078125 
L 44.28125 44.578125 
Q 40.484375 46.53125 36.375 47.5 
Q 32.28125 48.484375 27.875 48.484375 
Q 21.1875 48.484375 17.84375 46.4375 
Q 14.5 44.390625 14.5 40.28125 
Q 14.5 37.15625 16.890625 35.375 
Q 19.28125 33.59375 26.515625 31.984375 
L 29.59375 31.296875 
Q 39.15625 29.25 43.1875 25.515625 
Q 47.21875 21.78125 47.21875 15.09375 
Q 47.21875 7.46875 41.1875 3.015625 
Q 35.15625 -1.421875 24.609375 -1.421875 
Q 20.21875 -1.421875 15.453125 -0.5625 
Q 10.6875 0.296875 5.421875 2 
L 5.421875 11.28125 
Q 10.40625 8.6875 15.234375 7.390625 
Q 20.0625 6.109375 24.8125 6.109375 
Q 31.15625 6.109375 34.5625 8.28125 
Q 37.984375 10.453125 37.984375 14.40625 
Q 37.984375 18.0625 35.515625 20.015625 
Q 33.0625 21.96875 24.703125 23.78125 
L 21.578125 24.515625 
Q 13.234375 26.265625 9.515625 29.90625 
Q 5.8125 33.546875 5.8125 39.890625 
Q 5.8125 47.609375 11.28125 51.796875 
Q 16.75 56 26.8125 56 
Q 31.78125 56 36.171875 55.265625 
Q 40.578125 54.546875 44.28125 53.078125 
z
" id="DejaVuSans-115"/>
      <path d="M 31.78125 66.40625 
Q 24.171875 66.40625 20.328125 58.90625 
Q 16.5 51.421875 16.5 36.375 
Q 16.5 21.390625 20.328125 13.890625 
Q 24.171875 6.390625 31.78125 6.390625 
Q 39.453125 6.390625 43.28125 13.890625 
Q 47.125 21.390625 47.125 36.375 
Q 47.125 51.421875 43.28125 58.90625 
Q 39.453125 66.40625 31.78125 66.40625 
z
M 31.78125 74.21875 
Q 44.046875 74.21875 50.515625 64.515625 
Q 56.984375 54.828125 56.984375 36.375 
Q 56.984375 17.96875 50.515625 8.265625 
Q 44.046875 -1.421875 31.78125 -1.421875 
Q 19.53125 -1.421875 13.0625 8.265625 
Q 6.59375 17.96875 6.59375 36.375 
Q 6.59375 54.828125 13.0625 64.515625 
Q 19.53125 74.21875 31.78125 74.21875 
z
" id="DejaVuSans-48"/>
     </defs>
     <use xlink:href="#DejaVuSans-78"/>
     <use x="74.804688" xlink:href="#DejaVuSans-101"/>
     <use x="136.328125" xlink:href="#DejaVuSans-116"/>
     <use x="175.537109" xlink:href="#DejaVuSans-119"/>
     <use x="257.324219" xlink:href="#DejaVuSans-111"/>
     <use x="318.505859" xlink:href="#DejaVuSans-114"/>
     <use x="359.619141" xlink:href="#DejaVuSans-107"/>
     <use x="417.529297" xlink:href="#DejaVuSans-58"/>
     <use x="451.220703" xlink:href="#DejaVuSans-32"/>
     <use x="483.007812" xlink:href="#DejaVuSans-104"/>
     <use x="546.386719" xlink:href="#DejaVuSans-115"/>
     <use x="598.486328" xlink:href="#DejaVuSans-97"/>
     <use x="659.765625" xlink:href="#DejaVuSans-48"/>
     <use x="723.388672" xlink:href="#DejaVuSans-53"/>
     <use x="787.011719" xlink:href="#DejaVuSans-50"/>
     <use x="850.634766" xlink:href="#DejaVuSans-49"/>
     <use x="914.257812" xlink:href="#DejaVuSans-48"/>
    </g>
   </g>
  </g>
 </g>
 <defs>
  <clipPath id="p2cb2a7b1e7">
   <rect height="443.52" width="669.6" x="108" y="69.12"/>
  </clipPath>
 </defs>
</svg>
