<?xml version="1.0" encoding="utf-8" standalone="no"?>
<!DOCTYPE svg PUBLIC "-//W3C//DTD SVG 1.1//EN"
  "http://www.w3.org/Graphics/SVG/1.1/DTD/svg11.dtd">
<!-- Created with matplotlib (https://matplotlib.org/) -->
<svg height="576pt" version="1.1" viewBox="0 0 864 576" width="864pt" xmlns="http://www.w3.org/2000/svg" xmlns:xlink="http://www.w3.org/1999/xlink">
 <metadata>
  <rdf:RDF xmlns:cc="http://creativecommons.org/ns#" xmlns:dc="http://purl.org/dc/elements/1.1/" xmlns:rdf="http://www.w3.org/1999/02/22-rdf-syntax-ns#">
   <cc:Work>
    <dc:type rdf:resource="http://purl.org/dc/dcmitype/StillImage"/>
    <dc:date>2024-04-26T13:37:46.813071</dc:date>
    <dc:format>image/svg+xml</dc:format>
    <dc:creator>
     <cc:Agent>
      <dc:title>Matplotlib v3.3.1, https://matplotlib.org/</dc:title>
     </cc:Agent>
    </dc:creator>
   </cc:Work>
  </rdf:RDF>
 </metadata>
 <defs>
  <style type="text/css">*{stroke-linecap:butt;stroke-linejoin:round;}</style>
 </defs>
 <g id="figure_1">
  <g id="patch_1">
   <path d="M 0 576 
L 864 576 
L 864 0 
L 0 0 
z
" style="fill:#ffffff;"/>
  </g>
  <g id="axes_1">
   <g id="patch_2">
    <path clip-path="url(#pfa5cfa26b5)" d="M 636.671374 292.493579 
Q 621.180519 356.110659 605.954177 418.641445 
" style="fill:none;stroke:#000000;stroke-linecap:round;"/>
    <path clip-path="url(#pfa5cfa26b5)" d="M 608.843751 415.228182 
L 605.954177 418.641445 
L 604.957312 414.281828 
L 608.843751 415.228182 
z
" style="stroke:#000000;stroke-linecap:round;"/>
   </g>
   <g id="patch_3">
    <path clip-path="url(#pfa5cfa26b5)" d="M 637.042334 275.588476 
Q 624.43166 211.707376 612.037517 148.923142 
" style="fill:none;stroke:#000000;stroke-linecap:round;"/>
    <path clip-path="url(#pfa5cfa26b5)" d="M 610.850068 153.23475 
L 612.037517 148.923142 
L 614.774334 152.460066 
L 610.850068 153.23475 
z
" style="stroke:#000000;stroke-linecap:round;"/>
   </g>
   <g id="patch_4">
    <path clip-path="url(#pfa5cfa26b5)" d="M 548.886114 337.184047 
Q 508.548022 401.992119 468.800729 465.851003 
" style="fill:none;stroke:#000000;stroke-linecap:round;"/>
    <path clip-path="url(#pfa5cfa26b5)" d="M 472.61239 463.511934 
L 468.800729 465.851003 
L 469.21647 461.398233 
L 472.61239 463.511934 
z
" style="stroke:#000000;stroke-linecap:round;"/>
   </g>
   <g id="patch_5">
    <path clip-path="url(#pfa5cfa26b5)" d="M 559.860038 323.993709 
Q 619.946056 269.166835 679.206187 215.093561 
" style="fill:none;stroke:#000000;stroke-linecap:round;"/>
    <path clip-path="url(#pfa5cfa26b5)" d="M 674.903327 216.312328 
L 679.206187 215.093561 
L 677.599485 219.26711 
L 674.903327 216.312328 
z
" style="stroke:#000000;stroke-linecap:round;"/>
   </g>
   <g id="patch_6">
    <path clip-path="url(#pfa5cfa26b5)" d="M 329.13616 111.453797 
Q 372.081228 109.706556 413.909187 108.004765 
" style="fill:none;stroke:#000000;stroke-linecap:round;"/>
    <path clip-path="url(#pfa5cfa26b5)" d="M 409.831189 106.169026 
L 413.909187 108.004765 
L 409.993797 110.165719 
L 409.831189 106.169026 
z
" style="stroke:#000000;stroke-linecap:round;"/>
   </g>
   <g id="patch_7">
    <path clip-path="url(#pfa5cfa26b5)" d="M 703.12672 337.122546 
Q 694.350233 349.340854 686.226005 360.651111 
" style="fill:none;stroke:#000000;stroke-linecap:round;"/>
    <path clip-path="url(#pfa5cfa26b5)" d="M 690.183971 358.569163 
L 686.226005 360.651111 
L 686.935227 356.23557 
L 690.183971 358.569163 
z
" style="stroke:#000000;stroke-linecap:round;"/>
   </g>
   <g id="patch_8">
    <path clip-path="url(#pfa5cfa26b5)" d="M 482.363216 297.000177 
Q 497.832087 211.48345 513.101949 127.066903 
" style="fill:none;stroke:#000000;stroke-linecap:round;"/>
    <path clip-path="url(#pfa5cfa26b5)" d="M 510.421894 130.647029 
L 513.101949 127.066903 
L 514.358017 131.359023 
L 510.421894 130.647029 
z
" style="stroke:#000000;stroke-linecap:round;"/>
   </g>
   <g id="patch_9">
    <path clip-path="url(#pfa5cfa26b5)" d="M 472.807658 308.798907 
Q 340.314608 362.99413 208.856369 416.766071 
" style="fill:none;stroke:#000000;stroke-linecap:round;"/>
    <path clip-path="url(#pfa5cfa26b5)" d="M 213.315808 417.10282 
L 208.856369 416.766071 
L 211.801432 413.400569 
L 213.315808 417.10282 
z
" style="stroke:#000000;stroke-linecap:round;"/>
   </g>
   <g id="patch_10">
    <path clip-path="url(#pfa5cfa26b5)" d="M 489.332963 303.919315 
Q 600.158823 283.066635 709.885929 262.420693 
" style="fill:none;stroke:#000000;stroke-linecap:round;"/>
    <path clip-path="url(#pfa5cfa26b5)" d="M 705.585084 261.194833 
L 709.885929 262.420693 
L 706.324734 265.125853 
L 705.585084 261.194833 
z
" style="stroke:#000000;stroke-linecap:round;"/>
   </g>
   <g id="patch_11">
    <path clip-path="url(#pfa5cfa26b5)" d="M 483.019638 313.89508 
Q 500.045817 378.774173 516.7882 442.57185 
" style="fill:none;stroke:#000000;stroke-linecap:round;"/>
    <path clip-path="url(#pfa5cfa26b5)" d="M 517.707359 438.195191 
L 516.7882 442.57185 
L 513.838368 439.210528 
L 517.707359 438.195191 
z
" style="stroke:#000000;stroke-linecap:round;"/>
   </g>
   <g id="patch_12">
    <path clip-path="url(#pfa5cfa26b5)" d="M 183.912608 409.512148 
Q 220.007183 431.865569 255.15124 453.630333 
" style="fill:none;stroke:#000000;stroke-linecap:round;"/>
    <path clip-path="url(#pfa5cfa26b5)" d="M 252.803587 449.823953 
L 255.15124 453.630333 
L 250.697545 453.224628 
L 252.803587 449.823953 
z
" style="stroke:#000000;stroke-linecap:round;"/>
   </g>
   <g id="patch_13">
    <path clip-path="url(#pfa5cfa26b5)" d="M 202.013499 317.895136 
Q 190.49853 357.267913 179.297396 395.567608 
" style="fill:none;stroke:#000000;stroke-linecap:round;"/>
    <path clip-path="url(#pfa5cfa26b5)" d="M 182.339793 392.289831 
L 179.297396 395.567608 
L 178.500613 391.167024 
L 182.339793 392.289831 
z
" style="stroke:#000000;stroke-linecap:round;"/>
   </g>
   <g id="patch_14">
    <path clip-path="url(#pfa5cfa26b5)" d="M 436.17607 273.449209 
Q 490.916217 299.763744 544.648713 325.593883 
" style="fill:none;stroke:#000000;stroke-linecap:round;"/>
    <path clip-path="url(#pfa5cfa26b5)" d="M 541.910143 322.058316 
L 544.648713 325.593883 
L 540.177117 325.663399 
L 541.910143 322.058316 
z
" style="stroke:#000000;stroke-linecap:round;"/>
   </g>
   <g id="patch_15">
    <path clip-path="url(#pfa5cfa26b5)" d="M 601.723933 275.304527 
Q 580.463894 299.32459 559.944861 322.507448 
" style="fill:none;stroke:#000000;stroke-linecap:round;"/>
    <path clip-path="url(#pfa5cfa26b5)" d="M 564.093599 320.837725 
L 559.944861 322.507448 
L 561.098326 318.186624 
L 564.093599 320.837725 
z
" style="stroke:#000000;stroke-linecap:round;"/>
   </g>
   <g id="patch_16">
    <path clip-path="url(#pfa5cfa26b5)" d="M 410.660675 331.159634 
Q 477.732106 330.535593 543.685551 329.921953 
" style="fill:none;stroke:#000000;stroke-linecap:round;"/>
    <path clip-path="url(#pfa5cfa26b5)" d="M 539.667117 327.959255 
L 543.685551 329.921953 
L 539.704332 331.959082 
L 539.667117 327.959255 
z
" style="stroke:#000000;stroke-linecap:round;"/>
   </g>
   <g id="patch_17">
    <path clip-path="url(#pfa5cfa26b5)" d="M 416.464671 249.510694 
Q 481.228162 287.480709 545.027161 324.885255 
" style="fill:none;stroke:#000000;stroke-linecap:round;"/>
    <path clip-path="url(#pfa5cfa26b5)" d="M 542.588032 321.136835 
L 545.027161 324.885255 
L 540.564947 324.587506 
L 542.588032 321.136835 
z
" style="stroke:#000000;stroke-linecap:round;"/>
   </g>
   <g id="patch_18">
    <path clip-path="url(#pfa5cfa26b5)" d="M 472.646431 222.438991 
Q 510.451431 272.675751 547.584162 322.019174 
" style="fill:none;stroke:#000000;stroke-linecap:round;"/>
    <path clip-path="url(#pfa5cfa26b5)" d="M 546.777029 317.620477 
L 547.584162 322.019174 
L 543.580924 320.025662 
L 546.777029 317.620477 
z
" style="stroke:#000000;stroke-linecap:round;"/>
   </g>
   <g id="patch_19">
    <path clip-path="url(#pfa5cfa26b5)" d="M 456.460463 330.022775 
Q 334.768576 320.154403 214.191066 310.376399 
" style="fill:none;stroke:#000000;stroke-linecap:round;"/>
    <path clip-path="url(#pfa5cfa26b5)" d="M 218.016323 312.693167 
L 214.191066 310.376399 
L 218.339634 308.706254 
L 218.016323 312.693167 
z
" style="stroke:#000000;stroke-linecap:round;"/>
   </g>
   <g id="patch_20">
    <path clip-path="url(#pfa5cfa26b5)" d="M 473.755932 330.700375 
Q 586.637614 330.405785 698.401265 330.114113 
" style="fill:none;stroke:#000000;stroke-linecap:round;"/>
    <path clip-path="url(#pfa5cfa26b5)" d="M 694.396059 328.124559 
L 698.401265 330.114113 
L 694.406498 332.124545 
L 694.396059 328.124559 
z
" style="stroke:#000000;stroke-linecap:round;"/>
   </g>
   <g id="patch_21">
    <path clip-path="url(#pfa5cfa26b5)" d="M 469.681403 323.373345 
Q 472.959517 318.120202 475.645737 313.815563 
" style="fill:none;stroke:#000000;stroke-linecap:round;"/>
    <path clip-path="url(#pfa5cfa26b5)" d="M 471.831375 316.150223 
L 475.645737 313.815563 
L 475.224848 318.267849 
L 471.831375 316.150223 
z
" style="stroke:#000000;stroke-linecap:round;"/>
   </g>
   <g id="patch_22">
    <path clip-path="url(#pfa5cfa26b5)" d="M 442.952107 304.607587 
Q 328.026864 307.006408 214.219412 309.381898 
" style="fill:none;stroke:#000000;stroke-linecap:round;"/>
    <path clip-path="url(#pfa5cfa26b5)" d="M 218.260277 311.297989 
L 214.219412 309.381898 
L 218.176804 307.29886 
L 218.260277 311.297989 
z
" style="stroke:#000000;stroke-linecap:round;"/>
   </g>
   <g id="patch_23">
    <path clip-path="url(#pfa5cfa26b5)" d="M 460.224379 305.28876 
Q 579.89431 317.257852 698.451758 329.115675 
" style="fill:none;stroke:#000000;stroke-linecap:round;"/>
    <path clip-path="url(#pfa5cfa26b5)" d="M 694.670658 326.72752 
L 698.451758 329.115675 
L 694.272574 330.707662 
L 694.670658 326.72752 
z
" style="stroke:#000000;stroke-linecap:round;"/>
   </g>
   <g id="patch_24">
    <path clip-path="url(#pfa5cfa26b5)" d="M 460.262727 304.750977 
Q 466.214414 304.97381 471.04885 305.154813 
" style="fill:none;stroke:#000000;stroke-linecap:round;"/>
    <path clip-path="url(#pfa5cfa26b5)" d="M 467.126479 303.006557 
L 471.04885 305.154813 
L 466.976822 307.003756 
L 467.126479 303.006557 
z
" style="stroke:#000000;stroke-linecap:round;"/>
   </g>
   <g id="patch_25">
    <path clip-path="url(#pfa5cfa26b5)" d="M 438.087838 321.058671 
Q 325.592005 315.534745 214.21286 310.065651 
" style="fill:none;stroke:#000000;stroke-linecap:round;"/>
    <path clip-path="url(#pfa5cfa26b5)" d="M 218.109957 312.259422 
L 214.21286 310.065651 
L 218.306135 308.264235 
L 218.109957 312.259422 
z
" style="stroke:#000000;stroke-linecap:round;"/>
   </g>
   <g id="patch_26">
    <path clip-path="url(#pfa5cfa26b5)" d="M 455.388134 321.768095 
Q 577.457746 325.785959 698.409929 329.767042 
" style="fill:none;stroke:#000000;stroke-linecap:round;"/>
    <path clip-path="url(#pfa5cfa26b5)" d="M 694.477887 327.636538 
L 698.409929 329.767042 
L 694.3463 331.634373 
L 694.477887 327.636538 
z
" style="stroke:#000000;stroke-linecap:round;"/>
   </g>
   <g id="patch_27">
    <path clip-path="url(#pfa5cfa26b5)" d="M 454.57873 317.810263 
Q 463.777636 313.502473 471.96403 309.668835 
" style="fill:none;stroke:#000000;stroke-linecap:round;"/>
    <path clip-path="url(#pfa5cfa26b5)" d="M 467.493369 309.55398 
L 471.96403 309.668835 
L 469.18975 313.176451 
L 467.493369 309.55398 
z
" style="stroke:#000000;stroke-linecap:round;"/>
   </g>
   <g id="patch_28">
    <path clip-path="url(#pfa5cfa26b5)" d="M 446.176995 343.127983 
Q 329.59825 326.951945 214.126929 310.92957 
" style="fill:none;stroke:#000000;stroke-linecap:round;"/>
    <path clip-path="url(#pfa5cfa26b5)" d="M 217.81409 313.460348 
L 214.126929 310.92957 
L 218.363848 309.498308 
L 217.81409 313.460348 
z
" style="stroke:#000000;stroke-linecap:round;"/>
   </g>
   <g id="patch_29">
    <path clip-path="url(#pfa5cfa26b5)" d="M 463.402018 343.832058 
Q 581.467367 337.203064 698.41644 330.636746 
" style="fill:none;stroke:#000000;stroke-linecap:round;"/>
    <path clip-path="url(#pfa5cfa26b5)" d="M 694.310613 328.864125 
L 698.41644 330.636746 
L 694.534847 332.857835 
L 694.310613 328.864125 
z
" style="stroke:#000000;stroke-linecap:round;"/>
   </g>
   <g id="patch_30">
    <path clip-path="url(#pfa5cfa26b5)" d="M 459.580868 337.130927 
Q 467.786122 324.920173 475.367799 313.637402 
" style="fill:none;stroke:#000000;stroke-linecap:round;"/>
    <path clip-path="url(#pfa5cfa26b5)" d="M 471.476798 315.841968 
L 475.367799 313.637402 
L 474.796851 318.072942 
L 471.476798 315.841968 
z
" style="stroke:#000000;stroke-linecap:round;"/>
   </g>
   <g id="patch_31">
    <path clip-path="url(#pfa5cfa26b5)" d="M 243.959875 229.741121 
Q 279.865001 174.406735 315.161553 120.01024 
" style="fill:none;stroke:#000000;stroke-linecap:round;"/>
    <path clip-path="url(#pfa5cfa26b5)" d="M 311.306504 122.277087 
L 315.161553 120.01024 
L 314.662002 124.454387 
L 311.306504 122.277087 
z
" style="stroke:#000000;stroke-linecap:round;"/>
   </g>
   <g id="patch_32">
    <path clip-path="url(#pfa5cfa26b5)" d="M 362.525727 169.633194 
Q 344.052185 144.222514 326.236077 119.716146 
" style="fill:none;stroke:#000000;stroke-linecap:round;"/>
    <path clip-path="url(#pfa5cfa26b5)" d="M 326.970502 124.127565 
L 326.236077 119.716146 
L 330.205867 121.775457 
L 326.970502 124.127565 
z
" style="stroke:#000000;stroke-linecap:round;"/>
   </g>
   <g id="patch_33">
    <path clip-path="url(#pfa5cfa26b5)" d="M 249.69937 332.509512 
Q 302.755228 399.2876 355.115589 465.190311 
" style="fill:none;stroke:#000000;stroke-linecap:round;"/>
    <path clip-path="url(#pfa5cfa26b5)" d="M 354.19323 460.814326 
L 355.115589 465.190311 
L 351.061385 463.302608 
L 354.19323 460.814326 
z
" style="stroke:#000000;stroke-linecap:round;"/>
   </g>
   <g id="patch_34">
    <path clip-path="url(#pfa5cfa26b5)" d="M 240.417401 317.992845 
Q 205.209075 248.05259 170.503469 179.110971 
" style="fill:none;stroke:#000000;stroke-linecap:round;"/>
    <path clip-path="url(#pfa5cfa26b5)" d="M 170.515637 183.583091 
L 170.503469 179.110971 
L 174.088465 181.784508 
L 170.515637 183.583091 
z
" style="stroke:#000000;stroke-linecap:round;"/>
   </g>
   <g id="PathCollection_1">
    <defs>
     <path d="M 0 8.660254 
C 2.296726 8.660254 4.499694 7.747755 6.123724 6.123724 
C 7.747755 4.499694 8.660254 2.296726 8.660254 -0 
C 8.660254 -2.296726 7.747755 -4.499694 6.123724 -6.123724 
C 4.499694 -7.747755 2.296726 -8.660254 0 -8.660254 
C -2.296726 -8.660254 -4.499694 -7.747755 -6.123724 -6.123724 
C -7.747755 -4.499694 -8.660254 -2.296726 -8.660254 0 
C -8.660254 2.296726 -7.747755 4.499694 -6.123724 6.123724 
C -4.499694 7.747755 -2.296726 8.660254 0 8.660254 
z
" id="C0_0_23af909fbd"/>
    </defs>
    <g clip-path="url(#pfa5cfa26b5)">
     <use style="fill:#ff0000;stroke:#ff0000;" x="638.719287" xlink:href="#C0_0_23af909fbd" y="284.08331"/>
    </g>
    <g clip-path="url(#pfa5cfa26b5)">
     <use style="fill:#ff0000;stroke:#ff0000;" x="553.462835" xlink:href="#C0_0_23af909fbd" y="329.830984"/>
    </g>
    <g clip-path="url(#pfa5cfa26b5)">
     <use style="fill:#ff0000;stroke:#ff0000;" x="263.465124" xlink:href="#C0_0_23af909fbd" y="458.779132"/>
    </g>
    <g clip-path="url(#pfa5cfa26b5)">
     <use style="fill:#ff0000;stroke:#ff0000;" x="320.485236" xlink:href="#C0_0_23af909fbd" y="111.805764"/>
    </g>
    <g clip-path="url(#pfa5cfa26b5)">
     <use style="fill:#ff0000;stroke:#ff0000;" x="423.679073" xlink:href="#C0_0_23af909fbd" y="107.607273"/>
    </g>
    <g clip-path="url(#pfa5cfa26b5)">
     <use style="fill:#ff0000;stroke:#ff0000;" x="708.179251" xlink:href="#C0_0_23af909fbd" y="330.088595"/>
    </g>
    <g clip-path="url(#pfa5cfa26b5)">
     <use style="fill:#ff0000;stroke:#ff0000;" x="480.82196" xlink:href="#C0_0_23af909fbd" y="305.520721"/>
    </g>
    <g clip-path="url(#pfa5cfa26b5)">
     <use style="fill:#ff0000;stroke:#ff0000;" x="176.552283" xlink:href="#C0_0_23af909fbd" y="404.953888"/>
    </g>
    <g clip-path="url(#pfa5cfa26b5)">
     <use style="fill:#ff0000;stroke:#ff0000;" x="204.443605" xlink:href="#C0_0_23af909fbd" y="309.585948"/>
    </g>
    <g clip-path="url(#pfa5cfa26b5)">
     <use style="fill:#ff0000;stroke:#ff0000;" x="361.199272" xlink:href="#C0_0_23af909fbd" y="472.847462"/>
    </g>
    <g clip-path="url(#pfa5cfa26b5)">
     <use style="fill:#ff0000;stroke:#ff0000;" x="166.105785" xlink:href="#C0_0_23af909fbd" y="170.375108"/>
    </g>
    <g clip-path="url(#pfa5cfa26b5)">
     <use style="fill:#ff0000;stroke:#ff0000;" x="603.640345" xlink:href="#C0_0_23af909fbd" y="428.14378"/>
    </g>
    <g clip-path="url(#pfa5cfa26b5)">
     <use style="fill:#ff0000;stroke:#ff0000;" x="610.143941" xlink:href="#C0_0_23af909fbd" y="139.330973"/>
    </g>
    <g clip-path="url(#pfa5cfa26b5)">
     <use style="fill:#ff0000;stroke:#ff0000;" x="428.369168" xlink:href="#C0_0_23af909fbd" y="269.696296"/>
    </g>
    <g clip-path="url(#pfa5cfa26b5)">
     <use style="fill:#ff0000;stroke:#ff0000;" x="607.462004" xlink:href="#C0_0_23af909fbd" y="268.821528"/>
    </g>
    <g clip-path="url(#pfa5cfa26b5)">
     <use style="fill:#ff0000;stroke:#ff0000;" x="402.003338" xlink:href="#C0_0_23af909fbd" y="331.240183"/>
    </g>
    <g clip-path="url(#pfa5cfa26b5)">
     <use style="fill:#ff0000;stroke:#ff0000;" x="408.993887" xlink:href="#C0_0_23af909fbd" y="245.130668"/>
    </g>
    <g clip-path="url(#pfa5cfa26b5)">
     <use style="fill:#ff0000;stroke:#ff0000;" x="467.440684" xlink:href="#C0_0_23af909fbd" y="215.52139"/>
    </g>
    <g clip-path="url(#pfa5cfa26b5)">
     <use style="fill:#ff0000;stroke:#ff0000;" x="463.633537" xlink:href="#C0_0_23af909fbd" y="474.152727"/>
    </g>
    <g clip-path="url(#pfa5cfa26b5)">
     <use style="fill:#ff0000;stroke:#ff0000;" x="686.430511" xlink:href="#C0_0_23af909fbd" y="208.50156"/>
    </g>
    <g clip-path="url(#pfa5cfa26b5)">
     <use style="fill:#ff0000;stroke:#ff0000;" x="465.095018" xlink:href="#C0_0_23af909fbd" y="330.722978"/>
    </g>
    <g clip-path="url(#pfa5cfa26b5)">
     <use style="fill:#ff0000;stroke:#ff0000;" x="451.607521" xlink:href="#C0_0_23af909fbd" y="304.426923"/>
    </g>
    <g clip-path="url(#pfa5cfa26b5)">
     <use style="fill:#ff0000;stroke:#ff0000;" x="446.735303" xlink:href="#C0_0_23af909fbd" y="321.483291"/>
    </g>
    <g clip-path="url(#pfa5cfa26b5)">
     <use style="fill:#ff0000;stroke:#ff0000;" x="454.751539" xlink:href="#C0_0_23af909fbd" y="344.317755"/>
    </g>
    <g clip-path="url(#pfa5cfa26b5)">
     <use style="fill:#ff0000;stroke:#ff0000;" x="239.246922" xlink:href="#C0_0_23af909fbd" y="237.004383"/>
    </g>
    <g clip-path="url(#pfa5cfa26b5)">
     <use style="fill:#ff0000;stroke:#ff0000;" x="367.62076" xlink:href="#C0_0_23af909fbd" y="176.641501"/>
    </g>
    <g clip-path="url(#pfa5cfa26b5)">
     <use style="fill:#ff0000;stroke:#ff0000;" x="680.521161" xlink:href="#C0_0_23af909fbd" y="368.59319"/>
    </g>
    <g clip-path="url(#pfa5cfa26b5)">
     <use style="fill:#ff0000;stroke:#ff0000;" x="514.842764" xlink:href="#C0_0_23af909fbd" y="117.443134"/>
    </g>
    <g clip-path="url(#pfa5cfa26b5)">
     <use style="fill:#ff0000;stroke:#ff0000;" x="199.802532" xlink:href="#C0_0_23af909fbd" y="420.46947"/>
    </g>
    <g clip-path="url(#pfa5cfa26b5)">
     <use style="fill:#ff0000;stroke:#ff0000;" x="719.494215" xlink:href="#C0_0_23af909fbd" y="260.612825"/>
    </g>
    <g clip-path="url(#pfa5cfa26b5)">
     <use style="fill:#ff0000;stroke:#ff0000;" x="519.270171" xlink:href="#C0_0_23af909fbd" y="452.029522"/>
    </g>
    <g clip-path="url(#pfa5cfa26b5)">
     <use style="fill:#ff0000;stroke:#ff0000;" x="244.311204" xlink:href="#C0_0_23af909fbd" y="325.727765"/>
    </g>
   </g>
   <g id="text_1">
    <g clip-path="url(#pfa5cfa26b5)">
     <!-- RAF1 -->
     <g transform="translate(623.417412 287.39456)scale(0.12 -0.12)">
      <defs>
       <path d="M 44.390625 34.1875 
Q 47.5625 33.109375 50.5625 29.59375 
Q 53.5625 26.078125 56.59375 19.921875 
L 66.609375 0 
L 56 0 
L 46.6875 18.703125 
Q 43.0625 26.03125 39.671875 28.421875 
Q 36.28125 30.8125 30.421875 30.8125 
L 19.671875 30.8125 
L 19.671875 0 
L 9.8125 0 
L 9.8125 72.90625 
L 32.078125 72.90625 
Q 44.578125 72.90625 50.734375 67.671875 
Q 56.890625 62.453125 56.890625 51.90625 
Q 56.890625 45.015625 53.6875 40.46875 
Q 50.484375 35.9375 44.390625 34.1875 
z
M 19.671875 64.796875 
L 19.671875 38.921875 
L 32.078125 38.921875 
Q 39.203125 38.921875 42.84375 42.21875 
Q 46.484375 45.515625 46.484375 51.90625 
Q 46.484375 58.296875 42.84375 61.546875 
Q 39.203125 64.796875 32.078125 64.796875 
z
" id="DejaVuSans-82"/>
       <path d="M 34.1875 63.1875 
L 20.796875 26.90625 
L 47.609375 26.90625 
z
M 28.609375 72.90625 
L 39.796875 72.90625 
L 67.578125 0 
L 57.328125 0 
L 50.6875 18.703125 
L 17.828125 18.703125 
L 11.1875 0 
L 0.78125 0 
z
" id="DejaVuSans-65"/>
       <path d="M 9.8125 72.90625 
L 51.703125 72.90625 
L 51.703125 64.59375 
L 19.671875 64.59375 
L 19.671875 43.109375 
L 48.578125 43.109375 
L 48.578125 34.8125 
L 19.671875 34.8125 
L 19.671875 0 
L 9.8125 0 
z
" id="DejaVuSans-70"/>
       <path d="M 12.40625 8.296875 
L 28.515625 8.296875 
L 28.515625 63.921875 
L 10.984375 60.40625 
L 10.984375 69.390625 
L 28.421875 72.90625 
L 38.28125 72.90625 
L 38.28125 8.296875 
L 54.390625 8.296875 
L 54.390625 0 
L 12.40625 0 
z
" id="DejaVuSans-49"/>
      </defs>
      <use xlink:href="#DejaVuSans-82"/>
      <use x="65.482422" xlink:href="#DejaVuSans-65"/>
      <use x="133.890625" xlink:href="#DejaVuSans-70"/>
      <use x="191.410156" xlink:href="#DejaVuSans-49"/>
     </g>
    </g>
   </g>
   <g id="text_2">
    <g clip-path="url(#pfa5cfa26b5)">
     <!-- RALGDS -->
     <g transform="translate(529.008148 333.142234)scale(0.12 -0.12)">
      <defs>
       <path d="M 9.8125 72.90625 
L 19.671875 72.90625 
L 19.671875 8.296875 
L 55.171875 8.296875 
L 55.171875 0 
L 9.8125 0 
z
" id="DejaVuSans-76"/>
       <path d="M 59.515625 10.40625 
L 59.515625 29.984375 
L 43.40625 29.984375 
L 43.40625 38.09375 
L 69.28125 38.09375 
L 69.28125 6.78125 
Q 63.578125 2.734375 56.6875 0.65625 
Q 49.8125 -1.421875 42 -1.421875 
Q 24.90625 -1.421875 15.25 8.5625 
Q 5.609375 18.5625 5.609375 36.375 
Q 5.609375 54.25 15.25 64.234375 
Q 24.90625 74.21875 42 74.21875 
Q 49.125 74.21875 55.546875 72.453125 
Q 61.96875 70.703125 67.390625 67.28125 
L 67.390625 56.78125 
Q 61.921875 61.421875 55.765625 63.765625 
Q 49.609375 66.109375 42.828125 66.109375 
Q 29.4375 66.109375 22.71875 58.640625 
Q 16.015625 51.171875 16.015625 36.375 
Q 16.015625 21.625 22.71875 14.15625 
Q 29.4375 6.6875 42.828125 6.6875 
Q 48.046875 6.6875 52.140625 7.59375 
Q 56.25 8.5 59.515625 10.40625 
z
" id="DejaVuSans-71"/>
       <path d="M 19.671875 64.796875 
L 19.671875 8.109375 
L 31.59375 8.109375 
Q 46.6875 8.109375 53.6875 14.9375 
Q 60.6875 21.78125 60.6875 36.53125 
Q 60.6875 51.171875 53.6875 57.984375 
Q 46.6875 64.796875 31.59375 64.796875 
z
M 9.8125 72.90625 
L 30.078125 72.90625 
Q 51.265625 72.90625 61.171875 64.09375 
Q 71.09375 55.28125 71.09375 36.53125 
Q 71.09375 17.671875 61.125 8.828125 
Q 51.171875 0 30.078125 0 
L 9.8125 0 
z
" id="DejaVuSans-68"/>
       <path d="M 53.515625 70.515625 
L 53.515625 60.890625 
Q 47.90625 63.578125 42.921875 64.890625 
Q 37.9375 66.21875 33.296875 66.21875 
Q 25.25 66.21875 20.875 63.09375 
Q 16.5 59.96875 16.5 54.203125 
Q 16.5 49.359375 19.40625 46.890625 
Q 22.3125 44.4375 30.421875 42.921875 
L 36.375 41.703125 
Q 47.40625 39.59375 52.65625 34.296875 
Q 57.90625 29 57.90625 20.125 
Q 57.90625 9.515625 50.796875 4.046875 
Q 43.703125 -1.421875 29.984375 -1.421875 
Q 24.8125 -1.421875 18.96875 -0.25 
Q 13.140625 0.921875 6.890625 3.21875 
L 6.890625 13.375 
Q 12.890625 10.015625 18.65625 8.296875 
Q 24.421875 6.59375 29.984375 6.59375 
Q 38.421875 6.59375 43.015625 9.90625 
Q 47.609375 13.234375 47.609375 19.390625 
Q 47.609375 24.75 44.3125 27.78125 
Q 41.015625 30.8125 33.5 32.328125 
L 27.484375 33.5 
Q 16.453125 35.6875 11.515625 40.375 
Q 6.59375 45.0625 6.59375 53.421875 
Q 6.59375 63.09375 13.40625 68.65625 
Q 20.21875 74.21875 32.171875 74.21875 
Q 37.3125 74.21875 42.625 73.28125 
Q 47.953125 72.359375 53.515625 70.515625 
z
" id="DejaVuSans-83"/>
      </defs>
      <use xlink:href="#DejaVuSans-82"/>
      <use x="65.482422" xlink:href="#DejaVuSans-65"/>
      <use x="133.890625" xlink:href="#DejaVuSans-76"/>
      <use x="189.603516" xlink:href="#DejaVuSans-71"/>
      <use x="267.09375" xlink:href="#DejaVuSans-68"/>
      <use x="344.095703" xlink:href="#DejaVuSans-83"/>
     </g>
    </g>
   </g>
   <g id="text_3">
    <g clip-path="url(#pfa5cfa26b5)">
     <!-- RHOA -->
     <g transform="translate(246.061374 462.090382)scale(0.12 -0.12)">
      <defs>
       <path d="M 9.8125 72.90625 
L 19.671875 72.90625 
L 19.671875 43.015625 
L 55.515625 43.015625 
L 55.515625 72.90625 
L 65.375 72.90625 
L 65.375 0 
L 55.515625 0 
L 55.515625 34.71875 
L 19.671875 34.71875 
L 19.671875 0 
L 9.8125 0 
z
" id="DejaVuSans-72"/>
       <path d="M 39.40625 66.21875 
Q 28.65625 66.21875 22.328125 58.203125 
Q 16.015625 50.203125 16.015625 36.375 
Q 16.015625 22.609375 22.328125 14.59375 
Q 28.65625 6.59375 39.40625 6.59375 
Q 50.140625 6.59375 56.421875 14.59375 
Q 62.703125 22.609375 62.703125 36.375 
Q 62.703125 50.203125 56.421875 58.203125 
Q 50.140625 66.21875 39.40625 66.21875 
z
M 39.40625 74.21875 
Q 54.734375 74.21875 63.90625 63.9375 
Q 73.09375 53.65625 73.09375 36.375 
Q 73.09375 19.140625 63.90625 8.859375 
Q 54.734375 -1.421875 39.40625 -1.421875 
Q 24.03125 -1.421875 14.8125 8.828125 
Q 5.609375 19.09375 5.609375 36.375 
Q 5.609375 53.65625 14.8125 63.9375 
Q 24.03125 74.21875 39.40625 74.21875 
z
" id="DejaVuSans-79"/>
      </defs>
      <use xlink:href="#DejaVuSans-82"/>
      <use x="69.482422" xlink:href="#DejaVuSans-72"/>
      <use x="144.677734" xlink:href="#DejaVuSans-79"/>
      <use x="221.638672" xlink:href="#DejaVuSans-65"/>
     </g>
    </g>
   </g>
   <g id="text_4">
    <g clip-path="url(#pfa5cfa26b5)">
     <!-- RHEB -->
     <g transform="translate(303.896174 115.117014)scale(0.12 -0.12)">
      <defs>
       <path d="M 9.8125 72.90625 
L 55.90625 72.90625 
L 55.90625 64.59375 
L 19.671875 64.59375 
L 19.671875 43.015625 
L 54.390625 43.015625 
L 54.390625 34.71875 
L 19.671875 34.71875 
L 19.671875 8.296875 
L 56.78125 8.296875 
L 56.78125 0 
L 9.8125 0 
z
" id="DejaVuSans-69"/>
       <path d="M 19.671875 34.8125 
L 19.671875 8.109375 
L 35.5 8.109375 
Q 43.453125 8.109375 47.28125 11.40625 
Q 51.125 14.703125 51.125 21.484375 
Q 51.125 28.328125 47.28125 31.5625 
Q 43.453125 34.8125 35.5 34.8125 
z
M 19.671875 64.796875 
L 19.671875 42.828125 
L 34.28125 42.828125 
Q 41.5 42.828125 45.03125 45.53125 
Q 48.578125 48.25 48.578125 53.8125 
Q 48.578125 59.328125 45.03125 62.0625 
Q 41.5 64.796875 34.28125 64.796875 
z
M 9.8125 72.90625 
L 35.015625 72.90625 
Q 46.296875 72.90625 52.390625 68.21875 
Q 58.5 63.53125 58.5 54.890625 
Q 58.5 48.1875 55.375 44.234375 
Q 52.25 40.28125 46.1875 39.3125 
Q 53.46875 37.75 57.5 32.78125 
Q 61.53125 27.828125 61.53125 20.40625 
Q 61.53125 10.640625 54.890625 5.3125 
Q 48.25 0 35.984375 0 
L 9.8125 0 
z
" id="DejaVuSans-66"/>
      </defs>
      <use xlink:href="#DejaVuSans-82"/>
      <use x="69.482422" xlink:href="#DejaVuSans-72"/>
      <use x="144.677734" xlink:href="#DejaVuSans-69"/>
      <use x="207.861328" xlink:href="#DejaVuSans-66"/>
     </g>
    </g>
   </g>
   <g id="text_5">
    <g clip-path="url(#pfa5cfa26b5)">
     <!-- MTOR -->
     <g transform="translate(405.945323 110.918523)scale(0.12 -0.12)">
      <defs>
       <path d="M 9.8125 72.90625 
L 24.515625 72.90625 
L 43.109375 23.296875 
L 61.8125 72.90625 
L 76.515625 72.90625 
L 76.515625 0 
L 66.890625 0 
L 66.890625 64.015625 
L 48.09375 14.015625 
L 38.1875 14.015625 
L 19.390625 64.015625 
L 19.390625 0 
L 9.8125 0 
z
" id="DejaVuSans-77"/>
       <path d="M -0.296875 72.90625 
L 61.375 72.90625 
L 61.375 64.59375 
L 35.5 64.59375 
L 35.5 0 
L 25.59375 0 
L 25.59375 64.59375 
L -0.296875 64.59375 
z
" id="DejaVuSans-84"/>
      </defs>
      <use xlink:href="#DejaVuSans-77"/>
      <use x="86.279297" xlink:href="#DejaVuSans-84"/>
      <use x="147.363281" xlink:href="#DejaVuSans-79"/>
      <use x="226.074219" xlink:href="#DejaVuSans-82"/>
     </g>
    </g>
   </g>
   <g id="text_6">
    <g clip-path="url(#pfa5cfa26b5)">
     <!-- GNA13 -->
     <g transform="translate(687.302063 333.399845)scale(0.12 -0.12)">
      <defs>
       <path d="M 9.8125 72.90625 
L 23.09375 72.90625 
L 55.421875 11.921875 
L 55.421875 72.90625 
L 64.984375 72.90625 
L 64.984375 0 
L 51.703125 0 
L 19.390625 60.984375 
L 19.390625 0 
L 9.8125 0 
z
" id="DejaVuSans-78"/>
       <path d="M 40.578125 39.3125 
Q 47.65625 37.796875 51.625 33 
Q 55.609375 28.21875 55.609375 21.1875 
Q 55.609375 10.40625 48.1875 4.484375 
Q 40.765625 -1.421875 27.09375 -1.421875 
Q 22.515625 -1.421875 17.65625 -0.515625 
Q 12.796875 0.390625 7.625 2.203125 
L 7.625 11.71875 
Q 11.71875 9.328125 16.59375 8.109375 
Q 21.484375 6.890625 26.8125 6.890625 
Q 36.078125 6.890625 40.9375 10.546875 
Q 45.796875 14.203125 45.796875 21.1875 
Q 45.796875 27.640625 41.28125 31.265625 
Q 36.765625 34.90625 28.71875 34.90625 
L 20.21875 34.90625 
L 20.21875 43.015625 
L 29.109375 43.015625 
Q 36.375 43.015625 40.234375 45.921875 
Q 44.09375 48.828125 44.09375 54.296875 
Q 44.09375 59.90625 40.109375 62.90625 
Q 36.140625 65.921875 28.71875 65.921875 
Q 24.65625 65.921875 20.015625 65.03125 
Q 15.375 64.15625 9.8125 62.3125 
L 9.8125 71.09375 
Q 15.4375 72.65625 20.34375 73.4375 
Q 25.25 74.21875 29.59375 74.21875 
Q 40.828125 74.21875 47.359375 69.109375 
Q 53.90625 64.015625 53.90625 55.328125 
Q 53.90625 49.265625 50.4375 45.09375 
Q 46.96875 40.921875 40.578125 39.3125 
z
" id="DejaVuSans-51"/>
      </defs>
      <use xlink:href="#DejaVuSans-71"/>
      <use x="77.490234" xlink:href="#DejaVuSans-78"/>
      <use x="152.294922" xlink:href="#DejaVuSans-65"/>
      <use x="220.703125" xlink:href="#DejaVuSans-49"/>
      <use x="284.326172" xlink:href="#DejaVuSans-51"/>
     </g>
    </g>
   </g>
   <g id="text_7">
    <g clip-path="url(#pfa5cfa26b5)">
     <!-- GNAS -->
     <g transform="translate(463.77071 308.831971)scale(0.12 -0.12)">
      <use xlink:href="#DejaVuSans-71"/>
      <use x="77.490234" xlink:href="#DejaVuSans-78"/>
      <use x="152.294922" xlink:href="#DejaVuSans-65"/>
      <use x="220.703125" xlink:href="#DejaVuSans-83"/>
     </g>
    </g>
   </g>
   <g id="text_8">
    <g clip-path="url(#pfa5cfa26b5)">
     <!-- PTK2B -->
     <g transform="translate(157.401033 408.265138)scale(0.12 -0.12)">
      <defs>
       <path d="M 19.671875 64.796875 
L 19.671875 37.40625 
L 32.078125 37.40625 
Q 38.96875 37.40625 42.71875 40.96875 
Q 46.484375 44.53125 46.484375 51.125 
Q 46.484375 57.671875 42.71875 61.234375 
Q 38.96875 64.796875 32.078125 64.796875 
z
M 9.8125 72.90625 
L 32.078125 72.90625 
Q 44.34375 72.90625 50.609375 67.359375 
Q 56.890625 61.8125 56.890625 51.125 
Q 56.890625 40.328125 50.609375 34.8125 
Q 44.34375 29.296875 32.078125 29.296875 
L 19.671875 29.296875 
L 19.671875 0 
L 9.8125 0 
z
" id="DejaVuSans-80"/>
       <path d="M 9.8125 72.90625 
L 19.671875 72.90625 
L 19.671875 42.09375 
L 52.390625 72.90625 
L 65.09375 72.90625 
L 28.90625 38.921875 
L 67.671875 0 
L 54.6875 0 
L 19.671875 35.109375 
L 19.671875 0 
L 9.8125 0 
z
" id="DejaVuSans-75"/>
       <path d="M 19.1875 8.296875 
L 53.609375 8.296875 
L 53.609375 0 
L 7.328125 0 
L 7.328125 8.296875 
Q 12.9375 14.109375 22.625 23.890625 
Q 32.328125 33.6875 34.8125 36.53125 
Q 39.546875 41.84375 41.421875 45.53125 
Q 43.3125 49.21875 43.3125 52.78125 
Q 43.3125 58.59375 39.234375 62.25 
Q 35.15625 65.921875 28.609375 65.921875 
Q 23.96875 65.921875 18.8125 64.3125 
Q 13.671875 62.703125 7.8125 59.421875 
L 7.8125 69.390625 
Q 13.765625 71.78125 18.9375 73 
Q 24.125 74.21875 28.421875 74.21875 
Q 39.75 74.21875 46.484375 68.546875 
Q 53.21875 62.890625 53.21875 53.421875 
Q 53.21875 48.921875 51.53125 44.890625 
Q 49.859375 40.875 45.40625 35.40625 
Q 44.1875 33.984375 37.640625 27.21875 
Q 31.109375 20.453125 19.1875 8.296875 
z
" id="DejaVuSans-50"/>
      </defs>
      <use xlink:href="#DejaVuSans-80"/>
      <use x="60.302734" xlink:href="#DejaVuSans-84"/>
      <use x="121.386719" xlink:href="#DejaVuSans-75"/>
      <use x="186.962891" xlink:href="#DejaVuSans-50"/>
      <use x="250.585938" xlink:href="#DejaVuSans-66"/>
     </g>
    </g>
   </g>
   <g id="text_9">
    <g clip-path="url(#pfa5cfa26b5)">
     <!-- GNA12 -->
     <g transform="translate(183.566418 312.897198)scale(0.12 -0.12)">
      <use xlink:href="#DejaVuSans-71"/>
      <use x="77.490234" xlink:href="#DejaVuSans-78"/>
      <use x="152.294922" xlink:href="#DejaVuSans-65"/>
      <use x="220.703125" xlink:href="#DejaVuSans-49"/>
      <use x="284.326172" xlink:href="#DejaVuSans-50"/>
     </g>
    </g>
   </g>
   <g id="text_10">
    <g clip-path="url(#pfa5cfa26b5)">
     <!-- FYN -->
     <g transform="translate(349.594897 476.158712)scale(0.12 -0.12)">
      <defs>
       <path d="M -0.203125 72.90625 
L 10.40625 72.90625 
L 30.609375 42.921875 
L 50.6875 72.90625 
L 61.28125 72.90625 
L 35.5 34.71875 
L 35.5 0 
L 25.59375 0 
L 25.59375 34.71875 
z
" id="DejaVuSans-89"/>
      </defs>
      <use xlink:href="#DejaVuSans-70"/>
      <use x="57.519531" xlink:href="#DejaVuSans-89"/>
      <use x="118.603516" xlink:href="#DejaVuSans-78"/>
     </g>
    </g>
   </g>
   <g id="text_11">
    <g clip-path="url(#pfa5cfa26b5)">
     <!-- SYK -->
     <g transform="translate(154.697348 173.686358)scale(0.12 -0.12)">
      <use xlink:href="#DejaVuSans-83"/>
      <use x="63.476562" xlink:href="#DejaVuSans-89"/>
      <use x="124.560547" xlink:href="#DejaVuSans-75"/>
     </g>
    </g>
   </g>
   <g id="text_12">
    <g clip-path="url(#pfa5cfa26b5)">
     <!-- MAP2K1 -->
     <g transform="translate(579.171595 431.45503)scale(0.12 -0.12)">
      <use xlink:href="#DejaVuSans-77"/>
      <use x="86.279297" xlink:href="#DejaVuSans-65"/>
      <use x="154.6875" xlink:href="#DejaVuSans-80"/>
      <use x="214.990234" xlink:href="#DejaVuSans-50"/>
      <use x="278.613281" xlink:href="#DejaVuSans-75"/>
      <use x="344.189453" xlink:href="#DejaVuSans-49"/>
     </g>
    </g>
   </g>
   <g id="text_13">
    <g clip-path="url(#pfa5cfa26b5)">
     <!-- MAP2K2 -->
     <g transform="translate(585.675191 142.642223)scale(0.12 -0.12)">
      <use xlink:href="#DejaVuSans-77"/>
      <use x="86.279297" xlink:href="#DejaVuSans-65"/>
      <use x="154.6875" xlink:href="#DejaVuSans-80"/>
      <use x="214.990234" xlink:href="#DejaVuSans-50"/>
      <use x="278.613281" xlink:href="#DejaVuSans-75"/>
      <use x="344.189453" xlink:href="#DejaVuSans-50"/>
     </g>
    </g>
   </g>
   <g id="text_14">
    <g clip-path="url(#pfa5cfa26b5)">
     <!-- HRAS -->
     <g transform="translate(412.014481 273.007546)scale(0.12 -0.12)">
      <use xlink:href="#DejaVuSans-72"/>
      <use x="75.195312" xlink:href="#DejaVuSans-82"/>
      <use x="140.677734" xlink:href="#DejaVuSans-65"/>
      <use x="209.085938" xlink:href="#DejaVuSans-83"/>
     </g>
    </g>
   </g>
   <g id="text_15">
    <g clip-path="url(#pfa5cfa26b5)">
     <!-- KRAS -->
     <g transform="translate(591.684816 272.132778)scale(0.12 -0.12)">
      <use xlink:href="#DejaVuSans-75"/>
      <use x="65.576172" xlink:href="#DejaVuSans-82"/>
      <use x="131.058594" xlink:href="#DejaVuSans-65"/>
      <use x="199.466797" xlink:href="#DejaVuSans-83"/>
     </g>
    </g>
   </g>
   <g id="text_16">
    <g clip-path="url(#pfa5cfa26b5)">
     <!-- NRAS -->
     <g transform="translate(385.672088 334.551433)scale(0.12 -0.12)">
      <use xlink:href="#DejaVuSans-78"/>
      <use x="74.804688" xlink:href="#DejaVuSans-82"/>
      <use x="140.287109" xlink:href="#DejaVuSans-65"/>
      <use x="208.695312" xlink:href="#DejaVuSans-83"/>
     </g>
    </g>
   </g>
   <g id="text_17">
    <g clip-path="url(#pfa5cfa26b5)">
     <!-- RRAS -->
     <g transform="translate(392.982325 248.441918)scale(0.12 -0.12)">
      <use xlink:href="#DejaVuSans-82"/>
      <use x="69.482422" xlink:href="#DejaVuSans-82"/>
      <use x="134.964844" xlink:href="#DejaVuSans-65"/>
      <use x="203.373047" xlink:href="#DejaVuSans-83"/>
     </g>
    </g>
   </g>
   <g id="text_18">
    <g clip-path="url(#pfa5cfa26b5)">
     <!-- RRAS2 -->
     <g transform="translate(447.611621 218.83264)scale(0.12 -0.12)">
      <use xlink:href="#DejaVuSans-82"/>
      <use x="69.482422" xlink:href="#DejaVuSans-82"/>
      <use x="134.964844" xlink:href="#DejaVuSans-65"/>
      <use x="203.373047" xlink:href="#DejaVuSans-83"/>
      <use x="266.849609" xlink:href="#DejaVuSans-50"/>
     </g>
    </g>
   </g>
   <g id="text_19">
    <g clip-path="url(#pfa5cfa26b5)">
     <!-- RALA -->
     <g transform="translate(448.0176 477.463977)scale(0.12 -0.12)">
      <use xlink:href="#DejaVuSans-82"/>
      <use x="65.482422" xlink:href="#DejaVuSans-65"/>
      <use x="133.890625" xlink:href="#DejaVuSans-76"/>
      <use x="191.853516" xlink:href="#DejaVuSans-65"/>
     </g>
    </g>
   </g>
   <g id="text_20">
    <g clip-path="url(#pfa5cfa26b5)">
     <!-- RALB -->
     <g transform="translate(670.937386 211.81281)scale(0.12 -0.12)">
      <use xlink:href="#DejaVuSans-82"/>
      <use x="65.482422" xlink:href="#DejaVuSans-65"/>
      <use x="133.890625" xlink:href="#DejaVuSans-76"/>
      <use x="189.603516" xlink:href="#DejaVuSans-66"/>
     </g>
    </g>
   </g>
   <g id="text_21">
    <g clip-path="url(#pfa5cfa26b5)">
     <!-- F2R -->
     <g transform="translate(453.657518 334.034228)scale(0.12 -0.12)">
      <use xlink:href="#DejaVuSans-70"/>
      <use x="57.519531" xlink:href="#DejaVuSans-50"/>
      <use x="121.142578" xlink:href="#DejaVuSans-82"/>
     </g>
    </g>
   </g>
   <g id="text_22">
    <g clip-path="url(#pfa5cfa26b5)">
     <!-- LPAR2 -->
     <g transform="translate(432.938146 307.738173)scale(0.12 -0.12)">
      <use xlink:href="#DejaVuSans-76"/>
      <use x="55.712891" xlink:href="#DejaVuSans-80"/>
      <use x="109.640625" xlink:href="#DejaVuSans-65"/>
      <use x="178.048828" xlink:href="#DejaVuSans-82"/>
      <use x="247.53125" xlink:href="#DejaVuSans-50"/>
     </g>
    </g>
   </g>
   <g id="text_23">
    <g clip-path="url(#pfa5cfa26b5)">
     <!-- LPAR5 -->
     <g transform="translate(428.065928 324.794541)scale(0.12 -0.12)">
      <defs>
       <path d="M 10.796875 72.90625 
L 49.515625 72.90625 
L 49.515625 64.59375 
L 19.828125 64.59375 
L 19.828125 46.734375 
Q 21.96875 47.46875 24.109375 47.828125 
Q 26.265625 48.1875 28.421875 48.1875 
Q 40.625 48.1875 47.75 41.5 
Q 54.890625 34.8125 54.890625 23.390625 
Q 54.890625 11.625 47.5625 5.09375 
Q 40.234375 -1.421875 26.90625 -1.421875 
Q 22.3125 -1.421875 17.546875 -0.640625 
Q 12.796875 0.140625 7.71875 1.703125 
L 7.71875 11.625 
Q 12.109375 9.234375 16.796875 8.0625 
Q 21.484375 6.890625 26.703125 6.890625 
Q 35.15625 6.890625 40.078125 11.328125 
Q 45.015625 15.765625 45.015625 23.390625 
Q 45.015625 31 40.078125 35.4375 
Q 35.15625 39.890625 26.703125 39.890625 
Q 22.75 39.890625 18.8125 39.015625 
Q 14.890625 38.140625 10.796875 36.28125 
z
" id="DejaVuSans-53"/>
      </defs>
      <use xlink:href="#DejaVuSans-76"/>
      <use x="55.712891" xlink:href="#DejaVuSans-80"/>
      <use x="109.640625" xlink:href="#DejaVuSans-65"/>
      <use x="178.048828" xlink:href="#DejaVuSans-82"/>
      <use x="247.53125" xlink:href="#DejaVuSans-53"/>
     </g>
    </g>
   </g>
   <g id="text_24">
    <g clip-path="url(#pfa5cfa26b5)">
     <!-- LPAR6 -->
     <g transform="translate(436.082164 347.629005)scale(0.12 -0.12)">
      <defs>
       <path d="M 33.015625 40.375 
Q 26.375 40.375 22.484375 35.828125 
Q 18.609375 31.296875 18.609375 23.390625 
Q 18.609375 15.53125 22.484375 10.953125 
Q 26.375 6.390625 33.015625 6.390625 
Q 39.65625 6.390625 43.53125 10.953125 
Q 47.40625 15.53125 47.40625 23.390625 
Q 47.40625 31.296875 43.53125 35.828125 
Q 39.65625 40.375 33.015625 40.375 
z
M 52.59375 71.296875 
L 52.59375 62.3125 
Q 48.875 64.0625 45.09375 64.984375 
Q 41.3125 65.921875 37.59375 65.921875 
Q 27.828125 65.921875 22.671875 59.328125 
Q 17.53125 52.734375 16.796875 39.40625 
Q 19.671875 43.65625 24.015625 45.921875 
Q 28.375 48.1875 33.59375 48.1875 
Q 44.578125 48.1875 50.953125 41.515625 
Q 57.328125 34.859375 57.328125 23.390625 
Q 57.328125 12.15625 50.6875 5.359375 
Q 44.046875 -1.421875 33.015625 -1.421875 
Q 20.359375 -1.421875 13.671875 8.265625 
Q 6.984375 17.96875 6.984375 36.375 
Q 6.984375 53.65625 15.1875 63.9375 
Q 23.390625 74.21875 37.203125 74.21875 
Q 40.921875 74.21875 44.703125 73.484375 
Q 48.484375 72.75 52.59375 71.296875 
z
" id="DejaVuSans-54"/>
      </defs>
      <use xlink:href="#DejaVuSans-76"/>
      <use x="55.712891" xlink:href="#DejaVuSans-80"/>
      <use x="109.640625" xlink:href="#DejaVuSans-65"/>
      <use x="178.048828" xlink:href="#DejaVuSans-82"/>
      <use x="247.53125" xlink:href="#DejaVuSans-54"/>
     </g>
    </g>
   </g>
   <g id="text_25">
    <g clip-path="url(#pfa5cfa26b5)">
     <!-- TSC1 -->
     <g transform="translate(223.765985 240.315633)scale(0.12 -0.12)">
      <defs>
       <path d="M 64.40625 67.28125 
L 64.40625 56.890625 
Q 59.421875 61.53125 53.78125 63.8125 
Q 48.140625 66.109375 41.796875 66.109375 
Q 29.296875 66.109375 22.65625 58.46875 
Q 16.015625 50.828125 16.015625 36.375 
Q 16.015625 21.96875 22.65625 14.328125 
Q 29.296875 6.6875 41.796875 6.6875 
Q 48.140625 6.6875 53.78125 8.984375 
Q 59.421875 11.28125 64.40625 15.921875 
L 64.40625 5.609375 
Q 59.234375 2.09375 53.4375 0.328125 
Q 47.65625 -1.421875 41.21875 -1.421875 
Q 24.65625 -1.421875 15.125 8.703125 
Q 5.609375 18.84375 5.609375 36.375 
Q 5.609375 53.953125 15.125 64.078125 
Q 24.65625 74.21875 41.21875 74.21875 
Q 47.75 74.21875 53.53125 72.484375 
Q 59.328125 70.75 64.40625 67.28125 
z
" id="DejaVuSans-67"/>
      </defs>
      <use xlink:href="#DejaVuSans-84"/>
      <use x="61.083984" xlink:href="#DejaVuSans-83"/>
      <use x="124.560547" xlink:href="#DejaVuSans-67"/>
      <use x="194.384766" xlink:href="#DejaVuSans-49"/>
     </g>
    </g>
   </g>
   <g id="text_26">
    <g clip-path="url(#pfa5cfa26b5)">
     <!-- TSC2 -->
     <g transform="translate(352.139822 179.952751)scale(0.12 -0.12)">
      <use xlink:href="#DejaVuSans-84"/>
      <use x="61.083984" xlink:href="#DejaVuSans-83"/>
      <use x="124.560547" xlink:href="#DejaVuSans-67"/>
      <use x="194.384766" xlink:href="#DejaVuSans-50"/>
     </g>
    </g>
   </g>
   <g id="text_27">
    <g clip-path="url(#pfa5cfa26b5)">
     <!-- PIK3CG -->
     <g transform="translate(658.542411 371.90444)scale(0.12 -0.12)">
      <defs>
       <path d="M 9.8125 72.90625 
L 19.671875 72.90625 
L 19.671875 0 
L 9.8125 0 
z
" id="DejaVuSans-73"/>
      </defs>
      <use xlink:href="#DejaVuSans-80"/>
      <use x="60.302734" xlink:href="#DejaVuSans-73"/>
      <use x="89.794922" xlink:href="#DejaVuSans-75"/>
      <use x="155.371094" xlink:href="#DejaVuSans-51"/>
      <use x="218.994141" xlink:href="#DejaVuSans-67"/>
      <use x="288.818359" xlink:href="#DejaVuSans-71"/>
     </g>
    </g>
   </g>
   <g id="text_28">
    <g clip-path="url(#pfa5cfa26b5)">
     <!-- ADCY3 -->
     <g transform="translate(494.551514 120.754384)scale(0.12 -0.12)">
      <use xlink:href="#DejaVuSans-65"/>
      <use x="68.408203" xlink:href="#DejaVuSans-68"/>
      <use x="145.410156" xlink:href="#DejaVuSans-67"/>
      <use x="213.484375" xlink:href="#DejaVuSans-89"/>
      <use x="274.568359" xlink:href="#DejaVuSans-51"/>
     </g>
    </g>
   </g>
   <g id="text_29">
    <g clip-path="url(#pfa5cfa26b5)">
     <!-- ADCY4 -->
     <g transform="translate(179.511282 423.78072)scale(0.12 -0.12)">
      <defs>
       <path d="M 37.796875 64.3125 
L 12.890625 25.390625 
L 37.796875 25.390625 
z
M 35.203125 72.90625 
L 47.609375 72.90625 
L 47.609375 25.390625 
L 58.015625 25.390625 
L 58.015625 17.1875 
L 47.609375 17.1875 
L 47.609375 0 
L 37.796875 0 
L 37.796875 17.1875 
L 4.890625 17.1875 
L 4.890625 26.703125 
z
" id="DejaVuSans-52"/>
      </defs>
      <use xlink:href="#DejaVuSans-65"/>
      <use x="68.408203" xlink:href="#DejaVuSans-68"/>
      <use x="145.410156" xlink:href="#DejaVuSans-67"/>
      <use x="213.484375" xlink:href="#DejaVuSans-89"/>
      <use x="274.568359" xlink:href="#DejaVuSans-52"/>
     </g>
    </g>
   </g>
   <g id="text_30">
    <g clip-path="url(#pfa5cfa26b5)">
     <!-- ADCY7 -->
     <g transform="translate(699.202965 263.924075)scale(0.12 -0.12)">
      <defs>
       <path d="M 8.203125 72.90625 
L 55.078125 72.90625 
L 55.078125 68.703125 
L 28.609375 0 
L 18.3125 0 
L 43.21875 64.59375 
L 8.203125 64.59375 
z
" id="DejaVuSans-55"/>
      </defs>
      <use xlink:href="#DejaVuSans-65"/>
      <use x="68.408203" xlink:href="#DejaVuSans-68"/>
      <use x="145.410156" xlink:href="#DejaVuSans-67"/>
      <use x="213.484375" xlink:href="#DejaVuSans-89"/>
      <use x="274.568359" xlink:href="#DejaVuSans-55"/>
     </g>
    </g>
   </g>
   <g id="text_31">
    <g clip-path="url(#pfa5cfa26b5)">
     <!-- ADCY9 -->
     <g transform="translate(498.978921 455.340772)scale(0.12 -0.12)">
      <defs>
       <path d="M 10.984375 1.515625 
L 10.984375 10.5 
Q 14.703125 8.734375 18.5 7.8125 
Q 22.3125 6.890625 25.984375 6.890625 
Q 35.75 6.890625 40.890625 13.453125 
Q 46.046875 20.015625 46.78125 33.40625 
Q 43.953125 29.203125 39.59375 26.953125 
Q 35.25 24.703125 29.984375 24.703125 
Q 19.046875 24.703125 12.671875 31.3125 
Q 6.296875 37.9375 6.296875 49.421875 
Q 6.296875 60.640625 12.9375 67.421875 
Q 19.578125 74.21875 30.609375 74.21875 
Q 43.265625 74.21875 49.921875 64.515625 
Q 56.59375 54.828125 56.59375 36.375 
Q 56.59375 19.140625 48.40625 8.859375 
Q 40.234375 -1.421875 26.421875 -1.421875 
Q 22.703125 -1.421875 18.890625 -0.6875 
Q 15.09375 0.046875 10.984375 1.515625 
z
M 30.609375 32.421875 
Q 37.25 32.421875 41.125 36.953125 
Q 45.015625 41.5 45.015625 49.421875 
Q 45.015625 57.28125 41.125 61.84375 
Q 37.25 66.40625 30.609375 66.40625 
Q 23.96875 66.40625 20.09375 61.84375 
Q 16.21875 57.28125 16.21875 49.421875 
Q 16.21875 41.5 20.09375 36.953125 
Q 23.96875 32.421875 30.609375 32.421875 
z
" id="DejaVuSans-57"/>
      </defs>
      <use xlink:href="#DejaVuSans-65"/>
      <use x="68.408203" xlink:href="#DejaVuSans-68"/>
      <use x="145.410156" xlink:href="#DejaVuSans-67"/>
      <use x="213.484375" xlink:href="#DejaVuSans-89"/>
      <use x="274.568359" xlink:href="#DejaVuSans-57"/>
     </g>
    </g>
   </g>
   <g id="text_32">
    <g clip-path="url(#pfa5cfa26b5)">
     <!-- FCER1G -->
     <g transform="translate(220.243704 329.039015)scale(0.12 -0.12)">
      <use xlink:href="#DejaVuSans-70"/>
      <use x="57.519531" xlink:href="#DejaVuSans-67"/>
      <use x="127.34375" xlink:href="#DejaVuSans-69"/>
      <use x="190.527344" xlink:href="#DejaVuSans-82"/>
      <use x="260.009766" xlink:href="#DejaVuSans-49"/>
      <use x="323.632812" xlink:href="#DejaVuSans-71"/>
     </g>
    </g>
   </g>
   <g id="text_33">
    <!-- Frame: 11 -->
    <g transform="translate(121.392 91.296)scale(0.1 -0.1)">
     <defs>
      <path d="M 41.109375 46.296875 
Q 39.59375 47.171875 37.8125 47.578125 
Q 36.03125 48 33.890625 48 
Q 26.265625 48 22.1875 43.046875 
Q 18.109375 38.09375 18.109375 28.8125 
L 18.109375 0 
L 9.078125 0 
L 9.078125 54.6875 
L 18.109375 54.6875 
L 18.109375 46.1875 
Q 20.953125 51.171875 25.484375 53.578125 
Q 30.03125 56 36.53125 56 
Q 37.453125 56 38.578125 55.875 
Q 39.703125 55.765625 41.0625 55.515625 
z
" id="DejaVuSans-114"/>
      <path d="M 34.28125 27.484375 
Q 23.390625 27.484375 19.1875 25 
Q 14.984375 22.515625 14.984375 16.5 
Q 14.984375 11.71875 18.140625 8.90625 
Q 21.296875 6.109375 26.703125 6.109375 
Q 34.1875 6.109375 38.703125 11.40625 
Q 43.21875 16.703125 43.21875 25.484375 
L 43.21875 27.484375 
z
M 52.203125 31.203125 
L 52.203125 0 
L 43.21875 0 
L 43.21875 8.296875 
Q 40.140625 3.328125 35.546875 0.953125 
Q 30.953125 -1.421875 24.3125 -1.421875 
Q 15.921875 -1.421875 10.953125 3.296875 
Q 6 8.015625 6 15.921875 
Q 6 25.140625 12.171875 29.828125 
Q 18.359375 34.515625 30.609375 34.515625 
L 43.21875 34.515625 
L 43.21875 35.40625 
Q 43.21875 41.609375 39.140625 45 
Q 35.0625 48.390625 27.6875 48.390625 
Q 23 48.390625 18.546875 47.265625 
Q 14.109375 46.140625 10.015625 43.890625 
L 10.015625 52.203125 
Q 14.9375 54.109375 19.578125 55.046875 
Q 24.21875 56 28.609375 56 
Q 40.484375 56 46.34375 49.84375 
Q 52.203125 43.703125 52.203125 31.203125 
z
" id="DejaVuSans-97"/>
      <path d="M 52 44.1875 
Q 55.375 50.25 60.0625 53.125 
Q 64.75 56 71.09375 56 
Q 79.640625 56 84.28125 50.015625 
Q 88.921875 44.046875 88.921875 33.015625 
L 88.921875 0 
L 79.890625 0 
L 79.890625 32.71875 
Q 79.890625 40.578125 77.09375 44.375 
Q 74.3125 48.1875 68.609375 48.1875 
Q 61.625 48.1875 57.5625 43.546875 
Q 53.515625 38.921875 53.515625 30.90625 
L 53.515625 0 
L 44.484375 0 
L 44.484375 32.71875 
Q 44.484375 40.625 41.703125 44.40625 
Q 38.921875 48.1875 33.109375 48.1875 
Q 26.21875 48.1875 22.15625 43.53125 
Q 18.109375 38.875 18.109375 30.90625 
L 18.109375 0 
L 9.078125 0 
L 9.078125 54.6875 
L 18.109375 54.6875 
L 18.109375 46.1875 
Q 21.1875 51.21875 25.484375 53.609375 
Q 29.78125 56 35.6875 56 
Q 41.65625 56 45.828125 52.96875 
Q 50 49.953125 52 44.1875 
z
" id="DejaVuSans-109"/>
      <path d="M 56.203125 29.59375 
L 56.203125 25.203125 
L 14.890625 25.203125 
Q 15.484375 15.921875 20.484375 11.0625 
Q 25.484375 6.203125 34.421875 6.203125 
Q 39.59375 6.203125 44.453125 7.46875 
Q 49.3125 8.734375 54.109375 11.28125 
L 54.109375 2.78125 
Q 49.265625 0.734375 44.1875 -0.34375 
Q 39.109375 -1.421875 33.890625 -1.421875 
Q 20.796875 -1.421875 13.15625 6.1875 
Q 5.515625 13.8125 5.515625 26.8125 
Q 5.515625 40.234375 12.765625 48.109375 
Q 20.015625 56 32.328125 56 
Q 43.359375 56 49.78125 48.890625 
Q 56.203125 41.796875 56.203125 29.59375 
z
M 47.21875 32.234375 
Q 47.125 39.59375 43.09375 43.984375 
Q 39.0625 48.390625 32.421875 48.390625 
Q 24.90625 48.390625 20.390625 44.140625 
Q 15.875 39.890625 15.1875 32.171875 
z
" id="DejaVuSans-101"/>
      <path d="M 11.71875 12.40625 
L 22.015625 12.40625 
L 22.015625 0 
L 11.71875 0 
z
M 11.71875 51.703125 
L 22.015625 51.703125 
L 22.015625 39.3125 
L 11.71875 39.3125 
z
" id="DejaVuSans-58"/>
      <path id="DejaVuSans-32"/>
     </defs>
     <use xlink:href="#DejaVuSans-70"/>
     <use x="50.269531" xlink:href="#DejaVuSans-114"/>
     <use x="91.382812" xlink:href="#DejaVuSans-97"/>
     <use x="152.662109" xlink:href="#DejaVuSans-109"/>
     <use x="250.074219" xlink:href="#DejaVuSans-101"/>
     <use x="311.597656" xlink:href="#DejaVuSans-58"/>
     <use x="345.289062" xlink:href="#DejaVuSans-32"/>
     <use x="377.076172" xlink:href="#DejaVuSans-49"/>
     <use x="440.699219" xlink:href="#DejaVuSans-49"/>
    </g>
   </g>
   <g id="text_34">
    <!-- Network: hsa04072 -->
    <g transform="translate(384.1275 63.12)scale(0.12 -0.12)">
     <defs>
      <path d="M 18.3125 70.21875 
L 18.3125 54.6875 
L 36.8125 54.6875 
L 36.8125 47.703125 
L 18.3125 47.703125 
L 18.3125 18.015625 
Q 18.3125 11.328125 20.140625 9.421875 
Q 21.96875 7.515625 27.59375 7.515625 
L 36.8125 7.515625 
L 36.8125 0 
L 27.59375 0 
Q 17.1875 0 13.234375 3.875 
Q 9.28125 7.765625 9.28125 18.015625 
L 9.28125 47.703125 
L 2.6875 47.703125 
L 2.6875 54.6875 
L 9.28125 54.6875 
L 9.28125 70.21875 
z
" id="DejaVuSans-116"/>
      <path d="M 4.203125 54.6875 
L 13.1875 54.6875 
L 24.421875 12.015625 
L 35.59375 54.6875 
L 46.1875 54.6875 
L 57.421875 12.015625 
L 68.609375 54.6875 
L 77.59375 54.6875 
L 63.28125 0 
L 52.6875 0 
L 40.921875 44.828125 
L 29.109375 0 
L 18.5 0 
z
" id="DejaVuSans-119"/>
      <path d="M 30.609375 48.390625 
Q 23.390625 48.390625 19.1875 42.75 
Q 14.984375 37.109375 14.984375 27.296875 
Q 14.984375 17.484375 19.15625 11.84375 
Q 23.34375 6.203125 30.609375 6.203125 
Q 37.796875 6.203125 41.984375 11.859375 
Q 46.1875 17.53125 46.1875 27.296875 
Q 46.1875 37.015625 41.984375 42.703125 
Q 37.796875 48.390625 30.609375 48.390625 
z
M 30.609375 56 
Q 42.328125 56 49.015625 48.375 
Q 55.71875 40.765625 55.71875 27.296875 
Q 55.71875 13.875 49.015625 6.21875 
Q 42.328125 -1.421875 30.609375 -1.421875 
Q 18.84375 -1.421875 12.171875 6.21875 
Q 5.515625 13.875 5.515625 27.296875 
Q 5.515625 40.765625 12.171875 48.375 
Q 18.84375 56 30.609375 56 
z
" id="DejaVuSans-111"/>
      <path d="M 9.078125 75.984375 
L 18.109375 75.984375 
L 18.109375 31.109375 
L 44.921875 54.6875 
L 56.390625 54.6875 
L 27.390625 29.109375 
L 57.625 0 
L 45.90625 0 
L 18.109375 26.703125 
L 18.109375 0 
L 9.078125 0 
z
" id="DejaVuSans-107"/>
      <path d="M 54.890625 33.015625 
L 54.890625 0 
L 45.90625 0 
L 45.90625 32.71875 
Q 45.90625 40.484375 42.875 44.328125 
Q 39.84375 48.1875 33.796875 48.1875 
Q 26.515625 48.1875 22.3125 43.546875 
Q 18.109375 38.921875 18.109375 30.90625 
L 18.109375 0 
L 9.078125 0 
L 9.078125 75.984375 
L 18.109375 75.984375 
L 18.109375 46.1875 
Q 21.34375 51.125 25.703125 53.5625 
Q 30.078125 56 35.796875 56 
Q 45.21875 56 50.046875 50.171875 
Q 54.890625 44.34375 54.890625 33.015625 
z
" id="DejaVuSans-104"/>
      <path d="M 44.28125 53.078125 
L 44.28125 44.578125 
Q 40.484375 46.53125 36.375 47.5 
Q 32.28125 48.484375 27.875 48.484375 
Q 21.1875 48.484375 17.84375 46.4375 
Q 14.5 44.390625 14.5 40.28125 
Q 14.5 37.15625 16.890625 35.375 
Q 19.28125 33.59375 26.515625 31.984375 
L 29.59375 31.296875 
Q 39.15625 29.25 43.1875 25.515625 
Q 47.21875 21.78125 47.21875 15.09375 
Q 47.21875 7.46875 41.1875 3.015625 
Q 35.15625 -1.421875 24.609375 -1.421875 
Q 20.21875 -1.421875 15.453125 -0.5625 
Q 10.6875 0.296875 5.421875 2 
L 5.421875 11.28125 
Q 10.40625 8.6875 15.234375 7.390625 
Q 20.0625 6.109375 24.8125 6.109375 
Q 31.15625 6.109375 34.5625 8.28125 
Q 37.984375 10.453125 37.984375 14.40625 
Q 37.984375 18.0625 35.515625 20.015625 
Q 33.0625 21.96875 24.703125 23.78125 
L 21.578125 24.515625 
Q 13.234375 26.265625 9.515625 29.90625 
Q 5.8125 33.546875 5.8125 39.890625 
Q 5.8125 47.609375 11.28125 51.796875 
Q 16.75 56 26.8125 56 
Q 31.78125 56 36.171875 55.265625 
Q 40.578125 54.546875 44.28125 53.078125 
z
" id="DejaVuSans-115"/>
      <path d="M 31.78125 66.40625 
Q 24.171875 66.40625 20.328125 58.90625 
Q 16.5 51.421875 16.5 36.375 
Q 16.5 21.390625 20.328125 13.890625 
Q 24.171875 6.390625 31.78125 6.390625 
Q 39.453125 6.390625 43.28125 13.890625 
Q 47.125 21.390625 47.125 36.375 
Q 47.125 51.421875 43.28125 58.90625 
Q 39.453125 66.40625 31.78125 66.40625 
z
M 31.78125 74.21875 
Q 44.046875 74.21875 50.515625 64.515625 
Q 56.984375 54.828125 56.984375 36.375 
Q 56.984375 17.96875 50.515625 8.265625 
Q 44.046875 -1.421875 31.78125 -1.421875 
Q 19.53125 -1.421875 13.0625 8.265625 
Q 6.59375 17.96875 6.59375 36.375 
Q 6.59375 54.828125 13.0625 64.515625 
Q 19.53125 74.21875 31.78125 74.21875 
z
" id="DejaVuSans-48"/>
     </defs>
     <use xlink:href="#DejaVuSans-78"/>
     <use x="74.804688" xlink:href="#DejaVuSans-101"/>
     <use x="136.328125" xlink:href="#DejaVuSans-116"/>
     <use x="175.537109" xlink:href="#DejaVuSans-119"/>
     <use x="257.324219" xlink:href="#DejaVuSans-111"/>
     <use x="318.505859" xlink:href="#DejaVuSans-114"/>
     <use x="359.619141" xlink:href="#DejaVuSans-107"/>
     <use x="417.529297" xlink:href="#DejaVuSans-58"/>
     <use x="451.220703" xlink:href="#DejaVuSans-32"/>
     <use x="483.007812" xlink:href="#DejaVuSans-104"/>
     <use x="546.386719" xlink:href="#DejaVuSans-115"/>
     <use x="598.486328" xlink:href="#DejaVuSans-97"/>
     <use x="659.765625" xlink:href="#DejaVuSans-48"/>
     <use x="723.388672" xlink:href="#DejaVuSans-52"/>
     <use x="787.011719" xlink:href="#DejaVuSans-48"/>
     <use x="850.634766" xlink:href="#DejaVuSans-55"/>
     <use x="914.257812" xlink:href="#DejaVuSans-50"/>
    </g>
   </g>
  </g>
 </g>
 <defs>
  <clipPath id="pfa5cfa26b5">
   <rect height="443.52" width="669.6" x="108" y="69.12"/>
  </clipPath>
 </defs>
</svg>
