<?xml version="1.0" encoding="utf-8" standalone="no"?>
<!DOCTYPE svg PUBLIC "-//W3C//DTD SVG 1.1//EN"
  "http://www.w3.org/Graphics/SVG/1.1/DTD/svg11.dtd">
<!-- Created with matplotlib (https://matplotlib.org/) -->
<svg height="576pt" version="1.1" viewBox="0 0 864 576" width="864pt" xmlns="http://www.w3.org/2000/svg" xmlns:xlink="http://www.w3.org/1999/xlink">
 <metadata>
  <rdf:RDF xmlns:cc="http://creativecommons.org/ns#" xmlns:dc="http://purl.org/dc/elements/1.1/" xmlns:rdf="http://www.w3.org/1999/02/22-rdf-syntax-ns#">
   <cc:Work>
    <dc:type rdf:resource="http://purl.org/dc/dcmitype/StillImage"/>
    <dc:date>2024-04-26T13:36:32.863199</dc:date>
    <dc:format>image/svg+xml</dc:format>
    <dc:creator>
     <cc:Agent>
      <dc:title>Matplotlib v3.3.1, https://matplotlib.org/</dc:title>
     </cc:Agent>
    </dc:creator>
   </cc:Work>
  </rdf:RDF>
 </metadata>
 <defs>
  <style type="text/css">*{stroke-linecap:butt;stroke-linejoin:round;}</style>
 </defs>
 <g id="figure_1">
  <g id="patch_1">
   <path d="M 0 576 
L 864 576 
L 864 0 
L 0 0 
z
" style="fill:#ffffff;"/>
  </g>
  <g id="axes_1">
   <g id="patch_2">
    <path clip-path="url(#pf0448e9418)" d="M 709.857336 284.353897 
Q 700.054414 255.557541 690.61179 227.819572 
" style="fill:none;stroke:#000000;stroke-linecap:round;"/>
    <path clip-path="url(#pf0448e9418)" d="M 690.007533 232.250698 
L 690.61179 227.819572 
L 693.794136 230.961653 
L 690.007533 232.250698 
z
" style="stroke:#000000;stroke-linecap:round;"/>
   </g>
   <g id="patch_3">
    <path clip-path="url(#pf0448e9418)" d="M 315.17939 297.039551 
Q 283.593174 364.263683 252.482415 430.475915 
" style="fill:none;stroke:#000000;stroke-linecap:round;"/>
    <path clip-path="url(#pf0448e9418)" d="M 255.993599 427.706152 
L 252.482415 430.475915 
L 252.373315 426.00511 
L 255.993599 427.706152 
z
" style="stroke:#000000;stroke-linecap:round;"/>
   </g>
   <g id="patch_4">
    <path clip-path="url(#pf0448e9418)" d="M 312.435509 295.005607 
Q 264.055868 338.691426 216.506025 381.627954 
" style="fill:none;stroke:#000000;stroke-linecap:round;"/>
    <path clip-path="url(#pf0448e9418)" d="M 220.81517 380.431599 
L 216.506025 381.627954 
L 218.134428 377.462825 
L 220.81517 380.431599 
z
" style="stroke:#000000;stroke-linecap:round;"/>
   </g>
   <g id="patch_5">
    <path clip-path="url(#pf0448e9418)" d="M 324.755362 282.856011 
Q 402.940703 198.658885 480.365264 115.281035 
" style="fill:none;stroke:#000000;stroke-linecap:round;"/>
    <path clip-path="url(#pf0448e9418)" d="M 476.17785 116.851246 
L 480.365264 115.281035 
L 479.108984 119.573093 
L 476.17785 116.851246 
z
" style="stroke:#000000;stroke-linecap:round;"/>
   </g>
   <g id="patch_6">
    <path clip-path="url(#pf0448e9418)" d="M 302.997281 198.648169 
Q 369.403519 158.083094 434.855654 118.100845 
" style="fill:none;stroke:#000000;stroke-linecap:round;"/>
    <path clip-path="url(#pf0448e9418)" d="M 430.399558 118.479274 
L 434.855654 118.100845 
L 432.48474 121.892779 
L 430.399558 118.479274 
z
" style="stroke:#000000;stroke-linecap:round;"/>
   </g>
   <g id="patch_7">
    <path clip-path="url(#pf0448e9418)" d="M 242.18539 305.942561 
Q 266.900437 258.393017 291.099852 211.835503 
" style="fill:none;stroke:#000000;stroke-linecap:round;"/>
    <path clip-path="url(#pf0448e9418)" d="M 287.480473 214.462307 
L 291.099852 211.835503 
L 291.029668 216.307088 
L 287.480473 214.462307 
z
" style="stroke:#000000;stroke-linecap:round;"/>
   </g>
   <g id="patch_8">
    <path clip-path="url(#pf0448e9418)" d="M 535.161246 235.537033 
Q 466.52597 221.13569 398.984901 206.963939 
" style="fill:none;stroke:#000000;stroke-linecap:round;"/>
    <path clip-path="url(#pf0448e9418)" d="M 402.488948 209.742725 
L 398.984901 206.963939 
L 403.310358 205.827972 
L 402.488948 209.742725 
z
" style="stroke:#000000;stroke-linecap:round;"/>
   </g>
   <g id="patch_9">
    <path clip-path="url(#pf0448e9418)" d="M 600.809188 145.511467 
Q 602.039292 165.404155 603.200393 184.18094 
" style="fill:none;stroke:#000000;stroke-linecap:round;"/>
    <path clip-path="url(#pf0448e9418)" d="M 604.949704 180.065128 
L 603.200393 184.18094 
L 600.957329 180.312004 
L 604.949704 180.065128 
z
" style="stroke:#000000;stroke-linecap:round;"/>
   </g>
   <g id="patch_10">
    <path clip-path="url(#pf0448e9418)" d="M 612.349092 195.338257 
Q 647.185569 201.02537 680.91862 206.532347 
" style="fill:none;stroke:#000000;stroke-linecap:round;"/>
    <path clip-path="url(#pf0448e9418)" d="M 677.293118 203.914002 
L 680.91862 206.532347 
L 676.648643 207.861742 
L 677.293118 203.914002 
z
" style="stroke:#000000;stroke-linecap:round;"/>
   </g>
   <g id="patch_11">
    <path clip-path="url(#pf0448e9418)" d="M 596.072406 190.046677 
Q 523.503128 153.473325 451.932257 117.403147 
" style="fill:none;stroke:#000000;stroke-linecap:round;"/>
    <path clip-path="url(#pf0448e9418)" d="M 454.604156 120.989365 
L 451.932257 117.403147 
L 456.40437 117.417359 
L 454.604156 120.989365 
z
" style="stroke:#000000;stroke-linecap:round;"/>
   </g>
   <g id="patch_12">
    <path clip-path="url(#pf0448e9418)" d="M 364.15555 454.168902 
Q 345.086639 434.973991 326.80569 416.572249 
" style="fill:none;stroke:#000000;stroke-linecap:round;"/>
    <path clip-path="url(#pf0448e9418)" d="M 328.205926 420.819524 
L 326.80569 416.572249 
L 331.043651 418.000426 
L 328.205926 420.819524 
z
" style="stroke:#000000;stroke-linecap:round;"/>
   </g>
   <g id="patch_13">
    <path clip-path="url(#pf0448e9418)" d="M 422.696378 392.504316 
Q 420.726931 426.893035 418.82141 460.165549 
" style="fill:none;stroke:#000000;stroke-linecap:round;"/>
    <path clip-path="url(#pf0448e9418)" d="M 421.046844 456.286445 
L 418.82141 460.165549 
L 417.053387 456.057739 
L 421.046844 456.286445 
z
" style="stroke:#000000;stroke-linecap:round;"/>
   </g>
   <g id="patch_14">
    <path clip-path="url(#pf0448e9418)" d="M 431.437237 381.210158 
Q 443.753347 377.251351 455.005058 373.634678 
" style="fill:none;stroke:#000000;stroke-linecap:round;"/>
    <path clip-path="url(#pf0448e9418)" d="M 450.584923 372.954676 
L 455.005058 373.634678 
L 451.808976 376.762785 
L 450.584923 372.954676 
z
" style="stroke:#000000;stroke-linecap:round;"/>
   </g>
   <g id="patch_15">
    <path clip-path="url(#pf0448e9418)" d="M 397.840112 202.936596 
Q 499.327765 178.596943 599.728213 154.518034 
" style="fill:none;stroke:#000000;stroke-linecap:round;"/>
    <path clip-path="url(#pf0448e9418)" d="M 595.372081 153.506045 
L 599.728213 154.518034 
L 596.304943 157.395746 
L 595.372081 153.506045 
z
" style="stroke:#000000;stroke-linecap:round;"/>
   </g>
   <g id="patch_16">
    <path clip-path="url(#pf0448e9418)" d="M 380.8254 206.047586 
Q 330.490754 212.439139 281.265236 218.689853 
" style="fill:none;stroke:#000000;stroke-linecap:round;"/>
    <path clip-path="url(#pf0448e9418)" d="M 285.485312 220.170043 
L 281.265236 218.689853 
L 284.981433 216.201906 
L 285.485312 220.170043 
z
" style="stroke:#000000;stroke-linecap:round;"/>
   </g>
   <g id="patch_17">
    <path clip-path="url(#pf0448e9418)" d="M 382.530583 210.208004 
Q 363.596058 224.64563 345.550596 238.405341 
" style="fill:none;stroke:#000000;stroke-linecap:round;"/>
    <path clip-path="url(#pf0448e9418)" d="M 349.944094 237.57037 
L 345.550596 238.405341 
L 347.518718 234.389561 
L 349.944094 237.57037 
z
" style="stroke:#000000;stroke-linecap:round;"/>
   </g>
   <g id="patch_18">
    <path clip-path="url(#pf0448e9418)" d="M 382.29427 200.025435 
Q 363.787422 187.214452 346.199847 175.039817 
" style="fill:none;stroke:#000000;stroke-linecap:round;"/>
    <path clip-path="url(#pf0448e9418)" d="M 348.350404 178.960927 
L 346.199847 175.039817 
L 350.62707 175.672038 
L 348.350404 178.960927 
z
" style="stroke:#000000;stroke-linecap:round;"/>
   </g>
   <g id="patch_19">
    <path clip-path="url(#pf0448e9418)" d="M 380.76876 205.373147 
Q 284.644334 210.003531 189.636648 214.58012 
" style="fill:none;stroke:#000000;stroke-linecap:round;"/>
    <path clip-path="url(#pf0448e9418)" d="M 193.728245 216.385344 
L 189.636648 214.58012 
L 193.535786 212.389976 
L 193.728245 216.385344 
z
" style="stroke:#000000;stroke-linecap:round;"/>
   </g>
   <g id="patch_20">
    <path clip-path="url(#pf0448e9418)" d="M 384.719505 197.683529 
Q 361.618833 161.923188 339.124823 127.101974 
" style="fill:none;stroke:#000000;stroke-linecap:round;"/>
    <path clip-path="url(#pf0448e9418)" d="M 339.615324 131.54713 
L 339.124823 127.101974 
L 342.975249 129.376667 
L 339.615324 131.54713 
z
" style="stroke:#000000;stroke-linecap:round;"/>
   </g>
   <g id="patch_21">
    <path clip-path="url(#pf0448e9418)" d="M 455.761736 371.98868 
Q 410.669784 379.089731 366.682255 386.016858 
" style="fill:none;stroke:#000000;stroke-linecap:round;"/>
    <path clip-path="url(#pf0448e9418)" d="M 370.944684 387.370262 
L 366.682255 386.016858 
L 370.322435 383.418957 
L 370.944684 387.370262 
z
" style="stroke:#000000;stroke-linecap:round;"/>
   </g>
   <g id="patch_22">
    <path clip-path="url(#pf0448e9418)" d="M 364.237592 392.32493 
Q 422.291375 430.845276 479.41355 468.747473 
" style="fill:none;stroke:#000000;stroke-linecap:round;"/>
    <path clip-path="url(#pf0448e9418)" d="M 477.186306 464.869408 
L 479.41355 468.747473 
L 474.974752 468.202429 
L 477.186306 464.869408 
z
" style="stroke:#000000;stroke-linecap:round;"/>
   </g>
   <g id="patch_23">
    <path clip-path="url(#pf0448e9418)" d="M 457.426459 301.765879 
Q 584.199577 324.565484 709.872314 347.16719 
" style="fill:none;stroke:#000000;stroke-linecap:round;"/>
    <path clip-path="url(#pf0448e9418)" d="M 706.289487 344.490746 
L 709.872314 347.16719 
L 705.581463 348.427586 
L 706.289487 344.490746 
z
" style="stroke:#000000;stroke-linecap:round;"/>
   </g>
   <g id="patch_24">
    <path clip-path="url(#pf0448e9418)" d="M 441.400549 295.894207 
Q 338.351891 236.284542 236.271014 177.234699 
" style="fill:none;stroke:#000000;stroke-linecap:round;"/>
    <path clip-path="url(#pf0448e9418)" d="M 238.732006 180.968801 
L 236.271014 177.234699 
L 240.734891 177.506367 
L 238.732006 180.968801 
z
" style="stroke:#000000;stroke-linecap:round;"/>
   </g>
   <g id="patch_25">
    <path clip-path="url(#pf0448e9418)" d="M 442.52101 306.086133 
Q 373.355074 369.554056 305.012911 432.266069 
" style="fill:none;stroke:#000000;stroke-linecap:round;"/>
    <path clip-path="url(#pf0448e9418)" d="M 309.312341 431.035257 
L 305.012911 432.266069 
L 306.607919 428.088038 
L 309.312341 431.035257 
z
" style="stroke:#000000;stroke-linecap:round;"/>
   </g>
   <g id="patch_26">
    <path clip-path="url(#pf0448e9418)" d="M 455.287446 306.085344 
Q 530.688825 375.178533 605.265907 443.516386 
" style="fill:none;stroke:#000000;stroke-linecap:round;"/>
    <path clip-path="url(#pf0448e9418)" d="M 603.667994 439.339464 
L 605.265907 443.516386 
L 600.965622 442.288563 
L 603.667994 439.339464 
z
" style="stroke:#000000;stroke-linecap:round;"/>
   </g>
   <g id="patch_27">
    <path clip-path="url(#pf0448e9418)" d="M 446.701213 291.85861 
Q 423.608519 203.920599 400.799796 117.063959 
" style="fill:none;stroke:#000000;stroke-linecap:round;"/>
    <path clip-path="url(#pf0448e9418)" d="M 399.881344 121.440767 
L 400.799796 117.063959 
L 403.750171 120.424805 
L 399.881344 121.440767 
z
" style="stroke:#000000;stroke-linecap:round;"/>
   </g>
   <g id="patch_28">
    <path clip-path="url(#pf0448e9418)" d="M 311.561596 407.354687 
Q 247.256699 389.809128 184.030407 372.557866 
" style="fill:none;stroke:#000000;stroke-linecap:round;"/>
    <path clip-path="url(#pf0448e9418)" d="M 187.362888 375.540242 
L 184.030407 372.557866 
L 188.415796 371.681307 
L 187.362888 375.540242 
z
" style="stroke:#000000;stroke-linecap:round;"/>
   </g>
   <g id="patch_29">
    <path clip-path="url(#pf0448e9418)" d="M 172.466403 361.591332 
Q 170.350985 353.255878 168.510589 346.004104 
" style="fill:none;stroke:#000000;stroke-linecap:round;"/>
    <path clip-path="url(#pf0448e9418)" d="M 167.555993 350.373171 
L 168.510589 346.004104 
L 171.433085 349.389221 
L 167.555993 350.373171 
z
" style="stroke:#000000;stroke-linecap:round;"/>
   </g>
   <g id="patch_30">
    <path clip-path="url(#pf0448e9418)" d="M 427.603629 232.299248 
Q 399.36006 239.147618 372.203039 245.732527 
" style="fill:none;stroke:#000000;stroke-linecap:round;"/>
    <path clip-path="url(#pf0448e9418)" d="M 376.561688 246.733616 
L 372.203039 245.732527 
L 375.6191 242.846261 
L 376.561688 246.733616 
z
" style="stroke:#000000;stroke-linecap:round;"/>
   </g>
   <g id="patch_31">
    <path clip-path="url(#pf0448e9418)" d="M 427.616959 228.159891 
Q 384.620056 217.425967 342.707896 206.962843 
" style="fill:none;stroke:#000000;stroke-linecap:round;"/>
    <path clip-path="url(#pf0448e9418)" d="M 346.10437 209.872133 
L 342.707896 206.962843 
L 347.073212 205.991238 
L 346.10437 209.872133 
z
" style="stroke:#000000;stroke-linecap:round;"/>
   </g>
   <g id="patch_32">
    <path clip-path="url(#pf0448e9418)" d="M 427.792065 232.950733 
Q 413.224599 237.717075 399.719734 242.135743 
" style="fill:none;stroke:#000000;stroke-linecap:round;"/>
    <path clip-path="url(#pf0448e9418)" d="M 404.143352 242.792708 
L 399.719734 242.135743 
L 402.899477 238.991028 
L 404.143352 242.792708 
z
" style="stroke:#000000;stroke-linecap:round;"/>
   </g>
   <g id="patch_33">
    <path clip-path="url(#pf0448e9418)" d="M 681.142355 212.64444 
Q 643.868677 177.717752 607.410836 143.555531 
" style="fill:none;stroke:#000000;stroke-linecap:round;"/>
    <path clip-path="url(#pf0448e9418)" d="M 608.962145 147.749985 
L 607.410836 143.555531 
L 611.697184 144.831157 
L 608.962145 147.749985 
z
" style="stroke:#000000;stroke-linecap:round;"/>
   </g>
   <g id="patch_34">
    <path clip-path="url(#pf0448e9418)" d="M 176.259841 263.716235 
Q 190.830242 233.117537 204.919973 203.528272 
" style="fill:none;stroke:#000000;stroke-linecap:round;"/>
    <path clip-path="url(#pf0448e9418)" d="M 201.394548 206.279886 
L 204.919973 203.528272 
L 205.006008 207.999581 
L 201.394548 206.279886 
z
" style="stroke:#000000;stroke-linecap:round;"/>
   </g>
   <g id="patch_35">
    <path clip-path="url(#pf0448e9418)" d="M 475.547327 314.60024 
Q 513.540909 386.57396 551.012558 457.558949 
" style="fill:none;stroke:#000000;stroke-linecap:round;"/>
    <path clip-path="url(#pf0448e9418)" d="M 550.913931 453.087901 
L 551.012558 457.558949 
L 547.376543 454.955222 
L 550.913931 453.087901 
z
" style="stroke:#000000;stroke-linecap:round;"/>
   </g>
   <g id="patch_36">
    <path clip-path="url(#pf0448e9418)" d="M 478.276777 312.34086 
Q 544.137847 364.842605 609.124668 416.647436 
" style="fill:none;stroke:#000000;stroke-linecap:round;"/>
    <path clip-path="url(#pf0448e9418)" d="M 607.243542 412.590175 
L 609.124668 416.647436 
L 604.750184 415.71798 
L 607.243542 412.590175 
z
" style="stroke:#000000;stroke-linecap:round;"/>
   </g>
   <g id="patch_37">
    <path clip-path="url(#pf0448e9418)" d="M 463.11554 304.811503 
Q 331.888957 271.475385 201.74599 238.414543 
" style="fill:none;stroke:#000000;stroke-linecap:round;"/>
    <path clip-path="url(#pf0448e9418)" d="M 205.130422 241.337831 
L 201.74599 238.414543 
L 206.11528 237.46097 
L 205.130422 241.337831 
z
" style="stroke:#000000;stroke-linecap:round;"/>
   </g>
   <g id="patch_38">
    <path clip-path="url(#pf0448e9418)" d="M 474.403631 298.780218 
Q 504.088087 215.186916 533.398412 132.647192 
" style="fill:none;stroke:#000000;stroke-linecap:round;"/>
    <path clip-path="url(#pf0448e9418)" d="M 530.175182 135.747319 
L 533.398412 132.647192 
L 533.944576 137.085852 
L 530.175182 135.747319 
z
" style="stroke:#000000;stroke-linecap:round;"/>
   </g>
   <g id="patch_39">
    <path clip-path="url(#pf0448e9418)" d="M 526.849785 303.211197 
Q 461.655758 256.601844 397.371235 210.642725 
" style="fill:none;stroke:#000000;stroke-linecap:round;"/>
    <path clip-path="url(#pf0448e9418)" d="M 399.461999 214.596041 
L 397.371235 210.642725 
L 401.788346 211.342103 
L 399.461999 214.596041 
z
" style="stroke:#000000;stroke-linecap:round;"/>
   </g>
   <g id="patch_40">
    <path clip-path="url(#pf0448e9418)" d="M 527.548815 314.142884 
Q 452.076921 384.281696 377.424003 453.659405 
" style="fill:none;stroke:#000000;stroke-linecap:round;"/>
    <path clip-path="url(#pf0448e9418)" d="M 381.715562 452.401424 
L 377.424003 453.659405 
L 378.992554 449.471369 
L 381.715562 452.401424 
z
" style="stroke:#000000;stroke-linecap:round;"/>
   </g>
   <g id="patch_41">
    <path clip-path="url(#pf0448e9418)" d="M 526.741258 313.131874 
Q 478.541973 346.053949 431.265913 378.345424 
" style="fill:none;stroke:#000000;stroke-linecap:round;"/>
    <path clip-path="url(#pf0448e9418)" d="M 435.696993 377.740835 
L 431.265913 378.345424 
L 433.44089 374.437807 
L 435.696993 377.740835 
z
" style="stroke:#000000;stroke-linecap:round;"/>
   </g>
   <g id="patch_42">
    <path clip-path="url(#pf0448e9418)" d="M 540.49964 302.642985 
Q 603.613113 249.107811 665.873971 196.295858 
" style="fill:none;stroke:#000000;stroke-linecap:round;"/>
    <path clip-path="url(#pf0448e9418)" d="M 661.529827 197.358123 
L 665.873971 196.295858 
L 664.117296 200.408532 
L 661.529827 197.358123 
z
" style="stroke:#000000;stroke-linecap:round;"/>
   </g>
   <g id="patch_43">
    <path clip-path="url(#pf0448e9418)" d="M 539.346587 301.519416 
Q 588.859344 240.439497 637.66806 180.228098 
" style="fill:none;stroke:#000000;stroke-linecap:round;"/>
    <path clip-path="url(#pf0448e9418)" d="M 633.595551 182.07598 
L 637.66806 180.228098 
L 636.70286 184.594834 
L 633.595551 182.07598 
z
" style="stroke:#000000;stroke-linecap:round;"/>
   </g>
   <g id="patch_44">
    <path clip-path="url(#pf0448e9418)" d="M 540.651117 313.666457 
Q 599.546641 360.899307 657.56997 407.432675 
" style="fill:none;stroke:#000000;stroke-linecap:round;"/>
    <path clip-path="url(#pf0448e9418)" d="M 655.700776 403.369903 
L 657.56997 407.432675 
L 653.198236 406.490367 
L 655.700776 403.369903 
z
" style="stroke:#000000;stroke-linecap:round;"/>
   </g>
   <g id="patch_45">
    <path clip-path="url(#pf0448e9418)" d="M 556.830274 330.558199 
Q 467.100279 392.964896 378.288152 454.733221 
" style="fill:none;stroke:#000000;stroke-linecap:round;"/>
    <path clip-path="url(#pf0448e9418)" d="M 382.71397 454.091245 
L 378.288152 454.733221 
L 380.430062 450.807381 
L 382.71397 454.091245 
z
" style="stroke:#000000;stroke-linecap:round;"/>
   </g>
   <g id="patch_46">
    <path clip-path="url(#pf0448e9418)" d="M 555.935649 328.926554 
Q 493.563921 354.738099 432.22526 380.122126 
" style="fill:none;stroke:#000000;stroke-linecap:round;"/>
    <path clip-path="url(#pf0448e9418)" d="M 436.686042 380.440596 
L 432.22526 380.122126 
L 435.156505 376.744582 
L 436.686042 380.440596 
z
" style="stroke:#000000;stroke-linecap:round;"/>
   </g>
   <g id="patch_47">
    <path clip-path="url(#pf0448e9418)" d="M 569.374345 318.873752 
Q 618.635165 257.791981 667.194126 197.580494 
" style="fill:none;stroke:#000000;stroke-linecap:round;"/>
    <path clip-path="url(#pf0448e9418)" d="M 663.126266 199.438587 
L 667.194126 197.580494 
L 666.239885 201.949638 
L 663.126266 199.438587 
z
" style="stroke:#000000;stroke-linecap:round;"/>
   </g>
   <g id="patch_48">
    <path clip-path="url(#pf0448e9418)" d="M 567.946958 317.937393 
Q 603.88169 249.123558 639.298896 181.300768 
" style="fill:none;stroke:#000000;stroke-linecap:round;"/>
    <path clip-path="url(#pf0448e9418)" d="M 635.674509 183.920657 
L 639.298896 181.300768 
L 639.220175 185.772211 
L 635.674509 183.920657 
z
" style="stroke:#000000;stroke-linecap:round;"/>
   </g>
   <g id="patch_49">
    <path clip-path="url(#pf0448e9418)" d="M 570.479553 331.296064 
Q 614.567256 369.582167 657.810802 407.135197 
" style="fill:none;stroke:#000000;stroke-linecap:round;"/>
    <path clip-path="url(#pf0448e9418)" d="M 656.102011 403.002398 
L 657.810802 407.135197 
L 653.479287 406.02255 
L 656.102011 403.002398 
z
" style="stroke:#000000;stroke-linecap:round;"/>
   </g>
   <g id="patch_50">
    <path clip-path="url(#pf0448e9418)" d="M 328.837488 286.436869 
Q 288.648333 222.084888 249.051409 158.681202 
" style="fill:none;stroke:#000000;stroke-linecap:round;"/>
    <path clip-path="url(#pf0448e9418)" d="M 249.473874 163.133339 
L 249.051409 158.681202 
L 252.866597 161.014512 
L 249.473874 163.133339 
z
" style="stroke:#000000;stroke-linecap:round;"/>
   </g>
   <g id="patch_51">
    <path clip-path="url(#pf0448e9418)" d="M 463.445448 160.187204 
Q 357.985933 155.480828 253.64334 150.824297 
" style="fill:none;stroke:#000000;stroke-linecap:round;"/>
    <path clip-path="url(#pf0448e9418)" d="M 257.550197 153.00064 
L 253.64334 150.824297 
L 257.728529 149.004617 
L 257.550197 153.00064 
z
" style="stroke:#000000;stroke-linecap:round;"/>
   </g>
   <g id="patch_52">
    <path clip-path="url(#pf0448e9418)" d="M 599.138372 295.835783 
Q 639.460278 335.124473 678.981422 373.632919 
" style="fill:none;stroke:#000000;stroke-linecap:round;"/>
    <path clip-path="url(#pf0448e9418)" d="M 677.51227 369.408988 
L 678.981422 373.632919 
L 674.720786 372.273882 
L 677.51227 369.408988 
z
" style="stroke:#000000;stroke-linecap:round;"/>
   </g>
   <g id="patch_53">
    <path clip-path="url(#pf0448e9418)" d="M 484.539844 412.419851 
Q 580.986068 397.117926 676.328069 381.991195 
" style="fill:none;stroke:#000000;stroke-linecap:round;"/>
    <path clip-path="url(#pf0448e9418)" d="M 672.064087 380.642692 
L 676.328069 381.991195 
L 672.690878 384.593279 
L 672.064087 380.642692 
z
" style="stroke:#000000;stroke-linecap:round;"/>
   </g>
   <g id="patch_54">
    <path clip-path="url(#pf0448e9418)" d="M 354.424162 245.484605 
Q 317.13198 233.979867 280.908148 222.804717 
" style="fill:none;stroke:#000000;stroke-linecap:round;"/>
    <path clip-path="url(#pf0448e9418)" d="M 284.140806 225.895012 
L 280.908148 222.804717 
L 285.319978 222.072768 
L 284.140806 225.895012 
z
" style="stroke:#000000;stroke-linecap:round;"/>
   </g>
   <g id="patch_55">
    <path clip-path="url(#pf0448e9418)" d="M 354.133952 246.764759 
Q 350.23792 246.18591 347.447782 245.771368 
" style="fill:none;stroke:#000000;stroke-linecap:round;"/>
    <path clip-path="url(#pf0448e9418)" d="M 351.11043 248.337496 
L 347.447782 245.771368 
L 351.698273 244.380926 
L 351.11043 248.337496 
z
" style="stroke:#000000;stroke-linecap:round;"/>
   </g>
   <g id="patch_56">
    <path clip-path="url(#pf0448e9418)" d="M 360.117131 239.772941 
Q 350.43034 208.758112 341.076864 178.810476 
" style="fill:none;stroke:#000000;stroke-linecap:round;"/>
    <path clip-path="url(#pf0448e9418)" d="M 340.360311 183.224833 
L 341.076864 178.810476 
L 344.178418 182.032333 
L 340.360311 183.224833 
z
" style="stroke:#000000;stroke-linecap:round;"/>
   </g>
   <g id="patch_57">
    <path clip-path="url(#pf0448e9418)" d="M 324.816678 206.683253 
Q 302.391048 212.25817 281.050428 217.563359 
" style="fill:none;stroke:#000000;stroke-linecap:round;"/>
    <path clip-path="url(#pf0448e9418)" d="M 285.414783 218.539272 
L 281.050428 217.563359 
L 284.449771 214.657423 
L 285.414783 218.539272 
z
" style="stroke:#000000;stroke-linecap:round;"/>
   </g>
   <g id="patch_58">
    <path clip-path="url(#pf0448e9418)" d="M 334.205807 213.195191 
Q 335.497421 224.463713 336.661717 234.621474 
" style="fill:none;stroke:#000000;stroke-linecap:round;"/>
    <path clip-path="url(#pf0448e9418)" d="M 338.193204 230.419742 
L 336.661717 234.621474 
L 334.219224 230.875245 
L 338.193204 230.419742 
z
" style="stroke:#000000;stroke-linecap:round;"/>
   </g>
   <g id="patch_59">
    <path clip-path="url(#pf0448e9418)" d="M 334.426918 196.015973 
Q 335.690751 187.033527 336.798811 179.158211 
" style="fill:none;stroke:#000000;stroke-linecap:round;"/>
    <path clip-path="url(#pf0448e9418)" d="M 334.261007 182.84054 
L 336.798811 179.158211 
L 338.221992 183.397852 
L 334.261007 182.84054 
z
" style="stroke:#000000;stroke-linecap:round;"/>
   </g>
   <g id="patch_60">
    <path clip-path="url(#pf0448e9418)" d="M 381.953647 243.377727 
Q 330.994808 232.549911 281.129588 221.954469 
" style="fill:none;stroke:#000000;stroke-linecap:round;"/>
    <path clip-path="url(#pf0448e9418)" d="M 284.626555 224.74216 
L 281.129588 221.954469 
L 285.457921 220.82951 
L 284.626555 224.74216 
z
" style="stroke:#000000;stroke-linecap:round;"/>
   </g>
   <g id="patch_61">
    <path clip-path="url(#pf0448e9418)" d="M 381.763318 245.038713 
Q 364.098457 244.755813 347.551487 244.490816 
" style="fill:none;stroke:#000000;stroke-linecap:round;"/>
    <path clip-path="url(#pf0448e9418)" d="M 351.518949 246.55461 
L 347.551487 244.490816 
L 351.583 242.555123 
L 351.518949 246.55461 
z
" style="stroke:#000000;stroke-linecap:round;"/>
   </g>
   <g id="patch_62">
    <path clip-path="url(#pf0448e9418)" d="M 385.503127 238.050292 
Q 364.291874 207.325662 343.715808 177.521105 
" style="fill:none;stroke:#000000;stroke-linecap:round;"/>
    <path clip-path="url(#pf0448e9418)" d="M 344.342448 181.949121 
L 343.715808 177.521105 
L 347.634204 179.676603 
L 344.342448 181.949121 
z
" style="stroke:#000000;stroke-linecap:round;"/>
   </g>
   <g id="patch_63">
    <path clip-path="url(#pf0448e9418)" d="M 522.16039 208.372126 
Q 613.443646 248.710879 703.704268 288.597723 
" style="fill:none;stroke:#000000;stroke-linecap:round;"/>
    <path clip-path="url(#pf0448e9418)" d="M 700.853985 285.151582 
L 703.704268 288.597723 
L 699.237186 288.810265 
L 700.853985 285.151582 
z
" style="stroke:#000000;stroke-linecap:round;"/>
   </g>
   <g id="patch_64">
    <path clip-path="url(#pf0448e9418)" d="M 505.840867 202.762896 
Q 398.195817 175.737861 291.635149 148.985067 
" style="fill:none;stroke:#000000;stroke-linecap:round;"/>
    <path clip-path="url(#pf0448e9418)" d="M 295.027751 151.89887 
L 291.635149 148.985067 
L 296.001753 148.019267 
L 295.027751 151.89887 
z
" style="stroke:#000000;stroke-linecap:round;"/>
   </g>
   <g id="patch_65">
    <path clip-path="url(#pf0448e9418)" d="M 495.492216 241.428632 
Q 599.853342 265.996584 703.126183 290.30834 
" style="fill:none;stroke:#000000;stroke-linecap:round;"/>
    <path clip-path="url(#pf0448e9418)" d="M 699.690915 287.444962 
L 703.126183 290.30834 
L 698.77432 291.338527 
L 699.690915 287.444962 
z
" style="stroke:#000000;stroke-linecap:round;"/>
   </g>
   <g id="patch_66">
    <path clip-path="url(#pf0448e9418)" d="M 479.173709 235.869985 
Q 384.60505 193.023352 291.054775 150.638122 
" style="fill:none;stroke:#000000;stroke-linecap:round;"/>
    <path clip-path="url(#pf0448e9418)" d="M 293.872873 154.110631 
L 291.054775 150.638122 
L 295.523641 150.467149 
L 293.872873 154.110631 
z
" style="stroke:#000000;stroke-linecap:round;"/>
   </g>
   <g id="patch_67">
    <path clip-path="url(#pf0448e9418)" d="M 292.61592 153.800242 
Q 254.760226 172.342952 217.908585 190.39385 
" style="fill:none;stroke:#000000;stroke-linecap:round;"/>
    <path clip-path="url(#pf0448e9418)" d="M 222.380572 190.430396 
L 217.908585 190.39385 
L 220.621014 186.838188 
L 222.380572 190.430396 
z
" style="stroke:#000000;stroke-linecap:round;"/>
   </g>
   <g id="patch_68">
    <path clip-path="url(#pf0448e9418)" d="M 229.883541 256.148633 
Q 220.890056 229.523749 212.254365 203.958102 
" style="fill:none;stroke:#000000;stroke-linecap:round;"/>
    <path clip-path="url(#pf0448e9418)" d="M 211.639628 208.387786 
L 212.254365 203.958102 
L 215.42927 207.107702 
L 211.639628 208.387786 
z
" style="stroke:#000000;stroke-linecap:round;"/>
   </g>
   <g id="patch_69">
    <path clip-path="url(#pf0448e9418)" d="M 262.914125 219.462301 
Q 225.717891 217.486148 189.638116 215.56931 
" style="fill:none;stroke:#000000;stroke-linecap:round;"/>
    <path clip-path="url(#pf0448e9418)" d="M 193.526377 217.778705 
L 189.638116 215.56931 
L 193.738589 213.784339 
L 193.526377 217.778705 
z
" style="stroke:#000000;stroke-linecap:round;"/>
   </g>
   <g id="patch_70">
    <path clip-path="url(#pf0448e9418)" d="M 276.105986 212.549689 
Q 302.691471 169.405057 328.690439 127.212263 
" style="fill:none;stroke:#000000;stroke-linecap:round;"/>
    <path clip-path="url(#pf0448e9418)" d="M 324.889348 129.56847 
L 328.690439 127.212263 
L 328.29475 131.666859 
L 324.889348 129.56847 
z
" style="stroke:#000000;stroke-linecap:round;"/>
   </g>
   <g id="patch_71">
    <path clip-path="url(#pf0448e9418)" d="M 329.260176 242.755132 
Q 258.82203 229.692058 189.483173 216.832852 
" style="fill:none;stroke:#000000;stroke-linecap:round;"/>
    <path clip-path="url(#pf0448e9418)" d="M 193.051421 219.528703 
L 189.483173 216.832852 
L 193.780802 215.595765 
L 193.051421 219.528703 
z
" style="stroke:#000000;stroke-linecap:round;"/>
   </g>
   <g id="patch_72">
    <path clip-path="url(#pf0448e9418)" d="M 337.502062 235.678485 
Q 335.797164 181.612318 334.127504 128.66363 
" style="fill:none;stroke:#000000;stroke-linecap:round;"/>
    <path clip-path="url(#pf0448e9418)" d="M 332.254569 132.724679 
L 334.127504 128.66363 
L 336.252582 132.598607 
L 332.254569 132.724679 
z
" style="stroke:#000000;stroke-linecap:round;"/>
   </g>
   <g id="patch_73">
    <path clip-path="url(#pf0448e9418)" d="M 329.840512 171.870968 
Q 259.01889 192.262242 189.271656 212.344174 
" style="fill:none;stroke:#000000;stroke-linecap:round;"/>
    <path clip-path="url(#pf0448e9418)" d="M 193.668868 213.15936 
L 189.271656 212.344174 
L 192.562131 209.315516 
L 193.668868 213.15936 
z
" style="stroke:#000000;stroke-linecap:round;"/>
   </g>
   <g id="patch_74">
    <path clip-path="url(#pf0448e9418)" d="M 337.420504 160.845542 
Q 335.990144 144.180925 334.655395 128.630247 
" style="fill:none;stroke:#000000;stroke-linecap:round;"/>
    <path clip-path="url(#pf0448e9418)" d="M 333.004793 132.786629 
L 334.655395 128.630247 
L 336.990139 132.444558 
L 333.004793 132.786629 
z
" style="stroke:#000000;stroke-linecap:round;"/>
   </g>
   <g id="PathCollection_1">
    <defs>
     <path d="M 0 8.660254 
C 2.296726 8.660254 4.499694 7.747755 6.123724 6.123724 
C 7.747755 4.499694 8.660254 2.296726 8.660254 -0 
C 8.660254 -2.296726 7.747755 -4.499694 6.123724 -6.123724 
C 4.499694 -7.747755 2.296726 -8.660254 0 -8.660254 
C -2.296726 -8.660254 -4.499694 -7.747755 -6.123724 -6.123724 
C -7.747755 -4.499694 -8.660254 -2.296726 -8.660254 0 
C -8.660254 2.296726 -7.747755 4.499694 -6.123724 6.123724 
C -4.499694 7.747755 -2.296726 8.660254 0 8.660254 
z
" id="C0_0_f41cce01cf"/>
    </defs>
    <g clip-path="url(#pf0448e9418)">
     <use style="fill:#ff0000;stroke:#ff0000;" x="712.647389" xlink:href="#C0_0_f41cce01cf" y="292.549754"/>
    </g>
    <g clip-path="url(#pf0448e9418)">
     <use style="fill:#ff0000;stroke:#ff0000;" x="318.861452" xlink:href="#C0_0_f41cce01cf" y="289.203113"/>
    </g>
    <g clip-path="url(#pf0448e9418)">
     <use style="fill:#ff0000;stroke:#ff0000;" x="295.608171" xlink:href="#C0_0_f41cce01cf" y="203.161898"/>
    </g>
    <g clip-path="url(#pf0448e9418)">
     <use style="fill:#ff0000;stroke:#ff0000;" x="443.201183" xlink:href="#C0_0_f41cce01cf" y="113.002874"/>
    </g>
    <g clip-path="url(#pf0448e9418)">
     <use style="fill:#ff0000;stroke:#ff0000;" x="238.19213" xlink:href="#C0_0_f41cce01cf" y="313.625238"/>
    </g>
    <g clip-path="url(#pf0448e9418)">
     <use style="fill:#ff0000;stroke:#ff0000;" x="243.872281" xlink:href="#C0_0_f41cce01cf" y="150.38824"/>
    </g>
    <g clip-path="url(#pf0448e9418)">
     <use style="fill:#ff0000;stroke:#ff0000;" x="543.637495" xlink:href="#C0_0_f41cce01cf" y="237.315555"/>
    </g>
    <g clip-path="url(#pf0448e9418)">
     <use style="fill:#ff0000;stroke:#ff0000;" x="600.27475" xlink:href="#C0_0_f41cce01cf" y="136.868778"/>
    </g>
    <g clip-path="url(#pf0448e9418)">
     <use style="fill:#ff0000;stroke:#ff0000;" x="603.804066" xlink:href="#C0_0_f41cce01cf" y="193.943267"/>
    </g>
    <g clip-path="url(#pf0448e9418)">
     <use style="fill:#ff0000;stroke:#ff0000;" x="690.573014" xlink:href="#C0_0_f41cce01cf" y="208.108443"/>
    </g>
    <g clip-path="url(#pf0448e9418)">
     <use style="fill:#ff0000;stroke:#ff0000;" x="370.261803" xlink:href="#C0_0_f41cce01cf" y="460.315502"/>
    </g>
    <g clip-path="url(#pf0448e9418)">
     <use style="fill:#ff0000;stroke:#ff0000;" x="423.191402" xlink:href="#C0_0_f41cce01cf" y="383.860644"/>
    </g>
    <g clip-path="url(#pf0448e9418)">
     <use style="fill:#ff0000;stroke:#ff0000;" x="209.249121" xlink:href="#C0_0_f41cce01cf" y="388.180789"/>
    </g>
    <g clip-path="url(#pf0448e9418)">
     <use style="fill:#008000;stroke:#008000;" x="487.021359" xlink:href="#C0_0_f41cce01cf" y="108.113144"/>
    </g>
    <g clip-path="url(#pf0448e9418)">
     <use style="fill:#ff0000;stroke:#ff0000;" x="248.324298" xlink:href="#C0_0_f41cce01cf" y="439.325529"/>
    </g>
    <g clip-path="url(#pf0448e9418)">
     <use style="fill:#ff0000;stroke:#ff0000;" x="389.417753" xlink:href="#C0_0_f41cce01cf" y="204.956519"/>
    </g>
    <g clip-path="url(#pf0448e9418)">
     <use style="fill:#ff0000;stroke:#ff0000;" x="464.317659" xlink:href="#C0_0_f41cce01cf" y="370.641299"/>
    </g>
    <g clip-path="url(#pf0448e9418)">
     <use style="fill:#ff0000;stroke:#ff0000;" x="357.023182" xlink:href="#C0_0_f41cce01cf" y="387.537963"/>
    </g>
    <g clip-path="url(#pf0448e9418)">
     <use style="fill:#ff0000;stroke:#ff0000;" x="448.900204" xlink:href="#C0_0_f41cce01cf" y="300.232468"/>
    </g>
    <g clip-path="url(#pf0448e9418)">
     <use style="fill:#ff0000;stroke:#ff0000;" x="719.494215" xlink:href="#C0_0_f41cce01cf" y="348.897648"/>
    </g>
    <g clip-path="url(#pf0448e9418)">
     <use style="fill:#ff0000;stroke:#ff0000;" x="227.803749" xlink:href="#C0_0_f41cce01cf" y="172.336714"/>
    </g>
    <g clip-path="url(#pf0448e9418)">
     <use style="fill:#ff0000;stroke:#ff0000;" x="297.80989" xlink:href="#C0_0_f41cce01cf" y="438.875693"/>
    </g>
    <g clip-path="url(#pf0448e9418)">
     <use style="fill:#ff0000;stroke:#ff0000;" x="487.559776" xlink:href="#C0_0_f41cce01cf" y="474.152727"/>
    </g>
    <g clip-path="url(#pf0448e9418)">
     <use style="fill:#ff0000;stroke:#ff0000;" x="319.912112" xlink:href="#C0_0_f41cce01cf" y="409.633121"/>
    </g>
    <g clip-path="url(#pf0448e9418)">
     <use style="fill:#ff0000;stroke:#ff0000;" x="174.596282" xlink:href="#C0_0_f41cce01cf" y="369.98377"/>
    </g>
    <g clip-path="url(#pf0448e9418)">
     <use style="fill:#ff0000;stroke:#ff0000;" x="609.237642" xlink:href="#C0_0_f41cce01cf" y="152.237399"/>
    </g>
    <g clip-path="url(#pf0448e9418)">
     <use style="fill:#ff0000;stroke:#ff0000;" x="436.021678" xlink:href="#C0_0_f41cce01cf" y="230.258079"/>
    </g>
    <g clip-path="url(#pf0448e9418)">
     <use style="fill:#ff0000;stroke:#ff0000;" x="282.150784" xlink:href="#C0_0_f41cce01cf" y="146.603952"/>
    </g>
    <g clip-path="url(#pf0448e9418)">
     <use style="fill:#ff0000;stroke:#ff0000;" x="687.461592" xlink:href="#C0_0_f41cce01cf" y="218.565777"/>
    </g>
    <g clip-path="url(#pf0448e9418)">
     <use style="fill:#008000;stroke:#008000;" x="172.535866" xlink:href="#C0_0_f41cce01cf" y="271.536802"/>
    </g>
    <g clip-path="url(#pf0448e9418)">
     <use style="fill:#008000;stroke:#008000;" x="471.505074" xlink:href="#C0_0_f41cce01cf" y="306.942736"/>
    </g>
    <g clip-path="url(#pf0448e9418)">
     <use style="fill:#ff0000;stroke:#ff0000;" x="418.262518" xlink:href="#C0_0_f41cce01cf" y="469.924415"/>
    </g>
    <g clip-path="url(#pf0448e9418)">
     <use style="fill:#ff0000;stroke:#ff0000;" x="533.893228" xlink:href="#C0_0_f41cce01cf" y="308.246787"/>
    </g>
    <g clip-path="url(#pf0448e9418)">
     <use style="fill:#ff0000;stroke:#ff0000;" x="166.105785" xlink:href="#C0_0_f41cce01cf" y="336.52837"/>
    </g>
    <g clip-path="url(#pf0448e9418)">
     <use style="fill:#ff0000;stroke:#ff0000;" x="563.937672" xlink:href="#C0_0_f41cce01cf" y="325.615044"/>
    </g>
    <g clip-path="url(#pf0448e9418)">
     <use style="fill:#ff0000;stroke:#ff0000;" x="685.986778" xlink:href="#C0_0_f41cce01cf" y="380.458768"/>
    </g>
    <g clip-path="url(#pf0448e9418)">
     <use style="fill:#ff0000;stroke:#ff0000;" x="673.332133" xlink:href="#C0_0_f41cce01cf" y="189.96957"/>
    </g>
    <g clip-path="url(#pf0448e9418)">
     <use style="fill:#ff0000;stroke:#ff0000;" x="643.825958" xlink:href="#C0_0_f41cce01cf" y="172.631593"/>
    </g>
    <g clip-path="url(#pf0448e9418)">
     <use style="fill:#ff0000;stroke:#ff0000;" x="665.196214" xlink:href="#C0_0_f41cce01cf" y="413.548747"/>
    </g>
    <g clip-path="url(#pf0448e9418)">
     <use style="fill:#ff0000;stroke:#ff0000;" x="333.424699" xlink:href="#C0_0_f41cce01cf" y="293.782038"/>
    </g>
    <g clip-path="url(#pf0448e9418)">
     <use style="fill:#ff0000;stroke:#ff0000;" x="472.099384" xlink:href="#C0_0_f41cce01cf" y="160.573406"/>
    </g>
    <g clip-path="url(#pf0448e9418)">
     <use style="fill:#ff0000;stroke:#ff0000;" x="592.933494" xlink:href="#C0_0_f41cce01cf" y="289.789901"/>
    </g>
    <g clip-path="url(#pf0448e9418)">
     <use style="fill:#ff0000;stroke:#ff0000;" x="475.987474" xlink:href="#C0_0_f41cce01cf" y="413.776749"/>
    </g>
    <g clip-path="url(#pf0448e9418)">
     <use style="fill:#ff0000;stroke:#ff0000;" x="612.477489" xlink:href="#C0_0_f41cce01cf" y="450.124637"/>
    </g>
    <g clip-path="url(#pf0448e9418)">
     <use style="fill:#ff0000;stroke:#ff0000;" x="398.316452" xlink:href="#C0_0_f41cce01cf" y="107.607273"/>
    </g>
    <g clip-path="url(#pf0448e9418)">
     <use style="fill:#ff0000;stroke:#ff0000;" x="362.698286" xlink:href="#C0_0_f41cce01cf" y="248.037195"/>
    </g>
    <g clip-path="url(#pf0448e9418)">
     <use style="fill:#ff0000;stroke:#ff0000;" x="333.219953" xlink:href="#C0_0_f41cce01cf" y="204.594234"/>
    </g>
    <g clip-path="url(#pf0448e9418)">
     <use style="fill:#ff0000;stroke:#ff0000;" x="390.423446" xlink:href="#C0_0_f41cce01cf" y="245.177403"/>
    </g>
    <g clip-path="url(#pf0448e9418)">
     <use style="fill:#ff0000;stroke:#ff0000;" x="514.237434" xlink:href="#C0_0_f41cce01cf" y="204.870913"/>
    </g>
    <g clip-path="url(#pf0448e9418)">
     <use style="fill:#ff0000;stroke:#ff0000;" x="487.062381" xlink:href="#C0_0_f41cce01cf" y="239.44414"/>
    </g>
    <g clip-path="url(#pf0448e9418)">
     <use style="fill:#ff0000;stroke:#ff0000;" x="209.125738" xlink:href="#C0_0_f41cce01cf" y="194.695918"/>
    </g>
    <g clip-path="url(#pf0448e9418)">
     <use style="fill:#ff0000;stroke:#ff0000;" x="300.395339" xlink:href="#C0_0_f41cce01cf" y="149.98968"/>
    </g>
    <g clip-path="url(#pf0448e9418)">
     <use style="fill:#ff0000;stroke:#ff0000;" x="232.653641" xlink:href="#C0_0_f41cce01cf" y="264.349414"/>
    </g>
    <g clip-path="url(#pf0448e9418)">
     <use style="fill:#ff0000;stroke:#ff0000;" x="271.563323" xlink:href="#C0_0_f41cce01cf" y="219.921814"/>
    </g>
    <g clip-path="url(#pf0448e9418)">
     <use style="fill:#ff0000;stroke:#ff0000;" x="337.775009" xlink:href="#C0_0_f41cce01cf" y="244.334247"/>
    </g>
    <g clip-path="url(#pf0448e9418)">
     <use style="fill:#ff0000;stroke:#ff0000;" x="338.16121" xlink:href="#C0_0_f41cce01cf" y="169.475236"/>
    </g>
    <g clip-path="url(#pf0448e9418)">
     <use style="fill:#ff0000;stroke:#ff0000;" x="179.872313" xlink:href="#C0_0_f41cce01cf" y="215.050475"/>
    </g>
    <g clip-path="url(#pf0448e9418)">
     <use style="fill:#ff0000;stroke:#ff0000;" x="333.819271" xlink:href="#C0_0_f41cce01cf" y="118.888865"/>
    </g>
    <g clip-path="url(#pf0448e9418)">
     <use style="fill:#008000;stroke:#008000;" x="555.577777" xlink:href="#C0_0_f41cce01cf" y="466.207141"/>
    </g>
    <g clip-path="url(#pf0448e9418)">
     <use style="fill:#008000;stroke:#008000;" x="616.771942" xlink:href="#C0_0_f41cce01cf" y="422.743529"/>
    </g>
    <g clip-path="url(#pf0448e9418)">
     <use style="fill:#008000;stroke:#008000;" x="192.268667" xlink:href="#C0_0_f41cce01cf" y="236.006973"/>
    </g>
    <g clip-path="url(#pf0448e9418)">
     <use style="fill:#008000;stroke:#008000;" x="536.671392" xlink:href="#C0_0_f41cce01cf" y="123.430274"/>
    </g>
   </g>
   <g id="text_1">
    <g clip-path="url(#pf0448e9418)">
     <!-- TNF -->
     <g transform="translate(701.043014 295.861004)scale(0.12 -0.12)">
      <defs>
       <path d="M -0.296875 72.90625 
L 61.375 72.90625 
L 61.375 64.59375 
L 35.5 64.59375 
L 35.5 0 
L 25.59375 0 
L 25.59375 64.59375 
L -0.296875 64.59375 
z
" id="DejaVuSans-84"/>
       <path d="M 9.8125 72.90625 
L 23.09375 72.90625 
L 55.421875 11.921875 
L 55.421875 72.90625 
L 64.984375 72.90625 
L 64.984375 0 
L 51.703125 0 
L 19.390625 60.984375 
L 19.390625 0 
L 9.8125 0 
z
" id="DejaVuSans-78"/>
       <path d="M 9.8125 72.90625 
L 51.703125 72.90625 
L 51.703125 64.59375 
L 19.671875 64.59375 
L 19.671875 43.109375 
L 48.578125 43.109375 
L 48.578125 34.8125 
L 19.671875 34.8125 
L 19.671875 0 
L 9.8125 0 
z
" id="DejaVuSans-70"/>
      </defs>
      <use xlink:href="#DejaVuSans-84"/>
      <use x="61.083984" xlink:href="#DejaVuSans-78"/>
      <use x="135.888672" xlink:href="#DejaVuSans-70"/>
     </g>
    </g>
   </g>
   <g id="text_2">
    <g clip-path="url(#pf0448e9418)">
     <!-- APP -->
     <g transform="translate(307.521452 292.514363)scale(0.12 -0.12)">
      <defs>
       <path d="M 34.1875 63.1875 
L 20.796875 26.90625 
L 47.609375 26.90625 
z
M 28.609375 72.90625 
L 39.796875 72.90625 
L 67.578125 0 
L 57.328125 0 
L 50.6875 18.703125 
L 17.828125 18.703125 
L 11.1875 0 
L 0.78125 0 
z
" id="DejaVuSans-65"/>
       <path d="M 19.671875 64.796875 
L 19.671875 37.40625 
L 32.078125 37.40625 
Q 38.96875 37.40625 42.71875 40.96875 
Q 46.484375 44.53125 46.484375 51.125 
Q 46.484375 57.671875 42.71875 61.234375 
Q 38.96875 64.796875 32.078125 64.796875 
z
M 9.8125 72.90625 
L 32.078125 72.90625 
Q 44.34375 72.90625 50.609375 67.359375 
Q 56.890625 61.8125 56.890625 51.125 
Q 56.890625 40.328125 50.609375 34.8125 
Q 44.34375 29.296875 32.078125 29.296875 
L 19.671875 29.296875 
L 19.671875 0 
L 9.8125 0 
z
" id="DejaVuSans-80"/>
      </defs>
      <use xlink:href="#DejaVuSans-65"/>
      <use x="68.408203" xlink:href="#DejaVuSans-80"/>
      <use x="128.710938" xlink:href="#DejaVuSans-80"/>
     </g>
    </g>
   </g>
   <g id="text_3">
    <g clip-path="url(#pf0448e9418)">
     <!-- CASP9 -->
     <g transform="translate(276.069734 206.473148)scale(0.12 -0.12)">
      <defs>
       <path d="M 64.40625 67.28125 
L 64.40625 56.890625 
Q 59.421875 61.53125 53.78125 63.8125 
Q 48.140625 66.109375 41.796875 66.109375 
Q 29.296875 66.109375 22.65625 58.46875 
Q 16.015625 50.828125 16.015625 36.375 
Q 16.015625 21.96875 22.65625 14.328125 
Q 29.296875 6.6875 41.796875 6.6875 
Q 48.140625 6.6875 53.78125 8.984375 
Q 59.421875 11.28125 64.40625 15.921875 
L 64.40625 5.609375 
Q 59.234375 2.09375 53.4375 0.328125 
Q 47.65625 -1.421875 41.21875 -1.421875 
Q 24.65625 -1.421875 15.125 8.703125 
Q 5.609375 18.84375 5.609375 36.375 
Q 5.609375 53.953125 15.125 64.078125 
Q 24.65625 74.21875 41.21875 74.21875 
Q 47.75 74.21875 53.53125 72.484375 
Q 59.328125 70.75 64.40625 67.28125 
z
" id="DejaVuSans-67"/>
       <path d="M 53.515625 70.515625 
L 53.515625 60.890625 
Q 47.90625 63.578125 42.921875 64.890625 
Q 37.9375 66.21875 33.296875 66.21875 
Q 25.25 66.21875 20.875 63.09375 
Q 16.5 59.96875 16.5 54.203125 
Q 16.5 49.359375 19.40625 46.890625 
Q 22.3125 44.4375 30.421875 42.921875 
L 36.375 41.703125 
Q 47.40625 39.59375 52.65625 34.296875 
Q 57.90625 29 57.90625 20.125 
Q 57.90625 9.515625 50.796875 4.046875 
Q 43.703125 -1.421875 29.984375 -1.421875 
Q 24.8125 -1.421875 18.96875 -0.25 
Q 13.140625 0.921875 6.890625 3.21875 
L 6.890625 13.375 
Q 12.890625 10.015625 18.65625 8.296875 
Q 24.421875 6.59375 29.984375 6.59375 
Q 38.421875 6.59375 43.015625 9.90625 
Q 47.609375 13.234375 47.609375 19.390625 
Q 47.609375 24.75 44.3125 27.78125 
Q 41.015625 30.8125 33.5 32.328125 
L 27.484375 33.5 
Q 16.453125 35.6875 11.515625 40.375 
Q 6.59375 45.0625 6.59375 53.421875 
Q 6.59375 63.09375 13.40625 68.65625 
Q 20.21875 74.21875 32.171875 74.21875 
Q 37.3125 74.21875 42.625 73.28125 
Q 47.953125 72.359375 53.515625 70.515625 
z
" id="DejaVuSans-83"/>
       <path d="M 10.984375 1.515625 
L 10.984375 10.5 
Q 14.703125 8.734375 18.5 7.8125 
Q 22.3125 6.890625 25.984375 6.890625 
Q 35.75 6.890625 40.890625 13.453125 
Q 46.046875 20.015625 46.78125 33.40625 
Q 43.953125 29.203125 39.59375 26.953125 
Q 35.25 24.703125 29.984375 24.703125 
Q 19.046875 24.703125 12.671875 31.3125 
Q 6.296875 37.9375 6.296875 49.421875 
Q 6.296875 60.640625 12.9375 67.421875 
Q 19.578125 74.21875 30.609375 74.21875 
Q 43.265625 74.21875 49.921875 64.515625 
Q 56.59375 54.828125 56.59375 36.375 
Q 56.59375 19.140625 48.40625 8.859375 
Q 40.234375 -1.421875 26.421875 -1.421875 
Q 22.703125 -1.421875 18.890625 -0.6875 
Q 15.09375 0.046875 10.984375 1.515625 
z
M 30.609375 32.421875 
Q 37.25 32.421875 41.125 36.953125 
Q 45.015625 41.5 45.015625 49.421875 
Q 45.015625 57.28125 41.125 61.84375 
Q 37.25 66.40625 30.609375 66.40625 
Q 23.96875 66.40625 20.09375 61.84375 
Q 16.21875 57.28125 16.21875 49.421875 
Q 16.21875 41.5 20.09375 36.953125 
Q 23.96875 32.421875 30.609375 32.421875 
z
" id="DejaVuSans-57"/>
      </defs>
      <use xlink:href="#DejaVuSans-67"/>
      <use x="69.824219" xlink:href="#DejaVuSans-65"/>
      <use x="138.232422" xlink:href="#DejaVuSans-83"/>
      <use x="201.708984" xlink:href="#DejaVuSans-80"/>
      <use x="262.011719" xlink:href="#DejaVuSans-57"/>
     </g>
    </g>
   </g>
   <g id="text_4">
    <g clip-path="url(#pf0448e9418)">
     <!-- CASP3 -->
     <g transform="translate(423.662746 116.314124)scale(0.12 -0.12)">
      <defs>
       <path d="M 40.578125 39.3125 
Q 47.65625 37.796875 51.625 33 
Q 55.609375 28.21875 55.609375 21.1875 
Q 55.609375 10.40625 48.1875 4.484375 
Q 40.765625 -1.421875 27.09375 -1.421875 
Q 22.515625 -1.421875 17.65625 -0.515625 
Q 12.796875 0.390625 7.625 2.203125 
L 7.625 11.71875 
Q 11.71875 9.328125 16.59375 8.109375 
Q 21.484375 6.890625 26.8125 6.890625 
Q 36.078125 6.890625 40.9375 10.546875 
Q 45.796875 14.203125 45.796875 21.1875 
Q 45.796875 27.640625 41.28125 31.265625 
Q 36.765625 34.90625 28.71875 34.90625 
L 20.21875 34.90625 
L 20.21875 43.015625 
L 29.109375 43.015625 
Q 36.375 43.015625 40.234375 45.921875 
Q 44.09375 48.828125 44.09375 54.296875 
Q 44.09375 59.90625 40.109375 62.90625 
Q 36.140625 65.921875 28.71875 65.921875 
Q 24.65625 65.921875 20.015625 65.03125 
Q 15.375 64.15625 9.8125 62.3125 
L 9.8125 71.09375 
Q 15.4375 72.65625 20.34375 73.4375 
Q 25.25 74.21875 29.59375 74.21875 
Q 40.828125 74.21875 47.359375 69.109375 
Q 53.90625 64.015625 53.90625 55.328125 
Q 53.90625 49.265625 50.4375 45.09375 
Q 46.96875 40.921875 40.578125 39.3125 
z
" id="DejaVuSans-51"/>
      </defs>
      <use xlink:href="#DejaVuSans-67"/>
      <use x="69.824219" xlink:href="#DejaVuSans-65"/>
      <use x="138.232422" xlink:href="#DejaVuSans-83"/>
      <use x="201.708984" xlink:href="#DejaVuSans-80"/>
      <use x="262.011719" xlink:href="#DejaVuSans-51"/>
     </g>
    </g>
   </g>
   <g id="text_5">
    <g clip-path="url(#pf0448e9418)">
     <!-- APAF1 -->
     <g transform="translate(219.47963 316.936488)scale(0.12 -0.12)">
      <defs>
       <path d="M 12.40625 8.296875 
L 28.515625 8.296875 
L 28.515625 63.921875 
L 10.984375 60.40625 
L 10.984375 69.390625 
L 28.421875 72.90625 
L 38.28125 72.90625 
L 38.28125 8.296875 
L 54.390625 8.296875 
L 54.390625 0 
L 12.40625 0 
z
" id="DejaVuSans-49"/>
      </defs>
      <use xlink:href="#DejaVuSans-65"/>
      <use x="68.408203" xlink:href="#DejaVuSans-80"/>
      <use x="122.335938" xlink:href="#DejaVuSans-65"/>
      <use x="190.744141" xlink:href="#DejaVuSans-70"/>
      <use x="248.263672" xlink:href="#DejaVuSans-49"/>
     </g>
    </g>
   </g>
   <g id="text_6">
    <g clip-path="url(#pf0448e9418)">
     <!-- CDK5R1 -->
     <g transform="translate(219.323844 153.69949)scale(0.12 -0.12)">
      <defs>
       <path d="M 19.671875 64.796875 
L 19.671875 8.109375 
L 31.59375 8.109375 
Q 46.6875 8.109375 53.6875 14.9375 
Q 60.6875 21.78125 60.6875 36.53125 
Q 60.6875 51.171875 53.6875 57.984375 
Q 46.6875 64.796875 31.59375 64.796875 
z
M 9.8125 72.90625 
L 30.078125 72.90625 
Q 51.265625 72.90625 61.171875 64.09375 
Q 71.09375 55.28125 71.09375 36.53125 
Q 71.09375 17.671875 61.125 8.828125 
Q 51.171875 0 30.078125 0 
L 9.8125 0 
z
" id="DejaVuSans-68"/>
       <path d="M 9.8125 72.90625 
L 19.671875 72.90625 
L 19.671875 42.09375 
L 52.390625 72.90625 
L 65.09375 72.90625 
L 28.90625 38.921875 
L 67.671875 0 
L 54.6875 0 
L 19.671875 35.109375 
L 19.671875 0 
L 9.8125 0 
z
" id="DejaVuSans-75"/>
       <path d="M 10.796875 72.90625 
L 49.515625 72.90625 
L 49.515625 64.59375 
L 19.828125 64.59375 
L 19.828125 46.734375 
Q 21.96875 47.46875 24.109375 47.828125 
Q 26.265625 48.1875 28.421875 48.1875 
Q 40.625 48.1875 47.75 41.5 
Q 54.890625 34.8125 54.890625 23.390625 
Q 54.890625 11.625 47.5625 5.09375 
Q 40.234375 -1.421875 26.90625 -1.421875 
Q 22.3125 -1.421875 17.546875 -0.640625 
Q 12.796875 0.140625 7.71875 1.703125 
L 7.71875 11.625 
Q 12.109375 9.234375 16.796875 8.0625 
Q 21.484375 6.890625 26.703125 6.890625 
Q 35.15625 6.890625 40.078125 11.328125 
Q 45.015625 15.765625 45.015625 23.390625 
Q 45.015625 31 40.078125 35.4375 
Q 35.15625 39.890625 26.703125 39.890625 
Q 22.75 39.890625 18.8125 39.015625 
Q 14.890625 38.140625 10.796875 36.28125 
z
" id="DejaVuSans-53"/>
       <path d="M 44.390625 34.1875 
Q 47.5625 33.109375 50.5625 29.59375 
Q 53.5625 26.078125 56.59375 19.921875 
L 66.609375 0 
L 56 0 
L 46.6875 18.703125 
Q 43.0625 26.03125 39.671875 28.421875 
Q 36.28125 30.8125 30.421875 30.8125 
L 19.671875 30.8125 
L 19.671875 0 
L 9.8125 0 
L 9.8125 72.90625 
L 32.078125 72.90625 
Q 44.578125 72.90625 50.734375 67.671875 
Q 56.890625 62.453125 56.890625 51.90625 
Q 56.890625 45.015625 53.6875 40.46875 
Q 50.484375 35.9375 44.390625 34.1875 
z
M 19.671875 64.796875 
L 19.671875 38.921875 
L 32.078125 38.921875 
Q 39.203125 38.921875 42.84375 42.21875 
Q 46.484375 45.515625 46.484375 51.90625 
Q 46.484375 58.296875 42.84375 61.546875 
Q 39.203125 64.796875 32.078125 64.796875 
z
" id="DejaVuSans-82"/>
      </defs>
      <use xlink:href="#DejaVuSans-67"/>
      <use x="69.824219" xlink:href="#DejaVuSans-68"/>
      <use x="146.826172" xlink:href="#DejaVuSans-75"/>
      <use x="212.402344" xlink:href="#DejaVuSans-53"/>
      <use x="276.025391" xlink:href="#DejaVuSans-82"/>
      <use x="345.507812" xlink:href="#DejaVuSans-49"/>
     </g>
    </g>
   </g>
   <g id="text_7">
    <g clip-path="url(#pf0448e9418)">
     <!-- CDK5 -->
     <g transform="translate(527.07562 240.626805)scale(0.12 -0.12)">
      <use xlink:href="#DejaVuSans-67"/>
      <use x="69.824219" xlink:href="#DejaVuSans-68"/>
      <use x="146.826172" xlink:href="#DejaVuSans-75"/>
      <use x="212.402344" xlink:href="#DejaVuSans-53"/>
     </g>
    </g>
   </g>
   <g id="text_8">
    <g clip-path="url(#pf0448e9418)">
     <!-- FADD -->
     <g transform="translate(584.026937 140.180028)scale(0.12 -0.12)">
      <use xlink:href="#DejaVuSans-70"/>
      <use x="48.394531" xlink:href="#DejaVuSans-65"/>
      <use x="116.802734" xlink:href="#DejaVuSans-68"/>
      <use x="193.804688" xlink:href="#DejaVuSans-68"/>
     </g>
    </g>
   </g>
   <g id="text_9">
    <g clip-path="url(#pf0448e9418)">
     <!-- CASP8 -->
     <g transform="translate(584.265629 197.254517)scale(0.12 -0.12)">
      <defs>
       <path d="M 31.78125 34.625 
Q 24.75 34.625 20.71875 30.859375 
Q 16.703125 27.09375 16.703125 20.515625 
Q 16.703125 13.921875 20.71875 10.15625 
Q 24.75 6.390625 31.78125 6.390625 
Q 38.8125 6.390625 42.859375 10.171875 
Q 46.921875 13.96875 46.921875 20.515625 
Q 46.921875 27.09375 42.890625 30.859375 
Q 38.875 34.625 31.78125 34.625 
z
M 21.921875 38.8125 
Q 15.578125 40.375 12.03125 44.71875 
Q 8.5 49.078125 8.5 55.328125 
Q 8.5 64.0625 14.71875 69.140625 
Q 20.953125 74.21875 31.78125 74.21875 
Q 42.671875 74.21875 48.875 69.140625 
Q 55.078125 64.0625 55.078125 55.328125 
Q 55.078125 49.078125 51.53125 44.71875 
Q 48 40.375 41.703125 38.8125 
Q 48.828125 37.15625 52.796875 32.3125 
Q 56.78125 27.484375 56.78125 20.515625 
Q 56.78125 9.90625 50.3125 4.234375 
Q 43.84375 -1.421875 31.78125 -1.421875 
Q 19.734375 -1.421875 13.25 4.234375 
Q 6.78125 9.90625 6.78125 20.515625 
Q 6.78125 27.484375 10.78125 32.3125 
Q 14.796875 37.15625 21.921875 38.8125 
z
M 18.3125 54.390625 
Q 18.3125 48.734375 21.84375 45.5625 
Q 25.390625 42.390625 31.78125 42.390625 
Q 38.140625 42.390625 41.71875 45.5625 
Q 45.3125 48.734375 45.3125 54.390625 
Q 45.3125 60.0625 41.71875 63.234375 
Q 38.140625 66.40625 31.78125 66.40625 
Q 25.390625 66.40625 21.84375 63.234375 
Q 18.3125 60.0625 18.3125 54.390625 
z
" id="DejaVuSans-56"/>
      </defs>
      <use xlink:href="#DejaVuSans-67"/>
      <use x="69.824219" xlink:href="#DejaVuSans-65"/>
      <use x="138.232422" xlink:href="#DejaVuSans-83"/>
      <use x="201.708984" xlink:href="#DejaVuSans-80"/>
      <use x="262.011719" xlink:href="#DejaVuSans-56"/>
     </g>
    </g>
   </g>
   <g id="text_10">
    <g clip-path="url(#pf0448e9418)">
     <!-- BID -->
     <g transform="translate(680.066452 211.419693)scale(0.12 -0.12)">
      <defs>
       <path d="M 19.671875 34.8125 
L 19.671875 8.109375 
L 35.5 8.109375 
Q 43.453125 8.109375 47.28125 11.40625 
Q 51.125 14.703125 51.125 21.484375 
Q 51.125 28.328125 47.28125 31.5625 
Q 43.453125 34.8125 35.5 34.8125 
z
M 19.671875 64.796875 
L 19.671875 42.828125 
L 34.28125 42.828125 
Q 41.5 42.828125 45.03125 45.53125 
Q 48.578125 48.25 48.578125 53.8125 
Q 48.578125 59.328125 45.03125 62.0625 
Q 41.5 64.796875 34.28125 64.796875 
z
M 9.8125 72.90625 
L 35.015625 72.90625 
Q 46.296875 72.90625 52.390625 68.21875 
Q 58.5 63.53125 58.5 54.890625 
Q 58.5 48.1875 55.375 44.234375 
Q 52.25 40.28125 46.1875 39.3125 
Q 53.46875 37.75 57.5 32.78125 
Q 61.53125 27.828125 61.53125 20.40625 
Q 61.53125 10.640625 54.890625 5.3125 
Q 48.25 0 35.984375 0 
L 9.8125 0 
z
" id="DejaVuSans-66"/>
       <path d="M 9.8125 72.90625 
L 19.671875 72.90625 
L 19.671875 0 
L 9.8125 0 
z
" id="DejaVuSans-73"/>
      </defs>
      <use xlink:href="#DejaVuSans-66"/>
      <use x="68.603516" xlink:href="#DejaVuSans-73"/>
      <use x="98.095703" xlink:href="#DejaVuSans-68"/>
     </g>
    </g>
   </g>
   <g id="text_11">
    <g clip-path="url(#pf0448e9418)">
     <!-- EIF2AK3 -->
     <g transform="translate(345.575553 463.626752)scale(0.12 -0.12)">
      <defs>
       <path d="M 9.8125 72.90625 
L 55.90625 72.90625 
L 55.90625 64.59375 
L 19.671875 64.59375 
L 19.671875 43.015625 
L 54.390625 43.015625 
L 54.390625 34.71875 
L 19.671875 34.71875 
L 19.671875 8.296875 
L 56.78125 8.296875 
L 56.78125 0 
L 9.8125 0 
z
" id="DejaVuSans-69"/>
       <path d="M 19.1875 8.296875 
L 53.609375 8.296875 
L 53.609375 0 
L 7.328125 0 
L 7.328125 8.296875 
Q 12.9375 14.109375 22.625 23.890625 
Q 32.328125 33.6875 34.8125 36.53125 
Q 39.546875 41.84375 41.421875 45.53125 
Q 43.3125 49.21875 43.3125 52.78125 
Q 43.3125 58.59375 39.234375 62.25 
Q 35.15625 65.921875 28.609375 65.921875 
Q 23.96875 65.921875 18.8125 64.3125 
Q 13.671875 62.703125 7.8125 59.421875 
L 7.8125 69.390625 
Q 13.765625 71.78125 18.9375 73 
Q 24.125 74.21875 28.421875 74.21875 
Q 39.75 74.21875 46.484375 68.546875 
Q 53.21875 62.890625 53.21875 53.421875 
Q 53.21875 48.921875 51.53125 44.890625 
Q 49.859375 40.875 45.40625 35.40625 
Q 44.1875 33.984375 37.640625 27.21875 
Q 31.109375 20.453125 19.1875 8.296875 
z
" id="DejaVuSans-50"/>
      </defs>
      <use xlink:href="#DejaVuSans-69"/>
      <use x="63.183594" xlink:href="#DejaVuSans-73"/>
      <use x="92.675781" xlink:href="#DejaVuSans-70"/>
      <use x="150.195312" xlink:href="#DejaVuSans-50"/>
      <use x="213.818359" xlink:href="#DejaVuSans-65"/>
      <use x="282.226562" xlink:href="#DejaVuSans-75"/>
      <use x="347.802734" xlink:href="#DejaVuSans-51"/>
     </g>
    </g>
   </g>
   <g id="text_12">
    <g clip-path="url(#pf0448e9418)">
     <!-- ERN1 -->
     <g transform="translate(406.92484 387.171894)scale(0.12 -0.12)">
      <use xlink:href="#DejaVuSans-69"/>
      <use x="63.183594" xlink:href="#DejaVuSans-82"/>
      <use x="132.666016" xlink:href="#DejaVuSans-78"/>
      <use x="207.470703" xlink:href="#DejaVuSans-49"/>
     </g>
    </g>
   </g>
   <g id="text_13">
    <g clip-path="url(#pf0448e9418)">
     <!-- APBB1 -->
     <g transform="translate(189.476308 391.492039)scale(0.12 -0.12)">
      <use xlink:href="#DejaVuSans-65"/>
      <use x="68.408203" xlink:href="#DejaVuSans-80"/>
      <use x="128.710938" xlink:href="#DejaVuSans-66"/>
      <use x="197.314453" xlink:href="#DejaVuSans-66"/>
      <use x="265.917969" xlink:href="#DejaVuSans-49"/>
     </g>
    </g>
   </g>
   <g id="text_14">
    <g clip-path="url(#pf0448e9418)">
     <!-- GAPDH -->
     <g transform="translate(465.517921 111.424394)scale(0.12 -0.12)">
      <defs>
       <path d="M 59.515625 10.40625 
L 59.515625 29.984375 
L 43.40625 29.984375 
L 43.40625 38.09375 
L 69.28125 38.09375 
L 69.28125 6.78125 
Q 63.578125 2.734375 56.6875 0.65625 
Q 49.8125 -1.421875 42 -1.421875 
Q 24.90625 -1.421875 15.25 8.5625 
Q 5.609375 18.5625 5.609375 36.375 
Q 5.609375 54.25 15.25 64.234375 
Q 24.90625 74.21875 42 74.21875 
Q 49.125 74.21875 55.546875 72.453125 
Q 61.96875 70.703125 67.390625 67.28125 
L 67.390625 56.78125 
Q 61.921875 61.421875 55.765625 63.765625 
Q 49.609375 66.109375 42.828125 66.109375 
Q 29.4375 66.109375 22.71875 58.640625 
Q 16.015625 51.171875 16.015625 36.375 
Q 16.015625 21.625 22.71875 14.15625 
Q 29.4375 6.6875 42.828125 6.6875 
Q 48.046875 6.6875 52.140625 7.59375 
Q 56.25 8.5 59.515625 10.40625 
z
" id="DejaVuSans-71"/>
       <path d="M 9.8125 72.90625 
L 19.671875 72.90625 
L 19.671875 43.015625 
L 55.515625 43.015625 
L 55.515625 72.90625 
L 65.375 72.90625 
L 65.375 0 
L 55.515625 0 
L 55.515625 34.71875 
L 19.671875 34.71875 
L 19.671875 0 
L 9.8125 0 
z
" id="DejaVuSans-72"/>
      </defs>
      <use xlink:href="#DejaVuSans-71"/>
      <use x="77.490234" xlink:href="#DejaVuSans-65"/>
      <use x="145.898438" xlink:href="#DejaVuSans-80"/>
      <use x="206.201172" xlink:href="#DejaVuSans-68"/>
      <use x="283.203125" xlink:href="#DejaVuSans-72"/>
     </g>
    </g>
   </g>
   <g id="text_15">
    <g clip-path="url(#pf0448e9418)">
     <!-- NAE1 -->
     <g transform="translate(232.122423 442.636779)scale(0.12 -0.12)">
      <use xlink:href="#DejaVuSans-78"/>
      <use x="74.804688" xlink:href="#DejaVuSans-65"/>
      <use x="143.212891" xlink:href="#DejaVuSans-69"/>
      <use x="206.396484" xlink:href="#DejaVuSans-49"/>
     </g>
    </g>
   </g>
   <g id="text_16">
    <g clip-path="url(#pf0448e9418)">
     <!-- GSK3B -->
     <g transform="translate(369.090878 208.267769)scale(0.12 -0.12)">
      <use xlink:href="#DejaVuSans-71"/>
      <use x="77.490234" xlink:href="#DejaVuSans-83"/>
      <use x="140.966797" xlink:href="#DejaVuSans-75"/>
      <use x="206.542969" xlink:href="#DejaVuSans-51"/>
      <use x="270.166016" xlink:href="#DejaVuSans-66"/>
     </g>
    </g>
   </g>
   <g id="text_17">
    <g clip-path="url(#pf0448e9418)">
     <!-- TRAF2 -->
     <g transform="translate(445.351096 373.952549)scale(0.12 -0.12)">
      <use xlink:href="#DejaVuSans-84"/>
      <use x="61.083984" xlink:href="#DejaVuSans-82"/>
      <use x="126.566406" xlink:href="#DejaVuSans-65"/>
      <use x="194.974609" xlink:href="#DejaVuSans-70"/>
      <use x="252.494141" xlink:href="#DejaVuSans-50"/>
     </g>
    </g>
   </g>
   <g id="text_18">
    <g clip-path="url(#pf0448e9418)">
     <!-- MAP3K5 -->
     <g transform="translate(332.554432 390.849213)scale(0.12 -0.12)">
      <defs>
       <path d="M 9.8125 72.90625 
L 24.515625 72.90625 
L 43.109375 23.296875 
L 61.8125 72.90625 
L 76.515625 72.90625 
L 76.515625 0 
L 66.890625 0 
L 66.890625 64.015625 
L 48.09375 14.015625 
L 38.1875 14.015625 
L 19.390625 64.015625 
L 19.390625 0 
L 9.8125 0 
z
" id="DejaVuSans-77"/>
      </defs>
      <use xlink:href="#DejaVuSans-77"/>
      <use x="86.279297" xlink:href="#DejaVuSans-65"/>
      <use x="154.6875" xlink:href="#DejaVuSans-80"/>
      <use x="214.990234" xlink:href="#DejaVuSans-51"/>
      <use x="278.613281" xlink:href="#DejaVuSans-75"/>
      <use x="344.189453" xlink:href="#DejaVuSans-53"/>
     </g>
    </g>
   </g>
   <g id="text_19">
    <g clip-path="url(#pf0448e9418)">
     <!-- MTOR -->
     <g transform="translate(431.166454 303.543718)scale(0.12 -0.12)">
      <defs>
       <path d="M 39.40625 66.21875 
Q 28.65625 66.21875 22.328125 58.203125 
Q 16.015625 50.203125 16.015625 36.375 
Q 16.015625 22.609375 22.328125 14.59375 
Q 28.65625 6.59375 39.40625 6.59375 
Q 50.140625 6.59375 56.421875 14.59375 
Q 62.703125 22.609375 62.703125 36.375 
Q 62.703125 50.203125 56.421875 58.203125 
Q 50.140625 66.21875 39.40625 66.21875 
z
M 39.40625 74.21875 
Q 54.734375 74.21875 63.90625 63.9375 
Q 73.09375 53.65625 73.09375 36.375 
Q 73.09375 19.140625 63.90625 8.859375 
Q 54.734375 -1.421875 39.40625 -1.421875 
Q 24.03125 -1.421875 14.8125 8.828125 
Q 5.609375 19.09375 5.609375 36.375 
Q 5.609375 53.65625 14.8125 63.9375 
Q 24.03125 74.21875 39.40625 74.21875 
z
" id="DejaVuSans-79"/>
      </defs>
      <use xlink:href="#DejaVuSans-77"/>
      <use x="86.279297" xlink:href="#DejaVuSans-84"/>
      <use x="147.363281" xlink:href="#DejaVuSans-79"/>
      <use x="226.074219" xlink:href="#DejaVuSans-82"/>
     </g>
    </g>
   </g>
   <g id="text_20">
    <g clip-path="url(#pf0448e9418)">
     <!-- ATG13 -->
     <g transform="translate(699.90609 352.208898)scale(0.12 -0.12)">
      <use xlink:href="#DejaVuSans-65"/>
      <use x="60.658203" xlink:href="#DejaVuSans-84"/>
      <use x="121.742188" xlink:href="#DejaVuSans-71"/>
      <use x="199.232422" xlink:href="#DejaVuSans-49"/>
      <use x="262.855469" xlink:href="#DejaVuSans-51"/>
     </g>
    </g>
   </g>
   <g id="text_21">
    <g clip-path="url(#pf0448e9418)">
     <!-- RB1CC1 -->
     <g transform="translate(203.503749 175.647964)scale(0.12 -0.12)">
      <use xlink:href="#DejaVuSans-82"/>
      <use x="69.482422" xlink:href="#DejaVuSans-66"/>
      <use x="138.085938" xlink:href="#DejaVuSans-49"/>
      <use x="201.708984" xlink:href="#DejaVuSans-67"/>
      <use x="271.533203" xlink:href="#DejaVuSans-67"/>
      <use x="341.357422" xlink:href="#DejaVuSans-49"/>
     </g>
    </g>
   </g>
   <g id="text_22">
    <g clip-path="url(#pf0448e9418)">
     <!-- ATG101 -->
     <g transform="translate(274.404265 442.186943)scale(0.12 -0.12)">
      <defs>
       <path d="M 31.78125 66.40625 
Q 24.171875 66.40625 20.328125 58.90625 
Q 16.5 51.421875 16.5 36.375 
Q 16.5 21.390625 20.328125 13.890625 
Q 24.171875 6.390625 31.78125 6.390625 
Q 39.453125 6.390625 43.28125 13.890625 
Q 47.125 21.390625 47.125 36.375 
Q 47.125 51.421875 43.28125 58.90625 
Q 39.453125 66.40625 31.78125 66.40625 
z
M 31.78125 74.21875 
Q 44.046875 74.21875 50.515625 64.515625 
Q 56.984375 54.828125 56.984375 36.375 
Q 56.984375 17.96875 50.515625 8.265625 
Q 44.046875 -1.421875 31.78125 -1.421875 
Q 19.53125 -1.421875 13.0625 8.265625 
Q 6.59375 17.96875 6.59375 36.375 
Q 6.59375 54.828125 13.0625 64.515625 
Q 19.53125 74.21875 31.78125 74.21875 
z
" id="DejaVuSans-48"/>
      </defs>
      <use xlink:href="#DejaVuSans-65"/>
      <use x="60.658203" xlink:href="#DejaVuSans-84"/>
      <use x="121.742188" xlink:href="#DejaVuSans-71"/>
      <use x="199.232422" xlink:href="#DejaVuSans-49"/>
      <use x="262.855469" xlink:href="#DejaVuSans-48"/>
      <use x="326.478516" xlink:href="#DejaVuSans-49"/>
     </g>
    </g>
   </g>
   <g id="text_23">
    <g clip-path="url(#pf0448e9418)">
     <!-- MAP2K7 -->
     <g transform="translate(463.091026 477.463977)scale(0.12 -0.12)">
      <defs>
       <path d="M 8.203125 72.90625 
L 55.078125 72.90625 
L 55.078125 68.703125 
L 28.609375 0 
L 18.3125 0 
L 43.21875 64.59375 
L 8.203125 64.59375 
z
" id="DejaVuSans-55"/>
      </defs>
      <use xlink:href="#DejaVuSans-77"/>
      <use x="86.279297" xlink:href="#DejaVuSans-65"/>
      <use x="154.6875" xlink:href="#DejaVuSans-80"/>
      <use x="214.990234" xlink:href="#DejaVuSans-50"/>
      <use x="278.613281" xlink:href="#DejaVuSans-75"/>
      <use x="344.189453" xlink:href="#DejaVuSans-55"/>
     </g>
    </g>
   </g>
   <g id="text_24">
    <g clip-path="url(#pf0448e9418)">
     <!-- EIF2S1 -->
     <g transform="translate(299.455862 412.944371)scale(0.12 -0.12)">
      <use xlink:href="#DejaVuSans-69"/>
      <use x="63.183594" xlink:href="#DejaVuSans-73"/>
      <use x="92.675781" xlink:href="#DejaVuSans-70"/>
      <use x="150.195312" xlink:href="#DejaVuSans-50"/>
      <use x="213.818359" xlink:href="#DejaVuSans-83"/>
      <use x="277.294922" xlink:href="#DejaVuSans-49"/>
     </g>
    </g>
   </g>
   <g id="text_25">
    <g clip-path="url(#pf0448e9418)">
     <!-- ATF4 -->
     <g transform="translate(160.023782 373.29502)scale(0.12 -0.12)">
      <defs>
       <path d="M 37.796875 64.3125 
L 12.890625 25.390625 
L 37.796875 25.390625 
z
M 35.203125 72.90625 
L 47.609375 72.90625 
L 47.609375 25.390625 
L 58.015625 25.390625 
L 58.015625 17.1875 
L 47.609375 17.1875 
L 47.609375 0 
L 37.796875 0 
L 37.796875 17.1875 
L 4.890625 17.1875 
L 4.890625 26.703125 
z
" id="DejaVuSans-52"/>
      </defs>
      <use xlink:href="#DejaVuSans-65"/>
      <use x="60.658203" xlink:href="#DejaVuSans-84"/>
      <use x="121.742188" xlink:href="#DejaVuSans-70"/>
      <use x="179.261719" xlink:href="#DejaVuSans-52"/>
     </g>
    </g>
   </g>
   <g id="text_26">
    <g clip-path="url(#pf0448e9418)">
     <!-- CTNNB1 -->
     <g transform="translate(584.471705 155.548649)scale(0.12 -0.12)">
      <use xlink:href="#DejaVuSans-67"/>
      <use x="69.824219" xlink:href="#DejaVuSans-84"/>
      <use x="130.908203" xlink:href="#DejaVuSans-78"/>
      <use x="205.712891" xlink:href="#DejaVuSans-78"/>
      <use x="280.517578" xlink:href="#DejaVuSans-66"/>
      <use x="349.121094" xlink:href="#DejaVuSans-49"/>
     </g>
    </g>
   </g>
   <g id="text_27">
    <g clip-path="url(#pf0448e9418)">
     <!-- AGER -->
     <g transform="translate(419.412928 233.569329)scale(0.12 -0.12)">
      <use xlink:href="#DejaVuSans-65"/>
      <use x="66.658203" xlink:href="#DejaVuSans-71"/>
      <use x="144.148438" xlink:href="#DejaVuSans-69"/>
      <use x="207.332031" xlink:href="#DejaVuSans-82"/>
     </g>
    </g>
   </g>
   <g id="text_28">
    <g clip-path="url(#pf0448e9418)">
     <!-- CSF1 -->
     <g transform="translate(266.883596 149.915202)scale(0.12 -0.12)">
      <use xlink:href="#DejaVuSans-67"/>
      <use x="69.824219" xlink:href="#DejaVuSans-83"/>
      <use x="133.300781" xlink:href="#DejaVuSans-70"/>
      <use x="190.820312" xlink:href="#DejaVuSans-49"/>
     </g>
    </g>
   </g>
   <g id="text_29">
    <g clip-path="url(#pf0448e9418)">
     <!-- TNFRSF1A -->
     <g transform="translate(656.506279 221.877027)scale(0.12 -0.12)">
      <use xlink:href="#DejaVuSans-84"/>
      <use x="61.083984" xlink:href="#DejaVuSans-78"/>
      <use x="135.888672" xlink:href="#DejaVuSans-70"/>
      <use x="193.408203" xlink:href="#DejaVuSans-82"/>
      <use x="262.890625" xlink:href="#DejaVuSans-83"/>
      <use x="326.367188" xlink:href="#DejaVuSans-70"/>
      <use x="383.886719" xlink:href="#DejaVuSans-49"/>
      <use x="447.509766" xlink:href="#DejaVuSans-65"/>
     </g>
    </g>
   </g>
   <g id="text_30">
    <g clip-path="url(#pf0448e9418)">
     <!-- EIF2AK2 -->
     <g transform="translate(147.849616 274.848052)scale(0.12 -0.12)">
      <use xlink:href="#DejaVuSans-69"/>
      <use x="63.183594" xlink:href="#DejaVuSans-73"/>
      <use x="92.675781" xlink:href="#DejaVuSans-70"/>
      <use x="150.195312" xlink:href="#DejaVuSans-50"/>
      <use x="213.818359" xlink:href="#DejaVuSans-65"/>
      <use x="282.226562" xlink:href="#DejaVuSans-75"/>
      <use x="347.802734" xlink:href="#DejaVuSans-50"/>
     </g>
    </g>
   </g>
   <g id="text_31">
    <g clip-path="url(#pf0448e9418)">
     <!-- PPID -->
     <g transform="translate(457.879449 310.253986)scale(0.12 -0.12)">
      <use xlink:href="#DejaVuSans-80"/>
      <use x="60.302734" xlink:href="#DejaVuSans-80"/>
      <use x="120.605469" xlink:href="#DejaVuSans-73"/>
      <use x="150.097656" xlink:href="#DejaVuSans-68"/>
     </g>
    </g>
   </g>
   <g id="text_32">
    <g clip-path="url(#pf0448e9418)">
     <!-- XBP1 -->
     <g transform="translate(402.600643 473.235665)scale(0.12 -0.12)">
      <defs>
       <path d="M 6.296875 72.90625 
L 16.890625 72.90625 
L 35.015625 45.796875 
L 53.21875 72.90625 
L 63.8125 72.90625 
L 40.375 37.890625 
L 65.375 0 
L 54.78125 0 
L 34.28125 31 
L 13.625 0 
L 2.984375 0 
L 29 38.921875 
z
" id="DejaVuSans-88"/>
      </defs>
      <use xlink:href="#DejaVuSans-88"/>
      <use x="68.505859" xlink:href="#DejaVuSans-66"/>
      <use x="137.109375" xlink:href="#DejaVuSans-80"/>
      <use x="197.412109" xlink:href="#DejaVuSans-49"/>
     </g>
    </g>
   </g>
   <g id="text_33">
    <g clip-path="url(#pf0448e9418)">
     <!-- PSEN1 -->
     <g transform="translate(514.368853 311.558037)scale(0.12 -0.12)">
      <use xlink:href="#DejaVuSans-80"/>
      <use x="60.302734" xlink:href="#DejaVuSans-83"/>
      <use x="123.779297" xlink:href="#DejaVuSans-69"/>
      <use x="186.962891" xlink:href="#DejaVuSans-78"/>
      <use x="261.767578" xlink:href="#DejaVuSans-49"/>
     </g>
    </g>
   </g>
   <g id="text_34">
    <g clip-path="url(#pf0448e9418)">
     <!-- DDIT3 -->
     <g transform="translate(147.613598 339.83962)scale(0.12 -0.12)">
      <use xlink:href="#DejaVuSans-68"/>
      <use x="77.001953" xlink:href="#DejaVuSans-68"/>
      <use x="154.003906" xlink:href="#DejaVuSans-73"/>
      <use x="183.496094" xlink:href="#DejaVuSans-84"/>
      <use x="244.580078" xlink:href="#DejaVuSans-51"/>
     </g>
    </g>
   </g>
   <g id="text_35">
    <g clip-path="url(#pf0448e9418)">
     <!-- PSEN2 -->
     <g transform="translate(544.413297 328.926294)scale(0.12 -0.12)">
      <use xlink:href="#DejaVuSans-80"/>
      <use x="60.302734" xlink:href="#DejaVuSans-83"/>
      <use x="123.779297" xlink:href="#DejaVuSans-69"/>
      <use x="186.962891" xlink:href="#DejaVuSans-78"/>
      <use x="261.767578" xlink:href="#DejaVuSans-50"/>
     </g>
    </g>
   </g>
   <g id="text_36">
    <g clip-path="url(#pf0448e9418)">
     <!-- BACE2 -->
     <g transform="translate(666.072403 383.770018)scale(0.12 -0.12)">
      <use xlink:href="#DejaVuSans-66"/>
      <use x="68.603516" xlink:href="#DejaVuSans-65"/>
      <use x="135.261719" xlink:href="#DejaVuSans-67"/>
      <use x="205.085938" xlink:href="#DejaVuSans-69"/>
      <use x="268.269531" xlink:href="#DejaVuSans-50"/>
     </g>
    </g>
   </g>
   <g id="text_37">
    <g clip-path="url(#pf0448e9418)">
     <!-- ITPR1 -->
     <g transform="translate(656.293071 193.28082)scale(0.12 -0.12)">
      <use xlink:href="#DejaVuSans-73"/>
      <use x="29.492188" xlink:href="#DejaVuSans-84"/>
      <use x="90.576172" xlink:href="#DejaVuSans-80"/>
      <use x="150.878906" xlink:href="#DejaVuSans-82"/>
      <use x="220.361328" xlink:href="#DejaVuSans-49"/>
     </g>
    </g>
   </g>
   <g id="text_38">
    <g clip-path="url(#pf0448e9418)">
     <!-- ITPR2 -->
     <g transform="translate(626.786895 175.942843)scale(0.12 -0.12)">
      <use xlink:href="#DejaVuSans-73"/>
      <use x="29.492188" xlink:href="#DejaVuSans-84"/>
      <use x="90.576172" xlink:href="#DejaVuSans-80"/>
      <use x="150.878906" xlink:href="#DejaVuSans-82"/>
      <use x="220.361328" xlink:href="#DejaVuSans-50"/>
     </g>
    </g>
   </g>
   <g id="text_39">
    <g clip-path="url(#pf0448e9418)">
     <!-- ITPR3 -->
     <g transform="translate(648.157151 416.859997)scale(0.12 -0.12)">
      <use xlink:href="#DejaVuSans-73"/>
      <use x="29.492188" xlink:href="#DejaVuSans-84"/>
      <use x="90.576172" xlink:href="#DejaVuSans-80"/>
      <use x="150.878906" xlink:href="#DejaVuSans-82"/>
      <use x="220.361328" xlink:href="#DejaVuSans-51"/>
     </g>
    </g>
   </g>
   <g id="text_40">
    <g clip-path="url(#pf0448e9418)">
     <!-- CAPN1 -->
     <g transform="translate(313.206574 297.093288)scale(0.12 -0.12)">
      <use xlink:href="#DejaVuSans-67"/>
      <use x="69.824219" xlink:href="#DejaVuSans-65"/>
      <use x="138.232422" xlink:href="#DejaVuSans-80"/>
      <use x="198.535156" xlink:href="#DejaVuSans-78"/>
      <use x="273.339844" xlink:href="#DejaVuSans-49"/>
     </g>
    </g>
   </g>
   <g id="text_41">
    <g clip-path="url(#pf0448e9418)">
     <!-- CAPN2 -->
     <g transform="translate(451.881259 163.884656)scale(0.12 -0.12)">
      <use xlink:href="#DejaVuSans-67"/>
      <use x="69.824219" xlink:href="#DejaVuSans-65"/>
      <use x="138.232422" xlink:href="#DejaVuSans-80"/>
      <use x="198.535156" xlink:href="#DejaVuSans-78"/>
      <use x="273.339844" xlink:href="#DejaVuSans-50"/>
     </g>
    </g>
   </g>
   <g id="text_42">
    <g clip-path="url(#pf0448e9418)">
     <!-- RTN3 -->
     <g transform="translate(577.228494 293.101151)scale(0.12 -0.12)">
      <use xlink:href="#DejaVuSans-82"/>
      <use x="62.232422" xlink:href="#DejaVuSans-84"/>
      <use x="123.316406" xlink:href="#DejaVuSans-78"/>
      <use x="198.121094" xlink:href="#DejaVuSans-51"/>
     </g>
    </g>
   </g>
   <g id="text_43">
    <g clip-path="url(#pf0448e9418)">
     <!-- RTN4 -->
     <g transform="translate(460.282474 417.087999)scale(0.12 -0.12)">
      <use xlink:href="#DejaVuSans-82"/>
      <use x="62.232422" xlink:href="#DejaVuSans-84"/>
      <use x="123.316406" xlink:href="#DejaVuSans-78"/>
      <use x="198.121094" xlink:href="#DejaVuSans-52"/>
     </g>
    </g>
   </g>
   <g id="text_44">
    <g clip-path="url(#pf0448e9418)">
     <!-- ULK1 -->
     <g transform="translate(596.990927 453.435887)scale(0.12 -0.12)">
      <defs>
       <path d="M 8.6875 72.90625 
L 18.609375 72.90625 
L 18.609375 28.609375 
Q 18.609375 16.890625 22.84375 11.734375 
Q 27.09375 6.59375 36.625 6.59375 
Q 46.09375 6.59375 50.34375 11.734375 
Q 54.59375 16.890625 54.59375 28.609375 
L 54.59375 72.90625 
L 64.5 72.90625 
L 64.5 27.390625 
Q 64.5 13.140625 57.4375 5.859375 
Q 50.390625 -1.421875 36.625 -1.421875 
Q 22.796875 -1.421875 15.734375 5.859375 
Q 8.6875 13.140625 8.6875 27.390625 
z
" id="DejaVuSans-85"/>
       <path d="M 9.8125 72.90625 
L 19.671875 72.90625 
L 19.671875 8.296875 
L 55.171875 8.296875 
L 55.171875 0 
L 9.8125 0 
z
" id="DejaVuSans-76"/>
      </defs>
      <use xlink:href="#DejaVuSans-85"/>
      <use x="73.193359" xlink:href="#DejaVuSans-76"/>
      <use x="128.90625" xlink:href="#DejaVuSans-75"/>
      <use x="194.482422" xlink:href="#DejaVuSans-49"/>
     </g>
    </g>
   </g>
   <g id="text_45">
    <g clip-path="url(#pf0448e9418)">
     <!-- ULK2 -->
     <g transform="translate(382.829889 110.918523)scale(0.12 -0.12)">
      <use xlink:href="#DejaVuSans-85"/>
      <use x="73.193359" xlink:href="#DejaVuSans-76"/>
      <use x="128.90625" xlink:href="#DejaVuSans-75"/>
      <use x="194.482422" xlink:href="#DejaVuSans-50"/>
     </g>
    </g>
   </g>
   <g id="text_46">
    <g clip-path="url(#pf0448e9418)">
     <!-- HRAS -->
     <g transform="translate(346.343599 251.348445)scale(0.12 -0.12)">
      <use xlink:href="#DejaVuSans-72"/>
      <use x="75.195312" xlink:href="#DejaVuSans-82"/>
      <use x="140.677734" xlink:href="#DejaVuSans-65"/>
      <use x="209.085938" xlink:href="#DejaVuSans-83"/>
     </g>
    </g>
   </g>
   <g id="text_47">
    <g clip-path="url(#pf0448e9418)">
     <!-- KRAS -->
     <g transform="translate(317.442765 207.905484)scale(0.12 -0.12)">
      <use xlink:href="#DejaVuSans-75"/>
      <use x="65.576172" xlink:href="#DejaVuSans-82"/>
      <use x="131.058594" xlink:href="#DejaVuSans-65"/>
      <use x="199.466797" xlink:href="#DejaVuSans-83"/>
     </g>
    </g>
   </g>
   <g id="text_48">
    <g clip-path="url(#pf0448e9418)">
     <!-- NRAS -->
     <g transform="translate(374.092196 248.488653)scale(0.12 -0.12)">
      <use xlink:href="#DejaVuSans-78"/>
      <use x="74.804688" xlink:href="#DejaVuSans-82"/>
      <use x="140.287109" xlink:href="#DejaVuSans-65"/>
      <use x="208.695312" xlink:href="#DejaVuSans-83"/>
     </g>
    </g>
   </g>
   <g id="text_49">
    <g clip-path="url(#pf0448e9418)">
     <!-- RELA -->
     <g transform="translate(498.694622 208.182163)scale(0.12 -0.12)">
      <use xlink:href="#DejaVuSans-82"/>
      <use x="69.482422" xlink:href="#DejaVuSans-69"/>
      <use x="132.666016" xlink:href="#DejaVuSans-76"/>
      <use x="190.628906" xlink:href="#DejaVuSans-65"/>
     </g>
    </g>
   </g>
   <g id="text_50">
    <g clip-path="url(#pf0448e9418)">
     <!-- NFKB1 -->
     <g transform="translate(467.253943 242.75539)scale(0.12 -0.12)">
      <use xlink:href="#DejaVuSans-78"/>
      <use x="74.804688" xlink:href="#DejaVuSans-70"/>
      <use x="132.324219" xlink:href="#DejaVuSans-75"/>
      <use x="197.900391" xlink:href="#DejaVuSans-66"/>
      <use x="266.503906" xlink:href="#DejaVuSans-49"/>
     </g>
    </g>
   </g>
   <g id="text_51">
    <g clip-path="url(#pf0448e9418)">
     <!-- IRS2 -->
     <g transform="translate(195.560113 198.007168)scale(0.12 -0.12)">
      <use xlink:href="#DejaVuSans-73"/>
      <use x="29.492188" xlink:href="#DejaVuSans-82"/>
      <use x="98.974609" xlink:href="#DejaVuSans-83"/>
      <use x="162.451172" xlink:href="#DejaVuSans-50"/>
     </g>
    </g>
   </g>
   <g id="text_52">
    <g clip-path="url(#pf0448e9418)">
     <!-- IKBKB -->
     <g transform="translate(282.522839 153.30093)scale(0.12 -0.12)">
      <use xlink:href="#DejaVuSans-73"/>
      <use x="29.492188" xlink:href="#DejaVuSans-75"/>
      <use x="95.068359" xlink:href="#DejaVuSans-66"/>
      <use x="163.671875" xlink:href="#DejaVuSans-75"/>
      <use x="229.248047" xlink:href="#DejaVuSans-66"/>
     </g>
    </g>
   </g>
   <g id="text_53">
    <g clip-path="url(#pf0448e9418)">
     <!-- IKBKG -->
     <g transform="translate(214.248641 267.660664)scale(0.12 -0.12)">
      <use xlink:href="#DejaVuSans-73"/>
      <use x="29.492188" xlink:href="#DejaVuSans-75"/>
      <use x="95.068359" xlink:href="#DejaVuSans-66"/>
      <use x="163.671875" xlink:href="#DejaVuSans-75"/>
      <use x="229.248047" xlink:href="#DejaVuSans-71"/>
     </g>
    </g>
   </g>
   <g id="text_54">
    <g clip-path="url(#pf0448e9418)">
     <!-- ARAF -->
     <g transform="translate(255.974573 223.233064)scale(0.12 -0.12)">
      <use xlink:href="#DejaVuSans-65"/>
      <use x="68.408203" xlink:href="#DejaVuSans-82"/>
      <use x="133.890625" xlink:href="#DejaVuSans-65"/>
      <use x="202.298828" xlink:href="#DejaVuSans-70"/>
     </g>
    </g>
   </g>
   <g id="text_55">
    <g clip-path="url(#pf0448e9418)">
     <!-- BRAF -->
     <g transform="translate(322.174072 247.645497)scale(0.12 -0.12)">
      <use xlink:href="#DejaVuSans-66"/>
      <use x="68.603516" xlink:href="#DejaVuSans-82"/>
      <use x="134.085938" xlink:href="#DejaVuSans-65"/>
      <use x="202.494141" xlink:href="#DejaVuSans-70"/>
     </g>
    </g>
   </g>
   <g id="text_56">
    <g clip-path="url(#pf0448e9418)">
     <!-- RAF1 -->
     <g transform="translate(322.859335 172.786486)scale(0.12 -0.12)">
      <use xlink:href="#DejaVuSans-82"/>
      <use x="65.482422" xlink:href="#DejaVuSans-65"/>
      <use x="133.890625" xlink:href="#DejaVuSans-70"/>
      <use x="191.410156" xlink:href="#DejaVuSans-49"/>
     </g>
    </g>
   </g>
   <g id="text_57">
    <g clip-path="url(#pf0448e9418)">
     <!-- MAP2K1 -->
     <g transform="translate(155.403563 218.361725)scale(0.12 -0.12)">
      <use xlink:href="#DejaVuSans-77"/>
      <use x="86.279297" xlink:href="#DejaVuSans-65"/>
      <use x="154.6875" xlink:href="#DejaVuSans-80"/>
      <use x="214.990234" xlink:href="#DejaVuSans-50"/>
      <use x="278.613281" xlink:href="#DejaVuSans-75"/>
      <use x="344.189453" xlink:href="#DejaVuSans-49"/>
     </g>
    </g>
   </g>
   <g id="text_58">
    <g clip-path="url(#pf0448e9418)">
     <!-- MAP2K2 -->
     <g transform="translate(309.350521 122.200115)scale(0.12 -0.12)">
      <use xlink:href="#DejaVuSans-77"/>
      <use x="86.279297" xlink:href="#DejaVuSans-65"/>
      <use x="154.6875" xlink:href="#DejaVuSans-80"/>
      <use x="214.990234" xlink:href="#DejaVuSans-50"/>
      <use x="278.613281" xlink:href="#DejaVuSans-75"/>
      <use x="344.189453" xlink:href="#DejaVuSans-50"/>
     </g>
    </g>
   </g>
   <g id="text_59">
    <g clip-path="url(#pf0448e9418)">
     <!-- VDAC1 -->
     <g transform="translate(534.951839 469.518391)scale(0.12 -0.12)">
      <defs>
       <path d="M 28.609375 0 
L 0.78125 72.90625 
L 11.078125 72.90625 
L 34.1875 11.53125 
L 57.328125 72.90625 
L 67.578125 72.90625 
L 39.796875 0 
z
" id="DejaVuSans-86"/>
      </defs>
      <use xlink:href="#DejaVuSans-86"/>
      <use x="68.408203" xlink:href="#DejaVuSans-68"/>
      <use x="143.660156" xlink:href="#DejaVuSans-65"/>
      <use x="210.318359" xlink:href="#DejaVuSans-67"/>
      <use x="280.142578" xlink:href="#DejaVuSans-49"/>
     </g>
    </g>
   </g>
   <g id="text_60">
    <g clip-path="url(#pf0448e9418)">
     <!-- VDAC2 -->
     <g transform="translate(596.146005 426.054779)scale(0.12 -0.12)">
      <use xlink:href="#DejaVuSans-86"/>
      <use x="68.408203" xlink:href="#DejaVuSans-68"/>
      <use x="143.660156" xlink:href="#DejaVuSans-65"/>
      <use x="210.318359" xlink:href="#DejaVuSans-67"/>
      <use x="280.142578" xlink:href="#DejaVuSans-50"/>
     </g>
    </g>
   </g>
   <g id="text_61">
    <g clip-path="url(#pf0448e9418)">
     <!-- VDAC3 -->
     <g transform="translate(171.642729 239.318223)scale(0.12 -0.12)">
      <use xlink:href="#DejaVuSans-86"/>
      <use x="68.408203" xlink:href="#DejaVuSans-68"/>
      <use x="143.660156" xlink:href="#DejaVuSans-65"/>
      <use x="210.318359" xlink:href="#DejaVuSans-67"/>
      <use x="280.142578" xlink:href="#DejaVuSans-51"/>
     </g>
    </g>
   </g>
   <g id="text_62">
    <g clip-path="url(#pf0448e9418)">
     <!-- PPIF -->
     <g transform="translate(524.214829 126.741524)scale(0.12 -0.12)">
      <use xlink:href="#DejaVuSans-80"/>
      <use x="60.302734" xlink:href="#DejaVuSans-80"/>
      <use x="120.605469" xlink:href="#DejaVuSans-73"/>
      <use x="150.097656" xlink:href="#DejaVuSans-70"/>
     </g>
    </g>
   </g>
   <g id="text_63">
    <!-- Frame: 11 -->
    <g transform="translate(121.392 91.296)scale(0.1 -0.1)">
     <defs>
      <path d="M 41.109375 46.296875 
Q 39.59375 47.171875 37.8125 47.578125 
Q 36.03125 48 33.890625 48 
Q 26.265625 48 22.1875 43.046875 
Q 18.109375 38.09375 18.109375 28.8125 
L 18.109375 0 
L 9.078125 0 
L 9.078125 54.6875 
L 18.109375 54.6875 
L 18.109375 46.1875 
Q 20.953125 51.171875 25.484375 53.578125 
Q 30.03125 56 36.53125 56 
Q 37.453125 56 38.578125 55.875 
Q 39.703125 55.765625 41.0625 55.515625 
z
" id="DejaVuSans-114"/>
      <path d="M 34.28125 27.484375 
Q 23.390625 27.484375 19.1875 25 
Q 14.984375 22.515625 14.984375 16.5 
Q 14.984375 11.71875 18.140625 8.90625 
Q 21.296875 6.109375 26.703125 6.109375 
Q 34.1875 6.109375 38.703125 11.40625 
Q 43.21875 16.703125 43.21875 25.484375 
L 43.21875 27.484375 
z
M 52.203125 31.203125 
L 52.203125 0 
L 43.21875 0 
L 43.21875 8.296875 
Q 40.140625 3.328125 35.546875 0.953125 
Q 30.953125 -1.421875 24.3125 -1.421875 
Q 15.921875 -1.421875 10.953125 3.296875 
Q 6 8.015625 6 15.921875 
Q 6 25.140625 12.171875 29.828125 
Q 18.359375 34.515625 30.609375 34.515625 
L 43.21875 34.515625 
L 43.21875 35.40625 
Q 43.21875 41.609375 39.140625 45 
Q 35.0625 48.390625 27.6875 48.390625 
Q 23 48.390625 18.546875 47.265625 
Q 14.109375 46.140625 10.015625 43.890625 
L 10.015625 52.203125 
Q 14.9375 54.109375 19.578125 55.046875 
Q 24.21875 56 28.609375 56 
Q 40.484375 56 46.34375 49.84375 
Q 52.203125 43.703125 52.203125 31.203125 
z
" id="DejaVuSans-97"/>
      <path d="M 52 44.1875 
Q 55.375 50.25 60.0625 53.125 
Q 64.75 56 71.09375 56 
Q 79.640625 56 84.28125 50.015625 
Q 88.921875 44.046875 88.921875 33.015625 
L 88.921875 0 
L 79.890625 0 
L 79.890625 32.71875 
Q 79.890625 40.578125 77.09375 44.375 
Q 74.3125 48.1875 68.609375 48.1875 
Q 61.625 48.1875 57.5625 43.546875 
Q 53.515625 38.921875 53.515625 30.90625 
L 53.515625 0 
L 44.484375 0 
L 44.484375 32.71875 
Q 44.484375 40.625 41.703125 44.40625 
Q 38.921875 48.1875 33.109375 48.1875 
Q 26.21875 48.1875 22.15625 43.53125 
Q 18.109375 38.875 18.109375 30.90625 
L 18.109375 0 
L 9.078125 0 
L 9.078125 54.6875 
L 18.109375 54.6875 
L 18.109375 46.1875 
Q 21.1875 51.21875 25.484375 53.609375 
Q 29.78125 56 35.6875 56 
Q 41.65625 56 45.828125 52.96875 
Q 50 49.953125 52 44.1875 
z
" id="DejaVuSans-109"/>
      <path d="M 56.203125 29.59375 
L 56.203125 25.203125 
L 14.890625 25.203125 
Q 15.484375 15.921875 20.484375 11.0625 
Q 25.484375 6.203125 34.421875 6.203125 
Q 39.59375 6.203125 44.453125 7.46875 
Q 49.3125 8.734375 54.109375 11.28125 
L 54.109375 2.78125 
Q 49.265625 0.734375 44.1875 -0.34375 
Q 39.109375 -1.421875 33.890625 -1.421875 
Q 20.796875 -1.421875 13.15625 6.1875 
Q 5.515625 13.8125 5.515625 26.8125 
Q 5.515625 40.234375 12.765625 48.109375 
Q 20.015625 56 32.328125 56 
Q 43.359375 56 49.78125 48.890625 
Q 56.203125 41.796875 56.203125 29.59375 
z
M 47.21875 32.234375 
Q 47.125 39.59375 43.09375 43.984375 
Q 39.0625 48.390625 32.421875 48.390625 
Q 24.90625 48.390625 20.390625 44.140625 
Q 15.875 39.890625 15.1875 32.171875 
z
" id="DejaVuSans-101"/>
      <path d="M 11.71875 12.40625 
L 22.015625 12.40625 
L 22.015625 0 
L 11.71875 0 
z
M 11.71875 51.703125 
L 22.015625 51.703125 
L 22.015625 39.3125 
L 11.71875 39.3125 
z
" id="DejaVuSans-58"/>
      <path id="DejaVuSans-32"/>
     </defs>
     <use xlink:href="#DejaVuSans-70"/>
     <use x="50.269531" xlink:href="#DejaVuSans-114"/>
     <use x="91.382812" xlink:href="#DejaVuSans-97"/>
     <use x="152.662109" xlink:href="#DejaVuSans-109"/>
     <use x="250.074219" xlink:href="#DejaVuSans-101"/>
     <use x="311.597656" xlink:href="#DejaVuSans-58"/>
     <use x="345.289062" xlink:href="#DejaVuSans-32"/>
     <use x="377.076172" xlink:href="#DejaVuSans-49"/>
     <use x="440.699219" xlink:href="#DejaVuSans-49"/>
    </g>
   </g>
   <g id="text_64">
    <!-- Network: hsa05010 -->
    <g transform="translate(384.1275 63.12)scale(0.12 -0.12)">
     <defs>
      <path d="M 18.3125 70.21875 
L 18.3125 54.6875 
L 36.8125 54.6875 
L 36.8125 47.703125 
L 18.3125 47.703125 
L 18.3125 18.015625 
Q 18.3125 11.328125 20.140625 9.421875 
Q 21.96875 7.515625 27.59375 7.515625 
L 36.8125 7.515625 
L 36.8125 0 
L 27.59375 0 
Q 17.1875 0 13.234375 3.875 
Q 9.28125 7.765625 9.28125 18.015625 
L 9.28125 47.703125 
L 2.6875 47.703125 
L 2.6875 54.6875 
L 9.28125 54.6875 
L 9.28125 70.21875 
z
" id="DejaVuSans-116"/>
      <path d="M 4.203125 54.6875 
L 13.1875 54.6875 
L 24.421875 12.015625 
L 35.59375 54.6875 
L 46.1875 54.6875 
L 57.421875 12.015625 
L 68.609375 54.6875 
L 77.59375 54.6875 
L 63.28125 0 
L 52.6875 0 
L 40.921875 44.828125 
L 29.109375 0 
L 18.5 0 
z
" id="DejaVuSans-119"/>
      <path d="M 30.609375 48.390625 
Q 23.390625 48.390625 19.1875 42.75 
Q 14.984375 37.109375 14.984375 27.296875 
Q 14.984375 17.484375 19.15625 11.84375 
Q 23.34375 6.203125 30.609375 6.203125 
Q 37.796875 6.203125 41.984375 11.859375 
Q 46.1875 17.53125 46.1875 27.296875 
Q 46.1875 37.015625 41.984375 42.703125 
Q 37.796875 48.390625 30.609375 48.390625 
z
M 30.609375 56 
Q 42.328125 56 49.015625 48.375 
Q 55.71875 40.765625 55.71875 27.296875 
Q 55.71875 13.875 49.015625 6.21875 
Q 42.328125 -1.421875 30.609375 -1.421875 
Q 18.84375 -1.421875 12.171875 6.21875 
Q 5.515625 13.875 5.515625 27.296875 
Q 5.515625 40.765625 12.171875 48.375 
Q 18.84375 56 30.609375 56 
z
" id="DejaVuSans-111"/>
      <path d="M 9.078125 75.984375 
L 18.109375 75.984375 
L 18.109375 31.109375 
L 44.921875 54.6875 
L 56.390625 54.6875 
L 27.390625 29.109375 
L 57.625 0 
L 45.90625 0 
L 18.109375 26.703125 
L 18.109375 0 
L 9.078125 0 
z
" id="DejaVuSans-107"/>
      <path d="M 54.890625 33.015625 
L 54.890625 0 
L 45.90625 0 
L 45.90625 32.71875 
Q 45.90625 40.484375 42.875 44.328125 
Q 39.84375 48.1875 33.796875 48.1875 
Q 26.515625 48.1875 22.3125 43.546875 
Q 18.109375 38.921875 18.109375 30.90625 
L 18.109375 0 
L 9.078125 0 
L 9.078125 75.984375 
L 18.109375 75.984375 
L 18.109375 46.1875 
Q 21.34375 51.125 25.703125 53.5625 
Q 30.078125 56 35.796875 56 
Q 45.21875 56 50.046875 50.171875 
Q 54.890625 44.34375 54.890625 33.015625 
z
" id="DejaVuSans-104"/>
      <path d="M 44.28125 53.078125 
L 44.28125 44.578125 
Q 40.484375 46.53125 36.375 47.5 
Q 32.28125 48.484375 27.875 48.484375 
Q 21.1875 48.484375 17.84375 46.4375 
Q 14.5 44.390625 14.5 40.28125 
Q 14.5 37.15625 16.890625 35.375 
Q 19.28125 33.59375 26.515625 31.984375 
L 29.59375 31.296875 
Q 39.15625 29.25 43.1875 25.515625 
Q 47.21875 21.78125 47.21875 15.09375 
Q 47.21875 7.46875 41.1875 3.015625 
Q 35.15625 -1.421875 24.609375 -1.421875 
Q 20.21875 -1.421875 15.453125 -0.5625 
Q 10.6875 0.296875 5.421875 2 
L 5.421875 11.28125 
Q 10.40625 8.6875 15.234375 7.390625 
Q 20.0625 6.109375 24.8125 6.109375 
Q 31.15625 6.109375 34.5625 8.28125 
Q 37.984375 10.453125 37.984375 14.40625 
Q 37.984375 18.0625 35.515625 20.015625 
Q 33.0625 21.96875 24.703125 23.78125 
L 21.578125 24.515625 
Q 13.234375 26.265625 9.515625 29.90625 
Q 5.8125 33.546875 5.8125 39.890625 
Q 5.8125 47.609375 11.28125 51.796875 
Q 16.75 56 26.8125 56 
Q 31.78125 56 36.171875 55.265625 
Q 40.578125 54.546875 44.28125 53.078125 
z
" id="DejaVuSans-115"/>
     </defs>
     <use xlink:href="#DejaVuSans-78"/>
     <use x="74.804688" xlink:href="#DejaVuSans-101"/>
     <use x="136.328125" xlink:href="#DejaVuSans-116"/>
     <use x="175.537109" xlink:href="#DejaVuSans-119"/>
     <use x="257.324219" xlink:href="#DejaVuSans-111"/>
     <use x="318.505859" xlink:href="#DejaVuSans-114"/>
     <use x="359.619141" xlink:href="#DejaVuSans-107"/>
     <use x="417.529297" xlink:href="#DejaVuSans-58"/>
     <use x="451.220703" xlink:href="#DejaVuSans-32"/>
     <use x="483.007812" xlink:href="#DejaVuSans-104"/>
     <use x="546.386719" xlink:href="#DejaVuSans-115"/>
     <use x="598.486328" xlink:href="#DejaVuSans-97"/>
     <use x="659.765625" xlink:href="#DejaVuSans-48"/>
     <use x="723.388672" xlink:href="#DejaVuSans-53"/>
     <use x="787.011719" xlink:href="#DejaVuSans-48"/>
     <use x="850.634766" xlink:href="#DejaVuSans-49"/>
     <use x="914.257812" xlink:href="#DejaVuSans-48"/>
    </g>
   </g>
  </g>
 </g>
 <defs>
  <clipPath id="pf0448e9418">
   <rect height="443.52" width="669.6" x="108" y="69.12"/>
  </clipPath>
 </defs>
</svg>
