<?xml version="1.0" encoding="utf-8" standalone="no"?>
<!DOCTYPE svg PUBLIC "-//W3C//DTD SVG 1.1//EN"
  "http://www.w3.org/Graphics/SVG/1.1/DTD/svg11.dtd">
<!-- Created with matplotlib (https://matplotlib.org/) -->
<svg height="576pt" version="1.1" viewBox="0 0 864 576" width="864pt" xmlns="http://www.w3.org/2000/svg" xmlns:xlink="http://www.w3.org/1999/xlink">
 <metadata>
  <rdf:RDF xmlns:cc="http://creativecommons.org/ns#" xmlns:dc="http://purl.org/dc/elements/1.1/" xmlns:rdf="http://www.w3.org/1999/02/22-rdf-syntax-ns#">
   <cc:Work>
    <dc:type rdf:resource="http://purl.org/dc/dcmitype/StillImage"/>
    <dc:date>2024-04-26T13:37:57.990813</dc:date>
    <dc:format>image/svg+xml</dc:format>
    <dc:creator>
     <cc:Agent>
      <dc:title>Matplotlib v3.3.1, https://matplotlib.org/</dc:title>
     </cc:Agent>
    </dc:creator>
   </cc:Work>
  </rdf:RDF>
 </metadata>
 <defs>
  <style type="text/css">*{stroke-linecap:butt;stroke-linejoin:round;}</style>
 </defs>
 <g id="figure_1">
  <g id="patch_1">
   <path d="M 0 576 
L 864 576 
L 864 0 
L 0 0 
z
" style="fill:#ffffff;"/>
  </g>
  <g id="axes_1">
   <g id="patch_2">
    <path clip-path="url(#p27c92e7414)" d="M 395.584026 327.3458 
Q 384.514301 331.844116 374.480356 335.92153 
" style="fill:none;stroke:#000000;stroke-linecap:round;"/>
    <path clip-path="url(#p27c92e7414)" d="M 378.939009 336.268527 
L 374.480356 335.92153 
L 377.433145 332.562805 
L 378.939009 336.268527 
z
" style="stroke:#000000;stroke-linecap:round;"/>
   </g>
   <g id="patch_3">
    <path clip-path="url(#p27c92e7414)" d="M 405.64601 332.506907 
Q 421.759107 399.121681 437.609349 464.649759 
" style="fill:none;stroke:#000000;stroke-linecap:round;"/>
    <path clip-path="url(#p27c92e7414)" d="M 438.61287 460.29167 
L 437.609349 464.649759 
L 434.72499 461.232089 
L 438.61287 460.29167 
z
" style="stroke:#000000;stroke-linecap:round;"/>
   </g>
   <g id="patch_4">
    <path clip-path="url(#p27c92e7414)" d="M 411.689447 327.188618 
Q 530.237817 372.723537 647.742496 417.857569 
" style="fill:none;stroke:#000000;stroke-linecap:round;"/>
    <path clip-path="url(#p27c92e7414)" d="M 644.725601 414.556305 
L 647.742496 417.857569 
L 643.291348 418.290326 
L 644.725601 414.556305 
z
" style="stroke:#000000;stroke-linecap:round;"/>
   </g>
   <g id="patch_5">
    <path clip-path="url(#p27c92e7414)" d="M 399.965359 316.225051 
Q 369.554869 250.62303 339.61459 186.035357 
" style="fill:none;stroke:#000000;stroke-linecap:round;"/>
    <path clip-path="url(#p27c92e7414)" d="M 339.482349 190.505537 
L 339.61459 186.035357 
L 343.11139 188.823258 
L 339.482349 190.505537 
z
" style="stroke:#000000;stroke-linecap:round;"/>
   </g>
   <g id="patch_6">
    <path clip-path="url(#p27c92e7414)" d="M 396.456354 319.200423 
Q 316.579314 264.652737 237.625562 210.735561 
" style="fill:none;stroke:#000000;stroke-linecap:round;"/>
    <path clip-path="url(#p27c92e7414)" d="M 239.800926 214.642963 
L 237.625562 210.735561 
L 242.056702 211.339711 
L 239.800926 214.642963 
z
" style="stroke:#000000;stroke-linecap:round;"/>
   </g>
   <g id="patch_7">
    <path clip-path="url(#p27c92e7414)" d="M 402.307329 407.297958 
Q 327.466766 406.385921 253.744155 405.487508 
" style="fill:none;stroke:#000000;stroke-linecap:round;"/>
    <path clip-path="url(#p27c92e7414)" d="M 257.719487 407.536101 
L 253.744155 405.487508 
L 257.768229 403.536398 
L 257.719487 407.536101 
z
" style="stroke:#000000;stroke-linecap:round;"/>
   </g>
   <g id="patch_8">
    <path clip-path="url(#p27c92e7414)" d="M 376.72221 454.762278 
Q 391.309118 434.590578 405.240883 415.324851 
" style="fill:none;stroke:#000000;stroke-linecap:round;"/>
    <path clip-path="url(#p27c92e7414)" d="M 401.276318 417.394204 
L 405.240883 415.324851 
L 404.517626 419.738115 
L 401.276318 417.394204 
z
" style="stroke:#000000;stroke-linecap:round;"/>
   </g>
   <g id="patch_9">
    <path clip-path="url(#p27c92e7414)" d="M 462.327189 260.181868 
Q 435.896942 288.945803 410.223162 316.886478 
" style="fill:none;stroke:#000000;stroke-linecap:round;"/>
    <path clip-path="url(#p27c92e7414)" d="M 414.402274 315.294302 
L 410.223162 316.886478 
L 411.456888 312.587883 
L 414.402274 315.294302 
z
" style="stroke:#000000;stroke-linecap:round;"/>
   </g>
   <g id="patch_10">
    <path clip-path="url(#p27c92e7414)" d="M 457.819677 340.266776 
Q 483.159759 346.660255 507.415779 352.780218 
" style="fill:none;stroke:#000000;stroke-linecap:round;"/>
    <path clip-path="url(#p27c92e7414)" d="M 504.026604 349.862428 
L 507.415779 352.780218 
L 503.048043 353.740884 
L 504.026604 349.862428 
z
" style="stroke:#000000;stroke-linecap:round;"/>
   </g>
   <g id="patch_11">
    <path clip-path="url(#p27c92e7414)" d="M 453.24279 345.91732 
Q 460.353578 360.377644 466.971003 373.834678 
" style="fill:none;stroke:#000000;stroke-linecap:round;"/>
    <path clip-path="url(#p27c92e7414)" d="M 467.000636 369.36264 
L 466.971003 373.834678 
L 463.411153 371.12775 
L 467.000636 369.36264 
z
" style="stroke:#000000;stroke-linecap:round;"/>
   </g>
   <g id="patch_12">
    <path clip-path="url(#p27c92e7414)" d="M 447.906031 346.672358 
Q 445.726881 358.92333 443.743528 370.073547 
" style="fill:none;stroke:#000000;stroke-linecap:round;"/>
    <path clip-path="url(#p27c92e7414)" d="M 446.413127 366.485617 
L 443.743528 370.073547 
L 442.474944 365.78511 
L 446.413127 366.485617 
z
" style="stroke:#000000;stroke-linecap:round;"/>
   </g>
   <g id="patch_13">
    <path clip-path="url(#p27c92e7414)" d="M 419.526943 318.077742 
Q 396.498178 327.239357 374.508256 335.987687 
" style="fill:none;stroke:#000000;stroke-linecap:round;"/>
    <path clip-path="url(#p27c92e7414)" d="M 378.964243 336.367406 
L 374.508256 335.987687 
L 377.485624 332.65073 
L 378.964243 336.367406 
z
" style="stroke:#000000;stroke-linecap:round;"/>
   </g>
   <g id="patch_14">
    <path clip-path="url(#p27c92e7414)" d="M 428.241685 323.514339 
Q 433.740341 394.51454 439.152669 464.400045 
" style="fill:none;stroke:#000000;stroke-linecap:round;"/>
    <path clip-path="url(#p27c92e7414)" d="M 440.83784 460.257558 
L 439.152669 464.400045 
L 436.849782 460.566416 
L 440.83784 460.257558 
z
" style="stroke:#000000;stroke-linecap:round;"/>
   </g>
   <g id="patch_15">
    <path clip-path="url(#p27c92e7414)" d="M 435.427581 318.524665 
Q 542.221183 368.120042 648.000764 417.244503 
" style="fill:none;stroke:#000000;stroke-linecap:round;"/>
    <path clip-path="url(#p27c92e7414)" d="M 645.215291 413.745769 
L 648.000764 417.244503 
L 643.530493 417.373641 
L 645.215291 413.745769 
z
" style="stroke:#000000;stroke-linecap:round;"/>
   </g>
   <g id="patch_16">
    <path clip-path="url(#p27c92e7414)" d="M 422.758252 307.675683 
Q 381.536496 246.019255 340.93614 185.29227 
" style="fill:none;stroke:#000000;stroke-linecap:round;"/>
    <path clip-path="url(#p27c92e7414)" d="M 341.496688 189.729136 
L 340.93614 185.29227 
L 344.821962 187.505951 
L 341.496688 189.729136 
z
" style="stroke:#000000;stroke-linecap:round;"/>
   </g>
   <g id="patch_17">
    <path clip-path="url(#p27c92e7414)" d="M 419.997564 310.682046 
Q 328.560922 260.04846 238.102364 209.956493 
" style="fill:none;stroke:#000000;stroke-linecap:round;"/>
    <path clip-path="url(#p27c92e7414)" d="M 240.632784 213.643901 
L 238.102364 209.956493 
L 242.570542 210.144601 
L 240.632784 213.643901 
z
" style="stroke:#000000;stroke-linecap:round;"/>
   </g>
   <g id="patch_18">
    <path clip-path="url(#p27c92e7414)" d="M 443.241376 151.675939 
Q 380.625363 142.477366 319.115511 133.441294 
" style="fill:none;stroke:#000000;stroke-linecap:round;"/>
    <path clip-path="url(#p27c92e7414)" d="M 322.782347 136.001435 
L 319.115511 133.441294 
L 323.363725 132.04391 
L 322.782347 136.001435 
z
" style="stroke:#000000;stroke-linecap:round;"/>
   </g>
   <g id="patch_19">
    <path clip-path="url(#p27c92e7414)" d="M 441.667081 131.701847 
Q 379.884641 131.850354 319.220231 131.996173 
" style="fill:none;stroke:#000000;stroke-linecap:round;"/>
    <path clip-path="url(#p27c92e7414)" d="M 323.225027 133.986552 
L 319.220231 131.996173 
L 323.215412 129.986564 
L 323.225027 133.986552 
z
" style="stroke:#000000;stroke-linecap:round;"/>
   </g>
   <g id="patch_20">
    <path clip-path="url(#p27c92e7414)" d="M 409.493862 162.607658 
Q 363.608143 148.579925 318.791611 134.879053 
" style="fill:none;stroke:#000000;stroke-linecap:round;"/>
    <path clip-path="url(#p27c92e7414)" d="M 322.032144 137.961089 
L 318.791611 134.879053 
L 323.20156 134.135848 
L 322.032144 137.961089 
z
" style="stroke:#000000;stroke-linecap:round;"/>
   </g>
   <g id="patch_21">
    <path clip-path="url(#p27c92e7414)" d="M 423.814395 158.933473 
Q 434.054288 148.409409 443.514504 138.686659 
" style="fill:none;stroke:#000000;stroke-linecap:round;"/>
    <path clip-path="url(#p27c92e7414)" d="M 439.291614 140.158799 
L 443.514504 138.686659 
L 442.158482 142.948256 
L 439.291614 140.158799 
z
" style="stroke:#000000;stroke-linecap:round;"/>
   </g>
   <g id="patch_22">
    <path clip-path="url(#p27c92e7414)" d="M 425.92392 162.218102 
Q 434.793603 159.037901 442.610856 156.235046 
" style="fill:none;stroke:#000000;stroke-linecap:round;"/>
    <path clip-path="url(#p27c92e7414)" d="M 438.170549 155.702436 
L 442.610856 156.235046 
L 439.520583 159.467725 
L 438.170549 155.702436 
z
" style="stroke:#000000;stroke-linecap:round;"/>
   </g>
   <g id="patch_23">
    <path clip-path="url(#p27c92e7414)" d="M 404.437359 319.85923 
Q 388.793211 327.775756 374.146642 335.18747 
" style="fill:none;stroke:#000000;stroke-linecap:round;"/>
    <path clip-path="url(#p27c92e7414)" d="M 378.618726 335.165921 
L 374.146642 335.18747 
L 376.812654 331.596874 
L 378.618726 335.165921 
z
" style="stroke:#000000;stroke-linecap:round;"/>
   </g>
   <g id="patch_24">
    <path clip-path="url(#p27c92e7414)" d="M 413.662278 324.4792 
Q 426.037433 395.05204 438.219484 464.523649 
" style="fill:none;stroke:#000000;stroke-linecap:round;"/>
    <path clip-path="url(#p27c92e7414)" d="M 439.498557 460.238328 
L 438.219484 464.523649 
L 435.558671 460.929199 
L 439.498557 460.238328 
z
" style="stroke:#000000;stroke-linecap:round;"/>
   </g>
   <g id="patch_25">
    <path clip-path="url(#p27c92e7414)" d="M 420.123252 319.375833 
Q 534.521519 368.657209 647.892976 417.496248 
" style="fill:none;stroke:#000000;stroke-linecap:round;"/>
    <path clip-path="url(#p27c92e7414)" d="M 645.010627 414.076883 
L 647.892976 417.496248 
L 643.428074 417.750508 
L 645.010627 414.076883 
z
" style="stroke:#000000;stroke-linecap:round;"/>
   </g>
   <g id="patch_26">
    <path clip-path="url(#p27c92e7414)" d="M 407.980817 308.371135 
Q 373.835435 246.558332 340.230658 185.724174 
" style="fill:none;stroke:#000000;stroke-linecap:round;"/>
    <path clip-path="url(#p27c92e7414)" d="M 340.414126 190.192545 
L 340.230658 185.724174 
L 343.915435 188.258422 
L 340.414126 190.192545 
z
" style="stroke:#000000;stroke-linecap:round;"/>
   </g>
   <g id="patch_27">
    <path clip-path="url(#p27c92e7414)" d="M 404.762511 311.458864 
Q 320.856931 260.583627 237.907373 210.288064 
" style="fill:none;stroke:#000000;stroke-linecap:round;"/>
    <path clip-path="url(#p27c92e7414)" d="M 240.29079 214.072152 
L 237.907373 210.288064 
L 242.364694 210.651783 
L 240.29079 214.072152 
z
" style="stroke:#000000;stroke-linecap:round;"/>
   </g>
   <g id="patch_28">
    <path clip-path="url(#p27c92e7414)" d="M 418.379934 116.270123 
Q 418.131424 136.375374 417.896733 155.362675 
" style="fill:none;stroke:#000000;stroke-linecap:round;"/>
    <path clip-path="url(#p27c92e7414)" d="M 419.946018 151.3877 
L 417.896733 155.362675 
L 415.946324 151.338262 
L 419.946018 151.3877 
z
" style="stroke:#000000;stroke-linecap:round;"/>
   </g>
   <g id="patch_29">
    <path clip-path="url(#p27c92e7414)" d="M 356.829922 338.537036 
Q 265.764792 327.242467 175.809196 316.085511 
" style="fill:none;stroke:#000000;stroke-linecap:round;"/>
    <path clip-path="url(#p27c92e7414)" d="M 179.532612 318.562641 
L 175.809196 316.085511 
L 180.024949 314.593056 
L 179.532612 318.562641 
z
" style="stroke:#000000;stroke-linecap:round;"/>
   </g>
   <g id="patch_30">
    <path clip-path="url(#p27c92e7414)" d="M 440.344559 365.272011 
Q 495.249768 381.941677 549.085164 398.286539 
" style="fill:none;stroke:#000000;stroke-linecap:round;"/>
    <path clip-path="url(#p27c92e7414)" d="M 545.838708 395.210742 
L 549.085164 398.286539 
L 544.676653 399.038225 
L 545.838708 395.210742 
z
" style="stroke:#000000;stroke-linecap:round;"/>
   </g>
   <g id="patch_31">
    <path clip-path="url(#p27c92e7414)" d="M 440.520305 364.573079 
Q 480.156018 373.084075 518.698615 381.360345 
" style="fill:none;stroke:#000000;stroke-linecap:round;"/>
    <path clip-path="url(#p27c92e7414)" d="M 515.207652 378.565139 
L 518.698615 381.360345 
L 514.367872 382.475992 
L 515.207652 378.565139 
z
" style="stroke:#000000;stroke-linecap:round;"/>
   </g>
   <g id="patch_32">
    <path clip-path="url(#p27c92e7414)" d="M 440.593434 361.306603 
Q 492.166574 352.553933 542.637441 343.988333 
" style="fill:none;stroke:#000000;stroke-linecap:round;"/>
    <path clip-path="url(#p27c92e7414)" d="M 538.359189 342.685813 
L 542.637441 343.988333 
L 539.028474 346.629423 
L 538.359189 342.685813 
z
" style="stroke:#000000;stroke-linecap:round;"/>
   </g>
   <g id="patch_33">
    <path clip-path="url(#p27c92e7414)" d="M 440.519547 348.56012 
Q 495.523334 373.079689 549.505956 397.144044 
" style="fill:none;stroke:#000000;stroke-linecap:round;"/>
    <path clip-path="url(#p27c92e7414)" d="M 546.666835 393.688701 
L 549.505956 397.144044 
L 545.038209 397.342135 
L 546.666835 393.688701 
z
" style="stroke:#000000;stroke-linecap:round;"/>
   </g>
   <g id="patch_34">
    <path clip-path="url(#p27c92e7414)" d="M 440.648946 348.259915 
Q 480.435097 364.223841 519.183625 379.771427 
" style="fill:none;stroke:#000000;stroke-linecap:round;"/>
    <path clip-path="url(#p27c92e7414)" d="M 516.216082 376.42573 
L 519.183625 379.771427 
L 514.726541 380.138043 
L 516.216082 376.42573 
z
" style="stroke:#000000;stroke-linecap:round;"/>
   </g>
   <g id="patch_35">
    <path clip-path="url(#p27c92e7414)" d="M 441.271674 344.841425 
Q 492.446928 343.69389 542.504428 342.571419 
" style="fill:none;stroke:#000000;stroke-linecap:round;"/>
    <path clip-path="url(#p27c92e7414)" d="M 538.460598 340.661593 
L 542.504428 342.571419 
L 538.55027 344.660588 
L 538.460598 340.661593 
z
" style="stroke:#000000;stroke-linecap:round;"/>
   </g>
   <g id="patch_36">
    <path clip-path="url(#p27c92e7414)" d="M 566.950849 399.516501 
Q 638.969958 385.88814 709.890527 372.467658 
" style="fill:none;stroke:#000000;stroke-linecap:round;"/>
    <path clip-path="url(#p27c92e7414)" d="M 705.588412 371.246265 
L 709.890527 372.467658 
L 706.332143 375.176515 
L 705.588412 371.246265 
z
" style="stroke:#000000;stroke-linecap:round;"/>
   </g>
   <g id="patch_37">
    <path clip-path="url(#p27c92e7414)" d="M 557.136001 409.69179 
Q 554.065505 429.850251 551.163365 448.903426 
" style="fill:none;stroke:#000000;stroke-linecap:round;"/>
    <path clip-path="url(#p27c92e7414)" d="M 553.742885 445.250197 
L 551.163365 448.903426 
L 549.788494 444.647873 
L 553.742885 445.250197 
z
" style="stroke:#000000;stroke-linecap:round;"/>
   </g>
   <g id="patch_38">
    <path clip-path="url(#p27c92e7414)" d="M 536.901252 382.837036 
Q 623.877812 377.032004 709.738819 371.301427 
" style="fill:none;stroke:#000000;stroke-linecap:round;"/>
    <path clip-path="url(#p27c92e7414)" d="M 705.61451 369.572244 
L 709.738819 371.301427 
L 705.880887 373.563365 
L 705.61451 369.572244 
z
" style="stroke:#000000;stroke-linecap:round;"/>
   </g>
   <g id="patch_39">
    <path clip-path="url(#p27c92e7414)" d="M 530.635117 391.739126 
Q 538.976305 420.990726 547.010902 449.16715 
" style="fill:none;stroke:#000000;stroke-linecap:round;"/>
    <path clip-path="url(#p27c92e7414)" d="M 547.837346 444.77204 
L 547.010902 449.16715 
L 543.990681 445.868929 
L 547.837346 444.77204 
z
" style="stroke:#000000;stroke-linecap:round;"/>
   </g>
   <g id="patch_40">
    <path clip-path="url(#p27c92e7414)" d="M 560.817528 343.797484 
Q 635.887271 356.501531 709.854654 369.019026 
" style="fill:none;stroke:#000000;stroke-linecap:round;"/>
    <path clip-path="url(#p27c92e7414)" d="M 706.244445 366.379634 
L 709.854654 369.019026 
L 705.577015 370.323558 
L 706.244445 366.379634 
z
" style="stroke:#000000;stroke-linecap:round;"/>
   </g>
   <g id="patch_41">
    <path clip-path="url(#p27c92e7414)" d="M 552.084925 351.009522 
Q 550.984464 400.46056 549.908878 448.793841 
" style="fill:none;stroke:#000000;stroke-linecap:round;"/>
    <path clip-path="url(#p27c92e7414)" d="M 551.997375 444.839327 
L 549.908878 448.793841 
L 547.998365 444.750335 
L 551.997375 444.839327 
z
" style="stroke:#000000;stroke-linecap:round;"/>
   </g>
   <g id="patch_42">
    <path clip-path="url(#p27c92e7414)" d="M 522.70684 361.598473 
Q 537.669691 378.150287 551.882786 393.872724 
" style="fill:none;stroke:#000000;stroke-linecap:round;"/>
    <path clip-path="url(#p27c92e7414)" d="M 550.684008 389.564252 
L 551.882786 393.872724 
L 547.716741 392.246663 
L 550.684008 389.564252 
z
" style="stroke:#000000;stroke-linecap:round;"/>
   </g>
   <g id="patch_43">
    <path clip-path="url(#p27c92e7414)" d="M 520.131219 363.208498 
Q 522.580007 369.294477 524.611453 374.343235 
" style="fill:none;stroke:#000000;stroke-linecap:round;"/>
    <path clip-path="url(#p27c92e7414)" d="M 524.973762 369.8858 
L 524.611453 374.343235 
L 521.26289 371.378927 
L 524.973762 369.8858 
z
" style="stroke:#000000;stroke-linecap:round;"/>
   </g>
   <g id="patch_44">
    <path clip-path="url(#p27c92e7414)" d="M 525.03882 352.222618 
Q 534.586684 348.762815 543.083397 345.683911 
" style="fill:none;stroke:#000000;stroke-linecap:round;"/>
    <path clip-path="url(#p27c92e7414)" d="M 538.641317 345.166303 
L 543.083397 345.683911 
L 540.004062 348.927011 
L 538.641317 345.166303 
z
" style="stroke:#000000;stroke-linecap:round;"/>
   </g>
   <g id="patch_45">
    <path clip-path="url(#p27c92e7414)" d="M 479.757034 384.408883 
Q 514.865439 391.86843 548.880222 399.095612 
" style="fill:none;stroke:#000000;stroke-linecap:round;"/>
    <path clip-path="url(#p27c92e7414)" d="M 545.383229 396.307954 
L 548.880222 399.095612 
L 544.551899 400.220612 
L 545.383229 396.307954 
z
" style="stroke:#000000;stroke-linecap:round;"/>
   </g>
   <g id="patch_46">
    <path clip-path="url(#p27c92e7414)" d="M 479.948169 382.731317 
Q 499.774339 383.011347 518.482586 383.275587 
" style="fill:none;stroke:#000000;stroke-linecap:round;"/>
    <path clip-path="url(#p27c92e7414)" d="M 514.51123 381.219295 
L 518.482586 383.275587 
L 514.454739 385.218896 
L 514.51123 381.219295 
z
" style="stroke:#000000;stroke-linecap:round;"/>
   </g>
   <g id="patch_47">
    <path clip-path="url(#p27c92e7414)" d="M 479.039359 378.755046 
Q 511.780652 362.481112 543.520765 346.70481 
" style="fill:none;stroke:#000000;stroke-linecap:round;"/>
    <path clip-path="url(#p27c92e7414)" d="M 539.048642 346.69423 
L 543.520765 346.70481 
L 540.829027 350.276161 
L 539.048642 346.69423 
z
" style="stroke:#000000;stroke-linecap:round;"/>
   </g>
   <g id="patch_48">
    <path clip-path="url(#p27c92e7414)" d="M 450.546338 381.269063 
Q 500.234391 390.414113 548.822879 399.356788 
" style="fill:none;stroke:#000000;stroke-linecap:round;"/>
    <path clip-path="url(#p27c92e7414)" d="M 545.250971 396.665789 
L 548.822879 399.356788 
L 544.526935 400.599715 
L 545.250971 396.665789 
z
" style="stroke:#000000;stroke-linecap:round;"/>
   </g>
   <g id="patch_49">
    <path clip-path="url(#p27c92e7414)" d="M 450.680757 380.074147 
Q 485.145387 381.557725 518.493017 382.99322 
" style="fill:none;stroke:#000000;stroke-linecap:round;"/>
    <path clip-path="url(#p27c92e7414)" d="M 514.582731 380.823045 
L 518.493017 382.99322 
L 514.410705 384.819344 
L 514.582731 380.823045 
z
" style="stroke:#000000;stroke-linecap:round;"/>
   </g>
   <g id="patch_50">
    <path clip-path="url(#p27c92e7414)" d="M 450.230089 376.924067 
Q 497.153934 361.027138 543.018863 345.488951 
" style="fill:none;stroke:#000000;stroke-linecap:round;"/>
    <path clip-path="url(#p27c92e7414)" d="M 538.588631 344.878175 
L 543.018863 345.488951 
L 539.872103 348.666671 
L 538.588631 344.878175 
z
" style="stroke:#000000;stroke-linecap:round;"/>
   </g>
   <g id="patch_51">
    <path clip-path="url(#p27c92e7414)" d="M 326.844138 177.316651 
Q 273.685748 178.242587 221.645223 179.149051 
" style="fill:none;stroke:#000000;stroke-linecap:round;"/>
    <path clip-path="url(#p27c92e7414)" d="M 225.679448 181.079084 
L 221.645223 179.149051 
L 225.609785 177.079691 
L 225.679448 181.079084 
z
" style="stroke:#000000;stroke-linecap:round;"/>
   </g>
   <g id="patch_52">
    <path clip-path="url(#p27c92e7414)" d="M 224.665128 198.064777 
Q 220.708481 192.267453 217.382091 187.393588 
" style="fill:none;stroke:#000000;stroke-linecap:round;"/>
    <path clip-path="url(#p27c92e7414)" d="M 217.985031 191.824893 
L 217.382091 187.393588 
L 221.288899 189.570019 
L 217.985031 191.824893 
z
" style="stroke:#000000;stroke-linecap:round;"/>
   </g>
   <g id="patch_53">
    <path clip-path="url(#p27c92e7414)" d="M 502.495461 279.155907 
Q 456.994879 299.828994 412.512193 320.039603 
" style="fill:none;stroke:#000000;stroke-linecap:round;"/>
    <path clip-path="url(#p27c92e7414)" d="M 416.981238 320.205856 
L 412.512193 320.039603 
L 415.326623 316.564119 
L 416.981238 320.205856 
z
" style="stroke:#000000;stroke-linecap:round;"/>
   </g>
   <g id="PathCollection_1">
    <defs>
     <path d="M 0 8.660254 
C 2.296726 8.660254 4.499694 7.747755 6.123724 6.123724 
C 7.747755 4.499694 8.660254 2.296726 8.660254 -0 
C 8.660254 -2.296726 7.747755 -4.499694 6.123724 -6.123724 
C 4.499694 -7.747755 2.296726 -8.660254 0 -8.660254 
C -2.296726 -8.660254 -4.499694 -7.747755 -6.123724 -6.123724 
C -7.747755 -4.499694 -8.660254 -2.296726 -8.660254 0 
C -8.660254 2.296726 -7.747755 4.499694 -6.123724 6.123724 
C -4.499694 7.747755 -2.296726 8.660254 0 8.660254 
z
" id="C0_0_5edc7e36fb"/>
    </defs>
    <g clip-path="url(#p27c92e7414)">
     <use style="fill:#ff0000;stroke:#ff0000;" x="403.608837" xlink:href="#C0_0_5edc7e36fb" y="324.084822"/>
    </g>
    <g clip-path="url(#p27c92e7414)">
     <use style="fill:#008000;stroke:#008000;" x="410.969097" xlink:href="#C0_0_5edc7e36fb" y="407.403514"/>
    </g>
    <g clip-path="url(#p27c92e7414)">
     <use style="fill:#008000;stroke:#008000;" x="371.646019" xlink:href="#C0_0_5edc7e36fb" y="461.781956"/>
    </g>
    <g clip-path="url(#p27c92e7414)">
     <use style="fill:#ff0000;stroke:#ff0000;" x="468.186214" xlink:href="#C0_0_5edc7e36fb" y="253.805513"/>
    </g>
    <g clip-path="url(#p27c92e7414)">
     <use style="fill:#ff0000;stroke:#ff0000;" x="166.105785" xlink:href="#C0_0_5edc7e36fb" y="314.882023"/>
    </g>
    <g clip-path="url(#p27c92e7414)">
     <use style="fill:#ff0000;stroke:#ff0000;" x="449.422297" xlink:href="#C0_0_5edc7e36fb" y="338.148058"/>
    </g>
    <g clip-path="url(#p27c92e7414)">
     <use style="fill:#ff0000;stroke:#ff0000;" x="427.572749" xlink:href="#C0_0_5edc7e36fb" y="314.87685"/>
    </g>
    <g clip-path="url(#p27c92e7414)">
     <use style="fill:#ff0000;stroke:#ff0000;" x="211.871423" xlink:href="#C0_0_5edc7e36fb" y="179.319295"/>
    </g>
    <g clip-path="url(#p27c92e7414)">
     <use style="fill:#ff0000;stroke:#ff0000;" x="451.813977" xlink:href="#C0_0_5edc7e36fb" y="152.935292"/>
    </g>
    <g clip-path="url(#p27c92e7414)">
     <use style="fill:#ff0000;stroke:#ff0000;" x="309.438414" xlink:href="#C0_0_5edc7e36fb" y="132.019686"/>
    </g>
    <g clip-path="url(#p27c92e7414)">
     <use style="fill:#008000;stroke:#008000;" x="450.330976" xlink:href="#C0_0_5edc7e36fb" y="131.681022"/>
    </g>
    <g clip-path="url(#p27c92e7414)">
     <use style="fill:#ff0000;stroke:#ff0000;" x="417.775886" xlink:href="#C0_0_5edc7e36fb" y="165.139557"/>
    </g>
    <g clip-path="url(#p27c92e7414)">
     <use style="fill:#ff0000;stroke:#ff0000;" x="412.166322" xlink:href="#C0_0_5edc7e36fb" y="315.948084"/>
    </g>
    <g clip-path="url(#p27c92e7414)">
     <use style="fill:#008000;stroke:#008000;" x="243.961853" xlink:href="#C0_0_5edc7e36fb" y="405.368297"/>
    </g>
    <g clip-path="url(#p27c92e7414)">
     <use style="fill:#ff0000;stroke:#ff0000;" x="418.487011" xlink:href="#C0_0_5edc7e36fb" y="107.607273"/>
    </g>
    <g clip-path="url(#p27c92e7414)">
     <use style="fill:#ff0000;stroke:#ff0000;" x="365.421647" xlink:href="#C0_0_5edc7e36fb" y="339.602645"/>
    </g>
    <g clip-path="url(#p27c92e7414)">
     <use style="fill:#ff0000;stroke:#ff0000;" x="432.055968" xlink:href="#C0_0_5edc7e36fb" y="362.755528"/>
    </g>
    <g clip-path="url(#p27c92e7414)">
     <use style="fill:#ff0000;stroke:#ff0000;" x="432.613089" xlink:href="#C0_0_5edc7e36fb" y="345.035581"/>
    </g>
    <g clip-path="url(#p27c92e7414)">
     <use style="fill:#ff0000;stroke:#ff0000;" x="439.907971" xlink:href="#C0_0_5edc7e36fb" y="474.152727"/>
    </g>
    <g clip-path="url(#p27c92e7414)">
     <use style="fill:#ff0000;stroke:#ff0000;" x="656.870858" xlink:href="#C0_0_5edc7e36fb" y="421.36381"/>
    </g>
    <g clip-path="url(#p27c92e7414)">
     <use style="fill:#ff0000;stroke:#ff0000;" x="719.494215" xlink:href="#C0_0_5edc7e36fb" y="370.650328"/>
    </g>
    <g clip-path="url(#p27c92e7414)">
     <use style="fill:#ff0000;stroke:#ff0000;" x="549.691384" xlink:href="#C0_0_5edc7e36fb" y="458.567294"/>
    </g>
    <g clip-path="url(#p27c92e7414)">
     <use style="fill:#ff0000;stroke:#ff0000;" x="558.440585" xlink:href="#C0_0_5edc7e36fb" y="401.12692"/>
    </g>
    <g clip-path="url(#p27c92e7414)">
     <use style="fill:#ff0000;stroke:#ff0000;" x="528.261096" xlink:href="#C0_0_5edc7e36fb" y="383.413701"/>
    </g>
    <g clip-path="url(#p27c92e7414)">
     <use style="fill:#ff0000;stroke:#ff0000;" x="552.27758" xlink:href="#C0_0_5edc7e36fb" y="342.352269"/>
    </g>
    <g clip-path="url(#p27c92e7414)">
     <use style="fill:#ff0000;stroke:#ff0000;" x="516.897856" xlink:href="#C0_0_5edc7e36fb" y="355.172612"/>
    </g>
    <g clip-path="url(#p27c92e7414)">
     <use style="fill:#ff0000;stroke:#ff0000;" x="471.285713" xlink:href="#C0_0_5edc7e36fb" y="382.608966"/>
    </g>
    <g clip-path="url(#p27c92e7414)">
     <use style="fill:#ff0000;stroke:#ff0000;" x="442.030895" xlink:href="#C0_0_5edc7e36fb" y="379.701802"/>
    </g>
    <g clip-path="url(#p27c92e7414)">
     <use style="fill:#ff0000;stroke:#ff0000;" x="335.503028" xlink:href="#C0_0_5edc7e36fb" y="177.165827"/>
    </g>
    <g clip-path="url(#p27c92e7414)">
     <use style="fill:#ff0000;stroke:#ff0000;" x="229.548271" xlink:href="#C0_0_5edc7e36fb" y="205.219613"/>
    </g>
    <g clip-path="url(#p27c92e7414)">
     <use style="fill:#ff0000;stroke:#ff0000;" x="510.377327" xlink:href="#C0_0_5edc7e36fb" y="275.574799"/>
    </g>
   </g>
   <g id="text_1">
    <g clip-path="url(#p27c92e7414)">
     <!-- ERBB2 -->
     <g transform="translate(383.597899 327.396072)scale(0.12 -0.12)">
      <defs>
       <path d="M 9.8125 72.90625 
L 55.90625 72.90625 
L 55.90625 64.59375 
L 19.671875 64.59375 
L 19.671875 43.015625 
L 54.390625 43.015625 
L 54.390625 34.71875 
L 19.671875 34.71875 
L 19.671875 8.296875 
L 56.78125 8.296875 
L 56.78125 0 
L 9.8125 0 
z
" id="DejaVuSans-69"/>
       <path d="M 44.390625 34.1875 
Q 47.5625 33.109375 50.5625 29.59375 
Q 53.5625 26.078125 56.59375 19.921875 
L 66.609375 0 
L 56 0 
L 46.6875 18.703125 
Q 43.0625 26.03125 39.671875 28.421875 
Q 36.28125 30.8125 30.421875 30.8125 
L 19.671875 30.8125 
L 19.671875 0 
L 9.8125 0 
L 9.8125 72.90625 
L 32.078125 72.90625 
Q 44.578125 72.90625 50.734375 67.671875 
Q 56.890625 62.453125 56.890625 51.90625 
Q 56.890625 45.015625 53.6875 40.46875 
Q 50.484375 35.9375 44.390625 34.1875 
z
M 19.671875 64.796875 
L 19.671875 38.921875 
L 32.078125 38.921875 
Q 39.203125 38.921875 42.84375 42.21875 
Q 46.484375 45.515625 46.484375 51.90625 
Q 46.484375 58.296875 42.84375 61.546875 
Q 39.203125 64.796875 32.078125 64.796875 
z
" id="DejaVuSans-82"/>
       <path d="M 19.671875 34.8125 
L 19.671875 8.109375 
L 35.5 8.109375 
Q 43.453125 8.109375 47.28125 11.40625 
Q 51.125 14.703125 51.125 21.484375 
Q 51.125 28.328125 47.28125 31.5625 
Q 43.453125 34.8125 35.5 34.8125 
z
M 19.671875 64.796875 
L 19.671875 42.828125 
L 34.28125 42.828125 
Q 41.5 42.828125 45.03125 45.53125 
Q 48.578125 48.25 48.578125 53.8125 
Q 48.578125 59.328125 45.03125 62.0625 
Q 41.5 64.796875 34.28125 64.796875 
z
M 9.8125 72.90625 
L 35.015625 72.90625 
Q 46.296875 72.90625 52.390625 68.21875 
Q 58.5 63.53125 58.5 54.890625 
Q 58.5 48.1875 55.375 44.234375 
Q 52.25 40.28125 46.1875 39.3125 
Q 53.46875 37.75 57.5 32.78125 
Q 61.53125 27.828125 61.53125 20.40625 
Q 61.53125 10.640625 54.890625 5.3125 
Q 48.25 0 35.984375 0 
L 9.8125 0 
z
" id="DejaVuSans-66"/>
       <path d="M 19.1875 8.296875 
L 53.609375 8.296875 
L 53.609375 0 
L 7.328125 0 
L 7.328125 8.296875 
Q 12.9375 14.109375 22.625 23.890625 
Q 32.328125 33.6875 34.8125 36.53125 
Q 39.546875 41.84375 41.421875 45.53125 
Q 43.3125 49.21875 43.3125 52.78125 
Q 43.3125 58.59375 39.234375 62.25 
Q 35.15625 65.921875 28.609375 65.921875 
Q 23.96875 65.921875 18.8125 64.3125 
Q 13.671875 62.703125 7.8125 59.421875 
L 7.8125 69.390625 
Q 13.765625 71.78125 18.9375 73 
Q 24.125 74.21875 28.421875 74.21875 
Q 39.75 74.21875 46.484375 68.546875 
Q 53.21875 62.890625 53.21875 53.421875 
Q 53.21875 48.921875 51.53125 44.890625 
Q 49.859375 40.875 45.40625 35.40625 
Q 44.1875 33.984375 37.640625 27.21875 
Q 31.109375 20.453125 19.1875 8.296875 
z
" id="DejaVuSans-50"/>
      </defs>
      <use xlink:href="#DejaVuSans-69"/>
      <use x="63.183594" xlink:href="#DejaVuSans-82"/>
      <use x="132.666016" xlink:href="#DejaVuSans-66"/>
      <use x="201.269531" xlink:href="#DejaVuSans-66"/>
      <use x="269.873047" xlink:href="#DejaVuSans-50"/>
     </g>
    </g>
   </g>
   <g id="text_2">
    <g clip-path="url(#p27c92e7414)">
     <!-- EIF4EBP1 -->
     <g transform="translate(382.796285 410.714764)scale(0.12 -0.12)">
      <defs>
       <path d="M 9.8125 72.90625 
L 19.671875 72.90625 
L 19.671875 0 
L 9.8125 0 
z
" id="DejaVuSans-73"/>
       <path d="M 9.8125 72.90625 
L 51.703125 72.90625 
L 51.703125 64.59375 
L 19.671875 64.59375 
L 19.671875 43.109375 
L 48.578125 43.109375 
L 48.578125 34.8125 
L 19.671875 34.8125 
L 19.671875 0 
L 9.8125 0 
z
" id="DejaVuSans-70"/>
       <path d="M 37.796875 64.3125 
L 12.890625 25.390625 
L 37.796875 25.390625 
z
M 35.203125 72.90625 
L 47.609375 72.90625 
L 47.609375 25.390625 
L 58.015625 25.390625 
L 58.015625 17.1875 
L 47.609375 17.1875 
L 47.609375 0 
L 37.796875 0 
L 37.796875 17.1875 
L 4.890625 17.1875 
L 4.890625 26.703125 
z
" id="DejaVuSans-52"/>
       <path d="M 19.671875 64.796875 
L 19.671875 37.40625 
L 32.078125 37.40625 
Q 38.96875 37.40625 42.71875 40.96875 
Q 46.484375 44.53125 46.484375 51.125 
Q 46.484375 57.671875 42.71875 61.234375 
Q 38.96875 64.796875 32.078125 64.796875 
z
M 9.8125 72.90625 
L 32.078125 72.90625 
Q 44.34375 72.90625 50.609375 67.359375 
Q 56.890625 61.8125 56.890625 51.125 
Q 56.890625 40.328125 50.609375 34.8125 
Q 44.34375 29.296875 32.078125 29.296875 
L 19.671875 29.296875 
L 19.671875 0 
L 9.8125 0 
z
" id="DejaVuSans-80"/>
       <path d="M 12.40625 8.296875 
L 28.515625 8.296875 
L 28.515625 63.921875 
L 10.984375 60.40625 
L 10.984375 69.390625 
L 28.421875 72.90625 
L 38.28125 72.90625 
L 38.28125 8.296875 
L 54.390625 8.296875 
L 54.390625 0 
L 12.40625 0 
z
" id="DejaVuSans-49"/>
      </defs>
      <use xlink:href="#DejaVuSans-69"/>
      <use x="63.183594" xlink:href="#DejaVuSans-73"/>
      <use x="92.675781" xlink:href="#DejaVuSans-70"/>
      <use x="150.195312" xlink:href="#DejaVuSans-52"/>
      <use x="213.818359" xlink:href="#DejaVuSans-69"/>
      <use x="277.001953" xlink:href="#DejaVuSans-66"/>
      <use x="345.605469" xlink:href="#DejaVuSans-80"/>
      <use x="405.908203" xlink:href="#DejaVuSans-49"/>
     </g>
    </g>
   </g>
   <g id="text_3">
    <g clip-path="url(#p27c92e7414)">
     <!-- MTOR -->
     <g transform="translate(353.912269 465.093206)scale(0.12 -0.12)">
      <defs>
       <path d="M 9.8125 72.90625 
L 24.515625 72.90625 
L 43.109375 23.296875 
L 61.8125 72.90625 
L 76.515625 72.90625 
L 76.515625 0 
L 66.890625 0 
L 66.890625 64.015625 
L 48.09375 14.015625 
L 38.1875 14.015625 
L 19.390625 64.015625 
L 19.390625 0 
L 9.8125 0 
z
" id="DejaVuSans-77"/>
       <path d="M -0.296875 72.90625 
L 61.375 72.90625 
L 61.375 64.59375 
L 35.5 64.59375 
L 35.5 0 
L 25.59375 0 
L 25.59375 64.59375 
L -0.296875 64.59375 
z
" id="DejaVuSans-84"/>
       <path d="M 39.40625 66.21875 
Q 28.65625 66.21875 22.328125 58.203125 
Q 16.015625 50.203125 16.015625 36.375 
Q 16.015625 22.609375 22.328125 14.59375 
Q 28.65625 6.59375 39.40625 6.59375 
Q 50.140625 6.59375 56.421875 14.59375 
Q 62.703125 22.609375 62.703125 36.375 
Q 62.703125 50.203125 56.421875 58.203125 
Q 50.140625 66.21875 39.40625 66.21875 
z
M 39.40625 74.21875 
Q 54.734375 74.21875 63.90625 63.9375 
Q 73.09375 53.65625 73.09375 36.375 
Q 73.09375 19.140625 63.90625 8.859375 
Q 54.734375 -1.421875 39.40625 -1.421875 
Q 24.03125 -1.421875 14.8125 8.828125 
Q 5.609375 19.09375 5.609375 36.375 
Q 5.609375 53.65625 14.8125 63.9375 
Q 24.03125 74.21875 39.40625 74.21875 
z
" id="DejaVuSans-79"/>
      </defs>
      <use xlink:href="#DejaVuSans-77"/>
      <use x="86.279297" xlink:href="#DejaVuSans-84"/>
      <use x="147.363281" xlink:href="#DejaVuSans-79"/>
      <use x="226.074219" xlink:href="#DejaVuSans-82"/>
     </g>
    </g>
   </g>
   <g id="text_4">
    <g clip-path="url(#p27c92e7414)">
     <!-- TGFA -->
     <g transform="translate(452.864652 257.116763)scale(0.12 -0.12)">
      <defs>
       <path d="M 59.515625 10.40625 
L 59.515625 29.984375 
L 43.40625 29.984375 
L 43.40625 38.09375 
L 69.28125 38.09375 
L 69.28125 6.78125 
Q 63.578125 2.734375 56.6875 0.65625 
Q 49.8125 -1.421875 42 -1.421875 
Q 24.90625 -1.421875 15.25 8.5625 
Q 5.609375 18.5625 5.609375 36.375 
Q 5.609375 54.25 15.25 64.234375 
Q 24.90625 74.21875 42 74.21875 
Q 49.125 74.21875 55.546875 72.453125 
Q 61.96875 70.703125 67.390625 67.28125 
L 67.390625 56.78125 
Q 61.921875 61.421875 55.765625 63.765625 
Q 49.609375 66.109375 42.828125 66.109375 
Q 29.4375 66.109375 22.71875 58.640625 
Q 16.015625 51.171875 16.015625 36.375 
Q 16.015625 21.625 22.71875 14.15625 
Q 29.4375 6.6875 42.828125 6.6875 
Q 48.046875 6.6875 52.140625 7.59375 
Q 56.25 8.5 59.515625 10.40625 
z
" id="DejaVuSans-71"/>
       <path d="M 34.1875 63.1875 
L 20.796875 26.90625 
L 47.609375 26.90625 
z
M 28.609375 72.90625 
L 39.796875 72.90625 
L 67.578125 0 
L 57.328125 0 
L 50.6875 18.703125 
L 17.828125 18.703125 
L 11.1875 0 
L 0.78125 0 
z
" id="DejaVuSans-65"/>
      </defs>
      <use xlink:href="#DejaVuSans-84"/>
      <use x="61.083984" xlink:href="#DejaVuSans-71"/>
      <use x="138.574219" xlink:href="#DejaVuSans-70"/>
      <use x="186.96875" xlink:href="#DejaVuSans-65"/>
     </g>
    </g>
   </g>
   <g id="text_5">
    <g clip-path="url(#p27c92e7414)">
     <!-- GRB2 -->
     <g transform="translate(149.353598 318.193273)scale(0.12 -0.12)">
      <use xlink:href="#DejaVuSans-71"/>
      <use x="77.490234" xlink:href="#DejaVuSans-82"/>
      <use x="146.972656" xlink:href="#DejaVuSans-66"/>
      <use x="215.576172" xlink:href="#DejaVuSans-50"/>
     </g>
    </g>
   </g>
   <g id="text_6">
    <g clip-path="url(#p27c92e7414)">
     <!-- NF1 -->
     <g transform="translate(437.66511 341.459308)scale(0.12 -0.12)">
      <defs>
       <path d="M 9.8125 72.90625 
L 23.09375 72.90625 
L 55.421875 11.921875 
L 55.421875 72.90625 
L 64.984375 72.90625 
L 64.984375 0 
L 51.703125 0 
L 19.390625 60.984375 
L 19.390625 0 
L 9.8125 0 
z
" id="DejaVuSans-78"/>
      </defs>
      <use xlink:href="#DejaVuSans-78"/>
      <use x="74.804688" xlink:href="#DejaVuSans-70"/>
      <use x="132.324219" xlink:href="#DejaVuSans-49"/>
     </g>
    </g>
   </g>
   <g id="text_7">
    <g clip-path="url(#p27c92e7414)">
     <!-- IGF1R -->
     <g transform="translate(409.716187 318.1881)scale(0.12 -0.12)">
      <use xlink:href="#DejaVuSans-73"/>
      <use x="29.492188" xlink:href="#DejaVuSans-71"/>
      <use x="106.982422" xlink:href="#DejaVuSans-70"/>
      <use x="164.501953" xlink:href="#DejaVuSans-49"/>
      <use x="228.125" xlink:href="#DejaVuSans-82"/>
     </g>
    </g>
   </g>
   <g id="text_8">
    <g clip-path="url(#p27c92e7414)">
     <!-- STAT3 -->
     <g transform="translate(193.741111 182.630545)scale(0.12 -0.12)">
      <defs>
       <path d="M 53.515625 70.515625 
L 53.515625 60.890625 
Q 47.90625 63.578125 42.921875 64.890625 
Q 37.9375 66.21875 33.296875 66.21875 
Q 25.25 66.21875 20.875 63.09375 
Q 16.5 59.96875 16.5 54.203125 
Q 16.5 49.359375 19.40625 46.890625 
Q 22.3125 44.4375 30.421875 42.921875 
L 36.375 41.703125 
Q 47.40625 39.59375 52.65625 34.296875 
Q 57.90625 29 57.90625 20.125 
Q 57.90625 9.515625 50.796875 4.046875 
Q 43.703125 -1.421875 29.984375 -1.421875 
Q 24.8125 -1.421875 18.96875 -0.25 
Q 13.140625 0.921875 6.890625 3.21875 
L 6.890625 13.375 
Q 12.890625 10.015625 18.65625 8.296875 
Q 24.421875 6.59375 29.984375 6.59375 
Q 38.421875 6.59375 43.015625 9.90625 
Q 47.609375 13.234375 47.609375 19.390625 
Q 47.609375 24.75 44.3125 27.78125 
Q 41.015625 30.8125 33.5 32.328125 
L 27.484375 33.5 
Q 16.453125 35.6875 11.515625 40.375 
Q 6.59375 45.0625 6.59375 53.421875 
Q 6.59375 63.09375 13.40625 68.65625 
Q 20.21875 74.21875 32.171875 74.21875 
Q 37.3125 74.21875 42.625 73.28125 
Q 47.953125 72.359375 53.515625 70.515625 
z
" id="DejaVuSans-83"/>
       <path d="M 40.578125 39.3125 
Q 47.65625 37.796875 51.625 33 
Q 55.609375 28.21875 55.609375 21.1875 
Q 55.609375 10.40625 48.1875 4.484375 
Q 40.765625 -1.421875 27.09375 -1.421875 
Q 22.515625 -1.421875 17.65625 -0.515625 
Q 12.796875 0.390625 7.625 2.203125 
L 7.625 11.71875 
Q 11.71875 9.328125 16.59375 8.109375 
Q 21.484375 6.890625 26.8125 6.890625 
Q 36.078125 6.890625 40.9375 10.546875 
Q 45.796875 14.203125 45.796875 21.1875 
Q 45.796875 27.640625 41.28125 31.265625 
Q 36.765625 34.90625 28.71875 34.90625 
L 20.21875 34.90625 
L 20.21875 43.015625 
L 29.109375 43.015625 
Q 36.375 43.015625 40.234375 45.921875 
Q 44.09375 48.828125 44.09375 54.296875 
Q 44.09375 59.90625 40.109375 62.90625 
Q 36.140625 65.921875 28.71875 65.921875 
Q 24.65625 65.921875 20.015625 65.03125 
Q 15.375 64.15625 9.8125 62.3125 
L 9.8125 71.09375 
Q 15.4375 72.65625 20.34375 73.4375 
Q 25.25 74.21875 29.59375 74.21875 
Q 40.828125 74.21875 47.359375 69.109375 
Q 53.90625 64.015625 53.90625 55.328125 
Q 53.90625 49.265625 50.4375 45.09375 
Q 46.96875 40.921875 40.578125 39.3125 
z
" id="DejaVuSans-51"/>
      </defs>
      <use xlink:href="#DejaVuSans-83"/>
      <use x="63.476562" xlink:href="#DejaVuSans-84"/>
      <use x="116.810547" xlink:href="#DejaVuSans-65"/>
      <use x="177.46875" xlink:href="#DejaVuSans-84"/>
      <use x="238.552734" xlink:href="#DejaVuSans-51"/>
     </g>
    </g>
   </g>
   <g id="text_9">
    <g clip-path="url(#p27c92e7414)">
     <!-- BCL2 -->
     <g transform="translate(436.452102 156.246542)scale(0.12 -0.12)">
      <defs>
       <path d="M 64.40625 67.28125 
L 64.40625 56.890625 
Q 59.421875 61.53125 53.78125 63.8125 
Q 48.140625 66.109375 41.796875 66.109375 
Q 29.296875 66.109375 22.65625 58.46875 
Q 16.015625 50.828125 16.015625 36.375 
Q 16.015625 21.96875 22.65625 14.328125 
Q 29.296875 6.6875 41.796875 6.6875 
Q 48.140625 6.6875 53.78125 8.984375 
Q 59.421875 11.28125 64.40625 15.921875 
L 64.40625 5.609375 
Q 59.234375 2.09375 53.4375 0.328125 
Q 47.65625 -1.421875 41.21875 -1.421875 
Q 24.65625 -1.421875 15.125 8.703125 
Q 5.609375 18.84375 5.609375 36.375 
Q 5.609375 53.953125 15.125 64.078125 
Q 24.65625 74.21875 41.21875 74.21875 
Q 47.75 74.21875 53.53125 72.484375 
Q 59.328125 70.75 64.40625 67.28125 
z
" id="DejaVuSans-67"/>
       <path d="M 9.8125 72.90625 
L 19.671875 72.90625 
L 19.671875 8.296875 
L 55.171875 8.296875 
L 55.171875 0 
L 9.8125 0 
z
" id="DejaVuSans-76"/>
      </defs>
      <use xlink:href="#DejaVuSans-66"/>
      <use x="66.853516" xlink:href="#DejaVuSans-67"/>
      <use x="136.677734" xlink:href="#DejaVuSans-76"/>
      <use x="192.390625" xlink:href="#DejaVuSans-50"/>
     </g>
    </g>
   </g>
   <g id="text_10">
    <g clip-path="url(#p27c92e7414)">
     <!-- BAX -->
     <g transform="translate(297.107476 135.330936)scale(0.12 -0.12)">
      <defs>
       <path d="M 6.296875 72.90625 
L 16.890625 72.90625 
L 35.015625 45.796875 
L 53.21875 72.90625 
L 63.8125 72.90625 
L 40.375 37.890625 
L 65.375 0 
L 54.78125 0 
L 34.28125 31 
L 13.625 0 
L 2.984375 0 
L 29 38.921875 
z
" id="DejaVuSans-88"/>
      </defs>
      <use xlink:href="#DejaVuSans-66"/>
      <use x="68.603516" xlink:href="#DejaVuSans-65"/>
      <use x="137.011719" xlink:href="#DejaVuSans-88"/>
     </g>
    </g>
   </g>
   <g id="text_11">
    <g clip-path="url(#p27c92e7414)">
     <!-- BCL2L1 -->
     <g transform="translate(427.808476 134.992272)scale(0.12 -0.12)">
      <use xlink:href="#DejaVuSans-66"/>
      <use x="66.853516" xlink:href="#DejaVuSans-67"/>
      <use x="136.677734" xlink:href="#DejaVuSans-76"/>
      <use x="192.390625" xlink:href="#DejaVuSans-50"/>
      <use x="256.013672" xlink:href="#DejaVuSans-76"/>
      <use x="311.726562" xlink:href="#DejaVuSans-49"/>
     </g>
    </g>
   </g>
   <g id="text_12">
    <g clip-path="url(#p27c92e7414)">
     <!-- BCL2L11 -->
     <g transform="translate(391.435886 168.450807)scale(0.12 -0.12)">
      <use xlink:href="#DejaVuSans-66"/>
      <use x="66.853516" xlink:href="#DejaVuSans-67"/>
      <use x="136.677734" xlink:href="#DejaVuSans-76"/>
      <use x="192.390625" xlink:href="#DejaVuSans-50"/>
      <use x="256.013672" xlink:href="#DejaVuSans-76"/>
      <use x="311.726562" xlink:href="#DejaVuSans-49"/>
      <use x="375.349609" xlink:href="#DejaVuSans-49"/>
     </g>
    </g>
   </g>
   <g id="text_13">
    <g clip-path="url(#p27c92e7414)">
     <!-- IL6R -->
     <g transform="translate(399.066634 319.259334)scale(0.12 -0.12)">
      <defs>
       <path d="M 33.015625 40.375 
Q 26.375 40.375 22.484375 35.828125 
Q 18.609375 31.296875 18.609375 23.390625 
Q 18.609375 15.53125 22.484375 10.953125 
Q 26.375 6.390625 33.015625 6.390625 
Q 39.65625 6.390625 43.53125 10.953125 
Q 47.40625 15.53125 47.40625 23.390625 
Q 47.40625 31.296875 43.53125 35.828125 
Q 39.65625 40.375 33.015625 40.375 
z
M 52.59375 71.296875 
L 52.59375 62.3125 
Q 48.875 64.0625 45.09375 64.984375 
Q 41.3125 65.921875 37.59375 65.921875 
Q 27.828125 65.921875 22.671875 59.328125 
Q 17.53125 52.734375 16.796875 39.40625 
Q 19.671875 43.65625 24.015625 45.921875 
Q 28.375 48.1875 33.59375 48.1875 
Q 44.578125 48.1875 50.953125 41.515625 
Q 57.328125 34.859375 57.328125 23.390625 
Q 57.328125 12.15625 50.6875 5.359375 
Q 44.046875 -1.421875 33.015625 -1.421875 
Q 20.359375 -1.421875 13.671875 8.265625 
Q 6.984375 17.96875 6.984375 36.375 
Q 6.984375 53.65625 15.1875 63.9375 
Q 23.390625 74.21875 37.203125 74.21875 
Q 40.921875 74.21875 44.703125 73.484375 
Q 48.484375 72.75 52.59375 71.296875 
z
" id="DejaVuSans-54"/>
      </defs>
      <use xlink:href="#DejaVuSans-73"/>
      <use x="29.492188" xlink:href="#DejaVuSans-76"/>
      <use x="85.205078" xlink:href="#DejaVuSans-54"/>
      <use x="148.828125" xlink:href="#DejaVuSans-82"/>
     </g>
    </g>
   </g>
   <g id="text_14">
    <g clip-path="url(#p27c92e7414)">
     <!-- EIF4E -->
     <g transform="translate(227.340916 408.679547)scale(0.12 -0.12)">
      <use xlink:href="#DejaVuSans-69"/>
      <use x="63.183594" xlink:href="#DejaVuSans-73"/>
      <use x="92.675781" xlink:href="#DejaVuSans-70"/>
      <use x="150.195312" xlink:href="#DejaVuSans-52"/>
      <use x="213.818359" xlink:href="#DejaVuSans-69"/>
     </g>
    </g>
   </g>
   <g id="text_15">
    <g clip-path="url(#p27c92e7414)">
     <!-- FOXO3 -->
     <g transform="translate(398.427323 110.918523)scale(0.12 -0.12)">
      <use xlink:href="#DejaVuSans-70"/>
      <use x="57.519531" xlink:href="#DejaVuSans-79"/>
      <use x="129.855469" xlink:href="#DejaVuSans-88"/>
      <use x="191.986328" xlink:href="#DejaVuSans-79"/>
      <use x="270.697266" xlink:href="#DejaVuSans-51"/>
     </g>
    </g>
   </g>
   <g id="text_16">
    <g clip-path="url(#p27c92e7414)">
     <!-- SHC1 -->
     <g transform="translate(349.09321 342.913895)scale(0.12 -0.12)">
      <defs>
       <path d="M 9.8125 72.90625 
L 19.671875 72.90625 
L 19.671875 43.015625 
L 55.515625 43.015625 
L 55.515625 72.90625 
L 65.375 72.90625 
L 65.375 0 
L 55.515625 0 
L 55.515625 34.71875 
L 19.671875 34.71875 
L 19.671875 0 
L 9.8125 0 
z
" id="DejaVuSans-72"/>
      </defs>
      <use xlink:href="#DejaVuSans-83"/>
      <use x="63.476562" xlink:href="#DejaVuSans-72"/>
      <use x="138.671875" xlink:href="#DejaVuSans-67"/>
      <use x="208.496094" xlink:href="#DejaVuSans-49"/>
     </g>
    </g>
   </g>
   <g id="text_17">
    <g clip-path="url(#p27c92e7414)">
     <!-- PRKCA -->
     <g transform="translate(412.370343 366.066778)scale(0.12 -0.12)">
      <defs>
       <path d="M 9.8125 72.90625 
L 19.671875 72.90625 
L 19.671875 42.09375 
L 52.390625 72.90625 
L 65.09375 72.90625 
L 28.90625 38.921875 
L 67.671875 0 
L 54.6875 0 
L 19.671875 35.109375 
L 19.671875 0 
L 9.8125 0 
z
" id="DejaVuSans-75"/>
      </defs>
      <use xlink:href="#DejaVuSans-80"/>
      <use x="60.302734" xlink:href="#DejaVuSans-82"/>
      <use x="129.785156" xlink:href="#DejaVuSans-75"/>
      <use x="189.861328" xlink:href="#DejaVuSans-67"/>
      <use x="259.685547" xlink:href="#DejaVuSans-65"/>
     </g>
    </g>
   </g>
   <g id="text_18">
    <g clip-path="url(#p27c92e7414)">
     <!-- PRKCB -->
     <g transform="translate(412.915277 348.346831)scale(0.12 -0.12)">
      <use xlink:href="#DejaVuSans-80"/>
      <use x="60.302734" xlink:href="#DejaVuSans-82"/>
      <use x="129.785156" xlink:href="#DejaVuSans-75"/>
      <use x="189.861328" xlink:href="#DejaVuSans-67"/>
      <use x="259.685547" xlink:href="#DejaVuSans-66"/>
     </g>
    </g>
   </g>
   <g id="text_19">
    <g clip-path="url(#p27c92e7414)">
     <!-- PLCG1 -->
     <g transform="translate(420.290784 477.463977)scale(0.12 -0.12)">
      <use xlink:href="#DejaVuSans-80"/>
      <use x="60.302734" xlink:href="#DejaVuSans-76"/>
      <use x="116.015625" xlink:href="#DejaVuSans-67"/>
      <use x="185.839844" xlink:href="#DejaVuSans-71"/>
      <use x="263.330078" xlink:href="#DejaVuSans-49"/>
     </g>
    </g>
   </g>
   <g id="text_20">
    <g clip-path="url(#p27c92e7414)">
     <!-- PLCG2 -->
     <g transform="translate(637.253671 424.67506)scale(0.12 -0.12)">
      <use xlink:href="#DejaVuSans-80"/>
      <use x="60.302734" xlink:href="#DejaVuSans-76"/>
      <use x="116.015625" xlink:href="#DejaVuSans-67"/>
      <use x="185.839844" xlink:href="#DejaVuSans-71"/>
      <use x="263.330078" xlink:href="#DejaVuSans-50"/>
     </g>
    </g>
   </g>
   <g id="text_21">
    <g clip-path="url(#p27c92e7414)">
     <!-- MAP2K1 -->
     <g transform="translate(695.025465 373.961578)scale(0.12 -0.12)">
      <use xlink:href="#DejaVuSans-77"/>
      <use x="86.279297" xlink:href="#DejaVuSans-65"/>
      <use x="154.6875" xlink:href="#DejaVuSans-80"/>
      <use x="214.990234" xlink:href="#DejaVuSans-50"/>
      <use x="278.613281" xlink:href="#DejaVuSans-75"/>
      <use x="344.189453" xlink:href="#DejaVuSans-49"/>
     </g>
    </g>
   </g>
   <g id="text_22">
    <g clip-path="url(#p27c92e7414)">
     <!-- MAP2K2 -->
     <g transform="translate(525.222634 461.878544)scale(0.12 -0.12)">
      <use xlink:href="#DejaVuSans-77"/>
      <use x="86.279297" xlink:href="#DejaVuSans-65"/>
      <use x="154.6875" xlink:href="#DejaVuSans-80"/>
      <use x="214.990234" xlink:href="#DejaVuSans-50"/>
      <use x="278.613281" xlink:href="#DejaVuSans-75"/>
      <use x="344.189453" xlink:href="#DejaVuSans-50"/>
     </g>
    </g>
   </g>
   <g id="text_23">
    <g clip-path="url(#p27c92e7414)">
     <!-- BRAF -->
     <g transform="translate(542.839647 404.43817)scale(0.12 -0.12)">
      <use xlink:href="#DejaVuSans-66"/>
      <use x="68.603516" xlink:href="#DejaVuSans-82"/>
      <use x="134.085938" xlink:href="#DejaVuSans-65"/>
      <use x="202.494141" xlink:href="#DejaVuSans-70"/>
     </g>
    </g>
   </g>
   <g id="text_24">
    <g clip-path="url(#p27c92e7414)">
     <!-- RAF1 -->
     <g transform="translate(512.959221 386.724951)scale(0.12 -0.12)">
      <use xlink:href="#DejaVuSans-82"/>
      <use x="65.482422" xlink:href="#DejaVuSans-65"/>
      <use x="133.890625" xlink:href="#DejaVuSans-70"/>
      <use x="191.410156" xlink:href="#DejaVuSans-49"/>
     </g>
    </g>
   </g>
   <g id="text_25">
    <g clip-path="url(#p27c92e7414)">
     <!-- ARAF -->
     <g transform="translate(536.68883 345.663519)scale(0.12 -0.12)">
      <use xlink:href="#DejaVuSans-65"/>
      <use x="68.408203" xlink:href="#DejaVuSans-82"/>
      <use x="133.890625" xlink:href="#DejaVuSans-65"/>
      <use x="202.298828" xlink:href="#DejaVuSans-70"/>
     </g>
    </g>
   </g>
   <g id="text_26">
    <g clip-path="url(#p27c92e7414)">
     <!-- HRAS -->
     <g transform="translate(500.543168 358.483862)scale(0.12 -0.12)">
      <use xlink:href="#DejaVuSans-72"/>
      <use x="75.195312" xlink:href="#DejaVuSans-82"/>
      <use x="140.677734" xlink:href="#DejaVuSans-65"/>
      <use x="209.085938" xlink:href="#DejaVuSans-83"/>
     </g>
    </g>
   </g>
   <g id="text_27">
    <g clip-path="url(#p27c92e7414)">
     <!-- KRAS -->
     <g transform="translate(455.508525 385.920216)scale(0.12 -0.12)">
      <use xlink:href="#DejaVuSans-75"/>
      <use x="65.576172" xlink:href="#DejaVuSans-82"/>
      <use x="131.058594" xlink:href="#DejaVuSans-65"/>
      <use x="199.466797" xlink:href="#DejaVuSans-83"/>
     </g>
    </g>
   </g>
   <g id="text_28">
    <g clip-path="url(#p27c92e7414)">
     <!-- NRAS -->
     <g transform="translate(425.699645 383.013052)scale(0.12 -0.12)">
      <use xlink:href="#DejaVuSans-78"/>
      <use x="74.804688" xlink:href="#DejaVuSans-82"/>
      <use x="140.287109" xlink:href="#DejaVuSans-65"/>
      <use x="208.695312" xlink:href="#DejaVuSans-83"/>
     </g>
    </g>
   </g>
   <g id="text_29">
    <g clip-path="url(#p27c92e7414)">
     <!-- JAK1 -->
     <g transform="translate(321.981466 180.477077)scale(0.12 -0.12)">
      <defs>
       <path d="M 9.8125 72.90625 
L 19.671875 72.90625 
L 19.671875 5.078125 
Q 19.671875 -8.109375 14.671875 -14.0625 
Q 9.671875 -20.015625 -1.421875 -20.015625 
L -5.171875 -20.015625 
L -5.171875 -11.71875 
L -2.09375 -11.71875 
Q 4.4375 -11.71875 7.125 -8.046875 
Q 9.8125 -4.390625 9.8125 5.078125 
z
" id="DejaVuSans-74"/>
      </defs>
      <use xlink:href="#DejaVuSans-74"/>
      <use x="27.742188" xlink:href="#DejaVuSans-65"/>
      <use x="96.150391" xlink:href="#DejaVuSans-75"/>
      <use x="161.726562" xlink:href="#DejaVuSans-49"/>
     </g>
    </g>
   </g>
   <g id="text_30">
    <g clip-path="url(#p27c92e7414)">
     <!-- JAK2 -->
     <g transform="translate(216.026708 208.530863)scale(0.12 -0.12)">
      <use xlink:href="#DejaVuSans-74"/>
      <use x="27.742188" xlink:href="#DejaVuSans-65"/>
      <use x="96.150391" xlink:href="#DejaVuSans-75"/>
      <use x="161.726562" xlink:href="#DejaVuSans-50"/>
     </g>
    </g>
   </g>
   <g id="text_31">
    <g clip-path="url(#p27c92e7414)">
     <!-- NRG2 -->
     <g transform="translate(493.252952 278.886049)scale(0.12 -0.12)">
      <use xlink:href="#DejaVuSans-78"/>
      <use x="74.804688" xlink:href="#DejaVuSans-82"/>
      <use x="144.287109" xlink:href="#DejaVuSans-71"/>
      <use x="221.777344" xlink:href="#DejaVuSans-50"/>
     </g>
    </g>
   </g>
   <g id="text_32">
    <!-- Frame: 11 -->
    <g transform="translate(121.392 91.296)scale(0.1 -0.1)">
     <defs>
      <path d="M 41.109375 46.296875 
Q 39.59375 47.171875 37.8125 47.578125 
Q 36.03125 48 33.890625 48 
Q 26.265625 48 22.1875 43.046875 
Q 18.109375 38.09375 18.109375 28.8125 
L 18.109375 0 
L 9.078125 0 
L 9.078125 54.6875 
L 18.109375 54.6875 
L 18.109375 46.1875 
Q 20.953125 51.171875 25.484375 53.578125 
Q 30.03125 56 36.53125 56 
Q 37.453125 56 38.578125 55.875 
Q 39.703125 55.765625 41.0625 55.515625 
z
" id="DejaVuSans-114"/>
      <path d="M 34.28125 27.484375 
Q 23.390625 27.484375 19.1875 25 
Q 14.984375 22.515625 14.984375 16.5 
Q 14.984375 11.71875 18.140625 8.90625 
Q 21.296875 6.109375 26.703125 6.109375 
Q 34.1875 6.109375 38.703125 11.40625 
Q 43.21875 16.703125 43.21875 25.484375 
L 43.21875 27.484375 
z
M 52.203125 31.203125 
L 52.203125 0 
L 43.21875 0 
L 43.21875 8.296875 
Q 40.140625 3.328125 35.546875 0.953125 
Q 30.953125 -1.421875 24.3125 -1.421875 
Q 15.921875 -1.421875 10.953125 3.296875 
Q 6 8.015625 6 15.921875 
Q 6 25.140625 12.171875 29.828125 
Q 18.359375 34.515625 30.609375 34.515625 
L 43.21875 34.515625 
L 43.21875 35.40625 
Q 43.21875 41.609375 39.140625 45 
Q 35.0625 48.390625 27.6875 48.390625 
Q 23 48.390625 18.546875 47.265625 
Q 14.109375 46.140625 10.015625 43.890625 
L 10.015625 52.203125 
Q 14.9375 54.109375 19.578125 55.046875 
Q 24.21875 56 28.609375 56 
Q 40.484375 56 46.34375 49.84375 
Q 52.203125 43.703125 52.203125 31.203125 
z
" id="DejaVuSans-97"/>
      <path d="M 52 44.1875 
Q 55.375 50.25 60.0625 53.125 
Q 64.75 56 71.09375 56 
Q 79.640625 56 84.28125 50.015625 
Q 88.921875 44.046875 88.921875 33.015625 
L 88.921875 0 
L 79.890625 0 
L 79.890625 32.71875 
Q 79.890625 40.578125 77.09375 44.375 
Q 74.3125 48.1875 68.609375 48.1875 
Q 61.625 48.1875 57.5625 43.546875 
Q 53.515625 38.921875 53.515625 30.90625 
L 53.515625 0 
L 44.484375 0 
L 44.484375 32.71875 
Q 44.484375 40.625 41.703125 44.40625 
Q 38.921875 48.1875 33.109375 48.1875 
Q 26.21875 48.1875 22.15625 43.53125 
Q 18.109375 38.875 18.109375 30.90625 
L 18.109375 0 
L 9.078125 0 
L 9.078125 54.6875 
L 18.109375 54.6875 
L 18.109375 46.1875 
Q 21.1875 51.21875 25.484375 53.609375 
Q 29.78125 56 35.6875 56 
Q 41.65625 56 45.828125 52.96875 
Q 50 49.953125 52 44.1875 
z
" id="DejaVuSans-109"/>
      <path d="M 56.203125 29.59375 
L 56.203125 25.203125 
L 14.890625 25.203125 
Q 15.484375 15.921875 20.484375 11.0625 
Q 25.484375 6.203125 34.421875 6.203125 
Q 39.59375 6.203125 44.453125 7.46875 
Q 49.3125 8.734375 54.109375 11.28125 
L 54.109375 2.78125 
Q 49.265625 0.734375 44.1875 -0.34375 
Q 39.109375 -1.421875 33.890625 -1.421875 
Q 20.796875 -1.421875 13.15625 6.1875 
Q 5.515625 13.8125 5.515625 26.8125 
Q 5.515625 40.234375 12.765625 48.109375 
Q 20.015625 56 32.328125 56 
Q 43.359375 56 49.78125 48.890625 
Q 56.203125 41.796875 56.203125 29.59375 
z
M 47.21875 32.234375 
Q 47.125 39.59375 43.09375 43.984375 
Q 39.0625 48.390625 32.421875 48.390625 
Q 24.90625 48.390625 20.390625 44.140625 
Q 15.875 39.890625 15.1875 32.171875 
z
" id="DejaVuSans-101"/>
      <path d="M 11.71875 12.40625 
L 22.015625 12.40625 
L 22.015625 0 
L 11.71875 0 
z
M 11.71875 51.703125 
L 22.015625 51.703125 
L 22.015625 39.3125 
L 11.71875 39.3125 
z
" id="DejaVuSans-58"/>
      <path id="DejaVuSans-32"/>
     </defs>
     <use xlink:href="#DejaVuSans-70"/>
     <use x="50.269531" xlink:href="#DejaVuSans-114"/>
     <use x="91.382812" xlink:href="#DejaVuSans-97"/>
     <use x="152.662109" xlink:href="#DejaVuSans-109"/>
     <use x="250.074219" xlink:href="#DejaVuSans-101"/>
     <use x="311.597656" xlink:href="#DejaVuSans-58"/>
     <use x="345.289062" xlink:href="#DejaVuSans-32"/>
     <use x="377.076172" xlink:href="#DejaVuSans-49"/>
     <use x="440.699219" xlink:href="#DejaVuSans-49"/>
    </g>
   </g>
   <g id="text_33">
    <!-- Network: hsa01521 -->
    <g transform="translate(384.1275 63.12)scale(0.12 -0.12)">
     <defs>
      <path d="M 18.3125 70.21875 
L 18.3125 54.6875 
L 36.8125 54.6875 
L 36.8125 47.703125 
L 18.3125 47.703125 
L 18.3125 18.015625 
Q 18.3125 11.328125 20.140625 9.421875 
Q 21.96875 7.515625 27.59375 7.515625 
L 36.8125 7.515625 
L 36.8125 0 
L 27.59375 0 
Q 17.1875 0 13.234375 3.875 
Q 9.28125 7.765625 9.28125 18.015625 
L 9.28125 47.703125 
L 2.6875 47.703125 
L 2.6875 54.6875 
L 9.28125 54.6875 
L 9.28125 70.21875 
z
" id="DejaVuSans-116"/>
      <path d="M 4.203125 54.6875 
L 13.1875 54.6875 
L 24.421875 12.015625 
L 35.59375 54.6875 
L 46.1875 54.6875 
L 57.421875 12.015625 
L 68.609375 54.6875 
L 77.59375 54.6875 
L 63.28125 0 
L 52.6875 0 
L 40.921875 44.828125 
L 29.109375 0 
L 18.5 0 
z
" id="DejaVuSans-119"/>
      <path d="M 30.609375 48.390625 
Q 23.390625 48.390625 19.1875 42.75 
Q 14.984375 37.109375 14.984375 27.296875 
Q 14.984375 17.484375 19.15625 11.84375 
Q 23.34375 6.203125 30.609375 6.203125 
Q 37.796875 6.203125 41.984375 11.859375 
Q 46.1875 17.53125 46.1875 27.296875 
Q 46.1875 37.015625 41.984375 42.703125 
Q 37.796875 48.390625 30.609375 48.390625 
z
M 30.609375 56 
Q 42.328125 56 49.015625 48.375 
Q 55.71875 40.765625 55.71875 27.296875 
Q 55.71875 13.875 49.015625 6.21875 
Q 42.328125 -1.421875 30.609375 -1.421875 
Q 18.84375 -1.421875 12.171875 6.21875 
Q 5.515625 13.875 5.515625 27.296875 
Q 5.515625 40.765625 12.171875 48.375 
Q 18.84375 56 30.609375 56 
z
" id="DejaVuSans-111"/>
      <path d="M 9.078125 75.984375 
L 18.109375 75.984375 
L 18.109375 31.109375 
L 44.921875 54.6875 
L 56.390625 54.6875 
L 27.390625 29.109375 
L 57.625 0 
L 45.90625 0 
L 18.109375 26.703125 
L 18.109375 0 
L 9.078125 0 
z
" id="DejaVuSans-107"/>
      <path d="M 54.890625 33.015625 
L 54.890625 0 
L 45.90625 0 
L 45.90625 32.71875 
Q 45.90625 40.484375 42.875 44.328125 
Q 39.84375 48.1875 33.796875 48.1875 
Q 26.515625 48.1875 22.3125 43.546875 
Q 18.109375 38.921875 18.109375 30.90625 
L 18.109375 0 
L 9.078125 0 
L 9.078125 75.984375 
L 18.109375 75.984375 
L 18.109375 46.1875 
Q 21.34375 51.125 25.703125 53.5625 
Q 30.078125 56 35.796875 56 
Q 45.21875 56 50.046875 50.171875 
Q 54.890625 44.34375 54.890625 33.015625 
z
" id="DejaVuSans-104"/>
      <path d="M 44.28125 53.078125 
L 44.28125 44.578125 
Q 40.484375 46.53125 36.375 47.5 
Q 32.28125 48.484375 27.875 48.484375 
Q 21.1875 48.484375 17.84375 46.4375 
Q 14.5 44.390625 14.5 40.28125 
Q 14.5 37.15625 16.890625 35.375 
Q 19.28125 33.59375 26.515625 31.984375 
L 29.59375 31.296875 
Q 39.15625 29.25 43.1875 25.515625 
Q 47.21875 21.78125 47.21875 15.09375 
Q 47.21875 7.46875 41.1875 3.015625 
Q 35.15625 -1.421875 24.609375 -1.421875 
Q 20.21875 -1.421875 15.453125 -0.5625 
Q 10.6875 0.296875 5.421875 2 
L 5.421875 11.28125 
Q 10.40625 8.6875 15.234375 7.390625 
Q 20.0625 6.109375 24.8125 6.109375 
Q 31.15625 6.109375 34.5625 8.28125 
Q 37.984375 10.453125 37.984375 14.40625 
Q 37.984375 18.0625 35.515625 20.015625 
Q 33.0625 21.96875 24.703125 23.78125 
L 21.578125 24.515625 
Q 13.234375 26.265625 9.515625 29.90625 
Q 5.8125 33.546875 5.8125 39.890625 
Q 5.8125 47.609375 11.28125 51.796875 
Q 16.75 56 26.8125 56 
Q 31.78125 56 36.171875 55.265625 
Q 40.578125 54.546875 44.28125 53.078125 
z
" id="DejaVuSans-115"/>
      <path d="M 31.78125 66.40625 
Q 24.171875 66.40625 20.328125 58.90625 
Q 16.5 51.421875 16.5 36.375 
Q 16.5 21.390625 20.328125 13.890625 
Q 24.171875 6.390625 31.78125 6.390625 
Q 39.453125 6.390625 43.28125 13.890625 
Q 47.125 21.390625 47.125 36.375 
Q 47.125 51.421875 43.28125 58.90625 
Q 39.453125 66.40625 31.78125 66.40625 
z
M 31.78125 74.21875 
Q 44.046875 74.21875 50.515625 64.515625 
Q 56.984375 54.828125 56.984375 36.375 
Q 56.984375 17.96875 50.515625 8.265625 
Q 44.046875 -1.421875 31.78125 -1.421875 
Q 19.53125 -1.421875 13.0625 8.265625 
Q 6.59375 17.96875 6.59375 36.375 
Q 6.59375 54.828125 13.0625 64.515625 
Q 19.53125 74.21875 31.78125 74.21875 
z
" id="DejaVuSans-48"/>
      <path d="M 10.796875 72.90625 
L 49.515625 72.90625 
L 49.515625 64.59375 
L 19.828125 64.59375 
L 19.828125 46.734375 
Q 21.96875 47.46875 24.109375 47.828125 
Q 26.265625 48.1875 28.421875 48.1875 
Q 40.625 48.1875 47.75 41.5 
Q 54.890625 34.8125 54.890625 23.390625 
Q 54.890625 11.625 47.5625 5.09375 
Q 40.234375 -1.421875 26.90625 -1.421875 
Q 22.3125 -1.421875 17.546875 -0.640625 
Q 12.796875 0.140625 7.71875 1.703125 
L 7.71875 11.625 
Q 12.109375 9.234375 16.796875 8.0625 
Q 21.484375 6.890625 26.703125 6.890625 
Q 35.15625 6.890625 40.078125 11.328125 
Q 45.015625 15.765625 45.015625 23.390625 
Q 45.015625 31 40.078125 35.4375 
Q 35.15625 39.890625 26.703125 39.890625 
Q 22.75 39.890625 18.8125 39.015625 
Q 14.890625 38.140625 10.796875 36.28125 
z
" id="DejaVuSans-53"/>
     </defs>
     <use xlink:href="#DejaVuSans-78"/>
     <use x="74.804688" xlink:href="#DejaVuSans-101"/>
     <use x="136.328125" xlink:href="#DejaVuSans-116"/>
     <use x="175.537109" xlink:href="#DejaVuSans-119"/>
     <use x="257.324219" xlink:href="#DejaVuSans-111"/>
     <use x="318.505859" xlink:href="#DejaVuSans-114"/>
     <use x="359.619141" xlink:href="#DejaVuSans-107"/>
     <use x="417.529297" xlink:href="#DejaVuSans-58"/>
     <use x="451.220703" xlink:href="#DejaVuSans-32"/>
     <use x="483.007812" xlink:href="#DejaVuSans-104"/>
     <use x="546.386719" xlink:href="#DejaVuSans-115"/>
     <use x="598.486328" xlink:href="#DejaVuSans-97"/>
     <use x="659.765625" xlink:href="#DejaVuSans-48"/>
     <use x="723.388672" xlink:href="#DejaVuSans-49"/>
     <use x="787.011719" xlink:href="#DejaVuSans-53"/>
     <use x="850.634766" xlink:href="#DejaVuSans-50"/>
     <use x="914.257812" xlink:href="#DejaVuSans-49"/>
    </g>
   </g>
  </g>
 </g>
 <defs>
  <clipPath id="p27c92e7414">
   <rect height="443.52" width="669.6" x="108" y="69.12"/>
  </clipPath>
 </defs>
</svg>
