<?xml version="1.0" encoding="utf-8" standalone="no"?>
<!DOCTYPE svg PUBLIC "-//W3C//DTD SVG 1.1//EN"
  "http://www.w3.org/Graphics/SVG/1.1/DTD/svg11.dtd">
<!-- Created with matplotlib (https://matplotlib.org/) -->
<svg height="576pt" version="1.1" viewBox="0 0 864 576" width="864pt" xmlns="http://www.w3.org/2000/svg" xmlns:xlink="http://www.w3.org/1999/xlink">
 <metadata>
  <rdf:RDF xmlns:cc="http://creativecommons.org/ns#" xmlns:dc="http://purl.org/dc/elements/1.1/" xmlns:rdf="http://www.w3.org/1999/02/22-rdf-syntax-ns#">
   <cc:Work>
    <dc:type rdf:resource="http://purl.org/dc/dcmitype/StillImage"/>
    <dc:date>2024-04-26T13:35:59.920818</dc:date>
    <dc:format>image/svg+xml</dc:format>
    <dc:creator>
     <cc:Agent>
      <dc:title>Matplotlib v3.3.1, https://matplotlib.org/</dc:title>
     </cc:Agent>
    </dc:creator>
   </cc:Work>
  </rdf:RDF>
 </metadata>
 <defs>
  <style type="text/css">*{stroke-linecap:butt;stroke-linejoin:round;}</style>
 </defs>
 <g id="figure_1">
  <g id="patch_1">
   <path d="M 0 576 
L 864 576 
L 864 0 
L 0 0 
z
" style="fill:#ffffff;"/>
  </g>
  <g id="axes_1">
   <g id="patch_2">
    <path clip-path="url(#p6ea9ca1ef1)" d="M 458.835408 370.671131 
Q 435.337408 350.375755 412.685533 330.811182 
" style="fill:none;stroke:#000000;stroke-linecap:round;"/>
    <path clip-path="url(#p6ea9ca1ef1)" d="M 414.405419 334.939376 
L 412.685533 330.811182 
L 417.02002 331.91219 
L 414.405419 334.939376 
z
" style="stroke:#000000;stroke-linecap:round;"/>
   </g>
   <g id="patch_3">
    <path clip-path="url(#p6ea9ca1ef1)" d="M 464.50898 367.717552 
Q 461.736299 340.634139 459.077482 314.662946 
" style="fill:none;stroke:#000000;stroke-linecap:round;"/>
    <path clip-path="url(#p6ea9ca1ef1)" d="M 457.495254 318.845834 
L 459.077482 314.662946 
L 461.474456 318.438461 
L 457.495254 318.845834 
z
" style="stroke:#000000;stroke-linecap:round;"/>
   </g>
   <g id="patch_4">
    <path clip-path="url(#p6ea9ca1ef1)" d="M 436.464673 188.505057 
Q 484.463701 195.969731 531.357974 203.262597 
" style="fill:none;stroke:#000000;stroke-linecap:round;"/>
    <path clip-path="url(#p6ea9ca1ef1)" d="M 527.712825 200.671672 
L 531.357974 203.262597 
L 527.098145 204.624161 
L 527.712825 200.671672 
z
" style="stroke:#000000;stroke-linecap:round;"/>
   </g>
   <g id="patch_5">
    <path clip-path="url(#p6ea9ca1ef1)" d="M 436.494797 186.042044 
Q 515.375879 175.641388 593.14852 165.386882 
" style="fill:none;stroke:#000000;stroke-linecap:round;"/>
    <path clip-path="url(#p6ea9ca1ef1)" d="M 588.921401 163.926928 
L 593.14852 165.386882 
L 589.444285 167.892605 
L 588.921401 163.926928 
z
" style="stroke:#000000;stroke-linecap:round;"/>
   </g>
   <g id="patch_6">
    <path clip-path="url(#p6ea9ca1ef1)" d="M 443.4825 163.837161 
Q 515.349402 195.628819 586.193846 226.968174 
" style="fill:none;stroke:#000000;stroke-linecap:round;"/>
    <path clip-path="url(#p6ea9ca1ef1)" d="M 583.344892 223.520934 
L 586.193846 226.968174 
L 581.726682 227.178993 
L 583.344892 223.520934 
z
" style="stroke:#000000;stroke-linecap:round;"/>
   </g>
   <g id="patch_7">
    <path clip-path="url(#p6ea9ca1ef1)" d="M 419.976433 305.373227 
Q 381.689217 335.321699 344.28263 364.581338 
" style="fill:none;stroke:#000000;stroke-linecap:round;"/>
    <path clip-path="url(#p6ea9ca1ef1)" d="M 348.665489 363.692211 
L 344.28263 364.581338 
L 346.201044 360.541575 
L 348.665489 363.692211 
z
" style="stroke:#000000;stroke-linecap:round;"/>
   </g>
   <g id="patch_8">
    <path clip-path="url(#p6ea9ca1ef1)" d="M 430.705353 307.766497 
Q 446.093095 338.185044 460.976159 367.605943 
" style="fill:none;stroke:#000000;stroke-linecap:round;"/>
    <path clip-path="url(#p6ea9ca1ef1)" d="M 460.955218 363.133856 
L 460.976159 367.605943 
L 457.385925 364.939444 
L 460.955218 363.133856 
z
" style="stroke:#000000;stroke-linecap:round;"/>
   </g>
   <g id="patch_9">
    <path clip-path="url(#p6ea9ca1ef1)" d="M 418.258281 298.606185 
Q 412.737963 297.679906 408.320266 296.93864 
" style="fill:none;stroke:#000000;stroke-linecap:round;"/>
    <path clip-path="url(#p6ea9ca1ef1)" d="M 411.934155 299.572991 
L 408.320266 296.93864 
L 412.59608 295.628139 
L 411.934155 299.572991 
z
" style="stroke:#000000;stroke-linecap:round;"/>
   </g>
   <g id="patch_10">
    <path clip-path="url(#p6ea9ca1ef1)" d="M 426.981683 291.382036 
Q 427.797655 253.306812 428.589673 216.349366 
" style="fill:none;stroke:#000000;stroke-linecap:round;"/>
    <path clip-path="url(#p6ea9ca1ef1)" d="M 426.504429 220.305597 
L 428.589673 216.349366 
L 430.503511 220.391299 
L 426.504429 220.305597 
z
" style="stroke:#000000;stroke-linecap:round;"/>
   </g>
   <g id="patch_11">
    <path clip-path="url(#p6ea9ca1ef1)" d="M 428.20692 291.49404 
Q 440.624498 216.282478 452.859952 142.174017 
" style="fill:none;stroke:#000000;stroke-linecap:round;"/>
    <path clip-path="url(#p6ea9ca1ef1)" d="M 450.235079 145.794796 
L 452.859952 142.174017 
L 454.181651 146.446383 
L 450.235079 145.794796 
z
" style="stroke:#000000;stroke-linecap:round;"/>
   </g>
   <g id="patch_12">
    <path clip-path="url(#p6ea9ca1ef1)" d="M 428.589137 308.510773 
Q 444.276888 382.636976 459.733152 455.669372 
" style="fill:none;stroke:#000000;stroke-linecap:round;"/>
    <path clip-path="url(#p6ea9ca1ef1)" d="M 460.861614 451.341951 
L 459.733152 455.669372 
L 456.948292 452.170149 
L 460.861614 451.341951 
z
" style="stroke:#000000;stroke-linecap:round;"/>
   </g>
   <g id="patch_13">
    <path clip-path="url(#p6ea9ca1ef1)" d="M 423.553173 308.069558 
Q 412.412004 335.658934 401.689474 362.211612 
" style="fill:none;stroke:#000000;stroke-linecap:round;"/>
    <path clip-path="url(#p6ea9ca1ef1)" d="M 405.041746 359.251499 
L 401.689474 362.211612 
L 401.332746 357.753727 
L 405.041746 359.251499 
z
" style="stroke:#000000;stroke-linecap:round;"/>
   </g>
   <g id="patch_14">
    <path clip-path="url(#p6ea9ca1ef1)" d="M 601.142914 237.162012 
Q 649.287686 287.166326 696.657007 336.365238 
" style="fill:none;stroke:#000000;stroke-linecap:round;"/>
    <path clip-path="url(#p6ea9ca1ef1)" d="M 695.323414 332.096569 
L 696.657007 336.365238 
L 692.441916 334.870911 
L 695.323414 332.096569 
z
" style="stroke:#000000;stroke-linecap:round;"/>
   </g>
   <g id="patch_15">
    <path clip-path="url(#p6ea9ca1ef1)" d="M 428.231005 313.802907 
Q 386.084262 339.924726 344.887832 365.457557 
" style="fill:none;stroke:#000000;stroke-linecap:round;"/>
    <path clip-path="url(#p6ea9ca1ef1)" d="M 349.341386 365.050304 
L 344.887832 365.457557 
L 347.234162 361.650362 
L 349.341386 365.050304 
z
" style="stroke:#000000;stroke-linecap:round;"/>
   </g>
   <g id="patch_16">
    <path clip-path="url(#p6ea9ca1ef1)" d="M 439.110351 317.154702 
Q 450.493454 342.787062 461.422781 367.397616 
" style="fill:none;stroke:#000000;stroke-linecap:round;"/>
    <path clip-path="url(#p6ea9ca1ef1)" d="M 461.627169 362.930153 
L 461.422781 367.397616 
L 457.971443 364.553629 
L 461.627169 362.930153 
z
" style="stroke:#000000;stroke-linecap:round;"/>
   </g>
   <g id="patch_17">
    <path clip-path="url(#p6ea9ca1ef1)" d="M 427.495764 306.185571 
Q 417.13582 302.280049 407.82204 298.768914 
" style="fill:none;stroke:#000000;stroke-linecap:round;"/>
    <path clip-path="url(#p6ea9ca1ef1)" d="M 410.859412 302.051348 
L 407.82204 298.768914 
L 412.27041 298.308477 
L 410.859412 302.051348 
z
" style="stroke:#000000;stroke-linecap:round;"/>
   </g>
   <g id="patch_18">
    <path clip-path="url(#p6ea9ca1ef1)" d="M 435.022792 300.594691 
Q 432.196915 257.904191 429.444883 216.329283 
" style="fill:none;stroke:#000000;stroke-linecap:round;"/>
    <path clip-path="url(#p6ea9ca1ef1)" d="M 427.713451 220.452649 
L 429.444883 216.329283 
L 431.704716 220.188449 
L 427.713451 220.452649 
z
" style="stroke:#000000;stroke-linecap:round;"/>
   </g>
   <g id="patch_19">
    <path clip-path="url(#p6ea9ca1ef1)" d="M 436.513752 300.629247 
Q 445.023707 220.883937 453.415025 142.250348 
" style="fill:none;stroke:#000000;stroke-linecap:round;"/>
    <path clip-path="url(#p6ea9ca1ef1)" d="M 451.00187 146.015542 
L 453.415025 142.250348 
L 454.979287 146.439989 
L 451.00187 146.015542 
z
" style="stroke:#000000;stroke-linecap:round;"/>
   </g>
   <g id="patch_20">
    <path clip-path="url(#p6ea9ca1ef1)" d="M 437.028132 317.784079 
Q 448.676137 387.236237 460.139216 455.585761 
" style="fill:none;stroke:#000000;stroke-linecap:round;"/>
    <path clip-path="url(#p6ea9ca1ef1)" d="M 461.450057 451.310051 
L 460.139216 455.585761 
L 457.505153 451.971662 
L 461.450057 451.310051 
z
" style="stroke:#000000;stroke-linecap:round;"/>
   </g>
   <g id="patch_21">
    <path clip-path="url(#p6ea9ca1ef1)" d="M 431.107874 316.648975 
Q 416.81046 340.260102 403.092158 362.914867 
" style="fill:none;stroke:#000000;stroke-linecap:round;"/>
    <path clip-path="url(#p6ea9ca1ef1)" d="M 406.874847 360.52923 
L 403.092158 362.914867 
L 403.453262 358.457333 
L 406.874847 360.52923 
z
" style="stroke:#000000;stroke-linecap:round;"/>
   </g>
   <g id="patch_22">
    <path clip-path="url(#p6ea9ca1ef1)" d="M 254.249821 361.010314 
Q 282.107384 317.278484 309.364269 274.489621 
" style="fill:none;stroke:#000000;stroke-linecap:round;"/>
    <path clip-path="url(#p6ea9ca1ef1)" d="M 305.528388 276.788755 
L 309.364269 274.489621 
L 308.902048 278.937806 
L 305.528388 276.788755 
z
" style="stroke:#000000;stroke-linecap:round;"/>
   </g>
   <g id="patch_23">
    <path clip-path="url(#p6ea9ca1ef1)" d="M 321.131152 260.539536 
Q 375.089986 213.28802 428.207705 166.773065 
" style="fill:none;stroke:#000000;stroke-linecap:round;"/>
    <path clip-path="url(#p6ea9ca1ef1)" d="M 423.880834 167.903635 
L 428.207705 166.773065 
L 426.516038 170.912904 
L 423.880834 167.903635 
z
" style="stroke:#000000;stroke-linecap:round;"/>
   </g>
   <g id="patch_24">
    <path clip-path="url(#p6ea9ca1ef1)" d="M 407.845 418.246706 
Q 375.812305 396.833917 344.709097 376.042458 
" style="fill:none;stroke:#000000;stroke-linecap:round;"/>
    <path clip-path="url(#p6ea9ca1ef1)" d="M 346.923061 379.928119 
L 344.709097 376.042458 
L 349.146004 376.602684 
L 346.923061 379.928119 
z
" style="stroke:#000000;stroke-linecap:round;"/>
   </g>
   <g id="patch_25">
    <path clip-path="url(#p6ea9ca1ef1)" d="M 421.391046 417.170753 
Q 440.218061 399.696919 458.225605 382.983657 
" style="fill:none;stroke:#000000;stroke-linecap:round;"/>
    <path clip-path="url(#p6ea9ca1ef1)" d="M 453.933228 384.238847 
L 458.225605 382.983657 
L 456.65433 387.170672 
L 453.933228 384.238847 
z
" style="stroke:#000000;stroke-linecap:round;"/>
   </g>
   <g id="patch_26">
    <path clip-path="url(#p6ea9ca1ef1)" d="M 421.474757 428.8646 
Q 438.401327 444.146692 454.498045 458.679554 
" style="fill:none;stroke:#000000;stroke-linecap:round;"/>
    <path clip-path="url(#p6ea9ca1ef1)" d="M 452.869337 454.514544 
L 454.498045 458.679554 
L 450.188812 457.483515 
L 452.869337 454.514544 
z
" style="stroke:#000000;stroke-linecap:round;"/>
   </g>
   <g id="patch_27">
    <path clip-path="url(#p6ea9ca1ef1)" d="M 412.342108 414.832996 
Q 406.537409 397.168735 401.081748 380.56663 
" style="fill:none;stroke:#000000;stroke-linecap:round;"/>
    <path clip-path="url(#p6ea9ca1ef1)" d="M 400.430462 384.991087 
L 401.081748 380.56663 
L 404.230542 383.742333 
L 400.430462 384.991087 
z
" style="stroke:#000000;stroke-linecap:round;"/>
   </g>
   <g id="patch_28">
    <path clip-path="url(#p6ea9ca1ef1)" d="M 383.63829 421.582124 
Q 363.045361 399.276052 343.210827 377.791465 
" style="fill:none;stroke:#000000;stroke-linecap:round;"/>
    <path clip-path="url(#p6ea9ca1ef1)" d="M 344.454622 382.087158 
L 343.210827 377.791465 
L 347.393658 379.373845 
L 344.454622 382.087158 
z
" style="stroke:#000000;stroke-linecap:round;"/>
   </g>
   <g id="patch_29">
    <path clip-path="url(#p6ea9ca1ef1)" d="M 396.677458 423.076281 
Q 427.453659 402.140489 457.30544 381.833542 
" style="fill:none;stroke:#000000;stroke-linecap:round;"/>
    <path clip-path="url(#p6ea9ca1ef1)" d="M 452.87322 382.429715 
L 457.30544 381.833542 
L 455.123046 385.737022 
L 452.87322 382.429715 
z
" style="stroke:#000000;stroke-linecap:round;"/>
   </g>
   <g id="patch_30">
    <path clip-path="url(#p6ea9ca1ef1)" d="M 397.209709 431.919383 
Q 425.636399 446.590899 453.069577 460.749646 
" style="fill:none;stroke:#000000;stroke-linecap:round;"/>
    <path clip-path="url(#p6ea9ca1ef1)" d="M 450.432348 457.137856 
L 453.069577 460.749646 
L 448.597808 460.692355 
L 450.432348 457.137856 
z
" style="stroke:#000000;stroke-linecap:round;"/>
   </g>
   <g id="patch_31">
    <path clip-path="url(#p6ea9ca1ef1)" d="M 390.801552 419.387314 
Q 393.771844 399.614714 396.576046 380.947743 
" style="fill:none;stroke:#000000;stroke-linecap:round;"/>
    <path clip-path="url(#p6ea9ca1ef1)" d="M 394.004015 384.606247 
L 396.576046 380.947743 
L 397.959631 385.20047 
L 394.004015 384.606247 
z
" style="stroke:#000000;stroke-linecap:round;"/>
   </g>
   <g id="patch_32">
    <path clip-path="url(#p6ea9ca1ef1)" d="M 456.386565 140.969267 
Q 462.515267 167.71938 468.394286 193.379694 
" style="fill:none;stroke:#000000;stroke-linecap:round;"/>
    <path clip-path="url(#p6ea9ca1ef1)" d="M 469.450482 189.03407 
L 468.394286 193.379694 
L 465.551504 189.927363 
L 469.450482 189.03407 
z
" style="stroke:#000000;stroke-linecap:round;"/>
   </g>
   <g id="patch_33">
    <path clip-path="url(#p6ea9ca1ef1)" d="M 445.812169 131.961486 
Q 372.314557 127.14391 299.932585 122.399461 
" style="fill:none;stroke:#000000;stroke-linecap:round;"/>
    <path clip-path="url(#p6ea9ca1ef1)" d="M 303.793206 124.656806 
L 299.932585 122.399461 
L 304.054834 120.665372 
L 303.793206 124.656806 
z
" style="stroke:#000000;stroke-linecap:round;"/>
   </g>
   <g id="patch_34">
    <path clip-path="url(#p6ea9ca1ef1)" d="M 460.498407 126.3273 
Q 460.924552 125.890252 460.570175 126.253696 
" style="fill:none;stroke:#000000;stroke-linecap:round;"/>
    <path clip-path="url(#p6ea9ca1ef1)" d="M 456.345735 127.721383 
L 460.570175 126.253696 
L 459.20966 130.51386 
L 456.345735 127.721383 
z
" style="stroke:#000000;stroke-linecap:round;"/>
   </g>
   <g id="patch_35">
    <path clip-path="url(#p6ea9ca1ef1)" d="M 465.2612 209.744759 
Q 434.626111 249.115112 404.677621 287.60309 
" style="fill:none;stroke:#000000;stroke-linecap:round;"/>
    <path clip-path="url(#p6ea9ca1ef1)" d="M 408.712506 285.674438 
L 404.677621 287.60309 
L 405.55563 283.217991 
L 408.712506 285.674438 
z
" style="stroke:#000000;stroke-linecap:round;"/>
   </g>
   <g id="patch_36">
    <path clip-path="url(#p6ea9ca1ef1)" d="M 461.951553 203.667979 
Q 449.687352 204.743128 438.536913 205.720639 
" style="fill:none;stroke:#000000;stroke-linecap:round;"/>
    <path clip-path="url(#p6ea9ca1ef1)" d="M 442.696292 207.363675 
L 438.536913 205.720639 
L 442.346969 203.378957 
L 442.696292 207.363675 
z
" style="stroke:#000000;stroke-linecap:round;"/>
   </g>
   <g id="patch_37">
    <path clip-path="url(#p6ea9ca1ef1)" d="M 468.644153 194.470296 
Q 462.515451 167.720184 456.636432 142.059869 
" style="fill:none;stroke:#000000;stroke-linecap:round;"/>
    <path clip-path="url(#p6ea9ca1ef1)" d="M 455.580235 146.405493 
L 456.636432 142.059869 
L 459.479213 145.512201 
L 455.580235 146.405493 
z
" style="stroke:#000000;stroke-linecap:round;"/>
   </g>
   <g id="patch_38">
    <path clip-path="url(#p6ea9ca1ef1)" d="M 401.455945 287.121855 
Q 413.735274 250.949447 425.65521 215.835735 
" style="fill:none;stroke:#000000;stroke-linecap:round;"/>
    <path clip-path="url(#p6ea9ca1ef1)" d="M 422.475557 218.980541 
L 425.65521 215.835735 
L 426.263263 220.266341 
L 422.475557 218.980541 
z
" style="stroke:#000000;stroke-linecap:round;"/>
   </g>
   <g id="patch_39">
    <path clip-path="url(#p6ea9ca1ef1)" d="M 401.480862 287.125132 
Q 426.562719 213.924013 451.282173 141.780563 
" style="fill:none;stroke:#000000;stroke-linecap:round;"/>
    <path clip-path="url(#p6ea9ca1ef1)" d="M 448.093585 144.916309 
L 451.282173 141.780563 
L 451.877617 146.212882 
L 448.093585 144.916309 
z
" style="stroke:#000000;stroke-linecap:round;"/>
   </g>
   <g id="patch_40">
    <path clip-path="url(#p6ea9ca1ef1)" d="M 393.164309 301.998988 
Q 367.626651 332.962634 342.80037 363.063757 
" style="fill:none;stroke:#000000;stroke-linecap:round;"/>
    <path clip-path="url(#p6ea9ca1ef1)" d="M 346.888393 361.250452 
L 342.80037 363.063757 
L 343.80254 358.705356 
L 346.888393 361.250452 
z
" style="stroke:#000000;stroke-linecap:round;"/>
   </g>
   <g id="patch_41">
    <path clip-path="url(#p6ea9ca1ef1)" d="M 401.686857 303.437548 
Q 430.21471 380.275573 458.353422 456.06547 
" style="fill:none;stroke:#000000;stroke-linecap:round;"/>
    <path clip-path="url(#p6ea9ca1ef1)" d="M 458.836136 451.619462 
L 458.353422 456.06547 
L 455.086244 453.011694 
L 458.836136 451.619462 
z
" style="stroke:#000000;stroke-linecap:round;"/>
   </g>
   <g id="patch_42">
    <path clip-path="url(#p6ea9ca1ef1)" d="M 398.599592 303.975334 
Q 398.350971 333.294301 398.111832 361.495274 
" style="fill:none;stroke:#000000;stroke-linecap:round;"/>
    <path clip-path="url(#p6ea9ca1ef1)" d="M 400.145678 357.512377 
L 398.111832 361.495274 
L 396.145822 357.478459 
L 400.145678 357.512377 
z
" style="stroke:#000000;stroke-linecap:round;"/>
   </g>
   <g id="patch_43">
    <path clip-path="url(#p6ea9ca1ef1)" d="M 345.230813 370.992079 
Q 400.985691 373.470408 455.623638 375.899089 
" style="fill:none;stroke:#000000;stroke-linecap:round;"/>
    <path clip-path="url(#p6ea9ca1ef1)" d="M 451.716397 373.723436 
L 455.623638 375.899089 
L 451.53877 377.71949 
L 451.716397 373.723436 
z
" style="stroke:#000000;stroke-linecap:round;"/>
   </g>
   <g id="patch_44">
    <path clip-path="url(#p6ea9ca1ef1)" d="M 342.087267 363.928374 
Q 367.624924 332.964728 392.451205 302.863605 
" style="fill:none;stroke:#000000;stroke-linecap:round;"/>
    <path clip-path="url(#p6ea9ca1ef1)" d="M 388.363183 304.67691 
L 392.451205 302.863605 
L 391.449035 307.222006 
L 388.363183 304.67691 
z
" style="stroke:#000000;stroke-linecap:round;"/>
   </g>
   <g id="patch_45">
    <path clip-path="url(#p6ea9ca1ef1)" d="M 328.756753 366.888042 
Q 251.341434 330.075476 174.935807 293.74304 
" style="fill:none;stroke:#000000;stroke-linecap:round;"/>
    <path clip-path="url(#p6ea9ca1ef1)" d="M 177.689308 297.266992 
L 174.935807 293.74304 
L 179.407069 293.654611 
L 177.689308 297.266992 
z
" style="stroke:#000000;stroke-linecap:round;"/>
   </g>
   <g id="patch_46">
    <path clip-path="url(#p6ea9ca1ef1)" d="M 343.489238 375.831436 
Q 399.167392 417.920095 453.953662 459.334554 
" style="fill:none;stroke:#000000;stroke-linecap:round;"/>
    <path clip-path="url(#p6ea9ca1ef1)" d="M 451.968808 455.327017 
L 453.953662 459.334554 
L 449.55672 458.517915 
L 451.968808 455.327017 
z
" style="stroke:#000000;stroke-linecap:round;"/>
   </g>
   <g id="patch_47">
    <path clip-path="url(#p6ea9ca1ef1)" d="M 345.238789 370.701766 
Q 367.305012 370.941997 388.253267 371.170058 
" style="fill:none;stroke:#000000;stroke-linecap:round;"/>
    <path clip-path="url(#p6ea9ca1ef1)" d="M 384.275276 369.126632 
L 388.253267 371.170058 
L 384.231732 373.126395 
L 384.275276 369.126632 
z
" style="stroke:#000000;stroke-linecap:round;"/>
   </g>
   <g id="patch_48">
    <path clip-path="url(#p6ea9ca1ef1)" d="M 436.310525 210.891813 
Q 462.15068 225.744644 487.021519 240.040316 
" style="fill:none;stroke:#000000;stroke-linecap:round;"/>
    <path clip-path="url(#p6ea9ca1ef1)" d="M 484.550266 236.312997 
L 487.021519 240.040316 
L 482.556912 239.780927 
L 484.550266 236.312997 
z
" style="stroke:#000000;stroke-linecap:round;"/>
   </g>
   <g id="patch_49">
    <path clip-path="url(#p6ea9ca1ef1)" d="M 437.184425 208.736433 
Q 470.240213 217.259813 502.213378 225.504041 
" style="fill:none;stroke:#000000;stroke-linecap:round;"/>
    <path clip-path="url(#p6ea9ca1ef1)" d="M 498.83943 222.568658 
L 502.213378 225.504041 
L 497.840703 226.44197 
L 498.83943 222.568658 
z
" style="stroke:#000000;stroke-linecap:round;"/>
   </g>
   <g id="patch_50">
    <path clip-path="url(#p6ea9ca1ef1)" d="M 421.40865 202.0525 
Q 359.487523 164.166699 298.520085 126.864402 
" style="fill:none;stroke:#000000;stroke-linecap:round;"/>
    <path clip-path="url(#p6ea9ca1ef1)" d="M 300.888301 130.658022 
L 298.520085 126.864402 
L 302.975911 127.246001 
L 300.888301 130.658022 
z
" style="stroke:#000000;stroke-linecap:round;"/>
   </g>
   <g id="patch_51">
    <path clip-path="url(#p6ea9ca1ef1)" d="M 432.301143 198.651626 
Q 448.098712 162.912172 463.444275 128.195308 
" style="fill:none;stroke:#000000;stroke-linecap:round;"/>
    <path clip-path="url(#p6ea9ca1ef1)" d="M 459.997865 131.045266 
L 463.444275 128.195308 
L 463.656395 132.662411 
L 459.997865 131.045266 
z
" style="stroke:#000000;stroke-linecap:round;"/>
   </g>
   <g id="patch_52">
    <path clip-path="url(#p6ea9ca1ef1)" d="M 493.557284 286.473221 
Q 480.769088 327.271947 468.315292 367.003819 
" style="fill:none;stroke:#000000;stroke-linecap:round;"/>
    <path clip-path="url(#p6ea9ca1ef1)" d="M 471.420126 363.785123 
L 468.315292 367.003819 
L 467.603236 362.588734 
L 471.420126 363.785123 
z
" style="stroke:#000000;stroke-linecap:round;"/>
   </g>
   <g id="patch_53">
    <path clip-path="url(#p6ea9ca1ef1)" d="M 488.650058 282.5525 
Q 416.360651 324.410729 345.038782 365.708719 
" style="fill:none;stroke:#000000;stroke-linecap:round;"/>
    <path clip-path="url(#p6ea9ca1ef1)" d="M 349.502542 365.435127 
L 345.038782 365.708719 
L 347.498165 361.973556 
L 349.502542 365.435127 
z
" style="stroke:#000000;stroke-linecap:round;"/>
   </g>
   <g id="patch_54">
    <path clip-path="url(#p6ea9ca1ef1)" d="M 487.618496 279.708445 
Q 447.411424 286.765463 408.305553 293.629201 
" style="fill:none;stroke:#000000;stroke-linecap:round;"/>
    <path clip-path="url(#p6ea9ca1ef1)" d="M 412.591077 294.907592 
L 408.305553 293.629201 
L 411.89958 290.967817 
L 412.591077 294.907592 
z
" style="stroke:#000000;stroke-linecap:round;"/>
   </g>
   <g id="patch_55">
    <path clip-path="url(#p6ea9ca1ef1)" d="M 490.213246 271.900025 
Q 462.472138 242.39201 435.496835 213.698576 
" style="fill:none;stroke:#000000;stroke-linecap:round;"/>
    <path clip-path="url(#p6ea9ca1ef1)" d="M 436.779495 217.982824 
L 435.496835 213.698576 
L 439.693829 215.242997 
L 436.779495 217.982824 
z
" style="stroke:#000000;stroke-linecap:round;"/>
   </g>
   <g id="patch_56">
    <path clip-path="url(#p6ea9ca1ef1)" d="M 493.763642 269.884374 
Q 475.29998 205.37065 457.143945 141.931805 
" style="fill:none;stroke:#000000;stroke-linecap:round;"/>
    <path clip-path="url(#p6ea9ca1ef1)" d="M 456.321745 146.32771 
L 457.143945 141.931805 
L 460.167349 145.227108 
L 456.321745 146.32771 
z
" style="stroke:#000000;stroke-linecap:round;"/>
   </g>
   <g id="patch_57">
    <path clip-path="url(#p6ea9ca1ef1)" d="M 504.786171 277.606244 
Q 607.820543 270.386954 709.739616 263.245809 
" style="fill:none;stroke:#000000;stroke-linecap:round;"/>
    <path clip-path="url(#p6ea9ca1ef1)" d="M 705.609608 261.530283 
L 709.739616 263.245809 
L 705.88919 265.5205 
L 705.609608 261.530283 
z
" style="stroke:#000000;stroke-linecap:round;"/>
   </g>
   <g id="patch_58">
    <path clip-path="url(#p6ea9ca1ef1)" d="M 491.877067 270.675265 
Q 447.81791 192.909678 404.309883 116.116849 
" style="fill:none;stroke:#000000;stroke-linecap:round;"/>
    <path clip-path="url(#p6ea9ca1ef1)" d="M 404.541541 120.582981 
L 404.309883 116.116849 
L 408.021783 118.611202 
L 404.541541 120.582981 
z
" style="stroke:#000000;stroke-linecap:round;"/>
   </g>
   <g id="patch_59">
    <path clip-path="url(#p6ea9ca1ef1)" d="M 504.153814 274.91273 
Q 590.355186 239.397985 675.522822 204.309136 
" style="fill:none;stroke:#000000;stroke-linecap:round;"/>
    <path clip-path="url(#p6ea9ca1ef1)" d="M 671.062545 203.983667 
L 675.522822 204.309136 
L 672.586281 207.682076 
L 671.062545 203.983667 
z
" style="stroke:#000000;stroke-linecap:round;"/>
   </g>
   <g id="patch_60">
    <path clip-path="url(#p6ea9ca1ef1)" d="M 494.580505 286.729952 
Q 478.951953 371.723153 463.525596 455.616755 
" style="fill:none;stroke:#000000;stroke-linecap:round;"/>
    <path clip-path="url(#p6ea9ca1ef1)" d="M 466.21601 452.044407 
L 463.525596 455.616755 
L 462.281966 451.321015 
L 466.21601 452.044407 
z
" style="stroke:#000000;stroke-linecap:round;"/>
   </g>
   <g id="patch_61">
    <path clip-path="url(#p6ea9ca1ef1)" d="M 489.861781 284.172975 
Q 447.088358 324.743572 405.126116 364.544762 
" style="fill:none;stroke:#000000;stroke-linecap:round;"/>
    <path clip-path="url(#p6ea9ca1ef1)" d="M 409.404641 363.243138 
L 405.126116 364.544762 
L 406.651932 360.340968 
L 409.404641 363.243138 
z
" style="stroke:#000000;stroke-linecap:round;"/>
   </g>
   <g id="patch_62">
    <path clip-path="url(#p6ea9ca1ef1)" d="M 484.047341 283.655896 
Q 475.573483 325.750728 467.320263 366.749513 
" style="fill:none;stroke:#000000;stroke-linecap:round;"/>
    <path clip-path="url(#p6ea9ca1ef1)" d="M 470.070312 363.222867 
L 467.320263 366.749513 
L 466.148976 362.433487 
L 470.070312 363.222867 
z
" style="stroke:#000000;stroke-linecap:round;"/>
   </g>
   <g id="patch_63">
    <path clip-path="url(#p6ea9ca1ef1)" d="M 478.460375 279.836303 
Q 411.16633 322.888762 344.814072 365.338698 
" style="fill:none;stroke:#000000;stroke-linecap:round;"/>
    <path clip-path="url(#p6ea9ca1ef1)" d="M 349.261343 364.867763 
L 344.814072 365.338698 
L 347.105687 361.49832 
L 349.261343 364.867763 
z
" style="stroke:#000000;stroke-linecap:round;"/>
   </g>
   <g id="patch_64">
    <path clip-path="url(#p6ea9ca1ef1)" d="M 477.318058 277.121428 
Q 442.212424 285.244863 408.196041 293.116246 
" style="fill:none;stroke:#000000;stroke-linecap:round;"/>
    <path clip-path="url(#p6ea9ca1ef1)" d="M 412.543952 294.162988 
L 408.196041 293.116246 
L 411.642181 290.265963 
L 412.543952 294.162988 
z
" style="stroke:#000000;stroke-linecap:round;"/>
   </g>
   <g id="patch_65">
    <path clip-path="url(#p6ea9ca1ef1)" d="M 480.223177 268.505828 
Q 457.277908 240.872137 435.046864 214.09861 
" style="fill:none;stroke:#000000;stroke-linecap:round;"/>
    <path clip-path="url(#p6ea9ca1ef1)" d="M 436.063447 218.453671 
L 435.046864 214.09861 
L 439.140863 215.898379 
L 436.063447 218.453671 
z
" style="stroke:#000000;stroke-linecap:round;"/>
   </g>
   <g id="patch_66">
    <path clip-path="url(#p6ea9ca1ef1)" d="M 483.899654 266.710939 
Q 470.103965 203.847419 456.54793 142.075945 
" style="fill:none;stroke:#000000;stroke-linecap:round;"/>
    <path clip-path="url(#p6ea9ca1ef1)" d="M 455.451832 146.411677 
L 456.54793 142.075945 
L 459.358857 145.554263 
L 455.451832 146.411677 
z
" style="stroke:#000000;stroke-linecap:round;"/>
   </g>
   <g id="patch_67">
    <path clip-path="url(#p6ea9ca1ef1)" d="M 494.404721 274.702459 
Q 602.627032 268.865527 709.732933 263.088807 
" style="fill:none;stroke:#000000;stroke-linecap:round;"/>
    <path clip-path="url(#p6ea9ca1ef1)" d="M 705.631025 261.307135 
L 709.732933 263.088807 
L 705.846451 265.30133 
L 705.631025 261.307135 
z
" style="stroke:#000000;stroke-linecap:round;"/>
   </g>
   <g id="patch_68">
    <path clip-path="url(#p6ea9ca1ef1)" d="M 481.792325 267.470447 
Q 442.622861 191.389324 403.965163 116.302232 
" style="fill:none;stroke:#000000;stroke-linecap:round;"/>
    <path clip-path="url(#p6ea9ca1ef1)" d="M 404.017932 120.774056 
L 403.965163 116.302232 
L 407.574284 118.943111 
L 404.017932 120.774056 
z
" style="stroke:#000000;stroke-linecap:round;"/>
   </g>
   <g id="patch_69">
    <path clip-path="url(#p6ea9ca1ef1)" d="M 493.864564 272.126857 
Q 585.159704 237.876628 675.408051 204.019112 
" style="fill:none;stroke:#000000;stroke-linecap:round;"/>
    <path clip-path="url(#p6ea9ca1ef1)" d="M 670.960422 203.551569 
L 675.408051 204.019112 
L 672.365439 207.29669 
L 670.960422 203.551569 
z
" style="stroke:#000000;stroke-linecap:round;"/>
   </g>
   <g id="patch_70">
    <path clip-path="url(#p6ea9ca1ef1)" d="M 484.670784 283.762096 
Q 473.75648 370.201649 462.982232 455.531975 
" style="fill:none;stroke:#000000;stroke-linecap:round;"/>
    <path clip-path="url(#p6ea9ca1ef1)" d="M 465.46756 451.814026 
L 462.982232 455.531975 
L 461.499069 451.312944 
L 465.46756 451.814026 
z
" style="stroke:#000000;stroke-linecap:round;"/>
   </g>
   <g id="patch_71">
    <path clip-path="url(#p6ea9ca1ef1)" d="M 479.916799 281.565743 
Q 441.892949 323.222047 404.622846 364.052599 
" style="fill:none;stroke:#000000;stroke-linecap:round;"/>
    <path clip-path="url(#p6ea9ca1ef1)" d="M 408.796681 362.44664 
L 404.622846 364.052599 
L 405.84238 359.749956 
L 408.796681 362.44664 
z
" style="stroke:#000000;stroke-linecap:round;"/>
   </g>
   <g id="patch_72">
    <path clip-path="url(#p6ea9ca1ef1)" d="M 549.255072 207.432545 
Q 630.25608 233.663696 710.193437 259.550397 
" style="fill:none;stroke:#000000;stroke-linecap:round;"/>
    <path clip-path="url(#p6ea9ca1ef1)" d="M 707.004173 256.415338 
L 710.193437 259.550397 
L 705.771831 260.220772 
L 707.004173 256.415338 
z
" style="stroke:#000000;stroke-linecap:round;"/>
   </g>
   <g id="patch_73">
    <path clip-path="url(#p6ea9ca1ef1)" d="M 533.875314 199.862088 
Q 470.252046 156.185481 407.550519 113.141638 
" style="fill:none;stroke:#000000;stroke-linecap:round;"/>
    <path clip-path="url(#p6ea9ca1ef1)" d="M 409.71632 117.054349 
L 407.550519 113.141638 
L 411.980168 113.756624 
L 409.71632 117.054349 
z
" style="stroke:#000000;stroke-linecap:round;"/>
   </g>
   <g id="patch_74">
    <path clip-path="url(#p6ea9ca1ef1)" d="M 549.677644 204.512493 
Q 612.792703 202.674284 674.790202 200.868623 
" style="fill:none;stroke:#000000;stroke-linecap:round;"/>
    <path clip-path="url(#p6ea9ca1ef1)" d="M 670.733673 198.985921 
L 674.790202 200.868623 
L 670.850122 202.984225 
L 670.733673 198.985921 
z
" style="stroke:#000000;stroke-linecap:round;"/>
   </g>
   <g id="patch_75">
    <path clip-path="url(#p6ea9ca1ef1)" d="M 609.461807 169.694012 
Q 661.168778 213.335152 712.021355 256.255176 
" style="fill:none;stroke:#000000;stroke-linecap:round;"/>
    <path clip-path="url(#p6ea9ca1ef1)" d="M 710.254552 252.146842 
L 712.021355 256.255176 
L 707.674606 255.203618 
L 710.254552 252.146842 
z
" style="stroke:#000000;stroke-linecap:round;"/>
   </g>
   <g id="patch_76">
    <path clip-path="url(#p6ea9ca1ef1)" d="M 594.500137 161.790217 
Q 501.167735 135.858284 408.91256 110.225654 
" style="fill:none;stroke:#000000;stroke-linecap:round;"/>
    <path clip-path="url(#p6ea9ca1ef1)" d="M 412.231158 113.223472 
L 408.91256 110.225654 
L 413.301973 109.369467 
L 412.231158 113.223472 
z
" style="stroke:#000000;stroke-linecap:round;"/>
   </g>
   <g id="patch_77">
    <path clip-path="url(#p6ea9ca1ef1)" d="M 610.752191 167.638285 
Q 643.705125 182.346601 675.637107 196.599221 
" style="fill:none;stroke:#000000;stroke-linecap:round;"/>
    <path clip-path="url(#p6ea9ca1ef1)" d="M 672.799611 193.142544 
L 675.637107 196.599221 
L 671.169268 196.795212 
L 672.799611 193.142544 
z
" style="stroke:#000000;stroke-linecap:round;"/>
   </g>
   <g id="patch_78">
    <path clip-path="url(#p6ea9ca1ef1)" d="M 439.140678 319.162447 
Q 391.729812 342.943688 345.318305 366.22365 
" style="fill:none;stroke:#000000;stroke-linecap:round;"/>
    <path clip-path="url(#p6ea9ca1ef1)" d="M 349.790437 366.217933 
L 345.318305 366.22365 
L 347.997011 362.642514 
L 349.790437 366.217933 
z
" style="stroke:#000000;stroke-linecap:round;"/>
   </g>
   <g id="patch_79">
    <path clip-path="url(#p6ea9ca1ef1)" d="M 449.393313 323.571857 
Q 456.135998 345.809639 462.55427 366.977489 
" style="fill:none;stroke:#000000;stroke-linecap:round;"/>
    <path clip-path="url(#p6ea9ca1ef1)" d="M 463.30757 362.569253 
L 462.55427 366.977489 
L 459.479662 363.729908 
L 463.30757 362.569253 
z
" style="stroke:#000000;stroke-linecap:round;"/>
   </g>
   <g id="patch_80">
    <path clip-path="url(#p6ea9ca1ef1)" d="M 438.879301 311.968132 
Q 422.77739 305.300803 407.708459 299.061201 
" style="fill:none;stroke:#000000;stroke-linecap:round;"/>
    <path clip-path="url(#p6ea9ca1ef1)" d="M 410.639022 302.439337 
L 407.708459 299.061201 
L 412.169305 298.743632 
L 410.639022 302.439337 
z
" style="stroke:#000000;stroke-linecap:round;"/>
   </g>
   <g id="patch_81">
    <path clip-path="url(#p6ea9ca1ef1)" d="M 445.458579 306.738276 
Q 437.839364 260.928115 430.403583 216.220838 
" style="fill:none;stroke:#000000;stroke-linecap:round;"/>
    <path clip-path="url(#p6ea9ca1ef1)" d="M 429.086956 220.49477 
L 430.403583 216.220838 
L 433.032752 219.838499 
L 429.086956 220.49477 
z
" style="stroke:#000000;stroke-linecap:round;"/>
   </g>
   <g id="patch_82">
    <path clip-path="url(#p6ea9ca1ef1)" d="M 447.237947 306.627739 
Q 450.665976 223.903988 454.047713 142.297312 
" style="fill:none;stroke:#000000;stroke-linecap:round;"/>
    <path clip-path="url(#p6ea9ca1ef1)" d="M 451.883812 146.211074 
L 454.047713 142.297312 
L 455.880382 146.376689 
L 451.883812 146.211074 
z
" style="stroke:#000000;stroke-linecap:round;"/>
   </g>
   <g id="patch_83">
    <path clip-path="url(#p6ea9ca1ef1)" d="M 447.734324 323.897704 
Q 454.318063 390.254539 460.791415 455.498803 
" style="fill:none;stroke:#000000;stroke-linecap:round;"/>
    <path clip-path="url(#p6ea9ca1ef1)" d="M 462.386714 451.320882 
L 460.791415 455.498803 
L 458.406257 451.715812 
L 462.386714 451.320882 
z
" style="stroke:#000000;stroke-linecap:round;"/>
   </g>
   <g id="patch_84">
    <path clip-path="url(#p6ea9ca1ef1)" d="M 441.187503 321.805135 
Q 422.454441 343.278249 404.456366 363.90887 
" style="fill:none;stroke:#000000;stroke-linecap:round;"/>
    <path clip-path="url(#p6ea9ca1ef1)" d="M 408.593033 362.209462 
L 404.456366 363.90887 
L 405.57884 359.579892 
L 408.593033 362.209462 
z
" style="stroke:#000000;stroke-linecap:round;"/>
   </g>
   <g id="patch_85">
    <path clip-path="url(#p6ea9ca1ef1)" d="M 398.987075 313.257115 
Q 370.97201 339.001599 343.78017 363.989578 
" style="fill:none;stroke:#000000;stroke-linecap:round;"/>
    <path clip-path="url(#p6ea9ca1ef1)" d="M 348.078709 362.755656 
L 343.78017 363.989578 
L 345.372156 359.810394 
L 348.078709 362.755656 
z
" style="stroke:#000000;stroke-linecap:round;"/>
   </g>
   <g id="patch_86">
    <path clip-path="url(#p6ea9ca1ef1)" d="M 411.050226 313.930843 
Q 435.377382 341.867005 458.970309 368.960014 
" style="fill:none;stroke:#000000;stroke-linecap:round;"/>
    <path clip-path="url(#p6ea9ca1ef1)" d="M 457.851732 364.630027 
L 458.970309 368.960014 
L 454.835174 367.256884 
L 457.851732 364.630027 
z
" style="stroke:#000000;stroke-linecap:round;"/>
   </g>
   <g id="patch_87">
    <path clip-path="url(#p6ea9ca1ef1)" d="M 401.166692 299.82294 
Q 399.91984 297.571409 399.214626 296.297953 
" style="fill:none;stroke:#000000;stroke-linecap:round;"/>
    <path clip-path="url(#p6ea9ca1ef1)" d="M 399.402815 300.766127 
L 399.214626 296.297953 
L 402.902079 298.828306 
L 399.402815 300.766127 
z
" style="stroke:#000000;stroke-linecap:round;"/>
   </g>
   <g id="patch_88">
    <path clip-path="url(#p6ea9ca1ef1)" d="M 407.32254 298.964979 
Q 417.080676 256.986264 426.58567 216.096547 
" style="fill:none;stroke:#000000;stroke-linecap:round;"/>
    <path clip-path="url(#p6ea9ca1ef1)" d="M 423.731939 219.539833 
L 426.58567 216.096547 
L 427.628061 220.445504 
L 423.731939 219.539833 
z
" style="stroke:#000000;stroke-linecap:round;"/>
   </g>
   <g id="patch_89">
    <path clip-path="url(#p6ea9ca1ef1)" d="M 407.702874 299.060319 
Q 429.907475 219.962728 451.809897 141.941562 
" style="fill:none;stroke:#000000;stroke-linecap:round;"/>
    <path clip-path="url(#p6ea9ca1ef1)" d="M 448.803226 145.25214 
L 451.809897 141.941562 
L 452.654357 146.333245 
L 448.803226 145.25214 
z
" style="stroke:#000000;stroke-linecap:round;"/>
   </g>
   <g id="patch_90">
    <path clip-path="url(#p6ea9ca1ef1)" d="M 408.276647 315.555954 
Q 433.560308 386.317976 458.467782 456.027153 
" style="fill:none;stroke:#000000;stroke-linecap:round;"/>
    <path clip-path="url(#p6ea9ca1ef1)" d="M 459.00528 451.587434 
L 458.467782 456.027153 
L 455.238506 452.933323 
L 459.00528 451.587434 
z
" style="stroke:#000000;stroke-linecap:round;"/>
   </g>
   <g id="patch_91">
    <path clip-path="url(#p6ea9ca1ef1)" d="M 404.374246 316.003432 
Q 401.695555 339.336932 399.144378 361.559693 
" style="fill:none;stroke:#000000;stroke-linecap:round;"/>
    <path clip-path="url(#p6ea9ca1ef1)" d="M 401.587532 357.813896 
L 399.144378 361.559693 
L 397.613633 357.357691 
L 401.587532 357.813896 
z
" style="stroke:#000000;stroke-linecap:round;"/>
   </g>
   <g id="patch_92">
    <path clip-path="url(#p6ea9ca1ef1)" d="M 413.58277 317.447657 
Q 378.644425 341.567338 344.626161 365.051842 
" style="fill:none;stroke:#000000;stroke-linecap:round;"/>
    <path clip-path="url(#p6ea9ca1ef1)" d="M 349.054183 364.425252 
L 344.626161 365.051842 
L 346.781702 361.13347 
L 349.054183 364.425252 
z
" style="stroke:#000000;stroke-linecap:round;"/>
   </g>
   <g id="patch_93">
    <path clip-path="url(#p6ea9ca1ef1)" d="M 425.67369 319.620725 
Q 443.048809 344.430726 459.782576 368.324938 
" style="fill:none;stroke:#000000;stroke-linecap:round;"/>
    <path clip-path="url(#p6ea9ca1ef1)" d="M 459.12622 363.90123 
L 459.782576 368.324938 
L 455.849796 366.195798 
L 459.12622 363.90123 
z
" style="stroke:#000000;stroke-linecap:round;"/>
   </g>
   <g id="patch_94">
    <path clip-path="url(#p6ea9ca1ef1)" d="M 413.883455 307.199622 
Q 409.689065 303.923701 406.375809 301.335968 
" style="fill:none;stroke:#000000;stroke-linecap:round;"/>
    <path clip-path="url(#p6ea9ca1ef1)" d="M 408.297185 305.374324 
L 406.375809 301.335968 
L 410.759319 302.221881 
L 408.297185 305.374324 
z
" style="stroke:#000000;stroke-linecap:round;"/>
   </g>
   <g id="patch_95">
    <path clip-path="url(#p6ea9ca1ef1)" d="M 421.366905 303.89258 
Q 424.753357 259.550219 428.054671 216.322645 
" style="fill:none;stroke:#000000;stroke-linecap:round;"/>
    <path clip-path="url(#p6ea9ca1ef1)" d="M 425.755883 220.158733 
L 428.054671 216.322645 
L 429.744269 220.463328 
L 425.755883 220.158733 
z
" style="stroke:#000000;stroke-linecap:round;"/>
   </g>
   <g id="patch_96">
    <path clip-path="url(#p6ea9ca1ef1)" d="M 422.30303 304.017502 
Q 437.579892 222.528774 452.650743 142.138936 
" style="fill:none;stroke:#000000;stroke-linecap:round;"/>
    <path clip-path="url(#p6ea9ca1ef1)" d="M 449.94794 145.701921 
L 452.650743 142.138936 
L 453.879449 146.438969 
L 449.94794 145.701921 
z
" style="stroke:#000000;stroke-linecap:round;"/>
   </g>
   <g id="patch_97">
    <path clip-path="url(#p6ea9ca1ef1)" d="M 422.955997 320.894221 
Q 441.232309 388.881429 459.218375 455.788934 
" style="fill:none;stroke:#000000;stroke-linecap:round;"/>
    <path clip-path="url(#p6ea9ca1ef1)" d="M 460.111392 451.406866 
L 459.218375 455.788934 
L 456.248531 452.44528 
L 460.111392 451.406866 
z
" style="stroke:#000000;stroke-linecap:round;"/>
   </g>
   <g id="patch_98">
    <path clip-path="url(#p6ea9ca1ef1)" d="M 417.588759 320.60769 
Q 409.368575 341.901634 401.551031 362.152563 
" style="fill:none;stroke:#000000;stroke-linecap:round;"/>
    <path clip-path="url(#p6ea9ca1ef1)" d="M 404.85736 359.14122 
L 401.551031 362.152563 
L 401.125754 357.700693 
L 404.85736 359.14122 
z
" style="stroke:#000000;stroke-linecap:round;"/>
   </g>
   <g id="patch_99">
    <path clip-path="url(#p6ea9ca1ef1)" d="M 406.139001 333.038754 
Q 410.165986 373.740387 414.082891 413.329419 
" style="fill:none;stroke:#000000;stroke-linecap:round;"/>
    <path clip-path="url(#p6ea9ca1ef1)" d="M 415.67934 409.151938 
L 414.082891 413.329419 
L 411.698775 409.545771 
L 415.67934 409.151938 
z
" style="stroke:#000000;stroke-linecap:round;"/>
   </g>
   <g id="patch_100">
    <path clip-path="url(#p6ea9ca1ef1)" d="M 401.009424 316.890549 
Q 347.731902 223.090285 295.006558 130.262183 
" style="fill:none;stroke:#000000;stroke-linecap:round;"/>
    <path clip-path="url(#p6ea9ca1ef1)" d="M 295.243031 134.728062 
L 295.006558 130.262183 
L 298.721146 132.752532 
L 295.243031 134.728062 
z
" style="stroke:#000000;stroke-linecap:round;"/>
   </g>
   <g id="patch_101">
    <path clip-path="url(#p6ea9ca1ef1)" d="M 412.647466 328.984687 
Q 506.253946 387.025093 598.910225 444.476331 
" style="fill:none;stroke:#000000;stroke-linecap:round;"/>
    <path clip-path="url(#p6ea9ca1ef1)" d="M 596.564622 440.668687 
L 598.910225 444.476331 
L 594.456748 444.068227 
L 596.564622 440.668687 
z
" style="stroke:#000000;stroke-linecap:round;"/>
   </g>
   <g id="patch_102">
    <path clip-path="url(#p6ea9ca1ef1)" d="M 455.117085 313.068743 
Q 436.564106 363.994455 418.393838 413.869676 
" style="fill:none;stroke:#000000;stroke-linecap:round;"/>
    <path clip-path="url(#p6ea9ca1ef1)" d="M 421.642238 410.795933 
L 418.393838 413.869676 
L 417.883884 409.426709 
L 421.642238 410.795933 
z
" style="stroke:#000000;stroke-linecap:round;"/>
   </g>
   <g id="patch_103">
    <path clip-path="url(#p6ea9ca1ef1)" d="M 452.227111 298.545772 
Q 374.12869 213.345438 296.785743 128.969277 
" style="fill:none;stroke:#000000;stroke-linecap:round;"/>
    <path clip-path="url(#p6ea9ca1ef1)" d="M 298.014281 133.269357 
L 296.785743 128.969277 
L 300.96293 130.566494 
L 298.014281 133.269357 
z
" style="stroke:#000000;stroke-linecap:round;"/>
   </g>
   <g id="patch_104">
    <path clip-path="url(#p6ea9ca1ef1)" d="M 464.296193 310.962084 
Q 532.649517 377.27937 600.200411 442.818128 
" style="fill:none;stroke:#000000;stroke-linecap:round;"/>
    <path clip-path="url(#p6ea9ca1ef1)" d="M 598.722223 438.59735 
L 600.200411 442.818128 
L 595.936876 441.468211 
L 598.722223 438.59735 
z
" style="stroke:#000000;stroke-linecap:round;"/>
   </g>
   <g id="patch_105">
    <path clip-path="url(#p6ea9ca1ef1)" d="M 496.408729 360.469902 
Q 480.442386 408.741796 464.827136 455.952212 
" style="fill:none;stroke:#000000;stroke-linecap:round;"/>
    <path clip-path="url(#p6ea9ca1ef1)" d="M 467.982072 452.782609 
L 464.827136 455.952212 
L 464.184416 451.526502 
L 467.982072 452.782609 
z
" style="stroke:#000000;stroke-linecap:round;"/>
   </g>
   <g id="patch_106">
    <path clip-path="url(#p6ea9ca1ef1)" d="M 490.616384 353.848498 
Q 448.579322 361.761244 407.640997 369.467171 
" style="fill:none;stroke:#000000;stroke-linecap:round;"/>
    <path clip-path="url(#p6ea9ca1ef1)" d="M 411.941932 370.692718 
L 407.640997 369.467171 
L 411.201995 366.761752 
L 411.941932 370.692718 
z
" style="stroke:#000000;stroke-linecap:round;"/>
   </g>
   <g id="patch_107">
    <path clip-path="url(#p6ea9ca1ef1)" d="M 454.063059 461.262399 
Q 425.636369 446.590883 398.203191 432.432137 
" style="fill:none;stroke:#000000;stroke-linecap:round;"/>
    <path clip-path="url(#p6ea9ca1ef1)" d="M 400.84042 436.043926 
L 398.203191 432.432137 
L 402.67496 432.489427 
L 400.84042 436.043926 
z
" style="stroke:#000000;stroke-linecap:round;"/>
   </g>
   <g id="patch_108">
    <path clip-path="url(#p6ea9ca1ef1)" d="M 470.364844 464.310143 
Q 534.488761 457.431297 597.501021 450.671703 
" style="fill:none;stroke:#000000;stroke-linecap:round;"/>
    <path clip-path="url(#p6ea9ca1ef1)" d="M 593.310516 449.109761 
L 597.501021 450.671703 
L 593.737165 453.086943 
L 593.310516 449.109761 
z
" style="stroke:#000000;stroke-linecap:round;"/>
   </g>
   <g id="patch_109">
    <path clip-path="url(#p6ea9ca1ef1)" d="M 453.121776 465.853298 
Q 399.621106 469.693126 347.235602 473.452918 
" style="fill:none;stroke:#000000;stroke-linecap:round;"/>
    <path clip-path="url(#p6ea9ca1ef1)" d="M 351.368515 475.161436 
L 347.235602 473.452918 
L 351.082165 471.171699 
L 351.368515 475.161436 
z
" style="stroke:#000000;stroke-linecap:round;"/>
   </g>
   <g id="patch_110">
    <path clip-path="url(#p6ea9ca1ef1)" d="M 396.742839 379.837437 
Q 393.772547 399.610037 390.968345 418.277008 
" style="fill:none;stroke:#000000;stroke-linecap:round;"/>
    <path clip-path="url(#p6ea9ca1ef1)" d="M 393.540376 414.618504 
L 390.968345 418.277008 
L 389.58476 414.024281 
L 393.540376 414.618504 
z
" style="stroke:#000000;stroke-linecap:round;"/>
   </g>
   <g id="patch_111">
    <path clip-path="url(#p6ea9ca1ef1)" d="M 406.139786 374.314415 
Q 502.625427 410.453056 598.064066 446.199542 
" style="fill:none;stroke:#000000;stroke-linecap:round;"/>
    <path clip-path="url(#p6ea9ca1ef1)" d="M 595.019702 442.923592 
L 598.064066 446.199542 
L 593.616688 446.669463 
L 595.019702 442.923592 
z
" style="stroke:#000000;stroke-linecap:round;"/>
   </g>
   <g id="patch_112">
    <path clip-path="url(#p6ea9ca1ef1)" d="M 393.637024 378.739156 
Q 367.757064 422.714481 342.444166 465.726251 
" style="fill:none;stroke:#000000;stroke-linecap:round;"/>
    <path clip-path="url(#p6ea9ca1ef1)" d="M 346.196613 463.293323 
L 342.444166 465.726251 
L 342.749292 461.264536 
L 346.196613 463.293323 
z
" style="stroke:#000000;stroke-linecap:round;"/>
   </g>
   <g id="patch_113">
    <path clip-path="url(#p6ea9ca1ef1)" d="M 438.472739 191.042354 
Q 463.838875 215.004439 488.392269 238.198769 
" style="fill:none;stroke:#000000;stroke-linecap:round;"/>
    <path clip-path="url(#p6ea9ca1ef1)" d="M 486.857917 233.998083 
L 488.392269 238.198769 
L 484.111109 236.905839 
L 486.857917 233.998083 
z
" style="stroke:#000000;stroke-linecap:round;"/>
   </g>
   <g id="patch_114">
    <path clip-path="url(#p6ea9ca1ef1)" d="M 439.799886 189.204089 
Q 471.932135 206.521565 503.080186 223.308613 
" style="fill:none;stroke:#000000;stroke-linecap:round;"/>
    <path clip-path="url(#p6ea9ca1ef1)" d="M 500.507869 219.65031 
L 503.080186 223.308613 
L 498.610153 223.171485 
L 500.507869 219.65031 
z
" style="stroke:#000000;stroke-linecap:round;"/>
   </g>
   <g id="patch_115">
    <path clip-path="url(#p6ea9ca1ef1)" d="M 424.269997 181.569188 
Q 361.178807 153.428697 299.108687 125.743634 
" style="fill:none;stroke:#000000;stroke-linecap:round;"/>
    <path clip-path="url(#p6ea9ca1ef1)" d="M 301.947089 129.199567 
L 299.108687 125.743634 
L 303.576475 125.546472 
L 301.947089 129.199567 
z
" style="stroke:#000000;stroke-linecap:round;"/>
   </g>
   <g id="patch_116">
    <path clip-path="url(#p6ea9ca1ef1)" d="M 436.265068 177.456835 
Q 449.789578 152.171457 462.786772 127.871947 
" style="fill:none;stroke:#000000;stroke-linecap:round;"/>
    <path clip-path="url(#p6ea9ca1ef1)" d="M 459.136612 130.455807 
L 462.786772 127.871947 
L 462.663763 132.342391 
L 459.136612 130.455807 
z
" style="stroke:#000000;stroke-linecap:round;"/>
   </g>
   <g id="patch_117">
    <path clip-path="url(#p6ea9ca1ef1)" d="M 450.243264 177.099274 
Q 470.467865 207.403884 490.071835 236.778538 
" style="fill:none;stroke:#000000;stroke-linecap:round;"/>
    <path clip-path="url(#p6ea9ca1ef1)" d="M 489.514954 232.34121 
L 490.071835 236.778538 
L 486.187844 234.561647 
L 489.514954 232.34121 
z
" style="stroke:#000000;stroke-linecap:round;"/>
   </g>
   <g id="patch_118">
    <path clip-path="url(#p6ea9ca1ef1)" d="M 451.947155 175.600759 
Q 478.558531 198.918928 504.329021 221.500271 
" style="fill:none;stroke:#000000;stroke-linecap:round;"/>
    <path clip-path="url(#p6ea9ca1ef1)" d="M 502.638648 217.359904 
L 504.329021 221.500271 
L 500.002504 220.368349 
L 502.638648 217.359904 
z
" style="stroke:#000000;stroke-linecap:round;"/>
   </g>
   <g id="patch_119">
    <path clip-path="url(#p6ea9ca1ef1)" d="M 437.166952 167.331105 
Q 367.810309 145.828508 299.521556 124.656989 
" style="fill:none;stroke:#000000;stroke-linecap:round;"/>
    <path clip-path="url(#p6ea9ca1ef1)" d="M 302.749905 127.751785 
L 299.521556 124.656989 
L 303.934402 123.931188 
L 302.749905 127.751785 
z
" style="stroke:#000000;stroke-linecap:round;"/>
   </g>
   <g id="patch_120">
    <path clip-path="url(#p6ea9ca1ef1)" d="M 448.881317 161.947476 
Q 456.416541 144.572315 463.506929 128.222883 
" style="fill:none;stroke:#000000;stroke-linecap:round;"/>
    <path clip-path="url(#p6ea9ca1ef1)" d="M 460.080554 131.096897 
L 463.506929 128.222883 
L 463.750315 132.688391 
L 460.080554 131.096897 
z
" style="stroke:#000000;stroke-linecap:round;"/>
   </g>
   <g id="patch_121">
    <path clip-path="url(#p6ea9ca1ef1)" d="M 487.821741 248.912607 
Q 447.087497 270.117224 407.344965 290.805595 
" style="fill:none;stroke:#000000;stroke-linecap:round;"/>
    <path clip-path="url(#p6ea9ca1ef1)" d="M 411.816506 290.732647 
L 407.344965 290.805595 
L 409.969531 287.184593 
L 411.816506 290.732647 
z
" style="stroke:#000000;stroke-linecap:round;"/>
   </g>
   <g id="patch_122">
    <path clip-path="url(#p6ea9ca1ef1)" d="M 487.990363 240.597204 
Q 462.150208 225.744373 437.279369 211.448702 
" style="fill:none;stroke:#000000;stroke-linecap:round;"/>
    <path clip-path="url(#p6ea9ca1ef1)" d="M 439.750622 215.176021 
L 437.279369 211.448702 
L 441.743976 211.708091 
L 439.750622 215.176021 
z
" style="stroke:#000000;stroke-linecap:round;"/>
   </g>
   <g id="patch_123">
    <path clip-path="url(#p6ea9ca1ef1)" d="M 492.531528 236.782715 
Q 474.977758 188.722962 457.807564 141.713385 
" style="fill:none;stroke:#000000;stroke-linecap:round;"/>
    <path clip-path="url(#p6ea9ca1ef1)" d="M 457.301274 146.15677 
L 457.807564 141.713385 
L 461.058498 144.784448 
L 457.301274 146.15677 
z
" style="stroke:#000000;stroke-linecap:round;"/>
   </g>
   <g id="patch_124">
    <path clip-path="url(#p6ea9ca1ef1)" d="M 504.246352 232.381382 
Q 455.179289 261.633147 407.072555 290.312403 
" style="fill:none;stroke:#000000;stroke-linecap:round;"/>
    <path clip-path="url(#p6ea9ca1ef1)" d="M 411.53247 289.982022 
L 407.072555 290.312403 
L 409.4842 286.546242 
L 411.53247 289.982022 
z
" style="stroke:#000000;stroke-linecap:round;"/>
   </g>
   <g id="patch_125">
    <path clip-path="url(#p6ea9ca1ef1)" d="M 503.300298 225.784301 
Q 470.244509 217.260921 438.271344 209.016693 
" style="fill:none;stroke:#000000;stroke-linecap:round;"/>
    <path clip-path="url(#p6ea9ca1ef1)" d="M 441.645292 211.952076 
L 438.271344 209.016693 
L 442.64402 208.078764 
L 441.645292 211.952076 
z
" style="stroke:#000000;stroke-linecap:round;"/>
   </g>
   <g id="patch_126">
    <path clip-path="url(#p6ea9ca1ef1)" d="M 507.229956 220.518059 
Q 483.067963 180.235306 459.48106 140.91134 
" style="fill:none;stroke:#000000;stroke-linecap:round;"/>
    <path clip-path="url(#p6ea9ca1ef1)" d="M 459.823434 145.370351 
L 459.48106 140.91134 
L 463.253693 143.312847 
L 459.823434 145.370351 
z
" style="stroke:#000000;stroke-linecap:round;"/>
   </g>
   <g id="PathCollection_1">
    <defs>
     <path d="M 0 8.660254 
C 2.296726 8.660254 4.499694 7.747755 6.123724 6.123724 
C 7.747755 4.499694 8.660254 2.296726 8.660254 -0 
C 8.660254 -2.296726 7.747755 -4.499694 6.123724 -6.123724 
C 4.499694 -7.747755 2.296726 -8.660254 0 -8.660254 
C -2.296726 -8.660254 -4.499694 -7.747755 -6.123724 -6.123724 
C -7.747755 -4.499694 -8.660254 -2.296726 -8.660254 0 
C -8.660254 2.296726 -7.747755 4.499694 -6.123724 6.123724 
C -4.499694 7.747755 -2.296726 8.660254 0 8.660254 
z
" id="C0_0_45975f2d9d"/>
    </defs>
    <g clip-path="url(#p6ea9ca1ef1)">
     <use style="fill:#ff0000;stroke:#ff0000;" x="465.391018" xlink:href="#C0_0_45975f2d9d" y="376.333254"/>
    </g>
    <g clip-path="url(#p6ea9ca1ef1)">
     <use style="fill:#ff0000;stroke:#ff0000;" x="427.907603" xlink:href="#C0_0_45975f2d9d" y="187.174286"/>
    </g>
    <g clip-path="url(#p6ea9ca1ef1)">
     <use style="fill:#008000;stroke:#008000;" x="435.561667" xlink:href="#C0_0_45975f2d9d" y="160.333233"/>
    </g>
    <g clip-path="url(#p6ea9ca1ef1)">
     <use style="fill:#ff0000;stroke:#ff0000;" x="426.796164" xlink:href="#C0_0_45975f2d9d" y="300.038796"/>
    </g>
    <g clip-path="url(#p6ea9ca1ef1)">
     <use style="fill:#008000;stroke:#008000;" x="595.137365" xlink:href="#C0_0_45975f2d9d" y="230.924505"/>
    </g>
    <g clip-path="url(#p6ea9ca1ef1)">
     <use style="fill:#ff0000;stroke:#ff0000;" x="435.594987" xlink:href="#C0_0_45975f2d9d" y="309.238839"/>
    </g>
    <g clip-path="url(#p6ea9ca1ef1)">
     <use style="fill:#008000;stroke:#008000;" x="703.442165" xlink:href="#C0_0_45975f2d9d" y="343.412466"/>
    </g>
    <g clip-path="url(#p6ea9ca1ef1)">
     <use style="fill:#008000;stroke:#008000;" x="249.596758" xlink:href="#C0_0_45975f2d9d" y="368.314865"/>
    </g>
    <g clip-path="url(#p6ea9ca1ef1)">
     <use style="fill:#008000;stroke:#008000;" x="314.616625" xlink:href="#C0_0_45975f2d9d" y="266.244279"/>
    </g>
    <g clip-path="url(#p6ea9ca1ef1)">
     <use style="fill:#ff0000;stroke:#ff0000;" x="415.045635" xlink:href="#C0_0_45975f2d9d" y="423.060091"/>
    </g>
    <g clip-path="url(#p6ea9ca1ef1)">
     <use style="fill:#ff0000;stroke:#ff0000;" x="389.515502" xlink:href="#C0_0_45975f2d9d" y="427.948267"/>
    </g>
    <g clip-path="url(#p6ea9ca1ef1)">
     <use style="fill:#ff0000;stroke:#ff0000;" x="454.452555" xlink:href="#C0_0_45975f2d9d" y="132.527841"/>
    </g>
    <g clip-path="url(#p6ea9ca1ef1)">
     <use style="fill:#ff0000;stroke:#ff0000;" x="470.578163" xlink:href="#C0_0_45975f2d9d" y="202.911722"/>
    </g>
    <g clip-path="url(#p6ea9ca1ef1)">
     <use style="fill:#ff0000;stroke:#ff0000;" x="398.672989" xlink:href="#C0_0_45975f2d9d" y="295.319878"/>
    </g>
    <g clip-path="url(#p6ea9ca1ef1)">
     <use style="fill:#ff0000;stroke:#ff0000;" x="336.578587" xlink:href="#C0_0_45975f2d9d" y="370.607483"/>
    </g>
    <g clip-path="url(#p6ea9ca1ef1)">
     <use style="fill:#ff0000;stroke:#ff0000;" x="428.799157" xlink:href="#C0_0_45975f2d9d" y="206.574305"/>
    </g>
    <g clip-path="url(#p6ea9ca1ef1)">
     <use style="fill:#ff0000;stroke:#ff0000;" x="607.220447" xlink:href="#C0_0_45975f2d9d" y="449.629059"/>
    </g>
    <g clip-path="url(#p6ea9ca1ef1)">
     <use style="fill:#ff0000;stroke:#ff0000;" x="337.485092" xlink:href="#C0_0_45975f2d9d" y="474.152727"/>
    </g>
    <g clip-path="url(#p6ea9ca1ef1)">
     <use style="fill:#ff0000;stroke:#ff0000;" x="166.105785" xlink:href="#C0_0_45975f2d9d" y="289.544184"/>
    </g>
    <g clip-path="url(#p6ea9ca1ef1)">
     <use style="fill:#ff0000;stroke:#ff0000;" x="496.146865" xlink:href="#C0_0_45975f2d9d" y="278.211572"/>
    </g>
    <g clip-path="url(#p6ea9ca1ef1)">
     <use style="fill:#ff0000;stroke:#ff0000;" x="485.7558" xlink:href="#C0_0_45975f2d9d" y="275.168936"/>
    </g>
    <g clip-path="url(#p6ea9ca1ef1)">
     <use style="fill:#ff0000;stroke:#ff0000;" x="719.494215" xlink:href="#C0_0_45975f2d9d" y="262.562336"/>
    </g>
    <g clip-path="url(#p6ea9ca1ef1)">
     <use style="fill:#ff0000;stroke:#ff0000;" x="399.488666" xlink:href="#C0_0_45975f2d9d" y="107.607273"/>
    </g>
    <g clip-path="url(#p6ea9ca1ef1)">
     <use style="fill:#ff0000;stroke:#ff0000;" x="684.5646" xlink:href="#C0_0_45975f2d9d" y="200.583947"/>
    </g>
    <g clip-path="url(#p6ea9ca1ef1)">
     <use style="fill:#ff0000;stroke:#ff0000;" x="541.016947" xlink:href="#C0_0_45975f2d9d" y="204.764733"/>
    </g>
    <g clip-path="url(#p6ea9ca1ef1)">
     <use style="fill:#ff0000;stroke:#ff0000;" x="602.843985" xlink:href="#C0_0_45975f2d9d" y="164.108512"/>
    </g>
    <g clip-path="url(#p6ea9ca1ef1)">
     <use style="fill:#ff0000;stroke:#ff0000;" x="446.879372" xlink:href="#C0_0_45975f2d9d" y="315.280727"/>
    </g>
    <g clip-path="url(#p6ea9ca1ef1)">
     <use style="fill:#ff0000;stroke:#ff0000;" x="405.362057" xlink:href="#C0_0_45975f2d9d" y="307.398817"/>
    </g>
    <g clip-path="url(#p6ea9ca1ef1)">
     <use style="fill:#ff0000;stroke:#ff0000;" x="420.70732" xlink:href="#C0_0_45975f2d9d" y="312.529225"/>
    </g>
    <g clip-path="url(#p6ea9ca1ef1)">
     <use style="fill:#ff0000;stroke:#ff0000;" x="405.286311" xlink:href="#C0_0_45975f2d9d" y="324.420426"/>
    </g>
    <g clip-path="url(#p6ea9ca1ef1)">
     <use style="fill:#ff0000;stroke:#ff0000;" x="458.081303" xlink:href="#C0_0_45975f2d9d" y="304.932318"/>
    </g>
    <g clip-path="url(#p6ea9ca1ef1)">
     <use style="fill:#ff0000;stroke:#ff0000;" x="499.128794" xlink:href="#C0_0_45975f2d9d" y="352.246185"/>
    </g>
    <g clip-path="url(#p6ea9ca1ef1)">
     <use style="fill:#ff0000;stroke:#ff0000;" x="461.757266" xlink:href="#C0_0_45975f2d9d" y="465.233515"/>
    </g>
    <g clip-path="url(#p6ea9ca1ef1)">
     <use style="fill:#ff0000;stroke:#ff0000;" x="398.028888" xlink:href="#C0_0_45975f2d9d" y="371.276484"/>
    </g>
    <g clip-path="url(#p6ea9ca1ef1)">
     <use style="fill:#ff0000;stroke:#ff0000;" x="432.178698" xlink:href="#C0_0_45975f2d9d" y="185.096697"/>
    </g>
    <g clip-path="url(#p6ea9ca1ef1)">
     <use style="fill:#ff0000;stroke:#ff0000;" x="445.434906" xlink:href="#C0_0_45975f2d9d" y="169.894413"/>
    </g>
    <g clip-path="url(#p6ea9ca1ef1)">
     <use style="fill:#ff0000;stroke:#ff0000;" x="495.501731" xlink:href="#C0_0_45975f2d9d" y="244.914712"/>
    </g>
    <g clip-path="url(#p6ea9ca1ef1)">
     <use style="fill:#ff0000;stroke:#ff0000;" x="511.685565" xlink:href="#C0_0_45975f2d9d" y="227.946429"/>
    </g>
    <g clip-path="url(#p6ea9ca1ef1)">
     <use style="fill:#ff0000;stroke:#ff0000;" x="290.177431" xlink:href="#C0_0_45975f2d9d" y="121.760036"/>
    </g>
    <g clip-path="url(#p6ea9ca1ef1)">
     <use style="fill:#ff0000;stroke:#ff0000;" x="467.397569" xlink:href="#C0_0_45975f2d9d" y="119.251617"/>
    </g>
   </g>
   <g id="text_1">
    <g clip-path="url(#p6ea9ca1ef1)">
     <!-- IFNG -->
     <g transform="translate(451.032268 379.644504)scale(0.12 -0.12)">
      <defs>
       <path d="M 9.8125 72.90625 
L 19.671875 72.90625 
L 19.671875 0 
L 9.8125 0 
z
" id="DejaVuSans-73"/>
       <path d="M 9.8125 72.90625 
L 51.703125 72.90625 
L 51.703125 64.59375 
L 19.671875 64.59375 
L 19.671875 43.109375 
L 48.578125 43.109375 
L 48.578125 34.8125 
L 19.671875 34.8125 
L 19.671875 0 
L 9.8125 0 
z
" id="DejaVuSans-70"/>
       <path d="M 9.8125 72.90625 
L 23.09375 72.90625 
L 55.421875 11.921875 
L 55.421875 72.90625 
L 64.984375 72.90625 
L 64.984375 0 
L 51.703125 0 
L 19.390625 60.984375 
L 19.390625 0 
L 9.8125 0 
z
" id="DejaVuSans-78"/>
       <path d="M 59.515625 10.40625 
L 59.515625 29.984375 
L 43.40625 29.984375 
L 43.40625 38.09375 
L 69.28125 38.09375 
L 69.28125 6.78125 
Q 63.578125 2.734375 56.6875 0.65625 
Q 49.8125 -1.421875 42 -1.421875 
Q 24.90625 -1.421875 15.25 8.5625 
Q 5.609375 18.5625 5.609375 36.375 
Q 5.609375 54.25 15.25 64.234375 
Q 24.90625 74.21875 42 74.21875 
Q 49.125 74.21875 55.546875 72.453125 
Q 61.96875 70.703125 67.390625 67.28125 
L 67.390625 56.78125 
Q 61.921875 61.421875 55.765625 63.765625 
Q 49.609375 66.109375 42.828125 66.109375 
Q 29.4375 66.109375 22.71875 58.640625 
Q 16.015625 51.171875 16.015625 36.375 
Q 16.015625 21.625 22.71875 14.15625 
Q 29.4375 6.6875 42.828125 6.6875 
Q 48.046875 6.6875 52.140625 7.59375 
Q 56.25 8.5 59.515625 10.40625 
z
" id="DejaVuSans-71"/>
      </defs>
      <use xlink:href="#DejaVuSans-73"/>
      <use x="29.492188" xlink:href="#DejaVuSans-70"/>
      <use x="87.011719" xlink:href="#DejaVuSans-78"/>
      <use x="161.816406" xlink:href="#DejaVuSans-71"/>
     </g>
    </g>
   </g>
   <g id="text_2">
    <g clip-path="url(#p6ea9ca1ef1)">
     <!-- PRKCQ -->
     <g transform="translate(407.603228 190.485536)scale(0.12 -0.12)">
      <defs>
       <path d="M 19.671875 64.796875 
L 19.671875 37.40625 
L 32.078125 37.40625 
Q 38.96875 37.40625 42.71875 40.96875 
Q 46.484375 44.53125 46.484375 51.125 
Q 46.484375 57.671875 42.71875 61.234375 
Q 38.96875 64.796875 32.078125 64.796875 
z
M 9.8125 72.90625 
L 32.078125 72.90625 
Q 44.34375 72.90625 50.609375 67.359375 
Q 56.890625 61.8125 56.890625 51.125 
Q 56.890625 40.328125 50.609375 34.8125 
Q 44.34375 29.296875 32.078125 29.296875 
L 19.671875 29.296875 
L 19.671875 0 
L 9.8125 0 
z
" id="DejaVuSans-80"/>
       <path d="M 44.390625 34.1875 
Q 47.5625 33.109375 50.5625 29.59375 
Q 53.5625 26.078125 56.59375 19.921875 
L 66.609375 0 
L 56 0 
L 46.6875 18.703125 
Q 43.0625 26.03125 39.671875 28.421875 
Q 36.28125 30.8125 30.421875 30.8125 
L 19.671875 30.8125 
L 19.671875 0 
L 9.8125 0 
L 9.8125 72.90625 
L 32.078125 72.90625 
Q 44.578125 72.90625 50.734375 67.671875 
Q 56.890625 62.453125 56.890625 51.90625 
Q 56.890625 45.015625 53.6875 40.46875 
Q 50.484375 35.9375 44.390625 34.1875 
z
M 19.671875 64.796875 
L 19.671875 38.921875 
L 32.078125 38.921875 
Q 39.203125 38.921875 42.84375 42.21875 
Q 46.484375 45.515625 46.484375 51.90625 
Q 46.484375 58.296875 42.84375 61.546875 
Q 39.203125 64.796875 32.078125 64.796875 
z
" id="DejaVuSans-82"/>
       <path d="M 9.8125 72.90625 
L 19.671875 72.90625 
L 19.671875 42.09375 
L 52.390625 72.90625 
L 65.09375 72.90625 
L 28.90625 38.921875 
L 67.671875 0 
L 54.6875 0 
L 19.671875 35.109375 
L 19.671875 0 
L 9.8125 0 
z
" id="DejaVuSans-75"/>
       <path d="M 64.40625 67.28125 
L 64.40625 56.890625 
Q 59.421875 61.53125 53.78125 63.8125 
Q 48.140625 66.109375 41.796875 66.109375 
Q 29.296875 66.109375 22.65625 58.46875 
Q 16.015625 50.828125 16.015625 36.375 
Q 16.015625 21.96875 22.65625 14.328125 
Q 29.296875 6.6875 41.796875 6.6875 
Q 48.140625 6.6875 53.78125 8.984375 
Q 59.421875 11.28125 64.40625 15.921875 
L 64.40625 5.609375 
Q 59.234375 2.09375 53.4375 0.328125 
Q 47.65625 -1.421875 41.21875 -1.421875 
Q 24.65625 -1.421875 15.125 8.703125 
Q 5.609375 18.84375 5.609375 36.375 
Q 5.609375 53.953125 15.125 64.078125 
Q 24.65625 74.21875 41.21875 74.21875 
Q 47.75 74.21875 53.53125 72.484375 
Q 59.328125 70.75 64.40625 67.28125 
z
" id="DejaVuSans-67"/>
       <path d="M 39.40625 66.21875 
Q 28.65625 66.21875 22.328125 58.203125 
Q 16.015625 50.203125 16.015625 36.375 
Q 16.015625 22.609375 22.328125 14.59375 
Q 28.65625 6.59375 39.40625 6.59375 
Q 50.140625 6.59375 56.421875 14.59375 
Q 62.703125 22.609375 62.703125 36.375 
Q 62.703125 50.203125 56.421875 58.203125 
Q 50.140625 66.21875 39.40625 66.21875 
z
M 53.21875 1.3125 
L 66.21875 -12.890625 
L 54.296875 -12.890625 
L 43.5 -1.21875 
Q 41.890625 -1.3125 41.03125 -1.359375 
Q 40.1875 -1.421875 39.40625 -1.421875 
Q 24.03125 -1.421875 14.8125 8.859375 
Q 5.609375 19.140625 5.609375 36.375 
Q 5.609375 53.65625 14.8125 63.9375 
Q 24.03125 74.21875 39.40625 74.21875 
Q 54.734375 74.21875 63.90625 63.9375 
Q 73.09375 53.65625 73.09375 36.375 
Q 73.09375 23.6875 67.984375 14.640625 
Q 62.890625 5.609375 53.21875 1.3125 
z
" id="DejaVuSans-81"/>
      </defs>
      <use xlink:href="#DejaVuSans-80"/>
      <use x="60.302734" xlink:href="#DejaVuSans-82"/>
      <use x="129.785156" xlink:href="#DejaVuSans-75"/>
      <use x="189.861328" xlink:href="#DejaVuSans-67"/>
      <use x="259.685547" xlink:href="#DejaVuSans-81"/>
     </g>
    </g>
   </g>
   <g id="text_3">
    <g clip-path="url(#p6ea9ca1ef1)">
     <!-- ZAP70 -->
     <g transform="translate(416.094479 163.644483)scale(0.12 -0.12)">
      <defs>
       <path d="M 5.609375 72.90625 
L 62.890625 72.90625 
L 62.890625 65.375 
L 16.796875 8.296875 
L 64.015625 8.296875 
L 64.015625 0 
L 4.5 0 
L 4.5 7.515625 
L 50.59375 64.59375 
L 5.609375 64.59375 
z
" id="DejaVuSans-90"/>
       <path d="M 34.1875 63.1875 
L 20.796875 26.90625 
L 47.609375 26.90625 
z
M 28.609375 72.90625 
L 39.796875 72.90625 
L 67.578125 0 
L 57.328125 0 
L 50.6875 18.703125 
L 17.828125 18.703125 
L 11.1875 0 
L 0.78125 0 
z
" id="DejaVuSans-65"/>
       <path d="M 8.203125 72.90625 
L 55.078125 72.90625 
L 55.078125 68.703125 
L 28.609375 0 
L 18.3125 0 
L 43.21875 64.59375 
L 8.203125 64.59375 
z
" id="DejaVuSans-55"/>
       <path d="M 31.78125 66.40625 
Q 24.171875 66.40625 20.328125 58.90625 
Q 16.5 51.421875 16.5 36.375 
Q 16.5 21.390625 20.328125 13.890625 
Q 24.171875 6.390625 31.78125 6.390625 
Q 39.453125 6.390625 43.28125 13.890625 
Q 47.125 21.390625 47.125 36.375 
Q 47.125 51.421875 43.28125 58.90625 
Q 39.453125 66.40625 31.78125 66.40625 
z
M 31.78125 74.21875 
Q 44.046875 74.21875 50.515625 64.515625 
Q 56.984375 54.828125 56.984375 36.375 
Q 56.984375 17.96875 50.515625 8.265625 
Q 44.046875 -1.421875 31.78125 -1.421875 
Q 19.53125 -1.421875 13.0625 8.265625 
Q 6.59375 17.96875 6.59375 36.375 
Q 6.59375 54.828125 13.0625 64.515625 
Q 19.53125 74.21875 31.78125 74.21875 
z
" id="DejaVuSans-48"/>
      </defs>
      <use xlink:href="#DejaVuSans-90"/>
      <use x="68.505859" xlink:href="#DejaVuSans-65"/>
      <use x="136.914062" xlink:href="#DejaVuSans-80"/>
      <use x="197.216797" xlink:href="#DejaVuSans-55"/>
      <use x="260.839844" xlink:href="#DejaVuSans-48"/>
     </g>
    </g>
   </g>
   <g id="text_4">
    <g clip-path="url(#p6ea9ca1ef1)">
     <!-- JUN -->
     <g transform="translate(416.146164 303.350046)scale(0.12 -0.12)">
      <defs>
       <path d="M 9.8125 72.90625 
L 19.671875 72.90625 
L 19.671875 5.078125 
Q 19.671875 -8.109375 14.671875 -14.0625 
Q 9.671875 -20.015625 -1.421875 -20.015625 
L -5.171875 -20.015625 
L -5.171875 -11.71875 
L -2.09375 -11.71875 
Q 4.4375 -11.71875 7.125 -8.046875 
Q 9.8125 -4.390625 9.8125 5.078125 
z
" id="DejaVuSans-74"/>
       <path d="M 8.6875 72.90625 
L 18.609375 72.90625 
L 18.609375 28.609375 
Q 18.609375 16.890625 22.84375 11.734375 
Q 27.09375 6.59375 36.625 6.59375 
Q 46.09375 6.59375 50.34375 11.734375 
Q 54.59375 16.890625 54.59375 28.609375 
L 54.59375 72.90625 
L 64.5 72.90625 
L 64.5 27.390625 
Q 64.5 13.140625 57.4375 5.859375 
Q 50.390625 -1.421875 36.625 -1.421875 
Q 22.796875 -1.421875 15.734375 5.859375 
Q 8.6875 13.140625 8.6875 27.390625 
z
" id="DejaVuSans-85"/>
      </defs>
      <use xlink:href="#DejaVuSans-74"/>
      <use x="29.492188" xlink:href="#DejaVuSans-85"/>
      <use x="102.685547" xlink:href="#DejaVuSans-78"/>
     </g>
    </g>
   </g>
   <g id="text_5">
    <g clip-path="url(#p6ea9ca1ef1)">
     <!-- LAT -->
     <g transform="translate(584.355177 234.235755)scale(0.12 -0.12)">
      <defs>
       <path d="M 9.8125 72.90625 
L 19.671875 72.90625 
L 19.671875 8.296875 
L 55.171875 8.296875 
L 55.171875 0 
L 9.8125 0 
z
" id="DejaVuSans-76"/>
       <path d="M -0.296875 72.90625 
L 61.375 72.90625 
L 61.375 64.59375 
L 35.5 64.59375 
L 35.5 0 
L 25.59375 0 
L 25.59375 64.59375 
L -0.296875 64.59375 
z
" id="DejaVuSans-84"/>
      </defs>
      <use xlink:href="#DejaVuSans-76"/>
      <use x="57.962891" xlink:href="#DejaVuSans-65"/>
      <use x="118.621094" xlink:href="#DejaVuSans-84"/>
     </g>
    </g>
   </g>
   <g id="text_6">
    <g clip-path="url(#p6ea9ca1ef1)">
     <!-- FOS -->
     <g transform="translate(423.611862 312.550089)scale(0.12 -0.12)">
      <defs>
       <path d="M 39.40625 66.21875 
Q 28.65625 66.21875 22.328125 58.203125 
Q 16.015625 50.203125 16.015625 36.375 
Q 16.015625 22.609375 22.328125 14.59375 
Q 28.65625 6.59375 39.40625 6.59375 
Q 50.140625 6.59375 56.421875 14.59375 
Q 62.703125 22.609375 62.703125 36.375 
Q 62.703125 50.203125 56.421875 58.203125 
Q 50.140625 66.21875 39.40625 66.21875 
z
M 39.40625 74.21875 
Q 54.734375 74.21875 63.90625 63.9375 
Q 73.09375 53.65625 73.09375 36.375 
Q 73.09375 19.140625 63.90625 8.859375 
Q 54.734375 -1.421875 39.40625 -1.421875 
Q 24.03125 -1.421875 14.8125 8.828125 
Q 5.609375 19.09375 5.609375 36.375 
Q 5.609375 53.65625 14.8125 63.9375 
Q 24.03125 74.21875 39.40625 74.21875 
z
" id="DejaVuSans-79"/>
       <path d="M 53.515625 70.515625 
L 53.515625 60.890625 
Q 47.90625 63.578125 42.921875 64.890625 
Q 37.9375 66.21875 33.296875 66.21875 
Q 25.25 66.21875 20.875 63.09375 
Q 16.5 59.96875 16.5 54.203125 
Q 16.5 49.359375 19.40625 46.890625 
Q 22.3125 44.4375 30.421875 42.921875 
L 36.375 41.703125 
Q 47.40625 39.59375 52.65625 34.296875 
Q 57.90625 29 57.90625 20.125 
Q 57.90625 9.515625 50.796875 4.046875 
Q 43.703125 -1.421875 29.984375 -1.421875 
Q 24.8125 -1.421875 18.96875 -0.25 
Q 13.140625 0.921875 6.890625 3.21875 
L 6.890625 13.375 
Q 12.890625 10.015625 18.65625 8.296875 
Q 24.421875 6.59375 29.984375 6.59375 
Q 38.421875 6.59375 43.015625 9.90625 
Q 47.609375 13.234375 47.609375 19.390625 
Q 47.609375 24.75 44.3125 27.78125 
Q 41.015625 30.8125 33.5 32.328125 
L 27.484375 33.5 
Q 16.453125 35.6875 11.515625 40.375 
Q 6.59375 45.0625 6.59375 53.421875 
Q 6.59375 63.09375 13.40625 68.65625 
Q 20.21875 74.21875 32.171875 74.21875 
Q 37.3125 74.21875 42.625 73.28125 
Q 47.953125 72.359375 53.515625 70.515625 
z
" id="DejaVuSans-83"/>
      </defs>
      <use xlink:href="#DejaVuSans-70"/>
      <use x="57.519531" xlink:href="#DejaVuSans-79"/>
      <use x="136.230469" xlink:href="#DejaVuSans-83"/>
     </g>
    </g>
   </g>
   <g id="text_7">
    <g clip-path="url(#p6ea9ca1ef1)">
     <!-- PLCG1 -->
     <g transform="translate(683.824978 346.723716)scale(0.12 -0.12)">
      <defs>
       <path d="M 12.40625 8.296875 
L 28.515625 8.296875 
L 28.515625 63.921875 
L 10.984375 60.40625 
L 10.984375 69.390625 
L 28.421875 72.90625 
L 38.28125 72.90625 
L 38.28125 8.296875 
L 54.390625 8.296875 
L 54.390625 0 
L 12.40625 0 
z
" id="DejaVuSans-49"/>
      </defs>
      <use xlink:href="#DejaVuSans-80"/>
      <use x="60.302734" xlink:href="#DejaVuSans-76"/>
      <use x="116.015625" xlink:href="#DejaVuSans-67"/>
      <use x="185.839844" xlink:href="#DejaVuSans-71"/>
      <use x="263.330078" xlink:href="#DejaVuSans-49"/>
     </g>
    </g>
   </g>
   <g id="text_8">
    <g clip-path="url(#p6ea9ca1ef1)">
     <!-- CD4 -->
     <g transform="translate(236.96957 371.626115)scale(0.12 -0.12)">
      <defs>
       <path d="M 19.671875 64.796875 
L 19.671875 8.109375 
L 31.59375 8.109375 
Q 46.6875 8.109375 53.6875 14.9375 
Q 60.6875 21.78125 60.6875 36.53125 
Q 60.6875 51.171875 53.6875 57.984375 
Q 46.6875 64.796875 31.59375 64.796875 
z
M 9.8125 72.90625 
L 30.078125 72.90625 
Q 51.265625 72.90625 61.171875 64.09375 
Q 71.09375 55.28125 71.09375 36.53125 
Q 71.09375 17.671875 61.125 8.828125 
Q 51.171875 0 30.078125 0 
L 9.8125 0 
z
" id="DejaVuSans-68"/>
       <path d="M 37.796875 64.3125 
L 12.890625 25.390625 
L 37.796875 25.390625 
z
M 35.203125 72.90625 
L 47.609375 72.90625 
L 47.609375 25.390625 
L 58.015625 25.390625 
L 58.015625 17.1875 
L 47.609375 17.1875 
L 47.609375 0 
L 37.796875 0 
L 37.796875 17.1875 
L 4.890625 17.1875 
L 4.890625 26.703125 
z
" id="DejaVuSans-52"/>
      </defs>
      <use xlink:href="#DejaVuSans-67"/>
      <use x="69.824219" xlink:href="#DejaVuSans-68"/>
      <use x="146.826172" xlink:href="#DejaVuSans-52"/>
     </g>
    </g>
   </g>
   <g id="text_9">
    <g clip-path="url(#p6ea9ca1ef1)">
     <!-- LCK -->
     <g transform="translate(303.149125 269.555529)scale(0.12 -0.12)">
      <use xlink:href="#DejaVuSans-76"/>
      <use x="55.712891" xlink:href="#DejaVuSans-67"/>
      <use x="125.537109" xlink:href="#DejaVuSans-75"/>
     </g>
    </g>
   </g>
   <g id="text_10">
    <g clip-path="url(#p6ea9ca1ef1)">
     <!-- STAT1 -->
     <g transform="translate(396.915323 426.371341)scale(0.12 -0.12)">
      <use xlink:href="#DejaVuSans-83"/>
      <use x="63.476562" xlink:href="#DejaVuSans-84"/>
      <use x="116.810547" xlink:href="#DejaVuSans-65"/>
      <use x="177.46875" xlink:href="#DejaVuSans-84"/>
      <use x="238.552734" xlink:href="#DejaVuSans-49"/>
     </g>
    </g>
   </g>
   <g id="text_11">
    <g clip-path="url(#p6ea9ca1ef1)">
     <!-- STAT4 -->
     <g transform="translate(371.38519 431.259517)scale(0.12 -0.12)">
      <use xlink:href="#DejaVuSans-83"/>
      <use x="63.476562" xlink:href="#DejaVuSans-84"/>
      <use x="116.810547" xlink:href="#DejaVuSans-65"/>
      <use x="177.46875" xlink:href="#DejaVuSans-84"/>
      <use x="238.552734" xlink:href="#DejaVuSans-52"/>
     </g>
    </g>
   </g>
   <g id="text_12">
    <g clip-path="url(#p6ea9ca1ef1)">
     <!-- IL4R -->
     <g transform="translate(441.352867 135.839091)scale(0.12 -0.12)">
      <use xlink:href="#DejaVuSans-73"/>
      <use x="29.492188" xlink:href="#DejaVuSans-76"/>
      <use x="85.205078" xlink:href="#DejaVuSans-52"/>
      <use x="148.828125" xlink:href="#DejaVuSans-82"/>
     </g>
    </g>
   </g>
   <g id="text_13">
    <g clip-path="url(#p6ea9ca1ef1)">
     <!-- STAT6 -->
     <g transform="translate(452.44785 206.222972)scale(0.12 -0.12)">
      <defs>
       <path d="M 33.015625 40.375 
Q 26.375 40.375 22.484375 35.828125 
Q 18.609375 31.296875 18.609375 23.390625 
Q 18.609375 15.53125 22.484375 10.953125 
Q 26.375 6.390625 33.015625 6.390625 
Q 39.65625 6.390625 43.53125 10.953125 
Q 47.40625 15.53125 47.40625 23.390625 
Q 47.40625 31.296875 43.53125 35.828125 
Q 39.65625 40.375 33.015625 40.375 
z
M 52.59375 71.296875 
L 52.59375 62.3125 
Q 48.875 64.0625 45.09375 64.984375 
Q 41.3125 65.921875 37.59375 65.921875 
Q 27.828125 65.921875 22.671875 59.328125 
Q 17.53125 52.734375 16.796875 39.40625 
Q 19.671875 43.65625 24.015625 45.921875 
Q 28.375 48.1875 33.59375 48.1875 
Q 44.578125 48.1875 50.953125 41.515625 
Q 57.328125 34.859375 57.328125 23.390625 
Q 57.328125 12.15625 50.6875 5.359375 
Q 44.046875 -1.421875 33.015625 -1.421875 
Q 20.359375 -1.421875 13.671875 8.265625 
Q 6.984375 17.96875 6.984375 36.375 
Q 6.984375 53.65625 15.1875 63.9375 
Q 23.390625 74.21875 37.203125 74.21875 
Q 40.921875 74.21875 44.703125 73.484375 
Q 48.484375 72.75 52.59375 71.296875 
z
" id="DejaVuSans-54"/>
      </defs>
      <use xlink:href="#DejaVuSans-83"/>
      <use x="63.476562" xlink:href="#DejaVuSans-84"/>
      <use x="116.810547" xlink:href="#DejaVuSans-65"/>
      <use x="177.46875" xlink:href="#DejaVuSans-84"/>
      <use x="238.552734" xlink:href="#DejaVuSans-54"/>
     </g>
    </g>
   </g>
   <g id="text_14">
    <g clip-path="url(#p6ea9ca1ef1)">
     <!-- GATA3 -->
     <g transform="translate(379.262989 298.631128)scale(0.12 -0.12)">
      <defs>
       <path d="M 40.578125 39.3125 
Q 47.65625 37.796875 51.625 33 
Q 55.609375 28.21875 55.609375 21.1875 
Q 55.609375 10.40625 48.1875 4.484375 
Q 40.765625 -1.421875 27.09375 -1.421875 
Q 22.515625 -1.421875 17.65625 -0.515625 
Q 12.796875 0.390625 7.625 2.203125 
L 7.625 11.71875 
Q 11.71875 9.328125 16.59375 8.109375 
Q 21.484375 6.890625 26.8125 6.890625 
Q 36.078125 6.890625 40.9375 10.546875 
Q 45.796875 14.203125 45.796875 21.1875 
Q 45.796875 27.640625 41.28125 31.265625 
Q 36.765625 34.90625 28.71875 34.90625 
L 20.21875 34.90625 
L 20.21875 43.015625 
L 29.109375 43.015625 
Q 36.375 43.015625 40.234375 45.921875 
Q 44.09375 48.828125 44.09375 54.296875 
Q 44.09375 59.90625 40.109375 62.90625 
Q 36.140625 65.921875 28.71875 65.921875 
Q 24.65625 65.921875 20.015625 65.03125 
Q 15.375 64.15625 9.8125 62.3125 
L 9.8125 71.09375 
Q 15.4375 72.65625 20.34375 73.4375 
Q 25.25 74.21875 29.59375 74.21875 
Q 40.828125 74.21875 47.359375 69.109375 
Q 53.90625 64.015625 53.90625 55.328125 
Q 53.90625 49.265625 50.4375 45.09375 
Q 46.96875 40.921875 40.578125 39.3125 
z
" id="DejaVuSans-51"/>
      </defs>
      <use xlink:href="#DejaVuSans-71"/>
      <use x="77.490234" xlink:href="#DejaVuSans-65"/>
      <use x="138.148438" xlink:href="#DejaVuSans-84"/>
      <use x="191.482422" xlink:href="#DejaVuSans-65"/>
      <use x="259.890625" xlink:href="#DejaVuSans-51"/>
     </g>
    </g>
   </g>
   <g id="text_15">
    <g clip-path="url(#p6ea9ca1ef1)">
     <!-- TBX21 -->
     <g transform="translate(317.052337 373.918733)scale(0.12 -0.12)">
      <defs>
       <path d="M 19.671875 34.8125 
L 19.671875 8.109375 
L 35.5 8.109375 
Q 43.453125 8.109375 47.28125 11.40625 
Q 51.125 14.703125 51.125 21.484375 
Q 51.125 28.328125 47.28125 31.5625 
Q 43.453125 34.8125 35.5 34.8125 
z
M 19.671875 64.796875 
L 19.671875 42.828125 
L 34.28125 42.828125 
Q 41.5 42.828125 45.03125 45.53125 
Q 48.578125 48.25 48.578125 53.8125 
Q 48.578125 59.328125 45.03125 62.0625 
Q 41.5 64.796875 34.28125 64.796875 
z
M 9.8125 72.90625 
L 35.015625 72.90625 
Q 46.296875 72.90625 52.390625 68.21875 
Q 58.5 63.53125 58.5 54.890625 
Q 58.5 48.1875 55.375 44.234375 
Q 52.25 40.28125 46.1875 39.3125 
Q 53.46875 37.75 57.5 32.78125 
Q 61.53125 27.828125 61.53125 20.40625 
Q 61.53125 10.640625 54.890625 5.3125 
Q 48.25 0 35.984375 0 
L 9.8125 0 
z
" id="DejaVuSans-66"/>
       <path d="M 6.296875 72.90625 
L 16.890625 72.90625 
L 35.015625 45.796875 
L 53.21875 72.90625 
L 63.8125 72.90625 
L 40.375 37.890625 
L 65.375 0 
L 54.78125 0 
L 34.28125 31 
L 13.625 0 
L 2.984375 0 
L 29 38.921875 
z
" id="DejaVuSans-88"/>
       <path d="M 19.1875 8.296875 
L 53.609375 8.296875 
L 53.609375 0 
L 7.328125 0 
L 7.328125 8.296875 
Q 12.9375 14.109375 22.625 23.890625 
Q 32.328125 33.6875 34.8125 36.53125 
Q 39.546875 41.84375 41.421875 45.53125 
Q 43.3125 49.21875 43.3125 52.78125 
Q 43.3125 58.59375 39.234375 62.25 
Q 35.15625 65.921875 28.609375 65.921875 
Q 23.96875 65.921875 18.8125 64.3125 
Q 13.671875 62.703125 7.8125 59.421875 
L 7.8125 69.390625 
Q 13.765625 71.78125 18.9375 73 
Q 24.125 74.21875 28.421875 74.21875 
Q 39.75 74.21875 46.484375 68.546875 
Q 53.21875 62.890625 53.21875 53.421875 
Q 53.21875 48.921875 51.53125 44.890625 
Q 49.859375 40.875 45.40625 35.40625 
Q 44.1875 33.984375 37.640625 27.21875 
Q 31.109375 20.453125 19.1875 8.296875 
z
" id="DejaVuSans-50"/>
      </defs>
      <use xlink:href="#DejaVuSans-84"/>
      <use x="61.083984" xlink:href="#DejaVuSans-66"/>
      <use x="129.6875" xlink:href="#DejaVuSans-88"/>
      <use x="198.193359" xlink:href="#DejaVuSans-50"/>
      <use x="261.816406" xlink:href="#DejaVuSans-49"/>
     </g>
    </g>
   </g>
   <g id="text_16">
    <g clip-path="url(#p6ea9ca1ef1)">
     <!-- IL2RA -->
     <g transform="translate(411.835095 209.885555)scale(0.12 -0.12)">
      <use xlink:href="#DejaVuSans-73"/>
      <use x="29.492188" xlink:href="#DejaVuSans-76"/>
      <use x="85.205078" xlink:href="#DejaVuSans-50"/>
      <use x="148.828125" xlink:href="#DejaVuSans-82"/>
      <use x="214.310547" xlink:href="#DejaVuSans-65"/>
     </g>
    </g>
   </g>
   <g id="text_17">
    <g clip-path="url(#p6ea9ca1ef1)">
     <!-- JAK2 -->
     <g transform="translate(593.698885 452.940309)scale(0.12 -0.12)">
      <use xlink:href="#DejaVuSans-74"/>
      <use x="27.742188" xlink:href="#DejaVuSans-65"/>
      <use x="96.150391" xlink:href="#DejaVuSans-75"/>
      <use x="161.726562" xlink:href="#DejaVuSans-50"/>
     </g>
    </g>
   </g>
   <g id="text_18">
    <g clip-path="url(#p6ea9ca1ef1)">
     <!-- TYK2 -->
     <g transform="translate(322.40353 477.463977)scale(0.12 -0.12)">
      <defs>
       <path d="M -0.203125 72.90625 
L 10.40625 72.90625 
L 30.609375 42.921875 
L 50.6875 72.90625 
L 61.28125 72.90625 
L 35.5 34.71875 
L 35.5 0 
L 25.59375 0 
L 25.59375 34.71875 
z
" id="DejaVuSans-89"/>
      </defs>
      <use xlink:href="#DejaVuSans-84"/>
      <use x="61.083984" xlink:href="#DejaVuSans-89"/>
      <use x="122.167969" xlink:href="#DejaVuSans-75"/>
      <use x="187.744141" xlink:href="#DejaVuSans-50"/>
     </g>
    </g>
   </g>
   <g id="text_19">
    <g clip-path="url(#p6ea9ca1ef1)">
     <!-- RUNX3 -->
     <g transform="translate(145.129223 292.855434)scale(0.12 -0.12)">
      <use xlink:href="#DejaVuSans-82"/>
      <use x="69.482422" xlink:href="#DejaVuSans-85"/>
      <use x="142.675781" xlink:href="#DejaVuSans-78"/>
      <use x="217.480469" xlink:href="#DejaVuSans-88"/>
      <use x="285.986328" xlink:href="#DejaVuSans-51"/>
     </g>
    </g>
   </g>
   <g id="text_20">
    <g clip-path="url(#p6ea9ca1ef1)">
     <!-- NFKB1 -->
     <g transform="translate(476.338427 281.522822)scale(0.12 -0.12)">
      <use xlink:href="#DejaVuSans-78"/>
      <use x="74.804688" xlink:href="#DejaVuSans-70"/>
      <use x="132.324219" xlink:href="#DejaVuSans-75"/>
      <use x="197.900391" xlink:href="#DejaVuSans-66"/>
      <use x="266.503906" xlink:href="#DejaVuSans-49"/>
     </g>
    </g>
   </g>
   <g id="text_21">
    <g clip-path="url(#p6ea9ca1ef1)">
     <!-- RELA -->
     <g transform="translate(470.212988 278.480186)scale(0.12 -0.12)">
      <defs>
       <path d="M 9.8125 72.90625 
L 55.90625 72.90625 
L 55.90625 64.59375 
L 19.671875 64.59375 
L 19.671875 43.015625 
L 54.390625 43.015625 
L 54.390625 34.71875 
L 19.671875 34.71875 
L 19.671875 8.296875 
L 56.78125 8.296875 
L 56.78125 0 
L 9.8125 0 
z
" id="DejaVuSans-69"/>
      </defs>
      <use xlink:href="#DejaVuSans-82"/>
      <use x="69.482422" xlink:href="#DejaVuSans-69"/>
      <use x="132.666016" xlink:href="#DejaVuSans-76"/>
      <use x="190.628906" xlink:href="#DejaVuSans-65"/>
     </g>
    </g>
   </g>
   <g id="text_22">
    <g clip-path="url(#p6ea9ca1ef1)">
     <!-- NFKBIB -->
     <g transform="translate(697.616715 265.873586)scale(0.12 -0.12)">
      <use xlink:href="#DejaVuSans-78"/>
      <use x="74.804688" xlink:href="#DejaVuSans-70"/>
      <use x="132.324219" xlink:href="#DejaVuSans-75"/>
      <use x="197.900391" xlink:href="#DejaVuSans-66"/>
      <use x="266.503906" xlink:href="#DejaVuSans-73"/>
      <use x="295.996094" xlink:href="#DejaVuSans-66"/>
     </g>
    </g>
   </g>
   <g id="text_23">
    <g clip-path="url(#p6ea9ca1ef1)">
     <!-- NFKBIA -->
     <g transform="translate(377.623354 110.918523)scale(0.12 -0.12)">
      <use xlink:href="#DejaVuSans-78"/>
      <use x="74.804688" xlink:href="#DejaVuSans-70"/>
      <use x="132.324219" xlink:href="#DejaVuSans-75"/>
      <use x="197.900391" xlink:href="#DejaVuSans-66"/>
      <use x="266.503906" xlink:href="#DejaVuSans-73"/>
      <use x="295.996094" xlink:href="#DejaVuSans-65"/>
     </g>
    </g>
   </g>
   <g id="text_24">
    <g clip-path="url(#p6ea9ca1ef1)">
     <!-- NFKBIE -->
     <g transform="translate(663.012413 203.895197)scale(0.12 -0.12)">
      <use xlink:href="#DejaVuSans-78"/>
      <use x="74.804688" xlink:href="#DejaVuSans-70"/>
      <use x="132.324219" xlink:href="#DejaVuSans-75"/>
      <use x="197.900391" xlink:href="#DejaVuSans-66"/>
      <use x="266.503906" xlink:href="#DejaVuSans-73"/>
      <use x="295.996094" xlink:href="#DejaVuSans-69"/>
     </g>
    </g>
   </g>
   <g id="text_25">
    <g clip-path="url(#p6ea9ca1ef1)">
     <!-- IKBKB -->
     <g transform="translate(523.144447 208.075983)scale(0.12 -0.12)">
      <use xlink:href="#DejaVuSans-73"/>
      <use x="29.492188" xlink:href="#DejaVuSans-75"/>
      <use x="95.068359" xlink:href="#DejaVuSans-66"/>
      <use x="163.671875" xlink:href="#DejaVuSans-75"/>
      <use x="229.248047" xlink:href="#DejaVuSans-66"/>
     </g>
    </g>
   </g>
   <g id="text_26">
    <g clip-path="url(#p6ea9ca1ef1)">
     <!-- IKBKG -->
     <g transform="translate(584.438985 167.419762)scale(0.12 -0.12)">
      <use xlink:href="#DejaVuSans-73"/>
      <use x="29.492188" xlink:href="#DejaVuSans-75"/>
      <use x="95.068359" xlink:href="#DejaVuSans-66"/>
      <use x="163.671875" xlink:href="#DejaVuSans-75"/>
      <use x="229.248047" xlink:href="#DejaVuSans-71"/>
     </g>
    </g>
   </g>
   <g id="text_27">
    <g clip-path="url(#p6ea9ca1ef1)">
     <!-- NFATC2 -->
     <g transform="translate(424.528434 318.591977)scale(0.12 -0.12)">
      <use xlink:href="#DejaVuSans-78"/>
      <use x="74.804688" xlink:href="#DejaVuSans-70"/>
      <use x="123.199219" xlink:href="#DejaVuSans-65"/>
      <use x="183.857422" xlink:href="#DejaVuSans-84"/>
      <use x="239.066406" xlink:href="#DejaVuSans-67"/>
      <use x="308.890625" xlink:href="#DejaVuSans-50"/>
     </g>
    </g>
   </g>
   <g id="text_28">
    <g clip-path="url(#p6ea9ca1ef1)">
     <!-- NFATC1 -->
     <g transform="translate(383.01112 310.710067)scale(0.12 -0.12)">
      <use xlink:href="#DejaVuSans-78"/>
      <use x="74.804688" xlink:href="#DejaVuSans-70"/>
      <use x="123.199219" xlink:href="#DejaVuSans-65"/>
      <use x="183.857422" xlink:href="#DejaVuSans-84"/>
      <use x="239.066406" xlink:href="#DejaVuSans-67"/>
      <use x="308.890625" xlink:href="#DejaVuSans-49"/>
     </g>
    </g>
   </g>
   <g id="text_29">
    <g clip-path="url(#p6ea9ca1ef1)">
     <!-- NFATC3 -->
     <g transform="translate(398.356382 315.840475)scale(0.12 -0.12)">
      <use xlink:href="#DejaVuSans-78"/>
      <use x="74.804688" xlink:href="#DejaVuSans-70"/>
      <use x="123.199219" xlink:href="#DejaVuSans-65"/>
      <use x="183.857422" xlink:href="#DejaVuSans-84"/>
      <use x="239.066406" xlink:href="#DejaVuSans-67"/>
      <use x="308.890625" xlink:href="#DejaVuSans-51"/>
     </g>
    </g>
   </g>
   <g id="text_30">
    <g clip-path="url(#p6ea9ca1ef1)">
     <!-- IFNGR1 -->
     <g transform="translate(382.940999 327.731676)scale(0.12 -0.12)">
      <use xlink:href="#DejaVuSans-73"/>
      <use x="29.492188" xlink:href="#DejaVuSans-70"/>
      <use x="87.011719" xlink:href="#DejaVuSans-78"/>
      <use x="161.816406" xlink:href="#DejaVuSans-71"/>
      <use x="239.306641" xlink:href="#DejaVuSans-82"/>
      <use x="308.789062" xlink:href="#DejaVuSans-49"/>
     </g>
    </g>
   </g>
   <g id="text_31">
    <g clip-path="url(#p6ea9ca1ef1)">
     <!-- IFNGR2 -->
     <g transform="translate(435.73599 308.243568)scale(0.12 -0.12)">
      <use xlink:href="#DejaVuSans-73"/>
      <use x="29.492188" xlink:href="#DejaVuSans-70"/>
      <use x="87.011719" xlink:href="#DejaVuSans-78"/>
      <use x="161.816406" xlink:href="#DejaVuSans-71"/>
      <use x="239.306641" xlink:href="#DejaVuSans-82"/>
      <use x="308.789062" xlink:href="#DejaVuSans-50"/>
     </g>
    </g>
   </g>
   <g id="text_32">
    <g clip-path="url(#p6ea9ca1ef1)">
     <!-- IL12A -->
     <g transform="translate(482.276294 355.557435)scale(0.12 -0.12)">
      <use xlink:href="#DejaVuSans-73"/>
      <use x="29.492188" xlink:href="#DejaVuSans-76"/>
      <use x="85.205078" xlink:href="#DejaVuSans-49"/>
      <use x="148.828125" xlink:href="#DejaVuSans-50"/>
      <use x="212.451172" xlink:href="#DejaVuSans-65"/>
     </g>
    </g>
   </g>
   <g id="text_33">
    <g clip-path="url(#p6ea9ca1ef1)">
     <!-- IL12RB1 -->
     <g transform="translate(436.906016 468.544765)scale(0.12 -0.12)">
      <use xlink:href="#DejaVuSans-73"/>
      <use x="29.492188" xlink:href="#DejaVuSans-76"/>
      <use x="85.205078" xlink:href="#DejaVuSans-49"/>
      <use x="148.828125" xlink:href="#DejaVuSans-50"/>
      <use x="212.451172" xlink:href="#DejaVuSans-82"/>
      <use x="281.933594" xlink:href="#DejaVuSans-66"/>
      <use x="350.537109" xlink:href="#DejaVuSans-49"/>
     </g>
    </g>
   </g>
   <g id="text_34">
    <g clip-path="url(#p6ea9ca1ef1)">
     <!-- IL12RB2 -->
     <g transform="translate(373.177638 374.587734)scale(0.12 -0.12)">
      <use xlink:href="#DejaVuSans-73"/>
      <use x="29.492188" xlink:href="#DejaVuSans-76"/>
      <use x="85.205078" xlink:href="#DejaVuSans-49"/>
      <use x="148.828125" xlink:href="#DejaVuSans-50"/>
      <use x="212.451172" xlink:href="#DejaVuSans-82"/>
      <use x="281.933594" xlink:href="#DejaVuSans-66"/>
      <use x="350.537109" xlink:href="#DejaVuSans-50"/>
     </g>
    </g>
   </g>
   <g id="text_35">
    <g clip-path="url(#p6ea9ca1ef1)">
     <!-- IL2RB -->
     <g transform="translate(414.962448 188.407947)scale(0.12 -0.12)">
      <use xlink:href="#DejaVuSans-73"/>
      <use x="29.492188" xlink:href="#DejaVuSans-76"/>
      <use x="85.205078" xlink:href="#DejaVuSans-50"/>
      <use x="148.828125" xlink:href="#DejaVuSans-82"/>
      <use x="218.310547" xlink:href="#DejaVuSans-66"/>
     </g>
    </g>
   </g>
   <g id="text_36">
    <g clip-path="url(#p6ea9ca1ef1)">
     <!-- IL2RG -->
     <g transform="translate(427.686156 173.205663)scale(0.12 -0.12)">
      <use xlink:href="#DejaVuSans-73"/>
      <use x="29.492188" xlink:href="#DejaVuSans-76"/>
      <use x="85.205078" xlink:href="#DejaVuSans-50"/>
      <use x="148.828125" xlink:href="#DejaVuSans-82"/>
      <use x="218.310547" xlink:href="#DejaVuSans-71"/>
     </g>
    </g>
   </g>
   <g id="text_37">
    <g clip-path="url(#p6ea9ca1ef1)">
     <!-- STAT5A -->
     <g transform="translate(473.267043 248.225962)scale(0.12 -0.12)">
      <defs>
       <path d="M 10.796875 72.90625 
L 49.515625 72.90625 
L 49.515625 64.59375 
L 19.828125 64.59375 
L 19.828125 46.734375 
Q 21.96875 47.46875 24.109375 47.828125 
Q 26.265625 48.1875 28.421875 48.1875 
Q 40.625 48.1875 47.75 41.5 
Q 54.890625 34.8125 54.890625 23.390625 
Q 54.890625 11.625 47.5625 5.09375 
Q 40.234375 -1.421875 26.90625 -1.421875 
Q 22.3125 -1.421875 17.546875 -0.640625 
Q 12.796875 0.140625 7.71875 1.703125 
L 7.71875 11.625 
Q 12.109375 9.234375 16.796875 8.0625 
Q 21.484375 6.890625 26.703125 6.890625 
Q 35.15625 6.890625 40.078125 11.328125 
Q 45.015625 15.765625 45.015625 23.390625 
Q 45.015625 31 40.078125 35.4375 
Q 35.15625 39.890625 26.703125 39.890625 
Q 22.75 39.890625 18.8125 39.015625 
Q 14.890625 38.140625 10.796875 36.28125 
z
" id="DejaVuSans-53"/>
      </defs>
      <use xlink:href="#DejaVuSans-83"/>
      <use x="63.476562" xlink:href="#DejaVuSans-84"/>
      <use x="116.810547" xlink:href="#DejaVuSans-65"/>
      <use x="177.46875" xlink:href="#DejaVuSans-84"/>
      <use x="238.552734" xlink:href="#DejaVuSans-53"/>
      <use x="302.175781" xlink:href="#DejaVuSans-65"/>
     </g>
    </g>
   </g>
   <g id="text_38">
    <g clip-path="url(#p6ea9ca1ef1)">
     <!-- STAT5B -->
     <g transform="translate(489.43869 231.257679)scale(0.12 -0.12)">
      <use xlink:href="#DejaVuSans-83"/>
      <use x="63.476562" xlink:href="#DejaVuSans-84"/>
      <use x="116.810547" xlink:href="#DejaVuSans-65"/>
      <use x="177.46875" xlink:href="#DejaVuSans-84"/>
      <use x="238.552734" xlink:href="#DejaVuSans-53"/>
      <use x="302.175781" xlink:href="#DejaVuSans-66"/>
     </g>
    </g>
   </g>
   <g id="text_39">
    <g clip-path="url(#p6ea9ca1ef1)">
     <!-- JAK1 -->
     <g transform="translate(276.655869 125.071286)scale(0.12 -0.12)">
      <use xlink:href="#DejaVuSans-74"/>
      <use x="27.742188" xlink:href="#DejaVuSans-65"/>
      <use x="96.150391" xlink:href="#DejaVuSans-75"/>
      <use x="161.726562" xlink:href="#DejaVuSans-49"/>
     </g>
    </g>
   </g>
   <g id="text_40">
    <g clip-path="url(#p6ea9ca1ef1)">
     <!-- JAK3 -->
     <g transform="translate(453.876006 122.562867)scale(0.12 -0.12)">
      <use xlink:href="#DejaVuSans-74"/>
      <use x="27.742188" xlink:href="#DejaVuSans-65"/>
      <use x="96.150391" xlink:href="#DejaVuSans-75"/>
      <use x="161.726562" xlink:href="#DejaVuSans-51"/>
     </g>
    </g>
   </g>
   <g id="text_41">
    <!-- Frame: 11 -->
    <g transform="translate(121.392 91.296)scale(0.1 -0.1)">
     <defs>
      <path d="M 41.109375 46.296875 
Q 39.59375 47.171875 37.8125 47.578125 
Q 36.03125 48 33.890625 48 
Q 26.265625 48 22.1875 43.046875 
Q 18.109375 38.09375 18.109375 28.8125 
L 18.109375 0 
L 9.078125 0 
L 9.078125 54.6875 
L 18.109375 54.6875 
L 18.109375 46.1875 
Q 20.953125 51.171875 25.484375 53.578125 
Q 30.03125 56 36.53125 56 
Q 37.453125 56 38.578125 55.875 
Q 39.703125 55.765625 41.0625 55.515625 
z
" id="DejaVuSans-114"/>
      <path d="M 34.28125 27.484375 
Q 23.390625 27.484375 19.1875 25 
Q 14.984375 22.515625 14.984375 16.5 
Q 14.984375 11.71875 18.140625 8.90625 
Q 21.296875 6.109375 26.703125 6.109375 
Q 34.1875 6.109375 38.703125 11.40625 
Q 43.21875 16.703125 43.21875 25.484375 
L 43.21875 27.484375 
z
M 52.203125 31.203125 
L 52.203125 0 
L 43.21875 0 
L 43.21875 8.296875 
Q 40.140625 3.328125 35.546875 0.953125 
Q 30.953125 -1.421875 24.3125 -1.421875 
Q 15.921875 -1.421875 10.953125 3.296875 
Q 6 8.015625 6 15.921875 
Q 6 25.140625 12.171875 29.828125 
Q 18.359375 34.515625 30.609375 34.515625 
L 43.21875 34.515625 
L 43.21875 35.40625 
Q 43.21875 41.609375 39.140625 45 
Q 35.0625 48.390625 27.6875 48.390625 
Q 23 48.390625 18.546875 47.265625 
Q 14.109375 46.140625 10.015625 43.890625 
L 10.015625 52.203125 
Q 14.9375 54.109375 19.578125 55.046875 
Q 24.21875 56 28.609375 56 
Q 40.484375 56 46.34375 49.84375 
Q 52.203125 43.703125 52.203125 31.203125 
z
" id="DejaVuSans-97"/>
      <path d="M 52 44.1875 
Q 55.375 50.25 60.0625 53.125 
Q 64.75 56 71.09375 56 
Q 79.640625 56 84.28125 50.015625 
Q 88.921875 44.046875 88.921875 33.015625 
L 88.921875 0 
L 79.890625 0 
L 79.890625 32.71875 
Q 79.890625 40.578125 77.09375 44.375 
Q 74.3125 48.1875 68.609375 48.1875 
Q 61.625 48.1875 57.5625 43.546875 
Q 53.515625 38.921875 53.515625 30.90625 
L 53.515625 0 
L 44.484375 0 
L 44.484375 32.71875 
Q 44.484375 40.625 41.703125 44.40625 
Q 38.921875 48.1875 33.109375 48.1875 
Q 26.21875 48.1875 22.15625 43.53125 
Q 18.109375 38.875 18.109375 30.90625 
L 18.109375 0 
L 9.078125 0 
L 9.078125 54.6875 
L 18.109375 54.6875 
L 18.109375 46.1875 
Q 21.1875 51.21875 25.484375 53.609375 
Q 29.78125 56 35.6875 56 
Q 41.65625 56 45.828125 52.96875 
Q 50 49.953125 52 44.1875 
z
" id="DejaVuSans-109"/>
      <path d="M 56.203125 29.59375 
L 56.203125 25.203125 
L 14.890625 25.203125 
Q 15.484375 15.921875 20.484375 11.0625 
Q 25.484375 6.203125 34.421875 6.203125 
Q 39.59375 6.203125 44.453125 7.46875 
Q 49.3125 8.734375 54.109375 11.28125 
L 54.109375 2.78125 
Q 49.265625 0.734375 44.1875 -0.34375 
Q 39.109375 -1.421875 33.890625 -1.421875 
Q 20.796875 -1.421875 13.15625 6.1875 
Q 5.515625 13.8125 5.515625 26.8125 
Q 5.515625 40.234375 12.765625 48.109375 
Q 20.015625 56 32.328125 56 
Q 43.359375 56 49.78125 48.890625 
Q 56.203125 41.796875 56.203125 29.59375 
z
M 47.21875 32.234375 
Q 47.125 39.59375 43.09375 43.984375 
Q 39.0625 48.390625 32.421875 48.390625 
Q 24.90625 48.390625 20.390625 44.140625 
Q 15.875 39.890625 15.1875 32.171875 
z
" id="DejaVuSans-101"/>
      <path d="M 11.71875 12.40625 
L 22.015625 12.40625 
L 22.015625 0 
L 11.71875 0 
z
M 11.71875 51.703125 
L 22.015625 51.703125 
L 22.015625 39.3125 
L 11.71875 39.3125 
z
" id="DejaVuSans-58"/>
      <path id="DejaVuSans-32"/>
     </defs>
     <use xlink:href="#DejaVuSans-70"/>
     <use x="50.269531" xlink:href="#DejaVuSans-114"/>
     <use x="91.382812" xlink:href="#DejaVuSans-97"/>
     <use x="152.662109" xlink:href="#DejaVuSans-109"/>
     <use x="250.074219" xlink:href="#DejaVuSans-101"/>
     <use x="311.597656" xlink:href="#DejaVuSans-58"/>
     <use x="345.289062" xlink:href="#DejaVuSans-32"/>
     <use x="377.076172" xlink:href="#DejaVuSans-49"/>
     <use x="440.699219" xlink:href="#DejaVuSans-49"/>
    </g>
   </g>
   <g id="text_42">
    <!-- Network: hsa04658 -->
    <g transform="translate(384.1275 63.12)scale(0.12 -0.12)">
     <defs>
      <path d="M 18.3125 70.21875 
L 18.3125 54.6875 
L 36.8125 54.6875 
L 36.8125 47.703125 
L 18.3125 47.703125 
L 18.3125 18.015625 
Q 18.3125 11.328125 20.140625 9.421875 
Q 21.96875 7.515625 27.59375 7.515625 
L 36.8125 7.515625 
L 36.8125 0 
L 27.59375 0 
Q 17.1875 0 13.234375 3.875 
Q 9.28125 7.765625 9.28125 18.015625 
L 9.28125 47.703125 
L 2.6875 47.703125 
L 2.6875 54.6875 
L 9.28125 54.6875 
L 9.28125 70.21875 
z
" id="DejaVuSans-116"/>
      <path d="M 4.203125 54.6875 
L 13.1875 54.6875 
L 24.421875 12.015625 
L 35.59375 54.6875 
L 46.1875 54.6875 
L 57.421875 12.015625 
L 68.609375 54.6875 
L 77.59375 54.6875 
L 63.28125 0 
L 52.6875 0 
L 40.921875 44.828125 
L 29.109375 0 
L 18.5 0 
z
" id="DejaVuSans-119"/>
      <path d="M 30.609375 48.390625 
Q 23.390625 48.390625 19.1875 42.75 
Q 14.984375 37.109375 14.984375 27.296875 
Q 14.984375 17.484375 19.15625 11.84375 
Q 23.34375 6.203125 30.609375 6.203125 
Q 37.796875 6.203125 41.984375 11.859375 
Q 46.1875 17.53125 46.1875 27.296875 
Q 46.1875 37.015625 41.984375 42.703125 
Q 37.796875 48.390625 30.609375 48.390625 
z
M 30.609375 56 
Q 42.328125 56 49.015625 48.375 
Q 55.71875 40.765625 55.71875 27.296875 
Q 55.71875 13.875 49.015625 6.21875 
Q 42.328125 -1.421875 30.609375 -1.421875 
Q 18.84375 -1.421875 12.171875 6.21875 
Q 5.515625 13.875 5.515625 27.296875 
Q 5.515625 40.765625 12.171875 48.375 
Q 18.84375 56 30.609375 56 
z
" id="DejaVuSans-111"/>
      <path d="M 9.078125 75.984375 
L 18.109375 75.984375 
L 18.109375 31.109375 
L 44.921875 54.6875 
L 56.390625 54.6875 
L 27.390625 29.109375 
L 57.625 0 
L 45.90625 0 
L 18.109375 26.703125 
L 18.109375 0 
L 9.078125 0 
z
" id="DejaVuSans-107"/>
      <path d="M 54.890625 33.015625 
L 54.890625 0 
L 45.90625 0 
L 45.90625 32.71875 
Q 45.90625 40.484375 42.875 44.328125 
Q 39.84375 48.1875 33.796875 48.1875 
Q 26.515625 48.1875 22.3125 43.546875 
Q 18.109375 38.921875 18.109375 30.90625 
L 18.109375 0 
L 9.078125 0 
L 9.078125 75.984375 
L 18.109375 75.984375 
L 18.109375 46.1875 
Q 21.34375 51.125 25.703125 53.5625 
Q 30.078125 56 35.796875 56 
Q 45.21875 56 50.046875 50.171875 
Q 54.890625 44.34375 54.890625 33.015625 
z
" id="DejaVuSans-104"/>
      <path d="M 44.28125 53.078125 
L 44.28125 44.578125 
Q 40.484375 46.53125 36.375 47.5 
Q 32.28125 48.484375 27.875 48.484375 
Q 21.1875 48.484375 17.84375 46.4375 
Q 14.5 44.390625 14.5 40.28125 
Q 14.5 37.15625 16.890625 35.375 
Q 19.28125 33.59375 26.515625 31.984375 
L 29.59375 31.296875 
Q 39.15625 29.25 43.1875 25.515625 
Q 47.21875 21.78125 47.21875 15.09375 
Q 47.21875 7.46875 41.1875 3.015625 
Q 35.15625 -1.421875 24.609375 -1.421875 
Q 20.21875 -1.421875 15.453125 -0.5625 
Q 10.6875 0.296875 5.421875 2 
L 5.421875 11.28125 
Q 10.40625 8.6875 15.234375 7.390625 
Q 20.0625 6.109375 24.8125 6.109375 
Q 31.15625 6.109375 34.5625 8.28125 
Q 37.984375 10.453125 37.984375 14.40625 
Q 37.984375 18.0625 35.515625 20.015625 
Q 33.0625 21.96875 24.703125 23.78125 
L 21.578125 24.515625 
Q 13.234375 26.265625 9.515625 29.90625 
Q 5.8125 33.546875 5.8125 39.890625 
Q 5.8125 47.609375 11.28125 51.796875 
Q 16.75 56 26.8125 56 
Q 31.78125 56 36.171875 55.265625 
Q 40.578125 54.546875 44.28125 53.078125 
z
" id="DejaVuSans-115"/>
      <path d="M 31.78125 34.625 
Q 24.75 34.625 20.71875 30.859375 
Q 16.703125 27.09375 16.703125 20.515625 
Q 16.703125 13.921875 20.71875 10.15625 
Q 24.75 6.390625 31.78125 6.390625 
Q 38.8125 6.390625 42.859375 10.171875 
Q 46.921875 13.96875 46.921875 20.515625 
Q 46.921875 27.09375 42.890625 30.859375 
Q 38.875 34.625 31.78125 34.625 
z
M 21.921875 38.8125 
Q 15.578125 40.375 12.03125 44.71875 
Q 8.5 49.078125 8.5 55.328125 
Q 8.5 64.0625 14.71875 69.140625 
Q 20.953125 74.21875 31.78125 74.21875 
Q 42.671875 74.21875 48.875 69.140625 
Q 55.078125 64.0625 55.078125 55.328125 
Q 55.078125 49.078125 51.53125 44.71875 
Q 48 40.375 41.703125 38.8125 
Q 48.828125 37.15625 52.796875 32.3125 
Q 56.78125 27.484375 56.78125 20.515625 
Q 56.78125 9.90625 50.3125 4.234375 
Q 43.84375 -1.421875 31.78125 -1.421875 
Q 19.734375 -1.421875 13.25 4.234375 
Q 6.78125 9.90625 6.78125 20.515625 
Q 6.78125 27.484375 10.78125 32.3125 
Q 14.796875 37.15625 21.921875 38.8125 
z
M 18.3125 54.390625 
Q 18.3125 48.734375 21.84375 45.5625 
Q 25.390625 42.390625 31.78125 42.390625 
Q 38.140625 42.390625 41.71875 45.5625 
Q 45.3125 48.734375 45.3125 54.390625 
Q 45.3125 60.0625 41.71875 63.234375 
Q 38.140625 66.40625 31.78125 66.40625 
Q 25.390625 66.40625 21.84375 63.234375 
Q 18.3125 60.0625 18.3125 54.390625 
z
" id="DejaVuSans-56"/>
     </defs>
     <use xlink:href="#DejaVuSans-78"/>
     <use x="74.804688" xlink:href="#DejaVuSans-101"/>
     <use x="136.328125" xlink:href="#DejaVuSans-116"/>
     <use x="175.537109" xlink:href="#DejaVuSans-119"/>
     <use x="257.324219" xlink:href="#DejaVuSans-111"/>
     <use x="318.505859" xlink:href="#DejaVuSans-114"/>
     <use x="359.619141" xlink:href="#DejaVuSans-107"/>
     <use x="417.529297" xlink:href="#DejaVuSans-58"/>
     <use x="451.220703" xlink:href="#DejaVuSans-32"/>
     <use x="483.007812" xlink:href="#DejaVuSans-104"/>
     <use x="546.386719" xlink:href="#DejaVuSans-115"/>
     <use x="598.486328" xlink:href="#DejaVuSans-97"/>
     <use x="659.765625" xlink:href="#DejaVuSans-48"/>
     <use x="723.388672" xlink:href="#DejaVuSans-52"/>
     <use x="787.011719" xlink:href="#DejaVuSans-54"/>
     <use x="850.634766" xlink:href="#DejaVuSans-53"/>
     <use x="914.257812" xlink:href="#DejaVuSans-56"/>
    </g>
   </g>
  </g>
 </g>
 <defs>
  <clipPath id="p6ea9ca1ef1">
   <rect height="443.52" width="669.6" x="108" y="69.12"/>
  </clipPath>
 </defs>
</svg>
