<?xml version="1.0" encoding="utf-8" standalone="no"?>
<!DOCTYPE svg PUBLIC "-//W3C//DTD SVG 1.1//EN"
  "http://www.w3.org/Graphics/SVG/1.1/DTD/svg11.dtd">
<!-- Created with matplotlib (https://matplotlib.org/) -->
<svg height="576pt" version="1.1" viewBox="0 0 864 576" width="864pt" xmlns="http://www.w3.org/2000/svg" xmlns:xlink="http://www.w3.org/1999/xlink">
 <metadata>
  <rdf:RDF xmlns:cc="http://creativecommons.org/ns#" xmlns:dc="http://purl.org/dc/elements/1.1/" xmlns:rdf="http://www.w3.org/1999/02/22-rdf-syntax-ns#">
   <cc:Work>
    <dc:type rdf:resource="http://purl.org/dc/dcmitype/StillImage"/>
    <dc:date>2024-04-26T13:36:00.784737</dc:date>
    <dc:format>image/svg+xml</dc:format>
    <dc:creator>
     <cc:Agent>
      <dc:title>Matplotlib v3.3.1, https://matplotlib.org/</dc:title>
     </cc:Agent>
    </dc:creator>
   </cc:Work>
  </rdf:RDF>
 </metadata>
 <defs>
  <style type="text/css">*{stroke-linecap:butt;stroke-linejoin:round;}</style>
 </defs>
 <g id="figure_1">
  <g id="patch_1">
   <path d="M 0 576 
L 864 576 
L 864 0 
L 0 0 
z
" style="fill:#ffffff;"/>
  </g>
  <g id="axes_1">
   <g id="patch_2">
    <path clip-path="url(#p036f7a0aa2)" d="M 297.067849 289.801837 
Q 342.479549 320.18446 386.962012 349.945378 
" style="fill:none;stroke:#000000;stroke-linecap:round;"/>
    <path clip-path="url(#p036f7a0aa2)" d="M 384.749609 346.058827 
L 386.962012 349.945378 
L 382.52533 349.383369 
L 384.749609 346.058827 
z
" style="stroke:#000000;stroke-linecap:round;"/>
   </g>
   <g id="patch_3">
    <path clip-path="url(#p036f7a0aa2)" d="M 291.890143 293.405548 
Q 299.35735 324.551195 306.563894 354.609618 
" style="fill:none;stroke:#000000;stroke-linecap:round;"/>
    <path clip-path="url(#p036f7a0aa2)" d="M 307.576202 350.253561 
L 306.563894 354.609618 
L 303.686433 351.186138 
L 307.576202 350.253561 
z
" style="stroke:#000000;stroke-linecap:round;"/>
   </g>
   <g id="patch_4">
    <path clip-path="url(#p036f7a0aa2)" d="M 445.297418 214.07168 
Q 433.674391 240.066729 422.507723 265.041124 
" style="fill:none;stroke:#000000;stroke-linecap:round;"/>
    <path clip-path="url(#p036f7a0aa2)" d="M 425.966248 262.20588 
L 422.507723 265.041124 
L 422.314643 260.573158 
L 425.966248 262.20588 
z
" style="stroke:#000000;stroke-linecap:round;"/>
   </g>
   <g id="patch_5">
    <path clip-path="url(#p036f7a0aa2)" d="M 443.644804 213.097149 
Q 424.612393 238.531794 406.24982 263.071277 
" style="fill:none;stroke:#000000;stroke-linecap:round;"/>
    <path clip-path="url(#p036f7a0aa2)" d="M 410.247623 261.066889 
L 406.24982 263.071277 
L 407.044991 258.670402 
L 410.247623 261.066889 
z
" style="stroke:#000000;stroke-linecap:round;"/>
   </g>
   <g id="patch_6">
    <path clip-path="url(#p036f7a0aa2)" d="M 406.630917 438.957707 
Q 453.868131 454.764959 500.045099 470.217415 
" style="fill:none;stroke:#000000;stroke-linecap:round;"/>
    <path clip-path="url(#p036f7a0aa2)" d="M 496.886529 467.051434 
L 500.045099 470.217415 
L 495.617173 470.844683 
L 496.886529 467.051434 
z
" style="stroke:#000000;stroke-linecap:round;"/>
   </g>
   <g id="patch_7">
    <path clip-path="url(#p036f7a0aa2)" d="M 350.45487 348.238727 
Q 314.392755 345.092493 279.444444 342.043433 
" style="fill:none;stroke:#000000;stroke-linecap:round;"/>
    <path clip-path="url(#p036f7a0aa2)" d="M 283.255478 344.383523 
L 279.444444 342.043433 
L 283.603137 340.39866 
L 283.255478 344.383523 
z
" style="stroke:#000000;stroke-linecap:round;"/>
   </g>
   <g id="patch_8">
    <path clip-path="url(#p036f7a0aa2)" d="M 352.723031 343.110227 
Q 324.476648 316.988827 297.051106 291.626517 
" style="fill:none;stroke:#000000;stroke-linecap:round;"/>
    <path clip-path="url(#p036f7a0aa2)" d="M 298.629939 295.810688 
L 297.051106 291.626517 
L 301.345743 292.873953 
L 298.629939 295.810688 
z
" style="stroke:#000000;stroke-linecap:round;"/>
   </g>
   <g id="patch_9">
    <path clip-path="url(#p036f7a0aa2)" d="M 367.238771 351.90537 
Q 383.352422 357.662278 398.413216 363.043032 
" style="fill:none;stroke:#000000;stroke-linecap:round;"/>
    <path clip-path="url(#p036f7a0aa2)" d="M 395.319283 359.813857 
L 398.413216 363.043032 
L 393.973516 363.580674 
L 395.319283 359.813857 
z
" style="stroke:#000000;stroke-linecap:round;"/>
   </g>
   <g id="patch_10">
    <path clip-path="url(#p036f7a0aa2)" d="M 367.722891 348.434675 
Q 425.760549 344.694639 482.682488 341.026502 
" style="fill:none;stroke:#000000;stroke-linecap:round;"/>
    <path clip-path="url(#p036f7a0aa2)" d="M 478.562151 339.287874 
L 482.682488 341.026502 
L 478.819384 343.279595 
L 478.562151 339.287874 
z
" style="stroke:#000000;stroke-linecap:round;"/>
   </g>
   <g id="patch_11">
    <path clip-path="url(#p036f7a0aa2)" d="M 367.516018 350.94762 
Q 425.351355 364.362883 482.097574 377.525518 
" style="fill:none;stroke:#000000;stroke-linecap:round;"/>
    <path clip-path="url(#p036f7a0aa2)" d="M 478.652939 374.673415 
L 482.097574 377.525518 
L 477.749111 378.569964 
L 478.652939 374.673415 
z
" style="stroke:#000000;stroke-linecap:round;"/>
   </g>
   <g id="patch_12">
    <path clip-path="url(#p036f7a0aa2)" d="M 353.786002 342.140068 
Q 352.922681 341.023343 352.743175 340.79115 
" style="fill:none;stroke:#000000;stroke-linecap:round;"/>
    <path clip-path="url(#p036f7a0aa2)" d="M 353.607375 345.178992 
L 352.743175 340.79115 
L 356.771969 342.732495 
L 353.607375 345.178992 
z
" style="stroke:#000000;stroke-linecap:round;"/>
   </g>
   <g id="patch_13">
    <path clip-path="url(#p036f7a0aa2)" d="M 350.620751 350.830619 
Q 309.796788 359.703474 270.065352 368.338874 
" style="fill:none;stroke:#000000;stroke-linecap:round;"/>
    <path clip-path="url(#p036f7a0aa2)" d="M 274.398867 369.443703 
L 270.065352 368.338874 
L 273.549324 365.534959 
L 274.398867 369.443703 
z
" style="stroke:#000000;stroke-linecap:round;"/>
   </g>
   <g id="patch_14">
    <path clip-path="url(#p036f7a0aa2)" d="M 500.66888 472.872482 
Q 413.462928 468.352819 327.373511 463.891023 
" style="fill:none;stroke:#000000;stroke-linecap:round;"/>
    <path clip-path="url(#p036f7a0aa2)" d="M 331.264633 466.095374 
L 327.373511 463.891023 
L 331.471665 462.100736 
L 331.264633 466.095374 
z
" style="stroke:#000000;stroke-linecap:round;"/>
   </g>
   <g id="patch_15">
    <path clip-path="url(#p036f7a0aa2)" d="M 352.500901 369.20109 
Q 315.202926 356.584848 278.964038 344.326846 
" style="fill:none;stroke:#000000;stroke-linecap:round;"/>
    <path clip-path="url(#p036f7a0aa2)" d="M 282.112297 347.503081 
L 278.964038 344.326846 
L 283.393981 343.71398 
L 282.112297 347.503081 
z
" style="stroke:#000000;stroke-linecap:round;"/>
   </g>
   <g id="patch_16">
    <path clip-path="url(#p036f7a0aa2)" d="M 355.235243 365.261477 
Q 325.28734 328.481842 296.045376 292.569185 
" style="fill:none;stroke:#000000;stroke-linecap:round;"/>
    <path clip-path="url(#p036f7a0aa2)" d="M 297.020122 296.933801 
L 296.045376 292.569185 
L 300.121916 294.408158 
L 297.020122 296.933801 
z
" style="stroke:#000000;stroke-linecap:round;"/>
   </g>
   <g id="patch_17">
    <path clip-path="url(#p036f7a0aa2)" d="M 369.301776 370.940981 
Q 384.160728 369.154239 397.909642 367.500976 
" style="fill:none;stroke:#000000;stroke-linecap:round;"/>
    <path clip-path="url(#p036f7a0aa2)" d="M 393.699477 365.992828 
L 397.909642 367.500976 
L 394.177024 369.964219 
L 393.699477 365.992828 
z
" style="stroke:#000000;stroke-linecap:round;"/>
   </g>
   <g id="patch_18">
    <path clip-path="url(#p036f7a0aa2)" d="M 369.124538 369.956211 
Q 426.57392 356.185852 482.936066 342.676098 
" style="fill:none;stroke:#000000;stroke-linecap:round;"/>
    <path clip-path="url(#p036f7a0aa2)" d="M 478.580062 341.663561 
L 482.936066 342.676098 
L 479.512434 345.553379 
L 478.580062 341.663561 
z
" style="stroke:#000000;stroke-linecap:round;"/>
   </g>
   <g id="patch_19">
    <path clip-path="url(#p036f7a0aa2)" d="M 369.34375 372.487297 
Q 426.159407 375.854716 481.858989 379.155985 
" style="fill:none;stroke:#000000;stroke-linecap:round;"/>
    <path clip-path="url(#p036f7a0aa2)" d="M 477.984327 376.922828 
L 481.858989 379.155985 
L 477.747666 380.91582 
L 477.984327 376.922828 
z
" style="stroke:#000000;stroke-linecap:round;"/>
   </g>
   <g id="patch_20">
    <path clip-path="url(#p036f7a0aa2)" d="M 357.781135 363.820121 
Q 353.73199 352.514331 350.059818 342.261105 
" style="fill:none;stroke:#000000;stroke-linecap:round;"/>
    <path clip-path="url(#p036f7a0aa2)" d="M 349.525636 346.701224 
L 350.059818 342.261105 
L 353.291403 345.352522 
L 349.525636 346.701224 
z
" style="stroke:#000000;stroke-linecap:round;"/>
   </g>
   <g id="patch_21">
    <path clip-path="url(#p036f7a0aa2)" d="M 352.039723 371.840251 
Q 310.606415 371.195241 270.291006 370.567634 
" style="fill:none;stroke:#000000;stroke-linecap:round;"/>
    <path clip-path="url(#p036f7a0aa2)" d="M 274.25939 372.629653 
L 270.291006 370.567634 
L 274.321652 368.630138 
L 274.25939 372.629653 
z
" style="stroke:#000000;stroke-linecap:round;"/>
   </g>
   <g id="patch_22">
    <path clip-path="url(#p036f7a0aa2)" d="M 283.860051 207.250641 
Q 272.447379 263.133411 261.25842 317.920758 
" style="fill:none;stroke:#000000;stroke-linecap:round;"/>
    <path clip-path="url(#p036f7a0aa2)" d="M 264.018353 314.401843 
L 261.25842 317.920758 
L 260.099248 313.601462 
L 264.018353 314.401843 
z
" style="stroke:#000000;stroke-linecap:round;"/>
   </g>
   <g id="patch_23">
    <path clip-path="url(#p036f7a0aa2)" d="M 266.125763 332.837278 
Q 328.858844 381.856656 390.710951 430.187643 
" style="fill:none;stroke:#000000;stroke-linecap:round;"/>
    <path clip-path="url(#p036f7a0aa2)" d="M 388.790507 426.148844 
L 390.710951 430.187643 
L 386.327645 429.300719 
L 388.790507 426.148844 
z
" style="stroke:#000000;stroke-linecap:round;"/>
   </g>
   <g id="patch_24">
    <path clip-path="url(#p036f7a0aa2)" d="M 256.626856 310.532694 
Q 261.46472 321.878838 265.864067 332.196536 
" style="fill:none;stroke:#000000;stroke-linecap:round;"/>
    <path clip-path="url(#p036f7a0aa2)" d="M 266.134919 327.73261 
L 265.864067 332.196536 
L 262.455437 329.301498 
L 266.134919 327.73261 
z
" style="stroke:#000000;stroke-linecap:round;"/>
   </g>
   <g id="patch_25">
    <path clip-path="url(#p036f7a0aa2)" d="M 261.035266 298.821815 
Q 271.548028 293.778294 281.052758 289.218378 
" style="fill:none;stroke:#000000;stroke-linecap:round;"/>
    <path clip-path="url(#p036f7a0aa2)" d="M 276.581219 289.145356 
L 281.052758 289.218378 
L 278.311417 292.751796 
L 276.581219 289.145356 
z
" style="stroke:#000000;stroke-linecap:round;"/>
   </g>
   <g id="patch_26">
    <path clip-path="url(#p036f7a0aa2)" d="M 261.465025 305.250717 
Q 299.997154 317.811131 337.466298 330.02504 
" style="fill:none;stroke:#000000;stroke-linecap:round;"/>
    <path clip-path="url(#p036f7a0aa2)" d="M 334.283095 326.883827 
L 337.466298 330.02504 
L 333.043406 330.686875 
L 334.283095 326.883827 
z
" style="stroke:#000000;stroke-linecap:round;"/>
   </g>
   <g id="patch_27">
    <path clip-path="url(#p036f7a0aa2)" d="M 254.154031 311.175865 
Q 256.870738 336.491144 259.468148 360.694771 
" style="fill:none;stroke:#000000;stroke-linecap:round;"/>
    <path clip-path="url(#p036f7a0aa2)" d="M 261.029921 356.504203 
L 259.468148 360.694771 
L 257.052757 356.931012 
L 261.029921 356.504203 
z
" style="stroke:#000000;stroke-linecap:round;"/>
   </g>
   <g id="patch_28">
    <path clip-path="url(#p036f7a0aa2)" d="M 308.175357 360.118769 
Q 292.823095 352.567178 278.474067 345.509064 
" style="fill:none;stroke:#000000;stroke-linecap:round;"/>
    <path clip-path="url(#p036f7a0aa2)" d="M 281.180585 349.069227 
L 278.474067 345.509064 
L 282.946108 345.479948 
L 281.180585 349.069227 
z
" style="stroke:#000000;stroke-linecap:round;"/>
   </g>
   <g id="patch_29">
    <path clip-path="url(#p036f7a0aa2)" d="M 313.230245 355.717534 
Q 302.909024 324.464427 292.938404 294.272958 
" style="fill:none;stroke:#000000;stroke-linecap:round;"/>
    <path clip-path="url(#p036f7a0aa2)" d="M 292.293639 298.698371 
L 292.938404 294.272958 
L 296.091876 297.444018 
L 292.293639 298.698371 
z
" style="stroke:#000000;stroke-linecap:round;"/>
   </g>
   <g id="patch_30">
    <path clip-path="url(#p036f7a0aa2)" d="M 322.064632 357.808815 
Q 331.355099 348.497599 339.855879 339.977834 
" style="fill:none;stroke:#000000;stroke-linecap:round;"/>
    <path clip-path="url(#p036f7a0aa2)" d="M 335.614818 341.396779 
L 339.855879 339.977834 
L 338.446398 344.222049 
L 335.614818 341.396779 
z
" style="stroke:#000000;stroke-linecap:round;"/>
   </g>
   <g id="patch_31">
    <path clip-path="url(#p036f7a0aa2)" d="M 307.341882 364.945968 
Q 288.226928 367.178436 270.222459 369.281208 
" style="fill:none;stroke:#000000;stroke-linecap:round;"/>
    <path clip-path="url(#p036f7a0aa2)" d="M 274.427461 370.803693 
L 270.222459 369.281208 
L 273.963448 366.830697 
L 274.427461 370.803693 
z
" style="stroke:#000000;stroke-linecap:round;"/>
   </g>
   <g id="patch_32">
    <path clip-path="url(#p036f7a0aa2)" d="M 500.061893 381.669752 
Q 517.413072 385.647799 533.674491 389.376 
" style="fill:none;stroke:#000000;stroke-linecap:round;"/>
    <path clip-path="url(#p036f7a0aa2)" d="M 530.222584 386.532703 
L 533.674491 389.376 
L 529.328709 390.431547 
L 530.222584 386.532703 
z
" style="stroke:#000000;stroke-linecap:round;"/>
   </g>
   <g id="patch_33">
    <path clip-path="url(#p036f7a0aa2)" d="M 483.032923 380.869207 
Q 355.866371 397.669534 229.808221 414.323427 
" style="fill:none;stroke:#000000;stroke-linecap:round;"/>
    <path clip-path="url(#p036f7a0aa2)" d="M 234.035713 415.7823 
L 229.808221 414.323427 
L 233.511815 411.816757 
L 234.035713 415.7823 
z
" style="stroke:#000000;stroke-linecap:round;"/>
   </g>
   <g id="patch_34">
    <path clip-path="url(#p036f7a0aa2)" d="M 499.65671 376.510253 
Q 605.555149 334.01736 710.415972 291.940821 
" style="fill:none;stroke:#000000;stroke-linecap:round;"/>
    <path clip-path="url(#p036f7a0aa2)" d="M 705.958883 291.574273 
L 710.415972 291.940821 
L 707.448479 295.286563 
L 705.958883 291.574273 
z
" style="stroke:#000000;stroke-linecap:round;"/>
   </g>
   <g id="patch_35">
    <path clip-path="url(#p036f7a0aa2)" d="M 534.692439 389.977033 
Q 475.413245 378.946966 417.23322 368.121421 
" style="fill:none;stroke:#000000;stroke-linecap:round;"/>
    <path clip-path="url(#p036f7a0aa2)" d="M 420.799864 370.819393 
L 417.23322 368.121421 
L 421.531584 366.886889 
L 420.799864 370.819393 
z
" style="stroke:#000000;stroke-linecap:round;"/>
   </g>
   <g id="patch_36">
    <path clip-path="url(#p036f7a0aa2)" d="M 537.103076 385.411997 
Q 517.821414 365.977829 499.327202 347.337338 
" style="fill:none;stroke:#000000;stroke-linecap:round;"/>
    <path clip-path="url(#p036f7a0aa2)" d="M 500.724692 351.585517 
L 499.327202 347.337338 
L 503.564239 348.768253 
L 500.724692 351.585517 
z
" style="stroke:#000000;stroke-linecap:round;"/>
   </g>
   <g id="patch_37">
    <path clip-path="url(#p036f7a0aa2)" d="M 534.762832 389.62552 
Q 517.411653 385.647473 501.150234 381.919272 
" style="fill:none;stroke:#000000;stroke-linecap:round;"/>
    <path clip-path="url(#p036f7a0aa2)" d="M 504.602141 384.762569 
L 501.150234 381.919272 
L 505.496016 380.863725 
L 504.602141 384.762569 
z
" style="stroke:#000000;stroke-linecap:round;"/>
   </g>
   <g id="patch_38">
    <path clip-path="url(#p036f7a0aa2)" d="M 415.902703 363.801112 
Q 450.03095 353.365661 483.090027 343.257131 
" style="fill:none;stroke:#000000;stroke-linecap:round;"/>
    <path clip-path="url(#p036f7a0aa2)" d="M 478.680037 342.514174 
L 483.090027 343.257131 
L 479.849667 346.339349 
L 478.680037 342.514174 
z
" style="stroke:#000000;stroke-linecap:round;"/>
   </g>
   <g id="patch_39">
    <path clip-path="url(#p036f7a0aa2)" d="M 416.176338 367.697854 
Q 449.623227 373.034084 481.966045 378.194167 
" style="fill:none;stroke:#000000;stroke-linecap:round;"/>
    <path clip-path="url(#p036f7a0aa2)" d="M 478.331103 375.588942 
L 481.966045 378.194167 
L 477.7009 379.538985 
L 478.331103 375.588942 
z
" style="stroke:#000000;stroke-linecap:round;"/>
   </g>
   <g id="patch_40">
    <path clip-path="url(#p036f7a0aa2)" d="M 399.098795 364.779492 
Q 338.658412 353.762692 279.317939 342.946378 
" style="fill:none;stroke:#000000;stroke-linecap:round;"/>
    <path clip-path="url(#p036f7a0aa2)" d="M 282.89446 345.631243 
L 279.317939 342.946378 
L 283.611744 341.69608 
L 282.89446 345.631243 
z
" style="stroke:#000000;stroke-linecap:round;"/>
   </g>
   <g id="patch_41">
    <path clip-path="url(#p036f7a0aa2)" d="M 400.025842 362.179473 
Q 377.193033 349.694576 355.341187 337.746067 
" style="fill:none;stroke:#000000;stroke-linecap:round;"/>
    <path clip-path="url(#p036f7a0aa2)" d="M 357.891269 341.419904 
L 355.341187 337.746067 
L 359.810306 337.910303 
L 357.891269 341.419904 
z
" style="stroke:#000000;stroke-linecap:round;"/>
   </g>
   <g id="patch_42">
    <path clip-path="url(#p036f7a0aa2)" d="M 398.96193 366.573402 
Q 334.065317 368.374275 270.286308 370.144134 
" style="fill:none;stroke:#000000;stroke-linecap:round;"/>
    <path clip-path="url(#p036f7a0aa2)" d="M 274.340247 372.032408 
L 270.286308 370.144134 
L 274.22929 368.033947 
L 274.340247 372.032408 
z
" style="stroke:#000000;stroke-linecap:round;"/>
   </g>
   <g id="patch_43">
    <path clip-path="url(#p036f7a0aa2)" d="M 272.626702 333.038911 
Q 279.786755 313.088319 286.569144 294.190042 
" style="fill:none;stroke:#000000;stroke-linecap:round;"/>
    <path clip-path="url(#p036f7a0aa2)" d="M 283.335528 297.279335 
L 286.569144 294.190042 
L 287.100409 298.630511 
L 283.335528 297.279335 
z
" style="stroke:#000000;stroke-linecap:round;"/>
   </g>
   <g id="patch_44">
    <path clip-path="url(#p036f7a0aa2)" d="M 278.223493 342.746887 
Q 338.663877 353.763688 398.00435 364.580001 
" style="fill:none;stroke:#000000;stroke-linecap:round;"/>
    <path clip-path="url(#p036f7a0aa2)" d="M 394.427829 361.895137 
L 398.00435 364.580001 
L 393.710545 365.830299 
L 394.427829 361.895137 
z
" style="stroke:#000000;stroke-linecap:round;"/>
   </g>
   <g id="patch_45">
    <path clip-path="url(#p036f7a0aa2)" d="M 261.075955 340.419525 
Q 222.205838 336.932075 184.449281 333.544534 
" style="fill:none;stroke:#000000;stroke-linecap:round;"/>
    <path clip-path="url(#p036f7a0aa2)" d="M 188.254555 335.893979 
L 184.449281 333.544534 
L 188.612001 331.909982 
L 188.254555 335.893979 
z
" style="stroke:#000000;stroke-linecap:round;"/>
   </g>
   <g id="patch_46">
    <path clip-path="url(#p036f7a0aa2)" d="M 278.312346 340.283849 
Q 308.232278 337.124294 337.040357 334.082151 
" style="fill:none;stroke:#000000;stroke-linecap:round;"/>
    <path clip-path="url(#p036f7a0aa2)" d="M 332.852443 332.513275 
L 337.040357 334.082151 
L 333.272508 336.491157 
L 332.852443 332.513275 
z
" style="stroke:#000000;stroke-linecap:round;"/>
   </g>
   <g id="patch_47">
    <path clip-path="url(#p036f7a0aa2)" d="M 267.103474 349.451248 
Q 265.106594 355.801653 263.445089 361.08551 
" style="fill:none;stroke:#000000;stroke-linecap:round;"/>
    <path clip-path="url(#p036f7a0aa2)" d="M 266.552862 357.869651 
L 263.445089 361.08551 
L 262.737065 356.669777 
L 266.552862 357.869651 
z
" style="stroke:#000000;stroke-linecap:round;"/>
   </g>
   <g id="patch_48">
    <path clip-path="url(#p036f7a0aa2)" d="M 500.294126 344.055033 
Q 523.353966 354.79596 545.400321 365.064821 
" style="fill:none;stroke:#000000;stroke-linecap:round;"/>
    <path clip-path="url(#p036f7a0aa2)" d="M 542.618822 361.562927 
L 545.400321 365.064821 
L 540.929906 365.188884 
L 542.618822 361.562927 
z
" style="stroke:#000000;stroke-linecap:round;"/>
   </g>
   <g id="patch_49">
    <path clip-path="url(#p036f7a0aa2)" d="M 501.101118 340.469229 
Q 519.735586 340.623396 537.252058 340.768314 
" style="fill:none;stroke:#000000;stroke-linecap:round;"/>
    <path clip-path="url(#p036f7a0aa2)" d="M 533.268741 338.735291 
L 537.252058 340.768314 
L 533.235649 342.735154 
L 533.268741 338.735291 
z
" style="stroke:#000000;stroke-linecap:round;"/>
   </g>
   <g id="patch_50">
    <path clip-path="url(#p036f7a0aa2)" d="M 484.093614 342.703055 
Q 356.277088 378.000853 229.538256 413.001035 
" style="fill:none;stroke:#000000;stroke-linecap:round;"/>
    <path clip-path="url(#p036f7a0aa2)" d="M 233.926323 413.86409 
L 229.538256 413.001035 
L 232.86154 410.008414 
L 233.926323 413.86409 
z
" style="stroke:#000000;stroke-linecap:round;"/>
   </g>
   <g id="patch_51">
    <path clip-path="url(#p036f7a0aa2)" d="M 500.885004 338.460234 
Q 605.968266 314.347787 709.961814 290.485387 
" style="fill:none;stroke:#000000;stroke-linecap:round;"/>
    <path clip-path="url(#p036f7a0aa2)" d="M 705.615838 289.430639 
L 709.961814 290.485387 
L 706.510431 293.329319 
L 705.615838 289.430639 
z
" style="stroke:#000000;stroke-linecap:round;"/>
   </g>
   <g id="patch_52">
    <path clip-path="url(#p036f7a0aa2)" d="M 373.644265 301.258543 
Q 336.008304 293.948489 299.469865 286.851608 
" style="fill:none;stroke:#000000;stroke-linecap:round;"/>
    <path clip-path="url(#p036f7a0aa2)" d="M 303.015149 289.577586 
L 299.469865 286.851608 
L 303.777819 285.650968 
L 303.015149 289.577586 
z
" style="stroke:#000000;stroke-linecap:round;"/>
   </g>
   <g id="patch_53">
    <path clip-path="url(#p036f7a0aa2)" d="M 373.947681 305.700897 
Q 325.923141 322.051468 278.956975 338.041702 
" style="fill:none;stroke:#000000;stroke-linecap:round;"/>
    <path clip-path="url(#p036f7a0aa2)" d="M 283.388122 338.645798 
L 278.956975 338.041702 
L 282.098941 334.859242 
L 283.388122 338.645798 
z
" style="stroke:#000000;stroke-linecap:round;"/>
   </g>
   <g id="patch_54">
    <path clip-path="url(#p036f7a0aa2)" d="M 385.372225 310.942211 
Q 394.883154 334.619577 403.977345 357.259481 
" style="fill:none;stroke:#000000;stroke-linecap:round;"/>
    <path clip-path="url(#p036f7a0aa2)" d="M 404.342252 352.802257 
L 403.977345 357.259481 
L 400.63051 354.293221 
L 404.342252 352.802257 
z
" style="stroke:#000000;stroke-linecap:round;"/>
   </g>
   <g id="patch_55">
    <path clip-path="url(#p036f7a0aa2)" d="M 390.348566 305.697798 
Q 437.296613 321.65464 483.186097 337.251696 
" style="fill:none;stroke:#000000;stroke-linecap:round;"/>
    <path clip-path="url(#p036f7a0aa2)" d="M 480.042478 334.070869 
L 483.186097 337.251696 
L 478.755264 337.858095 
L 480.042478 334.070869 
z
" style="stroke:#000000;stroke-linecap:round;"/>
   </g>
   <g id="patch_56">
    <path clip-path="url(#p036f7a0aa2)" d="M 389.231796 307.882479 
Q 436.881557 341.320854 483.616143 374.117003 
" style="fill:none;stroke:#000000;stroke-linecap:round;"/>
    <path clip-path="url(#p036f7a0aa2)" d="M 481.490765 370.182188 
L 483.616143 374.117003 
L 479.193064 373.456416 
L 481.490765 370.182188 
z
" style="stroke:#000000;stroke-linecap:round;"/>
   </g>
   <g id="patch_57">
    <path clip-path="url(#p036f7a0aa2)" d="M 387.16595 309.963587 
Q 441.812606 386.745843 495.810973 462.617209 
" style="fill:none;stroke:#000000;stroke-linecap:round;"/>
    <path clip-path="url(#p036f7a0aa2)" d="M 495.121033 458.198613 
L 495.810973 462.617209 
L 491.862133 460.518003 
L 495.121033 458.198613 
z
" style="stroke:#000000;stroke-linecap:round;"/>
   </g>
   <g id="patch_58">
    <path clip-path="url(#p036f7a0aa2)" d="M 373.591252 301.550453 
Q 274.124171 285.744822 175.761269 270.114649 
" style="fill:none;stroke:#000000;stroke-linecap:round;"/>
    <path clip-path="url(#p036f7a0aa2)" d="M 179.397837 272.717604 
L 175.761269 270.114649 
L 180.025574 268.767168 
L 179.397837 272.717604 
z
" style="stroke:#000000;stroke-linecap:round;"/>
   </g>
   <g id="patch_59">
    <path clip-path="url(#p036f7a0aa2)" d="M 386.364954 295.349317 
Q 436.642034 205.258288 486.374275 116.143553 
" style="fill:none;stroke:#000000;stroke-linecap:round;"/>
    <path clip-path="url(#p036f7a0aa2)" d="M 482.678548 118.661808 
L 486.374275 116.143553 
L 486.171443 120.611087 
L 482.678548 118.661808 
z
" style="stroke:#000000;stroke-linecap:round;"/>
   </g>
   <g id="patch_60">
    <path clip-path="url(#p036f7a0aa2)" d="M 375.552435 308.527135 
Q 364.452343 317.984251 354.203289 326.716294 
" style="fill:none;stroke:#000000;stroke-linecap:round;"/>
    <path clip-path="url(#p036f7a0aa2)" d="M 358.545112 325.644579 
L 354.203289 326.716294 
L 355.951011 322.599806 
L 358.545112 325.644579 
z
" style="stroke:#000000;stroke-linecap:round;"/>
   </g>
   <g id="patch_61">
    <path clip-path="url(#p036f7a0aa2)" d="M 374.576948 307.110339 
Q 321.329727 336.661905 269.060079 365.670929 
" style="fill:none;stroke:#000000;stroke-linecap:round;"/>
    <path clip-path="url(#p036f7a0aa2)" d="M 273.528077 365.47861 
L 269.060079 365.670929 
L 271.587023 361.981138 
L 273.528077 365.47861 
z
" style="stroke:#000000;stroke-linecap:round;"/>
   </g>
   <g id="patch_62">
    <path clip-path="url(#p036f7a0aa2)" d="M 385.592736 303.36632 
Q 341.984068 294.993214 299.473379 286.830926 
" style="fill:none;stroke:#000000;stroke-linecap:round;"/>
    <path clip-path="url(#p036f7a0aa2)" d="M 303.024502 289.549294 
L 299.473379 286.830926 
L 303.778747 285.621048 
L 303.024502 289.549294 
z
" style="stroke:#000000;stroke-linecap:round;"/>
   </g>
   <g id="patch_63">
    <path clip-path="url(#p036f7a0aa2)" d="M 385.777035 307.418829 
Q 331.895596 323.096518 279.087672 338.461852 
" style="fill:none;stroke:#000000;stroke-linecap:round;"/>
    <path clip-path="url(#p036f7a0aa2)" d="M 283.487154 339.264691 
L 279.087672 338.461852 
L 282.369633 335.423969 
L 283.487154 339.264691 
z
" style="stroke:#000000;stroke-linecap:round;"/>
   </g>
   <g id="patch_64">
    <path clip-path="url(#p036f7a0aa2)" d="M 395.959701 313.455399 
Q 400.858069 335.664737 405.515636 356.782279 
" style="fill:none;stroke:#000000;stroke-linecap:round;"/>
    <path clip-path="url(#p036f7a0aa2)" d="M 406.607185 352.4454 
L 405.515636 356.782279 
L 402.701062 353.306913 
L 406.607185 352.4454 
z
" style="stroke:#000000;stroke-linecap:round;"/>
   </g>
   <g id="patch_65">
    <path clip-path="url(#p036f7a0aa2)" d="M 402.243135 307.931695 
Q 443.267228 322.697792 483.239355 337.085247 
" style="fill:none;stroke:#000000;stroke-linecap:round;"/>
    <path clip-path="url(#p036f7a0aa2)" d="M 480.153065 333.848766 
L 483.239355 337.085247 
L 478.798396 337.612391 
L 480.153065 333.848766 
z
" style="stroke:#000000;stroke-linecap:round;"/>
   </g>
   <g id="patch_66">
    <path clip-path="url(#p036f7a0aa2)" d="M 400.966767 310.264983 
Q 442.856545 342.365629 483.858892 373.786226 
" style="fill:none;stroke:#000000;stroke-linecap:round;"/>
    <path clip-path="url(#p036f7a0aa2)" d="M 481.900432 369.765725 
L 483.858892 373.786226 
L 479.467415 372.940693 
L 481.900432 369.765725 
z
" style="stroke:#000000;stroke-linecap:round;"/>
   </g>
   <g id="patch_67">
    <path clip-path="url(#p036f7a0aa2)" d="M 398.805486 312.262785 
Q 447.787768 387.791333 496.161706 462.381842 
" style="fill:none;stroke:#000000;stroke-linecap:round;"/>
    <path clip-path="url(#p036f7a0aa2)" d="M 495.663245 457.937572 
L 496.161706 462.381842 
L 492.307213 460.114048 
L 495.663245 457.937572 
z
" style="stroke:#000000;stroke-linecap:round;"/>
   </g>
   <g id="patch_68">
    <path clip-path="url(#p036f7a0aa2)" d="M 385.540093 303.632247 
Q 280.100395 286.789575 175.764734 270.123259 
" style="fill:none;stroke:#000000;stroke-linecap:round;"/>
    <path clip-path="url(#p036f7a0aa2)" d="M 179.399182 272.729172 
L 175.764734 270.123259 
L 180.030133 268.779248 
L 179.399182 272.729172 
z
" style="stroke:#000000;stroke-linecap:round;"/>
   </g>
   <g id="patch_69">
    <path clip-path="url(#p036f7a0aa2)" d="M 397.916402 297.224859 
Q 442.616196 206.303261 486.82272 116.385 
" style="fill:none;stroke:#000000;stroke-linecap:round;"/>
    <path clip-path="url(#p036f7a0aa2)" d="M 483.263118 119.092257 
L 486.82272 116.385 
L 486.852765 120.857035 
L 483.263118 119.092257 
z
" style="stroke:#000000;stroke-linecap:round;"/>
   </g>
   <g id="patch_70">
    <path clip-path="url(#p036f7a0aa2)" d="M 386.644073 309.415116 
Q 370.428931 319.026939 355.17555 328.068661 
" style="fill:none;stroke:#000000;stroke-linecap:round;"/>
    <path clip-path="url(#p036f7a0aa2)" d="M 359.63628 327.749454 
L 355.17555 328.068661 
L 357.596623 324.308553 
L 359.63628 327.749454 
z
" style="stroke:#000000;stroke-linecap:round;"/>
   </g>
   <g id="patch_71">
    <path clip-path="url(#p036f7a0aa2)" d="M 386.320396 308.805769 
Q 327.303237 337.7069 269.290177 366.116317 
" style="fill:none;stroke:#000000;stroke-linecap:round;"/>
    <path clip-path="url(#p036f7a0aa2)" d="M 273.76216 366.153292 
L 269.290177 366.116317 
L 272.002947 362.560916 
L 273.76216 366.153292 
z
" style="stroke:#000000;stroke-linecap:round;"/>
   </g>
   <g id="patch_72">
    <path clip-path="url(#p036f7a0aa2)" d="M 421.88183 281.946694 
Q 459.997454 372.274559 497.678416 461.572342 
" style="fill:none;stroke:#000000;stroke-linecap:round;"/>
    <path clip-path="url(#p036f7a0aa2)" d="M 497.965983 457.109461 
L 497.678416 461.572342 
L 494.280652 458.66456 
L 497.965983 457.109461 
z
" style="stroke:#000000;stroke-linecap:round;"/>
   </g>
   <g id="patch_73">
    <path clip-path="url(#p036f7a0aa2)" d="M 409.853708 273.784484 
Q 292.30715 271.274815 175.878371 268.789011 
" style="fill:none;stroke:#000000;stroke-linecap:round;"/>
    <path clip-path="url(#p036f7a0aa2)" d="M 179.834769 270.873938 
L 175.878371 268.789011 
L 179.920151 266.874849 
L 179.834769 270.873938 
z
" style="stroke:#000000;stroke-linecap:round;"/>
   </g>
   <g id="patch_74">
    <path clip-path="url(#p036f7a0aa2)" d="M 421.980786 266.031578 
Q 454.827246 190.787527 487.226409 116.568134 
" style="fill:none;stroke:#000000;stroke-linecap:round;"/>
    <path clip-path="url(#p036f7a0aa2)" d="M 483.793146 119.433917 
L 487.226409 116.568134 
L 487.459077 121.034214 
L 483.793146 119.433917 
z
" style="stroke:#000000;stroke-linecap:round;"/>
   </g>
   <g id="patch_75">
    <path clip-path="url(#p036f7a0aa2)" d="M 404.302774 278.622866 
Q 450.93685 370.741503 497.065955 461.862643 
" style="fill:none;stroke:#000000;stroke-linecap:round;"/>
    <path clip-path="url(#p036f7a0aa2)" d="M 497.043688 457.390562 
L 497.065955 461.862643 
L 493.47493 459.197208 
L 497.043688 457.390562 
z
" style="stroke:#000000;stroke-linecap:round;"/>
   </g>
   <g id="patch_76">
    <path clip-path="url(#p036f7a0aa2)" d="M 391.730502 270.813113 
Q 283.247414 269.739579 175.882306 268.67711 
" style="fill:none;stroke:#000000;stroke-linecap:round;"/>
    <path clip-path="url(#p036f7a0aa2)" d="M 179.862319 270.716593 
L 175.882306 268.67711 
L 179.901901 266.716789 
L 179.862319 270.716593 
z
" style="stroke:#000000;stroke-linecap:round;"/>
   </g>
   <g id="patch_77">
    <path clip-path="url(#p036f7a0aa2)" d="M 404.600567 263.326763 
Q 445.766511 189.250943 486.389362 116.152388 
" style="fill:none;stroke:#000000;stroke-linecap:round;"/>
    <path clip-path="url(#p036f7a0aa2)" d="M 482.698144 118.677248 
L 486.389362 116.152388 
L 486.194519 120.620278 
L 482.698144 118.677248 
z
" style="stroke:#000000;stroke-linecap:round;"/>
   </g>
   <g id="patch_78">
    <path clip-path="url(#p036f7a0aa2)" d="M 373.457046 340.348096 
Q 325.908677 340.735424 279.478304 341.113644 
" style="fill:none;stroke:#000000;stroke-linecap:round;"/>
    <path clip-path="url(#p036f7a0aa2)" d="M 283.494463 343.080995 
L 279.478304 341.113644 
L 283.46188 339.081128 
L 283.494463 343.080995 
z
" style="stroke:#000000;stroke-linecap:round;"/>
   </g>
   <g id="patch_79">
    <path clip-path="url(#p036f7a0aa2)" d="M 374.690483 335.824689 
Q 335.994324 312.631566 298.25714 290.013218 
" style="fill:none;stroke:#000000;stroke-linecap:round;"/>
    <path clip-path="url(#p036f7a0aa2)" d="M 300.659882 293.785065 
L 298.25714 290.013218 
L 302.716263 290.354132 
L 300.659882 293.785065 
z
" style="stroke:#000000;stroke-linecap:round;"/>
   </g>
   <g id="patch_80">
    <path clip-path="url(#p036f7a0aa2)" d="M 388.17469 346.463816 
Q 394.870423 353.304791 400.784113 359.34676 
" style="fill:none;stroke:#000000;stroke-linecap:round;"/>
    <path clip-path="url(#p036f7a0aa2)" d="M 399.4155 355.089191 
L 400.784113 359.34676 
L 396.55689 357.887109 
L 399.4155 355.089191 
z
" style="stroke:#000000;stroke-linecap:round;"/>
   </g>
   <g id="patch_81">
    <path clip-path="url(#p036f7a0aa2)" d="M 390.782434 340.286958 
Q 437.282772 340.337562 482.665077 340.38695 
" style="fill:none;stroke:#000000;stroke-linecap:round;"/>
    <path clip-path="url(#p036f7a0aa2)" d="M 478.667256 338.382598 
L 482.665077 340.38695 
L 478.662903 342.382596 
L 478.667256 338.382598 
z
" style="stroke:#000000;stroke-linecap:round;"/>
   </g>
   <g id="patch_82">
    <path clip-path="url(#p036f7a0aa2)" d="M 390.270201 343.214413 
Q 436.870695 360.006135 482.419356 376.418848 
" style="fill:none;stroke:#000000;stroke-linecap:round;"/>
    <path clip-path="url(#p036f7a0aa2)" d="M 479.334201 373.181284 
L 482.419356 376.418848 
L 477.978212 376.944433 
L 479.334201 373.181284 
z
" style="stroke:#000000;stroke-linecap:round;"/>
   </g>
   <g id="patch_83">
    <path clip-path="url(#p036f7a0aa2)" d="M 373.638749 338.545184 
Q 364.444443 336.667136 356.345552 335.01284 
" style="fill:none;stroke:#000000;stroke-linecap:round;"/>
    <path clip-path="url(#p036f7a0aa2)" d="M 359.86437 337.772898 
L 356.345552 335.01284 
L 360.664889 333.85382 
L 359.86437 337.772898 
z
" style="stroke:#000000;stroke-linecap:round;"/>
   </g>
   <g id="patch_84">
    <path clip-path="url(#p036f7a0aa2)" d="M 373.713891 342.360729 
Q 321.315208 355.34654 270.001729 368.063408 
" style="fill:none;stroke:#000000;stroke-linecap:round;"/>
    <path clip-path="url(#p036f7a0aa2)" d="M 274.365376 369.042481 
L 270.001729 368.063408 
L 273.403176 365.159934 
L 274.365376 369.042481 
z
" style="stroke:#000000;stroke-linecap:round;"/>
   </g>
   <g id="patch_85">
    <path clip-path="url(#p036f7a0aa2)" d="M 365.174333 330.001062 
Q 321.739246 335.092866 279.414589 340.054496 
" style="fill:none;stroke:#000000;stroke-linecap:round;"/>
    <path clip-path="url(#p036f7a0aa2)" d="M 283.620246 341.575172 
L 279.414589 340.054496 
L 283.154524 337.602376 
L 283.620246 341.575172 
z
" style="stroke:#000000;stroke-linecap:round;"/>
   </g>
   <g id="patch_86">
    <path clip-path="url(#p036f7a0aa2)" d="M 366.109628 324.970323 
Q 331.826139 306.990325 298.532779 289.5296 
" style="fill:none;stroke:#000000;stroke-linecap:round;"/>
    <path clip-path="url(#p036f7a0aa2)" d="M 301.146266 293.158606 
L 298.532779 289.5296 
L 303.004076 289.616214 
L 301.146266 293.158606 
z
" style="stroke:#000000;stroke-linecap:round;"/>
   </g>
   <g id="patch_87">
    <path clip-path="url(#p036f7a0aa2)" d="M 379.593492 335.40804 
Q 390.700413 347.66273 401.056511 359.089009 
" style="fill:none;stroke:#000000;stroke-linecap:round;"/>
    <path clip-path="url(#p036f7a0aa2)" d="M 399.852193 354.782082 
L 401.056511 359.089009 
L 396.888379 357.468307 
L 399.852193 354.782082 
z
" style="stroke:#000000;stroke-linecap:round;"/>
   </g>
   <g id="patch_88">
    <path clip-path="url(#p036f7a0aa2)" d="M 382.401073 329.821116 
Q 433.111268 334.69508 482.708559 339.462077 
" style="fill:none;stroke:#000000;stroke-linecap:round;"/>
    <path clip-path="url(#p036f7a0aa2)" d="M 478.918254 337.088559 
L 482.708559 339.462077 
L 478.535561 341.07021 
L 478.918254 337.088559 
z
" style="stroke:#000000;stroke-linecap:round;"/>
   </g>
   <g id="patch_89">
    <path clip-path="url(#p036f7a0aa2)" d="M 381.730073 332.416185 
Q 432.699935 354.363472 482.642915 375.86859 
" style="fill:none;stroke:#000000;stroke-linecap:round;"/>
    <path clip-path="url(#p036f7a0aa2)" d="M 479.760005 372.449697 
L 482.642915 375.86859 
L 478.178055 376.123582 
L 479.760005 372.449697 
z
" style="stroke:#000000;stroke-linecap:round;"/>
   </g>
   <g id="patch_90">
    <path clip-path="url(#p036f7a0aa2)" d="M 365.21424 330.280447 
Q 360.27029 331.023994 356.43194 331.601265 
" style="fill:none;stroke:#000000;stroke-linecap:round;"/>
    <path clip-path="url(#p036f7a0aa2)" d="M 360.684901 332.984131 
L 356.43194 331.601265 
L 360.09001 329.028615 
L 360.684901 332.984131 
z
" style="stroke:#000000;stroke-linecap:round;"/>
   </g>
   <g id="patch_91">
    <path clip-path="url(#p036f7a0aa2)" d="M 365.645236 331.966884 
Q 317.144964 349.703909 269.694712 367.056931 
" style="fill:none;stroke:#000000;stroke-linecap:round;"/>
    <path clip-path="url(#p036f7a0aa2)" d="M 274.138303 367.561414 
L 269.694712 367.056931 
L 272.764453 363.804748 
L 274.138303 367.561414 
z
" style="stroke:#000000;stroke-linecap:round;"/>
   </g>
   <g id="patch_92">
    <path clip-path="url(#p036f7a0aa2)" d="M 361.444842 358.58243 
Q 319.826845 350.694223 279.307325 343.014219 
" style="fill:none;stroke:#000000;stroke-linecap:round;"/>
    <path clip-path="url(#p036f7a0aa2)" d="M 282.86491 345.724125 
L 279.307325 343.014219 
L 283.609801 341.794095 
L 282.86491 345.724125 
z
" style="stroke:#000000;stroke-linecap:round;"/>
   </g>
   <g id="patch_93">
    <path clip-path="url(#p036f7a0aa2)" d="M 363.640692 354.26671 
Q 329.913657 322.592265 297.001602 291.683201 
" style="fill:none;stroke:#000000;stroke-linecap:round;"/>
    <path clip-path="url(#p036f7a0aa2)" d="M 298.548207 295.879392 
L 297.001602 291.683201 
L 301.286517 292.963632 
L 298.548207 295.879392 
z
" style="stroke:#000000;stroke-linecap:round;"/>
   </g>
   <g id="patch_94">
    <path clip-path="url(#p036f7a0aa2)" d="M 378.501402 361.587986 
Q 388.78714 363.264004 397.969397 364.760214 
" style="fill:none;stroke:#000000;stroke-linecap:round;"/>
    <path clip-path="url(#p036f7a0aa2)" d="M 394.343114 362.142949 
L 397.969397 364.760214 
L 393.699815 366.090881 
L 394.343114 362.142949 
z
" style="stroke:#000000;stroke-linecap:round;"/>
   </g>
   <g id="patch_95">
    <path clip-path="url(#p036f7a0aa2)" d="M 378.502195 358.81336 
Q 431.19688 350.29646 482.787855 341.957949 
" style="fill:none;stroke:#000000;stroke-linecap:round;"/>
    <path clip-path="url(#p036f7a0aa2)" d="M 478.519986 340.621798 
L 482.787855 341.957949 
L 479.158213 344.570553 
L 478.519986 340.621798 
z
" style="stroke:#000000;stroke-linecap:round;"/>
   </g>
   <g id="patch_96">
    <path clip-path="url(#p036f7a0aa2)" d="M 378.504324 361.568375 
Q 430.787399 369.964869 481.966584 378.184083 
" style="fill:none;stroke:#000000;stroke-linecap:round;"/>
    <path clip-path="url(#p036f7a0aa2)" d="M 478.33432 375.575125 
L 481.966584 378.184083 
L 477.70006 379.52452 
L 478.33432 375.575125 
z
" style="stroke:#000000;stroke-linecap:round;"/>
   </g>
   <g id="patch_97">
    <path clip-path="url(#p036f7a0aa2)" d="M 364.328335 353.612279 
Q 358.357737 346.624916 353.113442 340.487543 
" style="fill:none;stroke:#000000;stroke-linecap:round;"/>
    <path clip-path="url(#p036f7a0aa2)" d="M 354.191437 344.827811 
L 353.113442 340.487543 
L 357.232454 342.229307 
L 354.191437 344.827811 
z
" style="stroke:#000000;stroke-linecap:round;"/>
   </g>
   <g id="patch_98">
    <path clip-path="url(#p036f7a0aa2)" d="M 361.332969 361.000111 
Q 315.234323 365.305055 270.248868 369.506043 
" style="fill:none;stroke:#000000;stroke-linecap:round;"/>
    <path clip-path="url(#p036f7a0aa2)" d="M 274.417502 371.125455 
L 270.248868 369.506043 
L 274.045578 367.142784 
L 274.417502 371.125455 
z
" style="stroke:#000000;stroke-linecap:round;"/>
   </g>
   <g id="patch_99">
    <path clip-path="url(#p036f7a0aa2)" d="M 386.974285 352.362232 
Q 324.161294 328.975587 262.396071 305.979049 
" style="fill:none;stroke:#000000;stroke-linecap:round;"/>
    <path clip-path="url(#p036f7a0aa2)" d="M 265.446834 309.249041 
L 262.396071 305.979049 
L 266.842522 305.500434 
L 265.446834 309.249041 
z
" style="stroke:#000000;stroke-linecap:round;"/>
   </g>
   <g id="patch_100">
    <path clip-path="url(#p036f7a0aa2)" d="M 386.902771 358.202735 
Q 307.60029 385.494827 229.354989 412.423088 
" style="fill:none;stroke:#000000;stroke-linecap:round;"/>
    <path clip-path="url(#p036f7a0aa2)" d="M 233.788107 413.012549 
L 229.354989 412.423088 
L 232.486428 409.23027 
L 233.788107 413.012549 
z
" style="stroke:#000000;stroke-linecap:round;"/>
   </g>
   <g id="patch_101">
    <path clip-path="url(#p036f7a0aa2)" d="M 398.290094 363.434566 
Q 418.686989 414.771126 438.67106 465.068658 
" style="fill:none;stroke:#000000;stroke-linecap:round;"/>
    <path clip-path="url(#p036f7a0aa2)" d="M 439.052767 460.612842 
L 438.67106 465.068658 
L 435.335431 462.089803 
L 439.052767 460.612842 
z
" style="stroke:#000000;stroke-linecap:round;"/>
   </g>
   <g id="patch_102">
    <path clip-path="url(#p036f7a0aa2)" d="M 303.03728 357.691209 
Q 281.035361 333.340251 259.782985 309.818862 
" style="fill:none;stroke:#000000;stroke-linecap:round;"/>
    <path clip-path="url(#p036f7a0aa2)" d="M 260.980656 314.127641 
L 259.782985 309.818862 
L 263.948612 311.445993 
L 260.980656 314.127641 
z
" style="stroke:#000000;stroke-linecap:round;"/>
   </g>
   <g id="patch_103">
    <path clip-path="url(#p036f7a0aa2)" d="M 301.350537 368.464864 
Q 264.475372 389.861757 228.567235 410.69753 
" style="fill:none;stroke:#000000;stroke-linecap:round;"/>
    <path clip-path="url(#p036f7a0aa2)" d="M 233.030744 410.419878 
L 228.567235 410.69753 
L 231.023219 406.960131 
L 233.030744 410.419878 
z
" style="stroke:#000000;stroke-linecap:round;"/>
   </g>
   <g id="patch_104">
    <path clip-path="url(#p036f7a0aa2)" d="M 315.523738 369.625981 
Q 375.56078 419.134075 434.735242 467.930864 
" style="fill:none;stroke:#000000;stroke-linecap:round;"/>
    <path clip-path="url(#p036f7a0aa2)" d="M 432.921604 463.842989 
L 434.735242 467.930864 
L 430.37676 466.929049 
L 432.921604 463.842989 
z
" style="stroke:#000000;stroke-linecap:round;"/>
   </g>
   <g id="patch_105">
    <path clip-path="url(#p036f7a0aa2)" d="M 310.183839 294.825665 
Q 325.480529 310.812689 340.004284 325.991895 
" style="fill:none;stroke:#000000;stroke-linecap:round;"/>
    <path clip-path="url(#p036f7a0aa2)" d="M 338.684013 321.719087 
L 340.004284 325.991895 
L 335.793875 324.484426 
L 338.684013 321.719087 
z
" style="stroke:#000000;stroke-linecap:round;"/>
   </g>
   <g id="patch_106">
    <path clip-path="url(#p036f7a0aa2)" d="M 300.117132 296.207562 
Q 282.352652 329.492155 265.114598 361.790403 
" style="fill:none;stroke:#000000;stroke-linecap:round;"/>
    <path clip-path="url(#p036f7a0aa2)" d="M 268.762425 359.203251 
L 265.114598 361.790403 
L 265.233573 357.31985 
L 268.762425 359.203251 
z
" style="stroke:#000000;stroke-linecap:round;"/>
   </g>
   <g id="patch_107">
    <path clip-path="url(#p036f7a0aa2)" d="M 340.644239 339.187712 
Q 331.353772 348.498929 322.852992 357.018694 
" style="fill:none;stroke:#000000;stroke-linecap:round;"/>
    <path clip-path="url(#p036f7a0aa2)" d="M 327.094053 355.599749 
L 322.852992 357.018694 
L 324.262473 352.774478 
L 327.094053 355.599749 
z
" style="stroke:#000000;stroke-linecap:round;"/>
   </g>
   <g id="patch_108">
    <path clip-path="url(#p036f7a0aa2)" d="M 351.617702 340.227009 
Q 394.52114 403.603448 436.79782 466.054049 
" style="fill:none;stroke:#000000;stroke-linecap:round;"/>
    <path clip-path="url(#p036f7a0aa2)" d="M 436.211655 461.620494 
L 436.79782 466.054049 
L 432.899277 463.862848 
L 436.211655 461.620494 
z
" style="stroke:#000000;stroke-linecap:round;"/>
   </g>
   <g id="patch_109">
    <path clip-path="url(#p036f7a0aa2)" d="M 339.466134 328.387336 
Q 259.596366 277.290055 180.668391 226.795291 
" style="fill:none;stroke:#000000;stroke-linecap:round;"/>
    <path clip-path="url(#p036f7a0aa2)" d="M 182.96003 230.635655 
L 180.668391 226.795291 
L 185.115665 227.266198 
L 182.96003 230.635655 
z
" style="stroke:#000000;stroke-linecap:round;"/>
   </g>
   <g id="patch_110">
    <path clip-path="url(#p036f7a0aa2)" d="M 269.115472 369.410495 
Q 288.230427 367.178027 306.234895 365.075255 
" style="fill:none;stroke:#000000;stroke-linecap:round;"/>
    <path clip-path="url(#p036f7a0aa2)" d="M 302.029893 363.55277 
L 306.234895 365.075255 
L 302.493906 367.525765 
L 302.029893 363.55277 
z
" style="stroke:#000000;stroke-linecap:round;"/>
   </g>
   <g id="patch_111">
    <path clip-path="url(#p036f7a0aa2)" d="M 268.030477 374.706648 
Q 351.394466 422.283287 433.787428 469.305753 
" style="fill:none;stroke:#000000;stroke-linecap:round;"/>
    <path clip-path="url(#p036f7a0aa2)" d="M 431.304717 465.586056 
L 433.787428 469.305753 
L 429.322044 469.060104 
L 431.304717 465.586056 
z
" style="stroke:#000000;stroke-linecap:round;"/>
   </g>
   <g id="patch_112">
    <path clip-path="url(#p036f7a0aa2)" d="M 256.101577 362.961296 
Q 216.469797 295.968888 177.407276 229.93874 
" style="fill:none;stroke:#000000;stroke-linecap:round;"/>
    <path clip-path="url(#p036f7a0aa2)" d="M 177.722578 234.399747 
L 177.407276 229.93874 
L 181.165263 232.363102 
L 177.722578 234.399747 
z
" style="stroke:#000000;stroke-linecap:round;"/>
   </g>
   <g id="patch_113">
    <path clip-path="url(#p036f7a0aa2)" d="M 510.462934 365.389552 
Q 528.049717 366.91677 544.522658 368.347263 
" style="fill:none;stroke:#000000;stroke-linecap:round;"/>
    <path clip-path="url(#p036f7a0aa2)" d="M 540.710682 366.008708 
L 544.522658 368.347263 
L 540.364629 369.993711 
L 540.710682 366.008708 
z
" style="stroke:#000000;stroke-linecap:round;"/>
   </g>
   <g id="patch_114">
    <path clip-path="url(#p036f7a0aa2)" d="M 509.492781 360.607638 
Q 524.429236 352.745387 538.376349 345.403906 
" style="fill:none;stroke:#000000;stroke-linecap:round;"/>
    <path clip-path="url(#p036f7a0aa2)" d="M 533.905188 345.49728 
L 538.376349 345.403906 
L 535.768351 349.03686 
L 533.905188 345.49728 
z
" style="stroke:#000000;stroke-linecap:round;"/>
   </g>
   <g id="patch_115">
    <path clip-path="url(#p036f7a0aa2)" d="M 493.307726 366.182155 
Q 360.971511 390.1223 229.735472 413.863419 
" style="fill:none;stroke:#000000;stroke-linecap:round;"/>
    <path clip-path="url(#p036f7a0aa2)" d="M 234.027612 415.119416 
L 229.735472 413.863419 
L 233.315554 411.183305 
L 234.027612 415.119416 
z
" style="stroke:#000000;stroke-linecap:round;"/>
   </g>
   <g id="patch_116">
    <path clip-path="url(#p036f7a0aa2)" d="M 510.005734 361.773275 
Q 610.663197 326.469057 710.265637 291.534874 
" style="fill:none;stroke:#000000;stroke-linecap:round;"/>
    <path clip-path="url(#p036f7a0aa2)" d="M 705.829133 290.971468 
L 710.265637 291.534874 
L 707.15301 294.746035 
L 705.829133 290.971468 
z
" style="stroke:#000000;stroke-linecap:round;"/>
   </g>
   <g id="patch_117">
    <path clip-path="url(#p036f7a0aa2)" d="M 497.24342 356.136781 
Q 521.533671 361.698725 544.734093 367.011122 
" style="fill:none;stroke:#000000;stroke-linecap:round;"/>
    <path clip-path="url(#p036f7a0aa2)" d="M 541.281408 364.16877 
L 544.734093 367.011122 
L 540.3886 368.067859 
L 541.281408 364.16877 
z
" style="stroke:#000000;stroke-linecap:round;"/>
   </g>
   <g id="patch_118">
    <path clip-path="url(#p036f7a0aa2)" d="M 497.24158 352.267786 
Q 517.916036 347.526189 537.500749 343.034519 
" style="fill:none;stroke:#000000;stroke-linecap:round;"/>
    <path clip-path="url(#p036f7a0aa2)" d="M 533.154888 341.979298 
L 537.500749 343.034519 
L 534.049056 345.878075 
L 533.154888 341.979298 
z
" style="stroke:#000000;stroke-linecap:round;"/>
   </g>
   <g id="patch_119">
    <path clip-path="url(#p036f7a0aa2)" d="M 480.35921 356.13271 
Q 354.458043 384.903579 229.646813 413.425376 
" style="fill:none;stroke:#000000;stroke-linecap:round;"/>
    <path clip-path="url(#p036f7a0aa2)" d="M 233.991844 414.484008 
L 229.646813 413.425376 
L 233.100737 410.58453 
L 233.991844 414.484008 
z
" style="stroke:#000000;stroke-linecap:round;"/>
   </g>
   <g id="patch_120">
    <path clip-path="url(#p036f7a0aa2)" d="M 497.125926 351.825287 
Q 604.145076 321.251557 710.089201 290.984946 
" style="fill:none;stroke:#000000;stroke-linecap:round;"/>
    <path clip-path="url(#p036f7a0aa2)" d="M 705.693686 290.160662 
L 710.089201 290.984946 
L 706.792465 294.006788 
L 705.693686 290.160662 
z
" style="stroke:#000000;stroke-linecap:round;"/>
   </g>
   <g id="patch_121">
    <path clip-path="url(#p036f7a0aa2)" d="M 545.60408 369.024254 
Q 480.943979 367.763137 417.4017 366.523822 
" style="fill:none;stroke:#000000;stroke-linecap:round;"/>
    <path clip-path="url(#p036f7a0aa2)" d="M 421.36194 368.601442 
L 417.4017 366.523822 
L 421.43994 364.602203 
L 421.36194 368.601442 
z
" style="stroke:#000000;stroke-linecap:round;"/>
   </g>
   <g id="patch_122">
    <path clip-path="url(#p036f7a0aa2)" d="M 546.411261 365.535702 
Q 523.35142 354.794775 501.305065 344.525914 
" style="fill:none;stroke:#000000;stroke-linecap:round;"/>
    <path clip-path="url(#p036f7a0aa2)" d="M 504.086564 348.027808 
L 501.305065 344.525914 
L 505.77548 344.401851 
L 504.086564 348.027808 
z
" style="stroke:#000000;stroke-linecap:round;"/>
   </g>
   <g id="patch_123">
    <path clip-path="url(#p036f7a0aa2)" d="M 545.725866 370.629854 
Q 522.945045 374.46341 501.266756 378.111432 
" style="fill:none;stroke:#000000;stroke-linecap:round;"/>
    <path clip-path="url(#p036f7a0aa2)" d="M 505.543188 379.419915 
L 501.266756 378.111432 
L 504.879402 375.475376 
L 505.543188 379.419915 
z
" style="stroke:#000000;stroke-linecap:round;"/>
   </g>
   <g id="patch_124">
    <path clip-path="url(#p036f7a0aa2)" d="M 538.507731 342.406949 
Q 477.324854 353.591292 417.241785 364.574588 
" style="fill:none;stroke:#000000;stroke-linecap:round;"/>
    <path clip-path="url(#p036f7a0aa2)" d="M 421.536226 365.822698 
L 417.241785 364.574588 
L 420.816938 361.887902 
L 421.536226 365.822698 
z
" style="stroke:#000000;stroke-linecap:round;"/>
   </g>
   <g id="patch_125">
    <path clip-path="url(#p036f7a0aa2)" d="M 538.370023 340.777563 
Q 519.735556 340.623396 502.219083 340.478478 
" style="fill:none;stroke:#000000;stroke-linecap:round;"/>
    <path clip-path="url(#p036f7a0aa2)" d="M 506.202401 342.511502 
L 502.219083 340.478478 
L 506.235492 338.511639 
L 506.202401 342.511502 
z
" style="stroke:#000000;stroke-linecap:round;"/>
   </g>
   <g id="patch_126">
    <path clip-path="url(#p036f7a0aa2)" d="M 539.937517 345.826171 
Q 519.322579 360.293747 499.622795 374.119067 
" style="fill:none;stroke:#000000;stroke-linecap:round;"/>
    <path clip-path="url(#p036f7a0aa2)" d="M 504.045853 373.45834 
L 499.622795 374.119067 
L 501.748049 370.184185 
L 504.045853 373.45834 
z
" style="stroke:#000000;stroke-linecap:round;"/>
   </g>
   <g id="PathCollection_1">
    <defs>
     <path d="M 0 8.660254 
C 2.296726 8.660254 4.499694 7.747755 6.123724 6.123724 
C 7.747755 4.499694 8.660254 2.296726 8.660254 -0 
C 8.660254 -2.296726 7.747755 -4.499694 6.123724 -6.123724 
C 4.499694 -7.747755 2.296726 -8.660254 0 -8.660254 
C -2.296726 -8.660254 -4.499694 -7.747755 -6.123724 -6.123724 
C -7.747755 -4.499694 -8.660254 -2.296726 -8.660254 0 
C -8.660254 2.296726 -7.747755 4.499694 -6.123724 6.123724 
C -4.499694 7.747755 -2.296726 8.660254 0 8.660254 
z
" id="C0_0_ef7f7079e8"/>
    </defs>
    <g clip-path="url(#p036f7a0aa2)">
     <use style="fill:#ff0000;stroke:#ff0000;" x="289.871878" xlink:href="#C0_0_ef7f7079e8" y="284.987385"/>
    </g>
    <g clip-path="url(#p036f7a0aa2)">
     <use style="fill:#ff0000;stroke:#ff0000;" x="448.833654" xlink:href="#C0_0_ef7f7079e8" y="206.162844"/>
    </g>
    <g clip-path="url(#p036f7a0aa2)">
     <use style="fill:#ff0000;stroke:#ff0000;" x="398.416817" xlink:href="#C0_0_ef7f7079e8" y="436.208977"/>
    </g>
    <g clip-path="url(#p036f7a0aa2)">
     <use style="fill:#ff0000;stroke:#ff0000;" x="359.082705" xlink:href="#C0_0_ef7f7079e8" y="348.991461"/>
    </g>
    <g clip-path="url(#p036f7a0aa2)">
     <use style="fill:#ff0000;stroke:#ff0000;" x="509.319014" xlink:href="#C0_0_ef7f7079e8" y="473.320796"/>
    </g>
    <g clip-path="url(#p036f7a0aa2)">
     <use style="fill:#ff0000;stroke:#ff0000;" x="360.701824" xlink:href="#C0_0_ef7f7079e8" y="371.975097"/>
    </g>
    <g clip-path="url(#p036f7a0aa2)">
     <use style="fill:#ff0000;stroke:#ff0000;" x="317.606073" xlink:href="#C0_0_ef7f7079e8" y="463.384802"/>
    </g>
    <g clip-path="url(#p036f7a0aa2)">
     <use style="fill:#ff0000;stroke:#ff0000;" x="285.592307" xlink:href="#C0_0_ef7f7079e8" y="198.768553"/>
    </g>
    <g clip-path="url(#p036f7a0aa2)">
     <use style="fill:#ff0000;stroke:#ff0000;" x="259.301165" xlink:href="#C0_0_ef7f7079e8" y="327.504565"/>
    </g>
    <g clip-path="url(#p036f7a0aa2)">
     <use style="fill:#ff0000;stroke:#ff0000;" x="253.230103" xlink:href="#C0_0_ef7f7079e8" y="302.56636"/>
    </g>
    <g clip-path="url(#p036f7a0aa2)">
     <use style="fill:#ff0000;stroke:#ff0000;" x="315.946039" xlink:href="#C0_0_ef7f7079e8" y="363.941074"/>
    </g>
    <g clip-path="url(#p036f7a0aa2)">
     <use style="fill:#008000;stroke:#008000;" x="491.62121" xlink:href="#C0_0_ef7f7079e8" y="379.734584"/>
    </g>
    <g clip-path="url(#p036f7a0aa2)">
     <use style="fill:#008000;stroke:#008000;" x="543.203515" xlink:href="#C0_0_ef7f7079e8" y="391.560688"/>
    </g>
    <g clip-path="url(#p036f7a0aa2)">
     <use style="fill:#ff0000;stroke:#ff0000;" x="407.622108" xlink:href="#C0_0_ef7f7079e8" y="366.333083"/>
    </g>
    <g clip-path="url(#p036f7a0aa2)">
     <use style="fill:#ff0000;stroke:#ff0000;" x="269.700181" xlink:href="#C0_0_ef7f7079e8" y="341.193296"/>
    </g>
    <g clip-path="url(#p036f7a0aa2)">
     <use style="fill:#ff0000;stroke:#ff0000;" x="492.441912" xlink:href="#C0_0_ef7f7079e8" y="340.39759"/>
    </g>
    <g clip-path="url(#p036f7a0aa2)">
     <use style="fill:#ff0000;stroke:#ff0000;" x="442.280317" xlink:href="#C0_0_ef7f7079e8" y="474.152727"/>
    </g>
    <g clip-path="url(#p036f7a0aa2)">
     <use style="fill:#ff0000;stroke:#ff0000;" x="172.429449" xlink:href="#C0_0_ef7f7079e8" y="221.524366"/>
    </g>
    <g clip-path="url(#p036f7a0aa2)">
     <use style="fill:#ff0000;stroke:#ff0000;" x="174.709045" xlink:href="#C0_0_ef7f7079e8" y="332.670634"/>
    </g>
    <g clip-path="url(#p036f7a0aa2)">
     <use style="fill:#ff0000;stroke:#ff0000;" x="382.145689" xlink:href="#C0_0_ef7f7079e8" y="302.90978"/>
    </g>
    <g clip-path="url(#p036f7a0aa2)">
     <use style="fill:#ff0000;stroke:#ff0000;" x="394.094542" xlink:href="#C0_0_ef7f7079e8" y="304.998713"/>
    </g>
    <g clip-path="url(#p036f7a0aa2)">
     <use style="fill:#ff0000;stroke:#ff0000;" x="501.481135" xlink:href="#C0_0_ef7f7079e8" y="470.58417"/>
    </g>
    <g clip-path="url(#p036f7a0aa2)">
     <use style="fill:#ff0000;stroke:#ff0000;" x="166.105785" xlink:href="#C0_0_ef7f7079e8" y="268.580363"/>
    </g>
    <g clip-path="url(#p036f7a0aa2)">
     <use style="fill:#ff0000;stroke:#ff0000;" x="491.138114" xlink:href="#C0_0_ef7f7079e8" y="107.607273"/>
    </g>
    <g clip-path="url(#p036f7a0aa2)">
     <use style="fill:#ff0000;stroke:#ff0000;" x="418.515661" xlink:href="#C0_0_ef7f7079e8" y="273.969421"/>
    </g>
    <g clip-path="url(#p036f7a0aa2)">
     <use style="fill:#ff0000;stroke:#ff0000;" x="400.392564" xlink:href="#C0_0_ef7f7079e8" y="270.898831"/>
    </g>
    <g clip-path="url(#p036f7a0aa2)">
     <use style="fill:#ff0000;stroke:#ff0000;" x="382.119747" xlink:href="#C0_0_ef7f7079e8" y="340.27753"/>
    </g>
    <g clip-path="url(#p036f7a0aa2)">
     <use style="fill:#ff0000;stroke:#ff0000;" x="373.778726" xlink:href="#C0_0_ef7f7079e8" y="328.992387"/>
    </g>
    <g clip-path="url(#p036f7a0aa2)">
     <use style="fill:#008000;stroke:#008000;" x="369.953259" xlink:href="#C0_0_ef7f7079e8" y="360.195101"/>
    </g>
    <g clip-path="url(#p036f7a0aa2)">
     <use style="fill:#ff0000;stroke:#ff0000;" x="395.091669" xlink:href="#C0_0_ef7f7079e8" y="355.384511"/>
    </g>
    <g clip-path="url(#p036f7a0aa2)">
     <use style="fill:#ff0000;stroke:#ff0000;" x="308.843337" xlink:href="#C0_0_ef7f7079e8" y="364.11715"/>
    </g>
    <g clip-path="url(#p036f7a0aa2)">
     <use style="fill:#ff0000;stroke:#ff0000;" x="304.195162" xlink:href="#C0_0_ef7f7079e8" y="288.566721"/>
    </g>
    <g clip-path="url(#p036f7a0aa2)">
     <use style="fill:#ff0000;stroke:#ff0000;" x="346.762833" xlink:href="#C0_0_ef7f7079e8" y="333.055454"/>
    </g>
    <g clip-path="url(#p036f7a0aa2)">
     <use style="fill:#ff0000;stroke:#ff0000;" x="260.511316" xlink:href="#C0_0_ef7f7079e8" y="370.415389"/>
    </g>
    <g clip-path="url(#p036f7a0aa2)">
     <use style="fill:#ff0000;stroke:#ff0000;" x="501.832113" xlink:href="#C0_0_ef7f7079e8" y="364.64006"/>
    </g>
    <g clip-path="url(#p036f7a0aa2)">
     <use style="fill:#ff0000;stroke:#ff0000;" x="488.800888" xlink:href="#C0_0_ef7f7079e8" y="354.203623"/>
    </g>
    <g clip-path="url(#p036f7a0aa2)">
     <use style="fill:#ff0000;stroke:#ff0000;" x="554.263474" xlink:href="#C0_0_ef7f7079e8" y="369.193145"/>
    </g>
    <g clip-path="url(#p036f7a0aa2)">
     <use style="fill:#ff0000;stroke:#ff0000;" x="547.02923" xlink:href="#C0_0_ef7f7079e8" y="340.849203"/>
    </g>
    <g clip-path="url(#p036f7a0aa2)">
     <use style="fill:#ff0000;stroke:#ff0000;" x="220.110384" xlink:href="#C0_0_ef7f7079e8" y="415.604635"/>
    </g>
    <g clip-path="url(#p036f7a0aa2)">
     <use style="fill:#ff0000;stroke:#ff0000;" x="719.494215" xlink:href="#C0_0_ef7f7079e8" y="288.298078"/>
    </g>
   </g>
   <g id="text_1">
    <g clip-path="url(#p036f7a0aa2)">
     <!-- IFNG -->
     <g transform="translate(275.513128 288.298635)scale(0.12 -0.12)">
      <defs>
       <path d="M 9.8125 72.90625 
L 19.671875 72.90625 
L 19.671875 0 
L 9.8125 0 
z
" id="DejaVuSans-73"/>
       <path d="M 9.8125 72.90625 
L 51.703125 72.90625 
L 51.703125 64.59375 
L 19.671875 64.59375 
L 19.671875 43.109375 
L 48.578125 43.109375 
L 48.578125 34.8125 
L 19.671875 34.8125 
L 19.671875 0 
L 9.8125 0 
z
" id="DejaVuSans-70"/>
       <path d="M 9.8125 72.90625 
L 23.09375 72.90625 
L 55.421875 11.921875 
L 55.421875 72.90625 
L 64.984375 72.90625 
L 64.984375 0 
L 51.703125 0 
L 19.390625 60.984375 
L 19.390625 0 
L 9.8125 0 
z
" id="DejaVuSans-78"/>
       <path d="M 59.515625 10.40625 
L 59.515625 29.984375 
L 43.40625 29.984375 
L 43.40625 38.09375 
L 69.28125 38.09375 
L 69.28125 6.78125 
Q 63.578125 2.734375 56.6875 0.65625 
Q 49.8125 -1.421875 42 -1.421875 
Q 24.90625 -1.421875 15.25 8.5625 
Q 5.609375 18.5625 5.609375 36.375 
Q 5.609375 54.25 15.25 64.234375 
Q 24.90625 74.21875 42 74.21875 
Q 49.125 74.21875 55.546875 72.453125 
Q 61.96875 70.703125 67.390625 67.28125 
L 67.390625 56.78125 
Q 61.921875 61.421875 55.765625 63.765625 
Q 49.609375 66.109375 42.828125 66.109375 
Q 29.4375 66.109375 22.71875 58.640625 
Q 16.015625 51.171875 16.015625 36.375 
Q 16.015625 21.625 22.71875 14.15625 
Q 29.4375 6.6875 42.828125 6.6875 
Q 48.046875 6.6875 52.140625 7.59375 
Q 56.25 8.5 59.515625 10.40625 
z
" id="DejaVuSans-71"/>
      </defs>
      <use xlink:href="#DejaVuSans-73"/>
      <use x="29.492188" xlink:href="#DejaVuSans-70"/>
      <use x="87.011719" xlink:href="#DejaVuSans-78"/>
      <use x="161.816406" xlink:href="#DejaVuSans-71"/>
     </g>
    </g>
   </g>
   <g id="text_2">
    <g clip-path="url(#p036f7a0aa2)">
     <!-- PRKCQ -->
     <g transform="translate(428.529279 209.474094)scale(0.12 -0.12)">
      <defs>
       <path d="M 19.671875 64.796875 
L 19.671875 37.40625 
L 32.078125 37.40625 
Q 38.96875 37.40625 42.71875 40.96875 
Q 46.484375 44.53125 46.484375 51.125 
Q 46.484375 57.671875 42.71875 61.234375 
Q 38.96875 64.796875 32.078125 64.796875 
z
M 9.8125 72.90625 
L 32.078125 72.90625 
Q 44.34375 72.90625 50.609375 67.359375 
Q 56.890625 61.8125 56.890625 51.125 
Q 56.890625 40.328125 50.609375 34.8125 
Q 44.34375 29.296875 32.078125 29.296875 
L 19.671875 29.296875 
L 19.671875 0 
L 9.8125 0 
z
" id="DejaVuSans-80"/>
       <path d="M 44.390625 34.1875 
Q 47.5625 33.109375 50.5625 29.59375 
Q 53.5625 26.078125 56.59375 19.921875 
L 66.609375 0 
L 56 0 
L 46.6875 18.703125 
Q 43.0625 26.03125 39.671875 28.421875 
Q 36.28125 30.8125 30.421875 30.8125 
L 19.671875 30.8125 
L 19.671875 0 
L 9.8125 0 
L 9.8125 72.90625 
L 32.078125 72.90625 
Q 44.578125 72.90625 50.734375 67.671875 
Q 56.890625 62.453125 56.890625 51.90625 
Q 56.890625 45.015625 53.6875 40.46875 
Q 50.484375 35.9375 44.390625 34.1875 
z
M 19.671875 64.796875 
L 19.671875 38.921875 
L 32.078125 38.921875 
Q 39.203125 38.921875 42.84375 42.21875 
Q 46.484375 45.515625 46.484375 51.90625 
Q 46.484375 58.296875 42.84375 61.546875 
Q 39.203125 64.796875 32.078125 64.796875 
z
" id="DejaVuSans-82"/>
       <path d="M 9.8125 72.90625 
L 19.671875 72.90625 
L 19.671875 42.09375 
L 52.390625 72.90625 
L 65.09375 72.90625 
L 28.90625 38.921875 
L 67.671875 0 
L 54.6875 0 
L 19.671875 35.109375 
L 19.671875 0 
L 9.8125 0 
z
" id="DejaVuSans-75"/>
       <path d="M 64.40625 67.28125 
L 64.40625 56.890625 
Q 59.421875 61.53125 53.78125 63.8125 
Q 48.140625 66.109375 41.796875 66.109375 
Q 29.296875 66.109375 22.65625 58.46875 
Q 16.015625 50.828125 16.015625 36.375 
Q 16.015625 21.96875 22.65625 14.328125 
Q 29.296875 6.6875 41.796875 6.6875 
Q 48.140625 6.6875 53.78125 8.984375 
Q 59.421875 11.28125 64.40625 15.921875 
L 64.40625 5.609375 
Q 59.234375 2.09375 53.4375 0.328125 
Q 47.65625 -1.421875 41.21875 -1.421875 
Q 24.65625 -1.421875 15.125 8.703125 
Q 5.609375 18.84375 5.609375 36.375 
Q 5.609375 53.953125 15.125 64.078125 
Q 24.65625 74.21875 41.21875 74.21875 
Q 47.75 74.21875 53.53125 72.484375 
Q 59.328125 70.75 64.40625 67.28125 
z
" id="DejaVuSans-67"/>
       <path d="M 39.40625 66.21875 
Q 28.65625 66.21875 22.328125 58.203125 
Q 16.015625 50.203125 16.015625 36.375 
Q 16.015625 22.609375 22.328125 14.59375 
Q 28.65625 6.59375 39.40625 6.59375 
Q 50.140625 6.59375 56.421875 14.59375 
Q 62.703125 22.609375 62.703125 36.375 
Q 62.703125 50.203125 56.421875 58.203125 
Q 50.140625 66.21875 39.40625 66.21875 
z
M 53.21875 1.3125 
L 66.21875 -12.890625 
L 54.296875 -12.890625 
L 43.5 -1.21875 
Q 41.890625 -1.3125 41.03125 -1.359375 
Q 40.1875 -1.421875 39.40625 -1.421875 
Q 24.03125 -1.421875 14.8125 8.859375 
Q 5.609375 19.140625 5.609375 36.375 
Q 5.609375 53.65625 14.8125 63.9375 
Q 24.03125 74.21875 39.40625 74.21875 
Q 54.734375 74.21875 63.90625 63.9375 
Q 73.09375 53.65625 73.09375 36.375 
Q 73.09375 23.6875 67.984375 14.640625 
Q 62.890625 5.609375 53.21875 1.3125 
z
" id="DejaVuSans-81"/>
      </defs>
      <use xlink:href="#DejaVuSans-80"/>
      <use x="60.302734" xlink:href="#DejaVuSans-82"/>
      <use x="129.785156" xlink:href="#DejaVuSans-75"/>
      <use x="189.861328" xlink:href="#DejaVuSans-67"/>
      <use x="259.685547" xlink:href="#DejaVuSans-81"/>
     </g>
    </g>
   </g>
   <g id="text_3">
    <g clip-path="url(#p036f7a0aa2)">
     <!-- ZAP70 -->
     <g transform="translate(378.94963 439.520227)scale(0.12 -0.12)">
      <defs>
       <path d="M 5.609375 72.90625 
L 62.890625 72.90625 
L 62.890625 65.375 
L 16.796875 8.296875 
L 64.015625 8.296875 
L 64.015625 0 
L 4.5 0 
L 4.5 7.515625 
L 50.59375 64.59375 
L 5.609375 64.59375 
z
" id="DejaVuSans-90"/>
       <path d="M 34.1875 63.1875 
L 20.796875 26.90625 
L 47.609375 26.90625 
z
M 28.609375 72.90625 
L 39.796875 72.90625 
L 67.578125 0 
L 57.328125 0 
L 50.6875 18.703125 
L 17.828125 18.703125 
L 11.1875 0 
L 0.78125 0 
z
" id="DejaVuSans-65"/>
       <path d="M 8.203125 72.90625 
L 55.078125 72.90625 
L 55.078125 68.703125 
L 28.609375 0 
L 18.3125 0 
L 43.21875 64.59375 
L 8.203125 64.59375 
z
" id="DejaVuSans-55"/>
       <path d="M 31.78125 66.40625 
Q 24.171875 66.40625 20.328125 58.90625 
Q 16.5 51.421875 16.5 36.375 
Q 16.5 21.390625 20.328125 13.890625 
Q 24.171875 6.390625 31.78125 6.390625 
Q 39.453125 6.390625 43.28125 13.890625 
Q 47.125 21.390625 47.125 36.375 
Q 47.125 51.421875 43.28125 58.90625 
Q 39.453125 66.40625 31.78125 66.40625 
z
M 31.78125 74.21875 
Q 44.046875 74.21875 50.515625 64.515625 
Q 56.984375 54.828125 56.984375 36.375 
Q 56.984375 17.96875 50.515625 8.265625 
Q 44.046875 -1.421875 31.78125 -1.421875 
Q 19.53125 -1.421875 13.0625 8.265625 
Q 6.59375 17.96875 6.59375 36.375 
Q 6.59375 54.828125 13.0625 64.515625 
Q 19.53125 74.21875 31.78125 74.21875 
z
" id="DejaVuSans-48"/>
      </defs>
      <use xlink:href="#DejaVuSans-90"/>
      <use x="68.505859" xlink:href="#DejaVuSans-65"/>
      <use x="136.914062" xlink:href="#DejaVuSans-80"/>
      <use x="197.216797" xlink:href="#DejaVuSans-55"/>
      <use x="260.839844" xlink:href="#DejaVuSans-48"/>
     </g>
    </g>
   </g>
   <g id="text_4">
    <g clip-path="url(#p036f7a0aa2)">
     <!-- JUN -->
     <g transform="translate(348.432705 352.302711)scale(0.12 -0.12)">
      <defs>
       <path d="M 9.8125 72.90625 
L 19.671875 72.90625 
L 19.671875 5.078125 
Q 19.671875 -8.109375 14.671875 -14.0625 
Q 9.671875 -20.015625 -1.421875 -20.015625 
L -5.171875 -20.015625 
L -5.171875 -11.71875 
L -2.09375 -11.71875 
Q 4.4375 -11.71875 7.125 -8.046875 
Q 9.8125 -4.390625 9.8125 5.078125 
z
" id="DejaVuSans-74"/>
       <path d="M 8.6875 72.90625 
L 18.609375 72.90625 
L 18.609375 28.609375 
Q 18.609375 16.890625 22.84375 11.734375 
Q 27.09375 6.59375 36.625 6.59375 
Q 46.09375 6.59375 50.34375 11.734375 
Q 54.59375 16.890625 54.59375 28.609375 
L 54.59375 72.90625 
L 64.5 72.90625 
L 64.5 27.390625 
Q 64.5 13.140625 57.4375 5.859375 
Q 50.390625 -1.421875 36.625 -1.421875 
Q 22.796875 -1.421875 15.734375 5.859375 
Q 8.6875 13.140625 8.6875 27.390625 
z
" id="DejaVuSans-85"/>
      </defs>
      <use xlink:href="#DejaVuSans-74"/>
      <use x="29.492188" xlink:href="#DejaVuSans-85"/>
      <use x="102.685547" xlink:href="#DejaVuSans-78"/>
     </g>
    </g>
   </g>
   <g id="text_5">
    <g clip-path="url(#p036f7a0aa2)">
     <!-- LAT -->
     <g transform="translate(498.536826 476.632046)scale(0.12 -0.12)">
      <defs>
       <path d="M 9.8125 72.90625 
L 19.671875 72.90625 
L 19.671875 8.296875 
L 55.171875 8.296875 
L 55.171875 0 
L 9.8125 0 
z
" id="DejaVuSans-76"/>
       <path d="M -0.296875 72.90625 
L 61.375 72.90625 
L 61.375 64.59375 
L 35.5 64.59375 
L 35.5 0 
L 25.59375 0 
L 25.59375 64.59375 
L -0.296875 64.59375 
z
" id="DejaVuSans-84"/>
      </defs>
      <use xlink:href="#DejaVuSans-76"/>
      <use x="57.962891" xlink:href="#DejaVuSans-65"/>
      <use x="118.621094" xlink:href="#DejaVuSans-84"/>
     </g>
    </g>
   </g>
   <g id="text_6">
    <g clip-path="url(#p036f7a0aa2)">
     <!-- FOS -->
     <g transform="translate(348.718699 375.286347)scale(0.12 -0.12)">
      <defs>
       <path d="M 39.40625 66.21875 
Q 28.65625 66.21875 22.328125 58.203125 
Q 16.015625 50.203125 16.015625 36.375 
Q 16.015625 22.609375 22.328125 14.59375 
Q 28.65625 6.59375 39.40625 6.59375 
Q 50.140625 6.59375 56.421875 14.59375 
Q 62.703125 22.609375 62.703125 36.375 
Q 62.703125 50.203125 56.421875 58.203125 
Q 50.140625 66.21875 39.40625 66.21875 
z
M 39.40625 74.21875 
Q 54.734375 74.21875 63.90625 63.9375 
Q 73.09375 53.65625 73.09375 36.375 
Q 73.09375 19.140625 63.90625 8.859375 
Q 54.734375 -1.421875 39.40625 -1.421875 
Q 24.03125 -1.421875 14.8125 8.828125 
Q 5.609375 19.09375 5.609375 36.375 
Q 5.609375 53.65625 14.8125 63.9375 
Q 24.03125 74.21875 39.40625 74.21875 
z
" id="DejaVuSans-79"/>
       <path d="M 53.515625 70.515625 
L 53.515625 60.890625 
Q 47.90625 63.578125 42.921875 64.890625 
Q 37.9375 66.21875 33.296875 66.21875 
Q 25.25 66.21875 20.875 63.09375 
Q 16.5 59.96875 16.5 54.203125 
Q 16.5 49.359375 19.40625 46.890625 
Q 22.3125 44.4375 30.421875 42.921875 
L 36.375 41.703125 
Q 47.40625 39.59375 52.65625 34.296875 
Q 57.90625 29 57.90625 20.125 
Q 57.90625 9.515625 50.796875 4.046875 
Q 43.703125 -1.421875 29.984375 -1.421875 
Q 24.8125 -1.421875 18.96875 -0.25 
Q 13.140625 0.921875 6.890625 3.21875 
L 6.890625 13.375 
Q 12.890625 10.015625 18.65625 8.296875 
Q 24.421875 6.59375 29.984375 6.59375 
Q 38.421875 6.59375 43.015625 9.90625 
Q 47.609375 13.234375 47.609375 19.390625 
Q 47.609375 24.75 44.3125 27.78125 
Q 41.015625 30.8125 33.5 32.328125 
L 27.484375 33.5 
Q 16.453125 35.6875 11.515625 40.375 
Q 6.59375 45.0625 6.59375 53.421875 
Q 6.59375 63.09375 13.40625 68.65625 
Q 20.21875 74.21875 32.171875 74.21875 
Q 37.3125 74.21875 42.625 73.28125 
Q 47.953125 72.359375 53.515625 70.515625 
z
" id="DejaVuSans-83"/>
      </defs>
      <use xlink:href="#DejaVuSans-70"/>
      <use x="57.519531" xlink:href="#DejaVuSans-79"/>
      <use x="136.230469" xlink:href="#DejaVuSans-83"/>
     </g>
    </g>
   </g>
   <g id="text_7">
    <g clip-path="url(#p036f7a0aa2)">
     <!-- PLCG1 -->
     <g transform="translate(297.988886 466.696052)scale(0.12 -0.12)">
      <defs>
       <path d="M 12.40625 8.296875 
L 28.515625 8.296875 
L 28.515625 63.921875 
L 10.984375 60.40625 
L 10.984375 69.390625 
L 28.421875 72.90625 
L 38.28125 72.90625 
L 38.28125 8.296875 
L 54.390625 8.296875 
L 54.390625 0 
L 12.40625 0 
z
" id="DejaVuSans-49"/>
      </defs>
      <use xlink:href="#DejaVuSans-80"/>
      <use x="60.302734" xlink:href="#DejaVuSans-76"/>
      <use x="116.015625" xlink:href="#DejaVuSans-67"/>
      <use x="185.839844" xlink:href="#DejaVuSans-71"/>
      <use x="263.330078" xlink:href="#DejaVuSans-49"/>
     </g>
    </g>
   </g>
   <g id="text_8">
    <g clip-path="url(#p036f7a0aa2)">
     <!-- CD4 -->
     <g transform="translate(272.965119 202.079803)scale(0.12 -0.12)">
      <defs>
       <path d="M 19.671875 64.796875 
L 19.671875 8.109375 
L 31.59375 8.109375 
Q 46.6875 8.109375 53.6875 14.9375 
Q 60.6875 21.78125 60.6875 36.53125 
Q 60.6875 51.171875 53.6875 57.984375 
Q 46.6875 64.796875 31.59375 64.796875 
z
M 9.8125 72.90625 
L 30.078125 72.90625 
Q 51.265625 72.90625 61.171875 64.09375 
Q 71.09375 55.28125 71.09375 36.53125 
Q 71.09375 17.671875 61.125 8.828125 
Q 51.171875 0 30.078125 0 
L 9.8125 0 
z
" id="DejaVuSans-68"/>
       <path d="M 37.796875 64.3125 
L 12.890625 25.390625 
L 37.796875 25.390625 
z
M 35.203125 72.90625 
L 47.609375 72.90625 
L 47.609375 25.390625 
L 58.015625 25.390625 
L 58.015625 17.1875 
L 47.609375 17.1875 
L 47.609375 0 
L 37.796875 0 
L 37.796875 17.1875 
L 4.890625 17.1875 
L 4.890625 26.703125 
z
" id="DejaVuSans-52"/>
      </defs>
      <use xlink:href="#DejaVuSans-67"/>
      <use x="69.824219" xlink:href="#DejaVuSans-68"/>
      <use x="146.826172" xlink:href="#DejaVuSans-52"/>
     </g>
    </g>
   </g>
   <g id="text_9">
    <g clip-path="url(#p036f7a0aa2)">
     <!-- LCK -->
     <g transform="translate(247.833665 330.815815)scale(0.12 -0.12)">
      <use xlink:href="#DejaVuSans-76"/>
      <use x="55.712891" xlink:href="#DejaVuSans-67"/>
      <use x="125.537109" xlink:href="#DejaVuSans-75"/>
     </g>
    </g>
   </g>
   <g id="text_10">
    <g clip-path="url(#p036f7a0aa2)">
     <!-- STAT1 -->
     <g transform="translate(235.099791 305.87761)scale(0.12 -0.12)">
      <use xlink:href="#DejaVuSans-83"/>
      <use x="63.476562" xlink:href="#DejaVuSans-84"/>
      <use x="116.810547" xlink:href="#DejaVuSans-65"/>
      <use x="177.46875" xlink:href="#DejaVuSans-84"/>
      <use x="238.552734" xlink:href="#DejaVuSans-49"/>
     </g>
    </g>
   </g>
   <g id="text_11">
    <g clip-path="url(#p036f7a0aa2)">
     <!-- STAT4 -->
     <g transform="translate(297.815726 367.252324)scale(0.12 -0.12)">
      <use xlink:href="#DejaVuSans-83"/>
      <use x="63.476562" xlink:href="#DejaVuSans-84"/>
      <use x="116.810547" xlink:href="#DejaVuSans-65"/>
      <use x="177.46875" xlink:href="#DejaVuSans-84"/>
      <use x="238.552734" xlink:href="#DejaVuSans-52"/>
     </g>
    </g>
   </g>
   <g id="text_12">
    <g clip-path="url(#p036f7a0aa2)">
     <!-- IL4R -->
     <g transform="translate(478.521522 383.045834)scale(0.12 -0.12)">
      <use xlink:href="#DejaVuSans-73"/>
      <use x="29.492188" xlink:href="#DejaVuSans-76"/>
      <use x="85.205078" xlink:href="#DejaVuSans-52"/>
      <use x="148.828125" xlink:href="#DejaVuSans-82"/>
     </g>
    </g>
   </g>
   <g id="text_13">
    <g clip-path="url(#p036f7a0aa2)">
     <!-- STAT6 -->
     <g transform="translate(525.073203 394.871938)scale(0.12 -0.12)">
      <defs>
       <path d="M 33.015625 40.375 
Q 26.375 40.375 22.484375 35.828125 
Q 18.609375 31.296875 18.609375 23.390625 
Q 18.609375 15.53125 22.484375 10.953125 
Q 26.375 6.390625 33.015625 6.390625 
Q 39.65625 6.390625 43.53125 10.953125 
Q 47.40625 15.53125 47.40625 23.390625 
Q 47.40625 31.296875 43.53125 35.828125 
Q 39.65625 40.375 33.015625 40.375 
z
M 52.59375 71.296875 
L 52.59375 62.3125 
Q 48.875 64.0625 45.09375 64.984375 
Q 41.3125 65.921875 37.59375 65.921875 
Q 27.828125 65.921875 22.671875 59.328125 
Q 17.53125 52.734375 16.796875 39.40625 
Q 19.671875 43.65625 24.015625 45.921875 
Q 28.375 48.1875 33.59375 48.1875 
Q 44.578125 48.1875 50.953125 41.515625 
Q 57.328125 34.859375 57.328125 23.390625 
Q 57.328125 12.15625 50.6875 5.359375 
Q 44.046875 -1.421875 33.015625 -1.421875 
Q 20.359375 -1.421875 13.671875 8.265625 
Q 6.984375 17.96875 6.984375 36.375 
Q 6.984375 53.65625 15.1875 63.9375 
Q 23.390625 74.21875 37.203125 74.21875 
Q 40.921875 74.21875 44.703125 73.484375 
Q 48.484375 72.75 52.59375 71.296875 
z
" id="DejaVuSans-54"/>
      </defs>
      <use xlink:href="#DejaVuSans-83"/>
      <use x="63.476562" xlink:href="#DejaVuSans-84"/>
      <use x="116.810547" xlink:href="#DejaVuSans-65"/>
      <use x="177.46875" xlink:href="#DejaVuSans-84"/>
      <use x="238.552734" xlink:href="#DejaVuSans-54"/>
     </g>
    </g>
   </g>
   <g id="text_14">
    <g clip-path="url(#p036f7a0aa2)">
     <!-- GATA3 -->
     <g transform="translate(388.212108 369.644333)scale(0.12 -0.12)">
      <defs>
       <path d="M 40.578125 39.3125 
Q 47.65625 37.796875 51.625 33 
Q 55.609375 28.21875 55.609375 21.1875 
Q 55.609375 10.40625 48.1875 4.484375 
Q 40.765625 -1.421875 27.09375 -1.421875 
Q 22.515625 -1.421875 17.65625 -0.515625 
Q 12.796875 0.390625 7.625 2.203125 
L 7.625 11.71875 
Q 11.71875 9.328125 16.59375 8.109375 
Q 21.484375 6.890625 26.8125 6.890625 
Q 36.078125 6.890625 40.9375 10.546875 
Q 45.796875 14.203125 45.796875 21.1875 
Q 45.796875 27.640625 41.28125 31.265625 
Q 36.765625 34.90625 28.71875 34.90625 
L 20.21875 34.90625 
L 20.21875 43.015625 
L 29.109375 43.015625 
Q 36.375 43.015625 40.234375 45.921875 
Q 44.09375 48.828125 44.09375 54.296875 
Q 44.09375 59.90625 40.109375 62.90625 
Q 36.140625 65.921875 28.71875 65.921875 
Q 24.65625 65.921875 20.015625 65.03125 
Q 15.375 64.15625 9.8125 62.3125 
L 9.8125 71.09375 
Q 15.4375 72.65625 20.34375 73.4375 
Q 25.25 74.21875 29.59375 74.21875 
Q 40.828125 74.21875 47.359375 69.109375 
Q 53.90625 64.015625 53.90625 55.328125 
Q 53.90625 49.265625 50.4375 45.09375 
Q 46.96875 40.921875 40.578125 39.3125 
z
" id="DejaVuSans-51"/>
      </defs>
      <use xlink:href="#DejaVuSans-71"/>
      <use x="77.490234" xlink:href="#DejaVuSans-65"/>
      <use x="138.148438" xlink:href="#DejaVuSans-84"/>
      <use x="191.482422" xlink:href="#DejaVuSans-65"/>
      <use x="259.890625" xlink:href="#DejaVuSans-51"/>
     </g>
    </g>
   </g>
   <g id="text_15">
    <g clip-path="url(#p036f7a0aa2)">
     <!-- TBX21 -->
     <g transform="translate(250.173931 344.504546)scale(0.12 -0.12)">
      <defs>
       <path d="M 19.671875 34.8125 
L 19.671875 8.109375 
L 35.5 8.109375 
Q 43.453125 8.109375 47.28125 11.40625 
Q 51.125 14.703125 51.125 21.484375 
Q 51.125 28.328125 47.28125 31.5625 
Q 43.453125 34.8125 35.5 34.8125 
z
M 19.671875 64.796875 
L 19.671875 42.828125 
L 34.28125 42.828125 
Q 41.5 42.828125 45.03125 45.53125 
Q 48.578125 48.25 48.578125 53.8125 
Q 48.578125 59.328125 45.03125 62.0625 
Q 41.5 64.796875 34.28125 64.796875 
z
M 9.8125 72.90625 
L 35.015625 72.90625 
Q 46.296875 72.90625 52.390625 68.21875 
Q 58.5 63.53125 58.5 54.890625 
Q 58.5 48.1875 55.375 44.234375 
Q 52.25 40.28125 46.1875 39.3125 
Q 53.46875 37.75 57.5 32.78125 
Q 61.53125 27.828125 61.53125 20.40625 
Q 61.53125 10.640625 54.890625 5.3125 
Q 48.25 0 35.984375 0 
L 9.8125 0 
z
" id="DejaVuSans-66"/>
       <path d="M 6.296875 72.90625 
L 16.890625 72.90625 
L 35.015625 45.796875 
L 53.21875 72.90625 
L 63.8125 72.90625 
L 40.375 37.890625 
L 65.375 0 
L 54.78125 0 
L 34.28125 31 
L 13.625 0 
L 2.984375 0 
L 29 38.921875 
z
" id="DejaVuSans-88"/>
       <path d="M 19.1875 8.296875 
L 53.609375 8.296875 
L 53.609375 0 
L 7.328125 0 
L 7.328125 8.296875 
Q 12.9375 14.109375 22.625 23.890625 
Q 32.328125 33.6875 34.8125 36.53125 
Q 39.546875 41.84375 41.421875 45.53125 
Q 43.3125 49.21875 43.3125 52.78125 
Q 43.3125 58.59375 39.234375 62.25 
Q 35.15625 65.921875 28.609375 65.921875 
Q 23.96875 65.921875 18.8125 64.3125 
Q 13.671875 62.703125 7.8125 59.421875 
L 7.8125 69.390625 
Q 13.765625 71.78125 18.9375 73 
Q 24.125 74.21875 28.421875 74.21875 
Q 39.75 74.21875 46.484375 68.546875 
Q 53.21875 62.890625 53.21875 53.421875 
Q 53.21875 48.921875 51.53125 44.890625 
Q 49.859375 40.875 45.40625 35.40625 
Q 44.1875 33.984375 37.640625 27.21875 
Q 31.109375 20.453125 19.1875 8.296875 
z
" id="DejaVuSans-50"/>
      </defs>
      <use xlink:href="#DejaVuSans-84"/>
      <use x="61.083984" xlink:href="#DejaVuSans-66"/>
      <use x="129.6875" xlink:href="#DejaVuSans-88"/>
      <use x="198.193359" xlink:href="#DejaVuSans-50"/>
      <use x="261.816406" xlink:href="#DejaVuSans-49"/>
     </g>
    </g>
   </g>
   <g id="text_16">
    <g clip-path="url(#p036f7a0aa2)">
     <!-- IL2RA -->
     <g transform="translate(475.477849 343.70884)scale(0.12 -0.12)">
      <use xlink:href="#DejaVuSans-73"/>
      <use x="29.492188" xlink:href="#DejaVuSans-76"/>
      <use x="85.205078" xlink:href="#DejaVuSans-50"/>
      <use x="148.828125" xlink:href="#DejaVuSans-82"/>
      <use x="214.310547" xlink:href="#DejaVuSans-65"/>
     </g>
    </g>
   </g>
   <g id="text_17">
    <g clip-path="url(#p036f7a0aa2)">
     <!-- JAK2 -->
     <g transform="translate(428.758754 477.463977)scale(0.12 -0.12)">
      <use xlink:href="#DejaVuSans-74"/>
      <use x="27.742188" xlink:href="#DejaVuSans-65"/>
      <use x="96.150391" xlink:href="#DejaVuSans-75"/>
      <use x="161.726562" xlink:href="#DejaVuSans-50"/>
     </g>
    </g>
   </g>
   <g id="text_18">
    <g clip-path="url(#p036f7a0aa2)">
     <!-- TYK2 -->
     <g transform="translate(157.347886 224.835616)scale(0.12 -0.12)">
      <defs>
       <path d="M -0.203125 72.90625 
L 10.40625 72.90625 
L 30.609375 42.921875 
L 50.6875 72.90625 
L 61.28125 72.90625 
L 35.5 34.71875 
L 35.5 0 
L 25.59375 0 
L 25.59375 34.71875 
z
" id="DejaVuSans-89"/>
      </defs>
      <use xlink:href="#DejaVuSans-84"/>
      <use x="61.083984" xlink:href="#DejaVuSans-89"/>
      <use x="122.167969" xlink:href="#DejaVuSans-75"/>
      <use x="187.744141" xlink:href="#DejaVuSans-50"/>
     </g>
    </g>
   </g>
   <g id="text_19">
    <g clip-path="url(#p036f7a0aa2)">
     <!-- RUNX3 -->
     <g transform="translate(153.732482 335.981884)scale(0.12 -0.12)">
      <use xlink:href="#DejaVuSans-82"/>
      <use x="69.482422" xlink:href="#DejaVuSans-85"/>
      <use x="142.675781" xlink:href="#DejaVuSans-78"/>
      <use x="217.480469" xlink:href="#DejaVuSans-88"/>
      <use x="285.986328" xlink:href="#DejaVuSans-51"/>
     </g>
    </g>
   </g>
   <g id="text_20">
    <g clip-path="url(#p036f7a0aa2)">
     <!-- NFKB1 -->
     <g transform="translate(362.337251 306.22103)scale(0.12 -0.12)">
      <use xlink:href="#DejaVuSans-78"/>
      <use x="74.804688" xlink:href="#DejaVuSans-70"/>
      <use x="132.324219" xlink:href="#DejaVuSans-75"/>
      <use x="197.900391" xlink:href="#DejaVuSans-66"/>
      <use x="266.503906" xlink:href="#DejaVuSans-49"/>
     </g>
    </g>
   </g>
   <g id="text_21">
    <g clip-path="url(#p036f7a0aa2)">
     <!-- RELA -->
     <g transform="translate(378.551729 308.309963)scale(0.12 -0.12)">
      <defs>
       <path d="M 9.8125 72.90625 
L 55.90625 72.90625 
L 55.90625 64.59375 
L 19.671875 64.59375 
L 19.671875 43.015625 
L 54.390625 43.015625 
L 54.390625 34.71875 
L 19.671875 34.71875 
L 19.671875 8.296875 
L 56.78125 8.296875 
L 56.78125 0 
L 9.8125 0 
z
" id="DejaVuSans-69"/>
      </defs>
      <use xlink:href="#DejaVuSans-82"/>
      <use x="69.482422" xlink:href="#DejaVuSans-69"/>
      <use x="132.666016" xlink:href="#DejaVuSans-76"/>
      <use x="190.628906" xlink:href="#DejaVuSans-65"/>
     </g>
    </g>
   </g>
   <g id="text_22">
    <g clip-path="url(#p036f7a0aa2)">
     <!-- NFKBIB -->
     <g transform="translate(479.603635 473.89542)scale(0.12 -0.12)">
      <use xlink:href="#DejaVuSans-78"/>
      <use x="74.804688" xlink:href="#DejaVuSans-70"/>
      <use x="132.324219" xlink:href="#DejaVuSans-75"/>
      <use x="197.900391" xlink:href="#DejaVuSans-66"/>
      <use x="266.503906" xlink:href="#DejaVuSans-73"/>
      <use x="295.996094" xlink:href="#DejaVuSans-66"/>
     </g>
    </g>
   </g>
   <g id="text_23">
    <g clip-path="url(#p036f7a0aa2)">
     <!-- NFKBIA -->
     <g transform="translate(144.240473 271.891613)scale(0.12 -0.12)">
      <use xlink:href="#DejaVuSans-78"/>
      <use x="74.804688" xlink:href="#DejaVuSans-70"/>
      <use x="132.324219" xlink:href="#DejaVuSans-75"/>
      <use x="197.900391" xlink:href="#DejaVuSans-66"/>
      <use x="266.503906" xlink:href="#DejaVuSans-73"/>
      <use x="295.996094" xlink:href="#DejaVuSans-65"/>
     </g>
    </g>
   </g>
   <g id="text_24">
    <g clip-path="url(#p036f7a0aa2)">
     <!-- NFKBIE -->
     <g transform="translate(469.585927 110.918523)scale(0.12 -0.12)">
      <use xlink:href="#DejaVuSans-78"/>
      <use x="74.804688" xlink:href="#DejaVuSans-70"/>
      <use x="132.324219" xlink:href="#DejaVuSans-75"/>
      <use x="197.900391" xlink:href="#DejaVuSans-66"/>
      <use x="266.503906" xlink:href="#DejaVuSans-73"/>
      <use x="295.996094" xlink:href="#DejaVuSans-69"/>
     </g>
    </g>
   </g>
   <g id="text_25">
    <g clip-path="url(#p036f7a0aa2)">
     <!-- IKBKB -->
     <g transform="translate(400.643161 277.280671)scale(0.12 -0.12)">
      <use xlink:href="#DejaVuSans-73"/>
      <use x="29.492188" xlink:href="#DejaVuSans-75"/>
      <use x="95.068359" xlink:href="#DejaVuSans-66"/>
      <use x="163.671875" xlink:href="#DejaVuSans-75"/>
      <use x="229.248047" xlink:href="#DejaVuSans-66"/>
     </g>
    </g>
   </g>
   <g id="text_26">
    <g clip-path="url(#p036f7a0aa2)">
     <!-- IKBKG -->
     <g transform="translate(381.987564 274.210081)scale(0.12 -0.12)">
      <use xlink:href="#DejaVuSans-73"/>
      <use x="29.492188" xlink:href="#DejaVuSans-75"/>
      <use x="95.068359" xlink:href="#DejaVuSans-66"/>
      <use x="163.671875" xlink:href="#DejaVuSans-75"/>
      <use x="229.248047" xlink:href="#DejaVuSans-71"/>
     </g>
    </g>
   </g>
   <g id="text_27">
    <g clip-path="url(#p036f7a0aa2)">
     <!-- NFATC2 -->
     <g transform="translate(359.76881 343.58878)scale(0.12 -0.12)">
      <use xlink:href="#DejaVuSans-78"/>
      <use x="74.804688" xlink:href="#DejaVuSans-70"/>
      <use x="123.199219" xlink:href="#DejaVuSans-65"/>
      <use x="183.857422" xlink:href="#DejaVuSans-84"/>
      <use x="239.066406" xlink:href="#DejaVuSans-67"/>
      <use x="308.890625" xlink:href="#DejaVuSans-50"/>
     </g>
    </g>
   </g>
   <g id="text_28">
    <g clip-path="url(#p036f7a0aa2)">
     <!-- NFATC1 -->
     <g transform="translate(351.427789 332.303637)scale(0.12 -0.12)">
      <use xlink:href="#DejaVuSans-78"/>
      <use x="74.804688" xlink:href="#DejaVuSans-70"/>
      <use x="123.199219" xlink:href="#DejaVuSans-65"/>
      <use x="183.857422" xlink:href="#DejaVuSans-84"/>
      <use x="239.066406" xlink:href="#DejaVuSans-67"/>
      <use x="308.890625" xlink:href="#DejaVuSans-49"/>
     </g>
    </g>
   </g>
   <g id="text_29">
    <g clip-path="url(#p036f7a0aa2)">
     <!-- NFATC3 -->
     <g transform="translate(347.602322 363.506351)scale(0.12 -0.12)">
      <use xlink:href="#DejaVuSans-78"/>
      <use x="74.804688" xlink:href="#DejaVuSans-70"/>
      <use x="123.199219" xlink:href="#DejaVuSans-65"/>
      <use x="183.857422" xlink:href="#DejaVuSans-84"/>
      <use x="239.066406" xlink:href="#DejaVuSans-67"/>
      <use x="308.890625" xlink:href="#DejaVuSans-51"/>
     </g>
    </g>
   </g>
   <g id="text_30">
    <g clip-path="url(#p036f7a0aa2)">
     <!-- IFNGR1 -->
     <g transform="translate(372.746356 358.695761)scale(0.12 -0.12)">
      <use xlink:href="#DejaVuSans-73"/>
      <use x="29.492188" xlink:href="#DejaVuSans-70"/>
      <use x="87.011719" xlink:href="#DejaVuSans-78"/>
      <use x="161.816406" xlink:href="#DejaVuSans-71"/>
      <use x="239.306641" xlink:href="#DejaVuSans-82"/>
      <use x="308.789062" xlink:href="#DejaVuSans-49"/>
     </g>
    </g>
   </g>
   <g id="text_31">
    <g clip-path="url(#p036f7a0aa2)">
     <!-- IFNGR2 -->
     <g transform="translate(286.498024 367.4284)scale(0.12 -0.12)">
      <use xlink:href="#DejaVuSans-73"/>
      <use x="29.492188" xlink:href="#DejaVuSans-70"/>
      <use x="87.011719" xlink:href="#DejaVuSans-78"/>
      <use x="161.816406" xlink:href="#DejaVuSans-71"/>
      <use x="239.306641" xlink:href="#DejaVuSans-82"/>
      <use x="308.789062" xlink:href="#DejaVuSans-50"/>
     </g>
    </g>
   </g>
   <g id="text_32">
    <g clip-path="url(#p036f7a0aa2)">
     <!-- IL12A -->
     <g transform="translate(287.342662 291.877971)scale(0.12 -0.12)">
      <use xlink:href="#DejaVuSans-73"/>
      <use x="29.492188" xlink:href="#DejaVuSans-76"/>
      <use x="85.205078" xlink:href="#DejaVuSans-49"/>
      <use x="148.828125" xlink:href="#DejaVuSans-50"/>
      <use x="212.451172" xlink:href="#DejaVuSans-65"/>
     </g>
    </g>
   </g>
   <g id="text_33">
    <g clip-path="url(#p036f7a0aa2)">
     <!-- IL12RB1 -->
     <g transform="translate(321.911583 336.366704)scale(0.12 -0.12)">
      <use xlink:href="#DejaVuSans-73"/>
      <use x="29.492188" xlink:href="#DejaVuSans-76"/>
      <use x="85.205078" xlink:href="#DejaVuSans-49"/>
      <use x="148.828125" xlink:href="#DejaVuSans-50"/>
      <use x="212.451172" xlink:href="#DejaVuSans-82"/>
      <use x="281.933594" xlink:href="#DejaVuSans-66"/>
      <use x="350.537109" xlink:href="#DejaVuSans-49"/>
     </g>
    </g>
   </g>
   <g id="text_34">
    <g clip-path="url(#p036f7a0aa2)">
     <!-- IL12RB2 -->
     <g transform="translate(235.660066 373.726639)scale(0.12 -0.12)">
      <use xlink:href="#DejaVuSans-73"/>
      <use x="29.492188" xlink:href="#DejaVuSans-76"/>
      <use x="85.205078" xlink:href="#DejaVuSans-49"/>
      <use x="148.828125" xlink:href="#DejaVuSans-50"/>
      <use x="212.451172" xlink:href="#DejaVuSans-82"/>
      <use x="281.933594" xlink:href="#DejaVuSans-66"/>
      <use x="350.537109" xlink:href="#DejaVuSans-50"/>
     </g>
    </g>
   </g>
   <g id="text_35">
    <g clip-path="url(#p036f7a0aa2)">
     <!-- IL2RB -->
     <g transform="translate(484.615863 367.95131)scale(0.12 -0.12)">
      <use xlink:href="#DejaVuSans-73"/>
      <use x="29.492188" xlink:href="#DejaVuSans-76"/>
      <use x="85.205078" xlink:href="#DejaVuSans-50"/>
      <use x="148.828125" xlink:href="#DejaVuSans-82"/>
      <use x="218.310547" xlink:href="#DejaVuSans-66"/>
     </g>
    </g>
   </g>
   <g id="text_36">
    <g clip-path="url(#p036f7a0aa2)">
     <!-- IL2RG -->
     <g transform="translate(471.052138 357.514873)scale(0.12 -0.12)">
      <use xlink:href="#DejaVuSans-73"/>
      <use x="29.492188" xlink:href="#DejaVuSans-76"/>
      <use x="85.205078" xlink:href="#DejaVuSans-50"/>
      <use x="148.828125" xlink:href="#DejaVuSans-82"/>
      <use x="218.310547" xlink:href="#DejaVuSans-71"/>
     </g>
    </g>
   </g>
   <g id="text_37">
    <g clip-path="url(#p036f7a0aa2)">
     <!-- STAT5A -->
     <g transform="translate(532.028787 372.504395)scale(0.12 -0.12)">
      <defs>
       <path d="M 10.796875 72.90625 
L 49.515625 72.90625 
L 49.515625 64.59375 
L 19.828125 64.59375 
L 19.828125 46.734375 
Q 21.96875 47.46875 24.109375 47.828125 
Q 26.265625 48.1875 28.421875 48.1875 
Q 40.625 48.1875 47.75 41.5 
Q 54.890625 34.8125 54.890625 23.390625 
Q 54.890625 11.625 47.5625 5.09375 
Q 40.234375 -1.421875 26.90625 -1.421875 
Q 22.3125 -1.421875 17.546875 -0.640625 
Q 12.796875 0.140625 7.71875 1.703125 
L 7.71875 11.625 
Q 12.109375 9.234375 16.796875 8.0625 
Q 21.484375 6.890625 26.703125 6.890625 
Q 35.15625 6.890625 40.078125 11.328125 
Q 45.015625 15.765625 45.015625 23.390625 
Q 45.015625 31 40.078125 35.4375 
Q 35.15625 39.890625 26.703125 39.890625 
Q 22.75 39.890625 18.8125 39.015625 
Q 14.890625 38.140625 10.796875 36.28125 
z
" id="DejaVuSans-53"/>
      </defs>
      <use xlink:href="#DejaVuSans-83"/>
      <use x="63.476562" xlink:href="#DejaVuSans-84"/>
      <use x="116.810547" xlink:href="#DejaVuSans-65"/>
      <use x="177.46875" xlink:href="#DejaVuSans-84"/>
      <use x="238.552734" xlink:href="#DejaVuSans-53"/>
      <use x="302.175781" xlink:href="#DejaVuSans-65"/>
     </g>
    </g>
   </g>
   <g id="text_38">
    <g clip-path="url(#p036f7a0aa2)">
     <!-- STAT5B -->
     <g transform="translate(524.782355 344.160453)scale(0.12 -0.12)">
      <use xlink:href="#DejaVuSans-83"/>
      <use x="63.476562" xlink:href="#DejaVuSans-84"/>
      <use x="116.810547" xlink:href="#DejaVuSans-65"/>
      <use x="177.46875" xlink:href="#DejaVuSans-84"/>
      <use x="238.552734" xlink:href="#DejaVuSans-53"/>
      <use x="302.175781" xlink:href="#DejaVuSans-66"/>
     </g>
    </g>
   </g>
   <g id="text_39">
    <g clip-path="url(#p036f7a0aa2)">
     <!-- JAK1 -->
     <g transform="translate(206.588822 418.915885)scale(0.12 -0.12)">
      <use xlink:href="#DejaVuSans-74"/>
      <use x="27.742188" xlink:href="#DejaVuSans-65"/>
      <use x="96.150391" xlink:href="#DejaVuSans-75"/>
      <use x="161.726562" xlink:href="#DejaVuSans-49"/>
     </g>
    </g>
   </g>
   <g id="text_40">
    <g clip-path="url(#p036f7a0aa2)">
     <!-- JAK3 -->
     <g transform="translate(705.972652 291.609328)scale(0.12 -0.12)">
      <use xlink:href="#DejaVuSans-74"/>
      <use x="27.742188" xlink:href="#DejaVuSans-65"/>
      <use x="96.150391" xlink:href="#DejaVuSans-75"/>
      <use x="161.726562" xlink:href="#DejaVuSans-51"/>
     </g>
    </g>
   </g>
   <g id="text_41">
    <!-- Frame: 11 -->
    <g transform="translate(121.392 91.296)scale(0.1 -0.1)">
     <defs>
      <path d="M 41.109375 46.296875 
Q 39.59375 47.171875 37.8125 47.578125 
Q 36.03125 48 33.890625 48 
Q 26.265625 48 22.1875 43.046875 
Q 18.109375 38.09375 18.109375 28.8125 
L 18.109375 0 
L 9.078125 0 
L 9.078125 54.6875 
L 18.109375 54.6875 
L 18.109375 46.1875 
Q 20.953125 51.171875 25.484375 53.578125 
Q 30.03125 56 36.53125 56 
Q 37.453125 56 38.578125 55.875 
Q 39.703125 55.765625 41.0625 55.515625 
z
" id="DejaVuSans-114"/>
      <path d="M 34.28125 27.484375 
Q 23.390625 27.484375 19.1875 25 
Q 14.984375 22.515625 14.984375 16.5 
Q 14.984375 11.71875 18.140625 8.90625 
Q 21.296875 6.109375 26.703125 6.109375 
Q 34.1875 6.109375 38.703125 11.40625 
Q 43.21875 16.703125 43.21875 25.484375 
L 43.21875 27.484375 
z
M 52.203125 31.203125 
L 52.203125 0 
L 43.21875 0 
L 43.21875 8.296875 
Q 40.140625 3.328125 35.546875 0.953125 
Q 30.953125 -1.421875 24.3125 -1.421875 
Q 15.921875 -1.421875 10.953125 3.296875 
Q 6 8.015625 6 15.921875 
Q 6 25.140625 12.171875 29.828125 
Q 18.359375 34.515625 30.609375 34.515625 
L 43.21875 34.515625 
L 43.21875 35.40625 
Q 43.21875 41.609375 39.140625 45 
Q 35.0625 48.390625 27.6875 48.390625 
Q 23 48.390625 18.546875 47.265625 
Q 14.109375 46.140625 10.015625 43.890625 
L 10.015625 52.203125 
Q 14.9375 54.109375 19.578125 55.046875 
Q 24.21875 56 28.609375 56 
Q 40.484375 56 46.34375 49.84375 
Q 52.203125 43.703125 52.203125 31.203125 
z
" id="DejaVuSans-97"/>
      <path d="M 52 44.1875 
Q 55.375 50.25 60.0625 53.125 
Q 64.75 56 71.09375 56 
Q 79.640625 56 84.28125 50.015625 
Q 88.921875 44.046875 88.921875 33.015625 
L 88.921875 0 
L 79.890625 0 
L 79.890625 32.71875 
Q 79.890625 40.578125 77.09375 44.375 
Q 74.3125 48.1875 68.609375 48.1875 
Q 61.625 48.1875 57.5625 43.546875 
Q 53.515625 38.921875 53.515625 30.90625 
L 53.515625 0 
L 44.484375 0 
L 44.484375 32.71875 
Q 44.484375 40.625 41.703125 44.40625 
Q 38.921875 48.1875 33.109375 48.1875 
Q 26.21875 48.1875 22.15625 43.53125 
Q 18.109375 38.875 18.109375 30.90625 
L 18.109375 0 
L 9.078125 0 
L 9.078125 54.6875 
L 18.109375 54.6875 
L 18.109375 46.1875 
Q 21.1875 51.21875 25.484375 53.609375 
Q 29.78125 56 35.6875 56 
Q 41.65625 56 45.828125 52.96875 
Q 50 49.953125 52 44.1875 
z
" id="DejaVuSans-109"/>
      <path d="M 56.203125 29.59375 
L 56.203125 25.203125 
L 14.890625 25.203125 
Q 15.484375 15.921875 20.484375 11.0625 
Q 25.484375 6.203125 34.421875 6.203125 
Q 39.59375 6.203125 44.453125 7.46875 
Q 49.3125 8.734375 54.109375 11.28125 
L 54.109375 2.78125 
Q 49.265625 0.734375 44.1875 -0.34375 
Q 39.109375 -1.421875 33.890625 -1.421875 
Q 20.796875 -1.421875 13.15625 6.1875 
Q 5.515625 13.8125 5.515625 26.8125 
Q 5.515625 40.234375 12.765625 48.109375 
Q 20.015625 56 32.328125 56 
Q 43.359375 56 49.78125 48.890625 
Q 56.203125 41.796875 56.203125 29.59375 
z
M 47.21875 32.234375 
Q 47.125 39.59375 43.09375 43.984375 
Q 39.0625 48.390625 32.421875 48.390625 
Q 24.90625 48.390625 20.390625 44.140625 
Q 15.875 39.890625 15.1875 32.171875 
z
" id="DejaVuSans-101"/>
      <path d="M 11.71875 12.40625 
L 22.015625 12.40625 
L 22.015625 0 
L 11.71875 0 
z
M 11.71875 51.703125 
L 22.015625 51.703125 
L 22.015625 39.3125 
L 11.71875 39.3125 
z
" id="DejaVuSans-58"/>
      <path id="DejaVuSans-32"/>
     </defs>
     <use xlink:href="#DejaVuSans-70"/>
     <use x="50.269531" xlink:href="#DejaVuSans-114"/>
     <use x="91.382812" xlink:href="#DejaVuSans-97"/>
     <use x="152.662109" xlink:href="#DejaVuSans-109"/>
     <use x="250.074219" xlink:href="#DejaVuSans-101"/>
     <use x="311.597656" xlink:href="#DejaVuSans-58"/>
     <use x="345.289062" xlink:href="#DejaVuSans-32"/>
     <use x="377.076172" xlink:href="#DejaVuSans-49"/>
     <use x="440.699219" xlink:href="#DejaVuSans-49"/>
    </g>
   </g>
   <g id="text_42">
    <!-- Network: hsa04658 -->
    <g transform="translate(384.1275 63.12)scale(0.12 -0.12)">
     <defs>
      <path d="M 18.3125 70.21875 
L 18.3125 54.6875 
L 36.8125 54.6875 
L 36.8125 47.703125 
L 18.3125 47.703125 
L 18.3125 18.015625 
Q 18.3125 11.328125 20.140625 9.421875 
Q 21.96875 7.515625 27.59375 7.515625 
L 36.8125 7.515625 
L 36.8125 0 
L 27.59375 0 
Q 17.1875 0 13.234375 3.875 
Q 9.28125 7.765625 9.28125 18.015625 
L 9.28125 47.703125 
L 2.6875 47.703125 
L 2.6875 54.6875 
L 9.28125 54.6875 
L 9.28125 70.21875 
z
" id="DejaVuSans-116"/>
      <path d="M 4.203125 54.6875 
L 13.1875 54.6875 
L 24.421875 12.015625 
L 35.59375 54.6875 
L 46.1875 54.6875 
L 57.421875 12.015625 
L 68.609375 54.6875 
L 77.59375 54.6875 
L 63.28125 0 
L 52.6875 0 
L 40.921875 44.828125 
L 29.109375 0 
L 18.5 0 
z
" id="DejaVuSans-119"/>
      <path d="M 30.609375 48.390625 
Q 23.390625 48.390625 19.1875 42.75 
Q 14.984375 37.109375 14.984375 27.296875 
Q 14.984375 17.484375 19.15625 11.84375 
Q 23.34375 6.203125 30.609375 6.203125 
Q 37.796875 6.203125 41.984375 11.859375 
Q 46.1875 17.53125 46.1875 27.296875 
Q 46.1875 37.015625 41.984375 42.703125 
Q 37.796875 48.390625 30.609375 48.390625 
z
M 30.609375 56 
Q 42.328125 56 49.015625 48.375 
Q 55.71875 40.765625 55.71875 27.296875 
Q 55.71875 13.875 49.015625 6.21875 
Q 42.328125 -1.421875 30.609375 -1.421875 
Q 18.84375 -1.421875 12.171875 6.21875 
Q 5.515625 13.875 5.515625 27.296875 
Q 5.515625 40.765625 12.171875 48.375 
Q 18.84375 56 30.609375 56 
z
" id="DejaVuSans-111"/>
      <path d="M 9.078125 75.984375 
L 18.109375 75.984375 
L 18.109375 31.109375 
L 44.921875 54.6875 
L 56.390625 54.6875 
L 27.390625 29.109375 
L 57.625 0 
L 45.90625 0 
L 18.109375 26.703125 
L 18.109375 0 
L 9.078125 0 
z
" id="DejaVuSans-107"/>
      <path d="M 54.890625 33.015625 
L 54.890625 0 
L 45.90625 0 
L 45.90625 32.71875 
Q 45.90625 40.484375 42.875 44.328125 
Q 39.84375 48.1875 33.796875 48.1875 
Q 26.515625 48.1875 22.3125 43.546875 
Q 18.109375 38.921875 18.109375 30.90625 
L 18.109375 0 
L 9.078125 0 
L 9.078125 75.984375 
L 18.109375 75.984375 
L 18.109375 46.1875 
Q 21.34375 51.125 25.703125 53.5625 
Q 30.078125 56 35.796875 56 
Q 45.21875 56 50.046875 50.171875 
Q 54.890625 44.34375 54.890625 33.015625 
z
" id="DejaVuSans-104"/>
      <path d="M 44.28125 53.078125 
L 44.28125 44.578125 
Q 40.484375 46.53125 36.375 47.5 
Q 32.28125 48.484375 27.875 48.484375 
Q 21.1875 48.484375 17.84375 46.4375 
Q 14.5 44.390625 14.5 40.28125 
Q 14.5 37.15625 16.890625 35.375 
Q 19.28125 33.59375 26.515625 31.984375 
L 29.59375 31.296875 
Q 39.15625 29.25 43.1875 25.515625 
Q 47.21875 21.78125 47.21875 15.09375 
Q 47.21875 7.46875 41.1875 3.015625 
Q 35.15625 -1.421875 24.609375 -1.421875 
Q 20.21875 -1.421875 15.453125 -0.5625 
Q 10.6875 0.296875 5.421875 2 
L 5.421875 11.28125 
Q 10.40625 8.6875 15.234375 7.390625 
Q 20.0625 6.109375 24.8125 6.109375 
Q 31.15625 6.109375 34.5625 8.28125 
Q 37.984375 10.453125 37.984375 14.40625 
Q 37.984375 18.0625 35.515625 20.015625 
Q 33.0625 21.96875 24.703125 23.78125 
L 21.578125 24.515625 
Q 13.234375 26.265625 9.515625 29.90625 
Q 5.8125 33.546875 5.8125 39.890625 
Q 5.8125 47.609375 11.28125 51.796875 
Q 16.75 56 26.8125 56 
Q 31.78125 56 36.171875 55.265625 
Q 40.578125 54.546875 44.28125 53.078125 
z
" id="DejaVuSans-115"/>
      <path d="M 31.78125 34.625 
Q 24.75 34.625 20.71875 30.859375 
Q 16.703125 27.09375 16.703125 20.515625 
Q 16.703125 13.921875 20.71875 10.15625 
Q 24.75 6.390625 31.78125 6.390625 
Q 38.8125 6.390625 42.859375 10.171875 
Q 46.921875 13.96875 46.921875 20.515625 
Q 46.921875 27.09375 42.890625 30.859375 
Q 38.875 34.625 31.78125 34.625 
z
M 21.921875 38.8125 
Q 15.578125 40.375 12.03125 44.71875 
Q 8.5 49.078125 8.5 55.328125 
Q 8.5 64.0625 14.71875 69.140625 
Q 20.953125 74.21875 31.78125 74.21875 
Q 42.671875 74.21875 48.875 69.140625 
Q 55.078125 64.0625 55.078125 55.328125 
Q 55.078125 49.078125 51.53125 44.71875 
Q 48 40.375 41.703125 38.8125 
Q 48.828125 37.15625 52.796875 32.3125 
Q 56.78125 27.484375 56.78125 20.515625 
Q 56.78125 9.90625 50.3125 4.234375 
Q 43.84375 -1.421875 31.78125 -1.421875 
Q 19.734375 -1.421875 13.25 4.234375 
Q 6.78125 9.90625 6.78125 20.515625 
Q 6.78125 27.484375 10.78125 32.3125 
Q 14.796875 37.15625 21.921875 38.8125 
z
M 18.3125 54.390625 
Q 18.3125 48.734375 21.84375 45.5625 
Q 25.390625 42.390625 31.78125 42.390625 
Q 38.140625 42.390625 41.71875 45.5625 
Q 45.3125 48.734375 45.3125 54.390625 
Q 45.3125 60.0625 41.71875 63.234375 
Q 38.140625 66.40625 31.78125 66.40625 
Q 25.390625 66.40625 21.84375 63.234375 
Q 18.3125 60.0625 18.3125 54.390625 
z
" id="DejaVuSans-56"/>
     </defs>
     <use xlink:href="#DejaVuSans-78"/>
     <use x="74.804688" xlink:href="#DejaVuSans-101"/>
     <use x="136.328125" xlink:href="#DejaVuSans-116"/>
     <use x="175.537109" xlink:href="#DejaVuSans-119"/>
     <use x="257.324219" xlink:href="#DejaVuSans-111"/>
     <use x="318.505859" xlink:href="#DejaVuSans-114"/>
     <use x="359.619141" xlink:href="#DejaVuSans-107"/>
     <use x="417.529297" xlink:href="#DejaVuSans-58"/>
     <use x="451.220703" xlink:href="#DejaVuSans-32"/>
     <use x="483.007812" xlink:href="#DejaVuSans-104"/>
     <use x="546.386719" xlink:href="#DejaVuSans-115"/>
     <use x="598.486328" xlink:href="#DejaVuSans-97"/>
     <use x="659.765625" xlink:href="#DejaVuSans-48"/>
     <use x="723.388672" xlink:href="#DejaVuSans-52"/>
     <use x="787.011719" xlink:href="#DejaVuSans-54"/>
     <use x="850.634766" xlink:href="#DejaVuSans-53"/>
     <use x="914.257812" xlink:href="#DejaVuSans-56"/>
    </g>
   </g>
  </g>
 </g>
 <defs>
  <clipPath id="p036f7a0aa2">
   <rect height="443.52" width="669.6" x="108" y="69.12"/>
  </clipPath>
 </defs>
</svg>
