<?xml version="1.0" encoding="utf-8" standalone="no"?>
<!DOCTYPE svg PUBLIC "-//W3C//DTD SVG 1.1//EN"
  "http://www.w3.org/Graphics/SVG/1.1/DTD/svg11.dtd">
<!-- Created with matplotlib (https://matplotlib.org/) -->
<svg height="576pt" version="1.1" viewBox="0 0 864 576" width="864pt" xmlns="http://www.w3.org/2000/svg" xmlns:xlink="http://www.w3.org/1999/xlink">
 <metadata>
  <rdf:RDF xmlns:cc="http://creativecommons.org/ns#" xmlns:dc="http://purl.org/dc/elements/1.1/" xmlns:rdf="http://www.w3.org/1999/02/22-rdf-syntax-ns#">
   <cc:Work>
    <dc:type rdf:resource="http://purl.org/dc/dcmitype/StillImage"/>
    <dc:date>2024-04-12T11:39:51.454656</dc:date>
    <dc:format>image/svg+xml</dc:format>
    <dc:creator>
     <cc:Agent>
      <dc:title>Matplotlib v3.3.1, https://matplotlib.org/</dc:title>
     </cc:Agent>
    </dc:creator>
   </cc:Work>
  </rdf:RDF>
 </metadata>
 <defs>
  <style type="text/css">*{stroke-linecap:butt;stroke-linejoin:round;}</style>
 </defs>
 <g id="figure_1">
  <g id="patch_1">
   <path d="M 0 576 
L 864 576 
L 864 0 
L 0 0 
z
" style="fill:#ffffff;"/>
  </g>
  <g id="axes_1">
   <g id="patch_2">
    <path clip-path="url(#p9ffd2a87a9)" d="M 460.456591 333.250244 
Q 454.333515 306.98414 448.464266 281.806875 
" style="fill:none;stroke:#000000;stroke-linecap:round;"/>
    <path clip-path="url(#p9ffd2a87a9)" d="M 447.42461 286.156486 
L 448.464266 281.806875 
L 451.320161 285.248367 
L 447.42461 286.156486 
z
" style="stroke:#000000;stroke-linecap:round;"/>
   </g>
   <g id="patch_3">
    <path clip-path="url(#p9ffd2a87a9)" d="M 547.299514 295.526683 
Q 500.992111 284.875149 455.774289 274.474238 
" style="fill:none;stroke:#000000;stroke-linecap:round;"/>
    <path clip-path="url(#p9ffd2a87a9)" d="M 459.224166 277.319998 
L 455.774289 274.474238 
L 460.120823 273.421792 
L 459.224166 277.319998 
z
" style="stroke:#000000;stroke-linecap:round;"/>
   </g>
   <g id="patch_4">
    <path clip-path="url(#p9ffd2a87a9)" d="M 458.244589 270.073064 
Q 584.617957 294.643513 709.893841 319.000582 
" style="fill:none;stroke:#000000;stroke-linecap:round;"/>
    <path clip-path="url(#p9ffd2a87a9)" d="M 706.349074 316.273931 
L 709.893841 319.000582 
L 705.58566 320.200405 
L 706.349074 316.273931 
z
" style="stroke:#000000;stroke-linecap:round;"/>
   </g>
   <g id="patch_5">
    <path clip-path="url(#p9ffd2a87a9)" d="M 442.620934 263.501668 
Q 355.198496 203.140162 268.696092 143.413901 
" style="fill:none;stroke:#000000;stroke-linecap:round;"/>
    <path clip-path="url(#p9ffd2a87a9)" d="M 270.851347 147.332431 
L 268.696092 143.413901 
L 273.124069 144.040815 
L 270.851347 147.332431 
z
" style="stroke:#000000;stroke-linecap:round;"/>
   </g>
   <g id="patch_6">
    <path clip-path="url(#p9ffd2a87a9)" d="M 441.101955 267.9143 
Q 307.92796 260.114584 175.870086 252.380237 
" style="fill:none;stroke:#000000;stroke-linecap:round;"/>
    <path clip-path="url(#p9ffd2a87a9)" d="M 179.746308 254.610686 
L 175.870086 252.380237 
L 179.980179 250.617529 
L 179.746308 254.610686 
z
" style="stroke:#000000;stroke-linecap:round;"/>
   </g>
   <g id="patch_7">
    <path clip-path="url(#p9ffd2a87a9)" d="M 456.961858 273.203206 
Q 552.252186 336.352907 646.610555 398.88499 
" style="fill:none;stroke:#000000;stroke-linecap:round;"/>
    <path clip-path="url(#p9ffd2a87a9)" d="M 644.381102 395.008195 
L 646.610555 398.88499 
L 642.171447 398.342475 
L 644.381102 395.008195 
z
" style="stroke:#000000;stroke-linecap:round;"/>
   </g>
   <g id="patch_8">
    <path clip-path="url(#p9ffd2a87a9)" d="M 456.196974 274.196189 
Q 541.946082 350.956622 626.862165 426.971352 
" style="fill:none;stroke:#000000;stroke-linecap:round;"/>
    <path clip-path="url(#p9ffd2a87a9)" d="M 625.215801 422.81329 
L 626.862165 426.971352 
L 622.547897 425.793607 
L 625.215801 422.81329 
z
" style="stroke:#000000;stroke-linecap:round;"/>
   </g>
   <g id="patch_9">
    <path clip-path="url(#p9ffd2a87a9)" d="M 457.619435 272.018467 
Q 574.097 325.238756 689.557653 377.994403 
" style="fill:none;stroke:#000000;stroke-linecap:round;"/>
    <path clip-path="url(#p9ffd2a87a9)" d="M 686.750617 374.512945 
L 689.557653 377.994403 
L 685.088266 378.151157 
L 686.750617 374.512945 
z
" style="stroke:#000000;stroke-linecap:round;"/>
   </g>
   <g id="patch_10">
    <path clip-path="url(#p9ffd2a87a9)" d="M 441.93915 272.165261 
Q 390.011631 297.076997 339.092147 321.505137 
" style="fill:none;stroke:#000000;stroke-linecap:round;"/>
    <path clip-path="url(#p9ffd2a87a9)" d="M 343.563686 321.578202 
L 339.092147 321.505137 
L 341.833522 317.971745 
L 343.563686 321.578202 
z
" style="stroke:#000000;stroke-linecap:round;"/>
   </g>
   <g id="patch_11">
    <path clip-path="url(#p9ffd2a87a9)" d="M 443.413361 262.516322 
Q 376.717937 200.323141 310.840199 138.89245 
" style="fill:none;stroke:#000000;stroke-linecap:round;"/>
    <path clip-path="url(#p9ffd2a87a9)" d="M 312.401661 143.083134 
L 310.840199 138.89245 
L 315.129624 140.157691 
L 312.401661 143.083134 
z
" style="stroke:#000000;stroke-linecap:round;"/>
   </g>
   <g id="patch_12">
    <path clip-path="url(#p9ffd2a87a9)" d="M 452.929396 260.371211 
Q 479.33729 193.620219 505.333887 127.90886 
" style="fill:none;stroke:#000000;stroke-linecap:round;"/>
    <path clip-path="url(#p9ffd2a87a9)" d="M 502.002636 130.892609 
L 505.333887 127.90886 
L 505.722136 132.364111 
L 502.002636 130.892609 
z
" style="stroke:#000000;stroke-linecap:round;"/>
   </g>
   <g id="patch_13">
    <path clip-path="url(#p9ffd2a87a9)" d="M 448.080377 259.92294 
Q 433.994628 188.015981 420.123805 117.206204 
" style="fill:none;stroke:#000000;stroke-linecap:round;"/>
    <path clip-path="url(#p9ffd2a87a9)" d="M 418.930047 121.51607 
L 420.123805 117.206204 
L 422.855442 120.74713 
L 418.930047 121.51607 
z
" style="stroke:#000000;stroke-linecap:round;"/>
   </g>
   <g id="patch_14">
    <path clip-path="url(#p9ffd2a87a9)" d="M 445.766816 260.726836 
Q 413.434188 198.195925 381.615072 136.658143 
" style="fill:none;stroke:#000000;stroke-linecap:round;"/>
    <path clip-path="url(#p9ffd2a87a9)" d="M 381.675711 141.129868 
L 381.615072 136.658143 
L 385.228835 139.292667 
L 381.675711 141.129868 
z
" style="stroke:#000000;stroke-linecap:round;"/>
   </g>
   <g id="patch_15">
    <path clip-path="url(#p9ffd2a87a9)" d="M 450.430767 259.786582 
Q 455.693206 193.536253 460.867116 128.400448 
" style="fill:none;stroke:#000000;stroke-linecap:round;"/>
    <path clip-path="url(#p9ffd2a87a9)" d="M 458.556663 132.229522 
L 460.867116 128.400448 
L 462.544103 132.546255 
L 458.556663 132.229522 
z
" style="stroke:#000000;stroke-linecap:round;"/>
   </g>
   <g id="patch_16">
    <path clip-path="url(#p9ffd2a87a9)" d="M 444.943419 261.2133 
Q 397.972625 190.709146 351.621713 121.135447 
" style="fill:none;stroke:#000000;stroke-linecap:round;"/>
    <path clip-path="url(#p9ffd2a87a9)" d="M 352.175019 125.573223 
L 351.621713 121.135447 
L 355.503917 123.355467 
L 352.175019 125.573223 
z
" style="stroke:#000000;stroke-linecap:round;"/>
   </g>
   <g id="patch_17">
    <path clip-path="url(#p9ffd2a87a9)" d="M 453.217362 276.354706 
Q 493.423897 368.223722 533.182173 459.068499 
" style="fill:none;stroke:#000000;stroke-linecap:round;"/>
    <path clip-path="url(#p9ffd2a87a9)" d="M 533.410648 454.602204 
L 533.182173 459.068499 
L 529.746221 456.205942 
L 533.410648 454.602204 
z
" style="stroke:#000000;stroke-linecap:round;"/>
   </g>
   <g id="patch_18">
    <path clip-path="url(#p9ffd2a87a9)" d="M 441.597972 265.483409 
Q 334.027167 226.702738 227.508135 188.301245 
" style="fill:none;stroke:#000000;stroke-linecap:round;"/>
    <path clip-path="url(#p9ffd2a87a9)" d="M 230.592775 191.539298 
L 227.508135 188.301245 
L 231.949362 187.776364 
L 230.592775 191.539298 
z
" style="stroke:#000000;stroke-linecap:round;"/>
   </g>
   <g id="patch_19">
    <path clip-path="url(#p9ffd2a87a9)" d="M 447.346502 276.738753 
Q 432.052191 329.782158 417.067631 381.751294 
" style="fill:none;stroke:#000000;stroke-linecap:round;"/>
    <path clip-path="url(#p9ffd2a87a9)" d="M 420.097538 378.461969 
L 417.067631 381.751294 
L 416.254115 377.353772 
L 420.097538 378.461969 
z
" style="stroke:#000000;stroke-linecap:round;"/>
   </g>
   <g id="patch_20">
    <path clip-path="url(#p9ffd2a87a9)" d="M 458.166263 266.402669 
Q 574.663781 238.488669 690.074041 210.835188 
" style="fill:none;stroke:#000000;stroke-linecap:round;"/>
    <path clip-path="url(#p9ffd2a87a9)" d="M 685.718119 209.8223 
L 690.074041 210.835188 
L 686.650177 213.712193 
L 685.718119 209.8223 
z
" style="stroke:#000000;stroke-linecap:round;"/>
   </g>
   <g id="patch_21">
    <path clip-path="url(#p9ffd2a87a9)" d="M 448.075364 276.918382 
Q 429.534552 371.287565 411.209281 464.559686 
" style="fill:none;stroke:#000000;stroke-linecap:round;"/>
    <path clip-path="url(#p9ffd2a87a9)" d="M 413.942905 461.020294 
L 411.209281 464.559686 
L 410.017941 460.249152 
L 413.942905 461.020294 
z
" style="stroke:#000000;stroke-linecap:round;"/>
   </g>
   <g id="patch_22">
    <path clip-path="url(#p9ffd2a87a9)" d="M 441.2969 266.51241 
Q 311.678714 237.236633 183.151091 208.207172 
" style="fill:none;stroke:#000000;stroke-linecap:round;"/>
    <path clip-path="url(#p9ffd2a87a9)" d="M 186.612185 211.039279 
L 183.151091 208.207172 
L 187.493433 207.137561 
L 186.612185 211.039279 
z
" style="stroke:#000000;stroke-linecap:round;"/>
   </g>
   <g id="patch_23">
    <path clip-path="url(#p9ffd2a87a9)" d="M 446.216913 276.327316 
Q 406.753072 364.771151 367.744805 452.19398 
" style="fill:none;stroke:#000000;stroke-linecap:round;"/>
    <path clip-path="url(#p9ffd2a87a9)" d="M 371.201149 449.356078 
L 367.744805 452.19398 
L 367.54829 447.726164 
L 371.201149 449.356078 
z
" style="stroke:#000000;stroke-linecap:round;"/>
   </g>
   <g id="patch_24">
    <path clip-path="url(#p9ffd2a87a9)" d="M 441.210962 269.882601 
Q 309.009009 292.53231 177.909034 314.993221 
" style="fill:none;stroke:#000000;stroke-linecap:round;"/>
    <path clip-path="url(#p9ffd2a87a9)" d="M 182.189323 316.289035 
L 177.909034 314.993221 
L 181.513858 312.346479 
L 182.189323 316.289035 
z
" style="stroke:#000000;stroke-linecap:round;"/>
   </g>
   <g id="patch_25">
    <path clip-path="url(#p9ffd2a87a9)" d="M 456.32819 262.793341 
Q 519.040549 209.188644 580.903038 156.310392 
" style="fill:none;stroke:#000000;stroke-linecap:round;"/>
    <path clip-path="url(#p9ffd2a87a9)" d="M 576.562948 157.389103 
L 580.903038 156.310392 
L 579.161953 160.429691 
L 576.562948 157.389103 
z
" style="stroke:#000000;stroke-linecap:round;"/>
   </g>
   <g id="patch_26">
    <path clip-path="url(#p9ffd2a87a9)" d="M 457.955823 271.164596 
Q 574.479068 310.106966 689.941929 348.694952 
" style="fill:none;stroke:#000000;stroke-linecap:round;"/>
    <path clip-path="url(#p9ffd2a87a9)" d="M 686.782126 345.530203 
L 689.941929 348.694952 
L 685.514247 349.323945 
L 686.782126 345.530203 
z
" style="stroke:#000000;stroke-linecap:round;"/>
   </g>
   <g id="patch_27">
    <path clip-path="url(#p9ffd2a87a9)" d="M 454.792739 261.382985 
Q 502.138156 195.375025 548.831935 130.275563 
" style="fill:none;stroke:#000000;stroke-linecap:round;"/>
    <path clip-path="url(#p9ffd2a87a9)" d="M 544.875397 132.360222 
L 548.831935 130.275563 
L 548.125739 134.691589 
L 544.875397 132.360222 
z
" style="stroke:#000000;stroke-linecap:round;"/>
   </g>
   <g id="patch_28">
    <path clip-path="url(#p9ffd2a87a9)" d="M 462.035994 273.149115 
Q 586.508574 296.219219 709.881842 319.085574 
" style="fill:none;stroke:#000000;stroke-linecap:round;"/>
    <path clip-path="url(#p9ffd2a87a9)" d="M 706.313304 316.390108 
L 709.881842 319.085574 
L 705.584347 320.323125 
L 706.313304 316.390108 
z
" style="stroke:#000000;stroke-linecap:round;"/>
   </g>
   <g id="patch_29">
    <path clip-path="url(#p9ffd2a87a9)" d="M 446.398244 266.634742 
Q 357.081767 204.713039 268.684109 143.428339 
" style="fill:none;stroke:#000000;stroke-linecap:round;"/>
    <path clip-path="url(#p9ffd2a87a9)" d="M 270.83187 147.350982 
L 268.684109 143.428339 
L 273.110879 144.063716 
L 270.83187 147.350982 
z
" style="stroke:#000000;stroke-linecap:round;"/>
   </g>
   <g id="patch_30">
    <path clip-path="url(#p9ffd2a87a9)" d="M 444.873311 270.975884 
Q 309.809134 261.68913 175.860359 252.479069 
" style="fill:none;stroke:#000000;stroke-linecap:round;"/>
    <path clip-path="url(#p9ffd2a87a9)" d="M 179.713744 254.748742 
L 175.860359 252.479069 
L 179.988129 250.758164 
L 179.713744 254.748742 
z
" style="stroke:#000000;stroke-linecap:round;"/>
   </g>
   <g id="patch_31">
    <path clip-path="url(#p9ffd2a87a9)" d="M 460.748739 276.339254 
Q 554.137737 337.927379 646.59339 398.899981 
" style="fill:none;stroke:#000000;stroke-linecap:round;"/>
    <path clip-path="url(#p9ffd2a87a9)" d="M 644.355233 395.028205 
L 646.59339 398.899981 
L 642.153075 398.367442 
L 644.355233 395.028205 
z
" style="stroke:#000000;stroke-linecap:round;"/>
   </g>
   <g id="patch_32">
    <path clip-path="url(#p9ffd2a87a9)" d="M 459.964054 277.349363 
Q 543.831491 352.530827 626.866425 426.966008 
" style="fill:none;stroke:#000000;stroke-linecap:round;"/>
    <path clip-path="url(#p9ffd2a87a9)" d="M 625.222962 422.806798 
L 626.866425 426.966008 
L 622.552979 425.785253 
L 625.222962 422.806798 
z
" style="stroke:#000000;stroke-linecap:round;"/>
   </g>
   <g id="patch_33">
    <path clip-path="url(#p9ffd2a87a9)" d="M 461.414297 275.132527 
Q 575.984138 326.814069 689.534838 378.035884 
" style="fill:none;stroke:#000000;stroke-linecap:round;"/>
    <path clip-path="url(#p9ffd2a87a9)" d="M 686.711028 374.568018 
L 689.534838 378.035884 
L 685.066259 378.214212 
L 686.711028 374.568018 
z
" style="stroke:#000000;stroke-linecap:round;"/>
   </g>
   <g id="patch_34">
    <path clip-path="url(#p9ffd2a87a9)" d="M 445.585307 275.056291 
Q 391.895312 298.652961 339.228858 321.799785 
" style="fill:none;stroke:#000000;stroke-linecap:round;"/>
    <path clip-path="url(#p9ffd2a87a9)" d="M 343.695503 322.021338 
L 339.228858 321.799785 
L 342.086088 318.359401 
L 343.695503 322.021338 
z
" style="stroke:#000000;stroke-linecap:round;"/>
   </g>
   <g id="patch_35">
    <path clip-path="url(#p9ffd2a87a9)" d="M 447.177573 265.674088 
Q 378.604356 201.898259 310.849827 138.883842 
" style="fill:none;stroke:#000000;stroke-linecap:round;"/>
    <path clip-path="url(#p9ffd2a87a9)" d="M 312.416798 143.072469 
L 310.849827 138.883842 
L 315.140911 140.143441 
L 312.416798 143.072469 
z
" style="stroke:#000000;stroke-linecap:round;"/>
   </g>
   <g id="patch_36">
    <path clip-path="url(#p9ffd2a87a9)" d="M 456.471659 263.426059 
Q 481.225236 195.190444 505.59754 128.005844 
" style="fill:none;stroke:#000000;stroke-linecap:round;"/>
    <path clip-path="url(#p9ffd2a87a9)" d="M 502.353347 131.084027 
L 505.59754 128.005844 
L 506.11357 132.448109 
L 502.353347 131.084027 
z
" style="stroke:#000000;stroke-linecap:round;"/>
   </g>
   <g id="patch_37">
    <path clip-path="url(#p9ffd2a87a9)" d="M 451.695306 263.101373 
Q 435.88052 189.589506 420.30088 117.170666 
" style="fill:none;stroke:#000000;stroke-linecap:round;"/>
    <path clip-path="url(#p9ffd2a87a9)" d="M 419.186897 121.501836 
L 420.30088 117.170666 
L 423.097427 120.660555 
L 419.186897 121.501836 
z
" style="stroke:#000000;stroke-linecap:round;"/>
   </g>
   <g id="patch_38">
    <path clip-path="url(#p9ffd2a87a9)" d="M 449.449021 263.923133 
Q 415.320186 199.770521 381.716455 136.604958 
" style="fill:none;stroke:#000000;stroke-linecap:round;"/>
    <path clip-path="url(#p9ffd2a87a9)" d="M 381.829439 141.075667 
L 381.716455 136.604958 
L 385.360812 139.196996 
L 381.829439 141.075667 
z
" style="stroke:#000000;stroke-linecap:round;"/>
   </g>
   <g id="patch_39">
    <path clip-path="url(#p9ffd2a87a9)" d="M 453.976657 262.922732 
Q 457.579312 195.112218 461.122652 128.418164 
" style="fill:none;stroke:#000000;stroke-linecap:round;"/>
    <path clip-path="url(#p9ffd2a87a9)" d="M 458.913254 132.306424 
L 461.122652 128.418164 
L 462.907621 132.518638 
L 458.913254 132.306424 
z
" style="stroke:#000000;stroke-linecap:round;"/>
   </g>
   <g id="patch_40">
    <path clip-path="url(#p9ffd2a87a9)" d="M 448.66195 264.396017 
Q 399.858205 192.283175 351.681095 121.096254 
" style="fill:none;stroke:#000000;stroke-linecap:round;"/>
    <path clip-path="url(#p9ffd2a87a9)" d="M 352.266673 125.529887 
L 351.681095 121.096254 
L 355.579348 123.287971 
L 352.266673 125.529887 
z
" style="stroke:#000000;stroke-linecap:round;"/>
   </g>
   <g id="patch_41">
    <path clip-path="url(#p9ffd2a87a9)" d="M 456.908568 279.541105 
Q 495.310416 369.799469 533.27455 459.029045 
" style="fill:none;stroke:#000000;stroke-linecap:round;"/>
    <path clip-path="url(#p9ffd2a87a9)" d="M 533.548888 454.565331 
L 533.27455 459.029045 
L 529.868182 456.131346 
L 533.548888 454.565331 
z
" style="stroke:#000000;stroke-linecap:round;"/>
   </g>
   <g id="patch_42">
    <path clip-path="url(#p9ffd2a87a9)" d="M 445.388196 268.577744 
Q 335.911726 228.277015 227.484458 188.362521 
" style="fill:none;stroke:#000000;stroke-linecap:round;"/>
    <path clip-path="url(#p9ffd2a87a9)" d="M 230.547277 191.621223 
L 227.484458 188.362521 
L 231.929111 187.867487 
L 230.547277 191.621223 
z
" style="stroke:#000000;stroke-linecap:round;"/>
   </g>
   <g id="patch_43">
    <path clip-path="url(#p9ffd2a87a9)" d="M 450.822467 279.79906 
Q 433.938821 331.355629 417.403125 381.849686 
" style="fill:none;stroke:#000000;stroke-linecap:round;"/>
    <path clip-path="url(#p9ffd2a87a9)" d="M 420.548665 378.670759 
L 417.403125 381.849686 
L 416.747307 377.425898 
L 420.548665 378.670759 
z
" style="stroke:#000000;stroke-linecap:round;"/>
   </g>
   <g id="patch_44">
    <path clip-path="url(#p9ffd2a87a9)" d="M 461.909014 269.421224 
Q 576.553315 240.06269 690.114532 210.981515 
" style="fill:none;stroke:#000000;stroke-linecap:round;"/>
    <path clip-path="url(#p9ffd2a87a9)" d="M 685.743415 210.036349 
L 690.114532 210.981515 
L 686.735729 213.911309 
L 685.743415 210.036349 
z
" style="stroke:#000000;stroke-linecap:round;"/>
   </g>
   <g id="patch_45">
    <path clip-path="url(#p9ffd2a87a9)" d="M 451.671597 280.030738 
Q 431.421109 372.860421 411.408911 464.597759 
" style="fill:none;stroke:#000000;stroke-linecap:round;"/>
    <path clip-path="url(#p9ffd2a87a9)" d="M 414.215494 461.115936 
L 411.408911 464.597759 
L 410.307403 460.263398 
L 414.215494 461.115936 
z
" style="stroke:#000000;stroke-linecap:round;"/>
   </g>
   <g id="patch_46">
    <path clip-path="url(#p9ffd2a87a9)" d="M 445.081902 269.595762 
Q 313.560542 238.810497 183.127792 208.280043 
" style="fill:none;stroke:#000000;stroke-linecap:round;"/>
    <path clip-path="url(#p9ffd2a87a9)" d="M 186.566701 211.139048 
L 183.127792 208.280043 
L 187.478341 207.244319 
L 186.566701 211.139048 
z
" style="stroke:#000000;stroke-linecap:round;"/>
   </g>
   <g id="patch_47">
    <path clip-path="url(#p9ffd2a87a9)" d="M 449.80976 279.399864 
Q 408.638201 366.348223 367.945119 452.286107 
" style="fill:none;stroke:#000000;stroke-linecap:round;"/>
    <path clip-path="url(#p9ffd2a87a9)" d="M 371.464564 449.526848 
L 367.945119 452.286107 
L 367.849379 447.814995 
L 371.464564 449.526848 
z
" style="stroke:#000000;stroke-linecap:round;"/>
   </g>
   <g id="patch_48">
    <path clip-path="url(#p9ffd2a87a9)" d="M 444.964623 272.921695 
Q 310.898077 294.106705 177.935864 315.11721 
" style="fill:none;stroke:#000000;stroke-linecap:round;"/>
    <path clip-path="url(#p9ffd2a87a9)" d="M 182.199004 316.46837 
L 177.935864 315.11721 
L 181.574676 312.517394 
L 182.199004 316.46837 
z
" style="stroke:#000000;stroke-linecap:round;"/>
   </g>
   <g id="patch_49">
    <path clip-path="url(#p9ffd2a87a9)" d="M 459.94597 265.771181 
Q 520.925955 210.764203 581.075757 156.506091 
" style="fill:none;stroke:#000000;stroke-linecap:round;"/>
    <path clip-path="url(#p9ffd2a87a9)" d="M 576.765999 157.700238 
L 581.075757 156.506091 
L 579.44522 160.670385 
L 576.765999 157.700238 
z
" style="stroke:#000000;stroke-linecap:round;"/>
   </g>
   <g id="patch_50">
    <path clip-path="url(#p9ffd2a87a9)" d="M 461.746408 274.257167 
Q 576.366411 311.682228 689.923599 348.760265 
" style="fill:none;stroke:#000000;stroke-linecap:round;"/>
    <path clip-path="url(#p9ffd2a87a9)" d="M 686.741935 345.617494 
L 689.923599 348.760265 
L 685.500384 349.419934 
L 686.741935 345.617494 
z
" style="stroke:#000000;stroke-linecap:round;"/>
   </g>
   <g id="patch_51">
    <path clip-path="url(#p9ffd2a87a9)" d="M 458.370969 264.399197 
Q 504.023693 196.95079 549.049729 130.428267 
" style="fill:none;stroke:#000000;stroke-linecap:round;"/>
    <path clip-path="url(#p9ffd2a87a9)" d="M 545.151348 132.619757 
L 549.049729 130.428267 
L 548.463892 134.861866 
L 545.151348 132.619757 
z
" style="stroke:#000000;stroke-linecap:round;"/>
   </g>
   <g id="patch_52">
    <path clip-path="url(#p9ffd2a87a9)" d="M 454.770437 273.798131 
Q 582.868777 296.574567 709.866348 319.155282 
" style="fill:none;stroke:#000000;stroke-linecap:round;"/>
    <path clip-path="url(#p9ffd2a87a9)" d="M 706.278233 316.485931 
L 709.866348 319.155282 
L 705.577998 320.424163 
L 706.278233 316.485931 
z
" style="stroke:#000000;stroke-linecap:round;"/>
   </g>
   <g id="patch_53">
    <path clip-path="url(#p9ffd2a87a9)" d="M 439.229099 267.201347 
Q 353.444325 205.068379 268.565029 143.591239 
" style="fill:none;stroke:#000000;stroke-linecap:round;"/>
    <path clip-path="url(#p9ffd2a87a9)" d="M 270.631385 147.557367 
L 268.565029 143.591239 
L 272.977745 144.317831 
L 270.631385 147.557367 
z
" style="stroke:#000000;stroke-linecap:round;"/>
   </g>
   <g id="patch_54">
    <path clip-path="url(#p9ffd2a87a9)" d="M 437.604971 271.650702 
Q 306.174193 262.04517 175.858476 252.521132 
" style="fill:none;stroke:#000000;stroke-linecap:round;"/>
    <path clip-path="url(#p9ffd2a87a9)" d="M 179.702056 254.807372 
L 175.858476 252.521132 
L 179.993616 250.818012 
L 179.702056 254.807372 
z
" style="stroke:#000000;stroke-linecap:round;"/>
   </g>
   <g id="patch_55">
    <path clip-path="url(#p9ffd2a87a9)" d="M 453.55857 276.912726 
Q 550.50074 338.28311 646.498258 399.05547 
" style="fill:none;stroke:#000000;stroke-linecap:round;"/>
    <path clip-path="url(#p9ffd2a87a9)" d="M 644.188343 395.226071 
L 646.498258 399.05547 
L 642.04879 398.605762 
L 644.188343 395.226071 
z
" style="stroke:#000000;stroke-linecap:round;"/>
   </g>
   <g id="patch_56">
    <path clip-path="url(#p9ffd2a87a9)" d="M 452.818392 277.922648 
Q 540.198287 352.889805 626.729643 427.128962 
" style="fill:none;stroke:#000000;stroke-linecap:round;"/>
    <path clip-path="url(#p9ffd2a87a9)" d="M 624.996105 423.006481 
L 626.729643 427.128962 
L 622.391536 426.042304 
L 624.996105 423.006481 
z
" style="stroke:#000000;stroke-linecap:round;"/>
   </g>
   <g id="patch_57">
    <path clip-path="url(#p9ffd2a87a9)" d="M 454.183027 275.737671 
Q 572.344975 327.1689 689.481786 378.153927 
" style="fill:none;stroke:#000000;stroke-linecap:round;"/>
    <path clip-path="url(#p9ffd2a87a9)" d="M 686.612336 374.72373 
L 689.481786 378.153927 
L 685.015957 378.391369 
L 686.612336 374.72373 
z
" style="stroke:#000000;stroke-linecap:round;"/>
   </g>
   <g id="patch_58">
    <path clip-path="url(#p9ffd2a87a9)" d="M 438.376625 275.908283 
Q 388.26088 299.007889 339.160501 321.639488 
" style="fill:none;stroke:#000000;stroke-linecap:round;"/>
    <path clip-path="url(#p9ffd2a87a9)" d="M 343.630383 321.781435 
L 339.160501 321.639488 
L 341.955987 318.14875 
L 343.630383 321.781435 
z
" style="stroke:#000000;stroke-linecap:round;"/>
   </g>
   <g id="patch_59">
    <path clip-path="url(#p9ffd2a87a9)" d="M 440.068405 266.214765 
Q 374.967558 202.254151 310.664234 139.077091 
" style="fill:none;stroke:#000000;stroke-linecap:round;"/>
    <path clip-path="url(#p9ffd2a87a9)" d="M 312.115874 143.307072 
L 310.664234 139.077091 
L 314.919203 140.453768 
L 312.115874 143.307072 
z
" style="stroke:#000000;stroke-linecap:round;"/>
   </g>
   <g id="patch_60">
    <path clip-path="url(#p9ffd2a87a9)" d="M 449.518158 264.26622 
Q 477.587178 195.549838 505.233418 127.868473 
" style="fill:none;stroke:#000000;stroke-linecap:round;"/>
    <path clip-path="url(#p9ffd2a87a9)" d="M 501.869344 130.815167 
L 505.233418 127.868473 
L 505.572329 132.327748 
L 501.869344 130.815167 
z
" style="stroke:#000000;stroke-linecap:round;"/>
   </g>
   <g id="patch_61">
    <path clip-path="url(#p9ffd2a87a9)" d="M 444.792497 263.7463 
Q 432.243535 189.94383 419.881987 117.243575 
" style="fill:none;stroke:#000000;stroke-linecap:round;"/>
    <path clip-path="url(#p9ffd2a87a9)" d="M 418.580801 121.522233 
L 419.881987 117.243575 
L 422.524202 120.851719 
L 418.580801 121.522233 
z
" style="stroke:#000000;stroke-linecap:round;"/>
   </g>
   <g id="patch_62">
    <path clip-path="url(#p9ffd2a87a9)" d="M 442.503929 264.47376 
Q 411.684254 200.127971 381.347543 136.790521 
" style="fill:none;stroke:#000000;stroke-linecap:round;"/>
    <path clip-path="url(#p9ffd2a87a9)" d="M 381.271675 141.262013 
L 381.347543 136.790521 
L 384.879216 139.53411 
L 381.271675 141.262013 
z
" style="stroke:#000000;stroke-linecap:round;"/>
   </g>
   <g id="patch_63">
    <path clip-path="url(#p9ffd2a87a9)" d="M 447.107082 263.669341 
Q 453.942542 195.468078 460.666507 128.379276 
" style="fill:none;stroke:#000000;stroke-linecap:round;"/>
    <path clip-path="url(#p9ffd2a87a9)" d="M 458.277576 132.159885 
L 460.666507 128.379276 
L 462.257636 132.558786 
L 458.277576 132.159885 
z
" style="stroke:#000000;stroke-linecap:round;"/>
   </g>
   <g id="patch_64">
    <path clip-path="url(#p9ffd2a87a9)" d="M 441.638274 264.949273 
Q 396.222213 192.640149 351.400806 121.277802 
" style="fill:none;stroke:#000000;stroke-linecap:round;"/>
    <path clip-path="url(#p9ffd2a87a9)" d="M 351.834657 125.728844 
L 351.400806 121.277802 
L 355.22195 123.601346 
L 351.834657 125.728844 
z
" style="stroke:#000000;stroke-linecap:round;"/>
   </g>
   <g id="patch_65">
    <path clip-path="url(#p9ffd2a87a9)" d="M 449.888721 280.134466 
Q 491.673378 370.154566 532.987315 459.160555 
" style="fill:none;stroke:#000000;stroke-linecap:round;"/>
    <path clip-path="url(#p9ffd2a87a9)" d="M 533.117312 454.690309 
L 532.987315 459.160555 
L 529.489116 456.374409 
L 533.117312 454.690309 
z
" style="stroke:#000000;stroke-linecap:round;"/>
   </g>
   <g id="patch_66">
    <path clip-path="url(#p9ffd2a87a9)" d="M 438.157533 269.185067 
Q 332.277734 228.63394 227.442014 188.482687 
" style="fill:none;stroke:#000000;stroke-linecap:round;"/>
    <path clip-path="url(#p9ffd2a87a9)" d="M 230.462108 191.781025 
L 227.442014 188.482687 
L 231.89274 188.045615 
L 230.462108 191.781025 
z
" style="stroke:#000000;stroke-linecap:round;"/>
   </g>
   <g id="patch_67">
    <path clip-path="url(#p9ffd2a87a9)" d="M 444.000988 280.643291 
Q 430.302111 331.711162 416.892904 381.699175 
" style="fill:none;stroke:#000000;stroke-linecap:round;"/>
    <path clip-path="url(#p9ffd2a87a9)" d="M 419.860966 378.353939 
L 416.892904 381.699175 
L 415.997552 377.317584 
L 419.860966 378.353939 
z
" style="stroke:#000000;stroke-linecap:round;"/>
   </g>
   <g id="patch_68">
    <path clip-path="url(#p9ffd2a87a9)" d="M 454.644029 270.169083 
Q 572.915957 240.418792 690.103627 210.941236 
" style="fill:none;stroke:#000000;stroke-linecap:round;"/>
    <path clip-path="url(#p9ffd2a87a9)" d="M 685.736583 209.977426 
L 690.103627 210.941236 
L 686.712352 213.856585 
L 685.736583 209.977426 
z
" style="stroke:#000000;stroke-linecap:round;"/>
   </g>
   <g id="patch_69">
    <path clip-path="url(#p9ffd2a87a9)" d="M 444.686225 280.799105 
Q 427.784255 373.217097 411.083421 464.535297 
" style="fill:none;stroke:#000000;stroke-linecap:round;"/>
    <path clip-path="url(#p9ffd2a87a9)" d="M 413.770399 460.960363 
L 411.083421 464.535297 
L 409.835661 460.240754 
L 413.770399 460.960363 
z
" style="stroke:#000000;stroke-linecap:round;"/>
   </g>
   <g id="patch_70">
    <path clip-path="url(#p9ffd2a87a9)" d="M 437.828051 270.237649 
Q 309.925818 239.16687 183.110021 208.360015 
" style="fill:none;stroke:#000000;stroke-linecap:round;"/>
    <path clip-path="url(#p9ffd2a87a9)" d="M 186.524854 211.247734 
L 183.110021 208.360015 
L 187.469096 207.360781 
L 186.524854 211.247734 
z
" style="stroke:#000000;stroke-linecap:round;"/>
   </g>
   <g id="patch_71">
    <path clip-path="url(#p9ffd2a87a9)" d="M 442.776418 280.220621 
Q 405.001396 366.704509 367.673888 452.163833 
" style="fill:none;stroke:#000000;stroke-linecap:round;"/>
    <path clip-path="url(#p9ffd2a87a9)" d="M 371.107763 449.298785 
L 367.673888 452.163833 
L 367.442175 447.697704 
L 371.107763 449.298785 
z
" style="stroke:#000000;stroke-linecap:round;"/>
   </g>
   <g id="patch_72">
    <path clip-path="url(#p9ffd2a87a9)" d="M 437.688788 273.647398 
Q 307.258636 294.463065 177.932547 315.102532 
" style="fill:none;stroke:#000000;stroke-linecap:round;"/>
    <path clip-path="url(#p9ffd2a87a9)" d="M 182.197757 316.447147 
L 177.932547 315.102532 
L 181.567365 312.497133 
L 182.197757 316.447147 
z
" style="stroke:#000000;stroke-linecap:round;"/>
   </g>
   <g id="patch_73">
    <path clip-path="url(#p9ffd2a87a9)" d="M 452.806951 266.632007 
Q 517.291374 211.118259 580.928491 156.333945 
" style="fill:none;stroke:#000000;stroke-linecap:round;"/>
    <path clip-path="url(#p9ffd2a87a9)" d="M 576.592228 157.427939 
L 580.928491 156.333945 
L 579.201929 160.459352 
L 576.592228 157.427939 
z
" style="stroke:#000000;stroke-linecap:round;"/>
   </g>
   <g id="patch_74">
    <path clip-path="url(#p9ffd2a87a9)" d="M 454.508215 274.879656 
Q 572.730187 312.038293 689.88557 348.861688 
" style="fill:none;stroke:#000000;stroke-linecap:round;"/>
    <path clip-path="url(#p9ffd2a87a9)" d="M 686.669324 345.754316 
L 689.88557 348.861688 
L 685.469924 349.570261 
L 686.669324 345.754316 
z
" style="stroke:#000000;stroke-linecap:round;"/>
   </g>
   <g id="patch_75">
    <path clip-path="url(#p9ffd2a87a9)" d="M 451.314907 265.259888 
Q 500.388401 197.304721 548.807342 130.255955 
" style="fill:none;stroke:#000000;stroke-linecap:round;"/>
    <path clip-path="url(#p9ffd2a87a9)" d="M 544.844126 132.327891 
L 548.807342 130.255955 
L 548.086961 134.669689 
L 544.844126 132.327891 
z
" style="stroke:#000000;stroke-linecap:round;"/>
   </g>
   <g id="patch_76">
    <path clip-path="url(#p9ffd2a87a9)" d="M 544.968293 345.270057 
Q 590.771332 352.695816 635.470747 359.942652 
" style="fill:none;stroke:#000000;stroke-linecap:round;"/>
    <path clip-path="url(#p9ffd2a87a9)" d="M 631.84237 357.328292 
L 635.470747 359.942652 
L 631.202233 361.276738 
L 631.84237 357.328292 
z
" style="stroke:#000000;stroke-linecap:round;"/>
   </g>
   <g id="patch_77">
    <path clip-path="url(#p9ffd2a87a9)" d="M 405.83136 392.645641 
Q 335.73485 404.975842 266.739469 417.11235 
" style="fill:none;stroke:#000000;stroke-linecap:round;"/>
    <path clip-path="url(#p9ffd2a87a9)" d="M 271.025472 418.389134 
L 266.739469 417.11235 
L 270.332498 414.449618 
L 271.025472 418.389134 
z
" style="stroke:#000000;stroke-linecap:round;"/>
   </g>
   <g id="patch_78">
    <path clip-path="url(#p9ffd2a87a9)" d="M 325.185958 318.728633 
Q 314.3766 303.855204 304.224531 289.886191 
" style="fill:none;stroke:#000000;stroke-linecap:round;"/>
    <path clip-path="url(#p9ffd2a87a9)" d="M 304.958256 294.297727 
L 304.224531 289.886191 
L 308.193995 291.946133 
L 304.958256 294.297727 
z
" style="stroke:#000000;stroke-linecap:round;"/>
   </g>
   <g id="patch_79">
    <path clip-path="url(#p9ffd2a87a9)" d="M 321.641766 325.027602 
Q 294.56639 322.812662 268.605325 320.688879 
" style="fill:none;stroke:#000000;stroke-linecap:round;"/>
    <path clip-path="url(#p9ffd2a87a9)" d="M 272.428939 323.008356 
L 268.605325 320.688879 
L 272.755076 319.021674 
L 272.428939 323.008356 
z
" style="stroke:#000000;stroke-linecap:round;"/>
   </g>
   <g id="patch_80">
    <path clip-path="url(#p9ffd2a87a9)" d="M 328.133079 317.340812 
Q 326.416617 310.621607 324.976877 304.985649 
" style="fill:none;stroke:#000000;stroke-linecap:round;"/>
    <path clip-path="url(#p9ffd2a87a9)" d="M 324.029137 309.356208 
L 324.976877 304.985649 
L 327.90468 308.366177 
L 324.029137 309.356208 
z
" style="stroke:#000000;stroke-linecap:round;"/>
   </g>
   <g id="patch_81">
    <path clip-path="url(#p9ffd2a87a9)" d="M 322.150183 322.747535 
Q 269.561258 303.422213 218.021753 284.482531 
" style="fill:none;stroke:#000000;stroke-linecap:round;"/>
    <path clip-path="url(#p9ffd2a87a9)" d="M 221.086418 287.739497 
L 218.021753 284.482531 
L 222.466125 283.984978 
L 221.086418 287.739497 
z
" style="stroke:#000000;stroke-linecap:round;"/>
   </g>
   <g id="patch_82">
    <path clip-path="url(#p9ffd2a87a9)" d="M 488.953766 209.226999 
Q 433.068115 213.088247 378.297838 216.872433 
" style="fill:none;stroke:#000000;stroke-linecap:round;"/>
    <path clip-path="url(#p9ffd2a87a9)" d="M 382.42618 218.591965 
L 378.297838 216.872433 
L 382.15047 214.601479 
L 382.42618 218.591965 
z
" style="stroke:#000000;stroke-linecap:round;"/>
   </g>
   <g id="patch_83">
    <path clip-path="url(#p9ffd2a87a9)" d="M 504.536456 213.804681 
Q 537.848405 238.619474 570.263747 262.766364 
" style="fill:none;stroke:#000000;stroke-linecap:round;"/>
    <path clip-path="url(#p9ffd2a87a9)" d="M 568.250726 258.772901 
L 570.263747 262.766364 
L 565.861164 261.980704 
L 568.250726 258.772901 
z
" style="stroke:#000000;stroke-linecap:round;"/>
   </g>
   <g id="patch_84">
    <path clip-path="url(#p9ffd2a87a9)" d="M 372.193728 265.501584 
Q 428.959343 248.895141 484.651899 232.602615 
" style="fill:none;stroke:#000000;stroke-linecap:round;"/>
    <path clip-path="url(#p9ffd2a87a9)" d="M 480.251253 231.806172 
L 484.651899 232.602615 
L 481.374357 235.645266 
L 480.251253 231.806172 
z
" style="stroke:#000000;stroke-linecap:round;"/>
   </g>
   <g id="patch_85">
    <path clip-path="url(#p9ffd2a87a9)" d="M 372.234077 265.649586 
Q 400.85127 257.825233 428.390012 250.295745 
" style="fill:none;stroke:#000000;stroke-linecap:round;"/>
    <path clip-path="url(#p9ffd2a87a9)" d="M 424.004162 249.421491 
L 428.390012 250.295745 
L 425.059099 253.279873 
L 424.004162 249.421491 
z
" style="stroke:#000000;stroke-linecap:round;"/>
   </g>
   <g id="patch_86">
    <path clip-path="url(#p9ffd2a87a9)" d="M 614.965304 158.772719 
Q 570.522992 165.527571 527.18602 172.114421 
" style="fill:none;stroke:#000000;stroke-linecap:round;"/>
    <path clip-path="url(#p9ffd2a87a9)" d="M 531.441134 173.490649 
L 527.18602 172.114421 
L 530.840072 169.536066 
L 531.441134 173.490649 
z
" style="stroke:#000000;stroke-linecap:round;"/>
   </g>
   <g id="patch_87">
    <path clip-path="url(#p9ffd2a87a9)" d="M 522.806222 180.444908 
Q 542.312284 205.757979 561.135911 230.185453 
" style="fill:none;stroke:#000000;stroke-linecap:round;"/>
    <path clip-path="url(#p9ffd2a87a9)" d="M 560.278564 225.796267 
L 561.135911 230.185453 
L 557.110154 228.237819 
L 560.278564 225.796267 
z
" style="stroke:#000000;stroke-linecap:round;"/>
   </g>
   <g id="patch_88">
    <path clip-path="url(#p9ffd2a87a9)" d="M 558.772128 240.298613 
Q 506.671834 255.106872 455.646978 269.609463 
" style="fill:none;stroke:#000000;stroke-linecap:round;"/>
    <path clip-path="url(#p9ffd2a87a9)" d="M 460.041378 270.439676 
L 455.646978 269.609463 
L 458.947788 266.592072 
L 460.041378 270.439676 
z
" style="stroke:#000000;stroke-linecap:round;"/>
   </g>
   <g id="patch_89">
    <path clip-path="url(#p9ffd2a87a9)" d="M 639.59923 368.176021 
Q 612.995244 400.29091 587.104496 431.544816 
" style="fill:none;stroke:#000000;stroke-linecap:round;"/>
    <path clip-path="url(#p9ffd2a87a9)" d="M 591.196428 429.74035 
L 587.104496 431.544816 
L 588.116082 427.188591 
L 591.196428 429.74035 
z
" style="stroke:#000000;stroke-linecap:round;"/>
   </g>
   <g id="patch_90">
    <path clip-path="url(#p9ffd2a87a9)" d="M 310.247142 336.048441 
Q 305.282978 313.245013 300.556633 291.534032 
" style="fill:none;stroke:#000000;stroke-linecap:round;"/>
    <path clip-path="url(#p9ffd2a87a9)" d="M 299.45325 295.867915 
L 300.556633 291.534032 
L 303.36171 295.017068 
L 299.45325 295.867915 
z
" style="stroke:#000000;stroke-linecap:round;"/>
   </g>
   <g id="patch_91">
    <path clip-path="url(#p9ffd2a87a9)" d="M 304.229855 340.875397 
Q 285.474669 332.201454 267.734247 323.996822 
" style="fill:none;stroke:#000000;stroke-linecap:round;"/>
    <path clip-path="url(#p9ffd2a87a9)" d="M 270.525251 327.491146 
L 267.734247 323.996822 
L 272.204308 323.860613 
L 270.525251 327.491146 
z
" style="stroke:#000000;stroke-linecap:round;"/>
   </g>
   <g id="patch_92">
    <path clip-path="url(#p9ffd2a87a9)" d="M 313.89787 336.043622 
Q 317.322704 320.011439 320.513971 305.07262 
" style="fill:none;stroke:#000000;stroke-linecap:round;"/>
    <path clip-path="url(#p9ffd2a87a9)" d="M 317.722465 308.566543 
L 320.513971 305.07262 
L 321.634205 309.402178 
L 317.722465 308.566543 
z
" style="stroke:#000000;stroke-linecap:round;"/>
   </g>
   <g id="patch_93">
    <path clip-path="url(#p9ffd2a87a9)" d="M 304.706827 339.976891 
Q 260.465423 312.809465 217.17676 286.227091 
" style="fill:none;stroke:#000000;stroke-linecap:round;"/>
    <path clip-path="url(#p9ffd2a87a9)" d="M 219.538816 290.024549 
L 217.17676 286.227091 
L 221.63196 286.615921 
L 219.538816 290.024549 
z
" style="stroke:#000000;stroke-linecap:round;"/>
   </g>
   <g id="patch_94">
    <path clip-path="url(#p9ffd2a87a9)" d="M 273.409315 307.123836 
Q 282.88428 297.618305 291.569951 288.904616 
" style="fill:none;stroke:#000000;stroke-linecap:round;"/>
    <path clip-path="url(#p9ffd2a87a9)" d="M 287.329593 290.32566 
L 291.569951 288.904616 
L 290.162571 293.149529 
L 287.329593 290.32566 
z
" style="stroke:#000000;stroke-linecap:round;"/>
   </g>
   <g id="patch_95">
    <path clip-path="url(#p9ffd2a87a9)" d="M 260.486716 318.610505 
Q 259.672056 319.25097 259.73633 319.200439 
" style="fill:none;stroke:#000000;stroke-linecap:round;"/>
    <path clip-path="url(#p9ffd2a87a9)" d="M 264.11699 318.300541 
L 259.73633 319.200439 
L 261.644808 315.155972 
L 264.11699 318.300541 
z
" style="stroke:#000000;stroke-linecap:round;"/>
   </g>
   <g id="patch_96">
    <path clip-path="url(#p9ffd2a87a9)" d="M 275.541244 310.609989 
Q 294.92673 304.384352 313.247729 298.500574 
" style="fill:none;stroke:#000000;stroke-linecap:round;"/>
    <path clip-path="url(#p9ffd2a87a9)" d="M 308.827768 297.819435 
L 313.247729 298.500574 
L 310.050842 301.627859 
L 308.827768 297.819435 
z
" style="stroke:#000000;stroke-linecap:round;"/>
   </g>
   <g id="patch_97">
    <path clip-path="url(#p9ffd2a87a9)" d="M 259.706145 309.084815 
Q 238.069706 297.184546 217.412901 285.823087 
" style="fill:none;stroke:#000000;stroke-linecap:round;"/>
    <path clip-path="url(#p9ffd2a87a9)" d="M 219.953897 289.503215 
L 217.412901 285.823087 
L 221.881601 285.998366 
L 219.953897 289.503215 
z
" style="stroke:#000000;stroke-linecap:round;"/>
   </g>
   <g id="patch_98">
    <path clip-path="url(#p9ffd2a87a9)" d="M 293.617731 274.80925 
Q 257.425235 221.416748 221.860064 168.9497 
" style="fill:none;stroke:#000000;stroke-linecap:round;"/>
    <path clip-path="url(#p9ffd2a87a9)" d="M 222.448949 173.382895 
L 221.860064 168.9497 
L 225.759951 171.138508 
L 222.448949 173.382895 
z
" style="stroke:#000000;stroke-linecap:round;"/>
   </g>
   <g id="patch_99">
    <path clip-path="url(#p9ffd2a87a9)" d="M 293.664003 289.172767 
Q 260.844793 338.254904 228.647039 386.407635 
" style="fill:none;stroke:#000000;stroke-linecap:round;"/>
    <path clip-path="url(#p9ffd2a87a9)" d="M 232.532994 384.194187 
L 228.647039 386.407635 
L 229.207853 381.970802 
L 232.532994 384.194187 
z
" style="stroke:#000000;stroke-linecap:round;"/>
   </g>
   <g id="patch_100">
    <path clip-path="url(#p9ffd2a87a9)" d="M 256.622916 311.526695 
Q 237.615778 240.373808 218.897184 170.301079 
" style="fill:none;stroke:#000000;stroke-linecap:round;"/>
    <path clip-path="url(#p9ffd2a87a9)" d="M 217.997263 174.681735 
L 218.897184 170.301079 
L 221.861756 173.649409 
L 217.997263 174.681735 
z
" style="stroke:#000000;stroke-linecap:round;"/>
   </g>
   <g id="patch_101">
    <path clip-path="url(#p9ffd2a87a9)" d="M 255.12508 327.707199 
Q 241.033425 357.216231 227.423558 385.716363 
" style="fill:none;stroke:#000000;stroke-linecap:round;"/>
    <path clip-path="url(#p9ffd2a87a9)" d="M 230.95203 382.968657 
L 227.423558 385.716363 
L 227.342477 381.244962 
L 230.95203 382.968657 
z
" style="stroke:#000000;stroke-linecap:round;"/>
   </g>
   <g id="patch_102">
    <path clip-path="url(#p9ffd2a87a9)" d="M 317.195257 288.712194 
Q 269.46626 228.185055 222.429549 168.535832 
" style="fill:none;stroke:#000000;stroke-linecap:round;"/>
    <path clip-path="url(#p9ffd2a87a9)" d="M 223.335882 172.915166 
L 222.429549 168.535832 
L 226.476816 170.438366 
L 223.335882 172.915166 
z
" style="stroke:#000000;stroke-linecap:round;"/>
   </g>
   <g id="patch_103">
    <path clip-path="url(#p9ffd2a87a9)" d="M 316.423274 301.624591 
Q 272.885358 345.022478 230.139284 387.631071 
" style="fill:none;stroke:#000000;stroke-linecap:round;"/>
    <path clip-path="url(#p9ffd2a87a9)" d="M 234.384197 386.223693 
L 230.139284 387.631071 
L 231.560329 383.390713 
L 234.384197 386.223693 
z
" style="stroke:#000000;stroke-linecap:round;"/>
   </g>
   <g id="patch_104">
    <path clip-path="url(#p9ffd2a87a9)" d="M 209.384174 272.467082 
Q 212.608678 220.982651 215.763295 170.614069 
" style="fill:none;stroke:#000000;stroke-linecap:round;"/>
    <path clip-path="url(#p9ffd2a87a9)" d="M 213.517173 174.48123 
L 215.763295 170.614069 
L 217.509351 174.731263 
L 213.517173 174.48123 
z
" style="stroke:#000000;stroke-linecap:round;"/>
   </g>
   <g id="patch_105">
    <path clip-path="url(#p9ffd2a87a9)" d="M 209.931689 289.704436 
Q 216.027594 337.825477 221.982991 384.837348 
" style="fill:none;stroke:#000000;stroke-linecap:round;"/>
    <path clip-path="url(#p9ffd2a87a9)" d="M 223.464437 380.617713 
L 221.982991 384.837348 
L 219.496151 381.12041 
L 223.464437 380.617713 
z
" style="stroke:#000000;stroke-linecap:round;"/>
   </g>
   <g id="patch_106">
    <path clip-path="url(#p9ffd2a87a9)" d="M 541.567468 406.544159 
Q 539.348023 379.530031 537.220127 353.630182 
" style="fill:none;stroke:#000000;stroke-linecap:round;"/>
    <path clip-path="url(#p9ffd2a87a9)" d="M 535.554374 357.780516 
L 537.220127 353.630182 
L 539.540942 357.452984 
L 535.554374 357.780516 
z
" style="stroke:#000000;stroke-linecap:round;"/>
   </g>
   <g id="patch_107">
    <path clip-path="url(#p9ffd2a87a9)" d="M 348.968064 371.348559 
Q 438.410462 358.243883 526.746637 345.301286 
" style="fill:none;stroke:#000000;stroke-linecap:round;"/>
    <path clip-path="url(#p9ffd2a87a9)" d="M 522.498956 343.902283 
L 526.746637 345.301286 
L 523.078826 347.860029 
L 522.498956 343.902283 
z
" style="stroke:#000000;stroke-linecap:round;"/>
   </g>
   <g id="patch_108">
    <path clip-path="url(#p9ffd2a87a9)" d="M 347.186786 315.608327 
Q 437.519545 329.106141 526.746547 342.43873 
" style="fill:none;stroke:#000000;stroke-linecap:round;"/>
    <path clip-path="url(#p9ffd2a87a9)" d="M 523.086032 339.86956 
L 526.746547 342.43873 
L 522.494902 343.825639 
L 523.086032 339.86956 
z
" style="stroke:#000000;stroke-linecap:round;"/>
   </g>
   <g id="patch_109">
    <path clip-path="url(#p9ffd2a87a9)" d="M 375.621524 222.532531 
Q 407.392744 244.913599 438.249948 266.650793 
" style="fill:none;stroke:#000000;stroke-linecap:round;"/>
    <path clip-path="url(#p9ffd2a87a9)" d="M 436.13166 262.712157 
L 438.249948 266.650793 
L 433.828066 265.982242 
L 436.13166 262.712157 
z
" style="stroke:#000000;stroke-linecap:round;"/>
   </g>
   <g id="patch_110">
    <path clip-path="url(#p9ffd2a87a9)" d="M 569.448739 268.848352 
Q 512.175847 270.444547 456.020555 272.009595 
" style="fill:none;stroke:#000000;stroke-linecap:round;"/>
    <path clip-path="url(#p9ffd2a87a9)" d="M 460.074721 273.897382 
L 456.020555 272.009595 
L 459.963284 269.898934 
L 460.074721 273.897382 
z
" style="stroke:#000000;stroke-linecap:round;"/>
   </g>
   <g id="patch_111">
    <path clip-path="url(#p9ffd2a87a9)" d="M 485.414705 229.011817 
Q 431.289325 223.701952 378.276637 218.501246 
" style="fill:none;stroke:#000000;stroke-linecap:round;"/>
    <path clip-path="url(#p9ffd2a87a9)" d="M 382.062258 220.882228 
L 378.276637 218.501246 
L 382.452795 216.901338 
L 382.062258 220.882228 
z
" style="stroke:#000000;stroke-linecap:round;"/>
   </g>
   <g id="patch_112">
    <path clip-path="url(#p9ffd2a87a9)" d="M 501.898907 233.482027 
Q 536.070263 249.23247 569.226253 264.514904 
" style="fill:none;stroke:#000000;stroke-linecap:round;"/>
    <path clip-path="url(#p9ffd2a87a9)" d="M 566.430766 261.024166 
L 569.226253 264.514904 
L 564.75637 264.65685 
L 566.430766 261.024166 
z
" style="stroke:#000000;stroke-linecap:round;"/>
   </g>
   <g id="patch_113">
    <path clip-path="url(#p9ffd2a87a9)" d="M 429.886329 244.26018 
Q 403.185457 232.632408 377.509638 221.451028 
" style="fill:none;stroke:#000000;stroke-linecap:round;"/>
    <path clip-path="url(#p9ffd2a87a9)" d="M 380.378447 224.881762 
L 377.509638 221.451028 
L 381.975511 221.214422 
L 380.378447 224.881762 
z
" style="stroke:#000000;stroke-linecap:round;"/>
   </g>
   <g id="patch_114">
    <path clip-path="url(#p9ffd2a87a9)" d="M 446.389604 248.992262 
Q 507.964151 258.161883 568.432859 267.166824 
" style="fill:none;stroke:#000000;stroke-linecap:round;"/>
    <path clip-path="url(#p9ffd2a87a9)" d="M 564.771077 264.59946 
L 568.432859 267.166824 
L 564.181899 268.55583 
L 564.771077 264.59946 
z
" style="stroke:#000000;stroke-linecap:round;"/>
   </g>
   <g id="PathCollection_1">
    <defs>
     <path d="M 0 8.660254 
C 2.296726 8.660254 4.499694 7.747755 6.123724 6.123724 
C 7.747755 4.499694 8.660254 2.296726 8.660254 -0 
C 8.660254 -2.296726 7.747755 -4.499694 6.123724 -6.123724 
C 4.499694 -7.747755 2.296726 -8.660254 0 -8.660254 
C -2.296726 -8.660254 -4.499694 -7.747755 -6.123724 -6.123724 
C -7.747755 -4.499694 -8.660254 -2.296726 -8.660254 0 
C -8.660254 2.296726 -7.747755 4.499694 -6.123724 6.123724 
C -4.499694 7.747755 -2.296726 8.660254 0 8.660254 
z
" id="C0_0_0d38285d3d"/>
    </defs>
    <g clip-path="url(#p9ffd2a87a9)">
     <use style="fill:#ff0000;stroke:#ff0000;" x="462.422653" xlink:href="#C0_0_0d38285d3d" y="341.68404"/>
    </g>
    <g clip-path="url(#p9ffd2a87a9)">
     <use style="fill:#ff0000;stroke:#ff0000;" x="634.149554" xlink:href="#C0_0_0d38285d3d" y="433.494839"/>
    </g>
    <g clip-path="url(#p9ffd2a87a9)">
     <use style="fill:#ff0000;stroke:#ff0000;" x="555.73669" xlink:href="#C0_0_0d38285d3d" y="297.467385"/>
    </g>
    <g clip-path="url(#p9ffd2a87a9)">
     <use style="fill:#ff0000;stroke:#ff0000;" x="449.744952" xlink:href="#C0_0_0d38285d3d" y="268.420501"/>
    </g>
    <g clip-path="url(#p9ffd2a87a9)">
     <use style="fill:#ff0000;stroke:#ff0000;" x="453.517231" xlink:href="#C0_0_0d38285d3d" y="271.570223"/>
    </g>
    <g clip-path="url(#p9ffd2a87a9)">
     <use style="fill:#ff0000;stroke:#ff0000;" x="446.243872" xlink:href="#C0_0_0d38285d3d" y="272.282071"/>
    </g>
    <g clip-path="url(#p9ffd2a87a9)">
     <use style="fill:#008000;stroke:#008000;" x="218.309976" xlink:href="#C0_0_0d38285d3d" y="184.985189"/>
    </g>
    <g clip-path="url(#p9ffd2a87a9)">
     <use style="fill:#ff0000;stroke:#ff0000;" x="536.4194" xlink:href="#C0_0_0d38285d3d" y="343.884079"/>
    </g>
    <g clip-path="url(#p9ffd2a87a9)">
     <use style="fill:#ff0000;stroke:#ff0000;" x="414.358911" xlink:href="#C0_0_0d38285d3d" y="391.145618"/>
    </g>
    <g clip-path="url(#p9ffd2a87a9)">
     <use style="fill:#ff0000;stroke:#ff0000;" x="699.58609" xlink:href="#C0_0_0d38285d3d" y="208.556003"/>
    </g>
    <g clip-path="url(#p9ffd2a87a9)">
     <use style="fill:#ff0000;stroke:#ff0000;" x="409.324526" xlink:href="#C0_0_0d38285d3d" y="474.152727"/>
    </g>
    <g clip-path="url(#p9ffd2a87a9)">
     <use style="fill:#ff0000;stroke:#ff0000;" x="260.648315" xlink:href="#C0_0_0d38285d3d" y="137.85725"/>
    </g>
    <g clip-path="url(#p9ffd2a87a9)">
     <use style="fill:#ff0000;stroke:#ff0000;" x="166.105785" xlink:href="#C0_0_0d38285d3d" y="251.808363"/>
    </g>
    <g clip-path="url(#p9ffd2a87a9)">
     <use style="fill:#ff0000;stroke:#ff0000;" x="654.758895" xlink:href="#C0_0_0d38285d3d" y="404.284964"/>
    </g>
    <g clip-path="url(#p9ffd2a87a9)">
     <use style="fill:#ff0000;stroke:#ff0000;" x="698.449611" xlink:href="#C0_0_0d38285d3d" y="382.057268"/>
    </g>
    <g clip-path="url(#p9ffd2a87a9)">
     <use style="fill:#ff0000;stroke:#ff0000;" x="330.277178" xlink:href="#C0_0_0d38285d3d" y="325.734035"/>
    </g>
    <g clip-path="url(#p9ffd2a87a9)">
     <use style="fill:#ff0000;stroke:#ff0000;" x="303.688233" xlink:href="#C0_0_0d38285d3d" y="132.223274"/>
    </g>
    <g clip-path="url(#p9ffd2a87a9)">
     <use style="fill:#ff0000;stroke:#ff0000;" x="508.932624" xlink:href="#C0_0_0d38285d3d" y="118.812366"/>
    </g>
    <g clip-path="url(#p9ffd2a87a9)">
     <use style="fill:#ff0000;stroke:#ff0000;" x="719.494215" xlink:href="#C0_0_0d38285d3d" y="320.867158"/>
    </g>
    <g clip-path="url(#p9ffd2a87a9)">
     <use style="fill:#ff0000;stroke:#ff0000;" x="418.243484" xlink:href="#C0_0_0d38285d3d" y="107.607273"/>
    </g>
    <g clip-path="url(#p9ffd2a87a9)">
     <use style="fill:#ff0000;stroke:#ff0000;" x="377.12348" xlink:href="#C0_0_0d38285d3d" y="127.971458"/>
    </g>
    <g clip-path="url(#p9ffd2a87a9)">
     <use style="fill:#ff0000;stroke:#ff0000;" x="461.641612" xlink:href="#C0_0_0d38285d3d" y="118.650102"/>
    </g>
    <g clip-path="url(#p9ffd2a87a9)">
     <use style="fill:#ff0000;stroke:#ff0000;" x="346.199961" xlink:href="#C0_0_0d38285d3d" y="112.997282"/>
    </g>
    <g clip-path="url(#p9ffd2a87a9)">
     <use style="fill:#ff0000;stroke:#ff0000;" x="537.103056" xlink:href="#C0_0_0d38285d3d" y="468.027432"/>
    </g>
    <g clip-path="url(#p9ffd2a87a9)">
     <use style="fill:#ff0000;stroke:#ff0000;" x="497.590232" xlink:href="#C0_0_0d38285d3d" y="208.630288"/>
    </g>
    <g clip-path="url(#p9ffd2a87a9)">
     <use style="fill:#ff0000;stroke:#ff0000;" x="363.880293" xlink:href="#C0_0_0d38285d3d" y="267.93363"/>
    </g>
    <g clip-path="url(#p9ffd2a87a9)">
     <use style="fill:#ff0000;stroke:#ff0000;" x="623.528773" xlink:href="#C0_0_0d38285d3d" y="157.471145"/>
    </g>
    <g clip-path="url(#p9ffd2a87a9)">
     <use style="fill:#ff0000;stroke:#ff0000;" x="517.519042" xlink:href="#C0_0_0d38285d3d" y="173.583719"/>
    </g>
    <g clip-path="url(#p9ffd2a87a9)">
     <use style="fill:#ff0000;stroke:#ff0000;" x="567.104139" xlink:href="#C0_0_0d38285d3d" y="237.930438"/>
    </g>
    <g clip-path="url(#p9ffd2a87a9)">
     <use style="fill:#008000;stroke:#008000;" x="645.123375" xlink:href="#C0_0_0d38285d3d" y="361.507572"/>
    </g>
    <g clip-path="url(#p9ffd2a87a9)">
     <use style="fill:#ff0000;stroke:#ff0000;" x="580.865228" xlink:href="#C0_0_0d38285d3d" y="439.076521"/>
    </g>
    <g clip-path="url(#p9ffd2a87a9)">
     <use style="fill:#ff0000;stroke:#ff0000;" x="173.609521" xlink:href="#C0_0_0d38285d3d" y="206.052097"/>
    </g>
    <g clip-path="url(#p9ffd2a87a9)">
     <use style="fill:#ff0000;stroke:#ff0000;" x="312.089216" xlink:href="#C0_0_0d38285d3d" y="344.510212"/>
    </g>
    <g clip-path="url(#p9ffd2a87a9)">
     <use style="fill:#ff0000;stroke:#ff0000;" x="267.294427" xlink:href="#C0_0_0d38285d3d" y="313.25845"/>
    </g>
    <g clip-path="url(#p9ffd2a87a9)">
     <use style="fill:#ff0000;stroke:#ff0000;" x="298.475977" xlink:href="#C0_0_0d38285d3d" y="281.976312"/>
    </g>
    <g clip-path="url(#p9ffd2a87a9)">
     <use style="fill:#ff0000;stroke:#ff0000;" x="258.857397" xlink:href="#C0_0_0d38285d3d" y="319.891436"/>
    </g>
    <g clip-path="url(#p9ffd2a87a9)">
     <use style="fill:#ff0000;stroke:#ff0000;" x="322.556535" xlink:href="#C0_0_0d38285d3d" y="295.511056"/>
    </g>
    <g clip-path="url(#p9ffd2a87a9)">
     <use style="fill:#ff0000;stroke:#ff0000;" x="208.842895" xlink:href="#C0_0_0d38285d3d" y="281.109494"/>
    </g>
    <g clip-path="url(#p9ffd2a87a9)">
     <use style="fill:#ff0000;stroke:#ff0000;" x="542.276351" xlink:href="#C0_0_0d38285d3d" y="415.172375"/>
    </g>
    <g clip-path="url(#p9ffd2a87a9)">
     <use style="fill:#ff0000;stroke:#ff0000;" x="340.39874" xlink:href="#C0_0_0d38285d3d" y="372.604095"/>
    </g>
    <g clip-path="url(#p9ffd2a87a9)">
     <use style="fill:#ff0000;stroke:#ff0000;" x="338.624402" xlink:href="#C0_0_0d38285d3d" y="314.328908"/>
    </g>
    <g clip-path="url(#p9ffd2a87a9)">
     <use style="fill:#ff0000;stroke:#ff0000;" x="257.110299" xlink:href="#C0_0_0d38285d3d" y="418.806152"/>
    </g>
    <g clip-path="url(#p9ffd2a87a9)">
     <use style="fill:#ff0000;stroke:#ff0000;" x="363.76" xlink:href="#C0_0_0d38285d3d" y="461.124471"/>
    </g>
    <g clip-path="url(#p9ffd2a87a9)">
     <use style="fill:#ff0000;stroke:#ff0000;" x="168.273599" xlink:href="#C0_0_0d38285d3d" y="316.644028"/>
    </g>
    <g clip-path="url(#p9ffd2a87a9)">
     <use style="fill:#ff0000;stroke:#ff0000;" x="588.33767" xlink:href="#C0_0_0d38285d3d" y="149.955484"/>
    </g>
    <g clip-path="url(#p9ffd2a87a9)">
     <use style="fill:#ff0000;stroke:#ff0000;" x="368.543402" xlink:href="#C0_0_0d38285d3d" y="217.546386"/>
    </g>
    <g clip-path="url(#p9ffd2a87a9)">
     <use style="fill:#ff0000;stroke:#ff0000;" x="578.104508" xlink:href="#C0_0_0d38285d3d" y="268.607116"/>
    </g>
    <g clip-path="url(#p9ffd2a87a9)">
     <use style="fill:#ff0000;stroke:#ff0000;" x="494.035386" xlink:href="#C0_0_0d38285d3d" y="229.857532"/>
    </g>
    <g clip-path="url(#p9ffd2a87a9)">
     <use style="fill:#ff0000;stroke:#ff0000;" x="437.823234" xlink:href="#C0_0_0d38285d3d" y="247.716566"/>
    </g>
    <g clip-path="url(#p9ffd2a87a9)">
     <use style="fill:#ff0000;stroke:#ff0000;" x="216.374385" xlink:href="#C0_0_0d38285d3d" y="160.857025"/>
    </g>
    <g clip-path="url(#p9ffd2a87a9)">
     <use style="fill:#ff0000;stroke:#ff0000;" x="223.211655" xlink:href="#C0_0_0d38285d3d" y="394.536418"/>
    </g>
    <g clip-path="url(#p9ffd2a87a9)">
     <use style="fill:#008000;stroke:#008000;" x="699.215356" xlink:href="#C0_0_0d38285d3d" y="351.794156"/>
    </g>
    <g clip-path="url(#p9ffd2a87a9)">
     <use style="fill:#ff0000;stroke:#ff0000;" x="554.531701" xlink:href="#C0_0_0d38285d3d" y="122.329073"/>
    </g>
   </g>
   <g id="text_1">
    <g clip-path="url(#p9ffd2a87a9)">
     <!-- RBX1 -->
     <g transform="translate(446.209528 344.99529)scale(0.12 -0.12)">
      <defs>
       <path d="M 44.390625 34.1875 
Q 47.5625 33.109375 50.5625 29.59375 
Q 53.5625 26.078125 56.59375 19.921875 
L 66.609375 0 
L 56 0 
L 46.6875 18.703125 
Q 43.0625 26.03125 39.671875 28.421875 
Q 36.28125 30.8125 30.421875 30.8125 
L 19.671875 30.8125 
L 19.671875 0 
L 9.8125 0 
L 9.8125 72.90625 
L 32.078125 72.90625 
Q 44.578125 72.90625 50.734375 67.671875 
Q 56.890625 62.453125 56.890625 51.90625 
Q 56.890625 45.015625 53.6875 40.46875 
Q 50.484375 35.9375 44.390625 34.1875 
z
M 19.671875 64.796875 
L 19.671875 38.921875 
L 32.078125 38.921875 
Q 39.203125 38.921875 42.84375 42.21875 
Q 46.484375 45.515625 46.484375 51.90625 
Q 46.484375 58.296875 42.84375 61.546875 
Q 39.203125 64.796875 32.078125 64.796875 
z
" id="DejaVuSans-82"/>
       <path d="M 19.671875 34.8125 
L 19.671875 8.109375 
L 35.5 8.109375 
Q 43.453125 8.109375 47.28125 11.40625 
Q 51.125 14.703125 51.125 21.484375 
Q 51.125 28.328125 47.28125 31.5625 
Q 43.453125 34.8125 35.5 34.8125 
z
M 19.671875 64.796875 
L 19.671875 42.828125 
L 34.28125 42.828125 
Q 41.5 42.828125 45.03125 45.53125 
Q 48.578125 48.25 48.578125 53.8125 
Q 48.578125 59.328125 45.03125 62.0625 
Q 41.5 64.796875 34.28125 64.796875 
z
M 9.8125 72.90625 
L 35.015625 72.90625 
Q 46.296875 72.90625 52.390625 68.21875 
Q 58.5 63.53125 58.5 54.890625 
Q 58.5 48.1875 55.375 44.234375 
Q 52.25 40.28125 46.1875 39.3125 
Q 53.46875 37.75 57.5 32.78125 
Q 61.53125 27.828125 61.53125 20.40625 
Q 61.53125 10.640625 54.890625 5.3125 
Q 48.25 0 35.984375 0 
L 9.8125 0 
z
" id="DejaVuSans-66"/>
       <path d="M 6.296875 72.90625 
L 16.890625 72.90625 
L 35.015625 45.796875 
L 53.21875 72.90625 
L 63.8125 72.90625 
L 40.375 37.890625 
L 65.375 0 
L 54.78125 0 
L 34.28125 31 
L 13.625 0 
L 2.984375 0 
L 29 38.921875 
z
" id="DejaVuSans-88"/>
       <path d="M 12.40625 8.296875 
L 28.515625 8.296875 
L 28.515625 63.921875 
L 10.984375 60.40625 
L 10.984375 69.390625 
L 28.421875 72.90625 
L 38.28125 72.90625 
L 38.28125 8.296875 
L 54.390625 8.296875 
L 54.390625 0 
L 12.40625 0 
z
" id="DejaVuSans-49"/>
      </defs>
      <use xlink:href="#DejaVuSans-82"/>
      <use x="69.482422" xlink:href="#DejaVuSans-66"/>
      <use x="138.085938" xlink:href="#DejaVuSans-88"/>
      <use x="206.591797" xlink:href="#DejaVuSans-49"/>
     </g>
    </g>
   </g>
   <g id="text_2">
    <g clip-path="url(#p9ffd2a87a9)">
     <!-- VEGFA -->
     <g transform="translate(614.597054 436.806089)scale(0.12 -0.12)">
      <defs>
       <path d="M 28.609375 0 
L 0.78125 72.90625 
L 11.078125 72.90625 
L 34.1875 11.53125 
L 57.328125 72.90625 
L 67.578125 72.90625 
L 39.796875 0 
z
" id="DejaVuSans-86"/>
       <path d="M 9.8125 72.90625 
L 55.90625 72.90625 
L 55.90625 64.59375 
L 19.671875 64.59375 
L 19.671875 43.015625 
L 54.390625 43.015625 
L 54.390625 34.71875 
L 19.671875 34.71875 
L 19.671875 8.296875 
L 56.78125 8.296875 
L 56.78125 0 
L 9.8125 0 
z
" id="DejaVuSans-69"/>
       <path d="M 59.515625 10.40625 
L 59.515625 29.984375 
L 43.40625 29.984375 
L 43.40625 38.09375 
L 69.28125 38.09375 
L 69.28125 6.78125 
Q 63.578125 2.734375 56.6875 0.65625 
Q 49.8125 -1.421875 42 -1.421875 
Q 24.90625 -1.421875 15.25 8.5625 
Q 5.609375 18.5625 5.609375 36.375 
Q 5.609375 54.25 15.25 64.234375 
Q 24.90625 74.21875 42 74.21875 
Q 49.125 74.21875 55.546875 72.453125 
Q 61.96875 70.703125 67.390625 67.28125 
L 67.390625 56.78125 
Q 61.921875 61.421875 55.765625 63.765625 
Q 49.609375 66.109375 42.828125 66.109375 
Q 29.4375 66.109375 22.71875 58.640625 
Q 16.015625 51.171875 16.015625 36.375 
Q 16.015625 21.625 22.71875 14.15625 
Q 29.4375 6.6875 42.828125 6.6875 
Q 48.046875 6.6875 52.140625 7.59375 
Q 56.25 8.5 59.515625 10.40625 
z
" id="DejaVuSans-71"/>
       <path d="M 9.8125 72.90625 
L 51.703125 72.90625 
L 51.703125 64.59375 
L 19.671875 64.59375 
L 19.671875 43.109375 
L 48.578125 43.109375 
L 48.578125 34.8125 
L 19.671875 34.8125 
L 19.671875 0 
L 9.8125 0 
z
" id="DejaVuSans-70"/>
       <path d="M 34.1875 63.1875 
L 20.796875 26.90625 
L 47.609375 26.90625 
z
M 28.609375 72.90625 
L 39.796875 72.90625 
L 67.578125 0 
L 57.328125 0 
L 50.6875 18.703125 
L 17.828125 18.703125 
L 11.1875 0 
L 0.78125 0 
z
" id="DejaVuSans-65"/>
      </defs>
      <use xlink:href="#DejaVuSans-86"/>
      <use x="68.408203" xlink:href="#DejaVuSans-69"/>
      <use x="131.591797" xlink:href="#DejaVuSans-71"/>
      <use x="209.082031" xlink:href="#DejaVuSans-70"/>
      <use x="257.476562" xlink:href="#DejaVuSans-65"/>
     </g>
    </g>
   </g>
   <g id="text_3">
    <g clip-path="url(#p9ffd2a87a9)">
     <!-- VHL -->
     <g transform="translate(543.777002 300.778635)scale(0.12 -0.12)">
      <defs>
       <path d="M 9.8125 72.90625 
L 19.671875 72.90625 
L 19.671875 43.015625 
L 55.515625 43.015625 
L 55.515625 72.90625 
L 65.375 72.90625 
L 65.375 0 
L 55.515625 0 
L 55.515625 34.71875 
L 19.671875 34.71875 
L 19.671875 0 
L 9.8125 0 
z
" id="DejaVuSans-72"/>
       <path d="M 9.8125 72.90625 
L 19.671875 72.90625 
L 19.671875 8.296875 
L 55.171875 8.296875 
L 55.171875 0 
L 9.8125 0 
z
" id="DejaVuSans-76"/>
      </defs>
      <use xlink:href="#DejaVuSans-86"/>
      <use x="68.408203" xlink:href="#DejaVuSans-72"/>
      <use x="143.603516" xlink:href="#DejaVuSans-76"/>
     </g>
    </g>
   </g>
   <g id="text_4">
    <g clip-path="url(#p9ffd2a87a9)">
     <!-- ARNT -->
     <g transform="translate(433.318077 271.731751)scale(0.12 -0.12)">
      <defs>
       <path d="M 9.8125 72.90625 
L 23.09375 72.90625 
L 55.421875 11.921875 
L 55.421875 72.90625 
L 64.984375 72.90625 
L 64.984375 0 
L 51.703125 0 
L 19.390625 60.984375 
L 19.390625 0 
L 9.8125 0 
z
" id="DejaVuSans-78"/>
       <path d="M -0.296875 72.90625 
L 61.375 72.90625 
L 61.375 64.59375 
L 35.5 64.59375 
L 35.5 0 
L 25.59375 0 
L 25.59375 64.59375 
L -0.296875 64.59375 
z
" id="DejaVuSans-84"/>
      </defs>
      <use xlink:href="#DejaVuSans-65"/>
      <use x="68.408203" xlink:href="#DejaVuSans-82"/>
      <use x="137.890625" xlink:href="#DejaVuSans-78"/>
      <use x="212.695312" xlink:href="#DejaVuSans-84"/>
     </g>
    </g>
   </g>
   <g id="text_5">
    <g clip-path="url(#p9ffd2a87a9)">
     <!-- EP300 -->
     <g transform="translate(434.655668 274.881473)scale(0.12 -0.12)">
      <defs>
       <path d="M 19.671875 64.796875 
L 19.671875 37.40625 
L 32.078125 37.40625 
Q 38.96875 37.40625 42.71875 40.96875 
Q 46.484375 44.53125 46.484375 51.125 
Q 46.484375 57.671875 42.71875 61.234375 
Q 38.96875 64.796875 32.078125 64.796875 
z
M 9.8125 72.90625 
L 32.078125 72.90625 
Q 44.34375 72.90625 50.609375 67.359375 
Q 56.890625 61.8125 56.890625 51.125 
Q 56.890625 40.328125 50.609375 34.8125 
Q 44.34375 29.296875 32.078125 29.296875 
L 19.671875 29.296875 
L 19.671875 0 
L 9.8125 0 
z
" id="DejaVuSans-80"/>
       <path d="M 40.578125 39.3125 
Q 47.65625 37.796875 51.625 33 
Q 55.609375 28.21875 55.609375 21.1875 
Q 55.609375 10.40625 48.1875 4.484375 
Q 40.765625 -1.421875 27.09375 -1.421875 
Q 22.515625 -1.421875 17.65625 -0.515625 
Q 12.796875 0.390625 7.625 2.203125 
L 7.625 11.71875 
Q 11.71875 9.328125 16.59375 8.109375 
Q 21.484375 6.890625 26.8125 6.890625 
Q 36.078125 6.890625 40.9375 10.546875 
Q 45.796875 14.203125 45.796875 21.1875 
Q 45.796875 27.640625 41.28125 31.265625 
Q 36.765625 34.90625 28.71875 34.90625 
L 20.21875 34.90625 
L 20.21875 43.015625 
L 29.109375 43.015625 
Q 36.375 43.015625 40.234375 45.921875 
Q 44.09375 48.828125 44.09375 54.296875 
Q 44.09375 59.90625 40.109375 62.90625 
Q 36.140625 65.921875 28.71875 65.921875 
Q 24.65625 65.921875 20.015625 65.03125 
Q 15.375 64.15625 9.8125 62.3125 
L 9.8125 71.09375 
Q 15.4375 72.65625 20.34375 73.4375 
Q 25.25 74.21875 29.59375 74.21875 
Q 40.828125 74.21875 47.359375 69.109375 
Q 53.90625 64.015625 53.90625 55.328125 
Q 53.90625 49.265625 50.4375 45.09375 
Q 46.96875 40.921875 40.578125 39.3125 
z
" id="DejaVuSans-51"/>
       <path d="M 31.78125 66.40625 
Q 24.171875 66.40625 20.328125 58.90625 
Q 16.5 51.421875 16.5 36.375 
Q 16.5 21.390625 20.328125 13.890625 
Q 24.171875 6.390625 31.78125 6.390625 
Q 39.453125 6.390625 43.28125 13.890625 
Q 47.125 21.390625 47.125 36.375 
Q 47.125 51.421875 43.28125 58.90625 
Q 39.453125 66.40625 31.78125 66.40625 
z
M 31.78125 74.21875 
Q 44.046875 74.21875 50.515625 64.515625 
Q 56.984375 54.828125 56.984375 36.375 
Q 56.984375 17.96875 50.515625 8.265625 
Q 44.046875 -1.421875 31.78125 -1.421875 
Q 19.53125 -1.421875 13.0625 8.265625 
Q 6.59375 17.96875 6.59375 36.375 
Q 6.59375 54.828125 13.0625 64.515625 
Q 19.53125 74.21875 31.78125 74.21875 
z
" id="DejaVuSans-48"/>
      </defs>
      <use xlink:href="#DejaVuSans-69"/>
      <use x="63.183594" xlink:href="#DejaVuSans-80"/>
      <use x="123.486328" xlink:href="#DejaVuSans-51"/>
      <use x="187.109375" xlink:href="#DejaVuSans-48"/>
      <use x="250.732422" xlink:href="#DejaVuSans-48"/>
     </g>
    </g>
   </g>
   <g id="text_6">
    <g clip-path="url(#p9ffd2a87a9)">
     <!-- HIF1A -->
     <g transform="translate(428.588872 275.593321)scale(0.12 -0.12)">
      <defs>
       <path d="M 9.8125 72.90625 
L 19.671875 72.90625 
L 19.671875 0 
L 9.8125 0 
z
" id="DejaVuSans-73"/>
      </defs>
      <use xlink:href="#DejaVuSans-72"/>
      <use x="75.195312" xlink:href="#DejaVuSans-73"/>
      <use x="104.6875" xlink:href="#DejaVuSans-70"/>
      <use x="162.207031" xlink:href="#DejaVuSans-49"/>
      <use x="225.830078" xlink:href="#DejaVuSans-65"/>
     </g>
    </g>
   </g>
   <g id="text_7">
    <g clip-path="url(#p9ffd2a87a9)">
     <!-- SLC2A1 -->
     <g transform="translate(195.228726 188.296439)scale(0.12 -0.12)">
      <defs>
       <path d="M 53.515625 70.515625 
L 53.515625 60.890625 
Q 47.90625 63.578125 42.921875 64.890625 
Q 37.9375 66.21875 33.296875 66.21875 
Q 25.25 66.21875 20.875 63.09375 
Q 16.5 59.96875 16.5 54.203125 
Q 16.5 49.359375 19.40625 46.890625 
Q 22.3125 44.4375 30.421875 42.921875 
L 36.375 41.703125 
Q 47.40625 39.59375 52.65625 34.296875 
Q 57.90625 29 57.90625 20.125 
Q 57.90625 9.515625 50.796875 4.046875 
Q 43.703125 -1.421875 29.984375 -1.421875 
Q 24.8125 -1.421875 18.96875 -0.25 
Q 13.140625 0.921875 6.890625 3.21875 
L 6.890625 13.375 
Q 12.890625 10.015625 18.65625 8.296875 
Q 24.421875 6.59375 29.984375 6.59375 
Q 38.421875 6.59375 43.015625 9.90625 
Q 47.609375 13.234375 47.609375 19.390625 
Q 47.609375 24.75 44.3125 27.78125 
Q 41.015625 30.8125 33.5 32.328125 
L 27.484375 33.5 
Q 16.453125 35.6875 11.515625 40.375 
Q 6.59375 45.0625 6.59375 53.421875 
Q 6.59375 63.09375 13.40625 68.65625 
Q 20.21875 74.21875 32.171875 74.21875 
Q 37.3125 74.21875 42.625 73.28125 
Q 47.953125 72.359375 53.515625 70.515625 
z
" id="DejaVuSans-83"/>
       <path d="M 64.40625 67.28125 
L 64.40625 56.890625 
Q 59.421875 61.53125 53.78125 63.8125 
Q 48.140625 66.109375 41.796875 66.109375 
Q 29.296875 66.109375 22.65625 58.46875 
Q 16.015625 50.828125 16.015625 36.375 
Q 16.015625 21.96875 22.65625 14.328125 
Q 29.296875 6.6875 41.796875 6.6875 
Q 48.140625 6.6875 53.78125 8.984375 
Q 59.421875 11.28125 64.40625 15.921875 
L 64.40625 5.609375 
Q 59.234375 2.09375 53.4375 0.328125 
Q 47.65625 -1.421875 41.21875 -1.421875 
Q 24.65625 -1.421875 15.125 8.703125 
Q 5.609375 18.84375 5.609375 36.375 
Q 5.609375 53.953125 15.125 64.078125 
Q 24.65625 74.21875 41.21875 74.21875 
Q 47.75 74.21875 53.53125 72.484375 
Q 59.328125 70.75 64.40625 67.28125 
z
" id="DejaVuSans-67"/>
       <path d="M 19.1875 8.296875 
L 53.609375 8.296875 
L 53.609375 0 
L 7.328125 0 
L 7.328125 8.296875 
Q 12.9375 14.109375 22.625 23.890625 
Q 32.328125 33.6875 34.8125 36.53125 
Q 39.546875 41.84375 41.421875 45.53125 
Q 43.3125 49.21875 43.3125 52.78125 
Q 43.3125 58.59375 39.234375 62.25 
Q 35.15625 65.921875 28.609375 65.921875 
Q 23.96875 65.921875 18.8125 64.3125 
Q 13.671875 62.703125 7.8125 59.421875 
L 7.8125 69.390625 
Q 13.765625 71.78125 18.9375 73 
Q 24.125 74.21875 28.421875 74.21875 
Q 39.75 74.21875 46.484375 68.546875 
Q 53.21875 62.890625 53.21875 53.421875 
Q 53.21875 48.921875 51.53125 44.890625 
Q 49.859375 40.875 45.40625 35.40625 
Q 44.1875 33.984375 37.640625 27.21875 
Q 31.109375 20.453125 19.1875 8.296875 
z
" id="DejaVuSans-50"/>
      </defs>
      <use xlink:href="#DejaVuSans-83"/>
      <use x="63.476562" xlink:href="#DejaVuSans-76"/>
      <use x="119.189453" xlink:href="#DejaVuSans-67"/>
      <use x="189.013672" xlink:href="#DejaVuSans-50"/>
      <use x="252.636719" xlink:href="#DejaVuSans-65"/>
      <use x="321.044922" xlink:href="#DejaVuSans-49"/>
     </g>
    </g>
   </g>
   <g id="text_8">
    <g clip-path="url(#p9ffd2a87a9)">
     <!-- MTOR -->
     <g transform="translate(518.68565 347.195329)scale(0.12 -0.12)">
      <defs>
       <path d="M 9.8125 72.90625 
L 24.515625 72.90625 
L 43.109375 23.296875 
L 61.8125 72.90625 
L 76.515625 72.90625 
L 76.515625 0 
L 66.890625 0 
L 66.890625 64.015625 
L 48.09375 14.015625 
L 38.1875 14.015625 
L 19.390625 64.015625 
L 19.390625 0 
L 9.8125 0 
z
" id="DejaVuSans-77"/>
       <path d="M 39.40625 66.21875 
Q 28.65625 66.21875 22.328125 58.203125 
Q 16.015625 50.203125 16.015625 36.375 
Q 16.015625 22.609375 22.328125 14.59375 
Q 28.65625 6.59375 39.40625 6.59375 
Q 50.140625 6.59375 56.421875 14.59375 
Q 62.703125 22.609375 62.703125 36.375 
Q 62.703125 50.203125 56.421875 58.203125 
Q 50.140625 66.21875 39.40625 66.21875 
z
M 39.40625 74.21875 
Q 54.734375 74.21875 63.90625 63.9375 
Q 73.09375 53.65625 73.09375 36.375 
Q 73.09375 19.140625 63.90625 8.859375 
Q 54.734375 -1.421875 39.40625 -1.421875 
Q 24.03125 -1.421875 14.8125 8.828125 
Q 5.609375 19.09375 5.609375 36.375 
Q 5.609375 53.65625 14.8125 63.9375 
Q 24.03125 74.21875 39.40625 74.21875 
z
" id="DejaVuSans-79"/>
      </defs>
      <use xlink:href="#DejaVuSans-77"/>
      <use x="86.279297" xlink:href="#DejaVuSans-84"/>
      <use x="147.363281" xlink:href="#DejaVuSans-79"/>
      <use x="226.074219" xlink:href="#DejaVuSans-82"/>
     </g>
    </g>
   </g>
   <g id="text_9">
    <g clip-path="url(#p9ffd2a87a9)">
     <!-- PDK1 -->
     <g transform="translate(398.368911 394.456868)scale(0.12 -0.12)">
      <defs>
       <path d="M 19.671875 64.796875 
L 19.671875 8.109375 
L 31.59375 8.109375 
Q 46.6875 8.109375 53.6875 14.9375 
Q 60.6875 21.78125 60.6875 36.53125 
Q 60.6875 51.171875 53.6875 57.984375 
Q 46.6875 64.796875 31.59375 64.796875 
z
M 9.8125 72.90625 
L 30.078125 72.90625 
Q 51.265625 72.90625 61.171875 64.09375 
Q 71.09375 55.28125 71.09375 36.53125 
Q 71.09375 17.671875 61.125 8.828125 
Q 51.171875 0 30.078125 0 
L 9.8125 0 
z
" id="DejaVuSans-68"/>
       <path d="M 9.8125 72.90625 
L 19.671875 72.90625 
L 19.671875 42.09375 
L 52.390625 72.90625 
L 65.09375 72.90625 
L 28.90625 38.921875 
L 67.671875 0 
L 54.6875 0 
L 19.671875 35.109375 
L 19.671875 0 
L 9.8125 0 
z
" id="DejaVuSans-75"/>
      </defs>
      <use xlink:href="#DejaVuSans-80"/>
      <use x="60.302734" xlink:href="#DejaVuSans-68"/>
      <use x="137.304688" xlink:href="#DejaVuSans-75"/>
      <use x="202.880859" xlink:href="#DejaVuSans-49"/>
     </g>
    </g>
   </g>
   <g id="text_10">
    <g clip-path="url(#p9ffd2a87a9)">
     <!-- GAPDH -->
     <g transform="translate(678.082653 211.867253)scale(0.12 -0.12)">
      <use xlink:href="#DejaVuSans-71"/>
      <use x="77.490234" xlink:href="#DejaVuSans-65"/>
      <use x="145.898438" xlink:href="#DejaVuSans-80"/>
      <use x="206.201172" xlink:href="#DejaVuSans-68"/>
      <use x="283.203125" xlink:href="#DejaVuSans-72"/>
     </g>
    </g>
   </g>
   <g id="text_11">
    <g clip-path="url(#p9ffd2a87a9)">
     <!-- PFKFB3 -->
     <g transform="translate(386.936089 477.463977)scale(0.12 -0.12)">
      <use xlink:href="#DejaVuSans-80"/>
      <use x="60.302734" xlink:href="#DejaVuSans-70"/>
      <use x="117.822266" xlink:href="#DejaVuSans-75"/>
      <use x="183.398438" xlink:href="#DejaVuSans-70"/>
      <use x="240.917969" xlink:href="#DejaVuSans-66"/>
      <use x="309.521484" xlink:href="#DejaVuSans-51"/>
     </g>
    </g>
   </g>
   <g id="text_12">
    <g clip-path="url(#p9ffd2a87a9)">
     <!-- EPO -->
     <g transform="translate(248.516128 141.1685)scale(0.12 -0.12)">
      <use xlink:href="#DejaVuSans-69"/>
      <use x="63.183594" xlink:href="#DejaVuSans-80"/>
      <use x="123.486328" xlink:href="#DejaVuSans-79"/>
     </g>
    </g>
   </g>
   <g id="text_13">
    <g clip-path="url(#p9ffd2a87a9)">
     <!-- TF -->
     <g transform="translate(158.99016 255.119613)scale(0.12 -0.12)">
      <use xlink:href="#DejaVuSans-84"/>
      <use x="61.083984" xlink:href="#DejaVuSans-70"/>
     </g>
    </g>
   </g>
   <g id="text_14">
    <g clip-path="url(#p9ffd2a87a9)">
     <!-- TFRC -->
     <g transform="translate(639.58452 407.596214)scale(0.12 -0.12)">
      <use xlink:href="#DejaVuSans-84"/>
      <use x="61.083984" xlink:href="#DejaVuSans-70"/>
      <use x="118.603516" xlink:href="#DejaVuSans-82"/>
      <use x="183.085938" xlink:href="#DejaVuSans-67"/>
     </g>
    </g>
   </g>
   <g id="text_15">
    <g clip-path="url(#p9ffd2a87a9)">
     <!-- FLT1 -->
     <g transform="translate(684.998361 385.368518)scale(0.12 -0.12)">
      <use xlink:href="#DejaVuSans-70"/>
      <use x="57.519531" xlink:href="#DejaVuSans-76"/>
      <use x="99.482422" xlink:href="#DejaVuSans-84"/>
      <use x="160.566406" xlink:href="#DejaVuSans-49"/>
     </g>
    </g>
   </g>
   <g id="text_16">
    <g clip-path="url(#p9ffd2a87a9)">
     <!-- EGF -->
     <g transform="translate(318.385928 329.045285)scale(0.12 -0.12)">
      <use xlink:href="#DejaVuSans-69"/>
      <use x="63.183594" xlink:href="#DejaVuSans-71"/>
      <use x="140.673828" xlink:href="#DejaVuSans-70"/>
     </g>
    </g>
   </g>
   <g id="text_17">
    <g clip-path="url(#p9ffd2a87a9)">
     <!-- SERPINE1 -->
     <g transform="translate(274.433546 135.534524)scale(0.12 -0.12)">
      <use xlink:href="#DejaVuSans-83"/>
      <use x="63.476562" xlink:href="#DejaVuSans-69"/>
      <use x="126.660156" xlink:href="#DejaVuSans-82"/>
      <use x="196.142578" xlink:href="#DejaVuSans-80"/>
      <use x="256.445312" xlink:href="#DejaVuSans-73"/>
      <use x="285.9375" xlink:href="#DejaVuSans-78"/>
      <use x="360.742188" xlink:href="#DejaVuSans-69"/>
      <use x="423.925781" xlink:href="#DejaVuSans-49"/>
     </g>
    </g>
   </g>
   <g id="text_18">
    <g clip-path="url(#p9ffd2a87a9)">
     <!-- TEK -->
     <g transform="translate(497.541999 122.123616)scale(0.12 -0.12)">
      <use xlink:href="#DejaVuSans-84"/>
      <use x="61.083984" xlink:href="#DejaVuSans-69"/>
      <use x="124.267578" xlink:href="#DejaVuSans-75"/>
     </g>
    </g>
   </g>
   <g id="text_19">
    <g clip-path="url(#p9ffd2a87a9)">
     <!-- TIMP1 -->
     <g transform="translate(701.44734 324.178408)scale(0.12 -0.12)">
      <use xlink:href="#DejaVuSans-84"/>
      <use x="61.083984" xlink:href="#DejaVuSans-73"/>
      <use x="90.576172" xlink:href="#DejaVuSans-77"/>
      <use x="176.855469" xlink:href="#DejaVuSans-80"/>
      <use x="237.158203" xlink:href="#DejaVuSans-49"/>
     </g>
    </g>
   </g>
   <g id="text_20">
    <g clip-path="url(#p9ffd2a87a9)">
     <!-- EDN1 -->
     <g transform="translate(401.525984 110.918523)scale(0.12 -0.12)">
      <use xlink:href="#DejaVuSans-69"/>
      <use x="63.183594" xlink:href="#DejaVuSans-68"/>
      <use x="140.185547" xlink:href="#DejaVuSans-78"/>
      <use x="214.990234" xlink:href="#DejaVuSans-49"/>
     </g>
    </g>
   </g>
   <g id="text_21">
    <g clip-path="url(#p9ffd2a87a9)">
     <!-- NOS2 -->
     <g transform="translate(360.285042 131.282708)scale(0.12 -0.12)">
      <use xlink:href="#DejaVuSans-78"/>
      <use x="74.804688" xlink:href="#DejaVuSans-79"/>
      <use x="153.515625" xlink:href="#DejaVuSans-83"/>
      <use x="216.992188" xlink:href="#DejaVuSans-50"/>
     </g>
    </g>
   </g>
   <g id="text_22">
    <g clip-path="url(#p9ffd2a87a9)">
     <!-- NOS3 -->
     <g transform="translate(444.803174 121.961352)scale(0.12 -0.12)">
      <use xlink:href="#DejaVuSans-78"/>
      <use x="74.804688" xlink:href="#DejaVuSans-79"/>
      <use x="153.515625" xlink:href="#DejaVuSans-83"/>
      <use x="216.992188" xlink:href="#DejaVuSans-51"/>
     </g>
    </g>
   </g>
   <g id="text_23">
    <g clip-path="url(#p9ffd2a87a9)">
     <!-- HMOX1 -->
     <g transform="translate(324.242773 116.308532)scale(0.12 -0.12)">
      <use xlink:href="#DejaVuSans-72"/>
      <use x="75.195312" xlink:href="#DejaVuSans-77"/>
      <use x="161.474609" xlink:href="#DejaVuSans-79"/>
      <use x="233.810547" xlink:href="#DejaVuSans-88"/>
      <use x="302.316406" xlink:href="#DejaVuSans-49"/>
     </g>
    </g>
   </g>
   <g id="text_24">
    <g clip-path="url(#p9ffd2a87a9)">
     <!-- NPPA -->
     <g transform="translate(521.656806 471.338682)scale(0.12 -0.12)">
      <use xlink:href="#DejaVuSans-78"/>
      <use x="74.804688" xlink:href="#DejaVuSans-80"/>
      <use x="135.107422" xlink:href="#DejaVuSans-80"/>
      <use x="189.035156" xlink:href="#DejaVuSans-65"/>
     </g>
    </g>
   </g>
   <g id="text_25">
    <g clip-path="url(#p9ffd2a87a9)">
     <!-- TLR4 -->
     <g transform="translate(482.595857 211.941538)scale(0.12 -0.12)">
      <defs>
       <path d="M 37.796875 64.3125 
L 12.890625 25.390625 
L 37.796875 25.390625 
z
M 35.203125 72.90625 
L 47.609375 72.90625 
L 47.609375 25.390625 
L 58.015625 25.390625 
L 58.015625 17.1875 
L 47.609375 17.1875 
L 47.609375 0 
L 37.796875 0 
L 37.796875 17.1875 
L 4.890625 17.1875 
L 4.890625 26.703125 
z
" id="DejaVuSans-52"/>
      </defs>
      <use xlink:href="#DejaVuSans-84"/>
      <use x="61.083984" xlink:href="#DejaVuSans-76"/>
      <use x="116.796875" xlink:href="#DejaVuSans-82"/>
      <use x="186.279297" xlink:href="#DejaVuSans-52"/>
     </g>
    </g>
   </g>
   <g id="text_26">
    <g clip-path="url(#p9ffd2a87a9)">
     <!-- IFNG -->
     <g transform="translate(349.521543 271.24488)scale(0.12 -0.12)">
      <use xlink:href="#DejaVuSans-73"/>
      <use x="29.492188" xlink:href="#DejaVuSans-70"/>
      <use x="87.011719" xlink:href="#DejaVuSans-78"/>
      <use x="161.816406" xlink:href="#DejaVuSans-71"/>
     </g>
    </g>
   </g>
   <g id="text_27">
    <g clip-path="url(#p9ffd2a87a9)">
     <!-- IL6 -->
     <g transform="translate(614.598148 160.782395)scale(0.12 -0.12)">
      <defs>
       <path d="M 33.015625 40.375 
Q 26.375 40.375 22.484375 35.828125 
Q 18.609375 31.296875 18.609375 23.390625 
Q 18.609375 15.53125 22.484375 10.953125 
Q 26.375 6.390625 33.015625 6.390625 
Q 39.65625 6.390625 43.53125 10.953125 
Q 47.40625 15.53125 47.40625 23.390625 
Q 47.40625 31.296875 43.53125 35.828125 
Q 39.65625 40.375 33.015625 40.375 
z
M 52.59375 71.296875 
L 52.59375 62.3125 
Q 48.875 64.0625 45.09375 64.984375 
Q 41.3125 65.921875 37.59375 65.921875 
Q 27.828125 65.921875 22.671875 59.328125 
Q 17.53125 52.734375 16.796875 39.40625 
Q 19.671875 43.65625 24.015625 45.921875 
Q 28.375 48.1875 33.59375 48.1875 
Q 44.578125 48.1875 50.953125 41.515625 
Q 57.328125 34.859375 57.328125 23.390625 
Q 57.328125 12.15625 50.6875 5.359375 
Q 44.046875 -1.421875 33.015625 -1.421875 
Q 20.359375 -1.421875 13.671875 8.265625 
Q 6.984375 17.96875 6.984375 36.375 
Q 6.984375 53.65625 15.1875 63.9375 
Q 23.390625 74.21875 37.203125 74.21875 
Q 40.921875 74.21875 44.703125 73.484375 
Q 48.484375 72.75 52.59375 71.296875 
z
" id="DejaVuSans-54"/>
      </defs>
      <use xlink:href="#DejaVuSans-73"/>
      <use x="29.492188" xlink:href="#DejaVuSans-76"/>
      <use x="85.205078" xlink:href="#DejaVuSans-54"/>
     </g>
    </g>
   </g>
   <g id="text_28">
    <g clip-path="url(#p9ffd2a87a9)">
     <!-- IL6R -->
     <g transform="translate(504.419354 176.894969)scale(0.12 -0.12)">
      <use xlink:href="#DejaVuSans-73"/>
      <use x="29.492188" xlink:href="#DejaVuSans-76"/>
      <use x="85.205078" xlink:href="#DejaVuSans-54"/>
      <use x="148.828125" xlink:href="#DejaVuSans-82"/>
     </g>
    </g>
   </g>
   <g id="text_29">
    <g clip-path="url(#p9ffd2a87a9)">
     <!-- STAT3 -->
     <g transform="translate(548.973826 241.241688)scale(0.12 -0.12)">
      <use xlink:href="#DejaVuSans-83"/>
      <use x="63.476562" xlink:href="#DejaVuSans-84"/>
      <use x="116.810547" xlink:href="#DejaVuSans-65"/>
      <use x="177.46875" xlink:href="#DejaVuSans-84"/>
      <use x="238.552734" xlink:href="#DejaVuSans-51"/>
     </g>
    </g>
   </g>
   <g id="text_30">
    <g clip-path="url(#p9ffd2a87a9)">
     <!-- EIF4EBP1 -->
     <g transform="translate(616.950563 364.818822)scale(0.12 -0.12)">
      <use xlink:href="#DejaVuSans-69"/>
      <use x="63.183594" xlink:href="#DejaVuSans-73"/>
      <use x="92.675781" xlink:href="#DejaVuSans-70"/>
      <use x="150.195312" xlink:href="#DejaVuSans-52"/>
      <use x="213.818359" xlink:href="#DejaVuSans-69"/>
      <use x="277.001953" xlink:href="#DejaVuSans-66"/>
      <use x="345.605469" xlink:href="#DejaVuSans-80"/>
      <use x="405.908203" xlink:href="#DejaVuSans-49"/>
     </g>
    </g>
   </g>
   <g id="text_31">
    <g clip-path="url(#p9ffd2a87a9)">
     <!-- EIF4E -->
     <g transform="translate(564.244291 442.387771)scale(0.12 -0.12)">
      <use xlink:href="#DejaVuSans-69"/>
      <use x="63.183594" xlink:href="#DejaVuSans-73"/>
      <use x="92.675781" xlink:href="#DejaVuSans-70"/>
      <use x="150.195312" xlink:href="#DejaVuSans-52"/>
      <use x="213.818359" xlink:href="#DejaVuSans-69"/>
     </g>
    </g>
   </g>
   <g id="text_32">
    <g clip-path="url(#p9ffd2a87a9)">
     <!-- BCL2 -->
     <g transform="translate(158.247646 209.363347)scale(0.12 -0.12)">
      <use xlink:href="#DejaVuSans-66"/>
      <use x="66.853516" xlink:href="#DejaVuSans-67"/>
      <use x="136.677734" xlink:href="#DejaVuSans-76"/>
      <use x="192.390625" xlink:href="#DejaVuSans-50"/>
     </g>
    </g>
   </g>
   <g id="text_33">
    <g clip-path="url(#p9ffd2a87a9)">
     <!-- INS -->
     <g transform="translate(302.021404 347.821462)scale(0.12 -0.12)">
      <use xlink:href="#DejaVuSans-73"/>
      <use x="29.492188" xlink:href="#DejaVuSans-78"/>
      <use x="104.296875" xlink:href="#DejaVuSans-83"/>
     </g>
    </g>
   </g>
   <g id="text_34">
    <g clip-path="url(#p9ffd2a87a9)">
     <!-- IGF1 -->
     <g transform="translate(253.606927 316.5697)scale(0.12 -0.12)">
      <use xlink:href="#DejaVuSans-73"/>
      <use x="29.492188" xlink:href="#DejaVuSans-71"/>
      <use x="106.982422" xlink:href="#DejaVuSans-70"/>
      <use x="164.501953" xlink:href="#DejaVuSans-49"/>
     </g>
    </g>
   </g>
   <g id="text_35">
    <g clip-path="url(#p9ffd2a87a9)">
     <!-- INSR -->
     <g transform="translate(284.239102 285.287562)scale(0.12 -0.12)">
      <use xlink:href="#DejaVuSans-73"/>
      <use x="29.492188" xlink:href="#DejaVuSans-78"/>
      <use x="104.296875" xlink:href="#DejaVuSans-83"/>
      <use x="167.773438" xlink:href="#DejaVuSans-82"/>
     </g>
    </g>
   </g>
   <g id="text_36">
    <g clip-path="url(#p9ffd2a87a9)">
     <!-- EGFR -->
     <g transform="translate(242.797084 323.202686)scale(0.12 -0.12)">
      <use xlink:href="#DejaVuSans-69"/>
      <use x="63.183594" xlink:href="#DejaVuSans-71"/>
      <use x="140.673828" xlink:href="#DejaVuSans-70"/>
      <use x="198.193359" xlink:href="#DejaVuSans-82"/>
     </g>
    </g>
   </g>
   <g id="text_37">
    <g clip-path="url(#p9ffd2a87a9)">
     <!-- IGF1R -->
     <g transform="translate(304.699973 298.822306)scale(0.12 -0.12)">
      <use xlink:href="#DejaVuSans-73"/>
      <use x="29.492188" xlink:href="#DejaVuSans-71"/>
      <use x="106.982422" xlink:href="#DejaVuSans-70"/>
      <use x="164.501953" xlink:href="#DejaVuSans-49"/>
      <use x="228.125" xlink:href="#DejaVuSans-82"/>
     </g>
    </g>
   </g>
   <g id="text_38">
    <g clip-path="url(#p9ffd2a87a9)">
     <!-- ERBB2 -->
     <g transform="translate(188.831957 284.420744)scale(0.12 -0.12)">
      <use xlink:href="#DejaVuSans-69"/>
      <use x="63.183594" xlink:href="#DejaVuSans-82"/>
      <use x="132.666016" xlink:href="#DejaVuSans-66"/>
      <use x="201.269531" xlink:href="#DejaVuSans-66"/>
      <use x="269.873047" xlink:href="#DejaVuSans-50"/>
     </g>
    </g>
   </g>
   <g id="text_39">
    <g clip-path="url(#p9ffd2a87a9)">
     <!-- PRKCA -->
     <g transform="translate(522.590726 418.483625)scale(0.12 -0.12)">
      <use xlink:href="#DejaVuSans-80"/>
      <use x="60.302734" xlink:href="#DejaVuSans-82"/>
      <use x="129.785156" xlink:href="#DejaVuSans-75"/>
      <use x="189.861328" xlink:href="#DejaVuSans-67"/>
      <use x="259.685547" xlink:href="#DejaVuSans-65"/>
     </g>
    </g>
   </g>
   <g id="text_40">
    <g clip-path="url(#p9ffd2a87a9)">
     <!-- PRKCB -->
     <g transform="translate(320.700928 375.915345)scale(0.12 -0.12)">
      <use xlink:href="#DejaVuSans-80"/>
      <use x="60.302734" xlink:href="#DejaVuSans-82"/>
      <use x="129.785156" xlink:href="#DejaVuSans-75"/>
      <use x="189.861328" xlink:href="#DejaVuSans-67"/>
      <use x="259.685547" xlink:href="#DejaVuSans-66"/>
     </g>
    </g>
   </g>
   <g id="text_41">
    <g clip-path="url(#p9ffd2a87a9)">
     <!-- PRKCG -->
     <g transform="translate(318.394089 317.640158)scale(0.12 -0.12)">
      <use xlink:href="#DejaVuSans-80"/>
      <use x="60.302734" xlink:href="#DejaVuSans-82"/>
      <use x="129.785156" xlink:href="#DejaVuSans-75"/>
      <use x="189.861328" xlink:href="#DejaVuSans-67"/>
      <use x="259.685547" xlink:href="#DejaVuSans-71"/>
     </g>
    </g>
   </g>
   <g id="text_42">
    <g clip-path="url(#p9ffd2a87a9)">
     <!-- PDHB -->
     <g transform="translate(240.243736 422.117402)scale(0.12 -0.12)">
      <use xlink:href="#DejaVuSans-80"/>
      <use x="60.302734" xlink:href="#DejaVuSans-68"/>
      <use x="137.304688" xlink:href="#DejaVuSans-72"/>
      <use x="212.5" xlink:href="#DejaVuSans-66"/>
     </g>
    </g>
   </g>
   <g id="text_43">
    <g clip-path="url(#p9ffd2a87a9)">
     <!-- ANGPT1 -->
     <g transform="translate(339.417812 464.435721)scale(0.12 -0.12)">
      <use xlink:href="#DejaVuSans-65"/>
      <use x="68.408203" xlink:href="#DejaVuSans-78"/>
      <use x="143.212891" xlink:href="#DejaVuSans-71"/>
      <use x="220.703125" xlink:href="#DejaVuSans-80"/>
      <use x="281.005859" xlink:href="#DejaVuSans-84"/>
      <use x="342.089844" xlink:href="#DejaVuSans-49"/>
     </g>
    </g>
   </g>
   <g id="text_44">
    <g clip-path="url(#p9ffd2a87a9)">
     <!-- ANGPT2 -->
     <g transform="translate(143.931412 319.955278)scale(0.12 -0.12)">
      <use xlink:href="#DejaVuSans-65"/>
      <use x="68.408203" xlink:href="#DejaVuSans-78"/>
      <use x="143.212891" xlink:href="#DejaVuSans-71"/>
      <use x="220.703125" xlink:href="#DejaVuSans-80"/>
      <use x="281.005859" xlink:href="#DejaVuSans-84"/>
      <use x="342.089844" xlink:href="#DejaVuSans-50"/>
     </g>
    </g>
   </g>
   <g id="text_45">
    <g clip-path="url(#p9ffd2a87a9)">
     <!-- ANGPT4 -->
     <g transform="translate(563.995483 153.266734)scale(0.12 -0.12)">
      <use xlink:href="#DejaVuSans-65"/>
      <use x="68.408203" xlink:href="#DejaVuSans-78"/>
      <use x="143.212891" xlink:href="#DejaVuSans-71"/>
      <use x="220.703125" xlink:href="#DejaVuSans-80"/>
      <use x="281.005859" xlink:href="#DejaVuSans-84"/>
      <use x="342.089844" xlink:href="#DejaVuSans-52"/>
     </g>
    </g>
   </g>
   <g id="text_46">
    <g clip-path="url(#p9ffd2a87a9)">
     <!-- RELA -->
     <g transform="translate(353.000589 220.857636)scale(0.12 -0.12)">
      <use xlink:href="#DejaVuSans-82"/>
      <use x="69.482422" xlink:href="#DejaVuSans-69"/>
      <use x="132.666016" xlink:href="#DejaVuSans-76"/>
      <use x="190.628906" xlink:href="#DejaVuSans-65"/>
     </g>
    </g>
   </g>
   <g id="text_47">
    <g clip-path="url(#p9ffd2a87a9)">
     <!-- NFKB1 -->
     <g transform="translate(558.29607 271.918366)scale(0.12 -0.12)">
      <use xlink:href="#DejaVuSans-78"/>
      <use x="74.804688" xlink:href="#DejaVuSans-70"/>
      <use x="132.324219" xlink:href="#DejaVuSans-75"/>
      <use x="197.900391" xlink:href="#DejaVuSans-66"/>
      <use x="266.503906" xlink:href="#DejaVuSans-49"/>
     </g>
    </g>
   </g>
   <g id="text_48">
    <g clip-path="url(#p9ffd2a87a9)">
     <!-- IFNGR1 -->
     <g transform="translate(471.690073 233.168782)scale(0.12 -0.12)">
      <use xlink:href="#DejaVuSans-73"/>
      <use x="29.492188" xlink:href="#DejaVuSans-70"/>
      <use x="87.011719" xlink:href="#DejaVuSans-78"/>
      <use x="161.816406" xlink:href="#DejaVuSans-71"/>
      <use x="239.306641" xlink:href="#DejaVuSans-82"/>
      <use x="308.789062" xlink:href="#DejaVuSans-49"/>
     </g>
    </g>
   </g>
   <g id="text_49">
    <g clip-path="url(#p9ffd2a87a9)">
     <!-- IFNGR2 -->
     <g transform="translate(415.477921 251.027816)scale(0.12 -0.12)">
      <use xlink:href="#DejaVuSans-73"/>
      <use x="29.492188" xlink:href="#DejaVuSans-70"/>
      <use x="87.011719" xlink:href="#DejaVuSans-78"/>
      <use x="161.816406" xlink:href="#DejaVuSans-71"/>
      <use x="239.306641" xlink:href="#DejaVuSans-82"/>
      <use x="308.789062" xlink:href="#DejaVuSans-50"/>
     </g>
    </g>
   </g>
   <g id="text_50">
    <g clip-path="url(#p9ffd2a87a9)">
     <!-- MAP2K1 -->
     <g transform="translate(191.905635 164.168275)scale(0.12 -0.12)">
      <use xlink:href="#DejaVuSans-77"/>
      <use x="86.279297" xlink:href="#DejaVuSans-65"/>
      <use x="154.6875" xlink:href="#DejaVuSans-80"/>
      <use x="214.990234" xlink:href="#DejaVuSans-50"/>
      <use x="278.613281" xlink:href="#DejaVuSans-75"/>
      <use x="344.189453" xlink:href="#DejaVuSans-49"/>
     </g>
    </g>
   </g>
   <g id="text_51">
    <g clip-path="url(#p9ffd2a87a9)">
     <!-- MAP2K2 -->
     <g transform="translate(198.742905 397.847668)scale(0.12 -0.12)">
      <use xlink:href="#DejaVuSans-77"/>
      <use x="86.279297" xlink:href="#DejaVuSans-65"/>
      <use x="154.6875" xlink:href="#DejaVuSans-80"/>
      <use x="214.990234" xlink:href="#DejaVuSans-50"/>
      <use x="278.613281" xlink:href="#DejaVuSans-75"/>
      <use x="344.189453" xlink:href="#DejaVuSans-50"/>
     </g>
    </g>
   </g>
   <g id="text_52">
    <g clip-path="url(#p9ffd2a87a9)">
     <!-- CDKN1A -->
     <g transform="translate(674.060356 355.105406)scale(0.12 -0.12)">
      <use xlink:href="#DejaVuSans-67"/>
      <use x="69.824219" xlink:href="#DejaVuSans-68"/>
      <use x="146.826172" xlink:href="#DejaVuSans-75"/>
      <use x="212.402344" xlink:href="#DejaVuSans-78"/>
      <use x="287.207031" xlink:href="#DejaVuSans-49"/>
      <use x="350.830078" xlink:href="#DejaVuSans-65"/>
     </g>
    </g>
   </g>
   <g id="text_53">
    <g clip-path="url(#p9ffd2a87a9)">
     <!-- CDKN1B -->
     <g transform="translate(529.364513 125.640323)scale(0.12 -0.12)">
      <use xlink:href="#DejaVuSans-67"/>
      <use x="69.824219" xlink:href="#DejaVuSans-68"/>
      <use x="146.826172" xlink:href="#DejaVuSans-75"/>
      <use x="212.402344" xlink:href="#DejaVuSans-78"/>
      <use x="287.207031" xlink:href="#DejaVuSans-49"/>
      <use x="350.830078" xlink:href="#DejaVuSans-66"/>
     </g>
    </g>
   </g>
   <g id="text_54">
    <!-- Frame: 11 -->
    <g transform="translate(121.392 91.296)scale(0.1 -0.1)">
     <defs>
      <path d="M 41.109375 46.296875 
Q 39.59375 47.171875 37.8125 47.578125 
Q 36.03125 48 33.890625 48 
Q 26.265625 48 22.1875 43.046875 
Q 18.109375 38.09375 18.109375 28.8125 
L 18.109375 0 
L 9.078125 0 
L 9.078125 54.6875 
L 18.109375 54.6875 
L 18.109375 46.1875 
Q 20.953125 51.171875 25.484375 53.578125 
Q 30.03125 56 36.53125 56 
Q 37.453125 56 38.578125 55.875 
Q 39.703125 55.765625 41.0625 55.515625 
z
" id="DejaVuSans-114"/>
      <path d="M 34.28125 27.484375 
Q 23.390625 27.484375 19.1875 25 
Q 14.984375 22.515625 14.984375 16.5 
Q 14.984375 11.71875 18.140625 8.90625 
Q 21.296875 6.109375 26.703125 6.109375 
Q 34.1875 6.109375 38.703125 11.40625 
Q 43.21875 16.703125 43.21875 25.484375 
L 43.21875 27.484375 
z
M 52.203125 31.203125 
L 52.203125 0 
L 43.21875 0 
L 43.21875 8.296875 
Q 40.140625 3.328125 35.546875 0.953125 
Q 30.953125 -1.421875 24.3125 -1.421875 
Q 15.921875 -1.421875 10.953125 3.296875 
Q 6 8.015625 6 15.921875 
Q 6 25.140625 12.171875 29.828125 
Q 18.359375 34.515625 30.609375 34.515625 
L 43.21875 34.515625 
L 43.21875 35.40625 
Q 43.21875 41.609375 39.140625 45 
Q 35.0625 48.390625 27.6875 48.390625 
Q 23 48.390625 18.546875 47.265625 
Q 14.109375 46.140625 10.015625 43.890625 
L 10.015625 52.203125 
Q 14.9375 54.109375 19.578125 55.046875 
Q 24.21875 56 28.609375 56 
Q 40.484375 56 46.34375 49.84375 
Q 52.203125 43.703125 52.203125 31.203125 
z
" id="DejaVuSans-97"/>
      <path d="M 52 44.1875 
Q 55.375 50.25 60.0625 53.125 
Q 64.75 56 71.09375 56 
Q 79.640625 56 84.28125 50.015625 
Q 88.921875 44.046875 88.921875 33.015625 
L 88.921875 0 
L 79.890625 0 
L 79.890625 32.71875 
Q 79.890625 40.578125 77.09375 44.375 
Q 74.3125 48.1875 68.609375 48.1875 
Q 61.625 48.1875 57.5625 43.546875 
Q 53.515625 38.921875 53.515625 30.90625 
L 53.515625 0 
L 44.484375 0 
L 44.484375 32.71875 
Q 44.484375 40.625 41.703125 44.40625 
Q 38.921875 48.1875 33.109375 48.1875 
Q 26.21875 48.1875 22.15625 43.53125 
Q 18.109375 38.875 18.109375 30.90625 
L 18.109375 0 
L 9.078125 0 
L 9.078125 54.6875 
L 18.109375 54.6875 
L 18.109375 46.1875 
Q 21.1875 51.21875 25.484375 53.609375 
Q 29.78125 56 35.6875 56 
Q 41.65625 56 45.828125 52.96875 
Q 50 49.953125 52 44.1875 
z
" id="DejaVuSans-109"/>
      <path d="M 56.203125 29.59375 
L 56.203125 25.203125 
L 14.890625 25.203125 
Q 15.484375 15.921875 20.484375 11.0625 
Q 25.484375 6.203125 34.421875 6.203125 
Q 39.59375 6.203125 44.453125 7.46875 
Q 49.3125 8.734375 54.109375 11.28125 
L 54.109375 2.78125 
Q 49.265625 0.734375 44.1875 -0.34375 
Q 39.109375 -1.421875 33.890625 -1.421875 
Q 20.796875 -1.421875 13.15625 6.1875 
Q 5.515625 13.8125 5.515625 26.8125 
Q 5.515625 40.234375 12.765625 48.109375 
Q 20.015625 56 32.328125 56 
Q 43.359375 56 49.78125 48.890625 
Q 56.203125 41.796875 56.203125 29.59375 
z
M 47.21875 32.234375 
Q 47.125 39.59375 43.09375 43.984375 
Q 39.0625 48.390625 32.421875 48.390625 
Q 24.90625 48.390625 20.390625 44.140625 
Q 15.875 39.890625 15.1875 32.171875 
z
" id="DejaVuSans-101"/>
      <path d="M 11.71875 12.40625 
L 22.015625 12.40625 
L 22.015625 0 
L 11.71875 0 
z
M 11.71875 51.703125 
L 22.015625 51.703125 
L 22.015625 39.3125 
L 11.71875 39.3125 
z
" id="DejaVuSans-58"/>
      <path id="DejaVuSans-32"/>
     </defs>
     <use xlink:href="#DejaVuSans-70"/>
     <use x="50.269531" xlink:href="#DejaVuSans-114"/>
     <use x="91.382812" xlink:href="#DejaVuSans-97"/>
     <use x="152.662109" xlink:href="#DejaVuSans-109"/>
     <use x="250.074219" xlink:href="#DejaVuSans-101"/>
     <use x="311.597656" xlink:href="#DejaVuSans-58"/>
     <use x="345.289062" xlink:href="#DejaVuSans-32"/>
     <use x="377.076172" xlink:href="#DejaVuSans-49"/>
     <use x="440.699219" xlink:href="#DejaVuSans-49"/>
    </g>
   </g>
   <g id="text_55">
    <!-- Network: hsa04066 -->
    <g transform="translate(384.1275 63.12)scale(0.12 -0.12)">
     <defs>
      <path d="M 18.3125 70.21875 
L 18.3125 54.6875 
L 36.8125 54.6875 
L 36.8125 47.703125 
L 18.3125 47.703125 
L 18.3125 18.015625 
Q 18.3125 11.328125 20.140625 9.421875 
Q 21.96875 7.515625 27.59375 7.515625 
L 36.8125 7.515625 
L 36.8125 0 
L 27.59375 0 
Q 17.1875 0 13.234375 3.875 
Q 9.28125 7.765625 9.28125 18.015625 
L 9.28125 47.703125 
L 2.6875 47.703125 
L 2.6875 54.6875 
L 9.28125 54.6875 
L 9.28125 70.21875 
z
" id="DejaVuSans-116"/>
      <path d="M 4.203125 54.6875 
L 13.1875 54.6875 
L 24.421875 12.015625 
L 35.59375 54.6875 
L 46.1875 54.6875 
L 57.421875 12.015625 
L 68.609375 54.6875 
L 77.59375 54.6875 
L 63.28125 0 
L 52.6875 0 
L 40.921875 44.828125 
L 29.109375 0 
L 18.5 0 
z
" id="DejaVuSans-119"/>
      <path d="M 30.609375 48.390625 
Q 23.390625 48.390625 19.1875 42.75 
Q 14.984375 37.109375 14.984375 27.296875 
Q 14.984375 17.484375 19.15625 11.84375 
Q 23.34375 6.203125 30.609375 6.203125 
Q 37.796875 6.203125 41.984375 11.859375 
Q 46.1875 17.53125 46.1875 27.296875 
Q 46.1875 37.015625 41.984375 42.703125 
Q 37.796875 48.390625 30.609375 48.390625 
z
M 30.609375 56 
Q 42.328125 56 49.015625 48.375 
Q 55.71875 40.765625 55.71875 27.296875 
Q 55.71875 13.875 49.015625 6.21875 
Q 42.328125 -1.421875 30.609375 -1.421875 
Q 18.84375 -1.421875 12.171875 6.21875 
Q 5.515625 13.875 5.515625 27.296875 
Q 5.515625 40.765625 12.171875 48.375 
Q 18.84375 56 30.609375 56 
z
" id="DejaVuSans-111"/>
      <path d="M 9.078125 75.984375 
L 18.109375 75.984375 
L 18.109375 31.109375 
L 44.921875 54.6875 
L 56.390625 54.6875 
L 27.390625 29.109375 
L 57.625 0 
L 45.90625 0 
L 18.109375 26.703125 
L 18.109375 0 
L 9.078125 0 
z
" id="DejaVuSans-107"/>
      <path d="M 54.890625 33.015625 
L 54.890625 0 
L 45.90625 0 
L 45.90625 32.71875 
Q 45.90625 40.484375 42.875 44.328125 
Q 39.84375 48.1875 33.796875 48.1875 
Q 26.515625 48.1875 22.3125 43.546875 
Q 18.109375 38.921875 18.109375 30.90625 
L 18.109375 0 
L 9.078125 0 
L 9.078125 75.984375 
L 18.109375 75.984375 
L 18.109375 46.1875 
Q 21.34375 51.125 25.703125 53.5625 
Q 30.078125 56 35.796875 56 
Q 45.21875 56 50.046875 50.171875 
Q 54.890625 44.34375 54.890625 33.015625 
z
" id="DejaVuSans-104"/>
      <path d="M 44.28125 53.078125 
L 44.28125 44.578125 
Q 40.484375 46.53125 36.375 47.5 
Q 32.28125 48.484375 27.875 48.484375 
Q 21.1875 48.484375 17.84375 46.4375 
Q 14.5 44.390625 14.5 40.28125 
Q 14.5 37.15625 16.890625 35.375 
Q 19.28125 33.59375 26.515625 31.984375 
L 29.59375 31.296875 
Q 39.15625 29.25 43.1875 25.515625 
Q 47.21875 21.78125 47.21875 15.09375 
Q 47.21875 7.46875 41.1875 3.015625 
Q 35.15625 -1.421875 24.609375 -1.421875 
Q 20.21875 -1.421875 15.453125 -0.5625 
Q 10.6875 0.296875 5.421875 2 
L 5.421875 11.28125 
Q 10.40625 8.6875 15.234375 7.390625 
Q 20.0625 6.109375 24.8125 6.109375 
Q 31.15625 6.109375 34.5625 8.28125 
Q 37.984375 10.453125 37.984375 14.40625 
Q 37.984375 18.0625 35.515625 20.015625 
Q 33.0625 21.96875 24.703125 23.78125 
L 21.578125 24.515625 
Q 13.234375 26.265625 9.515625 29.90625 
Q 5.8125 33.546875 5.8125 39.890625 
Q 5.8125 47.609375 11.28125 51.796875 
Q 16.75 56 26.8125 56 
Q 31.78125 56 36.171875 55.265625 
Q 40.578125 54.546875 44.28125 53.078125 
z
" id="DejaVuSans-115"/>
     </defs>
     <use xlink:href="#DejaVuSans-78"/>
     <use x="74.804688" xlink:href="#DejaVuSans-101"/>
     <use x="136.328125" xlink:href="#DejaVuSans-116"/>
     <use x="175.537109" xlink:href="#DejaVuSans-119"/>
     <use x="257.324219" xlink:href="#DejaVuSans-111"/>
     <use x="318.505859" xlink:href="#DejaVuSans-114"/>
     <use x="359.619141" xlink:href="#DejaVuSans-107"/>
     <use x="417.529297" xlink:href="#DejaVuSans-58"/>
     <use x="451.220703" xlink:href="#DejaVuSans-32"/>
     <use x="483.007812" xlink:href="#DejaVuSans-104"/>
     <use x="546.386719" xlink:href="#DejaVuSans-115"/>
     <use x="598.486328" xlink:href="#DejaVuSans-97"/>
     <use x="659.765625" xlink:href="#DejaVuSans-48"/>
     <use x="723.388672" xlink:href="#DejaVuSans-52"/>
     <use x="787.011719" xlink:href="#DejaVuSans-48"/>
     <use x="850.634766" xlink:href="#DejaVuSans-54"/>
     <use x="914.257812" xlink:href="#DejaVuSans-54"/>
    </g>
   </g>
  </g>
 </g>
 <defs>
  <clipPath id="p9ffd2a87a9">
   <rect height="443.52" width="669.6" x="108" y="69.12"/>
  </clipPath>
 </defs>
</svg>
