<?xml version="1.0" encoding="utf-8" standalone="no"?>
<!DOCTYPE svg PUBLIC "-//W3C//DTD SVG 1.1//EN"
  "http://www.w3.org/Graphics/SVG/1.1/DTD/svg11.dtd">
<!-- Created with matplotlib (https://matplotlib.org/) -->
<svg height="576pt" version="1.1" viewBox="0 0 864 576" width="864pt" xmlns="http://www.w3.org/2000/svg" xmlns:xlink="http://www.w3.org/1999/xlink">
 <metadata>
  <rdf:RDF xmlns:cc="http://creativecommons.org/ns#" xmlns:dc="http://purl.org/dc/elements/1.1/" xmlns:rdf="http://www.w3.org/1999/02/22-rdf-syntax-ns#">
   <cc:Work>
    <dc:type rdf:resource="http://purl.org/dc/dcmitype/StillImage"/>
    <dc:date>2024-04-10T11:05:03.107763</dc:date>
    <dc:format>image/svg+xml</dc:format>
    <dc:creator>
     <cc:Agent>
      <dc:title>Matplotlib v3.3.1, https://matplotlib.org/</dc:title>
     </cc:Agent>
    </dc:creator>
   </cc:Work>
  </rdf:RDF>
 </metadata>
 <defs>
  <style type="text/css">*{stroke-linecap:butt;stroke-linejoin:round;}</style>
 </defs>
 <g id="figure_1">
  <g id="patch_1">
   <path d="M 0 576 
L 864 576 
L 864 0 
L 0 0 
z
" style="fill:#ffffff;"/>
  </g>
  <g id="axes_1">
   <g id="patch_2">
    <path clip-path="url(#p2c2ae01fde)" d="M 382.153867 315.596273 
Q 417.314364 294.32555 451.518255 273.633536 
" style="fill:none;stroke:#000000;stroke-linecap:round;"/>
    <path clip-path="url(#p2c2ae01fde)" d="M 447.060569 273.99276 
L 451.518255 273.633536 
L 449.131023 277.415219 
L 447.060569 273.99276 
z
" style="stroke:#000000;stroke-linecap:round;"/>
   </g>
   <g id="patch_3">
    <path clip-path="url(#p2c2ae01fde)" d="M 448.54035 200.878371 
Q 453.496155 230.45562 458.267205 258.930206 
" style="fill:none;stroke:#000000;stroke-linecap:round;"/>
    <path clip-path="url(#p2c2ae01fde)" d="M 459.578704 254.654698 
L 458.267205 258.930206 
L 455.633698 255.315702 
L 459.578704 254.654698 
z
" style="stroke:#000000;stroke-linecap:round;"/>
   </g>
   <g id="patch_4">
    <path clip-path="url(#p2c2ae01fde)" d="M 470.171393 271.567003 
Q 586.997257 254.525998 702.716794 237.64637 
" style="fill:none;stroke:#000000;stroke-linecap:round;"/>
    <path clip-path="url(#p2c2ae01fde)" d="M 698.470003 236.24467 
L 702.716794 237.64637 
L 699.04736 240.202783 
L 698.470003 236.24467 
z
" style="stroke:#000000;stroke-linecap:round;"/>
   </g>
   <g id="patch_5">
    <path clip-path="url(#p2c2ae01fde)" d="M 455.784038 279.228913 
Q 379.091067 363.735602 303.149463 447.414373 
" style="fill:none;stroke:#000000;stroke-linecap:round;"/>
    <path clip-path="url(#p2c2ae01fde)" d="M 307.318659 445.796408 
L 303.149463 447.414373 
L 304.356609 443.108238 
L 307.318659 445.796408 
z
" style="stroke:#000000;stroke-linecap:round;"/>
   </g>
   <g id="patch_6">
    <path clip-path="url(#p2c2ae01fde)" d="M 470.122763 274.387118 
Q 590.548672 296.583972 709.875069 318.578165 
" style="fill:none;stroke:#000000;stroke-linecap:round;"/>
    <path clip-path="url(#p2c2ae01fde)" d="M 706.303865 315.886232 
L 709.875069 318.578165 
L 705.5788 319.819968 
L 706.303865 315.886232 
z
" style="stroke:#000000;stroke-linecap:round;"/>
   </g>
   <g id="patch_7">
    <path clip-path="url(#p2c2ae01fde)" d="M 460.088316 281.342002 
Q 443.714674 373.482852 427.536644 464.522912 
" style="fill:none;stroke:#000000;stroke-linecap:round;"/>
    <path clip-path="url(#p2c2ae01fde)" d="M 430.20564 460.934533 
L 427.536644 464.522912 
L 426.267338 460.234688 
L 430.20564 460.934533 
z
" style="stroke:#000000;stroke-linecap:round;"/>
   </g>
   <g id="patch_8">
    <path clip-path="url(#p2c2ae01fde)" d="M 454.770636 267.497646 
Q 378.527139 208.142517 303.165857 149.474189 
" style="fill:none;stroke:#000000;stroke-linecap:round;"/>
    <path clip-path="url(#p2c2ae01fde)" d="M 305.093584 153.509517 
L 303.165857 149.474189 
L 307.550756 150.353204 
L 305.093584 153.509517 
z
" style="stroke:#000000;stroke-linecap:round;"/>
   </g>
   <g id="patch_9">
    <path clip-path="url(#p2c2ae01fde)" d="M 457.653315 265.110424 
Q 419.264007 190.212552 381.384668 116.309633 
" style="fill:none;stroke:#000000;stroke-linecap:round;"/>
    <path clip-path="url(#p2c2ae01fde)" d="M 381.429361 120.781545 
L 381.384668 116.309633 
L 384.989014 118.957026 
L 381.429361 120.781545 
z
" style="stroke:#000000;stroke-linecap:round;"/>
   </g>
   <g id="patch_10">
    <path clip-path="url(#p2c2ae01fde)" d="M 461.100455 281.462533 
Q 457.200355 348.5243 453.365166 414.469919 
" style="fill:none;stroke:#000000;stroke-linecap:round;"/>
    <path clip-path="url(#p2c2ae01fde)" d="M 455.594027 410.592784 
L 453.365166 414.469919 
L 451.600774 410.360549 
L 455.594027 410.592784 
z
" style="stroke:#000000;stroke-linecap:round;"/>
   </g>
   <g id="patch_11">
    <path clip-path="url(#p2c2ae01fde)" d="M 453.828426 276.633408 
Q 344.789904 330.159481 236.755013 383.19288 
" style="fill:none;stroke:#000000;stroke-linecap:round;"/>
    <path clip-path="url(#p2c2ae01fde)" d="M 241.227029 383.225586 
L 236.755013 383.19288 
L 239.464387 379.634891 
L 241.227029 383.225586 
z
" style="stroke:#000000;stroke-linecap:round;"/>
   </g>
   <g id="patch_12">
    <path clip-path="url(#p2c2ae01fde)" d="M 452.961219 272.266489 
Q 317.638982 263.649272 183.432518 255.103106 
" style="fill:none;stroke:#000000;stroke-linecap:round;"/>
    <path clip-path="url(#p2c2ae01fde)" d="M 187.297332 257.353266 
L 183.432518 255.103106 
L 187.551534 253.361351 
L 187.297332 257.353266 
z
" style="stroke:#000000;stroke-linecap:round;"/>
   </g>
   <g id="patch_13">
    <path clip-path="url(#p2c2ae01fde)" d="M 468.844003 268.070058 
Q 554.538145 211.892286 639.297262 156.327481 
" style="fill:none;stroke:#000000;stroke-linecap:round;"/>
    <path clip-path="url(#p2c2ae01fde)" d="M 634.855506 156.847872 
L 639.297262 156.327481 
L 637.048522 160.19312 
L 634.855506 156.847872 
z
" style="stroke:#000000;stroke-linecap:round;"/>
   </g>
   <g id="patch_14">
    <path clip-path="url(#p2c2ae01fde)" d="M 453.629509 269.445294 
Q 349.030676 225.218152 245.461608 181.426422 
" style="fill:none;stroke:#000000;stroke-linecap:round;"/>
    <path clip-path="url(#p2c2ae01fde)" d="M 248.36692 184.826299 
L 245.461608 181.426422 
L 249.924697 181.142099 
L 248.36692 184.826299 
z
" style="stroke:#000000;stroke-linecap:round;"/>
   </g>
   <g id="patch_15">
    <path clip-path="url(#p2c2ae01fde)" d="M 469.423062 269.101697 
Q 555.290946 228.306691 640.148972 187.991461 
" style="fill:none;stroke:#000000;stroke-linecap:round;"/>
    <path clip-path="url(#p2c2ae01fde)" d="M 635.677741 187.901463 
L 640.148972 187.991461 
L 637.394235 191.514446 
L 635.677741 187.901463 
z
" style="stroke:#000000;stroke-linecap:round;"/>
   </g>
   <g id="patch_16">
    <path clip-path="url(#p2c2ae01fde)" d="M 469.934159 270.440681 
Q 573.164537 240.997455 675.319758 211.860883 
" style="fill:none;stroke:#000000;stroke-linecap:round;"/>
    <path clip-path="url(#p2c2ae01fde)" d="M 670.924598 211.034706 
L 675.319758 211.860883 
L 672.02172 214.881305 
L 670.924598 211.034706 
z
" style="stroke:#000000;stroke-linecap:round;"/>
   </g>
   <g id="patch_17">
    <path clip-path="url(#p2c2ae01fde)" d="M 470.261692 272.760498 
Q 589.692308 271.983794 708.004914 271.21436 
" style="fill:none;stroke:#000000;stroke-linecap:round;"/>
    <path clip-path="url(#p2c2ae01fde)" d="M 703.991992 269.240415 
L 708.004914 271.21436 
L 704.018005 273.240331 
L 703.991992 269.240415 
z
" style="stroke:#000000;stroke-linecap:round;"/>
   </g>
   <g id="patch_18">
    <path clip-path="url(#p2c2ae01fde)" d="M 464.69022 280.905141 
Q 497.871949 367.84671 530.65502 453.743735 
" style="fill:none;stroke:#000000;stroke-linecap:round;"/>
    <path clip-path="url(#p2c2ae01fde)" d="M 531.097283 449.293521 
L 530.65502 453.743735 
L 527.360207 450.719797 
L 531.097283 449.293521 
z
" style="stroke:#000000;stroke-linecap:round;"/>
   </g>
   <g id="patch_19">
    <path clip-path="url(#p2c2ae01fde)" d="M 462.380302 264.190993 
Q 467.846889 203.507098 473.213166 143.936727 
" style="fill:none;stroke:#000000;stroke-linecap:round;"/>
    <path clip-path="url(#p2c2ae01fde)" d="M 470.862353 147.741156 
L 473.213166 143.936727 
L 474.846222 148.100035 
L 470.862353 147.741156 
z
" style="stroke:#000000;stroke-linecap:round;"/>
   </g>
   <g id="patch_20">
    <path clip-path="url(#p2c2ae01fde)" d="M 465.072711 264.87978 
Q 496.551528 192.865945 527.582541 121.876547 
" style="fill:none;stroke:#000000;stroke-linecap:round;"/>
    <path clip-path="url(#p2c2ae01fde)" d="M 524.14786 124.74063 
L 527.582541 121.876547 
L 527.812998 126.342741 
L 524.14786 124.74063 
z
" style="stroke:#000000;stroke-linecap:round;"/>
   </g>
   <g id="patch_21">
    <path clip-path="url(#p2c2ae01fde)" d="M 454.611619 277.930546 
Q 355.977152 350.072496 258.245102 421.554412 
" style="fill:none;stroke:#000000;stroke-linecap:round;"/>
    <path clip-path="url(#p2c2ae01fde)" d="M 262.65439 420.807295 
L 258.245102 421.554412 
L 260.292981 417.578711 
L 262.65439 420.807295 
z
" style="stroke:#000000;stroke-linecap:round;"/>
   </g>
   <g id="patch_22">
    <path clip-path="url(#p2c2ae01fde)" d="M 454.071461 268.539152 
Q 351.767359 210.43597 250.435438 152.884934 
" style="fill:none;stroke:#000000;stroke-linecap:round;"/>
    <path clip-path="url(#p2c2ae01fde)" d="M 252.925908 156.599441 
L 250.435438 152.884934 
L 254.901325 153.121262 
L 252.925908 156.599441 
z
" style="stroke:#000000;stroke-linecap:round;"/>
   </g>
   <g id="patch_23">
    <path clip-path="url(#p2c2ae01fde)" d="M 467.504404 266.480422 
Q 522.892446 207.007181 577.518518 148.352109 
" style="fill:none;stroke:#000000;stroke-linecap:round;"/>
    <path clip-path="url(#p2c2ae01fde)" d="M 573.328825 149.916229 
L 577.518518 148.352109 
L 576.255998 152.642335 
L 573.328825 149.916229 
z
" style="stroke:#000000;stroke-linecap:round;"/>
   </g>
   <g id="patch_24">
    <path clip-path="url(#p2c2ae01fde)" d="M 469.744538 275.759244 
Q 586.086304 317.80773 701.376604 359.476193 
" style="fill:none;stroke:#000000;stroke-linecap:round;"/>
    <path clip-path="url(#p2c2ae01fde)" d="M 698.294568 356.235659 
L 701.376604 359.476193 
L 696.934955 359.997501 
L 698.294568 356.235659 
z
" style="stroke:#000000;stroke-linecap:round;"/>
   </g>
   <g id="patch_25">
    <path clip-path="url(#p2c2ae01fde)" d="M 470.112057 274.438332 
Q 575.732857 294.566528 680.255388 314.485426 
" style="fill:none;stroke:#000000;stroke-linecap:round;"/>
    <path clip-path="url(#p2c2ae01fde)" d="M 676.700504 311.771977 
L 680.255388 314.485426 
L 675.951699 315.701264 
L 676.700504 311.771977 
z
" style="stroke:#000000;stroke-linecap:round;"/>
   </g>
   <g id="patch_26">
    <path clip-path="url(#p2c2ae01fde)" d="M 452.94741 272.964362 
Q 316.82117 275.28488 181.8128 277.586342 
" style="fill:none;stroke:#000000;stroke-linecap:round;"/>
    <path clip-path="url(#p2c2ae01fde)" d="M 185.846308 279.517874 
L 181.8128 277.586342 
L 185.778131 275.518455 
L 185.846308 279.517874 
z
" style="stroke:#000000;stroke-linecap:round;"/>
   </g>
   <g id="patch_27">
    <path clip-path="url(#p2c2ae01fde)" d="M 459.731654 264.362366 
Q 443.707959 191.980071 427.925919 120.689382 
" style="fill:none;stroke:#000000;stroke-linecap:round;"/>
    <path clip-path="url(#p2c2ae01fde)" d="M 426.837767 125.027115 
L 427.925919 120.689382 
L 430.743214 124.162543 
L 426.837767 125.027115 
z
" style="stroke:#000000;stroke-linecap:round;"/>
   </g>
   <g id="patch_28">
    <path clip-path="url(#p2c2ae01fde)" d="M 463.786522 270.341174 
Q 583.801867 253.876303 702.709553 237.563392 
" style="fill:none;stroke:#000000;stroke-linecap:round;"/>
    <path clip-path="url(#p2c2ae01fde)" d="M 698.474838 236.125618 
L 702.709553 237.563392 
L 699.018505 240.088499 
L 698.474838 236.125618 
z
" style="stroke:#000000;stroke-linecap:round;"/>
   </g>
   <g id="patch_29">
    <path clip-path="url(#p2c2ae01fde)" d="M 449.532815 278.065935 
Q 375.890907 363.087056 302.980989 447.263079 
" style="fill:none;stroke:#000000;stroke-linecap:round;"/>
    <path clip-path="url(#p2c2ae01fde)" d="M 307.111593 445.548989 
L 302.980989 447.263079 
L 304.088079 442.930141 
L 307.111593 445.548989 
z
" style="stroke:#000000;stroke-linecap:round;"/>
   </g>
   <g id="patch_30">
    <path clip-path="url(#p2c2ae01fde)" d="M 463.716968 273.09159 
Q 587.345629 295.934269 709.874866 318.573809 
" style="fill:none;stroke:#000000;stroke-linecap:round;"/>
    <path clip-path="url(#p2c2ae01fde)" d="M 706.304831 315.880326 
L 709.874866 318.573809 
L 705.578059 319.813748 
L 706.304831 315.880326 
z
" style="stroke:#000000;stroke-linecap:round;"/>
   </g>
   <g id="patch_31">
    <path clip-path="url(#p2c2ae01fde)" d="M 453.961648 280.086427 
Q 440.514974 372.833216 427.228718 464.473539 
" style="fill:none;stroke:#000000;stroke-linecap:round;"/>
    <path clip-path="url(#p2c2ae01fde)" d="M 429.781953 460.801893 
L 427.228718 464.473539 
L 425.823342 460.227963 
L 429.781953 460.801893 
z
" style="stroke:#000000;stroke-linecap:round;"/>
   </g>
   <g id="patch_32">
    <path clip-path="url(#p2c2ae01fde)" d="M 448.444226 266.100449 
Q 375.326305 207.492546 303.080761 149.5839 
" style="fill:none;stroke:#000000;stroke-linecap:round;"/>
    <path clip-path="url(#p2c2ae01fde)" d="M 304.951003 153.646189 
L 303.080761 149.5839 
L 307.452738 150.52508 
L 304.951003 153.646189 
z
" style="stroke:#000000;stroke-linecap:round;"/>
   </g>
   <g id="patch_33">
    <path clip-path="url(#p2c2ae01fde)" d="M 451.471167 263.702728 
Q 416.063759 189.562389 381.138168 116.430936 
" style="fill:none;stroke:#000000;stroke-linecap:round;"/>
    <path clip-path="url(#p2c2ae01fde)" d="M 381.057217 120.902339 
L 381.138168 116.430936 
L 384.66672 119.178539 
L 381.057217 120.902339 
z
" style="stroke:#000000;stroke-linecap:round;"/>
   </g>
   <g id="patch_34">
    <path clip-path="url(#p2c2ae01fde)" d="M 455.067447 280.173233 
Q 454.000564 347.87577 452.951298 414.460412 
" style="fill:none;stroke:#000000;stroke-linecap:round;"/>
    <path clip-path="url(#p2c2ae01fde)" d="M 455.014075 410.492422 
L 452.951298 414.460412 
L 451.014572 410.429396 
L 455.014075 410.492422 
z
" style="stroke:#000000;stroke-linecap:round;"/>
   </g>
   <g id="patch_35">
    <path clip-path="url(#p2c2ae01fde)" d="M 447.489407 275.456303 
Q 341.591723 329.509645 236.68985 383.054696 
" style="fill:none;stroke:#000000;stroke-linecap:round;"/>
    <path clip-path="url(#p2c2ae01fde)" d="M 241.161832 383.017537 
L 236.68985 383.054696 
L 239.343312 379.454815 
L 241.161832 383.017537 
z
" style="stroke:#000000;stroke-linecap:round;"/>
   </g>
   <g id="patch_36">
    <path clip-path="url(#p2c2ae01fde)" d="M 446.556248 270.995317 
Q 314.437281 263.000056 183.434306 255.072329 
" style="fill:none;stroke:#000000;stroke-linecap:round;"/>
    <path clip-path="url(#p2c2ae01fde)" d="M 187.306192 257.310298 
L 183.434306 255.072329 
L 187.547812 253.317602 
L 187.306192 257.310298 
z
" style="stroke:#000000;stroke-linecap:round;"/>
   </g>
   <g id="patch_37">
    <path clip-path="url(#p2c2ae01fde)" d="M 462.541305 266.918106 
Q 551.338044 211.243419 639.187541 156.162644 
" style="fill:none;stroke:#000000;stroke-linecap:round;"/>
    <path clip-path="url(#p2c2ae01fde)" d="M 634.73616 156.593008 
L 639.187541 156.162644 
L 636.861004 159.981967 
L 634.73616 156.593008 
z
" style="stroke:#000000;stroke-linecap:round;"/>
   </g>
   <g id="patch_38">
    <path clip-path="url(#p2c2ae01fde)" d="M 447.243094 268.101394 
Q 345.829545 224.568465 245.443374 181.47655 
" style="fill:none;stroke:#000000;stroke-linecap:round;"/>
    <path clip-path="url(#p2c2ae01fde)" d="M 248.330126 184.892201 
L 245.443374 181.47655 
L 249.907945 181.216539 
L 248.330126 184.892201 
z
" style="stroke:#000000;stroke-linecap:round;"/>
   </g>
   <g id="patch_39">
    <path clip-path="url(#p2c2ae01fde)" d="M 463.095545 267.946041 
Q 552.094309 227.656182 640.074546 187.827411 
" style="fill:none;stroke:#000000;stroke-linecap:round;"/>
    <path clip-path="url(#p2c2ae01fde)" d="M 635.605732 187.655055 
L 640.074546 187.827411 
L 637.255373 191.299048 
L 635.605732 187.655055 
z
" style="stroke:#000000;stroke-linecap:round;"/>
   </g>
   <g id="patch_40">
    <path clip-path="url(#p2c2ae01fde)" d="M 463.563538 269.24805 
Q 569.963712 240.348688 675.284941 211.742378 
" style="fill:none;stroke:#000000;stroke-linecap:round;"/>
    <path clip-path="url(#p2c2ae01fde)" d="M 670.900566 210.860759 
L 675.284941 211.742378 
L 671.949021 214.720907 
L 670.900566 210.860759 
z
" style="stroke:#000000;stroke-linecap:round;"/>
   </g>
   <g id="patch_41">
    <path clip-path="url(#p2c2ae01fde)" d="M 463.862189 271.506501 
Q 586.492964 271.3347 708.005705 271.164465 
" style="fill:none;stroke:#000000;stroke-linecap:round;"/>
    <path clip-path="url(#p2c2ae01fde)" d="M 704.002907 269.170071 
L 708.005705 271.164465 
L 704.008511 273.170067 
L 704.002907 269.170071 
z
" style="stroke:#000000;stroke-linecap:round;"/>
   </g>
   <g id="patch_42">
    <path clip-path="url(#p2c2ae01fde)" d="M 458.505311 279.522056 
Q 494.672044 367.197171 530.412429 453.838736 
" style="fill:none;stroke:#000000;stroke-linecap:round;"/>
    <path clip-path="url(#p2c2ae01fde)" d="M 530.73595 449.378318 
L 530.412429 453.838736 
L 527.038207 450.903668 
L 530.73595 449.378318 
z
" style="stroke:#000000;stroke-linecap:round;"/>
   </g>
   <g id="patch_43">
    <path clip-path="url(#p2c2ae01fde)" d="M 456.383687 262.940069 
Q 464.647405 202.855836 472.758788 143.87921 
" style="fill:none;stroke:#000000;stroke-linecap:round;"/>
    <path clip-path="url(#p2c2ae01fde)" d="M 470.232428 147.569401 
L 472.758788 143.87921 
L 474.195124 148.114413 
L 470.232428 147.569401 
z
" style="stroke:#000000;stroke-linecap:round;"/>
   </g>
   <g id="patch_44">
    <path clip-path="url(#p2c2ae01fde)" d="M 458.958328 263.713803 
Q 493.352367 192.215691 527.26174 121.725099 
" style="fill:none;stroke:#000000;stroke-linecap:round;"/>
    <path clip-path="url(#p2c2ae01fde)" d="M 523.725437 124.462719 
L 527.26174 121.725099 
L 527.330054 126.196713 
L 523.725437 124.462719 
z
" style="stroke:#000000;stroke-linecap:round;"/>
   </g>
   <g id="patch_45">
    <path clip-path="url(#p2c2ae01fde)" d="M 448.311454 276.760923 
Q 352.776649 349.424017 258.131726 421.410273 
" style="fill:none;stroke:#000000;stroke-linecap:round;"/>
    <path clip-path="url(#p2c2ae01fde)" d="M 262.52623 420.580613 
L 258.131726 421.410273 
L 260.1047 417.396874 
L 262.52623 420.580613 
z
" style="stroke:#000000;stroke-linecap:round;"/>
   </g>
   <g id="patch_46">
    <path clip-path="url(#p2c2ae01fde)" d="M 447.709202 267.179987 
Q 348.567474 209.786789 250.393342 152.953732 
" style="fill:none;stroke:#000000;stroke-linecap:round;"/>
    <path clip-path="url(#p2c2ae01fde)" d="M 252.853106 156.688644 
L 250.393342 152.953732 
L 254.85713 153.226868 
L 252.853106 156.688644 
z
" style="stroke:#000000;stroke-linecap:round;"/>
   </g>
   <g id="patch_47">
    <path clip-path="url(#p2c2ae01fde)" d="M 461.294965 265.364055 
Q 519.69256 206.358239 577.303691 148.147078 
" style="fill:none;stroke:#000000;stroke-linecap:round;"/>
    <path clip-path="url(#p2c2ae01fde)" d="M 573.068433 149.583252 
L 577.303691 148.147078 
L 575.911475 152.396988 
L 573.068433 149.583252 
z
" style="stroke:#000000;stroke-linecap:round;"/>
   </g>
   <g id="patch_48">
    <path clip-path="url(#p2c2ae01fde)" d="M 463.35953 274.433874 
Q 582.891424 317.160382 701.37052 359.510568 
" style="fill:none;stroke:#000000;stroke-linecap:round;"/>
    <path clip-path="url(#p2c2ae01fde)" d="M 698.277101 356.2809 
L 701.37052 359.510568 
L 696.930734 360.047503 
L 698.277101 356.2809 
z
" style="stroke:#000000;stroke-linecap:round;"/>
   </g>
   <g id="patch_49">
    <path clip-path="url(#p2c2ae01fde)" d="M 463.707698 273.142066 
Q 572.530945 293.91702 680.255992 314.482323 
" style="fill:none;stroke:#000000;stroke-linecap:round;"/>
    <path clip-path="url(#p2c2ae01fde)" d="M 676.701986 311.767725 
L 680.255992 314.482323 
L 675.95191 315.696769 
L 676.701986 311.767725 
z
" style="stroke:#000000;stroke-linecap:round;"/>
   </g>
   <g id="patch_50">
    <path clip-path="url(#p2c2ae01fde)" d="M 446.54915 271.709176 
Q 313.619727 274.635812 181.808067 277.537839 
" style="fill:none;stroke:#000000;stroke-linecap:round;"/>
    <path clip-path="url(#p2c2ae01fde)" d="M 185.85112 279.44931 
L 181.808067 277.537839 
L 185.763076 275.450279 
L 185.85112 279.44931 
z
" style="stroke:#000000;stroke-linecap:round;"/>
   </g>
   <g id="patch_51">
    <path clip-path="url(#p2c2ae01fde)" d="M 453.642192 262.997477 
Q 440.507879 191.329467 427.575107 120.761176 
" style="fill:none;stroke:#000000;stroke-linecap:round;"/>
    <path clip-path="url(#p2c2ae01fde)" d="M 426.328926 125.056176 
L 427.575107 120.761176 
L 430.263399 124.335121 
L 426.328926 125.056176 
z
" style="stroke:#000000;stroke-linecap:round;"/>
   </g>
   <g id="patch_52">
    <path clip-path="url(#p2c2ae01fde)" d="M 468.471312 267.473339 
Q 586.139469 252.403879 702.69865 237.476442 
" style="fill:none;stroke:#000000;stroke-linecap:round;"/>
    <path clip-path="url(#p2c2ae01fde)" d="M 698.476995 236.000765 
L 702.69865 237.476442 
L 698.985114 239.96836 
L 698.476995 236.000765 
z
" style="stroke:#000000;stroke-linecap:round;"/>
   </g>
   <g id="patch_53">
    <path clip-path="url(#p2c2ae01fde)" d="M 454.16923 275.083869 
Q 378.230111 361.61474 303.028456 447.305287 
" style="fill:none;stroke:#000000;stroke-linecap:round;"/>
    <path clip-path="url(#p2c2ae01fde)" d="M 307.17011 445.618068 
L 303.028456 447.305287 
L 304.163674 442.979633 
L 307.17011 445.618068 
z
" style="stroke:#000000;stroke-linecap:round;"/>
   </g>
   <g id="patch_54">
    <path clip-path="url(#p2c2ae01fde)" d="M 468.37212 270.266347 
Q 589.685596 294.461601 709.902632 318.438177 
" style="fill:none;stroke:#000000;stroke-linecap:round;"/>
    <path clip-path="url(#p2c2ae01fde)" d="M 706.371075 315.694439 
L 709.902632 318.438177 
L 705.588707 319.61718 
L 706.371075 315.694439 
z
" style="stroke:#000000;stroke-linecap:round;"/>
   </g>
   <g id="patch_55">
    <path clip-path="url(#p2c2ae01fde)" d="M 458.467859 277.114993 
Q 442.85416 371.363046 427.423191 464.508098 
" style="fill:none;stroke:#000000;stroke-linecap:round;"/>
    <path clip-path="url(#p2c2ae01fde)" d="M 430.050051 460.88876 
L 427.423191 464.508098 
L 426.103837 460.235007 
L 430.050051 460.88876 
z
" style="stroke:#000000;stroke-linecap:round;"/>
   </g>
   <g id="patch_56">
    <path clip-path="url(#p2c2ae01fde)" d="M 452.990584 263.329309 
Q 377.666246 206.020164 303.231687 149.387993 
" style="fill:none;stroke:#000000;stroke-linecap:round;"/>
    <path clip-path="url(#p2c2ae01fde)" d="M 305.204055 153.40169 
L 303.231687 149.387993 
L 307.626066 150.218317 
L 305.204055 153.40169 
z
" style="stroke:#000000;stroke-linecap:round;"/>
   </g>
   <g id="patch_57">
    <path clip-path="url(#p2c2ae01fde)" d="M 455.9145 260.873214 
Q 418.402678 188.088496 381.403046 116.29759 
" style="fill:none;stroke:#000000;stroke-linecap:round;"/>
    <path clip-path="url(#p2c2ae01fde)" d="M 381.457733 120.769391 
L 381.403046 116.29759 
L 385.013299 118.936922 
L 381.457733 120.769391 
z
" style="stroke:#000000;stroke-linecap:round;"/>
   </g>
   <g id="patch_58">
    <path clip-path="url(#p2c2ae01fde)" d="M 459.48917 277.223737 
Q 456.34019 346.402134 453.24205 414.463654 
" style="fill:none;stroke:#000000;stroke-linecap:round;"/>
    <path clip-path="url(#p2c2ae01fde)" d="M 455.421872 410.558737 
L 453.24205 414.463654 
L 451.426009 410.376847 
L 455.421872 410.558737 
z
" style="stroke:#000000;stroke-linecap:round;"/>
   </g>
   <g id="patch_59">
    <path clip-path="url(#p2c2ae01fde)" d="M 452.179507 272.523796 
Q 343.933655 328.035726 236.682645 383.03747 
" style="fill:none;stroke:#000000;stroke-linecap:round;"/>
    <path clip-path="url(#p2c2ae01fde)" d="M 241.154548 382.991798 
L 236.682645 383.03747 
L 239.329249 379.432544 
L 241.154548 382.991798 
z
" style="stroke:#000000;stroke-linecap:round;"/>
   </g>
   <g id="patch_60">
    <path clip-path="url(#p2c2ae01fde)" d="M 451.231387 268.147268 
Q 316.776934 261.527355 183.439164 254.962423 
" style="fill:none;stroke:#000000;stroke-linecap:round;"/>
    <path clip-path="url(#p2c2ae01fde)" d="M 187.335973 257.156706 
L 183.439164 254.962423 
L 187.532676 253.161546 
L 187.335973 257.156706 
z
" style="stroke:#000000;stroke-linecap:round;"/>
   </g>
   <g id="patch_61">
    <path clip-path="url(#p2c2ae01fde)" d="M 467.219318 263.973847 
Q 553.679116 209.769767 639.191644 156.159557 
" style="fill:none;stroke:#000000;stroke-linecap:round;"/>
    <path clip-path="url(#p2c2ae01fde)" d="M 634.740245 156.589723 
L 639.191644 156.159557 
L 636.864938 159.978776 
L 634.740245 156.589723 
z
" style="stroke:#000000;stroke-linecap:round;"/>
   </g>
   <g id="patch_62">
    <path clip-path="url(#p2c2ae01fde)" d="M 451.861015 265.307594 
Q 348.169829 223.096064 245.51416 181.306082 
" style="fill:none;stroke:#000000;stroke-linecap:round;"/>
    <path clip-path="url(#p2c2ae01fde)" d="M 248.464854 184.666648 
L 245.51416 181.306082 
L 249.973029 180.961867 
L 248.464854 184.666648 
z
" style="stroke:#000000;stroke-linecap:round;"/>
   </g>
   <g id="patch_63">
    <path clip-path="url(#p2c2ae01fde)" d="M 467.786072 265.030041 
Q 554.431265 226.184654 640.056261 187.796649 
" style="fill:none;stroke:#000000;stroke-linecap:round;"/>
    <path clip-path="url(#p2c2ae01fde)" d="M 635.588104 187.608045 
L 640.056261 187.796649 
L 637.224484 191.258012 
L 635.588104 187.608045 
z
" style="stroke:#000000;stroke-linecap:round;"/>
   </g>
   <g id="patch_64">
    <path clip-path="url(#p2c2ae01fde)" d="M 468.257483 266.360989 
Q 572.303604 238.875901 675.268769 211.676361 
" style="fill:none;stroke:#000000;stroke-linecap:round;"/>
    <path clip-path="url(#p2c2ae01fde)" d="M 670.890626 210.764297 
L 675.268769 211.676361 
L 671.912232 214.631637 
L 670.890626 210.764297 
z
" style="stroke:#000000;stroke-linecap:round;"/>
   </g>
   <g id="patch_65">
    <path clip-path="url(#p2c2ae01fde)" d="M 468.544418 268.659796 
Q 588.834053 269.862008 708.005711 271.053047 
" style="fill:none;stroke:#000000;stroke-linecap:round;"/>
    <path clip-path="url(#p2c2ae01fde)" d="M 704.025898 269.013171 
L 708.005711 271.053047 
L 703.985923 273.012972 
L 704.025898 269.013171 
z
" style="stroke:#000000;stroke-linecap:round;"/>
   </g>
   <g id="patch_66">
    <path clip-path="url(#p2c2ae01fde)" d="M 462.975122 276.664267 
Q 497.012117 365.725788 530.649983 453.742944 
" style="fill:none;stroke:#000000;stroke-linecap:round;"/>
    <path clip-path="url(#p2c2ae01fde)" d="M 531.090232 449.292531 
L 530.649983 453.742944 
L 527.353801 450.720497 
L 531.090232 449.292531 
z
" style="stroke:#000000;stroke-linecap:round;"/>
   </g>
   <g id="patch_67">
    <path clip-path="url(#p2c2ae01fde)" d="M 460.793908 259.957217 
Q 466.987246 201.380191 473.06303 143.915001 
" style="fill:none;stroke:#000000;stroke-linecap:round;"/>
    <path clip-path="url(#p2c2ae01fde)" d="M 470.653541 147.682541 
L 473.06303 143.915001 
L 474.631369 148.103117 
L 470.653541 147.682541 
z
" style="stroke:#000000;stroke-linecap:round;"/>
   </g>
   <g id="patch_68">
    <path clip-path="url(#p2c2ae01fde)" d="M 463.503345 260.704331 
Q 495.691103 190.744722 527.411551 121.800802 
" style="fill:none;stroke:#000000;stroke-linecap:round;"/>
    <path clip-path="url(#p2c2ae01fde)" d="M 523.922739 124.598692 
L 527.411551 121.800802 
L 527.556576 126.270586 
L 523.922739 124.598692 
z
" style="stroke:#000000;stroke-linecap:round;"/>
   </g>
   <g id="patch_69">
    <path clip-path="url(#p2c2ae01fde)" d="M 452.980202 273.803192 
Q 355.118067 347.949901 258.147069 421.421427 
" style="fill:none;stroke:#000000;stroke-linecap:round;"/>
    <path clip-path="url(#p2c2ae01fde)" d="M 262.543107 420.599931 
L 258.147069 421.421427 
L 260.127495 417.4117 
L 262.543107 420.599931 
z
" style="stroke:#000000;stroke-linecap:round;"/>
   </g>
   <g id="patch_70">
    <path clip-path="url(#p2c2ae01fde)" d="M 452.303698 264.382226 
Q 350.906664 208.313882 250.488044 152.786561 
" style="fill:none;stroke:#000000;stroke-linecap:round;"/>
    <path clip-path="url(#p2c2ae01fde)" d="M 253.020716 156.472422 
L 250.488044 152.786561 
L 254.956336 152.971941 
L 253.020716 156.472422 
z
" style="stroke:#000000;stroke-linecap:round;"/>
   </g>
   <g id="patch_71">
    <path clip-path="url(#p2c2ae01fde)" d="M 465.931385 262.375054 
Q 522.031869 204.885798 577.351509 148.196716 
" style="fill:none;stroke:#000000;stroke-linecap:round;"/>
    <path clip-path="url(#p2c2ae01fde)" d="M 573.126474 149.662692 
L 577.351509 148.196716 
L 575.989268 152.456329 
L 573.126474 149.662692 
z
" style="stroke:#000000;stroke-linecap:round;"/>
   </g>
   <g id="patch_72">
    <path clip-path="url(#p2c2ae01fde)" d="M 467.988661 271.619923 
Q 585.226786 315.686142 701.418364 359.358997 
" style="fill:none;stroke:#000000;stroke-linecap:round;"/>
    <path clip-path="url(#p2c2ae01fde)" d="M 698.377792 356.079527 
L 701.418364 359.358997 
L 696.970445 359.823772 
L 698.377792 356.079527 
z
" style="stroke:#000000;stroke-linecap:round;"/>
   </g>
   <g id="patch_73">
    <path clip-path="url(#p2c2ae01fde)" d="M 468.364623 270.334002 
Q 574.872633 292.444743 680.28595 314.328229 
" style="fill:none;stroke:#000000;stroke-linecap:round;"/>
    <path clip-path="url(#p2c2ae01fde)" d="M 676.77598 311.556928 
L 680.28595 314.328229 
L 675.962927 315.473424 
L 676.77598 311.556928 
z
" style="stroke:#000000;stroke-linecap:round;"/>
   </g>
   <g id="patch_74">
    <path clip-path="url(#p2c2ae01fde)" d="M 451.225802 268.849315 
Q 315.955121 273.163227 181.801905 277.441503 
" style="fill:none;stroke:#000000;stroke-linecap:round;"/>
    <path clip-path="url(#p2c2ae01fde)" d="M 185.863622 279.312987 
L 181.801905 277.441503 
L 185.736123 275.31502 
L 185.863622 279.312987 
z
" style="stroke:#000000;stroke-linecap:round;"/>
   </g>
   <g id="patch_75">
    <path clip-path="url(#p2c2ae01fde)" d="M 458.051899 260.112479 
Q 442.847296 189.856022 427.879178 120.692302 
" style="fill:none;stroke:#000000;stroke-linecap:round;"/>
    <path clip-path="url(#p2c2ae01fde)" d="M 426.770507 125.024835 
L 427.879178 120.692302 
L 430.680002 124.178759 
L 426.770507 125.024835 
z
" style="stroke:#000000;stroke-linecap:round;"/>
   </g>
   <g id="patch_76">
    <path clip-path="url(#p2c2ae01fde)" d="M 183.365724 228.260934 
Q 175.863487 256.063045 168.652526 282.785732 
" style="fill:none;stroke:#000000;stroke-linecap:round;"/>
    <path clip-path="url(#p2c2ae01fde)" d="M 171.625562 279.444915 
L 168.652526 282.785732 
L 167.763695 278.402813 
L 171.625562 279.444915 
z
" style="stroke:#000000;stroke-linecap:round;"/>
   </g>
   <g id="patch_77">
    <path clip-path="url(#p2c2ae01fde)" d="M 465.45088 133.5749 
Q 404.735467 129.220085 345.135223 124.945255 
" style="fill:none;stroke:#000000;stroke-linecap:round;"/>
    <path clip-path="url(#p2c2ae01fde)" d="M 348.981891 127.226295 
L 345.135223 124.945255 
L 349.268056 123.236545 
L 348.981891 127.226295 
z
" style="stroke:#000000;stroke-linecap:round;"/>
   </g>
   <g id="patch_78">
    <path clip-path="url(#p2c2ae01fde)" d="M 459.745355 429.407605 
Q 482.306383 446.204008 503.970616 462.33276 
" style="fill:none;stroke:#000000;stroke-linecap:round;"/>
    <path clip-path="url(#p2c2ae01fde)" d="M 501.956479 458.339859 
L 503.970616 462.33276 
L 499.567814 461.548329 
L 501.956479 458.339859 
z
" style="stroke:#000000;stroke-linecap:round;"/>
   </g>
   <g id="patch_79">
    <path clip-path="url(#p2c2ae01fde)" d="M 460.916688 421.231057 
Q 476.817287 415.348619 491.669308 409.854104 
" style="fill:none;stroke:#000000;stroke-linecap:round;"/>
    <path clip-path="url(#p2c2ae01fde)" d="M 487.223864 409.366223 
L 491.669308 409.854104 
L 488.611737 413.11773 
L 487.223864 409.366223 
z
" style="stroke:#000000;stroke-linecap:round;"/>
   </g>
   <g id="patch_80">
    <path clip-path="url(#p2c2ae01fde)" d="M 461.413092 425.089399 
Q 492.647963 428.187419 522.770258 431.175088 
" style="fill:none;stroke:#000000;stroke-linecap:round;"/>
    <path clip-path="url(#p2c2ae01fde)" d="M 518.98719 428.790052 
L 522.770258 431.175088 
L 518.592388 432.770521 
L 518.98719 428.790052 
z
" style="stroke:#000000;stroke-linecap:round;"/>
   </g>
   <g id="patch_81">
    <path clip-path="url(#p2c2ae01fde)" d="M 460.483246 428.22314 
Q 475.766745 436.153838 490.057862 443.569583 
" style="fill:none;stroke:#000000;stroke-linecap:round;"/>
    <path clip-path="url(#p2c2ae01fde)" d="M 487.428583 439.952002 
L 490.057862 443.569583 
L 485.58623 443.502458 
L 487.428583 439.952002 
z
" style="stroke:#000000;stroke-linecap:round;"/>
   </g>
   <g id="patch_82">
    <path clip-path="url(#p2c2ae01fde)" d="M 540.078803 276.221522 
Q 530.801067 296.597011 521.986646 315.954983 
" style="fill:none;stroke:#000000;stroke-linecap:round;"/>
    <path clip-path="url(#p2c2ae01fde)" d="M 525.464438 313.143406 
L 521.986646 315.954983 
L 521.82406 311.485803 
L 525.464438 313.143406 
z
" style="stroke:#000000;stroke-linecap:round;"/>
   </g>
   <g id="patch_83">
    <path clip-path="url(#p2c2ae01fde)" d="M 540.005214 260.491878 
Q 527.700909 234.125537 515.869405 208.772339 
" style="fill:none;stroke:#000000;stroke-linecap:round;"/>
    <path clip-path="url(#p2c2ae01fde)" d="M 515.748582 213.242843 
L 515.869405 208.772339 
L 519.373314 211.551299 
L 515.748582 213.242843 
z
" style="stroke:#000000;stroke-linecap:round;"/>
   </g>
   <g id="patch_84">
    <path clip-path="url(#p2c2ae01fde)" d="M 610.817334 257.173911 
Q 596.655569 258.71504 583.605276 260.135215 
" style="fill:none;stroke:#000000;stroke-linecap:round;"/>
    <path clip-path="url(#p2c2ae01fde)" d="M 587.798168 261.690738 
L 583.605276 260.135215 
L 587.36543 257.714215 
L 587.798168 261.690738 
z
" style="stroke:#000000;stroke-linecap:round;"/>
   </g>
   <g id="patch_85">
    <path clip-path="url(#p2c2ae01fde)" d="M 610.871879 254.909198 
Q 579.728909 250.073773 549.690735 245.409885 
" style="fill:none;stroke:#000000;stroke-linecap:round;"/>
    <path clip-path="url(#p2c2ae01fde)" d="M 553.336521 247.999913 
L 549.690735 245.409885 
L 553.950229 244.047273 
L 553.336521 247.999913 
z
" style="stroke:#000000;stroke-linecap:round;"/>
   </g>
   <g id="patch_86">
    <path clip-path="url(#p2c2ae01fde)" d="M 432.035497 297.466701 
Q 435.39399 269.032033 438.621342 241.707681 
" style="fill:none;stroke:#000000;stroke-linecap:round;"/>
    <path clip-path="url(#p2c2ae01fde)" d="M 436.165959 245.445474 
L 438.621342 241.707681 
L 440.138346 245.914663 
L 436.165959 245.445474 
z
" style="stroke:#000000;stroke-linecap:round;"/>
   </g>
   <g id="patch_87">
    <path clip-path="url(#p2c2ae01fde)" d="M 431.181939 233.118211 
Q 398.522584 237.395487 366.971796 241.527579 
" style="fill:none;stroke:#000000;stroke-linecap:round;"/>
    <path clip-path="url(#p2c2ae01fde)" d="M 371.197641 242.991215 
L 366.971796 241.527579 
L 370.678212 239.025084 
L 371.197641 242.991215 
z
" style="stroke:#000000;stroke-linecap:round;"/>
   </g>
   <g id="patch_88">
    <path clip-path="url(#p2c2ae01fde)" d="M 365.680498 244.907476 
Q 408.583029 255.685548 450.401219 266.191211 
" style="fill:none;stroke:#000000;stroke-linecap:round;"/>
    <path clip-path="url(#p2c2ae01fde)" d="M 447.00907 263.27688 
L 450.401219 266.191211 
L 446.034465 267.156332 
L 447.00907 263.27688 
z
" style="stroke:#000000;stroke-linecap:round;"/>
   </g>
   <g id="patch_89">
    <path clip-path="url(#p2c2ae01fde)" d="M 169.040588 284.076876 
Q 176.862248 262.364842 184.30498 241.70467 
" style="fill:none;stroke:#000000;stroke-linecap:round;"/>
    <path clip-path="url(#p2c2ae01fde)" d="M 181.067657 244.790078 
L 184.30498 241.70467 
L 184.830912 246.145773 
L 181.067657 244.790078 
z
" style="stroke:#000000;stroke-linecap:round;"/>
   </g>
   <g id="patch_90">
    <path clip-path="url(#p2c2ae01fde)" d="M 515.531045 450.335523 
Q 514.555163 455.013976 513.807578 458.597951 
" style="fill:none;stroke:#000000;stroke-linecap:round;"/>
    <path clip-path="url(#p2c2ae01fde)" d="M 516.582222 455.090622 
L 513.807578 458.597951 
L 512.666501 454.273839 
L 516.582222 455.090622 
z
" style="stroke:#000000;stroke-linecap:round;"/>
   </g>
   <g id="patch_91">
    <path clip-path="url(#p2c2ae01fde)" d="M 513.648196 434.008566 
Q 509.069258 424.161009 504.961716 415.327249 
" style="fill:none;stroke:#000000;stroke-linecap:round;"/>
    <path clip-path="url(#p2c2ae01fde)" d="M 504.834704 419.797581 
L 504.961716 415.327249 
L 508.461775 418.111058 
L 504.834704 419.797581 
z
" style="stroke:#000000;stroke-linecap:round;"/>
   </g>
   <g id="patch_92">
    <path clip-path="url(#p2c2ae01fde)" d="M 524.593653 437.197233 
Q 524.900743 437.000943 524.265801 437.406796 
" style="fill:none;stroke:#000000;stroke-linecap:round;"/>
    <path clip-path="url(#p2c2ae01fde)" d="M 519.81834 437.875935 
L 524.265801 437.406796 
L 521.972636 441.246248 
L 519.81834 437.875935 
z
" style="stroke:#000000;stroke-linecap:round;"/>
   </g>
   <g id="patch_93">
    <path clip-path="url(#p2c2ae01fde)" d="M 509.083947 444.61066 
Q 508.016901 444.967944 508.010036 444.970243 
" style="fill:none;stroke:#000000;stroke-linecap:round;"/>
    <path clip-path="url(#p2c2ae01fde)" d="M 512.438075 445.596716 
L 508.010036 444.970243 
L 511.168037 441.803695 
L 512.438075 445.596716 
z
" style="stroke:#000000;stroke-linecap:round;"/>
   </g>
   <g id="patch_94">
    <path clip-path="url(#p2c2ae01fde)" d="M 553.671371 458.726586 
Q 536.965793 462.495173 521.350842 466.017726 
" style="fill:none;stroke:#000000;stroke-linecap:round;"/>
    <path clip-path="url(#p2c2ae01fde)" d="M 525.692906 467.088465 
L 521.350842 466.017726 
L 524.812672 463.186518 
L 525.692906 467.088465 
z
" style="stroke:#000000;stroke-linecap:round;"/>
   </g>
   <g id="patch_95">
    <path clip-path="url(#p2c2ae01fde)" d="M 555.4272 451.322201 
Q 531.480052 431.642311 508.396679 412.672276 
" style="fill:none;stroke:#000000;stroke-linecap:round;"/>
    <path clip-path="url(#p2c2ae01fde)" d="M 510.217186 416.757096 
L 508.396679 412.672276 
L 512.756839 413.666761 
L 510.217186 416.757096 
z
" style="stroke:#000000;stroke-linecap:round;"/>
   </g>
   <g id="patch_96">
    <path clip-path="url(#p2c2ae01fde)" d="M 555.463222 451.274566 
Q 547.30915 444.478872 540.013944 438.398966 
" style="fill:none;stroke:#000000;stroke-linecap:round;"/>
    <path clip-path="url(#p2c2ae01fde)" d="M 541.806272 442.496229 
L 540.013944 438.398966 
L 544.367151 439.423461 
L 541.806272 442.496229 
z
" style="stroke:#000000;stroke-linecap:round;"/>
   </g>
   <g id="patch_97">
    <path clip-path="url(#p2c2ae01fde)" d="M 553.542232 455.637492 
Q 530.430598 452.447975 508.426501 449.411304 
" style="fill:none;stroke:#000000;stroke-linecap:round;"/>
    <path clip-path="url(#p2c2ae01fde)" d="M 512.115528 451.939363 
L 508.426501 449.411304 
L 512.662364 447.976918 
L 512.115528 451.939363 
z
" style="stroke:#000000;stroke-linecap:round;"/>
   </g>
   <g id="patch_98">
    <path clip-path="url(#p2c2ae01fde)" d="M 503.190306 467.332953 
Q 430.401666 460.266952 358.72583 453.308977 
" style="fill:none;stroke:#000000;stroke-linecap:round;"/>
    <path clip-path="url(#p2c2ae01fde)" d="M 362.513872 455.686105 
L 358.72583 453.308977 
L 362.900357 451.70482 
L 362.513872 455.686105 
z
" style="stroke:#000000;stroke-linecap:round;"/>
   </g>
   <g id="patch_99">
    <path clip-path="url(#p2c2ae01fde)" d="M 519.710892 464.623036 
Q 590.805871 432.703984 660.880895 401.242854 
" style="fill:none;stroke:#000000;stroke-linecap:round;"/>
    <path clip-path="url(#p2c2ae01fde)" d="M 656.412638 401.056617 
L 660.880895 401.242854 
L 658.050951 404.705717 
L 656.412638 401.056617 
z
" style="stroke:#000000;stroke-linecap:round;"/>
   </g>
   <g id="patch_100">
    <path clip-path="url(#p2c2ae01fde)" d="M 492.54939 408.967749 
Q 424.91972 429.412638 358.360251 449.533999 
" style="fill:none;stroke:#000000;stroke-linecap:round;"/>
    <path clip-path="url(#p2c2ae01fde)" d="M 362.767863 450.290941 
L 358.360251 449.533999 
L 361.610372 446.462075 
L 362.767863 450.290941 
z
" style="stroke:#000000;stroke-linecap:round;"/>
   </g>
   <g id="patch_101">
    <path clip-path="url(#p2c2ae01fde)" d="M 509.488988 405.989481 
Q 585.32198 401.850011 660.038601 397.77148 
" style="fill:none;stroke:#000000;stroke-linecap:round;"/>
    <path clip-path="url(#p2c2ae01fde)" d="M 655.935536 395.992475 
L 660.038601 397.77148 
L 656.153558 399.986529 
L 655.935536 395.992475 
z
" style="stroke:#000000;stroke-linecap:round;"/>
   </g>
   <g id="patch_102">
    <path clip-path="url(#p2c2ae01fde)" d="M 523.89427 433.089508 
Q 440.748978 442.252771 358.714991 451.29356 
" style="fill:none;stroke:#000000;stroke-linecap:round;"/>
    <path clip-path="url(#p2c2ae01fde)" d="M 362.910008 452.843345 
L 358.714991 451.29356 
L 362.47183 448.867418 
L 362.910008 452.843345 
z
" style="stroke:#000000;stroke-linecap:round;"/>
   </g>
   <g id="patch_103">
    <path clip-path="url(#p2c2ae01fde)" d="M 540.896981 430.007144 
Q 601.152923 414.689416 660.325295 399.647144 
" style="fill:none;stroke:#000000;stroke-linecap:round;"/>
    <path clip-path="url(#p2c2ae01fde)" d="M 655.955847 398.694294 
L 660.325295 399.647144 
L 656.941346 402.570992 
L 655.955847 398.694294 
z
" style="stroke:#000000;stroke-linecap:round;"/>
   </g>
   <g id="patch_104">
    <path clip-path="url(#p2c2ae01fde)" d="M 490.079564 448.322522 
Q 423.867491 450.219505 358.772993 452.08447 
" style="fill:none;stroke:#000000;stroke-linecap:round;"/>
    <path clip-path="url(#p2c2ae01fde)" d="M 362.82863 453.969096 
L 358.772993 452.08447 
L 362.714076 449.970737 
L 362.82863 453.969096 
z
" style="stroke:#000000;stroke-linecap:round;"/>
   </g>
   <g id="patch_105">
    <path clip-path="url(#p2c2ae01fde)" d="M 507.042242 445.606943 
Q 584.26981 422.656436 660.425667 400.02442 
" style="fill:none;stroke:#000000;stroke-linecap:round;"/>
    <path clip-path="url(#p2c2ae01fde)" d="M 656.021665 399.246755 
L 660.425667 400.02442 
L 657.161134 403.081023 
L 656.021665 399.246755 
z
" style="stroke:#000000;stroke-linecap:round;"/>
   </g>
   <g id="patch_106">
    <path clip-path="url(#p2c2ae01fde)" d="M 378.1817 212.285699 
Q 286.228931 215.919539 195.393324 219.509232 
" style="fill:none;stroke:#000000;stroke-linecap:round;"/>
    <path clip-path="url(#p2c2ae01fde)" d="M 199.46918 221.349721 
L 195.393324 219.509232 
L 199.311229 217.352841 
L 199.46918 221.349721 
z
" style="stroke:#000000;stroke-linecap:round;"/>
   </g>
   <g id="patch_107">
    <path clip-path="url(#p2c2ae01fde)" d="M 179.198749 293.611301 
Q 182.0351 261.065864 184.774382 229.63424 
" style="fill:none;stroke:#000000;stroke-linecap:round;"/>
    <path clip-path="url(#p2c2ae01fde)" d="M 182.434648 233.445492 
L 184.774382 229.63424 
L 186.419544 233.792778 
L 182.434648 233.445492 
z
" style="stroke:#000000;stroke-linecap:round;"/>
   </g>
   <g id="patch_108">
    <path clip-path="url(#p2c2ae01fde)" d="M 338.474621 269.458415 
Q 266.170101 246.013209 194.929102 222.912856 
" style="fill:none;stroke:#000000;stroke-linecap:round;"/>
    <path clip-path="url(#p2c2ae01fde)" d="M 198.117177 226.049125 
L 194.929102 222.912856 
L 199.350962 222.244158 
L 198.117177 226.049125 
z
" style="stroke:#000000;stroke-linecap:round;"/>
   </g>
   <g id="patch_109">
    <path clip-path="url(#p2c2ae01fde)" d="M 511.716618 318.824656 
Q 488.908091 296.712373 466.90229 275.378311 
" style="fill:none;stroke:#000000;stroke-linecap:round;"/>
    <path clip-path="url(#p2c2ae01fde)" d="M 468.382084 279.598526 
L 466.90229 275.378311 
L 471.166338 276.726605 
L 468.382084 279.598526 
z
" style="stroke:#000000;stroke-linecap:round;"/>
   </g>
   <g id="patch_110">
    <path clip-path="url(#p2c2ae01fde)" d="M 506.513029 206.821952 
Q 485.806411 234.243304 465.773538 260.772429 
" style="fill:none;stroke:#000000;stroke-linecap:round;"/>
    <path clip-path="url(#p2c2ae01fde)" d="M 469.780064 258.785534 
L 465.773538 260.772429 
L 466.587938 256.375071 
L 469.780064 258.785534 
z
" style="stroke:#000000;stroke-linecap:round;"/>
   </g>
   <g id="patch_111">
    <path clip-path="url(#p2c2ae01fde)" d="M 568.169503 267.698987 
Q 545.911344 293.023136 524.391283 317.507516 
" style="fill:none;stroke:#000000;stroke-linecap:round;"/>
    <path clip-path="url(#p2c2ae01fde)" d="M 528.534207 315.823418 
L 524.391283 317.507516 
L 525.529759 313.182719 
L 528.534207 315.823418 
z
" style="stroke:#000000;stroke-linecap:round;"/>
   </g>
   <g id="patch_112">
    <path clip-path="url(#p2c2ae01fde)" d="M 567.721548 255.112555 
Q 542.811441 230.551628 518.697463 206.77567 
" style="fill:none;stroke:#000000;stroke-linecap:round;"/>
    <path clip-path="url(#p2c2ae01fde)" d="M 520.141586 211.008223 
L 518.697463 206.77567 
L 522.949979 208.159903 
L 520.141586 211.008223 
z
" style="stroke:#000000;stroke-linecap:round;"/>
   </g>
   <g id="patch_113">
    <path clip-path="url(#p2c2ae01fde)" d="M 537.747917 252.266418 
Q 528.981191 284.384199 520.508868 315.423404 
" style="fill:none;stroke:#000000;stroke-linecap:round;"/>
    <path clip-path="url(#p2c2ae01fde)" d="M 523.491573 312.091217 
L 520.508868 315.423404 
L 519.632742 311.037927 
L 523.491573 312.091217 
z
" style="stroke:#000000;stroke-linecap:round;"/>
   </g>
   <g id="patch_114">
    <path clip-path="url(#p2c2ae01fde)" d="M 535.343473 236.62373 
Q 525.880767 221.908935 517.02279 208.134513 
" style="fill:none;stroke:#000000;stroke-linecap:round;"/>
    <path clip-path="url(#p2c2ae01fde)" d="M 517.504147 212.580668 
L 517.02279 208.134513 
L 520.868528 210.417121 
L 517.504147 212.580668 
z
" style="stroke:#000000;stroke-linecap:round;"/>
   </g>
   <g id="PathCollection_1">
    <defs>
     <path d="M 0 8.660254 
C 2.296726 8.660254 4.499694 7.747755 6.123724 6.123724 
C 7.747755 4.499694 8.660254 2.296726 8.660254 -0 
C 8.660254 -2.296726 7.747755 -4.499694 6.123724 -6.123724 
C 4.499694 -7.747755 2.296726 -8.660254 0 -8.660254 
C -2.296726 -8.660254 -4.499694 -7.747755 -6.123724 -6.123724 
C -7.747755 -4.499694 -8.660254 -2.296726 -8.660254 0 
C -8.660254 2.296726 -7.747755 4.499694 -6.123724 6.123724 
C -4.499694 7.747755 -2.296726 8.660254 0 8.660254 
z
" id="C0_0_d1c387baa2"/>
    </defs>
    <g clip-path="url(#p2c2ae01fde)">
     <use style="fill:#ff0000;stroke:#ff0000;" x="374.74652" xlink:href="#C0_0_d1c387baa2" y="320.077427"/>
    </g>
    <g clip-path="url(#p2c2ae01fde)">
     <use style="fill:#008000;stroke:#008000;" x="295.449987" xlink:href="#C0_0_d1c387baa2" y="143.467428"/>
    </g>
    <g clip-path="url(#p2c2ae01fde)">
     <use style="fill:#008000;stroke:#008000;" x="447.10976" xlink:href="#C0_0_d1c387baa2" y="192.340322"/>
    </g>
    <g clip-path="url(#p2c2ae01fde)">
     <use style="fill:#ff0000;stroke:#ff0000;" x="461.603263" xlink:href="#C0_0_d1c387baa2" y="272.816807"/>
    </g>
    <g clip-path="url(#p2c2ae01fde)">
     <use style="fill:#ff0000;stroke:#ff0000;" x="455.20383" xlink:href="#C0_0_d1c387baa2" y="271.518631"/>
    </g>
    <g clip-path="url(#p2c2ae01fde)">
     <use style="fill:#008000;stroke:#008000;" x="459.882939" xlink:href="#C0_0_d1c387baa2" y="268.57323"/>
    </g>
    <g clip-path="url(#p2c2ae01fde)">
     <use style="fill:#008000;stroke:#008000;" x="534.140669" xlink:href="#C0_0_d1c387baa2" y="462.876707"/>
    </g>
    <g clip-path="url(#p2c2ae01fde)">
     <use style="fill:#ff0000;stroke:#ff0000;" x="185.623132" xlink:href="#C0_0_d1c387baa2" y="219.895335"/>
    </g>
    <g clip-path="url(#p2c2ae01fde)">
     <use style="fill:#008000;stroke:#008000;" x="474.090767" xlink:href="#C0_0_d1c387baa2" y="134.194596"/>
    </g>
    <g clip-path="url(#p2c2ae01fde)">
     <use style="fill:#008000;stroke:#008000;" x="531.499892" xlink:href="#C0_0_d1c387baa2" y="112.914855"/>
    </g>
    <g clip-path="url(#p2c2ae01fde)">
     <use style="fill:#008000;stroke:#008000;" x="250.351799" xlink:href="#C0_0_d1c387baa2" y="427.32763"/>
    </g>
    <g clip-path="url(#p2c2ae01fde)">
     <use style="fill:#ff0000;stroke:#ff0000;" x="296.580017" xlink:href="#C0_0_d1c387baa2" y="454.653134"/>
    </g>
    <g clip-path="url(#p2c2ae01fde)">
     <use style="fill:#008000;stroke:#008000;" x="719.494215" xlink:href="#C0_0_d1c387baa2" y="320.351162"/>
    </g>
    <g clip-path="url(#p2c2ae01fde)">
     <use style="fill:#008000;stroke:#008000;" x="425.825403" xlink:href="#C0_0_d1c387baa2" y="474.152727"/>
    </g>
    <g clip-path="url(#p2c2ae01fde)">
     <use style="fill:#008000;stroke:#008000;" x="376.924227" xlink:href="#C0_0_d1c387baa2" y="107.607273"/>
    </g>
    <g clip-path="url(#p2c2ae01fde)">
     <use style="fill:#ff0000;stroke:#ff0000;" x="452.797268" xlink:href="#C0_0_d1c387baa2" y="424.234842"/>
    </g>
    <g clip-path="url(#p2c2ae01fde)">
     <use style="fill:#008000;stroke:#008000;" x="227.980271" xlink:href="#C0_0_d1c387baa2" y="387.500326"/>
    </g>
    <g clip-path="url(#p2c2ae01fde)">
     <use style="fill:#ff0000;stroke:#ff0000;" x="173.669861" xlink:href="#C0_0_d1c387baa2" y="254.481428"/>
    </g>
    <g clip-path="url(#p2c2ae01fde)">
     <use style="fill:#ff0000;stroke:#ff0000;" x="712.394207" xlink:href="#C0_0_d1c387baa2" y="236.234757"/>
    </g>
    <g clip-path="url(#p2c2ae01fde)">
     <use style="fill:#008000;stroke:#008000;" x="647.47443" xlink:href="#C0_0_d1c387baa2" y="150.966845"/>
    </g>
    <g clip-path="url(#p2c2ae01fde)">
     <use style="fill:#008000;stroke:#008000;" x="236.455496" xlink:href="#C0_0_d1c387baa2" y="177.618401"/>
    </g>
    <g clip-path="url(#p2c2ae01fde)">
     <use style="fill:#008000;stroke:#008000;" x="648.981068" xlink:href="#C0_0_d1c387baa2" y="183.795417"/>
    </g>
    <g clip-path="url(#p2c2ae01fde)">
     <use style="fill:#008000;stroke:#008000;" x="684.722826" xlink:href="#C0_0_d1c387baa2" y="209.178953"/>
    </g>
    <g clip-path="url(#p2c2ae01fde)">
     <use style="fill:#008000;stroke:#008000;" x="717.78331" xlink:href="#C0_0_d1c387baa2" y="271.150767"/>
    </g>
    <g clip-path="url(#p2c2ae01fde)">
     <use style="fill:#ff0000;stroke:#ff0000;" x="543.667617" xlink:href="#C0_0_d1c387baa2" y="268.339876"/>
    </g>
    <g clip-path="url(#p2c2ae01fde)">
     <use style="fill:#ff0000;stroke:#ff0000;" x="619.424983" xlink:href="#C0_0_d1c387baa2" y="256.237198"/>
    </g>
    <g clip-path="url(#p2c2ae01fde)">
     <use style="fill:#ff0000;stroke:#ff0000;" x="431.019249" xlink:href="#C0_0_d1c387baa2" y="306.070751"/>
    </g>
    <g clip-path="url(#p2c2ae01fde)">
     <use style="fill:#ff0000;stroke:#ff0000;" x="439.768694" xlink:href="#C0_0_d1c387baa2" y="231.993635"/>
    </g>
    <g clip-path="url(#p2c2ae01fde)">
     <use style="fill:#ff0000;stroke:#ff0000;" x="357.279463" xlink:href="#C0_0_d1c387baa2" y="242.796948"/>
    </g>
    <g clip-path="url(#p2c2ae01fde)">
     <use style="fill:#008000;stroke:#008000;" x="166.105785" xlink:href="#C0_0_d1c387baa2" y="292.223553"/>
    </g>
    <g clip-path="url(#p2c2ae01fde)">
     <use style="fill:#ff0000;stroke:#ff0000;" x="187.619795" xlink:href="#C0_0_d1c387baa2" y="232.503123"/>
    </g>
    <g clip-path="url(#p2c2ae01fde)">
     <use style="fill:#008000;stroke:#008000;" x="241.930733" xlink:href="#C0_0_d1c387baa2" y="148.054724"/>
    </g>
    <g clip-path="url(#p2c2ae01fde)">
     <use style="fill:#ff0000;stroke:#ff0000;" x="517.298965" xlink:href="#C0_0_d1c387baa2" y="441.859981"/>
    </g>
    <g clip-path="url(#p2c2ae01fde)">
     <use style="fill:#ff0000;stroke:#ff0000;" x="562.11837" xlink:href="#C0_0_d1c387baa2" y="456.82104"/>
    </g>
    <g clip-path="url(#p2c2ae01fde)">
     <use style="fill:#ff0000;stroke:#ff0000;" x="511.810976" xlink:href="#C0_0_d1c387baa2" y="468.16981"/>
    </g>
    <g clip-path="url(#p2c2ae01fde)">
     <use style="fill:#ff0000;stroke:#ff0000;" x="500.839364" xlink:href="#C0_0_d1c387baa2" y="406.461636"/>
    </g>
    <g clip-path="url(#p2c2ae01fde)">
     <use style="fill:#ff0000;stroke:#ff0000;" x="532.504586" xlink:href="#C0_0_d1c387baa2" y="432.140584"/>
    </g>
    <g clip-path="url(#p2c2ae01fde)">
     <use style="fill:#ff0000;stroke:#ff0000;" x="498.739278" xlink:href="#C0_0_d1c387baa2" y="448.07442"/>
    </g>
    <g clip-path="url(#p2c2ae01fde)">
     <use style="fill:#ff0000;stroke:#ff0000;" x="386.836811" xlink:href="#C0_0_d1c387baa2" y="211.943661"/>
    </g>
    <g clip-path="url(#p2c2ae01fde)">
     <use style="fill:#ff0000;stroke:#ff0000;" x="178.44692" xlink:href="#C0_0_d1c387baa2" y="302.238092"/>
    </g>
    <g clip-path="url(#p2c2ae01fde)">
     <use style="fill:#ff0000;stroke:#ff0000;" x="346.71142" xlink:href="#C0_0_d1c387baa2" y="272.12925"/>
    </g>
    <g clip-path="url(#p2c2ae01fde)">
     <use style="fill:#008000;stroke:#008000;" x="335.378462" xlink:href="#C0_0_d1c387baa2" y="124.245451"/>
    </g>
    <g clip-path="url(#p2c2ae01fde)">
     <use style="fill:#008000;stroke:#008000;" x="584.182397" xlink:href="#C0_0_d1c387baa2" y="141.196728"/>
    </g>
    <g clip-path="url(#p2c2ae01fde)">
     <use style="fill:#008000;stroke:#008000;" x="710.575062" xlink:href="#C0_0_d1c387baa2" y="362.800719"/>
    </g>
    <g clip-path="url(#p2c2ae01fde)">
     <use style="fill:#008000;stroke:#008000;" x="689.860457" xlink:href="#C0_0_d1c387baa2" y="316.315868"/>
    </g>
    <g clip-path="url(#p2c2ae01fde)">
     <use style="fill:#ff0000;stroke:#ff0000;" x="517.934959" xlink:href="#C0_0_d1c387baa2" y="324.853179"/>
    </g>
    <g clip-path="url(#p2c2ae01fde)">
     <use style="fill:#ff0000;stroke:#ff0000;" x="511.733181" xlink:href="#C0_0_d1c387baa2" y="199.909011"/>
    </g>
    <g clip-path="url(#p2c2ae01fde)">
     <use style="fill:#ff0000;stroke:#ff0000;" x="573.888103" xlink:href="#C0_0_d1c387baa2" y="261.192669"/>
    </g>
    <g clip-path="url(#p2c2ae01fde)">
     <use style="fill:#ff0000;stroke:#ff0000;" x="540.028919" xlink:href="#C0_0_d1c387baa2" y="243.909739"/>
    </g>
    <g clip-path="url(#p2c2ae01fde)">
     <use style="fill:#ff0000;stroke:#ff0000;" x="348.997065" xlink:href="#C0_0_d1c387baa2" y="452.364551"/>
    </g>
    <g clip-path="url(#p2c2ae01fde)">
     <use style="fill:#ff0000;stroke:#ff0000;" x="669.799655" xlink:href="#C0_0_d1c387baa2" y="397.238656"/>
    </g>
    <g clip-path="url(#p2c2ae01fde)">
     <use style="fill:#008000;stroke:#008000;" x="172.032058" xlink:href="#C0_0_d1c387baa2" y="277.753073"/>
    </g>
    <g clip-path="url(#p2c2ae01fde)">
     <use style="fill:#008000;stroke:#008000;" x="425.811667" xlink:href="#C0_0_d1c387baa2" y="111.138875"/>
    </g>
   </g>
   <g id="text_1">
    <g clip-path="url(#p2c2ae01fde)">
     <!-- RBX1 -->
     <g transform="translate(358.533395 323.388677)scale(0.12 -0.12)">
      <defs>
       <path d="M 44.390625 34.1875 
Q 47.5625 33.109375 50.5625 29.59375 
Q 53.5625 26.078125 56.59375 19.921875 
L 66.609375 0 
L 56 0 
L 46.6875 18.703125 
Q 43.0625 26.03125 39.671875 28.421875 
Q 36.28125 30.8125 30.421875 30.8125 
L 19.671875 30.8125 
L 19.671875 0 
L 9.8125 0 
L 9.8125 72.90625 
L 32.078125 72.90625 
Q 44.578125 72.90625 50.734375 67.671875 
Q 56.890625 62.453125 56.890625 51.90625 
Q 56.890625 45.015625 53.6875 40.46875 
Q 50.484375 35.9375 44.390625 34.1875 
z
M 19.671875 64.796875 
L 19.671875 38.921875 
L 32.078125 38.921875 
Q 39.203125 38.921875 42.84375 42.21875 
Q 46.484375 45.515625 46.484375 51.90625 
Q 46.484375 58.296875 42.84375 61.546875 
Q 39.203125 64.796875 32.078125 64.796875 
z
" id="DejaVuSans-82"/>
       <path d="M 19.671875 34.8125 
L 19.671875 8.109375 
L 35.5 8.109375 
Q 43.453125 8.109375 47.28125 11.40625 
Q 51.125 14.703125 51.125 21.484375 
Q 51.125 28.328125 47.28125 31.5625 
Q 43.453125 34.8125 35.5 34.8125 
z
M 19.671875 64.796875 
L 19.671875 42.828125 
L 34.28125 42.828125 
Q 41.5 42.828125 45.03125 45.53125 
Q 48.578125 48.25 48.578125 53.8125 
Q 48.578125 59.328125 45.03125 62.0625 
Q 41.5 64.796875 34.28125 64.796875 
z
M 9.8125 72.90625 
L 35.015625 72.90625 
Q 46.296875 72.90625 52.390625 68.21875 
Q 58.5 63.53125 58.5 54.890625 
Q 58.5 48.1875 55.375 44.234375 
Q 52.25 40.28125 46.1875 39.3125 
Q 53.46875 37.75 57.5 32.78125 
Q 61.53125 27.828125 61.53125 20.40625 
Q 61.53125 10.640625 54.890625 5.3125 
Q 48.25 0 35.984375 0 
L 9.8125 0 
z
" id="DejaVuSans-66"/>
       <path d="M 6.296875 72.90625 
L 16.890625 72.90625 
L 35.015625 45.796875 
L 53.21875 72.90625 
L 63.8125 72.90625 
L 40.375 37.890625 
L 65.375 0 
L 54.78125 0 
L 34.28125 31 
L 13.625 0 
L 2.984375 0 
L 29 38.921875 
z
" id="DejaVuSans-88"/>
       <path d="M 12.40625 8.296875 
L 28.515625 8.296875 
L 28.515625 63.921875 
L 10.984375 60.40625 
L 10.984375 69.390625 
L 28.421875 72.90625 
L 38.28125 72.90625 
L 38.28125 8.296875 
L 54.390625 8.296875 
L 54.390625 0 
L 12.40625 0 
z
" id="DejaVuSans-49"/>
      </defs>
      <use xlink:href="#DejaVuSans-82"/>
      <use x="69.482422" xlink:href="#DejaVuSans-66"/>
      <use x="138.085938" xlink:href="#DejaVuSans-88"/>
      <use x="206.591797" xlink:href="#DejaVuSans-49"/>
     </g>
    </g>
   </g>
   <g id="text_2">
    <g clip-path="url(#p2c2ae01fde)">
     <!-- VEGFA -->
     <g transform="translate(275.897487 146.778678)scale(0.12 -0.12)">
      <defs>
       <path d="M 28.609375 0 
L 0.78125 72.90625 
L 11.078125 72.90625 
L 34.1875 11.53125 
L 57.328125 72.90625 
L 67.578125 72.90625 
L 39.796875 0 
z
" id="DejaVuSans-86"/>
       <path d="M 9.8125 72.90625 
L 55.90625 72.90625 
L 55.90625 64.59375 
L 19.671875 64.59375 
L 19.671875 43.015625 
L 54.390625 43.015625 
L 54.390625 34.71875 
L 19.671875 34.71875 
L 19.671875 8.296875 
L 56.78125 8.296875 
L 56.78125 0 
L 9.8125 0 
z
" id="DejaVuSans-69"/>
       <path d="M 59.515625 10.40625 
L 59.515625 29.984375 
L 43.40625 29.984375 
L 43.40625 38.09375 
L 69.28125 38.09375 
L 69.28125 6.78125 
Q 63.578125 2.734375 56.6875 0.65625 
Q 49.8125 -1.421875 42 -1.421875 
Q 24.90625 -1.421875 15.25 8.5625 
Q 5.609375 18.5625 5.609375 36.375 
Q 5.609375 54.25 15.25 64.234375 
Q 24.90625 74.21875 42 74.21875 
Q 49.125 74.21875 55.546875 72.453125 
Q 61.96875 70.703125 67.390625 67.28125 
L 67.390625 56.78125 
Q 61.921875 61.421875 55.765625 63.765625 
Q 49.609375 66.109375 42.828125 66.109375 
Q 29.4375 66.109375 22.71875 58.640625 
Q 16.015625 51.171875 16.015625 36.375 
Q 16.015625 21.625 22.71875 14.15625 
Q 29.4375 6.6875 42.828125 6.6875 
Q 48.046875 6.6875 52.140625 7.59375 
Q 56.25 8.5 59.515625 10.40625 
z
" id="DejaVuSans-71"/>
       <path d="M 9.8125 72.90625 
L 51.703125 72.90625 
L 51.703125 64.59375 
L 19.671875 64.59375 
L 19.671875 43.109375 
L 48.578125 43.109375 
L 48.578125 34.8125 
L 19.671875 34.8125 
L 19.671875 0 
L 9.8125 0 
z
" id="DejaVuSans-70"/>
       <path d="M 34.1875 63.1875 
L 20.796875 26.90625 
L 47.609375 26.90625 
z
M 28.609375 72.90625 
L 39.796875 72.90625 
L 67.578125 0 
L 57.328125 0 
L 50.6875 18.703125 
L 17.828125 18.703125 
L 11.1875 0 
L 0.78125 0 
z
" id="DejaVuSans-65"/>
      </defs>
      <use xlink:href="#DejaVuSans-86"/>
      <use x="68.408203" xlink:href="#DejaVuSans-69"/>
      <use x="131.591797" xlink:href="#DejaVuSans-71"/>
      <use x="209.082031" xlink:href="#DejaVuSans-70"/>
      <use x="257.476562" xlink:href="#DejaVuSans-65"/>
     </g>
    </g>
   </g>
   <g id="text_3">
    <g clip-path="url(#p2c2ae01fde)">
     <!-- VHL -->
     <g transform="translate(435.150072 195.651572)scale(0.12 -0.12)">
      <defs>
       <path d="M 9.8125 72.90625 
L 19.671875 72.90625 
L 19.671875 43.015625 
L 55.515625 43.015625 
L 55.515625 72.90625 
L 65.375 72.90625 
L 65.375 0 
L 55.515625 0 
L 55.515625 34.71875 
L 19.671875 34.71875 
L 19.671875 0 
L 9.8125 0 
z
" id="DejaVuSans-72"/>
       <path d="M 9.8125 72.90625 
L 19.671875 72.90625 
L 19.671875 8.296875 
L 55.171875 8.296875 
L 55.171875 0 
L 9.8125 0 
z
" id="DejaVuSans-76"/>
      </defs>
      <use xlink:href="#DejaVuSans-86"/>
      <use x="68.408203" xlink:href="#DejaVuSans-72"/>
      <use x="143.603516" xlink:href="#DejaVuSans-76"/>
     </g>
    </g>
   </g>
   <g id="text_4">
    <g clip-path="url(#p2c2ae01fde)">
     <!-- ARNT -->
     <g transform="translate(445.176388 276.128057)scale(0.12 -0.12)">
      <defs>
       <path d="M 9.8125 72.90625 
L 23.09375 72.90625 
L 55.421875 11.921875 
L 55.421875 72.90625 
L 64.984375 72.90625 
L 64.984375 0 
L 51.703125 0 
L 19.390625 60.984375 
L 19.390625 0 
L 9.8125 0 
z
" id="DejaVuSans-78"/>
       <path d="M -0.296875 72.90625 
L 61.375 72.90625 
L 61.375 64.59375 
L 35.5 64.59375 
L 35.5 0 
L 25.59375 0 
L 25.59375 64.59375 
L -0.296875 64.59375 
z
" id="DejaVuSans-84"/>
      </defs>
      <use xlink:href="#DejaVuSans-65"/>
      <use x="68.408203" xlink:href="#DejaVuSans-82"/>
      <use x="137.890625" xlink:href="#DejaVuSans-78"/>
      <use x="212.695312" xlink:href="#DejaVuSans-84"/>
     </g>
    </g>
   </g>
   <g id="text_5">
    <g clip-path="url(#p2c2ae01fde)">
     <!-- EP300 -->
     <g transform="translate(436.342267 274.829881)scale(0.12 -0.12)">
      <defs>
       <path d="M 19.671875 64.796875 
L 19.671875 37.40625 
L 32.078125 37.40625 
Q 38.96875 37.40625 42.71875 40.96875 
Q 46.484375 44.53125 46.484375 51.125 
Q 46.484375 57.671875 42.71875 61.234375 
Q 38.96875 64.796875 32.078125 64.796875 
z
M 9.8125 72.90625 
L 32.078125 72.90625 
Q 44.34375 72.90625 50.609375 67.359375 
Q 56.890625 61.8125 56.890625 51.125 
Q 56.890625 40.328125 50.609375 34.8125 
Q 44.34375 29.296875 32.078125 29.296875 
L 19.671875 29.296875 
L 19.671875 0 
L 9.8125 0 
z
" id="DejaVuSans-80"/>
       <path d="M 40.578125 39.3125 
Q 47.65625 37.796875 51.625 33 
Q 55.609375 28.21875 55.609375 21.1875 
Q 55.609375 10.40625 48.1875 4.484375 
Q 40.765625 -1.421875 27.09375 -1.421875 
Q 22.515625 -1.421875 17.65625 -0.515625 
Q 12.796875 0.390625 7.625 2.203125 
L 7.625 11.71875 
Q 11.71875 9.328125 16.59375 8.109375 
Q 21.484375 6.890625 26.8125 6.890625 
Q 36.078125 6.890625 40.9375 10.546875 
Q 45.796875 14.203125 45.796875 21.1875 
Q 45.796875 27.640625 41.28125 31.265625 
Q 36.765625 34.90625 28.71875 34.90625 
L 20.21875 34.90625 
L 20.21875 43.015625 
L 29.109375 43.015625 
Q 36.375 43.015625 40.234375 45.921875 
Q 44.09375 48.828125 44.09375 54.296875 
Q 44.09375 59.90625 40.109375 62.90625 
Q 36.140625 65.921875 28.71875 65.921875 
Q 24.65625 65.921875 20.015625 65.03125 
Q 15.375 64.15625 9.8125 62.3125 
L 9.8125 71.09375 
Q 15.4375 72.65625 20.34375 73.4375 
Q 25.25 74.21875 29.59375 74.21875 
Q 40.828125 74.21875 47.359375 69.109375 
Q 53.90625 64.015625 53.90625 55.328125 
Q 53.90625 49.265625 50.4375 45.09375 
Q 46.96875 40.921875 40.578125 39.3125 
z
" id="DejaVuSans-51"/>
       <path d="M 31.78125 66.40625 
Q 24.171875 66.40625 20.328125 58.90625 
Q 16.5 51.421875 16.5 36.375 
Q 16.5 21.390625 20.328125 13.890625 
Q 24.171875 6.390625 31.78125 6.390625 
Q 39.453125 6.390625 43.28125 13.890625 
Q 47.125 21.390625 47.125 36.375 
Q 47.125 51.421875 43.28125 58.90625 
Q 39.453125 66.40625 31.78125 66.40625 
z
M 31.78125 74.21875 
Q 44.046875 74.21875 50.515625 64.515625 
Q 56.984375 54.828125 56.984375 36.375 
Q 56.984375 17.96875 50.515625 8.265625 
Q 44.046875 -1.421875 31.78125 -1.421875 
Q 19.53125 -1.421875 13.0625 8.265625 
Q 6.59375 17.96875 6.59375 36.375 
Q 6.59375 54.828125 13.0625 64.515625 
Q 19.53125 74.21875 31.78125 74.21875 
z
" id="DejaVuSans-48"/>
      </defs>
      <use xlink:href="#DejaVuSans-69"/>
      <use x="63.183594" xlink:href="#DejaVuSans-80"/>
      <use x="123.486328" xlink:href="#DejaVuSans-51"/>
      <use x="187.109375" xlink:href="#DejaVuSans-48"/>
      <use x="250.732422" xlink:href="#DejaVuSans-48"/>
     </g>
    </g>
   </g>
   <g id="text_6">
    <g clip-path="url(#p2c2ae01fde)">
     <!-- HIF1A -->
     <g transform="translate(442.227939 271.88448)scale(0.12 -0.12)">
      <defs>
       <path d="M 9.8125 72.90625 
L 19.671875 72.90625 
L 19.671875 0 
L 9.8125 0 
z
" id="DejaVuSans-73"/>
      </defs>
      <use xlink:href="#DejaVuSans-72"/>
      <use x="75.195312" xlink:href="#DejaVuSans-73"/>
      <use x="104.6875" xlink:href="#DejaVuSans-70"/>
      <use x="162.207031" xlink:href="#DejaVuSans-49"/>
      <use x="225.830078" xlink:href="#DejaVuSans-65"/>
     </g>
    </g>
   </g>
   <g id="text_7">
    <g clip-path="url(#p2c2ae01fde)">
     <!-- SLC2A1 -->
     <g transform="translate(511.059419 466.187957)scale(0.12 -0.12)">
      <defs>
       <path d="M 53.515625 70.515625 
L 53.515625 60.890625 
Q 47.90625 63.578125 42.921875 64.890625 
Q 37.9375 66.21875 33.296875 66.21875 
Q 25.25 66.21875 20.875 63.09375 
Q 16.5 59.96875 16.5 54.203125 
Q 16.5 49.359375 19.40625 46.890625 
Q 22.3125 44.4375 30.421875 42.921875 
L 36.375 41.703125 
Q 47.40625 39.59375 52.65625 34.296875 
Q 57.90625 29 57.90625 20.125 
Q 57.90625 9.515625 50.796875 4.046875 
Q 43.703125 -1.421875 29.984375 -1.421875 
Q 24.8125 -1.421875 18.96875 -0.25 
Q 13.140625 0.921875 6.890625 3.21875 
L 6.890625 13.375 
Q 12.890625 10.015625 18.65625 8.296875 
Q 24.421875 6.59375 29.984375 6.59375 
Q 38.421875 6.59375 43.015625 9.90625 
Q 47.609375 13.234375 47.609375 19.390625 
Q 47.609375 24.75 44.3125 27.78125 
Q 41.015625 30.8125 33.5 32.328125 
L 27.484375 33.5 
Q 16.453125 35.6875 11.515625 40.375 
Q 6.59375 45.0625 6.59375 53.421875 
Q 6.59375 63.09375 13.40625 68.65625 
Q 20.21875 74.21875 32.171875 74.21875 
Q 37.3125 74.21875 42.625 73.28125 
Q 47.953125 72.359375 53.515625 70.515625 
z
" id="DejaVuSans-83"/>
       <path d="M 64.40625 67.28125 
L 64.40625 56.890625 
Q 59.421875 61.53125 53.78125 63.8125 
Q 48.140625 66.109375 41.796875 66.109375 
Q 29.296875 66.109375 22.65625 58.46875 
Q 16.015625 50.828125 16.015625 36.375 
Q 16.015625 21.96875 22.65625 14.328125 
Q 29.296875 6.6875 41.796875 6.6875 
Q 48.140625 6.6875 53.78125 8.984375 
Q 59.421875 11.28125 64.40625 15.921875 
L 64.40625 5.609375 
Q 59.234375 2.09375 53.4375 0.328125 
Q 47.65625 -1.421875 41.21875 -1.421875 
Q 24.65625 -1.421875 15.125 8.703125 
Q 5.609375 18.84375 5.609375 36.375 
Q 5.609375 53.953125 15.125 64.078125 
Q 24.65625 74.21875 41.21875 74.21875 
Q 47.75 74.21875 53.53125 72.484375 
Q 59.328125 70.75 64.40625 67.28125 
z
" id="DejaVuSans-67"/>
       <path d="M 19.1875 8.296875 
L 53.609375 8.296875 
L 53.609375 0 
L 7.328125 0 
L 7.328125 8.296875 
Q 12.9375 14.109375 22.625 23.890625 
Q 32.328125 33.6875 34.8125 36.53125 
Q 39.546875 41.84375 41.421875 45.53125 
Q 43.3125 49.21875 43.3125 52.78125 
Q 43.3125 58.59375 39.234375 62.25 
Q 35.15625 65.921875 28.609375 65.921875 
Q 23.96875 65.921875 18.8125 64.3125 
Q 13.671875 62.703125 7.8125 59.421875 
L 7.8125 69.390625 
Q 13.765625 71.78125 18.9375 73 
Q 24.125 74.21875 28.421875 74.21875 
Q 39.75 74.21875 46.484375 68.546875 
Q 53.21875 62.890625 53.21875 53.421875 
Q 53.21875 48.921875 51.53125 44.890625 
Q 49.859375 40.875 45.40625 35.40625 
Q 44.1875 33.984375 37.640625 27.21875 
Q 31.109375 20.453125 19.1875 8.296875 
z
" id="DejaVuSans-50"/>
      </defs>
      <use xlink:href="#DejaVuSans-83"/>
      <use x="63.476562" xlink:href="#DejaVuSans-76"/>
      <use x="119.189453" xlink:href="#DejaVuSans-67"/>
      <use x="189.013672" xlink:href="#DejaVuSans-50"/>
      <use x="252.636719" xlink:href="#DejaVuSans-65"/>
      <use x="321.044922" xlink:href="#DejaVuSans-49"/>
     </g>
    </g>
   </g>
   <g id="text_8">
    <g clip-path="url(#p2c2ae01fde)">
     <!-- MTOR -->
     <g transform="translate(167.889382 223.206585)scale(0.12 -0.12)">
      <defs>
       <path d="M 9.8125 72.90625 
L 24.515625 72.90625 
L 43.109375 23.296875 
L 61.8125 72.90625 
L 76.515625 72.90625 
L 76.515625 0 
L 66.890625 0 
L 66.890625 64.015625 
L 48.09375 14.015625 
L 38.1875 14.015625 
L 19.390625 64.015625 
L 19.390625 0 
L 9.8125 0 
z
" id="DejaVuSans-77"/>
       <path d="M 39.40625 66.21875 
Q 28.65625 66.21875 22.328125 58.203125 
Q 16.015625 50.203125 16.015625 36.375 
Q 16.015625 22.609375 22.328125 14.59375 
Q 28.65625 6.59375 39.40625 6.59375 
Q 50.140625 6.59375 56.421875 14.59375 
Q 62.703125 22.609375 62.703125 36.375 
Q 62.703125 50.203125 56.421875 58.203125 
Q 50.140625 66.21875 39.40625 66.21875 
z
M 39.40625 74.21875 
Q 54.734375 74.21875 63.90625 63.9375 
Q 73.09375 53.65625 73.09375 36.375 
Q 73.09375 19.140625 63.90625 8.859375 
Q 54.734375 -1.421875 39.40625 -1.421875 
Q 24.03125 -1.421875 14.8125 8.828125 
Q 5.609375 19.09375 5.609375 36.375 
Q 5.609375 53.65625 14.8125 63.9375 
Q 24.03125 74.21875 39.40625 74.21875 
z
" id="DejaVuSans-79"/>
      </defs>
      <use xlink:href="#DejaVuSans-77"/>
      <use x="86.279297" xlink:href="#DejaVuSans-84"/>
      <use x="147.363281" xlink:href="#DejaVuSans-79"/>
      <use x="226.074219" xlink:href="#DejaVuSans-82"/>
     </g>
    </g>
   </g>
   <g id="text_9">
    <g clip-path="url(#p2c2ae01fde)">
     <!-- PDK1 -->
     <g transform="translate(458.100767 137.505846)scale(0.12 -0.12)">
      <defs>
       <path d="M 19.671875 64.796875 
L 19.671875 8.109375 
L 31.59375 8.109375 
Q 46.6875 8.109375 53.6875 14.9375 
Q 60.6875 21.78125 60.6875 36.53125 
Q 60.6875 51.171875 53.6875 57.984375 
Q 46.6875 64.796875 31.59375 64.796875 
z
M 9.8125 72.90625 
L 30.078125 72.90625 
Q 51.265625 72.90625 61.171875 64.09375 
Q 71.09375 55.28125 71.09375 36.53125 
Q 71.09375 17.671875 61.125 8.828125 
Q 51.171875 0 30.078125 0 
L 9.8125 0 
z
" id="DejaVuSans-68"/>
       <path d="M 9.8125 72.90625 
L 19.671875 72.90625 
L 19.671875 42.09375 
L 52.390625 72.90625 
L 65.09375 72.90625 
L 28.90625 38.921875 
L 67.671875 0 
L 54.6875 0 
L 19.671875 35.109375 
L 19.671875 0 
L 9.8125 0 
z
" id="DejaVuSans-75"/>
      </defs>
      <use xlink:href="#DejaVuSans-80"/>
      <use x="60.302734" xlink:href="#DejaVuSans-68"/>
      <use x="137.304688" xlink:href="#DejaVuSans-75"/>
      <use x="202.880859" xlink:href="#DejaVuSans-49"/>
     </g>
    </g>
   </g>
   <g id="text_10">
    <g clip-path="url(#p2c2ae01fde)">
     <!-- GAPDH -->
     <g transform="translate(509.996454 116.226105)scale(0.12 -0.12)">
      <use xlink:href="#DejaVuSans-71"/>
      <use x="77.490234" xlink:href="#DejaVuSans-65"/>
      <use x="145.898438" xlink:href="#DejaVuSans-80"/>
      <use x="206.201172" xlink:href="#DejaVuSans-68"/>
      <use x="283.203125" xlink:href="#DejaVuSans-72"/>
     </g>
    </g>
   </g>
   <g id="text_11">
    <g clip-path="url(#p2c2ae01fde)">
     <!-- PFKFB3 -->
     <g transform="translate(227.963361 430.63888)scale(0.12 -0.12)">
      <use xlink:href="#DejaVuSans-80"/>
      <use x="60.302734" xlink:href="#DejaVuSans-70"/>
      <use x="117.822266" xlink:href="#DejaVuSans-75"/>
      <use x="183.398438" xlink:href="#DejaVuSans-70"/>
      <use x="240.917969" xlink:href="#DejaVuSans-66"/>
      <use x="309.521484" xlink:href="#DejaVuSans-51"/>
     </g>
    </g>
   </g>
   <g id="text_12">
    <g clip-path="url(#p2c2ae01fde)">
     <!-- EPO -->
     <g transform="translate(284.44783 457.964384)scale(0.12 -0.12)">
      <use xlink:href="#DejaVuSans-69"/>
      <use x="63.183594" xlink:href="#DejaVuSans-80"/>
      <use x="123.486328" xlink:href="#DejaVuSans-79"/>
     </g>
    </g>
   </g>
   <g id="text_13">
    <g clip-path="url(#p2c2ae01fde)">
     <!-- TF -->
     <g transform="translate(712.37859 323.662412)scale(0.12 -0.12)">
      <use xlink:href="#DejaVuSans-84"/>
      <use x="61.083984" xlink:href="#DejaVuSans-70"/>
     </g>
    </g>
   </g>
   <g id="text_14">
    <g clip-path="url(#p2c2ae01fde)">
     <!-- TFRC -->
     <g transform="translate(410.651028 477.463977)scale(0.12 -0.12)">
      <use xlink:href="#DejaVuSans-84"/>
      <use x="61.083984" xlink:href="#DejaVuSans-70"/>
      <use x="118.603516" xlink:href="#DejaVuSans-82"/>
      <use x="183.085938" xlink:href="#DejaVuSans-67"/>
     </g>
    </g>
   </g>
   <g id="text_15">
    <g clip-path="url(#p2c2ae01fde)">
     <!-- FLT1 -->
     <g transform="translate(363.472977 110.918523)scale(0.12 -0.12)">
      <use xlink:href="#DejaVuSans-70"/>
      <use x="57.519531" xlink:href="#DejaVuSans-76"/>
      <use x="99.482422" xlink:href="#DejaVuSans-84"/>
      <use x="160.566406" xlink:href="#DejaVuSans-49"/>
     </g>
    </g>
   </g>
   <g id="text_16">
    <g clip-path="url(#p2c2ae01fde)">
     <!-- EGF -->
     <g transform="translate(440.906018 427.546092)scale(0.12 -0.12)">
      <use xlink:href="#DejaVuSans-69"/>
      <use x="63.183594" xlink:href="#DejaVuSans-71"/>
      <use x="140.673828" xlink:href="#DejaVuSans-70"/>
     </g>
    </g>
   </g>
   <g id="text_17">
    <g clip-path="url(#p2c2ae01fde)">
     <!-- SERPINE1 -->
     <g transform="translate(198.725583 390.811576)scale(0.12 -0.12)">
      <use xlink:href="#DejaVuSans-83"/>
      <use x="63.476562" xlink:href="#DejaVuSans-69"/>
      <use x="126.660156" xlink:href="#DejaVuSans-82"/>
      <use x="196.142578" xlink:href="#DejaVuSans-80"/>
      <use x="256.445312" xlink:href="#DejaVuSans-73"/>
      <use x="285.9375" xlink:href="#DejaVuSans-78"/>
      <use x="360.742188" xlink:href="#DejaVuSans-69"/>
      <use x="423.925781" xlink:href="#DejaVuSans-49"/>
     </g>
    </g>
   </g>
   <g id="text_18">
    <g clip-path="url(#p2c2ae01fde)">
     <!-- TEK -->
     <g transform="translate(162.279236 257.792678)scale(0.12 -0.12)">
      <use xlink:href="#DejaVuSans-84"/>
      <use x="61.083984" xlink:href="#DejaVuSans-69"/>
      <use x="124.267578" xlink:href="#DejaVuSans-75"/>
     </g>
    </g>
   </g>
   <g id="text_19">
    <g clip-path="url(#p2c2ae01fde)">
     <!-- TIMP1 -->
     <g transform="translate(694.347332 239.546007)scale(0.12 -0.12)">
      <use xlink:href="#DejaVuSans-84"/>
      <use x="61.083984" xlink:href="#DejaVuSans-73"/>
      <use x="90.576172" xlink:href="#DejaVuSans-77"/>
      <use x="176.855469" xlink:href="#DejaVuSans-80"/>
      <use x="237.158203" xlink:href="#DejaVuSans-49"/>
     </g>
    </g>
   </g>
   <g id="text_20">
    <g clip-path="url(#p2c2ae01fde)">
     <!-- EDN1 -->
     <g transform="translate(630.75693 154.278095)scale(0.12 -0.12)">
      <use xlink:href="#DejaVuSans-69"/>
      <use x="63.183594" xlink:href="#DejaVuSans-68"/>
      <use x="140.185547" xlink:href="#DejaVuSans-78"/>
      <use x="214.990234" xlink:href="#DejaVuSans-49"/>
     </g>
    </g>
   </g>
   <g id="text_21">
    <g clip-path="url(#p2c2ae01fde)">
     <!-- NOS2 -->
     <g transform="translate(219.617059 180.929651)scale(0.12 -0.12)">
      <use xlink:href="#DejaVuSans-78"/>
      <use x="74.804688" xlink:href="#DejaVuSans-79"/>
      <use x="153.515625" xlink:href="#DejaVuSans-83"/>
      <use x="216.992188" xlink:href="#DejaVuSans-50"/>
     </g>
    </g>
   </g>
   <g id="text_22">
    <g clip-path="url(#p2c2ae01fde)">
     <!-- NOS3 -->
     <g transform="translate(632.14263 187.106667)scale(0.12 -0.12)">
      <use xlink:href="#DejaVuSans-78"/>
      <use x="74.804688" xlink:href="#DejaVuSans-79"/>
      <use x="153.515625" xlink:href="#DejaVuSans-83"/>
      <use x="216.992188" xlink:href="#DejaVuSans-51"/>
     </g>
    </g>
   </g>
   <g id="text_23">
    <g clip-path="url(#p2c2ae01fde)">
     <!-- HMOX1 -->
     <g transform="translate(662.765639 212.490203)scale(0.12 -0.12)">
      <use xlink:href="#DejaVuSans-72"/>
      <use x="75.195312" xlink:href="#DejaVuSans-77"/>
      <use x="161.474609" xlink:href="#DejaVuSans-79"/>
      <use x="233.810547" xlink:href="#DejaVuSans-88"/>
      <use x="302.316406" xlink:href="#DejaVuSans-49"/>
     </g>
    </g>
   </g>
   <g id="text_24">
    <g clip-path="url(#p2c2ae01fde)">
     <!-- NPPA -->
     <g transform="translate(702.33706 274.462017)scale(0.12 -0.12)">
      <use xlink:href="#DejaVuSans-78"/>
      <use x="74.804688" xlink:href="#DejaVuSans-80"/>
      <use x="135.107422" xlink:href="#DejaVuSans-80"/>
      <use x="189.035156" xlink:href="#DejaVuSans-65"/>
     </g>
    </g>
   </g>
   <g id="text_25">
    <g clip-path="url(#p2c2ae01fde)">
     <!-- TLR4 -->
     <g transform="translate(528.673242 271.651126)scale(0.12 -0.12)">
      <defs>
       <path d="M 37.796875 64.3125 
L 12.890625 25.390625 
L 37.796875 25.390625 
z
M 35.203125 72.90625 
L 47.609375 72.90625 
L 47.609375 25.390625 
L 58.015625 25.390625 
L 58.015625 17.1875 
L 47.609375 17.1875 
L 47.609375 0 
L 37.796875 0 
L 37.796875 17.1875 
L 4.890625 17.1875 
L 4.890625 26.703125 
z
" id="DejaVuSans-52"/>
      </defs>
      <use xlink:href="#DejaVuSans-84"/>
      <use x="61.083984" xlink:href="#DejaVuSans-76"/>
      <use x="116.796875" xlink:href="#DejaVuSans-82"/>
      <use x="186.279297" xlink:href="#DejaVuSans-52"/>
     </g>
    </g>
   </g>
   <g id="text_26">
    <g clip-path="url(#p2c2ae01fde)">
     <!-- IFNG -->
     <g transform="translate(605.066233 259.548448)scale(0.12 -0.12)">
      <use xlink:href="#DejaVuSans-73"/>
      <use x="29.492188" xlink:href="#DejaVuSans-70"/>
      <use x="87.011719" xlink:href="#DejaVuSans-78"/>
      <use x="161.816406" xlink:href="#DejaVuSans-71"/>
     </g>
    </g>
   </g>
   <g id="text_27">
    <g clip-path="url(#p2c2ae01fde)">
     <!-- IL6 -->
     <g transform="translate(422.088624 309.382001)scale(0.12 -0.12)">
      <defs>
       <path d="M 33.015625 40.375 
Q 26.375 40.375 22.484375 35.828125 
Q 18.609375 31.296875 18.609375 23.390625 
Q 18.609375 15.53125 22.484375 10.953125 
Q 26.375 6.390625 33.015625 6.390625 
Q 39.65625 6.390625 43.53125 10.953125 
Q 47.40625 15.53125 47.40625 23.390625 
Q 47.40625 31.296875 43.53125 35.828125 
Q 39.65625 40.375 33.015625 40.375 
z
M 52.59375 71.296875 
L 52.59375 62.3125 
Q 48.875 64.0625 45.09375 64.984375 
Q 41.3125 65.921875 37.59375 65.921875 
Q 27.828125 65.921875 22.671875 59.328125 
Q 17.53125 52.734375 16.796875 39.40625 
Q 19.671875 43.65625 24.015625 45.921875 
Q 28.375 48.1875 33.59375 48.1875 
Q 44.578125 48.1875 50.953125 41.515625 
Q 57.328125 34.859375 57.328125 23.390625 
Q 57.328125 12.15625 50.6875 5.359375 
Q 44.046875 -1.421875 33.015625 -1.421875 
Q 20.359375 -1.421875 13.671875 8.265625 
Q 6.984375 17.96875 6.984375 36.375 
Q 6.984375 53.65625 15.1875 63.9375 
Q 23.390625 74.21875 37.203125 74.21875 
Q 40.921875 74.21875 44.703125 73.484375 
Q 48.484375 72.75 52.59375 71.296875 
z
" id="DejaVuSans-54"/>
      </defs>
      <use xlink:href="#DejaVuSans-73"/>
      <use x="29.492188" xlink:href="#DejaVuSans-76"/>
      <use x="85.205078" xlink:href="#DejaVuSans-54"/>
     </g>
    </g>
   </g>
   <g id="text_28">
    <g clip-path="url(#p2c2ae01fde)">
     <!-- IL6R -->
     <g transform="translate(426.669006 235.304885)scale(0.12 -0.12)">
      <use xlink:href="#DejaVuSans-73"/>
      <use x="29.492188" xlink:href="#DejaVuSans-76"/>
      <use x="85.205078" xlink:href="#DejaVuSans-54"/>
      <use x="148.828125" xlink:href="#DejaVuSans-82"/>
     </g>
    </g>
   </g>
   <g id="text_29">
    <g clip-path="url(#p2c2ae01fde)">
     <!-- STAT3 -->
     <g transform="translate(339.149151 246.108198)scale(0.12 -0.12)">
      <use xlink:href="#DejaVuSans-83"/>
      <use x="63.476562" xlink:href="#DejaVuSans-84"/>
      <use x="116.810547" xlink:href="#DejaVuSans-65"/>
      <use x="177.46875" xlink:href="#DejaVuSans-84"/>
      <use x="238.552734" xlink:href="#DejaVuSans-51"/>
     </g>
    </g>
   </g>
   <g id="text_30">
    <g clip-path="url(#p2c2ae01fde)">
     <!-- EIF4EBP1 -->
     <g transform="translate(137.932973 295.534803)scale(0.12 -0.12)">
      <use xlink:href="#DejaVuSans-69"/>
      <use x="63.183594" xlink:href="#DejaVuSans-73"/>
      <use x="92.675781" xlink:href="#DejaVuSans-70"/>
      <use x="150.195312" xlink:href="#DejaVuSans-52"/>
      <use x="213.818359" xlink:href="#DejaVuSans-69"/>
      <use x="277.001953" xlink:href="#DejaVuSans-66"/>
      <use x="345.605469" xlink:href="#DejaVuSans-80"/>
      <use x="405.908203" xlink:href="#DejaVuSans-49"/>
     </g>
    </g>
   </g>
   <g id="text_31">
    <g clip-path="url(#p2c2ae01fde)">
     <!-- EIF4E -->
     <g transform="translate(170.998858 235.814373)scale(0.12 -0.12)">
      <use xlink:href="#DejaVuSans-69"/>
      <use x="63.183594" xlink:href="#DejaVuSans-73"/>
      <use x="92.675781" xlink:href="#DejaVuSans-70"/>
      <use x="150.195312" xlink:href="#DejaVuSans-52"/>
      <use x="213.818359" xlink:href="#DejaVuSans-69"/>
     </g>
    </g>
   </g>
   <g id="text_32">
    <g clip-path="url(#p2c2ae01fde)">
     <!-- BCL2 -->
     <g transform="translate(226.568858 151.365974)scale(0.12 -0.12)">
      <use xlink:href="#DejaVuSans-66"/>
      <use x="66.853516" xlink:href="#DejaVuSans-67"/>
      <use x="136.677734" xlink:href="#DejaVuSans-76"/>
      <use x="192.390625" xlink:href="#DejaVuSans-50"/>
     </g>
    </g>
   </g>
   <g id="text_33">
    <g clip-path="url(#p2c2ae01fde)">
     <!-- INS -->
     <g transform="translate(507.231152 445.171231)scale(0.12 -0.12)">
      <use xlink:href="#DejaVuSans-73"/>
      <use x="29.492188" xlink:href="#DejaVuSans-78"/>
      <use x="104.296875" xlink:href="#DejaVuSans-83"/>
     </g>
    </g>
   </g>
   <g id="text_34">
    <g clip-path="url(#p2c2ae01fde)">
     <!-- IGF1 -->
     <g transform="translate(548.43087 460.13229)scale(0.12 -0.12)">
      <use xlink:href="#DejaVuSans-73"/>
      <use x="29.492188" xlink:href="#DejaVuSans-71"/>
      <use x="106.982422" xlink:href="#DejaVuSans-70"/>
      <use x="164.501953" xlink:href="#DejaVuSans-49"/>
     </g>
    </g>
   </g>
   <g id="text_35">
    <g clip-path="url(#p2c2ae01fde)">
     <!-- INSR -->
     <g transform="translate(497.574101 471.48106)scale(0.12 -0.12)">
      <use xlink:href="#DejaVuSans-73"/>
      <use x="29.492188" xlink:href="#DejaVuSans-78"/>
      <use x="104.296875" xlink:href="#DejaVuSans-83"/>
      <use x="167.773438" xlink:href="#DejaVuSans-82"/>
     </g>
    </g>
   </g>
   <g id="text_36">
    <g clip-path="url(#p2c2ae01fde)">
     <!-- EGFR -->
     <g transform="translate(484.779051 409.772886)scale(0.12 -0.12)">
      <use xlink:href="#DejaVuSans-69"/>
      <use x="63.183594" xlink:href="#DejaVuSans-71"/>
      <use x="140.673828" xlink:href="#DejaVuSans-70"/>
      <use x="198.193359" xlink:href="#DejaVuSans-82"/>
     </g>
    </g>
   </g>
   <g id="text_37">
    <g clip-path="url(#p2c2ae01fde)">
     <!-- IGF1R -->
     <g transform="translate(514.648023 435.451834)scale(0.12 -0.12)">
      <use xlink:href="#DejaVuSans-73"/>
      <use x="29.492188" xlink:href="#DejaVuSans-71"/>
      <use x="106.982422" xlink:href="#DejaVuSans-70"/>
      <use x="164.501953" xlink:href="#DejaVuSans-49"/>
      <use x="228.125" xlink:href="#DejaVuSans-82"/>
     </g>
    </g>
   </g>
   <g id="text_38">
    <g clip-path="url(#p2c2ae01fde)">
     <!-- ERBB2 -->
     <g transform="translate(478.72834 451.38567)scale(0.12 -0.12)">
      <use xlink:href="#DejaVuSans-69"/>
      <use x="63.183594" xlink:href="#DejaVuSans-82"/>
      <use x="132.666016" xlink:href="#DejaVuSans-66"/>
      <use x="201.269531" xlink:href="#DejaVuSans-66"/>
      <use x="269.873047" xlink:href="#DejaVuSans-50"/>
     </g>
    </g>
   </g>
   <g id="text_39">
    <g clip-path="url(#p2c2ae01fde)">
     <!-- PRKCA -->
     <g transform="translate(367.151186 215.254911)scale(0.12 -0.12)">
      <use xlink:href="#DejaVuSans-80"/>
      <use x="60.302734" xlink:href="#DejaVuSans-82"/>
      <use x="129.785156" xlink:href="#DejaVuSans-75"/>
      <use x="189.861328" xlink:href="#DejaVuSans-67"/>
      <use x="259.685547" xlink:href="#DejaVuSans-65"/>
     </g>
    </g>
   </g>
   <g id="text_40">
    <g clip-path="url(#p2c2ae01fde)">
     <!-- PRKCB -->
     <g transform="translate(158.749107 305.549342)scale(0.12 -0.12)">
      <use xlink:href="#DejaVuSans-80"/>
      <use x="60.302734" xlink:href="#DejaVuSans-82"/>
      <use x="129.785156" xlink:href="#DejaVuSans-75"/>
      <use x="189.861328" xlink:href="#DejaVuSans-67"/>
      <use x="259.685547" xlink:href="#DejaVuSans-66"/>
     </g>
    </g>
   </g>
   <g id="text_41">
    <g clip-path="url(#p2c2ae01fde)">
     <!-- PRKCG -->
     <g transform="translate(326.481107 275.4405)scale(0.12 -0.12)">
      <use xlink:href="#DejaVuSans-80"/>
      <use x="60.302734" xlink:href="#DejaVuSans-82"/>
      <use x="129.785156" xlink:href="#DejaVuSans-75"/>
      <use x="189.861328" xlink:href="#DejaVuSans-67"/>
      <use x="259.685547" xlink:href="#DejaVuSans-71"/>
     </g>
    </g>
   </g>
   <g id="text_42">
    <g clip-path="url(#p2c2ae01fde)">
     <!-- PDHB -->
     <g transform="translate(318.5119 127.556701)scale(0.12 -0.12)">
      <use xlink:href="#DejaVuSans-80"/>
      <use x="60.302734" xlink:href="#DejaVuSans-68"/>
      <use x="137.304688" xlink:href="#DejaVuSans-72"/>
      <use x="212.5" xlink:href="#DejaVuSans-66"/>
     </g>
    </g>
   </g>
   <g id="text_43">
    <g clip-path="url(#p2c2ae01fde)">
     <!-- ANGPT1 -->
     <g transform="translate(559.84021 144.507978)scale(0.12 -0.12)">
      <use xlink:href="#DejaVuSans-65"/>
      <use x="68.408203" xlink:href="#DejaVuSans-78"/>
      <use x="143.212891" xlink:href="#DejaVuSans-71"/>
      <use x="220.703125" xlink:href="#DejaVuSans-80"/>
      <use x="281.005859" xlink:href="#DejaVuSans-84"/>
      <use x="342.089844" xlink:href="#DejaVuSans-49"/>
     </g>
    </g>
   </g>
   <g id="text_44">
    <g clip-path="url(#p2c2ae01fde)">
     <!-- ANGPT2 -->
     <g transform="translate(686.232875 366.111969)scale(0.12 -0.12)">
      <use xlink:href="#DejaVuSans-65"/>
      <use x="68.408203" xlink:href="#DejaVuSans-78"/>
      <use x="143.212891" xlink:href="#DejaVuSans-71"/>
      <use x="220.703125" xlink:href="#DejaVuSans-80"/>
      <use x="281.005859" xlink:href="#DejaVuSans-84"/>
      <use x="342.089844" xlink:href="#DejaVuSans-50"/>
     </g>
    </g>
   </g>
   <g id="text_45">
    <g clip-path="url(#p2c2ae01fde)">
     <!-- ANGPT4 -->
     <g transform="translate(665.51827 319.627118)scale(0.12 -0.12)">
      <use xlink:href="#DejaVuSans-65"/>
      <use x="68.408203" xlink:href="#DejaVuSans-78"/>
      <use x="143.212891" xlink:href="#DejaVuSans-71"/>
      <use x="220.703125" xlink:href="#DejaVuSans-80"/>
      <use x="281.005859" xlink:href="#DejaVuSans-84"/>
      <use x="342.089844" xlink:href="#DejaVuSans-52"/>
     </g>
    </g>
   </g>
   <g id="text_46">
    <g clip-path="url(#p2c2ae01fde)">
     <!-- RELA -->
     <g transform="translate(502.392146 328.164429)scale(0.12 -0.12)">
      <use xlink:href="#DejaVuSans-82"/>
      <use x="69.482422" xlink:href="#DejaVuSans-69"/>
      <use x="132.666016" xlink:href="#DejaVuSans-76"/>
      <use x="190.628906" xlink:href="#DejaVuSans-65"/>
     </g>
    </g>
   </g>
   <g id="text_47">
    <g clip-path="url(#p2c2ae01fde)">
     <!-- NFKB1 -->
     <g transform="translate(491.924743 203.220261)scale(0.12 -0.12)">
      <use xlink:href="#DejaVuSans-78"/>
      <use x="74.804688" xlink:href="#DejaVuSans-70"/>
      <use x="132.324219" xlink:href="#DejaVuSans-75"/>
      <use x="197.900391" xlink:href="#DejaVuSans-66"/>
      <use x="266.503906" xlink:href="#DejaVuSans-49"/>
     </g>
    </g>
   </g>
   <g id="text_48">
    <g clip-path="url(#p2c2ae01fde)">
     <!-- IFNGR1 -->
     <g transform="translate(551.54279 264.503919)scale(0.12 -0.12)">
      <use xlink:href="#DejaVuSans-73"/>
      <use x="29.492188" xlink:href="#DejaVuSans-70"/>
      <use x="87.011719" xlink:href="#DejaVuSans-78"/>
      <use x="161.816406" xlink:href="#DejaVuSans-71"/>
      <use x="239.306641" xlink:href="#DejaVuSans-82"/>
      <use x="308.789062" xlink:href="#DejaVuSans-49"/>
     </g>
    </g>
   </g>
   <g id="text_49">
    <g clip-path="url(#p2c2ae01fde)">
     <!-- IFNGR2 -->
     <g transform="translate(517.683606 247.220989)scale(0.12 -0.12)">
      <use xlink:href="#DejaVuSans-73"/>
      <use x="29.492188" xlink:href="#DejaVuSans-70"/>
      <use x="87.011719" xlink:href="#DejaVuSans-78"/>
      <use x="161.816406" xlink:href="#DejaVuSans-71"/>
      <use x="239.306641" xlink:href="#DejaVuSans-82"/>
      <use x="308.789062" xlink:href="#DejaVuSans-50"/>
     </g>
    </g>
   </g>
   <g id="text_50">
    <g clip-path="url(#p2c2ae01fde)">
     <!-- MAP2K1 -->
     <g transform="translate(324.528315 455.675801)scale(0.12 -0.12)">
      <use xlink:href="#DejaVuSans-77"/>
      <use x="86.279297" xlink:href="#DejaVuSans-65"/>
      <use x="154.6875" xlink:href="#DejaVuSans-80"/>
      <use x="214.990234" xlink:href="#DejaVuSans-50"/>
      <use x="278.613281" xlink:href="#DejaVuSans-75"/>
      <use x="344.189453" xlink:href="#DejaVuSans-49"/>
     </g>
    </g>
   </g>
   <g id="text_51">
    <g clip-path="url(#p2c2ae01fde)">
     <!-- MAP2K2 -->
     <g transform="translate(645.330905 400.549906)scale(0.12 -0.12)">
      <use xlink:href="#DejaVuSans-77"/>
      <use x="86.279297" xlink:href="#DejaVuSans-65"/>
      <use x="154.6875" xlink:href="#DejaVuSans-80"/>
      <use x="214.990234" xlink:href="#DejaVuSans-50"/>
      <use x="278.613281" xlink:href="#DejaVuSans-75"/>
      <use x="344.189453" xlink:href="#DejaVuSans-50"/>
     </g>
    </g>
   </g>
   <g id="text_52">
    <g clip-path="url(#p2c2ae01fde)">
     <!-- CDKN1A -->
     <g transform="translate(146.877058 281.064323)scale(0.12 -0.12)">
      <use xlink:href="#DejaVuSans-67"/>
      <use x="69.824219" xlink:href="#DejaVuSans-68"/>
      <use x="146.826172" xlink:href="#DejaVuSans-75"/>
      <use x="212.402344" xlink:href="#DejaVuSans-78"/>
      <use x="287.207031" xlink:href="#DejaVuSans-49"/>
      <use x="350.830078" xlink:href="#DejaVuSans-65"/>
     </g>
    </g>
   </g>
   <g id="text_53">
    <g clip-path="url(#p2c2ae01fde)">
     <!-- CDKN1B -->
     <g transform="translate(400.644479 114.450125)scale(0.12 -0.12)">
      <use xlink:href="#DejaVuSans-67"/>
      <use x="69.824219" xlink:href="#DejaVuSans-68"/>
      <use x="146.826172" xlink:href="#DejaVuSans-75"/>
      <use x="212.402344" xlink:href="#DejaVuSans-78"/>
      <use x="287.207031" xlink:href="#DejaVuSans-49"/>
      <use x="350.830078" xlink:href="#DejaVuSans-66"/>
     </g>
    </g>
   </g>
   <g id="text_54">
    <!-- Frame: 11 -->
    <g transform="translate(121.392 91.296)scale(0.1 -0.1)">
     <defs>
      <path d="M 41.109375 46.296875 
Q 39.59375 47.171875 37.8125 47.578125 
Q 36.03125 48 33.890625 48 
Q 26.265625 48 22.1875 43.046875 
Q 18.109375 38.09375 18.109375 28.8125 
L 18.109375 0 
L 9.078125 0 
L 9.078125 54.6875 
L 18.109375 54.6875 
L 18.109375 46.1875 
Q 20.953125 51.171875 25.484375 53.578125 
Q 30.03125 56 36.53125 56 
Q 37.453125 56 38.578125 55.875 
Q 39.703125 55.765625 41.0625 55.515625 
z
" id="DejaVuSans-114"/>
      <path d="M 34.28125 27.484375 
Q 23.390625 27.484375 19.1875 25 
Q 14.984375 22.515625 14.984375 16.5 
Q 14.984375 11.71875 18.140625 8.90625 
Q 21.296875 6.109375 26.703125 6.109375 
Q 34.1875 6.109375 38.703125 11.40625 
Q 43.21875 16.703125 43.21875 25.484375 
L 43.21875 27.484375 
z
M 52.203125 31.203125 
L 52.203125 0 
L 43.21875 0 
L 43.21875 8.296875 
Q 40.140625 3.328125 35.546875 0.953125 
Q 30.953125 -1.421875 24.3125 -1.421875 
Q 15.921875 -1.421875 10.953125 3.296875 
Q 6 8.015625 6 15.921875 
Q 6 25.140625 12.171875 29.828125 
Q 18.359375 34.515625 30.609375 34.515625 
L 43.21875 34.515625 
L 43.21875 35.40625 
Q 43.21875 41.609375 39.140625 45 
Q 35.0625 48.390625 27.6875 48.390625 
Q 23 48.390625 18.546875 47.265625 
Q 14.109375 46.140625 10.015625 43.890625 
L 10.015625 52.203125 
Q 14.9375 54.109375 19.578125 55.046875 
Q 24.21875 56 28.609375 56 
Q 40.484375 56 46.34375 49.84375 
Q 52.203125 43.703125 52.203125 31.203125 
z
" id="DejaVuSans-97"/>
      <path d="M 52 44.1875 
Q 55.375 50.25 60.0625 53.125 
Q 64.75 56 71.09375 56 
Q 79.640625 56 84.28125 50.015625 
Q 88.921875 44.046875 88.921875 33.015625 
L 88.921875 0 
L 79.890625 0 
L 79.890625 32.71875 
Q 79.890625 40.578125 77.09375 44.375 
Q 74.3125 48.1875 68.609375 48.1875 
Q 61.625 48.1875 57.5625 43.546875 
Q 53.515625 38.921875 53.515625 30.90625 
L 53.515625 0 
L 44.484375 0 
L 44.484375 32.71875 
Q 44.484375 40.625 41.703125 44.40625 
Q 38.921875 48.1875 33.109375 48.1875 
Q 26.21875 48.1875 22.15625 43.53125 
Q 18.109375 38.875 18.109375 30.90625 
L 18.109375 0 
L 9.078125 0 
L 9.078125 54.6875 
L 18.109375 54.6875 
L 18.109375 46.1875 
Q 21.1875 51.21875 25.484375 53.609375 
Q 29.78125 56 35.6875 56 
Q 41.65625 56 45.828125 52.96875 
Q 50 49.953125 52 44.1875 
z
" id="DejaVuSans-109"/>
      <path d="M 56.203125 29.59375 
L 56.203125 25.203125 
L 14.890625 25.203125 
Q 15.484375 15.921875 20.484375 11.0625 
Q 25.484375 6.203125 34.421875 6.203125 
Q 39.59375 6.203125 44.453125 7.46875 
Q 49.3125 8.734375 54.109375 11.28125 
L 54.109375 2.78125 
Q 49.265625 0.734375 44.1875 -0.34375 
Q 39.109375 -1.421875 33.890625 -1.421875 
Q 20.796875 -1.421875 13.15625 6.1875 
Q 5.515625 13.8125 5.515625 26.8125 
Q 5.515625 40.234375 12.765625 48.109375 
Q 20.015625 56 32.328125 56 
Q 43.359375 56 49.78125 48.890625 
Q 56.203125 41.796875 56.203125 29.59375 
z
M 47.21875 32.234375 
Q 47.125 39.59375 43.09375 43.984375 
Q 39.0625 48.390625 32.421875 48.390625 
Q 24.90625 48.390625 20.390625 44.140625 
Q 15.875 39.890625 15.1875 32.171875 
z
" id="DejaVuSans-101"/>
      <path d="M 11.71875 12.40625 
L 22.015625 12.40625 
L 22.015625 0 
L 11.71875 0 
z
M 11.71875 51.703125 
L 22.015625 51.703125 
L 22.015625 39.3125 
L 11.71875 39.3125 
z
" id="DejaVuSans-58"/>
      <path id="DejaVuSans-32"/>
     </defs>
     <use xlink:href="#DejaVuSans-70"/>
     <use x="50.269531" xlink:href="#DejaVuSans-114"/>
     <use x="91.382812" xlink:href="#DejaVuSans-97"/>
     <use x="152.662109" xlink:href="#DejaVuSans-109"/>
     <use x="250.074219" xlink:href="#DejaVuSans-101"/>
     <use x="311.597656" xlink:href="#DejaVuSans-58"/>
     <use x="345.289062" xlink:href="#DejaVuSans-32"/>
     <use x="377.076172" xlink:href="#DejaVuSans-49"/>
     <use x="440.699219" xlink:href="#DejaVuSans-49"/>
    </g>
   </g>
   <g id="text_55">
    <!-- Network: hsa04066 -->
    <g transform="translate(384.1275 63.12)scale(0.12 -0.12)">
     <defs>
      <path d="M 18.3125 70.21875 
L 18.3125 54.6875 
L 36.8125 54.6875 
L 36.8125 47.703125 
L 18.3125 47.703125 
L 18.3125 18.015625 
Q 18.3125 11.328125 20.140625 9.421875 
Q 21.96875 7.515625 27.59375 7.515625 
L 36.8125 7.515625 
L 36.8125 0 
L 27.59375 0 
Q 17.1875 0 13.234375 3.875 
Q 9.28125 7.765625 9.28125 18.015625 
L 9.28125 47.703125 
L 2.6875 47.703125 
L 2.6875 54.6875 
L 9.28125 54.6875 
L 9.28125 70.21875 
z
" id="DejaVuSans-116"/>
      <path d="M 4.203125 54.6875 
L 13.1875 54.6875 
L 24.421875 12.015625 
L 35.59375 54.6875 
L 46.1875 54.6875 
L 57.421875 12.015625 
L 68.609375 54.6875 
L 77.59375 54.6875 
L 63.28125 0 
L 52.6875 0 
L 40.921875 44.828125 
L 29.109375 0 
L 18.5 0 
z
" id="DejaVuSans-119"/>
      <path d="M 30.609375 48.390625 
Q 23.390625 48.390625 19.1875 42.75 
Q 14.984375 37.109375 14.984375 27.296875 
Q 14.984375 17.484375 19.15625 11.84375 
Q 23.34375 6.203125 30.609375 6.203125 
Q 37.796875 6.203125 41.984375 11.859375 
Q 46.1875 17.53125 46.1875 27.296875 
Q 46.1875 37.015625 41.984375 42.703125 
Q 37.796875 48.390625 30.609375 48.390625 
z
M 30.609375 56 
Q 42.328125 56 49.015625 48.375 
Q 55.71875 40.765625 55.71875 27.296875 
Q 55.71875 13.875 49.015625 6.21875 
Q 42.328125 -1.421875 30.609375 -1.421875 
Q 18.84375 -1.421875 12.171875 6.21875 
Q 5.515625 13.875 5.515625 27.296875 
Q 5.515625 40.765625 12.171875 48.375 
Q 18.84375 56 30.609375 56 
z
" id="DejaVuSans-111"/>
      <path d="M 9.078125 75.984375 
L 18.109375 75.984375 
L 18.109375 31.109375 
L 44.921875 54.6875 
L 56.390625 54.6875 
L 27.390625 29.109375 
L 57.625 0 
L 45.90625 0 
L 18.109375 26.703125 
L 18.109375 0 
L 9.078125 0 
z
" id="DejaVuSans-107"/>
      <path d="M 54.890625 33.015625 
L 54.890625 0 
L 45.90625 0 
L 45.90625 32.71875 
Q 45.90625 40.484375 42.875 44.328125 
Q 39.84375 48.1875 33.796875 48.1875 
Q 26.515625 48.1875 22.3125 43.546875 
Q 18.109375 38.921875 18.109375 30.90625 
L 18.109375 0 
L 9.078125 0 
L 9.078125 75.984375 
L 18.109375 75.984375 
L 18.109375 46.1875 
Q 21.34375 51.125 25.703125 53.5625 
Q 30.078125 56 35.796875 56 
Q 45.21875 56 50.046875 50.171875 
Q 54.890625 44.34375 54.890625 33.015625 
z
" id="DejaVuSans-104"/>
      <path d="M 44.28125 53.078125 
L 44.28125 44.578125 
Q 40.484375 46.53125 36.375 47.5 
Q 32.28125 48.484375 27.875 48.484375 
Q 21.1875 48.484375 17.84375 46.4375 
Q 14.5 44.390625 14.5 40.28125 
Q 14.5 37.15625 16.890625 35.375 
Q 19.28125 33.59375 26.515625 31.984375 
L 29.59375 31.296875 
Q 39.15625 29.25 43.1875 25.515625 
Q 47.21875 21.78125 47.21875 15.09375 
Q 47.21875 7.46875 41.1875 3.015625 
Q 35.15625 -1.421875 24.609375 -1.421875 
Q 20.21875 -1.421875 15.453125 -0.5625 
Q 10.6875 0.296875 5.421875 2 
L 5.421875 11.28125 
Q 10.40625 8.6875 15.234375 7.390625 
Q 20.0625 6.109375 24.8125 6.109375 
Q 31.15625 6.109375 34.5625 8.28125 
Q 37.984375 10.453125 37.984375 14.40625 
Q 37.984375 18.0625 35.515625 20.015625 
Q 33.0625 21.96875 24.703125 23.78125 
L 21.578125 24.515625 
Q 13.234375 26.265625 9.515625 29.90625 
Q 5.8125 33.546875 5.8125 39.890625 
Q 5.8125 47.609375 11.28125 51.796875 
Q 16.75 56 26.8125 56 
Q 31.78125 56 36.171875 55.265625 
Q 40.578125 54.546875 44.28125 53.078125 
z
" id="DejaVuSans-115"/>
     </defs>
     <use xlink:href="#DejaVuSans-78"/>
     <use x="74.804688" xlink:href="#DejaVuSans-101"/>
     <use x="136.328125" xlink:href="#DejaVuSans-116"/>
     <use x="175.537109" xlink:href="#DejaVuSans-119"/>
     <use x="257.324219" xlink:href="#DejaVuSans-111"/>
     <use x="318.505859" xlink:href="#DejaVuSans-114"/>
     <use x="359.619141" xlink:href="#DejaVuSans-107"/>
     <use x="417.529297" xlink:href="#DejaVuSans-58"/>
     <use x="451.220703" xlink:href="#DejaVuSans-32"/>
     <use x="483.007812" xlink:href="#DejaVuSans-104"/>
     <use x="546.386719" xlink:href="#DejaVuSans-115"/>
     <use x="598.486328" xlink:href="#DejaVuSans-97"/>
     <use x="659.765625" xlink:href="#DejaVuSans-48"/>
     <use x="723.388672" xlink:href="#DejaVuSans-52"/>
     <use x="787.011719" xlink:href="#DejaVuSans-48"/>
     <use x="850.634766" xlink:href="#DejaVuSans-54"/>
     <use x="914.257812" xlink:href="#DejaVuSans-54"/>
    </g>
   </g>
  </g>
 </g>
 <defs>
  <clipPath id="p2c2ae01fde">
   <rect height="443.52" width="669.6" x="108" y="69.12"/>
  </clipPath>
 </defs>
</svg>
