<?xml version="1.0" encoding="utf-8" standalone="no"?>
<!DOCTYPE svg PUBLIC "-//W3C//DTD SVG 1.1//EN"
  "http://www.w3.org/Graphics/SVG/1.1/DTD/svg11.dtd">
<!-- Created with matplotlib (https://matplotlib.org/) -->
<svg height="576pt" version="1.1" viewBox="0 0 864 576" width="864pt" xmlns="http://www.w3.org/2000/svg" xmlns:xlink="http://www.w3.org/1999/xlink">
 <metadata>
  <rdf:RDF xmlns:cc="http://creativecommons.org/ns#" xmlns:dc="http://purl.org/dc/elements/1.1/" xmlns:rdf="http://www.w3.org/1999/02/22-rdf-syntax-ns#">
   <cc:Work>
    <dc:type rdf:resource="http://purl.org/dc/dcmitype/StillImage"/>
    <dc:date>2024-04-04T21:03:46.032258</dc:date>
    <dc:format>image/svg+xml</dc:format>
    <dc:creator>
     <cc:Agent>
      <dc:title>Matplotlib v3.3.1, https://matplotlib.org/</dc:title>
     </cc:Agent>
    </dc:creator>
   </cc:Work>
  </rdf:RDF>
 </metadata>
 <defs>
  <style type="text/css">*{stroke-linecap:butt;stroke-linejoin:round;}</style>
 </defs>
 <g id="figure_1">
  <g id="patch_1">
   <path d="M 0 576 
L 864 576 
L 864 0 
L 0 0 
z
" style="fill:#ffffff;"/>
  </g>
  <g id="axes_1">
   <g id="patch_2">
    <path clip-path="url(#p83cb55ad78)" d="M 464.082458 356.754777 
Q 458.368693 323.579688 452.844694 291.506411 
" style="fill:none;stroke:#000000;stroke-linecap:round;"/>
    <path clip-path="url(#p83cb55ad78)" d="M 451.55264 295.787835 
L 452.844694 291.506411 
L 455.494601 295.108909 
L 451.55264 295.787835 
z
" style="stroke:#000000;stroke-linecap:round;"/>
   </g>
   <g id="patch_3">
    <path clip-path="url(#p83cb55ad78)" d="M 399.521703 343.769982 
Q 422.58016 316.143453 444.922202 289.375267 
" style="fill:none;stroke:#000000;stroke-linecap:round;"/>
    <path clip-path="url(#p83cb55ad78)" d="M 440.823632 291.164603 
L 444.922202 289.375267 
L 443.894529 293.727725 
L 440.823632 291.164603 
z
" style="stroke:#000000;stroke-linecap:round;"/>
   </g>
   <g id="patch_4">
    <path clip-path="url(#p83cb55ad78)" d="M 454.981533 276.262389 
Q 437.884788 196.16948 421.021442 117.169972 
" style="fill:none;stroke:#000000;stroke-linecap:round;"/>
    <path clip-path="url(#p83cb55ad78)" d="M 419.90054 121.499358 
L 421.021442 117.169972 
L 423.812409 120.664325 
L 419.90054 121.499358 
z
" style="stroke:#000000;stroke-linecap:round;"/>
   </g>
   <g id="patch_5">
    <path clip-path="url(#p83cb55ad78)" d="M 457.366832 276.088258 
Q 462.591717 197.947011 467.742011 120.921308 
" style="fill:none;stroke:#000000;stroke-linecap:round;"/>
    <path clip-path="url(#p83cb55ad78)" d="M 465.479604 124.778965 
L 467.742011 120.921308 
L 469.470692 125.045827 
L 465.479604 124.778965 
z
" style="stroke:#000000;stroke-linecap:round;"/>
   </g>
   <g id="patch_6">
    <path clip-path="url(#p83cb55ad78)" d="M 452.864582 277.006886 
Q 412.854145 198.26935 373.350196 120.528543 
" style="fill:none;stroke:#000000;stroke-linecap:round;"/>
    <path clip-path="url(#p83cb55ad78)" d="M 373.379257 125.000585 
L 373.350196 120.528543 
L 376.945266 123.188519 
L 373.379257 125.000585 
z
" style="stroke:#000000;stroke-linecap:round;"/>
   </g>
   <g id="patch_7">
    <path clip-path="url(#p83cb55ad78)" d="M 464.883578 281.65298 
Q 570.969035 241.327933 676.009414 201.400139 
" style="fill:none;stroke:#000000;stroke-linecap:round;"/>
    <path clip-path="url(#p83cb55ad78)" d="M 671.559797 200.951904 
L 676.009414 201.400139 
L 672.981056 204.690891 
L 671.559797 200.951904 
z
" style="stroke:#000000;stroke-linecap:round;"/>
   </g>
   <g id="patch_8">
    <path clip-path="url(#p83cb55ad78)" d="M 449.196349 288.891681 
Q 335.840308 351.026121 223.464677 412.623164 
" style="fill:none;stroke:#000000;stroke-linecap:round;"/>
    <path clip-path="url(#p83cb55ad78)" d="M 227.933625 412.454324 
L 223.464677 412.623164 
L 226.010973 408.946702 
L 227.933625 412.454324 
z
" style="stroke:#000000;stroke-linecap:round;"/>
   </g>
   <g id="patch_9">
    <path clip-path="url(#p83cb55ad78)" d="M 448.28621 286.373125 
Q 311.447908 312.818483 175.707327 339.051696 
" style="fill:none;stroke:#000000;stroke-linecap:round;"/>
    <path clip-path="url(#p83cb55ad78)" d="M 180.014156 340.256365 
L 175.707327 339.051696 
L 179.25516 336.329035 
L 180.014156 340.256365 
z
" style="stroke:#000000;stroke-linecap:round;"/>
   </g>
   <g id="patch_10">
    <path clip-path="url(#p83cb55ad78)" d="M 465.390966 283.716379 
Q 482.348119 281.718462 498.194919 279.851368 
" style="fill:none;stroke:#000000;stroke-linecap:round;"/>
    <path clip-path="url(#p83cb55ad78)" d="M 493.988372 278.333156 
L 498.194919 279.851368 
L 494.456421 282.305677 
L 493.988372 278.333156 
z
" style="stroke:#000000;stroke-linecap:round;"/>
   </g>
   <g id="patch_11">
    <path clip-path="url(#p83cb55ad78)" d="M 448.362487 282.741419 
Q 322.16127 252.961016 197.0482 223.437389 
" style="fill:none;stroke:#000000;stroke-linecap:round;"/>
    <path clip-path="url(#p83cb55ad78)" d="M 200.481941 226.302598 
L 197.0482 223.437389 
L 201.400612 222.409521 
L 200.481941 226.302598 
z
" style="stroke:#000000;stroke-linecap:round;"/>
   </g>
   <g id="patch_12">
    <path clip-path="url(#p83cb55ad78)" d="M 465.254608 282.893344 
Q 577.453239 258.552919 688.559252 234.449526 
" style="fill:none;stroke:#000000;stroke-linecap:round;"/>
    <path clip-path="url(#p83cb55ad78)" d="M 684.226163 233.343027 
L 688.559252 234.449526 
L 685.074199 237.252098 
L 684.226163 233.343027 
z
" style="stroke:#000000;stroke-linecap:round;"/>
   </g>
   <g id="patch_13">
    <path clip-path="url(#p83cb55ad78)" d="M 450.007195 290.116082 
Q 362.265441 359.801724 275.39919 428.792029 
" style="fill:none;stroke:#000000;stroke-linecap:round;"/>
    <path clip-path="url(#p83cb55ad78)" d="M 279.775343 427.870467 
L 275.39919 428.792029 
L 277.287632 424.738169 
L 279.775343 427.870467 
z
" style="stroke:#000000;stroke-linecap:round;"/>
   </g>
   <g id="patch_14">
    <path clip-path="url(#p83cb55ad78)" d="M 462.001712 277.814729 
Q 516.700931 205.250969 570.727154 133.580001 
" style="fill:none;stroke:#000000;stroke-linecap:round;"/>
    <path clip-path="url(#p83cb55ad78)" d="M 566.7223 135.570261 
L 570.727154 133.580001 
L 569.91645 137.978041 
L 566.7223 135.570261 
z
" style="stroke:#000000;stroke-linecap:round;"/>
   </g>
   <g id="patch_15">
    <path clip-path="url(#p83cb55ad78)" d="M 463.388959 279.117974 
Q 533.836424 219.216847 603.432139 160.039958 
" style="fill:none;stroke:#000000;stroke-linecap:round;"/>
    <path clip-path="url(#p83cb55ad78)" d="M 599.089267 161.107417 
L 603.432139 160.039958 
L 601.680383 164.154731 
L 599.089267 161.107417 
z
" style="stroke:#000000;stroke-linecap:round;"/>
   </g>
   <g id="patch_16">
    <path clip-path="url(#p83cb55ad78)" d="M 448.127368 284.679056 
Q 319.473901 283.92425 191.938449 283.176002 
" style="fill:none;stroke:#000000;stroke-linecap:round;"/>
    <path clip-path="url(#p83cb55ad78)" d="M 195.926647 285.199435 
L 191.938449 283.176002 
L 195.950114 281.199504 
L 195.926647 285.199435 
z
" style="stroke:#000000;stroke-linecap:round;"/>
   </g>
   <g id="patch_17">
    <path clip-path="url(#p83cb55ad78)" d="M 465.427468 284.103619 
Q 588.140202 275.207416 709.73783 266.392053 
" style="fill:none;stroke:#000000;stroke-linecap:round;"/>
    <path clip-path="url(#p83cb55ad78)" d="M 705.603687 264.686514 
L 709.73783 266.392053 
L 705.892913 268.676044 
L 705.603687 264.686514 
z
" style="stroke:#000000;stroke-linecap:round;"/>
   </g>
   <g id="patch_18">
    <path clip-path="url(#p83cb55ad78)" d="M 461.936054 291.697683 
Q 513.103441 360.965567 563.606535 429.334165 
" style="fill:none;stroke:#000000;stroke-linecap:round;"/>
    <path clip-path="url(#p83cb55ad78)" d="M 562.838583 424.928459 
L 563.606535 429.334165 
L 559.621198 427.305103 
L 562.838583 424.928459 
z
" style="stroke:#000000;stroke-linecap:round;"/>
   </g>
   <g id="patch_19">
    <path clip-path="url(#p83cb55ad78)" d="M 465.422937 285.379337 
Q 577.849407 293.836314 689.160992 302.209427 
" style="fill:none;stroke:#000000;stroke-linecap:round;"/>
    <path clip-path="url(#p83cb55ad78)" d="M 685.322282 299.91502 
L 689.160992 302.209427 
L 685.022241 303.903751 
L 685.322282 299.91502 
z
" style="stroke:#000000;stroke-linecap:round;"/>
   </g>
   <g id="patch_20">
    <path clip-path="url(#p83cb55ad78)" d="M 452.57359 292.293955 
Q 404.007709 379.439704 355.98609 465.608838 
" style="fill:none;stroke:#000000;stroke-linecap:round;"/>
    <path clip-path="url(#p83cb55ad78)" d="M 359.680327 463.088399 
L 355.98609 465.608838 
L 356.186281 461.141185 
L 359.680327 463.088399 
z
" style="stroke:#000000;stroke-linecap:round;"/>
   </g>
   <g id="patch_21">
    <path clip-path="url(#p83cb55ad78)" d="M 456.564203 293.385522 
Q 454.334291 379.241147 452.133408 463.979116 
" style="fill:none;stroke:#000000;stroke-linecap:round;"/>
    <path clip-path="url(#p83cb55ad78)" d="M 454.23659 460.032393 
L 452.133408 463.979116 
L 450.237939 459.928536 
L 454.23659 460.032393 
z
" style="stroke:#000000;stroke-linecap:round;"/>
   </g>
   <g id="patch_22">
    <path clip-path="url(#p83cb55ad78)" d="M 464.188407 289.228098 
Q 558.450891 346.531962 651.758021 403.255049 
" style="fill:none;stroke:#000000;stroke-linecap:round;"/>
    <path clip-path="url(#p83cb55ad78)" d="M 649.378971 399.468214 
L 651.758021 403.255049 
L 647.301123 402.886188 
L 649.378971 399.468214 
z
" style="stroke:#000000;stroke-linecap:round;"/>
   </g>
   <g id="patch_23">
    <path clip-path="url(#p83cb55ad78)" d="M 464.265412 280.36154 
Q 552.898695 228.574606 640.566643 177.3517 
" style="fill:none;stroke:#000000;stroke-linecap:round;"/>
    <path clip-path="url(#p83cb55ad78)" d="M 636.10399 177.642788 
L 640.566643 177.3517 
L 638.121921 181.096475 
L 636.10399 177.642788 
z
" style="stroke:#000000;stroke-linecap:round;"/>
   </g>
   <g id="patch_24">
    <path clip-path="url(#p83cb55ad78)" d="M 449.024403 288.568933 
Q 341.399601 341.781903 234.777021 394.499343 
" style="fill:none;stroke:#000000;stroke-linecap:round;"/>
    <path clip-path="url(#p83cb55ad78)" d="M 239.249112 394.519314 
L 234.777021 394.499343 
L 237.476252 390.933653 
L 239.249112 394.519314 
z
" style="stroke:#000000;stroke-linecap:round;"/>
   </g>
   <g id="patch_25">
    <path clip-path="url(#p83cb55ad78)" d="M 460.645231 276.976628 
Q 495.945793 206.001908 530.748464 136.02824 
" style="fill:none;stroke:#000000;stroke-linecap:round;"/>
    <path clip-path="url(#p83cb55ad78)" d="M 527.176419 138.719056 
L 530.748464 136.02824 
L 530.75789 140.500366 
L 527.176419 138.719056 
z
" style="stroke:#000000;stroke-linecap:round;"/>
   </g>
   <g id="patch_26">
    <path clip-path="url(#p83cb55ad78)" d="M 449.036882 280.864734 
Q 342.416429 227.70478 236.79654 175.043697 
" style="fill:none;stroke:#000000;stroke-linecap:round;"/>
    <path clip-path="url(#p83cb55ad78)" d="M 239.483856 178.618377 
L 236.79654 175.043697 
L 241.268673 175.038652 
L 239.483856 178.618377 
z
" style="stroke:#000000;stroke-linecap:round;"/>
   </g>
   <g id="patch_27">
    <path clip-path="url(#p83cb55ad78)" d="M 463.012859 290.752419 
Q 539.122826 364.400733 614.429337 437.271578 
" style="fill:none;stroke:#000000;stroke-linecap:round;"/>
    <path clip-path="url(#p83cb55ad78)" d="M 612.945585 433.052753 
L 614.429337 437.271578 
L 610.164026 435.927284 
L 612.945585 433.052753 
z
" style="stroke:#000000;stroke-linecap:round;"/>
   </g>
   <g id="patch_28">
    <path clip-path="url(#p83cb55ad78)" d="M 449.320404 277.696194 
Q 434.910693 196.914597 420.697316 117.233661 
" style="fill:none;stroke:#000000;stroke-linecap:round;"/>
    <path clip-path="url(#p83cb55ad78)" d="M 419.430822 121.522716 
L 420.697316 117.233661 
L 423.368664 120.820289 
L 419.430822 121.522716 
z
" style="stroke:#000000;stroke-linecap:round;"/>
   </g>
   <g id="patch_29">
    <path clip-path="url(#p83cb55ad78)" d="M 451.705379 277.609701 
Q 459.6178 198.696788 467.418678 120.896331 
" style="fill:none;stroke:#000000;stroke-linecap:round;"/>
    <path clip-path="url(#p83cb55ad78)" d="M 465.029586 124.676839 
L 467.418678 120.896331 
L 469.009629 125.075909 
L 465.029586 124.676839 
z
" style="stroke:#000000;stroke-linecap:round;"/>
   </g>
   <g id="patch_30">
    <path clip-path="url(#p83cb55ad78)" d="M 447.160314 278.386583 
Q 409.880647 199.016857 373.076297 120.659098 
" style="fill:none;stroke:#000000;stroke-linecap:round;"/>
    <path clip-path="url(#p83cb55ad78)" d="M 372.966582 125.129888 
L 373.076297 120.659098 
L 376.5871 123.429344 
L 372.966582 125.129888 
z
" style="stroke:#000000;stroke-linecap:round;"/>
   </g>
   <g id="patch_31">
    <path clip-path="url(#p83cb55ad78)" d="M 458.946781 283.169804 
Q 567.998523 242.0739 676.004054 201.372259 
" style="fill:none;stroke:#000000;stroke-linecap:round;"/>
    <path clip-path="url(#p83cb55ad78)" d="M 671.555738 200.911295 
L 676.004054 201.372259 
L 672.966293 204.654333 
L 671.555738 200.911295 
z
" style="stroke:#000000;stroke-linecap:round;"/>
   </g>
   <g id="patch_32">
    <path clip-path="url(#p83cb55ad78)" d="M 443.270011 290.431139 
Q 332.864695 351.774339 223.43669 412.574527 
" style="fill:none;stroke:#000000;stroke-linecap:round;"/>
    <path clip-path="url(#p83cb55ad78)" d="M 227.904596 412.380056 
L 223.43669 412.574527 
L 225.961857 408.883519 
L 227.904596 412.380056 
z
" style="stroke:#000000;stroke-linecap:round;"/>
   </g>
   <g id="patch_33">
    <path clip-path="url(#p83cb55ad78)" d="M 442.338996 287.857131 
Q 308.473202 313.565848 175.705378 339.063702 
" style="fill:none;stroke:#000000;stroke-linecap:round;"/>
    <path clip-path="url(#p83cb55ad78)" d="M 180.010796 340.273402 
L 175.705378 339.063702 
L 179.256389 336.345187 
L 180.010796 340.273402 
z
" style="stroke:#000000;stroke-linecap:round;"/>
   </g>
   <g id="patch_34">
    <path clip-path="url(#p83cb55ad78)" d="M 459.427316 285.093236 
Q 479.375492 282.465495 498.21521 279.98377 
" style="fill:none;stroke:#000000;stroke-linecap:round;"/>
    <path clip-path="url(#p83cb55ad78)" d="M 493.988269 278.5233 
L 498.21521 279.98377 
L 494.51067 282.489041 
L 493.988269 278.5233 
z
" style="stroke:#000000;stroke-linecap:round;"/>
   </g>
   <g id="patch_35">
    <path clip-path="url(#p83cb55ad78)" d="M 442.432477 284.147318 
Q 319.186054 253.707806 197.02505 223.536372 
" style="fill:none;stroke:#000000;stroke-linecap:round;"/>
    <path clip-path="url(#p83cb55ad78)" d="M 200.428811 226.437132 
L 197.02505 223.536372 
L 201.387915 222.553819 
L 200.428811 226.437132 
z
" style="stroke:#000000;stroke-linecap:round;"/>
   </g>
   <g id="patch_36">
    <path clip-path="url(#p83cb55ad78)" d="M 459.304559 284.381276 
Q 574.475802 259.300902 688.554613 234.458422 
" style="fill:none;stroke:#000000;stroke-linecap:round;"/>
    <path clip-path="url(#p83cb55ad78)" d="M 684.220654 233.355338 
L 688.554613 234.458422 
L 685.071771 237.263739 
L 684.220654 233.355338 
z
" style="stroke:#000000;stroke-linecap:round;"/>
   </g>
   <g id="patch_37">
    <path clip-path="url(#p83cb55ad78)" d="M 444.116697 291.683838 
Q 359.291319 360.549227 275.33394 428.709933 
" style="fill:none;stroke:#000000;stroke-linecap:round;"/>
    <path clip-path="url(#p83cb55ad78)" d="M 279.699961 427.741503 
L 275.33394 428.709933 
L 277.178809 424.636058 
L 279.699961 427.741503 
z
" style="stroke:#000000;stroke-linecap:round;"/>
   </g>
   <g id="patch_38">
    <path clip-path="url(#p83cb55ad78)" d="M 456.182547 279.410548 
Q 513.726994 205.998432 570.581707 133.46624 
" style="fill:none;stroke:#000000;stroke-linecap:round;"/>
    <path clip-path="url(#p83cb55ad78)" d="M 566.539984 135.380522 
L 570.581707 133.46624 
L 569.688099 137.848187 
L 566.539984 135.380522 
z
" style="stroke:#000000;stroke-linecap:round;"/>
   </g>
   <g id="patch_39">
    <path clip-path="url(#p83cb55ad78)" d="M 457.510709 280.701987 
Q 530.85946 219.966763 603.347074 159.94459 
" style="fill:none;stroke:#000000;stroke-linecap:round;"/>
    <path clip-path="url(#p83cb55ad78)" d="M 598.990629 160.955228 
L 603.347074 159.94459 
L 601.541718 164.036129 
L 598.990629 160.955228 
z
" style="stroke:#000000;stroke-linecap:round;"/>
   </g>
   <g id="patch_40">
    <path clip-path="url(#p83cb55ad78)" d="M 442.178969 286.124087 
Q 316.502088 284.671427 191.943167 283.23169 
" style="fill:none;stroke:#000000;stroke-linecap:round;"/>
    <path clip-path="url(#p83cb55ad78)" d="M 195.919784 285.277788 
L 191.943167 283.23169 
L 195.966016 281.278055 
L 195.919784 285.277788 
z
" style="stroke:#000000;stroke-linecap:round;"/>
   </g>
   <g id="patch_41">
    <path clip-path="url(#p83cb55ad78)" d="M 459.478874 285.563866 
Q 585.1679 275.954485 709.742145 266.430334 
" style="fill:none;stroke:#000000;stroke-linecap:round;"/>
    <path clip-path="url(#p83cb55ad78)" d="M 705.601322 264.741078 
L 709.742145 266.430334 
L 705.906246 268.729439 
L 705.601322 264.741078 
z
" style="stroke:#000000;stroke-linecap:round;"/>
   </g>
   <g id="patch_42">
    <path clip-path="url(#p83cb55ad78)" d="M 456.191704 293.036193 
Q 510.128337 361.710852 563.374399 429.506243 
" style="fill:none;stroke:#000000;stroke-linecap:round;"/>
    <path clip-path="url(#p83cb55ad78)" d="M 562.476618 425.125149 
L 563.374399 429.506243 
L 559.330855 427.595811 
L 562.476618 425.125149 
z
" style="stroke:#000000;stroke-linecap:round;"/>
   </g>
   <g id="patch_43">
    <path clip-path="url(#p83cb55ad78)" d="M 459.483226 286.806616 
Q 574.875696 294.583478 689.152663 302.285162 
" style="fill:none;stroke:#000000;stroke-linecap:round;"/>
    <path clip-path="url(#p83cb55ad78)" d="M 685.296201 300.020719 
L 689.152663 302.285162 
L 685.027232 304.011666 
L 685.296201 300.020719 
z
" style="stroke:#000000;stroke-linecap:round;"/>
   </g>
   <g id="patch_44">
    <path clip-path="url(#p83cb55ad78)" d="M 446.784648 293.877737 
Q 401.032166 380.190275 355.803314 465.514981 
" style="fill:none;stroke:#000000;stroke-linecap:round;"/>
    <path clip-path="url(#p83cb55ad78)" d="M 359.443795 462.917502 
L 355.803314 465.514981 
L 355.909619 461.044109 
L 359.443795 462.917502 
z
" style="stroke:#000000;stroke-linecap:round;"/>
   </g>
   <g id="patch_45">
    <path clip-path="url(#p83cb55ad78)" d="M 450.889562 294.885833 
Q 451.360599 379.989092 451.825449 463.974334 
" style="fill:none;stroke:#000000;stroke-linecap:round;"/>
    <path clip-path="url(#p83cb55ad78)" d="M 453.803279 459.963326 
L 451.825449 463.974334 
L 449.80334 459.985465 
L 453.803279 459.963326 
z
" style="stroke:#000000;stroke-linecap:round;"/>
   </g>
   <g id="patch_46">
    <path clip-path="url(#p83cb55ad78)" d="M 458.323337 290.589801 
Q 555.478425 347.279849 651.667849 403.40643 
" style="fill:none;stroke:#000000;stroke-linecap:round;"/>
    <path clip-path="url(#p83cb55ad78)" d="M 649.220943 399.663083 
L 651.667849 403.40643 
L 647.205028 403.117947 
L 649.220943 399.663083 
z
" style="stroke:#000000;stroke-linecap:round;"/>
   </g>
   <g id="patch_47">
    <path clip-path="url(#p83cb55ad78)" d="M 458.349768 281.912372 
Q 549.925869 229.321265 640.532441 177.286946 
" style="fill:none;stroke:#000000;stroke-linecap:round;"/>
    <path clip-path="url(#p83cb55ad78)" d="M 636.067735 177.54463 
L 640.532441 177.286946 
L 638.059764 181.013321 
L 636.067735 177.54463 
z
" style="stroke:#000000;stroke-linecap:round;"/>
   </g>
   <g id="patch_48">
    <path clip-path="url(#p83cb55ad78)" d="M 443.098722 290.102347 
Q 338.426386 342.528841 234.753706 394.454644 
" style="fill:none;stroke:#000000;stroke-linecap:round;"/>
    <path clip-path="url(#p83cb55ad78)" d="M 239.225841 394.451558 
L 234.753706 394.454644 
L 237.434518 390.875085 
L 239.225841 394.451558 
z
" style="stroke:#000000;stroke-linecap:round;"/>
   </g>
   <g id="patch_49">
    <path clip-path="url(#p83cb55ad78)" d="M 454.898115 278.572018 
Q 492.972328 206.74858 530.522889 135.912963 
" style="fill:none;stroke:#000000;stroke-linecap:round;"/>
    <path clip-path="url(#p83cb55ad78)" d="M 526.882349 138.510359 
L 530.522889 135.912963 
L 530.416482 140.383833 
L 526.882349 138.510359 
z
" style="stroke:#000000;stroke-linecap:round;"/>
   </g>
   <g id="patch_50">
    <path clip-path="url(#p83cb55ad78)" d="M 443.15506 282.23791 
Q 339.444563 228.452903 236.726569 175.182615 
" style="fill:none;stroke:#000000;stroke-linecap:round;"/>
    <path clip-path="url(#p83cb55ad78)" d="M 239.3567 178.799577 
L 236.726569 175.182615 
L 241.198217 175.248687 
L 239.3567 178.799577 
z
" style="stroke:#000000;stroke-linecap:round;"/>
   </g>
   <g id="patch_51">
    <path clip-path="url(#p83cb55ad78)" d="M 457.196531 292.103571 
Q 536.148018 365.146912 614.278826 437.430987 
" style="fill:none;stroke:#000000;stroke-linecap:round;"/>
    <path clip-path="url(#p83cb55ad78)" d="M 612.70089 433.246478 
L 614.278826 437.430987 
L 609.984457 436.18263 
L 612.70089 433.246478 
z
" style="stroke:#000000;stroke-linecap:round;"/>
   </g>
   <g id="patch_52">
    <path clip-path="url(#p83cb55ad78)" d="M 449.61127 273.354476 
Q 435.082579 194.738617 420.757067 117.222175 
" style="fill:none;stroke:#000000;stroke-linecap:round;"/>
    <path clip-path="url(#p83cb55ad78)" d="M 419.517285 121.519028 
L 420.757067 117.222175 
L 423.45068 120.792112 
L 419.517285 121.519028 
z
" style="stroke:#000000;stroke-linecap:round;"/>
   </g>
   <g id="patch_53">
    <path clip-path="url(#p83cb55ad78)" d="M 452.054164 273.252331 
Q 459.790126 196.515365 467.413946 120.890794 
" style="fill:none;stroke:#000000;stroke-linecap:round;"/>
    <path clip-path="url(#p83cb55ad78)" d="M 465.02282 124.670015 
L 467.413946 120.890794 
L 469.002648 125.071227 
L 465.02282 124.670015 
z
" style="stroke:#000000;stroke-linecap:round;"/>
   </g>
   <g id="patch_54">
    <path clip-path="url(#p83cb55ad78)" d="M 447.413194 274.073719 
Q 410.05256 196.840687 373.17879 120.614115 
" style="fill:none;stroke:#000000;stroke-linecap:round;"/>
    <path clip-path="url(#p83cb55ad78)" d="M 373.120237 125.085868 
L 373.17879 120.614115 
L 376.72106 123.344009 
L 373.120237 125.085868 
z
" style="stroke:#000000;stroke-linecap:round;"/>
   </g>
   <g id="patch_55">
    <path clip-path="url(#p83cb55ad78)" d="M 459.335652 278.94711 
Q 568.168911 239.898067 675.949822 201.226604 
" style="fill:none;stroke:#000000;stroke-linecap:round;"/>
    <path clip-path="url(#p83cb55ad78)" d="M 671.509397 200.694976 
L 675.949822 201.226604 
L 672.860265 204.459967 
L 671.509397 200.694976 
z
" style="stroke:#000000;stroke-linecap:round;"/>
   </g>
   <g id="patch_56">
    <path clip-path="url(#p83cb55ad78)" d="M 443.674735 286.17671 
Q 333.038856 349.596603 223.372949 412.460479 
" style="fill:none;stroke:#000000;stroke-linecap:round;"/>
    <path clip-path="url(#p83cb55ad78)" d="M 227.837859 412.206348 
L 223.372949 412.460479 
L 225.84859 408.736073 
L 227.837859 412.206348 
z
" style="stroke:#000000;stroke-linecap:round;"/>
   </g>
   <g id="patch_57">
    <path clip-path="url(#p83cb55ad78)" d="M 442.707172 283.627136 
Q 308.646073 311.389253 175.67978 338.924653 
" style="fill:none;stroke:#000000;stroke-linecap:round;"/>
    <path clip-path="url(#p83cb55ad78)" d="M 180.002241 340.071968 
L 175.67978 338.924653 
L 179.191109 336.155073 
L 180.002241 340.071968 
z
" style="stroke:#000000;stroke-linecap:round;"/>
   </g>
   <g id="patch_58">
    <path clip-path="url(#p83cb55ad78)" d="M 459.830039 281.389167 
Q 479.545016 280.2893 498.143694 279.251708 
" style="fill:none;stroke:#000000;stroke-linecap:round;"/>
    <path clip-path="url(#p83cb55ad78)" d="M 494.0385 277.477621 
L 498.143694 279.251708 
L 494.261308 281.471411 
L 494.0385 277.477621 
z
" style="stroke:#000000;stroke-linecap:round;"/>
   </g>
   <g id="patch_59">
    <path clip-path="url(#p83cb55ad78)" d="M 442.749048 279.929858 
Q 319.361242 251.532231 197.062986 223.385363 
" style="fill:none;stroke:#000000;stroke-linecap:round;"/>
    <path clip-path="url(#p83cb55ad78)" d="M 200.512507 226.231554 
L 197.062986 223.385363 
L 201.409651 222.33346 
L 200.512507 226.231554 
z
" style="stroke:#000000;stroke-linecap:round;"/>
   </g>
   <g id="patch_60">
    <path clip-path="url(#p83cb55ad78)" d="M 459.674114 280.16993 
Q 574.648937 257.124237 688.527532 234.298274 
" style="fill:none;stroke:#000000;stroke-linecap:round;"/>
    <path clip-path="url(#p83cb55ad78)" d="M 684.212478 233.123407 
L 688.527532 234.298274 
L 684.998607 237.045397 
L 684.212478 233.123407 
z
" style="stroke:#000000;stroke-linecap:round;"/>
   </g>
   <g id="patch_61">
    <path clip-path="url(#p83cb55ad78)" d="M 444.537286 287.416228 
Q 359.463772 358.372307 275.248849 428.612273 
" style="fill:none;stroke:#000000;stroke-linecap:round;"/>
    <path clip-path="url(#p83cb55ad78)" d="M 279.601666 427.586122 
L 275.248849 428.612273 
L 277.039618 424.514329 
L 279.601666 427.586122 
z
" style="stroke:#000000;stroke-linecap:round;"/>
   </g>
   <g id="patch_62">
    <path clip-path="url(#p83cb55ad78)" d="M 456.611114 275.118762 
Q 513.899512 203.82116 570.487615 133.395102 
" style="fill:none;stroke:#000000;stroke-linecap:round;"/>
    <path clip-path="url(#p83cb55ad78)" d="M 566.423101 135.260505 
L 570.487615 133.395102 
L 569.541229 137.765955 
L 566.423101 135.260505 
z
" style="stroke:#000000;stroke-linecap:round;"/>
   </g>
   <g id="patch_63">
    <path clip-path="url(#p83cb55ad78)" d="M 457.937497 276.452379 
Q 531.030796 217.790729 603.252146 159.828869 
" style="fill:none;stroke:#000000;stroke-linecap:round;"/>
    <path clip-path="url(#p83cb55ad78)" d="M 598.880746 160.772723 
L 603.252146 159.828869 
L 601.38439 163.892302 
L 598.880746 160.772723 
z
" style="stroke:#000000;stroke-linecap:round;"/>
   </g>
   <g id="patch_64">
    <path clip-path="url(#p83cb55ad78)" d="M 442.527947 281.911582 
Q 316.674444 282.495053 191.938963 283.07334 
" style="fill:none;stroke:#000000;stroke-linecap:round;"/>
    <path clip-path="url(#p83cb55ad78)" d="M 195.948192 285.054774 
L 191.938963 283.07334 
L 195.929648 281.054817 
L 195.948192 285.054774 
z
" style="stroke:#000000;stroke-linecap:round;"/>
   </g>
   <g id="patch_65">
    <path clip-path="url(#p83cb55ad78)" d="M 459.82784 281.350052 
Q 585.340254 273.778068 709.736664 266.273412 
" style="fill:none;stroke:#000000;stroke-linecap:round;"/>
    <path clip-path="url(#p83cb55ad78)" d="M 705.623485 264.517917 
L 709.736664 266.273412 
L 705.864361 268.510658 
L 705.623485 264.517917 
z
" style="stroke:#000000;stroke-linecap:round;"/>
   </g>
   <g id="patch_66">
    <path clip-path="url(#p83cb55ad78)" d="M 456.429634 288.761317 
Q 510.299473 359.53356 563.492147 429.41617 
" style="fill:none;stroke:#000000;stroke-linecap:round;"/>
    <path clip-path="url(#p83cb55ad78)" d="M 562.660876 425.02197 
L 563.492147 429.41617 
L 559.478025 427.444667 
L 562.660876 425.02197 
z
" style="stroke:#000000;stroke-linecap:round;"/>
   </g>
   <g id="patch_67">
    <path clip-path="url(#p83cb55ad78)" d="M 459.814893 282.605479 
Q 575.047514 292.407107 689.166124 302.113977 
" style="fill:none;stroke:#000000;stroke-linecap:round;"/>
    <path clip-path="url(#p83cb55ad78)" d="M 685.350024 299.78216 
L 689.166124 302.113977 
L 685.01101 303.767767 
L 685.350024 299.78216 
z
" style="stroke:#000000;stroke-linecap:round;"/>
   </g>
   <g id="patch_68">
    <path clip-path="url(#p83cb55ad78)" d="M 447.190555 289.555539 
Q 401.204195 378.013522 355.733539 465.479513 
" style="fill:none;stroke:#000000;stroke-linecap:round;"/>
    <path clip-path="url(#p83cb55ad78)" d="M 359.353108 462.852972 
L 355.733539 465.479513 
L 355.804047 461.007933 
L 359.353108 462.852972 
z
" style="stroke:#000000;stroke-linecap:round;"/>
   </g>
   <g id="patch_69">
    <path clip-path="url(#p83cb55ad78)" d="M 451.216586 290.52916 
Q 451.532413 377.811528 451.844194 463.975869 
" style="fill:none;stroke:#000000;stroke-linecap:round;"/>
    <path clip-path="url(#p83cb55ad78)" d="M 453.829707 459.968659 
L 451.844194 463.975869 
L 449.829733 459.983133 
L 453.829707 459.968659 
z
" style="stroke:#000000;stroke-linecap:round;"/>
   </g>
   <g id="patch_70">
    <path clip-path="url(#p83cb55ad78)" d="M 458.59093 286.354056 
Q 555.64793 345.102093 651.748466 403.271186 
" style="fill:none;stroke:#000000;stroke-linecap:round;"/>
    <path clip-path="url(#p83cb55ad78)" d="M 649.362157 399.488921 
L 651.748466 403.271186 
L 647.290868 402.910875 
L 649.362157 399.488921 
z
" style="stroke:#000000;stroke-linecap:round;"/>
   </g>
   <g id="patch_71">
    <path clip-path="url(#p83cb55ad78)" d="M 458.764907 277.677755 
Q 550.098069 227.144662 640.452951 177.152835 
" style="fill:none;stroke:#000000;stroke-linecap:round;"/>
    <path clip-path="url(#p83cb55ad78)" d="M 635.984705 177.339326 
L 640.452951 177.152835 
L 637.921196 180.839326 
L 635.984705 177.339326 
z
" style="stroke:#000000;stroke-linecap:round;"/>
   </g>
   <g id="patch_72">
    <path clip-path="url(#p83cb55ad78)" d="M 443.499242 285.863789 
Q 338.597284 340.35295 234.687495 394.326749 
" style="fill:none;stroke:#000000;stroke-linecap:round;"/>
    <path clip-path="url(#p83cb55ad78)" d="M 239.159099 394.25778 
L 234.687495 394.326749 
L 237.315283 390.708085 
L 239.159099 394.25778 
z
" style="stroke:#000000;stroke-linecap:round;"/>
   </g>
   <g id="patch_73">
    <path clip-path="url(#p83cb55ad78)" d="M 455.317405 274.25895 
Q 493.145098 204.570433 530.43942 135.864524 
" style="fill:none;stroke:#000000;stroke-linecap:round;"/>
    <path clip-path="url(#p83cb55ad78)" d="M 526.773437 138.425885 
L 530.43942 135.864524 
L 530.288919 140.334127 
L 526.773437 138.425885 
z
" style="stroke:#000000;stroke-linecap:round;"/>
   </g>
   <g id="patch_74">
    <path clip-path="url(#p83cb55ad78)" d="M 443.432364 278.008165 
Q 339.614464 226.275523 236.797243 175.04152 
" style="fill:none;stroke:#000000;stroke-linecap:round;"/>
    <path clip-path="url(#p83cb55ad78)" d="M 239.485387 178.615577 
L 236.797243 175.04152 
L 241.269375 175.03544 
L 239.485387 178.615577 
z
" style="stroke:#000000;stroke-linecap:round;"/>
   </g>
   <g id="patch_75">
    <path clip-path="url(#p83cb55ad78)" d="M 457.454621 287.843628 
Q 536.322099 362.972628 614.380054 437.330478 
" style="fill:none;stroke:#000000;stroke-linecap:round;"/>
    <path clip-path="url(#p83cb55ad78)" d="M 612.863291 433.123409 
L 614.380054 437.330478 
L 610.104341 436.019646 
L 612.863291 433.123409 
z
" style="stroke:#000000;stroke-linecap:round;"/>
   </g>
   <g id="patch_76">
    <path clip-path="url(#p83cb55ad78)" d="M 310.604495 341.901587 
Q 252.327705 288.040655 194.87198 234.938572 
" style="fill:none;stroke:#000000;stroke-linecap:round;"/>
    <path clip-path="url(#p83cb55ad78)" d="M 196.452039 239.12228 
L 194.87198 234.938572 
L 199.166982 236.184749 
L 196.452039 239.12228 
z
" style="stroke:#000000;stroke-linecap:round;"/>
   </g>
   <g id="patch_77">
    <path clip-path="url(#p83cb55ad78)" d="M 703.66346 310.182188 
Q 707.264774 315.665058 710.252292 320.213447 
" style="fill:none;stroke:#000000;stroke-linecap:round;"/>
    <path clip-path="url(#p83cb55ad78)" d="M 709.727962 315.772154 
L 710.252292 320.213447 
L 706.38466 317.968135 
L 709.727962 315.772154 
z
" style="stroke:#000000;stroke-linecap:round;"/>
   </g>
   <g id="patch_78">
    <path clip-path="url(#p83cb55ad78)" d="M 499.897065 275.410664 
Q 485.502288 269.487356 472.141433 263.989496 
" style="fill:none;stroke:#000000;stroke-linecap:round;"/>
    <path clip-path="url(#p83cb55ad78)" d="M 475.079437 267.361161 
L 472.141433 263.989496 
L 476.601568 263.662091 
L 475.079437 267.361161 
z
" style="stroke:#000000;stroke-linecap:round;"/>
   </g>
   <g id="patch_79">
    <path clip-path="url(#p83cb55ad78)" d="M 499.734514 281.562832 
Q 468.741955 292.392064 438.804854 302.852504 
" style="fill:none;stroke:#000000;stroke-linecap:round;"/>
    <path clip-path="url(#p83cb55ad78)" d="M 443.240692 303.421135 
L 438.804854 302.852504 
L 441.921262 299.645012 
L 443.240692 303.421135 
z
" style="stroke:#000000;stroke-linecap:round;"/>
   </g>
   <g id="patch_80">
    <path clip-path="url(#p83cb55ad78)" d="M 499.384579 277.169301 
Q 474.323123 272.64791 450.361938 268.325022 
" style="fill:none;stroke:#000000;stroke-linecap:round;"/>
    <path clip-path="url(#p83cb55ad78)" d="M 453.943297 271.00343 
L 450.361938 268.325022 
L 454.65348 267.06698 
L 453.943297 271.00343 
z
" style="stroke:#000000;stroke-linecap:round;"/>
   </g>
   <g id="patch_81">
    <path clip-path="url(#p83cb55ad78)" d="M 499.357137 280.082653 
Q 465.825665 285.477363 433.398032 290.694482 
" style="fill:none;stroke:#000000;stroke-linecap:round;"/>
    <path clip-path="url(#p83cb55ad78)" d="M 437.664933 292.033721 
L 433.398032 290.694482 
L 437.029563 288.084505 
L 437.664933 292.033721 
z
" style="stroke:#000000;stroke-linecap:round;"/>
   </g>
   <g id="patch_82">
    <path clip-path="url(#p83cb55ad78)" d="M 353.163536 202.693362 
Q 362.847259 212.267768 371.735937 221.056104 
" style="fill:none;stroke:#000000;stroke-linecap:round;"/>
    <path clip-path="url(#p83cb55ad78)" d="M 370.297664 216.821559 
L 371.735937 221.056104 
L 367.485337 219.665996 
L 370.297664 216.821559 
z
" style="stroke:#000000;stroke-linecap:round;"/>
   </g>
   <g id="patch_83">
    <path clip-path="url(#p83cb55ad78)" d="M 355.63774 197.283193 
Q 391.64644 200.120805 426.540561 202.870585 
" style="fill:none;stroke:#000000;stroke-linecap:round;"/>
    <path clip-path="url(#p83cb55ad78)" d="M 422.710043 200.562526 
L 426.540561 202.870585 
L 422.395803 204.550164 
L 422.710043 200.562526 
z
" style="stroke:#000000;stroke-linecap:round;"/>
   </g>
   <g id="patch_84">
    <path clip-path="url(#p83cb55ad78)" d="M 473.968131 170.888107 
Q 426.594101 166.320546 380.332943 161.860282 
" style="fill:none;stroke:#000000;stroke-linecap:round;"/>
    <path clip-path="url(#p83cb55ad78)" d="M 384.122541 164.23493 
L 380.332943 161.860282 
L 384.50642 160.253393 
L 384.122541 164.23493 
z
" style="stroke:#000000;stroke-linecap:round;"/>
   </g>
   <g id="patch_85">
    <path clip-path="url(#p83cb55ad78)" d="M 474.054858 173.179963 
Q 466.245125 174.516139 459.537414 175.663769 
" style="fill:none;stroke:#000000;stroke-linecap:round;"/>
    <path clip-path="url(#p83cb55ad78)" d="M 463.817406 176.960561 
L 459.537414 175.663769 
L 463.142843 173.017851 
L 463.817406 176.960561 
z
" style="stroke:#000000;stroke-linecap:round;"/>
   </g>
   <g id="patch_86">
    <path clip-path="url(#p83cb55ad78)" d="M 469.440124 466.519193 
Q 440.784417 452.178007 413.128525 438.337193 
" style="fill:none;stroke:#000000;stroke-linecap:round;"/>
    <path clip-path="url(#p83cb55ad78)" d="M 415.810475 441.915901 
L 413.128525 438.337193 
L 417.600661 438.338858 
L 415.810475 441.915901 
z
" style="stroke:#000000;stroke-linecap:round;"/>
   </g>
   <g id="patch_87">
    <path clip-path="url(#p83cb55ad78)" d="M 411.435009 428.940461 
Q 454.999286 397.940419 497.652624 367.588596 
" style="fill:none;stroke:#000000;stroke-linecap:round;"/>
    <path clip-path="url(#p83cb55ad78)" d="M 493.233976 368.278195 
L 497.652624 367.588596 
L 495.553114 371.537274 
L 493.233976 368.278195 
z
" style="stroke:#000000;stroke-linecap:round;"/>
   </g>
   <g id="patch_88">
    <path clip-path="url(#p83cb55ad78)" d="M 500.75094 354.759069 
Q 478.402669 321.895355 456.683097 289.95616 
" style="fill:none;stroke:#000000;stroke-linecap:round;"/>
    <path clip-path="url(#p83cb55ad78)" d="M 457.278571 294.388475 
L 456.683097 289.95616 
L 460.586233 292.13917 
L 457.278571 294.388475 
z
" style="stroke:#000000;stroke-linecap:round;"/>
   </g>
   <g id="patch_89">
    <path clip-path="url(#p83cb55ad78)" d="M 193.912049 222.280318 
Q 228.509888 188.792154 262.304379 156.081571 
" style="fill:none;stroke:#000000;stroke-linecap:round;"/>
    <path clip-path="url(#p83cb55ad78)" d="M 258.039256 157.426459 
L 262.304379 156.081571 
L 260.821216 160.300602 
L 258.039256 157.426459 
z
" style="stroke:#000000;stroke-linecap:round;"/>
   </g>
   <g id="patch_90">
    <path clip-path="url(#p83cb55ad78)" d="M 392.452535 271.529965 
Q 423.500143 266.580642 453.443657 261.807324 
" style="fill:none;stroke:#000000;stroke-linecap:round;"/>
    <path clip-path="url(#p83cb55ad78)" d="M 449.178685 260.461954 
L 453.443657 261.807324 
L 449.808378 264.412079 
L 449.178685 260.461954 
z
" style="stroke:#000000;stroke-linecap:round;"/>
   </g>
   <g id="patch_91">
    <path clip-path="url(#p83cb55ad78)" d="M 390.906979 277.982976 
Q 406.737261 289.484755 421.663045 300.329356 
" style="fill:none;stroke:#000000;stroke-linecap:round;"/>
    <path clip-path="url(#p83cb55ad78)" d="M 419.602614 296.360146 
L 421.663045 300.329356 
L 417.251419 299.596175 
L 419.602614 296.360146 
z
" style="stroke:#000000;stroke-linecap:round;"/>
   </g>
   <g id="patch_92">
    <path clip-path="url(#p83cb55ad78)" d="M 392.508376 271.938453 
Q 412.321385 269.740884 431.023174 267.666567 
" style="fill:none;stroke:#000000;stroke-linecap:round;"/>
    <path clip-path="url(#p83cb55ad78)" d="M 426.827075 266.119715 
L 431.023174 267.666567 
L 427.268032 270.095335 
L 426.827075 266.119715 
z
" style="stroke:#000000;stroke-linecap:round;"/>
   </g>
   <g id="patch_93">
    <path clip-path="url(#p83cb55ad78)" d="M 391.690268 276.67687 
Q 403.821287 282.570195 414.946662 287.974972 
" style="fill:none;stroke:#000000;stroke-linecap:round;"/>
    <path clip-path="url(#p83cb55ad78)" d="M 412.222701 284.428137 
L 414.946662 287.974972 
L 410.474817 288.02604 
L 412.222701 284.428137 
z
" style="stroke:#000000;stroke-linecap:round;"/>
   </g>
   <g id="patch_94">
    <path clip-path="url(#p83cb55ad78)" d="M 490.954736 298.841934 
Q 479.562352 283.066622 468.824532 268.197701 
" style="fill:none;stroke:#000000;stroke-linecap:round;"/>
    <path clip-path="url(#p83cb55ad78)" d="M 469.544971 272.611426 
L 468.824532 268.197701 
L 472.787775 270.269585 
L 469.544971 272.611426 
z
" style="stroke:#000000;stroke-linecap:round;"/>
   </g>
   <g id="patch_95">
    <path clip-path="url(#p83cb55ad78)" d="M 487.366047 305.891119 
Q 462.800114 305.970418 439.352208 306.046107 
" style="fill:none;stroke:#000000;stroke-linecap:round;"/>
    <path clip-path="url(#p83cb55ad78)" d="M 443.358643 308.033185 
L 439.352208 306.046107 
L 443.345732 304.033206 
L 443.358643 308.033185 
z
" style="stroke:#000000;stroke-linecap:round;"/>
   </g>
   <g id="patch_96">
    <path clip-path="url(#p83cb55ad78)" d="M 488.962603 300.846018 
Q 468.381339 286.225492 448.711538 272.252452 
" style="fill:none;stroke:#000000;stroke-linecap:round;"/>
    <path clip-path="url(#p83cb55ad78)" d="M 450.814229 276.199437 
L 448.711538 272.252452 
L 453.130741 272.938491 
L 450.814229 276.199437 
z
" style="stroke:#000000;stroke-linecap:round;"/>
   </g>
   <g id="patch_97">
    <path clip-path="url(#p83cb55ad78)" d="M 487.514864 304.260154 
Q 459.884885 299.055768 433.353618 294.058336 
" style="fill:none;stroke:#000000;stroke-linecap:round;"/>
    <path clip-path="url(#p83cb55ad78)" d="M 436.914283 296.764193 
L 433.353618 294.058336 
L 437.654703 292.833318 
L 436.914283 296.764193 
z
" style="stroke:#000000;stroke-linecap:round;"/>
   </g>
   <g id="patch_98">
    <path clip-path="url(#p83cb55ad78)" d="M 454.671487 258.254715 
Q 330.915691 228.683062 208.247316 199.371249 
" style="fill:none;stroke:#000000;stroke-linecap:round;"/>
    <path clip-path="url(#p83cb55ad78)" d="M 211.672971 202.24612 
L 208.247316 199.371249 
L 212.602606 198.355648 
L 211.672971 202.24612 
z
" style="stroke:#000000;stroke-linecap:round;"/>
   </g>
   <g id="patch_99">
    <path clip-path="url(#p83cb55ad78)" d="M 470.885167 264.05134 
Q 574.279511 314.282117 676.668215 364.024337 
" style="fill:none;stroke:#000000;stroke-linecap:round;"/>
    <path clip-path="url(#p83cb55ad78)" d="M 673.944287 360.477477 
L 676.668215 364.024337 
L 672.196371 364.075364 
L 673.944287 360.477477 
z
" style="stroke:#000000;stroke-linecap:round;"/>
   </g>
   <g id="patch_100">
    <path clip-path="url(#p83cb55ad78)" d="M 421.744535 302.381066 
Q 314.155354 251.588074 207.5772 201.272389 
" style="fill:none;stroke:#000000;stroke-linecap:round;"/>
    <path clip-path="url(#p83cb55ad78)" d="M 210.34053 204.788639 
L 207.5772 201.272389 
L 212.048197 201.171475 
L 210.34053 204.788639 
z
" style="stroke:#000000;stroke-linecap:round;"/>
   </g>
   <g id="patch_101">
    <path clip-path="url(#p83cb55ad78)" d="M 437.988944 308.123611 
Q 557.517534 337.187042 675.959744 365.986319 
" style="fill:none;stroke:#000000;stroke-linecap:round;"/>
    <path clip-path="url(#p83cb55ad78)" d="M 672.545523 363.097877 
L 675.959744 365.986319 
L 671.600458 366.98463 
L 672.545523 363.097877 
z
" style="stroke:#000000;stroke-linecap:round;"/>
   </g>
   <g id="patch_102">
    <path clip-path="url(#p83cb55ad78)" d="M 432.412049 264.197866 
Q 319.736997 231.843564 208.136553 199.797833 
" style="fill:none;stroke:#000000;stroke-linecap:round;"/>
    <path clip-path="url(#p83cb55ad78)" d="M 211.429203 202.824128 
L 208.136553 199.797833 
L 212.533179 198.97949 
L 211.429203 202.824128 
z
" style="stroke:#000000;stroke-linecap:round;"/>
   </g>
   <g id="patch_103">
    <path clip-path="url(#p83cb55ad78)" d="M 448.733928 269.91164 
Q 563.101652 317.443237 676.436955 364.545756 
" style="fill:none;stroke:#000000;stroke-linecap:round;"/>
    <path clip-path="url(#p83cb55ad78)" d="M 673.510812 361.163792 
L 676.436955 364.545756 
L 671.975698 364.857493 
L 673.510812 361.163792 
z
" style="stroke:#000000;stroke-linecap:round;"/>
   </g>
   <g id="patch_104">
    <path clip-path="url(#p83cb55ad78)" d="M 415.766693 288.875265 
Q 311.240318 244.673697 207.74369 200.907584 
" style="fill:none;stroke:#000000;stroke-linecap:round;"/>
    <path clip-path="url(#p83cb55ad78)" d="M 210.648862 204.30758 
L 207.74369 200.907584 
L 212.20679 200.623444 
L 210.648862 204.30758 
z
" style="stroke:#000000;stroke-linecap:round;"/>
   </g>
   <g id="patch_105">
    <path clip-path="url(#p83cb55ad78)" d="M 432.060846 294.665096 
Q 554.60347 330.272728 676.072467 365.568392 
" style="fill:none;stroke:#000000;stroke-linecap:round;"/>
    <path clip-path="url(#p83cb55ad78)" d="M 672.789405 362.531699 
L 676.072467 365.568392 
L 671.673275 366.372826 
L 672.789405 362.531699 
z
" style="stroke:#000000;stroke-linecap:round;"/>
   </g>
   <g id="patch_106">
    <path clip-path="url(#p83cb55ad78)" d="M 304.763583 318.404203 
Q 309.203219 329.092422 313.213977 338.748138 
" style="fill:none;stroke:#000000;stroke-linecap:round;"/>
    <path clip-path="url(#p83cb55ad78)" d="M 313.526576 334.28694 
L 313.213977 338.748138 
L 309.832579 335.82134 
L 313.526576 334.28694 
z
" style="stroke:#000000;stroke-linecap:round;"/>
   </g>
   <g id="patch_107">
    <path clip-path="url(#p83cb55ad78)" d="M 274.516137 355.2722 
Q 291.477712 352.279013 307.338266 349.480122 
" style="fill:none;stroke:#000000;stroke-linecap:round;"/>
    <path clip-path="url(#p83cb55ad78)" d="M 303.051564 348.205688 
L 307.338266 349.480122 
L 303.746698 352.144824 
L 303.051564 348.205688 
z
" style="stroke:#000000;stroke-linecap:round;"/>
   </g>
   <g id="patch_108">
    <path clip-path="url(#p83cb55ad78)" d="M 206.487563 376.900303 
Q 257.541052 363.443965 307.513429 350.272579 
" style="fill:none;stroke:#000000;stroke-linecap:round;"/>
    <path clip-path="url(#p83cb55ad78)" d="M 303.135789 349.358104 
L 307.513429 350.272579 
L 304.155265 353.226007 
L 303.135789 349.358104 
z
" style="stroke:#000000;stroke-linecap:round;"/>
   </g>
   <g id="patch_109">
    <path clip-path="url(#p83cb55ad78)" d="M 385.640705 233.103703 
Q 414.938528 254.902444 443.339365 276.033791 
" style="fill:none;stroke:#000000;stroke-linecap:round;"/>
    <path clip-path="url(#p83cb55ad78)" d="M 441.324077 272.041471 
L 443.339365 276.033791 
L 438.936336 275.250629 
L 441.324077 272.041471 
z
" style="stroke:#000000;stroke-linecap:round;"/>
   </g>
   <g id="patch_110">
    <path clip-path="url(#p83cb55ad78)" d="M 437.903677 212.142606 
Q 443.73423 242.753243 449.355586 272.265593 
" style="fill:none;stroke:#000000;stroke-linecap:round;"/>
    <path clip-path="url(#p83cb55ad78)" d="M 450.571821 267.962016 
L 449.355586 272.265593 
L 446.642466 268.710459 
L 450.571821 267.962016 
z
" style="stroke:#000000;stroke-linecap:round;"/>
   </g>
   <g id="patch_111">
    <path clip-path="url(#p83cb55ad78)" d="M 371.6374 169.52316 
Q 374.645548 194.430594 377.519643 218.228059 
" style="fill:none;stroke:#000000;stroke-linecap:round;"/>
    <path clip-path="url(#p83cb55ad78)" d="M 379.025607 214.017113 
L 377.519643 218.228059 
L 375.054464 214.49672 
L 379.025607 214.017113 
z
" style="stroke:#000000;stroke-linecap:round;"/>
   </g>
   <g id="patch_112">
    <path clip-path="url(#p83cb55ad78)" d="M 377.859078 165.643415 
Q 403.44309 182.28129 428.089831 198.309637 
" style="fill:none;stroke:#000000;stroke-linecap:round;"/>
    <path clip-path="url(#p83cb55ad78)" d="M 425.82691 194.452282 
L 428.089831 198.309637 
L 423.646195 197.805561 
L 425.82691 194.452282 
z
" style="stroke:#000000;stroke-linecap:round;"/>
   </g>
   <g id="patch_113">
    <path clip-path="url(#p83cb55ad78)" d="M 442.838508 182.331964 
Q 414.294707 202.623562 386.662147 222.267364 
" style="fill:none;stroke:#000000;stroke-linecap:round;"/>
    <path clip-path="url(#p83cb55ad78)" d="M 391.081116 221.579818 
L 386.662147 222.267364 
L 388.763492 218.319662 
L 391.081116 221.579818 
z
" style="stroke:#000000;stroke-linecap:round;"/>
   </g>
   <g id="patch_114">
    <path clip-path="url(#p83cb55ad78)" d="M 445.921674 185.002917 
Q 443.091619 190.47504 440.775163 194.954079 
" style="fill:none;stroke:#000000;stroke-linecap:round;"/>
    <path clip-path="url(#p83cb55ad78)" d="M 444.389156 192.31987 
L 440.775163 194.954079 
L 440.836192 190.482359 
L 444.389156 192.31987 
z
" style="stroke:#000000;stroke-linecap:round;"/>
   </g>
   <g id="PathCollection_1">
    <defs>
     <path d="M 0 8.660254 
C 2.296726 8.660254 4.499694 7.747755 6.123724 6.123724 
C 7.747755 4.499694 8.660254 2.296726 8.660254 -0 
C 8.660254 -2.296726 7.747755 -4.499694 6.123724 -6.123724 
C 4.499694 -7.747755 2.296726 -8.660254 0 -8.660254 
C -2.296726 -8.660254 -4.499694 -7.747755 -6.123724 -6.123724 
C -7.747755 -4.499694 -8.660254 -2.296726 -8.660254 0 
C -8.660254 2.296726 -7.747755 4.499694 -6.123724 6.123724 
C -4.499694 7.747755 -2.296726 8.660254 0 8.660254 
z
" id="C0_0_466e8e110d"/>
    </defs>
    <g clip-path="url(#p83cb55ad78)">
     <use style="fill:#ff0000;stroke:#ff0000;" x="465.552602" xlink:href="#C0_0_466e8e110d" y="365.290687"/>
    </g>
    <g clip-path="url(#p83cb55ad78)">
     <use style="fill:#ff0000;stroke:#ff0000;" x="214.886797" xlink:href="#C0_0_466e8e110d" y="417.325003"/>
    </g>
    <g clip-path="url(#p83cb55ad78)">
     <use style="fill:#ff0000;stroke:#ff0000;" x="393.971044" xlink:href="#C0_0_466e8e110d" y="350.420272"/>
    </g>
    <g clip-path="url(#p83cb55ad78)">
     <use style="fill:#ff0000;stroke:#ff0000;" x="456.789014" xlink:href="#C0_0_466e8e110d" y="284.729874"/>
    </g>
    <g clip-path="url(#p83cb55ad78)">
     <use style="fill:#ff0000;stroke:#ff0000;" x="450.841621" xlink:href="#C0_0_466e8e110d" y="286.224216"/>
    </g>
    <g clip-path="url(#p83cb55ad78)">
     <use style="fill:#ff0000;stroke:#ff0000;" x="451.185259" xlink:href="#C0_0_466e8e110d" y="281.871446"/>
    </g>
    <g clip-path="url(#p83cb55ad78)">
     <use style="fill:#008000;stroke:#008000;" x="569.415528" xlink:href="#C0_0_466e8e110d" y="437.198093"/>
    </g>
    <g clip-path="url(#p83cb55ad78)">
     <use style="fill:#ff0000;stroke:#ff0000;" x="316.966065" xlink:href="#C0_0_466e8e110d" y="347.781117"/>
    </g>
    <g clip-path="url(#p83cb55ad78)">
     <use style="fill:#ff0000;stroke:#ff0000;" x="698.908308" xlink:href="#C0_0_466e8e110d" y="302.942643"/>
    </g>
    <g clip-path="url(#p83cb55ad78)">
     <use style="fill:#ff0000;stroke:#ff0000;" x="351.224624" xlink:href="#C0_0_466e8e110d" y="474.152727"/>
    </g>
    <g clip-path="url(#p83cb55ad78)">
     <use style="fill:#ff0000;stroke:#ff0000;" x="451.879569" xlink:href="#C0_0_466e8e110d" y="473.752379"/>
    </g>
    <g clip-path="url(#p83cb55ad78)">
     <use style="fill:#ff0000;stroke:#ff0000;" x="468.394256" xlink:href="#C0_0_466e8e110d" y="111.166604"/>
    </g>
    <g clip-path="url(#p83cb55ad78)">
     <use style="fill:#ff0000;stroke:#ff0000;" x="368.92035" xlink:href="#C0_0_466e8e110d" y="111.81094"/>
    </g>
    <g clip-path="url(#p83cb55ad78)">
     <use style="fill:#ff0000;stroke:#ff0000;" x="685.151182" xlink:href="#C0_0_466e8e110d" y="197.925184"/>
    </g>
    <g clip-path="url(#p83cb55ad78)">
     <use style="fill:#ff0000;stroke:#ff0000;" x="166.105785" xlink:href="#C0_0_466e8e110d" y="340.907289"/>
    </g>
    <g clip-path="url(#p83cb55ad78)">
     <use style="fill:#ff0000;stroke:#ff0000;" x="507.907761" xlink:href="#C0_0_466e8e110d" y="278.706986"/>
    </g>
    <g clip-path="url(#p83cb55ad78)">
     <use style="fill:#ff0000;stroke:#ff0000;" x="187.534565" xlink:href="#C0_0_466e8e110d" y="221.192403"/>
    </g>
    <g clip-path="url(#p83cb55ad78)">
     <use style="fill:#ff0000;stroke:#ff0000;" x="698.111848" xlink:href="#C0_0_466e8e110d" y="232.377182"/>
    </g>
    <g clip-path="url(#p83cb55ad78)">
     <use style="fill:#ff0000;stroke:#ff0000;" x="418.980174" xlink:href="#C0_0_466e8e110d" y="107.607273"/>
    </g>
    <g clip-path="url(#p83cb55ad78)">
     <use style="fill:#ff0000;stroke:#ff0000;" x="267.740411" xlink:href="#C0_0_466e8e110d" y="434.874731"/>
    </g>
    <g clip-path="url(#p83cb55ad78)">
     <use style="fill:#ff0000;stroke:#ff0000;" x="576.613429" xlink:href="#C0_0_466e8e110d" y="125.771292"/>
    </g>
    <g clip-path="url(#p83cb55ad78)">
     <use style="fill:#ff0000;stroke:#ff0000;" x="610.880216" xlink:href="#C0_0_466e8e110d" y="153.706896"/>
    </g>
    <g clip-path="url(#p83cb55ad78)">
     <use style="fill:#ff0000;stroke:#ff0000;" x="182.16413" xlink:href="#C0_0_466e8e110d" y="283.118657"/>
    </g>
    <g clip-path="url(#p83cb55ad78)">
     <use style="fill:#ff0000;stroke:#ff0000;" x="719.494215" xlink:href="#C0_0_466e8e110d" y="265.684753"/>
    </g>
    <g clip-path="url(#p83cb55ad78)">
     <use style="fill:#ff0000;stroke:#ff0000;" x="347.003411" xlink:href="#C0_0_466e8e110d" y="196.602777"/>
    </g>
    <g clip-path="url(#p83cb55ad78)">
     <use style="fill:#ff0000;stroke:#ff0000;" x="482.59109" xlink:href="#C0_0_466e8e110d" y="171.719489"/>
    </g>
    <g clip-path="url(#p83cb55ad78)">
     <use style="fill:#ff0000;stroke:#ff0000;" x="477.185296" xlink:href="#C0_0_466e8e110d" y="470.395383"/>
    </g>
    <g clip-path="url(#p83cb55ad78)">
     <use style="fill:#ff0000;stroke:#ff0000;" x="404.381564" xlink:href="#C0_0_466e8e110d" y="433.959644"/>
    </g>
    <g clip-path="url(#p83cb55ad78)">
     <use style="fill:#ff0000;stroke:#ff0000;" x="505.619963" xlink:href="#C0_0_466e8e110d" y="361.919093"/>
    </g>
    <g clip-path="url(#p83cb55ad78)">
     <use style="fill:#008000;stroke:#008000;" x="187.69106" xlink:href="#C0_0_466e8e110d" y="228.301778"/>
    </g>
    <g clip-path="url(#p83cb55ad78)">
     <use style="fill:#ff0000;stroke:#ff0000;" x="269.328778" xlink:href="#C0_0_466e8e110d" y="149.282469"/>
    </g>
    <g clip-path="url(#p83cb55ad78)">
     <use style="fill:#ff0000;stroke:#ff0000;" x="660.112548" xlink:href="#C0_0_466e8e110d" y="408.333916"/>
    </g>
    <g clip-path="url(#p83cb55ad78)">
     <use style="fill:#ff0000;stroke:#ff0000;" x="383.901584" xlink:href="#C0_0_466e8e110d" y="272.893079"/>
    </g>
    <g clip-path="url(#p83cb55ad78)">
     <use style="fill:#ff0000;stroke:#ff0000;" x="496.025227" xlink:href="#C0_0_466e8e110d" y="305.863167"/>
    </g>
    <g clip-path="url(#p83cb55ad78)">
     <use style="fill:#ff0000;stroke:#ff0000;" x="463.098185" xlink:href="#C0_0_466e8e110d" y="260.268288"/>
    </g>
    <g clip-path="url(#p83cb55ad78)">
     <use style="fill:#ff0000;stroke:#ff0000;" x="429.57464" xlink:href="#C0_0_466e8e110d" y="306.077669"/>
    </g>
    <g clip-path="url(#p83cb55ad78)">
     <use style="fill:#ff0000;stroke:#ff0000;" x="440.739018" xlink:href="#C0_0_466e8e110d" y="266.58893"/>
    </g>
    <g clip-path="url(#p83cb55ad78)">
     <use style="fill:#ff0000;stroke:#ff0000;" x="423.742295" xlink:href="#C0_0_466e8e110d" y="292.247946"/>
    </g>
    <g clip-path="url(#p83cb55ad78)">
     <use style="fill:#ff0000;stroke:#ff0000;" x="301.441491" xlink:href="#C0_0_466e8e110d" y="310.40642"/>
    </g>
    <g clip-path="url(#p83cb55ad78)">
     <use style="fill:#ff0000;stroke:#ff0000;" x="265.987569" xlink:href="#C0_0_466e8e110d" y="356.777225"/>
    </g>
    <g clip-path="url(#p83cb55ad78)">
     <use style="fill:#ff0000;stroke:#ff0000;" x="198.112539" xlink:href="#C0_0_466e8e110d" y="379.107736"/>
    </g>
    <g clip-path="url(#p83cb55ad78)">
     <use style="fill:#ff0000;stroke:#ff0000;" x="715.619676" xlink:href="#C0_0_466e8e110d" y="328.385094"/>
    </g>
    <g clip-path="url(#p83cb55ad78)">
     <use style="fill:#ff0000;stroke:#ff0000;" x="649.010759" xlink:href="#C0_0_466e8e110d" y="172.417945"/>
    </g>
    <g clip-path="url(#p83cb55ad78)">
     <use style="fill:#ff0000;stroke:#ff0000;" x="226.012813" xlink:href="#C0_0_466e8e110d" y="398.832634"/>
    </g>
    <g clip-path="url(#p83cb55ad78)">
     <use style="fill:#ff0000;stroke:#ff0000;" x="535.103564" xlink:href="#C0_0_466e8e110d" y="127.271948"/>
    </g>
    <g clip-path="url(#p83cb55ad78)">
     <use style="fill:#ff0000;stroke:#ff0000;" x="378.691792" xlink:href="#C0_0_466e8e110d" y="227.933436"/>
    </g>
    <g clip-path="url(#p83cb55ad78)">
     <use style="fill:#ff0000;stroke:#ff0000;" x="436.283839" xlink:href="#C0_0_466e8e110d" y="203.63839"/>
    </g>
    <g clip-path="url(#p83cb55ad78)">
     <use style="fill:#ff0000;stroke:#ff0000;" x="370.59858" xlink:href="#C0_0_466e8e110d" y="160.921745"/>
    </g>
    <g clip-path="url(#p83cb55ad78)">
     <use style="fill:#ff0000;stroke:#ff0000;" x="449.898797" xlink:href="#C0_0_466e8e110d" y="177.312852"/>
    </g>
    <g clip-path="url(#p83cb55ad78)">
     <use style="fill:#ff0000;stroke:#ff0000;" x="198.736246" xlink:href="#C0_0_466e8e110d" y="197.098563"/>
    </g>
    <g clip-path="url(#p83cb55ad78)">
     <use style="fill:#ff0000;stroke:#ff0000;" x="685.463179" xlink:href="#C0_0_466e8e110d" y="368.297084"/>
    </g>
    <g clip-path="url(#p83cb55ad78)">
     <use style="fill:#008000;stroke:#008000;" x="228.04354" xlink:href="#C0_0_466e8e110d" y="170.679534"/>
    </g>
    <g clip-path="url(#p83cb55ad78)">
     <use style="fill:#ff0000;stroke:#ff0000;" x="621.458335" xlink:href="#C0_0_466e8e110d" y="444.073234"/>
    </g>
   </g>
   <g id="text_1">
    <g clip-path="url(#p83cb55ad78)">
     <!-- RBX1 -->
     <g transform="translate(449.339477 368.601937)scale(0.12 -0.12)">
      <defs>
       <path d="M 44.390625 34.1875 
Q 47.5625 33.109375 50.5625 29.59375 
Q 53.5625 26.078125 56.59375 19.921875 
L 66.609375 0 
L 56 0 
L 46.6875 18.703125 
Q 43.0625 26.03125 39.671875 28.421875 
Q 36.28125 30.8125 30.421875 30.8125 
L 19.671875 30.8125 
L 19.671875 0 
L 9.8125 0 
L 9.8125 72.90625 
L 32.078125 72.90625 
Q 44.578125 72.90625 50.734375 67.671875 
Q 56.890625 62.453125 56.890625 51.90625 
Q 56.890625 45.015625 53.6875 40.46875 
Q 50.484375 35.9375 44.390625 34.1875 
z
M 19.671875 64.796875 
L 19.671875 38.921875 
L 32.078125 38.921875 
Q 39.203125 38.921875 42.84375 42.21875 
Q 46.484375 45.515625 46.484375 51.90625 
Q 46.484375 58.296875 42.84375 61.546875 
Q 39.203125 64.796875 32.078125 64.796875 
z
" id="DejaVuSans-82"/>
       <path d="M 19.671875 34.8125 
L 19.671875 8.109375 
L 35.5 8.109375 
Q 43.453125 8.109375 47.28125 11.40625 
Q 51.125 14.703125 51.125 21.484375 
Q 51.125 28.328125 47.28125 31.5625 
Q 43.453125 34.8125 35.5 34.8125 
z
M 19.671875 64.796875 
L 19.671875 42.828125 
L 34.28125 42.828125 
Q 41.5 42.828125 45.03125 45.53125 
Q 48.578125 48.25 48.578125 53.8125 
Q 48.578125 59.328125 45.03125 62.0625 
Q 41.5 64.796875 34.28125 64.796875 
z
M 9.8125 72.90625 
L 35.015625 72.90625 
Q 46.296875 72.90625 52.390625 68.21875 
Q 58.5 63.53125 58.5 54.890625 
Q 58.5 48.1875 55.375 44.234375 
Q 52.25 40.28125 46.1875 39.3125 
Q 53.46875 37.75 57.5 32.78125 
Q 61.53125 27.828125 61.53125 20.40625 
Q 61.53125 10.640625 54.890625 5.3125 
Q 48.25 0 35.984375 0 
L 9.8125 0 
z
" id="DejaVuSans-66"/>
       <path d="M 6.296875 72.90625 
L 16.890625 72.90625 
L 35.015625 45.796875 
L 53.21875 72.90625 
L 63.8125 72.90625 
L 40.375 37.890625 
L 65.375 0 
L 54.78125 0 
L 34.28125 31 
L 13.625 0 
L 2.984375 0 
L 29 38.921875 
z
" id="DejaVuSans-88"/>
       <path d="M 12.40625 8.296875 
L 28.515625 8.296875 
L 28.515625 63.921875 
L 10.984375 60.40625 
L 10.984375 69.390625 
L 28.421875 72.90625 
L 38.28125 72.90625 
L 38.28125 8.296875 
L 54.390625 8.296875 
L 54.390625 0 
L 12.40625 0 
z
" id="DejaVuSans-49"/>
      </defs>
      <use xlink:href="#DejaVuSans-82"/>
      <use x="69.482422" xlink:href="#DejaVuSans-66"/>
      <use x="138.085938" xlink:href="#DejaVuSans-88"/>
      <use x="206.591797" xlink:href="#DejaVuSans-49"/>
     </g>
    </g>
   </g>
   <g id="text_2">
    <g clip-path="url(#p83cb55ad78)">
     <!-- VEGFA -->
     <g transform="translate(195.334297 420.636253)scale(0.12 -0.12)">
      <defs>
       <path d="M 28.609375 0 
L 0.78125 72.90625 
L 11.078125 72.90625 
L 34.1875 11.53125 
L 57.328125 72.90625 
L 67.578125 72.90625 
L 39.796875 0 
z
" id="DejaVuSans-86"/>
       <path d="M 9.8125 72.90625 
L 55.90625 72.90625 
L 55.90625 64.59375 
L 19.671875 64.59375 
L 19.671875 43.015625 
L 54.390625 43.015625 
L 54.390625 34.71875 
L 19.671875 34.71875 
L 19.671875 8.296875 
L 56.78125 8.296875 
L 56.78125 0 
L 9.8125 0 
z
" id="DejaVuSans-69"/>
       <path d="M 59.515625 10.40625 
L 59.515625 29.984375 
L 43.40625 29.984375 
L 43.40625 38.09375 
L 69.28125 38.09375 
L 69.28125 6.78125 
Q 63.578125 2.734375 56.6875 0.65625 
Q 49.8125 -1.421875 42 -1.421875 
Q 24.90625 -1.421875 15.25 8.5625 
Q 5.609375 18.5625 5.609375 36.375 
Q 5.609375 54.25 15.25 64.234375 
Q 24.90625 74.21875 42 74.21875 
Q 49.125 74.21875 55.546875 72.453125 
Q 61.96875 70.703125 67.390625 67.28125 
L 67.390625 56.78125 
Q 61.921875 61.421875 55.765625 63.765625 
Q 49.609375 66.109375 42.828125 66.109375 
Q 29.4375 66.109375 22.71875 58.640625 
Q 16.015625 51.171875 16.015625 36.375 
Q 16.015625 21.625 22.71875 14.15625 
Q 29.4375 6.6875 42.828125 6.6875 
Q 48.046875 6.6875 52.140625 7.59375 
Q 56.25 8.5 59.515625 10.40625 
z
" id="DejaVuSans-71"/>
       <path d="M 9.8125 72.90625 
L 51.703125 72.90625 
L 51.703125 64.59375 
L 19.671875 64.59375 
L 19.671875 43.109375 
L 48.578125 43.109375 
L 48.578125 34.8125 
L 19.671875 34.8125 
L 19.671875 0 
L 9.8125 0 
z
" id="DejaVuSans-70"/>
       <path d="M 34.1875 63.1875 
L 20.796875 26.90625 
L 47.609375 26.90625 
z
M 28.609375 72.90625 
L 39.796875 72.90625 
L 67.578125 0 
L 57.328125 0 
L 50.6875 18.703125 
L 17.828125 18.703125 
L 11.1875 0 
L 0.78125 0 
z
" id="DejaVuSans-65"/>
      </defs>
      <use xlink:href="#DejaVuSans-86"/>
      <use x="68.408203" xlink:href="#DejaVuSans-69"/>
      <use x="131.591797" xlink:href="#DejaVuSans-71"/>
      <use x="209.082031" xlink:href="#DejaVuSans-70"/>
      <use x="257.476562" xlink:href="#DejaVuSans-65"/>
     </g>
    </g>
   </g>
   <g id="text_3">
    <g clip-path="url(#p83cb55ad78)">
     <!-- VHL -->
     <g transform="translate(382.011357 353.731522)scale(0.12 -0.12)">
      <defs>
       <path d="M 9.8125 72.90625 
L 19.671875 72.90625 
L 19.671875 43.015625 
L 55.515625 43.015625 
L 55.515625 72.90625 
L 65.375 72.90625 
L 65.375 0 
L 55.515625 0 
L 55.515625 34.71875 
L 19.671875 34.71875 
L 19.671875 0 
L 9.8125 0 
z
" id="DejaVuSans-72"/>
       <path d="M 9.8125 72.90625 
L 19.671875 72.90625 
L 19.671875 8.296875 
L 55.171875 8.296875 
L 55.171875 0 
L 9.8125 0 
z
" id="DejaVuSans-76"/>
      </defs>
      <use xlink:href="#DejaVuSans-86"/>
      <use x="68.408203" xlink:href="#DejaVuSans-72"/>
      <use x="143.603516" xlink:href="#DejaVuSans-76"/>
     </g>
    </g>
   </g>
   <g id="text_4">
    <g clip-path="url(#p83cb55ad78)">
     <!-- ARNT -->
     <g transform="translate(440.362139 288.041124)scale(0.12 -0.12)">
      <defs>
       <path d="M 9.8125 72.90625 
L 23.09375 72.90625 
L 55.421875 11.921875 
L 55.421875 72.90625 
L 64.984375 72.90625 
L 64.984375 0 
L 51.703125 0 
L 19.390625 60.984375 
L 19.390625 0 
L 9.8125 0 
z
" id="DejaVuSans-78"/>
       <path d="M -0.296875 72.90625 
L 61.375 72.90625 
L 61.375 64.59375 
L 35.5 64.59375 
L 35.5 0 
L 25.59375 0 
L 25.59375 64.59375 
L -0.296875 64.59375 
z
" id="DejaVuSans-84"/>
      </defs>
      <use xlink:href="#DejaVuSans-65"/>
      <use x="68.408203" xlink:href="#DejaVuSans-82"/>
      <use x="137.890625" xlink:href="#DejaVuSans-78"/>
      <use x="212.695312" xlink:href="#DejaVuSans-84"/>
     </g>
    </g>
   </g>
   <g id="text_5">
    <g clip-path="url(#p83cb55ad78)">
     <!-- EP300 -->
     <g transform="translate(431.980058 289.535466)scale(0.12 -0.12)">
      <defs>
       <path d="M 19.671875 64.796875 
L 19.671875 37.40625 
L 32.078125 37.40625 
Q 38.96875 37.40625 42.71875 40.96875 
Q 46.484375 44.53125 46.484375 51.125 
Q 46.484375 57.671875 42.71875 61.234375 
Q 38.96875 64.796875 32.078125 64.796875 
z
M 9.8125 72.90625 
L 32.078125 72.90625 
Q 44.34375 72.90625 50.609375 67.359375 
Q 56.890625 61.8125 56.890625 51.125 
Q 56.890625 40.328125 50.609375 34.8125 
Q 44.34375 29.296875 32.078125 29.296875 
L 19.671875 29.296875 
L 19.671875 0 
L 9.8125 0 
z
" id="DejaVuSans-80"/>
       <path d="M 40.578125 39.3125 
Q 47.65625 37.796875 51.625 33 
Q 55.609375 28.21875 55.609375 21.1875 
Q 55.609375 10.40625 48.1875 4.484375 
Q 40.765625 -1.421875 27.09375 -1.421875 
Q 22.515625 -1.421875 17.65625 -0.515625 
Q 12.796875 0.390625 7.625 2.203125 
L 7.625 11.71875 
Q 11.71875 9.328125 16.59375 8.109375 
Q 21.484375 6.890625 26.8125 6.890625 
Q 36.078125 6.890625 40.9375 10.546875 
Q 45.796875 14.203125 45.796875 21.1875 
Q 45.796875 27.640625 41.28125 31.265625 
Q 36.765625 34.90625 28.71875 34.90625 
L 20.21875 34.90625 
L 20.21875 43.015625 
L 29.109375 43.015625 
Q 36.375 43.015625 40.234375 45.921875 
Q 44.09375 48.828125 44.09375 54.296875 
Q 44.09375 59.90625 40.109375 62.90625 
Q 36.140625 65.921875 28.71875 65.921875 
Q 24.65625 65.921875 20.015625 65.03125 
Q 15.375 64.15625 9.8125 62.3125 
L 9.8125 71.09375 
Q 15.4375 72.65625 20.34375 73.4375 
Q 25.25 74.21875 29.59375 74.21875 
Q 40.828125 74.21875 47.359375 69.109375 
Q 53.90625 64.015625 53.90625 55.328125 
Q 53.90625 49.265625 50.4375 45.09375 
Q 46.96875 40.921875 40.578125 39.3125 
z
" id="DejaVuSans-51"/>
       <path d="M 31.78125 66.40625 
Q 24.171875 66.40625 20.328125 58.90625 
Q 16.5 51.421875 16.5 36.375 
Q 16.5 21.390625 20.328125 13.890625 
Q 24.171875 6.390625 31.78125 6.390625 
Q 39.453125 6.390625 43.28125 13.890625 
Q 47.125 21.390625 47.125 36.375 
Q 47.125 51.421875 43.28125 58.90625 
Q 39.453125 66.40625 31.78125 66.40625 
z
M 31.78125 74.21875 
Q 44.046875 74.21875 50.515625 64.515625 
Q 56.984375 54.828125 56.984375 36.375 
Q 56.984375 17.96875 50.515625 8.265625 
Q 44.046875 -1.421875 31.78125 -1.421875 
Q 19.53125 -1.421875 13.0625 8.265625 
Q 6.59375 17.96875 6.59375 36.375 
Q 6.59375 54.828125 13.0625 64.515625 
Q 19.53125 74.21875 31.78125 74.21875 
z
" id="DejaVuSans-48"/>
      </defs>
      <use xlink:href="#DejaVuSans-69"/>
      <use x="63.183594" xlink:href="#DejaVuSans-80"/>
      <use x="123.486328" xlink:href="#DejaVuSans-51"/>
      <use x="187.109375" xlink:href="#DejaVuSans-48"/>
      <use x="250.732422" xlink:href="#DejaVuSans-48"/>
     </g>
    </g>
   </g>
   <g id="text_6">
    <g clip-path="url(#p83cb55ad78)">
     <!-- HIF1A -->
     <g transform="translate(433.530259 285.182696)scale(0.12 -0.12)">
      <defs>
       <path d="M 9.8125 72.90625 
L 19.671875 72.90625 
L 19.671875 0 
L 9.8125 0 
z
" id="DejaVuSans-73"/>
      </defs>
      <use xlink:href="#DejaVuSans-72"/>
      <use x="75.195312" xlink:href="#DejaVuSans-73"/>
      <use x="104.6875" xlink:href="#DejaVuSans-70"/>
      <use x="162.207031" xlink:href="#DejaVuSans-49"/>
      <use x="225.830078" xlink:href="#DejaVuSans-65"/>
     </g>
    </g>
   </g>
   <g id="text_7">
    <g clip-path="url(#p83cb55ad78)">
     <!-- SLC2A1 -->
     <g transform="translate(546.334278 440.509343)scale(0.12 -0.12)">
      <defs>
       <path d="M 53.515625 70.515625 
L 53.515625 60.890625 
Q 47.90625 63.578125 42.921875 64.890625 
Q 37.9375 66.21875 33.296875 66.21875 
Q 25.25 66.21875 20.875 63.09375 
Q 16.5 59.96875 16.5 54.203125 
Q 16.5 49.359375 19.40625 46.890625 
Q 22.3125 44.4375 30.421875 42.921875 
L 36.375 41.703125 
Q 47.40625 39.59375 52.65625 34.296875 
Q 57.90625 29 57.90625 20.125 
Q 57.90625 9.515625 50.796875 4.046875 
Q 43.703125 -1.421875 29.984375 -1.421875 
Q 24.8125 -1.421875 18.96875 -0.25 
Q 13.140625 0.921875 6.890625 3.21875 
L 6.890625 13.375 
Q 12.890625 10.015625 18.65625 8.296875 
Q 24.421875 6.59375 29.984375 6.59375 
Q 38.421875 6.59375 43.015625 9.90625 
Q 47.609375 13.234375 47.609375 19.390625 
Q 47.609375 24.75 44.3125 27.78125 
Q 41.015625 30.8125 33.5 32.328125 
L 27.484375 33.5 
Q 16.453125 35.6875 11.515625 40.375 
Q 6.59375 45.0625 6.59375 53.421875 
Q 6.59375 63.09375 13.40625 68.65625 
Q 20.21875 74.21875 32.171875 74.21875 
Q 37.3125 74.21875 42.625 73.28125 
Q 47.953125 72.359375 53.515625 70.515625 
z
" id="DejaVuSans-83"/>
       <path d="M 64.40625 67.28125 
L 64.40625 56.890625 
Q 59.421875 61.53125 53.78125 63.8125 
Q 48.140625 66.109375 41.796875 66.109375 
Q 29.296875 66.109375 22.65625 58.46875 
Q 16.015625 50.828125 16.015625 36.375 
Q 16.015625 21.96875 22.65625 14.328125 
Q 29.296875 6.6875 41.796875 6.6875 
Q 48.140625 6.6875 53.78125 8.984375 
Q 59.421875 11.28125 64.40625 15.921875 
L 64.40625 5.609375 
Q 59.234375 2.09375 53.4375 0.328125 
Q 47.65625 -1.421875 41.21875 -1.421875 
Q 24.65625 -1.421875 15.125 8.703125 
Q 5.609375 18.84375 5.609375 36.375 
Q 5.609375 53.953125 15.125 64.078125 
Q 24.65625 74.21875 41.21875 74.21875 
Q 47.75 74.21875 53.53125 72.484375 
Q 59.328125 70.75 64.40625 67.28125 
z
" id="DejaVuSans-67"/>
       <path d="M 19.1875 8.296875 
L 53.609375 8.296875 
L 53.609375 0 
L 7.328125 0 
L 7.328125 8.296875 
Q 12.9375 14.109375 22.625 23.890625 
Q 32.328125 33.6875 34.8125 36.53125 
Q 39.546875 41.84375 41.421875 45.53125 
Q 43.3125 49.21875 43.3125 52.78125 
Q 43.3125 58.59375 39.234375 62.25 
Q 35.15625 65.921875 28.609375 65.921875 
Q 23.96875 65.921875 18.8125 64.3125 
Q 13.671875 62.703125 7.8125 59.421875 
L 7.8125 69.390625 
Q 13.765625 71.78125 18.9375 73 
Q 24.125 74.21875 28.421875 74.21875 
Q 39.75 74.21875 46.484375 68.546875 
Q 53.21875 62.890625 53.21875 53.421875 
Q 53.21875 48.921875 51.53125 44.890625 
Q 49.859375 40.875 45.40625 35.40625 
Q 44.1875 33.984375 37.640625 27.21875 
Q 31.109375 20.453125 19.1875 8.296875 
z
" id="DejaVuSans-50"/>
      </defs>
      <use xlink:href="#DejaVuSans-83"/>
      <use x="63.476562" xlink:href="#DejaVuSans-76"/>
      <use x="119.189453" xlink:href="#DejaVuSans-67"/>
      <use x="189.013672" xlink:href="#DejaVuSans-50"/>
      <use x="252.636719" xlink:href="#DejaVuSans-65"/>
      <use x="321.044922" xlink:href="#DejaVuSans-49"/>
     </g>
    </g>
   </g>
   <g id="text_8">
    <g clip-path="url(#p83cb55ad78)">
     <!-- MTOR -->
     <g transform="translate(299.232315 351.092367)scale(0.12 -0.12)">
      <defs>
       <path d="M 9.8125 72.90625 
L 24.515625 72.90625 
L 43.109375 23.296875 
L 61.8125 72.90625 
L 76.515625 72.90625 
L 76.515625 0 
L 66.890625 0 
L 66.890625 64.015625 
L 48.09375 14.015625 
L 38.1875 14.015625 
L 19.390625 64.015625 
L 19.390625 0 
L 9.8125 0 
z
" id="DejaVuSans-77"/>
       <path d="M 39.40625 66.21875 
Q 28.65625 66.21875 22.328125 58.203125 
Q 16.015625 50.203125 16.015625 36.375 
Q 16.015625 22.609375 22.328125 14.59375 
Q 28.65625 6.59375 39.40625 6.59375 
Q 50.140625 6.59375 56.421875 14.59375 
Q 62.703125 22.609375 62.703125 36.375 
Q 62.703125 50.203125 56.421875 58.203125 
Q 50.140625 66.21875 39.40625 66.21875 
z
M 39.40625 74.21875 
Q 54.734375 74.21875 63.90625 63.9375 
Q 73.09375 53.65625 73.09375 36.375 
Q 73.09375 19.140625 63.90625 8.859375 
Q 54.734375 -1.421875 39.40625 -1.421875 
Q 24.03125 -1.421875 14.8125 8.828125 
Q 5.609375 19.09375 5.609375 36.375 
Q 5.609375 53.65625 14.8125 63.9375 
Q 24.03125 74.21875 39.40625 74.21875 
z
" id="DejaVuSans-79"/>
      </defs>
      <use xlink:href="#DejaVuSans-77"/>
      <use x="86.279297" xlink:href="#DejaVuSans-84"/>
      <use x="147.363281" xlink:href="#DejaVuSans-79"/>
      <use x="226.074219" xlink:href="#DejaVuSans-82"/>
     </g>
    </g>
   </g>
   <g id="text_9">
    <g clip-path="url(#p83cb55ad78)">
     <!-- PDK1 -->
     <g transform="translate(682.918308 306.253893)scale(0.12 -0.12)">
      <defs>
       <path d="M 19.671875 64.796875 
L 19.671875 8.109375 
L 31.59375 8.109375 
Q 46.6875 8.109375 53.6875 14.9375 
Q 60.6875 21.78125 60.6875 36.53125 
Q 60.6875 51.171875 53.6875 57.984375 
Q 46.6875 64.796875 31.59375 64.796875 
z
M 9.8125 72.90625 
L 30.078125 72.90625 
Q 51.265625 72.90625 61.171875 64.09375 
Q 71.09375 55.28125 71.09375 36.53125 
Q 71.09375 17.671875 61.125 8.828125 
Q 51.171875 0 30.078125 0 
L 9.8125 0 
z
" id="DejaVuSans-68"/>
       <path d="M 9.8125 72.90625 
L 19.671875 72.90625 
L 19.671875 42.09375 
L 52.390625 72.90625 
L 65.09375 72.90625 
L 28.90625 38.921875 
L 67.671875 0 
L 54.6875 0 
L 19.671875 35.109375 
L 19.671875 0 
L 9.8125 0 
z
" id="DejaVuSans-75"/>
      </defs>
      <use xlink:href="#DejaVuSans-80"/>
      <use x="60.302734" xlink:href="#DejaVuSans-68"/>
      <use x="137.304688" xlink:href="#DejaVuSans-75"/>
      <use x="202.880859" xlink:href="#DejaVuSans-49"/>
     </g>
    </g>
   </g>
   <g id="text_10">
    <g clip-path="url(#p83cb55ad78)">
     <!-- GAPDH -->
     <g transform="translate(329.721187 477.463977)scale(0.12 -0.12)">
      <use xlink:href="#DejaVuSans-71"/>
      <use x="77.490234" xlink:href="#DejaVuSans-65"/>
      <use x="145.898438" xlink:href="#DejaVuSans-80"/>
      <use x="206.201172" xlink:href="#DejaVuSans-68"/>
      <use x="283.203125" xlink:href="#DejaVuSans-72"/>
     </g>
    </g>
   </g>
   <g id="text_11">
    <g clip-path="url(#p83cb55ad78)">
     <!-- PFKFB3 -->
     <g transform="translate(429.491132 477.063629)scale(0.12 -0.12)">
      <use xlink:href="#DejaVuSans-80"/>
      <use x="60.302734" xlink:href="#DejaVuSans-70"/>
      <use x="117.822266" xlink:href="#DejaVuSans-75"/>
      <use x="183.398438" xlink:href="#DejaVuSans-70"/>
      <use x="240.917969" xlink:href="#DejaVuSans-66"/>
      <use x="309.521484" xlink:href="#DejaVuSans-51"/>
     </g>
    </g>
   </g>
   <g id="text_12">
    <g clip-path="url(#p83cb55ad78)">
     <!-- EPO -->
     <g transform="translate(456.262068 114.477854)scale(0.12 -0.12)">
      <use xlink:href="#DejaVuSans-69"/>
      <use x="63.183594" xlink:href="#DejaVuSans-80"/>
      <use x="123.486328" xlink:href="#DejaVuSans-79"/>
     </g>
    </g>
   </g>
   <g id="text_13">
    <g clip-path="url(#p83cb55ad78)">
     <!-- TF -->
     <g transform="translate(361.804725 115.12219)scale(0.12 -0.12)">
      <use xlink:href="#DejaVuSans-84"/>
      <use x="61.083984" xlink:href="#DejaVuSans-70"/>
     </g>
    </g>
   </g>
   <g id="text_14">
    <g clip-path="url(#p83cb55ad78)">
     <!-- TFRC -->
     <g transform="translate(669.976807 201.236434)scale(0.12 -0.12)">
      <use xlink:href="#DejaVuSans-84"/>
      <use x="61.083984" xlink:href="#DejaVuSans-70"/>
      <use x="118.603516" xlink:href="#DejaVuSans-82"/>
      <use x="183.085938" xlink:href="#DejaVuSans-67"/>
     </g>
    </g>
   </g>
   <g id="text_15">
    <g clip-path="url(#p83cb55ad78)">
     <!-- FLT1 -->
     <g transform="translate(152.654535 344.218539)scale(0.12 -0.12)">
      <use xlink:href="#DejaVuSans-70"/>
      <use x="57.519531" xlink:href="#DejaVuSans-76"/>
      <use x="99.482422" xlink:href="#DejaVuSans-84"/>
      <use x="160.566406" xlink:href="#DejaVuSans-49"/>
     </g>
    </g>
   </g>
   <g id="text_16">
    <g clip-path="url(#p83cb55ad78)">
     <!-- EGF -->
     <g transform="translate(496.016511 282.018236)scale(0.12 -0.12)">
      <use xlink:href="#DejaVuSans-69"/>
      <use x="63.183594" xlink:href="#DejaVuSans-71"/>
      <use x="140.673828" xlink:href="#DejaVuSans-70"/>
     </g>
    </g>
   </g>
   <g id="text_17">
    <g clip-path="url(#p83cb55ad78)">
     <!-- SERPINE1 -->
     <g transform="translate(158.279878 224.503653)scale(0.12 -0.12)">
      <use xlink:href="#DejaVuSans-83"/>
      <use x="63.476562" xlink:href="#DejaVuSans-69"/>
      <use x="126.660156" xlink:href="#DejaVuSans-82"/>
      <use x="196.142578" xlink:href="#DejaVuSans-80"/>
      <use x="256.445312" xlink:href="#DejaVuSans-73"/>
      <use x="285.9375" xlink:href="#DejaVuSans-78"/>
      <use x="360.742188" xlink:href="#DejaVuSans-69"/>
      <use x="423.925781" xlink:href="#DejaVuSans-49"/>
     </g>
    </g>
   </g>
   <g id="text_18">
    <g clip-path="url(#p83cb55ad78)">
     <!-- TEK -->
     <g transform="translate(686.721223 235.688432)scale(0.12 -0.12)">
      <use xlink:href="#DejaVuSans-84"/>
      <use x="61.083984" xlink:href="#DejaVuSans-69"/>
      <use x="124.267578" xlink:href="#DejaVuSans-75"/>
     </g>
    </g>
   </g>
   <g id="text_19">
    <g clip-path="url(#p83cb55ad78)">
     <!-- TIMP1 -->
     <g transform="translate(400.933299 110.918523)scale(0.12 -0.12)">
      <use xlink:href="#DejaVuSans-84"/>
      <use x="61.083984" xlink:href="#DejaVuSans-73"/>
      <use x="90.576172" xlink:href="#DejaVuSans-77"/>
      <use x="176.855469" xlink:href="#DejaVuSans-80"/>
      <use x="237.158203" xlink:href="#DejaVuSans-49"/>
     </g>
    </g>
   </g>
   <g id="text_20">
    <g clip-path="url(#p83cb55ad78)">
     <!-- EDN1 -->
     <g transform="translate(251.022911 438.185981)scale(0.12 -0.12)">
      <use xlink:href="#DejaVuSans-69"/>
      <use x="63.183594" xlink:href="#DejaVuSans-68"/>
      <use x="140.185547" xlink:href="#DejaVuSans-78"/>
      <use x="214.990234" xlink:href="#DejaVuSans-49"/>
     </g>
    </g>
   </g>
   <g id="text_21">
    <g clip-path="url(#p83cb55ad78)">
     <!-- NOS2 -->
     <g transform="translate(559.774992 129.082542)scale(0.12 -0.12)">
      <use xlink:href="#DejaVuSans-78"/>
      <use x="74.804688" xlink:href="#DejaVuSans-79"/>
      <use x="153.515625" xlink:href="#DejaVuSans-83"/>
      <use x="216.992188" xlink:href="#DejaVuSans-50"/>
     </g>
    </g>
   </g>
   <g id="text_22">
    <g clip-path="url(#p83cb55ad78)">
     <!-- NOS3 -->
     <g transform="translate(594.041778 157.018146)scale(0.12 -0.12)">
      <use xlink:href="#DejaVuSans-78"/>
      <use x="74.804688" xlink:href="#DejaVuSans-79"/>
      <use x="153.515625" xlink:href="#DejaVuSans-83"/>
      <use x="216.992188" xlink:href="#DejaVuSans-51"/>
     </g>
    </g>
   </g>
   <g id="text_23">
    <g clip-path="url(#p83cb55ad78)">
     <!-- HMOX1 -->
     <g transform="translate(160.206942 286.429907)scale(0.12 -0.12)">
      <use xlink:href="#DejaVuSans-72"/>
      <use x="75.195312" xlink:href="#DejaVuSans-77"/>
      <use x="161.474609" xlink:href="#DejaVuSans-79"/>
      <use x="233.810547" xlink:href="#DejaVuSans-88"/>
      <use x="302.316406" xlink:href="#DejaVuSans-49"/>
     </g>
    </g>
   </g>
   <g id="text_24">
    <g clip-path="url(#p83cb55ad78)">
     <!-- NPPA -->
     <g transform="translate(704.047965 268.996003)scale(0.12 -0.12)">
      <use xlink:href="#DejaVuSans-78"/>
      <use x="74.804688" xlink:href="#DejaVuSans-80"/>
      <use x="135.107422" xlink:href="#DejaVuSans-80"/>
      <use x="189.035156" xlink:href="#DejaVuSans-65"/>
     </g>
    </g>
   </g>
   <g id="text_25">
    <g clip-path="url(#p83cb55ad78)">
     <!-- TLR4 -->
     <g transform="translate(332.009036 199.914027)scale(0.12 -0.12)">
      <defs>
       <path d="M 37.796875 64.3125 
L 12.890625 25.390625 
L 37.796875 25.390625 
z
M 35.203125 72.90625 
L 47.609375 72.90625 
L 47.609375 25.390625 
L 58.015625 25.390625 
L 58.015625 17.1875 
L 47.609375 17.1875 
L 47.609375 0 
L 37.796875 0 
L 37.796875 17.1875 
L 4.890625 17.1875 
L 4.890625 26.703125 
z
" id="DejaVuSans-52"/>
      </defs>
      <use xlink:href="#DejaVuSans-84"/>
      <use x="61.083984" xlink:href="#DejaVuSans-76"/>
      <use x="116.796875" xlink:href="#DejaVuSans-82"/>
      <use x="186.279297" xlink:href="#DejaVuSans-52"/>
     </g>
    </g>
   </g>
   <g id="text_26">
    <g clip-path="url(#p83cb55ad78)">
     <!-- IFNG -->
     <g transform="translate(468.23234 175.030739)scale(0.12 -0.12)">
      <use xlink:href="#DejaVuSans-73"/>
      <use x="29.492188" xlink:href="#DejaVuSans-70"/>
      <use x="87.011719" xlink:href="#DejaVuSans-78"/>
      <use x="161.816406" xlink:href="#DejaVuSans-71"/>
     </g>
    </g>
   </g>
   <g id="text_27">
    <g clip-path="url(#p83cb55ad78)">
     <!-- IL6 -->
     <g transform="translate(468.254671 473.706633)scale(0.12 -0.12)">
      <defs>
       <path d="M 33.015625 40.375 
Q 26.375 40.375 22.484375 35.828125 
Q 18.609375 31.296875 18.609375 23.390625 
Q 18.609375 15.53125 22.484375 10.953125 
Q 26.375 6.390625 33.015625 6.390625 
Q 39.65625 6.390625 43.53125 10.953125 
Q 47.40625 15.53125 47.40625 23.390625 
Q 47.40625 31.296875 43.53125 35.828125 
Q 39.65625 40.375 33.015625 40.375 
z
M 52.59375 71.296875 
L 52.59375 62.3125 
Q 48.875 64.0625 45.09375 64.984375 
Q 41.3125 65.921875 37.59375 65.921875 
Q 27.828125 65.921875 22.671875 59.328125 
Q 17.53125 52.734375 16.796875 39.40625 
Q 19.671875 43.65625 24.015625 45.921875 
Q 28.375 48.1875 33.59375 48.1875 
Q 44.578125 48.1875 50.953125 41.515625 
Q 57.328125 34.859375 57.328125 23.390625 
Q 57.328125 12.15625 50.6875 5.359375 
Q 44.046875 -1.421875 33.015625 -1.421875 
Q 20.359375 -1.421875 13.671875 8.265625 
Q 6.984375 17.96875 6.984375 36.375 
Q 6.984375 53.65625 15.1875 63.9375 
Q 23.390625 74.21875 37.203125 74.21875 
Q 40.921875 74.21875 44.703125 73.484375 
Q 48.484375 72.75 52.59375 71.296875 
z
" id="DejaVuSans-54"/>
      </defs>
      <use xlink:href="#DejaVuSans-73"/>
      <use x="29.492188" xlink:href="#DejaVuSans-76"/>
      <use x="85.205078" xlink:href="#DejaVuSans-54"/>
     </g>
    </g>
   </g>
   <g id="text_28">
    <g clip-path="url(#p83cb55ad78)">
     <!-- IL6R -->
     <g transform="translate(391.281877 437.270894)scale(0.12 -0.12)">
      <use xlink:href="#DejaVuSans-73"/>
      <use x="29.492188" xlink:href="#DejaVuSans-76"/>
      <use x="85.205078" xlink:href="#DejaVuSans-54"/>
      <use x="148.828125" xlink:href="#DejaVuSans-82"/>
     </g>
    </g>
   </g>
   <g id="text_29">
    <g clip-path="url(#p83cb55ad78)">
     <!-- STAT3 -->
     <g transform="translate(487.48965 365.230343)scale(0.12 -0.12)">
      <use xlink:href="#DejaVuSans-83"/>
      <use x="63.476562" xlink:href="#DejaVuSans-84"/>
      <use x="116.810547" xlink:href="#DejaVuSans-65"/>
      <use x="177.46875" xlink:href="#DejaVuSans-84"/>
      <use x="238.552734" xlink:href="#DejaVuSans-51"/>
     </g>
    </g>
   </g>
   <g id="text_30">
    <g clip-path="url(#p83cb55ad78)">
     <!-- EIF4EBP1 -->
     <g transform="translate(159.518247 231.613028)scale(0.12 -0.12)">
      <use xlink:href="#DejaVuSans-69"/>
      <use x="63.183594" xlink:href="#DejaVuSans-73"/>
      <use x="92.675781" xlink:href="#DejaVuSans-70"/>
      <use x="150.195312" xlink:href="#DejaVuSans-52"/>
      <use x="213.818359" xlink:href="#DejaVuSans-69"/>
      <use x="277.001953" xlink:href="#DejaVuSans-66"/>
      <use x="345.605469" xlink:href="#DejaVuSans-80"/>
      <use x="405.908203" xlink:href="#DejaVuSans-49"/>
     </g>
    </g>
   </g>
   <g id="text_31">
    <g clip-path="url(#p83cb55ad78)">
     <!-- EIF4E -->
     <g transform="translate(252.707841 152.593719)scale(0.12 -0.12)">
      <use xlink:href="#DejaVuSans-69"/>
      <use x="63.183594" xlink:href="#DejaVuSans-73"/>
      <use x="92.675781" xlink:href="#DejaVuSans-70"/>
      <use x="150.195312" xlink:href="#DejaVuSans-52"/>
      <use x="213.818359" xlink:href="#DejaVuSans-69"/>
     </g>
    </g>
   </g>
   <g id="text_32">
    <g clip-path="url(#p83cb55ad78)">
     <!-- BCL2 -->
     <g transform="translate(644.750673 411.645166)scale(0.12 -0.12)">
      <use xlink:href="#DejaVuSans-66"/>
      <use x="66.853516" xlink:href="#DejaVuSans-67"/>
      <use x="136.677734" xlink:href="#DejaVuSans-76"/>
      <use x="192.390625" xlink:href="#DejaVuSans-50"/>
     </g>
    </g>
   </g>
   <g id="text_33">
    <g clip-path="url(#p83cb55ad78)">
     <!-- INS -->
     <g transform="translate(373.833772 276.204329)scale(0.12 -0.12)">
      <use xlink:href="#DejaVuSans-73"/>
      <use x="29.492188" xlink:href="#DejaVuSans-78"/>
      <use x="104.296875" xlink:href="#DejaVuSans-83"/>
     </g>
    </g>
   </g>
   <g id="text_34">
    <g clip-path="url(#p83cb55ad78)">
     <!-- IGF1 -->
     <g transform="translate(482.337727 309.174417)scale(0.12 -0.12)">
      <use xlink:href="#DejaVuSans-73"/>
      <use x="29.492188" xlink:href="#DejaVuSans-71"/>
      <use x="106.982422" xlink:href="#DejaVuSans-70"/>
      <use x="164.501953" xlink:href="#DejaVuSans-49"/>
     </g>
    </g>
   </g>
   <g id="text_35">
    <g clip-path="url(#p83cb55ad78)">
     <!-- INSR -->
     <g transform="translate(448.86131 263.579538)scale(0.12 -0.12)">
      <use xlink:href="#DejaVuSans-73"/>
      <use x="29.492188" xlink:href="#DejaVuSans-78"/>
      <use x="104.296875" xlink:href="#DejaVuSans-83"/>
      <use x="167.773438" xlink:href="#DejaVuSans-82"/>
     </g>
    </g>
   </g>
   <g id="text_36">
    <g clip-path="url(#p83cb55ad78)">
     <!-- EGFR -->
     <g transform="translate(413.514328 309.388919)scale(0.12 -0.12)">
      <use xlink:href="#DejaVuSans-69"/>
      <use x="63.183594" xlink:href="#DejaVuSans-71"/>
      <use x="140.673828" xlink:href="#DejaVuSans-70"/>
      <use x="198.193359" xlink:href="#DejaVuSans-82"/>
     </g>
    </g>
   </g>
   <g id="text_37">
    <g clip-path="url(#p83cb55ad78)">
     <!-- IGF1R -->
     <g transform="translate(422.882455 269.90018)scale(0.12 -0.12)">
      <use xlink:href="#DejaVuSans-73"/>
      <use x="29.492188" xlink:href="#DejaVuSans-71"/>
      <use x="106.982422" xlink:href="#DejaVuSans-70"/>
      <use x="164.501953" xlink:href="#DejaVuSans-49"/>
      <use x="228.125" xlink:href="#DejaVuSans-82"/>
     </g>
    </g>
   </g>
   <g id="text_38">
    <g clip-path="url(#p83cb55ad78)">
     <!-- ERBB2 -->
     <g transform="translate(403.731357 295.559196)scale(0.12 -0.12)">
      <use xlink:href="#DejaVuSans-69"/>
      <use x="63.183594" xlink:href="#DejaVuSans-82"/>
      <use x="132.666016" xlink:href="#DejaVuSans-66"/>
      <use x="201.269531" xlink:href="#DejaVuSans-66"/>
      <use x="269.873047" xlink:href="#DejaVuSans-50"/>
     </g>
    </g>
   </g>
   <g id="text_39">
    <g clip-path="url(#p83cb55ad78)">
     <!-- PRKCA -->
     <g transform="translate(281.755866 313.71767)scale(0.12 -0.12)">
      <use xlink:href="#DejaVuSans-80"/>
      <use x="60.302734" xlink:href="#DejaVuSans-82"/>
      <use x="129.785156" xlink:href="#DejaVuSans-75"/>
      <use x="189.861328" xlink:href="#DejaVuSans-67"/>
      <use x="259.685547" xlink:href="#DejaVuSans-65"/>
     </g>
    </g>
   </g>
   <g id="text_40">
    <g clip-path="url(#p83cb55ad78)">
     <!-- PRKCB -->
     <g transform="translate(246.289756 360.088475)scale(0.12 -0.12)">
      <use xlink:href="#DejaVuSans-80"/>
      <use x="60.302734" xlink:href="#DejaVuSans-82"/>
      <use x="129.785156" xlink:href="#DejaVuSans-75"/>
      <use x="189.861328" xlink:href="#DejaVuSans-67"/>
      <use x="259.685547" xlink:href="#DejaVuSans-66"/>
     </g>
    </g>
   </g>
   <g id="text_41">
    <g clip-path="url(#p83cb55ad78)">
     <!-- PRKCG -->
     <g transform="translate(177.882226 382.418986)scale(0.12 -0.12)">
      <use xlink:href="#DejaVuSans-80"/>
      <use x="60.302734" xlink:href="#DejaVuSans-82"/>
      <use x="129.785156" xlink:href="#DejaVuSans-75"/>
      <use x="189.861328" xlink:href="#DejaVuSans-67"/>
      <use x="259.685547" xlink:href="#DejaVuSans-71"/>
     </g>
    </g>
   </g>
   <g id="text_42">
    <g clip-path="url(#p83cb55ad78)">
     <!-- PDHB -->
     <g transform="translate(698.753114 331.696344)scale(0.12 -0.12)">
      <use xlink:href="#DejaVuSans-80"/>
      <use x="60.302734" xlink:href="#DejaVuSans-68"/>
      <use x="137.304688" xlink:href="#DejaVuSans-72"/>
      <use x="212.5" xlink:href="#DejaVuSans-66"/>
     </g>
    </g>
   </g>
   <g id="text_43">
    <g clip-path="url(#p83cb55ad78)">
     <!-- ANGPT1 -->
     <g transform="translate(624.668571 175.729195)scale(0.12 -0.12)">
      <use xlink:href="#DejaVuSans-65"/>
      <use x="68.408203" xlink:href="#DejaVuSans-78"/>
      <use x="143.212891" xlink:href="#DejaVuSans-71"/>
      <use x="220.703125" xlink:href="#DejaVuSans-80"/>
      <use x="281.005859" xlink:href="#DejaVuSans-84"/>
      <use x="342.089844" xlink:href="#DejaVuSans-49"/>
     </g>
    </g>
   </g>
   <g id="text_44">
    <g clip-path="url(#p83cb55ad78)">
     <!-- ANGPT2 -->
     <g transform="translate(201.670626 402.143884)scale(0.12 -0.12)">
      <use xlink:href="#DejaVuSans-65"/>
      <use x="68.408203" xlink:href="#DejaVuSans-78"/>
      <use x="143.212891" xlink:href="#DejaVuSans-71"/>
      <use x="220.703125" xlink:href="#DejaVuSans-80"/>
      <use x="281.005859" xlink:href="#DejaVuSans-84"/>
      <use x="342.089844" xlink:href="#DejaVuSans-50"/>
     </g>
    </g>
   </g>
   <g id="text_45">
    <g clip-path="url(#p83cb55ad78)">
     <!-- ANGPT4 -->
     <g transform="translate(510.761377 130.583198)scale(0.12 -0.12)">
      <use xlink:href="#DejaVuSans-65"/>
      <use x="68.408203" xlink:href="#DejaVuSans-78"/>
      <use x="143.212891" xlink:href="#DejaVuSans-71"/>
      <use x="220.703125" xlink:href="#DejaVuSans-80"/>
      <use x="281.005859" xlink:href="#DejaVuSans-84"/>
      <use x="342.089844" xlink:href="#DejaVuSans-52"/>
     </g>
    </g>
   </g>
   <g id="text_46">
    <g clip-path="url(#p83cb55ad78)">
     <!-- RELA -->
     <g transform="translate(363.148979 231.244686)scale(0.12 -0.12)">
      <use xlink:href="#DejaVuSans-82"/>
      <use x="69.482422" xlink:href="#DejaVuSans-69"/>
      <use x="132.666016" xlink:href="#DejaVuSans-76"/>
      <use x="190.628906" xlink:href="#DejaVuSans-65"/>
     </g>
    </g>
   </g>
   <g id="text_47">
    <g clip-path="url(#p83cb55ad78)">
     <!-- NFKB1 -->
     <g transform="translate(416.475402 206.94964)scale(0.12 -0.12)">
      <use xlink:href="#DejaVuSans-78"/>
      <use x="74.804688" xlink:href="#DejaVuSans-70"/>
      <use x="132.324219" xlink:href="#DejaVuSans-75"/>
      <use x="197.900391" xlink:href="#DejaVuSans-66"/>
      <use x="266.503906" xlink:href="#DejaVuSans-49"/>
     </g>
    </g>
   </g>
   <g id="text_48">
    <g clip-path="url(#p83cb55ad78)">
     <!-- IFNGR1 -->
     <g transform="translate(348.253267 164.232995)scale(0.12 -0.12)">
      <use xlink:href="#DejaVuSans-73"/>
      <use x="29.492188" xlink:href="#DejaVuSans-70"/>
      <use x="87.011719" xlink:href="#DejaVuSans-78"/>
      <use x="161.816406" xlink:href="#DejaVuSans-71"/>
      <use x="239.306641" xlink:href="#DejaVuSans-82"/>
      <use x="308.789062" xlink:href="#DejaVuSans-49"/>
     </g>
    </g>
   </g>
   <g id="text_49">
    <g clip-path="url(#p83cb55ad78)">
     <!-- IFNGR2 -->
     <g transform="translate(427.553484 180.624102)scale(0.12 -0.12)">
      <use xlink:href="#DejaVuSans-73"/>
      <use x="29.492188" xlink:href="#DejaVuSans-70"/>
      <use x="87.011719" xlink:href="#DejaVuSans-78"/>
      <use x="161.816406" xlink:href="#DejaVuSans-71"/>
      <use x="239.306641" xlink:href="#DejaVuSans-82"/>
      <use x="308.789062" xlink:href="#DejaVuSans-50"/>
     </g>
    </g>
   </g>
   <g id="text_50">
    <g clip-path="url(#p83cb55ad78)">
     <!-- MAP2K1 -->
     <g transform="translate(174.267496 200.409813)scale(0.12 -0.12)">
      <use xlink:href="#DejaVuSans-77"/>
      <use x="86.279297" xlink:href="#DejaVuSans-65"/>
      <use x="154.6875" xlink:href="#DejaVuSans-80"/>
      <use x="214.990234" xlink:href="#DejaVuSans-50"/>
      <use x="278.613281" xlink:href="#DejaVuSans-75"/>
      <use x="344.189453" xlink:href="#DejaVuSans-49"/>
     </g>
    </g>
   </g>
   <g id="text_51">
    <g clip-path="url(#p83cb55ad78)">
     <!-- MAP2K2 -->
     <g transform="translate(660.994429 371.608334)scale(0.12 -0.12)">
      <use xlink:href="#DejaVuSans-77"/>
      <use x="86.279297" xlink:href="#DejaVuSans-65"/>
      <use x="154.6875" xlink:href="#DejaVuSans-80"/>
      <use x="214.990234" xlink:href="#DejaVuSans-50"/>
      <use x="278.613281" xlink:href="#DejaVuSans-75"/>
      <use x="344.189453" xlink:href="#DejaVuSans-50"/>
     </g>
    </g>
   </g>
   <g id="text_52">
    <g clip-path="url(#p83cb55ad78)">
     <!-- CDKN1A -->
     <g transform="translate(202.88854 173.990784)scale(0.12 -0.12)">
      <use xlink:href="#DejaVuSans-67"/>
      <use x="69.824219" xlink:href="#DejaVuSans-68"/>
      <use x="146.826172" xlink:href="#DejaVuSans-75"/>
      <use x="212.402344" xlink:href="#DejaVuSans-78"/>
      <use x="287.207031" xlink:href="#DejaVuSans-49"/>
      <use x="350.830078" xlink:href="#DejaVuSans-65"/>
     </g>
    </g>
   </g>
   <g id="text_53">
    <g clip-path="url(#p83cb55ad78)">
     <!-- CDKN1B -->
     <g transform="translate(596.291147 447.384484)scale(0.12 -0.12)">
      <use xlink:href="#DejaVuSans-67"/>
      <use x="69.824219" xlink:href="#DejaVuSans-68"/>
      <use x="146.826172" xlink:href="#DejaVuSans-75"/>
      <use x="212.402344" xlink:href="#DejaVuSans-78"/>
      <use x="287.207031" xlink:href="#DejaVuSans-49"/>
      <use x="350.830078" xlink:href="#DejaVuSans-66"/>
     </g>
    </g>
   </g>
   <g id="text_54">
    <!-- Frame: 11 -->
    <g transform="translate(121.392 91.296)scale(0.1 -0.1)">
     <defs>
      <path d="M 41.109375 46.296875 
Q 39.59375 47.171875 37.8125 47.578125 
Q 36.03125 48 33.890625 48 
Q 26.265625 48 22.1875 43.046875 
Q 18.109375 38.09375 18.109375 28.8125 
L 18.109375 0 
L 9.078125 0 
L 9.078125 54.6875 
L 18.109375 54.6875 
L 18.109375 46.1875 
Q 20.953125 51.171875 25.484375 53.578125 
Q 30.03125 56 36.53125 56 
Q 37.453125 56 38.578125 55.875 
Q 39.703125 55.765625 41.0625 55.515625 
z
" id="DejaVuSans-114"/>
      <path d="M 34.28125 27.484375 
Q 23.390625 27.484375 19.1875 25 
Q 14.984375 22.515625 14.984375 16.5 
Q 14.984375 11.71875 18.140625 8.90625 
Q 21.296875 6.109375 26.703125 6.109375 
Q 34.1875 6.109375 38.703125 11.40625 
Q 43.21875 16.703125 43.21875 25.484375 
L 43.21875 27.484375 
z
M 52.203125 31.203125 
L 52.203125 0 
L 43.21875 0 
L 43.21875 8.296875 
Q 40.140625 3.328125 35.546875 0.953125 
Q 30.953125 -1.421875 24.3125 -1.421875 
Q 15.921875 -1.421875 10.953125 3.296875 
Q 6 8.015625 6 15.921875 
Q 6 25.140625 12.171875 29.828125 
Q 18.359375 34.515625 30.609375 34.515625 
L 43.21875 34.515625 
L 43.21875 35.40625 
Q 43.21875 41.609375 39.140625 45 
Q 35.0625 48.390625 27.6875 48.390625 
Q 23 48.390625 18.546875 47.265625 
Q 14.109375 46.140625 10.015625 43.890625 
L 10.015625 52.203125 
Q 14.9375 54.109375 19.578125 55.046875 
Q 24.21875 56 28.609375 56 
Q 40.484375 56 46.34375 49.84375 
Q 52.203125 43.703125 52.203125 31.203125 
z
" id="DejaVuSans-97"/>
      <path d="M 52 44.1875 
Q 55.375 50.25 60.0625 53.125 
Q 64.75 56 71.09375 56 
Q 79.640625 56 84.28125 50.015625 
Q 88.921875 44.046875 88.921875 33.015625 
L 88.921875 0 
L 79.890625 0 
L 79.890625 32.71875 
Q 79.890625 40.578125 77.09375 44.375 
Q 74.3125 48.1875 68.609375 48.1875 
Q 61.625 48.1875 57.5625 43.546875 
Q 53.515625 38.921875 53.515625 30.90625 
L 53.515625 0 
L 44.484375 0 
L 44.484375 32.71875 
Q 44.484375 40.625 41.703125 44.40625 
Q 38.921875 48.1875 33.109375 48.1875 
Q 26.21875 48.1875 22.15625 43.53125 
Q 18.109375 38.875 18.109375 30.90625 
L 18.109375 0 
L 9.078125 0 
L 9.078125 54.6875 
L 18.109375 54.6875 
L 18.109375 46.1875 
Q 21.1875 51.21875 25.484375 53.609375 
Q 29.78125 56 35.6875 56 
Q 41.65625 56 45.828125 52.96875 
Q 50 49.953125 52 44.1875 
z
" id="DejaVuSans-109"/>
      <path d="M 56.203125 29.59375 
L 56.203125 25.203125 
L 14.890625 25.203125 
Q 15.484375 15.921875 20.484375 11.0625 
Q 25.484375 6.203125 34.421875 6.203125 
Q 39.59375 6.203125 44.453125 7.46875 
Q 49.3125 8.734375 54.109375 11.28125 
L 54.109375 2.78125 
Q 49.265625 0.734375 44.1875 -0.34375 
Q 39.109375 -1.421875 33.890625 -1.421875 
Q 20.796875 -1.421875 13.15625 6.1875 
Q 5.515625 13.8125 5.515625 26.8125 
Q 5.515625 40.234375 12.765625 48.109375 
Q 20.015625 56 32.328125 56 
Q 43.359375 56 49.78125 48.890625 
Q 56.203125 41.796875 56.203125 29.59375 
z
M 47.21875 32.234375 
Q 47.125 39.59375 43.09375 43.984375 
Q 39.0625 48.390625 32.421875 48.390625 
Q 24.90625 48.390625 20.390625 44.140625 
Q 15.875 39.890625 15.1875 32.171875 
z
" id="DejaVuSans-101"/>
      <path d="M 11.71875 12.40625 
L 22.015625 12.40625 
L 22.015625 0 
L 11.71875 0 
z
M 11.71875 51.703125 
L 22.015625 51.703125 
L 22.015625 39.3125 
L 11.71875 39.3125 
z
" id="DejaVuSans-58"/>
      <path id="DejaVuSans-32"/>
     </defs>
     <use xlink:href="#DejaVuSans-70"/>
     <use x="50.269531" xlink:href="#DejaVuSans-114"/>
     <use x="91.382812" xlink:href="#DejaVuSans-97"/>
     <use x="152.662109" xlink:href="#DejaVuSans-109"/>
     <use x="250.074219" xlink:href="#DejaVuSans-101"/>
     <use x="311.597656" xlink:href="#DejaVuSans-58"/>
     <use x="345.289062" xlink:href="#DejaVuSans-32"/>
     <use x="377.076172" xlink:href="#DejaVuSans-49"/>
     <use x="440.699219" xlink:href="#DejaVuSans-49"/>
    </g>
   </g>
   <g id="text_55">
    <!-- Network: hsa04066 -->
    <g transform="translate(384.1275 63.12)scale(0.12 -0.12)">
     <defs>
      <path d="M 18.3125 70.21875 
L 18.3125 54.6875 
L 36.8125 54.6875 
L 36.8125 47.703125 
L 18.3125 47.703125 
L 18.3125 18.015625 
Q 18.3125 11.328125 20.140625 9.421875 
Q 21.96875 7.515625 27.59375 7.515625 
L 36.8125 7.515625 
L 36.8125 0 
L 27.59375 0 
Q 17.1875 0 13.234375 3.875 
Q 9.28125 7.765625 9.28125 18.015625 
L 9.28125 47.703125 
L 2.6875 47.703125 
L 2.6875 54.6875 
L 9.28125 54.6875 
L 9.28125 70.21875 
z
" id="DejaVuSans-116"/>
      <path d="M 4.203125 54.6875 
L 13.1875 54.6875 
L 24.421875 12.015625 
L 35.59375 54.6875 
L 46.1875 54.6875 
L 57.421875 12.015625 
L 68.609375 54.6875 
L 77.59375 54.6875 
L 63.28125 0 
L 52.6875 0 
L 40.921875 44.828125 
L 29.109375 0 
L 18.5 0 
z
" id="DejaVuSans-119"/>
      <path d="M 30.609375 48.390625 
Q 23.390625 48.390625 19.1875 42.75 
Q 14.984375 37.109375 14.984375 27.296875 
Q 14.984375 17.484375 19.15625 11.84375 
Q 23.34375 6.203125 30.609375 6.203125 
Q 37.796875 6.203125 41.984375 11.859375 
Q 46.1875 17.53125 46.1875 27.296875 
Q 46.1875 37.015625 41.984375 42.703125 
Q 37.796875 48.390625 30.609375 48.390625 
z
M 30.609375 56 
Q 42.328125 56 49.015625 48.375 
Q 55.71875 40.765625 55.71875 27.296875 
Q 55.71875 13.875 49.015625 6.21875 
Q 42.328125 -1.421875 30.609375 -1.421875 
Q 18.84375 -1.421875 12.171875 6.21875 
Q 5.515625 13.875 5.515625 27.296875 
Q 5.515625 40.765625 12.171875 48.375 
Q 18.84375 56 30.609375 56 
z
" id="DejaVuSans-111"/>
      <path d="M 9.078125 75.984375 
L 18.109375 75.984375 
L 18.109375 31.109375 
L 44.921875 54.6875 
L 56.390625 54.6875 
L 27.390625 29.109375 
L 57.625 0 
L 45.90625 0 
L 18.109375 26.703125 
L 18.109375 0 
L 9.078125 0 
z
" id="DejaVuSans-107"/>
      <path d="M 54.890625 33.015625 
L 54.890625 0 
L 45.90625 0 
L 45.90625 32.71875 
Q 45.90625 40.484375 42.875 44.328125 
Q 39.84375 48.1875 33.796875 48.1875 
Q 26.515625 48.1875 22.3125 43.546875 
Q 18.109375 38.921875 18.109375 30.90625 
L 18.109375 0 
L 9.078125 0 
L 9.078125 75.984375 
L 18.109375 75.984375 
L 18.109375 46.1875 
Q 21.34375 51.125 25.703125 53.5625 
Q 30.078125 56 35.796875 56 
Q 45.21875 56 50.046875 50.171875 
Q 54.890625 44.34375 54.890625 33.015625 
z
" id="DejaVuSans-104"/>
      <path d="M 44.28125 53.078125 
L 44.28125 44.578125 
Q 40.484375 46.53125 36.375 47.5 
Q 32.28125 48.484375 27.875 48.484375 
Q 21.1875 48.484375 17.84375 46.4375 
Q 14.5 44.390625 14.5 40.28125 
Q 14.5 37.15625 16.890625 35.375 
Q 19.28125 33.59375 26.515625 31.984375 
L 29.59375 31.296875 
Q 39.15625 29.25 43.1875 25.515625 
Q 47.21875 21.78125 47.21875 15.09375 
Q 47.21875 7.46875 41.1875 3.015625 
Q 35.15625 -1.421875 24.609375 -1.421875 
Q 20.21875 -1.421875 15.453125 -0.5625 
Q 10.6875 0.296875 5.421875 2 
L 5.421875 11.28125 
Q 10.40625 8.6875 15.234375 7.390625 
Q 20.0625 6.109375 24.8125 6.109375 
Q 31.15625 6.109375 34.5625 8.28125 
Q 37.984375 10.453125 37.984375 14.40625 
Q 37.984375 18.0625 35.515625 20.015625 
Q 33.0625 21.96875 24.703125 23.78125 
L 21.578125 24.515625 
Q 13.234375 26.265625 9.515625 29.90625 
Q 5.8125 33.546875 5.8125 39.890625 
Q 5.8125 47.609375 11.28125 51.796875 
Q 16.75 56 26.8125 56 
Q 31.78125 56 36.171875 55.265625 
Q 40.578125 54.546875 44.28125 53.078125 
z
" id="DejaVuSans-115"/>
     </defs>
     <use xlink:href="#DejaVuSans-78"/>
     <use x="74.804688" xlink:href="#DejaVuSans-101"/>
     <use x="136.328125" xlink:href="#DejaVuSans-116"/>
     <use x="175.537109" xlink:href="#DejaVuSans-119"/>
     <use x="257.324219" xlink:href="#DejaVuSans-111"/>
     <use x="318.505859" xlink:href="#DejaVuSans-114"/>
     <use x="359.619141" xlink:href="#DejaVuSans-107"/>
     <use x="417.529297" xlink:href="#DejaVuSans-58"/>
     <use x="451.220703" xlink:href="#DejaVuSans-32"/>
     <use x="483.007812" xlink:href="#DejaVuSans-104"/>
     <use x="546.386719" xlink:href="#DejaVuSans-115"/>
     <use x="598.486328" xlink:href="#DejaVuSans-97"/>
     <use x="659.765625" xlink:href="#DejaVuSans-48"/>
     <use x="723.388672" xlink:href="#DejaVuSans-52"/>
     <use x="787.011719" xlink:href="#DejaVuSans-48"/>
     <use x="850.634766" xlink:href="#DejaVuSans-54"/>
     <use x="914.257812" xlink:href="#DejaVuSans-54"/>
    </g>
   </g>
  </g>
 </g>
 <defs>
  <clipPath id="p83cb55ad78">
   <rect height="443.52" width="669.6" x="108" y="69.12"/>
  </clipPath>
 </defs>
</svg>
