<?xml version="1.0" encoding="utf-8" standalone="no"?>
<!DOCTYPE svg PUBLIC "-//W3C//DTD SVG 1.1//EN"
  "http://www.w3.org/Graphics/SVG/1.1/DTD/svg11.dtd">
<!-- Created with matplotlib (https://matplotlib.org/) -->
<svg height="576pt" version="1.1" viewBox="0 0 864 576" width="864pt" xmlns="http://www.w3.org/2000/svg" xmlns:xlink="http://www.w3.org/1999/xlink">
 <metadata>
  <rdf:RDF xmlns:cc="http://creativecommons.org/ns#" xmlns:dc="http://purl.org/dc/elements/1.1/" xmlns:rdf="http://www.w3.org/1999/02/22-rdf-syntax-ns#">
   <cc:Work>
    <dc:type rdf:resource="http://purl.org/dc/dcmitype/StillImage"/>
    <dc:date>2024-04-26T13:35:57.646550</dc:date>
    <dc:format>image/svg+xml</dc:format>
    <dc:creator>
     <cc:Agent>
      <dc:title>Matplotlib v3.3.1, https://matplotlib.org/</dc:title>
     </cc:Agent>
    </dc:creator>
   </cc:Work>
  </rdf:RDF>
 </metadata>
 <defs>
  <style type="text/css">*{stroke-linecap:butt;stroke-linejoin:round;}</style>
 </defs>
 <g id="figure_1">
  <g id="patch_1">
   <path d="M 0 576 
L 864 576 
L 864 0 
L 0 0 
z
" style="fill:#ffffff;"/>
  </g>
  <g id="axes_1">
   <g id="patch_2">
    <path clip-path="url(#p1e99725c77)" d="M 507.327138 442.856192 
Q 451.143911 457.418039 396.042956 471.699378 
" style="fill:none;stroke:#000000;stroke-linecap:round;"/>
    <path clip-path="url(#p1e99725c77)" d="M 400.416803 472.631828 
L 396.042956 471.699378 
L 399.413224 468.759771 
L 400.416803 472.631828 
z
" style="stroke:#000000;stroke-linecap:round;"/>
   </g>
   <g id="patch_3">
    <path clip-path="url(#p1e99725c77)" d="M 467.774209 333.415854 
Q 489.975303 383.096953 511.720252 431.757302 
" style="fill:none;stroke:#000000;stroke-linecap:round;"/>
    <path clip-path="url(#p1e99725c77)" d="M 511.914272 427.289377 
L 511.720252 431.757302 
L 508.262324 428.92133 
L 511.914272 427.289377 
z
" style="stroke:#000000;stroke-linecap:round;"/>
   </g>
   <g id="patch_4">
    <path clip-path="url(#p1e99725c77)" d="M 455.693762 326.926334 
Q 394.320388 337.087506 334.050033 347.066058 
" style="fill:none;stroke:#000000;stroke-linecap:round;"/>
    <path clip-path="url(#p1e99725c77)" d="M 338.322992 348.385839 
L 334.050033 347.066058 
L 337.669633 344.439559 
L 338.322992 348.385839 
z
" style="stroke:#000000;stroke-linecap:round;"/>
   </g>
   <g id="patch_5">
    <path clip-path="url(#p1e99725c77)" d="M 425.550074 352.191489 
Q 441.331166 341.309425 456.191839 331.062049 
" style="fill:none;stroke:#000000;stroke-linecap:round;"/>
    <path clip-path="url(#p1e99725c77)" d="M 451.763483 331.68628 
L 456.191839 331.062049 
L 454.03421 334.979272 
L 451.763483 331.68628 
z
" style="stroke:#000000;stroke-linecap:round;"/>
   </g>
   <g id="patch_6">
    <path clip-path="url(#p1e99725c77)" d="M 426.569164 360.047917 
Q 447.25497 367.514002 466.889143 374.600523 
" style="fill:none;stroke:#000000;stroke-linecap:round;"/>
    <path clip-path="url(#p1e99725c77)" d="M 463.805691 371.361337 
L 466.889143 374.600523 
L 462.447723 375.123773 
L 463.805691 371.361337 
z
" style="stroke:#000000;stroke-linecap:round;"/>
   </g>
   <g id="patch_7">
    <path clip-path="url(#p1e99725c77)" d="M 415.737133 365.338408 
Q 410.164467 382.426867 404.938434 398.452384 
" style="fill:none;stroke:#000000;stroke-linecap:round;"/>
    <path clip-path="url(#p1e99725c77)" d="M 408.080034 395.269563 
L 404.938434 398.452384 
L 404.277137 394.029412 
L 408.080034 395.269563 
z
" style="stroke:#000000;stroke-linecap:round;"/>
   </g>
   <g id="patch_8">
    <path clip-path="url(#p1e99725c77)" d="M 414.750027 364.948751 
Q 410.253305 374.553179 406.230651 383.145056 
" style="fill:none;stroke:#000000;stroke-linecap:round;"/>
    <path clip-path="url(#p1e99725c77)" d="M 409.738037 380.370485 
L 406.230651 383.145056 
L 406.115425 378.674405 
L 409.738037 380.370485 
z
" style="stroke:#000000;stroke-linecap:round;"/>
   </g>
   <g id="patch_9">
    <path clip-path="url(#p1e99725c77)" d="M 413.164683 363.988399 
Q 404.30759 375.582662 396.129205 386.288469 
" style="fill:none;stroke:#000000;stroke-linecap:round;"/>
    <path clip-path="url(#p1e99725c77)" d="M 400.146748 384.323946 
L 396.129205 386.288469 
L 396.968112 381.895721 
L 400.146748 384.323946 
z
" style="stroke:#000000;stroke-linecap:round;"/>
   </g>
   <g id="patch_10">
    <path clip-path="url(#p1e99725c77)" d="M 412.294826 363.226769 
Q 409.424715 366.093616 407.345623 368.170344 
" style="fill:none;stroke:#000000;stroke-linecap:round;"/>
    <path clip-path="url(#p1e99725c77)" d="M 411.589068 366.758544 
L 407.345623 368.170344 
L 408.76225 363.928508 
L 411.589068 366.758544 
z
" style="stroke:#000000;stroke-linecap:round;"/>
   </g>
   <g id="patch_11">
    <path clip-path="url(#p1e99725c77)" d="M 418.266469 365.768718 
Q 418.13719 372.996166 418.027906 379.105759 
" style="fill:none;stroke:#000000;stroke-linecap:round;"/>
    <path clip-path="url(#p1e99725c77)" d="M 420.099124 375.142168 
L 418.027906 379.105759 
L 416.099764 375.07063 
L 420.099124 375.142168 
z
" style="stroke:#000000;stroke-linecap:round;"/>
   </g>
   <g id="patch_12">
    <path clip-path="url(#p1e99725c77)" d="M 417.525776 365.725427 
Q 417.45749 366.382523 417.504769 365.927574 
" style="fill:none;stroke:#000000;stroke-linecap:round;"/>
    <path clip-path="url(#p1e99725c77)" d="M 419.907516 362.15573 
L 417.504769 365.927574 
L 415.928942 361.74227 
L 419.907516 362.15573 
z
" style="stroke:#000000;stroke-linecap:round;"/>
   </g>
   <g id="patch_13">
    <path clip-path="url(#p1e99725c77)" d="M 426.713349 359.592142 
Q 435.863983 362.334459 443.943642 364.75582 
" style="fill:none;stroke:#000000;stroke-linecap:round;"/>
    <path clip-path="url(#p1e99725c77)" d="M 440.68615 361.691714 
L 443.943642 364.75582 
L 439.537862 365.52335 
L 440.68615 361.691714 
z
" style="stroke:#000000;stroke-linecap:round;"/>
   </g>
   <g id="patch_14">
    <path clip-path="url(#p1e99725c77)" d="M 328.246816 356.426291 
Q 355.490447 411.411162 382.237708 465.394226 
" style="fill:none;stroke:#000000;stroke-linecap:round;"/>
    <path clip-path="url(#p1e99725c77)" d="M 382.253926 460.922119 
L 382.237708 465.394226 
L 378.669754 462.697987 
L 382.253926 460.922119 
z
" style="stroke:#000000;stroke-linecap:round;"/>
   </g>
   <g id="patch_15">
    <path clip-path="url(#p1e99725c77)" d="M 526.648276 335.921965 
Q 547.153644 292.772708 567.179132 250.63326 
" style="fill:none;stroke:#000000;stroke-linecap:round;"/>
    <path clip-path="url(#p1e99725c77)" d="M 563.655857 253.387626 
L 567.179132 250.63326 
L 567.268659 255.1045 
L 563.655857 253.387626 
z
" style="stroke:#000000;stroke-linecap:round;"/>
   </g>
   <g id="patch_16">
    <path clip-path="url(#p1e99725c77)" d="M 514.341056 344.844399 
Q 470.676947 350.426598 428.121845 355.867017 
" style="fill:none;stroke:#000000;stroke-linecap:round;"/>
    <path clip-path="url(#p1e99725c77)" d="M 432.343176 357.343623 
L 428.121845 355.867017 
L 431.835928 353.375916 
L 432.343176 357.343623 
z
" style="stroke:#000000;stroke-linecap:round;"/>
   </g>
   <g id="patch_17">
    <path clip-path="url(#p1e99725c77)" d="M 514.48741 341.816579 
Q 464.93422 330.48984 416.470954 319.412233 
" style="fill:none;stroke:#000000;stroke-linecap:round;"/>
    <path clip-path="url(#p1e99725c77)" d="M 419.924722 322.253269 
L 416.470954 319.412233 
L 420.816043 318.35384 
L 419.924722 322.253269 
z
" style="stroke:#000000;stroke-linecap:round;"/>
   </g>
   <g id="patch_18">
    <path clip-path="url(#p1e99725c77)" d="M 523.499271 352.384417 
Q 526.88382 403.738713 530.194844 453.977395 
" style="fill:none;stroke:#000000;stroke-linecap:round;"/>
    <path clip-path="url(#p1e99725c77)" d="M 531.927462 449.854527 
L 530.194844 453.977395 
L 527.936121 450.11758 
L 531.927462 449.854527 
z
" style="stroke:#000000;stroke-linecap:round;"/>
   </g>
   <g id="patch_19">
    <path clip-path="url(#p1e99725c77)" d="M 415.378461 319.162514 
Q 464.931651 330.489253 513.394918 341.56686 
" style="fill:none;stroke:#000000;stroke-linecap:round;"/>
    <path clip-path="url(#p1e99725c77)" d="M 509.94115 338.725824 
L 513.394918 341.56686 
L 509.049828 342.625253 
L 509.94115 338.725824 
z
" style="stroke:#000000;stroke-linecap:round;"/>
   </g>
   <g id="patch_20">
    <path clip-path="url(#p1e99725c77)" d="M 404.982793 308.79704 
Q 393.826466 260.611559 382.922325 213.515299 
" style="fill:none;stroke:#000000;stroke-linecap:round;"/>
    <path clip-path="url(#p1e99725c77)" d="M 381.876116 217.863339 
L 382.922325 213.515299 
L 385.773031 216.96109 
L 381.876116 217.863339 
z
" style="stroke:#000000;stroke-linecap:round;"/>
   </g>
   <g id="patch_21">
    <path clip-path="url(#p1e99725c77)" d="M 405.996807 308.625865 
Q 399.842315 252.219386 393.809091 196.924344 
" style="fill:none;stroke:#000000;stroke-linecap:round;"/>
    <path clip-path="url(#p1e99725c77)" d="M 392.254754 201.117677 
L 393.809091 196.924344 
L 396.231155 200.683813 
L 392.254754 201.117677 
z
" style="stroke:#000000;stroke-linecap:round;"/>
   </g>
   <g id="patch_22">
    <path clip-path="url(#p1e99725c77)" d="M 409.332685 325.553699 
Q 412.678269 337.168624 415.714394 347.709196 
" style="fill:none;stroke:#000000;stroke-linecap:round;"/>
    <path clip-path="url(#p1e99725c77)" d="M 416.529102 343.311895 
L 415.714394 347.709196 
L 412.685379 344.419049 
L 416.529102 343.311895 
z
" style="stroke:#000000;stroke-linecap:round;"/>
   </g>
   <g id="patch_23">
    <path clip-path="url(#p1e99725c77)" d="M 406.455343 325.881668 
Q 404.421174 362.492122 402.44903 397.986264 
" style="fill:none;stroke:#000000;stroke-linecap:round;"/>
    <path clip-path="url(#p1e99725c77)" d="M 404.667858 394.103378 
L 402.44903 397.986264 
L 400.674018 393.881471 
L 404.667858 394.103378 
z
" style="stroke:#000000;stroke-linecap:round;"/>
   </g>
   <g id="patch_24">
    <path clip-path="url(#p1e99725c77)" d="M 406.375392 325.871348 
Q 404.510385 354.615088 402.717768 382.243141 
" style="fill:none;stroke:#000000;stroke-linecap:round;"/>
    <path clip-path="url(#p1e99725c77)" d="M 404.972563 378.38103 
L 402.717768 382.243141 
L 400.980956 378.122038 
L 404.972563 378.38103 
z
" style="stroke:#000000;stroke-linecap:round;"/>
   </g>
   <g id="patch_25">
    <path clip-path="url(#p1e99725c77)" d="M 405.091317 325.696643 
Q 398.563582 355.649292 392.273918 384.509548 
" style="fill:none;stroke:#000000;stroke-linecap:round;"/>
    <path clip-path="url(#p1e99725c77)" d="M 395.079798 381.027158 
L 392.273918 384.509548 
L 391.171534 380.17541 
L 395.079798 381.027158 
z
" style="stroke:#000000;stroke-linecap:round;"/>
   </g>
   <g id="patch_26">
    <path clip-path="url(#p1e99725c77)" d="M 405.967614 325.83739 
Q 403.681029 346.157103 401.519467 365.365795 
" style="fill:none;stroke:#000000;stroke-linecap:round;"/>
    <path clip-path="url(#p1e99725c77)" d="M 403.954221 361.614532 
L 401.519467 365.365795 
L 399.979309 361.167234 
L 403.954221 361.614532 
z
" style="stroke:#000000;stroke-linecap:round;"/>
   </g>
   <g id="patch_27">
    <path clip-path="url(#p1e99725c77)" d="M 408.239904 325.79106 
Q 412.394302 353.05684 416.380292 379.217343 
" style="fill:none;stroke:#000000;stroke-linecap:round;"/>
    <path clip-path="url(#p1e99725c77)" d="M 417.75496 374.961724 
L 416.380292 379.217343 
L 413.800598 375.564238 
L 417.75496 374.961724 
z
" style="stroke:#000000;stroke-linecap:round;"/>
   </g>
   <g id="patch_28">
    <path clip-path="url(#p1e99725c77)" d="M 408.334213 325.780285 
Q 411.714978 346.446077 414.915241 366.008502 
" style="fill:none;stroke:#000000;stroke-linecap:round;"/>
    <path clip-path="url(#p1e99725c77)" d="M 416.243219 361.738084 
L 414.915241 366.008502 
L 412.295693 362.383868 
L 416.243219 361.738084 
z
" style="stroke:#000000;stroke-linecap:round;"/>
   </g>
   <g id="patch_29">
    <path clip-path="url(#p1e99725c77)" d="M 613.892015 311.340071 
Q 572.490239 326.089936 532.141656 340.464587 
" style="fill:none;stroke:#000000;stroke-linecap:round;"/>
    <path clip-path="url(#p1e99725c77)" d="M 536.580875 341.006196 
L 532.141656 340.464587 
L 535.238474 337.238178 
L 536.580875 341.006196 
z
" style="stroke:#000000;stroke-linecap:round;"/>
   </g>
   <g id="patch_30">
    <path clip-path="url(#p1e99725c77)" d="M 372.165264 205.367862 
Q 284.447634 219.480869 197.833842 233.416277 
" style="fill:none;stroke:#000000;stroke-linecap:round;"/>
    <path clip-path="url(#p1e99725c77)" d="M 202.100751 234.755489 
L 197.833842 233.416277 
L 201.465357 230.806277 
L 202.100751 234.755489 
z
" style="stroke:#000000;stroke-linecap:round;"/>
   </g>
   <g id="patch_31">
    <path clip-path="url(#p1e99725c77)" d="M 388.285387 199.784191 
Q 467.394503 155.800571 545.526461 112.360239 
" style="fill:none;stroke:#000000;stroke-linecap:round;"/>
    <path clip-path="url(#p1e99725c77)" d="M 541.05861 112.555968 
L 545.526461 112.360239 
L 543.002334 116.051957 
L 541.05861 112.555968 
z
" style="stroke:#000000;stroke-linecap:round;"/>
   </g>
   <g id="patch_32">
    <path clip-path="url(#p1e99725c77)" d="M 384.317603 189.173656 
Q 290.464942 211.087211 197.70103 232.746555 
" style="fill:none;stroke:#000000;stroke-linecap:round;"/>
    <path clip-path="url(#p1e99725c77)" d="M 202.051008 233.784678 
L 197.70103 232.746555 
L 201.141514 229.889447 
L 202.051008 233.784678 
z
" style="stroke:#000000;stroke-linecap:round;"/>
   </g>
   <g id="patch_33">
    <path clip-path="url(#p1e99725c77)" d="M 400.515126 183.373148 
Q 473.411391 147.406439 545.305021 111.934425 
" style="fill:none;stroke:#000000;stroke-linecap:round;"/>
    <path clip-path="url(#p1e99725c77)" d="M 540.832947 111.910735 
L 545.305021 111.934425 
L 542.602824 115.497869 
L 540.832947 111.910735 
z
" style="stroke:#000000;stroke-linecap:round;"/>
   </g>
   <g id="patch_34">
    <path clip-path="url(#p1e99725c77)" d="M 445.750366 255.313733 
Q 428.642293 282.605485 412.128042 308.94994 
" style="fill:none;stroke:#000000;stroke-linecap:round;"/>
    <path clip-path="url(#p1e99725c77)" d="M 415.947146 306.623043 
L 412.128042 308.94994 
L 412.557987 304.498519 
L 415.947146 306.623043 
z
" style="stroke:#000000;stroke-linecap:round;"/>
   </g>
   <g id="patch_35">
    <path clip-path="url(#p1e99725c77)" d="M 483.263497 382.761439 
Q 537.557555 419.384387 590.924729 455.382124 
" style="fill:none;stroke:#000000;stroke-linecap:round;"/>
    <path clip-path="url(#p1e99725c77)" d="M 588.727021 451.487245 
L 590.924729 455.382124 
L 586.490202 454.803363 
L 588.727021 451.487245 
z
" style="stroke:#000000;stroke-linecap:round;"/>
   </g>
   <g id="patch_36">
    <path clip-path="url(#p1e99725c77)" d="M 467.435282 377.59604 
Q 329.295165 372.425356 192.272299 367.296491 
" style="fill:none;stroke:#000000;stroke-linecap:round;"/>
    <path clip-path="url(#p1e99725c77)" d="M 196.194691 369.444709 
L 192.272299 367.296491 
L 196.344309 365.447509 
L 196.194691 369.444709 
z
" style="stroke:#000000;stroke-linecap:round;"/>
   </g>
   <g id="patch_37">
    <path clip-path="url(#p1e99725c77)" d="M 484.720254 378.571709 
Q 583.135204 386.001691 680.435293 393.347505 
" style="fill:none;stroke:#000000;stroke-linecap:round;"/>
    <path clip-path="url(#p1e99725c77)" d="M 676.597208 391.052051 
L 680.435293 393.347505 
L 676.296079 395.0407 
L 676.597208 391.052051 
z
" style="stroke:#000000;stroke-linecap:round;"/>
   </g>
   <g id="patch_38">
    <path clip-path="url(#p1e99725c77)" d="M 569.189887 233.425432 
Q 562.940889 209.478895 556.974194 186.614163 
" style="fill:none;stroke:#000000;stroke-linecap:round;"/>
    <path clip-path="url(#p1e99725c77)" d="M 556.049002 190.989551 
L 556.974194 186.614163 
L 559.919389 189.97955 
L 556.049002 190.989551 
z
" style="stroke:#000000;stroke-linecap:round;"/>
   </g>
   <g id="patch_39">
    <path clip-path="url(#p1e99725c77)" d="M 546.299999 174.3871 
Q 453.985338 143.240176 362.730039 112.450681 
" style="fill:none;stroke:#000000;stroke-linecap:round;"/>
    <path clip-path="url(#p1e99725c77)" d="M 365.880737 115.624496 
L 362.730039 112.450681 
L 367.159509 111.834411 
L 365.880737 115.624496 
z
" style="stroke:#000000;stroke-linecap:round;"/>
   </g>
   <g id="patch_40">
    <path clip-path="url(#p1e99725c77)" d="M 561.834476 181.765394 
Q 636.999266 229.043785 711.21767 275.726901 
" style="fill:none;stroke:#000000;stroke-linecap:round;"/>
    <path clip-path="url(#p1e99725c77)" d="M 708.896631 271.904235 
L 711.21767 275.726901 
L 706.766913 275.290132 
L 708.896631 271.904235 
z
" style="stroke:#000000;stroke-linecap:round;"/>
   </g>
   <g id="patch_41">
    <path clip-path="url(#p1e99725c77)" d="M 526.181086 456.435714 
Q 503.462525 420.828254 481.345325 386.163325 
" style="fill:none;stroke:#000000;stroke-linecap:round;"/>
    <path clip-path="url(#p1e99725c77)" d="M 481.81077 390.611175 
L 481.345325 386.163325 
L 485.182871 388.459679 
L 481.81077 390.611175 
z
" style="stroke:#000000;stroke-linecap:round;"/>
   </g>
   <g id="patch_42">
    <path clip-path="url(#p1e99725c77)" d="M 310.7241 275.536533 
Q 354.855919 294.66235 397.961897 313.343589 
" style="fill:none;stroke:#000000;stroke-linecap:round;"/>
    <path clip-path="url(#p1e99725c77)" d="M 395.087022 309.917936 
L 397.961897 313.343589 
L 393.496451 313.588097 
L 395.087022 309.917936 
z
" style="stroke:#000000;stroke-linecap:round;"/>
   </g>
   <g id="patch_43">
    <path clip-path="url(#p1e99725c77)" d="M 540.615504 372.128465 
Q 483.816203 365.146135 428.126583 358.300218 
" style="fill:none;stroke:#000000;stroke-linecap:round;"/>
    <path clip-path="url(#p1e99725c77)" d="M 431.852675 360.773321 
L 428.126583 358.300218 
L 432.340721 356.803207 
L 431.852675 360.773321 
z
" style="stroke:#000000;stroke-linecap:round;"/>
   </g>
   <g id="patch_44">
    <path clip-path="url(#p1e99725c77)" d="M 543.444271 366.727202 
Q 536.070693 358.467058 529.441655 351.040976 
" style="fill:none;stroke:#000000;stroke-linecap:round;"/>
    <path clip-path="url(#p1e99725c77)" d="M 530.613393 355.356881 
L 529.441655 351.040976 
L 533.597421 352.693129 
L 530.613393 355.356881 
z
" style="stroke:#000000;stroke-linecap:round;"/>
   </g>
   <g id="patch_45">
    <path clip-path="url(#p1e99725c77)" d="M 388.594776 260.683901 
Q 402.228751 304.759701 415.53233 347.7674 
" style="fill:none;stroke:#000000;stroke-linecap:round;"/>
    <path clip-path="url(#p1e99725c77)" d="M 416.260947 343.355018 
L 415.53233 347.7674 
L 412.439595 344.537078 
L 416.260947 343.355018 
z
" style="stroke:#000000;stroke-linecap:round;"/>
   </g>
   <g id="patch_46">
    <path clip-path="url(#p1e99725c77)" d="M 385.090379 243.803071 
Q 383.376573 228.200805 381.784841 213.709888 
" style="fill:none;stroke:#000000;stroke-linecap:round;"/>
    <path clip-path="url(#p1e99725c77)" d="M 380.233545 217.904347 
L 381.784841 213.709888 
L 384.20963 217.4676 
L 380.233545 217.904347 
z
" style="stroke:#000000;stroke-linecap:round;"/>
   </g>
   <g id="patch_47">
    <path clip-path="url(#p1e99725c77)" d="M 386.923019 243.795428 
Q 389.392254 219.809131 391.746999 196.93499 
" style="fill:none;stroke:#000000;stroke-linecap:round;"/>
    <path clip-path="url(#p1e99725c77)" d="M 389.347903 200.709158 
L 391.746999 196.93499 
L 393.326876 201.118767 
L 389.347903 200.709158 
z
" style="stroke:#000000;stroke-linecap:round;"/>
   </g>
   <g id="patch_48">
    <path clip-path="url(#p1e99725c77)" d="M 293.775423 367.540393 
Q 346.39981 344.145214 398.002572 321.204217 
" style="fill:none;stroke:#000000;stroke-linecap:round;"/>
    <path clip-path="url(#p1e99725c77)" d="M 393.535028 321.001613 
L 398.002572 321.204217 
L 395.159963 324.65669 
L 393.535028 321.001613 
z
" style="stroke:#000000;stroke-linecap:round;"/>
   </g>
   <g id="patch_49">
    <path clip-path="url(#p1e99725c77)" d="M 410.271611 410.002971 
Q 500.47221 434.3014 589.59326 458.309018 
" style="fill:none;stroke:#000000;stroke-linecap:round;"/>
    <path clip-path="url(#p1e99725c77)" d="M 586.251163 455.337421 
L 589.59326 458.309018 
L 585.210724 459.199737 
L 586.251163 455.337421 
z
" style="stroke:#000000;stroke-linecap:round;"/>
   </g>
   <g id="patch_50">
    <path clip-path="url(#p1e99725c77)" d="M 393.392847 406.165674 
Q 292.201516 387.339917 192.10936 368.718652 
" style="fill:none;stroke:#000000;stroke-linecap:round;"/>
    <path clip-path="url(#p1e99725c77)" d="M 195.676078 371.416525 
L 192.10936 368.718652 
L 196.407689 367.484001 
L 195.676078 371.416525 
z
" style="stroke:#000000;stroke-linecap:round;"/>
   </g>
   <g id="patch_51">
    <path clip-path="url(#p1e99725c77)" d="M 410.559033 407.339408 
Q 546.048913 400.916584 680.422013 394.5467 
" style="fill:none;stroke:#000000;stroke-linecap:round;"/>
    <path clip-path="url(#p1e99725c77)" d="M 676.331797 392.738348 
L 680.422013 394.5467 
L 676.521202 396.733862 
L 676.331797 392.738348 
z
" style="stroke:#000000;stroke-linecap:round;"/>
   </g>
   <g id="patch_52">
    <path clip-path="url(#p1e99725c77)" d="M 393.980086 404.251773 
Q 284.005075 355.721874 175.052934 307.643349 
" style="fill:none;stroke:#000000;stroke-linecap:round;"/>
    <path clip-path="url(#p1e99725c77)" d="M 177.905023 311.087995 
L 175.052934 307.643349 
L 179.519904 307.428465 
L 177.905023 311.087995 
z
" style="stroke:#000000;stroke-linecap:round;"/>
   </g>
   <g id="patch_53">
    <path clip-path="url(#p1e99725c77)" d="M 399.957655 416.191821 
Q 394.241371 440.953623 388.776571 464.626042 
" style="fill:none;stroke:#000000;stroke-linecap:round;"/>
    <path clip-path="url(#p1e99725c77)" d="M 391.625059 461.178417 
L 388.776571 464.626042 
L 387.727564 460.278677 
L 391.625059 461.178417 
z
" style="stroke:#000000;stroke-linecap:round;"/>
   </g>
   <g id="patch_54">
    <path clip-path="url(#p1e99725c77)" d="M 410.261868 394.858991 
Q 500.559297 426.426223 589.801326 457.624495 
" style="fill:none;stroke:#000000;stroke-linecap:round;"/>
    <path clip-path="url(#p1e99725c77)" d="M 586.685426 454.41651 
L 589.801326 457.624495 
L 585.365398 458.192424 
L 586.685426 454.41651 
z
" style="stroke:#000000;stroke-linecap:round;"/>
   </g>
   <g id="patch_55">
    <path clip-path="url(#p1e99725c77)" d="M 393.483649 391.018354 
Q 292.293821 379.465734 192.214811 368.039933 
" style="fill:none;stroke:#000000;stroke-linecap:round;"/>
    <path clip-path="url(#p1e99725c77)" d="M 195.962133 370.480748 
L 192.214811 368.039933 
L 196.415857 366.506565 
L 195.962133 370.480748 
z
" style="stroke:#000000;stroke-linecap:round;"/>
   </g>
   <g id="patch_56">
    <path clip-path="url(#p1e99725c77)" d="M 410.740608 392.062912 
Q 546.13398 393.042026 680.409348 394.013056 
" style="fill:none;stroke:#000000;stroke-linecap:round;"/>
    <path clip-path="url(#p1e99725c77)" d="M 676.423915 391.984182 
L 680.409348 394.013056 
L 676.39499 395.984078 
L 676.423915 391.984182 
z
" style="stroke:#000000;stroke-linecap:round;"/>
   </g>
   <g id="patch_57">
    <path clip-path="url(#p1e99725c77)" d="M 393.97219 388.964555 
Q 284.094868 347.847591 175.264666 307.122467 
" style="fill:none;stroke:#000000;stroke-linecap:round;"/>
    <path clip-path="url(#p1e99725c77)" d="M 178.310011 310.397504 
L 175.264666 307.122467 
L 179.711903 306.651213 
L 178.310011 310.397504 
z
" style="stroke:#000000;stroke-linecap:round;"/>
   </g>
   <g id="patch_58">
    <path clip-path="url(#p1e99725c77)" d="M 400.478011 400.511895 
Q 394.330708 433.078097 388.390787 464.545666 
" style="fill:none;stroke:#000000;stroke-linecap:round;"/>
    <path clip-path="url(#p1e99725c77)" d="M 391.098031 460.986055 
L 388.390787 464.545666 
L 387.167444 460.244105 
L 391.098031 460.986055 
z
" style="stroke:#000000;stroke-linecap:round;"/>
   </g>
   <g id="patch_59">
    <path clip-path="url(#p1e99725c77)" d="M 398.442896 396.69834 
Q 494.61419 427.456219 589.720588 457.873518 
" style="fill:none;stroke:#000000;stroke-linecap:round;"/>
    <path clip-path="url(#p1e99725c77)" d="M 586.519943 454.750078 
L 589.720588 457.873518 
L 585.301449 458.559969 
L 586.519943 454.750078 
z
" style="stroke:#000000;stroke-linecap:round;"/>
   </g>
   <g id="patch_60">
    <path clip-path="url(#p1e99725c77)" d="M 381.607353 392.938292 
Q 286.347413 380.495413 192.196091 368.197343 
" style="fill:none;stroke:#000000;stroke-linecap:round;"/>
    <path clip-path="url(#p1e99725c77)" d="M 195.903358 370.698577 
L 192.196091 368.197343 
L 196.421438 366.732269 
L 195.903358 370.698577 
z
" style="stroke:#000000;stroke-linecap:round;"/>
   </g>
   <g id="patch_61">
    <path clip-path="url(#p1e99725c77)" d="M 398.848771 394.060394 
Q 540.186059 394.071734 680.405313 394.082983 
" style="fill:none;stroke:#000000;stroke-linecap:round;"/>
    <path clip-path="url(#p1e99725c77)" d="M 676.405473 392.082663 
L 680.405313 394.082983 
L 676.405152 396.082663 
L 676.405473 392.082663 
z
" style="stroke:#000000;stroke-linecap:round;"/>
   </g>
   <g id="patch_62">
    <path clip-path="url(#p1e99725c77)" d="M 382.160684 390.820772 
Q 278.150308 348.877869 175.176831 307.353103 
" style="fill:none;stroke:#000000;stroke-linecap:round;"/>
    <path clip-path="url(#p1e99725c77)" d="M 178.138571 310.703938 
L 175.176831 307.353103 
L 179.634543 306.994213 
L 178.138571 310.703938 
z
" style="stroke:#000000;stroke-linecap:round;"/>
   </g>
   <g id="patch_63">
    <path clip-path="url(#p1e99725c77)" d="M 408.375154 378.514852 
Q 499.729263 417.966729 590.056962 456.975344 
" style="fill:none;stroke:#000000;stroke-linecap:round;"/>
    <path clip-path="url(#p1e99725c77)" d="M 587.177695 453.553382 
L 590.056962 456.975344 
L 585.591832 457.22558 
L 587.177695 453.553382 
z
" style="stroke:#000000;stroke-linecap:round;"/>
   </g>
   <g id="patch_64">
    <path clip-path="url(#p1e99725c77)" d="M 391.770317 374.758239 
Q 291.462886 371.006347 192.272708 367.296244 
" style="fill:none;stroke:#000000;stroke-linecap:round;"/>
    <path clip-path="url(#p1e99725c77)" d="M 196.195157 369.444358 
L 192.272708 367.296244 
L 196.344668 365.447153 
L 196.195157 369.444358 
z
" style="stroke:#000000;stroke-linecap:round;"/>
   </g>
   <g id="patch_65">
    <path clip-path="url(#p1e99725c77)" d="M 409.069954 375.64884 
Q 545.307082 384.5829 680.428573 393.443799 
" style="fill:none;stroke:#000000;stroke-linecap:round;"/>
    <path clip-path="url(#p1e99725c77)" d="M 676.568019 391.186339 
L 680.428573 393.443799 
L 676.306272 395.177766 
L 676.568019 391.186339 
z
" style="stroke:#000000;stroke-linecap:round;"/>
   </g>
   <g id="patch_66">
    <path clip-path="url(#p1e99725c77)" d="M 392.141794 372.558145 
Q 283.264357 339.388088 175.456422 306.54386 
" style="fill:none;stroke:#000000;stroke-linecap:round;"/>
    <path clip-path="url(#p1e99725c77)" d="M 178.699929 309.622766 
L 175.456422 306.54386 
L 179.865651 305.796398 
L 178.699929 309.622766 
z
" style="stroke:#000000;stroke-linecap:round;"/>
   </g>
   <g id="patch_67">
    <path clip-path="url(#p1e99725c77)" d="M 425.900789 392.079763 
Q 508.442746 424.867275 589.945643 457.242049 
" style="fill:none;stroke:#000000;stroke-linecap:round;"/>
    <path clip-path="url(#p1e99725c77)" d="M 586.966515 453.906663 
L 589.945643 457.242049 
L 585.489858 457.62412 
L 586.966515 453.906663 
z
" style="stroke:#000000;stroke-linecap:round;"/>
   </g>
   <g id="patch_68">
    <path clip-path="url(#p1e99725c77)" d="M 409.230491 388.078755 
Q 300.177004 377.906943 192.23672 367.838964 
" style="fill:none;stroke:#000000;stroke-linecap:round;"/>
    <path clip-path="url(#p1e99725c77)" d="M 196.033692 370.201802 
L 192.23672 367.838964 
L 196.405174 366.219089 
L 196.033692 370.201802 
z
" style="stroke:#000000;stroke-linecap:round;"/>
   </g>
   <g id="patch_69">
    <path clip-path="url(#p1e99725c77)" d="M 426.508916 389.04831 
Q 554.017041 391.483326 680.407335 393.896995 
" style="fill:none;stroke:#000000;stroke-linecap:round;"/>
    <path clip-path="url(#p1e99725c77)" d="M 676.446251 391.820986 
L 680.407335 393.896995 
L 676.369877 395.820257 
L 676.446251 391.820986 
z
" style="stroke:#000000;stroke-linecap:round;"/>
   </g>
   <g id="patch_70">
    <path clip-path="url(#p1e99725c77)" d="M 409.651719 386.1078 
Q 291.979597 346.289141 175.366518 306.828848 
" style="fill:none;stroke:#000000;stroke-linecap:round;"/>
    <path clip-path="url(#p1e99725c77)" d="M 178.514403 310.005453 
L 175.366518 306.828848 
L 179.796533 306.216503 
L 178.514403 310.005453 
z
" style="stroke:#000000;stroke-linecap:round;"/>
   </g>
   <g id="patch_71">
    <path clip-path="url(#p1e99725c77)" d="M 424.339995 379.31907 
Q 507.762013 418.253733 590.170907 456.715551 
" style="fill:none;stroke:#000000;stroke-linecap:round;"/>
    <path clip-path="url(#p1e99725c77)" d="M 587.392097 453.211523 
L 590.170907 456.715551 
L 585.700399 456.836182 
L 587.392097 453.211523 
z
" style="stroke:#000000;stroke-linecap:round;"/>
   </g>
   <g id="patch_72">
    <path clip-path="url(#p1e99725c77)" d="M 407.842391 375.334406 
Q 299.497814 371.293909 192.270495 367.295078 
" style="fill:none;stroke:#000000;stroke-linecap:round;"/>
    <path clip-path="url(#p1e99725c77)" d="M 196.193182 369.442757 
L 192.270495 367.295078 
L 196.342251 365.445536 
L 196.193182 369.442757 
z
" style="stroke:#000000;stroke-linecap:round;"/>
   </g>
   <g id="patch_73">
    <path clip-path="url(#p1e99725c77)" d="M 425.134303 376.238778 
Q 553.33951 384.870328 680.429208 393.426775 
" style="fill:none;stroke:#000000;stroke-linecap:round;"/>
    <path clip-path="url(#p1e99725c77)" d="M 676.572591 391.162597 
L 680.429208 393.426775 
L 676.303895 395.153562 
L 676.572591 391.162597 
z
" style="stroke:#000000;stroke-linecap:round;"/>
   </g>
   <g id="patch_74">
    <path clip-path="url(#p1e99725c77)" d="M 408.168545 373.264384 
Q 291.297988 339.67559 175.501967 306.39562 
" style="fill:none;stroke:#000000;stroke-linecap:round;"/>
    <path clip-path="url(#p1e99725c77)" d="M 178.793905 309.422689 
L 175.501967 306.39562 
L 179.898785 305.578311 
L 178.793905 309.422689 
z
" style="stroke:#000000;stroke-linecap:round;"/>
   </g>
   <g id="patch_75">
    <path clip-path="url(#p1e99725c77)" d="M 445.323809 370.915269 
Q 421.75071 380.811406 399.20849 390.274774 
" style="fill:none;stroke:#000000;stroke-linecap:round;"/>
    <path clip-path="url(#p1e99725c77)" d="M 403.670834 390.570542 
L 399.20849 390.274774 
L 402.122512 386.882359 
L 403.670834 390.570542 
z
" style="stroke:#000000;stroke-linecap:round;"/>
   </g>
   <g id="patch_76">
    <path clip-path="url(#p1e99725c77)" d="M 444.733597 368.782121 
Q 426.86754 371.322413 410.108383 373.70532 
" style="fill:none;stroke:#000000;stroke-linecap:round;"/>
    <path clip-path="url(#p1e99725c77)" d="M 414.350091 375.122327 
L 410.108383 373.70532 
L 413.787013 371.162157 
L 414.350091 375.122327 
z
" style="stroke:#000000;stroke-linecap:round;"/>
   </g>
   <g id="patch_77">
    <path clip-path="url(#p1e99725c77)" d="M 445.889037 372.02483 
Q 435.582583 378.222145 426.234284 383.843318 
" style="fill:none;stroke:#000000;stroke-linecap:round;"/>
    <path clip-path="url(#p1e99725c77)" d="M 430.692916 383.496047 
L 426.234284 383.843318 
L 428.631646 380.068049 
L 430.692916 383.496047 
z
" style="stroke:#000000;stroke-linecap:round;"/>
   </g>
   <g id="patch_78">
    <path clip-path="url(#p1e99725c77)" d="M 444.847274 369.423263 
Q 434.898245 371.610639 426.041171 373.55794 
" style="fill:none;stroke:#000000;stroke-linecap:round;"/>
    <path clip-path="url(#p1e99725c77)" d="M 430.377324 374.652368 
L 426.041171 373.55794 
L 429.518405 370.745674 
L 430.377324 374.652368 
z
" style="stroke:#000000;stroke-linecap:round;"/>
   </g>
   <g id="PathCollection_1">
    <defs>
     <path d="M 0 8.660254 
C 2.296726 8.660254 4.499694 7.747755 6.123724 6.123724 
C 7.747755 4.499694 8.660254 2.296726 8.660254 -0 
C 8.660254 -2.296726 7.747755 -4.499694 6.123724 -6.123724 
C 4.499694 -7.747755 2.296726 -8.660254 0 -8.660254 
C -2.296726 -8.660254 -4.499694 -7.747755 -6.123724 -6.123724 
C -7.747755 -4.499694 -8.660254 -2.296726 -8.660254 0 
C -8.660254 2.296726 -7.747755 4.499694 -6.123724 6.123724 
C -4.499694 7.747755 -2.296726 8.660254 0 8.660254 
z
" id="C0_0_9930d24afd"/>
    </defs>
    <g clip-path="url(#p1e99725c77)">
     <use style="fill:#ff0000;stroke:#ff0000;" x="515.709203" xlink:href="#C0_0_9930d24afd" y="440.683686"/>
    </g>
    <g clip-path="url(#p1e99725c77)">
     <use style="fill:#ff0000;stroke:#ff0000;" x="464.241793" xlink:href="#C0_0_9930d24afd" y="325.511095"/>
    </g>
    <g clip-path="url(#p1e99725c77)">
     <use style="fill:#ff0000;stroke:#ff0000;" x="418.4214" xlink:href="#C0_0_9930d24afd" y="357.107162"/>
    </g>
    <g clip-path="url(#p1e99725c77)">
     <use style="fill:#ff0000;stroke:#ff0000;" x="386.577327" xlink:href="#C0_0_9930d24afd" y="474.152727"/>
    </g>
    <g clip-path="url(#p1e99725c77)">
     <use style="fill:#ff0000;stroke:#ff0000;" x="324.400619" xlink:href="#C0_0_9930d24afd" y="348.663646"/>
    </g>
    <g clip-path="url(#p1e99725c77)">
     <use style="fill:#ff0000;stroke:#ff0000;" x="522.929972" xlink:href="#C0_0_9930d24afd" y="343.746357"/>
    </g>
    <g clip-path="url(#p1e99725c77)">
     <use style="fill:#ff0000;stroke:#ff0000;" x="406.9359" xlink:href="#C0_0_9930d24afd" y="317.232735"/>
    </g>
    <g clip-path="url(#p1e99725c77)">
     <use style="fill:#ff0000;stroke:#ff0000;" x="622.050195" xlink:href="#C0_0_9930d24afd" y="308.433625"/>
    </g>
    <g clip-path="url(#p1e99725c77)">
     <use style="fill:#ff0000;stroke:#ff0000;" x="380.717384" xlink:href="#C0_0_9930d24afd" y="203.9919"/>
    </g>
    <g clip-path="url(#p1e99725c77)">
     <use style="fill:#ff0000;stroke:#ff0000;" x="392.748628" xlink:href="#C0_0_9930d24afd" y="187.205106"/>
    </g>
    <g clip-path="url(#p1e99725c77)">
     <use style="fill:#ff0000;stroke:#ff0000;" x="188.181567" xlink:href="#C0_0_9930d24afd" y="234.969244"/>
    </g>
    <g clip-path="url(#p1e99725c77)">
     <use style="fill:#ff0000;stroke:#ff0000;" x="554.075165" xlink:href="#C0_0_9930d24afd" y="107.607273"/>
    </g>
    <g clip-path="url(#p1e99725c77)">
     <use style="fill:#ff0000;stroke:#ff0000;" x="450.347478" xlink:href="#C0_0_9930d24afd" y="247.980162"/>
    </g>
    <g clip-path="url(#p1e99725c77)">
     <use style="fill:#ff0000;stroke:#ff0000;" x="476.085745" xlink:href="#C0_0_9930d24afd" y="377.919834"/>
    </g>
    <g clip-path="url(#p1e99725c77)">
     <use style="fill:#ff0000;stroke:#ff0000;" x="571.375846" xlink:href="#C0_0_9930d24afd" y="241.802155"/>
    </g>
    <g clip-path="url(#p1e99725c77)">
     <use style="fill:#ff0000;stroke:#ff0000;" x="554.505973" xlink:href="#C0_0_9930d24afd" y="177.155792"/>
    </g>
    <g clip-path="url(#p1e99725c77)">
     <use style="fill:#ff0000;stroke:#ff0000;" x="530.837892" xlink:href="#C0_0_9930d24afd" y="463.734462"/>
    </g>
    <g clip-path="url(#p1e99725c77)">
     <use style="fill:#ff0000;stroke:#ff0000;" x="302.780881" xlink:href="#C0_0_9930d24afd" y="272.094106"/>
    </g>
    <g clip-path="url(#p1e99725c77)">
     <use style="fill:#ff0000;stroke:#ff0000;" x="549.208805" xlink:href="#C0_0_9930d24afd" y="373.184838"/>
    </g>
    <g clip-path="url(#p1e99725c77)">
     <use style="fill:#ff0000;stroke:#ff0000;" x="386.036006" xlink:href="#C0_0_9930d24afd" y="252.41193"/>
    </g>
    <g clip-path="url(#p1e99725c77)">
     <use style="fill:#ff0000;stroke:#ff0000;" x="599.034291" xlink:href="#C0_0_9930d24afd" y="460.852263"/>
    </g>
    <g clip-path="url(#p1e99725c77)">
     <use style="fill:#ff0000;stroke:#ff0000;" x="182.4986" xlink:href="#C0_0_9930d24afd" y="366.930654"/>
    </g>
    <g clip-path="url(#p1e99725c77)">
     <use style="fill:#ff0000;stroke:#ff0000;" x="690.187582" xlink:href="#C0_0_9930d24afd" y="394.083768"/>
    </g>
    <g clip-path="url(#p1e99725c77)">
     <use style="fill:#ff0000;stroke:#ff0000;" x="285.864867" xlink:href="#C0_0_9930d24afd" y="371.057182"/>
    </g>
    <g clip-path="url(#p1e99725c77)">
     <use style="fill:#ff0000;stroke:#ff0000;" x="166.105785" xlink:href="#C0_0_9930d24afd" y="303.695141"/>
    </g>
    <g clip-path="url(#p1e99725c77)">
     <use style="fill:#ff0000;stroke:#ff0000;" x="401.906556" xlink:href="#C0_0_9930d24afd" y="407.749574"/>
    </g>
    <g clip-path="url(#p1e99725c77)">
     <use style="fill:#ff0000;stroke:#ff0000;" x="402.084685" xlink:href="#C0_0_9930d24afd" y="392.000315"/>
    </g>
    <g clip-path="url(#p1e99725c77)">
     <use style="fill:#ff0000;stroke:#ff0000;" x="390.192605" xlink:href="#C0_0_9930d24afd" y="394.059699"/>
    </g>
    <g clip-path="url(#p1e99725c77)">
     <use style="fill:#ff0000;stroke:#ff0000;" x="400.426098" xlink:href="#C0_0_9930d24afd" y="375.082"/>
    </g>
    <g clip-path="url(#p1e99725c77)">
     <use style="fill:#ff0000;stroke:#ff0000;" x="417.853018" xlink:href="#C0_0_9930d24afd" y="388.883009"/>
    </g>
    <g clip-path="url(#p1e99725c77)">
     <use style="fill:#ff0000;stroke:#ff0000;" x="416.493667" xlink:href="#C0_0_9930d24afd" y="375.657038"/>
    </g>
    <g clip-path="url(#p1e99725c77)">
     <use style="fill:#ff0000;stroke:#ff0000;" x="453.309763" xlink:href="#C0_0_9930d24afd" y="367.562715"/>
    </g>
    <g clip-path="url(#p1e99725c77)">
     <use style="fill:#ff0000;stroke:#ff0000;" x="353.464211" xlink:href="#C0_0_9930d24afd" y="109.324395"/>
    </g>
    <g clip-path="url(#p1e99725c77)">
     <use style="fill:#ff0000;stroke:#ff0000;" x="719.494215" xlink:href="#C0_0_9930d24afd" y="280.932819"/>
    </g>
   </g>
   <g id="text_1">
    <g clip-path="url(#p1e99725c77)">
     <!-- IKBKB -->
     <g transform="translate(497.836703 443.994936)scale(0.12 -0.12)">
      <defs>
       <path d="M 9.8125 72.90625 
L 19.671875 72.90625 
L 19.671875 0 
L 9.8125 0 
z
" id="DejaVuSans-73"/>
       <path d="M 9.8125 72.90625 
L 19.671875 72.90625 
L 19.671875 42.09375 
L 52.390625 72.90625 
L 65.09375 72.90625 
L 28.90625 38.921875 
L 67.671875 0 
L 54.6875 0 
L 19.671875 35.109375 
L 19.671875 0 
L 9.8125 0 
z
" id="DejaVuSans-75"/>
       <path d="M 19.671875 34.8125 
L 19.671875 8.109375 
L 35.5 8.109375 
Q 43.453125 8.109375 47.28125 11.40625 
Q 51.125 14.703125 51.125 21.484375 
Q 51.125 28.328125 47.28125 31.5625 
Q 43.453125 34.8125 35.5 34.8125 
z
M 19.671875 64.796875 
L 19.671875 42.828125 
L 34.28125 42.828125 
Q 41.5 42.828125 45.03125 45.53125 
Q 48.578125 48.25 48.578125 53.8125 
Q 48.578125 59.328125 45.03125 62.0625 
Q 41.5 64.796875 34.28125 64.796875 
z
M 9.8125 72.90625 
L 35.015625 72.90625 
Q 46.296875 72.90625 52.390625 68.21875 
Q 58.5 63.53125 58.5 54.890625 
Q 58.5 48.1875 55.375 44.234375 
Q 52.25 40.28125 46.1875 39.3125 
Q 53.46875 37.75 57.5 32.78125 
Q 61.53125 27.828125 61.53125 20.40625 
Q 61.53125 10.640625 54.890625 5.3125 
Q 48.25 0 35.984375 0 
L 9.8125 0 
z
" id="DejaVuSans-66"/>
      </defs>
      <use xlink:href="#DejaVuSans-73"/>
      <use x="29.492188" xlink:href="#DejaVuSans-75"/>
      <use x="95.068359" xlink:href="#DejaVuSans-66"/>
      <use x="163.671875" xlink:href="#DejaVuSans-75"/>
      <use x="229.248047" xlink:href="#DejaVuSans-66"/>
     </g>
    </g>
   </g>
   <g id="text_2">
    <g clip-path="url(#p1e99725c77)">
     <!-- MAP3K7 -->
     <g transform="translate(439.773043 328.822345)scale(0.12 -0.12)">
      <defs>
       <path d="M 9.8125 72.90625 
L 24.515625 72.90625 
L 43.109375 23.296875 
L 61.8125 72.90625 
L 76.515625 72.90625 
L 76.515625 0 
L 66.890625 0 
L 66.890625 64.015625 
L 48.09375 14.015625 
L 38.1875 14.015625 
L 19.390625 64.015625 
L 19.390625 0 
L 9.8125 0 
z
" id="DejaVuSans-77"/>
       <path d="M 34.1875 63.1875 
L 20.796875 26.90625 
L 47.609375 26.90625 
z
M 28.609375 72.90625 
L 39.796875 72.90625 
L 67.578125 0 
L 57.328125 0 
L 50.6875 18.703125 
L 17.828125 18.703125 
L 11.1875 0 
L 0.78125 0 
z
" id="DejaVuSans-65"/>
       <path d="M 19.671875 64.796875 
L 19.671875 37.40625 
L 32.078125 37.40625 
Q 38.96875 37.40625 42.71875 40.96875 
Q 46.484375 44.53125 46.484375 51.125 
Q 46.484375 57.671875 42.71875 61.234375 
Q 38.96875 64.796875 32.078125 64.796875 
z
M 9.8125 72.90625 
L 32.078125 72.90625 
Q 44.34375 72.90625 50.609375 67.359375 
Q 56.890625 61.8125 56.890625 51.125 
Q 56.890625 40.328125 50.609375 34.8125 
Q 44.34375 29.296875 32.078125 29.296875 
L 19.671875 29.296875 
L 19.671875 0 
L 9.8125 0 
z
" id="DejaVuSans-80"/>
       <path d="M 40.578125 39.3125 
Q 47.65625 37.796875 51.625 33 
Q 55.609375 28.21875 55.609375 21.1875 
Q 55.609375 10.40625 48.1875 4.484375 
Q 40.765625 -1.421875 27.09375 -1.421875 
Q 22.515625 -1.421875 17.65625 -0.515625 
Q 12.796875 0.390625 7.625 2.203125 
L 7.625 11.71875 
Q 11.71875 9.328125 16.59375 8.109375 
Q 21.484375 6.890625 26.8125 6.890625 
Q 36.078125 6.890625 40.9375 10.546875 
Q 45.796875 14.203125 45.796875 21.1875 
Q 45.796875 27.640625 41.28125 31.265625 
Q 36.765625 34.90625 28.71875 34.90625 
L 20.21875 34.90625 
L 20.21875 43.015625 
L 29.109375 43.015625 
Q 36.375 43.015625 40.234375 45.921875 
Q 44.09375 48.828125 44.09375 54.296875 
Q 44.09375 59.90625 40.109375 62.90625 
Q 36.140625 65.921875 28.71875 65.921875 
Q 24.65625 65.921875 20.015625 65.03125 
Q 15.375 64.15625 9.8125 62.3125 
L 9.8125 71.09375 
Q 15.4375 72.65625 20.34375 73.4375 
Q 25.25 74.21875 29.59375 74.21875 
Q 40.828125 74.21875 47.359375 69.109375 
Q 53.90625 64.015625 53.90625 55.328125 
Q 53.90625 49.265625 50.4375 45.09375 
Q 46.96875 40.921875 40.578125 39.3125 
z
" id="DejaVuSans-51"/>
       <path d="M 8.203125 72.90625 
L 55.078125 72.90625 
L 55.078125 68.703125 
L 28.609375 0 
L 18.3125 0 
L 43.21875 64.59375 
L 8.203125 64.59375 
z
" id="DejaVuSans-55"/>
      </defs>
      <use xlink:href="#DejaVuSans-77"/>
      <use x="86.279297" xlink:href="#DejaVuSans-65"/>
      <use x="154.6875" xlink:href="#DejaVuSans-80"/>
      <use x="214.990234" xlink:href="#DejaVuSans-51"/>
      <use x="278.613281" xlink:href="#DejaVuSans-75"/>
      <use x="344.189453" xlink:href="#DejaVuSans-55"/>
     </g>
    </g>
   </g>
   <g id="text_3">
    <g clip-path="url(#p1e99725c77)">
     <!-- TRAF6 -->
     <g transform="translate(399.454838 360.418412)scale(0.12 -0.12)">
      <defs>
       <path d="M -0.296875 72.90625 
L 61.375 72.90625 
L 61.375 64.59375 
L 35.5 64.59375 
L 35.5 0 
L 25.59375 0 
L 25.59375 64.59375 
L -0.296875 64.59375 
z
" id="DejaVuSans-84"/>
       <path d="M 44.390625 34.1875 
Q 47.5625 33.109375 50.5625 29.59375 
Q 53.5625 26.078125 56.59375 19.921875 
L 66.609375 0 
L 56 0 
L 46.6875 18.703125 
Q 43.0625 26.03125 39.671875 28.421875 
Q 36.28125 30.8125 30.421875 30.8125 
L 19.671875 30.8125 
L 19.671875 0 
L 9.8125 0 
L 9.8125 72.90625 
L 32.078125 72.90625 
Q 44.578125 72.90625 50.734375 67.671875 
Q 56.890625 62.453125 56.890625 51.90625 
Q 56.890625 45.015625 53.6875 40.46875 
Q 50.484375 35.9375 44.390625 34.1875 
z
M 19.671875 64.796875 
L 19.671875 38.921875 
L 32.078125 38.921875 
Q 39.203125 38.921875 42.84375 42.21875 
Q 46.484375 45.515625 46.484375 51.90625 
Q 46.484375 58.296875 42.84375 61.546875 
Q 39.203125 64.796875 32.078125 64.796875 
z
" id="DejaVuSans-82"/>
       <path d="M 9.8125 72.90625 
L 51.703125 72.90625 
L 51.703125 64.59375 
L 19.671875 64.59375 
L 19.671875 43.109375 
L 48.578125 43.109375 
L 48.578125 34.8125 
L 19.671875 34.8125 
L 19.671875 0 
L 9.8125 0 
z
" id="DejaVuSans-70"/>
       <path d="M 33.015625 40.375 
Q 26.375 40.375 22.484375 35.828125 
Q 18.609375 31.296875 18.609375 23.390625 
Q 18.609375 15.53125 22.484375 10.953125 
Q 26.375 6.390625 33.015625 6.390625 
Q 39.65625 6.390625 43.53125 10.953125 
Q 47.40625 15.53125 47.40625 23.390625 
Q 47.40625 31.296875 43.53125 35.828125 
Q 39.65625 40.375 33.015625 40.375 
z
M 52.59375 71.296875 
L 52.59375 62.3125 
Q 48.875 64.0625 45.09375 64.984375 
Q 41.3125 65.921875 37.59375 65.921875 
Q 27.828125 65.921875 22.671875 59.328125 
Q 17.53125 52.734375 16.796875 39.40625 
Q 19.671875 43.65625 24.015625 45.921875 
Q 28.375 48.1875 33.59375 48.1875 
Q 44.578125 48.1875 50.953125 41.515625 
Q 57.328125 34.859375 57.328125 23.390625 
Q 57.328125 12.15625 50.6875 5.359375 
Q 44.046875 -1.421875 33.015625 -1.421875 
Q 20.359375 -1.421875 13.671875 8.265625 
Q 6.984375 17.96875 6.984375 36.375 
Q 6.984375 53.65625 15.1875 63.9375 
Q 23.390625 74.21875 37.203125 74.21875 
Q 40.921875 74.21875 44.703125 73.484375 
Q 48.484375 72.75 52.59375 71.296875 
z
" id="DejaVuSans-54"/>
      </defs>
      <use xlink:href="#DejaVuSans-84"/>
      <use x="61.083984" xlink:href="#DejaVuSans-82"/>
      <use x="126.566406" xlink:href="#DejaVuSans-65"/>
      <use x="194.974609" xlink:href="#DejaVuSans-70"/>
      <use x="252.494141" xlink:href="#DejaVuSans-54"/>
     </g>
    </g>
   </g>
   <g id="text_4">
    <g clip-path="url(#p1e99725c77)">
     <!-- NFKBIA -->
     <g transform="translate(364.712015 477.463977)scale(0.12 -0.12)">
      <defs>
       <path d="M 9.8125 72.90625 
L 23.09375 72.90625 
L 55.421875 11.921875 
L 55.421875 72.90625 
L 64.984375 72.90625 
L 64.984375 0 
L 51.703125 0 
L 19.390625 60.984375 
L 19.390625 0 
L 9.8125 0 
z
" id="DejaVuSans-78"/>
      </defs>
      <use xlink:href="#DejaVuSans-78"/>
      <use x="74.804688" xlink:href="#DejaVuSans-70"/>
      <use x="132.324219" xlink:href="#DejaVuSans-75"/>
      <use x="197.900391" xlink:href="#DejaVuSans-66"/>
      <use x="266.503906" xlink:href="#DejaVuSans-73"/>
      <use x="295.996094" xlink:href="#DejaVuSans-65"/>
     </g>
    </g>
   </g>
   <g id="text_5">
    <g clip-path="url(#p1e99725c77)">
     <!-- IKBKG -->
     <g transform="translate(305.995619 351.974896)scale(0.12 -0.12)">
      <defs>
       <path d="M 59.515625 10.40625 
L 59.515625 29.984375 
L 43.40625 29.984375 
L 43.40625 38.09375 
L 69.28125 38.09375 
L 69.28125 6.78125 
Q 63.578125 2.734375 56.6875 0.65625 
Q 49.8125 -1.421875 42 -1.421875 
Q 24.90625 -1.421875 15.25 8.5625 
Q 5.609375 18.5625 5.609375 36.375 
Q 5.609375 54.25 15.25 64.234375 
Q 24.90625 74.21875 42 74.21875 
Q 49.125 74.21875 55.546875 72.453125 
Q 61.96875 70.703125 67.390625 67.28125 
L 67.390625 56.78125 
Q 61.921875 61.421875 55.765625 63.765625 
Q 49.609375 66.109375 42.828125 66.109375 
Q 29.4375 66.109375 22.71875 58.640625 
Q 16.015625 51.171875 16.015625 36.375 
Q 16.015625 21.625 22.71875 14.15625 
Q 29.4375 6.6875 42.828125 6.6875 
Q 48.046875 6.6875 52.140625 7.59375 
Q 56.25 8.5 59.515625 10.40625 
z
" id="DejaVuSans-71"/>
      </defs>
      <use xlink:href="#DejaVuSans-73"/>
      <use x="29.492188" xlink:href="#DejaVuSans-75"/>
      <use x="95.068359" xlink:href="#DejaVuSans-66"/>
      <use x="163.671875" xlink:href="#DejaVuSans-75"/>
      <use x="229.248047" xlink:href="#DejaVuSans-71"/>
     </g>
    </g>
   </g>
   <g id="text_6">
    <g clip-path="url(#p1e99725c77)">
     <!-- IL17RA -->
     <g transform="translate(502.148409 347.057607)scale(0.12 -0.12)">
      <defs>
       <path d="M 9.8125 72.90625 
L 19.671875 72.90625 
L 19.671875 8.296875 
L 55.171875 8.296875 
L 55.171875 0 
L 9.8125 0 
z
" id="DejaVuSans-76"/>
       <path d="M 12.40625 8.296875 
L 28.515625 8.296875 
L 28.515625 63.921875 
L 10.984375 60.40625 
L 10.984375 69.390625 
L 28.421875 72.90625 
L 38.28125 72.90625 
L 38.28125 8.296875 
L 54.390625 8.296875 
L 54.390625 0 
L 12.40625 0 
z
" id="DejaVuSans-49"/>
      </defs>
      <use xlink:href="#DejaVuSans-73"/>
      <use x="29.492188" xlink:href="#DejaVuSans-76"/>
      <use x="85.205078" xlink:href="#DejaVuSans-49"/>
      <use x="148.828125" xlink:href="#DejaVuSans-55"/>
      <use x="212.451172" xlink:href="#DejaVuSans-82"/>
      <use x="277.933594" xlink:href="#DejaVuSans-65"/>
     </g>
    </g>
   </g>
   <g id="text_7">
    <g clip-path="url(#p1e99725c77)">
     <!-- TRAF3IP2 -->
     <g transform="translate(378.764025 320.543985)scale(0.12 -0.12)">
      <defs>
       <path d="M 19.1875 8.296875 
L 53.609375 8.296875 
L 53.609375 0 
L 7.328125 0 
L 7.328125 8.296875 
Q 12.9375 14.109375 22.625 23.890625 
Q 32.328125 33.6875 34.8125 36.53125 
Q 39.546875 41.84375 41.421875 45.53125 
Q 43.3125 49.21875 43.3125 52.78125 
Q 43.3125 58.59375 39.234375 62.25 
Q 35.15625 65.921875 28.609375 65.921875 
Q 23.96875 65.921875 18.8125 64.3125 
Q 13.671875 62.703125 7.8125 59.421875 
L 7.8125 69.390625 
Q 13.765625 71.78125 18.9375 73 
Q 24.125 74.21875 28.421875 74.21875 
Q 39.75 74.21875 46.484375 68.546875 
Q 53.21875 62.890625 53.21875 53.421875 
Q 53.21875 48.921875 51.53125 44.890625 
Q 49.859375 40.875 45.40625 35.40625 
Q 44.1875 33.984375 37.640625 27.21875 
Q 31.109375 20.453125 19.1875 8.296875 
z
" id="DejaVuSans-50"/>
      </defs>
      <use xlink:href="#DejaVuSans-84"/>
      <use x="61.083984" xlink:href="#DejaVuSans-82"/>
      <use x="126.566406" xlink:href="#DejaVuSans-65"/>
      <use x="194.974609" xlink:href="#DejaVuSans-70"/>
      <use x="252.494141" xlink:href="#DejaVuSans-51"/>
      <use x="316.117188" xlink:href="#DejaVuSans-73"/>
      <use x="345.609375" xlink:href="#DejaVuSans-80"/>
      <use x="405.912109" xlink:href="#DejaVuSans-50"/>
     </g>
    </g>
   </g>
   <g id="text_8">
    <g clip-path="url(#p1e99725c77)">
     <!-- TRAF3 -->
     <g transform="translate(603.083633 311.744875)scale(0.12 -0.12)">
      <use xlink:href="#DejaVuSans-84"/>
      <use x="61.083984" xlink:href="#DejaVuSans-82"/>
      <use x="126.566406" xlink:href="#DejaVuSans-65"/>
      <use x="194.974609" xlink:href="#DejaVuSans-70"/>
      <use x="252.494141" xlink:href="#DejaVuSans-51"/>
     </g>
    </g>
   </g>
   <g id="text_9">
    <g clip-path="url(#p1e99725c77)">
     <!-- TRAF5 -->
     <g transform="translate(361.750822 207.30315)scale(0.12 -0.12)">
      <defs>
       <path d="M 10.796875 72.90625 
L 49.515625 72.90625 
L 49.515625 64.59375 
L 19.828125 64.59375 
L 19.828125 46.734375 
Q 21.96875 47.46875 24.109375 47.828125 
Q 26.265625 48.1875 28.421875 48.1875 
Q 40.625 48.1875 47.75 41.5 
Q 54.890625 34.8125 54.890625 23.390625 
Q 54.890625 11.625 47.5625 5.09375 
Q 40.234375 -1.421875 26.90625 -1.421875 
Q 22.3125 -1.421875 17.546875 -0.640625 
Q 12.796875 0.140625 7.71875 1.703125 
L 7.71875 11.625 
Q 12.109375 9.234375 16.796875 8.0625 
Q 21.484375 6.890625 26.703125 6.890625 
Q 35.15625 6.890625 40.078125 11.328125 
Q 45.015625 15.765625 45.015625 23.390625 
Q 45.015625 31 40.078125 35.4375 
Q 35.15625 39.890625 26.703125 39.890625 
Q 22.75 39.890625 18.8125 39.015625 
Q 14.890625 38.140625 10.796875 36.28125 
z
" id="DejaVuSans-53"/>
      </defs>
      <use xlink:href="#DejaVuSans-84"/>
      <use x="61.083984" xlink:href="#DejaVuSans-82"/>
      <use x="126.566406" xlink:href="#DejaVuSans-65"/>
      <use x="194.974609" xlink:href="#DejaVuSans-70"/>
      <use x="252.494141" xlink:href="#DejaVuSans-53"/>
     </g>
    </g>
   </g>
   <g id="text_10">
    <g clip-path="url(#p1e99725c77)">
     <!-- TRAF2 -->
     <g transform="translate(373.782065 190.516356)scale(0.12 -0.12)">
      <use xlink:href="#DejaVuSans-84"/>
      <use x="61.083984" xlink:href="#DejaVuSans-82"/>
      <use x="126.566406" xlink:href="#DejaVuSans-65"/>
      <use x="194.974609" xlink:href="#DejaVuSans-70"/>
      <use x="252.494141" xlink:href="#DejaVuSans-50"/>
     </g>
    </g>
   </g>
   <g id="text_11">
    <g clip-path="url(#p1e99725c77)">
     <!-- ELAVL1 -->
     <g transform="translate(165.925317 238.280494)scale(0.12 -0.12)">
      <defs>
       <path d="M 9.8125 72.90625 
L 55.90625 72.90625 
L 55.90625 64.59375 
L 19.671875 64.59375 
L 19.671875 43.015625 
L 54.390625 43.015625 
L 54.390625 34.71875 
L 19.671875 34.71875 
L 19.671875 8.296875 
L 56.78125 8.296875 
L 56.78125 0 
L 9.8125 0 
z
" id="DejaVuSans-69"/>
       <path d="M 28.609375 0 
L 0.78125 72.90625 
L 11.078125 72.90625 
L 34.1875 11.53125 
L 57.328125 72.90625 
L 67.578125 72.90625 
L 39.796875 0 
z
" id="DejaVuSans-86"/>
      </defs>
      <use xlink:href="#DejaVuSans-69"/>
      <use x="63.183594" xlink:href="#DejaVuSans-76"/>
      <use x="121.146484" xlink:href="#DejaVuSans-65"/>
      <use x="183.179688" xlink:href="#DejaVuSans-86"/>
      <use x="251.587891" xlink:href="#DejaVuSans-76"/>
      <use x="307.300781" xlink:href="#DejaVuSans-49"/>
     </g>
    </g>
   </g>
   <g id="text_12">
    <g clip-path="url(#p1e99725c77)">
     <!-- SRSF1 -->
     <g transform="translate(535.01954 110.918523)scale(0.12 -0.12)">
      <defs>
       <path d="M 53.515625 70.515625 
L 53.515625 60.890625 
Q 47.90625 63.578125 42.921875 64.890625 
Q 37.9375 66.21875 33.296875 66.21875 
Q 25.25 66.21875 20.875 63.09375 
Q 16.5 59.96875 16.5 54.203125 
Q 16.5 49.359375 19.40625 46.890625 
Q 22.3125 44.4375 30.421875 42.921875 
L 36.375 41.703125 
Q 47.40625 39.59375 52.65625 34.296875 
Q 57.90625 29 57.90625 20.125 
Q 57.90625 9.515625 50.796875 4.046875 
Q 43.703125 -1.421875 29.984375 -1.421875 
Q 24.8125 -1.421875 18.96875 -0.25 
Q 13.140625 0.921875 6.890625 3.21875 
L 6.890625 13.375 
Q 12.890625 10.015625 18.65625 8.296875 
Q 24.421875 6.59375 29.984375 6.59375 
Q 38.421875 6.59375 43.015625 9.90625 
Q 47.609375 13.234375 47.609375 19.390625 
Q 47.609375 24.75 44.3125 27.78125 
Q 41.015625 30.8125 33.5 32.328125 
L 27.484375 33.5 
Q 16.453125 35.6875 11.515625 40.375 
Q 6.59375 45.0625 6.59375 53.421875 
Q 6.59375 63.09375 13.40625 68.65625 
Q 20.21875 74.21875 32.171875 74.21875 
Q 37.3125 74.21875 42.625 73.28125 
Q 47.953125 72.359375 53.515625 70.515625 
z
" id="DejaVuSans-83"/>
      </defs>
      <use xlink:href="#DejaVuSans-83"/>
      <use x="63.476562" xlink:href="#DejaVuSans-82"/>
      <use x="132.958984" xlink:href="#DejaVuSans-83"/>
      <use x="196.435547" xlink:href="#DejaVuSans-70"/>
      <use x="253.955078" xlink:href="#DejaVuSans-49"/>
     </g>
    </g>
   </g>
   <g id="text_13">
    <g clip-path="url(#p1e99725c77)">
     <!-- IKBKE -->
     <g transform="translate(432.80029 251.291412)scale(0.12 -0.12)">
      <use xlink:href="#DejaVuSans-73"/>
      <use x="29.492188" xlink:href="#DejaVuSans-75"/>
      <use x="95.068359" xlink:href="#DejaVuSans-66"/>
      <use x="163.671875" xlink:href="#DejaVuSans-75"/>
      <use x="229.248047" xlink:href="#DejaVuSans-69"/>
     </g>
    </g>
   </g>
   <g id="text_14">
    <g clip-path="url(#p1e99725c77)">
     <!-- CEBPB -->
     <g transform="translate(456.25387 381.231084)scale(0.12 -0.12)">
      <defs>
       <path d="M 64.40625 67.28125 
L 64.40625 56.890625 
Q 59.421875 61.53125 53.78125 63.8125 
Q 48.140625 66.109375 41.796875 66.109375 
Q 29.296875 66.109375 22.65625 58.46875 
Q 16.015625 50.828125 16.015625 36.375 
Q 16.015625 21.96875 22.65625 14.328125 
Q 29.296875 6.6875 41.796875 6.6875 
Q 48.140625 6.6875 53.78125 8.984375 
Q 59.421875 11.28125 64.40625 15.921875 
L 64.40625 5.609375 
Q 59.234375 2.09375 53.4375 0.328125 
Q 47.65625 -1.421875 41.21875 -1.421875 
Q 24.65625 -1.421875 15.125 8.703125 
Q 5.609375 18.84375 5.609375 36.375 
Q 5.609375 53.953125 15.125 64.078125 
Q 24.65625 74.21875 41.21875 74.21875 
Q 47.75 74.21875 53.53125 72.484375 
Q 59.328125 70.75 64.40625 67.28125 
z
" id="DejaVuSans-67"/>
      </defs>
      <use xlink:href="#DejaVuSans-67"/>
      <use x="69.824219" xlink:href="#DejaVuSans-69"/>
      <use x="133.007812" xlink:href="#DejaVuSans-66"/>
      <use x="201.611328" xlink:href="#DejaVuSans-80"/>
      <use x="261.914062" xlink:href="#DejaVuSans-66"/>
     </g>
    </g>
   </g>
   <g id="text_15">
    <g clip-path="url(#p1e99725c77)">
     <!-- TRADD -->
     <g transform="translate(550.437721 245.113405)scale(0.12 -0.12)">
      <defs>
       <path d="M 19.671875 64.796875 
L 19.671875 8.109375 
L 31.59375 8.109375 
Q 46.6875 8.109375 53.6875 14.9375 
Q 60.6875 21.78125 60.6875 36.53125 
Q 60.6875 51.171875 53.6875 57.984375 
Q 46.6875 64.796875 31.59375 64.796875 
z
M 9.8125 72.90625 
L 30.078125 72.90625 
Q 51.265625 72.90625 61.171875 64.09375 
Q 71.09375 55.28125 71.09375 36.53125 
Q 71.09375 17.671875 61.125 8.828125 
Q 51.171875 0 30.078125 0 
L 9.8125 0 
z
" id="DejaVuSans-68"/>
      </defs>
      <use xlink:href="#DejaVuSans-84"/>
      <use x="61.083984" xlink:href="#DejaVuSans-82"/>
      <use x="126.566406" xlink:href="#DejaVuSans-65"/>
      <use x="194.974609" xlink:href="#DejaVuSans-68"/>
      <use x="271.976562" xlink:href="#DejaVuSans-68"/>
     </g>
    </g>
   </g>
   <g id="text_16">
    <g clip-path="url(#p1e99725c77)">
     <!-- FADD -->
     <g transform="translate(538.25816 180.467042)scale(0.12 -0.12)">
      <use xlink:href="#DejaVuSans-70"/>
      <use x="48.394531" xlink:href="#DejaVuSans-65"/>
      <use x="116.802734" xlink:href="#DejaVuSans-68"/>
      <use x="193.804688" xlink:href="#DejaVuSans-68"/>
     </g>
    </g>
   </g>
   <g id="text_17">
    <g clip-path="url(#p1e99725c77)">
     <!-- GSK3B -->
     <g transform="translate(510.511017 467.045712)scale(0.12 -0.12)">
      <use xlink:href="#DejaVuSans-71"/>
      <use x="77.490234" xlink:href="#DejaVuSans-83"/>
      <use x="140.966797" xlink:href="#DejaVuSans-75"/>
      <use x="206.542969" xlink:href="#DejaVuSans-51"/>
      <use x="270.166016" xlink:href="#DejaVuSans-66"/>
     </g>
    </g>
   </g>
   <g id="text_18">
    <g clip-path="url(#p1e99725c77)">
     <!-- TBK1 -->
     <g transform="translate(287.247444 275.405356)scale(0.12 -0.12)">
      <use xlink:href="#DejaVuSans-84"/>
      <use x="61.083984" xlink:href="#DejaVuSans-66"/>
      <use x="129.6875" xlink:href="#DejaVuSans-75"/>
      <use x="195.263672" xlink:href="#DejaVuSans-49"/>
     </g>
    </g>
   </g>
   <g id="text_19">
    <g clip-path="url(#p1e99725c77)">
     <!-- TNFAIP3 -->
     <g transform="translate(524.842242 376.496088)scale(0.12 -0.12)">
      <use xlink:href="#DejaVuSans-84"/>
      <use x="61.083984" xlink:href="#DejaVuSans-78"/>
      <use x="135.888672" xlink:href="#DejaVuSans-70"/>
      <use x="184.283203" xlink:href="#DejaVuSans-65"/>
      <use x="252.691406" xlink:href="#DejaVuSans-73"/>
      <use x="282.183594" xlink:href="#DejaVuSans-80"/>
      <use x="342.486328" xlink:href="#DejaVuSans-51"/>
     </g>
    </g>
   </g>
   <g id="text_20">
    <g clip-path="url(#p1e99725c77)">
     <!-- USP25 -->
     <g transform="translate(366.582881 255.72318)scale(0.12 -0.12)">
      <defs>
       <path d="M 8.6875 72.90625 
L 18.609375 72.90625 
L 18.609375 28.609375 
Q 18.609375 16.890625 22.84375 11.734375 
Q 27.09375 6.59375 36.625 6.59375 
Q 46.09375 6.59375 50.34375 11.734375 
Q 54.59375 16.890625 54.59375 28.609375 
L 54.59375 72.90625 
L 64.5 72.90625 
L 64.5 27.390625 
Q 64.5 13.140625 57.4375 5.859375 
Q 50.390625 -1.421875 36.625 -1.421875 
Q 22.796875 -1.421875 15.734375 5.859375 
Q 8.6875 13.140625 8.6875 27.390625 
z
" id="DejaVuSans-85"/>
      </defs>
      <use xlink:href="#DejaVuSans-85"/>
      <use x="73.193359" xlink:href="#DejaVuSans-83"/>
      <use x="136.669922" xlink:href="#DejaVuSans-80"/>
      <use x="196.972656" xlink:href="#DejaVuSans-50"/>
      <use x="260.595703" xlink:href="#DejaVuSans-53"/>
     </g>
    </g>
   </g>
   <g id="text_21">
    <g clip-path="url(#p1e99725c77)">
     <!-- TNF -->
     <g transform="translate(587.429916 464.163513)scale(0.12 -0.12)">
      <use xlink:href="#DejaVuSans-84"/>
      <use x="61.083984" xlink:href="#DejaVuSans-78"/>
      <use x="135.888672" xlink:href="#DejaVuSans-70"/>
     </g>
    </g>
   </g>
   <g id="text_22">
    <g clip-path="url(#p1e99725c77)">
     <!-- S100A8 -->
     <g transform="translate(159.315163 370.241904)scale(0.12 -0.12)">
      <defs>
       <path d="M 31.78125 66.40625 
Q 24.171875 66.40625 20.328125 58.90625 
Q 16.5 51.421875 16.5 36.375 
Q 16.5 21.390625 20.328125 13.890625 
Q 24.171875 6.390625 31.78125 6.390625 
Q 39.453125 6.390625 43.28125 13.890625 
Q 47.125 21.390625 47.125 36.375 
Q 47.125 51.421875 43.28125 58.90625 
Q 39.453125 66.40625 31.78125 66.40625 
z
M 31.78125 74.21875 
Q 44.046875 74.21875 50.515625 64.515625 
Q 56.984375 54.828125 56.984375 36.375 
Q 56.984375 17.96875 50.515625 8.265625 
Q 44.046875 -1.421875 31.78125 -1.421875 
Q 19.53125 -1.421875 13.0625 8.265625 
Q 6.59375 17.96875 6.59375 36.375 
Q 6.59375 54.828125 13.0625 64.515625 
Q 19.53125 74.21875 31.78125 74.21875 
z
" id="DejaVuSans-48"/>
       <path d="M 31.78125 34.625 
Q 24.75 34.625 20.71875 30.859375 
Q 16.703125 27.09375 16.703125 20.515625 
Q 16.703125 13.921875 20.71875 10.15625 
Q 24.75 6.390625 31.78125 6.390625 
Q 38.8125 6.390625 42.859375 10.171875 
Q 46.921875 13.96875 46.921875 20.515625 
Q 46.921875 27.09375 42.890625 30.859375 
Q 38.875 34.625 31.78125 34.625 
z
M 21.921875 38.8125 
Q 15.578125 40.375 12.03125 44.71875 
Q 8.5 49.078125 8.5 55.328125 
Q 8.5 64.0625 14.71875 69.140625 
Q 20.953125 74.21875 31.78125 74.21875 
Q 42.671875 74.21875 48.875 69.140625 
Q 55.078125 64.0625 55.078125 55.328125 
Q 55.078125 49.078125 51.53125 44.71875 
Q 48 40.375 41.703125 38.8125 
Q 48.828125 37.15625 52.796875 32.3125 
Q 56.78125 27.484375 56.78125 20.515625 
Q 56.78125 9.90625 50.3125 4.234375 
Q 43.84375 -1.421875 31.78125 -1.421875 
Q 19.734375 -1.421875 13.25 4.234375 
Q 6.78125 9.90625 6.78125 20.515625 
Q 6.78125 27.484375 10.78125 32.3125 
Q 14.796875 37.15625 21.921875 38.8125 
z
M 18.3125 54.390625 
Q 18.3125 48.734375 21.84375 45.5625 
Q 25.390625 42.390625 31.78125 42.390625 
Q 38.140625 42.390625 41.71875 45.5625 
Q 45.3125 48.734375 45.3125 54.390625 
Q 45.3125 60.0625 41.71875 63.234375 
Q 38.140625 66.40625 31.78125 66.40625 
Q 25.390625 66.40625 21.84375 63.234375 
Q 18.3125 60.0625 18.3125 54.390625 
z
" id="DejaVuSans-56"/>
      </defs>
      <use xlink:href="#DejaVuSans-83"/>
      <use x="63.476562" xlink:href="#DejaVuSans-49"/>
      <use x="127.099609" xlink:href="#DejaVuSans-48"/>
      <use x="190.722656" xlink:href="#DejaVuSans-48"/>
      <use x="254.345703" xlink:href="#DejaVuSans-65"/>
      <use x="322.753906" xlink:href="#DejaVuSans-56"/>
     </g>
    </g>
   </g>
   <g id="text_23">
    <g clip-path="url(#p1e99725c77)">
     <!-- S100A9 -->
     <g transform="translate(667.004145 397.395018)scale(0.12 -0.12)">
      <defs>
       <path d="M 10.984375 1.515625 
L 10.984375 10.5 
Q 14.703125 8.734375 18.5 7.8125 
Q 22.3125 6.890625 25.984375 6.890625 
Q 35.75 6.890625 40.890625 13.453125 
Q 46.046875 20.015625 46.78125 33.40625 
Q 43.953125 29.203125 39.59375 26.953125 
Q 35.25 24.703125 29.984375 24.703125 
Q 19.046875 24.703125 12.671875 31.3125 
Q 6.296875 37.9375 6.296875 49.421875 
Q 6.296875 60.640625 12.9375 67.421875 
Q 19.578125 74.21875 30.609375 74.21875 
Q 43.265625 74.21875 49.921875 64.515625 
Q 56.59375 54.828125 56.59375 36.375 
Q 56.59375 19.140625 48.40625 8.859375 
Q 40.234375 -1.421875 26.421875 -1.421875 
Q 22.703125 -1.421875 18.890625 -0.6875 
Q 15.09375 0.046875 10.984375 1.515625 
z
M 30.609375 32.421875 
Q 37.25 32.421875 41.125 36.953125 
Q 45.015625 41.5 45.015625 49.421875 
Q 45.015625 57.28125 41.125 61.84375 
Q 37.25 66.40625 30.609375 66.40625 
Q 23.96875 66.40625 20.09375 61.84375 
Q 16.21875 57.28125 16.21875 49.421875 
Q 16.21875 41.5 20.09375 36.953125 
Q 23.96875 32.421875 30.609375 32.421875 
z
" id="DejaVuSans-57"/>
      </defs>
      <use xlink:href="#DejaVuSans-83"/>
      <use x="63.476562" xlink:href="#DejaVuSans-49"/>
      <use x="127.099609" xlink:href="#DejaVuSans-48"/>
      <use x="190.722656" xlink:href="#DejaVuSans-48"/>
      <use x="254.345703" xlink:href="#DejaVuSans-65"/>
      <use x="322.753906" xlink:href="#DejaVuSans-57"/>
     </g>
    </g>
   </g>
   <g id="text_24">
    <g clip-path="url(#p1e99725c77)">
     <!-- TRAF4 -->
     <g transform="translate(266.898305 374.368432)scale(0.12 -0.12)">
      <defs>
       <path d="M 37.796875 64.3125 
L 12.890625 25.390625 
L 37.796875 25.390625 
z
M 35.203125 72.90625 
L 47.609375 72.90625 
L 47.609375 25.390625 
L 58.015625 25.390625 
L 58.015625 17.1875 
L 47.609375 17.1875 
L 47.609375 0 
L 37.796875 0 
L 37.796875 17.1875 
L 4.890625 17.1875 
L 4.890625 26.703125 
z
" id="DejaVuSans-52"/>
      </defs>
      <use xlink:href="#DejaVuSans-84"/>
      <use x="61.083984" xlink:href="#DejaVuSans-82"/>
      <use x="126.566406" xlink:href="#DejaVuSans-65"/>
      <use x="194.974609" xlink:href="#DejaVuSans-70"/>
      <use x="252.494141" xlink:href="#DejaVuSans-52"/>
     </g>
    </g>
   </g>
   <g id="text_25">
    <g clip-path="url(#p1e99725c77)">
     <!-- IFNG -->
     <g transform="translate(151.747035 307.006391)scale(0.12 -0.12)">
      <use xlink:href="#DejaVuSans-73"/>
      <use x="29.492188" xlink:href="#DejaVuSans-70"/>
      <use x="87.011719" xlink:href="#DejaVuSans-78"/>
      <use x="161.816406" xlink:href="#DejaVuSans-71"/>
     </g>
    </g>
   </g>
   <g id="text_26">
    <g clip-path="url(#p1e99725c77)">
     <!-- NFKB1 -->
     <g transform="translate(382.098118 411.060824)scale(0.12 -0.12)">
      <use xlink:href="#DejaVuSans-78"/>
      <use x="74.804688" xlink:href="#DejaVuSans-70"/>
      <use x="132.324219" xlink:href="#DejaVuSans-75"/>
      <use x="197.900391" xlink:href="#DejaVuSans-66"/>
      <use x="266.503906" xlink:href="#DejaVuSans-49"/>
     </g>
    </g>
   </g>
   <g id="text_27">
    <g clip-path="url(#p1e99725c77)">
     <!-- RELA -->
     <g transform="translate(386.541872 395.311565)scale(0.12 -0.12)">
      <use xlink:href="#DejaVuSans-82"/>
      <use x="69.482422" xlink:href="#DejaVuSans-69"/>
      <use x="132.666016" xlink:href="#DejaVuSans-76"/>
      <use x="190.628906" xlink:href="#DejaVuSans-65"/>
     </g>
    </g>
   </g>
   <g id="text_28">
    <g clip-path="url(#p1e99725c77)">
     <!-- FOS -->
     <g transform="translate(378.20948 397.370949)scale(0.12 -0.12)">
      <defs>
       <path d="M 39.40625 66.21875 
Q 28.65625 66.21875 22.328125 58.203125 
Q 16.015625 50.203125 16.015625 36.375 
Q 16.015625 22.609375 22.328125 14.59375 
Q 28.65625 6.59375 39.40625 6.59375 
Q 50.140625 6.59375 56.421875 14.59375 
Q 62.703125 22.609375 62.703125 36.375 
Q 62.703125 50.203125 56.421875 58.203125 
Q 50.140625 66.21875 39.40625 66.21875 
z
M 39.40625 74.21875 
Q 54.734375 74.21875 63.90625 63.9375 
Q 73.09375 53.65625 73.09375 36.375 
Q 73.09375 19.140625 63.90625 8.859375 
Q 54.734375 -1.421875 39.40625 -1.421875 
Q 24.03125 -1.421875 14.8125 8.828125 
Q 5.609375 19.09375 5.609375 36.375 
Q 5.609375 53.65625 14.8125 63.9375 
Q 24.03125 74.21875 39.40625 74.21875 
z
" id="DejaVuSans-79"/>
      </defs>
      <use xlink:href="#DejaVuSans-70"/>
      <use x="57.519531" xlink:href="#DejaVuSans-79"/>
      <use x="136.230469" xlink:href="#DejaVuSans-83"/>
     </g>
    </g>
   </g>
   <g id="text_29">
    <g clip-path="url(#p1e99725c77)">
     <!-- FOSB -->
     <g transform="translate(384.326411 378.39325)scale(0.12 -0.12)">
      <use xlink:href="#DejaVuSans-70"/>
      <use x="57.519531" xlink:href="#DejaVuSans-79"/>
      <use x="136.230469" xlink:href="#DejaVuSans-83"/>
      <use x="199.707031" xlink:href="#DejaVuSans-66"/>
     </g>
    </g>
   </g>
   <g id="text_30">
    <g clip-path="url(#p1e99725c77)">
     <!-- JUN -->
     <g transform="translate(407.203018 392.194259)scale(0.12 -0.12)">
      <defs>
       <path d="M 9.8125 72.90625 
L 19.671875 72.90625 
L 19.671875 5.078125 
Q 19.671875 -8.109375 14.671875 -14.0625 
Q 9.671875 -20.015625 -1.421875 -20.015625 
L -5.171875 -20.015625 
L -5.171875 -11.71875 
L -2.09375 -11.71875 
Q 4.4375 -11.71875 7.125 -8.046875 
Q 9.8125 -4.390625 9.8125 5.078125 
z
" id="DejaVuSans-74"/>
      </defs>
      <use xlink:href="#DejaVuSans-74"/>
      <use x="29.492188" xlink:href="#DejaVuSans-85"/>
      <use x="102.685547" xlink:href="#DejaVuSans-78"/>
     </g>
    </g>
   </g>
   <g id="text_31">
    <g clip-path="url(#p1e99725c77)">
     <!-- JUND -->
     <g transform="translate(401.223667 378.968288)scale(0.12 -0.12)">
      <use xlink:href="#DejaVuSans-74"/>
      <use x="29.492188" xlink:href="#DejaVuSans-85"/>
      <use x="102.685547" xlink:href="#DejaVuSans-78"/>
      <use x="177.490234" xlink:href="#DejaVuSans-68"/>
     </g>
    </g>
   </g>
   <g id="text_32">
    <g clip-path="url(#p1e99725c77)">
     <!-- MAPK7 -->
     <g transform="translate(432.658513 370.873965)scale(0.12 -0.12)">
      <use xlink:href="#DejaVuSans-77"/>
      <use x="86.279297" xlink:href="#DejaVuSans-65"/>
      <use x="154.6875" xlink:href="#DejaVuSans-80"/>
      <use x="214.990234" xlink:href="#DejaVuSans-75"/>
      <use x="280.566406" xlink:href="#DejaVuSans-55"/>
     </g>
    </g>
   </g>
   <g id="text_33">
    <g clip-path="url(#p1e99725c77)">
     <!-- CASP3 -->
     <g transform="translate(333.925773 112.635645)scale(0.12 -0.12)">
      <use xlink:href="#DejaVuSans-67"/>
      <use x="69.824219" xlink:href="#DejaVuSans-65"/>
      <use x="138.232422" xlink:href="#DejaVuSans-83"/>
      <use x="201.708984" xlink:href="#DejaVuSans-80"/>
      <use x="262.011719" xlink:href="#DejaVuSans-51"/>
     </g>
    </g>
   </g>
   <g id="text_34">
    <g clip-path="url(#p1e99725c77)">
     <!-- CASP8 -->
     <g transform="translate(699.955777 284.244069)scale(0.12 -0.12)">
      <use xlink:href="#DejaVuSans-67"/>
      <use x="69.824219" xlink:href="#DejaVuSans-65"/>
      <use x="138.232422" xlink:href="#DejaVuSans-83"/>
      <use x="201.708984" xlink:href="#DejaVuSans-80"/>
      <use x="262.011719" xlink:href="#DejaVuSans-56"/>
     </g>
    </g>
   </g>
   <g id="text_35">
    <!-- Frame: 11 -->
    <g transform="translate(121.392 91.296)scale(0.1 -0.1)">
     <defs>
      <path d="M 41.109375 46.296875 
Q 39.59375 47.171875 37.8125 47.578125 
Q 36.03125 48 33.890625 48 
Q 26.265625 48 22.1875 43.046875 
Q 18.109375 38.09375 18.109375 28.8125 
L 18.109375 0 
L 9.078125 0 
L 9.078125 54.6875 
L 18.109375 54.6875 
L 18.109375 46.1875 
Q 20.953125 51.171875 25.484375 53.578125 
Q 30.03125 56 36.53125 56 
Q 37.453125 56 38.578125 55.875 
Q 39.703125 55.765625 41.0625 55.515625 
z
" id="DejaVuSans-114"/>
      <path d="M 34.28125 27.484375 
Q 23.390625 27.484375 19.1875 25 
Q 14.984375 22.515625 14.984375 16.5 
Q 14.984375 11.71875 18.140625 8.90625 
Q 21.296875 6.109375 26.703125 6.109375 
Q 34.1875 6.109375 38.703125 11.40625 
Q 43.21875 16.703125 43.21875 25.484375 
L 43.21875 27.484375 
z
M 52.203125 31.203125 
L 52.203125 0 
L 43.21875 0 
L 43.21875 8.296875 
Q 40.140625 3.328125 35.546875 0.953125 
Q 30.953125 -1.421875 24.3125 -1.421875 
Q 15.921875 -1.421875 10.953125 3.296875 
Q 6 8.015625 6 15.921875 
Q 6 25.140625 12.171875 29.828125 
Q 18.359375 34.515625 30.609375 34.515625 
L 43.21875 34.515625 
L 43.21875 35.40625 
Q 43.21875 41.609375 39.140625 45 
Q 35.0625 48.390625 27.6875 48.390625 
Q 23 48.390625 18.546875 47.265625 
Q 14.109375 46.140625 10.015625 43.890625 
L 10.015625 52.203125 
Q 14.9375 54.109375 19.578125 55.046875 
Q 24.21875 56 28.609375 56 
Q 40.484375 56 46.34375 49.84375 
Q 52.203125 43.703125 52.203125 31.203125 
z
" id="DejaVuSans-97"/>
      <path d="M 52 44.1875 
Q 55.375 50.25 60.0625 53.125 
Q 64.75 56 71.09375 56 
Q 79.640625 56 84.28125 50.015625 
Q 88.921875 44.046875 88.921875 33.015625 
L 88.921875 0 
L 79.890625 0 
L 79.890625 32.71875 
Q 79.890625 40.578125 77.09375 44.375 
Q 74.3125 48.1875 68.609375 48.1875 
Q 61.625 48.1875 57.5625 43.546875 
Q 53.515625 38.921875 53.515625 30.90625 
L 53.515625 0 
L 44.484375 0 
L 44.484375 32.71875 
Q 44.484375 40.625 41.703125 44.40625 
Q 38.921875 48.1875 33.109375 48.1875 
Q 26.21875 48.1875 22.15625 43.53125 
Q 18.109375 38.875 18.109375 30.90625 
L 18.109375 0 
L 9.078125 0 
L 9.078125 54.6875 
L 18.109375 54.6875 
L 18.109375 46.1875 
Q 21.1875 51.21875 25.484375 53.609375 
Q 29.78125 56 35.6875 56 
Q 41.65625 56 45.828125 52.96875 
Q 50 49.953125 52 44.1875 
z
" id="DejaVuSans-109"/>
      <path d="M 56.203125 29.59375 
L 56.203125 25.203125 
L 14.890625 25.203125 
Q 15.484375 15.921875 20.484375 11.0625 
Q 25.484375 6.203125 34.421875 6.203125 
Q 39.59375 6.203125 44.453125 7.46875 
Q 49.3125 8.734375 54.109375 11.28125 
L 54.109375 2.78125 
Q 49.265625 0.734375 44.1875 -0.34375 
Q 39.109375 -1.421875 33.890625 -1.421875 
Q 20.796875 -1.421875 13.15625 6.1875 
Q 5.515625 13.8125 5.515625 26.8125 
Q 5.515625 40.234375 12.765625 48.109375 
Q 20.015625 56 32.328125 56 
Q 43.359375 56 49.78125 48.890625 
Q 56.203125 41.796875 56.203125 29.59375 
z
M 47.21875 32.234375 
Q 47.125 39.59375 43.09375 43.984375 
Q 39.0625 48.390625 32.421875 48.390625 
Q 24.90625 48.390625 20.390625 44.140625 
Q 15.875 39.890625 15.1875 32.171875 
z
" id="DejaVuSans-101"/>
      <path d="M 11.71875 12.40625 
L 22.015625 12.40625 
L 22.015625 0 
L 11.71875 0 
z
M 11.71875 51.703125 
L 22.015625 51.703125 
L 22.015625 39.3125 
L 11.71875 39.3125 
z
" id="DejaVuSans-58"/>
      <path id="DejaVuSans-32"/>
     </defs>
     <use xlink:href="#DejaVuSans-70"/>
     <use x="50.269531" xlink:href="#DejaVuSans-114"/>
     <use x="91.382812" xlink:href="#DejaVuSans-97"/>
     <use x="152.662109" xlink:href="#DejaVuSans-109"/>
     <use x="250.074219" xlink:href="#DejaVuSans-101"/>
     <use x="311.597656" xlink:href="#DejaVuSans-58"/>
     <use x="345.289062" xlink:href="#DejaVuSans-32"/>
     <use x="377.076172" xlink:href="#DejaVuSans-49"/>
     <use x="440.699219" xlink:href="#DejaVuSans-49"/>
    </g>
   </g>
   <g id="text_36">
    <!-- Network: hsa04657 -->
    <g transform="translate(384.1275 63.12)scale(0.12 -0.12)">
     <defs>
      <path d="M 18.3125 70.21875 
L 18.3125 54.6875 
L 36.8125 54.6875 
L 36.8125 47.703125 
L 18.3125 47.703125 
L 18.3125 18.015625 
Q 18.3125 11.328125 20.140625 9.421875 
Q 21.96875 7.515625 27.59375 7.515625 
L 36.8125 7.515625 
L 36.8125 0 
L 27.59375 0 
Q 17.1875 0 13.234375 3.875 
Q 9.28125 7.765625 9.28125 18.015625 
L 9.28125 47.703125 
L 2.6875 47.703125 
L 2.6875 54.6875 
L 9.28125 54.6875 
L 9.28125 70.21875 
z
" id="DejaVuSans-116"/>
      <path d="M 4.203125 54.6875 
L 13.1875 54.6875 
L 24.421875 12.015625 
L 35.59375 54.6875 
L 46.1875 54.6875 
L 57.421875 12.015625 
L 68.609375 54.6875 
L 77.59375 54.6875 
L 63.28125 0 
L 52.6875 0 
L 40.921875 44.828125 
L 29.109375 0 
L 18.5 0 
z
" id="DejaVuSans-119"/>
      <path d="M 30.609375 48.390625 
Q 23.390625 48.390625 19.1875 42.75 
Q 14.984375 37.109375 14.984375 27.296875 
Q 14.984375 17.484375 19.15625 11.84375 
Q 23.34375 6.203125 30.609375 6.203125 
Q 37.796875 6.203125 41.984375 11.859375 
Q 46.1875 17.53125 46.1875 27.296875 
Q 46.1875 37.015625 41.984375 42.703125 
Q 37.796875 48.390625 30.609375 48.390625 
z
M 30.609375 56 
Q 42.328125 56 49.015625 48.375 
Q 55.71875 40.765625 55.71875 27.296875 
Q 55.71875 13.875 49.015625 6.21875 
Q 42.328125 -1.421875 30.609375 -1.421875 
Q 18.84375 -1.421875 12.171875 6.21875 
Q 5.515625 13.875 5.515625 27.296875 
Q 5.515625 40.765625 12.171875 48.375 
Q 18.84375 56 30.609375 56 
z
" id="DejaVuSans-111"/>
      <path d="M 9.078125 75.984375 
L 18.109375 75.984375 
L 18.109375 31.109375 
L 44.921875 54.6875 
L 56.390625 54.6875 
L 27.390625 29.109375 
L 57.625 0 
L 45.90625 0 
L 18.109375 26.703125 
L 18.109375 0 
L 9.078125 0 
z
" id="DejaVuSans-107"/>
      <path d="M 54.890625 33.015625 
L 54.890625 0 
L 45.90625 0 
L 45.90625 32.71875 
Q 45.90625 40.484375 42.875 44.328125 
Q 39.84375 48.1875 33.796875 48.1875 
Q 26.515625 48.1875 22.3125 43.546875 
Q 18.109375 38.921875 18.109375 30.90625 
L 18.109375 0 
L 9.078125 0 
L 9.078125 75.984375 
L 18.109375 75.984375 
L 18.109375 46.1875 
Q 21.34375 51.125 25.703125 53.5625 
Q 30.078125 56 35.796875 56 
Q 45.21875 56 50.046875 50.171875 
Q 54.890625 44.34375 54.890625 33.015625 
z
" id="DejaVuSans-104"/>
      <path d="M 44.28125 53.078125 
L 44.28125 44.578125 
Q 40.484375 46.53125 36.375 47.5 
Q 32.28125 48.484375 27.875 48.484375 
Q 21.1875 48.484375 17.84375 46.4375 
Q 14.5 44.390625 14.5 40.28125 
Q 14.5 37.15625 16.890625 35.375 
Q 19.28125 33.59375 26.515625 31.984375 
L 29.59375 31.296875 
Q 39.15625 29.25 43.1875 25.515625 
Q 47.21875 21.78125 47.21875 15.09375 
Q 47.21875 7.46875 41.1875 3.015625 
Q 35.15625 -1.421875 24.609375 -1.421875 
Q 20.21875 -1.421875 15.453125 -0.5625 
Q 10.6875 0.296875 5.421875 2 
L 5.421875 11.28125 
Q 10.40625 8.6875 15.234375 7.390625 
Q 20.0625 6.109375 24.8125 6.109375 
Q 31.15625 6.109375 34.5625 8.28125 
Q 37.984375 10.453125 37.984375 14.40625 
Q 37.984375 18.0625 35.515625 20.015625 
Q 33.0625 21.96875 24.703125 23.78125 
L 21.578125 24.515625 
Q 13.234375 26.265625 9.515625 29.90625 
Q 5.8125 33.546875 5.8125 39.890625 
Q 5.8125 47.609375 11.28125 51.796875 
Q 16.75 56 26.8125 56 
Q 31.78125 56 36.171875 55.265625 
Q 40.578125 54.546875 44.28125 53.078125 
z
" id="DejaVuSans-115"/>
     </defs>
     <use xlink:href="#DejaVuSans-78"/>
     <use x="74.804688" xlink:href="#DejaVuSans-101"/>
     <use x="136.328125" xlink:href="#DejaVuSans-116"/>
     <use x="175.537109" xlink:href="#DejaVuSans-119"/>
     <use x="257.324219" xlink:href="#DejaVuSans-111"/>
     <use x="318.505859" xlink:href="#DejaVuSans-114"/>
     <use x="359.619141" xlink:href="#DejaVuSans-107"/>
     <use x="417.529297" xlink:href="#DejaVuSans-58"/>
     <use x="451.220703" xlink:href="#DejaVuSans-32"/>
     <use x="483.007812" xlink:href="#DejaVuSans-104"/>
     <use x="546.386719" xlink:href="#DejaVuSans-115"/>
     <use x="598.486328" xlink:href="#DejaVuSans-97"/>
     <use x="659.765625" xlink:href="#DejaVuSans-48"/>
     <use x="723.388672" xlink:href="#DejaVuSans-52"/>
     <use x="787.011719" xlink:href="#DejaVuSans-54"/>
     <use x="850.634766" xlink:href="#DejaVuSans-53"/>
     <use x="914.257812" xlink:href="#DejaVuSans-55"/>
    </g>
   </g>
  </g>
 </g>
 <defs>
  <clipPath id="p1e99725c77">
   <rect height="443.52" width="669.6" x="108" y="69.12"/>
  </clipPath>
 </defs>
</svg>
