<?xml version="1.0" encoding="utf-8" standalone="no"?>
<!DOCTYPE svg PUBLIC "-//W3C//DTD SVG 1.1//EN"
  "http://www.w3.org/Graphics/SVG/1.1/DTD/svg11.dtd">
<!-- Created with matplotlib (https://matplotlib.org/) -->
<svg height="576pt" version="1.1" viewBox="0 0 864 576" width="864pt" xmlns="http://www.w3.org/2000/svg" xmlns:xlink="http://www.w3.org/1999/xlink">
 <metadata>
  <rdf:RDF xmlns:cc="http://creativecommons.org/ns#" xmlns:dc="http://purl.org/dc/elements/1.1/" xmlns:rdf="http://www.w3.org/1999/02/22-rdf-syntax-ns#">
   <cc:Work>
    <dc:type rdf:resource="http://purl.org/dc/dcmitype/StillImage"/>
    <dc:date>2024-04-26T13:37:08.144343</dc:date>
    <dc:format>image/svg+xml</dc:format>
    <dc:creator>
     <cc:Agent>
      <dc:title>Matplotlib v3.3.1, https://matplotlib.org/</dc:title>
     </cc:Agent>
    </dc:creator>
   </cc:Work>
  </rdf:RDF>
 </metadata>
 <defs>
  <style type="text/css">*{stroke-linecap:butt;stroke-linejoin:round;}</style>
 </defs>
 <g id="figure_1">
  <g id="patch_1">
   <path d="M 0 576 
L 864 576 
L 864 0 
L 0 0 
z
" style="fill:#ffffff;"/>
  </g>
  <g id="axes_1">
   <g id="patch_2">
    <path clip-path="url(#p4f8647237d)" d="M 403.52589 204.855762 
Q 338.180585 214.210664 273.942029 223.407122 
" style="fill:none;stroke:#000000;stroke-linecap:round;"/>
    <path clip-path="url(#p4f8647237d)" d="M 278.18509 224.820072 
L 273.942029 223.407122 
L 277.618226 220.860443 
L 278.18509 224.820072 
z
" style="stroke:#000000;stroke-linecap:round;"/>
   </g>
   <g id="patch_3">
    <path clip-path="url(#p4f8647237d)" d="M 418.786139 209.141746 
Q 467.774989 249.557212 515.901414 289.261183 
" style="fill:none;stroke:#000000;stroke-linecap:round;"/>
    <path clip-path="url(#p4f8647237d)" d="M 514.08867 285.172912 
L 515.901414 289.261183 
L 511.543151 288.258416 
L 514.08867 285.172912 
z
" style="stroke:#000000;stroke-linecap:round;"/>
   </g>
   <g id="patch_4">
    <path clip-path="url(#p4f8647237d)" d="M 407.867288 196.07301 
Q 398.361621 179.117088 389.402683 163.136403 
" style="fill:none;stroke:#000000;stroke-linecap:round;"/>
    <path clip-path="url(#p4f8647237d)" d="M 389.614159 167.603536 
L 389.402683 163.136403 
L 393.103275 165.647501 
L 389.614159 167.603536 
z
" style="stroke:#000000;stroke-linecap:round;"/>
   </g>
   <g id="patch_5">
    <path clip-path="url(#p4f8647237d)" d="M 244.83481 183.613334 
Q 246.88437 204.725855 248.8259 224.725573 
" style="fill:none;stroke:#000000;stroke-linecap:round;"/>
    <path clip-path="url(#p4f8647237d)" d="M 250.430048 220.551042 
L 248.8259 224.725573 
L 246.448764 220.937537 
L 250.430048 220.551042 
z
" style="stroke:#000000;stroke-linecap:round;"/>
   </g>
   <g id="patch_6">
    <path clip-path="url(#p4f8647237d)" d="M 327.553808 224.76612 
Q 289.494983 202.095318 252.396692 179.996683 
" style="fill:none;stroke:#000000;stroke-linecap:round;"/>
    <path clip-path="url(#p4f8647237d)" d="M 254.809673 183.761988 
L 252.396692 179.996683 
L 256.856724 180.325481 
L 254.809673 183.761988 
z
" style="stroke:#000000;stroke-linecap:round;"/>
   </g>
   <g id="patch_7">
    <path clip-path="url(#p4f8647237d)" d="M 311.136978 346.324452 
Q 317.434648 320.898026 323.463524 296.556843 
" style="fill:none;stroke:#000000;stroke-linecap:round;"/>
    <path clip-path="url(#p4f8647237d)" d="M 320.560515 299.958686 
L 323.463524 296.556843 
L 324.443193 300.920356 
L 320.560515 299.958686 
z
" style="stroke:#000000;stroke-linecap:round;"/>
   </g>
   <g id="patch_8">
    <path clip-path="url(#p4f8647237d)" d="M 312.021156 346.5918 
Q 319.242654 326.778423 326.081293 308.015484 
" style="fill:none;stroke:#000000;stroke-linecap:round;"/>
    <path clip-path="url(#p4f8647237d)" d="M 322.832455 311.088764 
L 326.081293 308.015484 
L 326.590614 312.458522 
L 322.832455 311.088764 
z
" style="stroke:#000000;stroke-linecap:round;"/>
   </g>
   <g id="patch_9">
    <path clip-path="url(#p4f8647237d)" d="M 351.184033 256.455942 
Q 287.039588 297.917058 223.834106 338.771256 
" style="fill:none;stroke:#000000;stroke-linecap:round;"/>
    <path clip-path="url(#p4f8647237d)" d="M 228.279128 338.279547 
L 223.834106 338.771256 
L 226.107752 334.920213 
L 228.279128 338.279547 
z
" style="stroke:#000000;stroke-linecap:round;"/>
   </g>
   <g id="patch_10">
    <path clip-path="url(#p4f8647237d)" d="M 350.616321 248.086685 
Q 290.0154 219.736645 230.427175 191.86036 
" style="fill:none;stroke:#000000;stroke-linecap:round;"/>
    <path clip-path="url(#p4f8647237d)" d="M 233.202832 195.366887 
L 230.427175 191.86036 
L 234.897791 191.743751 
L 233.202832 195.366887 
z
" style="stroke:#000000;stroke-linecap:round;"/>
   </g>
   <g id="patch_11">
    <path clip-path="url(#p4f8647237d)" d="M 439.726721 332.074918 
Q 425.926675 305.413655 412.640565 279.745301 
" style="fill:none;stroke:#000000;stroke-linecap:round;"/>
    <path clip-path="url(#p4f8647237d)" d="M 412.70311 284.217 
L 412.640565 279.745301 
L 416.255451 282.378285 
L 412.70311 284.217 
z
" style="stroke:#000000;stroke-linecap:round;"/>
   </g>
   <g id="patch_12">
    <path clip-path="url(#p4f8647237d)" d="M 438.269163 333.035366 
Q 418.658289 308.759838 399.749998 285.35401 
" style="fill:none;stroke:#000000;stroke-linecap:round;"/>
    <path clip-path="url(#p4f8647237d)" d="M 400.707869 289.72236 
L 399.749998 285.35401 
L 403.8194 287.208723 
L 400.707869 289.72236 
z
" style="stroke:#000000;stroke-linecap:round;"/>
   </g>
   <g id="patch_13">
    <path clip-path="url(#p4f8647237d)" d="M 639.125403 309.724827 
Q 590.025825 292.862877 541.983664 276.364069 
" style="fill:none;stroke:#000000;stroke-linecap:round;"/>
    <path clip-path="url(#p4f8647237d)" d="M 545.117182 279.554847 
L 541.983664 276.364069 
L 546.416397 275.771721 
L 545.117182 279.554847 
z
" style="stroke:#000000;stroke-linecap:round;"/>
   </g>
   <g id="patch_14">
    <path clip-path="url(#p4f8647237d)" d="M 541.075982 270.868887 
Q 580.601322 259.881172 619.049476 249.192906 
" style="fill:none;stroke:#000000;stroke-linecap:round;"/>
    <path clip-path="url(#p4f8647237d)" d="M 614.659947 248.337317 
L 619.049476 249.192906 
L 615.731288 252.191176 
L 614.659947 248.337317 
z
" style="stroke:#000000;stroke-linecap:round;"/>
   </g>
   <g id="patch_15">
    <path clip-path="url(#p4f8647237d)" d="M 540.546133 269.446314 
Q 596.375726 242.706205 651.196978 216.449051 
" style="fill:none;stroke:#000000;stroke-linecap:round;"/>
    <path clip-path="url(#p4f8647237d)" d="M 646.725486 216.373145 
L 651.196978 216.449051 
L 648.453359 219.980701 
L 646.725486 216.373145 
z
" style="stroke:#000000;stroke-linecap:round;"/>
   </g>
   <g id="patch_16">
    <path clip-path="url(#p4f8647237d)" d="M 356.135203 309.890969 
Q 367.531001 385.097623 378.759298 459.198861 
" style="fill:none;stroke:#000000;stroke-linecap:round;"/>
    <path clip-path="url(#p4f8647237d)" d="M 380.137461 454.944373 
L 378.759298 459.198861 
L 376.182606 455.543638 
L 380.137461 454.944373 
z
" style="stroke:#000000;stroke-linecap:round;"/>
   </g>
   <g id="patch_17">
    <path clip-path="url(#p4f8647237d)" d="M 347.062034 297.520987 
Q 267.906092 258.751509 189.75422 220.47381 
" style="fill:none;stroke:#000000;stroke-linecap:round;"/>
    <path clip-path="url(#p4f8647237d)" d="M 192.466764 224.029384 
L 189.75422 220.47381 
L 194.226205 220.437119 
L 192.466764 224.029384 
z
" style="stroke:#000000;stroke-linecap:round;"/>
   </g>
   <g id="patch_18">
    <path clip-path="url(#p4f8647237d)" d="M 429.757565 241.195648 
Q 368.065923 233.93243 307.484646 226.79994 
" style="fill:none;stroke:#000000;stroke-linecap:round;"/>
    <path clip-path="url(#p4f8647237d)" d="M 311.223355 229.253928 
L 307.484646 226.79994 
L 311.691061 225.281366 
L 311.223355 229.253928 
z
" style="stroke:#000000;stroke-linecap:round;"/>
   </g>
   <g id="patch_19">
    <path clip-path="url(#p4f8647237d)" d="M 292.838206 232.772842 
Q 256.696565 284.869172 221.192214 336.046882 
" style="fill:none;stroke:#000000;stroke-linecap:round;"/>
    <path clip-path="url(#p4f8647237d)" d="M 225.115527 333.900345 
L 221.192214 336.046882 
L 221.828972 331.62031 
L 225.115527 333.900345 
z
" style="stroke:#000000;stroke-linecap:round;"/>
   </g>
   <g id="patch_20">
    <path clip-path="url(#p4f8647237d)" d="M 290.024142 221.797893 
Q 259.673948 206.687484 230.324605 192.075367 
" style="fill:none;stroke:#000000;stroke-linecap:round;"/>
    <path clip-path="url(#p4f8647237d)" d="M 233.013988 195.648491 
L 230.324605 192.075367 
L 234.796734 192.067735 
L 233.013988 195.648491 
z
" style="stroke:#000000;stroke-linecap:round;"/>
   </g>
   <g id="patch_21">
    <path clip-path="url(#p4f8647237d)" d="M 518.447425 373.914155 
Q 494.079784 420.201996 470.232957 465.500517 
" style="fill:none;stroke:#000000;stroke-linecap:round;"/>
    <path clip-path="url(#p4f8647237d)" d="M 473.866027 462.892682 
L 470.232957 465.500517 
L 470.326531 461.02936 
L 473.866027 462.892682 
z
" style="stroke:#000000;stroke-linecap:round;"/>
   </g>
   <g id="patch_22">
    <path clip-path="url(#p4f8647237d)" d="M 459.38723 233.794611 
Q 382.904002 229.94337 307.537392 226.148355 
" style="fill:none;stroke:#000000;stroke-linecap:round;"/>
    <path clip-path="url(#p4f8647237d)" d="M 311.43175 228.346986 
L 307.537392 226.148355 
L 311.632911 224.352048 
L 311.43175 228.346986 
z
" style="stroke:#000000;stroke-linecap:round;"/>
   </g>
   <g id="patch_23">
    <path clip-path="url(#p4f8647237d)" d="M 502.129307 326.811819 
Q 422.301293 280.189044 343.438715 234.130124 
" style="fill:none;stroke:#000000;stroke-linecap:round;"/>
    <path clip-path="url(#p4f8647237d)" d="M 345.884115 237.874456 
L 343.438715 234.130124 
L 347.901421 234.420403 
L 345.884115 237.874456 
z
" style="stroke:#000000;stroke-linecap:round;"/>
   </g>
   <g id="patch_24">
    <path clip-path="url(#p4f8647237d)" d="M 253.659094 226.717566 
Q 281.641661 171.031832 309.122225 116.345093 
" style="fill:none;stroke:#000000;stroke-linecap:round;"/>
    <path clip-path="url(#p4f8647237d)" d="M 305.539144 119.021196 
L 309.122225 116.345093 
L 309.113259 120.81722 
L 305.539144 119.021196 
z
" style="stroke:#000000;stroke-linecap:round;"/>
   </g>
   <g id="patch_25">
    <path clip-path="url(#p4f8647237d)" d="M 693.389272 210.682134 
Q 664.720546 226.532476 637.030268 241.841854 
" style="fill:none;stroke:#000000;stroke-linecap:round;"/>
    <path clip-path="url(#p4f8647237d)" d="M 641.498571 241.656745 
L 637.030268 241.841854 
L 639.563163 238.156146 
L 641.498571 241.656745 
z
" style="stroke:#000000;stroke-linecap:round;"/>
   </g>
   <g id="patch_26">
    <path clip-path="url(#p4f8647237d)" d="M 692.391637 207.692928 
Q 680.49483 209.357986 669.705266 210.868077 
" style="fill:none;stroke:#000000;stroke-linecap:round;"/>
    <path clip-path="url(#p4f8647237d)" d="M 673.94387 212.294342 
L 669.705266 210.868077 
L 673.38944 208.332952 
L 673.94387 212.294342 
z
" style="stroke:#000000;stroke-linecap:round;"/>
   </g>
   <g id="patch_27">
    <path clip-path="url(#p4f8647237d)" d="M 665.338464 186.417284 
Q 649.167789 212.803555 633.581317 238.236564 
" style="fill:none;stroke:#000000;stroke-linecap:round;"/>
    <path clip-path="url(#p4f8647237d)" d="M 637.376666 235.87112 
L 633.581317 238.236564 
L 633.966171 233.781018 
L 637.376666 235.87112 
z
" style="stroke:#000000;stroke-linecap:round;"/>
   </g>
   <g id="patch_28">
    <path clip-path="url(#p4f8647237d)" d="M 667.40079 187.335729 
Q 664.941154 195.628205 662.799449 202.848804 
" style="fill:none;stroke:#000000;stroke-linecap:round;"/>
    <path clip-path="url(#p4f8647237d)" d="M 665.854342 199.58267 
L 662.799449 202.848804 
L 662.019477 198.445209 
L 665.854342 199.58267 
z
" style="stroke:#000000;stroke-linecap:round;"/>
   </g>
   <g id="patch_29">
    <path clip-path="url(#p4f8647237d)" d="M 710.852556 241.356681 
Q 673.982714 243.691499 638.22867 245.955657 
" style="fill:none;stroke:#000000;stroke-linecap:round;"/>
    <path clip-path="url(#p4f8647237d)" d="M 642.347073 247.698861 
L 638.22867 245.955657 
L 642.094275 243.706858 
L 642.347073 247.698861 
z
" style="stroke:#000000;stroke-linecap:round;"/>
   </g>
   <g id="patch_30">
    <path clip-path="url(#p4f8647237d)" d="M 711.685879 237.056527 
Q 689.754776 226.5158 668.831359 216.459396 
" style="fill:none;stroke:#000000;stroke-linecap:round;"/>
    <path clip-path="url(#p4f8647237d)" d="M 671.570182 219.994767 
L 668.831359 216.459396 
L 673.302949 216.38956 
L 671.570182 219.994767 
z
" style="stroke:#000000;stroke-linecap:round;"/>
   </g>
   <g id="patch_31">
    <path clip-path="url(#p4f8647237d)" d="M 636.049395 242.384158 
Q 664.718121 226.533817 692.4084 211.224438 
" style="fill:none;stroke:#000000;stroke-linecap:round;"/>
    <path clip-path="url(#p4f8647237d)" d="M 687.940097 211.409547 
L 692.4084 211.224438 
L 689.875505 214.910146 
L 687.940097 211.409547 
z
" style="stroke:#000000;stroke-linecap:round;"/>
   </g>
   <g id="patch_32">
    <path clip-path="url(#p4f8647237d)" d="M 632.996687 239.190525 
Q 649.167361 212.804254 664.753834 187.371246 
" style="fill:none;stroke:#000000;stroke-linecap:round;"/>
    <path clip-path="url(#p4f8647237d)" d="M 660.958485 189.736689 
L 664.753834 187.371246 
L 664.368979 191.826791 
L 660.958485 189.736689 
z
" style="stroke:#000000;stroke-linecap:round;"/>
   </g>
   <g id="patch_33">
    <path clip-path="url(#p4f8647237d)" d="M 637.113731 246.026261 
Q 673.983573 243.691444 709.737616 241.427286 
" style="fill:none;stroke:#000000;stroke-linecap:round;"/>
    <path clip-path="url(#p4f8647237d)" d="M 705.619214 239.684081 
L 709.737616 241.427286 
L 705.872011 243.676085 
L 705.619214 239.684081 
z
" style="stroke:#000000;stroke-linecap:round;"/>
   </g>
   <g id="patch_34">
    <path clip-path="url(#p4f8647237d)" d="M 668.593688 211.023652 
Q 680.490495 209.358593 691.280059 207.848503 
" style="fill:none;stroke:#000000;stroke-linecap:round;"/>
    <path clip-path="url(#p4f8647237d)" d="M 687.041455 206.422238 
L 691.280059 207.848503 
L 687.595885 210.383627 
L 687.041455 206.422238 
z
" style="stroke:#000000;stroke-linecap:round;"/>
   </g>
   <g id="patch_35">
    <path clip-path="url(#p4f8647237d)" d="M 662.481018 203.922368 
Q 664.940654 195.629892 667.082359 188.409293 
" style="fill:none;stroke:#000000;stroke-linecap:round;"/>
    <path clip-path="url(#p4f8647237d)" d="M 664.027466 191.675427 
L 667.082359 188.409293 
L 667.86233 192.812888 
L 664.027466 191.675427 
z
" style="stroke:#000000;stroke-linecap:round;"/>
   </g>
   <g id="patch_36">
    <path clip-path="url(#p4f8647237d)" d="M 667.827065 215.976703 
Q 689.758168 226.51743 710.681585 236.573834 
" style="fill:none;stroke:#000000;stroke-linecap:round;"/>
    <path clip-path="url(#p4f8647237d)" d="M 707.942762 233.038463 
L 710.681585 236.573834 
L 706.209995 236.64367 
L 707.942762 233.038463 
z
" style="stroke:#000000;stroke-linecap:round;"/>
   </g>
   <g id="patch_37">
    <path clip-path="url(#p4f8647237d)" d="M 629.514096 181.477961 
Q 661.151801 192.554016 691.734271 203.260642 
" style="fill:none;stroke:#000000;stroke-linecap:round;"/>
    <path clip-path="url(#p4f8647237d)" d="M 688.619796 200.051273 
L 691.734271 203.260642 
L 687.298091 203.8266 
L 688.619796 200.051273 
z
" style="stroke:#000000;stroke-linecap:round;"/>
   </g>
   <g id="patch_38">
    <path clip-path="url(#p4f8647237d)" d="M 630.004523 178.691548 
Q 645.605897 178.82571 660.089279 178.950258 
" style="fill:none;stroke:#000000;stroke-linecap:round;"/>
    <path clip-path="url(#p4f8647237d)" d="M 656.106625 176.915936 
L 660.089279 178.950258 
L 656.072229 180.915788 
L 656.106625 176.915936 
z
" style="stroke:#000000;stroke-linecap:round;"/>
   </g>
   <g id="patch_39">
    <path clip-path="url(#p4f8647237d)" d="M 628.659864 183.253776 
Q 670.419327 209.71396 711.234381 235.575735 
" style="fill:none;stroke:#000000;stroke-linecap:round;"/>
    <path clip-path="url(#p4f8647237d)" d="M 708.926029 231.745394 
L 711.234381 235.575735 
L 706.785097 235.124213 
L 708.926029 231.745394 
z
" style="stroke:#000000;stroke-linecap:round;"/>
   </g>
   <g id="patch_40">
    <path clip-path="url(#p4f8647237d)" d="M 607.438502 223.087347 
Q 649.939726 215.546415 691.340108 208.200804 
" style="fill:none;stroke:#000000;stroke-linecap:round;"/>
    <path clip-path="url(#p4f8647237d)" d="M 687.052221 206.930361 
L 691.340108 208.200804 
L 687.751021 210.868847 
L 687.052221 206.930361 
z
" style="stroke:#000000;stroke-linecap:round;"/>
   </g>
   <g id="patch_41">
    <path clip-path="url(#p4f8647237d)" d="M 606.200265 219.920569 
Q 634.388856 201.816969 661.636714 184.317537 
" style="fill:none;stroke:#000000;stroke-linecap:round;"/>
    <path clip-path="url(#p4f8647237d)" d="M 657.190273 184.796241 
L 661.636714 184.317537 
L 659.351813 188.161913 
L 657.190273 184.796241 
z
" style="stroke:#000000;stroke-linecap:round;"/>
   </g>
   <g id="patch_42">
    <path clip-path="url(#p4f8647237d)" d="M 607.499411 225.753849 
Q 659.205752 232.704793 709.804027 239.506777 
" style="fill:none;stroke:#000000;stroke-linecap:round;"/>
    <path clip-path="url(#p4f8647237d)" d="M 706.106153 236.991677 
L 709.804027 239.506777 
L 705.573223 240.956016 
L 706.106153 236.991677 
z
" style="stroke:#000000;stroke-linecap:round;"/>
   </g>
   <g id="patch_43">
    <path clip-path="url(#p4f8647237d)" d="M 272.59075 227.176462 
Q 311.361416 238.27413 349.057214 249.064129 
" style="fill:none;stroke:#000000;stroke-linecap:round;"/>
    <path clip-path="url(#p4f8647237d)" d="M 345.762026 246.040599 
L 349.057214 249.064129 
L 344.661277 249.886161 
L 345.762026 246.040599 
z
" style="stroke:#000000;stroke-linecap:round;"/>
   </g>
   <g id="patch_44">
    <path clip-path="url(#p4f8647237d)" d="M 515.071586 293.263726 
Q 440.948842 273.618291 367.906818 254.259289 
" style="fill:none;stroke:#000000;stroke-linecap:round;"/>
    <path clip-path="url(#p4f8647237d)" d="M 371.260932 257.217315 
L 367.906818 254.259289 
L 372.285707 253.350813 
L 371.260932 257.217315 
z
" style="stroke:#000000;stroke-linecap:round;"/>
   </g>
   <g id="patch_45">
    <path clip-path="url(#p4f8647237d)" d="M 382.368238 162.969874 
Q 371.539025 203.18021 361.000556 242.310976 
" style="fill:none;stroke:#000000;stroke-linecap:round;"/>
    <path clip-path="url(#p4f8647237d)" d="M 363.971941 238.968691 
L 361.000556 242.310976 
L 360.109559 237.928497 
L 363.971941 238.968691 
z
" style="stroke:#000000;stroke-linecap:round;"/>
   </g>
   <g id="patch_46">
    <path clip-path="url(#p4f8647237d)" d="M 321.549245 294.59895 
Q 289.731691 350.813507 258.464852 406.055072 
" style="fill:none;stroke:#000000;stroke-linecap:round;"/>
    <path clip-path="url(#p4f8647237d)" d="M 262.175691 403.559141 
L 258.464852 406.055072 
L 258.69461 401.588842 
L 262.175691 403.559141 
z
" style="stroke:#000000;stroke-linecap:round;"/>
   </g>
   <g id="patch_47">
    <path clip-path="url(#p4f8647237d)" d="M 334.456902 286.482408 
Q 429.273855 280.124852 522.975279 273.842093 
" style="fill:none;stroke:#000000;stroke-linecap:round;"/>
    <path clip-path="url(#p4f8647237d)" d="M 518.850439 272.114176 
L 522.975279 273.842093 
L 519.118041 276.105215 
L 518.850439 272.114176 
z
" style="stroke:#000000;stroke-linecap:round;"/>
   </g>
   <g id="patch_48">
    <path clip-path="url(#p4f8647237d)" d="M 320.709181 280.067844 
Q 284.906514 231.027622 249.763093 182.890393 
" style="fill:none;stroke:#000000;stroke-linecap:round;"/>
    <path clip-path="url(#p4f8647237d)" d="M 250.506359 187.300331 
L 249.763093 182.890393 
L 253.737003 184.941743 
L 250.506359 187.300331 
z
" style="stroke:#000000;stroke-linecap:round;"/>
   </g>
   <g id="patch_49">
    <path clip-path="url(#p4f8647237d)" d="M 331.217444 280.292141 
Q 340.16939 269.074082 348.423974 258.729915 
" style="fill:none;stroke:#000000;stroke-linecap:round;"/>
    <path clip-path="url(#p4f8647237d)" d="M 344.365754 260.60897 
L 348.423974 258.729915 
L 347.492286 263.103924 
L 344.365754 260.60897 
z
" style="stroke:#000000;stroke-linecap:round;"/>
   </g>
   <g id="patch_50">
    <path clip-path="url(#p4f8647237d)" d="M 324.686354 306.072833 
Q 291.539722 356.695721 259.005542 406.383247 
" style="fill:none;stroke:#000000;stroke-linecap:round;"/>
    <path clip-path="url(#p4f8647237d)" d="M 262.869945 404.132382 
L 259.005542 406.383247 
L 259.523492 401.941206 
L 262.869945 404.132382 
z
" style="stroke:#000000;stroke-linecap:round;"/>
   </g>
   <g id="patch_51">
    <path clip-path="url(#p4f8647237d)" d="M 338.019634 297.745263 
Q 431.08237 286.008148 523.035858 274.410932 
" style="fill:none;stroke:#000000;stroke-linecap:round;"/>
    <path clip-path="url(#p4f8647237d)" d="M 518.817038 272.927168 
L 523.035858 274.410932 
L 519.317555 276.895729 
L 518.817038 272.927168 
z
" style="stroke:#000000;stroke-linecap:round;"/>
   </g>
   <g id="patch_52">
    <path clip-path="url(#p4f8647237d)" d="M 324.509956 291.697397 
Q 286.712257 236.908887 249.549445 183.040659 
" style="fill:none;stroke:#000000;stroke-linecap:round;"/>
    <path clip-path="url(#p4f8647237d)" d="M 250.174637 187.46888 
L 249.549445 183.040659 
L 253.467136 185.197438 
L 250.174637 187.46888 
z
" style="stroke:#000000;stroke-linecap:round;"/>
   </g>
   <g id="patch_53">
    <path clip-path="url(#p4f8647237d)" d="M 333.459426 291.161892 
Q 341.977729 274.955508 349.975856 259.73878 
" style="fill:none;stroke:#000000;stroke-linecap:round;"/>
    <path clip-path="url(#p4f8647237d)" d="M 346.344468 262.348956 
L 349.975856 259.73878 
L 349.885164 264.209996 
L 346.344468 262.348956 
z
" style="stroke:#000000;stroke-linecap:round;"/>
   </g>
   <g id="patch_54">
    <path clip-path="url(#p4f8647237d)" d="M 399.904464 268.412136 
Q 336.204602 247.927619 273.569094 227.785375 
" style="fill:none;stroke:#000000;stroke-linecap:round;"/>
    <path clip-path="url(#p4f8647237d)" d="M 276.764764 230.913904 
L 273.569094 227.785375 
L 277.989319 227.105956 
L 276.764764 230.913904 
z
" style="stroke:#000000;stroke-linecap:round;"/>
   </g>
   <g id="patch_55">
    <path clip-path="url(#p4f8647237d)" d="M 416.615461 272.856309 
Q 465.792328 283.271994 513.875425 293.456018 
" style="fill:none;stroke:#000000;stroke-linecap:round;"/>
    <path clip-path="url(#p4f8647237d)" d="M 510.376642 290.670606 
L 513.875425 293.456018 
L 509.547826 294.583797 
L 510.376642 290.670606 
z
" style="stroke:#000000;stroke-linecap:round;"/>
   </g>
   <g id="patch_56">
    <path clip-path="url(#p4f8647237d)" d="M 406.431136 262.572126 
Q 396.383523 212.834662 386.557296 164.193093 
" style="fill:none;stroke:#000000;stroke-linecap:round;"/>
    <path clip-path="url(#p4f8647237d)" d="M 385.388949 168.509917 
L 386.557296 164.193093 
L 389.309746 167.717865 
L 385.388949 168.509917 
z
" style="stroke:#000000;stroke-linecap:round;"/>
   </g>
   <g id="patch_57">
    <path clip-path="url(#p4f8647237d)" d="M 408.341491 279.722405 
Q 409.254767 320.242899 410.142851 359.645643 
" style="fill:none;stroke:#000000;stroke-linecap:round;"/>
    <path clip-path="url(#p4f8647237d)" d="M 412.052212 355.601593 
L 410.142851 359.645643 
L 408.053228 355.691724 
L 412.052212 355.601593 
z
" style="stroke:#000000;stroke-linecap:round;"/>
   </g>
   <g id="patch_58">
    <path clip-path="url(#p4f8647237d)" d="M 408.913883 279.687796 
Q 411.863542 312.833252 414.714097 344.865075 
" style="fill:none;stroke:#000000;stroke-linecap:round;"/>
    <path clip-path="url(#p4f8647237d)" d="M 416.35166 340.703538 
L 414.714097 344.865075 
L 412.367405 341.058102 
L 416.35166 340.703538 
z
" style="stroke:#000000;stroke-linecap:round;"/>
   </g>
   <g id="patch_59">
    <path clip-path="url(#p4f8647237d)" d="M 385.586551 274.463087 
Q 328.932781 251.2688 273.31369 228.498115 
" style="fill:none;stroke:#000000;stroke-linecap:round;"/>
    <path clip-path="url(#p4f8647237d)" d="M 276.25771 231.86453 
L 273.31369 228.498115 
L 277.773234 228.162749 
L 276.25771 231.86453 
z
" style="stroke:#000000;stroke-linecap:round;"/>
   </g>
   <g id="patch_60">
    <path clip-path="url(#p4f8647237d)" d="M 402.181739 278.91704 
Q 458.521141 286.613488 513.752798 294.158608 
" style="fill:none;stroke:#000000;stroke-linecap:round;"/>
    <path clip-path="url(#p4f8647237d)" d="M 510.06031 291.635607 
L 513.752798 294.158608 
L 509.518904 295.598797 
L 510.06031 291.635607 
z
" style="stroke:#000000;stroke-linecap:round;"/>
   </g>
   <g id="patch_61">
    <path clip-path="url(#p4f8647237d)" d="M 392.972991 269.105733 
Q 389.111741 216.173184 385.331833 164.355706 
" style="fill:none;stroke:#000000;stroke-linecap:round;"/>
    <path clip-path="url(#p4f8647237d)" d="M 383.628146 168.490612 
L 385.331833 164.355706 
L 387.617546 168.199599 
L 383.628146 168.490612 
z
" style="stroke:#000000;stroke-linecap:round;"/>
   </g>
   <g id="patch_62">
    <path clip-path="url(#p4f8647237d)" d="M 395.160645 286.264288 
Q 401.983187 323.583412 408.604667 359.802729 
" style="fill:none;stroke:#000000;stroke-linecap:round;"/>
    <path clip-path="url(#p4f8647237d)" d="M 409.852718 355.508271 
L 408.604667 359.802729 
L 405.917931 356.227614 
L 409.852718 355.508271 
z
" style="stroke:#000000;stroke-linecap:round;"/>
   </g>
   <g id="patch_63">
    <path clip-path="url(#p4f8647237d)" d="M 395.984232 286.072203 
Q 404.591944 316.175593 412.892285 345.20403 
" style="fill:none;stroke:#000000;stroke-linecap:round;"/>
    <path clip-path="url(#p4f8647237d)" d="M 413.715538 340.808321 
L 412.892285 345.20403 
L 409.86967 341.908002 
L 413.715538 340.808321 
z
" style="stroke:#000000;stroke-linecap:round;"/>
   </g>
   <g id="patch_64">
    <path clip-path="url(#p4f8647237d)" d="M 418.971347 370.383888 
Q 540.891047 384.00997 661.699631 397.511871 
" style="fill:none;stroke:#000000;stroke-linecap:round;"/>
    <path clip-path="url(#p4f8647237d)" d="M 657.946524 395.079961 
L 661.699631 397.511871 
L 657.502239 399.055211 
L 657.946524 395.079961 
z
" style="stroke:#000000;stroke-linecap:round;"/>
   </g>
   <g id="patch_65">
    <path clip-path="url(#p4f8647237d)" d="M 402.212086 366.496231 
Q 288.235386 325.587839 175.310993 285.057139 
" style="fill:none;stroke:#000000;stroke-linecap:round;"/>
    <path clip-path="url(#p4f8647237d)" d="M 178.400201 288.290836 
L 175.310993 285.057139 
L 179.751475 284.525991 
L 178.400201 288.290836 
z
" style="stroke:#000000;stroke-linecap:round;"/>
   </g>
   <g id="patch_66">
    <path clip-path="url(#p4f8647237d)" d="M 424.118681 356.075471 
Q 543.503429 376.603344 661.786313 396.941754 
" style="fill:none;stroke:#000000;stroke-linecap:round;"/>
    <path clip-path="url(#p4f8647237d)" d="M 658.183086 394.292839 
L 661.786313 396.941754 
L 657.505244 398.234987 
L 658.183086 394.292839 
z
" style="stroke:#000000;stroke-linecap:round;"/>
   </g>
   <g id="patch_67">
    <path clip-path="url(#p4f8647237d)" d="M 407.271078 352.180685 
Q 290.844868 318.180754 175.491865 284.494232 
" style="fill:none;stroke:#000000;stroke-linecap:round;"/>
    <path clip-path="url(#p4f8647237d)" d="M 178.770848 287.535329 
L 175.491865 284.494232 
L 179.892133 283.695704 
L 178.770848 287.535329 
z
" style="stroke:#000000;stroke-linecap:round;"/>
   </g>
   <g id="patch_68">
    <path clip-path="url(#p4f8647237d)" d="M 348.240157 245.131647 
Q 297.611449 197.16138 247.794331 149.960087 
" style="fill:none;stroke:#000000;stroke-linecap:round;"/>
    <path clip-path="url(#p4f8647237d)" d="M 249.32238 154.16307 
L 247.794331 149.960087 
L 252.073546 151.259438 
L 249.32238 154.16307 
z
" style="stroke:#000000;stroke-linecap:round;"/>
   </g>
   <g id="patch_69">
    <path clip-path="url(#p4f8647237d)" d="M 397.998513 219.666615 
Q 335.459007 222.063789 274.036714 224.418139 
" style="fill:none;stroke:#000000;stroke-linecap:round;"/>
    <path clip-path="url(#p4f8647237d)" d="M 278.110383 226.263462 
L 274.036714 224.418139 
L 277.957174 222.266397 
L 278.110383 226.263462 
z
" style="stroke:#000000;stroke-linecap:round;"/>
   </g>
   <g id="patch_70">
    <path clip-path="url(#p4f8647237d)" d="M 413.903188 224.063992 
Q 465.044003 257.407265 515.248261 290.139914 
" style="fill:none;stroke:#000000;stroke-linecap:round;"/>
    <path clip-path="url(#p4f8647237d)" d="M 512.989855 286.279914 
L 515.248261 290.139914 
L 510.805217 289.630639 
L 512.989855 286.279914 
z
" style="stroke:#000000;stroke-linecap:round;"/>
   </g>
   <g id="patch_71">
    <path clip-path="url(#p4f8647237d)" d="M 403.860039 211.137249 
Q 395.635976 186.97257 387.772128 163.866308 
" style="fill:none;stroke:#000000;stroke-linecap:round;"/>
    <path clip-path="url(#p4f8647237d)" d="M 387.16752 168.297386 
L 387.772128 163.866308 
L 390.954225 167.008641 
L 387.16752 168.297386 
z
" style="stroke:#000000;stroke-linecap:round;"/>
   </g>
   <g id="PathCollection_1">
    <defs>
     <path d="M 0 8.660254 
C 2.296726 8.660254 4.499694 7.747755 6.123724 6.123724 
C 7.747755 4.499694 8.660254 2.296726 8.660254 -0 
C 8.660254 -2.296726 7.747755 -4.499694 6.123724 -6.123724 
C 4.499694 -7.747755 2.296726 -8.660254 0 -8.660254 
C -2.296726 -8.660254 -4.499694 -7.747755 -6.123724 -6.123724 
C -7.747755 -4.499694 -8.660254 -2.296726 -8.660254 0 
C -8.660254 2.296726 -7.747755 4.499694 -6.123724 6.123724 
C -4.499694 7.747755 -2.296726 8.660254 0 8.660254 
z
" id="C0_0_1b03f7a5de"/>
    </defs>
    <g clip-path="url(#p4f8647237d)">
     <use style="fill:#ff0000;stroke:#ff0000;" x="412.102641" xlink:href="#C0_0_1b03f7a5de" y="203.627906"/>
    </g>
    <g clip-path="url(#p4f8647237d)">
     <use style="fill:#ff0000;stroke:#ff0000;" x="313.513056" xlink:href="#C0_0_1b03f7a5de" y="107.607273"/>
    </g>
    <g clip-path="url(#p4f8647237d)">
     <use style="fill:#ff0000;stroke:#ff0000;" x="243.998043" xlink:href="#C0_0_1b03f7a5de" y="174.993794"/>
    </g>
    <g clip-path="url(#p4f8647237d)">
     <use style="fill:#ff0000;stroke:#ff0000;" x="334.993267" xlink:href="#C0_0_1b03f7a5de" y="229.197642"/>
    </g>
    <g clip-path="url(#p4f8647237d)">
     <use style="fill:#ff0000;stroke:#ff0000;" x="309.055278" xlink:href="#C0_0_1b03f7a5de" y="354.729178"/>
    </g>
    <g clip-path="url(#p4f8647237d)">
     <use style="fill:#ff0000;stroke:#ff0000;" x="358.457208" xlink:href="#C0_0_1b03f7a5de" y="251.754772"/>
    </g>
    <g clip-path="url(#p4f8647237d)">
     <use style="fill:#ff0000;stroke:#ff0000;" x="443.709816" xlink:href="#C0_0_1b03f7a5de" y="339.770136"/>
    </g>
    <g clip-path="url(#p4f8647237d)">
     <use style="fill:#ff0000;stroke:#ff0000;" x="647.318456" xlink:href="#C0_0_1b03f7a5de" y="312.538514"/>
    </g>
    <g clip-path="url(#p4f8647237d)">
     <use style="fill:#ff0000;stroke:#ff0000;" x="532.734597" xlink:href="#C0_0_1b03f7a5de" y="273.187722"/>
    </g>
    <g clip-path="url(#p4f8647237d)">
     <use style="fill:#ff0000;stroke:#ff0000;" x="253.647482" xlink:href="#C0_0_1b03f7a5de" y="414.566295"/>
    </g>
    <g clip-path="url(#p4f8647237d)">
     <use style="fill:#ff0000;stroke:#ff0000;" x="354.837915" xlink:href="#C0_0_1b03f7a5de" y="301.329505"/>
    </g>
    <g clip-path="url(#p4f8647237d)">
     <use style="fill:#ff0000;stroke:#ff0000;" x="380.224323" xlink:href="#C0_0_1b03f7a5de" y="468.867302"/>
    </g>
    <g clip-path="url(#p4f8647237d)">
     <use style="fill:#ff0000;stroke:#ff0000;" x="180.972298" xlink:href="#C0_0_1b03f7a5de" y="216.172547"/>
    </g>
    <g clip-path="url(#p4f8647237d)">
     <use style="fill:#ff0000;stroke:#ff0000;" x="240.697843" xlink:href="#C0_0_1b03f7a5de" y="143.236226"/>
    </g>
    <g clip-path="url(#p4f8647237d)">
     <use style="fill:#ff0000;stroke:#ff0000;" x="438.359624" xlink:href="#C0_0_1b03f7a5de" y="242.208404"/>
    </g>
    <g clip-path="url(#p4f8647237d)">
     <use style="fill:#ff0000;stroke:#ff0000;" x="297.77495" xlink:href="#C0_0_1b03f7a5de" y="225.656777"/>
    </g>
    <g clip-path="url(#p4f8647237d)">
     <use style="fill:#ff0000;stroke:#ff0000;" x="522.481267" xlink:href="#C0_0_1b03f7a5de" y="366.251623"/>
    </g>
    <g clip-path="url(#p4f8647237d)">
     <use style="fill:#ff0000;stroke:#ff0000;" x="468.035892" xlink:href="#C0_0_1b03f7a5de" y="234.230106"/>
    </g>
    <g clip-path="url(#p4f8647237d)">
     <use style="fill:#ff0000;stroke:#ff0000;" x="509.608318" xlink:href="#C0_0_1b03f7a5de" y="331.179862"/>
    </g>
    <g clip-path="url(#p4f8647237d)">
     <use style="fill:#ff0000;stroke:#ff0000;" x="249.770502" xlink:href="#C0_0_1b03f7a5de" y="234.455922"/>
    </g>
    <g clip-path="url(#p4f8647237d)">
     <use style="fill:#ff0000;stroke:#ff0000;" x="700.966596" xlink:href="#C0_0_1b03f7a5de" y="206.49279"/>
    </g>
    <g clip-path="url(#p4f8647237d)">
     <use style="fill:#ff0000;stroke:#ff0000;" x="669.863079" xlink:href="#C0_0_1b03f7a5de" y="179.034307"/>
    </g>
    <g clip-path="url(#p4f8647237d)">
     <use style="fill:#ff0000;stroke:#ff0000;" x="719.494215" xlink:href="#C0_0_1b03f7a5de" y="240.80944"/>
    </g>
    <g clip-path="url(#p4f8647237d)">
     <use style="fill:#ff0000;stroke:#ff0000;" x="628.472072" xlink:href="#C0_0_1b03f7a5de" y="246.573503"/>
    </g>
    <g clip-path="url(#p4f8647237d)">
     <use style="fill:#ff0000;stroke:#ff0000;" x="660.018729" xlink:href="#C0_0_1b03f7a5de" y="212.22379"/>
    </g>
    <g clip-path="url(#p4f8647237d)">
     <use style="fill:#ff0000;stroke:#ff0000;" x="621.342195" xlink:href="#C0_0_1b03f7a5de" y="178.617058"/>
    </g>
    <g clip-path="url(#p4f8647237d)">
     <use style="fill:#ff0000;stroke:#ff0000;" x="598.914431" xlink:href="#C0_0_1b03f7a5de" y="224.599761"/>
    </g>
    <g clip-path="url(#p4f8647237d)">
     <use style="fill:#ff0000;stroke:#ff0000;" x="264.263103" xlink:href="#C0_0_1b03f7a5de" y="224.792767"/>
    </g>
    <g clip-path="url(#p4f8647237d)">
     <use style="fill:#008000;stroke:#008000;" x="523.442176" xlink:href="#C0_0_1b03f7a5de" y="295.48226"/>
    </g>
    <g clip-path="url(#p4f8647237d)">
     <use style="fill:#ff0000;stroke:#ff0000;" x="384.620651" xlink:href="#C0_0_1b03f7a5de" y="154.606359"/>
    </g>
    <g clip-path="url(#p4f8647237d)">
     <use style="fill:#ff0000;stroke:#ff0000;" x="465.678111" xlink:href="#C0_0_1b03f7a5de" y="474.152727"/>
    </g>
    <g clip-path="url(#p4f8647237d)">
     <use style="fill:#ff0000;stroke:#ff0000;" x="325.815267" xlink:href="#C0_0_1b03f7a5de" y="287.061837"/>
    </g>
    <g clip-path="url(#p4f8647237d)">
     <use style="fill:#ff0000;stroke:#ff0000;" x="329.429679" xlink:href="#C0_0_1b03f7a5de" y="298.828633"/>
    </g>
    <g clip-path="url(#p4f8647237d)">
     <use style="fill:#ff0000;stroke:#ff0000;" x="215.617897" xlink:href="#C0_0_1b03f7a5de" y="344.081977"/>
    </g>
    <g clip-path="url(#p4f8647237d)">
     <use style="fill:#ff0000;stroke:#ff0000;" x="221.573789" xlink:href="#C0_0_1b03f7a5de" y="187.71861"/>
    </g>
    <g clip-path="url(#p4f8647237d)">
     <use style="fill:#ff0000;stroke:#ff0000;" x="408.146309" xlink:href="#C0_0_1b03f7a5de" y="271.062538"/>
    </g>
    <g clip-path="url(#p4f8647237d)">
     <use style="fill:#ff0000;stroke:#ff0000;" x="393.603206" xlink:href="#C0_0_1b03f7a5de" y="277.745139"/>
    </g>
    <g clip-path="url(#p4f8647237d)">
     <use style="fill:#ff0000;stroke:#ff0000;" x="410.363193" xlink:href="#C0_0_1b03f7a5de" y="369.421817"/>
    </g>
    <g clip-path="url(#p4f8647237d)">
     <use style="fill:#ff0000;stroke:#ff0000;" x="415.581084" xlink:href="#C0_0_1b03f7a5de" y="354.607455"/>
    </g>
    <g clip-path="url(#p4f8647237d)">
     <use style="fill:#ff0000;stroke:#ff0000;" x="671.420106" xlink:href="#C0_0_1b03f7a5de" y="398.598258"/>
    </g>
    <g clip-path="url(#p4f8647237d)">
     <use style="fill:#ff0000;stroke:#ff0000;" x="166.105785" xlink:href="#C0_0_1b03f7a5de" y="281.753216"/>
    </g>
    <g clip-path="url(#p4f8647237d)">
     <use style="fill:#ff0000;stroke:#ff0000;" x="354.524082" xlink:href="#C0_0_1b03f7a5de" y="251.085613"/>
    </g>
    <g clip-path="url(#p4f8647237d)">
     <use style="fill:#ff0000;stroke:#ff0000;" x="406.650013" xlink:href="#C0_0_1b03f7a5de" y="219.334998"/>
    </g>
   </g>
   <g id="text_1">
    <g clip-path="url(#p4f8647237d)">
     <!-- RASGRP1 -->
     <g transform="translate(384.006703 206.939156)scale(0.12 -0.12)">
      <defs>
       <path d="M 44.390625 34.1875 
Q 47.5625 33.109375 50.5625 29.59375 
Q 53.5625 26.078125 56.59375 19.921875 
L 66.609375 0 
L 56 0 
L 46.6875 18.703125 
Q 43.0625 26.03125 39.671875 28.421875 
Q 36.28125 30.8125 30.421875 30.8125 
L 19.671875 30.8125 
L 19.671875 0 
L 9.8125 0 
L 9.8125 72.90625 
L 32.078125 72.90625 
Q 44.578125 72.90625 50.734375 67.671875 
Q 56.890625 62.453125 56.890625 51.90625 
Q 56.890625 45.015625 53.6875 40.46875 
Q 50.484375 35.9375 44.390625 34.1875 
z
M 19.671875 64.796875 
L 19.671875 38.921875 
L 32.078125 38.921875 
Q 39.203125 38.921875 42.84375 42.21875 
Q 46.484375 45.515625 46.484375 51.90625 
Q 46.484375 58.296875 42.84375 61.546875 
Q 39.203125 64.796875 32.078125 64.796875 
z
" id="DejaVuSans-82"/>
       <path d="M 34.1875 63.1875 
L 20.796875 26.90625 
L 47.609375 26.90625 
z
M 28.609375 72.90625 
L 39.796875 72.90625 
L 67.578125 0 
L 57.328125 0 
L 50.6875 18.703125 
L 17.828125 18.703125 
L 11.1875 0 
L 0.78125 0 
z
" id="DejaVuSans-65"/>
       <path d="M 53.515625 70.515625 
L 53.515625 60.890625 
Q 47.90625 63.578125 42.921875 64.890625 
Q 37.9375 66.21875 33.296875 66.21875 
Q 25.25 66.21875 20.875 63.09375 
Q 16.5 59.96875 16.5 54.203125 
Q 16.5 49.359375 19.40625 46.890625 
Q 22.3125 44.4375 30.421875 42.921875 
L 36.375 41.703125 
Q 47.40625 39.59375 52.65625 34.296875 
Q 57.90625 29 57.90625 20.125 
Q 57.90625 9.515625 50.796875 4.046875 
Q 43.703125 -1.421875 29.984375 -1.421875 
Q 24.8125 -1.421875 18.96875 -0.25 
Q 13.140625 0.921875 6.890625 3.21875 
L 6.890625 13.375 
Q 12.890625 10.015625 18.65625 8.296875 
Q 24.421875 6.59375 29.984375 6.59375 
Q 38.421875 6.59375 43.015625 9.90625 
Q 47.609375 13.234375 47.609375 19.390625 
Q 47.609375 24.75 44.3125 27.78125 
Q 41.015625 30.8125 33.5 32.328125 
L 27.484375 33.5 
Q 16.453125 35.6875 11.515625 40.375 
Q 6.59375 45.0625 6.59375 53.421875 
Q 6.59375 63.09375 13.40625 68.65625 
Q 20.21875 74.21875 32.171875 74.21875 
Q 37.3125 74.21875 42.625 73.28125 
Q 47.953125 72.359375 53.515625 70.515625 
z
" id="DejaVuSans-83"/>
       <path d="M 59.515625 10.40625 
L 59.515625 29.984375 
L 43.40625 29.984375 
L 43.40625 38.09375 
L 69.28125 38.09375 
L 69.28125 6.78125 
Q 63.578125 2.734375 56.6875 0.65625 
Q 49.8125 -1.421875 42 -1.421875 
Q 24.90625 -1.421875 15.25 8.5625 
Q 5.609375 18.5625 5.609375 36.375 
Q 5.609375 54.25 15.25 64.234375 
Q 24.90625 74.21875 42 74.21875 
Q 49.125 74.21875 55.546875 72.453125 
Q 61.96875 70.703125 67.390625 67.28125 
L 67.390625 56.78125 
Q 61.921875 61.421875 55.765625 63.765625 
Q 49.609375 66.109375 42.828125 66.109375 
Q 29.4375 66.109375 22.71875 58.640625 
Q 16.015625 51.171875 16.015625 36.375 
Q 16.015625 21.625 22.71875 14.15625 
Q 29.4375 6.6875 42.828125 6.6875 
Q 48.046875 6.6875 52.140625 7.59375 
Q 56.25 8.5 59.515625 10.40625 
z
" id="DejaVuSans-71"/>
       <path d="M 19.671875 64.796875 
L 19.671875 37.40625 
L 32.078125 37.40625 
Q 38.96875 37.40625 42.71875 40.96875 
Q 46.484375 44.53125 46.484375 51.125 
Q 46.484375 57.671875 42.71875 61.234375 
Q 38.96875 64.796875 32.078125 64.796875 
z
M 9.8125 72.90625 
L 32.078125 72.90625 
Q 44.34375 72.90625 50.609375 67.359375 
Q 56.890625 61.8125 56.890625 51.125 
Q 56.890625 40.328125 50.609375 34.8125 
Q 44.34375 29.296875 32.078125 29.296875 
L 19.671875 29.296875 
L 19.671875 0 
L 9.8125 0 
z
" id="DejaVuSans-80"/>
       <path d="M 12.40625 8.296875 
L 28.515625 8.296875 
L 28.515625 63.921875 
L 10.984375 60.40625 
L 10.984375 69.390625 
L 28.421875 72.90625 
L 38.28125 72.90625 
L 38.28125 8.296875 
L 54.390625 8.296875 
L 54.390625 0 
L 12.40625 0 
z
" id="DejaVuSans-49"/>
      </defs>
      <use xlink:href="#DejaVuSans-82"/>
      <use x="65.482422" xlink:href="#DejaVuSans-65"/>
      <use x="133.890625" xlink:href="#DejaVuSans-83"/>
      <use x="197.367188" xlink:href="#DejaVuSans-71"/>
      <use x="274.857422" xlink:href="#DejaVuSans-82"/>
      <use x="344.339844" xlink:href="#DejaVuSans-80"/>
      <use x="404.642578" xlink:href="#DejaVuSans-49"/>
     </g>
    </g>
   </g>
   <g id="text_2">
    <g clip-path="url(#p4f8647237d)">
     <!-- PLCG1 -->
     <g transform="translate(293.895869 110.918523)scale(0.12 -0.12)">
      <defs>
       <path d="M 9.8125 72.90625 
L 19.671875 72.90625 
L 19.671875 8.296875 
L 55.171875 8.296875 
L 55.171875 0 
L 9.8125 0 
z
" id="DejaVuSans-76"/>
       <path d="M 64.40625 67.28125 
L 64.40625 56.890625 
Q 59.421875 61.53125 53.78125 63.8125 
Q 48.140625 66.109375 41.796875 66.109375 
Q 29.296875 66.109375 22.65625 58.46875 
Q 16.015625 50.828125 16.015625 36.375 
Q 16.015625 21.96875 22.65625 14.328125 
Q 29.296875 6.6875 41.796875 6.6875 
Q 48.140625 6.6875 53.78125 8.984375 
Q 59.421875 11.28125 64.40625 15.921875 
L 64.40625 5.609375 
Q 59.234375 2.09375 53.4375 0.328125 
Q 47.65625 -1.421875 41.21875 -1.421875 
Q 24.65625 -1.421875 15.125 8.703125 
Q 5.609375 18.84375 5.609375 36.375 
Q 5.609375 53.953125 15.125 64.078125 
Q 24.65625 74.21875 41.21875 74.21875 
Q 47.75 74.21875 53.53125 72.484375 
Q 59.328125 70.75 64.40625 67.28125 
z
" id="DejaVuSans-67"/>
      </defs>
      <use xlink:href="#DejaVuSans-80"/>
      <use x="60.302734" xlink:href="#DejaVuSans-76"/>
      <use x="116.015625" xlink:href="#DejaVuSans-67"/>
      <use x="185.839844" xlink:href="#DejaVuSans-71"/>
      <use x="263.330078" xlink:href="#DejaVuSans-49"/>
     </g>
    </g>
   </g>
   <g id="text_3">
    <g clip-path="url(#p4f8647237d)">
     <!-- ZAP70 -->
     <g transform="translate(224.530856 178.305044)scale(0.12 -0.12)">
      <defs>
       <path d="M 5.609375 72.90625 
L 62.890625 72.90625 
L 62.890625 65.375 
L 16.796875 8.296875 
L 64.015625 8.296875 
L 64.015625 0 
L 4.5 0 
L 4.5 7.515625 
L 50.59375 64.59375 
L 5.609375 64.59375 
z
" id="DejaVuSans-90"/>
       <path d="M 8.203125 72.90625 
L 55.078125 72.90625 
L 55.078125 68.703125 
L 28.609375 0 
L 18.3125 0 
L 43.21875 64.59375 
L 8.203125 64.59375 
z
" id="DejaVuSans-55"/>
       <path d="M 31.78125 66.40625 
Q 24.171875 66.40625 20.328125 58.90625 
Q 16.5 51.421875 16.5 36.375 
Q 16.5 21.390625 20.328125 13.890625 
Q 24.171875 6.390625 31.78125 6.390625 
Q 39.453125 6.390625 43.28125 13.890625 
Q 47.125 21.390625 47.125 36.375 
Q 47.125 51.421875 43.28125 58.90625 
Q 39.453125 66.40625 31.78125 66.40625 
z
M 31.78125 74.21875 
Q 44.046875 74.21875 50.515625 64.515625 
Q 56.984375 54.828125 56.984375 36.375 
Q 56.984375 17.96875 50.515625 8.265625 
Q 44.046875 -1.421875 31.78125 -1.421875 
Q 19.53125 -1.421875 13.0625 8.265625 
Q 6.59375 17.96875 6.59375 36.375 
Q 6.59375 54.828125 13.0625 64.515625 
Q 19.53125 74.21875 31.78125 74.21875 
z
" id="DejaVuSans-48"/>
      </defs>
      <use xlink:href="#DejaVuSans-90"/>
      <use x="68.505859" xlink:href="#DejaVuSans-65"/>
      <use x="136.914062" xlink:href="#DejaVuSans-80"/>
      <use x="197.216797" xlink:href="#DejaVuSans-55"/>
      <use x="260.839844" xlink:href="#DejaVuSans-48"/>
     </g>
    </g>
   </g>
   <g id="text_4">
    <g clip-path="url(#p4f8647237d)">
     <!-- LCK -->
     <g transform="translate(323.525767 232.508892)scale(0.12 -0.12)">
      <defs>
       <path d="M 9.8125 72.90625 
L 19.671875 72.90625 
L 19.671875 42.09375 
L 52.390625 72.90625 
L 65.09375 72.90625 
L 28.90625 38.921875 
L 67.671875 0 
L 54.6875 0 
L 19.671875 35.109375 
L 19.671875 0 
L 9.8125 0 
z
" id="DejaVuSans-75"/>
      </defs>
      <use xlink:href="#DejaVuSans-76"/>
      <use x="55.712891" xlink:href="#DejaVuSans-67"/>
      <use x="125.537109" xlink:href="#DejaVuSans-75"/>
     </g>
    </g>
   </g>
   <g id="text_5">
    <g clip-path="url(#p4f8647237d)">
     <!-- PDCD1 -->
     <g transform="translate(288.190278 358.040428)scale(0.12 -0.12)">
      <defs>
       <path d="M 19.671875 64.796875 
L 19.671875 8.109375 
L 31.59375 8.109375 
Q 46.6875 8.109375 53.6875 14.9375 
Q 60.6875 21.78125 60.6875 36.53125 
Q 60.6875 51.171875 53.6875 57.984375 
Q 46.6875 64.796875 31.59375 64.796875 
z
M 9.8125 72.90625 
L 30.078125 72.90625 
Q 51.265625 72.90625 61.171875 64.09375 
Q 71.09375 55.28125 71.09375 36.53125 
Q 71.09375 17.671875 61.125 8.828125 
Q 51.171875 0 30.078125 0 
L 9.8125 0 
z
" id="DejaVuSans-68"/>
      </defs>
      <use xlink:href="#DejaVuSans-80"/>
      <use x="60.302734" xlink:href="#DejaVuSans-68"/>
      <use x="137.304688" xlink:href="#DejaVuSans-67"/>
      <use x="207.128906" xlink:href="#DejaVuSans-68"/>
      <use x="284.130859" xlink:href="#DejaVuSans-49"/>
     </g>
    </g>
   </g>
   <g id="text_6">
    <g clip-path="url(#p4f8647237d)">
     <!-- RAF1 -->
     <g transform="translate(343.155333 255.066022)scale(0.12 -0.12)">
      <defs>
       <path d="M 9.8125 72.90625 
L 51.703125 72.90625 
L 51.703125 64.59375 
L 19.671875 64.59375 
L 19.671875 43.109375 
L 48.578125 43.109375 
L 48.578125 34.8125 
L 19.671875 34.8125 
L 19.671875 0 
L 9.8125 0 
z
" id="DejaVuSans-70"/>
      </defs>
      <use xlink:href="#DejaVuSans-82"/>
      <use x="65.482422" xlink:href="#DejaVuSans-65"/>
      <use x="133.890625" xlink:href="#DejaVuSans-70"/>
      <use x="191.410156" xlink:href="#DejaVuSans-49"/>
     </g>
    </g>
   </g>
   <g id="text_7">
    <g clip-path="url(#p4f8647237d)">
     <!-- IFNG -->
     <g transform="translate(429.351066 343.081386)scale(0.12 -0.12)">
      <defs>
       <path d="M 9.8125 72.90625 
L 19.671875 72.90625 
L 19.671875 0 
L 9.8125 0 
z
" id="DejaVuSans-73"/>
       <path d="M 9.8125 72.90625 
L 23.09375 72.90625 
L 55.421875 11.921875 
L 55.421875 72.90625 
L 64.984375 72.90625 
L 64.984375 0 
L 51.703125 0 
L 19.390625 60.984375 
L 19.390625 0 
L 9.8125 0 
z
" id="DejaVuSans-78"/>
      </defs>
      <use xlink:href="#DejaVuSans-73"/>
      <use x="29.492188" xlink:href="#DejaVuSans-70"/>
      <use x="87.011719" xlink:href="#DejaVuSans-78"/>
      <use x="161.816406" xlink:href="#DejaVuSans-71"/>
     </g>
    </g>
   </g>
   <g id="text_8">
    <g clip-path="url(#p4f8647237d)">
     <!-- CD28 -->
     <g transform="translate(630.873769 315.849764)scale(0.12 -0.12)">
      <defs>
       <path d="M 19.1875 8.296875 
L 53.609375 8.296875 
L 53.609375 0 
L 7.328125 0 
L 7.328125 8.296875 
Q 12.9375 14.109375 22.625 23.890625 
Q 32.328125 33.6875 34.8125 36.53125 
Q 39.546875 41.84375 41.421875 45.53125 
Q 43.3125 49.21875 43.3125 52.78125 
Q 43.3125 58.59375 39.234375 62.25 
Q 35.15625 65.921875 28.609375 65.921875 
Q 23.96875 65.921875 18.8125 64.3125 
Q 13.671875 62.703125 7.8125 59.421875 
L 7.8125 69.390625 
Q 13.765625 71.78125 18.9375 73 
Q 24.125 74.21875 28.421875 74.21875 
Q 39.75 74.21875 46.484375 68.546875 
Q 53.21875 62.890625 53.21875 53.421875 
Q 53.21875 48.921875 51.53125 44.890625 
Q 49.859375 40.875 45.40625 35.40625 
Q 44.1875 33.984375 37.640625 27.21875 
Q 31.109375 20.453125 19.1875 8.296875 
z
" id="DejaVuSans-50"/>
       <path d="M 31.78125 34.625 
Q 24.75 34.625 20.71875 30.859375 
Q 16.703125 27.09375 16.703125 20.515625 
Q 16.703125 13.921875 20.71875 10.15625 
Q 24.75 6.390625 31.78125 6.390625 
Q 38.8125 6.390625 42.859375 10.171875 
Q 46.921875 13.96875 46.921875 20.515625 
Q 46.921875 27.09375 42.890625 30.859375 
Q 38.875 34.625 31.78125 34.625 
z
M 21.921875 38.8125 
Q 15.578125 40.375 12.03125 44.71875 
Q 8.5 49.078125 8.5 55.328125 
Q 8.5 64.0625 14.71875 69.140625 
Q 20.953125 74.21875 31.78125 74.21875 
Q 42.671875 74.21875 48.875 69.140625 
Q 55.078125 64.0625 55.078125 55.328125 
Q 55.078125 49.078125 51.53125 44.71875 
Q 48 40.375 41.703125 38.8125 
Q 48.828125 37.15625 52.796875 32.3125 
Q 56.78125 27.484375 56.78125 20.515625 
Q 56.78125 9.90625 50.3125 4.234375 
Q 43.84375 -1.421875 31.78125 -1.421875 
Q 19.734375 -1.421875 13.25 4.234375 
Q 6.78125 9.90625 6.78125 20.515625 
Q 6.78125 27.484375 10.78125 32.3125 
Q 14.796875 37.15625 21.921875 38.8125 
z
M 18.3125 54.390625 
Q 18.3125 48.734375 21.84375 45.5625 
Q 25.390625 42.390625 31.78125 42.390625 
Q 38.140625 42.390625 41.71875 45.5625 
Q 45.3125 48.734375 45.3125 54.390625 
Q 45.3125 60.0625 41.71875 63.234375 
Q 38.140625 66.40625 31.78125 66.40625 
Q 25.390625 66.40625 21.84375 63.234375 
Q 18.3125 60.0625 18.3125 54.390625 
z
" id="DejaVuSans-56"/>
      </defs>
      <use xlink:href="#DejaVuSans-67"/>
      <use x="69.824219" xlink:href="#DejaVuSans-68"/>
      <use x="146.826172" xlink:href="#DejaVuSans-50"/>
      <use x="210.449219" xlink:href="#DejaVuSans-56"/>
     </g>
    </g>
   </g>
   <g id="text_9">
    <g clip-path="url(#p4f8647237d)">
     <!-- PRKCQ -->
     <g transform="translate(512.430222 276.498972)scale(0.12 -0.12)">
      <defs>
       <path d="M 39.40625 66.21875 
Q 28.65625 66.21875 22.328125 58.203125 
Q 16.015625 50.203125 16.015625 36.375 
Q 16.015625 22.609375 22.328125 14.59375 
Q 28.65625 6.59375 39.40625 6.59375 
Q 50.140625 6.59375 56.421875 14.59375 
Q 62.703125 22.609375 62.703125 36.375 
Q 62.703125 50.203125 56.421875 58.203125 
Q 50.140625 66.21875 39.40625 66.21875 
z
M 53.21875 1.3125 
L 66.21875 -12.890625 
L 54.296875 -12.890625 
L 43.5 -1.21875 
Q 41.890625 -1.3125 41.03125 -1.359375 
Q 40.1875 -1.421875 39.40625 -1.421875 
Q 24.03125 -1.421875 14.8125 8.859375 
Q 5.609375 19.140625 5.609375 36.375 
Q 5.609375 53.65625 14.8125 63.9375 
Q 24.03125 74.21875 39.40625 74.21875 
Q 54.734375 74.21875 63.90625 63.9375 
Q 73.09375 53.65625 73.09375 36.375 
Q 73.09375 23.6875 67.984375 14.640625 
Q 62.890625 5.609375 53.21875 1.3125 
z
" id="DejaVuSans-81"/>
      </defs>
      <use xlink:href="#DejaVuSans-80"/>
      <use x="60.302734" xlink:href="#DejaVuSans-82"/>
      <use x="129.785156" xlink:href="#DejaVuSans-75"/>
      <use x="189.861328" xlink:href="#DejaVuSans-67"/>
      <use x="259.685547" xlink:href="#DejaVuSans-81"/>
     </g>
    </g>
   </g>
   <g id="text_10">
    <g clip-path="url(#p4f8647237d)">
     <!-- BATF -->
     <g transform="translate(238.775919 417.877545)scale(0.12 -0.12)">
      <defs>
       <path d="M 19.671875 34.8125 
L 19.671875 8.109375 
L 35.5 8.109375 
Q 43.453125 8.109375 47.28125 11.40625 
Q 51.125 14.703125 51.125 21.484375 
Q 51.125 28.328125 47.28125 31.5625 
Q 43.453125 34.8125 35.5 34.8125 
z
M 19.671875 64.796875 
L 19.671875 42.828125 
L 34.28125 42.828125 
Q 41.5 42.828125 45.03125 45.53125 
Q 48.578125 48.25 48.578125 53.8125 
Q 48.578125 59.328125 45.03125 62.0625 
Q 41.5 64.796875 34.28125 64.796875 
z
M 9.8125 72.90625 
L 35.015625 72.90625 
Q 46.296875 72.90625 52.390625 68.21875 
Q 58.5 63.53125 58.5 54.890625 
Q 58.5 48.1875 55.375 44.234375 
Q 52.25 40.28125 46.1875 39.3125 
Q 53.46875 37.75 57.5 32.78125 
Q 61.53125 27.828125 61.53125 20.40625 
Q 61.53125 10.640625 54.890625 5.3125 
Q 48.25 0 35.984375 0 
L 9.8125 0 
z
" id="DejaVuSans-66"/>
       <path d="M -0.296875 72.90625 
L 61.375 72.90625 
L 61.375 64.59375 
L 35.5 64.59375 
L 35.5 0 
L 25.59375 0 
L 25.59375 64.59375 
L -0.296875 64.59375 
z
" id="DejaVuSans-84"/>
      </defs>
      <use xlink:href="#DejaVuSans-66"/>
      <use x="68.603516" xlink:href="#DejaVuSans-65"/>
      <use x="129.261719" xlink:href="#DejaVuSans-84"/>
      <use x="190.345703" xlink:href="#DejaVuSans-70"/>
     </g>
    </g>
   </g>
   <g id="text_11">
    <g clip-path="url(#p4f8647237d)">
     <!-- MAP3K3 -->
     <g transform="translate(330.369165 304.640755)scale(0.12 -0.12)">
      <defs>
       <path d="M 9.8125 72.90625 
L 24.515625 72.90625 
L 43.109375 23.296875 
L 61.8125 72.90625 
L 76.515625 72.90625 
L 76.515625 0 
L 66.890625 0 
L 66.890625 64.015625 
L 48.09375 14.015625 
L 38.1875 14.015625 
L 19.390625 64.015625 
L 19.390625 0 
L 9.8125 0 
z
" id="DejaVuSans-77"/>
       <path d="M 40.578125 39.3125 
Q 47.65625 37.796875 51.625 33 
Q 55.609375 28.21875 55.609375 21.1875 
Q 55.609375 10.40625 48.1875 4.484375 
Q 40.765625 -1.421875 27.09375 -1.421875 
Q 22.515625 -1.421875 17.65625 -0.515625 
Q 12.796875 0.390625 7.625 2.203125 
L 7.625 11.71875 
Q 11.71875 9.328125 16.59375 8.109375 
Q 21.484375 6.890625 26.8125 6.890625 
Q 36.078125 6.890625 40.9375 10.546875 
Q 45.796875 14.203125 45.796875 21.1875 
Q 45.796875 27.640625 41.28125 31.265625 
Q 36.765625 34.90625 28.71875 34.90625 
L 20.21875 34.90625 
L 20.21875 43.015625 
L 29.109375 43.015625 
Q 36.375 43.015625 40.234375 45.921875 
Q 44.09375 48.828125 44.09375 54.296875 
Q 44.09375 59.90625 40.109375 62.90625 
Q 36.140625 65.921875 28.71875 65.921875 
Q 24.65625 65.921875 20.015625 65.03125 
Q 15.375 64.15625 9.8125 62.3125 
L 9.8125 71.09375 
Q 15.4375 72.65625 20.34375 73.4375 
Q 25.25 74.21875 29.59375 74.21875 
Q 40.828125 74.21875 47.359375 69.109375 
Q 53.90625 64.015625 53.90625 55.328125 
Q 53.90625 49.265625 50.4375 45.09375 
Q 46.96875 40.921875 40.578125 39.3125 
z
" id="DejaVuSans-51"/>
      </defs>
      <use xlink:href="#DejaVuSans-77"/>
      <use x="86.279297" xlink:href="#DejaVuSans-65"/>
      <use x="154.6875" xlink:href="#DejaVuSans-80"/>
      <use x="214.990234" xlink:href="#DejaVuSans-51"/>
      <use x="278.613281" xlink:href="#DejaVuSans-75"/>
      <use x="344.189453" xlink:href="#DejaVuSans-51"/>
     </g>
    </g>
   </g>
   <g id="text_12">
    <g clip-path="url(#p4f8647237d)">
     <!-- MAP2K3 -->
     <g transform="translate(355.755573 472.178552)scale(0.12 -0.12)">
      <use xlink:href="#DejaVuSans-77"/>
      <use x="86.279297" xlink:href="#DejaVuSans-65"/>
      <use x="154.6875" xlink:href="#DejaVuSans-80"/>
      <use x="214.990234" xlink:href="#DejaVuSans-50"/>
      <use x="278.613281" xlink:href="#DejaVuSans-75"/>
      <use x="344.189453" xlink:href="#DejaVuSans-51"/>
     </g>
    </g>
   </g>
   <g id="text_13">
    <g clip-path="url(#p4f8647237d)">
     <!-- MAP2K6 -->
     <g transform="translate(156.503548 219.483797)scale(0.12 -0.12)">
      <defs>
       <path d="M 33.015625 40.375 
Q 26.375 40.375 22.484375 35.828125 
Q 18.609375 31.296875 18.609375 23.390625 
Q 18.609375 15.53125 22.484375 10.953125 
Q 26.375 6.390625 33.015625 6.390625 
Q 39.65625 6.390625 43.53125 10.953125 
Q 47.40625 15.53125 47.40625 23.390625 
Q 47.40625 31.296875 43.53125 35.828125 
Q 39.65625 40.375 33.015625 40.375 
z
M 52.59375 71.296875 
L 52.59375 62.3125 
Q 48.875 64.0625 45.09375 64.984375 
Q 41.3125 65.921875 37.59375 65.921875 
Q 27.828125 65.921875 22.671875 59.328125 
Q 17.53125 52.734375 16.796875 39.40625 
Q 19.671875 43.65625 24.015625 45.921875 
Q 28.375 48.1875 33.59375 48.1875 
Q 44.578125 48.1875 50.953125 41.515625 
Q 57.328125 34.859375 57.328125 23.390625 
Q 57.328125 12.15625 50.6875 5.359375 
Q 44.046875 -1.421875 33.015625 -1.421875 
Q 20.359375 -1.421875 13.671875 8.265625 
Q 6.984375 17.96875 6.984375 36.375 
Q 6.984375 53.65625 15.1875 63.9375 
Q 23.390625 74.21875 37.203125 74.21875 
Q 40.921875 74.21875 44.703125 73.484375 
Q 48.484375 72.75 52.59375 71.296875 
z
" id="DejaVuSans-54"/>
      </defs>
      <use xlink:href="#DejaVuSans-77"/>
      <use x="86.279297" xlink:href="#DejaVuSans-65"/>
      <use x="154.6875" xlink:href="#DejaVuSans-80"/>
      <use x="214.990234" xlink:href="#DejaVuSans-50"/>
      <use x="278.613281" xlink:href="#DejaVuSans-75"/>
      <use x="344.189453" xlink:href="#DejaVuSans-54"/>
     </g>
    </g>
   </g>
   <g id="text_14">
    <g clip-path="url(#p4f8647237d)">
     <!-- PTEN -->
     <g transform="translate(225.135343 146.547476)scale(0.12 -0.12)">
      <defs>
       <path d="M 9.8125 72.90625 
L 55.90625 72.90625 
L 55.90625 64.59375 
L 19.671875 64.59375 
L 19.671875 43.015625 
L 54.390625 43.015625 
L 54.390625 34.71875 
L 19.671875 34.71875 
L 19.671875 8.296875 
L 56.78125 8.296875 
L 56.78125 0 
L 9.8125 0 
z
" id="DejaVuSans-69"/>
      </defs>
      <use xlink:href="#DejaVuSans-80"/>
      <use x="60.302734" xlink:href="#DejaVuSans-84"/>
      <use x="121.386719" xlink:href="#DejaVuSans-69"/>
      <use x="184.570312" xlink:href="#DejaVuSans-78"/>
     </g>
    </g>
   </g>
   <g id="text_15">
    <g clip-path="url(#p4f8647237d)">
     <!-- MYD88 -->
     <g transform="translate(417.263062 245.519654)scale(0.12 -0.12)">
      <defs>
       <path d="M -0.203125 72.90625 
L 10.40625 72.90625 
L 30.609375 42.921875 
L 50.6875 72.90625 
L 61.28125 72.90625 
L 35.5 34.71875 
L 35.5 0 
L 25.59375 0 
L 25.59375 34.71875 
z
" id="DejaVuSans-89"/>
      </defs>
      <use xlink:href="#DejaVuSans-77"/>
      <use x="86.279297" xlink:href="#DejaVuSans-89"/>
      <use x="147.363281" xlink:href="#DejaVuSans-68"/>
      <use x="224.365234" xlink:href="#DejaVuSans-56"/>
      <use x="287.988281" xlink:href="#DejaVuSans-56"/>
     </g>
    </g>
   </g>
   <g id="text_16">
    <g clip-path="url(#p4f8647237d)">
     <!-- TRAF6 -->
     <g transform="translate(278.808387 228.968027)scale(0.12 -0.12)">
      <use xlink:href="#DejaVuSans-84"/>
      <use x="61.083984" xlink:href="#DejaVuSans-82"/>
      <use x="126.566406" xlink:href="#DejaVuSans-65"/>
      <use x="194.974609" xlink:href="#DejaVuSans-70"/>
      <use x="252.494141" xlink:href="#DejaVuSans-54"/>
     </g>
    </g>
   </g>
   <g id="text_17">
    <g clip-path="url(#p4f8647237d)">
     <!-- JUN -->
     <g transform="translate(511.831267 369.562873)scale(0.12 -0.12)">
      <defs>
       <path d="M 9.8125 72.90625 
L 19.671875 72.90625 
L 19.671875 5.078125 
Q 19.671875 -8.109375 14.671875 -14.0625 
Q 9.671875 -20.015625 -1.421875 -20.015625 
L -5.171875 -20.015625 
L -5.171875 -11.71875 
L -2.09375 -11.71875 
Q 4.4375 -11.71875 7.125 -8.046875 
Q 9.8125 -4.390625 9.8125 5.078125 
z
" id="DejaVuSans-74"/>
       <path d="M 8.6875 72.90625 
L 18.609375 72.90625 
L 18.609375 28.609375 
Q 18.609375 16.890625 22.84375 11.734375 
Q 27.09375 6.59375 36.625 6.59375 
Q 46.09375 6.59375 50.34375 11.734375 
Q 54.59375 16.890625 54.59375 28.609375 
L 54.59375 72.90625 
L 64.5 72.90625 
L 64.5 27.390625 
Q 64.5 13.140625 57.4375 5.859375 
Q 50.390625 -1.421875 36.625 -1.421875 
Q 22.796875 -1.421875 15.734375 5.859375 
Q 8.6875 13.140625 8.6875 27.390625 
z
" id="DejaVuSans-85"/>
      </defs>
      <use xlink:href="#DejaVuSans-74"/>
      <use x="29.492188" xlink:href="#DejaVuSans-85"/>
      <use x="102.685547" xlink:href="#DejaVuSans-78"/>
     </g>
    </g>
   </g>
   <g id="text_18">
    <g clip-path="url(#p4f8647237d)">
     <!-- TIRAP -->
     <g transform="translate(450.949954 237.541356)scale(0.12 -0.12)">
      <use xlink:href="#DejaVuSans-84"/>
      <use x="61.083984" xlink:href="#DejaVuSans-73"/>
      <use x="90.576172" xlink:href="#DejaVuSans-82"/>
      <use x="156.058594" xlink:href="#DejaVuSans-65"/>
      <use x="224.466797" xlink:href="#DejaVuSans-80"/>
     </g>
    </g>
   </g>
   <g id="text_19">
    <g clip-path="url(#p4f8647237d)">
     <!-- CD4 -->
     <g transform="translate(496.98113 334.491112)scale(0.12 -0.12)">
      <defs>
       <path d="M 37.796875 64.3125 
L 12.890625 25.390625 
L 37.796875 25.390625 
z
M 35.203125 72.90625 
L 47.609375 72.90625 
L 47.609375 25.390625 
L 58.015625 25.390625 
L 58.015625 17.1875 
L 47.609375 17.1875 
L 47.609375 0 
L 37.796875 0 
L 37.796875 17.1875 
L 4.890625 17.1875 
L 4.890625 26.703125 
z
" id="DejaVuSans-52"/>
      </defs>
      <use xlink:href="#DejaVuSans-67"/>
      <use x="69.824219" xlink:href="#DejaVuSans-68"/>
      <use x="146.826172" xlink:href="#DejaVuSans-52"/>
     </g>
    </g>
   </g>
   <g id="text_20">
    <g clip-path="url(#p4f8647237d)">
     <!-- LAT -->
     <g transform="translate(238.988315 237.767172)scale(0.12 -0.12)">
      <use xlink:href="#DejaVuSans-76"/>
      <use x="57.962891" xlink:href="#DejaVuSans-65"/>
      <use x="118.621094" xlink:href="#DejaVuSans-84"/>
     </g>
    </g>
   </g>
   <g id="text_21">
    <g clip-path="url(#p4f8647237d)">
     <!-- NFKBIB -->
     <g transform="translate(679.089096 209.80404)scale(0.12 -0.12)">
      <use xlink:href="#DejaVuSans-78"/>
      <use x="74.804688" xlink:href="#DejaVuSans-70"/>
      <use x="132.324219" xlink:href="#DejaVuSans-75"/>
      <use x="197.900391" xlink:href="#DejaVuSans-66"/>
      <use x="266.503906" xlink:href="#DejaVuSans-73"/>
      <use x="295.996094" xlink:href="#DejaVuSans-66"/>
     </g>
    </g>
   </g>
   <g id="text_22">
    <g clip-path="url(#p4f8647237d)">
     <!-- NFKBIA -->
     <g transform="translate(647.997766 182.345557)scale(0.12 -0.12)">
      <use xlink:href="#DejaVuSans-78"/>
      <use x="74.804688" xlink:href="#DejaVuSans-70"/>
      <use x="132.324219" xlink:href="#DejaVuSans-75"/>
      <use x="197.900391" xlink:href="#DejaVuSans-66"/>
      <use x="266.503906" xlink:href="#DejaVuSans-73"/>
      <use x="295.996094" xlink:href="#DejaVuSans-65"/>
     </g>
    </g>
   </g>
   <g id="text_23">
    <g clip-path="url(#p4f8647237d)">
     <!-- NFKBIE -->
     <g transform="translate(697.942027 244.12069)scale(0.12 -0.12)">
      <use xlink:href="#DejaVuSans-78"/>
      <use x="74.804688" xlink:href="#DejaVuSans-70"/>
      <use x="132.324219" xlink:href="#DejaVuSans-75"/>
      <use x="197.900391" xlink:href="#DejaVuSans-66"/>
      <use x="266.503906" xlink:href="#DejaVuSans-73"/>
      <use x="295.996094" xlink:href="#DejaVuSans-69"/>
     </g>
    </g>
   </g>
   <g id="text_24">
    <g clip-path="url(#p4f8647237d)">
     <!-- NFKB1 -->
     <g transform="translate(608.663634 249.884753)scale(0.12 -0.12)">
      <use xlink:href="#DejaVuSans-78"/>
      <use x="74.804688" xlink:href="#DejaVuSans-70"/>
      <use x="132.324219" xlink:href="#DejaVuSans-75"/>
      <use x="197.900391" xlink:href="#DejaVuSans-66"/>
      <use x="266.503906" xlink:href="#DejaVuSans-49"/>
     </g>
    </g>
   </g>
   <g id="text_25">
    <g clip-path="url(#p4f8647237d)">
     <!-- RELA -->
     <g transform="translate(644.475916 215.53504)scale(0.12 -0.12)">
      <use xlink:href="#DejaVuSans-82"/>
      <use x="69.482422" xlink:href="#DejaVuSans-69"/>
      <use x="132.666016" xlink:href="#DejaVuSans-76"/>
      <use x="190.628906" xlink:href="#DejaVuSans-65"/>
     </g>
    </g>
   </g>
   <g id="text_26">
    <g clip-path="url(#p4f8647237d)">
     <!-- IKBKB -->
     <g transform="translate(603.469695 181.928308)scale(0.12 -0.12)">
      <use xlink:href="#DejaVuSans-73"/>
      <use x="29.492188" xlink:href="#DejaVuSans-75"/>
      <use x="95.068359" xlink:href="#DejaVuSans-66"/>
      <use x="163.671875" xlink:href="#DejaVuSans-75"/>
      <use x="229.248047" xlink:href="#DejaVuSans-66"/>
     </g>
    </g>
   </g>
   <g id="text_27">
    <g clip-path="url(#p4f8647237d)">
     <!-- IKBKG -->
     <g transform="translate(580.509431 227.911011)scale(0.12 -0.12)">
      <use xlink:href="#DejaVuSans-73"/>
      <use x="29.492188" xlink:href="#DejaVuSans-75"/>
      <use x="95.068359" xlink:href="#DejaVuSans-66"/>
      <use x="163.671875" xlink:href="#DejaVuSans-75"/>
      <use x="229.248047" xlink:href="#DejaVuSans-71"/>
     </g>
    </g>
   </g>
   <g id="text_28">
    <g clip-path="url(#p4f8647237d)">
     <!-- HRAS -->
     <g transform="translate(247.908416 228.104017)scale(0.12 -0.12)">
      <defs>
       <path d="M 9.8125 72.90625 
L 19.671875 72.90625 
L 19.671875 43.015625 
L 55.515625 43.015625 
L 55.515625 72.90625 
L 65.375 72.90625 
L 65.375 0 
L 55.515625 0 
L 55.515625 34.71875 
L 19.671875 34.71875 
L 19.671875 0 
L 9.8125 0 
z
" id="DejaVuSans-72"/>
      </defs>
      <use xlink:href="#DejaVuSans-72"/>
      <use x="75.195312" xlink:href="#DejaVuSans-82"/>
      <use x="140.677734" xlink:href="#DejaVuSans-65"/>
      <use x="209.085938" xlink:href="#DejaVuSans-83"/>
     </g>
    </g>
   </g>
   <g id="text_29">
    <g clip-path="url(#p4f8647237d)">
     <!-- KRAS -->
     <g transform="translate(507.664989 298.79351)scale(0.12 -0.12)">
      <use xlink:href="#DejaVuSans-75"/>
      <use x="65.576172" xlink:href="#DejaVuSans-82"/>
      <use x="131.058594" xlink:href="#DejaVuSans-65"/>
      <use x="199.466797" xlink:href="#DejaVuSans-83"/>
     </g>
    </g>
   </g>
   <g id="text_30">
    <g clip-path="url(#p4f8647237d)">
     <!-- NRAS -->
     <g transform="translate(368.289401 157.917609)scale(0.12 -0.12)">
      <use xlink:href="#DejaVuSans-78"/>
      <use x="74.804688" xlink:href="#DejaVuSans-82"/>
      <use x="140.287109" xlink:href="#DejaVuSans-65"/>
      <use x="208.695312" xlink:href="#DejaVuSans-83"/>
     </g>
    </g>
   </g>
   <g id="text_31">
    <g clip-path="url(#p4f8647237d)">
     <!-- FOS -->
     <g transform="translate(453.694986 477.463977)scale(0.12 -0.12)">
      <defs>
       <path d="M 39.40625 66.21875 
Q 28.65625 66.21875 22.328125 58.203125 
Q 16.015625 50.203125 16.015625 36.375 
Q 16.015625 22.609375 22.328125 14.59375 
Q 28.65625 6.59375 39.40625 6.59375 
Q 50.140625 6.59375 56.421875 14.59375 
Q 62.703125 22.609375 62.703125 36.375 
Q 62.703125 50.203125 56.421875 58.203125 
Q 50.140625 66.21875 39.40625 66.21875 
z
M 39.40625 74.21875 
Q 54.734375 74.21875 63.90625 63.9375 
Q 73.09375 53.65625 73.09375 36.375 
Q 73.09375 19.140625 63.90625 8.859375 
Q 54.734375 -1.421875 39.40625 -1.421875 
Q 24.03125 -1.421875 14.8125 8.828125 
Q 5.609375 19.09375 5.609375 36.375 
Q 5.609375 53.65625 14.8125 63.9375 
Q 24.03125 74.21875 39.40625 74.21875 
z
" id="DejaVuSans-79"/>
      </defs>
      <use xlink:href="#DejaVuSans-70"/>
      <use x="57.519531" xlink:href="#DejaVuSans-79"/>
      <use x="136.230469" xlink:href="#DejaVuSans-83"/>
     </g>
    </g>
   </g>
   <g id="text_32">
    <g clip-path="url(#p4f8647237d)">
     <!-- PTPN6 -->
     <g transform="translate(306.608704 290.373087)scale(0.12 -0.12)">
      <use xlink:href="#DejaVuSans-80"/>
      <use x="60.302734" xlink:href="#DejaVuSans-84"/>
      <use x="121.386719" xlink:href="#DejaVuSans-80"/>
      <use x="181.689453" xlink:href="#DejaVuSans-78"/>
      <use x="256.494141" xlink:href="#DejaVuSans-54"/>
     </g>
    </g>
   </g>
   <g id="text_33">
    <g clip-path="url(#p4f8647237d)">
     <!-- PTPN11 -->
     <g transform="translate(306.405616 302.139883)scale(0.12 -0.12)">
      <use xlink:href="#DejaVuSans-80"/>
      <use x="60.302734" xlink:href="#DejaVuSans-84"/>
      <use x="121.386719" xlink:href="#DejaVuSans-80"/>
      <use x="181.689453" xlink:href="#DejaVuSans-78"/>
      <use x="256.494141" xlink:href="#DejaVuSans-49"/>
      <use x="320.117188" xlink:href="#DejaVuSans-49"/>
     </g>
    </g>
   </g>
   <g id="text_34">
    <g clip-path="url(#p4f8647237d)">
     <!-- MAP2K1 -->
     <g transform="translate(191.149147 347.393227)scale(0.12 -0.12)">
      <use xlink:href="#DejaVuSans-77"/>
      <use x="86.279297" xlink:href="#DejaVuSans-65"/>
      <use x="154.6875" xlink:href="#DejaVuSans-80"/>
      <use x="214.990234" xlink:href="#DejaVuSans-50"/>
      <use x="278.613281" xlink:href="#DejaVuSans-75"/>
      <use x="344.189453" xlink:href="#DejaVuSans-49"/>
     </g>
    </g>
   </g>
   <g id="text_35">
    <g clip-path="url(#p4f8647237d)">
     <!-- MAP2K2 -->
     <g transform="translate(197.105039 191.02986)scale(0.12 -0.12)">
      <use xlink:href="#DejaVuSans-77"/>
      <use x="86.279297" xlink:href="#DejaVuSans-65"/>
      <use x="154.6875" xlink:href="#DejaVuSans-80"/>
      <use x="214.990234" xlink:href="#DejaVuSans-50"/>
      <use x="278.613281" xlink:href="#DejaVuSans-75"/>
      <use x="344.189453" xlink:href="#DejaVuSans-50"/>
     </g>
    </g>
   </g>
   <g id="text_36">
    <g clip-path="url(#p4f8647237d)">
     <!-- IFNGR1 -->
     <g transform="translate(385.800997 274.373788)scale(0.12 -0.12)">
      <use xlink:href="#DejaVuSans-73"/>
      <use x="29.492188" xlink:href="#DejaVuSans-70"/>
      <use x="87.011719" xlink:href="#DejaVuSans-78"/>
      <use x="161.816406" xlink:href="#DejaVuSans-71"/>
      <use x="239.306641" xlink:href="#DejaVuSans-82"/>
      <use x="308.789062" xlink:href="#DejaVuSans-49"/>
     </g>
    </g>
   </g>
   <g id="text_37">
    <g clip-path="url(#p4f8647237d)">
     <!-- IFNGR2 -->
     <g transform="translate(371.257894 281.056389)scale(0.12 -0.12)">
      <use xlink:href="#DejaVuSans-73"/>
      <use x="29.492188" xlink:href="#DejaVuSans-70"/>
      <use x="87.011719" xlink:href="#DejaVuSans-78"/>
      <use x="161.816406" xlink:href="#DejaVuSans-71"/>
      <use x="239.306641" xlink:href="#DejaVuSans-82"/>
      <use x="308.789062" xlink:href="#DejaVuSans-50"/>
     </g>
    </g>
   </g>
   <g id="text_38">
    <g clip-path="url(#p4f8647237d)">
     <!-- JAK1 -->
     <g transform="translate(396.84163 372.733067)scale(0.12 -0.12)">
      <use xlink:href="#DejaVuSans-74"/>
      <use x="27.742188" xlink:href="#DejaVuSans-65"/>
      <use x="96.150391" xlink:href="#DejaVuSans-75"/>
      <use x="161.726562" xlink:href="#DejaVuSans-49"/>
     </g>
    </g>
   </g>
   <g id="text_39">
    <g clip-path="url(#p4f8647237d)">
     <!-- JAK2 -->
     <g transform="translate(402.059522 357.918705)scale(0.12 -0.12)">
      <use xlink:href="#DejaVuSans-74"/>
      <use x="27.742188" xlink:href="#DejaVuSans-65"/>
      <use x="96.150391" xlink:href="#DejaVuSans-75"/>
      <use x="161.726562" xlink:href="#DejaVuSans-50"/>
     </g>
    </g>
   </g>
   <g id="text_40">
    <g clip-path="url(#p4f8647237d)">
     <!-- STAT1 -->
     <g transform="translate(653.289794 401.909508)scale(0.12 -0.12)">
      <use xlink:href="#DejaVuSans-83"/>
      <use x="63.476562" xlink:href="#DejaVuSans-84"/>
      <use x="116.810547" xlink:href="#DejaVuSans-65"/>
      <use x="177.46875" xlink:href="#DejaVuSans-84"/>
      <use x="238.552734" xlink:href="#DejaVuSans-49"/>
     </g>
    </g>
   </g>
   <g id="text_41">
    <g clip-path="url(#p4f8647237d)">
     <!-- STAT3 -->
     <g transform="translate(147.975473 285.064466)scale(0.12 -0.12)">
      <use xlink:href="#DejaVuSans-83"/>
      <use x="63.476562" xlink:href="#DejaVuSans-84"/>
      <use x="116.810547" xlink:href="#DejaVuSans-65"/>
      <use x="177.46875" xlink:href="#DejaVuSans-84"/>
      <use x="238.552734" xlink:href="#DejaVuSans-51"/>
     </g>
    </g>
   </g>
   <g id="text_42">
    <g clip-path="url(#p4f8647237d)">
     <!-- CSNK2B -->
     <g transform="translate(330.167832 254.396863)scale(0.12 -0.12)">
      <use xlink:href="#DejaVuSans-67"/>
      <use x="69.824219" xlink:href="#DejaVuSans-83"/>
      <use x="133.300781" xlink:href="#DejaVuSans-78"/>
      <use x="208.105469" xlink:href="#DejaVuSans-75"/>
      <use x="273.681641" xlink:href="#DejaVuSans-50"/>
      <use x="337.304688" xlink:href="#DejaVuSans-66"/>
     </g>
    </g>
   </g>
   <g id="text_43">
    <g clip-path="url(#p4f8647237d)">
     <!-- EML4 -->
     <g transform="translate(390.521263 222.646248)scale(0.12 -0.12)">
      <use xlink:href="#DejaVuSans-69"/>
      <use x="63.183594" xlink:href="#DejaVuSans-77"/>
      <use x="149.462891" xlink:href="#DejaVuSans-76"/>
      <use x="205.175781" xlink:href="#DejaVuSans-52"/>
     </g>
    </g>
   </g>
   <g id="text_44">
    <!-- Frame: 11 -->
    <g transform="translate(121.392 91.296)scale(0.1 -0.1)">
     <defs>
      <path d="M 41.109375 46.296875 
Q 39.59375 47.171875 37.8125 47.578125 
Q 36.03125 48 33.890625 48 
Q 26.265625 48 22.1875 43.046875 
Q 18.109375 38.09375 18.109375 28.8125 
L 18.109375 0 
L 9.078125 0 
L 9.078125 54.6875 
L 18.109375 54.6875 
L 18.109375 46.1875 
Q 20.953125 51.171875 25.484375 53.578125 
Q 30.03125 56 36.53125 56 
Q 37.453125 56 38.578125 55.875 
Q 39.703125 55.765625 41.0625 55.515625 
z
" id="DejaVuSans-114"/>
      <path d="M 34.28125 27.484375 
Q 23.390625 27.484375 19.1875 25 
Q 14.984375 22.515625 14.984375 16.5 
Q 14.984375 11.71875 18.140625 8.90625 
Q 21.296875 6.109375 26.703125 6.109375 
Q 34.1875 6.109375 38.703125 11.40625 
Q 43.21875 16.703125 43.21875 25.484375 
L 43.21875 27.484375 
z
M 52.203125 31.203125 
L 52.203125 0 
L 43.21875 0 
L 43.21875 8.296875 
Q 40.140625 3.328125 35.546875 0.953125 
Q 30.953125 -1.421875 24.3125 -1.421875 
Q 15.921875 -1.421875 10.953125 3.296875 
Q 6 8.015625 6 15.921875 
Q 6 25.140625 12.171875 29.828125 
Q 18.359375 34.515625 30.609375 34.515625 
L 43.21875 34.515625 
L 43.21875 35.40625 
Q 43.21875 41.609375 39.140625 45 
Q 35.0625 48.390625 27.6875 48.390625 
Q 23 48.390625 18.546875 47.265625 
Q 14.109375 46.140625 10.015625 43.890625 
L 10.015625 52.203125 
Q 14.9375 54.109375 19.578125 55.046875 
Q 24.21875 56 28.609375 56 
Q 40.484375 56 46.34375 49.84375 
Q 52.203125 43.703125 52.203125 31.203125 
z
" id="DejaVuSans-97"/>
      <path d="M 52 44.1875 
Q 55.375 50.25 60.0625 53.125 
Q 64.75 56 71.09375 56 
Q 79.640625 56 84.28125 50.015625 
Q 88.921875 44.046875 88.921875 33.015625 
L 88.921875 0 
L 79.890625 0 
L 79.890625 32.71875 
Q 79.890625 40.578125 77.09375 44.375 
Q 74.3125 48.1875 68.609375 48.1875 
Q 61.625 48.1875 57.5625 43.546875 
Q 53.515625 38.921875 53.515625 30.90625 
L 53.515625 0 
L 44.484375 0 
L 44.484375 32.71875 
Q 44.484375 40.625 41.703125 44.40625 
Q 38.921875 48.1875 33.109375 48.1875 
Q 26.21875 48.1875 22.15625 43.53125 
Q 18.109375 38.875 18.109375 30.90625 
L 18.109375 0 
L 9.078125 0 
L 9.078125 54.6875 
L 18.109375 54.6875 
L 18.109375 46.1875 
Q 21.1875 51.21875 25.484375 53.609375 
Q 29.78125 56 35.6875 56 
Q 41.65625 56 45.828125 52.96875 
Q 50 49.953125 52 44.1875 
z
" id="DejaVuSans-109"/>
      <path d="M 56.203125 29.59375 
L 56.203125 25.203125 
L 14.890625 25.203125 
Q 15.484375 15.921875 20.484375 11.0625 
Q 25.484375 6.203125 34.421875 6.203125 
Q 39.59375 6.203125 44.453125 7.46875 
Q 49.3125 8.734375 54.109375 11.28125 
L 54.109375 2.78125 
Q 49.265625 0.734375 44.1875 -0.34375 
Q 39.109375 -1.421875 33.890625 -1.421875 
Q 20.796875 -1.421875 13.15625 6.1875 
Q 5.515625 13.8125 5.515625 26.8125 
Q 5.515625 40.234375 12.765625 48.109375 
Q 20.015625 56 32.328125 56 
Q 43.359375 56 49.78125 48.890625 
Q 56.203125 41.796875 56.203125 29.59375 
z
M 47.21875 32.234375 
Q 47.125 39.59375 43.09375 43.984375 
Q 39.0625 48.390625 32.421875 48.390625 
Q 24.90625 48.390625 20.390625 44.140625 
Q 15.875 39.890625 15.1875 32.171875 
z
" id="DejaVuSans-101"/>
      <path d="M 11.71875 12.40625 
L 22.015625 12.40625 
L 22.015625 0 
L 11.71875 0 
z
M 11.71875 51.703125 
L 22.015625 51.703125 
L 22.015625 39.3125 
L 11.71875 39.3125 
z
" id="DejaVuSans-58"/>
      <path id="DejaVuSans-32"/>
     </defs>
     <use xlink:href="#DejaVuSans-70"/>
     <use x="50.269531" xlink:href="#DejaVuSans-114"/>
     <use x="91.382812" xlink:href="#DejaVuSans-97"/>
     <use x="152.662109" xlink:href="#DejaVuSans-109"/>
     <use x="250.074219" xlink:href="#DejaVuSans-101"/>
     <use x="311.597656" xlink:href="#DejaVuSans-58"/>
     <use x="345.289062" xlink:href="#DejaVuSans-32"/>
     <use x="377.076172" xlink:href="#DejaVuSans-49"/>
     <use x="440.699219" xlink:href="#DejaVuSans-49"/>
    </g>
   </g>
   <g id="text_45">
    <!-- Network: hsa05235 -->
    <g transform="translate(384.1275 63.12)scale(0.12 -0.12)">
     <defs>
      <path d="M 18.3125 70.21875 
L 18.3125 54.6875 
L 36.8125 54.6875 
L 36.8125 47.703125 
L 18.3125 47.703125 
L 18.3125 18.015625 
Q 18.3125 11.328125 20.140625 9.421875 
Q 21.96875 7.515625 27.59375 7.515625 
L 36.8125 7.515625 
L 36.8125 0 
L 27.59375 0 
Q 17.1875 0 13.234375 3.875 
Q 9.28125 7.765625 9.28125 18.015625 
L 9.28125 47.703125 
L 2.6875 47.703125 
L 2.6875 54.6875 
L 9.28125 54.6875 
L 9.28125 70.21875 
z
" id="DejaVuSans-116"/>
      <path d="M 4.203125 54.6875 
L 13.1875 54.6875 
L 24.421875 12.015625 
L 35.59375 54.6875 
L 46.1875 54.6875 
L 57.421875 12.015625 
L 68.609375 54.6875 
L 77.59375 54.6875 
L 63.28125 0 
L 52.6875 0 
L 40.921875 44.828125 
L 29.109375 0 
L 18.5 0 
z
" id="DejaVuSans-119"/>
      <path d="M 30.609375 48.390625 
Q 23.390625 48.390625 19.1875 42.75 
Q 14.984375 37.109375 14.984375 27.296875 
Q 14.984375 17.484375 19.15625 11.84375 
Q 23.34375 6.203125 30.609375 6.203125 
Q 37.796875 6.203125 41.984375 11.859375 
Q 46.1875 17.53125 46.1875 27.296875 
Q 46.1875 37.015625 41.984375 42.703125 
Q 37.796875 48.390625 30.609375 48.390625 
z
M 30.609375 56 
Q 42.328125 56 49.015625 48.375 
Q 55.71875 40.765625 55.71875 27.296875 
Q 55.71875 13.875 49.015625 6.21875 
Q 42.328125 -1.421875 30.609375 -1.421875 
Q 18.84375 -1.421875 12.171875 6.21875 
Q 5.515625 13.875 5.515625 27.296875 
Q 5.515625 40.765625 12.171875 48.375 
Q 18.84375 56 30.609375 56 
z
" id="DejaVuSans-111"/>
      <path d="M 9.078125 75.984375 
L 18.109375 75.984375 
L 18.109375 31.109375 
L 44.921875 54.6875 
L 56.390625 54.6875 
L 27.390625 29.109375 
L 57.625 0 
L 45.90625 0 
L 18.109375 26.703125 
L 18.109375 0 
L 9.078125 0 
z
" id="DejaVuSans-107"/>
      <path d="M 54.890625 33.015625 
L 54.890625 0 
L 45.90625 0 
L 45.90625 32.71875 
Q 45.90625 40.484375 42.875 44.328125 
Q 39.84375 48.1875 33.796875 48.1875 
Q 26.515625 48.1875 22.3125 43.546875 
Q 18.109375 38.921875 18.109375 30.90625 
L 18.109375 0 
L 9.078125 0 
L 9.078125 75.984375 
L 18.109375 75.984375 
L 18.109375 46.1875 
Q 21.34375 51.125 25.703125 53.5625 
Q 30.078125 56 35.796875 56 
Q 45.21875 56 50.046875 50.171875 
Q 54.890625 44.34375 54.890625 33.015625 
z
" id="DejaVuSans-104"/>
      <path d="M 44.28125 53.078125 
L 44.28125 44.578125 
Q 40.484375 46.53125 36.375 47.5 
Q 32.28125 48.484375 27.875 48.484375 
Q 21.1875 48.484375 17.84375 46.4375 
Q 14.5 44.390625 14.5 40.28125 
Q 14.5 37.15625 16.890625 35.375 
Q 19.28125 33.59375 26.515625 31.984375 
L 29.59375 31.296875 
Q 39.15625 29.25 43.1875 25.515625 
Q 47.21875 21.78125 47.21875 15.09375 
Q 47.21875 7.46875 41.1875 3.015625 
Q 35.15625 -1.421875 24.609375 -1.421875 
Q 20.21875 -1.421875 15.453125 -0.5625 
Q 10.6875 0.296875 5.421875 2 
L 5.421875 11.28125 
Q 10.40625 8.6875 15.234375 7.390625 
Q 20.0625 6.109375 24.8125 6.109375 
Q 31.15625 6.109375 34.5625 8.28125 
Q 37.984375 10.453125 37.984375 14.40625 
Q 37.984375 18.0625 35.515625 20.015625 
Q 33.0625 21.96875 24.703125 23.78125 
L 21.578125 24.515625 
Q 13.234375 26.265625 9.515625 29.90625 
Q 5.8125 33.546875 5.8125 39.890625 
Q 5.8125 47.609375 11.28125 51.796875 
Q 16.75 56 26.8125 56 
Q 31.78125 56 36.171875 55.265625 
Q 40.578125 54.546875 44.28125 53.078125 
z
" id="DejaVuSans-115"/>
      <path d="M 10.796875 72.90625 
L 49.515625 72.90625 
L 49.515625 64.59375 
L 19.828125 64.59375 
L 19.828125 46.734375 
Q 21.96875 47.46875 24.109375 47.828125 
Q 26.265625 48.1875 28.421875 48.1875 
Q 40.625 48.1875 47.75 41.5 
Q 54.890625 34.8125 54.890625 23.390625 
Q 54.890625 11.625 47.5625 5.09375 
Q 40.234375 -1.421875 26.90625 -1.421875 
Q 22.3125 -1.421875 17.546875 -0.640625 
Q 12.796875 0.140625 7.71875 1.703125 
L 7.71875 11.625 
Q 12.109375 9.234375 16.796875 8.0625 
Q 21.484375 6.890625 26.703125 6.890625 
Q 35.15625 6.890625 40.078125 11.328125 
Q 45.015625 15.765625 45.015625 23.390625 
Q 45.015625 31 40.078125 35.4375 
Q 35.15625 39.890625 26.703125 39.890625 
Q 22.75 39.890625 18.8125 39.015625 
Q 14.890625 38.140625 10.796875 36.28125 
z
" id="DejaVuSans-53"/>
     </defs>
     <use xlink:href="#DejaVuSans-78"/>
     <use x="74.804688" xlink:href="#DejaVuSans-101"/>
     <use x="136.328125" xlink:href="#DejaVuSans-116"/>
     <use x="175.537109" xlink:href="#DejaVuSans-119"/>
     <use x="257.324219" xlink:href="#DejaVuSans-111"/>
     <use x="318.505859" xlink:href="#DejaVuSans-114"/>
     <use x="359.619141" xlink:href="#DejaVuSans-107"/>
     <use x="417.529297" xlink:href="#DejaVuSans-58"/>
     <use x="451.220703" xlink:href="#DejaVuSans-32"/>
     <use x="483.007812" xlink:href="#DejaVuSans-104"/>
     <use x="546.386719" xlink:href="#DejaVuSans-115"/>
     <use x="598.486328" xlink:href="#DejaVuSans-97"/>
     <use x="659.765625" xlink:href="#DejaVuSans-48"/>
     <use x="723.388672" xlink:href="#DejaVuSans-53"/>
     <use x="787.011719" xlink:href="#DejaVuSans-50"/>
     <use x="850.634766" xlink:href="#DejaVuSans-51"/>
     <use x="914.257812" xlink:href="#DejaVuSans-53"/>
    </g>
   </g>
  </g>
 </g>
 <defs>
  <clipPath id="p4f8647237d">
   <rect height="443.52" width="669.6" x="108" y="69.12"/>
  </clipPath>
 </defs>
</svg>
