<?xml version="1.0" encoding="utf-8" standalone="no"?>
<!DOCTYPE svg PUBLIC "-//W3C//DTD SVG 1.1//EN"
  "http://www.w3.org/Graphics/SVG/1.1/DTD/svg11.dtd">
<!-- Created with matplotlib (https://matplotlib.org/) -->
<svg height="576pt" version="1.1" viewBox="0 0 864 576" width="864pt" xmlns="http://www.w3.org/2000/svg" xmlns:xlink="http://www.w3.org/1999/xlink">
 <metadata>
  <rdf:RDF xmlns:cc="http://creativecommons.org/ns#" xmlns:dc="http://purl.org/dc/elements/1.1/" xmlns:rdf="http://www.w3.org/1999/02/22-rdf-syntax-ns#">
   <cc:Work>
    <dc:type rdf:resource="http://purl.org/dc/dcmitype/StillImage"/>
    <dc:date>2024-04-26T13:38:14.308027</dc:date>
    <dc:format>image/svg+xml</dc:format>
    <dc:creator>
     <cc:Agent>
      <dc:title>Matplotlib v3.3.1, https://matplotlib.org/</dc:title>
     </cc:Agent>
    </dc:creator>
   </cc:Work>
  </rdf:RDF>
 </metadata>
 <defs>
  <style type="text/css">*{stroke-linecap:butt;stroke-linejoin:round;}</style>
 </defs>
 <g id="figure_1">
  <g id="patch_1">
   <path d="M 0 576 
L 864 576 
L 864 0 
L 0 0 
z
" style="fill:#ffffff;"/>
  </g>
  <g id="axes_1">
   <g id="patch_2">
    <path clip-path="url(#pd7629ff554)" d="M 474.499763 229.167747 
Q 588.799028 246.97095 701.993579 264.602084 
" style="fill:none;stroke:#000000;stroke-linecap:round;"/>
    <path clip-path="url(#pd7629ff554)" d="M 698.349043 262.010297 
L 701.993579 264.602084 
L 697.733428 265.96264 
L 698.349043 262.010297 
z
" style="stroke:#000000;stroke-linecap:round;"/>
   </g>
   <g id="patch_3">
    <path clip-path="url(#pd7629ff554)" d="M 457.380055 226.518005 
Q 341.662137 208.721166 227.049261 191.094276 
" style="fill:none;stroke:#000000;stroke-linecap:round;"/>
    <path clip-path="url(#pd7629ff554)" d="M 230.698763 193.679066 
L 227.049261 191.094276 
L 231.306794 189.725549 
L 230.698763 193.679066 
z
" style="stroke:#000000;stroke-linecap:round;"/>
   </g>
   <g id="patch_4">
    <path clip-path="url(#pd7629ff554)" d="M 281.968078 226.341553 
Q 227.291189 278.877494 173.420494 330.638807 
" style="fill:none;stroke:#000000;stroke-linecap:round;"/>
    <path clip-path="url(#pd7629ff554)" d="M 177.690524 329.309581 
L 173.420494 330.638807 
L 174.919131 326.425247 
L 177.690524 329.309581 
z
" style="stroke:#000000;stroke-linecap:round;"/>
   </g>
   <g id="patch_5">
    <path clip-path="url(#pd7629ff554)" d="M 295.194527 215.219948 
Q 365.056181 163.97437 434.016332 113.390072 
" style="fill:none;stroke:#000000;stroke-linecap:round;"/>
    <path clip-path="url(#pd7629ff554)" d="M 429.60808 114.143279 
L 434.016332 113.390072 
L 431.973946 117.368597 
L 429.60808 114.143279 
z
" style="stroke:#000000;stroke-linecap:round;"/>
   </g>
   <g id="patch_6">
    <path clip-path="url(#pd7629ff554)" d="M 279.921956 222.841834 
Q 227.159366 238.75668 175.467177 254.348659 
" style="fill:none;stroke:#000000;stroke-linecap:round;"/>
    <path clip-path="url(#pd7629ff554)" d="M 179.874319 255.108328 
L 175.467177 254.348659 
L 178.719198 251.278747 
L 179.874319 255.108328 
z
" style="stroke:#000000;stroke-linecap:round;"/>
   </g>
   <g id="patch_7">
    <path clip-path="url(#pd7629ff554)" d="M 289.52427 211.781265 
Q 295.5569 172.394228 301.420263 134.112336 
" style="fill:none;stroke:#000000;stroke-linecap:round;"/>
    <path clip-path="url(#pd7629ff554)" d="M 298.837727 137.763433 
L 301.420263 134.112336 
L 302.791619 138.369023 
L 298.837727 137.763433 
z
" style="stroke:#000000;stroke-linecap:round;"/>
   </g>
   <g id="patch_8">
    <path clip-path="url(#pd7629ff554)" d="M 297.108906 226.371453 
Q 235.038343 279.090651 173.819931 331.086082 
" style="fill:none;stroke:#000000;stroke-linecap:round;"/>
    <path clip-path="url(#pd7629ff554)" d="M 178.163392 330.021024 
L 173.819931 331.086082 
L 175.573961 326.972279 
L 178.163392 330.021024 
z
" style="stroke:#000000;stroke-linecap:round;"/>
   </g>
   <g id="patch_9">
    <path clip-path="url(#pd7629ff554)" d="M 310.40731 215.280781 
Q 372.803871 164.186961 434.335408 113.801472 
" style="fill:none;stroke:#000000;stroke-linecap:round;"/>
    <path clip-path="url(#pd7629ff554)" d="M 429.973502 114.78827 
L 434.335408 113.801472 
L 432.507703 117.883076 
L 429.973502 114.78827 
z
" style="stroke:#000000;stroke-linecap:round;"/>
   </g>
   <g id="patch_10">
    <path clip-path="url(#pd7629ff554)" d="M 295.338979 222.980681 
Q 234.908815 238.968895 175.559496 254.671147 
" style="fill:none;stroke:#000000;stroke-linecap:round;"/>
    <path clip-path="url(#pd7629ff554)" d="M 179.937989 255.581529 
L 175.559496 254.671147 
L 178.914898 251.714582 
L 179.937989 255.581529 
z
" style="stroke:#000000;stroke-linecap:round;"/>
   </g>
   <g id="patch_11">
    <path clip-path="url(#pd7629ff554)" d="M 303.635508 212.104113 
Q 303.304205 172.606245 302.982279 134.226371 
" style="fill:none;stroke:#000000;stroke-linecap:round;"/>
    <path clip-path="url(#pd7629ff554)" d="M 301.015899 138.243006 
L 302.982279 134.226371 
L 305.015759 138.209455 
L 301.015899 138.243006 
z
" style="stroke:#000000;stroke-linecap:round;"/>
   </g>
   <g id="patch_12">
    <path clip-path="url(#pd7629ff554)" d="M 477.552392 339.736852 
Q 535.030571 390.569829 591.671251 440.662134 
" style="fill:none;stroke:#000000;stroke-linecap:round;"/>
    <path clip-path="url(#pd7629ff554)" d="M 589.999882 436.514059 
L 591.671251 440.662134 
L 587.34997 439.510385 
L 589.999882 436.514059 
z
" style="stroke:#000000;stroke-linecap:round;"/>
   </g>
   <g id="patch_13">
    <path clip-path="url(#pd7629ff554)" d="M 463.133632 337.476063 
Q 361.071894 382.20346 260.034173 426.482094 
" style="fill:none;stroke:#000000;stroke-linecap:round;"/>
    <path clip-path="url(#pd7629ff554)" d="M 264.500581 426.708365 
L 260.034173 426.482094 
L 262.895034 423.04473 
L 264.500581 426.708365 
z
" style="stroke:#000000;stroke-linecap:round;"/>
   </g>
   <g id="patch_14">
    <path clip-path="url(#pd7629ff554)" d="M 464.659086 339.825132 
Q 398.901654 399.615667 333.971431 458.654055 
" style="fill:none;stroke:#000000;stroke-linecap:round;"/>
    <path clip-path="url(#pd7629ff554)" d="M 338.276426 457.442848 
L 333.971431 458.654055 
L 335.585462 454.483335 
L 338.276426 457.442848 
z
" style="stroke:#000000;stroke-linecap:round;"/>
   </g>
   <g id="patch_15">
    <path clip-path="url(#pd7629ff554)" d="M 479.727361 333.916013 
Q 595.280892 332.795804 709.716441 331.686432 
" style="fill:none;stroke:#000000;stroke-linecap:round;"/>
    <path clip-path="url(#pd7629ff554)" d="M 705.697241 329.725301 
L 709.716441 331.686432 
L 705.736017 333.725113 
L 705.697241 329.725301 
z
" style="stroke:#000000;stroke-linecap:round;"/>
   </g>
   <g id="patch_16">
    <path clip-path="url(#pd7629ff554)" d="M 477.198154 327.88796 
Q 554.552074 250.793457 631.114097 174.488195 
" style="fill:none;stroke:#000000;stroke-linecap:round;"/>
    <path clip-path="url(#pd7629ff554)" d="M 626.869087 175.89528 
L 631.114097 174.488195 
L 629.692759 178.728454 
L 626.869087 175.89528 
z
" style="stroke:#000000;stroke-linecap:round;"/>
   </g>
   <g id="patch_17">
    <path clip-path="url(#pd7629ff554)" d="M 475.14422 326.360694 
Q 527.625078 228.064453 579.579365 130.754478 
" style="fill:none;stroke:#000000;stroke-linecap:round;"/>
    <path clip-path="url(#pd7629ff554)" d="M 575.931154 133.34109 
L 579.579365 130.754478 
L 579.459728 135.225013 
L 575.931154 133.34109 
z
" style="stroke:#000000;stroke-linecap:round;"/>
   </g>
   <g id="patch_18">
    <path clip-path="url(#pd7629ff554)" d="M 462.559874 335.621928 
Q 342.566032 358.503483 223.670436 381.175614 
" style="fill:none;stroke:#000000;stroke-linecap:round;"/>
    <path clip-path="url(#pd7629ff554)" d="M 227.974264 382.390957 
L 223.670436 381.175614 
L 227.225008 378.461757 
L 227.974264 382.390957 
z
" style="stroke:#000000;stroke-linecap:round;"/>
   </g>
   <g id="patch_19">
    <path clip-path="url(#pd7629ff554)" d="M 468.50046 342.276215 
Q 449.345458 404.079244 430.521442 464.814356 
" style="fill:none;stroke:#000000;stroke-linecap:round;"/>
    <path clip-path="url(#pd7629ff554)" d="M 433.615965 461.585744 
L 430.521442 464.814356 
L 429.795266 460.401571 
L 433.615965 461.585744 
z
" style="stroke:#000000;stroke-linecap:round;"/>
   </g>
   <g id="patch_20">
    <path clip-path="url(#pd7629ff554)" d="M 525.175531 199.181343 
Q 499.457039 211.621781 474.745018 223.575373 
" style="fill:none;stroke:#000000;stroke-linecap:round;"/>
    <path clip-path="url(#pd7629ff554)" d="M 479.21677 223.634011 
L 474.745018 223.575373 
L 477.474979 220.033154 
L 479.21677 223.634011 
z
" style="stroke:#000000;stroke-linecap:round;"/>
   </g>
   <g id="patch_21">
    <path clip-path="url(#pd7629ff554)" d="M 452.536097 178.779216 
Q 458.096388 199.12859 463.361988 218.399466 
" style="fill:none;stroke:#000000;stroke-linecap:round;"/>
    <path clip-path="url(#pd7629ff554)" d="M 464.236948 214.013757 
L 463.361988 218.399466 
L 460.378397 215.068073 
L 464.236948 214.013757 
z
" style="stroke:#000000;stroke-linecap:round;"/>
   </g>
   <g id="patch_22">
    <path clip-path="url(#pd7629ff554)" d="M 423.424655 201.047569 
Q 441.019594 212.133305 457.668596 222.62305 
" style="fill:none;stroke:#000000;stroke-linecap:round;"/>
    <path clip-path="url(#pd7629ff554)" d="M 455.350449 218.798629 
L 457.668596 222.62305 
L 453.218171 222.182915 
L 455.350449 218.798629 
z
" style="stroke:#000000;stroke-linecap:round;"/>
   </g>
   <g id="patch_23">
    <path clip-path="url(#pd7629ff554)" d="M 588.988655 321.279676 
Q 632.833082 355.482788 675.79598 388.998218 
" style="fill:none;stroke:#000000;stroke-linecap:round;"/>
    <path clip-path="url(#pd7629ff554)" d="M 673.87229 384.960965 
L 675.79598 388.998218 
L 671.411964 388.114818 
L 673.87229 384.960965 
z
" style="stroke:#000000;stroke-linecap:round;"/>
   </g>
   <g id="patch_24">
    <path clip-path="url(#pd7629ff554)" d="M 499.475252 362.677561 
Q 545.936889 402.109232 591.546102 440.817457 
" style="fill:none;stroke:#000000;stroke-linecap:round;"/>
    <path clip-path="url(#pd7629ff554)" d="M 589.790518 436.704317 
L 591.546102 440.817457 
L 587.202239 439.75404 
L 589.790518 436.704317 
z
" style="stroke:#000000;stroke-linecap:round;"/>
   </g>
   <g id="patch_25">
    <path clip-path="url(#pd7629ff554)" d="M 484.581268 359.587322 
Q 371.975872 393.73956 260.440384 427.567305 
" style="fill:none;stroke:#000000;stroke-linecap:round;"/>
    <path clip-path="url(#pd7629ff554)" d="M 264.848676 428.320271 
L 260.440384 427.567305 
L 263.687732 424.49245 
L 264.848676 428.320271 
z
" style="stroke:#000000;stroke-linecap:round;"/>
   </g>
   <g id="patch_26">
    <path clip-path="url(#pd7629ff554)" d="M 485.613685 361.798047 
Q 409.802729 411.153624 334.928739 459.899204 
" style="fill:none;stroke:#000000;stroke-linecap:round;"/>
    <path clip-path="url(#pd7629ff554)" d="M 339.372123 459.392907 
L 334.928739 459.899204 
L 337.189731 456.040718 
L 339.372123 459.392907 
z
" style="stroke:#000000;stroke-linecap:round;"/>
   </g>
   <g id="patch_27">
    <path clip-path="url(#pd7629ff554)" d="M 501.478403 356.105217 
Q 606.183278 344.332261 709.77712 332.684228 
" style="fill:none;stroke:#000000;stroke-linecap:round;"/>
    <path clip-path="url(#pd7629ff554)" d="M 705.578697 331.143693 
L 709.77712 332.684228 
L 706.025638 335.118645 
L 705.578697 331.143693 
z
" style="stroke:#000000;stroke-linecap:round;"/>
   </g>
   <g id="patch_28">
    <path clip-path="url(#pd7629ff554)" d="M 498.136721 350.20027 
Q 565.454725 262.330432 632.092792 175.348111 
" style="fill:none;stroke:#000000;stroke-linecap:round;"/>
    <path clip-path="url(#pd7629ff554)" d="M 628.072539 177.307082 
L 632.092792 175.348111 
L 631.247817 179.739696 
L 628.072539 177.307082 
z
" style="stroke:#000000;stroke-linecap:round;"/>
   </g>
   <g id="patch_29">
    <path clip-path="url(#pd7629ff554)" d="M 514.178397 367.85784 
Q 553.423942 404.542075 591.852715 440.462843 
" style="fill:none;stroke:#000000;stroke-linecap:round;"/>
    <path clip-path="url(#pd7629ff554)" d="M 590.296271 436.270292 
L 591.852715 440.462843 
L 587.564808 439.192467 
L 590.296271 436.270292 
z
" style="stroke:#000000;stroke-linecap:round;"/>
   </g>
   <g id="patch_30">
    <path clip-path="url(#pd7629ff554)" d="M 499.485257 364.173031 
Q 379.465043 396.174466 260.525122 427.887859 
" style="fill:none;stroke:#000000;stroke-linecap:round;"/>
    <path clip-path="url(#pd7629ff554)" d="M 264.90536 428.789813 
L 260.525122 427.887859 
L 263.874828 424.924842 
L 264.90536 428.789813 
z
" style="stroke:#000000;stroke-linecap:round;"/>
   </g>
   <g id="patch_31">
    <path clip-path="url(#pd7629ff554)" d="M 500.324967 366.234335 
Q 417.292993 413.587875 335.232215 460.387538 
" style="fill:none;stroke:#000000;stroke-linecap:round;"/>
    <path clip-path="url(#pd7629ff554)" d="M 339.697674 460.143253 
L 335.232215 460.387538 
L 337.716062 456.6686 
L 339.697674 460.143253 
z
" style="stroke:#000000;stroke-linecap:round;"/>
   </g>
   <g id="patch_32">
    <path clip-path="url(#pd7629ff554)" d="M 516.424349 360.71307 
Q 613.672368 346.767126 709.813676 332.97989 
" style="fill:none;stroke:#000000;stroke-linecap:round;"/>
    <path clip-path="url(#pd7629ff554)" d="M 705.570275 331.567958 
L 709.813676 332.97989 
L 706.13809 335.527452 
L 705.570275 331.567958 
z
" style="stroke:#000000;stroke-linecap:round;"/>
   </g>
   <g id="patch_33">
    <path clip-path="url(#pd7629ff554)" d="M 512.671506 354.745041 
Q 572.94595 264.762609 632.598176 175.709072 
" style="fill:none;stroke:#000000;stroke-linecap:round;"/>
    <path clip-path="url(#pd7629ff554)" d="M 628.710407 177.919331 
L 632.598176 175.709072 
L 632.033722 180.145443 
L 628.710407 177.919331 
z
" style="stroke:#000000;stroke-linecap:round;"/>
   </g>
   <g id="patch_34">
    <path clip-path="url(#pd7629ff554)" d="M 509.578476 357.24536 
Q 551.233444 399.122481 592.099947 440.206933 
" style="fill:none;stroke:#000000;stroke-linecap:round;"/>
    <path clip-path="url(#pd7629ff554)" d="M 590.697022 435.960546 
L 592.099947 440.206933 
L 587.861083 438.781441 
L 590.697022 435.960546 
z
" style="stroke:#000000;stroke-linecap:round;"/>
   </g>
   <g id="patch_35">
    <path clip-path="url(#pd7629ff554)" d="M 495.210197 353.700842 
Q 377.274155 390.756188 260.404738 427.476402 
" style="fill:none;stroke:#000000;stroke-linecap:round;"/>
    <path clip-path="url(#pd7629ff554)" d="M 264.82031 428.185433 
L 260.404738 427.476402 
L 263.621306 424.369363 
L 264.82031 428.185433 
z
" style="stroke:#000000;stroke-linecap:round;"/>
   </g>
   <g id="patch_36">
    <path clip-path="url(#pd7629ff554)" d="M 496.197826 355.802003 
Q 415.103766 408.168964 334.948931 459.929415 
" style="fill:none;stroke:#000000;stroke-linecap:round;"/>
    <path clip-path="url(#pd7629ff554)" d="M 339.394166 459.439635 
L 334.948931 459.929415 
L 337.224248 456.079359 
L 339.394166 459.439635 
z
" style="stroke:#000000;stroke-linecap:round;"/>
   </g>
   <g id="patch_37">
    <path clip-path="url(#pd7629ff554)" d="M 512.097291 350.326085 
Q 611.48395 341.348355 709.757109 332.471209 
" style="fill:none;stroke:#000000;stroke-linecap:round;"/>
    <path clip-path="url(#pd7629ff554)" d="M 705.593399 330.839179 
L 709.757109 332.471209 
L 705.953259 334.822959 
L 705.593399 330.839179 
z
" style="stroke:#000000;stroke-linecap:round;"/>
   </g>
   <g id="patch_38">
    <path clip-path="url(#pd7629ff554)" d="M 508.594098 344.11862 
Q 570.755803 259.344841 632.256383 175.472679 
" style="fill:none;stroke:#000000;stroke-linecap:round;"/>
    <path clip-path="url(#pd7629ff554)" d="M 628.278208 177.515747 
L 632.256383 175.472679 
L 631.503932 179.881059 
L 628.278208 177.515747 
z
" style="stroke:#000000;stroke-linecap:round;"/>
   </g>
   <g id="PathCollection_1">
    <defs>
     <path d="M 0 8.660254 
C 2.296726 8.660254 4.499694 7.747755 6.123724 6.123724 
C 7.747755 4.499694 8.660254 2.296726 8.660254 -0 
C 8.660254 -2.296726 7.747755 -4.499694 6.123724 -6.123724 
C 4.499694 -7.747755 2.296726 -8.660254 0 -8.660254 
C -2.296726 -8.660254 -4.499694 -7.747755 -6.123724 -6.123724 
C -7.747755 -4.499694 -8.660254 -2.296726 -8.660254 0 
C -8.660254 2.296726 -7.747755 4.499694 -6.123724 6.123724 
C -4.499694 7.747755 -2.296726 8.660254 0 8.660254 
z
" id="C0_0_e5c3d8fccb"/>
    </defs>
    <g clip-path="url(#pd7629ff554)">
     <use style="fill:#ff0000;stroke:#ff0000;" x="465.940026" xlink:href="#C0_0_e5c3d8fccb" y="227.834486"/>
    </g>
    <g clip-path="url(#pd7629ff554)">
     <use style="fill:#ff0000;stroke:#ff0000;" x="288.213249" xlink:href="#C0_0_e5c3d8fccb" y="220.340921"/>
    </g>
    <g clip-path="url(#pd7629ff554)">
     <use style="fill:#ff0000;stroke:#ff0000;" x="683.504901" xlink:href="#C0_0_e5c3d8fccb" y="395.01196"/>
    </g>
    <g clip-path="url(#pd7629ff554)">
     <use style="fill:#ff0000;stroke:#ff0000;" x="303.708167" xlink:href="#C0_0_e5c3d8fccb" y="220.766416"/>
    </g>
    <g clip-path="url(#pd7629ff554)">
     <use style="fill:#ff0000;stroke:#ff0000;" x="598.998371" xlink:href="#C0_0_e5c3d8fccb" y="447.142147"/>
    </g>
    <g clip-path="url(#pd7629ff554)">
     <use style="fill:#008000;stroke:#008000;" x="251.07948" xlink:href="#C0_0_e5c3d8fccb" y="430.406386"/>
    </g>
    <g clip-path="url(#pd7629ff554)">
     <use style="fill:#008000;stroke:#008000;" x="326.735895" xlink:href="#C0_0_e5c3d8fccb" y="465.233031"/>
    </g>
    <g clip-path="url(#pd7629ff554)">
     <use style="fill:#008000;stroke:#008000;" x="719.494215" xlink:href="#C0_0_e5c3d8fccb" y="331.591643"/>
    </g>
    <g clip-path="url(#pd7629ff554)">
     <use style="fill:#ff0000;stroke:#ff0000;" x="638.039135" xlink:href="#C0_0_e5c3d8fccb" y="167.58638"/>
    </g>
    <g clip-path="url(#pd7629ff554)">
     <use style="fill:#008000;stroke:#008000;" x="471.065565" xlink:href="#C0_0_e5c3d8fccb" y="333.999983"/>
    </g>
    <g clip-path="url(#pd7629ff554)">
     <use style="fill:#008000;stroke:#008000;" x="584.183946" xlink:href="#C0_0_e5c3d8fccb" y="122.130133"/>
    </g>
    <g clip-path="url(#pd7629ff554)">
     <use style="fill:#008000;stroke:#008000;" x="214.067422" xlink:href="#C0_0_e5c3d8fccb" y="383.006807"/>
    </g>
    <g clip-path="url(#pd7629ff554)">
     <use style="fill:#008000;stroke:#008000;" x="427.627142" xlink:href="#C0_0_e5c3d8fccb" y="474.152727"/>
    </g>
    <g clip-path="url(#pd7629ff554)">
     <use style="fill:#ff0000;stroke:#ff0000;" x="532.969138" xlink:href="#C0_0_e5c3d8fccb" y="195.411453"/>
    </g>
    <g clip-path="url(#pd7629ff554)">
     <use style="fill:#008000;stroke:#008000;" x="450.252478" xlink:href="#C0_0_e5c3d8fccb" y="170.421704"/>
    </g>
    <g clip-path="url(#pd7629ff554)">
     <use style="fill:#008000;stroke:#008000;" x="416.095887" xlink:href="#C0_0_e5c3d8fccb" y="196.430061"/>
    </g>
    <g clip-path="url(#pd7629ff554)">
     <use style="fill:#ff0000;stroke:#ff0000;" x="711.656579" xlink:href="#C0_0_e5c3d8fccb" y="266.107188"/>
    </g>
    <g clip-path="url(#pd7629ff554)">
     <use style="fill:#ff0000;stroke:#ff0000;" x="217.386085" xlink:href="#C0_0_e5c3d8fccb" y="189.608128"/>
    </g>
    <g clip-path="url(#pd7629ff554)">
     <use style="fill:#ff0000;stroke:#ff0000;" x="166.366418" xlink:href="#C0_0_e5c3d8fccb" y="337.416671"/>
    </g>
    <g clip-path="url(#pd7629ff554)">
     <use style="fill:#ff0000;stroke:#ff0000;" x="441.89986" xlink:href="#C0_0_e5c3d8fccb" y="107.607273"/>
    </g>
    <g clip-path="url(#pd7629ff554)">
     <use style="fill:#ff0000;stroke:#ff0000;" x="166.105785" xlink:href="#C0_0_e5c3d8fccb" y="257.172347"/>
    </g>
    <g clip-path="url(#pd7629ff554)">
     <use style="fill:#ff0000;stroke:#ff0000;" x="302.90027" xlink:href="#C0_0_e5c3d8fccb" y="124.449367"/>
    </g>
    <g clip-path="url(#pd7629ff554)">
     <use style="fill:#ff0000;stroke:#ff0000;" x="582.163049" xlink:href="#C0_0_e5c3d8fccb" y="315.955009"/>
    </g>
    <g clip-path="url(#pd7629ff554)">
     <use style="fill:#ff0000;stroke:#ff0000;" x="492.871469" xlink:href="#C0_0_e5c3d8fccb" y="357.072976"/>
    </g>
    <g clip-path="url(#pd7629ff554)">
     <use style="fill:#ff0000;stroke:#ff0000;" x="507.850209" xlink:href="#C0_0_e5c3d8fccb" y="361.942653"/>
    </g>
    <g clip-path="url(#pd7629ff554)">
     <use style="fill:#ff0000;stroke:#ff0000;" x="503.470997" xlink:href="#C0_0_e5c3d8fccb" y="351.10531"/>
    </g>
   </g>
   <g id="text_1">
    <g clip-path="url(#pd7629ff554)">
     <!-- RAF1 -->
     <g transform="translate(450.638151 231.145736)scale(0.12 -0.12)">
      <defs>
       <path d="M 44.390625 34.1875 
Q 47.5625 33.109375 50.5625 29.59375 
Q 53.5625 26.078125 56.59375 19.921875 
L 66.609375 0 
L 56 0 
L 46.6875 18.703125 
Q 43.0625 26.03125 39.671875 28.421875 
Q 36.28125 30.8125 30.421875 30.8125 
L 19.671875 30.8125 
L 19.671875 0 
L 9.8125 0 
L 9.8125 72.90625 
L 32.078125 72.90625 
Q 44.578125 72.90625 50.734375 67.671875 
Q 56.890625 62.453125 56.890625 51.90625 
Q 56.890625 45.015625 53.6875 40.46875 
Q 50.484375 35.9375 44.390625 34.1875 
z
M 19.671875 64.796875 
L 19.671875 38.921875 
L 32.078125 38.921875 
Q 39.203125 38.921875 42.84375 42.21875 
Q 46.484375 45.515625 46.484375 51.90625 
Q 46.484375 58.296875 42.84375 61.546875 
Q 39.203125 64.796875 32.078125 64.796875 
z
" id="DejaVuSans-82"/>
       <path d="M 34.1875 63.1875 
L 20.796875 26.90625 
L 47.609375 26.90625 
z
M 28.609375 72.90625 
L 39.796875 72.90625 
L 67.578125 0 
L 57.328125 0 
L 50.6875 18.703125 
L 17.828125 18.703125 
L 11.1875 0 
L 0.78125 0 
z
" id="DejaVuSans-65"/>
       <path d="M 9.8125 72.90625 
L 51.703125 72.90625 
L 51.703125 64.59375 
L 19.671875 64.59375 
L 19.671875 43.109375 
L 48.578125 43.109375 
L 48.578125 34.8125 
L 19.671875 34.8125 
L 19.671875 0 
L 9.8125 0 
z
" id="DejaVuSans-70"/>
       <path d="M 12.40625 8.296875 
L 28.515625 8.296875 
L 28.515625 63.921875 
L 10.984375 60.40625 
L 10.984375 69.390625 
L 28.421875 72.90625 
L 38.28125 72.90625 
L 38.28125 8.296875 
L 54.390625 8.296875 
L 54.390625 0 
L 12.40625 0 
z
" id="DejaVuSans-49"/>
      </defs>
      <use xlink:href="#DejaVuSans-82"/>
      <use x="65.482422" xlink:href="#DejaVuSans-65"/>
      <use x="133.890625" xlink:href="#DejaVuSans-70"/>
      <use x="191.410156" xlink:href="#DejaVuSans-49"/>
     </g>
    </g>
   </g>
   <g id="text_2">
    <g clip-path="url(#pd7629ff554)">
     <!-- PRKCD -->
     <g transform="translate(268.011999 223.652171)scale(0.12 -0.12)">
      <defs>
       <path d="M 19.671875 64.796875 
L 19.671875 37.40625 
L 32.078125 37.40625 
Q 38.96875 37.40625 42.71875 40.96875 
Q 46.484375 44.53125 46.484375 51.125 
Q 46.484375 57.671875 42.71875 61.234375 
Q 38.96875 64.796875 32.078125 64.796875 
z
M 9.8125 72.90625 
L 32.078125 72.90625 
Q 44.34375 72.90625 50.609375 67.359375 
Q 56.890625 61.8125 56.890625 51.125 
Q 56.890625 40.328125 50.609375 34.8125 
Q 44.34375 29.296875 32.078125 29.296875 
L 19.671875 29.296875 
L 19.671875 0 
L 9.8125 0 
z
" id="DejaVuSans-80"/>
       <path d="M 9.8125 72.90625 
L 19.671875 72.90625 
L 19.671875 42.09375 
L 52.390625 72.90625 
L 65.09375 72.90625 
L 28.90625 38.921875 
L 67.671875 0 
L 54.6875 0 
L 19.671875 35.109375 
L 19.671875 0 
L 9.8125 0 
z
" id="DejaVuSans-75"/>
       <path d="M 64.40625 67.28125 
L 64.40625 56.890625 
Q 59.421875 61.53125 53.78125 63.8125 
Q 48.140625 66.109375 41.796875 66.109375 
Q 29.296875 66.109375 22.65625 58.46875 
Q 16.015625 50.828125 16.015625 36.375 
Q 16.015625 21.96875 22.65625 14.328125 
Q 29.296875 6.6875 41.796875 6.6875 
Q 48.140625 6.6875 53.78125 8.984375 
Q 59.421875 11.28125 64.40625 15.921875 
L 64.40625 5.609375 
Q 59.234375 2.09375 53.4375 0.328125 
Q 47.65625 -1.421875 41.21875 -1.421875 
Q 24.65625 -1.421875 15.125 8.703125 
Q 5.609375 18.84375 5.609375 36.375 
Q 5.609375 53.953125 15.125 64.078125 
Q 24.65625 74.21875 41.21875 74.21875 
Q 47.75 74.21875 53.53125 72.484375 
Q 59.328125 70.75 64.40625 67.28125 
z
" id="DejaVuSans-67"/>
       <path d="M 19.671875 64.796875 
L 19.671875 8.109375 
L 31.59375 8.109375 
Q 46.6875 8.109375 53.6875 14.9375 
Q 60.6875 21.78125 60.6875 36.53125 
Q 60.6875 51.171875 53.6875 57.984375 
Q 46.6875 64.796875 31.59375 64.796875 
z
M 9.8125 72.90625 
L 30.078125 72.90625 
Q 51.265625 72.90625 61.171875 64.09375 
Q 71.09375 55.28125 71.09375 36.53125 
Q 71.09375 17.671875 61.125 8.828125 
Q 51.171875 0 30.078125 0 
L 9.8125 0 
z
" id="DejaVuSans-68"/>
      </defs>
      <use xlink:href="#DejaVuSans-80"/>
      <use x="60.302734" xlink:href="#DejaVuSans-82"/>
      <use x="129.785156" xlink:href="#DejaVuSans-75"/>
      <use x="189.861328" xlink:href="#DejaVuSans-67"/>
      <use x="259.685547" xlink:href="#DejaVuSans-68"/>
     </g>
    </g>
   </g>
   <g id="text_3">
    <g clip-path="url(#pd7629ff554)">
     <!-- GRB2 -->
     <g transform="translate(666.752713 398.32321)scale(0.12 -0.12)">
      <defs>
       <path d="M 59.515625 10.40625 
L 59.515625 29.984375 
L 43.40625 29.984375 
L 43.40625 38.09375 
L 69.28125 38.09375 
L 69.28125 6.78125 
Q 63.578125 2.734375 56.6875 0.65625 
Q 49.8125 -1.421875 42 -1.421875 
Q 24.90625 -1.421875 15.25 8.5625 
Q 5.609375 18.5625 5.609375 36.375 
Q 5.609375 54.25 15.25 64.234375 
Q 24.90625 74.21875 42 74.21875 
Q 49.125 74.21875 55.546875 72.453125 
Q 61.96875 70.703125 67.390625 67.28125 
L 67.390625 56.78125 
Q 61.921875 61.421875 55.765625 63.765625 
Q 49.609375 66.109375 42.828125 66.109375 
Q 29.4375 66.109375 22.71875 58.640625 
Q 16.015625 51.171875 16.015625 36.375 
Q 16.015625 21.625 22.71875 14.15625 
Q 29.4375 6.6875 42.828125 6.6875 
Q 48.046875 6.6875 52.140625 7.59375 
Q 56.25 8.5 59.515625 10.40625 
z
" id="DejaVuSans-71"/>
       <path d="M 19.671875 34.8125 
L 19.671875 8.109375 
L 35.5 8.109375 
Q 43.453125 8.109375 47.28125 11.40625 
Q 51.125 14.703125 51.125 21.484375 
Q 51.125 28.328125 47.28125 31.5625 
Q 43.453125 34.8125 35.5 34.8125 
z
M 19.671875 64.796875 
L 19.671875 42.828125 
L 34.28125 42.828125 
Q 41.5 42.828125 45.03125 45.53125 
Q 48.578125 48.25 48.578125 53.8125 
Q 48.578125 59.328125 45.03125 62.0625 
Q 41.5 64.796875 34.28125 64.796875 
z
M 9.8125 72.90625 
L 35.015625 72.90625 
Q 46.296875 72.90625 52.390625 68.21875 
Q 58.5 63.53125 58.5 54.890625 
Q 58.5 48.1875 55.375 44.234375 
Q 52.25 40.28125 46.1875 39.3125 
Q 53.46875 37.75 57.5 32.78125 
Q 61.53125 27.828125 61.53125 20.40625 
Q 61.53125 10.640625 54.890625 5.3125 
Q 48.25 0 35.984375 0 
L 9.8125 0 
z
" id="DejaVuSans-66"/>
       <path d="M 19.1875 8.296875 
L 53.609375 8.296875 
L 53.609375 0 
L 7.328125 0 
L 7.328125 8.296875 
Q 12.9375 14.109375 22.625 23.890625 
Q 32.328125 33.6875 34.8125 36.53125 
Q 39.546875 41.84375 41.421875 45.53125 
Q 43.3125 49.21875 43.3125 52.78125 
Q 43.3125 58.59375 39.234375 62.25 
Q 35.15625 65.921875 28.609375 65.921875 
Q 23.96875 65.921875 18.8125 64.3125 
Q 13.671875 62.703125 7.8125 59.421875 
L 7.8125 69.390625 
Q 13.765625 71.78125 18.9375 73 
Q 24.125 74.21875 28.421875 74.21875 
Q 39.75 74.21875 46.484375 68.546875 
Q 53.21875 62.890625 53.21875 53.421875 
Q 53.21875 48.921875 51.53125 44.890625 
Q 49.859375 40.875 45.40625 35.40625 
Q 44.1875 33.984375 37.640625 27.21875 
Q 31.109375 20.453125 19.1875 8.296875 
z
" id="DejaVuSans-50"/>
      </defs>
      <use xlink:href="#DejaVuSans-71"/>
      <use x="77.490234" xlink:href="#DejaVuSans-82"/>
      <use x="146.972656" xlink:href="#DejaVuSans-66"/>
      <use x="215.576172" xlink:href="#DejaVuSans-50"/>
     </g>
    </g>
   </g>
   <g id="text_4">
    <g clip-path="url(#pd7629ff554)">
     <!-- GNAS -->
     <g transform="translate(286.656917 224.077666)scale(0.12 -0.12)">
      <defs>
       <path d="M 9.8125 72.90625 
L 23.09375 72.90625 
L 55.421875 11.921875 
L 55.421875 72.90625 
L 64.984375 72.90625 
L 64.984375 0 
L 51.703125 0 
L 19.390625 60.984375 
L 19.390625 0 
L 9.8125 0 
z
" id="DejaVuSans-78"/>
       <path d="M 53.515625 70.515625 
L 53.515625 60.890625 
Q 47.90625 63.578125 42.921875 64.890625 
Q 37.9375 66.21875 33.296875 66.21875 
Q 25.25 66.21875 20.875 63.09375 
Q 16.5 59.96875 16.5 54.203125 
Q 16.5 49.359375 19.40625 46.890625 
Q 22.3125 44.4375 30.421875 42.921875 
L 36.375 41.703125 
Q 47.40625 39.59375 52.65625 34.296875 
Q 57.90625 29 57.90625 20.125 
Q 57.90625 9.515625 50.796875 4.046875 
Q 43.703125 -1.421875 29.984375 -1.421875 
Q 24.8125 -1.421875 18.96875 -0.25 
Q 13.140625 0.921875 6.890625 3.21875 
L 6.890625 13.375 
Q 12.890625 10.015625 18.65625 8.296875 
Q 24.421875 6.59375 29.984375 6.59375 
Q 38.421875 6.59375 43.015625 9.90625 
Q 47.609375 13.234375 47.609375 19.390625 
Q 47.609375 24.75 44.3125 27.78125 
Q 41.015625 30.8125 33.5 32.328125 
L 27.484375 33.5 
Q 16.453125 35.6875 11.515625 40.375 
Q 6.59375 45.0625 6.59375 53.421875 
Q 6.59375 63.09375 13.40625 68.65625 
Q 20.21875 74.21875 32.171875 74.21875 
Q 37.3125 74.21875 42.625 73.28125 
Q 47.953125 72.359375 53.515625 70.515625 
z
" id="DejaVuSans-83"/>
      </defs>
      <use xlink:href="#DejaVuSans-71"/>
      <use x="77.490234" xlink:href="#DejaVuSans-78"/>
      <use x="152.294922" xlink:href="#DejaVuSans-65"/>
      <use x="220.703125" xlink:href="#DejaVuSans-83"/>
     </g>
    </g>
   </g>
   <g id="text_5">
    <g clip-path="url(#pd7629ff554)">
     <!-- BCL2 -->
     <g transform="translate(583.636496 450.453397)scale(0.12 -0.12)">
      <defs>
       <path d="M 9.8125 72.90625 
L 19.671875 72.90625 
L 19.671875 8.296875 
L 55.171875 8.296875 
L 55.171875 0 
L 9.8125 0 
z
" id="DejaVuSans-76"/>
      </defs>
      <use xlink:href="#DejaVuSans-66"/>
      <use x="66.853516" xlink:href="#DejaVuSans-67"/>
      <use x="136.677734" xlink:href="#DejaVuSans-76"/>
      <use x="192.390625" xlink:href="#DejaVuSans-50"/>
     </g>
    </g>
   </g>
   <g id="text_6">
    <g clip-path="url(#pd7629ff554)">
     <!-- EBAG9 -->
     <g transform="translate(230.70573 433.717636)scale(0.12 -0.12)">
      <defs>
       <path d="M 9.8125 72.90625 
L 55.90625 72.90625 
L 55.90625 64.59375 
L 19.671875 64.59375 
L 19.671875 43.015625 
L 54.390625 43.015625 
L 54.390625 34.71875 
L 19.671875 34.71875 
L 19.671875 8.296875 
L 56.78125 8.296875 
L 56.78125 0 
L 9.8125 0 
z
" id="DejaVuSans-69"/>
       <path d="M 10.984375 1.515625 
L 10.984375 10.5 
Q 14.703125 8.734375 18.5 7.8125 
Q 22.3125 6.890625 25.984375 6.890625 
Q 35.75 6.890625 40.890625 13.453125 
Q 46.046875 20.015625 46.78125 33.40625 
Q 43.953125 29.203125 39.59375 26.953125 
Q 35.25 24.703125 29.984375 24.703125 
Q 19.046875 24.703125 12.671875 31.3125 
Q 6.296875 37.9375 6.296875 49.421875 
Q 6.296875 60.640625 12.9375 67.421875 
Q 19.578125 74.21875 30.609375 74.21875 
Q 43.265625 74.21875 49.921875 64.515625 
Q 56.59375 54.828125 56.59375 36.375 
Q 56.59375 19.140625 48.40625 8.859375 
Q 40.234375 -1.421875 26.421875 -1.421875 
Q 22.703125 -1.421875 18.890625 -0.6875 
Q 15.09375 0.046875 10.984375 1.515625 
z
M 30.609375 32.421875 
Q 37.25 32.421875 41.125 36.953125 
Q 45.015625 41.5 45.015625 49.421875 
Q 45.015625 57.28125 41.125 61.84375 
Q 37.25 66.40625 30.609375 66.40625 
Q 23.96875 66.40625 20.09375 61.84375 
Q 16.21875 57.28125 16.21875 49.421875 
Q 16.21875 41.5 20.09375 36.953125 
Q 23.96875 32.421875 30.609375 32.421875 
z
" id="DejaVuSans-57"/>
      </defs>
      <use xlink:href="#DejaVuSans-69"/>
      <use x="63.183594" xlink:href="#DejaVuSans-66"/>
      <use x="131.787109" xlink:href="#DejaVuSans-65"/>
      <use x="198.445312" xlink:href="#DejaVuSans-71"/>
      <use x="275.935547" xlink:href="#DejaVuSans-57"/>
     </g>
    </g>
   </g>
   <g id="text_7">
    <g clip-path="url(#pd7629ff554)">
     <!-- CTSD -->
     <g transform="translate(310.452458 468.544281)scale(0.12 -0.12)">
      <defs>
       <path d="M -0.296875 72.90625 
L 61.375 72.90625 
L 61.375 64.59375 
L 35.5 64.59375 
L 35.5 0 
L 25.59375 0 
L 25.59375 64.59375 
L -0.296875 64.59375 
z
" id="DejaVuSans-84"/>
      </defs>
      <use xlink:href="#DejaVuSans-67"/>
      <use x="69.824219" xlink:href="#DejaVuSans-84"/>
      <use x="130.908203" xlink:href="#DejaVuSans-83"/>
      <use x="194.384766" xlink:href="#DejaVuSans-68"/>
     </g>
    </g>
   </g>
   <g id="text_8">
    <g clip-path="url(#pd7629ff554)">
     <!-- TGFA -->
     <g transform="translate(704.172652 334.902893)scale(0.12 -0.12)">
      <use xlink:href="#DejaVuSans-84"/>
      <use x="61.083984" xlink:href="#DejaVuSans-71"/>
      <use x="138.574219" xlink:href="#DejaVuSans-70"/>
      <use x="186.96875" xlink:href="#DejaVuSans-65"/>
     </g>
    </g>
   </g>
   <g id="text_9">
    <g clip-path="url(#pd7629ff554)">
     <!-- RARA -->
     <g transform="translate(621.97226 170.89763)scale(0.12 -0.12)">
      <use xlink:href="#DejaVuSans-82"/>
      <use x="65.482422" xlink:href="#DejaVuSans-65"/>
      <use x="133.890625" xlink:href="#DejaVuSans-82"/>
      <use x="199.373047" xlink:href="#DejaVuSans-65"/>
     </g>
    </g>
   </g>
   <g id="text_10">
    <g clip-path="url(#pd7629ff554)">
     <!-- ESR2 -->
     <g transform="translate(455.47869 337.311233)scale(0.12 -0.12)">
      <use xlink:href="#DejaVuSans-69"/>
      <use x="63.183594" xlink:href="#DejaVuSans-83"/>
      <use x="126.660156" xlink:href="#DejaVuSans-82"/>
      <use x="196.142578" xlink:href="#DejaVuSans-50"/>
     </g>
    </g>
   </g>
   <g id="text_11">
    <g clip-path="url(#pd7629ff554)">
     <!-- FOS -->
     <g transform="translate(572.200821 125.441383)scale(0.12 -0.12)">
      <defs>
       <path d="M 39.40625 66.21875 
Q 28.65625 66.21875 22.328125 58.203125 
Q 16.015625 50.203125 16.015625 36.375 
Q 16.015625 22.609375 22.328125 14.59375 
Q 28.65625 6.59375 39.40625 6.59375 
Q 50.140625 6.59375 56.421875 14.59375 
Q 62.703125 22.609375 62.703125 36.375 
Q 62.703125 50.203125 56.421875 58.203125 
Q 50.140625 66.21875 39.40625 66.21875 
z
M 39.40625 74.21875 
Q 54.734375 74.21875 63.90625 63.9375 
Q 73.09375 53.65625 73.09375 36.375 
Q 73.09375 19.140625 63.90625 8.859375 
Q 54.734375 -1.421875 39.40625 -1.421875 
Q 24.03125 -1.421875 14.8125 8.828125 
Q 5.609375 19.09375 5.609375 36.375 
Q 5.609375 53.65625 14.8125 63.9375 
Q 24.03125 74.21875 39.40625 74.21875 
z
" id="DejaVuSans-79"/>
      </defs>
      <use xlink:href="#DejaVuSans-70"/>
      <use x="57.519531" xlink:href="#DejaVuSans-79"/>
      <use x="136.230469" xlink:href="#DejaVuSans-83"/>
     </g>
    </g>
   </g>
   <g id="text_12">
    <g clip-path="url(#pd7629ff554)">
     <!-- JUN -->
     <g transform="translate(203.417422 386.318057)scale(0.12 -0.12)">
      <defs>
       <path d="M 9.8125 72.90625 
L 19.671875 72.90625 
L 19.671875 5.078125 
Q 19.671875 -8.109375 14.671875 -14.0625 
Q 9.671875 -20.015625 -1.421875 -20.015625 
L -5.171875 -20.015625 
L -5.171875 -11.71875 
L -2.09375 -11.71875 
Q 4.4375 -11.71875 7.125 -8.046875 
Q 9.8125 -4.390625 9.8125 5.078125 
z
" id="DejaVuSans-74"/>
       <path d="M 8.6875 72.90625 
L 18.609375 72.90625 
L 18.609375 28.609375 
Q 18.609375 16.890625 22.84375 11.734375 
Q 27.09375 6.59375 36.625 6.59375 
Q 46.09375 6.59375 50.34375 11.734375 
Q 54.59375 16.890625 54.59375 28.609375 
L 54.59375 72.90625 
L 64.5 72.90625 
L 64.5 27.390625 
Q 64.5 13.140625 57.4375 5.859375 
Q 50.390625 -1.421875 36.625 -1.421875 
Q 22.796875 -1.421875 15.734375 5.859375 
Q 8.6875 13.140625 8.6875 27.390625 
z
" id="DejaVuSans-85"/>
      </defs>
      <use xlink:href="#DejaVuSans-74"/>
      <use x="29.492188" xlink:href="#DejaVuSans-85"/>
      <use x="102.685547" xlink:href="#DejaVuSans-78"/>
     </g>
    </g>
   </g>
   <g id="text_13">
    <g clip-path="url(#pd7629ff554)">
     <!-- SP1 -->
     <g transform="translate(416.382767 477.463977)scale(0.12 -0.12)">
      <use xlink:href="#DejaVuSans-83"/>
      <use x="63.476562" xlink:href="#DejaVuSans-80"/>
      <use x="123.779297" xlink:href="#DejaVuSans-49"/>
     </g>
    </g>
   </g>
   <g id="text_14">
    <g clip-path="url(#pd7629ff554)">
     <!-- HRAS -->
     <g transform="translate(516.61445 198.722703)scale(0.12 -0.12)">
      <defs>
       <path d="M 9.8125 72.90625 
L 19.671875 72.90625 
L 19.671875 43.015625 
L 55.515625 43.015625 
L 55.515625 72.90625 
L 65.375 72.90625 
L 65.375 0 
L 55.515625 0 
L 55.515625 34.71875 
L 19.671875 34.71875 
L 19.671875 0 
L 9.8125 0 
z
" id="DejaVuSans-72"/>
      </defs>
      <use xlink:href="#DejaVuSans-72"/>
      <use x="75.195312" xlink:href="#DejaVuSans-82"/>
      <use x="140.677734" xlink:href="#DejaVuSans-65"/>
      <use x="209.085938" xlink:href="#DejaVuSans-83"/>
     </g>
    </g>
   </g>
   <g id="text_15">
    <g clip-path="url(#pd7629ff554)">
     <!-- KRAS -->
     <g transform="translate(434.475291 173.732954)scale(0.12 -0.12)">
      <use xlink:href="#DejaVuSans-75"/>
      <use x="65.576172" xlink:href="#DejaVuSans-82"/>
      <use x="131.058594" xlink:href="#DejaVuSans-65"/>
      <use x="199.466797" xlink:href="#DejaVuSans-83"/>
     </g>
    </g>
   </g>
   <g id="text_16">
    <g clip-path="url(#pd7629ff554)">
     <!-- NRAS -->
     <g transform="translate(399.764637 199.741311)scale(0.12 -0.12)">
      <use xlink:href="#DejaVuSans-78"/>
      <use x="74.804688" xlink:href="#DejaVuSans-82"/>
      <use x="140.287109" xlink:href="#DejaVuSans-65"/>
      <use x="208.695312" xlink:href="#DejaVuSans-83"/>
     </g>
    </g>
   </g>
   <g id="text_17">
    <g clip-path="url(#pd7629ff554)">
     <!-- MAP2K1 -->
     <g transform="translate(687.187829 269.418438)scale(0.12 -0.12)">
      <defs>
       <path d="M 9.8125 72.90625 
L 24.515625 72.90625 
L 43.109375 23.296875 
L 61.8125 72.90625 
L 76.515625 72.90625 
L 76.515625 0 
L 66.890625 0 
L 66.890625 64.015625 
L 48.09375 14.015625 
L 38.1875 14.015625 
L 19.390625 64.015625 
L 19.390625 0 
L 9.8125 0 
z
" id="DejaVuSans-77"/>
      </defs>
      <use xlink:href="#DejaVuSans-77"/>
      <use x="86.279297" xlink:href="#DejaVuSans-65"/>
      <use x="154.6875" xlink:href="#DejaVuSans-80"/>
      <use x="214.990234" xlink:href="#DejaVuSans-50"/>
      <use x="278.613281" xlink:href="#DejaVuSans-75"/>
      <use x="344.189453" xlink:href="#DejaVuSans-49"/>
     </g>
    </g>
   </g>
   <g id="text_18">
    <g clip-path="url(#pd7629ff554)">
     <!-- MAP2K2 -->
     <g transform="translate(192.917335 192.919378)scale(0.12 -0.12)">
      <use xlink:href="#DejaVuSans-77"/>
      <use x="86.279297" xlink:href="#DejaVuSans-65"/>
      <use x="154.6875" xlink:href="#DejaVuSans-80"/>
      <use x="214.990234" xlink:href="#DejaVuSans-50"/>
      <use x="278.613281" xlink:href="#DejaVuSans-75"/>
      <use x="344.189453" xlink:href="#DejaVuSans-50"/>
     </g>
    </g>
   </g>
   <g id="text_19">
    <g clip-path="url(#pd7629ff554)">
     <!-- ADCY3 -->
     <g transform="translate(146.075168 340.727921)scale(0.12 -0.12)">
      <defs>
       <path d="M -0.203125 72.90625 
L 10.40625 72.90625 
L 30.609375 42.921875 
L 50.6875 72.90625 
L 61.28125 72.90625 
L 35.5 34.71875 
L 35.5 0 
L 25.59375 0 
L 25.59375 34.71875 
z
" id="DejaVuSans-89"/>
       <path d="M 40.578125 39.3125 
Q 47.65625 37.796875 51.625 33 
Q 55.609375 28.21875 55.609375 21.1875 
Q 55.609375 10.40625 48.1875 4.484375 
Q 40.765625 -1.421875 27.09375 -1.421875 
Q 22.515625 -1.421875 17.65625 -0.515625 
Q 12.796875 0.390625 7.625 2.203125 
L 7.625 11.71875 
Q 11.71875 9.328125 16.59375 8.109375 
Q 21.484375 6.890625 26.8125 6.890625 
Q 36.078125 6.890625 40.9375 10.546875 
Q 45.796875 14.203125 45.796875 21.1875 
Q 45.796875 27.640625 41.28125 31.265625 
Q 36.765625 34.90625 28.71875 34.90625 
L 20.21875 34.90625 
L 20.21875 43.015625 
L 29.109375 43.015625 
Q 36.375 43.015625 40.234375 45.921875 
Q 44.09375 48.828125 44.09375 54.296875 
Q 44.09375 59.90625 40.109375 62.90625 
Q 36.140625 65.921875 28.71875 65.921875 
Q 24.65625 65.921875 20.015625 65.03125 
Q 15.375 64.15625 9.8125 62.3125 
L 9.8125 71.09375 
Q 15.4375 72.65625 20.34375 73.4375 
Q 25.25 74.21875 29.59375 74.21875 
Q 40.828125 74.21875 47.359375 69.109375 
Q 53.90625 64.015625 53.90625 55.328125 
Q 53.90625 49.265625 50.4375 45.09375 
Q 46.96875 40.921875 40.578125 39.3125 
z
" id="DejaVuSans-51"/>
      </defs>
      <use xlink:href="#DejaVuSans-65"/>
      <use x="68.408203" xlink:href="#DejaVuSans-68"/>
      <use x="145.410156" xlink:href="#DejaVuSans-67"/>
      <use x="213.484375" xlink:href="#DejaVuSans-89"/>
      <use x="274.568359" xlink:href="#DejaVuSans-51"/>
     </g>
    </g>
   </g>
   <g id="text_20">
    <g clip-path="url(#pd7629ff554)">
     <!-- ADCY4 -->
     <g transform="translate(421.60861 110.918523)scale(0.12 -0.12)">
      <defs>
       <path d="M 37.796875 64.3125 
L 12.890625 25.390625 
L 37.796875 25.390625 
z
M 35.203125 72.90625 
L 47.609375 72.90625 
L 47.609375 25.390625 
L 58.015625 25.390625 
L 58.015625 17.1875 
L 47.609375 17.1875 
L 47.609375 0 
L 37.796875 0 
L 37.796875 17.1875 
L 4.890625 17.1875 
L 4.890625 26.703125 
z
" id="DejaVuSans-52"/>
      </defs>
      <use xlink:href="#DejaVuSans-65"/>
      <use x="68.408203" xlink:href="#DejaVuSans-68"/>
      <use x="145.410156" xlink:href="#DejaVuSans-67"/>
      <use x="213.484375" xlink:href="#DejaVuSans-89"/>
      <use x="274.568359" xlink:href="#DejaVuSans-52"/>
     </g>
    </g>
   </g>
   <g id="text_21">
    <g clip-path="url(#pd7629ff554)">
     <!-- ADCY7 -->
     <g transform="translate(145.814535 260.483597)scale(0.12 -0.12)">
      <defs>
       <path d="M 8.203125 72.90625 
L 55.078125 72.90625 
L 55.078125 68.703125 
L 28.609375 0 
L 18.3125 0 
L 43.21875 64.59375 
L 8.203125 64.59375 
z
" id="DejaVuSans-55"/>
      </defs>
      <use xlink:href="#DejaVuSans-65"/>
      <use x="68.408203" xlink:href="#DejaVuSans-68"/>
      <use x="145.410156" xlink:href="#DejaVuSans-67"/>
      <use x="213.484375" xlink:href="#DejaVuSans-89"/>
      <use x="274.568359" xlink:href="#DejaVuSans-55"/>
     </g>
    </g>
   </g>
   <g id="text_22">
    <g clip-path="url(#pd7629ff554)">
     <!-- ADCY9 -->
     <g transform="translate(282.60902 127.760617)scale(0.12 -0.12)">
      <use xlink:href="#DejaVuSans-65"/>
      <use x="68.408203" xlink:href="#DejaVuSans-68"/>
      <use x="145.410156" xlink:href="#DejaVuSans-67"/>
      <use x="213.484375" xlink:href="#DejaVuSans-89"/>
      <use x="274.568359" xlink:href="#DejaVuSans-57"/>
     </g>
    </g>
   </g>
   <g id="text_23">
    <g clip-path="url(#pd7629ff554)">
     <!-- SHC1 -->
     <g transform="translate(565.834612 319.266259)scale(0.12 -0.12)">
      <use xlink:href="#DejaVuSans-83"/>
      <use x="63.476562" xlink:href="#DejaVuSans-72"/>
      <use x="138.671875" xlink:href="#DejaVuSans-67"/>
      <use x="208.496094" xlink:href="#DejaVuSans-49"/>
     </g>
    </g>
   </g>
   <g id="text_24">
    <g clip-path="url(#pd7629ff554)">
     <!-- NCOA1 -->
     <g transform="translate(471.653031 360.384226)scale(0.12 -0.12)">
      <use xlink:href="#DejaVuSans-78"/>
      <use x="74.804688" xlink:href="#DejaVuSans-67"/>
      <use x="144.628906" xlink:href="#DejaVuSans-79"/>
      <use x="221.589844" xlink:href="#DejaVuSans-65"/>
      <use x="289.998047" xlink:href="#DejaVuSans-49"/>
     </g>
    </g>
   </g>
   <g id="text_25">
    <g clip-path="url(#pd7629ff554)">
     <!-- NCOA2 -->
     <g transform="translate(486.631771 365.253903)scale(0.12 -0.12)">
      <use xlink:href="#DejaVuSans-78"/>
      <use x="74.804688" xlink:href="#DejaVuSans-67"/>
      <use x="144.628906" xlink:href="#DejaVuSans-79"/>
      <use x="221.589844" xlink:href="#DejaVuSans-65"/>
      <use x="289.998047" xlink:href="#DejaVuSans-50"/>
     </g>
    </g>
   </g>
   <g id="text_26">
    <g clip-path="url(#pd7629ff554)">
     <!-- NCOA3 -->
     <g transform="translate(482.25256 354.41656)scale(0.12 -0.12)">
      <use xlink:href="#DejaVuSans-78"/>
      <use x="74.804688" xlink:href="#DejaVuSans-67"/>
      <use x="144.628906" xlink:href="#DejaVuSans-79"/>
      <use x="221.589844" xlink:href="#DejaVuSans-65"/>
      <use x="289.998047" xlink:href="#DejaVuSans-51"/>
     </g>
    </g>
   </g>
   <g id="text_27">
    <!-- Frame: 11 -->
    <g transform="translate(121.392 91.296)scale(0.1 -0.1)">
     <defs>
      <path d="M 41.109375 46.296875 
Q 39.59375 47.171875 37.8125 47.578125 
Q 36.03125 48 33.890625 48 
Q 26.265625 48 22.1875 43.046875 
Q 18.109375 38.09375 18.109375 28.8125 
L 18.109375 0 
L 9.078125 0 
L 9.078125 54.6875 
L 18.109375 54.6875 
L 18.109375 46.1875 
Q 20.953125 51.171875 25.484375 53.578125 
Q 30.03125 56 36.53125 56 
Q 37.453125 56 38.578125 55.875 
Q 39.703125 55.765625 41.0625 55.515625 
z
" id="DejaVuSans-114"/>
      <path d="M 34.28125 27.484375 
Q 23.390625 27.484375 19.1875 25 
Q 14.984375 22.515625 14.984375 16.5 
Q 14.984375 11.71875 18.140625 8.90625 
Q 21.296875 6.109375 26.703125 6.109375 
Q 34.1875 6.109375 38.703125 11.40625 
Q 43.21875 16.703125 43.21875 25.484375 
L 43.21875 27.484375 
z
M 52.203125 31.203125 
L 52.203125 0 
L 43.21875 0 
L 43.21875 8.296875 
Q 40.140625 3.328125 35.546875 0.953125 
Q 30.953125 -1.421875 24.3125 -1.421875 
Q 15.921875 -1.421875 10.953125 3.296875 
Q 6 8.015625 6 15.921875 
Q 6 25.140625 12.171875 29.828125 
Q 18.359375 34.515625 30.609375 34.515625 
L 43.21875 34.515625 
L 43.21875 35.40625 
Q 43.21875 41.609375 39.140625 45 
Q 35.0625 48.390625 27.6875 48.390625 
Q 23 48.390625 18.546875 47.265625 
Q 14.109375 46.140625 10.015625 43.890625 
L 10.015625 52.203125 
Q 14.9375 54.109375 19.578125 55.046875 
Q 24.21875 56 28.609375 56 
Q 40.484375 56 46.34375 49.84375 
Q 52.203125 43.703125 52.203125 31.203125 
z
" id="DejaVuSans-97"/>
      <path d="M 52 44.1875 
Q 55.375 50.25 60.0625 53.125 
Q 64.75 56 71.09375 56 
Q 79.640625 56 84.28125 50.015625 
Q 88.921875 44.046875 88.921875 33.015625 
L 88.921875 0 
L 79.890625 0 
L 79.890625 32.71875 
Q 79.890625 40.578125 77.09375 44.375 
Q 74.3125 48.1875 68.609375 48.1875 
Q 61.625 48.1875 57.5625 43.546875 
Q 53.515625 38.921875 53.515625 30.90625 
L 53.515625 0 
L 44.484375 0 
L 44.484375 32.71875 
Q 44.484375 40.625 41.703125 44.40625 
Q 38.921875 48.1875 33.109375 48.1875 
Q 26.21875 48.1875 22.15625 43.53125 
Q 18.109375 38.875 18.109375 30.90625 
L 18.109375 0 
L 9.078125 0 
L 9.078125 54.6875 
L 18.109375 54.6875 
L 18.109375 46.1875 
Q 21.1875 51.21875 25.484375 53.609375 
Q 29.78125 56 35.6875 56 
Q 41.65625 56 45.828125 52.96875 
Q 50 49.953125 52 44.1875 
z
" id="DejaVuSans-109"/>
      <path d="M 56.203125 29.59375 
L 56.203125 25.203125 
L 14.890625 25.203125 
Q 15.484375 15.921875 20.484375 11.0625 
Q 25.484375 6.203125 34.421875 6.203125 
Q 39.59375 6.203125 44.453125 7.46875 
Q 49.3125 8.734375 54.109375 11.28125 
L 54.109375 2.78125 
Q 49.265625 0.734375 44.1875 -0.34375 
Q 39.109375 -1.421875 33.890625 -1.421875 
Q 20.796875 -1.421875 13.15625 6.1875 
Q 5.515625 13.8125 5.515625 26.8125 
Q 5.515625 40.234375 12.765625 48.109375 
Q 20.015625 56 32.328125 56 
Q 43.359375 56 49.78125 48.890625 
Q 56.203125 41.796875 56.203125 29.59375 
z
M 47.21875 32.234375 
Q 47.125 39.59375 43.09375 43.984375 
Q 39.0625 48.390625 32.421875 48.390625 
Q 24.90625 48.390625 20.390625 44.140625 
Q 15.875 39.890625 15.1875 32.171875 
z
" id="DejaVuSans-101"/>
      <path d="M 11.71875 12.40625 
L 22.015625 12.40625 
L 22.015625 0 
L 11.71875 0 
z
M 11.71875 51.703125 
L 22.015625 51.703125 
L 22.015625 39.3125 
L 11.71875 39.3125 
z
" id="DejaVuSans-58"/>
      <path id="DejaVuSans-32"/>
     </defs>
     <use xlink:href="#DejaVuSans-70"/>
     <use x="50.269531" xlink:href="#DejaVuSans-114"/>
     <use x="91.382812" xlink:href="#DejaVuSans-97"/>
     <use x="152.662109" xlink:href="#DejaVuSans-109"/>
     <use x="250.074219" xlink:href="#DejaVuSans-101"/>
     <use x="311.597656" xlink:href="#DejaVuSans-58"/>
     <use x="345.289062" xlink:href="#DejaVuSans-32"/>
     <use x="377.076172" xlink:href="#DejaVuSans-49"/>
     <use x="440.699219" xlink:href="#DejaVuSans-49"/>
    </g>
   </g>
   <g id="text_28">
    <!-- Network: hsa04915 -->
    <g transform="translate(384.1275 63.12)scale(0.12 -0.12)">
     <defs>
      <path d="M 18.3125 70.21875 
L 18.3125 54.6875 
L 36.8125 54.6875 
L 36.8125 47.703125 
L 18.3125 47.703125 
L 18.3125 18.015625 
Q 18.3125 11.328125 20.140625 9.421875 
Q 21.96875 7.515625 27.59375 7.515625 
L 36.8125 7.515625 
L 36.8125 0 
L 27.59375 0 
Q 17.1875 0 13.234375 3.875 
Q 9.28125 7.765625 9.28125 18.015625 
L 9.28125 47.703125 
L 2.6875 47.703125 
L 2.6875 54.6875 
L 9.28125 54.6875 
L 9.28125 70.21875 
z
" id="DejaVuSans-116"/>
      <path d="M 4.203125 54.6875 
L 13.1875 54.6875 
L 24.421875 12.015625 
L 35.59375 54.6875 
L 46.1875 54.6875 
L 57.421875 12.015625 
L 68.609375 54.6875 
L 77.59375 54.6875 
L 63.28125 0 
L 52.6875 0 
L 40.921875 44.828125 
L 29.109375 0 
L 18.5 0 
z
" id="DejaVuSans-119"/>
      <path d="M 30.609375 48.390625 
Q 23.390625 48.390625 19.1875 42.75 
Q 14.984375 37.109375 14.984375 27.296875 
Q 14.984375 17.484375 19.15625 11.84375 
Q 23.34375 6.203125 30.609375 6.203125 
Q 37.796875 6.203125 41.984375 11.859375 
Q 46.1875 17.53125 46.1875 27.296875 
Q 46.1875 37.015625 41.984375 42.703125 
Q 37.796875 48.390625 30.609375 48.390625 
z
M 30.609375 56 
Q 42.328125 56 49.015625 48.375 
Q 55.71875 40.765625 55.71875 27.296875 
Q 55.71875 13.875 49.015625 6.21875 
Q 42.328125 -1.421875 30.609375 -1.421875 
Q 18.84375 -1.421875 12.171875 6.21875 
Q 5.515625 13.875 5.515625 27.296875 
Q 5.515625 40.765625 12.171875 48.375 
Q 18.84375 56 30.609375 56 
z
" id="DejaVuSans-111"/>
      <path d="M 9.078125 75.984375 
L 18.109375 75.984375 
L 18.109375 31.109375 
L 44.921875 54.6875 
L 56.390625 54.6875 
L 27.390625 29.109375 
L 57.625 0 
L 45.90625 0 
L 18.109375 26.703125 
L 18.109375 0 
L 9.078125 0 
z
" id="DejaVuSans-107"/>
      <path d="M 54.890625 33.015625 
L 54.890625 0 
L 45.90625 0 
L 45.90625 32.71875 
Q 45.90625 40.484375 42.875 44.328125 
Q 39.84375 48.1875 33.796875 48.1875 
Q 26.515625 48.1875 22.3125 43.546875 
Q 18.109375 38.921875 18.109375 30.90625 
L 18.109375 0 
L 9.078125 0 
L 9.078125 75.984375 
L 18.109375 75.984375 
L 18.109375 46.1875 
Q 21.34375 51.125 25.703125 53.5625 
Q 30.078125 56 35.796875 56 
Q 45.21875 56 50.046875 50.171875 
Q 54.890625 44.34375 54.890625 33.015625 
z
" id="DejaVuSans-104"/>
      <path d="M 44.28125 53.078125 
L 44.28125 44.578125 
Q 40.484375 46.53125 36.375 47.5 
Q 32.28125 48.484375 27.875 48.484375 
Q 21.1875 48.484375 17.84375 46.4375 
Q 14.5 44.390625 14.5 40.28125 
Q 14.5 37.15625 16.890625 35.375 
Q 19.28125 33.59375 26.515625 31.984375 
L 29.59375 31.296875 
Q 39.15625 29.25 43.1875 25.515625 
Q 47.21875 21.78125 47.21875 15.09375 
Q 47.21875 7.46875 41.1875 3.015625 
Q 35.15625 -1.421875 24.609375 -1.421875 
Q 20.21875 -1.421875 15.453125 -0.5625 
Q 10.6875 0.296875 5.421875 2 
L 5.421875 11.28125 
Q 10.40625 8.6875 15.234375 7.390625 
Q 20.0625 6.109375 24.8125 6.109375 
Q 31.15625 6.109375 34.5625 8.28125 
Q 37.984375 10.453125 37.984375 14.40625 
Q 37.984375 18.0625 35.515625 20.015625 
Q 33.0625 21.96875 24.703125 23.78125 
L 21.578125 24.515625 
Q 13.234375 26.265625 9.515625 29.90625 
Q 5.8125 33.546875 5.8125 39.890625 
Q 5.8125 47.609375 11.28125 51.796875 
Q 16.75 56 26.8125 56 
Q 31.78125 56 36.171875 55.265625 
Q 40.578125 54.546875 44.28125 53.078125 
z
" id="DejaVuSans-115"/>
      <path d="M 31.78125 66.40625 
Q 24.171875 66.40625 20.328125 58.90625 
Q 16.5 51.421875 16.5 36.375 
Q 16.5 21.390625 20.328125 13.890625 
Q 24.171875 6.390625 31.78125 6.390625 
Q 39.453125 6.390625 43.28125 13.890625 
Q 47.125 21.390625 47.125 36.375 
Q 47.125 51.421875 43.28125 58.90625 
Q 39.453125 66.40625 31.78125 66.40625 
z
M 31.78125 74.21875 
Q 44.046875 74.21875 50.515625 64.515625 
Q 56.984375 54.828125 56.984375 36.375 
Q 56.984375 17.96875 50.515625 8.265625 
Q 44.046875 -1.421875 31.78125 -1.421875 
Q 19.53125 -1.421875 13.0625 8.265625 
Q 6.59375 17.96875 6.59375 36.375 
Q 6.59375 54.828125 13.0625 64.515625 
Q 19.53125 74.21875 31.78125 74.21875 
z
" id="DejaVuSans-48"/>
      <path d="M 10.796875 72.90625 
L 49.515625 72.90625 
L 49.515625 64.59375 
L 19.828125 64.59375 
L 19.828125 46.734375 
Q 21.96875 47.46875 24.109375 47.828125 
Q 26.265625 48.1875 28.421875 48.1875 
Q 40.625 48.1875 47.75 41.5 
Q 54.890625 34.8125 54.890625 23.390625 
Q 54.890625 11.625 47.5625 5.09375 
Q 40.234375 -1.421875 26.90625 -1.421875 
Q 22.3125 -1.421875 17.546875 -0.640625 
Q 12.796875 0.140625 7.71875 1.703125 
L 7.71875 11.625 
Q 12.109375 9.234375 16.796875 8.0625 
Q 21.484375 6.890625 26.703125 6.890625 
Q 35.15625 6.890625 40.078125 11.328125 
Q 45.015625 15.765625 45.015625 23.390625 
Q 45.015625 31 40.078125 35.4375 
Q 35.15625 39.890625 26.703125 39.890625 
Q 22.75 39.890625 18.8125 39.015625 
Q 14.890625 38.140625 10.796875 36.28125 
z
" id="DejaVuSans-53"/>
     </defs>
     <use xlink:href="#DejaVuSans-78"/>
     <use x="74.804688" xlink:href="#DejaVuSans-101"/>
     <use x="136.328125" xlink:href="#DejaVuSans-116"/>
     <use x="175.537109" xlink:href="#DejaVuSans-119"/>
     <use x="257.324219" xlink:href="#DejaVuSans-111"/>
     <use x="318.505859" xlink:href="#DejaVuSans-114"/>
     <use x="359.619141" xlink:href="#DejaVuSans-107"/>
     <use x="417.529297" xlink:href="#DejaVuSans-58"/>
     <use x="451.220703" xlink:href="#DejaVuSans-32"/>
     <use x="483.007812" xlink:href="#DejaVuSans-104"/>
     <use x="546.386719" xlink:href="#DejaVuSans-115"/>
     <use x="598.486328" xlink:href="#DejaVuSans-97"/>
     <use x="659.765625" xlink:href="#DejaVuSans-48"/>
     <use x="723.388672" xlink:href="#DejaVuSans-52"/>
     <use x="787.011719" xlink:href="#DejaVuSans-57"/>
     <use x="850.634766" xlink:href="#DejaVuSans-49"/>
     <use x="914.257812" xlink:href="#DejaVuSans-53"/>
    </g>
   </g>
  </g>
 </g>
 <defs>
  <clipPath id="pd7629ff554">
   <rect height="443.52" width="669.6" x="108" y="69.12"/>
  </clipPath>
 </defs>
</svg>
