<?xml version="1.0" encoding="utf-8" standalone="no"?>
<!DOCTYPE svg PUBLIC "-//W3C//DTD SVG 1.1//EN"
  "http://www.w3.org/Graphics/SVG/1.1/DTD/svg11.dtd">
<!-- Created with matplotlib (https://matplotlib.org/) -->
<svg height="864pt" version="1.1" viewBox="0 0 1152 864" width="1152pt" xmlns="http://www.w3.org/2000/svg" xmlns:xlink="http://www.w3.org/1999/xlink">
 <metadata>
  <rdf:RDF xmlns:cc="http://creativecommons.org/ns#" xmlns:dc="http://purl.org/dc/elements/1.1/" xmlns:rdf="http://www.w3.org/1999/02/22-rdf-syntax-ns#">
   <cc:Work>
    <dc:type rdf:resource="http://purl.org/dc/dcmitype/StillImage"/>
    <dc:date>2024-04-17T13:32:00.655782</dc:date>
    <dc:format>image/svg+xml</dc:format>
    <dc:creator>
     <cc:Agent>
      <dc:title>Matplotlib v3.3.1, https://matplotlib.org/</dc:title>
     </cc:Agent>
    </dc:creator>
   </cc:Work>
  </rdf:RDF>
 </metadata>
 <defs>
  <style type="text/css">*{stroke-linecap:butt;stroke-linejoin:round;}</style>
 </defs>
 <g id="figure_1">
  <g id="patch_1">
   <path d="M 0 864 
L 1152 864 
L 1152 0 
L 0 0 
z
" style="fill:#ffffff;"/>
  </g>
  <g id="axes_1">
   <g id="patch_2">
    <path clip-path="url(#p214ad41d93)" d="M 552.398999 499.458135 
Q 639.978162 603.122047 726.835795 705.931914 
" style="fill:none;stroke:#000000;stroke-linecap:round;"/>
    <path clip-path="url(#p214ad41d93)" d="M 725.782134 701.585674 
L 726.835795 705.931914 
L 722.726606 704.167098 
L 725.782134 701.585674 
z
" style="stroke:#000000;stroke-linecap:round;"/>
   </g>
   <g id="patch_3">
    <path clip-path="url(#p214ad41d93)" d="M 557.78318 489.047155 
Q 751.655989 505.575848 944.414806 522.009566 
" style="fill:none;stroke:#000000;stroke-linecap:round;"/>
    <path clip-path="url(#p214ad41d93)" d="M 940.599159 519.677006 
L 944.414806 522.009566 
L 940.25937 523.662548 
L 940.599159 519.677006 
z
" style="stroke:#000000;stroke-linecap:round;"/>
   </g>
   <g id="patch_4">
    <path clip-path="url(#p214ad41d93)" d="M 527.261783 489.40543 
Q 385.93122 504.808 245.712109 520.089442 
" style="fill:none;stroke:#000000;stroke-linecap:round;"/>
    <path clip-path="url(#p214ad41d93)" d="M 249.905246 521.644305 
L 245.712109 520.089442 
L 249.471882 517.66785 
L 249.905246 521.644305 
z
" style="stroke:#000000;stroke-linecap:round;"/>
   </g>
   <g id="patch_5">
    <path clip-path="url(#p214ad41d93)" d="M 532.93285 499.72405 
Q 468.666363 580.172465 405.097695 659.747353 
" style="fill:none;stroke:#000000;stroke-linecap:round;"/>
    <path clip-path="url(#p214ad41d93)" d="M 409.156901 657.870428 
L 405.097695 659.747353 
L 406.031678 655.373833 
L 409.156901 657.870428 
z
" style="stroke:#000000;stroke-linecap:round;"/>
   </g>
   <g id="patch_6">
    <path clip-path="url(#p214ad41d93)" d="M 543.549808 472.441909 
Q 553.970349 320.138523 564.314572 168.950563 
" style="fill:none;stroke:#000000;stroke-linecap:round;"/>
    <path clip-path="url(#p214ad41d93)" d="M 562.046197 172.804714 
L 564.314572 168.950563 
L 566.036867 173.077754 
L 562.046197 172.804714 
z
" style="stroke:#000000;stroke-linecap:round;"/>
   </g>
   <g id="patch_7">
    <path clip-path="url(#p214ad41d93)" d="M 527.555027 484.337054 
Q 377.351984 450.098063 228.239012 416.107556 
" style="fill:none;stroke:#000000;stroke-linecap:round;"/>
    <path clip-path="url(#p214ad41d93)" d="M 231.69447 418.946536 
L 228.239012 416.107556 
L 232.583471 415.046577 
L 231.69447 418.946536 
z
" style="stroke:#000000;stroke-linecap:round;"/>
   </g>
   <g id="patch_8">
    <path clip-path="url(#p214ad41d93)" d="M 551.523408 475.343654 
Q 572.226983 446.882079 592.272874 419.324634 
" style="fill:none;stroke:#000000;stroke-linecap:round;"/>
    <path clip-path="url(#p214ad41d93)" d="M 588.302514 421.382848 
L 592.272874 419.324634 
L 591.537229 423.73585 
L 588.302514 421.382848 
z
" style="stroke:#000000;stroke-linecap:round;"/>
   </g>
   <g id="patch_9">
    <path clip-path="url(#p214ad41d93)" d="M 554.713898 478.468515 
Q 595.394335 447.566424 635.184477 417.340627 
" style="fill:none;stroke:#000000;stroke-linecap:round;"/>
    <path clip-path="url(#p214ad41d93)" d="M 630.789468 418.167605 
L 635.184477 417.340627 
L 633.209054 421.352821 
L 630.789468 418.167605 
z
" style="stroke:#000000;stroke-linecap:round;"/>
   </g>
   <g id="patch_10">
    <path clip-path="url(#p214ad41d93)" d="M 859.472867 452.822511 
Q 821.164074 335.607413 783.202602 219.455032 
" style="fill:none;stroke:#000000;stroke-linecap:round;"/>
    <path clip-path="url(#p214ad41d93)" d="M 782.544174 223.878433 
L 783.202602 219.455032 
L 786.346265 222.635815 
L 782.544174 223.878433 
z
" style="stroke:#000000;stroke-linecap:round;"/>
   </g>
   <g id="patch_11">
    <path clip-path="url(#p214ad41d93)" d="M 379.901254 389.996987 
Q 454.630834 434.920447 528.402193 479.267876 
" style="fill:none;stroke:#000000;stroke-linecap:round;"/>
    <path clip-path="url(#p214ad41d93)" d="M 526.004394 475.492884 
L 528.402193 479.267876 
L 523.94352 478.92112 
L 526.004394 475.492884 
z
" style="stroke:#000000;stroke-linecap:round;"/>
   </g>
   <g id="patch_12">
    <path clip-path="url(#p214ad41d93)" d="M 584.028021 300.434474 
Q 414.665758 309.308241 246.419998 318.123508 
" style="fill:none;stroke:#000000;stroke-linecap:round;"/>
    <path clip-path="url(#p214ad41d93)" d="M 250.519166 319.911474 
L 246.419998 318.123508 
L 250.309872 315.916954 
L 250.519166 319.911474 
z
" style="stroke:#000000;stroke-linecap:round;"/>
   </g>
   <g id="patch_13">
    <path clip-path="url(#p214ad41d93)" d="M 599.328138 296.834047 
Q 718.346613 245.127784 836.339644 193.867015 
" style="fill:none;stroke:#000000;stroke-linecap:round;"/>
    <path clip-path="url(#p214ad41d93)" d="M 831.873981 193.626488 
L 836.339644 193.867015 
L 833.467825 197.295229 
L 831.873981 193.626488 
z
" style="stroke:#000000;stroke-linecap:round;"/>
   </g>
   <g id="patch_14">
    <path clip-path="url(#p214ad41d93)" d="M 591.394229 410.672311 
Q 443.693678 320.058788 296.946112 230.029918 
" style="fill:none;stroke:#000000;stroke-linecap:round;"/>
    <path clip-path="url(#p214ad41d93)" d="M 299.309761 233.826385 
L 296.946112 230.029918 
L 301.401476 230.416879 
L 299.309761 233.826385 
z
" style="stroke:#000000;stroke-linecap:round;"/>
   </g>
   <g id="patch_15">
    <path clip-path="url(#p214ad41d93)" d="M 598.756753 419.012675 
Q 663.831455 562.470086 728.444294 704.90932 
" style="fill:none;stroke:#000000;stroke-linecap:round;"/>
    <path clip-path="url(#p214ad41d93)" d="M 728.613256 700.440377 
L 728.444294 704.90932 
L 724.970516 702.092784 
L 728.613256 700.440377 
z
" style="stroke:#000000;stroke-linecap:round;"/>
   </g>
   <g id="patch_16">
    <path clip-path="url(#p214ad41d93)" d="M 597.973665 408.126467 
Q 628.586608 302.53028 658.888245 198.007913 
" style="fill:none;stroke:#000000;stroke-linecap:round;"/>
    <path clip-path="url(#p214ad41d93)" d="M 655.853575 201.292845 
L 658.888245 198.007913 
L 659.695388 202.406609 
L 655.853575 201.292845 
z
" style="stroke:#000000;stroke-linecap:round;"/>
   </g>
   <g id="patch_17">
    <path clip-path="url(#p214ad41d93)" d="M 601.805468 411.677692 
Q 717.470772 368.458482 832.088767 325.630607 
" style="fill:none;stroke:#000000;stroke-linecap:round;"/>
    <path clip-path="url(#p214ad41d93)" d="M 827.641758 325.157206 
L 832.088767 325.630607 
L 829.04184 328.904174 
L 827.641758 325.157206 
z
" style="stroke:#000000;stroke-linecap:round;"/>
   </g>
   <g id="patch_18">
    <path clip-path="url(#p214ad41d93)" d="M 599.37509 418.683652 
Q 636.830942 480.278746 673.705893 540.918565 
" style="fill:none;stroke:#000000;stroke-linecap:round;"/>
    <path clip-path="url(#p214ad41d93)" d="M 673.336446 536.461715 
L 673.705893 540.918565 
L 669.918745 538.540012 
L 673.336446 536.461715 
z
" style="stroke:#000000;stroke-linecap:round;"/>
   </g>
   <g id="patch_19">
    <path clip-path="url(#p214ad41d93)" d="M 635.166674 405.92692 
Q 465.678855 317.509935 297.182295 229.610061 
" style="fill:none;stroke:#000000;stroke-linecap:round;"/>
    <path clip-path="url(#p214ad41d93)" d="M 299.803695 233.233356 
L 297.182295 229.610061 
L 301.653771 229.686918 
L 299.803695 233.233356 
z
" style="stroke:#000000;stroke-linecap:round;"/>
   </g>
   <g id="patch_20">
    <path clip-path="url(#p214ad41d93)" d="M 646.886801 420.236216 
Q 688.287996 562.937548 729.377667 704.565124 
" style="fill:none;stroke:#000000;stroke-linecap:round;"/>
    <path clip-path="url(#p214ad41d93)" d="M 730.183921 700.166266 
L 729.377667 704.565124 
L 726.342333 701.280806 
L 730.183921 700.166266 
z
" style="stroke:#000000;stroke-linecap:round;"/>
   </g>
   <g id="patch_21">
    <path clip-path="url(#p214ad41d93)" d="M 644.850897 400.547116 
Q 652.613693 298.847234 660.291396 198.262143 
" style="fill:none;stroke:#000000;stroke-linecap:round;"/>
    <path clip-path="url(#p214ad41d93)" d="M 657.992761 202.098323 
L 660.291396 198.262143 
L 661.981159 202.402759 
L 657.992761 202.098323 
z
" style="stroke:#000000;stroke-linecap:round;"/>
   </g>
   <g id="patch_22">
    <path clip-path="url(#p214ad41d93)" d="M 653.258844 406.458278 
Q 743.269497 366.022437 832.260298 326.044747 
" style="fill:none;stroke:#000000;stroke-linecap:round;"/>
    <path clip-path="url(#p214ad41d93)" d="M 827.792 325.859516 
L 832.260298 326.044747 
L 829.431134 329.508247 
L 827.792 325.859516 
z
" style="stroke:#000000;stroke-linecap:round;"/>
   </g>
   <g id="patch_23">
    <path clip-path="url(#p214ad41d93)" d="M 646.468885 420.356042 
Q 661.199878 480.772943 675.666028 540.103631 
" style="fill:none;stroke:#000000;stroke-linecap:round;"/>
    <path clip-path="url(#p214ad41d93)" d="M 676.661573 535.743712 
L 675.666028 540.103631 
L 672.77542 536.691243 
L 676.661573 535.743712 
z
" style="stroke:#000000;stroke-linecap:round;"/>
   </g>
   <g id="patch_24">
    <path clip-path="url(#p214ad41d93)" d="M 624.9347 335.436167 
Q 770.843963 315.928673 915.645053 296.569337 
" style="fill:none;stroke:#000000;stroke-linecap:round;"/>
    <path clip-path="url(#p214ad41d93)" d="M 911.415296 295.117043 
L 915.645053 296.569337 
L 911.945364 299.081766 
L 911.415296 295.117043 
z
" style="stroke:#000000;stroke-linecap:round;"/>
   </g>
   <g id="patch_25">
    <path clip-path="url(#p214ad41d93)" d="M 957.206265 405.620649 
Q 940.764164 353.426666 924.657992 302.299057 
" style="fill:none;stroke:#000000;stroke-linecap:round;"/>
    <path clip-path="url(#p214ad41d93)" d="M 923.952257 306.715157 
L 924.657992 302.299057 
L 927.767431 305.513304 
L 923.952257 306.715157 
z
" style="stroke:#000000;stroke-linecap:round;"/>
   </g>
   <g id="patch_26">
    <path clip-path="url(#p214ad41d93)" d="M 657.704729 196.265353 
Q 626.989945 244.767378 596.873323 292.32484 
" style="fill:none;stroke:#000000;stroke-linecap:round;"/>
    <path clip-path="url(#p214ad41d93)" d="M 600.703062 290.015489 
L 596.873323 292.32484 
L 597.323686 287.875438 
L 600.703062 290.015489 
z
" style="stroke:#000000;stroke-linecap:round;"/>
   </g>
   <g id="patch_27">
    <path clip-path="url(#p214ad41d93)" d="M 832.797476 322.657606 
Q 716.377275 311.711107 601.070199 300.869271 
" style="fill:none;stroke:#000000;stroke-linecap:round;"/>
    <path clip-path="url(#p214ad41d93)" d="M 604.865408 303.234939 
L 601.070199 300.869271 
L 605.239859 299.252505 
L 604.865408 303.234939 
z
" style="stroke:#000000;stroke-linecap:round;"/>
   </g>
   <g id="patch_28">
    <path clip-path="url(#p214ad41d93)" d="M 675.407945 541.342376 
Q 635.010264 424.455755 594.977795 308.625837 
" style="fill:none;stroke:#000000;stroke-linecap:round;"/>
    <path clip-path="url(#p214ad41d93)" d="M 594.394128 313.059721 
L 594.977795 308.625837 
L 598.174703 311.753101 
L 594.394128 313.059721 
z
" style="stroke:#000000;stroke-linecap:round;"/>
   </g>
   <g id="patch_29">
    <path clip-path="url(#p214ad41d93)" d="M 406.742353 480.36821 
Q 496.510168 392.97878 585.476872 306.369235 
" style="fill:none;stroke:#000000;stroke-linecap:round;"/>
    <path clip-path="url(#p214ad41d93)" d="M 581.215629 307.726368 
L 585.476872 306.369235 
L 584.005833 310.592509 
L 581.215629 307.726368 
z
" style="stroke:#000000;stroke-linecap:round;"/>
   </g>
   <g id="patch_30">
    <path clip-path="url(#p214ad41d93)" d="M 459.828607 165.088817 
Q 523.121182 229.700221 585.631381 293.512947 
" style="fill:none;stroke:#000000;stroke-linecap:round;"/>
    <path clip-path="url(#p214ad41d93)" d="M 584.260986 289.25595 
L 585.631381 293.512947 
L 581.403547 292.055064 
L 584.260986 289.25595 
z
" style="stroke:#000000;stroke-linecap:round;"/>
   </g>
   <g id="patch_31">
    <path clip-path="url(#p214ad41d93)" d="M 552.7353 548.109832 
Q 571.744188 428.009735 590.578295 309.013925 
" style="fill:none;stroke:#000000;stroke-linecap:round;"/>
    <path clip-path="url(#p214ad41d93)" d="M 587.977567 312.652086 
L 590.578295 309.013925 
L 591.928387 313.277404 
L 587.977567 312.652086 
z
" style="stroke:#000000;stroke-linecap:round;"/>
   </g>
   <g id="PathCollection_1">
    <path clip-path="url(#p214ad41d93)" d="M 564.787872 167.851463 
C 566.330955 167.851463 567.811044 167.238389 568.902169 166.147265 
C 569.993293 165.056141 570.606366 163.576051 570.606366 162.032968 
C 570.606366 160.489885 569.993293 159.009795 568.902169 157.918671 
C 567.811044 156.827547 566.330955 156.214474 564.787872 156.214474 
C 563.244789 156.214474 561.764699 156.827547 560.673575 157.918671 
C 559.582451 159.009795 558.969377 160.489885 558.969377 162.032968 
C 558.969377 163.576051 559.582451 165.056141 560.673575 166.147265 
C 561.764699 167.238389 563.244789 167.851463 564.787872 167.851463 
z
" style="fill:#afcafc;stroke:#afcafc;"/>
    <path clip-path="url(#p214ad41d93)" d="M 542.502816 503.07801 
C 546.569331 503.07801 550.469839 501.462366 553.345299 498.586906 
C 556.220759 495.711446 557.836403 491.810937 557.836403 487.744423 
C 557.836403 483.677908 556.220759 479.7774 553.345299 476.901939 
C 550.469839 474.026479 546.569331 472.410836 542.502816 472.410836 
C 538.436301 472.410836 534.535793 474.026479 531.660333 476.901939 
C 528.784873 479.7774 527.169229 483.677908 527.169229 487.744423 
C 527.169229 491.810937 528.784873 495.711446 531.660333 498.586906 
C 534.535793 501.462366 538.436301 503.07801 542.502816 503.07801 
z
" style="fill:#b40426;stroke:#b40426;"/>
    <path clip-path="url(#p214ad41d93)" d="M 781.034841 218.682856 
C 782.589095 218.682856 784.079899 218.065345 785.178923 216.966321 
C 786.277946 215.867298 786.895457 214.376494 786.895457 212.82224 
C 786.895457 211.267987 786.277946 209.777182 785.178923 208.678159 
C 784.079899 207.579136 782.589095 206.961625 781.034841 206.961625 
C 779.480588 206.961625 777.989784 207.579136 776.89076 208.678159 
C 775.791737 209.777182 775.174226 211.267987 775.174226 212.82224 
C 775.174226 214.376494 775.791737 215.867298 776.89076 216.966321 
C 777.989784 218.065345 779.480588 218.682856 781.034841 218.682856 
z
" style="fill:#7295f4;stroke:#7295f4;"/>
    <path clip-path="url(#p214ad41d93)" d="M 922.561713 301.505222 
C 924.115966 301.505222 925.606771 300.887711 926.705794 299.788687 
C 927.804817 298.689664 928.422329 297.19886 928.422329 295.644606 
C 928.422329 294.090353 927.804817 292.599548 926.705794 291.500525 
C 925.606771 290.401502 924.115966 289.783991 922.561713 289.783991 
C 921.007459 289.783991 919.516655 290.401502 918.417632 291.500525 
C 917.318609 292.599548 916.701097 294.090353 916.701097 295.644606 
C 916.701097 297.19886 917.318609 298.689664 918.417632 299.788687 
C 919.516655 300.887711 921.007459 301.505222 922.561713 301.505222 
z
" style="fill:#b40426;stroke:#b40426;"/>
    <path clip-path="url(#p214ad41d93)" d="M 861.664039 466.578165 
C 863.534047 466.578165 865.327717 465.835203 866.650012 464.512907 
C 867.972308 463.190612 868.71527 461.396942 868.71527 459.526934 
C 868.71527 457.656925 867.972308 455.863256 866.650012 454.54096 
C 865.327717 453.218664 863.534047 452.475702 861.664039 452.475702 
C 859.79403 452.475702 858.000361 453.218664 856.678065 454.54096 
C 855.355769 455.863256 854.612807 457.656925 854.612807 459.526934 
C 854.612807 461.396942 855.355769 463.190612 856.678065 464.512907 
C 858.000361 465.835203 859.79403 466.578165 861.664039 466.578165 
z
" style="fill:#b40426;stroke:#b40426;"/>
    <path clip-path="url(#p214ad41d93)" d="M 238.812839 526.659837 
C 240.355922 526.659837 241.836012 526.046764 242.927136 524.955639 
C 244.018261 523.864515 244.631334 522.384425 244.631334 520.841342 
C 244.631334 519.29826 244.018261 517.81817 242.927136 516.727045 
C 241.836012 515.635921 240.355922 515.022848 238.812839 515.022848 
C 237.269757 515.022848 235.789667 515.635921 234.698542 516.727045 
C 233.607418 517.81817 232.994345 519.29826 232.994345 520.841342 
C 232.994345 522.384425 233.607418 523.864515 234.698542 524.955639 
C 235.789667 526.046764 237.269757 526.659837 238.812839 526.659837 
z
" style="fill:#96b7ff;stroke:#96b7ff;"/>
    <path clip-path="url(#p214ad41d93)" d="M 400.767839 670.985937 
C 402.310921 670.985937 403.791011 670.372864 404.882135 669.281739 
C 405.97326 668.190615 406.586333 666.710525 406.586333 665.167442 
C 406.586333 663.62436 405.97326 662.14427 404.882135 661.053145 
C 403.791011 659.962021 402.310921 659.348948 400.767839 659.348948 
C 399.224756 659.348948 397.744666 659.962021 396.653542 661.053145 
C 395.562417 662.14427 394.949344 663.62436 394.949344 665.167442 
C 394.949344 666.710525 395.562417 668.190615 396.653542 669.281739 
C 397.744666 670.372864 399.224756 670.985937 400.767839 670.985937 
z
" style="fill:#e36c55;stroke:#e36c55;"/>
    <path clip-path="url(#p214ad41d93)" d="M 731.311049 717.047585 
C 732.854132 717.047585 734.334221 716.434512 735.425346 715.343388 
C 736.51647 714.252264 737.129543 712.772174 737.129543 711.229091 
C 737.129543 709.686008 736.51647 708.205918 735.425346 707.114794 
C 734.334221 706.02367 732.854132 705.410596 731.311049 705.410596 
C 729.767966 705.410596 728.287876 706.02367 727.196752 707.114794 
C 726.105628 708.205918 725.492554 709.686008 725.492554 711.229091 
C 725.492554 712.772174 726.105628 714.252264 727.196752 715.343388 
C 728.287876 716.434512 729.767966 717.047585 731.311049 717.047585 
z
" style="fill:#b40426;stroke:#b40426;"/>
    <path clip-path="url(#p214ad41d93)" d="M 221.47438 420.384043 
C 223.017463 420.384043 224.497553 419.77097 225.588677 418.679845 
C 226.679801 417.588721 227.292875 416.108631 227.292875 414.565548 
C 227.292875 413.022466 226.679801 411.542376 225.588677 410.451251 
C 224.497553 409.360127 223.017463 408.747054 221.47438 408.747054 
C 219.931297 408.747054 218.451208 409.360127 217.360083 410.451251 
C 216.268959 411.542376 215.655886 413.022466 215.655886 414.565548 
C 215.655886 416.108631 216.268959 417.588721 217.360083 418.679845 
C 218.451208 419.77097 219.931297 420.384043 221.47438 420.384043 
z
" style="fill:#b40426;stroke:#b40426;"/>
    <path clip-path="url(#p214ad41d93)" d="M 951.326623 528.41733 
C 952.869706 528.41733 954.349796 527.804257 955.44092 526.713132 
C 956.532044 525.622008 957.145118 524.141918 957.145118 522.598835 
C 957.145118 521.055753 956.532044 519.575663 955.44092 518.484538 
C 954.349796 517.393414 952.869706 516.780341 951.326623 516.780341 
C 949.78354 516.780341 948.30345 517.393414 947.212326 518.484538 
C 946.121202 519.575663 945.508129 521.055753 945.508129 522.598835 
C 945.508129 524.141918 946.121202 525.622008 947.212326 526.713132 
C 948.30345 527.804257 949.78354 528.41733 951.326623 528.41733 
z
" style="fill:#b40426;stroke:#b40426;"/>
    <path clip-path="url(#p214ad41d93)" d="M 366.351796 397.663159 
C 370.545025 397.663159 374.567075 395.997172 377.532135 393.032111 
C 380.497196 390.06705 382.163184 386.045 382.163184 381.851771 
C 382.163184 377.658542 380.497196 373.636492 377.532135 370.671431 
C 374.567075 367.706371 370.545025 366.040383 366.351796 366.040383 
C 362.158566 366.040383 358.136516 367.706371 355.171456 370.671431 
C 352.206395 373.636492 350.540407 377.658542 350.540407 381.851771 
C 350.540407 386.045 352.206395 390.06705 355.171456 393.032111 
C 358.136516 395.997172 362.158566 397.663159 366.351796 397.663159 
z
" style="fill:#cf453c;stroke:#cf453c;"/>
    <path clip-path="url(#p214ad41d93)" d="M 592.00234 308.004248 
C 594.120674 308.004248 596.152531 307.162625 597.650419 305.664737 
C 599.148307 304.166849 599.98993 302.134992 599.98993 300.016658 
C 599.98993 297.898325 599.148307 295.866468 597.650419 294.36858 
C 596.152531 292.870692 594.120674 292.029069 592.00234 292.029069 
C 589.884007 292.029069 587.85215 292.870692 586.354262 294.36858 
C 584.856374 295.866468 584.014751 297.898325 584.014751 300.016658 
C 584.014751 302.134992 584.856374 304.166849 586.354262 305.664737 
C 587.85215 307.162625 589.884007 308.004248 592.00234 308.004248 
z
" style="fill:#b40426;stroke:#b40426;"/>
    <path clip-path="url(#p214ad41d93)" d="M 291.031849 232.220042 
C 292.574932 232.220042 294.055022 231.606969 295.146146 230.515845 
C 296.23727 229.42472 296.850344 227.944631 296.850344 226.401548 
C 296.850344 224.858465 296.23727 223.378375 295.146146 222.287251 
C 294.055022 221.196127 292.574932 220.583053 291.031849 220.583053 
C 289.488766 220.583053 288.008677 221.196127 286.917552 222.287251 
C 285.826428 223.378375 285.213355 224.858465 285.213355 226.401548 
C 285.213355 227.944631 285.826428 229.42472 286.917552 230.515845 
C 288.008677 231.606969 289.488766 232.220042 291.031849 232.220042 
z
" style="fill:#b40426;stroke:#b40426;"/>
    <path clip-path="url(#p214ad41d93)" d="M 596.353564 419.533332 
C 597.896647 419.533332 599.376737 418.920258 600.467861 417.829134 
C 601.558985 416.73801 602.172059 415.25792 602.172059 413.714837 
C 602.172059 412.171754 601.558985 410.691664 600.467861 409.60054 
C 599.376737 408.509416 597.896647 407.896343 596.353564 407.896343 
C 594.810481 407.896343 593.330392 408.509416 592.239267 409.60054 
C 591.148143 410.691664 590.53507 412.171754 590.53507 413.714837 
C 590.53507 415.25792 591.148143 416.73801 592.239267 417.829134 
C 593.330392 418.920258 594.810481 419.533332 596.353564 419.533332 
z
" style="fill:#b6cefa;stroke:#b6cefa;"/>
    <path clip-path="url(#p214ad41d93)" d="M 644.085127 420.638691 
C 646.752875 420.638691 649.311719 419.578783 651.198102 417.6924 
C 653.084486 415.806016 654.144393 413.247172 654.144393 410.579424 
C 654.144393 407.911675 653.084486 405.352831 651.198102 403.466448 
C 649.311719 401.580065 646.752875 400.520157 644.085127 400.520157 
C 641.417378 400.520157 638.858534 401.580065 636.972151 403.466448 
C 635.085768 405.352831 634.02586 407.911675 634.02586 410.579424 
C 634.02586 413.247172 635.085768 415.806016 636.972151 417.6924 
C 638.858534 419.578783 641.417378 420.638691 644.085127 420.638691 
z
" style="fill:#a1c0ff;stroke:#a1c0ff;"/>
    <path clip-path="url(#p214ad41d93)" d="M 619.980637 341.098506 
C 621.306652 341.098506 622.578536 340.571674 623.516171 339.63404 
C 624.453805 338.696405 624.980637 337.424522 624.980637 336.098506 
C 624.980637 334.772491 624.453805 333.500607 623.516171 332.562972 
C 622.578536 331.625338 621.306652 331.098506 619.980637 331.098506 
C 618.654621 331.098506 617.382737 331.625338 616.445103 332.562972 
C 615.507468 333.500607 614.980637 334.772491 614.980637 336.098506 
C 614.980637 337.424522 615.507468 338.696405 616.445103 339.63404 
C 617.382737 340.571674 618.654621 341.098506 619.980637 341.098506 
z
" style="fill:#d9dce1;stroke:#d9dce1;"/>
    <path clip-path="url(#p214ad41d93)" d="M 959.32562 419.399584 
C 961.195628 419.399584 962.989298 418.656622 964.311594 417.334326 
C 965.633889 416.01203 966.376852 414.218361 966.376852 412.348352 
C 966.376852 410.478344 965.633889 408.684674 964.311594 407.362379 
C 962.989298 406.040083 961.195628 405.297121 959.32562 405.297121 
C 957.455611 405.297121 955.661942 406.040083 954.339646 407.362379 
C 953.01735 408.684674 952.274388 410.478344 952.274388 412.348352 
C 952.274388 414.218361 953.01735 416.01203 954.339646 417.334326 
C 955.661942 418.656622 957.455611 419.399584 959.32562 419.399584 
z
" style="fill:#b40426;stroke:#b40426;"/>
    <path clip-path="url(#p214ad41d93)" d="M 660.819213 197.165734 
C 662.362296 197.165734 663.842386 196.55266 664.93351 195.461536 
C 666.024634 194.370412 666.637708 192.890322 666.637708 191.347239 
C 666.637708 189.804156 666.024634 188.324066 664.93351 187.232942 
C 663.842386 186.141818 662.362296 185.528745 660.819213 185.528745 
C 659.27613 185.528745 657.796041 186.141818 656.704916 187.232942 
C 655.613792 188.324066 655.000719 189.804156 655.000719 191.347239 
C 655.000719 192.890322 655.613792 194.370412 656.704916 195.461536 
C 657.796041 196.55266 659.27613 197.165734 660.819213 197.165734 
z
" style="fill:#f3c7b1;stroke:#f3c7b1;"/>
    <path clip-path="url(#p214ad41d93)" d="M 838.588118 329.02057 
C 840.131201 329.02057 841.611291 328.407497 842.702415 327.316372 
C 843.793539 326.225248 844.406613 324.745158 844.406613 323.202075 
C 844.406613 321.658993 843.793539 320.178903 842.702415 319.087779 
C 841.611291 317.996654 840.131201 317.383581 838.588118 317.383581 
C 837.045035 317.383581 835.564945 317.996654 834.473821 319.087779 
C 833.382697 320.178903 832.769624 321.658993 832.769624 323.202075 
C 832.769624 324.745158 833.382697 326.225248 834.473821 327.316372 
C 835.564945 328.407497 837.045035 329.02057 838.588118 329.02057 
z
" style="fill:#b40426;stroke:#b40426;"/>
    <path clip-path="url(#p214ad41d93)" d="M 677.30971 552.663435 
C 678.852793 552.663435 680.332883 552.050362 681.424007 550.959238 
C 682.515131 549.868114 683.128205 548.388024 683.128205 546.844941 
C 683.128205 545.301858 682.515131 543.821768 681.424007 542.730644 
C 680.332883 541.63952 678.852793 541.026446 677.30971 541.026446 
C 675.766627 541.026446 674.286538 541.63952 673.195413 542.730644 
C 672.104289 543.821768 671.491216 545.301858 671.491216 546.844941 
C 671.491216 548.388024 672.104289 549.868114 673.195413 550.959238 
C 674.286538 552.050362 675.766627 552.663435 677.30971 552.663435 
z
" style="fill:#ccd9ed;stroke:#ccd9ed;"/>
    <path clip-path="url(#p214ad41d93)" d="M 239.486305 324.310576 
C 241.030789 324.310576 242.512222 323.696946 243.604337 322.604831 
C 244.696452 321.512717 245.310081 320.031283 245.310081 318.4868 
C 245.310081 316.942316 244.696452 315.460883 243.604337 314.368768 
C 242.512222 313.276653 241.030789 312.663023 239.486305 312.663023 
C 237.941822 312.663023 236.460388 313.276653 235.368273 314.368768 
C 234.276159 315.460883 233.662529 316.942316 233.662529 318.4868 
C 233.662529 320.031283 234.276159 321.512717 235.368273 322.604831 
C 236.460388 323.696946 237.941822 324.310576 239.486305 324.310576 
z
" style="fill:#b40426;stroke:#b40426;"/>
    <path clip-path="url(#p214ad41d93)" d="M 842.709101 196.923651 
C 844.253584 196.923651 845.735018 196.310021 846.827132 195.217906 
C 847.919247 194.125791 848.532877 192.644358 848.532877 191.099874 
C 848.532877 189.555391 847.919247 188.073957 846.827132 186.981843 
C 845.735018 185.889728 844.253584 185.276098 842.709101 185.276098 
C 841.164617 185.276098 839.683184 185.889728 838.591069 186.981843 
C 837.498954 188.073957 836.885324 189.555391 836.885324 191.099874 
C 836.885324 192.644358 837.498954 194.125791 838.591069 195.217906 
C 839.683184 196.310021 841.164617 196.923651 842.709101 196.923651 
z
" style="fill:#e7d7ce;stroke:#e7d7ce;"/>
    <path clip-path="url(#p214ad41d93)" d="M 402.54182 490.318066 
C 404.096073 490.318066 405.586878 489.700555 406.685901 488.601532 
C 407.784924 487.502508 408.402436 486.011704 408.402436 484.45745 
C 408.402436 482.903197 407.784924 481.412393 406.685901 480.313369 
C 405.586878 479.214346 404.096073 478.596835 402.54182 478.596835 
C 400.987567 478.596835 399.496762 479.214346 398.397739 480.313369 
C 397.298716 481.412393 396.681204 482.903197 396.681204 484.45745 
C 396.681204 486.011704 397.298716 487.502508 398.397739 488.601532 
C 399.496762 489.700555 400.987567 490.318066 402.54182 490.318066 
z
" style="fill:#b40426;stroke:#b40426;"/>
    <path clip-path="url(#p214ad41d93)" d="M 456.225771 166.562346 
C 457.591948 166.562346 458.902354 166.019558 459.868387 165.053525 
C 460.83442 164.087492 461.377208 162.777086 461.377208 161.410909 
C 461.377208 160.044732 460.83442 158.734326 459.868387 157.768293 
C 458.902354 156.80226 457.591948 156.259472 456.225771 156.259472 
C 454.859594 156.259472 453.549188 156.80226 452.583155 157.768293 
C 451.617122 158.734326 451.074334 160.044732 451.074334 161.410909 
C 451.074334 162.777086 451.617122 164.087492 452.583155 165.053525 
C 453.549188 166.019558 454.859594 166.562346 456.225771 166.562346 
z
" style="fill:#3b4cc0;stroke:#3b4cc0;"/>
    <path clip-path="url(#p214ad41d93)" d="M 551.829925 559.622097 
C 553.365985 559.622097 554.839338 559.011814 555.925497 557.925656 
C 557.011655 556.839498 557.621938 555.366144 557.621938 553.830084 
C 557.621938 552.294024 557.011655 550.820671 555.925497 549.734512 
C 554.839338 548.648354 553.365985 548.038071 551.829925 548.038071 
C 550.293865 548.038071 548.820511 548.648354 547.734353 549.734512 
C 546.648195 550.820671 546.037912 552.294024 546.037912 553.830084 
C 546.037912 555.366144 546.648195 556.839498 547.734353 557.925656 
C 548.820511 559.011814 550.293865 559.622097 551.829925 559.622097 
z
" style="fill:#d24b40;stroke:#d24b40;"/>
   </g>
   <g id="text_1">
    <g clip-path="url(#p214ad41d93)">
     <!-- CDC42 -->
     <g transform="translate(547.592559 164.792343)scale(0.1 -0.1)">
      <defs>
       <path d="M 64.40625 67.28125 
L 64.40625 56.890625 
Q 59.421875 61.53125 53.78125 63.8125 
Q 48.140625 66.109375 41.796875 66.109375 
Q 29.296875 66.109375 22.65625 58.46875 
Q 16.015625 50.828125 16.015625 36.375 
Q 16.015625 21.96875 22.65625 14.328125 
Q 29.296875 6.6875 41.796875 6.6875 
Q 48.140625 6.6875 53.78125 8.984375 
Q 59.421875 11.28125 64.40625 15.921875 
L 64.40625 5.609375 
Q 59.234375 2.09375 53.4375 0.328125 
Q 47.65625 -1.421875 41.21875 -1.421875 
Q 24.65625 -1.421875 15.125 8.703125 
Q 5.609375 18.84375 5.609375 36.375 
Q 5.609375 53.953125 15.125 64.078125 
Q 24.65625 74.21875 41.21875 74.21875 
Q 47.75 74.21875 53.53125 72.484375 
Q 59.328125 70.75 64.40625 67.28125 
z
" id="DejaVuSans-67"/>
       <path d="M 19.671875 64.796875 
L 19.671875 8.109375 
L 31.59375 8.109375 
Q 46.6875 8.109375 53.6875 14.9375 
Q 60.6875 21.78125 60.6875 36.53125 
Q 60.6875 51.171875 53.6875 57.984375 
Q 46.6875 64.796875 31.59375 64.796875 
z
M 9.8125 72.90625 
L 30.078125 72.90625 
Q 51.265625 72.90625 61.171875 64.09375 
Q 71.09375 55.28125 71.09375 36.53125 
Q 71.09375 17.671875 61.125 8.828125 
Q 51.171875 0 30.078125 0 
L 9.8125 0 
z
" id="DejaVuSans-68"/>
       <path d="M 37.796875 64.3125 
L 12.890625 25.390625 
L 37.796875 25.390625 
z
M 35.203125 72.90625 
L 47.609375 72.90625 
L 47.609375 25.390625 
L 58.015625 25.390625 
L 58.015625 17.1875 
L 47.609375 17.1875 
L 47.609375 0 
L 37.796875 0 
L 37.796875 17.1875 
L 4.890625 17.1875 
L 4.890625 26.703125 
z
" id="DejaVuSans-52"/>
       <path d="M 19.1875 8.296875 
L 53.609375 8.296875 
L 53.609375 0 
L 7.328125 0 
L 7.328125 8.296875 
Q 12.9375 14.109375 22.625 23.890625 
Q 32.328125 33.6875 34.8125 36.53125 
Q 39.546875 41.84375 41.421875 45.53125 
Q 43.3125 49.21875 43.3125 52.78125 
Q 43.3125 58.59375 39.234375 62.25 
Q 35.15625 65.921875 28.609375 65.921875 
Q 23.96875 65.921875 18.8125 64.3125 
Q 13.671875 62.703125 7.8125 59.421875 
L 7.8125 69.390625 
Q 13.765625 71.78125 18.9375 73 
Q 24.125 74.21875 28.421875 74.21875 
Q 39.75 74.21875 46.484375 68.546875 
Q 53.21875 62.890625 53.21875 53.421875 
Q 53.21875 48.921875 51.53125 44.890625 
Q 49.859375 40.875 45.40625 35.40625 
Q 44.1875 33.984375 37.640625 27.21875 
Q 31.109375 20.453125 19.1875 8.296875 
z
" id="DejaVuSans-50"/>
      </defs>
      <use xlink:href="#DejaVuSans-67"/>
      <use x="69.824219" xlink:href="#DejaVuSans-68"/>
      <use x="146.826172" xlink:href="#DejaVuSans-67"/>
      <use x="216.650391" xlink:href="#DejaVuSans-52"/>
      <use x="280.273438" xlink:href="#DejaVuSans-50"/>
     </g>
    </g>
   </g>
   <g id="text_2">
    <g clip-path="url(#p214ad41d93)">
     <!-- KDR -->
     <g transform="translate(531.899691 490.503798)scale(0.1 -0.1)">
      <defs>
       <path d="M 9.8125 72.90625 
L 19.671875 72.90625 
L 19.671875 42.09375 
L 52.390625 72.90625 
L 65.09375 72.90625 
L 28.90625 38.921875 
L 67.671875 0 
L 54.6875 0 
L 19.671875 35.109375 
L 19.671875 0 
L 9.8125 0 
z
" id="DejaVuSans-75"/>
       <path d="M 44.390625 34.1875 
Q 47.5625 33.109375 50.5625 29.59375 
Q 53.5625 26.078125 56.59375 19.921875 
L 66.609375 0 
L 56 0 
L 46.6875 18.703125 
Q 43.0625 26.03125 39.671875 28.421875 
Q 36.28125 30.8125 30.421875 30.8125 
L 19.671875 30.8125 
L 19.671875 0 
L 9.8125 0 
L 9.8125 72.90625 
L 32.078125 72.90625 
Q 44.578125 72.90625 50.734375 67.671875 
Q 56.890625 62.453125 56.890625 51.90625 
Q 56.890625 45.015625 53.6875 40.46875 
Q 50.484375 35.9375 44.390625 34.1875 
z
M 19.671875 64.796875 
L 19.671875 38.921875 
L 32.078125 38.921875 
Q 39.203125 38.921875 42.84375 42.21875 
Q 46.484375 45.515625 46.484375 51.90625 
Q 46.484375 58.296875 42.84375 61.546875 
Q 39.203125 64.796875 32.078125 64.796875 
z
" id="DejaVuSans-82"/>
      </defs>
      <use xlink:href="#DejaVuSans-75"/>
      <use x="65.576172" xlink:href="#DejaVuSans-68"/>
      <use x="142.578125" xlink:href="#DejaVuSans-82"/>
     </g>
    </g>
   </g>
   <g id="text_3">
    <g clip-path="url(#p214ad41d93)">
     <!-- PTGS2 -->
     <g transform="translate(764.736404 215.581615)scale(0.1 -0.1)">
      <defs>
       <path d="M 19.671875 64.796875 
L 19.671875 37.40625 
L 32.078125 37.40625 
Q 38.96875 37.40625 42.71875 40.96875 
Q 46.484375 44.53125 46.484375 51.125 
Q 46.484375 57.671875 42.71875 61.234375 
Q 38.96875 64.796875 32.078125 64.796875 
z
M 9.8125 72.90625 
L 32.078125 72.90625 
Q 44.34375 72.90625 50.609375 67.359375 
Q 56.890625 61.8125 56.890625 51.125 
Q 56.890625 40.328125 50.609375 34.8125 
Q 44.34375 29.296875 32.078125 29.296875 
L 19.671875 29.296875 
L 19.671875 0 
L 9.8125 0 
z
" id="DejaVuSans-80"/>
       <path d="M -0.296875 72.90625 
L 61.375 72.90625 
L 61.375 64.59375 
L 35.5 64.59375 
L 35.5 0 
L 25.59375 0 
L 25.59375 64.59375 
L -0.296875 64.59375 
z
" id="DejaVuSans-84"/>
       <path d="M 59.515625 10.40625 
L 59.515625 29.984375 
L 43.40625 29.984375 
L 43.40625 38.09375 
L 69.28125 38.09375 
L 69.28125 6.78125 
Q 63.578125 2.734375 56.6875 0.65625 
Q 49.8125 -1.421875 42 -1.421875 
Q 24.90625 -1.421875 15.25 8.5625 
Q 5.609375 18.5625 5.609375 36.375 
Q 5.609375 54.25 15.25 64.234375 
Q 24.90625 74.21875 42 74.21875 
Q 49.125 74.21875 55.546875 72.453125 
Q 61.96875 70.703125 67.390625 67.28125 
L 67.390625 56.78125 
Q 61.921875 61.421875 55.765625 63.765625 
Q 49.609375 66.109375 42.828125 66.109375 
Q 29.4375 66.109375 22.71875 58.640625 
Q 16.015625 51.171875 16.015625 36.375 
Q 16.015625 21.625 22.71875 14.15625 
Q 29.4375 6.6875 42.828125 6.6875 
Q 48.046875 6.6875 52.140625 7.59375 
Q 56.25 8.5 59.515625 10.40625 
z
" id="DejaVuSans-71"/>
       <path d="M 53.515625 70.515625 
L 53.515625 60.890625 
Q 47.90625 63.578125 42.921875 64.890625 
Q 37.9375 66.21875 33.296875 66.21875 
Q 25.25 66.21875 20.875 63.09375 
Q 16.5 59.96875 16.5 54.203125 
Q 16.5 49.359375 19.40625 46.890625 
Q 22.3125 44.4375 30.421875 42.921875 
L 36.375 41.703125 
Q 47.40625 39.59375 52.65625 34.296875 
Q 57.90625 29 57.90625 20.125 
Q 57.90625 9.515625 50.796875 4.046875 
Q 43.703125 -1.421875 29.984375 -1.421875 
Q 24.8125 -1.421875 18.96875 -0.25 
Q 13.140625 0.921875 6.890625 3.21875 
L 6.890625 13.375 
Q 12.890625 10.015625 18.65625 8.296875 
Q 24.421875 6.59375 29.984375 6.59375 
Q 38.421875 6.59375 43.015625 9.90625 
Q 47.609375 13.234375 47.609375 19.390625 
Q 47.609375 24.75 44.3125 27.78125 
Q 41.015625 30.8125 33.5 32.328125 
L 27.484375 33.5 
Q 16.453125 35.6875 11.515625 40.375 
Q 6.59375 45.0625 6.59375 53.421875 
Q 6.59375 63.09375 13.40625 68.65625 
Q 20.21875 74.21875 32.171875 74.21875 
Q 37.3125 74.21875 42.625 73.28125 
Q 47.953125 72.359375 53.515625 70.515625 
z
" id="DejaVuSans-83"/>
      </defs>
      <use xlink:href="#DejaVuSans-80"/>
      <use x="60.302734" xlink:href="#DejaVuSans-84"/>
      <use x="121.386719" xlink:href="#DejaVuSans-71"/>
      <use x="198.876953" xlink:href="#DejaVuSans-83"/>
      <use x="262.353516" xlink:href="#DejaVuSans-50"/>
     </g>
    </g>
   </g>
   <g id="text_4">
    <g clip-path="url(#p214ad41d93)">
     <!-- HSPB1 -->
     <g transform="translate(906.000775 298.403981)scale(0.1 -0.1)">
      <defs>
       <path d="M 9.8125 72.90625 
L 19.671875 72.90625 
L 19.671875 43.015625 
L 55.515625 43.015625 
L 55.515625 72.90625 
L 65.375 72.90625 
L 65.375 0 
L 55.515625 0 
L 55.515625 34.71875 
L 19.671875 34.71875 
L 19.671875 0 
L 9.8125 0 
z
" id="DejaVuSans-72"/>
       <path d="M 19.671875 34.8125 
L 19.671875 8.109375 
L 35.5 8.109375 
Q 43.453125 8.109375 47.28125 11.40625 
Q 51.125 14.703125 51.125 21.484375 
Q 51.125 28.328125 47.28125 31.5625 
Q 43.453125 34.8125 35.5 34.8125 
z
M 19.671875 64.796875 
L 19.671875 42.828125 
L 34.28125 42.828125 
Q 41.5 42.828125 45.03125 45.53125 
Q 48.578125 48.25 48.578125 53.8125 
Q 48.578125 59.328125 45.03125 62.0625 
Q 41.5 64.796875 34.28125 64.796875 
z
M 9.8125 72.90625 
L 35.015625 72.90625 
Q 46.296875 72.90625 52.390625 68.21875 
Q 58.5 63.53125 58.5 54.890625 
Q 58.5 48.1875 55.375 44.234375 
Q 52.25 40.28125 46.1875 39.3125 
Q 53.46875 37.75 57.5 32.78125 
Q 61.53125 27.828125 61.53125 20.40625 
Q 61.53125 10.640625 54.890625 5.3125 
Q 48.25 0 35.984375 0 
L 9.8125 0 
z
" id="DejaVuSans-66"/>
       <path d="M 12.40625 8.296875 
L 28.515625 8.296875 
L 28.515625 63.921875 
L 10.984375 60.40625 
L 10.984375 69.390625 
L 28.421875 72.90625 
L 38.28125 72.90625 
L 38.28125 8.296875 
L 54.390625 8.296875 
L 54.390625 0 
L 12.40625 0 
z
" id="DejaVuSans-49"/>
      </defs>
      <use xlink:href="#DejaVuSans-72"/>
      <use x="75.195312" xlink:href="#DejaVuSans-83"/>
      <use x="138.671875" xlink:href="#DejaVuSans-80"/>
      <use x="198.974609" xlink:href="#DejaVuSans-66"/>
      <use x="267.578125" xlink:href="#DejaVuSans-49"/>
     </g>
    </g>
   </g>
   <g id="text_5">
    <g clip-path="url(#p214ad41d93)">
     <!-- NFATC2 -->
     <g transform="translate(843.038257 462.286309)scale(0.1 -0.1)">
      <defs>
       <path d="M 9.8125 72.90625 
L 23.09375 72.90625 
L 55.421875 11.921875 
L 55.421875 72.90625 
L 64.984375 72.90625 
L 64.984375 0 
L 51.703125 0 
L 19.390625 60.984375 
L 19.390625 0 
L 9.8125 0 
z
" id="DejaVuSans-78"/>
       <path d="M 9.8125 72.90625 
L 51.703125 72.90625 
L 51.703125 64.59375 
L 19.671875 64.59375 
L 19.671875 43.109375 
L 48.578125 43.109375 
L 48.578125 34.8125 
L 19.671875 34.8125 
L 19.671875 0 
L 9.8125 0 
z
" id="DejaVuSans-70"/>
       <path d="M 34.1875 63.1875 
L 20.796875 26.90625 
L 47.609375 26.90625 
z
M 28.609375 72.90625 
L 39.796875 72.90625 
L 67.578125 0 
L 57.328125 0 
L 50.6875 18.703125 
L 17.828125 18.703125 
L 11.1875 0 
L 0.78125 0 
z
" id="DejaVuSans-65"/>
      </defs>
      <use xlink:href="#DejaVuSans-78"/>
      <use x="74.804688" xlink:href="#DejaVuSans-70"/>
      <use x="123.199219" xlink:href="#DejaVuSans-65"/>
      <use x="183.857422" xlink:href="#DejaVuSans-84"/>
      <use x="239.066406" xlink:href="#DejaVuSans-67"/>
      <use x="308.890625" xlink:href="#DejaVuSans-50"/>
     </g>
    </g>
   </g>
   <g id="text_6">
    <g clip-path="url(#p214ad41d93)">
     <!-- PTK2 -->
     <g transform="translate(226.283933 523.600717)scale(0.1 -0.1)">
      <use xlink:href="#DejaVuSans-80"/>
      <use x="60.302734" xlink:href="#DejaVuSans-84"/>
      <use x="121.386719" xlink:href="#DejaVuSans-75"/>
      <use x="186.962891" xlink:href="#DejaVuSans-50"/>
     </g>
    </g>
   </g>
   <g id="text_7">
    <g clip-path="url(#p214ad41d93)">
     <!-- PXN -->
     <g transform="translate(390.58737 667.926817)scale(0.1 -0.1)">
      <defs>
       <path d="M 6.296875 72.90625 
L 16.890625 72.90625 
L 35.015625 45.796875 
L 53.21875 72.90625 
L 63.8125 72.90625 
L 40.375 37.890625 
L 65.375 0 
L 54.78125 0 
L 34.28125 31 
L 13.625 0 
L 2.984375 0 
L 29 38.921875 
z
" id="DejaVuSans-88"/>
      </defs>
      <use xlink:href="#DejaVuSans-80"/>
      <use x="60.302734" xlink:href="#DejaVuSans-88"/>
      <use x="128.808594" xlink:href="#DejaVuSans-78"/>
     </g>
    </g>
   </g>
   <g id="text_8">
    <g clip-path="url(#p214ad41d93)">
     <!-- SH2D2A -->
     <g transform="translate(710.743861 713.988466)scale(0.1 -0.1)">
      <use xlink:href="#DejaVuSans-83"/>
      <use x="63.476562" xlink:href="#DejaVuSans-72"/>
      <use x="138.671875" xlink:href="#DejaVuSans-50"/>
      <use x="202.294922" xlink:href="#DejaVuSans-68"/>
      <use x="279.296875" xlink:href="#DejaVuSans-50"/>
      <use x="342.919922" xlink:href="#DejaVuSans-65"/>
     </g>
    </g>
   </g>
   <g id="text_9">
    <g clip-path="url(#p214ad41d93)">
     <!-- SRC -->
     <g transform="translate(211.584536 417.324923)scale(0.1 -0.1)">
      <use xlink:href="#DejaVuSans-83"/>
      <use x="63.476562" xlink:href="#DejaVuSans-82"/>
      <use x="127.958984" xlink:href="#DejaVuSans-67"/>
     </g>
    </g>
   </g>
   <g id="text_10">
    <g clip-path="url(#p214ad41d93)">
     <!-- SHC2 -->
     <g transform="translate(937.719592 525.35821)scale(0.1 -0.1)">
      <use xlink:href="#DejaVuSans-83"/>
      <use x="63.476562" xlink:href="#DejaVuSans-72"/>
      <use x="138.671875" xlink:href="#DejaVuSans-67"/>
      <use x="208.496094" xlink:href="#DejaVuSans-50"/>
     </g>
    </g>
   </g>
   <g id="text_11">
    <g clip-path="url(#p214ad41d93)">
     <!-- VEGFA -->
     <g transform="translate(350.058046 384.611146)scale(0.1 -0.1)">
      <defs>
       <path d="M 28.609375 0 
L 0.78125 72.90625 
L 11.078125 72.90625 
L 34.1875 11.53125 
L 57.328125 72.90625 
L 67.578125 72.90625 
L 39.796875 0 
z
" id="DejaVuSans-86"/>
       <path d="M 9.8125 72.90625 
L 55.90625 72.90625 
L 55.90625 64.59375 
L 19.671875 64.59375 
L 19.671875 43.015625 
L 54.390625 43.015625 
L 54.390625 34.71875 
L 19.671875 34.71875 
L 19.671875 8.296875 
L 56.78125 8.296875 
L 56.78125 0 
L 9.8125 0 
z
" id="DejaVuSans-69"/>
      </defs>
      <use xlink:href="#DejaVuSans-86"/>
      <use x="68.408203" xlink:href="#DejaVuSans-69"/>
      <use x="131.591797" xlink:href="#DejaVuSans-71"/>
      <use x="209.082031" xlink:href="#DejaVuSans-70"/>
      <use x="257.476562" xlink:href="#DejaVuSans-65"/>
     </g>
    </g>
   </g>
   <g id="text_12">
    <g clip-path="url(#p214ad41d93)">
     <!-- RAF1 -->
     <g transform="translate(579.250778 302.776033)scale(0.1 -0.1)">
      <use xlink:href="#DejaVuSans-82"/>
      <use x="65.482422" xlink:href="#DejaVuSans-65"/>
      <use x="133.890625" xlink:href="#DejaVuSans-70"/>
      <use x="191.410156" xlink:href="#DejaVuSans-49"/>
     </g>
    </g>
   </g>
   <g id="text_13">
    <g clip-path="url(#p214ad41d93)">
     <!-- NOS3 -->
     <g transform="translate(276.999818 229.160923)scale(0.1 -0.1)">
      <defs>
       <path d="M 39.40625 66.21875 
Q 28.65625 66.21875 22.328125 58.203125 
Q 16.015625 50.203125 16.015625 36.375 
Q 16.015625 22.609375 22.328125 14.59375 
Q 28.65625 6.59375 39.40625 6.59375 
Q 50.140625 6.59375 56.421875 14.59375 
Q 62.703125 22.609375 62.703125 36.375 
Q 62.703125 50.203125 56.421875 58.203125 
Q 50.140625 66.21875 39.40625 66.21875 
z
M 39.40625 74.21875 
Q 54.734375 74.21875 63.90625 63.9375 
Q 73.09375 53.65625 73.09375 36.375 
Q 73.09375 19.140625 63.90625 8.859375 
Q 54.734375 -1.421875 39.40625 -1.421875 
Q 24.03125 -1.421875 14.8125 8.828125 
Q 5.609375 19.09375 5.609375 36.375 
Q 5.609375 53.65625 14.8125 63.9375 
Q 24.03125 74.21875 39.40625 74.21875 
z
" id="DejaVuSans-79"/>
       <path d="M 40.578125 39.3125 
Q 47.65625 37.796875 51.625 33 
Q 55.609375 28.21875 55.609375 21.1875 
Q 55.609375 10.40625 48.1875 4.484375 
Q 40.765625 -1.421875 27.09375 -1.421875 
Q 22.515625 -1.421875 17.65625 -0.515625 
Q 12.796875 0.390625 7.625 2.203125 
L 7.625 11.71875 
Q 11.71875 9.328125 16.59375 8.109375 
Q 21.484375 6.890625 26.8125 6.890625 
Q 36.078125 6.890625 40.9375 10.546875 
Q 45.796875 14.203125 45.796875 21.1875 
Q 45.796875 27.640625 41.28125 31.265625 
Q 36.765625 34.90625 28.71875 34.90625 
L 20.21875 34.90625 
L 20.21875 43.015625 
L 29.109375 43.015625 
Q 36.375 43.015625 40.234375 45.921875 
Q 44.09375 48.828125 44.09375 54.296875 
Q 44.09375 59.90625 40.109375 62.90625 
Q 36.140625 65.921875 28.71875 65.921875 
Q 24.65625 65.921875 20.015625 65.03125 
Q 15.375 64.15625 9.8125 62.3125 
L 9.8125 71.09375 
Q 15.4375 72.65625 20.34375 73.4375 
Q 25.25 74.21875 29.59375 74.21875 
Q 40.828125 74.21875 47.359375 69.109375 
Q 53.90625 64.015625 53.90625 55.328125 
Q 53.90625 49.265625 50.4375 45.09375 
Q 46.96875 40.921875 40.578125 39.3125 
z
" id="DejaVuSans-51"/>
      </defs>
      <use xlink:href="#DejaVuSans-78"/>
      <use x="74.804688" xlink:href="#DejaVuSans-79"/>
      <use x="153.515625" xlink:href="#DejaVuSans-83"/>
      <use x="216.992188" xlink:href="#DejaVuSans-51"/>
     </g>
    </g>
   </g>
   <g id="text_14">
    <g clip-path="url(#p214ad41d93)">
     <!-- PLCG1 -->
     <g transform="translate(580.005908 416.474212)scale(0.1 -0.1)">
      <defs>
       <path d="M 9.8125 72.90625 
L 19.671875 72.90625 
L 19.671875 8.296875 
L 55.171875 8.296875 
L 55.171875 0 
L 9.8125 0 
z
" id="DejaVuSans-76"/>
      </defs>
      <use xlink:href="#DejaVuSans-80"/>
      <use x="60.302734" xlink:href="#DejaVuSans-76"/>
      <use x="116.015625" xlink:href="#DejaVuSans-67"/>
      <use x="185.839844" xlink:href="#DejaVuSans-71"/>
      <use x="263.330078" xlink:href="#DejaVuSans-49"/>
     </g>
    </g>
   </g>
   <g id="text_15">
    <g clip-path="url(#p214ad41d93)">
     <!-- PLCG2 -->
     <g transform="translate(627.73747 413.338799)scale(0.1 -0.1)">
      <use xlink:href="#DejaVuSans-80"/>
      <use x="60.302734" xlink:href="#DejaVuSans-76"/>
      <use x="116.015625" xlink:href="#DejaVuSans-67"/>
      <use x="185.839844" xlink:href="#DejaVuSans-71"/>
      <use x="263.330078" xlink:href="#DejaVuSans-50"/>
     </g>
    </g>
   </g>
   <g id="text_16">
    <g clip-path="url(#p214ad41d93)">
     <!-- MAPKAPK2 -->
     <g transform="translate(593.144699 338.857881)scale(0.1 -0.1)">
      <defs>
       <path d="M 9.8125 72.90625 
L 24.515625 72.90625 
L 43.109375 23.296875 
L 61.8125 72.90625 
L 76.515625 72.90625 
L 76.515625 0 
L 66.890625 0 
L 66.890625 64.015625 
L 48.09375 14.015625 
L 38.1875 14.015625 
L 19.390625 64.015625 
L 19.390625 0 
L 9.8125 0 
z
" id="DejaVuSans-77"/>
      </defs>
      <use xlink:href="#DejaVuSans-77"/>
      <use x="86.279297" xlink:href="#DejaVuSans-65"/>
      <use x="154.6875" xlink:href="#DejaVuSans-80"/>
      <use x="214.990234" xlink:href="#DejaVuSans-75"/>
      <use x="278.816406" xlink:href="#DejaVuSans-65"/>
      <use x="347.224609" xlink:href="#DejaVuSans-80"/>
      <use x="407.527344" xlink:href="#DejaVuSans-75"/>
      <use x="473.103516" xlink:href="#DejaVuSans-50"/>
     </g>
    </g>
   </g>
   <g id="text_17">
    <g clip-path="url(#p214ad41d93)">
     <!-- MAPKAPK3 -->
     <g transform="translate(932.489682 415.107727)scale(0.1 -0.1)">
      <use xlink:href="#DejaVuSans-77"/>
      <use x="86.279297" xlink:href="#DejaVuSans-65"/>
      <use x="154.6875" xlink:href="#DejaVuSans-80"/>
      <use x="214.990234" xlink:href="#DejaVuSans-75"/>
      <use x="278.816406" xlink:href="#DejaVuSans-65"/>
      <use x="347.224609" xlink:href="#DejaVuSans-80"/>
      <use x="407.527344" xlink:href="#DejaVuSans-75"/>
      <use x="473.103516" xlink:href="#DejaVuSans-51"/>
     </g>
    </g>
   </g>
   <g id="text_18">
    <g clip-path="url(#p214ad41d93)">
     <!-- PRKCA -->
     <g transform="translate(644.414526 194.106614)scale(0.1 -0.1)">
      <use xlink:href="#DejaVuSans-80"/>
      <use x="60.302734" xlink:href="#DejaVuSans-82"/>
      <use x="129.785156" xlink:href="#DejaVuSans-75"/>
      <use x="189.861328" xlink:href="#DejaVuSans-67"/>
      <use x="259.685547" xlink:href="#DejaVuSans-65"/>
     </g>
    </g>
   </g>
   <g id="text_19">
    <g clip-path="url(#p214ad41d93)">
     <!-- PRKCB -->
     <g transform="translate(822.173274 325.96145)scale(0.1 -0.1)">
      <use xlink:href="#DejaVuSans-80"/>
      <use x="60.302734" xlink:href="#DejaVuSans-82"/>
      <use x="129.785156" xlink:href="#DejaVuSans-75"/>
      <use x="189.861328" xlink:href="#DejaVuSans-67"/>
      <use x="259.685547" xlink:href="#DejaVuSans-66"/>
     </g>
    </g>
   </g>
   <g id="text_20">
    <g clip-path="url(#p214ad41d93)">
     <!-- PRKCG -->
     <g transform="translate(660.451116 549.604316)scale(0.1 -0.1)">
      <use xlink:href="#DejaVuSans-80"/>
      <use x="60.302734" xlink:href="#DejaVuSans-82"/>
      <use x="129.785156" xlink:href="#DejaVuSans-75"/>
      <use x="189.861328" xlink:href="#DejaVuSans-67"/>
      <use x="259.685547" xlink:href="#DejaVuSans-71"/>
     </g>
    </g>
   </g>
   <g id="text_21">
    <g clip-path="url(#p214ad41d93)">
     <!-- MAP2K1 -->
     <g transform="translate(219.09568 321.246175)scale(0.1 -0.1)">
      <use xlink:href="#DejaVuSans-77"/>
      <use x="86.279297" xlink:href="#DejaVuSans-65"/>
      <use x="154.6875" xlink:href="#DejaVuSans-80"/>
      <use x="214.990234" xlink:href="#DejaVuSans-50"/>
      <use x="278.613281" xlink:href="#DejaVuSans-75"/>
      <use x="344.189453" xlink:href="#DejaVuSans-49"/>
     </g>
    </g>
   </g>
   <g id="text_22">
    <g clip-path="url(#p214ad41d93)">
     <!-- MAP2K2 -->
     <g transform="translate(822.318476 193.859249)scale(0.1 -0.1)">
      <use xlink:href="#DejaVuSans-77"/>
      <use x="86.279297" xlink:href="#DejaVuSans-65"/>
      <use x="154.6875" xlink:href="#DejaVuSans-80"/>
      <use x="214.990234" xlink:href="#DejaVuSans-50"/>
      <use x="278.613281" xlink:href="#DejaVuSans-75"/>
      <use x="344.189453" xlink:href="#DejaVuSans-50"/>
     </g>
    </g>
   </g>
   <g id="text_23">
    <g clip-path="url(#p214ad41d93)">
     <!-- HRAS -->
     <g transform="translate(388.912914 487.216825)scale(0.1 -0.1)">
      <use xlink:href="#DejaVuSans-72"/>
      <use x="75.195312" xlink:href="#DejaVuSans-82"/>
      <use x="140.677734" xlink:href="#DejaVuSans-65"/>
      <use x="209.085938" xlink:href="#DejaVuSans-83"/>
     </g>
    </g>
   </g>
   <g id="text_24">
    <g clip-path="url(#p214ad41d93)">
     <!-- KRAS -->
     <g transform="translate(443.078115 164.170284)scale(0.1 -0.1)">
      <use xlink:href="#DejaVuSans-75"/>
      <use x="65.576172" xlink:href="#DejaVuSans-82"/>
      <use x="131.058594" xlink:href="#DejaVuSans-65"/>
      <use x="199.466797" xlink:href="#DejaVuSans-83"/>
     </g>
    </g>
   </g>
   <g id="text_25">
    <g clip-path="url(#p214ad41d93)">
     <!-- NRAS -->
     <g transform="translate(538.22055 556.589459)scale(0.1 -0.1)">
      <use xlink:href="#DejaVuSans-78"/>
      <use x="74.804688" xlink:href="#DejaVuSans-82"/>
      <use x="140.287109" xlink:href="#DejaVuSans-65"/>
      <use x="208.695312" xlink:href="#DejaVuSans-83"/>
     </g>
    </g>
   </g>
   <g id="text_26">
    <!-- Importance Score and Relative Abundance for network hsa04370 for dataset george_hiv -->
    <g transform="translate(324.563437 97.68)scale(0.12 -0.12)">
     <defs>
      <path d="M 9.8125 72.90625 
L 19.671875 72.90625 
L 19.671875 0 
L 9.8125 0 
z
" id="DejaVuSans-73"/>
      <path d="M 52 44.1875 
Q 55.375 50.25 60.0625 53.125 
Q 64.75 56 71.09375 56 
Q 79.640625 56 84.28125 50.015625 
Q 88.921875 44.046875 88.921875 33.015625 
L 88.921875 0 
L 79.890625 0 
L 79.890625 32.71875 
Q 79.890625 40.578125 77.09375 44.375 
Q 74.3125 48.1875 68.609375 48.1875 
Q 61.625 48.1875 57.5625 43.546875 
Q 53.515625 38.921875 53.515625 30.90625 
L 53.515625 0 
L 44.484375 0 
L 44.484375 32.71875 
Q 44.484375 40.625 41.703125 44.40625 
Q 38.921875 48.1875 33.109375 48.1875 
Q 26.21875 48.1875 22.15625 43.53125 
Q 18.109375 38.875 18.109375 30.90625 
L 18.109375 0 
L 9.078125 0 
L 9.078125 54.6875 
L 18.109375 54.6875 
L 18.109375 46.1875 
Q 21.1875 51.21875 25.484375 53.609375 
Q 29.78125 56 35.6875 56 
Q 41.65625 56 45.828125 52.96875 
Q 50 49.953125 52 44.1875 
z
" id="DejaVuSans-109"/>
      <path d="M 18.109375 8.203125 
L 18.109375 -20.796875 
L 9.078125 -20.796875 
L 9.078125 54.6875 
L 18.109375 54.6875 
L 18.109375 46.390625 
Q 20.953125 51.265625 25.265625 53.625 
Q 29.59375 56 35.59375 56 
Q 45.5625 56 51.78125 48.09375 
Q 58.015625 40.1875 58.015625 27.296875 
Q 58.015625 14.40625 51.78125 6.484375 
Q 45.5625 -1.421875 35.59375 -1.421875 
Q 29.59375 -1.421875 25.265625 0.953125 
Q 20.953125 3.328125 18.109375 8.203125 
z
M 48.6875 27.296875 
Q 48.6875 37.203125 44.609375 42.84375 
Q 40.53125 48.484375 33.40625 48.484375 
Q 26.265625 48.484375 22.1875 42.84375 
Q 18.109375 37.203125 18.109375 27.296875 
Q 18.109375 17.390625 22.1875 11.75 
Q 26.265625 6.109375 33.40625 6.109375 
Q 40.53125 6.109375 44.609375 11.75 
Q 48.6875 17.390625 48.6875 27.296875 
z
" id="DejaVuSans-112"/>
      <path d="M 30.609375 48.390625 
Q 23.390625 48.390625 19.1875 42.75 
Q 14.984375 37.109375 14.984375 27.296875 
Q 14.984375 17.484375 19.15625 11.84375 
Q 23.34375 6.203125 30.609375 6.203125 
Q 37.796875 6.203125 41.984375 11.859375 
Q 46.1875 17.53125 46.1875 27.296875 
Q 46.1875 37.015625 41.984375 42.703125 
Q 37.796875 48.390625 30.609375 48.390625 
z
M 30.609375 56 
Q 42.328125 56 49.015625 48.375 
Q 55.71875 40.765625 55.71875 27.296875 
Q 55.71875 13.875 49.015625 6.21875 
Q 42.328125 -1.421875 30.609375 -1.421875 
Q 18.84375 -1.421875 12.171875 6.21875 
Q 5.515625 13.875 5.515625 27.296875 
Q 5.515625 40.765625 12.171875 48.375 
Q 18.84375 56 30.609375 56 
z
" id="DejaVuSans-111"/>
      <path d="M 41.109375 46.296875 
Q 39.59375 47.171875 37.8125 47.578125 
Q 36.03125 48 33.890625 48 
Q 26.265625 48 22.1875 43.046875 
Q 18.109375 38.09375 18.109375 28.8125 
L 18.109375 0 
L 9.078125 0 
L 9.078125 54.6875 
L 18.109375 54.6875 
L 18.109375 46.1875 
Q 20.953125 51.171875 25.484375 53.578125 
Q 30.03125 56 36.53125 56 
Q 37.453125 56 38.578125 55.875 
Q 39.703125 55.765625 41.0625 55.515625 
z
" id="DejaVuSans-114"/>
      <path d="M 18.3125 70.21875 
L 18.3125 54.6875 
L 36.8125 54.6875 
L 36.8125 47.703125 
L 18.3125 47.703125 
L 18.3125 18.015625 
Q 18.3125 11.328125 20.140625 9.421875 
Q 21.96875 7.515625 27.59375 7.515625 
L 36.8125 7.515625 
L 36.8125 0 
L 27.59375 0 
Q 17.1875 0 13.234375 3.875 
Q 9.28125 7.765625 9.28125 18.015625 
L 9.28125 47.703125 
L 2.6875 47.703125 
L 2.6875 54.6875 
L 9.28125 54.6875 
L 9.28125 70.21875 
z
" id="DejaVuSans-116"/>
      <path d="M 34.28125 27.484375 
Q 23.390625 27.484375 19.1875 25 
Q 14.984375 22.515625 14.984375 16.5 
Q 14.984375 11.71875 18.140625 8.90625 
Q 21.296875 6.109375 26.703125 6.109375 
Q 34.1875 6.109375 38.703125 11.40625 
Q 43.21875 16.703125 43.21875 25.484375 
L 43.21875 27.484375 
z
M 52.203125 31.203125 
L 52.203125 0 
L 43.21875 0 
L 43.21875 8.296875 
Q 40.140625 3.328125 35.546875 0.953125 
Q 30.953125 -1.421875 24.3125 -1.421875 
Q 15.921875 -1.421875 10.953125 3.296875 
Q 6 8.015625 6 15.921875 
Q 6 25.140625 12.171875 29.828125 
Q 18.359375 34.515625 30.609375 34.515625 
L 43.21875 34.515625 
L 43.21875 35.40625 
Q 43.21875 41.609375 39.140625 45 
Q 35.0625 48.390625 27.6875 48.390625 
Q 23 48.390625 18.546875 47.265625 
Q 14.109375 46.140625 10.015625 43.890625 
L 10.015625 52.203125 
Q 14.9375 54.109375 19.578125 55.046875 
Q 24.21875 56 28.609375 56 
Q 40.484375 56 46.34375 49.84375 
Q 52.203125 43.703125 52.203125 31.203125 
z
" id="DejaVuSans-97"/>
      <path d="M 54.890625 33.015625 
L 54.890625 0 
L 45.90625 0 
L 45.90625 32.71875 
Q 45.90625 40.484375 42.875 44.328125 
Q 39.84375 48.1875 33.796875 48.1875 
Q 26.515625 48.1875 22.3125 43.546875 
Q 18.109375 38.921875 18.109375 30.90625 
L 18.109375 0 
L 9.078125 0 
L 9.078125 54.6875 
L 18.109375 54.6875 
L 18.109375 46.1875 
Q 21.34375 51.125 25.703125 53.5625 
Q 30.078125 56 35.796875 56 
Q 45.21875 56 50.046875 50.171875 
Q 54.890625 44.34375 54.890625 33.015625 
z
" id="DejaVuSans-110"/>
      <path d="M 48.78125 52.59375 
L 48.78125 44.1875 
Q 44.96875 46.296875 41.140625 47.34375 
Q 37.3125 48.390625 33.40625 48.390625 
Q 24.65625 48.390625 19.8125 42.84375 
Q 14.984375 37.3125 14.984375 27.296875 
Q 14.984375 17.28125 19.8125 11.734375 
Q 24.65625 6.203125 33.40625 6.203125 
Q 37.3125 6.203125 41.140625 7.25 
Q 44.96875 8.296875 48.78125 10.40625 
L 48.78125 2.09375 
Q 45.015625 0.34375 40.984375 -0.53125 
Q 36.96875 -1.421875 32.421875 -1.421875 
Q 20.0625 -1.421875 12.78125 6.34375 
Q 5.515625 14.109375 5.515625 27.296875 
Q 5.515625 40.671875 12.859375 48.328125 
Q 20.21875 56 33.015625 56 
Q 37.15625 56 41.109375 55.140625 
Q 45.0625 54.296875 48.78125 52.59375 
z
" id="DejaVuSans-99"/>
      <path d="M 56.203125 29.59375 
L 56.203125 25.203125 
L 14.890625 25.203125 
Q 15.484375 15.921875 20.484375 11.0625 
Q 25.484375 6.203125 34.421875 6.203125 
Q 39.59375 6.203125 44.453125 7.46875 
Q 49.3125 8.734375 54.109375 11.28125 
L 54.109375 2.78125 
Q 49.265625 0.734375 44.1875 -0.34375 
Q 39.109375 -1.421875 33.890625 -1.421875 
Q 20.796875 -1.421875 13.15625 6.1875 
Q 5.515625 13.8125 5.515625 26.8125 
Q 5.515625 40.234375 12.765625 48.109375 
Q 20.015625 56 32.328125 56 
Q 43.359375 56 49.78125 48.890625 
Q 56.203125 41.796875 56.203125 29.59375 
z
M 47.21875 32.234375 
Q 47.125 39.59375 43.09375 43.984375 
Q 39.0625 48.390625 32.421875 48.390625 
Q 24.90625 48.390625 20.390625 44.140625 
Q 15.875 39.890625 15.1875 32.171875 
z
" id="DejaVuSans-101"/>
      <path id="DejaVuSans-32"/>
      <path d="M 45.40625 46.390625 
L 45.40625 75.984375 
L 54.390625 75.984375 
L 54.390625 0 
L 45.40625 0 
L 45.40625 8.203125 
Q 42.578125 3.328125 38.25 0.953125 
Q 33.9375 -1.421875 27.875 -1.421875 
Q 17.96875 -1.421875 11.734375 6.484375 
Q 5.515625 14.40625 5.515625 27.296875 
Q 5.515625 40.1875 11.734375 48.09375 
Q 17.96875 56 27.875 56 
Q 33.9375 56 38.25 53.625 
Q 42.578125 51.265625 45.40625 46.390625 
z
M 14.796875 27.296875 
Q 14.796875 17.390625 18.875 11.75 
Q 22.953125 6.109375 30.078125 6.109375 
Q 37.203125 6.109375 41.296875 11.75 
Q 45.40625 17.390625 45.40625 27.296875 
Q 45.40625 37.203125 41.296875 42.84375 
Q 37.203125 48.484375 30.078125 48.484375 
Q 22.953125 48.484375 18.875 42.84375 
Q 14.796875 37.203125 14.796875 27.296875 
z
" id="DejaVuSans-100"/>
      <path d="M 9.421875 75.984375 
L 18.40625 75.984375 
L 18.40625 0 
L 9.421875 0 
z
" id="DejaVuSans-108"/>
      <path d="M 9.421875 54.6875 
L 18.40625 54.6875 
L 18.40625 0 
L 9.421875 0 
z
M 9.421875 75.984375 
L 18.40625 75.984375 
L 18.40625 64.59375 
L 9.421875 64.59375 
z
" id="DejaVuSans-105"/>
      <path d="M 2.984375 54.6875 
L 12.5 54.6875 
L 29.59375 8.796875 
L 46.6875 54.6875 
L 56.203125 54.6875 
L 35.6875 0 
L 23.484375 0 
z
" id="DejaVuSans-118"/>
      <path d="M 48.6875 27.296875 
Q 48.6875 37.203125 44.609375 42.84375 
Q 40.53125 48.484375 33.40625 48.484375 
Q 26.265625 48.484375 22.1875 42.84375 
Q 18.109375 37.203125 18.109375 27.296875 
Q 18.109375 17.390625 22.1875 11.75 
Q 26.265625 6.109375 33.40625 6.109375 
Q 40.53125 6.109375 44.609375 11.75 
Q 48.6875 17.390625 48.6875 27.296875 
z
M 18.109375 46.390625 
Q 20.953125 51.265625 25.265625 53.625 
Q 29.59375 56 35.59375 56 
Q 45.5625 56 51.78125 48.09375 
Q 58.015625 40.1875 58.015625 27.296875 
Q 58.015625 14.40625 51.78125 6.484375 
Q 45.5625 -1.421875 35.59375 -1.421875 
Q 29.59375 -1.421875 25.265625 0.953125 
Q 20.953125 3.328125 18.109375 8.203125 
L 18.109375 0 
L 9.078125 0 
L 9.078125 75.984375 
L 18.109375 75.984375 
z
" id="DejaVuSans-98"/>
      <path d="M 8.5 21.578125 
L 8.5 54.6875 
L 17.484375 54.6875 
L 17.484375 21.921875 
Q 17.484375 14.15625 20.5 10.265625 
Q 23.53125 6.390625 29.59375 6.390625 
Q 36.859375 6.390625 41.078125 11.03125 
Q 45.3125 15.671875 45.3125 23.6875 
L 45.3125 54.6875 
L 54.296875 54.6875 
L 54.296875 0 
L 45.3125 0 
L 45.3125 8.40625 
Q 42.046875 3.421875 37.71875 1 
Q 33.40625 -1.421875 27.6875 -1.421875 
Q 18.265625 -1.421875 13.375 4.4375 
Q 8.5 10.296875 8.5 21.578125 
z
M 31.109375 56 
z
" id="DejaVuSans-117"/>
      <path d="M 37.109375 75.984375 
L 37.109375 68.5 
L 28.515625 68.5 
Q 23.6875 68.5 21.796875 66.546875 
Q 19.921875 64.59375 19.921875 59.515625 
L 19.921875 54.6875 
L 34.71875 54.6875 
L 34.71875 47.703125 
L 19.921875 47.703125 
L 19.921875 0 
L 10.890625 0 
L 10.890625 47.703125 
L 2.296875 47.703125 
L 2.296875 54.6875 
L 10.890625 54.6875 
L 10.890625 58.5 
Q 10.890625 67.625 15.140625 71.796875 
Q 19.390625 75.984375 28.609375 75.984375 
z
" id="DejaVuSans-102"/>
      <path d="M 4.203125 54.6875 
L 13.1875 54.6875 
L 24.421875 12.015625 
L 35.59375 54.6875 
L 46.1875 54.6875 
L 57.421875 12.015625 
L 68.609375 54.6875 
L 77.59375 54.6875 
L 63.28125 0 
L 52.6875 0 
L 40.921875 44.828125 
L 29.109375 0 
L 18.5 0 
z
" id="DejaVuSans-119"/>
      <path d="M 9.078125 75.984375 
L 18.109375 75.984375 
L 18.109375 31.109375 
L 44.921875 54.6875 
L 56.390625 54.6875 
L 27.390625 29.109375 
L 57.625 0 
L 45.90625 0 
L 18.109375 26.703125 
L 18.109375 0 
L 9.078125 0 
z
" id="DejaVuSans-107"/>
      <path d="M 54.890625 33.015625 
L 54.890625 0 
L 45.90625 0 
L 45.90625 32.71875 
Q 45.90625 40.484375 42.875 44.328125 
Q 39.84375 48.1875 33.796875 48.1875 
Q 26.515625 48.1875 22.3125 43.546875 
Q 18.109375 38.921875 18.109375 30.90625 
L 18.109375 0 
L 9.078125 0 
L 9.078125 75.984375 
L 18.109375 75.984375 
L 18.109375 46.1875 
Q 21.34375 51.125 25.703125 53.5625 
Q 30.078125 56 35.796875 56 
Q 45.21875 56 50.046875 50.171875 
Q 54.890625 44.34375 54.890625 33.015625 
z
" id="DejaVuSans-104"/>
      <path d="M 44.28125 53.078125 
L 44.28125 44.578125 
Q 40.484375 46.53125 36.375 47.5 
Q 32.28125 48.484375 27.875 48.484375 
Q 21.1875 48.484375 17.84375 46.4375 
Q 14.5 44.390625 14.5 40.28125 
Q 14.5 37.15625 16.890625 35.375 
Q 19.28125 33.59375 26.515625 31.984375 
L 29.59375 31.296875 
Q 39.15625 29.25 43.1875 25.515625 
Q 47.21875 21.78125 47.21875 15.09375 
Q 47.21875 7.46875 41.1875 3.015625 
Q 35.15625 -1.421875 24.609375 -1.421875 
Q 20.21875 -1.421875 15.453125 -0.5625 
Q 10.6875 0.296875 5.421875 2 
L 5.421875 11.28125 
Q 10.40625 8.6875 15.234375 7.390625 
Q 20.0625 6.109375 24.8125 6.109375 
Q 31.15625 6.109375 34.5625 8.28125 
Q 37.984375 10.453125 37.984375 14.40625 
Q 37.984375 18.0625 35.515625 20.015625 
Q 33.0625 21.96875 24.703125 23.78125 
L 21.578125 24.515625 
Q 13.234375 26.265625 9.515625 29.90625 
Q 5.8125 33.546875 5.8125 39.890625 
Q 5.8125 47.609375 11.28125 51.796875 
Q 16.75 56 26.8125 56 
Q 31.78125 56 36.171875 55.265625 
Q 40.578125 54.546875 44.28125 53.078125 
z
" id="DejaVuSans-115"/>
      <path d="M 31.78125 66.40625 
Q 24.171875 66.40625 20.328125 58.90625 
Q 16.5 51.421875 16.5 36.375 
Q 16.5 21.390625 20.328125 13.890625 
Q 24.171875 6.390625 31.78125 6.390625 
Q 39.453125 6.390625 43.28125 13.890625 
Q 47.125 21.390625 47.125 36.375 
Q 47.125 51.421875 43.28125 58.90625 
Q 39.453125 66.40625 31.78125 66.40625 
z
M 31.78125 74.21875 
Q 44.046875 74.21875 50.515625 64.515625 
Q 56.984375 54.828125 56.984375 36.375 
Q 56.984375 17.96875 50.515625 8.265625 
Q 44.046875 -1.421875 31.78125 -1.421875 
Q 19.53125 -1.421875 13.0625 8.265625 
Q 6.59375 17.96875 6.59375 36.375 
Q 6.59375 54.828125 13.0625 64.515625 
Q 19.53125 74.21875 31.78125 74.21875 
z
" id="DejaVuSans-48"/>
      <path d="M 8.203125 72.90625 
L 55.078125 72.90625 
L 55.078125 68.703125 
L 28.609375 0 
L 18.3125 0 
L 43.21875 64.59375 
L 8.203125 64.59375 
z
" id="DejaVuSans-55"/>
      <path d="M 45.40625 27.984375 
Q 45.40625 37.75 41.375 43.109375 
Q 37.359375 48.484375 30.078125 48.484375 
Q 22.859375 48.484375 18.828125 43.109375 
Q 14.796875 37.75 14.796875 27.984375 
Q 14.796875 18.265625 18.828125 12.890625 
Q 22.859375 7.515625 30.078125 7.515625 
Q 37.359375 7.515625 41.375 12.890625 
Q 45.40625 18.265625 45.40625 27.984375 
z
M 54.390625 6.78125 
Q 54.390625 -7.171875 48.1875 -13.984375 
Q 42 -20.796875 29.203125 -20.796875 
Q 24.46875 -20.796875 20.265625 -20.09375 
Q 16.0625 -19.390625 12.109375 -17.921875 
L 12.109375 -9.1875 
Q 16.0625 -11.328125 19.921875 -12.34375 
Q 23.78125 -13.375 27.78125 -13.375 
Q 36.625 -13.375 41.015625 -8.765625 
Q 45.40625 -4.15625 45.40625 5.171875 
L 45.40625 9.625 
Q 42.625 4.78125 38.28125 2.390625 
Q 33.9375 0 27.875 0 
Q 17.828125 0 11.671875 7.65625 
Q 5.515625 15.328125 5.515625 27.984375 
Q 5.515625 40.671875 11.671875 48.328125 
Q 17.828125 56 27.875 56 
Q 33.9375 56 38.28125 53.609375 
Q 42.625 51.21875 45.40625 46.390625 
L 45.40625 54.6875 
L 54.390625 54.6875 
z
" id="DejaVuSans-103"/>
      <path d="M 50.984375 -16.609375 
L 50.984375 -23.578125 
L -0.984375 -23.578125 
L -0.984375 -16.609375 
z
" id="DejaVuSans-95"/>
     </defs>
     <use xlink:href="#DejaVuSans-73"/>
     <use x="29.492188" xlink:href="#DejaVuSans-109"/>
     <use x="126.904297" xlink:href="#DejaVuSans-112"/>
     <use x="190.380859" xlink:href="#DejaVuSans-111"/>
     <use x="251.5625" xlink:href="#DejaVuSans-114"/>
     <use x="292.675781" xlink:href="#DejaVuSans-116"/>
     <use x="331.884766" xlink:href="#DejaVuSans-97"/>
     <use x="393.164062" xlink:href="#DejaVuSans-110"/>
     <use x="456.542969" xlink:href="#DejaVuSans-99"/>
     <use x="511.523438" xlink:href="#DejaVuSans-101"/>
     <use x="573.046875" xlink:href="#DejaVuSans-32"/>
     <use x="604.833984" xlink:href="#DejaVuSans-83"/>
     <use x="668.310547" xlink:href="#DejaVuSans-99"/>
     <use x="723.291016" xlink:href="#DejaVuSans-111"/>
     <use x="784.472656" xlink:href="#DejaVuSans-114"/>
     <use x="823.335938" xlink:href="#DejaVuSans-101"/>
     <use x="884.859375" xlink:href="#DejaVuSans-32"/>
     <use x="916.646484" xlink:href="#DejaVuSans-97"/>
     <use x="977.925781" xlink:href="#DejaVuSans-110"/>
     <use x="1041.304688" xlink:href="#DejaVuSans-100"/>
     <use x="1104.78125" xlink:href="#DejaVuSans-32"/>
     <use x="1136.568359" xlink:href="#DejaVuSans-82"/>
     <use x="1201.550781" xlink:href="#DejaVuSans-101"/>
     <use x="1263.074219" xlink:href="#DejaVuSans-108"/>
     <use x="1290.857422" xlink:href="#DejaVuSans-97"/>
     <use x="1352.136719" xlink:href="#DejaVuSans-116"/>
     <use x="1391.345703" xlink:href="#DejaVuSans-105"/>
     <use x="1419.128906" xlink:href="#DejaVuSans-118"/>
     <use x="1478.308594" xlink:href="#DejaVuSans-101"/>
     <use x="1539.832031" xlink:href="#DejaVuSans-32"/>
     <use x="1571.619141" xlink:href="#DejaVuSans-65"/>
     <use x="1640.027344" xlink:href="#DejaVuSans-98"/>
     <use x="1703.503906" xlink:href="#DejaVuSans-117"/>
     <use x="1766.882812" xlink:href="#DejaVuSans-110"/>
     <use x="1830.261719" xlink:href="#DejaVuSans-100"/>
     <use x="1893.738281" xlink:href="#DejaVuSans-97"/>
     <use x="1955.017578" xlink:href="#DejaVuSans-110"/>
     <use x="2018.396484" xlink:href="#DejaVuSans-99"/>
     <use x="2073.376953" xlink:href="#DejaVuSans-101"/>
     <use x="2134.900391" xlink:href="#DejaVuSans-32"/>
     <use x="2166.6875" xlink:href="#DejaVuSans-102"/>
     <use x="2201.892578" xlink:href="#DejaVuSans-111"/>
     <use x="2263.074219" xlink:href="#DejaVuSans-114"/>
     <use x="2304.1875" xlink:href="#DejaVuSans-32"/>
     <use x="2335.974609" xlink:href="#DejaVuSans-110"/>
     <use x="2399.353516" xlink:href="#DejaVuSans-101"/>
     <use x="2460.876953" xlink:href="#DejaVuSans-116"/>
     <use x="2500.085938" xlink:href="#DejaVuSans-119"/>
     <use x="2581.873047" xlink:href="#DejaVuSans-111"/>
     <use x="2643.054688" xlink:href="#DejaVuSans-114"/>
     <use x="2684.167969" xlink:href="#DejaVuSans-107"/>
     <use x="2742.078125" xlink:href="#DejaVuSans-32"/>
     <use x="2773.865234" xlink:href="#DejaVuSans-104"/>
     <use x="2837.244141" xlink:href="#DejaVuSans-115"/>
     <use x="2889.34375" xlink:href="#DejaVuSans-97"/>
     <use x="2950.623047" xlink:href="#DejaVuSans-48"/>
     <use x="3014.246094" xlink:href="#DejaVuSans-52"/>
     <use x="3077.869141" xlink:href="#DejaVuSans-51"/>
     <use x="3141.492188" xlink:href="#DejaVuSans-55"/>
     <use x="3205.115234" xlink:href="#DejaVuSans-48"/>
     <use x="3268.738281" xlink:href="#DejaVuSans-32"/>
     <use x="3300.525391" xlink:href="#DejaVuSans-102"/>
     <use x="3335.730469" xlink:href="#DejaVuSans-111"/>
     <use x="3396.912109" xlink:href="#DejaVuSans-114"/>
     <use x="3438.025391" xlink:href="#DejaVuSans-32"/>
     <use x="3469.8125" xlink:href="#DejaVuSans-100"/>
     <use x="3533.289062" xlink:href="#DejaVuSans-97"/>
     <use x="3594.568359" xlink:href="#DejaVuSans-116"/>
     <use x="3633.777344" xlink:href="#DejaVuSans-97"/>
     <use x="3695.056641" xlink:href="#DejaVuSans-115"/>
     <use x="3747.15625" xlink:href="#DejaVuSans-101"/>
     <use x="3808.679688" xlink:href="#DejaVuSans-116"/>
     <use x="3847.888672" xlink:href="#DejaVuSans-32"/>
     <use x="3879.675781" xlink:href="#DejaVuSans-103"/>
     <use x="3943.152344" xlink:href="#DejaVuSans-101"/>
     <use x="4004.675781" xlink:href="#DejaVuSans-111"/>
     <use x="4065.857422" xlink:href="#DejaVuSans-114"/>
     <use x="4105.220703" xlink:href="#DejaVuSans-103"/>
     <use x="4168.697266" xlink:href="#DejaVuSans-101"/>
     <use x="4230.220703" xlink:href="#DejaVuSans-95"/>
     <use x="4280.220703" xlink:href="#DejaVuSans-104"/>
     <use x="4343.599609" xlink:href="#DejaVuSans-105"/>
     <use x="4371.382812" xlink:href="#DejaVuSans-118"/>
    </g>
   </g>
   <g id="legend_1">
    <g id="patch_32">
     <path d="M 786.157812 155.714375 
L 1029.8 155.714375 
Q 1031.8 155.714375 1031.8 153.714375 
L 1031.8 110.68 
Q 1031.8 108.68 1029.8 108.68 
L 786.157812 108.68 
Q 784.157812 108.68 784.157812 110.68 
L 784.157812 153.714375 
Q 784.157812 155.714375 786.157812 155.714375 
z
" style="fill:#ffffff;opacity:0.8;stroke:#cccccc;stroke-linejoin:miter;"/>
    </g>
    <g id="text_27">
     <!-- Relative Expression of HIV compared to Healthy -->
     <g transform="translate(788.157812 120.278437)scale(0.1 -0.1)">
      <defs>
       <path d="M 54.890625 54.6875 
L 35.109375 28.078125 
L 55.90625 0 
L 45.3125 0 
L 29.390625 21.484375 
L 13.484375 0 
L 2.875 0 
L 24.125 28.609375 
L 4.6875 54.6875 
L 15.28125 54.6875 
L 29.78125 35.203125 
L 44.28125 54.6875 
z
" id="DejaVuSans-120"/>
       <path d="M 32.171875 -5.078125 
Q 28.375 -14.84375 24.75 -17.8125 
Q 21.140625 -20.796875 15.09375 -20.796875 
L 7.90625 -20.796875 
L 7.90625 -13.28125 
L 13.1875 -13.28125 
Q 16.890625 -13.28125 18.9375 -11.515625 
Q 21 -9.765625 23.484375 -3.21875 
L 25.09375 0.875 
L 2.984375 54.6875 
L 12.5 54.6875 
L 29.59375 11.921875 
L 46.6875 54.6875 
L 56.203125 54.6875 
z
" id="DejaVuSans-121"/>
      </defs>
      <use xlink:href="#DejaVuSans-82"/>
      <use x="64.982422" xlink:href="#DejaVuSans-101"/>
      <use x="126.505859" xlink:href="#DejaVuSans-108"/>
      <use x="154.289062" xlink:href="#DejaVuSans-97"/>
      <use x="215.568359" xlink:href="#DejaVuSans-116"/>
      <use x="254.777344" xlink:href="#DejaVuSans-105"/>
      <use x="282.560547" xlink:href="#DejaVuSans-118"/>
      <use x="341.740234" xlink:href="#DejaVuSans-101"/>
      <use x="403.263672" xlink:href="#DejaVuSans-32"/>
      <use x="435.050781" xlink:href="#DejaVuSans-69"/>
      <use x="498.234375" xlink:href="#DejaVuSans-120"/>
      <use x="557.414062" xlink:href="#DejaVuSans-112"/>
      <use x="620.890625" xlink:href="#DejaVuSans-114"/>
      <use x="659.753906" xlink:href="#DejaVuSans-101"/>
      <use x="721.277344" xlink:href="#DejaVuSans-115"/>
      <use x="773.376953" xlink:href="#DejaVuSans-115"/>
      <use x="825.476562" xlink:href="#DejaVuSans-105"/>
      <use x="853.259766" xlink:href="#DejaVuSans-111"/>
      <use x="914.441406" xlink:href="#DejaVuSans-110"/>
      <use x="977.820312" xlink:href="#DejaVuSans-32"/>
      <use x="1009.607422" xlink:href="#DejaVuSans-111"/>
      <use x="1070.789062" xlink:href="#DejaVuSans-102"/>
      <use x="1105.994141" xlink:href="#DejaVuSans-32"/>
      <use x="1137.78125" xlink:href="#DejaVuSans-72"/>
      <use x="1212.976562" xlink:href="#DejaVuSans-73"/>
      <use x="1242.46875" xlink:href="#DejaVuSans-86"/>
      <use x="1310.876953" xlink:href="#DejaVuSans-32"/>
      <use x="1342.664062" xlink:href="#DejaVuSans-99"/>
      <use x="1397.644531" xlink:href="#DejaVuSans-111"/>
      <use x="1458.826172" xlink:href="#DejaVuSans-109"/>
      <use x="1556.238281" xlink:href="#DejaVuSans-112"/>
      <use x="1619.714844" xlink:href="#DejaVuSans-97"/>
      <use x="1680.994141" xlink:href="#DejaVuSans-114"/>
      <use x="1719.857422" xlink:href="#DejaVuSans-101"/>
      <use x="1781.380859" xlink:href="#DejaVuSans-100"/>
      <use x="1844.857422" xlink:href="#DejaVuSans-32"/>
      <use x="1876.644531" xlink:href="#DejaVuSans-116"/>
      <use x="1915.853516" xlink:href="#DejaVuSans-111"/>
      <use x="1977.035156" xlink:href="#DejaVuSans-32"/>
      <use x="2008.822266" xlink:href="#DejaVuSans-72"/>
      <use x="2084.017578" xlink:href="#DejaVuSans-101"/>
      <use x="2145.541016" xlink:href="#DejaVuSans-97"/>
      <use x="2206.820312" xlink:href="#DejaVuSans-108"/>
      <use x="2234.603516" xlink:href="#DejaVuSans-116"/>
      <use x="2273.8125" xlink:href="#DejaVuSans-104"/>
      <use x="2337.191406" xlink:href="#DejaVuSans-121"/>
     </g>
    </g>
    <g id="patch_33">
     <path d="M 822.414844 134.956562 
L 842.414844 134.956562 
L 842.414844 127.956562 
L 822.414844 127.956562 
z
" style="fill:#0000ff;stroke:#0000ff;stroke-linejoin:miter;"/>
    </g>
    <g id="text_28">
     <!-- Decreased expression in HIV -->
     <g transform="translate(850.414844 134.956562)scale(0.1 -0.1)">
      <use xlink:href="#DejaVuSans-68"/>
      <use x="77.001953" xlink:href="#DejaVuSans-101"/>
      <use x="138.525391" xlink:href="#DejaVuSans-99"/>
      <use x="193.505859" xlink:href="#DejaVuSans-114"/>
      <use x="232.369141" xlink:href="#DejaVuSans-101"/>
      <use x="293.892578" xlink:href="#DejaVuSans-97"/>
      <use x="355.171875" xlink:href="#DejaVuSans-115"/>
      <use x="407.271484" xlink:href="#DejaVuSans-101"/>
      <use x="468.794922" xlink:href="#DejaVuSans-100"/>
      <use x="532.271484" xlink:href="#DejaVuSans-32"/>
      <use x="564.058594" xlink:href="#DejaVuSans-101"/>
      <use x="623.832031" xlink:href="#DejaVuSans-120"/>
      <use x="683.011719" xlink:href="#DejaVuSans-112"/>
      <use x="746.488281" xlink:href="#DejaVuSans-114"/>
      <use x="785.351562" xlink:href="#DejaVuSans-101"/>
      <use x="846.875" xlink:href="#DejaVuSans-115"/>
      <use x="898.974609" xlink:href="#DejaVuSans-115"/>
      <use x="951.074219" xlink:href="#DejaVuSans-105"/>
      <use x="978.857422" xlink:href="#DejaVuSans-111"/>
      <use x="1040.039062" xlink:href="#DejaVuSans-110"/>
      <use x="1103.417969" xlink:href="#DejaVuSans-32"/>
      <use x="1135.205078" xlink:href="#DejaVuSans-105"/>
      <use x="1162.988281" xlink:href="#DejaVuSans-110"/>
      <use x="1226.367188" xlink:href="#DejaVuSans-32"/>
      <use x="1258.154297" xlink:href="#DejaVuSans-72"/>
      <use x="1333.349609" xlink:href="#DejaVuSans-73"/>
      <use x="1362.841797" xlink:href="#DejaVuSans-86"/>
     </g>
    </g>
    <g id="patch_34">
     <path d="M 822.414844 149.634687 
L 842.414844 149.634687 
L 842.414844 142.634687 
L 822.414844 142.634687 
z
" style="fill:#ff0000;stroke:#ff0000;stroke-linejoin:miter;"/>
    </g>
    <g id="text_29">
     <!-- Increased expression in HIV -->
     <g transform="translate(850.414844 149.634687)scale(0.1 -0.1)">
      <use xlink:href="#DejaVuSans-73"/>
      <use x="29.492188" xlink:href="#DejaVuSans-110"/>
      <use x="92.871094" xlink:href="#DejaVuSans-99"/>
      <use x="147.851562" xlink:href="#DejaVuSans-114"/>
      <use x="186.714844" xlink:href="#DejaVuSans-101"/>
      <use x="248.238281" xlink:href="#DejaVuSans-97"/>
      <use x="309.517578" xlink:href="#DejaVuSans-115"/>
      <use x="361.617188" xlink:href="#DejaVuSans-101"/>
      <use x="423.140625" xlink:href="#DejaVuSans-100"/>
      <use x="486.617188" xlink:href="#DejaVuSans-32"/>
      <use x="518.404297" xlink:href="#DejaVuSans-101"/>
      <use x="578.177734" xlink:href="#DejaVuSans-120"/>
      <use x="637.357422" xlink:href="#DejaVuSans-112"/>
      <use x="700.833984" xlink:href="#DejaVuSans-114"/>
      <use x="739.697266" xlink:href="#DejaVuSans-101"/>
      <use x="801.220703" xlink:href="#DejaVuSans-115"/>
      <use x="853.320312" xlink:href="#DejaVuSans-115"/>
      <use x="905.419922" xlink:href="#DejaVuSans-105"/>
      <use x="933.203125" xlink:href="#DejaVuSans-111"/>
      <use x="994.384766" xlink:href="#DejaVuSans-110"/>
      <use x="1057.763672" xlink:href="#DejaVuSans-32"/>
      <use x="1089.550781" xlink:href="#DejaVuSans-105"/>
      <use x="1117.333984" xlink:href="#DejaVuSans-110"/>
      <use x="1180.712891" xlink:href="#DejaVuSans-32"/>
      <use x="1212.5" xlink:href="#DejaVuSans-72"/>
      <use x="1287.695312" xlink:href="#DejaVuSans-73"/>
      <use x="1317.1875" xlink:href="#DejaVuSans-86"/>
     </g>
    </g>
   </g>
  </g>
 </g>
 <defs>
  <clipPath id="p214ad41d93">
   <rect height="665.28" width="892.8" x="144" y="103.68"/>
  </clipPath>
 </defs>
</svg>
