<?xml version="1.0" encoding="utf-8" standalone="no"?>
<!DOCTYPE svg PUBLIC "-//W3C//DTD SVG 1.1//EN"
  "http://www.w3.org/Graphics/SVG/1.1/DTD/svg11.dtd">
<!-- Created with matplotlib (https://matplotlib.org/) -->
<svg height="864pt" version="1.1" viewBox="0 0 1152 864" width="1152pt" xmlns="http://www.w3.org/2000/svg" xmlns:xlink="http://www.w3.org/1999/xlink">
 <metadata>
  <rdf:RDF xmlns:cc="http://creativecommons.org/ns#" xmlns:dc="http://purl.org/dc/elements/1.1/" xmlns:rdf="http://www.w3.org/1999/02/22-rdf-syntax-ns#">
   <cc:Work>
    <dc:type rdf:resource="http://purl.org/dc/dcmitype/StillImage"/>
    <dc:date>2024-04-17T13:21:29.531842</dc:date>
    <dc:format>image/svg+xml</dc:format>
    <dc:creator>
     <cc:Agent>
      <dc:title>Matplotlib v3.3.1, https://matplotlib.org/</dc:title>
     </cc:Agent>
    </dc:creator>
   </cc:Work>
  </rdf:RDF>
 </metadata>
 <defs>
  <style type="text/css">*{stroke-linecap:butt;stroke-linejoin:round;}</style>
 </defs>
 <g id="figure_1">
  <g id="patch_1">
   <path d="M 0 864 
L 1152 864 
L 1152 0 
L 0 0 
z
" style="fill:#ffffff;"/>
  </g>
  <g id="axes_1">
   <g id="patch_2">
    <path clip-path="url(#ped8b2d0b22)" d="M 455.509221 519.753342 
Q 527.650971 504.501694 598.698866 489.4813 
" style="fill:none;stroke:#000000;stroke-linecap:round;"/>
    <path clip-path="url(#ped8b2d0b22)" d="M 594.371686 488.351912 
L 598.698866 489.4813 
L 595.199048 492.265411 
L 594.371686 488.351912 
z
" style="stroke:#000000;stroke-linecap:round;"/>
   </g>
   <g id="patch_3">
    <path clip-path="url(#ped8b2d0b22)" d="M 455.096862 527.414179 
Q 561.959526 562.407608 667.759673 597.053104 
" style="fill:none;stroke:#000000;stroke-linecap:round;"/>
    <path clip-path="url(#ped8b2d0b22)" d="M 664.5807 593.907611 
L 667.759673 597.053104 
L 663.335895 597.708987 
L 664.5807 593.907611 
z
" style="stroke:#000000;stroke-linecap:round;"/>
   </g>
   <g id="patch_4">
    <path clip-path="url(#ped8b2d0b22)" d="M 429.764603 532.376017 
Q 395.126443 561.751417 361.340972 590.403683 
" style="fill:none;stroke:#000000;stroke-linecap:round;"/>
    <path clip-path="url(#ped8b2d0b22)" d="M 365.685223 589.341853 
L 361.340972 590.403683 
L 363.098058 586.291184 
L 365.685223 589.341853 
z
" style="stroke:#000000;stroke-linecap:round;"/>
   </g>
   <g id="patch_5">
    <path clip-path="url(#ped8b2d0b22)" d="M 447.214895 643.781526 
Q 336.284767 475.531079 225.970055 308.214048 
" style="fill:none;stroke:#000000;stroke-linecap:round;"/>
    <path clip-path="url(#ped8b2d0b22)" d="M 226.502087 312.654424 
L 225.970055 308.214048 
L 229.841575 310.452648 
L 226.502087 312.654424 
z
" style="stroke:#000000;stroke-linecap:round;"/>
   </g>
   <g id="patch_6">
    <path clip-path="url(#ped8b2d0b22)" d="M 601.6021 492.528627 
Q 527.870646 568.480883 454.917946 643.630928 
" style="fill:none;stroke:#000000;stroke-linecap:round;"/>
    <path clip-path="url(#ped8b2d0b22)" d="M 459.13914 642.153931 
L 454.917946 643.630928 
L 456.269065 639.367775 
L 459.13914 642.153931 
z
" style="stroke:#000000;stroke-linecap:round;"/>
   </g>
   <g id="patch_7">
    <path clip-path="url(#ped8b2d0b22)" d="M 605.445794 481.527516 
Q 590.128666 325.589366 574.920832 170.763895 
" style="fill:none;stroke:#000000;stroke-linecap:round;"/>
    <path clip-path="url(#ped8b2d0b22)" d="M 573.321432 174.940247 
L 574.920832 170.763895 
L 577.302274 174.549226 
L 573.321432 174.940247 
z
" style="stroke:#000000;stroke-linecap:round;"/>
   </g>
   <g id="patch_8">
    <path clip-path="url(#ped8b2d0b22)" d="M 600.17999 490.472453 
Q 481.084178 542.005777 363.01446 593.095106 
" style="fill:none;stroke:#000000;stroke-linecap:round;"/>
    <path clip-path="url(#ped8b2d0b22)" d="M 367.479768 593.342151 
L 363.01446 593.095106 
L 365.891281 589.671087 
L 367.479768 593.342151 
z
" style="stroke:#000000;stroke-linecap:round;"/>
   </g>
   <g id="patch_9">
    <path clip-path="url(#ped8b2d0b22)" d="M 600.914462 484.089993 
Q 552.574738 448.186098 505.132559 412.948846 
" style="fill:none;stroke:#000000;stroke-linecap:round;"/>
    <path clip-path="url(#ped8b2d0b22)" d="M 507.151185 416.939479 
L 505.132559 412.948846 
L 509.536241 413.728325 
L 507.151185 416.939479 
z
" style="stroke:#000000;stroke-linecap:round;"/>
   </g>
   <g id="patch_10">
    <path clip-path="url(#ped8b2d0b22)" d="M 683.649411 602.741158 
Q 818.90263 655.967884 953.115478 708.785189 
" style="fill:none;stroke:#000000;stroke-linecap:round;"/>
    <path clip-path="url(#ped8b2d0b22)" d="M 950.125725 705.459324 
L 953.115478 708.785189 
L 948.660934 709.181472 
L 950.125725 705.459324 
z
" style="stroke:#000000;stroke-linecap:round;"/>
   </g>
   <g id="patch_11">
    <path clip-path="url(#ped8b2d0b22)" d="M 714.408861 416.349153 
Q 584.614368 466.897646 455.86169 517.040404 
" style="fill:none;stroke:#000000;stroke-linecap:round;"/>
    <path clip-path="url(#ped8b2d0b22)" d="M 460.314803 517.452457 
L 455.86169 517.040404 
L 458.863201 513.725146 
L 460.314803 517.452457 
z
" style="stroke:#000000;stroke-linecap:round;"/>
   </g>
   <g id="patch_12">
    <path clip-path="url(#ped8b2d0b22)" d="M 724.889446 425.838442 
Q 701.660498 509.050416 678.732161 591.185527 
" style="fill:none;stroke:#000000;stroke-linecap:round;"/>
    <path clip-path="url(#ped8b2d0b22)" d="M 681.734009 587.870575 
L 678.732161 591.185527 
L 677.881307 586.795078 
L 681.734009 587.870575 
z
" style="stroke:#000000;stroke-linecap:round;"/>
   </g>
   <g id="patch_13">
    <path clip-path="url(#ped8b2d0b22)" d="M 566.30726 164.466447 
Q 397.167564 231.629743 229.066976 298.380421 
" style="fill:none;stroke:#000000;stroke-linecap:round;"/>
    <path clip-path="url(#ped8b2d0b22)" d="M 233.522717 298.763011 
L 229.066976 298.380421 
L 232.046492 295.045382 
L 233.522717 298.763011 
z
" style="stroke:#000000;stroke-linecap:round;"/>
   </g>
   <g id="patch_14">
    <path clip-path="url(#ped8b2d0b22)" d="M 412.264496 318.708621 
Q 430.950002 480.804797 449.507474 641.790295 
" style="fill:none;stroke:#000000;stroke-linecap:round;"/>
    <path clip-path="url(#ped8b2d0b22)" d="M 451.036254 637.587577 
L 449.507474 641.790295 
L 447.062568 638.045641 
L 451.036254 637.587577 
z
" style="stroke:#000000;stroke-linecap:round;"/>
   </g>
   <g id="patch_15">
    <path clip-path="url(#ped8b2d0b22)" d="M 415.340124 310.318489 
Q 491.653362 238.696933 567.151369 167.84049 
" style="fill:none;stroke:#000000;stroke-linecap:round;"/>
    <path clip-path="url(#ped8b2d0b22)" d="M 562.866032 169.119507 
L 567.151369 167.84049 
L 565.60338 172.03617 
L 562.866032 169.119507 
z
" style="stroke:#000000;stroke-linecap:round;"/>
   </g>
   <g id="patch_16">
    <path clip-path="url(#ped8b2d0b22)" d="M 406.702628 313.41846 
Q 317.605908 307.635218 229.624873 301.924394 
" style="fill:none;stroke:#000000;stroke-linecap:round;"/>
    <path clip-path="url(#ped8b2d0b22)" d="M 233.486926 304.179287 
L 229.624873 301.924394 
L 233.74602 300.187687 
L 233.486926 304.179287 
z
" style="stroke:#000000;stroke-linecap:round;"/>
   </g>
   <g id="patch_17">
    <path clip-path="url(#ped8b2d0b22)" d="M 569.393995 386.380383 
Q 510.980559 514.873931 453.029817 642.34968 
" style="fill:none;stroke:#000000;stroke-linecap:round;"/>
    <path clip-path="url(#ped8b2d0b22)" d="M 456.505894 639.535984 
L 453.029817 642.34968 
L 452.864505 637.880601 
L 456.505894 639.535984 
z
" style="stroke:#000000;stroke-linecap:round;"/>
   </g>
   <g id="patch_18">
    <path clip-path="url(#ped8b2d0b22)" d="M 573.823909 365.972164 
Q 573.909412 267.832017 573.993941 170.809903 
" style="fill:none;stroke:#000000;stroke-linecap:round;"/>
    <path clip-path="url(#ped8b2d0b22)" d="M 571.990456 174.808159 
L 573.993941 170.809903 
L 575.990455 174.811644 
L 571.990456 174.808159 
z
" style="stroke:#000000;stroke-linecap:round;"/>
   </g>
   <g id="patch_19">
    <path clip-path="url(#ped8b2d0b22)" d="M 563.36579 374.424366 
Q 395.867118 338.646153 229.461815 303.101487 
" style="fill:none;stroke:#000000;stroke-linecap:round;"/>
    <path clip-path="url(#ped8b2d0b22)" d="M 232.95579 305.892928 
L 229.461815 303.101487 
L 233.791352 301.981172 
L 232.95579 305.892928 
z
" style="stroke:#000000;stroke-linecap:round;"/>
   </g>
   <g id="patch_20">
    <path clip-path="url(#ped8b2d0b22)" d="M 228.058722 303.924609 
Q 359.30386 354.340157 489.505317 404.354794 
" style="fill:none;stroke:#000000;stroke-linecap:round;"/>
    <path clip-path="url(#ped8b2d0b22)" d="M 486.488504 401.053455 
L 489.505317 404.354794 
L 485.054158 404.787441 
L 486.488504 401.053455 
z
" style="stroke:#000000;stroke-linecap:round;"/>
   </g>
   <g id="patch_21">
    <path clip-path="url(#ped8b2d0b22)" d="M 349.190818 588.547989 
Q 286.763991 448.189954 224.791518 308.85347 
" style="fill:none;stroke:#000000;stroke-linecap:round;"/>
    <path clip-path="url(#ped8b2d0b22)" d="M 224.589657 313.321048 
L 224.791518 308.85347 
L 228.244464 311.695505 
L 224.589657 313.321048 
z
" style="stroke:#000000;stroke-linecap:round;"/>
   </g>
   <g id="patch_22">
    <path clip-path="url(#ped8b2d0b22)" d="M 358.97916 589.694201 
Q 426.052963 501.7713 492.448645 414.737304 
" style="fill:none;stroke:#000000;stroke-linecap:round;"/>
    <path clip-path="url(#ped8b2d0b22)" d="M 488.432407 416.704491 
L 492.448645 414.737304 
L 491.612652 419.130607 
L 488.432407 416.704491 
z
" style="stroke:#000000;stroke-linecap:round;"/>
   </g>
   <g id="patch_23">
    <path clip-path="url(#ped8b2d0b22)" d="M 496.377031 415.317752 
Q 473.862762 529.14484 451.565431 641.875143 
" style="fill:none;stroke:#000000;stroke-linecap:round;"/>
    <path clip-path="url(#ped8b2d0b22)" d="M 454.303558 638.339233 
L 451.565431 641.875143 
L 450.379579 637.563095 
L 454.303558 638.339233 
z
" style="stroke:#000000;stroke-linecap:round;"/>
   </g>
   <g id="patch_24">
    <path clip-path="url(#ped8b2d0b22)" d="M 500.235119 400.050852 
Q 535.895665 284.687214 571.226026 170.391742 
" style="fill:none;stroke:#000000;stroke-linecap:round;"/>
    <path clip-path="url(#ped8b2d0b22)" d="M 568.133926 173.622675 
L 571.226026 170.391742 
L 571.955512 174.803981 
L 568.133926 173.622675 
z
" style="stroke:#000000;stroke-linecap:round;"/>
   </g>
   <g id="PathCollection_1">
    <path clip-path="url(#ped8b2d0b22)" d="M 441.042258 537.599961 
C 444.964115 537.599961 448.725871 536.041791 451.499043 533.268619 
C 454.272214 530.495447 455.830384 526.733692 455.830384 522.811835 
C 455.830384 518.889978 454.272214 515.128222 451.499043 512.355051 
C 448.725871 509.581879 444.964115 508.023709 441.042258 508.023709 
C 437.120401 508.023709 433.358646 509.581879 430.585474 512.355051 
C 427.812303 515.128222 426.254132 518.889978 426.254132 522.811835 
C 426.254132 526.733692 427.812303 530.495447 430.585474 533.268619 
C 433.358646 536.041791 437.120401 537.599961 441.042258 537.599961 
z
" style="fill:#b7cff9;stroke:#b7cff9;"/>
    <path clip-path="url(#ped8b2d0b22)" d="M 959.32562 716.78073 
C 960.797932 716.78073 962.21014 716.195774 963.251221 715.154693 
C 964.292303 714.113611 964.877259 712.701403 964.877259 711.229091 
C 964.877259 709.756779 964.292303 708.344571 963.251221 707.303489 
C 962.21014 706.262408 960.797932 705.677452 959.32562 705.677452 
C 957.853308 705.677452 956.4411 706.262408 955.400018 707.303489 
C 954.358937 708.344571 953.773981 709.756779 953.773981 711.229091 
C 953.773981 712.701403 954.358937 714.113611 955.400018 715.154693 
C 956.4411 716.195774 957.853308 716.78073 959.32562 716.78073 
z
" style="fill:#b40426;stroke:#b40426;"/>
    <path clip-path="url(#ped8b2d0b22)" d="M 450.271411 653.969057 
C 451.743723 653.969057 453.155931 653.384101 454.197012 652.34302 
C 455.238094 651.301938 455.82305 649.88973 455.82305 648.417418 
C 455.82305 646.945106 455.238094 645.532898 454.197012 644.491816 
C 453.155931 643.450735 451.743723 642.865779 450.271411 642.865779 
C 448.799099 642.865779 447.386891 643.450735 446.345809 644.491816 
C 445.304727 645.532898 444.719772 646.945106 444.719772 648.417418 
C 444.719772 649.88973 445.304727 651.301938 446.345809 652.34302 
C 447.386891 653.384101 448.799099 653.969057 450.271411 653.969057 
z
" style="fill:#8badfd;stroke:#8badfd;"/>
    <path clip-path="url(#ped8b2d0b22)" d="M 606.073909 494.34535 
C 607.777368 494.34535 609.411287 493.668559 610.615814 492.464031 
C 611.820341 491.259504 612.497133 489.625585 612.497133 487.922126 
C 612.497133 486.218667 611.820341 484.584748 610.615814 483.380221 
C 609.411287 482.175694 607.777368 481.498902 606.073909 481.498902 
C 604.37045 481.498902 602.736531 482.175694 601.532004 483.380221 
C 600.327476 484.584748 599.650685 486.218667 599.650685 487.922126 
C 599.650685 489.625585 600.327476 491.259504 601.532004 492.464031 
C 602.736531 493.668559 604.37045 494.34535 606.073909 494.34535 
z
" style="fill:#6e90f2;stroke:#6e90f2;"/>
    <path clip-path="url(#ped8b2d0b22)" d="M 676.312383 607.736175 
C 678.402816 607.736175 680.407912 606.905637 681.886072 605.427478 
C 683.364232 603.949318 684.19477 601.944222 684.19477 599.853788 
C 684.19477 597.763355 683.364232 595.758259 681.886072 594.280099 
C 680.407912 592.801939 678.402816 591.971401 676.312383 591.971401 
C 674.221949 591.971401 672.216853 592.801939 670.738693 594.280099 
C 669.260534 595.758259 668.429996 597.763355 668.429996 599.853788 
C 668.429996 601.944222 669.260534 603.949318 670.738693 605.427478 
C 672.216853 606.905637 674.221949 607.736175 676.312383 607.736175 
z
" style="fill:#6a8bef;stroke:#6a8bef;"/>
    <path clip-path="url(#ped8b2d0b22)" d="M 729.139929 426.423524 
C 733.333158 426.423524 737.355208 424.757536 740.320269 421.792476 
C 743.28533 418.827415 744.951317 414.805365 744.951317 410.612136 
C 744.951317 406.418906 743.28533 402.396857 740.320269 399.431796 
C 737.355208 396.466735 733.333158 394.800747 729.139929 394.800747 
C 724.9467 394.800747 720.92465 396.466735 717.959589 399.431796 
C 714.994528 402.396857 713.328541 406.418906 713.328541 410.612136 
C 713.328541 414.805365 714.994528 418.827415 717.959589 421.792476 
C 720.92465 424.757536 724.9467 426.423524 729.139929 426.423524 
z
" style="fill:#6180e9;stroke:#6180e9;"/>
    <path clip-path="url(#ped8b2d0b22)" d="M 574.002129 169.690695 
C 576.197954 169.690695 578.30414 168.818285 579.856822 167.265602 
C 581.409505 165.712919 582.281916 163.606734 582.281916 161.410909 
C 582.281916 159.215084 581.409505 157.108899 579.856822 155.556216 
C 578.30414 154.003533 576.197954 153.131123 574.002129 153.131123 
C 571.806304 153.131123 569.700119 154.003533 568.147436 155.556216 
C 566.594753 157.108899 565.722343 159.215084 565.722343 161.410909 
C 565.722343 163.606734 566.594753 165.712919 568.147436 167.265602 
C 569.700119 168.818285 571.806304 169.690695 574.002129 169.690695 
z
" style="fill:#b40426;stroke:#b40426;"/>
    <path clip-path="url(#ped8b2d0b22)" d="M 411.69201 318.74232 
C 413.018025 318.74232 414.289909 318.215488 415.227544 317.277854 
C 416.165178 316.340219 416.69201 315.068335 416.69201 313.74232 
C 416.69201 312.416304 416.165178 311.14442 415.227544 310.206786 
C 414.289909 309.269151 413.018025 308.74232 411.69201 308.74232 
C 410.365994 308.74232 409.094111 309.269151 408.156476 310.206786 
C 407.218841 311.14442 406.69201 312.416304 406.69201 313.74232 
C 406.69201 315.068335 407.218841 316.340219 408.156476 317.277854 
C 409.094111 318.215488 410.365994 318.74232 411.69201 318.74232 
z
" style="fill:#3b4cc0;stroke:#3b4cc0;"/>
    <path clip-path="url(#ped8b2d0b22)" d="M 573.814601 387.338812 
C 576.647646 387.338812 579.365038 386.213232 581.368304 384.209966 
C 583.371569 382.206701 584.49715 379.489308 584.49715 376.656263 
C 584.49715 373.823218 583.371569 371.105826 581.368304 369.10256 
C 579.365038 367.099295 576.647646 365.973714 573.814601 365.973714 
C 570.981555 365.973714 568.264163 367.099295 566.260898 369.10256 
C 564.257632 371.105826 563.132051 373.823218 563.132051 376.656263 
C 563.132051 379.489308 564.257632 382.206701 566.260898 384.209966 
C 568.264163 386.213232 570.981555 387.338812 573.814601 387.338812 
z
" style="fill:#b40426;stroke:#b40426;"/>
    <path clip-path="url(#ped8b2d0b22)" d="M 221.47438 308.444303 
C 223.343785 308.444303 225.136876 307.701581 226.458745 306.379712 
C 227.780614 305.057843 228.523336 303.264753 228.523336 301.395348 
C 228.523336 299.525943 227.780614 297.732852 226.458745 296.410983 
C 225.136876 295.089114 223.343785 294.346392 221.47438 294.346392 
C 219.604975 294.346392 217.811885 295.089114 216.490016 296.410983 
C 215.168147 297.732852 214.425424 299.525943 214.425424 301.395348 
C 214.425424 303.264753 215.168147 305.057843 216.490016 306.379712 
C 217.811885 307.701581 219.604975 308.444303 221.47438 308.444303 
z
" style="fill:#b40426;stroke:#b40426;"/>
    <path clip-path="url(#ped8b2d0b22)" d="M 353.117866 607.04402 
C 355.681481 607.04402 358.140442 606.025485 359.953191 604.212735 
C 361.765941 602.399986 362.784476 599.941025 362.784476 597.37741 
C 362.784476 594.813795 361.765941 592.354833 359.953191 590.542084 
C 358.140442 588.729334 355.681481 587.710799 353.117866 587.710799 
C 350.554251 587.710799 348.095289 588.729334 346.28254 590.542084 
C 344.46979 592.354833 343.451255 594.813795 343.451255 597.37741 
C 343.451255 599.941025 344.46979 602.399986 346.28254 604.212735 
C 348.095289 606.025485 350.554251 607.04402 353.117866 607.04402 
z
" style="fill:#b40426;stroke:#b40426;"/>
    <path clip-path="url(#ped8b2d0b22)" d="M 497.907076 415.464571 
C 499.99751 415.464571 502.002606 414.634033 503.480766 413.155873 
C 504.958925 411.677714 505.789463 409.672618 505.789463 407.582184 
C 505.789463 405.491751 504.958925 403.486654 503.480766 402.008495 
C 502.002606 400.530335 499.99751 399.699797 497.907076 399.699797 
C 495.816643 399.699797 493.811547 400.530335 492.333387 402.008495 
C 490.855227 403.486654 490.024689 405.491751 490.024689 407.582184 
C 490.024689 409.672618 490.855227 411.677714 492.333387 413.155873 
C 493.811547 414.634033 495.816643 415.464571 497.907076 415.464571 
z
" style="fill:#e57058;stroke:#e57058;"/>
   </g>
   <g id="text_1">
    <g clip-path="url(#ped8b2d0b22)">
     <!-- DLD -->
     <g transform="translate(430.556321 525.57121)scale(0.1 -0.1)">
      <defs>
       <path d="M 19.671875 64.796875 
L 19.671875 8.109375 
L 31.59375 8.109375 
Q 46.6875 8.109375 53.6875 14.9375 
Q 60.6875 21.78125 60.6875 36.53125 
Q 60.6875 51.171875 53.6875 57.984375 
Q 46.6875 64.796875 31.59375 64.796875 
z
M 9.8125 72.90625 
L 30.078125 72.90625 
Q 51.265625 72.90625 61.171875 64.09375 
Q 71.09375 55.28125 71.09375 36.53125 
Q 71.09375 17.671875 61.125 8.828125 
Q 51.171875 0 30.078125 0 
L 9.8125 0 
z
" id="DejaVuSans-68"/>
       <path d="M 9.8125 72.90625 
L 19.671875 72.90625 
L 19.671875 8.296875 
L 55.171875 8.296875 
L 55.171875 0 
L 9.8125 0 
z
" id="DejaVuSans-76"/>
      </defs>
      <use xlink:href="#DejaVuSans-68"/>
      <use x="77.001953" xlink:href="#DejaVuSans-76"/>
      <use x="132.714844" xlink:href="#DejaVuSans-68"/>
     </g>
    </g>
   </g>
   <g id="text_2">
    <g clip-path="url(#ped8b2d0b22)">
     <!-- IDH1 -->
     <g transform="translate(947.059214 713.988466)scale(0.1 -0.1)">
      <defs>
       <path d="M 9.8125 72.90625 
L 19.671875 72.90625 
L 19.671875 0 
L 9.8125 0 
z
" id="DejaVuSans-73"/>
       <path d="M 9.8125 72.90625 
L 19.671875 72.90625 
L 19.671875 43.015625 
L 55.515625 43.015625 
L 55.515625 72.90625 
L 65.375 72.90625 
L 65.375 0 
L 55.515625 0 
L 55.515625 34.71875 
L 19.671875 34.71875 
L 19.671875 0 
L 9.8125 0 
z
" id="DejaVuSans-72"/>
       <path d="M 12.40625 8.296875 
L 28.515625 8.296875 
L 28.515625 63.921875 
L 10.984375 60.40625 
L 10.984375 69.390625 
L 28.421875 72.90625 
L 38.28125 72.90625 
L 38.28125 8.296875 
L 54.390625 8.296875 
L 54.390625 0 
L 12.40625 0 
z
" id="DejaVuSans-49"/>
      </defs>
      <use xlink:href="#DejaVuSans-73"/>
      <use x="29.492188" xlink:href="#DejaVuSans-68"/>
      <use x="106.494141" xlink:href="#DejaVuSans-72"/>
      <use x="181.689453" xlink:href="#DejaVuSans-49"/>
     </g>
    </g>
   </g>
   <g id="text_3">
    <g clip-path="url(#ped8b2d0b22)">
     <!-- CS -->
     <g transform="translate(443.605786 651.176793)scale(0.1 -0.1)">
      <defs>
       <path d="M 64.40625 67.28125 
L 64.40625 56.890625 
Q 59.421875 61.53125 53.78125 63.8125 
Q 48.140625 66.109375 41.796875 66.109375 
Q 29.296875 66.109375 22.65625 58.46875 
Q 16.015625 50.828125 16.015625 36.375 
Q 16.015625 21.96875 22.65625 14.328125 
Q 29.296875 6.6875 41.796875 6.6875 
Q 48.140625 6.6875 53.78125 8.984375 
Q 59.421875 11.28125 64.40625 15.921875 
L 64.40625 5.609375 
Q 59.234375 2.09375 53.4375 0.328125 
Q 47.65625 -1.421875 41.21875 -1.421875 
Q 24.65625 -1.421875 15.125 8.703125 
Q 5.609375 18.84375 5.609375 36.375 
Q 5.609375 53.953125 15.125 64.078125 
Q 24.65625 74.21875 41.21875 74.21875 
Q 47.75 74.21875 53.53125 72.484375 
Q 59.328125 70.75 64.40625 67.28125 
z
" id="DejaVuSans-67"/>
       <path d="M 53.515625 70.515625 
L 53.515625 60.890625 
Q 47.90625 63.578125 42.921875 64.890625 
Q 37.9375 66.21875 33.296875 66.21875 
Q 25.25 66.21875 20.875 63.09375 
Q 16.5 59.96875 16.5 54.203125 
Q 16.5 49.359375 19.40625 46.890625 
Q 22.3125 44.4375 30.421875 42.921875 
L 36.375 41.703125 
Q 47.40625 39.59375 52.65625 34.296875 
Q 57.90625 29 57.90625 20.125 
Q 57.90625 9.515625 50.796875 4.046875 
Q 43.703125 -1.421875 29.984375 -1.421875 
Q 24.8125 -1.421875 18.96875 -0.25 
Q 13.140625 0.921875 6.890625 3.21875 
L 6.890625 13.375 
Q 12.890625 10.015625 18.65625 8.296875 
Q 24.421875 6.59375 29.984375 6.59375 
Q 38.421875 6.59375 43.015625 9.90625 
Q 47.609375 13.234375 47.609375 19.390625 
Q 47.609375 24.75 44.3125 27.78125 
Q 41.015625 30.8125 33.5 32.328125 
L 27.484375 33.5 
Q 16.453125 35.6875 11.515625 40.375 
Q 6.59375 45.0625 6.59375 53.421875 
Q 6.59375 63.09375 13.40625 68.65625 
Q 20.21875 74.21875 32.171875 74.21875 
Q 37.3125 74.21875 42.625 73.28125 
Q 47.953125 72.359375 53.515625 70.515625 
z
" id="DejaVuSans-83"/>
      </defs>
      <use xlink:href="#DejaVuSans-67"/>
      <use x="69.824219" xlink:href="#DejaVuSans-83"/>
     </g>
    </g>
   </g>
   <g id="text_4">
    <g clip-path="url(#ped8b2d0b22)">
     <!-- DLAT -->
     <g transform="translate(593.238753 490.681501)scale(0.1 -0.1)">
      <defs>
       <path d="M 34.1875 63.1875 
L 20.796875 26.90625 
L 47.609375 26.90625 
z
M 28.609375 72.90625 
L 39.796875 72.90625 
L 67.578125 0 
L 57.328125 0 
L 50.6875 18.703125 
L 17.828125 18.703125 
L 11.1875 0 
L 0.78125 0 
z
" id="DejaVuSans-65"/>
       <path d="M -0.296875 72.90625 
L 61.375 72.90625 
L 61.375 64.59375 
L 35.5 64.59375 
L 35.5 0 
L 25.59375 0 
L 25.59375 64.59375 
L -0.296875 64.59375 
z
" id="DejaVuSans-84"/>
      </defs>
      <use xlink:href="#DejaVuSans-68"/>
      <use x="77.001953" xlink:href="#DejaVuSans-76"/>
      <use x="134.964844" xlink:href="#DejaVuSans-65"/>
      <use x="195.623047" xlink:href="#DejaVuSans-84"/>
     </g>
    </g>
   </g>
   <g id="text_5">
    <g clip-path="url(#ped8b2d0b22)">
     <!-- OGDH -->
     <g transform="translate(660.89207 602.613163)scale(0.1 -0.1)">
      <defs>
       <path d="M 39.40625 66.21875 
Q 28.65625 66.21875 22.328125 58.203125 
Q 16.015625 50.203125 16.015625 36.375 
Q 16.015625 22.609375 22.328125 14.59375 
Q 28.65625 6.59375 39.40625 6.59375 
Q 50.140625 6.59375 56.421875 14.59375 
Q 62.703125 22.609375 62.703125 36.375 
Q 62.703125 50.203125 56.421875 58.203125 
Q 50.140625 66.21875 39.40625 66.21875 
z
M 39.40625 74.21875 
Q 54.734375 74.21875 63.90625 63.9375 
Q 73.09375 53.65625 73.09375 36.375 
Q 73.09375 19.140625 63.90625 8.859375 
Q 54.734375 -1.421875 39.40625 -1.421875 
Q 24.03125 -1.421875 14.8125 8.828125 
Q 5.609375 19.09375 5.609375 36.375 
Q 5.609375 53.65625 14.8125 63.9375 
Q 24.03125 74.21875 39.40625 74.21875 
z
" id="DejaVuSans-79"/>
       <path d="M 59.515625 10.40625 
L 59.515625 29.984375 
L 43.40625 29.984375 
L 43.40625 38.09375 
L 69.28125 38.09375 
L 69.28125 6.78125 
Q 63.578125 2.734375 56.6875 0.65625 
Q 49.8125 -1.421875 42 -1.421875 
Q 24.90625 -1.421875 15.25 8.5625 
Q 5.609375 18.5625 5.609375 36.375 
Q 5.609375 54.25 15.25 64.234375 
Q 24.90625 74.21875 42 74.21875 
Q 49.125 74.21875 55.546875 72.453125 
Q 61.96875 70.703125 67.390625 67.28125 
L 67.390625 56.78125 
Q 61.921875 61.421875 55.765625 63.765625 
Q 49.609375 66.109375 42.828125 66.109375 
Q 29.4375 66.109375 22.71875 58.640625 
Q 16.015625 51.171875 16.015625 36.375 
Q 16.015625 21.625 22.71875 14.15625 
Q 29.4375 6.6875 42.828125 6.6875 
Q 48.046875 6.6875 52.140625 7.59375 
Q 56.25 8.5 59.515625 10.40625 
z
" id="DejaVuSans-71"/>
      </defs>
      <use xlink:href="#DejaVuSans-79"/>
      <use x="78.710938" xlink:href="#DejaVuSans-71"/>
      <use x="156.201172" xlink:href="#DejaVuSans-68"/>
      <use x="233.203125" xlink:href="#DejaVuSans-72"/>
     </g>
    </g>
   </g>
   <g id="text_6">
    <g clip-path="url(#ped8b2d0b22)">
     <!-- DLST -->
     <g transform="translate(716.275866 413.371511)scale(0.1 -0.1)">
      <use xlink:href="#DejaVuSans-68"/>
      <use x="77.001953" xlink:href="#DejaVuSans-76"/>
      <use x="132.714844" xlink:href="#DejaVuSans-83"/>
      <use x="196.191406" xlink:href="#DejaVuSans-84"/>
     </g>
    </g>
   </g>
   <g id="text_7">
    <g clip-path="url(#ped8b2d0b22)">
     <!-- ACLY -->
     <g transform="translate(562.000567 164.170284)scale(0.1 -0.1)">
      <defs>
       <path d="M -0.203125 72.90625 
L 10.40625 72.90625 
L 30.609375 42.921875 
L 50.6875 72.90625 
L 61.28125 72.90625 
L 35.5 34.71875 
L 35.5 0 
L 25.59375 0 
L 25.59375 34.71875 
z
" id="DejaVuSans-89"/>
      </defs>
      <use xlink:href="#DejaVuSans-65"/>
      <use x="66.658203" xlink:href="#DejaVuSans-67"/>
      <use x="136.482422" xlink:href="#DejaVuSans-76"/>
      <use x="178.945312" xlink:href="#DejaVuSans-89"/>
     </g>
    </g>
   </g>
   <g id="text_8">
    <g clip-path="url(#ped8b2d0b22)">
     <!-- MDH1 -->
     <g transform="translate(396.586541 316.501695)scale(0.1 -0.1)">
      <defs>
       <path d="M 9.8125 72.90625 
L 24.515625 72.90625 
L 43.109375 23.296875 
L 61.8125 72.90625 
L 76.515625 72.90625 
L 76.515625 0 
L 66.890625 0 
L 66.890625 64.015625 
L 48.09375 14.015625 
L 38.1875 14.015625 
L 19.390625 64.015625 
L 19.390625 0 
L 9.8125 0 
z
" id="DejaVuSans-77"/>
      </defs>
      <use xlink:href="#DejaVuSans-77"/>
      <use x="86.279297" xlink:href="#DejaVuSans-68"/>
      <use x="163.28125" xlink:href="#DejaVuSans-72"/>
      <use x="238.476562" xlink:href="#DejaVuSans-49"/>
     </g>
    </g>
   </g>
   <g id="text_9">
    <g clip-path="url(#ped8b2d0b22)">
     <!-- MDH2 -->
     <g transform="translate(558.709132 379.415638)scale(0.1 -0.1)">
      <defs>
       <path d="M 19.1875 8.296875 
L 53.609375 8.296875 
L 53.609375 0 
L 7.328125 0 
L 7.328125 8.296875 
Q 12.9375 14.109375 22.625 23.890625 
Q 32.328125 33.6875 34.8125 36.53125 
Q 39.546875 41.84375 41.421875 45.53125 
Q 43.3125 49.21875 43.3125 52.78125 
Q 43.3125 58.59375 39.234375 62.25 
Q 35.15625 65.921875 28.609375 65.921875 
Q 23.96875 65.921875 18.8125 64.3125 
Q 13.671875 62.703125 7.8125 59.421875 
L 7.8125 69.390625 
Q 13.765625 71.78125 18.9375 73 
Q 24.125 74.21875 28.421875 74.21875 
Q 39.75 74.21875 46.484375 68.546875 
Q 53.21875 62.890625 53.21875 53.421875 
Q 53.21875 48.921875 51.53125 44.890625 
Q 49.859375 40.875 45.40625 35.40625 
Q 44.1875 33.984375 37.640625 27.21875 
Q 31.109375 20.453125 19.1875 8.296875 
z
" id="DejaVuSans-50"/>
      </defs>
      <use xlink:href="#DejaVuSans-77"/>
      <use x="86.279297" xlink:href="#DejaVuSans-68"/>
      <use x="163.28125" xlink:href="#DejaVuSans-72"/>
      <use x="238.476562" xlink:href="#DejaVuSans-50"/>
     </g>
    </g>
   </g>
   <g id="text_10">
    <g clip-path="url(#ped8b2d0b22)">
     <!-- PC -->
     <g transform="translate(214.96813 304.154723)scale(0.1 -0.1)">
      <defs>
       <path d="M 19.671875 64.796875 
L 19.671875 37.40625 
L 32.078125 37.40625 
Q 38.96875 37.40625 42.71875 40.96875 
Q 46.484375 44.53125 46.484375 51.125 
Q 46.484375 57.671875 42.71875 61.234375 
Q 38.96875 64.796875 32.078125 64.796875 
z
M 9.8125 72.90625 
L 32.078125 72.90625 
Q 44.34375 72.90625 50.609375 67.359375 
Q 56.890625 61.8125 56.890625 51.125 
Q 56.890625 40.328125 50.609375 34.8125 
Q 44.34375 29.296875 32.078125 29.296875 
L 19.671875 29.296875 
L 19.671875 0 
L 9.8125 0 
z
" id="DejaVuSans-80"/>
      </defs>
      <use xlink:href="#DejaVuSans-80"/>
      <use x="60.302734" xlink:href="#DejaVuSans-67"/>
     </g>
    </g>
   </g>
   <g id="text_11">
    <g clip-path="url(#ped8b2d0b22)">
     <!-- PDHB -->
     <g transform="translate(339.062397 600.136785)scale(0.1 -0.1)">
      <defs>
       <path d="M 19.671875 34.8125 
L 19.671875 8.109375 
L 35.5 8.109375 
Q 43.453125 8.109375 47.28125 11.40625 
Q 51.125 14.703125 51.125 21.484375 
Q 51.125 28.328125 47.28125 31.5625 
Q 43.453125 34.8125 35.5 34.8125 
z
M 19.671875 64.796875 
L 19.671875 42.828125 
L 34.28125 42.828125 
Q 41.5 42.828125 45.03125 45.53125 
Q 48.578125 48.25 48.578125 53.8125 
Q 48.578125 59.328125 45.03125 62.0625 
Q 41.5 64.796875 34.28125 64.796875 
z
M 9.8125 72.90625 
L 35.015625 72.90625 
Q 46.296875 72.90625 52.390625 68.21875 
Q 58.5 63.53125 58.5 54.890625 
Q 58.5 48.1875 55.375 44.234375 
Q 52.25 40.28125 46.1875 39.3125 
Q 53.46875 37.75 57.5 32.78125 
Q 61.53125 27.828125 61.53125 20.40625 
Q 61.53125 10.640625 54.890625 5.3125 
Q 48.25 0 35.984375 0 
L 9.8125 0 
z
" id="DejaVuSans-66"/>
      </defs>
      <use xlink:href="#DejaVuSans-80"/>
      <use x="60.302734" xlink:href="#DejaVuSans-68"/>
      <use x="137.304688" xlink:href="#DejaVuSans-72"/>
      <use x="212.5" xlink:href="#DejaVuSans-66"/>
     </g>
    </g>
   </g>
   <g id="text_12">
    <g clip-path="url(#ped8b2d0b22)">
     <!-- POR -->
     <g transform="translate(487.482076 410.341559)scale(0.1 -0.1)">
      <defs>
       <path d="M 44.390625 34.1875 
Q 47.5625 33.109375 50.5625 29.59375 
Q 53.5625 26.078125 56.59375 19.921875 
L 66.609375 0 
L 56 0 
L 46.6875 18.703125 
Q 43.0625 26.03125 39.671875 28.421875 
Q 36.28125 30.8125 30.421875 30.8125 
L 19.671875 30.8125 
L 19.671875 0 
L 9.8125 0 
L 9.8125 72.90625 
L 32.078125 72.90625 
Q 44.578125 72.90625 50.734375 67.671875 
Q 56.890625 62.453125 56.890625 51.90625 
Q 56.890625 45.015625 53.6875 40.46875 
Q 50.484375 35.9375 44.390625 34.1875 
z
M 19.671875 64.796875 
L 19.671875 38.921875 
L 32.078125 38.921875 
Q 39.203125 38.921875 42.84375 42.21875 
Q 46.484375 45.515625 46.484375 51.90625 
Q 46.484375 58.296875 42.84375 61.546875 
Q 39.203125 64.796875 32.078125 64.796875 
z
" id="DejaVuSans-82"/>
      </defs>
      <use xlink:href="#DejaVuSans-80"/>
      <use x="60.302734" xlink:href="#DejaVuSans-79"/>
      <use x="139.013672" xlink:href="#DejaVuSans-82"/>
     </g>
    </g>
   </g>
   <g id="text_13">
    <!-- Importance Score and Relative Abundance for network hsa00020 for dataset george_hiv -->
    <g transform="translate(324.563437 97.68)scale(0.12 -0.12)">
     <defs>
      <path d="M 52 44.1875 
Q 55.375 50.25 60.0625 53.125 
Q 64.75 56 71.09375 56 
Q 79.640625 56 84.28125 50.015625 
Q 88.921875 44.046875 88.921875 33.015625 
L 88.921875 0 
L 79.890625 0 
L 79.890625 32.71875 
Q 79.890625 40.578125 77.09375 44.375 
Q 74.3125 48.1875 68.609375 48.1875 
Q 61.625 48.1875 57.5625 43.546875 
Q 53.515625 38.921875 53.515625 30.90625 
L 53.515625 0 
L 44.484375 0 
L 44.484375 32.71875 
Q 44.484375 40.625 41.703125 44.40625 
Q 38.921875 48.1875 33.109375 48.1875 
Q 26.21875 48.1875 22.15625 43.53125 
Q 18.109375 38.875 18.109375 30.90625 
L 18.109375 0 
L 9.078125 0 
L 9.078125 54.6875 
L 18.109375 54.6875 
L 18.109375 46.1875 
Q 21.1875 51.21875 25.484375 53.609375 
Q 29.78125 56 35.6875 56 
Q 41.65625 56 45.828125 52.96875 
Q 50 49.953125 52 44.1875 
z
" id="DejaVuSans-109"/>
      <path d="M 18.109375 8.203125 
L 18.109375 -20.796875 
L 9.078125 -20.796875 
L 9.078125 54.6875 
L 18.109375 54.6875 
L 18.109375 46.390625 
Q 20.953125 51.265625 25.265625 53.625 
Q 29.59375 56 35.59375 56 
Q 45.5625 56 51.78125 48.09375 
Q 58.015625 40.1875 58.015625 27.296875 
Q 58.015625 14.40625 51.78125 6.484375 
Q 45.5625 -1.421875 35.59375 -1.421875 
Q 29.59375 -1.421875 25.265625 0.953125 
Q 20.953125 3.328125 18.109375 8.203125 
z
M 48.6875 27.296875 
Q 48.6875 37.203125 44.609375 42.84375 
Q 40.53125 48.484375 33.40625 48.484375 
Q 26.265625 48.484375 22.1875 42.84375 
Q 18.109375 37.203125 18.109375 27.296875 
Q 18.109375 17.390625 22.1875 11.75 
Q 26.265625 6.109375 33.40625 6.109375 
Q 40.53125 6.109375 44.609375 11.75 
Q 48.6875 17.390625 48.6875 27.296875 
z
" id="DejaVuSans-112"/>
      <path d="M 30.609375 48.390625 
Q 23.390625 48.390625 19.1875 42.75 
Q 14.984375 37.109375 14.984375 27.296875 
Q 14.984375 17.484375 19.15625 11.84375 
Q 23.34375 6.203125 30.609375 6.203125 
Q 37.796875 6.203125 41.984375 11.859375 
Q 46.1875 17.53125 46.1875 27.296875 
Q 46.1875 37.015625 41.984375 42.703125 
Q 37.796875 48.390625 30.609375 48.390625 
z
M 30.609375 56 
Q 42.328125 56 49.015625 48.375 
Q 55.71875 40.765625 55.71875 27.296875 
Q 55.71875 13.875 49.015625 6.21875 
Q 42.328125 -1.421875 30.609375 -1.421875 
Q 18.84375 -1.421875 12.171875 6.21875 
Q 5.515625 13.875 5.515625 27.296875 
Q 5.515625 40.765625 12.171875 48.375 
Q 18.84375 56 30.609375 56 
z
" id="DejaVuSans-111"/>
      <path d="M 41.109375 46.296875 
Q 39.59375 47.171875 37.8125 47.578125 
Q 36.03125 48 33.890625 48 
Q 26.265625 48 22.1875 43.046875 
Q 18.109375 38.09375 18.109375 28.8125 
L 18.109375 0 
L 9.078125 0 
L 9.078125 54.6875 
L 18.109375 54.6875 
L 18.109375 46.1875 
Q 20.953125 51.171875 25.484375 53.578125 
Q 30.03125 56 36.53125 56 
Q 37.453125 56 38.578125 55.875 
Q 39.703125 55.765625 41.0625 55.515625 
z
" id="DejaVuSans-114"/>
      <path d="M 18.3125 70.21875 
L 18.3125 54.6875 
L 36.8125 54.6875 
L 36.8125 47.703125 
L 18.3125 47.703125 
L 18.3125 18.015625 
Q 18.3125 11.328125 20.140625 9.421875 
Q 21.96875 7.515625 27.59375 7.515625 
L 36.8125 7.515625 
L 36.8125 0 
L 27.59375 0 
Q 17.1875 0 13.234375 3.875 
Q 9.28125 7.765625 9.28125 18.015625 
L 9.28125 47.703125 
L 2.6875 47.703125 
L 2.6875 54.6875 
L 9.28125 54.6875 
L 9.28125 70.21875 
z
" id="DejaVuSans-116"/>
      <path d="M 34.28125 27.484375 
Q 23.390625 27.484375 19.1875 25 
Q 14.984375 22.515625 14.984375 16.5 
Q 14.984375 11.71875 18.140625 8.90625 
Q 21.296875 6.109375 26.703125 6.109375 
Q 34.1875 6.109375 38.703125 11.40625 
Q 43.21875 16.703125 43.21875 25.484375 
L 43.21875 27.484375 
z
M 52.203125 31.203125 
L 52.203125 0 
L 43.21875 0 
L 43.21875 8.296875 
Q 40.140625 3.328125 35.546875 0.953125 
Q 30.953125 -1.421875 24.3125 -1.421875 
Q 15.921875 -1.421875 10.953125 3.296875 
Q 6 8.015625 6 15.921875 
Q 6 25.140625 12.171875 29.828125 
Q 18.359375 34.515625 30.609375 34.515625 
L 43.21875 34.515625 
L 43.21875 35.40625 
Q 43.21875 41.609375 39.140625 45 
Q 35.0625 48.390625 27.6875 48.390625 
Q 23 48.390625 18.546875 47.265625 
Q 14.109375 46.140625 10.015625 43.890625 
L 10.015625 52.203125 
Q 14.9375 54.109375 19.578125 55.046875 
Q 24.21875 56 28.609375 56 
Q 40.484375 56 46.34375 49.84375 
Q 52.203125 43.703125 52.203125 31.203125 
z
" id="DejaVuSans-97"/>
      <path d="M 54.890625 33.015625 
L 54.890625 0 
L 45.90625 0 
L 45.90625 32.71875 
Q 45.90625 40.484375 42.875 44.328125 
Q 39.84375 48.1875 33.796875 48.1875 
Q 26.515625 48.1875 22.3125 43.546875 
Q 18.109375 38.921875 18.109375 30.90625 
L 18.109375 0 
L 9.078125 0 
L 9.078125 54.6875 
L 18.109375 54.6875 
L 18.109375 46.1875 
Q 21.34375 51.125 25.703125 53.5625 
Q 30.078125 56 35.796875 56 
Q 45.21875 56 50.046875 50.171875 
Q 54.890625 44.34375 54.890625 33.015625 
z
" id="DejaVuSans-110"/>
      <path d="M 48.78125 52.59375 
L 48.78125 44.1875 
Q 44.96875 46.296875 41.140625 47.34375 
Q 37.3125 48.390625 33.40625 48.390625 
Q 24.65625 48.390625 19.8125 42.84375 
Q 14.984375 37.3125 14.984375 27.296875 
Q 14.984375 17.28125 19.8125 11.734375 
Q 24.65625 6.203125 33.40625 6.203125 
Q 37.3125 6.203125 41.140625 7.25 
Q 44.96875 8.296875 48.78125 10.40625 
L 48.78125 2.09375 
Q 45.015625 0.34375 40.984375 -0.53125 
Q 36.96875 -1.421875 32.421875 -1.421875 
Q 20.0625 -1.421875 12.78125 6.34375 
Q 5.515625 14.109375 5.515625 27.296875 
Q 5.515625 40.671875 12.859375 48.328125 
Q 20.21875 56 33.015625 56 
Q 37.15625 56 41.109375 55.140625 
Q 45.0625 54.296875 48.78125 52.59375 
z
" id="DejaVuSans-99"/>
      <path d="M 56.203125 29.59375 
L 56.203125 25.203125 
L 14.890625 25.203125 
Q 15.484375 15.921875 20.484375 11.0625 
Q 25.484375 6.203125 34.421875 6.203125 
Q 39.59375 6.203125 44.453125 7.46875 
Q 49.3125 8.734375 54.109375 11.28125 
L 54.109375 2.78125 
Q 49.265625 0.734375 44.1875 -0.34375 
Q 39.109375 -1.421875 33.890625 -1.421875 
Q 20.796875 -1.421875 13.15625 6.1875 
Q 5.515625 13.8125 5.515625 26.8125 
Q 5.515625 40.234375 12.765625 48.109375 
Q 20.015625 56 32.328125 56 
Q 43.359375 56 49.78125 48.890625 
Q 56.203125 41.796875 56.203125 29.59375 
z
M 47.21875 32.234375 
Q 47.125 39.59375 43.09375 43.984375 
Q 39.0625 48.390625 32.421875 48.390625 
Q 24.90625 48.390625 20.390625 44.140625 
Q 15.875 39.890625 15.1875 32.171875 
z
" id="DejaVuSans-101"/>
      <path id="DejaVuSans-32"/>
      <path d="M 45.40625 46.390625 
L 45.40625 75.984375 
L 54.390625 75.984375 
L 54.390625 0 
L 45.40625 0 
L 45.40625 8.203125 
Q 42.578125 3.328125 38.25 0.953125 
Q 33.9375 -1.421875 27.875 -1.421875 
Q 17.96875 -1.421875 11.734375 6.484375 
Q 5.515625 14.40625 5.515625 27.296875 
Q 5.515625 40.1875 11.734375 48.09375 
Q 17.96875 56 27.875 56 
Q 33.9375 56 38.25 53.625 
Q 42.578125 51.265625 45.40625 46.390625 
z
M 14.796875 27.296875 
Q 14.796875 17.390625 18.875 11.75 
Q 22.953125 6.109375 30.078125 6.109375 
Q 37.203125 6.109375 41.296875 11.75 
Q 45.40625 17.390625 45.40625 27.296875 
Q 45.40625 37.203125 41.296875 42.84375 
Q 37.203125 48.484375 30.078125 48.484375 
Q 22.953125 48.484375 18.875 42.84375 
Q 14.796875 37.203125 14.796875 27.296875 
z
" id="DejaVuSans-100"/>
      <path d="M 9.421875 75.984375 
L 18.40625 75.984375 
L 18.40625 0 
L 9.421875 0 
z
" id="DejaVuSans-108"/>
      <path d="M 9.421875 54.6875 
L 18.40625 54.6875 
L 18.40625 0 
L 9.421875 0 
z
M 9.421875 75.984375 
L 18.40625 75.984375 
L 18.40625 64.59375 
L 9.421875 64.59375 
z
" id="DejaVuSans-105"/>
      <path d="M 2.984375 54.6875 
L 12.5 54.6875 
L 29.59375 8.796875 
L 46.6875 54.6875 
L 56.203125 54.6875 
L 35.6875 0 
L 23.484375 0 
z
" id="DejaVuSans-118"/>
      <path d="M 48.6875 27.296875 
Q 48.6875 37.203125 44.609375 42.84375 
Q 40.53125 48.484375 33.40625 48.484375 
Q 26.265625 48.484375 22.1875 42.84375 
Q 18.109375 37.203125 18.109375 27.296875 
Q 18.109375 17.390625 22.1875 11.75 
Q 26.265625 6.109375 33.40625 6.109375 
Q 40.53125 6.109375 44.609375 11.75 
Q 48.6875 17.390625 48.6875 27.296875 
z
M 18.109375 46.390625 
Q 20.953125 51.265625 25.265625 53.625 
Q 29.59375 56 35.59375 56 
Q 45.5625 56 51.78125 48.09375 
Q 58.015625 40.1875 58.015625 27.296875 
Q 58.015625 14.40625 51.78125 6.484375 
Q 45.5625 -1.421875 35.59375 -1.421875 
Q 29.59375 -1.421875 25.265625 0.953125 
Q 20.953125 3.328125 18.109375 8.203125 
L 18.109375 0 
L 9.078125 0 
L 9.078125 75.984375 
L 18.109375 75.984375 
z
" id="DejaVuSans-98"/>
      <path d="M 8.5 21.578125 
L 8.5 54.6875 
L 17.484375 54.6875 
L 17.484375 21.921875 
Q 17.484375 14.15625 20.5 10.265625 
Q 23.53125 6.390625 29.59375 6.390625 
Q 36.859375 6.390625 41.078125 11.03125 
Q 45.3125 15.671875 45.3125 23.6875 
L 45.3125 54.6875 
L 54.296875 54.6875 
L 54.296875 0 
L 45.3125 0 
L 45.3125 8.40625 
Q 42.046875 3.421875 37.71875 1 
Q 33.40625 -1.421875 27.6875 -1.421875 
Q 18.265625 -1.421875 13.375 4.4375 
Q 8.5 10.296875 8.5 21.578125 
z
M 31.109375 56 
z
" id="DejaVuSans-117"/>
      <path d="M 37.109375 75.984375 
L 37.109375 68.5 
L 28.515625 68.5 
Q 23.6875 68.5 21.796875 66.546875 
Q 19.921875 64.59375 19.921875 59.515625 
L 19.921875 54.6875 
L 34.71875 54.6875 
L 34.71875 47.703125 
L 19.921875 47.703125 
L 19.921875 0 
L 10.890625 0 
L 10.890625 47.703125 
L 2.296875 47.703125 
L 2.296875 54.6875 
L 10.890625 54.6875 
L 10.890625 58.5 
Q 10.890625 67.625 15.140625 71.796875 
Q 19.390625 75.984375 28.609375 75.984375 
z
" id="DejaVuSans-102"/>
      <path d="M 4.203125 54.6875 
L 13.1875 54.6875 
L 24.421875 12.015625 
L 35.59375 54.6875 
L 46.1875 54.6875 
L 57.421875 12.015625 
L 68.609375 54.6875 
L 77.59375 54.6875 
L 63.28125 0 
L 52.6875 0 
L 40.921875 44.828125 
L 29.109375 0 
L 18.5 0 
z
" id="DejaVuSans-119"/>
      <path d="M 9.078125 75.984375 
L 18.109375 75.984375 
L 18.109375 31.109375 
L 44.921875 54.6875 
L 56.390625 54.6875 
L 27.390625 29.109375 
L 57.625 0 
L 45.90625 0 
L 18.109375 26.703125 
L 18.109375 0 
L 9.078125 0 
z
" id="DejaVuSans-107"/>
      <path d="M 54.890625 33.015625 
L 54.890625 0 
L 45.90625 0 
L 45.90625 32.71875 
Q 45.90625 40.484375 42.875 44.328125 
Q 39.84375 48.1875 33.796875 48.1875 
Q 26.515625 48.1875 22.3125 43.546875 
Q 18.109375 38.921875 18.109375 30.90625 
L 18.109375 0 
L 9.078125 0 
L 9.078125 75.984375 
L 18.109375 75.984375 
L 18.109375 46.1875 
Q 21.34375 51.125 25.703125 53.5625 
Q 30.078125 56 35.796875 56 
Q 45.21875 56 50.046875 50.171875 
Q 54.890625 44.34375 54.890625 33.015625 
z
" id="DejaVuSans-104"/>
      <path d="M 44.28125 53.078125 
L 44.28125 44.578125 
Q 40.484375 46.53125 36.375 47.5 
Q 32.28125 48.484375 27.875 48.484375 
Q 21.1875 48.484375 17.84375 46.4375 
Q 14.5 44.390625 14.5 40.28125 
Q 14.5 37.15625 16.890625 35.375 
Q 19.28125 33.59375 26.515625 31.984375 
L 29.59375 31.296875 
Q 39.15625 29.25 43.1875 25.515625 
Q 47.21875 21.78125 47.21875 15.09375 
Q 47.21875 7.46875 41.1875 3.015625 
Q 35.15625 -1.421875 24.609375 -1.421875 
Q 20.21875 -1.421875 15.453125 -0.5625 
Q 10.6875 0.296875 5.421875 2 
L 5.421875 11.28125 
Q 10.40625 8.6875 15.234375 7.390625 
Q 20.0625 6.109375 24.8125 6.109375 
Q 31.15625 6.109375 34.5625 8.28125 
Q 37.984375 10.453125 37.984375 14.40625 
Q 37.984375 18.0625 35.515625 20.015625 
Q 33.0625 21.96875 24.703125 23.78125 
L 21.578125 24.515625 
Q 13.234375 26.265625 9.515625 29.90625 
Q 5.8125 33.546875 5.8125 39.890625 
Q 5.8125 47.609375 11.28125 51.796875 
Q 16.75 56 26.8125 56 
Q 31.78125 56 36.171875 55.265625 
Q 40.578125 54.546875 44.28125 53.078125 
z
" id="DejaVuSans-115"/>
      <path d="M 31.78125 66.40625 
Q 24.171875 66.40625 20.328125 58.90625 
Q 16.5 51.421875 16.5 36.375 
Q 16.5 21.390625 20.328125 13.890625 
Q 24.171875 6.390625 31.78125 6.390625 
Q 39.453125 6.390625 43.28125 13.890625 
Q 47.125 21.390625 47.125 36.375 
Q 47.125 51.421875 43.28125 58.90625 
Q 39.453125 66.40625 31.78125 66.40625 
z
M 31.78125 74.21875 
Q 44.046875 74.21875 50.515625 64.515625 
Q 56.984375 54.828125 56.984375 36.375 
Q 56.984375 17.96875 50.515625 8.265625 
Q 44.046875 -1.421875 31.78125 -1.421875 
Q 19.53125 -1.421875 13.0625 8.265625 
Q 6.59375 17.96875 6.59375 36.375 
Q 6.59375 54.828125 13.0625 64.515625 
Q 19.53125 74.21875 31.78125 74.21875 
z
" id="DejaVuSans-48"/>
      <path d="M 45.40625 27.984375 
Q 45.40625 37.75 41.375 43.109375 
Q 37.359375 48.484375 30.078125 48.484375 
Q 22.859375 48.484375 18.828125 43.109375 
Q 14.796875 37.75 14.796875 27.984375 
Q 14.796875 18.265625 18.828125 12.890625 
Q 22.859375 7.515625 30.078125 7.515625 
Q 37.359375 7.515625 41.375 12.890625 
Q 45.40625 18.265625 45.40625 27.984375 
z
M 54.390625 6.78125 
Q 54.390625 -7.171875 48.1875 -13.984375 
Q 42 -20.796875 29.203125 -20.796875 
Q 24.46875 -20.796875 20.265625 -20.09375 
Q 16.0625 -19.390625 12.109375 -17.921875 
L 12.109375 -9.1875 
Q 16.0625 -11.328125 19.921875 -12.34375 
Q 23.78125 -13.375 27.78125 -13.375 
Q 36.625 -13.375 41.015625 -8.765625 
Q 45.40625 -4.15625 45.40625 5.171875 
L 45.40625 9.625 
Q 42.625 4.78125 38.28125 2.390625 
Q 33.9375 0 27.875 0 
Q 17.828125 0 11.671875 7.65625 
Q 5.515625 15.328125 5.515625 27.984375 
Q 5.515625 40.671875 11.671875 48.328125 
Q 17.828125 56 27.875 56 
Q 33.9375 56 38.28125 53.609375 
Q 42.625 51.21875 45.40625 46.390625 
L 45.40625 54.6875 
L 54.390625 54.6875 
z
" id="DejaVuSans-103"/>
      <path d="M 50.984375 -16.609375 
L 50.984375 -23.578125 
L -0.984375 -23.578125 
L -0.984375 -16.609375 
z
" id="DejaVuSans-95"/>
     </defs>
     <use xlink:href="#DejaVuSans-73"/>
     <use x="29.492188" xlink:href="#DejaVuSans-109"/>
     <use x="126.904297" xlink:href="#DejaVuSans-112"/>
     <use x="190.380859" xlink:href="#DejaVuSans-111"/>
     <use x="251.5625" xlink:href="#DejaVuSans-114"/>
     <use x="292.675781" xlink:href="#DejaVuSans-116"/>
     <use x="331.884766" xlink:href="#DejaVuSans-97"/>
     <use x="393.164062" xlink:href="#DejaVuSans-110"/>
     <use x="456.542969" xlink:href="#DejaVuSans-99"/>
     <use x="511.523438" xlink:href="#DejaVuSans-101"/>
     <use x="573.046875" xlink:href="#DejaVuSans-32"/>
     <use x="604.833984" xlink:href="#DejaVuSans-83"/>
     <use x="668.310547" xlink:href="#DejaVuSans-99"/>
     <use x="723.291016" xlink:href="#DejaVuSans-111"/>
     <use x="784.472656" xlink:href="#DejaVuSans-114"/>
     <use x="823.335938" xlink:href="#DejaVuSans-101"/>
     <use x="884.859375" xlink:href="#DejaVuSans-32"/>
     <use x="916.646484" xlink:href="#DejaVuSans-97"/>
     <use x="977.925781" xlink:href="#DejaVuSans-110"/>
     <use x="1041.304688" xlink:href="#DejaVuSans-100"/>
     <use x="1104.78125" xlink:href="#DejaVuSans-32"/>
     <use x="1136.568359" xlink:href="#DejaVuSans-82"/>
     <use x="1201.550781" xlink:href="#DejaVuSans-101"/>
     <use x="1263.074219" xlink:href="#DejaVuSans-108"/>
     <use x="1290.857422" xlink:href="#DejaVuSans-97"/>
     <use x="1352.136719" xlink:href="#DejaVuSans-116"/>
     <use x="1391.345703" xlink:href="#DejaVuSans-105"/>
     <use x="1419.128906" xlink:href="#DejaVuSans-118"/>
     <use x="1478.308594" xlink:href="#DejaVuSans-101"/>
     <use x="1539.832031" xlink:href="#DejaVuSans-32"/>
     <use x="1571.619141" xlink:href="#DejaVuSans-65"/>
     <use x="1640.027344" xlink:href="#DejaVuSans-98"/>
     <use x="1703.503906" xlink:href="#DejaVuSans-117"/>
     <use x="1766.882812" xlink:href="#DejaVuSans-110"/>
     <use x="1830.261719" xlink:href="#DejaVuSans-100"/>
     <use x="1893.738281" xlink:href="#DejaVuSans-97"/>
     <use x="1955.017578" xlink:href="#DejaVuSans-110"/>
     <use x="2018.396484" xlink:href="#DejaVuSans-99"/>
     <use x="2073.376953" xlink:href="#DejaVuSans-101"/>
     <use x="2134.900391" xlink:href="#DejaVuSans-32"/>
     <use x="2166.6875" xlink:href="#DejaVuSans-102"/>
     <use x="2201.892578" xlink:href="#DejaVuSans-111"/>
     <use x="2263.074219" xlink:href="#DejaVuSans-114"/>
     <use x="2304.1875" xlink:href="#DejaVuSans-32"/>
     <use x="2335.974609" xlink:href="#DejaVuSans-110"/>
     <use x="2399.353516" xlink:href="#DejaVuSans-101"/>
     <use x="2460.876953" xlink:href="#DejaVuSans-116"/>
     <use x="2500.085938" xlink:href="#DejaVuSans-119"/>
     <use x="2581.873047" xlink:href="#DejaVuSans-111"/>
     <use x="2643.054688" xlink:href="#DejaVuSans-114"/>
     <use x="2684.167969" xlink:href="#DejaVuSans-107"/>
     <use x="2742.078125" xlink:href="#DejaVuSans-32"/>
     <use x="2773.865234" xlink:href="#DejaVuSans-104"/>
     <use x="2837.244141" xlink:href="#DejaVuSans-115"/>
     <use x="2889.34375" xlink:href="#DejaVuSans-97"/>
     <use x="2950.623047" xlink:href="#DejaVuSans-48"/>
     <use x="3014.246094" xlink:href="#DejaVuSans-48"/>
     <use x="3077.869141" xlink:href="#DejaVuSans-48"/>
     <use x="3141.492188" xlink:href="#DejaVuSans-50"/>
     <use x="3205.115234" xlink:href="#DejaVuSans-48"/>
     <use x="3268.738281" xlink:href="#DejaVuSans-32"/>
     <use x="3300.525391" xlink:href="#DejaVuSans-102"/>
     <use x="3335.730469" xlink:href="#DejaVuSans-111"/>
     <use x="3396.912109" xlink:href="#DejaVuSans-114"/>
     <use x="3438.025391" xlink:href="#DejaVuSans-32"/>
     <use x="3469.8125" xlink:href="#DejaVuSans-100"/>
     <use x="3533.289062" xlink:href="#DejaVuSans-97"/>
     <use x="3594.568359" xlink:href="#DejaVuSans-116"/>
     <use x="3633.777344" xlink:href="#DejaVuSans-97"/>
     <use x="3695.056641" xlink:href="#DejaVuSans-115"/>
     <use x="3747.15625" xlink:href="#DejaVuSans-101"/>
     <use x="3808.679688" xlink:href="#DejaVuSans-116"/>
     <use x="3847.888672" xlink:href="#DejaVuSans-32"/>
     <use x="3879.675781" xlink:href="#DejaVuSans-103"/>
     <use x="3943.152344" xlink:href="#DejaVuSans-101"/>
     <use x="4004.675781" xlink:href="#DejaVuSans-111"/>
     <use x="4065.857422" xlink:href="#DejaVuSans-114"/>
     <use x="4105.220703" xlink:href="#DejaVuSans-103"/>
     <use x="4168.697266" xlink:href="#DejaVuSans-101"/>
     <use x="4230.220703" xlink:href="#DejaVuSans-95"/>
     <use x="4280.220703" xlink:href="#DejaVuSans-104"/>
     <use x="4343.599609" xlink:href="#DejaVuSans-105"/>
     <use x="4371.382812" xlink:href="#DejaVuSans-118"/>
    </g>
   </g>
   <g id="legend_1">
    <g id="patch_25">
     <path d="M 786.157812 155.714375 
L 1029.8 155.714375 
Q 1031.8 155.714375 1031.8 153.714375 
L 1031.8 110.68 
Q 1031.8 108.68 1029.8 108.68 
L 786.157812 108.68 
Q 784.157812 108.68 784.157812 110.68 
L 784.157812 153.714375 
Q 784.157812 155.714375 786.157812 155.714375 
z
" style="fill:#ffffff;opacity:0.8;stroke:#cccccc;stroke-linejoin:miter;"/>
    </g>
    <g id="text_14">
     <!-- Relative Expression of HIV compared to Healthy -->
     <g transform="translate(788.157812 120.278437)scale(0.1 -0.1)">
      <defs>
       <path d="M 9.8125 72.90625 
L 55.90625 72.90625 
L 55.90625 64.59375 
L 19.671875 64.59375 
L 19.671875 43.015625 
L 54.390625 43.015625 
L 54.390625 34.71875 
L 19.671875 34.71875 
L 19.671875 8.296875 
L 56.78125 8.296875 
L 56.78125 0 
L 9.8125 0 
z
" id="DejaVuSans-69"/>
       <path d="M 54.890625 54.6875 
L 35.109375 28.078125 
L 55.90625 0 
L 45.3125 0 
L 29.390625 21.484375 
L 13.484375 0 
L 2.875 0 
L 24.125 28.609375 
L 4.6875 54.6875 
L 15.28125 54.6875 
L 29.78125 35.203125 
L 44.28125 54.6875 
z
" id="DejaVuSans-120"/>
       <path d="M 28.609375 0 
L 0.78125 72.90625 
L 11.078125 72.90625 
L 34.1875 11.53125 
L 57.328125 72.90625 
L 67.578125 72.90625 
L 39.796875 0 
z
" id="DejaVuSans-86"/>
       <path d="M 32.171875 -5.078125 
Q 28.375 -14.84375 24.75 -17.8125 
Q 21.140625 -20.796875 15.09375 -20.796875 
L 7.90625 -20.796875 
L 7.90625 -13.28125 
L 13.1875 -13.28125 
Q 16.890625 -13.28125 18.9375 -11.515625 
Q 21 -9.765625 23.484375 -3.21875 
L 25.09375 0.875 
L 2.984375 54.6875 
L 12.5 54.6875 
L 29.59375 11.921875 
L 46.6875 54.6875 
L 56.203125 54.6875 
z
" id="DejaVuSans-121"/>
      </defs>
      <use xlink:href="#DejaVuSans-82"/>
      <use x="64.982422" xlink:href="#DejaVuSans-101"/>
      <use x="126.505859" xlink:href="#DejaVuSans-108"/>
      <use x="154.289062" xlink:href="#DejaVuSans-97"/>
      <use x="215.568359" xlink:href="#DejaVuSans-116"/>
      <use x="254.777344" xlink:href="#DejaVuSans-105"/>
      <use x="282.560547" xlink:href="#DejaVuSans-118"/>
      <use x="341.740234" xlink:href="#DejaVuSans-101"/>
      <use x="403.263672" xlink:href="#DejaVuSans-32"/>
      <use x="435.050781" xlink:href="#DejaVuSans-69"/>
      <use x="498.234375" xlink:href="#DejaVuSans-120"/>
      <use x="557.414062" xlink:href="#DejaVuSans-112"/>
      <use x="620.890625" xlink:href="#DejaVuSans-114"/>
      <use x="659.753906" xlink:href="#DejaVuSans-101"/>
      <use x="721.277344" xlink:href="#DejaVuSans-115"/>
      <use x="773.376953" xlink:href="#DejaVuSans-115"/>
      <use x="825.476562" xlink:href="#DejaVuSans-105"/>
      <use x="853.259766" xlink:href="#DejaVuSans-111"/>
      <use x="914.441406" xlink:href="#DejaVuSans-110"/>
      <use x="977.820312" xlink:href="#DejaVuSans-32"/>
      <use x="1009.607422" xlink:href="#DejaVuSans-111"/>
      <use x="1070.789062" xlink:href="#DejaVuSans-102"/>
      <use x="1105.994141" xlink:href="#DejaVuSans-32"/>
      <use x="1137.78125" xlink:href="#DejaVuSans-72"/>
      <use x="1212.976562" xlink:href="#DejaVuSans-73"/>
      <use x="1242.46875" xlink:href="#DejaVuSans-86"/>
      <use x="1310.876953" xlink:href="#DejaVuSans-32"/>
      <use x="1342.664062" xlink:href="#DejaVuSans-99"/>
      <use x="1397.644531" xlink:href="#DejaVuSans-111"/>
      <use x="1458.826172" xlink:href="#DejaVuSans-109"/>
      <use x="1556.238281" xlink:href="#DejaVuSans-112"/>
      <use x="1619.714844" xlink:href="#DejaVuSans-97"/>
      <use x="1680.994141" xlink:href="#DejaVuSans-114"/>
      <use x="1719.857422" xlink:href="#DejaVuSans-101"/>
      <use x="1781.380859" xlink:href="#DejaVuSans-100"/>
      <use x="1844.857422" xlink:href="#DejaVuSans-32"/>
      <use x="1876.644531" xlink:href="#DejaVuSans-116"/>
      <use x="1915.853516" xlink:href="#DejaVuSans-111"/>
      <use x="1977.035156" xlink:href="#DejaVuSans-32"/>
      <use x="2008.822266" xlink:href="#DejaVuSans-72"/>
      <use x="2084.017578" xlink:href="#DejaVuSans-101"/>
      <use x="2145.541016" xlink:href="#DejaVuSans-97"/>
      <use x="2206.820312" xlink:href="#DejaVuSans-108"/>
      <use x="2234.603516" xlink:href="#DejaVuSans-116"/>
      <use x="2273.8125" xlink:href="#DejaVuSans-104"/>
      <use x="2337.191406" xlink:href="#DejaVuSans-121"/>
     </g>
    </g>
    <g id="patch_26">
     <path d="M 822.414844 134.956562 
L 842.414844 134.956562 
L 842.414844 127.956562 
L 822.414844 127.956562 
z
" style="fill:#0000ff;stroke:#0000ff;stroke-linejoin:miter;"/>
    </g>
    <g id="text_15">
     <!-- Decreased expression in HIV -->
     <g transform="translate(850.414844 134.956562)scale(0.1 -0.1)">
      <use xlink:href="#DejaVuSans-68"/>
      <use x="77.001953" xlink:href="#DejaVuSans-101"/>
      <use x="138.525391" xlink:href="#DejaVuSans-99"/>
      <use x="193.505859" xlink:href="#DejaVuSans-114"/>
      <use x="232.369141" xlink:href="#DejaVuSans-101"/>
      <use x="293.892578" xlink:href="#DejaVuSans-97"/>
      <use x="355.171875" xlink:href="#DejaVuSans-115"/>
      <use x="407.271484" xlink:href="#DejaVuSans-101"/>
      <use x="468.794922" xlink:href="#DejaVuSans-100"/>
      <use x="532.271484" xlink:href="#DejaVuSans-32"/>
      <use x="564.058594" xlink:href="#DejaVuSans-101"/>
      <use x="623.832031" xlink:href="#DejaVuSans-120"/>
      <use x="683.011719" xlink:href="#DejaVuSans-112"/>
      <use x="746.488281" xlink:href="#DejaVuSans-114"/>
      <use x="785.351562" xlink:href="#DejaVuSans-101"/>
      <use x="846.875" xlink:href="#DejaVuSans-115"/>
      <use x="898.974609" xlink:href="#DejaVuSans-115"/>
      <use x="951.074219" xlink:href="#DejaVuSans-105"/>
      <use x="978.857422" xlink:href="#DejaVuSans-111"/>
      <use x="1040.039062" xlink:href="#DejaVuSans-110"/>
      <use x="1103.417969" xlink:href="#DejaVuSans-32"/>
      <use x="1135.205078" xlink:href="#DejaVuSans-105"/>
      <use x="1162.988281" xlink:href="#DejaVuSans-110"/>
      <use x="1226.367188" xlink:href="#DejaVuSans-32"/>
      <use x="1258.154297" xlink:href="#DejaVuSans-72"/>
      <use x="1333.349609" xlink:href="#DejaVuSans-73"/>
      <use x="1362.841797" xlink:href="#DejaVuSans-86"/>
     </g>
    </g>
    <g id="patch_27">
     <path d="M 822.414844 149.634687 
L 842.414844 149.634687 
L 842.414844 142.634687 
L 822.414844 142.634687 
z
" style="fill:#ff0000;stroke:#ff0000;stroke-linejoin:miter;"/>
    </g>
    <g id="text_16">
     <!-- Increased expression in HIV -->
     <g transform="translate(850.414844 149.634687)scale(0.1 -0.1)">
      <use xlink:href="#DejaVuSans-73"/>
      <use x="29.492188" xlink:href="#DejaVuSans-110"/>
      <use x="92.871094" xlink:href="#DejaVuSans-99"/>
      <use x="147.851562" xlink:href="#DejaVuSans-114"/>
      <use x="186.714844" xlink:href="#DejaVuSans-101"/>
      <use x="248.238281" xlink:href="#DejaVuSans-97"/>
      <use x="309.517578" xlink:href="#DejaVuSans-115"/>
      <use x="361.617188" xlink:href="#DejaVuSans-101"/>
      <use x="423.140625" xlink:href="#DejaVuSans-100"/>
      <use x="486.617188" xlink:href="#DejaVuSans-32"/>
      <use x="518.404297" xlink:href="#DejaVuSans-101"/>
      <use x="578.177734" xlink:href="#DejaVuSans-120"/>
      <use x="637.357422" xlink:href="#DejaVuSans-112"/>
      <use x="700.833984" xlink:href="#DejaVuSans-114"/>
      <use x="739.697266" xlink:href="#DejaVuSans-101"/>
      <use x="801.220703" xlink:href="#DejaVuSans-115"/>
      <use x="853.320312" xlink:href="#DejaVuSans-115"/>
      <use x="905.419922" xlink:href="#DejaVuSans-105"/>
      <use x="933.203125" xlink:href="#DejaVuSans-111"/>
      <use x="994.384766" xlink:href="#DejaVuSans-110"/>
      <use x="1057.763672" xlink:href="#DejaVuSans-32"/>
      <use x="1089.550781" xlink:href="#DejaVuSans-105"/>
      <use x="1117.333984" xlink:href="#DejaVuSans-110"/>
      <use x="1180.712891" xlink:href="#DejaVuSans-32"/>
      <use x="1212.5" xlink:href="#DejaVuSans-72"/>
      <use x="1287.695312" xlink:href="#DejaVuSans-73"/>
      <use x="1317.1875" xlink:href="#DejaVuSans-86"/>
     </g>
    </g>
   </g>
  </g>
 </g>
 <defs>
  <clipPath id="ped8b2d0b22">
   <rect height="665.28" width="892.8" x="144" y="103.68"/>
  </clipPath>
 </defs>
</svg>
