<?xml version="1.0" encoding="utf-8" standalone="no"?>
<!DOCTYPE svg PUBLIC "-//W3C//DTD SVG 1.1//EN"
  "http://www.w3.org/Graphics/SVG/1.1/DTD/svg11.dtd">
<!-- Created with matplotlib (https://matplotlib.org/) -->
<svg height="576pt" version="1.1" viewBox="0 0 864 576" width="864pt" xmlns="http://www.w3.org/2000/svg" xmlns:xlink="http://www.w3.org/1999/xlink">
 <metadata>
  <rdf:RDF xmlns:cc="http://creativecommons.org/ns#" xmlns:dc="http://purl.org/dc/elements/1.1/" xmlns:rdf="http://www.w3.org/1999/02/22-rdf-syntax-ns#">
   <cc:Work>
    <dc:type rdf:resource="http://purl.org/dc/dcmitype/StillImage"/>
    <dc:date>2024-04-26T13:37:57.750547</dc:date>
    <dc:format>image/svg+xml</dc:format>
    <dc:creator>
     <cc:Agent>
      <dc:title>Matplotlib v3.3.1, https://matplotlib.org/</dc:title>
     </cc:Agent>
    </dc:creator>
   </cc:Work>
  </rdf:RDF>
 </metadata>
 <defs>
  <style type="text/css">*{stroke-linecap:butt;stroke-linejoin:round;}</style>
 </defs>
 <g id="figure_1">
  <g id="patch_1">
   <path d="M 0 576 
L 864 576 
L 864 0 
L 0 0 
z
" style="fill:#ffffff;"/>
  </g>
  <g id="axes_1">
   <g id="patch_2">
    <path clip-path="url(#p80612c09b3)" d="M 393.971824 372.734718 
Q 306.363427 293.373794 219.583639 214.763473 
" style="fill:none;stroke:#000000;stroke-linecap:round;"/>
    <path clip-path="url(#p80612c09b3)" d="M 221.205441 218.931177 
L 219.583639 214.763473 
L 223.890884 215.966654 
L 221.205441 218.931177 
z
" style="stroke:#000000;stroke-linecap:round;"/>
   </g>
   <g id="patch_3">
    <path clip-path="url(#p80612c09b3)" d="M 406.922936 384.235748 
Q 455.301382 426.350031 502.836551 467.730228 
" style="fill:none;stroke:#000000;stroke-linecap:round;"/>
    <path clip-path="url(#p80612c09b3)" d="M 501.132727 463.595378 
L 502.836551 467.730228 
L 498.506376 466.612377 
L 501.132727 463.595378 
z
" style="stroke:#000000;stroke-linecap:round;"/>
   </g>
   <g id="patch_4">
    <path clip-path="url(#p80612c09b3)" d="M 408.942414 379.899474 
Q 527.702964 398.648845 645.359159 417.223865 
" style="fill:none;stroke:#000000;stroke-linecap:round;"/>
    <path clip-path="url(#p80612c09b3)" d="M 641.719984 414.624558 
L 645.359159 417.223865 
L 641.096208 418.575621 
L 641.719984 414.624558 
z
" style="stroke:#000000;stroke-linecap:round;"/>
   </g>
   <g id="patch_5">
    <path clip-path="url(#p80612c09b3)" d="M 408.798117 376.467753 
Q 432.591497 370.576607 455.299613 364.954167 
" style="fill:none;stroke:#000000;stroke-linecap:round;"/>
    <path clip-path="url(#p80612c09b3)" d="M 450.936179 363.974144 
L 455.299613 364.954167 
L 451.897534 367.856901 
L 450.936179 363.974144 
z
" style="stroke:#000000;stroke-linecap:round;"/>
   </g>
   <g id="patch_6">
    <path clip-path="url(#p80612c09b3)" d="M 392.146255 381.209038 
Q 322.804976 403.578366 254.527734 425.604438 
" style="fill:none;stroke:#000000;stroke-linecap:round;"/>
    <path clip-path="url(#p80612c09b3)" d="M 258.948584 426.279776 
L 254.527734 425.604438 
L 257.720515 422.47296 
L 258.948584 426.279776 
z
" style="stroke:#000000;stroke-linecap:round;"/>
   </g>
   <g id="patch_7">
    <path clip-path="url(#p80612c09b3)" d="M 588.583325 111.277044 
Q 618.642091 125.338394 647.688152 138.926006 
" style="fill:none;stroke:#000000;stroke-linecap:round;"/>
    <path clip-path="url(#p80612c09b3)" d="M 644.912437 135.419525 
L 647.688152 138.926006 
L 643.217538 139.042689 
L 644.912437 135.419525 
z
" style="stroke:#000000;stroke-linecap:round;"/>
   </g>
   <g id="patch_8">
    <path clip-path="url(#p80612c09b3)" d="M 415.932382 151.640819 
Q 494.152169 130.741749 571.291812 110.131277 
" style="fill:none;stroke:#000000;stroke-linecap:round;"/>
    <path clip-path="url(#p80612c09b3)" d="M 566.911112 109.231572 
L 571.291812 110.131277 
L 567.943628 113.096014 
L 566.911112 109.231572 
z
" style="stroke:#000000;stroke-linecap:round;"/>
   </g>
   <g id="patch_9">
    <path clip-path="url(#p80612c09b3)" d="M 360.268725 269.005188 
Q 378.840229 319.710496 397.027218 369.365971 
" style="fill:none;stroke:#000000;stroke-linecap:round;"/>
    <path clip-path="url(#p80612c09b3)" d="M 397.529532 364.922135 
L 397.027218 369.365971 
L 393.773537 366.297818 
L 397.529532 364.922135 
z
" style="stroke:#000000;stroke-linecap:round;"/>
   </g>
   <g id="patch_10">
    <path clip-path="url(#p80612c09b3)" d="M 514.946006 206.768232 
Q 506.055872 211.356923 498.159235 215.432814 
" style="fill:none;stroke:#000000;stroke-linecap:round;"/>
    <path clip-path="url(#p80612c09b3)" d="M 502.631003 215.375391 
L 498.159235 215.432814 
L 500.796357 211.820946 
L 502.631003 215.375391 
z
" style="stroke:#000000;stroke-linecap:round;"/>
   </g>
   <g id="patch_11">
    <path clip-path="url(#p80612c09b3)" d="M 514.111775 204.256342 
Q 461.031631 213.35006 409.053466 222.254986 
" style="fill:none;stroke:#000000;stroke-linecap:round;"/>
    <path clip-path="url(#p80612c09b3)" d="M 413.333747 223.550825 
L 409.053466 222.254986 
L 412.658305 219.608265 
L 413.333747 223.550825 
z
" style="stroke:#000000;stroke-linecap:round;"/>
   </g>
   <g id="patch_12">
    <path clip-path="url(#p80612c09b3)" d="M 523.138764 211.439417 
Q 524.242278 230.752078 525.282012 248.948526 
" style="fill:none;stroke:#000000;stroke-linecap:round;"/>
    <path clip-path="url(#p80612c09b3)" d="M 527.05057 244.840947 
L 525.282012 248.948526 
L 523.057084 245.069132 
L 527.05057 244.840947 
z
" style="stroke:#000000;stroke-linecap:round;"/>
   </g>
   <g id="patch_13">
    <path clip-path="url(#p80612c09b3)" d="M 386.268047 361.180776 
Q 302.555942 287.551488 219.683347 214.660593 
" style="fill:none;stroke:#000000;stroke-linecap:round;"/>
    <path clip-path="url(#p80612c09b3)" d="M 221.365987 218.804109 
L 219.683347 214.660593 
L 224.007743 215.80059 
L 221.365987 218.804109 
z
" style="stroke:#000000;stroke-linecap:round;"/>
   </g>
   <g id="patch_14">
    <path clip-path="url(#p80612c09b3)" d="M 399.165936 372.74058 
Q 451.492687 420.52666 502.99386 467.558802 
" style="fill:none;stroke:#000000;stroke-linecap:round;"/>
    <path clip-path="url(#p80612c09b3)" d="M 501.388869 463.384595 
L 502.99386 467.558802 
L 498.6915 466.33827 
L 501.388869 463.384595 
z
" style="stroke:#000000;stroke-linecap:round;"/>
   </g>
   <g id="patch_15">
    <path clip-path="url(#p80612c09b3)" d="M 401.263708 368.577689 
Q 523.892724 392.823249 645.424938 416.851956 
" style="fill:none;stroke:#000000;stroke-linecap:round;"/>
    <path clip-path="url(#p80612c09b3)" d="M 641.888821 414.114097 
L 645.424938 416.851956 
L 641.112981 418.038135 
L 641.888821 414.114097 
z
" style="stroke:#000000;stroke-linecap:round;"/>
   </g>
   <g id="patch_16">
    <path clip-path="url(#p80612c09b3)" d="M 401.41463 366.382579 
Q 428.778894 364.751377 455.027105 363.186703 
" style="fill:none;stroke:#000000;stroke-linecap:round;"/>
    <path clip-path="url(#p80612c09b3)" d="M 450.915183 361.428267 
L 455.027105 363.186703 
L 451.153203 365.421179 
L 450.915183 361.428267 
z
" style="stroke:#000000;stroke-linecap:round;"/>
   </g>
   <g id="patch_17">
    <path clip-path="url(#p80612c09b3)" d="M 384.775575 370.240739 
Q 318.989469 397.754374 254.234822 424.836623 
" style="fill:none;stroke:#000000;stroke-linecap:round;"/>
    <path clip-path="url(#p80612c09b3)" d="M 258.696766 425.138381 
L 254.234822 424.836623 
L 257.153394 421.448123 
L 258.696766 425.138381 
z
" style="stroke:#000000;stroke-linecap:round;"/>
   </g>
   <g id="patch_18">
    <path clip-path="url(#p80612c09b3)" d="M 649.629686 355.489024 
Q 623.310836 393.437208 597.629152 430.466685 
" style="fill:none;stroke:#000000;stroke-linecap:round;"/>
    <path clip-path="url(#p80612c09b3)" d="M 601.552176 428.319621 
L 597.629152 430.466685 
L 598.265314 426.040028 
L 601.552176 428.319621 
z
" style="stroke:#000000;stroke-linecap:round;"/>
   </g>
   <g id="patch_19">
    <path clip-path="url(#p80612c09b3)" d="M 675.248945 388.85779 
Q 637.370887 411.46094 600.452915 433.491173 
" style="fill:none;stroke:#000000;stroke-linecap:round;"/>
    <path clip-path="url(#p80612c09b3)" d="M 604.91269 433.158898 
L 600.452915 433.491173 
L 602.86296 429.723988 
L 604.91269 433.158898 
z
" style="stroke:#000000;stroke-linecap:round;"/>
   </g>
   <g id="patch_20">
    <path clip-path="url(#p80612c09b3)" d="M 625.759361 382.974214 
Q 611.15531 407.035267 597.131366 430.140561 
" style="fill:none;stroke:#000000;stroke-linecap:round;"/>
    <path clip-path="url(#p80612c09b3)" d="M 600.916532 427.758856 
L 597.131366 430.140561 
L 597.497102 425.683405 
L 600.916532 427.758856 
z
" style="stroke:#000000;stroke-linecap:round;"/>
   </g>
   <g id="patch_21">
    <path clip-path="url(#p80612c09b3)" d="M 638.793393 377.014054 
Q 656.47079 379.996624 673.045735 382.793186 
" style="fill:none;stroke:#000000;stroke-linecap:round;"/>
    <path clip-path="url(#p80612c09b3)" d="M 669.434223 380.155576 
L 673.045735 382.793186 
L 668.76874 384.099829 
L 669.434223 380.155576 
z
" style="stroke:#000000;stroke-linecap:round;"/>
   </g>
   <g id="patch_22">
    <path clip-path="url(#p80612c09b3)" d="M 636.024213 369.115017 
Q 642.407666 361.97373 648.046017 355.666002 
" style="fill:none;stroke:#000000;stroke-linecap:round;"/>
    <path clip-path="url(#p80612c09b3)" d="M 643.88914 357.315357 
L 648.046017 355.666002 
L 646.871374 359.981117 
L 643.88914 357.315357 
z
" style="stroke:#000000;stroke-linecap:round;"/>
   </g>
   <g id="patch_23">
    <path clip-path="url(#p80612c09b3)" d="M 403.468446 357.998852 
Q 311.311548 285.770738 220.034619 214.232301 
" style="fill:none;stroke:#000000;stroke-linecap:round;"/>
    <path clip-path="url(#p80612c09b3)" d="M 221.94916 218.273902 
L 220.034619 214.232301 
L 224.416624 215.125629 
L 221.94916 218.273902 
z
" style="stroke:#000000;stroke-linecap:round;"/>
   </g>
   <g id="patch_24">
    <path clip-path="url(#p80612c09b3)" d="M 416.082805 369.770341 
Q 460.248618 418.745774 503.665683 466.890921 
" style="fill:none;stroke:#000000;stroke-linecap:round;"/>
    <path clip-path="url(#p80612c09b3)" d="M 502.472141 462.580996 
L 503.665683 466.890921 
L 499.501618 465.2598 
L 502.472141 462.580996 
z
" style="stroke:#000000;stroke-linecap:round;"/>
   </g>
   <g id="patch_25">
    <path clip-path="url(#p80612c09b3)" d="M 418.728941 365.253326 
Q 532.651013 391.044992 645.482648 416.589785 
" style="fill:none;stroke:#000000;stroke-linecap:round;"/>
    <path clip-path="url(#p80612c09b3)" d="M 642.022999 413.755914 
L 645.482648 416.589785 
L 641.139762 417.657182 
L 642.022999 413.755914 
z
" style="stroke:#000000;stroke-linecap:round;"/>
   </g>
   <g id="patch_26">
    <path clip-path="url(#p80612c09b3)" d="M 418.944622 363.224684 
Q 437.536385 362.973307 455.010216 362.737046 
" style="fill:none;stroke:#000000;stroke-linecap:round;"/>
    <path clip-path="url(#p80612c09b3)" d="M 450.983542 360.791307 
L 455.010216 362.737046 
L 451.037621 364.790941 
L 450.983542 360.791307 
z
" style="stroke:#000000;stroke-linecap:round;"/>
   </g>
   <g id="patch_27">
    <path clip-path="url(#p80612c09b3)" d="M 402.233152 366.525593 
Q 327.751727 395.974759 254.310016 425.012834 
" style="fill:none;stroke:#000000;stroke-linecap:round;"/>
    <path clip-path="url(#p80612c09b3)" d="M 258.765191 425.401964 
L 254.310016 425.012834 
L 257.294424 421.682172 
L 258.765191 425.401964 
z
" style="stroke:#000000;stroke-linecap:round;"/>
   </g>
   <g id="patch_28">
    <path clip-path="url(#p80612c09b3)" d="M 550.082534 414.80302 
Q 586.27828 397.090911 621.469781 379.870221 
" style="fill:none;stroke:#000000;stroke-linecap:round;"/>
    <path clip-path="url(#p80612c09b3)" d="M 616.997809 379.831929 
L 621.469781 379.870221 
L 618.755964 383.424824 
L 616.997809 379.831929 
z
" style="stroke:#000000;stroke-linecap:round;"/>
   </g>
   <g id="patch_29">
    <path clip-path="url(#p80612c09b3)" d="M 208.243096 215.827965 
Q 189.223568 251.244669 170.733 285.676386 
" style="fill:none;stroke:#000000;stroke-linecap:round;"/>
    <path clip-path="url(#p80612c09b3)" d="M 174.387464 283.098617 
L 170.733 285.676386 
L 170.863463 281.206154 
L 174.387464 283.098617 
z
" style="stroke:#000000;stroke-linecap:round;"/>
   </g>
   <g id="patch_30">
    <path clip-path="url(#p80612c09b3)" d="M 444.568785 215.979265 
Q 448.864096 227.539423 452.770001 238.051553 
" style="fill:none;stroke:#000000;stroke-linecap:round;"/>
    <path clip-path="url(#p80612c09b3)" d="M 453.251585 233.605423 
L 452.770001 238.051553 
L 449.502047 234.998608 
L 453.251585 233.605423 
z
" style="stroke:#000000;stroke-linecap:round;"/>
   </g>
   <g id="patch_31">
    <path clip-path="url(#p80612c09b3)" d="M 442.419775 216.482935 
Q 445.091059 243.048457 447.650483 268.501556 
" style="fill:none;stroke:#000000;stroke-linecap:round;"/>
    <path clip-path="url(#p80612c09b3)" d="M 449.240248 264.321526 
L 447.650483 268.501556 
L 445.260318 264.721726 
L 449.240248 264.321526 
z
" style="stroke:#000000;stroke-linecap:round;"/>
   </g>
   <g id="patch_32">
    <path clip-path="url(#p80612c09b3)" d="M 444.103247 216.137297 
Q 450.111415 235.631391 455.790286 254.057045 
" style="fill:none;stroke:#000000;stroke-linecap:round;"/>
    <path clip-path="url(#p80612c09b3)" d="M 456.523436 249.645414 
L 455.790286 254.057045 
L 452.700871 250.823546 
L 456.523436 249.645414 
z
" style="stroke:#000000;stroke-linecap:round;"/>
   </g>
   <g id="patch_33">
    <path clip-path="url(#p80612c09b3)" d="M 403.308731 266.147307 
Q 425.665341 258.142524 446.969353 250.514624 
" style="fill:none;stroke:#000000;stroke-linecap:round;"/>
    <path clip-path="url(#p80612c09b3)" d="M 442.529281 249.980057 
L 446.969353 250.514624 
L 443.877656 253.745941 
L 442.529281 249.980057 
z
" style="stroke:#000000;stroke-linecap:round;"/>
   </g>
   <g id="patch_34">
    <path clip-path="url(#p80612c09b3)" d="M 403.690771 270.529506 
Q 421.890733 273.649652 438.988736 276.580882 
" style="fill:none;stroke:#000000;stroke-linecap:round;"/>
    <path clip-path="url(#p80612c09b3)" d="M 435.384197 273.933753 
L 438.988736 276.580882 
L 434.708309 277.876236 
L 435.384197 273.933753 
z
" style="stroke:#000000;stroke-linecap:round;"/>
   </g>
   <g id="patch_35">
    <path clip-path="url(#p80612c09b3)" d="M 403.781565 268.297113 
Q 426.912685 266.234229 448.93019 264.270658 
" style="fill:none;stroke:#000000;stroke-linecap:round;"/>
    <path clip-path="url(#p80612c09b3)" d="M 444.768343 262.633883 
L 448.93019 264.270658 
L 445.123662 266.618071 
L 444.768343 262.633883 
z
" style="stroke:#000000;stroke-linecap:round;"/>
   </g>
   <g id="patch_36">
    <path clip-path="url(#p80612c09b3)" d="M 464.625654 249.111653 
Q 587.834551 276.721086 709.952471 304.086046 
" style="fill:none;stroke:#000000;stroke-linecap:round;"/>
    <path clip-path="url(#p80612c09b3)" d="M 706.486597 301.259791 
L 709.952471 304.086046 
L 705.611943 305.162993 
L 706.486597 301.259791 
z
" style="stroke:#000000;stroke-linecap:round;"/>
   </g>
   <g id="patch_37">
    <path clip-path="url(#p80612c09b3)" d="M 447.56187 246.350604 
Q 321.186781 233.622432 195.924098 221.006298 
" style="fill:none;stroke:#000000;stroke-linecap:round;"/>
    <path clip-path="url(#p80612c09b3)" d="M 199.703543 223.397072 
L 195.924098 221.006298 
L 200.104384 219.417207 
L 199.703543 223.397072 
z
" style="stroke:#000000;stroke-linecap:round;"/>
   </g>
   <g id="patch_38">
    <path clip-path="url(#p80612c09b3)" d="M 457.246542 279.124104 
Q 584.062676 292.229013 709.766697 305.219 
" style="fill:none;stroke:#000000;stroke-linecap:round;"/>
    <path clip-path="url(#p80612c09b3)" d="M 705.993466 302.818432 
L 709.766697 305.219 
L 705.582304 306.797244 
L 705.993466 302.818432 
z
" style="stroke:#000000;stroke-linecap:round;"/>
   </g>
   <g id="patch_39">
    <path clip-path="url(#p80612c09b3)" d="M 440.175683 276.358659 
Q 317.410665 249.129801 195.737156 222.143036 
" style="fill:none;stroke:#000000;stroke-linecap:round;"/>
    <path clip-path="url(#p80612c09b3)" d="M 199.209187 224.961724 
L 195.737156 222.143036 
L 200.075325 221.056624 
L 199.209187 224.961724 
z
" style="stroke:#000000;stroke-linecap:round;"/>
   </g>
   <g id="patch_40">
    <path clip-path="url(#p80612c09b3)" d="M 467.215192 264.804883 
Q 589.079864 284.812706 709.841273 304.639394 
" style="fill:none;stroke:#000000;stroke-linecap:round;"/>
    <path clip-path="url(#p80612c09b3)" d="M 706.218141 302.01777 
L 709.841273 304.639394 
L 705.570095 305.964926 
L 706.218141 302.01777 
z
" style="stroke:#000000;stroke-linecap:round;"/>
   </g>
   <g id="patch_41">
    <path clip-path="url(#p80612c09b3)" d="M 450.118112 262.040551 
Q 322.430531 241.713907 195.847081 221.563029 
" style="fill:none;stroke:#000000;stroke-linecap:round;"/>
    <path clip-path="url(#p80612c09b3)" d="M 199.48292 224.167003 
L 195.847081 221.563029 
L 200.111763 220.216743 
L 199.48292 224.167003 
z
" style="stroke:#000000;stroke-linecap:round;"/>
   </g>
   <g id="patch_42">
    <path clip-path="url(#p80612c09b3)" d="M 482.772865 225.408908 
Q 472.823381 233.567423 463.738439 241.017019 
" style="fill:none;stroke:#000000;stroke-linecap:round;"/>
    <path clip-path="url(#p80612c09b3)" d="M 468.099673 240.027253 
L 463.738439 241.017019 
L 465.563366 236.934172 
L 468.099673 240.027253 
z
" style="stroke:#000000;stroke-linecap:round;"/>
   </g>
   <g id="patch_43">
    <path clip-path="url(#p80612c09b3)" d="M 484.500506 227.012284 
Q 469.048689 249.076151 454.238221 270.224227 
" style="fill:none;stroke:#000000;stroke-linecap:round;"/>
    <path clip-path="url(#p80612c09b3)" d="M 458.170995 268.095075 
L 454.238221 270.224227 
L 454.894563 265.800517 
L 458.170995 268.095075 
z
" style="stroke:#000000;stroke-linecap:round;"/>
   </g>
   <g id="patch_44">
    <path clip-path="url(#p80612c09b3)" d="M 484.462534 226.986311 
Q 474.068718 241.661274 464.321106 255.423866 
" style="fill:none;stroke:#000000;stroke-linecap:round;"/>
    <path clip-path="url(#p80612c09b3)" d="M 468.265134 253.315632 
L 464.321106 255.423866 
L 465.000936 251.003704 
L 468.265134 253.315632 
z
" style="stroke:#000000;stroke-linecap:round;"/>
   </g>
   <g id="patch_45">
    <path clip-path="url(#p80612c09b3)" d="M 407.427573 227.197407 
Q 427.795443 235.562415 447.129102 243.502678 
" style="fill:none;stroke:#000000;stroke-linecap:round;"/>
    <path clip-path="url(#p80612c09b3)" d="M 444.188809 240.133008 
L 447.129102 243.502678 
L 442.66919 243.833111 
L 444.188809 240.133008 
z
" style="stroke:#000000;stroke-linecap:round;"/>
   </g>
   <g id="patch_46">
    <path clip-path="url(#p80612c09b3)" d="M 405.226697 230.322586 
Q 424.020534 251.068719 442.063751 270.986258 
" style="fill:none;stroke:#000000;stroke-linecap:round;"/>
    <path clip-path="url(#p80612c09b3)" d="M 440.860485 266.679037 
L 442.063751 270.986258 
L 437.896015 269.364538 
L 440.860485 266.679037 
z
" style="stroke:#000000;stroke-linecap:round;"/>
   </g>
   <g id="patch_47">
    <path clip-path="url(#p80612c09b3)" d="M 406.622382 228.710746 
Q 429.042377 243.654198 450.532049 257.97757 
" style="fill:none;stroke:#000000;stroke-linecap:round;"/>
    <path clip-path="url(#p80612c09b3)" d="M 448.312864 254.094888 
L 450.532049 257.97757 
L 446.094393 257.42331 
L 448.312864 254.094888 
z
" style="stroke:#000000;stroke-linecap:round;"/>
   </g>
   <g id="patch_48">
    <path clip-path="url(#p80612c09b3)" d="M 517.297725 257.302582 
Q 491.010223 252.965446 465.825843 248.810312 
" style="fill:none;stroke:#000000;stroke-linecap:round;"/>
    <path clip-path="url(#p80612c09b3)" d="M 469.446912 251.434785 
L 465.825843 248.810312 
L 470.098063 247.488141 
L 469.446912 251.434785 
z
" style="stroke:#000000;stroke-linecap:round;"/>
   </g>
   <g id="patch_49">
    <path clip-path="url(#p80612c09b3)" d="M 517.446795 260.834015 
Q 487.236139 268.472349 458.109408 275.836629 
" style="fill:none;stroke:#000000;stroke-linecap:round;"/>
    <path clip-path="url(#p80612c09b3)" d="M 462.477621 276.795124 
L 458.109408 275.836629 
L 461.497132 272.917155 
L 462.477621 276.795124 
z
" style="stroke:#000000;stroke-linecap:round;"/>
   </g>
   <g id="patch_50">
    <path clip-path="url(#p80612c09b3)" d="M 517.201825 259.315087 
Q 492.257039 261.05684 468.427572 262.720716 
" style="fill:none;stroke:#000000;stroke-linecap:round;"/>
    <path clip-path="url(#p80612c09b3)" d="M 472.557166 264.437239 
L 468.427572 262.720716 
L 472.278547 260.446955 
L 472.557166 264.437239 
z
" style="stroke:#000000;stroke-linecap:round;"/>
   </g>
   <g id="patch_51">
    <path clip-path="url(#p80612c09b3)" d="M 458.072076 368.071774 
Q 400.647014 414.816082 344.089035 460.854579 
" style="fill:none;stroke:#000000;stroke-linecap:round;"/>
    <path clip-path="url(#p80612c09b3)" d="M 348.453795 459.880481 
L 344.089035 460.854579 
L 345.928613 456.778312 
L 348.453795 459.880481 
z
" style="stroke:#000000;stroke-linecap:round;"/>
   </g>
   <g id="patch_52">
    <path clip-path="url(#p80612c09b3)" d="M 253.199144 431.96712 
Q 290.861112 447.818924 327.492604 463.237004 
" style="fill:none;stroke:#000000;stroke-linecap:round;"/>
    <path clip-path="url(#p80612c09b3)" d="M 324.581727 459.84189 
L 327.492604 463.237004 
L 323.029987 463.528637 
L 324.581727 459.84189 
z
" style="stroke:#000000;stroke-linecap:round;"/>
   </g>
   <g id="patch_53">
    <path clip-path="url(#p80612c09b3)" d="M 322.060251 430.779956 
Q 357.621894 407.067548 392.253332 383.975398 
" style="fill:none;stroke:#000000;stroke-linecap:round;"/>
    <path clip-path="url(#p80612c09b3)" d="M 387.81578 384.5305 
L 392.253332 383.975398 
L 390.034882 387.858501 
L 387.81578 384.5305 
z
" style="stroke:#000000;stroke-linecap:round;"/>
   </g>
   <g id="PathCollection_1">
    <defs>
     <path d="M 0 8.660254 
C 2.296726 8.660254 4.499694 7.747755 6.123724 6.123724 
C 7.747755 4.499694 8.660254 2.296726 8.660254 -0 
C 8.660254 -2.296726 7.747755 -4.499694 6.123724 -6.123724 
C 4.499694 -7.747755 2.296726 -8.660254 0 -8.660254 
C -2.296726 -8.660254 -4.499694 -7.747755 -6.123724 -6.123724 
C -7.747755 -4.499694 -8.660254 -2.296726 -8.660254 0 
C -8.660254 2.296726 -7.747755 4.499694 -6.123724 6.123724 
C -4.499694 7.747755 -2.296726 8.660254 0 8.660254 
z
" id="C0_0_a79d3596c0"/>
    </defs>
    <g clip-path="url(#p80612c09b3)">
     <use style="fill:#ff0000;stroke:#ff0000;" x="400.390766" xlink:href="#C0_0_a79d3596c0" y="378.549379"/>
    </g>
    <g clip-path="url(#p80612c09b3)">
     <use style="fill:#ff0000;stroke:#ff0000;" x="580.738502" xlink:href="#C0_0_a79d3596c0" y="107.607273"/>
    </g>
    <g clip-path="url(#p80612c09b3)">
     <use style="fill:#ff0000;stroke:#ff0000;" x="407.563785" xlink:href="#C0_0_a79d3596c0" y="153.876773"/>
    </g>
    <g clip-path="url(#p80612c09b3)">
     <use style="fill:#ff0000;stroke:#ff0000;" x="357.289464" xlink:href="#C0_0_a79d3596c0" y="260.870985"/>
    </g>
    <g clip-path="url(#p80612c09b3)">
     <use style="fill:#ff0000;stroke:#ff0000;" x="166.105785" xlink:href="#C0_0_a79d3596c0" y="294.292829"/>
    </g>
    <g clip-path="url(#p80612c09b3)">
     <use style="fill:#ff0000;stroke:#ff0000;" x="522.644796" xlink:href="#C0_0_a79d3596c0" y="202.79446"/>
    </g>
    <g clip-path="url(#p80612c09b3)">
     <use style="fill:#ff0000;stroke:#ff0000;" x="392.768188" xlink:href="#C0_0_a79d3596c0" y="366.898"/>
    </g>
    <g clip-path="url(#p80612c09b3)">
     <use style="fill:#ff0000;stroke:#ff0000;" x="336.503162" xlink:href="#C0_0_a79d3596c0" y="467.02952"/>
    </g>
    <g clip-path="url(#p80612c09b3)">
     <use style="fill:#ff0000;stroke:#ff0000;" x="654.564631" xlink:href="#C0_0_a79d3596c0" y="348.373508"/>
    </g>
    <g clip-path="url(#p80612c09b3)">
     <use style="fill:#ff0000;stroke:#ff0000;" x="592.056598" xlink:href="#C0_0_a79d3596c0" y="438.501546"/>
    </g>
    <g clip-path="url(#p80612c09b3)">
     <use style="fill:#008000;stroke:#008000;" x="682.686167" xlink:href="#C0_0_a79d3596c0" y="384.419742"/>
    </g>
    <g clip-path="url(#p80612c09b3)">
     <use style="fill:#ff0000;stroke:#ff0000;" x="630.251664" xlink:href="#C0_0_a79d3596c0" y="375.572874"/>
    </g>
    <g clip-path="url(#p80612c09b3)">
     <use style="fill:#ff0000;stroke:#ff0000;" x="410.285544" xlink:href="#C0_0_a79d3596c0" y="363.341763"/>
    </g>
    <g clip-path="url(#p80612c09b3)">
     <use style="fill:#ff0000;stroke:#ff0000;" x="656.544799" xlink:href="#C0_0_a79d3596c0" y="143.069104"/>
    </g>
    <g clip-path="url(#p80612c09b3)">
     <use style="fill:#ff0000;stroke:#ff0000;" x="542.301547" xlink:href="#C0_0_a79d3596c0" y="418.610587"/>
    </g>
    <g clip-path="url(#p80612c09b3)">
     <use style="fill:#ff0000;stroke:#ff0000;" x="212.339015" xlink:href="#C0_0_a79d3596c0" y="208.200859"/>
    </g>
    <g clip-path="url(#p80612c09b3)">
     <use style="fill:#ff0000;stroke:#ff0000;" x="441.552969" xlink:href="#C0_0_a79d3596c0" y="207.862668"/>
    </g>
    <g clip-path="url(#p80612c09b3)">
     <use style="fill:#ff0000;stroke:#ff0000;" x="395.156115" xlink:href="#C0_0_a79d3596c0" y="269.06635"/>
    </g>
    <g clip-path="url(#p80612c09b3)">
     <use style="fill:#ff0000;stroke:#ff0000;" x="510.214346" xlink:href="#C0_0_a79d3596c0" y="474.152727"/>
    </g>
    <g clip-path="url(#p80612c09b3)">
     <use style="fill:#ff0000;stroke:#ff0000;" x="655.020838" xlink:href="#C0_0_a79d3596c0" y="418.749207"/>
    </g>
    <g clip-path="url(#p80612c09b3)">
     <use style="fill:#ff0000;stroke:#ff0000;" x="719.494215" xlink:href="#C0_0_a79d3596c0" y="306.224221"/>
    </g>
    <g clip-path="url(#p80612c09b3)">
     <use style="fill:#ff0000;stroke:#ff0000;" x="186.19326" xlink:href="#C0_0_a79d3596c0" y="220.026233"/>
    </g>
    <g clip-path="url(#p80612c09b3)">
     <use style="fill:#ff0000;stroke:#ff0000;" x="456.175973" xlink:href="#C0_0_a79d3596c0" y="247.218195"/>
    </g>
    <g clip-path="url(#p80612c09b3)">
     <use style="fill:#ff0000;stroke:#ff0000;" x="448.629083" xlink:href="#C0_0_a79d3596c0" y="278.233594"/>
    </g>
    <g clip-path="url(#p80612c09b3)">
     <use style="fill:#ff0000;stroke:#ff0000;" x="458.670443" xlink:href="#C0_0_a79d3596c0" y="263.402001"/>
    </g>
    <g clip-path="url(#p80612c09b3)">
     <use style="fill:#ff0000;stroke:#ff0000;" x="489.468316" xlink:href="#C0_0_a79d3596c0" y="219.918679"/>
    </g>
    <g clip-path="url(#p80612c09b3)">
     <use style="fill:#ff0000;stroke:#ff0000;" x="399.41428" xlink:href="#C0_0_a79d3596c0" y="223.906377"/>
    </g>
    <g clip-path="url(#p80612c09b3)">
     <use style="fill:#ff0000;stroke:#ff0000;" x="525.839888" xlink:href="#C0_0_a79d3596c0" y="258.71194"/>
    </g>
    <g clip-path="url(#p80612c09b3)">
     <use style="fill:#ff0000;stroke:#ff0000;" x="464.788169" xlink:href="#C0_0_a79d3596c0" y="362.604839"/>
    </g>
    <g clip-path="url(#p80612c09b3)">
     <use style="fill:#ff0000;stroke:#ff0000;" x="245.217804" xlink:href="#C0_0_a79d3596c0" y="428.607799"/>
    </g>
    <g clip-path="url(#p80612c09b3)">
     <use style="fill:#ff0000;stroke:#ff0000;" x="314.852915" xlink:href="#C0_0_a79d3596c0" y="435.585789"/>
    </g>
   </g>
   <g id="text_1">
    <g clip-path="url(#p80612c09b3)">
     <!-- ERBB2 -->
     <g transform="translate(380.379828 381.860629)scale(0.12 -0.12)">
      <defs>
       <path d="M 9.8125 72.90625 
L 55.90625 72.90625 
L 55.90625 64.59375 
L 19.671875 64.59375 
L 19.671875 43.015625 
L 54.390625 43.015625 
L 54.390625 34.71875 
L 19.671875 34.71875 
L 19.671875 8.296875 
L 56.78125 8.296875 
L 56.78125 0 
L 9.8125 0 
z
" id="DejaVuSans-69"/>
       <path d="M 44.390625 34.1875 
Q 47.5625 33.109375 50.5625 29.59375 
Q 53.5625 26.078125 56.59375 19.921875 
L 66.609375 0 
L 56 0 
L 46.6875 18.703125 
Q 43.0625 26.03125 39.671875 28.421875 
Q 36.28125 30.8125 30.421875 30.8125 
L 19.671875 30.8125 
L 19.671875 0 
L 9.8125 0 
L 9.8125 72.90625 
L 32.078125 72.90625 
Q 44.578125 72.90625 50.734375 67.671875 
Q 56.890625 62.453125 56.890625 51.90625 
Q 56.890625 45.015625 53.6875 40.46875 
Q 50.484375 35.9375 44.390625 34.1875 
z
M 19.671875 64.796875 
L 19.671875 38.921875 
L 32.078125 38.921875 
Q 39.203125 38.921875 42.84375 42.21875 
Q 46.484375 45.515625 46.484375 51.90625 
Q 46.484375 58.296875 42.84375 61.546875 
Q 39.203125 64.796875 32.078125 64.796875 
z
" id="DejaVuSans-82"/>
       <path d="M 19.671875 34.8125 
L 19.671875 8.109375 
L 35.5 8.109375 
Q 43.453125 8.109375 47.28125 11.40625 
Q 51.125 14.703125 51.125 21.484375 
Q 51.125 28.328125 47.28125 31.5625 
Q 43.453125 34.8125 35.5 34.8125 
z
M 19.671875 64.796875 
L 19.671875 42.828125 
L 34.28125 42.828125 
Q 41.5 42.828125 45.03125 45.53125 
Q 48.578125 48.25 48.578125 53.8125 
Q 48.578125 59.328125 45.03125 62.0625 
Q 41.5 64.796875 34.28125 64.796875 
z
M 9.8125 72.90625 
L 35.015625 72.90625 
Q 46.296875 72.90625 52.390625 68.21875 
Q 58.5 63.53125 58.5 54.890625 
Q 58.5 48.1875 55.375 44.234375 
Q 52.25 40.28125 46.1875 39.3125 
Q 53.46875 37.75 57.5 32.78125 
Q 61.53125 27.828125 61.53125 20.40625 
Q 61.53125 10.640625 54.890625 5.3125 
Q 48.25 0 35.984375 0 
L 9.8125 0 
z
" id="DejaVuSans-66"/>
       <path d="M 19.1875 8.296875 
L 53.609375 8.296875 
L 53.609375 0 
L 7.328125 0 
L 7.328125 8.296875 
Q 12.9375 14.109375 22.625 23.890625 
Q 32.328125 33.6875 34.8125 36.53125 
Q 39.546875 41.84375 41.421875 45.53125 
Q 43.3125 49.21875 43.3125 52.78125 
Q 43.3125 58.59375 39.234375 62.25 
Q 35.15625 65.921875 28.609375 65.921875 
Q 23.96875 65.921875 18.8125 64.3125 
Q 13.671875 62.703125 7.8125 59.421875 
L 7.8125 69.390625 
Q 13.765625 71.78125 18.9375 73 
Q 24.125 74.21875 28.421875 74.21875 
Q 39.75 74.21875 46.484375 68.546875 
Q 53.21875 62.890625 53.21875 53.421875 
Q 53.21875 48.921875 51.53125 44.890625 
Q 49.859375 40.875 45.40625 35.40625 
Q 44.1875 33.984375 37.640625 27.21875 
Q 31.109375 20.453125 19.1875 8.296875 
z
" id="DejaVuSans-50"/>
      </defs>
      <use xlink:href="#DejaVuSans-69"/>
      <use x="63.183594" xlink:href="#DejaVuSans-82"/>
      <use x="132.666016" xlink:href="#DejaVuSans-66"/>
      <use x="201.269531" xlink:href="#DejaVuSans-66"/>
      <use x="269.873047" xlink:href="#DejaVuSans-50"/>
     </g>
    </g>
   </g>
   <g id="text_2">
    <g clip-path="url(#p80612c09b3)">
     <!-- EIF4EBP1 -->
     <g transform="translate(552.565689 110.918523)scale(0.12 -0.12)">
      <defs>
       <path d="M 9.8125 72.90625 
L 19.671875 72.90625 
L 19.671875 0 
L 9.8125 0 
z
" id="DejaVuSans-73"/>
       <path d="M 9.8125 72.90625 
L 51.703125 72.90625 
L 51.703125 64.59375 
L 19.671875 64.59375 
L 19.671875 43.109375 
L 48.578125 43.109375 
L 48.578125 34.8125 
L 19.671875 34.8125 
L 19.671875 0 
L 9.8125 0 
z
" id="DejaVuSans-70"/>
       <path d="M 37.796875 64.3125 
L 12.890625 25.390625 
L 37.796875 25.390625 
z
M 35.203125 72.90625 
L 47.609375 72.90625 
L 47.609375 25.390625 
L 58.015625 25.390625 
L 58.015625 17.1875 
L 47.609375 17.1875 
L 47.609375 0 
L 37.796875 0 
L 37.796875 17.1875 
L 4.890625 17.1875 
L 4.890625 26.703125 
z
" id="DejaVuSans-52"/>
       <path d="M 19.671875 64.796875 
L 19.671875 37.40625 
L 32.078125 37.40625 
Q 38.96875 37.40625 42.71875 40.96875 
Q 46.484375 44.53125 46.484375 51.125 
Q 46.484375 57.671875 42.71875 61.234375 
Q 38.96875 64.796875 32.078125 64.796875 
z
M 9.8125 72.90625 
L 32.078125 72.90625 
Q 44.34375 72.90625 50.609375 67.359375 
Q 56.890625 61.8125 56.890625 51.125 
Q 56.890625 40.328125 50.609375 34.8125 
Q 44.34375 29.296875 32.078125 29.296875 
L 19.671875 29.296875 
L 19.671875 0 
L 9.8125 0 
z
" id="DejaVuSans-80"/>
       <path d="M 12.40625 8.296875 
L 28.515625 8.296875 
L 28.515625 63.921875 
L 10.984375 60.40625 
L 10.984375 69.390625 
L 28.421875 72.90625 
L 38.28125 72.90625 
L 38.28125 8.296875 
L 54.390625 8.296875 
L 54.390625 0 
L 12.40625 0 
z
" id="DejaVuSans-49"/>
      </defs>
      <use xlink:href="#DejaVuSans-69"/>
      <use x="63.183594" xlink:href="#DejaVuSans-73"/>
      <use x="92.675781" xlink:href="#DejaVuSans-70"/>
      <use x="150.195312" xlink:href="#DejaVuSans-52"/>
      <use x="213.818359" xlink:href="#DejaVuSans-69"/>
      <use x="277.001953" xlink:href="#DejaVuSans-66"/>
      <use x="345.605469" xlink:href="#DejaVuSans-80"/>
      <use x="405.908203" xlink:href="#DejaVuSans-49"/>
     </g>
    </g>
   </g>
   <g id="text_3">
    <g clip-path="url(#p80612c09b3)">
     <!-- MTOR -->
     <g transform="translate(389.830035 157.188023)scale(0.12 -0.12)">
      <defs>
       <path d="M 9.8125 72.90625 
L 24.515625 72.90625 
L 43.109375 23.296875 
L 61.8125 72.90625 
L 76.515625 72.90625 
L 76.515625 0 
L 66.890625 0 
L 66.890625 64.015625 
L 48.09375 14.015625 
L 38.1875 14.015625 
L 19.390625 64.015625 
L 19.390625 0 
L 9.8125 0 
z
" id="DejaVuSans-77"/>
       <path d="M -0.296875 72.90625 
L 61.375 72.90625 
L 61.375 64.59375 
L 35.5 64.59375 
L 35.5 0 
L 25.59375 0 
L 25.59375 64.59375 
L -0.296875 64.59375 
z
" id="DejaVuSans-84"/>
       <path d="M 39.40625 66.21875 
Q 28.65625 66.21875 22.328125 58.203125 
Q 16.015625 50.203125 16.015625 36.375 
Q 16.015625 22.609375 22.328125 14.59375 
Q 28.65625 6.59375 39.40625 6.59375 
Q 50.140625 6.59375 56.421875 14.59375 
Q 62.703125 22.609375 62.703125 36.375 
Q 62.703125 50.203125 56.421875 58.203125 
Q 50.140625 66.21875 39.40625 66.21875 
z
M 39.40625 74.21875 
Q 54.734375 74.21875 63.90625 63.9375 
Q 73.09375 53.65625 73.09375 36.375 
Q 73.09375 19.140625 63.90625 8.859375 
Q 54.734375 -1.421875 39.40625 -1.421875 
Q 24.03125 -1.421875 14.8125 8.828125 
Q 5.609375 19.09375 5.609375 36.375 
Q 5.609375 53.65625 14.8125 63.9375 
Q 24.03125 74.21875 39.40625 74.21875 
z
" id="DejaVuSans-79"/>
      </defs>
      <use xlink:href="#DejaVuSans-77"/>
      <use x="86.279297" xlink:href="#DejaVuSans-84"/>
      <use x="147.363281" xlink:href="#DejaVuSans-79"/>
      <use x="226.074219" xlink:href="#DejaVuSans-82"/>
     </g>
    </g>
   </g>
   <g id="text_4">
    <g clip-path="url(#p80612c09b3)">
     <!-- TGFA -->
     <g transform="translate(341.967901 264.182235)scale(0.12 -0.12)">
      <defs>
       <path d="M 59.515625 10.40625 
L 59.515625 29.984375 
L 43.40625 29.984375 
L 43.40625 38.09375 
L 69.28125 38.09375 
L 69.28125 6.78125 
Q 63.578125 2.734375 56.6875 0.65625 
Q 49.8125 -1.421875 42 -1.421875 
Q 24.90625 -1.421875 15.25 8.5625 
Q 5.609375 18.5625 5.609375 36.375 
Q 5.609375 54.25 15.25 64.234375 
Q 24.90625 74.21875 42 74.21875 
Q 49.125 74.21875 55.546875 72.453125 
Q 61.96875 70.703125 67.390625 67.28125 
L 67.390625 56.78125 
Q 61.921875 61.421875 55.765625 63.765625 
Q 49.609375 66.109375 42.828125 66.109375 
Q 29.4375 66.109375 22.71875 58.640625 
Q 16.015625 51.171875 16.015625 36.375 
Q 16.015625 21.625 22.71875 14.15625 
Q 29.4375 6.6875 42.828125 6.6875 
Q 48.046875 6.6875 52.140625 7.59375 
Q 56.25 8.5 59.515625 10.40625 
z
" id="DejaVuSans-71"/>
       <path d="M 34.1875 63.1875 
L 20.796875 26.90625 
L 47.609375 26.90625 
z
M 28.609375 72.90625 
L 39.796875 72.90625 
L 67.578125 0 
L 57.328125 0 
L 50.6875 18.703125 
L 17.828125 18.703125 
L 11.1875 0 
L 0.78125 0 
z
" id="DejaVuSans-65"/>
      </defs>
      <use xlink:href="#DejaVuSans-84"/>
      <use x="61.083984" xlink:href="#DejaVuSans-71"/>
      <use x="138.574219" xlink:href="#DejaVuSans-70"/>
      <use x="186.96875" xlink:href="#DejaVuSans-65"/>
     </g>
    </g>
   </g>
   <g id="text_5">
    <g clip-path="url(#p80612c09b3)">
     <!-- GRB2 -->
     <g transform="translate(149.353598 297.604079)scale(0.12 -0.12)">
      <use xlink:href="#DejaVuSans-71"/>
      <use x="77.490234" xlink:href="#DejaVuSans-82"/>
      <use x="146.972656" xlink:href="#DejaVuSans-66"/>
      <use x="215.576172" xlink:href="#DejaVuSans-50"/>
     </g>
    </g>
   </g>
   <g id="text_6">
    <g clip-path="url(#p80612c09b3)">
     <!-- NF1 -->
     <g transform="translate(510.887609 206.10571)scale(0.12 -0.12)">
      <defs>
       <path d="M 9.8125 72.90625 
L 23.09375 72.90625 
L 55.421875 11.921875 
L 55.421875 72.90625 
L 64.984375 72.90625 
L 64.984375 0 
L 51.703125 0 
L 19.390625 60.984375 
L 19.390625 0 
L 9.8125 0 
z
" id="DejaVuSans-78"/>
      </defs>
      <use xlink:href="#DejaVuSans-78"/>
      <use x="74.804688" xlink:href="#DejaVuSans-70"/>
      <use x="132.324219" xlink:href="#DejaVuSans-49"/>
     </g>
    </g>
   </g>
   <g id="text_7">
    <g clip-path="url(#p80612c09b3)">
     <!-- IGF1R -->
     <g transform="translate(374.911626 370.20925)scale(0.12 -0.12)">
      <use xlink:href="#DejaVuSans-73"/>
      <use x="29.492188" xlink:href="#DejaVuSans-71"/>
      <use x="106.982422" xlink:href="#DejaVuSans-70"/>
      <use x="164.501953" xlink:href="#DejaVuSans-49"/>
      <use x="228.125" xlink:href="#DejaVuSans-82"/>
     </g>
    </g>
   </g>
   <g id="text_8">
    <g clip-path="url(#p80612c09b3)">
     <!-- STAT3 -->
     <g transform="translate(318.37285 470.34077)scale(0.12 -0.12)">
      <defs>
       <path d="M 53.515625 70.515625 
L 53.515625 60.890625 
Q 47.90625 63.578125 42.921875 64.890625 
Q 37.9375 66.21875 33.296875 66.21875 
Q 25.25 66.21875 20.875 63.09375 
Q 16.5 59.96875 16.5 54.203125 
Q 16.5 49.359375 19.40625 46.890625 
Q 22.3125 44.4375 30.421875 42.921875 
L 36.375 41.703125 
Q 47.40625 39.59375 52.65625 34.296875 
Q 57.90625 29 57.90625 20.125 
Q 57.90625 9.515625 50.796875 4.046875 
Q 43.703125 -1.421875 29.984375 -1.421875 
Q 24.8125 -1.421875 18.96875 -0.25 
Q 13.140625 0.921875 6.890625 3.21875 
L 6.890625 13.375 
Q 12.890625 10.015625 18.65625 8.296875 
Q 24.421875 6.59375 29.984375 6.59375 
Q 38.421875 6.59375 43.015625 9.90625 
Q 47.609375 13.234375 47.609375 19.390625 
Q 47.609375 24.75 44.3125 27.78125 
Q 41.015625 30.8125 33.5 32.328125 
L 27.484375 33.5 
Q 16.453125 35.6875 11.515625 40.375 
Q 6.59375 45.0625 6.59375 53.421875 
Q 6.59375 63.09375 13.40625 68.65625 
Q 20.21875 74.21875 32.171875 74.21875 
Q 37.3125 74.21875 42.625 73.28125 
Q 47.953125 72.359375 53.515625 70.515625 
z
" id="DejaVuSans-83"/>
       <path d="M 40.578125 39.3125 
Q 47.65625 37.796875 51.625 33 
Q 55.609375 28.21875 55.609375 21.1875 
Q 55.609375 10.40625 48.1875 4.484375 
Q 40.765625 -1.421875 27.09375 -1.421875 
Q 22.515625 -1.421875 17.65625 -0.515625 
Q 12.796875 0.390625 7.625 2.203125 
L 7.625 11.71875 
Q 11.71875 9.328125 16.59375 8.109375 
Q 21.484375 6.890625 26.8125 6.890625 
Q 36.078125 6.890625 40.9375 10.546875 
Q 45.796875 14.203125 45.796875 21.1875 
Q 45.796875 27.640625 41.28125 31.265625 
Q 36.765625 34.90625 28.71875 34.90625 
L 20.21875 34.90625 
L 20.21875 43.015625 
L 29.109375 43.015625 
Q 36.375 43.015625 40.234375 45.921875 
Q 44.09375 48.828125 44.09375 54.296875 
Q 44.09375 59.90625 40.109375 62.90625 
Q 36.140625 65.921875 28.71875 65.921875 
Q 24.65625 65.921875 20.015625 65.03125 
Q 15.375 64.15625 9.8125 62.3125 
L 9.8125 71.09375 
Q 15.4375 72.65625 20.34375 73.4375 
Q 25.25 74.21875 29.59375 74.21875 
Q 40.828125 74.21875 47.359375 69.109375 
Q 53.90625 64.015625 53.90625 55.328125 
Q 53.90625 49.265625 50.4375 45.09375 
Q 46.96875 40.921875 40.578125 39.3125 
z
" id="DejaVuSans-51"/>
      </defs>
      <use xlink:href="#DejaVuSans-83"/>
      <use x="63.476562" xlink:href="#DejaVuSans-84"/>
      <use x="116.810547" xlink:href="#DejaVuSans-65"/>
      <use x="177.46875" xlink:href="#DejaVuSans-84"/>
      <use x="238.552734" xlink:href="#DejaVuSans-51"/>
     </g>
    </g>
   </g>
   <g id="text_9">
    <g clip-path="url(#p80612c09b3)">
     <!-- BCL2 -->
     <g transform="translate(639.202756 351.684758)scale(0.12 -0.12)">
      <defs>
       <path d="M 64.40625 67.28125 
L 64.40625 56.890625 
Q 59.421875 61.53125 53.78125 63.8125 
Q 48.140625 66.109375 41.796875 66.109375 
Q 29.296875 66.109375 22.65625 58.46875 
Q 16.015625 50.828125 16.015625 36.375 
Q 16.015625 21.96875 22.65625 14.328125 
Q 29.296875 6.6875 41.796875 6.6875 
Q 48.140625 6.6875 53.78125 8.984375 
Q 59.421875 11.28125 64.40625 15.921875 
L 64.40625 5.609375 
Q 59.234375 2.09375 53.4375 0.328125 
Q 47.65625 -1.421875 41.21875 -1.421875 
Q 24.65625 -1.421875 15.125 8.703125 
Q 5.609375 18.84375 5.609375 36.375 
Q 5.609375 53.953125 15.125 64.078125 
Q 24.65625 74.21875 41.21875 74.21875 
Q 47.75 74.21875 53.53125 72.484375 
Q 59.328125 70.75 64.40625 67.28125 
z
" id="DejaVuSans-67"/>
       <path d="M 9.8125 72.90625 
L 19.671875 72.90625 
L 19.671875 8.296875 
L 55.171875 8.296875 
L 55.171875 0 
L 9.8125 0 
z
" id="DejaVuSans-76"/>
      </defs>
      <use xlink:href="#DejaVuSans-66"/>
      <use x="66.853516" xlink:href="#DejaVuSans-67"/>
      <use x="136.677734" xlink:href="#DejaVuSans-76"/>
      <use x="192.390625" xlink:href="#DejaVuSans-50"/>
     </g>
    </g>
   </g>
   <g id="text_10">
    <g clip-path="url(#p80612c09b3)">
     <!-- BAX -->
     <g transform="translate(579.725661 441.812796)scale(0.12 -0.12)">
      <defs>
       <path d="M 6.296875 72.90625 
L 16.890625 72.90625 
L 35.015625 45.796875 
L 53.21875 72.90625 
L 63.8125 72.90625 
L 40.375 37.890625 
L 65.375 0 
L 54.78125 0 
L 34.28125 31 
L 13.625 0 
L 2.984375 0 
L 29 38.921875 
z
" id="DejaVuSans-88"/>
      </defs>
      <use xlink:href="#DejaVuSans-66"/>
      <use x="68.603516" xlink:href="#DejaVuSans-65"/>
      <use x="137.011719" xlink:href="#DejaVuSans-88"/>
     </g>
    </g>
   </g>
   <g id="text_11">
    <g clip-path="url(#p80612c09b3)">
     <!-- BCL2L1 -->
     <g transform="translate(660.163667 387.730992)scale(0.12 -0.12)">
      <use xlink:href="#DejaVuSans-66"/>
      <use x="66.853516" xlink:href="#DejaVuSans-67"/>
      <use x="136.677734" xlink:href="#DejaVuSans-76"/>
      <use x="192.390625" xlink:href="#DejaVuSans-50"/>
      <use x="256.013672" xlink:href="#DejaVuSans-76"/>
      <use x="311.726562" xlink:href="#DejaVuSans-49"/>
     </g>
    </g>
   </g>
   <g id="text_12">
    <g clip-path="url(#p80612c09b3)">
     <!-- BCL2L11 -->
     <g transform="translate(603.911664 378.884124)scale(0.12 -0.12)">
      <use xlink:href="#DejaVuSans-66"/>
      <use x="66.853516" xlink:href="#DejaVuSans-67"/>
      <use x="136.677734" xlink:href="#DejaVuSans-76"/>
      <use x="192.390625" xlink:href="#DejaVuSans-50"/>
      <use x="256.013672" xlink:href="#DejaVuSans-76"/>
      <use x="311.726562" xlink:href="#DejaVuSans-49"/>
      <use x="375.349609" xlink:href="#DejaVuSans-49"/>
     </g>
    </g>
   </g>
   <g id="text_13">
    <g clip-path="url(#p80612c09b3)">
     <!-- IL6R -->
     <g transform="translate(397.185856 366.653013)scale(0.12 -0.12)">
      <defs>
       <path d="M 33.015625 40.375 
Q 26.375 40.375 22.484375 35.828125 
Q 18.609375 31.296875 18.609375 23.390625 
Q 18.609375 15.53125 22.484375 10.953125 
Q 26.375 6.390625 33.015625 6.390625 
Q 39.65625 6.390625 43.53125 10.953125 
Q 47.40625 15.53125 47.40625 23.390625 
Q 47.40625 31.296875 43.53125 35.828125 
Q 39.65625 40.375 33.015625 40.375 
z
M 52.59375 71.296875 
L 52.59375 62.3125 
Q 48.875 64.0625 45.09375 64.984375 
Q 41.3125 65.921875 37.59375 65.921875 
Q 27.828125 65.921875 22.671875 59.328125 
Q 17.53125 52.734375 16.796875 39.40625 
Q 19.671875 43.65625 24.015625 45.921875 
Q 28.375 48.1875 33.59375 48.1875 
Q 44.578125 48.1875 50.953125 41.515625 
Q 57.328125 34.859375 57.328125 23.390625 
Q 57.328125 12.15625 50.6875 5.359375 
Q 44.046875 -1.421875 33.015625 -1.421875 
Q 20.359375 -1.421875 13.671875 8.265625 
Q 6.984375 17.96875 6.984375 36.375 
Q 6.984375 53.65625 15.1875 63.9375 
Q 23.390625 74.21875 37.203125 74.21875 
Q 40.921875 74.21875 44.703125 73.484375 
Q 48.484375 72.75 52.59375 71.296875 
z
" id="DejaVuSans-54"/>
      </defs>
      <use xlink:href="#DejaVuSans-73"/>
      <use x="29.492188" xlink:href="#DejaVuSans-76"/>
      <use x="85.205078" xlink:href="#DejaVuSans-54"/>
      <use x="148.828125" xlink:href="#DejaVuSans-82"/>
     </g>
    </g>
   </g>
   <g id="text_14">
    <g clip-path="url(#p80612c09b3)">
     <!-- EIF4E -->
     <g transform="translate(639.923861 146.380354)scale(0.12 -0.12)">
      <use xlink:href="#DejaVuSans-69"/>
      <use x="63.183594" xlink:href="#DejaVuSans-73"/>
      <use x="92.675781" xlink:href="#DejaVuSans-70"/>
      <use x="150.195312" xlink:href="#DejaVuSans-52"/>
      <use x="213.818359" xlink:href="#DejaVuSans-69"/>
     </g>
    </g>
   </g>
   <g id="text_15">
    <g clip-path="url(#p80612c09b3)">
     <!-- FOXO3 -->
     <g transform="translate(522.24186 421.921837)scale(0.12 -0.12)">
      <use xlink:href="#DejaVuSans-70"/>
      <use x="57.519531" xlink:href="#DejaVuSans-79"/>
      <use x="129.855469" xlink:href="#DejaVuSans-88"/>
      <use x="191.986328" xlink:href="#DejaVuSans-79"/>
      <use x="270.697266" xlink:href="#DejaVuSans-51"/>
     </g>
    </g>
   </g>
   <g id="text_16">
    <g clip-path="url(#p80612c09b3)">
     <!-- SHC1 -->
     <g transform="translate(196.010577 211.512109)scale(0.12 -0.12)">
      <defs>
       <path d="M 9.8125 72.90625 
L 19.671875 72.90625 
L 19.671875 43.015625 
L 55.515625 43.015625 
L 55.515625 72.90625 
L 65.375 72.90625 
L 65.375 0 
L 55.515625 0 
L 55.515625 34.71875 
L 19.671875 34.71875 
L 19.671875 0 
L 9.8125 0 
z
" id="DejaVuSans-72"/>
      </defs>
      <use xlink:href="#DejaVuSans-83"/>
      <use x="63.476562" xlink:href="#DejaVuSans-72"/>
      <use x="138.671875" xlink:href="#DejaVuSans-67"/>
      <use x="208.496094" xlink:href="#DejaVuSans-49"/>
     </g>
    </g>
   </g>
   <g id="text_17">
    <g clip-path="url(#p80612c09b3)">
     <!-- PRKCA -->
     <g transform="translate(421.867344 211.173918)scale(0.12 -0.12)">
      <defs>
       <path d="M 9.8125 72.90625 
L 19.671875 72.90625 
L 19.671875 42.09375 
L 52.390625 72.90625 
L 65.09375 72.90625 
L 28.90625 38.921875 
L 67.671875 0 
L 54.6875 0 
L 19.671875 35.109375 
L 19.671875 0 
L 9.8125 0 
z
" id="DejaVuSans-75"/>
      </defs>
      <use xlink:href="#DejaVuSans-80"/>
      <use x="60.302734" xlink:href="#DejaVuSans-82"/>
      <use x="129.785156" xlink:href="#DejaVuSans-75"/>
      <use x="189.861328" xlink:href="#DejaVuSans-67"/>
      <use x="259.685547" xlink:href="#DejaVuSans-65"/>
     </g>
    </g>
   </g>
   <g id="text_18">
    <g clip-path="url(#p80612c09b3)">
     <!-- PRKCB -->
     <g transform="translate(375.458302 272.3776)scale(0.12 -0.12)">
      <use xlink:href="#DejaVuSans-80"/>
      <use x="60.302734" xlink:href="#DejaVuSans-82"/>
      <use x="129.785156" xlink:href="#DejaVuSans-75"/>
      <use x="189.861328" xlink:href="#DejaVuSans-67"/>
      <use x="259.685547" xlink:href="#DejaVuSans-66"/>
     </g>
    </g>
   </g>
   <g id="text_19">
    <g clip-path="url(#p80612c09b3)">
     <!-- PLCG1 -->
     <g transform="translate(490.597158 477.463977)scale(0.12 -0.12)">
      <use xlink:href="#DejaVuSans-80"/>
      <use x="60.302734" xlink:href="#DejaVuSans-76"/>
      <use x="116.015625" xlink:href="#DejaVuSans-67"/>
      <use x="185.839844" xlink:href="#DejaVuSans-71"/>
      <use x="263.330078" xlink:href="#DejaVuSans-49"/>
     </g>
    </g>
   </g>
   <g id="text_20">
    <g clip-path="url(#p80612c09b3)">
     <!-- PLCG2 -->
     <g transform="translate(635.403651 422.060457)scale(0.12 -0.12)">
      <use xlink:href="#DejaVuSans-80"/>
      <use x="60.302734" xlink:href="#DejaVuSans-76"/>
      <use x="116.015625" xlink:href="#DejaVuSans-67"/>
      <use x="185.839844" xlink:href="#DejaVuSans-71"/>
      <use x="263.330078" xlink:href="#DejaVuSans-50"/>
     </g>
    </g>
   </g>
   <g id="text_21">
    <g clip-path="url(#p80612c09b3)">
     <!-- MAP2K1 -->
     <g transform="translate(695.025465 309.535471)scale(0.12 -0.12)">
      <use xlink:href="#DejaVuSans-77"/>
      <use x="86.279297" xlink:href="#DejaVuSans-65"/>
      <use x="154.6875" xlink:href="#DejaVuSans-80"/>
      <use x="214.990234" xlink:href="#DejaVuSans-50"/>
      <use x="278.613281" xlink:href="#DejaVuSans-75"/>
      <use x="344.189453" xlink:href="#DejaVuSans-49"/>
     </g>
    </g>
   </g>
   <g id="text_22">
    <g clip-path="url(#p80612c09b3)">
     <!-- MAP2K2 -->
     <g transform="translate(161.72451 223.337483)scale(0.12 -0.12)">
      <use xlink:href="#DejaVuSans-77"/>
      <use x="86.279297" xlink:href="#DejaVuSans-65"/>
      <use x="154.6875" xlink:href="#DejaVuSans-80"/>
      <use x="214.990234" xlink:href="#DejaVuSans-50"/>
      <use x="278.613281" xlink:href="#DejaVuSans-75"/>
      <use x="344.189453" xlink:href="#DejaVuSans-50"/>
     </g>
    </g>
   </g>
   <g id="text_23">
    <g clip-path="url(#p80612c09b3)">
     <!-- BRAF -->
     <g transform="translate(440.575036 250.529445)scale(0.12 -0.12)">
      <use xlink:href="#DejaVuSans-66"/>
      <use x="68.603516" xlink:href="#DejaVuSans-82"/>
      <use x="134.085938" xlink:href="#DejaVuSans-65"/>
      <use x="202.494141" xlink:href="#DejaVuSans-70"/>
     </g>
    </g>
   </g>
   <g id="text_24">
    <g clip-path="url(#p80612c09b3)">
     <!-- RAF1 -->
     <g transform="translate(433.327208 281.544844)scale(0.12 -0.12)">
      <use xlink:href="#DejaVuSans-82"/>
      <use x="65.482422" xlink:href="#DejaVuSans-65"/>
      <use x="133.890625" xlink:href="#DejaVuSans-70"/>
      <use x="191.410156" xlink:href="#DejaVuSans-49"/>
     </g>
    </g>
   </g>
   <g id="text_25">
    <g clip-path="url(#p80612c09b3)">
     <!-- ARAF -->
     <g transform="translate(443.081693 266.713251)scale(0.12 -0.12)">
      <use xlink:href="#DejaVuSans-65"/>
      <use x="68.408203" xlink:href="#DejaVuSans-82"/>
      <use x="133.890625" xlink:href="#DejaVuSans-65"/>
      <use x="202.298828" xlink:href="#DejaVuSans-70"/>
     </g>
    </g>
   </g>
   <g id="text_26">
    <g clip-path="url(#p80612c09b3)">
     <!-- HRAS -->
     <g transform="translate(473.113628 223.229929)scale(0.12 -0.12)">
      <use xlink:href="#DejaVuSans-72"/>
      <use x="75.195312" xlink:href="#DejaVuSans-82"/>
      <use x="140.677734" xlink:href="#DejaVuSans-65"/>
      <use x="209.085938" xlink:href="#DejaVuSans-83"/>
     </g>
    </g>
   </g>
   <g id="text_27">
    <g clip-path="url(#p80612c09b3)">
     <!-- KRAS -->
     <g transform="translate(383.637093 227.217627)scale(0.12 -0.12)">
      <use xlink:href="#DejaVuSans-75"/>
      <use x="65.576172" xlink:href="#DejaVuSans-82"/>
      <use x="131.058594" xlink:href="#DejaVuSans-65"/>
      <use x="199.466797" xlink:href="#DejaVuSans-83"/>
     </g>
    </g>
   </g>
   <g id="text_28">
    <g clip-path="url(#p80612c09b3)">
     <!-- NRAS -->
     <g transform="translate(509.508638 262.02319)scale(0.12 -0.12)">
      <use xlink:href="#DejaVuSans-78"/>
      <use x="74.804688" xlink:href="#DejaVuSans-82"/>
      <use x="140.287109" xlink:href="#DejaVuSans-65"/>
      <use x="208.695312" xlink:href="#DejaVuSans-83"/>
     </g>
    </g>
   </g>
   <g id="text_29">
    <g clip-path="url(#p80612c09b3)">
     <!-- JAK1 -->
     <g transform="translate(451.266606 365.916089)scale(0.12 -0.12)">
      <defs>
       <path d="M 9.8125 72.90625 
L 19.671875 72.90625 
L 19.671875 5.078125 
Q 19.671875 -8.109375 14.671875 -14.0625 
Q 9.671875 -20.015625 -1.421875 -20.015625 
L -5.171875 -20.015625 
L -5.171875 -11.71875 
L -2.09375 -11.71875 
Q 4.4375 -11.71875 7.125 -8.046875 
Q 9.8125 -4.390625 9.8125 5.078125 
z
" id="DejaVuSans-74"/>
      </defs>
      <use xlink:href="#DejaVuSans-74"/>
      <use x="27.742188" xlink:href="#DejaVuSans-65"/>
      <use x="96.150391" xlink:href="#DejaVuSans-75"/>
      <use x="161.726562" xlink:href="#DejaVuSans-49"/>
     </g>
    </g>
   </g>
   <g id="text_30">
    <g clip-path="url(#p80612c09b3)">
     <!-- JAK2 -->
     <g transform="translate(231.696241 431.919049)scale(0.12 -0.12)">
      <use xlink:href="#DejaVuSans-74"/>
      <use x="27.742188" xlink:href="#DejaVuSans-65"/>
      <use x="96.150391" xlink:href="#DejaVuSans-75"/>
      <use x="161.726562" xlink:href="#DejaVuSans-50"/>
     </g>
    </g>
   </g>
   <g id="text_31">
    <g clip-path="url(#p80612c09b3)">
     <!-- NRG2 -->
     <g transform="translate(297.72854 438.897039)scale(0.12 -0.12)">
      <use xlink:href="#DejaVuSans-78"/>
      <use x="74.804688" xlink:href="#DejaVuSans-82"/>
      <use x="144.287109" xlink:href="#DejaVuSans-71"/>
      <use x="221.777344" xlink:href="#DejaVuSans-50"/>
     </g>
    </g>
   </g>
   <g id="text_32">
    <!-- Frame: 11 -->
    <g transform="translate(121.392 91.296)scale(0.1 -0.1)">
     <defs>
      <path d="M 41.109375 46.296875 
Q 39.59375 47.171875 37.8125 47.578125 
Q 36.03125 48 33.890625 48 
Q 26.265625 48 22.1875 43.046875 
Q 18.109375 38.09375 18.109375 28.8125 
L 18.109375 0 
L 9.078125 0 
L 9.078125 54.6875 
L 18.109375 54.6875 
L 18.109375 46.1875 
Q 20.953125 51.171875 25.484375 53.578125 
Q 30.03125 56 36.53125 56 
Q 37.453125 56 38.578125 55.875 
Q 39.703125 55.765625 41.0625 55.515625 
z
" id="DejaVuSans-114"/>
      <path d="M 34.28125 27.484375 
Q 23.390625 27.484375 19.1875 25 
Q 14.984375 22.515625 14.984375 16.5 
Q 14.984375 11.71875 18.140625 8.90625 
Q 21.296875 6.109375 26.703125 6.109375 
Q 34.1875 6.109375 38.703125 11.40625 
Q 43.21875 16.703125 43.21875 25.484375 
L 43.21875 27.484375 
z
M 52.203125 31.203125 
L 52.203125 0 
L 43.21875 0 
L 43.21875 8.296875 
Q 40.140625 3.328125 35.546875 0.953125 
Q 30.953125 -1.421875 24.3125 -1.421875 
Q 15.921875 -1.421875 10.953125 3.296875 
Q 6 8.015625 6 15.921875 
Q 6 25.140625 12.171875 29.828125 
Q 18.359375 34.515625 30.609375 34.515625 
L 43.21875 34.515625 
L 43.21875 35.40625 
Q 43.21875 41.609375 39.140625 45 
Q 35.0625 48.390625 27.6875 48.390625 
Q 23 48.390625 18.546875 47.265625 
Q 14.109375 46.140625 10.015625 43.890625 
L 10.015625 52.203125 
Q 14.9375 54.109375 19.578125 55.046875 
Q 24.21875 56 28.609375 56 
Q 40.484375 56 46.34375 49.84375 
Q 52.203125 43.703125 52.203125 31.203125 
z
" id="DejaVuSans-97"/>
      <path d="M 52 44.1875 
Q 55.375 50.25 60.0625 53.125 
Q 64.75 56 71.09375 56 
Q 79.640625 56 84.28125 50.015625 
Q 88.921875 44.046875 88.921875 33.015625 
L 88.921875 0 
L 79.890625 0 
L 79.890625 32.71875 
Q 79.890625 40.578125 77.09375 44.375 
Q 74.3125 48.1875 68.609375 48.1875 
Q 61.625 48.1875 57.5625 43.546875 
Q 53.515625 38.921875 53.515625 30.90625 
L 53.515625 0 
L 44.484375 0 
L 44.484375 32.71875 
Q 44.484375 40.625 41.703125 44.40625 
Q 38.921875 48.1875 33.109375 48.1875 
Q 26.21875 48.1875 22.15625 43.53125 
Q 18.109375 38.875 18.109375 30.90625 
L 18.109375 0 
L 9.078125 0 
L 9.078125 54.6875 
L 18.109375 54.6875 
L 18.109375 46.1875 
Q 21.1875 51.21875 25.484375 53.609375 
Q 29.78125 56 35.6875 56 
Q 41.65625 56 45.828125 52.96875 
Q 50 49.953125 52 44.1875 
z
" id="DejaVuSans-109"/>
      <path d="M 56.203125 29.59375 
L 56.203125 25.203125 
L 14.890625 25.203125 
Q 15.484375 15.921875 20.484375 11.0625 
Q 25.484375 6.203125 34.421875 6.203125 
Q 39.59375 6.203125 44.453125 7.46875 
Q 49.3125 8.734375 54.109375 11.28125 
L 54.109375 2.78125 
Q 49.265625 0.734375 44.1875 -0.34375 
Q 39.109375 -1.421875 33.890625 -1.421875 
Q 20.796875 -1.421875 13.15625 6.1875 
Q 5.515625 13.8125 5.515625 26.8125 
Q 5.515625 40.234375 12.765625 48.109375 
Q 20.015625 56 32.328125 56 
Q 43.359375 56 49.78125 48.890625 
Q 56.203125 41.796875 56.203125 29.59375 
z
M 47.21875 32.234375 
Q 47.125 39.59375 43.09375 43.984375 
Q 39.0625 48.390625 32.421875 48.390625 
Q 24.90625 48.390625 20.390625 44.140625 
Q 15.875 39.890625 15.1875 32.171875 
z
" id="DejaVuSans-101"/>
      <path d="M 11.71875 12.40625 
L 22.015625 12.40625 
L 22.015625 0 
L 11.71875 0 
z
M 11.71875 51.703125 
L 22.015625 51.703125 
L 22.015625 39.3125 
L 11.71875 39.3125 
z
" id="DejaVuSans-58"/>
      <path id="DejaVuSans-32"/>
     </defs>
     <use xlink:href="#DejaVuSans-70"/>
     <use x="50.269531" xlink:href="#DejaVuSans-114"/>
     <use x="91.382812" xlink:href="#DejaVuSans-97"/>
     <use x="152.662109" xlink:href="#DejaVuSans-109"/>
     <use x="250.074219" xlink:href="#DejaVuSans-101"/>
     <use x="311.597656" xlink:href="#DejaVuSans-58"/>
     <use x="345.289062" xlink:href="#DejaVuSans-32"/>
     <use x="377.076172" xlink:href="#DejaVuSans-49"/>
     <use x="440.699219" xlink:href="#DejaVuSans-49"/>
    </g>
   </g>
   <g id="text_33">
    <!-- Network: hsa01521 -->
    <g transform="translate(384.1275 63.12)scale(0.12 -0.12)">
     <defs>
      <path d="M 18.3125 70.21875 
L 18.3125 54.6875 
L 36.8125 54.6875 
L 36.8125 47.703125 
L 18.3125 47.703125 
L 18.3125 18.015625 
Q 18.3125 11.328125 20.140625 9.421875 
Q 21.96875 7.515625 27.59375 7.515625 
L 36.8125 7.515625 
L 36.8125 0 
L 27.59375 0 
Q 17.1875 0 13.234375 3.875 
Q 9.28125 7.765625 9.28125 18.015625 
L 9.28125 47.703125 
L 2.6875 47.703125 
L 2.6875 54.6875 
L 9.28125 54.6875 
L 9.28125 70.21875 
z
" id="DejaVuSans-116"/>
      <path d="M 4.203125 54.6875 
L 13.1875 54.6875 
L 24.421875 12.015625 
L 35.59375 54.6875 
L 46.1875 54.6875 
L 57.421875 12.015625 
L 68.609375 54.6875 
L 77.59375 54.6875 
L 63.28125 0 
L 52.6875 0 
L 40.921875 44.828125 
L 29.109375 0 
L 18.5 0 
z
" id="DejaVuSans-119"/>
      <path d="M 30.609375 48.390625 
Q 23.390625 48.390625 19.1875 42.75 
Q 14.984375 37.109375 14.984375 27.296875 
Q 14.984375 17.484375 19.15625 11.84375 
Q 23.34375 6.203125 30.609375 6.203125 
Q 37.796875 6.203125 41.984375 11.859375 
Q 46.1875 17.53125 46.1875 27.296875 
Q 46.1875 37.015625 41.984375 42.703125 
Q 37.796875 48.390625 30.609375 48.390625 
z
M 30.609375 56 
Q 42.328125 56 49.015625 48.375 
Q 55.71875 40.765625 55.71875 27.296875 
Q 55.71875 13.875 49.015625 6.21875 
Q 42.328125 -1.421875 30.609375 -1.421875 
Q 18.84375 -1.421875 12.171875 6.21875 
Q 5.515625 13.875 5.515625 27.296875 
Q 5.515625 40.765625 12.171875 48.375 
Q 18.84375 56 30.609375 56 
z
" id="DejaVuSans-111"/>
      <path d="M 9.078125 75.984375 
L 18.109375 75.984375 
L 18.109375 31.109375 
L 44.921875 54.6875 
L 56.390625 54.6875 
L 27.390625 29.109375 
L 57.625 0 
L 45.90625 0 
L 18.109375 26.703125 
L 18.109375 0 
L 9.078125 0 
z
" id="DejaVuSans-107"/>
      <path d="M 54.890625 33.015625 
L 54.890625 0 
L 45.90625 0 
L 45.90625 32.71875 
Q 45.90625 40.484375 42.875 44.328125 
Q 39.84375 48.1875 33.796875 48.1875 
Q 26.515625 48.1875 22.3125 43.546875 
Q 18.109375 38.921875 18.109375 30.90625 
L 18.109375 0 
L 9.078125 0 
L 9.078125 75.984375 
L 18.109375 75.984375 
L 18.109375 46.1875 
Q 21.34375 51.125 25.703125 53.5625 
Q 30.078125 56 35.796875 56 
Q 45.21875 56 50.046875 50.171875 
Q 54.890625 44.34375 54.890625 33.015625 
z
" id="DejaVuSans-104"/>
      <path d="M 44.28125 53.078125 
L 44.28125 44.578125 
Q 40.484375 46.53125 36.375 47.5 
Q 32.28125 48.484375 27.875 48.484375 
Q 21.1875 48.484375 17.84375 46.4375 
Q 14.5 44.390625 14.5 40.28125 
Q 14.5 37.15625 16.890625 35.375 
Q 19.28125 33.59375 26.515625 31.984375 
L 29.59375 31.296875 
Q 39.15625 29.25 43.1875 25.515625 
Q 47.21875 21.78125 47.21875 15.09375 
Q 47.21875 7.46875 41.1875 3.015625 
Q 35.15625 -1.421875 24.609375 -1.421875 
Q 20.21875 -1.421875 15.453125 -0.5625 
Q 10.6875 0.296875 5.421875 2 
L 5.421875 11.28125 
Q 10.40625 8.6875 15.234375 7.390625 
Q 20.0625 6.109375 24.8125 6.109375 
Q 31.15625 6.109375 34.5625 8.28125 
Q 37.984375 10.453125 37.984375 14.40625 
Q 37.984375 18.0625 35.515625 20.015625 
Q 33.0625 21.96875 24.703125 23.78125 
L 21.578125 24.515625 
Q 13.234375 26.265625 9.515625 29.90625 
Q 5.8125 33.546875 5.8125 39.890625 
Q 5.8125 47.609375 11.28125 51.796875 
Q 16.75 56 26.8125 56 
Q 31.78125 56 36.171875 55.265625 
Q 40.578125 54.546875 44.28125 53.078125 
z
" id="DejaVuSans-115"/>
      <path d="M 31.78125 66.40625 
Q 24.171875 66.40625 20.328125 58.90625 
Q 16.5 51.421875 16.5 36.375 
Q 16.5 21.390625 20.328125 13.890625 
Q 24.171875 6.390625 31.78125 6.390625 
Q 39.453125 6.390625 43.28125 13.890625 
Q 47.125 21.390625 47.125 36.375 
Q 47.125 51.421875 43.28125 58.90625 
Q 39.453125 66.40625 31.78125 66.40625 
z
M 31.78125 74.21875 
Q 44.046875 74.21875 50.515625 64.515625 
Q 56.984375 54.828125 56.984375 36.375 
Q 56.984375 17.96875 50.515625 8.265625 
Q 44.046875 -1.421875 31.78125 -1.421875 
Q 19.53125 -1.421875 13.0625 8.265625 
Q 6.59375 17.96875 6.59375 36.375 
Q 6.59375 54.828125 13.0625 64.515625 
Q 19.53125 74.21875 31.78125 74.21875 
z
" id="DejaVuSans-48"/>
      <path d="M 10.796875 72.90625 
L 49.515625 72.90625 
L 49.515625 64.59375 
L 19.828125 64.59375 
L 19.828125 46.734375 
Q 21.96875 47.46875 24.109375 47.828125 
Q 26.265625 48.1875 28.421875 48.1875 
Q 40.625 48.1875 47.75 41.5 
Q 54.890625 34.8125 54.890625 23.390625 
Q 54.890625 11.625 47.5625 5.09375 
Q 40.234375 -1.421875 26.90625 -1.421875 
Q 22.3125 -1.421875 17.546875 -0.640625 
Q 12.796875 0.140625 7.71875 1.703125 
L 7.71875 11.625 
Q 12.109375 9.234375 16.796875 8.0625 
Q 21.484375 6.890625 26.703125 6.890625 
Q 35.15625 6.890625 40.078125 11.328125 
Q 45.015625 15.765625 45.015625 23.390625 
Q 45.015625 31 40.078125 35.4375 
Q 35.15625 39.890625 26.703125 39.890625 
Q 22.75 39.890625 18.8125 39.015625 
Q 14.890625 38.140625 10.796875 36.28125 
z
" id="DejaVuSans-53"/>
     </defs>
     <use xlink:href="#DejaVuSans-78"/>
     <use x="74.804688" xlink:href="#DejaVuSans-101"/>
     <use x="136.328125" xlink:href="#DejaVuSans-116"/>
     <use x="175.537109" xlink:href="#DejaVuSans-119"/>
     <use x="257.324219" xlink:href="#DejaVuSans-111"/>
     <use x="318.505859" xlink:href="#DejaVuSans-114"/>
     <use x="359.619141" xlink:href="#DejaVuSans-107"/>
     <use x="417.529297" xlink:href="#DejaVuSans-58"/>
     <use x="451.220703" xlink:href="#DejaVuSans-32"/>
     <use x="483.007812" xlink:href="#DejaVuSans-104"/>
     <use x="546.386719" xlink:href="#DejaVuSans-115"/>
     <use x="598.486328" xlink:href="#DejaVuSans-97"/>
     <use x="659.765625" xlink:href="#DejaVuSans-48"/>
     <use x="723.388672" xlink:href="#DejaVuSans-49"/>
     <use x="787.011719" xlink:href="#DejaVuSans-53"/>
     <use x="850.634766" xlink:href="#DejaVuSans-50"/>
     <use x="914.257812" xlink:href="#DejaVuSans-49"/>
    </g>
   </g>
  </g>
 </g>
 <defs>
  <clipPath id="p80612c09b3">
   <rect height="443.52" width="669.6" x="108" y="69.12"/>
  </clipPath>
 </defs>
</svg>
