<?xml version="1.0" encoding="utf-8" standalone="no"?>
<!DOCTYPE svg PUBLIC "-//W3C//DTD SVG 1.1//EN"
  "http://www.w3.org/Graphics/SVG/1.1/DTD/svg11.dtd">
<!-- Created with matplotlib (https://matplotlib.org/) -->
<svg height="576pt" version="1.1" viewBox="0 0 864 576" width="864pt" xmlns="http://www.w3.org/2000/svg" xmlns:xlink="http://www.w3.org/1999/xlink">
 <metadata>
  <rdf:RDF xmlns:cc="http://creativecommons.org/ns#" xmlns:dc="http://purl.org/dc/elements/1.1/" xmlns:rdf="http://www.w3.org/1999/02/22-rdf-syntax-ns#">
   <cc:Work>
    <dc:type rdf:resource="http://purl.org/dc/dcmitype/StillImage"/>
    <dc:date>2024-04-26T13:37:25.951212</dc:date>
    <dc:format>image/svg+xml</dc:format>
    <dc:creator>
     <cc:Agent>
      <dc:title>Matplotlib v3.3.1, https://matplotlib.org/</dc:title>
     </cc:Agent>
    </dc:creator>
   </cc:Work>
  </rdf:RDF>
 </metadata>
 <defs>
  <style type="text/css">*{stroke-linecap:butt;stroke-linejoin:round;}</style>
 </defs>
 <g id="figure_1">
  <g id="patch_1">
   <path d="M 0 576 
L 864 576 
L 864 0 
L 0 0 
z
" style="fill:#ffffff;"/>
  </g>
  <g id="axes_1">
   <g id="patch_2">
    <path clip-path="url(#pcb196f014e)" d="M 517.969429 408.425547 
Q 515.333265 409.288475 513.759656 409.803584 
" style="fill:none;stroke:#000000;stroke-linecap:round;"/>
    <path clip-path="url(#pcb196f014e)" d="M 518.183364 410.459944 
L 513.759656 409.803584 
L 516.938969 406.658434 
L 518.183364 410.459944 
z
" style="stroke:#000000;stroke-linecap:round;"/>
   </g>
   <g id="patch_3">
    <path clip-path="url(#pcb196f014e)" d="M 520.093689 399.589172 
Q 508.710303 388.145662 498.115402 377.494801 
" style="fill:none;stroke:#000000;stroke-linecap:round;"/>
    <path clip-path="url(#pcb196f014e)" d="M 499.518436 381.741152 
L 498.115402 377.494801 
L 502.354303 378.920184 
L 499.518436 381.741152 
z
" style="stroke:#000000;stroke-linecap:round;"/>
   </g>
   <g id="patch_4">
    <path clip-path="url(#pcb196f014e)" d="M 422.932388 362.399519 
Q 424.113613 310.974921 425.269163 260.668063 
" style="fill:none;stroke:#000000;stroke-linecap:round;"/>
    <path clip-path="url(#pcb196f014e)" d="M 423.177835 264.62108 
L 425.269163 260.668063 
L 427.17678 264.712936 
L 423.177835 264.62108 
z
" style="stroke:#000000;stroke-linecap:round;"/>
   </g>
   <g id="patch_5">
    <path clip-path="url(#pcb196f014e)" d="M 433.423359 247.405712 
Q 480.800752 226.589943 527.15455 206.223902 
" style="fill:none;stroke:#000000;stroke-linecap:round;"/>
    <path clip-path="url(#pcb196f014e)" d="M 522.687931 206.001833 
L 527.15455 206.223902 
L 524.296924 209.663956 
L 522.687931 206.001833 
z
" style="stroke:#000000;stroke-linecap:round;"/>
   </g>
   <g id="patch_6">
    <path clip-path="url(#pcb196f014e)" d="M 434.155181 250.841119 
Q 467.391136 250.654849 499.509074 250.474845 
" style="fill:none;stroke:#000000;stroke-linecap:round;"/>
    <path clip-path="url(#pcb196f014e)" d="M 495.497928 248.497294 
L 499.509074 250.474845 
L 495.520345 252.497231 
L 495.497928 248.497294 
z
" style="stroke:#000000;stroke-linecap:round;"/>
   </g>
   <g id="patch_7">
    <path clip-path="url(#pcb196f014e)" d="M 432.293318 245.524974 
Q 461.05314 222.834123 488.935225 200.835787 
" style="fill:none;stroke:#000000;stroke-linecap:round;"/>
    <path clip-path="url(#pcb196f014e)" d="M 484.556127 201.74326 
L 488.935225 200.835787 
L 487.033744 204.883549 
L 484.556127 201.74326 
z
" style="stroke:#000000;stroke-linecap:round;"/>
   </g>
   <g id="patch_8">
    <path clip-path="url(#pcb196f014e)" d="M 302.717105 288.375368 
Q 280.280477 224.602958 258.214904 161.885214 
" style="fill:none;stroke:#000000;stroke-linecap:round;"/>
    <path clip-path="url(#pcb196f014e)" d="M 257.655792 166.322261 
L 258.214904 161.885214 
L 261.429075 164.994732 
L 257.655792 166.322261 
z
" style="stroke:#000000;stroke-linecap:round;"/>
   </g>
   <g id="patch_9">
    <path clip-path="url(#pcb196f014e)" d="M 306.683159 305.14 
Q 315.789207 376.859868 324.754432 447.470606 
" style="fill:none;stroke:#000000;stroke-linecap:round;"/>
    <path clip-path="url(#pcb196f014e)" d="M 326.234681 443.250551 
L 324.754432 447.470606 
L 322.266538 443.754373 
L 326.234681 443.250551 
z
" style="stroke:#000000;stroke-linecap:round;"/>
   </g>
   <g id="patch_10">
    <path clip-path="url(#pcb196f014e)" d="M 296.997047 295.479009 
Q 281.168491 293.511765 266.449433 291.682415 
" style="fill:none;stroke:#000000;stroke-linecap:round;"/>
    <path clip-path="url(#pcb196f014e)" d="M 270.172222 294.160487 
L 266.449433 291.682415 
L 270.665564 290.191027 
L 270.172222 294.160487 
z
" style="stroke:#000000;stroke-linecap:round;"/>
   </g>
   <g id="patch_11">
    <path clip-path="url(#pcb196f014e)" d="M 296.931459 296.352257 
Q 250.529359 295.307531 205.24501 294.28797 
" style="fill:none;stroke:#000000;stroke-linecap:round;"/>
    <path clip-path="url(#pcb196f014e)" d="M 209.198978 296.377499 
L 205.24501 294.28797 
L 209.289014 292.378513 
L 209.198978 296.377499 
z
" style="stroke:#000000;stroke-linecap:round;"/>
   </g>
   <g id="patch_12">
    <path clip-path="url(#pcb196f014e)" d="M 313.69639 299.598219 
Q 353.823734 314.704824 392.904736 329.417515 
" style="fill:none;stroke:#000000;stroke-linecap:round;"/>
    <path clip-path="url(#pcb196f014e)" d="M 389.865881 326.136455 
L 392.904736 329.417515 
L 388.456575 329.879964 
L 389.865881 326.136455 
z
" style="stroke:#000000;stroke-linecap:round;"/>
   </g>
   <g id="patch_13">
    <path clip-path="url(#pcb196f014e)" d="M 455.821515 126.272491 
Q 525.732578 132.584077 594.530135 138.795136 
" style="fill:none;stroke:#000000;stroke-linecap:round;"/>
    <path clip-path="url(#pcb196f014e)" d="M 590.726166 136.443578 
L 594.530135 138.795136 
L 590.366508 140.427376 
L 590.726166 136.443578 
z
" style="stroke:#000000;stroke-linecap:round;"/>
   </g>
   <g id="patch_14">
    <path clip-path="url(#pcb196f014e)" d="M 646.021401 294.360071 
Q 609.855829 222.084968 574.190568 150.80971 
" style="fill:none;stroke:#000000;stroke-linecap:round;"/>
    <path clip-path="url(#pcb196f014e)" d="M 574.191954 155.281845 
L 574.190568 150.80971 
L 577.769108 153.491882 
L 574.191954 155.281845 
z
" style="stroke:#000000;stroke-linecap:round;"/>
   </g>
   <g id="patch_15">
    <path clip-path="url(#pcb196f014e)" d="M 680.478471 304.008584 
Q 617.365536 263.160636 555.191199 222.920169 
" style="fill:none;stroke:#000000;stroke-linecap:round;"/>
    <path clip-path="url(#pcb196f014e)" d="M 557.46254 226.772572 
L 555.191199 222.920169 
L 559.635926 223.414538 
L 557.46254 226.772572 
z
" style="stroke:#000000;stroke-linecap:round;"/>
   </g>
   <g id="patch_16">
    <path clip-path="url(#pcb196f014e)" d="M 600.079369 268.992972 
Q 639.969359 287.066306 678.840967 304.678231 
" style="fill:none;stroke:#000000;stroke-linecap:round;"/>
    <path clip-path="url(#pcb196f014e)" d="M 676.022884 301.20571 
L 678.840967 304.678231 
L 674.3721 304.849185 
L 676.022884 301.20571 
z
" style="stroke:#000000;stroke-linecap:round;"/>
   </g>
   <g id="patch_17">
    <path clip-path="url(#pcb196f014e)" d="M 683.116951 191.292213 
Q 630.436943 168.403753 578.782364 145.960823 
" style="fill:none;stroke:#000000;stroke-linecap:round;"/>
    <path clip-path="url(#pcb196f014e)" d="M 581.654062 149.389139 
L 578.782364 145.960823 
L 583.248035 145.720454 
L 581.654062 149.389139 
z
" style="stroke:#000000;stroke-linecap:round;"/>
   </g>
   <g id="patch_18">
    <path clip-path="url(#pcb196f014e)" d="M 674.712168 203.366967 
Q 694.527076 230.117674 713.676508 255.969971 
" style="fill:none;stroke:#000000;stroke-linecap:round;"/>
    <path clip-path="url(#pcb196f014e)" d="M 712.902758 251.565279 
L 713.676508 255.969971 
L 709.688505 253.946156 
L 712.902758 251.565279 
z
" style="stroke:#000000;stroke-linecap:round;"/>
   </g>
   <g id="patch_19">
    <path clip-path="url(#pcb196f014e)" d="M 428.932714 297.793521 
Q 508.136919 368.927544 586.509314 439.31451 
" style="fill:none;stroke:#000000;stroke-linecap:round;"/>
    <path clip-path="url(#pcb196f014e)" d="M 584.869716 435.153775 
L 586.509314 439.31451 
L 582.196967 438.129748 
L 584.869716 435.153775 
z
" style="stroke:#000000;stroke-linecap:round;"/>
   </g>
   <g id="patch_20">
    <path clip-path="url(#pcb196f014e)" d="M 414.055932 293.980301 
Q 306.904067 319.048856 200.84084 343.862721 
" style="fill:none;stroke:#000000;stroke-linecap:round;"/>
    <path clip-path="url(#pcb196f014e)" d="M 205.191274 344.898927 
L 200.84084 343.862721 
L 204.280065 341.004097 
L 205.191274 344.898927 
z
" style="stroke:#000000;stroke-linecap:round;"/>
   </g>
   <g id="patch_21">
    <path clip-path="url(#pcb196f014e)" d="M 431.145696 292.285989 
Q 534.289076 295.608661 636.315003 298.895334 
" style="fill:none;stroke:#000000;stroke-linecap:round;"/>
    <path clip-path="url(#pcb196f014e)" d="M 632.381472 296.767582 
L 636.315003 298.895334 
L 632.252682 300.765508 
L 632.381472 296.767582 
z
" style="stroke:#000000;stroke-linecap:round;"/>
   </g>
   <g id="patch_22">
    <path clip-path="url(#pcb196f014e)" d="M 426.989804 284.610905 
Q 475.435215 204.984259 523.29951 126.312759 
" style="fill:none;stroke:#000000;stroke-linecap:round;"/>
    <path clip-path="url(#pcb196f014e)" d="M 519.511826 128.690457 
L 523.29951 126.312759 
L 522.929058 130.769525 
L 519.511826 128.690457 
z
" style="stroke:#000000;stroke-linecap:round;"/>
   </g>
   <g id="patch_23">
    <path clip-path="url(#pcb196f014e)" d="M 416.703047 285.563542 
Q 357.303927 219.422892 298.651845 154.114068 
" style="fill:none;stroke:#000000;stroke-linecap:round;"/>
    <path clip-path="url(#pcb196f014e)" d="M 299.83652 158.426439 
L 298.651845 154.114068 
L 302.812547 155.75375 
L 299.83652 158.426439 
z
" style="stroke:#000000;stroke-linecap:round;"/>
   </g>
   <g id="patch_24">
    <path clip-path="url(#pcb196f014e)" d="M 415.322123 296.871518 
Q 339.874283 348.073894 265.351558 398.648446 
" style="fill:none;stroke:#000000;stroke-linecap:round;"/>
    <path clip-path="url(#pcb196f014e)" d="M 269.784434 398.057166 
L 265.351558 398.648446 
L 267.538259 394.747377 
L 269.784434 398.057166 
z
" style="stroke:#000000;stroke-linecap:round;"/>
   </g>
   <g id="patch_25">
    <path clip-path="url(#pcb196f014e)" d="M 540.449448 223.29198 
Q 528.136009 234.012229 516.665807 243.998344 
" style="fill:none;stroke:#000000;stroke-linecap:round;"/>
    <path clip-path="url(#pcb196f014e)" d="M 520.99592 242.880256 
L 516.665807 243.998344 
L 518.369404 239.863401 
L 520.99592 242.880256 
z
" style="stroke:#000000;stroke-linecap:round;"/>
   </g>
   <g id="patch_26">
    <path clip-path="url(#pcb196f014e)" d="M 539.094709 214.03255 
Q 521.797743 206.194355 505.51913 198.817632 
" style="fill:none;stroke:#000000;stroke-linecap:round;"/>
    <path clip-path="url(#pcb196f014e)" d="M 508.336998 202.290329 
L 505.51913 198.817632 
L 509.988008 198.646956 
L 508.336998 202.290329 
z
" style="stroke:#000000;stroke-linecap:round;"/>
   </g>
   <g id="patch_27">
    <path clip-path="url(#pcb196f014e)" d="M 534.692109 124.444998 
Q 460.441736 122.698745 387.309088 120.978779 
" style="fill:none;stroke:#000000;stroke-linecap:round;"/>
    <path clip-path="url(#pcb196f014e)" d="M 391.260958 123.072274 
L 387.309088 120.978779 
L 391.355006 119.07338 
L 391.260958 123.072274 
z
" style="stroke:#000000;stroke-linecap:round;"/>
   </g>
   <g id="patch_28">
    <path clip-path="url(#pcb196f014e)" d="M 551.741606 211.87977 
Q 468.475128 168.321587 386.199321 125.281641 
" style="fill:none;stroke:#000000;stroke-linecap:round;"/>
    <path clip-path="url(#pcb196f014e)" d="M 388.816602 128.907912 
L 386.199321 125.281641 
L 390.670706 125.363579 
L 388.816602 128.907912 
z
" style="stroke:#000000;stroke-linecap:round;"/>
   </g>
   <g id="patch_29">
    <path clip-path="url(#pcb196f014e)" d="M 462.709256 313.867634 
Q 420.212472 278.683659 378.576873 244.212678 
" style="fill:none;stroke:#000000;stroke-linecap:round;"/>
    <path clip-path="url(#pcb196f014e)" d="M 380.382503 248.304096 
L 378.576873 244.212678 
L 382.933385 245.223025 
L 380.382503 248.304096 
z
" style="stroke:#000000;stroke-linecap:round;"/>
   </g>
   <g id="patch_30">
    <path clip-path="url(#pcb196f014e)" d="M 367.534254 230.060509 
Q 346.523782 182.674443 325.966485 136.310449 
" style="fill:none;stroke:#000000;stroke-linecap:round;"/>
    <path clip-path="url(#pcb196f014e)" d="M 325.759478 140.777791 
L 325.966485 136.310449 
L 329.416155 139.15646 
L 325.759478 140.777791 
z
" style="stroke:#000000;stroke-linecap:round;"/>
   </g>
   <g id="patch_31">
    <path clip-path="url(#pcb196f014e)" d="M 364.732964 232.045781 
Q 351.831234 219.922418 339.744269 208.564665 
" style="fill:none;stroke:#000000;stroke-linecap:round;"/>
    <path clip-path="url(#pcb196f014e)" d="M 341.289696 212.761289 
L 339.744269 208.564665 
L 344.028824 209.846298 
L 341.289696 212.761289 
z
" style="stroke:#000000;stroke-linecap:round;"/>
   </g>
   <g id="patch_32">
    <path clip-path="url(#pcb196f014e)" d="M 384.657305 310.868331 
Q 422.710074 314.696165 459.650423 318.412097 
" style="fill:none;stroke:#000000;stroke-linecap:round;"/>
    <path clip-path="url(#pcb196f014e)" d="M 455.870684 316.021789 
L 459.650423 318.412097 
L 455.470334 320.001703 
L 455.870684 316.021789 
z
" style="stroke:#000000;stroke-linecap:round;"/>
   </g>
   <g id="patch_33">
    <path clip-path="url(#pcb196f014e)" d="M 194.200016 339.907456 
Q 223.67727 338.778582 252.03731 337.692493 
" style="fill:none;stroke:#000000;stroke-linecap:round;"/>
    <path clip-path="url(#pcb196f014e)" d="M 247.963703 335.847032 
L 252.03731 337.692493 
L 248.116777 339.844101 
L 247.963703 335.847032 
z
" style="stroke:#000000;stroke-linecap:round;"/>
   </g>
   <g id="patch_34">
    <path clip-path="url(#pcb196f014e)" d="M 190.956666 346.99749 
Q 221.269591 384.870632 250.883883 421.870897 
" style="fill:none;stroke:#000000;stroke-linecap:round;"/>
    <path clip-path="url(#pcb196f014e)" d="M 249.945826 417.49825 
L 250.883883 421.870897 
L 246.822931 419.997754 
L 249.945826 417.49825 
z
" style="stroke:#000000;stroke-linecap:round;"/>
   </g>
   <g id="patch_35">
    <path clip-path="url(#pcb196f014e)" d="M 257.795102 175.440797 
Q 286.432283 154.000093 314.174478 133.229466 
" style="fill:none;stroke:#000000;stroke-linecap:round;"/>
    <path clip-path="url(#pcb196f014e)" d="M 309.773815 134.025807 
L 314.174478 133.229466 
L 312.171153 137.227802 
L 309.773815 134.025807 
z
" style="stroke:#000000;stroke-linecap:round;"/>
   </g>
   <g id="patch_36">
    <path clip-path="url(#pcb196f014e)" d="M 324.568425 205.063916 
Q 249.361779 234.892011 175.194411 264.307913 
" style="fill:none;stroke:#000000;stroke-linecap:round;"/>
    <path clip-path="url(#pcb196f014e)" d="M 179.649995 264.692322 
L 175.194411 264.307913 
L 178.175289 260.974091 
L 179.649995 264.692322 
z
" style="stroke:#000000;stroke-linecap:round;"/>
   </g>
   <g id="patch_37">
    <path clip-path="url(#pcb196f014e)" d="M 254.795342 332.232777 
Q 213.956951 302.61562 174.023635 273.654849 
" style="fill:none;stroke:#000000;stroke-linecap:round;"/>
    <path clip-path="url(#pcb196f014e)" d="M 176.087548 277.622249 
L 174.023635 273.654849 
L 178.435903 274.384158 
L 176.087548 277.622249 
z
" style="stroke:#000000;stroke-linecap:round;"/>
   </g>
   <g id="patch_38">
    <path clip-path="url(#pcb196f014e)" d="M 342.569925 219.352891 
Q 300.706039 201.676347 259.872137 184.434702 
" style="fill:none;stroke:#000000;stroke-linecap:round;"/>
    <path clip-path="url(#pcb196f014e)" d="M 262.779144 187.833129 
L 259.872137 184.434702 
L 264.335083 184.148152 
L 262.779144 187.833129 
z
" style="stroke:#000000;stroke-linecap:round;"/>
   </g>
   <g id="patch_39">
    <path clip-path="url(#pcb196f014e)" d="M 536.913213 193.669476 
Q 539.728457 163.47072 542.439924 134.385171 
" style="fill:none;stroke:#000000;stroke-linecap:round;"/>
    <path clip-path="url(#pcb196f014e)" d="M 540.077273 138.182259 
L 542.439924 134.385171 
L 544.060004 138.553544 
L 540.077273 138.182259 
z
" style="stroke:#000000;stroke-linecap:round;"/>
   </g>
   <g id="patch_40">
    <path clip-path="url(#pcb196f014e)" d="M 543.58894 206.655418 
Q 547.763827 209.092499 550.973153 210.965936 
" style="fill:none;stroke:#000000;stroke-linecap:round;"/>
    <path clip-path="url(#pcb196f014e)" d="M 548.526937 207.222138 
L 550.973153 210.965936 
L 546.510385 210.67663 
L 548.526937 207.222138 
z
" style="stroke:#000000;stroke-linecap:round;"/>
   </g>
   <g id="patch_41">
    <path clip-path="url(#pcb196f014e)" d="M 358.939616 395.466642 
Q 438.248953 400.333321 516.442355 405.131522 
" style="fill:none;stroke:#000000;stroke-linecap:round;"/>
    <path clip-path="url(#pcb196f014e)" d="M 512.572361 402.890285 
L 516.442355 405.131522 
L 512.327369 406.882775 
L 512.572361 402.890285 
z
" style="stroke:#000000;stroke-linecap:round;"/>
   </g>
   <g id="patch_42">
    <path clip-path="url(#pcb196f014e)" d="M 504.206821 411.858211 
Q 414.493955 429.893259 325.877194 447.707956 
" style="fill:none;stroke:#000000;stroke-linecap:round;"/>
    <path clip-path="url(#pcb196f014e)" d="M 330.192912 448.880376 
L 325.877194 447.707956 
L 329.404562 444.958833 
L 330.192912 448.880376 
z
" style="stroke:#000000;stroke-linecap:round;"/>
   </g>
   <g id="patch_43">
    <path clip-path="url(#pcb196f014e)" d="M 520.189495 405.809809 
Q 600.222478 359.43334 679.288103 313.617423 
" style="fill:none;stroke:#000000;stroke-linecap:round;"/>
    <path clip-path="url(#pcb196f014e)" d="M 674.824432 313.892453 
L 679.288103 313.617423 
L 676.829924 317.353378 
L 674.824432 313.892453 
z
" style="stroke:#000000;stroke-linecap:round;"/>
   </g>
   <g id="patch_44">
    <path clip-path="url(#pcb196f014e)" d="M 483.325639 374.129212 
Q 403.75496 410.098092 325.203062 445.606446 
" style="fill:none;stroke:#000000;stroke-linecap:round;"/>
    <path clip-path="url(#pcb196f014e)" d="M 329.671779 445.781267 
L 325.203062 445.606446 
L 328.024149 442.136364 
L 329.671779 445.781267 
z
" style="stroke:#000000;stroke-linecap:round;"/>
   </g>
   <g id="patch_45">
    <path clip-path="url(#pcb196f014e)" d="M 499.480174 367.961466 
Q 589.485158 339.6375 678.423669 311.649146 
" style="fill:none;stroke:#000000;stroke-linecap:round;"/>
    <path clip-path="url(#pcb196f014e)" d="M 674.007778 310.942103 
L 678.423669 311.649146 
L 675.2085 314.757633 
L 674.007778 310.942103 
z
" style="stroke:#000000;stroke-linecap:round;"/>
   </g>
   <g id="patch_46">
    <path clip-path="url(#pcb196f014e)" d="M 503.448397 114.699963 
Q 532.627394 126.731233 560.772775 138.336316 
" style="fill:none;stroke:#000000;stroke-linecap:round;"/>
    <path clip-path="url(#pcb196f014e)" d="M 557.837181 134.962551 
L 560.772775 138.336316 
L 556.312406 138.660532 
L 557.837181 134.962551 
z
" style="stroke:#000000;stroke-linecap:round;"/>
   </g>
   <g id="patch_47">
    <path clip-path="url(#pcb196f014e)" d="M 395.241698 191.092824 
Q 478.357999 167.749826 560.39791 144.709128 
" style="fill:none;stroke:#000000;stroke-linecap:round;"/>
    <path clip-path="url(#pcb196f014e)" d="M 556.00613 143.86517 
L 560.39791 144.709128 
L 557.087675 147.716178 
L 556.00613 143.86517 
z
" style="stroke:#000000;stroke-linecap:round;"/>
   </g>
   <g id="patch_48">
    <path clip-path="url(#pcb196f014e)" d="M 511.478793 364.221913 
Q 438.431384 349.185 366.479047 334.37351 
" style="fill:none;stroke:#000000;stroke-linecap:round;"/>
    <path clip-path="url(#pcb196f014e)" d="M 369.993652 337.138932 
L 366.479047 334.37351 
L 370.800147 333.22108 
L 369.993652 337.138932 
z
" style="stroke:#000000;stroke-linecap:round;"/>
   </g>
   <g id="patch_49">
    <path clip-path="url(#pcb196f014e)" d="M 511.519169 367.903024 
Q 480.192881 375.083784 449.956363 382.014742 
" style="fill:none;stroke:#000000;stroke-linecap:round;"/>
    <path clip-path="url(#pcb196f014e)" d="M 454.302103 383.070463 
L 449.956363 382.014742 
L 453.408383 379.171583 
L 454.302103 383.070463 
z
" style="stroke:#000000;stroke-linecap:round;"/>
   </g>
   <g id="patch_50">
    <path clip-path="url(#pcb196f014e)" d="M 512.934328 344.56088 
Q 439.232439 338.817375 366.645206 333.160734 
" style="fill:none;stroke:#000000;stroke-linecap:round;"/>
    <path clip-path="url(#pcb196f014e)" d="M 370.477728 335.465462 
L 366.645206 333.160734 
L 370.788501 331.477553 
L 370.477728 335.465462 
z
" style="stroke:#000000;stroke-linecap:round;"/>
   </g>
   <g id="patch_51">
    <path clip-path="url(#pcb196f014e)" d="M 513.762741 348.983197 
Q 481.000232 364.715794 449.245577 379.964417 
" style="fill:none;stroke:#000000;stroke-linecap:round;"/>
    <path clip-path="url(#pcb196f014e)" d="M 453.717143 380.035808 
L 449.245577 379.964417 
L 451.98563 376.429999 
L 453.717143 380.035808 
z
" style="stroke:#000000;stroke-linecap:round;"/>
   </g>
   <g id="patch_52">
    <path clip-path="url(#pcb196f014e)" d="M 364.211523 327.762373 
Q 409.667167 298.934274 454.178645 270.704969 
" style="fill:none;stroke:#000000;stroke-linecap:round;"/>
    <path clip-path="url(#pcb196f014e)" d="M 449.729545 271.158299 
L 454.178645 270.704969 
L 451.871849 274.536247 
L 449.729545 271.158299 
z
" style="stroke:#000000;stroke-linecap:round;"/>
   </g>
   <g id="patch_53">
    <path clip-path="url(#pcb196f014e)" d="M 349.696889 337.210969 
Q 330.171295 350.254125 311.575388 362.676248 
" style="fill:none;stroke:#000000;stroke-linecap:round;"/>
    <path clip-path="url(#pcb196f014e)" d="M 316.012475 362.117445 
L 311.575388 362.676248 
L 313.790598 358.791297 
L 316.012475 362.117445 
z
" style="stroke:#000000;stroke-linecap:round;"/>
   </g>
   <g id="patch_54">
    <path clip-path="url(#pcb196f014e)" d="M 348.500388 334.515368 
Q 271.791099 353.830239 196.166004 372.872118 
" style="fill:none;stroke:#000000;stroke-linecap:round;"/>
    <path clip-path="url(#pcb196f014e)" d="M 200.533276 373.834894 
L 196.166004 372.872118 
L 199.556588 369.955966 
L 200.533276 373.834894 
z
" style="stroke:#000000;stroke-linecap:round;"/>
   </g>
   <g id="patch_55">
    <path clip-path="url(#pcb196f014e)" d="M 351.161971 325.908743 
Q 290.559667 257.30713 230.697569 189.543429 
" style="fill:none;stroke:#000000;stroke-linecap:round;"/>
    <path clip-path="url(#pcb196f014e)" d="M 231.846911 193.865351 
L 230.697569 189.543429 
L 234.844712 191.217109 
L 231.846911 193.865351 
z
" style="stroke:#000000;stroke-linecap:round;"/>
   </g>
   <g id="patch_56">
    <path clip-path="url(#pcb196f014e)" d="M 363.375062 338.152395 
Q 436.726342 403.277371 509.241563 467.660051 
" style="fill:none;stroke:#000000;stroke-linecap:round;"/>
    <path clip-path="url(#pcb196f014e)" d="M 507.578244 463.508741 
L 509.241563 467.660051 
L 504.922524 466.49992 
L 507.578244 463.508741 
z
" style="stroke:#000000;stroke-linecap:round;"/>
   </g>
   <g id="patch_57">
    <path clip-path="url(#pcb196f014e)" d="M 442.005914 375.680641 
Q 451.430896 324.831459 460.652119 275.081587 
" style="fill:none;stroke:#000000;stroke-linecap:round;"/>
    <path clip-path="url(#pcb196f014e)" d="M 457.956623 278.650103 
L 460.652119 275.081587 
L 461.889634 279.379093 
L 457.956623 278.650103 
z
" style="stroke:#000000;stroke-linecap:round;"/>
   </g>
   <g id="patch_58">
    <path clip-path="url(#pcb196f014e)" d="M 431.827947 383.188992 
Q 371.935995 376.153588 313.154442 369.248621 
" style="fill:none;stroke:#000000;stroke-linecap:round;"/>
    <path clip-path="url(#pcb196f014e)" d="M 316.893794 371.701627 
L 313.154442 369.248621 
L 317.360459 367.728943 
L 316.893794 371.701627 
z
" style="stroke:#000000;stroke-linecap:round;"/>
   </g>
   <g id="patch_59">
    <path clip-path="url(#pcb196f014e)" d="M 453.937818 267.153013 
Q 384.013722 281.008258 315.186337 294.646193 
" style="fill:none;stroke:#000000;stroke-linecap:round;"/>
    <path clip-path="url(#pcb196f014e)" d="M 319.498788 295.830579 
L 315.186337 294.646193 
L 318.721316 291.906864 
L 319.498788 295.830579 
z
" style="stroke:#000000;stroke-linecap:round;"/>
   </g>
   <g id="patch_60">
    <path clip-path="url(#pcb196f014e)" d="M 303.703835 359.455513 
Q 304.51805 332.330548 305.298721 306.323113 
" style="fill:none;stroke:#000000;stroke-linecap:round;"/>
    <path clip-path="url(#pcb196f014e)" d="M 303.179606 310.261305 
L 305.298721 306.323113 
L 307.177805 310.38132 
L 303.179606 310.261305 
z
" style="stroke:#000000;stroke-linecap:round;"/>
   </g>
   <g id="patch_61">
    <path clip-path="url(#pcb196f014e)" d="M 445.379469 374.057114 
Q 405.055102 355.073036 365.742278 336.565177 
" style="fill:none;stroke:#000000;stroke-linecap:round;"/>
    <path clip-path="url(#pcb196f014e)" d="M 368.509395 340.078447 
L 365.742278 336.565177 
L 370.213164 336.459445 
L 368.509395 340.078447 
z
" style="stroke:#000000;stroke-linecap:round;"/>
   </g>
   <g id="patch_62">
    <path clip-path="url(#pcb196f014e)" d="M 444.775307 375.805514 
Q 385.147879 362.099891 326.610071 348.644722 
" style="fill:none;stroke:#000000;stroke-linecap:round;"/>
    <path clip-path="url(#pcb196f014e)" d="M 330.06039 351.489946 
L 326.610071 348.644722 
L 330.956442 347.591601 
L 330.06039 351.489946 
z
" style="stroke:#000000;stroke-linecap:round;"/>
   </g>
   <g id="patch_63">
    <path clip-path="url(#pcb196f014e)" d="M 454.705562 349.831503 
Q 410.065308 341.876164 366.525747 334.116979 
" style="fill:none;stroke:#000000;stroke-linecap:round;"/>
    <path clip-path="url(#pcb196f014e)" d="M 370.112812 336.78774 
L 366.525747 334.116979 
L 370.814595 332.849784 
L 370.112812 336.78774 
z
" style="stroke:#000000;stroke-linecap:round;"/>
   </g>
   <g id="patch_64">
    <path clip-path="url(#pcb196f014e)" d="M 454.573313 351.060696 
Q 390.156573 348.902862 326.857241 346.782458 
" style="fill:none;stroke:#000000;stroke-linecap:round;"/>
    <path clip-path="url(#pcb196f014e)" d="M 330.78804 348.915254 
L 326.857241 346.782458 
L 330.921957 344.917497 
L 330.78804 348.915254 
z
" style="stroke:#000000;stroke-linecap:round;"/>
   </g>
   <g id="patch_65">
    <path clip-path="url(#pcb196f014e)" d="M 341.726981 402.433812 
Q 348.395003 371.651301 354.82633 341.961482 
" style="fill:none;stroke:#000000;stroke-linecap:round;"/>
    <path clip-path="url(#pcb196f014e)" d="M 352.024834 345.447401 
L 354.82633 341.961482 
L 355.934167 346.294229 
L 352.024834 345.447401 
z
" style="stroke:#000000;stroke-linecap:round;"/>
   </g>
   <g id="patch_66">
    <path clip-path="url(#pcb196f014e)" d="M 337.004345 402.738035 
Q 328.489115 378.679334 320.346921 355.674598 
" style="fill:none;stroke:#000000;stroke-linecap:round;"/>
    <path clip-path="url(#pcb196f014e)" d="M 319.796144 360.112688 
L 320.346921 355.674598 
L 323.566927 358.778074 
L 319.796144 360.112688 
z
" style="stroke:#000000;stroke-linecap:round;"/>
   </g>
   <g id="patch_67">
    <path clip-path="url(#pcb196f014e)" d="M 308.627416 348.323033 
Q 251.885259 360.857039 196.234819 373.149891 
" style="fill:none;stroke:#000000;stroke-linecap:round;"/>
    <path clip-path="url(#pcb196f014e)" d="M 200.572052 374.240035 
L 196.234819 373.149891 
L 199.709274 370.334191 
L 200.572052 374.240035 
z
" style="stroke:#000000;stroke-linecap:round;"/>
   </g>
   <g id="patch_68">
    <path clip-path="url(#pcb196f014e)" d="M 312.820176 338.914115 
Q 270.652386 264.333158 229.034866 190.725446 
" style="fill:none;stroke:#000000;stroke-linecap:round;"/>
    <path clip-path="url(#pcb196f014e)" d="M 229.262574 195.191781 
L 229.034866 190.725446 
L 232.744559 193.22308 
L 229.262574 195.191781 
z
" style="stroke:#000000;stroke-linecap:round;"/>
   </g>
   <g id="patch_69">
    <path clip-path="url(#pcb196f014e)" d="M 324.379501 351.12565 
Q 416.820549 410.304835 508.319988 468.881218 
" style="fill:none;stroke:#000000;stroke-linecap:round;"/>
    <path clip-path="url(#pcb196f014e)" d="M 506.029508 465.040163 
L 508.319988 468.881218 
L 503.872856 468.408969 
L 506.029508 465.040163 
z
" style="stroke:#000000;stroke-linecap:round;"/>
   </g>
   <g id="patch_70">
    <path clip-path="url(#pcb196f014e)" d="M 318.496298 452.817188 
Q 270.984087 425.219012 224.438647 398.182398 
" style="fill:none;stroke:#000000;stroke-linecap:round;"/>
    <path clip-path="url(#pcb196f014e)" d="M 226.892917 401.920922 
L 224.438647 398.182398 
L 228.902028 398.462096 
L 226.892917 401.920922 
z
" style="stroke:#000000;stroke-linecap:round;"/>
   </g>
   <g id="patch_71">
    <path clip-path="url(#pcb196f014e)" d="M 253.553241 298.529364 
Q 236.365917 341.87469 219.590702 384.180706 
" style="fill:none;stroke:#000000;stroke-linecap:round;"/>
    <path clip-path="url(#pcb196f014e)" d="M 222.924281 381.199557 
L 219.590702 384.180706 
L 219.20593 379.725153 
L 222.924281 381.199557 
z
" style="stroke:#000000;stroke-linecap:round;"/>
   </g>
   <g id="patch_72">
    <path clip-path="url(#pcb196f014e)" d="M 197.22042 302.547788 
Q 205.726002 343.66982 214.005125 383.696992 
" style="fill:none;stroke:#000000;stroke-linecap:round;"/>
    <path clip-path="url(#pcb196f014e)" d="M 215.153468 379.374804 
L 214.005125 383.696992 
L 211.236381 380.185005 
L 215.153468 379.374804 
z
" style="stroke:#000000;stroke-linecap:round;"/>
   </g>
   <g id="patch_73">
    <path clip-path="url(#pcb196f014e)" d="M 393.817485 335.535998 
Q 309.019312 363.067282 225.284531 390.253317 
" style="fill:none;stroke:#000000;stroke-linecap:round;"/>
    <path clip-path="url(#pcb196f014e)" d="M 229.706639 390.920367 
L 225.284531 390.253317 
L 228.471436 387.11586 
L 229.706639 390.920367 
z
" style="stroke:#000000;stroke-linecap:round;"/>
   </g>
   <g id="patch_74">
    <path clip-path="url(#pcb196f014e)" d="M 505.357199 242.701481 
Q 472.907315 179.011208 440.964983 116.317122 
" style="fill:none;stroke:#000000;stroke-linecap:round;"/>
    <path clip-path="url(#pcb196f014e)" d="M 440.998824 120.78913 
L 440.964983 116.317122 
L 444.562894 118.973254 
L 440.998824 120.78913 
z
" style="stroke:#000000;stroke-linecap:round;"/>
   </g>
   <g id="patch_75">
    <path clip-path="url(#pcb196f014e)" d="M 517.382266 247.334219 
Q 594.692924 217.854341 670.958919 188.77281 
" style="fill:none;stroke:#000000;stroke-linecap:round;"/>
    <path clip-path="url(#pcb196f014e)" d="M 666.508836 188.329233 
L 670.958919 188.77281 
L 667.934008 192.06673 
L 666.508836 188.329233 
z
" style="stroke:#000000;stroke-linecap:round;"/>
   </g>
   <g id="patch_76">
    <path clip-path="url(#pcb196f014e)" d="M 491.694285 187.648169 
Q 466.567978 151.192775 442.076154 115.657942 
" style="fill:none;stroke:#000000;stroke-linecap:round;"/>
    <path clip-path="url(#pcb196f014e)" d="M 442.699396 120.086437 
L 442.076154 115.657942 
L 445.992895 117.816444 
L 442.699396 120.086437 
z
" style="stroke:#000000;stroke-linecap:round;"/>
   </g>
   <g id="patch_77">
    <path clip-path="url(#pcb196f014e)" d="M 505.258565 194.333101 
Q 588.353637 190.034709 670.332168 185.794075 
" style="fill:none;stroke:#000000;stroke-linecap:round;"/>
    <path clip-path="url(#pcb196f014e)" d="M 666.23419 184.003383 
L 670.332168 185.794075 
L 666.440828 187.998042 
L 666.23419 184.003383 
z
" style="stroke:#000000;stroke-linecap:round;"/>
   </g>
   <g id="patch_78">
    <path clip-path="url(#pcb196f014e)" d="M 655.664296 221.152753 
Q 615.92395 184.542329 577.005892 148.689429 
" style="fill:none;stroke:#000000;stroke-linecap:round;"/>
    <path clip-path="url(#pcb196f014e)" d="M 578.592696 152.870583 
L 577.005892 148.689429 
L 581.302898 149.928679 
L 578.592696 152.870583 
z
" style="stroke:#000000;stroke-linecap:round;"/>
   </g>
   <g id="patch_79">
    <path clip-path="url(#pcb196f014e)" d="M 436.535549 264.195871 
Q 499.983202 206.055062 562.606565 148.669599 
" style="fill:none;stroke:#000000;stroke-linecap:round;"/>
    <path clip-path="url(#pcb196f014e)" d="M 558.306294 149.897469 
L 562.606565 148.669599 
L 561.008699 152.846538 
L 558.306294 149.897469 
z
" style="stroke:#000000;stroke-linecap:round;"/>
   </g>
   <g id="PathCollection_1">
    <defs>
     <path d="M 0 8.660254 
C 2.296726 8.660254 4.499694 7.747755 6.123724 6.123724 
C 7.747755 4.499694 8.660254 2.296726 8.660254 -0 
C 8.660254 -2.296726 7.747755 -4.499694 6.123724 -6.123724 
C 4.499694 -7.747755 2.296726 -8.660254 0 -8.660254 
C -2.296726 -8.660254 -4.499694 -7.747755 -6.123724 -6.123724 
C -7.747755 -4.499694 -8.660254 -2.296726 -8.660254 0 
C -8.660254 2.296726 -7.747755 4.499694 -6.123724 6.123724 
C -4.499694 7.747755 -2.296726 8.660254 0 8.660254 
z
" id="C0_0_8ec08c436c"/>
    </defs>
    <g clip-path="url(#pcb196f014e)">
     <use style="fill:#ff0000;stroke:#ff0000;" x="526.202701" xlink:href="#C0_0_8ec08c436c" y="405.730449"/>
    </g>
    <g clip-path="url(#pcb196f014e)">
     <use style="fill:#ff0000;stroke:#ff0000;" x="316.290804" xlink:href="#C0_0_8ec08c436c" y="449.635115"/>
    </g>
    <g clip-path="url(#pcb196f014e)">
     <use style="fill:#ff0000;stroke:#ff0000;" x="422.733506" xlink:href="#C0_0_8ec08c436c" y="371.05788"/>
    </g>
    <g clip-path="url(#pcb196f014e)">
     <use style="fill:#ff0000;stroke:#ff0000;" x="425.493773" xlink:href="#C0_0_8ec08c436c" y="250.889661"/>
    </g>
    <g clip-path="url(#pcb196f014e)">
     <use style="fill:#ff0000;stroke:#ff0000;" x="377.534455" xlink:href="#C0_0_8ec08c436c" y="120.748895"/>
    </g>
    <g clip-path="url(#pcb196f014e)">
     <use style="fill:#ff0000;stroke:#ff0000;" x="305.592165" xlink:href="#C0_0_8ec08c436c" y="296.547249"/>
    </g>
    <g clip-path="url(#pcb196f014e)">
     <use style="fill:#ff0000;stroke:#ff0000;" x="604.264457" xlink:href="#C0_0_8ec08c436c" y="139.673952"/>
    </g>
    <g clip-path="url(#pcb196f014e)">
     <use style="fill:#ff0000;stroke:#ff0000;" x="447.198413" xlink:href="#C0_0_8ec08c436c" y="125.493995"/>
    </g>
    <g clip-path="url(#pcb196f014e)">
     <use style="fill:#ff0000;stroke:#ff0000;" x="649.8962" xlink:href="#C0_0_8ec08c436c" y="302.103666"/>
    </g>
    <g clip-path="url(#pcb196f014e)">
     <use style="fill:#ff0000;stroke:#ff0000;" x="215.985672" xlink:href="#C0_0_8ec08c436c" y="393.272362"/>
    </g>
    <g clip-path="url(#pcb196f014e)">
     <use style="fill:#ff0000;stroke:#ff0000;" x="687.749325" xlink:href="#C0_0_8ec08c436c" y="308.714425"/>
    </g>
    <g clip-path="url(#pcb196f014e)">
     <use style="fill:#ff0000;stroke:#ff0000;" x="592.191027" xlink:href="#C0_0_8ec08c436c" y="265.418926"/>
    </g>
    <g clip-path="url(#pcb196f014e)">
     <use style="fill:#ff0000;stroke:#ff0000;" x="691.06118" xlink:href="#C0_0_8ec08c436c" y="194.743829"/>
    </g>
    <g clip-path="url(#pcb196f014e)">
     <use style="fill:#ff0000;stroke:#ff0000;" x="669.556556" xlink:href="#C0_0_8ec08c436c" y="196.406739"/>
    </g>
    <g clip-path="url(#pcb196f014e)">
     <use style="fill:#ff0000;stroke:#ff0000;" x="719.494215" xlink:href="#C0_0_8ec08c436c" y="263.824046"/>
    </g>
    <g clip-path="url(#pcb196f014e)">
     <use style="fill:#ff0000;stroke:#ff0000;" x="422.489877" xlink:href="#C0_0_8ec08c436c" y="292.00715"/>
    </g>
    <g clip-path="url(#pcb196f014e)">
     <use style="fill:#ff0000;stroke:#ff0000;" x="254.96887" xlink:href="#C0_0_8ec08c436c" y="152.6589"/>
    </g>
    <g clip-path="url(#pcb196f014e)">
     <use style="fill:#ff0000;stroke:#ff0000;" x="546.980445" xlink:href="#C0_0_8ec08c436c" y="217.606005"/>
    </g>
    <g clip-path="url(#pcb196f014e)">
     <use style="fill:#ff0000;stroke:#ff0000;" x="543.347608" xlink:href="#C0_0_8ec08c436c" y="124.648562"/>
    </g>
    <g clip-path="url(#pcb196f014e)">
     <use style="fill:#ff0000;stroke:#ff0000;" x="559.415258" xlink:href="#C0_0_8ec08c436c" y="215.893994"/>
    </g>
    <g clip-path="url(#pcb196f014e)">
     <use style="fill:#ff0000;stroke:#ff0000;" x="469.380467" xlink:href="#C0_0_8ec08c436c" y="319.390869"/>
    </g>
    <g clip-path="url(#pcb196f014e)">
     <use style="fill:#ff0000;stroke:#ff0000;" x="371.043876" xlink:href="#C0_0_8ec08c436c" y="237.975952"/>
    </g>
    <g clip-path="url(#pcb196f014e)">
     <use style="fill:#ff0000;stroke:#ff0000;" x="376.04057" xlink:href="#C0_0_8ec08c436c" y="310.00155"/>
    </g>
    <g clip-path="url(#pcb196f014e)">
     <use style="fill:#ff0000;stroke:#ff0000;" x="185.547166" xlink:href="#C0_0_8ec08c436c" y="340.23883"/>
    </g>
    <g clip-path="url(#pcb196f014e)">
     <use style="fill:#ff0000;stroke:#ff0000;" x="166.105785" xlink:href="#C0_0_8ec08c436c" y="267.9126"/>
    </g>
    <g clip-path="url(#pcb196f014e)">
     <use style="fill:#ff0000;stroke:#ff0000;" x="322.001953" xlink:href="#C0_0_8ec08c436c" y="127.369023"/>
    </g>
    <g clip-path="url(#pcb196f014e)">
     <use style="fill:#ff0000;stroke:#ff0000;" x="250.86315" xlink:href="#C0_0_8ec08c436c" y="180.630761"/>
    </g>
    <g clip-path="url(#pcb196f014e)">
     <use style="fill:#ff0000;stroke:#ff0000;" x="332.620249" xlink:href="#C0_0_8ec08c436c" y="201.870441"/>
    </g>
    <g clip-path="url(#pcb196f014e)">
     <use style="fill:#ff0000;stroke:#ff0000;" x="261.807678" xlink:href="#C0_0_8ec08c436c" y="337.318322"/>
    </g>
    <g clip-path="url(#pcb196f014e)">
     <use style="fill:#ff0000;stroke:#ff0000;" x="256.993559" xlink:href="#C0_0_8ec08c436c" y="429.504361"/>
    </g>
    <g clip-path="url(#pcb196f014e)">
     <use style="fill:#ff0000;stroke:#ff0000;" x="350.549585" xlink:href="#C0_0_8ec08c436c" y="222.722211"/>
    </g>
    <g clip-path="url(#pcb196f014e)">
     <use style="fill:#ff0000;stroke:#ff0000;" x="536.109632" xlink:href="#C0_0_8ec08c436c" y="202.28939"/>
    </g>
    <g clip-path="url(#pcb196f014e)">
     <use style="fill:#ff0000;stroke:#ff0000;" x="350.293954" xlink:href="#C0_0_8ec08c436c" y="394.936116"/>
    </g>
    <g clip-path="url(#pcb196f014e)">
     <use style="fill:#ff0000;stroke:#ff0000;" x="512.697102" xlink:href="#C0_0_8ec08c436c" y="410.151403"/>
    </g>
    <g clip-path="url(#pcb196f014e)">
     <use style="fill:#ff0000;stroke:#ff0000;" x="491.218415" xlink:href="#C0_0_8ec08c436c" y="370.561387"/>
    </g>
    <g clip-path="url(#pcb196f014e)">
     <use style="fill:#ff0000;stroke:#ff0000;" x="436.527357" xlink:href="#C0_0_8ec08c436c" y="107.607273"/>
    </g>
    <g clip-path="url(#pcb196f014e)">
     <use style="fill:#ff0000;stroke:#ff0000;" x="680.095025" xlink:href="#C0_0_8ec08c436c" y="185.289056"/>
    </g>
    <g clip-path="url(#pcb196f014e)">
     <use style="fill:#ff0000;stroke:#ff0000;" x="495.445965" xlink:href="#C0_0_8ec08c436c" y="111.400349"/>
    </g>
    <g clip-path="url(#pcb196f014e)">
     <use style="fill:#ff0000;stroke:#ff0000;" x="386.905047" xlink:href="#C0_0_8ec08c436c" y="193.434151"/>
    </g>
    <g clip-path="url(#pcb196f014e)">
     <use style="fill:#ff0000;stroke:#ff0000;" x="519.960909" xlink:href="#C0_0_8ec08c436c" y="365.967968"/>
    </g>
    <g clip-path="url(#pcb196f014e)">
     <use style="fill:#ff0000;stroke:#ff0000;" x="521.570527" xlink:href="#C0_0_8ec08c436c" y="345.233889"/>
    </g>
    <g clip-path="url(#pcb196f014e)">
     <use style="fill:#ff0000;stroke:#ff0000;" x="356.897275" xlink:href="#C0_0_8ec08c436c" y="332.401089"/>
    </g>
    <g clip-path="url(#pcb196f014e)">
     <use style="fill:#ff0000;stroke:#ff0000;" x="440.427001" xlink:href="#C0_0_8ec08c436c" y="384.199108"/>
    </g>
    <g clip-path="url(#pcb196f014e)">
     <use style="fill:#ff0000;stroke:#ff0000;" x="462.433721" xlink:href="#C0_0_8ec08c436c" y="265.469576"/>
    </g>
    <g clip-path="url(#pcb196f014e)">
     <use style="fill:#ff0000;stroke:#ff0000;" x="303.444112" xlink:href="#C0_0_8ec08c436c" y="368.107965"/>
    </g>
    <g clip-path="url(#pcb196f014e)">
     <use style="fill:#ff0000;stroke:#ff0000;" x="453.212743" xlink:href="#C0_0_8ec08c436c" y="377.744896"/>
    </g>
    <g clip-path="url(#pcb196f014e)">
     <use style="fill:#ff0000;stroke:#ff0000;" x="463.230242" xlink:href="#C0_0_8ec08c436c" y="351.350686"/>
    </g>
    <g clip-path="url(#pcb196f014e)">
     <use style="fill:#ff0000;stroke:#ff0000;" x="339.893095" xlink:href="#C0_0_8ec08c436c" y="410.899833"/>
    </g>
    <g clip-path="url(#pcb196f014e)">
     <use style="fill:#ff0000;stroke:#ff0000;" x="317.083802" xlink:href="#C0_0_8ec08c436c" y="346.455067"/>
    </g>
    <g clip-path="url(#pcb196f014e)">
     <use style="fill:#ff0000;stroke:#ff0000;" x="186.684344" xlink:href="#C0_0_8ec08c436c" y="375.259534"/>
    </g>
    <g clip-path="url(#pcb196f014e)">
     <use style="fill:#ff0000;stroke:#ff0000;" x="224.222056" xlink:href="#C0_0_8ec08c436c" y="182.213168"/>
    </g>
    <g clip-path="url(#pcb196f014e)">
     <use style="fill:#ff0000;stroke:#ff0000;" x="516.554366" xlink:href="#C0_0_8ec08c436c" y="474.152727"/>
    </g>
    <g clip-path="url(#pcb196f014e)">
     <use style="fill:#ff0000;stroke:#ff0000;" x="569.814565" xlink:href="#C0_0_8ec08c436c" y="142.064485"/>
    </g>
    <g clip-path="url(#pcb196f014e)">
     <use style="fill:#ff0000;stroke:#ff0000;" x="325.985613" xlink:href="#C0_0_8ec08c436c" y="457.167469"/>
    </g>
    <g clip-path="url(#pcb196f014e)">
     <use style="fill:#ff0000;stroke:#ff0000;" x="256.746378" xlink:href="#C0_0_8ec08c436c" y="290.476475"/>
    </g>
    <g clip-path="url(#pcb196f014e)">
     <use style="fill:#ff0000;stroke:#ff0000;" x="195.466442" xlink:href="#C0_0_8ec08c436c" y="294.067809"/>
    </g>
    <g clip-path="url(#pcb196f014e)">
     <use style="fill:#ff0000;stroke:#ff0000;" x="402.053936" xlink:href="#C0_0_8ec08c436c" y="332.861884"/>
    </g>
    <g clip-path="url(#pcb196f014e)">
     <use style="fill:#ff0000;stroke:#ff0000;" x="509.289762" xlink:href="#C0_0_8ec08c436c" y="250.42003"/>
    </g>
    <g clip-path="url(#pcb196f014e)">
     <use style="fill:#ff0000;stroke:#ff0000;" x="496.610114" xlink:href="#C0_0_8ec08c436c" y="194.780473"/>
    </g>
    <g clip-path="url(#pcb196f014e)">
     <use style="fill:#ff0000;stroke:#ff0000;" x="593.783108" xlink:href="#C0_0_8ec08c436c" y="445.847171"/>
    </g>
    <g clip-path="url(#pcb196f014e)">
     <use style="fill:#ff0000;stroke:#ff0000;" x="191.320078" xlink:href="#C0_0_8ec08c436c" y="346.090137"/>
    </g>
    <g clip-path="url(#pcb196f014e)">
     <use style="fill:#ff0000;stroke:#ff0000;" x="646.087731" xlink:href="#C0_0_8ec08c436c" y="299.210154"/>
    </g>
    <g clip-path="url(#pcb196f014e)">
     <use style="fill:#ff0000;stroke:#ff0000;" x="528.381168" xlink:href="#C0_0_8ec08c436c" y="117.960359"/>
    </g>
    <g clip-path="url(#pcb196f014e)">
     <use style="fill:#ff0000;stroke:#ff0000;" x="292.120109" xlink:href="#C0_0_8ec08c436c" y="146.841009"/>
    </g>
    <g clip-path="url(#pcb196f014e)">
     <use style="fill:#ff0000;stroke:#ff0000;" x="257.260919" xlink:href="#C0_0_8ec08c436c" y="404.139126"/>
    </g>
    <g clip-path="url(#pcb196f014e)">
     <use style="fill:#ff0000;stroke:#ff0000;" x="662.03302" xlink:href="#C0_0_8ec08c436c" y="227.019881"/>
    </g>
    <g clip-path="url(#pcb196f014e)">
     <use style="fill:#ff0000;stroke:#ff0000;" x="430.148539" xlink:href="#C0_0_8ec08c436c" y="270.048663"/>
    </g>
   </g>
   <g id="text_1">
    <g clip-path="url(#pcb196f014e)">
     <!-- MYD88 -->
     <g transform="translate(505.106138 409.041699)scale(0.12 -0.12)">
      <defs>
       <path d="M 9.8125 72.90625 
L 24.515625 72.90625 
L 43.109375 23.296875 
L 61.8125 72.90625 
L 76.515625 72.90625 
L 76.515625 0 
L 66.890625 0 
L 66.890625 64.015625 
L 48.09375 14.015625 
L 38.1875 14.015625 
L 19.390625 64.015625 
L 19.390625 0 
L 9.8125 0 
z
" id="DejaVuSans-77"/>
       <path d="M -0.203125 72.90625 
L 10.40625 72.90625 
L 30.609375 42.921875 
L 50.6875 72.90625 
L 61.28125 72.90625 
L 35.5 34.71875 
L 35.5 0 
L 25.59375 0 
L 25.59375 34.71875 
z
" id="DejaVuSans-89"/>
       <path d="M 19.671875 64.796875 
L 19.671875 8.109375 
L 31.59375 8.109375 
Q 46.6875 8.109375 53.6875 14.9375 
Q 60.6875 21.78125 60.6875 36.53125 
Q 60.6875 51.171875 53.6875 57.984375 
Q 46.6875 64.796875 31.59375 64.796875 
z
M 9.8125 72.90625 
L 30.078125 72.90625 
Q 51.265625 72.90625 61.171875 64.09375 
Q 71.09375 55.28125 71.09375 36.53125 
Q 71.09375 17.671875 61.125 8.828125 
Q 51.171875 0 30.078125 0 
L 9.8125 0 
z
" id="DejaVuSans-68"/>
       <path d="M 31.78125 34.625 
Q 24.75 34.625 20.71875 30.859375 
Q 16.703125 27.09375 16.703125 20.515625 
Q 16.703125 13.921875 20.71875 10.15625 
Q 24.75 6.390625 31.78125 6.390625 
Q 38.8125 6.390625 42.859375 10.171875 
Q 46.921875 13.96875 46.921875 20.515625 
Q 46.921875 27.09375 42.890625 30.859375 
Q 38.875 34.625 31.78125 34.625 
z
M 21.921875 38.8125 
Q 15.578125 40.375 12.03125 44.71875 
Q 8.5 49.078125 8.5 55.328125 
Q 8.5 64.0625 14.71875 69.140625 
Q 20.953125 74.21875 31.78125 74.21875 
Q 42.671875 74.21875 48.875 69.140625 
Q 55.078125 64.0625 55.078125 55.328125 
Q 55.078125 49.078125 51.53125 44.71875 
Q 48 40.375 41.703125 38.8125 
Q 48.828125 37.15625 52.796875 32.3125 
Q 56.78125 27.484375 56.78125 20.515625 
Q 56.78125 9.90625 50.3125 4.234375 
Q 43.84375 -1.421875 31.78125 -1.421875 
Q 19.734375 -1.421875 13.25 4.234375 
Q 6.78125 9.90625 6.78125 20.515625 
Q 6.78125 27.484375 10.78125 32.3125 
Q 14.796875 37.15625 21.921875 38.8125 
z
M 18.3125 54.390625 
Q 18.3125 48.734375 21.84375 45.5625 
Q 25.390625 42.390625 31.78125 42.390625 
Q 38.140625 42.390625 41.71875 45.5625 
Q 45.3125 48.734375 45.3125 54.390625 
Q 45.3125 60.0625 41.71875 63.234375 
Q 38.140625 66.40625 31.78125 66.40625 
Q 25.390625 66.40625 21.84375 63.234375 
Q 18.3125 60.0625 18.3125 54.390625 
z
" id="DejaVuSans-56"/>
      </defs>
      <use xlink:href="#DejaVuSans-77"/>
      <use x="86.279297" xlink:href="#DejaVuSans-89"/>
      <use x="147.363281" xlink:href="#DejaVuSans-68"/>
      <use x="224.365234" xlink:href="#DejaVuSans-56"/>
      <use x="287.988281" xlink:href="#DejaVuSans-56"/>
     </g>
    </g>
   </g>
   <g id="text_2">
    <g clip-path="url(#pcb196f014e)">
     <!-- IRF7 -->
     <g transform="translate(303.083304 452.946365)scale(0.12 -0.12)">
      <defs>
       <path d="M 9.8125 72.90625 
L 19.671875 72.90625 
L 19.671875 0 
L 9.8125 0 
z
" id="DejaVuSans-73"/>
       <path d="M 44.390625 34.1875 
Q 47.5625 33.109375 50.5625 29.59375 
Q 53.5625 26.078125 56.59375 19.921875 
L 66.609375 0 
L 56 0 
L 46.6875 18.703125 
Q 43.0625 26.03125 39.671875 28.421875 
Q 36.28125 30.8125 30.421875 30.8125 
L 19.671875 30.8125 
L 19.671875 0 
L 9.8125 0 
L 9.8125 72.90625 
L 32.078125 72.90625 
Q 44.578125 72.90625 50.734375 67.671875 
Q 56.890625 62.453125 56.890625 51.90625 
Q 56.890625 45.015625 53.6875 40.46875 
Q 50.484375 35.9375 44.390625 34.1875 
z
M 19.671875 64.796875 
L 19.671875 38.921875 
L 32.078125 38.921875 
Q 39.203125 38.921875 42.84375 42.21875 
Q 46.484375 45.515625 46.484375 51.90625 
Q 46.484375 58.296875 42.84375 61.546875 
Q 39.203125 64.796875 32.078125 64.796875 
z
" id="DejaVuSans-82"/>
       <path d="M 9.8125 72.90625 
L 51.703125 72.90625 
L 51.703125 64.59375 
L 19.671875 64.59375 
L 19.671875 43.109375 
L 48.578125 43.109375 
L 48.578125 34.8125 
L 19.671875 34.8125 
L 19.671875 0 
L 9.8125 0 
z
" id="DejaVuSans-70"/>
       <path d="M 8.203125 72.90625 
L 55.078125 72.90625 
L 55.078125 68.703125 
L 28.609375 0 
L 18.3125 0 
L 43.21875 64.59375 
L 8.203125 64.59375 
z
" id="DejaVuSans-55"/>
      </defs>
      <use xlink:href="#DejaVuSans-73"/>
      <use x="29.492188" xlink:href="#DejaVuSans-82"/>
      <use x="98.974609" xlink:href="#DejaVuSans-70"/>
      <use x="156.494141" xlink:href="#DejaVuSans-55"/>
     </g>
    </g>
   </g>
   <g id="text_3">
    <g clip-path="url(#pcb196f014e)">
     <!-- IFIH1 -->
     <g transform="translate(407.412881 374.36913)scale(0.12 -0.12)">
      <defs>
       <path d="M 9.8125 72.90625 
L 19.671875 72.90625 
L 19.671875 43.015625 
L 55.515625 43.015625 
L 55.515625 72.90625 
L 65.375 72.90625 
L 65.375 0 
L 55.515625 0 
L 55.515625 34.71875 
L 19.671875 34.71875 
L 19.671875 0 
L 9.8125 0 
z
" id="DejaVuSans-72"/>
       <path d="M 12.40625 8.296875 
L 28.515625 8.296875 
L 28.515625 63.921875 
L 10.984375 60.40625 
L 10.984375 69.390625 
L 28.421875 72.90625 
L 38.28125 72.90625 
L 38.28125 8.296875 
L 54.390625 8.296875 
L 54.390625 0 
L 12.40625 0 
z
" id="DejaVuSans-49"/>
      </defs>
      <use xlink:href="#DejaVuSans-73"/>
      <use x="29.492188" xlink:href="#DejaVuSans-70"/>
      <use x="87.011719" xlink:href="#DejaVuSans-73"/>
      <use x="116.503906" xlink:href="#DejaVuSans-72"/>
      <use x="191.699219" xlink:href="#DejaVuSans-49"/>
     </g>
    </g>
   </g>
   <g id="text_4">
    <g clip-path="url(#pcb196f014e)">
     <!-- MAVS -->
     <g transform="translate(408.681586 254.200911)scale(0.12 -0.12)">
      <defs>
       <path d="M 34.1875 63.1875 
L 20.796875 26.90625 
L 47.609375 26.90625 
z
M 28.609375 72.90625 
L 39.796875 72.90625 
L 67.578125 0 
L 57.328125 0 
L 50.6875 18.703125 
L 17.828125 18.703125 
L 11.1875 0 
L 0.78125 0 
z
" id="DejaVuSans-65"/>
       <path d="M 28.609375 0 
L 0.78125 72.90625 
L 11.078125 72.90625 
L 34.1875 11.53125 
L 57.328125 72.90625 
L 67.578125 72.90625 
L 39.796875 0 
z
" id="DejaVuSans-86"/>
       <path d="M 53.515625 70.515625 
L 53.515625 60.890625 
Q 47.90625 63.578125 42.921875 64.890625 
Q 37.9375 66.21875 33.296875 66.21875 
Q 25.25 66.21875 20.875 63.09375 
Q 16.5 59.96875 16.5 54.203125 
Q 16.5 49.359375 19.40625 46.890625 
Q 22.3125 44.4375 30.421875 42.921875 
L 36.375 41.703125 
Q 47.40625 39.59375 52.65625 34.296875 
Q 57.90625 29 57.90625 20.125 
Q 57.90625 9.515625 50.796875 4.046875 
Q 43.703125 -1.421875 29.984375 -1.421875 
Q 24.8125 -1.421875 18.96875 -0.25 
Q 13.140625 0.921875 6.890625 3.21875 
L 6.890625 13.375 
Q 12.890625 10.015625 18.65625 8.296875 
Q 24.421875 6.59375 29.984375 6.59375 
Q 38.421875 6.59375 43.015625 9.90625 
Q 47.609375 13.234375 47.609375 19.390625 
Q 47.609375 24.75 44.3125 27.78125 
Q 41.015625 30.8125 33.5 32.328125 
L 27.484375 33.5 
Q 16.453125 35.6875 11.515625 40.375 
Q 6.59375 45.0625 6.59375 53.421875 
Q 6.59375 63.09375 13.40625 68.65625 
Q 20.21875 74.21875 32.171875 74.21875 
Q 37.3125 74.21875 42.625 73.28125 
Q 47.953125 72.359375 53.515625 70.515625 
z
" id="DejaVuSans-83"/>
      </defs>
      <use xlink:href="#DejaVuSans-77"/>
      <use x="86.279297" xlink:href="#DejaVuSans-65"/>
      <use x="148.3125" xlink:href="#DejaVuSans-86"/>
      <use x="216.720703" xlink:href="#DejaVuSans-83"/>
     </g>
    </g>
   </g>
   <g id="text_5">
    <g clip-path="url(#pcb196f014e)">
     <!-- IRF3 -->
     <g transform="translate(364.326955 124.060145)scale(0.12 -0.12)">
      <defs>
       <path d="M 40.578125 39.3125 
Q 47.65625 37.796875 51.625 33 
Q 55.609375 28.21875 55.609375 21.1875 
Q 55.609375 10.40625 48.1875 4.484375 
Q 40.765625 -1.421875 27.09375 -1.421875 
Q 22.515625 -1.421875 17.65625 -0.515625 
Q 12.796875 0.390625 7.625 2.203125 
L 7.625 11.71875 
Q 11.71875 9.328125 16.59375 8.109375 
Q 21.484375 6.890625 26.8125 6.890625 
Q 36.078125 6.890625 40.9375 10.546875 
Q 45.796875 14.203125 45.796875 21.1875 
Q 45.796875 27.640625 41.28125 31.265625 
Q 36.765625 34.90625 28.71875 34.90625 
L 20.21875 34.90625 
L 20.21875 43.015625 
L 29.109375 43.015625 
Q 36.375 43.015625 40.234375 45.921875 
Q 44.09375 48.828125 44.09375 54.296875 
Q 44.09375 59.90625 40.109375 62.90625 
Q 36.140625 65.921875 28.71875 65.921875 
Q 24.65625 65.921875 20.015625 65.03125 
Q 15.375 64.15625 9.8125 62.3125 
L 9.8125 71.09375 
Q 15.4375 72.65625 20.34375 73.4375 
Q 25.25 74.21875 29.59375 74.21875 
Q 40.828125 74.21875 47.359375 69.109375 
Q 53.90625 64.015625 53.90625 55.328125 
Q 53.90625 49.265625 50.4375 45.09375 
Q 46.96875 40.921875 40.578125 39.3125 
z
" id="DejaVuSans-51"/>
      </defs>
      <use xlink:href="#DejaVuSans-73"/>
      <use x="29.492188" xlink:href="#DejaVuSans-82"/>
      <use x="98.974609" xlink:href="#DejaVuSans-70"/>
      <use x="156.494141" xlink:href="#DejaVuSans-51"/>
     </g>
    </g>
   </g>
   <g id="text_6">
    <g clip-path="url(#pcb196f014e)">
     <!-- IRF9 -->
     <g transform="translate(292.384665 299.858499)scale(0.12 -0.12)">
      <defs>
       <path d="M 10.984375 1.515625 
L 10.984375 10.5 
Q 14.703125 8.734375 18.5 7.8125 
Q 22.3125 6.890625 25.984375 6.890625 
Q 35.75 6.890625 40.890625 13.453125 
Q 46.046875 20.015625 46.78125 33.40625 
Q 43.953125 29.203125 39.59375 26.953125 
Q 35.25 24.703125 29.984375 24.703125 
Q 19.046875 24.703125 12.671875 31.3125 
Q 6.296875 37.9375 6.296875 49.421875 
Q 6.296875 60.640625 12.9375 67.421875 
Q 19.578125 74.21875 30.609375 74.21875 
Q 43.265625 74.21875 49.921875 64.515625 
Q 56.59375 54.828125 56.59375 36.375 
Q 56.59375 19.140625 48.40625 8.859375 
Q 40.234375 -1.421875 26.421875 -1.421875 
Q 22.703125 -1.421875 18.890625 -0.6875 
Q 15.09375 0.046875 10.984375 1.515625 
z
M 30.609375 32.421875 
Q 37.25 32.421875 41.125 36.953125 
Q 45.015625 41.5 45.015625 49.421875 
Q 45.015625 57.28125 41.125 61.84375 
Q 37.25 66.40625 30.609375 66.40625 
Q 23.96875 66.40625 20.09375 61.84375 
Q 16.21875 57.28125 16.21875 49.421875 
Q 16.21875 41.5 20.09375 36.953125 
Q 23.96875 32.421875 30.609375 32.421875 
z
" id="DejaVuSans-57"/>
      </defs>
      <use xlink:href="#DejaVuSans-73"/>
      <use x="29.492188" xlink:href="#DejaVuSans-82"/>
      <use x="98.974609" xlink:href="#DejaVuSans-70"/>
      <use x="156.494141" xlink:href="#DejaVuSans-57"/>
     </g>
    </g>
   </g>
   <g id="text_7">
    <g clip-path="url(#pcb196f014e)">
     <!-- MSN -->
     <g transform="translate(590.789769 142.985202)scale(0.12 -0.12)">
      <defs>
       <path d="M 9.8125 72.90625 
L 23.09375 72.90625 
L 55.421875 11.921875 
L 55.421875 72.90625 
L 64.984375 72.90625 
L 64.984375 0 
L 51.703125 0 
L 19.390625 60.984375 
L 19.390625 0 
L 9.8125 0 
z
" id="DejaVuSans-78"/>
      </defs>
      <use xlink:href="#DejaVuSans-77"/>
      <use x="86.279297" xlink:href="#DejaVuSans-83"/>
      <use x="149.755859" xlink:href="#DejaVuSans-78"/>
     </g>
    </g>
   </g>
   <g id="text_8">
    <g clip-path="url(#pcb196f014e)">
     <!-- CD46 -->
     <g transform="translate(430.753725 128.805245)scale(0.12 -0.12)">
      <defs>
       <path d="M 64.40625 67.28125 
L 64.40625 56.890625 
Q 59.421875 61.53125 53.78125 63.8125 
Q 48.140625 66.109375 41.796875 66.109375 
Q 29.296875 66.109375 22.65625 58.46875 
Q 16.015625 50.828125 16.015625 36.375 
Q 16.015625 21.96875 22.65625 14.328125 
Q 29.296875 6.6875 41.796875 6.6875 
Q 48.140625 6.6875 53.78125 8.984375 
Q 59.421875 11.28125 64.40625 15.921875 
L 64.40625 5.609375 
Q 59.234375 2.09375 53.4375 0.328125 
Q 47.65625 -1.421875 41.21875 -1.421875 
Q 24.65625 -1.421875 15.125 8.703125 
Q 5.609375 18.84375 5.609375 36.375 
Q 5.609375 53.953125 15.125 64.078125 
Q 24.65625 74.21875 41.21875 74.21875 
Q 47.75 74.21875 53.53125 72.484375 
Q 59.328125 70.75 64.40625 67.28125 
z
" id="DejaVuSans-67"/>
       <path d="M 37.796875 64.3125 
L 12.890625 25.390625 
L 37.796875 25.390625 
z
M 35.203125 72.90625 
L 47.609375 72.90625 
L 47.609375 25.390625 
L 58.015625 25.390625 
L 58.015625 17.1875 
L 47.609375 17.1875 
L 47.609375 0 
L 37.796875 0 
L 37.796875 17.1875 
L 4.890625 17.1875 
L 4.890625 26.703125 
z
" id="DejaVuSans-52"/>
       <path d="M 33.015625 40.375 
Q 26.375 40.375 22.484375 35.828125 
Q 18.609375 31.296875 18.609375 23.390625 
Q 18.609375 15.53125 22.484375 10.953125 
Q 26.375 6.390625 33.015625 6.390625 
Q 39.65625 6.390625 43.53125 10.953125 
Q 47.40625 15.53125 47.40625 23.390625 
Q 47.40625 31.296875 43.53125 35.828125 
Q 39.65625 40.375 33.015625 40.375 
z
M 52.59375 71.296875 
L 52.59375 62.3125 
Q 48.875 64.0625 45.09375 64.984375 
Q 41.3125 65.921875 37.59375 65.921875 
Q 27.828125 65.921875 22.671875 59.328125 
Q 17.53125 52.734375 16.796875 39.40625 
Q 19.671875 43.65625 24.015625 45.921875 
Q 28.375 48.1875 33.59375 48.1875 
Q 44.578125 48.1875 50.953125 41.515625 
Q 57.328125 34.859375 57.328125 23.390625 
Q 57.328125 12.15625 50.6875 5.359375 
Q 44.046875 -1.421875 33.015625 -1.421875 
Q 20.359375 -1.421875 13.671875 8.265625 
Q 6.984375 17.96875 6.984375 36.375 
Q 6.984375 53.65625 15.1875 63.9375 
Q 23.390625 74.21875 37.203125 74.21875 
Q 40.921875 74.21875 44.703125 73.484375 
Q 48.484375 72.75 52.59375 71.296875 
z
" id="DejaVuSans-54"/>
      </defs>
      <use xlink:href="#DejaVuSans-67"/>
      <use x="69.824219" xlink:href="#DejaVuSans-68"/>
      <use x="146.826172" xlink:href="#DejaVuSans-52"/>
      <use x="210.449219" xlink:href="#DejaVuSans-54"/>
     </g>
    </g>
   </g>
   <g id="text_9">
    <g clip-path="url(#pcb196f014e)">
     <!-- SLAMF1 -->
     <g transform="translate(626.059325 305.414916)scale(0.12 -0.12)">
      <defs>
       <path d="M 9.8125 72.90625 
L 19.671875 72.90625 
L 19.671875 8.296875 
L 55.171875 8.296875 
L 55.171875 0 
L 9.8125 0 
z
" id="DejaVuSans-76"/>
      </defs>
      <use xlink:href="#DejaVuSans-83"/>
      <use x="63.476562" xlink:href="#DejaVuSans-76"/>
      <use x="121.439453" xlink:href="#DejaVuSans-65"/>
      <use x="189.847656" xlink:href="#DejaVuSans-77"/>
      <use x="276.126953" xlink:href="#DejaVuSans-70"/>
      <use x="333.646484" xlink:href="#DejaVuSans-49"/>
     </g>
    </g>
   </g>
   <g id="text_10">
    <g clip-path="url(#pcb196f014e)">
     <!-- EIF2S1 -->
     <g transform="translate(195.529422 396.583612)scale(0.12 -0.12)">
      <defs>
       <path d="M 9.8125 72.90625 
L 55.90625 72.90625 
L 55.90625 64.59375 
L 19.671875 64.59375 
L 19.671875 43.015625 
L 54.390625 43.015625 
L 54.390625 34.71875 
L 19.671875 34.71875 
L 19.671875 8.296875 
L 56.78125 8.296875 
L 56.78125 0 
L 9.8125 0 
z
" id="DejaVuSans-69"/>
       <path d="M 19.1875 8.296875 
L 53.609375 8.296875 
L 53.609375 0 
L 7.328125 0 
L 7.328125 8.296875 
Q 12.9375 14.109375 22.625 23.890625 
Q 32.328125 33.6875 34.8125 36.53125 
Q 39.546875 41.84375 41.421875 45.53125 
Q 43.3125 49.21875 43.3125 52.78125 
Q 43.3125 58.59375 39.234375 62.25 
Q 35.15625 65.921875 28.609375 65.921875 
Q 23.96875 65.921875 18.8125 64.3125 
Q 13.671875 62.703125 7.8125 59.421875 
L 7.8125 69.390625 
Q 13.765625 71.78125 18.9375 73 
Q 24.125 74.21875 28.421875 74.21875 
Q 39.75 74.21875 46.484375 68.546875 
Q 53.21875 62.890625 53.21875 53.421875 
Q 53.21875 48.921875 51.53125 44.890625 
Q 49.859375 40.875 45.40625 35.40625 
Q 44.1875 33.984375 37.640625 27.21875 
Q 31.109375 20.453125 19.1875 8.296875 
z
" id="DejaVuSans-50"/>
      </defs>
      <use xlink:href="#DejaVuSans-69"/>
      <use x="63.183594" xlink:href="#DejaVuSans-73"/>
      <use x="92.675781" xlink:href="#DejaVuSans-70"/>
      <use x="150.195312" xlink:href="#DejaVuSans-50"/>
      <use x="213.818359" xlink:href="#DejaVuSans-83"/>
      <use x="277.294922" xlink:href="#DejaVuSans-49"/>
     </g>
    </g>
   </g>
   <g id="text_11">
    <g clip-path="url(#pcb196f014e)">
     <!-- TRAF6 -->
     <g transform="translate(668.782762 312.025675)scale(0.12 -0.12)">
      <defs>
       <path d="M -0.296875 72.90625 
L 61.375 72.90625 
L 61.375 64.59375 
L 35.5 64.59375 
L 35.5 0 
L 25.59375 0 
L 25.59375 64.59375 
L -0.296875 64.59375 
z
" id="DejaVuSans-84"/>
      </defs>
      <use xlink:href="#DejaVuSans-84"/>
      <use x="61.083984" xlink:href="#DejaVuSans-82"/>
      <use x="126.566406" xlink:href="#DejaVuSans-65"/>
      <use x="194.974609" xlink:href="#DejaVuSans-70"/>
      <use x="252.494141" xlink:href="#DejaVuSans-54"/>
     </g>
    </g>
   </g>
   <g id="text_12">
    <g clip-path="url(#pcb196f014e)">
     <!-- TNFAIP3 -->
     <g transform="translate(567.824464 268.730176)scale(0.12 -0.12)">
      <defs>
       <path d="M 19.671875 64.796875 
L 19.671875 37.40625 
L 32.078125 37.40625 
Q 38.96875 37.40625 42.71875 40.96875 
Q 46.484375 44.53125 46.484375 51.125 
Q 46.484375 57.671875 42.71875 61.234375 
Q 38.96875 64.796875 32.078125 64.796875 
z
M 9.8125 72.90625 
L 32.078125 72.90625 
Q 44.34375 72.90625 50.609375 67.359375 
Q 56.890625 61.8125 56.890625 51.125 
Q 56.890625 40.328125 50.609375 34.8125 
Q 44.34375 29.296875 32.078125 29.296875 
L 19.671875 29.296875 
L 19.671875 0 
L 9.8125 0 
z
" id="DejaVuSans-80"/>
      </defs>
      <use xlink:href="#DejaVuSans-84"/>
      <use x="61.083984" xlink:href="#DejaVuSans-78"/>
      <use x="135.888672" xlink:href="#DejaVuSans-70"/>
      <use x="184.283203" xlink:href="#DejaVuSans-65"/>
      <use x="252.691406" xlink:href="#DejaVuSans-73"/>
      <use x="282.183594" xlink:href="#DejaVuSans-80"/>
      <use x="342.486328" xlink:href="#DejaVuSans-51"/>
     </g>
    </g>
   </g>
   <g id="text_13">
    <g clip-path="url(#pcb196f014e)">
     <!-- FCGR2B -->
     <g transform="translate(666.668367 198.055079)scale(0.12 -0.12)">
      <defs>
       <path d="M 59.515625 10.40625 
L 59.515625 29.984375 
L 43.40625 29.984375 
L 43.40625 38.09375 
L 69.28125 38.09375 
L 69.28125 6.78125 
Q 63.578125 2.734375 56.6875 0.65625 
Q 49.8125 -1.421875 42 -1.421875 
Q 24.90625 -1.421875 15.25 8.5625 
Q 5.609375 18.5625 5.609375 36.375 
Q 5.609375 54.25 15.25 64.234375 
Q 24.90625 74.21875 42 74.21875 
Q 49.125 74.21875 55.546875 72.453125 
Q 61.96875 70.703125 67.390625 67.28125 
L 67.390625 56.78125 
Q 61.921875 61.421875 55.765625 63.765625 
Q 49.609375 66.109375 42.828125 66.109375 
Q 29.4375 66.109375 22.71875 58.640625 
Q 16.015625 51.171875 16.015625 36.375 
Q 16.015625 21.625 22.71875 14.15625 
Q 29.4375 6.6875 42.828125 6.6875 
Q 48.046875 6.6875 52.140625 7.59375 
Q 56.25 8.5 59.515625 10.40625 
z
" id="DejaVuSans-71"/>
       <path d="M 19.671875 34.8125 
L 19.671875 8.109375 
L 35.5 8.109375 
Q 43.453125 8.109375 47.28125 11.40625 
Q 51.125 14.703125 51.125 21.484375 
Q 51.125 28.328125 47.28125 31.5625 
Q 43.453125 34.8125 35.5 34.8125 
z
M 19.671875 64.796875 
L 19.671875 42.828125 
L 34.28125 42.828125 
Q 41.5 42.828125 45.03125 45.53125 
Q 48.578125 48.25 48.578125 53.8125 
Q 48.578125 59.328125 45.03125 62.0625 
Q 41.5 64.796875 34.28125 64.796875 
z
M 9.8125 72.90625 
L 35.015625 72.90625 
Q 46.296875 72.90625 52.390625 68.21875 
Q 58.5 63.53125 58.5 54.890625 
Q 58.5 48.1875 55.375 44.234375 
Q 52.25 40.28125 46.1875 39.3125 
Q 53.46875 37.75 57.5 32.78125 
Q 61.53125 27.828125 61.53125 20.40625 
Q 61.53125 10.640625 54.890625 5.3125 
Q 48.25 0 35.984375 0 
L 9.8125 0 
z
" id="DejaVuSans-66"/>
      </defs>
      <use xlink:href="#DejaVuSans-70"/>
      <use x="57.519531" xlink:href="#DejaVuSans-67"/>
      <use x="127.34375" xlink:href="#DejaVuSans-71"/>
      <use x="204.833984" xlink:href="#DejaVuSans-82"/>
      <use x="274.316406" xlink:href="#DejaVuSans-50"/>
      <use x="337.939453" xlink:href="#DejaVuSans-66"/>
     </g>
    </g>
   </g>
   <g id="text_14">
    <g clip-path="url(#pcb196f014e)">
     <!-- RCHY1 -->
     <g transform="translate(649.503431 199.717989)scale(0.12 -0.12)">
      <use xlink:href="#DejaVuSans-82"/>
      <use x="64.482422" xlink:href="#DejaVuSans-67"/>
      <use x="134.306641" xlink:href="#DejaVuSans-72"/>
      <use x="209.501953" xlink:href="#DejaVuSans-89"/>
      <use x="270.585938" xlink:href="#DejaVuSans-49"/>
     </g>
    </g>
   </g>
   <g id="text_15">
    <g clip-path="url(#pcb196f014e)">
     <!-- TP53 -->
     <g transform="translate(704.576715 267.135296)scale(0.12 -0.12)">
      <defs>
       <path d="M 10.796875 72.90625 
L 49.515625 72.90625 
L 49.515625 64.59375 
L 19.828125 64.59375 
L 19.828125 46.734375 
Q 21.96875 47.46875 24.109375 47.828125 
Q 26.265625 48.1875 28.421875 48.1875 
Q 40.625 48.1875 47.75 41.5 
Q 54.890625 34.8125 54.890625 23.390625 
Q 54.890625 11.625 47.5625 5.09375 
Q 40.234375 -1.421875 26.90625 -1.421875 
Q 22.3125 -1.421875 17.546875 -0.640625 
Q 12.796875 0.140625 7.71875 1.703125 
L 7.71875 11.625 
Q 12.109375 9.234375 16.796875 8.0625 
Q 21.484375 6.890625 26.703125 6.890625 
Q 35.15625 6.890625 40.078125 11.328125 
Q 45.015625 15.765625 45.015625 23.390625 
Q 45.015625 31 40.078125 35.4375 
Q 35.15625 39.890625 26.703125 39.890625 
Q 22.75 39.890625 18.8125 39.015625 
Q 14.890625 38.140625 10.796875 36.28125 
z
" id="DejaVuSans-53"/>
      </defs>
      <use xlink:href="#DejaVuSans-84"/>
      <use x="61.083984" xlink:href="#DejaVuSans-80"/>
      <use x="121.386719" xlink:href="#DejaVuSans-53"/>
      <use x="185.009766" xlink:href="#DejaVuSans-51"/>
     </g>
    </g>
   </g>
   <g id="text_16">
    <g clip-path="url(#pcb196f014e)">
     <!-- CDKN1B -->
     <g transform="translate(397.322689 295.3184)scale(0.12 -0.12)">
      <defs>
       <path d="M 9.8125 72.90625 
L 19.671875 72.90625 
L 19.671875 42.09375 
L 52.390625 72.90625 
L 65.09375 72.90625 
L 28.90625 38.921875 
L 67.671875 0 
L 54.6875 0 
L 19.671875 35.109375 
L 19.671875 0 
L 9.8125 0 
z
" id="DejaVuSans-75"/>
      </defs>
      <use xlink:href="#DejaVuSans-67"/>
      <use x="69.824219" xlink:href="#DejaVuSans-68"/>
      <use x="146.826172" xlink:href="#DejaVuSans-75"/>
      <use x="212.402344" xlink:href="#DejaVuSans-78"/>
      <use x="287.207031" xlink:href="#DejaVuSans-49"/>
      <use x="350.830078" xlink:href="#DejaVuSans-66"/>
     </g>
    </g>
   </g>
   <g id="text_17">
    <g clip-path="url(#pcb196f014e)">
     <!-- ADAR -->
     <g transform="translate(238.076058 155.97015)scale(0.12 -0.12)">
      <use xlink:href="#DejaVuSans-65"/>
      <use x="68.408203" xlink:href="#DejaVuSans-68"/>
      <use x="143.660156" xlink:href="#DejaVuSans-65"/>
      <use x="212.068359" xlink:href="#DejaVuSans-82"/>
     </g>
    </g>
   </g>
   <g id="text_18">
    <g clip-path="url(#pcb196f014e)">
     <!-- MAP3K7 -->
     <g transform="translate(522.511695 220.917255)scale(0.12 -0.12)">
      <use xlink:href="#DejaVuSans-77"/>
      <use x="86.279297" xlink:href="#DejaVuSans-65"/>
      <use x="154.6875" xlink:href="#DejaVuSans-80"/>
      <use x="214.990234" xlink:href="#DejaVuSans-51"/>
      <use x="278.613281" xlink:href="#DejaVuSans-75"/>
      <use x="344.189453" xlink:href="#DejaVuSans-55"/>
     </g>
    </g>
   </g>
   <g id="text_19">
    <g clip-path="url(#pcb196f014e)">
     <!-- IKBKE -->
     <g transform="translate(525.80042 127.959812)scale(0.12 -0.12)">
      <use xlink:href="#DejaVuSans-73"/>
      <use x="29.492188" xlink:href="#DejaVuSans-75"/>
      <use x="95.068359" xlink:href="#DejaVuSans-66"/>
      <use x="163.671875" xlink:href="#DejaVuSans-75"/>
      <use x="229.248047" xlink:href="#DejaVuSans-69"/>
     </g>
    </g>
   </g>
   <g id="text_20">
    <g clip-path="url(#pcb196f014e)">
     <!-- TBK1 -->
     <g transform="translate(543.88182 219.205244)scale(0.12 -0.12)">
      <use xlink:href="#DejaVuSans-84"/>
      <use x="61.083984" xlink:href="#DejaVuSans-66"/>
      <use x="129.6875" xlink:href="#DejaVuSans-75"/>
      <use x="195.263672" xlink:href="#DejaVuSans-49"/>
     </g>
    </g>
   </g>
   <g id="text_21">
    <g clip-path="url(#pcb196f014e)">
     <!-- FADD -->
     <g transform="translate(453.132655 322.702119)scale(0.12 -0.12)">
      <use xlink:href="#DejaVuSans-70"/>
      <use x="48.394531" xlink:href="#DejaVuSans-65"/>
      <use x="116.802734" xlink:href="#DejaVuSans-68"/>
      <use x="193.804688" xlink:href="#DejaVuSans-68"/>
     </g>
    </g>
   </g>
   <g id="text_22">
    <g clip-path="url(#pcb196f014e)">
     <!-- CASP8 -->
     <g transform="translate(351.505439 241.287202)scale(0.12 -0.12)">
      <use xlink:href="#DejaVuSans-67"/>
      <use x="69.824219" xlink:href="#DejaVuSans-65"/>
      <use x="138.232422" xlink:href="#DejaVuSans-83"/>
      <use x="201.708984" xlink:href="#DejaVuSans-80"/>
      <use x="262.011719" xlink:href="#DejaVuSans-56"/>
     </g>
    </g>
   </g>
   <g id="text_23">
    <g clip-path="url(#pcb196f014e)">
     <!-- TRADD -->
     <g transform="translate(355.102445 313.3128)scale(0.12 -0.12)">
      <use xlink:href="#DejaVuSans-84"/>
      <use x="61.083984" xlink:href="#DejaVuSans-82"/>
      <use x="126.566406" xlink:href="#DejaVuSans-65"/>
      <use x="194.974609" xlink:href="#DejaVuSans-68"/>
      <use x="271.976562" xlink:href="#DejaVuSans-68"/>
     </g>
    </g>
   </g>
   <g id="text_24">
    <g clip-path="url(#pcb196f014e)">
     <!-- BAD -->
     <g transform="translate(172.706228 343.55008)scale(0.12 -0.12)">
      <use xlink:href="#DejaVuSans-66"/>
      <use x="68.603516" xlink:href="#DejaVuSans-65"/>
      <use x="137.011719" xlink:href="#DejaVuSans-68"/>
     </g>
    </g>
   </g>
   <g id="text_25">
    <g clip-path="url(#pcb196f014e)">
     <!-- BAX -->
     <g transform="translate(153.774848 271.22385)scale(0.12 -0.12)">
      <defs>
       <path d="M 6.296875 72.90625 
L 16.890625 72.90625 
L 35.015625 45.796875 
L 53.21875 72.90625 
L 63.8125 72.90625 
L 40.375 37.890625 
L 65.375 0 
L 54.78125 0 
L 34.28125 31 
L 13.625 0 
L 2.984375 0 
L 29 38.921875 
z
" id="DejaVuSans-88"/>
      </defs>
      <use xlink:href="#DejaVuSans-66"/>
      <use x="68.603516" xlink:href="#DejaVuSans-65"/>
      <use x="137.011719" xlink:href="#DejaVuSans-88"/>
     </g>
    </g>
   </g>
   <g id="text_26">
    <g clip-path="url(#pcb196f014e)">
     <!-- CASP3 -->
     <g transform="translate(302.463516 130.680273)scale(0.12 -0.12)">
      <use xlink:href="#DejaVuSans-67"/>
      <use x="69.824219" xlink:href="#DejaVuSans-65"/>
      <use x="138.232422" xlink:href="#DejaVuSans-83"/>
      <use x="201.708984" xlink:href="#DejaVuSans-80"/>
      <use x="262.011719" xlink:href="#DejaVuSans-51"/>
     </g>
    </g>
   </g>
   <g id="text_27">
    <g clip-path="url(#pcb196f014e)">
     <!-- CASP9 -->
     <g transform="translate(231.324713 183.942011)scale(0.12 -0.12)">
      <use xlink:href="#DejaVuSans-67"/>
      <use x="69.824219" xlink:href="#DejaVuSans-65"/>
      <use x="138.232422" xlink:href="#DejaVuSans-83"/>
      <use x="201.708984" xlink:href="#DejaVuSans-80"/>
      <use x="262.011719" xlink:href="#DejaVuSans-57"/>
     </g>
    </g>
   </g>
   <g id="text_28">
    <g clip-path="url(#pcb196f014e)">
     <!-- BID -->
     <g transform="translate(322.113686 205.181691)scale(0.12 -0.12)">
      <use xlink:href="#DejaVuSans-66"/>
      <use x="68.603516" xlink:href="#DejaVuSans-73"/>
      <use x="98.095703" xlink:href="#DejaVuSans-68"/>
     </g>
    </g>
   </g>
   <g id="text_29">
    <g clip-path="url(#pcb196f014e)">
     <!-- BCL2 -->
     <g transform="translate(246.445803 340.629572)scale(0.12 -0.12)">
      <use xlink:href="#DejaVuSans-66"/>
      <use x="66.853516" xlink:href="#DejaVuSans-67"/>
      <use x="136.677734" xlink:href="#DejaVuSans-76"/>
      <use x="192.390625" xlink:href="#DejaVuSans-50"/>
     </g>
    </g>
   </g>
   <g id="text_30">
    <g clip-path="url(#pcb196f014e)">
     <!-- BCL2L1 -->
     <g transform="translate(234.471059 432.815611)scale(0.12 -0.12)">
      <use xlink:href="#DejaVuSans-66"/>
      <use x="66.853516" xlink:href="#DejaVuSans-67"/>
      <use x="136.677734" xlink:href="#DejaVuSans-76"/>
      <use x="192.390625" xlink:href="#DejaVuSans-50"/>
      <use x="256.013672" xlink:href="#DejaVuSans-76"/>
      <use x="311.726562" xlink:href="#DejaVuSans-49"/>
     </g>
    </g>
   </g>
   <g id="text_31">
    <g clip-path="url(#pcb196f014e)">
     <!-- APAF1 -->
     <g transform="translate(331.837085 226.033461)scale(0.12 -0.12)">
      <use xlink:href="#DejaVuSans-65"/>
      <use x="68.408203" xlink:href="#DejaVuSans-80"/>
      <use x="122.335938" xlink:href="#DejaVuSans-65"/>
      <use x="190.744141" xlink:href="#DejaVuSans-70"/>
      <use x="248.263672" xlink:href="#DejaVuSans-49"/>
     </g>
    </g>
   </g>
   <g id="text_32">
    <g clip-path="url(#pcb196f014e)">
     <!-- TRAF3 -->
     <g transform="translate(517.143069 205.60064)scale(0.12 -0.12)">
      <use xlink:href="#DejaVuSans-84"/>
      <use x="61.083984" xlink:href="#DejaVuSans-82"/>
      <use x="126.566406" xlink:href="#DejaVuSans-65"/>
      <use x="194.974609" xlink:href="#DejaVuSans-70"/>
      <use x="252.494141" xlink:href="#DejaVuSans-51"/>
     </g>
    </g>
   </g>
   <g id="text_33">
    <g clip-path="url(#pcb196f014e)">
     <!-- TLR7 -->
     <g transform="translate(335.299579 398.247366)scale(0.12 -0.12)">
      <use xlink:href="#DejaVuSans-84"/>
      <use x="61.083984" xlink:href="#DejaVuSans-76"/>
      <use x="116.796875" xlink:href="#DejaVuSans-82"/>
      <use x="186.279297" xlink:href="#DejaVuSans-55"/>
     </g>
    </g>
   </g>
   <g id="text_34">
    <g clip-path="url(#pcb196f014e)">
     <!-- IRAK1 -->
     <g transform="translate(495.141477 413.462653)scale(0.12 -0.12)">
      <use xlink:href="#DejaVuSans-73"/>
      <use x="29.492188" xlink:href="#DejaVuSans-82"/>
      <use x="94.974609" xlink:href="#DejaVuSans-65"/>
      <use x="163.382812" xlink:href="#DejaVuSans-75"/>
      <use x="228.958984" xlink:href="#DejaVuSans-49"/>
     </g>
    </g>
   </g>
   <g id="text_35">
    <g clip-path="url(#pcb196f014e)">
     <!-- IRAK4 -->
     <g transform="translate(473.66279 373.872637)scale(0.12 -0.12)">
      <use xlink:href="#DejaVuSans-73"/>
      <use x="29.492188" xlink:href="#DejaVuSans-82"/>
      <use x="94.974609" xlink:href="#DejaVuSans-65"/>
      <use x="163.382812" xlink:href="#DejaVuSans-75"/>
      <use x="228.958984" xlink:href="#DejaVuSans-52"/>
     </g>
    </g>
   </g>
   <g id="text_36">
    <g clip-path="url(#pcb196f014e)">
     <!-- NFKBIB -->
     <g transform="translate(414.649857 110.918523)scale(0.12 -0.12)">
      <use xlink:href="#DejaVuSans-78"/>
      <use x="74.804688" xlink:href="#DejaVuSans-70"/>
      <use x="132.324219" xlink:href="#DejaVuSans-75"/>
      <use x="197.900391" xlink:href="#DejaVuSans-66"/>
      <use x="266.503906" xlink:href="#DejaVuSans-73"/>
      <use x="295.996094" xlink:href="#DejaVuSans-66"/>
     </g>
    </g>
   </g>
   <g id="text_37">
    <g clip-path="url(#pcb196f014e)">
     <!-- NFKBIA -->
     <g transform="translate(658.229713 188.600306)scale(0.12 -0.12)">
      <use xlink:href="#DejaVuSans-78"/>
      <use x="74.804688" xlink:href="#DejaVuSans-70"/>
      <use x="132.324219" xlink:href="#DejaVuSans-75"/>
      <use x="197.900391" xlink:href="#DejaVuSans-66"/>
      <use x="266.503906" xlink:href="#DejaVuSans-73"/>
      <use x="295.996094" xlink:href="#DejaVuSans-65"/>
     </g>
    </g>
   </g>
   <g id="text_38">
    <g clip-path="url(#pcb196f014e)">
     <!-- NFKB1 -->
     <g transform="translate(475.637528 114.711599)scale(0.12 -0.12)">
      <use xlink:href="#DejaVuSans-78"/>
      <use x="74.804688" xlink:href="#DejaVuSans-70"/>
      <use x="132.324219" xlink:href="#DejaVuSans-75"/>
      <use x="197.900391" xlink:href="#DejaVuSans-66"/>
      <use x="266.503906" xlink:href="#DejaVuSans-49"/>
     </g>
    </g>
   </g>
   <g id="text_39">
    <g clip-path="url(#pcb196f014e)">
     <!-- RELA -->
     <g transform="translate(371.362235 196.745401)scale(0.12 -0.12)">
      <use xlink:href="#DejaVuSans-82"/>
      <use x="69.482422" xlink:href="#DejaVuSans-69"/>
      <use x="132.666016" xlink:href="#DejaVuSans-76"/>
      <use x="190.628906" xlink:href="#DejaVuSans-65"/>
     </g>
    </g>
   </g>
   <g id="text_40">
    <g clip-path="url(#pcb196f014e)">
     <!-- IFNAR1 -->
     <g transform="translate(498.160284 369.279218)scale(0.12 -0.12)">
      <use xlink:href="#DejaVuSans-73"/>
      <use x="29.492188" xlink:href="#DejaVuSans-70"/>
      <use x="87.011719" xlink:href="#DejaVuSans-78"/>
      <use x="161.816406" xlink:href="#DejaVuSans-65"/>
      <use x="230.224609" xlink:href="#DejaVuSans-82"/>
      <use x="299.707031" xlink:href="#DejaVuSans-49"/>
     </g>
    </g>
   </g>
   <g id="text_41">
    <g clip-path="url(#pcb196f014e)">
     <!-- IFNAR2 -->
     <g transform="translate(499.769902 348.545139)scale(0.12 -0.12)">
      <use xlink:href="#DejaVuSans-73"/>
      <use x="29.492188" xlink:href="#DejaVuSans-70"/>
      <use x="87.011719" xlink:href="#DejaVuSans-78"/>
      <use x="161.816406" xlink:href="#DejaVuSans-65"/>
      <use x="230.224609" xlink:href="#DejaVuSans-82"/>
      <use x="299.707031" xlink:href="#DejaVuSans-50"/>
     </g>
    </g>
   </g>
   <g id="text_42">
    <g clip-path="url(#pcb196f014e)">
     <!-- JAK1 -->
     <g transform="translate(343.375713 335.712339)scale(0.12 -0.12)">
      <defs>
       <path d="M 9.8125 72.90625 
L 19.671875 72.90625 
L 19.671875 5.078125 
Q 19.671875 -8.109375 14.671875 -14.0625 
Q 9.671875 -20.015625 -1.421875 -20.015625 
L -5.171875 -20.015625 
L -5.171875 -11.71875 
L -2.09375 -11.71875 
Q 4.4375 -11.71875 7.125 -8.046875 
Q 9.8125 -4.390625 9.8125 5.078125 
z
" id="DejaVuSans-74"/>
      </defs>
      <use xlink:href="#DejaVuSans-74"/>
      <use x="27.742188" xlink:href="#DejaVuSans-65"/>
      <use x="96.150391" xlink:href="#DejaVuSans-75"/>
      <use x="161.726562" xlink:href="#DejaVuSans-49"/>
     </g>
    </g>
   </g>
   <g id="text_43">
    <g clip-path="url(#pcb196f014e)">
     <!-- TYK2 -->
     <g transform="translate(425.345439 387.510358)scale(0.12 -0.12)">
      <use xlink:href="#DejaVuSans-84"/>
      <use x="61.083984" xlink:href="#DejaVuSans-89"/>
      <use x="122.167969" xlink:href="#DejaVuSans-75"/>
      <use x="187.744141" xlink:href="#DejaVuSans-50"/>
     </g>
    </g>
   </g>
   <g id="text_44">
    <g clip-path="url(#pcb196f014e)">
     <!-- STAT1 -->
     <g transform="translate(444.303409 268.780826)scale(0.12 -0.12)">
      <use xlink:href="#DejaVuSans-83"/>
      <use x="63.476562" xlink:href="#DejaVuSans-84"/>
      <use x="116.810547" xlink:href="#DejaVuSans-65"/>
      <use x="177.46875" xlink:href="#DejaVuSans-84"/>
      <use x="238.552734" xlink:href="#DejaVuSans-49"/>
     </g>
    </g>
   </g>
   <g id="text_45">
    <g clip-path="url(#pcb196f014e)">
     <!-- STAT2 -->
     <g transform="translate(285.3138 371.419215)scale(0.12 -0.12)">
      <use xlink:href="#DejaVuSans-83"/>
      <use x="63.476562" xlink:href="#DejaVuSans-84"/>
      <use x="116.810547" xlink:href="#DejaVuSans-65"/>
      <use x="177.46875" xlink:href="#DejaVuSans-84"/>
      <use x="238.552734" xlink:href="#DejaVuSans-50"/>
     </g>
    </g>
   </g>
   <g id="text_46">
    <g clip-path="url(#pcb196f014e)">
     <!-- IL2RA -->
     <g transform="translate(436.24868 381.056146)scale(0.12 -0.12)">
      <use xlink:href="#DejaVuSans-73"/>
      <use x="29.492188" xlink:href="#DejaVuSans-76"/>
      <use x="85.205078" xlink:href="#DejaVuSans-50"/>
      <use x="148.828125" xlink:href="#DejaVuSans-82"/>
      <use x="214.310547" xlink:href="#DejaVuSans-65"/>
     </g>
    </g>
   </g>
   <g id="text_47">
    <g clip-path="url(#pcb196f014e)">
     <!-- IL2RB -->
     <g transform="translate(446.013992 354.661936)scale(0.12 -0.12)">
      <use xlink:href="#DejaVuSans-73"/>
      <use x="29.492188" xlink:href="#DejaVuSans-76"/>
      <use x="85.205078" xlink:href="#DejaVuSans-50"/>
      <use x="148.828125" xlink:href="#DejaVuSans-82"/>
      <use x="218.310547" xlink:href="#DejaVuSans-66"/>
     </g>
    </g>
   </g>
   <g id="text_48">
    <g clip-path="url(#pcb196f014e)">
     <!-- IL2RG -->
     <g transform="translate(322.144345 414.211083)scale(0.12 -0.12)">
      <use xlink:href="#DejaVuSans-73"/>
      <use x="29.492188" xlink:href="#DejaVuSans-76"/>
      <use x="85.205078" xlink:href="#DejaVuSans-50"/>
      <use x="148.828125" xlink:href="#DejaVuSans-82"/>
      <use x="218.310547" xlink:href="#DejaVuSans-71"/>
     </g>
    </g>
   </g>
   <g id="text_49">
    <g clip-path="url(#pcb196f014e)">
     <!-- JAK3 -->
     <g transform="translate(303.562239 349.766317)scale(0.12 -0.12)">
      <use xlink:href="#DejaVuSans-74"/>
      <use x="27.742188" xlink:href="#DejaVuSans-65"/>
      <use x="96.150391" xlink:href="#DejaVuSans-75"/>
      <use x="161.726562" xlink:href="#DejaVuSans-51"/>
     </g>
    </g>
   </g>
   <g id="text_50">
    <g clip-path="url(#pcb196f014e)">
     <!-- STAT3 -->
     <g transform="translate(168.554032 378.570784)scale(0.12 -0.12)">
      <use xlink:href="#DejaVuSans-83"/>
      <use x="63.476562" xlink:href="#DejaVuSans-84"/>
      <use x="116.810547" xlink:href="#DejaVuSans-65"/>
      <use x="177.46875" xlink:href="#DejaVuSans-84"/>
      <use x="238.552734" xlink:href="#DejaVuSans-51"/>
     </g>
    </g>
   </g>
   <g id="text_51">
    <g clip-path="url(#pcb196f014e)">
     <!-- STAT5A -->
     <g transform="translate(201.987369 185.524418)scale(0.12 -0.12)">
      <use xlink:href="#DejaVuSans-83"/>
      <use x="63.476562" xlink:href="#DejaVuSans-84"/>
      <use x="116.810547" xlink:href="#DejaVuSans-65"/>
      <use x="177.46875" xlink:href="#DejaVuSans-84"/>
      <use x="238.552734" xlink:href="#DejaVuSans-53"/>
      <use x="302.175781" xlink:href="#DejaVuSans-65"/>
     </g>
    </g>
   </g>
   <g id="text_52">
    <g clip-path="url(#pcb196f014e)">
     <!-- STAT5B -->
     <g transform="translate(494.307491 477.463977)scale(0.12 -0.12)">
      <use xlink:href="#DejaVuSans-83"/>
      <use x="63.476562" xlink:href="#DejaVuSans-84"/>
      <use x="116.810547" xlink:href="#DejaVuSans-65"/>
      <use x="177.46875" xlink:href="#DejaVuSans-84"/>
      <use x="238.552734" xlink:href="#DejaVuSans-53"/>
      <use x="302.175781" xlink:href="#DejaVuSans-66"/>
     </g>
    </g>
   </g>
   <g id="text_53">
    <g clip-path="url(#pcb196f014e)">
     <!-- IL12A -->
     <g transform="translate(552.962065 145.375735)scale(0.12 -0.12)">
      <use xlink:href="#DejaVuSans-73"/>
      <use x="29.492188" xlink:href="#DejaVuSans-76"/>
      <use x="85.205078" xlink:href="#DejaVuSans-49"/>
      <use x="148.828125" xlink:href="#DejaVuSans-50"/>
      <use x="212.451172" xlink:href="#DejaVuSans-65"/>
     </g>
    </g>
   </g>
   <g id="text_54">
    <g clip-path="url(#pcb196f014e)">
     <!-- EIF2AK1 -->
     <g transform="translate(301.299363 460.478719)scale(0.12 -0.12)">
      <use xlink:href="#DejaVuSans-69"/>
      <use x="63.183594" xlink:href="#DejaVuSans-73"/>
      <use x="92.675781" xlink:href="#DejaVuSans-70"/>
      <use x="150.195312" xlink:href="#DejaVuSans-50"/>
      <use x="213.818359" xlink:href="#DejaVuSans-65"/>
      <use x="282.226562" xlink:href="#DejaVuSans-75"/>
      <use x="347.802734" xlink:href="#DejaVuSans-49"/>
     </g>
    </g>
   </g>
   <g id="text_55">
    <g clip-path="url(#pcb196f014e)">
     <!-- EIF2AK2 -->
     <g transform="translate(232.060128 293.787725)scale(0.12 -0.12)">
      <use xlink:href="#DejaVuSans-69"/>
      <use x="63.183594" xlink:href="#DejaVuSans-73"/>
      <use x="92.675781" xlink:href="#DejaVuSans-70"/>
      <use x="150.195312" xlink:href="#DejaVuSans-50"/>
      <use x="213.818359" xlink:href="#DejaVuSans-65"/>
      <use x="282.226562" xlink:href="#DejaVuSans-75"/>
      <use x="347.802734" xlink:href="#DejaVuSans-50"/>
     </g>
    </g>
   </g>
   <g id="text_56">
    <g clip-path="url(#pcb196f014e)">
     <!-- EIF2AK3 -->
     <g transform="translate(170.780192 297.379059)scale(0.12 -0.12)">
      <use xlink:href="#DejaVuSans-69"/>
      <use x="63.183594" xlink:href="#DejaVuSans-73"/>
      <use x="92.675781" xlink:href="#DejaVuSans-70"/>
      <use x="150.195312" xlink:href="#DejaVuSans-50"/>
      <use x="213.818359" xlink:href="#DejaVuSans-65"/>
      <use x="282.226562" xlink:href="#DejaVuSans-75"/>
      <use x="347.802734" xlink:href="#DejaVuSans-51"/>
     </g>
    </g>
   </g>
   <g id="text_57">
    <g clip-path="url(#pcb196f014e)">
     <!-- EIF2AK4 -->
     <g transform="translate(377.367686 336.173134)scale(0.12 -0.12)">
      <use xlink:href="#DejaVuSans-69"/>
      <use x="63.183594" xlink:href="#DejaVuSans-73"/>
      <use x="92.675781" xlink:href="#DejaVuSans-70"/>
      <use x="150.195312" xlink:href="#DejaVuSans-50"/>
      <use x="213.818359" xlink:href="#DejaVuSans-65"/>
      <use x="282.226562" xlink:href="#DejaVuSans-75"/>
      <use x="347.802734" xlink:href="#DejaVuSans-52"/>
     </g>
    </g>
   </g>
   <g id="text_58">
    <g clip-path="url(#pcb196f014e)">
     <!-- IKBKB -->
     <g transform="translate(491.417262 253.73128)scale(0.12 -0.12)">
      <use xlink:href="#DejaVuSans-73"/>
      <use x="29.492188" xlink:href="#DejaVuSans-75"/>
      <use x="95.068359" xlink:href="#DejaVuSans-66"/>
      <use x="163.671875" xlink:href="#DejaVuSans-75"/>
      <use x="229.248047" xlink:href="#DejaVuSans-66"/>
     </g>
    </g>
   </g>
   <g id="text_59">
    <g clip-path="url(#pcb196f014e)">
     <!-- IKBKG -->
     <g transform="translate(478.205114 198.091723)scale(0.12 -0.12)">
      <use xlink:href="#DejaVuSans-73"/>
      <use x="29.492188" xlink:href="#DejaVuSans-75"/>
      <use x="95.068359" xlink:href="#DejaVuSans-66"/>
      <use x="163.671875" xlink:href="#DejaVuSans-75"/>
      <use x="229.248047" xlink:href="#DejaVuSans-71"/>
     </g>
    </g>
   </g>
   <g id="text_60">
    <g clip-path="url(#pcb196f014e)">
     <!-- CCND1 -->
     <g transform="translate(572.477483 449.158421)scale(0.12 -0.12)">
      <use xlink:href="#DejaVuSans-67"/>
      <use x="69.824219" xlink:href="#DejaVuSans-67"/>
      <use x="139.648438" xlink:href="#DejaVuSans-78"/>
      <use x="214.453125" xlink:href="#DejaVuSans-68"/>
      <use x="291.455078" xlink:href="#DejaVuSans-49"/>
     </g>
    </g>
   </g>
   <g id="text_61">
    <g clip-path="url(#pcb196f014e)">
     <!-- CCND2 -->
     <g transform="translate(170.014453 349.401387)scale(0.12 -0.12)">
      <use xlink:href="#DejaVuSans-67"/>
      <use x="69.824219" xlink:href="#DejaVuSans-67"/>
      <use x="139.648438" xlink:href="#DejaVuSans-78"/>
      <use x="214.453125" xlink:href="#DejaVuSans-68"/>
      <use x="291.455078" xlink:href="#DejaVuSans-50"/>
     </g>
    </g>
   </g>
   <g id="text_62">
    <g clip-path="url(#pcb196f014e)">
     <!-- CCND3 -->
     <g transform="translate(624.782106 302.521404)scale(0.12 -0.12)">
      <use xlink:href="#DejaVuSans-67"/>
      <use x="69.824219" xlink:href="#DejaVuSans-67"/>
      <use x="139.648438" xlink:href="#DejaVuSans-78"/>
      <use x="214.453125" xlink:href="#DejaVuSans-68"/>
      <use x="291.455078" xlink:href="#DejaVuSans-51"/>
     </g>
    </g>
   </g>
   <g id="text_63">
    <g clip-path="url(#pcb196f014e)">
     <!-- CDK4 -->
     <g transform="translate(511.819293 121.271609)scale(0.12 -0.12)">
      <use xlink:href="#DejaVuSans-67"/>
      <use x="69.824219" xlink:href="#DejaVuSans-68"/>
      <use x="146.826172" xlink:href="#DejaVuSans-75"/>
      <use x="212.402344" xlink:href="#DejaVuSans-52"/>
     </g>
    </g>
   </g>
   <g id="text_64">
    <g clip-path="url(#pcb196f014e)">
     <!-- CDK6 -->
     <g transform="translate(275.558234 150.152259)scale(0.12 -0.12)">
      <use xlink:href="#DejaVuSans-67"/>
      <use x="69.824219" xlink:href="#DejaVuSans-68"/>
      <use x="146.826172" xlink:href="#DejaVuSans-75"/>
      <use x="212.402344" xlink:href="#DejaVuSans-54"/>
     </g>
    </g>
   </g>
   <g id="text_65">
    <g clip-path="url(#pcb196f014e)">
     <!-- CDK2 -->
     <g transform="translate(240.699044 407.450376)scale(0.12 -0.12)">
      <use xlink:href="#DejaVuSans-67"/>
      <use x="69.824219" xlink:href="#DejaVuSans-68"/>
      <use x="146.826172" xlink:href="#DejaVuSans-75"/>
      <use x="212.402344" xlink:href="#DejaVuSans-50"/>
     </g>
    </g>
   </g>
   <g id="text_66">
    <g clip-path="url(#pcb196f014e)">
     <!-- JUN -->
     <g transform="translate(651.38302 230.331131)scale(0.12 -0.12)">
      <defs>
       <path d="M 8.6875 72.90625 
L 18.609375 72.90625 
L 18.609375 28.609375 
Q 18.609375 16.890625 22.84375 11.734375 
Q 27.09375 6.59375 36.625 6.59375 
Q 46.09375 6.59375 50.34375 11.734375 
Q 54.59375 16.890625 54.59375 28.609375 
L 54.59375 72.90625 
L 64.5 72.90625 
L 64.5 27.390625 
Q 64.5 13.140625 57.4375 5.859375 
Q 50.390625 -1.421875 36.625 -1.421875 
Q 22.796875 -1.421875 15.734375 5.859375 
Q 8.6875 13.140625 8.6875 27.390625 
z
" id="DejaVuSans-85"/>
      </defs>
      <use xlink:href="#DejaVuSans-74"/>
      <use x="29.492188" xlink:href="#DejaVuSans-85"/>
      <use x="102.685547" xlink:href="#DejaVuSans-78"/>
     </g>
    </g>
   </g>
   <g id="text_67">
    <g clip-path="url(#pcb196f014e)">
     <!-- FOS -->
     <g transform="translate(418.165414 273.359913)scale(0.12 -0.12)">
      <defs>
       <path d="M 39.40625 66.21875 
Q 28.65625 66.21875 22.328125 58.203125 
Q 16.015625 50.203125 16.015625 36.375 
Q 16.015625 22.609375 22.328125 14.59375 
Q 28.65625 6.59375 39.40625 6.59375 
Q 50.140625 6.59375 56.421875 14.59375 
Q 62.703125 22.609375 62.703125 36.375 
Q 62.703125 50.203125 56.421875 58.203125 
Q 50.140625 66.21875 39.40625 66.21875 
z
M 39.40625 74.21875 
Q 54.734375 74.21875 63.90625 63.9375 
Q 73.09375 53.65625 73.09375 36.375 
Q 73.09375 19.140625 63.90625 8.859375 
Q 54.734375 -1.421875 39.40625 -1.421875 
Q 24.03125 -1.421875 14.8125 8.828125 
Q 5.609375 19.09375 5.609375 36.375 
Q 5.609375 53.65625 14.8125 63.9375 
Q 24.03125 74.21875 39.40625 74.21875 
z
" id="DejaVuSans-79"/>
      </defs>
      <use xlink:href="#DejaVuSans-70"/>
      <use x="57.519531" xlink:href="#DejaVuSans-79"/>
      <use x="136.230469" xlink:href="#DejaVuSans-83"/>
     </g>
    </g>
   </g>
   <g id="text_68">
    <!-- Frame: 11 -->
    <g transform="translate(121.392 91.296)scale(0.1 -0.1)">
     <defs>
      <path d="M 41.109375 46.296875 
Q 39.59375 47.171875 37.8125 47.578125 
Q 36.03125 48 33.890625 48 
Q 26.265625 48 22.1875 43.046875 
Q 18.109375 38.09375 18.109375 28.8125 
L 18.109375 0 
L 9.078125 0 
L 9.078125 54.6875 
L 18.109375 54.6875 
L 18.109375 46.1875 
Q 20.953125 51.171875 25.484375 53.578125 
Q 30.03125 56 36.53125 56 
Q 37.453125 56 38.578125 55.875 
Q 39.703125 55.765625 41.0625 55.515625 
z
" id="DejaVuSans-114"/>
      <path d="M 34.28125 27.484375 
Q 23.390625 27.484375 19.1875 25 
Q 14.984375 22.515625 14.984375 16.5 
Q 14.984375 11.71875 18.140625 8.90625 
Q 21.296875 6.109375 26.703125 6.109375 
Q 34.1875 6.109375 38.703125 11.40625 
Q 43.21875 16.703125 43.21875 25.484375 
L 43.21875 27.484375 
z
M 52.203125 31.203125 
L 52.203125 0 
L 43.21875 0 
L 43.21875 8.296875 
Q 40.140625 3.328125 35.546875 0.953125 
Q 30.953125 -1.421875 24.3125 -1.421875 
Q 15.921875 -1.421875 10.953125 3.296875 
Q 6 8.015625 6 15.921875 
Q 6 25.140625 12.171875 29.828125 
Q 18.359375 34.515625 30.609375 34.515625 
L 43.21875 34.515625 
L 43.21875 35.40625 
Q 43.21875 41.609375 39.140625 45 
Q 35.0625 48.390625 27.6875 48.390625 
Q 23 48.390625 18.546875 47.265625 
Q 14.109375 46.140625 10.015625 43.890625 
L 10.015625 52.203125 
Q 14.9375 54.109375 19.578125 55.046875 
Q 24.21875 56 28.609375 56 
Q 40.484375 56 46.34375 49.84375 
Q 52.203125 43.703125 52.203125 31.203125 
z
" id="DejaVuSans-97"/>
      <path d="M 52 44.1875 
Q 55.375 50.25 60.0625 53.125 
Q 64.75 56 71.09375 56 
Q 79.640625 56 84.28125 50.015625 
Q 88.921875 44.046875 88.921875 33.015625 
L 88.921875 0 
L 79.890625 0 
L 79.890625 32.71875 
Q 79.890625 40.578125 77.09375 44.375 
Q 74.3125 48.1875 68.609375 48.1875 
Q 61.625 48.1875 57.5625 43.546875 
Q 53.515625 38.921875 53.515625 30.90625 
L 53.515625 0 
L 44.484375 0 
L 44.484375 32.71875 
Q 44.484375 40.625 41.703125 44.40625 
Q 38.921875 48.1875 33.109375 48.1875 
Q 26.21875 48.1875 22.15625 43.53125 
Q 18.109375 38.875 18.109375 30.90625 
L 18.109375 0 
L 9.078125 0 
L 9.078125 54.6875 
L 18.109375 54.6875 
L 18.109375 46.1875 
Q 21.1875 51.21875 25.484375 53.609375 
Q 29.78125 56 35.6875 56 
Q 41.65625 56 45.828125 52.96875 
Q 50 49.953125 52 44.1875 
z
" id="DejaVuSans-109"/>
      <path d="M 56.203125 29.59375 
L 56.203125 25.203125 
L 14.890625 25.203125 
Q 15.484375 15.921875 20.484375 11.0625 
Q 25.484375 6.203125 34.421875 6.203125 
Q 39.59375 6.203125 44.453125 7.46875 
Q 49.3125 8.734375 54.109375 11.28125 
L 54.109375 2.78125 
Q 49.265625 0.734375 44.1875 -0.34375 
Q 39.109375 -1.421875 33.890625 -1.421875 
Q 20.796875 -1.421875 13.15625 6.1875 
Q 5.515625 13.8125 5.515625 26.8125 
Q 5.515625 40.234375 12.765625 48.109375 
Q 20.015625 56 32.328125 56 
Q 43.359375 56 49.78125 48.890625 
Q 56.203125 41.796875 56.203125 29.59375 
z
M 47.21875 32.234375 
Q 47.125 39.59375 43.09375 43.984375 
Q 39.0625 48.390625 32.421875 48.390625 
Q 24.90625 48.390625 20.390625 44.140625 
Q 15.875 39.890625 15.1875 32.171875 
z
" id="DejaVuSans-101"/>
      <path d="M 11.71875 12.40625 
L 22.015625 12.40625 
L 22.015625 0 
L 11.71875 0 
z
M 11.71875 51.703125 
L 22.015625 51.703125 
L 22.015625 39.3125 
L 11.71875 39.3125 
z
" id="DejaVuSans-58"/>
      <path id="DejaVuSans-32"/>
     </defs>
     <use xlink:href="#DejaVuSans-70"/>
     <use x="50.269531" xlink:href="#DejaVuSans-114"/>
     <use x="91.382812" xlink:href="#DejaVuSans-97"/>
     <use x="152.662109" xlink:href="#DejaVuSans-109"/>
     <use x="250.074219" xlink:href="#DejaVuSans-101"/>
     <use x="311.597656" xlink:href="#DejaVuSans-58"/>
     <use x="345.289062" xlink:href="#DejaVuSans-32"/>
     <use x="377.076172" xlink:href="#DejaVuSans-49"/>
     <use x="440.699219" xlink:href="#DejaVuSans-49"/>
    </g>
   </g>
   <g id="text_69">
    <!-- Network: hsa05162 -->
    <g transform="translate(384.1275 63.12)scale(0.12 -0.12)">
     <defs>
      <path d="M 18.3125 70.21875 
L 18.3125 54.6875 
L 36.8125 54.6875 
L 36.8125 47.703125 
L 18.3125 47.703125 
L 18.3125 18.015625 
Q 18.3125 11.328125 20.140625 9.421875 
Q 21.96875 7.515625 27.59375 7.515625 
L 36.8125 7.515625 
L 36.8125 0 
L 27.59375 0 
Q 17.1875 0 13.234375 3.875 
Q 9.28125 7.765625 9.28125 18.015625 
L 9.28125 47.703125 
L 2.6875 47.703125 
L 2.6875 54.6875 
L 9.28125 54.6875 
L 9.28125 70.21875 
z
" id="DejaVuSans-116"/>
      <path d="M 4.203125 54.6875 
L 13.1875 54.6875 
L 24.421875 12.015625 
L 35.59375 54.6875 
L 46.1875 54.6875 
L 57.421875 12.015625 
L 68.609375 54.6875 
L 77.59375 54.6875 
L 63.28125 0 
L 52.6875 0 
L 40.921875 44.828125 
L 29.109375 0 
L 18.5 0 
z
" id="DejaVuSans-119"/>
      <path d="M 30.609375 48.390625 
Q 23.390625 48.390625 19.1875 42.75 
Q 14.984375 37.109375 14.984375 27.296875 
Q 14.984375 17.484375 19.15625 11.84375 
Q 23.34375 6.203125 30.609375 6.203125 
Q 37.796875 6.203125 41.984375 11.859375 
Q 46.1875 17.53125 46.1875 27.296875 
Q 46.1875 37.015625 41.984375 42.703125 
Q 37.796875 48.390625 30.609375 48.390625 
z
M 30.609375 56 
Q 42.328125 56 49.015625 48.375 
Q 55.71875 40.765625 55.71875 27.296875 
Q 55.71875 13.875 49.015625 6.21875 
Q 42.328125 -1.421875 30.609375 -1.421875 
Q 18.84375 -1.421875 12.171875 6.21875 
Q 5.515625 13.875 5.515625 27.296875 
Q 5.515625 40.765625 12.171875 48.375 
Q 18.84375 56 30.609375 56 
z
" id="DejaVuSans-111"/>
      <path d="M 9.078125 75.984375 
L 18.109375 75.984375 
L 18.109375 31.109375 
L 44.921875 54.6875 
L 56.390625 54.6875 
L 27.390625 29.109375 
L 57.625 0 
L 45.90625 0 
L 18.109375 26.703125 
L 18.109375 0 
L 9.078125 0 
z
" id="DejaVuSans-107"/>
      <path d="M 54.890625 33.015625 
L 54.890625 0 
L 45.90625 0 
L 45.90625 32.71875 
Q 45.90625 40.484375 42.875 44.328125 
Q 39.84375 48.1875 33.796875 48.1875 
Q 26.515625 48.1875 22.3125 43.546875 
Q 18.109375 38.921875 18.109375 30.90625 
L 18.109375 0 
L 9.078125 0 
L 9.078125 75.984375 
L 18.109375 75.984375 
L 18.109375 46.1875 
Q 21.34375 51.125 25.703125 53.5625 
Q 30.078125 56 35.796875 56 
Q 45.21875 56 50.046875 50.171875 
Q 54.890625 44.34375 54.890625 33.015625 
z
" id="DejaVuSans-104"/>
      <path d="M 44.28125 53.078125 
L 44.28125 44.578125 
Q 40.484375 46.53125 36.375 47.5 
Q 32.28125 48.484375 27.875 48.484375 
Q 21.1875 48.484375 17.84375 46.4375 
Q 14.5 44.390625 14.5 40.28125 
Q 14.5 37.15625 16.890625 35.375 
Q 19.28125 33.59375 26.515625 31.984375 
L 29.59375 31.296875 
Q 39.15625 29.25 43.1875 25.515625 
Q 47.21875 21.78125 47.21875 15.09375 
Q 47.21875 7.46875 41.1875 3.015625 
Q 35.15625 -1.421875 24.609375 -1.421875 
Q 20.21875 -1.421875 15.453125 -0.5625 
Q 10.6875 0.296875 5.421875 2 
L 5.421875 11.28125 
Q 10.40625 8.6875 15.234375 7.390625 
Q 20.0625 6.109375 24.8125 6.109375 
Q 31.15625 6.109375 34.5625 8.28125 
Q 37.984375 10.453125 37.984375 14.40625 
Q 37.984375 18.0625 35.515625 20.015625 
Q 33.0625 21.96875 24.703125 23.78125 
L 21.578125 24.515625 
Q 13.234375 26.265625 9.515625 29.90625 
Q 5.8125 33.546875 5.8125 39.890625 
Q 5.8125 47.609375 11.28125 51.796875 
Q 16.75 56 26.8125 56 
Q 31.78125 56 36.171875 55.265625 
Q 40.578125 54.546875 44.28125 53.078125 
z
" id="DejaVuSans-115"/>
      <path d="M 31.78125 66.40625 
Q 24.171875 66.40625 20.328125 58.90625 
Q 16.5 51.421875 16.5 36.375 
Q 16.5 21.390625 20.328125 13.890625 
Q 24.171875 6.390625 31.78125 6.390625 
Q 39.453125 6.390625 43.28125 13.890625 
Q 47.125 21.390625 47.125 36.375 
Q 47.125 51.421875 43.28125 58.90625 
Q 39.453125 66.40625 31.78125 66.40625 
z
M 31.78125 74.21875 
Q 44.046875 74.21875 50.515625 64.515625 
Q 56.984375 54.828125 56.984375 36.375 
Q 56.984375 17.96875 50.515625 8.265625 
Q 44.046875 -1.421875 31.78125 -1.421875 
Q 19.53125 -1.421875 13.0625 8.265625 
Q 6.59375 17.96875 6.59375 36.375 
Q 6.59375 54.828125 13.0625 64.515625 
Q 19.53125 74.21875 31.78125 74.21875 
z
" id="DejaVuSans-48"/>
     </defs>
     <use xlink:href="#DejaVuSans-78"/>
     <use x="74.804688" xlink:href="#DejaVuSans-101"/>
     <use x="136.328125" xlink:href="#DejaVuSans-116"/>
     <use x="175.537109" xlink:href="#DejaVuSans-119"/>
     <use x="257.324219" xlink:href="#DejaVuSans-111"/>
     <use x="318.505859" xlink:href="#DejaVuSans-114"/>
     <use x="359.619141" xlink:href="#DejaVuSans-107"/>
     <use x="417.529297" xlink:href="#DejaVuSans-58"/>
     <use x="451.220703" xlink:href="#DejaVuSans-32"/>
     <use x="483.007812" xlink:href="#DejaVuSans-104"/>
     <use x="546.386719" xlink:href="#DejaVuSans-115"/>
     <use x="598.486328" xlink:href="#DejaVuSans-97"/>
     <use x="659.765625" xlink:href="#DejaVuSans-48"/>
     <use x="723.388672" xlink:href="#DejaVuSans-53"/>
     <use x="787.011719" xlink:href="#DejaVuSans-49"/>
     <use x="850.634766" xlink:href="#DejaVuSans-54"/>
     <use x="914.257812" xlink:href="#DejaVuSans-50"/>
    </g>
   </g>
  </g>
 </g>
 <defs>
  <clipPath id="pcb196f014e">
   <rect height="443.52" width="669.6" x="108" y="69.12"/>
  </clipPath>
 </defs>
</svg>
