<?xml version="1.0" encoding="utf-8" standalone="no"?>
<!DOCTYPE svg PUBLIC "-//W3C//DTD SVG 1.1//EN"
  "http://www.w3.org/Graphics/SVG/1.1/DTD/svg11.dtd">
<!-- Created with matplotlib (https://matplotlib.org/) -->
<svg height="576pt" version="1.1" viewBox="0 0 864 576" width="864pt" xmlns="http://www.w3.org/2000/svg" xmlns:xlink="http://www.w3.org/1999/xlink">
 <metadata>
  <rdf:RDF xmlns:cc="http://creativecommons.org/ns#" xmlns:dc="http://purl.org/dc/elements/1.1/" xmlns:rdf="http://www.w3.org/1999/02/22-rdf-syntax-ns#">
   <cc:Work>
    <dc:type rdf:resource="http://purl.org/dc/dcmitype/StillImage"/>
    <dc:date>2024-04-26T13:36:40.910501</dc:date>
    <dc:format>image/svg+xml</dc:format>
    <dc:creator>
     <cc:Agent>
      <dc:title>Matplotlib v3.3.1, https://matplotlib.org/</dc:title>
     </cc:Agent>
    </dc:creator>
   </cc:Work>
  </rdf:RDF>
 </metadata>
 <defs>
  <style type="text/css">*{stroke-linecap:butt;stroke-linejoin:round;}</style>
 </defs>
 <g id="figure_1">
  <g id="patch_1">
   <path d="M 0 576 
L 864 576 
L 864 0 
L 0 0 
z
" style="fill:#ffffff;"/>
  </g>
  <g id="axes_1">
   <g id="patch_2">
    <path clip-path="url(#p990317c19e)" d="M 420.101803 314.188682 
Q 406.696932 300.706119 394.080343 288.016407 
" style="fill:none;stroke:#000000;stroke-linecap:round;"/>
    <path clip-path="url(#p990317c19e)" d="M 395.482292 292.263117 
L 394.080343 288.016407 
L 398.31888 289.442874 
L 395.482292 292.263117 
z
" style="stroke:#000000;stroke-linecap:round;"/>
   </g>
   <g id="patch_3">
    <path clip-path="url(#p990317c19e)" d="M 431.992675 313.882451 
Q 446.560813 297.656833 460.382015 282.263133 
" style="fill:none;stroke:#000000;stroke-linecap:round;"/>
    <path clip-path="url(#p990317c19e)" d="M 456.221517 283.903334 
L 460.382015 282.263133 
L 459.197877 286.575652 
L 456.221517 283.903334 
z
" style="stroke:#000000;stroke-linecap:round;"/>
   </g>
   <g id="patch_4">
    <path clip-path="url(#p990317c19e)" d="M 430.78527 312.97797 
Q 443.097529 293.217795 454.818539 274.406527 
" style="fill:none;stroke:#000000;stroke-linecap:round;"/>
    <path clip-path="url(#p990317c19e)" d="M 451.005765 276.743781 
L 454.818539 274.406527 
L 454.400677 278.859099 
L 451.005765 276.743781 
z
" style="stroke:#000000;stroke-linecap:round;"/>
   </g>
   <g id="patch_5">
    <path clip-path="url(#p990317c19e)" d="M 491.682738 429.890872 
Q 502.744533 399.860072 513.419886 370.878396 
" style="fill:none;stroke:#000000;stroke-linecap:round;"/>
    <path clip-path="url(#p990317c19e)" d="M 510.160574 373.940566 
L 513.419886 370.878396 
L 513.914035 375.323148 
L 510.160574 373.940566 
z
" style="stroke:#000000;stroke-linecap:round;"/>
   </g>
   <g id="patch_6">
    <path clip-path="url(#p990317c19e)" d="M 512.465424 369.199305 
Q 484.294954 417.926993 456.68406 465.686759 
" style="fill:none;stroke:#000000;stroke-linecap:round;"/>
    <path clip-path="url(#p990317c19e)" d="M 460.417533 463.224812 
L 456.68406 465.686759 
L 456.954586 461.222812 
L 460.417533 463.224812 
z
" style="stroke:#000000;stroke-linecap:round;"/>
   </g>
   <g id="patch_7">
    <path clip-path="url(#p990317c19e)" d="M 514.975921 353.235977 
Q 506.036452 311.759899 497.332547 271.376758 
" style="fill:none;stroke:#000000;stroke-linecap:round;"/>
    <path clip-path="url(#p990317c19e)" d="M 496.220223 275.708355 
L 497.332547 271.376758 
L 500.13043 274.865576 
L 496.220223 275.708355 
z
" style="stroke:#000000;stroke-linecap:round;"/>
   </g>
   <g id="patch_8">
    <path clip-path="url(#p990317c19e)" d="M 352.515223 369.73755 
Q 263.274151 330.490471 175.056512 291.693484 
" style="fill:none;stroke:#000000;stroke-linecap:round;"/>
    <path clip-path="url(#p990317c19e)" d="M 177.912909 295.13456 
L 175.056512 291.693484 
L 179.52321 291.473012 
L 177.912909 295.13456 
z
" style="stroke:#000000;stroke-linecap:round;"/>
   </g>
   <g id="patch_9">
    <path clip-path="url(#p990317c19e)" d="M 351.970406 371.416719 
Q 272.902204 354.553037 194.927443 337.922563 
" style="fill:none;stroke:#000000;stroke-linecap:round;"/>
    <path clip-path="url(#p990317c19e)" d="M 198.422279 340.712925 
L 194.927443 337.922563 
L 199.256634 336.800912 
L 198.422279 340.712925 
z
" style="stroke:#000000;stroke-linecap:round;"/>
   </g>
   <g id="patch_10">
    <path clip-path="url(#p990317c19e)" d="M 368.23422 376.995397 
Q 451.669186 417.381101 534.09781 457.279697 
" style="fill:none;stroke:#000000;stroke-linecap:round;"/>
    <path clip-path="url(#p990317c19e)" d="M 531.368775 453.736766 
L 534.09781 457.279697 
L 529.626044 457.337167 
L 531.368775 453.736766 
z
" style="stroke:#000000;stroke-linecap:round;"/>
   </g>
   <g id="patch_11">
    <path clip-path="url(#p990317c19e)" d="M 368.171283 377.128833 
Q 424.566339 405.621978 479.963496 433.610942 
" style="fill:none;stroke:#000000;stroke-linecap:round;"/>
    <path clip-path="url(#p990317c19e)" d="M 477.29521 430.022036 
L 479.963496 433.610942 
L 475.4914 433.592227 
L 477.29521 430.022036 
z
" style="stroke:#000000;stroke-linecap:round;"/>
   </g>
   <g id="patch_12">
    <path clip-path="url(#p990317c19e)" d="M 481.029551 409.393505 
Q 396.956953 430.073375 313.970027 450.486195 
" style="fill:none;stroke:#000000;stroke-linecap:round;"/>
    <path clip-path="url(#p990317c19e)" d="M 318.33196 451.472879 
L 313.970027 450.486195 
L 317.376534 447.588659 
L 318.33196 451.472879 
z
" style="stroke:#000000;stroke-linecap:round;"/>
   </g>
   <g id="patch_13">
    <path clip-path="url(#p990317c19e)" d="M 417.969132 308.531206 
Q 438.75542 345.023592 458.988343 380.544491 
" style="fill:none;stroke:#000000;stroke-linecap:round;"/>
    <path clip-path="url(#p990317c19e)" d="M 458.746413 376.078904 
L 458.988343 380.544491 
L 455.270715 378.058683 
L 458.746413 376.078904 
z
" style="stroke:#000000;stroke-linecap:round;"/>
   </g>
   <g id="patch_14">
    <path clip-path="url(#p990317c19e)" d="M 344.889281 160.128282 
Q 292.477796 182.93415 241.091496 205.293928 
" style="fill:none;stroke:#000000;stroke-linecap:round;"/>
    <path clip-path="url(#p990317c19e)" d="M 245.557298 205.531855 
L 241.091496 205.293928 
L 243.961319 201.864042 
L 245.557298 205.531855 
z
" style="stroke:#000000;stroke-linecap:round;"/>
   </g>
   <g id="patch_15">
    <path clip-path="url(#p990317c19e)" d="M 361.219103 158.809011 
Q 417.958044 173.242227 473.613458 187.399817 
" style="fill:none;stroke:#000000;stroke-linecap:round;"/>
    <path clip-path="url(#p990317c19e)" d="M 470.229972 184.475433 
L 473.613458 187.399817 
L 469.24386 188.351975 
L 470.229972 184.475433 
z
" style="stroke:#000000;stroke-linecap:round;"/>
   </g>
   <g id="patch_16">
    <path clip-path="url(#p990317c19e)" d="M 400.682508 265.106427 
Q 429.516207 269.40716 457.244106 273.542956 
" style="fill:none;stroke:#000000;stroke-linecap:round;"/>
    <path clip-path="url(#p990317c19e)" d="M 453.582921 270.974741 
L 457.244106 273.542956 
L 452.992823 274.930975 
L 453.582921 270.974741 
z
" style="stroke:#000000;stroke-linecap:round;"/>
   </g>
   <g id="patch_17">
    <path clip-path="url(#p990317c19e)" d="M 400.767182 264.118948 
Q 426.049548 264.968319 450.21451 265.780149 
" style="fill:none;stroke:#000000;stroke-linecap:round;"/>
    <path clip-path="url(#p990317c19e)" d="M 446.283918 263.646971 
L 450.21451 265.780149 
L 446.149613 267.644716 
L 446.283918 263.646971 
z
" style="stroke:#000000;stroke-linecap:round;"/>
   </g>
   <g id="patch_18">
    <path clip-path="url(#p990317c19e)" d="M 396.458651 271.318661 
Q 402.897691 282.416959 408.77566 292.5482 
" style="fill:none;stroke:#000000;stroke-linecap:round;"/>
    <path clip-path="url(#p990317c19e)" d="M 408.498241 288.084677 
L 408.77566 292.5482 
L 405.03839 290.092022 
L 408.498241 288.084677 
z
" style="stroke:#000000;stroke-linecap:round;"/>
   </g>
   <g id="patch_19">
    <path clip-path="url(#p990317c19e)" d="M 520.956391 231.623112 
Q 421.384973 244.479105 322.922384 257.191933 
" style="fill:none;stroke:#000000;stroke-linecap:round;"/>
    <path clip-path="url(#p990317c19e)" d="M 327.145556 258.663267 
L 322.922384 257.191933 
L 326.633354 254.696196 
L 327.145556 258.663267 
z
" style="stroke:#000000;stroke-linecap:round;"/>
   </g>
   <g id="patch_20">
    <path clip-path="url(#p990317c19e)" d="M 318.90422 251.902851 
Q 337.97812 229.92785 356.319152 208.797184 
" style="fill:none;stroke:#000000;stroke-linecap:round;"/>
    <path clip-path="url(#p990317c19e)" d="M 352.186767 210.506979 
L 356.319152 208.797184 
L 355.207556 213.128969 
L 352.186767 210.506979 
z
" style="stroke:#000000;stroke-linecap:round;"/>
   </g>
   <g id="patch_21">
    <path clip-path="url(#p990317c19e)" d="M 306.400507 263.772891 
Q 277.020619 286.708998 248.522016 308.957109 
" style="fill:none;stroke:#000000;stroke-linecap:round;"/>
    <path clip-path="url(#p990317c19e)" d="M 252.905719 308.072151 
L 248.522016 308.957109 
L 250.444271 304.919172 
L 252.905719 308.072151 
z
" style="stroke:#000000;stroke-linecap:round;"/>
   </g>
   <g id="patch_22">
    <path clip-path="url(#p990317c19e)" d="M 257.887922 222.998534 
Q 232.337854 295.227498 207.160637 366.402431 
" style="fill:none;stroke:#000000;stroke-linecap:round;"/>
    <path clip-path="url(#p990317c19e)" d="M 210.380095 363.298387 
L 207.160637 366.402431 
L 206.609077 361.964438 
L 210.380095 363.298387 
z
" style="stroke:#000000;stroke-linecap:round;"/>
   </g>
   <g id="patch_23">
    <path clip-path="url(#p990317c19e)" d="M 259.413096 206.280224 
Q 255.402201 181.087665 251.567093 156.999234 
" style="fill:none;stroke:#000000;stroke-linecap:round;"/>
    <path clip-path="url(#p990317c19e)" d="M 250.220886 161.263941 
L 251.567093 156.999234 
L 254.171134 160.635024 
L 250.220886 161.263941 
z
" style="stroke:#000000;stroke-linecap:round;"/>
   </g>
   <g id="patch_24">
    <path clip-path="url(#p990317c19e)" d="M 267.969235 210.014282 
Q 340.766554 161.221098 412.635156 113.050398 
" style="fill:none;stroke:#000000;stroke-linecap:round;"/>
    <path clip-path="url(#p990317c19e)" d="M 408.198946 113.616119 
L 412.635156 113.050398 
L 410.426007 116.938799 
L 408.198946 113.616119 
z
" style="stroke:#000000;stroke-linecap:round;"/>
   </g>
   <g id="patch_25">
    <path clip-path="url(#p990317c19e)" d="M 372.173783 269.395273 
Q 353.989665 325.391665 336.150862 380.324686 
" style="fill:none;stroke:#000000;stroke-linecap:round;"/>
    <path clip-path="url(#p990317c19e)" d="M 339.288518 377.137976 
L 336.150862 380.324686 
L 335.484088 375.902535 
L 339.288518 377.137976 
z
" style="stroke:#000000;stroke-linecap:round;"/>
   </g>
   <g id="patch_26">
    <path clip-path="url(#p990317c19e)" d="M 329.554094 397.513195 
Q 318.803787 421.222738 308.515173 443.914029 
" style="fill:none;stroke:#000000;stroke-linecap:round;"/>
    <path clip-path="url(#p990317c19e)" d="M 311.988483 441.096917 
L 308.515173 443.914029 
L 308.34547 439.445114 
L 311.988483 441.096917 
z
" style="stroke:#000000;stroke-linecap:round;"/>
   </g>
   <g id="patch_27">
    <path clip-path="url(#p990317c19e)" d="M 341.78983 389.586587 
Q 398.479601 389.333487 454.051349 389.085378 
" style="fill:none;stroke:#000000;stroke-linecap:round;"/>
    <path clip-path="url(#p990317c19e)" d="M 450.042459 387.103257 
L 454.051349 389.085378 
L 450.060318 391.103217 
L 450.042459 387.103257 
z
" style="stroke:#000000;stroke-linecap:round;"/>
   </g>
   <g id="patch_28">
    <path clip-path="url(#p990317c19e)" d="M 470.877688 394.074659 
Q 476.63333 398.183988 481.479052 401.643665 
" style="fill:none;stroke:#000000;stroke-linecap:round;"/>
    <path clip-path="url(#p990317c19e)" d="M 479.385756 397.691689 
L 481.479052 401.643665 
L 477.061494 400.947116 
L 479.385756 397.691689 
z
" style="stroke:#000000;stroke-linecap:round;"/>
   </g>
   <g id="patch_29">
    <path clip-path="url(#p990317c19e)" d="M 455.787389 392.260101 
Q 384.151565 420.931905 313.553722 449.188263 
" style="fill:none;stroke:#000000;stroke-linecap:round;"/>
    <path clip-path="url(#p990317c19e)" d="M 318.010488 449.558717 
L 313.553722 449.188263 
L 316.524144 445.845123 
L 318.010488 449.558717 
z
" style="stroke:#000000;stroke-linecap:round;"/>
   </g>
   <g id="patch_30">
    <path clip-path="url(#p990317c19e)" d="M 601.478999 297.678185 
Q 525.196462 290.138369 450.026538 282.708525 
" style="fill:none;stroke:#000000;stroke-linecap:round;"/>
    <path clip-path="url(#p990317c19e)" d="M 453.810418 285.092272 
L 450.026538 282.708525 
L 454.203863 281.111668 
L 453.810418 285.092272 
z
" style="stroke:#000000;stroke-linecap:round;"/>
   </g>
   <g id="patch_31">
    <path clip-path="url(#p990317c19e)" d="M 448.685963 279.614557 
Q 453.606239 278.365214 457.44287 277.391027 
" style="fill:none;stroke:#000000;stroke-linecap:round;"/>
    <path clip-path="url(#p990317c19e)" d="M 453.073685 276.436971 
L 457.44287 277.391027 
L 454.058115 280.313942 
L 453.073685 276.436971 
z
" style="stroke:#000000;stroke-linecap:round;"/>
   </g>
   <g id="patch_32">
    <path clip-path="url(#p990317c19e)" d="M 447.074036 276.361228 
Q 450.14037 273.926962 452.331052 272.187847 
" style="fill:none;stroke:#000000;stroke-linecap:round;"/>
    <path clip-path="url(#p990317c19e)" d="M 447.954704 273.108486 
L 452.331052 272.187847 
L 450.441755 276.241309 
L 447.954704 273.108486 
z
" style="stroke:#000000;stroke-linecap:round;"/>
   </g>
   <g id="patch_33">
    <path clip-path="url(#p990317c19e)" d="M 543.554254 314.870945 
Q 509.076689 296.927531 475.590884 279.500266 
" style="fill:none;stroke:#000000;stroke-linecap:round;"/>
    <path clip-path="url(#p990317c19e)" d="M 478.2158 283.121015 
L 475.590884 279.500266 
L 480.062432 279.572783 
L 478.2158 283.121015 
z
" style="stroke:#000000;stroke-linecap:round;"/>
   </g>
   <g id="patch_34">
    <path clip-path="url(#p990317c19e)" d="M 543.736326 314.532439 
Q 505.610646 292.487646 468.45285 271.002498 
" style="fill:none;stroke:#000000;stroke-linecap:round;"/>
    <path clip-path="url(#p990317c19e)" d="M 470.914535 274.736143 
L 468.45285 271.002498 
L 472.916777 271.273337 
L 470.914535 274.736143 
z
" style="stroke:#000000;stroke-linecap:round;"/>
   </g>
   <g id="patch_35">
    <path clip-path="url(#p990317c19e)" d="M 395.824463 280.422338 
Q 427.050733 278.034308 457.162224 275.731532 
" style="fill:none;stroke:#000000;stroke-linecap:round;"/>
    <path clip-path="url(#p990317c19e)" d="M 453.021365 274.042364 
L 457.162224 275.731532 
L 453.326374 278.030718 
L 453.021365 274.042364 
z
" style="stroke:#000000;stroke-linecap:round;"/>
   </g>
   <g id="patch_36">
    <path clip-path="url(#p990317c19e)" d="M 395.669411 279.338147 
Q 423.587381 273.595809 450.410242 268.078719 
" style="fill:none;stroke:#000000;stroke-linecap:round;"/>
    <path clip-path="url(#p990317c19e)" d="M 446.089325 266.925603 
L 450.410242 268.078719 
L 446.895199 270.843583 
L 446.089325 266.925603 
z
" style="stroke:#000000;stroke-linecap:round;"/>
   </g>
   <g id="patch_37">
    <path clip-path="url(#p990317c19e)" d="M 458.327218 327.130177 
Q 472.635132 390.807889 486.697942 453.394765 
" style="fill:none;stroke:#000000;stroke-linecap:round;"/>
    <path clip-path="url(#p990317c19e)" d="M 487.772383 449.053616 
L 486.697942 453.394765 
L 483.869687 449.930523 
L 487.772383 449.053616 
z
" style="stroke:#000000;stroke-linecap:round;"/>
   </g>
   <g id="patch_38">
    <path clip-path="url(#p990317c19e)" d="M 448.669818 322.528709 
Q 352.695599 370.106535 257.723082 417.187781 
" style="fill:none;stroke:#000000;stroke-linecap:round;"/>
    <path clip-path="url(#p990317c19e)" d="M 262.195191 417.203064 
L 257.723082 417.187781 
L 260.418574 413.619263 
L 262.195191 417.203064 
z
" style="stroke:#000000;stroke-linecap:round;"/>
   </g>
   <g id="patch_39">
    <path clip-path="url(#p990317c19e)" d="M 465.079311 318.265579 
Q 587.960203 312.347337 709.724356 306.482881 
" style="fill:none;stroke:#000000;stroke-linecap:round;"/>
    <path clip-path="url(#p990317c19e)" d="M 705.632774 304.677623 
L 709.724356 306.482881 
L 705.825201 308.672992 
L 705.632774 304.677623 
z
" style="stroke:#000000;stroke-linecap:round;"/>
   </g>
   <g id="patch_40">
    <path clip-path="url(#p990317c19e)" d="M 452.420031 311.006374 
Q 404.648623 219.540689 357.394807 129.066012 
" style="fill:none;stroke:#000000;stroke-linecap:round;"/>
    <path clip-path="url(#p990317c19e)" d="M 357.473829 133.53745 
L 357.394807 129.066012 
L 361.01937 131.685657 
L 357.473829 133.53745 
z
" style="stroke:#000000;stroke-linecap:round;"/>
   </g>
   <g id="patch_41">
    <path clip-path="url(#p990317c19e)" d="M 460.550663 280.858646 
Q 413.677978 324.105318 367.627007 366.593842 
" style="fill:none;stroke:#000000;stroke-linecap:round;"/>
    <path clip-path="url(#p990317c19e)" d="M 371.923074 365.35134 
L 367.627007 366.593842 
L 369.210645 362.411488 
L 371.923074 365.35134 
z
" style="stroke:#000000;stroke-linecap:round;"/>
   </g>
   <g id="patch_42">
    <path clip-path="url(#p990317c19e)" d="M 464.895392 283.405411 
Q 461.672445 296.834446 458.710415 309.17632 
" style="fill:none;stroke:#000000;stroke-linecap:round;"/>
    <path clip-path="url(#p990317c19e)" d="M 461.588676 305.753512 
L 458.710415 309.17632 
L 457.699126 304.820026 
L 461.588676 305.753512 
z
" style="stroke:#000000;stroke-linecap:round;"/>
   </g>
   <g id="patch_43">
    <path clip-path="url(#p990317c19e)" d="M 471.653808 267.733074 
Q 516.123001 199.658749 559.980745 132.520442 
" style="fill:none;stroke:#000000;stroke-linecap:round;"/>
    <path clip-path="url(#p990317c19e)" d="M 556.118759 134.77545 
L 559.980745 132.520442 
L 559.467559 136.963036 
L 556.118759 134.77545 
z
" style="stroke:#000000;stroke-linecap:round;"/>
   </g>
   <g id="patch_44">
    <path clip-path="url(#p990317c19e)" d="M 458.281013 274.302427 
Q 324.369226 263.707889 191.571989 253.20153 
" style="fill:none;stroke:#000000;stroke-linecap:round;"/>
    <path clip-path="url(#p990317c19e)" d="M 195.401791 255.510778 
L 191.571989 253.20153 
L 195.717268 251.523238 
L 195.401791 255.510778 
z
" style="stroke:#000000;stroke-linecap:round;"/>
   </g>
   <g id="patch_45">
    <path clip-path="url(#p990317c19e)" d="M 474.972851 278.159246 
Q 584.930819 321.473103 693.84855 364.377198 
" style="fill:none;stroke:#000000;stroke-linecap:round;"/>
    <path clip-path="url(#p990317c19e)" d="M 690.859889 361.050352 
L 693.84855 364.377198 
L 689.393876 364.772019 
L 690.859889 361.050352 
z
" style="stroke:#000000;stroke-linecap:round;"/>
   </g>
   <g id="patch_46">
    <path clip-path="url(#p990317c19e)" d="M 454.092247 272.453435 
Q 410.214916 319.666313 367.098694 366.060221 
" style="fill:none;stroke:#000000;stroke-linecap:round;"/>
    <path clip-path="url(#p990317c19e)" d="M 371.286742 364.491702 
L 367.098694 366.060221 
L 368.356708 361.768671 
L 371.286742 364.491702 
z
" style="stroke:#000000;stroke-linecap:round;"/>
   </g>
   <g id="patch_47">
    <path clip-path="url(#p990317c19e)" d="M 459.403768 274.749936 
Q 458.208984 292.394971 457.089732 308.924526 
" style="fill:none;stroke:#000000;stroke-linecap:round;"/>
    <path clip-path="url(#p990317c19e)" d="M 459.355393 305.068779 
L 457.089732 308.924526 
L 455.364532 304.798549 
L 459.355393 305.068779 
z
" style="stroke:#000000;stroke-linecap:round;"/>
   </g>
   <g id="patch_48">
    <path clip-path="url(#p990317c19e)" d="M 465.153285 259.157881 
Q 512.657989 195.222293 559.495896 132.184134 
" style="fill:none;stroke:#000000;stroke-linecap:round;"/>
    <path clip-path="url(#p990317c19e)" d="M 555.504915 134.202072 
L 559.495896 132.184134 
L 558.715657 136.587682 
L 555.504915 134.202072 
z
" style="stroke:#000000;stroke-linecap:round;"/>
   </g>
   <g id="patch_49">
    <path clip-path="url(#p990317c19e)" d="M 451.34288 265.683371 
Q 320.906956 259.269417 191.587715 252.910373 
" style="fill:none;stroke:#000000;stroke-linecap:round;"/>
    <path clip-path="url(#p990317c19e)" d="M 195.48466 255.104415 
L 191.587715 252.910373 
L 195.681116 251.109243 
L 195.48466 255.104415 
z
" style="stroke:#000000;stroke-linecap:round;"/>
   </g>
   <g id="patch_50">
    <path clip-path="url(#p990317c19e)" d="M 467.978071 269.457736 
Q 581.471122 317.036167 693.933078 364.182343 
" style="fill:none;stroke:#000000;stroke-linecap:round;"/>
    <path clip-path="url(#p990317c19e)" d="M 691.017362 360.791384 
L 693.933078 364.182343 
L 689.470882 364.480341 
L 691.017362 360.791384 
z
" style="stroke:#000000;stroke-linecap:round;"/>
   </g>
   <g id="patch_51">
    <path clip-path="url(#p990317c19e)" d="M 456.038371 466.611001 
Q 470.612608 440.740512 484.638085 415.844118 
" style="fill:none;stroke:#000000;stroke-linecap:round;"/>
    <path clip-path="url(#p990317c19e)" d="M 480.932265 418.347496 
L 484.638085 415.844118 
L 484.417295 420.310801 
L 480.932265 418.347496 
z
" style="stroke:#000000;stroke-linecap:round;"/>
   </g>
   <g id="patch_52">
    <path clip-path="url(#p990317c19e)" d="M 494.924937 270.471162 
Q 492.354445 334.573577 489.82875 397.558856 
" style="fill:none;stroke:#000000;stroke-linecap:round;"/>
    <path clip-path="url(#p990317c19e)" d="M 491.987414 393.642203 
L 489.82875 397.558856 
L 487.990626 393.481933 
L 491.987414 393.642203 
z
" style="stroke:#000000;stroke-linecap:round;"/>
   </g>
   <g id="patch_53">
    <path clip-path="url(#p990317c19e)" d="M 351.125548 307.021288 
Q 422.274815 286.891298 492.348276 267.065682 
" style="fill:none;stroke:#000000;stroke-linecap:round;"/>
    <path clip-path="url(#p990317c19e)" d="M 487.954879 266.230183 
L 492.348276 267.065682 
L 489.043838 270.079101 
L 487.954879 266.230183 
z
" style="stroke:#000000;stroke-linecap:round;"/>
   </g>
   <g id="patch_54">
    <path clip-path="url(#p990317c19e)" d="M 339.533247 301.35654 
Q 325.017744 265.640995 310.923195 230.96121 
" style="fill:none;stroke:#000000;stroke-linecap:round;"/>
    <path clip-path="url(#p990317c19e)" d="M 310.57642 235.419881 
L 310.923195 230.96121 
L 314.282067 233.913833 
L 310.57642 235.419881 
z
" style="stroke:#000000;stroke-linecap:round;"/>
   </g>
   <g id="patch_55">
    <path clip-path="url(#p990317c19e)" d="M 348.138064 264.536652 
Q 420.618728 264.473747 491.981359 264.411812 
" style="fill:none;stroke:#000000;stroke-linecap:round;"/>
    <path clip-path="url(#p990317c19e)" d="M 487.979625 262.415284 
L 491.981359 264.411812 
L 487.983096 266.415283 
L 487.979625 262.415284 
z
" style="stroke:#000000;stroke-linecap:round;"/>
   </g>
   <g id="patch_56">
    <path clip-path="url(#p990317c19e)" d="M 334.252603 257.634062 
Q 323.357579 243.221469 313.136759 229.700754 
" style="fill:none;stroke:#000000;stroke-linecap:round;"/>
    <path clip-path="url(#p990317c19e)" d="M 313.953426 234.097691 
L 313.136759 229.700754 
L 317.144309 231.685582 
L 313.953426 234.097691 
z
" style="stroke:#000000;stroke-linecap:round;"/>
   </g>
   <g id="patch_57">
    <path clip-path="url(#p990317c19e)" d="M 493.095254 264.357886 
Q 446.93542 264.115763 401.893605 263.879505 
" style="fill:none;stroke:#000000;stroke-linecap:round;"/>
    <path clip-path="url(#p990317c19e)" d="M 405.883059 265.900458 
L 401.893605 263.879505 
L 405.90404 261.900513 
L 405.883059 265.900458 
z
" style="stroke:#000000;stroke-linecap:round;"/>
   </g>
   <g id="patch_58">
    <path clip-path="url(#p990317c19e)" d="M 495.366436 258.554992 
Q 459.749166 225.966664 424.95676 194.133055 
" style="fill:none;stroke:#000000;stroke-linecap:round;"/>
    <path clip-path="url(#p990317c19e)" d="M 426.557807 198.308776 
L 424.95676 194.133055 
L 429.257965 195.35765 
L 426.557807 198.308776 
z
" style="stroke:#000000;stroke-linecap:round;"/>
   </g>
   <g id="patch_59">
    <path clip-path="url(#p990317c19e)" d="M 315.003765 225.736538 
Q 349.676718 242.864883 383.347275 259.498048 
" style="fill:none;stroke:#000000;stroke-linecap:round;"/>
    <path clip-path="url(#p990317c19e)" d="M 380.646803 255.933297 
L 383.347275 259.498048 
L 378.875191 259.519575 
L 380.646803 255.933297 
z
" style="stroke:#000000;stroke-linecap:round;"/>
   </g>
   <g id="patch_60">
    <path clip-path="url(#p990317c19e)" d="M 315.513433 219.32905 
Q 362.492937 204.717113 408.404854 190.437224 
" style="fill:none;stroke:#000000;stroke-linecap:round;"/>
    <path clip-path="url(#p990317c19e)" d="M 403.991348 189.715442 
L 408.404854 190.437224 
L 405.179325 193.534959 
L 403.991348 189.715442 
z
" style="stroke:#000000;stroke-linecap:round;"/>
   </g>
   <g id="patch_61">
    <path clip-path="url(#p990317c19e)" d="M 417.433375 196.186641 
Q 415.712841 244.269867 414.032288 291.235773 
" style="fill:none;stroke:#000000;stroke-linecap:round;"/>
    <path clip-path="url(#p990317c19e)" d="M 416.174047 287.30985 
L 414.032288 291.235773 
L 412.176605 287.166812 
L 416.174047 287.30985 
z
" style="stroke:#000000;stroke-linecap:round;"/>
   </g>
   <g id="patch_62">
    <path clip-path="url(#p990317c19e)" d="M 240.322472 211.993021 
Q 312.120398 236.511435 382.860282 260.668536 
" style="fill:none;stroke:#000000;stroke-linecap:round;"/>
    <path clip-path="url(#p990317c19e)" d="M 379.721252 257.48318 
L 382.860282 260.668536 
L 378.42858 261.268547 
L 379.721252 257.48318 
z
" style="stroke:#000000;stroke-linecap:round;"/>
   </g>
   <g id="patch_63">
    <path clip-path="url(#p990317c19e)" d="M 476.375104 195.274904 
Q 437.6036 226.81825 399.699363 257.656012 
" style="fill:none;stroke:#000000;stroke-linecap:round;"/>
    <path clip-path="url(#p990317c19e)" d="M 404.064379 256.683057 
L 399.699363 257.656012 
L 401.540008 253.580227 
L 404.064379 256.683057 
z
" style="stroke:#000000;stroke-linecap:round;"/>
   </g>
   <g id="patch_64">
    <path clip-path="url(#p990317c19e)" d="M 487.205723 346.502471 
Q 488.162684 372.587225 489.078656 397.554697 
" style="fill:none;stroke:#000000;stroke-linecap:round;"/>
    <path clip-path="url(#p990317c19e)" d="M 490.930664 393.484063 
L 489.078656 397.554697 
L 486.933353 393.63071 
L 490.930664 393.484063 
z
" style="stroke:#000000;stroke-linecap:round;"/>
   </g>
   <g id="patch_65">
    <path clip-path="url(#p990317c19e)" d="M 479.55955 342.46664 
Q 395.682026 395.334577 312.750333 447.606358 
" style="fill:none;stroke:#000000;stroke-linecap:round;"/>
    <path clip-path="url(#p990317c19e)" d="M 317.20068 447.165437 
L 312.750333 447.606358 
L 315.067804 443.781528 
L 317.20068 447.165437 
z
" style="stroke:#000000;stroke-linecap:round;"/>
   </g>
   <g id="patch_66">
    <path clip-path="url(#p990317c19e)" d="M 416.891694 452.909859 
Q 449.49706 432.422051 481.155767 412.529084 
" style="fill:none;stroke:#000000;stroke-linecap:round;"/>
    <path clip-path="url(#p990317c19e)" d="M 476.704811 412.963813 
L 481.155767 412.529084 
L 478.832976 416.350686 
L 476.704811 412.963813 
z
" style="stroke:#000000;stroke-linecap:round;"/>
   </g>
   <g id="patch_67">
    <path clip-path="url(#p990317c19e)" d="M 400.907754 457.132362 
Q 357.016607 455.170207 314.242378 453.257985 
" style="fill:none;stroke:#000000;stroke-linecap:round;"/>
    <path clip-path="url(#p990317c19e)" d="M 318.149066 455.434631 
L 314.242378 453.257985 
L 318.327708 451.438622 
L 318.149066 455.434631 
z
" style="stroke:#000000;stroke-linecap:round;"/>
   </g>
   <g id="patch_68">
    <path clip-path="url(#p990317c19e)" d="M 459.443901 358.350426 
Q 472.178751 379.144781 484.329694 398.985693 
" style="fill:none;stroke:#000000;stroke-linecap:round;"/>
    <path clip-path="url(#p990317c19e)" d="M 483.946218 394.530028 
L 484.329694 398.985693 
L 480.535077 396.619074 
L 483.946218 394.530028 
z
" style="stroke:#000000;stroke-linecap:round;"/>
   </g>
   <g id="patch_69">
    <path clip-path="url(#p990317c19e)" d="M 447.751642 355.818579 
Q 379.700504 401.891809 312.57517 447.338234 
" style="fill:none;stroke:#000000;stroke-linecap:round;"/>
    <path clip-path="url(#p990317c19e)" d="M 317.008694 446.751837 
L 312.57517 447.338234 
L 314.766167 443.439577 
L 317.008694 446.751837 
z
" style="stroke:#000000;stroke-linecap:round;"/>
   </g>
   <g id="patch_70">
    <path clip-path="url(#p990317c19e)" d="M 482.64884 421.75554 
Q 484.199238 418.459799 485.273715 416.17574 
" style="fill:none;stroke:#000000;stroke-linecap:round;"/>
    <path clip-path="url(#p990317c19e)" d="M 481.761261 418.943891 
L 485.273715 416.17574 
L 485.380764 420.646594 
L 481.761261 418.943891 
z
" style="stroke:#000000;stroke-linecap:round;"/>
   </g>
   <g id="patch_71">
    <path clip-path="url(#p990317c19e)" d="M 470.376146 430.734787 
Q 391.718321 441.206683 314.168753 451.531035 
" style="fill:none;stroke:#000000;stroke-linecap:round;"/>
    <path clip-path="url(#p990317c19e)" d="M 318.397704 452.985672 
L 314.168753 451.531035 
L 317.869833 449.020656 
L 318.397704 452.985672 
z
" style="stroke:#000000;stroke-linecap:round;"/>
   </g>
   <g id="patch_72">
    <path clip-path="url(#p990317c19e)" d="M 501.508237 424.223734 
Q 497.990194 419.298848 495.122027 415.28372 
" style="fill:none;stroke:#000000;stroke-linecap:round;"/>
    <path clip-path="url(#p990317c19e)" d="M 495.819672 419.701105 
L 495.122027 415.28372 
L 499.074522 417.376035 
L 495.819672 419.701105 
z
" style="stroke:#000000;stroke-linecap:round;"/>
   </g>
   <g id="patch_73">
    <path clip-path="url(#p990317c19e)" d="M 497.930957 432.189684 
Q 405.509009 442.046383 314.198791 451.784518 
" style="fill:none;stroke:#000000;stroke-linecap:round;"/>
    <path clip-path="url(#p990317c19e)" d="M 318.38833 453.34905 
L 314.198791 451.784518 
L 317.96414 449.371605 
L 318.38833 453.34905 
z
" style="stroke:#000000;stroke-linecap:round;"/>
   </g>
   <g id="patch_74">
    <path clip-path="url(#p990317c19e)" d="M 514.306094 263.604374 
Q 418.094196 261.135135 322.999964 258.694581 
" style="fill:none;stroke:#000000;stroke-linecap:round;"/>
    <path clip-path="url(#p990317c19e)" d="M 326.947335 260.796547 
L 322.999964 258.694581 
L 327.04996 256.797864 
L 326.947335 260.796547 
z
" style="stroke:#000000;stroke-linecap:round;"/>
   </g>
   <g id="patch_75">
    <path clip-path="url(#p990317c19e)" d="M 495.874756 208.493672 
Q 408.727093 232.326592 322.657863 255.864584 
" style="fill:none;stroke:#000000;stroke-linecap:round;"/>
    <path clip-path="url(#p990317c19e)" d="M 327.043765 256.73858 
L 322.657863 255.864584 
L 325.988601 252.88026 
L 327.043765 256.73858 
z
" style="stroke:#000000;stroke-linecap:round;"/>
   </g>
   <g id="patch_76">
    <path clip-path="url(#p990317c19e)" d="M 397.175364 164.483097 
Q 358.087085 208.233243 319.743707 251.149648 
" style="fill:none;stroke:#000000;stroke-linecap:round;"/>
    <path clip-path="url(#p990317c19e)" d="M 323.900184 249.499284 
L 319.743707 251.149648 
L 320.917302 246.834248 
L 323.900184 249.499284 
z
" style="stroke:#000000;stroke-linecap:round;"/>
   </g>
   <g id="patch_77">
    <path clip-path="url(#p990317c19e)" d="M 343.050012 244.46897 
Q 305.986458 231.119805 269.974791 218.149497 
" style="fill:none;stroke:#000000;stroke-linecap:round;"/>
    <path clip-path="url(#p990317c19e)" d="M 273.060416 221.386613 
L 269.974791 218.149497 
L 274.415859 217.623267 
L 273.060416 221.386613 
z
" style="stroke:#000000;stroke-linecap:round;"/>
   </g>
   <g id="patch_78">
    <path clip-path="url(#p990317c19e)" d="M 353.305512 239.001862 
Q 356.964903 224.40707 360.352383 210.896742 
" style="fill:none;stroke:#000000;stroke-linecap:round;"/>
    <path clip-path="url(#p990317c19e)" d="M 357.439615 214.290234 
L 360.352383 210.896742 
L 361.319515 215.263052 
L 357.439615 214.290234 
z
" style="stroke:#000000;stroke-linecap:round;"/>
   </g>
   <g id="patch_79">
    <path clip-path="url(#p990317c19e)" d="M 343.811289 251.926128 
Q 296.004093 281.190716 249.15046 309.871592 
" style="fill:none;stroke:#000000;stroke-linecap:round;"/>
    <path clip-path="url(#p990317c19e)" d="M 253.606203 309.489027 
L 249.15046 309.871592 
L 251.517853 306.077459 
L 253.606203 309.489027 
z
" style="stroke:#000000;stroke-linecap:round;"/>
   </g>
   <g id="patch_80">
    <path clip-path="url(#p990317c19e)" d="M 354.146522 202.540561 
Q 311.753616 208.123051 270.469175 213.559574 
" style="fill:none;stroke:#000000;stroke-linecap:round;"/>
    <path clip-path="url(#p990317c19e)" d="M 274.696053 215.020226 
L 270.469175 213.559574 
L 274.173823 211.054463 
L 274.696053 215.020226 
z
" style="stroke:#000000;stroke-linecap:round;"/>
   </g>
   <g id="patch_81">
    <path clip-path="url(#p990317c19e)" d="M 242.506346 306.482398 
Q 250.794211 264.906229 258.863505 224.426522 
" style="fill:none;stroke:#000000;stroke-linecap:round;"/>
    <path clip-path="url(#p990317c19e)" d="M 256.120114 227.95835 
L 258.863505 224.426522 
L 260.042933 228.740332 
L 256.120114 227.95835 
z
" style="stroke:#000000;stroke-linecap:round;"/>
   </g>
   <g id="patch_82">
    <path clip-path="url(#p990317c19e)" d="M 378.151085 320.249569 
Q 436.007115 294.10999 492.844275 268.43074 
" style="fill:none;stroke:#000000;stroke-linecap:round;"/>
    <path clip-path="url(#p990317c19e)" d="M 488.375592 268.255054 
L 492.844275 268.43074 
L 490.022517 271.900275 
L 488.375592 268.255054 
z
" style="stroke:#000000;stroke-linecap:round;"/>
   </g>
   <g id="patch_83">
    <path clip-path="url(#p990317c19e)" d="M 365.701517 316.448002 
Q 338.748775 272.858064 312.384017 230.219059 
" style="fill:none;stroke:#000000;stroke-linecap:round;"/>
    <path clip-path="url(#p990317c19e)" d="M 312.786577 234.673039 
L 312.384017 230.219059 
L 316.188738 232.569399 
L 312.786577 234.673039 
z
" style="stroke:#000000;stroke-linecap:round;"/>
   </g>
   <g id="patch_84">
    <path clip-path="url(#p990317c19e)" d="M 372.894447 295.949448 
Q 433.120467 281.206007 492.260519 266.728413 
" style="fill:none;stroke:#000000;stroke-linecap:round;"/>
    <path clip-path="url(#p990317c19e)" d="M 487.899682 265.736898 
L 492.260519 266.728413 
L 488.850805 269.622173 
L 487.899682 265.736898 
z
" style="stroke:#000000;stroke-linecap:round;"/>
   </g>
   <g id="patch_85">
    <path clip-path="url(#p990317c19e)" d="M 359.282441 291.088757 
Q 335.864094 259.954887 313.117815 229.714507 
" style="fill:none;stroke:#000000;stroke-linecap:round;"/>
    <path clip-path="url(#p990317c19e)" d="M 313.923953 234.113386 
L 313.117815 229.714507 
L 317.120601 231.708924 
L 313.923953 234.113386 
z
" style="stroke:#000000;stroke-linecap:round;"/>
   </g>
   <g id="patch_86">
    <path clip-path="url(#p990317c19e)" d="M 479.217987 296.030814 
Q 537.380895 363.135659 594.811529 429.395652 
" style="fill:none;stroke:#000000;stroke-linecap:round;"/>
    <path clip-path="url(#p990317c19e)" d="M 593.702987 425.063085 
L 594.811529 429.395652 
L 590.68035 427.682946 
L 593.702987 425.063085 
z
" style="stroke:#000000;stroke-linecap:round;"/>
   </g>
   <g id="patch_87">
    <path clip-path="url(#p990317c19e)" d="M 467.026789 283.791147 
Q 386.588113 213.509906 306.991375 143.964289 
" style="fill:none;stroke:#000000;stroke-linecap:round;"/>
    <path clip-path="url(#p990317c19e)" d="M 308.687664 148.102235 
L 306.991375 143.964289 
L 311.319505 145.090025 
L 308.687664 148.102235 
z
" style="stroke:#000000;stroke-linecap:round;"/>
   </g>
   <g id="patch_88">
    <path clip-path="url(#p990317c19e)" d="M 557.642613 286.907658 
Q 525.674407 343.347983 494.257214 398.815485 
" style="fill:none;stroke:#000000;stroke-linecap:round;"/>
    <path clip-path="url(#p990317c19e)" d="M 497.968819 396.320692 
L 494.257214 398.815485 
L 494.488343 394.349325 
L 497.968819 396.320692 
z
" style="stroke:#000000;stroke-linecap:round;"/>
   </g>
   <g id="patch_89">
    <path clip-path="url(#p990317c19e)" d="M 613.895825 285.605611 
Q 554.762934 343.437204 496.429358 400.487072 
" style="fill:none;stroke:#000000;stroke-linecap:round;"/>
    <path clip-path="url(#p990317c19e)" d="M 500.687469 399.120145 
L 496.429358 400.487072 
L 497.890683 396.260427 
L 500.687469 399.120145 
z
" style="stroke:#000000;stroke-linecap:round;"/>
   </g>
   <g id="PathCollection_1">
    <defs>
     <path d="M 0 8.660254 
C 2.296726 8.660254 4.499694 7.747755 6.123724 6.123724 
C 7.747755 4.499694 8.660254 2.296726 8.660254 -0 
C 8.660254 -2.296726 7.747755 -4.499694 6.123724 -6.123724 
C 4.499694 -7.747755 2.296726 -8.660254 0 -8.660254 
C -2.296726 -8.660254 -4.499694 -7.747755 -6.123724 -6.123724 
C -7.747755 -4.499694 -8.660254 -2.296726 -8.660254 0 
C -8.660254 2.296726 -7.747755 4.499694 -6.123724 6.123724 
C -4.499694 7.747755 -2.296726 8.660254 0 8.660254 
z
" id="C0_0_8855dd5562"/>
    </defs>
    <g clip-path="url(#p990317c19e)">
     <use style="fill:#ff0000;stroke:#ff0000;" x="426.205643" xlink:href="#C0_0_8855dd5562" y="320.327898"/>
    </g>
    <g clip-path="url(#p990317c19e)">
     <use style="fill:#ff0000;stroke:#ff0000;" x="565.327628" xlink:href="#C0_0_8855dd5562" y="124.335328"/>
    </g>
    <g clip-path="url(#p990317c19e)">
     <use style="fill:#ff0000;stroke:#ff0000;" x="488.68866" xlink:href="#C0_0_8855dd5562" y="438.01926"/>
    </g>
    <g clip-path="url(#p990317c19e)">
     <use style="fill:#ff0000;stroke:#ff0000;" x="516.800395" xlink:href="#C0_0_8855dd5562" y="361.700916"/>
    </g>
    <g clip-path="url(#p990317c19e)">
     <use style="fill:#ff0000;stroke:#ff0000;" x="360.441546" xlink:href="#C0_0_8855dd5562" y="373.223445"/>
    </g>
    <g clip-path="url(#p990317c19e)">
     <use style="fill:#ff0000;stroke:#ff0000;" x="185.365995" xlink:href="#C0_0_8855dd5562" y="335.883296"/>
    </g>
    <g clip-path="url(#p990317c19e)">
     <use style="fill:#ff0000;stroke:#ff0000;" x="166.105785" xlink:href="#C0_0_8855dd5562" y="287.757069"/>
    </g>
    <g clip-path="url(#p990317c19e)">
     <use style="fill:#ff0000;stroke:#ff0000;" x="489.437112" xlink:href="#C0_0_8855dd5562" y="407.325443"/>
    </g>
    <g clip-path="url(#p990317c19e)">
     <use style="fill:#ff0000;stroke:#ff0000;" x="413.682688" xlink:href="#C0_0_8855dd5562" y="301.005929"/>
    </g>
    <g clip-path="url(#p990317c19e)">
     <use style="fill:#ff0000;stroke:#ff0000;" x="352.827145" xlink:href="#C0_0_8855dd5562" y="156.67427"/>
    </g>
    <g clip-path="url(#p990317c19e)">
     <use style="fill:#ff0000;stroke:#ff0000;" x="392.112816" xlink:href="#C0_0_8855dd5562" y="263.828202"/>
    </g>
    <g clip-path="url(#p990317c19e)">
     <use style="fill:#ff0000;stroke:#ff0000;" x="529.548386" xlink:href="#C0_0_8855dd5562" y="230.513771"/>
    </g>
    <g clip-path="url(#p990317c19e)">
     <use style="fill:#ff0000;stroke:#ff0000;" x="313.226833" xlink:href="#C0_0_8855dd5562" y="258.443758"/>
    </g>
    <g clip-path="url(#p990317c19e)">
     <use style="fill:#ff0000;stroke:#ff0000;" x="260.775274" xlink:href="#C0_0_8855dd5562" y="214.836111"/>
    </g>
    <g clip-path="url(#p990317c19e)">
     <use style="fill:#ff0000;stroke:#ff0000;" x="374.848635" xlink:href="#C0_0_8855dd5562" y="261.158303"/>
    </g>
    <g clip-path="url(#p990317c19e)">
     <use style="fill:#ff0000;stroke:#ff0000;" x="333.130623" xlink:href="#C0_0_8855dd5562" y="389.625248"/>
    </g>
    <g clip-path="url(#p990317c19e)">
     <use style="fill:#ff0000;stroke:#ff0000;" x="463.828421" xlink:href="#C0_0_8855dd5562" y="389.041727"/>
    </g>
    <g clip-path="url(#p990317c19e)">
     <use style="fill:#ff0000;stroke:#ff0000;" x="304.476422" xlink:href="#C0_0_8855dd5562" y="452.821398"/>
    </g>
    <g clip-path="url(#p990317c19e)">
     <use style="fill:#ff0000;stroke:#ff0000;" x="610.099506" xlink:href="#C0_0_8855dd5562" y="298.530242"/>
    </g>
    <g clip-path="url(#p990317c19e)">
     <use style="fill:#ff0000;stroke:#ff0000;" x="440.290789" xlink:href="#C0_0_8855dd5562" y="281.746237"/>
    </g>
    <g clip-path="url(#p990317c19e)">
     <use style="fill:#ff0000;stroke:#ff0000;" x="551.235307" xlink:href="#C0_0_8855dd5562" y="318.868452"/>
    </g>
    <g clip-path="url(#p990317c19e)">
     <use style="fill:#ff0000;stroke:#ff0000;" x="387.186793" xlink:href="#C0_0_8855dd5562" y="281.082904"/>
    </g>
    <g clip-path="url(#p990317c19e)">
     <use style="fill:#ff0000;stroke:#ff0000;" x="542.899821" xlink:href="#C0_0_8855dd5562" y="461.540206"/>
    </g>
    <g clip-path="url(#p990317c19e)">
     <use style="fill:#ff0000;stroke:#ff0000;" x="456.429019" xlink:href="#C0_0_8855dd5562" y="318.682198"/>
    </g>
    <g clip-path="url(#p990317c19e)">
     <use style="fill:#ff0000;stroke:#ff0000;" x="466.916133" xlink:href="#C0_0_8855dd5562" y="274.985601"/>
    </g>
    <g clip-path="url(#p990317c19e)">
     <use style="fill:#ff0000;stroke:#ff0000;" x="459.988896" xlink:href="#C0_0_8855dd5562" y="266.108523"/>
    </g>
    <g clip-path="url(#p990317c19e)">
     <use style="fill:#ff0000;stroke:#ff0000;" x="451.789711" xlink:href="#C0_0_8855dd5562" y="474.152727"/>
    </g>
    <g clip-path="url(#p990317c19e)">
     <use style="fill:#ff0000;stroke:#ff0000;" x="495.271989" xlink:href="#C0_0_8855dd5562" y="261.816469"/>
    </g>
    <g clip-path="url(#p990317c19e)">
     <use style="fill:#008000;stroke:#008000;" x="342.793578" xlink:href="#C0_0_8855dd5562" y="309.37862"/>
    </g>
    <g clip-path="url(#p990317c19e)">
     <use style="fill:#ff0000;stroke:#ff0000;" x="339.476215" xlink:href="#C0_0_8855dd5562" y="264.54417"/>
    </g>
    <g clip-path="url(#p990317c19e)">
     <use style="fill:#ff0000;stroke:#ff0000;" x="501.758348" xlink:href="#C0_0_8855dd5562" y="264.403327"/>
    </g>
    <g clip-path="url(#p990317c19e)">
     <use style="fill:#ff0000;stroke:#ff0000;" x="307.241317" xlink:href="#C0_0_8855dd5562" y="221.901909"/>
    </g>
    <g clip-path="url(#p990317c19e)">
     <use style="fill:#ff0000;stroke:#ff0000;" x="417.74303" xlink:href="#C0_0_8855dd5562" y="187.532791"/>
    </g>
    <g clip-path="url(#p990317c19e)">
     <use style="fill:#ff0000;stroke:#ff0000;" x="181.822323" xlink:href="#C0_0_8855dd5562" y="252.430178"/>
    </g>
    <g clip-path="url(#p990317c19e)">
     <use style="fill:#ff0000;stroke:#ff0000;" x="702.948789" xlink:href="#C0_0_8855dd5562" y="367.961899"/>
    </g>
    <g clip-path="url(#p990317c19e)">
     <use style="fill:#ff0000;stroke:#ff0000;" x="232.127419" xlink:href="#C0_0_8855dd5562" y="209.194476"/>
    </g>
    <g clip-path="url(#p990317c19e)">
     <use style="fill:#ff0000;stroke:#ff0000;" x="483.091321" xlink:href="#C0_0_8855dd5562" y="189.810789"/>
    </g>
    <g clip-path="url(#p990317c19e)">
     <use style="fill:#ff0000;stroke:#ff0000;" x="486.888197" xlink:href="#C0_0_8855dd5562" y="337.847399"/>
    </g>
    <g clip-path="url(#p990317c19e)">
     <use style="fill:#ff0000;stroke:#ff0000;" x="409.556462" xlink:href="#C0_0_8855dd5562" y="457.519002"/>
    </g>
    <g clip-path="url(#p990317c19e)">
     <use style="fill:#ff0000;stroke:#ff0000;" x="454.920798" xlink:href="#C0_0_8855dd5562" y="350.964786"/>
    </g>
    <g clip-path="url(#p990317c19e)">
     <use style="fill:#ff0000;stroke:#ff0000;" x="478.962537" xlink:href="#C0_0_8855dd5562" y="429.591661"/>
    </g>
    <g clip-path="url(#p990317c19e)">
     <use style="fill:#ff0000;stroke:#ff0000;" x="506.542571" xlink:href="#C0_0_8855dd5562" y="431.271265"/>
    </g>
    <g clip-path="url(#p990317c19e)">
     <use style="fill:#ff0000;stroke:#ff0000;" x="522.962958" xlink:href="#C0_0_8855dd5562" y="263.826549"/>
    </g>
    <g clip-path="url(#p990317c19e)">
     <use style="fill:#ff0000;stroke:#ff0000;" x="504.230588" xlink:href="#C0_0_8855dd5562" y="206.208541"/>
    </g>
    <g clip-path="url(#p990317c19e)">
     <use style="fill:#ff0000;stroke:#ff0000;" x="402.944242" xlink:href="#C0_0_8855dd5562" y="158.026193"/>
    </g>
    <g clip-path="url(#p990317c19e)">
     <use style="fill:#ff0000;stroke:#ff0000;" x="351.198839" xlink:href="#C0_0_8855dd5562" y="247.40393"/>
    </g>
    <g clip-path="url(#p990317c19e)">
     <use style="fill:#ff0000;stroke:#ff0000;" x="362.730989" xlink:href="#C0_0_8855dd5562" y="201.410119"/>
    </g>
    <g clip-path="url(#p990317c19e)">
     <use style="fill:#ff0000;stroke:#ff0000;" x="240.813413" xlink:href="#C0_0_8855dd5562" y="314.975013"/>
    </g>
    <g clip-path="url(#p990317c19e)">
     <use style="fill:#ff0000;stroke:#ff0000;" x="370.257332" xlink:href="#C0_0_8855dd5562" y="323.815998"/>
    </g>
    <g clip-path="url(#p990317c19e)">
     <use style="fill:#ff0000;stroke:#ff0000;" x="364.486728" xlink:href="#C0_0_8855dd5562" y="298.007674"/>
    </g>
    <g clip-path="url(#p990317c19e)">
     <use style="fill:#ff0000;stroke:#ff0000;" x="473.547153" xlink:href="#C0_0_8855dd5562" y="289.488148"/>
    </g>
    <g clip-path="url(#p990317c19e)">
     <use style="fill:#ff0000;stroke:#ff0000;" x="601.215916" xlink:href="#C0_0_8855dd5562" y="436.784647"/>
    </g>
    <g clip-path="url(#p990317c19e)">
     <use style="fill:#ff0000;stroke:#ff0000;" x="299.628313" xlink:href="#C0_0_8855dd5562" y="137.531002"/>
    </g>
    <g clip-path="url(#p990317c19e)">
     <use style="fill:#ff0000;stroke:#ff0000;" x="561.908913" xlink:href="#C0_0_8855dd5562" y="279.375446"/>
    </g>
    <g clip-path="url(#p990317c19e)">
     <use style="fill:#008000;stroke:#008000;" x="620.085768" xlink:href="#C0_0_8855dd5562" y="279.551886"/>
    </g>
    <g clip-path="url(#p990317c19e)">
     <use style="fill:#ff0000;stroke:#ff0000;" x="488.841827" xlink:href="#C0_0_8855dd5562" y="462.936177"/>
    </g>
    <g clip-path="url(#p990317c19e)">
     <use style="fill:#ff0000;stroke:#ff0000;" x="248.959822" xlink:href="#C0_0_8855dd5562" y="421.53204"/>
    </g>
    <g clip-path="url(#p990317c19e)">
     <use style="fill:#ff0000;stroke:#ff0000;" x="719.494215" xlink:href="#C0_0_8855dd5562" y="306.012341"/>
    </g>
    <g clip-path="url(#p990317c19e)">
     <use style="fill:#ff0000;stroke:#ff0000;" x="352.868478" xlink:href="#C0_0_8855dd5562" y="120.399663"/>
    </g>
    <g clip-path="url(#p990317c19e)">
     <use style="fill:#ff0000;stroke:#ff0000;" x="203.899554" xlink:href="#C0_0_8855dd5562" y="375.621375"/>
    </g>
    <g clip-path="url(#p990317c19e)">
     <use style="fill:#ff0000;stroke:#ff0000;" x="250.030001" xlink:href="#C0_0_8855dd5562" y="147.344708"/>
    </g>
    <g clip-path="url(#p990317c19e)">
     <use style="fill:#ff0000;stroke:#ff0000;" x="420.756063" xlink:href="#C0_0_8855dd5562" y="107.607273"/>
    </g>
   </g>
   <g id="text_1">
    <g clip-path="url(#p990317c19e)">
     <!-- CYLD -->
     <g transform="translate(410.493143 323.639148)scale(0.12 -0.12)">
      <defs>
       <path d="M 64.40625 67.28125 
L 64.40625 56.890625 
Q 59.421875 61.53125 53.78125 63.8125 
Q 48.140625 66.109375 41.796875 66.109375 
Q 29.296875 66.109375 22.65625 58.46875 
Q 16.015625 50.828125 16.015625 36.375 
Q 16.015625 21.96875 22.65625 14.328125 
Q 29.296875 6.6875 41.796875 6.6875 
Q 48.140625 6.6875 53.78125 8.984375 
Q 59.421875 11.28125 64.40625 15.921875 
L 64.40625 5.609375 
Q 59.234375 2.09375 53.4375 0.328125 
Q 47.65625 -1.421875 41.21875 -1.421875 
Q 24.65625 -1.421875 15.125 8.703125 
Q 5.609375 18.84375 5.609375 36.375 
Q 5.609375 53.953125 15.125 64.078125 
Q 24.65625 74.21875 41.21875 74.21875 
Q 47.75 74.21875 53.53125 72.484375 
Q 59.328125 70.75 64.40625 67.28125 
z
" id="DejaVuSans-67"/>
       <path d="M -0.203125 72.90625 
L 10.40625 72.90625 
L 30.609375 42.921875 
L 50.6875 72.90625 
L 61.28125 72.90625 
L 35.5 34.71875 
L 35.5 0 
L 25.59375 0 
L 25.59375 34.71875 
z
" id="DejaVuSans-89"/>
       <path d="M 9.8125 72.90625 
L 19.671875 72.90625 
L 19.671875 8.296875 
L 55.171875 8.296875 
L 55.171875 0 
L 9.8125 0 
z
" id="DejaVuSans-76"/>
       <path d="M 19.671875 64.796875 
L 19.671875 8.109375 
L 31.59375 8.109375 
Q 46.6875 8.109375 53.6875 14.9375 
Q 60.6875 21.78125 60.6875 36.53125 
Q 60.6875 51.171875 53.6875 57.984375 
Q 46.6875 64.796875 31.59375 64.796875 
z
M 9.8125 72.90625 
L 30.078125 72.90625 
Q 51.265625 72.90625 61.171875 64.09375 
Q 71.09375 55.28125 71.09375 36.53125 
Q 71.09375 17.671875 61.125 8.828125 
Q 51.171875 0 30.078125 0 
L 9.8125 0 
z
" id="DejaVuSans-68"/>
      </defs>
      <use xlink:href="#DejaVuSans-67"/>
      <use x="68.074219" xlink:href="#DejaVuSans-89"/>
      <use x="129.158203" xlink:href="#DejaVuSans-76"/>
      <use x="184.871094" xlink:href="#DejaVuSans-68"/>
     </g>
    </g>
   </g>
   <g id="text_2">
    <g clip-path="url(#p990317c19e)">
     <!-- MAP3K14 -->
     <g transform="translate(537.041378 127.646578)scale(0.12 -0.12)">
      <defs>
       <path d="M 9.8125 72.90625 
L 24.515625 72.90625 
L 43.109375 23.296875 
L 61.8125 72.90625 
L 76.515625 72.90625 
L 76.515625 0 
L 66.890625 0 
L 66.890625 64.015625 
L 48.09375 14.015625 
L 38.1875 14.015625 
L 19.390625 64.015625 
L 19.390625 0 
L 9.8125 0 
z
" id="DejaVuSans-77"/>
       <path d="M 34.1875 63.1875 
L 20.796875 26.90625 
L 47.609375 26.90625 
z
M 28.609375 72.90625 
L 39.796875 72.90625 
L 67.578125 0 
L 57.328125 0 
L 50.6875 18.703125 
L 17.828125 18.703125 
L 11.1875 0 
L 0.78125 0 
z
" id="DejaVuSans-65"/>
       <path d="M 19.671875 64.796875 
L 19.671875 37.40625 
L 32.078125 37.40625 
Q 38.96875 37.40625 42.71875 40.96875 
Q 46.484375 44.53125 46.484375 51.125 
Q 46.484375 57.671875 42.71875 61.234375 
Q 38.96875 64.796875 32.078125 64.796875 
z
M 9.8125 72.90625 
L 32.078125 72.90625 
Q 44.34375 72.90625 50.609375 67.359375 
Q 56.890625 61.8125 56.890625 51.125 
Q 56.890625 40.328125 50.609375 34.8125 
Q 44.34375 29.296875 32.078125 29.296875 
L 19.671875 29.296875 
L 19.671875 0 
L 9.8125 0 
z
" id="DejaVuSans-80"/>
       <path d="M 40.578125 39.3125 
Q 47.65625 37.796875 51.625 33 
Q 55.609375 28.21875 55.609375 21.1875 
Q 55.609375 10.40625 48.1875 4.484375 
Q 40.765625 -1.421875 27.09375 -1.421875 
Q 22.515625 -1.421875 17.65625 -0.515625 
Q 12.796875 0.390625 7.625 2.203125 
L 7.625 11.71875 
Q 11.71875 9.328125 16.59375 8.109375 
Q 21.484375 6.890625 26.8125 6.890625 
Q 36.078125 6.890625 40.9375 10.546875 
Q 45.796875 14.203125 45.796875 21.1875 
Q 45.796875 27.640625 41.28125 31.265625 
Q 36.765625 34.90625 28.71875 34.90625 
L 20.21875 34.90625 
L 20.21875 43.015625 
L 29.109375 43.015625 
Q 36.375 43.015625 40.234375 45.921875 
Q 44.09375 48.828125 44.09375 54.296875 
Q 44.09375 59.90625 40.109375 62.90625 
Q 36.140625 65.921875 28.71875 65.921875 
Q 24.65625 65.921875 20.015625 65.03125 
Q 15.375 64.15625 9.8125 62.3125 
L 9.8125 71.09375 
Q 15.4375 72.65625 20.34375 73.4375 
Q 25.25 74.21875 29.59375 74.21875 
Q 40.828125 74.21875 47.359375 69.109375 
Q 53.90625 64.015625 53.90625 55.328125 
Q 53.90625 49.265625 50.4375 45.09375 
Q 46.96875 40.921875 40.578125 39.3125 
z
" id="DejaVuSans-51"/>
       <path d="M 9.8125 72.90625 
L 19.671875 72.90625 
L 19.671875 42.09375 
L 52.390625 72.90625 
L 65.09375 72.90625 
L 28.90625 38.921875 
L 67.671875 0 
L 54.6875 0 
L 19.671875 35.109375 
L 19.671875 0 
L 9.8125 0 
z
" id="DejaVuSans-75"/>
       <path d="M 12.40625 8.296875 
L 28.515625 8.296875 
L 28.515625 63.921875 
L 10.984375 60.40625 
L 10.984375 69.390625 
L 28.421875 72.90625 
L 38.28125 72.90625 
L 38.28125 8.296875 
L 54.390625 8.296875 
L 54.390625 0 
L 12.40625 0 
z
" id="DejaVuSans-49"/>
       <path d="M 37.796875 64.3125 
L 12.890625 25.390625 
L 37.796875 25.390625 
z
M 35.203125 72.90625 
L 47.609375 72.90625 
L 47.609375 25.390625 
L 58.015625 25.390625 
L 58.015625 17.1875 
L 47.609375 17.1875 
L 47.609375 0 
L 37.796875 0 
L 37.796875 17.1875 
L 4.890625 17.1875 
L 4.890625 26.703125 
z
" id="DejaVuSans-52"/>
      </defs>
      <use xlink:href="#DejaVuSans-77"/>
      <use x="86.279297" xlink:href="#DejaVuSans-65"/>
      <use x="154.6875" xlink:href="#DejaVuSans-80"/>
      <use x="214.990234" xlink:href="#DejaVuSans-51"/>
      <use x="278.613281" xlink:href="#DejaVuSans-75"/>
      <use x="344.189453" xlink:href="#DejaVuSans-49"/>
      <use x="407.8125" xlink:href="#DejaVuSans-52"/>
     </g>
    </g>
   </g>
   <g id="text_3">
    <g clip-path="url(#p990317c19e)">
     <!-- IKBKB -->
     <g transform="translate(470.81616 441.33051)scale(0.12 -0.12)">
      <defs>
       <path d="M 9.8125 72.90625 
L 19.671875 72.90625 
L 19.671875 0 
L 9.8125 0 
z
" id="DejaVuSans-73"/>
       <path d="M 19.671875 34.8125 
L 19.671875 8.109375 
L 35.5 8.109375 
Q 43.453125 8.109375 47.28125 11.40625 
Q 51.125 14.703125 51.125 21.484375 
Q 51.125 28.328125 47.28125 31.5625 
Q 43.453125 34.8125 35.5 34.8125 
z
M 19.671875 64.796875 
L 19.671875 42.828125 
L 34.28125 42.828125 
Q 41.5 42.828125 45.03125 45.53125 
Q 48.578125 48.25 48.578125 53.8125 
Q 48.578125 59.328125 45.03125 62.0625 
Q 41.5 64.796875 34.28125 64.796875 
z
M 9.8125 72.90625 
L 35.015625 72.90625 
Q 46.296875 72.90625 52.390625 68.21875 
Q 58.5 63.53125 58.5 54.890625 
Q 58.5 48.1875 55.375 44.234375 
Q 52.25 40.28125 46.1875 39.3125 
Q 53.46875 37.75 57.5 32.78125 
Q 61.53125 27.828125 61.53125 20.40625 
Q 61.53125 10.640625 54.890625 5.3125 
Q 48.25 0 35.984375 0 
L 9.8125 0 
z
" id="DejaVuSans-66"/>
      </defs>
      <use xlink:href="#DejaVuSans-73"/>
      <use x="29.492188" xlink:href="#DejaVuSans-75"/>
      <use x="95.068359" xlink:href="#DejaVuSans-66"/>
      <use x="163.671875" xlink:href="#DejaVuSans-75"/>
      <use x="229.248047" xlink:href="#DejaVuSans-66"/>
     </g>
    </g>
   </g>
   <g id="text_4">
    <g clip-path="url(#p990317c19e)">
     <!-- NFKBIA -->
     <g transform="translate(494.935083 365.012166)scale(0.12 -0.12)">
      <defs>
       <path d="M 9.8125 72.90625 
L 23.09375 72.90625 
L 55.421875 11.921875 
L 55.421875 72.90625 
L 64.984375 72.90625 
L 64.984375 0 
L 51.703125 0 
L 19.390625 60.984375 
L 19.390625 0 
L 9.8125 0 
z
" id="DejaVuSans-78"/>
       <path d="M 9.8125 72.90625 
L 51.703125 72.90625 
L 51.703125 64.59375 
L 19.671875 64.59375 
L 19.671875 43.109375 
L 48.578125 43.109375 
L 48.578125 34.8125 
L 19.671875 34.8125 
L 19.671875 0 
L 9.8125 0 
z
" id="DejaVuSans-70"/>
      </defs>
      <use xlink:href="#DejaVuSans-78"/>
      <use x="74.804688" xlink:href="#DejaVuSans-70"/>
      <use x="132.324219" xlink:href="#DejaVuSans-75"/>
      <use x="197.900391" xlink:href="#DejaVuSans-66"/>
      <use x="266.503906" xlink:href="#DejaVuSans-73"/>
      <use x="295.996094" xlink:href="#DejaVuSans-65"/>
     </g>
    </g>
   </g>
   <g id="text_5">
    <g clip-path="url(#p990317c19e)">
     <!-- MAP3K7 -->
     <g transform="translate(335.972796 376.534695)scale(0.12 -0.12)">
      <defs>
       <path d="M 8.203125 72.90625 
L 55.078125 72.90625 
L 55.078125 68.703125 
L 28.609375 0 
L 18.3125 0 
L 43.21875 64.59375 
L 8.203125 64.59375 
z
" id="DejaVuSans-55"/>
      </defs>
      <use xlink:href="#DejaVuSans-77"/>
      <use x="86.279297" xlink:href="#DejaVuSans-65"/>
      <use x="154.6875" xlink:href="#DejaVuSans-80"/>
      <use x="214.990234" xlink:href="#DejaVuSans-51"/>
      <use x="278.613281" xlink:href="#DejaVuSans-75"/>
      <use x="344.189453" xlink:href="#DejaVuSans-55"/>
     </g>
    </g>
   </g>
   <g id="text_6">
    <g clip-path="url(#p990317c19e)">
     <!-- MAP2K6 -->
     <g transform="translate(160.897245 339.194546)scale(0.12 -0.12)">
      <defs>
       <path d="M 19.1875 8.296875 
L 53.609375 8.296875 
L 53.609375 0 
L 7.328125 0 
L 7.328125 8.296875 
Q 12.9375 14.109375 22.625 23.890625 
Q 32.328125 33.6875 34.8125 36.53125 
Q 39.546875 41.84375 41.421875 45.53125 
Q 43.3125 49.21875 43.3125 52.78125 
Q 43.3125 58.59375 39.234375 62.25 
Q 35.15625 65.921875 28.609375 65.921875 
Q 23.96875 65.921875 18.8125 64.3125 
Q 13.671875 62.703125 7.8125 59.421875 
L 7.8125 69.390625 
Q 13.765625 71.78125 18.9375 73 
Q 24.125 74.21875 28.421875 74.21875 
Q 39.75 74.21875 46.484375 68.546875 
Q 53.21875 62.890625 53.21875 53.421875 
Q 53.21875 48.921875 51.53125 44.890625 
Q 49.859375 40.875 45.40625 35.40625 
Q 44.1875 33.984375 37.640625 27.21875 
Q 31.109375 20.453125 19.1875 8.296875 
z
" id="DejaVuSans-50"/>
       <path d="M 33.015625 40.375 
Q 26.375 40.375 22.484375 35.828125 
Q 18.609375 31.296875 18.609375 23.390625 
Q 18.609375 15.53125 22.484375 10.953125 
Q 26.375 6.390625 33.015625 6.390625 
Q 39.65625 6.390625 43.53125 10.953125 
Q 47.40625 15.53125 47.40625 23.390625 
Q 47.40625 31.296875 43.53125 35.828125 
Q 39.65625 40.375 33.015625 40.375 
z
M 52.59375 71.296875 
L 52.59375 62.3125 
Q 48.875 64.0625 45.09375 64.984375 
Q 41.3125 65.921875 37.59375 65.921875 
Q 27.828125 65.921875 22.671875 59.328125 
Q 17.53125 52.734375 16.796875 39.40625 
Q 19.671875 43.65625 24.015625 45.921875 
Q 28.375 48.1875 33.59375 48.1875 
Q 44.578125 48.1875 50.953125 41.515625 
Q 57.328125 34.859375 57.328125 23.390625 
Q 57.328125 12.15625 50.6875 5.359375 
Q 44.046875 -1.421875 33.015625 -1.421875 
Q 20.359375 -1.421875 13.671875 8.265625 
Q 6.984375 17.96875 6.984375 36.375 
Q 6.984375 53.65625 15.1875 63.9375 
Q 23.390625 74.21875 37.203125 74.21875 
Q 40.921875 74.21875 44.703125 73.484375 
Q 48.484375 72.75 52.59375 71.296875 
z
" id="DejaVuSans-54"/>
      </defs>
      <use xlink:href="#DejaVuSans-77"/>
      <use x="86.279297" xlink:href="#DejaVuSans-65"/>
      <use x="154.6875" xlink:href="#DejaVuSans-80"/>
      <use x="214.990234" xlink:href="#DejaVuSans-50"/>
      <use x="278.613281" xlink:href="#DejaVuSans-75"/>
      <use x="344.189453" xlink:href="#DejaVuSans-54"/>
     </g>
    </g>
   </g>
   <g id="text_7">
    <g clip-path="url(#p990317c19e)">
     <!-- MAP2K1 -->
     <g transform="translate(141.637035 291.068319)scale(0.12 -0.12)">
      <use xlink:href="#DejaVuSans-77"/>
      <use x="86.279297" xlink:href="#DejaVuSans-65"/>
      <use x="154.6875" xlink:href="#DejaVuSans-80"/>
      <use x="214.990234" xlink:href="#DejaVuSans-50"/>
      <use x="278.613281" xlink:href="#DejaVuSans-75"/>
      <use x="344.189453" xlink:href="#DejaVuSans-49"/>
     </g>
    </g>
   </g>
   <g id="text_8">
    <g clip-path="url(#p990317c19e)">
     <!-- NFATC1 -->
     <g transform="translate(467.086175 410.636693)scale(0.12 -0.12)">
      <defs>
       <path d="M -0.296875 72.90625 
L 61.375 72.90625 
L 61.375 64.59375 
L 35.5 64.59375 
L 35.5 0 
L 25.59375 0 
L 25.59375 64.59375 
L -0.296875 64.59375 
z
" id="DejaVuSans-84"/>
      </defs>
      <use xlink:href="#DejaVuSans-78"/>
      <use x="74.804688" xlink:href="#DejaVuSans-70"/>
      <use x="123.199219" xlink:href="#DejaVuSans-65"/>
      <use x="183.857422" xlink:href="#DejaVuSans-84"/>
      <use x="239.066406" xlink:href="#DejaVuSans-67"/>
      <use x="308.890625" xlink:href="#DejaVuSans-49"/>
     </g>
    </g>
   </g>
   <g id="text_9">
    <g clip-path="url(#p990317c19e)">
     <!-- IRF9 -->
     <g transform="translate(400.475188 304.317179)scale(0.12 -0.12)">
      <defs>
       <path d="M 44.390625 34.1875 
Q 47.5625 33.109375 50.5625 29.59375 
Q 53.5625 26.078125 56.59375 19.921875 
L 66.609375 0 
L 56 0 
L 46.6875 18.703125 
Q 43.0625 26.03125 39.671875 28.421875 
Q 36.28125 30.8125 30.421875 30.8125 
L 19.671875 30.8125 
L 19.671875 0 
L 9.8125 0 
L 9.8125 72.90625 
L 32.078125 72.90625 
Q 44.578125 72.90625 50.734375 67.671875 
Q 56.890625 62.453125 56.890625 51.90625 
Q 56.890625 45.015625 53.6875 40.46875 
Q 50.484375 35.9375 44.390625 34.1875 
z
M 19.671875 64.796875 
L 19.671875 38.921875 
L 32.078125 38.921875 
Q 39.203125 38.921875 42.84375 42.21875 
Q 46.484375 45.515625 46.484375 51.90625 
Q 46.484375 58.296875 42.84375 61.546875 
Q 39.203125 64.796875 32.078125 64.796875 
z
" id="DejaVuSans-82"/>
       <path d="M 10.984375 1.515625 
L 10.984375 10.5 
Q 14.703125 8.734375 18.5 7.8125 
Q 22.3125 6.890625 25.984375 6.890625 
Q 35.75 6.890625 40.890625 13.453125 
Q 46.046875 20.015625 46.78125 33.40625 
Q 43.953125 29.203125 39.59375 26.953125 
Q 35.25 24.703125 29.984375 24.703125 
Q 19.046875 24.703125 12.671875 31.3125 
Q 6.296875 37.9375 6.296875 49.421875 
Q 6.296875 60.640625 12.9375 67.421875 
Q 19.578125 74.21875 30.609375 74.21875 
Q 43.265625 74.21875 49.921875 64.515625 
Q 56.59375 54.828125 56.59375 36.375 
Q 56.59375 19.140625 48.40625 8.859375 
Q 40.234375 -1.421875 26.421875 -1.421875 
Q 22.703125 -1.421875 18.890625 -0.6875 
Q 15.09375 0.046875 10.984375 1.515625 
z
M 30.609375 32.421875 
Q 37.25 32.421875 41.125 36.953125 
Q 45.015625 41.5 45.015625 49.421875 
Q 45.015625 57.28125 41.125 61.84375 
Q 37.25 66.40625 30.609375 66.40625 
Q 23.96875 66.40625 20.09375 61.84375 
Q 16.21875 57.28125 16.21875 49.421875 
Q 16.21875 41.5 20.09375 36.953125 
Q 23.96875 32.421875 30.609375 32.421875 
z
" id="DejaVuSans-57"/>
      </defs>
      <use xlink:href="#DejaVuSans-73"/>
      <use x="29.492188" xlink:href="#DejaVuSans-82"/>
      <use x="98.974609" xlink:href="#DejaVuSans-70"/>
      <use x="156.494141" xlink:href="#DejaVuSans-57"/>
     </g>
    </g>
   </g>
   <g id="text_10">
    <g clip-path="url(#p990317c19e)">
     <!-- IFNG -->
     <g transform="translate(338.468395 159.98552)scale(0.12 -0.12)">
      <defs>
       <path d="M 59.515625 10.40625 
L 59.515625 29.984375 
L 43.40625 29.984375 
L 43.40625 38.09375 
L 69.28125 38.09375 
L 69.28125 6.78125 
Q 63.578125 2.734375 56.6875 0.65625 
Q 49.8125 -1.421875 42 -1.421875 
Q 24.90625 -1.421875 15.25 8.5625 
Q 5.609375 18.5625 5.609375 36.375 
Q 5.609375 54.25 15.25 64.234375 
Q 24.90625 74.21875 42 74.21875 
Q 49.125 74.21875 55.546875 72.453125 
Q 61.96875 70.703125 67.390625 67.28125 
L 67.390625 56.78125 
Q 61.921875 61.421875 55.765625 63.765625 
Q 49.609375 66.109375 42.828125 66.109375 
Q 29.4375 66.109375 22.71875 58.640625 
Q 16.015625 51.171875 16.015625 36.375 
Q 16.015625 21.625 22.71875 14.15625 
Q 29.4375 6.6875 42.828125 6.6875 
Q 48.046875 6.6875 52.140625 7.59375 
Q 56.25 8.5 59.515625 10.40625 
z
" id="DejaVuSans-71"/>
      </defs>
      <use xlink:href="#DejaVuSans-73"/>
      <use x="29.492188" xlink:href="#DejaVuSans-70"/>
      <use x="87.011719" xlink:href="#DejaVuSans-78"/>
      <use x="161.816406" xlink:href="#DejaVuSans-71"/>
     </g>
    </g>
   </g>
   <g id="text_11">
    <g clip-path="url(#p990317c19e)">
     <!-- STAT1 -->
     <g transform="translate(373.982504 267.139452)scale(0.12 -0.12)">
      <defs>
       <path d="M 53.515625 70.515625 
L 53.515625 60.890625 
Q 47.90625 63.578125 42.921875 64.890625 
Q 37.9375 66.21875 33.296875 66.21875 
Q 25.25 66.21875 20.875 63.09375 
Q 16.5 59.96875 16.5 54.203125 
Q 16.5 49.359375 19.40625 46.890625 
Q 22.3125 44.4375 30.421875 42.921875 
L 36.375 41.703125 
Q 47.40625 39.59375 52.65625 34.296875 
Q 57.90625 29 57.90625 20.125 
Q 57.90625 9.515625 50.796875 4.046875 
Q 43.703125 -1.421875 29.984375 -1.421875 
Q 24.8125 -1.421875 18.96875 -0.25 
Q 13.140625 0.921875 6.890625 3.21875 
L 6.890625 13.375 
Q 12.890625 10.015625 18.65625 8.296875 
Q 24.421875 6.59375 29.984375 6.59375 
Q 38.421875 6.59375 43.015625 9.90625 
Q 47.609375 13.234375 47.609375 19.390625 
Q 47.609375 24.75 44.3125 27.78125 
Q 41.015625 30.8125 33.5 32.328125 
L 27.484375 33.5 
Q 16.453125 35.6875 11.515625 40.375 
Q 6.59375 45.0625 6.59375 53.421875 
Q 6.59375 63.09375 13.40625 68.65625 
Q 20.21875 74.21875 32.171875 74.21875 
Q 37.3125 74.21875 42.625 73.28125 
Q 47.953125 72.359375 53.515625 70.515625 
z
" id="DejaVuSans-83"/>
      </defs>
      <use xlink:href="#DejaVuSans-83"/>
      <use x="63.476562" xlink:href="#DejaVuSans-84"/>
      <use x="116.810547" xlink:href="#DejaVuSans-65"/>
      <use x="177.46875" xlink:href="#DejaVuSans-84"/>
      <use x="238.552734" xlink:href="#DejaVuSans-49"/>
     </g>
    </g>
   </g>
   <g id="text_12">
    <g clip-path="url(#p990317c19e)">
     <!-- TYROBP -->
     <g transform="translate(505.592449 233.825021)scale(0.12 -0.12)">
      <defs>
       <path d="M 39.40625 66.21875 
Q 28.65625 66.21875 22.328125 58.203125 
Q 16.015625 50.203125 16.015625 36.375 
Q 16.015625 22.609375 22.328125 14.59375 
Q 28.65625 6.59375 39.40625 6.59375 
Q 50.140625 6.59375 56.421875 14.59375 
Q 62.703125 22.609375 62.703125 36.375 
Q 62.703125 50.203125 56.421875 58.203125 
Q 50.140625 66.21875 39.40625 66.21875 
z
M 39.40625 74.21875 
Q 54.734375 74.21875 63.90625 63.9375 
Q 73.09375 53.65625 73.09375 36.375 
Q 73.09375 19.140625 63.90625 8.859375 
Q 54.734375 -1.421875 39.40625 -1.421875 
Q 24.03125 -1.421875 14.8125 8.828125 
Q 5.609375 19.09375 5.609375 36.375 
Q 5.609375 53.65625 14.8125 63.9375 
Q 24.03125 74.21875 39.40625 74.21875 
z
" id="DejaVuSans-79"/>
      </defs>
      <use xlink:href="#DejaVuSans-84"/>
      <use x="61.083984" xlink:href="#DejaVuSans-89"/>
      <use x="122.167969" xlink:href="#DejaVuSans-82"/>
      <use x="191.650391" xlink:href="#DejaVuSans-79"/>
      <use x="270.361328" xlink:href="#DejaVuSans-66"/>
      <use x="338.964844" xlink:href="#DejaVuSans-80"/>
     </g>
    </g>
   </g>
   <g id="text_13">
    <g clip-path="url(#p990317c19e)">
     <!-- SYK -->
     <g transform="translate(301.818395 261.755008)scale(0.12 -0.12)">
      <use xlink:href="#DejaVuSans-83"/>
      <use x="63.476562" xlink:href="#DejaVuSans-89"/>
      <use x="124.560547" xlink:href="#DejaVuSans-75"/>
     </g>
    </g>
   </g>
   <g id="text_14">
    <g clip-path="url(#p990317c19e)">
     <!-- PLCG2 -->
     <g transform="translate(241.158087 218.147361)scale(0.12 -0.12)">
      <use xlink:href="#DejaVuSans-80"/>
      <use x="60.302734" xlink:href="#DejaVuSans-76"/>
      <use x="116.015625" xlink:href="#DejaVuSans-67"/>
      <use x="185.839844" xlink:href="#DejaVuSans-71"/>
      <use x="263.330078" xlink:href="#DejaVuSans-50"/>
     </g>
    </g>
   </g>
   <g id="text_15">
    <g clip-path="url(#p990317c19e)">
     <!-- CAMK4 -->
     <g transform="translate(353.62551 264.469553)scale(0.12 -0.12)">
      <use xlink:href="#DejaVuSans-67"/>
      <use x="69.824219" xlink:href="#DejaVuSans-65"/>
      <use x="138.232422" xlink:href="#DejaVuSans-77"/>
      <use x="224.511719" xlink:href="#DejaVuSans-75"/>
      <use x="290.087891" xlink:href="#DejaVuSans-52"/>
     </g>
    </g>
   </g>
   <g id="text_16">
    <g clip-path="url(#p990317c19e)">
     <!-- CREB1 -->
     <g transform="translate(313.04656 392.936498)scale(0.12 -0.12)">
      <defs>
       <path d="M 9.8125 72.90625 
L 55.90625 72.90625 
L 55.90625 64.59375 
L 19.671875 64.59375 
L 19.671875 43.015625 
L 54.390625 43.015625 
L 54.390625 34.71875 
L 19.671875 34.71875 
L 19.671875 8.296875 
L 56.78125 8.296875 
L 56.78125 0 
L 9.8125 0 
z
" id="DejaVuSans-69"/>
      </defs>
      <use xlink:href="#DejaVuSans-67"/>
      <use x="69.824219" xlink:href="#DejaVuSans-82"/>
      <use x="139.306641" xlink:href="#DejaVuSans-69"/>
      <use x="202.490234" xlink:href="#DejaVuSans-66"/>
      <use x="271.09375" xlink:href="#DejaVuSans-49"/>
     </g>
    </g>
   </g>
   <g id="text_17">
    <g clip-path="url(#p990317c19e)">
     <!-- FOS -->
     <g transform="translate(451.845296 392.352977)scale(0.12 -0.12)">
      <use xlink:href="#DejaVuSans-70"/>
      <use x="57.519531" xlink:href="#DejaVuSans-79"/>
      <use x="136.230469" xlink:href="#DejaVuSans-83"/>
     </g>
    </g>
   </g>
   <g id="text_18">
    <g clip-path="url(#p990317c19e)">
     <!-- ACP5 -->
     <g transform="translate(288.852047 456.132648)scale(0.12 -0.12)">
      <defs>
       <path d="M 10.796875 72.90625 
L 49.515625 72.90625 
L 49.515625 64.59375 
L 19.828125 64.59375 
L 19.828125 46.734375 
Q 21.96875 47.46875 24.109375 47.828125 
Q 26.265625 48.1875 28.421875 48.1875 
Q 40.625 48.1875 47.75 41.5 
Q 54.890625 34.8125 54.890625 23.390625 
Q 54.890625 11.625 47.5625 5.09375 
Q 40.234375 -1.421875 26.90625 -1.421875 
Q 22.3125 -1.421875 17.546875 -0.640625 
Q 12.796875 0.140625 7.71875 1.703125 
L 7.71875 11.625 
Q 12.109375 9.234375 16.796875 8.0625 
Q 21.484375 6.890625 26.703125 6.890625 
Q 35.15625 6.890625 40.078125 11.328125 
Q 45.015625 15.765625 45.015625 23.390625 
Q 45.015625 31 40.078125 35.4375 
Q 35.15625 39.890625 26.703125 39.890625 
Q 22.75 39.890625 18.8125 39.015625 
Q 14.890625 38.140625 10.796875 36.28125 
z
" id="DejaVuSans-53"/>
      </defs>
      <use xlink:href="#DejaVuSans-65"/>
      <use x="66.658203" xlink:href="#DejaVuSans-67"/>
      <use x="136.482422" xlink:href="#DejaVuSans-80"/>
      <use x="196.785156" xlink:href="#DejaVuSans-53"/>
     </g>
    </g>
   </g>
   <g id="text_19">
    <g clip-path="url(#p990317c19e)">
     <!-- TNF -->
     <g transform="translate(598.495131 301.841492)scale(0.12 -0.12)">
      <use xlink:href="#DejaVuSans-84"/>
      <use x="61.083984" xlink:href="#DejaVuSans-78"/>
      <use x="135.888672" xlink:href="#DejaVuSans-70"/>
     </g>
    </g>
   </g>
   <g id="text_20">
    <g clip-path="url(#p990317c19e)">
     <!-- TNFRSF1A -->
     <g transform="translate(409.335477 285.057487)scale(0.12 -0.12)">
      <use xlink:href="#DejaVuSans-84"/>
      <use x="61.083984" xlink:href="#DejaVuSans-78"/>
      <use x="135.888672" xlink:href="#DejaVuSans-70"/>
      <use x="193.408203" xlink:href="#DejaVuSans-82"/>
      <use x="262.890625" xlink:href="#DejaVuSans-83"/>
      <use x="326.367188" xlink:href="#DejaVuSans-70"/>
      <use x="383.886719" xlink:href="#DejaVuSans-49"/>
      <use x="447.509766" xlink:href="#DejaVuSans-65"/>
     </g>
    </g>
   </g>
   <g id="text_21">
    <g clip-path="url(#p990317c19e)">
     <!-- FHL2 -->
     <g transform="translate(536.111557 322.179702)scale(0.12 -0.12)">
      <defs>
       <path d="M 9.8125 72.90625 
L 19.671875 72.90625 
L 19.671875 43.015625 
L 55.515625 43.015625 
L 55.515625 72.90625 
L 65.375 72.90625 
L 65.375 0 
L 55.515625 0 
L 55.515625 34.71875 
L 19.671875 34.71875 
L 19.671875 0 
L 9.8125 0 
z
" id="DejaVuSans-72"/>
      </defs>
      <use xlink:href="#DejaVuSans-70"/>
      <use x="57.519531" xlink:href="#DejaVuSans-72"/>
      <use x="132.714844" xlink:href="#DejaVuSans-76"/>
      <use x="188.427734" xlink:href="#DejaVuSans-50"/>
     </g>
    </g>
   </g>
   <g id="text_22">
    <g clip-path="url(#p990317c19e)">
     <!-- SQSTM1 -->
     <g transform="translate(362.186481 284.394154)scale(0.12 -0.12)">
      <defs>
       <path d="M 39.40625 66.21875 
Q 28.65625 66.21875 22.328125 58.203125 
Q 16.015625 50.203125 16.015625 36.375 
Q 16.015625 22.609375 22.328125 14.59375 
Q 28.65625 6.59375 39.40625 6.59375 
Q 50.140625 6.59375 56.421875 14.59375 
Q 62.703125 22.609375 62.703125 36.375 
Q 62.703125 50.203125 56.421875 58.203125 
Q 50.140625 66.21875 39.40625 66.21875 
z
M 53.21875 1.3125 
L 66.21875 -12.890625 
L 54.296875 -12.890625 
L 43.5 -1.21875 
Q 41.890625 -1.3125 41.03125 -1.359375 
Q 40.1875 -1.421875 39.40625 -1.421875 
Q 24.03125 -1.421875 14.8125 8.859375 
Q 5.609375 19.140625 5.609375 36.375 
Q 5.609375 53.65625 14.8125 63.9375 
Q 24.03125 74.21875 39.40625 74.21875 
Q 54.734375 74.21875 63.90625 63.9375 
Q 73.09375 53.65625 73.09375 36.375 
Q 73.09375 23.6875 67.984375 14.640625 
Q 62.890625 5.609375 53.21875 1.3125 
z
" id="DejaVuSans-81"/>
      </defs>
      <use xlink:href="#DejaVuSans-83"/>
      <use x="63.476562" xlink:href="#DejaVuSans-81"/>
      <use x="142.1875" xlink:href="#DejaVuSans-83"/>
      <use x="205.664062" xlink:href="#DejaVuSans-84"/>
      <use x="266.748047" xlink:href="#DejaVuSans-77"/>
      <use x="353.027344" xlink:href="#DejaVuSans-49"/>
     </g>
    </g>
   </g>
   <g id="text_23">
    <g clip-path="url(#p990317c19e)">
     <!-- MAP2K7 -->
     <g transform="translate(518.431071 464.851456)scale(0.12 -0.12)">
      <use xlink:href="#DejaVuSans-77"/>
      <use x="86.279297" xlink:href="#DejaVuSans-65"/>
      <use x="154.6875" xlink:href="#DejaVuSans-80"/>
      <use x="214.990234" xlink:href="#DejaVuSans-50"/>
      <use x="278.613281" xlink:href="#DejaVuSans-75"/>
      <use x="344.189453" xlink:href="#DejaVuSans-55"/>
     </g>
    </g>
   </g>
   <g id="text_24">
    <g clip-path="url(#p990317c19e)">
     <!-- RAC1 -->
     <g transform="translate(440.493394 321.993448)scale(0.12 -0.12)">
      <use xlink:href="#DejaVuSans-82"/>
      <use x="65.482422" xlink:href="#DejaVuSans-65"/>
      <use x="132.140625" xlink:href="#DejaVuSans-67"/>
      <use x="201.964844" xlink:href="#DejaVuSans-49"/>
     </g>
    </g>
   </g>
   <g id="text_25">
    <g clip-path="url(#p990317c19e)">
     <!-- TRAF6 -->
     <g transform="translate(447.949571 278.296851)scale(0.12 -0.12)">
      <use xlink:href="#DejaVuSans-84"/>
      <use x="61.083984" xlink:href="#DejaVuSans-82"/>
      <use x="126.566406" xlink:href="#DejaVuSans-65"/>
      <use x="194.974609" xlink:href="#DejaVuSans-70"/>
      <use x="252.494141" xlink:href="#DejaVuSans-54"/>
     </g>
    </g>
   </g>
   <g id="text_26">
    <g clip-path="url(#p990317c19e)">
     <!-- TRAF2 -->
     <g transform="translate(441.022334 269.419773)scale(0.12 -0.12)">
      <use xlink:href="#DejaVuSans-84"/>
      <use x="61.083984" xlink:href="#DejaVuSans-82"/>
      <use x="126.566406" xlink:href="#DejaVuSans-65"/>
      <use x="194.974609" xlink:href="#DejaVuSans-70"/>
      <use x="252.494141" xlink:href="#DejaVuSans-50"/>
     </g>
    </g>
   </g>
   <g id="text_27">
    <g clip-path="url(#p990317c19e)">
     <!-- NFKB1 -->
     <g transform="translate(431.981273 477.463977)scale(0.12 -0.12)">
      <use xlink:href="#DejaVuSans-78"/>
      <use x="74.804688" xlink:href="#DejaVuSans-70"/>
      <use x="132.324219" xlink:href="#DejaVuSans-75"/>
      <use x="197.900391" xlink:href="#DejaVuSans-66"/>
      <use x="266.503906" xlink:href="#DejaVuSans-49"/>
     </g>
    </g>
   </g>
   <g id="text_28">
    <g clip-path="url(#p990317c19e)">
     <!-- RELA -->
     <g transform="translate(479.729176 265.127719)scale(0.12 -0.12)">
      <use xlink:href="#DejaVuSans-82"/>
      <use x="69.482422" xlink:href="#DejaVuSans-69"/>
      <use x="132.666016" xlink:href="#DejaVuSans-76"/>
      <use x="190.628906" xlink:href="#DejaVuSans-65"/>
     </g>
    </g>
   </g>
   <g id="text_29">
    <g clip-path="url(#p990317c19e)">
     <!-- IFNAR1 -->
     <g transform="translate(320.992953 312.68987)scale(0.12 -0.12)">
      <use xlink:href="#DejaVuSans-73"/>
      <use x="29.492188" xlink:href="#DejaVuSans-70"/>
      <use x="87.011719" xlink:href="#DejaVuSans-78"/>
      <use x="161.816406" xlink:href="#DejaVuSans-65"/>
      <use x="230.224609" xlink:href="#DejaVuSans-82"/>
      <use x="299.707031" xlink:href="#DejaVuSans-49"/>
     </g>
    </g>
   </g>
   <g id="text_30">
    <g clip-path="url(#p990317c19e)">
     <!-- IFNAR2 -->
     <g transform="translate(317.67559 267.85542)scale(0.12 -0.12)">
      <use xlink:href="#DejaVuSans-73"/>
      <use x="29.492188" xlink:href="#DejaVuSans-70"/>
      <use x="87.011719" xlink:href="#DejaVuSans-78"/>
      <use x="161.816406" xlink:href="#DejaVuSans-65"/>
      <use x="230.224609" xlink:href="#DejaVuSans-82"/>
      <use x="299.707031" xlink:href="#DejaVuSans-50"/>
     </g>
    </g>
   </g>
   <g id="text_31">
    <g clip-path="url(#p990317c19e)">
     <!-- JAK1 -->
     <g transform="translate(488.236786 267.714577)scale(0.12 -0.12)">
      <defs>
       <path d="M 9.8125 72.90625 
L 19.671875 72.90625 
L 19.671875 5.078125 
Q 19.671875 -8.109375 14.671875 -14.0625 
Q 9.671875 -20.015625 -1.421875 -20.015625 
L -5.171875 -20.015625 
L -5.171875 -11.71875 
L -2.09375 -11.71875 
Q 4.4375 -11.71875 7.125 -8.046875 
Q 9.8125 -4.390625 9.8125 5.078125 
z
" id="DejaVuSans-74"/>
      </defs>
      <use xlink:href="#DejaVuSans-74"/>
      <use x="27.742188" xlink:href="#DejaVuSans-65"/>
      <use x="96.150391" xlink:href="#DejaVuSans-75"/>
      <use x="161.726562" xlink:href="#DejaVuSans-49"/>
     </g>
    </g>
   </g>
   <g id="text_32">
    <g clip-path="url(#p990317c19e)">
     <!-- TYK2 -->
     <g transform="translate(292.159754 225.213159)scale(0.12 -0.12)">
      <use xlink:href="#DejaVuSans-84"/>
      <use x="61.083984" xlink:href="#DejaVuSans-89"/>
      <use x="122.167969" xlink:href="#DejaVuSans-75"/>
      <use x="187.744141" xlink:href="#DejaVuSans-50"/>
     </g>
    </g>
   </g>
   <g id="text_33">
    <g clip-path="url(#p990317c19e)">
     <!-- STAT2 -->
     <g transform="translate(399.612718 190.844041)scale(0.12 -0.12)">
      <use xlink:href="#DejaVuSans-83"/>
      <use x="63.476562" xlink:href="#DejaVuSans-84"/>
      <use x="116.810547" xlink:href="#DejaVuSans-65"/>
      <use x="177.46875" xlink:href="#DejaVuSans-84"/>
      <use x="238.552734" xlink:href="#DejaVuSans-50"/>
     </g>
    </g>
   </g>
   <g id="text_34">
    <g clip-path="url(#p990317c19e)">
     <!-- LCK -->
     <g transform="translate(170.354823 255.741428)scale(0.12 -0.12)">
      <use xlink:href="#DejaVuSans-76"/>
      <use x="55.712891" xlink:href="#DejaVuSans-67"/>
      <use x="125.537109" xlink:href="#DejaVuSans-75"/>
     </g>
    </g>
   </g>
   <g id="text_35">
    <g clip-path="url(#p990317c19e)">
     <!-- FYN -->
     <g transform="translate(691.344414 371.273149)scale(0.12 -0.12)">
      <use xlink:href="#DejaVuSans-70"/>
      <use x="57.519531" xlink:href="#DejaVuSans-89"/>
      <use x="118.603516" xlink:href="#DejaVuSans-78"/>
     </g>
    </g>
   </g>
   <g id="text_36">
    <g clip-path="url(#p990317c19e)">
     <!-- IFNGR1 -->
     <g transform="translate(209.782106 212.505726)scale(0.12 -0.12)">
      <use xlink:href="#DejaVuSans-73"/>
      <use x="29.492188" xlink:href="#DejaVuSans-70"/>
      <use x="87.011719" xlink:href="#DejaVuSans-78"/>
      <use x="161.816406" xlink:href="#DejaVuSans-71"/>
      <use x="239.306641" xlink:href="#DejaVuSans-82"/>
      <use x="308.789062" xlink:href="#DejaVuSans-49"/>
     </g>
    </g>
   </g>
   <g id="text_37">
    <g clip-path="url(#p990317c19e)">
     <!-- IFNGR2 -->
     <g transform="translate(460.746008 193.122039)scale(0.12 -0.12)">
      <use xlink:href="#DejaVuSans-73"/>
      <use x="29.492188" xlink:href="#DejaVuSans-70"/>
      <use x="87.011719" xlink:href="#DejaVuSans-78"/>
      <use x="161.816406" xlink:href="#DejaVuSans-71"/>
      <use x="239.306641" xlink:href="#DejaVuSans-82"/>
      <use x="308.789062" xlink:href="#DejaVuSans-50"/>
     </g>
    </g>
   </g>
   <g id="text_38">
    <g clip-path="url(#p990317c19e)">
     <!-- FOSL2 -->
     <g transform="translate(467.744447 341.158649)scale(0.12 -0.12)">
      <use xlink:href="#DejaVuSans-70"/>
      <use x="57.519531" xlink:href="#DejaVuSans-79"/>
      <use x="136.230469" xlink:href="#DejaVuSans-83"/>
      <use x="199.707031" xlink:href="#DejaVuSans-76"/>
      <use x="255.419922" xlink:href="#DejaVuSans-50"/>
     </g>
    </g>
   </g>
   <g id="text_39">
    <g clip-path="url(#p990317c19e)">
     <!-- FOSB -->
     <g transform="translate(393.456774 460.830252)scale(0.12 -0.12)">
      <use xlink:href="#DejaVuSans-70"/>
      <use x="57.519531" xlink:href="#DejaVuSans-79"/>
      <use x="136.230469" xlink:href="#DejaVuSans-83"/>
      <use x="199.707031" xlink:href="#DejaVuSans-66"/>
     </g>
    </g>
   </g>
   <g id="text_40">
    <g clip-path="url(#p990317c19e)">
     <!-- JUN -->
     <g transform="translate(444.270798 354.276036)scale(0.12 -0.12)">
      <defs>
       <path d="M 8.6875 72.90625 
L 18.609375 72.90625 
L 18.609375 28.609375 
Q 18.609375 16.890625 22.84375 11.734375 
Q 27.09375 6.59375 36.625 6.59375 
Q 46.09375 6.59375 50.34375 11.734375 
Q 54.59375 16.890625 54.59375 28.609375 
L 54.59375 72.90625 
L 64.5 72.90625 
L 64.5 27.390625 
Q 64.5 13.140625 57.4375 5.859375 
Q 50.390625 -1.421875 36.625 -1.421875 
Q 22.796875 -1.421875 15.734375 5.859375 
Q 8.6875 13.140625 8.6875 27.390625 
z
" id="DejaVuSans-85"/>
      </defs>
      <use xlink:href="#DejaVuSans-74"/>
      <use x="29.492188" xlink:href="#DejaVuSans-85"/>
      <use x="102.685547" xlink:href="#DejaVuSans-78"/>
     </g>
    </g>
   </g>
   <g id="text_41">
    <g clip-path="url(#p990317c19e)">
     <!-- JUND -->
     <g transform="translate(463.692537 432.902911)scale(0.12 -0.12)">
      <use xlink:href="#DejaVuSans-74"/>
      <use x="29.492188" xlink:href="#DejaVuSans-85"/>
      <use x="102.685547" xlink:href="#DejaVuSans-78"/>
      <use x="177.490234" xlink:href="#DejaVuSans-68"/>
     </g>
    </g>
   </g>
   <g id="text_42">
    <g clip-path="url(#p990317c19e)">
     <!-- JUNB -->
     <g transform="translate(491.776009 434.582515)scale(0.12 -0.12)">
      <use xlink:href="#DejaVuSans-74"/>
      <use x="29.492188" xlink:href="#DejaVuSans-85"/>
      <use x="102.685547" xlink:href="#DejaVuSans-78"/>
      <use x="177.490234" xlink:href="#DejaVuSans-66"/>
     </g>
    </g>
   </g>
   <g id="text_43">
    <g clip-path="url(#p990317c19e)">
     <!-- FCGR1A -->
     <g transform="translate(498.582333 267.137799)scale(0.12 -0.12)">
      <use xlink:href="#DejaVuSans-70"/>
      <use x="57.519531" xlink:href="#DejaVuSans-67"/>
      <use x="127.34375" xlink:href="#DejaVuSans-71"/>
      <use x="204.833984" xlink:href="#DejaVuSans-82"/>
      <use x="274.316406" xlink:href="#DejaVuSans-49"/>
      <use x="337.939453" xlink:href="#DejaVuSans-65"/>
     </g>
    </g>
   </g>
   <g id="text_44">
    <g clip-path="url(#p990317c19e)">
     <!-- FCGR2A -->
     <g transform="translate(479.849963 209.519791)scale(0.12 -0.12)">
      <use xlink:href="#DejaVuSans-70"/>
      <use x="57.519531" xlink:href="#DejaVuSans-67"/>
      <use x="127.34375" xlink:href="#DejaVuSans-71"/>
      <use x="204.833984" xlink:href="#DejaVuSans-82"/>
      <use x="274.316406" xlink:href="#DejaVuSans-50"/>
      <use x="337.939453" xlink:href="#DejaVuSans-65"/>
     </g>
    </g>
   </g>
   <g id="text_45">
    <g clip-path="url(#p990317c19e)">
     <!-- FCGR2B -->
     <g transform="translate(378.551429 161.337443)scale(0.12 -0.12)">
      <use xlink:href="#DejaVuSans-70"/>
      <use x="57.519531" xlink:href="#DejaVuSans-67"/>
      <use x="127.34375" xlink:href="#DejaVuSans-71"/>
      <use x="204.833984" xlink:href="#DejaVuSans-82"/>
      <use x="274.316406" xlink:href="#DejaVuSans-50"/>
      <use x="337.939453" xlink:href="#DejaVuSans-66"/>
     </g>
    </g>
   </g>
   <g id="text_46">
    <g clip-path="url(#p990317c19e)">
     <!-- BTK -->
     <g transform="translate(339.482902 250.71518)scale(0.12 -0.12)">
      <use xlink:href="#DejaVuSans-66"/>
      <use x="68.603516" xlink:href="#DejaVuSans-84"/>
      <use x="129.6875" xlink:href="#DejaVuSans-75"/>
     </g>
    </g>
   </g>
   <g id="text_47">
    <g clip-path="url(#p990317c19e)">
     <!-- BLNK -->
     <g transform="translate(346.847864 204.721369)scale(0.12 -0.12)">
      <use xlink:href="#DejaVuSans-66"/>
      <use x="68.603516" xlink:href="#DejaVuSans-76"/>
      <use x="124.316406" xlink:href="#DejaVuSans-78"/>
      <use x="199.121094" xlink:href="#DejaVuSans-75"/>
     </g>
    </g>
   </g>
   <g id="text_48">
    <g clip-path="url(#p990317c19e)">
     <!-- LCP2 -->
     <g transform="translate(225.845288 318.286263)scale(0.12 -0.12)">
      <use xlink:href="#DejaVuSans-76"/>
      <use x="55.712891" xlink:href="#DejaVuSans-67"/>
      <use x="125.537109" xlink:href="#DejaVuSans-80"/>
      <use x="185.839844" xlink:href="#DejaVuSans-50"/>
     </g>
    </g>
   </g>
   <g id="text_49">
    <g clip-path="url(#p990317c19e)">
     <!-- SOCS1 -->
     <g transform="translate(349.908895 327.127248)scale(0.12 -0.12)">
      <use xlink:href="#DejaVuSans-83"/>
      <use x="63.476562" xlink:href="#DejaVuSans-79"/>
      <use x="142.1875" xlink:href="#DejaVuSans-67"/>
      <use x="212.011719" xlink:href="#DejaVuSans-83"/>
      <use x="275.488281" xlink:href="#DejaVuSans-49"/>
     </g>
    </g>
   </g>
   <g id="text_50">
    <g clip-path="url(#p990317c19e)">
     <!-- SOCS3 -->
     <g transform="translate(344.138291 301.318924)scale(0.12 -0.12)">
      <use xlink:href="#DejaVuSans-83"/>
      <use x="63.476562" xlink:href="#DejaVuSans-79"/>
      <use x="142.1875" xlink:href="#DejaVuSans-67"/>
      <use x="212.011719" xlink:href="#DejaVuSans-83"/>
      <use x="275.488281" xlink:href="#DejaVuSans-51"/>
     </g>
    </g>
   </g>
   <g id="text_51">
    <g clip-path="url(#p990317c19e)">
     <!-- TGFB1 -->
     <g transform="translate(453.848403 292.799398)scale(0.12 -0.12)">
      <use xlink:href="#DejaVuSans-84"/>
      <use x="61.083984" xlink:href="#DejaVuSans-71"/>
      <use x="138.574219" xlink:href="#DejaVuSans-70"/>
      <use x="196.09375" xlink:href="#DejaVuSans-66"/>
      <use x="264.697266" xlink:href="#DejaVuSans-49"/>
     </g>
    </g>
   </g>
   <g id="text_52">
    <g clip-path="url(#p990317c19e)">
     <!-- TGFBR1 -->
     <g transform="translate(577.348104 440.095897)scale(0.12 -0.12)">
      <use xlink:href="#DejaVuSans-84"/>
      <use x="61.083984" xlink:href="#DejaVuSans-71"/>
      <use x="138.574219" xlink:href="#DejaVuSans-70"/>
      <use x="196.09375" xlink:href="#DejaVuSans-66"/>
      <use x="264.697266" xlink:href="#DejaVuSans-82"/>
      <use x="334.179688" xlink:href="#DejaVuSans-49"/>
     </g>
    </g>
   </g>
   <g id="text_53">
    <g clip-path="url(#p990317c19e)">
     <!-- TGFBR2 -->
     <g transform="translate(275.760501 140.842252)scale(0.12 -0.12)">
      <use xlink:href="#DejaVuSans-84"/>
      <use x="61.083984" xlink:href="#DejaVuSans-71"/>
      <use x="138.574219" xlink:href="#DejaVuSans-70"/>
      <use x="196.09375" xlink:href="#DejaVuSans-66"/>
      <use x="264.697266" xlink:href="#DejaVuSans-82"/>
      <use x="334.179688" xlink:href="#DejaVuSans-50"/>
     </g>
    </g>
   </g>
   <g id="text_54">
    <g clip-path="url(#p990317c19e)">
     <!-- RELB -->
     <g transform="translate(546.488913 282.686696)scale(0.12 -0.12)">
      <use xlink:href="#DejaVuSans-82"/>
      <use x="69.482422" xlink:href="#DejaVuSans-69"/>
      <use x="132.666016" xlink:href="#DejaVuSans-76"/>
      <use x="188.378906" xlink:href="#DejaVuSans-66"/>
     </g>
    </g>
   </g>
   <g id="text_55">
    <g clip-path="url(#p990317c19e)">
     <!-- NFKB2 -->
     <g transform="translate(600.27733 282.863136)scale(0.12 -0.12)">
      <use xlink:href="#DejaVuSans-78"/>
      <use x="74.804688" xlink:href="#DejaVuSans-70"/>
      <use x="132.324219" xlink:href="#DejaVuSans-75"/>
      <use x="197.900391" xlink:href="#DejaVuSans-66"/>
      <use x="266.503906" xlink:href="#DejaVuSans-50"/>
     </g>
    </g>
   </g>
   <g id="text_56">
    <g clip-path="url(#p990317c19e)">
     <!-- CYBA -->
     <g transform="translate(472.871515 466.247427)scale(0.12 -0.12)">
      <use xlink:href="#DejaVuSans-67"/>
      <use x="68.074219" xlink:href="#DejaVuSans-89"/>
      <use x="129.158203" xlink:href="#DejaVuSans-66"/>
      <use x="197.761719" xlink:href="#DejaVuSans-65"/>
     </g>
    </g>
   </g>
   <g id="text_57">
    <g clip-path="url(#p990317c19e)">
     <!-- NCF2 -->
     <g transform="translate(233.012947 424.84329)scale(0.12 -0.12)">
      <use xlink:href="#DejaVuSans-78"/>
      <use x="74.804688" xlink:href="#DejaVuSans-67"/>
      <use x="144.628906" xlink:href="#DejaVuSans-70"/>
      <use x="202.148438" xlink:href="#DejaVuSans-50"/>
     </g>
    </g>
   </g>
   <g id="text_58">
    <g clip-path="url(#p990317c19e)">
     <!-- NCF1 -->
     <g transform="translate(703.54734 309.323591)scale(0.12 -0.12)">
      <use xlink:href="#DejaVuSans-78"/>
      <use x="74.804688" xlink:href="#DejaVuSans-67"/>
      <use x="144.628906" xlink:href="#DejaVuSans-70"/>
      <use x="202.148438" xlink:href="#DejaVuSans-49"/>
     </g>
    </g>
   </g>
   <g id="text_59">
    <g clip-path="url(#p990317c19e)">
     <!-- NCF4 -->
     <g transform="translate(336.921603 123.710913)scale(0.12 -0.12)">
      <use xlink:href="#DejaVuSans-78"/>
      <use x="74.804688" xlink:href="#DejaVuSans-67"/>
      <use x="144.628906" xlink:href="#DejaVuSans-70"/>
      <use x="202.148438" xlink:href="#DejaVuSans-52"/>
     </g>
    </g>
   </g>
   <g id="text_60">
    <g clip-path="url(#p990317c19e)">
     <!-- ITPR1 -->
     <g transform="translate(186.860492 378.932625)scale(0.12 -0.12)">
      <use xlink:href="#DejaVuSans-73"/>
      <use x="29.492188" xlink:href="#DejaVuSans-84"/>
      <use x="90.576172" xlink:href="#DejaVuSans-80"/>
      <use x="150.878906" xlink:href="#DejaVuSans-82"/>
      <use x="220.361328" xlink:href="#DejaVuSans-49"/>
     </g>
    </g>
   </g>
   <g id="text_61">
    <g clip-path="url(#p990317c19e)">
     <!-- ITPR2 -->
     <g transform="translate(232.990938 150.655958)scale(0.12 -0.12)">
      <use xlink:href="#DejaVuSans-73"/>
      <use x="29.492188" xlink:href="#DejaVuSans-84"/>
      <use x="90.576172" xlink:href="#DejaVuSans-80"/>
      <use x="150.878906" xlink:href="#DejaVuSans-82"/>
      <use x="220.361328" xlink:href="#DejaVuSans-50"/>
     </g>
    </g>
   </g>
   <g id="text_62">
    <g clip-path="url(#p990317c19e)">
     <!-- ITPR3 -->
     <g transform="translate(403.717 110.918523)scale(0.12 -0.12)">
      <use xlink:href="#DejaVuSans-73"/>
      <use x="29.492188" xlink:href="#DejaVuSans-84"/>
      <use x="90.576172" xlink:href="#DejaVuSans-80"/>
      <use x="150.878906" xlink:href="#DejaVuSans-82"/>
      <use x="220.361328" xlink:href="#DejaVuSans-51"/>
     </g>
    </g>
   </g>
   <g id="text_63">
    <!-- Frame: 11 -->
    <g transform="translate(121.392 91.296)scale(0.1 -0.1)">
     <defs>
      <path d="M 41.109375 46.296875 
Q 39.59375 47.171875 37.8125 47.578125 
Q 36.03125 48 33.890625 48 
Q 26.265625 48 22.1875 43.046875 
Q 18.109375 38.09375 18.109375 28.8125 
L 18.109375 0 
L 9.078125 0 
L 9.078125 54.6875 
L 18.109375 54.6875 
L 18.109375 46.1875 
Q 20.953125 51.171875 25.484375 53.578125 
Q 30.03125 56 36.53125 56 
Q 37.453125 56 38.578125 55.875 
Q 39.703125 55.765625 41.0625 55.515625 
z
" id="DejaVuSans-114"/>
      <path d="M 34.28125 27.484375 
Q 23.390625 27.484375 19.1875 25 
Q 14.984375 22.515625 14.984375 16.5 
Q 14.984375 11.71875 18.140625 8.90625 
Q 21.296875 6.109375 26.703125 6.109375 
Q 34.1875 6.109375 38.703125 11.40625 
Q 43.21875 16.703125 43.21875 25.484375 
L 43.21875 27.484375 
z
M 52.203125 31.203125 
L 52.203125 0 
L 43.21875 0 
L 43.21875 8.296875 
Q 40.140625 3.328125 35.546875 0.953125 
Q 30.953125 -1.421875 24.3125 -1.421875 
Q 15.921875 -1.421875 10.953125 3.296875 
Q 6 8.015625 6 15.921875 
Q 6 25.140625 12.171875 29.828125 
Q 18.359375 34.515625 30.609375 34.515625 
L 43.21875 34.515625 
L 43.21875 35.40625 
Q 43.21875 41.609375 39.140625 45 
Q 35.0625 48.390625 27.6875 48.390625 
Q 23 48.390625 18.546875 47.265625 
Q 14.109375 46.140625 10.015625 43.890625 
L 10.015625 52.203125 
Q 14.9375 54.109375 19.578125 55.046875 
Q 24.21875 56 28.609375 56 
Q 40.484375 56 46.34375 49.84375 
Q 52.203125 43.703125 52.203125 31.203125 
z
" id="DejaVuSans-97"/>
      <path d="M 52 44.1875 
Q 55.375 50.25 60.0625 53.125 
Q 64.75 56 71.09375 56 
Q 79.640625 56 84.28125 50.015625 
Q 88.921875 44.046875 88.921875 33.015625 
L 88.921875 0 
L 79.890625 0 
L 79.890625 32.71875 
Q 79.890625 40.578125 77.09375 44.375 
Q 74.3125 48.1875 68.609375 48.1875 
Q 61.625 48.1875 57.5625 43.546875 
Q 53.515625 38.921875 53.515625 30.90625 
L 53.515625 0 
L 44.484375 0 
L 44.484375 32.71875 
Q 44.484375 40.625 41.703125 44.40625 
Q 38.921875 48.1875 33.109375 48.1875 
Q 26.21875 48.1875 22.15625 43.53125 
Q 18.109375 38.875 18.109375 30.90625 
L 18.109375 0 
L 9.078125 0 
L 9.078125 54.6875 
L 18.109375 54.6875 
L 18.109375 46.1875 
Q 21.1875 51.21875 25.484375 53.609375 
Q 29.78125 56 35.6875 56 
Q 41.65625 56 45.828125 52.96875 
Q 50 49.953125 52 44.1875 
z
" id="DejaVuSans-109"/>
      <path d="M 56.203125 29.59375 
L 56.203125 25.203125 
L 14.890625 25.203125 
Q 15.484375 15.921875 20.484375 11.0625 
Q 25.484375 6.203125 34.421875 6.203125 
Q 39.59375 6.203125 44.453125 7.46875 
Q 49.3125 8.734375 54.109375 11.28125 
L 54.109375 2.78125 
Q 49.265625 0.734375 44.1875 -0.34375 
Q 39.109375 -1.421875 33.890625 -1.421875 
Q 20.796875 -1.421875 13.15625 6.1875 
Q 5.515625 13.8125 5.515625 26.8125 
Q 5.515625 40.234375 12.765625 48.109375 
Q 20.015625 56 32.328125 56 
Q 43.359375 56 49.78125 48.890625 
Q 56.203125 41.796875 56.203125 29.59375 
z
M 47.21875 32.234375 
Q 47.125 39.59375 43.09375 43.984375 
Q 39.0625 48.390625 32.421875 48.390625 
Q 24.90625 48.390625 20.390625 44.140625 
Q 15.875 39.890625 15.1875 32.171875 
z
" id="DejaVuSans-101"/>
      <path d="M 11.71875 12.40625 
L 22.015625 12.40625 
L 22.015625 0 
L 11.71875 0 
z
M 11.71875 51.703125 
L 22.015625 51.703125 
L 22.015625 39.3125 
L 11.71875 39.3125 
z
" id="DejaVuSans-58"/>
      <path id="DejaVuSans-32"/>
     </defs>
     <use xlink:href="#DejaVuSans-70"/>
     <use x="50.269531" xlink:href="#DejaVuSans-114"/>
     <use x="91.382812" xlink:href="#DejaVuSans-97"/>
     <use x="152.662109" xlink:href="#DejaVuSans-109"/>
     <use x="250.074219" xlink:href="#DejaVuSans-101"/>
     <use x="311.597656" xlink:href="#DejaVuSans-58"/>
     <use x="345.289062" xlink:href="#DejaVuSans-32"/>
     <use x="377.076172" xlink:href="#DejaVuSans-49"/>
     <use x="440.699219" xlink:href="#DejaVuSans-49"/>
    </g>
   </g>
   <g id="text_64">
    <!-- Network: hsa04380 -->
    <g transform="translate(384.1275 63.12)scale(0.12 -0.12)">
     <defs>
      <path d="M 18.3125 70.21875 
L 18.3125 54.6875 
L 36.8125 54.6875 
L 36.8125 47.703125 
L 18.3125 47.703125 
L 18.3125 18.015625 
Q 18.3125 11.328125 20.140625 9.421875 
Q 21.96875 7.515625 27.59375 7.515625 
L 36.8125 7.515625 
L 36.8125 0 
L 27.59375 0 
Q 17.1875 0 13.234375 3.875 
Q 9.28125 7.765625 9.28125 18.015625 
L 9.28125 47.703125 
L 2.6875 47.703125 
L 2.6875 54.6875 
L 9.28125 54.6875 
L 9.28125 70.21875 
z
" id="DejaVuSans-116"/>
      <path d="M 4.203125 54.6875 
L 13.1875 54.6875 
L 24.421875 12.015625 
L 35.59375 54.6875 
L 46.1875 54.6875 
L 57.421875 12.015625 
L 68.609375 54.6875 
L 77.59375 54.6875 
L 63.28125 0 
L 52.6875 0 
L 40.921875 44.828125 
L 29.109375 0 
L 18.5 0 
z
" id="DejaVuSans-119"/>
      <path d="M 30.609375 48.390625 
Q 23.390625 48.390625 19.1875 42.75 
Q 14.984375 37.109375 14.984375 27.296875 
Q 14.984375 17.484375 19.15625 11.84375 
Q 23.34375 6.203125 30.609375 6.203125 
Q 37.796875 6.203125 41.984375 11.859375 
Q 46.1875 17.53125 46.1875 27.296875 
Q 46.1875 37.015625 41.984375 42.703125 
Q 37.796875 48.390625 30.609375 48.390625 
z
M 30.609375 56 
Q 42.328125 56 49.015625 48.375 
Q 55.71875 40.765625 55.71875 27.296875 
Q 55.71875 13.875 49.015625 6.21875 
Q 42.328125 -1.421875 30.609375 -1.421875 
Q 18.84375 -1.421875 12.171875 6.21875 
Q 5.515625 13.875 5.515625 27.296875 
Q 5.515625 40.765625 12.171875 48.375 
Q 18.84375 56 30.609375 56 
z
" id="DejaVuSans-111"/>
      <path d="M 9.078125 75.984375 
L 18.109375 75.984375 
L 18.109375 31.109375 
L 44.921875 54.6875 
L 56.390625 54.6875 
L 27.390625 29.109375 
L 57.625 0 
L 45.90625 0 
L 18.109375 26.703125 
L 18.109375 0 
L 9.078125 0 
z
" id="DejaVuSans-107"/>
      <path d="M 54.890625 33.015625 
L 54.890625 0 
L 45.90625 0 
L 45.90625 32.71875 
Q 45.90625 40.484375 42.875 44.328125 
Q 39.84375 48.1875 33.796875 48.1875 
Q 26.515625 48.1875 22.3125 43.546875 
Q 18.109375 38.921875 18.109375 30.90625 
L 18.109375 0 
L 9.078125 0 
L 9.078125 75.984375 
L 18.109375 75.984375 
L 18.109375 46.1875 
Q 21.34375 51.125 25.703125 53.5625 
Q 30.078125 56 35.796875 56 
Q 45.21875 56 50.046875 50.171875 
Q 54.890625 44.34375 54.890625 33.015625 
z
" id="DejaVuSans-104"/>
      <path d="M 44.28125 53.078125 
L 44.28125 44.578125 
Q 40.484375 46.53125 36.375 47.5 
Q 32.28125 48.484375 27.875 48.484375 
Q 21.1875 48.484375 17.84375 46.4375 
Q 14.5 44.390625 14.5 40.28125 
Q 14.5 37.15625 16.890625 35.375 
Q 19.28125 33.59375 26.515625 31.984375 
L 29.59375 31.296875 
Q 39.15625 29.25 43.1875 25.515625 
Q 47.21875 21.78125 47.21875 15.09375 
Q 47.21875 7.46875 41.1875 3.015625 
Q 35.15625 -1.421875 24.609375 -1.421875 
Q 20.21875 -1.421875 15.453125 -0.5625 
Q 10.6875 0.296875 5.421875 2 
L 5.421875 11.28125 
Q 10.40625 8.6875 15.234375 7.390625 
Q 20.0625 6.109375 24.8125 6.109375 
Q 31.15625 6.109375 34.5625 8.28125 
Q 37.984375 10.453125 37.984375 14.40625 
Q 37.984375 18.0625 35.515625 20.015625 
Q 33.0625 21.96875 24.703125 23.78125 
L 21.578125 24.515625 
Q 13.234375 26.265625 9.515625 29.90625 
Q 5.8125 33.546875 5.8125 39.890625 
Q 5.8125 47.609375 11.28125 51.796875 
Q 16.75 56 26.8125 56 
Q 31.78125 56 36.171875 55.265625 
Q 40.578125 54.546875 44.28125 53.078125 
z
" id="DejaVuSans-115"/>
      <path d="M 31.78125 66.40625 
Q 24.171875 66.40625 20.328125 58.90625 
Q 16.5 51.421875 16.5 36.375 
Q 16.5 21.390625 20.328125 13.890625 
Q 24.171875 6.390625 31.78125 6.390625 
Q 39.453125 6.390625 43.28125 13.890625 
Q 47.125 21.390625 47.125 36.375 
Q 47.125 51.421875 43.28125 58.90625 
Q 39.453125 66.40625 31.78125 66.40625 
z
M 31.78125 74.21875 
Q 44.046875 74.21875 50.515625 64.515625 
Q 56.984375 54.828125 56.984375 36.375 
Q 56.984375 17.96875 50.515625 8.265625 
Q 44.046875 -1.421875 31.78125 -1.421875 
Q 19.53125 -1.421875 13.0625 8.265625 
Q 6.59375 17.96875 6.59375 36.375 
Q 6.59375 54.828125 13.0625 64.515625 
Q 19.53125 74.21875 31.78125 74.21875 
z
" id="DejaVuSans-48"/>
      <path d="M 31.78125 34.625 
Q 24.75 34.625 20.71875 30.859375 
Q 16.703125 27.09375 16.703125 20.515625 
Q 16.703125 13.921875 20.71875 10.15625 
Q 24.75 6.390625 31.78125 6.390625 
Q 38.8125 6.390625 42.859375 10.171875 
Q 46.921875 13.96875 46.921875 20.515625 
Q 46.921875 27.09375 42.890625 30.859375 
Q 38.875 34.625 31.78125 34.625 
z
M 21.921875 38.8125 
Q 15.578125 40.375 12.03125 44.71875 
Q 8.5 49.078125 8.5 55.328125 
Q 8.5 64.0625 14.71875 69.140625 
Q 20.953125 74.21875 31.78125 74.21875 
Q 42.671875 74.21875 48.875 69.140625 
Q 55.078125 64.0625 55.078125 55.328125 
Q 55.078125 49.078125 51.53125 44.71875 
Q 48 40.375 41.703125 38.8125 
Q 48.828125 37.15625 52.796875 32.3125 
Q 56.78125 27.484375 56.78125 20.515625 
Q 56.78125 9.90625 50.3125 4.234375 
Q 43.84375 -1.421875 31.78125 -1.421875 
Q 19.734375 -1.421875 13.25 4.234375 
Q 6.78125 9.90625 6.78125 20.515625 
Q 6.78125 27.484375 10.78125 32.3125 
Q 14.796875 37.15625 21.921875 38.8125 
z
M 18.3125 54.390625 
Q 18.3125 48.734375 21.84375 45.5625 
Q 25.390625 42.390625 31.78125 42.390625 
Q 38.140625 42.390625 41.71875 45.5625 
Q 45.3125 48.734375 45.3125 54.390625 
Q 45.3125 60.0625 41.71875 63.234375 
Q 38.140625 66.40625 31.78125 66.40625 
Q 25.390625 66.40625 21.84375 63.234375 
Q 18.3125 60.0625 18.3125 54.390625 
z
" id="DejaVuSans-56"/>
     </defs>
     <use xlink:href="#DejaVuSans-78"/>
     <use x="74.804688" xlink:href="#DejaVuSans-101"/>
     <use x="136.328125" xlink:href="#DejaVuSans-116"/>
     <use x="175.537109" xlink:href="#DejaVuSans-119"/>
     <use x="257.324219" xlink:href="#DejaVuSans-111"/>
     <use x="318.505859" xlink:href="#DejaVuSans-114"/>
     <use x="359.619141" xlink:href="#DejaVuSans-107"/>
     <use x="417.529297" xlink:href="#DejaVuSans-58"/>
     <use x="451.220703" xlink:href="#DejaVuSans-32"/>
     <use x="483.007812" xlink:href="#DejaVuSans-104"/>
     <use x="546.386719" xlink:href="#DejaVuSans-115"/>
     <use x="598.486328" xlink:href="#DejaVuSans-97"/>
     <use x="659.765625" xlink:href="#DejaVuSans-48"/>
     <use x="723.388672" xlink:href="#DejaVuSans-52"/>
     <use x="787.011719" xlink:href="#DejaVuSans-51"/>
     <use x="850.634766" xlink:href="#DejaVuSans-56"/>
     <use x="914.257812" xlink:href="#DejaVuSans-48"/>
    </g>
   </g>
  </g>
 </g>
 <defs>
  <clipPath id="p990317c19e">
   <rect height="443.52" width="669.6" x="108" y="69.12"/>
  </clipPath>
 </defs>
</svg>
