<?xml version="1.0" encoding="utf-8" standalone="no"?>
<!DOCTYPE svg PUBLIC "-//W3C//DTD SVG 1.1//EN"
  "http://www.w3.org/Graphics/SVG/1.1/DTD/svg11.dtd">
<!-- Created with matplotlib (https://matplotlib.org/) -->
<svg height="576pt" version="1.1" viewBox="0 0 864 576" width="864pt" xmlns="http://www.w3.org/2000/svg" xmlns:xlink="http://www.w3.org/1999/xlink">
 <metadata>
  <rdf:RDF xmlns:cc="http://creativecommons.org/ns#" xmlns:dc="http://purl.org/dc/elements/1.1/" xmlns:rdf="http://www.w3.org/1999/02/22-rdf-syntax-ns#">
   <cc:Work>
    <dc:type rdf:resource="http://purl.org/dc/dcmitype/StillImage"/>
    <dc:date>2024-04-04T21:02:52.756295</dc:date>
    <dc:format>image/svg+xml</dc:format>
    <dc:creator>
     <cc:Agent>
      <dc:title>Matplotlib v3.3.1, https://matplotlib.org/</dc:title>
     </cc:Agent>
    </dc:creator>
   </cc:Work>
  </rdf:RDF>
 </metadata>
 <defs>
  <style type="text/css">*{stroke-linecap:butt;stroke-linejoin:round;}</style>
 </defs>
 <g id="figure_1">
  <g id="patch_1">
   <path d="M 0 576 
L 864 576 
L 864 0 
L 0 0 
z
" style="fill:#ffffff;"/>
  </g>
  <g id="axes_1">
   <g id="patch_2">
    <path clip-path="url(#peabedeabfc)" d="M 541.036469 410.610871 
Q 488.918786 421.115695 437.897096 431.39961 
" style="fill:none;stroke:#000000;stroke-linecap:round;"/>
    <path clip-path="url(#peabedeabfc)" d="M 442.21341 432.569837 
L 437.897096 431.39961 
L 441.423066 428.648695 
L 442.21341 432.569837 
z
" style="stroke:#000000;stroke-linecap:round;"/>
   </g>
   <g id="patch_3">
    <path clip-path="url(#peabedeabfc)" d="M 540.988391 407.45292 
Q 498.791439 400.301828 457.696805 393.337546 
" style="fill:none;stroke:#000000;stroke-linecap:round;"/>
    <path clip-path="url(#peabedeabfc)" d="M 461.306399 395.977778 
L 457.696805 393.337546 
L 461.974747 392.03401 
L 461.306399 395.977778 
z
" style="stroke:#000000;stroke-linecap:round;"/>
   </g>
   <g id="patch_4">
    <path clip-path="url(#peabedeabfc)" d="M 419.657347 433.250641 
Q 346.564299 432.571761 274.589238 431.903264 
" style="fill:none;stroke:#000000;stroke-linecap:round;"/>
    <path clip-path="url(#peabedeabfc)" d="M 278.57049 433.940328 
L 274.589238 431.903264 
L 278.60764 429.940501 
L 278.57049 433.940328 
z
" style="stroke:#000000;stroke-linecap:round;"/>
   </g>
   <g id="patch_5">
    <path clip-path="url(#peabedeabfc)" d="M 435.915737 437.486875 
Q 444.573018 442.220152 452.249312 446.417085 
" style="fill:none;stroke:#000000;stroke-linecap:round;"/>
    <path clip-path="url(#peabedeabfc)" d="M 449.699069 442.743359 
L 452.249312 446.417085 
L 447.780186 446.253044 
L 449.699069 442.743359 
z
" style="stroke:#000000;stroke-linecap:round;"/>
   </g>
   <g id="patch_6">
    <path clip-path="url(#peabedeabfc)" d="M 335.7203 292.839281 
Q 278.181968 287.336531 221.756593 281.94022 
" style="fill:none;stroke:#000000;stroke-linecap:round;"/>
    <path clip-path="url(#peabedeabfc)" d="M 225.548021 284.311943 
L 221.756593 281.94022 
L 225.928829 280.330111 
L 225.548021 284.311943 
z
" style="stroke:#000000;stroke-linecap:round;"/>
   </g>
   <g id="patch_7">
    <path clip-path="url(#peabedeabfc)" d="M 346.946852 285.405377 
Q 365.847036 225.499827 384.410826 166.660503 
" style="fill:none;stroke:#000000;stroke-linecap:round;"/>
    <path clip-path="url(#peabedeabfc)" d="M 381.299981 169.87339 
L 384.410826 166.660503 
L 385.114629 171.076911 
L 381.299981 169.87339 
z
" style="stroke:#000000;stroke-linecap:round;"/>
   </g>
   <g id="patch_8">
    <path clip-path="url(#peabedeabfc)" d="M 342.312282 302.081439 
Q 324.687467 375.199353 307.324646 447.230364 
" style="fill:none;stroke:#000000;stroke-linecap:round;"/>
    <path clip-path="url(#peabedeabfc)" d="M 310.206297 443.81041 
L 307.324646 447.230364 
L 306.317673 442.873071 
L 310.206297 443.81041 
z
" style="stroke:#000000;stroke-linecap:round;"/>
   </g>
   <g id="patch_9">
    <path clip-path="url(#peabedeabfc)" d="M 352.9096 292.419986 
Q 412.921732 283.708567 471.827427 275.157759 
" style="fill:none;stroke:#000000;stroke-linecap:round;"/>
    <path clip-path="url(#peabedeabfc)" d="M 467.581605 273.753125 
L 471.827427 275.157759 
L 468.156227 277.711636 
L 467.581605 273.753125 
z
" style="stroke:#000000;stroke-linecap:round;"/>
   </g>
   <g id="patch_10">
    <path clip-path="url(#peabedeabfc)" d="M 442.188939 327.559309 
Q 417.991796 348.969686 394.631966 369.639182 
" style="fill:none;stroke:#000000;stroke-linecap:round;"/>
    <path clip-path="url(#peabedeabfc)" d="M 398.952961 368.486357 
L 394.631966 369.639182 
L 396.302303 365.490691 
L 398.952961 368.486357 
z
" style="stroke:#000000;stroke-linecap:round;"/>
   </g>
   <g id="patch_11">
    <path clip-path="url(#peabedeabfc)" d="M 455.231882 316.168474 
Q 543.791005 239.833902 631.503274 164.229287 
" style="fill:none;stroke:#000000;stroke-linecap:round;"/>
    <path clip-path="url(#peabedeabfc)" d="M 627.167687 165.325958 
L 631.503274 164.229287 
L 629.779259 168.355759 
L 627.167687 165.325958 
z
" style="stroke:#000000;stroke-linecap:round;"/>
   </g>
   <g id="patch_12">
    <path clip-path="url(#peabedeabfc)" d="M 440.163576 320.210886 
Q 316.312976 296.785067 193.560932 273.567034 
" style="fill:none;stroke:#000000;stroke-linecap:round;"/>
    <path clip-path="url(#peabedeabfc)" d="M 197.119543 276.275592 
L 193.560932 273.567034 
L 197.862945 272.34528 
L 197.119543 276.275592 
z
" style="stroke:#000000;stroke-linecap:round;"/>
   </g>
   <g id="patch_13">
    <path clip-path="url(#peabedeabfc)" d="M 442.359987 327.75148 
Q 376.853874 389.276941 312.162704 450.036981 
" style="fill:none;stroke:#000000;stroke-linecap:round;"/>
    <path clip-path="url(#peabedeabfc)" d="M 316.447557 448.756343 
L 312.162704 450.036981 
L 313.709106 445.840716 
L 316.447557 448.756343 
z
" style="stroke:#000000;stroke-linecap:round;"/>
   </g>
   <g id="patch_14">
    <path clip-path="url(#peabedeabfc)" d="M 456.658277 325.179985 
Q 555.674691 366.842602 653.66058 408.071609 
" style="fill:none;stroke:#000000;stroke-linecap:round;"/>
    <path clip-path="url(#peabedeabfc)" d="M 650.749322 404.676823 
L 653.66058 408.071609 
L 649.197996 408.363744 
L 650.749322 404.676823 
z
" style="stroke:#000000;stroke-linecap:round;"/>
   </g>
   <g id="patch_15">
    <path clip-path="url(#peabedeabfc)" d="M 217.916605 287.353925 
Q 250.740361 322.703752 282.803363 357.234278 
" style="fill:none;stroke:#000000;stroke-linecap:round;"/>
    <path clip-path="url(#peabedeabfc)" d="M 281.547216 352.942181 
L 282.803363 357.234278 
L 278.615997 355.663937 
L 281.547216 352.942181 
z
" style="stroke:#000000;stroke-linecap:round;"/>
   </g>
   <g id="patch_16">
    <path clip-path="url(#peabedeabfc)" d="M 378.709061 375.091439 
Q 338.382323 370.260564 299.165682 365.562672 
" style="fill:none;stroke:#000000;stroke-linecap:round;"/>
    <path clip-path="url(#peabedeabfc)" d="M 302.899401 368.024246 
L 299.165682 365.562672 
L 303.375173 364.052641 
L 302.899401 368.024246 
z
" style="stroke:#000000;stroke-linecap:round;"/>
   </g>
   <g id="patch_17">
    <path clip-path="url(#peabedeabfc)" d="M 294.295214 357.215734 
Q 301.537907 346.46244 308.156025 336.636457 
" style="fill:none;stroke:#000000;stroke-linecap:round;"/>
    <path clip-path="url(#peabedeabfc)" d="M 304.262654 338.836835 
L 308.156025 336.636457 
L 307.580305 341.07138 
L 304.262654 338.836835 
z
" style="stroke:#000000;stroke-linecap:round;"/>
   </g>
   <g id="patch_18">
    <path clip-path="url(#peabedeabfc)" d="M 298.030793 363.172187 
Q 347.197402 356.133876 395.25726 349.254 
" style="fill:none;stroke:#000000;stroke-linecap:round;"/>
    <path clip-path="url(#peabedeabfc)" d="M 391.01421 347.841013 
L 395.25726 349.254 
L 391.581041 351.800648 
L 391.01421 347.841013 
z
" style="stroke:#000000;stroke-linecap:round;"/>
   </g>
   <g id="patch_19">
    <path clip-path="url(#peabedeabfc)" d="M 417.334054 173.698188 
Q 440.594237 144.058325 463.164193 115.297999 
" style="fill:none;stroke:#000000;stroke-linecap:round;"/>
    <path clip-path="url(#peabedeabfc)" d="M 459.121398 117.210016 
L 463.164193 115.297999 
L 462.268129 119.679445 
L 459.121398 117.210016 
z
" style="stroke:#000000;stroke-linecap:round;"/>
   </g>
   <g id="patch_20">
    <path clip-path="url(#peabedeabfc)" d="M 420.604421 179.652126 
Q 525.449089 169.17842 629.18126 158.81585 
" style="fill:none;stroke:#000000;stroke-linecap:round;"/>
    <path clip-path="url(#peabedeabfc)" d="M 625.002266 157.223366 
L 629.18126 158.81585 
L 625.399876 161.203555 
L 625.002266 157.223366 
z
" style="stroke:#000000;stroke-linecap:round;"/>
   </g>
   <g id="patch_21">
    <path clip-path="url(#peabedeabfc)" d="M 403.944799 183.730357 
Q 297.967918 226.131577 193.029069 268.11748 
" style="fill:none;stroke:#000000;stroke-linecap:round;"/>
    <path clip-path="url(#peabedeabfc)" d="M 197.485789 268.488491 
L 193.029069 268.11748 
L 195.99991 264.774711 
L 197.485789 268.488491 
z
" style="stroke:#000000;stroke-linecap:round;"/>
   </g>
   <g id="patch_22">
    <path clip-path="url(#peabedeabfc)" d="M 451.123187 383.609443 
Q 473.101292 325.629865 494.683103 268.695732 
" style="fill:none;stroke:#000000;stroke-linecap:round;"/>
    <path clip-path="url(#peabedeabfc)" d="M 491.395138 271.727115 
L 494.683103 268.695732 
L 495.135431 273.144934 
L 491.395138 271.727115 
z
" style="stroke:#000000;stroke-linecap:round;"/>
   </g>
   <g id="patch_23">
    <path clip-path="url(#peabedeabfc)" d="M 441.183186 396.974412 
Q 402.528449 426.62367 364.760836 455.59248 
" style="fill:none;stroke:#000000;stroke-linecap:round;"/>
    <path clip-path="url(#peabedeabfc)" d="M 369.151932 454.744968 
L 364.760836 455.59248 
L 366.717484 451.571096 
L 369.151932 454.744968 
z
" style="stroke:#000000;stroke-linecap:round;"/>
   </g>
   <g id="patch_24">
    <path clip-path="url(#peabedeabfc)" d="M 444.209934 399.46084 
Q 427.622246 432.926079 411.531084 465.389588 
" style="fill:none;stroke:#000000;stroke-linecap:round;"/>
    <path clip-path="url(#peabedeabfc)" d="M 415.099458 462.693906 
L 411.531084 465.389588 
L 411.515563 460.917479 
L 415.099458 462.693906 
z
" style="stroke:#000000;stroke-linecap:round;"/>
   </g>
   <g id="patch_25">
    <path clip-path="url(#peabedeabfc)" d="M 489.580781 260.791533 
Q 434.427521 268.769025 380.38078 276.586468 
" style="fill:none;stroke:#000000;stroke-linecap:round;"/>
    <path clip-path="url(#peabedeabfc)" d="M 384.625888 277.993259 
L 380.38078 276.586468 
L 384.053278 274.034456 
L 384.625888 277.993259 
z
" style="stroke:#000000;stroke-linecap:round;"/>
   </g>
   <g id="patch_26">
    <path clip-path="url(#peabedeabfc)" d="M 492.758963 266.336204 
Q 473.411467 290.686863 454.759482 314.162157 
" style="fill:none;stroke:#000000;stroke-linecap:round;"/>
    <path clip-path="url(#peabedeabfc)" d="M 458.813717 312.27452 
L 454.759482 314.162157 
L 455.681913 309.786186 
L 458.813717 312.27452 
z
" style="stroke:#000000;stroke-linecap:round;"/>
   </g>
   <g id="patch_27">
    <path clip-path="url(#peabedeabfc)" d="M 362.038456 278.151547 
Q 291.360567 279.4981 221.80051 280.823356 
" style="fill:none;stroke:#000000;stroke-linecap:round;"/>
    <path clip-path="url(#peabedeabfc)" d="M 225.837881 282.746799 
L 221.80051 280.823356 
L 225.761687 278.747525 
L 225.837881 282.746799 
z
" style="stroke:#000000;stroke-linecap:round;"/>
   </g>
   <g id="patch_28">
    <path clip-path="url(#peabedeabfc)" d="M 372.146211 286.524778 
Q 379.00375 327.053483 385.674767 366.479822 
" style="fill:none;stroke:#000000;stroke-linecap:round;"/>
    <path clip-path="url(#peabedeabfc)" d="M 386.979415 362.202219 
L 385.674767 366.479822 
L 383.035472 362.869542 
L 386.979415 362.202219 
z
" style="stroke:#000000;stroke-linecap:round;"/>
   </g>
   <g id="patch_29">
    <path clip-path="url(#peabedeabfc)" d="M 378.89782 159.205414 
Q 318.46992 172.567042 259.133685 185.687284 
" style="fill:none;stroke:#000000;stroke-linecap:round;"/>
    <path clip-path="url(#peabedeabfc)" d="M 263.471149 186.776507 
L 259.133685 185.687284 
L 262.607541 182.870847 
L 263.471149 186.776507 
z
" style="stroke:#000000;stroke-linecap:round;"/>
   </g>
   <g id="patch_30">
    <path clip-path="url(#peabedeabfc)" d="M 243.579435 194.043154 
Q 222.654772 215.800089 202.505116 236.751192 
" style="fill:none;stroke:#000000;stroke-linecap:round;"/>
    <path clip-path="url(#peabedeabfc)" d="M 206.719379 235.254534 
L 202.505116 236.751192 
L 203.836347 232.481787 
L 206.719379 235.254534 
z
" style="stroke:#000000;stroke-linecap:round;"/>
   </g>
   <g id="patch_31">
    <path clip-path="url(#peabedeabfc)" d="M 192.971954 252.007142 
Q 180.916695 287.913162 169.21729 322.75929 
" style="fill:none;stroke:#000000;stroke-linecap:round;"/>
    <path clip-path="url(#peabedeabfc)" d="M 172.386418 319.603878 
L 169.21729 322.75929 
L 168.594437 318.33074 
L 172.386418 319.603878 
z
" style="stroke:#000000;stroke-linecap:round;"/>
   </g>
   <g id="patch_32">
    <path clip-path="url(#peabedeabfc)" d="M 414.523704 200.652534 
Q 522.463332 180.059801 629.304733 159.676587 
" style="fill:none;stroke:#000000;stroke-linecap:round;"/>
    <path clip-path="url(#peabedeabfc)" d="M 625.000798 158.461621 
L 629.304733 159.676587 
L 625.750399 162.390755 
L 625.000798 158.461621 
z
" style="stroke:#000000;stroke-linecap:round;"/>
   </g>
   <g id="patch_33">
    <path clip-path="url(#peabedeabfc)" d="M 397.7553 204.860479 
Q 294.985176 237.012311 193.282086 268.830319 
" style="fill:none;stroke:#000000;stroke-linecap:round;"/>
    <path clip-path="url(#peabedeabfc)" d="M 197.696785 269.544764 
L 193.282086 268.830319 
L 196.502461 265.727227 
L 197.696785 269.544764 
z
" style="stroke:#000000;stroke-linecap:round;"/>
   </g>
   <g id="patch_34">
    <path clip-path="url(#peabedeabfc)" d="M 480.28095 282.32587 
Q 478.202394 296.9352 476.281321 310.437642 
" style="fill:none;stroke:#000000;stroke-linecap:round;"/>
    <path clip-path="url(#peabedeabfc)" d="M 478.82481 306.759237 
L 476.281321 310.437642 
L 474.864691 306.195807 
L 478.82481 306.759237 
z
" style="stroke:#000000;stroke-linecap:round;"/>
   </g>
   <g id="patch_35">
    <path clip-path="url(#peabedeabfc)" d="M 481.615605 282.415126 
Q 481.90138 303.934277 482.172308 324.335494 
" style="fill:none;stroke:#000000;stroke-linecap:round;"/>
    <path clip-path="url(#peabedeabfc)" d="M 484.119017 320.309289 
L 482.172308 324.335494 
L 480.119369 320.362404 
L 484.119017 320.309289 
z
" style="stroke:#000000;stroke-linecap:round;"/>
   </g>
   <g id="patch_36">
    <path clip-path="url(#peabedeabfc)" d="M 278.715376 294.315653 
Q 348.846372 299.904575 417.862868 305.404678 
" style="fill:none;stroke:#000000;stroke-linecap:round;"/>
    <path clip-path="url(#peabedeabfc)" d="M 414.034391 303.093236 
L 417.862868 305.404678 
L 413.716628 307.080594 
L 414.034391 303.093236 
z
" style="stroke:#000000;stroke-linecap:round;"/>
   </g>
   <g id="patch_37">
    <path clip-path="url(#peabedeabfc)" d="M 435.91137 308.629024 
Q 451.254545 313.151211 465.525298 317.357316 
" style="fill:none;stroke:#000000;stroke-linecap:round;"/>
    <path clip-path="url(#peabedeabfc)" d="M 462.253903 314.308058 
L 465.525298 317.357316 
L 461.123054 318.144877 
L 462.253903 314.308058 
z
" style="stroke:#000000;stroke-linecap:round;"/>
   </g>
   <g id="patch_38">
    <path clip-path="url(#peabedeabfc)" d="M 435.321028 310.12132 
Q 454.95625 320.149349 473.595776 329.668859 
" style="fill:none;stroke:#000000;stroke-linecap:round;"/>
    <path clip-path="url(#peabedeabfc)" d="M 470.943132 326.068376 
L 473.595776 329.668859 
L 469.123803 329.630685 
L 470.943132 326.068376 
z
" style="stroke:#000000;stroke-linecap:round;"/>
   </g>
   <g id="patch_39">
    <path clip-path="url(#peabedeabfc)" d="M 456.213846 255.559821 
Q 452.933556 284.389204 449.779664 312.107721 
" style="fill:none;stroke:#000000;stroke-linecap:round;"/>
    <path clip-path="url(#peabedeabfc)" d="M 452.219055 308.359472 
L 449.779664 312.107721 
L 448.2447 307.907258 
L 452.219055 308.359472 
z
" style="stroke:#000000;stroke-linecap:round;"/>
   </g>
   <g id="patch_40">
    <path clip-path="url(#peabedeabfc)" d="M 449.03942 249.880883 
Q 413.945388 262.471715 379.90371 274.684989 
" style="fill:none;stroke:#000000;stroke-linecap:round;"/>
    <path clip-path="url(#peabedeabfc)" d="M 384.344124 275.216707 
L 379.90371 274.684989 
L 382.993332 271.451689 
L 384.344124 275.216707 
z
" style="stroke:#000000;stroke-linecap:round;"/>
   </g>
   <g id="patch_41">
    <path clip-path="url(#peabedeabfc)" d="M 322.116771 326.860344 
Q 370.613556 317.353449 418.013188 308.061629 
" style="fill:none;stroke:#000000;stroke-linecap:round;"/>
    <path clip-path="url(#peabedeabfc)" d="M 413.703158 306.868465 
L 418.013188 308.061629 
L 414.472638 310.793754 
L 413.703158 306.868465 
z
" style="stroke:#000000;stroke-linecap:round;"/>
   </g>
   <g id="patch_42">
    <path clip-path="url(#peabedeabfc)" d="M 409.073276 340.25837 
Q 416.270773 327.023906 422.934115 314.771624 
" style="fill:none;stroke:#000000;stroke-linecap:round;"/>
    <path clip-path="url(#peabedeabfc)" d="M 419.266088 317.330057 
L 422.934115 314.771624 
L 422.780046 319.241105 
L 419.266088 317.330057 
z
" style="stroke:#000000;stroke-linecap:round;"/>
   </g>
   <g id="patch_43">
    <path clip-path="url(#peabedeabfc)" d="M 497.179315 301.766165 
Q 491.626233 382.037345 486.150311 461.193157 
" style="fill:none;stroke:#000000;stroke-linecap:round;"/>
    <path clip-path="url(#peabedeabfc)" d="M 488.421599 457.340722 
L 486.150311 461.193157 
L 484.431136 457.064666 
L 488.421599 457.340722 
z
" style="stroke:#000000;stroke-linecap:round;"/>
   </g>
   <g id="patch_44">
    <path clip-path="url(#peabedeabfc)" d="M 505.430893 289.069462 
Q 594.947451 241.648196 683.476042 194.750304 
" style="fill:none;stroke:#000000;stroke-linecap:round;"/>
    <path clip-path="url(#peabedeabfc)" d="M 679.005143 194.855454 
L 683.476042 194.750304 
L 680.877623 198.390114 
L 679.005143 194.855454 
z
" style="stroke:#000000;stroke-linecap:round;"/>
   </g>
   <g id="patch_45">
    <path clip-path="url(#peabedeabfc)" d="M 500.469646 284.895647 
Q 526.045214 206.735215 551.273081 129.637377 
" style="fill:none;stroke:#000000;stroke-linecap:round;"/>
    <path clip-path="url(#peabedeabfc)" d="M 548.128285 132.817041 
L 551.273081 129.637377 
L 551.929934 134.061012 
L 548.128285 132.817041 
z
" style="stroke:#000000;stroke-linecap:round;"/>
   </g>
   <g id="patch_46">
    <path clip-path="url(#peabedeabfc)" d="M 492.922247 285.950046 
Q 438.170887 205.045712 384.046143 125.06731 
" style="fill:none;stroke:#000000;stroke-linecap:round;"/>
    <path clip-path="url(#peabedeabfc)" d="M 384.631639 129.500954 
L 384.046143 125.06731 
L 387.944356 127.2591 
L 384.631639 129.500954 
z
" style="stroke:#000000;stroke-linecap:round;"/>
   </g>
   <g id="patch_47">
    <path clip-path="url(#peabedeabfc)" d="M 502.142472 300.604581 
Q 544.876719 373.835844 587.047462 446.101464 
" style="fill:none;stroke:#000000;stroke-linecap:round;"/>
    <path clip-path="url(#peabedeabfc)" d="M 586.758808 441.638654 
L 587.047462 446.101464 
L 583.304021 443.654701 
L 586.758808 441.638654 
z
" style="stroke:#000000;stroke-linecap:round;"/>
   </g>
   <g id="patch_48">
    <path clip-path="url(#peabedeabfc)" d="M 489.804555 296.504828 
Q 368.382736 347.994196 247.99023 399.047081 
" style="fill:none;stroke:#000000;stroke-linecap:round;"/>
    <path clip-path="url(#peabedeabfc)" d="M 252.453612 399.326759 
L 247.99023 399.047081 
L 250.892002 395.644182 
L 252.453612 399.326759 
z
" style="stroke:#000000;stroke-linecap:round;"/>
   </g>
   <g id="patch_49">
    <path clip-path="url(#peabedeabfc)" d="M 485.41551 300.640988 
Q 485.443941 381.464215 485.471979 461.169409 
" style="fill:none;stroke:#000000;stroke-linecap:round;"/>
    <path clip-path="url(#peabedeabfc)" d="M 487.470572 457.168705 
L 485.471979 461.169409 
L 483.470572 457.170112 
L 487.470572 457.168705 
z
" style="stroke:#000000;stroke-linecap:round;"/>
   </g>
   <g id="patch_50">
    <path clip-path="url(#peabedeabfc)" d="M 493.180963 288.155299 
Q 588.765635 241.076687 683.34733 194.492075 
" style="fill:none;stroke:#000000;stroke-linecap:round;"/>
    <path clip-path="url(#peabedeabfc)" d="M 678.875274 194.46528 
L 683.34733 194.492075 
L 680.642661 198.053643 
L 678.875274 194.46528 
z
" style="stroke:#000000;stroke-linecap:round;"/>
   </g>
   <g id="patch_51">
    <path clip-path="url(#peabedeabfc)" d="M 488.639109 283.943775 
Q 519.864047 206.160576 550.672474 129.41493 
" style="fill:none;stroke:#000000;stroke-linecap:round;"/>
    <path clip-path="url(#peabedeabfc)" d="M 547.326286 132.381919 
L 550.672474 129.41493 
L 551.038352 133.872074 
L 547.326286 132.381919 
z
" style="stroke:#000000;stroke-linecap:round;"/>
   </g>
   <g id="patch_52">
    <path clip-path="url(#peabedeabfc)" d="M 480.901329 284.592401 
Q 431.989697 204.4762 383.660644 125.314253 
" style="fill:none;stroke:#000000;stroke-linecap:round;"/>
    <path clip-path="url(#peabedeabfc)" d="M 384.037925 129.770446 
L 383.660644 125.314253 
L 387.451967 127.686144 
L 384.037925 129.770446 
z
" style="stroke:#000000;stroke-linecap:round;"/>
   </g>
   <g id="patch_53">
    <path clip-path="url(#peabedeabfc)" d="M 490.158885 299.222348 
Q 538.694713 373.265195 586.617609 446.372996 
" style="fill:none;stroke:#000000;stroke-linecap:round;"/>
    <path clip-path="url(#peabedeabfc)" d="M 586.097377 441.931221 
L 586.617609 446.372996 
L 582.752051 444.124117 
L 586.097377 441.931221 
z
" style="stroke:#000000;stroke-linecap:round;"/>
   </g>
   <g id="patch_54">
    <path clip-path="url(#peabedeabfc)" d="M 477.512443 295.536294 
Q 362.197836 347.424117 247.9028 398.853165 
" style="fill:none;stroke:#000000;stroke-linecap:round;"/>
    <path clip-path="url(#peabedeabfc)" d="M 252.371211 399.03567 
L 247.9028 398.853165 
L 250.729851 395.387939 
L 252.371211 399.03567 
z
" style="stroke:#000000;stroke-linecap:round;"/>
   </g>
   <g id="patch_55">
    <path clip-path="url(#peabedeabfc)" d="M 369.901351 359.797492 
Q 404.970075 374.114226 439.0037 388.008384 
" style="fill:none;stroke:#000000;stroke-linecap:round;"/>
    <path clip-path="url(#peabedeabfc)" d="M 436.056347 384.644887 
L 439.0037 388.008384 
L 434.54449 388.348168 
L 436.056347 384.644887 
z
" style="stroke:#000000;stroke-linecap:round;"/>
   </g>
   <g id="patch_56">
    <path clip-path="url(#peabedeabfc)" d="M 466.481289 322.132139 
Q 337.668692 352.884587 209.943568 383.377414 
" style="fill:none;stroke:#000000;stroke-linecap:round;"/>
    <path clip-path="url(#peabedeabfc)" d="M 214.298653 384.393896 
L 209.943568 383.377414 
L 213.369805 380.503235 
L 214.298653 384.393896 
z
" style="stroke:#000000;stroke-linecap:round;"/>
   </g>
   <g id="patch_57">
    <path clip-path="url(#peabedeabfc)" d="M 483.192672 317.62427 
Q 597.19872 283.27916 710.134256 249.256548 
" style="fill:none;stroke:#000000;stroke-linecap:round;"/>
    <path clip-path="url(#peabedeabfc)" d="M 705.727375 248.495367 
L 710.134256 249.256548 
L 706.881182 252.325344 
L 705.727375 248.495367 
z
" style="stroke:#000000;stroke-linecap:round;"/>
   </g>
   <g id="patch_58">
    <path clip-path="url(#peabedeabfc)" d="M 473.781923 335.673078 
Q 341.36785 359.881624 210.053581 383.889098 
" style="fill:none;stroke:#000000;stroke-linecap:round;"/>
    <path clip-path="url(#peabedeabfc)" d="M 214.34805 385.137114 
L 210.053581 383.889098 
L 213.628675 381.202333 
L 214.34805 385.137114 
z
" style="stroke:#000000;stroke-linecap:round;"/>
   </g>
   <g id="patch_59">
    <path clip-path="url(#peabedeabfc)" d="M 490.427431 331.111849 
Q 600.897558 290.276318 710.319005 249.828433 
" style="fill:none;stroke:#000000;stroke-linecap:round;"/>
    <path clip-path="url(#peabedeabfc)" d="M 705.873689 249.339385 
L 710.319005 249.828433 
L 707.260577 253.091257 
L 705.873689 249.339385 
z
" style="stroke:#000000;stroke-linecap:round;"/>
   </g>
   <g id="PathCollection_1">
    <defs>
     <path d="M 0 8.660254 
C 2.296726 8.660254 4.499694 7.747755 6.123724 6.123724 
C 7.747755 4.499694 8.660254 2.296726 8.660254 -0 
C 8.660254 -2.296726 7.747755 -4.499694 6.123724 -6.123724 
C 4.499694 -7.747755 2.296726 -8.660254 0 -8.660254 
C -2.296726 -8.660254 -4.499694 -7.747755 -6.123724 -6.123724 
C -7.747755 -4.499694 -8.660254 -2.296726 -8.660254 0 
C -8.660254 2.296726 -7.747755 4.499694 -6.123724 6.123724 
C -4.499694 7.747755 -2.296726 8.660254 0 8.660254 
z
" id="C0_0_2a8bef8047"/>
    </defs>
    <g clip-path="url(#peabedeabfc)">
     <use style="fill:#ff0000;stroke:#ff0000;" x="549.525841" xlink:href="#C0_0_2a8bef8047" y="408.899756"/>
    </g>
    <g clip-path="url(#peabedeabfc)">
     <use style="fill:#ff0000;stroke:#ff0000;" x="428.314629" xlink:href="#C0_0_2a8bef8047" y="433.331049"/>
    </g>
    <g clip-path="url(#peabedeabfc)">
     <use style="fill:#ff0000;stroke:#ff0000;" x="264.809247" xlink:href="#C0_0_2a8bef8047" y="431.812429"/>
    </g>
    <g clip-path="url(#peabedeabfc)">
     <use style="fill:#ff0000;stroke:#ff0000;" x="344.341333" xlink:href="#C0_0_2a8bef8047" y="293.663764"/>
    </g>
    <g clip-path="url(#peabedeabfc)">
     <use style="fill:#ff0000;stroke:#ff0000;" x="448.674494" xlink:href="#C0_0_2a8bef8047" y="321.820691"/>
    </g>
    <g clip-path="url(#peabedeabfc)">
     <use style="fill:#ff0000;stroke:#ff0000;" x="212.025627" xlink:href="#C0_0_2a8bef8047" y="281.009587"/>
    </g>
    <g clip-path="url(#peabedeabfc)">
     <use style="fill:#ff0000;stroke:#ff0000;" x="387.306126" xlink:href="#C0_0_2a8bef8047" y="376.12131"/>
    </g>
    <g clip-path="url(#peabedeabfc)">
     <use style="fill:#ff0000;stroke:#ff0000;" x="289.456652" xlink:href="#C0_0_2a8bef8047" y="364.399594"/>
    </g>
    <g clip-path="url(#peabedeabfc)">
     <use style="fill:#ff0000;stroke:#ff0000;" x="411.985996" xlink:href="#C0_0_2a8bef8047" y="180.513084"/>
    </g>
    <g clip-path="url(#peabedeabfc)">
     <use style="fill:#ff0000;stroke:#ff0000;" x="469.199568" xlink:href="#C0_0_2a8bef8047" y="107.607273"/>
    </g>
    <g clip-path="url(#peabedeabfc)">
     <use style="fill:#ff0000;stroke:#ff0000;" x="448.054983" xlink:href="#C0_0_2a8bef8047" y="391.703552"/>
    </g>
    <g clip-path="url(#peabedeabfc)">
     <use style="fill:#ff0000;stroke:#ff0000;" x="498.149112" xlink:href="#C0_0_2a8bef8047" y="259.552191"/>
    </g>
    <g clip-path="url(#peabedeabfc)">
     <use style="fill:#ff0000;stroke:#ff0000;" x="370.701517" xlink:href="#C0_0_2a8bef8047" y="277.986498"/>
    </g>
    <g clip-path="url(#peabedeabfc)">
     <use style="fill:#ff0000;stroke:#ff0000;" x="387.352738" xlink:href="#C0_0_2a8bef8047" y="157.335889"/>
    </g>
    <g clip-path="url(#peabedeabfc)">
     <use style="fill:#ff0000;stroke:#ff0000;" x="460.830701" xlink:href="#C0_0_2a8bef8047" y="451.108869"/>
    </g>
    <g clip-path="url(#peabedeabfc)">
     <use style="fill:#ff0000;stroke:#ff0000;" x="249.585073" xlink:href="#C0_0_2a8bef8047" y="187.798644"/>
    </g>
    <g clip-path="url(#peabedeabfc)">
     <use style="fill:#ff0000;stroke:#ff0000;" x="195.72827" xlink:href="#C0_0_2a8bef8047" y="243.797586"/>
    </g>
    <g clip-path="url(#peabedeabfc)">
     <use style="fill:#ff0000;stroke:#ff0000;" x="166.105785" xlink:href="#C0_0_2a8bef8047" y="332.02676"/>
    </g>
    <g clip-path="url(#peabedeabfc)">
     <use style="fill:#008000;stroke:#008000;" x="406.01984" xlink:href="#C0_0_2a8bef8047" y="202.274902"/>
    </g>
    <g clip-path="url(#peabedeabfc)">
     <use style="fill:#ff0000;stroke:#ff0000;" x="357.001587" xlink:href="#C0_0_2a8bef8047" y="461.544039"/>
    </g>
    <g clip-path="url(#peabedeabfc)">
     <use style="fill:#ff0000;stroke:#ff0000;" x="305.034248" xlink:href="#C0_0_2a8bef8047" y="456.732258"/>
    </g>
    <g clip-path="url(#peabedeabfc)">
     <use style="fill:#ff0000;stroke:#ff0000;" x="407.187465" xlink:href="#C0_0_2a8bef8047" y="474.152727"/>
    </g>
    <g clip-path="url(#peabedeabfc)">
     <use style="fill:#008000;stroke:#008000;" x="481.500579" xlink:href="#C0_0_2a8bef8047" y="273.753595"/>
    </g>
    <g clip-path="url(#peabedeabfc)">
     <use style="fill:#ff0000;stroke:#ff0000;" x="200.432461" xlink:href="#C0_0_2a8bef8047" y="385.648076"/>
    </g>
    <g clip-path="url(#peabedeabfc)">
     <use style="fill:#ff0000;stroke:#ff0000;" x="719.494215" xlink:href="#C0_0_2a8bef8047" y="246.436796"/>
    </g>
    <g clip-path="url(#peabedeabfc)">
     <use style="fill:#ff0000;stroke:#ff0000;" x="270.086612" xlink:href="#C0_0_2a8bef8047" y="293.628005"/>
    </g>
    <g clip-path="url(#peabedeabfc)">
     <use style="fill:#ff0000;stroke:#ff0000;" x="427.606009" xlink:href="#C0_0_2a8bef8047" y="306.181134"/>
    </g>
    <g clip-path="url(#peabedeabfc)">
     <use style="fill:#ff0000;stroke:#ff0000;" x="457.192855" xlink:href="#C0_0_2a8bef8047" y="246.955641"/>
    </g>
    <g clip-path="url(#peabedeabfc)">
     <use style="fill:#ff0000;stroke:#ff0000;" x="638.911309" xlink:href="#C0_0_2a8bef8047" y="157.843844"/>
    </g>
    <g clip-path="url(#peabedeabfc)">
     <use style="fill:#ff0000;stroke:#ff0000;" x="183.951422" xlink:href="#C0_0_2a8bef8047" y="271.749436"/>
    </g>
    <g clip-path="url(#peabedeabfc)">
     <use style="fill:#ff0000;stroke:#ff0000;" x="662.672523" xlink:href="#C0_0_2a8bef8047" y="411.863517"/>
    </g>
    <g clip-path="url(#peabedeabfc)">
     <use style="fill:#ff0000;stroke:#ff0000;" x="313.618496" xlink:href="#C0_0_2a8bef8047" y="328.526274"/>
    </g>
    <g clip-path="url(#peabedeabfc)">
     <use style="fill:#ff0000;stroke:#ff0000;" x="404.934442" xlink:href="#C0_0_2a8bef8047" y="347.86869"/>
    </g>
    <g clip-path="url(#peabedeabfc)">
     <use style="fill:#ff0000;stroke:#ff0000;" x="497.77717" xlink:href="#C0_0_2a8bef8047" y="293.12401"/>
    </g>
    <g clip-path="url(#peabedeabfc)">
     <use style="fill:#008000;stroke:#008000;" x="485.412464" xlink:href="#C0_0_2a8bef8047" y="291.981542"/>
    </g>
    <g clip-path="url(#peabedeabfc)">
     <use style="fill:#ff0000;stroke:#ff0000;" x="485.47542" xlink:href="#C0_0_2a8bef8047" y="470.948884"/>
    </g>
    <g clip-path="url(#peabedeabfc)">
     <use style="fill:#ff0000;stroke:#ff0000;" x="692.11826" xlink:href="#C0_0_2a8bef8047" y="190.172101"/>
    </g>
    <g clip-path="url(#peabedeabfc)">
     <use style="fill:#ff0000;stroke:#ff0000;" x="554.314849" xlink:href="#C0_0_2a8bef8047" y="120.341556"/>
    </g>
    <g clip-path="url(#peabedeabfc)">
     <use style="fill:#ff0000;stroke:#ff0000;" x="378.566892" xlink:href="#C0_0_2a8bef8047" y="116.970796"/>
    </g>
    <g clip-path="url(#peabedeabfc)">
     <use style="fill:#ff0000;stroke:#ff0000;" x="591.976848" xlink:href="#C0_0_2a8bef8047" y="454.548673"/>
    </g>
    <g clip-path="url(#peabedeabfc)">
     <use style="fill:#ff0000;stroke:#ff0000;" x="238.988982" xlink:href="#C0_0_2a8bef8047" y="402.864093"/>
    </g>
    <g clip-path="url(#peabedeabfc)">
     <use style="fill:#ff0000;stroke:#ff0000;" x="361.883234" xlink:href="#C0_0_2a8bef8047" y="356.524112"/>
    </g>
    <g clip-path="url(#peabedeabfc)">
     <use style="fill:#ff0000;stroke:#ff0000;" x="474.903551" xlink:href="#C0_0_2a8bef8047" y="320.121426"/>
    </g>
    <g clip-path="url(#peabedeabfc)">
     <use style="fill:#ff0000;stroke:#ff0000;" x="482.302185" xlink:href="#C0_0_2a8bef8047" y="334.115365"/>
    </g>
   </g>
   <g id="text_1">
    <g clip-path="url(#peabedeabfc)">
     <!-- TNF -->
     <g transform="translate(537.921466 412.211006)scale(0.12 -0.12)">
      <defs>
       <path d="M -0.296875 72.90625 
L 61.375 72.90625 
L 61.375 64.59375 
L 35.5 64.59375 
L 35.5 0 
L 25.59375 0 
L 25.59375 64.59375 
L -0.296875 64.59375 
z
" id="DejaVuSans-84"/>
       <path d="M 9.8125 72.90625 
L 23.09375 72.90625 
L 55.421875 11.921875 
L 55.421875 72.90625 
L 64.984375 72.90625 
L 64.984375 0 
L 51.703125 0 
L 19.390625 60.984375 
L 19.390625 0 
L 9.8125 0 
z
" id="DejaVuSans-78"/>
       <path d="M 9.8125 72.90625 
L 51.703125 72.90625 
L 51.703125 64.59375 
L 19.671875 64.59375 
L 19.671875 43.109375 
L 48.578125 43.109375 
L 48.578125 34.8125 
L 19.671875 34.8125 
L 19.671875 0 
L 9.8125 0 
z
" id="DejaVuSans-70"/>
      </defs>
      <use xlink:href="#DejaVuSans-84"/>
      <use x="61.083984" xlink:href="#DejaVuSans-78"/>
      <use x="135.888672" xlink:href="#DejaVuSans-70"/>
     </g>
    </g>
   </g>
   <g id="text_2">
    <g clip-path="url(#peabedeabfc)">
     <!-- TNFRSF1A -->
     <g transform="translate(397.359317 436.642299)scale(0.12 -0.12)">
      <defs>
       <path d="M 44.390625 34.1875 
Q 47.5625 33.109375 50.5625 29.59375 
Q 53.5625 26.078125 56.59375 19.921875 
L 66.609375 0 
L 56 0 
L 46.6875 18.703125 
Q 43.0625 26.03125 39.671875 28.421875 
Q 36.28125 30.8125 30.421875 30.8125 
L 19.671875 30.8125 
L 19.671875 0 
L 9.8125 0 
L 9.8125 72.90625 
L 32.078125 72.90625 
Q 44.578125 72.90625 50.734375 67.671875 
Q 56.890625 62.453125 56.890625 51.90625 
Q 56.890625 45.015625 53.6875 40.46875 
Q 50.484375 35.9375 44.390625 34.1875 
z
M 19.671875 64.796875 
L 19.671875 38.921875 
L 32.078125 38.921875 
Q 39.203125 38.921875 42.84375 42.21875 
Q 46.484375 45.515625 46.484375 51.90625 
Q 46.484375 58.296875 42.84375 61.546875 
Q 39.203125 64.796875 32.078125 64.796875 
z
" id="DejaVuSans-82"/>
       <path d="M 53.515625 70.515625 
L 53.515625 60.890625 
Q 47.90625 63.578125 42.921875 64.890625 
Q 37.9375 66.21875 33.296875 66.21875 
Q 25.25 66.21875 20.875 63.09375 
Q 16.5 59.96875 16.5 54.203125 
Q 16.5 49.359375 19.40625 46.890625 
Q 22.3125 44.4375 30.421875 42.921875 
L 36.375 41.703125 
Q 47.40625 39.59375 52.65625 34.296875 
Q 57.90625 29 57.90625 20.125 
Q 57.90625 9.515625 50.796875 4.046875 
Q 43.703125 -1.421875 29.984375 -1.421875 
Q 24.8125 -1.421875 18.96875 -0.25 
Q 13.140625 0.921875 6.890625 3.21875 
L 6.890625 13.375 
Q 12.890625 10.015625 18.65625 8.296875 
Q 24.421875 6.59375 29.984375 6.59375 
Q 38.421875 6.59375 43.015625 9.90625 
Q 47.609375 13.234375 47.609375 19.390625 
Q 47.609375 24.75 44.3125 27.78125 
Q 41.015625 30.8125 33.5 32.328125 
L 27.484375 33.5 
Q 16.453125 35.6875 11.515625 40.375 
Q 6.59375 45.0625 6.59375 53.421875 
Q 6.59375 63.09375 13.40625 68.65625 
Q 20.21875 74.21875 32.171875 74.21875 
Q 37.3125 74.21875 42.625 73.28125 
Q 47.953125 72.359375 53.515625 70.515625 
z
" id="DejaVuSans-83"/>
       <path d="M 12.40625 8.296875 
L 28.515625 8.296875 
L 28.515625 63.921875 
L 10.984375 60.40625 
L 10.984375 69.390625 
L 28.421875 72.90625 
L 38.28125 72.90625 
L 38.28125 8.296875 
L 54.390625 8.296875 
L 54.390625 0 
L 12.40625 0 
z
" id="DejaVuSans-49"/>
       <path d="M 34.1875 63.1875 
L 20.796875 26.90625 
L 47.609375 26.90625 
z
M 28.609375 72.90625 
L 39.796875 72.90625 
L 67.578125 0 
L 57.328125 0 
L 50.6875 18.703125 
L 17.828125 18.703125 
L 11.1875 0 
L 0.78125 0 
z
" id="DejaVuSans-65"/>
      </defs>
      <use xlink:href="#DejaVuSans-84"/>
      <use x="61.083984" xlink:href="#DejaVuSans-78"/>
      <use x="135.888672" xlink:href="#DejaVuSans-70"/>
      <use x="193.408203" xlink:href="#DejaVuSans-82"/>
      <use x="262.890625" xlink:href="#DejaVuSans-83"/>
      <use x="326.367188" xlink:href="#DejaVuSans-70"/>
      <use x="383.886719" xlink:href="#DejaVuSans-49"/>
      <use x="447.509766" xlink:href="#DejaVuSans-65"/>
     </g>
    </g>
   </g>
   <g id="text_3">
    <g clip-path="url(#peabedeabfc)">
     <!-- TRADD -->
     <g transform="translate(243.871122 435.123679)scale(0.12 -0.12)">
      <defs>
       <path d="M 19.671875 64.796875 
L 19.671875 8.109375 
L 31.59375 8.109375 
Q 46.6875 8.109375 53.6875 14.9375 
Q 60.6875 21.78125 60.6875 36.53125 
Q 60.6875 51.171875 53.6875 57.984375 
Q 46.6875 64.796875 31.59375 64.796875 
z
M 9.8125 72.90625 
L 30.078125 72.90625 
Q 51.265625 72.90625 61.171875 64.09375 
Q 71.09375 55.28125 71.09375 36.53125 
Q 71.09375 17.671875 61.125 8.828125 
Q 51.171875 0 30.078125 0 
L 9.8125 0 
z
" id="DejaVuSans-68"/>
      </defs>
      <use xlink:href="#DejaVuSans-84"/>
      <use x="61.083984" xlink:href="#DejaVuSans-82"/>
      <use x="126.566406" xlink:href="#DejaVuSans-65"/>
      <use x="194.974609" xlink:href="#DejaVuSans-68"/>
      <use x="271.976562" xlink:href="#DejaVuSans-68"/>
     </g>
    </g>
   </g>
   <g id="text_4">
    <g clip-path="url(#peabedeabfc)">
     <!-- RIPK1 -->
     <g transform="translate(327.032271 296.975014)scale(0.12 -0.12)">
      <defs>
       <path d="M 9.8125 72.90625 
L 19.671875 72.90625 
L 19.671875 0 
L 9.8125 0 
z
" id="DejaVuSans-73"/>
       <path d="M 19.671875 64.796875 
L 19.671875 37.40625 
L 32.078125 37.40625 
Q 38.96875 37.40625 42.71875 40.96875 
Q 46.484375 44.53125 46.484375 51.125 
Q 46.484375 57.671875 42.71875 61.234375 
Q 38.96875 64.796875 32.078125 64.796875 
z
M 9.8125 72.90625 
L 32.078125 72.90625 
Q 44.34375 72.90625 50.609375 67.359375 
Q 56.890625 61.8125 56.890625 51.125 
Q 56.890625 40.328125 50.609375 34.8125 
Q 44.34375 29.296875 32.078125 29.296875 
L 19.671875 29.296875 
L 19.671875 0 
L 9.8125 0 
z
" id="DejaVuSans-80"/>
       <path d="M 9.8125 72.90625 
L 19.671875 72.90625 
L 19.671875 42.09375 
L 52.390625 72.90625 
L 65.09375 72.90625 
L 28.90625 38.921875 
L 67.671875 0 
L 54.6875 0 
L 19.671875 35.109375 
L 19.671875 0 
L 9.8125 0 
z
" id="DejaVuSans-75"/>
      </defs>
      <use xlink:href="#DejaVuSans-82"/>
      <use x="69.482422" xlink:href="#DejaVuSans-73"/>
      <use x="98.974609" xlink:href="#DejaVuSans-80"/>
      <use x="159.277344" xlink:href="#DejaVuSans-75"/>
      <use x="224.853516" xlink:href="#DejaVuSans-49"/>
     </g>
    </g>
   </g>
   <g id="text_5">
    <g clip-path="url(#peabedeabfc)">
     <!-- MAP3K7 -->
     <g transform="translate(424.205744 325.131941)scale(0.12 -0.12)">
      <defs>
       <path d="M 9.8125 72.90625 
L 24.515625 72.90625 
L 43.109375 23.296875 
L 61.8125 72.90625 
L 76.515625 72.90625 
L 76.515625 0 
L 66.890625 0 
L 66.890625 64.015625 
L 48.09375 14.015625 
L 38.1875 14.015625 
L 19.390625 64.015625 
L 19.390625 0 
L 9.8125 0 
z
" id="DejaVuSans-77"/>
       <path d="M 40.578125 39.3125 
Q 47.65625 37.796875 51.625 33 
Q 55.609375 28.21875 55.609375 21.1875 
Q 55.609375 10.40625 48.1875 4.484375 
Q 40.765625 -1.421875 27.09375 -1.421875 
Q 22.515625 -1.421875 17.65625 -0.515625 
Q 12.796875 0.390625 7.625 2.203125 
L 7.625 11.71875 
Q 11.71875 9.328125 16.59375 8.109375 
Q 21.484375 6.890625 26.8125 6.890625 
Q 36.078125 6.890625 40.9375 10.546875 
Q 45.796875 14.203125 45.796875 21.1875 
Q 45.796875 27.640625 41.28125 31.265625 
Q 36.765625 34.90625 28.71875 34.90625 
L 20.21875 34.90625 
L 20.21875 43.015625 
L 29.109375 43.015625 
Q 36.375 43.015625 40.234375 45.921875 
Q 44.09375 48.828125 44.09375 54.296875 
Q 44.09375 59.90625 40.109375 62.90625 
Q 36.140625 65.921875 28.71875 65.921875 
Q 24.65625 65.921875 20.015625 65.03125 
Q 15.375 64.15625 9.8125 62.3125 
L 9.8125 71.09375 
Q 15.4375 72.65625 20.34375 73.4375 
Q 25.25 74.21875 29.59375 74.21875 
Q 40.828125 74.21875 47.359375 69.109375 
Q 53.90625 64.015625 53.90625 55.328125 
Q 53.90625 49.265625 50.4375 45.09375 
Q 46.96875 40.921875 40.578125 39.3125 
z
" id="DejaVuSans-51"/>
       <path d="M 8.203125 72.90625 
L 55.078125 72.90625 
L 55.078125 68.703125 
L 28.609375 0 
L 18.3125 0 
L 43.21875 64.59375 
L 8.203125 64.59375 
z
" id="DejaVuSans-55"/>
      </defs>
      <use xlink:href="#DejaVuSans-77"/>
      <use x="86.279297" xlink:href="#DejaVuSans-65"/>
      <use x="154.6875" xlink:href="#DejaVuSans-80"/>
      <use x="214.990234" xlink:href="#DejaVuSans-51"/>
      <use x="278.613281" xlink:href="#DejaVuSans-75"/>
      <use x="344.189453" xlink:href="#DejaVuSans-55"/>
     </g>
    </g>
   </g>
   <g id="text_6">
    <g clip-path="url(#peabedeabfc)">
     <!-- IKBKG -->
     <g transform="translate(193.620627 284.320837)scale(0.12 -0.12)">
      <defs>
       <path d="M 19.671875 34.8125 
L 19.671875 8.109375 
L 35.5 8.109375 
Q 43.453125 8.109375 47.28125 11.40625 
Q 51.125 14.703125 51.125 21.484375 
Q 51.125 28.328125 47.28125 31.5625 
Q 43.453125 34.8125 35.5 34.8125 
z
M 19.671875 64.796875 
L 19.671875 42.828125 
L 34.28125 42.828125 
Q 41.5 42.828125 45.03125 45.53125 
Q 48.578125 48.25 48.578125 53.8125 
Q 48.578125 59.328125 45.03125 62.0625 
Q 41.5 64.796875 34.28125 64.796875 
z
M 9.8125 72.90625 
L 35.015625 72.90625 
Q 46.296875 72.90625 52.390625 68.21875 
Q 58.5 63.53125 58.5 54.890625 
Q 58.5 48.1875 55.375 44.234375 
Q 52.25 40.28125 46.1875 39.3125 
Q 53.46875 37.75 57.5 32.78125 
Q 61.53125 27.828125 61.53125 20.40625 
Q 61.53125 10.640625 54.890625 5.3125 
Q 48.25 0 35.984375 0 
L 9.8125 0 
z
" id="DejaVuSans-66"/>
       <path d="M 59.515625 10.40625 
L 59.515625 29.984375 
L 43.40625 29.984375 
L 43.40625 38.09375 
L 69.28125 38.09375 
L 69.28125 6.78125 
Q 63.578125 2.734375 56.6875 0.65625 
Q 49.8125 -1.421875 42 -1.421875 
Q 24.90625 -1.421875 15.25 8.5625 
Q 5.609375 18.5625 5.609375 36.375 
Q 5.609375 54.25 15.25 64.234375 
Q 24.90625 74.21875 42 74.21875 
Q 49.125 74.21875 55.546875 72.453125 
Q 61.96875 70.703125 67.390625 67.28125 
L 67.390625 56.78125 
Q 61.921875 61.421875 55.765625 63.765625 
Q 49.609375 66.109375 42.828125 66.109375 
Q 29.4375 66.109375 22.71875 58.640625 
Q 16.015625 51.171875 16.015625 36.375 
Q 16.015625 21.625 22.71875 14.15625 
Q 29.4375 6.6875 42.828125 6.6875 
Q 48.046875 6.6875 52.140625 7.59375 
Q 56.25 8.5 59.515625 10.40625 
z
" id="DejaVuSans-71"/>
      </defs>
      <use xlink:href="#DejaVuSans-73"/>
      <use x="29.492188" xlink:href="#DejaVuSans-75"/>
      <use x="95.068359" xlink:href="#DejaVuSans-66"/>
      <use x="163.671875" xlink:href="#DejaVuSans-75"/>
      <use x="229.248047" xlink:href="#DejaVuSans-71"/>
     </g>
    </g>
   </g>
   <g id="text_7">
    <g clip-path="url(#peabedeabfc)">
     <!-- IKBKB -->
     <g transform="translate(369.433626 379.43256)scale(0.12 -0.12)">
      <use xlink:href="#DejaVuSans-73"/>
      <use x="29.492188" xlink:href="#DejaVuSans-75"/>
      <use x="95.068359" xlink:href="#DejaVuSans-66"/>
      <use x="163.671875" xlink:href="#DejaVuSans-75"/>
      <use x="229.248047" xlink:href="#DejaVuSans-66"/>
     </g>
    </g>
   </g>
   <g id="text_8">
    <g clip-path="url(#peabedeabfc)">
     <!-- NFKBIA -->
     <g transform="translate(267.591339 367.710844)scale(0.12 -0.12)">
      <use xlink:href="#DejaVuSans-78"/>
      <use x="74.804688" xlink:href="#DejaVuSans-70"/>
      <use x="132.324219" xlink:href="#DejaVuSans-75"/>
      <use x="197.900391" xlink:href="#DejaVuSans-66"/>
      <use x="266.503906" xlink:href="#DejaVuSans-73"/>
      <use x="295.996094" xlink:href="#DejaVuSans-65"/>
     </g>
    </g>
   </g>
   <g id="text_9">
    <g clip-path="url(#peabedeabfc)">
     <!-- MAP3K8 -->
     <g transform="translate(387.517246 183.824334)scale(0.12 -0.12)">
      <defs>
       <path d="M 31.78125 34.625 
Q 24.75 34.625 20.71875 30.859375 
Q 16.703125 27.09375 16.703125 20.515625 
Q 16.703125 13.921875 20.71875 10.15625 
Q 24.75 6.390625 31.78125 6.390625 
Q 38.8125 6.390625 42.859375 10.171875 
Q 46.921875 13.96875 46.921875 20.515625 
Q 46.921875 27.09375 42.890625 30.859375 
Q 38.875 34.625 31.78125 34.625 
z
M 21.921875 38.8125 
Q 15.578125 40.375 12.03125 44.71875 
Q 8.5 49.078125 8.5 55.328125 
Q 8.5 64.0625 14.71875 69.140625 
Q 20.953125 74.21875 31.78125 74.21875 
Q 42.671875 74.21875 48.875 69.140625 
Q 55.078125 64.0625 55.078125 55.328125 
Q 55.078125 49.078125 51.53125 44.71875 
Q 48 40.375 41.703125 38.8125 
Q 48.828125 37.15625 52.796875 32.3125 
Q 56.78125 27.484375 56.78125 20.515625 
Q 56.78125 9.90625 50.3125 4.234375 
Q 43.84375 -1.421875 31.78125 -1.421875 
Q 19.734375 -1.421875 13.25 4.234375 
Q 6.78125 9.90625 6.78125 20.515625 
Q 6.78125 27.484375 10.78125 32.3125 
Q 14.796875 37.15625 21.921875 38.8125 
z
M 18.3125 54.390625 
Q 18.3125 48.734375 21.84375 45.5625 
Q 25.390625 42.390625 31.78125 42.390625 
Q 38.140625 42.390625 41.71875 45.5625 
Q 45.3125 48.734375 45.3125 54.390625 
Q 45.3125 60.0625 41.71875 63.234375 
Q 38.140625 66.40625 31.78125 66.40625 
Q 25.390625 66.40625 21.84375 63.234375 
Q 18.3125 60.0625 18.3125 54.390625 
z
" id="DejaVuSans-56"/>
      </defs>
      <use xlink:href="#DejaVuSans-77"/>
      <use x="86.279297" xlink:href="#DejaVuSans-65"/>
      <use x="154.6875" xlink:href="#DejaVuSans-80"/>
      <use x="214.990234" xlink:href="#DejaVuSans-51"/>
      <use x="278.613281" xlink:href="#DejaVuSans-75"/>
      <use x="344.189453" xlink:href="#DejaVuSans-56"/>
     </g>
    </g>
   </g>
   <g id="text_10">
    <g clip-path="url(#peabedeabfc)">
     <!-- MAP2K1 -->
     <g transform="translate(444.730818 110.918523)scale(0.12 -0.12)">
      <defs>
       <path d="M 19.1875 8.296875 
L 53.609375 8.296875 
L 53.609375 0 
L 7.328125 0 
L 7.328125 8.296875 
Q 12.9375 14.109375 22.625 23.890625 
Q 32.328125 33.6875 34.8125 36.53125 
Q 39.546875 41.84375 41.421875 45.53125 
Q 43.3125 49.21875 43.3125 52.78125 
Q 43.3125 58.59375 39.234375 62.25 
Q 35.15625 65.921875 28.609375 65.921875 
Q 23.96875 65.921875 18.8125 64.3125 
Q 13.671875 62.703125 7.8125 59.421875 
L 7.8125 69.390625 
Q 13.765625 71.78125 18.9375 73 
Q 24.125 74.21875 28.421875 74.21875 
Q 39.75 74.21875 46.484375 68.546875 
Q 53.21875 62.890625 53.21875 53.421875 
Q 53.21875 48.921875 51.53125 44.890625 
Q 49.859375 40.875 45.40625 35.40625 
Q 44.1875 33.984375 37.640625 27.21875 
Q 31.109375 20.453125 19.1875 8.296875 
z
" id="DejaVuSans-50"/>
      </defs>
      <use xlink:href="#DejaVuSans-77"/>
      <use x="86.279297" xlink:href="#DejaVuSans-65"/>
      <use x="154.6875" xlink:href="#DejaVuSans-80"/>
      <use x="214.990234" xlink:href="#DejaVuSans-50"/>
      <use x="278.613281" xlink:href="#DejaVuSans-75"/>
      <use x="344.189453" xlink:href="#DejaVuSans-49"/>
     </g>
    </g>
   </g>
   <g id="text_11">
    <g clip-path="url(#peabedeabfc)">
     <!-- TNFRSF1B -->
     <g transform="translate(417.087483 395.014802)scale(0.12 -0.12)">
      <use xlink:href="#DejaVuSans-84"/>
      <use x="61.083984" xlink:href="#DejaVuSans-78"/>
      <use x="135.888672" xlink:href="#DejaVuSans-70"/>
      <use x="193.408203" xlink:href="#DejaVuSans-82"/>
      <use x="262.890625" xlink:href="#DejaVuSans-83"/>
      <use x="326.367188" xlink:href="#DejaVuSans-70"/>
      <use x="383.886719" xlink:href="#DejaVuSans-49"/>
      <use x="447.509766" xlink:href="#DejaVuSans-66"/>
     </g>
    </g>
   </g>
   <g id="text_12">
    <g clip-path="url(#peabedeabfc)">
     <!-- TRAF2 -->
     <g transform="translate(479.182549 262.863441)scale(0.12 -0.12)">
      <use xlink:href="#DejaVuSans-84"/>
      <use x="61.083984" xlink:href="#DejaVuSans-82"/>
      <use x="126.566406" xlink:href="#DejaVuSans-65"/>
      <use x="194.974609" xlink:href="#DejaVuSans-70"/>
      <use x="252.494141" xlink:href="#DejaVuSans-50"/>
     </g>
    </g>
   </g>
   <g id="text_13">
    <g clip-path="url(#peabedeabfc)">
     <!-- MAP3K14 -->
     <g transform="translate(342.415267 281.297748)scale(0.12 -0.12)">
      <defs>
       <path d="M 37.796875 64.3125 
L 12.890625 25.390625 
L 37.796875 25.390625 
z
M 35.203125 72.90625 
L 47.609375 72.90625 
L 47.609375 25.390625 
L 58.015625 25.390625 
L 58.015625 17.1875 
L 47.609375 17.1875 
L 47.609375 0 
L 37.796875 0 
L 37.796875 17.1875 
L 4.890625 17.1875 
L 4.890625 26.703125 
z
" id="DejaVuSans-52"/>
      </defs>
      <use xlink:href="#DejaVuSans-77"/>
      <use x="86.279297" xlink:href="#DejaVuSans-65"/>
      <use x="154.6875" xlink:href="#DejaVuSans-80"/>
      <use x="214.990234" xlink:href="#DejaVuSans-51"/>
      <use x="278.613281" xlink:href="#DejaVuSans-75"/>
      <use x="344.189453" xlink:href="#DejaVuSans-49"/>
      <use x="407.8125" xlink:href="#DejaVuSans-52"/>
     </g>
    </g>
   </g>
   <g id="text_14">
    <g clip-path="url(#peabedeabfc)">
     <!-- RIPK3 -->
     <g transform="translate(370.043676 160.647139)scale(0.12 -0.12)">
      <use xlink:href="#DejaVuSans-82"/>
      <use x="69.482422" xlink:href="#DejaVuSans-73"/>
      <use x="98.974609" xlink:href="#DejaVuSans-80"/>
      <use x="159.277344" xlink:href="#DejaVuSans-75"/>
      <use x="224.853516" xlink:href="#DejaVuSans-51"/>
     </g>
    </g>
   </g>
   <g id="text_15">
    <g clip-path="url(#peabedeabfc)">
     <!-- BAG4 -->
     <g transform="translate(444.248201 454.420119)scale(0.12 -0.12)">
      <use xlink:href="#DejaVuSans-66"/>
      <use x="68.603516" xlink:href="#DejaVuSans-65"/>
      <use x="135.261719" xlink:href="#DejaVuSans-71"/>
      <use x="212.751953" xlink:href="#DejaVuSans-52"/>
     </g>
    </g>
   </g>
   <g id="text_16">
    <g clip-path="url(#peabedeabfc)">
     <!-- MLKL -->
     <g transform="translate(233.787261 191.109894)scale(0.12 -0.12)">
      <defs>
       <path d="M 9.8125 72.90625 
L 19.671875 72.90625 
L 19.671875 8.296875 
L 55.171875 8.296875 
L 55.171875 0 
L 9.8125 0 
z
" id="DejaVuSans-76"/>
      </defs>
      <use xlink:href="#DejaVuSans-77"/>
      <use x="86.279297" xlink:href="#DejaVuSans-76"/>
      <use x="141.992188" xlink:href="#DejaVuSans-75"/>
      <use x="207.568359" xlink:href="#DejaVuSans-76"/>
     </g>
    </g>
   </g>
   <g id="text_17">
    <g clip-path="url(#peabedeabfc)">
     <!-- PGAM5 -->
     <g transform="translate(174.362645 247.108836)scale(0.12 -0.12)">
      <defs>
       <path d="M 10.796875 72.90625 
L 49.515625 72.90625 
L 49.515625 64.59375 
L 19.828125 64.59375 
L 19.828125 46.734375 
Q 21.96875 47.46875 24.109375 47.828125 
Q 26.265625 48.1875 28.421875 48.1875 
Q 40.625 48.1875 47.75 41.5 
Q 54.890625 34.8125 54.890625 23.390625 
Q 54.890625 11.625 47.5625 5.09375 
Q 40.234375 -1.421875 26.90625 -1.421875 
Q 22.3125 -1.421875 17.546875 -0.640625 
Q 12.796875 0.140625 7.71875 1.703125 
L 7.71875 11.625 
Q 12.109375 9.234375 16.796875 8.0625 
Q 21.484375 6.890625 26.703125 6.890625 
Q 35.15625 6.890625 40.078125 11.328125 
Q 45.015625 15.765625 45.015625 23.390625 
Q 45.015625 31 40.078125 35.4375 
Q 35.15625 39.890625 26.703125 39.890625 
Q 22.75 39.890625 18.8125 39.015625 
Q 14.890625 38.140625 10.796875 36.28125 
z
" id="DejaVuSans-53"/>
      </defs>
      <use xlink:href="#DejaVuSans-80"/>
      <use x="60.302734" xlink:href="#DejaVuSans-71"/>
      <use x="137.792969" xlink:href="#DejaVuSans-65"/>
      <use x="206.201172" xlink:href="#DejaVuSans-77"/>
      <use x="292.480469" xlink:href="#DejaVuSans-53"/>
     </g>
    </g>
   </g>
   <g id="text_18">
    <g clip-path="url(#peabedeabfc)">
     <!-- DNM1L -->
     <g transform="translate(144.659535 335.33801)scale(0.12 -0.12)">
      <use xlink:href="#DejaVuSans-68"/>
      <use x="77.001953" xlink:href="#DejaVuSans-78"/>
      <use x="151.806641" xlink:href="#DejaVuSans-77"/>
      <use x="238.085938" xlink:href="#DejaVuSans-49"/>
      <use x="301.708984" xlink:href="#DejaVuSans-76"/>
     </g>
    </g>
   </g>
   <g id="text_19">
    <g clip-path="url(#peabedeabfc)">
     <!-- MAP3K5 -->
     <g transform="translate(381.55109 205.586152)scale(0.12 -0.12)">
      <use xlink:href="#DejaVuSans-77"/>
      <use x="86.279297" xlink:href="#DejaVuSans-65"/>
      <use x="154.6875" xlink:href="#DejaVuSans-80"/>
      <use x="214.990234" xlink:href="#DejaVuSans-51"/>
      <use x="278.613281" xlink:href="#DejaVuSans-75"/>
      <use x="344.189453" xlink:href="#DejaVuSans-53"/>
     </g>
    </g>
   </g>
   <g id="text_20">
    <g clip-path="url(#peabedeabfc)">
     <!-- DAB2IP -->
     <g transform="translate(335.060337 464.855289)scale(0.12 -0.12)">
      <use xlink:href="#DejaVuSans-68"/>
      <use x="75.251953" xlink:href="#DejaVuSans-65"/>
      <use x="143.660156" xlink:href="#DejaVuSans-66"/>
      <use x="212.263672" xlink:href="#DejaVuSans-50"/>
      <use x="275.886719" xlink:href="#DejaVuSans-73"/>
      <use x="305.378906" xlink:href="#DejaVuSans-80"/>
     </g>
    </g>
   </g>
   <g id="text_21">
    <g clip-path="url(#peabedeabfc)">
     <!-- MAP2K3 -->
     <g transform="translate(280.565498 460.043508)scale(0.12 -0.12)">
      <use xlink:href="#DejaVuSans-77"/>
      <use x="86.279297" xlink:href="#DejaVuSans-65"/>
      <use x="154.6875" xlink:href="#DejaVuSans-80"/>
      <use x="214.990234" xlink:href="#DejaVuSans-50"/>
      <use x="278.613281" xlink:href="#DejaVuSans-75"/>
      <use x="344.189453" xlink:href="#DejaVuSans-51"/>
     </g>
    </g>
   </g>
   <g id="text_22">
    <g clip-path="url(#peabedeabfc)">
     <!-- IRF1 -->
     <g transform="translate(393.979965 477.463977)scale(0.12 -0.12)">
      <use xlink:href="#DejaVuSans-73"/>
      <use x="29.492188" xlink:href="#DejaVuSans-82"/>
      <use x="98.974609" xlink:href="#DejaVuSans-70"/>
      <use x="156.494141" xlink:href="#DejaVuSans-49"/>
     </g>
    </g>
   </g>
   <g id="text_23">
    <g clip-path="url(#peabedeabfc)">
     <!-- FADD -->
     <g transform="translate(465.252767 277.064845)scale(0.12 -0.12)">
      <use xlink:href="#DejaVuSans-70"/>
      <use x="48.394531" xlink:href="#DejaVuSans-65"/>
      <use x="116.802734" xlink:href="#DejaVuSans-68"/>
      <use x="193.804688" xlink:href="#DejaVuSans-68"/>
     </g>
    </g>
   </g>
   <g id="text_24">
    <g clip-path="url(#peabedeabfc)">
     <!-- CASP7 -->
     <g transform="translate(180.894024 388.959326)scale(0.12 -0.12)">
      <defs>
       <path d="M 64.40625 67.28125 
L 64.40625 56.890625 
Q 59.421875 61.53125 53.78125 63.8125 
Q 48.140625 66.109375 41.796875 66.109375 
Q 29.296875 66.109375 22.65625 58.46875 
Q 16.015625 50.828125 16.015625 36.375 
Q 16.015625 21.96875 22.65625 14.328125 
Q 29.296875 6.6875 41.796875 6.6875 
Q 48.140625 6.6875 53.78125 8.984375 
Q 59.421875 11.28125 64.40625 15.921875 
L 64.40625 5.609375 
Q 59.234375 2.09375 53.4375 0.328125 
Q 47.65625 -1.421875 41.21875 -1.421875 
Q 24.65625 -1.421875 15.125 8.703125 
Q 5.609375 18.84375 5.609375 36.375 
Q 5.609375 53.953125 15.125 64.078125 
Q 24.65625 74.21875 41.21875 74.21875 
Q 47.75 74.21875 53.53125 72.484375 
Q 59.328125 70.75 64.40625 67.28125 
z
" id="DejaVuSans-67"/>
      </defs>
      <use xlink:href="#DejaVuSans-67"/>
      <use x="69.824219" xlink:href="#DejaVuSans-65"/>
      <use x="138.232422" xlink:href="#DejaVuSans-83"/>
      <use x="201.708984" xlink:href="#DejaVuSans-80"/>
      <use x="262.011719" xlink:href="#DejaVuSans-55"/>
     </g>
    </g>
   </g>
   <g id="text_25">
    <g clip-path="url(#peabedeabfc)">
     <!-- CASP3 -->
     <g transform="translate(699.955777 249.748046)scale(0.12 -0.12)">
      <use xlink:href="#DejaVuSans-67"/>
      <use x="69.824219" xlink:href="#DejaVuSans-65"/>
      <use x="138.232422" xlink:href="#DejaVuSans-83"/>
      <use x="201.708984" xlink:href="#DejaVuSans-80"/>
      <use x="262.011719" xlink:href="#DejaVuSans-51"/>
     </g>
    </g>
   </g>
   <g id="text_26">
    <g clip-path="url(#peabedeabfc)">
     <!-- ITCH -->
     <g transform="translate(256.30255 296.939255)scale(0.12 -0.12)">
      <defs>
       <path d="M 9.8125 72.90625 
L 19.671875 72.90625 
L 19.671875 43.015625 
L 55.515625 43.015625 
L 55.515625 72.90625 
L 65.375 72.90625 
L 65.375 0 
L 55.515625 0 
L 55.515625 34.71875 
L 19.671875 34.71875 
L 19.671875 0 
L 9.8125 0 
z
" id="DejaVuSans-72"/>
      </defs>
      <use xlink:href="#DejaVuSans-73"/>
      <use x="29.492188" xlink:href="#DejaVuSans-84"/>
      <use x="84.701172" xlink:href="#DejaVuSans-67"/>
      <use x="154.525391" xlink:href="#DejaVuSans-72"/>
     </g>
    </g>
   </g>
   <g id="text_27">
    <g clip-path="url(#peabedeabfc)">
     <!-- CFLAR -->
     <g transform="translate(408.213822 309.492384)scale(0.12 -0.12)">
      <use xlink:href="#DejaVuSans-67"/>
      <use x="69.824219" xlink:href="#DejaVuSans-70"/>
      <use x="127.34375" xlink:href="#DejaVuSans-76"/>
      <use x="185.306641" xlink:href="#DejaVuSans-65"/>
      <use x="253.714844" xlink:href="#DejaVuSans-82"/>
     </g>
    </g>
   </g>
   <g id="text_28">
    <g clip-path="url(#peabedeabfc)">
     <!-- TRAF5 -->
     <g transform="translate(438.226292 250.266891)scale(0.12 -0.12)">
      <use xlink:href="#DejaVuSans-84"/>
      <use x="61.083984" xlink:href="#DejaVuSans-82"/>
      <use x="126.566406" xlink:href="#DejaVuSans-65"/>
      <use x="194.974609" xlink:href="#DejaVuSans-70"/>
      <use x="252.494141" xlink:href="#DejaVuSans-53"/>
     </g>
    </g>
   </g>
   <g id="text_29">
    <g clip-path="url(#peabedeabfc)">
     <!-- MAP2K4 -->
     <g transform="translate(614.442559 161.155094)scale(0.12 -0.12)">
      <use xlink:href="#DejaVuSans-77"/>
      <use x="86.279297" xlink:href="#DejaVuSans-65"/>
      <use x="154.6875" xlink:href="#DejaVuSans-80"/>
      <use x="214.990234" xlink:href="#DejaVuSans-50"/>
      <use x="278.613281" xlink:href="#DejaVuSans-75"/>
      <use x="344.189453" xlink:href="#DejaVuSans-52"/>
     </g>
    </g>
   </g>
   <g id="text_30">
    <g clip-path="url(#peabedeabfc)">
     <!-- MAP2K7 -->
     <g transform="translate(159.482672 275.060686)scale(0.12 -0.12)">
      <use xlink:href="#DejaVuSans-77"/>
      <use x="86.279297" xlink:href="#DejaVuSans-65"/>
      <use x="154.6875" xlink:href="#DejaVuSans-80"/>
      <use x="214.990234" xlink:href="#DejaVuSans-50"/>
      <use x="278.613281" xlink:href="#DejaVuSans-75"/>
      <use x="344.189453" xlink:href="#DejaVuSans-55"/>
     </g>
    </g>
   </g>
   <g id="text_31">
    <g clip-path="url(#peabedeabfc)">
     <!-- MAP2K6 -->
     <g transform="translate(638.203773 415.174767)scale(0.12 -0.12)">
      <defs>
       <path d="M 33.015625 40.375 
Q 26.375 40.375 22.484375 35.828125 
Q 18.609375 31.296875 18.609375 23.390625 
Q 18.609375 15.53125 22.484375 10.953125 
Q 26.375 6.390625 33.015625 6.390625 
Q 39.65625 6.390625 43.53125 10.953125 
Q 47.40625 15.53125 47.40625 23.390625 
Q 47.40625 31.296875 43.53125 35.828125 
Q 39.65625 40.375 33.015625 40.375 
z
M 52.59375 71.296875 
L 52.59375 62.3125 
Q 48.875 64.0625 45.09375 64.984375 
Q 41.3125 65.921875 37.59375 65.921875 
Q 27.828125 65.921875 22.671875 59.328125 
Q 17.53125 52.734375 16.796875 39.40625 
Q 19.671875 43.65625 24.015625 45.921875 
Q 28.375 48.1875 33.59375 48.1875 
Q 44.578125 48.1875 50.953125 41.515625 
Q 57.328125 34.859375 57.328125 23.390625 
Q 57.328125 12.15625 50.6875 5.359375 
Q 44.046875 -1.421875 33.015625 -1.421875 
Q 20.359375 -1.421875 13.671875 8.265625 
Q 6.984375 17.96875 6.984375 36.375 
Q 6.984375 53.65625 15.1875 63.9375 
Q 23.390625 74.21875 37.203125 74.21875 
Q 40.921875 74.21875 44.703125 73.484375 
Q 48.484375 72.75 52.59375 71.296875 
z
" id="DejaVuSans-54"/>
      </defs>
      <use xlink:href="#DejaVuSans-77"/>
      <use x="86.279297" xlink:href="#DejaVuSans-65"/>
      <use x="154.6875" xlink:href="#DejaVuSans-80"/>
      <use x="214.990234" xlink:href="#DejaVuSans-50"/>
      <use x="278.613281" xlink:href="#DejaVuSans-75"/>
      <use x="344.189453" xlink:href="#DejaVuSans-54"/>
     </g>
    </g>
   </g>
   <g id="text_32">
    <g clip-path="url(#peabedeabfc)">
     <!-- RELA -->
     <g transform="translate(298.075683 331.837524)scale(0.12 -0.12)">
      <defs>
       <path d="M 9.8125 72.90625 
L 55.90625 72.90625 
L 55.90625 64.59375 
L 19.671875 64.59375 
L 19.671875 43.015625 
L 54.390625 43.015625 
L 54.390625 34.71875 
L 19.671875 34.71875 
L 19.671875 8.296875 
L 56.78125 8.296875 
L 56.78125 0 
L 9.8125 0 
z
" id="DejaVuSans-69"/>
      </defs>
      <use xlink:href="#DejaVuSans-82"/>
      <use x="69.482422" xlink:href="#DejaVuSans-69"/>
      <use x="132.666016" xlink:href="#DejaVuSans-76"/>
      <use x="190.628906" xlink:href="#DejaVuSans-65"/>
     </g>
    </g>
   </g>
   <g id="text_33">
    <g clip-path="url(#peabedeabfc)">
     <!-- NFKB1 -->
     <g transform="translate(385.126005 351.17994)scale(0.12 -0.12)">
      <use xlink:href="#DejaVuSans-78"/>
      <use x="74.804688" xlink:href="#DejaVuSans-70"/>
      <use x="132.324219" xlink:href="#DejaVuSans-75"/>
      <use x="197.900391" xlink:href="#DejaVuSans-66"/>
      <use x="266.503906" xlink:href="#DejaVuSans-49"/>
     </g>
    </g>
   </g>
   <g id="text_34">
    <g clip-path="url(#peabedeabfc)">
     <!-- RPS6KA5 -->
     <g transform="translate(470.61217 296.43526)scale(0.12 -0.12)">
      <use xlink:href="#DejaVuSans-82"/>
      <use x="69.482422" xlink:href="#DejaVuSans-80"/>
      <use x="129.785156" xlink:href="#DejaVuSans-83"/>
      <use x="193.261719" xlink:href="#DejaVuSans-54"/>
      <use x="256.884766" xlink:href="#DejaVuSans-75"/>
      <use x="320.710938" xlink:href="#DejaVuSans-65"/>
      <use x="389.119141" xlink:href="#DejaVuSans-53"/>
     </g>
    </g>
   </g>
   <g id="text_35">
    <g clip-path="url(#peabedeabfc)">
     <!-- RPS6KA4 -->
     <g transform="translate(458.247464 295.292792)scale(0.12 -0.12)">
      <use xlink:href="#DejaVuSans-82"/>
      <use x="69.482422" xlink:href="#DejaVuSans-80"/>
      <use x="129.785156" xlink:href="#DejaVuSans-83"/>
      <use x="193.261719" xlink:href="#DejaVuSans-54"/>
      <use x="256.884766" xlink:href="#DejaVuSans-75"/>
      <use x="320.710938" xlink:href="#DejaVuSans-65"/>
      <use x="389.119141" xlink:href="#DejaVuSans-52"/>
     </g>
    </g>
   </g>
   <g id="text_36">
    <g clip-path="url(#peabedeabfc)">
     <!-- CREB1 -->
     <g transform="translate(465.391357 474.260134)scale(0.12 -0.12)">
      <use xlink:href="#DejaVuSans-67"/>
      <use x="69.824219" xlink:href="#DejaVuSans-82"/>
      <use x="139.306641" xlink:href="#DejaVuSans-69"/>
      <use x="202.490234" xlink:href="#DejaVuSans-66"/>
      <use x="271.09375" xlink:href="#DejaVuSans-49"/>
     </g>
    </g>
   </g>
   <g id="text_37">
    <g clip-path="url(#peabedeabfc)">
     <!-- CREB3 -->
     <g transform="translate(672.034197 193.483351)scale(0.12 -0.12)">
      <use xlink:href="#DejaVuSans-67"/>
      <use x="69.824219" xlink:href="#DejaVuSans-82"/>
      <use x="139.306641" xlink:href="#DejaVuSans-69"/>
      <use x="202.490234" xlink:href="#DejaVuSans-66"/>
      <use x="271.09375" xlink:href="#DejaVuSans-51"/>
     </g>
    </g>
   </g>
   <g id="text_38">
    <g clip-path="url(#peabedeabfc)">
     <!-- ATF2 -->
     <g transform="translate(539.742349 123.652806)scale(0.12 -0.12)">
      <use xlink:href="#DejaVuSans-65"/>
      <use x="60.658203" xlink:href="#DejaVuSans-84"/>
      <use x="121.742188" xlink:href="#DejaVuSans-70"/>
      <use x="179.261719" xlink:href="#DejaVuSans-50"/>
     </g>
    </g>
   </g>
   <g id="text_39">
    <g clip-path="url(#peabedeabfc)">
     <!-- ATF4 -->
     <g transform="translate(363.994392 120.282046)scale(0.12 -0.12)">
      <use xlink:href="#DejaVuSans-65"/>
      <use x="60.658203" xlink:href="#DejaVuSans-84"/>
      <use x="121.742188" xlink:href="#DejaVuSans-70"/>
      <use x="179.261719" xlink:href="#DejaVuSans-52"/>
     </g>
    </g>
   </g>
   <g id="text_40">
    <g clip-path="url(#peabedeabfc)">
     <!-- CREB5 -->
     <g transform="translate(571.892785 457.859923)scale(0.12 -0.12)">
      <use xlink:href="#DejaVuSans-67"/>
      <use x="69.824219" xlink:href="#DejaVuSans-82"/>
      <use x="139.306641" xlink:href="#DejaVuSans-69"/>
      <use x="202.490234" xlink:href="#DejaVuSans-66"/>
      <use x="271.09375" xlink:href="#DejaVuSans-53"/>
     </g>
    </g>
   </g>
   <g id="text_41">
    <g clip-path="url(#peabedeabfc)">
     <!-- ATF6B -->
     <g transform="translate(220.299919 406.175343)scale(0.12 -0.12)">
      <use xlink:href="#DejaVuSans-65"/>
      <use x="60.658203" xlink:href="#DejaVuSans-84"/>
      <use x="121.742188" xlink:href="#DejaVuSans-70"/>
      <use x="179.261719" xlink:href="#DejaVuSans-54"/>
      <use x="242.884766" xlink:href="#DejaVuSans-66"/>
     </g>
    </g>
   </g>
   <g id="text_42">
    <g clip-path="url(#peabedeabfc)">
     <!-- LTA -->
     <g transform="translate(352.061047 359.835362)scale(0.12 -0.12)">
      <use xlink:href="#DejaVuSans-76"/>
      <use x="41.962891" xlink:href="#DejaVuSans-84"/>
      <use x="95.296875" xlink:href="#DejaVuSans-65"/>
     </g>
    </g>
   </g>
   <g id="text_43">
    <g clip-path="url(#peabedeabfc)">
     <!-- CASP8 -->
     <g transform="translate(455.365113 323.432676)scale(0.12 -0.12)">
      <use xlink:href="#DejaVuSans-67"/>
      <use x="69.824219" xlink:href="#DejaVuSans-65"/>
      <use x="138.232422" xlink:href="#DejaVuSans-83"/>
      <use x="201.708984" xlink:href="#DejaVuSans-80"/>
      <use x="262.011719" xlink:href="#DejaVuSans-56"/>
     </g>
    </g>
   </g>
   <g id="text_44">
    <g clip-path="url(#peabedeabfc)">
     <!-- CASP10 -->
     <g transform="translate(458.946248 337.426615)scale(0.12 -0.12)">
      <defs>
       <path d="M 31.78125 66.40625 
Q 24.171875 66.40625 20.328125 58.90625 
Q 16.5 51.421875 16.5 36.375 
Q 16.5 21.390625 20.328125 13.890625 
Q 24.171875 6.390625 31.78125 6.390625 
Q 39.453125 6.390625 43.28125 13.890625 
Q 47.125 21.390625 47.125 36.375 
Q 47.125 51.421875 43.28125 58.90625 
Q 39.453125 66.40625 31.78125 66.40625 
z
M 31.78125 74.21875 
Q 44.046875 74.21875 50.515625 64.515625 
Q 56.984375 54.828125 56.984375 36.375 
Q 56.984375 17.96875 50.515625 8.265625 
Q 44.046875 -1.421875 31.78125 -1.421875 
Q 19.53125 -1.421875 13.0625 8.265625 
Q 6.59375 17.96875 6.59375 36.375 
Q 6.59375 54.828125 13.0625 64.515625 
Q 19.53125 74.21875 31.78125 74.21875 
z
" id="DejaVuSans-48"/>
      </defs>
      <use xlink:href="#DejaVuSans-67"/>
      <use x="69.824219" xlink:href="#DejaVuSans-65"/>
      <use x="138.232422" xlink:href="#DejaVuSans-83"/>
      <use x="201.708984" xlink:href="#DejaVuSans-80"/>
      <use x="262.011719" xlink:href="#DejaVuSans-49"/>
      <use x="325.634766" xlink:href="#DejaVuSans-48"/>
     </g>
    </g>
   </g>
   <g id="text_45">
    <!-- Frame: 11 -->
    <g transform="translate(121.392 91.296)scale(0.1 -0.1)">
     <defs>
      <path d="M 41.109375 46.296875 
Q 39.59375 47.171875 37.8125 47.578125 
Q 36.03125 48 33.890625 48 
Q 26.265625 48 22.1875 43.046875 
Q 18.109375 38.09375 18.109375 28.8125 
L 18.109375 0 
L 9.078125 0 
L 9.078125 54.6875 
L 18.109375 54.6875 
L 18.109375 46.1875 
Q 20.953125 51.171875 25.484375 53.578125 
Q 30.03125 56 36.53125 56 
Q 37.453125 56 38.578125 55.875 
Q 39.703125 55.765625 41.0625 55.515625 
z
" id="DejaVuSans-114"/>
      <path d="M 34.28125 27.484375 
Q 23.390625 27.484375 19.1875 25 
Q 14.984375 22.515625 14.984375 16.5 
Q 14.984375 11.71875 18.140625 8.90625 
Q 21.296875 6.109375 26.703125 6.109375 
Q 34.1875 6.109375 38.703125 11.40625 
Q 43.21875 16.703125 43.21875 25.484375 
L 43.21875 27.484375 
z
M 52.203125 31.203125 
L 52.203125 0 
L 43.21875 0 
L 43.21875 8.296875 
Q 40.140625 3.328125 35.546875 0.953125 
Q 30.953125 -1.421875 24.3125 -1.421875 
Q 15.921875 -1.421875 10.953125 3.296875 
Q 6 8.015625 6 15.921875 
Q 6 25.140625 12.171875 29.828125 
Q 18.359375 34.515625 30.609375 34.515625 
L 43.21875 34.515625 
L 43.21875 35.40625 
Q 43.21875 41.609375 39.140625 45 
Q 35.0625 48.390625 27.6875 48.390625 
Q 23 48.390625 18.546875 47.265625 
Q 14.109375 46.140625 10.015625 43.890625 
L 10.015625 52.203125 
Q 14.9375 54.109375 19.578125 55.046875 
Q 24.21875 56 28.609375 56 
Q 40.484375 56 46.34375 49.84375 
Q 52.203125 43.703125 52.203125 31.203125 
z
" id="DejaVuSans-97"/>
      <path d="M 52 44.1875 
Q 55.375 50.25 60.0625 53.125 
Q 64.75 56 71.09375 56 
Q 79.640625 56 84.28125 50.015625 
Q 88.921875 44.046875 88.921875 33.015625 
L 88.921875 0 
L 79.890625 0 
L 79.890625 32.71875 
Q 79.890625 40.578125 77.09375 44.375 
Q 74.3125 48.1875 68.609375 48.1875 
Q 61.625 48.1875 57.5625 43.546875 
Q 53.515625 38.921875 53.515625 30.90625 
L 53.515625 0 
L 44.484375 0 
L 44.484375 32.71875 
Q 44.484375 40.625 41.703125 44.40625 
Q 38.921875 48.1875 33.109375 48.1875 
Q 26.21875 48.1875 22.15625 43.53125 
Q 18.109375 38.875 18.109375 30.90625 
L 18.109375 0 
L 9.078125 0 
L 9.078125 54.6875 
L 18.109375 54.6875 
L 18.109375 46.1875 
Q 21.1875 51.21875 25.484375 53.609375 
Q 29.78125 56 35.6875 56 
Q 41.65625 56 45.828125 52.96875 
Q 50 49.953125 52 44.1875 
z
" id="DejaVuSans-109"/>
      <path d="M 56.203125 29.59375 
L 56.203125 25.203125 
L 14.890625 25.203125 
Q 15.484375 15.921875 20.484375 11.0625 
Q 25.484375 6.203125 34.421875 6.203125 
Q 39.59375 6.203125 44.453125 7.46875 
Q 49.3125 8.734375 54.109375 11.28125 
L 54.109375 2.78125 
Q 49.265625 0.734375 44.1875 -0.34375 
Q 39.109375 -1.421875 33.890625 -1.421875 
Q 20.796875 -1.421875 13.15625 6.1875 
Q 5.515625 13.8125 5.515625 26.8125 
Q 5.515625 40.234375 12.765625 48.109375 
Q 20.015625 56 32.328125 56 
Q 43.359375 56 49.78125 48.890625 
Q 56.203125 41.796875 56.203125 29.59375 
z
M 47.21875 32.234375 
Q 47.125 39.59375 43.09375 43.984375 
Q 39.0625 48.390625 32.421875 48.390625 
Q 24.90625 48.390625 20.390625 44.140625 
Q 15.875 39.890625 15.1875 32.171875 
z
" id="DejaVuSans-101"/>
      <path d="M 11.71875 12.40625 
L 22.015625 12.40625 
L 22.015625 0 
L 11.71875 0 
z
M 11.71875 51.703125 
L 22.015625 51.703125 
L 22.015625 39.3125 
L 11.71875 39.3125 
z
" id="DejaVuSans-58"/>
      <path id="DejaVuSans-32"/>
     </defs>
     <use xlink:href="#DejaVuSans-70"/>
     <use x="50.269531" xlink:href="#DejaVuSans-114"/>
     <use x="91.382812" xlink:href="#DejaVuSans-97"/>
     <use x="152.662109" xlink:href="#DejaVuSans-109"/>
     <use x="250.074219" xlink:href="#DejaVuSans-101"/>
     <use x="311.597656" xlink:href="#DejaVuSans-58"/>
     <use x="345.289062" xlink:href="#DejaVuSans-32"/>
     <use x="377.076172" xlink:href="#DejaVuSans-49"/>
     <use x="440.699219" xlink:href="#DejaVuSans-49"/>
    </g>
   </g>
   <g id="text_46">
    <!-- Network: hsa04668 -->
    <g transform="translate(384.1275 63.12)scale(0.12 -0.12)">
     <defs>
      <path d="M 18.3125 70.21875 
L 18.3125 54.6875 
L 36.8125 54.6875 
L 36.8125 47.703125 
L 18.3125 47.703125 
L 18.3125 18.015625 
Q 18.3125 11.328125 20.140625 9.421875 
Q 21.96875 7.515625 27.59375 7.515625 
L 36.8125 7.515625 
L 36.8125 0 
L 27.59375 0 
Q 17.1875 0 13.234375 3.875 
Q 9.28125 7.765625 9.28125 18.015625 
L 9.28125 47.703125 
L 2.6875 47.703125 
L 2.6875 54.6875 
L 9.28125 54.6875 
L 9.28125 70.21875 
z
" id="DejaVuSans-116"/>
      <path d="M 4.203125 54.6875 
L 13.1875 54.6875 
L 24.421875 12.015625 
L 35.59375 54.6875 
L 46.1875 54.6875 
L 57.421875 12.015625 
L 68.609375 54.6875 
L 77.59375 54.6875 
L 63.28125 0 
L 52.6875 0 
L 40.921875 44.828125 
L 29.109375 0 
L 18.5 0 
z
" id="DejaVuSans-119"/>
      <path d="M 30.609375 48.390625 
Q 23.390625 48.390625 19.1875 42.75 
Q 14.984375 37.109375 14.984375 27.296875 
Q 14.984375 17.484375 19.15625 11.84375 
Q 23.34375 6.203125 30.609375 6.203125 
Q 37.796875 6.203125 41.984375 11.859375 
Q 46.1875 17.53125 46.1875 27.296875 
Q 46.1875 37.015625 41.984375 42.703125 
Q 37.796875 48.390625 30.609375 48.390625 
z
M 30.609375 56 
Q 42.328125 56 49.015625 48.375 
Q 55.71875 40.765625 55.71875 27.296875 
Q 55.71875 13.875 49.015625 6.21875 
Q 42.328125 -1.421875 30.609375 -1.421875 
Q 18.84375 -1.421875 12.171875 6.21875 
Q 5.515625 13.875 5.515625 27.296875 
Q 5.515625 40.765625 12.171875 48.375 
Q 18.84375 56 30.609375 56 
z
" id="DejaVuSans-111"/>
      <path d="M 9.078125 75.984375 
L 18.109375 75.984375 
L 18.109375 31.109375 
L 44.921875 54.6875 
L 56.390625 54.6875 
L 27.390625 29.109375 
L 57.625 0 
L 45.90625 0 
L 18.109375 26.703125 
L 18.109375 0 
L 9.078125 0 
z
" id="DejaVuSans-107"/>
      <path d="M 54.890625 33.015625 
L 54.890625 0 
L 45.90625 0 
L 45.90625 32.71875 
Q 45.90625 40.484375 42.875 44.328125 
Q 39.84375 48.1875 33.796875 48.1875 
Q 26.515625 48.1875 22.3125 43.546875 
Q 18.109375 38.921875 18.109375 30.90625 
L 18.109375 0 
L 9.078125 0 
L 9.078125 75.984375 
L 18.109375 75.984375 
L 18.109375 46.1875 
Q 21.34375 51.125 25.703125 53.5625 
Q 30.078125 56 35.796875 56 
Q 45.21875 56 50.046875 50.171875 
Q 54.890625 44.34375 54.890625 33.015625 
z
" id="DejaVuSans-104"/>
      <path d="M 44.28125 53.078125 
L 44.28125 44.578125 
Q 40.484375 46.53125 36.375 47.5 
Q 32.28125 48.484375 27.875 48.484375 
Q 21.1875 48.484375 17.84375 46.4375 
Q 14.5 44.390625 14.5 40.28125 
Q 14.5 37.15625 16.890625 35.375 
Q 19.28125 33.59375 26.515625 31.984375 
L 29.59375 31.296875 
Q 39.15625 29.25 43.1875 25.515625 
Q 47.21875 21.78125 47.21875 15.09375 
Q 47.21875 7.46875 41.1875 3.015625 
Q 35.15625 -1.421875 24.609375 -1.421875 
Q 20.21875 -1.421875 15.453125 -0.5625 
Q 10.6875 0.296875 5.421875 2 
L 5.421875 11.28125 
Q 10.40625 8.6875 15.234375 7.390625 
Q 20.0625 6.109375 24.8125 6.109375 
Q 31.15625 6.109375 34.5625 8.28125 
Q 37.984375 10.453125 37.984375 14.40625 
Q 37.984375 18.0625 35.515625 20.015625 
Q 33.0625 21.96875 24.703125 23.78125 
L 21.578125 24.515625 
Q 13.234375 26.265625 9.515625 29.90625 
Q 5.8125 33.546875 5.8125 39.890625 
Q 5.8125 47.609375 11.28125 51.796875 
Q 16.75 56 26.8125 56 
Q 31.78125 56 36.171875 55.265625 
Q 40.578125 54.546875 44.28125 53.078125 
z
" id="DejaVuSans-115"/>
     </defs>
     <use xlink:href="#DejaVuSans-78"/>
     <use x="74.804688" xlink:href="#DejaVuSans-101"/>
     <use x="136.328125" xlink:href="#DejaVuSans-116"/>
     <use x="175.537109" xlink:href="#DejaVuSans-119"/>
     <use x="257.324219" xlink:href="#DejaVuSans-111"/>
     <use x="318.505859" xlink:href="#DejaVuSans-114"/>
     <use x="359.619141" xlink:href="#DejaVuSans-107"/>
     <use x="417.529297" xlink:href="#DejaVuSans-58"/>
     <use x="451.220703" xlink:href="#DejaVuSans-32"/>
     <use x="483.007812" xlink:href="#DejaVuSans-104"/>
     <use x="546.386719" xlink:href="#DejaVuSans-115"/>
     <use x="598.486328" xlink:href="#DejaVuSans-97"/>
     <use x="659.765625" xlink:href="#DejaVuSans-48"/>
     <use x="723.388672" xlink:href="#DejaVuSans-52"/>
     <use x="787.011719" xlink:href="#DejaVuSans-54"/>
     <use x="850.634766" xlink:href="#DejaVuSans-54"/>
     <use x="914.257812" xlink:href="#DejaVuSans-56"/>
    </g>
   </g>
  </g>
 </g>
 <defs>
  <clipPath id="peabedeabfc">
   <rect height="443.52" width="669.6" x="108" y="69.12"/>
  </clipPath>
 </defs>
</svg>
