<?xml version="1.0" encoding="utf-8" standalone="no"?>
<!DOCTYPE svg PUBLIC "-//W3C//DTD SVG 1.1//EN"
  "http://www.w3.org/Graphics/SVG/1.1/DTD/svg11.dtd">
<!-- Created with matplotlib (https://matplotlib.org/) -->
<svg height="576pt" version="1.1" viewBox="0 0 864 576" width="864pt" xmlns="http://www.w3.org/2000/svg" xmlns:xlink="http://www.w3.org/1999/xlink">
 <metadata>
  <rdf:RDF xmlns:cc="http://creativecommons.org/ns#" xmlns:dc="http://purl.org/dc/elements/1.1/" xmlns:rdf="http://www.w3.org/1999/02/22-rdf-syntax-ns#">
   <cc:Work>
    <dc:type rdf:resource="http://purl.org/dc/dcmitype/StillImage"/>
    <dc:date>2024-04-12T11:39:33.306682</dc:date>
    <dc:format>image/svg+xml</dc:format>
    <dc:creator>
     <cc:Agent>
      <dc:title>Matplotlib v3.3.1, https://matplotlib.org/</dc:title>
     </cc:Agent>
    </dc:creator>
   </cc:Work>
  </rdf:RDF>
 </metadata>
 <defs>
  <style type="text/css">*{stroke-linecap:butt;stroke-linejoin:round;}</style>
 </defs>
 <g id="figure_1">
  <g id="patch_1">
   <path d="M 0 576 
L 864 576 
L 864 0 
L 0 0 
z
" style="fill:#ffffff;"/>
  </g>
  <g id="axes_1">
   <g id="patch_2">
    <path clip-path="url(#pca495f8135)" d="M 488.604547 343.830383 
Q 511.866195 307.509372 534.524865 272.129858 
" style="fill:none;stroke:#000000;stroke-linecap:round;"/>
    <path clip-path="url(#pca495f8135)" d="M 530.683383 274.419621 
L 534.524865 272.129858 
L 534.051786 276.576901 
L 530.683383 274.419621 
z
" style="stroke:#000000;stroke-linecap:round;"/>
   </g>
   <g id="patch_3">
    <path clip-path="url(#pca495f8135)" d="M 492.171561 353.791066 
Q 513.777087 360.794457 534.319058 367.453098 
" style="fill:none;stroke:#000000;stroke-linecap:round;"/>
    <path clip-path="url(#pca495f8135)" d="M 531.130676 364.317142 
L 534.319058 367.453098 
L 529.897264 368.12223 
L 531.130676 364.317142 
z
" style="stroke:#000000;stroke-linecap:round;"/>
   </g>
   <g id="patch_4">
    <path clip-path="url(#pca495f8135)" d="M 548.442895 263.426462 
Q 629.64503 259.006149 709.730784 254.646607 
" style="fill:none;stroke:#000000;stroke-linecap:round;"/>
    <path clip-path="url(#pca495f8135)" d="M 705.627987 252.866985 
L 709.730784 254.646607 
L 705.845409 256.861072 
L 705.627987 252.866985 
z
" style="stroke:#000000;stroke-linecap:round;"/>
   </g>
   <g id="patch_5">
    <path clip-path="url(#pca495f8135)" d="M 547.605902 260.145953 
Q 612.037491 229.193194 675.461304 198.724569 
" style="fill:none;stroke:#000000;stroke-linecap:round;"/>
    <path clip-path="url(#pca495f8135)" d="M 670.989726 198.653891 
L 675.461304 198.724569 
L 672.721815 202.259424 
L 670.989726 198.653891 
z
" style="stroke:#000000;stroke-linecap:round;"/>
   </g>
   <g id="patch_6">
    <path clip-path="url(#pca495f8135)" d="M 428.934278 316.56596 
Q 538.120291 315.957923 646.188288 315.356112 
" style="fill:none;stroke:#000000;stroke-linecap:round;"/>
    <path clip-path="url(#pca495f8135)" d="M 642.177213 313.378418 
L 646.188288 315.356112 
L 642.199487 317.378356 
L 642.177213 313.378418 
z
" style="stroke:#000000;stroke-linecap:round;"/>
   </g>
   <g id="patch_7">
    <path clip-path="url(#pca495f8135)" d="M 418.231285 308.199964 
Q 405.686517 256.439701 393.405094 205.766013 
" style="fill:none;stroke:#000000;stroke-linecap:round;"/>
    <path clip-path="url(#pca495f8135)" d="M 392.403542 210.124556 
L 393.405094 205.766013 
L 396.290997 209.182381 
L 392.403542 210.124556 
z
" style="stroke:#000000;stroke-linecap:round;"/>
   </g>
   <g id="patch_8">
    <path clip-path="url(#pca495f8135)" d="M 412.721552 320.852352 
Q 328.824697 367.953364 245.902743 414.507051 
" style="fill:none;stroke:#000000;stroke-linecap:round;"/>
    <path clip-path="url(#pca495f8135)" d="M 250.369746 414.292838 
L 245.902743 414.507051 
L 248.411575 410.804921 
L 250.369746 414.292838 
z
" style="stroke:#000000;stroke-linecap:round;"/>
   </g>
   <g id="patch_9">
    <path clip-path="url(#pca495f8135)" d="M 424.939557 309.32361 
Q 432.749814 297.1279 439.957116 285.873703 
" style="fill:none;stroke:#000000;stroke-linecap:round;"/>
    <path clip-path="url(#pca495f8135)" d="M 436.115692 288.163564 
L 439.957116 285.873703 
L 439.48415 290.320759 
L 436.115692 288.163564 
z
" style="stroke:#000000;stroke-linecap:round;"/>
   </g>
   <g id="patch_10">
    <path clip-path="url(#pca495f8135)" d="M 503.320351 328.449447 
Q 453.598809 335.145232 404.9853 341.691802 
" style="fill:none;stroke:#000000;stroke-linecap:round;"/>
    <path clip-path="url(#pca495f8135)" d="M 409.216438 343.140066 
L 404.9853 341.691802 
L 408.682594 339.17585 
L 409.216438 343.140066 
z
" style="stroke:#000000;stroke-linecap:round;"/>
   </g>
   <g id="patch_11">
    <path clip-path="url(#pca495f8135)" d="M 520.521124 326.494406 
Q 610.781286 318.122184 699.928192 309.853224 
" style="fill:none;stroke:#000000;stroke-linecap:round;"/>
    <path clip-path="url(#pca495f8135)" d="M 695.760569 308.231213 
L 699.928192 309.853224 
L 696.13001 312.214115 
L 695.760569 308.231213 
z
" style="stroke:#000000;stroke-linecap:round;"/>
   </g>
   <g id="patch_12">
    <path clip-path="url(#pca495f8135)" d="M 516.835981 320.181429 
Q 574.038835 237.756438 630.604244 156.249958 
" style="fill:none;stroke:#000000;stroke-linecap:round;"/>
    <path clip-path="url(#pca495f8135)" d="M 626.680565 158.395826 
L 630.604244 156.249958 
L 629.966731 160.676422 
L 626.680565 158.395826 
z
" style="stroke:#000000;stroke-linecap:round;"/>
   </g>
   <g id="patch_13">
    <path clip-path="url(#pca495f8135)" d="M 503.685328 330.046981 
Q 374.636248 373.294798 246.647256 416.187352 
" style="fill:none;stroke:#000000;stroke-linecap:round;"/>
    <path clip-path="url(#pca495f8135)" d="M 251.075459 416.812664 
L 246.647256 416.187352 
L 249.804427 413.019976 
L 251.075459 416.812664 
z
" style="stroke:#000000;stroke-linecap:round;"/>
   </g>
   <g id="patch_14">
    <path clip-path="url(#pca495f8135)" d="M 516.648756 334.533672 
Q 549.798064 385.068406 582.334138 434.66829 
" style="fill:none;stroke:#000000;stroke-linecap:round;"/>
    <path clip-path="url(#pca495f8135)" d="M 581.812475 430.226683 
L 582.334138 434.66829 
L 578.467855 432.420656 
L 581.812475 430.226683 
z
" style="stroke:#000000;stroke-linecap:round;"/>
   </g>
   <g id="patch_15">
    <path clip-path="url(#pca495f8135)" d="M 648.154294 319.046752 
Q 632.827903 326.397037 618.509609 333.263855 
" style="fill:none;stroke:#000000;stroke-linecap:round;"/>
    <path clip-path="url(#pca495f8135)" d="M 622.981138 333.337491 
L 618.509609 333.263855 
L 621.251435 329.730813 
L 622.981138 333.337491 
z
" style="stroke:#000000;stroke-linecap:round;"/>
   </g>
   <g id="patch_16">
    <path clip-path="url(#pca495f8135)" d="M 403.955532 342.774316 
Q 502.495778 340.244801 599.918359 337.743976 
" style="fill:none;stroke:#000000;stroke-linecap:round;"/>
    <path clip-path="url(#pca495f8135)" d="M 595.868353 335.84728 
L 599.918359 337.743976 
L 595.970999 339.845963 
L 595.868353 335.84728 
z
" style="stroke:#000000;stroke-linecap:round;"/>
   </g>
   <g id="patch_17">
    <path clip-path="url(#pca495f8135)" d="M 602.668713 342.560954 
Q 573.88206 363.335682 546.002008 383.456135 
" style="fill:none;stroke:#000000;stroke-linecap:round;"/>
    <path clip-path="url(#pca495f8135)" d="M 550.415963 382.737107 
L 546.002008 383.456135 
L 548.075159 379.493555 
L 550.415963 382.737107 
z
" style="stroke:#000000;stroke-linecap:round;"/>
   </g>
   <g id="patch_18">
    <path clip-path="url(#pca495f8135)" d="M 609.59854 328.835223 
Q 609.216293 293.043034 608.845986 258.368815 
" style="fill:none;stroke:#000000;stroke-linecap:round;"/>
    <path clip-path="url(#pca495f8135)" d="M 606.888816 262.389945 
L 608.845986 258.368815 
L 610.888588 262.347229 
L 606.888816 262.389945 
z
" style="stroke:#000000;stroke-linecap:round;"/>
   </g>
   <g id="patch_19">
    <path clip-path="url(#pca495f8135)" d="M 468.084984 213.38872 
Q 324.760343 214.20208 182.553717 215.009095 
" style="fill:none;stroke:#000000;stroke-linecap:round;"/>
    <path clip-path="url(#pca495f8135)" d="M 186.565002 216.986364 
L 182.553717 215.009095 
L 186.542303 212.986428 
L 186.565002 216.986364 
z
" style="stroke:#000000;stroke-linecap:round;"/>
   </g>
   <g id="patch_20">
    <path clip-path="url(#pca495f8135)" d="M 484.758745 216.629408 
Q 593.203859 261.145209 700.614688 305.236446 
" style="fill:none;stroke:#000000;stroke-linecap:round;"/>
    <path clip-path="url(#pca495f8135)" d="M 697.673804 301.867291 
L 700.614688 305.236446 
L 696.154834 305.56766 
L 697.673804 301.867291 
z
" style="stroke:#000000;stroke-linecap:round;"/>
   </g>
   <g id="patch_21">
    <path clip-path="url(#pca495f8135)" d="M 484.760361 210.06541 
Q 556.460777 180.779008 627.12617 151.915367 
" style="fill:none;stroke:#000000;stroke-linecap:round;"/>
    <path clip-path="url(#pca495f8135)" d="M 622.666901 151.576375 
L 627.12617 151.915367 
L 624.179415 155.279387 
L 622.666901 151.576375 
z
" style="stroke:#000000;stroke-linecap:round;"/>
   </g>
   <g id="patch_22">
    <path clip-path="url(#pca495f8135)" d="M 541.117689 362.177936 
Q 524.168702 306.008868 507.542696 250.910165 
" style="fill:none;stroke:#000000;stroke-linecap:round;"/>
    <path clip-path="url(#pca495f8135)" d="M 506.783505 255.317389 
L 507.542696 250.910165 
L 510.612961 254.161853 
L 506.783505 255.317389 
z
" style="stroke:#000000;stroke-linecap:round;"/>
   </g>
   <g id="patch_23">
    <path clip-path="url(#pca495f8135)" d="M 551.523738 374.005819 
Q 585.763376 389.331547 618.982541 404.20051 
" style="fill:none;stroke:#000000;stroke-linecap:round;"/>
    <path clip-path="url(#pca495f8135)" d="M 616.148673 400.740857 
L 618.982541 404.20051 
L 614.514498 404.391813 
L 616.148673 400.740857 
z
" style="stroke:#000000;stroke-linecap:round;"/>
   </g>
   <g id="patch_24">
    <path clip-path="url(#pca495f8135)" d="M 542.179461 379.007916 
Q 534.879753 422.310593 527.765894 464.510792 
" style="fill:none;stroke:#000000;stroke-linecap:round;"/>
    <path clip-path="url(#pca495f8135)" d="M 530.402983 460.898901 
L 527.765894 464.510792 
L 526.458634 460.233986 
L 530.402983 460.898901 
z
" style="stroke:#000000;stroke-linecap:round;"/>
   </g>
   <g id="patch_25">
    <path clip-path="url(#pca495f8135)" d="M 497.617978 246.508239 
Q 484.570738 255.629134 472.439828 264.109452 
" style="fill:none;stroke:#000000;stroke-linecap:round;"/>
    <path clip-path="url(#pca495f8135)" d="M 476.86409 263.456838 
L 472.439828 264.109452 
L 474.572294 260.178474 
L 476.86409 263.456838 
z
" style="stroke:#000000;stroke-linecap:round;"/>
   </g>
   <g id="patch_26">
    <path clip-path="url(#pca495f8135)" d="M 505.439654 250.173299 
Q 508.308356 284.419656 511.083731 317.551881 
" style="fill:none;stroke:#000000;stroke-linecap:round;"/>
    <path clip-path="url(#pca495f8135)" d="M 512.742853 313.398893 
L 511.083731 317.551881 
L 508.756814 313.73279 
L 512.742853 313.398893 
z
" style="stroke:#000000;stroke-linecap:round;"/>
   </g>
   <g id="patch_27">
    <path clip-path="url(#pca495f8135)" d="M 472.855429 271.714766 
Q 560.197408 292.505608 646.451743 313.037547 
" style="fill:none;stroke:#000000;stroke-linecap:round;"/>
    <path clip-path="url(#pca495f8135)" d="M 643.023608 310.165634 
L 646.451743 313.037547 
L 642.097331 314.056907 
L 643.023608 310.165634 
z
" style="stroke:#000000;stroke-linecap:round;"/>
   </g>
   <g id="patch_28">
    <path clip-path="url(#pca495f8135)" d="M 458.486382 276.009481 
Q 429.861972 306.353821 402.004747 335.884879 
" style="fill:none;stroke:#000000;stroke-linecap:round;"/>
    <path clip-path="url(#pca495f8135)" d="M 406.204353 334.347575 
L 402.004747 335.884879 
L 403.294667 331.602811 
L 406.204353 334.347575 
z
" style="stroke:#000000;stroke-linecap:round;"/>
   </g>
   <g id="patch_29">
    <path clip-path="url(#pca495f8135)" d="M 398.831725 200.178051 
Q 455.222101 228.720262 510.614945 256.757567 
" style="fill:none;stroke:#000000;stroke-linecap:round;"/>
    <path clip-path="url(#pca495f8135)" d="M 507.949265 253.166724 
L 510.614945 256.757567 
L 506.142863 256.735604 
L 507.949265 253.166724 
z
" style="stroke:#000000;stroke-linecap:round;"/>
   </g>
   <g id="patch_30">
    <path clip-path="url(#pca495f8135)" d="M 516.620012 269.396478 
Q 496.457324 330.373052 476.645638 390.288119 
" style="fill:none;stroke:#000000;stroke-linecap:round;"/>
    <path clip-path="url(#pca495f8135)" d="M 479.8003 387.118244 
L 476.645638 390.288119 
L 476.002535 385.862464 
L 479.8003 387.118244 
z
" style="stroke:#000000;stroke-linecap:round;"/>
   </g>
   <g id="patch_31">
    <path clip-path="url(#pca495f8135)" d="M 465.367159 402.324077 
Q 390.67652 427.391 317.045816 452.102199 
" style="fill:none;stroke:#000000;stroke-linecap:round;"/>
    <path clip-path="url(#pca495f8135)" d="M 321.474291 452.725588 
L 317.045816 452.102199 
L 320.201612 448.933453 
L 321.474291 452.725588 
z
" style="stroke:#000000;stroke-linecap:round;"/>
   </g>
   <g id="patch_32">
    <path clip-path="url(#pca495f8135)" d="M 596.576991 224.300503 
Q 649.652939 264.030488 701.833838 303.090483 
" style="fill:none;stroke:#000000;stroke-linecap:round;"/>
    <path clip-path="url(#pca495f8135)" d="M 699.830124 299.092343 
L 701.833838 303.090483 
L 697.433097 302.294571 
L 699.830124 299.092343 
z
" style="stroke:#000000;stroke-linecap:round;"/>
   </g>
   <g id="patch_33">
    <path clip-path="url(#pca495f8135)" d="M 594.396732 211.869341 
Q 612.912136 183.662478 630.814016 156.390273 
" style="fill:none;stroke:#000000;stroke-linecap:round;"/>
    <path clip-path="url(#pca495f8135)" d="M 626.947036 158.636706 
L 630.814016 156.390273 
L 630.290974 160.831717 
L 626.947036 158.636706 
z
" style="stroke:#000000;stroke-linecap:round;"/>
   </g>
   <g id="patch_34">
    <path clip-path="url(#pca495f8135)" d="M 436.998823 274.954816 
Q 390.218326 259.678865 344.500634 244.749969 
" style="fill:none;stroke:#000000;stroke-linecap:round;"/>
    <path clip-path="url(#pca495f8135)" d="M 347.682211 247.892829 
L 344.500634 244.749969 
L 348.923868 244.090424 
L 347.682211 247.892829 
z
" style="stroke:#000000;stroke-linecap:round;"/>
   </g>
   <g id="patch_35">
    <path clip-path="url(#pca495f8135)" d="M 436.584587 277.117853 
Q 406.171566 275.272924 376.874527 273.495693 
" style="fill:none;stroke:#000000;stroke-linecap:round;"/>
    <path clip-path="url(#pca495f8135)" d="M 380.746085 275.734228 
L 376.874527 273.495693 
L 380.98829 271.741567 
L 380.746085 275.734228 
z
" style="stroke:#000000;stroke-linecap:round;"/>
   </g>
   <g id="patch_36">
    <path clip-path="url(#pca495f8135)" d="M 621.318054 281.875576 
Q 560.381474 287.44686 500.558284 292.916349 
" style="fill:none;stroke:#000000;stroke-linecap:round;"/>
    <path clip-path="url(#pca495f8135)" d="M 504.723766 294.543851 
L 500.558284 292.916349 
L 504.359575 290.560464 
L 504.723766 294.543851 
z
" style="stroke:#000000;stroke-linecap:round;"/>
   </g>
   <g id="patch_37">
    <path clip-path="url(#pca495f8135)" d="M 482.609328 291.056956 
Q 413.010689 267.759373 344.47226 244.816687 
" style="fill:none;stroke:#000000;stroke-linecap:round;"/>
    <path clip-path="url(#pca495f8135)" d="M 347.630528 247.982969 
L 344.47226 244.816687 
L 348.900247 244.189842 
L 347.630528 247.982969 
z
" style="stroke:#000000;stroke-linecap:round;"/>
   </g>
   <g id="patch_38">
    <path clip-path="url(#pca495f8135)" d="M 482.286974 292.364116 
Q 428.968621 283.355096 376.752676 274.532347 
" style="fill:none;stroke:#000000;stroke-linecap:round;"/>
    <path clip-path="url(#pca495f8135)" d="M 380.363561 277.170815 
L 376.752676 274.532347 
L 381.029981 273.22672 
L 380.363561 277.170815 
z
" style="stroke:#000000;stroke-linecap:round;"/>
   </g>
   <g id="patch_39">
    <path clip-path="url(#pca495f8135)" d="M 424.77585 330.692759 
Q 464.01061 329.162227 502.128185 327.675277 
" style="fill:none;stroke:#000000;stroke-linecap:round;"/>
    <path clip-path="url(#pca495f8135)" d="M 498.053265 325.832716 
L 502.128185 327.675277 
L 498.209185 329.829676 
L 498.053265 325.832716 
z
" style="stroke:#000000;stroke-linecap:round;"/>
   </g>
   <g id="patch_40">
    <path clip-path="url(#pca495f8135)" d="M 421.478505 324.229796 
Q 440.273566 300.372 458.376751 277.392445 
" style="fill:none;stroke:#000000;stroke-linecap:round;"/>
    <path clip-path="url(#pca495f8135)" d="M 454.330377 279.296876 
L 458.376751 277.392445 
L 457.472471 281.772203 
L 454.330377 279.296876 
z
" style="stroke:#000000;stroke-linecap:round;"/>
   </g>
   <g id="patch_41">
    <path clip-path="url(#pca495f8135)" d="M 534.227945 381.415518 
Q 514.448156 341.491725 495.164708 302.569754 
" style="fill:none;stroke:#000000;stroke-linecap:round;"/>
    <path clip-path="url(#pca495f8135)" d="M 495.148359 307.04186 
L 495.164708 302.569754 
L 498.732583 305.266096 
L 495.148359 307.04186 
z
" style="stroke:#000000;stroke-linecap:round;"/>
   </g>
   <g id="patch_42">
    <path clip-path="url(#pca495f8135)" d="M 600.655487 251.687151 
Q 549.783223 271.195977 499.954865 290.30448 
" style="fill:none;stroke:#000000;stroke-linecap:round;"/>
    <path clip-path="url(#pca495f8135)" d="M 504.40578 290.739633 
L 499.954865 290.30448 
L 502.973537 287.00484 
L 504.40578 290.739633 
z
" style="stroke:#000000;stroke-linecap:round;"/>
   </g>
   <g id="patch_43">
    <path clip-path="url(#pca495f8135)" d="M 396.396822 258.286736 
Q 322.926314 205.605812 250.364404 153.576386 
" style="fill:none;stroke:#000000;stroke-linecap:round;"/>
    <path clip-path="url(#pca495f8135)" d="M 252.449672 157.532604 
L 250.364404 153.576386 
L 254.780539 154.281902 
L 252.449672 157.532604 
z
" style="stroke:#000000;stroke-linecap:round;"/>
   </g>
   <g id="patch_44">
    <path clip-path="url(#pca495f8135)" d="M 402.365319 271.925948 
Q 390.684096 365.673068 379.141114 458.310734 
" style="fill:none;stroke:#000000;stroke-linecap:round;"/>
    <path clip-path="url(#pca495f8135)" d="M 381.620356 454.588724 
L 379.141114 458.310734 
L 377.651051 454.094135 
L 381.620356 454.588724 
z
" style="stroke:#000000;stroke-linecap:round;"/>
   </g>
   <g id="patch_45">
    <path clip-path="url(#pca495f8135)" d="M 394.914822 264.865253 
Q 284.771495 284.658132 175.728575 304.253267 
" style="fill:none;stroke:#000000;stroke-linecap:round;"/>
    <path clip-path="url(#pca495f8135)" d="M 180.01925 305.514264 
L 175.728575 304.253267 
L 179.311777 301.577326 
L 180.01925 305.514264 
z
" style="stroke:#000000;stroke-linecap:round;"/>
   </g>
   <g id="patch_46">
    <path clip-path="url(#pca495f8135)" d="M 411.565872 266.313118 
Q 546.740796 315.846093 680.865947 364.994392 
" style="fill:none;stroke:#000000;stroke-linecap:round;"/>
    <path clip-path="url(#pca495f8135)" d="M 677.79829 361.740244 
L 680.865947 364.994392 
L 676.422034 365.49603 
L 677.79829 361.740244 
z
" style="stroke:#000000;stroke-linecap:round;"/>
   </g>
   <g id="patch_47">
    <path clip-path="url(#pca495f8135)" d="M 409.116832 256.794425 
Q 466.093434 191.205987 522.336822 126.461586 
" style="fill:none;stroke:#000000;stroke-linecap:round;"/>
    <path clip-path="url(#pca495f8135)" d="M 518.203739 128.169691 
L 522.336822 126.461586 
L 521.223456 130.792916 
L 518.203739 128.169691 
z
" style="stroke:#000000;stroke-linecap:round;"/>
   </g>
   <g id="patch_48">
    <path clip-path="url(#pca495f8135)" d="M 398.911847 255.946669 
Q 358.417087 189.822773 318.506224 124.652324 
" style="fill:none;stroke:#000000;stroke-linecap:round;"/>
    <path clip-path="url(#pca495f8135)" d="M 318.889664 129.107991 
L 318.506224 124.652324 
L 322.300822 127.018973 
L 318.889664 129.107991 
z
" style="stroke:#000000;stroke-linecap:round;"/>
   </g>
   <g id="patch_49">
    <path clip-path="url(#pca495f8135)" d="M 385.796895 260.860965 
Q 317.508845 207.050014 250.098949 153.931049 
" style="fill:none;stroke:#000000;stroke-linecap:round;"/>
    <path clip-path="url(#pca495f8135)" d="M 252.00287 157.977663 
L 250.098949 153.931049 
L 254.478593 154.835881 
L 252.00287 157.977663 
z
" style="stroke:#000000;stroke-linecap:round;"/>
   </g>
   <g id="patch_50">
    <path clip-path="url(#pca495f8135)" d="M 391.972783 274.859275 
Q 385.266244 367.118555 378.640764 458.262744 
" style="fill:none;stroke:#000000;stroke-linecap:round;"/>
    <path clip-path="url(#pca495f8135)" d="M 380.925504 454.418272 
L 378.640764 458.262744 
L 376.936031 454.128268 
L 380.925504 454.418272 
z
" style="stroke:#000000;stroke-linecap:round;"/>
   </g>
   <g id="patch_51">
    <path clip-path="url(#pca495f8135)" d="M 384.06767 267.720224 
Q 279.35211 286.102589 175.737746 304.291644 
" style="fill:none;stroke:#000000;stroke-linecap:round;"/>
    <path clip-path="url(#pca495f8135)" d="M 180.023306 305.569915 
L 175.737746 304.291644 
L 179.331698 301.630159 
L 180.023306 305.569915 
z
" style="stroke:#000000;stroke-linecap:round;"/>
   </g>
   <g id="patch_52">
    <path clip-path="url(#pca495f8135)" d="M 400.792859 269.035327 
Q 541.325053 317.290878 680.799816 365.183332 
" style="fill:none;stroke:#000000;stroke-linecap:round;"/>
    <path clip-path="url(#pca495f8135)" d="M 677.666165 361.992685 
L 680.799816 365.183332 
L 676.367107 365.775865 
L 677.666165 361.992685 
z
" style="stroke:#000000;stroke-linecap:round;"/>
   </g>
   <g id="patch_53">
    <path clip-path="url(#pca495f8135)" d="M 398.481912 259.866112 
Q 460.67462 192.651473 522.10801 126.257465 
" style="fill:none;stroke:#000000;stroke-linecap:round;"/>
    <path clip-path="url(#pca495f8135)" d="M 517.923401 127.835135 
L 522.10801 126.257465 
L 520.859381 130.551754 
L 517.923401 127.835135 
z
" style="stroke:#000000;stroke-linecap:round;"/>
   </g>
   <g id="patch_54">
    <path clip-path="url(#pca495f8135)" d="M 388.555749 258.566315 
Q 352.99959 191.266986 317.965708 124.956204 
" style="fill:none;stroke:#000000;stroke-linecap:round;"/>
    <path clip-path="url(#pca495f8135)" d="M 318.065899 129.427218 
L 317.965708 124.956204 
L 321.602634 127.55866 
L 318.065899 129.427218 
z
" style="stroke:#000000;stroke-linecap:round;"/>
   </g>
   <g id="patch_55">
    <path clip-path="url(#pca495f8135)" d="M 359.821631 347.951251 
Q 447.422438 358.682947 533.913507 369.278693 
" style="fill:none;stroke:#000000;stroke-linecap:round;"/>
    <path clip-path="url(#pca495f8135)" d="M 530.186385 366.807143 
L 533.913507 369.278693 
L 529.699994 370.777461 
L 530.186385 366.807143 
z
" style="stroke:#000000;stroke-linecap:round;"/>
   </g>
   <g id="patch_56">
    <path clip-path="url(#pca495f8135)" d="M 328.949178 247.704671 
Q 265.484187 308.509916 202.826501 368.541688 
" style="fill:none;stroke:#000000;stroke-linecap:round;"/>
    <path clip-path="url(#pca495f8135)" d="M 207.098432 367.218583 
L 202.826501 368.541688 
L 204.331175 364.330281 
L 207.098432 367.218583 
z
" style="stroke:#000000;stroke-linecap:round;"/>
   </g>
   <g id="patch_57">
    <path clip-path="url(#pca495f8135)" d="M 338.345232 233.647117 
Q 361.328316 174.660177 383.905502 116.71499 
" style="fill:none;stroke:#000000;stroke-linecap:round;"/>
    <path clip-path="url(#pca495f8135)" d="M 380.589775 119.715983 
L 383.905502 116.71499 
L 384.31686 121.168167 
L 380.589775 119.715983 
z
" style="stroke:#000000;stroke-linecap:round;"/>
   </g>
   <g id="patch_58">
    <path clip-path="url(#pca495f8135)" d="M 359.67958 277.345822 
Q 281.440746 324.104064 204.161618 370.288752 
" style="fill:none;stroke:#000000;stroke-linecap:round;"/>
    <path clip-path="url(#pca495f8135)" d="M 208.621172 369.953518 
L 204.161618 370.288752 
L 206.569163 366.519969 
L 208.621172 369.953518 
z
" style="stroke:#000000;stroke-linecap:round;"/>
   </g>
   <g id="patch_59">
    <path clip-path="url(#pca495f8135)" d="M 368.170207 264.310312 
Q 377.283408 190.255597 386.260054 117.310544 
" style="fill:none;stroke:#000000;stroke-linecap:round;"/>
    <path clip-path="url(#pca495f8135)" d="M 383.786472 121.036318 
L 386.260054 117.310544 
L 387.756524 121.524875 
L 383.786472 121.036318 
z
" style="stroke:#000000;stroke-linecap:round;"/>
   </g>
   <g id="PathCollection_1">
    <defs>
     <path d="M 0 8.660254 
C 2.296726 8.660254 4.499694 7.747755 6.123724 6.123724 
C 7.747755 4.499694 8.660254 2.296726 8.660254 -0 
C 8.660254 -2.296726 7.747755 -4.499694 6.123724 -6.123724 
C 4.499694 -7.747755 2.296726 -8.660254 0 -8.660254 
C -2.296726 -8.660254 -4.499694 -7.747755 -6.123724 -6.123724 
C -7.747755 -4.499694 -8.660254 -2.296726 -8.660254 0 
C -8.660254 2.296726 -7.747755 4.499694 -6.123724 6.123724 
C -4.499694 7.747755 -2.296726 8.660254 0 8.660254 
z
" id="C0_0_b8b6d0cc41"/>
    </defs>
    <g clip-path="url(#pca495f8135)">
     <use style="fill:#ff0000;stroke:#ff0000;" x="483.935143" xlink:href="#C0_0_b8b6d0cc41" y="351.121246"/>
    </g>
    <g clip-path="url(#pca495f8135)">
     <use style="fill:#ff0000;stroke:#ff0000;" x="539.797514" xlink:href="#C0_0_b8b6d0cc41" y="263.897081"/>
    </g>
    <g clip-path="url(#pca495f8135)">
     <use style="fill:#ff0000;stroke:#ff0000;" x="719.494215" xlink:href="#C0_0_b8b6d0cc41" y="254.115125"/>
    </g>
    <g clip-path="url(#pca495f8135)">
     <use style="fill:#ff0000;stroke:#ff0000;" x="420.270585" xlink:href="#C0_0_b8b6d0cc41" y="316.614206"/>
    </g>
    <g clip-path="url(#pca495f8135)">
     <use style="fill:#ff0000;stroke:#ff0000;" x="511.899802" xlink:href="#C0_0_b8b6d0cc41" y="327.29409"/>
    </g>
    <g clip-path="url(#pca495f8135)">
     <use style="fill:#ff0000;stroke:#ff0000;" x="655.963311" xlink:href="#C0_0_b8b6d0cc41" y="315.301676"/>
    </g>
    <g clip-path="url(#pca495f8135)">
     <use style="fill:#ff0000;stroke:#ff0000;" x="395.296119" xlink:href="#C0_0_b8b6d0cc41" y="342.996602"/>
    </g>
    <g clip-path="url(#pca495f8135)">
     <use style="fill:#ff0000;stroke:#ff0000;" x="609.691003" xlink:href="#C0_0_b8b6d0cc41" y="337.493113"/>
    </g>
    <g clip-path="url(#pca495f8135)">
     <use style="fill:#ff0000;stroke:#ff0000;" x="476.744379" xlink:href="#C0_0_b8b6d0cc41" y="213.339578"/>
    </g>
    <g clip-path="url(#pca495f8135)">
     <use style="fill:#ff0000;stroke:#ff0000;" x="172.779672" xlink:href="#C0_0_b8b6d0cc41" y="215.064563"/>
    </g>
    <g clip-path="url(#pca495f8135)">
     <use style="fill:#ff0000;stroke:#ff0000;" x="543.61912" xlink:href="#C0_0_b8b6d0cc41" y="370.467696"/>
    </g>
    <g clip-path="url(#pca495f8135)">
     <use style="fill:#ff0000;stroke:#ff0000;" x="504.71694" xlink:href="#C0_0_b8b6d0cc41" y="241.545589"/>
    </g>
    <g clip-path="url(#pca495f8135)">
     <use style="fill:#ff0000;stroke:#ff0000;" x="464.429655" xlink:href="#C0_0_b8b6d0cc41" y="269.709099"/>
    </g>
    <g clip-path="url(#pca495f8135)">
     <use style="fill:#ff0000;stroke:#ff0000;" x="391.102628" xlink:href="#C0_0_b8b6d0cc41" y="196.265939"/>
    </g>
    <g clip-path="url(#pca495f8135)">
     <use style="fill:#ff0000;stroke:#ff0000;" x="684.272525" xlink:href="#C0_0_b8b6d0cc41" y="194.491683"/>
    </g>
    <g clip-path="url(#pca495f8135)">
     <use style="fill:#ff0000;stroke:#ff0000;" x="519.3391" xlink:href="#C0_0_b8b6d0cc41" y="261.173333"/>
    </g>
    <g clip-path="url(#pca495f8135)">
     <use style="fill:#ff0000;stroke:#ff0000;" x="473.576854" xlink:href="#C0_0_b8b6d0cc41" y="399.568821"/>
    </g>
    <g clip-path="url(#pca495f8135)">
     <use style="fill:#ff0000;stroke:#ff0000;" x="307.773892" xlink:href="#C0_0_b8b6d0cc41" y="455.213949"/>
    </g>
    <g clip-path="url(#pca495f8135)">
     <use style="fill:#ff0000;stroke:#ff0000;" x="589.643545" xlink:href="#C0_0_b8b6d0cc41" y="219.110474"/>
    </g>
    <g clip-path="url(#pca495f8135)">
     <use style="fill:#ff0000;stroke:#ff0000;" x="627.907607" xlink:href="#C0_0_b8b6d0cc41" y="408.195386"/>
    </g>
    <g clip-path="url(#pca495f8135)">
     <use style="fill:#ff0000;stroke:#ff0000;" x="237.374676" xlink:href="#C0_0_b8b6d0cc41" y="419.294842"/>
    </g>
    <g clip-path="url(#pca495f8135)">
     <use style="fill:#ff0000;stroke:#ff0000;" x="526.140514" xlink:href="#C0_0_b8b6d0cc41" y="474.152727"/>
    </g>
    <g clip-path="url(#pca495f8135)">
     <use style="fill:#008000;stroke:#008000;" x="445.228639" xlink:href="#C0_0_b8b6d0cc41" y="277.642223"/>
    </g>
    <g clip-path="url(#pca495f8135)">
     <use style="fill:#ff0000;stroke:#ff0000;" x="195.766077" xlink:href="#C0_0_b8b6d0cc41" y="375.306218"/>
    </g>
    <g clip-path="url(#pca495f8135)">
     <use style="fill:#ff0000;stroke:#ff0000;" x="387.454142" xlink:href="#C0_0_b8b6d0cc41" y="107.607273"/>
    </g>
    <g clip-path="url(#pca495f8135)">
     <use style="fill:#ff0000;stroke:#ff0000;" x="629.940737" xlink:href="#C0_0_b8b6d0cc41" y="281.087225"/>
    </g>
    <g clip-path="url(#pca495f8135)">
     <use style="fill:#ff0000;stroke:#ff0000;" x="490.823014" xlink:href="#C0_0_b8b6d0cc41" y="293.806421"/>
    </g>
    <g clip-path="url(#pca495f8135)">
     <use style="fill:#ff0000;stroke:#ff0000;" x="416.121037" xlink:href="#C0_0_b8b6d0cc41" y="331.03038"/>
    </g>
    <g clip-path="url(#pca495f8135)">
     <use style="fill:#ff0000;stroke:#ff0000;" x="709.662116" xlink:href="#C0_0_b8b6d0cc41" y="308.950338"/>
    </g>
    <g clip-path="url(#pca495f8135)">
     <use style="fill:#ff0000;stroke:#ff0000;" x="636.17848" xlink:href="#C0_0_b8b6d0cc41" y="148.217905"/>
    </g>
    <g clip-path="url(#pca495f8135)">
     <use style="fill:#ff0000;stroke:#ff0000;" x="587.69801" xlink:href="#C0_0_b8b6d0cc41" y="442.845289"/>
    </g>
    <g clip-path="url(#pca495f8135)">
     <use style="fill:#ff0000;stroke:#ff0000;" x="538.073696" xlink:href="#C0_0_b8b6d0cc41" y="389.177833"/>
    </g>
    <g clip-path="url(#pca495f8135)">
     <use style="fill:#ff0000;stroke:#ff0000;" x="608.741512" xlink:href="#C0_0_b8b6d0cc41" y="248.58627"/>
    </g>
    <g clip-path="url(#pca495f8135)">
     <use style="fill:#ff0000;stroke:#ff0000;" x="403.435906" xlink:href="#C0_0_b8b6d0cc41" y="263.334005"/>
    </g>
    <g clip-path="url(#pca495f8135)">
     <use style="fill:#008000;stroke:#008000;" x="392.600625" xlink:href="#C0_0_b8b6d0cc41" y="266.2223"/>
    </g>
    <g clip-path="url(#pca495f8135)">
     <use style="fill:#ff0000;stroke:#ff0000;" x="242.419008" xlink:href="#C0_0_b8b6d0cc41" y="147.87926"/>
    </g>
    <g clip-path="url(#pca495f8135)">
     <use style="fill:#ff0000;stroke:#ff0000;" x="377.931741" xlink:href="#C0_0_b8b6d0cc41" y="468.016505"/>
    </g>
    <g clip-path="url(#pca495f8135)">
     <use style="fill:#ff0000;stroke:#ff0000;" x="166.105785" xlink:href="#C0_0_b8b6d0cc41" y="305.982493"/>
    </g>
    <g clip-path="url(#pca495f8135)">
     <use style="fill:#ff0000;stroke:#ff0000;" x="690.044531" xlink:href="#C0_0_b8b6d0cc41" y="368.357757"/>
    </g>
    <g clip-path="url(#pca495f8135)">
     <use style="fill:#ff0000;stroke:#ff0000;" x="528.748985" xlink:href="#C0_0_b8b6d0cc41" y="119.080245"/>
    </g>
    <g clip-path="url(#pca495f8135)">
     <use style="fill:#ff0000;stroke:#ff0000;" x="313.399856" xlink:href="#C0_0_b8b6d0cc41" y="116.314135"/>
    </g>
    <g clip-path="url(#pca495f8135)">
     <use style="fill:#ff0000;stroke:#ff0000;" x="351.222867" xlink:href="#C0_0_b8b6d0cc41" y="346.897843"/>
    </g>
    <g clip-path="url(#pca495f8135)">
     <use style="fill:#ff0000;stroke:#ff0000;" x="335.202275" xlink:href="#C0_0_b8b6d0cc41" y="241.713634"/>
    </g>
    <g clip-path="url(#pca495f8135)">
     <use style="fill:#ff0000;stroke:#ff0000;" x="367.112724" xlink:href="#C0_0_b8b6d0cc41" y="272.903518"/>
    </g>
   </g>
   <g id="text_1">
    <g clip-path="url(#pca495f8135)">
     <!-- TNF -->
     <g transform="translate(472.330768 354.432496)scale(0.12 -0.12)">
      <defs>
       <path d="M -0.296875 72.90625 
L 61.375 72.90625 
L 61.375 64.59375 
L 35.5 64.59375 
L 35.5 0 
L 25.59375 0 
L 25.59375 64.59375 
L -0.296875 64.59375 
z
" id="DejaVuSans-84"/>
       <path d="M 9.8125 72.90625 
L 23.09375 72.90625 
L 55.421875 11.921875 
L 55.421875 72.90625 
L 64.984375 72.90625 
L 64.984375 0 
L 51.703125 0 
L 19.390625 60.984375 
L 19.390625 0 
L 9.8125 0 
z
" id="DejaVuSans-78"/>
       <path d="M 9.8125 72.90625 
L 51.703125 72.90625 
L 51.703125 64.59375 
L 19.671875 64.59375 
L 19.671875 43.109375 
L 48.578125 43.109375 
L 48.578125 34.8125 
L 19.671875 34.8125 
L 19.671875 0 
L 9.8125 0 
z
" id="DejaVuSans-70"/>
      </defs>
      <use xlink:href="#DejaVuSans-84"/>
      <use x="61.083984" xlink:href="#DejaVuSans-78"/>
      <use x="135.888672" xlink:href="#DejaVuSans-70"/>
     </g>
    </g>
   </g>
   <g id="text_2">
    <g clip-path="url(#pca495f8135)">
     <!-- TNFRSF1A -->
     <g transform="translate(508.842202 267.208331)scale(0.12 -0.12)">
      <defs>
       <path d="M 44.390625 34.1875 
Q 47.5625 33.109375 50.5625 29.59375 
Q 53.5625 26.078125 56.59375 19.921875 
L 66.609375 0 
L 56 0 
L 46.6875 18.703125 
Q 43.0625 26.03125 39.671875 28.421875 
Q 36.28125 30.8125 30.421875 30.8125 
L 19.671875 30.8125 
L 19.671875 0 
L 9.8125 0 
L 9.8125 72.90625 
L 32.078125 72.90625 
Q 44.578125 72.90625 50.734375 67.671875 
Q 56.890625 62.453125 56.890625 51.90625 
Q 56.890625 45.015625 53.6875 40.46875 
Q 50.484375 35.9375 44.390625 34.1875 
z
M 19.671875 64.796875 
L 19.671875 38.921875 
L 32.078125 38.921875 
Q 39.203125 38.921875 42.84375 42.21875 
Q 46.484375 45.515625 46.484375 51.90625 
Q 46.484375 58.296875 42.84375 61.546875 
Q 39.203125 64.796875 32.078125 64.796875 
z
" id="DejaVuSans-82"/>
       <path d="M 53.515625 70.515625 
L 53.515625 60.890625 
Q 47.90625 63.578125 42.921875 64.890625 
Q 37.9375 66.21875 33.296875 66.21875 
Q 25.25 66.21875 20.875 63.09375 
Q 16.5 59.96875 16.5 54.203125 
Q 16.5 49.359375 19.40625 46.890625 
Q 22.3125 44.4375 30.421875 42.921875 
L 36.375 41.703125 
Q 47.40625 39.59375 52.65625 34.296875 
Q 57.90625 29 57.90625 20.125 
Q 57.90625 9.515625 50.796875 4.046875 
Q 43.703125 -1.421875 29.984375 -1.421875 
Q 24.8125 -1.421875 18.96875 -0.25 
Q 13.140625 0.921875 6.890625 3.21875 
L 6.890625 13.375 
Q 12.890625 10.015625 18.65625 8.296875 
Q 24.421875 6.59375 29.984375 6.59375 
Q 38.421875 6.59375 43.015625 9.90625 
Q 47.609375 13.234375 47.609375 19.390625 
Q 47.609375 24.75 44.3125 27.78125 
Q 41.015625 30.8125 33.5 32.328125 
L 27.484375 33.5 
Q 16.453125 35.6875 11.515625 40.375 
Q 6.59375 45.0625 6.59375 53.421875 
Q 6.59375 63.09375 13.40625 68.65625 
Q 20.21875 74.21875 32.171875 74.21875 
Q 37.3125 74.21875 42.625 73.28125 
Q 47.953125 72.359375 53.515625 70.515625 
z
" id="DejaVuSans-83"/>
       <path d="M 12.40625 8.296875 
L 28.515625 8.296875 
L 28.515625 63.921875 
L 10.984375 60.40625 
L 10.984375 69.390625 
L 28.421875 72.90625 
L 38.28125 72.90625 
L 38.28125 8.296875 
L 54.390625 8.296875 
L 54.390625 0 
L 12.40625 0 
z
" id="DejaVuSans-49"/>
       <path d="M 34.1875 63.1875 
L 20.796875 26.90625 
L 47.609375 26.90625 
z
M 28.609375 72.90625 
L 39.796875 72.90625 
L 67.578125 0 
L 57.328125 0 
L 50.6875 18.703125 
L 17.828125 18.703125 
L 11.1875 0 
L 0.78125 0 
z
" id="DejaVuSans-65"/>
      </defs>
      <use xlink:href="#DejaVuSans-84"/>
      <use x="61.083984" xlink:href="#DejaVuSans-78"/>
      <use x="135.888672" xlink:href="#DejaVuSans-70"/>
      <use x="193.408203" xlink:href="#DejaVuSans-82"/>
      <use x="262.890625" xlink:href="#DejaVuSans-83"/>
      <use x="326.367188" xlink:href="#DejaVuSans-70"/>
      <use x="383.886719" xlink:href="#DejaVuSans-49"/>
      <use x="447.509766" xlink:href="#DejaVuSans-65"/>
     </g>
    </g>
   </g>
   <g id="text_3">
    <g clip-path="url(#pca495f8135)">
     <!-- TRADD -->
     <g transform="translate(698.55609 257.426375)scale(0.12 -0.12)">
      <defs>
       <path d="M 19.671875 64.796875 
L 19.671875 8.109375 
L 31.59375 8.109375 
Q 46.6875 8.109375 53.6875 14.9375 
Q 60.6875 21.78125 60.6875 36.53125 
Q 60.6875 51.171875 53.6875 57.984375 
Q 46.6875 64.796875 31.59375 64.796875 
z
M 9.8125 72.90625 
L 30.078125 72.90625 
Q 51.265625 72.90625 61.171875 64.09375 
Q 71.09375 55.28125 71.09375 36.53125 
Q 71.09375 17.671875 61.125 8.828125 
Q 51.171875 0 30.078125 0 
L 9.8125 0 
z
" id="DejaVuSans-68"/>
      </defs>
      <use xlink:href="#DejaVuSans-84"/>
      <use x="61.083984" xlink:href="#DejaVuSans-82"/>
      <use x="126.566406" xlink:href="#DejaVuSans-65"/>
      <use x="194.974609" xlink:href="#DejaVuSans-68"/>
      <use x="271.976562" xlink:href="#DejaVuSans-68"/>
     </g>
    </g>
   </g>
   <g id="text_4">
    <g clip-path="url(#pca495f8135)">
     <!-- RIPK1 -->
     <g transform="translate(402.961523 319.925456)scale(0.12 -0.12)">
      <defs>
       <path d="M 9.8125 72.90625 
L 19.671875 72.90625 
L 19.671875 0 
L 9.8125 0 
z
" id="DejaVuSans-73"/>
       <path d="M 19.671875 64.796875 
L 19.671875 37.40625 
L 32.078125 37.40625 
Q 38.96875 37.40625 42.71875 40.96875 
Q 46.484375 44.53125 46.484375 51.125 
Q 46.484375 57.671875 42.71875 61.234375 
Q 38.96875 64.796875 32.078125 64.796875 
z
M 9.8125 72.90625 
L 32.078125 72.90625 
Q 44.34375 72.90625 50.609375 67.359375 
Q 56.890625 61.8125 56.890625 51.125 
Q 56.890625 40.328125 50.609375 34.8125 
Q 44.34375 29.296875 32.078125 29.296875 
L 19.671875 29.296875 
L 19.671875 0 
L 9.8125 0 
z
" id="DejaVuSans-80"/>
       <path d="M 9.8125 72.90625 
L 19.671875 72.90625 
L 19.671875 42.09375 
L 52.390625 72.90625 
L 65.09375 72.90625 
L 28.90625 38.921875 
L 67.671875 0 
L 54.6875 0 
L 19.671875 35.109375 
L 19.671875 0 
L 9.8125 0 
z
" id="DejaVuSans-75"/>
      </defs>
      <use xlink:href="#DejaVuSans-82"/>
      <use x="69.482422" xlink:href="#DejaVuSans-73"/>
      <use x="98.974609" xlink:href="#DejaVuSans-80"/>
      <use x="159.277344" xlink:href="#DejaVuSans-75"/>
      <use x="224.853516" xlink:href="#DejaVuSans-49"/>
     </g>
    </g>
   </g>
   <g id="text_5">
    <g clip-path="url(#pca495f8135)">
     <!-- MAP3K7 -->
     <g transform="translate(487.431052 330.60534)scale(0.12 -0.12)">
      <defs>
       <path d="M 9.8125 72.90625 
L 24.515625 72.90625 
L 43.109375 23.296875 
L 61.8125 72.90625 
L 76.515625 72.90625 
L 76.515625 0 
L 66.890625 0 
L 66.890625 64.015625 
L 48.09375 14.015625 
L 38.1875 14.015625 
L 19.390625 64.015625 
L 19.390625 0 
L 9.8125 0 
z
" id="DejaVuSans-77"/>
       <path d="M 40.578125 39.3125 
Q 47.65625 37.796875 51.625 33 
Q 55.609375 28.21875 55.609375 21.1875 
Q 55.609375 10.40625 48.1875 4.484375 
Q 40.765625 -1.421875 27.09375 -1.421875 
Q 22.515625 -1.421875 17.65625 -0.515625 
Q 12.796875 0.390625 7.625 2.203125 
L 7.625 11.71875 
Q 11.71875 9.328125 16.59375 8.109375 
Q 21.484375 6.890625 26.8125 6.890625 
Q 36.078125 6.890625 40.9375 10.546875 
Q 45.796875 14.203125 45.796875 21.1875 
Q 45.796875 27.640625 41.28125 31.265625 
Q 36.765625 34.90625 28.71875 34.90625 
L 20.21875 34.90625 
L 20.21875 43.015625 
L 29.109375 43.015625 
Q 36.375 43.015625 40.234375 45.921875 
Q 44.09375 48.828125 44.09375 54.296875 
Q 44.09375 59.90625 40.109375 62.90625 
Q 36.140625 65.921875 28.71875 65.921875 
Q 24.65625 65.921875 20.015625 65.03125 
Q 15.375 64.15625 9.8125 62.3125 
L 9.8125 71.09375 
Q 15.4375 72.65625 20.34375 73.4375 
Q 25.25 74.21875 29.59375 74.21875 
Q 40.828125 74.21875 47.359375 69.109375 
Q 53.90625 64.015625 53.90625 55.328125 
Q 53.90625 49.265625 50.4375 45.09375 
Q 46.96875 40.921875 40.578125 39.3125 
z
" id="DejaVuSans-51"/>
       <path d="M 8.203125 72.90625 
L 55.078125 72.90625 
L 55.078125 68.703125 
L 28.609375 0 
L 18.3125 0 
L 43.21875 64.59375 
L 8.203125 64.59375 
z
" id="DejaVuSans-55"/>
      </defs>
      <use xlink:href="#DejaVuSans-77"/>
      <use x="86.279297" xlink:href="#DejaVuSans-65"/>
      <use x="154.6875" xlink:href="#DejaVuSans-80"/>
      <use x="214.990234" xlink:href="#DejaVuSans-51"/>
      <use x="278.613281" xlink:href="#DejaVuSans-75"/>
      <use x="344.189453" xlink:href="#DejaVuSans-55"/>
     </g>
    </g>
   </g>
   <g id="text_6">
    <g clip-path="url(#pca495f8135)">
     <!-- IKBKG -->
     <g transform="translate(637.558311 318.612926)scale(0.12 -0.12)">
      <defs>
       <path d="M 19.671875 34.8125 
L 19.671875 8.109375 
L 35.5 8.109375 
Q 43.453125 8.109375 47.28125 11.40625 
Q 51.125 14.703125 51.125 21.484375 
Q 51.125 28.328125 47.28125 31.5625 
Q 43.453125 34.8125 35.5 34.8125 
z
M 19.671875 64.796875 
L 19.671875 42.828125 
L 34.28125 42.828125 
Q 41.5 42.828125 45.03125 45.53125 
Q 48.578125 48.25 48.578125 53.8125 
Q 48.578125 59.328125 45.03125 62.0625 
Q 41.5 64.796875 34.28125 64.796875 
z
M 9.8125 72.90625 
L 35.015625 72.90625 
Q 46.296875 72.90625 52.390625 68.21875 
Q 58.5 63.53125 58.5 54.890625 
Q 58.5 48.1875 55.375 44.234375 
Q 52.25 40.28125 46.1875 39.3125 
Q 53.46875 37.75 57.5 32.78125 
Q 61.53125 27.828125 61.53125 20.40625 
Q 61.53125 10.640625 54.890625 5.3125 
Q 48.25 0 35.984375 0 
L 9.8125 0 
z
" id="DejaVuSans-66"/>
       <path d="M 59.515625 10.40625 
L 59.515625 29.984375 
L 43.40625 29.984375 
L 43.40625 38.09375 
L 69.28125 38.09375 
L 69.28125 6.78125 
Q 63.578125 2.734375 56.6875 0.65625 
Q 49.8125 -1.421875 42 -1.421875 
Q 24.90625 -1.421875 15.25 8.5625 
Q 5.609375 18.5625 5.609375 36.375 
Q 5.609375 54.25 15.25 64.234375 
Q 24.90625 74.21875 42 74.21875 
Q 49.125 74.21875 55.546875 72.453125 
Q 61.96875 70.703125 67.390625 67.28125 
L 67.390625 56.78125 
Q 61.921875 61.421875 55.765625 63.765625 
Q 49.609375 66.109375 42.828125 66.109375 
Q 29.4375 66.109375 22.71875 58.640625 
Q 16.015625 51.171875 16.015625 36.375 
Q 16.015625 21.625 22.71875 14.15625 
Q 29.4375 6.6875 42.828125 6.6875 
Q 48.046875 6.6875 52.140625 7.59375 
Q 56.25 8.5 59.515625 10.40625 
z
" id="DejaVuSans-71"/>
      </defs>
      <use xlink:href="#DejaVuSans-73"/>
      <use x="29.492188" xlink:href="#DejaVuSans-75"/>
      <use x="95.068359" xlink:href="#DejaVuSans-66"/>
      <use x="163.671875" xlink:href="#DejaVuSans-75"/>
      <use x="229.248047" xlink:href="#DejaVuSans-71"/>
     </g>
    </g>
   </g>
   <g id="text_7">
    <g clip-path="url(#pca495f8135)">
     <!-- IKBKB -->
     <g transform="translate(377.423619 346.307852)scale(0.12 -0.12)">
      <use xlink:href="#DejaVuSans-73"/>
      <use x="29.492188" xlink:href="#DejaVuSans-75"/>
      <use x="95.068359" xlink:href="#DejaVuSans-66"/>
      <use x="163.671875" xlink:href="#DejaVuSans-75"/>
      <use x="229.248047" xlink:href="#DejaVuSans-66"/>
     </g>
    </g>
   </g>
   <g id="text_8">
    <g clip-path="url(#pca495f8135)">
     <!-- NFKBIA -->
     <g transform="translate(587.825691 340.804363)scale(0.12 -0.12)">
      <use xlink:href="#DejaVuSans-78"/>
      <use x="74.804688" xlink:href="#DejaVuSans-70"/>
      <use x="132.324219" xlink:href="#DejaVuSans-75"/>
      <use x="197.900391" xlink:href="#DejaVuSans-66"/>
      <use x="266.503906" xlink:href="#DejaVuSans-73"/>
      <use x="295.996094" xlink:href="#DejaVuSans-65"/>
     </g>
    </g>
   </g>
   <g id="text_9">
    <g clip-path="url(#pca495f8135)">
     <!-- MAP3K8 -->
     <g transform="translate(452.275629 216.650828)scale(0.12 -0.12)">
      <defs>
       <path d="M 31.78125 34.625 
Q 24.75 34.625 20.71875 30.859375 
Q 16.703125 27.09375 16.703125 20.515625 
Q 16.703125 13.921875 20.71875 10.15625 
Q 24.75 6.390625 31.78125 6.390625 
Q 38.8125 6.390625 42.859375 10.171875 
Q 46.921875 13.96875 46.921875 20.515625 
Q 46.921875 27.09375 42.890625 30.859375 
Q 38.875 34.625 31.78125 34.625 
z
M 21.921875 38.8125 
Q 15.578125 40.375 12.03125 44.71875 
Q 8.5 49.078125 8.5 55.328125 
Q 8.5 64.0625 14.71875 69.140625 
Q 20.953125 74.21875 31.78125 74.21875 
Q 42.671875 74.21875 48.875 69.140625 
Q 55.078125 64.0625 55.078125 55.328125 
Q 55.078125 49.078125 51.53125 44.71875 
Q 48 40.375 41.703125 38.8125 
Q 48.828125 37.15625 52.796875 32.3125 
Q 56.78125 27.484375 56.78125 20.515625 
Q 56.78125 9.90625 50.3125 4.234375 
Q 43.84375 -1.421875 31.78125 -1.421875 
Q 19.734375 -1.421875 13.25 4.234375 
Q 6.78125 9.90625 6.78125 20.515625 
Q 6.78125 27.484375 10.78125 32.3125 
Q 14.796875 37.15625 21.921875 38.8125 
z
M 18.3125 54.390625 
Q 18.3125 48.734375 21.84375 45.5625 
Q 25.390625 42.390625 31.78125 42.390625 
Q 38.140625 42.390625 41.71875 45.5625 
Q 45.3125 48.734375 45.3125 54.390625 
Q 45.3125 60.0625 41.71875 63.234375 
Q 38.140625 66.40625 31.78125 66.40625 
Q 25.390625 66.40625 21.84375 63.234375 
Q 18.3125 60.0625 18.3125 54.390625 
z
" id="DejaVuSans-56"/>
      </defs>
      <use xlink:href="#DejaVuSans-77"/>
      <use x="86.279297" xlink:href="#DejaVuSans-65"/>
      <use x="154.6875" xlink:href="#DejaVuSans-80"/>
      <use x="214.990234" xlink:href="#DejaVuSans-51"/>
      <use x="278.613281" xlink:href="#DejaVuSans-75"/>
      <use x="344.189453" xlink:href="#DejaVuSans-56"/>
     </g>
    </g>
   </g>
   <g id="text_10">
    <g clip-path="url(#pca495f8135)">
     <!-- MAP2K1 -->
     <g transform="translate(148.310922 218.375813)scale(0.12 -0.12)">
      <defs>
       <path d="M 19.1875 8.296875 
L 53.609375 8.296875 
L 53.609375 0 
L 7.328125 0 
L 7.328125 8.296875 
Q 12.9375 14.109375 22.625 23.890625 
Q 32.328125 33.6875 34.8125 36.53125 
Q 39.546875 41.84375 41.421875 45.53125 
Q 43.3125 49.21875 43.3125 52.78125 
Q 43.3125 58.59375 39.234375 62.25 
Q 35.15625 65.921875 28.609375 65.921875 
Q 23.96875 65.921875 18.8125 64.3125 
Q 13.671875 62.703125 7.8125 59.421875 
L 7.8125 69.390625 
Q 13.765625 71.78125 18.9375 73 
Q 24.125 74.21875 28.421875 74.21875 
Q 39.75 74.21875 46.484375 68.546875 
Q 53.21875 62.890625 53.21875 53.421875 
Q 53.21875 48.921875 51.53125 44.890625 
Q 49.859375 40.875 45.40625 35.40625 
Q 44.1875 33.984375 37.640625 27.21875 
Q 31.109375 20.453125 19.1875 8.296875 
z
" id="DejaVuSans-50"/>
      </defs>
      <use xlink:href="#DejaVuSans-77"/>
      <use x="86.279297" xlink:href="#DejaVuSans-65"/>
      <use x="154.6875" xlink:href="#DejaVuSans-80"/>
      <use x="214.990234" xlink:href="#DejaVuSans-50"/>
      <use x="278.613281" xlink:href="#DejaVuSans-75"/>
      <use x="344.189453" xlink:href="#DejaVuSans-49"/>
     </g>
    </g>
   </g>
   <g id="text_11">
    <g clip-path="url(#pca495f8135)">
     <!-- TNFRSF1B -->
     <g transform="translate(512.65162 373.778946)scale(0.12 -0.12)">
      <use xlink:href="#DejaVuSans-84"/>
      <use x="61.083984" xlink:href="#DejaVuSans-78"/>
      <use x="135.888672" xlink:href="#DejaVuSans-70"/>
      <use x="193.408203" xlink:href="#DejaVuSans-82"/>
      <use x="262.890625" xlink:href="#DejaVuSans-83"/>
      <use x="326.367188" xlink:href="#DejaVuSans-70"/>
      <use x="383.886719" xlink:href="#DejaVuSans-49"/>
      <use x="447.509766" xlink:href="#DejaVuSans-66"/>
     </g>
    </g>
   </g>
   <g id="text_12">
    <g clip-path="url(#pca495f8135)">
     <!-- TRAF2 -->
     <g transform="translate(485.750378 244.856839)scale(0.12 -0.12)">
      <use xlink:href="#DejaVuSans-84"/>
      <use x="61.083984" xlink:href="#DejaVuSans-82"/>
      <use x="126.566406" xlink:href="#DejaVuSans-65"/>
      <use x="194.974609" xlink:href="#DejaVuSans-70"/>
      <use x="252.494141" xlink:href="#DejaVuSans-50"/>
     </g>
    </g>
   </g>
   <g id="text_13">
    <g clip-path="url(#pca495f8135)">
     <!-- MAP3K14 -->
     <g transform="translate(436.143405 273.020349)scale(0.12 -0.12)">
      <defs>
       <path d="M 37.796875 64.3125 
L 12.890625 25.390625 
L 37.796875 25.390625 
z
M 35.203125 72.90625 
L 47.609375 72.90625 
L 47.609375 25.390625 
L 58.015625 25.390625 
L 58.015625 17.1875 
L 47.609375 17.1875 
L 47.609375 0 
L 37.796875 0 
L 37.796875 17.1875 
L 4.890625 17.1875 
L 4.890625 26.703125 
z
" id="DejaVuSans-52"/>
      </defs>
      <use xlink:href="#DejaVuSans-77"/>
      <use x="86.279297" xlink:href="#DejaVuSans-65"/>
      <use x="154.6875" xlink:href="#DejaVuSans-80"/>
      <use x="214.990234" xlink:href="#DejaVuSans-51"/>
      <use x="278.613281" xlink:href="#DejaVuSans-75"/>
      <use x="344.189453" xlink:href="#DejaVuSans-49"/>
      <use x="407.8125" xlink:href="#DejaVuSans-52"/>
     </g>
    </g>
   </g>
   <g id="text_14">
    <g clip-path="url(#pca495f8135)">
     <!-- RIPK3 -->
     <g transform="translate(373.793566 199.577189)scale(0.12 -0.12)">
      <use xlink:href="#DejaVuSans-82"/>
      <use x="69.482422" xlink:href="#DejaVuSans-73"/>
      <use x="98.974609" xlink:href="#DejaVuSans-80"/>
      <use x="159.277344" xlink:href="#DejaVuSans-75"/>
      <use x="224.853516" xlink:href="#DejaVuSans-51"/>
     </g>
    </g>
   </g>
   <g id="text_15">
    <g clip-path="url(#pca495f8135)">
     <!-- BAG4 -->
     <g transform="translate(667.690025 197.802933)scale(0.12 -0.12)">
      <use xlink:href="#DejaVuSans-66"/>
      <use x="68.603516" xlink:href="#DejaVuSans-65"/>
      <use x="135.261719" xlink:href="#DejaVuSans-71"/>
      <use x="212.751953" xlink:href="#DejaVuSans-52"/>
     </g>
    </g>
   </g>
   <g id="text_16">
    <g clip-path="url(#pca495f8135)">
     <!-- MLKL -->
     <g transform="translate(503.541288 264.484583)scale(0.12 -0.12)">
      <defs>
       <path d="M 9.8125 72.90625 
L 19.671875 72.90625 
L 19.671875 8.296875 
L 55.171875 8.296875 
L 55.171875 0 
L 9.8125 0 
z
" id="DejaVuSans-76"/>
      </defs>
      <use xlink:href="#DejaVuSans-77"/>
      <use x="86.279297" xlink:href="#DejaVuSans-76"/>
      <use x="141.992188" xlink:href="#DejaVuSans-75"/>
      <use x="207.568359" xlink:href="#DejaVuSans-76"/>
     </g>
    </g>
   </g>
   <g id="text_17">
    <g clip-path="url(#pca495f8135)">
     <!-- PGAM5 -->
     <g transform="translate(452.211229 402.880071)scale(0.12 -0.12)">
      <defs>
       <path d="M 10.796875 72.90625 
L 49.515625 72.90625 
L 49.515625 64.59375 
L 19.828125 64.59375 
L 19.828125 46.734375 
Q 21.96875 47.46875 24.109375 47.828125 
Q 26.265625 48.1875 28.421875 48.1875 
Q 40.625 48.1875 47.75 41.5 
Q 54.890625 34.8125 54.890625 23.390625 
Q 54.890625 11.625 47.5625 5.09375 
Q 40.234375 -1.421875 26.90625 -1.421875 
Q 22.3125 -1.421875 17.546875 -0.640625 
Q 12.796875 0.140625 7.71875 1.703125 
L 7.71875 11.625 
Q 12.109375 9.234375 16.796875 8.0625 
Q 21.484375 6.890625 26.703125 6.890625 
Q 35.15625 6.890625 40.078125 11.328125 
Q 45.015625 15.765625 45.015625 23.390625 
Q 45.015625 31 40.078125 35.4375 
Q 35.15625 39.890625 26.703125 39.890625 
Q 22.75 39.890625 18.8125 39.015625 
Q 14.890625 38.140625 10.796875 36.28125 
z
" id="DejaVuSans-53"/>
      </defs>
      <use xlink:href="#DejaVuSans-80"/>
      <use x="60.302734" xlink:href="#DejaVuSans-71"/>
      <use x="137.792969" xlink:href="#DejaVuSans-65"/>
      <use x="206.201172" xlink:href="#DejaVuSans-77"/>
      <use x="292.480469" xlink:href="#DejaVuSans-53"/>
     </g>
    </g>
   </g>
   <g id="text_18">
    <g clip-path="url(#pca495f8135)">
     <!-- DNM1L -->
     <g transform="translate(286.327642 458.525199)scale(0.12 -0.12)">
      <use xlink:href="#DejaVuSans-68"/>
      <use x="77.001953" xlink:href="#DejaVuSans-78"/>
      <use x="151.806641" xlink:href="#DejaVuSans-77"/>
      <use x="238.085938" xlink:href="#DejaVuSans-49"/>
      <use x="301.708984" xlink:href="#DejaVuSans-76"/>
     </g>
    </g>
   </g>
   <g id="text_19">
    <g clip-path="url(#pca495f8135)">
     <!-- MAP3K5 -->
     <g transform="translate(565.174795 222.421724)scale(0.12 -0.12)">
      <use xlink:href="#DejaVuSans-77"/>
      <use x="86.279297" xlink:href="#DejaVuSans-65"/>
      <use x="154.6875" xlink:href="#DejaVuSans-80"/>
      <use x="214.990234" xlink:href="#DejaVuSans-51"/>
      <use x="278.613281" xlink:href="#DejaVuSans-75"/>
      <use x="344.189453" xlink:href="#DejaVuSans-53"/>
     </g>
    </g>
   </g>
   <g id="text_20">
    <g clip-path="url(#pca495f8135)">
     <!-- DAB2IP -->
     <g transform="translate(605.966357 411.506636)scale(0.12 -0.12)">
      <use xlink:href="#DejaVuSans-68"/>
      <use x="75.251953" xlink:href="#DejaVuSans-65"/>
      <use x="143.660156" xlink:href="#DejaVuSans-66"/>
      <use x="212.263672" xlink:href="#DejaVuSans-50"/>
      <use x="275.886719" xlink:href="#DejaVuSans-73"/>
      <use x="305.378906" xlink:href="#DejaVuSans-80"/>
     </g>
    </g>
   </g>
   <g id="text_21">
    <g clip-path="url(#pca495f8135)">
     <!-- MAP2K3 -->
     <g transform="translate(212.905926 422.606092)scale(0.12 -0.12)">
      <use xlink:href="#DejaVuSans-77"/>
      <use x="86.279297" xlink:href="#DejaVuSans-65"/>
      <use x="154.6875" xlink:href="#DejaVuSans-80"/>
      <use x="214.990234" xlink:href="#DejaVuSans-50"/>
      <use x="278.613281" xlink:href="#DejaVuSans-75"/>
      <use x="344.189453" xlink:href="#DejaVuSans-51"/>
     </g>
    </g>
   </g>
   <g id="text_22">
    <g clip-path="url(#pca495f8135)">
     <!-- IRF1 -->
     <g transform="translate(512.933014 477.463977)scale(0.12 -0.12)">
      <use xlink:href="#DejaVuSans-73"/>
      <use x="29.492188" xlink:href="#DejaVuSans-82"/>
      <use x="98.974609" xlink:href="#DejaVuSans-70"/>
      <use x="156.494141" xlink:href="#DejaVuSans-49"/>
     </g>
    </g>
   </g>
   <g id="text_23">
    <g clip-path="url(#pca495f8135)">
     <!-- FADD -->
     <g transform="translate(428.980827 280.953473)scale(0.12 -0.12)">
      <use xlink:href="#DejaVuSans-70"/>
      <use x="48.394531" xlink:href="#DejaVuSans-65"/>
      <use x="116.802734" xlink:href="#DejaVuSans-68"/>
      <use x="193.804688" xlink:href="#DejaVuSans-68"/>
     </g>
    </g>
   </g>
   <g id="text_24">
    <g clip-path="url(#pca495f8135)">
     <!-- CASP7 -->
     <g transform="translate(176.22764 378.617468)scale(0.12 -0.12)">
      <defs>
       <path d="M 64.40625 67.28125 
L 64.40625 56.890625 
Q 59.421875 61.53125 53.78125 63.8125 
Q 48.140625 66.109375 41.796875 66.109375 
Q 29.296875 66.109375 22.65625 58.46875 
Q 16.015625 50.828125 16.015625 36.375 
Q 16.015625 21.96875 22.65625 14.328125 
Q 29.296875 6.6875 41.796875 6.6875 
Q 48.140625 6.6875 53.78125 8.984375 
Q 59.421875 11.28125 64.40625 15.921875 
L 64.40625 5.609375 
Q 59.234375 2.09375 53.4375 0.328125 
Q 47.65625 -1.421875 41.21875 -1.421875 
Q 24.65625 -1.421875 15.125 8.703125 
Q 5.609375 18.84375 5.609375 36.375 
Q 5.609375 53.953125 15.125 64.078125 
Q 24.65625 74.21875 41.21875 74.21875 
Q 47.75 74.21875 53.53125 72.484375 
Q 59.328125 70.75 64.40625 67.28125 
z
" id="DejaVuSans-67"/>
      </defs>
      <use xlink:href="#DejaVuSans-67"/>
      <use x="69.824219" xlink:href="#DejaVuSans-65"/>
      <use x="138.232422" xlink:href="#DejaVuSans-83"/>
      <use x="201.708984" xlink:href="#DejaVuSans-80"/>
      <use x="262.011719" xlink:href="#DejaVuSans-55"/>
     </g>
    </g>
   </g>
   <g id="text_25">
    <g clip-path="url(#pca495f8135)">
     <!-- CASP3 -->
     <g transform="translate(367.915705 110.918523)scale(0.12 -0.12)">
      <use xlink:href="#DejaVuSans-67"/>
      <use x="69.824219" xlink:href="#DejaVuSans-65"/>
      <use x="138.232422" xlink:href="#DejaVuSans-83"/>
      <use x="201.708984" xlink:href="#DejaVuSans-80"/>
      <use x="262.011719" xlink:href="#DejaVuSans-51"/>
     </g>
    </g>
   </g>
   <g id="text_26">
    <g clip-path="url(#pca495f8135)">
     <!-- ITCH -->
     <g transform="translate(616.156675 284.398475)scale(0.12 -0.12)">
      <defs>
       <path d="M 9.8125 72.90625 
L 19.671875 72.90625 
L 19.671875 43.015625 
L 55.515625 43.015625 
L 55.515625 72.90625 
L 65.375 72.90625 
L 65.375 0 
L 55.515625 0 
L 55.515625 34.71875 
L 19.671875 34.71875 
L 19.671875 0 
L 9.8125 0 
z
" id="DejaVuSans-72"/>
      </defs>
      <use xlink:href="#DejaVuSans-73"/>
      <use x="29.492188" xlink:href="#DejaVuSans-84"/>
      <use x="84.701172" xlink:href="#DejaVuSans-67"/>
      <use x="154.525391" xlink:href="#DejaVuSans-72"/>
     </g>
    </g>
   </g>
   <g id="text_27">
    <g clip-path="url(#pca495f8135)">
     <!-- CFLAR -->
     <g transform="translate(471.430827 297.117671)scale(0.12 -0.12)">
      <use xlink:href="#DejaVuSans-67"/>
      <use x="69.824219" xlink:href="#DejaVuSans-70"/>
      <use x="127.34375" xlink:href="#DejaVuSans-76"/>
      <use x="185.306641" xlink:href="#DejaVuSans-65"/>
      <use x="253.714844" xlink:href="#DejaVuSans-82"/>
     </g>
    </g>
   </g>
   <g id="text_28">
    <g clip-path="url(#pca495f8135)">
     <!-- TRAF5 -->
     <g transform="translate(397.154474 334.34163)scale(0.12 -0.12)">
      <use xlink:href="#DejaVuSans-84"/>
      <use x="61.083984" xlink:href="#DejaVuSans-82"/>
      <use x="126.566406" xlink:href="#DejaVuSans-65"/>
      <use x="194.974609" xlink:href="#DejaVuSans-70"/>
      <use x="252.494141" xlink:href="#DejaVuSans-53"/>
     </g>
    </g>
   </g>
   <g id="text_29">
    <g clip-path="url(#pca495f8135)">
     <!-- MAP2K4 -->
     <g transform="translate(685.193366 312.261588)scale(0.12 -0.12)">
      <use xlink:href="#DejaVuSans-77"/>
      <use x="86.279297" xlink:href="#DejaVuSans-65"/>
      <use x="154.6875" xlink:href="#DejaVuSans-80"/>
      <use x="214.990234" xlink:href="#DejaVuSans-50"/>
      <use x="278.613281" xlink:href="#DejaVuSans-75"/>
      <use x="344.189453" xlink:href="#DejaVuSans-52"/>
     </g>
    </g>
   </g>
   <g id="text_30">
    <g clip-path="url(#pca495f8135)">
     <!-- MAP2K7 -->
     <g transform="translate(611.70973 151.529155)scale(0.12 -0.12)">
      <use xlink:href="#DejaVuSans-77"/>
      <use x="86.279297" xlink:href="#DejaVuSans-65"/>
      <use x="154.6875" xlink:href="#DejaVuSans-80"/>
      <use x="214.990234" xlink:href="#DejaVuSans-50"/>
      <use x="278.613281" xlink:href="#DejaVuSans-75"/>
      <use x="344.189453" xlink:href="#DejaVuSans-55"/>
     </g>
    </g>
   </g>
   <g id="text_31">
    <g clip-path="url(#pca495f8135)">
     <!-- MAP2K6 -->
     <g transform="translate(563.22926 446.156539)scale(0.12 -0.12)">
      <defs>
       <path d="M 33.015625 40.375 
Q 26.375 40.375 22.484375 35.828125 
Q 18.609375 31.296875 18.609375 23.390625 
Q 18.609375 15.53125 22.484375 10.953125 
Q 26.375 6.390625 33.015625 6.390625 
Q 39.65625 6.390625 43.53125 10.953125 
Q 47.40625 15.53125 47.40625 23.390625 
Q 47.40625 31.296875 43.53125 35.828125 
Q 39.65625 40.375 33.015625 40.375 
z
M 52.59375 71.296875 
L 52.59375 62.3125 
Q 48.875 64.0625 45.09375 64.984375 
Q 41.3125 65.921875 37.59375 65.921875 
Q 27.828125 65.921875 22.671875 59.328125 
Q 17.53125 52.734375 16.796875 39.40625 
Q 19.671875 43.65625 24.015625 45.921875 
Q 28.375 48.1875 33.59375 48.1875 
Q 44.578125 48.1875 50.953125 41.515625 
Q 57.328125 34.859375 57.328125 23.390625 
Q 57.328125 12.15625 50.6875 5.359375 
Q 44.046875 -1.421875 33.015625 -1.421875 
Q 20.359375 -1.421875 13.671875 8.265625 
Q 6.984375 17.96875 6.984375 36.375 
Q 6.984375 53.65625 15.1875 63.9375 
Q 23.390625 74.21875 37.203125 74.21875 
Q 40.921875 74.21875 44.703125 73.484375 
Q 48.484375 72.75 52.59375 71.296875 
z
" id="DejaVuSans-54"/>
      </defs>
      <use xlink:href="#DejaVuSans-77"/>
      <use x="86.279297" xlink:href="#DejaVuSans-65"/>
      <use x="154.6875" xlink:href="#DejaVuSans-80"/>
      <use x="214.990234" xlink:href="#DejaVuSans-50"/>
      <use x="278.613281" xlink:href="#DejaVuSans-75"/>
      <use x="344.189453" xlink:href="#DejaVuSans-54"/>
     </g>
    </g>
   </g>
   <g id="text_32">
    <g clip-path="url(#pca495f8135)">
     <!-- RELA -->
     <g transform="translate(522.530883 392.489083)scale(0.12 -0.12)">
      <defs>
       <path d="M 9.8125 72.90625 
L 55.90625 72.90625 
L 55.90625 64.59375 
L 19.671875 64.59375 
L 19.671875 43.015625 
L 54.390625 43.015625 
L 54.390625 34.71875 
L 19.671875 34.71875 
L 19.671875 8.296875 
L 56.78125 8.296875 
L 56.78125 0 
L 9.8125 0 
z
" id="DejaVuSans-69"/>
      </defs>
      <use xlink:href="#DejaVuSans-82"/>
      <use x="69.482422" xlink:href="#DejaVuSans-69"/>
      <use x="132.666016" xlink:href="#DejaVuSans-76"/>
      <use x="190.628906" xlink:href="#DejaVuSans-65"/>
     </g>
    </g>
   </g>
   <g id="text_33">
    <g clip-path="url(#pca495f8135)">
     <!-- NFKB1 -->
     <g transform="translate(588.933074 251.89752)scale(0.12 -0.12)">
      <use xlink:href="#DejaVuSans-78"/>
      <use x="74.804688" xlink:href="#DejaVuSans-70"/>
      <use x="132.324219" xlink:href="#DejaVuSans-75"/>
      <use x="197.900391" xlink:href="#DejaVuSans-66"/>
      <use x="266.503906" xlink:href="#DejaVuSans-49"/>
     </g>
    </g>
   </g>
   <g id="text_34">
    <g clip-path="url(#pca495f8135)">
     <!-- RPS6KA5 -->
     <g transform="translate(376.270906 266.645255)scale(0.12 -0.12)">
      <use xlink:href="#DejaVuSans-82"/>
      <use x="69.482422" xlink:href="#DejaVuSans-80"/>
      <use x="129.785156" xlink:href="#DejaVuSans-83"/>
      <use x="193.261719" xlink:href="#DejaVuSans-54"/>
      <use x="256.884766" xlink:href="#DejaVuSans-75"/>
      <use x="320.710938" xlink:href="#DejaVuSans-65"/>
      <use x="389.119141" xlink:href="#DejaVuSans-53"/>
     </g>
    </g>
   </g>
   <g id="text_35">
    <g clip-path="url(#pca495f8135)">
     <!-- RPS6KA4 -->
     <g transform="translate(365.435625 269.53355)scale(0.12 -0.12)">
      <use xlink:href="#DejaVuSans-82"/>
      <use x="69.482422" xlink:href="#DejaVuSans-80"/>
      <use x="129.785156" xlink:href="#DejaVuSans-83"/>
      <use x="193.261719" xlink:href="#DejaVuSans-54"/>
      <use x="256.884766" xlink:href="#DejaVuSans-75"/>
      <use x="320.710938" xlink:href="#DejaVuSans-65"/>
      <use x="389.119141" xlink:href="#DejaVuSans-52"/>
     </g>
    </g>
   </g>
   <g id="text_36">
    <g clip-path="url(#pca495f8135)">
     <!-- CREB1 -->
     <g transform="translate(222.334945 151.19051)scale(0.12 -0.12)">
      <use xlink:href="#DejaVuSans-67"/>
      <use x="69.824219" xlink:href="#DejaVuSans-82"/>
      <use x="139.306641" xlink:href="#DejaVuSans-69"/>
      <use x="202.490234" xlink:href="#DejaVuSans-66"/>
      <use x="271.09375" xlink:href="#DejaVuSans-49"/>
     </g>
    </g>
   </g>
   <g id="text_37">
    <g clip-path="url(#pca495f8135)">
     <!-- CREB3 -->
     <g transform="translate(357.847678 471.327755)scale(0.12 -0.12)">
      <use xlink:href="#DejaVuSans-67"/>
      <use x="69.824219" xlink:href="#DejaVuSans-82"/>
      <use x="139.306641" xlink:href="#DejaVuSans-69"/>
      <use x="202.490234" xlink:href="#DejaVuSans-66"/>
      <use x="271.09375" xlink:href="#DejaVuSans-51"/>
     </g>
    </g>
   </g>
   <g id="text_38">
    <g clip-path="url(#pca495f8135)">
     <!-- ATF2 -->
     <g transform="translate(151.533285 309.293743)scale(0.12 -0.12)">
      <use xlink:href="#DejaVuSans-65"/>
      <use x="60.658203" xlink:href="#DejaVuSans-84"/>
      <use x="121.742188" xlink:href="#DejaVuSans-70"/>
      <use x="179.261719" xlink:href="#DejaVuSans-50"/>
     </g>
    </g>
   </g>
   <g id="text_39">
    <g clip-path="url(#pca495f8135)">
     <!-- ATF4 -->
     <g transform="translate(675.472031 371.669007)scale(0.12 -0.12)">
      <use xlink:href="#DejaVuSans-65"/>
      <use x="60.658203" xlink:href="#DejaVuSans-84"/>
      <use x="121.742188" xlink:href="#DejaVuSans-70"/>
      <use x="179.261719" xlink:href="#DejaVuSans-52"/>
     </g>
    </g>
   </g>
   <g id="text_40">
    <g clip-path="url(#pca495f8135)">
     <!-- CREB5 -->
     <g transform="translate(508.664923 122.391495)scale(0.12 -0.12)">
      <use xlink:href="#DejaVuSans-67"/>
      <use x="69.824219" xlink:href="#DejaVuSans-82"/>
      <use x="139.306641" xlink:href="#DejaVuSans-69"/>
      <use x="202.490234" xlink:href="#DejaVuSans-66"/>
      <use x="271.09375" xlink:href="#DejaVuSans-53"/>
     </g>
    </g>
   </g>
   <g id="text_41">
    <g clip-path="url(#pca495f8135)">
     <!-- ATF6B -->
     <g transform="translate(294.710794 119.625385)scale(0.12 -0.12)">
      <use xlink:href="#DejaVuSans-65"/>
      <use x="60.658203" xlink:href="#DejaVuSans-84"/>
      <use x="121.742188" xlink:href="#DejaVuSans-70"/>
      <use x="179.261719" xlink:href="#DejaVuSans-54"/>
      <use x="242.884766" xlink:href="#DejaVuSans-66"/>
     </g>
    </g>
   </g>
   <g id="text_42">
    <g clip-path="url(#pca495f8135)">
     <!-- LTA -->
     <g transform="translate(341.400679 350.209093)scale(0.12 -0.12)">
      <use xlink:href="#DejaVuSans-76"/>
      <use x="41.962891" xlink:href="#DejaVuSans-84"/>
      <use x="95.296875" xlink:href="#DejaVuSans-65"/>
     </g>
    </g>
   </g>
   <g id="text_43">
    <g clip-path="url(#pca495f8135)">
     <!-- CASP8 -->
     <g transform="translate(315.663837 245.024884)scale(0.12 -0.12)">
      <use xlink:href="#DejaVuSans-67"/>
      <use x="69.824219" xlink:href="#DejaVuSans-65"/>
      <use x="138.232422" xlink:href="#DejaVuSans-83"/>
      <use x="201.708984" xlink:href="#DejaVuSans-80"/>
      <use x="262.011719" xlink:href="#DejaVuSans-56"/>
     </g>
    </g>
   </g>
   <g id="text_44">
    <g clip-path="url(#pca495f8135)">
     <!-- CASP10 -->
     <g transform="translate(343.756787 276.214768)scale(0.12 -0.12)">
      <defs>
       <path d="M 31.78125 66.40625 
Q 24.171875 66.40625 20.328125 58.90625 
Q 16.5 51.421875 16.5 36.375 
Q 16.5 21.390625 20.328125 13.890625 
Q 24.171875 6.390625 31.78125 6.390625 
Q 39.453125 6.390625 43.28125 13.890625 
Q 47.125 21.390625 47.125 36.375 
Q 47.125 51.421875 43.28125 58.90625 
Q 39.453125 66.40625 31.78125 66.40625 
z
M 31.78125 74.21875 
Q 44.046875 74.21875 50.515625 64.515625 
Q 56.984375 54.828125 56.984375 36.375 
Q 56.984375 17.96875 50.515625 8.265625 
Q 44.046875 -1.421875 31.78125 -1.421875 
Q 19.53125 -1.421875 13.0625 8.265625 
Q 6.59375 17.96875 6.59375 36.375 
Q 6.59375 54.828125 13.0625 64.515625 
Q 19.53125 74.21875 31.78125 74.21875 
z
" id="DejaVuSans-48"/>
      </defs>
      <use xlink:href="#DejaVuSans-67"/>
      <use x="69.824219" xlink:href="#DejaVuSans-65"/>
      <use x="138.232422" xlink:href="#DejaVuSans-83"/>
      <use x="201.708984" xlink:href="#DejaVuSans-80"/>
      <use x="262.011719" xlink:href="#DejaVuSans-49"/>
      <use x="325.634766" xlink:href="#DejaVuSans-48"/>
     </g>
    </g>
   </g>
   <g id="text_45">
    <!-- Frame: 11 -->
    <g transform="translate(121.392 91.296)scale(0.1 -0.1)">
     <defs>
      <path d="M 41.109375 46.296875 
Q 39.59375 47.171875 37.8125 47.578125 
Q 36.03125 48 33.890625 48 
Q 26.265625 48 22.1875 43.046875 
Q 18.109375 38.09375 18.109375 28.8125 
L 18.109375 0 
L 9.078125 0 
L 9.078125 54.6875 
L 18.109375 54.6875 
L 18.109375 46.1875 
Q 20.953125 51.171875 25.484375 53.578125 
Q 30.03125 56 36.53125 56 
Q 37.453125 56 38.578125 55.875 
Q 39.703125 55.765625 41.0625 55.515625 
z
" id="DejaVuSans-114"/>
      <path d="M 34.28125 27.484375 
Q 23.390625 27.484375 19.1875 25 
Q 14.984375 22.515625 14.984375 16.5 
Q 14.984375 11.71875 18.140625 8.90625 
Q 21.296875 6.109375 26.703125 6.109375 
Q 34.1875 6.109375 38.703125 11.40625 
Q 43.21875 16.703125 43.21875 25.484375 
L 43.21875 27.484375 
z
M 52.203125 31.203125 
L 52.203125 0 
L 43.21875 0 
L 43.21875 8.296875 
Q 40.140625 3.328125 35.546875 0.953125 
Q 30.953125 -1.421875 24.3125 -1.421875 
Q 15.921875 -1.421875 10.953125 3.296875 
Q 6 8.015625 6 15.921875 
Q 6 25.140625 12.171875 29.828125 
Q 18.359375 34.515625 30.609375 34.515625 
L 43.21875 34.515625 
L 43.21875 35.40625 
Q 43.21875 41.609375 39.140625 45 
Q 35.0625 48.390625 27.6875 48.390625 
Q 23 48.390625 18.546875 47.265625 
Q 14.109375 46.140625 10.015625 43.890625 
L 10.015625 52.203125 
Q 14.9375 54.109375 19.578125 55.046875 
Q 24.21875 56 28.609375 56 
Q 40.484375 56 46.34375 49.84375 
Q 52.203125 43.703125 52.203125 31.203125 
z
" id="DejaVuSans-97"/>
      <path d="M 52 44.1875 
Q 55.375 50.25 60.0625 53.125 
Q 64.75 56 71.09375 56 
Q 79.640625 56 84.28125 50.015625 
Q 88.921875 44.046875 88.921875 33.015625 
L 88.921875 0 
L 79.890625 0 
L 79.890625 32.71875 
Q 79.890625 40.578125 77.09375 44.375 
Q 74.3125 48.1875 68.609375 48.1875 
Q 61.625 48.1875 57.5625 43.546875 
Q 53.515625 38.921875 53.515625 30.90625 
L 53.515625 0 
L 44.484375 0 
L 44.484375 32.71875 
Q 44.484375 40.625 41.703125 44.40625 
Q 38.921875 48.1875 33.109375 48.1875 
Q 26.21875 48.1875 22.15625 43.53125 
Q 18.109375 38.875 18.109375 30.90625 
L 18.109375 0 
L 9.078125 0 
L 9.078125 54.6875 
L 18.109375 54.6875 
L 18.109375 46.1875 
Q 21.1875 51.21875 25.484375 53.609375 
Q 29.78125 56 35.6875 56 
Q 41.65625 56 45.828125 52.96875 
Q 50 49.953125 52 44.1875 
z
" id="DejaVuSans-109"/>
      <path d="M 56.203125 29.59375 
L 56.203125 25.203125 
L 14.890625 25.203125 
Q 15.484375 15.921875 20.484375 11.0625 
Q 25.484375 6.203125 34.421875 6.203125 
Q 39.59375 6.203125 44.453125 7.46875 
Q 49.3125 8.734375 54.109375 11.28125 
L 54.109375 2.78125 
Q 49.265625 0.734375 44.1875 -0.34375 
Q 39.109375 -1.421875 33.890625 -1.421875 
Q 20.796875 -1.421875 13.15625 6.1875 
Q 5.515625 13.8125 5.515625 26.8125 
Q 5.515625 40.234375 12.765625 48.109375 
Q 20.015625 56 32.328125 56 
Q 43.359375 56 49.78125 48.890625 
Q 56.203125 41.796875 56.203125 29.59375 
z
M 47.21875 32.234375 
Q 47.125 39.59375 43.09375 43.984375 
Q 39.0625 48.390625 32.421875 48.390625 
Q 24.90625 48.390625 20.390625 44.140625 
Q 15.875 39.890625 15.1875 32.171875 
z
" id="DejaVuSans-101"/>
      <path d="M 11.71875 12.40625 
L 22.015625 12.40625 
L 22.015625 0 
L 11.71875 0 
z
M 11.71875 51.703125 
L 22.015625 51.703125 
L 22.015625 39.3125 
L 11.71875 39.3125 
z
" id="DejaVuSans-58"/>
      <path id="DejaVuSans-32"/>
     </defs>
     <use xlink:href="#DejaVuSans-70"/>
     <use x="50.269531" xlink:href="#DejaVuSans-114"/>
     <use x="91.382812" xlink:href="#DejaVuSans-97"/>
     <use x="152.662109" xlink:href="#DejaVuSans-109"/>
     <use x="250.074219" xlink:href="#DejaVuSans-101"/>
     <use x="311.597656" xlink:href="#DejaVuSans-58"/>
     <use x="345.289062" xlink:href="#DejaVuSans-32"/>
     <use x="377.076172" xlink:href="#DejaVuSans-49"/>
     <use x="440.699219" xlink:href="#DejaVuSans-49"/>
    </g>
   </g>
   <g id="text_46">
    <!-- Network: hsa04668 -->
    <g transform="translate(384.1275 63.12)scale(0.12 -0.12)">
     <defs>
      <path d="M 18.3125 70.21875 
L 18.3125 54.6875 
L 36.8125 54.6875 
L 36.8125 47.703125 
L 18.3125 47.703125 
L 18.3125 18.015625 
Q 18.3125 11.328125 20.140625 9.421875 
Q 21.96875 7.515625 27.59375 7.515625 
L 36.8125 7.515625 
L 36.8125 0 
L 27.59375 0 
Q 17.1875 0 13.234375 3.875 
Q 9.28125 7.765625 9.28125 18.015625 
L 9.28125 47.703125 
L 2.6875 47.703125 
L 2.6875 54.6875 
L 9.28125 54.6875 
L 9.28125 70.21875 
z
" id="DejaVuSans-116"/>
      <path d="M 4.203125 54.6875 
L 13.1875 54.6875 
L 24.421875 12.015625 
L 35.59375 54.6875 
L 46.1875 54.6875 
L 57.421875 12.015625 
L 68.609375 54.6875 
L 77.59375 54.6875 
L 63.28125 0 
L 52.6875 0 
L 40.921875 44.828125 
L 29.109375 0 
L 18.5 0 
z
" id="DejaVuSans-119"/>
      <path d="M 30.609375 48.390625 
Q 23.390625 48.390625 19.1875 42.75 
Q 14.984375 37.109375 14.984375 27.296875 
Q 14.984375 17.484375 19.15625 11.84375 
Q 23.34375 6.203125 30.609375 6.203125 
Q 37.796875 6.203125 41.984375 11.859375 
Q 46.1875 17.53125 46.1875 27.296875 
Q 46.1875 37.015625 41.984375 42.703125 
Q 37.796875 48.390625 30.609375 48.390625 
z
M 30.609375 56 
Q 42.328125 56 49.015625 48.375 
Q 55.71875 40.765625 55.71875 27.296875 
Q 55.71875 13.875 49.015625 6.21875 
Q 42.328125 -1.421875 30.609375 -1.421875 
Q 18.84375 -1.421875 12.171875 6.21875 
Q 5.515625 13.875 5.515625 27.296875 
Q 5.515625 40.765625 12.171875 48.375 
Q 18.84375 56 30.609375 56 
z
" id="DejaVuSans-111"/>
      <path d="M 9.078125 75.984375 
L 18.109375 75.984375 
L 18.109375 31.109375 
L 44.921875 54.6875 
L 56.390625 54.6875 
L 27.390625 29.109375 
L 57.625 0 
L 45.90625 0 
L 18.109375 26.703125 
L 18.109375 0 
L 9.078125 0 
z
" id="DejaVuSans-107"/>
      <path d="M 54.890625 33.015625 
L 54.890625 0 
L 45.90625 0 
L 45.90625 32.71875 
Q 45.90625 40.484375 42.875 44.328125 
Q 39.84375 48.1875 33.796875 48.1875 
Q 26.515625 48.1875 22.3125 43.546875 
Q 18.109375 38.921875 18.109375 30.90625 
L 18.109375 0 
L 9.078125 0 
L 9.078125 75.984375 
L 18.109375 75.984375 
L 18.109375 46.1875 
Q 21.34375 51.125 25.703125 53.5625 
Q 30.078125 56 35.796875 56 
Q 45.21875 56 50.046875 50.171875 
Q 54.890625 44.34375 54.890625 33.015625 
z
" id="DejaVuSans-104"/>
      <path d="M 44.28125 53.078125 
L 44.28125 44.578125 
Q 40.484375 46.53125 36.375 47.5 
Q 32.28125 48.484375 27.875 48.484375 
Q 21.1875 48.484375 17.84375 46.4375 
Q 14.5 44.390625 14.5 40.28125 
Q 14.5 37.15625 16.890625 35.375 
Q 19.28125 33.59375 26.515625 31.984375 
L 29.59375 31.296875 
Q 39.15625 29.25 43.1875 25.515625 
Q 47.21875 21.78125 47.21875 15.09375 
Q 47.21875 7.46875 41.1875 3.015625 
Q 35.15625 -1.421875 24.609375 -1.421875 
Q 20.21875 -1.421875 15.453125 -0.5625 
Q 10.6875 0.296875 5.421875 2 
L 5.421875 11.28125 
Q 10.40625 8.6875 15.234375 7.390625 
Q 20.0625 6.109375 24.8125 6.109375 
Q 31.15625 6.109375 34.5625 8.28125 
Q 37.984375 10.453125 37.984375 14.40625 
Q 37.984375 18.0625 35.515625 20.015625 
Q 33.0625 21.96875 24.703125 23.78125 
L 21.578125 24.515625 
Q 13.234375 26.265625 9.515625 29.90625 
Q 5.8125 33.546875 5.8125 39.890625 
Q 5.8125 47.609375 11.28125 51.796875 
Q 16.75 56 26.8125 56 
Q 31.78125 56 36.171875 55.265625 
Q 40.578125 54.546875 44.28125 53.078125 
z
" id="DejaVuSans-115"/>
     </defs>
     <use xlink:href="#DejaVuSans-78"/>
     <use x="74.804688" xlink:href="#DejaVuSans-101"/>
     <use x="136.328125" xlink:href="#DejaVuSans-116"/>
     <use x="175.537109" xlink:href="#DejaVuSans-119"/>
     <use x="257.324219" xlink:href="#DejaVuSans-111"/>
     <use x="318.505859" xlink:href="#DejaVuSans-114"/>
     <use x="359.619141" xlink:href="#DejaVuSans-107"/>
     <use x="417.529297" xlink:href="#DejaVuSans-58"/>
     <use x="451.220703" xlink:href="#DejaVuSans-32"/>
     <use x="483.007812" xlink:href="#DejaVuSans-104"/>
     <use x="546.386719" xlink:href="#DejaVuSans-115"/>
     <use x="598.486328" xlink:href="#DejaVuSans-97"/>
     <use x="659.765625" xlink:href="#DejaVuSans-48"/>
     <use x="723.388672" xlink:href="#DejaVuSans-52"/>
     <use x="787.011719" xlink:href="#DejaVuSans-54"/>
     <use x="850.634766" xlink:href="#DejaVuSans-54"/>
     <use x="914.257812" xlink:href="#DejaVuSans-56"/>
    </g>
   </g>
  </g>
 </g>
 <defs>
  <clipPath id="pca495f8135">
   <rect height="443.52" width="669.6" x="108" y="69.12"/>
  </clipPath>
 </defs>
</svg>
