<?xml version="1.0" encoding="utf-8" standalone="no"?>
<!DOCTYPE svg PUBLIC "-//W3C//DTD SVG 1.1//EN"
  "http://www.w3.org/Graphics/SVG/1.1/DTD/svg11.dtd">
<!-- Created with matplotlib (https://matplotlib.org/) -->
<svg height="576pt" version="1.1" viewBox="0 0 864 576" width="864pt" xmlns="http://www.w3.org/2000/svg" xmlns:xlink="http://www.w3.org/1999/xlink">
 <metadata>
  <rdf:RDF xmlns:cc="http://creativecommons.org/ns#" xmlns:dc="http://purl.org/dc/elements/1.1/" xmlns:rdf="http://www.w3.org/1999/02/22-rdf-syntax-ns#">
   <cc:Work>
    <dc:type rdf:resource="http://purl.org/dc/dcmitype/StillImage"/>
    <dc:date>2024-04-26T13:37:11.952576</dc:date>
    <dc:format>image/svg+xml</dc:format>
    <dc:creator>
     <cc:Agent>
      <dc:title>Matplotlib v3.3.1, https://matplotlib.org/</dc:title>
     </cc:Agent>
    </dc:creator>
   </cc:Work>
  </rdf:RDF>
 </metadata>
 <defs>
  <style type="text/css">*{stroke-linecap:butt;stroke-linejoin:round;}</style>
 </defs>
 <g id="figure_1">
  <g id="patch_1">
   <path d="M 0 576 
L 864 576 
L 864 0 
L 0 0 
z
" style="fill:#ffffff;"/>
  </g>
  <g id="axes_1">
   <g id="patch_2">
    <path clip-path="url(#p3c0b543f58)" d="M 415.675215 376.04718 
Q 425.196029 410.834657 434.421707 444.543758 
" style="fill:none;stroke:#000000;stroke-linecap:round;"/>
    <path clip-path="url(#p3c0b543f58)" d="M 435.294856 440.157688 
L 434.421707 444.543758 
L 431.43674 441.213597 
L 435.294856 440.157688 
z
" style="stroke:#000000;stroke-linecap:round;"/>
   </g>
   <g id="patch_3">
    <path clip-path="url(#p3c0b543f58)" d="M 419.308154 374.009419 
Q 431.489752 387.009988 442.906896 399.194708 
" style="fill:none;stroke:#000000;stroke-linecap:round;"/>
    <path clip-path="url(#p3c0b543f58)" d="M 441.631336 394.908341 
L 442.906896 399.194708 
L 438.712466 397.643336 
L 441.631336 394.908341 
z
" style="stroke:#000000;stroke-linecap:round;"/>
   </g>
   <g id="patch_4">
    <path clip-path="url(#p3c0b543f58)" d="M 235.956225 223.690993 
Q 204.709195 243.102484 174.411863 261.923997 
" style="fill:none;stroke:#000000;stroke-linecap:round;"/>
    <path clip-path="url(#p3c0b543f58)" d="M 178.86499 261.5121 
L 174.411863 261.923997 
L 176.754222 258.114357 
L 178.86499 261.5121 
z
" style="stroke:#000000;stroke-linecap:round;"/>
   </g>
   <g id="patch_5">
    <path clip-path="url(#p3c0b543f58)" d="M 336.417884 272.629495 
Q 372.177207 316.793926 407.23298 360.08944 
" style="fill:none;stroke:#000000;stroke-linecap:round;"/>
    <path clip-path="url(#p3c0b543f58)" d="M 406.270249 355.722158 
L 407.23298 360.08944 
L 403.161516 358.239256 
L 406.270249 355.722158 
z
" style="stroke:#000000;stroke-linecap:round;"/>
   </g>
   <g id="patch_6">
    <path clip-path="url(#p3c0b543f58)" d="M 322.306074 265.960014 
Q 248.536617 266.490823 175.885165 267.013587 
" style="fill:none;stroke:#000000;stroke-linecap:round;"/>
    <path clip-path="url(#p3c0b543f58)" d="M 179.899452 268.984754 
L 175.885165 267.013587 
L 179.870671 264.984858 
L 179.899452 268.984754 
z
" style="stroke:#000000;stroke-linecap:round;"/>
   </g>
   <g id="patch_7">
    <path clip-path="url(#p3c0b543f58)" d="M 381.964746 250.200619 
Q 300.470627 311.098764 219.872108 371.327653 
" style="fill:none;stroke:#000000;stroke-linecap:round;"/>
    <path clip-path="url(#p3c0b543f58)" d="M 224.273501 370.535351 
L 219.872108 371.327653 
L 221.879102 367.331158 
L 224.273501 370.535351 
z
" style="stroke:#000000;stroke-linecap:round;"/>
   </g>
   <g id="patch_8">
    <path clip-path="url(#p3c0b543f58)" d="M 395.311433 239.193881 
Q 462.918828 177.773145 529.698699 117.104208 
" style="fill:none;stroke:#000000;stroke-linecap:round;"/>
    <path clip-path="url(#p3c0b543f58)" d="M 525.393196 118.313605 
L 529.698699 117.104208 
L 528.082915 121.274249 
L 525.393196 118.313605 
z
" style="stroke:#000000;stroke-linecap:round;"/>
   </g>
   <g id="patch_9">
    <path clip-path="url(#p3c0b543f58)" d="M 496.961126 203.530368 
Q 539.691494 196.813998 581.317389 190.271229 
" style="fill:none;stroke:#000000;stroke-linecap:round;"/>
    <path clip-path="url(#p3c0b543f58)" d="M 577.055355 188.916581 
L 581.317389 190.271229 
L 577.676451 192.868067 
L 577.055355 188.916581 
z
" style="stroke:#000000;stroke-linecap:round;"/>
   </g>
   <g id="patch_10">
    <path clip-path="url(#p3c0b543f58)" d="M 480.793494 208.99779 
Q 433.436452 234.643905 387.062537 259.75761 
" style="fill:none;stroke:#000000;stroke-linecap:round;"/>
    <path clip-path="url(#p3c0b543f58)" d="M 391.532284 259.611471 
L 387.062537 259.75761 
L 389.627474 256.094128 
L 391.532284 259.611471 
z
" style="stroke:#000000;stroke-linecap:round;"/>
   </g>
   <g id="patch_11">
    <path clip-path="url(#p3c0b543f58)" d="M 582.447362 187.247341 
Q 503.683086 173.33687 426.019805 159.620843 
" style="fill:none;stroke:#000000;stroke-linecap:round;"/>
    <path clip-path="url(#p3c0b543f58)" d="M 429.611011 162.286034 
L 426.019805 159.620843 
L 430.306681 158.346993 
L 429.611011 162.286034 
z
" style="stroke:#000000;stroke-linecap:round;"/>
   </g>
   <g id="patch_12">
    <path clip-path="url(#p3c0b543f58)" d="M 407.750266 157.377207 
Q 345.699875 153.475796 284.765315 149.644544 
" style="fill:none;stroke:#000000;stroke-linecap:round;"/>
    <path clip-path="url(#p3c0b543f58)" d="M 288.63193 151.891606 
L 284.765315 149.644544 
L 288.882934 147.899489 
L 288.63193 151.891606 
z
" style="stroke:#000000;stroke-linecap:round;"/>
   </g>
   <g id="patch_13">
    <path clip-path="url(#p3c0b543f58)" d="M 443.676029 340.754311 
Q 310.792153 324.301478 179.017839 307.986024 
" style="fill:none;stroke:#000000;stroke-linecap:round;"/>
    <path clip-path="url(#p3c0b543f58)" d="M 182.741776 310.46237 
L 179.017839 307.986024 
L 183.233278 306.492681 
L 182.741776 310.46237 
z
" style="stroke:#000000;stroke-linecap:round;"/>
   </g>
   <g id="patch_14">
    <path clip-path="url(#p3c0b543f58)" d="M 460.904418 342.469752 
Q 585.880674 351.896437 709.742064 361.239029 
" style="fill:none;stroke:#000000;stroke-linecap:round;"/>
    <path clip-path="url(#p3c0b543f58)" d="M 705.903822 358.943838 
L 709.742064 361.239029 
L 705.602966 362.932507 
L 705.903822 358.943838 
z
" style="stroke:#000000;stroke-linecap:round;"/>
   </g>
   <g id="patch_15">
    <path clip-path="url(#p3c0b543f58)" d="M 403.272212 246.673164 
Q 299.514291 234.857997 196.867224 223.169325 
" style="fill:none;stroke:#000000;stroke-linecap:round;"/>
    <path clip-path="url(#p3c0b543f58)" d="M 200.615257 225.609048 
L 196.867224 223.169325 
L 201.067822 221.634733 
L 200.615257 225.609048 
z
" style="stroke:#000000;stroke-linecap:round;"/>
   </g>
   <g id="patch_16">
    <path clip-path="url(#p3c0b543f58)" d="M 513.687896 244.053119 
Q 367.880698 212.996142 223.167003 182.172081 
" style="fill:none;stroke:#000000;stroke-linecap:round;"/>
    <path clip-path="url(#p3c0b543f58)" d="M 226.662587 184.961507 
L 223.167003 182.172081 
L 227.495894 181.04927 
L 226.662587 184.961507 
z
" style="stroke:#000000;stroke-linecap:round;"/>
   </g>
   <g id="patch_17">
    <path clip-path="url(#p3c0b543f58)" d="M 530.496899 243.528371 
Q 616.611482 219.479443 701.649233 195.731239 
" style="fill:none;stroke:#000000;stroke-linecap:round;"/>
    <path clip-path="url(#p3c0b543f58)" d="M 697.258695 194.880844 
L 701.649233 195.731239 
L 698.334594 198.733432 
L 697.258695 194.880844 
z
" style="stroke:#000000;stroke-linecap:round;"/>
   </g>
   <g id="patch_18">
    <path clip-path="url(#p3c0b543f58)" d="M 528.61838 251.624175 
Q 603.053255 318.067504 676.654055 383.766306 
" style="fill:none;stroke:#000000;stroke-linecap:round;"/>
    <path clip-path="url(#p3c0b543f58)" d="M 675.001827 379.61057 
L 676.654055 383.766306 
L 672.338129 382.594647 
L 675.001827 379.61057 
z
" style="stroke:#000000;stroke-linecap:round;"/>
   </g>
   <g id="patch_19">
    <path clip-path="url(#p3c0b543f58)" d="M 404.003082 352.575301 
Q 458.12224 341.048607 511.147891 329.754816 
" style="fill:none;stroke:#000000;stroke-linecap:round;"/>
    <path clip-path="url(#p3c0b543f58)" d="M 506.819014 328.631951 
L 511.147891 329.754816 
L 507.652273 332.544198 
L 506.819014 328.631951 
z
" style="stroke:#000000;stroke-linecap:round;"/>
   </g>
   <g id="patch_20">
    <path clip-path="url(#p3c0b543f58)" d="M 513.381671 323.116208 
Q 454.810122 286.3672 397.185632 250.212396 
" style="fill:none;stroke:#000000;stroke-linecap:round;"/>
    <path clip-path="url(#p3c0b543f58)" d="M 399.510988 254.032438 
L 397.185632 250.212396 
L 401.636879 250.644136 
L 399.510988 254.032438 
z
" style="stroke:#000000;stroke-linecap:round;"/>
   </g>
   <g id="patch_21">
    <path clip-path="url(#p3c0b543f58)" d="M 448.219511 333.184364 
Q 428.961139 396.210389 410.029484 458.167182 
" style="fill:none;stroke:#000000;stroke-linecap:round;"/>
    <path clip-path="url(#p3c0b543f58)" d="M 413.111081 454.926232 
L 410.029484 458.167182 
L 409.285682 453.757334 
L 413.111081 454.926232 
z
" style="stroke:#000000;stroke-linecap:round;"/>
   </g>
   <g id="patch_22">
    <path clip-path="url(#p3c0b543f58)" d="M 451.526237 316.277703 
Q 460.524764 216.255295 469.423111 117.346423 
" style="fill:none;stroke:#000000;stroke-linecap:round;"/>
    <path clip-path="url(#p3c0b543f58)" d="M 467.072743 121.151127 
L 469.423111 117.346423 
L 471.056653 121.509539 
L 467.072743 121.151127 
z
" style="stroke:#000000;stroke-linecap:round;"/>
   </g>
   <g id="patch_23">
    <path clip-path="url(#p3c0b543f58)" d="M 458.431829 328.908044 
Q 545.412818 374.273831 631.402503 419.122593 
" style="fill:none;stroke:#000000;stroke-linecap:round;"/>
    <path clip-path="url(#p3c0b543f58)" d="M 628.780785 415.499529 
L 631.402503 419.122593 
L 626.931021 419.046129 
L 628.780785 415.499529 
z
" style="stroke:#000000;stroke-linecap:round;"/>
   </g>
   <g id="patch_24">
    <path clip-path="url(#p3c0b543f58)" d="M 442.709802 328.114068 
Q 340.558864 368.925273 239.446166 409.32168 
" style="fill:none;stroke:#000000;stroke-linecap:round;"/>
    <path clip-path="url(#p3c0b543f58)" d="M 243.902699 409.69492 
L 239.446166 409.32168 
L 242.418678 405.980397 
L 243.902699 409.69492 
z
" style="stroke:#000000;stroke-linecap:round;"/>
   </g>
   <g id="patch_25">
    <path clip-path="url(#p3c0b543f58)" d="M 313.524934 281.586145 
Q 347.318368 265.190973 380.105902 249.283822 
" style="fill:none;stroke:#000000;stroke-linecap:round;"/>
    <path clip-path="url(#p3c0b543f58)" d="M 375.634085 249.23041 
L 380.105902 249.283822 
L 377.380083 252.829229 
L 375.634085 249.23041 
z
" style="stroke:#000000;stroke-linecap:round;"/>
   </g>
   <g id="patch_26">
    <path clip-path="url(#p3c0b543f58)" d="M 442.933182 325.072945 
Q 446.84178 324.987327 449.632612 324.926193 
" style="fill:none;stroke:#000000;stroke-linecap:round;"/>
    <path clip-path="url(#p3c0b543f58)" d="M 445.589772 323.014272 
L 449.632612 324.926193 
L 445.677371 327.013313 
L 445.589772 323.014272 
z
" style="stroke:#000000;stroke-linecap:round;"/>
   </g>
   <g id="patch_27">
    <path clip-path="url(#p3c0b543f58)" d="M 432.650955 333.767499 
Q 420.72164 396.389319 409.001547 457.912857 
" style="fill:none;stroke:#000000;stroke-linecap:round;"/>
    <path clip-path="url(#p3c0b543f58)" d="M 411.714746 454.357783 
L 409.001547 457.912857 
L 407.785407 453.609253 
L 411.714746 454.357783 
z
" style="stroke:#000000;stroke-linecap:round;"/>
   </g>
   <g id="patch_28">
    <path clip-path="url(#p3c0b543f58)" d="M 435.6856 316.717348 
Q 452.285501 216.433152 468.70282 117.25198 
" style="fill:none;stroke:#000000;stroke-linecap:round;"/>
    <path clip-path="url(#p3c0b543f58)" d="M 466.076443 120.871668 
L 468.70282 117.25198 
L 470.022745 121.524894 
L 466.076443 120.871668 
z
" style="stroke:#000000;stroke-linecap:round;"/>
   </g>
   <g id="patch_29">
    <path clip-path="url(#p3c0b543f58)" d="M 442.087317 328.999174 
Q 537.172957 374.454187 631.249896 419.426998 
" style="fill:none;stroke:#000000;stroke-linecap:round;"/>
    <path clip-path="url(#p3c0b543f58)" d="M 628.503644 415.897395 
L 631.249896 419.426998 
L 626.778462 419.506238 
L 628.503644 415.897395 
z
" style="stroke:#000000;stroke-linecap:round;"/>
   </g>
   <g id="patch_30">
    <path clip-path="url(#p3c0b543f58)" d="M 426.31526 328.683988 
Q 332.317128 369.106592 239.346085 409.08751 
" style="fill:none;stroke:#000000;stroke-linecap:round;"/>
    <path clip-path="url(#p3c0b543f58)" d="M 243.810826 409.344601 
L 239.346085 409.08751 
L 242.230602 405.669972 
L 243.810826 409.344601 
z
" style="stroke:#000000;stroke-linecap:round;"/>
   </g>
   <g id="patch_31">
    <path clip-path="url(#p3c0b543f58)" d="M 544.34479 143.744409 
Q 480.525312 129.807872 417.798127 116.109864 
" style="fill:none;stroke:#000000;stroke-linecap:round;"/>
    <path clip-path="url(#p3c0b543f58)" d="M 421.27934 118.917204 
L 417.798127 116.109864 
L 422.132726 115.009297 
L 421.27934 118.917204 
z
" style="stroke:#000000;stroke-linecap:round;"/>
   </g>
   <g id="patch_32">
    <path clip-path="url(#p3c0b543f58)" d="M 520.071573 160.304992 
Q 468.15979 138.820411 417.281062 117.763376 
" style="fill:none;stroke:#000000;stroke-linecap:round;"/>
    <path clip-path="url(#p3c0b543f58)" d="M 420.212213 121.141003 
L 417.281062 117.763376 
L 421.741853 117.445032 
L 420.212213 121.141003 
z
" style="stroke:#000000;stroke-linecap:round;"/>
   </g>
   <g id="patch_33">
    <path clip-path="url(#p3c0b543f58)" d="M 506.423667 253.998989 
Q 364.213129 218.126286 223.086667 182.527043 
" style="fill:none;stroke:#000000;stroke-linecap:round;"/>
    <path clip-path="url(#p3c0b543f58)" d="M 226.475997 185.444652 
L 223.086667 182.527043 
L 227.454353 181.566145 
L 226.475997 185.444652 
z
" style="stroke:#000000;stroke-linecap:round;"/>
   </g>
   <g id="patch_34">
    <path clip-path="url(#p3c0b543f58)" d="M 523.064613 253.470049 
Q 612.941716 224.60987 701.754319 196.091509 
" style="fill:none;stroke:#000000;stroke-linecap:round;"/>
    <path clip-path="url(#p3c0b543f58)" d="M 697.334384 195.4102 
L 701.754319 196.091509 
L 698.557311 199.218671 
L 697.334384 195.4102 
z
" style="stroke:#000000;stroke-linecap:round;"/>
   </g>
   <g id="patch_35">
    <path clip-path="url(#p3c0b543f58)" d="M 521.605388 261.499011 
Q 599.383618 323.196466 676.285933 384.199102 
" style="fill:none;stroke:#000000;stroke-linecap:round;"/>
    <path clip-path="url(#p3c0b543f58)" d="M 674.395092 380.146359 
L 676.285933 384.199102 
L 671.909235 383.280129 
L 674.395092 380.146359 
z
" style="stroke:#000000;stroke-linecap:round;"/>
   </g>
   <g id="patch_36">
    <path clip-path="url(#p3c0b543f58)" d="M 445.047521 385.842241 
Q 364.165195 411.229734 284.349588 436.282403 
" style="fill:none;stroke:#000000;stroke-linecap:round;"/>
    <path clip-path="url(#p3c0b543f58)" d="M 288.764956 436.992707 
L 284.349588 436.282403 
L 287.567052 433.176292 
L 288.764956 436.992707 
z
" style="stroke:#000000;stroke-linecap:round;"/>
   </g>
   <g id="patch_37">
    <path clip-path="url(#p3c0b543f58)" d="M 202.247031 379.913495 
Q 235.276531 406.826969 267.439299 433.034202 
" style="fill:none;stroke:#000000;stroke-linecap:round;"/>
    <path clip-path="url(#p3c0b543f58)" d="M 265.601745 428.957022 
L 267.439299 433.034202 
L 263.075023 432.057937 
L 265.601745 428.957022 
z
" style="stroke:#000000;stroke-linecap:round;"/>
   </g>
   <g id="patch_38">
    <path clip-path="url(#p3c0b543f58)" d="M 380.077153 272.923129 
Q 386.998091 309.396639 393.710599 344.771715 
" style="fill:none;stroke:#000000;stroke-linecap:round;"/>
    <path clip-path="url(#p3c0b543f58)" d="M 394.929833 340.468987 
L 393.710599 344.771715 
L 390.999957 341.214691 
L 394.929833 340.468987 
z
" style="stroke:#000000;stroke-linecap:round;"/>
   </g>
   <g id="patch_39">
    <path clip-path="url(#p3c0b543f58)" d="M 445.56804 455.282336 
Q 451.16623 456.133993 455.659103 456.817498 
" style="fill:none;stroke:#000000;stroke-linecap:round;"/>
    <path clip-path="url(#p3c0b543f58)" d="M 452.005403 454.238646 
L 455.659103 456.817498 
L 451.403802 458.193146 
L 452.005403 454.238646 
z
" style="stroke:#000000;stroke-linecap:round;"/>
   </g>
   <g id="patch_40">
    <path clip-path="url(#p3c0b543f58)" d="M 442.484363 460.68503 
Q 445.248144 464.06675 447.304417 466.582774 
" style="fill:none;stroke:#000000;stroke-linecap:round;"/>
    <path clip-path="url(#p3c0b543f58)" d="M 446.321762 462.219932 
L 447.304417 466.582774 
L 443.224551 464.751193 
L 446.321762 462.219932 
z
" style="stroke:#000000;stroke-linecap:round;"/>
   </g>
   <g id="patch_41">
    <path clip-path="url(#p3c0b543f58)" d="M 445.492927 455.676286 
Q 469.819458 460.538801 493.049643 465.182173 
" style="fill:none;stroke:#000000;stroke-linecap:round;"/>
    <path clip-path="url(#p3c0b543f58)" d="M 489.51925 462.436936 
L 493.049643 465.182173 
L 488.735218 466.359346 
L 489.51925 462.436936 
z
" style="stroke:#000000;stroke-linecap:round;"/>
   </g>
   <g id="patch_42">
    <path clip-path="url(#p3c0b543f58)" d="M 428.946951 457.155183 
Q 417.425723 461.696199 406.94465 465.827244 
" style="fill:none;stroke:#000000;stroke-linecap:round;"/>
    <path clip-path="url(#p3c0b543f58)" d="M 411.399402 466.221176 
L 406.94465 465.827244 
L 409.932647 462.499802 
L 411.399402 466.221176 
z
" style="stroke:#000000;stroke-linecap:round;"/>
   </g>
   <g id="patch_43">
    <path clip-path="url(#p3c0b543f58)" d="M 436.682194 445.325679 
Q 436.43152 438.587398 436.22241 432.966378 
" style="fill:none;stroke:#000000;stroke-linecap:round;"/>
    <path clip-path="url(#p3c0b543f58)" d="M 434.372495 437.037964 
L 436.22241 432.966378 
L 438.36973 436.889261 
L 434.372495 437.037964 
z
" style="stroke:#000000;stroke-linecap:round;"/>
   </g>
   <g id="patch_44">
    <path clip-path="url(#p3c0b543f58)" d="M 445.639279 454.622578 
Q 463.769347 455.97276 480.78447 457.239911 
" style="fill:none;stroke:#000000;stroke-linecap:round;"/>
    <path clip-path="url(#p3c0b543f58)" d="M 476.944049 454.948368 
L 480.78447 457.239911 
L 476.646983 458.937322 
L 476.944049 454.948368 
z
" style="stroke:#000000;stroke-linecap:round;"/>
   </g>
   <g id="patch_45">
    <path clip-path="url(#p3c0b543f58)" d="M 452.101179 414.615606 
Q 457.459204 432.308313 462.49318 448.930978 
" style="fill:none;stroke:#000000;stroke-linecap:round;"/>
    <path clip-path="url(#p3c0b543f58)" d="M 463.247975 444.522998 
L 462.49318 448.930978 
L 459.419674 445.682354 
L 463.247975 444.522998 
z
" style="stroke:#000000;stroke-linecap:round;"/>
   </g>
   <g id="patch_46">
    <path clip-path="url(#p3c0b543f58)" d="M 450.088832 414.976575 
Q 451.541512 440.243102 452.930017 464.393438 
" style="fill:none;stroke:#000000;stroke-linecap:round;"/>
    <path clip-path="url(#p3c0b543f58)" d="M 454.697122 460.285234 
L 452.930017 464.393438 
L 450.703717 460.514831 
L 454.697122 460.285234 
z
" style="stroke:#000000;stroke-linecap:round;"/>
   </g>
   <g id="patch_47">
    <path clip-path="url(#p3c0b543f58)" d="M 455.286857 412.853196 
Q 476.114728 436.713188 496.207362 459.730906 
" style="fill:none;stroke:#000000;stroke-linecap:round;"/>
    <path clip-path="url(#p3c0b543f58)" d="M 495.0836 455.402262 
L 496.207362 459.730906 
L 492.070189 458.032729 
L 495.0836 455.402262 
z
" style="stroke:#000000;stroke-linecap:round;"/>
   </g>
   <g id="patch_48">
    <path clip-path="url(#p3c0b543f58)" d="M 444.099138 413.024754 
Q 423.717121 437.872388 404.044171 461.855601 
" style="fill:none;stroke:#000000;stroke-linecap:round;"/>
    <path clip-path="url(#p3c0b543f58)" d="M 408.127331 460.031373 
L 404.044171 461.855601 
L 405.034684 457.494537 
L 408.127331 460.031373 
z
" style="stroke:#000000;stroke-linecap:round;"/>
   </g>
   <g id="patch_49">
    <path clip-path="url(#p3c0b543f58)" d="M 444.125059 413.043585 
Q 442.725516 414.762675 442.031842 415.61473 
" style="fill:none;stroke:#000000;stroke-linecap:round;"/>
    <path clip-path="url(#p3c0b543f58)" d="M 446.108234 413.77543 
L 442.031842 415.61473 
L 443.006238 411.250036 
L 446.108234 413.77543 
z
" style="stroke:#000000;stroke-linecap:round;"/>
   </g>
   <g id="patch_50">
    <path clip-path="url(#p3c0b543f58)" d="M 454.971764 413.114428 
Q 470.062305 432.147032 484.458227 450.303562 
" style="fill:none;stroke:#000000;stroke-linecap:round;"/>
    <path clip-path="url(#p3c0b543f58)" d="M 483.540248 445.926655 
L 484.458227 450.303562 
L 480.405914 448.411801 
L 483.540248 445.926655 
z
" style="stroke:#000000;stroke-linecap:round;"/>
   </g>
   <g id="patch_51">
    <path clip-path="url(#p3c0b543f58)" d="M 460.145871 465.232844 
Q 459.407447 466.222611 459.33758 466.316259 
" style="fill:none;stroke:#000000;stroke-linecap:round;"/>
    <path clip-path="url(#p3c0b543f58)" d="M 463.332512 464.306154 
L 459.33758 466.316259 
L 460.126456 461.914251 
L 463.332512 464.306154 
z
" style="stroke:#000000;stroke-linecap:round;"/>
   </g>
   <g id="patch_52">
    <path clip-path="url(#p3c0b543f58)" d="M 473.757688 460.279066 
Q 483.983579 462.693752 493.12136 464.851497 
" style="fill:none;stroke:#000000;stroke-linecap:round;"/>
    <path clip-path="url(#p3c0b543f58)" d="M 489.688051 461.985771 
L 493.12136 464.851497 
L 488.768794 465.878709 
L 489.688051 461.985771 
z
" style="stroke:#000000;stroke-linecap:round;"/>
   </g>
   <g id="patch_53">
    <path clip-path="url(#p3c0b543f58)" d="M 456.780351 459.697348 
Q 431.583838 463.851506 407.490467 467.823788 
" style="fill:none;stroke:#000000;stroke-linecap:round;"/>
    <path clip-path="url(#p3c0b543f58)" d="M 411.762535 469.146451 
L 407.490467 467.823788 
L 411.111838 465.199732 
L 411.762535 469.146451 
z
" style="stroke:#000000;stroke-linecap:round;"/>
   </g>
   <g id="patch_54">
    <path clip-path="url(#p3c0b543f58)" d="M 459.75672 451.655112 
Q 450.592319 440.741883 442.146905 430.684843 
" style="fill:none;stroke:#000000;stroke-linecap:round;"/>
    <path clip-path="url(#p3c0b543f58)" d="M 443.18763 435.034198 
L 442.146905 430.684843 
L 446.250824 432.461876 
L 443.18763 435.034198 
z
" style="stroke:#000000;stroke-linecap:round;"/>
   </g>
   <g id="patch_55">
    <path clip-path="url(#p3c0b543f58)" d="M 473.98863 458.177511 
Q 477.932998 458.127073 480.759423 458.090931 
" style="fill:none;stroke:#000000;stroke-linecap:round;"/>
    <path clip-path="url(#p3c0b543f58)" d="M 476.734177 456.142239 
L 480.759423 458.090931 
L 476.785322 460.141912 
L 476.734177 456.142239 
z
" style="stroke:#000000;stroke-linecap:round;"/>
   </g>
   <g id="patch_56">
    <path clip-path="url(#p3c0b543f58)" d="M 458.672174 467.208155 
Q 459.410598 466.218387 459.480464 466.12474 
" style="fill:none;stroke:#000000;stroke-linecap:round;"/>
    <path clip-path="url(#p3c0b543f58)" d="M 455.485533 468.134844 
L 459.480464 466.12474 
L 458.691589 470.526748 
L 455.485533 468.134844 
z
" style="stroke:#000000;stroke-linecap:round;"/>
   </g>
   <g id="patch_57">
    <path clip-path="url(#p3c0b543f58)" d="M 462.061417 472.92271 
Q 478.064384 470.625947 492.960657 468.488019 
" style="fill:none;stroke:#000000;stroke-linecap:round;"/>
    <path clip-path="url(#p3c0b543f58)" d="M 488.717097 467.076566 
L 492.960657 468.488019 
L 489.285358 471.035995 
L 488.717097 467.076566 
z
" style="stroke:#000000;stroke-linecap:round;"/>
   </g>
   <g id="patch_58">
    <path clip-path="url(#p3c0b543f58)" d="M 444.86079 473.417828 
Q 425.666955 471.783414 407.587122 470.243861 
" style="fill:none;stroke:#000000;stroke-linecap:round;"/>
    <path clip-path="url(#p3c0b543f58)" d="M 411.403006 472.576033 
L 407.587122 470.243861 
L 411.74239 468.590457 
L 411.403006 472.576033 
z
" style="stroke:#000000;stroke-linecap:round;"/>
   </g>
   <g id="patch_59">
    <path clip-path="url(#p3c0b543f58)" d="M 450.659688 465.970078 
Q 444.675354 448.675749 439.056623 432.437988 
" style="fill:none;stroke:#000000;stroke-linecap:round;"/>
    <path clip-path="url(#p3c0b543f58)" d="M 438.474597 436.872088 
L 439.056623 432.437988 
L 442.254688 435.564069 
L 438.474597 436.872088 
z
" style="stroke:#000000;stroke-linecap:round;"/>
   </g>
   <g id="patch_60">
    <path clip-path="url(#p3c0b543f58)" d="M 461.426849 470.684978 
Q 472.013209 466.058958 481.575078 461.880619 
" style="fill:none;stroke:#000000;stroke-linecap:round;"/>
    <path clip-path="url(#p3c0b543f58)" d="M 477.108912 461.649627 
L 481.575078 461.880619 
L 478.710585 465.314957 
L 477.108912 461.649627 
z
" style="stroke:#000000;stroke-linecap:round;"/>
   </g>
   <g id="patch_61">
    <path clip-path="url(#p3c0b543f58)" d="M 494.208323 465.108167 
Q 483.982433 462.693481 474.844651 460.535735 
" style="fill:none;stroke:#000000;stroke-linecap:round;"/>
    <path clip-path="url(#p3c0b543f58)" d="M 478.277961 463.401461 
L 474.844651 460.535735 
L 479.197218 459.508523 
L 478.277961 463.401461 
z
" style="stroke:#000000;stroke-linecap:round;"/>
   </g>
   <g id="patch_62">
    <path clip-path="url(#p3c0b543f58)" d="M 494.06879 468.328979 
Q 478.065823 470.625741 463.16955 472.763669 
" style="fill:none;stroke:#000000;stroke-linecap:round;"/>
    <path clip-path="url(#p3c0b543f58)" d="M 467.41311 474.175122 
L 463.16955 472.763669 
L 466.844848 470.215693 
L 467.41311 474.175122 
z
" style="stroke:#000000;stroke-linecap:round;"/>
   </g>
   <g id="patch_63">
    <path clip-path="url(#p3c0b543f58)" d="M 493.981851 467.290226 
Q 450.241887 468.256575 407.619684 469.19823 
" style="fill:none;stroke:#000000;stroke-linecap:round;"/>
    <path clip-path="url(#p3c0b543f58)" d="M 411.662884 471.109391 
L 407.619684 469.19823 
L 411.574533 467.110367 
L 411.662884 471.109391 
z
" style="stroke:#000000;stroke-linecap:round;"/>
   </g>
   <g id="patch_64">
    <path clip-path="url(#p3c0b543f58)" d="M 495.404303 462.342736 
Q 469.249642 445.148381 444.029214 428.5682 
" style="fill:none;stroke:#000000;stroke-linecap:round;"/>
    <path clip-path="url(#p3c0b543f58)" d="M 446.272957 432.436742 
L 444.029214 428.5682 
L 448.470294 429.094331 
L 446.272957 432.436742 
z
" style="stroke:#000000;stroke-linecap:round;"/>
   </g>
   <g id="patch_65">
    <path clip-path="url(#p3c0b543f58)" d="M 495.72629 461.883599 
Q 493.129928 459.924772 491.426082 458.639305 
" style="fill:none;stroke:#000000;stroke-linecap:round;"/>
    <path clip-path="url(#p3c0b543f58)" d="M 493.414705 462.644974 
L 491.426082 458.639305 
L 495.823791 459.451808 
L 493.414705 462.644974 
z
" style="stroke:#000000;stroke-linecap:round;"/>
   </g>
   <g id="patch_66">
    <path clip-path="url(#p3c0b543f58)" d="M 406.390575 468.005128 
Q 431.587087 463.85097 455.680458 459.878688 
" style="fill:none;stroke:#000000;stroke-linecap:round;"/>
    <path clip-path="url(#p3c0b543f58)" d="M 451.408391 458.556025 
L 455.680458 459.878688 
L 452.059088 462.502744 
L 451.408391 458.556025 
z
" style="stroke:#000000;stroke-linecap:round;"/>
   </g>
   <g id="patch_67">
    <path clip-path="url(#p3c0b543f58)" d="M 406.474331 470.149104 
Q 425.668166 471.783518 443.747999 473.323071 
" style="fill:none;stroke:#000000;stroke-linecap:round;"/>
    <path clip-path="url(#p3c0b543f58)" d="M 439.932114 470.990898 
L 443.747999 473.323071 
L 439.59273 474.976475 
L 439.932114 470.990898 
z
" style="stroke:#000000;stroke-linecap:round;"/>
   </g>
   <g id="patch_68">
    <path clip-path="url(#p3c0b543f58)" d="M 406.501236 469.22294 
Q 450.2412 468.25659 492.863403 467.314936 
" style="fill:none;stroke:#000000;stroke-linecap:round;"/>
    <path clip-path="url(#p3c0b543f58)" d="M 488.820204 465.403774 
L 492.863403 467.314936 
L 488.908554 469.402799 
L 488.820204 465.403774 
z
" style="stroke:#000000;stroke-linecap:round;"/>
   </g>
   <g id="patch_69">
    <path clip-path="url(#p3c0b543f58)" d="M 403.345313 462.725911 
Q 416.850667 446.306598 429.645794 430.750752 
" style="fill:none;stroke:#000000;stroke-linecap:round;"/>
    <path clip-path="url(#p3c0b543f58)" d="M 425.560189 432.569497 
L 429.645794 430.750752 
L 428.649427 435.110483 
L 425.560189 432.569497 
z
" style="stroke:#000000;stroke-linecap:round;"/>
   </g>
   <g id="patch_70">
    <path clip-path="url(#p3c0b543f58)" d="M 406.440301 468.35246 
Q 444.189626 463.689971 480.829348 459.164531 
" style="fill:none;stroke:#000000;stroke-linecap:round;"/>
    <path clip-path="url(#p3c0b543f58)" d="M 476.614353 457.669936 
L 480.829348 459.164531 
L 477.104674 461.63977 
L 476.614353 457.669936 
z
" style="stroke:#000000;stroke-linecap:round;"/>
   </g>
   <g id="patch_71">
    <path clip-path="url(#p3c0b543f58)" d="M 441.42918 429.830155 
Q 450.59358 440.743384 459.038994 450.800424 
" style="fill:none;stroke:#000000;stroke-linecap:round;"/>
    <path clip-path="url(#p3c0b543f58)" d="M 457.998269 446.451069 
L 459.038994 450.800424 
L 454.935075 449.023391 
L 457.998269 446.451069 
z
" style="stroke:#000000;stroke-linecap:round;"/>
   </g>
   <g id="patch_72">
    <path clip-path="url(#p3c0b543f58)" d="M 438.690406 431.379646 
Q 444.67474 448.673974 450.293472 464.911735 
" style="fill:none;stroke:#000000;stroke-linecap:round;"/>
    <path clip-path="url(#p3c0b543f58)" d="M 450.875497 460.477635 
L 450.293472 464.911735 
L 447.095407 461.785655 
L 450.875497 460.477635 
z
" style="stroke:#000000;stroke-linecap:round;"/>
   </g>
   <g id="patch_73">
    <path clip-path="url(#p3c0b543f58)" d="M 443.093758 427.953221 
Q 469.248419 445.147576 494.468847 461.727757 
" style="fill:none;stroke:#000000;stroke-linecap:round;"/>
    <path clip-path="url(#p3c0b543f58)" d="M 492.225104 457.859215 
L 494.468847 461.727757 
L 490.027767 461.201626 
L 492.225104 457.859215 
z
" style="stroke:#000000;stroke-linecap:round;"/>
   </g>
   <g id="patch_74">
    <path clip-path="url(#p3c0b543f58)" d="M 430.357662 429.88529 
Q 416.852308 446.304603 404.057181 461.860448 
" style="fill:none;stroke:#000000;stroke-linecap:round;"/>
    <path clip-path="url(#p3c0b543f58)" d="M 408.142786 460.041704 
L 404.057181 461.860448 
L 405.053548 457.500718 
L 408.142786 460.041704 
z
" style="stroke:#000000;stroke-linecap:round;"/>
   </g>
   <g id="patch_75">
    <path clip-path="url(#p3c0b543f58)" d="M 443.163825 427.842335 
Q 463.19564 440.58107 482.284024 452.719854 
" style="fill:none;stroke:#000000;stroke-linecap:round;"/>
    <path clip-path="url(#p3c0b543f58)" d="M 479.981932 448.885748 
L 482.284024 452.719854 
L 477.835484 452.261064 
L 479.981932 448.885748 
z
" style="stroke:#000000;stroke-linecap:round;"/>
   </g>
   <g id="patch_76">
    <path clip-path="url(#p3c0b543f58)" d="M 481.87186 458.076706 
Q 477.927492 458.127144 475.101067 458.163286 
" style="fill:none;stroke:#000000;stroke-linecap:round;"/>
    <path clip-path="url(#p3c0b543f58)" d="M 479.126313 460.111977 
L 475.101067 458.163286 
L 479.075168 456.112304 
L 479.126313 460.111977 
z
" style="stroke:#000000;stroke-linecap:round;"/>
   </g>
   <g id="patch_77">
    <path clip-path="url(#p3c0b543f58)" d="M 482.597836 461.433695 
Q 472.011476 466.059715 462.449607 470.238054 
" style="fill:none;stroke:#000000;stroke-linecap:round;"/>
    <path clip-path="url(#p3c0b543f58)" d="M 466.915774 470.469045 
L 462.449607 470.238054 
L 465.3141 466.803716 
L 466.915774 470.469045 
z
" style="stroke:#000000;stroke-linecap:round;"/>
   </g>
   <g id="patch_78">
    <path clip-path="url(#p3c0b543f58)" d="M 497.446362 463.181308 
Q 500.042724 465.140134 501.74657 466.425601 
" style="fill:none;stroke:#000000;stroke-linecap:round;"/>
    <path clip-path="url(#p3c0b543f58)" d="M 499.757946 462.419933 
L 501.74657 466.425601 
L 497.348861 465.613099 
L 499.757946 462.419933 
z
" style="stroke:#000000;stroke-linecap:round;"/>
   </g>
   <g id="patch_79">
    <path clip-path="url(#p3c0b543f58)" d="M 481.937264 459.02769 
Q 444.18794 463.690179 407.548218 468.215619 
" style="fill:none;stroke:#000000;stroke-linecap:round;"/>
    <path clip-path="url(#p3c0b543f58)" d="M 411.763213 469.710214 
L 407.548218 468.215619 
L 411.272891 465.74038 
L 411.763213 469.710214 
z
" style="stroke:#000000;stroke-linecap:round;"/>
   </g>
   <g id="patch_80">
    <path clip-path="url(#p3c0b543f58)" d="M 483.228714 453.320607 
Q 463.1969 440.581872 444.108515 428.443087 
" style="fill:none;stroke:#000000;stroke-linecap:round;"/>
    <path clip-path="url(#p3c0b543f58)" d="M 446.410607 432.277194 
L 444.108515 428.443087 
L 448.557056 428.901878 
L 446.410607 432.277194 
z
" style="stroke:#000000;stroke-linecap:round;"/>
   </g>
   <g id="PathCollection_1">
    <defs>
     <path d="M 0 8.660254 
C 2.296726 8.660254 4.499694 7.747755 6.123724 6.123724 
C 7.747755 4.499694 8.660254 2.296726 8.660254 -0 
C 8.660254 -2.296726 7.747755 -4.499694 6.123724 -6.123724 
C 4.499694 -7.747755 2.296726 -8.660254 0 -8.660254 
C -2.296726 -8.660254 -4.499694 -7.747755 -6.123724 -6.123724 
C -7.747755 -4.499694 -8.660254 -2.296726 -8.660254 0 
C -8.660254 2.296726 -7.747755 4.499694 -6.123724 6.123724 
C -4.499694 7.747755 -2.296726 8.660254 0 8.660254 
z
" id="C0_0_8eef0ffef8"/>
    </defs>
    <g clip-path="url(#p3c0b543f58)">
     <use style="fill:#ff0000;stroke:#ff0000;" x="408.245303" xlink:href="#C0_0_8eef0ffef8" y="114.023773"/>
    </g>
    <g clip-path="url(#p3c0b543f58)">
     <use style="fill:#ff0000;stroke:#ff0000;" x="413.388456" xlink:href="#C0_0_8eef0ffef8" y="367.691739"/>
    </g>
    <g clip-path="url(#p3c0b543f58)">
     <use style="fill:#ff0000;stroke:#ff0000;" x="275.019642" xlink:href="#C0_0_8eef0ffef8" y="439.210904"/>
    </g>
    <g clip-path="url(#p3c0b543f58)">
     <use style="fill:#ff0000;stroke:#ff0000;" x="243.314732" xlink:href="#C0_0_8eef0ffef8" y="219.119692"/>
    </g>
    <g clip-path="url(#p3c0b543f58)">
     <use style="fill:#ff0000;stroke:#ff0000;" x="330.967237" xlink:href="#C0_0_8eef0ffef8" y="265.897693"/>
    </g>
    <g clip-path="url(#p3c0b543f58)">
     <use style="fill:#ff0000;stroke:#ff0000;" x="388.903121" xlink:href="#C0_0_8eef0ffef8" y="245.015777"/>
    </g>
    <g clip-path="url(#p3c0b543f58)">
     <use style="fill:#ff0000;stroke:#ff0000;" x="166.105785" xlink:href="#C0_0_8eef0ffef8" y="267.083955"/>
    </g>
    <g clip-path="url(#p3c0b543f58)">
     <use style="fill:#ff0000;stroke:#ff0000;" x="488.406485" xlink:href="#C0_0_8eef0ffef8" y="204.874989"/>
    </g>
    <g clip-path="url(#p3c0b543f58)">
     <use style="fill:#ff0000;stroke:#ff0000;" x="590.974535" xlink:href="#C0_0_8eef0ffef8" y="188.753316"/>
    </g>
    <g clip-path="url(#p3c0b543f58)">
     <use style="fill:#ff0000;stroke:#ff0000;" x="416.392591" xlink:href="#C0_0_8eef0ffef8" y="157.920592"/>
    </g>
    <g clip-path="url(#p3c0b543f58)">
     <use style="fill:#ff0000;stroke:#ff0000;" x="452.27239" xlink:href="#C0_0_8eef0ffef8" y="341.818658"/>
    </g>
    <g clip-path="url(#p3c0b543f58)">
     <use style="fill:#008000;stroke:#008000;" x="187.152609" xlink:href="#C0_0_8eef0ffef8" y="222.063098"/>
    </g>
    <g clip-path="url(#p3c0b543f58)">
     <use style="fill:#ff0000;stroke:#ff0000;" x="411.875574" xlink:href="#C0_0_8eef0ffef8" y="247.65285"/>
    </g>
    <g clip-path="url(#p3c0b543f58)">
     <use style="fill:#ff0000;stroke:#ff0000;" x="522.157784" xlink:href="#C0_0_8eef0ffef8" y="245.857208"/>
    </g>
    <g clip-path="url(#p3c0b543f58)">
     <use style="fill:#ff0000;stroke:#ff0000;" x="395.53364" xlink:href="#C0_0_8eef0ffef8" y="354.379185"/>
    </g>
    <g clip-path="url(#p3c0b543f58)">
     <use style="fill:#ff0000;stroke:#ff0000;" x="520.714823" xlink:href="#C0_0_8eef0ffef8" y="327.71718"/>
    </g>
    <g clip-path="url(#p3c0b543f58)">
     <use style="fill:#ff0000;stroke:#ff0000;" x="450.750378" xlink:href="#C0_0_8eef0ffef8" y="324.901709"/>
    </g>
    <g clip-path="url(#p3c0b543f58)">
     <use style="fill:#008000;stroke:#008000;" x="640.074022" xlink:href="#C0_0_8eef0ffef8" y="423.645308"/>
    </g>
    <g clip-path="url(#p3c0b543f58)">
     <use style="fill:#ff0000;stroke:#ff0000;" x="470.299295" xlink:href="#C0_0_8eef0ffef8" y="107.607273"/>
    </g>
    <g clip-path="url(#p3c0b543f58)">
     <use style="fill:#008000;stroke:#008000;" x="230.362605" xlink:href="#C0_0_8eef0ffef8" y="412.950732"/>
    </g>
    <g clip-path="url(#p3c0b543f58)">
     <use style="fill:#ff0000;stroke:#ff0000;" x="305.735592" xlink:href="#C0_0_8eef0ffef8" y="285.365211"/>
    </g>
    <g clip-path="url(#p3c0b543f58)">
     <use style="fill:#ff0000;stroke:#ff0000;" x="407.171062" xlink:href="#C0_0_8eef0ffef8" y="467.521814"/>
    </g>
    <g clip-path="url(#p3c0b543f58)">
     <use style="fill:#ff0000;stroke:#ff0000;" x="434.271102" xlink:href="#C0_0_8eef0ffef8" y="325.262688"/>
    </g>
    <g clip-path="url(#p3c0b543f58)">
     <use style="fill:#ff0000;stroke:#ff0000;" x="275.008813" xlink:href="#C0_0_8eef0ffef8" y="149.031105"/>
    </g>
    <g clip-path="url(#p3c0b543f58)">
     <use style="fill:#ff0000;stroke:#ff0000;" x="552.801654" xlink:href="#C0_0_8eef0ffef8" y="145.591171"/>
    </g>
    <g clip-path="url(#p3c0b543f58)">
     <use style="fill:#ff0000;stroke:#ff0000;" x="528.076665" xlink:href="#C0_0_8eef0ffef8" y="163.618037"/>
    </g>
    <g clip-path="url(#p3c0b543f58)">
     <use style="fill:#ff0000;stroke:#ff0000;" x="514.820844" xlink:href="#C0_0_8eef0ffef8" y="256.117182"/>
    </g>
    <g clip-path="url(#p3c0b543f58)">
     <use style="fill:#ff0000;stroke:#ff0000;" x="212.040674" xlink:href="#C0_0_8eef0ffef8" y="377.179853"/>
    </g>
    <g clip-path="url(#p3c0b543f58)">
     <use style="fill:#ff0000;stroke:#ff0000;" x="536.938062" xlink:href="#C0_0_8eef0ffef8" y="110.527309"/>
    </g>
    <g clip-path="url(#p3c0b543f58)">
     <use style="fill:#ff0000;stroke:#ff0000;" x="453.309648" xlink:href="#C0_0_8eef0ffef8" y="383.248909"/>
    </g>
    <g clip-path="url(#p3c0b543f58)">
     <use style="fill:#ff0000;stroke:#ff0000;" x="195.535194" xlink:href="#C0_0_8eef0ffef8" y="374.44448"/>
    </g>
    <g clip-path="url(#p3c0b543f58)">
     <use style="fill:#ff0000;stroke:#ff0000;" x="213.607172" xlink:href="#C0_0_8eef0ffef8" y="180.135834"/>
    </g>
    <g clip-path="url(#p3c0b543f58)">
     <use style="fill:#ff0000;stroke:#ff0000;" x="711.066267" xlink:href="#C0_0_8eef0ffef8" y="193.101376"/>
    </g>
    <g clip-path="url(#p3c0b543f58)">
     <use style="fill:#ff0000;stroke:#ff0000;" x="683.946713" xlink:href="#C0_0_8eef0ffef8" y="390.276003"/>
    </g>
    <g clip-path="url(#p3c0b543f58)">
     <use style="fill:#ff0000;stroke:#ff0000;" x="378.462685" xlink:href="#C0_0_8eef0ffef8" y="264.414843"/>
    </g>
    <g clip-path="url(#p3c0b543f58)">
     <use style="fill:#ff0000;stroke:#ff0000;" x="437.004128" xlink:href="#C0_0_8eef0ffef8" y="453.979501"/>
    </g>
    <g clip-path="url(#p3c0b543f58)">
     <use style="fill:#ff0000;stroke:#ff0000;" x="449.591639" xlink:href="#C0_0_8eef0ffef8" y="406.328867"/>
    </g>
    <g clip-path="url(#p3c0b543f58)">
     <use style="fill:#ff0000;stroke:#ff0000;" x="465.326925" xlink:href="#C0_0_8eef0ffef8" y="458.288271"/>
    </g>
    <g clip-path="url(#p3c0b543f58)">
     <use style="fill:#ff0000;stroke:#ff0000;" x="453.49112" xlink:href="#C0_0_8eef0ffef8" y="474.152727"/>
    </g>
    <g clip-path="url(#p3c0b543f58)">
     <use style="fill:#ff0000;stroke:#ff0000;" x="502.639087" xlink:href="#C0_0_8eef0ffef8" y="467.098961"/>
    </g>
    <g clip-path="url(#p3c0b543f58)">
     <use style="fill:#ff0000;stroke:#ff0000;" x="397.844001" xlink:href="#C0_0_8eef0ffef8" y="469.414205"/>
    </g>
    <g clip-path="url(#p3c0b543f58)">
     <use style="fill:#ff0000;stroke:#ff0000;" x="435.858974" xlink:href="#C0_0_8eef0ffef8" y="423.196996"/>
    </g>
    <g clip-path="url(#p3c0b543f58)">
     <use style="fill:#ff0000;stroke:#ff0000;" x="490.533565" xlink:href="#C0_0_8eef0ffef8" y="457.965945"/>
    </g>
    <g clip-path="url(#p3c0b543f58)">
     <use style="fill:#ff0000;stroke:#ff0000;" x="169.313516" xlink:href="#C0_0_8eef0ffef8" y="306.784497"/>
    </g>
    <g clip-path="url(#p3c0b543f58)">
     <use style="fill:#ff0000;stroke:#ff0000;" x="719.494215" xlink:href="#C0_0_8eef0ffef8" y="361.974612"/>
    </g>
   </g>
   <g id="text_1">
    <g clip-path="url(#p3c0b543f58)">
     <!-- INADL -->
     <g transform="translate(389.919053 117.335023)scale(0.12 -0.12)">
      <defs>
       <path d="M 9.8125 72.90625 
L 19.671875 72.90625 
L 19.671875 0 
L 9.8125 0 
z
" id="DejaVuSans-73"/>
       <path d="M 9.8125 72.90625 
L 23.09375 72.90625 
L 55.421875 11.921875 
L 55.421875 72.90625 
L 64.984375 72.90625 
L 64.984375 0 
L 51.703125 0 
L 19.390625 60.984375 
L 19.390625 0 
L 9.8125 0 
z
" id="DejaVuSans-78"/>
       <path d="M 34.1875 63.1875 
L 20.796875 26.90625 
L 47.609375 26.90625 
z
M 28.609375 72.90625 
L 39.796875 72.90625 
L 67.578125 0 
L 57.328125 0 
L 50.6875 18.703125 
L 17.828125 18.703125 
L 11.1875 0 
L 0.78125 0 
z
" id="DejaVuSans-65"/>
       <path d="M 19.671875 64.796875 
L 19.671875 8.109375 
L 31.59375 8.109375 
Q 46.6875 8.109375 53.6875 14.9375 
Q 60.6875 21.78125 60.6875 36.53125 
Q 60.6875 51.171875 53.6875 57.984375 
Q 46.6875 64.796875 31.59375 64.796875 
z
M 9.8125 72.90625 
L 30.078125 72.90625 
Q 51.265625 72.90625 61.171875 64.09375 
Q 71.09375 55.28125 71.09375 36.53125 
Q 71.09375 17.671875 61.125 8.828125 
Q 51.171875 0 30.078125 0 
L 9.8125 0 
z
" id="DejaVuSans-68"/>
       <path d="M 9.8125 72.90625 
L 19.671875 72.90625 
L 19.671875 8.296875 
L 55.171875 8.296875 
L 55.171875 0 
L 9.8125 0 
z
" id="DejaVuSans-76"/>
      </defs>
      <use xlink:href="#DejaVuSans-73"/>
      <use x="29.492188" xlink:href="#DejaVuSans-78"/>
      <use x="104.296875" xlink:href="#DejaVuSans-65"/>
      <use x="172.705078" xlink:href="#DejaVuSans-68"/>
      <use x="249.707031" xlink:href="#DejaVuSans-76"/>
     </g>
    </g>
   </g>
   <g id="text_2">
    <g clip-path="url(#p3c0b543f58)">
     <!-- CDC42 -->
     <g transform="translate(392.754081 371.002989)scale(0.12 -0.12)">
      <defs>
       <path d="M 64.40625 67.28125 
L 64.40625 56.890625 
Q 59.421875 61.53125 53.78125 63.8125 
Q 48.140625 66.109375 41.796875 66.109375 
Q 29.296875 66.109375 22.65625 58.46875 
Q 16.015625 50.828125 16.015625 36.375 
Q 16.015625 21.96875 22.65625 14.328125 
Q 29.296875 6.6875 41.796875 6.6875 
Q 48.140625 6.6875 53.78125 8.984375 
Q 59.421875 11.28125 64.40625 15.921875 
L 64.40625 5.609375 
Q 59.234375 2.09375 53.4375 0.328125 
Q 47.65625 -1.421875 41.21875 -1.421875 
Q 24.65625 -1.421875 15.125 8.703125 
Q 5.609375 18.84375 5.609375 36.375 
Q 5.609375 53.953125 15.125 64.078125 
Q 24.65625 74.21875 41.21875 74.21875 
Q 47.75 74.21875 53.53125 72.484375 
Q 59.328125 70.75 64.40625 67.28125 
z
" id="DejaVuSans-67"/>
       <path d="M 37.796875 64.3125 
L 12.890625 25.390625 
L 37.796875 25.390625 
z
M 35.203125 72.90625 
L 47.609375 72.90625 
L 47.609375 25.390625 
L 58.015625 25.390625 
L 58.015625 17.1875 
L 47.609375 17.1875 
L 47.609375 0 
L 37.796875 0 
L 37.796875 17.1875 
L 4.890625 17.1875 
L 4.890625 26.703125 
z
" id="DejaVuSans-52"/>
       <path d="M 19.1875 8.296875 
L 53.609375 8.296875 
L 53.609375 0 
L 7.328125 0 
L 7.328125 8.296875 
Q 12.9375 14.109375 22.625 23.890625 
Q 32.328125 33.6875 34.8125 36.53125 
Q 39.546875 41.84375 41.421875 45.53125 
Q 43.3125 49.21875 43.3125 52.78125 
Q 43.3125 58.59375 39.234375 62.25 
Q 35.15625 65.921875 28.609375 65.921875 
Q 23.96875 65.921875 18.8125 64.3125 
Q 13.671875 62.703125 7.8125 59.421875 
L 7.8125 69.390625 
Q 13.765625 71.78125 18.9375 73 
Q 24.125 74.21875 28.421875 74.21875 
Q 39.75 74.21875 46.484375 68.546875 
Q 53.21875 62.890625 53.21875 53.421875 
Q 53.21875 48.921875 51.53125 44.890625 
Q 49.859375 40.875 45.40625 35.40625 
Q 44.1875 33.984375 37.640625 27.21875 
Q 31.109375 20.453125 19.1875 8.296875 
z
" id="DejaVuSans-50"/>
      </defs>
      <use xlink:href="#DejaVuSans-67"/>
      <use x="69.824219" xlink:href="#DejaVuSans-68"/>
      <use x="146.826172" xlink:href="#DejaVuSans-67"/>
      <use x="216.650391" xlink:href="#DejaVuSans-52"/>
      <use x="280.273438" xlink:href="#DejaVuSans-50"/>
     </g>
    </g>
   </g>
   <g id="text_3">
    <g clip-path="url(#p3c0b543f58)">
     <!-- STK11 -->
     <g transform="translate(255.976204 442.522154)scale(0.12 -0.12)">
      <defs>
       <path d="M 53.515625 70.515625 
L 53.515625 60.890625 
Q 47.90625 63.578125 42.921875 64.890625 
Q 37.9375 66.21875 33.296875 66.21875 
Q 25.25 66.21875 20.875 63.09375 
Q 16.5 59.96875 16.5 54.203125 
Q 16.5 49.359375 19.40625 46.890625 
Q 22.3125 44.4375 30.421875 42.921875 
L 36.375 41.703125 
Q 47.40625 39.59375 52.65625 34.296875 
Q 57.90625 29 57.90625 20.125 
Q 57.90625 9.515625 50.796875 4.046875 
Q 43.703125 -1.421875 29.984375 -1.421875 
Q 24.8125 -1.421875 18.96875 -0.25 
Q 13.140625 0.921875 6.890625 3.21875 
L 6.890625 13.375 
Q 12.890625 10.015625 18.65625 8.296875 
Q 24.421875 6.59375 29.984375 6.59375 
Q 38.421875 6.59375 43.015625 9.90625 
Q 47.609375 13.234375 47.609375 19.390625 
Q 47.609375 24.75 44.3125 27.78125 
Q 41.015625 30.8125 33.5 32.328125 
L 27.484375 33.5 
Q 16.453125 35.6875 11.515625 40.375 
Q 6.59375 45.0625 6.59375 53.421875 
Q 6.59375 63.09375 13.40625 68.65625 
Q 20.21875 74.21875 32.171875 74.21875 
Q 37.3125 74.21875 42.625 73.28125 
Q 47.953125 72.359375 53.515625 70.515625 
z
" id="DejaVuSans-83"/>
       <path d="M -0.296875 72.90625 
L 61.375 72.90625 
L 61.375 64.59375 
L 35.5 64.59375 
L 35.5 0 
L 25.59375 0 
L 25.59375 64.59375 
L -0.296875 64.59375 
z
" id="DejaVuSans-84"/>
       <path d="M 9.8125 72.90625 
L 19.671875 72.90625 
L 19.671875 42.09375 
L 52.390625 72.90625 
L 65.09375 72.90625 
L 28.90625 38.921875 
L 67.671875 0 
L 54.6875 0 
L 19.671875 35.109375 
L 19.671875 0 
L 9.8125 0 
z
" id="DejaVuSans-75"/>
       <path d="M 12.40625 8.296875 
L 28.515625 8.296875 
L 28.515625 63.921875 
L 10.984375 60.40625 
L 10.984375 69.390625 
L 28.421875 72.90625 
L 38.28125 72.90625 
L 38.28125 8.296875 
L 54.390625 8.296875 
L 54.390625 0 
L 12.40625 0 
z
" id="DejaVuSans-49"/>
      </defs>
      <use xlink:href="#DejaVuSans-83"/>
      <use x="63.476562" xlink:href="#DejaVuSans-84"/>
      <use x="124.560547" xlink:href="#DejaVuSans-75"/>
      <use x="190.136719" xlink:href="#DejaVuSans-49"/>
      <use x="253.759766" xlink:href="#DejaVuSans-49"/>
     </g>
    </g>
   </g>
   <g id="text_4">
    <g clip-path="url(#p3c0b543f58)">
     <!-- TIAM1 -->
     <g transform="translate(224.781294 222.430942)scale(0.12 -0.12)">
      <defs>
       <path d="M 9.8125 72.90625 
L 24.515625 72.90625 
L 43.109375 23.296875 
L 61.8125 72.90625 
L 76.515625 72.90625 
L 76.515625 0 
L 66.890625 0 
L 66.890625 64.015625 
L 48.09375 14.015625 
L 38.1875 14.015625 
L 19.390625 64.015625 
L 19.390625 0 
L 9.8125 0 
z
" id="DejaVuSans-77"/>
      </defs>
      <use xlink:href="#DejaVuSans-84"/>
      <use x="61.083984" xlink:href="#DejaVuSans-73"/>
      <use x="90.576172" xlink:href="#DejaVuSans-65"/>
      <use x="158.984375" xlink:href="#DejaVuSans-77"/>
      <use x="245.263672" xlink:href="#DejaVuSans-49"/>
     </g>
    </g>
   </g>
   <g id="text_5">
    <g clip-path="url(#p3c0b543f58)">
     <!-- ARHGAP17 -->
     <g transform="translate(298.175362 269.208943)scale(0.12 -0.12)">
      <defs>
       <path d="M 44.390625 34.1875 
Q 47.5625 33.109375 50.5625 29.59375 
Q 53.5625 26.078125 56.59375 19.921875 
L 66.609375 0 
L 56 0 
L 46.6875 18.703125 
Q 43.0625 26.03125 39.671875 28.421875 
Q 36.28125 30.8125 30.421875 30.8125 
L 19.671875 30.8125 
L 19.671875 0 
L 9.8125 0 
L 9.8125 72.90625 
L 32.078125 72.90625 
Q 44.578125 72.90625 50.734375 67.671875 
Q 56.890625 62.453125 56.890625 51.90625 
Q 56.890625 45.015625 53.6875 40.46875 
Q 50.484375 35.9375 44.390625 34.1875 
z
M 19.671875 64.796875 
L 19.671875 38.921875 
L 32.078125 38.921875 
Q 39.203125 38.921875 42.84375 42.21875 
Q 46.484375 45.515625 46.484375 51.90625 
Q 46.484375 58.296875 42.84375 61.546875 
Q 39.203125 64.796875 32.078125 64.796875 
z
" id="DejaVuSans-82"/>
       <path d="M 9.8125 72.90625 
L 19.671875 72.90625 
L 19.671875 43.015625 
L 55.515625 43.015625 
L 55.515625 72.90625 
L 65.375 72.90625 
L 65.375 0 
L 55.515625 0 
L 55.515625 34.71875 
L 19.671875 34.71875 
L 19.671875 0 
L 9.8125 0 
z
" id="DejaVuSans-72"/>
       <path d="M 59.515625 10.40625 
L 59.515625 29.984375 
L 43.40625 29.984375 
L 43.40625 38.09375 
L 69.28125 38.09375 
L 69.28125 6.78125 
Q 63.578125 2.734375 56.6875 0.65625 
Q 49.8125 -1.421875 42 -1.421875 
Q 24.90625 -1.421875 15.25 8.5625 
Q 5.609375 18.5625 5.609375 36.375 
Q 5.609375 54.25 15.25 64.234375 
Q 24.90625 74.21875 42 74.21875 
Q 49.125 74.21875 55.546875 72.453125 
Q 61.96875 70.703125 67.390625 67.28125 
L 67.390625 56.78125 
Q 61.921875 61.421875 55.765625 63.765625 
Q 49.609375 66.109375 42.828125 66.109375 
Q 29.4375 66.109375 22.71875 58.640625 
Q 16.015625 51.171875 16.015625 36.375 
Q 16.015625 21.625 22.71875 14.15625 
Q 29.4375 6.6875 42.828125 6.6875 
Q 48.046875 6.6875 52.140625 7.59375 
Q 56.25 8.5 59.515625 10.40625 
z
" id="DejaVuSans-71"/>
       <path d="M 19.671875 64.796875 
L 19.671875 37.40625 
L 32.078125 37.40625 
Q 38.96875 37.40625 42.71875 40.96875 
Q 46.484375 44.53125 46.484375 51.125 
Q 46.484375 57.671875 42.71875 61.234375 
Q 38.96875 64.796875 32.078125 64.796875 
z
M 9.8125 72.90625 
L 32.078125 72.90625 
Q 44.34375 72.90625 50.609375 67.359375 
Q 56.890625 61.8125 56.890625 51.125 
Q 56.890625 40.328125 50.609375 34.8125 
Q 44.34375 29.296875 32.078125 29.296875 
L 19.671875 29.296875 
L 19.671875 0 
L 9.8125 0 
z
" id="DejaVuSans-80"/>
       <path d="M 8.203125 72.90625 
L 55.078125 72.90625 
L 55.078125 68.703125 
L 28.609375 0 
L 18.3125 0 
L 43.21875 64.59375 
L 8.203125 64.59375 
z
" id="DejaVuSans-55"/>
      </defs>
      <use xlink:href="#DejaVuSans-65"/>
      <use x="68.408203" xlink:href="#DejaVuSans-82"/>
      <use x="137.890625" xlink:href="#DejaVuSans-72"/>
      <use x="213.085938" xlink:href="#DejaVuSans-71"/>
      <use x="290.576172" xlink:href="#DejaVuSans-65"/>
      <use x="358.984375" xlink:href="#DejaVuSans-80"/>
      <use x="419.287109" xlink:href="#DejaVuSans-49"/>
      <use x="482.910156" xlink:href="#DejaVuSans-55"/>
     </g>
    </g>
   </g>
   <g id="text_6">
    <g clip-path="url(#p3c0b543f58)">
     <!-- RHOA -->
     <g transform="translate(371.499371 248.327027)scale(0.12 -0.12)">
      <defs>
       <path d="M 39.40625 66.21875 
Q 28.65625 66.21875 22.328125 58.203125 
Q 16.015625 50.203125 16.015625 36.375 
Q 16.015625 22.609375 22.328125 14.59375 
Q 28.65625 6.59375 39.40625 6.59375 
Q 50.140625 6.59375 56.421875 14.59375 
Q 62.703125 22.609375 62.703125 36.375 
Q 62.703125 50.203125 56.421875 58.203125 
Q 50.140625 66.21875 39.40625 66.21875 
z
M 39.40625 74.21875 
Q 54.734375 74.21875 63.90625 63.9375 
Q 73.09375 53.65625 73.09375 36.375 
Q 73.09375 19.140625 63.90625 8.859375 
Q 54.734375 -1.421875 39.40625 -1.421875 
Q 24.03125 -1.421875 14.8125 8.828125 
Q 5.609375 19.09375 5.609375 36.375 
Q 5.609375 53.65625 14.8125 63.9375 
Q 24.03125 74.21875 39.40625 74.21875 
z
" id="DejaVuSans-79"/>
      </defs>
      <use xlink:href="#DejaVuSans-82"/>
      <use x="69.482422" xlink:href="#DejaVuSans-72"/>
      <use x="144.677734" xlink:href="#DejaVuSans-79"/>
      <use x="221.638672" xlink:href="#DejaVuSans-65"/>
     </g>
    </g>
   </g>
   <g id="text_7">
    <g clip-path="url(#p3c0b543f58)">
     <!-- RAC1 -->
     <g transform="translate(150.17016 270.395205)scale(0.12 -0.12)">
      <use xlink:href="#DejaVuSans-82"/>
      <use x="65.482422" xlink:href="#DejaVuSans-65"/>
      <use x="132.140625" xlink:href="#DejaVuSans-67"/>
      <use x="201.964844" xlink:href="#DejaVuSans-49"/>
     </g>
    </g>
   </g>
   <g id="text_8">
    <g clip-path="url(#p3c0b543f58)">
     <!-- F11R -->
     <g transform="translate(473.151485 208.186239)scale(0.12 -0.12)">
      <defs>
       <path d="M 9.8125 72.90625 
L 51.703125 72.90625 
L 51.703125 64.59375 
L 19.671875 64.59375 
L 19.671875 43.109375 
L 48.578125 43.109375 
L 48.578125 34.8125 
L 19.671875 34.8125 
L 19.671875 0 
L 9.8125 0 
z
" id="DejaVuSans-70"/>
      </defs>
      <use xlink:href="#DejaVuSans-70"/>
      <use x="57.519531" xlink:href="#DejaVuSans-49"/>
      <use x="121.142578" xlink:href="#DejaVuSans-49"/>
      <use x="184.765625" xlink:href="#DejaVuSans-82"/>
     </g>
    </g>
   </g>
   <g id="text_9">
    <g clip-path="url(#p3c0b543f58)">
     <!-- RAPGEF6 -->
     <g transform="translate(563.614535 192.064566)scale(0.12 -0.12)">
      <defs>
       <path d="M 9.8125 72.90625 
L 55.90625 72.90625 
L 55.90625 64.59375 
L 19.671875 64.59375 
L 19.671875 43.015625 
L 54.390625 43.015625 
L 54.390625 34.71875 
L 19.671875 34.71875 
L 19.671875 8.296875 
L 56.78125 8.296875 
L 56.78125 0 
L 9.8125 0 
z
" id="DejaVuSans-69"/>
       <path d="M 33.015625 40.375 
Q 26.375 40.375 22.484375 35.828125 
Q 18.609375 31.296875 18.609375 23.390625 
Q 18.609375 15.53125 22.484375 10.953125 
Q 26.375 6.390625 33.015625 6.390625 
Q 39.65625 6.390625 43.53125 10.953125 
Q 47.40625 15.53125 47.40625 23.390625 
Q 47.40625 31.296875 43.53125 35.828125 
Q 39.65625 40.375 33.015625 40.375 
z
M 52.59375 71.296875 
L 52.59375 62.3125 
Q 48.875 64.0625 45.09375 64.984375 
Q 41.3125 65.921875 37.59375 65.921875 
Q 27.828125 65.921875 22.671875 59.328125 
Q 17.53125 52.734375 16.796875 39.40625 
Q 19.671875 43.65625 24.015625 45.921875 
Q 28.375 48.1875 33.59375 48.1875 
Q 44.578125 48.1875 50.953125 41.515625 
Q 57.328125 34.859375 57.328125 23.390625 
Q 57.328125 12.15625 50.6875 5.359375 
Q 44.046875 -1.421875 33.015625 -1.421875 
Q 20.359375 -1.421875 13.671875 8.265625 
Q 6.984375 17.96875 6.984375 36.375 
Q 6.984375 53.65625 15.1875 63.9375 
Q 23.390625 74.21875 37.203125 74.21875 
Q 40.921875 74.21875 44.703125 73.484375 
Q 48.484375 72.75 52.59375 71.296875 
z
" id="DejaVuSans-54"/>
      </defs>
      <use xlink:href="#DejaVuSans-82"/>
      <use x="65.482422" xlink:href="#DejaVuSans-65"/>
      <use x="133.890625" xlink:href="#DejaVuSans-80"/>
      <use x="194.193359" xlink:href="#DejaVuSans-71"/>
      <use x="271.683594" xlink:href="#DejaVuSans-69"/>
      <use x="334.867188" xlink:href="#DejaVuSans-70"/>
      <use x="392.386719" xlink:href="#DejaVuSans-54"/>
     </g>
    </g>
   </g>
   <g id="text_10">
    <g clip-path="url(#p3c0b543f58)">
     <!-- RAP1A -->
     <g transform="translate(396.819466 161.231842)scale(0.12 -0.12)">
      <use xlink:href="#DejaVuSans-82"/>
      <use x="65.482422" xlink:href="#DejaVuSans-65"/>
      <use x="133.890625" xlink:href="#DejaVuSans-80"/>
      <use x="194.193359" xlink:href="#DejaVuSans-49"/>
      <use x="257.816406" xlink:href="#DejaVuSans-65"/>
     </g>
    </g>
   </g>
   <g id="text_11">
    <g clip-path="url(#p3c0b543f58)">
     <!-- MICALL2 -->
     <g transform="translate(426.527702 345.129908)scale(0.12 -0.12)">
      <use xlink:href="#DejaVuSans-77"/>
      <use x="86.279297" xlink:href="#DejaVuSans-73"/>
      <use x="115.771484" xlink:href="#DejaVuSans-67"/>
      <use x="185.595703" xlink:href="#DejaVuSans-65"/>
      <use x="254.003906" xlink:href="#DejaVuSans-76"/>
      <use x="309.716797" xlink:href="#DejaVuSans-76"/>
      <use x="365.429688" xlink:href="#DejaVuSans-50"/>
     </g>
    </g>
   </g>
   <g id="text_12">
    <g clip-path="url(#p3c0b543f58)">
     <!-- MAP2K7 -->
     <g transform="translate(162.683859 225.374348)scale(0.12 -0.12)">
      <use xlink:href="#DejaVuSans-77"/>
      <use x="86.279297" xlink:href="#DejaVuSans-65"/>
      <use x="154.6875" xlink:href="#DejaVuSans-80"/>
      <use x="214.990234" xlink:href="#DejaVuSans-50"/>
      <use x="278.613281" xlink:href="#DejaVuSans-75"/>
      <use x="344.189453" xlink:href="#DejaVuSans-55"/>
     </g>
    </g>
   </g>
   <g id="text_13">
    <g clip-path="url(#p3c0b543f58)">
     <!-- MAP3K5 -->
     <g transform="translate(387.406824 250.9641)scale(0.12 -0.12)">
      <defs>
       <path d="M 40.578125 39.3125 
Q 47.65625 37.796875 51.625 33 
Q 55.609375 28.21875 55.609375 21.1875 
Q 55.609375 10.40625 48.1875 4.484375 
Q 40.765625 -1.421875 27.09375 -1.421875 
Q 22.515625 -1.421875 17.65625 -0.515625 
Q 12.796875 0.390625 7.625 2.203125 
L 7.625 11.71875 
Q 11.71875 9.328125 16.59375 8.109375 
Q 21.484375 6.890625 26.8125 6.890625 
Q 36.078125 6.890625 40.9375 10.546875 
Q 45.796875 14.203125 45.796875 21.1875 
Q 45.796875 27.640625 41.28125 31.265625 
Q 36.765625 34.90625 28.71875 34.90625 
L 20.21875 34.90625 
L 20.21875 43.015625 
L 29.109375 43.015625 
Q 36.375 43.015625 40.234375 45.921875 
Q 44.09375 48.828125 44.09375 54.296875 
Q 44.09375 59.90625 40.109375 62.90625 
Q 36.140625 65.921875 28.71875 65.921875 
Q 24.65625 65.921875 20.015625 65.03125 
Q 15.375 64.15625 9.8125 62.3125 
L 9.8125 71.09375 
Q 15.4375 72.65625 20.34375 73.4375 
Q 25.25 74.21875 29.59375 74.21875 
Q 40.828125 74.21875 47.359375 69.109375 
Q 53.90625 64.015625 53.90625 55.328125 
Q 53.90625 49.265625 50.4375 45.09375 
Q 46.96875 40.921875 40.578125 39.3125 
z
" id="DejaVuSans-51"/>
       <path d="M 10.796875 72.90625 
L 49.515625 72.90625 
L 49.515625 64.59375 
L 19.828125 64.59375 
L 19.828125 46.734375 
Q 21.96875 47.46875 24.109375 47.828125 
Q 26.265625 48.1875 28.421875 48.1875 
Q 40.625 48.1875 47.75 41.5 
Q 54.890625 34.8125 54.890625 23.390625 
Q 54.890625 11.625 47.5625 5.09375 
Q 40.234375 -1.421875 26.90625 -1.421875 
Q 22.3125 -1.421875 17.546875 -0.640625 
Q 12.796875 0.140625 7.71875 1.703125 
L 7.71875 11.625 
Q 12.109375 9.234375 16.796875 8.0625 
Q 21.484375 6.890625 26.703125 6.890625 
Q 35.15625 6.890625 40.078125 11.328125 
Q 45.015625 15.765625 45.015625 23.390625 
Q 45.015625 31 40.078125 35.4375 
Q 35.15625 39.890625 26.703125 39.890625 
Q 22.75 39.890625 18.8125 39.015625 
Q 14.890625 38.140625 10.796875 36.28125 
z
" id="DejaVuSans-53"/>
      </defs>
      <use xlink:href="#DejaVuSans-77"/>
      <use x="86.279297" xlink:href="#DejaVuSans-65"/>
      <use x="154.6875" xlink:href="#DejaVuSans-80"/>
      <use x="214.990234" xlink:href="#DejaVuSans-51"/>
      <use x="278.613281" xlink:href="#DejaVuSans-75"/>
      <use x="344.189453" xlink:href="#DejaVuSans-53"/>
     </g>
    </g>
   </g>
   <g id="text_14">
    <g clip-path="url(#p3c0b543f58)">
     <!-- SLC9A3R1 -->
     <g transform="translate(491.089971 249.168458)scale(0.12 -0.12)">
      <defs>
       <path d="M 10.984375 1.515625 
L 10.984375 10.5 
Q 14.703125 8.734375 18.5 7.8125 
Q 22.3125 6.890625 25.984375 6.890625 
Q 35.75 6.890625 40.890625 13.453125 
Q 46.046875 20.015625 46.78125 33.40625 
Q 43.953125 29.203125 39.59375 26.953125 
Q 35.25 24.703125 29.984375 24.703125 
Q 19.046875 24.703125 12.671875 31.3125 
Q 6.296875 37.9375 6.296875 49.421875 
Q 6.296875 60.640625 12.9375 67.421875 
Q 19.578125 74.21875 30.609375 74.21875 
Q 43.265625 74.21875 49.921875 64.515625 
Q 56.59375 54.828125 56.59375 36.375 
Q 56.59375 19.140625 48.40625 8.859375 
Q 40.234375 -1.421875 26.421875 -1.421875 
Q 22.703125 -1.421875 18.890625 -0.6875 
Q 15.09375 0.046875 10.984375 1.515625 
z
M 30.609375 32.421875 
Q 37.25 32.421875 41.125 36.953125 
Q 45.015625 41.5 45.015625 49.421875 
Q 45.015625 57.28125 41.125 61.84375 
Q 37.25 66.40625 30.609375 66.40625 
Q 23.96875 66.40625 20.09375 61.84375 
Q 16.21875 57.28125 16.21875 49.421875 
Q 16.21875 41.5 20.09375 36.953125 
Q 23.96875 32.421875 30.609375 32.421875 
z
" id="DejaVuSans-57"/>
      </defs>
      <use xlink:href="#DejaVuSans-83"/>
      <use x="63.476562" xlink:href="#DejaVuSans-76"/>
      <use x="119.189453" xlink:href="#DejaVuSans-67"/>
      <use x="189.013672" xlink:href="#DejaVuSans-57"/>
      <use x="252.636719" xlink:href="#DejaVuSans-65"/>
      <use x="321.044922" xlink:href="#DejaVuSans-51"/>
      <use x="384.667969" xlink:href="#DejaVuSans-82"/>
      <use x="454.150391" xlink:href="#DejaVuSans-49"/>
     </g>
    </g>
   </g>
   <g id="text_15">
    <g clip-path="url(#p3c0b543f58)">
     <!-- RAPGEF2 -->
     <g transform="translate(368.17364 357.690435)scale(0.12 -0.12)">
      <use xlink:href="#DejaVuSans-82"/>
      <use x="65.482422" xlink:href="#DejaVuSans-65"/>
      <use x="133.890625" xlink:href="#DejaVuSans-80"/>
      <use x="194.193359" xlink:href="#DejaVuSans-71"/>
      <use x="271.683594" xlink:href="#DejaVuSans-69"/>
      <use x="334.867188" xlink:href="#DejaVuSans-70"/>
      <use x="392.386719" xlink:href="#DejaVuSans-50"/>
     </g>
    </g>
   </g>
   <g id="text_16">
    <g clip-path="url(#p3c0b543f58)">
     <!-- RAP2C -->
     <g transform="translate(501.056386 331.02843)scale(0.12 -0.12)">
      <use xlink:href="#DejaVuSans-82"/>
      <use x="65.482422" xlink:href="#DejaVuSans-65"/>
      <use x="133.890625" xlink:href="#DejaVuSans-80"/>
      <use x="194.193359" xlink:href="#DejaVuSans-50"/>
      <use x="257.816406" xlink:href="#DejaVuSans-67"/>
     </g>
    </g>
   </g>
   <g id="text_17">
    <g clip-path="url(#p3c0b543f58)">
     <!-- CDK4 -->
     <g transform="translate(434.188503 328.212959)scale(0.12 -0.12)">
      <use xlink:href="#DejaVuSans-67"/>
      <use x="69.824219" xlink:href="#DejaVuSans-68"/>
      <use x="146.826172" xlink:href="#DejaVuSans-75"/>
      <use x="212.402344" xlink:href="#DejaVuSans-52"/>
     </g>
    </g>
   </g>
   <g id="text_18">
    <g clip-path="url(#p3c0b543f58)">
     <!-- ERBB2 -->
     <g transform="translate(620.063085 426.956558)scale(0.12 -0.12)">
      <defs>
       <path d="M 19.671875 34.8125 
L 19.671875 8.109375 
L 35.5 8.109375 
Q 43.453125 8.109375 47.28125 11.40625 
Q 51.125 14.703125 51.125 21.484375 
Q 51.125 28.328125 47.28125 31.5625 
Q 43.453125 34.8125 35.5 34.8125 
z
M 19.671875 64.796875 
L 19.671875 42.828125 
L 34.28125 42.828125 
Q 41.5 42.828125 45.03125 45.53125 
Q 48.578125 48.25 48.578125 53.8125 
Q 48.578125 59.328125 45.03125 62.0625 
Q 41.5 64.796875 34.28125 64.796875 
z
M 9.8125 72.90625 
L 35.015625 72.90625 
Q 46.296875 72.90625 52.390625 68.21875 
Q 58.5 63.53125 58.5 54.890625 
Q 58.5 48.1875 55.375 44.234375 
Q 52.25 40.28125 46.1875 39.3125 
Q 53.46875 37.75 57.5 32.78125 
Q 61.53125 27.828125 61.53125 20.40625 
Q 61.53125 10.640625 54.890625 5.3125 
Q 48.25 0 35.984375 0 
L 9.8125 0 
z
" id="DejaVuSans-66"/>
      </defs>
      <use xlink:href="#DejaVuSans-69"/>
      <use x="63.183594" xlink:href="#DejaVuSans-82"/>
      <use x="132.666016" xlink:href="#DejaVuSans-66"/>
      <use x="201.269531" xlink:href="#DejaVuSans-66"/>
      <use x="269.873047" xlink:href="#DejaVuSans-50"/>
     </g>
    </g>
   </g>
   <g id="text_19">
    <g clip-path="url(#p3c0b543f58)">
     <!-- PCNA -->
     <g transform="translate(453.89867 110.918523)scale(0.12 -0.12)">
      <use xlink:href="#DejaVuSans-80"/>
      <use x="60.302734" xlink:href="#DejaVuSans-67"/>
      <use x="130.126953" xlink:href="#DejaVuSans-78"/>
      <use x="204.931641" xlink:href="#DejaVuSans-65"/>
     </g>
    </g>
   </g>
   <g id="text_20">
    <g clip-path="url(#p3c0b543f58)">
     <!-- RUNX1 -->
     <g transform="translate(209.386042 416.261982)scale(0.12 -0.12)">
      <defs>
       <path d="M 8.6875 72.90625 
L 18.609375 72.90625 
L 18.609375 28.609375 
Q 18.609375 16.890625 22.84375 11.734375 
Q 27.09375 6.59375 36.625 6.59375 
Q 46.09375 6.59375 50.34375 11.734375 
Q 54.59375 16.890625 54.59375 28.609375 
L 54.59375 72.90625 
L 64.5 72.90625 
L 64.5 27.390625 
Q 64.5 13.140625 57.4375 5.859375 
Q 50.390625 -1.421875 36.625 -1.421875 
Q 22.796875 -1.421875 15.734375 5.859375 
Q 8.6875 13.140625 8.6875 27.390625 
z
" id="DejaVuSans-85"/>
       <path d="M 6.296875 72.90625 
L 16.890625 72.90625 
L 35.015625 45.796875 
L 53.21875 72.90625 
L 63.8125 72.90625 
L 40.375 37.890625 
L 65.375 0 
L 54.78125 0 
L 34.28125 31 
L 13.625 0 
L 2.984375 0 
L 29 38.921875 
z
" id="DejaVuSans-88"/>
      </defs>
      <use xlink:href="#DejaVuSans-82"/>
      <use x="69.482422" xlink:href="#DejaVuSans-85"/>
      <use x="142.675781" xlink:href="#DejaVuSans-78"/>
      <use x="217.480469" xlink:href="#DejaVuSans-88"/>
      <use x="285.986328" xlink:href="#DejaVuSans-49"/>
     </g>
    </g>
   </g>
   <g id="text_21">
    <g clip-path="url(#p3c0b543f58)">
     <!-- ARHGEF2 -->
     <g transform="translate(277.241217 288.676461)scale(0.12 -0.12)">
      <use xlink:href="#DejaVuSans-65"/>
      <use x="68.408203" xlink:href="#DejaVuSans-82"/>
      <use x="137.890625" xlink:href="#DejaVuSans-72"/>
      <use x="213.085938" xlink:href="#DejaVuSans-71"/>
      <use x="290.576172" xlink:href="#DejaVuSans-69"/>
      <use x="353.759766" xlink:href="#DejaVuSans-70"/>
      <use x="411.279297" xlink:href="#DejaVuSans-50"/>
     </g>
    </g>
   </g>
   <g id="text_22">
    <g clip-path="url(#p3c0b543f58)">
     <!-- CCND1 -->
     <g transform="translate(385.865437 470.833064)scale(0.12 -0.12)">
      <use xlink:href="#DejaVuSans-67"/>
      <use x="69.824219" xlink:href="#DejaVuSans-67"/>
      <use x="139.648438" xlink:href="#DejaVuSans-78"/>
      <use x="214.453125" xlink:href="#DejaVuSans-68"/>
      <use x="291.455078" xlink:href="#DejaVuSans-49"/>
     </g>
    </g>
   </g>
   <g id="text_23">
    <g clip-path="url(#p3c0b543f58)">
     <!-- SYMPK -->
     <g transform="translate(414.067977 328.573938)scale(0.12 -0.12)">
      <defs>
       <path d="M -0.203125 72.90625 
L 10.40625 72.90625 
L 30.609375 42.921875 
L 50.6875 72.90625 
L 61.28125 72.90625 
L 35.5 34.71875 
L 35.5 0 
L 25.59375 0 
L 25.59375 34.71875 
z
" id="DejaVuSans-89"/>
      </defs>
      <use xlink:href="#DejaVuSans-83"/>
      <use x="63.476562" xlink:href="#DejaVuSans-89"/>
      <use x="124.560547" xlink:href="#DejaVuSans-77"/>
      <use x="210.839844" xlink:href="#DejaVuSans-80"/>
      <use x="271.142578" xlink:href="#DejaVuSans-75"/>
     </g>
    </g>
   </g>
   <g id="text_24">
    <g clip-path="url(#p3c0b543f58)">
     <!-- ITGB1 -->
     <g transform="translate(256.991001 152.342355)scale(0.12 -0.12)">
      <use xlink:href="#DejaVuSans-73"/>
      <use x="29.492188" xlink:href="#DejaVuSans-84"/>
      <use x="90.576172" xlink:href="#DejaVuSans-71"/>
      <use x="168.066406" xlink:href="#DejaVuSans-66"/>
      <use x="236.669922" xlink:href="#DejaVuSans-49"/>
     </g>
    </g>
   </g>
   <g id="text_25">
    <g clip-path="url(#p3c0b543f58)">
     <!-- MPP5 -->
     <g transform="translate(536.571654 148.902421)scale(0.12 -0.12)">
      <use xlink:href="#DejaVuSans-77"/>
      <use x="86.279297" xlink:href="#DejaVuSans-80"/>
      <use x="146.582031" xlink:href="#DejaVuSans-80"/>
      <use x="206.884766" xlink:href="#DejaVuSans-53"/>
     </g>
    </g>
   </g>
   <g id="text_26">
    <g clip-path="url(#p3c0b543f58)">
     <!-- TJP3 -->
     <g transform="translate(515.206665 166.929287)scale(0.12 -0.12)">
      <defs>
       <path d="M 9.8125 72.90625 
L 19.671875 72.90625 
L 19.671875 5.078125 
Q 19.671875 -8.109375 14.671875 -14.0625 
Q 9.671875 -20.015625 -1.421875 -20.015625 
L -5.171875 -20.015625 
L -5.171875 -11.71875 
L -2.09375 -11.71875 
Q 4.4375 -11.71875 7.125 -8.046875 
Q 9.8125 -4.390625 9.8125 5.078125 
z
" id="DejaVuSans-74"/>
      </defs>
      <use xlink:href="#DejaVuSans-84"/>
      <use x="61.083984" xlink:href="#DejaVuSans-74"/>
      <use x="90.576172" xlink:href="#DejaVuSans-80"/>
      <use x="150.878906" xlink:href="#DejaVuSans-51"/>
     </g>
    </g>
   </g>
   <g id="text_27">
    <g clip-path="url(#p3c0b543f58)">
     <!-- PRKCE -->
     <g transform="translate(495.448344 259.428432)scale(0.12 -0.12)">
      <use xlink:href="#DejaVuSans-80"/>
      <use x="60.302734" xlink:href="#DejaVuSans-82"/>
      <use x="129.785156" xlink:href="#DejaVuSans-75"/>
      <use x="189.861328" xlink:href="#DejaVuSans-67"/>
      <use x="259.685547" xlink:href="#DejaVuSans-69"/>
     </g>
    </g>
   </g>
   <g id="text_28">
    <g clip-path="url(#p3c0b543f58)">
     <!-- ROCK1 -->
     <g transform="translate(191.206611 380.491103)scale(0.12 -0.12)">
      <use xlink:href="#DejaVuSans-82"/>
      <use x="69.482422" xlink:href="#DejaVuSans-79"/>
      <use x="148.193359" xlink:href="#DejaVuSans-67"/>
      <use x="218.017578" xlink:href="#DejaVuSans-75"/>
      <use x="283.59375" xlink:href="#DejaVuSans-49"/>
     </g>
    </g>
   </g>
   <g id="text_29">
    <g clip-path="url(#p3c0b543f58)">
     <!-- ROCK2 -->
     <g transform="translate(516.103999 113.838559)scale(0.12 -0.12)">
      <use xlink:href="#DejaVuSans-82"/>
      <use x="69.482422" xlink:href="#DejaVuSans-79"/>
      <use x="148.193359" xlink:href="#DejaVuSans-67"/>
      <use x="218.017578" xlink:href="#DejaVuSans-75"/>
      <use x="283.59375" xlink:href="#DejaVuSans-50"/>
     </g>
    </g>
   </g>
   <g id="text_30">
    <g clip-path="url(#p3c0b543f58)">
     <!-- PRKCI -->
     <g transform="translate(435.958398 386.560159)scale(0.12 -0.12)">
      <use xlink:href="#DejaVuSans-80"/>
      <use x="60.302734" xlink:href="#DejaVuSans-82"/>
      <use x="129.785156" xlink:href="#DejaVuSans-75"/>
      <use x="189.861328" xlink:href="#DejaVuSans-67"/>
      <use x="259.685547" xlink:href="#DejaVuSans-73"/>
     </g>
    </g>
   </g>
   <g id="text_31">
    <g clip-path="url(#p3c0b543f58)">
     <!-- PRKCZ -->
     <g transform="translate(175.843944 377.75573)scale(0.12 -0.12)">
      <defs>
       <path d="M 5.609375 72.90625 
L 62.890625 72.90625 
L 62.890625 65.375 
L 16.796875 8.296875 
L 64.015625 8.296875 
L 64.015625 0 
L 4.5 0 
L 4.5 7.515625 
L 50.59375 64.59375 
L 5.609375 64.59375 
z
" id="DejaVuSans-90"/>
      </defs>
      <use xlink:href="#DejaVuSans-80"/>
      <use x="60.302734" xlink:href="#DejaVuSans-82"/>
      <use x="129.785156" xlink:href="#DejaVuSans-75"/>
      <use x="189.861328" xlink:href="#DejaVuSans-67"/>
      <use x="259.685547" xlink:href="#DejaVuSans-90"/>
     </g>
    </g>
   </g>
   <g id="text_32">
    <g clip-path="url(#p3c0b543f58)">
     <!-- EZR -->
     <g transform="translate(201.53686 183.447084)scale(0.12 -0.12)">
      <use xlink:href="#DejaVuSans-69"/>
      <use x="63.183594" xlink:href="#DejaVuSans-90"/>
      <use x="131.689453" xlink:href="#DejaVuSans-82"/>
     </g>
    </g>
   </g>
   <g id="text_33">
    <g clip-path="url(#p3c0b543f58)">
     <!-- RDX -->
     <g transform="translate(698.167204 196.412626)scale(0.12 -0.12)">
      <use xlink:href="#DejaVuSans-82"/>
      <use x="69.482422" xlink:href="#DejaVuSans-68"/>
      <use x="146.484375" xlink:href="#DejaVuSans-88"/>
     </g>
    </g>
   </g>
   <g id="text_34">
    <g clip-path="url(#p3c0b543f58)">
     <!-- MSN -->
     <g transform="translate(670.472025 393.587253)scale(0.12 -0.12)">
      <use xlink:href="#DejaVuSans-77"/>
      <use x="86.279297" xlink:href="#DejaVuSans-83"/>
      <use x="149.755859" xlink:href="#DejaVuSans-78"/>
     </g>
    </g>
   </g>
   <g id="text_35">
    <g clip-path="url(#p3c0b543f58)">
     <!-- TJP2 -->
     <g transform="translate(365.592685 267.726093)scale(0.12 -0.12)">
      <use xlink:href="#DejaVuSans-84"/>
      <use x="61.083984" xlink:href="#DejaVuSans-74"/>
      <use x="90.576172" xlink:href="#DejaVuSans-80"/>
      <use x="150.878906" xlink:href="#DejaVuSans-50"/>
     </g>
    </g>
   </g>
   <g id="text_36">
    <g clip-path="url(#p3c0b543f58)">
     <!-- WHAMM -->
     <g transform="translate(412.101316 457.290751)scale(0.12 -0.12)">
      <defs>
       <path d="M 3.328125 72.90625 
L 13.28125 72.90625 
L 28.609375 11.28125 
L 43.890625 72.90625 
L 54.984375 72.90625 
L 70.3125 11.28125 
L 85.59375 72.90625 
L 95.609375 72.90625 
L 77.296875 0 
L 64.890625 0 
L 49.515625 63.28125 
L 33.984375 0 
L 21.578125 0 
z
" id="DejaVuSans-87"/>
      </defs>
      <use xlink:href="#DejaVuSans-87"/>
      <use x="98.876953" xlink:href="#DejaVuSans-72"/>
      <use x="174.072266" xlink:href="#DejaVuSans-65"/>
      <use x="242.480469" xlink:href="#DejaVuSans-77"/>
      <use x="328.759766" xlink:href="#DejaVuSans-77"/>
     </g>
    </g>
   </g>
   <g id="text_37">
    <g clip-path="url(#p3c0b543f58)">
     <!-- WAS -->
     <g transform="translate(436.075701 409.640117)scale(0.12 -0.12)">
      <use xlink:href="#DejaVuSans-87"/>
      <use x="93.376953" xlink:href="#DejaVuSans-65"/>
      <use x="161.785156" xlink:href="#DejaVuSans-83"/>
     </g>
    </g>
   </g>
   <g id="text_38">
    <g clip-path="url(#p3c0b543f58)">
     <!-- ACTR2 -->
     <g transform="translate(445.486612 461.599521)scale(0.12 -0.12)">
      <use xlink:href="#DejaVuSans-65"/>
      <use x="66.658203" xlink:href="#DejaVuSans-67"/>
      <use x="136.482422" xlink:href="#DejaVuSans-84"/>
      <use x="197.566406" xlink:href="#DejaVuSans-82"/>
      <use x="267.048828" xlink:href="#DejaVuSans-50"/>
     </g>
    </g>
   </g>
   <g id="text_39">
    <g clip-path="url(#p3c0b543f58)">
     <!-- ACTR3 -->
     <g transform="translate(433.650808 477.463977)scale(0.12 -0.12)">
      <use xlink:href="#DejaVuSans-65"/>
      <use x="66.658203" xlink:href="#DejaVuSans-67"/>
      <use x="136.482422" xlink:href="#DejaVuSans-84"/>
      <use x="197.566406" xlink:href="#DejaVuSans-82"/>
      <use x="267.048828" xlink:href="#DejaVuSans-51"/>
     </g>
    </g>
   </g>
   <g id="text_40">
    <g clip-path="url(#p3c0b543f58)">
     <!-- ARPC5 -->
     <g transform="translate(482.740649 470.410211)scale(0.12 -0.12)">
      <use xlink:href="#DejaVuSans-65"/>
      <use x="68.408203" xlink:href="#DejaVuSans-82"/>
      <use x="137.890625" xlink:href="#DejaVuSans-80"/>
      <use x="198.193359" xlink:href="#DejaVuSans-67"/>
      <use x="268.017578" xlink:href="#DejaVuSans-53"/>
     </g>
    </g>
   </g>
   <g id="text_41">
    <g clip-path="url(#p3c0b543f58)">
     <!-- ARPC4 -->
     <g transform="translate(377.945563 472.725455)scale(0.12 -0.12)">
      <use xlink:href="#DejaVuSans-65"/>
      <use x="68.408203" xlink:href="#DejaVuSans-82"/>
      <use x="137.890625" xlink:href="#DejaVuSans-80"/>
      <use x="198.193359" xlink:href="#DejaVuSans-67"/>
      <use x="268.017578" xlink:href="#DejaVuSans-52"/>
     </g>
    </g>
   </g>
   <g id="text_42">
    <g clip-path="url(#p3c0b543f58)">
     <!-- ARPC3 -->
     <g transform="translate(415.960537 426.508246)scale(0.12 -0.12)">
      <use xlink:href="#DejaVuSans-65"/>
      <use x="68.408203" xlink:href="#DejaVuSans-82"/>
      <use x="137.890625" xlink:href="#DejaVuSans-80"/>
      <use x="198.193359" xlink:href="#DejaVuSans-67"/>
      <use x="268.017578" xlink:href="#DejaVuSans-51"/>
     </g>
    </g>
   </g>
   <g id="text_43">
    <g clip-path="url(#p3c0b543f58)">
     <!-- ARPC2 -->
     <g transform="translate(470.635128 461.277195)scale(0.12 -0.12)">
      <use xlink:href="#DejaVuSans-65"/>
      <use x="68.408203" xlink:href="#DejaVuSans-82"/>
      <use x="137.890625" xlink:href="#DejaVuSans-80"/>
      <use x="198.193359" xlink:href="#DejaVuSans-67"/>
      <use x="268.017578" xlink:href="#DejaVuSans-50"/>
     </g>
    </g>
   </g>
   <g id="text_44">
    <g clip-path="url(#p3c0b543f58)">
     <!-- RAB8A -->
     <g transform="translate(149.241641 310.095747)scale(0.12 -0.12)">
      <defs>
       <path d="M 31.78125 34.625 
Q 24.75 34.625 20.71875 30.859375 
Q 16.703125 27.09375 16.703125 20.515625 
Q 16.703125 13.921875 20.71875 10.15625 
Q 24.75 6.390625 31.78125 6.390625 
Q 38.8125 6.390625 42.859375 10.171875 
Q 46.921875 13.96875 46.921875 20.515625 
Q 46.921875 27.09375 42.890625 30.859375 
Q 38.875 34.625 31.78125 34.625 
z
M 21.921875 38.8125 
Q 15.578125 40.375 12.03125 44.71875 
Q 8.5 49.078125 8.5 55.328125 
Q 8.5 64.0625 14.71875 69.140625 
Q 20.953125 74.21875 31.78125 74.21875 
Q 42.671875 74.21875 48.875 69.140625 
Q 55.078125 64.0625 55.078125 55.328125 
Q 55.078125 49.078125 51.53125 44.71875 
Q 48 40.375 41.703125 38.8125 
Q 48.828125 37.15625 52.796875 32.3125 
Q 56.78125 27.484375 56.78125 20.515625 
Q 56.78125 9.90625 50.3125 4.234375 
Q 43.84375 -1.421875 31.78125 -1.421875 
Q 19.734375 -1.421875 13.25 4.234375 
Q 6.78125 9.90625 6.78125 20.515625 
Q 6.78125 27.484375 10.78125 32.3125 
Q 14.796875 37.15625 21.921875 38.8125 
z
M 18.3125 54.390625 
Q 18.3125 48.734375 21.84375 45.5625 
Q 25.390625 42.390625 31.78125 42.390625 
Q 38.140625 42.390625 41.71875 45.5625 
Q 45.3125 48.734375 45.3125 54.390625 
Q 45.3125 60.0625 41.71875 63.234375 
Q 38.140625 66.40625 31.78125 66.40625 
Q 25.390625 66.40625 21.84375 63.234375 
Q 18.3125 60.0625 18.3125 54.390625 
z
" id="DejaVuSans-56"/>
      </defs>
      <use xlink:href="#DejaVuSans-82"/>
      <use x="65.482422" xlink:href="#DejaVuSans-65"/>
      <use x="133.890625" xlink:href="#DejaVuSans-66"/>
      <use x="202.494141" xlink:href="#DejaVuSans-56"/>
      <use x="266.117188" xlink:href="#DejaVuSans-65"/>
     </g>
    </g>
   </g>
   <g id="text_45">
    <g clip-path="url(#p3c0b543f58)">
     <!-- RAB8B -->
     <g transform="translate(699.410152 365.285862)scale(0.12 -0.12)">
      <use xlink:href="#DejaVuSans-82"/>
      <use x="65.482422" xlink:href="#DejaVuSans-65"/>
      <use x="133.890625" xlink:href="#DejaVuSans-66"/>
      <use x="202.494141" xlink:href="#DejaVuSans-56"/>
      <use x="266.117188" xlink:href="#DejaVuSans-66"/>
     </g>
    </g>
   </g>
   <g id="text_46">
    <!-- Frame: 11 -->
    <g transform="translate(121.392 91.296)scale(0.1 -0.1)">
     <defs>
      <path d="M 41.109375 46.296875 
Q 39.59375 47.171875 37.8125 47.578125 
Q 36.03125 48 33.890625 48 
Q 26.265625 48 22.1875 43.046875 
Q 18.109375 38.09375 18.109375 28.8125 
L 18.109375 0 
L 9.078125 0 
L 9.078125 54.6875 
L 18.109375 54.6875 
L 18.109375 46.1875 
Q 20.953125 51.171875 25.484375 53.578125 
Q 30.03125 56 36.53125 56 
Q 37.453125 56 38.578125 55.875 
Q 39.703125 55.765625 41.0625 55.515625 
z
" id="DejaVuSans-114"/>
      <path d="M 34.28125 27.484375 
Q 23.390625 27.484375 19.1875 25 
Q 14.984375 22.515625 14.984375 16.5 
Q 14.984375 11.71875 18.140625 8.90625 
Q 21.296875 6.109375 26.703125 6.109375 
Q 34.1875 6.109375 38.703125 11.40625 
Q 43.21875 16.703125 43.21875 25.484375 
L 43.21875 27.484375 
z
M 52.203125 31.203125 
L 52.203125 0 
L 43.21875 0 
L 43.21875 8.296875 
Q 40.140625 3.328125 35.546875 0.953125 
Q 30.953125 -1.421875 24.3125 -1.421875 
Q 15.921875 -1.421875 10.953125 3.296875 
Q 6 8.015625 6 15.921875 
Q 6 25.140625 12.171875 29.828125 
Q 18.359375 34.515625 30.609375 34.515625 
L 43.21875 34.515625 
L 43.21875 35.40625 
Q 43.21875 41.609375 39.140625 45 
Q 35.0625 48.390625 27.6875 48.390625 
Q 23 48.390625 18.546875 47.265625 
Q 14.109375 46.140625 10.015625 43.890625 
L 10.015625 52.203125 
Q 14.9375 54.109375 19.578125 55.046875 
Q 24.21875 56 28.609375 56 
Q 40.484375 56 46.34375 49.84375 
Q 52.203125 43.703125 52.203125 31.203125 
z
" id="DejaVuSans-97"/>
      <path d="M 52 44.1875 
Q 55.375 50.25 60.0625 53.125 
Q 64.75 56 71.09375 56 
Q 79.640625 56 84.28125 50.015625 
Q 88.921875 44.046875 88.921875 33.015625 
L 88.921875 0 
L 79.890625 0 
L 79.890625 32.71875 
Q 79.890625 40.578125 77.09375 44.375 
Q 74.3125 48.1875 68.609375 48.1875 
Q 61.625 48.1875 57.5625 43.546875 
Q 53.515625 38.921875 53.515625 30.90625 
L 53.515625 0 
L 44.484375 0 
L 44.484375 32.71875 
Q 44.484375 40.625 41.703125 44.40625 
Q 38.921875 48.1875 33.109375 48.1875 
Q 26.21875 48.1875 22.15625 43.53125 
Q 18.109375 38.875 18.109375 30.90625 
L 18.109375 0 
L 9.078125 0 
L 9.078125 54.6875 
L 18.109375 54.6875 
L 18.109375 46.1875 
Q 21.1875 51.21875 25.484375 53.609375 
Q 29.78125 56 35.6875 56 
Q 41.65625 56 45.828125 52.96875 
Q 50 49.953125 52 44.1875 
z
" id="DejaVuSans-109"/>
      <path d="M 56.203125 29.59375 
L 56.203125 25.203125 
L 14.890625 25.203125 
Q 15.484375 15.921875 20.484375 11.0625 
Q 25.484375 6.203125 34.421875 6.203125 
Q 39.59375 6.203125 44.453125 7.46875 
Q 49.3125 8.734375 54.109375 11.28125 
L 54.109375 2.78125 
Q 49.265625 0.734375 44.1875 -0.34375 
Q 39.109375 -1.421875 33.890625 -1.421875 
Q 20.796875 -1.421875 13.15625 6.1875 
Q 5.515625 13.8125 5.515625 26.8125 
Q 5.515625 40.234375 12.765625 48.109375 
Q 20.015625 56 32.328125 56 
Q 43.359375 56 49.78125 48.890625 
Q 56.203125 41.796875 56.203125 29.59375 
z
M 47.21875 32.234375 
Q 47.125 39.59375 43.09375 43.984375 
Q 39.0625 48.390625 32.421875 48.390625 
Q 24.90625 48.390625 20.390625 44.140625 
Q 15.875 39.890625 15.1875 32.171875 
z
" id="DejaVuSans-101"/>
      <path d="M 11.71875 12.40625 
L 22.015625 12.40625 
L 22.015625 0 
L 11.71875 0 
z
M 11.71875 51.703125 
L 22.015625 51.703125 
L 22.015625 39.3125 
L 11.71875 39.3125 
z
" id="DejaVuSans-58"/>
      <path id="DejaVuSans-32"/>
     </defs>
     <use xlink:href="#DejaVuSans-70"/>
     <use x="50.269531" xlink:href="#DejaVuSans-114"/>
     <use x="91.382812" xlink:href="#DejaVuSans-97"/>
     <use x="152.662109" xlink:href="#DejaVuSans-109"/>
     <use x="250.074219" xlink:href="#DejaVuSans-101"/>
     <use x="311.597656" xlink:href="#DejaVuSans-58"/>
     <use x="345.289062" xlink:href="#DejaVuSans-32"/>
     <use x="377.076172" xlink:href="#DejaVuSans-49"/>
     <use x="440.699219" xlink:href="#DejaVuSans-49"/>
    </g>
   </g>
   <g id="text_47">
    <!-- Network: hsa04530 -->
    <g transform="translate(384.1275 63.12)scale(0.12 -0.12)">
     <defs>
      <path d="M 18.3125 70.21875 
L 18.3125 54.6875 
L 36.8125 54.6875 
L 36.8125 47.703125 
L 18.3125 47.703125 
L 18.3125 18.015625 
Q 18.3125 11.328125 20.140625 9.421875 
Q 21.96875 7.515625 27.59375 7.515625 
L 36.8125 7.515625 
L 36.8125 0 
L 27.59375 0 
Q 17.1875 0 13.234375 3.875 
Q 9.28125 7.765625 9.28125 18.015625 
L 9.28125 47.703125 
L 2.6875 47.703125 
L 2.6875 54.6875 
L 9.28125 54.6875 
L 9.28125 70.21875 
z
" id="DejaVuSans-116"/>
      <path d="M 4.203125 54.6875 
L 13.1875 54.6875 
L 24.421875 12.015625 
L 35.59375 54.6875 
L 46.1875 54.6875 
L 57.421875 12.015625 
L 68.609375 54.6875 
L 77.59375 54.6875 
L 63.28125 0 
L 52.6875 0 
L 40.921875 44.828125 
L 29.109375 0 
L 18.5 0 
z
" id="DejaVuSans-119"/>
      <path d="M 30.609375 48.390625 
Q 23.390625 48.390625 19.1875 42.75 
Q 14.984375 37.109375 14.984375 27.296875 
Q 14.984375 17.484375 19.15625 11.84375 
Q 23.34375 6.203125 30.609375 6.203125 
Q 37.796875 6.203125 41.984375 11.859375 
Q 46.1875 17.53125 46.1875 27.296875 
Q 46.1875 37.015625 41.984375 42.703125 
Q 37.796875 48.390625 30.609375 48.390625 
z
M 30.609375 56 
Q 42.328125 56 49.015625 48.375 
Q 55.71875 40.765625 55.71875 27.296875 
Q 55.71875 13.875 49.015625 6.21875 
Q 42.328125 -1.421875 30.609375 -1.421875 
Q 18.84375 -1.421875 12.171875 6.21875 
Q 5.515625 13.875 5.515625 27.296875 
Q 5.515625 40.765625 12.171875 48.375 
Q 18.84375 56 30.609375 56 
z
" id="DejaVuSans-111"/>
      <path d="M 9.078125 75.984375 
L 18.109375 75.984375 
L 18.109375 31.109375 
L 44.921875 54.6875 
L 56.390625 54.6875 
L 27.390625 29.109375 
L 57.625 0 
L 45.90625 0 
L 18.109375 26.703125 
L 18.109375 0 
L 9.078125 0 
z
" id="DejaVuSans-107"/>
      <path d="M 54.890625 33.015625 
L 54.890625 0 
L 45.90625 0 
L 45.90625 32.71875 
Q 45.90625 40.484375 42.875 44.328125 
Q 39.84375 48.1875 33.796875 48.1875 
Q 26.515625 48.1875 22.3125 43.546875 
Q 18.109375 38.921875 18.109375 30.90625 
L 18.109375 0 
L 9.078125 0 
L 9.078125 75.984375 
L 18.109375 75.984375 
L 18.109375 46.1875 
Q 21.34375 51.125 25.703125 53.5625 
Q 30.078125 56 35.796875 56 
Q 45.21875 56 50.046875 50.171875 
Q 54.890625 44.34375 54.890625 33.015625 
z
" id="DejaVuSans-104"/>
      <path d="M 44.28125 53.078125 
L 44.28125 44.578125 
Q 40.484375 46.53125 36.375 47.5 
Q 32.28125 48.484375 27.875 48.484375 
Q 21.1875 48.484375 17.84375 46.4375 
Q 14.5 44.390625 14.5 40.28125 
Q 14.5 37.15625 16.890625 35.375 
Q 19.28125 33.59375 26.515625 31.984375 
L 29.59375 31.296875 
Q 39.15625 29.25 43.1875 25.515625 
Q 47.21875 21.78125 47.21875 15.09375 
Q 47.21875 7.46875 41.1875 3.015625 
Q 35.15625 -1.421875 24.609375 -1.421875 
Q 20.21875 -1.421875 15.453125 -0.5625 
Q 10.6875 0.296875 5.421875 2 
L 5.421875 11.28125 
Q 10.40625 8.6875 15.234375 7.390625 
Q 20.0625 6.109375 24.8125 6.109375 
Q 31.15625 6.109375 34.5625 8.28125 
Q 37.984375 10.453125 37.984375 14.40625 
Q 37.984375 18.0625 35.515625 20.015625 
Q 33.0625 21.96875 24.703125 23.78125 
L 21.578125 24.515625 
Q 13.234375 26.265625 9.515625 29.90625 
Q 5.8125 33.546875 5.8125 39.890625 
Q 5.8125 47.609375 11.28125 51.796875 
Q 16.75 56 26.8125 56 
Q 31.78125 56 36.171875 55.265625 
Q 40.578125 54.546875 44.28125 53.078125 
z
" id="DejaVuSans-115"/>
      <path d="M 31.78125 66.40625 
Q 24.171875 66.40625 20.328125 58.90625 
Q 16.5 51.421875 16.5 36.375 
Q 16.5 21.390625 20.328125 13.890625 
Q 24.171875 6.390625 31.78125 6.390625 
Q 39.453125 6.390625 43.28125 13.890625 
Q 47.125 21.390625 47.125 36.375 
Q 47.125 51.421875 43.28125 58.90625 
Q 39.453125 66.40625 31.78125 66.40625 
z
M 31.78125 74.21875 
Q 44.046875 74.21875 50.515625 64.515625 
Q 56.984375 54.828125 56.984375 36.375 
Q 56.984375 17.96875 50.515625 8.265625 
Q 44.046875 -1.421875 31.78125 -1.421875 
Q 19.53125 -1.421875 13.0625 8.265625 
Q 6.59375 17.96875 6.59375 36.375 
Q 6.59375 54.828125 13.0625 64.515625 
Q 19.53125 74.21875 31.78125 74.21875 
z
" id="DejaVuSans-48"/>
     </defs>
     <use xlink:href="#DejaVuSans-78"/>
     <use x="74.804688" xlink:href="#DejaVuSans-101"/>
     <use x="136.328125" xlink:href="#DejaVuSans-116"/>
     <use x="175.537109" xlink:href="#DejaVuSans-119"/>
     <use x="257.324219" xlink:href="#DejaVuSans-111"/>
     <use x="318.505859" xlink:href="#DejaVuSans-114"/>
     <use x="359.619141" xlink:href="#DejaVuSans-107"/>
     <use x="417.529297" xlink:href="#DejaVuSans-58"/>
     <use x="451.220703" xlink:href="#DejaVuSans-32"/>
     <use x="483.007812" xlink:href="#DejaVuSans-104"/>
     <use x="546.386719" xlink:href="#DejaVuSans-115"/>
     <use x="598.486328" xlink:href="#DejaVuSans-97"/>
     <use x="659.765625" xlink:href="#DejaVuSans-48"/>
     <use x="723.388672" xlink:href="#DejaVuSans-52"/>
     <use x="787.011719" xlink:href="#DejaVuSans-53"/>
     <use x="850.634766" xlink:href="#DejaVuSans-51"/>
     <use x="914.257812" xlink:href="#DejaVuSans-48"/>
    </g>
   </g>
  </g>
 </g>
 <defs>
  <clipPath id="p3c0b543f58">
   <rect height="443.52" width="669.6" x="108" y="69.12"/>
  </clipPath>
 </defs>
</svg>
