<?xml version="1.0" encoding="utf-8" standalone="no"?>
<!DOCTYPE svg PUBLIC "-//W3C//DTD SVG 1.1//EN"
  "http://www.w3.org/Graphics/SVG/1.1/DTD/svg11.dtd">
<!-- Created with matplotlib (https://matplotlib.org/) -->
<svg height="576pt" version="1.1" viewBox="0 0 864 576" width="864pt" xmlns="http://www.w3.org/2000/svg" xmlns:xlink="http://www.w3.org/1999/xlink">
 <metadata>
  <rdf:RDF xmlns:cc="http://creativecommons.org/ns#" xmlns:dc="http://purl.org/dc/elements/1.1/" xmlns:rdf="http://www.w3.org/1999/02/22-rdf-syntax-ns#">
   <cc:Work>
    <dc:type rdf:resource="http://purl.org/dc/dcmitype/StillImage"/>
    <dc:date>2024-04-26T13:36:00.351610</dc:date>
    <dc:format>image/svg+xml</dc:format>
    <dc:creator>
     <cc:Agent>
      <dc:title>Matplotlib v3.3.1, https://matplotlib.org/</dc:title>
     </cc:Agent>
    </dc:creator>
   </cc:Work>
  </rdf:RDF>
 </metadata>
 <defs>
  <style type="text/css">*{stroke-linecap:butt;stroke-linejoin:round;}</style>
 </defs>
 <g id="figure_1">
  <g id="patch_1">
   <path d="M 0 576 
L 864 576 
L 864 0 
L 0 0 
z
" style="fill:#ffffff;"/>
  </g>
  <g id="axes_1">
   <g id="patch_2">
    <path clip-path="url(#pe278b182e0)" d="M 610.206638 185.286881 
Q 575.752786 174.500665 542.365904 164.048478 
" style="fill:none;stroke:#000000;stroke-linecap:round;"/>
    <path clip-path="url(#pe278b182e0)" d="M 545.585684 167.152189 
L 542.365904 164.048478 
L 546.78074 163.334881 
L 545.585684 167.152189 
z
" style="stroke:#000000;stroke-linecap:round;"/>
   </g>
   <g id="patch_3">
    <path clip-path="url(#pe278b182e0)" d="M 610.196072 190.439809 
Q 577.700153 200.519497 546.272077 210.267959 
" style="fill:none;stroke:#000000;stroke-linecap:round;"/>
    <path clip-path="url(#pe278b182e0)" d="M 550.685025 210.993141 
L 546.272077 210.267959 
L 549.499992 207.17271 
L 550.685025 210.993141 
z
" style="stroke:#000000;stroke-linecap:round;"/>
   </g>
   <g id="patch_4">
    <path clip-path="url(#pe278b182e0)" d="M 458.443641 414.671003 
Q 449.030317 394.449702 440.088835 375.241991 
" style="fill:none;stroke:#000000;stroke-linecap:round;"/>
    <path clip-path="url(#pe278b182e0)" d="M 439.963782 379.712378 
L 440.088835 375.241991 
L 443.590113 378.024266 
L 439.963782 379.712378 
z
" style="stroke:#000000;stroke-linecap:round;"/>
   </g>
   <g id="patch_5">
    <path clip-path="url(#pe278b182e0)" d="M 459.933986 414.134629 
Q 453.237988 388.185461 446.821339 363.318866 
" style="fill:none;stroke:#000000;stroke-linecap:round;"/>
    <path clip-path="url(#pe278b182e0)" d="M 445.884208 367.691713 
L 446.821339 363.318866 
L 449.757338 366.692279 
L 445.884208 367.691713 
z
" style="stroke:#000000;stroke-linecap:round;"/>
   </g>
   <g id="patch_6">
    <path clip-path="url(#pe278b182e0)" d="M 527.522341 221.165431 
Q 494.240912 289.57937 461.448573 356.987927 
" style="fill:none;stroke:#000000;stroke-linecap:round;"/>
    <path clip-path="url(#pe278b182e0)" d="M 464.996873 354.265875 
L 461.448573 356.987927 
L 461.399911 352.516056 
L 464.996873 354.265875 
z
" style="stroke:#000000;stroke-linecap:round;"/>
   </g>
   <g id="patch_7">
    <path clip-path="url(#pe278b182e0)" d="M 415.967129 223.15066 
Q 419.441035 212.63361 422.564276 203.178178 
" style="fill:none;stroke:#000000;stroke-linecap:round;"/>
    <path clip-path="url(#pe278b182e0)" d="M 419.410617 206.349051 
L 422.564276 203.178178 
L 423.208779 207.603628 
L 419.410617 206.349051 
z
" style="stroke:#000000;stroke-linecap:round;"/>
   </g>
   <g id="patch_8">
    <path clip-path="url(#pe278b182e0)" d="M 421.721667 229.577279 
Q 515.857961 209.623646 608.900521 189.901845 
" style="fill:none;stroke:#000000;stroke-linecap:round;"/>
    <path clip-path="url(#pe278b182e0)" d="M 604.572744 188.774748 
L 608.900521 189.901845 
L 605.402177 192.687809 
L 604.572744 188.774748 
z
" style="stroke:#000000;stroke-linecap:round;"/>
   </g>
   <g id="patch_9">
    <path clip-path="url(#pe278b182e0)" d="M 404.67957 230.115289 
Q 384.60022 227.169775 365.627065 224.386533 
" style="fill:none;stroke:#000000;stroke-linecap:round;"/>
    <path clip-path="url(#pe278b182e0)" d="M 369.294428 226.945917 
L 365.627065 224.386533 
L 369.87499 222.988273 
L 369.294428 226.945917 
z
" style="stroke:#000000;stroke-linecap:round;"/>
   </g>
   <g id="patch_10">
    <path clip-path="url(#pe278b182e0)" d="M 420.606867 226.80105 
Q 432.029314 219.701742 442.50219 213.192614 
" style="fill:none;stroke:#000000;stroke-linecap:round;"/>
    <path clip-path="url(#pe278b182e0)" d="M 438.049151 213.605462 
L 442.50219 213.192614 
L 440.160644 217.002754 
L 438.049151 213.605462 
z
" style="stroke:#000000;stroke-linecap:round;"/>
   </g>
   <g id="patch_11">
    <path clip-path="url(#pe278b182e0)" d="M 420.106099 226.082775 
Q 437.339928 212.783241 453.68864 200.166762 
" style="fill:none;stroke:#000000;stroke-linecap:round;"/>
    <path clip-path="url(#pe278b182e0)" d="M 449.300056 201.027188 
L 453.68864 200.166762 
L 451.74383 204.193885 
L 449.300056 201.027188 
z
" style="stroke:#000000;stroke-linecap:round;"/>
   </g>
   <g id="patch_12">
    <path clip-path="url(#pe278b182e0)" d="M 406.856058 237.216428 
Q 379.241372 262.449693 352.452041 286.928777 
" style="fill:none;stroke:#000000;stroke-linecap:round;"/>
    <path clip-path="url(#pe278b182e0)" d="M 356.754044 285.706984 
L 352.452041 286.928777 
L 354.055808 282.7541 
L 356.754044 285.706984 
z
" style="stroke:#000000;stroke-linecap:round;"/>
   </g>
   <g id="patch_13">
    <path clip-path="url(#pe278b182e0)" d="M 406.02859 236.146847 
Q 369.568314 260.246769 334.040734 283.730187 
" style="fill:none;stroke:#000000;stroke-linecap:round;"/>
    <path clip-path="url(#pe278b182e0)" d="M 338.480487 283.192973 
L 334.040734 283.730187 
L 336.274814 279.856057 
L 338.480487 283.192973 
z
" style="stroke:#000000;stroke-linecap:round;"/>
   </g>
   <g id="patch_14">
    <path clip-path="url(#pe278b182e0)" d="M 448.598717 367.027246 
Q 348.768479 381.519932 250.044676 395.851992 
" style="fill:none;stroke:#000000;stroke-linecap:round;"/>
    <path clip-path="url(#pe278b182e0)" d="M 254.290514 397.256575 
L 250.044676 395.851992 
L 253.715845 393.298071 
L 254.290514 397.256575 
z
" style="stroke:#000000;stroke-linecap:round;"/>
   </g>
   <g id="patch_15">
    <path clip-path="url(#pe278b182e0)" d="M 427.234576 235.050305 
Q 426.601775 218.797774 426.012473 203.662431 
" style="fill:none;stroke:#000000;stroke-linecap:round;"/>
    <path clip-path="url(#pe278b182e0)" d="M 424.169611 207.737215 
L 426.012473 203.662431 
L 428.166583 207.581591 
L 424.169611 207.737215 
z
" style="stroke:#000000;stroke-linecap:round;"/>
   </g>
   <g id="patch_16">
    <path clip-path="url(#pe278b182e0)" d="M 435.882025 241.276065 
Q 523.020238 215.790193 609.085371 190.618171 
" style="fill:none;stroke:#000000;stroke-linecap:round;"/>
    <path clip-path="url(#pe278b182e0)" d="M 604.684776 189.821454 
L 609.085371 190.618171 
L 605.80764 193.660617 
L 604.684776 189.821454 
z
" style="stroke:#000000;stroke-linecap:round;"/>
   </g>
   <g id="patch_17">
    <path clip-path="url(#pe278b182e0)" d="M 419.253075 241.297794 
Q 391.761958 233.336963 365.344754 225.687114 
" style="fill:none;stroke:#000000;stroke-linecap:round;"/>
    <path clip-path="url(#pe278b182e0)" d="M 368.630602 228.720792 
L 365.344754 225.687114 
L 369.743206 224.878642 
L 368.630602 228.720792 
z
" style="stroke:#000000;stroke-linecap:round;"/>
   </g>
   <g id="patch_18">
    <path clip-path="url(#pe278b182e0)" d="M 432.298235 236.449253 
Q 439.190154 225.867169 445.471914 216.221944 
" style="fill:none;stroke:#000000;stroke-linecap:round;"/>
    <path clip-path="url(#pe278b182e0)" d="M 441.613036 218.482267 
L 445.471914 216.221944 
L 444.964846 220.66524 
L 441.613036 218.482267 
z
" style="stroke:#000000;stroke-linecap:round;"/>
   </g>
   <g id="patch_19">
    <path clip-path="url(#pe278b182e0)" d="M 432.459296 236.55919 
Q 444.50089 218.950229 455.911385 202.264153 
" style="fill:none;stroke:#000000;stroke-linecap:round;"/>
    <path clip-path="url(#pe278b182e0)" d="M 452.002593 204.437018 
L 455.911385 202.264153 
L 455.304403 206.694906 
L 452.002593 204.437018 
z
" style="stroke:#000000;stroke-linecap:round;"/>
   </g>
   <g id="patch_20">
    <path clip-path="url(#pe278b182e0)" d="M 420.161599 248.190011 
Q 386.403589 268.614919 353.602152 288.461063 
" style="fill:none;stroke:#000000;stroke-linecap:round;"/>
    <path clip-path="url(#pe278b182e0)" d="M 358.059816 288.101584 
L 353.602152 288.461063 
L 355.989167 284.679244 
L 358.059816 288.101584 
z
" style="stroke:#000000;stroke-linecap:round;"/>
   </g>
   <g id="patch_21">
    <path clip-path="url(#pe278b182e0)" d="M 419.661538 247.239382 
Q 376.727205 266.414278 334.813724 285.133253 
" style="fill:none;stroke:#000000;stroke-linecap:round;"/>
    <path clip-path="url(#pe278b182e0)" d="M 339.281606 285.32825 
L 334.813724 285.133253 
L 337.650451 281.675945 
L 339.281606 285.32825 
z
" style="stroke:#000000;stroke-linecap:round;"/>
   </g>
   <g id="patch_22">
    <path clip-path="url(#pe278b182e0)" d="M 343.061763 229.331596 
Q 406.981902 172.909704 470.063838 117.227688 
" style="fill:none;stroke:#000000;stroke-linecap:round;"/>
    <path clip-path="url(#pe278b182e0)" d="M 465.741463 118.375326 
L 470.063838 117.227688 
L 468.388524 121.374171 
L 465.741463 118.375326 
z
" style="stroke:#000000;stroke-linecap:round;"/>
   </g>
   <g id="patch_23">
    <path clip-path="url(#pe278b182e0)" d="M 481.423232 118.427309 
Q 504.353703 162.070145 526.764155 204.723244 
" style="fill:none;stroke:#000000;stroke-linecap:round;"/>
    <path clip-path="url(#pe278b182e0)" d="M 526.674171 200.252014 
L 526.764155 204.723244 
L 523.13318 202.112493 
L 526.674171 200.252014 
z
" style="stroke:#000000;stroke-linecap:round;"/>
   </g>
   <g id="patch_24">
    <path clip-path="url(#pe278b182e0)" d="M 463.958719 248.906306 
Q 447.271488 224.952866 431.223346 201.916795 
" style="fill:none;stroke:#000000;stroke-linecap:round;"/>
    <path clip-path="url(#pe278b182e0)" d="M 431.868776 206.342111 
L 431.223346 201.916795 
L 435.150857 204.055641 
L 431.868776 206.342111 
z
" style="stroke:#000000;stroke-linecap:round;"/>
   </g>
   <g id="patch_25">
    <path clip-path="url(#pe278b182e0)" d="M 476.791664 252.425643 
Q 543.689452 221.945252 609.569834 191.928418 
" style="fill:none;stroke:#000000;stroke-linecap:round;"/>
    <path clip-path="url(#pe278b182e0)" d="M 605.100616 191.766899 
L 609.569834 191.928418 
L 606.759088 195.406881 
L 605.100616 191.766899 
z
" style="stroke:#000000;stroke-linecap:round;"/>
   </g>
   <g id="patch_26">
    <path clip-path="url(#pe278b182e0)" d="M 460.627051 258.528462 
Q 407.073939 274.769598 354.590742 290.686259 
" style="fill:none;stroke:#000000;stroke-linecap:round;"/>
    <path clip-path="url(#pe278b182e0)" d="M 358.999021 291.439304 
L 354.590742 290.686259 
L 357.838145 287.611463 
L 358.999021 291.439304 
z
" style="stroke:#000000;stroke-linecap:round;"/>
   </g>
   <g id="patch_27">
    <path clip-path="url(#pe278b182e0)" d="M 460.474512 257.968827 
Q 397.400376 272.567894 335.415478 286.914847 
" style="fill:none;stroke:#000000;stroke-linecap:round;"/>
    <path clip-path="url(#pe278b182e0)" d="M 339.763447 287.961346 
L 335.415478 286.914847 
L 338.861458 284.06437 
L 339.763447 287.961346 
z
" style="stroke:#000000;stroke-linecap:round;"/>
   </g>
   <g id="patch_28">
    <path clip-path="url(#pe278b182e0)" d="M 447.646342 253.868199 
Q 438.131297 227.944737 429.001489 203.070843 
" style="fill:none;stroke:#000000;stroke-linecap:round;"/>
    <path clip-path="url(#pe278b182e0)" d="M 428.502232 207.515024 
L 429.001489 203.070843 
L 432.25728 206.136757 
L 428.502232 207.515024 
z
" style="stroke:#000000;stroke-linecap:round;"/>
   </g>
   <g id="patch_29">
    <path clip-path="url(#pe278b182e0)" d="M 458.550377 258.496427 
Q 534.548209 224.934529 609.523297 191.824291 
" style="fill:none;stroke:#000000;stroke-linecap:round;"/>
    <path clip-path="url(#pe278b182e0)" d="M 605.056267 191.610661 
L 609.523297 191.824291 
L 606.672175 195.269738 
L 605.056267 191.610661 
z
" style="stroke:#000000;stroke-linecap:round;"/>
   </g>
   <g id="patch_30">
    <path clip-path="url(#pe278b182e0)" d="M 442.334043 264.476089 
Q 397.931446 277.759273 354.59998 290.722025 
" style="fill:none;stroke:#000000;stroke-linecap:round;"/>
    <path clip-path="url(#pe278b182e0)" d="M 359.005385 291.491709 
L 354.59998 290.722025 
L 357.85897 287.659512 
L 359.005385 291.491709 
z
" style="stroke:#000000;stroke-linecap:round;"/>
   </g>
   <g id="patch_31">
    <path clip-path="url(#pe278b182e0)" d="M 442.166423 263.834843 
Q 388.257768 275.557518 335.441616 287.042623 
" style="fill:none;stroke:#000000;stroke-linecap:round;"/>
    <path clip-path="url(#pe278b182e0)" d="M 339.775247 288.146996 
L 335.441616 287.042623 
L 338.925293 284.238342 
L 339.775247 288.146996 
z
" style="stroke:#000000;stroke-linecap:round;"/>
   </g>
   <g id="patch_32">
    <path clip-path="url(#pe278b182e0)" d="M 463.771193 185.855928 
Q 465.035027 181.352567 465.996765 177.925653 
" style="fill:none;stroke:#000000;stroke-linecap:round;"/>
    <path clip-path="url(#pe278b182e0)" d="M 462.990345 181.236459 
L 465.996765 177.925653 
L 466.841558 182.317273 
L 462.990345 181.236459 
z
" style="stroke:#000000;stroke-linecap:round;"/>
   </g>
   <g id="patch_33">
    <path clip-path="url(#pe278b182e0)" d="M 470.079494 194.587096 
Q 583.516667 199.781148 695.836976 204.924062 
" style="fill:none;stroke:#000000;stroke-linecap:round;"/>
    <path clip-path="url(#pe278b182e0)" d="M 691.932643 202.743195 
L 695.836976 204.924062 
L 691.749683 206.739009 
L 691.932643 202.743195 
z
" style="stroke:#000000;stroke-linecap:round;"/>
   </g>
   <g id="patch_34">
    <path clip-path="url(#pe278b182e0)" d="M 452.810871 194.996474 
Q 319.832618 207.418477 187.967553 219.736493 
" style="fill:none;stroke:#000000;stroke-linecap:round;"/>
    <path clip-path="url(#pe278b182e0)" d="M 192.136232 221.355788 
L 187.967553 219.736493 
L 191.764197 217.373127 
L 192.136232 221.355788 
z
" style="stroke:#000000;stroke-linecap:round;"/>
   </g>
   <g id="patch_35">
    <path clip-path="url(#pe278b182e0)" d="M 460.842762 172.278967 
Q 412.294895 195.739825 364.753681 218.714216 
" style="fill:none;stroke:#000000;stroke-linecap:round;"/>
    <path clip-path="url(#pe278b182e0)" d="M 369.22541 218.774534 
L 364.753681 218.714216 
L 367.484973 215.173023 
L 369.22541 218.774534 
z
" style="stroke:#000000;stroke-linecap:round;"/>
   </g>
   <g id="patch_36">
    <path clip-path="url(#pe278b182e0)" d="M 465.076394 176.406354 
Q 459.722465 188.271565 454.82838 199.117685 
" style="fill:none;stroke:#000000;stroke-linecap:round;"/>
    <path clip-path="url(#pe278b182e0)" d="M 458.296568 196.294271 
L 454.82838 199.117685 
L 454.650561 194.649086 
L 458.296568 196.294271 
z
" style="stroke:#000000;stroke-linecap:round;"/>
   </g>
   <g id="patch_37">
    <path clip-path="url(#pe278b182e0)" d="M 466.299552 176.846747 
Q 465.035718 181.350108 464.07398 184.777022 
" style="fill:none;stroke:#000000;stroke-linecap:round;"/>
    <path clip-path="url(#pe278b182e0)" d="M 467.0804 181.466216 
L 464.07398 184.777022 
L 463.229187 180.385402 
L 467.0804 181.466216 
z
" style="stroke:#000000;stroke-linecap:round;"/>
   </g>
   <g id="patch_38">
    <path clip-path="url(#pe278b182e0)" d="M 364.506455 221.620443 
Q 403.377957 215.499643 441.145032 209.552748 
" style="fill:none;stroke:#000000;stroke-linecap:round;"/>
    <path clip-path="url(#pe278b182e0)" d="M 436.882626 208.199274 
L 441.145032 209.552748 
L 437.504809 212.150589 
L 436.882626 208.199274 
z
" style="stroke:#000000;stroke-linecap:round;"/>
   </g>
   <g id="patch_39">
    <path clip-path="url(#pe278b182e0)" d="M 364.305849 220.688474 
Q 408.691079 208.579579 451.997694 196.764945 
" style="fill:none;stroke:#000000;stroke-linecap:round;"/>
    <path clip-path="url(#pe278b182e0)" d="M 447.612333 195.888239 
L 451.997694 196.764945 
L 448.665113 199.74721 
L 447.612333 195.888239 
z
" style="stroke:#000000;stroke-linecap:round;"/>
   </g>
   <g id="patch_40">
    <path clip-path="url(#pe278b182e0)" d="M 363.943796 219.632705 
Q 390.791196 208.429537 416.606794 197.656931 
" style="fill:none;stroke:#000000;stroke-linecap:round;"/>
    <path clip-path="url(#pe278b182e0)" d="M 412.145092 197.35161 
L 416.606794 197.656931 
L 413.685516 201.043099 
L 412.145092 197.35161 
z
" style="stroke:#000000;stroke-linecap:round;"/>
   </g>
   <g id="patch_41">
    <path clip-path="url(#pe278b182e0)" d="M 354.651473 231.532813 
Q 350.593444 258.247071 346.703324 283.855975 
" style="fill:none;stroke:#000000;stroke-linecap:round;"/>
    <path clip-path="url(#pe278b182e0)" d="M 349.281369 280.201706 
L 346.703324 283.855975 
L 345.326736 279.600978 
L 349.281369 280.201706 
z
" style="stroke:#000000;stroke-linecap:round;"/>
   </g>
   <g id="patch_42">
    <path clip-path="url(#pe278b182e0)" d="M 352.368583 230.852929 
Q 340.918901 256.044522 329.931829 280.218279 
" style="fill:none;stroke:#000000;stroke-linecap:round;"/>
    <path clip-path="url(#pe278b182e0)" d="M 333.407678 277.404299 
L 329.931829 280.218279 
L 329.766155 275.749212 
L 333.407678 277.404299 
z
" style="stroke:#000000;stroke-linecap:round;"/>
   </g>
   <g id="patch_43">
    <path clip-path="url(#pe278b182e0)" d="M 434.285793 193.620765 
Q 522.050894 190.88219 608.698504 188.178484 
" style="fill:none;stroke:#000000;stroke-linecap:round;"/>
    <path clip-path="url(#pe278b182e0)" d="M 604.638074 186.30421 
L 608.698504 188.178484 
L 604.762827 190.302264 
L 604.638074 186.30421 
z
" style="stroke:#000000;stroke-linecap:round;"/>
   </g>
   <g id="patch_44">
    <path clip-path="url(#pe278b182e0)" d="M 417.640823 197.22544 
Q 390.793423 208.428608 364.977825 219.201214 
" style="fill:none;stroke:#000000;stroke-linecap:round;"/>
    <path clip-path="url(#pe278b182e0)" d="M 369.439527 219.506535 
L 364.977825 219.201214 
L 367.899103 215.815046 
L 369.439527 219.506535 
z
" style="stroke:#000000;stroke-linecap:round;"/>
   </g>
   <g id="patch_45">
    <path clip-path="url(#pe278b182e0)" d="M 432.700815 188.890415 
Q 486.617476 150.750493 539.621387 113.256239 
" style="fill:none;stroke:#000000;stroke-linecap:round;"/>
    <path clip-path="url(#pe278b182e0)" d="M 535.200826 113.933471 
L 539.621387 113.256239 
L 537.510836 117.199027 
L 535.200826 113.933471 
z
" style="stroke:#000000;stroke-linecap:round;"/>
   </g>
   <g id="patch_46">
    <path clip-path="url(#pe278b182e0)" d="M 420.192534 200.631701 
Q 385.432373 243.708478 351.374316 285.915168 
" style="fill:none;stroke:#000000;stroke-linecap:round;"/>
    <path clip-path="url(#pe278b182e0)" d="M 355.442695 284.058212 
L 351.374316 285.915168 
L 352.329779 281.54629 
L 355.442695 284.058212 
z
" style="stroke:#000000;stroke-linecap:round;"/>
   </g>
   <g id="patch_47">
    <path clip-path="url(#pe278b182e0)" d="M 419.370468 199.868812 
Q 375.759167 241.505393 332.956532 282.369925 
" style="fill:none;stroke:#000000;stroke-linecap:round;"/>
    <path clip-path="url(#pe278b182e0)" d="M 337.230786 281.054342 
L 332.956532 282.369925 
L 334.468618 278.161172 
L 337.230786 281.054342 
z
" style="stroke:#000000;stroke-linecap:round;"/>
   </g>
   <g id="patch_48">
    <path clip-path="url(#pe278b182e0)" d="M 458.704243 211.589304 
Q 475.194675 219.017762 490.665728 225.987021 
" style="fill:none;stroke:#000000;stroke-linecap:round;"/>
    <path clip-path="url(#pe278b182e0)" d="M 487.840128 222.520612 
L 490.665728 225.987021 
L 486.197241 226.167656 
L 487.840128 222.520612 
z
" style="stroke:#000000;stroke-linecap:round;"/>
   </g>
   <g id="patch_49">
    <path clip-path="url(#pe278b182e0)" d="M 455.996343 214.966861 
Q 470.68475 234.594481 484.70328 253.326967 
" style="fill:none;stroke:#000000;stroke-linecap:round;"/>
    <path clip-path="url(#pe278b182e0)" d="M 483.907919 248.926126 
L 484.70328 253.326967 
L 480.70539 251.322751 
L 483.907919 248.926126 
z
" style="stroke:#000000;stroke-linecap:round;"/>
   </g>
   <g id="patch_50">
    <path clip-path="url(#pe278b182e0)" d="M 459.46459 207.941077 
Q 578.205829 206.701371 695.829094 205.473337 
" style="fill:none;stroke:#000000;stroke-linecap:round;"/>
    <path clip-path="url(#pe278b182e0)" d="M 691.808433 203.515206 
L 695.829094 205.473337 
L 691.850192 207.514988 
L 691.808433 203.515206 
z
" style="stroke:#000000;stroke-linecap:round;"/>
   </g>
   <g id="patch_51">
    <path clip-path="url(#pe278b182e0)" d="M 442.159199 208.431656 
Q 314.520684 214.338733 187.999007 220.194123 
" style="fill:none;stroke:#000000;stroke-linecap:round;"/>
    <path clip-path="url(#pe278b182e0)" d="M 192.087191 222.007064 
L 187.999007 220.194123 
L 191.90227 218.011341 
L 192.087191 222.007064 
z
" style="stroke:#000000;stroke-linecap:round;"/>
   </g>
   <g id="patch_52">
    <path clip-path="url(#pe278b182e0)" d="M 449.616924 287.268168 
Q 530.311061 239.767739 610.041701 192.834472 
" style="fill:none;stroke:#000000;stroke-linecap:round;"/>
    <path clip-path="url(#pe278b182e0)" d="M 605.580017 193.140051 
L 610.041701 192.834472 
L 607.609154 196.587166 
L 605.580017 193.140051 
z
" style="stroke:#000000;stroke-linecap:round;"/>
   </g>
   <g id="patch_53">
    <path clip-path="url(#pe278b182e0)" d="M 440.708766 283.126371 
Q 433.891604 242.777282 427.260699 203.530604 
" style="fill:none;stroke:#000000;stroke-linecap:round;"/>
    <path clip-path="url(#pe278b182e0)" d="M 425.955022 207.807893 
L 427.260699 203.530604 
L 429.899124 207.141519 
L 425.955022 207.807893 
z
" style="stroke:#000000;stroke-linecap:round;"/>
   </g>
   <g id="patch_54">
    <path clip-path="url(#pe278b182e0)" d="M 435.377345 286.264645 
Q 399.052309 257.315522 363.60161 229.063199 
" style="fill:none;stroke:#000000;stroke-linecap:round;"/>
    <path clip-path="url(#pe278b182e0)" d="M 365.483263 233.120216 
L 363.60161 229.063199 
L 367.976215 229.992087 
L 365.483263 233.120216 
z
" style="stroke:#000000;stroke-linecap:round;"/>
   </g>
   <g id="patch_55">
    <path clip-path="url(#pe278b182e0)" d="M 443.042512 283.049159 
Q 446.478701 249.846599 449.799797 217.756133 
" style="fill:none;stroke:#000000;stroke-linecap:round;"/>
    <path clip-path="url(#pe278b182e0)" d="M 447.398655 221.528999 
L 449.799797 217.756133 
L 451.377404 221.940767 
L 447.398655 221.528999 
z
" style="stroke:#000000;stroke-linecap:round;"/>
   </g>
   <g id="patch_56">
    <path clip-path="url(#pe278b182e0)" d="M 443.832136 283.164493 
Q 451.791757 242.925829 459.534423 203.783947 
" style="fill:none;stroke:#000000;stroke-linecap:round;"/>
    <path clip-path="url(#pe278b182e0)" d="M 456.796239 207.319813 
L 459.534423 203.783947 
L 460.720205 208.096013 
L 456.796239 207.319813 
z
" style="stroke:#000000;stroke-linecap:round;"/>
   </g>
   <g id="patch_57">
    <path clip-path="url(#pe278b182e0)" d="M 450.77148 292.451891 
Q 580.821294 304.354299 709.757728 316.154808 
" style="fill:none;stroke:#000000;stroke-linecap:round;"/>
    <path clip-path="url(#pe278b182e0)" d="M 705.956658 313.798568 
L 709.757728 316.154808 
L 705.592094 317.78192 
L 705.956658 313.798568 
z
" style="stroke:#000000;stroke-linecap:round;"/>
   </g>
   <g id="patch_58">
    <path clip-path="url(#pe278b182e0)" d="M 433.495158 291.924292 
Q 304.127352 295.830453 175.87707 299.702871 
" style="fill:none;stroke:#000000;stroke-linecap:round;"/>
    <path clip-path="url(#pe278b182e0)" d="M 179.935609 301.581238 
L 175.87707 299.702871 
L 179.814887 297.58306 
L 179.935609 301.581238 
z
" style="stroke:#000000;stroke-linecap:round;"/>
   </g>
   <g id="patch_59">
    <path clip-path="url(#pe278b182e0)" d="M 442.857732 300.292326 
Q 449.623223 382.907586 456.297462 464.408542 
" style="fill:none;stroke:#000000;stroke-linecap:round;"/>
    <path clip-path="url(#pe278b182e0)" d="M 457.964316 460.258651 
L 456.297462 464.408542 
L 453.977661 460.585124 
L 457.964316 460.258651 
z
" style="stroke:#000000;stroke-linecap:round;"/>
   </g>
   <g id="patch_60">
    <path clip-path="url(#pe278b182e0)" d="M 433.494013 291.829143 
Q 393.694118 292.593276 355.012052 293.335946 
" style="fill:none;stroke:#000000;stroke-linecap:round;"/>
    <path clip-path="url(#pe278b182e0)" d="M 359.049706 295.258794 
L 355.012052 293.335946 
L 358.972923 291.259531 
L 359.049706 295.258794 
z
" style="stroke:#000000;stroke-linecap:round;"/>
   </g>
   <g id="patch_61">
    <path clip-path="url(#pe278b182e0)" d="M 433.490054 291.473547 
Q 384.017593 290.391751 335.6629 289.334396 
" style="fill:none;stroke:#000000;stroke-linecap:round;"/>
    <path clip-path="url(#pe278b182e0)" d="M 339.618221 291.421364 
L 335.6629 289.334396 
L 339.705666 287.42232 
L 339.618221 291.421364 
z
" style="stroke:#000000;stroke-linecap:round;"/>
   </g>
   <g id="patch_62">
    <path clip-path="url(#pe278b182e0)" d="M 460.356753 288.237969 
Q 535.756707 240.376681 610.212736 193.114564 
" style="fill:none;stroke:#000000;stroke-linecap:round;"/>
    <path clip-path="url(#pe278b182e0)" d="M 605.763818 193.569679 
L 610.212736 193.114564 
L 607.907477 196.946767 
L 605.763818 193.569679 
z
" style="stroke:#000000;stroke-linecap:round;"/>
   </g>
   <g id="patch_63">
    <path clip-path="url(#pe278b182e0)" d="M 450.732788 284.532981 
Q 439.337932 243.38467 428.241455 203.313842 
" style="fill:none;stroke:#000000;stroke-linecap:round;"/>
    <path clip-path="url(#pe278b182e0)" d="M 427.381505 207.702519 
L 428.241455 203.313842 
L 431.236427 206.635008 
L 427.381505 207.702519 
z
" style="stroke:#000000;stroke-linecap:round;"/>
   </g>
   <g id="patch_64">
    <path clip-path="url(#pe278b182e0)" d="M 446.018912 287.821072 
Q 404.499853 257.924592 363.888088 228.681424 
" style="fill:none;stroke:#000000;stroke-linecap:round;"/>
    <path clip-path="url(#pe278b182e0)" d="M 365.965443 232.641802 
L 363.888088 228.681424 
L 368.302804 229.395767 
L 365.965443 232.641802 
z
" style="stroke:#000000;stroke-linecap:round;"/>
   </g>
   <g id="patch_65">
    <path clip-path="url(#pe278b182e0)" d="M 452.815867 284.223493 
Q 451.925177 250.454673 451.063966 217.803498 
" style="fill:none;stroke:#000000;stroke-linecap:round;"/>
    <path clip-path="url(#pe278b182e0)" d="M 449.17013 221.854842 
L 451.063966 217.803498 
L 453.168739 221.749374 
L 449.17013 221.854842 
z
" style="stroke:#000000;stroke-linecap:round;"/>
   </g>
   <g id="patch_66">
    <path clip-path="url(#pe278b182e0)" d="M 453.777554 284.251109 
Q 457.238139 243.534759 460.604041 203.932427 
" style="fill:none;stroke:#000000;stroke-linecap:round;"/>
    <path clip-path="url(#pe278b182e0)" d="M 458.272477 207.748683 
L 460.604041 203.932427 
L 462.258108 208.087432 
L 458.272477 207.748683 
z
" style="stroke:#000000;stroke-linecap:round;"/>
   </g>
   <g id="patch_67">
    <path clip-path="url(#pe278b182e0)" d="M 461.667545 293.661847 
Q 586.267114 304.962633 709.75322 316.162432 
" style="fill:none;stroke:#000000;stroke-linecap:round;"/>
    <path clip-path="url(#pe278b182e0)" d="M 705.950223 313.809303 
L 709.75322 316.162432 
L 705.588919 317.792952 
L 705.950223 313.809303 
z
" style="stroke:#000000;stroke-linecap:round;"/>
   </g>
   <g id="patch_68">
    <path clip-path="url(#pe278b182e0)" d="M 444.388221 293.094466 
Q 309.576058 296.438794 175.881585 299.755396 
" style="fill:none;stroke:#000000;stroke-linecap:round;"/>
    <path clip-path="url(#pe278b182e0)" d="M 179.929954 301.655582 
L 175.881585 299.755396 
L 179.830755 297.656812 
L 179.929954 301.655582 
z
" style="stroke:#000000;stroke-linecap:round;"/>
   </g>
   <g id="patch_69">
    <path clip-path="url(#pe278b182e0)" d="M 453.237734 301.540101 
Q 455.069838 383.517666 456.876962 464.377476 
" style="fill:none;stroke:#000000;stroke-linecap:round;"/>
    <path clip-path="url(#pe278b182e0)" d="M 458.78709 460.333788 
L 456.876962 464.377476 
L 454.788089 460.423161 
L 458.78709 460.333788 
z
" style="stroke:#000000;stroke-linecap:round;"/>
   </g>
   <g id="patch_70">
    <path clip-path="url(#pe278b182e0)" d="M 444.381397 292.931477 
Q 399.139387 293.2017 355.015391 293.465246 
" style="fill:none;stroke:#000000;stroke-linecap:round;"/>
    <path clip-path="url(#pe278b182e0)" d="M 359.027265 295.441319 
L 355.015391 293.465246 
L 359.003374 291.44139 
L 359.027265 295.441319 
z
" style="stroke:#000000;stroke-linecap:round;"/>
   </g>
   <g id="patch_71">
    <path clip-path="url(#pe278b182e0)" d="M 444.386634 292.623796 
Q 389.463138 291.000115 335.657187 289.409472 
" style="fill:none;stroke:#000000;stroke-linecap:round;"/>
    <path clip-path="url(#pe278b182e0)" d="M 339.596341 291.526798 
L 335.657187 289.409472 
L 339.71454 287.528545 
L 339.596341 291.526798 
z
" style="stroke:#000000;stroke-linecap:round;"/>
   </g>
   <g id="patch_72">
    <path clip-path="url(#pe278b182e0)" d="M 444.498951 364.894009 
Q 577.731253 341.71211 709.86207 318.721865 
" style="fill:none;stroke:#000000;stroke-linecap:round;"/>
    <path clip-path="url(#pe278b182e0)" d="M 705.578437 317.437152 
L 709.86207 318.721865 
L 706.264119 321.377943 
L 705.578437 317.437152 
z
" style="stroke:#000000;stroke-linecap:round;"/>
   </g>
   <g id="patch_73">
    <path clip-path="url(#pe278b182e0)" d="M 427.550627 364.309866 
Q 301.034956 333.188691 175.604955 302.334577 
" style="fill:none;stroke:#000000;stroke-linecap:round;"/>
    <path clip-path="url(#pe278b182e0)" d="M 179.011433 305.232146 
L 175.604955 302.334577 
L 179.966898 301.347936 
L 179.011433 305.232146 
z
" style="stroke:#000000;stroke-linecap:round;"/>
   </g>
   <g id="patch_74">
    <path clip-path="url(#pe278b182e0)" d="M 437.628877 374.874669 
Q 446.528966 420.264508 455.213927 464.557205 
" style="fill:none;stroke:#000000;stroke-linecap:round;"/>
    <path clip-path="url(#pe278b182e0)" d="M 456.406886 460.247118 
L 455.213927 464.557205 
L 452.481633 461.016786 
L 456.406886 460.247118 
z
" style="stroke:#000000;stroke-linecap:round;"/>
   </g>
   <g id="patch_75">
    <path clip-path="url(#pe278b182e0)" d="M 452.962974 352.702406 
Q 581.935935 335.448429 709.800735 318.342701 
" style="fill:none;stroke:#000000;stroke-linecap:round;"/>
    <path clip-path="url(#pe278b182e0)" d="M 705.570858 316.890756 
L 709.800735 318.342701 
L 706.101252 320.855435 
L 705.570858 316.890756 
z
" style="stroke:#000000;stroke-linecap:round;"/>
   </g>
   <g id="patch_76">
    <path clip-path="url(#pe278b182e0)" d="M 435.873254 352.204949 
Q 305.239625 326.923934 175.703664 301.855347 
" style="fill:none;stroke:#000000;stroke-linecap:round;"/>
    <path clip-path="url(#pe278b182e0)" d="M 179.250798 304.578918 
L 175.703664 301.855347 
L 180.010801 300.651782 
L 179.250798 304.578918 
z
" style="stroke:#000000;stroke-linecap:round;"/>
   </g>
   <g id="patch_77">
    <path clip-path="url(#pe278b182e0)" d="M 445.288285 362.460125 
Q 450.736585 413.999675 456.067352 464.427387 
" style="fill:none;stroke:#000000;stroke-linecap:round;"/>
    <path clip-path="url(#pe278b182e0)" d="M 457.635769 460.239301 
L 456.067352 464.427387 
L 453.657933 460.659802 
L 457.635769 460.239301 
z
" style="stroke:#000000;stroke-linecap:round;"/>
   </g>
   <g id="patch_78">
    <path clip-path="url(#pe278b182e0)" d="M 443.813972 231.93269 
Q 436.590126 216.818327 429.848404 202.712704 
" style="fill:none;stroke:#000000;stroke-linecap:round;"/>
    <path clip-path="url(#pe278b182e0)" d="M 429.768811 207.184131 
L 429.848404 202.712704 
L 433.37779 205.459235 
L 429.768811 207.184131 
z
" style="stroke:#000000;stroke-linecap:round;"/>
   </g>
   <g id="patch_79">
    <path clip-path="url(#pe278b182e0)" d="M 455.833025 237.229175 
Q 533.008062 213.8087 609.113244 190.712895 
" style="fill:none;stroke:#000000;stroke-linecap:round;"/>
    <path clip-path="url(#pe278b182e0)" d="M 604.704826 189.96066 
L 609.113244 190.712895 
L 605.866405 193.788288 
L 604.704826 189.96066 
z
" style="stroke:#000000;stroke-linecap:round;"/>
   </g>
   <g id="patch_80">
    <path clip-path="url(#pe278b182e0)" d="M 439.030094 238.183708 
Q 401.749428 231.355433 365.568501 224.728585 
" style="fill:none;stroke:#000000;stroke-linecap:round;"/>
    <path clip-path="url(#pe278b182e0)" d="M 369.142726 227.416506 
L 365.568501 224.728585 
L 369.863373 223.481958 
L 369.142726 227.416506 
z
" style="stroke:#000000;stroke-linecap:round;"/>
   </g>
   <g id="patch_81">
    <path clip-path="url(#pe278b182e0)" d="M 448.432375 231.130448 
Q 449.176665 223.888051 449.806657 217.757831 
" style="fill:none;stroke:#000000;stroke-linecap:round;"/>
    <path clip-path="url(#pe278b182e0)" d="M 447.408216 221.532414 
L 449.806657 217.757831 
L 451.387259 221.941334 
L 447.408216 221.532414 
z
" style="stroke:#000000;stroke-linecap:round;"/>
   </g>
   <g id="patch_82">
    <path clip-path="url(#pe278b182e0)" d="M 450.071788 231.461157 
Q 454.489254 216.968527 458.580742 203.545353 
" style="fill:none;stroke:#000000;stroke-linecap:round;"/>
    <path clip-path="url(#pe278b182e0)" d="M 455.501382 206.78843 
L 458.580742 203.545353 
L 459.327587 207.954687 
L 455.501382 206.78843 
z
" style="stroke:#000000;stroke-linecap:round;"/>
   </g>
   <g id="patch_83">
    <path clip-path="url(#pe278b182e0)" d="M 439.881891 243.772921 
Q 396.389787 266.634305 353.887325 288.975488 
" style="fill:none;stroke:#000000;stroke-linecap:round;"/>
    <path clip-path="url(#pe278b182e0)" d="M 358.358539 288.88469 
L 353.887325 288.975488 
L 356.497415 285.344038 
L 358.358539 288.88469 
z
" style="stroke:#000000;stroke-linecap:round;"/>
   </g>
   <g id="patch_84">
    <path clip-path="url(#pe278b182e0)" d="M 439.523814 243.000023 
Q 386.715447 264.432552 334.943043 285.44463 
" style="fill:none;stroke:#000000;stroke-linecap:round;"/>
    <path clip-path="url(#pe278b182e0)" d="M 339.401546 285.793568 
L 334.943043 285.44463 
L 337.897295 282.087191 
L 339.401546 285.793568 
z
" style="stroke:#000000;stroke-linecap:round;"/>
   </g>
   <g id="patch_85">
    <path clip-path="url(#pe278b182e0)" d="M 430.903714 219.584971 
Q 429.138221 210.979993 427.597435 203.470236 
" style="fill:none;stroke:#000000;stroke-linecap:round;"/>
    <path clip-path="url(#pe278b182e0)" d="M 426.442184 207.790582 
L 427.597435 203.470236 
L 430.360562 206.986644 
L 426.442184 207.790582 
z
" style="stroke:#000000;stroke-linecap:round;"/>
   </g>
   <g id="patch_86">
    <path clip-path="url(#pe278b182e0)" d="M 441.107712 226.235586 
Q 525.557155 207.969801 608.913832 189.940372 
" style="fill:none;stroke:#000000;stroke-linecap:round;"/>
    <path clip-path="url(#pe278b182e0)" d="M 604.581429 188.831191 
L 608.913832 189.940372 
L 605.427045 192.740786 
L 604.581429 188.831191 
z
" style="stroke:#000000;stroke-linecap:round;"/>
   </g>
   <g id="patch_87">
    <path clip-path="url(#pe278b182e0)" d="M 423.998281 227.491451 
Q 394.296827 225.516714 365.710944 223.616147 
" style="fill:none;stroke:#000000;stroke-linecap:round;"/>
    <path clip-path="url(#pe278b182e0)" d="M 369.569453 225.8771 
L 365.710944 223.616147 
L 369.834812 221.885912 
L 369.569453 225.8771 
z
" style="stroke:#000000;stroke-linecap:round;"/>
   </g>
   <g id="patch_88">
    <path clip-path="url(#pe278b182e0)" d="M 438.459253 221.651314 
Q 441.725351 218.048507 444.240534 215.274028 
" style="fill:none;stroke:#000000;stroke-linecap:round;"/>
    <path clip-path="url(#pe278b182e0)" d="M 440.072223 216.894268 
L 444.240534 215.274028 
L 443.035739 219.580821 
L 440.072223 216.894268 
z
" style="stroke:#000000;stroke-linecap:round;"/>
   </g>
   <g id="patch_89">
    <path clip-path="url(#pe278b182e0)" d="M 438.250702 221.468635 
Q 447.038477 211.128029 455.102242 201.639367 
" style="fill:none;stroke:#000000;stroke-linecap:round;"/>
    <path clip-path="url(#pe278b182e0)" d="M 450.987941 203.392229 
L 455.102242 201.639367 
L 454.035951 205.982525 
L 450.987941 203.392229 
z
" style="stroke:#000000;stroke-linecap:round;"/>
   </g>
   <g id="patch_90">
    <path clip-path="url(#pe278b182e0)" d="M 425.710963 233.258027 
Q 388.939416 260.794869 353.062785 287.661543 
" style="fill:none;stroke:#000000;stroke-linecap:round;"/>
    <path clip-path="url(#pe278b182e0)" d="M 357.463366 286.864747 
L 353.062785 287.661543 
L 355.065697 283.663 
L 357.463366 286.864747 
z
" style="stroke:#000000;stroke-linecap:round;"/>
   </g>
   <g id="patch_91">
    <path clip-path="url(#pe278b182e0)" d="M 425.127625 232.364734 
Q 379.266692 258.592326 334.37629 284.264877 
" style="fill:none;stroke:#000000;stroke-linecap:round;"/>
    <path clip-path="url(#pe278b182e0)" d="M 338.841453 284.015241 
L 334.37629 284.264877 
L 336.855679 280.542965 
L 338.841453 284.015241 
z
" style="stroke:#000000;stroke-linecap:round;"/>
   </g>
   <g id="patch_92">
    <path clip-path="url(#pe278b182e0)" d="M 415.784139 209.37346 
Q 418.384352 205.285446 420.384525 202.140806 
" style="fill:none;stroke:#000000;stroke-linecap:round;"/>
    <path clip-path="url(#pe278b182e0)" d="M 416.550201 204.442536 
L 420.384525 202.140806 
L 419.925314 206.589303 
L 416.550201 204.442536 
z
" style="stroke:#000000;stroke-linecap:round;"/>
   </g>
   <g id="patch_93">
    <path clip-path="url(#pe278b182e0)" d="M 419.712071 215.490458 
Q 514.800782 202.2781 608.782098 189.219612 
" style="fill:none;stroke:#000000;stroke-linecap:round;"/>
    <path clip-path="url(#pe278b182e0)" d="M 604.54491 187.789146 
L 608.782098 189.219612 
L 605.095412 191.751083 
L 604.54491 187.789146 
z
" style="stroke:#000000;stroke-linecap:round;"/>
   </g>
   <g id="patch_94">
    <path clip-path="url(#pe278b182e0)" d="M 402.529911 217.662311 
Q 383.543918 219.824769 365.668777 221.860704 
" style="fill:none;stroke:#000000;stroke-linecap:round;"/>
    <path clip-path="url(#pe278b182e0)" d="M 369.869413 223.395193 
L 365.668777 221.860704 
L 369.41675 219.420888 
L 369.869413 223.395193 
z
" style="stroke:#000000;stroke-linecap:round;"/>
   </g>
   <g id="patch_95">
    <path clip-path="url(#pe278b182e0)" d="M 419.595456 214.837349 
Q 430.969935 212.35701 441.25205 210.114873 
" style="fill:none;stroke:#000000;stroke-linecap:round;"/>
    <path clip-path="url(#pe278b182e0)" d="M 436.917779 209.013014 
L 441.25205 210.114873 
L 437.769999 212.921174 
L 436.917779 209.013014 
z
" style="stroke:#000000;stroke-linecap:round;"/>
   </g>
   <g id="patch_96">
    <path clip-path="url(#pe278b182e0)" d="M 419.040269 213.147355 
Q 436.283894 205.43656 452.50688 198.182161 
" style="fill:none;stroke:#000000;stroke-linecap:round;"/>
    <path clip-path="url(#pe278b182e0)" d="M 448.038907 197.989242 
L 452.50688 198.182161 
L 449.671761 201.640788 
L 448.038907 197.989242 
z
" style="stroke:#000000;stroke-linecap:round;"/>
   </g>
   <g id="patch_97">
    <path clip-path="url(#pe278b182e0)" d="M 405.498188 223.25525 
Q 378.184882 255.103131 351.599416 286.102335 
" style="fill:none;stroke:#000000;stroke-linecap:round;"/>
    <path clip-path="url(#pe278b182e0)" d="M 355.721569 284.36802 
L 351.599416 286.102335 
L 352.685255 281.764023 
L 355.721569 284.36802 
z
" style="stroke:#000000;stroke-linecap:round;"/>
   </g>
   <g id="patch_98">
    <path clip-path="url(#pe278b182e0)" d="M 404.535083 222.290577 
Q 368.509445 252.90231 333.335798 282.790088 
" style="fill:none;stroke:#000000;stroke-linecap:round;"/>
    <path clip-path="url(#pe278b182e0)" d="M 337.679025 281.724077 
L 333.335798 282.790088 
L 335.088926 278.675899 
L 337.679025 281.724077 
z
" style="stroke:#000000;stroke-linecap:round;"/>
   </g>
   <g id="patch_99">
    <path clip-path="url(#pe278b182e0)" d="M 528.185265 168.299357 
Q 500.973286 208.56928 474.387288 247.91284 
" style="fill:none;stroke:#000000;stroke-linecap:round;"/>
    <path clip-path="url(#pe278b182e0)" d="M 478.283992 245.71837 
L 474.387288 247.91284 
L 474.969734 243.478795 
L 478.283992 245.71837 
z
" style="stroke:#000000;stroke-linecap:round;"/>
   </g>
   <g id="patch_100">
    <path clip-path="url(#pe278b182e0)" d="M 541.419134 163.27673 
Q 619.316585 183.248454 696.13103 202.942513 
" style="fill:none;stroke:#000000;stroke-linecap:round;"/>
    <path clip-path="url(#pe278b182e0)" d="M 692.753056 200.011764 
L 696.13103 202.942513 
L 691.759647 203.886443 
L 692.753056 200.011764 
z
" style="stroke:#000000;stroke-linecap:round;"/>
   </g>
   <g id="patch_101">
    <path clip-path="url(#pe278b182e0)" d="M 524.629649 159.023483 
Q 438.31578 137.421118 353.086492 116.090198 
" style="fill:none;stroke:#000000;stroke-linecap:round;"/>
    <path clip-path="url(#pe278b182e0)" d="M 356.481233 119.00151 
L 353.086492 116.090198 
L 357.452386 115.121193 
L 356.481233 119.00151 
z
" style="stroke:#000000;stroke-linecap:round;"/>
   </g>
   <g id="patch_102">
    <path clip-path="url(#pe278b182e0)" d="M 529.608486 217.780016 
Q 502.922121 234.591093 477.181736 250.806249 
" style="fill:none;stroke:#000000;stroke-linecap:round;"/>
    <path clip-path="url(#pe278b182e0)" d="M 481.632193 250.366441 
L 477.181736 250.806249 
L 479.500163 246.981999 
L 481.632193 250.366441 
z
" style="stroke:#000000;stroke-linecap:round;"/>
   </g>
   <g id="patch_103">
    <path clip-path="url(#pe278b182e0)" d="M 545.586691 212.764033 
Q 621.271227 209.267434 695.83892 205.822433 
" style="fill:none;stroke:#000000;stroke-linecap:round;"/>
    <path clip-path="url(#pe278b182e0)" d="M 691.750881 204.009165 
L 695.83892 205.822433 
L 691.935482 208.004903 
L 691.750881 204.009165 
z
" style="stroke:#000000;stroke-linecap:round;"/>
   </g>
   <g id="patch_104">
    <path clip-path="url(#pe278b182e0)" d="M 529.23402 209.201616 
Q 440.268755 163.439791 352.297707 118.18937 
" style="fill:none;stroke:#000000;stroke-linecap:round;"/>
    <path clip-path="url(#pe278b182e0)" d="M 354.939897 121.797532 
L 352.297707 118.18937 
L 356.769551 118.240515 
L 354.939897 121.797532 
z
" style="stroke:#000000;stroke-linecap:round;"/>
   </g>
   <g id="patch_105">
    <path clip-path="url(#pe278b182e0)" d="M 259.72209 319.770528 
Q 298.338229 307.917868 335.885547 296.393266 
" style="fill:none;stroke:#000000;stroke-linecap:round;"/>
    <path clip-path="url(#pe278b182e0)" d="M 331.474769 295.655001 
L 335.885547 296.393266 
L 332.648468 299.47893 
L 331.474769 295.655001 
z
" style="stroke:#000000;stroke-linecap:round;"/>
   </g>
   <g id="patch_106">
    <path clip-path="url(#pe278b182e0)" d="M 259.351938 318.785179 
Q 288.665529 305.715492 316.957983 293.101086 
" style="fill:none;stroke:#000000;stroke-linecap:round;"/>
    <path clip-path="url(#pe278b182e0)" d="M 312.490224 292.903287 
L 316.957983 293.101086 
L 314.119087 296.556614 
L 312.490224 292.903287 
z
" style="stroke:#000000;stroke-linecap:round;"/>
   </g>
   <g id="patch_107">
    <path clip-path="url(#pe278b182e0)" d="M 353.529797 291.042174 
Q 397.932394 277.75899 441.26386 264.796238 
" style="fill:none;stroke:#000000;stroke-linecap:round;"/>
    <path clip-path="url(#pe278b182e0)" d="M 436.858456 264.026554 
L 441.26386 264.796238 
L 438.00487 267.858751 
L 436.858456 264.026554 
z
" style="stroke:#000000;stroke-linecap:round;"/>
   </g>
   <g id="patch_108">
    <path clip-path="url(#pe278b182e0)" d="M 345.156094 284.86199 
Q 344.418311 203.620332 343.690681 123.496662 
" style="fill:none;stroke:#000000;stroke-linecap:round;"/>
    <path clip-path="url(#pe278b182e0)" d="M 341.727088 127.514659 
L 343.690681 123.496662 
L 345.726923 127.478336 
L 341.727088 127.514659 
z
" style="stroke:#000000;stroke-linecap:round;"/>
   </g>
   <g id="patch_109">
    <path clip-path="url(#pe278b182e0)" d="M 344.779179 302.172728 
Q 340.790593 377.895865 336.860817 452.502516 
" style="fill:none;stroke:#000000;stroke-linecap:round;"/>
    <path clip-path="url(#pe278b182e0)" d="M 339.06845 448.613254 
L 336.860817 452.502516 
L 335.073987 448.402852 
L 339.06845 448.613254 
z
" style="stroke:#000000;stroke-linecap:round;"/>
   </g>
   <g id="patch_110">
    <path clip-path="url(#pe278b182e0)" d="M 334.348351 287.280358 
Q 388.257006 275.557683 441.073158 264.072578 
" style="fill:none;stroke:#000000;stroke-linecap:round;"/>
    <path clip-path="url(#pe278b182e0)" d="M 436.739527 262.968205 
L 441.073158 264.072578 
L 437.589481 266.876859 
L 436.739527 262.968205 
z
" style="stroke:#000000;stroke-linecap:round;"/>
   </g>
   <g id="patch_111">
    <path clip-path="url(#pe278b182e0)" d="M 326.755871 280.505092 
Q 334.743811 201.418154 342.619399 123.443591 
" style="fill:none;stroke:#000000;stroke-linecap:round;"/>
    <path clip-path="url(#pe278b182e0)" d="M 340.22756 127.222362 
L 342.619399 123.443591 
L 344.207312 127.624325 
L 340.22756 127.222362 
z
" style="stroke:#000000;stroke-linecap:round;"/>
   </g>
   <g id="patch_112">
    <path clip-path="url(#pe278b182e0)" d="M 326.407789 297.762839 
Q 331.115949 375.696006 335.756689 452.513173 
" style="fill:none;stroke:#000000;stroke-linecap:round;"/>
    <path clip-path="url(#pe278b182e0)" d="M 337.511838 448.399847 
L 335.756689 452.513173 
L 333.519117 448.641059 
L 337.511838 448.399847 
z
" style="stroke:#000000;stroke-linecap:round;"/>
   </g>
   <g id="patch_113">
    <path clip-path="url(#pe278b182e0)" d="M 470.682991 223.263289 
Q 480.914994 225.649721 490.058185 227.782206 
" style="fill:none;stroke:#000000;stroke-linecap:round;"/>
    <path clip-path="url(#pe278b182e0)" d="M 486.617005 224.925936 
L 490.058185 227.782206 
L 485.708461 228.821388 
L 486.617005 224.925936 
z
" style="stroke:#000000;stroke-linecap:round;"/>
   </g>
   <g id="patch_114">
    <path clip-path="url(#pe278b182e0)" d="M 467.263933 228.358093 
Q 476.405497 241.227098 484.899593 253.184631 
" style="fill:none;stroke:#000000;stroke-linecap:round;"/>
    <path clip-path="url(#pe278b182e0)" d="M 484.213628 248.765417 
L 484.899593 253.184631 
L 480.952642 251.081874 
L 484.213628 248.765417 
z
" style="stroke:#000000;stroke-linecap:round;"/>
   </g>
   <g id="patch_115">
    <path clip-path="url(#pe278b182e0)" d="M 470.888113 220.730354 
Q 583.925082 213.333574 695.846402 206.009799 
" style="fill:none;stroke:#000000;stroke-linecap:round;"/>
    <path clip-path="url(#pe278b182e0)" d="M 691.724344 204.275256 
L 695.846402 206.009799 
L 691.985533 208.266719 
L 691.724344 204.275256 
z
" style="stroke:#000000;stroke-linecap:round;"/>
   </g>
   <g id="patch_116">
    <path clip-path="url(#pe278b182e0)" d="M 453.58393 221.27598 
Q 320.235494 220.971062 188.005088 220.668701 
" style="fill:none;stroke:#000000;stroke-linecap:round;"/>
    <path clip-path="url(#pe278b182e0)" d="M 192.000504 222.677843 
L 188.005088 220.668701 
L 192.009651 218.677853 
L 192.000504 222.677843 
z
" style="stroke:#000000;stroke-linecap:round;"/>
   </g>
   <g id="patch_117">
    <path clip-path="url(#pe278b182e0)" d="M 451.961785 198.480582 
Q 472.16041 211.851414 491.426758 224.605109 
" style="fill:none;stroke:#000000;stroke-linecap:round;"/>
    <path clip-path="url(#pe278b182e0)" d="M 489.195309 220.729463 
L 491.426758 224.605109 
L 486.987371 224.06488 
L 489.195309 220.729463 
z
" style="stroke:#000000;stroke-linecap:round;"/>
   </g>
   <g id="patch_118">
    <path clip-path="url(#pe278b182e0)" d="M 449.610793 200.868998 
Q 467.652629 227.429563 485.066244 253.065282 
" style="fill:none;stroke:#000000;stroke-linecap:round;"/>
    <path clip-path="url(#pe278b182e0)" d="M 484.473066 248.63266 
L 485.066244 253.065282 
L 481.16424 250.880252 
L 484.473066 248.63266 
z
" style="stroke:#000000;stroke-linecap:round;"/>
   </g>
   <g id="patch_119">
    <path clip-path="url(#pe278b182e0)" d="M 453.391486 194.088256 
Q 575.170234 199.536169 695.832064 204.934115 
" style="fill:none;stroke:#000000;stroke-linecap:round;"/>
    <path clip-path="url(#pe278b182e0)" d="M 691.925444 202.757348 
L 695.832064 204.934115 
L 691.746678 206.753351 
L 691.925444 202.757348 
z
" style="stroke:#000000;stroke-linecap:round;"/>
   </g>
   <g id="patch_120">
    <path clip-path="url(#pe278b182e0)" d="M 436.124677 194.572535 
Q 311.483187 207.173987 187.954061 219.662978 
" style="fill:none;stroke:#000000;stroke-linecap:round;"/>
    <path clip-path="url(#pe278b182e0)" d="M 192.134951 221.250479 
L 187.954061 219.662978 
L 191.732595 217.270767 
L 192.134951 221.250479 
z
" style="stroke:#000000;stroke-linecap:round;"/>
   </g>
   <g id="patch_121">
    <path clip-path="url(#pe278b182e0)" d="M 490.933579 229.579737 
Q 427.766291 226.485327 365.715699 223.445622 
" style="fill:none;stroke:#000000;stroke-linecap:round;"/>
    <path clip-path="url(#pe278b182e0)" d="M 369.61305 225.638942 
L 365.715699 223.445622 
L 369.808766 221.643733 
L 369.61305 225.638942 
z
" style="stroke:#000000;stroke-linecap:round;"/>
   </g>
   <g id="patch_122">
    <path clip-path="url(#pe278b182e0)" d="M 491.683629 226.445555 
Q 475.193197 219.017096 459.722144 212.047838 
" style="fill:none;stroke:#000000;stroke-linecap:round;"/>
    <path clip-path="url(#pe278b182e0)" d="M 462.547744 215.514246 
L 459.722144 212.047838 
L 464.19063 211.867203 
L 462.547744 215.514246 
z
" style="stroke:#000000;stroke-linecap:round;"/>
   </g>
   <g id="patch_123">
    <path clip-path="url(#pe278b182e0)" d="M 493.269167 224.077666 
Q 480.507281 212.097701 468.560542 200.88294 
" style="fill:none;stroke:#000000;stroke-linecap:round;"/>
    <path clip-path="url(#pe278b182e0)" d="M 470.108064 205.078792 
L 468.560542 200.88294 
L 472.845737 202.162434 
L 470.108064 205.078792 
z
" style="stroke:#000000;stroke-linecap:round;"/>
   </g>
   <g id="patch_124">
    <path clip-path="url(#pe278b182e0)" d="M 482.225815 258.789607 
Q 423.256829 242.060785 365.363434 225.637095 
" style="fill:none;stroke:#000000;stroke-linecap:round;"/>
    <path clip-path="url(#pe278b182e0)" d="M 368.665744 228.652844 
L 365.363434 225.637095 
L 369.75742 224.804696 
L 368.665744 228.652844 
z
" style="stroke:#000000;stroke-linecap:round;"/>
   </g>
   <g id="patch_125">
    <path clip-path="url(#pe278b182e0)" d="M 485.370651 254.218752 
Q 470.682244 234.591132 456.663714 215.858646 
" style="fill:none;stroke:#000000;stroke-linecap:round;"/>
    <path clip-path="url(#pe278b182e0)" d="M 457.459075 220.259487 
L 456.663714 215.858646 
L 460.661603 217.862863 
L 457.459075 220.259487 
z
" style="stroke:#000000;stroke-linecap:round;"/>
   </g>
   <g id="patch_126">
    <path clip-path="url(#pe278b182e0)" d="M 487.106353 253.21291 
Q 475.996826 227.673676 465.333275 203.159676 
" style="fill:none;stroke:#000000;stroke-linecap:round;"/>
    <path clip-path="url(#pe278b182e0)" d="M 465.09485 207.625452 
L 465.333275 203.159676 
L 468.762841 206.029882 
L 465.09485 207.625452 
z
" style="stroke:#000000;stroke-linecap:round;"/>
   </g>
   <g id="PathCollection_1">
    <defs>
     <path d="M 0 8.660254 
C 2.296726 8.660254 4.499694 7.747755 6.123724 6.123724 
C 7.747755 4.499694 8.660254 2.296726 8.660254 -0 
C 8.660254 -2.296726 7.747755 -4.499694 6.123724 -6.123724 
C 4.499694 -7.747755 2.296726 -8.660254 0 -8.660254 
C -2.296726 -8.660254 -4.499694 -7.747755 -6.123724 -6.123724 
C -7.747755 -4.499694 -8.660254 -2.296726 -8.660254 0 
C -8.660254 2.296726 -7.747755 4.499694 -6.123724 6.123724 
C -4.499694 7.747755 -2.296726 8.660254 0 8.660254 
z
" id="C0_0_66888dd996"/>
    </defs>
    <g clip-path="url(#pe278b182e0)">
     <use style="fill:#ff0000;stroke:#ff0000;" x="618.469268" xlink:href="#C0_0_66888dd996" y="187.873602"/>
    </g>
    <g clip-path="url(#pe278b182e0)">
     <use style="fill:#ff0000;stroke:#ff0000;" x="462.098148" xlink:href="#C0_0_66888dd996" y="422.52146"/>
    </g>
    <g clip-path="url(#pe278b182e0)">
     <use style="fill:#ff0000;stroke:#ff0000;" x="531.311071" xlink:href="#C0_0_66888dd996" y="213.377244"/>
    </g>
    <g clip-path="url(#pe278b182e0)">
     <use style="fill:#ff0000;stroke:#ff0000;" x="413.25129" xlink:href="#C0_0_66888dd996" y="231.372706"/>
    </g>
    <g clip-path="url(#pe278b182e0)">
     <use style="fill:#ff0000;stroke:#ff0000;" x="457.170062" xlink:href="#C0_0_66888dd996" y="365.782916"/>
    </g>
    <g clip-path="url(#pe278b182e0)">
     <use style="fill:#008000;stroke:#008000;" x="427.571615" xlink:href="#C0_0_66888dd996" y="243.706663"/>
    </g>
    <g clip-path="url(#pe278b182e0)">
     <use style="fill:#ff0000;stroke:#ff0000;" x="240.368971" xlink:href="#C0_0_66888dd996" y="397.256646"/>
    </g>
    <g clip-path="url(#pe278b182e0)">
     <use style="fill:#ff0000;stroke:#ff0000;" x="336.570258" xlink:href="#C0_0_66888dd996" y="235.061605"/>
    </g>
    <g clip-path="url(#pe278b182e0)">
     <use style="fill:#ff0000;stroke:#ff0000;" x="477.39357" xlink:href="#C0_0_66888dd996" y="110.757781"/>
    </g>
    <g clip-path="url(#pe278b182e0)">
     <use style="fill:#ff0000;stroke:#ff0000;" x="468.911684" xlink:href="#C0_0_66888dd996" y="256.015968"/>
    </g>
    <g clip-path="url(#pe278b182e0)">
     <use style="fill:#ff0000;stroke:#ff0000;" x="450.629087" xlink:href="#C0_0_66888dd996" y="261.994599"/>
    </g>
    <g clip-path="url(#pe278b182e0)">
     <use style="fill:#ff0000;stroke:#ff0000;" x="461.431978" xlink:href="#C0_0_66888dd996" y="194.191144"/>
    </g>
    <g clip-path="url(#pe278b182e0)">
     <use style="fill:#ffd700;stroke:#ffd700;" x="468.638767" xlink:href="#C0_0_66888dd996" y="168.511531"/>
    </g>
    <g clip-path="url(#pe278b182e0)">
     <use style="fill:#ff0000;stroke:#ff0000;" x="355.95261" xlink:href="#C0_0_66888dd996" y="222.967352"/>
    </g>
    <g clip-path="url(#pe278b182e0)">
     <use style="fill:#008000;stroke:#008000;" x="425.632009" xlink:href="#C0_0_66888dd996" y="193.890793"/>
    </g>
    <g clip-path="url(#pe278b182e0)">
     <use style="fill:#ff0000;stroke:#ff0000;" x="450.806219" xlink:href="#C0_0_66888dd996" y="208.031474"/>
    </g>
    <g clip-path="url(#pe278b182e0)">
     <use style="fill:#ff0000;stroke:#ff0000;" x="343.601864" xlink:href="#C0_0_66888dd996" y="113.716414"/>
    </g>
    <g clip-path="url(#pe278b182e0)">
     <use style="fill:#008000;stroke:#008000;" x="336.346236" xlink:href="#C0_0_66888dd996" y="462.271818"/>
    </g>
    <g clip-path="url(#pe278b182e0)">
     <use style="fill:#008000;stroke:#008000;" x="547.607072" xlink:href="#C0_0_66888dd996" y="107.607273"/>
    </g>
    <g clip-path="url(#pe278b182e0)">
     <use style="fill:#ff0000;stroke:#ff0000;" x="442.151057" xlink:href="#C0_0_66888dd996" y="291.662934"/>
    </g>
    <g clip-path="url(#pe278b182e0)">
     <use style="fill:#ff0000;stroke:#ff0000;" x="453.044185" xlink:href="#C0_0_66888dd996" y="292.879735"/>
    </g>
    <g clip-path="url(#pe278b182e0)">
     <use style="fill:#ff0000;stroke:#ff0000;" x="719.494215" xlink:href="#C0_0_66888dd996" y="317.04591"/>
    </g>
    <g clip-path="url(#pe278b182e0)">
     <use style="fill:#ff0000;stroke:#ff0000;" x="166.105785" xlink:href="#C0_0_66888dd996" y="299.997907"/>
    </g>
    <g clip-path="url(#pe278b182e0)">
     <use style="fill:#ff0000;stroke:#ff0000;" x="457.095428" xlink:href="#C0_0_66888dd996" y="474.152727"/>
    </g>
    <g clip-path="url(#pe278b182e0)">
     <use style="fill:#ff0000;stroke:#ff0000;" x="435.963079" xlink:href="#C0_0_66888dd996" y="366.379217"/>
    </g>
    <g clip-path="url(#pe278b182e0)">
     <use style="fill:#ff0000;stroke:#ff0000;" x="444.378192" xlink:href="#C0_0_66888dd996" y="353.850877"/>
    </g>
    <g clip-path="url(#pe278b182e0)">
     <use style="fill:#ff0000;stroke:#ff0000;" x="447.547207" xlink:href="#C0_0_66888dd996" y="239.743691"/>
    </g>
    <g clip-path="url(#pe278b182e0)">
     <use style="fill:#ff0000;stroke:#ff0000;" x="432.643831" xlink:href="#C0_0_66888dd996" y="228.066261"/>
    </g>
    <g clip-path="url(#pe278b182e0)">
     <use style="fill:#ff0000;stroke:#ff0000;" x="411.135378" xlink:href="#C0_0_66888dd996" y="216.682169"/>
    </g>
    <g clip-path="url(#pe278b182e0)">
     <use style="fill:#ff0000;stroke:#ff0000;" x="533.03227" xlink:href="#C0_0_66888dd996" y="161.126465"/>
    </g>
    <g clip-path="url(#pe278b182e0)">
     <use style="fill:#ff0000;stroke:#ff0000;" x="536.936611" xlink:href="#C0_0_66888dd996" y="213.163664"/>
    </g>
    <g clip-path="url(#pe278b182e0)">
     <use style="fill:#ff0000;stroke:#ff0000;" x="251.441315" xlink:href="#C0_0_66888dd996" y="322.312191"/>
    </g>
    <g clip-path="url(#pe278b182e0)">
     <use style="fill:#008000;stroke:#008000;" x="345.234753" xlink:href="#C0_0_66888dd996" y="293.523664"/>
    </g>
    <g clip-path="url(#pe278b182e0)">
     <use style="fill:#ff0000;stroke:#ff0000;" x="325.885687" xlink:href="#C0_0_66888dd996" y="289.120602"/>
    </g>
    <g clip-path="url(#pe278b182e0)">
     <use style="fill:#008000;stroke:#008000;" x="462.247188" xlink:href="#C0_0_66888dd996" y="221.295789"/>
    </g>
    <g clip-path="url(#pe278b182e0)">
     <use style="fill:#ff0000;stroke:#ff0000;" x="444.741988" xlink:href="#C0_0_66888dd996" y="193.701311"/>
    </g>
    <g clip-path="url(#pe278b182e0)">
     <use style="fill:#ff0000;stroke:#ff0000;" x="499.581653" xlink:href="#C0_0_66888dd996" y="230.003385"/>
    </g>
    <g clip-path="url(#pe278b182e0)">
     <use style="fill:#ff0000;stroke:#ff0000;" x="490.560775" xlink:href="#C0_0_66888dd996" y="261.154139"/>
    </g>
    <g clip-path="url(#pe278b182e0)">
     <use style="fill:#ff0000;stroke:#ff0000;" x="705.604168" xlink:href="#C0_0_66888dd996" y="205.371282"/>
    </g>
    <g clip-path="url(#pe278b182e0)">
     <use style="fill:#ffd700;stroke:#ffd700;" x="178.227549" xlink:href="#C0_0_66888dd996" y="220.646344"/>
    </g>
   </g>
   <g id="text_1">
    <g clip-path="url(#pe278b182e0)">
     <!-- IFNG -->
     <g transform="translate(604.110518 191.184852)scale(0.12 -0.12)">
      <defs>
       <path d="M 9.8125 72.90625 
L 19.671875 72.90625 
L 19.671875 0 
L 9.8125 0 
z
" id="DejaVuSans-73"/>
       <path d="M 9.8125 72.90625 
L 51.703125 72.90625 
L 51.703125 64.59375 
L 19.671875 64.59375 
L 19.671875 43.109375 
L 48.578125 43.109375 
L 48.578125 34.8125 
L 19.671875 34.8125 
L 19.671875 0 
L 9.8125 0 
z
" id="DejaVuSans-70"/>
       <path d="M 9.8125 72.90625 
L 23.09375 72.90625 
L 55.421875 11.921875 
L 55.421875 72.90625 
L 64.984375 72.90625 
L 64.984375 0 
L 51.703125 0 
L 19.390625 60.984375 
L 19.390625 0 
L 9.8125 0 
z
" id="DejaVuSans-78"/>
       <path d="M 59.515625 10.40625 
L 59.515625 29.984375 
L 43.40625 29.984375 
L 43.40625 38.09375 
L 69.28125 38.09375 
L 69.28125 6.78125 
Q 63.578125 2.734375 56.6875 0.65625 
Q 49.8125 -1.421875 42 -1.421875 
Q 24.90625 -1.421875 15.25 8.5625 
Q 5.609375 18.5625 5.609375 36.375 
Q 5.609375 54.25 15.25 64.234375 
Q 24.90625 74.21875 42 74.21875 
Q 49.125 74.21875 55.546875 72.453125 
Q 61.96875 70.703125 67.390625 67.28125 
L 67.390625 56.78125 
Q 61.921875 61.421875 55.765625 63.765625 
Q 49.609375 66.109375 42.828125 66.109375 
Q 29.4375 66.109375 22.71875 58.640625 
Q 16.015625 51.171875 16.015625 36.375 
Q 16.015625 21.625 22.71875 14.15625 
Q 29.4375 6.6875 42.828125 6.6875 
Q 48.046875 6.6875 52.140625 7.59375 
Q 56.25 8.5 59.515625 10.40625 
z
" id="DejaVuSans-71"/>
      </defs>
      <use xlink:href="#DejaVuSans-73"/>
      <use x="29.492188" xlink:href="#DejaVuSans-70"/>
      <use x="87.011719" xlink:href="#DejaVuSans-78"/>
      <use x="161.816406" xlink:href="#DejaVuSans-71"/>
     </g>
    </g>
   </g>
   <g id="text_2">
    <g clip-path="url(#pe278b182e0)">
     <!-- PRKCQ -->
     <g transform="translate(441.793773 425.83271)scale(0.12 -0.12)">
      <defs>
       <path d="M 19.671875 64.796875 
L 19.671875 37.40625 
L 32.078125 37.40625 
Q 38.96875 37.40625 42.71875 40.96875 
Q 46.484375 44.53125 46.484375 51.125 
Q 46.484375 57.671875 42.71875 61.234375 
Q 38.96875 64.796875 32.078125 64.796875 
z
M 9.8125 72.90625 
L 32.078125 72.90625 
Q 44.34375 72.90625 50.609375 67.359375 
Q 56.890625 61.8125 56.890625 51.125 
Q 56.890625 40.328125 50.609375 34.8125 
Q 44.34375 29.296875 32.078125 29.296875 
L 19.671875 29.296875 
L 19.671875 0 
L 9.8125 0 
z
" id="DejaVuSans-80"/>
       <path d="M 44.390625 34.1875 
Q 47.5625 33.109375 50.5625 29.59375 
Q 53.5625 26.078125 56.59375 19.921875 
L 66.609375 0 
L 56 0 
L 46.6875 18.703125 
Q 43.0625 26.03125 39.671875 28.421875 
Q 36.28125 30.8125 30.421875 30.8125 
L 19.671875 30.8125 
L 19.671875 0 
L 9.8125 0 
L 9.8125 72.90625 
L 32.078125 72.90625 
Q 44.578125 72.90625 50.734375 67.671875 
Q 56.890625 62.453125 56.890625 51.90625 
Q 56.890625 45.015625 53.6875 40.46875 
Q 50.484375 35.9375 44.390625 34.1875 
z
M 19.671875 64.796875 
L 19.671875 38.921875 
L 32.078125 38.921875 
Q 39.203125 38.921875 42.84375 42.21875 
Q 46.484375 45.515625 46.484375 51.90625 
Q 46.484375 58.296875 42.84375 61.546875 
Q 39.203125 64.796875 32.078125 64.796875 
z
" id="DejaVuSans-82"/>
       <path d="M 9.8125 72.90625 
L 19.671875 72.90625 
L 19.671875 42.09375 
L 52.390625 72.90625 
L 65.09375 72.90625 
L 28.90625 38.921875 
L 67.671875 0 
L 54.6875 0 
L 19.671875 35.109375 
L 19.671875 0 
L 9.8125 0 
z
" id="DejaVuSans-75"/>
       <path d="M 64.40625 67.28125 
L 64.40625 56.890625 
Q 59.421875 61.53125 53.78125 63.8125 
Q 48.140625 66.109375 41.796875 66.109375 
Q 29.296875 66.109375 22.65625 58.46875 
Q 16.015625 50.828125 16.015625 36.375 
Q 16.015625 21.96875 22.65625 14.328125 
Q 29.296875 6.6875 41.796875 6.6875 
Q 48.140625 6.6875 53.78125 8.984375 
Q 59.421875 11.28125 64.40625 15.921875 
L 64.40625 5.609375 
Q 59.234375 2.09375 53.4375 0.328125 
Q 47.65625 -1.421875 41.21875 -1.421875 
Q 24.65625 -1.421875 15.125 8.703125 
Q 5.609375 18.84375 5.609375 36.375 
Q 5.609375 53.953125 15.125 64.078125 
Q 24.65625 74.21875 41.21875 74.21875 
Q 47.75 74.21875 53.53125 72.484375 
Q 59.328125 70.75 64.40625 67.28125 
z
" id="DejaVuSans-67"/>
       <path d="M 39.40625 66.21875 
Q 28.65625 66.21875 22.328125 58.203125 
Q 16.015625 50.203125 16.015625 36.375 
Q 16.015625 22.609375 22.328125 14.59375 
Q 28.65625 6.59375 39.40625 6.59375 
Q 50.140625 6.59375 56.421875 14.59375 
Q 62.703125 22.609375 62.703125 36.375 
Q 62.703125 50.203125 56.421875 58.203125 
Q 50.140625 66.21875 39.40625 66.21875 
z
M 53.21875 1.3125 
L 66.21875 -12.890625 
L 54.296875 -12.890625 
L 43.5 -1.21875 
Q 41.890625 -1.3125 41.03125 -1.359375 
Q 40.1875 -1.421875 39.40625 -1.421875 
Q 24.03125 -1.421875 14.8125 8.859375 
Q 5.609375 19.140625 5.609375 36.375 
Q 5.609375 53.65625 14.8125 63.9375 
Q 24.03125 74.21875 39.40625 74.21875 
Q 54.734375 74.21875 63.90625 63.9375 
Q 73.09375 53.65625 73.09375 36.375 
Q 73.09375 23.6875 67.984375 14.640625 
Q 62.890625 5.609375 53.21875 1.3125 
z
" id="DejaVuSans-81"/>
      </defs>
      <use xlink:href="#DejaVuSans-80"/>
      <use x="60.302734" xlink:href="#DejaVuSans-82"/>
      <use x="129.785156" xlink:href="#DejaVuSans-75"/>
      <use x="189.861328" xlink:href="#DejaVuSans-67"/>
      <use x="259.685547" xlink:href="#DejaVuSans-81"/>
     </g>
    </g>
   </g>
   <g id="text_3">
    <g clip-path="url(#pe278b182e0)">
     <!-- ZAP70 -->
     <g transform="translate(511.843884 216.688494)scale(0.12 -0.12)">
      <defs>
       <path d="M 5.609375 72.90625 
L 62.890625 72.90625 
L 62.890625 65.375 
L 16.796875 8.296875 
L 64.015625 8.296875 
L 64.015625 0 
L 4.5 0 
L 4.5 7.515625 
L 50.59375 64.59375 
L 5.609375 64.59375 
z
" id="DejaVuSans-90"/>
       <path d="M 34.1875 63.1875 
L 20.796875 26.90625 
L 47.609375 26.90625 
z
M 28.609375 72.90625 
L 39.796875 72.90625 
L 67.578125 0 
L 57.328125 0 
L 50.6875 18.703125 
L 17.828125 18.703125 
L 11.1875 0 
L 0.78125 0 
z
" id="DejaVuSans-65"/>
       <path d="M 8.203125 72.90625 
L 55.078125 72.90625 
L 55.078125 68.703125 
L 28.609375 0 
L 18.3125 0 
L 43.21875 64.59375 
L 8.203125 64.59375 
z
" id="DejaVuSans-55"/>
       <path d="M 31.78125 66.40625 
Q 24.171875 66.40625 20.328125 58.90625 
Q 16.5 51.421875 16.5 36.375 
Q 16.5 21.390625 20.328125 13.890625 
Q 24.171875 6.390625 31.78125 6.390625 
Q 39.453125 6.390625 43.28125 13.890625 
Q 47.125 21.390625 47.125 36.375 
Q 47.125 51.421875 43.28125 58.90625 
Q 39.453125 66.40625 31.78125 66.40625 
z
M 31.78125 74.21875 
Q 44.046875 74.21875 50.515625 64.515625 
Q 56.984375 54.828125 56.984375 36.375 
Q 56.984375 17.96875 50.515625 8.265625 
Q 44.046875 -1.421875 31.78125 -1.421875 
Q 19.53125 -1.421875 13.0625 8.265625 
Q 6.59375 17.96875 6.59375 36.375 
Q 6.59375 54.828125 13.0625 64.515625 
Q 19.53125 74.21875 31.78125 74.21875 
z
" id="DejaVuSans-48"/>
      </defs>
      <use xlink:href="#DejaVuSans-90"/>
      <use x="68.505859" xlink:href="#DejaVuSans-65"/>
      <use x="136.914062" xlink:href="#DejaVuSans-80"/>
      <use x="197.216797" xlink:href="#DejaVuSans-55"/>
      <use x="260.839844" xlink:href="#DejaVuSans-48"/>
     </g>
    </g>
   </g>
   <g id="text_4">
    <g clip-path="url(#pe278b182e0)">
     <!-- JUN -->
     <g transform="translate(402.60129 234.683956)scale(0.12 -0.12)">
      <defs>
       <path d="M 9.8125 72.90625 
L 19.671875 72.90625 
L 19.671875 5.078125 
Q 19.671875 -8.109375 14.671875 -14.0625 
Q 9.671875 -20.015625 -1.421875 -20.015625 
L -5.171875 -20.015625 
L -5.171875 -11.71875 
L -2.09375 -11.71875 
Q 4.4375 -11.71875 7.125 -8.046875 
Q 9.8125 -4.390625 9.8125 5.078125 
z
" id="DejaVuSans-74"/>
       <path d="M 8.6875 72.90625 
L 18.609375 72.90625 
L 18.609375 28.609375 
Q 18.609375 16.890625 22.84375 11.734375 
Q 27.09375 6.59375 36.625 6.59375 
Q 46.09375 6.59375 50.34375 11.734375 
Q 54.59375 16.890625 54.59375 28.609375 
L 54.59375 72.90625 
L 64.5 72.90625 
L 64.5 27.390625 
Q 64.5 13.140625 57.4375 5.859375 
Q 50.390625 -1.421875 36.625 -1.421875 
Q 22.796875 -1.421875 15.734375 5.859375 
Q 8.6875 13.140625 8.6875 27.390625 
z
" id="DejaVuSans-85"/>
      </defs>
      <use xlink:href="#DejaVuSans-74"/>
      <use x="29.492188" xlink:href="#DejaVuSans-85"/>
      <use x="102.685547" xlink:href="#DejaVuSans-78"/>
     </g>
    </g>
   </g>
   <g id="text_5">
    <g clip-path="url(#pe278b182e0)">
     <!-- LAT -->
     <g transform="translate(446.387874 369.094166)scale(0.12 -0.12)">
      <defs>
       <path d="M 9.8125 72.90625 
L 19.671875 72.90625 
L 19.671875 8.296875 
L 55.171875 8.296875 
L 55.171875 0 
L 9.8125 0 
z
" id="DejaVuSans-76"/>
       <path d="M -0.296875 72.90625 
L 61.375 72.90625 
L 61.375 64.59375 
L 35.5 64.59375 
L 35.5 0 
L 25.59375 0 
L 25.59375 64.59375 
L -0.296875 64.59375 
z
" id="DejaVuSans-84"/>
      </defs>
      <use xlink:href="#DejaVuSans-76"/>
      <use x="57.962891" xlink:href="#DejaVuSans-65"/>
      <use x="118.621094" xlink:href="#DejaVuSans-84"/>
     </g>
    </g>
   </g>
   <g id="text_6">
    <g clip-path="url(#pe278b182e0)">
     <!-- FOS -->
     <g transform="translate(415.58849 247.017913)scale(0.12 -0.12)">
      <defs>
       <path d="M 39.40625 66.21875 
Q 28.65625 66.21875 22.328125 58.203125 
Q 16.015625 50.203125 16.015625 36.375 
Q 16.015625 22.609375 22.328125 14.59375 
Q 28.65625 6.59375 39.40625 6.59375 
Q 50.140625 6.59375 56.421875 14.59375 
Q 62.703125 22.609375 62.703125 36.375 
Q 62.703125 50.203125 56.421875 58.203125 
Q 50.140625 66.21875 39.40625 66.21875 
z
M 39.40625 74.21875 
Q 54.734375 74.21875 63.90625 63.9375 
Q 73.09375 53.65625 73.09375 36.375 
Q 73.09375 19.140625 63.90625 8.859375 
Q 54.734375 -1.421875 39.40625 -1.421875 
Q 24.03125 -1.421875 14.8125 8.828125 
Q 5.609375 19.09375 5.609375 36.375 
Q 5.609375 53.65625 14.8125 63.9375 
Q 24.03125 74.21875 39.40625 74.21875 
z
" id="DejaVuSans-79"/>
       <path d="M 53.515625 70.515625 
L 53.515625 60.890625 
Q 47.90625 63.578125 42.921875 64.890625 
Q 37.9375 66.21875 33.296875 66.21875 
Q 25.25 66.21875 20.875 63.09375 
Q 16.5 59.96875 16.5 54.203125 
Q 16.5 49.359375 19.40625 46.890625 
Q 22.3125 44.4375 30.421875 42.921875 
L 36.375 41.703125 
Q 47.40625 39.59375 52.65625 34.296875 
Q 57.90625 29 57.90625 20.125 
Q 57.90625 9.515625 50.796875 4.046875 
Q 43.703125 -1.421875 29.984375 -1.421875 
Q 24.8125 -1.421875 18.96875 -0.25 
Q 13.140625 0.921875 6.890625 3.21875 
L 6.890625 13.375 
Q 12.890625 10.015625 18.65625 8.296875 
Q 24.421875 6.59375 29.984375 6.59375 
Q 38.421875 6.59375 43.015625 9.90625 
Q 47.609375 13.234375 47.609375 19.390625 
Q 47.609375 24.75 44.3125 27.78125 
Q 41.015625 30.8125 33.5 32.328125 
L 27.484375 33.5 
Q 16.453125 35.6875 11.515625 40.375 
Q 6.59375 45.0625 6.59375 53.421875 
Q 6.59375 63.09375 13.40625 68.65625 
Q 20.21875 74.21875 32.171875 74.21875 
Q 37.3125 74.21875 42.625 73.28125 
Q 47.953125 72.359375 53.515625 70.515625 
z
" id="DejaVuSans-83"/>
      </defs>
      <use xlink:href="#DejaVuSans-70"/>
      <use x="57.519531" xlink:href="#DejaVuSans-79"/>
      <use x="136.230469" xlink:href="#DejaVuSans-83"/>
     </g>
    </g>
   </g>
   <g id="text_7">
    <g clip-path="url(#pe278b182e0)">
     <!-- PLCG1 -->
     <g transform="translate(220.751783 400.567896)scale(0.12 -0.12)">
      <defs>
       <path d="M 12.40625 8.296875 
L 28.515625 8.296875 
L 28.515625 63.921875 
L 10.984375 60.40625 
L 10.984375 69.390625 
L 28.421875 72.90625 
L 38.28125 72.90625 
L 38.28125 8.296875 
L 54.390625 8.296875 
L 54.390625 0 
L 12.40625 0 
z
" id="DejaVuSans-49"/>
      </defs>
      <use xlink:href="#DejaVuSans-80"/>
      <use x="60.302734" xlink:href="#DejaVuSans-76"/>
      <use x="116.015625" xlink:href="#DejaVuSans-67"/>
      <use x="185.839844" xlink:href="#DejaVuSans-71"/>
      <use x="263.330078" xlink:href="#DejaVuSans-49"/>
     </g>
    </g>
   </g>
   <g id="text_8">
    <g clip-path="url(#pe278b182e0)">
     <!-- CD4 -->
     <g transform="translate(323.943071 238.372855)scale(0.12 -0.12)">
      <defs>
       <path d="M 19.671875 64.796875 
L 19.671875 8.109375 
L 31.59375 8.109375 
Q 46.6875 8.109375 53.6875 14.9375 
Q 60.6875 21.78125 60.6875 36.53125 
Q 60.6875 51.171875 53.6875 57.984375 
Q 46.6875 64.796875 31.59375 64.796875 
z
M 9.8125 72.90625 
L 30.078125 72.90625 
Q 51.265625 72.90625 61.171875 64.09375 
Q 71.09375 55.28125 71.09375 36.53125 
Q 71.09375 17.671875 61.125 8.828125 
Q 51.171875 0 30.078125 0 
L 9.8125 0 
z
" id="DejaVuSans-68"/>
       <path d="M 37.796875 64.3125 
L 12.890625 25.390625 
L 37.796875 25.390625 
z
M 35.203125 72.90625 
L 47.609375 72.90625 
L 47.609375 25.390625 
L 58.015625 25.390625 
L 58.015625 17.1875 
L 47.609375 17.1875 
L 47.609375 0 
L 37.796875 0 
L 37.796875 17.1875 
L 4.890625 17.1875 
L 4.890625 26.703125 
z
" id="DejaVuSans-52"/>
      </defs>
      <use xlink:href="#DejaVuSans-67"/>
      <use x="69.824219" xlink:href="#DejaVuSans-68"/>
      <use x="146.826172" xlink:href="#DejaVuSans-52"/>
     </g>
    </g>
   </g>
   <g id="text_9">
    <g clip-path="url(#pe278b182e0)">
     <!-- LCK -->
     <g transform="translate(465.92607 114.069031)scale(0.12 -0.12)">
      <use xlink:href="#DejaVuSans-76"/>
      <use x="55.712891" xlink:href="#DejaVuSans-67"/>
      <use x="125.537109" xlink:href="#DejaVuSans-75"/>
     </g>
    </g>
   </g>
   <g id="text_10">
    <g clip-path="url(#pe278b182e0)">
     <!-- STAT1 -->
     <g transform="translate(450.781372 259.327218)scale(0.12 -0.12)">
      <use xlink:href="#DejaVuSans-83"/>
      <use x="63.476562" xlink:href="#DejaVuSans-84"/>
      <use x="116.810547" xlink:href="#DejaVuSans-65"/>
      <use x="177.46875" xlink:href="#DejaVuSans-84"/>
      <use x="238.552734" xlink:href="#DejaVuSans-49"/>
     </g>
    </g>
   </g>
   <g id="text_11">
    <g clip-path="url(#pe278b182e0)">
     <!-- STAT4 -->
     <g transform="translate(432.498774 265.305849)scale(0.12 -0.12)">
      <use xlink:href="#DejaVuSans-83"/>
      <use x="63.476562" xlink:href="#DejaVuSans-84"/>
      <use x="116.810547" xlink:href="#DejaVuSans-65"/>
      <use x="177.46875" xlink:href="#DejaVuSans-84"/>
      <use x="238.552734" xlink:href="#DejaVuSans-52"/>
     </g>
    </g>
   </g>
   <g id="text_12">
    <g clip-path="url(#pe278b182e0)">
     <!-- IL4R -->
     <g transform="translate(448.33229 197.502394)scale(0.12 -0.12)">
      <use xlink:href="#DejaVuSans-73"/>
      <use x="29.492188" xlink:href="#DejaVuSans-76"/>
      <use x="85.205078" xlink:href="#DejaVuSans-52"/>
      <use x="148.828125" xlink:href="#DejaVuSans-82"/>
     </g>
    </g>
   </g>
   <g id="text_13">
    <g clip-path="url(#pe278b182e0)">
     <!-- STAT6 -->
     <g transform="translate(450.508455 171.822781)scale(0.12 -0.12)">
      <defs>
       <path d="M 33.015625 40.375 
Q 26.375 40.375 22.484375 35.828125 
Q 18.609375 31.296875 18.609375 23.390625 
Q 18.609375 15.53125 22.484375 10.953125 
Q 26.375 6.390625 33.015625 6.390625 
Q 39.65625 6.390625 43.53125 10.953125 
Q 47.40625 15.53125 47.40625 23.390625 
Q 47.40625 31.296875 43.53125 35.828125 
Q 39.65625 40.375 33.015625 40.375 
z
M 52.59375 71.296875 
L 52.59375 62.3125 
Q 48.875 64.0625 45.09375 64.984375 
Q 41.3125 65.921875 37.59375 65.921875 
Q 27.828125 65.921875 22.671875 59.328125 
Q 17.53125 52.734375 16.796875 39.40625 
Q 19.671875 43.65625 24.015625 45.921875 
Q 28.375 48.1875 33.59375 48.1875 
Q 44.578125 48.1875 50.953125 41.515625 
Q 57.328125 34.859375 57.328125 23.390625 
Q 57.328125 12.15625 50.6875 5.359375 
Q 44.046875 -1.421875 33.015625 -1.421875 
Q 20.359375 -1.421875 13.671875 8.265625 
Q 6.984375 17.96875 6.984375 36.375 
Q 6.984375 53.65625 15.1875 63.9375 
Q 23.390625 74.21875 37.203125 74.21875 
Q 40.921875 74.21875 44.703125 73.484375 
Q 48.484375 72.75 52.59375 71.296875 
z
" id="DejaVuSans-54"/>
      </defs>
      <use xlink:href="#DejaVuSans-83"/>
      <use x="63.476562" xlink:href="#DejaVuSans-84"/>
      <use x="116.810547" xlink:href="#DejaVuSans-65"/>
      <use x="177.46875" xlink:href="#DejaVuSans-84"/>
      <use x="238.552734" xlink:href="#DejaVuSans-54"/>
     </g>
    </g>
   </g>
   <g id="text_14">
    <g clip-path="url(#pe278b182e0)">
     <!-- GATA3 -->
     <g transform="translate(336.54261 226.278602)scale(0.12 -0.12)">
      <defs>
       <path d="M 40.578125 39.3125 
Q 47.65625 37.796875 51.625 33 
Q 55.609375 28.21875 55.609375 21.1875 
Q 55.609375 10.40625 48.1875 4.484375 
Q 40.765625 -1.421875 27.09375 -1.421875 
Q 22.515625 -1.421875 17.65625 -0.515625 
Q 12.796875 0.390625 7.625 2.203125 
L 7.625 11.71875 
Q 11.71875 9.328125 16.59375 8.109375 
Q 21.484375 6.890625 26.8125 6.890625 
Q 36.078125 6.890625 40.9375 10.546875 
Q 45.796875 14.203125 45.796875 21.1875 
Q 45.796875 27.640625 41.28125 31.265625 
Q 36.765625 34.90625 28.71875 34.90625 
L 20.21875 34.90625 
L 20.21875 43.015625 
L 29.109375 43.015625 
Q 36.375 43.015625 40.234375 45.921875 
Q 44.09375 48.828125 44.09375 54.296875 
Q 44.09375 59.90625 40.109375 62.90625 
Q 36.140625 65.921875 28.71875 65.921875 
Q 24.65625 65.921875 20.015625 65.03125 
Q 15.375 64.15625 9.8125 62.3125 
L 9.8125 71.09375 
Q 15.4375 72.65625 20.34375 73.4375 
Q 25.25 74.21875 29.59375 74.21875 
Q 40.828125 74.21875 47.359375 69.109375 
Q 53.90625 64.015625 53.90625 55.328125 
Q 53.90625 49.265625 50.4375 45.09375 
Q 46.96875 40.921875 40.578125 39.3125 
z
" id="DejaVuSans-51"/>
      </defs>
      <use xlink:href="#DejaVuSans-71"/>
      <use x="77.490234" xlink:href="#DejaVuSans-65"/>
      <use x="138.148438" xlink:href="#DejaVuSans-84"/>
      <use x="191.482422" xlink:href="#DejaVuSans-65"/>
      <use x="259.890625" xlink:href="#DejaVuSans-51"/>
     </g>
    </g>
   </g>
   <g id="text_15">
    <g clip-path="url(#pe278b182e0)">
     <!-- TBX21 -->
     <g transform="translate(406.105759 197.202043)scale(0.12 -0.12)">
      <defs>
       <path d="M 19.671875 34.8125 
L 19.671875 8.109375 
L 35.5 8.109375 
Q 43.453125 8.109375 47.28125 11.40625 
Q 51.125 14.703125 51.125 21.484375 
Q 51.125 28.328125 47.28125 31.5625 
Q 43.453125 34.8125 35.5 34.8125 
z
M 19.671875 64.796875 
L 19.671875 42.828125 
L 34.28125 42.828125 
Q 41.5 42.828125 45.03125 45.53125 
Q 48.578125 48.25 48.578125 53.8125 
Q 48.578125 59.328125 45.03125 62.0625 
Q 41.5 64.796875 34.28125 64.796875 
z
M 9.8125 72.90625 
L 35.015625 72.90625 
Q 46.296875 72.90625 52.390625 68.21875 
Q 58.5 63.53125 58.5 54.890625 
Q 58.5 48.1875 55.375 44.234375 
Q 52.25 40.28125 46.1875 39.3125 
Q 53.46875 37.75 57.5 32.78125 
Q 61.53125 27.828125 61.53125 20.40625 
Q 61.53125 10.640625 54.890625 5.3125 
Q 48.25 0 35.984375 0 
L 9.8125 0 
z
" id="DejaVuSans-66"/>
       <path d="M 6.296875 72.90625 
L 16.890625 72.90625 
L 35.015625 45.796875 
L 53.21875 72.90625 
L 63.8125 72.90625 
L 40.375 37.890625 
L 65.375 0 
L 54.78125 0 
L 34.28125 31 
L 13.625 0 
L 2.984375 0 
L 29 38.921875 
z
" id="DejaVuSans-88"/>
       <path d="M 19.1875 8.296875 
L 53.609375 8.296875 
L 53.609375 0 
L 7.328125 0 
L 7.328125 8.296875 
Q 12.9375 14.109375 22.625 23.890625 
Q 32.328125 33.6875 34.8125 36.53125 
Q 39.546875 41.84375 41.421875 45.53125 
Q 43.3125 49.21875 43.3125 52.78125 
Q 43.3125 58.59375 39.234375 62.25 
Q 35.15625 65.921875 28.609375 65.921875 
Q 23.96875 65.921875 18.8125 64.3125 
Q 13.671875 62.703125 7.8125 59.421875 
L 7.8125 69.390625 
Q 13.765625 71.78125 18.9375 73 
Q 24.125 74.21875 28.421875 74.21875 
Q 39.75 74.21875 46.484375 68.546875 
Q 53.21875 62.890625 53.21875 53.421875 
Q 53.21875 48.921875 51.53125 44.890625 
Q 49.859375 40.875 45.40625 35.40625 
Q 44.1875 33.984375 37.640625 27.21875 
Q 31.109375 20.453125 19.1875 8.296875 
z
" id="DejaVuSans-50"/>
      </defs>
      <use xlink:href="#DejaVuSans-84"/>
      <use x="61.083984" xlink:href="#DejaVuSans-66"/>
      <use x="129.6875" xlink:href="#DejaVuSans-88"/>
      <use x="198.193359" xlink:href="#DejaVuSans-50"/>
      <use x="261.816406" xlink:href="#DejaVuSans-49"/>
     </g>
    </g>
   </g>
   <g id="text_16">
    <g clip-path="url(#pe278b182e0)">
     <!-- IL2RA -->
     <g transform="translate(433.842156 211.342724)scale(0.12 -0.12)">
      <use xlink:href="#DejaVuSans-73"/>
      <use x="29.492188" xlink:href="#DejaVuSans-76"/>
      <use x="85.205078" xlink:href="#DejaVuSans-50"/>
      <use x="148.828125" xlink:href="#DejaVuSans-82"/>
      <use x="214.310547" xlink:href="#DejaVuSans-65"/>
     </g>
    </g>
   </g>
   <g id="text_17">
    <g clip-path="url(#pe278b182e0)">
     <!-- JAK2 -->
     <g transform="translate(330.080301 117.027664)scale(0.12 -0.12)">
      <use xlink:href="#DejaVuSans-74"/>
      <use x="27.742188" xlink:href="#DejaVuSans-65"/>
      <use x="96.150391" xlink:href="#DejaVuSans-75"/>
      <use x="161.726562" xlink:href="#DejaVuSans-50"/>
     </g>
    </g>
   </g>
   <g id="text_18">
    <g clip-path="url(#pe278b182e0)">
     <!-- TYK2 -->
     <g transform="translate(321.264673 465.583068)scale(0.12 -0.12)">
      <defs>
       <path d="M -0.203125 72.90625 
L 10.40625 72.90625 
L 30.609375 42.921875 
L 50.6875 72.90625 
L 61.28125 72.90625 
L 35.5 34.71875 
L 35.5 0 
L 25.59375 0 
L 25.59375 34.71875 
z
" id="DejaVuSans-89"/>
      </defs>
      <use xlink:href="#DejaVuSans-84"/>
      <use x="61.083984" xlink:href="#DejaVuSans-89"/>
      <use x="122.167969" xlink:href="#DejaVuSans-75"/>
      <use x="187.744141" xlink:href="#DejaVuSans-50"/>
     </g>
    </g>
   </g>
   <g id="text_19">
    <g clip-path="url(#pe278b182e0)">
     <!-- RUNX3 -->
     <g transform="translate(526.630509 110.918523)scale(0.12 -0.12)">
      <use xlink:href="#DejaVuSans-82"/>
      <use x="69.482422" xlink:href="#DejaVuSans-85"/>
      <use x="142.675781" xlink:href="#DejaVuSans-78"/>
      <use x="217.480469" xlink:href="#DejaVuSans-88"/>
      <use x="285.986328" xlink:href="#DejaVuSans-51"/>
     </g>
    </g>
   </g>
   <g id="text_20">
    <g clip-path="url(#pe278b182e0)">
     <!-- NFKB1 -->
     <g transform="translate(422.34262 294.974184)scale(0.12 -0.12)">
      <use xlink:href="#DejaVuSans-78"/>
      <use x="74.804688" xlink:href="#DejaVuSans-70"/>
      <use x="132.324219" xlink:href="#DejaVuSans-75"/>
      <use x="197.900391" xlink:href="#DejaVuSans-66"/>
      <use x="266.503906" xlink:href="#DejaVuSans-49"/>
     </g>
    </g>
   </g>
   <g id="text_21">
    <g clip-path="url(#pe278b182e0)">
     <!-- RELA -->
     <g transform="translate(437.501372 296.190985)scale(0.12 -0.12)">
      <defs>
       <path d="M 9.8125 72.90625 
L 55.90625 72.90625 
L 55.90625 64.59375 
L 19.671875 64.59375 
L 19.671875 43.015625 
L 54.390625 43.015625 
L 54.390625 34.71875 
L 19.671875 34.71875 
L 19.671875 8.296875 
L 56.78125 8.296875 
L 56.78125 0 
L 9.8125 0 
z
" id="DejaVuSans-69"/>
      </defs>
      <use xlink:href="#DejaVuSans-82"/>
      <use x="69.482422" xlink:href="#DejaVuSans-69"/>
      <use x="132.666016" xlink:href="#DejaVuSans-76"/>
      <use x="190.628906" xlink:href="#DejaVuSans-65"/>
     </g>
    </g>
   </g>
   <g id="text_22">
    <g clip-path="url(#pe278b182e0)">
     <!-- NFKBIB -->
     <g transform="translate(697.616715 320.35716)scale(0.12 -0.12)">
      <use xlink:href="#DejaVuSans-78"/>
      <use x="74.804688" xlink:href="#DejaVuSans-70"/>
      <use x="132.324219" xlink:href="#DejaVuSans-75"/>
      <use x="197.900391" xlink:href="#DejaVuSans-66"/>
      <use x="266.503906" xlink:href="#DejaVuSans-73"/>
      <use x="295.996094" xlink:href="#DejaVuSans-66"/>
     </g>
    </g>
   </g>
   <g id="text_23">
    <g clip-path="url(#pe278b182e0)">
     <!-- NFKBIA -->
     <g transform="translate(144.240473 303.309157)scale(0.12 -0.12)">
      <use xlink:href="#DejaVuSans-78"/>
      <use x="74.804688" xlink:href="#DejaVuSans-70"/>
      <use x="132.324219" xlink:href="#DejaVuSans-75"/>
      <use x="197.900391" xlink:href="#DejaVuSans-66"/>
      <use x="266.503906" xlink:href="#DejaVuSans-73"/>
      <use x="295.996094" xlink:href="#DejaVuSans-65"/>
     </g>
    </g>
   </g>
   <g id="text_24">
    <g clip-path="url(#pe278b182e0)">
     <!-- NFKBIE -->
     <g transform="translate(435.543241 477.463977)scale(0.12 -0.12)">
      <use xlink:href="#DejaVuSans-78"/>
      <use x="74.804688" xlink:href="#DejaVuSans-70"/>
      <use x="132.324219" xlink:href="#DejaVuSans-75"/>
      <use x="197.900391" xlink:href="#DejaVuSans-66"/>
      <use x="266.503906" xlink:href="#DejaVuSans-73"/>
      <use x="295.996094" xlink:href="#DejaVuSans-69"/>
     </g>
    </g>
   </g>
   <g id="text_25">
    <g clip-path="url(#pe278b182e0)">
     <!-- IKBKB -->
     <g transform="translate(418.090579 369.690467)scale(0.12 -0.12)">
      <use xlink:href="#DejaVuSans-73"/>
      <use x="29.492188" xlink:href="#DejaVuSans-75"/>
      <use x="95.068359" xlink:href="#DejaVuSans-66"/>
      <use x="163.671875" xlink:href="#DejaVuSans-75"/>
      <use x="229.248047" xlink:href="#DejaVuSans-66"/>
     </g>
    </g>
   </g>
   <g id="text_26">
    <g clip-path="url(#pe278b182e0)">
     <!-- IKBKG -->
     <g transform="translate(425.973192 357.162127)scale(0.12 -0.12)">
      <use xlink:href="#DejaVuSans-73"/>
      <use x="29.492188" xlink:href="#DejaVuSans-75"/>
      <use x="95.068359" xlink:href="#DejaVuSans-66"/>
      <use x="163.671875" xlink:href="#DejaVuSans-75"/>
      <use x="229.248047" xlink:href="#DejaVuSans-71"/>
     </g>
    </g>
   </g>
   <g id="text_27">
    <g clip-path="url(#pe278b182e0)">
     <!-- NFATC2 -->
     <g transform="translate(425.196269 243.054941)scale(0.12 -0.12)">
      <use xlink:href="#DejaVuSans-78"/>
      <use x="74.804688" xlink:href="#DejaVuSans-70"/>
      <use x="123.199219" xlink:href="#DejaVuSans-65"/>
      <use x="183.857422" xlink:href="#DejaVuSans-84"/>
      <use x="239.066406" xlink:href="#DejaVuSans-67"/>
      <use x="308.890625" xlink:href="#DejaVuSans-50"/>
     </g>
    </g>
   </g>
   <g id="text_28">
    <g clip-path="url(#pe278b182e0)">
     <!-- NFATC1 -->
     <g transform="translate(410.292893 231.377511)scale(0.12 -0.12)">
      <use xlink:href="#DejaVuSans-78"/>
      <use x="74.804688" xlink:href="#DejaVuSans-70"/>
      <use x="123.199219" xlink:href="#DejaVuSans-65"/>
      <use x="183.857422" xlink:href="#DejaVuSans-84"/>
      <use x="239.066406" xlink:href="#DejaVuSans-67"/>
      <use x="308.890625" xlink:href="#DejaVuSans-49"/>
     </g>
    </g>
   </g>
   <g id="text_29">
    <g clip-path="url(#pe278b182e0)">
     <!-- NFATC3 -->
     <g transform="translate(388.78444 219.993419)scale(0.12 -0.12)">
      <use xlink:href="#DejaVuSans-78"/>
      <use x="74.804688" xlink:href="#DejaVuSans-70"/>
      <use x="123.199219" xlink:href="#DejaVuSans-65"/>
      <use x="183.857422" xlink:href="#DejaVuSans-84"/>
      <use x="239.066406" xlink:href="#DejaVuSans-67"/>
      <use x="308.890625" xlink:href="#DejaVuSans-51"/>
     </g>
    </g>
   </g>
   <g id="text_30">
    <g clip-path="url(#pe278b182e0)">
     <!-- IFNGR1 -->
     <g transform="translate(510.686958 164.437715)scale(0.12 -0.12)">
      <use xlink:href="#DejaVuSans-73"/>
      <use x="29.492188" xlink:href="#DejaVuSans-70"/>
      <use x="87.011719" xlink:href="#DejaVuSans-78"/>
      <use x="161.816406" xlink:href="#DejaVuSans-71"/>
      <use x="239.306641" xlink:href="#DejaVuSans-82"/>
      <use x="308.789062" xlink:href="#DejaVuSans-49"/>
     </g>
    </g>
   </g>
   <g id="text_31">
    <g clip-path="url(#pe278b182e0)">
     <!-- IFNGR2 -->
     <g transform="translate(514.591298 216.474914)scale(0.12 -0.12)">
      <use xlink:href="#DejaVuSans-73"/>
      <use x="29.492188" xlink:href="#DejaVuSans-70"/>
      <use x="87.011719" xlink:href="#DejaVuSans-78"/>
      <use x="161.816406" xlink:href="#DejaVuSans-71"/>
      <use x="239.306641" xlink:href="#DejaVuSans-82"/>
      <use x="308.789062" xlink:href="#DejaVuSans-50"/>
     </g>
    </g>
   </g>
   <g id="text_32">
    <g clip-path="url(#pe278b182e0)">
     <!-- IL12A -->
     <g transform="translate(234.588815 325.623441)scale(0.12 -0.12)">
      <use xlink:href="#DejaVuSans-73"/>
      <use x="29.492188" xlink:href="#DejaVuSans-76"/>
      <use x="85.205078" xlink:href="#DejaVuSans-49"/>
      <use x="148.828125" xlink:href="#DejaVuSans-50"/>
      <use x="212.451172" xlink:href="#DejaVuSans-65"/>
     </g>
    </g>
   </g>
   <g id="text_33">
    <g clip-path="url(#pe278b182e0)">
     <!-- IL12RB1 -->
     <g transform="translate(320.383503 296.834914)scale(0.12 -0.12)">
      <use xlink:href="#DejaVuSans-73"/>
      <use x="29.492188" xlink:href="#DejaVuSans-76"/>
      <use x="85.205078" xlink:href="#DejaVuSans-49"/>
      <use x="148.828125" xlink:href="#DejaVuSans-50"/>
      <use x="212.451172" xlink:href="#DejaVuSans-82"/>
      <use x="281.933594" xlink:href="#DejaVuSans-66"/>
      <use x="350.537109" xlink:href="#DejaVuSans-49"/>
     </g>
    </g>
   </g>
   <g id="text_34">
    <g clip-path="url(#pe278b182e0)">
     <!-- IL12RB2 -->
     <g transform="translate(301.034437 292.431852)scale(0.12 -0.12)">
      <use xlink:href="#DejaVuSans-73"/>
      <use x="29.492188" xlink:href="#DejaVuSans-76"/>
      <use x="85.205078" xlink:href="#DejaVuSans-49"/>
      <use x="148.828125" xlink:href="#DejaVuSans-50"/>
      <use x="212.451172" xlink:href="#DejaVuSans-82"/>
      <use x="281.933594" xlink:href="#DejaVuSans-66"/>
      <use x="350.537109" xlink:href="#DejaVuSans-50"/>
     </g>
    </g>
   </g>
   <g id="text_35">
    <g clip-path="url(#pe278b182e0)">
     <!-- IL2RB -->
     <g transform="translate(445.030938 224.607039)scale(0.12 -0.12)">
      <use xlink:href="#DejaVuSans-73"/>
      <use x="29.492188" xlink:href="#DejaVuSans-76"/>
      <use x="85.205078" xlink:href="#DejaVuSans-50"/>
      <use x="148.828125" xlink:href="#DejaVuSans-82"/>
      <use x="218.310547" xlink:href="#DejaVuSans-66"/>
     </g>
    </g>
   </g>
   <g id="text_36">
    <g clip-path="url(#pe278b182e0)">
     <!-- IL2RG -->
     <g transform="translate(426.993238 197.012561)scale(0.12 -0.12)">
      <use xlink:href="#DejaVuSans-73"/>
      <use x="29.492188" xlink:href="#DejaVuSans-76"/>
      <use x="85.205078" xlink:href="#DejaVuSans-50"/>
      <use x="148.828125" xlink:href="#DejaVuSans-82"/>
      <use x="218.310547" xlink:href="#DejaVuSans-71"/>
     </g>
    </g>
   </g>
   <g id="text_37">
    <g clip-path="url(#pe278b182e0)">
     <!-- STAT5A -->
     <g transform="translate(477.346966 233.314635)scale(0.12 -0.12)">
      <defs>
       <path d="M 10.796875 72.90625 
L 49.515625 72.90625 
L 49.515625 64.59375 
L 19.828125 64.59375 
L 19.828125 46.734375 
Q 21.96875 47.46875 24.109375 47.828125 
Q 26.265625 48.1875 28.421875 48.1875 
Q 40.625 48.1875 47.75 41.5 
Q 54.890625 34.8125 54.890625 23.390625 
Q 54.890625 11.625 47.5625 5.09375 
Q 40.234375 -1.421875 26.90625 -1.421875 
Q 22.3125 -1.421875 17.546875 -0.640625 
Q 12.796875 0.140625 7.71875 1.703125 
L 7.71875 11.625 
Q 12.109375 9.234375 16.796875 8.0625 
Q 21.484375 6.890625 26.703125 6.890625 
Q 35.15625 6.890625 40.078125 11.328125 
Q 45.015625 15.765625 45.015625 23.390625 
Q 45.015625 31 40.078125 35.4375 
Q 35.15625 39.890625 26.703125 39.890625 
Q 22.75 39.890625 18.8125 39.015625 
Q 14.890625 38.140625 10.796875 36.28125 
z
" id="DejaVuSans-53"/>
      </defs>
      <use xlink:href="#DejaVuSans-83"/>
      <use x="63.476562" xlink:href="#DejaVuSans-84"/>
      <use x="116.810547" xlink:href="#DejaVuSans-65"/>
      <use x="177.46875" xlink:href="#DejaVuSans-84"/>
      <use x="238.552734" xlink:href="#DejaVuSans-53"/>
      <use x="302.175781" xlink:href="#DejaVuSans-65"/>
     </g>
    </g>
   </g>
   <g id="text_38">
    <g clip-path="url(#pe278b182e0)">
     <!-- STAT5B -->
     <g transform="translate(468.3139 264.465389)scale(0.12 -0.12)">
      <use xlink:href="#DejaVuSans-83"/>
      <use x="63.476562" xlink:href="#DejaVuSans-84"/>
      <use x="116.810547" xlink:href="#DejaVuSans-65"/>
      <use x="177.46875" xlink:href="#DejaVuSans-84"/>
      <use x="238.552734" xlink:href="#DejaVuSans-53"/>
      <use x="302.175781" xlink:href="#DejaVuSans-66"/>
     </g>
    </g>
   </g>
   <g id="text_39">
    <g clip-path="url(#pe278b182e0)">
     <!-- JAK1 -->
     <g transform="translate(692.082605 208.682532)scale(0.12 -0.12)">
      <use xlink:href="#DejaVuSans-74"/>
      <use x="27.742188" xlink:href="#DejaVuSans-65"/>
      <use x="96.150391" xlink:href="#DejaVuSans-75"/>
      <use x="161.726562" xlink:href="#DejaVuSans-49"/>
     </g>
    </g>
   </g>
   <g id="text_40">
    <g clip-path="url(#pe278b182e0)">
     <!-- JAK3 -->
     <g transform="translate(164.705987 223.957594)scale(0.12 -0.12)">
      <use xlink:href="#DejaVuSans-74"/>
      <use x="27.742188" xlink:href="#DejaVuSans-65"/>
      <use x="96.150391" xlink:href="#DejaVuSans-75"/>
      <use x="161.726562" xlink:href="#DejaVuSans-51"/>
     </g>
    </g>
   </g>
   <g id="text_41">
    <!-- Frame: 11 -->
    <g transform="translate(121.392 91.296)scale(0.1 -0.1)">
     <defs>
      <path d="M 41.109375 46.296875 
Q 39.59375 47.171875 37.8125 47.578125 
Q 36.03125 48 33.890625 48 
Q 26.265625 48 22.1875 43.046875 
Q 18.109375 38.09375 18.109375 28.8125 
L 18.109375 0 
L 9.078125 0 
L 9.078125 54.6875 
L 18.109375 54.6875 
L 18.109375 46.1875 
Q 20.953125 51.171875 25.484375 53.578125 
Q 30.03125 56 36.53125 56 
Q 37.453125 56 38.578125 55.875 
Q 39.703125 55.765625 41.0625 55.515625 
z
" id="DejaVuSans-114"/>
      <path d="M 34.28125 27.484375 
Q 23.390625 27.484375 19.1875 25 
Q 14.984375 22.515625 14.984375 16.5 
Q 14.984375 11.71875 18.140625 8.90625 
Q 21.296875 6.109375 26.703125 6.109375 
Q 34.1875 6.109375 38.703125 11.40625 
Q 43.21875 16.703125 43.21875 25.484375 
L 43.21875 27.484375 
z
M 52.203125 31.203125 
L 52.203125 0 
L 43.21875 0 
L 43.21875 8.296875 
Q 40.140625 3.328125 35.546875 0.953125 
Q 30.953125 -1.421875 24.3125 -1.421875 
Q 15.921875 -1.421875 10.953125 3.296875 
Q 6 8.015625 6 15.921875 
Q 6 25.140625 12.171875 29.828125 
Q 18.359375 34.515625 30.609375 34.515625 
L 43.21875 34.515625 
L 43.21875 35.40625 
Q 43.21875 41.609375 39.140625 45 
Q 35.0625 48.390625 27.6875 48.390625 
Q 23 48.390625 18.546875 47.265625 
Q 14.109375 46.140625 10.015625 43.890625 
L 10.015625 52.203125 
Q 14.9375 54.109375 19.578125 55.046875 
Q 24.21875 56 28.609375 56 
Q 40.484375 56 46.34375 49.84375 
Q 52.203125 43.703125 52.203125 31.203125 
z
" id="DejaVuSans-97"/>
      <path d="M 52 44.1875 
Q 55.375 50.25 60.0625 53.125 
Q 64.75 56 71.09375 56 
Q 79.640625 56 84.28125 50.015625 
Q 88.921875 44.046875 88.921875 33.015625 
L 88.921875 0 
L 79.890625 0 
L 79.890625 32.71875 
Q 79.890625 40.578125 77.09375 44.375 
Q 74.3125 48.1875 68.609375 48.1875 
Q 61.625 48.1875 57.5625 43.546875 
Q 53.515625 38.921875 53.515625 30.90625 
L 53.515625 0 
L 44.484375 0 
L 44.484375 32.71875 
Q 44.484375 40.625 41.703125 44.40625 
Q 38.921875 48.1875 33.109375 48.1875 
Q 26.21875 48.1875 22.15625 43.53125 
Q 18.109375 38.875 18.109375 30.90625 
L 18.109375 0 
L 9.078125 0 
L 9.078125 54.6875 
L 18.109375 54.6875 
L 18.109375 46.1875 
Q 21.1875 51.21875 25.484375 53.609375 
Q 29.78125 56 35.6875 56 
Q 41.65625 56 45.828125 52.96875 
Q 50 49.953125 52 44.1875 
z
" id="DejaVuSans-109"/>
      <path d="M 56.203125 29.59375 
L 56.203125 25.203125 
L 14.890625 25.203125 
Q 15.484375 15.921875 20.484375 11.0625 
Q 25.484375 6.203125 34.421875 6.203125 
Q 39.59375 6.203125 44.453125 7.46875 
Q 49.3125 8.734375 54.109375 11.28125 
L 54.109375 2.78125 
Q 49.265625 0.734375 44.1875 -0.34375 
Q 39.109375 -1.421875 33.890625 -1.421875 
Q 20.796875 -1.421875 13.15625 6.1875 
Q 5.515625 13.8125 5.515625 26.8125 
Q 5.515625 40.234375 12.765625 48.109375 
Q 20.015625 56 32.328125 56 
Q 43.359375 56 49.78125 48.890625 
Q 56.203125 41.796875 56.203125 29.59375 
z
M 47.21875 32.234375 
Q 47.125 39.59375 43.09375 43.984375 
Q 39.0625 48.390625 32.421875 48.390625 
Q 24.90625 48.390625 20.390625 44.140625 
Q 15.875 39.890625 15.1875 32.171875 
z
" id="DejaVuSans-101"/>
      <path d="M 11.71875 12.40625 
L 22.015625 12.40625 
L 22.015625 0 
L 11.71875 0 
z
M 11.71875 51.703125 
L 22.015625 51.703125 
L 22.015625 39.3125 
L 11.71875 39.3125 
z
" id="DejaVuSans-58"/>
      <path id="DejaVuSans-32"/>
     </defs>
     <use xlink:href="#DejaVuSans-70"/>
     <use x="50.269531" xlink:href="#DejaVuSans-114"/>
     <use x="91.382812" xlink:href="#DejaVuSans-97"/>
     <use x="152.662109" xlink:href="#DejaVuSans-109"/>
     <use x="250.074219" xlink:href="#DejaVuSans-101"/>
     <use x="311.597656" xlink:href="#DejaVuSans-58"/>
     <use x="345.289062" xlink:href="#DejaVuSans-32"/>
     <use x="377.076172" xlink:href="#DejaVuSans-49"/>
     <use x="440.699219" xlink:href="#DejaVuSans-49"/>
    </g>
   </g>
   <g id="text_42">
    <!-- Network: hsa04658 -->
    <g transform="translate(384.1275 63.12)scale(0.12 -0.12)">
     <defs>
      <path d="M 18.3125 70.21875 
L 18.3125 54.6875 
L 36.8125 54.6875 
L 36.8125 47.703125 
L 18.3125 47.703125 
L 18.3125 18.015625 
Q 18.3125 11.328125 20.140625 9.421875 
Q 21.96875 7.515625 27.59375 7.515625 
L 36.8125 7.515625 
L 36.8125 0 
L 27.59375 0 
Q 17.1875 0 13.234375 3.875 
Q 9.28125 7.765625 9.28125 18.015625 
L 9.28125 47.703125 
L 2.6875 47.703125 
L 2.6875 54.6875 
L 9.28125 54.6875 
L 9.28125 70.21875 
z
" id="DejaVuSans-116"/>
      <path d="M 4.203125 54.6875 
L 13.1875 54.6875 
L 24.421875 12.015625 
L 35.59375 54.6875 
L 46.1875 54.6875 
L 57.421875 12.015625 
L 68.609375 54.6875 
L 77.59375 54.6875 
L 63.28125 0 
L 52.6875 0 
L 40.921875 44.828125 
L 29.109375 0 
L 18.5 0 
z
" id="DejaVuSans-119"/>
      <path d="M 30.609375 48.390625 
Q 23.390625 48.390625 19.1875 42.75 
Q 14.984375 37.109375 14.984375 27.296875 
Q 14.984375 17.484375 19.15625 11.84375 
Q 23.34375 6.203125 30.609375 6.203125 
Q 37.796875 6.203125 41.984375 11.859375 
Q 46.1875 17.53125 46.1875 27.296875 
Q 46.1875 37.015625 41.984375 42.703125 
Q 37.796875 48.390625 30.609375 48.390625 
z
M 30.609375 56 
Q 42.328125 56 49.015625 48.375 
Q 55.71875 40.765625 55.71875 27.296875 
Q 55.71875 13.875 49.015625 6.21875 
Q 42.328125 -1.421875 30.609375 -1.421875 
Q 18.84375 -1.421875 12.171875 6.21875 
Q 5.515625 13.875 5.515625 27.296875 
Q 5.515625 40.765625 12.171875 48.375 
Q 18.84375 56 30.609375 56 
z
" id="DejaVuSans-111"/>
      <path d="M 9.078125 75.984375 
L 18.109375 75.984375 
L 18.109375 31.109375 
L 44.921875 54.6875 
L 56.390625 54.6875 
L 27.390625 29.109375 
L 57.625 0 
L 45.90625 0 
L 18.109375 26.703125 
L 18.109375 0 
L 9.078125 0 
z
" id="DejaVuSans-107"/>
      <path d="M 54.890625 33.015625 
L 54.890625 0 
L 45.90625 0 
L 45.90625 32.71875 
Q 45.90625 40.484375 42.875 44.328125 
Q 39.84375 48.1875 33.796875 48.1875 
Q 26.515625 48.1875 22.3125 43.546875 
Q 18.109375 38.921875 18.109375 30.90625 
L 18.109375 0 
L 9.078125 0 
L 9.078125 75.984375 
L 18.109375 75.984375 
L 18.109375 46.1875 
Q 21.34375 51.125 25.703125 53.5625 
Q 30.078125 56 35.796875 56 
Q 45.21875 56 50.046875 50.171875 
Q 54.890625 44.34375 54.890625 33.015625 
z
" id="DejaVuSans-104"/>
      <path d="M 44.28125 53.078125 
L 44.28125 44.578125 
Q 40.484375 46.53125 36.375 47.5 
Q 32.28125 48.484375 27.875 48.484375 
Q 21.1875 48.484375 17.84375 46.4375 
Q 14.5 44.390625 14.5 40.28125 
Q 14.5 37.15625 16.890625 35.375 
Q 19.28125 33.59375 26.515625 31.984375 
L 29.59375 31.296875 
Q 39.15625 29.25 43.1875 25.515625 
Q 47.21875 21.78125 47.21875 15.09375 
Q 47.21875 7.46875 41.1875 3.015625 
Q 35.15625 -1.421875 24.609375 -1.421875 
Q 20.21875 -1.421875 15.453125 -0.5625 
Q 10.6875 0.296875 5.421875 2 
L 5.421875 11.28125 
Q 10.40625 8.6875 15.234375 7.390625 
Q 20.0625 6.109375 24.8125 6.109375 
Q 31.15625 6.109375 34.5625 8.28125 
Q 37.984375 10.453125 37.984375 14.40625 
Q 37.984375 18.0625 35.515625 20.015625 
Q 33.0625 21.96875 24.703125 23.78125 
L 21.578125 24.515625 
Q 13.234375 26.265625 9.515625 29.90625 
Q 5.8125 33.546875 5.8125 39.890625 
Q 5.8125 47.609375 11.28125 51.796875 
Q 16.75 56 26.8125 56 
Q 31.78125 56 36.171875 55.265625 
Q 40.578125 54.546875 44.28125 53.078125 
z
" id="DejaVuSans-115"/>
      <path d="M 31.78125 34.625 
Q 24.75 34.625 20.71875 30.859375 
Q 16.703125 27.09375 16.703125 20.515625 
Q 16.703125 13.921875 20.71875 10.15625 
Q 24.75 6.390625 31.78125 6.390625 
Q 38.8125 6.390625 42.859375 10.171875 
Q 46.921875 13.96875 46.921875 20.515625 
Q 46.921875 27.09375 42.890625 30.859375 
Q 38.875 34.625 31.78125 34.625 
z
M 21.921875 38.8125 
Q 15.578125 40.375 12.03125 44.71875 
Q 8.5 49.078125 8.5 55.328125 
Q 8.5 64.0625 14.71875 69.140625 
Q 20.953125 74.21875 31.78125 74.21875 
Q 42.671875 74.21875 48.875 69.140625 
Q 55.078125 64.0625 55.078125 55.328125 
Q 55.078125 49.078125 51.53125 44.71875 
Q 48 40.375 41.703125 38.8125 
Q 48.828125 37.15625 52.796875 32.3125 
Q 56.78125 27.484375 56.78125 20.515625 
Q 56.78125 9.90625 50.3125 4.234375 
Q 43.84375 -1.421875 31.78125 -1.421875 
Q 19.734375 -1.421875 13.25 4.234375 
Q 6.78125 9.90625 6.78125 20.515625 
Q 6.78125 27.484375 10.78125 32.3125 
Q 14.796875 37.15625 21.921875 38.8125 
z
M 18.3125 54.390625 
Q 18.3125 48.734375 21.84375 45.5625 
Q 25.390625 42.390625 31.78125 42.390625 
Q 38.140625 42.390625 41.71875 45.5625 
Q 45.3125 48.734375 45.3125 54.390625 
Q 45.3125 60.0625 41.71875 63.234375 
Q 38.140625 66.40625 31.78125 66.40625 
Q 25.390625 66.40625 21.84375 63.234375 
Q 18.3125 60.0625 18.3125 54.390625 
z
" id="DejaVuSans-56"/>
     </defs>
     <use xlink:href="#DejaVuSans-78"/>
     <use x="74.804688" xlink:href="#DejaVuSans-101"/>
     <use x="136.328125" xlink:href="#DejaVuSans-116"/>
     <use x="175.537109" xlink:href="#DejaVuSans-119"/>
     <use x="257.324219" xlink:href="#DejaVuSans-111"/>
     <use x="318.505859" xlink:href="#DejaVuSans-114"/>
     <use x="359.619141" xlink:href="#DejaVuSans-107"/>
     <use x="417.529297" xlink:href="#DejaVuSans-58"/>
     <use x="451.220703" xlink:href="#DejaVuSans-32"/>
     <use x="483.007812" xlink:href="#DejaVuSans-104"/>
     <use x="546.386719" xlink:href="#DejaVuSans-115"/>
     <use x="598.486328" xlink:href="#DejaVuSans-97"/>
     <use x="659.765625" xlink:href="#DejaVuSans-48"/>
     <use x="723.388672" xlink:href="#DejaVuSans-52"/>
     <use x="787.011719" xlink:href="#DejaVuSans-54"/>
     <use x="850.634766" xlink:href="#DejaVuSans-53"/>
     <use x="914.257812" xlink:href="#DejaVuSans-56"/>
    </g>
   </g>
  </g>
 </g>
 <defs>
  <clipPath id="pe278b182e0">
   <rect height="443.52" width="669.6" x="108" y="69.12"/>
  </clipPath>
 </defs>
</svg>
