<?xml version="1.0" encoding="utf-8" standalone="no"?>
<!DOCTYPE svg PUBLIC "-//W3C//DTD SVG 1.1//EN"
  "http://www.w3.org/Graphics/SVG/1.1/DTD/svg11.dtd">
<!-- Created with matplotlib (https://matplotlib.org/) -->
<svg height="605.518125pt" version="1.1" viewBox="0 0 878.4 605.518125" width="878.4pt" xmlns="http://www.w3.org/2000/svg" xmlns:xlink="http://www.w3.org/1999/xlink">
 <metadata>
  <rdf:RDF xmlns:cc="http://creativecommons.org/ns#" xmlns:dc="http://purl.org/dc/elements/1.1/" xmlns:rdf="http://www.w3.org/1999/02/22-rdf-syntax-ns#">
   <cc:Work>
    <dc:type rdf:resource="http://purl.org/dc/dcmitype/StillImage"/>
    <dc:date>2024-04-04T19:54:55.525575</dc:date>
    <dc:format>image/svg+xml</dc:format>
    <dc:creator>
     <cc:Agent>
      <dc:title>Matplotlib v3.3.1, https://matplotlib.org/</dc:title>
     </cc:Agent>
    </dc:creator>
   </cc:Work>
  </rdf:RDF>
 </metadata>
 <defs>
  <style type="text/css">*{stroke-linecap:butt;stroke-linejoin:round;}</style>
 </defs>
 <g id="figure_1">
  <g id="patch_1">
   <path d="M 0 605.518125 
L 878.4 605.518125 
L 878.4 0 
L 0 0 
z
" style="fill:#ffffff;"/>
  </g>
  <g id="axes_1">
   <g id="patch_2">
    <path clip-path="url(#pa6e39b4c1f)" d="M 405.270009 336.182173 
Q 345.91112 209.305206 287.026011 83.440924 
" style="fill:none;stroke:#808080;stroke-linecap:round;"/>
    <path clip-path="url(#pa6e39b4c1f)" d="M 286.909515 87.911542 
L 287.026011 83.440924 
L 290.532608 86.216492 
L 286.909515 87.911542 
z
" style="fill:#808080;stroke:#808080;stroke-linecap:round;"/>
   </g>
   <g id="patch_3">
    <path clip-path="url(#pa6e39b4c1f)" d="M 420.930618 343.920927 
Q 603.081232 304.02473 784.139701 264.367744 
" style="fill:none;stroke:#808080;stroke-linecap:round;"/>
    <path clip-path="url(#pa6e39b4c1f)" d="M 779.804415 263.269884 
L 784.139701 264.367744 
L 780.660241 267.177256 
L 779.804415 263.269884 
z
" style="fill:#808080;stroke:#808080;stroke-linecap:round;"/>
   </g>
   <g id="patch_4">
    <path clip-path="url(#pa6e39b4c1f)" d="M 399.925955 351.141373 
Q 278.210299 409.423294 157.503033 467.22236 
" style="fill:none;stroke:#808080;stroke-linecap:round;"/>
    <path clip-path="url(#pa6e39b4c1f)" d="M 161.974518 467.298712 
L 157.503033 467.22236 
L 160.247005 463.690984 
L 161.974518 467.298712 
z
" style="fill:#808080;stroke:#808080;stroke-linecap:round;"/>
   </g>
   <g id="patch_5">
    <path clip-path="url(#pa6e39b4c1f)" d="M 406.480638 356.922026 
Q 376.942158 445.722232 347.756568 533.461558 
" style="fill:none;stroke:#808080;stroke-linecap:round;"/>
    <path clip-path="url(#pa6e39b4c1f)" d="M 350.916871 530.297307 
L 347.756568 533.461558 
L 347.121348 529.034765 
L 350.916871 530.297307 
z
" style="fill:#808080;stroke:#808080;stroke-linecap:round;"/>
   </g>
   <g id="patch_6">
    <path clip-path="url(#pa6e39b4c1f)" d="M 401.634072 353.719962 
Q 330.939863 416.239157 261.083162 478.017693 
" style="fill:none;stroke:#808080;stroke-linecap:round;"/>
    <path clip-path="url(#pa6e39b4c1f)" d="M 265.404461 476.866007 
L 261.083162 478.017693 
L 262.754593 473.869643 
L 265.404461 476.866007 
z
" style="fill:#808080;stroke:#808080;stroke-linecap:round;"/>
   </g>
   <g id="patch_7">
    <path clip-path="url(#pa6e39b4c1f)" d="M 419.222429 352.652748 
Q 519.588035 421.719754 619.032615 490.152952 
" style="fill:none;stroke:#808080;stroke-linecap:round;"/>
    <path clip-path="url(#pa6e39b4c1f)" d="M 616.871243 486.237793 
L 619.032615 490.152952 
L 614.603665 489.532954 
L 616.871243 486.237793 
z
" style="fill:#808080;stroke:#808080;stroke-linecap:round;"/>
   </g>
   <g id="patch_8">
    <path clip-path="url(#pa6e39b4c1f)" d="M 403.58342 337.158251 
Q 364.684209 281.743146 326.427352 227.243126 
" style="fill:none;stroke:#808080;stroke-linecap:round;"/>
    <path clip-path="url(#pa6e39b4c1f)" d="M 327.088552 231.666113 
L 326.427352 227.243126 
L 330.362462 229.367958 
L 327.088552 231.666113 
z
" style="fill:#808080;stroke:#808080;stroke-linecap:round;"/>
   </g>
   <g id="patch_9">
    <path clip-path="url(#pa6e39b4c1f)" d="M 406.52471 335.687199 
Q 385.947605 272.946624 365.718923 211.268405 
" style="fill:none;stroke:#808080;stroke-linecap:round;"/>
    <path clip-path="url(#pa6e39b4c1f)" d="M 365.065075 215.692485 
L 365.718923 211.268405 
L 368.865878 214.445931 
L 365.065075 215.692485 
z
" style="fill:#808080;stroke:#808080;stroke-linecap:round;"/>
   </g>
   <g id="patch_10">
    <path clip-path="url(#pa6e39b4c1f)" d="M 743.568372 444.327706 
Q 766.397457 415.889175 788.526649 388.322511 
" style="fill:none;stroke:#808080;stroke-linecap:round;"/>
    <path clip-path="url(#pa6e39b4c1f)" d="M 784.462997 390.189789 
L 788.526649 388.322511 
L 787.58228 392.6938 
L 784.462997 390.189789 
z
" style="fill:#808080;stroke:#808080;stroke-linecap:round;"/>
   </g>
   <g id="patch_11">
    <path clip-path="url(#pa6e39b4c1f)" d="M 602.821194 179.960818 
Q 510.647588 259.485485 419.320499 338.279803 
" style="fill:none;stroke:#808080;stroke-linecap:round;"/>
    <path clip-path="url(#pa6e39b4c1f)" d="M 423.655576 337.18112 
L 419.320499 338.279803 
L 421.042599 334.152531 
L 423.655576 337.18112 
z
" style="fill:#808080;stroke:#808080;stroke-linecap:round;"/>
   </g>
   <g id="patch_12">
    <path clip-path="url(#pa6e39b4c1f)" d="M 321.334522 343.62382 
Q 427.912973 442.182453 533.670574 539.982004 
" style="fill:none;stroke:#808080;stroke-linecap:round;"/>
    <path clip-path="url(#pa6e39b4c1f)" d="M 532.091701 535.797848 
L 533.670574 539.982004 
L 529.375926 538.734609 
L 532.091701 535.797848 
z
" style="fill:#808080;stroke:#808080;stroke-linecap:round;"/>
   </g>
   <g id="patch_13">
    <path clip-path="url(#pa6e39b4c1f)" d="M 307.663366 326.282752 
Q 244.561646 213.661564 182.006424 102.015743 
" style="fill:none;stroke:#808080;stroke-linecap:round;"/>
    <path clip-path="url(#pa6e39b4c1f)" d="M 182.216848 106.482926 
L 182.006424 102.015743 
L 185.706424 104.527714 
L 182.216848 106.482926 
z
" style="fill:#808080;stroke:#808080;stroke-linecap:round;"/>
   </g>
   <g id="patch_14">
    <path clip-path="url(#pa6e39b4c1f)" d="M 308.387782 215.040991 
Q 209.559236 195.796711 111.828112 176.766126 
" style="fill:none;stroke:#808080;stroke-linecap:round;"/>
    <path clip-path="url(#pa6e39b4c1f)" d="M 115.3721 179.493789 
L 111.828112 176.766126 
L 116.136636 175.567534 
L 115.3721 179.493789 
z
" style="fill:#808080;stroke:#808080;stroke-linecap:round;"/>
   </g>
   <g id="patch_15">
    <path clip-path="url(#pa6e39b4c1f)" d="M 316.558069 206.359071 
Q 300.588527 144.740826 284.899478 84.204858 
" style="fill:none;stroke:#808080;stroke-linecap:round;"/>
    <path clip-path="url(#pa6e39b4c1f)" d="M 283.966963 88.578691 
L 284.899478 84.204858 
L 287.839035 87.57517 
L 283.966963 88.578691 
z
" style="fill:#808080;stroke:#808080;stroke-linecap:round;"/>
   </g>
   <g id="patch_16">
    <path clip-path="url(#pa6e39b4c1f)" d="M 330.531539 217.612901 
Q 423.844729 221.246753 516.040731 224.837098 
" style="fill:none;stroke:#808080;stroke-linecap:round;"/>
    <path clip-path="url(#pa6e39b4c1f)" d="M 512.121587 222.682961 
L 516.040731 224.837098 
L 511.965934 226.679931 
L 512.121587 222.682961 
z
" style="fill:#808080;stroke:#808080;stroke-linecap:round;"/>
   </g>
   <g id="patch_17">
    <path clip-path="url(#pa6e39b4c1f)" d="M 330.298922 219.511325 
Q 458.757847 246.918023 586.123347 274.091438 
" style="fill:none;stroke:#808080;stroke-linecap:round;"/>
    <path clip-path="url(#pa6e39b4c1f)" d="M 582.628697 271.300843 
L 586.123347 274.091438 
L 581.794081 275.212801 
L 582.628697 271.300843 
z
" style="fill:#808080;stroke:#808080;stroke-linecap:round;"/>
   </g>
   <g id="patch_18">
    <path clip-path="url(#pa6e39b4c1f)" d="M 308.790349 220.818605 
Q 200.768136 258.01945 93.803028 294.856248 
" style="fill:none;stroke:#808080;stroke-linecap:round;"/>
    <path clip-path="url(#pa6e39b4c1f)" d="M 98.236267 295.444799 
L 93.803028 294.856248 
L 96.933812 291.662787 
L 98.236267 295.444799 
z
" style="fill:#808080;stroke:#808080;stroke-linecap:round;"/>
   </g>
   <g id="patch_19">
    <path clip-path="url(#pa6e39b4c1f)" d="M 350.755886 198.516724 
Q 230.819594 187.000353 111.996218 175.590845 
" style="fill:none;stroke:#808080;stroke-linecap:round;"/>
    <path clip-path="url(#pa6e39b4c1f)" d="M 115.786742 177.964012 
L 111.996218 175.590845 
L 116.169067 173.982326 
L 115.786742 177.964012 
z
" style="fill:#808080;stroke:#808080;stroke-linecap:round;"/>
   </g>
   <g id="patch_20">
    <path clip-path="url(#pa6e39b4c1f)" d="M 355.93217 190.11929 
Q 321.851125 135.943933 288.365416 82.714924 
" style="fill:none;stroke:#808080;stroke-linecap:round;"/>
    <path clip-path="url(#pa6e39b4c1f)" d="M 288.802476 87.165652 
L 288.365416 82.714924 
L 292.188234 85.035713 
L 288.802476 87.165652 
z
" style="fill:#808080;stroke:#808080;stroke-linecap:round;"/>
   </g>
   <g id="patch_21">
    <path clip-path="url(#pa6e39b4c1f)" d="M 372.937455 201.293811 
Q 445.110518 212.451025 516.178673 223.437431 
" style="fill:none;stroke:#808080;stroke-linecap:round;"/>
    <path clip-path="url(#pa6e39b4c1f)" d="M 512.531179 220.849809 
L 516.178673 223.437431 
L 511.920079 224.802853 
L 512.531179 220.849809 
z
" style="fill:#808080;stroke:#808080;stroke-linecap:round;"/>
   </g>
   <g id="patch_22">
    <path clip-path="url(#pa6e39b4c1f)" d="M 372.518665 203.053654 
Q 480.020137 238.12195 586.458701 272.843511 
" style="fill:none;stroke:#808080;stroke-linecap:round;"/>
    <path clip-path="url(#pa6e39b4c1f)" d="M 583.276178 269.701609 
L 586.458701 272.843511 
L 582.035665 273.504388 
L 583.276178 269.701609 
z
" style="fill:#808080;stroke:#808080;stroke-linecap:round;"/>
   </g>
   <g id="patch_23">
    <path clip-path="url(#pa6e39b4c1f)" d="M 351.34943 203.325654 
Q 222.029895 249.223591 93.764001 294.747572 
" style="fill:none;stroke:#808080;stroke-linecap:round;"/>
    <path clip-path="url(#pa6e39b4c1f)" d="M 98.20257 295.294473 
L 93.764001 294.747572 
L 96.864663 291.524857 
L 98.20257 295.294473 
z
" style="fill:#808080;stroke:#808080;stroke-linecap:round;"/>
   </g>
   <g id="patch_24">
    <path clip-path="url(#pa6e39b4c1f)" d="M 586.197242 98.579271 
Q 651.890387 199.247767 716.972527 298.979956 
" style="fill:none;stroke:#808080;stroke-linecap:round;"/>
    <path clip-path="url(#pa6e39b4c1f)" d="M 716.461446 294.537119 
L 716.972527 298.979956 
L 713.111609 296.723119 
L 716.461446 294.537119 
z
" style="fill:#808080;stroke:#808080;stroke-linecap:round;"/>
   </g>
   <g id="patch_25">
    <path clip-path="url(#pa6e39b4c1f)" d="M 521.077538 112.983468 
Q 618.371776 207.243244 714.863021 300.725072 
" style="fill:none;stroke:#808080;stroke-linecap:round;"/>
    <path clip-path="url(#pa6e39b4c1f)" d="M 713.381784 296.505364 
L 714.863021 300.725072 
L 710.598512 299.378236 
L 713.381784 296.505364 
z
" style="fill:#808080;stroke:#808080;stroke-linecap:round;"/>
   </g>
   <g id="patch_26">
    <path clip-path="url(#pa6e39b4c1f)" d="M 518.388248 230.429488 
Q 420.729673 280.673546 324.065271 330.406115 
" style="fill:none;stroke:#808080;stroke-linecap:round;"/>
    <path clip-path="url(#pa6e39b4c1f)" d="M 328.53711 330.354587 
L 324.065271 330.406115 
L 326.707152 326.797727 
L 328.53711 330.354587 
z
" style="fill:#808080;stroke:#808080;stroke-linecap:round;"/>
   </g>
   <g id="patch_27">
    <path clip-path="url(#pa6e39b4c1f)" d="M 587.203015 278.937697 
Q 455.637182 306.34575 325.165885 333.525788 
" style="fill:none;stroke:#808080;stroke-linecap:round;"/>
    <path clip-path="url(#pa6e39b4c1f)" d="M 329.489702 334.667978 
L 325.165885 333.525788 
L 328.673928 330.752048 
L 329.489702 334.667978 
z
" style="fill:#808080;stroke:#808080;stroke-linecap:round;"/>
   </g>
   <g id="patch_28">
    <path clip-path="url(#pa6e39b4c1f)" d="M 93.216033 300.637744 
Q 197.653212 317.447566 300.986564 334.07972 
" style="fill:none;stroke:#808080;stroke-linecap:round;"/>
    <path clip-path="url(#pa6e39b4c1f)" d="M 297.355215 331.46949 
L 300.986564 334.07972 
L 296.719571 335.418661 
L 297.355215 331.46949 
z
" style="fill:#808080;stroke:#808080;stroke-linecap:round;"/>
   </g>
   <g id="patch_29">
    <path clip-path="url(#pa6e39b4c1f)" d="M 120.755317 377.550986 
Q 211.476927 357.971647 301.105665 338.628169 
" style="fill:none;stroke:#808080;stroke-linecap:round;"/>
    <path clip-path="url(#pa6e39b4c1f)" d="M 296.773766 337.517023 
L 301.105665 338.628169 
L 297.617609 341.427001 
L 296.773766 337.517023 
z
" style="fill:#808080;stroke:#808080;stroke-linecap:round;"/>
   </g>
   <g id="patch_30">
    <path clip-path="url(#pa6e39b4c1f)" d="M 197.144146 380.623999 
Q 249.916498 360.335367 301.645283 340.447941 
" style="fill:none;stroke:#808080;stroke-linecap:round;"/>
    <path clip-path="url(#pa6e39b4c1f)" d="M 297.194002 340.016546 
L 301.645283 340.447941 
L 298.629399 343.750129 
L 297.194002 340.016546 
z
" style="fill:#808080;stroke:#808080;stroke-linecap:round;"/>
   </g>
   <g id="patch_31">
    <path clip-path="url(#pa6e39b4c1f)" d="M 495.823209 332.758807 
Q 410.063035 334.296124 325.420715 335.813402 
" style="fill:none;stroke:#808080;stroke-linecap:round;"/>
    <path clip-path="url(#pa6e39b4c1f)" d="M 329.455918 337.741389 
L 325.420715 335.813402 
L 329.384227 333.742032 
L 329.455918 337.741389 
z
" style="fill:#808080;stroke:#808080;stroke-linecap:round;"/>
   </g>
   <g id="PathCollection_1">
    <defs>
     <path d="M 0 11.18034 
C 2.965061 11.18034 5.80908 10.002309 7.905694 7.905694 
C 10.002309 5.80908 11.18034 2.965061 11.18034 -0 
C 11.18034 -2.965061 10.002309 -5.80908 7.905694 -7.905694 
C 5.80908 -10.002309 2.965061 -11.18034 0 -11.18034 
C -2.965061 -11.18034 -5.80908 -10.002309 -7.905694 -7.905694 
C -10.002309 -5.80908 -11.18034 -2.965061 -11.18034 0 
C -11.18034 2.965061 -10.002309 5.80908 -7.905694 7.905694 
C -5.80908 10.002309 -2.965061 11.18034 0 11.18034 
z
" id="C0_0_70f1b752d3"/>
    </defs>
    <g clip-path="url(#pa6e39b4c1f)">
     <use style="fill:#f7f7f7;stroke:#f7f7f7;" x="251.870347" xlink:href="#C0_0_70f1b752d3" y="486.165147"/>
    </g>
    <g clip-path="url(#pa6e39b4c1f)">
     <use style="fill:#131313;stroke:#131313;" x="410.009645" xlink:href="#C0_0_70f1b752d3" y="346.312933"/>
    </g>
    <g clip-path="url(#pa6e39b4c1f)">
     <use style="fill:#f7f7f7;stroke:#f7f7f7;" x="796.224793" xlink:href="#C0_0_70f1b752d3" y="378.732818"/>
    </g>
    <g clip-path="url(#pa6e39b4c1f)">
     <use style="fill:#f7f7f7;stroke:#f7f7f7;" x="723.695157" xlink:href="#C0_0_70f1b752d3" y="309.281747"/>
    </g>
    <g clip-path="url(#pa6e39b4c1f)">
     <use style="fill:#eeeeee;stroke:#eeeeee;" x="736.56827" xlink:href="#C0_0_70f1b752d3" y="453.047837"/>
    </g>
    <g clip-path="url(#pa6e39b4c1f)">
     <use style="fill:#f7f7f7;stroke:#f7f7f7;" x="146.409858" xlink:href="#C0_0_70f1b752d3" y="472.534179"/>
    </g>
    <g clip-path="url(#pa6e39b4c1f)">
     <use style="fill:#f7f7f7;stroke:#f7f7f7;" x="343.873828" xlink:href="#C0_0_70f1b752d3" y="545.134064"/>
    </g>
    <g clip-path="url(#pa6e39b4c1f)">
     <use style="fill:#f7f7f7;stroke:#f7f7f7;" x="281.814521" xlink:href="#C0_0_70f1b752d3" y="72.301596"/>
    </g>
    <g clip-path="url(#pa6e39b4c1f)">
     <use style="fill:#f7f7f7;stroke:#f7f7f7;" x="629.163552" xlink:href="#C0_0_70f1b752d3" y="497.124598"/>
    </g>
    <g clip-path="url(#pa6e39b4c1f)">
     <use style="fill:#f7f7f7;stroke:#f7f7f7;" x="796.153123" xlink:href="#C0_0_70f1b752d3" y="261.73646"/>
    </g>
    <g clip-path="url(#pa6e39b4c1f)">
     <use style="stroke:#000000;" x="611.288698" xlink:href="#C0_0_70f1b752d3" y="172.655306"/>
    </g>
    <g clip-path="url(#pa6e39b4c1f)">
     <use style="fill:#e4e4e4;stroke:#e4e4e4;" x="313.126871" xlink:href="#C0_0_70f1b752d3" y="336.033778"/>
    </g>
    <g clip-path="url(#pa6e39b4c1f)">
     <use style="fill:#f7f7f7;stroke:#f7f7f7;" x="99.757345" xlink:href="#C0_0_70f1b752d3" y="174.415659"/>
    </g>
    <g clip-path="url(#pa6e39b4c1f)">
     <use style="fill:#f7f7f7;stroke:#f7f7f7;" x="319.361982" xlink:href="#C0_0_70f1b752d3" y="217.17793"/>
    </g>
    <g clip-path="url(#pa6e39b4c1f)">
     <use style="fill:#c1c1c1;stroke:#c1c1c1;" x="361.887289" xlink:href="#C0_0_70f1b752d3" y="199.585569"/>
    </g>
    <g clip-path="url(#pa6e39b4c1f)">
     <use style="fill:#fcfcfc;stroke:#fcfcfc;" x="580.085688" xlink:href="#C0_0_70f1b752d3" y="89.213895"/>
    </g>
    <g clip-path="url(#pa6e39b4c1f)">
     <use style="fill:#eeeeee;stroke:#eeeeee;" x="513.04509" xlink:href="#C0_0_70f1b752d3" y="105.20154"/>
    </g>
    <g clip-path="url(#pa6e39b4c1f)">
     <use style="fill:#f7f7f7;stroke:#f7f7f7;" x="528.328036" xlink:href="#C0_0_70f1b752d3" y="225.315597"/>
    </g>
    <g clip-path="url(#pa6e39b4c1f)">
     <use style="fill:#f7f7f7;stroke:#f7f7f7;" x="598.149708" xlink:href="#C0_0_70f1b752d3" y="276.657261"/>
    </g>
    <g clip-path="url(#pa6e39b4c1f)">
     <use style="fill:#f7f7f7;stroke:#f7f7f7;" x="82.175207" xlink:href="#C0_0_70f1b752d3" y="298.860654"/>
    </g>
    <g clip-path="url(#pa6e39b4c1f)">
     <use style="fill:#f7f7f7;stroke:#f7f7f7;" x="542.702888" xlink:href="#C0_0_70f1b752d3" y="548.334654"/>
    </g>
    <g clip-path="url(#pa6e39b4c1f)">
     <use style="fill:#f7f7f7;stroke:#f7f7f7;" x="175.993086" xlink:href="#C0_0_70f1b752d3" y="91.2834"/>
    </g>
    <g clip-path="url(#pa6e39b4c1f)">
     <use style="fill:#f7f7f7;stroke:#f7f7f7;" x="109.826561" xlink:href="#C0_0_70f1b752d3" y="379.909606"/>
    </g>
    <g clip-path="url(#pa6e39b4c1f)">
     <use style="fill:#fbfbfb;stroke:#fbfbfb;" x="186.708285" xlink:href="#C0_0_70f1b752d3" y="384.636125"/>
    </g>
    <g clip-path="url(#pa6e39b4c1f)">
     <use style="fill:#f7f7f7;stroke:#f7f7f7;" x="507.002662" xlink:href="#C0_0_70f1b752d3" y="332.558407"/>
    </g>
   </g>
   <g id="text_1">
    <g clip-path="url(#pa6e39b4c1f)">
     <!-- CDC42 -->
     <g transform="translate(234.675034 488.924522)scale(0.1 -0.1)">
      <defs>
       <path d="M 64.40625 67.28125 
L 64.40625 56.890625 
Q 59.421875 61.53125 53.78125 63.8125 
Q 48.140625 66.109375 41.796875 66.109375 
Q 29.296875 66.109375 22.65625 58.46875 
Q 16.015625 50.828125 16.015625 36.375 
Q 16.015625 21.96875 22.65625 14.328125 
Q 29.296875 6.6875 41.796875 6.6875 
Q 48.140625 6.6875 53.78125 8.984375 
Q 59.421875 11.28125 64.40625 15.921875 
L 64.40625 5.609375 
Q 59.234375 2.09375 53.4375 0.328125 
Q 47.65625 -1.421875 41.21875 -1.421875 
Q 24.65625 -1.421875 15.125 8.703125 
Q 5.609375 18.84375 5.609375 36.375 
Q 5.609375 53.953125 15.125 64.078125 
Q 24.65625 74.21875 41.21875 74.21875 
Q 47.75 74.21875 53.53125 72.484375 
Q 59.328125 70.75 64.40625 67.28125 
z
" id="DejaVuSans-67"/>
       <path d="M 19.671875 64.796875 
L 19.671875 8.109375 
L 31.59375 8.109375 
Q 46.6875 8.109375 53.6875 14.9375 
Q 60.6875 21.78125 60.6875 36.53125 
Q 60.6875 51.171875 53.6875 57.984375 
Q 46.6875 64.796875 31.59375 64.796875 
z
M 9.8125 72.90625 
L 30.078125 72.90625 
Q 51.265625 72.90625 61.171875 64.09375 
Q 71.09375 55.28125 71.09375 36.53125 
Q 71.09375 17.671875 61.125 8.828125 
Q 51.171875 0 30.078125 0 
L 9.8125 0 
z
" id="DejaVuSans-68"/>
       <path d="M 37.796875 64.3125 
L 12.890625 25.390625 
L 37.796875 25.390625 
z
M 35.203125 72.90625 
L 47.609375 72.90625 
L 47.609375 25.390625 
L 58.015625 25.390625 
L 58.015625 17.1875 
L 47.609375 17.1875 
L 47.609375 0 
L 37.796875 0 
L 37.796875 17.1875 
L 4.890625 17.1875 
L 4.890625 26.703125 
z
" id="DejaVuSans-52"/>
       <path d="M 19.1875 8.296875 
L 53.609375 8.296875 
L 53.609375 0 
L 7.328125 0 
L 7.328125 8.296875 
Q 12.9375 14.109375 22.625 23.890625 
Q 32.328125 33.6875 34.8125 36.53125 
Q 39.546875 41.84375 41.421875 45.53125 
Q 43.3125 49.21875 43.3125 52.78125 
Q 43.3125 58.59375 39.234375 62.25 
Q 35.15625 65.921875 28.609375 65.921875 
Q 23.96875 65.921875 18.8125 64.3125 
Q 13.671875 62.703125 7.8125 59.421875 
L 7.8125 69.390625 
Q 13.765625 71.78125 18.9375 73 
Q 24.125 74.21875 28.421875 74.21875 
Q 39.75 74.21875 46.484375 68.546875 
Q 53.21875 62.890625 53.21875 53.421875 
Q 53.21875 48.921875 51.53125 44.890625 
Q 49.859375 40.875 45.40625 35.40625 
Q 44.1875 33.984375 37.640625 27.21875 
Q 31.109375 20.453125 19.1875 8.296875 
z
" id="DejaVuSans-50"/>
      </defs>
      <use xlink:href="#DejaVuSans-67"/>
      <use x="69.824219" xlink:href="#DejaVuSans-68"/>
      <use x="146.826172" xlink:href="#DejaVuSans-67"/>
      <use x="216.650391" xlink:href="#DejaVuSans-52"/>
      <use x="280.273438" xlink:href="#DejaVuSans-50"/>
     </g>
    </g>
   </g>
   <g id="text_2">
    <g clip-path="url(#pa6e39b4c1f)">
     <!-- KDR -->
     <g transform="translate(399.40652 349.072308)scale(0.1 -0.1)">
      <defs>
       <path d="M 9.8125 72.90625 
L 19.671875 72.90625 
L 19.671875 42.09375 
L 52.390625 72.90625 
L 65.09375 72.90625 
L 28.90625 38.921875 
L 67.671875 0 
L 54.6875 0 
L 19.671875 35.109375 
L 19.671875 0 
L 9.8125 0 
z
" id="DejaVuSans-75"/>
       <path d="M 44.390625 34.1875 
Q 47.5625 33.109375 50.5625 29.59375 
Q 53.5625 26.078125 56.59375 19.921875 
L 66.609375 0 
L 56 0 
L 46.6875 18.703125 
Q 43.0625 26.03125 39.671875 28.421875 
Q 36.28125 30.8125 30.421875 30.8125 
L 19.671875 30.8125 
L 19.671875 0 
L 9.8125 0 
L 9.8125 72.90625 
L 32.078125 72.90625 
Q 44.578125 72.90625 50.734375 67.671875 
Q 56.890625 62.453125 56.890625 51.90625 
Q 56.890625 45.015625 53.6875 40.46875 
Q 50.484375 35.9375 44.390625 34.1875 
z
M 19.671875 64.796875 
L 19.671875 38.921875 
L 32.078125 38.921875 
Q 39.203125 38.921875 42.84375 42.21875 
Q 46.484375 45.515625 46.484375 51.90625 
Q 46.484375 58.296875 42.84375 61.546875 
Q 39.203125 64.796875 32.078125 64.796875 
z
" id="DejaVuSans-82"/>
      </defs>
      <use xlink:href="#DejaVuSans-75"/>
      <use x="65.576172" xlink:href="#DejaVuSans-68"/>
      <use x="142.578125" xlink:href="#DejaVuSans-82"/>
     </g>
    </g>
   </g>
   <g id="text_3">
    <g clip-path="url(#pa6e39b4c1f)">
     <!-- PTGS2 -->
     <g transform="translate(779.926356 381.492193)scale(0.1 -0.1)">
      <defs>
       <path d="M 19.671875 64.796875 
L 19.671875 37.40625 
L 32.078125 37.40625 
Q 38.96875 37.40625 42.71875 40.96875 
Q 46.484375 44.53125 46.484375 51.125 
Q 46.484375 57.671875 42.71875 61.234375 
Q 38.96875 64.796875 32.078125 64.796875 
z
M 9.8125 72.90625 
L 32.078125 72.90625 
Q 44.34375 72.90625 50.609375 67.359375 
Q 56.890625 61.8125 56.890625 51.125 
Q 56.890625 40.328125 50.609375 34.8125 
Q 44.34375 29.296875 32.078125 29.296875 
L 19.671875 29.296875 
L 19.671875 0 
L 9.8125 0 
z
" id="DejaVuSans-80"/>
       <path d="M -0.296875 72.90625 
L 61.375 72.90625 
L 61.375 64.59375 
L 35.5 64.59375 
L 35.5 0 
L 25.59375 0 
L 25.59375 64.59375 
L -0.296875 64.59375 
z
" id="DejaVuSans-84"/>
       <path d="M 59.515625 10.40625 
L 59.515625 29.984375 
L 43.40625 29.984375 
L 43.40625 38.09375 
L 69.28125 38.09375 
L 69.28125 6.78125 
Q 63.578125 2.734375 56.6875 0.65625 
Q 49.8125 -1.421875 42 -1.421875 
Q 24.90625 -1.421875 15.25 8.5625 
Q 5.609375 18.5625 5.609375 36.375 
Q 5.609375 54.25 15.25 64.234375 
Q 24.90625 74.21875 42 74.21875 
Q 49.125 74.21875 55.546875 72.453125 
Q 61.96875 70.703125 67.390625 67.28125 
L 67.390625 56.78125 
Q 61.921875 61.421875 55.765625 63.765625 
Q 49.609375 66.109375 42.828125 66.109375 
Q 29.4375 66.109375 22.71875 58.640625 
Q 16.015625 51.171875 16.015625 36.375 
Q 16.015625 21.625 22.71875 14.15625 
Q 29.4375 6.6875 42.828125 6.6875 
Q 48.046875 6.6875 52.140625 7.59375 
Q 56.25 8.5 59.515625 10.40625 
z
" id="DejaVuSans-71"/>
       <path d="M 53.515625 70.515625 
L 53.515625 60.890625 
Q 47.90625 63.578125 42.921875 64.890625 
Q 37.9375 66.21875 33.296875 66.21875 
Q 25.25 66.21875 20.875 63.09375 
Q 16.5 59.96875 16.5 54.203125 
Q 16.5 49.359375 19.40625 46.890625 
Q 22.3125 44.4375 30.421875 42.921875 
L 36.375 41.703125 
Q 47.40625 39.59375 52.65625 34.296875 
Q 57.90625 29 57.90625 20.125 
Q 57.90625 9.515625 50.796875 4.046875 
Q 43.703125 -1.421875 29.984375 -1.421875 
Q 24.8125 -1.421875 18.96875 -0.25 
Q 13.140625 0.921875 6.890625 3.21875 
L 6.890625 13.375 
Q 12.890625 10.015625 18.65625 8.296875 
Q 24.421875 6.59375 29.984375 6.59375 
Q 38.421875 6.59375 43.015625 9.90625 
Q 47.609375 13.234375 47.609375 19.390625 
Q 47.609375 24.75 44.3125 27.78125 
Q 41.015625 30.8125 33.5 32.328125 
L 27.484375 33.5 
Q 16.453125 35.6875 11.515625 40.375 
Q 6.59375 45.0625 6.59375 53.421875 
Q 6.59375 63.09375 13.40625 68.65625 
Q 20.21875 74.21875 32.171875 74.21875 
Q 37.3125 74.21875 42.625 73.28125 
Q 47.953125 72.359375 53.515625 70.515625 
z
" id="DejaVuSans-83"/>
      </defs>
      <use xlink:href="#DejaVuSans-80"/>
      <use x="60.302734" xlink:href="#DejaVuSans-84"/>
      <use x="121.386719" xlink:href="#DejaVuSans-71"/>
      <use x="198.876953" xlink:href="#DejaVuSans-83"/>
      <use x="262.353516" xlink:href="#DejaVuSans-50"/>
     </g>
    </g>
   </g>
   <g id="text_4">
    <g clip-path="url(#pa6e39b4c1f)">
     <!-- HSPB1 -->
     <g transform="translate(707.13422 312.041122)scale(0.1 -0.1)">
      <defs>
       <path d="M 9.8125 72.90625 
L 19.671875 72.90625 
L 19.671875 43.015625 
L 55.515625 43.015625 
L 55.515625 72.90625 
L 65.375 72.90625 
L 65.375 0 
L 55.515625 0 
L 55.515625 34.71875 
L 19.671875 34.71875 
L 19.671875 0 
L 9.8125 0 
z
" id="DejaVuSans-72"/>
       <path d="M 19.671875 34.8125 
L 19.671875 8.109375 
L 35.5 8.109375 
Q 43.453125 8.109375 47.28125 11.40625 
Q 51.125 14.703125 51.125 21.484375 
Q 51.125 28.328125 47.28125 31.5625 
Q 43.453125 34.8125 35.5 34.8125 
z
M 19.671875 64.796875 
L 19.671875 42.828125 
L 34.28125 42.828125 
Q 41.5 42.828125 45.03125 45.53125 
Q 48.578125 48.25 48.578125 53.8125 
Q 48.578125 59.328125 45.03125 62.0625 
Q 41.5 64.796875 34.28125 64.796875 
z
M 9.8125 72.90625 
L 35.015625 72.90625 
Q 46.296875 72.90625 52.390625 68.21875 
Q 58.5 63.53125 58.5 54.890625 
Q 58.5 48.1875 55.375 44.234375 
Q 52.25 40.28125 46.1875 39.3125 
Q 53.46875 37.75 57.5 32.78125 
Q 61.53125 27.828125 61.53125 20.40625 
Q 61.53125 10.640625 54.890625 5.3125 
Q 48.25 0 35.984375 0 
L 9.8125 0 
z
" id="DejaVuSans-66"/>
       <path d="M 12.40625 8.296875 
L 28.515625 8.296875 
L 28.515625 63.921875 
L 10.984375 60.40625 
L 10.984375 69.390625 
L 28.421875 72.90625 
L 38.28125 72.90625 
L 38.28125 8.296875 
L 54.390625 8.296875 
L 54.390625 0 
L 12.40625 0 
z
" id="DejaVuSans-49"/>
      </defs>
      <use xlink:href="#DejaVuSans-72"/>
      <use x="75.195312" xlink:href="#DejaVuSans-83"/>
      <use x="138.671875" xlink:href="#DejaVuSans-80"/>
      <use x="198.974609" xlink:href="#DejaVuSans-66"/>
      <use x="267.578125" xlink:href="#DejaVuSans-49"/>
     </g>
    </g>
   </g>
   <g id="text_5">
    <g clip-path="url(#pa6e39b4c1f)">
     <!-- NFATC2 -->
     <g transform="translate(717.942489 455.807212)scale(0.1 -0.1)">
      <defs>
       <path d="M 9.8125 72.90625 
L 23.09375 72.90625 
L 55.421875 11.921875 
L 55.421875 72.90625 
L 64.984375 72.90625 
L 64.984375 0 
L 51.703125 0 
L 19.390625 60.984375 
L 19.390625 0 
L 9.8125 0 
z
" id="DejaVuSans-78"/>
       <path d="M 9.8125 72.90625 
L 51.703125 72.90625 
L 51.703125 64.59375 
L 19.671875 64.59375 
L 19.671875 43.109375 
L 48.578125 43.109375 
L 48.578125 34.8125 
L 19.671875 34.8125 
L 19.671875 0 
L 9.8125 0 
z
" id="DejaVuSans-70"/>
       <path d="M 34.1875 63.1875 
L 20.796875 26.90625 
L 47.609375 26.90625 
z
M 28.609375 72.90625 
L 39.796875 72.90625 
L 67.578125 0 
L 57.328125 0 
L 50.6875 18.703125 
L 17.828125 18.703125 
L 11.1875 0 
L 0.78125 0 
z
" id="DejaVuSans-65"/>
      </defs>
      <use xlink:href="#DejaVuSans-78"/>
      <use x="74.804688" xlink:href="#DejaVuSans-70"/>
      <use x="123.199219" xlink:href="#DejaVuSans-65"/>
      <use x="183.857422" xlink:href="#DejaVuSans-84"/>
      <use x="239.066406" xlink:href="#DejaVuSans-67"/>
      <use x="308.890625" xlink:href="#DejaVuSans-50"/>
     </g>
    </g>
   </g>
   <g id="text_6">
    <g clip-path="url(#pa6e39b4c1f)">
     <!-- PTK2 -->
     <g transform="translate(133.880952 475.293554)scale(0.1 -0.1)">
      <use xlink:href="#DejaVuSans-80"/>
      <use x="60.302734" xlink:href="#DejaVuSans-84"/>
      <use x="121.386719" xlink:href="#DejaVuSans-75"/>
      <use x="186.962891" xlink:href="#DejaVuSans-50"/>
     </g>
    </g>
   </g>
   <g id="text_7">
    <g clip-path="url(#pa6e39b4c1f)">
     <!-- PXN -->
     <g transform="translate(333.693359 547.893439)scale(0.1 -0.1)">
      <defs>
       <path d="M 6.296875 72.90625 
L 16.890625 72.90625 
L 35.015625 45.796875 
L 53.21875 72.90625 
L 63.8125 72.90625 
L 40.375 37.890625 
L 65.375 0 
L 54.78125 0 
L 34.28125 31 
L 13.625 0 
L 2.984375 0 
L 29 38.921875 
z
" id="DejaVuSans-88"/>
      </defs>
      <use xlink:href="#DejaVuSans-80"/>
      <use x="60.302734" xlink:href="#DejaVuSans-88"/>
      <use x="128.808594" xlink:href="#DejaVuSans-78"/>
     </g>
    </g>
   </g>
   <g id="text_8">
    <g clip-path="url(#pa6e39b4c1f)">
     <!-- SH2D2A -->
     <g transform="translate(261.247333 75.060971)scale(0.1 -0.1)">
      <use xlink:href="#DejaVuSans-83"/>
      <use x="63.476562" xlink:href="#DejaVuSans-72"/>
      <use x="138.671875" xlink:href="#DejaVuSans-50"/>
      <use x="202.294922" xlink:href="#DejaVuSans-68"/>
      <use x="279.296875" xlink:href="#DejaVuSans-50"/>
      <use x="342.919922" xlink:href="#DejaVuSans-65"/>
     </g>
    </g>
   </g>
   <g id="text_9">
    <g clip-path="url(#pa6e39b4c1f)">
     <!-- SRC -->
     <g transform="translate(619.273708 499.883973)scale(0.1 -0.1)">
      <use xlink:href="#DejaVuSans-83"/>
      <use x="63.476562" xlink:href="#DejaVuSans-82"/>
      <use x="127.958984" xlink:href="#DejaVuSans-67"/>
     </g>
    </g>
   </g>
   <g id="text_10">
    <g clip-path="url(#pa6e39b4c1f)">
     <!-- SHC2 -->
     <g transform="translate(782.546092 264.495835)scale(0.1 -0.1)">
      <use xlink:href="#DejaVuSans-83"/>
      <use x="63.476562" xlink:href="#DejaVuSans-72"/>
      <use x="138.671875" xlink:href="#DejaVuSans-67"/>
      <use x="208.496094" xlink:href="#DejaVuSans-50"/>
     </g>
    </g>
   </g>
   <g id="text_11">
    <g clip-path="url(#pa6e39b4c1f)">
     <!-- VEGFA -->
     <g transform="translate(594.994948 175.414681)scale(0.1 -0.1)">
      <defs>
       <path d="M 28.609375 0 
L 0.78125 72.90625 
L 11.078125 72.90625 
L 34.1875 11.53125 
L 57.328125 72.90625 
L 67.578125 72.90625 
L 39.796875 0 
z
" id="DejaVuSans-86"/>
       <path d="M 9.8125 72.90625 
L 55.90625 72.90625 
L 55.90625 64.59375 
L 19.671875 64.59375 
L 19.671875 43.015625 
L 54.390625 43.015625 
L 54.390625 34.71875 
L 19.671875 34.71875 
L 19.671875 8.296875 
L 56.78125 8.296875 
L 56.78125 0 
L 9.8125 0 
z
" id="DejaVuSans-69"/>
      </defs>
      <use xlink:href="#DejaVuSans-86"/>
      <use x="68.408203" xlink:href="#DejaVuSans-69"/>
      <use x="131.591797" xlink:href="#DejaVuSans-71"/>
      <use x="209.082031" xlink:href="#DejaVuSans-70"/>
      <use x="257.476562" xlink:href="#DejaVuSans-65"/>
     </g>
    </g>
   </g>
   <g id="text_12">
    <g clip-path="url(#pa6e39b4c1f)">
     <!-- RAF1 -->
     <g transform="translate(300.375309 338.793153)scale(0.1 -0.1)">
      <use xlink:href="#DejaVuSans-82"/>
      <use x="65.482422" xlink:href="#DejaVuSans-65"/>
      <use x="133.890625" xlink:href="#DejaVuSans-70"/>
      <use x="191.410156" xlink:href="#DejaVuSans-49"/>
     </g>
    </g>
   </g>
   <g id="text_13">
    <g clip-path="url(#pa6e39b4c1f)">
     <!-- NOS3 -->
     <g transform="translate(85.725314 177.175034)scale(0.1 -0.1)">
      <defs>
       <path d="M 39.40625 66.21875 
Q 28.65625 66.21875 22.328125 58.203125 
Q 16.015625 50.203125 16.015625 36.375 
Q 16.015625 22.609375 22.328125 14.59375 
Q 28.65625 6.59375 39.40625 6.59375 
Q 50.140625 6.59375 56.421875 14.59375 
Q 62.703125 22.609375 62.703125 36.375 
Q 62.703125 50.203125 56.421875 58.203125 
Q 50.140625 66.21875 39.40625 66.21875 
z
M 39.40625 74.21875 
Q 54.734375 74.21875 63.90625 63.9375 
Q 73.09375 53.65625 73.09375 36.375 
Q 73.09375 19.140625 63.90625 8.859375 
Q 54.734375 -1.421875 39.40625 -1.421875 
Q 24.03125 -1.421875 14.8125 8.828125 
Q 5.609375 19.09375 5.609375 36.375 
Q 5.609375 53.65625 14.8125 63.9375 
Q 24.03125 74.21875 39.40625 74.21875 
z
" id="DejaVuSans-79"/>
       <path d="M 40.578125 39.3125 
Q 47.65625 37.796875 51.625 33 
Q 55.609375 28.21875 55.609375 21.1875 
Q 55.609375 10.40625 48.1875 4.484375 
Q 40.765625 -1.421875 27.09375 -1.421875 
Q 22.515625 -1.421875 17.65625 -0.515625 
Q 12.796875 0.390625 7.625 2.203125 
L 7.625 11.71875 
Q 11.71875 9.328125 16.59375 8.109375 
Q 21.484375 6.890625 26.8125 6.890625 
Q 36.078125 6.890625 40.9375 10.546875 
Q 45.796875 14.203125 45.796875 21.1875 
Q 45.796875 27.640625 41.28125 31.265625 
Q 36.765625 34.90625 28.71875 34.90625 
L 20.21875 34.90625 
L 20.21875 43.015625 
L 29.109375 43.015625 
Q 36.375 43.015625 40.234375 45.921875 
Q 44.09375 48.828125 44.09375 54.296875 
Q 44.09375 59.90625 40.109375 62.90625 
Q 36.140625 65.921875 28.71875 65.921875 
Q 24.65625 65.921875 20.015625 65.03125 
Q 15.375 64.15625 9.8125 62.3125 
L 9.8125 71.09375 
Q 15.4375 72.65625 20.34375 73.4375 
Q 25.25 74.21875 29.59375 74.21875 
Q 40.828125 74.21875 47.359375 69.109375 
Q 53.90625 64.015625 53.90625 55.328125 
Q 53.90625 49.265625 50.4375 45.09375 
Q 46.96875 40.921875 40.578125 39.3125 
z
" id="DejaVuSans-51"/>
      </defs>
      <use xlink:href="#DejaVuSans-78"/>
      <use x="74.804688" xlink:href="#DejaVuSans-79"/>
      <use x="153.515625" xlink:href="#DejaVuSans-83"/>
      <use x="216.992188" xlink:href="#DejaVuSans-51"/>
     </g>
    </g>
   </g>
   <g id="text_14">
    <g clip-path="url(#pa6e39b4c1f)">
     <!-- PLCG1 -->
     <g transform="translate(303.014326 219.937305)scale(0.1 -0.1)">
      <defs>
       <path d="M 9.8125 72.90625 
L 19.671875 72.90625 
L 19.671875 8.296875 
L 55.171875 8.296875 
L 55.171875 0 
L 9.8125 0 
z
" id="DejaVuSans-76"/>
      </defs>
      <use xlink:href="#DejaVuSans-80"/>
      <use x="60.302734" xlink:href="#DejaVuSans-76"/>
      <use x="116.015625" xlink:href="#DejaVuSans-67"/>
      <use x="185.839844" xlink:href="#DejaVuSans-71"/>
      <use x="263.330078" xlink:href="#DejaVuSans-49"/>
     </g>
    </g>
   </g>
   <g id="text_15">
    <g clip-path="url(#pa6e39b4c1f)">
     <!-- PLCG2 -->
     <g transform="translate(345.539632 202.344944)scale(0.1 -0.1)">
      <use xlink:href="#DejaVuSans-80"/>
      <use x="60.302734" xlink:href="#DejaVuSans-76"/>
      <use x="116.015625" xlink:href="#DejaVuSans-67"/>
      <use x="185.839844" xlink:href="#DejaVuSans-71"/>
      <use x="263.330078" xlink:href="#DejaVuSans-50"/>
     </g>
    </g>
   </g>
   <g id="text_16">
    <g clip-path="url(#pa6e39b4c1f)">
     <!-- MAPKAPK2 -->
     <g transform="translate(553.24975 91.97327)scale(0.1 -0.1)">
      <defs>
       <path d="M 9.8125 72.90625 
L 24.515625 72.90625 
L 43.109375 23.296875 
L 61.8125 72.90625 
L 76.515625 72.90625 
L 76.515625 0 
L 66.890625 0 
L 66.890625 64.015625 
L 48.09375 14.015625 
L 38.1875 14.015625 
L 19.390625 64.015625 
L 19.390625 0 
L 9.8125 0 
z
" id="DejaVuSans-77"/>
      </defs>
      <use xlink:href="#DejaVuSans-77"/>
      <use x="86.279297" xlink:href="#DejaVuSans-65"/>
      <use x="154.6875" xlink:href="#DejaVuSans-80"/>
      <use x="214.990234" xlink:href="#DejaVuSans-75"/>
      <use x="278.816406" xlink:href="#DejaVuSans-65"/>
      <use x="347.224609" xlink:href="#DejaVuSans-80"/>
      <use x="407.527344" xlink:href="#DejaVuSans-75"/>
      <use x="473.103516" xlink:href="#DejaVuSans-50"/>
     </g>
    </g>
   </g>
   <g id="text_17">
    <g clip-path="url(#pa6e39b4c1f)">
     <!-- MAPKAPK3 -->
     <g transform="translate(486.209152 107.960915)scale(0.1 -0.1)">
      <use xlink:href="#DejaVuSans-77"/>
      <use x="86.279297" xlink:href="#DejaVuSans-65"/>
      <use x="154.6875" xlink:href="#DejaVuSans-80"/>
      <use x="214.990234" xlink:href="#DejaVuSans-75"/>
      <use x="278.816406" xlink:href="#DejaVuSans-65"/>
      <use x="347.224609" xlink:href="#DejaVuSans-80"/>
      <use x="407.527344" xlink:href="#DejaVuSans-75"/>
      <use x="473.103516" xlink:href="#DejaVuSans-51"/>
     </g>
    </g>
   </g>
   <g id="text_18">
    <g clip-path="url(#pa6e39b4c1f)">
     <!-- PRKCA -->
     <g transform="translate(511.923348 228.074972)scale(0.1 -0.1)">
      <use xlink:href="#DejaVuSans-80"/>
      <use x="60.302734" xlink:href="#DejaVuSans-82"/>
      <use x="129.785156" xlink:href="#DejaVuSans-75"/>
      <use x="189.861328" xlink:href="#DejaVuSans-67"/>
      <use x="259.685547" xlink:href="#DejaVuSans-65"/>
     </g>
    </g>
   </g>
   <g id="text_19">
    <g clip-path="url(#pa6e39b4c1f)">
     <!-- PRKCB -->
     <g transform="translate(581.734864 279.416636)scale(0.1 -0.1)">
      <use xlink:href="#DejaVuSans-80"/>
      <use x="60.302734" xlink:href="#DejaVuSans-82"/>
      <use x="129.785156" xlink:href="#DejaVuSans-75"/>
      <use x="189.861328" xlink:href="#DejaVuSans-67"/>
      <use x="259.685547" xlink:href="#DejaVuSans-66"/>
     </g>
    </g>
   </g>
   <g id="text_20">
    <g clip-path="url(#pa6e39b4c1f)">
     <!-- PRKCG -->
     <g transform="translate(65.316613 301.620029)scale(0.1 -0.1)">
      <use xlink:href="#DejaVuSans-80"/>
      <use x="60.302734" xlink:href="#DejaVuSans-82"/>
      <use x="129.785156" xlink:href="#DejaVuSans-75"/>
      <use x="189.861328" xlink:href="#DejaVuSans-67"/>
      <use x="259.685547" xlink:href="#DejaVuSans-71"/>
     </g>
    </g>
   </g>
   <g id="text_21">
    <g clip-path="url(#pa6e39b4c1f)">
     <!-- MAP2K1 -->
     <g transform="translate(522.312263 551.094029)scale(0.1 -0.1)">
      <use xlink:href="#DejaVuSans-77"/>
      <use x="86.279297" xlink:href="#DejaVuSans-65"/>
      <use x="154.6875" xlink:href="#DejaVuSans-80"/>
      <use x="214.990234" xlink:href="#DejaVuSans-50"/>
      <use x="278.613281" xlink:href="#DejaVuSans-75"/>
      <use x="344.189453" xlink:href="#DejaVuSans-49"/>
     </g>
    </g>
   </g>
   <g id="text_22">
    <g clip-path="url(#pa6e39b4c1f)">
     <!-- MAP2K2 -->
     <g transform="translate(155.602461 94.042775)scale(0.1 -0.1)">
      <use xlink:href="#DejaVuSans-77"/>
      <use x="86.279297" xlink:href="#DejaVuSans-65"/>
      <use x="154.6875" xlink:href="#DejaVuSans-80"/>
      <use x="214.990234" xlink:href="#DejaVuSans-50"/>
      <use x="278.613281" xlink:href="#DejaVuSans-75"/>
      <use x="344.189453" xlink:href="#DejaVuSans-50"/>
     </g>
    </g>
   </g>
   <g id="text_23">
    <g clip-path="url(#pa6e39b4c1f)">
     <!-- HRAS -->
     <g transform="translate(96.197654 382.668981)scale(0.1 -0.1)">
      <use xlink:href="#DejaVuSans-72"/>
      <use x="75.195312" xlink:href="#DejaVuSans-82"/>
      <use x="140.677734" xlink:href="#DejaVuSans-65"/>
      <use x="209.085938" xlink:href="#DejaVuSans-83"/>
     </g>
    </g>
   </g>
   <g id="text_24">
    <g clip-path="url(#pa6e39b4c1f)">
     <!-- KRAS -->
     <g transform="translate(173.560629 387.3955)scale(0.1 -0.1)">
      <use xlink:href="#DejaVuSans-75"/>
      <use x="65.576172" xlink:href="#DejaVuSans-82"/>
      <use x="131.058594" xlink:href="#DejaVuSans-65"/>
      <use x="199.466797" xlink:href="#DejaVuSans-83"/>
     </g>
    </g>
   </g>
   <g id="text_25">
    <g clip-path="url(#pa6e39b4c1f)">
     <!-- NRAS -->
     <g transform="translate(493.393287 335.317782)scale(0.1 -0.1)">
      <use xlink:href="#DejaVuSans-78"/>
      <use x="74.804688" xlink:href="#DejaVuSans-82"/>
      <use x="140.287109" xlink:href="#DejaVuSans-65"/>
      <use x="208.695312" xlink:href="#DejaVuSans-83"/>
     </g>
    </g>
   </g>
   <g id="text_26">
    <!-- Importance score for each node in the network -->
    <g transform="translate(297.972188 16.318125)scale(0.12 -0.12)">
     <defs>
      <path d="M 9.8125 72.90625 
L 19.671875 72.90625 
L 19.671875 0 
L 9.8125 0 
z
" id="DejaVuSans-73"/>
      <path d="M 52 44.1875 
Q 55.375 50.25 60.0625 53.125 
Q 64.75 56 71.09375 56 
Q 79.640625 56 84.28125 50.015625 
Q 88.921875 44.046875 88.921875 33.015625 
L 88.921875 0 
L 79.890625 0 
L 79.890625 32.71875 
Q 79.890625 40.578125 77.09375 44.375 
Q 74.3125 48.1875 68.609375 48.1875 
Q 61.625 48.1875 57.5625 43.546875 
Q 53.515625 38.921875 53.515625 30.90625 
L 53.515625 0 
L 44.484375 0 
L 44.484375 32.71875 
Q 44.484375 40.625 41.703125 44.40625 
Q 38.921875 48.1875 33.109375 48.1875 
Q 26.21875 48.1875 22.15625 43.53125 
Q 18.109375 38.875 18.109375 30.90625 
L 18.109375 0 
L 9.078125 0 
L 9.078125 54.6875 
L 18.109375 54.6875 
L 18.109375 46.1875 
Q 21.1875 51.21875 25.484375 53.609375 
Q 29.78125 56 35.6875 56 
Q 41.65625 56 45.828125 52.96875 
Q 50 49.953125 52 44.1875 
z
" id="DejaVuSans-109"/>
      <path d="M 18.109375 8.203125 
L 18.109375 -20.796875 
L 9.078125 -20.796875 
L 9.078125 54.6875 
L 18.109375 54.6875 
L 18.109375 46.390625 
Q 20.953125 51.265625 25.265625 53.625 
Q 29.59375 56 35.59375 56 
Q 45.5625 56 51.78125 48.09375 
Q 58.015625 40.1875 58.015625 27.296875 
Q 58.015625 14.40625 51.78125 6.484375 
Q 45.5625 -1.421875 35.59375 -1.421875 
Q 29.59375 -1.421875 25.265625 0.953125 
Q 20.953125 3.328125 18.109375 8.203125 
z
M 48.6875 27.296875 
Q 48.6875 37.203125 44.609375 42.84375 
Q 40.53125 48.484375 33.40625 48.484375 
Q 26.265625 48.484375 22.1875 42.84375 
Q 18.109375 37.203125 18.109375 27.296875 
Q 18.109375 17.390625 22.1875 11.75 
Q 26.265625 6.109375 33.40625 6.109375 
Q 40.53125 6.109375 44.609375 11.75 
Q 48.6875 17.390625 48.6875 27.296875 
z
" id="DejaVuSans-112"/>
      <path d="M 30.609375 48.390625 
Q 23.390625 48.390625 19.1875 42.75 
Q 14.984375 37.109375 14.984375 27.296875 
Q 14.984375 17.484375 19.15625 11.84375 
Q 23.34375 6.203125 30.609375 6.203125 
Q 37.796875 6.203125 41.984375 11.859375 
Q 46.1875 17.53125 46.1875 27.296875 
Q 46.1875 37.015625 41.984375 42.703125 
Q 37.796875 48.390625 30.609375 48.390625 
z
M 30.609375 56 
Q 42.328125 56 49.015625 48.375 
Q 55.71875 40.765625 55.71875 27.296875 
Q 55.71875 13.875 49.015625 6.21875 
Q 42.328125 -1.421875 30.609375 -1.421875 
Q 18.84375 -1.421875 12.171875 6.21875 
Q 5.515625 13.875 5.515625 27.296875 
Q 5.515625 40.765625 12.171875 48.375 
Q 18.84375 56 30.609375 56 
z
" id="DejaVuSans-111"/>
      <path d="M 41.109375 46.296875 
Q 39.59375 47.171875 37.8125 47.578125 
Q 36.03125 48 33.890625 48 
Q 26.265625 48 22.1875 43.046875 
Q 18.109375 38.09375 18.109375 28.8125 
L 18.109375 0 
L 9.078125 0 
L 9.078125 54.6875 
L 18.109375 54.6875 
L 18.109375 46.1875 
Q 20.953125 51.171875 25.484375 53.578125 
Q 30.03125 56 36.53125 56 
Q 37.453125 56 38.578125 55.875 
Q 39.703125 55.765625 41.0625 55.515625 
z
" id="DejaVuSans-114"/>
      <path d="M 18.3125 70.21875 
L 18.3125 54.6875 
L 36.8125 54.6875 
L 36.8125 47.703125 
L 18.3125 47.703125 
L 18.3125 18.015625 
Q 18.3125 11.328125 20.140625 9.421875 
Q 21.96875 7.515625 27.59375 7.515625 
L 36.8125 7.515625 
L 36.8125 0 
L 27.59375 0 
Q 17.1875 0 13.234375 3.875 
Q 9.28125 7.765625 9.28125 18.015625 
L 9.28125 47.703125 
L 2.6875 47.703125 
L 2.6875 54.6875 
L 9.28125 54.6875 
L 9.28125 70.21875 
z
" id="DejaVuSans-116"/>
      <path d="M 34.28125 27.484375 
Q 23.390625 27.484375 19.1875 25 
Q 14.984375 22.515625 14.984375 16.5 
Q 14.984375 11.71875 18.140625 8.90625 
Q 21.296875 6.109375 26.703125 6.109375 
Q 34.1875 6.109375 38.703125 11.40625 
Q 43.21875 16.703125 43.21875 25.484375 
L 43.21875 27.484375 
z
M 52.203125 31.203125 
L 52.203125 0 
L 43.21875 0 
L 43.21875 8.296875 
Q 40.140625 3.328125 35.546875 0.953125 
Q 30.953125 -1.421875 24.3125 -1.421875 
Q 15.921875 -1.421875 10.953125 3.296875 
Q 6 8.015625 6 15.921875 
Q 6 25.140625 12.171875 29.828125 
Q 18.359375 34.515625 30.609375 34.515625 
L 43.21875 34.515625 
L 43.21875 35.40625 
Q 43.21875 41.609375 39.140625 45 
Q 35.0625 48.390625 27.6875 48.390625 
Q 23 48.390625 18.546875 47.265625 
Q 14.109375 46.140625 10.015625 43.890625 
L 10.015625 52.203125 
Q 14.9375 54.109375 19.578125 55.046875 
Q 24.21875 56 28.609375 56 
Q 40.484375 56 46.34375 49.84375 
Q 52.203125 43.703125 52.203125 31.203125 
z
" id="DejaVuSans-97"/>
      <path d="M 54.890625 33.015625 
L 54.890625 0 
L 45.90625 0 
L 45.90625 32.71875 
Q 45.90625 40.484375 42.875 44.328125 
Q 39.84375 48.1875 33.796875 48.1875 
Q 26.515625 48.1875 22.3125 43.546875 
Q 18.109375 38.921875 18.109375 30.90625 
L 18.109375 0 
L 9.078125 0 
L 9.078125 54.6875 
L 18.109375 54.6875 
L 18.109375 46.1875 
Q 21.34375 51.125 25.703125 53.5625 
Q 30.078125 56 35.796875 56 
Q 45.21875 56 50.046875 50.171875 
Q 54.890625 44.34375 54.890625 33.015625 
z
" id="DejaVuSans-110"/>
      <path d="M 48.78125 52.59375 
L 48.78125 44.1875 
Q 44.96875 46.296875 41.140625 47.34375 
Q 37.3125 48.390625 33.40625 48.390625 
Q 24.65625 48.390625 19.8125 42.84375 
Q 14.984375 37.3125 14.984375 27.296875 
Q 14.984375 17.28125 19.8125 11.734375 
Q 24.65625 6.203125 33.40625 6.203125 
Q 37.3125 6.203125 41.140625 7.25 
Q 44.96875 8.296875 48.78125 10.40625 
L 48.78125 2.09375 
Q 45.015625 0.34375 40.984375 -0.53125 
Q 36.96875 -1.421875 32.421875 -1.421875 
Q 20.0625 -1.421875 12.78125 6.34375 
Q 5.515625 14.109375 5.515625 27.296875 
Q 5.515625 40.671875 12.859375 48.328125 
Q 20.21875 56 33.015625 56 
Q 37.15625 56 41.109375 55.140625 
Q 45.0625 54.296875 48.78125 52.59375 
z
" id="DejaVuSans-99"/>
      <path d="M 56.203125 29.59375 
L 56.203125 25.203125 
L 14.890625 25.203125 
Q 15.484375 15.921875 20.484375 11.0625 
Q 25.484375 6.203125 34.421875 6.203125 
Q 39.59375 6.203125 44.453125 7.46875 
Q 49.3125 8.734375 54.109375 11.28125 
L 54.109375 2.78125 
Q 49.265625 0.734375 44.1875 -0.34375 
Q 39.109375 -1.421875 33.890625 -1.421875 
Q 20.796875 -1.421875 13.15625 6.1875 
Q 5.515625 13.8125 5.515625 26.8125 
Q 5.515625 40.234375 12.765625 48.109375 
Q 20.015625 56 32.328125 56 
Q 43.359375 56 49.78125 48.890625 
Q 56.203125 41.796875 56.203125 29.59375 
z
M 47.21875 32.234375 
Q 47.125 39.59375 43.09375 43.984375 
Q 39.0625 48.390625 32.421875 48.390625 
Q 24.90625 48.390625 20.390625 44.140625 
Q 15.875 39.890625 15.1875 32.171875 
z
" id="DejaVuSans-101"/>
      <path id="DejaVuSans-32"/>
      <path d="M 44.28125 53.078125 
L 44.28125 44.578125 
Q 40.484375 46.53125 36.375 47.5 
Q 32.28125 48.484375 27.875 48.484375 
Q 21.1875 48.484375 17.84375 46.4375 
Q 14.5 44.390625 14.5 40.28125 
Q 14.5 37.15625 16.890625 35.375 
Q 19.28125 33.59375 26.515625 31.984375 
L 29.59375 31.296875 
Q 39.15625 29.25 43.1875 25.515625 
Q 47.21875 21.78125 47.21875 15.09375 
Q 47.21875 7.46875 41.1875 3.015625 
Q 35.15625 -1.421875 24.609375 -1.421875 
Q 20.21875 -1.421875 15.453125 -0.5625 
Q 10.6875 0.296875 5.421875 2 
L 5.421875 11.28125 
Q 10.40625 8.6875 15.234375 7.390625 
Q 20.0625 6.109375 24.8125 6.109375 
Q 31.15625 6.109375 34.5625 8.28125 
Q 37.984375 10.453125 37.984375 14.40625 
Q 37.984375 18.0625 35.515625 20.015625 
Q 33.0625 21.96875 24.703125 23.78125 
L 21.578125 24.515625 
Q 13.234375 26.265625 9.515625 29.90625 
Q 5.8125 33.546875 5.8125 39.890625 
Q 5.8125 47.609375 11.28125 51.796875 
Q 16.75 56 26.8125 56 
Q 31.78125 56 36.171875 55.265625 
Q 40.578125 54.546875 44.28125 53.078125 
z
" id="DejaVuSans-115"/>
      <path d="M 37.109375 75.984375 
L 37.109375 68.5 
L 28.515625 68.5 
Q 23.6875 68.5 21.796875 66.546875 
Q 19.921875 64.59375 19.921875 59.515625 
L 19.921875 54.6875 
L 34.71875 54.6875 
L 34.71875 47.703125 
L 19.921875 47.703125 
L 19.921875 0 
L 10.890625 0 
L 10.890625 47.703125 
L 2.296875 47.703125 
L 2.296875 54.6875 
L 10.890625 54.6875 
L 10.890625 58.5 
Q 10.890625 67.625 15.140625 71.796875 
Q 19.390625 75.984375 28.609375 75.984375 
z
" id="DejaVuSans-102"/>
      <path d="M 54.890625 33.015625 
L 54.890625 0 
L 45.90625 0 
L 45.90625 32.71875 
Q 45.90625 40.484375 42.875 44.328125 
Q 39.84375 48.1875 33.796875 48.1875 
Q 26.515625 48.1875 22.3125 43.546875 
Q 18.109375 38.921875 18.109375 30.90625 
L 18.109375 0 
L 9.078125 0 
L 9.078125 75.984375 
L 18.109375 75.984375 
L 18.109375 46.1875 
Q 21.34375 51.125 25.703125 53.5625 
Q 30.078125 56 35.796875 56 
Q 45.21875 56 50.046875 50.171875 
Q 54.890625 44.34375 54.890625 33.015625 
z
" id="DejaVuSans-104"/>
      <path d="M 45.40625 46.390625 
L 45.40625 75.984375 
L 54.390625 75.984375 
L 54.390625 0 
L 45.40625 0 
L 45.40625 8.203125 
Q 42.578125 3.328125 38.25 0.953125 
Q 33.9375 -1.421875 27.875 -1.421875 
Q 17.96875 -1.421875 11.734375 6.484375 
Q 5.515625 14.40625 5.515625 27.296875 
Q 5.515625 40.1875 11.734375 48.09375 
Q 17.96875 56 27.875 56 
Q 33.9375 56 38.25 53.625 
Q 42.578125 51.265625 45.40625 46.390625 
z
M 14.796875 27.296875 
Q 14.796875 17.390625 18.875 11.75 
Q 22.953125 6.109375 30.078125 6.109375 
Q 37.203125 6.109375 41.296875 11.75 
Q 45.40625 17.390625 45.40625 27.296875 
Q 45.40625 37.203125 41.296875 42.84375 
Q 37.203125 48.484375 30.078125 48.484375 
Q 22.953125 48.484375 18.875 42.84375 
Q 14.796875 37.203125 14.796875 27.296875 
z
" id="DejaVuSans-100"/>
      <path d="M 9.421875 54.6875 
L 18.40625 54.6875 
L 18.40625 0 
L 9.421875 0 
z
M 9.421875 75.984375 
L 18.40625 75.984375 
L 18.40625 64.59375 
L 9.421875 64.59375 
z
" id="DejaVuSans-105"/>
      <path d="M 4.203125 54.6875 
L 13.1875 54.6875 
L 24.421875 12.015625 
L 35.59375 54.6875 
L 46.1875 54.6875 
L 57.421875 12.015625 
L 68.609375 54.6875 
L 77.59375 54.6875 
L 63.28125 0 
L 52.6875 0 
L 40.921875 44.828125 
L 29.109375 0 
L 18.5 0 
z
" id="DejaVuSans-119"/>
      <path d="M 9.078125 75.984375 
L 18.109375 75.984375 
L 18.109375 31.109375 
L 44.921875 54.6875 
L 56.390625 54.6875 
L 27.390625 29.109375 
L 57.625 0 
L 45.90625 0 
L 18.109375 26.703125 
L 18.109375 0 
L 9.078125 0 
z
" id="DejaVuSans-107"/>
     </defs>
     <use xlink:href="#DejaVuSans-73"/>
     <use x="29.492188" xlink:href="#DejaVuSans-109"/>
     <use x="126.904297" xlink:href="#DejaVuSans-112"/>
     <use x="190.380859" xlink:href="#DejaVuSans-111"/>
     <use x="251.5625" xlink:href="#DejaVuSans-114"/>
     <use x="292.675781" xlink:href="#DejaVuSans-116"/>
     <use x="331.884766" xlink:href="#DejaVuSans-97"/>
     <use x="393.164062" xlink:href="#DejaVuSans-110"/>
     <use x="456.542969" xlink:href="#DejaVuSans-99"/>
     <use x="511.523438" xlink:href="#DejaVuSans-101"/>
     <use x="573.046875" xlink:href="#DejaVuSans-32"/>
     <use x="604.833984" xlink:href="#DejaVuSans-115"/>
     <use x="656.933594" xlink:href="#DejaVuSans-99"/>
     <use x="711.914062" xlink:href="#DejaVuSans-111"/>
     <use x="773.095703" xlink:href="#DejaVuSans-114"/>
     <use x="811.958984" xlink:href="#DejaVuSans-101"/>
     <use x="873.482422" xlink:href="#DejaVuSans-32"/>
     <use x="905.269531" xlink:href="#DejaVuSans-102"/>
     <use x="940.474609" xlink:href="#DejaVuSans-111"/>
     <use x="1001.65625" xlink:href="#DejaVuSans-114"/>
     <use x="1042.769531" xlink:href="#DejaVuSans-32"/>
     <use x="1074.556641" xlink:href="#DejaVuSans-101"/>
     <use x="1136.080078" xlink:href="#DejaVuSans-97"/>
     <use x="1197.359375" xlink:href="#DejaVuSans-99"/>
     <use x="1252.339844" xlink:href="#DejaVuSans-104"/>
     <use x="1315.71875" xlink:href="#DejaVuSans-32"/>
     <use x="1347.505859" xlink:href="#DejaVuSans-110"/>
     <use x="1410.884766" xlink:href="#DejaVuSans-111"/>
     <use x="1472.066406" xlink:href="#DejaVuSans-100"/>
     <use x="1535.542969" xlink:href="#DejaVuSans-101"/>
     <use x="1597.066406" xlink:href="#DejaVuSans-32"/>
     <use x="1628.853516" xlink:href="#DejaVuSans-105"/>
     <use x="1656.636719" xlink:href="#DejaVuSans-110"/>
     <use x="1720.015625" xlink:href="#DejaVuSans-32"/>
     <use x="1751.802734" xlink:href="#DejaVuSans-116"/>
     <use x="1791.011719" xlink:href="#DejaVuSans-104"/>
     <use x="1854.390625" xlink:href="#DejaVuSans-101"/>
     <use x="1915.914062" xlink:href="#DejaVuSans-32"/>
     <use x="1947.701172" xlink:href="#DejaVuSans-110"/>
     <use x="2011.080078" xlink:href="#DejaVuSans-101"/>
     <use x="2072.603516" xlink:href="#DejaVuSans-116"/>
     <use x="2111.8125" xlink:href="#DejaVuSans-119"/>
     <use x="2193.599609" xlink:href="#DejaVuSans-111"/>
     <use x="2254.78125" xlink:href="#DejaVuSans-114"/>
     <use x="2295.894531" xlink:href="#DejaVuSans-107"/>
    </g>
   </g>
  </g>
 </g>
 <defs>
  <clipPath id="pa6e39b4c1f">
   <rect height="576" width="864" x="7.2" y="22.318125"/>
  </clipPath>
 </defs>
</svg>
