<?xml version="1.0" encoding="utf-8" standalone="no"?>
<!DOCTYPE svg PUBLIC "-//W3C//DTD SVG 1.1//EN"
  "http://www.w3.org/Graphics/SVG/1.1/DTD/svg11.dtd">
<!-- Created with matplotlib (https://matplotlib.org/) -->
<svg height="576pt" version="1.1" viewBox="0 0 864 576" width="864pt" xmlns="http://www.w3.org/2000/svg" xmlns:xlink="http://www.w3.org/1999/xlink">
 <metadata>
  <rdf:RDF xmlns:cc="http://creativecommons.org/ns#" xmlns:dc="http://purl.org/dc/elements/1.1/" xmlns:rdf="http://www.w3.org/1999/02/22-rdf-syntax-ns#">
   <cc:Work>
    <dc:type rdf:resource="http://purl.org/dc/dcmitype/StillImage"/>
    <dc:date>2024-04-26T13:36:37.652201</dc:date>
    <dc:format>image/svg+xml</dc:format>
    <dc:creator>
     <cc:Agent>
      <dc:title>Matplotlib v3.3.1, https://matplotlib.org/</dc:title>
     </cc:Agent>
    </dc:creator>
   </cc:Work>
  </rdf:RDF>
 </metadata>
 <defs>
  <style type="text/css">*{stroke-linecap:butt;stroke-linejoin:round;}</style>
 </defs>
 <g id="figure_1">
  <g id="patch_1">
   <path d="M 0 576 
L 864 576 
L 864 0 
L 0 0 
z
" style="fill:#ffffff;"/>
  </g>
  <g id="axes_1">
   <g id="patch_2">
    <path clip-path="url(#p7627a7d2cf)" d="M 534.519258 266.403838 
Q 581.881412 244.647178 628.227598 223.35722 
" style="fill:none;stroke:#000000;stroke-linecap:round;"/>
    <path clip-path="url(#p7627a7d2cf)" d="M 623.757901 223.20953 
L 628.227598 223.35722 
L 625.427628 226.844363 
L 623.757901 223.20953 
z
" style="stroke:#000000;stroke-linecap:round;"/>
   </g>
   <g id="patch_3">
    <path clip-path="url(#p7627a7d2cf)" d="M 526.063917 278.661798 
Q 525.096399 292.982541 524.204244 306.187793 
" style="fill:none;stroke:#000000;stroke-linecap:round;"/>
    <path clip-path="url(#p7627a7d2cf)" d="M 526.469323 302.331704 
L 524.204244 306.187793 
L 522.478421 302.062076 
L 526.469323 302.331704 
z
" style="stroke:#000000;stroke-linecap:round;"/>
   </g>
   <g id="patch_4">
    <path clip-path="url(#p7627a7d2cf)" d="M 527.64534 278.624218 
Q 532.80374 323.118062 537.833383 366.50131 
" style="fill:none;stroke:#000000;stroke-linecap:round;"/>
    <path clip-path="url(#p7627a7d2cf)" d="M 539.359421 362.297597 
L 537.833383 366.50131 
L 535.386034 362.758252 
L 539.359421 362.297597 
z
" style="stroke:#000000;stroke-linecap:round;"/>
   </g>
   <g id="patch_5">
    <path clip-path="url(#p7627a7d2cf)" d="M 526.834372 278.678665 
Q 527.507039 309.894148 528.15562 339.991856 
" style="fill:none;stroke:#000000;stroke-linecap:round;"/>
    <path clip-path="url(#p7627a7d2cf)" d="M 530.068979 335.949696 
L 528.15562 339.991856 
L 526.069907 336.035872 
L 530.068979 335.949696 
z
" style="stroke:#000000;stroke-linecap:round;"/>
   </g>
   <g id="patch_6">
    <path clip-path="url(#p7627a7d2cf)" d="M 519.4109 274.769864 
Q 470.851604 306.64306 423.226984 337.902757 
" style="fill:none;stroke:#000000;stroke-linecap:round;"/>
    <path clip-path="url(#p7627a7d2cf)" d="M 427.668442 337.379834 
L 423.226984 337.902757 
L 425.47352 334.035836 
L 427.668442 337.379834 
z
" style="stroke:#000000;stroke-linecap:round;"/>
   </g>
   <g id="patch_7">
    <path clip-path="url(#p7627a7d2cf)" d="M 520.29244 275.907477 
Q 487.5451 306.245365 455.617926 335.823432 
" style="fill:none;stroke:#000000;stroke-linecap:round;"/>
    <path clip-path="url(#p7627a7d2cf)" d="M 459.91145 334.572173 
L 455.617926 335.823432 
L 457.193033 331.637857 
L 459.91145 334.572173 
z
" style="stroke:#000000;stroke-linecap:round;"/>
   </g>
   <g id="patch_8">
    <path clip-path="url(#p7627a7d2cf)" d="M 478.698595 313.091711 
Q 496.801098 314.243962 513.787826 315.325193 
" style="fill:none;stroke:#000000;stroke-linecap:round;"/>
    <path clip-path="url(#p7627a7d2cf)" d="M 509.92295 313.07514 
L 513.787826 315.325193 
L 509.668858 317.067062 
L 509.92295 313.07514 
z
" style="stroke:#000000;stroke-linecap:round;"/>
   </g>
   <g id="patch_9">
    <path clip-path="url(#p7627a7d2cf)" d="M 476.417881 318.419817 
Q 504.508054 344.378592 531.77712 369.578563 
" style="fill:none;stroke:#000000;stroke-linecap:round;"/>
    <path clip-path="url(#p7627a7d2cf)" d="M 530.196828 365.394943 
L 531.77712 369.578563 
L 527.482049 368.332625 
L 530.196828 365.394943 
z
" style="stroke:#000000;stroke-linecap:round;"/>
   </g>
   <g id="patch_10">
    <path clip-path="url(#p7627a7d2cf)" d="M 477.356412 317.201466 
Q 499.21087 331.153093 520.122952 344.503118 
" style="fill:none;stroke:#000000;stroke-linecap:round;"/>
    <path clip-path="url(#p7627a7d2cf)" d="M 517.82758 340.664985 
L 520.122952 344.503118 
L 515.675222 344.036536 
L 517.82758 340.664985 
z
" style="stroke:#000000;stroke-linecap:round;"/>
   </g>
   <g id="patch_11">
    <path clip-path="url(#p7627a7d2cf)" d="M 462.493413 316.766873 
Q 442.553493 327.905667 423.589638 338.499214 
" style="fill:none;stroke:#000000;stroke-linecap:round;"/>
    <path clip-path="url(#p7627a7d2cf)" d="M 428.057087 338.294516 
L 423.589638 338.499214 
L 426.106349 334.802436 
L 428.057087 338.294516 
z
" style="stroke:#000000;stroke-linecap:round;"/>
   </g>
   <g id="patch_12">
    <path clip-path="url(#p7627a7d2cf)" d="M 464.989318 319.559261 
Q 459.253022 327.502589 454.171282 334.539521 
" style="fill:none;stroke:#000000;stroke-linecap:round;"/>
    <path clip-path="url(#p7627a7d2cf)" d="M 458.134508 332.467604 
L 454.171282 334.539521 
L 454.891684 330.12579 
L 458.134508 332.467604 
z
" style="stroke:#000000;stroke-linecap:round;"/>
   </g>
   <g id="patch_13">
    <path clip-path="url(#p7627a7d2cf)" d="M 548.513002 260.266446 
Q 602.106025 187.425127 655.036469 115.484357 
" style="fill:none;stroke:#000000;stroke-linecap:round;"/>
    <path clip-path="url(#p7627a7d2cf)" d="M 651.055002 117.521002 
L 655.036469 115.484357 
L 654.276904 119.891518 
L 651.055002 117.521002 
z
" style="stroke:#000000;stroke-linecap:round;"/>
   </g>
   <g id="patch_14">
    <path clip-path="url(#p7627a7d2cf)" d="M 551.69047 145.618723 
Q 630.63782 177.90412 708.550326 209.76632 
" style="fill:none;stroke:#000000;stroke-linecap:round;"/>
    <path clip-path="url(#p7627a7d2cf)" d="M 705.604993 206.401054 
L 708.550326 209.76632 
L 704.090914 210.103426 
L 705.604993 206.401054 
z
" style="stroke:#000000;stroke-linecap:round;"/>
   </g>
   <g id="patch_15">
    <path clip-path="url(#p7627a7d2cf)" d="M 632.277857 226.464182 
Q 592.595681 285.47478 553.537395 343.557604 
" style="fill:none;stroke:#000000;stroke-linecap:round;"/>
    <path clip-path="url(#p7627a7d2cf)" d="M 557.429138 341.354349 
L 553.537395 343.557604 
L 554.109836 339.122256 
L 557.429138 341.354349 
z
" style="stroke:#000000;stroke-linecap:round;"/>
   </g>
   <g id="patch_16">
    <path clip-path="url(#p7627a7d2cf)" d="M 645.753051 218.652726 
Q 677.360545 216.37205 707.852904 214.171838 
" style="fill:none;stroke:#000000;stroke-linecap:round;"/>
    <path clip-path="url(#p7627a7d2cf)" d="M 703.719339 212.4649 
L 707.852904 214.171838 
L 704.007215 216.454528 
L 703.719339 212.4649 
z
" style="stroke:#000000;stroke-linecap:round;"/>
   </g>
   <g id="patch_17">
    <path clip-path="url(#p7627a7d2cf)" d="M 719.326189 302.251902 
Q 718.54852 262.188474 717.792549 223.242869 
" style="fill:none;stroke:#000000;stroke-linecap:round;"/>
    <path clip-path="url(#p7627a7d2cf)" d="M 715.870555 227.28093 
L 717.792549 223.242869 
L 719.869802 227.203301 
L 715.870555 227.28093 
z
" style="stroke:#000000;stroke-linecap:round;"/>
   </g>
   <g id="patch_18">
    <path clip-path="url(#p7627a7d2cf)" d="M 613.751187 316.06467 
Q 564.226275 337.275125 515.729107 358.04542 
" style="fill:none;stroke:#000000;stroke-linecap:round;"/>
    <path clip-path="url(#p7627a7d2cf)" d="M 520.193461 358.309137 
L 515.729107 358.04542 
L 518.618694 354.632167 
L 520.193461 358.309137 
z
" style="stroke:#000000;stroke-linecap:round;"/>
   </g>
   <g id="patch_19">
    <path clip-path="url(#p7627a7d2cf)" d="M 613.256992 310.789978 
Q 564.161356 299.95964 516.157504 289.370146 
" style="fill:none;stroke:#000000;stroke-linecap:round;"/>
    <path clip-path="url(#p7627a7d2cf)" d="M 519.632757 292.18486 
L 516.157504 289.370146 
L 520.494428 288.278772 
L 519.632757 292.18486 
z
" style="stroke:#000000;stroke-linecap:round;"/>
   </g>
   <g id="patch_20">
    <path clip-path="url(#p7627a7d2cf)" d="M 541.264947 357.01809 
Q 503.432427 386.69035 466.47964 415.672631 
" style="fill:none;stroke:#000000;stroke-linecap:round;"/>
    <path clip-path="url(#p7627a7d2cf)" d="M 470.861338 414.7778 
L 466.47964 415.672631 
L 468.392794 411.630374 
L 470.861338 414.7778 
z
" style="stroke:#000000;stroke-linecap:round;"/>
   </g>
   <g id="patch_21">
    <path clip-path="url(#p7627a7d2cf)" d="M 541.392985 346.168422 
Q 479.063681 294.864458 417.597598 244.271021 
" style="fill:none;stroke:#000000;stroke-linecap:round;"/>
    <path clip-path="url(#p7627a7d2cf)" d="M 419.414922 248.357258 
L 417.597598 244.271021 
L 421.956982 245.268904 
L 419.414922 248.357258 
z
" style="stroke:#000000;stroke-linecap:round;"/>
   </g>
   <g id="patch_22">
    <path clip-path="url(#p7627a7d2cf)" d="M 543.998514 359.309105 
Q 515.34649 412.912492 487.22151 465.529864 
" style="fill:none;stroke:#000000;stroke-linecap:round;"/>
    <path clip-path="url(#p7627a7d2cf)" d="M 490.870955 462.944994 
L 487.22151 465.529864 
L 487.343282 461.059386 
L 490.870955 462.944994 
z
" style="stroke:#000000;stroke-linecap:round;"/>
   </g>
   <g id="patch_23">
    <path clip-path="url(#p7627a7d2cf)" d="M 353.976634 438.425987 
Q 327.122424 387.325687 300.788317 337.21508 
" style="fill:none;stroke:#000000;stroke-linecap:round;"/>
    <path clip-path="url(#p7627a7d2cf)" d="M 300.878677 341.686303 
L 300.788317 337.21508 
L 304.419512 339.825525 
L 300.878677 341.686303 
z
" style="stroke:#000000;stroke-linecap:round;"/>
   </g>
   <g id="patch_24">
    <path clip-path="url(#p7627a7d2cf)" d="M 423.102147 292.759601 
Q 471.925885 319.200172 519.766496 345.108331 
" style="fill:none;stroke:#000000;stroke-linecap:round;"/>
    <path clip-path="url(#p7627a7d2cf)" d="M 517.201569 341.444842 
L 519.766496 345.108331 
L 515.296749 344.96218 
L 517.201569 341.444842 
z
" style="stroke:#000000;stroke-linecap:round;"/>
   </g>
   <g id="patch_25">
    <path clip-path="url(#p7627a7d2cf)" d="M 415.417091 297.294609 
Q 415.269507 315.950136 415.130768 333.487664 
" style="fill:none;stroke:#000000;stroke-linecap:round;"/>
    <path clip-path="url(#p7627a7d2cf)" d="M 417.162349 329.503611 
L 415.130768 333.487664 
L 413.162474 329.471968 
L 417.162349 329.503611 
z
" style="stroke:#000000;stroke-linecap:round;"/>
   </g>
   <g id="patch_26">
    <path clip-path="url(#p7627a7d2cf)" d="M 420.005964 296.017822 
Q 431.964982 315.550123 443.340197 334.128918 
" style="fill:none;stroke:#000000;stroke-linecap:round;"/>
    <path clip-path="url(#p7627a7d2cf)" d="M 442.957207 329.673211 
L 443.340197 334.128918 
L 439.545838 331.761886 
L 442.957207 329.673211 
z
" style="stroke:#000000;stroke-linecap:round;"/>
   </g>
   <g id="patch_27">
    <path clip-path="url(#p7627a7d2cf)" d="M 364.040678 397.6558 
Q 431.19152 380.827505 497.257865 364.270989 
" style="fill:none;stroke:#000000;stroke-linecap:round;"/>
    <path clip-path="url(#p7627a7d2cf)" d="M 492.891673 363.303329 
L 497.257865 364.270989 
L 493.864022 367.183347 
L 492.891673 363.303329 
z
" style="stroke:#000000;stroke-linecap:round;"/>
   </g>
   <g id="patch_28">
    <path clip-path="url(#p7627a7d2cf)" d="M 515.152265 359.814672 
Q 527.413845 356.782838 538.590077 354.01937 
" style="fill:none;stroke:#000000;stroke-linecap:round;"/>
    <path clip-path="url(#p7627a7d2cf)" d="M 534.226951 353.037977 
L 538.590077 354.01937 
L 535.187087 356.921035 
L 534.226951 353.037977 
z
" style="stroke:#000000;stroke-linecap:round;"/>
   </g>
   <g id="patch_29">
    <path clip-path="url(#p7627a7d2cf)" d="M 506.72721 353.234729 
Q 506.67488 324.579588 506.624593 297.042478 
" style="fill:none;stroke:#000000;stroke-linecap:round;"/>
    <path clip-path="url(#p7627a7d2cf)" d="M 504.631901 301.046124 
L 506.624593 297.042478 
L 508.631894 301.038819 
L 504.631901 301.046124 
z
" style="stroke:#000000;stroke-linecap:round;"/>
   </g>
   <g id="patch_30">
    <path clip-path="url(#p7627a7d2cf)" d="M 504.92336 370.35928 
Q 494.677884 418.022607 484.667368 464.592868 
" style="fill:none;stroke:#000000;stroke-linecap:round;"/>
    <path clip-path="url(#p7627a7d2cf)" d="M 487.463323 461.102505 
L 484.667368 464.592868 
L 483.55265 460.261886 
L 487.463323 461.102505 
z
" style="stroke:#000000;stroke-linecap:round;"/>
   </g>
   <g id="patch_31">
    <path clip-path="url(#p7627a7d2cf)" d="M 570.7088 464.142967 
Q 541.022534 416.689608 511.929226 370.184089 
" style="fill:none;stroke:#000000;stroke-linecap:round;"/>
    <path clip-path="url(#p7627a7d2cf)" d="M 512.355108 374.6359 
L 511.929226 370.184089 
L 515.746204 372.51447 
L 512.355108 374.6359 
z
" style="stroke:#000000;stroke-linecap:round;"/>
   </g>
   <g id="patch_32">
    <path clip-path="url(#p7627a7d2cf)" d="M 502.825058 321.54394 
Q 509.005365 319.874268 514.106332 318.496189 
" style="fill:none;stroke:#000000;stroke-linecap:round;"/>
    <path clip-path="url(#p7627a7d2cf)" d="M 509.723152 317.608649 
L 514.106332 318.496189 
L 510.766392 321.47021 
L 509.723152 317.608649 
z
" style="stroke:#000000;stroke-linecap:round;"/>
   </g>
   <g id="patch_33">
    <path clip-path="url(#p7627a7d2cf)" d="M 500.067914 330.402092 
Q 516.711563 350.008115 532.631662 368.761804 
" style="fill:none;stroke:#000000;stroke-linecap:round;"/>
    <path clip-path="url(#p7627a7d2cf)" d="M 531.56771 364.418072 
L 532.631662 368.761804 
L 528.518305 367.006726 
L 531.56771 364.418072 
z
" style="stroke:#000000;stroke-linecap:round;"/>
   </g>
   <g id="patch_34">
    <path clip-path="url(#p7627a7d2cf)" d="M 501.341156 329.068229 
Q 511.414529 336.782977 520.600277 343.817932 
" style="fill:none;stroke:#000000;stroke-linecap:round;"/>
    <path clip-path="url(#p7627a7d2cf)" d="M 518.640659 339.797994 
L 520.600277 343.817932 
L 516.208556 342.973663 
L 518.640659 339.797994 
z
" style="stroke:#000000;stroke-linecap:round;"/>
   </g>
   <g id="patch_35">
    <path clip-path="url(#p7627a7d2cf)" d="M 486.055981 325.863688 
Q 454.760501 333.534778 424.550909 340.939697 
" style="fill:none;stroke:#000000;stroke-linecap:round;"/>
    <path clip-path="url(#p7627a7d2cf)" d="M 428.912041 341.929911 
L 424.550909 340.939697 
L 427.959759 338.04492 
L 428.912041 341.929911 
z
" style="stroke:#000000;stroke-linecap:round;"/>
   </g>
   <g id="patch_36">
    <path clip-path="url(#p7627a7d2cf)" d="M 486.440622 327.057218 
Q 471.456292 333.134828 457.508019 338.792216 
" style="fill:none;stroke:#000000;stroke-linecap:round;"/>
    <path clip-path="url(#p7627a7d2cf)" d="M 461.966444 339.142138 
L 457.508019 338.792216 
L 460.463011 335.435429 
L 461.966444 339.142138 
z
" style="stroke:#000000;stroke-linecap:round;"/>
   </g>
   <g id="patch_37">
    <path clip-path="url(#p7627a7d2cf)" d="M 478.10676 294.880706 
Q 496.89744 303.592228 514.673791 311.833499 
" style="fill:none;stroke:#000000;stroke-linecap:round;"/>
    <path clip-path="url(#p7627a7d2cf)" d="M 511.886029 308.336589 
L 514.673791 311.833499 
L 510.203606 311.965562 
L 511.886029 308.336589 
z
" style="stroke:#000000;stroke-linecap:round;"/>
   </g>
   <g id="patch_38">
    <path clip-path="url(#p7627a7d2cf)" d="M 475.696702 297.973638 
Q 504.605029 333.72693 532.810403 368.610821 
" style="fill:none;stroke:#000000;stroke-linecap:round;"/>
    <path clip-path="url(#p7627a7d2cf)" d="M 531.85067 364.24288 
L 532.810403 368.610821 
L 528.74021 366.757842 
L 531.85067 364.24288 
z
" style="stroke:#000000;stroke-linecap:round;"/>
   </g>
   <g id="patch_39">
    <path clip-path="url(#p7627a7d2cf)" d="M 476.353985 297.384781 
Q 499.307755 320.501177 521.473751 342.824217 
" style="fill:none;stroke:#000000;stroke-linecap:round;"/>
    <path clip-path="url(#p7627a7d2cf)" d="M 520.074523 338.57661 
L 521.473751 342.824217 
L 517.236129 341.395036 
L 520.074523 338.57661 
z
" style="stroke:#000000;stroke-linecap:round;"/>
   </g>
   <g id="patch_40">
    <path clip-path="url(#p7627a7d2cf)" d="M 463.947857 297.180365 
Q 442.650536 317.25497 422.166794 336.562706 
" style="fill:none;stroke:#000000;stroke-linecap:round;"/>
    <path clip-path="url(#p7627a7d2cf)" d="M 426.449361 335.274442 
L 422.166794 336.562706 
L 423.705724 332.363694 
L 426.449361 335.274442 
z
" style="stroke:#000000;stroke-linecap:round;"/>
   </g>
   <g id="patch_41">
    <path clip-path="url(#p7627a7d2cf)" d="M 466.858817 299.208969 
Q 459.347641 316.855483 452.274337 333.473276 
" style="fill:none;stroke:#000000;stroke-linecap:round;"/>
    <path clip-path="url(#p7627a7d2cf)" d="M 455.681147 330.576098 
L 452.274337 333.473276 
L 452.000681 329.009521 
L 455.681147 330.576098 
z
" style="stroke:#000000;stroke-linecap:round;"/>
   </g>
   <g id="patch_42">
    <path clip-path="url(#p7627a7d2cf)" d="M 410.094007 361.296635 
Q 357.327058 346.123392 305.634602 331.259123 
" style="fill:none;stroke:#000000;stroke-linecap:round;"/>
    <path clip-path="url(#p7627a7d2cf)" d="M 308.926119 334.286649 
L 305.634602 331.259123 
L 310.031534 330.442425 
L 308.926119 334.286649 
z
" style="stroke:#000000;stroke-linecap:round;"/>
   </g>
   <g id="patch_43">
    <path clip-path="url(#p7627a7d2cf)" d="M 423.364918 370.797629 
Q 438.6034 392.698988 453.203334 413.682601 
" style="fill:none;stroke:#000000;stroke-linecap:round;"/>
    <path clip-path="url(#p7627a7d2cf)" d="M 452.560512 409.256906 
L 453.203334 413.682601 
L 449.277085 411.541442 
L 452.560512 409.256906 
z
" style="stroke:#000000;stroke-linecap:round;"/>
   </g>
   <g id="patch_44">
    <path clip-path="url(#p7627a7d2cf)" d="M 417.844424 355.052647 
Q 414.23348 300.876145 410.696891 247.815202 
" style="fill:none;stroke:#000000;stroke-linecap:round;"/>
    <path clip-path="url(#p7627a7d2cf)" d="M 408.967334 251.939354 
L 410.696891 247.815202 
L 412.958479 251.673339 
L 408.967334 251.939354 
z
" style="stroke:#000000;stroke-linecap:round;"/>
   </g>
   <g id="patch_45">
    <path clip-path="url(#p7627a7d2cf)" d="M 290.295351 322.258409 
Q 231.172848 259.597071 172.817618 197.748931 
" style="fill:none;stroke:#000000;stroke-linecap:round;"/>
    <path clip-path="url(#p7627a7d2cf)" d="M 174.108003 202.030859 
L 172.817618 197.748931 
L 177.017391 199.28578 
L 174.108003 202.030859 
z
" style="stroke:#000000;stroke-linecap:round;"/>
   </g>
   <g id="patch_46">
    <path clip-path="url(#p7627a7d2cf)" d="M 427.255387 390.277931 
Q 483.5436 372.293109 538.76682 354.648566 
" style="fill:none;stroke:#000000;stroke-linecap:round;"/>
    <path clip-path="url(#p7627a7d2cf)" d="M 534.347875 353.960868 
L 538.76682 354.648566 
L 535.565295 357.771103 
L 534.347875 353.960868 
z
" style="stroke:#000000;stroke-linecap:round;"/>
   </g>
   <g id="patch_47">
    <path clip-path="url(#p7627a7d2cf)" d="M 547.770621 231.461347 
Q 528.555837 292.547901 509.676526 352.567938 
" style="fill:none;stroke:#000000;stroke-linecap:round;"/>
    <path clip-path="url(#p7627a7d2cf)" d="M 512.784594 349.352364 
L 509.676526 352.567938 
L 508.968908 348.152139 
L 512.784594 349.352364 
z
" style="stroke:#000000;stroke-linecap:round;"/>
   </g>
   <g id="patch_48">
    <path clip-path="url(#p7627a7d2cf)" d="M 545.482826 230.354936 
Q 528.487586 255.233231 512.123006 279.188343 
" style="fill:none;stroke:#000000;stroke-linecap:round;"/>
    <path clip-path="url(#p7627a7d2cf)" d="M 516.030764 277.013617 
L 512.123006 279.188343 
L 512.727881 274.757301 
L 516.030764 277.013617 
z
" style="stroke:#000000;stroke-linecap:round;"/>
   </g>
   <g id="patch_49">
    <path clip-path="url(#p7627a7d2cf)" d="M 408.063 312.602767 
Q 453.528748 335.313152 497.994299 357.523932 
" style="fill:none;stroke:#000000;stroke-linecap:round;"/>
    <path clip-path="url(#p7627a7d2cf)" d="M 495.309602 353.947286 
L 497.994299 357.523932 
L 493.522163 357.525702 
L 495.309602 353.947286 
z
" style="stroke:#000000;stroke-linecap:round;"/>
   </g>
   <g id="patch_50">
    <path clip-path="url(#p7627a7d2cf)" d="M 408.805621 307.018805 
Q 453.460509 297.998653 497.019497 289.19987 
" style="fill:none;stroke:#000000;stroke-linecap:round;"/>
    <path clip-path="url(#p7627a7d2cf)" d="M 492.702691 288.031456 
L 497.019497 289.19987 
L 493.494683 291.952266 
L 492.702691 288.031456 
z
" style="stroke:#000000;stroke-linecap:round;"/>
   </g>
   <g id="patch_51">
    <path clip-path="url(#p7627a7d2cf)" d="M 590.342197 270.817563 
Q 551.470163 313.166368 513.354164 354.691515 
" style="fill:none;stroke:#000000;stroke-linecap:round;"/>
    <path clip-path="url(#p7627a7d2cf)" d="M 517.532441 353.09715 
L 513.354164 354.691515 
L 514.585638 350.392274 
L 517.532441 353.09715 
z
" style="stroke:#000000;stroke-linecap:round;"/>
   </g>
   <g id="patch_52">
    <path clip-path="url(#p7627a7d2cf)" d="M 587.806962 266.575854 
Q 551.403399 275.850408 516.083262 284.848937 
" style="fill:none;stroke:#000000;stroke-linecap:round;"/>
    <path clip-path="url(#p7627a7d2cf)" d="M 520.45321 285.799491 
L 516.083262 284.848937 
L 519.465674 281.923311 
L 520.45321 285.799491 
z
" style="stroke:#000000;stroke-linecap:round;"/>
   </g>
   <g id="patch_53">
    <path clip-path="url(#p7627a7d2cf)" d="M 682.328137 174.86406 
Q 697.044938 190.969982 711.007565 206.250543 
" style="fill:none;stroke:#000000;stroke-linecap:round;"/>
    <path clip-path="url(#p7627a7d2cf)" d="M 709.785799 201.948534 
L 711.007565 206.250543 
L 706.832897 204.64675 
L 709.785799 201.948534 
z
" style="stroke:#000000;stroke-linecap:round;"/>
   </g>
   <g id="patch_54">
    <path clip-path="url(#p7627a7d2cf)" d="M 681.234402 175.713672 
Q 694.445153 195.868597 707.043004 215.088453 
" style="fill:none;stroke:#000000;stroke-linecap:round;"/>
    <path clip-path="url(#p7627a7d2cf)" d="M 706.522927 210.646661 
L 707.043004 215.088453 
L 703.177524 212.839439 
L 706.522927 210.646661 
z
" style="stroke:#000000;stroke-linecap:round;"/>
   </g>
   <g id="patch_55">
    <path clip-path="url(#p7627a7d2cf)" d="M 668.292359 171.281381 
Q 607.302468 192.175009 547.370267 212.706297 
" style="fill:none;stroke:#000000;stroke-linecap:round;"/>
    <path clip-path="url(#p7627a7d2cf)" d="M 551.802549 213.30201 
L 547.370267 212.706297 
L 550.506207 209.517899 
L 551.802549 213.30201 
z
" style="stroke:#000000;stroke-linecap:round;"/>
   </g>
   <g id="patch_56">
    <path clip-path="url(#p7627a7d2cf)" d="M 591.71463 295.258319 
Q 651.026299 256.723319 709.400432 218.797439 
" style="fill:none;stroke:#000000;stroke-linecap:round;"/>
    <path clip-path="url(#p7627a7d2cf)" d="M 704.956576 219.299579 
L 709.400432 218.797439 
L 707.13583 222.653808 
L 704.956576 219.299579 
z
" style="stroke:#000000;stroke-linecap:round;"/>
   </g>
   <g id="patch_57">
    <path clip-path="url(#p7627a7d2cf)" d="M 591.88396 295.521004 
Q 648.430227 261.6189 704.017595 228.291699 
" style="fill:none;stroke:#000000;stroke-linecap:round;"/>
    <path clip-path="url(#p7627a7d2cf)" d="M 699.558518 228.633208 
L 704.017595 228.291699 
L 701.615356 232.063866 
L 699.558518 228.633208 
z
" style="stroke:#000000;stroke-linecap:round;"/>
   </g>
   <g id="patch_58">
    <path clip-path="url(#p7627a7d2cf)" d="M 580.274752 292.391937 
Q 561.285893 257.92741 542.836564 224.442122 
" style="fill:none;stroke:#000000;stroke-linecap:round;"/>
    <path clip-path="url(#p7627a7d2cf)" d="M 543.015127 228.910692 
L 542.836564 224.442122 
L 546.518558 226.980413 
L 543.015127 228.910692 
z
" style="stroke:#000000;stroke-linecap:round;"/>
   </g>
   <g id="patch_59">
    <path clip-path="url(#p7627a7d2cf)" d="M 512.583579 229.503737 
Q 583.363304 171.305503 653.279442 113.817351 
" style="fill:none;stroke:#000000;stroke-linecap:round;"/>
    <path clip-path="url(#p7627a7d2cf)" d="M 648.919542 114.81298 
L 653.279442 113.817351 
L 651.460004 117.902648 
L 648.919542 114.81298 
z
" style="stroke:#000000;stroke-linecap:round;"/>
   </g>
   <g id="patch_60">
    <path clip-path="url(#p7627a7d2cf)" d="M 716.463917 215.613676 
Q 717.033367 214.540999 717.078579 214.455831 
" style="fill:none;stroke:#000000;stroke-linecap:round;"/>
    <path clip-path="url(#p7627a7d2cf)" d="M 713.436501 217.051071 
L 717.078579 214.455831 
L 716.969524 218.926637 
L 713.436501 217.051071 
z
" style="stroke:#000000;stroke-linecap:round;"/>
   </g>
   <g id="patch_61">
    <path clip-path="url(#p7627a7d2cf)" d="M 708.875345 215.354924 
Q 686.616755 165.435156 664.81347 116.536512 
" style="fill:none;stroke:#000000;stroke-linecap:round;"/>
    <path clip-path="url(#p7627a7d2cf)" d="M 664.615781 121.004277 
L 664.81347 116.536512 
L 668.269068 119.375322 
L 664.615781 121.004277 
z
" style="stroke:#000000;stroke-linecap:round;"/>
   </g>
   <g id="patch_62">
    <path clip-path="url(#p7627a7d2cf)" d="M 546.774172 215.760087 
Q 627.857565 214.672306 707.823024 213.599523 
" style="fill:none;stroke:#000000;stroke-linecap:round;"/>
    <path clip-path="url(#p7627a7d2cf)" d="M 703.796555 211.653361 
L 707.823024 213.599523 
L 703.850212 215.653001 
L 703.796555 211.653361 
z
" style="stroke:#000000;stroke-linecap:round;"/>
   </g>
   <g id="patch_63">
    <path clip-path="url(#p7627a7d2cf)" d="M 544.614542 210.143603 
Q 599.476307 161.740184 653.499697 114.076446 
" style="fill:none;stroke:#000000;stroke-linecap:round;"/>
    <path clip-path="url(#p7627a7d2cf)" d="M 649.177055 115.223079 
L 653.499697 114.076446 
L 651.823418 118.22254 
L 649.177055 115.223079 
z
" style="stroke:#000000;stroke-linecap:round;"/>
   </g>
   <g id="patch_64">
    <path clip-path="url(#p7627a7d2cf)" d="M 506.622548 295.922514 
Q 506.674877 324.577656 506.725164 352.114765 
" style="fill:none;stroke:#000000;stroke-linecap:round;"/>
    <path clip-path="url(#p7627a7d2cf)" d="M 508.717856 348.11112 
L 506.725164 352.114765 
L 504.717863 348.118424 
L 508.717856 348.11112 
z
" style="stroke:#000000;stroke-linecap:round;"/>
   </g>
   <g id="patch_65">
    <path clip-path="url(#p7627a7d2cf)" d="M 511.00877 294.717628 
Q 515.075532 301.604232 518.573787 307.528132 
" style="fill:none;stroke:#000000;stroke-linecap:round;"/>
    <path clip-path="url(#p7627a7d2cf)" d="M 518.261969 303.06688 
L 518.573787 307.528132 
L 514.817694 305.100835 
L 518.261969 303.06688 
z
" style="stroke:#000000;stroke-linecap:round;"/>
   </g>
   <g id="patch_66">
    <path clip-path="url(#p7627a7d2cf)" d="M 509.567747 295.404438 
Q 522.783259 331.739856 535.616624 367.024577 
" style="fill:none;stroke:#000000;stroke-linecap:round;"/>
    <path clip-path="url(#p7627a7d2cf)" d="M 536.128954 362.581884 
L 535.616624 367.024577 
L 532.369868 363.949097 
L 536.128954 362.581884 
z
" style="stroke:#000000;stroke-linecap:round;"/>
   </g>
   <g id="patch_67">
    <path clip-path="url(#p7627a7d2cf)" d="M 509.452841 295.438468 
Q 517.485607 318.511886 525.150782 340.529427 
" style="fill:none;stroke:#000000;stroke-linecap:round;"/>
    <path clip-path="url(#p7627a7d2cf)" d="M 525.724453 336.094238 
L 525.150782 340.529427 
L 521.946833 337.409376 
L 525.724453 336.094238 
z
" style="stroke:#000000;stroke-linecap:round;"/>
   </g>
   <g id="patch_68">
    <path clip-path="url(#p7627a7d2cf)" d="M 499.216641 291.783898 
Q 460.829747 315.265688 423.396595 338.164061 
" style="fill:none;stroke:#000000;stroke-linecap:round;"/>
    <path clip-path="url(#p7627a7d2cf)" d="M 427.852456 337.78287 
L 423.396595 338.164061 
L 425.765159 334.370658 
L 427.852456 337.78287 
z
" style="stroke:#000000;stroke-linecap:round;"/>
   </g>
   <g id="patch_69">
    <path clip-path="url(#p7627a7d2cf)" d="M 500.327034 293.223776 
Q 477.526099 314.865725 455.536075 335.737983 
" style="fill:none;stroke:#000000;stroke-linecap:round;"/>
    <path clip-path="url(#p7627a7d2cf)" d="M 459.814141 334.434853 
L 455.536075 335.737983 
L 457.06041 331.533652 
L 459.814141 334.434853 
z
" style="stroke:#000000;stroke-linecap:round;"/>
   </g>
   <g id="patch_70">
    <path clip-path="url(#p7627a7d2cf)" d="M 279.051684 227.039325 
Q 262.067811 258.417005 245.616138 288.811445 
" style="fill:none;stroke:#000000;stroke-linecap:round;"/>
    <path clip-path="url(#p7627a7d2cf)" d="M 249.279073 286.245727 
L 245.616138 288.811445 
L 245.761324 284.341666 
L 249.279073 286.245727 
z
" style="stroke:#000000;stroke-linecap:round;"/>
   </g>
   <g id="patch_71">
    <path clip-path="url(#p7627a7d2cf)" d="M 278.054045 226.402995 
Q 237.298916 281.966604 197.205041 336.62869 
" style="fill:none;stroke:#000000;stroke-linecap:round;"/>
    <path clip-path="url(#p7627a7d2cf)" d="M 201.183509 334.586192 
L 197.205041 336.62869 
L 197.958123 332.220417 
L 201.183509 334.586192 
z
" style="stroke:#000000;stroke-linecap:round;"/>
   </g>
   <g id="patch_72">
    <path clip-path="url(#p7627a7d2cf)" d="M 242.35039 237.65455 
Q 241.756764 263.204831 241.189106 287.637379 
" style="fill:none;stroke:#000000;stroke-linecap:round;"/>
    <path clip-path="url(#p7627a7d2cf)" d="M 243.281476 283.684913 
L 241.189106 287.637379 
L 239.282555 283.592003 
L 243.281476 283.684913 
z
" style="stroke:#000000;stroke-linecap:round;"/>
   </g>
   <g id="patch_73">
    <path clip-path="url(#p7627a7d2cf)" d="M 239.045447 236.919862 
Q 216.986107 286.757699 195.379287 335.573174 
" style="fill:none;stroke:#000000;stroke-linecap:round;"/>
    <path clip-path="url(#p7627a7d2cf)" d="M 198.827132 332.724951 
L 195.379287 335.573174 
L 195.169416 331.105965 
L 198.827132 332.724951 
z
" style="stroke:#000000;stroke-linecap:round;"/>
   </g>
   <g id="patch_74">
    <path clip-path="url(#p7627a7d2cf)" d="M 248.509254 301.662584 
Q 268.602769 312.984965 287.722242 323.75849 
" style="fill:none;stroke:#000000;stroke-linecap:round;"/>
    <path clip-path="url(#p7627a7d2cf)" d="M 285.219232 320.052422 
L 287.722242 323.75849 
L 283.255582 323.537257 
L 285.219232 320.052422 
z
" style="stroke:#000000;stroke-linecap:round;"/>
   </g>
   <g id="patch_75">
    <path clip-path="url(#p7627a7d2cf)" d="M 199.985766 343.208505 
Q 243.83085 336.534552 286.570632 330.028844 
" style="fill:none;stroke:#000000;stroke-linecap:round;"/>
    <path clip-path="url(#p7627a7d2cf)" d="M 282.315215 328.653552 
L 286.570632 330.028844 
L 282.917148 332.608003 
L 282.315215 328.653552 
z
" style="stroke:#000000;stroke-linecap:round;"/>
   </g>
   <g id="patch_76">
    <path clip-path="url(#p7627a7d2cf)" d="M 624.845464 375.062408 
Q 586.722904 324.604634 549.27432 275.038911 
" style="fill:none;stroke:#000000;stroke-linecap:round;"/>
    <path clip-path="url(#p7627a7d2cf)" d="M 550.089857 279.436058 
L 549.27432 275.038911 
L 553.281359 277.02477 
L 550.089857 279.436058 
z
" style="stroke:#000000;stroke-linecap:round;"/>
   </g>
   <g id="patch_77">
    <path clip-path="url(#p7627a7d2cf)" d="M 528.446328 323.083272 
Q 535.812649 333.809579 542.546039 343.614258 
" style="fill:none;stroke:#000000;stroke-linecap:round;"/>
    <path clip-path="url(#p7627a7d2cf)" d="M 541.930256 339.18472 
L 542.546039 343.614258 
L 538.632939 341.449162 
L 541.930256 339.18472 
z
" style="stroke:#000000;stroke-linecap:round;"/>
   </g>
   <g id="patch_78">
    <path clip-path="url(#p7627a7d2cf)" d="M 515.662523 319.526219 
Q 470.983805 339.817981 427.323052 359.647413 
" style="fill:none;stroke:#000000;stroke-linecap:round;"/>
    <path clip-path="url(#p7627a7d2cf)" d="M 431.792072 359.814323 
L 427.323052 359.647413 
L 430.137992 356.172343 
L 431.792072 359.814323 
z
" style="stroke:#000000;stroke-linecap:round;"/>
   </g>
   <g id="patch_79">
    <path clip-path="url(#p7627a7d2cf)" d="M 515.253057 318.449242 
Q 459.311281 335.33583 404.439837 351.899327 
" style="fill:none;stroke:#000000;stroke-linecap:round;"/>
    <path clip-path="url(#p7627a7d2cf)" d="M 408.847139 352.658072 
L 404.439837 351.899327 
L 407.691214 348.828733 
L 408.847139 352.658072 
z
" style="stroke:#000000;stroke-linecap:round;"/>
   </g>
   <g id="patch_80">
    <path clip-path="url(#p7627a7d2cf)" d="M 541.975746 368.099929 
Q 543.519015 363.947025 544.67283 360.842132 
" style="fill:none;stroke:#000000;stroke-linecap:round;"/>
    <path clip-path="url(#p7627a7d2cf)" d="M 541.404741 363.894933 
L 544.67283 360.842132 
L 545.154218 365.288283 
L 541.404741 363.894933 
z
" style="stroke:#000000;stroke-linecap:round;"/>
   </g>
   <g id="patch_81">
    <path clip-path="url(#p7627a7d2cf)" d="M 530.34813 375.321297 
Q 478.689729 369.953462 428.143375 364.70118 
" style="fill:none;stroke:#000000;stroke-linecap:round;"/>
    <path clip-path="url(#p7627a7d2cf)" d="M 431.915246 367.103885 
L 428.143375 364.70118 
L 432.328661 363.125306 
L 431.915246 367.103885 
z
" style="stroke:#000000;stroke-linecap:round;"/>
   </g>
   <g id="patch_82">
    <path clip-path="url(#p7627a7d2cf)" d="M 530.392947 374.936576 
Q 467.01951 365.470955 404.751841 356.170494 
" style="fill:none;stroke:#000000;stroke-linecap:round;"/>
    <path clip-path="url(#p7627a7d2cf)" d="M 408.412507 358.739447 
L 404.751841 356.170494 
L 409.003403 354.783333 
L 408.412507 358.739447 
z
" style="stroke:#000000;stroke-linecap:round;"/>
   </g>
   <g id="patch_83">
    <path clip-path="url(#p7627a7d2cf)" d="M 536.986309 350.599495 
Q 538.222733 350.719115 538.346318 350.731072 
" style="fill:none;stroke:#000000;stroke-linecap:round;"/>
    <path clip-path="url(#p7627a7d2cf)" d="M 534.557501 348.355178 
L 538.346318 350.731072 
L 534.172313 352.336589 
L 534.557501 348.355178 
z
" style="stroke:#000000;stroke-linecap:round;"/>
   </g>
   <g id="patch_84">
    <path clip-path="url(#p7627a7d2cf)" d="M 519.773343 350.853872 
Q 473.391462 356.728407 428.118754 362.462459 
" style="fill:none;stroke:#000000;stroke-linecap:round;"/>
    <path clip-path="url(#p7627a7d2cf)" d="M 432.338355 363.943999 
L 428.118754 362.462459 
L 431.835747 359.975702 
L 432.338355 363.943999 
z
" style="stroke:#000000;stroke-linecap:round;"/>
   </g>
   <g id="patch_85">
    <path clip-path="url(#p7627a7d2cf)" d="M 519.714334 350.087487 
Q 461.722459 352.245485 404.847845 354.361907 
" style="fill:none;stroke:#000000;stroke-linecap:round;"/>
    <path clip-path="url(#p7627a7d2cf)" d="M 408.919451 356.211779 
L 404.847845 354.361907 
L 408.770706 352.214545 
L 408.919451 356.211779 
z
" style="stroke:#000000;stroke-linecap:round;"/>
   </g>
   <g id="patch_86">
    <path clip-path="url(#p7627a7d2cf)" d="M 423.69641 343.813804 
Q 481.566712 347.470246 538.321204 351.056188 
" style="fill:none;stroke:#000000;stroke-linecap:round;"/>
    <path clip-path="url(#p7627a7d2cf)" d="M 534.45528 348.807937 
L 538.321204 351.056188 
L 534.20305 352.799977 
L 534.45528 348.807937 
z
" style="stroke:#000000;stroke-linecap:round;"/>
   </g>
   <g id="patch_87">
    <path clip-path="url(#p7627a7d2cf)" d="M 416.461837 351.811419 
Q 416.736511 353.477612 416.82933 354.04066 
" style="fill:none;stroke:#000000;stroke-linecap:round;"/>
    <path clip-path="url(#p7627a7d2cf)" d="M 418.152073 349.768618 
L 416.82933 354.04066 
L 414.205342 350.41924 
L 418.152073 349.768618 
z
" style="stroke:#000000;stroke-linecap:round;"/>
   </g>
   <g id="patch_88">
    <path clip-path="url(#p7627a7d2cf)" d="M 407.540435 347.576964 
Q 405.065162 348.996721 403.559716 349.860208 
" style="fill:none;stroke:#000000;stroke-linecap:round;"/>
    <path clip-path="url(#p7627a7d2cf)" d="M 408.024559 349.604918 
L 403.559716 349.860208 
L 406.034389 346.135159 
L 408.024559 349.604918 
z
" style="stroke:#000000;stroke-linecap:round;"/>
   </g>
   <g id="patch_89">
    <path clip-path="url(#p7627a7d2cf)" d="M 457.072029 343.264767 
Q 498.264309 347.070422 538.343297 350.773223 
" style="fill:none;stroke:#000000;stroke-linecap:round;"/>
    <path clip-path="url(#p7627a7d2cf)" d="M 534.544251 348.413721 
L 538.343297 350.773223 
L 534.176267 352.396759 
L 534.544251 348.413721 
z
" style="stroke:#000000;stroke-linecap:round;"/>
   </g>
   <g id="patch_90">
    <path clip-path="url(#p7627a7d2cf)" d="M 441.375589 347.465277 
Q 433.432824 353.079457 426.40305 358.048308 
" style="fill:none;stroke:#000000;stroke-linecap:round;"/>
    <path clip-path="url(#p7627a7d2cf)" d="M 430.823861 357.372718 
L 426.40305 358.048308 
L 428.515065 354.106304 
L 430.823861 357.372718 
z
" style="stroke:#000000;stroke-linecap:round;"/>
   </g>
   <g id="patch_91">
    <path clip-path="url(#p7627a7d2cf)" d="M 440.006038 344.406268 
Q 421.760615 348.596876 404.604854 352.537211 
" style="fill:none;stroke:#000000;stroke-linecap:round;"/>
    <path clip-path="url(#p7627a7d2cf)" d="M 408.95105 353.591052 
L 404.604854 352.537211 
L 408.055644 349.692559 
L 408.95105 353.591052 
z
" style="stroke:#000000;stroke-linecap:round;"/>
   </g>
   <g id="patch_92">
    <path clip-path="url(#p7627a7d2cf)" d="M 451.273478 417.40134 
Q 377.513795 375.132746 304.724155 333.420043 
" style="fill:none;stroke:#000000;stroke-linecap:round;"/>
    <path clip-path="url(#p7627a7d2cf)" d="M 307.20028 337.144128 
L 304.724155 333.420043 
L 309.189098 333.673594 
L 307.20028 337.144128 
z
" style="stroke:#000000;stroke-linecap:round;"/>
   </g>
   <g id="patch_93">
    <path clip-path="url(#p7627a7d2cf)" d="M 403.270293 243.443992 
Q 353.143214 283.305762 303.891211 322.471658 
" style="fill:none;stroke:#000000;stroke-linecap:round;"/>
    <path clip-path="url(#p7627a7d2cf)" d="M 308.266798 321.54741 
L 303.891211 322.471658 
L 305.777165 318.416639 
L 308.266798 321.54741 
z
" style="stroke:#000000;stroke-linecap:round;"/>
   </g>
   <g id="patch_94">
    <path clip-path="url(#p7627a7d2cf)" d="M 401.044229 360.998834 
Q 426.931046 388.215247 452.047329 414.621549 
" style="fill:none;stroke:#000000;stroke-linecap:round;"/>
    <path clip-path="url(#p7627a7d2cf)" d="M 450.739752 410.34484 
L 452.047329 414.621549 
L 447.841416 413.101585 
L 450.739752 410.34484 
z
" style="stroke:#000000;stroke-linecap:round;"/>
   </g>
   <g id="patch_95">
    <path clip-path="url(#p7627a7d2cf)" d="M 396.179656 346.134039 
Q 402.561834 296.390817 408.801733 247.756539 
" style="fill:none;stroke:#000000;stroke-linecap:round;"/>
    <path clip-path="url(#p7627a7d2cf)" d="M 406.308956 251.469498 
L 408.801733 247.756539 
L 410.276434 251.978536 
L 406.308956 251.469498 
z
" style="stroke:#000000;stroke-linecap:round;"/>
   </g>
   <g id="PathCollection_1">
    <defs>
     <path d="M 0 8.660254 
C 2.296726 8.660254 4.499694 7.747755 6.123724 6.123724 
C 7.747755 4.499694 8.660254 2.296726 8.660254 -0 
C 8.660254 -2.296726 7.747755 -4.499694 6.123724 -6.123724 
C 4.499694 -7.747755 2.296726 -8.660254 0 -8.660254 
C -2.296726 -8.660254 -4.499694 -7.747755 -6.123724 -6.123724 
C -7.747755 -4.499694 -8.660254 -2.296726 -8.660254 0 
C -8.660254 2.296726 -7.747755 4.499694 -6.123724 6.123724 
C -4.499694 7.747755 -2.296726 8.660254 0 8.660254 
z
" id="C0_0_1fe2aeb1c2"/>
    </defs>
    <g clip-path="url(#p7627a7d2cf)">
     <use style="fill:#ff0000;stroke:#ff0000;" x="526.64778" xlink:href="#C0_0_1fe2aeb1c2" y="270.019744"/>
    </g>
    <g clip-path="url(#p7627a7d2cf)">
     <use style="fill:#ff0000;stroke:#ff0000;" x="470.057093" xlink:href="#C0_0_1fe2aeb1c2" y="312.541667"/>
    </g>
    <g clip-path="url(#p7627a7d2cf)">
     <use style="fill:#ff0000;stroke:#ff0000;" x="543.382094" xlink:href="#C0_0_1fe2aeb1c2" y="267.240154"/>
    </g>
    <g clip-path="url(#p7627a7d2cf)">
     <use style="fill:#ff0000;stroke:#ff0000;" x="543.672855" xlink:href="#C0_0_1fe2aeb1c2" y="142.339931"/>
    </g>
    <g clip-path="url(#p7627a7d2cf)">
     <use style="fill:#ff0000;stroke:#ff0000;" x="637.111427" xlink:href="#C0_0_1fe2aeb1c2" y="219.276272"/>
    </g>
    <g clip-path="url(#p7627a7d2cf)">
     <use style="fill:#ff0000;stroke:#ff0000;" x="719.494215" xlink:href="#C0_0_1fe2aeb1c2" y="310.90813"/>
    </g>
    <g clip-path="url(#p7627a7d2cf)">
     <use style="fill:#ff0000;stroke:#ff0000;" x="621.712154" xlink:href="#C0_0_1fe2aeb1c2" y="312.655159"/>
    </g>
    <g clip-path="url(#p7627a7d2cf)">
     <use style="fill:#ff0000;stroke:#ff0000;" x="548.080264" xlink:href="#C0_0_1fe2aeb1c2" y="351.672798"/>
    </g>
    <g clip-path="url(#p7627a7d2cf)">
     <use style="fill:#ff0000;stroke:#ff0000;" x="717.602816" xlink:href="#C0_0_1fe2aeb1c2" y="213.468322"/>
    </g>
    <g clip-path="url(#p7627a7d2cf)">
     <use style="fill:#008000;stroke:#008000;" x="358.004791" xlink:href="#C0_0_1fe2aeb1c2" y="446.091081"/>
    </g>
    <g clip-path="url(#p7627a7d2cf)">
     <use style="fill:#ff0000;stroke:#ff0000;" x="415.485598" xlink:href="#C0_0_1fe2aeb1c2" y="288.634846"/>
    </g>
    <g clip-path="url(#p7627a7d2cf)">
     <use style="fill:#ff0000;stroke:#ff0000;" x="355.64371" xlink:href="#C0_0_1fe2aeb1c2" y="399.760117"/>
    </g>
    <g clip-path="url(#p7627a7d2cf)">
     <use style="fill:#ffd700;stroke:#ffd700;" x="506.743023" xlink:href="#C0_0_1fe2aeb1c2" y="361.893967"/>
    </g>
    <g clip-path="url(#p7627a7d2cf)">
     <use style="fill:#ff0000;stroke:#ff0000;" x="575.301247" xlink:href="#C0_0_1fe2aeb1c2" y="471.483973"/>
    </g>
    <g clip-path="url(#p7627a7d2cf)">
     <use style="fill:#ff0000;stroke:#ff0000;" x="494.465393" xlink:href="#C0_0_1fe2aeb1c2" y="323.802389"/>
    </g>
    <g clip-path="url(#p7627a7d2cf)">
     <use style="fill:#ff0000;stroke:#ff0000;" x="470.251276" xlink:href="#C0_0_1fe2aeb1c2" y="291.238835"/>
    </g>
    <g clip-path="url(#p7627a7d2cf)">
     <use style="fill:#ff0000;stroke:#ff0000;" x="418.420172" xlink:href="#C0_0_1fe2aeb1c2" y="363.69084"/>
    </g>
    <g clip-path="url(#p7627a7d2cf)">
     <use style="fill:#008000;stroke:#008000;" x="296.238452" xlink:href="#C0_0_1fe2aeb1c2" y="328.557241"/>
    </g>
    <g clip-path="url(#p7627a7d2cf)">
     <use style="fill:#008000;stroke:#008000;" x="166.105785" xlink:href="#C0_0_1fe2aeb1c2" y="190.635355"/>
    </g>
    <g clip-path="url(#p7627a7d2cf)">
     <use style="fill:#ff0000;stroke:#ff0000;" x="419.002914" xlink:href="#C0_0_1fe2aeb1c2" y="392.914704"/>
    </g>
    <g clip-path="url(#p7627a7d2cf)">
     <use style="fill:#ff0000;stroke:#ff0000;" x="550.368046" xlink:href="#C0_0_1fe2aeb1c2" y="223.203761"/>
    </g>
    <g clip-path="url(#p7627a7d2cf)">
     <use style="fill:#ff0000;stroke:#ff0000;" x="400.316831" xlink:href="#C0_0_1fe2aeb1c2" y="308.733515"/>
    </g>
    <g clip-path="url(#p7627a7d2cf)">
     <use style="fill:#ff0000;stroke:#ff0000;" x="596.197934" xlink:href="#C0_0_1fe2aeb1c2" y="264.438081"/>
    </g>
    <g clip-path="url(#p7627a7d2cf)">
     <use style="fill:#ff0000;stroke:#ff0000;" x="676.488756" xlink:href="#C0_0_1fe2aeb1c2" y="168.473499"/>
    </g>
    <g clip-path="url(#p7627a7d2cf)">
     <use style="fill:#ff0000;stroke:#ff0000;" x="584.453335" xlink:href="#C0_0_1fe2aeb1c2" y="299.976008"/>
    </g>
    <g clip-path="url(#p7627a7d2cf)">
     <use style="fill:#ff0000;stroke:#ff0000;" x="505.895412" xlink:href="#C0_0_1fe2aeb1c2" y="235.003044"/>
    </g>
    <g clip-path="url(#p7627a7d2cf)">
     <use style="fill:#008000;stroke:#008000;" x="712.402225" xlink:href="#C0_0_1fe2aeb1c2" y="223.264725"/>
    </g>
    <g clip-path="url(#p7627a7d2cf)">
     <use style="fill:#ff0000;stroke:#ff0000;" x="538.117028" xlink:href="#C0_0_1fe2aeb1c2" y="215.876228"/>
    </g>
    <g clip-path="url(#p7627a7d2cf)">
     <use style="fill:#ff0000;stroke:#ff0000;" x="506.606735" xlink:href="#C0_0_1fe2aeb1c2" y="287.263277"/>
    </g>
    <g clip-path="url(#p7627a7d2cf)">
     <use style="fill:#ff0000;stroke:#ff0000;" x="283.175366" xlink:href="#C0_0_1fe2aeb1c2" y="219.420829"/>
    </g>
    <g clip-path="url(#p7627a7d2cf)">
     <use style="fill:#ff0000;stroke:#ff0000;" x="242.551495" xlink:href="#C0_0_1fe2aeb1c2" y="228.998779"/>
    </g>
    <g clip-path="url(#p7627a7d2cf)">
     <use style="fill:#ff0000;stroke:#ff0000;" x="240.962056" xlink:href="#C0_0_1fe2aeb1c2" y="297.409856"/>
    </g>
    <g clip-path="url(#p7627a7d2cf)">
     <use style="fill:#ff0000;stroke:#ff0000;" x="191.422793" xlink:href="#C0_0_1fe2aeb1c2" y="344.511933"/>
    </g>
    <g clip-path="url(#p7627a7d2cf)">
     <use style="fill:#ff0000;stroke:#ff0000;" x="660.832036" xlink:href="#C0_0_1fe2aeb1c2" y="107.607273"/>
    </g>
    <g clip-path="url(#p7627a7d2cf)">
     <use style="fill:#ff0000;stroke:#ff0000;" x="630.064728" xlink:href="#C0_0_1fe2aeb1c2" y="381.970455"/>
    </g>
    <g clip-path="url(#p7627a7d2cf)">
     <use style="fill:#ff0000;stroke:#ff0000;" x="523.544957" xlink:href="#C0_0_1fe2aeb1c2" y="315.946249"/>
    </g>
    <g clip-path="url(#p7627a7d2cf)">
     <use style="fill:#ff0000;stroke:#ff0000;" x="538.959671" xlink:href="#C0_0_1fe2aeb1c2" y="376.216124"/>
    </g>
    <g clip-path="url(#p7627a7d2cf)">
     <use style="fill:#008000;stroke:#008000;" x="528.366234" xlink:href="#C0_0_1fe2aeb1c2" y="349.765532"/>
    </g>
    <g clip-path="url(#p7627a7d2cf)">
     <use style="fill:#ff0000;stroke:#ff0000;" x="415.053399" xlink:href="#C0_0_1fe2aeb1c2" y="343.267709"/>
    </g>
    <g clip-path="url(#p7627a7d2cf)">
     <use style="fill:#ffd700;stroke:#ffd700;" x="448.445843" xlink:href="#C0_0_1fe2aeb1c2" y="342.467814"/>
    </g>
    <g clip-path="url(#p7627a7d2cf)">
     <use style="fill:#008000;stroke:#008000;" x="458.786254" xlink:href="#C0_0_1fe2aeb1c2" y="421.706598"/>
    </g>
    <g clip-path="url(#p7627a7d2cf)">
     <use style="fill:#008000;stroke:#008000;" x="410.046395" xlink:href="#C0_0_1fe2aeb1c2" y="238.055539"/>
    </g>
    <g clip-path="url(#p7627a7d2cf)">
     <use style="fill:#ff0000;stroke:#ff0000;" x="482.612427" xlink:href="#C0_0_1fe2aeb1c2" y="474.152727"/>
    </g>
    <g clip-path="url(#p7627a7d2cf)">
     <use style="fill:#ff0000;stroke:#ff0000;" x="395.077352" xlink:href="#C0_0_1fe2aeb1c2" y="354.725488"/>
    </g>
   </g>
   <g id="text_1">
    <g clip-path="url(#p7627a7d2cf)">
     <!-- CDKN2A -->
     <g transform="translate(501.49278 273.330994)scale(0.12 -0.12)">
      <defs>
       <path d="M 64.40625 67.28125 
L 64.40625 56.890625 
Q 59.421875 61.53125 53.78125 63.8125 
Q 48.140625 66.109375 41.796875 66.109375 
Q 29.296875 66.109375 22.65625 58.46875 
Q 16.015625 50.828125 16.015625 36.375 
Q 16.015625 21.96875 22.65625 14.328125 
Q 29.296875 6.6875 41.796875 6.6875 
Q 48.140625 6.6875 53.78125 8.984375 
Q 59.421875 11.28125 64.40625 15.921875 
L 64.40625 5.609375 
Q 59.234375 2.09375 53.4375 0.328125 
Q 47.65625 -1.421875 41.21875 -1.421875 
Q 24.65625 -1.421875 15.125 8.703125 
Q 5.609375 18.84375 5.609375 36.375 
Q 5.609375 53.953125 15.125 64.078125 
Q 24.65625 74.21875 41.21875 74.21875 
Q 47.75 74.21875 53.53125 72.484375 
Q 59.328125 70.75 64.40625 67.28125 
z
" id="DejaVuSans-67"/>
       <path d="M 19.671875 64.796875 
L 19.671875 8.109375 
L 31.59375 8.109375 
Q 46.6875 8.109375 53.6875 14.9375 
Q 60.6875 21.78125 60.6875 36.53125 
Q 60.6875 51.171875 53.6875 57.984375 
Q 46.6875 64.796875 31.59375 64.796875 
z
M 9.8125 72.90625 
L 30.078125 72.90625 
Q 51.265625 72.90625 61.171875 64.09375 
Q 71.09375 55.28125 71.09375 36.53125 
Q 71.09375 17.671875 61.125 8.828125 
Q 51.171875 0 30.078125 0 
L 9.8125 0 
z
" id="DejaVuSans-68"/>
       <path d="M 9.8125 72.90625 
L 19.671875 72.90625 
L 19.671875 42.09375 
L 52.390625 72.90625 
L 65.09375 72.90625 
L 28.90625 38.921875 
L 67.671875 0 
L 54.6875 0 
L 19.671875 35.109375 
L 19.671875 0 
L 9.8125 0 
z
" id="DejaVuSans-75"/>
       <path d="M 9.8125 72.90625 
L 23.09375 72.90625 
L 55.421875 11.921875 
L 55.421875 72.90625 
L 64.984375 72.90625 
L 64.984375 0 
L 51.703125 0 
L 19.390625 60.984375 
L 19.390625 0 
L 9.8125 0 
z
" id="DejaVuSans-78"/>
       <path d="M 19.1875 8.296875 
L 53.609375 8.296875 
L 53.609375 0 
L 7.328125 0 
L 7.328125 8.296875 
Q 12.9375 14.109375 22.625 23.890625 
Q 32.328125 33.6875 34.8125 36.53125 
Q 39.546875 41.84375 41.421875 45.53125 
Q 43.3125 49.21875 43.3125 52.78125 
Q 43.3125 58.59375 39.234375 62.25 
Q 35.15625 65.921875 28.609375 65.921875 
Q 23.96875 65.921875 18.8125 64.3125 
Q 13.671875 62.703125 7.8125 59.421875 
L 7.8125 69.390625 
Q 13.765625 71.78125 18.9375 73 
Q 24.125 74.21875 28.421875 74.21875 
Q 39.75 74.21875 46.484375 68.546875 
Q 53.21875 62.890625 53.21875 53.421875 
Q 53.21875 48.921875 51.53125 44.890625 
Q 49.859375 40.875 45.40625 35.40625 
Q 44.1875 33.984375 37.640625 27.21875 
Q 31.109375 20.453125 19.1875 8.296875 
z
" id="DejaVuSans-50"/>
       <path d="M 34.1875 63.1875 
L 20.796875 26.90625 
L 47.609375 26.90625 
z
M 28.609375 72.90625 
L 39.796875 72.90625 
L 67.578125 0 
L 57.328125 0 
L 50.6875 18.703125 
L 17.828125 18.703125 
L 11.1875 0 
L 0.78125 0 
z
" id="DejaVuSans-65"/>
      </defs>
      <use xlink:href="#DejaVuSans-67"/>
      <use x="69.824219" xlink:href="#DejaVuSans-68"/>
      <use x="146.826172" xlink:href="#DejaVuSans-75"/>
      <use x="212.402344" xlink:href="#DejaVuSans-78"/>
      <use x="287.207031" xlink:href="#DejaVuSans-50"/>
      <use x="350.830078" xlink:href="#DejaVuSans-65"/>
     </g>
    </g>
   </g>
   <g id="text_2">
    <g clip-path="url(#p7627a7d2cf)">
     <!-- PCNA -->
     <g transform="translate(453.656468 315.852917)scale(0.12 -0.12)">
      <defs>
       <path d="M 19.671875 64.796875 
L 19.671875 37.40625 
L 32.078125 37.40625 
Q 38.96875 37.40625 42.71875 40.96875 
Q 46.484375 44.53125 46.484375 51.125 
Q 46.484375 57.671875 42.71875 61.234375 
Q 38.96875 64.796875 32.078125 64.796875 
z
M 9.8125 72.90625 
L 32.078125 72.90625 
Q 44.34375 72.90625 50.609375 67.359375 
Q 56.890625 61.8125 56.890625 51.125 
Q 56.890625 40.328125 50.609375 34.8125 
Q 44.34375 29.296875 32.078125 29.296875 
L 19.671875 29.296875 
L 19.671875 0 
L 9.8125 0 
z
" id="DejaVuSans-80"/>
      </defs>
      <use xlink:href="#DejaVuSans-80"/>
      <use x="60.302734" xlink:href="#DejaVuSans-67"/>
      <use x="130.126953" xlink:href="#DejaVuSans-78"/>
      <use x="204.931641" xlink:href="#DejaVuSans-65"/>
     </g>
    </g>
   </g>
   <g id="text_3">
    <g clip-path="url(#p7627a7d2cf)">
     <!-- PLK1 -->
     <g transform="translate(528.668969 270.551404)scale(0.12 -0.12)">
      <defs>
       <path d="M 9.8125 72.90625 
L 19.671875 72.90625 
L 19.671875 8.296875 
L 55.171875 8.296875 
L 55.171875 0 
L 9.8125 0 
z
" id="DejaVuSans-76"/>
       <path d="M 12.40625 8.296875 
L 28.515625 8.296875 
L 28.515625 63.921875 
L 10.984375 60.40625 
L 10.984375 69.390625 
L 28.421875 72.90625 
L 38.28125 72.90625 
L 38.28125 8.296875 
L 54.390625 8.296875 
L 54.390625 0 
L 12.40625 0 
z
" id="DejaVuSans-49"/>
      </defs>
      <use xlink:href="#DejaVuSans-80"/>
      <use x="60.302734" xlink:href="#DejaVuSans-76"/>
      <use x="116.015625" xlink:href="#DejaVuSans-75"/>
      <use x="181.591797" xlink:href="#DejaVuSans-49"/>
     </g>
    </g>
   </g>
   <g id="text_4">
    <g clip-path="url(#p7627a7d2cf)">
     <!-- PRKDC -->
     <g transform="translate(523.141605 145.651181)scale(0.12 -0.12)">
      <defs>
       <path d="M 44.390625 34.1875 
Q 47.5625 33.109375 50.5625 29.59375 
Q 53.5625 26.078125 56.59375 19.921875 
L 66.609375 0 
L 56 0 
L 46.6875 18.703125 
Q 43.0625 26.03125 39.671875 28.421875 
Q 36.28125 30.8125 30.421875 30.8125 
L 19.671875 30.8125 
L 19.671875 0 
L 9.8125 0 
L 9.8125 72.90625 
L 32.078125 72.90625 
Q 44.578125 72.90625 50.734375 67.671875 
Q 56.890625 62.453125 56.890625 51.90625 
Q 56.890625 45.015625 53.6875 40.46875 
Q 50.484375 35.9375 44.390625 34.1875 
z
M 19.671875 64.796875 
L 19.671875 38.921875 
L 32.078125 38.921875 
Q 39.203125 38.921875 42.84375 42.21875 
Q 46.484375 45.515625 46.484375 51.90625 
Q 46.484375 58.296875 42.84375 61.546875 
Q 39.203125 64.796875 32.078125 64.796875 
z
" id="DejaVuSans-82"/>
      </defs>
      <use xlink:href="#DejaVuSans-80"/>
      <use x="60.302734" xlink:href="#DejaVuSans-82"/>
      <use x="129.785156" xlink:href="#DejaVuSans-75"/>
      <use x="195.361328" xlink:href="#DejaVuSans-68"/>
      <use x="272.363281" xlink:href="#DejaVuSans-67"/>
     </g>
    </g>
   </g>
   <g id="text_5">
    <g clip-path="url(#p7627a7d2cf)">
     <!-- MDM2 -->
     <g transform="translate(618.320177 222.587522)scale(0.12 -0.12)">
      <defs>
       <path d="M 9.8125 72.90625 
L 24.515625 72.90625 
L 43.109375 23.296875 
L 61.8125 72.90625 
L 76.515625 72.90625 
L 76.515625 0 
L 66.890625 0 
L 66.890625 64.015625 
L 48.09375 14.015625 
L 38.1875 14.015625 
L 19.390625 64.015625 
L 19.390625 0 
L 9.8125 0 
z
" id="DejaVuSans-77"/>
      </defs>
      <use xlink:href="#DejaVuSans-77"/>
      <use x="86.279297" xlink:href="#DejaVuSans-68"/>
      <use x="163.28125" xlink:href="#DejaVuSans-77"/>
      <use x="249.560547" xlink:href="#DejaVuSans-50"/>
     </g>
    </g>
   </g>
   <g id="text_6">
    <g clip-path="url(#p7627a7d2cf)">
     <!-- EP300 -->
     <g transform="translate(700.632652 314.21938)scale(0.12 -0.12)">
      <defs>
       <path d="M 9.8125 72.90625 
L 55.90625 72.90625 
L 55.90625 64.59375 
L 19.671875 64.59375 
L 19.671875 43.015625 
L 54.390625 43.015625 
L 54.390625 34.71875 
L 19.671875 34.71875 
L 19.671875 8.296875 
L 56.78125 8.296875 
L 56.78125 0 
L 9.8125 0 
z
" id="DejaVuSans-69"/>
       <path d="M 40.578125 39.3125 
Q 47.65625 37.796875 51.625 33 
Q 55.609375 28.21875 55.609375 21.1875 
Q 55.609375 10.40625 48.1875 4.484375 
Q 40.765625 -1.421875 27.09375 -1.421875 
Q 22.515625 -1.421875 17.65625 -0.515625 
Q 12.796875 0.390625 7.625 2.203125 
L 7.625 11.71875 
Q 11.71875 9.328125 16.59375 8.109375 
Q 21.484375 6.890625 26.8125 6.890625 
Q 36.078125 6.890625 40.9375 10.546875 
Q 45.796875 14.203125 45.796875 21.1875 
Q 45.796875 27.640625 41.28125 31.265625 
Q 36.765625 34.90625 28.71875 34.90625 
L 20.21875 34.90625 
L 20.21875 43.015625 
L 29.109375 43.015625 
Q 36.375 43.015625 40.234375 45.921875 
Q 44.09375 48.828125 44.09375 54.296875 
Q 44.09375 59.90625 40.109375 62.90625 
Q 36.140625 65.921875 28.71875 65.921875 
Q 24.65625 65.921875 20.015625 65.03125 
Q 15.375 64.15625 9.8125 62.3125 
L 9.8125 71.09375 
Q 15.4375 72.65625 20.34375 73.4375 
Q 25.25 74.21875 29.59375 74.21875 
Q 40.828125 74.21875 47.359375 69.109375 
Q 53.90625 64.015625 53.90625 55.328125 
Q 53.90625 49.265625 50.4375 45.09375 
Q 46.96875 40.921875 40.578125 39.3125 
z
" id="DejaVuSans-51"/>
       <path d="M 31.78125 66.40625 
Q 24.171875 66.40625 20.328125 58.90625 
Q 16.5 51.421875 16.5 36.375 
Q 16.5 21.390625 20.328125 13.890625 
Q 24.171875 6.390625 31.78125 6.390625 
Q 39.453125 6.390625 43.28125 13.890625 
Q 47.125 21.390625 47.125 36.375 
Q 47.125 51.421875 43.28125 58.90625 
Q 39.453125 66.40625 31.78125 66.40625 
z
M 31.78125 74.21875 
Q 44.046875 74.21875 50.515625 64.515625 
Q 56.984375 54.828125 56.984375 36.375 
Q 56.984375 17.96875 50.515625 8.265625 
Q 44.046875 -1.421875 31.78125 -1.421875 
Q 19.53125 -1.421875 13.0625 8.265625 
Q 6.59375 17.96875 6.59375 36.375 
Q 6.59375 54.828125 13.0625 64.515625 
Q 19.53125 74.21875 31.78125 74.21875 
z
" id="DejaVuSans-48"/>
      </defs>
      <use xlink:href="#DejaVuSans-69"/>
      <use x="63.183594" xlink:href="#DejaVuSans-80"/>
      <use x="123.486328" xlink:href="#DejaVuSans-51"/>
      <use x="187.109375" xlink:href="#DejaVuSans-48"/>
      <use x="250.732422" xlink:href="#DejaVuSans-48"/>
     </g>
    </g>
   </g>
   <g id="text_7">
    <g clip-path="url(#p7627a7d2cf)">
     <!-- SKP2 -->
     <g transform="translate(606.533091 315.966409)scale(0.12 -0.12)">
      <defs>
       <path d="M 53.515625 70.515625 
L 53.515625 60.890625 
Q 47.90625 63.578125 42.921875 64.890625 
Q 37.9375 66.21875 33.296875 66.21875 
Q 25.25 66.21875 20.875 63.09375 
Q 16.5 59.96875 16.5 54.203125 
Q 16.5 49.359375 19.40625 46.890625 
Q 22.3125 44.4375 30.421875 42.921875 
L 36.375 41.703125 
Q 47.40625 39.59375 52.65625 34.296875 
Q 57.90625 29 57.90625 20.125 
Q 57.90625 9.515625 50.796875 4.046875 
Q 43.703125 -1.421875 29.984375 -1.421875 
Q 24.8125 -1.421875 18.96875 -0.25 
Q 13.140625 0.921875 6.890625 3.21875 
L 6.890625 13.375 
Q 12.890625 10.015625 18.65625 8.296875 
Q 24.421875 6.59375 29.984375 6.59375 
Q 38.421875 6.59375 43.015625 9.90625 
Q 47.609375 13.234375 47.609375 19.390625 
Q 47.609375 24.75 44.3125 27.78125 
Q 41.015625 30.8125 33.5 32.328125 
L 27.484375 33.5 
Q 16.453125 35.6875 11.515625 40.375 
Q 6.59375 45.0625 6.59375 53.421875 
Q 6.59375 63.09375 13.40625 68.65625 
Q 20.21875 74.21875 32.171875 74.21875 
Q 37.3125 74.21875 42.625 73.28125 
Q 47.953125 72.359375 53.515625 70.515625 
z
" id="DejaVuSans-83"/>
      </defs>
      <use xlink:href="#DejaVuSans-83"/>
      <use x="63.476562" xlink:href="#DejaVuSans-75"/>
      <use x="129.052734" xlink:href="#DejaVuSans-80"/>
      <use x="189.355469" xlink:href="#DejaVuSans-50"/>
     </g>
    </g>
   </g>
   <g id="text_8">
    <g clip-path="url(#p7627a7d2cf)">
     <!-- RB1 -->
     <g transform="translate(535.977139 354.984048)scale(0.12 -0.12)">
      <defs>
       <path d="M 19.671875 34.8125 
L 19.671875 8.109375 
L 35.5 8.109375 
Q 43.453125 8.109375 47.28125 11.40625 
Q 51.125 14.703125 51.125 21.484375 
Q 51.125 28.328125 47.28125 31.5625 
Q 43.453125 34.8125 35.5 34.8125 
z
M 19.671875 64.796875 
L 19.671875 42.828125 
L 34.28125 42.828125 
Q 41.5 42.828125 45.03125 45.53125 
Q 48.578125 48.25 48.578125 53.8125 
Q 48.578125 59.328125 45.03125 62.0625 
Q 41.5 64.796875 34.28125 64.796875 
z
M 9.8125 72.90625 
L 35.015625 72.90625 
Q 46.296875 72.90625 52.390625 68.21875 
Q 58.5 63.53125 58.5 54.890625 
Q 58.5 48.1875 55.375 44.234375 
Q 52.25 40.28125 46.1875 39.3125 
Q 53.46875 37.75 57.5 32.78125 
Q 61.53125 27.828125 61.53125 20.40625 
Q 61.53125 10.640625 54.890625 5.3125 
Q 48.25 0 35.984375 0 
L 9.8125 0 
z
" id="DejaVuSans-66"/>
      </defs>
      <use xlink:href="#DejaVuSans-82"/>
      <use x="69.482422" xlink:href="#DejaVuSans-66"/>
      <use x="138.085938" xlink:href="#DejaVuSans-49"/>
     </g>
    </g>
   </g>
   <g id="text_9">
    <g clip-path="url(#p7627a7d2cf)">
     <!-- TP53 -->
     <g transform="translate(702.685316 216.779572)scale(0.12 -0.12)">
      <defs>
       <path d="M -0.296875 72.90625 
L 61.375 72.90625 
L 61.375 64.59375 
L 35.5 64.59375 
L 35.5 0 
L 25.59375 0 
L 25.59375 64.59375 
L -0.296875 64.59375 
z
" id="DejaVuSans-84"/>
       <path d="M 10.796875 72.90625 
L 49.515625 72.90625 
L 49.515625 64.59375 
L 19.828125 64.59375 
L 19.828125 46.734375 
Q 21.96875 47.46875 24.109375 47.828125 
Q 26.265625 48.1875 28.421875 48.1875 
Q 40.625 48.1875 47.75 41.5 
Q 54.890625 34.8125 54.890625 23.390625 
Q 54.890625 11.625 47.5625 5.09375 
Q 40.234375 -1.421875 26.90625 -1.421875 
Q 22.3125 -1.421875 17.546875 -0.640625 
Q 12.796875 0.140625 7.71875 1.703125 
L 7.71875 11.625 
Q 12.109375 9.234375 16.796875 8.0625 
Q 21.484375 6.890625 26.703125 6.890625 
Q 35.15625 6.890625 40.078125 11.328125 
Q 45.015625 15.765625 45.015625 23.390625 
Q 45.015625 31 40.078125 35.4375 
Q 35.15625 39.890625 26.703125 39.890625 
Q 22.75 39.890625 18.8125 39.015625 
Q 14.890625 38.140625 10.796875 36.28125 
z
" id="DejaVuSans-53"/>
      </defs>
      <use xlink:href="#DejaVuSans-84"/>
      <use x="61.083984" xlink:href="#DejaVuSans-80"/>
      <use x="121.386719" xlink:href="#DejaVuSans-53"/>
      <use x="185.009766" xlink:href="#DejaVuSans-51"/>
     </g>
    </g>
   </g>
   <g id="text_10">
    <g clip-path="url(#p7627a7d2cf)">
     <!-- SMAD4 -->
     <g transform="translate(336.476979 449.402331)scale(0.12 -0.12)">
      <defs>
       <path d="M 37.796875 64.3125 
L 12.890625 25.390625 
L 37.796875 25.390625 
z
M 35.203125 72.90625 
L 47.609375 72.90625 
L 47.609375 25.390625 
L 58.015625 25.390625 
L 58.015625 17.1875 
L 47.609375 17.1875 
L 47.609375 0 
L 37.796875 0 
L 37.796875 17.1875 
L 4.890625 17.1875 
L 4.890625 26.703125 
z
" id="DejaVuSans-52"/>
      </defs>
      <use xlink:href="#DejaVuSans-83"/>
      <use x="63.476562" xlink:href="#DejaVuSans-77"/>
      <use x="149.755859" xlink:href="#DejaVuSans-65"/>
      <use x="218.164062" xlink:href="#DejaVuSans-68"/>
      <use x="295.166016" xlink:href="#DejaVuSans-52"/>
     </g>
    </g>
   </g>
   <g id="text_11">
    <g clip-path="url(#p7627a7d2cf)">
     <!-- GSK3B -->
     <g transform="translate(395.158723 291.946096)scale(0.12 -0.12)">
      <defs>
       <path d="M 59.515625 10.40625 
L 59.515625 29.984375 
L 43.40625 29.984375 
L 43.40625 38.09375 
L 69.28125 38.09375 
L 69.28125 6.78125 
Q 63.578125 2.734375 56.6875 0.65625 
Q 49.8125 -1.421875 42 -1.421875 
Q 24.90625 -1.421875 15.25 8.5625 
Q 5.609375 18.5625 5.609375 36.375 
Q 5.609375 54.25 15.25 64.234375 
Q 24.90625 74.21875 42 74.21875 
Q 49.125 74.21875 55.546875 72.453125 
Q 61.96875 70.703125 67.390625 67.28125 
L 67.390625 56.78125 
Q 61.921875 61.421875 55.765625 63.765625 
Q 49.609375 66.109375 42.828125 66.109375 
Q 29.4375 66.109375 22.71875 58.640625 
Q 16.015625 51.171875 16.015625 36.375 
Q 16.015625 21.625 22.71875 14.15625 
Q 29.4375 6.6875 42.828125 6.6875 
Q 48.046875 6.6875 52.140625 7.59375 
Q 56.25 8.5 59.515625 10.40625 
z
" id="DejaVuSans-71"/>
      </defs>
      <use xlink:href="#DejaVuSans-71"/>
      <use x="77.490234" xlink:href="#DejaVuSans-83"/>
      <use x="140.966797" xlink:href="#DejaVuSans-75"/>
      <use x="206.542969" xlink:href="#DejaVuSans-51"/>
      <use x="270.166016" xlink:href="#DejaVuSans-66"/>
     </g>
    </g>
   </g>
   <g id="text_12">
    <g clip-path="url(#p7627a7d2cf)">
     <!-- CDK7 -->
     <g transform="translate(339.081835 403.071367)scale(0.12 -0.12)">
      <defs>
       <path d="M 8.203125 72.90625 
L 55.078125 72.90625 
L 55.078125 68.703125 
L 28.609375 0 
L 18.3125 0 
L 43.21875 64.59375 
L 8.203125 64.59375 
z
" id="DejaVuSans-55"/>
      </defs>
      <use xlink:href="#DejaVuSans-67"/>
      <use x="69.824219" xlink:href="#DejaVuSans-68"/>
      <use x="146.826172" xlink:href="#DejaVuSans-75"/>
      <use x="212.402344" xlink:href="#DejaVuSans-55"/>
     </g>
    </g>
   </g>
   <g id="text_13">
    <g clip-path="url(#p7627a7d2cf)">
     <!-- CDK2 -->
     <g transform="translate(490.181148 365.205217)scale(0.12 -0.12)">
      <use xlink:href="#DejaVuSans-67"/>
      <use x="69.824219" xlink:href="#DejaVuSans-68"/>
      <use x="146.826172" xlink:href="#DejaVuSans-75"/>
      <use x="212.402344" xlink:href="#DejaVuSans-50"/>
     </g>
    </g>
   </g>
   <g id="text_14">
    <g clip-path="url(#p7627a7d2cf)">
     <!-- CCNH -->
     <g transform="translate(557.920935 474.795223)scale(0.12 -0.12)">
      <defs>
       <path d="M 9.8125 72.90625 
L 19.671875 72.90625 
L 19.671875 43.015625 
L 55.515625 43.015625 
L 55.515625 72.90625 
L 65.375 72.90625 
L 65.375 0 
L 55.515625 0 
L 55.515625 34.71875 
L 19.671875 34.71875 
L 19.671875 0 
L 9.8125 0 
z
" id="DejaVuSans-72"/>
      </defs>
      <use xlink:href="#DejaVuSans-67"/>
      <use x="69.824219" xlink:href="#DejaVuSans-67"/>
      <use x="139.648438" xlink:href="#DejaVuSans-78"/>
      <use x="214.453125" xlink:href="#DejaVuSans-72"/>
     </g>
    </g>
   </g>
   <g id="text_15">
    <g clip-path="url(#p7627a7d2cf)">
     <!-- CDKN2C -->
     <g transform="translate(469.225081 327.113639)scale(0.12 -0.12)">
      <use xlink:href="#DejaVuSans-67"/>
      <use x="69.824219" xlink:href="#DejaVuSans-68"/>
      <use x="146.826172" xlink:href="#DejaVuSans-75"/>
      <use x="212.402344" xlink:href="#DejaVuSans-78"/>
      <use x="287.207031" xlink:href="#DejaVuSans-50"/>
      <use x="350.830078" xlink:href="#DejaVuSans-67"/>
     </g>
    </g>
   </g>
   <g id="text_16">
    <g clip-path="url(#p7627a7d2cf)">
     <!-- CDKN2D -->
     <g transform="translate(444.580651 294.550085)scale(0.12 -0.12)">
      <use xlink:href="#DejaVuSans-67"/>
      <use x="69.824219" xlink:href="#DejaVuSans-68"/>
      <use x="146.826172" xlink:href="#DejaVuSans-75"/>
      <use x="212.402344" xlink:href="#DejaVuSans-78"/>
      <use x="287.207031" xlink:href="#DejaVuSans-50"/>
      <use x="350.830078" xlink:href="#DejaVuSans-68"/>
     </g>
    </g>
   </g>
   <g id="text_17">
    <g clip-path="url(#p7627a7d2cf)">
     <!-- RBL1 -->
     <g transform="translate(402.973922 367.00209)scale(0.12 -0.12)">
      <use xlink:href="#DejaVuSans-82"/>
      <use x="69.482422" xlink:href="#DejaVuSans-66"/>
      <use x="138.085938" xlink:href="#DejaVuSans-76"/>
      <use x="193.798828" xlink:href="#DejaVuSans-49"/>
     </g>
    </g>
   </g>
   <g id="text_18">
    <g clip-path="url(#p7627a7d2cf)">
     <!-- MYC -->
     <g transform="translate(283.537202 331.868491)scale(0.12 -0.12)">
      <defs>
       <path d="M -0.203125 72.90625 
L 10.40625 72.90625 
L 30.609375 42.921875 
L 50.6875 72.90625 
L 61.28125 72.90625 
L 35.5 34.71875 
L 35.5 0 
L 25.59375 0 
L 25.59375 34.71875 
z
" id="DejaVuSans-89"/>
      </defs>
      <use xlink:href="#DejaVuSans-77"/>
      <use x="86.279297" xlink:href="#DejaVuSans-89"/>
      <use x="141.863281" xlink:href="#DejaVuSans-67"/>
     </g>
    </g>
   </g>
   <g id="text_19">
    <g clip-path="url(#p7627a7d2cf)">
     <!-- ZBTB17 -->
     <g transform="translate(142.462973 193.946605)scale(0.12 -0.12)">
      <defs>
       <path d="M 5.609375 72.90625 
L 62.890625 72.90625 
L 62.890625 65.375 
L 16.796875 8.296875 
L 64.015625 8.296875 
L 64.015625 0 
L 4.5 0 
L 4.5 7.515625 
L 50.59375 64.59375 
L 5.609375 64.59375 
z
" id="DejaVuSans-90"/>
      </defs>
      <use xlink:href="#DejaVuSans-90"/>
      <use x="68.505859" xlink:href="#DejaVuSans-66"/>
      <use x="137.109375" xlink:href="#DejaVuSans-84"/>
      <use x="198.193359" xlink:href="#DejaVuSans-66"/>
      <use x="266.796875" xlink:href="#DejaVuSans-49"/>
      <use x="330.419922" xlink:href="#DejaVuSans-55"/>
     </g>
    </g>
   </g>
   <g id="text_20">
    <g clip-path="url(#p7627a7d2cf)">
     <!-- ABL1 -->
     <g transform="translate(403.621351 396.225954)scale(0.12 -0.12)">
      <use xlink:href="#DejaVuSans-65"/>
      <use x="68.408203" xlink:href="#DejaVuSans-66"/>
      <use x="137.011719" xlink:href="#DejaVuSans-76"/>
      <use x="192.724609" xlink:href="#DejaVuSans-49"/>
     </g>
    </g>
   </g>
   <g id="text_21">
    <g clip-path="url(#p7627a7d2cf)">
     <!-- SKP1 -->
     <g transform="translate(535.188983 226.515011)scale(0.12 -0.12)">
      <use xlink:href="#DejaVuSans-83"/>
      <use x="63.476562" xlink:href="#DejaVuSans-75"/>
      <use x="129.052734" xlink:href="#DejaVuSans-80"/>
      <use x="189.355469" xlink:href="#DejaVuSans-49"/>
     </g>
    </g>
   </g>
   <g id="text_22">
    <g clip-path="url(#p7627a7d2cf)">
     <!-- CUL1 -->
     <g transform="translate(384.575269 312.044765)scale(0.12 -0.12)">
      <defs>
       <path d="M 8.6875 72.90625 
L 18.609375 72.90625 
L 18.609375 28.609375 
Q 18.609375 16.890625 22.84375 11.734375 
Q 27.09375 6.59375 36.625 6.59375 
Q 46.09375 6.59375 50.34375 11.734375 
Q 54.59375 16.890625 54.59375 28.609375 
L 54.59375 72.90625 
L 64.5 72.90625 
L 64.5 27.390625 
Q 64.5 13.140625 57.4375 5.859375 
Q 50.390625 -1.421875 36.625 -1.421875 
Q 22.796875 -1.421875 15.734375 5.859375 
Q 8.6875 13.140625 8.6875 27.390625 
z
" id="DejaVuSans-85"/>
      </defs>
      <use xlink:href="#DejaVuSans-67"/>
      <use x="69.824219" xlink:href="#DejaVuSans-85"/>
      <use x="143.017578" xlink:href="#DejaVuSans-76"/>
      <use x="198.730469" xlink:href="#DejaVuSans-49"/>
     </g>
    </g>
   </g>
   <g id="text_23">
    <g clip-path="url(#p7627a7d2cf)">
     <!-- RBX1 -->
     <g transform="translate(579.984809 267.749331)scale(0.12 -0.12)">
      <defs>
       <path d="M 6.296875 72.90625 
L 16.890625 72.90625 
L 35.015625 45.796875 
L 53.21875 72.90625 
L 63.8125 72.90625 
L 40.375 37.890625 
L 65.375 0 
L 54.78125 0 
L 34.28125 31 
L 13.625 0 
L 2.984375 0 
L 29 38.921875 
z
" id="DejaVuSans-88"/>
      </defs>
      <use xlink:href="#DejaVuSans-82"/>
      <use x="69.482422" xlink:href="#DejaVuSans-66"/>
      <use x="138.085938" xlink:href="#DejaVuSans-88"/>
      <use x="206.591797" xlink:href="#DejaVuSans-49"/>
     </g>
    </g>
   </g>
   <g id="text_24">
    <g clip-path="url(#p7627a7d2cf)">
     <!-- ATM -->
     <g transform="translate(664.007818 171.784749)scale(0.12 -0.12)">
      <use xlink:href="#DejaVuSans-65"/>
      <use x="60.658203" xlink:href="#DejaVuSans-84"/>
      <use x="121.742188" xlink:href="#DejaVuSans-77"/>
     </g>
    </g>
   </g>
   <g id="text_25">
    <g clip-path="url(#p7627a7d2cf)">
     <!-- ATR -->
     <g transform="translate(572.98021 303.287258)scale(0.12 -0.12)">
      <use xlink:href="#DejaVuSans-65"/>
      <use x="60.658203" xlink:href="#DejaVuSans-84"/>
      <use x="121.742188" xlink:href="#DejaVuSans-82"/>
     </g>
    </g>
   </g>
   <g id="text_26">
    <g clip-path="url(#p7627a7d2cf)">
     <!-- YWHAE -->
     <g transform="translate(483.890412 238.314294)scale(0.12 -0.12)">
      <defs>
       <path d="M 3.328125 72.90625 
L 13.28125 72.90625 
L 28.609375 11.28125 
L 43.890625 72.90625 
L 54.984375 72.90625 
L 70.3125 11.28125 
L 85.59375 72.90625 
L 95.609375 72.90625 
L 77.296875 0 
L 64.890625 0 
L 49.515625 63.28125 
L 33.984375 0 
L 21.578125 0 
z
" id="DejaVuSans-87"/>
      </defs>
      <use xlink:href="#DejaVuSans-89"/>
      <use x="61.083984" xlink:href="#DejaVuSans-87"/>
      <use x="159.960938" xlink:href="#DejaVuSans-72"/>
      <use x="235.15625" xlink:href="#DejaVuSans-65"/>
      <use x="303.564453" xlink:href="#DejaVuSans-69"/>
     </g>
    </g>
   </g>
   <g id="text_27">
    <g clip-path="url(#p7627a7d2cf)">
     <!-- CHEK1 -->
     <g transform="translate(692.156912 226.575975)scale(0.12 -0.12)">
      <use xlink:href="#DejaVuSans-67"/>
      <use x="69.824219" xlink:href="#DejaVuSans-72"/>
      <use x="145.019531" xlink:href="#DejaVuSans-69"/>
      <use x="208.203125" xlink:href="#DejaVuSans-75"/>
      <use x="273.779297" xlink:href="#DejaVuSans-49"/>
     </g>
    </g>
   </g>
   <g id="text_28">
    <g clip-path="url(#p7627a7d2cf)">
     <!-- CHEK2 -->
     <g transform="translate(517.871716 219.187478)scale(0.12 -0.12)">
      <use xlink:href="#DejaVuSans-67"/>
      <use x="69.824219" xlink:href="#DejaVuSans-72"/>
      <use x="145.019531" xlink:href="#DejaVuSans-69"/>
      <use x="208.203125" xlink:href="#DejaVuSans-75"/>
      <use x="273.779297" xlink:href="#DejaVuSans-50"/>
     </g>
    </g>
   </g>
   <g id="text_29">
    <g clip-path="url(#p7627a7d2cf)">
     <!-- CDKN1B -->
     <g transform="translate(481.439547 290.574527)scale(0.12 -0.12)">
      <use xlink:href="#DejaVuSans-67"/>
      <use x="69.824219" xlink:href="#DejaVuSans-68"/>
      <use x="146.826172" xlink:href="#DejaVuSans-75"/>
      <use x="212.402344" xlink:href="#DejaVuSans-78"/>
      <use x="287.207031" xlink:href="#DejaVuSans-49"/>
      <use x="350.830078" xlink:href="#DejaVuSans-66"/>
     </g>
    </g>
   </g>
   <g id="text_30">
    <g clip-path="url(#p7627a7d2cf)">
     <!-- TGFB1 -->
     <g transform="translate(263.476616 222.732079)scale(0.12 -0.12)">
      <defs>
       <path d="M 9.8125 72.90625 
L 51.703125 72.90625 
L 51.703125 64.59375 
L 19.671875 64.59375 
L 19.671875 43.109375 
L 48.578125 43.109375 
L 48.578125 34.8125 
L 19.671875 34.8125 
L 19.671875 0 
L 9.8125 0 
z
" id="DejaVuSans-70"/>
      </defs>
      <use xlink:href="#DejaVuSans-84"/>
      <use x="61.083984" xlink:href="#DejaVuSans-71"/>
      <use x="138.574219" xlink:href="#DejaVuSans-70"/>
      <use x="196.09375" xlink:href="#DejaVuSans-66"/>
      <use x="264.697266" xlink:href="#DejaVuSans-49"/>
     </g>
    </g>
   </g>
   <g id="text_31">
    <g clip-path="url(#p7627a7d2cf)">
     <!-- TGFB3 -->
     <g transform="translate(222.852745 232.310029)scale(0.12 -0.12)">
      <use xlink:href="#DejaVuSans-84"/>
      <use x="61.083984" xlink:href="#DejaVuSans-71"/>
      <use x="138.574219" xlink:href="#DejaVuSans-70"/>
      <use x="196.09375" xlink:href="#DejaVuSans-66"/>
      <use x="264.697266" xlink:href="#DejaVuSans-51"/>
     </g>
    </g>
   </g>
   <g id="text_32">
    <g clip-path="url(#p7627a7d2cf)">
     <!-- SMAD2 -->
     <g transform="translate(219.434243 300.721106)scale(0.12 -0.12)">
      <use xlink:href="#DejaVuSans-83"/>
      <use x="63.476562" xlink:href="#DejaVuSans-77"/>
      <use x="149.755859" xlink:href="#DejaVuSans-65"/>
      <use x="218.164062" xlink:href="#DejaVuSans-68"/>
      <use x="295.166016" xlink:href="#DejaVuSans-50"/>
     </g>
    </g>
   </g>
   <g id="text_33">
    <g clip-path="url(#p7627a7d2cf)">
     <!-- SMAD3 -->
     <g transform="translate(169.89498 347.823183)scale(0.12 -0.12)">
      <use xlink:href="#DejaVuSans-83"/>
      <use x="63.476562" xlink:href="#DejaVuSans-77"/>
      <use x="149.755859" xlink:href="#DejaVuSans-65"/>
      <use x="218.164062" xlink:href="#DejaVuSans-68"/>
      <use x="295.166016" xlink:href="#DejaVuSans-51"/>
     </g>
    </g>
   </g>
   <g id="text_34">
    <g clip-path="url(#p7627a7d2cf)">
     <!-- CDC25B -->
     <g transform="translate(636.081099 110.918523)scale(0.12 -0.12)">
      <use xlink:href="#DejaVuSans-67"/>
      <use x="69.824219" xlink:href="#DejaVuSans-68"/>
      <use x="146.826172" xlink:href="#DejaVuSans-67"/>
      <use x="216.650391" xlink:href="#DejaVuSans-50"/>
      <use x="280.273438" xlink:href="#DejaVuSans-53"/>
      <use x="343.896484" xlink:href="#DejaVuSans-66"/>
     </g>
    </g>
   </g>
   <g id="text_35">
    <g clip-path="url(#p7627a7d2cf)">
     <!-- CCNB1 -->
     <g transform="translate(609.262541 385.281705)scale(0.12 -0.12)">
      <use xlink:href="#DejaVuSans-67"/>
      <use x="69.824219" xlink:href="#DejaVuSans-67"/>
      <use x="139.648438" xlink:href="#DejaVuSans-78"/>
      <use x="214.453125" xlink:href="#DejaVuSans-66"/>
      <use x="283.056641" xlink:href="#DejaVuSans-49"/>
     </g>
    </g>
   </g>
   <g id="text_36">
    <g clip-path="url(#p7627a7d2cf)">
     <!-- CDK4 -->
     <g transform="translate(506.983082 319.257499)scale(0.12 -0.12)">
      <use xlink:href="#DejaVuSans-67"/>
      <use x="69.824219" xlink:href="#DejaVuSans-68"/>
      <use x="146.826172" xlink:href="#DejaVuSans-75"/>
      <use x="212.402344" xlink:href="#DejaVuSans-52"/>
     </g>
    </g>
   </g>
   <g id="text_37">
    <g clip-path="url(#p7627a7d2cf)">
     <!-- CDK6 -->
     <g transform="translate(522.397796 379.527374)scale(0.12 -0.12)">
      <defs>
       <path d="M 33.015625 40.375 
Q 26.375 40.375 22.484375 35.828125 
Q 18.609375 31.296875 18.609375 23.390625 
Q 18.609375 15.53125 22.484375 10.953125 
Q 26.375 6.390625 33.015625 6.390625 
Q 39.65625 6.390625 43.53125 10.953125 
Q 47.40625 15.53125 47.40625 23.390625 
Q 47.40625 31.296875 43.53125 35.828125 
Q 39.65625 40.375 33.015625 40.375 
z
M 52.59375 71.296875 
L 52.59375 62.3125 
Q 48.875 64.0625 45.09375 64.984375 
Q 41.3125 65.921875 37.59375 65.921875 
Q 27.828125 65.921875 22.671875 59.328125 
Q 17.53125 52.734375 16.796875 39.40625 
Q 19.671875 43.65625 24.015625 45.921875 
Q 28.375 48.1875 33.59375 48.1875 
Q 44.578125 48.1875 50.953125 41.515625 
Q 57.328125 34.859375 57.328125 23.390625 
Q 57.328125 12.15625 50.6875 5.359375 
Q 44.046875 -1.421875 33.015625 -1.421875 
Q 20.359375 -1.421875 13.671875 8.265625 
Q 6.984375 17.96875 6.984375 36.375 
Q 6.984375 53.65625 15.1875 63.9375 
Q 23.390625 74.21875 37.203125 74.21875 
Q 40.921875 74.21875 44.703125 73.484375 
Q 48.484375 72.75 52.59375 71.296875 
z
" id="DejaVuSans-54"/>
      </defs>
      <use xlink:href="#DejaVuSans-67"/>
      <use x="69.824219" xlink:href="#DejaVuSans-68"/>
      <use x="146.826172" xlink:href="#DejaVuSans-75"/>
      <use x="212.402344" xlink:href="#DejaVuSans-54"/>
     </g>
    </g>
   </g>
   <g id="text_38">
    <g clip-path="url(#p7627a7d2cf)">
     <!-- CCND1 -->
     <g transform="translate(507.060609 353.076782)scale(0.12 -0.12)">
      <use xlink:href="#DejaVuSans-67"/>
      <use x="69.824219" xlink:href="#DejaVuSans-67"/>
      <use x="139.648438" xlink:href="#DejaVuSans-78"/>
      <use x="214.453125" xlink:href="#DejaVuSans-68"/>
      <use x="291.455078" xlink:href="#DejaVuSans-49"/>
     </g>
    </g>
   </g>
   <g id="text_39">
    <g clip-path="url(#p7627a7d2cf)">
     <!-- CCND2 -->
     <g transform="translate(393.747774 346.578959)scale(0.12 -0.12)">
      <use xlink:href="#DejaVuSans-67"/>
      <use x="69.824219" xlink:href="#DejaVuSans-67"/>
      <use x="139.648438" xlink:href="#DejaVuSans-78"/>
      <use x="214.453125" xlink:href="#DejaVuSans-68"/>
      <use x="291.455078" xlink:href="#DejaVuSans-50"/>
     </g>
    </g>
   </g>
   <g id="text_40">
    <g clip-path="url(#p7627a7d2cf)">
     <!-- CCND3 -->
     <g transform="translate(427.140218 345.779064)scale(0.12 -0.12)">
      <use xlink:href="#DejaVuSans-67"/>
      <use x="69.824219" xlink:href="#DejaVuSans-67"/>
      <use x="139.648438" xlink:href="#DejaVuSans-78"/>
      <use x="214.453125" xlink:href="#DejaVuSans-68"/>
      <use x="291.455078" xlink:href="#DejaVuSans-51"/>
     </g>
    </g>
   </g>
   <g id="text_41">
    <g clip-path="url(#p7627a7d2cf)">
     <!-- TFDP1 -->
     <g transform="translate(439.615316 425.017848)scale(0.12 -0.12)">
      <use xlink:href="#DejaVuSans-84"/>
      <use x="61.083984" xlink:href="#DejaVuSans-70"/>
      <use x="118.603516" xlink:href="#DejaVuSans-68"/>
      <use x="195.605469" xlink:href="#DejaVuSans-80"/>
      <use x="255.908203" xlink:href="#DejaVuSans-49"/>
     </g>
    </g>
   </g>
   <g id="text_42">
    <g clip-path="url(#p7627a7d2cf)">
     <!-- TFDP2 -->
     <g transform="translate(390.875457 241.366789)scale(0.12 -0.12)">
      <use xlink:href="#DejaVuSans-84"/>
      <use x="61.083984" xlink:href="#DejaVuSans-70"/>
      <use x="118.603516" xlink:href="#DejaVuSans-68"/>
      <use x="195.605469" xlink:href="#DejaVuSans-80"/>
      <use x="255.908203" xlink:href="#DejaVuSans-50"/>
     </g>
    </g>
   </g>
   <g id="text_43">
    <g clip-path="url(#p7627a7d2cf)">
     <!-- E2F3 -->
     <g transform="translate(467.735239 477.463977)scale(0.12 -0.12)">
      <use xlink:href="#DejaVuSans-69"/>
      <use x="63.183594" xlink:href="#DejaVuSans-50"/>
      <use x="126.806641" xlink:href="#DejaVuSans-70"/>
      <use x="184.326172" xlink:href="#DejaVuSans-51"/>
     </g>
    </g>
   </g>
   <g id="text_44">
    <g clip-path="url(#p7627a7d2cf)">
     <!-- RBL2 -->
     <g transform="translate(379.631102 358.036738)scale(0.12 -0.12)">
      <use xlink:href="#DejaVuSans-82"/>
      <use x="69.482422" xlink:href="#DejaVuSans-66"/>
      <use x="138.085938" xlink:href="#DejaVuSans-76"/>
      <use x="193.798828" xlink:href="#DejaVuSans-50"/>
     </g>
    </g>
   </g>
   <g id="text_45">
    <!-- Frame: 11 -->
    <g transform="translate(121.392 91.296)scale(0.1 -0.1)">
     <defs>
      <path d="M 41.109375 46.296875 
Q 39.59375 47.171875 37.8125 47.578125 
Q 36.03125 48 33.890625 48 
Q 26.265625 48 22.1875 43.046875 
Q 18.109375 38.09375 18.109375 28.8125 
L 18.109375 0 
L 9.078125 0 
L 9.078125 54.6875 
L 18.109375 54.6875 
L 18.109375 46.1875 
Q 20.953125 51.171875 25.484375 53.578125 
Q 30.03125 56 36.53125 56 
Q 37.453125 56 38.578125 55.875 
Q 39.703125 55.765625 41.0625 55.515625 
z
" id="DejaVuSans-114"/>
      <path d="M 34.28125 27.484375 
Q 23.390625 27.484375 19.1875 25 
Q 14.984375 22.515625 14.984375 16.5 
Q 14.984375 11.71875 18.140625 8.90625 
Q 21.296875 6.109375 26.703125 6.109375 
Q 34.1875 6.109375 38.703125 11.40625 
Q 43.21875 16.703125 43.21875 25.484375 
L 43.21875 27.484375 
z
M 52.203125 31.203125 
L 52.203125 0 
L 43.21875 0 
L 43.21875 8.296875 
Q 40.140625 3.328125 35.546875 0.953125 
Q 30.953125 -1.421875 24.3125 -1.421875 
Q 15.921875 -1.421875 10.953125 3.296875 
Q 6 8.015625 6 15.921875 
Q 6 25.140625 12.171875 29.828125 
Q 18.359375 34.515625 30.609375 34.515625 
L 43.21875 34.515625 
L 43.21875 35.40625 
Q 43.21875 41.609375 39.140625 45 
Q 35.0625 48.390625 27.6875 48.390625 
Q 23 48.390625 18.546875 47.265625 
Q 14.109375 46.140625 10.015625 43.890625 
L 10.015625 52.203125 
Q 14.9375 54.109375 19.578125 55.046875 
Q 24.21875 56 28.609375 56 
Q 40.484375 56 46.34375 49.84375 
Q 52.203125 43.703125 52.203125 31.203125 
z
" id="DejaVuSans-97"/>
      <path d="M 52 44.1875 
Q 55.375 50.25 60.0625 53.125 
Q 64.75 56 71.09375 56 
Q 79.640625 56 84.28125 50.015625 
Q 88.921875 44.046875 88.921875 33.015625 
L 88.921875 0 
L 79.890625 0 
L 79.890625 32.71875 
Q 79.890625 40.578125 77.09375 44.375 
Q 74.3125 48.1875 68.609375 48.1875 
Q 61.625 48.1875 57.5625 43.546875 
Q 53.515625 38.921875 53.515625 30.90625 
L 53.515625 0 
L 44.484375 0 
L 44.484375 32.71875 
Q 44.484375 40.625 41.703125 44.40625 
Q 38.921875 48.1875 33.109375 48.1875 
Q 26.21875 48.1875 22.15625 43.53125 
Q 18.109375 38.875 18.109375 30.90625 
L 18.109375 0 
L 9.078125 0 
L 9.078125 54.6875 
L 18.109375 54.6875 
L 18.109375 46.1875 
Q 21.1875 51.21875 25.484375 53.609375 
Q 29.78125 56 35.6875 56 
Q 41.65625 56 45.828125 52.96875 
Q 50 49.953125 52 44.1875 
z
" id="DejaVuSans-109"/>
      <path d="M 56.203125 29.59375 
L 56.203125 25.203125 
L 14.890625 25.203125 
Q 15.484375 15.921875 20.484375 11.0625 
Q 25.484375 6.203125 34.421875 6.203125 
Q 39.59375 6.203125 44.453125 7.46875 
Q 49.3125 8.734375 54.109375 11.28125 
L 54.109375 2.78125 
Q 49.265625 0.734375 44.1875 -0.34375 
Q 39.109375 -1.421875 33.890625 -1.421875 
Q 20.796875 -1.421875 13.15625 6.1875 
Q 5.515625 13.8125 5.515625 26.8125 
Q 5.515625 40.234375 12.765625 48.109375 
Q 20.015625 56 32.328125 56 
Q 43.359375 56 49.78125 48.890625 
Q 56.203125 41.796875 56.203125 29.59375 
z
M 47.21875 32.234375 
Q 47.125 39.59375 43.09375 43.984375 
Q 39.0625 48.390625 32.421875 48.390625 
Q 24.90625 48.390625 20.390625 44.140625 
Q 15.875 39.890625 15.1875 32.171875 
z
" id="DejaVuSans-101"/>
      <path d="M 11.71875 12.40625 
L 22.015625 12.40625 
L 22.015625 0 
L 11.71875 0 
z
M 11.71875 51.703125 
L 22.015625 51.703125 
L 22.015625 39.3125 
L 11.71875 39.3125 
z
" id="DejaVuSans-58"/>
      <path id="DejaVuSans-32"/>
     </defs>
     <use xlink:href="#DejaVuSans-70"/>
     <use x="50.269531" xlink:href="#DejaVuSans-114"/>
     <use x="91.382812" xlink:href="#DejaVuSans-97"/>
     <use x="152.662109" xlink:href="#DejaVuSans-109"/>
     <use x="250.074219" xlink:href="#DejaVuSans-101"/>
     <use x="311.597656" xlink:href="#DejaVuSans-58"/>
     <use x="345.289062" xlink:href="#DejaVuSans-32"/>
     <use x="377.076172" xlink:href="#DejaVuSans-49"/>
     <use x="440.699219" xlink:href="#DejaVuSans-49"/>
    </g>
   </g>
   <g id="text_46">
    <!-- Network: hsa04110 -->
    <g transform="translate(384.1275 63.12)scale(0.12 -0.12)">
     <defs>
      <path d="M 18.3125 70.21875 
L 18.3125 54.6875 
L 36.8125 54.6875 
L 36.8125 47.703125 
L 18.3125 47.703125 
L 18.3125 18.015625 
Q 18.3125 11.328125 20.140625 9.421875 
Q 21.96875 7.515625 27.59375 7.515625 
L 36.8125 7.515625 
L 36.8125 0 
L 27.59375 0 
Q 17.1875 0 13.234375 3.875 
Q 9.28125 7.765625 9.28125 18.015625 
L 9.28125 47.703125 
L 2.6875 47.703125 
L 2.6875 54.6875 
L 9.28125 54.6875 
L 9.28125 70.21875 
z
" id="DejaVuSans-116"/>
      <path d="M 4.203125 54.6875 
L 13.1875 54.6875 
L 24.421875 12.015625 
L 35.59375 54.6875 
L 46.1875 54.6875 
L 57.421875 12.015625 
L 68.609375 54.6875 
L 77.59375 54.6875 
L 63.28125 0 
L 52.6875 0 
L 40.921875 44.828125 
L 29.109375 0 
L 18.5 0 
z
" id="DejaVuSans-119"/>
      <path d="M 30.609375 48.390625 
Q 23.390625 48.390625 19.1875 42.75 
Q 14.984375 37.109375 14.984375 27.296875 
Q 14.984375 17.484375 19.15625 11.84375 
Q 23.34375 6.203125 30.609375 6.203125 
Q 37.796875 6.203125 41.984375 11.859375 
Q 46.1875 17.53125 46.1875 27.296875 
Q 46.1875 37.015625 41.984375 42.703125 
Q 37.796875 48.390625 30.609375 48.390625 
z
M 30.609375 56 
Q 42.328125 56 49.015625 48.375 
Q 55.71875 40.765625 55.71875 27.296875 
Q 55.71875 13.875 49.015625 6.21875 
Q 42.328125 -1.421875 30.609375 -1.421875 
Q 18.84375 -1.421875 12.171875 6.21875 
Q 5.515625 13.875 5.515625 27.296875 
Q 5.515625 40.765625 12.171875 48.375 
Q 18.84375 56 30.609375 56 
z
" id="DejaVuSans-111"/>
      <path d="M 9.078125 75.984375 
L 18.109375 75.984375 
L 18.109375 31.109375 
L 44.921875 54.6875 
L 56.390625 54.6875 
L 27.390625 29.109375 
L 57.625 0 
L 45.90625 0 
L 18.109375 26.703125 
L 18.109375 0 
L 9.078125 0 
z
" id="DejaVuSans-107"/>
      <path d="M 54.890625 33.015625 
L 54.890625 0 
L 45.90625 0 
L 45.90625 32.71875 
Q 45.90625 40.484375 42.875 44.328125 
Q 39.84375 48.1875 33.796875 48.1875 
Q 26.515625 48.1875 22.3125 43.546875 
Q 18.109375 38.921875 18.109375 30.90625 
L 18.109375 0 
L 9.078125 0 
L 9.078125 75.984375 
L 18.109375 75.984375 
L 18.109375 46.1875 
Q 21.34375 51.125 25.703125 53.5625 
Q 30.078125 56 35.796875 56 
Q 45.21875 56 50.046875 50.171875 
Q 54.890625 44.34375 54.890625 33.015625 
z
" id="DejaVuSans-104"/>
      <path d="M 44.28125 53.078125 
L 44.28125 44.578125 
Q 40.484375 46.53125 36.375 47.5 
Q 32.28125 48.484375 27.875 48.484375 
Q 21.1875 48.484375 17.84375 46.4375 
Q 14.5 44.390625 14.5 40.28125 
Q 14.5 37.15625 16.890625 35.375 
Q 19.28125 33.59375 26.515625 31.984375 
L 29.59375 31.296875 
Q 39.15625 29.25 43.1875 25.515625 
Q 47.21875 21.78125 47.21875 15.09375 
Q 47.21875 7.46875 41.1875 3.015625 
Q 35.15625 -1.421875 24.609375 -1.421875 
Q 20.21875 -1.421875 15.453125 -0.5625 
Q 10.6875 0.296875 5.421875 2 
L 5.421875 11.28125 
Q 10.40625 8.6875 15.234375 7.390625 
Q 20.0625 6.109375 24.8125 6.109375 
Q 31.15625 6.109375 34.5625 8.28125 
Q 37.984375 10.453125 37.984375 14.40625 
Q 37.984375 18.0625 35.515625 20.015625 
Q 33.0625 21.96875 24.703125 23.78125 
L 21.578125 24.515625 
Q 13.234375 26.265625 9.515625 29.90625 
Q 5.8125 33.546875 5.8125 39.890625 
Q 5.8125 47.609375 11.28125 51.796875 
Q 16.75 56 26.8125 56 
Q 31.78125 56 36.171875 55.265625 
Q 40.578125 54.546875 44.28125 53.078125 
z
" id="DejaVuSans-115"/>
     </defs>
     <use xlink:href="#DejaVuSans-78"/>
     <use x="74.804688" xlink:href="#DejaVuSans-101"/>
     <use x="136.328125" xlink:href="#DejaVuSans-116"/>
     <use x="175.537109" xlink:href="#DejaVuSans-119"/>
     <use x="257.324219" xlink:href="#DejaVuSans-111"/>
     <use x="318.505859" xlink:href="#DejaVuSans-114"/>
     <use x="359.619141" xlink:href="#DejaVuSans-107"/>
     <use x="417.529297" xlink:href="#DejaVuSans-58"/>
     <use x="451.220703" xlink:href="#DejaVuSans-32"/>
     <use x="483.007812" xlink:href="#DejaVuSans-104"/>
     <use x="546.386719" xlink:href="#DejaVuSans-115"/>
     <use x="598.486328" xlink:href="#DejaVuSans-97"/>
     <use x="659.765625" xlink:href="#DejaVuSans-48"/>
     <use x="723.388672" xlink:href="#DejaVuSans-52"/>
     <use x="787.011719" xlink:href="#DejaVuSans-49"/>
     <use x="850.634766" xlink:href="#DejaVuSans-49"/>
     <use x="914.257812" xlink:href="#DejaVuSans-48"/>
    </g>
   </g>
  </g>
 </g>
 <defs>
  <clipPath id="p7627a7d2cf">
   <rect height="443.52" width="669.6" x="108" y="69.12"/>
  </clipPath>
 </defs>
</svg>
