<?xml version="1.0" encoding="utf-8" standalone="no"?>
<!DOCTYPE svg PUBLIC "-//W3C//DTD SVG 1.1//EN"
  "http://www.w3.org/Graphics/SVG/1.1/DTD/svg11.dtd">
<!-- Created with matplotlib (https://matplotlib.org/) -->
<svg height="576pt" version="1.1" viewBox="0 0 864 576" width="864pt" xmlns="http://www.w3.org/2000/svg" xmlns:xlink="http://www.w3.org/1999/xlink">
 <metadata>
  <rdf:RDF xmlns:cc="http://creativecommons.org/ns#" xmlns:dc="http://purl.org/dc/elements/1.1/" xmlns:rdf="http://www.w3.org/1999/02/22-rdf-syntax-ns#">
   <cc:Work>
    <dc:type rdf:resource="http://purl.org/dc/dcmitype/StillImage"/>
    <dc:date>2024-04-26T13:37:12.547023</dc:date>
    <dc:format>image/svg+xml</dc:format>
    <dc:creator>
     <cc:Agent>
      <dc:title>Matplotlib v3.3.1, https://matplotlib.org/</dc:title>
     </cc:Agent>
    </dc:creator>
   </cc:Work>
  </rdf:RDF>
 </metadata>
 <defs>
  <style type="text/css">*{stroke-linecap:butt;stroke-linejoin:round;}</style>
 </defs>
 <g id="figure_1">
  <g id="patch_1">
   <path d="M 0 576 
L 864 576 
L 864 0 
L 0 0 
z
" style="fill:#ffffff;"/>
  </g>
  <g id="axes_1">
   <g id="patch_2">
    <path clip-path="url(#p8e4b06acd7)" d="M 439.896867 162.053198 
Q 557.999921 181.793405 675.000238 201.349297 
" style="fill:none;stroke:#000000;stroke-linecap:round;"/>
    <path clip-path="url(#p8e4b06acd7)" d="M 671.384682 198.717234 
L 675.000238 201.349297 
L 670.725254 202.662504 
L 671.384682 198.717234 
z
" style="stroke:#000000;stroke-linecap:round;"/>
   </g>
   <g id="patch_3">
    <path clip-path="url(#p8e4b06acd7)" d="M 422.942965 158.557881 
Q 365.780278 144.50598 309.703302 130.720972 
" style="fill:none;stroke:#000000;stroke-linecap:round;"/>
    <path clip-path="url(#p8e4b06acd7)" d="M 313.110227 133.618016 
L 309.703302 130.720972 
L 314.065092 129.733658 
L 313.110227 133.618016 
z
" style="stroke:#000000;stroke-linecap:round;"/>
   </g>
   <g id="patch_4">
    <path clip-path="url(#p8e4b06acd7)" d="M 422.702437 161.089194 
Q 325.639511 166.299768 229.69301 171.450411 
" style="fill:none;stroke:#000000;stroke-linecap:round;"/>
    <path clip-path="url(#p8e4b06acd7)" d="M 233.79447 173.233114 
L 229.69301 171.450411 
L 233.580049 169.238865 
L 233.79447 173.233114 
z
" style="stroke:#000000;stroke-linecap:round;"/>
   </g>
   <g id="patch_5">
    <path clip-path="url(#p8e4b06acd7)" d="M 435.075037 152.803627 
Q 443.971962 134.115718 452.388297 116.437281 
" style="fill:none;stroke:#000000;stroke-linecap:round;"/>
    <path clip-path="url(#p8e4b06acd7)" d="M 448.863092 119.189176 
L 452.388297 116.437281 
L 452.47469 120.908583 
L 448.863092 119.189176 
z
" style="stroke:#000000;stroke-linecap:round;"/>
   </g>
   <g id="patch_6">
    <path clip-path="url(#p8e4b06acd7)" d="M 424.368674 155.498144 
Q 399.230745 137.042026 374.994035 119.247576 
" style="fill:none;stroke:#000000;stroke-linecap:round;"/>
    <path clip-path="url(#p8e4b06acd7)" d="M 377.034702 123.226983 
L 374.994035 119.247576 
L 379.401961 120.002687 
L 377.034702 123.226983 
z
" style="stroke:#000000;stroke-linecap:round;"/>
   </g>
   <g id="patch_7">
    <path clip-path="url(#p8e4b06acd7)" d="M 487.89692 126.510349 
Q 463.332585 141.33031 439.725556 155.572719 
" style="fill:none;stroke:#000000;stroke-linecap:round;"/>
    <path clip-path="url(#p8e4b06acd7)" d="M 444.183672 155.218879 
L 439.725556 155.572719 
L 442.117353 151.793922 
L 444.183672 155.218879 
z
" style="stroke:#000000;stroke-linecap:round;"/>
   </g>
   <g id="patch_8">
    <path clip-path="url(#p8e4b06acd7)" d="M 327.605844 193.872092 
Q 315.578684 165.124447 303.983034 137.408208 
" style="fill:none;stroke:#000000;stroke-linecap:round;"/>
    <path clip-path="url(#p8e4b06acd7)" d="M 303.681814 141.870188 
L 303.983034 137.408208 
L 307.371886 140.326372 
L 303.681814 141.870188 
z
" style="stroke:#000000;stroke-linecap:round;"/>
   </g>
   <g id="patch_9">
    <path clip-path="url(#p8e4b06acd7)" d="M 322.5822 199.607026 
Q 275.436051 186.916157 229.369506 174.515898 
" style="fill:none;stroke:#000000;stroke-linecap:round;"/>
    <path clip-path="url(#p8e4b06acd7)" d="M 232.712159 177.486869 
L 229.369506 174.515898 
L 233.751875 173.624359 
L 232.712159 177.486869 
z
" style="stroke:#000000;stroke-linecap:round;"/>
   </g>
   <g id="patch_10">
    <path clip-path="url(#p8e4b06acd7)" d="M 337.875937 196.661212 
Q 393.768677 154.733732 448.767051 113.477155 
" style="fill:none;stroke:#000000;stroke-linecap:round;"/>
    <path clip-path="url(#p8e4b06acd7)" d="M 444.367123 114.277554 
L 448.767051 113.477155 
L 446.767414 117.477336 
L 444.367123 114.277554 
z
" style="stroke:#000000;stroke-linecap:round;"/>
   </g>
   <g id="patch_11">
    <path clip-path="url(#p8e4b06acd7)" d="M 334.226399 193.844028 
Q 349.030842 157.660218 363.411913 122.511181 
" style="fill:none;stroke:#000000;stroke-linecap:round;"/>
    <path clip-path="url(#p8e4b06acd7)" d="M 360.04615 125.455946 
L 363.411913 122.511181 
L 363.748267 126.97065 
L 360.04615 125.455946 
z
" style="stroke:#000000;stroke-linecap:round;"/>
   </g>
   <g id="patch_12">
    <path clip-path="url(#p8e4b06acd7)" d="M 329.090192 210.319729 
Q 315.862553 270.5876 302.874597 329.763432 
" style="fill:none;stroke:#000000;stroke-linecap:round;"/>
    <path clip-path="url(#p8e4b06acd7)" d="M 305.68561 326.285184 
L 302.874597 329.763432 
L 301.778607 325.427672 
L 305.68561 326.285184 
z
" style="stroke:#000000;stroke-linecap:round;"/>
   </g>
   <g id="patch_13">
    <path clip-path="url(#p8e4b06acd7)" d="M 329.629898 210.417848 
Q 322.219805 258.563964 314.979784 305.605057 
" style="fill:none;stroke:#000000;stroke-linecap:round;"/>
    <path clip-path="url(#p8e4b06acd7)" d="M 317.564979 301.955841 
L 314.979784 305.605057 
L 313.611529 301.347372 
L 317.564979 301.955841 
z
" style="stroke:#000000;stroke-linecap:round;"/>
   </g>
   <g id="patch_14">
    <path clip-path="url(#p8e4b06acd7)" d="M 589.122706 285.683332 
Q 544.370039 207.617396 500.173417 130.521416 
" style="fill:none;stroke:#000000;stroke-linecap:round;"/>
    <path clip-path="url(#p8e4b06acd7)" d="M 500.427672 134.986319 
L 500.173417 130.521416 
L 503.897892 132.996954 
L 500.427672 134.986319 
z
" style="stroke:#000000;stroke-linecap:round;"/>
   </g>
   <g id="patch_15">
    <path clip-path="url(#p8e4b06acd7)" d="M 596.374009 301.344906 
Q 617.085991 358.669382 637.418053 414.942354 
" style="fill:none;stroke:#000000;stroke-linecap:round;"/>
    <path clip-path="url(#p8e4b06acd7)" d="M 637.939797 410.500757 
L 637.418053 414.942354 
L 634.177822 411.860001 
L 637.939797 410.500757 
z
" style="stroke:#000000;stroke-linecap:round;"/>
   </g>
   <g id="patch_16">
    <path clip-path="url(#p8e4b06acd7)" d="M 594.470569 301.796137 
Q 600.74943 353.689509 606.893993 404.472942 
" style="fill:none;stroke:#000000;stroke-linecap:round;"/>
    <path clip-path="url(#p8e4b06acd7)" d="M 608.399034 400.261666 
L 606.893993 404.472942 
L 604.427996 400.742143 
L 608.399034 400.261666 
z
" style="stroke:#000000;stroke-linecap:round;"/>
   </g>
   <g id="patch_17">
    <path clip-path="url(#p8e4b06acd7)" d="M 555.018687 195.120647 
Q 527.904008 161.932539 501.496698 129.610243 
" style="fill:none;stroke:#000000;stroke-linecap:round;"/>
    <path clip-path="url(#p8e4b06acd7)" d="M 502.478644 133.973245 
L 501.496698 129.610243 
L 505.576267 131.442487 
L 502.478644 133.973245 
z
" style="stroke:#000000;stroke-linecap:round;"/>
   </g>
   <g id="patch_18">
    <path clip-path="url(#p8e4b06acd7)" d="M 496.65498 393.062515 
Q 473.189024 365.524232 450.448209 338.836931 
" style="fill:none;stroke:#000000;stroke-linecap:round;"/>
    <path clip-path="url(#p8e4b06acd7)" d="M 451.520266 343.17867 
L 450.448209 338.836931 
L 454.564834 340.584329 
L 451.520266 343.17867 
z
" style="stroke:#000000;stroke-linecap:round;"/>
   </g>
   <g id="patch_19">
    <path clip-path="url(#p8e4b06acd7)" d="M 615.897784 410.476959 
Q 650.9272 393.903363 684.945991 377.807928 
" style="fill:none;stroke:#000000;stroke-linecap:round;"/>
    <path clip-path="url(#p8e4b06acd7)" d="M 680.474911 377.710786 
L 684.945991 377.807928 
L 682.18563 381.326507 
L 680.474911 377.710786 
z
" style="stroke:#000000;stroke-linecap:round;"/>
   </g>
   <g id="patch_20">
    <path clip-path="url(#p8e4b06acd7)" d="M 632.456576 421.612626 
Q 624.405166 419.159217 617.423238 417.031699 
" style="fill:none;stroke:#000000;stroke-linecap:round;"/>
    <path clip-path="url(#p8e4b06acd7)" d="M 620.666568 420.110792 
L 617.423238 417.031699 
L 621.83251 416.284491 
L 620.666568 420.110792 
z
" style="stroke:#000000;stroke-linecap:round;"/>
   </g>
   <g id="patch_21">
    <path clip-path="url(#p8e4b06acd7)" d="M 489.508916 329.776104 
Q 537.622137 236.129796 585.224428 143.477948 
" style="fill:none;stroke:#000000;stroke-linecap:round;"/>
    <path clip-path="url(#p8e4b06acd7)" d="M 581.617527 146.121858 
L 585.224428 143.477948 
L 585.175415 147.949816 
L 581.617527 146.121858 
z
" style="stroke:#000000;stroke-linecap:round;"/>
   </g>
   <g id="patch_22">
    <path clip-path="url(#p8e4b06acd7)" d="M 486.187597 346.121343 
Q 490.462842 404.103809 494.655874 460.971269 
" style="fill:none;stroke:#000000;stroke-linecap:round;"/>
    <path clip-path="url(#p8e4b06acd7)" d="M 496.356324 456.83503 
L 494.655874 460.971269 
L 492.367153 457.129165 
L 496.356324 456.83503 
z
" style="stroke:#000000;stroke-linecap:round;"/>
   </g>
   <g id="patch_23">
    <path clip-path="url(#p8e4b06acd7)" d="M 478.046729 341.809449 
Q 386.20205 394.792816 295.325814 447.217507 
" style="fill:none;stroke:#000000;stroke-linecap:round;"/>
    <path clip-path="url(#p8e4b06acd7)" d="M 299.79001 446.951133 
L 295.325814 447.217507 
L 297.791231 443.486326 
L 299.79001 446.951133 
z
" style="stroke:#000000;stroke-linecap:round;"/>
   </g>
   <g id="patch_24">
    <path clip-path="url(#p8e4b06acd7)" d="M 525.924353 303.646727 
Q 475.765249 293.490435 426.701942 283.556021 
" style="fill:none;stroke:#000000;stroke-linecap:round;"/>
    <path clip-path="url(#p8e4b06acd7)" d="M 430.225474 286.310058 
L 426.701942 283.556021 
L 431.019291 282.389618 
L 430.225474 286.310058 
z
" style="stroke:#000000;stroke-linecap:round;"/>
   </g>
   <g id="patch_25">
    <path clip-path="url(#p8e4b06acd7)" d="M 527.173667 310.122568 
Q 509.980989 321.422984 493.722598 332.10931 
" style="fill:none;stroke:#000000;stroke-linecap:round;"/>
    <path clip-path="url(#p8e4b06acd7)" d="M 498.163725 331.583582 
L 493.722598 332.10931 
L 495.966692 328.240971 
L 498.163725 331.583582 
z
" style="stroke:#000000;stroke-linecap:round;"/>
   </g>
   <g id="patch_26">
    <path clip-path="url(#p8e4b06acd7)" d="M 408.459437 281.780479 
Q 342.902503 283.034319 278.463399 284.266779 
" style="fill:none;stroke:#000000;stroke-linecap:round;"/>
    <path clip-path="url(#p8e4b06acd7)" d="M 282.500912 286.189924 
L 278.463399 284.266779 
L 282.424422 282.190655 
L 282.500912 286.189924 
z
" style="stroke:#000000;stroke-linecap:round;"/>
   </g>
   <g id="patch_27">
    <path clip-path="url(#p8e4b06acd7)" d="M 413.766792 289.603144 
Q 400.351876 321.604805 387.369193 352.575362 
" style="fill:none;stroke:#000000;stroke-linecap:round;"/>
    <path clip-path="url(#p8e4b06acd7)" d="M 390.760091 349.659575 
L 387.369193 352.575362 
L 387.071102 348.113172 
L 390.760091 349.659575 
z
" style="stroke:#000000;stroke-linecap:round;"/>
   </g>
   <g id="patch_28">
    <path clip-path="url(#p8e4b06acd7)" d="M 188.837031 297.591806 
Q 187.157522 323.280015 185.550955 347.852572 
" style="fill:none;stroke:#000000;stroke-linecap:round;"/>
    <path clip-path="url(#p8e4b06acd7)" d="M 187.807659 343.991576 
L 185.550955 347.852572 
L 183.816181 343.730611 
L 187.807659 343.991576 
z
" style="stroke:#000000;stroke-linecap:round;"/>
   </g>
   <g id="patch_29">
    <path clip-path="url(#p8e4b06acd7)" d="M 243.807727 331.298762 
Q 216.238957 277.111375 189.177163 223.920469 
" style="fill:none;stroke:#000000;stroke-linecap:round;"/>
    <path clip-path="url(#p8e4b06acd7)" d="M 189.20842 228.392496 
L 189.177163 223.920469 
L 192.773538 226.57868 
L 189.20842 228.392496 
z
" style="stroke:#000000;stroke-linecap:round;"/>
   </g>
   <g id="patch_30">
    <path clip-path="url(#p8e4b06acd7)" d="M 239.483907 336.399259 
Q 212.065671 327.696514 185.713076 319.332011 
" style="fill:none;stroke:#000000;stroke-linecap:round;"/>
    <path clip-path="url(#p8e4b06acd7)" d="M 188.920565 322.448421 
L 185.713076 319.332011 
L 190.130698 318.635866 
L 188.920565 322.448421 
z
" style="stroke:#000000;stroke-linecap:round;"/>
   </g>
   <g id="patch_31">
    <path clip-path="url(#p8e4b06acd7)" d="M 243.890749 346.779611 
Q 235.09187 364.543368 226.789242 381.30526 
" style="fill:none;stroke:#000000;stroke-linecap:round;"/>
    <path clip-path="url(#p8e4b06acd7)" d="M 230.356877 378.608599 
L 226.789242 381.30526 
L 226.772494 376.833155 
L 230.356877 378.608599 
z
" style="stroke:#000000;stroke-linecap:round;"/>
   </g>
   <g id="patch_32">
    <path clip-path="url(#p8e4b06acd7)" d="M 253.246752 345.70028 
Q 296.000969 397.533617 338.04377 448.504465 
" style="fill:none;stroke:#000000;stroke-linecap:round;"/>
    <path clip-path="url(#p8e4b06acd7)" d="M 337.0414 444.146111 
L 338.04377 448.504465 
L 333.955664 446.691349 
L 337.0414 444.146111 
z
" style="stroke:#000000;stroke-linecap:round;"/>
   </g>
   <g id="patch_33">
    <path clip-path="url(#p8e4b06acd7)" d="M 280.330575 324.957633 
Q 235.379257 273.344792 191.162225 222.575054 
" style="fill:none;stroke:#000000;stroke-linecap:round;"/>
    <path clip-path="url(#p8e4b06acd7)" d="M 192.281099 226.904965 
L 191.162225 222.575054 
L 195.297477 224.277901 
L 192.281099 226.904965 
z
" style="stroke:#000000;stroke-linecap:round;"/>
   </g>
   <g id="patch_34">
    <path clip-path="url(#p8e4b06acd7)" d="M 277.439486 330.307696 
Q 231.208387 323.932808 186.084841 317.710642 
" style="fill:none;stroke:#000000;stroke-linecap:round;"/>
    <path clip-path="url(#p8e4b06acd7)" d="M 189.774149 320.238291 
L 186.084841 317.710642 
L 190.320545 316.275786 
L 189.774149 320.238291 
z
" style="stroke:#000000;stroke-linecap:round;"/>
   </g>
   <g id="patch_35">
    <path clip-path="url(#p8e4b06acd7)" d="M 279.651519 337.359637 
Q 254.236312 360.777714 229.643319 383.438187 
" style="fill:none;stroke:#000000;stroke-linecap:round;"/>
    <path clip-path="url(#p8e4b06acd7)" d="M 233.940205 382.19852 
L 229.643319 383.438187 
L 231.229718 379.256878 
L 233.940205 382.19852 
z
" style="stroke:#000000;stroke-linecap:round;"/>
   </g>
   <g id="patch_36">
    <path clip-path="url(#p8e4b06acd7)" d="M 289.687491 339.332589 
Q 315.140762 393.765302 340.120449 447.185239 
" style="fill:none;stroke:#000000;stroke-linecap:round;"/>
    <path clip-path="url(#p8e4b06acd7)" d="M 340.237812 442.714643 
L 340.120449 447.185239 
L 336.61439 444.408991 
L 340.237812 442.714643 
z
" style="stroke:#000000;stroke-linecap:round;"/>
   </g>
   <g id="patch_37">
    <path clip-path="url(#p8e4b06acd7)" d="M 321.626821 277.14908 
Q 325.75484 243.802864 329.745502 211.566213 
" style="fill:none;stroke:#000000;stroke-linecap:round;"/>
    <path clip-path="url(#p8e4b06acd7)" d="M 327.269233 215.290202 
L 329.745502 211.566213 
L 331.238932 215.781621 
L 327.269233 215.290202 
z
" style="stroke:#000000;stroke-linecap:round;"/>
   </g>
   <g id="patch_38">
    <path clip-path="url(#p8e4b06acd7)" d="M 282.759719 161.343818 
Q 303.540284 178.815628 323.465092 195.567938 
" style="fill:none;stroke:#000000;stroke-linecap:round;"/>
    <path clip-path="url(#p8e4b06acd7)" d="M 321.690524 191.462952 
L 323.465092 195.567938 
L 319.116362 194.5246 
L 321.690524 191.462952 
z
" style="stroke:#000000;stroke-linecap:round;"/>
   </g>
   <g id="patch_39">
    <path clip-path="url(#p8e4b06acd7)" d="M 467.221491 311.825299 
Q 589.029229 312.596698 709.718956 313.361017 
" style="fill:none;stroke:#000000;stroke-linecap:round;"/>
    <path clip-path="url(#p8e4b06acd7)" d="M 705.731702 311.335726 
L 709.718956 313.361017 
L 705.706371 315.335646 
L 705.731702 311.335726 
z
" style="stroke:#000000;stroke-linecap:round;"/>
   </g>
   <g id="patch_40">
    <path clip-path="url(#p8e4b06acd7)" d="M 456.678008 320.222085 
Q 440.465835 392.961924 424.49688 464.610504 
" style="fill:none;stroke:#000000;stroke-linecap:round;"/>
    <path clip-path="url(#p8e4b06acd7)" d="M 427.319147 461.141382 
L 424.49688 464.610504 
L 423.414943 460.271217 
L 427.319147 461.141382 
z
" style="stroke:#000000;stroke-linecap:round;"/>
   </g>
   <g id="patch_41">
    <path clip-path="url(#p8e4b06acd7)" d="M 449.971341 310.669841 
Q 312.33319 293.035328 175.804009 275.5429 
" style="fill:none;stroke:#000000;stroke-linecap:round;"/>
    <path clip-path="url(#p8e4b06acd7)" d="M 179.51741 278.035018 
L 175.804009 275.5429 
L 180.025744 274.067449 
L 179.51741 278.035018 
z
" style="stroke:#000000;stroke-linecap:round;"/>
   </g>
   <g id="patch_42">
    <path clip-path="url(#p8e4b06acd7)" d="M 465.315058 306.351643 
Q 549.591308 238.72942 632.995537 171.806895 
" style="fill:none;stroke:#000000;stroke-linecap:round;"/>
    <path clip-path="url(#p8e4b06acd7)" d="M 628.624039 172.750295 
L 632.995537 171.806895 
L 631.127359 175.870134 
L 628.624039 172.750295 
z
" style="stroke:#000000;stroke-linecap:round;"/>
   </g>
   <g id="patch_43">
    <path clip-path="url(#p8e4b06acd7)" d="M 451.000683 315.998448 
Q 367.574004 362.649235 285.123157 408.754353 
" style="fill:none;stroke:#000000;stroke-linecap:round;"/>
    <path clip-path="url(#p8e4b06acd7)" d="M 289.590517 408.547731 
L 285.123157 408.754353 
L 287.638275 405.056492 
L 289.590517 408.547731 
z
" style="stroke:#000000;stroke-linecap:round;"/>
   </g>
   <g id="patch_44">
    <path clip-path="url(#p8e4b06acd7)" d="M 469.989617 321.852047 
Q 590.415103 317.78366 709.723194 313.753022 
" style="fill:none;stroke:#000000;stroke-linecap:round;"/>
    <path clip-path="url(#p8e4b06acd7)" d="M 705.657946 311.889219 
L 709.723194 313.753022 
L 705.793003 315.886938 
L 705.657946 311.889219 
z
" style="stroke:#000000;stroke-linecap:round;"/>
   </g>
   <g id="patch_45">
    <path clip-path="url(#p8e4b06acd7)" d="M 459.18409 330.536239 
Q 441.852831 398.147926 424.799187 464.676594 
" style="fill:none;stroke:#000000;stroke-linecap:round;"/>
    <path clip-path="url(#p8e4b06acd7)" d="M 427.729779 461.298483 
L 424.799187 464.676594 
L 423.855053 460.305254 
L 427.729779 461.298483 
z
" style="stroke:#000000;stroke-linecap:round;"/>
   </g>
   <g id="patch_46">
    <path clip-path="url(#p8e4b06acd7)" d="M 452.78952 320.759532 
Q 313.723674 298.222897 175.761464 275.865114 
" style="fill:none;stroke:#000000;stroke-linecap:round;"/>
    <path clip-path="url(#p8e4b06acd7)" d="M 179.390011 278.479239 
L 175.761464 275.865114 
L 180.029892 274.530752 
L 179.390011 278.479239 
z
" style="stroke:#000000;stroke-linecap:round;"/>
   </g>
   <g id="patch_47">
    <path clip-path="url(#p8e4b06acd7)" d="M 467.859846 316.450614 
Q 550.978629 243.915942 633.255031 172.116385 
" style="fill:none;stroke:#000000;stroke-linecap:round;"/>
    <path clip-path="url(#p8e4b06acd7)" d="M 628.926223 173.239514 
L 633.255031 172.116385 
L 631.556249 176.253309 
L 628.926223 173.239514 
z
" style="stroke:#000000;stroke-linecap:round;"/>
   </g>
   <g id="patch_48">
    <path clip-path="url(#p8e4b06acd7)" d="M 453.574384 325.983211 
Q 368.96255 367.835328 285.352858 409.19175 
" style="fill:none;stroke:#000000;stroke-linecap:round;"/>
    <path clip-path="url(#p8e4b06acd7)" d="M 289.824952 409.210979 
L 285.352858 409.19175 
L 288.051498 405.625612 
L 289.824952 409.210979 
z
" style="stroke:#000000;stroke-linecap:round;"/>
   </g>
   <g id="patch_49">
    <path clip-path="url(#p8e4b06acd7)" d="M 453.230385 310.29342 
Q 582.033319 311.807291 709.718296 313.308023 
" style="fill:none;stroke:#000000;stroke-linecap:round;"/>
    <path clip-path="url(#p8e4b06acd7)" d="M 705.742077 311.26115 
L 709.718296 313.308023 
L 705.695067 315.260874 
L 705.742077 311.26115 
z
" style="stroke:#000000;stroke-linecap:round;"/>
   </g>
   <g id="patch_50">
    <path clip-path="url(#p8e4b06acd7)" d="M 443.405509 318.775444 
Q 433.468458 392.175183 423.6814 464.466996 
" style="fill:none;stroke:#000000;stroke-linecap:round;"/>
    <path clip-path="url(#p8e4b06acd7)" d="M 426.199955 460.771474 
L 423.6814 464.466996 
L 422.236116 460.234839 
L 426.199955 460.771474 
z
" style="stroke:#000000;stroke-linecap:round;"/>
   </g>
   <g id="patch_51">
    <path clip-path="url(#p8e4b06acd7)" d="M 435.980403 309.084788 
Q 305.336067 292.245891 175.800593 275.549916 
" style="fill:none;stroke:#000000;stroke-linecap:round;"/>
    <path clip-path="url(#p8e4b06acd7)" d="M 179.512108 278.044842 
L 175.800593 275.549916 
L 180.023442 274.077659 
L 179.512108 278.044842 
z
" style="stroke:#000000;stroke-linecap:round;"/>
   </g>
   <g id="patch_52">
    <path clip-path="url(#p8e4b06acd7)" d="M 451.540917 305.051852 
Q 542.594687 237.939652 632.748473 171.490796 
" style="fill:none;stroke:#000000;stroke-linecap:round;"/>
    <path clip-path="url(#p8e4b06acd7)" d="M 628.341959 172.254106 
L 632.748473 171.490796 
L 630.715213 175.473993 
L 628.341959 172.254106 
z
" style="stroke:#000000;stroke-linecap:round;"/>
   </g>
   <g id="patch_53">
    <path clip-path="url(#p8e4b06acd7)" d="M 437.193317 314.728021 
Q 360.576901 361.859849 284.912761 408.405869 
" style="fill:none;stroke:#000000;stroke-linecap:round;"/>
    <path clip-path="url(#p8e4b06acd7)" d="M 289.367651 408.013502 
L 284.912761 408.405869 
L 287.271801 404.606537 
L 289.367651 408.013502 
z
" style="stroke:#000000;stroke-linecap:round;"/>
   </g>
   <g id="patch_54">
    <path clip-path="url(#p8e4b06acd7)" d="M 455.790894 319.29127 
Q 583.314965 316.453401 709.721278 313.640406 
" style="fill:none;stroke:#000000;stroke-linecap:round;"/>
    <path clip-path="url(#p8e4b06acd7)" d="M 705.677772 311.729893 
L 709.721278 313.640406 
L 705.766764 315.728903 
L 705.677772 311.729893 
z
" style="stroke:#000000;stroke-linecap:round;"/>
   </g>
   <g id="patch_55">
    <path clip-path="url(#p8e4b06acd7)" d="M 445.765543 328.032046 
Q 434.752173 396.818196 423.915561 464.500373 
" style="fill:none;stroke:#000000;stroke-linecap:round;"/>
    <path clip-path="url(#p8e4b06acd7)" d="M 426.522795 460.866872 
L 423.915561 464.500373 
L 422.573101 460.234485 
L 426.522795 460.866872 
z
" style="stroke:#000000;stroke-linecap:round;"/>
   </g>
   <g id="patch_56">
    <path clip-path="url(#p8e4b06acd7)" d="M 438.587898 318.109846 
Q 306.623084 296.892625 175.762129 275.852882 
" style="fill:none;stroke:#000000;stroke-linecap:round;"/>
    <path clip-path="url(#p8e4b06acd7)" d="M 179.393928 278.462486 
L 175.762129 275.852882 
L 180.028891 274.513204 
L 179.393928 278.462486 
z
" style="stroke:#000000;stroke-linecap:round;"/>
   </g>
   <g id="patch_57">
    <path clip-path="url(#p8e4b06acd7)" d="M 453.915821 314.093439 
Q 543.880063 242.584149 632.969078 171.770545 
" style="fill:none;stroke:#000000;stroke-linecap:round;"/>
    <path clip-path="url(#p8e4b06acd7)" d="M 628.593292 172.693852 
L 632.969078 171.770545 
L 631.082252 175.825158 
L 628.593292 172.693852 
z
" style="stroke:#000000;stroke-linecap:round;"/>
   </g>
   <g id="patch_58">
    <path clip-path="url(#p8e4b06acd7)" d="M 439.54833 323.666932 
Q 361.858203 366.50709 285.147127 408.807378 
" style="fill:none;stroke:#000000;stroke-linecap:round;"/>
    <path clip-path="url(#p8e4b06acd7)" d="M 289.615634 408.627254 
L 285.147127 408.807378 
L 287.684132 405.124498 
L 289.615634 408.627254 
z
" style="stroke:#000000;stroke-linecap:round;"/>
   </g>
   <g id="patch_59">
    <path clip-path="url(#p8e4b06acd7)" d="M 435.459642 331.873261 
Q 372.44072 335.355469 310.538129 338.775992 
" style="fill:none;stroke:#000000;stroke-linecap:round;"/>
    <path clip-path="url(#p8e4b06acd7)" d="M 314.642381 340.552256 
L 310.538129 338.775992 
L 314.421692 336.558349 
L 314.642381 340.552256 
z
" style="stroke:#000000;stroke-linecap:round;"/>
   </g>
   <g id="patch_60">
    <path clip-path="url(#p8e4b06acd7)" d="M 435.509242 330.333924 
Q 378.799752 323.332517 323.199871 316.468104 
" style="fill:none;stroke:#000000;stroke-linecap:round;"/>
    <path clip-path="url(#p8e4b06acd7)" d="M 326.924669 318.943156 
L 323.199871 316.468104 
L 327.414791 314.973297 
L 326.924669 318.943156 
z
" style="stroke:#000000;stroke-linecap:round;"/>
   </g>
   <g id="patch_61">
    <path clip-path="url(#p8e4b06acd7)" d="M 273.064283 291.930856 
Q 284.734925 311.885015 295.841114 330.874086 
" style="fill:none;stroke:#000000;stroke-linecap:round;"/>
    <path clip-path="url(#p8e4b06acd7)" d="M 295.548066 326.411562 
L 295.841114 330.874086 
L 292.095266 328.43101 
L 295.548066 326.411562 
z
" style="stroke:#000000;stroke-linecap:round;"/>
   </g>
   <g id="patch_62">
    <path clip-path="url(#p8e4b06acd7)" d="M 275.825272 289.360833 
Q 291.091879 299.86176 305.437324 309.729078 
" style="fill:none;stroke:#000000;stroke-linecap:round;"/>
    <path clip-path="url(#p8e4b06acd7)" d="M 303.275108 305.814385 
L 305.437324 309.729078 
L 301.00824 309.110035 
L 303.275108 305.814385 
z
" style="stroke:#000000;stroke-linecap:round;"/>
   </g>
   <g id="patch_63">
    <path clip-path="url(#p8e4b06acd7)" d="M 375.22777 359.340511 
Q 342.185751 350.452977 310.223392 341.855846 
" style="fill:none;stroke:#000000;stroke-linecap:round;"/>
    <path clip-path="url(#p8e4b06acd7)" d="M 313.566612 344.82618 
L 310.223392 341.855846 
L 314.605591 340.96347 
L 313.566612 344.82618 
z
" style="stroke:#000000;stroke-linecap:round;"/>
   </g>
   <g id="patch_64">
    <path clip-path="url(#p8e4b06acd7)" d="M 376.366215 356.816189 
Q 348.542295 338.430354 321.651156 320.660893 
" style="fill:none;stroke:#000000;stroke-linecap:round;"/>
    <path clip-path="url(#p8e4b06acd7)" d="M 323.885772 324.534715 
L 321.651156 320.660893 
L 326.090983 321.197493 
L 323.885772 324.534715 
z
" style="stroke:#000000;stroke-linecap:round;"/>
   </g>
   <g id="patch_65">
    <path clip-path="url(#p8e4b06acd7)" d="M 294.862693 332.988146 
Q 242.758234 277.257394 191.417329 222.343336 
" style="fill:none;stroke:#000000;stroke-linecap:round;"/>
    <path clip-path="url(#p8e4b06acd7)" d="M 192.688152 226.63111 
L 191.417329 222.343336 
L 195.610042 223.899342 
L 192.688152 226.63111 
z
" style="stroke:#000000;stroke-linecap:round;"/>
   </g>
   <g id="patch_66">
    <path clip-path="url(#p8e4b06acd7)" d="M 292.264045 337.744981 
Q 238.588957 327.84532 186.01336 318.148444 
" style="fill:none;stroke:#000000;stroke-linecap:round;"/>
    <path clip-path="url(#p8e4b06acd7)" d="M 189.584259 320.840782 
L 186.01336 318.148444 
L 190.309769 316.907128 
L 189.584259 320.840782 
z
" style="stroke:#000000;stroke-linecap:round;"/>
   </g>
   <g id="patch_67">
    <path clip-path="url(#p8e4b06acd7)" d="M 293.50893 344.025235 
Q 261.6126 364.69181 230.654565 384.750435 
" style="fill:none;stroke:#000000;stroke-linecap:round;"/>
    <path clip-path="url(#p8e4b06acd7)" d="M 235.099044 384.253843 
L 230.654565 384.750435 
L 232.923979 380.896897 
L 235.099044 384.253843 
z
" style="stroke:#000000;stroke-linecap:round;"/>
   </g>
   <g id="patch_68">
    <path clip-path="url(#p8e4b06acd7)" d="M 303.80251 347.433766 
Q 322.520874 397.680525 340.848941 446.879587 
" style="fill:none;stroke:#000000;stroke-linecap:round;"/>
    <path clip-path="url(#p8e4b06acd7)" d="M 341.326748 442.433049 
L 340.848941 446.879587 
L 337.578394 443.829418 
L 341.326748 442.433049 
z
" style="stroke:#000000;stroke-linecap:round;"/>
   </g>
   <g id="patch_69">
    <path clip-path="url(#p8e4b06acd7)" d="M 306.651708 309.953003 
Q 249.114256 265.234324 192.45957 221.201739 
" style="fill:none;stroke:#000000;stroke-linecap:round;"/>
    <path clip-path="url(#p8e4b06acd7)" d="M 194.390526 225.235523 
L 192.45957 221.201739 
L 196.845171 222.077245 
L 194.390526 225.235523 
z
" style="stroke:#000000;stroke-linecap:round;"/>
   </g>
   <g id="patch_70">
    <path clip-path="url(#p8e4b06acd7)" d="M 304.835922 315.339371 
Q 244.94505 315.822079 186.172175 316.295776 
" style="fill:none;stroke:#000000;stroke-linecap:round;"/>
    <path clip-path="url(#p8e4b06acd7)" d="M 190.188164 318.263473 
L 186.172175 316.295776 
L 190.155926 314.263603 
L 190.188164 318.263473 
z
" style="stroke:#000000;stroke-linecap:round;"/>
   </g>
   <g id="patch_71">
    <path clip-path="url(#p8e4b06acd7)" d="M 306.799141 320.768456 
Q 267.969383 352.669421 230.003504 383.860659 
" style="fill:none;stroke:#000000;stroke-linecap:round;"/>
    <path clip-path="url(#p8e4b06acd7)" d="M 234.36381 382.866812 
L 230.003504 383.860659 
L 231.82461 379.776106 
L 234.36381 382.866812 
z
" style="stroke:#000000;stroke-linecap:round;"/>
   </g>
   <g id="patch_72">
    <path clip-path="url(#p8e4b06acd7)" d="M 315.341322 323.728646 
Q 328.877696 385.656853 342.175324 446.492813 
" style="fill:none;stroke:#000000;stroke-linecap:round;"/>
    <path clip-path="url(#p8e4b06acd7)" d="M 343.275033 442.157996 
L 342.175324 446.492813 
L 339.367296 443.012156 
L 343.275033 442.157996 
z
" style="stroke:#000000;stroke-linecap:round;"/>
   </g>
   <g id="PathCollection_1">
    <defs>
     <path d="M 0 8.660254 
C 2.296726 8.660254 4.499694 7.747755 6.123724 6.123724 
C 7.747755 4.499694 8.660254 2.296726 8.660254 -0 
C 8.660254 -2.296726 7.747755 -4.499694 6.123724 -6.123724 
C 4.499694 -7.747755 2.296726 -8.660254 0 -8.660254 
C -2.296726 -8.660254 -4.499694 -7.747755 -6.123724 -6.123724 
C -7.747755 -4.499694 -8.660254 -2.296726 -8.660254 0 
C -8.660254 2.296726 -7.747755 4.499694 -6.123724 6.123724 
C -4.499694 7.747755 -2.296726 8.660254 0 8.660254 
z
" id="C0_0_18daca81a3"/>
    </defs>
    <g clip-path="url(#p8e4b06acd7)">
     <use style="fill:#ff0000;stroke:#ff0000;" x="184.742477" xlink:href="#C0_0_18daca81a3" y="215.203937"/>
    </g>
    <g clip-path="url(#p8e4b06acd7)">
     <use style="fill:#ff0000;stroke:#ff0000;" x="431.351496" xlink:href="#C0_0_18daca81a3" y="160.624891"/>
    </g>
    <g clip-path="url(#p8e4b06acd7)">
     <use style="fill:#ff0000;stroke:#ff0000;" x="495.310089" xlink:href="#C0_0_18daca81a3" y="122.037893"/>
    </g>
    <g clip-path="url(#p8e4b06acd7)">
     <use style="fill:#ff0000;stroke:#ff0000;" x="330.947218" xlink:href="#C0_0_18daca81a3" y="201.858734"/>
    </g>
    <g clip-path="url(#p8e4b06acd7)">
     <use style="fill:#ff0000;stroke:#ff0000;" x="219.928622" xlink:href="#C0_0_18daca81a3" y="171.974587"/>
    </g>
    <g clip-path="url(#p8e4b06acd7)">
     <use style="fill:#ff0000;stroke:#ff0000;" x="719.494215" xlink:href="#C0_0_18daca81a3" y="313.422923"/>
    </g>
    <g clip-path="url(#p8e4b06acd7)">
     <use style="fill:#ff0000;stroke:#ff0000;" x="422.37012" xlink:href="#C0_0_18daca81a3" y="474.152727"/>
    </g>
    <g clip-path="url(#p8e4b06acd7)">
     <use style="fill:#ff0000;stroke:#ff0000;" x="166.105785" xlink:href="#C0_0_18daca81a3" y="274.300341"/>
    </g>
    <g clip-path="url(#p8e4b06acd7)">
     <use style="fill:#ff0000;stroke:#ff0000;" x="593.43013" xlink:href="#C0_0_18daca81a3" y="293.197143"/>
    </g>
    <g clip-path="url(#p8e4b06acd7)">
     <use style="fill:#ff0000;stroke:#ff0000;" x="560.499552" xlink:href="#C0_0_18daca81a3" y="201.829173"/>
    </g>
    <g clip-path="url(#p8e4b06acd7)">
     <use style="fill:#ff0000;stroke:#ff0000;" x="502.273123" xlink:href="#C0_0_18daca81a3" y="399.655642"/>
    </g>
    <g clip-path="url(#p8e4b06acd7)">
     <use style="fill:#ff0000;stroke:#ff0000;" x="300.208835" xlink:href="#C0_0_18daca81a3" y="128.387015"/>
    </g>
    <g clip-path="url(#p8e4b06acd7)">
     <use style="fill:#ff0000;stroke:#ff0000;" x="367.114233" xlink:href="#C0_0_18daca81a3" y="113.462272"/>
    </g>
    <g clip-path="url(#p8e4b06acd7)">
     <use style="fill:#ff0000;stroke:#ff0000;" x="456.592081" xlink:href="#C0_0_18daca81a3" y="107.607273"/>
    </g>
    <g clip-path="url(#p8e4b06acd7)">
     <use style="fill:#ff0000;stroke:#ff0000;" x="176.395587" xlink:href="#C0_0_18daca81a3" y="316.374573"/>
    </g>
    <g clip-path="url(#p8e4b06acd7)">
     <use style="fill:#ff0000;stroke:#ff0000;" x="222.449411" xlink:href="#C0_0_18daca81a3" y="390.066797"/>
    </g>
    <g clip-path="url(#p8e4b06acd7)">
     <use style="fill:#ff0000;stroke:#ff0000;" x="184.913028" xlink:href="#C0_0_18daca81a3" y="357.609719"/>
    </g>
    <g clip-path="url(#p8e4b06acd7)">
     <use style="fill:#ff0000;stroke:#ff0000;" x="608.068646" xlink:href="#C0_0_18daca81a3" y="414.181188"/>
    </g>
    <g clip-path="url(#p8e4b06acd7)">
     <use style="fill:#ff0000;stroke:#ff0000;" x="640.740098" xlink:href="#C0_0_18daca81a3" y="424.136763"/>
    </g>
    <g clip-path="url(#p8e4b06acd7)">
     <use style="fill:#ff0000;stroke:#ff0000;" x="693.783715" xlink:href="#C0_0_18daca81a3" y="373.626503"/>
    </g>
    <g clip-path="url(#p8e4b06acd7)">
     <use style="fill:#ff0000;stroke:#ff0000;" x="485.550491" xlink:href="#C0_0_18daca81a3" y="337.480678"/>
    </g>
    <g clip-path="url(#p8e4b06acd7)">
     <use style="fill:#ff0000;stroke:#ff0000;" x="534.411572" xlink:href="#C0_0_18daca81a3" y="305.365233"/>
    </g>
    <g clip-path="url(#p8e4b06acd7)">
     <use style="fill:#ff0000;stroke:#ff0000;" x="417.115408" xlink:href="#C0_0_18daca81a3" y="281.614925"/>
    </g>
    <g clip-path="url(#p8e4b06acd7)">
     <use style="fill:#ff0000;stroke:#ff0000;" x="684.643874" xlink:href="#C0_0_18daca81a3" y="202.961172"/>
    </g>
    <g clip-path="url(#p8e4b06acd7)">
     <use style="fill:#ff0000;stroke:#ff0000;" x="189.4023" xlink:href="#C0_0_18daca81a3" y="288.945975"/>
    </g>
    <g clip-path="url(#p8e4b06acd7)">
     <use style="fill:#ff0000;stroke:#ff0000;" x="247.735158" xlink:href="#C0_0_18daca81a3" y="339.018265"/>
    </g>
    <g clip-path="url(#p8e4b06acd7)">
     <use style="fill:#ff0000;stroke:#ff0000;" x="286.020674" xlink:href="#C0_0_18daca81a3" y="331.490972"/>
    </g>
    <g clip-path="url(#p8e4b06acd7)">
     <use style="fill:#ff0000;stroke:#ff0000;" x="320.562982" xlink:href="#C0_0_18daca81a3" y="285.742793"/>
    </g>
    <g clip-path="url(#p8e4b06acd7)">
     <use style="fill:#ff0000;stroke:#ff0000;" x="276.131972" xlink:href="#C0_0_18daca81a3" y="155.771364"/>
    </g>
    <g clip-path="url(#p8e4b06acd7)">
     <use style="fill:#ff0000;stroke:#ff0000;" x="589.693136" xlink:href="#C0_0_18daca81a3" y="134.780173"/>
    </g>
    <g clip-path="url(#p8e4b06acd7)">
     <use style="fill:#ff0000;stroke:#ff0000;" x="495.374811" xlink:href="#C0_0_18daca81a3" y="470.72176"/>
    </g>
    <g clip-path="url(#p8e4b06acd7)">
     <use style="fill:#ff0000;stroke:#ff0000;" x="286.856929" xlink:href="#C0_0_18daca81a3" y="452.103039"/>
    </g>
    <g clip-path="url(#p8e4b06acd7)">
     <use style="fill:#ff0000;stroke:#ff0000;" x="640.621856" xlink:href="#C0_0_18daca81a3" y="165.68763"/>
    </g>
    <g clip-path="url(#p8e4b06acd7)">
     <use style="fill:#ff0000;stroke:#ff0000;" x="276.586429" xlink:href="#C0_0_18daca81a3" y="413.527947"/>
    </g>
    <g clip-path="url(#p8e4b06acd7)">
     <use style="fill:#ff0000;stroke:#ff0000;" x="458.561698" xlink:href="#C0_0_18daca81a3" y="311.770457"/>
    </g>
    <g clip-path="url(#p8e4b06acd7)">
     <use style="fill:#ff0000;stroke:#ff0000;" x="461.335208" xlink:href="#C0_0_18daca81a3" y="322.144423"/>
    </g>
    <g clip-path="url(#p8e4b06acd7)">
     <use style="fill:#ff0000;stroke:#ff0000;" x="444.567613" xlink:href="#C0_0_18daca81a3" y="310.191603"/>
    </g>
    <g clip-path="url(#p8e4b06acd7)">
     <use style="fill:#008000;stroke:#008000;" x="447.134187" xlink:href="#C0_0_18daca81a3" y="319.483913"/>
    </g>
    <g clip-path="url(#p8e4b06acd7)">
     <use style="fill:#ff0000;stroke:#ff0000;" x="344.263168" xlink:href="#C0_0_18daca81a3" y="456.04459"/>
    </g>
    <g clip-path="url(#p8e4b06acd7)">
     <use style="fill:#ff0000;stroke:#ff0000;" x="444.107147" xlink:href="#C0_0_18daca81a3" y="331.395429"/>
    </g>
    <g clip-path="url(#p8e4b06acd7)">
     <use style="fill:#ff0000;stroke:#ff0000;" x="268.69109" xlink:href="#C0_0_18daca81a3" y="284.453684"/>
    </g>
    <g clip-path="url(#p8e4b06acd7)">
     <use style="fill:#ff0000;stroke:#ff0000;" x="383.590369" xlink:href="#C0_0_18daca81a3" y="361.589856"/>
    </g>
    <g clip-path="url(#p8e4b06acd7)">
     <use style="fill:#ff0000;stroke:#ff0000;" x="300.778146" xlink:href="#C0_0_18daca81a3" y="339.315295"/>
    </g>
    <g clip-path="url(#p8e4b06acd7)">
     <use style="fill:#ff0000;stroke:#ff0000;" x="313.492329" xlink:href="#C0_0_18daca81a3" y="315.269602"/>
    </g>
   </g>
   <g id="text_1">
    <g clip-path="url(#p8e4b06acd7)">
     <!-- ICAM1 -->
     <g transform="translate(165.684039 218.515187)scale(0.12 -0.12)">
      <defs>
       <path d="M 9.8125 72.90625 
L 19.671875 72.90625 
L 19.671875 0 
L 9.8125 0 
z
" id="DejaVuSans-73"/>
       <path d="M 64.40625 67.28125 
L 64.40625 56.890625 
Q 59.421875 61.53125 53.78125 63.8125 
Q 48.140625 66.109375 41.796875 66.109375 
Q 29.296875 66.109375 22.65625 58.46875 
Q 16.015625 50.828125 16.015625 36.375 
Q 16.015625 21.96875 22.65625 14.328125 
Q 29.296875 6.6875 41.796875 6.6875 
Q 48.140625 6.6875 53.78125 8.984375 
Q 59.421875 11.28125 64.40625 15.921875 
L 64.40625 5.609375 
Q 59.234375 2.09375 53.4375 0.328125 
Q 47.65625 -1.421875 41.21875 -1.421875 
Q 24.65625 -1.421875 15.125 8.703125 
Q 5.609375 18.84375 5.609375 36.375 
Q 5.609375 53.953125 15.125 64.078125 
Q 24.65625 74.21875 41.21875 74.21875 
Q 47.75 74.21875 53.53125 72.484375 
Q 59.328125 70.75 64.40625 67.28125 
z
" id="DejaVuSans-67"/>
       <path d="M 34.1875 63.1875 
L 20.796875 26.90625 
L 47.609375 26.90625 
z
M 28.609375 72.90625 
L 39.796875 72.90625 
L 67.578125 0 
L 57.328125 0 
L 50.6875 18.703125 
L 17.828125 18.703125 
L 11.1875 0 
L 0.78125 0 
z
" id="DejaVuSans-65"/>
       <path d="M 9.8125 72.90625 
L 24.515625 72.90625 
L 43.109375 23.296875 
L 61.8125 72.90625 
L 76.515625 72.90625 
L 76.515625 0 
L 66.890625 0 
L 66.890625 64.015625 
L 48.09375 14.015625 
L 38.1875 14.015625 
L 19.390625 64.015625 
L 19.390625 0 
L 9.8125 0 
z
" id="DejaVuSans-77"/>
       <path d="M 12.40625 8.296875 
L 28.515625 8.296875 
L 28.515625 63.921875 
L 10.984375 60.40625 
L 10.984375 69.390625 
L 28.421875 72.90625 
L 38.28125 72.90625 
L 38.28125 8.296875 
L 54.390625 8.296875 
L 54.390625 0 
L 12.40625 0 
z
" id="DejaVuSans-49"/>
      </defs>
      <use xlink:href="#DejaVuSans-73"/>
      <use x="29.492188" xlink:href="#DejaVuSans-67"/>
      <use x="99.316406" xlink:href="#DejaVuSans-65"/>
      <use x="167.724609" xlink:href="#DejaVuSans-77"/>
      <use x="254.003906" xlink:href="#DejaVuSans-49"/>
     </g>
    </g>
   </g>
   <g id="text_2">
    <g clip-path="url(#p8e4b06acd7)">
     <!-- NFE2L2 -->
     <g transform="translate(408.642434 163.936141)scale(0.12 -0.12)">
      <defs>
       <path d="M 9.8125 72.90625 
L 23.09375 72.90625 
L 55.421875 11.921875 
L 55.421875 72.90625 
L 64.984375 72.90625 
L 64.984375 0 
L 51.703125 0 
L 19.390625 60.984375 
L 19.390625 0 
L 9.8125 0 
z
" id="DejaVuSans-78"/>
       <path d="M 9.8125 72.90625 
L 51.703125 72.90625 
L 51.703125 64.59375 
L 19.671875 64.59375 
L 19.671875 43.109375 
L 48.578125 43.109375 
L 48.578125 34.8125 
L 19.671875 34.8125 
L 19.671875 0 
L 9.8125 0 
z
" id="DejaVuSans-70"/>
       <path d="M 9.8125 72.90625 
L 55.90625 72.90625 
L 55.90625 64.59375 
L 19.671875 64.59375 
L 19.671875 43.015625 
L 54.390625 43.015625 
L 54.390625 34.71875 
L 19.671875 34.71875 
L 19.671875 8.296875 
L 56.78125 8.296875 
L 56.78125 0 
L 9.8125 0 
z
" id="DejaVuSans-69"/>
       <path d="M 19.1875 8.296875 
L 53.609375 8.296875 
L 53.609375 0 
L 7.328125 0 
L 7.328125 8.296875 
Q 12.9375 14.109375 22.625 23.890625 
Q 32.328125 33.6875 34.8125 36.53125 
Q 39.546875 41.84375 41.421875 45.53125 
Q 43.3125 49.21875 43.3125 52.78125 
Q 43.3125 58.59375 39.234375 62.25 
Q 35.15625 65.921875 28.609375 65.921875 
Q 23.96875 65.921875 18.8125 64.3125 
Q 13.671875 62.703125 7.8125 59.421875 
L 7.8125 69.390625 
Q 13.765625 71.78125 18.9375 73 
Q 24.125 74.21875 28.421875 74.21875 
Q 39.75 74.21875 46.484375 68.546875 
Q 53.21875 62.890625 53.21875 53.421875 
Q 53.21875 48.921875 51.53125 44.890625 
Q 49.859375 40.875 45.40625 35.40625 
Q 44.1875 33.984375 37.640625 27.21875 
Q 31.109375 20.453125 19.1875 8.296875 
z
" id="DejaVuSans-50"/>
       <path d="M 9.8125 72.90625 
L 19.671875 72.90625 
L 19.671875 8.296875 
L 55.171875 8.296875 
L 55.171875 0 
L 9.8125 0 
z
" id="DejaVuSans-76"/>
      </defs>
      <use xlink:href="#DejaVuSans-78"/>
      <use x="74.804688" xlink:href="#DejaVuSans-70"/>
      <use x="132.324219" xlink:href="#DejaVuSans-69"/>
      <use x="195.507812" xlink:href="#DejaVuSans-50"/>
      <use x="259.130859" xlink:href="#DejaVuSans-76"/>
      <use x="314.84375" xlink:href="#DejaVuSans-50"/>
     </g>
    </g>
   </g>
   <g id="text_3">
    <g clip-path="url(#p8e4b06acd7)">
     <!-- MAPK7 -->
     <g transform="translate(474.658839 125.349143)scale(0.12 -0.12)">
      <defs>
       <path d="M 19.671875 64.796875 
L 19.671875 37.40625 
L 32.078125 37.40625 
Q 38.96875 37.40625 42.71875 40.96875 
Q 46.484375 44.53125 46.484375 51.125 
Q 46.484375 57.671875 42.71875 61.234375 
Q 38.96875 64.796875 32.078125 64.796875 
z
M 9.8125 72.90625 
L 32.078125 72.90625 
Q 44.34375 72.90625 50.609375 67.359375 
Q 56.890625 61.8125 56.890625 51.125 
Q 56.890625 40.328125 50.609375 34.8125 
Q 44.34375 29.296875 32.078125 29.296875 
L 19.671875 29.296875 
L 19.671875 0 
L 9.8125 0 
z
" id="DejaVuSans-80"/>
       <path d="M 9.8125 72.90625 
L 19.671875 72.90625 
L 19.671875 42.09375 
L 52.390625 72.90625 
L 65.09375 72.90625 
L 28.90625 38.921875 
L 67.671875 0 
L 54.6875 0 
L 19.671875 35.109375 
L 19.671875 0 
L 9.8125 0 
z
" id="DejaVuSans-75"/>
       <path d="M 8.203125 72.90625 
L 55.078125 72.90625 
L 55.078125 68.703125 
L 28.609375 0 
L 18.3125 0 
L 43.21875 64.59375 
L 8.203125 64.59375 
z
" id="DejaVuSans-55"/>
      </defs>
      <use xlink:href="#DejaVuSans-77"/>
      <use x="86.279297" xlink:href="#DejaVuSans-65"/>
      <use x="154.6875" xlink:href="#DejaVuSans-80"/>
      <use x="214.990234" xlink:href="#DejaVuSans-75"/>
      <use x="280.566406" xlink:href="#DejaVuSans-55"/>
     </g>
    </g>
   </g>
   <g id="text_4">
    <g clip-path="url(#p8e4b06acd7)">
     <!-- KLF2 -->
     <g transform="translate(316.400968 205.169984)scale(0.12 -0.12)">
      <use xlink:href="#DejaVuSans-75"/>
      <use x="65.576172" xlink:href="#DejaVuSans-76"/>
      <use x="121.289062" xlink:href="#DejaVuSans-70"/>
      <use x="178.808594" xlink:href="#DejaVuSans-50"/>
     </g>
    </g>
   </g>
   <g id="text_5">
    <g clip-path="url(#p8e4b06acd7)">
     <!-- NQO1 -->
     <g transform="translate(202.176122 175.285837)scale(0.12 -0.12)">
      <defs>
       <path d="M 39.40625 66.21875 
Q 28.65625 66.21875 22.328125 58.203125 
Q 16.015625 50.203125 16.015625 36.375 
Q 16.015625 22.609375 22.328125 14.59375 
Q 28.65625 6.59375 39.40625 6.59375 
Q 50.140625 6.59375 56.421875 14.59375 
Q 62.703125 22.609375 62.703125 36.375 
Q 62.703125 50.203125 56.421875 58.203125 
Q 50.140625 66.21875 39.40625 66.21875 
z
M 53.21875 1.3125 
L 66.21875 -12.890625 
L 54.296875 -12.890625 
L 43.5 -1.21875 
Q 41.890625 -1.3125 41.03125 -1.359375 
Q 40.1875 -1.421875 39.40625 -1.421875 
Q 24.03125 -1.421875 14.8125 8.859375 
Q 5.609375 19.140625 5.609375 36.375 
Q 5.609375 53.65625 14.8125 63.9375 
Q 24.03125 74.21875 39.40625 74.21875 
Q 54.734375 74.21875 63.90625 63.9375 
Q 73.09375 53.65625 73.09375 36.375 
Q 73.09375 23.6875 67.984375 14.640625 
Q 62.890625 5.609375 53.21875 1.3125 
z
" id="DejaVuSans-81"/>
       <path d="M 39.40625 66.21875 
Q 28.65625 66.21875 22.328125 58.203125 
Q 16.015625 50.203125 16.015625 36.375 
Q 16.015625 22.609375 22.328125 14.59375 
Q 28.65625 6.59375 39.40625 6.59375 
Q 50.140625 6.59375 56.421875 14.59375 
Q 62.703125 22.609375 62.703125 36.375 
Q 62.703125 50.203125 56.421875 58.203125 
Q 50.140625 66.21875 39.40625 66.21875 
z
M 39.40625 74.21875 
Q 54.734375 74.21875 63.90625 63.9375 
Q 73.09375 53.65625 73.09375 36.375 
Q 73.09375 19.140625 63.90625 8.859375 
Q 54.734375 -1.421875 39.40625 -1.421875 
Q 24.03125 -1.421875 14.8125 8.828125 
Q 5.609375 19.09375 5.609375 36.375 
Q 5.609375 53.65625 14.8125 63.9375 
Q 24.03125 74.21875 39.40625 74.21875 
z
" id="DejaVuSans-79"/>
      </defs>
      <use xlink:href="#DejaVuSans-78"/>
      <use x="74.804688" xlink:href="#DejaVuSans-81"/>
      <use x="153.515625" xlink:href="#DejaVuSans-79"/>
      <use x="232.226562" xlink:href="#DejaVuSans-49"/>
     </g>
    </g>
   </g>
   <g id="text_6">
    <g clip-path="url(#p8e4b06acd7)">
     <!-- CYBA -->
     <g transform="translate(703.523902 316.734173)scale(0.12 -0.12)">
      <defs>
       <path d="M -0.203125 72.90625 
L 10.40625 72.90625 
L 30.609375 42.921875 
L 50.6875 72.90625 
L 61.28125 72.90625 
L 35.5 34.71875 
L 35.5 0 
L 25.59375 0 
L 25.59375 34.71875 
z
" id="DejaVuSans-89"/>
       <path d="M 19.671875 34.8125 
L 19.671875 8.109375 
L 35.5 8.109375 
Q 43.453125 8.109375 47.28125 11.40625 
Q 51.125 14.703125 51.125 21.484375 
Q 51.125 28.328125 47.28125 31.5625 
Q 43.453125 34.8125 35.5 34.8125 
z
M 19.671875 64.796875 
L 19.671875 42.828125 
L 34.28125 42.828125 
Q 41.5 42.828125 45.03125 45.53125 
Q 48.578125 48.25 48.578125 53.8125 
Q 48.578125 59.328125 45.03125 62.0625 
Q 41.5 64.796875 34.28125 64.796875 
z
M 9.8125 72.90625 
L 35.015625 72.90625 
Q 46.296875 72.90625 52.390625 68.21875 
Q 58.5 63.53125 58.5 54.890625 
Q 58.5 48.1875 55.375 44.234375 
Q 52.25 40.28125 46.1875 39.3125 
Q 53.46875 37.75 57.5 32.78125 
Q 61.53125 27.828125 61.53125 20.40625 
Q 61.53125 10.640625 54.890625 5.3125 
Q 48.25 0 35.984375 0 
L 9.8125 0 
z
" id="DejaVuSans-66"/>
      </defs>
      <use xlink:href="#DejaVuSans-67"/>
      <use x="68.074219" xlink:href="#DejaVuSans-89"/>
      <use x="129.158203" xlink:href="#DejaVuSans-66"/>
      <use x="197.761719" xlink:href="#DejaVuSans-65"/>
     </g>
    </g>
   </g>
   <g id="text_7">
    <g clip-path="url(#p8e4b06acd7)">
     <!-- NCF1 -->
     <g transform="translate(406.423245 477.463977)scale(0.12 -0.12)">
      <use xlink:href="#DejaVuSans-78"/>
      <use x="74.804688" xlink:href="#DejaVuSans-67"/>
      <use x="144.628906" xlink:href="#DejaVuSans-70"/>
      <use x="202.148438" xlink:href="#DejaVuSans-49"/>
     </g>
    </g>
   </g>
   <g id="text_8">
    <g clip-path="url(#p8e4b06acd7)">
     <!-- NCF2 -->
     <g transform="translate(150.15891 277.611591)scale(0.12 -0.12)">
      <use xlink:href="#DejaVuSans-78"/>
      <use x="74.804688" xlink:href="#DejaVuSans-67"/>
      <use x="144.628906" xlink:href="#DejaVuSans-70"/>
      <use x="202.148438" xlink:href="#DejaVuSans-50"/>
     </g>
    </g>
   </g>
   <g id="text_9">
    <g clip-path="url(#p8e4b06acd7)">
     <!-- PRKCZ -->
     <g transform="translate(573.73888 296.508393)scale(0.12 -0.12)">
      <defs>
       <path d="M 44.390625 34.1875 
Q 47.5625 33.109375 50.5625 29.59375 
Q 53.5625 26.078125 56.59375 19.921875 
L 66.609375 0 
L 56 0 
L 46.6875 18.703125 
Q 43.0625 26.03125 39.671875 28.421875 
Q 36.28125 30.8125 30.421875 30.8125 
L 19.671875 30.8125 
L 19.671875 0 
L 9.8125 0 
L 9.8125 72.90625 
L 32.078125 72.90625 
Q 44.578125 72.90625 50.734375 67.671875 
Q 56.890625 62.453125 56.890625 51.90625 
Q 56.890625 45.015625 53.6875 40.46875 
Q 50.484375 35.9375 44.390625 34.1875 
z
M 19.671875 64.796875 
L 19.671875 38.921875 
L 32.078125 38.921875 
Q 39.203125 38.921875 42.84375 42.21875 
Q 46.484375 45.515625 46.484375 51.90625 
Q 46.484375 58.296875 42.84375 61.546875 
Q 39.203125 64.796875 32.078125 64.796875 
z
" id="DejaVuSans-82"/>
       <path d="M 5.609375 72.90625 
L 62.890625 72.90625 
L 62.890625 65.375 
L 16.796875 8.296875 
L 64.015625 8.296875 
L 64.015625 0 
L 4.5 0 
L 4.5 7.515625 
L 50.59375 64.59375 
L 5.609375 64.59375 
z
" id="DejaVuSans-90"/>
      </defs>
      <use xlink:href="#DejaVuSans-80"/>
      <use x="60.302734" xlink:href="#DejaVuSans-82"/>
      <use x="129.785156" xlink:href="#DejaVuSans-75"/>
      <use x="189.861328" xlink:href="#DejaVuSans-67"/>
      <use x="259.685547" xlink:href="#DejaVuSans-90"/>
     </g>
    </g>
   </g>
   <g id="text_10">
    <g clip-path="url(#p8e4b06acd7)">
     <!-- MAP2K5 -->
     <g transform="translate(536.030802 205.140423)scale(0.12 -0.12)">
      <defs>
       <path d="M 10.796875 72.90625 
L 49.515625 72.90625 
L 49.515625 64.59375 
L 19.828125 64.59375 
L 19.828125 46.734375 
Q 21.96875 47.46875 24.109375 47.828125 
Q 26.265625 48.1875 28.421875 48.1875 
Q 40.625 48.1875 47.75 41.5 
Q 54.890625 34.8125 54.890625 23.390625 
Q 54.890625 11.625 47.5625 5.09375 
Q 40.234375 -1.421875 26.90625 -1.421875 
Q 22.3125 -1.421875 17.546875 -0.640625 
Q 12.796875 0.140625 7.71875 1.703125 
L 7.71875 11.625 
Q 12.109375 9.234375 16.796875 8.0625 
Q 21.484375 6.890625 26.703125 6.890625 
Q 35.15625 6.890625 40.078125 11.328125 
Q 45.015625 15.765625 45.015625 23.390625 
Q 45.015625 31 40.078125 35.4375 
Q 35.15625 39.890625 26.703125 39.890625 
Q 22.75 39.890625 18.8125 39.015625 
Q 14.890625 38.140625 10.796875 36.28125 
z
" id="DejaVuSans-53"/>
      </defs>
      <use xlink:href="#DejaVuSans-77"/>
      <use x="86.279297" xlink:href="#DejaVuSans-65"/>
      <use x="154.6875" xlink:href="#DejaVuSans-80"/>
      <use x="214.990234" xlink:href="#DejaVuSans-50"/>
      <use x="278.613281" xlink:href="#DejaVuSans-75"/>
      <use x="344.189453" xlink:href="#DejaVuSans-53"/>
     </g>
    </g>
   </g>
   <g id="text_11">
    <g clip-path="url(#p8e4b06acd7)">
     <!-- PECAM1 -->
     <g transform="translate(477.575623 402.966892)scale(0.12 -0.12)">
      <use xlink:href="#DejaVuSans-80"/>
      <use x="60.302734" xlink:href="#DejaVuSans-69"/>
      <use x="123.486328" xlink:href="#DejaVuSans-67"/>
      <use x="193.310547" xlink:href="#DejaVuSans-65"/>
      <use x="261.71875" xlink:href="#DejaVuSans-77"/>
      <use x="347.998047" xlink:href="#DejaVuSans-49"/>
     </g>
    </g>
   </g>
   <g id="text_12">
    <g clip-path="url(#p8e4b06acd7)">
     <!-- HMOX1 -->
     <g transform="translate(278.251647 131.698265)scale(0.12 -0.12)">
      <defs>
       <path d="M 9.8125 72.90625 
L 19.671875 72.90625 
L 19.671875 43.015625 
L 55.515625 43.015625 
L 55.515625 72.90625 
L 65.375 72.90625 
L 65.375 0 
L 55.515625 0 
L 55.515625 34.71875 
L 19.671875 34.71875 
L 19.671875 0 
L 9.8125 0 
z
" id="DejaVuSans-72"/>
       <path d="M 6.296875 72.90625 
L 16.890625 72.90625 
L 35.015625 45.796875 
L 53.21875 72.90625 
L 63.8125 72.90625 
L 40.375 37.890625 
L 65.375 0 
L 54.78125 0 
L 34.28125 31 
L 13.625 0 
L 2.984375 0 
L 29 38.921875 
z
" id="DejaVuSans-88"/>
      </defs>
      <use xlink:href="#DejaVuSans-72"/>
      <use x="75.195312" xlink:href="#DejaVuSans-77"/>
      <use x="161.474609" xlink:href="#DejaVuSans-79"/>
      <use x="233.810547" xlink:href="#DejaVuSans-88"/>
      <use x="302.316406" xlink:href="#DejaVuSans-49"/>
     </g>
    </g>
   </g>
   <g id="text_13">
    <g clip-path="url(#p8e4b06acd7)">
     <!-- TXN -->
     <g transform="translate(354.850796 116.773522)scale(0.12 -0.12)">
      <defs>
       <path d="M -0.296875 72.90625 
L 61.375 72.90625 
L 61.375 64.59375 
L 35.5 64.59375 
L 35.5 0 
L 25.59375 0 
L 25.59375 64.59375 
L -0.296875 64.59375 
z
" id="DejaVuSans-84"/>
      </defs>
      <use xlink:href="#DejaVuSans-84"/>
      <use x="61.083984" xlink:href="#DejaVuSans-88"/>
      <use x="129.589844" xlink:href="#DejaVuSans-78"/>
     </g>
    </g>
   </g>
   <g id="text_14">
    <g clip-path="url(#p8e4b06acd7)">
     <!-- SQSTM1 -->
     <g transform="translate(431.591768 110.918523)scale(0.12 -0.12)">
      <defs>
       <path d="M 53.515625 70.515625 
L 53.515625 60.890625 
Q 47.90625 63.578125 42.921875 64.890625 
Q 37.9375 66.21875 33.296875 66.21875 
Q 25.25 66.21875 20.875 63.09375 
Q 16.5 59.96875 16.5 54.203125 
Q 16.5 49.359375 19.40625 46.890625 
Q 22.3125 44.4375 30.421875 42.921875 
L 36.375 41.703125 
Q 47.40625 39.59375 52.65625 34.296875 
Q 57.90625 29 57.90625 20.125 
Q 57.90625 9.515625 50.796875 4.046875 
Q 43.703125 -1.421875 29.984375 -1.421875 
Q 24.8125 -1.421875 18.96875 -0.25 
Q 13.140625 0.921875 6.890625 3.21875 
L 6.890625 13.375 
Q 12.890625 10.015625 18.65625 8.296875 
Q 24.421875 6.59375 29.984375 6.59375 
Q 38.421875 6.59375 43.015625 9.90625 
Q 47.609375 13.234375 47.609375 19.390625 
Q 47.609375 24.75 44.3125 27.78125 
Q 41.015625 30.8125 33.5 32.328125 
L 27.484375 33.5 
Q 16.453125 35.6875 11.515625 40.375 
Q 6.59375 45.0625 6.59375 53.421875 
Q 6.59375 63.09375 13.40625 68.65625 
Q 20.21875 74.21875 32.171875 74.21875 
Q 37.3125 74.21875 42.625 73.28125 
Q 47.953125 72.359375 53.515625 70.515625 
z
" id="DejaVuSans-83"/>
      </defs>
      <use xlink:href="#DejaVuSans-83"/>
      <use x="63.476562" xlink:href="#DejaVuSans-81"/>
      <use x="142.1875" xlink:href="#DejaVuSans-83"/>
      <use x="205.664062" xlink:href="#DejaVuSans-84"/>
      <use x="266.748047" xlink:href="#DejaVuSans-77"/>
      <use x="353.027344" xlink:href="#DejaVuSans-49"/>
     </g>
    </g>
   </g>
   <g id="text_15">
    <g clip-path="url(#p8e4b06acd7)">
     <!-- TNF -->
     <g transform="translate(164.791212 319.685823)scale(0.12 -0.12)">
      <use xlink:href="#DejaVuSans-84"/>
      <use x="61.083984" xlink:href="#DejaVuSans-78"/>
      <use x="135.888672" xlink:href="#DejaVuSans-70"/>
     </g>
    </g>
   </g>
   <g id="text_16">
    <g clip-path="url(#p8e4b06acd7)">
     <!-- IFNG -->
     <g transform="translate(208.090661 393.378047)scale(0.12 -0.12)">
      <defs>
       <path d="M 59.515625 10.40625 
L 59.515625 29.984375 
L 43.40625 29.984375 
L 43.40625 38.09375 
L 69.28125 38.09375 
L 69.28125 6.78125 
Q 63.578125 2.734375 56.6875 0.65625 
Q 49.8125 -1.421875 42 -1.421875 
Q 24.90625 -1.421875 15.25 8.5625 
Q 5.609375 18.5625 5.609375 36.375 
Q 5.609375 54.25 15.25 64.234375 
Q 24.90625 74.21875 42 74.21875 
Q 49.125 74.21875 55.546875 72.453125 
Q 61.96875 70.703125 67.390625 67.28125 
L 67.390625 56.78125 
Q 61.921875 61.421875 55.765625 63.765625 
Q 49.609375 66.109375 42.828125 66.109375 
Q 29.4375 66.109375 22.71875 58.640625 
Q 16.015625 51.171875 16.015625 36.375 
Q 16.015625 21.625 22.71875 14.15625 
Q 29.4375 6.6875 42.828125 6.6875 
Q 48.046875 6.6875 52.140625 7.59375 
Q 56.25 8.5 59.515625 10.40625 
z
" id="DejaVuSans-71"/>
      </defs>
      <use xlink:href="#DejaVuSans-73"/>
      <use x="29.492188" xlink:href="#DejaVuSans-70"/>
      <use x="87.011719" xlink:href="#DejaVuSans-78"/>
      <use x="161.816406" xlink:href="#DejaVuSans-71"/>
     </g>
    </g>
   </g>
   <g id="text_17">
    <g clip-path="url(#p8e4b06acd7)">
     <!-- RHOA -->
     <g transform="translate(167.509278 360.920969)scale(0.12 -0.12)">
      <use xlink:href="#DejaVuSans-82"/>
      <use x="69.482422" xlink:href="#DejaVuSans-72"/>
      <use x="144.677734" xlink:href="#DejaVuSans-79"/>
      <use x="221.638672" xlink:href="#DejaVuSans-65"/>
     </g>
    </g>
   </g>
   <g id="text_18">
    <g clip-path="url(#p8e4b06acd7)">
     <!-- TP53 -->
     <g transform="translate(593.151146 417.492438)scale(0.12 -0.12)">
      <defs>
       <path d="M 40.578125 39.3125 
Q 47.65625 37.796875 51.625 33 
Q 55.609375 28.21875 55.609375 21.1875 
Q 55.609375 10.40625 48.1875 4.484375 
Q 40.765625 -1.421875 27.09375 -1.421875 
Q 22.515625 -1.421875 17.65625 -0.515625 
Q 12.796875 0.390625 7.625 2.203125 
L 7.625 11.71875 
Q 11.71875 9.328125 16.59375 8.109375 
Q 21.484375 6.890625 26.8125 6.890625 
Q 36.078125 6.890625 40.9375 10.546875 
Q 45.796875 14.203125 45.796875 21.1875 
Q 45.796875 27.640625 41.28125 31.265625 
Q 36.765625 34.90625 28.71875 34.90625 
L 20.21875 34.90625 
L 20.21875 43.015625 
L 29.109375 43.015625 
Q 36.375 43.015625 40.234375 45.921875 
Q 44.09375 48.828125 44.09375 54.296875 
Q 44.09375 59.90625 40.109375 62.90625 
Q 36.140625 65.921875 28.71875 65.921875 
Q 24.65625 65.921875 20.015625 65.03125 
Q 15.375 64.15625 9.8125 62.3125 
L 9.8125 71.09375 
Q 15.4375 72.65625 20.34375 73.4375 
Q 25.25 74.21875 29.59375 74.21875 
Q 40.828125 74.21875 47.359375 69.109375 
Q 53.90625 64.015625 53.90625 55.328125 
Q 53.90625 49.265625 50.4375 45.09375 
Q 46.96875 40.921875 40.578125 39.3125 
z
" id="DejaVuSans-51"/>
      </defs>
      <use xlink:href="#DejaVuSans-84"/>
      <use x="61.083984" xlink:href="#DejaVuSans-80"/>
      <use x="121.386719" xlink:href="#DejaVuSans-53"/>
      <use x="185.009766" xlink:href="#DejaVuSans-51"/>
     </g>
    </g>
   </g>
   <g id="text_19">
    <g clip-path="url(#p8e4b06acd7)">
     <!-- PIAS4 -->
     <g transform="translate(623.621348 427.448013)scale(0.12 -0.12)">
      <defs>
       <path d="M 37.796875 64.3125 
L 12.890625 25.390625 
L 37.796875 25.390625 
z
M 35.203125 72.90625 
L 47.609375 72.90625 
L 47.609375 25.390625 
L 58.015625 25.390625 
L 58.015625 17.1875 
L 47.609375 17.1875 
L 47.609375 0 
L 37.796875 0 
L 37.796875 17.1875 
L 4.890625 17.1875 
L 4.890625 26.703125 
z
" id="DejaVuSans-52"/>
      </defs>
      <use xlink:href="#DejaVuSans-80"/>
      <use x="60.302734" xlink:href="#DejaVuSans-73"/>
      <use x="89.794922" xlink:href="#DejaVuSans-65"/>
      <use x="158.203125" xlink:href="#DejaVuSans-83"/>
      <use x="221.679688" xlink:href="#DejaVuSans-52"/>
     </g>
    </g>
   </g>
   <g id="text_20">
    <g clip-path="url(#p8e4b06acd7)">
     <!-- BCL2 -->
     <g transform="translate(678.42184 376.937753)scale(0.12 -0.12)">
      <use xlink:href="#DejaVuSans-66"/>
      <use x="66.853516" xlink:href="#DejaVuSans-67"/>
      <use x="136.677734" xlink:href="#DejaVuSans-76"/>
      <use x="192.390625" xlink:href="#DejaVuSans-50"/>
     </g>
    </g>
   </g>
   <g id="text_21">
    <g clip-path="url(#p8e4b06acd7)">
     <!-- MAP3K5 -->
     <g transform="translate(461.081741 340.791928)scale(0.12 -0.12)">
      <use xlink:href="#DejaVuSans-77"/>
      <use x="86.279297" xlink:href="#DejaVuSans-65"/>
      <use x="154.6875" xlink:href="#DejaVuSans-80"/>
      <use x="214.990234" xlink:href="#DejaVuSans-51"/>
      <use x="278.613281" xlink:href="#DejaVuSans-75"/>
      <use x="344.189453" xlink:href="#DejaVuSans-53"/>
     </g>
    </g>
   </g>
   <g id="text_22">
    <g clip-path="url(#p8e4b06acd7)">
     <!-- TNFRSF1A -->
     <g transform="translate(503.45626 308.676483)scale(0.12 -0.12)">
      <use xlink:href="#DejaVuSans-84"/>
      <use x="61.083984" xlink:href="#DejaVuSans-78"/>
      <use x="135.888672" xlink:href="#DejaVuSans-70"/>
      <use x="193.408203" xlink:href="#DejaVuSans-82"/>
      <use x="262.890625" xlink:href="#DejaVuSans-83"/>
      <use x="326.367188" xlink:href="#DejaVuSans-70"/>
      <use x="383.886719" xlink:href="#DejaVuSans-49"/>
      <use x="447.509766" xlink:href="#DejaVuSans-65"/>
     </g>
    </g>
   </g>
   <g id="text_23">
    <g clip-path="url(#p8e4b06acd7)">
     <!-- MAP3K7 -->
     <g transform="translate(392.646658 284.926175)scale(0.12 -0.12)">
      <use xlink:href="#DejaVuSans-77"/>
      <use x="86.279297" xlink:href="#DejaVuSans-65"/>
      <use x="154.6875" xlink:href="#DejaVuSans-80"/>
      <use x="214.990234" xlink:href="#DejaVuSans-51"/>
      <use x="278.613281" xlink:href="#DejaVuSans-75"/>
      <use x="344.189453" xlink:href="#DejaVuSans-55"/>
     </g>
    </g>
   </g>
   <g id="text_24">
    <g clip-path="url(#p8e4b06acd7)">
     <!-- DUSP1 -->
     <g transform="translate(664.388249 206.272422)scale(0.12 -0.12)">
      <defs>
       <path d="M 19.671875 64.796875 
L 19.671875 8.109375 
L 31.59375 8.109375 
Q 46.6875 8.109375 53.6875 14.9375 
Q 60.6875 21.78125 60.6875 36.53125 
Q 60.6875 51.171875 53.6875 57.984375 
Q 46.6875 64.796875 31.59375 64.796875 
z
M 9.8125 72.90625 
L 30.078125 72.90625 
Q 51.265625 72.90625 61.171875 64.09375 
Q 71.09375 55.28125 71.09375 36.53125 
Q 71.09375 17.671875 61.125 8.828125 
Q 51.171875 0 30.078125 0 
L 9.8125 0 
z
" id="DejaVuSans-68"/>
       <path d="M 8.6875 72.90625 
L 18.609375 72.90625 
L 18.609375 28.609375 
Q 18.609375 16.890625 22.84375 11.734375 
Q 27.09375 6.59375 36.625 6.59375 
Q 46.09375 6.59375 50.34375 11.734375 
Q 54.59375 16.890625 54.59375 28.609375 
L 54.59375 72.90625 
L 64.5 72.90625 
L 64.5 27.390625 
Q 64.5 13.140625 57.4375 5.859375 
Q 50.390625 -1.421875 36.625 -1.421875 
Q 22.796875 -1.421875 15.734375 5.859375 
Q 8.6875 13.140625 8.6875 27.390625 
z
" id="DejaVuSans-85"/>
      </defs>
      <use xlink:href="#DejaVuSans-68"/>
      <use x="77.001953" xlink:href="#DejaVuSans-85"/>
      <use x="150.195312" xlink:href="#DejaVuSans-83"/>
      <use x="213.671875" xlink:href="#DejaVuSans-80"/>
      <use x="273.974609" xlink:href="#DejaVuSans-49"/>
     </g>
    </g>
   </g>
   <g id="text_25">
    <g clip-path="url(#p8e4b06acd7)">
     <!-- ARHGEF2 -->
     <g transform="translate(160.907925 292.257225)scale(0.12 -0.12)">
      <use xlink:href="#DejaVuSans-65"/>
      <use x="68.408203" xlink:href="#DejaVuSans-82"/>
      <use x="137.890625" xlink:href="#DejaVuSans-72"/>
      <use x="213.085938" xlink:href="#DejaVuSans-71"/>
      <use x="290.576172" xlink:href="#DejaVuSans-69"/>
      <use x="353.759766" xlink:href="#DejaVuSans-70"/>
      <use x="411.279297" xlink:href="#DejaVuSans-50"/>
     </g>
    </g>
   </g>
   <g id="text_26">
    <g clip-path="url(#p8e4b06acd7)">
     <!-- FOS -->
     <g transform="translate(235.752033 342.329515)scale(0.12 -0.12)">
      <use xlink:href="#DejaVuSans-70"/>
      <use x="57.519531" xlink:href="#DejaVuSans-79"/>
      <use x="136.230469" xlink:href="#DejaVuSans-83"/>
     </g>
    </g>
   </g>
   <g id="text_27">
    <g clip-path="url(#p8e4b06acd7)">
     <!-- JUN -->
     <g transform="translate(275.370674 334.802222)scale(0.12 -0.12)">
      <defs>
       <path d="M 9.8125 72.90625 
L 19.671875 72.90625 
L 19.671875 5.078125 
Q 19.671875 -8.109375 14.671875 -14.0625 
Q 9.671875 -20.015625 -1.421875 -20.015625 
L -5.171875 -20.015625 
L -5.171875 -11.71875 
L -2.09375 -11.71875 
Q 4.4375 -11.71875 7.125 -8.046875 
Q 9.8125 -4.390625 9.8125 5.078125 
z
" id="DejaVuSans-74"/>
      </defs>
      <use xlink:href="#DejaVuSans-74"/>
      <use x="29.492188" xlink:href="#DejaVuSans-85"/>
      <use x="102.685547" xlink:href="#DejaVuSans-78"/>
     </g>
    </g>
   </g>
   <g id="text_28">
    <g clip-path="url(#p8e4b06acd7)">
     <!-- MEF2A -->
     <g transform="translate(300.222045 289.054043)scale(0.12 -0.12)">
      <use xlink:href="#DejaVuSans-77"/>
      <use x="86.279297" xlink:href="#DejaVuSans-69"/>
      <use x="149.462891" xlink:href="#DejaVuSans-70"/>
      <use x="206.982422" xlink:href="#DejaVuSans-50"/>
      <use x="270.605469" xlink:href="#DejaVuSans-65"/>
     </g>
    </g>
   </g>
   <g id="text_29">
    <g clip-path="url(#p8e4b06acd7)">
     <!-- MEF2C -->
     <g transform="translate(255.705722 159.082614)scale(0.12 -0.12)">
      <use xlink:href="#DejaVuSans-77"/>
      <use x="86.279297" xlink:href="#DejaVuSans-69"/>
      <use x="149.462891" xlink:href="#DejaVuSans-70"/>
      <use x="206.982422" xlink:href="#DejaVuSans-50"/>
      <use x="270.605469" xlink:href="#DejaVuSans-67"/>
     </g>
    </g>
   </g>
   <g id="text_30">
    <g clip-path="url(#p8e4b06acd7)">
     <!-- MAP2K4 -->
     <g transform="translate(565.224386 138.091423)scale(0.12 -0.12)">
      <use xlink:href="#DejaVuSans-77"/>
      <use x="86.279297" xlink:href="#DejaVuSans-65"/>
      <use x="154.6875" xlink:href="#DejaVuSans-80"/>
      <use x="214.990234" xlink:href="#DejaVuSans-50"/>
      <use x="278.613281" xlink:href="#DejaVuSans-75"/>
      <use x="344.189453" xlink:href="#DejaVuSans-52"/>
     </g>
    </g>
   </g>
   <g id="text_31">
    <g clip-path="url(#p8e4b06acd7)">
     <!-- MAP2K7 -->
     <g transform="translate(470.906061 474.03301)scale(0.12 -0.12)">
      <use xlink:href="#DejaVuSans-77"/>
      <use x="86.279297" xlink:href="#DejaVuSans-65"/>
      <use x="154.6875" xlink:href="#DejaVuSans-80"/>
      <use x="214.990234" xlink:href="#DejaVuSans-50"/>
      <use x="278.613281" xlink:href="#DejaVuSans-75"/>
      <use x="344.189453" xlink:href="#DejaVuSans-55"/>
     </g>
    </g>
   </g>
   <g id="text_32">
    <g clip-path="url(#p8e4b06acd7)">
     <!-- MAP2K6 -->
     <g transform="translate(262.388179 455.414289)scale(0.12 -0.12)">
      <defs>
       <path d="M 33.015625 40.375 
Q 26.375 40.375 22.484375 35.828125 
Q 18.609375 31.296875 18.609375 23.390625 
Q 18.609375 15.53125 22.484375 10.953125 
Q 26.375 6.390625 33.015625 6.390625 
Q 39.65625 6.390625 43.53125 10.953125 
Q 47.40625 15.53125 47.40625 23.390625 
Q 47.40625 31.296875 43.53125 35.828125 
Q 39.65625 40.375 33.015625 40.375 
z
M 52.59375 71.296875 
L 52.59375 62.3125 
Q 48.875 64.0625 45.09375 64.984375 
Q 41.3125 65.921875 37.59375 65.921875 
Q 27.828125 65.921875 22.671875 59.328125 
Q 17.53125 52.734375 16.796875 39.40625 
Q 19.671875 43.65625 24.015625 45.921875 
Q 28.375 48.1875 33.59375 48.1875 
Q 44.578125 48.1875 50.953125 41.515625 
Q 57.328125 34.859375 57.328125 23.390625 
Q 57.328125 12.15625 50.6875 5.359375 
Q 44.046875 -1.421875 33.015625 -1.421875 
Q 20.359375 -1.421875 13.671875 8.265625 
Q 6.984375 17.96875 6.984375 36.375 
Q 6.984375 53.65625 15.1875 63.9375 
Q 23.390625 74.21875 37.203125 74.21875 
Q 40.921875 74.21875 44.703125 73.484375 
Q 48.484375 72.75 52.59375 71.296875 
z
" id="DejaVuSans-54"/>
      </defs>
      <use xlink:href="#DejaVuSans-77"/>
      <use x="86.279297" xlink:href="#DejaVuSans-65"/>
      <use x="154.6875" xlink:href="#DejaVuSans-80"/>
      <use x="214.990234" xlink:href="#DejaVuSans-50"/>
      <use x="278.613281" xlink:href="#DejaVuSans-75"/>
      <use x="344.189453" xlink:href="#DejaVuSans-54"/>
     </g>
    </g>
   </g>
   <g id="text_33">
    <g clip-path="url(#p8e4b06acd7)">
     <!-- RAC1 -->
     <g transform="translate(624.686231 168.99888)scale(0.12 -0.12)">
      <use xlink:href="#DejaVuSans-82"/>
      <use x="65.482422" xlink:href="#DejaVuSans-65"/>
      <use x="132.140625" xlink:href="#DejaVuSans-67"/>
      <use x="201.964844" xlink:href="#DejaVuSans-49"/>
     </g>
    </g>
   </g>
   <g id="text_34">
    <g clip-path="url(#p8e4b06acd7)">
     <!-- RAC2 -->
     <g transform="translate(260.650804 416.839197)scale(0.12 -0.12)">
      <use xlink:href="#DejaVuSans-82"/>
      <use x="65.482422" xlink:href="#DejaVuSans-65"/>
      <use x="132.140625" xlink:href="#DejaVuSans-67"/>
      <use x="201.964844" xlink:href="#DejaVuSans-50"/>
     </g>
    </g>
   </g>
   <g id="text_35">
    <g clip-path="url(#p8e4b06acd7)">
     <!-- BMPR2 -->
     <g transform="translate(437.663885 315.081707)scale(0.12 -0.12)">
      <use xlink:href="#DejaVuSans-66"/>
      <use x="68.603516" xlink:href="#DejaVuSans-77"/>
      <use x="154.882812" xlink:href="#DejaVuSans-80"/>
      <use x="215.185547" xlink:href="#DejaVuSans-82"/>
      <use x="284.667969" xlink:href="#DejaVuSans-50"/>
     </g>
    </g>
   </g>
   <g id="text_36">
    <g clip-path="url(#p8e4b06acd7)">
     <!-- ACVR2A -->
     <g transform="translate(436.950833 325.455673)scale(0.12 -0.12)">
      <defs>
       <path d="M 28.609375 0 
L 0.78125 72.90625 
L 11.078125 72.90625 
L 34.1875 11.53125 
L 57.328125 72.90625 
L 67.578125 72.90625 
L 39.796875 0 
z
" id="DejaVuSans-86"/>
      </defs>
      <use xlink:href="#DejaVuSans-65"/>
      <use x="66.658203" xlink:href="#DejaVuSans-67"/>
      <use x="136.482422" xlink:href="#DejaVuSans-86"/>
      <use x="204.890625" xlink:href="#DejaVuSans-82"/>
      <use x="274.373047" xlink:href="#DejaVuSans-50"/>
      <use x="337.996094" xlink:href="#DejaVuSans-65"/>
     </g>
    </g>
   </g>
   <g id="text_37">
    <g clip-path="url(#p8e4b06acd7)">
     <!-- ACVR1 -->
     <g transform="translate(424.287613 313.502853)scale(0.12 -0.12)">
      <use xlink:href="#DejaVuSans-65"/>
      <use x="66.658203" xlink:href="#DejaVuSans-67"/>
      <use x="136.482422" xlink:href="#DejaVuSans-86"/>
      <use x="204.890625" xlink:href="#DejaVuSans-82"/>
      <use x="274.373047" xlink:href="#DejaVuSans-49"/>
     </g>
    </g>
   </g>
   <g id="text_38">
    <g clip-path="url(#p8e4b06acd7)">
     <!-- BMPR1A -->
     <g transform="translate(422.131999 322.795163)scale(0.12 -0.12)">
      <use xlink:href="#DejaVuSans-66"/>
      <use x="68.603516" xlink:href="#DejaVuSans-77"/>
      <use x="154.882812" xlink:href="#DejaVuSans-80"/>
      <use x="215.185547" xlink:href="#DejaVuSans-82"/>
      <use x="284.667969" xlink:href="#DejaVuSans-49"/>
      <use x="348.291016" xlink:href="#DejaVuSans-65"/>
     </g>
    </g>
   </g>
   <g id="text_39">
    <g clip-path="url(#p8e4b06acd7)">
     <!-- PDGFB -->
     <g transform="translate(323.808793 459.35584)scale(0.12 -0.12)">
      <use xlink:href="#DejaVuSans-80"/>
      <use x="60.302734" xlink:href="#DejaVuSans-68"/>
      <use x="137.304688" xlink:href="#DejaVuSans-71"/>
      <use x="214.794922" xlink:href="#DejaVuSans-70"/>
      <use x="272.314453" xlink:href="#DejaVuSans-66"/>
     </g>
    </g>
   </g>
   <g id="text_40">
    <g clip-path="url(#p8e4b06acd7)">
     <!-- ITGAV -->
     <g transform="translate(426.197147 334.706679)scale(0.12 -0.12)">
      <use xlink:href="#DejaVuSans-73"/>
      <use x="29.492188" xlink:href="#DejaVuSans-84"/>
      <use x="90.576172" xlink:href="#DejaVuSans-71"/>
      <use x="168.066406" xlink:href="#DejaVuSans-65"/>
      <use x="230.099609" xlink:href="#DejaVuSans-86"/>
     </g>
    </g>
   </g>
   <g id="text_41">
    <g clip-path="url(#p8e4b06acd7)">
     <!-- IKBKG -->
     <g transform="translate(250.28609 287.764934)scale(0.12 -0.12)">
      <use xlink:href="#DejaVuSans-73"/>
      <use x="29.492188" xlink:href="#DejaVuSans-75"/>
      <use x="95.068359" xlink:href="#DejaVuSans-66"/>
      <use x="163.671875" xlink:href="#DejaVuSans-75"/>
      <use x="229.248047" xlink:href="#DejaVuSans-71"/>
     </g>
    </g>
   </g>
   <g id="text_42">
    <g clip-path="url(#p8e4b06acd7)">
     <!-- IKBKB -->
     <g transform="translate(365.717869 364.901106)scale(0.12 -0.12)">
      <use xlink:href="#DejaVuSans-73"/>
      <use x="29.492188" xlink:href="#DejaVuSans-75"/>
      <use x="95.068359" xlink:href="#DejaVuSans-66"/>
      <use x="163.671875" xlink:href="#DejaVuSans-75"/>
      <use x="229.248047" xlink:href="#DejaVuSans-66"/>
     </g>
    </g>
   </g>
   <g id="text_43">
    <g clip-path="url(#p8e4b06acd7)">
     <!-- NFKB1 -->
     <g transform="translate(280.969709 342.626545)scale(0.12 -0.12)">
      <use xlink:href="#DejaVuSans-78"/>
      <use x="74.804688" xlink:href="#DejaVuSans-70"/>
      <use x="132.324219" xlink:href="#DejaVuSans-75"/>
      <use x="197.900391" xlink:href="#DejaVuSans-66"/>
      <use x="266.503906" xlink:href="#DejaVuSans-49"/>
     </g>
    </g>
   </g>
   <g id="text_44">
    <g clip-path="url(#p8e4b06acd7)">
     <!-- RELA -->
     <g transform="translate(297.949517 318.580852)scale(0.12 -0.12)">
      <use xlink:href="#DejaVuSans-82"/>
      <use x="69.482422" xlink:href="#DejaVuSans-69"/>
      <use x="132.666016" xlink:href="#DejaVuSans-76"/>
      <use x="190.628906" xlink:href="#DejaVuSans-65"/>
     </g>
    </g>
   </g>
   <g id="text_45">
    <!-- Frame: 11 -->
    <g transform="translate(121.392 91.296)scale(0.1 -0.1)">
     <defs>
      <path d="M 41.109375 46.296875 
Q 39.59375 47.171875 37.8125 47.578125 
Q 36.03125 48 33.890625 48 
Q 26.265625 48 22.1875 43.046875 
Q 18.109375 38.09375 18.109375 28.8125 
L 18.109375 0 
L 9.078125 0 
L 9.078125 54.6875 
L 18.109375 54.6875 
L 18.109375 46.1875 
Q 20.953125 51.171875 25.484375 53.578125 
Q 30.03125 56 36.53125 56 
Q 37.453125 56 38.578125 55.875 
Q 39.703125 55.765625 41.0625 55.515625 
z
" id="DejaVuSans-114"/>
      <path d="M 34.28125 27.484375 
Q 23.390625 27.484375 19.1875 25 
Q 14.984375 22.515625 14.984375 16.5 
Q 14.984375 11.71875 18.140625 8.90625 
Q 21.296875 6.109375 26.703125 6.109375 
Q 34.1875 6.109375 38.703125 11.40625 
Q 43.21875 16.703125 43.21875 25.484375 
L 43.21875 27.484375 
z
M 52.203125 31.203125 
L 52.203125 0 
L 43.21875 0 
L 43.21875 8.296875 
Q 40.140625 3.328125 35.546875 0.953125 
Q 30.953125 -1.421875 24.3125 -1.421875 
Q 15.921875 -1.421875 10.953125 3.296875 
Q 6 8.015625 6 15.921875 
Q 6 25.140625 12.171875 29.828125 
Q 18.359375 34.515625 30.609375 34.515625 
L 43.21875 34.515625 
L 43.21875 35.40625 
Q 43.21875 41.609375 39.140625 45 
Q 35.0625 48.390625 27.6875 48.390625 
Q 23 48.390625 18.546875 47.265625 
Q 14.109375 46.140625 10.015625 43.890625 
L 10.015625 52.203125 
Q 14.9375 54.109375 19.578125 55.046875 
Q 24.21875 56 28.609375 56 
Q 40.484375 56 46.34375 49.84375 
Q 52.203125 43.703125 52.203125 31.203125 
z
" id="DejaVuSans-97"/>
      <path d="M 52 44.1875 
Q 55.375 50.25 60.0625 53.125 
Q 64.75 56 71.09375 56 
Q 79.640625 56 84.28125 50.015625 
Q 88.921875 44.046875 88.921875 33.015625 
L 88.921875 0 
L 79.890625 0 
L 79.890625 32.71875 
Q 79.890625 40.578125 77.09375 44.375 
Q 74.3125 48.1875 68.609375 48.1875 
Q 61.625 48.1875 57.5625 43.546875 
Q 53.515625 38.921875 53.515625 30.90625 
L 53.515625 0 
L 44.484375 0 
L 44.484375 32.71875 
Q 44.484375 40.625 41.703125 44.40625 
Q 38.921875 48.1875 33.109375 48.1875 
Q 26.21875 48.1875 22.15625 43.53125 
Q 18.109375 38.875 18.109375 30.90625 
L 18.109375 0 
L 9.078125 0 
L 9.078125 54.6875 
L 18.109375 54.6875 
L 18.109375 46.1875 
Q 21.1875 51.21875 25.484375 53.609375 
Q 29.78125 56 35.6875 56 
Q 41.65625 56 45.828125 52.96875 
Q 50 49.953125 52 44.1875 
z
" id="DejaVuSans-109"/>
      <path d="M 56.203125 29.59375 
L 56.203125 25.203125 
L 14.890625 25.203125 
Q 15.484375 15.921875 20.484375 11.0625 
Q 25.484375 6.203125 34.421875 6.203125 
Q 39.59375 6.203125 44.453125 7.46875 
Q 49.3125 8.734375 54.109375 11.28125 
L 54.109375 2.78125 
Q 49.265625 0.734375 44.1875 -0.34375 
Q 39.109375 -1.421875 33.890625 -1.421875 
Q 20.796875 -1.421875 13.15625 6.1875 
Q 5.515625 13.8125 5.515625 26.8125 
Q 5.515625 40.234375 12.765625 48.109375 
Q 20.015625 56 32.328125 56 
Q 43.359375 56 49.78125 48.890625 
Q 56.203125 41.796875 56.203125 29.59375 
z
M 47.21875 32.234375 
Q 47.125 39.59375 43.09375 43.984375 
Q 39.0625 48.390625 32.421875 48.390625 
Q 24.90625 48.390625 20.390625 44.140625 
Q 15.875 39.890625 15.1875 32.171875 
z
" id="DejaVuSans-101"/>
      <path d="M 11.71875 12.40625 
L 22.015625 12.40625 
L 22.015625 0 
L 11.71875 0 
z
M 11.71875 51.703125 
L 22.015625 51.703125 
L 22.015625 39.3125 
L 11.71875 39.3125 
z
" id="DejaVuSans-58"/>
      <path id="DejaVuSans-32"/>
     </defs>
     <use xlink:href="#DejaVuSans-70"/>
     <use x="50.269531" xlink:href="#DejaVuSans-114"/>
     <use x="91.382812" xlink:href="#DejaVuSans-97"/>
     <use x="152.662109" xlink:href="#DejaVuSans-109"/>
     <use x="250.074219" xlink:href="#DejaVuSans-101"/>
     <use x="311.597656" xlink:href="#DejaVuSans-58"/>
     <use x="345.289062" xlink:href="#DejaVuSans-32"/>
     <use x="377.076172" xlink:href="#DejaVuSans-49"/>
     <use x="440.699219" xlink:href="#DejaVuSans-49"/>
    </g>
   </g>
   <g id="text_46">
    <!-- Network: hsa05418 -->
    <g transform="translate(384.1275 63.12)scale(0.12 -0.12)">
     <defs>
      <path d="M 18.3125 70.21875 
L 18.3125 54.6875 
L 36.8125 54.6875 
L 36.8125 47.703125 
L 18.3125 47.703125 
L 18.3125 18.015625 
Q 18.3125 11.328125 20.140625 9.421875 
Q 21.96875 7.515625 27.59375 7.515625 
L 36.8125 7.515625 
L 36.8125 0 
L 27.59375 0 
Q 17.1875 0 13.234375 3.875 
Q 9.28125 7.765625 9.28125 18.015625 
L 9.28125 47.703125 
L 2.6875 47.703125 
L 2.6875 54.6875 
L 9.28125 54.6875 
L 9.28125 70.21875 
z
" id="DejaVuSans-116"/>
      <path d="M 4.203125 54.6875 
L 13.1875 54.6875 
L 24.421875 12.015625 
L 35.59375 54.6875 
L 46.1875 54.6875 
L 57.421875 12.015625 
L 68.609375 54.6875 
L 77.59375 54.6875 
L 63.28125 0 
L 52.6875 0 
L 40.921875 44.828125 
L 29.109375 0 
L 18.5 0 
z
" id="DejaVuSans-119"/>
      <path d="M 30.609375 48.390625 
Q 23.390625 48.390625 19.1875 42.75 
Q 14.984375 37.109375 14.984375 27.296875 
Q 14.984375 17.484375 19.15625 11.84375 
Q 23.34375 6.203125 30.609375 6.203125 
Q 37.796875 6.203125 41.984375 11.859375 
Q 46.1875 17.53125 46.1875 27.296875 
Q 46.1875 37.015625 41.984375 42.703125 
Q 37.796875 48.390625 30.609375 48.390625 
z
M 30.609375 56 
Q 42.328125 56 49.015625 48.375 
Q 55.71875 40.765625 55.71875 27.296875 
Q 55.71875 13.875 49.015625 6.21875 
Q 42.328125 -1.421875 30.609375 -1.421875 
Q 18.84375 -1.421875 12.171875 6.21875 
Q 5.515625 13.875 5.515625 27.296875 
Q 5.515625 40.765625 12.171875 48.375 
Q 18.84375 56 30.609375 56 
z
" id="DejaVuSans-111"/>
      <path d="M 9.078125 75.984375 
L 18.109375 75.984375 
L 18.109375 31.109375 
L 44.921875 54.6875 
L 56.390625 54.6875 
L 27.390625 29.109375 
L 57.625 0 
L 45.90625 0 
L 18.109375 26.703125 
L 18.109375 0 
L 9.078125 0 
z
" id="DejaVuSans-107"/>
      <path d="M 54.890625 33.015625 
L 54.890625 0 
L 45.90625 0 
L 45.90625 32.71875 
Q 45.90625 40.484375 42.875 44.328125 
Q 39.84375 48.1875 33.796875 48.1875 
Q 26.515625 48.1875 22.3125 43.546875 
Q 18.109375 38.921875 18.109375 30.90625 
L 18.109375 0 
L 9.078125 0 
L 9.078125 75.984375 
L 18.109375 75.984375 
L 18.109375 46.1875 
Q 21.34375 51.125 25.703125 53.5625 
Q 30.078125 56 35.796875 56 
Q 45.21875 56 50.046875 50.171875 
Q 54.890625 44.34375 54.890625 33.015625 
z
" id="DejaVuSans-104"/>
      <path d="M 44.28125 53.078125 
L 44.28125 44.578125 
Q 40.484375 46.53125 36.375 47.5 
Q 32.28125 48.484375 27.875 48.484375 
Q 21.1875 48.484375 17.84375 46.4375 
Q 14.5 44.390625 14.5 40.28125 
Q 14.5 37.15625 16.890625 35.375 
Q 19.28125 33.59375 26.515625 31.984375 
L 29.59375 31.296875 
Q 39.15625 29.25 43.1875 25.515625 
Q 47.21875 21.78125 47.21875 15.09375 
Q 47.21875 7.46875 41.1875 3.015625 
Q 35.15625 -1.421875 24.609375 -1.421875 
Q 20.21875 -1.421875 15.453125 -0.5625 
Q 10.6875 0.296875 5.421875 2 
L 5.421875 11.28125 
Q 10.40625 8.6875 15.234375 7.390625 
Q 20.0625 6.109375 24.8125 6.109375 
Q 31.15625 6.109375 34.5625 8.28125 
Q 37.984375 10.453125 37.984375 14.40625 
Q 37.984375 18.0625 35.515625 20.015625 
Q 33.0625 21.96875 24.703125 23.78125 
L 21.578125 24.515625 
Q 13.234375 26.265625 9.515625 29.90625 
Q 5.8125 33.546875 5.8125 39.890625 
Q 5.8125 47.609375 11.28125 51.796875 
Q 16.75 56 26.8125 56 
Q 31.78125 56 36.171875 55.265625 
Q 40.578125 54.546875 44.28125 53.078125 
z
" id="DejaVuSans-115"/>
      <path d="M 31.78125 66.40625 
Q 24.171875 66.40625 20.328125 58.90625 
Q 16.5 51.421875 16.5 36.375 
Q 16.5 21.390625 20.328125 13.890625 
Q 24.171875 6.390625 31.78125 6.390625 
Q 39.453125 6.390625 43.28125 13.890625 
Q 47.125 21.390625 47.125 36.375 
Q 47.125 51.421875 43.28125 58.90625 
Q 39.453125 66.40625 31.78125 66.40625 
z
M 31.78125 74.21875 
Q 44.046875 74.21875 50.515625 64.515625 
Q 56.984375 54.828125 56.984375 36.375 
Q 56.984375 17.96875 50.515625 8.265625 
Q 44.046875 -1.421875 31.78125 -1.421875 
Q 19.53125 -1.421875 13.0625 8.265625 
Q 6.59375 17.96875 6.59375 36.375 
Q 6.59375 54.828125 13.0625 64.515625 
Q 19.53125 74.21875 31.78125 74.21875 
z
" id="DejaVuSans-48"/>
      <path d="M 31.78125 34.625 
Q 24.75 34.625 20.71875 30.859375 
Q 16.703125 27.09375 16.703125 20.515625 
Q 16.703125 13.921875 20.71875 10.15625 
Q 24.75 6.390625 31.78125 6.390625 
Q 38.8125 6.390625 42.859375 10.171875 
Q 46.921875 13.96875 46.921875 20.515625 
Q 46.921875 27.09375 42.890625 30.859375 
Q 38.875 34.625 31.78125 34.625 
z
M 21.921875 38.8125 
Q 15.578125 40.375 12.03125 44.71875 
Q 8.5 49.078125 8.5 55.328125 
Q 8.5 64.0625 14.71875 69.140625 
Q 20.953125 74.21875 31.78125 74.21875 
Q 42.671875 74.21875 48.875 69.140625 
Q 55.078125 64.0625 55.078125 55.328125 
Q 55.078125 49.078125 51.53125 44.71875 
Q 48 40.375 41.703125 38.8125 
Q 48.828125 37.15625 52.796875 32.3125 
Q 56.78125 27.484375 56.78125 20.515625 
Q 56.78125 9.90625 50.3125 4.234375 
Q 43.84375 -1.421875 31.78125 -1.421875 
Q 19.734375 -1.421875 13.25 4.234375 
Q 6.78125 9.90625 6.78125 20.515625 
Q 6.78125 27.484375 10.78125 32.3125 
Q 14.796875 37.15625 21.921875 38.8125 
z
M 18.3125 54.390625 
Q 18.3125 48.734375 21.84375 45.5625 
Q 25.390625 42.390625 31.78125 42.390625 
Q 38.140625 42.390625 41.71875 45.5625 
Q 45.3125 48.734375 45.3125 54.390625 
Q 45.3125 60.0625 41.71875 63.234375 
Q 38.140625 66.40625 31.78125 66.40625 
Q 25.390625 66.40625 21.84375 63.234375 
Q 18.3125 60.0625 18.3125 54.390625 
z
" id="DejaVuSans-56"/>
     </defs>
     <use xlink:href="#DejaVuSans-78"/>
     <use x="74.804688" xlink:href="#DejaVuSans-101"/>
     <use x="136.328125" xlink:href="#DejaVuSans-116"/>
     <use x="175.537109" xlink:href="#DejaVuSans-119"/>
     <use x="257.324219" xlink:href="#DejaVuSans-111"/>
     <use x="318.505859" xlink:href="#DejaVuSans-114"/>
     <use x="359.619141" xlink:href="#DejaVuSans-107"/>
     <use x="417.529297" xlink:href="#DejaVuSans-58"/>
     <use x="451.220703" xlink:href="#DejaVuSans-32"/>
     <use x="483.007812" xlink:href="#DejaVuSans-104"/>
     <use x="546.386719" xlink:href="#DejaVuSans-115"/>
     <use x="598.486328" xlink:href="#DejaVuSans-97"/>
     <use x="659.765625" xlink:href="#DejaVuSans-48"/>
     <use x="723.388672" xlink:href="#DejaVuSans-53"/>
     <use x="787.011719" xlink:href="#DejaVuSans-52"/>
     <use x="850.634766" xlink:href="#DejaVuSans-49"/>
     <use x="914.257812" xlink:href="#DejaVuSans-56"/>
    </g>
   </g>
  </g>
 </g>
 <defs>
  <clipPath id="p8e4b06acd7">
   <rect height="443.52" width="669.6" x="108" y="69.12"/>
  </clipPath>
 </defs>
</svg>
