<?xml version="1.0" encoding="utf-8" standalone="no"?>
<!DOCTYPE svg PUBLIC "-//W3C//DTD SVG 1.1//EN"
  "http://www.w3.org/Graphics/SVG/1.1/DTD/svg11.dtd">
<!-- Created with matplotlib (https://matplotlib.org/) -->
<svg height="576pt" version="1.1" viewBox="0 0 864 576" width="864pt" xmlns="http://www.w3.org/2000/svg" xmlns:xlink="http://www.w3.org/1999/xlink">
 <metadata>
  <rdf:RDF xmlns:cc="http://creativecommons.org/ns#" xmlns:dc="http://purl.org/dc/elements/1.1/" xmlns:rdf="http://www.w3.org/1999/02/22-rdf-syntax-ns#">
   <cc:Work>
    <dc:type rdf:resource="http://purl.org/dc/dcmitype/StillImage"/>
    <dc:date>2024-04-26T13:35:59.499015</dc:date>
    <dc:format>image/svg+xml</dc:format>
    <dc:creator>
     <cc:Agent>
      <dc:title>Matplotlib v3.3.1, https://matplotlib.org/</dc:title>
     </cc:Agent>
    </dc:creator>
   </cc:Work>
  </rdf:RDF>
 </metadata>
 <defs>
  <style type="text/css">*{stroke-linecap:butt;stroke-linejoin:round;}</style>
 </defs>
 <g id="figure_1">
  <g id="patch_1">
   <path d="M 0 576 
L 864 576 
L 864 0 
L 0 0 
z
" style="fill:#ffffff;"/>
  </g>
  <g id="axes_1">
   <g id="patch_2">
    <path clip-path="url(#p7057fd3ac4)" d="M 300.071787 158.123541 
Q 292.572759 164.168883 285.944151 169.512536 
" style="fill:none;stroke:#000000;stroke-linecap:round;"/>
    <path clip-path="url(#p7057fd3ac4)" d="M 290.313482 168.559151 
L 285.944151 169.512536 
L 287.803041 165.44504 
L 290.313482 168.559151 
z
" style="stroke:#000000;stroke-linecap:round;"/>
   </g>
   <g id="patch_3">
    <path clip-path="url(#p7057fd3ac4)" d="M 312.373532 159.330213 
Q 323.929678 173.135336 334.768177 186.083148 
" style="fill:none;stroke:#000000;stroke-linecap:round;"/>
    <path clip-path="url(#p7057fd3ac4)" d="M 333.734248 181.732172 
L 334.768177 186.083148 
L 330.667038 184.299706 
L 333.734248 181.732172 
z
" style="stroke:#000000;stroke-linecap:round;"/>
   </g>
   <g id="patch_4">
    <path clip-path="url(#p7057fd3ac4)" d="M 358.432936 397.477678 
Q 376.502443 383.480422 393.688083 370.16784 
" style="fill:none;stroke:#000000;stroke-linecap:round;"/>
    <path clip-path="url(#p7057fd3ac4)" d="M 389.301081 371.036293 
L 393.688083 370.16784 
L 391.750645 374.198514 
L 389.301081 371.036293 
z
" style="stroke:#000000;stroke-linecap:round;"/>
   </g>
   <g id="patch_5">
    <path clip-path="url(#p7057fd3ac4)" d="M 359.69318 399.736595 
Q 389.126612 388.682928 417.513385 378.022331 
" style="fill:none;stroke:#000000;stroke-linecap:round;"/>
    <path clip-path="url(#p7057fd3ac4)" d="M 413.065597 377.556303 
L 417.513385 378.022331 
L 414.47189 381.300945 
L 413.065597 377.556303 
z
" style="stroke:#000000;stroke-linecap:round;"/>
   </g>
   <g id="patch_6">
    <path clip-path="url(#p7057fd3ac4)" d="M 390.83669 268.182847 
Q 438.912229 322.525368 486.24696 376.03051 
" style="fill:none;stroke:#000000;stroke-linecap:round;"/>
    <path clip-path="url(#p7057fd3ac4)" d="M 485.09451 371.709415 
L 486.24696 376.03051 
L 482.098614 374.359813 
L 485.09451 371.709415 
z
" style="stroke:#000000;stroke-linecap:round;"/>
   </g>
   <g id="patch_7">
    <path clip-path="url(#p7057fd3ac4)" d="M 426.804764 238.678114 
Q 453.38477 231.443614 478.885988 224.502738 
" style="fill:none;stroke:#000000;stroke-linecap:round;"/>
    <path clip-path="url(#p7057fd3ac4)" d="M 474.501146 223.623438 
L 478.885988 224.502738 
L 475.551643 227.483031 
L 474.501146 223.623438 
z
" style="stroke:#000000;stroke-linecap:round;"/>
   </g>
   <g id="patch_8">
    <path clip-path="url(#p7057fd3ac4)" d="M 411.654081 235.578171 
Q 362.630175 196.818485 314.483302 158.752206 
" style="fill:none;stroke:#000000;stroke-linecap:round;"/>
    <path clip-path="url(#p7057fd3ac4)" d="M 316.380666 162.801899 
L 314.483302 158.752206 
L 318.861475 159.66413 
L 316.380666 162.801899 
z
" style="stroke:#000000;stroke-linecap:round;"/>
   </g>
   <g id="patch_9">
    <path clip-path="url(#p7057fd3ac4)" d="M 426.676688 243.665028 
Q 436.251112 246.822983 444.763766 249.630732 
" style="fill:none;stroke:#000000;stroke-linecap:round;"/>
    <path clip-path="url(#p7057fd3ac4)" d="M 441.59153 246.478444 
L 444.763766 249.630732 
L 440.338595 250.277148 
L 441.59153 246.478444 
z
" style="stroke:#000000;stroke-linecap:round;"/>
   </g>
   <g id="patch_10">
    <path clip-path="url(#p7057fd3ac4)" d="M 415.351921 232.867175 
Q 413.146788 227.114237 411.341814 222.405269 
" style="fill:none;stroke:#000000;stroke-linecap:round;"/>
    <path clip-path="url(#p7057fd3ac4)" d="M 410.905958 226.856115 
L 411.341814 222.405269 
L 414.640977 225.424461 
L 410.905958 226.856115 
z
" style="stroke:#000000;stroke-linecap:round;"/>
   </g>
   <g id="patch_11">
    <path clip-path="url(#p7057fd3ac4)" d="M 419.976367 232.42966 
Q 423.532592 212.563273 426.891813 193.797426 
" style="fill:none;stroke:#000000;stroke-linecap:round;"/>
    <path clip-path="url(#p7057fd3ac4)" d="M 424.218281 197.382427 
L 426.891813 193.797426 
L 428.155694 198.087252 
L 424.218281 197.382427 
z
" style="stroke:#000000;stroke-linecap:round;"/>
   </g>
   <g id="patch_12">
    <path clip-path="url(#p7057fd3ac4)" d="M 410.212223 243.62288 
Q 377.31044 254.289838 345.472194 264.61199 
" style="fill:none;stroke:#000000;stroke-linecap:round;"/>
    <path clip-path="url(#p7057fd3ac4)" d="M 349.894023 265.28089 
L 345.472194 264.61199 
L 348.660411 261.475867 
L 349.894023 265.28089 
z
" style="stroke:#000000;stroke-linecap:round;"/>
   </g>
   <g id="patch_13">
    <path clip-path="url(#p7057fd3ac4)" d="M 411.194176 245.684366 
Q 392.524074 257.860244 374.790456 269.425385 
" style="fill:none;stroke:#000000;stroke-linecap:round;"/>
    <path clip-path="url(#p7057fd3ac4)" d="M 379.233439 268.915581 
L 374.790456 269.425385 
L 377.048403 265.565116 
L 379.233439 268.915581 
z
" style="stroke:#000000;stroke-linecap:round;"/>
   </g>
   <g id="patch_14">
    <path clip-path="url(#p7057fd3ac4)" d="M 501.378589 383.609686 
Q 602.849784 386.625178 703.203439 389.607459 
" style="fill:none;stroke:#000000;stroke-linecap:round;"/>
    <path clip-path="url(#p7057fd3ac4)" d="M 699.264613 387.489523 
L 703.203439 389.607459 
L 699.145795 391.487758 
L 699.264613 387.489523 
z
" style="stroke:#000000;stroke-linecap:round;"/>
   </g>
   <g id="patch_15">
    <path clip-path="url(#p7057fd3ac4)" d="M 442.657219 216.234092 
Q 461.191805 218.548335 478.616972 220.724054 
" style="fill:none;stroke:#000000;stroke-linecap:round;"/>
    <path clip-path="url(#p7057fd3ac4)" d="M 474.895589 218.24387 
L 478.616972 220.724054 
L 474.399995 222.213049 
L 474.895589 218.24387 
z
" style="stroke:#000000;stroke-linecap:round;"/>
   </g>
   <g id="patch_16">
    <path clip-path="url(#p7057fd3ac4)" d="M 426.293431 211.346207 
Q 370.442314 183.926474 315.594807 156.999455 
" style="fill:none;stroke:#000000;stroke-linecap:round;"/>
    <path clip-path="url(#p7057fd3ac4)" d="M 318.304033 160.557558 
L 315.594807 156.999455 
L 320.066825 156.966936 
L 318.304033 160.557558 
z
" style="stroke:#000000;stroke-linecap:round;"/>
   </g>
   <g id="patch_17">
    <path clip-path="url(#p7057fd3ac4)" d="M 438.134355 222.805441 
Q 444.056476 233.927579 449.453132 244.06286 
" style="fill:none;stroke:#000000;stroke-linecap:round;"/>
    <path clip-path="url(#p7057fd3ac4)" d="M 449.338517 239.592193 
L 449.453132 244.06286 
L 445.807829 241.472152 
L 449.338517 239.592193 
z
" style="stroke:#000000;stroke-linecap:round;"/>
   </g>
   <g id="patch_18">
    <path clip-path="url(#p7057fd3ac4)" d="M 425.424823 214.539844 
Q 420.954066 214.218325 417.598463 213.977004 
" style="fill:none;stroke:#000000;stroke-linecap:round;"/>
    <path clip-path="url(#p7057fd3ac4)" d="M 421.444697 216.258775 
L 417.598463 213.977004 
L 421.73162 212.269079 
L 421.444697 216.258775 
z
" style="stroke:#000000;stroke-linecap:round;"/>
   </g>
   <g id="patch_19">
    <path clip-path="url(#p7057fd3ac4)" d="M 432.56418 206.630109 
Q 431.33955 199.664622 430.308518 193.80028 
" style="fill:none;stroke:#000000;stroke-linecap:round;"/>
    <path clip-path="url(#p7057fd3ac4)" d="M 429.031362 198.086173 
L 430.308518 193.80028 
L 432.970938 197.393541 
L 429.031362 198.086173 
z
" style="stroke:#000000;stroke-linecap:round;"/>
   </g>
   <g id="patch_20">
    <path clip-path="url(#p7057fd3ac4)" d="M 426.431036 219.252091 
Q 385.117045 241.394494 344.78848 263.008755 
" style="fill:none;stroke:#000000;stroke-linecap:round;"/>
    <path clip-path="url(#p7057fd3ac4)" d="M 349.258819 262.881996 
L 344.78848 263.008755 
L 347.369276 259.356428 
L 349.258819 262.881996 
z
" style="stroke:#000000;stroke-linecap:round;"/>
   </g>
   <g id="patch_21">
    <path clip-path="url(#p7057fd3ac4)" d="M 427.572572 220.896495 
Q 400.32973 244.966081 373.924747 268.295402 
" style="fill:none;stroke:#000000;stroke-linecap:round;"/>
    <path clip-path="url(#p7057fd3ac4)" d="M 378.246589 267.145758 
L 373.924747 268.295402 
L 375.598136 264.148142 
L 378.246589 267.145758 
z
" style="stroke:#000000;stroke-linecap:round;"/>
   </g>
   <g id="patch_22">
    <path clip-path="url(#p7057fd3ac4)" d="M 288.792846 146.340027 
Q 320.861454 147.373442 351.812608 148.370847 
" style="fill:none;stroke:#000000;stroke-linecap:round;"/>
    <path clip-path="url(#p7057fd3ac4)" d="M 347.879101 146.243051 
L 351.812608 148.370847 
L 347.750267 150.240976 
L 347.879101 146.243051 
z
" style="stroke:#000000;stroke-linecap:round;"/>
   </g>
   <g id="patch_23">
    <path clip-path="url(#p7057fd3ac4)" d="M 363.35398 157.166569 
Q 373.344754 205.19379 383.107825 252.126411 
" style="fill:none;stroke:#000000;stroke-linecap:round;"/>
    <path clip-path="url(#p7057fd3ac4)" d="M 384.251254 247.80292 
L 383.107825 252.126411 
L 380.33509 248.617573 
L 384.251254 247.80292 
z
" style="stroke:#000000;stroke-linecap:round;"/>
   </g>
   <g id="patch_24">
    <path clip-path="url(#p7057fd3ac4)" d="M 337.61504 220.815028 
Q 408.636735 221.343023 478.540427 221.862707 
" style="fill:none;stroke:#000000;stroke-linecap:round;"/>
    <path clip-path="url(#p7057fd3ac4)" d="M 474.555405 219.833026 
L 478.540427 221.862707 
L 474.525669 223.832915 
L 474.555405 219.833026 
z
" style="stroke:#000000;stroke-linecap:round;"/>
   </g>
   <g id="patch_25">
    <path clip-path="url(#p7057fd3ac4)" d="M 326.273649 212.512886 
Q 317.882892 186.717625 309.837975 161.985563 
" style="fill:none;stroke:#000000;stroke-linecap:round;"/>
    <path clip-path="url(#p7057fd3ac4)" d="M 309.173383 166.408042 
L 309.837975 161.985563 
L 312.977203 165.170724 
L 309.173383 166.408042 
z
" style="stroke:#000000;stroke-linecap:round;"/>
   </g>
   <g id="patch_26">
    <path clip-path="url(#p7057fd3ac4)" d="M 330.270751 229.30834 
Q 332.561908 244.190321 334.682942 257.967288 
" style="fill:none;stroke:#000000;stroke-linecap:round;"/>
    <path clip-path="url(#p7057fd3ac4)" d="M 336.051004 253.709541 
L 334.682942 257.967288 
L 332.097582 254.318191 
L 336.051004 253.709541 
z
" style="stroke:#000000;stroke-linecap:round;"/>
   </g>
   <g id="patch_27">
    <path clip-path="url(#p7057fd3ac4)" d="M 333.905008 227.855395 
Q 347.777205 247.759157 361.010122 266.745683 
" style="fill:none;stroke:#000000;stroke-linecap:round;"/>
    <path clip-path="url(#p7057fd3ac4)" d="M 360.363766 262.320503 
L 361.010122 266.745683 
L 357.082164 264.60766 
L 360.363766 262.320503 
z
" style="stroke:#000000;stroke-linecap:round;"/>
   </g>
   <g id="patch_28">
    <path clip-path="url(#p7057fd3ac4)" d="M 396.543345 197.67129 
Q 438.245215 208.696695 478.866189 219.436326 
" style="fill:none;stroke:#000000;stroke-linecap:round;"/>
    <path clip-path="url(#p7057fd3ac4)" d="M 475.510271 216.480347 
L 478.866189 219.436326 
L 474.487855 220.347474 
L 475.510271 216.480347 
z
" style="stroke:#000000;stroke-linecap:round;"/>
   </g>
   <g id="patch_29">
    <path clip-path="url(#p7057fd3ac4)" d="M 380.507752 191.428883 
Q 347.494126 174.073847 315.470122 157.239048 
" style="fill:none;stroke:#000000;stroke-linecap:round;"/>
    <path clip-path="url(#p7057fd3ac4)" d="M 318.080074 160.870597 
L 315.470122 157.239048 
L 319.941333 157.330016 
L 318.080074 160.870597 
z
" style="stroke:#000000;stroke-linecap:round;"/>
   </g>
   <g id="patch_30">
    <path clip-path="url(#p7057fd3ac4)" d="M 383.10831 202.486109 
Q 362.17038 231.544194 341.886055 259.695194 
" style="fill:none;stroke:#000000;stroke-linecap:round;"/>
    <path clip-path="url(#p7057fd3ac4)" d="M 345.8471 257.619112 
L 341.886055 259.695194 
L 342.601816 255.280708 
L 345.8471 257.619112 
z
" style="stroke:#000000;stroke-linecap:round;"/>
   </g>
   <g id="patch_31">
    <path clip-path="url(#p7057fd3ac4)" d="M 385.899169 203.815421 
Q 377.385876 235.114227 369.166027 265.334196 
" style="fill:none;stroke:#000000;stroke-linecap:round;"/>
    <path clip-path="url(#p7057fd3ac4)" d="M 372.145769 261.999359 
L 369.166027 265.334196 
L 368.286003 260.9495 
L 372.145769 261.999359 
z
" style="stroke:#000000;stroke-linecap:round;"/>
   </g>
   <g id="patch_32">
    <path clip-path="url(#p7057fd3ac4)" d="M 435.465115 189.467487 
Q 475.947306 220.778573 515.545125 251.405638 
" style="fill:none;stroke:#000000;stroke-linecap:round;"/>
    <path clip-path="url(#p7057fd3ac4)" d="M 513.604711 247.376395 
L 515.545125 251.405638 
L 511.157483 250.540424 
L 513.604711 247.376395 
z
" style="stroke:#000000;stroke-linecap:round;"/>
   </g>
   <g id="patch_33">
    <path clip-path="url(#p7057fd3ac4)" d="M 420.359792 186.793343 
Q 297.358752 225.887284 175.423222 264.64257 
" style="fill:none;stroke:#000000;stroke-linecap:round;"/>
    <path clip-path="url(#p7057fd3ac4)" d="M 179.841114 265.337001 
L 175.423222 264.64257 
L 178.629502 261.524915 
L 179.841114 265.337001 
z
" style="stroke:#000000;stroke-linecap:round;"/>
   </g>
   <g id="patch_34">
    <path clip-path="url(#p7057fd3ac4)" d="M 437.151233 182.688683 
Q 540.723085 164.721462 643.193356 146.945338 
" style="fill:none;stroke:#000000;stroke-linecap:round;"/>
    <path clip-path="url(#p7057fd3ac4)" d="M 638.910372 145.658461 
L 643.193356 146.945338 
L 639.594065 149.599599 
L 638.910372 145.658461 
z
" style="stroke:#000000;stroke-linecap:round;"/>
   </g>
   <g id="patch_35">
    <path clip-path="url(#p7057fd3ac4)" d="M 514.640624 256.803641 
Q 488.66593 255.041537 463.806707 253.355105 
" style="fill:none;stroke:#000000;stroke-linecap:round;"/>
    <path clip-path="url(#p7057fd3ac4)" d="M 467.662167 255.621253 
L 463.806707 253.355105 
L 467.932901 251.630426 
L 467.662167 255.621253 
z
" style="stroke:#000000;stroke-linecap:round;"/>
   </g>
   <g id="patch_36">
    <path clip-path="url(#p7057fd3ac4)" d="M 515.189959 254.2975 
Q 465.560329 235.331905 416.975074 216.765409 
" style="fill:none;stroke:#000000;stroke-linecap:round;"/>
    <path clip-path="url(#p7057fd3ac4)" d="M 419.997611 220.061508 
L 416.975074 216.765409 
L 421.425476 216.325039 
L 419.997611 220.061508 
z
" style="stroke:#000000;stroke-linecap:round;"/>
   </g>
   <g id="patch_37">
    <path clip-path="url(#p7057fd3ac4)" d="M 516.432337 252.091855 
Q 475.950145 220.780769 436.352326 190.153704 
" style="fill:none;stroke:#000000;stroke-linecap:round;"/>
    <path clip-path="url(#p7057fd3ac4)" d="M 438.292741 194.182946 
L 436.352326 190.153704 
L 440.739969 191.018918 
L 438.292741 194.182946 
z
" style="stroke:#000000;stroke-linecap:round;"/>
   </g>
   <g id="patch_38">
    <path clip-path="url(#p7057fd3ac4)" d="M 447.45761 247.070597 
Q 430.94437 232.983412 415.281709 219.621841 
" style="fill:none;stroke:#000000;stroke-linecap:round;"/>
    <path clip-path="url(#p7057fd3ac4)" d="M 417.02681 223.73944 
L 415.281709 219.621841 
L 419.622849 220.696319 
L 417.02681 223.73944 
z
" style="stroke:#000000;stroke-linecap:round;"/>
   </g>
   <g id="patch_39">
    <path clip-path="url(#p7057fd3ac4)" d="M 451.035371 244.575165 
Q 441.332636 218.433404 432.018937 193.339808 
" style="fill:none;stroke:#000000;stroke-linecap:round;"/>
    <path clip-path="url(#p7057fd3ac4)" d="M 431.535777 197.785768 
L 432.018937 193.339808 
L 435.285808 196.393912 
L 431.535777 197.785768 
z
" style="stroke:#000000;stroke-linecap:round;"/>
   </g>
   <g id="patch_40">
    <path clip-path="url(#p7057fd3ac4)" d="M 460.49289 246.909143 
Q 471.183961 237.313824 481.042973 228.465283 
" style="fill:none;stroke:#000000;stroke-linecap:round;"/>
    <path clip-path="url(#p7057fd3ac4)" d="M 476.730232 229.648609 
L 481.042973 228.465283 
L 479.401989 232.625472 
L 476.730232 229.648609 
z
" style="stroke:#000000;stroke-linecap:round;"/>
   </g>
   <g id="patch_41">
    <path clip-path="url(#p7057fd3ac4)" d="M 445.454329 253.781941 
Q 395.109533 260.160401 345.873904 266.398334 
" style="fill:none;stroke:#000000;stroke-linecap:round;"/>
    <path clip-path="url(#p7057fd3ac4)" d="M 350.093563 267.87971 
L 345.873904 266.398334 
L 349.5908 263.911432 
L 350.093563 267.87971 
z
" style="stroke:#000000;stroke-linecap:round;"/>
   </g>
   <g id="patch_42">
    <path clip-path="url(#p7057fd3ac4)" d="M 445.650012 254.813021 
Q 410.325203 263.729655 376.084426 272.372658 
" style="fill:none;stroke:#000000;stroke-linecap:round;"/>
    <path clip-path="url(#p7057fd3ac4)" d="M 380.452263 273.332867 
L 376.084426 272.372658 
L 379.473295 269.454514 
L 380.452263 273.332867 
z
" style="stroke:#000000;stroke-linecap:round;"/>
   </g>
   <g id="patch_43">
    <path clip-path="url(#p7057fd3ac4)" d="M 480.228712 218.849001 
Q 397.565818 187.311803 315.947517 156.173134 
" style="fill:none;stroke:#000000;stroke-linecap:round;"/>
    <path clip-path="url(#p7057fd3ac4)" d="M 318.971857 159.467579 
L 315.947517 156.173134 
L 320.397677 155.730329 
L 318.971857 159.467579 
z
" style="stroke:#000000;stroke-linecap:round;"/>
   </g>
   <g id="patch_44">
    <path clip-path="url(#p7057fd3ac4)" d="M 481.874071 227.719366 
Q 471.183 237.314686 461.323988 246.163226 
" style="fill:none;stroke:#000000;stroke-linecap:round;"/>
    <path clip-path="url(#p7057fd3ac4)" d="M 465.636729 244.9799 
L 461.323988 246.163226 
L 462.964972 242.003037 
L 465.636729 244.9799 
z
" style="stroke:#000000;stroke-linecap:round;"/>
   </g>
   <g id="patch_45">
    <path clip-path="url(#p7057fd3ac4)" d="M 496.978462 222.110836 
Q 603.905607 224.277001 709.714947 226.420522 
" style="fill:none;stroke:#000000;stroke-linecap:round;"/>
    <path clip-path="url(#p7057fd3ac4)" d="M 705.756275 224.339916 
L 709.714947 226.420522 
L 705.675259 228.339095 
L 705.756275 224.339916 
z
" style="stroke:#000000;stroke-linecap:round;"/>
   </g>
   <g id="patch_46">
    <path clip-path="url(#p7057fd3ac4)" d="M 480.021151 224.427228 
Q 412.242023 244.782282 345.533685 264.815763 
" style="fill:none;stroke:#000000;stroke-linecap:round;"/>
    <path clip-path="url(#p7057fd3ac4)" d="M 349.939907 265.580752 
L 345.533685 264.815763 
L 348.78941 261.749779 
L 349.939907 265.580752 
z
" style="stroke:#000000;stroke-linecap:round;"/>
   </g>
   <g id="patch_47">
    <path clip-path="url(#p7057fd3ac4)" d="M 480.373139 225.384068 
Q 427.460556 248.350532 375.573564 270.871842 
" style="fill:none;stroke:#000000;stroke-linecap:round;"/>
    <path clip-path="url(#p7057fd3ac4)" d="M 380.039147 271.113847 
L 375.573564 270.871842 
L 378.446518 267.444579 
L 380.039147 271.113847 
z
" style="stroke:#000000;stroke-linecap:round;"/>
   </g>
   <g id="patch_48">
    <path clip-path="url(#p7057fd3ac4)" d="M 411.06333 221.317652 
Q 419.766853 243.048465 428.054687 263.741395 
" style="fill:none;stroke:#000000;stroke-linecap:round;"/>
    <path clip-path="url(#p7057fd3ac4)" d="M 428.424099 259.284542 
L 428.054687 263.741395 
L 424.710852 260.771754 
L 428.424099 259.284542 
z
" style="stroke:#000000;stroke-linecap:round;"/>
   </g>
   <g id="patch_49">
    <path clip-path="url(#p7057fd3ac4)" d="M 416.194274 210.977586 
Q 459.18894 199.14894 501.105625 187.616868 
" style="fill:none;stroke:#000000;stroke-linecap:round;"/>
    <path clip-path="url(#p7057fd3ac4)" d="M 496.718394 186.749568 
L 501.105625 187.616868 
L 497.779447 190.606273 
L 496.718394 186.749568 
z
" style="stroke:#000000;stroke-linecap:round;"/>
   </g>
   <g id="patch_50">
    <path clip-path="url(#p7057fd3ac4)" d="M 399.39168 215.174591 
Q 286.972269 240.44007 175.643684 265.460394 
" style="fill:none;stroke:#000000;stroke-linecap:round;"/>
    <path clip-path="url(#p7057fd3ac4)" d="M 179.984885 266.534626 
L 175.643684 265.460394 
L 179.10779 262.631973 
L 179.984885 266.534626 
z
" style="stroke:#000000;stroke-linecap:round;"/>
   </g>
   <g id="patch_51">
    <path clip-path="url(#p7057fd3ac4)" d="M 416.189659 210.958372 
Q 530.336741 179.274246 643.40652 147.88915 
" style="fill:none;stroke:#000000;stroke-linecap:round;"/>
    <path clip-path="url(#p7057fd3ac4)" d="M 639.017323 147.031855 
L 643.40652 147.88915 
L 640.087165 150.88613 
L 639.017323 147.031855 
z
" style="stroke:#000000;stroke-linecap:round;"/>
   </g>
   <g id="patch_52">
    <path clip-path="url(#p7057fd3ac4)" d="M 397.057594 300.812296 
Q 354.189171 230.449186 311.90245 161.040866 
" style="fill:none;stroke:#000000;stroke-linecap:round;"/>
    <path clip-path="url(#p7057fd3ac4)" d="M 312.275629 165.497404 
L 311.90245 161.040866 
L 315.691588 163.416246 
L 312.275629 165.497404 
z
" style="stroke:#000000;stroke-linecap:round;"/>
   </g>
   <g id="patch_53">
    <path clip-path="url(#p7057fd3ac4)" d="M 407.70371 302.1035 
Q 444.939607 265.07395 481.38274 228.832771 
" style="fill:none;stroke:#000000;stroke-linecap:round;"/>
    <path clip-path="url(#p7057fd3ac4)" d="M 477.136186 230.235191 
L 481.38274 228.832771 
L 479.956744 233.071466 
L 477.136186 230.235191 
z
" style="stroke:#000000;stroke-linecap:round;"/>
   </g>
   <g id="patch_54">
    <path clip-path="url(#p7057fd3ac4)" d="M 407.512769 301.916803 
Q 427.805366 280.45204 447.329889 259.799718 
" style="fill:none;stroke:#000000;stroke-linecap:round;"/>
    <path clip-path="url(#p7057fd3ac4)" d="M 443.128602 261.332422 
L 447.329889 259.799718 
L 446.03528 264.080371 
L 443.128602 261.332422 
z
" style="stroke:#000000;stroke-linecap:round;"/>
   </g>
   <g id="patch_55">
    <path clip-path="url(#p7057fd3ac4)" d="M 402.135603 299.566922 
Q 404.70324 260.741257 407.197101 223.03119 
" style="fill:none;stroke:#000000;stroke-linecap:round;"/>
    <path clip-path="url(#p7057fd3ac4)" d="M 404.937506 226.890495 
L 407.197101 223.03119 
L 408.928788 227.154448 
L 404.937506 226.890495 
z
" style="stroke:#000000;stroke-linecap:round;"/>
   </g>
   <g id="patch_56">
    <path clip-path="url(#p7057fd3ac4)" d="M 403.40915 299.748767 
Q 415.089526 246.189993 426.531676 193.723577 
" style="fill:none;stroke:#000000;stroke-linecap:round;"/>
    <path clip-path="url(#p7057fd3ac4)" d="M 423.725297 197.205565 
L 426.531676 193.723577 
L 427.633439 198.057873 
L 423.725297 197.205565 
z
" style="stroke:#000000;stroke-linecap:round;"/>
   </g>
   <g id="patch_57">
    <path clip-path="url(#p7057fd3ac4)" d="M 409.107193 312.469797 
Q 519.999767 375.106768 629.918866 437.193878 
" style="fill:none;stroke:#000000;stroke-linecap:round;"/>
    <path clip-path="url(#p7057fd3ac4)" d="M 627.419678 433.485231 
L 629.918866 437.193878 
L 625.452436 436.96804 
L 627.419678 433.485231 
z
" style="stroke:#000000;stroke-linecap:round;"/>
   </g>
   <g id="patch_58">
    <path clip-path="url(#p7057fd3ac4)" d="M 400.854929 316.841037 
Q 394.747427 391.183389 388.731468 464.41146 
" style="fill:none;stroke:#000000;stroke-linecap:round;"/>
    <path clip-path="url(#p7057fd3ac4)" d="M 391.052264 460.588647 
L 388.731468 464.41146 
L 387.065695 460.261135 
L 391.052264 460.588647 
z
" style="stroke:#000000;stroke-linecap:round;"/>
   </g>
   <g id="patch_59">
    <path clip-path="url(#p7057fd3ac4)" d="M 392.928543 308.869262 
Q 293.104975 316.50034 194.396189 324.046198 
" style="fill:none;stroke:#000000;stroke-linecap:round;"/>
    <path clip-path="url(#p7057fd3ac4)" d="M 198.536999 325.735486 
L 194.396189 324.046198 
L 198.232106 321.747123 
L 198.536999 325.735486 
z
" style="stroke:#000000;stroke-linecap:round;"/>
   </g>
   <g id="patch_60">
    <path clip-path="url(#p7057fd3ac4)" d="M 394.208063 303.644205 
Q 368.86787 287.91888 344.477656 272.783081 
" style="fill:none;stroke:#000000;stroke-linecap:round;"/>
    <path clip-path="url(#p7057fd3ac4)" d="M 346.821824 276.591607 
L 344.477656 272.783081 
L 348.930978 273.192862 
L 346.821824 276.591607 
z
" style="stroke:#000000;stroke-linecap:round;"/>
   </g>
   <g id="patch_61">
    <path clip-path="url(#p7057fd3ac4)" d="M 395.305014 302.222364 
Q 384.083517 291.489077 373.66997 281.528589 
" style="fill:none;stroke:#000000;stroke-linecap:round;"/>
    <path clip-path="url(#p7057fd3ac4)" d="M 375.178155 285.738741 
L 373.66997 281.528589 
L 377.943003 282.848132 
L 375.178155 285.738741 
z
" style="stroke:#000000;stroke-linecap:round;"/>
   </g>
   <g id="patch_62">
    <path clip-path="url(#p7057fd3ac4)" d="M 408.928466 299.687611 
Q 360.341569 229.744364 312.392529 160.719344 
" style="fill:none;stroke:#000000;stroke-linecap:round;"/>
    <path clip-path="url(#p7057fd3ac4)" d="M 313.032021 165.145522 
L 312.392529 160.719344 
L 316.317167 162.863457 
L 313.032021 165.145522 
z
" style="stroke:#000000;stroke-linecap:round;"/>
   </g>
   <g id="patch_63">
    <path clip-path="url(#p7057fd3ac4)" d="M 419.579459 300.292708 
Q 451.092916 264.369775 481.86907 229.28731 
" style="fill:none;stroke:#000000;stroke-linecap:round;"/>
    <path clip-path="url(#p7057fd3ac4)" d="M 477.727744 230.975334 
L 481.86907 229.28731 
L 480.734693 233.613185 
L 477.727744 230.975334 
z
" style="stroke:#000000;stroke-linecap:round;"/>
   </g>
   <g id="patch_64">
    <path clip-path="url(#p7057fd3ac4)" d="M 419.032036 299.849374 
Q 433.95952 279.746656 448.220465 260.541561 
" style="fill:none;stroke:#000000;stroke-linecap:round;"/>
    <path clip-path="url(#p7057fd3ac4)" d="M 444.230067 262.560651 
L 448.220465 260.541561 
L 447.441499 264.945333 
L 444.230067 262.560651 
z
" style="stroke:#000000;stroke-linecap:round;"/>
   </g>
   <g id="patch_65">
    <path clip-path="url(#p7057fd3ac4)" d="M 413.31313 298.161517 
Q 410.856271 260.040729 408.47132 223.035661 
" style="fill:none;stroke:#000000;stroke-linecap:round;"/>
    <path clip-path="url(#p7057fd3ac4)" d="M 406.732724 227.156011 
L 408.47132 223.035661 
L 410.724443 226.898747 
L 406.732724 227.156011 
z
" style="stroke:#000000;stroke-linecap:round;"/>
   </g>
   <g id="patch_66">
    <path clip-path="url(#p7057fd3ac4)" d="M 414.903578 298.204776 
Q 421.24244 245.486761 427.447829 193.878784 
" style="fill:none;stroke:#000000;stroke-linecap:round;"/>
    <path clip-path="url(#p7057fd3ac4)" d="M 424.984608 197.611416 
L 427.447829 193.878784 
L 428.956002 198.08894 
L 424.984608 197.611416 
z
" style="stroke:#000000;stroke-linecap:round;"/>
   </g>
   <g id="patch_67">
    <path clip-path="url(#p7057fd3ac4)" d="M 421.288456 311.267554 
Q 526.151513 374.402095 630.056739 436.959959 
" style="fill:none;stroke:#000000;stroke-linecap:round;"/>
    <path clip-path="url(#p7057fd3ac4)" d="M 627.661489 433.183349 
L 630.056739 436.959959 
L 625.598301 436.610192 
L 627.661489 433.183349 
z
" style="stroke:#000000;stroke-linecap:round;"/>
   </g>
   <g id="patch_68">
    <path clip-path="url(#p7057fd3ac4)" d="M 412.54364 315.358173 
Q 400.90027 390.478833 389.428145 464.494651 
" style="fill:none;stroke:#000000;stroke-linecap:round;"/>
    <path clip-path="url(#p7057fd3ac4)" d="M 392.017213 460.848183 
L 389.428145 464.494651 
L 388.064411 460.235516 
L 392.017213 460.848183 
z
" style="stroke:#000000;stroke-linecap:round;"/>
   </g>
   <g id="patch_69">
    <path clip-path="url(#p7057fd3ac4)" d="M 405.23419 307.478887 
Q 299.257075 315.796408 194.394566 324.026451 
" style="fill:none;stroke:#000000;stroke-linecap:round;"/>
    <path clip-path="url(#p7057fd3ac4)" d="M 198.53879 325.707345 
L 194.394566 324.026451 
L 198.225816 321.719608 
L 198.53879 325.707345 
z
" style="stroke:#000000;stroke-linecap:round;"/>
   </g>
   <g id="patch_70">
    <path clip-path="url(#p7057fd3ac4)" d="M 406.137438 302.902669 
Q 375.02073 287.214759 344.902354 272.030171 
" style="fill:none;stroke:#000000;stroke-linecap:round;"/>
    <path clip-path="url(#p7057fd3ac4)" d="M 347.573724 275.616783 
L 344.902354 272.030171 
L 349.374465 272.045042 
L 347.573724 275.616783 
z
" style="stroke:#000000;stroke-linecap:round;"/>
   </g>
   <g id="patch_71">
    <path clip-path="url(#p7057fd3ac4)" d="M 406.700464 301.942366 
Q 390.234819 290.783615 374.694695 280.252089 
" style="fill:none;stroke:#000000;stroke-linecap:round;"/>
    <path clip-path="url(#p7057fd3ac4)" d="M 376.883926 284.151739 
L 374.694695 280.252089 
L 379.127954 280.840494 
L 376.883926 284.151739 
z
" style="stroke:#000000;stroke-linecap:round;"/>
   </g>
   <g id="patch_72">
    <path clip-path="url(#p7057fd3ac4)" d="M 409.644449 366.882474 
Q 519.924633 403.091953 629.142577 438.952655 
" style="fill:none;stroke:#000000;stroke-linecap:round;"/>
    <path clip-path="url(#p7057fd3ac4)" d="M 625.966101 435.804639 
L 629.142577 438.952655 
L 624.718279 439.605026 
L 625.966101 435.804639 
z
" style="stroke:#000000;stroke-linecap:round;"/>
   </g>
   <g id="patch_73">
    <path clip-path="url(#p7057fd3ac4)" d="M 400.362751 372.775874 
Q 394.674119 419.165499 389.121569 464.445402 
" style="fill:none;stroke:#000000;stroke-linecap:round;"/>
    <path clip-path="url(#p7057fd3ac4)" d="M 391.593561 460.718573 
L 389.121569 464.445402 
L 387.623301 460.231711 
L 391.593561 460.718573 
z
" style="stroke:#000000;stroke-linecap:round;"/>
   </g>
   <g id="patch_74">
    <path clip-path="url(#p7057fd3ac4)" d="M 392.8929 362.632107 
Q 293.029218 344.485823 194.265558 326.539424 
" style="fill:none;stroke:#000000;stroke-linecap:round;"/>
    <path clip-path="url(#p7057fd3ac4)" d="M 197.843546 329.222333 
L 194.265558 326.539424 
L 198.558678 325.286779 
L 197.843546 329.222333 
z
" style="stroke:#000000;stroke-linecap:round;"/>
   </g>
   <g id="patch_75">
    <path clip-path="url(#p7057fd3ac4)" d="M 434.915478 377.211424 
Q 532.548768 408.293871 629.11671 439.037155 
" style="fill:none;stroke:#000000;stroke-linecap:round;"/>
    <path clip-path="url(#p7057fd3ac4)" d="M 625.911916 435.917973 
L 629.11671 439.037155 
L 624.698488 439.729481 
L 625.911916 435.917973 
z
" style="stroke:#000000;stroke-linecap:round;"/>
   </g>
   <g id="patch_76">
    <path clip-path="url(#p7057fd3ac4)" d="M 423.525124 382.658569 
Q 407.298316 424.369552 391.476863 465.038571 
" style="fill:none;stroke:#000000;stroke-linecap:round;"/>
    <path clip-path="url(#p7057fd3ac4)" d="M 394.791024 462.03585 
L 391.476863 465.038571 
L 391.063183 460.585609 
L 394.791024 462.03585 
z
" style="stroke:#000000;stroke-linecap:round;"/>
   </g>
   <g id="patch_77">
    <path clip-path="url(#p7057fd3ac4)" d="M 418.183291 372.839871 
Q 305.65719 349.688525 194.226186 326.762486 
" style="fill:none;stroke:#000000;stroke-linecap:round;"/>
    <path clip-path="url(#p7057fd3ac4)" d="M 197.741081 329.527538 
L 194.226186 326.762486 
L 198.547165 325.609602 
L 197.741081 329.527538 
z
" style="stroke:#000000;stroke-linecap:round;"/>
   </g>
   <g id="patch_78">
    <path clip-path="url(#p7057fd3ac4)" d="M 439.112417 229.034642 
Q 459.428266 226.103562 478.637538 223.332133 
" style="fill:none;stroke:#000000;stroke-linecap:round;"/>
    <path clip-path="url(#p7057fd3ac4)" d="M 474.392936 221.923817 
L 478.637538 223.332133 
L 474.964124 225.882825 
L 474.392936 221.923817 
z
" style="stroke:#000000;stroke-linecap:round;"/>
   </g>
   <g id="patch_79">
    <path clip-path="url(#p7057fd3ac4)" d="M 423.202956 225.671189 
Q 368.675726 191.479473 315.09571 157.881714 
" style="fill:none;stroke:#000000;stroke-linecap:round;"/>
    <path clip-path="url(#p7057fd3ac4)" d="M 317.422062 161.70115 
L 315.09571 157.881714 
L 319.54707 158.312294 
L 317.422062 161.70115 
z
" style="stroke:#000000;stroke-linecap:round;"/>
   </g>
   <g id="patch_80">
    <path clip-path="url(#p7057fd3ac4)" d="M 436.804029 236.246419 
Q 442.292888 241.481373 446.972687 245.944692 
" style="fill:none;stroke:#000000;stroke-linecap:round;"/>
    <path clip-path="url(#p7057fd3ac4)" d="M 445.458446 241.736715 
L 446.972687 245.944692 
L 442.69776 244.631299 
L 445.458446 241.736715 
z
" style="stroke:#000000;stroke-linecap:round;"/>
   </g>
   <g id="patch_81">
    <path clip-path="url(#p7057fd3ac4)" d="M 423.609978 225.08264 
Q 419.192635 221.774819 415.670223 219.137146 
" style="fill:none;stroke:#000000;stroke-linecap:round;"/>
    <path clip-path="url(#p7057fd3ac4)" d="M 417.67323 223.135641 
L 415.670223 219.137146 
L 420.070823 219.933838 
L 417.67323 223.135641 
z
" style="stroke:#000000;stroke-linecap:round;"/>
   </g>
   <g id="patch_82">
    <path clip-path="url(#p7057fd3ac4)" d="M 430.178231 221.618949 
Q 429.57734 207.221103 429.02307 193.940319 
" style="fill:none;stroke:#000000;stroke-linecap:round;"/>
    <path clip-path="url(#p7057fd3ac4)" d="M 427.191604 198.020237 
L 429.02307 193.940319 
L 431.188125 197.853443 
L 427.191604 198.020237 
z
" style="stroke:#000000;stroke-linecap:round;"/>
   </g>
   <g id="patch_83">
    <path clip-path="url(#p7057fd3ac4)" d="M 422.484215 233.460167 
Q 383.35343 248.950172 345.262193 264.028669 
" style="fill:none;stroke:#000000;stroke-linecap:round;"/>
    <path clip-path="url(#p7057fd3ac4)" d="M 349.717523 264.416016 
L 345.262193 264.028669 
L 348.245269 260.696814 
L 349.717523 264.416016 
z
" style="stroke:#000000;stroke-linecap:round;"/>
   </g>
   <g id="patch_84">
    <path clip-path="url(#p7057fd3ac4)" d="M 423.432849 235.216933 
Q 398.570391 252.518705 374.625626 269.181855 
" style="fill:none;stroke:#000000;stroke-linecap:round;"/>
    <path clip-path="url(#p7057fd3ac4)" d="M 379.051268 268.53867 
L 374.625626 269.181855 
L 376.766463 265.25543 
L 379.051268 268.53867 
z
" style="stroke:#000000;stroke-linecap:round;"/>
   </g>
   <g id="patch_85">
    <path clip-path="url(#p7057fd3ac4)" d="M 406.972846 242.788789 
Q 443.451557 233.437284 478.847254 224.363415 
" style="fill:none;stroke:#000000;stroke-linecap:round;"/>
    <path clip-path="url(#p7057fd3ac4)" d="M 474.475897 223.419362 
L 478.847254 224.363415 
L 475.469198 227.294069 
L 474.475897 223.419362 
z
" style="stroke:#000000;stroke-linecap:round;"/>
   </g>
   <g id="patch_86">
    <path clip-path="url(#p7057fd3ac4)" d="M 392.476786 238.798973 
Q 352.700013 198.814405 313.711747 159.622464 
" style="fill:none;stroke:#000000;stroke-linecap:round;"/>
    <path clip-path="url(#p7057fd3ac4)" d="M 315.114903 163.868775 
L 313.711747 159.622464 
L 317.950689 161.047726 
L 315.114903 163.868775 
z
" style="stroke:#000000;stroke-linecap:round;"/>
   </g>
   <g id="patch_87">
    <path clip-path="url(#p7057fd3ac4)" d="M 407.159732 246.137856 
Q 426.315579 248.815931 444.364161 251.339206 
" style="fill:none;stroke:#000000;stroke-linecap:round;"/>
    <path clip-path="url(#p7057fd3ac4)" d="M 440.679603 248.804637 
L 444.364161 251.339206 
L 440.125771 252.766111 
L 440.679603 248.804637 
z
" style="stroke:#000000;stroke-linecap:round;"/>
   </g>
   <g id="patch_88">
    <path clip-path="url(#p7057fd3ac4)" d="M 401.01569 236.625028 
Q 403.213581 229.107364 405.097733 222.662812 
" style="fill:none;stroke:#000000;stroke-linecap:round;"/>
    <path clip-path="url(#p7057fd3ac4)" d="M 402.055628 225.940859 
L 405.097733 222.662812 
L 405.894908 227.063325 
L 402.055628 225.940859 
z
" style="stroke:#000000;stroke-linecap:round;"/>
   </g>
   <g id="patch_89">
    <path clip-path="url(#p7057fd3ac4)" d="M 402.42124 237.175956 
Q 413.600553 214.553404 424.28455 192.93318 
" style="fill:none;stroke:#000000;stroke-linecap:round;"/>
    <path clip-path="url(#p7057fd3ac4)" d="M 420.719431 195.633167 
L 424.28455 192.93318 
L 424.305468 197.405267 
L 420.719431 195.633167 
z
" style="stroke:#000000;stroke-linecap:round;"/>
   </g>
   <g id="patch_90">
    <path clip-path="url(#p7057fd3ac4)" d="M 390.44408 247.898398 
Q 367.376696 256.283732 345.360073 264.2871 
" style="fill:none;stroke:#000000;stroke-linecap:round;"/>
    <path clip-path="url(#p7057fd3ac4)" d="M 349.802677 264.800191 
L 345.360073 264.2871 
L 348.436109 261.040871 
L 349.802677 264.800191 
z
" style="stroke:#000000;stroke-linecap:round;"/>
   </g>
   <g id="patch_91">
    <path clip-path="url(#p7057fd3ac4)" d="M 392.250136 250.846679 
Q 382.59235 259.853148 373.752223 268.0971 
" style="fill:none;stroke:#000000;stroke-linecap:round;"/>
    <path clip-path="url(#p7057fd3ac4)" d="M 378.041604 266.83171 
L 373.752223 268.0971 
L 375.31354 263.906361 
L 378.041604 266.83171 
z
" style="stroke:#000000;stroke-linecap:round;"/>
   </g>
   <g id="patch_92">
    <path clip-path="url(#p7057fd3ac4)" d="M 418.339347 221.915965 
Q 449.000094 221.92448 478.542807 221.932685 
" style="fill:none;stroke:#000000;stroke-linecap:round;"/>
    <path clip-path="url(#p7057fd3ac4)" d="M 474.543363 219.931574 
L 478.542807 221.932685 
L 474.542252 223.931574 
L 474.543363 219.931574 
z
" style="stroke:#000000;stroke-linecap:round;"/>
   </g>
   <g id="patch_93">
    <path clip-path="url(#p7057fd3ac4)" d="M 402.48998 217.077859 
Q 358.244706 187.301109 314.926976 158.148589 
" style="fill:none;stroke:#000000;stroke-linecap:round;"/>
    <path clip-path="url(#p7057fd3ac4)" d="M 317.128799 162.041142 
L 314.926976 158.148589 
L 319.362113 158.722662 
L 317.128799 162.041142 
z
" style="stroke:#000000;stroke-linecap:round;"/>
   </g>
   <g id="patch_94">
    <path clip-path="url(#p7057fd3ac4)" d="M 416.790096 226.848732 
Q 431.861477 237.303054 446.014199 247.120144 
" style="fill:none;stroke:#000000;stroke-linecap:round;"/>
    <path clip-path="url(#p7057fd3ac4)" d="M 443.867417 243.196966 
L 446.014199 247.120144 
L 441.587587 246.483663 
L 443.867417 243.196966 
z
" style="stroke:#000000;stroke-linecap:round;"/>
   </g>
   <g id="patch_95">
    <path clip-path="url(#p7057fd3ac4)" d="M 407.877184 213.439875 
Q 407.85973 213.357627 408.074362 214.369058 
" style="fill:none;stroke:#000000;stroke-linecap:round;"/>
    <path clip-path="url(#p7057fd3ac4)" d="M 406.94826 218.697094 
L 408.074362 214.369058 
L 410.861129 217.866761 
L 406.94826 218.697094 
z
" style="stroke:#000000;stroke-linecap:round;"/>
   </g>
   <g id="patch_96">
    <path clip-path="url(#p7057fd3ac4)" d="M 413.558359 214.175375 
Q 419.144971 203.0422 424.230147 192.908306 
" style="fill:none;stroke:#000000;stroke-linecap:round;"/>
    <path clip-path="url(#p7057fd3ac4)" d="M 420.648583 195.58644 
L 424.230147 192.908306 
L 424.223716 197.380437 
L 420.648583 195.58644 
z
" style="stroke:#000000;stroke-linecap:round;"/>
   </g>
   <g id="patch_97">
    <path clip-path="url(#p7057fd3ac4)" d="M 402.319899 226.488047 
Q 372.921163 244.771661 344.47183 262.464823 
" style="fill:none;stroke:#000000;stroke-linecap:round;"/>
    <path clip-path="url(#p7057fd3ac4)" d="M 348.924751 262.050704 
L 344.47183 262.464823 
L 346.812288 258.654015 
L 348.924751 262.050704 
z
" style="stroke:#000000;stroke-linecap:round;"/>
   </g>
   <g id="patch_98">
    <path clip-path="url(#p7057fd3ac4)" d="M 404.20422 228.626644 
Q 388.136991 248.341168 372.776087 267.189029 
" style="fill:none;stroke:#000000;stroke-linecap:round;"/>
    <path clip-path="url(#p7057fd3ac4)" d="M 376.853447 265.351875 
L 372.776087 267.189029 
L 373.75278 262.824848 
L 376.853447 265.351875 
z
" style="stroke:#000000;stroke-linecap:round;"/>
   </g>
   <g id="patch_99">
    <path clip-path="url(#p7057fd3ac4)" d="M 284.796755 181.412203 
Q 303.642231 198.201387 321.652907 214.246857 
" style="fill:none;stroke:#000000;stroke-linecap:round;"/>
    <path clip-path="url(#p7057fd3ac4)" d="M 319.996627 210.092734 
L 321.652907 214.246857 
L 317.33584 213.079407 
L 319.996627 210.092734 
z
" style="stroke:#000000;stroke-linecap:round;"/>
   </g>
   <g id="patch_100">
    <path clip-path="url(#p7057fd3ac4)" d="M 271.634287 181.136956 
Q 222.22094 221.624829 173.672398 261.404105 
" style="fill:none;stroke:#000000;stroke-linecap:round;"/>
    <path clip-path="url(#p7057fd3ac4)" d="M 178.034001 260.415963 
L 173.672398 261.404105 
L 175.498846 257.321938 
L 178.034001 260.415963 
z
" style="stroke:#000000;stroke-linecap:round;"/>
   </g>
   <g id="patch_101">
    <path clip-path="url(#p7057fd3ac4)" d="M 286.486061 172.736458 
Q 373.542991 141.629262 459.54708 110.898267 
" style="fill:none;stroke:#000000;stroke-linecap:round;"/>
    <path clip-path="url(#p7057fd3ac4)" d="M 455.107355 110.360827 
L 459.54708 110.898267 
L 456.453293 114.127583 
L 455.107355 110.360827 
z
" style="stroke:#000000;stroke-linecap:round;"/>
   </g>
   <g id="patch_102">
    <path clip-path="url(#p7057fd3ac4)" d="M 337.525049 201.49197 
Q 334.999653 207.165894 332.928883 211.81839 
" style="fill:none;stroke:#000000;stroke-linecap:round;"/>
    <path clip-path="url(#p7057fd3ac4)" d="M 336.382587 208.977276 
L 332.928883 211.81839 
L 332.728214 207.350758 
L 336.382587 208.977276 
z
" style="stroke:#000000;stroke-linecap:round;"/>
   </g>
   <g id="patch_103">
    <path clip-path="url(#p7057fd3ac4)" d="M 333.072177 196.955984 
Q 253.577413 230.592364 175.112304 263.793069 
" style="fill:none;stroke:#000000;stroke-linecap:round;"/>
    <path clip-path="url(#p7057fd3ac4)" d="M 179.575465 264.076254 
L 175.112304 263.793069 
L 178.016748 260.392451 
L 179.575465 264.076254 
z
" style="stroke:#000000;stroke-linecap:round;"/>
   </g>
   <g id="patch_104">
    <path clip-path="url(#p7057fd3ac4)" d="M 348.228588 188.746655 
Q 404.901135 150.594951 460.646225 113.067607 
" style="fill:none;stroke:#000000;stroke-linecap:round;"/>
    <path clip-path="url(#p7057fd3ac4)" d="M 456.211169 113.642299 
L 460.646225 113.067607 
L 458.444945 116.960467 
L 456.211169 113.642299 
z
" style="stroke:#000000;stroke-linecap:round;"/>
   </g>
   <g id="patch_105">
    <path clip-path="url(#p7057fd3ac4)" d="M 465.284369 312.890549 
Q 404.815304 291.692258 345.40132 270.863841 
" style="fill:none;stroke:#000000;stroke-linecap:round;"/>
    <path clip-path="url(#p7057fd3ac4)" d="M 348.51444 274.074524 
L 345.40132 270.863841 
L 349.837738 270.299755 
L 348.51444 274.074524 
z
" style="stroke:#000000;stroke-linecap:round;"/>
   </g>
   <g id="patch_106">
    <path clip-path="url(#p7057fd3ac4)" d="M 465.374342 312.655119 
Q 420.031114 295.26199 375.731757 278.269277 
" style="fill:none;stroke:#000000;stroke-linecap:round;"/>
    <path clip-path="url(#p7057fd3ac4)" d="M 378.750136 281.569184 
L 375.731757 278.269277 
L 380.18271 277.834518 
L 378.750136 281.569184 
z
" style="stroke:#000000;stroke-linecap:round;"/>
   </g>
   <g id="patch_107">
    <path clip-path="url(#p7057fd3ac4)" d="M 341.23427 260.599753 
Q 362.1722 231.541669 382.456526 203.390668 
" style="fill:none;stroke:#000000;stroke-linecap:round;"/>
    <path clip-path="url(#p7057fd3ac4)" d="M 378.49548 205.466751 
L 382.456526 203.390668 
L 381.740764 207.805154 
L 378.49548 205.466751 
z
" style="stroke:#000000;stroke-linecap:round;"/>
   </g>
   <g id="patch_108">
    <path clip-path="url(#p7057fd3ac4)" d="M 341.695355 260.959413 
Q 402.464487 187.616627 462.520298 115.134755 
" style="fill:none;stroke:#000000;stroke-linecap:round;"/>
    <path clip-path="url(#p7057fd3ac4)" d="M 458.428192 116.938826 
L 462.520298 115.134755 
L 461.508291 119.490882 
L 458.428192 116.938826 
z
" style="stroke:#000000;stroke-linecap:round;"/>
   </g>
   <g id="patch_109">
    <path clip-path="url(#p7057fd3ac4)" d="M 333.551439 275.881774 
Q 308.71013 354.178088 284.206934 431.408719 
" style="fill:none;stroke:#000000;stroke-linecap:round;"/>
    <path clip-path="url(#p7057fd3ac4)" d="M 287.322954 428.200849 
L 284.206934 431.408719 
L 283.510251 426.991182 
L 287.322954 428.200849 
z
" style="stroke:#000000;stroke-linecap:round;"/>
   </g>
   <g id="patch_110">
    <path clip-path="url(#p7057fd3ac4)" d="M 368.8736 266.409294 
Q 377.386893 235.110488 385.606742 204.890519 
" style="fill:none;stroke:#000000;stroke-linecap:round;"/>
    <path clip-path="url(#p7057fd3ac4)" d="M 382.627 208.225356 
L 385.606742 204.890519 
L 386.486767 209.275215 
L 382.627 208.225356 
z
" style="stroke:#000000;stroke-linecap:round;"/>
   </g>
   <g id="patch_111">
    <path clip-path="url(#p7057fd3ac4)" d="M 371.116224 267.377369 
Q 417.678838 191.186956 463.658438 115.95053 
" style="fill:none;stroke:#000000;stroke-linecap:round;"/>
    <path clip-path="url(#p7057fd3ac4)" d="M 459.866033 118.320692 
L 463.658438 115.95053 
L 463.279124 120.406551 
L 459.866033 118.320692 
z
" style="stroke:#000000;stroke-linecap:round;"/>
   </g>
   <g id="patch_112">
    <path clip-path="url(#p7057fd3ac4)" d="M 362.64 282.467501 
Q 323.925429 357.746889 285.722184 432.032019 
" style="fill:none;stroke:#000000;stroke-linecap:round;"/>
    <path clip-path="url(#p7057fd3ac4)" d="M 289.330136 429.389544 
L 285.722184 432.032019 
L 285.772975 427.560172 
L 289.330136 429.389544 
z
" style="stroke:#000000;stroke-linecap:round;"/>
   </g>
   <g id="patch_113">
    <path clip-path="url(#p7057fd3ac4)" d="M 437.332934 206.92777 
Q 434.880606 235.559068 432.52369 263.07641 
" style="fill:none;stroke:#000000;stroke-linecap:round;"/>
    <path clip-path="url(#p7057fd3ac4)" d="M 434.857752 259.261682 
L 432.52369 263.07641 
L 430.872344 258.920324 
L 434.857752 259.261682 
z
" style="stroke:#000000;stroke-linecap:round;"/>
   </g>
   <g id="patch_114">
    <path clip-path="url(#p7057fd3ac4)" d="M 446.594744 196.738333 
Q 474.305528 191.660901 500.916587 186.784972 
" style="fill:none;stroke:#000000;stroke-linecap:round;"/>
    <path clip-path="url(#p7057fd3ac4)" d="M 496.62163 185.538638 
L 500.916587 186.784972 
L 497.342546 189.473137 
L 496.62163 185.538638 
z
" style="stroke:#000000;stroke-linecap:round;"/>
   </g>
   <g id="patch_115">
    <path clip-path="url(#p7057fd3ac4)" d="M 429.676729 200.439277 
Q 302.087977 232.952191 175.582637 265.189023 
" style="fill:none;stroke:#000000;stroke-linecap:round;"/>
    <path clip-path="url(#p7057fd3ac4)" d="M 179.952635 266.13935 
L 175.582637 265.189023 
L 178.964897 262.263221 
L 179.952635 266.13935 
z
" style="stroke:#000000;stroke-linecap:round;"/>
   </g>
   <g id="patch_116">
    <path clip-path="url(#p7057fd3ac4)" d="M 446.477234 196.224588 
Q 545.447784 171.787515 643.332898 147.61845 
" style="fill:none;stroke:#000000;stroke-linecap:round;"/>
    <path clip-path="url(#p7057fd3ac4)" d="M 638.970096 146.635617 
L 643.332898 147.61845 
L 639.92895 150.518992 
L 638.970096 146.635617 
z
" style="stroke:#000000;stroke-linecap:round;"/>
   </g>
   <g id="patch_117">
    <path clip-path="url(#p7057fd3ac4)" d="M 417.012672 206.138486 
Q 423.419867 235.24706 429.586721 263.263737 
" style="fill:none;stroke:#000000;stroke-linecap:round;"/>
    <path clip-path="url(#p7057fd3ac4)" d="M 430.680093 258.927317 
L 429.586721 263.263737 
L 426.773608 259.787188 
L 430.680093 258.927317 
z
" style="stroke:#000000;stroke-linecap:round;"/>
   </g>
   <g id="patch_118">
    <path clip-path="url(#p7057fd3ac4)" d="M 423.734547 196.538169 
Q 462.842529 191.349804 500.842187 186.308477 
" style="fill:none;stroke:#000000;stroke-linecap:round;"/>
    <path clip-path="url(#p7057fd3ac4)" d="M 496.6139 184.85191 
L 500.842187 186.308477 
L 497.139962 188.817167 
L 496.6139 184.85191 
z
" style="stroke:#000000;stroke-linecap:round;"/>
   </g>
   <g id="patch_119">
    <path clip-path="url(#p7057fd3ac4)" d="M 406.808936 200.019101 
Q 290.627869 232.640536 175.52321 264.959736 
" style="fill:none;stroke:#000000;stroke-linecap:round;"/>
    <path clip-path="url(#p7057fd3ac4)" d="M 179.914938 265.803965 
L 175.52321 264.959736 
L 178.83363 261.952891 
L 179.914938 265.803965 
z
" style="stroke:#000000;stroke-linecap:round;"/>
   </g>
   <g id="patch_120">
    <path clip-path="url(#p7057fd3ac4)" d="M 423.603987 195.813148 
Q 533.989253 171.475473 643.282708 147.378519 
" style="fill:none;stroke:#000000;stroke-linecap:round;"/>
    <path clip-path="url(#p7057fd3ac4)" d="M 638.945906 146.28666 
L 643.282708 147.378519 
L 639.80714 150.192845 
L 638.945906 146.28666 
z
" style="stroke:#000000;stroke-linecap:round;"/>
   </g>
   <g id="patch_121">
    <path clip-path="url(#p7057fd3ac4)" d="M 438.128007 267.021728 
Q 442.868954 262.754801 446.778879 259.235807 
" style="fill:none;stroke:#000000;stroke-linecap:round;"/>
    <path clip-path="url(#p7057fd3ac4)" d="M 442.467783 260.425115 
L 446.778879 259.235807 
L 445.143668 263.398268 
L 442.467783 260.425115 
z
" style="stroke:#000000;stroke-linecap:round;"/>
   </g>
   <g id="patch_122">
    <path clip-path="url(#p7057fd3ac4)" d="M 428.468373 264.774278 
Q 419.76485 243.043465 411.477016 222.350536 
" style="fill:none;stroke:#000000;stroke-linecap:round;"/>
    <path clip-path="url(#p7057fd3ac4)" d="M 411.107605 226.807388 
L 411.477016 222.350536 
L 414.820851 225.320176 
L 411.107605 226.807388 
z
" style="stroke:#000000;stroke-linecap:round;"/>
   </g>
   <g id="patch_123">
    <path clip-path="url(#p7057fd3ac4)" d="M 431.389311 264.162315 
Q 430.152395 228.494116 428.954227 193.94328 
" style="fill:none;stroke:#000000;stroke-linecap:round;"/>
    <path clip-path="url(#p7057fd3ac4)" d="M 427.094059 198.010192 
L 428.954227 193.94328 
L 431.091656 197.871562 
L 427.094059 198.010192 
z
" style="stroke:#000000;stroke-linecap:round;"/>
   </g>
   <g id="patch_124">
    <path clip-path="url(#p7057fd3ac4)" d="M 504.986703 191.670149 
Q 482.292365 218.857472 460.314487 245.186491 
" style="fill:none;stroke:#000000;stroke-linecap:round;"/>
    <path clip-path="url(#p7057fd3ac4)" d="M 464.413152 243.397374 
L 460.314487 245.186491 
L 461.342392 240.834088 
L 464.413152 243.397374 
z
" style="stroke:#000000;stroke-linecap:round;"/>
   </g>
   <g id="patch_125">
    <path clip-path="url(#p7057fd3ac4)" d="M 502.183806 187.32024 
Q 459.189139 199.148886 417.272455 210.680958 
" style="fill:none;stroke:#000000;stroke-linecap:round;"/>
    <path clip-path="url(#p7057fd3ac4)" d="M 421.659685 211.548258 
L 417.272455 210.680958 
L 420.598633 207.691554 
L 421.659685 211.548258 
z
" style="stroke:#000000;stroke-linecap:round;"/>
   </g>
   <g id="patch_126">
    <path clip-path="url(#p7057fd3ac4)" d="M 501.878248 184.932303 
Q 469.577528 184.595977 438.394781 184.271292 
" style="fill:none;stroke:#000000;stroke-linecap:round;"/>
    <path clip-path="url(#p7057fd3ac4)" d="M 442.37374 186.312831 
L 438.394781 184.271292 
L 442.415387 182.313047 
L 442.37374 186.312831 
z
" style="stroke:#000000;stroke-linecap:round;"/>
   </g>
   <g id="PathCollection_1">
    <defs>
     <path d="M 0 8.660254 
C 2.296726 8.660254 4.499694 7.747755 6.123724 6.123724 
C 7.747755 4.499694 8.660254 2.296726 8.660254 -0 
C 8.660254 -2.296726 7.747755 -4.499694 6.123724 -6.123724 
C 4.499694 -7.747755 2.296726 -8.660254 0 -8.660254 
C -2.296726 -8.660254 -4.499694 -7.747755 -6.123724 -6.123724 
C -7.747755 -4.499694 -8.660254 -2.296726 -8.660254 0 
C -8.660254 2.296726 -7.747755 4.499694 -6.123724 6.123724 
C -4.499694 7.747755 -2.296726 8.660254 0 8.660254 
z
" id="C0_0_8ad918bcb9"/>
    </defs>
    <g clip-path="url(#p7057fd3ac4)">
     <use style="fill:#ff0000;stroke:#ff0000;" x="306.813791" xlink:href="#C0_0_8ad918bcb9" y="152.688474"/>
    </g>
    <g clip-path="url(#p7057fd3ac4)">
     <use style="fill:#ff0000;stroke:#ff0000;" x="351.586796" xlink:href="#C0_0_8ad918bcb9" y="402.780932"/>
    </g>
    <g clip-path="url(#p7057fd3ac4)">
     <use style="fill:#ff0000;stroke:#ff0000;" x="385.098703" xlink:href="#C0_0_8ad918bcb9" y="261.696873"/>
    </g>
    <g clip-path="url(#p7057fd3ac4)">
     <use style="fill:#ff0000;stroke:#ff0000;" x="418.45083" xlink:href="#C0_0_8ad918bcb9" y="240.951873"/>
    </g>
    <g clip-path="url(#p7057fd3ac4)">
     <use style="fill:#ff0000;stroke:#ff0000;" x="492.724558" xlink:href="#C0_0_8ad918bcb9" y="383.352508"/>
    </g>
    <g clip-path="url(#p7057fd3ac4)">
     <use style="fill:#ff0000;stroke:#ff0000;" x="434.064054" xlink:href="#C0_0_8ad918bcb9" y="215.161143"/>
    </g>
    <g clip-path="url(#p7057fd3ac4)">
     <use style="fill:#ff0000;stroke:#ff0000;" x="712.977229" xlink:href="#C0_0_8ad918bcb9" y="389.897913"/>
    </g>
    <g clip-path="url(#p7057fd3ac4)">
     <use style="fill:#ff0000;stroke:#ff0000;" x="280.137549" xlink:href="#C0_0_8ad918bcb9" y="146.061109"/>
    </g>
    <g clip-path="url(#p7057fd3ac4)">
     <use style="fill:#ff0000;stroke:#ff0000;" x="361.589808" xlink:href="#C0_0_8ad918bcb9" y="148.685919"/>
    </g>
    <g clip-path="url(#p7057fd3ac4)">
     <use style="fill:#ff0000;stroke:#ff0000;" x="328.953248" xlink:href="#C0_0_8ad918bcb9" y="220.750634"/>
    </g>
    <g clip-path="url(#p7057fd3ac4)">
     <use style="fill:#ff0000;stroke:#ff0000;" x="388.172361" xlink:href="#C0_0_8ad918bcb9" y="195.458116"/>
    </g>
    <g clip-path="url(#p7057fd3ac4)">
     <use style="fill:#ff0000;stroke:#ff0000;" x="428.615286" xlink:href="#C0_0_8ad918bcb9" y="184.169465"/>
    </g>
    <g clip-path="url(#p7057fd3ac4)">
     <use style="fill:#ff0000;stroke:#ff0000;" x="523.282165" xlink:href="#C0_0_8ad918bcb9" y="257.389877"/>
    </g>
    <g clip-path="url(#p7057fd3ac4)">
     <use style="fill:#ff0000;stroke:#ff0000;" x="454.048415" xlink:href="#C0_0_8ad918bcb9" y="252.693109"/>
    </g>
    <g clip-path="url(#p7057fd3ac4)">
     <use style="fill:#ff0000;stroke:#ff0000;" x="488.318546" xlink:href="#C0_0_8ad918bcb9" y="221.9354"/>
    </g>
    <g clip-path="url(#p7057fd3ac4)">
     <use style="fill:#ff0000;stroke:#ff0000;" x="407.842277" xlink:href="#C0_0_8ad918bcb9" y="213.275378"/>
    </g>
    <g clip-path="url(#p7057fd3ac4)">
     <use style="fill:#ff0000;stroke:#ff0000;" x="468.757293" xlink:href="#C0_0_8ad918bcb9" y="107.607273"/>
    </g>
    <g clip-path="url(#p7057fd3ac4)">
     <use style="fill:#ff0000;stroke:#ff0000;" x="281.250419" xlink:href="#C0_0_8ad918bcb9" y="440.727239"/>
    </g>
    <g clip-path="url(#p7057fd3ac4)">
     <use style="fill:#ff0000;stroke:#ff0000;" x="719.494215" xlink:href="#C0_0_8ad918bcb9" y="226.618634"/>
    </g>
    <g clip-path="url(#p7057fd3ac4)">
     <use style="fill:#ff0000;stroke:#ff0000;" x="401.564073" xlink:href="#C0_0_8ad918bcb9" y="308.209113"/>
    </g>
    <g clip-path="url(#p7057fd3ac4)">
     <use style="fill:#ff0000;stroke:#ff0000;" x="413.869946" xlink:href="#C0_0_8ad918bcb9" y="306.801117"/>
    </g>
    <g clip-path="url(#p7057fd3ac4)">
     <use style="fill:#ff0000;stroke:#ff0000;" x="638.433196" xlink:href="#C0_0_8ad918bcb9" y="442.003144"/>
    </g>
    <g clip-path="url(#p7057fd3ac4)">
     <use style="fill:#ff0000;stroke:#ff0000;" x="387.931186" xlink:href="#C0_0_8ad918bcb9" y="474.152727"/>
    </g>
    <g clip-path="url(#p7057fd3ac4)">
     <use style="fill:#ff0000;stroke:#ff0000;" x="184.646421" xlink:href="#C0_0_8ad918bcb9" y="324.791525"/>
    </g>
    <g clip-path="url(#p7057fd3ac4)">
     <use style="fill:#ff0000;stroke:#ff0000;" x="401.41672" xlink:href="#C0_0_8ad918bcb9" y="364.180975"/>
    </g>
    <g clip-path="url(#p7057fd3ac4)">
     <use style="fill:#ff0000;stroke:#ff0000;" x="426.665939" xlink:href="#C0_0_8ad918bcb9" y="374.585108"/>
    </g>
    <g clip-path="url(#p7057fd3ac4)">
     <use style="fill:#ff0000;stroke:#ff0000;" x="430.539344" xlink:href="#C0_0_8ad918bcb9" y="230.271527"/>
    </g>
    <g clip-path="url(#p7057fd3ac4)">
     <use style="fill:#ff0000;stroke:#ff0000;" x="398.584969" xlink:href="#C0_0_8ad918bcb9" y="244.939065"/>
    </g>
    <g clip-path="url(#p7057fd3ac4)">
     <use style="fill:#ff0000;stroke:#ff0000;" x="409.675347" xlink:href="#C0_0_8ad918bcb9" y="221.913559"/>
    </g>
    <g clip-path="url(#p7057fd3ac4)">
     <use style="fill:#ff0000;stroke:#ff0000;" x="278.32978" xlink:href="#C0_0_8ad918bcb9" y="175.650862"/>
    </g>
    <g clip-path="url(#p7057fd3ac4)">
     <use style="fill:#ff0000;stroke:#ff0000;" x="341.045584" xlink:href="#C0_0_8ad918bcb9" y="193.582221"/>
    </g>
    <g clip-path="url(#p7057fd3ac4)">
     <use style="fill:#ff0000;stroke:#ff0000;" x="473.458484" xlink:href="#C0_0_8ad918bcb9" y="315.756101"/>
    </g>
    <g clip-path="url(#p7057fd3ac4)">
     <use style="fill:#ff0000;stroke:#ff0000;" x="336.170219" xlink:href="#C0_0_8ad918bcb9" y="267.627747"/>
    </g>
    <g clip-path="url(#p7057fd3ac4)">
     <use style="fill:#ff0000;stroke:#ff0000;" x="366.600408" xlink:href="#C0_0_8ad918bcb9" y="274.766599"/>
    </g>
    <g clip-path="url(#p7057fd3ac4)">
     <use style="fill:#ff0000;stroke:#ff0000;" x="438.071924" xlink:href="#C0_0_8ad918bcb9" y="198.299964"/>
    </g>
    <g clip-path="url(#p7057fd3ac4)">
     <use style="fill:#ff0000;stroke:#ff0000;" x="415.150191" xlink:href="#C0_0_8ad918bcb9" y="197.677036"/>
    </g>
    <g clip-path="url(#p7057fd3ac4)">
     <use style="fill:#ff0000;stroke:#ff0000;" x="431.689427" xlink:href="#C0_0_8ad918bcb9" y="272.816552"/>
    </g>
    <g clip-path="url(#p7057fd3ac4)">
     <use style="fill:#ff0000;stroke:#ff0000;" x="510.535803" xlink:href="#C0_0_8ad918bcb9" y="185.022448"/>
    </g>
    <g clip-path="url(#p7057fd3ac4)">
     <use style="fill:#ff0000;stroke:#ff0000;" x="166.105785" xlink:href="#C0_0_8ad918bcb9" y="267.60397"/>
    </g>
    <g clip-path="url(#p7057fd3ac4)">
     <use style="fill:#ff0000;stroke:#ff0000;" x="652.82843" xlink:href="#C0_0_8ad918bcb9" y="145.273884"/>
    </g>
   </g>
   <g id="text_1">
    <g clip-path="url(#p7057fd3ac4)">
     <!-- IFNG -->
     <g transform="translate(292.455041 155.999724)scale(0.12 -0.12)">
      <defs>
       <path d="M 9.8125 72.90625 
L 19.671875 72.90625 
L 19.671875 0 
L 9.8125 0 
z
" id="DejaVuSans-73"/>
       <path d="M 9.8125 72.90625 
L 51.703125 72.90625 
L 51.703125 64.59375 
L 19.671875 64.59375 
L 19.671875 43.109375 
L 48.578125 43.109375 
L 48.578125 34.8125 
L 19.671875 34.8125 
L 19.671875 0 
L 9.8125 0 
z
" id="DejaVuSans-70"/>
       <path d="M 9.8125 72.90625 
L 23.09375 72.90625 
L 55.421875 11.921875 
L 55.421875 72.90625 
L 64.984375 72.90625 
L 64.984375 0 
L 51.703125 0 
L 19.390625 60.984375 
L 19.390625 0 
L 9.8125 0 
z
" id="DejaVuSans-78"/>
       <path d="M 59.515625 10.40625 
L 59.515625 29.984375 
L 43.40625 29.984375 
L 43.40625 38.09375 
L 69.28125 38.09375 
L 69.28125 6.78125 
Q 63.578125 2.734375 56.6875 0.65625 
Q 49.8125 -1.421875 42 -1.421875 
Q 24.90625 -1.421875 15.25 8.5625 
Q 5.609375 18.5625 5.609375 36.375 
Q 5.609375 54.25 15.25 64.234375 
Q 24.90625 74.21875 42 74.21875 
Q 49.125 74.21875 55.546875 72.453125 
Q 61.96875 70.703125 67.390625 67.28125 
L 67.390625 56.78125 
Q 61.921875 61.421875 55.765625 63.765625 
Q 49.609375 66.109375 42.828125 66.109375 
Q 29.4375 66.109375 22.71875 58.640625 
Q 16.015625 51.171875 16.015625 36.375 
Q 16.015625 21.625 22.71875 14.15625 
Q 29.4375 6.6875 42.828125 6.6875 
Q 48.046875 6.6875 52.140625 7.59375 
Q 56.25 8.5 59.515625 10.40625 
z
" id="DejaVuSans-71"/>
      </defs>
      <use xlink:href="#DejaVuSans-73"/>
      <use x="29.492188" xlink:href="#DejaVuSans-70"/>
      <use x="87.011719" xlink:href="#DejaVuSans-78"/>
      <use x="161.816406" xlink:href="#DejaVuSans-71"/>
     </g>
    </g>
   </g>
   <g id="text_2">
    <g clip-path="url(#p7057fd3ac4)">
     <!-- PRKCQ -->
     <g transform="translate(331.282421 406.092182)scale(0.12 -0.12)">
      <defs>
       <path d="M 19.671875 64.796875 
L 19.671875 37.40625 
L 32.078125 37.40625 
Q 38.96875 37.40625 42.71875 40.96875 
Q 46.484375 44.53125 46.484375 51.125 
Q 46.484375 57.671875 42.71875 61.234375 
Q 38.96875 64.796875 32.078125 64.796875 
z
M 9.8125 72.90625 
L 32.078125 72.90625 
Q 44.34375 72.90625 50.609375 67.359375 
Q 56.890625 61.8125 56.890625 51.125 
Q 56.890625 40.328125 50.609375 34.8125 
Q 44.34375 29.296875 32.078125 29.296875 
L 19.671875 29.296875 
L 19.671875 0 
L 9.8125 0 
z
" id="DejaVuSans-80"/>
       <path d="M 44.390625 34.1875 
Q 47.5625 33.109375 50.5625 29.59375 
Q 53.5625 26.078125 56.59375 19.921875 
L 66.609375 0 
L 56 0 
L 46.6875 18.703125 
Q 43.0625 26.03125 39.671875 28.421875 
Q 36.28125 30.8125 30.421875 30.8125 
L 19.671875 30.8125 
L 19.671875 0 
L 9.8125 0 
L 9.8125 72.90625 
L 32.078125 72.90625 
Q 44.578125 72.90625 50.734375 67.671875 
Q 56.890625 62.453125 56.890625 51.90625 
Q 56.890625 45.015625 53.6875 40.46875 
Q 50.484375 35.9375 44.390625 34.1875 
z
M 19.671875 64.796875 
L 19.671875 38.921875 
L 32.078125 38.921875 
Q 39.203125 38.921875 42.84375 42.21875 
Q 46.484375 45.515625 46.484375 51.90625 
Q 46.484375 58.296875 42.84375 61.546875 
Q 39.203125 64.796875 32.078125 64.796875 
z
" id="DejaVuSans-82"/>
       <path d="M 9.8125 72.90625 
L 19.671875 72.90625 
L 19.671875 42.09375 
L 52.390625 72.90625 
L 65.09375 72.90625 
L 28.90625 38.921875 
L 67.671875 0 
L 54.6875 0 
L 19.671875 35.109375 
L 19.671875 0 
L 9.8125 0 
z
" id="DejaVuSans-75"/>
       <path d="M 64.40625 67.28125 
L 64.40625 56.890625 
Q 59.421875 61.53125 53.78125 63.8125 
Q 48.140625 66.109375 41.796875 66.109375 
Q 29.296875 66.109375 22.65625 58.46875 
Q 16.015625 50.828125 16.015625 36.375 
Q 16.015625 21.96875 22.65625 14.328125 
Q 29.296875 6.6875 41.796875 6.6875 
Q 48.140625 6.6875 53.78125 8.984375 
Q 59.421875 11.28125 64.40625 15.921875 
L 64.40625 5.609375 
Q 59.234375 2.09375 53.4375 0.328125 
Q 47.65625 -1.421875 41.21875 -1.421875 
Q 24.65625 -1.421875 15.125 8.703125 
Q 5.609375 18.84375 5.609375 36.375 
Q 5.609375 53.953125 15.125 64.078125 
Q 24.65625 74.21875 41.21875 74.21875 
Q 47.75 74.21875 53.53125 72.484375 
Q 59.328125 70.75 64.40625 67.28125 
z
" id="DejaVuSans-67"/>
       <path d="M 39.40625 66.21875 
Q 28.65625 66.21875 22.328125 58.203125 
Q 16.015625 50.203125 16.015625 36.375 
Q 16.015625 22.609375 22.328125 14.59375 
Q 28.65625 6.59375 39.40625 6.59375 
Q 50.140625 6.59375 56.421875 14.59375 
Q 62.703125 22.609375 62.703125 36.375 
Q 62.703125 50.203125 56.421875 58.203125 
Q 50.140625 66.21875 39.40625 66.21875 
z
M 53.21875 1.3125 
L 66.21875 -12.890625 
L 54.296875 -12.890625 
L 43.5 -1.21875 
Q 41.890625 -1.3125 41.03125 -1.359375 
Q 40.1875 -1.421875 39.40625 -1.421875 
Q 24.03125 -1.421875 14.8125 8.859375 
Q 5.609375 19.140625 5.609375 36.375 
Q 5.609375 53.65625 14.8125 63.9375 
Q 24.03125 74.21875 39.40625 74.21875 
Q 54.734375 74.21875 63.90625 63.9375 
Q 73.09375 53.65625 73.09375 36.375 
Q 73.09375 23.6875 67.984375 14.640625 
Q 62.890625 5.609375 53.21875 1.3125 
z
" id="DejaVuSans-81"/>
      </defs>
      <use xlink:href="#DejaVuSans-80"/>
      <use x="60.302734" xlink:href="#DejaVuSans-82"/>
      <use x="129.785156" xlink:href="#DejaVuSans-75"/>
      <use x="189.861328" xlink:href="#DejaVuSans-67"/>
      <use x="259.685547" xlink:href="#DejaVuSans-81"/>
     </g>
    </g>
   </g>
   <g id="text_3">
    <g clip-path="url(#p7057fd3ac4)">
     <!-- ZAP70 -->
     <g transform="translate(365.631515 265.008123)scale(0.12 -0.12)">
      <defs>
       <path d="M 5.609375 72.90625 
L 62.890625 72.90625 
L 62.890625 65.375 
L 16.796875 8.296875 
L 64.015625 8.296875 
L 64.015625 0 
L 4.5 0 
L 4.5 7.515625 
L 50.59375 64.59375 
L 5.609375 64.59375 
z
" id="DejaVuSans-90"/>
       <path d="M 34.1875 63.1875 
L 20.796875 26.90625 
L 47.609375 26.90625 
z
M 28.609375 72.90625 
L 39.796875 72.90625 
L 67.578125 0 
L 57.328125 0 
L 50.6875 18.703125 
L 17.828125 18.703125 
L 11.1875 0 
L 0.78125 0 
z
" id="DejaVuSans-65"/>
       <path d="M 8.203125 72.90625 
L 55.078125 72.90625 
L 55.078125 68.703125 
L 28.609375 0 
L 18.3125 0 
L 43.21875 64.59375 
L 8.203125 64.59375 
z
" id="DejaVuSans-55"/>
       <path d="M 31.78125 66.40625 
Q 24.171875 66.40625 20.328125 58.90625 
Q 16.5 51.421875 16.5 36.375 
Q 16.5 21.390625 20.328125 13.890625 
Q 24.171875 6.390625 31.78125 6.390625 
Q 39.453125 6.390625 43.28125 13.890625 
Q 47.125 21.390625 47.125 36.375 
Q 47.125 51.421875 43.28125 58.90625 
Q 39.453125 66.40625 31.78125 66.40625 
z
M 31.78125 74.21875 
Q 44.046875 74.21875 50.515625 64.515625 
Q 56.984375 54.828125 56.984375 36.375 
Q 56.984375 17.96875 50.515625 8.265625 
Q 44.046875 -1.421875 31.78125 -1.421875 
Q 19.53125 -1.421875 13.0625 8.265625 
Q 6.59375 17.96875 6.59375 36.375 
Q 6.59375 54.828125 13.0625 64.515625 
Q 19.53125 74.21875 31.78125 74.21875 
z
" id="DejaVuSans-48"/>
      </defs>
      <use xlink:href="#DejaVuSans-90"/>
      <use x="68.505859" xlink:href="#DejaVuSans-65"/>
      <use x="136.914062" xlink:href="#DejaVuSans-80"/>
      <use x="197.216797" xlink:href="#DejaVuSans-55"/>
      <use x="260.839844" xlink:href="#DejaVuSans-48"/>
     </g>
    </g>
   </g>
   <g id="text_4">
    <g clip-path="url(#p7057fd3ac4)">
     <!-- JUN -->
     <g transform="translate(407.80083 244.263123)scale(0.12 -0.12)">
      <defs>
       <path d="M 9.8125 72.90625 
L 19.671875 72.90625 
L 19.671875 5.078125 
Q 19.671875 -8.109375 14.671875 -14.0625 
Q 9.671875 -20.015625 -1.421875 -20.015625 
L -5.171875 -20.015625 
L -5.171875 -11.71875 
L -2.09375 -11.71875 
Q 4.4375 -11.71875 7.125 -8.046875 
Q 9.8125 -4.390625 9.8125 5.078125 
z
" id="DejaVuSans-74"/>
       <path d="M 8.6875 72.90625 
L 18.609375 72.90625 
L 18.609375 28.609375 
Q 18.609375 16.890625 22.84375 11.734375 
Q 27.09375 6.59375 36.625 6.59375 
Q 46.09375 6.59375 50.34375 11.734375 
Q 54.59375 16.890625 54.59375 28.609375 
L 54.59375 72.90625 
L 64.5 72.90625 
L 64.5 27.390625 
Q 64.5 13.140625 57.4375 5.859375 
Q 50.390625 -1.421875 36.625 -1.421875 
Q 22.796875 -1.421875 15.734375 5.859375 
Q 8.6875 13.140625 8.6875 27.390625 
z
" id="DejaVuSans-85"/>
      </defs>
      <use xlink:href="#DejaVuSans-74"/>
      <use x="29.492188" xlink:href="#DejaVuSans-85"/>
      <use x="102.685547" xlink:href="#DejaVuSans-78"/>
     </g>
    </g>
   </g>
   <g id="text_5">
    <g clip-path="url(#p7057fd3ac4)">
     <!-- LAT -->
     <g transform="translate(481.94237 386.663758)scale(0.12 -0.12)">
      <defs>
       <path d="M 9.8125 72.90625 
L 19.671875 72.90625 
L 19.671875 8.296875 
L 55.171875 8.296875 
L 55.171875 0 
L 9.8125 0 
z
" id="DejaVuSans-76"/>
       <path d="M -0.296875 72.90625 
L 61.375 72.90625 
L 61.375 64.59375 
L 35.5 64.59375 
L 35.5 0 
L 25.59375 0 
L 25.59375 64.59375 
L -0.296875 64.59375 
z
" id="DejaVuSans-84"/>
      </defs>
      <use xlink:href="#DejaVuSans-76"/>
      <use x="57.962891" xlink:href="#DejaVuSans-65"/>
      <use x="118.621094" xlink:href="#DejaVuSans-84"/>
     </g>
    </g>
   </g>
   <g id="text_6">
    <g clip-path="url(#p7057fd3ac4)">
     <!-- FOS -->
     <g transform="translate(422.080929 218.472393)scale(0.12 -0.12)">
      <defs>
       <path d="M 39.40625 66.21875 
Q 28.65625 66.21875 22.328125 58.203125 
Q 16.015625 50.203125 16.015625 36.375 
Q 16.015625 22.609375 22.328125 14.59375 
Q 28.65625 6.59375 39.40625 6.59375 
Q 50.140625 6.59375 56.421875 14.59375 
Q 62.703125 22.609375 62.703125 36.375 
Q 62.703125 50.203125 56.421875 58.203125 
Q 50.140625 66.21875 39.40625 66.21875 
z
M 39.40625 74.21875 
Q 54.734375 74.21875 63.90625 63.9375 
Q 73.09375 53.65625 73.09375 36.375 
Q 73.09375 19.140625 63.90625 8.859375 
Q 54.734375 -1.421875 39.40625 -1.421875 
Q 24.03125 -1.421875 14.8125 8.828125 
Q 5.609375 19.09375 5.609375 36.375 
Q 5.609375 53.65625 14.8125 63.9375 
Q 24.03125 74.21875 39.40625 74.21875 
z
" id="DejaVuSans-79"/>
       <path d="M 53.515625 70.515625 
L 53.515625 60.890625 
Q 47.90625 63.578125 42.921875 64.890625 
Q 37.9375 66.21875 33.296875 66.21875 
Q 25.25 66.21875 20.875 63.09375 
Q 16.5 59.96875 16.5 54.203125 
Q 16.5 49.359375 19.40625 46.890625 
Q 22.3125 44.4375 30.421875 42.921875 
L 36.375 41.703125 
Q 47.40625 39.59375 52.65625 34.296875 
Q 57.90625 29 57.90625 20.125 
Q 57.90625 9.515625 50.796875 4.046875 
Q 43.703125 -1.421875 29.984375 -1.421875 
Q 24.8125 -1.421875 18.96875 -0.25 
Q 13.140625 0.921875 6.890625 3.21875 
L 6.890625 13.375 
Q 12.890625 10.015625 18.65625 8.296875 
Q 24.421875 6.59375 29.984375 6.59375 
Q 38.421875 6.59375 43.015625 9.90625 
Q 47.609375 13.234375 47.609375 19.390625 
Q 47.609375 24.75 44.3125 27.78125 
Q 41.015625 30.8125 33.5 32.328125 
L 27.484375 33.5 
Q 16.453125 35.6875 11.515625 40.375 
Q 6.59375 45.0625 6.59375 53.421875 
Q 6.59375 63.09375 13.40625 68.65625 
Q 20.21875 74.21875 32.171875 74.21875 
Q 37.3125 74.21875 42.625 73.28125 
Q 47.953125 72.359375 53.515625 70.515625 
z
" id="DejaVuSans-83"/>
      </defs>
      <use xlink:href="#DejaVuSans-70"/>
      <use x="57.519531" xlink:href="#DejaVuSans-79"/>
      <use x="136.230469" xlink:href="#DejaVuSans-83"/>
     </g>
    </g>
   </g>
   <g id="text_7">
    <g clip-path="url(#p7057fd3ac4)">
     <!-- PLCG1 -->
     <g transform="translate(693.360041 393.209163)scale(0.12 -0.12)">
      <defs>
       <path d="M 12.40625 8.296875 
L 28.515625 8.296875 
L 28.515625 63.921875 
L 10.984375 60.40625 
L 10.984375 69.390625 
L 28.421875 72.90625 
L 38.28125 72.90625 
L 38.28125 8.296875 
L 54.390625 8.296875 
L 54.390625 0 
L 12.40625 0 
z
" id="DejaVuSans-49"/>
      </defs>
      <use xlink:href="#DejaVuSans-80"/>
      <use x="60.302734" xlink:href="#DejaVuSans-76"/>
      <use x="116.015625" xlink:href="#DejaVuSans-67"/>
      <use x="185.839844" xlink:href="#DejaVuSans-71"/>
      <use x="263.330078" xlink:href="#DejaVuSans-49"/>
     </g>
    </g>
   </g>
   <g id="text_8">
    <g clip-path="url(#p7057fd3ac4)">
     <!-- CD4 -->
     <g transform="translate(267.510361 149.372359)scale(0.12 -0.12)">
      <defs>
       <path d="M 19.671875 64.796875 
L 19.671875 8.109375 
L 31.59375 8.109375 
Q 46.6875 8.109375 53.6875 14.9375 
Q 60.6875 21.78125 60.6875 36.53125 
Q 60.6875 51.171875 53.6875 57.984375 
Q 46.6875 64.796875 31.59375 64.796875 
z
M 9.8125 72.90625 
L 30.078125 72.90625 
Q 51.265625 72.90625 61.171875 64.09375 
Q 71.09375 55.28125 71.09375 36.53125 
Q 71.09375 17.671875 61.125 8.828125 
Q 51.171875 0 30.078125 0 
L 9.8125 0 
z
" id="DejaVuSans-68"/>
       <path d="M 37.796875 64.3125 
L 12.890625 25.390625 
L 37.796875 25.390625 
z
M 35.203125 72.90625 
L 47.609375 72.90625 
L 47.609375 25.390625 
L 58.015625 25.390625 
L 58.015625 17.1875 
L 47.609375 17.1875 
L 47.609375 0 
L 37.796875 0 
L 37.796875 17.1875 
L 4.890625 17.1875 
L 4.890625 26.703125 
z
" id="DejaVuSans-52"/>
      </defs>
      <use xlink:href="#DejaVuSans-67"/>
      <use x="69.824219" xlink:href="#DejaVuSans-68"/>
      <use x="146.826172" xlink:href="#DejaVuSans-52"/>
     </g>
    </g>
   </g>
   <g id="text_9">
    <g clip-path="url(#p7057fd3ac4)">
     <!-- LCK -->
     <g transform="translate(350.122308 151.997169)scale(0.12 -0.12)">
      <use xlink:href="#DejaVuSans-76"/>
      <use x="55.712891" xlink:href="#DejaVuSans-67"/>
      <use x="125.537109" xlink:href="#DejaVuSans-75"/>
     </g>
    </g>
   </g>
   <g id="text_10">
    <g clip-path="url(#p7057fd3ac4)">
     <!-- STAT1 -->
     <g transform="translate(310.822936 224.061884)scale(0.12 -0.12)">
      <use xlink:href="#DejaVuSans-83"/>
      <use x="63.476562" xlink:href="#DejaVuSans-84"/>
      <use x="116.810547" xlink:href="#DejaVuSans-65"/>
      <use x="177.46875" xlink:href="#DejaVuSans-84"/>
      <use x="238.552734" xlink:href="#DejaVuSans-49"/>
     </g>
    </g>
   </g>
   <g id="text_11">
    <g clip-path="url(#p7057fd3ac4)">
     <!-- STAT4 -->
     <g transform="translate(370.042049 198.769366)scale(0.12 -0.12)">
      <use xlink:href="#DejaVuSans-83"/>
      <use x="63.476562" xlink:href="#DejaVuSans-84"/>
      <use x="116.810547" xlink:href="#DejaVuSans-65"/>
      <use x="177.46875" xlink:href="#DejaVuSans-84"/>
      <use x="238.552734" xlink:href="#DejaVuSans-52"/>
     </g>
    </g>
   </g>
   <g id="text_12">
    <g clip-path="url(#p7057fd3ac4)">
     <!-- IL4R -->
     <g transform="translate(415.515599 187.480715)scale(0.12 -0.12)">
      <use xlink:href="#DejaVuSans-73"/>
      <use x="29.492188" xlink:href="#DejaVuSans-76"/>
      <use x="85.205078" xlink:href="#DejaVuSans-52"/>
      <use x="148.828125" xlink:href="#DejaVuSans-82"/>
     </g>
    </g>
   </g>
   <g id="text_13">
    <g clip-path="url(#p7057fd3ac4)">
     <!-- STAT6 -->
     <g transform="translate(505.151853 260.701127)scale(0.12 -0.12)">
      <defs>
       <path d="M 33.015625 40.375 
Q 26.375 40.375 22.484375 35.828125 
Q 18.609375 31.296875 18.609375 23.390625 
Q 18.609375 15.53125 22.484375 10.953125 
Q 26.375 6.390625 33.015625 6.390625 
Q 39.65625 6.390625 43.53125 10.953125 
Q 47.40625 15.53125 47.40625 23.390625 
Q 47.40625 31.296875 43.53125 35.828125 
Q 39.65625 40.375 33.015625 40.375 
z
M 52.59375 71.296875 
L 52.59375 62.3125 
Q 48.875 64.0625 45.09375 64.984375 
Q 41.3125 65.921875 37.59375 65.921875 
Q 27.828125 65.921875 22.671875 59.328125 
Q 17.53125 52.734375 16.796875 39.40625 
Q 19.671875 43.65625 24.015625 45.921875 
Q 28.375 48.1875 33.59375 48.1875 
Q 44.578125 48.1875 50.953125 41.515625 
Q 57.328125 34.859375 57.328125 23.390625 
Q 57.328125 12.15625 50.6875 5.359375 
Q 44.046875 -1.421875 33.015625 -1.421875 
Q 20.359375 -1.421875 13.671875 8.265625 
Q 6.984375 17.96875 6.984375 36.375 
Q 6.984375 53.65625 15.1875 63.9375 
Q 23.390625 74.21875 37.203125 74.21875 
Q 40.921875 74.21875 44.703125 73.484375 
Q 48.484375 72.75 52.59375 71.296875 
z
" id="DejaVuSans-54"/>
      </defs>
      <use xlink:href="#DejaVuSans-83"/>
      <use x="63.476562" xlink:href="#DejaVuSans-84"/>
      <use x="116.810547" xlink:href="#DejaVuSans-65"/>
      <use x="177.46875" xlink:href="#DejaVuSans-84"/>
      <use x="238.552734" xlink:href="#DejaVuSans-54"/>
     </g>
    </g>
   </g>
   <g id="text_14">
    <g clip-path="url(#p7057fd3ac4)">
     <!-- GATA3 -->
     <g transform="translate(434.638415 256.004359)scale(0.12 -0.12)">
      <defs>
       <path d="M 40.578125 39.3125 
Q 47.65625 37.796875 51.625 33 
Q 55.609375 28.21875 55.609375 21.1875 
Q 55.609375 10.40625 48.1875 4.484375 
Q 40.765625 -1.421875 27.09375 -1.421875 
Q 22.515625 -1.421875 17.65625 -0.515625 
Q 12.796875 0.390625 7.625 2.203125 
L 7.625 11.71875 
Q 11.71875 9.328125 16.59375 8.109375 
Q 21.484375 6.890625 26.8125 6.890625 
Q 36.078125 6.890625 40.9375 10.546875 
Q 45.796875 14.203125 45.796875 21.1875 
Q 45.796875 27.640625 41.28125 31.265625 
Q 36.765625 34.90625 28.71875 34.90625 
L 20.21875 34.90625 
L 20.21875 43.015625 
L 29.109375 43.015625 
Q 36.375 43.015625 40.234375 45.921875 
Q 44.09375 48.828125 44.09375 54.296875 
Q 44.09375 59.90625 40.109375 62.90625 
Q 36.140625 65.921875 28.71875 65.921875 
Q 24.65625 65.921875 20.015625 65.03125 
Q 15.375 64.15625 9.8125 62.3125 
L 9.8125 71.09375 
Q 15.4375 72.65625 20.34375 73.4375 
Q 25.25 74.21875 29.59375 74.21875 
Q 40.828125 74.21875 47.359375 69.109375 
Q 53.90625 64.015625 53.90625 55.328125 
Q 53.90625 49.265625 50.4375 45.09375 
Q 46.96875 40.921875 40.578125 39.3125 
z
" id="DejaVuSans-51"/>
      </defs>
      <use xlink:href="#DejaVuSans-71"/>
      <use x="77.490234" xlink:href="#DejaVuSans-65"/>
      <use x="138.148438" xlink:href="#DejaVuSans-84"/>
      <use x="191.482422" xlink:href="#DejaVuSans-65"/>
      <use x="259.890625" xlink:href="#DejaVuSans-51"/>
     </g>
    </g>
   </g>
   <g id="text_15">
    <g clip-path="url(#p7057fd3ac4)">
     <!-- TBX21 -->
     <g transform="translate(468.792296 225.24665)scale(0.12 -0.12)">
      <defs>
       <path d="M 19.671875 34.8125 
L 19.671875 8.109375 
L 35.5 8.109375 
Q 43.453125 8.109375 47.28125 11.40625 
Q 51.125 14.703125 51.125 21.484375 
Q 51.125 28.328125 47.28125 31.5625 
Q 43.453125 34.8125 35.5 34.8125 
z
M 19.671875 64.796875 
L 19.671875 42.828125 
L 34.28125 42.828125 
Q 41.5 42.828125 45.03125 45.53125 
Q 48.578125 48.25 48.578125 53.8125 
Q 48.578125 59.328125 45.03125 62.0625 
Q 41.5 64.796875 34.28125 64.796875 
z
M 9.8125 72.90625 
L 35.015625 72.90625 
Q 46.296875 72.90625 52.390625 68.21875 
Q 58.5 63.53125 58.5 54.890625 
Q 58.5 48.1875 55.375 44.234375 
Q 52.25 40.28125 46.1875 39.3125 
Q 53.46875 37.75 57.5 32.78125 
Q 61.53125 27.828125 61.53125 20.40625 
Q 61.53125 10.640625 54.890625 5.3125 
Q 48.25 0 35.984375 0 
L 9.8125 0 
z
" id="DejaVuSans-66"/>
       <path d="M 6.296875 72.90625 
L 16.890625 72.90625 
L 35.015625 45.796875 
L 53.21875 72.90625 
L 63.8125 72.90625 
L 40.375 37.890625 
L 65.375 0 
L 54.78125 0 
L 34.28125 31 
L 13.625 0 
L 2.984375 0 
L 29 38.921875 
z
" id="DejaVuSans-88"/>
       <path d="M 19.1875 8.296875 
L 53.609375 8.296875 
L 53.609375 0 
L 7.328125 0 
L 7.328125 8.296875 
Q 12.9375 14.109375 22.625 23.890625 
Q 32.328125 33.6875 34.8125 36.53125 
Q 39.546875 41.84375 41.421875 45.53125 
Q 43.3125 49.21875 43.3125 52.78125 
Q 43.3125 58.59375 39.234375 62.25 
Q 35.15625 65.921875 28.609375 65.921875 
Q 23.96875 65.921875 18.8125 64.3125 
Q 13.671875 62.703125 7.8125 59.421875 
L 7.8125 69.390625 
Q 13.765625 71.78125 18.9375 73 
Q 24.125 74.21875 28.421875 74.21875 
Q 39.75 74.21875 46.484375 68.546875 
Q 53.21875 62.890625 53.21875 53.421875 
Q 53.21875 48.921875 51.53125 44.890625 
Q 49.859375 40.875 45.40625 35.40625 
Q 44.1875 33.984375 37.640625 27.21875 
Q 31.109375 20.453125 19.1875 8.296875 
z
" id="DejaVuSans-50"/>
      </defs>
      <use xlink:href="#DejaVuSans-84"/>
      <use x="61.083984" xlink:href="#DejaVuSans-66"/>
      <use x="129.6875" xlink:href="#DejaVuSans-88"/>
      <use x="198.193359" xlink:href="#DejaVuSans-50"/>
      <use x="261.816406" xlink:href="#DejaVuSans-49"/>
     </g>
    </g>
   </g>
   <g id="text_16">
    <g clip-path="url(#p7057fd3ac4)">
     <!-- IL2RA -->
     <g transform="translate(390.878214 216.586628)scale(0.12 -0.12)">
      <use xlink:href="#DejaVuSans-73"/>
      <use x="29.492188" xlink:href="#DejaVuSans-76"/>
      <use x="85.205078" xlink:href="#DejaVuSans-50"/>
      <use x="148.828125" xlink:href="#DejaVuSans-82"/>
      <use x="214.310547" xlink:href="#DejaVuSans-65"/>
     </g>
    </g>
   </g>
   <g id="text_17">
    <g clip-path="url(#p7057fd3ac4)">
     <!-- JAK2 -->
     <g transform="translate(455.23573 110.918523)scale(0.12 -0.12)">
      <use xlink:href="#DejaVuSans-74"/>
      <use x="27.742188" xlink:href="#DejaVuSans-65"/>
      <use x="96.150391" xlink:href="#DejaVuSans-75"/>
      <use x="161.726562" xlink:href="#DejaVuSans-50"/>
     </g>
    </g>
   </g>
   <g id="text_18">
    <g clip-path="url(#p7057fd3ac4)">
     <!-- TYK2 -->
     <g transform="translate(266.168857 444.038489)scale(0.12 -0.12)">
      <defs>
       <path d="M -0.203125 72.90625 
L 10.40625 72.90625 
L 30.609375 42.921875 
L 50.6875 72.90625 
L 61.28125 72.90625 
L 35.5 34.71875 
L 35.5 0 
L 25.59375 0 
L 25.59375 34.71875 
z
" id="DejaVuSans-89"/>
      </defs>
      <use xlink:href="#DejaVuSans-84"/>
      <use x="61.083984" xlink:href="#DejaVuSans-89"/>
      <use x="122.167969" xlink:href="#DejaVuSans-75"/>
      <use x="187.744141" xlink:href="#DejaVuSans-50"/>
     </g>
    </g>
   </g>
   <g id="text_19">
    <g clip-path="url(#p7057fd3ac4)">
     <!-- RUNX3 -->
     <g transform="translate(698.517652 229.929884)scale(0.12 -0.12)">
      <use xlink:href="#DejaVuSans-82"/>
      <use x="69.482422" xlink:href="#DejaVuSans-85"/>
      <use x="142.675781" xlink:href="#DejaVuSans-78"/>
      <use x="217.480469" xlink:href="#DejaVuSans-88"/>
      <use x="285.986328" xlink:href="#DejaVuSans-51"/>
     </g>
    </g>
   </g>
   <g id="text_20">
    <g clip-path="url(#p7057fd3ac4)">
     <!-- NFKB1 -->
     <g transform="translate(381.755636 311.520363)scale(0.12 -0.12)">
      <use xlink:href="#DejaVuSans-78"/>
      <use x="74.804688" xlink:href="#DejaVuSans-70"/>
      <use x="132.324219" xlink:href="#DejaVuSans-75"/>
      <use x="197.900391" xlink:href="#DejaVuSans-66"/>
      <use x="266.503906" xlink:href="#DejaVuSans-49"/>
     </g>
    </g>
   </g>
   <g id="text_21">
    <g clip-path="url(#p7057fd3ac4)">
     <!-- RELA -->
     <g transform="translate(398.327134 310.112367)scale(0.12 -0.12)">
      <defs>
       <path d="M 9.8125 72.90625 
L 55.90625 72.90625 
L 55.90625 64.59375 
L 19.671875 64.59375 
L 19.671875 43.015625 
L 54.390625 43.015625 
L 54.390625 34.71875 
L 19.671875 34.71875 
L 19.671875 8.296875 
L 56.78125 8.296875 
L 56.78125 0 
L 9.8125 0 
z
" id="DejaVuSans-69"/>
      </defs>
      <use xlink:href="#DejaVuSans-82"/>
      <use x="69.482422" xlink:href="#DejaVuSans-69"/>
      <use x="132.666016" xlink:href="#DejaVuSans-76"/>
      <use x="190.628906" xlink:href="#DejaVuSans-65"/>
     </g>
    </g>
   </g>
   <g id="text_22">
    <g clip-path="url(#p7057fd3ac4)">
     <!-- NFKBIB -->
     <g transform="translate(616.555696 445.314394)scale(0.12 -0.12)">
      <use xlink:href="#DejaVuSans-78"/>
      <use x="74.804688" xlink:href="#DejaVuSans-70"/>
      <use x="132.324219" xlink:href="#DejaVuSans-75"/>
      <use x="197.900391" xlink:href="#DejaVuSans-66"/>
      <use x="266.503906" xlink:href="#DejaVuSans-73"/>
      <use x="295.996094" xlink:href="#DejaVuSans-66"/>
     </g>
    </g>
   </g>
   <g id="text_23">
    <g clip-path="url(#p7057fd3ac4)">
     <!-- NFKBIA -->
     <g transform="translate(366.065874 477.463977)scale(0.12 -0.12)">
      <use xlink:href="#DejaVuSans-78"/>
      <use x="74.804688" xlink:href="#DejaVuSans-70"/>
      <use x="132.324219" xlink:href="#DejaVuSans-75"/>
      <use x="197.900391" xlink:href="#DejaVuSans-66"/>
      <use x="266.503906" xlink:href="#DejaVuSans-73"/>
      <use x="295.996094" xlink:href="#DejaVuSans-65"/>
     </g>
    </g>
   </g>
   <g id="text_24">
    <g clip-path="url(#p7057fd3ac4)">
     <!-- NFKBIE -->
     <g transform="translate(163.094233 328.102775)scale(0.12 -0.12)">
      <use xlink:href="#DejaVuSans-78"/>
      <use x="74.804688" xlink:href="#DejaVuSans-70"/>
      <use x="132.324219" xlink:href="#DejaVuSans-75"/>
      <use x="197.900391" xlink:href="#DejaVuSans-66"/>
      <use x="266.503906" xlink:href="#DejaVuSans-73"/>
      <use x="295.996094" xlink:href="#DejaVuSans-69"/>
     </g>
    </g>
   </g>
   <g id="text_25">
    <g clip-path="url(#p7057fd3ac4)">
     <!-- IKBKB -->
     <g transform="translate(383.54422 367.492225)scale(0.12 -0.12)">
      <use xlink:href="#DejaVuSans-73"/>
      <use x="29.492188" xlink:href="#DejaVuSans-75"/>
      <use x="95.068359" xlink:href="#DejaVuSans-66"/>
      <use x="163.671875" xlink:href="#DejaVuSans-75"/>
      <use x="229.248047" xlink:href="#DejaVuSans-66"/>
     </g>
    </g>
   </g>
   <g id="text_26">
    <g clip-path="url(#p7057fd3ac4)">
     <!-- IKBKG -->
     <g transform="translate(408.260939 377.896358)scale(0.12 -0.12)">
      <use xlink:href="#DejaVuSans-73"/>
      <use x="29.492188" xlink:href="#DejaVuSans-75"/>
      <use x="95.068359" xlink:href="#DejaVuSans-66"/>
      <use x="163.671875" xlink:href="#DejaVuSans-75"/>
      <use x="229.248047" xlink:href="#DejaVuSans-71"/>
     </g>
    </g>
   </g>
   <g id="text_27">
    <g clip-path="url(#p7057fd3ac4)">
     <!-- NFATC2 -->
     <g transform="translate(408.188406 233.582777)scale(0.12 -0.12)">
      <use xlink:href="#DejaVuSans-78"/>
      <use x="74.804688" xlink:href="#DejaVuSans-70"/>
      <use x="123.199219" xlink:href="#DejaVuSans-65"/>
      <use x="183.857422" xlink:href="#DejaVuSans-84"/>
      <use x="239.066406" xlink:href="#DejaVuSans-67"/>
      <use x="308.890625" xlink:href="#DejaVuSans-50"/>
     </g>
    </g>
   </g>
   <g id="text_28">
    <g clip-path="url(#p7057fd3ac4)">
     <!-- NFATC1 -->
     <g transform="translate(376.234032 248.250315)scale(0.12 -0.12)">
      <use xlink:href="#DejaVuSans-78"/>
      <use x="74.804688" xlink:href="#DejaVuSans-70"/>
      <use x="123.199219" xlink:href="#DejaVuSans-65"/>
      <use x="183.857422" xlink:href="#DejaVuSans-84"/>
      <use x="239.066406" xlink:href="#DejaVuSans-67"/>
      <use x="308.890625" xlink:href="#DejaVuSans-49"/>
     </g>
    </g>
   </g>
   <g id="text_29">
    <g clip-path="url(#p7057fd3ac4)">
     <!-- NFATC3 -->
     <g transform="translate(387.32441 225.224809)scale(0.12 -0.12)">
      <use xlink:href="#DejaVuSans-78"/>
      <use x="74.804688" xlink:href="#DejaVuSans-70"/>
      <use x="123.199219" xlink:href="#DejaVuSans-65"/>
      <use x="183.857422" xlink:href="#DejaVuSans-84"/>
      <use x="239.066406" xlink:href="#DejaVuSans-67"/>
      <use x="308.890625" xlink:href="#DejaVuSans-51"/>
     </g>
    </g>
   </g>
   <g id="text_30">
    <g clip-path="url(#p7057fd3ac4)">
     <!-- IFNGR1 -->
     <g transform="translate(255.984468 178.962112)scale(0.12 -0.12)">
      <use xlink:href="#DejaVuSans-73"/>
      <use x="29.492188" xlink:href="#DejaVuSans-70"/>
      <use x="87.011719" xlink:href="#DejaVuSans-78"/>
      <use x="161.816406" xlink:href="#DejaVuSans-71"/>
      <use x="239.306641" xlink:href="#DejaVuSans-82"/>
      <use x="308.789062" xlink:href="#DejaVuSans-49"/>
     </g>
    </g>
   </g>
   <g id="text_31">
    <g clip-path="url(#p7057fd3ac4)">
     <!-- IFNGR2 -->
     <g transform="translate(318.700272 196.893471)scale(0.12 -0.12)">
      <use xlink:href="#DejaVuSans-73"/>
      <use x="29.492188" xlink:href="#DejaVuSans-70"/>
      <use x="87.011719" xlink:href="#DejaVuSans-78"/>
      <use x="161.816406" xlink:href="#DejaVuSans-71"/>
      <use x="239.306641" xlink:href="#DejaVuSans-82"/>
      <use x="308.789062" xlink:href="#DejaVuSans-50"/>
     </g>
    </g>
   </g>
   <g id="text_32">
    <g clip-path="url(#p7057fd3ac4)">
     <!-- IL12A -->
     <g transform="translate(456.605984 319.067351)scale(0.12 -0.12)">
      <use xlink:href="#DejaVuSans-73"/>
      <use x="29.492188" xlink:href="#DejaVuSans-76"/>
      <use x="85.205078" xlink:href="#DejaVuSans-49"/>
      <use x="148.828125" xlink:href="#DejaVuSans-50"/>
      <use x="212.451172" xlink:href="#DejaVuSans-65"/>
     </g>
    </g>
   </g>
   <g id="text_33">
    <g clip-path="url(#p7057fd3ac4)">
     <!-- IL12RB1 -->
     <g transform="translate(311.318969 270.938997)scale(0.12 -0.12)">
      <use xlink:href="#DejaVuSans-73"/>
      <use x="29.492188" xlink:href="#DejaVuSans-76"/>
      <use x="85.205078" xlink:href="#DejaVuSans-49"/>
      <use x="148.828125" xlink:href="#DejaVuSans-50"/>
      <use x="212.451172" xlink:href="#DejaVuSans-82"/>
      <use x="281.933594" xlink:href="#DejaVuSans-66"/>
      <use x="350.537109" xlink:href="#DejaVuSans-49"/>
     </g>
    </g>
   </g>
   <g id="text_34">
    <g clip-path="url(#p7057fd3ac4)">
     <!-- IL12RB2 -->
     <g transform="translate(341.749158 278.077849)scale(0.12 -0.12)">
      <use xlink:href="#DejaVuSans-73"/>
      <use x="29.492188" xlink:href="#DejaVuSans-76"/>
      <use x="85.205078" xlink:href="#DejaVuSans-49"/>
      <use x="148.828125" xlink:href="#DejaVuSans-50"/>
      <use x="212.451172" xlink:href="#DejaVuSans-82"/>
      <use x="281.933594" xlink:href="#DejaVuSans-66"/>
      <use x="350.537109" xlink:href="#DejaVuSans-50"/>
     </g>
    </g>
   </g>
   <g id="text_35">
    <g clip-path="url(#p7057fd3ac4)">
     <!-- IL2RB -->
     <g transform="translate(420.855674 201.611214)scale(0.12 -0.12)">
      <use xlink:href="#DejaVuSans-73"/>
      <use x="29.492188" xlink:href="#DejaVuSans-76"/>
      <use x="85.205078" xlink:href="#DejaVuSans-50"/>
      <use x="148.828125" xlink:href="#DejaVuSans-82"/>
      <use x="218.310547" xlink:href="#DejaVuSans-66"/>
     </g>
    </g>
   </g>
   <g id="text_36">
    <g clip-path="url(#p7057fd3ac4)">
     <!-- IL2RG -->
     <g transform="translate(397.401441 200.988286)scale(0.12 -0.12)">
      <use xlink:href="#DejaVuSans-73"/>
      <use x="29.492188" xlink:href="#DejaVuSans-76"/>
      <use x="85.205078" xlink:href="#DejaVuSans-50"/>
      <use x="148.828125" xlink:href="#DejaVuSans-82"/>
      <use x="218.310547" xlink:href="#DejaVuSans-71"/>
     </g>
    </g>
   </g>
   <g id="text_37">
    <g clip-path="url(#p7057fd3ac4)">
     <!-- STAT5A -->
     <g transform="translate(409.454739 276.127802)scale(0.12 -0.12)">
      <defs>
       <path d="M 10.796875 72.90625 
L 49.515625 72.90625 
L 49.515625 64.59375 
L 19.828125 64.59375 
L 19.828125 46.734375 
Q 21.96875 47.46875 24.109375 47.828125 
Q 26.265625 48.1875 28.421875 48.1875 
Q 40.625 48.1875 47.75 41.5 
Q 54.890625 34.8125 54.890625 23.390625 
Q 54.890625 11.625 47.5625 5.09375 
Q 40.234375 -1.421875 26.90625 -1.421875 
Q 22.3125 -1.421875 17.546875 -0.640625 
Q 12.796875 0.140625 7.71875 1.703125 
L 7.71875 11.625 
Q 12.109375 9.234375 16.796875 8.0625 
Q 21.484375 6.890625 26.703125 6.890625 
Q 35.15625 6.890625 40.078125 11.328125 
Q 45.015625 15.765625 45.015625 23.390625 
Q 45.015625 31 40.078125 35.4375 
Q 35.15625 39.890625 26.703125 39.890625 
Q 22.75 39.890625 18.8125 39.015625 
Q 14.890625 38.140625 10.796875 36.28125 
z
" id="DejaVuSans-53"/>
      </defs>
      <use xlink:href="#DejaVuSans-83"/>
      <use x="63.476562" xlink:href="#DejaVuSans-84"/>
      <use x="116.810547" xlink:href="#DejaVuSans-65"/>
      <use x="177.46875" xlink:href="#DejaVuSans-84"/>
      <use x="238.552734" xlink:href="#DejaVuSans-53"/>
      <use x="302.175781" xlink:href="#DejaVuSans-65"/>
     </g>
    </g>
   </g>
   <g id="text_38">
    <g clip-path="url(#p7057fd3ac4)">
     <!-- STAT5B -->
     <g transform="translate(488.288928 188.333698)scale(0.12 -0.12)">
      <use xlink:href="#DejaVuSans-83"/>
      <use x="63.476562" xlink:href="#DejaVuSans-84"/>
      <use x="116.810547" xlink:href="#DejaVuSans-65"/>
      <use x="177.46875" xlink:href="#DejaVuSans-84"/>
      <use x="238.552734" xlink:href="#DejaVuSans-53"/>
      <use x="302.175781" xlink:href="#DejaVuSans-66"/>
     </g>
    </g>
   </g>
   <g id="text_39">
    <g clip-path="url(#p7057fd3ac4)">
     <!-- JAK1 -->
     <g transform="translate(152.584223 270.91522)scale(0.12 -0.12)">
      <use xlink:href="#DejaVuSans-74"/>
      <use x="27.742188" xlink:href="#DejaVuSans-65"/>
      <use x="96.150391" xlink:href="#DejaVuSans-75"/>
      <use x="161.726562" xlink:href="#DejaVuSans-49"/>
     </g>
    </g>
   </g>
   <g id="text_40">
    <g clip-path="url(#p7057fd3ac4)">
     <!-- JAK3 -->
     <g transform="translate(639.306867 148.585134)scale(0.12 -0.12)">
      <use xlink:href="#DejaVuSans-74"/>
      <use x="27.742188" xlink:href="#DejaVuSans-65"/>
      <use x="96.150391" xlink:href="#DejaVuSans-75"/>
      <use x="161.726562" xlink:href="#DejaVuSans-51"/>
     </g>
    </g>
   </g>
   <g id="text_41">
    <!-- Frame: 11 -->
    <g transform="translate(121.392 91.296)scale(0.1 -0.1)">
     <defs>
      <path d="M 41.109375 46.296875 
Q 39.59375 47.171875 37.8125 47.578125 
Q 36.03125 48 33.890625 48 
Q 26.265625 48 22.1875 43.046875 
Q 18.109375 38.09375 18.109375 28.8125 
L 18.109375 0 
L 9.078125 0 
L 9.078125 54.6875 
L 18.109375 54.6875 
L 18.109375 46.1875 
Q 20.953125 51.171875 25.484375 53.578125 
Q 30.03125 56 36.53125 56 
Q 37.453125 56 38.578125 55.875 
Q 39.703125 55.765625 41.0625 55.515625 
z
" id="DejaVuSans-114"/>
      <path d="M 34.28125 27.484375 
Q 23.390625 27.484375 19.1875 25 
Q 14.984375 22.515625 14.984375 16.5 
Q 14.984375 11.71875 18.140625 8.90625 
Q 21.296875 6.109375 26.703125 6.109375 
Q 34.1875 6.109375 38.703125 11.40625 
Q 43.21875 16.703125 43.21875 25.484375 
L 43.21875 27.484375 
z
M 52.203125 31.203125 
L 52.203125 0 
L 43.21875 0 
L 43.21875 8.296875 
Q 40.140625 3.328125 35.546875 0.953125 
Q 30.953125 -1.421875 24.3125 -1.421875 
Q 15.921875 -1.421875 10.953125 3.296875 
Q 6 8.015625 6 15.921875 
Q 6 25.140625 12.171875 29.828125 
Q 18.359375 34.515625 30.609375 34.515625 
L 43.21875 34.515625 
L 43.21875 35.40625 
Q 43.21875 41.609375 39.140625 45 
Q 35.0625 48.390625 27.6875 48.390625 
Q 23 48.390625 18.546875 47.265625 
Q 14.109375 46.140625 10.015625 43.890625 
L 10.015625 52.203125 
Q 14.9375 54.109375 19.578125 55.046875 
Q 24.21875 56 28.609375 56 
Q 40.484375 56 46.34375 49.84375 
Q 52.203125 43.703125 52.203125 31.203125 
z
" id="DejaVuSans-97"/>
      <path d="M 52 44.1875 
Q 55.375 50.25 60.0625 53.125 
Q 64.75 56 71.09375 56 
Q 79.640625 56 84.28125 50.015625 
Q 88.921875 44.046875 88.921875 33.015625 
L 88.921875 0 
L 79.890625 0 
L 79.890625 32.71875 
Q 79.890625 40.578125 77.09375 44.375 
Q 74.3125 48.1875 68.609375 48.1875 
Q 61.625 48.1875 57.5625 43.546875 
Q 53.515625 38.921875 53.515625 30.90625 
L 53.515625 0 
L 44.484375 0 
L 44.484375 32.71875 
Q 44.484375 40.625 41.703125 44.40625 
Q 38.921875 48.1875 33.109375 48.1875 
Q 26.21875 48.1875 22.15625 43.53125 
Q 18.109375 38.875 18.109375 30.90625 
L 18.109375 0 
L 9.078125 0 
L 9.078125 54.6875 
L 18.109375 54.6875 
L 18.109375 46.1875 
Q 21.1875 51.21875 25.484375 53.609375 
Q 29.78125 56 35.6875 56 
Q 41.65625 56 45.828125 52.96875 
Q 50 49.953125 52 44.1875 
z
" id="DejaVuSans-109"/>
      <path d="M 56.203125 29.59375 
L 56.203125 25.203125 
L 14.890625 25.203125 
Q 15.484375 15.921875 20.484375 11.0625 
Q 25.484375 6.203125 34.421875 6.203125 
Q 39.59375 6.203125 44.453125 7.46875 
Q 49.3125 8.734375 54.109375 11.28125 
L 54.109375 2.78125 
Q 49.265625 0.734375 44.1875 -0.34375 
Q 39.109375 -1.421875 33.890625 -1.421875 
Q 20.796875 -1.421875 13.15625 6.1875 
Q 5.515625 13.8125 5.515625 26.8125 
Q 5.515625 40.234375 12.765625 48.109375 
Q 20.015625 56 32.328125 56 
Q 43.359375 56 49.78125 48.890625 
Q 56.203125 41.796875 56.203125 29.59375 
z
M 47.21875 32.234375 
Q 47.125 39.59375 43.09375 43.984375 
Q 39.0625 48.390625 32.421875 48.390625 
Q 24.90625 48.390625 20.390625 44.140625 
Q 15.875 39.890625 15.1875 32.171875 
z
" id="DejaVuSans-101"/>
      <path d="M 11.71875 12.40625 
L 22.015625 12.40625 
L 22.015625 0 
L 11.71875 0 
z
M 11.71875 51.703125 
L 22.015625 51.703125 
L 22.015625 39.3125 
L 11.71875 39.3125 
z
" id="DejaVuSans-58"/>
      <path id="DejaVuSans-32"/>
     </defs>
     <use xlink:href="#DejaVuSans-70"/>
     <use x="50.269531" xlink:href="#DejaVuSans-114"/>
     <use x="91.382812" xlink:href="#DejaVuSans-97"/>
     <use x="152.662109" xlink:href="#DejaVuSans-109"/>
     <use x="250.074219" xlink:href="#DejaVuSans-101"/>
     <use x="311.597656" xlink:href="#DejaVuSans-58"/>
     <use x="345.289062" xlink:href="#DejaVuSans-32"/>
     <use x="377.076172" xlink:href="#DejaVuSans-49"/>
     <use x="440.699219" xlink:href="#DejaVuSans-49"/>
    </g>
   </g>
   <g id="text_42">
    <!-- Network: hsa04658 -->
    <g transform="translate(384.1275 63.12)scale(0.12 -0.12)">
     <defs>
      <path d="M 18.3125 70.21875 
L 18.3125 54.6875 
L 36.8125 54.6875 
L 36.8125 47.703125 
L 18.3125 47.703125 
L 18.3125 18.015625 
Q 18.3125 11.328125 20.140625 9.421875 
Q 21.96875 7.515625 27.59375 7.515625 
L 36.8125 7.515625 
L 36.8125 0 
L 27.59375 0 
Q 17.1875 0 13.234375 3.875 
Q 9.28125 7.765625 9.28125 18.015625 
L 9.28125 47.703125 
L 2.6875 47.703125 
L 2.6875 54.6875 
L 9.28125 54.6875 
L 9.28125 70.21875 
z
" id="DejaVuSans-116"/>
      <path d="M 4.203125 54.6875 
L 13.1875 54.6875 
L 24.421875 12.015625 
L 35.59375 54.6875 
L 46.1875 54.6875 
L 57.421875 12.015625 
L 68.609375 54.6875 
L 77.59375 54.6875 
L 63.28125 0 
L 52.6875 0 
L 40.921875 44.828125 
L 29.109375 0 
L 18.5 0 
z
" id="DejaVuSans-119"/>
      <path d="M 30.609375 48.390625 
Q 23.390625 48.390625 19.1875 42.75 
Q 14.984375 37.109375 14.984375 27.296875 
Q 14.984375 17.484375 19.15625 11.84375 
Q 23.34375 6.203125 30.609375 6.203125 
Q 37.796875 6.203125 41.984375 11.859375 
Q 46.1875 17.53125 46.1875 27.296875 
Q 46.1875 37.015625 41.984375 42.703125 
Q 37.796875 48.390625 30.609375 48.390625 
z
M 30.609375 56 
Q 42.328125 56 49.015625 48.375 
Q 55.71875 40.765625 55.71875 27.296875 
Q 55.71875 13.875 49.015625 6.21875 
Q 42.328125 -1.421875 30.609375 -1.421875 
Q 18.84375 -1.421875 12.171875 6.21875 
Q 5.515625 13.875 5.515625 27.296875 
Q 5.515625 40.765625 12.171875 48.375 
Q 18.84375 56 30.609375 56 
z
" id="DejaVuSans-111"/>
      <path d="M 9.078125 75.984375 
L 18.109375 75.984375 
L 18.109375 31.109375 
L 44.921875 54.6875 
L 56.390625 54.6875 
L 27.390625 29.109375 
L 57.625 0 
L 45.90625 0 
L 18.109375 26.703125 
L 18.109375 0 
L 9.078125 0 
z
" id="DejaVuSans-107"/>
      <path d="M 54.890625 33.015625 
L 54.890625 0 
L 45.90625 0 
L 45.90625 32.71875 
Q 45.90625 40.484375 42.875 44.328125 
Q 39.84375 48.1875 33.796875 48.1875 
Q 26.515625 48.1875 22.3125 43.546875 
Q 18.109375 38.921875 18.109375 30.90625 
L 18.109375 0 
L 9.078125 0 
L 9.078125 75.984375 
L 18.109375 75.984375 
L 18.109375 46.1875 
Q 21.34375 51.125 25.703125 53.5625 
Q 30.078125 56 35.796875 56 
Q 45.21875 56 50.046875 50.171875 
Q 54.890625 44.34375 54.890625 33.015625 
z
" id="DejaVuSans-104"/>
      <path d="M 44.28125 53.078125 
L 44.28125 44.578125 
Q 40.484375 46.53125 36.375 47.5 
Q 32.28125 48.484375 27.875 48.484375 
Q 21.1875 48.484375 17.84375 46.4375 
Q 14.5 44.390625 14.5 40.28125 
Q 14.5 37.15625 16.890625 35.375 
Q 19.28125 33.59375 26.515625 31.984375 
L 29.59375 31.296875 
Q 39.15625 29.25 43.1875 25.515625 
Q 47.21875 21.78125 47.21875 15.09375 
Q 47.21875 7.46875 41.1875 3.015625 
Q 35.15625 -1.421875 24.609375 -1.421875 
Q 20.21875 -1.421875 15.453125 -0.5625 
Q 10.6875 0.296875 5.421875 2 
L 5.421875 11.28125 
Q 10.40625 8.6875 15.234375 7.390625 
Q 20.0625 6.109375 24.8125 6.109375 
Q 31.15625 6.109375 34.5625 8.28125 
Q 37.984375 10.453125 37.984375 14.40625 
Q 37.984375 18.0625 35.515625 20.015625 
Q 33.0625 21.96875 24.703125 23.78125 
L 21.578125 24.515625 
Q 13.234375 26.265625 9.515625 29.90625 
Q 5.8125 33.546875 5.8125 39.890625 
Q 5.8125 47.609375 11.28125 51.796875 
Q 16.75 56 26.8125 56 
Q 31.78125 56 36.171875 55.265625 
Q 40.578125 54.546875 44.28125 53.078125 
z
" id="DejaVuSans-115"/>
      <path d="M 31.78125 34.625 
Q 24.75 34.625 20.71875 30.859375 
Q 16.703125 27.09375 16.703125 20.515625 
Q 16.703125 13.921875 20.71875 10.15625 
Q 24.75 6.390625 31.78125 6.390625 
Q 38.8125 6.390625 42.859375 10.171875 
Q 46.921875 13.96875 46.921875 20.515625 
Q 46.921875 27.09375 42.890625 30.859375 
Q 38.875 34.625 31.78125 34.625 
z
M 21.921875 38.8125 
Q 15.578125 40.375 12.03125 44.71875 
Q 8.5 49.078125 8.5 55.328125 
Q 8.5 64.0625 14.71875 69.140625 
Q 20.953125 74.21875 31.78125 74.21875 
Q 42.671875 74.21875 48.875 69.140625 
Q 55.078125 64.0625 55.078125 55.328125 
Q 55.078125 49.078125 51.53125 44.71875 
Q 48 40.375 41.703125 38.8125 
Q 48.828125 37.15625 52.796875 32.3125 
Q 56.78125 27.484375 56.78125 20.515625 
Q 56.78125 9.90625 50.3125 4.234375 
Q 43.84375 -1.421875 31.78125 -1.421875 
Q 19.734375 -1.421875 13.25 4.234375 
Q 6.78125 9.90625 6.78125 20.515625 
Q 6.78125 27.484375 10.78125 32.3125 
Q 14.796875 37.15625 21.921875 38.8125 
z
M 18.3125 54.390625 
Q 18.3125 48.734375 21.84375 45.5625 
Q 25.390625 42.390625 31.78125 42.390625 
Q 38.140625 42.390625 41.71875 45.5625 
Q 45.3125 48.734375 45.3125 54.390625 
Q 45.3125 60.0625 41.71875 63.234375 
Q 38.140625 66.40625 31.78125 66.40625 
Q 25.390625 66.40625 21.84375 63.234375 
Q 18.3125 60.0625 18.3125 54.390625 
z
" id="DejaVuSans-56"/>
     </defs>
     <use xlink:href="#DejaVuSans-78"/>
     <use x="74.804688" xlink:href="#DejaVuSans-101"/>
     <use x="136.328125" xlink:href="#DejaVuSans-116"/>
     <use x="175.537109" xlink:href="#DejaVuSans-119"/>
     <use x="257.324219" xlink:href="#DejaVuSans-111"/>
     <use x="318.505859" xlink:href="#DejaVuSans-114"/>
     <use x="359.619141" xlink:href="#DejaVuSans-107"/>
     <use x="417.529297" xlink:href="#DejaVuSans-58"/>
     <use x="451.220703" xlink:href="#DejaVuSans-32"/>
     <use x="483.007812" xlink:href="#DejaVuSans-104"/>
     <use x="546.386719" xlink:href="#DejaVuSans-115"/>
     <use x="598.486328" xlink:href="#DejaVuSans-97"/>
     <use x="659.765625" xlink:href="#DejaVuSans-48"/>
     <use x="723.388672" xlink:href="#DejaVuSans-52"/>
     <use x="787.011719" xlink:href="#DejaVuSans-54"/>
     <use x="850.634766" xlink:href="#DejaVuSans-53"/>
     <use x="914.257812" xlink:href="#DejaVuSans-56"/>
    </g>
   </g>
  </g>
 </g>
 <defs>
  <clipPath id="p7057fd3ac4">
   <rect height="443.52" width="669.6" x="108" y="69.12"/>
  </clipPath>
 </defs>
</svg>
