<?xml version="1.0" encoding="utf-8" standalone="no"?>
<!DOCTYPE svg PUBLIC "-//W3C//DTD SVG 1.1//EN"
  "http://www.w3.org/Graphics/SVG/1.1/DTD/svg11.dtd">
<!-- Created with matplotlib (https://matplotlib.org/) -->
<svg height="576pt" version="1.1" viewBox="0 0 864 576" width="864pt" xmlns="http://www.w3.org/2000/svg" xmlns:xlink="http://www.w3.org/1999/xlink">
 <metadata>
  <rdf:RDF xmlns:cc="http://creativecommons.org/ns#" xmlns:dc="http://purl.org/dc/elements/1.1/" xmlns:rdf="http://www.w3.org/1999/02/22-rdf-syntax-ns#">
   <cc:Work>
    <dc:type rdf:resource="http://purl.org/dc/dcmitype/StillImage"/>
    <dc:date>2024-05-23T11:56:12.518363</dc:date>
    <dc:format>image/svg+xml</dc:format>
    <dc:creator>
     <cc:Agent>
      <dc:title>Matplotlib v3.3.1, https://matplotlib.org/</dc:title>
     </cc:Agent>
    </dc:creator>
   </cc:Work>
  </rdf:RDF>
 </metadata>
 <defs>
  <style type="text/css">*{stroke-linecap:butt;stroke-linejoin:round;}</style>
 </defs>
 <g id="figure_1">
  <g id="patch_1">
   <path d="M 0 576 
L 864 576 
L 864 0 
L 0 0 
z
" style="fill:#ffffff;"/>
  </g>
  <g id="axes_1">
   <g id="patch_2">
    <path clip-path="url(#p72f88d53f0)" d="M 429.761872 174.146987 
Q 323.657438 193.259979 218.65333 212.174766 
" style="fill:none;stroke:#000000;stroke-linecap:round;"/>
    <path clip-path="url(#p72f88d53f0)" d="M 222.944532 213.433964 
L 218.65333 212.174766 
L 222.23541 209.497323 
L 222.944532 213.433964 
z
" style="stroke:#000000;stroke-linecap:round;"/>
   </g>
   <g id="patch_3">
    <path clip-path="url(#p72f88d53f0)" d="M 446.912279 173.426035 
Q 561.655364 184.264283 675.285369 194.997392 
" style="fill:none;stroke:#000000;stroke-linecap:round;"/>
    <path clip-path="url(#p72f88d53f0)" d="M 671.491171 192.630103 
L 675.285369 194.997392 
L 671.115019 196.612377 
L 671.491171 192.630103 
z
" style="stroke:#000000;stroke-linecap:round;"/>
   </g>
   <g id="patch_4">
    <path clip-path="url(#p72f88d53f0)" d="M 498.193044 194.231209 
Q 587.277711 195.034998 675.24439 195.8287 
" style="fill:none;stroke:#000000;stroke-linecap:round;"/>
    <path clip-path="url(#p72f88d53f0)" d="M 671.262597 193.792692 
L 675.24439 195.8287 
L 671.226508 197.792529 
L 671.262597 193.792692 
z
" style="stroke:#000000;stroke-linecap:round;"/>
   </g>
   <g id="patch_5">
    <path clip-path="url(#p72f88d53f0)" d="M 488.215092 251.108963 
Q 595.424945 237.92905 701.525118 224.885556 
" style="fill:none;stroke:#000000;stroke-linecap:round;"/>
    <path clip-path="url(#p72f88d53f0)" d="M 697.310972 223.388568 
L 701.525118 224.885556 
L 697.79904 227.35868 
L 697.310972 223.388568 
z
" style="stroke:#000000;stroke-linecap:round;"/>
   </g>
   <g id="patch_6">
    <path clip-path="url(#p72f88d53f0)" d="M 563.60747 320.390499 
Q 524.973686 289.008863 487.207716 258.332138 
" style="fill:none;stroke:#000000;stroke-linecap:round;"/>
    <path clip-path="url(#p72f88d53f0)" d="M 489.051515 262.406497 
L 487.207716 258.332138 
L 491.573483 259.301714 
L 489.051515 262.406497 
z
" style="stroke:#000000;stroke-linecap:round;"/>
   </g>
   <g id="patch_7">
    <path clip-path="url(#p72f88d53f0)" d="M 577.48157 320.966396 
Q 589.97768 312.426146 601.550735 304.516744 
" style="fill:none;stroke:#000000;stroke-linecap:round;"/>
    <path clip-path="url(#p72f88d53f0)" d="M 597.119816 305.122516 
L 601.550735 304.516744 
L 599.376802 308.424942 
L 597.119816 305.122516 
z
" style="stroke:#000000;stroke-linecap:round;"/>
   </g>
   <g id="patch_8">
    <path clip-path="url(#p72f88d53f0)" d="M 616.581918 293.842307 
Q 660.425503 261.346156 703.370874 229.515745 
" style="fill:none;stroke:#000000;stroke-linecap:round;"/>
    <path clip-path="url(#p72f88d53f0)" d="M 698.966412 230.290801 
L 703.370874 229.515745 
L 701.348241 233.504349 
L 698.966412 230.290801 
z
" style="stroke:#000000;stroke-linecap:round;"/>
   </g>
   <g id="patch_9">
    <path clip-path="url(#p72f88d53f0)" d="M 612.533747 284.923968 
Q 635.846036 228.248091 658.733021 172.606195 
" style="fill:none;stroke:#000000;stroke-linecap:round;"/>
    <path clip-path="url(#p72f88d53f0)" d="M 655.361767 175.544672 
L 658.733021 172.606195 
L 659.06105 177.066285 
L 655.361767 175.544672 
z
" style="stroke:#000000;stroke-linecap:round;"/>
   </g>
   <g id="patch_10">
    <path clip-path="url(#p72f88d53f0)" d="M 608.197726 301.533366 
Q 599.125769 376.470466 590.188182 450.297635 
" style="fill:none;stroke:#000000;stroke-linecap:round;"/>
    <path clip-path="url(#p72f88d53f0)" d="M 592.654419 446.566995 
L 590.188182 450.297635 
L 588.683412 446.086261 
L 592.654419 446.566995 
z
" style="stroke:#000000;stroke-linecap:round;"/>
   </g>
   <g id="patch_11">
    <path clip-path="url(#p72f88d53f0)" d="M 401.255452 279.559974 
Q 501.438199 203.913303 600.728702 128.940353 
" style="fill:none;stroke:#000000;stroke-linecap:round;"/>
    <path clip-path="url(#p72f88d53f0)" d="M 596.331323 129.754639 
L 600.728702 128.940353 
L 598.741703 132.946827 
L 596.331323 129.754639 
z
" style="stroke:#000000;stroke-linecap:round;"/>
   </g>
   <g id="patch_12">
    <path clip-path="url(#p72f88d53f0)" d="M 392.445987 293.231345 
Q 375.102746 370.498768 358.004363 446.675299 
" style="fill:none;stroke:#000000;stroke-linecap:round;"/>
    <path clip-path="url(#p72f88d53f0)" d="M 360.831841 443.210423 
L 358.004363 446.675299 
L 356.928949 442.33439 
L 360.831841 443.210423 
z
" style="stroke:#000000;stroke-linecap:round;"/>
   </g>
   <g id="patch_13">
    <path clip-path="url(#p72f88d53f0)" d="M 385.72359 283.927627 
Q 280.222529 273.501957 175.834082 263.186236 
" style="fill:none;stroke:#000000;stroke-linecap:round;"/>
    <path clip-path="url(#p72f88d53f0)" d="M 179.61801 265.569908 
L 175.834082 263.186236 
L 180.011376 261.589297 
L 179.61801 265.569908 
z
" style="stroke:#000000;stroke-linecap:round;"/>
   </g>
   <g id="patch_14">
    <path clip-path="url(#p72f88d53f0)" d="M 401.750446 289.258982 
Q 427.590777 304.885821 452.474411 319.934102 
" style="fill:none;stroke:#000000;stroke-linecap:round;"/>
    <path clip-path="url(#p72f88d53f0)" d="M 450.086585 316.152794 
L 452.474411 319.934102 
L 448.01667 319.575578 
L 450.086585 316.152794 
z
" style="stroke:#000000;stroke-linecap:round;"/>
   </g>
   <g id="patch_15">
    <path clip-path="url(#p72f88d53f0)" d="M 401.430733 289.758472 
Q 421.822804 304.083873 441.30002 317.76659 
" style="fill:none;stroke:#000000;stroke-linecap:round;"/>
    <path clip-path="url(#p72f88d53f0)" d="M 439.176607 313.830715 
L 441.30002 317.76659 
L 436.877272 317.103796 
L 439.176607 313.830715 
z
" style="stroke:#000000;stroke-linecap:round;"/>
   </g>
   <g id="patch_16">
    <path clip-path="url(#p72f88d53f0)" d="M 483.449813 152.218806 
Q 481.699161 197.865779 479.991356 242.39554 
" style="fill:none;stroke:#000000;stroke-linecap:round;"/>
    <path clip-path="url(#p72f88d53f0)" d="M 482.143182 238.475127 
L 479.991356 242.39554 
L 478.14612 238.321831 
L 482.143182 238.475127 
z
" style="stroke:#000000;stroke-linecap:round;"/>
   </g>
   <g id="patch_17">
    <path clip-path="url(#p72f88d53f0)" d="M 491.007201 138.791865 
Q 510.994578 125.58733 530.04911 112.999073 
" style="fill:none;stroke:#000000;stroke-linecap:round;"/>
    <path clip-path="url(#p72f88d53f0)" d="M 525.609227 113.535213 
L 530.04911 112.999073 
L 527.814093 116.872663 
L 525.609227 113.535213 
z
" style="stroke:#000000;stroke-linecap:round;"/>
   </g>
   <g id="patch_18">
    <path clip-path="url(#p72f88d53f0)" d="M 446.047711 271.471261 
Q 344.061122 216.078472 243.057006 161.219301 
" style="fill:none;stroke:#000000;stroke-linecap:round;"/>
    <path clip-path="url(#p72f88d53f0)" d="M 245.617441 164.885931 
L 243.057006 161.219301 
L 247.52657 161.370931 
L 245.617441 164.885931 
z
" style="stroke:#000000;stroke-linecap:round;"/>
   </g>
   <g id="patch_19">
    <path clip-path="url(#p72f88d53f0)" d="M 461.375499 279.524652 
Q 563.482962 331.388771 664.593609 382.746572 
" style="fill:none;stroke:#000000;stroke-linecap:round;"/>
    <path clip-path="url(#p72f88d53f0)" d="M 661.933024 379.151952 
L 664.593609 382.746572 
L 660.121562 382.718267 
L 661.933024 379.151952 
z
" style="stroke:#000000;stroke-linecap:round;"/>
   </g>
   <g id="patch_20">
    <path clip-path="url(#p72f88d53f0)" d="M 427.768279 276.396931 
Q 334.796217 218.756061 242.774384 161.704315 
" style="fill:none;stroke:#000000;stroke-linecap:round;"/>
    <path clip-path="url(#p72f88d53f0)" d="M 245.120169 165.511846 
L 242.774384 161.704315 
L 247.22788 162.112206 
L 245.120169 165.511846 
z
" style="stroke:#000000;stroke-linecap:round;"/>
   </g>
   <g id="patch_21">
    <path clip-path="url(#p72f88d53f0)" d="M 443.037966 284.486804 
Q 554.219173 334.066763 664.379274 383.191371 
" style="fill:none;stroke:#000000;stroke-linecap:round;"/>
    <path clip-path="url(#p72f88d53f0)" d="M 661.540611 379.735652 
L 664.379274 383.191371 
L 659.911501 383.38887 
L 661.540611 379.735652 
z
" style="stroke:#000000;stroke-linecap:round;"/>
   </g>
   <g id="patch_22">
    <path clip-path="url(#p72f88d53f0)" d="M 443.727869 257.322764 
Q 342.996788 208.815917 243.273031 160.794144 
" style="fill:none;stroke:#000000;stroke-linecap:round;"/>
    <path clip-path="url(#p72f88d53f0)" d="M 246.009216 164.331557 
L 243.273031 160.794144 
L 247.744673 160.727644 
L 246.009216 164.331557 
z
" style="stroke:#000000;stroke-linecap:round;"/>
   </g>
   <g id="patch_23">
    <path clip-path="url(#p72f88d53f0)" d="M 459.057575 265.35988 
Q 562.419094 324.126492 664.808687 382.340512 
" style="fill:none;stroke:#000000;stroke-linecap:round;"/>
    <path clip-path="url(#p72f88d53f0)" d="M 662.319925 378.624861 
L 664.808687 382.340512 
L 660.342909 382.102131 
L 662.319925 378.624861 
z
" style="stroke:#000000;stroke-linecap:round;"/>
   </g>
   <g id="patch_24">
    <path clip-path="url(#p72f88d53f0)" d="M 411.302923 302.184641 
Q 428.812881 291.19562 445.375851 280.800917 
" style="fill:none;stroke:#000000;stroke-linecap:round;"/>
    <path clip-path="url(#p72f88d53f0)" d="M 440.924655 281.233188 
L 445.375851 280.800917 
L 443.05095 284.621236 
L 440.924655 281.233188 
z
" style="stroke:#000000;stroke-linecap:round;"/>
   </g>
   <g id="patch_25">
    <path clip-path="url(#p72f88d53f0)" d="M 410.634242 301.261481 
Q 419.545051 293.874638 427.59512 287.201326 
" style="fill:none;stroke:#000000;stroke-linecap:round;"/>
    <path clip-path="url(#p72f88d53f0)" d="M 423.239241 288.214398 
L 427.59512 287.201326 
L 425.79205 291.293873 
L 423.239241 288.214398 
z
" style="stroke:#000000;stroke-linecap:round;"/>
   </g>
   <g id="patch_26">
    <path clip-path="url(#p72f88d53f0)" d="M 410.210641 300.787792 
Q 427.746017 283.935003 444.47529 267.856939 
" style="fill:none;stroke:#000000;stroke-linecap:round;"/>
    <path clip-path="url(#p72f88d53f0)" d="M 440.205419 269.186677 
L 444.47529 267.856939 
L 442.977158 272.070679 
L 440.205419 269.186677 
z
" style="stroke:#000000;stroke-linecap:round;"/>
   </g>
   <g id="patch_27">
    <path clip-path="url(#p72f88d53f0)" d="M 410.323165 300.911309 
Q 439.450155 273.979619 467.756245 247.806958 
" style="fill:none;stroke:#000000;stroke-linecap:round;"/>
    <path clip-path="url(#p72f88d53f0)" d="M 463.461515 249.054071 
L 467.756245 247.806958 
L 466.177097 251.99101 
L 463.461515 249.054071 
z
" style="stroke:#000000;stroke-linecap:round;"/>
   </g>
   <g id="patch_28">
    <path clip-path="url(#p72f88d53f0)" d="M 466.764784 238.292703 
Q 354.700043 198.860131 243.689951 159.798662 
" style="fill:none;stroke:#000000;stroke-linecap:round;"/>
    <path clip-path="url(#p72f88d53f0)" d="M 246.799327 163.012971 
L 243.689951 159.798662 
L 248.127023 159.239747 
L 246.799327 163.012971 
z
" style="stroke:#000000;stroke-linecap:round;"/>
   </g>
   <g id="patch_29">
    <path clip-path="url(#p72f88d53f0)" d="M 481.913408 246.303288 
Q 574.123019 314.170933 665.432194 381.375845 
" style="fill:none;stroke:#000000;stroke-linecap:round;"/>
    <path clip-path="url(#p72f88d53f0)" d="M 663.396233 377.394029 
L 665.432194 381.375845 
L 661.025164 380.615524 
L 663.396233 377.394029 
z
" style="stroke:#000000;stroke-linecap:round;"/>
   </g>
   <g id="patch_30">
    <path clip-path="url(#p72f88d53f0)" d="M 605.070754 255.858315 
Q 631.475961 213.386898 657.290853 171.86497 
" style="fill:none;stroke:#000000;stroke-linecap:round;"/>
    <path clip-path="url(#p72f88d53f0)" d="M 653.480385 174.20598 
L 657.290853 171.86497 
L 656.877381 176.317951 
L 653.480385 174.20598 
z
" style="stroke:#000000;stroke-linecap:round;"/>
   </g>
   <g id="patch_31">
    <path clip-path="url(#p72f88d53f0)" d="M 599.992527 271.859796 
Q 594.755203 361.60851 589.583012 450.24109 
" style="fill:none;stroke:#000000;stroke-linecap:round;"/>
    <path clip-path="url(#p72f88d53f0)" d="M 591.812641 446.364396 
L 589.583012 450.24109 
L 587.819434 446.131371 
L 591.812641 446.364396 
z
" style="stroke:#000000;stroke-linecap:round;"/>
   </g>
   <g id="patch_32">
    <path clip-path="url(#p72f88d53f0)" d="M 602.638033 271.605733 
Q 605.062356 281.106725 607.210253 289.524394 
" style="fill:none;stroke:#000000;stroke-linecap:round;"/>
    <path clip-path="url(#p72f88d53f0)" d="M 608.159187 285.154093 
L 607.210253 289.524394 
L 604.283373 286.143066 
L 608.159187 285.154093 
z
" style="stroke:#000000;stroke-linecap:round;"/>
   </g>
   <g id="patch_33">
    <path clip-path="url(#p72f88d53f0)" d="M 591.875863 262.426958 
Q 540.05772 257.690574 489.35297 253.055959 
" style="fill:none;stroke:#000000;stroke-linecap:round;"/>
    <path clip-path="url(#p72f88d53f0)" d="M 493.154315 255.411755 
L 489.35297 253.055959 
L 493.518414 251.42836 
L 493.154315 255.411755 
z
" style="stroke:#000000;stroke-linecap:round;"/>
   </g>
   <g id="patch_34">
    <path clip-path="url(#p72f88d53f0)" d="M 597.277941 255.172922 
Q 569.353057 185.409334 541.84365 116.683714 
" style="fill:none;stroke:#000000;stroke-linecap:round;"/>
    <path clip-path="url(#p72f88d53f0)" d="M 541.47333 121.140492 
L 541.84365 116.683714 
L 545.18688 119.654037 
L 541.47333 121.140492 
z
" style="stroke:#000000;stroke-linecap:round;"/>
   </g>
   <g id="patch_35">
    <path clip-path="url(#p72f88d53f0)" d="M 713.830956 310.760523 
Q 716.179183 289.861361 718.402573 270.073241 
" style="fill:none;stroke:#000000;stroke-linecap:round;"/>
    <path clip-path="url(#p72f88d53f0)" d="M 715.968451 273.824914 
L 718.402573 270.073241 
L 719.943438 274.271543 
L 715.968451 273.824914 
z
" style="stroke:#000000;stroke-linecap:round;"/>
   </g>
   <g id="patch_36">
    <path clip-path="url(#p72f88d53f0)" d="M 717.589913 251.912037 
Q 715.361143 242.027394 713.378292 233.233404 
" style="fill:none;stroke:#000000;stroke-linecap:round;"/>
    <path clip-path="url(#p72f88d53f0)" d="M 712.307096 237.575355 
L 713.378292 233.233404 
L 716.209136 236.695531 
L 712.307096 237.575355 
z
" style="stroke:#000000;stroke-linecap:round;"/>
   </g>
   <g id="patch_37">
    <path clip-path="url(#p72f88d53f0)" d="M 388.392551 202.275097 
Q 459.640452 157.254578 529.943199 112.831288 
" style="fill:none;stroke:#000000;stroke-linecap:round;"/>
    <path clip-path="url(#p72f88d53f0)" d="M 525.493355 113.277257 
L 529.943199 112.831288 
L 527.630068 116.658745 
L 525.493355 113.277257 
z
" style="stroke:#000000;stroke-linecap:round;"/>
   </g>
   <g id="patch_38">
    <path clip-path="url(#p72f88d53f0)" d="M 388.942449 210.515782 
Q 430.34603 229.534083 470.733634 248.085705 
" style="fill:none;stroke:#000000;stroke-linecap:round;"/>
    <path clip-path="url(#p72f88d53f0)" d="M 467.933582 244.598628 
L 470.733634 248.085705 
L 466.263941 248.233501 
L 467.933582 244.598628 
z
" style="stroke:#000000;stroke-linecap:round;"/>
   </g>
   <g id="patch_39">
    <path clip-path="url(#p72f88d53f0)" d="M 375.722505 213.714152 
Q 328.093103 274.37519 281.154153 334.156866 
" style="fill:none;stroke:#000000;stroke-linecap:round;"/>
    <path clip-path="url(#p72f88d53f0)" d="M 285.197436 332.245882 
L 281.154153 334.156866 
L 282.051336 329.775649 
L 285.197436 332.245882 
z
" style="stroke:#000000;stroke-linecap:round;"/>
   </g>
   <g id="patch_40">
    <path clip-path="url(#p72f88d53f0)" d="M 372.411201 206.729483 
Q 338.39185 206.05701 305.490315 205.406633 
" style="fill:none;stroke:#000000;stroke-linecap:round;"/>
    <path clip-path="url(#p72f88d53f0)" d="M 309.450006 207.485296 
L 305.490315 205.406633 
L 309.52906 203.486077 
L 309.450006 207.485296 
z
" style="stroke:#000000;stroke-linecap:round;"/>
   </g>
   <g id="patch_41">
    <path clip-path="url(#p72f88d53f0)" d="M 492.083971 304.177675 
Q 476.345057 292.474563 461.503329 281.438578 
" style="fill:none;stroke:#000000;stroke-linecap:round;"/>
    <path clip-path="url(#p72f88d53f0)" d="M 463.519803 285.430299 
L 461.503329 281.438578 
L 465.90659 282.220431 
L 463.519803 285.430299 
z
" style="stroke:#000000;stroke-linecap:round;"/>
   </g>
   <g id="patch_42">
    <path clip-path="url(#p72f88d53f0)" d="M 491.118489 305.829277 
Q 467.077964 295.150966 444.059212 284.926505 
" style="fill:none;stroke:#000000;stroke-linecap:round;"/>
    <path clip-path="url(#p72f88d53f0)" d="M 446.902944 288.378053 
L 444.059212 284.926505 
L 448.52669 284.722448 
L 446.902944 288.378053 
z
" style="stroke:#000000;stroke-linecap:round;"/>
   </g>
   <g id="patch_43">
    <path clip-path="url(#p72f88d53f0)" d="M 492.958355 303.172944 
Q 475.281381 285.212817 458.388669 268.049516 
" style="fill:none;stroke:#000000;stroke-linecap:round;"/>
    <path clip-path="url(#p72f88d53f0)" d="M 459.769129 272.303259 
L 458.388669 268.049516 
L 462.61994 269.497393 
L 459.769129 272.303259 
z
" style="stroke:#000000;stroke-linecap:round;"/>
   </g>
   <g id="patch_44">
    <path clip-path="url(#p72f88d53f0)" d="M 496.145694 301.17625 
Q 486.983746 275.254127 478.194371 250.386134 
" style="fill:none;stroke:#000000;stroke-linecap:round;"/>
    <path clip-path="url(#p72f88d53f0)" d="M 477.641644 254.823982 
L 478.194371 250.386134 
L 481.413013 253.491024 
L 477.641644 254.823982 
z
" style="stroke:#000000;stroke-linecap:round;"/>
   </g>
   <g id="patch_45">
    <path clip-path="url(#p72f88d53f0)" d="M 505.493659 303.580996 
Q 580.741506 236.454305 655.155045 170.07188 
" style="fill:none;stroke:#000000;stroke-linecap:round;"/>
    <path clip-path="url(#p72f88d53f0)" d="M 650.838753 171.242188 
L 655.155045 170.07188 
L 653.501516 174.227099 
L 650.838753 171.242188 
z
" style="stroke:#000000;stroke-linecap:round;"/>
   </g>
   <g id="patch_46">
    <path clip-path="url(#p72f88d53f0)" d="M 503.474378 316.781362 
Q 544.02308 384.672906 583.998495 451.604584 
" style="fill:none;stroke:#000000;stroke-linecap:round;"/>
    <path clip-path="url(#p72f88d53f0)" d="M 583.664503 447.144937 
L 583.998495 451.604584 
L 580.230382 449.195989 
L 583.664503 447.144937 
z
" style="stroke:#000000;stroke-linecap:round;"/>
   </g>
   <g id="patch_47">
    <path clip-path="url(#p72f88d53f0)" d="M 492.399655 314.91272 
Q 446.860622 353.14018 402.177908 390.648808 
" style="fill:none;stroke:#000000;stroke-linecap:round;"/>
    <path clip-path="url(#p72f88d53f0)" d="M 406.527451 389.608868 
L 402.177908 390.648808 
L 403.955682 386.54521 
L 406.527451 389.608868 
z
" style="stroke:#000000;stroke-linecap:round;"/>
   </g>
   <g id="patch_48">
    <path clip-path="url(#p72f88d53f0)" d="M 490.49128 307.906148 
Q 392.082085 291.332958 294.7754 274.945443 
" style="fill:none;stroke:#000000;stroke-linecap:round;"/>
    <path clip-path="url(#p72f88d53f0)" d="M 298.387709 277.58196 
L 294.7754 274.945443 
L 299.051999 273.637505 
L 298.387709 277.58196 
z
" style="stroke:#000000;stroke-linecap:round;"/>
   </g>
   <g id="patch_49">
    <path clip-path="url(#p72f88d53f0)" d="M 453.603726 300.435972 
Q 527.284972 299.756399 599.848233 299.087137 
" style="fill:none;stroke:#000000;stroke-linecap:round;"/>
    <path clip-path="url(#p72f88d53f0)" d="M 595.829957 297.124113 
L 599.848233 299.087137 
L 595.866848 301.123943 
L 595.829957 297.124113 
z
" style="stroke:#000000;stroke-linecap:round;"/>
   </g>
   <g id="patch_50">
    <path clip-path="url(#p72f88d53f0)" d="M 449.989335 293.477632 
Q 462.279494 276.340524 473.918077 260.111959 
" style="fill:none;stroke:#000000;stroke-linecap:round;"/>
    <path clip-path="url(#p72f88d53f0)" d="M 469.961679 262.196883 
L 473.918077 260.111959 
L 473.212178 264.528032 
L 469.961679 262.196883 
z
" style="stroke:#000000;stroke-linecap:round;"/>
   </g>
   <g id="patch_51">
    <path clip-path="url(#p72f88d53f0)" d="M 436.674379 297.944666 
Q 419.64394 292.64811 403.681095 287.68358 
" style="fill:none;stroke:#000000;stroke-linecap:round;"/>
    <path clip-path="url(#p72f88d53f0)" d="M 406.906688 290.781249 
L 403.681095 287.68358 
L 408.094586 286.961707 
L 406.906688 290.781249 
z
" style="stroke:#000000;stroke-linecap:round;"/>
   </g>
   <g id="patch_52">
    <path clip-path="url(#p72f88d53f0)" d="M 444.795861 291.857806 
Q 444.441891 270.850934 444.106757 250.961937 
" style="fill:none;stroke:#000000;stroke-linecap:round;"/>
    <path clip-path="url(#p72f88d53f0)" d="M 442.174433 254.995065 
L 444.106757 250.961937 
L 446.173865 254.927673 
L 442.174433 254.995065 
z
" style="stroke:#000000;stroke-linecap:round;"/>
   </g>
   <g id="patch_53">
    <path clip-path="url(#p72f88d53f0)" d="M 436.315039 299.794608 
Q 371.442221 294.370779 307.683549 289.0401 
" style="fill:none;stroke:#000000;stroke-linecap:round;"/>
    <path clip-path="url(#p72f88d53f0)" d="M 311.503009 291.366412 
L 307.683549 289.0401 
L 311.836274 287.38032 
L 311.503009 291.366412 
z
" style="stroke:#000000;stroke-linecap:round;"/>
   </g>
   <g id="patch_54">
    <path clip-path="url(#p72f88d53f0)" d="M 606.072805 397.479675 
Q 583.154242 417.064782 561.085641 435.923551 
" style="fill:none;stroke:#000000;stroke-linecap:round;"/>
    <path clip-path="url(#p72f88d53f0)" d="M 565.425867 434.845388 
L 561.085641 435.923551 
L 562.827246 431.804473 
L 565.425867 434.845388 
z
" style="stroke:#000000;stroke-linecap:round;"/>
   </g>
   <g id="patch_55">
    <path clip-path="url(#p72f88d53f0)" d="M 560.241548 436.644873 
Q 583.160111 417.059766 605.228712 398.200996 
" style="fill:none;stroke:#000000;stroke-linecap:round;"/>
    <path clip-path="url(#p72f88d53f0)" d="M 600.888486 399.27916 
L 605.228712 398.200996 
L 603.487107 402.320075 
L 600.888486 399.27916 
z
" style="stroke:#000000;stroke-linecap:round;"/>
   </g>
   <g id="patch_56">
    <path clip-path="url(#p72f88d53f0)" d="M 468.285439 329.426454 
Q 544.736952 374.948293 620.227829 419.898137 
" style="fill:none;stroke:#000000;stroke-linecap:round;"/>
    <path clip-path="url(#p72f88d53f0)" d="M 617.81417 416.133266 
L 620.227829 419.898137 
L 615.767737 419.570141 
L 617.81417 416.133266 
z
" style="stroke:#000000;stroke-linecap:round;"/>
   </g>
   <g id="patch_57">
    <path clip-path="url(#p72f88d53f0)" d="M 452.355804 326.709094 
Q 336.412866 350.126527 221.565832 373.322615 
" style="fill:none;stroke:#000000;stroke-linecap:round;"/>
    <path clip-path="url(#p72f88d53f0)" d="M 225.882612 374.491125 
L 221.565832 373.322615 
L 225.090708 370.570297 
L 225.882612 374.491125 
z
" style="stroke:#000000;stroke-linecap:round;"/>
   </g>
   <g id="patch_58">
    <path clip-path="url(#p72f88d53f0)" d="M 466.669628 318.583218 
Q 539.772945 238.14049 612.124339 158.525176 
" style="fill:none;stroke:#000000;stroke-linecap:round;"/>
    <path clip-path="url(#p72f88d53f0)" d="M 607.954059 160.140341 
L 612.124339 158.525176 
L 610.914303 162.8305 
L 607.954059 160.140341 
z
" style="stroke:#000000;stroke-linecap:round;"/>
   </g>
   <g id="patch_59">
    <path clip-path="url(#p72f88d53f0)" d="M 463.961161 333.074606 
Q 489.62537 399.573084 514.887027 465.028512 
" style="fill:none;stroke:#000000;stroke-linecap:round;"/>
    <path clip-path="url(#p72f88d53f0)" d="M 515.31268 460.576679 
L 514.887027 465.028512 
L 511.580953 462.01689 
L 515.31268 460.576679 
z
" style="stroke:#000000;stroke-linecap:round;"/>
   </g>
   <g id="patch_60">
    <path clip-path="url(#p72f88d53f0)" d="M 461.602363 316.370847 
Q 470.410557 216.347649 479.120675 117.438174 
" style="fill:none;stroke:#000000;stroke-linecap:round;"/>
    <path clip-path="url(#p72f88d53f0)" d="M 476.777497 121.24731 
L 479.120675 117.438174 
L 480.762077 121.598198 
L 476.777497 121.24731 
z
" style="stroke:#000000;stroke-linecap:round;"/>
   </g>
   <g id="patch_61">
    <path clip-path="url(#p72f88d53f0)" d="M 453.516111 329.612853 
Q 365.001351 385.40187 277.432432 440.594743 
" style="fill:none;stroke:#000000;stroke-linecap:round;"/>
    <path clip-path="url(#p72f88d53f0)" d="M 281.882785 440.153886 
L 277.432432 440.594743 
L 279.749958 436.769946 
L 281.882785 440.153886 
z
" style="stroke:#000000;stroke-linecap:round;"/>
   </g>
   <g id="patch_62">
    <path clip-path="url(#p72f88d53f0)" d="M 456.838633 327.654009 
Q 538.96554 374.144108 620.119487 420.083438 
" style="fill:none;stroke:#000000;stroke-linecap:round;"/>
    <path clip-path="url(#p72f88d53f0)" d="M 617.623764 416.372458 
L 620.119487 420.083438 
L 615.65327 419.853428 
L 617.623764 416.372458 
z
" style="stroke:#000000;stroke-linecap:round;"/>
   </g>
   <g id="patch_63">
    <path clip-path="url(#p72f88d53f0)" d="M 440.837196 325.236336 
Q 330.638693 349.322918 221.532438 373.170763 
" style="fill:none;stroke:#000000;stroke-linecap:round;"/>
    <path clip-path="url(#p72f88d53f0)" d="M 225.867247 374.270502 
L 221.532438 373.170763 
L 225.013114 370.362758 
L 225.867247 374.270502 
z
" style="stroke:#000000;stroke-linecap:round;"/>
   </g>
   <g id="patch_64">
    <path clip-path="url(#p72f88d53f0)" d="M 455.377023 317.21281 
Q 534.002514 237.335356 611.843705 158.254691 
" style="fill:none;stroke:#000000;stroke-linecap:round;"/>
    <path clip-path="url(#p72f88d53f0)" d="M 607.612366 159.70237 
L 611.843705 158.254691 
L 610.463045 162.508369 
L 607.612366 159.70237 
z
" style="stroke:#000000;stroke-linecap:round;"/>
   </g>
   <g id="patch_65">
    <path clip-path="url(#p72f88d53f0)" d="M 452.909608 331.26122 
Q 483.855028 398.77144 514.334573 465.265312 
" style="fill:none;stroke:#000000;stroke-linecap:round;"/>
    <path clip-path="url(#p72f88d53f0)" d="M 514.485907 460.795737 
L 514.334573 465.265312 
L 510.849714 462.4625 
L 514.485907 460.795737 
z
" style="stroke:#000000;stroke-linecap:round;"/>
   </g>
   <g id="patch_66">
    <path clip-path="url(#p72f88d53f0)" d="M 450.519457 314.813172 
Q 464.639143 215.542938 478.601391 117.379596 
" style="fill:none;stroke:#000000;stroke-linecap:round;"/>
    <path clip-path="url(#p72f88d53f0)" d="M 476.05805 121.058104 
L 478.601391 117.379596 
L 480.018192 121.621374 
L 476.05805 121.058104 
z
" style="stroke:#000000;stroke-linecap:round;"/>
   </g>
   <g id="patch_67">
    <path clip-path="url(#p72f88d53f0)" d="M 442.13955 328.252789 
Q 359.229498 384.597943 277.244154 440.314673 
" style="fill:none;stroke:#000000;stroke-linecap:round;"/>
    <path clip-path="url(#p72f88d53f0)" d="M 281.676645 439.720517 
L 277.244154 440.314673 
L 279.428324 436.412186 
L 281.676645 439.720517 
z
" style="stroke:#000000;stroke-linecap:round;"/>
   </g>
   <g id="patch_68">
    <path clip-path="url(#p72f88d53f0)" d="M 393.461735 261.759983 
Q 497.35891 194.750442 600.316519 128.346885 
" style="fill:none;stroke:#000000;stroke-linecap:round;"/>
    <path clip-path="url(#p72f88d53f0)" d="M 595.871009 128.834168 
L 600.316519 128.346885 
L 598.039039 132.195662 
L 595.871009 128.834168 
z
" style="stroke:#000000;stroke-linecap:round;"/>
   </g>
   <g id="patch_69">
    <path clip-path="url(#p72f88d53f0)" d="M 384.818043 275.004111 
Q 371.023924 361.333042 357.406212 446.557943 
" style="fill:none;stroke:#000000;stroke-linecap:round;"/>
    <path clip-path="url(#p72f88d53f0)" d="M 360.012296 442.923617 
L 357.406212 446.557943 
L 356.062401 442.29248 
L 360.012296 442.923617 
z
" style="stroke:#000000;stroke-linecap:round;"/>
   </g>
   <g id="patch_70">
    <path clip-path="url(#p72f88d53f0)" d="M 377.523662 266.287237 
Q 276.145603 264.339276 175.885371 262.412794 
" style="fill:none;stroke:#000000;stroke-linecap:round;"/>
    <path clip-path="url(#p72f88d53f0)" d="M 179.84621 264.48927 
L 175.885371 262.412794 
L 179.923056 260.490008 
L 179.84621 264.48927 
z
" style="stroke:#000000;stroke-linecap:round;"/>
   </g>
   <g id="patch_71">
    <path clip-path="url(#p72f88d53f0)" d="M 377.267661 257.188397 
Q 489.153814 192.291124 600.072846 127.95481 
" style="fill:none;stroke:#000000;stroke-linecap:round;"/>
    <path clip-path="url(#p72f88d53f0)" d="M 595.609291 128.231719 
L 600.072846 127.95481 
L 597.61624 131.691799 
L 595.609291 128.231719 
z
" style="stroke:#000000;stroke-linecap:round;"/>
   </g>
   <g id="patch_72">
    <path clip-path="url(#p72f88d53f0)" d="M 369.156658 270.170564 
Q 362.818587 358.873177 356.5602 446.4606 
" style="fill:none;stroke:#000000;stroke-linecap:round;"/>
    <path clip-path="url(#p72f88d53f0)" d="M 358.8402 442.613315 
L 356.5602 446.4606 
L 354.850372 442.32823 
L 358.8402 442.613315 
z
" style="stroke:#000000;stroke-linecap:round;"/>
   </g>
   <g id="patch_73">
    <path clip-path="url(#p72f88d53f0)" d="M 361.112456 261.564456 
Q 267.940056 261.880001 175.885684 262.19176 
" style="fill:none;stroke:#000000;stroke-linecap:round;"/>
    <path clip-path="url(#p72f88d53f0)" d="M 179.892435 264.178202 
L 175.885684 262.19176 
L 179.878888 260.178224 
L 179.892435 264.178202 
z
" style="stroke:#000000;stroke-linecap:round;"/>
   </g>
   <g id="patch_74">
    <path clip-path="url(#p72f88d53f0)" d="M 379.852005 271.157408 
Q 490.557633 199.456689 600.324855 128.363748 
" style="fill:none;stroke:#000000;stroke-linecap:round;"/>
    <path clip-path="url(#p72f88d53f0)" d="M 595.880285 128.859527 
L 600.324855 128.363748 
L 598.054736 132.216871 
L 595.880285 128.859527 
z
" style="stroke:#000000;stroke-linecap:round;"/>
   </g>
   <g id="patch_75">
    <path clip-path="url(#p72f88d53f0)" d="M 371.783719 284.487035 
Q 364.223231 366.038865 356.765951 446.477434 
" style="fill:none;stroke:#000000;stroke-linecap:round;"/>
    <path clip-path="url(#p72f88d53f0)" d="M 359.126659 442.679137 
L 356.765951 446.477434 
L 355.143739 442.309889 
L 359.126659 442.679137 
z
" style="stroke:#000000;stroke-linecap:round;"/>
   </g>
   <g id="patch_76">
    <path clip-path="url(#p72f88d53f0)" d="M 363.940944 275.294394 
Q 269.34467 269.045114 175.863997 262.869534 
" style="fill:none;stroke:#000000;stroke-linecap:round;"/>
    <path clip-path="url(#p72f88d53f0)" d="M 179.723459 265.12886 
L 175.863997 262.869534 
L 179.987135 261.13756 
L 179.723459 265.12886 
z
" style="stroke:#000000;stroke-linecap:round;"/>
   </g>
   <g id="patch_77">
    <path clip-path="url(#p72f88d53f0)" d="M 282.930243 338.104967 
Q 334.731707 313.311219 385.524699 289.000157 
" style="fill:none;stroke:#000000;stroke-linecap:round;"/>
    <path clip-path="url(#p72f88d53f0)" d="M 381.053228 288.923054 
L 385.524699 289.000157 
L 382.780135 292.531072 
L 381.053228 288.923054 
z
" style="stroke:#000000;stroke-linecap:round;"/>
   </g>
   <g id="patch_78">
    <path clip-path="url(#p72f88d53f0)" d="M 302.456272 210.650097 
Q 345.030477 244.996664 386.734515 278.641227 
" style="fill:none;stroke:#000000;stroke-linecap:round;"/>
    <path clip-path="url(#p72f88d53f0)" d="M 384.877094 274.57306 
L 386.734515 278.641227 
L 382.365529 277.686264 
L 384.877094 274.57306 
z
" style="stroke:#000000;stroke-linecap:round;"/>
   </g>
   <g id="patch_79">
    <path clip-path="url(#p72f88d53f0)" d="M 497.343296 267.857915 
Q 576.236479 218.022675 654.184419 168.784525 
" style="fill:none;stroke:#000000;stroke-linecap:round;"/>
    <path clip-path="url(#p72f88d53f0)" d="M 649.73451 169.229841 
L 654.184419 168.784525 
L 651.870726 172.611642 
L 649.73451 169.229841 
z
" style="stroke:#000000;stroke-linecap:round;"/>
   </g>
   <g id="patch_80">
    <path clip-path="url(#p72f88d53f0)" d="M 494.064536 280.14301 
Q 539.517187 366.242286 584.447884 451.352845 
" style="fill:none;stroke:#000000;stroke-linecap:round;"/>
    <path clip-path="url(#p72f88d53f0)" d="M 584.349158 446.881799 
L 584.447884 451.352845 
L 580.811812 448.749198 
L 584.349158 446.881799 
z
" style="stroke:#000000;stroke-linecap:round;"/>
   </g>
   <g id="patch_81">
    <path clip-path="url(#p72f88d53f0)" d="M 498.478187 274.358077 
Q 549.824622 285.740244 600.07952 296.880445 
" style="fill:none;stroke:#000000;stroke-linecap:round;"/>
    <path clip-path="url(#p72f88d53f0)" d="M 596.60716 294.062163 
L 600.07952 296.880445 
L 595.741478 297.967364 
L 596.60716 294.062163 
z
" style="stroke:#000000;stroke-linecap:round;"/>
   </g>
   <g id="patch_82">
    <path clip-path="url(#p72f88d53f0)" d="M 486.072316 264.772567 
Q 484.818534 262.324201 484.074353 260.870976 
" style="fill:none;stroke:#000000;stroke-linecap:round;"/>
    <path clip-path="url(#p72f88d53f0)" d="M 484.117395 265.342905 
L 484.074353 260.870976 
L 487.677721 263.5197 
L 484.117395 265.342905 
z
" style="stroke:#000000;stroke-linecap:round;"/>
   </g>
   <g id="patch_83">
    <path clip-path="url(#p72f88d53f0)" d="M 492.451128 264.168571 
Q 514.116608 190.042281 535.468434 116.989128 
" style="fill:none;stroke:#000000;stroke-linecap:round;"/>
    <path clip-path="url(#p72f88d53f0)" d="M 532.426587 120.267415 
L 535.468434 116.989128 
L 536.265955 121.389578 
L 532.426587 120.267415 
z
" style="stroke:#000000;stroke-linecap:round;"/>
   </g>
   <g id="patch_84">
    <path clip-path="url(#p72f88d53f0)" d="M 481.433615 273.58692 
Q 442.182014 278.631363 404.039326 283.533292 
" style="fill:none;stroke:#000000;stroke-linecap:round;"/>
    <path clip-path="url(#p72f88d53f0)" d="M 408.261632 285.007109 
L 404.039326 283.533292 
L 407.751763 281.039738 
L 408.261632 285.007109 
z
" style="stroke:#000000;stroke-linecap:round;"/>
   </g>
   <g id="patch_85">
    <path clip-path="url(#p72f88d53f0)" d="M 481.434383 273.604914 
Q 330.970906 293.258849 181.616044 312.767973 
" style="fill:none;stroke:#000000;stroke-linecap:round;"/>
    <path clip-path="url(#p72f88d53f0)" d="M 185.841395 314.233036 
L 181.616044 312.767973 
L 185.323306 310.26673 
L 185.841395 314.233036 
z
" style="stroke:#000000;stroke-linecap:round;"/>
   </g>
   <g id="patch_86">
    <path clip-path="url(#p72f88d53f0)" d="M 496.417255 276.043435 
Q 575.849194 222.231758 654.355506 169.047151 
" style="fill:none;stroke:#000000;stroke-linecap:round;"/>
    <path clip-path="url(#p72f88d53f0)" d="M 649.92215 169.634819 
L 654.355506 169.047151 
L 652.165627 172.946437 
L 649.92215 169.634819 
z
" style="stroke:#000000;stroke-linecap:round;"/>
   </g>
   <g id="patch_87">
    <path clip-path="url(#p72f88d53f0)" d="M 493.4623 288.468235 
Q 539.130346 370.451304 584.254317 451.457653 
" style="fill:none;stroke:#000000;stroke-linecap:round;"/>
    <path clip-path="url(#p72f88d53f0)" d="M 584.054987 446.989961 
L 584.254317 451.457653 
L 580.560565 448.936502 
L 584.054987 446.989961 
z
" style="stroke:#000000;stroke-linecap:round;"/>
   </g>
   <g id="patch_88">
    <path clip-path="url(#p72f88d53f0)" d="M 497.810441 282.188248 
Q 549.438049 289.949087 599.960045 297.543725 
" style="fill:none;stroke:#000000;stroke-linecap:round;"/>
    <path clip-path="url(#p72f88d53f0)" d="M 596.301793 294.971334 
L 599.960045 297.543725 
L 595.707181 298.926891 
L 596.301793 294.971334 
z
" style="stroke:#000000;stroke-linecap:round;"/>
   </g>
   <g id="patch_89">
    <path clip-path="url(#p72f88d53f0)" d="M 486.494971 272.689477 
Q 484.431555 266.53269 482.723421 261.435986 
" style="fill:none;stroke:#000000;stroke-linecap:round;"/>
    <path clip-path="url(#p72f88d53f0)" d="M 482.09818 265.8642 
L 482.723421 261.435986 
L 485.890847 264.593107 
L 482.09818 265.8642 
z
" style="stroke:#000000;stroke-linecap:round;"/>
   </g>
   <g id="patch_90">
    <path clip-path="url(#p72f88d53f0)" d="M 491.601198 272.568926 
Q 513.728475 194.255184 535.551757 117.017353 
" style="fill:none;stroke:#000000;stroke-linecap:round;"/>
    <path clip-path="url(#p72f88d53f0)" d="M 532.539501 120.32285 
L 535.551757 117.017353 
L 536.388801 121.410456 
L 532.539501 120.32285 
z
" style="stroke:#000000;stroke-linecap:round;"/>
   </g>
   <g id="patch_91">
    <path clip-path="url(#p72f88d53f0)" d="M 480.595947 281.254508 
Q 441.795584 282.840165 404.112323 284.38017 
" style="fill:none;stroke:#000000;stroke-linecap:round;"/>
    <path clip-path="url(#p72f88d53f0)" d="M 408.190653 286.21517 
L 404.112323 284.38017 
L 408.027321 282.218506 
L 408.190653 286.21517 
z
" style="stroke:#000000;stroke-linecap:round;"/>
   </g>
   <g id="patch_92">
    <path clip-path="url(#p72f88d53f0)" d="M 480.632952 281.800399 
Q 330.582621 297.467868 181.644279 313.019228 
" style="fill:none;stroke:#000000;stroke-linecap:round;"/>
    <path clip-path="url(#p72f88d53f0)" d="M 185.830351 314.593013 
L 181.644279 313.019228 
L 185.41495 310.614642 
L 185.830351 314.593013 
z
" style="stroke:#000000;stroke-linecap:round;"/>
   </g>
   <g id="patch_93">
    <path clip-path="url(#p72f88d53f0)" d="M 398.688048 389.260132 
Q 419.814026 348.726956 440.423258 309.185231 
" style="fill:none;stroke:#000000;stroke-linecap:round;"/>
    <path clip-path="url(#p72f88d53f0)" d="M 436.800932 311.807968 
L 440.423258 309.185231 
L 440.348052 313.656734 
L 436.800932 311.807968 
z
" style="stroke:#000000;stroke-linecap:round;"/>
   </g>
   <g id="patch_94">
    <path clip-path="url(#p72f88d53f0)" d="M 293.673625 274.774895 
Q 365.039885 286.919136 435.303955 298.87582 
" style="fill:none;stroke:#000000;stroke-linecap:round;"/>
    <path clip-path="url(#p72f88d53f0)" d="M 431.696154 296.233138 
L 435.303955 298.87582 
L 431.025128 300.176452 
L 431.696154 296.233138 
z
" style="stroke:#000000;stroke-linecap:round;"/>
   </g>
   <g id="patch_95">
    <path clip-path="url(#p72f88d53f0)" d="M 579.463019 264.272242 
Q 585.654846 263.961009 590.730049 263.705902 
" style="fill:none;stroke:#000000;stroke-linecap:round;"/>
    <path clip-path="url(#p72f88d53f0)" d="M 586.634688 261.909232 
L 590.730049 263.705902 
L 586.835496 265.904188 
L 586.634688 261.909232 
z
" style="stroke:#000000;stroke-linecap:round;"/>
   </g>
   <g id="patch_96">
    <path clip-path="url(#p72f88d53f0)" d="M 562.189213 265.537119 
Q 530.415162 268.595372 499.754002 271.546509 
" style="fill:none;stroke:#000000;stroke-linecap:round;"/>
    <path clip-path="url(#p72f88d53f0)" d="M 503.927216 273.15408 
L 499.754002 271.546509 
L 503.543987 269.17248 
L 503.927216 273.15408 
z
" style="stroke:#000000;stroke-linecap:round;"/>
   </g>
   <g id="patch_97">
    <path clip-path="url(#p72f88d53f0)" d="M 562.318183 266.3937 
Q 530.030661 272.803938 498.839769 278.996455 
" style="fill:none;stroke:#000000;stroke-linecap:round;"/>
    <path clip-path="url(#p72f88d53f0)" d="M 503.152663 280.179226 
L 498.839769 278.996455 
L 502.373722 276.255802 
L 503.152663 280.179226 
z
" style="stroke:#000000;stroke-linecap:round;"/>
   </g>
   <g id="patch_98">
    <path clip-path="url(#p72f88d53f0)" d="M 564.137549 233.546251 
Q 578.962946 245.643531 592.922101 257.033971 
" style="fill:none;stroke:#000000;stroke-linecap:round;"/>
    <path clip-path="url(#p72f88d53f0)" d="M 591.087369 252.95552 
L 592.922101 257.033971 
L 588.558501 256.054686 
L 591.087369 252.95552 
z
" style="stroke:#000000;stroke-linecap:round;"/>
   </g>
   <g id="patch_99">
    <path clip-path="url(#p72f88d53f0)" d="M 550.197674 232.832687 
Q 523.725261 250.275432 498.186439 267.10303 
" style="fill:none;stroke:#000000;stroke-linecap:round;"/>
    <path clip-path="url(#p72f88d53f0)" d="M 502.626968 266.572276 
L 498.186439 267.10303 
L 500.426153 263.232154 
L 502.626968 266.572276 
z
" style="stroke:#000000;stroke-linecap:round;"/>
   </g>
   <g id="patch_100">
    <path clip-path="url(#p72f88d53f0)" d="M 550.57867 233.375847 
Q 523.336168 254.485713 496.977425 274.910765 
" style="fill:none;stroke:#000000;stroke-linecap:round;"/>
    <path clip-path="url(#p72f88d53f0)" d="M 501.364289 274.041617 
L 496.977425 274.910765 
L 498.914226 270.879785 
L 501.364289 274.041617 
z
" style="stroke:#000000;stroke-linecap:round;"/>
   </g>
   <g id="patch_101">
    <path clip-path="url(#p72f88d53f0)" d="M 436.006711 244.659005 
Q 415.062377 253.821029 395.142358 262.534971 
" style="fill:none;stroke:#000000;stroke-linecap:round;"/>
    <path clip-path="url(#p72f88d53f0)" d="M 399.608614 262.764211 
L 395.142358 262.534971 
L 398.005504 259.09951 
L 399.608614 262.764211 
z
" style="stroke:#000000;stroke-linecap:round;"/>
   </g>
   <g id="patch_102">
    <path clip-path="url(#p72f88d53f0)" d="M 435.589969 243.479034 
Q 406.857611 251.361491 379.203448 258.948155 
" style="fill:none;stroke:#000000;stroke-linecap:round;"/>
    <path clip-path="url(#p72f88d53f0)" d="M 383.59005 259.818629 
L 379.203448 258.948155 
L 382.531789 255.961158 
L 383.59005 259.818629 
z
" style="stroke:#000000;stroke-linecap:round;"/>
   </g>
   <g id="patch_103">
    <path clip-path="url(#p72f88d53f0)" d="M 436.150231 244.974227 
Q 408.260039 258.527728 381.375432 271.592557 
" style="fill:none;stroke:#000000;stroke-linecap:round;"/>
    <path clip-path="url(#p72f88d53f0)" d="M 385.847283 271.64307 
L 381.375432 271.592557 
L 384.098953 268.045384 
L 385.847283 271.64307 
z
" style="stroke:#000000;stroke-linecap:round;"/>
   </g>
   <g id="patch_104">
    <path clip-path="url(#p72f88d53f0)" d="M 306.352248 286.150644 
Q 342.064464 277.339352 376.691197 268.795882 
" style="fill:none;stroke:#000000;stroke-linecap:round;"/>
    <path clip-path="url(#p72f88d53f0)" d="M 372.328565 267.8123 
L 376.691197 268.795882 
L 373.286752 271.695839 
L 372.328565 267.8123 
z
" style="stroke:#000000;stroke-linecap:round;"/>
   </g>
   <g id="patch_105">
    <path clip-path="url(#p72f88d53f0)" d="M 306.057452 285.210264 
Q 333.857471 274.880567 360.609465 264.940287 
" style="fill:none;stroke:#000000;stroke-linecap:round;"/>
    <path clip-path="url(#p72f88d53f0)" d="M 356.16333 264.458741 
L 360.609465 264.940287 
L 357.556547 268.208268 
L 356.16333 264.458741 
z
" style="stroke:#000000;stroke-linecap:round;"/>
   </g>
   <g id="patch_106">
    <path clip-path="url(#p72f88d53f0)" d="M 306.484177 286.811126 
Q 335.263236 282.045381 362.939282 277.462293 
" style="fill:none;stroke:#000000;stroke-linecap:round;"/>
    <path clip-path="url(#p72f88d53f0)" d="M 358.666278 276.142655 
L 362.939282 277.462293 
L 359.319769 280.088912 
L 358.666278 276.142655 
z
" style="stroke:#000000;stroke-linecap:round;"/>
   </g>
   <g id="PathCollection_1">
    <defs>
     <path d="M 0 8.660254 
C 2.296726 8.660254 4.499694 7.747755 6.123724 6.123724 
C 7.747755 4.499694 8.660254 2.296726 8.660254 0 
C 8.660254 -2.296726 7.747755 -4.499694 6.123724 -6.123724 
C 4.499694 -7.747755 2.296726 -8.660254 0 -8.660254 
C -2.296726 -8.660254 -4.499694 -7.747755 -6.123724 -6.123724 
C -7.747755 -4.499694 -8.660254 -2.296726 -8.660254 0 
C -8.660254 2.296726 -7.747755 4.499694 -6.123724 6.123724 
C -4.499694 7.747755 -2.296726 8.660254 0 8.660254 
z
" id="m5d6cfac89e" style="stroke:#1f78b4;"/>
    </defs>
    <g clip-path="url(#p72f88d53f0)">
     <use style="fill:#1f78b4;stroke:#1f78b4;" x="438.287011" xlink:href="#m5d6cfac89e" y="172.611321"/>
     <use style="fill:#1f78b4;stroke:#1f78b4;" x="489.533727" xlink:href="#m5d6cfac89e" y="194.153078"/>
     <use style="fill:#1f78b4;stroke:#1f78b4;" x="479.616638" xlink:href="#m5d6cfac89e" y="252.16602"/>
     <use style="fill:#1f78b4;stroke:#1f78b4;" x="209.028275" xlink:href="#m5d6cfac89e" y="213.908563"/>
     <use style="fill:#1f78b4;stroke:#1f78b4;" x="166.105785" xlink:href="#m5d6cfac89e" y="262.224881"/>
     <use style="fill:#1f78b4;stroke:#1f78b4;" x="171.916532" xlink:href="#m5d6cfac89e" y="314.034949"/>
     <use style="fill:#1f78b4;stroke:#1f78b4;" x="570.331941" xlink:href="#m5d6cfac89e" y="325.852685"/>
     <use style="fill:#1f78b4;stroke:#1f78b4;" x="609.627319" xlink:href="#m5d6cfac89e" y="298.996943"/>
     <use style="fill:#1f78b4;stroke:#1f78b4;" x="662.453504" xlink:href="#m5d6cfac89e" y="163.56111"/>
     <use style="fill:#1f78b4;stroke:#1f78b4;" x="589.013455" xlink:href="#m5d6cfac89e" y="460.001236"/>
     <use style="fill:#1f78b4;stroke:#1f78b4;" x="609.238676" xlink:href="#m5d6cfac89e" y="292.934809"/>
     <use style="fill:#1f78b4;stroke:#1f78b4;" x="538.210543" xlink:href="#m5d6cfac89e" y="107.607273"/>
     <use style="fill:#1f78b4;stroke:#1f78b4;" x="685.020121" xlink:href="#m5d6cfac89e" y="195.916904"/>
     <use style="fill:#1f78b4;stroke:#1f78b4;" x="608.531627" xlink:href="#m5d6cfac89e" y="123.048467"/>
     <use style="fill:#1f78b4;stroke:#1f78b4;" x="394.343086" xlink:href="#m5d6cfac89e" y="284.77941"/>
     <use style="fill:#1f78b4;stroke:#1f78b4;" x="483.781691" xlink:href="#m5d6cfac89e" y="143.565353"/>
     <use style="fill:#1f78b4;stroke:#1f78b4;" x="453.656676" xlink:href="#m5d6cfac89e" y="275.603979"/>
     <use style="fill:#1f78b4;stroke:#1f78b4;" x="435.125886" xlink:href="#m5d6cfac89e" y="280.958504"/>
     <use style="fill:#1f78b4;stroke:#1f78b4;" x="355.863272" xlink:href="#m5d6cfac89e" y="456.214264"/>
     <use style="fill:#1f78b4;stroke:#1f78b4;" x="451.527906" xlink:href="#m5d6cfac89e" y="261.078856"/>
     <use style="fill:#1f78b4;stroke:#1f78b4;" x="403.966459" xlink:href="#m5d6cfac89e" y="306.78891"/>
     <use style="fill:#1f78b4;stroke:#1f78b4;" x="474.936319" xlink:href="#m5d6cfac89e" y="241.168046"/>
     <use style="fill:#1f78b4;stroke:#1f78b4;" x="600.497" xlink:href="#m5d6cfac89e" y="263.214964"/>
     <use style="fill:#1f78b4;stroke:#1f78b4;" x="711.227104" xlink:href="#m5d6cfac89e" y="223.692836"/>
     <use style="fill:#1f78b4;stroke:#1f78b4;" x="712.864216" xlink:href="#m5d6cfac89e" y="319.364485"/>
     <use style="fill:#1f78b4;stroke:#1f78b4;" x="719.494215" xlink:href="#m5d6cfac89e" y="260.357656"/>
     <use style="fill:#1f78b4;stroke:#1f78b4;" x="381.072251" xlink:href="#m5d6cfac89e" y="206.900689"/>
     <use style="fill:#1f78b4;stroke:#1f78b4;" x="499.032734" xlink:href="#m5d6cfac89e" y="309.344623"/>
     <use style="fill:#1f78b4;stroke:#1f78b4;" x="444.941752" xlink:href="#m5d6cfac89e" y="300.515863"/>
     <use style="fill:#1f78b4;stroke:#1f78b4;" x="612.659742" xlink:href="#m5d6cfac89e" y="391.850794"/>
     <use style="fill:#1f78b4;stroke:#1f78b4;" x="553.65461" xlink:href="#m5d6cfac89e" y="442.273754"/>
     <use style="fill:#1f78b4;stroke:#1f78b4;" x="234.464967" xlink:href="#m5d6cfac89e" y="156.552639"/>
     <use style="fill:#1f78b4;stroke:#1f78b4;" x="673.309644" xlink:href="#m5d6cfac89e" y="387.173765"/>
     <use style="fill:#1f78b4;stroke:#1f78b4;" x="628.628709" xlink:href="#m5d6cfac89e" y="424.900307"/>
     <use style="fill:#1f78b4;stroke:#1f78b4;" x="211.978828" xlink:href="#m5d6cfac89e" y="375.258938"/>
     <use style="fill:#1f78b4;stroke:#1f78b4;" x="618.701329" xlink:href="#m5d6cfac89e" y="151.287872"/>
     <use style="fill:#1f78b4;stroke:#1f78b4;" x="518.408398" xlink:href="#m5d6cfac89e" y="474.152727"/>
     <use style="fill:#1f78b4;stroke:#1f78b4;" x="479.978342" xlink:href="#m5d6cfac89e" y="107.698768"/>
     <use style="fill:#1f78b4;stroke:#1f78b4;" x="269.158536" xlink:href="#m5d6cfac89e" y="445.809608"/>
     <use style="fill:#1f78b4;stroke:#1f78b4;" x="460.842914" xlink:href="#m5d6cfac89e" y="324.994921"/>
     <use style="fill:#1f78b4;stroke:#1f78b4;" x="449.30002" xlink:href="#m5d6cfac89e" y="323.386578"/>
     <use style="fill:#1f78b4;stroke:#1f78b4;" x="386.184283" xlink:href="#m5d6cfac89e" y="266.453649"/>
     <use style="fill:#1f78b4;stroke:#1f78b4;" x="369.773687" xlink:href="#m5d6cfac89e" y="261.535123"/>
     <use style="fill:#1f78b4;stroke:#1f78b4;" x="372.58302" xlink:href="#m5d6cfac89e" y="275.865312"/>
     <use style="fill:#1f78b4;stroke:#1f78b4;" x="275.1185" xlink:href="#m5d6cfac89e" y="341.843903"/>
     <use style="fill:#1f78b4;stroke:#1f78b4;" x="295.717283" xlink:href="#m5d6cfac89e" y="205.213446"/>
     <use style="fill:#1f78b4;stroke:#1f78b4;" x="490.02091" xlink:href="#m5d6cfac89e" y="272.483319"/>
     <use style="fill:#1f78b4;stroke:#1f78b4;" x="489.24701" xlink:href="#m5d6cfac89e" y="280.900964"/>
     <use style="fill:#1f78b4;stroke:#1f78b4;" x="394.686724" xlink:href="#m5d6cfac89e" y="396.937236"/>
     <use style="fill:#1f78b4;stroke:#1f78b4;" x="285.134098" xlink:href="#m5d6cfac89e" y="273.321742"/>
     <use style="fill:#1f78b4;stroke:#1f78b4;" x="570.813905" xlink:href="#m5d6cfac89e" y="264.706992"/>
     <use style="fill:#1f78b4;stroke:#1f78b4;" x="557.426127" xlink:href="#m5d6cfac89e" y="228.069841"/>
     <use style="fill:#1f78b4;stroke:#1f78b4;" x="443.94206" xlink:href="#m5d6cfac89e" y="241.187715"/>
     <use style="fill:#1f78b4;stroke:#1f78b4;" x="297.942215" xlink:href="#m5d6cfac89e" y="288.225655"/>
    </g>
   </g>
   <g id="text_1">
    <g clip-path="url(#p72f88d53f0)">
     <!-- CDH5 -->
     <g transform="translate(421.147636 175.922571)scale(0.12 -0.12)">
      <defs>
       <path d="M 64.40625 67.28125 
L 64.40625 56.890625 
Q 59.421875 61.53125 53.78125 63.8125 
Q 48.140625 66.109375 41.796875 66.109375 
Q 29.296875 66.109375 22.65625 58.46875 
Q 16.015625 50.828125 16.015625 36.375 
Q 16.015625 21.96875 22.65625 14.328125 
Q 29.296875 6.6875 41.796875 6.6875 
Q 48.140625 6.6875 53.78125 8.984375 
Q 59.421875 11.28125 64.40625 15.921875 
L 64.40625 5.609375 
Q 59.234375 2.09375 53.4375 0.328125 
Q 47.65625 -1.421875 41.21875 -1.421875 
Q 24.65625 -1.421875 15.125 8.703125 
Q 5.609375 18.84375 5.609375 36.375 
Q 5.609375 53.953125 15.125 64.078125 
Q 24.65625 74.21875 41.21875 74.21875 
Q 47.75 74.21875 53.53125 72.484375 
Q 59.328125 70.75 64.40625 67.28125 
z
" id="DejaVuSans-67"/>
       <path d="M 19.671875 64.796875 
L 19.671875 8.109375 
L 31.59375 8.109375 
Q 46.6875 8.109375 53.6875 14.9375 
Q 60.6875 21.78125 60.6875 36.53125 
Q 60.6875 51.171875 53.6875 57.984375 
Q 46.6875 64.796875 31.59375 64.796875 
z
M 9.8125 72.90625 
L 30.078125 72.90625 
Q 51.265625 72.90625 61.171875 64.09375 
Q 71.09375 55.28125 71.09375 36.53125 
Q 71.09375 17.671875 61.125 8.828125 
Q 51.171875 0 30.078125 0 
L 9.8125 0 
z
" id="DejaVuSans-68"/>
       <path d="M 9.8125 72.90625 
L 19.671875 72.90625 
L 19.671875 43.015625 
L 55.515625 43.015625 
L 55.515625 72.90625 
L 65.375 72.90625 
L 65.375 0 
L 55.515625 0 
L 55.515625 34.71875 
L 19.671875 34.71875 
L 19.671875 0 
L 9.8125 0 
z
" id="DejaVuSans-72"/>
       <path d="M 10.796875 72.90625 
L 49.515625 72.90625 
L 49.515625 64.59375 
L 19.828125 64.59375 
L 19.828125 46.734375 
Q 21.96875 47.46875 24.109375 47.828125 
Q 26.265625 48.1875 28.421875 48.1875 
Q 40.625 48.1875 47.75 41.5 
Q 54.890625 34.8125 54.890625 23.390625 
Q 54.890625 11.625 47.5625 5.09375 
Q 40.234375 -1.421875 26.90625 -1.421875 
Q 22.3125 -1.421875 17.546875 -0.640625 
Q 12.796875 0.140625 7.71875 1.703125 
L 7.71875 11.625 
Q 12.109375 9.234375 16.796875 8.0625 
Q 21.484375 6.890625 26.703125 6.890625 
Q 35.15625 6.890625 40.078125 11.328125 
Q 45.015625 15.765625 45.015625 23.390625 
Q 45.015625 31 40.078125 35.4375 
Q 35.15625 39.890625 26.703125 39.890625 
Q 22.75 39.890625 18.8125 39.015625 
Q 14.890625 38.140625 10.796875 36.28125 
z
" id="DejaVuSans-53"/>
      </defs>
      <use xlink:href="#DejaVuSans-67"/>
      <use x="69.824219" xlink:href="#DejaVuSans-68"/>
      <use x="146.826172" xlink:href="#DejaVuSans-72"/>
      <use x="222.021484" xlink:href="#DejaVuSans-53"/>
     </g>
    </g>
   </g>
   <g id="text_2">
    <g clip-path="url(#p72f88d53f0)">
     <!-- PECAM1 -->
     <g transform="translate(464.836227 197.464328)scale(0.12 -0.12)">
      <defs>
       <path d="M 19.671875 64.796875 
L 19.671875 37.40625 
L 32.078125 37.40625 
Q 38.96875 37.40625 42.71875 40.96875 
Q 46.484375 44.53125 46.484375 51.125 
Q 46.484375 57.671875 42.71875 61.234375 
Q 38.96875 64.796875 32.078125 64.796875 
z
M 9.8125 72.90625 
L 32.078125 72.90625 
Q 44.34375 72.90625 50.609375 67.359375 
Q 56.890625 61.8125 56.890625 51.125 
Q 56.890625 40.328125 50.609375 34.8125 
Q 44.34375 29.296875 32.078125 29.296875 
L 19.671875 29.296875 
L 19.671875 0 
L 9.8125 0 
z
" id="DejaVuSans-80"/>
       <path d="M 9.8125 72.90625 
L 55.90625 72.90625 
L 55.90625 64.59375 
L 19.671875 64.59375 
L 19.671875 43.015625 
L 54.390625 43.015625 
L 54.390625 34.71875 
L 19.671875 34.71875 
L 19.671875 8.296875 
L 56.78125 8.296875 
L 56.78125 0 
L 9.8125 0 
z
" id="DejaVuSans-69"/>
       <path d="M 34.1875 63.1875 
L 20.796875 26.90625 
L 47.609375 26.90625 
z
M 28.609375 72.90625 
L 39.796875 72.90625 
L 67.578125 0 
L 57.328125 0 
L 50.6875 18.703125 
L 17.828125 18.703125 
L 11.1875 0 
L 0.78125 0 
z
" id="DejaVuSans-65"/>
       <path d="M 9.8125 72.90625 
L 24.515625 72.90625 
L 43.109375 23.296875 
L 61.8125 72.90625 
L 76.515625 72.90625 
L 76.515625 0 
L 66.890625 0 
L 66.890625 64.015625 
L 48.09375 14.015625 
L 38.1875 14.015625 
L 19.390625 64.015625 
L 19.390625 0 
L 9.8125 0 
z
" id="DejaVuSans-77"/>
       <path d="M 12.40625 8.296875 
L 28.515625 8.296875 
L 28.515625 63.921875 
L 10.984375 60.40625 
L 10.984375 69.390625 
L 28.421875 72.90625 
L 38.28125 72.90625 
L 38.28125 8.296875 
L 54.390625 8.296875 
L 54.390625 0 
L 12.40625 0 
z
" id="DejaVuSans-49"/>
      </defs>
      <use xlink:href="#DejaVuSans-80"/>
      <use x="60.302734" xlink:href="#DejaVuSans-69"/>
      <use x="123.486328" xlink:href="#DejaVuSans-67"/>
      <use x="193.310547" xlink:href="#DejaVuSans-65"/>
      <use x="261.71875" xlink:href="#DejaVuSans-77"/>
      <use x="347.998047" xlink:href="#DejaVuSans-49"/>
     </g>
    </g>
   </g>
   <g id="text_3">
    <g clip-path="url(#p72f88d53f0)">
     <!-- ITGB2 -->
     <g transform="translate(461.598826 255.47727)scale(0.12 -0.12)">
      <defs>
       <path d="M 9.8125 72.90625 
L 19.671875 72.90625 
L 19.671875 0 
L 9.8125 0 
z
" id="DejaVuSans-73"/>
       <path d="M -0.296875 72.90625 
L 61.375 72.90625 
L 61.375 64.59375 
L 35.5 64.59375 
L 35.5 0 
L 25.59375 0 
L 25.59375 64.59375 
L -0.296875 64.59375 
z
" id="DejaVuSans-84"/>
       <path d="M 59.515625 10.40625 
L 59.515625 29.984375 
L 43.40625 29.984375 
L 43.40625 38.09375 
L 69.28125 38.09375 
L 69.28125 6.78125 
Q 63.578125 2.734375 56.6875 0.65625 
Q 49.8125 -1.421875 42 -1.421875 
Q 24.90625 -1.421875 15.25 8.5625 
Q 5.609375 18.5625 5.609375 36.375 
Q 5.609375 54.25 15.25 64.234375 
Q 24.90625 74.21875 42 74.21875 
Q 49.125 74.21875 55.546875 72.453125 
Q 61.96875 70.703125 67.390625 67.28125 
L 67.390625 56.78125 
Q 61.921875 61.421875 55.765625 63.765625 
Q 49.609375 66.109375 42.828125 66.109375 
Q 29.4375 66.109375 22.71875 58.640625 
Q 16.015625 51.171875 16.015625 36.375 
Q 16.015625 21.625 22.71875 14.15625 
Q 29.4375 6.6875 42.828125 6.6875 
Q 48.046875 6.6875 52.140625 7.59375 
Q 56.25 8.5 59.515625 10.40625 
z
" id="DejaVuSans-71"/>
       <path d="M 19.671875 34.8125 
L 19.671875 8.109375 
L 35.5 8.109375 
Q 43.453125 8.109375 47.28125 11.40625 
Q 51.125 14.703125 51.125 21.484375 
Q 51.125 28.328125 47.28125 31.5625 
Q 43.453125 34.8125 35.5 34.8125 
z
M 19.671875 64.796875 
L 19.671875 42.828125 
L 34.28125 42.828125 
Q 41.5 42.828125 45.03125 45.53125 
Q 48.578125 48.25 48.578125 53.8125 
Q 48.578125 59.328125 45.03125 62.0625 
Q 41.5 64.796875 34.28125 64.796875 
z
M 9.8125 72.90625 
L 35.015625 72.90625 
Q 46.296875 72.90625 52.390625 68.21875 
Q 58.5 63.53125 58.5 54.890625 
Q 58.5 48.1875 55.375 44.234375 
Q 52.25 40.28125 46.1875 39.3125 
Q 53.46875 37.75 57.5 32.78125 
Q 61.53125 27.828125 61.53125 20.40625 
Q 61.53125 10.640625 54.890625 5.3125 
Q 48.25 0 35.984375 0 
L 9.8125 0 
z
" id="DejaVuSans-66"/>
       <path d="M 19.1875 8.296875 
L 53.609375 8.296875 
L 53.609375 0 
L 7.328125 0 
L 7.328125 8.296875 
Q 12.9375 14.109375 22.625 23.890625 
Q 32.328125 33.6875 34.8125 36.53125 
Q 39.546875 41.84375 41.421875 45.53125 
Q 43.3125 49.21875 43.3125 52.78125 
Q 43.3125 58.59375 39.234375 62.25 
Q 35.15625 65.921875 28.609375 65.921875 
Q 23.96875 65.921875 18.8125 64.3125 
Q 13.671875 62.703125 7.8125 59.421875 
L 7.8125 69.390625 
Q 13.765625 71.78125 18.9375 73 
Q 24.125 74.21875 28.421875 74.21875 
Q 39.75 74.21875 46.484375 68.546875 
Q 53.21875 62.890625 53.21875 53.421875 
Q 53.21875 48.921875 51.53125 44.890625 
Q 49.859375 40.875 45.40625 35.40625 
Q 44.1875 33.984375 37.640625 27.21875 
Q 31.109375 20.453125 19.1875 8.296875 
z
" id="DejaVuSans-50"/>
      </defs>
      <use xlink:href="#DejaVuSans-73"/>
      <use x="29.492188" xlink:href="#DejaVuSans-84"/>
      <use x="90.576172" xlink:href="#DejaVuSans-71"/>
      <use x="168.066406" xlink:href="#DejaVuSans-66"/>
      <use x="236.669922" xlink:href="#DejaVuSans-50"/>
     </g>
    </g>
   </g>
   <g id="text_4">
    <g clip-path="url(#p72f88d53f0)">
     <!-- CTNND1 -->
     <g transform="translate(183.7589 217.219813)scale(0.12 -0.12)">
      <defs>
       <path d="M 9.8125 72.90625 
L 23.09375 72.90625 
L 55.421875 11.921875 
L 55.421875 72.90625 
L 64.984375 72.90625 
L 64.984375 0 
L 51.703125 0 
L 19.390625 60.984375 
L 19.390625 0 
L 9.8125 0 
z
" id="DejaVuSans-78"/>
      </defs>
      <use xlink:href="#DejaVuSans-67"/>
      <use x="69.824219" xlink:href="#DejaVuSans-84"/>
      <use x="130.908203" xlink:href="#DejaVuSans-78"/>
      <use x="205.712891" xlink:href="#DejaVuSans-78"/>
      <use x="280.517578" xlink:href="#DejaVuSans-68"/>
      <use x="357.519531" xlink:href="#DejaVuSans-49"/>
     </g>
    </g>
   </g>
   <g id="text_5">
    <g clip-path="url(#p72f88d53f0)">
     <!-- BCAR1 -->
     <g transform="translate(145.813598 265.536131)scale(0.12 -0.12)">
      <defs>
       <path d="M 44.390625 34.1875 
Q 47.5625 33.109375 50.5625 29.59375 
Q 53.5625 26.078125 56.59375 19.921875 
L 66.609375 0 
L 56 0 
L 46.6875 18.703125 
Q 43.0625 26.03125 39.671875 28.421875 
Q 36.28125 30.8125 30.421875 30.8125 
L 19.671875 30.8125 
L 19.671875 0 
L 9.8125 0 
L 9.8125 72.90625 
L 32.078125 72.90625 
Q 44.578125 72.90625 50.734375 67.671875 
Q 56.890625 62.453125 56.890625 51.90625 
Q 56.890625 45.015625 53.6875 40.46875 
Q 50.484375 35.9375 44.390625 34.1875 
z
M 19.671875 64.796875 
L 19.671875 38.921875 
L 32.078125 38.921875 
Q 39.203125 38.921875 42.84375 42.21875 
Q 46.484375 45.515625 46.484375 51.90625 
Q 46.484375 58.296875 42.84375 61.546875 
Q 39.203125 64.796875 32.078125 64.796875 
z
" id="DejaVuSans-82"/>
      </defs>
      <use xlink:href="#DejaVuSans-66"/>
      <use x="66.853516" xlink:href="#DejaVuSans-67"/>
      <use x="136.677734" xlink:href="#DejaVuSans-65"/>
      <use x="205.085938" xlink:href="#DejaVuSans-82"/>
      <use x="274.568359" xlink:href="#DejaVuSans-49"/>
     </g>
    </g>
   </g>
   <g id="text_6">
    <g clip-path="url(#p72f88d53f0)">
     <!-- SIPA1 -->
     <g transform="translate(155.180282 317.346199)scale(0.12 -0.12)">
      <defs>
       <path d="M 53.515625 70.515625 
L 53.515625 60.890625 
Q 47.90625 63.578125 42.921875 64.890625 
Q 37.9375 66.21875 33.296875 66.21875 
Q 25.25 66.21875 20.875 63.09375 
Q 16.5 59.96875 16.5 54.203125 
Q 16.5 49.359375 19.40625 46.890625 
Q 22.3125 44.4375 30.421875 42.921875 
L 36.375 41.703125 
Q 47.40625 39.59375 52.65625 34.296875 
Q 57.90625 29 57.90625 20.125 
Q 57.90625 9.515625 50.796875 4.046875 
Q 43.703125 -1.421875 29.984375 -1.421875 
Q 24.8125 -1.421875 18.96875 -0.25 
Q 13.140625 0.921875 6.890625 3.21875 
L 6.890625 13.375 
Q 12.890625 10.015625 18.65625 8.296875 
Q 24.421875 6.59375 29.984375 6.59375 
Q 38.421875 6.59375 43.015625 9.90625 
Q 47.609375 13.234375 47.609375 19.390625 
Q 47.609375 24.75 44.3125 27.78125 
Q 41.015625 30.8125 33.5 32.328125 
L 27.484375 33.5 
Q 16.453125 35.6875 11.515625 40.375 
Q 6.59375 45.0625 6.59375 53.421875 
Q 6.59375 63.09375 13.40625 68.65625 
Q 20.21875 74.21875 32.171875 74.21875 
Q 37.3125 74.21875 42.625 73.28125 
Q 47.953125 72.359375 53.515625 70.515625 
z
" id="DejaVuSans-83"/>
      </defs>
      <use xlink:href="#DejaVuSans-83"/>
      <use x="63.476562" xlink:href="#DejaVuSans-73"/>
      <use x="92.96875" xlink:href="#DejaVuSans-80"/>
      <use x="146.896484" xlink:href="#DejaVuSans-65"/>
      <use x="215.304688" xlink:href="#DejaVuSans-49"/>
     </g>
    </g>
   </g>
   <g id="text_7">
    <g clip-path="url(#p72f88d53f0)">
     <!-- F11R -->
     <g transform="translate(555.076941 329.163935)scale(0.12 -0.12)">
      <defs>
       <path d="M 9.8125 72.90625 
L 51.703125 72.90625 
L 51.703125 64.59375 
L 19.671875 64.59375 
L 19.671875 43.109375 
L 48.578125 43.109375 
L 48.578125 34.8125 
L 19.671875 34.8125 
L 19.671875 0 
L 9.8125 0 
z
" id="DejaVuSans-70"/>
      </defs>
      <use xlink:href="#DejaVuSans-70"/>
      <use x="57.519531" xlink:href="#DejaVuSans-49"/>
      <use x="121.142578" xlink:href="#DejaVuSans-49"/>
      <use x="184.765625" xlink:href="#DejaVuSans-82"/>
     </g>
    </g>
   </g>
   <g id="text_8">
    <g clip-path="url(#p72f88d53f0)">
     <!-- ITGAL -->
     <g transform="translate(592.096069 302.308193)scale(0.12 -0.12)">
      <defs>
       <path d="M 9.8125 72.90625 
L 19.671875 72.90625 
L 19.671875 8.296875 
L 55.171875 8.296875 
L 55.171875 0 
L 9.8125 0 
z
" id="DejaVuSans-76"/>
      </defs>
      <use xlink:href="#DejaVuSans-73"/>
      <use x="29.492188" xlink:href="#DejaVuSans-84"/>
      <use x="90.576172" xlink:href="#DejaVuSans-71"/>
      <use x="168.066406" xlink:href="#DejaVuSans-65"/>
      <use x="236.474609" xlink:href="#DejaVuSans-76"/>
     </g>
    </g>
   </g>
   <g id="text_9">
    <g clip-path="url(#p72f88d53f0)">
     <!-- ITGB1 -->
     <g transform="translate(644.435692 166.87236)scale(0.12 -0.12)">
      <use xlink:href="#DejaVuSans-73"/>
      <use x="29.492188" xlink:href="#DejaVuSans-84"/>
      <use x="90.576172" xlink:href="#DejaVuSans-71"/>
      <use x="168.066406" xlink:href="#DejaVuSans-66"/>
      <use x="236.669922" xlink:href="#DejaVuSans-49"/>
     </g>
    </g>
   </g>
   <g id="text_10">
    <g clip-path="url(#p72f88d53f0)">
     <!-- ITGA4 -->
     <g transform="translate(571.00783 463.312486)scale(0.12 -0.12)">
      <defs>
       <path d="M 37.796875 64.3125 
L 12.890625 25.390625 
L 37.796875 25.390625 
z
M 35.203125 72.90625 
L 47.609375 72.90625 
L 47.609375 25.390625 
L 58.015625 25.390625 
L 58.015625 17.1875 
L 47.609375 17.1875 
L 47.609375 0 
L 37.796875 0 
L 37.796875 17.1875 
L 4.890625 17.1875 
L 4.890625 26.703125 
z
" id="DejaVuSans-52"/>
      </defs>
      <use xlink:href="#DejaVuSans-73"/>
      <use x="29.492188" xlink:href="#DejaVuSans-84"/>
      <use x="90.576172" xlink:href="#DejaVuSans-71"/>
      <use x="168.066406" xlink:href="#DejaVuSans-65"/>
      <use x="236.474609" xlink:href="#DejaVuSans-52"/>
     </g>
    </g>
   </g>
   <g id="text_11">
    <g clip-path="url(#p72f88d53f0)">
     <!-- JAM2 -->
     <g transform="translate(594.474926 296.246059)scale(0.12 -0.12)">
      <defs>
       <path d="M 9.8125 72.90625 
L 19.671875 72.90625 
L 19.671875 5.078125 
Q 19.671875 -8.109375 14.671875 -14.0625 
Q 9.671875 -20.015625 -1.421875 -20.015625 
L -5.171875 -20.015625 
L -5.171875 -11.71875 
L -2.09375 -11.71875 
Q 4.4375 -11.71875 7.125 -8.046875 
Q 9.8125 -4.390625 9.8125 5.078125 
z
" id="DejaVuSans-74"/>
      </defs>
      <use xlink:href="#DejaVuSans-74"/>
      <use x="27.742188" xlink:href="#DejaVuSans-65"/>
      <use x="96.150391" xlink:href="#DejaVuSans-77"/>
      <use x="182.429688" xlink:href="#DejaVuSans-50"/>
     </g>
    </g>
   </g>
   <g id="text_12">
    <g clip-path="url(#p72f88d53f0)">
     <!-- ITGAM -->
     <g transform="translate(518.845543 110.918523)scale(0.12 -0.12)">
      <use xlink:href="#DejaVuSans-73"/>
      <use x="29.492188" xlink:href="#DejaVuSans-84"/>
      <use x="90.576172" xlink:href="#DejaVuSans-71"/>
      <use x="168.066406" xlink:href="#DejaVuSans-65"/>
      <use x="236.474609" xlink:href="#DejaVuSans-77"/>
     </g>
    </g>
   </g>
   <g id="text_13">
    <g clip-path="url(#p72f88d53f0)">
     <!-- CTNNB1 -->
     <g transform="translate(660.254183 199.228154)scale(0.12 -0.12)">
      <use xlink:href="#DejaVuSans-67"/>
      <use x="69.824219" xlink:href="#DejaVuSans-84"/>
      <use x="130.908203" xlink:href="#DejaVuSans-78"/>
      <use x="205.712891" xlink:href="#DejaVuSans-78"/>
      <use x="280.517578" xlink:href="#DejaVuSans-66"/>
      <use x="349.121094" xlink:href="#DejaVuSans-49"/>
     </g>
    </g>
   </g>
   <g id="text_14">
    <g clip-path="url(#p72f88d53f0)">
     <!-- PTK2 -->
     <g transform="translate(593.49694 126.359717)scale(0.12 -0.12)">
      <defs>
       <path d="M 9.8125 72.90625 
L 19.671875 72.90625 
L 19.671875 42.09375 
L 52.390625 72.90625 
L 65.09375 72.90625 
L 28.90625 38.921875 
L 67.671875 0 
L 54.6875 0 
L 19.671875 35.109375 
L 19.671875 0 
L 9.8125 0 
z
" id="DejaVuSans-75"/>
      </defs>
      <use xlink:href="#DejaVuSans-80"/>
      <use x="60.302734" xlink:href="#DejaVuSans-84"/>
      <use x="121.386719" xlink:href="#DejaVuSans-75"/>
      <use x="186.962891" xlink:href="#DejaVuSans-50"/>
     </g>
    </g>
   </g>
   <g id="text_15">
    <g clip-path="url(#p72f88d53f0)">
     <!-- RHOA -->
     <g transform="translate(376.939336 288.09066)scale(0.12 -0.12)">
      <defs>
       <path d="M 39.40625 66.21875 
Q 28.65625 66.21875 22.328125 58.203125 
Q 16.015625 50.203125 16.015625 36.375 
Q 16.015625 22.609375 22.328125 14.59375 
Q 28.65625 6.59375 39.40625 6.59375 
Q 50.140625 6.59375 56.421875 14.59375 
Q 62.703125 22.609375 62.703125 36.375 
Q 62.703125 50.203125 56.421875 58.203125 
Q 50.140625 66.21875 39.40625 66.21875 
z
M 39.40625 74.21875 
Q 54.734375 74.21875 63.90625 63.9375 
Q 73.09375 53.65625 73.09375 36.375 
Q 73.09375 19.140625 63.90625 8.859375 
Q 54.734375 -1.421875 39.40625 -1.421875 
Q 24.03125 -1.421875 14.8125 8.828125 
Q 5.609375 19.09375 5.609375 36.375 
Q 5.609375 53.65625 14.8125 63.9375 
Q 24.03125 74.21875 39.40625 74.21875 
z
" id="DejaVuSans-79"/>
      </defs>
      <use xlink:href="#DejaVuSans-82"/>
      <use x="69.482422" xlink:href="#DejaVuSans-72"/>
      <use x="144.677734" xlink:href="#DejaVuSans-79"/>
      <use x="221.638672" xlink:href="#DejaVuSans-65"/>
     </g>
    </g>
   </g>
   <g id="text_16">
    <g clip-path="url(#p72f88d53f0)">
     <!-- JAM3 -->
     <g transform="translate(469.017941 146.876603)scale(0.12 -0.12)">
      <defs>
       <path d="M 40.578125 39.3125 
Q 47.65625 37.796875 51.625 33 
Q 55.609375 28.21875 55.609375 21.1875 
Q 55.609375 10.40625 48.1875 4.484375 
Q 40.765625 -1.421875 27.09375 -1.421875 
Q 22.515625 -1.421875 17.65625 -0.515625 
Q 12.796875 0.390625 7.625 2.203125 
L 7.625 11.71875 
Q 11.71875 9.328125 16.59375 8.109375 
Q 21.484375 6.890625 26.8125 6.890625 
Q 36.078125 6.890625 40.9375 10.546875 
Q 45.796875 14.203125 45.796875 21.1875 
Q 45.796875 27.640625 41.28125 31.265625 
Q 36.765625 34.90625 28.71875 34.90625 
L 20.21875 34.90625 
L 20.21875 43.015625 
L 29.109375 43.015625 
Q 36.375 43.015625 40.234375 45.921875 
Q 44.09375 48.828125 44.09375 54.296875 
Q 44.09375 59.90625 40.109375 62.90625 
Q 36.140625 65.921875 28.71875 65.921875 
Q 24.65625 65.921875 20.015625 65.03125 
Q 15.375 64.15625 9.8125 62.3125 
L 9.8125 71.09375 
Q 15.4375 72.65625 20.34375 73.4375 
Q 25.25 74.21875 29.59375 74.21875 
Q 40.828125 74.21875 47.359375 69.109375 
Q 53.90625 64.015625 53.90625 55.328125 
Q 53.90625 49.265625 50.4375 45.09375 
Q 46.96875 40.921875 40.578125 39.3125 
z
" id="DejaVuSans-51"/>
      </defs>
      <use xlink:href="#DejaVuSans-74"/>
      <use x="27.742188" xlink:href="#DejaVuSans-65"/>
      <use x="96.150391" xlink:href="#DejaVuSans-77"/>
      <use x="182.429688" xlink:href="#DejaVuSans-51"/>
     </g>
    </g>
   </g>
   <g id="text_17">
    <g clip-path="url(#p72f88d53f0)">
     <!-- CYBA -->
     <g transform="translate(437.686364 278.915229)scale(0.12 -0.12)">
      <defs>
       <path d="M -0.203125 72.90625 
L 10.40625 72.90625 
L 30.609375 42.921875 
L 50.6875 72.90625 
L 61.28125 72.90625 
L 35.5 34.71875 
L 35.5 0 
L 25.59375 0 
L 25.59375 34.71875 
z
" id="DejaVuSans-89"/>
      </defs>
      <use xlink:href="#DejaVuSans-67"/>
      <use x="68.074219" xlink:href="#DejaVuSans-89"/>
      <use x="129.158203" xlink:href="#DejaVuSans-66"/>
      <use x="197.761719" xlink:href="#DejaVuSans-65"/>
     </g>
    </g>
   </g>
   <g id="text_18">
    <g clip-path="url(#p72f88d53f0)">
     <!-- NCF2 -->
     <g transform="translate(419.179011 284.269754)scale(0.12 -0.12)">
      <use xlink:href="#DejaVuSans-78"/>
      <use x="74.804688" xlink:href="#DejaVuSans-67"/>
      <use x="144.628906" xlink:href="#DejaVuSans-70"/>
      <use x="202.148438" xlink:href="#DejaVuSans-50"/>
     </g>
    </g>
   </g>
   <g id="text_19">
    <g clip-path="url(#p72f88d53f0)">
     <!-- PXN -->
     <g transform="translate(343.646709 459.525514)scale(0.12 -0.12)">
      <defs>
       <path d="M 6.296875 72.90625 
L 16.890625 72.90625 
L 35.015625 45.796875 
L 53.21875 72.90625 
L 63.8125 72.90625 
L 40.375 37.890625 
L 65.375 0 
L 54.78125 0 
L 34.28125 31 
L 13.625 0 
L 2.984375 0 
L 29 38.921875 
z
" id="DejaVuSans-88"/>
      </defs>
      <use xlink:href="#DejaVuSans-80"/>
      <use x="60.302734" xlink:href="#DejaVuSans-88"/>
      <use x="128.808594" xlink:href="#DejaVuSans-78"/>
     </g>
    </g>
   </g>
   <g id="text_20">
    <g clip-path="url(#p72f88d53f0)">
     <!-- NCF1 -->
     <g transform="translate(435.581031 264.390106)scale(0.12 -0.12)">
      <use xlink:href="#DejaVuSans-78"/>
      <use x="74.804688" xlink:href="#DejaVuSans-67"/>
      <use x="144.628906" xlink:href="#DejaVuSans-70"/>
      <use x="202.148438" xlink:href="#DejaVuSans-49"/>
     </g>
    </g>
   </g>
   <g id="text_21">
    <g clip-path="url(#p72f88d53f0)">
     <!-- RAC1 -->
     <g transform="translate(388.030834 310.10016)scale(0.12 -0.12)">
      <use xlink:href="#DejaVuSans-82"/>
      <use x="65.482422" xlink:href="#DejaVuSans-65"/>
      <use x="132.140625" xlink:href="#DejaVuSans-67"/>
      <use x="201.964844" xlink:href="#DejaVuSans-49"/>
     </g>
    </g>
   </g>
   <g id="text_22">
    <g clip-path="url(#p72f88d53f0)">
     <!-- NCF4 -->
     <g transform="translate(458.989444 244.479296)scale(0.12 -0.12)">
      <use xlink:href="#DejaVuSans-78"/>
      <use x="74.804688" xlink:href="#DejaVuSans-67"/>
      <use x="144.628906" xlink:href="#DejaVuSans-70"/>
      <use x="202.148438" xlink:href="#DejaVuSans-52"/>
     </g>
    </g>
   </g>
   <g id="text_23">
    <g clip-path="url(#p72f88d53f0)">
     <!-- RASSF5 -->
     <g transform="translate(577.577 266.526214)scale(0.12 -0.12)">
      <use xlink:href="#DejaVuSans-82"/>
      <use x="65.482422" xlink:href="#DejaVuSans-65"/>
      <use x="133.890625" xlink:href="#DejaVuSans-83"/>
      <use x="197.367188" xlink:href="#DejaVuSans-83"/>
      <use x="260.84375" xlink:href="#DejaVuSans-70"/>
      <use x="318.363281" xlink:href="#DejaVuSans-53"/>
     </g>
    </g>
   </g>
   <g id="text_24">
    <g clip-path="url(#p72f88d53f0)">
     <!-- PTK2B -->
     <g transform="translate(692.075854 227.004086)scale(0.12 -0.12)">
      <use xlink:href="#DejaVuSans-80"/>
      <use x="60.302734" xlink:href="#DejaVuSans-84"/>
      <use x="121.386719" xlink:href="#DejaVuSans-75"/>
      <use x="186.962891" xlink:href="#DejaVuSans-50"/>
      <use x="250.585938" xlink:href="#DejaVuSans-66"/>
     </g>
    </g>
   </g>
   <g id="text_25">
    <g clip-path="url(#p72f88d53f0)">
     <!-- CXCL12 -->
     <g transform="translate(689.831716 322.675735)scale(0.12 -0.12)">
      <use xlink:href="#DejaVuSans-67"/>
      <use x="69.824219" xlink:href="#DejaVuSans-88"/>
      <use x="131.080078" xlink:href="#DejaVuSans-67"/>
      <use x="200.904297" xlink:href="#DejaVuSans-76"/>
      <use x="256.617188" xlink:href="#DejaVuSans-49"/>
      <use x="320.240234" xlink:href="#DejaVuSans-50"/>
     </g>
    </g>
   </g>
   <g id="text_26">
    <g clip-path="url(#p72f88d53f0)">
     <!-- CXCR4 -->
     <g transform="translate(699.453277 263.668906)scale(0.12 -0.12)">
      <use xlink:href="#DejaVuSans-67"/>
      <use x="69.824219" xlink:href="#DejaVuSans-88"/>
      <use x="131.080078" xlink:href="#DejaVuSans-67"/>
      <use x="200.904297" xlink:href="#DejaVuSans-82"/>
      <use x="270.386719" xlink:href="#DejaVuSans-52"/>
     </g>
    </g>
   </g>
   <g id="text_27">
    <g clip-path="url(#p72f88d53f0)">
     <!-- THY1 -->
     <g transform="translate(365.413188 210.211939)scale(0.12 -0.12)">
      <use xlink:href="#DejaVuSans-84"/>
      <use x="61.083984" xlink:href="#DejaVuSans-72"/>
      <use x="136.279297" xlink:href="#DejaVuSans-89"/>
      <use x="197.363281" xlink:href="#DejaVuSans-49"/>
     </g>
    </g>
   </g>
   <g id="text_28">
    <g clip-path="url(#p72f88d53f0)">
     <!-- VCAM1 -->
     <g transform="translate(477.639921 312.655873)scale(0.12 -0.12)">
      <defs>
       <path d="M 28.609375 0 
L 0.78125 72.90625 
L 11.078125 72.90625 
L 34.1875 11.53125 
L 57.328125 72.90625 
L 67.578125 72.90625 
L 39.796875 0 
z
" id="DejaVuSans-86"/>
      </defs>
      <use xlink:href="#DejaVuSans-86"/>
      <use x="68.408203" xlink:href="#DejaVuSans-67"/>
      <use x="138.232422" xlink:href="#DejaVuSans-65"/>
      <use x="206.640625" xlink:href="#DejaVuSans-77"/>
      <use x="292.919922" xlink:href="#DejaVuSans-49"/>
     </g>
    </g>
   </g>
   <g id="text_29">
    <g clip-path="url(#p72f88d53f0)">
     <!-- ICAM1 -->
     <g transform="translate(425.883314 303.827113)scale(0.12 -0.12)">
      <use xlink:href="#DejaVuSans-73"/>
      <use x="29.492188" xlink:href="#DejaVuSans-67"/>
      <use x="99.316406" xlink:href="#DejaVuSans-65"/>
      <use x="167.724609" xlink:href="#DejaVuSans-77"/>
      <use x="254.003906" xlink:href="#DejaVuSans-49"/>
     </g>
    </g>
   </g>
   <g id="text_30">
    <g clip-path="url(#p72f88d53f0)">
     <!-- OCLN -->
     <g transform="translate(595.915055 395.162044)scale(0.12 -0.12)">
      <use xlink:href="#DejaVuSans-79"/>
      <use x="78.710938" xlink:href="#DejaVuSans-67"/>
      <use x="148.535156" xlink:href="#DejaVuSans-76"/>
      <use x="204.248047" xlink:href="#DejaVuSans-78"/>
     </g>
    </g>
   </g>
   <g id="text_31">
    <g clip-path="url(#p72f88d53f0)">
     <!-- ESAM -->
     <g transform="translate(536.660548 445.585004)scale(0.12 -0.12)">
      <use xlink:href="#DejaVuSans-69"/>
      <use x="63.183594" xlink:href="#DejaVuSans-83"/>
      <use x="128.535156" xlink:href="#DejaVuSans-65"/>
      <use x="196.943359" xlink:href="#DejaVuSans-77"/>
     </g>
    </g>
   </g>
   <g id="text_32">
    <g clip-path="url(#p72f88d53f0)">
     <!-- MMP2 -->
     <g transform="translate(216.675905 159.863889)scale(0.12 -0.12)">
      <use xlink:href="#DejaVuSans-77"/>
      <use x="86.279297" xlink:href="#DejaVuSans-77"/>
      <use x="172.558594" xlink:href="#DejaVuSans-80"/>
      <use x="232.861328" xlink:href="#DejaVuSans-50"/>
     </g>
    </g>
   </g>
   <g id="text_33">
    <g clip-path="url(#p72f88d53f0)">
     <!-- MMP9 -->
     <g transform="translate(655.520581 390.485015)scale(0.12 -0.12)">
      <defs>
       <path d="M 10.984375 1.515625 
L 10.984375 10.5 
Q 14.703125 8.734375 18.5 7.8125 
Q 22.3125 6.890625 25.984375 6.890625 
Q 35.75 6.890625 40.890625 13.453125 
Q 46.046875 20.015625 46.78125 33.40625 
Q 43.953125 29.203125 39.59375 26.953125 
Q 35.25 24.703125 29.984375 24.703125 
Q 19.046875 24.703125 12.671875 31.3125 
Q 6.296875 37.9375 6.296875 49.421875 
Q 6.296875 60.640625 12.9375 67.421875 
Q 19.578125 74.21875 30.609375 74.21875 
Q 43.265625 74.21875 49.921875 64.515625 
Q 56.59375 54.828125 56.59375 36.375 
Q 56.59375 19.140625 48.40625 8.859375 
Q 40.234375 -1.421875 26.421875 -1.421875 
Q 22.703125 -1.421875 18.890625 -0.6875 
Q 15.09375 0.046875 10.984375 1.515625 
z
M 30.609375 32.421875 
Q 37.25 32.421875 41.125 36.953125 
Q 45.015625 41.5 45.015625 49.421875 
Q 45.015625 57.28125 41.125 61.84375 
Q 37.25 66.40625 30.609375 66.40625 
Q 23.96875 66.40625 20.09375 61.84375 
Q 16.21875 57.28125 16.21875 49.421875 
Q 16.21875 41.5 20.09375 36.953125 
Q 23.96875 32.421875 30.609375 32.421875 
z
" id="DejaVuSans-57"/>
      </defs>
      <use xlink:href="#DejaVuSans-77"/>
      <use x="86.279297" xlink:href="#DejaVuSans-77"/>
      <use x="172.558594" xlink:href="#DejaVuSans-80"/>
      <use x="232.861328" xlink:href="#DejaVuSans-57"/>
     </g>
    </g>
   </g>
   <g id="text_34">
    <g clip-path="url(#p72f88d53f0)">
     <!-- MYL2 -->
     <g transform="translate(612.626522 428.211557)scale(0.12 -0.12)">
      <use xlink:href="#DejaVuSans-77"/>
      <use x="86.279297" xlink:href="#DejaVuSans-89"/>
      <use x="147.363281" xlink:href="#DejaVuSans-76"/>
      <use x="203.076172" xlink:href="#DejaVuSans-50"/>
     </g>
    </g>
   </g>
   <g id="text_35">
    <g clip-path="url(#p72f88d53f0)">
     <!-- MYL5 -->
     <g transform="translate(195.976641 378.570188)scale(0.12 -0.12)">
      <use xlink:href="#DejaVuSans-77"/>
      <use x="86.279297" xlink:href="#DejaVuSans-89"/>
      <use x="147.363281" xlink:href="#DejaVuSans-76"/>
      <use x="203.076172" xlink:href="#DejaVuSans-53"/>
     </g>
    </g>
   </g>
   <g id="text_36">
    <g clip-path="url(#p72f88d53f0)">
     <!-- MYL7 -->
     <g transform="translate(602.699141 154.599122)scale(0.12 -0.12)">
      <defs>
       <path d="M 8.203125 72.90625 
L 55.078125 72.90625 
L 55.078125 68.703125 
L 28.609375 0 
L 18.3125 0 
L 43.21875 64.59375 
L 8.203125 64.59375 
z
" id="DejaVuSans-55"/>
      </defs>
      <use xlink:href="#DejaVuSans-77"/>
      <use x="86.279297" xlink:href="#DejaVuSans-89"/>
      <use x="147.363281" xlink:href="#DejaVuSans-76"/>
      <use x="203.076172" xlink:href="#DejaVuSans-55"/>
     </g>
    </g>
   </g>
   <g id="text_37">
    <g clip-path="url(#p72f88d53f0)">
     <!-- MYL9 -->
     <g transform="translate(502.40621 477.463977)scale(0.12 -0.12)">
      <use xlink:href="#DejaVuSans-77"/>
      <use x="86.279297" xlink:href="#DejaVuSans-89"/>
      <use x="147.363281" xlink:href="#DejaVuSans-76"/>
      <use x="203.076172" xlink:href="#DejaVuSans-57"/>
     </g>
    </g>
   </g>
   <g id="text_38">
    <g clip-path="url(#p72f88d53f0)">
     <!-- MYL10 -->
     <g transform="translate(460.158655 111.010018)scale(0.12 -0.12)">
      <defs>
       <path d="M 31.78125 66.40625 
Q 24.171875 66.40625 20.328125 58.90625 
Q 16.5 51.421875 16.5 36.375 
Q 16.5 21.390625 20.328125 13.890625 
Q 24.171875 6.390625 31.78125 6.390625 
Q 39.453125 6.390625 43.28125 13.890625 
Q 47.125 21.390625 47.125 36.375 
Q 47.125 51.421875 43.28125 58.90625 
Q 39.453125 66.40625 31.78125 66.40625 
z
M 31.78125 74.21875 
Q 44.046875 74.21875 50.515625 64.515625 
Q 56.984375 54.828125 56.984375 36.375 
Q 56.984375 17.96875 50.515625 8.265625 
Q 44.046875 -1.421875 31.78125 -1.421875 
Q 19.53125 -1.421875 13.0625 8.265625 
Q 6.59375 17.96875 6.59375 36.375 
Q 6.59375 54.828125 13.0625 64.515625 
Q 19.53125 74.21875 31.78125 74.21875 
z
" id="DejaVuSans-48"/>
      </defs>
      <use xlink:href="#DejaVuSans-77"/>
      <use x="86.279297" xlink:href="#DejaVuSans-89"/>
      <use x="147.363281" xlink:href="#DejaVuSans-76"/>
      <use x="203.076172" xlink:href="#DejaVuSans-49"/>
      <use x="266.699219" xlink:href="#DejaVuSans-48"/>
     </g>
    </g>
   </g>
   <g id="text_39">
    <g clip-path="url(#p72f88d53f0)">
     <!-- MYLPF -->
     <g transform="translate(249.905098 449.120858)scale(0.12 -0.12)">
      <use xlink:href="#DejaVuSans-77"/>
      <use x="86.279297" xlink:href="#DejaVuSans-89"/>
      <use x="147.363281" xlink:href="#DejaVuSans-76"/>
      <use x="203.076172" xlink:href="#DejaVuSans-80"/>
      <use x="263.378906" xlink:href="#DejaVuSans-70"/>
     </g>
    </g>
   </g>
   <g id="text_40">
    <g clip-path="url(#p72f88d53f0)">
     <!-- ROCK1 -->
     <g transform="translate(440.008851 328.306171)scale(0.12 -0.12)">
      <use xlink:href="#DejaVuSans-82"/>
      <use x="69.482422" xlink:href="#DejaVuSans-79"/>
      <use x="148.193359" xlink:href="#DejaVuSans-67"/>
      <use x="218.017578" xlink:href="#DejaVuSans-75"/>
      <use x="283.59375" xlink:href="#DejaVuSans-49"/>
     </g>
    </g>
   </g>
   <g id="text_41">
    <g clip-path="url(#p72f88d53f0)">
     <!-- ROCK2 -->
     <g transform="translate(428.465957 326.697828)scale(0.12 -0.12)">
      <use xlink:href="#DejaVuSans-82"/>
      <use x="69.482422" xlink:href="#DejaVuSans-79"/>
      <use x="148.193359" xlink:href="#DejaVuSans-67"/>
      <use x="218.017578" xlink:href="#DejaVuSans-75"/>
      <use x="283.59375" xlink:href="#DejaVuSans-50"/>
     </g>
    </g>
   </g>
   <g id="text_42">
    <g clip-path="url(#p72f88d53f0)">
     <!-- PRKCA -->
     <g transform="translate(366.498658 269.764899)scale(0.12 -0.12)">
      <use xlink:href="#DejaVuSans-80"/>
      <use x="60.302734" xlink:href="#DejaVuSans-82"/>
      <use x="129.785156" xlink:href="#DejaVuSans-75"/>
      <use x="189.861328" xlink:href="#DejaVuSans-67"/>
      <use x="259.685547" xlink:href="#DejaVuSans-65"/>
     </g>
    </g>
   </g>
   <g id="text_43">
    <g clip-path="url(#p72f88d53f0)">
     <!-- PRKCB -->
     <g transform="translate(350.075874 264.846373)scale(0.12 -0.12)">
      <use xlink:href="#DejaVuSans-80"/>
      <use x="60.302734" xlink:href="#DejaVuSans-82"/>
      <use x="129.785156" xlink:href="#DejaVuSans-75"/>
      <use x="189.861328" xlink:href="#DejaVuSans-67"/>
      <use x="259.685547" xlink:href="#DejaVuSans-66"/>
     </g>
    </g>
   </g>
   <g id="text_44">
    <g clip-path="url(#p72f88d53f0)">
     <!-- PRKCG -->
     <g transform="translate(352.352707 279.176562)scale(0.12 -0.12)">
      <use xlink:href="#DejaVuSans-80"/>
      <use x="60.302734" xlink:href="#DejaVuSans-82"/>
      <use x="129.785156" xlink:href="#DejaVuSans-75"/>
      <use x="189.861328" xlink:href="#DejaVuSans-67"/>
      <use x="259.685547" xlink:href="#DejaVuSans-71"/>
     </g>
    </g>
   </g>
   <g id="text_45">
    <g clip-path="url(#p72f88d53f0)">
     <!-- ARHGAP35 -->
     <g transform="translate(242.326625 345.155153)scale(0.12 -0.12)">
      <use xlink:href="#DejaVuSans-65"/>
      <use x="68.408203" xlink:href="#DejaVuSans-82"/>
      <use x="137.890625" xlink:href="#DejaVuSans-72"/>
      <use x="213.085938" xlink:href="#DejaVuSans-71"/>
      <use x="290.576172" xlink:href="#DejaVuSans-65"/>
      <use x="358.984375" xlink:href="#DejaVuSans-80"/>
      <use x="419.287109" xlink:href="#DejaVuSans-51"/>
      <use x="482.910156" xlink:href="#DejaVuSans-53"/>
     </g>
    </g>
   </g>
   <g id="text_46">
    <g clip-path="url(#p72f88d53f0)">
     <!-- ARHGAP5 -->
     <g transform="translate(266.742908 208.524696)scale(0.12 -0.12)">
      <use xlink:href="#DejaVuSans-65"/>
      <use x="68.408203" xlink:href="#DejaVuSans-82"/>
      <use x="137.890625" xlink:href="#DejaVuSans-72"/>
      <use x="213.085938" xlink:href="#DejaVuSans-71"/>
      <use x="290.576172" xlink:href="#DejaVuSans-65"/>
      <use x="358.984375" xlink:href="#DejaVuSans-80"/>
      <use x="419.287109" xlink:href="#DejaVuSans-53"/>
     </g>
    </g>
   </g>
   <g id="text_47">
    <g clip-path="url(#p72f88d53f0)">
     <!-- RAP1A -->
     <g transform="translate(470.447785 275.794569)scale(0.12 -0.12)">
      <use xlink:href="#DejaVuSans-82"/>
      <use x="65.482422" xlink:href="#DejaVuSans-65"/>
      <use x="133.890625" xlink:href="#DejaVuSans-80"/>
      <use x="194.193359" xlink:href="#DejaVuSans-49"/>
      <use x="257.816406" xlink:href="#DejaVuSans-65"/>
     </g>
    </g>
   </g>
   <g id="text_48">
    <g clip-path="url(#p72f88d53f0)">
     <!-- RAP1B -->
     <g transform="translate(469.661697 284.212214)scale(0.12 -0.12)">
      <use xlink:href="#DejaVuSans-82"/>
      <use x="65.482422" xlink:href="#DejaVuSans-65"/>
      <use x="133.890625" xlink:href="#DejaVuSans-80"/>
      <use x="194.193359" xlink:href="#DejaVuSans-49"/>
      <use x="257.816406" xlink:href="#DejaVuSans-66"/>
     </g>
    </g>
   </g>
   <g id="text_49">
    <g clip-path="url(#p72f88d53f0)">
     <!-- MSN -->
     <g transform="translate(381.212037 400.248486)scale(0.12 -0.12)">
      <use xlink:href="#DejaVuSans-77"/>
      <use x="86.279297" xlink:href="#DejaVuSans-83"/>
      <use x="149.755859" xlink:href="#DejaVuSans-78"/>
     </g>
    </g>
   </g>
   <g id="text_50">
    <g clip-path="url(#p72f88d53f0)">
     <!-- EZR -->
     <g transform="translate(273.063786 276.632992)scale(0.12 -0.12)">
      <defs>
       <path d="M 5.609375 72.90625 
L 62.890625 72.90625 
L 62.890625 65.375 
L 16.796875 8.296875 
L 64.015625 8.296875 
L 64.015625 0 
L 4.5 0 
L 4.5 7.515625 
L 50.59375 64.59375 
L 5.609375 64.59375 
z
" id="DejaVuSans-90"/>
      </defs>
      <use xlink:href="#DejaVuSans-69"/>
      <use x="63.183594" xlink:href="#DejaVuSans-90"/>
      <use x="131.689453" xlink:href="#DejaVuSans-82"/>
     </g>
    </g>
   </g>
   <g id="text_51">
    <g clip-path="url(#p72f88d53f0)">
     <!-- RAPGEF4 -->
     <g transform="translate(543.453905 268.018242)scale(0.12 -0.12)">
      <use xlink:href="#DejaVuSans-82"/>
      <use x="65.482422" xlink:href="#DejaVuSans-65"/>
      <use x="133.890625" xlink:href="#DejaVuSans-80"/>
      <use x="194.193359" xlink:href="#DejaVuSans-71"/>
      <use x="271.683594" xlink:href="#DejaVuSans-69"/>
      <use x="334.867188" xlink:href="#DejaVuSans-70"/>
      <use x="392.386719" xlink:href="#DejaVuSans-52"/>
     </g>
    </g>
   </g>
   <g id="text_52">
    <g clip-path="url(#p72f88d53f0)">
     <!-- RAPGEF3 -->
     <g transform="translate(530.066127 231.381091)scale(0.12 -0.12)">
      <use xlink:href="#DejaVuSans-82"/>
      <use x="65.482422" xlink:href="#DejaVuSans-65"/>
      <use x="133.890625" xlink:href="#DejaVuSans-80"/>
      <use x="194.193359" xlink:href="#DejaVuSans-71"/>
      <use x="271.683594" xlink:href="#DejaVuSans-69"/>
      <use x="334.867188" xlink:href="#DejaVuSans-70"/>
      <use x="392.386719" xlink:href="#DejaVuSans-51"/>
     </g>
    </g>
   </g>
   <g id="text_53">
    <g clip-path="url(#p72f88d53f0)">
     <!-- PLCG1 -->
     <g transform="translate(424.324872 244.498965)scale(0.12 -0.12)">
      <use xlink:href="#DejaVuSans-80"/>
      <use x="60.302734" xlink:href="#DejaVuSans-76"/>
      <use x="116.015625" xlink:href="#DejaVuSans-67"/>
      <use x="185.839844" xlink:href="#DejaVuSans-71"/>
      <use x="263.330078" xlink:href="#DejaVuSans-49"/>
     </g>
    </g>
   </g>
   <g id="text_54">
    <g clip-path="url(#p72f88d53f0)">
     <!-- PLCG2 -->
     <g transform="translate(278.325027 291.536905)scale(0.12 -0.12)">
      <use xlink:href="#DejaVuSans-80"/>
      <use x="60.302734" xlink:href="#DejaVuSans-76"/>
      <use x="116.015625" xlink:href="#DejaVuSans-67"/>
      <use x="185.839844" xlink:href="#DejaVuSans-71"/>
      <use x="263.330078" xlink:href="#DejaVuSans-50"/>
     </g>
    </g>
   </g>
   <g id="text_55">
    <!-- Network: hsa04670 -->
    <g transform="translate(384.1275 63.12)scale(0.12 -0.12)">
     <defs>
      <path d="M 56.203125 29.59375 
L 56.203125 25.203125 
L 14.890625 25.203125 
Q 15.484375 15.921875 20.484375 11.0625 
Q 25.484375 6.203125 34.421875 6.203125 
Q 39.59375 6.203125 44.453125 7.46875 
Q 49.3125 8.734375 54.109375 11.28125 
L 54.109375 2.78125 
Q 49.265625 0.734375 44.1875 -0.34375 
Q 39.109375 -1.421875 33.890625 -1.421875 
Q 20.796875 -1.421875 13.15625 6.1875 
Q 5.515625 13.8125 5.515625 26.8125 
Q 5.515625 40.234375 12.765625 48.109375 
Q 20.015625 56 32.328125 56 
Q 43.359375 56 49.78125 48.890625 
Q 56.203125 41.796875 56.203125 29.59375 
z
M 47.21875 32.234375 
Q 47.125 39.59375 43.09375 43.984375 
Q 39.0625 48.390625 32.421875 48.390625 
Q 24.90625 48.390625 20.390625 44.140625 
Q 15.875 39.890625 15.1875 32.171875 
z
" id="DejaVuSans-101"/>
      <path d="M 18.3125 70.21875 
L 18.3125 54.6875 
L 36.8125 54.6875 
L 36.8125 47.703125 
L 18.3125 47.703125 
L 18.3125 18.015625 
Q 18.3125 11.328125 20.140625 9.421875 
Q 21.96875 7.515625 27.59375 7.515625 
L 36.8125 7.515625 
L 36.8125 0 
L 27.59375 0 
Q 17.1875 0 13.234375 3.875 
Q 9.28125 7.765625 9.28125 18.015625 
L 9.28125 47.703125 
L 2.6875 47.703125 
L 2.6875 54.6875 
L 9.28125 54.6875 
L 9.28125 70.21875 
z
" id="DejaVuSans-116"/>
      <path d="M 4.203125 54.6875 
L 13.1875 54.6875 
L 24.421875 12.015625 
L 35.59375 54.6875 
L 46.1875 54.6875 
L 57.421875 12.015625 
L 68.609375 54.6875 
L 77.59375 54.6875 
L 63.28125 0 
L 52.6875 0 
L 40.921875 44.828125 
L 29.109375 0 
L 18.5 0 
z
" id="DejaVuSans-119"/>
      <path d="M 30.609375 48.390625 
Q 23.390625 48.390625 19.1875 42.75 
Q 14.984375 37.109375 14.984375 27.296875 
Q 14.984375 17.484375 19.15625 11.84375 
Q 23.34375 6.203125 30.609375 6.203125 
Q 37.796875 6.203125 41.984375 11.859375 
Q 46.1875 17.53125 46.1875 27.296875 
Q 46.1875 37.015625 41.984375 42.703125 
Q 37.796875 48.390625 30.609375 48.390625 
z
M 30.609375 56 
Q 42.328125 56 49.015625 48.375 
Q 55.71875 40.765625 55.71875 27.296875 
Q 55.71875 13.875 49.015625 6.21875 
Q 42.328125 -1.421875 30.609375 -1.421875 
Q 18.84375 -1.421875 12.171875 6.21875 
Q 5.515625 13.875 5.515625 27.296875 
Q 5.515625 40.765625 12.171875 48.375 
Q 18.84375 56 30.609375 56 
z
" id="DejaVuSans-111"/>
      <path d="M 41.109375 46.296875 
Q 39.59375 47.171875 37.8125 47.578125 
Q 36.03125 48 33.890625 48 
Q 26.265625 48 22.1875 43.046875 
Q 18.109375 38.09375 18.109375 28.8125 
L 18.109375 0 
L 9.078125 0 
L 9.078125 54.6875 
L 18.109375 54.6875 
L 18.109375 46.1875 
Q 20.953125 51.171875 25.484375 53.578125 
Q 30.03125 56 36.53125 56 
Q 37.453125 56 38.578125 55.875 
Q 39.703125 55.765625 41.0625 55.515625 
z
" id="DejaVuSans-114"/>
      <path d="M 9.078125 75.984375 
L 18.109375 75.984375 
L 18.109375 31.109375 
L 44.921875 54.6875 
L 56.390625 54.6875 
L 27.390625 29.109375 
L 57.625 0 
L 45.90625 0 
L 18.109375 26.703125 
L 18.109375 0 
L 9.078125 0 
z
" id="DejaVuSans-107"/>
      <path d="M 11.71875 12.40625 
L 22.015625 12.40625 
L 22.015625 0 
L 11.71875 0 
z
M 11.71875 51.703125 
L 22.015625 51.703125 
L 22.015625 39.3125 
L 11.71875 39.3125 
z
" id="DejaVuSans-58"/>
      <path id="DejaVuSans-32"/>
      <path d="M 54.890625 33.015625 
L 54.890625 0 
L 45.90625 0 
L 45.90625 32.71875 
Q 45.90625 40.484375 42.875 44.328125 
Q 39.84375 48.1875 33.796875 48.1875 
Q 26.515625 48.1875 22.3125 43.546875 
Q 18.109375 38.921875 18.109375 30.90625 
L 18.109375 0 
L 9.078125 0 
L 9.078125 75.984375 
L 18.109375 75.984375 
L 18.109375 46.1875 
Q 21.34375 51.125 25.703125 53.5625 
Q 30.078125 56 35.796875 56 
Q 45.21875 56 50.046875 50.171875 
Q 54.890625 44.34375 54.890625 33.015625 
z
" id="DejaVuSans-104"/>
      <path d="M 44.28125 53.078125 
L 44.28125 44.578125 
Q 40.484375 46.53125 36.375 47.5 
Q 32.28125 48.484375 27.875 48.484375 
Q 21.1875 48.484375 17.84375 46.4375 
Q 14.5 44.390625 14.5 40.28125 
Q 14.5 37.15625 16.890625 35.375 
Q 19.28125 33.59375 26.515625 31.984375 
L 29.59375 31.296875 
Q 39.15625 29.25 43.1875 25.515625 
Q 47.21875 21.78125 47.21875 15.09375 
Q 47.21875 7.46875 41.1875 3.015625 
Q 35.15625 -1.421875 24.609375 -1.421875 
Q 20.21875 -1.421875 15.453125 -0.5625 
Q 10.6875 0.296875 5.421875 2 
L 5.421875 11.28125 
Q 10.40625 8.6875 15.234375 7.390625 
Q 20.0625 6.109375 24.8125 6.109375 
Q 31.15625 6.109375 34.5625 8.28125 
Q 37.984375 10.453125 37.984375 14.40625 
Q 37.984375 18.0625 35.515625 20.015625 
Q 33.0625 21.96875 24.703125 23.78125 
L 21.578125 24.515625 
Q 13.234375 26.265625 9.515625 29.90625 
Q 5.8125 33.546875 5.8125 39.890625 
Q 5.8125 47.609375 11.28125 51.796875 
Q 16.75 56 26.8125 56 
Q 31.78125 56 36.171875 55.265625 
Q 40.578125 54.546875 44.28125 53.078125 
z
" id="DejaVuSans-115"/>
      <path d="M 34.28125 27.484375 
Q 23.390625 27.484375 19.1875 25 
Q 14.984375 22.515625 14.984375 16.5 
Q 14.984375 11.71875 18.140625 8.90625 
Q 21.296875 6.109375 26.703125 6.109375 
Q 34.1875 6.109375 38.703125 11.40625 
Q 43.21875 16.703125 43.21875 25.484375 
L 43.21875 27.484375 
z
M 52.203125 31.203125 
L 52.203125 0 
L 43.21875 0 
L 43.21875 8.296875 
Q 40.140625 3.328125 35.546875 0.953125 
Q 30.953125 -1.421875 24.3125 -1.421875 
Q 15.921875 -1.421875 10.953125 3.296875 
Q 6 8.015625 6 15.921875 
Q 6 25.140625 12.171875 29.828125 
Q 18.359375 34.515625 30.609375 34.515625 
L 43.21875 34.515625 
L 43.21875 35.40625 
Q 43.21875 41.609375 39.140625 45 
Q 35.0625 48.390625 27.6875 48.390625 
Q 23 48.390625 18.546875 47.265625 
Q 14.109375 46.140625 10.015625 43.890625 
L 10.015625 52.203125 
Q 14.9375 54.109375 19.578125 55.046875 
Q 24.21875 56 28.609375 56 
Q 40.484375 56 46.34375 49.84375 
Q 52.203125 43.703125 52.203125 31.203125 
z
" id="DejaVuSans-97"/>
      <path d="M 33.015625 40.375 
Q 26.375 40.375 22.484375 35.828125 
Q 18.609375 31.296875 18.609375 23.390625 
Q 18.609375 15.53125 22.484375 10.953125 
Q 26.375 6.390625 33.015625 6.390625 
Q 39.65625 6.390625 43.53125 10.953125 
Q 47.40625 15.53125 47.40625 23.390625 
Q 47.40625 31.296875 43.53125 35.828125 
Q 39.65625 40.375 33.015625 40.375 
z
M 52.59375 71.296875 
L 52.59375 62.3125 
Q 48.875 64.0625 45.09375 64.984375 
Q 41.3125 65.921875 37.59375 65.921875 
Q 27.828125 65.921875 22.671875 59.328125 
Q 17.53125 52.734375 16.796875 39.40625 
Q 19.671875 43.65625 24.015625 45.921875 
Q 28.375 48.1875 33.59375 48.1875 
Q 44.578125 48.1875 50.953125 41.515625 
Q 57.328125 34.859375 57.328125 23.390625 
Q 57.328125 12.15625 50.6875 5.359375 
Q 44.046875 -1.421875 33.015625 -1.421875 
Q 20.359375 -1.421875 13.671875 8.265625 
Q 6.984375 17.96875 6.984375 36.375 
Q 6.984375 53.65625 15.1875 63.9375 
Q 23.390625 74.21875 37.203125 74.21875 
Q 40.921875 74.21875 44.703125 73.484375 
Q 48.484375 72.75 52.59375 71.296875 
z
" id="DejaVuSans-54"/>
     </defs>
     <use xlink:href="#DejaVuSans-78"/>
     <use x="74.804688" xlink:href="#DejaVuSans-101"/>
     <use x="136.328125" xlink:href="#DejaVuSans-116"/>
     <use x="175.537109" xlink:href="#DejaVuSans-119"/>
     <use x="257.324219" xlink:href="#DejaVuSans-111"/>
     <use x="318.505859" xlink:href="#DejaVuSans-114"/>
     <use x="359.619141" xlink:href="#DejaVuSans-107"/>
     <use x="417.529297" xlink:href="#DejaVuSans-58"/>
     <use x="451.220703" xlink:href="#DejaVuSans-32"/>
     <use x="483.007812" xlink:href="#DejaVuSans-104"/>
     <use x="546.386719" xlink:href="#DejaVuSans-115"/>
     <use x="598.486328" xlink:href="#DejaVuSans-97"/>
     <use x="659.765625" xlink:href="#DejaVuSans-48"/>
     <use x="723.388672" xlink:href="#DejaVuSans-52"/>
     <use x="787.011719" xlink:href="#DejaVuSans-54"/>
     <use x="850.634766" xlink:href="#DejaVuSans-55"/>
     <use x="914.257812" xlink:href="#DejaVuSans-48"/>
    </g>
   </g>
  </g>
 </g>
 <defs>
  <clipPath id="p72f88d53f0">
   <rect height="443.52" width="669.6" x="108" y="69.12"/>
  </clipPath>
 </defs>
</svg>
