<?xml version="1.0" encoding="utf-8" standalone="no"?>
<!DOCTYPE svg PUBLIC "-//W3C//DTD SVG 1.1//EN"
  "http://www.w3.org/Graphics/SVG/1.1/DTD/svg11.dtd">
<!-- Created with matplotlib (https://matplotlib.org/) -->
<svg height="576pt" version="1.1" viewBox="0 0 864 576" width="864pt" xmlns="http://www.w3.org/2000/svg" xmlns:xlink="http://www.w3.org/1999/xlink">
 <metadata>
  <rdf:RDF xmlns:cc="http://creativecommons.org/ns#" xmlns:dc="http://purl.org/dc/elements/1.1/" xmlns:rdf="http://www.w3.org/1999/02/22-rdf-syntax-ns#">
   <cc:Work>
    <dc:type rdf:resource="http://purl.org/dc/dcmitype/StillImage"/>
    <dc:date>2024-04-26T13:38:00.338530</dc:date>
    <dc:format>image/svg+xml</dc:format>
    <dc:creator>
     <cc:Agent>
      <dc:title>Matplotlib v3.3.1, https://matplotlib.org/</dc:title>
     </cc:Agent>
    </dc:creator>
   </cc:Work>
  </rdf:RDF>
 </metadata>
 <defs>
  <style type="text/css">*{stroke-linecap:butt;stroke-linejoin:round;}</style>
 </defs>
 <g id="figure_1">
  <g id="patch_1">
   <path d="M 0 576 
L 864 576 
L 864 0 
L 0 0 
z
" style="fill:#ffffff;"/>
  </g>
  <g id="axes_1">
   <g id="patch_2">
    <path clip-path="url(#p04f599a361)" d="M 679.269388 406.566604 
Q 686.87765 392.724445 693.947379 379.862072 
" style="fill:none;stroke:#000000;stroke-linecap:round;"/>
    <path clip-path="url(#p04f599a361)" d="M 690.267967 382.404103 
L 693.947379 379.862072 
L 693.773357 384.33082 
L 690.267967 382.404103 
z
" style="stroke:#000000;stroke-linecap:round;"/>
   </g>
   <g id="patch_3">
    <path clip-path="url(#p04f599a361)" d="M 445.063938 358.69768 
Q 446.717767 342.766558 448.256152 327.947495 
" style="fill:none;stroke:#000000;stroke-linecap:round;"/>
    <path clip-path="url(#p04f599a361)" d="M 445.853817 331.719601 
L 448.256152 327.947495 
L 449.832436 332.132627 
L 445.853817 331.719601 
z
" style="stroke:#000000;stroke-linecap:round;"/>
   </g>
   <g id="patch_4">
    <path clip-path="url(#p04f599a361)" d="M 445.419091 358.740996 
Q 448.376412 338.454182 451.172456 319.273709 
" style="fill:none;stroke:#000000;stroke-linecap:round;"/>
    <path clip-path="url(#p04f599a361)" d="M 448.61637 322.943372 
L 451.172456 319.273709 
L 452.574534 323.520376 
L 448.61637 322.943372 
z
" style="stroke:#000000;stroke-linecap:round;"/>
   </g>
   <g id="patch_5">
    <path clip-path="url(#p04f599a361)" d="M 443.092901 358.716767 
Q 440.733086 339.882382 438.512266 322.157357 
" style="fill:none;stroke:#000000;stroke-linecap:round;"/>
    <path clip-path="url(#p04f599a361)" d="M 437.025066 326.374967 
L 438.512266 322.157357 
L 440.994034 325.877683 
L 437.025066 326.374967 
z
" style="stroke:#000000;stroke-linecap:round;"/>
   </g>
   <g id="patch_6">
    <path clip-path="url(#p04f599a361)" d="M 503.154576 345.788344 
Q 480.066571 333.97873 457.973945 322.678257 
" style="fill:none;stroke:#000000;stroke-linecap:round;"/>
    <path clip-path="url(#p04f599a361)" d="M 460.624338 326.280397 
L 457.973945 322.678257 
L 462.445893 322.719226 
L 460.624338 326.280397 
z
" style="stroke:#000000;stroke-linecap:round;"/>
   </g>
   <g id="patch_7">
    <path clip-path="url(#p04f599a361)" d="M 503.733491 344.821202 
Q 481.725084 329.665777 460.637501 315.14445 
" style="fill:none;stroke:#000000;stroke-linecap:round;"/>
    <path clip-path="url(#p04f599a361)" d="M 462.797636 319.060292 
L 460.637501 315.14445 
L 465.066255 315.765848 
L 462.797636 319.060292 
z
" style="stroke:#000000;stroke-linecap:round;"/>
   </g>
   <g id="patch_8">
    <path clip-path="url(#p04f599a361)" d="M 503.140327 345.81825 
Q 474.08259 331.094991 446.02217 316.877062 
" style="fill:none;stroke:#000000;stroke-linecap:round;"/>
    <path clip-path="url(#p04f599a361)" d="M 448.686317 320.469042 
L 446.02217 316.877062 
L 450.494242 316.900932 
L 448.686317 320.469042 
z
" style="stroke:#000000;stroke-linecap:round;"/>
   </g>
   <g id="patch_9">
    <path clip-path="url(#p04f599a361)" d="M 471.708424 341.586285 
Q 435.850453 343.486856 401.108949 345.328251 
" style="fill:none;stroke:#000000;stroke-linecap:round;"/>
    <path clip-path="url(#p04f599a361)" d="M 405.209199 347.113734 
L 401.108949 345.328251 
L 404.997485 343.11934 
L 405.209199 347.113734 
z
" style="stroke:#000000;stroke-linecap:round;"/>
   </g>
   <g id="patch_10">
    <path clip-path="url(#p04f599a361)" d="M 473.383092 335.99192 
Q 464.811539 329.677024 457.140115 324.025277 
" style="fill:none;stroke:#000000;stroke-linecap:round;"/>
    <path clip-path="url(#p04f599a361)" d="M 459.174237 328.008034 
L 457.140115 324.025277 
L 461.546794 324.787634 
L 459.174237 328.008034 
z
" style="stroke:#000000;stroke-linecap:round;"/>
   </g>
   <g id="patch_11">
    <path clip-path="url(#p04f599a361)" d="M 474.630419 334.629167 
Q 466.468926 325.363147 459.046414 316.936117 
" style="fill:none;stroke:#000000;stroke-linecap:round;"/>
    <path clip-path="url(#p04f599a361)" d="M 460.189443 321.259714 
L 459.046414 316.936117 
L 463.191108 318.615852 
L 460.189443 321.259714 
z
" style="stroke:#000000;stroke-linecap:round;"/>
   </g>
   <g id="patch_12">
    <path clip-path="url(#p04f599a361)" d="M 473.145873 336.327759 
Q 458.826136 326.792307 445.436991 317.876532 
" style="fill:none;stroke:#000000;stroke-linecap:round;"/>
    <path clip-path="url(#p04f599a361)" d="M 447.657864 321.758248 
L 445.436991 317.876532 
L 449.874888 318.428863 
L 447.657864 321.758248 
z
" style="stroke:#000000;stroke-linecap:round;"/>
   </g>
   <g id="patch_13">
    <path clip-path="url(#p04f599a361)" d="M 282.139895 339.863914 
Q 332.41829 342.61798 381.580324 345.310896 
" style="fill:none;stroke:#000000;stroke-linecap:round;"/>
    <path clip-path="url(#p04f599a361)" d="M 377.6957 343.095113 
L 381.580324 345.310896 
L 377.476922 347.089125 
L 377.6957 343.095113 
z
" style="stroke:#000000;stroke-linecap:round;"/>
   </g>
   <g id="patch_14">
    <path clip-path="url(#p04f599a361)" d="M 512.381863 309.425086 
Q 485.113268 313.226496 458.951998 316.873539 
" style="fill:none;stroke:#000000;stroke-linecap:round;"/>
    <path clip-path="url(#p04f599a361)" d="M 463.189829 318.3021 
L 458.951998 316.873539 
L 462.637545 314.34041 
L 463.189829 318.3021 
z
" style="stroke:#000000;stroke-linecap:round;"/>
   </g>
   <g id="patch_15">
    <path clip-path="url(#p04f599a361)" d="M 512.303128 308.402172 
Q 486.771512 308.913381 462.357706 309.40221 
" style="fill:none;stroke:#000000;stroke-linecap:round;"/>
    <path clip-path="url(#p04f599a361)" d="M 466.396941 311.321735 
L 462.357706 309.40221 
L 466.316867 307.322536 
L 466.396941 311.321735 
z
" style="stroke:#000000;stroke-linecap:round;"/>
   </g>
   <g id="patch_16">
    <path clip-path="url(#p04f599a361)" d="M 512.315333 308.665708 
Q 479.130692 310.342344 447.06266 311.962564 
" style="fill:none;stroke:#000000;stroke-linecap:round;"/>
    <path clip-path="url(#p04f599a361)" d="M 451.158485 313.758176 
L 447.06266 311.962564 
L 450.956644 309.763272 
L 451.158485 313.758176 
z
" style="stroke:#000000;stroke-linecap:round;"/>
   </g>
   <g id="patch_17">
    <path clip-path="url(#p04f599a361)" d="M 632.134464 313.879381 
Q 580.872878 311.273854 530.727883 308.725082 
" style="fill:none;stroke:#000000;stroke-linecap:round;"/>
    <path clip-path="url(#p04f599a361)" d="M 534.621201 310.925554 
L 530.727883 308.725082 
L 534.824251 306.930711 
L 534.621201 310.925554 
z
" style="stroke:#000000;stroke-linecap:round;"/>
   </g>
   <g id="patch_18">
    <path clip-path="url(#p04f599a361)" d="M 512.957969 118.611466 
Q 484.129743 113.819631 456.404419 109.211122 
" style="fill:none;stroke:#000000;stroke-linecap:round;"/>
    <path clip-path="url(#p04f599a361)" d="M 460.022339 111.839934 
L 456.404419 109.211122 
L 460.678221 107.894073 
L 460.022339 111.839934 
z
" style="stroke:#000000;stroke-linecap:round;"/>
   </g>
   <g id="patch_19">
    <path clip-path="url(#p04f599a361)" d="M 451.367902 160.109076 
Q 482.67486 142.219369 513.011093 124.884362 
" style="fill:none;stroke:#000000;stroke-linecap:round;"/>
    <path clip-path="url(#p04f599a361)" d="M 508.545842 125.132433 
L 513.011093 124.884362 
L 510.530399 128.605405 
L 508.545842 125.132433 
z
" style="stroke:#000000;stroke-linecap:round;"/>
   </g>
   <g id="patch_20">
    <path clip-path="url(#p04f599a361)" d="M 318.049946 143.337284 
Q 376.678229 153.156305 434.203835 162.790651 
" style="fill:none;stroke:#000000;stroke-linecap:round;"/>
    <path clip-path="url(#p04f599a361)" d="M 430.589138 160.157408 
L 434.203835 162.790651 
L 429.928423 164.102463 
L 430.589138 160.157408 
z
" style="stroke:#000000;stroke-linecap:round;"/>
   </g>
   <g id="patch_21">
    <path clip-path="url(#p04f599a361)" d="M 367.012386 268.661317 
Q 377.876952 303.124382 388.405364 336.521144 
" style="fill:none;stroke:#000000;stroke-linecap:round;"/>
    <path clip-path="url(#p04f599a361)" d="M 389.110161 332.104895 
L 388.405364 336.521144 
L 385.295242 333.307557 
L 389.110161 332.104895 
z
" style="stroke:#000000;stroke-linecap:round;"/>
   </g>
   <g id="patch_22">
    <path clip-path="url(#p04f599a361)" d="M 369.929176 253.732659 
Q 404.128788 212.404594 437.615613 171.937887 
" style="fill:none;stroke:#000000;stroke-linecap:round;"/>
    <path clip-path="url(#p04f599a361)" d="M 433.524629 173.7445 
L 437.615613 171.937887 
L 436.606314 176.294642 
L 433.524629 173.7445 
z
" style="stroke:#000000;stroke-linecap:round;"/>
   </g>
   <g id="patch_23">
    <path clip-path="url(#p04f599a361)" d="M 308.748663 232.761488 
Q 309.093199 191.663785 309.428362 151.684077 
" style="fill:none;stroke:#000000;stroke-linecap:round;"/>
    <path clip-path="url(#p04f599a361)" d="M 307.394901 155.66717 
L 309.428362 151.684077 
L 311.39476 155.700702 
L 307.394901 155.66717 
z
" style="stroke:#000000;stroke-linecap:round;"/>
   </g>
   <g id="patch_24">
    <path clip-path="url(#p04f599a361)" d="M 314.052282 248.21078 
Q 350.010792 293.633039 385.275344 338.1787 
" style="fill:none;stroke:#000000;stroke-linecap:round;"/>
    <path clip-path="url(#p04f599a361)" d="M 384.36067 333.801102 
L 385.275344 338.1787 
L 381.224461 336.28388 
L 384.36067 333.801102 
z
" style="stroke:#000000;stroke-linecap:round;"/>
   </g>
   <g id="patch_25">
    <path clip-path="url(#p04f599a361)" d="M 231.751049 323.800366 
Q 267.259153 285.773948 302.004209 248.564694 
" style="fill:none;stroke:#000000;stroke-linecap:round;"/>
    <path clip-path="url(#p04f599a361)" d="M 297.812458 250.12329 
L 302.004209 248.564694 
L 300.736035 252.853253 
L 297.812458 250.12329 
z
" style="stroke:#000000;stroke-linecap:round;"/>
   </g>
   <g id="patch_26">
    <path clip-path="url(#p04f599a361)" d="M 399.161286 342.11823 
Q 420.303618 332.035616 440.436798 322.43426 
" style="fill:none;stroke:#000000;stroke-linecap:round;"/>
    <path clip-path="url(#p04f599a361)" d="M 435.96544 322.35083 
L 440.436798 322.43426 
L 437.687239 325.961288 
L 435.96544 322.35083 
z
" style="stroke:#000000;stroke-linecap:round;"/>
   </g>
   <g id="patch_27">
    <path clip-path="url(#p04f599a361)" d="M 398.794149 341.436469 
Q 421.960694 327.723781 444.165118 314.580589 
" style="fill:none;stroke:#000000;stroke-linecap:round;"/>
    <path clip-path="url(#p04f599a361)" d="M 439.704188 314.896987 
L 444.165118 314.580589 
L 441.741678 318.339171 
L 439.704188 314.896987 
z
" style="stroke:#000000;stroke-linecap:round;"/>
   </g>
   <g id="patch_28">
    <path clip-path="url(#p04f599a361)" d="M 398.348245 340.757005 
Q 414.319653 329.151754 429.386589 318.203718 
" style="fill:none;stroke:#000000;stroke-linecap:round;"/>
    <path clip-path="url(#p04f599a361)" d="M 424.974991 318.937067 
L 429.386589 318.203718 
L 427.32631 322.173006 
L 424.974991 318.937067 
z
" style="stroke:#000000;stroke-linecap:round;"/>
   </g>
   <g id="patch_29">
    <path clip-path="url(#p04f599a361)" d="M 327.357048 409.023754 
Q 356.270538 380.476243 384.388439 352.71425 
" style="fill:none;stroke:#000000;stroke-linecap:round;"/>
    <path clip-path="url(#p04f599a361)" d="M 380.136877 354.101413 
L 384.388439 352.71425 
L 382.947233 356.947797 
L 380.136877 354.101413 
z
" style="stroke:#000000;stroke-linecap:round;"/>
   </g>
   <g id="patch_30">
    <path clip-path="url(#p04f599a361)" d="M 464.515455 218.911864 
Q 430.092862 278.627123 396.228628 337.373756 
" style="fill:none;stroke:#000000;stroke-linecap:round;"/>
    <path clip-path="url(#p04f599a361)" d="M 399.959005 334.907122 
L 396.228628 337.373756 
L 396.493547 332.909474 
L 399.959005 334.907122 
z
" style="stroke:#000000;stroke-linecap:round;"/>
   </g>
   <g id="patch_31">
    <path clip-path="url(#p04f599a361)" d="M 461.240923 207.254253 
Q 390.302831 168.483893 320.345809 130.249724 
" style="fill:none;stroke:#000000;stroke-linecap:round;"/>
    <path clip-path="url(#p04f599a361)" d="M 322.896622 133.923054 
L 320.345809 130.249724 
L 324.814961 130.413071 
L 322.896622 133.923054 
z
" style="stroke:#000000;stroke-linecap:round;"/>
   </g>
   <g id="patch_32">
    <path clip-path="url(#p04f599a361)" d="M 477.400552 210.09424 
Q 571.316599 195.679544 664.127553 181.434463 
" style="fill:none;stroke:#000000;stroke-linecap:round;"/>
    <path clip-path="url(#p04f599a361)" d="M 659.870435 180.064446 
L 664.127553 181.434463 
L 660.477269 184.018147 
L 659.870435 180.064446 
z
" style="stroke:#000000;stroke-linecap:round;"/>
   </g>
   <g id="patch_33">
    <path clip-path="url(#p04f599a361)" d="M 431.319552 341.079039 
Q 354.874688 317.482532 279.498123 294.21578 
" style="fill:none;stroke:#000000;stroke-linecap:round;"/>
    <path clip-path="url(#p04f599a361)" d="M 282.730299 297.306579 
L 279.498123 294.21578 
L 283.910068 293.484519 
L 282.730299 297.306579 
z
" style="stroke:#000000;stroke-linecap:round;"/>
   </g>
   <g id="patch_34">
    <path clip-path="url(#p04f599a361)" d="M 435.31964 413.991981 
Q 415.679466 383.556195 396.645499 354.059831 
" style="fill:none;stroke:#000000;stroke-linecap:round;"/>
    <path clip-path="url(#p04f599a361)" d="M 397.133845 358.505224 
L 396.645499 354.059831 
L 400.494821 356.33639 
L 397.133845 358.505224 
z
" style="stroke:#000000;stroke-linecap:round;"/>
   </g>
   <g id="patch_35">
    <path clip-path="url(#p04f599a361)" d="M 427.43129 282.049674 
Q 411.519084 310.180465 396.157334 337.338118 
" style="fill:none;stroke:#000000;stroke-linecap:round;"/>
    <path clip-path="url(#p04f599a361)" d="M 399.867509 334.8412 
L 396.157334 337.338118 
L 396.385904 332.871827 
L 399.867509 334.8412 
z
" style="stroke:#000000;stroke-linecap:round;"/>
   </g>
   <g id="patch_36">
    <path clip-path="url(#p04f599a361)" d="M 519.987916 213.135115 
Q 479.397128 241.351498 439.72436 268.929726 
" style="fill:none;stroke:#000000;stroke-linecap:round;"/>
    <path clip-path="url(#p04f599a361)" d="M 444.15033 268.288799 
L 439.72436 268.929726 
L 441.8672 265.004394 
L 444.15033 268.288799 
z
" style="stroke:#000000;stroke-linecap:round;"/>
   </g>
   <g id="patch_37">
    <path clip-path="url(#p04f599a361)" d="M 263.926654 285.311226 
Q 225.653356 248.313376 188.183908 212.092588 
" style="fill:none;stroke:#000000;stroke-linecap:round;"/>
    <path clip-path="url(#p04f599a361)" d="M 189.669799 216.31066 
L 188.183908 212.092588 
L 192.4499 213.434719 
L 189.669799 216.31066 
z
" style="stroke:#000000;stroke-linecap:round;"/>
   </g>
   <g id="patch_38">
    <path clip-path="url(#p04f599a361)" d="M 454.993999 324.717194 
Q 513.880259 391.466152 572.026874 457.376704 
" style="fill:none;stroke:#000000;stroke-linecap:round;"/>
    <path clip-path="url(#p04f599a361)" d="M 570.880423 453.054014 
L 572.026874 457.376704 
L 567.880851 455.700251 
L 570.880423 453.054014 
z
" style="stroke:#000000;stroke-linecap:round;"/>
   </g>
   <g id="patch_39">
    <path clip-path="url(#p04f599a361)" d="M 446.890758 309.89555 
Q 420.957718 218.94984 395.331263 129.079307 
" style="fill:none;stroke:#000000;stroke-linecap:round;"/>
    <path clip-path="url(#p04f599a361)" d="M 394.504801 133.474414 
L 395.331263 129.079307 
L 398.351471 132.377541 
L 394.504801 133.474414 
z
" style="stroke:#000000;stroke-linecap:round;"/>
   </g>
   <g id="patch_40">
    <path clip-path="url(#p04f599a361)" d="M 440.611259 318.43074 
Q 307.687462 321.607855 175.88138 324.758254 
" style="fill:none;stroke:#000000;stroke-linecap:round;"/>
    <path clip-path="url(#p04f599a361)" d="M 179.928028 326.662103 
L 175.88138 324.758254 
L 179.832448 322.663245 
L 179.928028 326.662103 
z
" style="stroke:#000000;stroke-linecap:round;"/>
   </g>
   <g id="patch_41">
    <path clip-path="url(#p04f599a361)" d="M 457.450445 315.398484 
Q 584.379895 271.582677 710.252507 228.131689 
" style="fill:none;stroke:#000000;stroke-linecap:round;"/>
    <path clip-path="url(#p04f599a361)" d="M 705.81884 227.546374 
L 710.252507 228.131689 
L 707.124055 231.327434 
L 705.81884 227.546374 
z
" style="stroke:#000000;stroke-linecap:round;"/>
   </g>
   <g id="patch_42">
    <path clip-path="url(#p04f599a361)" d="M 444.666305 325.563982 
Q 400.413182 396.188755 356.753702 465.866117 
" style="fill:none;stroke:#000000;stroke-linecap:round;"/>
    <path clip-path="url(#p04f599a361)" d="M 360.572365 463.538496 
L 356.753702 465.866117 
L 357.182803 461.414614 
L 360.572365 463.538496 
z
" style="stroke:#000000;stroke-linecap:round;"/>
   </g>
   <g id="patch_43">
    <path clip-path="url(#p04f599a361)" d="M 458.041364 316.322116 
Q 515.540812 387.155351 572.335624 457.12055 
" style="fill:none;stroke:#000000;stroke-linecap:round;"/>
    <path clip-path="url(#p04f599a361)" d="M 571.367433 452.754475 
L 572.335624 457.12055 
L 568.26185 455.275457 
L 571.367433 452.754475 
z
" style="stroke:#000000;stroke-linecap:round;"/>
   </g>
   <g id="patch_44">
    <path clip-path="url(#p04f599a361)" d="M 449.977533 301.341621 
Q 422.616782 214.6381 395.59249 129.000785 
" style="fill:none;stroke:#000000;stroke-linecap:round;"/>
    <path clip-path="url(#p04f599a361)" d="M 394.888956 133.417236 
L 395.59249 129.000785 
L 398.703531 132.213483 
L 394.888956 133.417236 
z
" style="stroke:#000000;stroke-linecap:round;"/>
   </g>
   <g id="patch_45">
    <path clip-path="url(#p04f599a361)" d="M 443.932156 310.06278 
Q 309.340931 317.295102 175.866129 324.467432 
" style="fill:none;stroke:#000000;stroke-linecap:round;"/>
    <path clip-path="url(#p04f599a361)" d="M 179.967682 326.249918 
L 175.866129 324.467432 
L 179.75305 322.255681 
L 179.967682 326.249918 
z
" style="stroke:#000000;stroke-linecap:round;"/>
   </g>
   <g id="patch_46">
    <path clip-path="url(#p04f599a361)" d="M 460.838398 306.979539 
Q 586.039954 267.269262 710.175795 227.897 
" style="fill:none;stroke:#000000;stroke-linecap:round;"/>
    <path clip-path="url(#p04f599a361)" d="M 705.758323 227.199906 
L 710.175795 227.897 
L 706.967637 231.012721 
L 705.758323 227.199906 
z
" style="stroke:#000000;stroke-linecap:round;"/>
   </g>
   <g id="patch_47">
    <path clip-path="url(#p04f599a361)" d="M 448.052576 316.977482 
Q 402.072159 391.875314 356.67668 465.820336 
" style="fill:none;stroke:#000000;stroke-linecap:round;"/>
    <path clip-path="url(#p04f599a361)" d="M 360.473858 463.457828 
L 356.67668 465.820336 
L 357.06498 461.365089 
L 360.473858 463.457828 
z
" style="stroke:#000000;stroke-linecap:round;"/>
   </g>
   <g id="patch_48">
    <path clip-path="url(#p04f599a361)" d="M 443.185137 318.805366 
Q 507.895933 388.582354 571.846479 457.539573 
" style="fill:none;stroke:#000000;stroke-linecap:round;"/>
    <path clip-path="url(#p04f599a361)" d="M 570.592976 453.246703 
L 571.846479 457.539573 
L 567.660082 455.966654 
L 570.592976 453.246703 
z
" style="stroke:#000000;stroke-linecap:round;"/>
   </g>
   <g id="patch_49">
    <path clip-path="url(#p04f599a361)" d="M 435.342238 304.016599 
Q 414.973018 216.064514 394.856053 129.201634 
" style="fill:none;stroke:#000000;stroke-linecap:round;"/>
    <path clip-path="url(#p04f599a361)" d="M 393.810114 133.549739 
L 394.856053 129.201634 
L 397.706973 132.647248 
L 393.810114 133.549739 
z
" style="stroke:#000000;stroke-linecap:round;"/>
   </g>
   <g id="patch_50">
    <path clip-path="url(#p04f599a361)" d="M 428.644099 312.855955 
Q 301.699437 318.72403 175.871617 324.540478 
" style="fill:none;stroke:#000000;stroke-linecap:round;"/>
    <path clip-path="url(#p04f599a361)" d="M 179.959702 326.35364 
L 175.871617 324.540478 
L 179.774998 322.357907 
L 179.959702 326.35364 
z
" style="stroke:#000000;stroke-linecap:round;"/>
   </g>
   <g id="patch_51">
    <path clip-path="url(#p04f599a361)" d="M 445.568562 309.890745 
Q 578.395503 268.69872 710.15458 227.837858 
" style="fill:none;stroke:#000000;stroke-linecap:round;"/>
    <path clip-path="url(#p04f599a361)" d="M 705.741675 227.112414 
L 710.15458 227.837858 
L 706.926481 230.932915 
L 705.741675 227.112414 
z
" style="stroke:#000000;stroke-linecap:round;"/>
   </g>
   <g id="patch_52">
    <path clip-path="url(#p04f599a361)" d="M 433.239968 320.107068 
Q 394.429041 393.304377 356.141856 465.513913 
" style="fill:none;stroke:#000000;stroke-linecap:round;"/>
    <path clip-path="url(#p04f599a361)" d="M 359.782629 462.916844 
L 356.141856 465.513913 
L 356.248664 461.043053 
L 359.782629 462.916844 
z
" style="stroke:#000000;stroke-linecap:round;"/>
   </g>
   <g id="patch_53">
    <path clip-path="url(#p04f599a361)" d="M 364.462009 225.225949 
Q 351.349208 190.344757 338.629826 156.510094 
" style="fill:none;stroke:#000000;stroke-linecap:round;"/>
    <path clip-path="url(#p04f599a361)" d="M 338.165278 160.958036 
L 338.629826 156.510094 
L 341.909451 159.550498 
L 338.165278 160.958036 
z
" style="stroke:#000000;stroke-linecap:round;"/>
   </g>
   <g id="patch_54">
    <path clip-path="url(#p04f599a361)" d="M 375.972671 231.499375 
Q 418.174094 222.369411 459.282763 213.475857 
" style="fill:none;stroke:#000000;stroke-linecap:round;"/>
    <path clip-path="url(#p04f599a361)" d="M 454.950307 212.366882 
L 459.282763 213.475857 
L 455.79611 216.276437 
L 454.950307 212.366882 
z
" style="stroke:#000000;stroke-linecap:round;"/>
   </g>
   <g id="patch_55">
    <path clip-path="url(#p04f599a361)" d="M 366.523808 241.932872 
Q 365.959236 246.863903 365.521841 250.684156 
" style="fill:none;stroke:#000000;stroke-linecap:round;"/>
    <path clip-path="url(#p04f599a361)" d="M 367.963862 246.93762 
L 365.521841 250.684156 
L 363.989825 246.482618 
L 367.963862 246.93762 
z
" style="stroke:#000000;stroke-linecap:round;"/>
   </g>
   <g id="patch_56">
    <path clip-path="url(#p04f599a361)" d="M 369.303284 241.801409 
Q 379.426466 289.586308 389.317936 336.277448 
" style="fill:none;stroke:#000000;stroke-linecap:round;"/>
    <path clip-path="url(#p04f599a361)" d="M 390.445515 331.949797 
L 389.317936 336.277448 
L 386.532362 332.778794 
L 390.445515 331.949797 
z
" style="stroke:#000000;stroke-linecap:round;"/>
   </g>
   <g id="patch_57">
    <path clip-path="url(#p04f599a361)" d="M 387.769396 226.994468 
Q 363.864587 190.788825 340.575801 155.516196 
" style="fill:none;stroke:#000000;stroke-linecap:round;"/>
    <path clip-path="url(#p04f599a361)" d="M 341.110727 159.956224 
L 340.575801 155.516196 
L 344.44878 157.752272 
L 341.110727 159.956224 
z
" style="stroke:#000000;stroke-linecap:round;"/>
   </g>
   <g id="patch_58">
    <path clip-path="url(#p04f599a361)" d="M 400.836344 231.743423 
Q 430.690083 222.816266 459.472655 214.20942 
" style="fill:none;stroke:#000000;stroke-linecap:round;"/>
    <path clip-path="url(#p04f599a361)" d="M 455.067338 213.439236 
L 459.472655 214.20942 
L 456.213318 217.271563 
L 455.067338 213.439236 
z
" style="stroke:#000000;stroke-linecap:round;"/>
   </g>
   <g id="patch_59">
    <path clip-path="url(#p04f599a361)" d="M 386.199353 240.126162 
Q 378.473531 247.315515 371.566185 253.743227 
" style="fill:none;stroke:#000000;stroke-linecap:round;"/>
    <path clip-path="url(#p04f599a361)" d="M 375.856917 252.482428 
L 371.566185 253.743227 
L 373.131985 249.554161 
L 375.856917 252.482428 
z
" style="stroke:#000000;stroke-linecap:round;"/>
   </g>
   <g id="patch_60">
    <path clip-path="url(#p04f599a361)" d="M 392.44948 242.886133 
Q 391.943692 290.034595 391.449897 336.065087 
" style="fill:none;stroke:#000000;stroke-linecap:round;"/>
    <path clip-path="url(#p04f599a361)" d="M 393.49269 332.086771 
L 391.449897 336.065087 
L 389.49292 332.043864 
L 393.49269 332.086771 
z
" style="stroke:#000000;stroke-linecap:round;"/>
   </g>
   <g id="PathCollection_1">
    <defs>
     <path d="M 0 8.660254 
C 2.296726 8.660254 4.499694 7.747755 6.123724 6.123724 
C 7.747755 4.499694 8.660254 2.296726 8.660254 -0 
C 8.660254 -2.296726 7.747755 -4.499694 6.123724 -6.123724 
C 4.499694 -7.747755 2.296726 -8.660254 0 -8.660254 
C -2.296726 -8.660254 -4.499694 -7.747755 -6.123724 -6.123724 
C -7.747755 -4.499694 -8.660254 -2.296726 -8.660254 0 
C -8.660254 2.296726 -7.747755 4.499694 -6.123724 6.123724 
C -4.499694 7.747755 -2.296726 8.660254 0 8.660254 
z
" id="C0_0_0346f9fb99"/>
    </defs>
    <g clip-path="url(#p04f599a361)">
     <use style="fill:#ff0000;stroke:#ff0000;" x="698.658682" xlink:href="#C0_0_0346f9fb99" y="371.290521"/>
    </g>
    <g clip-path="url(#p04f599a361)">
     <use style="fill:#ff0000;stroke:#ff0000;" x="675.09759" xlink:href="#C0_0_0346f9fb99" y="414.1566"/>
    </g>
    <g clip-path="url(#p04f599a361)">
     <use style="fill:#ff0000;stroke:#ff0000;" x="392.650162" xlink:href="#C0_0_0346f9fb99" y="119.676837"/>
    </g>
    <g clip-path="url(#p04f599a361)">
     <use style="fill:#ff0000;stroke:#ff0000;" x="578.497318" xlink:href="#C0_0_0346f9fb99" y="464.711104"/>
    </g>
    <g clip-path="url(#p04f599a361)">
     <use style="fill:#ff0000;stroke:#ff0000;" x="444.169742" xlink:href="#C0_0_0346f9fb99" y="367.311356"/>
    </g>
    <g clip-path="url(#p04f599a361)">
     <use style="fill:#ff0000;stroke:#ff0000;" x="510.865896" xlink:href="#C0_0_0346f9fb99" y="349.732717"/>
    </g>
    <g clip-path="url(#p04f599a361)">
     <use style="fill:#ff0000;stroke:#ff0000;" x="480.354592" xlink:href="#C0_0_0346f9fb99" y="341.128014"/>
    </g>
    <g clip-path="url(#p04f599a361)">
     <use style="fill:#ff0000;stroke:#ff0000;" x="273.489953" xlink:href="#C0_0_0346f9fb99" y="339.390102"/>
    </g>
    <g clip-path="url(#p04f599a361)">
     <use style="fill:#ff0000;stroke:#ff0000;" x="520.963368" xlink:href="#C0_0_0346f9fb99" y="308.228771"/>
    </g>
    <g clip-path="url(#p04f599a361)">
     <use style="fill:#ff0000;stroke:#ff0000;" x="640.782283" xlink:href="#C0_0_0346f9fb99" y="314.318933"/>
    </g>
    <g clip-path="url(#p04f599a361)">
     <use style="fill:#ff0000;stroke:#ff0000;" x="446.755481" xlink:href="#C0_0_0346f9fb99" y="107.607273"/>
    </g>
    <g clip-path="url(#p04f599a361)">
     <use style="fill:#ff0000;stroke:#ff0000;" x="521.503022" xlink:href="#C0_0_0346f9fb99" y="120.031827"/>
    </g>
    <g clip-path="url(#p04f599a361)">
     <use style="fill:#ff0000;stroke:#ff0000;" x="443.848431" xlink:href="#C0_0_0346f9fb99" y="164.40592"/>
    </g>
    <g clip-path="url(#p04f599a361)">
     <use style="fill:#ff0000;stroke:#ff0000;" x="309.510326" xlink:href="#C0_0_0346f9fb99" y="141.907075"/>
    </g>
    <g clip-path="url(#p04f599a361)">
     <use style="fill:#ff0000;stroke:#ff0000;" x="364.409051" xlink:href="#C0_0_0346f9fb99" y="260.403381"/>
    </g>
    <g clip-path="url(#p04f599a361)">
     <use style="fill:#ff0000;stroke:#ff0000;" x="308.676079" xlink:href="#C0_0_0346f9fb99" y="241.419639"/>
    </g>
    <g clip-path="url(#p04f599a361)">
     <use style="fill:#ff0000;stroke:#ff0000;" x="225.838018" xlink:href="#C0_0_0346f9fb99" y="330.132763"/>
    </g>
    <g clip-path="url(#p04f599a361)">
     <use style="fill:#ff0000;stroke:#ff0000;" x="391.344975" xlink:href="#C0_0_0346f9fb99" y="345.845768"/>
    </g>
    <g clip-path="url(#p04f599a361)">
     <use style="fill:#ff0000;stroke:#ff0000;" x="321.193535" xlink:href="#C0_0_0346f9fb99" y="415.109252"/>
    </g>
    <g clip-path="url(#p04f599a361)">
     <use style="fill:#ff0000;stroke:#ff0000;" x="468.841025" xlink:href="#C0_0_0346f9fb99" y="211.407998"/>
    </g>
    <g clip-path="url(#p04f599a361)">
     <use style="fill:#ff0000;stroke:#ff0000;" x="335.189246" xlink:href="#C0_0_0346f9fb99" y="147.35785"/>
    </g>
    <g clip-path="url(#p04f599a361)">
     <use style="fill:#008000;stroke:#008000;" x="181.153369" xlink:href="#C0_0_0346f9fb99" y="205.29634"/>
    </g>
    <g clip-path="url(#p04f599a361)">
     <use style="fill:#ff0000;stroke:#ff0000;" x="439.59562" xlink:href="#C0_0_0346f9fb99" y="343.633643"/>
    </g>
    <g clip-path="url(#p04f599a361)">
     <use style="fill:#ff0000;stroke:#ff0000;" x="440.014608" xlink:href="#C0_0_0346f9fb99" y="421.267631"/>
    </g>
    <g clip-path="url(#p04f599a361)">
     <use style="fill:#ff0000;stroke:#ff0000;" x="431.695644" xlink:href="#C0_0_0346f9fb99" y="274.510828"/>
    </g>
    <g clip-path="url(#p04f599a361)">
     <use style="fill:#ff0000;stroke:#ff0000;" x="527.100794" xlink:href="#C0_0_0346f9fb99" y="208.190651"/>
    </g>
    <g clip-path="url(#p04f599a361)">
     <use style="fill:#008000;stroke:#008000;" x="270.154681" xlink:href="#C0_0_0346f9fb99" y="291.331707"/>
    </g>
    <g clip-path="url(#p04f599a361)">
     <use style="fill:#ff0000;stroke:#ff0000;" x="166.105785" xlink:href="#C0_0_0346f9fb99" y="324.991908"/>
    </g>
    <g clip-path="url(#p04f599a361)">
     <use style="fill:#ff0000;stroke:#ff0000;" x="719.494215" xlink:href="#C0_0_0346f9fb99" y="224.941469"/>
    </g>
    <g clip-path="url(#p04f599a361)">
     <use style="fill:#ff0000;stroke:#ff0000;" x="351.561354" xlink:href="#C0_0_0346f9fb99" y="474.152727"/>
    </g>
    <g clip-path="url(#p04f599a361)">
     <use style="fill:#ff0000;stroke:#ff0000;" x="449.265572" xlink:href="#C0_0_0346f9fb99" y="318.223887"/>
    </g>
    <g clip-path="url(#p04f599a361)">
     <use style="fill:#ff0000;stroke:#ff0000;" x="452.582948" xlink:href="#C0_0_0346f9fb99" y="309.597926"/>
    </g>
    <g clip-path="url(#p04f599a361)">
     <use style="fill:#ff0000;stroke:#ff0000;" x="437.296753" xlink:href="#C0_0_0346f9fb99" y="312.455982"/>
    </g>
    <g clip-path="url(#p04f599a361)">
     <use style="fill:#ff0000;stroke:#ff0000;" x="367.508728" xlink:href="#C0_0_0346f9fb99" y="233.330486"/>
    </g>
    <g clip-path="url(#p04f599a361)">
     <use style="fill:#ff0000;stroke:#ff0000;" x="392.542408" xlink:href="#C0_0_0346f9fb99" y="234.223557"/>
    </g>
    <g clip-path="url(#p04f599a361)">
     <use style="fill:#ff0000;stroke:#ff0000;" x="311.767447" xlink:href="#C0_0_0346f9fb99" y="125.561323"/>
    </g>
    <g clip-path="url(#p04f599a361)">
     <use style="fill:#ff0000;stroke:#ff0000;" x="673.794307" xlink:href="#C0_0_0346f9fb99" y="179.950762"/>
    </g>
   </g>
   <g id="text_1">
    <g clip-path="url(#p04f599a361)">
     <!-- ROCK2 -->
     <g transform="translate(677.82462 374.601771)scale(0.12 -0.12)">
      <defs>
       <path d="M 44.390625 34.1875 
Q 47.5625 33.109375 50.5625 29.59375 
Q 53.5625 26.078125 56.59375 19.921875 
L 66.609375 0 
L 56 0 
L 46.6875 18.703125 
Q 43.0625 26.03125 39.671875 28.421875 
Q 36.28125 30.8125 30.421875 30.8125 
L 19.671875 30.8125 
L 19.671875 0 
L 9.8125 0 
L 9.8125 72.90625 
L 32.078125 72.90625 
Q 44.578125 72.90625 50.734375 67.671875 
Q 56.890625 62.453125 56.890625 51.90625 
Q 56.890625 45.015625 53.6875 40.46875 
Q 50.484375 35.9375 44.390625 34.1875 
z
M 19.671875 64.796875 
L 19.671875 38.921875 
L 32.078125 38.921875 
Q 39.203125 38.921875 42.84375 42.21875 
Q 46.484375 45.515625 46.484375 51.90625 
Q 46.484375 58.296875 42.84375 61.546875 
Q 39.203125 64.796875 32.078125 64.796875 
z
" id="DejaVuSans-82"/>
       <path d="M 39.40625 66.21875 
Q 28.65625 66.21875 22.328125 58.203125 
Q 16.015625 50.203125 16.015625 36.375 
Q 16.015625 22.609375 22.328125 14.59375 
Q 28.65625 6.59375 39.40625 6.59375 
Q 50.140625 6.59375 56.421875 14.59375 
Q 62.703125 22.609375 62.703125 36.375 
Q 62.703125 50.203125 56.421875 58.203125 
Q 50.140625 66.21875 39.40625 66.21875 
z
M 39.40625 74.21875 
Q 54.734375 74.21875 63.90625 63.9375 
Q 73.09375 53.65625 73.09375 36.375 
Q 73.09375 19.140625 63.90625 8.859375 
Q 54.734375 -1.421875 39.40625 -1.421875 
Q 24.03125 -1.421875 14.8125 8.828125 
Q 5.609375 19.09375 5.609375 36.375 
Q 5.609375 53.65625 14.8125 63.9375 
Q 24.03125 74.21875 39.40625 74.21875 
z
" id="DejaVuSans-79"/>
       <path d="M 64.40625 67.28125 
L 64.40625 56.890625 
Q 59.421875 61.53125 53.78125 63.8125 
Q 48.140625 66.109375 41.796875 66.109375 
Q 29.296875 66.109375 22.65625 58.46875 
Q 16.015625 50.828125 16.015625 36.375 
Q 16.015625 21.96875 22.65625 14.328125 
Q 29.296875 6.6875 41.796875 6.6875 
Q 48.140625 6.6875 53.78125 8.984375 
Q 59.421875 11.28125 64.40625 15.921875 
L 64.40625 5.609375 
Q 59.234375 2.09375 53.4375 0.328125 
Q 47.65625 -1.421875 41.21875 -1.421875 
Q 24.65625 -1.421875 15.125 8.703125 
Q 5.609375 18.84375 5.609375 36.375 
Q 5.609375 53.953125 15.125 64.078125 
Q 24.65625 74.21875 41.21875 74.21875 
Q 47.75 74.21875 53.53125 72.484375 
Q 59.328125 70.75 64.40625 67.28125 
z
" id="DejaVuSans-67"/>
       <path d="M 9.8125 72.90625 
L 19.671875 72.90625 
L 19.671875 42.09375 
L 52.390625 72.90625 
L 65.09375 72.90625 
L 28.90625 38.921875 
L 67.671875 0 
L 54.6875 0 
L 19.671875 35.109375 
L 19.671875 0 
L 9.8125 0 
z
" id="DejaVuSans-75"/>
       <path d="M 19.1875 8.296875 
L 53.609375 8.296875 
L 53.609375 0 
L 7.328125 0 
L 7.328125 8.296875 
Q 12.9375 14.109375 22.625 23.890625 
Q 32.328125 33.6875 34.8125 36.53125 
Q 39.546875 41.84375 41.421875 45.53125 
Q 43.3125 49.21875 43.3125 52.78125 
Q 43.3125 58.59375 39.234375 62.25 
Q 35.15625 65.921875 28.609375 65.921875 
Q 23.96875 65.921875 18.8125 64.3125 
Q 13.671875 62.703125 7.8125 59.421875 
L 7.8125 69.390625 
Q 13.765625 71.78125 18.9375 73 
Q 24.125 74.21875 28.421875 74.21875 
Q 39.75 74.21875 46.484375 68.546875 
Q 53.21875 62.890625 53.21875 53.421875 
Q 53.21875 48.921875 51.53125 44.890625 
Q 49.859375 40.875 45.40625 35.40625 
Q 44.1875 33.984375 37.640625 27.21875 
Q 31.109375 20.453125 19.1875 8.296875 
z
" id="DejaVuSans-50"/>
      </defs>
      <use xlink:href="#DejaVuSans-82"/>
      <use x="69.482422" xlink:href="#DejaVuSans-79"/>
      <use x="148.193359" xlink:href="#DejaVuSans-67"/>
      <use x="218.017578" xlink:href="#DejaVuSans-75"/>
      <use x="283.59375" xlink:href="#DejaVuSans-50"/>
     </g>
    </g>
   </g>
   <g id="text_2">
    <g clip-path="url(#p04f599a361)">
     <!-- RHOA -->
     <g transform="translate(657.69384 417.46785)scale(0.12 -0.12)">
      <defs>
       <path d="M 9.8125 72.90625 
L 19.671875 72.90625 
L 19.671875 43.015625 
L 55.515625 43.015625 
L 55.515625 72.90625 
L 65.375 72.90625 
L 65.375 0 
L 55.515625 0 
L 55.515625 34.71875 
L 19.671875 34.71875 
L 19.671875 0 
L 9.8125 0 
z
" id="DejaVuSans-72"/>
       <path d="M 34.1875 63.1875 
L 20.796875 26.90625 
L 47.609375 26.90625 
z
M 28.609375 72.90625 
L 39.796875 72.90625 
L 67.578125 0 
L 57.328125 0 
L 50.6875 18.703125 
L 17.828125 18.703125 
L 11.1875 0 
L 0.78125 0 
z
" id="DejaVuSans-65"/>
      </defs>
      <use xlink:href="#DejaVuSans-82"/>
      <use x="69.482422" xlink:href="#DejaVuSans-72"/>
      <use x="144.677734" xlink:href="#DejaVuSans-79"/>
      <use x="221.638672" xlink:href="#DejaVuSans-65"/>
     </g>
    </g>
   </g>
   <g id="text_3">
    <g clip-path="url(#p04f599a361)">
     <!-- JUN -->
     <g transform="translate(382.000162 122.988087)scale(0.12 -0.12)">
      <defs>
       <path d="M 9.8125 72.90625 
L 19.671875 72.90625 
L 19.671875 5.078125 
Q 19.671875 -8.109375 14.671875 -14.0625 
Q 9.671875 -20.015625 -1.421875 -20.015625 
L -5.171875 -20.015625 
L -5.171875 -11.71875 
L -2.09375 -11.71875 
Q 4.4375 -11.71875 7.125 -8.046875 
Q 9.8125 -4.390625 9.8125 5.078125 
z
" id="DejaVuSans-74"/>
       <path d="M 8.6875 72.90625 
L 18.609375 72.90625 
L 18.609375 28.609375 
Q 18.609375 16.890625 22.84375 11.734375 
Q 27.09375 6.59375 36.625 6.59375 
Q 46.09375 6.59375 50.34375 11.734375 
Q 54.59375 16.890625 54.59375 28.609375 
L 54.59375 72.90625 
L 64.5 72.90625 
L 64.5 27.390625 
Q 64.5 13.140625 57.4375 5.859375 
Q 50.390625 -1.421875 36.625 -1.421875 
Q 22.796875 -1.421875 15.734375 5.859375 
Q 8.6875 13.140625 8.6875 27.390625 
z
" id="DejaVuSans-85"/>
       <path d="M 9.8125 72.90625 
L 23.09375 72.90625 
L 55.421875 11.921875 
L 55.421875 72.90625 
L 64.984375 72.90625 
L 64.984375 0 
L 51.703125 0 
L 19.390625 60.984375 
L 19.390625 0 
L 9.8125 0 
z
" id="DejaVuSans-78"/>
      </defs>
      <use xlink:href="#DejaVuSans-74"/>
      <use x="29.492188" xlink:href="#DejaVuSans-85"/>
      <use x="102.685547" xlink:href="#DejaVuSans-78"/>
     </g>
    </g>
   </g>
   <g id="text_4">
    <g clip-path="url(#p04f599a361)">
     <!-- MYC -->
     <g transform="translate(565.796068 468.022354)scale(0.12 -0.12)">
      <defs>
       <path d="M 9.8125 72.90625 
L 24.515625 72.90625 
L 43.109375 23.296875 
L 61.8125 72.90625 
L 76.515625 72.90625 
L 76.515625 0 
L 66.890625 0 
L 66.890625 64.015625 
L 48.09375 14.015625 
L 38.1875 14.015625 
L 19.390625 64.015625 
L 19.390625 0 
L 9.8125 0 
z
" id="DejaVuSans-77"/>
       <path d="M -0.203125 72.90625 
L 10.40625 72.90625 
L 30.609375 42.921875 
L 50.6875 72.90625 
L 61.28125 72.90625 
L 35.5 34.71875 
L 35.5 0 
L 25.59375 0 
L 25.59375 34.71875 
z
" id="DejaVuSans-89"/>
      </defs>
      <use xlink:href="#DejaVuSans-77"/>
      <use x="86.279297" xlink:href="#DejaVuSans-89"/>
      <use x="141.863281" xlink:href="#DejaVuSans-67"/>
     </g>
    </g>
   </g>
   <g id="text_5">
    <g clip-path="url(#p04f599a361)">
     <!-- SMAD4 -->
     <g transform="translate(422.641929 370.622606)scale(0.12 -0.12)">
      <defs>
       <path d="M 53.515625 70.515625 
L 53.515625 60.890625 
Q 47.90625 63.578125 42.921875 64.890625 
Q 37.9375 66.21875 33.296875 66.21875 
Q 25.25 66.21875 20.875 63.09375 
Q 16.5 59.96875 16.5 54.203125 
Q 16.5 49.359375 19.40625 46.890625 
Q 22.3125 44.4375 30.421875 42.921875 
L 36.375 41.703125 
Q 47.40625 39.59375 52.65625 34.296875 
Q 57.90625 29 57.90625 20.125 
Q 57.90625 9.515625 50.796875 4.046875 
Q 43.703125 -1.421875 29.984375 -1.421875 
Q 24.8125 -1.421875 18.96875 -0.25 
Q 13.140625 0.921875 6.890625 3.21875 
L 6.890625 13.375 
Q 12.890625 10.015625 18.65625 8.296875 
Q 24.421875 6.59375 29.984375 6.59375 
Q 38.421875 6.59375 43.015625 9.90625 
Q 47.609375 13.234375 47.609375 19.390625 
Q 47.609375 24.75 44.3125 27.78125 
Q 41.015625 30.8125 33.5 32.328125 
L 27.484375 33.5 
Q 16.453125 35.6875 11.515625 40.375 
Q 6.59375 45.0625 6.59375 53.421875 
Q 6.59375 63.09375 13.40625 68.65625 
Q 20.21875 74.21875 32.171875 74.21875 
Q 37.3125 74.21875 42.625 73.28125 
Q 47.953125 72.359375 53.515625 70.515625 
z
" id="DejaVuSans-83"/>
       <path d="M 19.671875 64.796875 
L 19.671875 8.109375 
L 31.59375 8.109375 
Q 46.6875 8.109375 53.6875 14.9375 
Q 60.6875 21.78125 60.6875 36.53125 
Q 60.6875 51.171875 53.6875 57.984375 
Q 46.6875 64.796875 31.59375 64.796875 
z
M 9.8125 72.90625 
L 30.078125 72.90625 
Q 51.265625 72.90625 61.171875 64.09375 
Q 71.09375 55.28125 71.09375 36.53125 
Q 71.09375 17.671875 61.125 8.828125 
Q 51.171875 0 30.078125 0 
L 9.8125 0 
z
" id="DejaVuSans-68"/>
       <path d="M 37.796875 64.3125 
L 12.890625 25.390625 
L 37.796875 25.390625 
z
M 35.203125 72.90625 
L 47.609375 72.90625 
L 47.609375 25.390625 
L 58.015625 25.390625 
L 58.015625 17.1875 
L 47.609375 17.1875 
L 47.609375 0 
L 37.796875 0 
L 37.796875 17.1875 
L 4.890625 17.1875 
L 4.890625 26.703125 
z
" id="DejaVuSans-52"/>
      </defs>
      <use xlink:href="#DejaVuSans-83"/>
      <use x="63.476562" xlink:href="#DejaVuSans-77"/>
      <use x="149.755859" xlink:href="#DejaVuSans-65"/>
      <use x="218.164062" xlink:href="#DejaVuSans-68"/>
      <use x="295.166016" xlink:href="#DejaVuSans-52"/>
     </g>
    </g>
   </g>
   <g id="text_6">
    <g clip-path="url(#p04f599a361)">
     <!-- EP300 -->
     <g transform="translate(492.004333 353.043967)scale(0.12 -0.12)">
      <defs>
       <path d="M 9.8125 72.90625 
L 55.90625 72.90625 
L 55.90625 64.59375 
L 19.671875 64.59375 
L 19.671875 43.015625 
L 54.390625 43.015625 
L 54.390625 34.71875 
L 19.671875 34.71875 
L 19.671875 8.296875 
L 56.78125 8.296875 
L 56.78125 0 
L 9.8125 0 
z
" id="DejaVuSans-69"/>
       <path d="M 19.671875 64.796875 
L 19.671875 37.40625 
L 32.078125 37.40625 
Q 38.96875 37.40625 42.71875 40.96875 
Q 46.484375 44.53125 46.484375 51.125 
Q 46.484375 57.671875 42.71875 61.234375 
Q 38.96875 64.796875 32.078125 64.796875 
z
M 9.8125 72.90625 
L 32.078125 72.90625 
Q 44.34375 72.90625 50.609375 67.359375 
Q 56.890625 61.8125 56.890625 51.125 
Q 56.890625 40.328125 50.609375 34.8125 
Q 44.34375 29.296875 32.078125 29.296875 
L 19.671875 29.296875 
L 19.671875 0 
L 9.8125 0 
z
" id="DejaVuSans-80"/>
       <path d="M 40.578125 39.3125 
Q 47.65625 37.796875 51.625 33 
Q 55.609375 28.21875 55.609375 21.1875 
Q 55.609375 10.40625 48.1875 4.484375 
Q 40.765625 -1.421875 27.09375 -1.421875 
Q 22.515625 -1.421875 17.65625 -0.515625 
Q 12.796875 0.390625 7.625 2.203125 
L 7.625 11.71875 
Q 11.71875 9.328125 16.59375 8.109375 
Q 21.484375 6.890625 26.8125 6.890625 
Q 36.078125 6.890625 40.9375 10.546875 
Q 45.796875 14.203125 45.796875 21.1875 
Q 45.796875 27.640625 41.28125 31.265625 
Q 36.765625 34.90625 28.71875 34.90625 
L 20.21875 34.90625 
L 20.21875 43.015625 
L 29.109375 43.015625 
Q 36.375 43.015625 40.234375 45.921875 
Q 44.09375 48.828125 44.09375 54.296875 
Q 44.09375 59.90625 40.109375 62.90625 
Q 36.140625 65.921875 28.71875 65.921875 
Q 24.65625 65.921875 20.015625 65.03125 
Q 15.375 64.15625 9.8125 62.3125 
L 9.8125 71.09375 
Q 15.4375 72.65625 20.34375 73.4375 
Q 25.25 74.21875 29.59375 74.21875 
Q 40.828125 74.21875 47.359375 69.109375 
Q 53.90625 64.015625 53.90625 55.328125 
Q 53.90625 49.265625 50.4375 45.09375 
Q 46.96875 40.921875 40.578125 39.3125 
z
" id="DejaVuSans-51"/>
       <path d="M 31.78125 66.40625 
Q 24.171875 66.40625 20.328125 58.90625 
Q 16.5 51.421875 16.5 36.375 
Q 16.5 21.390625 20.328125 13.890625 
Q 24.171875 6.390625 31.78125 6.390625 
Q 39.453125 6.390625 43.28125 13.890625 
Q 47.125 21.390625 47.125 36.375 
Q 47.125 51.421875 43.28125 58.90625 
Q 39.453125 66.40625 31.78125 66.40625 
z
M 31.78125 74.21875 
Q 44.046875 74.21875 50.515625 64.515625 
Q 56.984375 54.828125 56.984375 36.375 
Q 56.984375 17.96875 50.515625 8.265625 
Q 44.046875 -1.421875 31.78125 -1.421875 
Q 19.53125 -1.421875 13.0625 8.265625 
Q 6.59375 17.96875 6.59375 36.375 
Q 6.59375 54.828125 13.0625 64.515625 
Q 19.53125 74.21875 31.78125 74.21875 
z
" id="DejaVuSans-48"/>
      </defs>
      <use xlink:href="#DejaVuSans-69"/>
      <use x="63.183594" xlink:href="#DejaVuSans-80"/>
      <use x="123.486328" xlink:href="#DejaVuSans-51"/>
      <use x="187.109375" xlink:href="#DejaVuSans-48"/>
      <use x="250.732422" xlink:href="#DejaVuSans-48"/>
     </g>
    </g>
   </g>
   <g id="text_7">
    <g clip-path="url(#p04f599a361)">
     <!-- RUVBL1 -->
     <g transform="translate(456.412717 344.439264)scale(0.12 -0.12)">
      <defs>
       <path d="M 28.609375 0 
L 0.78125 72.90625 
L 11.078125 72.90625 
L 34.1875 11.53125 
L 57.328125 72.90625 
L 67.578125 72.90625 
L 39.796875 0 
z
" id="DejaVuSans-86"/>
       <path d="M 19.671875 34.8125 
L 19.671875 8.109375 
L 35.5 8.109375 
Q 43.453125 8.109375 47.28125 11.40625 
Q 51.125 14.703125 51.125 21.484375 
Q 51.125 28.328125 47.28125 31.5625 
Q 43.453125 34.8125 35.5 34.8125 
z
M 19.671875 64.796875 
L 19.671875 42.828125 
L 34.28125 42.828125 
Q 41.5 42.828125 45.03125 45.53125 
Q 48.578125 48.25 48.578125 53.8125 
Q 48.578125 59.328125 45.03125 62.0625 
Q 41.5 64.796875 34.28125 64.796875 
z
M 9.8125 72.90625 
L 35.015625 72.90625 
Q 46.296875 72.90625 52.390625 68.21875 
Q 58.5 63.53125 58.5 54.890625 
Q 58.5 48.1875 55.375 44.234375 
Q 52.25 40.28125 46.1875 39.3125 
Q 53.46875 37.75 57.5 32.78125 
Q 61.53125 27.828125 61.53125 20.40625 
Q 61.53125 10.640625 54.890625 5.3125 
Q 48.25 0 35.984375 0 
L 9.8125 0 
z
" id="DejaVuSans-66"/>
       <path d="M 9.8125 72.90625 
L 19.671875 72.90625 
L 19.671875 8.296875 
L 55.171875 8.296875 
L 55.171875 0 
L 9.8125 0 
z
" id="DejaVuSans-76"/>
       <path d="M 12.40625 8.296875 
L 28.515625 8.296875 
L 28.515625 63.921875 
L 10.984375 60.40625 
L 10.984375 69.390625 
L 28.421875 72.90625 
L 38.28125 72.90625 
L 38.28125 8.296875 
L 54.390625 8.296875 
L 54.390625 0 
L 12.40625 0 
z
" id="DejaVuSans-49"/>
      </defs>
      <use xlink:href="#DejaVuSans-82"/>
      <use x="69.482422" xlink:href="#DejaVuSans-85"/>
      <use x="142.675781" xlink:href="#DejaVuSans-86"/>
      <use x="211.083984" xlink:href="#DejaVuSans-66"/>
      <use x="279.6875" xlink:href="#DejaVuSans-76"/>
      <use x="335.400391" xlink:href="#DejaVuSans-49"/>
     </g>
    </g>
   </g>
   <g id="text_8">
    <g clip-path="url(#p04f599a361)">
     <!-- CHD8 -->
     <g transform="translate(256.350578 342.701352)scale(0.12 -0.12)">
      <defs>
       <path d="M 31.78125 34.625 
Q 24.75 34.625 20.71875 30.859375 
Q 16.703125 27.09375 16.703125 20.515625 
Q 16.703125 13.921875 20.71875 10.15625 
Q 24.75 6.390625 31.78125 6.390625 
Q 38.8125 6.390625 42.859375 10.171875 
Q 46.921875 13.96875 46.921875 20.515625 
Q 46.921875 27.09375 42.890625 30.859375 
Q 38.875 34.625 31.78125 34.625 
z
M 21.921875 38.8125 
Q 15.578125 40.375 12.03125 44.71875 
Q 8.5 49.078125 8.5 55.328125 
Q 8.5 64.0625 14.71875 69.140625 
Q 20.953125 74.21875 31.78125 74.21875 
Q 42.671875 74.21875 48.875 69.140625 
Q 55.078125 64.0625 55.078125 55.328125 
Q 55.078125 49.078125 51.53125 44.71875 
Q 48 40.375 41.703125 38.8125 
Q 48.828125 37.15625 52.796875 32.3125 
Q 56.78125 27.484375 56.78125 20.515625 
Q 56.78125 9.90625 50.3125 4.234375 
Q 43.84375 -1.421875 31.78125 -1.421875 
Q 19.734375 -1.421875 13.25 4.234375 
Q 6.78125 9.90625 6.78125 20.515625 
Q 6.78125 27.484375 10.78125 32.3125 
Q 14.796875 37.15625 21.921875 38.8125 
z
M 18.3125 54.390625 
Q 18.3125 48.734375 21.84375 45.5625 
Q 25.390625 42.390625 31.78125 42.390625 
Q 38.140625 42.390625 41.71875 45.5625 
Q 45.3125 48.734375 45.3125 54.390625 
Q 45.3125 60.0625 41.71875 63.234375 
Q 38.140625 66.40625 31.78125 66.40625 
Q 25.390625 66.40625 21.84375 63.234375 
Q 18.3125 60.0625 18.3125 54.390625 
z
" id="DejaVuSans-56"/>
      </defs>
      <use xlink:href="#DejaVuSans-67"/>
      <use x="69.824219" xlink:href="#DejaVuSans-72"/>
      <use x="145.019531" xlink:href="#DejaVuSans-68"/>
      <use x="222.021484" xlink:href="#DejaVuSans-56"/>
     </g>
    </g>
   </g>
   <g id="text_9">
    <g clip-path="url(#p04f599a361)">
     <!-- NLK -->
     <g transform="translate(509.196806 311.540021)scale(0.12 -0.12)">
      <use xlink:href="#DejaVuSans-78"/>
      <use x="74.804688" xlink:href="#DejaVuSans-76"/>
      <use x="130.517578" xlink:href="#DejaVuSans-75"/>
     </g>
    </g>
   </g>
   <g id="text_10">
    <g clip-path="url(#p04f599a361)">
     <!-- MAP3K7 -->
     <g transform="translate(616.313533 317.630183)scale(0.12 -0.12)">
      <defs>
       <path d="M 8.203125 72.90625 
L 55.078125 72.90625 
L 55.078125 68.703125 
L 28.609375 0 
L 18.3125 0 
L 43.21875 64.59375 
L 8.203125 64.59375 
z
" id="DejaVuSans-55"/>
      </defs>
      <use xlink:href="#DejaVuSans-77"/>
      <use x="86.279297" xlink:href="#DejaVuSans-65"/>
      <use x="154.6875" xlink:href="#DejaVuSans-80"/>
      <use x="214.990234" xlink:href="#DejaVuSans-51"/>
      <use x="278.613281" xlink:href="#DejaVuSans-75"/>
      <use x="344.189453" xlink:href="#DejaVuSans-55"/>
     </g>
    </g>
   </g>
   <g id="text_11">
    <g clip-path="url(#p04f599a361)">
     <!-- RBX1 -->
     <g transform="translate(430.542356 110.918523)scale(0.12 -0.12)">
      <defs>
       <path d="M 6.296875 72.90625 
L 16.890625 72.90625 
L 35.015625 45.796875 
L 53.21875 72.90625 
L 63.8125 72.90625 
L 40.375 37.890625 
L 65.375 0 
L 54.78125 0 
L 34.28125 31 
L 13.625 0 
L 2.984375 0 
L 29 38.921875 
z
" id="DejaVuSans-88"/>
      </defs>
      <use xlink:href="#DejaVuSans-82"/>
      <use x="69.482422" xlink:href="#DejaVuSans-66"/>
      <use x="138.085938" xlink:href="#DejaVuSans-88"/>
      <use x="206.591797" xlink:href="#DejaVuSans-49"/>
     </g>
    </g>
   </g>
   <g id="text_12">
    <g clip-path="url(#p04f599a361)">
     <!-- CUL1 -->
     <g transform="translate(505.761459 123.343077)scale(0.12 -0.12)">
      <use xlink:href="#DejaVuSans-67"/>
      <use x="69.824219" xlink:href="#DejaVuSans-85"/>
      <use x="143.017578" xlink:href="#DejaVuSans-76"/>
      <use x="198.730469" xlink:href="#DejaVuSans-49"/>
     </g>
    </g>
   </g>
   <g id="text_13">
    <g clip-path="url(#p04f599a361)">
     <!-- SKP1 -->
     <g transform="translate(428.669369 167.71717)scale(0.12 -0.12)">
      <use xlink:href="#DejaVuSans-83"/>
      <use x="63.476562" xlink:href="#DejaVuSans-75"/>
      <use x="129.052734" xlink:href="#DejaVuSans-80"/>
      <use x="189.355469" xlink:href="#DejaVuSans-49"/>
     </g>
    </g>
   </g>
   <g id="text_14">
    <g clip-path="url(#p04f599a361)">
     <!-- CACYBP -->
     <g transform="translate(285.837514 145.218325)scale(0.12 -0.12)">
      <use xlink:href="#DejaVuSans-67"/>
      <use x="69.824219" xlink:href="#DejaVuSans-65"/>
      <use x="136.482422" xlink:href="#DejaVuSans-67"/>
      <use x="204.556641" xlink:href="#DejaVuSans-89"/>
      <use x="265.640625" xlink:href="#DejaVuSans-66"/>
      <use x="334.244141" xlink:href="#DejaVuSans-80"/>
     </g>
    </g>
   </g>
   <g id="text_15">
    <g clip-path="url(#p04f599a361)">
     <!-- APC -->
     <g transform="translate(352.497176 263.714631)scale(0.12 -0.12)">
      <use xlink:href="#DejaVuSans-65"/>
      <use x="68.408203" xlink:href="#DejaVuSans-80"/>
      <use x="128.710938" xlink:href="#DejaVuSans-67"/>
     </g>
    </g>
   </g>
   <g id="text_16">
    <g clip-path="url(#p04f599a361)">
     <!-- SIAH1 -->
     <g transform="translate(290.662954 244.730889)scale(0.12 -0.12)">
      <defs>
       <path d="M 9.8125 72.90625 
L 19.671875 72.90625 
L 19.671875 0 
L 9.8125 0 
z
" id="DejaVuSans-73"/>
      </defs>
      <use xlink:href="#DejaVuSans-83"/>
      <use x="63.476562" xlink:href="#DejaVuSans-73"/>
      <use x="92.96875" xlink:href="#DejaVuSans-65"/>
      <use x="161.376953" xlink:href="#DejaVuSans-72"/>
      <use x="236.572266" xlink:href="#DejaVuSans-49"/>
     </g>
    </g>
   </g>
   <g id="text_17">
    <g clip-path="url(#p04f599a361)">
     <!-- TP53 -->
     <g transform="translate(210.920518 333.444013)scale(0.12 -0.12)">
      <defs>
       <path d="M -0.296875 72.90625 
L 61.375 72.90625 
L 61.375 64.59375 
L 35.5 64.59375 
L 35.5 0 
L 25.59375 0 
L 25.59375 64.59375 
L -0.296875 64.59375 
z
" id="DejaVuSans-84"/>
       <path d="M 10.796875 72.90625 
L 49.515625 72.90625 
L 49.515625 64.59375 
L 19.828125 64.59375 
L 19.828125 46.734375 
Q 21.96875 47.46875 24.109375 47.828125 
Q 26.265625 48.1875 28.421875 48.1875 
Q 40.625 48.1875 47.75 41.5 
Q 54.890625 34.8125 54.890625 23.390625 
Q 54.890625 11.625 47.5625 5.09375 
Q 40.234375 -1.421875 26.90625 -1.421875 
Q 22.3125 -1.421875 17.546875 -0.640625 
Q 12.796875 0.140625 7.71875 1.703125 
L 7.71875 11.625 
Q 12.109375 9.234375 16.796875 8.0625 
Q 21.484375 6.890625 26.703125 6.890625 
Q 35.15625 6.890625 40.078125 11.328125 
Q 45.015625 15.765625 45.015625 23.390625 
Q 45.015625 31 40.078125 35.4375 
Q 35.15625 39.890625 26.703125 39.890625 
Q 22.75 39.890625 18.8125 39.015625 
Q 14.890625 38.140625 10.796875 36.28125 
z
" id="DejaVuSans-53"/>
      </defs>
      <use xlink:href="#DejaVuSans-84"/>
      <use x="61.083984" xlink:href="#DejaVuSans-80"/>
      <use x="121.386719" xlink:href="#DejaVuSans-53"/>
      <use x="185.009766" xlink:href="#DejaVuSans-51"/>
     </g>
    </g>
   </g>
   <g id="text_18">
    <g clip-path="url(#p04f599a361)">
     <!-- CTNNB1 -->
     <g transform="translate(366.579037 349.157018)scale(0.12 -0.12)">
      <use xlink:href="#DejaVuSans-67"/>
      <use x="69.824219" xlink:href="#DejaVuSans-84"/>
      <use x="130.908203" xlink:href="#DejaVuSans-78"/>
      <use x="205.712891" xlink:href="#DejaVuSans-78"/>
      <use x="280.517578" xlink:href="#DejaVuSans-66"/>
      <use x="349.121094" xlink:href="#DejaVuSans-49"/>
     </g>
    </g>
   </g>
   <g id="text_19">
    <g clip-path="url(#p04f599a361)">
     <!-- PSEN1 -->
     <g transform="translate(301.66916 418.420502)scale(0.12 -0.12)">
      <use xlink:href="#DejaVuSans-80"/>
      <use x="60.302734" xlink:href="#DejaVuSans-83"/>
      <use x="123.779297" xlink:href="#DejaVuSans-69"/>
      <use x="186.962891" xlink:href="#DejaVuSans-78"/>
      <use x="261.767578" xlink:href="#DejaVuSans-49"/>
     </g>
    </g>
   </g>
   <g id="text_20">
    <g clip-path="url(#p04f599a361)">
     <!-- GSK3B -->
     <g transform="translate(448.51415 214.719248)scale(0.12 -0.12)">
      <defs>
       <path d="M 59.515625 10.40625 
L 59.515625 29.984375 
L 43.40625 29.984375 
L 43.40625 38.09375 
L 69.28125 38.09375 
L 69.28125 6.78125 
Q 63.578125 2.734375 56.6875 0.65625 
Q 49.8125 -1.421875 42 -1.421875 
Q 24.90625 -1.421875 15.25 8.5625 
Q 5.609375 18.5625 5.609375 36.375 
Q 5.609375 54.25 15.25 64.234375 
Q 24.90625 74.21875 42 74.21875 
Q 49.125 74.21875 55.546875 72.453125 
Q 61.96875 70.703125 67.390625 67.28125 
L 67.390625 56.78125 
Q 61.921875 61.421875 55.765625 63.765625 
Q 49.609375 66.109375 42.828125 66.109375 
Q 29.4375 66.109375 22.71875 58.640625 
Q 16.015625 51.171875 16.015625 36.375 
Q 16.015625 21.625 22.71875 14.15625 
Q 29.4375 6.6875 42.828125 6.6875 
Q 48.046875 6.6875 52.140625 7.59375 
Q 56.25 8.5 59.515625 10.40625 
z
" id="DejaVuSans-71"/>
      </defs>
      <use xlink:href="#DejaVuSans-71"/>
      <use x="77.490234" xlink:href="#DejaVuSans-83"/>
      <use x="140.966797" xlink:href="#DejaVuSans-75"/>
      <use x="206.542969" xlink:href="#DejaVuSans-51"/>
      <use x="270.166016" xlink:href="#DejaVuSans-66"/>
     </g>
    </g>
   </g>
   <g id="text_21">
    <g clip-path="url(#p04f599a361)">
     <!-- CSNK1E -->
     <g transform="translate(311.158308 150.6691)scale(0.12 -0.12)">
      <use xlink:href="#DejaVuSans-67"/>
      <use x="69.824219" xlink:href="#DejaVuSans-83"/>
      <use x="133.300781" xlink:href="#DejaVuSans-78"/>
      <use x="208.105469" xlink:href="#DejaVuSans-75"/>
      <use x="273.681641" xlink:href="#DejaVuSans-49"/>
      <use x="337.304688" xlink:href="#DejaVuSans-69"/>
     </g>
    </g>
   </g>
   <g id="text_22">
    <g clip-path="url(#p04f599a361)">
     <!-- RYK -->
     <g transform="translate(169.767431 208.60759)scale(0.12 -0.12)">
      <use xlink:href="#DejaVuSans-82"/>
      <use x="63.107422" xlink:href="#DejaVuSans-89"/>
      <use x="124.191406" xlink:href="#DejaVuSans-75"/>
     </g>
    </g>
   </g>
   <g id="text_23">
    <g clip-path="url(#p04f599a361)">
     <!-- RNF43 -->
     <g transform="translate(419.85187 346.944893)scale(0.12 -0.12)">
      <defs>
       <path d="M 9.8125 72.90625 
L 51.703125 72.90625 
L 51.703125 64.59375 
L 19.671875 64.59375 
L 19.671875 43.109375 
L 48.578125 43.109375 
L 48.578125 34.8125 
L 19.671875 34.8125 
L 19.671875 0 
L 9.8125 0 
z
" id="DejaVuSans-70"/>
      </defs>
      <use xlink:href="#DejaVuSans-82"/>
      <use x="69.482422" xlink:href="#DejaVuSans-78"/>
      <use x="144.287109" xlink:href="#DejaVuSans-70"/>
      <use x="201.806641" xlink:href="#DejaVuSans-52"/>
      <use x="265.429688" xlink:href="#DejaVuSans-51"/>
     </g>
    </g>
   </g>
   <g id="text_24">
    <g clip-path="url(#p04f599a361)">
     <!-- LZTS2 -->
     <g transform="translate(421.270233 424.578881)scale(0.12 -0.12)">
      <defs>
       <path d="M 5.609375 72.90625 
L 62.890625 72.90625 
L 62.890625 65.375 
L 16.796875 8.296875 
L 64.015625 8.296875 
L 64.015625 0 
L 4.5 0 
L 4.5 7.515625 
L 50.59375 64.59375 
L 5.609375 64.59375 
z
" id="DejaVuSans-90"/>
      </defs>
      <use xlink:href="#DejaVuSans-76"/>
      <use x="55.712891" xlink:href="#DejaVuSans-90"/>
      <use x="124.21875" xlink:href="#DejaVuSans-84"/>
      <use x="185.302734" xlink:href="#DejaVuSans-83"/>
      <use x="248.779297" xlink:href="#DejaVuSans-50"/>
     </g>
    </g>
   </g>
   <g id="text_25">
    <g clip-path="url(#p04f599a361)">
     <!-- SIRT1 -->
     <g transform="translate(414.900332 277.822078)scale(0.12 -0.12)">
      <use xlink:href="#DejaVuSans-83"/>
      <use x="63.476562" xlink:href="#DejaVuSans-73"/>
      <use x="92.96875" xlink:href="#DejaVuSans-82"/>
      <use x="155.201172" xlink:href="#DejaVuSans-84"/>
      <use x="216.285156" xlink:href="#DejaVuSans-49"/>
     </g>
    </g>
   </g>
   <g id="text_26">
    <g clip-path="url(#p04f599a361)">
     <!-- CCAR2 -->
     <g transform="translate(506.630481 211.501901)scale(0.12 -0.12)">
      <use xlink:href="#DejaVuSans-67"/>
      <use x="69.824219" xlink:href="#DejaVuSans-67"/>
      <use x="139.648438" xlink:href="#DejaVuSans-65"/>
      <use x="208.056641" xlink:href="#DejaVuSans-82"/>
      <use x="277.539062" xlink:href="#DejaVuSans-50"/>
     </g>
    </g>
   </g>
   <g id="text_27">
    <g clip-path="url(#p04f599a361)">
     <!-- FZD3 -->
     <g transform="translate(254.156244 294.642957)scale(0.12 -0.12)">
      <use xlink:href="#DejaVuSans-70"/>
      <use x="57.519531" xlink:href="#DejaVuSans-90"/>
      <use x="126.025391" xlink:href="#DejaVuSans-68"/>
      <use x="203.027344" xlink:href="#DejaVuSans-51"/>
     </g>
    </g>
   </g>
   <g id="text_28">
    <g clip-path="url(#p04f599a361)">
     <!-- CCND1 -->
     <g transform="translate(144.80016 328.303158)scale(0.12 -0.12)">
      <use xlink:href="#DejaVuSans-67"/>
      <use x="69.824219" xlink:href="#DejaVuSans-67"/>
      <use x="139.648438" xlink:href="#DejaVuSans-78"/>
      <use x="214.453125" xlink:href="#DejaVuSans-68"/>
      <use x="291.455078" xlink:href="#DejaVuSans-49"/>
     </g>
    </g>
   </g>
   <g id="text_29">
    <g clip-path="url(#p04f599a361)">
     <!-- CCND2 -->
     <g transform="translate(698.18859 228.252719)scale(0.12 -0.12)">
      <use xlink:href="#DejaVuSans-67"/>
      <use x="69.824219" xlink:href="#DejaVuSans-67"/>
      <use x="139.648438" xlink:href="#DejaVuSans-78"/>
      <use x="214.453125" xlink:href="#DejaVuSans-68"/>
      <use x="291.455078" xlink:href="#DejaVuSans-50"/>
     </g>
    </g>
   </g>
   <g id="text_30">
    <g clip-path="url(#p04f599a361)">
     <!-- CCND3 -->
     <g transform="translate(330.255729 477.463977)scale(0.12 -0.12)">
      <use xlink:href="#DejaVuSans-67"/>
      <use x="69.824219" xlink:href="#DejaVuSans-67"/>
      <use x="139.648438" xlink:href="#DejaVuSans-78"/>
      <use x="214.453125" xlink:href="#DejaVuSans-68"/>
      <use x="291.455078" xlink:href="#DejaVuSans-51"/>
     </g>
    </g>
   </g>
   <g id="text_31">
    <g clip-path="url(#p04f599a361)">
     <!-- TCF7 -->
     <g transform="translate(434.495259 321.535137)scale(0.12 -0.12)">
      <use xlink:href="#DejaVuSans-84"/>
      <use x="55.208984" xlink:href="#DejaVuSans-67"/>
      <use x="125.033203" xlink:href="#DejaVuSans-70"/>
      <use x="182.552734" xlink:href="#DejaVuSans-55"/>
     </g>
    </g>
   </g>
   <g id="text_32">
    <g clip-path="url(#p04f599a361)">
     <!-- TCF7L2 -->
     <g transform="translate(430.652011 312.909176)scale(0.12 -0.12)">
      <use xlink:href="#DejaVuSans-84"/>
      <use x="55.208984" xlink:href="#DejaVuSans-67"/>
      <use x="125.033203" xlink:href="#DejaVuSans-70"/>
      <use x="182.552734" xlink:href="#DejaVuSans-55"/>
      <use x="246.175781" xlink:href="#DejaVuSans-76"/>
      <use x="301.888672" xlink:href="#DejaVuSans-50"/>
     </g>
    </g>
   </g>
   <g id="text_33">
    <g clip-path="url(#p04f599a361)">
     <!-- LEF1 -->
     <g transform="translate(422.89394 315.767232)scale(0.12 -0.12)">
      <use xlink:href="#DejaVuSans-76"/>
      <use x="55.712891" xlink:href="#DejaVuSans-69"/>
      <use x="118.896484" xlink:href="#DejaVuSans-70"/>
      <use x="176.416016" xlink:href="#DejaVuSans-49"/>
     </g>
    </g>
   </g>
   <g id="text_34">
    <g clip-path="url(#p04f599a361)">
     <!-- AXIN1 -->
     <g transform="translate(349.218103 236.641736)scale(0.12 -0.12)">
      <use xlink:href="#DejaVuSans-65"/>
      <use x="68.408203" xlink:href="#DejaVuSans-88"/>
      <use x="136.914062" xlink:href="#DejaVuSans-73"/>
      <use x="166.40625" xlink:href="#DejaVuSans-78"/>
      <use x="241.210938" xlink:href="#DejaVuSans-49"/>
     </g>
    </g>
   </g>
   <g id="text_35">
    <g clip-path="url(#p04f599a361)">
     <!-- AXIN2 -->
     <g transform="translate(374.251783 237.534807)scale(0.12 -0.12)">
      <use xlink:href="#DejaVuSans-65"/>
      <use x="68.408203" xlink:href="#DejaVuSans-88"/>
      <use x="136.914062" xlink:href="#DejaVuSans-73"/>
      <use x="166.40625" xlink:href="#DejaVuSans-78"/>
      <use x="241.210938" xlink:href="#DejaVuSans-50"/>
     </g>
    </g>
   </g>
   <g id="text_36">
    <g clip-path="url(#p04f599a361)">
     <!-- FRAT1 -->
     <g transform="translate(293.265885 128.872573)scale(0.12 -0.12)">
      <use xlink:href="#DejaVuSans-70"/>
      <use x="57.519531" xlink:href="#DejaVuSans-82"/>
      <use x="123.001953" xlink:href="#DejaVuSans-65"/>
      <use x="183.660156" xlink:href="#DejaVuSans-84"/>
      <use x="244.744141" xlink:href="#DejaVuSans-49"/>
     </g>
    </g>
   </g>
   <g id="text_37">
    <g clip-path="url(#p04f599a361)">
     <!-- FRAT2 -->
     <g transform="translate(655.292744 183.262012)scale(0.12 -0.12)">
      <use xlink:href="#DejaVuSans-70"/>
      <use x="57.519531" xlink:href="#DejaVuSans-82"/>
      <use x="123.001953" xlink:href="#DejaVuSans-65"/>
      <use x="183.660156" xlink:href="#DejaVuSans-84"/>
      <use x="244.744141" xlink:href="#DejaVuSans-50"/>
     </g>
    </g>
   </g>
   <g id="text_38">
    <!-- Frame: 11 -->
    <g transform="translate(121.392 91.296)scale(0.1 -0.1)">
     <defs>
      <path d="M 41.109375 46.296875 
Q 39.59375 47.171875 37.8125 47.578125 
Q 36.03125 48 33.890625 48 
Q 26.265625 48 22.1875 43.046875 
Q 18.109375 38.09375 18.109375 28.8125 
L 18.109375 0 
L 9.078125 0 
L 9.078125 54.6875 
L 18.109375 54.6875 
L 18.109375 46.1875 
Q 20.953125 51.171875 25.484375 53.578125 
Q 30.03125 56 36.53125 56 
Q 37.453125 56 38.578125 55.875 
Q 39.703125 55.765625 41.0625 55.515625 
z
" id="DejaVuSans-114"/>
      <path d="M 34.28125 27.484375 
Q 23.390625 27.484375 19.1875 25 
Q 14.984375 22.515625 14.984375 16.5 
Q 14.984375 11.71875 18.140625 8.90625 
Q 21.296875 6.109375 26.703125 6.109375 
Q 34.1875 6.109375 38.703125 11.40625 
Q 43.21875 16.703125 43.21875 25.484375 
L 43.21875 27.484375 
z
M 52.203125 31.203125 
L 52.203125 0 
L 43.21875 0 
L 43.21875 8.296875 
Q 40.140625 3.328125 35.546875 0.953125 
Q 30.953125 -1.421875 24.3125 -1.421875 
Q 15.921875 -1.421875 10.953125 3.296875 
Q 6 8.015625 6 15.921875 
Q 6 25.140625 12.171875 29.828125 
Q 18.359375 34.515625 30.609375 34.515625 
L 43.21875 34.515625 
L 43.21875 35.40625 
Q 43.21875 41.609375 39.140625 45 
Q 35.0625 48.390625 27.6875 48.390625 
Q 23 48.390625 18.546875 47.265625 
Q 14.109375 46.140625 10.015625 43.890625 
L 10.015625 52.203125 
Q 14.9375 54.109375 19.578125 55.046875 
Q 24.21875 56 28.609375 56 
Q 40.484375 56 46.34375 49.84375 
Q 52.203125 43.703125 52.203125 31.203125 
z
" id="DejaVuSans-97"/>
      <path d="M 52 44.1875 
Q 55.375 50.25 60.0625 53.125 
Q 64.75 56 71.09375 56 
Q 79.640625 56 84.28125 50.015625 
Q 88.921875 44.046875 88.921875 33.015625 
L 88.921875 0 
L 79.890625 0 
L 79.890625 32.71875 
Q 79.890625 40.578125 77.09375 44.375 
Q 74.3125 48.1875 68.609375 48.1875 
Q 61.625 48.1875 57.5625 43.546875 
Q 53.515625 38.921875 53.515625 30.90625 
L 53.515625 0 
L 44.484375 0 
L 44.484375 32.71875 
Q 44.484375 40.625 41.703125 44.40625 
Q 38.921875 48.1875 33.109375 48.1875 
Q 26.21875 48.1875 22.15625 43.53125 
Q 18.109375 38.875 18.109375 30.90625 
L 18.109375 0 
L 9.078125 0 
L 9.078125 54.6875 
L 18.109375 54.6875 
L 18.109375 46.1875 
Q 21.1875 51.21875 25.484375 53.609375 
Q 29.78125 56 35.6875 56 
Q 41.65625 56 45.828125 52.96875 
Q 50 49.953125 52 44.1875 
z
" id="DejaVuSans-109"/>
      <path d="M 56.203125 29.59375 
L 56.203125 25.203125 
L 14.890625 25.203125 
Q 15.484375 15.921875 20.484375 11.0625 
Q 25.484375 6.203125 34.421875 6.203125 
Q 39.59375 6.203125 44.453125 7.46875 
Q 49.3125 8.734375 54.109375 11.28125 
L 54.109375 2.78125 
Q 49.265625 0.734375 44.1875 -0.34375 
Q 39.109375 -1.421875 33.890625 -1.421875 
Q 20.796875 -1.421875 13.15625 6.1875 
Q 5.515625 13.8125 5.515625 26.8125 
Q 5.515625 40.234375 12.765625 48.109375 
Q 20.015625 56 32.328125 56 
Q 43.359375 56 49.78125 48.890625 
Q 56.203125 41.796875 56.203125 29.59375 
z
M 47.21875 32.234375 
Q 47.125 39.59375 43.09375 43.984375 
Q 39.0625 48.390625 32.421875 48.390625 
Q 24.90625 48.390625 20.390625 44.140625 
Q 15.875 39.890625 15.1875 32.171875 
z
" id="DejaVuSans-101"/>
      <path d="M 11.71875 12.40625 
L 22.015625 12.40625 
L 22.015625 0 
L 11.71875 0 
z
M 11.71875 51.703125 
L 22.015625 51.703125 
L 22.015625 39.3125 
L 11.71875 39.3125 
z
" id="DejaVuSans-58"/>
      <path id="DejaVuSans-32"/>
     </defs>
     <use xlink:href="#DejaVuSans-70"/>
     <use x="50.269531" xlink:href="#DejaVuSans-114"/>
     <use x="91.382812" xlink:href="#DejaVuSans-97"/>
     <use x="152.662109" xlink:href="#DejaVuSans-109"/>
     <use x="250.074219" xlink:href="#DejaVuSans-101"/>
     <use x="311.597656" xlink:href="#DejaVuSans-58"/>
     <use x="345.289062" xlink:href="#DejaVuSans-32"/>
     <use x="377.076172" xlink:href="#DejaVuSans-49"/>
     <use x="440.699219" xlink:href="#DejaVuSans-49"/>
    </g>
   </g>
   <g id="text_39">
    <!-- Network: hsa04310 -->
    <g transform="translate(384.1275 63.12)scale(0.12 -0.12)">
     <defs>
      <path d="M 18.3125 70.21875 
L 18.3125 54.6875 
L 36.8125 54.6875 
L 36.8125 47.703125 
L 18.3125 47.703125 
L 18.3125 18.015625 
Q 18.3125 11.328125 20.140625 9.421875 
Q 21.96875 7.515625 27.59375 7.515625 
L 36.8125 7.515625 
L 36.8125 0 
L 27.59375 0 
Q 17.1875 0 13.234375 3.875 
Q 9.28125 7.765625 9.28125 18.015625 
L 9.28125 47.703125 
L 2.6875 47.703125 
L 2.6875 54.6875 
L 9.28125 54.6875 
L 9.28125 70.21875 
z
" id="DejaVuSans-116"/>
      <path d="M 4.203125 54.6875 
L 13.1875 54.6875 
L 24.421875 12.015625 
L 35.59375 54.6875 
L 46.1875 54.6875 
L 57.421875 12.015625 
L 68.609375 54.6875 
L 77.59375 54.6875 
L 63.28125 0 
L 52.6875 0 
L 40.921875 44.828125 
L 29.109375 0 
L 18.5 0 
z
" id="DejaVuSans-119"/>
      <path d="M 30.609375 48.390625 
Q 23.390625 48.390625 19.1875 42.75 
Q 14.984375 37.109375 14.984375 27.296875 
Q 14.984375 17.484375 19.15625 11.84375 
Q 23.34375 6.203125 30.609375 6.203125 
Q 37.796875 6.203125 41.984375 11.859375 
Q 46.1875 17.53125 46.1875 27.296875 
Q 46.1875 37.015625 41.984375 42.703125 
Q 37.796875 48.390625 30.609375 48.390625 
z
M 30.609375 56 
Q 42.328125 56 49.015625 48.375 
Q 55.71875 40.765625 55.71875 27.296875 
Q 55.71875 13.875 49.015625 6.21875 
Q 42.328125 -1.421875 30.609375 -1.421875 
Q 18.84375 -1.421875 12.171875 6.21875 
Q 5.515625 13.875 5.515625 27.296875 
Q 5.515625 40.765625 12.171875 48.375 
Q 18.84375 56 30.609375 56 
z
" id="DejaVuSans-111"/>
      <path d="M 9.078125 75.984375 
L 18.109375 75.984375 
L 18.109375 31.109375 
L 44.921875 54.6875 
L 56.390625 54.6875 
L 27.390625 29.109375 
L 57.625 0 
L 45.90625 0 
L 18.109375 26.703125 
L 18.109375 0 
L 9.078125 0 
z
" id="DejaVuSans-107"/>
      <path d="M 54.890625 33.015625 
L 54.890625 0 
L 45.90625 0 
L 45.90625 32.71875 
Q 45.90625 40.484375 42.875 44.328125 
Q 39.84375 48.1875 33.796875 48.1875 
Q 26.515625 48.1875 22.3125 43.546875 
Q 18.109375 38.921875 18.109375 30.90625 
L 18.109375 0 
L 9.078125 0 
L 9.078125 75.984375 
L 18.109375 75.984375 
L 18.109375 46.1875 
Q 21.34375 51.125 25.703125 53.5625 
Q 30.078125 56 35.796875 56 
Q 45.21875 56 50.046875 50.171875 
Q 54.890625 44.34375 54.890625 33.015625 
z
" id="DejaVuSans-104"/>
      <path d="M 44.28125 53.078125 
L 44.28125 44.578125 
Q 40.484375 46.53125 36.375 47.5 
Q 32.28125 48.484375 27.875 48.484375 
Q 21.1875 48.484375 17.84375 46.4375 
Q 14.5 44.390625 14.5 40.28125 
Q 14.5 37.15625 16.890625 35.375 
Q 19.28125 33.59375 26.515625 31.984375 
L 29.59375 31.296875 
Q 39.15625 29.25 43.1875 25.515625 
Q 47.21875 21.78125 47.21875 15.09375 
Q 47.21875 7.46875 41.1875 3.015625 
Q 35.15625 -1.421875 24.609375 -1.421875 
Q 20.21875 -1.421875 15.453125 -0.5625 
Q 10.6875 0.296875 5.421875 2 
L 5.421875 11.28125 
Q 10.40625 8.6875 15.234375 7.390625 
Q 20.0625 6.109375 24.8125 6.109375 
Q 31.15625 6.109375 34.5625 8.28125 
Q 37.984375 10.453125 37.984375 14.40625 
Q 37.984375 18.0625 35.515625 20.015625 
Q 33.0625 21.96875 24.703125 23.78125 
L 21.578125 24.515625 
Q 13.234375 26.265625 9.515625 29.90625 
Q 5.8125 33.546875 5.8125 39.890625 
Q 5.8125 47.609375 11.28125 51.796875 
Q 16.75 56 26.8125 56 
Q 31.78125 56 36.171875 55.265625 
Q 40.578125 54.546875 44.28125 53.078125 
z
" id="DejaVuSans-115"/>
     </defs>
     <use xlink:href="#DejaVuSans-78"/>
     <use x="74.804688" xlink:href="#DejaVuSans-101"/>
     <use x="136.328125" xlink:href="#DejaVuSans-116"/>
     <use x="175.537109" xlink:href="#DejaVuSans-119"/>
     <use x="257.324219" xlink:href="#DejaVuSans-111"/>
     <use x="318.505859" xlink:href="#DejaVuSans-114"/>
     <use x="359.619141" xlink:href="#DejaVuSans-107"/>
     <use x="417.529297" xlink:href="#DejaVuSans-58"/>
     <use x="451.220703" xlink:href="#DejaVuSans-32"/>
     <use x="483.007812" xlink:href="#DejaVuSans-104"/>
     <use x="546.386719" xlink:href="#DejaVuSans-115"/>
     <use x="598.486328" xlink:href="#DejaVuSans-97"/>
     <use x="659.765625" xlink:href="#DejaVuSans-48"/>
     <use x="723.388672" xlink:href="#DejaVuSans-52"/>
     <use x="787.011719" xlink:href="#DejaVuSans-51"/>
     <use x="850.634766" xlink:href="#DejaVuSans-49"/>
     <use x="914.257812" xlink:href="#DejaVuSans-48"/>
    </g>
   </g>
  </g>
 </g>
 <defs>
  <clipPath id="p04f599a361">
   <rect height="443.52" width="669.6" x="108" y="69.12"/>
  </clipPath>
 </defs>
</svg>
