<?xml version="1.0" encoding="utf-8" standalone="no"?>
<!DOCTYPE svg PUBLIC "-//W3C//DTD SVG 1.1//EN"
  "http://www.w3.org/Graphics/SVG/1.1/DTD/svg11.dtd">
<!-- Created with matplotlib (https://matplotlib.org/) -->
<svg height="473.038125pt" version="1.1" viewBox="0 0 684 473.038125" width="684pt" xmlns="http://www.w3.org/2000/svg" xmlns:xlink="http://www.w3.org/1999/xlink">
 <metadata>
  <rdf:RDF xmlns:cc="http://creativecommons.org/ns#" xmlns:dc="http://purl.org/dc/elements/1.1/" xmlns:rdf="http://www.w3.org/1999/02/22-rdf-syntax-ns#">
   <cc:Work>
    <dc:type rdf:resource="http://purl.org/dc/dcmitype/StillImage"/>
    <dc:date>2024-05-23T13:40:35.822950</dc:date>
    <dc:format>image/svg+xml</dc:format>
    <dc:creator>
     <cc:Agent>
      <dc:title>Matplotlib v3.3.1, https://matplotlib.org/</dc:title>
     </cc:Agent>
    </dc:creator>
   </cc:Work>
  </rdf:RDF>
 </metadata>
 <defs>
  <style type="text/css">*{stroke-linecap:butt;stroke-linejoin:round;}</style>
 </defs>
 <g id="figure_1">
  <g id="patch_1">
   <path d="M 0 473.038125 
L 684 473.038125 
L 684 0 
L 0 0 
z
" style="fill:#ffffff;"/>
  </g>
  <g id="axes_1">
   <g id="patch_2">
    <path clip-path="url(#p4d7143eaa6)" d="M 487.917452 304.387895 
Q 397.305591 272.681065 307.749021 241.343501 
" style="fill:none;stroke:#808080;stroke-linecap:round;"/>
    <path clip-path="url(#p4d7143eaa6)" d="M 310.863984 244.552396 
L 307.749021 241.343501 
L 312.185114 240.776867 
L 310.863984 244.552396 
z
" style="fill:#808080;stroke:#808080;stroke-linecap:round;"/>
   </g>
   <g id="patch_3">
    <path clip-path="url(#p4d7143eaa6)" d="M 488.93699 312.131312 
Q 453.487286 336.332655 418.960955 359.903616 
" style="fill:none;stroke:#808080;stroke-linecap:round;"/>
    <path clip-path="url(#p4d7143eaa6)" d="M 423.392178 359.300071 
L 418.960955 359.903616 
L 421.136853 355.996511 
L 423.392178 359.300071 
z
" style="fill:#808080;stroke:#808080;stroke-linecap:round;"/>
   </g>
   <g id="patch_4">
    <path clip-path="url(#p4d7143eaa6)" d="M 306.800502 240.656033 
Q 450.225701 284.686173 592.582096 328.388201 
" style="fill:none;stroke:#808080;stroke-linecap:round;"/>
    <path clip-path="url(#p4d7143eaa6)" d="M 589.345172 325.302376 
L 592.582096 328.388201 
L 588.171281 329.126245 
L 589.345172 325.302376 
z
" style="fill:#808080;stroke:#808080;stroke-linecap:round;"/>
   </g>
   <g id="patch_5">
    <path clip-path="url(#p4d7143eaa6)" d="M 301.827683 246.114713 
Q 337.657425 332.732568 373.059808 418.317289 
" style="fill:none;stroke:#808080;stroke-linecap:round;"/>
    <path clip-path="url(#p4d7143eaa6)" d="M 373.378968 413.856557 
L 373.059808 418.317289 
L 369.682718 415.385522 
L 373.378968 413.856557 
z
" style="fill:#808080;stroke:#808080;stroke-linecap:round;"/>
   </g>
   <g id="patch_6">
    <path clip-path="url(#p4d7143eaa6)" d="M 358.575332 61.499857 
Q 385.918552 63.700537 412.147342 65.811523 
" style="fill:none;stroke:#808080;stroke-linecap:round;"/>
    <path clip-path="url(#p4d7143eaa6)" d="M 408.320682 63.497072 
L 412.147342 65.811523 
L 407.999786 67.48418 
L 408.320682 63.497072 
z
" style="fill:#808080;stroke:#808080;stroke-linecap:round;"/>
   </g>
   <g id="patch_7">
    <path clip-path="url(#p4d7143eaa6)" d="M 358.300942 63.099753 
Q 465.115577 92.434782 570.852096 121.473724 
" style="fill:none;stroke:#808080;stroke-linecap:round;"/>
    <path clip-path="url(#p4d7143eaa6)" d="M 567.524573 118.485817 
L 570.852096 121.473724 
L 566.465256 122.342998 
L 567.524573 118.485817 
z
" style="fill:#808080;stroke:#808080;stroke-linecap:round;"/>
   </g>
   <g id="patch_8">
    <path clip-path="url(#p4d7143eaa6)" d="M 341.676957 63.369278 
Q 279.633451 82.604621 218.657835 101.508886 
" style="fill:none;stroke:#808080;stroke-linecap:round;"/>
    <path clip-path="url(#p4d7143eaa6)" d="M 223.070681 102.234685 
L 218.657835 101.508886 
L 221.886182 98.414088 
L 223.070681 102.234685 
z
" style="fill:#808080;stroke:#808080;stroke-linecap:round;"/>
   </g>
   <g id="patch_9">
    <path clip-path="url(#p4d7143eaa6)" d="M 341.652838 63.294462 
Q 248.726098 91.182495 156.870209 118.749158 
" style="fill:none;stroke:#808080;stroke-linecap:round;"/>
    <path clip-path="url(#p4d7143eaa6)" d="M 161.276285 119.514983 
L 156.870209 118.749158 
L 160.126515 115.683792 
L 161.276285 119.514983 
z
" style="fill:#808080;stroke:#808080;stroke-linecap:round;"/>
   </g>
   <g id="patch_10">
    <path clip-path="url(#p4d7143eaa6)" d="M 240.919836 248.584194 
Q 387.720949 315.017743 533.503474 380.990339 
" style="fill:none;stroke:#808080;stroke-linecap:round;"/>
    <path clip-path="url(#p4d7143eaa6)" d="M 530.683839 377.519077 
L 533.503474 380.990339 
L 529.034683 381.163289 
L 530.683839 377.519077 
z
" style="fill:#808080;stroke:#808080;stroke-linecap:round;"/>
   </g>
   <g id="patch_11">
    <path clip-path="url(#p4d7143eaa6)" d="M 225.342264 249.00278 
Q 156.727748 284.615043 89.105568 319.712264 
" style="fill:none;stroke:#808080;stroke-linecap:round;"/>
    <path clip-path="url(#p4d7143eaa6)" d="M 93.577194 319.64474 
L 89.105568 319.712264 
L 91.734525 316.094448 
L 93.577194 319.64474 
z
" style="fill:#808080;stroke:#808080;stroke-linecap:round;"/>
   </g>
   <g id="patch_12">
    <path clip-path="url(#p4d7143eaa6)" d="M 235.113346 236.606741 
Q 254.460536 158.578399 273.538656 81.63523 
" style="fill:none;stroke:#808080;stroke-linecap:round;"/>
    <path clip-path="url(#p4d7143eaa6)" d="M 270.634786 85.036339 
L 273.538656 81.63523 
L 274.51722 85.998991 
L 270.634786 85.036339 
z
" style="fill:#808080;stroke:#808080;stroke-linecap:round;"/>
   </g>
   <g id="patch_13">
    <path clip-path="url(#p4d7143eaa6)" d="M 231.588488 236.469714 
Q 221.175095 174.706679 210.947581 114.046117 
" style="fill:none;stroke:#808080;stroke-linecap:round;"/>
    <path clip-path="url(#p4d7143eaa6)" d="M 209.640439 118.322959 
L 210.947581 114.046117 
L 213.58477 117.657936 
L 209.640439 118.322959 
z
" style="fill:#808080;stroke:#808080;stroke-linecap:round;"/>
   </g>
   <g id="patch_14">
    <path clip-path="url(#p4d7143eaa6)" d="M 224.484574 243.608799 
Q 155.813411 232.321285 88.245477 221.21511 
" style="fill:none;stroke:#808080;stroke-linecap:round;"/>
    <path clip-path="url(#p4d7143eaa6)" d="M 91.868125 223.837404 
L 88.245477 221.21511 
L 92.516901 219.890368 
L 91.868125 223.837404 
z
" style="fill:#808080;stroke:#808080;stroke-linecap:round;"/>
   </g>
   <g id="patch_15">
    <path clip-path="url(#p4d7143eaa6)" d="M 422.250003 75.248686 
Q 425.352437 150.06427 428.408549 223.76278 
" style="fill:none;stroke:#808080;stroke-linecap:round;"/>
    <path clip-path="url(#p4d7143eaa6)" d="M 430.241103 219.68335 
L 428.408549 223.76278 
L 426.244537 219.849079 
L 430.241103 219.68335 
z
" style="fill:#808080;stroke:#808080;stroke-linecap:round;"/>
   </g>
   <g id="patch_16">
    <path clip-path="url(#p4d7143eaa6)" d="M 537.219095 378.094967 
Q 485.614178 309.277348 434.680012 241.354208 
" style="fill:none;stroke:#808080;stroke-linecap:round;"/>
    <path clip-path="url(#p4d7143eaa6)" d="M 435.479672 245.75427 
L 434.680012 241.354208 
L 438.679858 243.354517 
L 435.479672 245.75427 
z
" style="fill:#808080;stroke:#808080;stroke-linecap:round;"/>
   </g>
   <g id="patch_17">
    <path clip-path="url(#p4d7143eaa6)" d="M 433.858432 226.491392 
Q 473.612757 171.01688 512.715832 116.451145 
" style="fill:none;stroke:#808080;stroke-linecap:round;"/>
    <path clip-path="url(#p4d7143eaa6)" d="M 508.760182 118.537489 
L 512.715832 116.451145 
L 512.011517 120.867471 
L 508.760182 118.537489 
z
" style="fill:#808080;stroke:#808080;stroke-linecap:round;"/>
   </g>
   <g id="patch_18">
    <path clip-path="url(#p4d7143eaa6)" d="M 421.408803 229.037609 
Q 333.772822 175.857233 247.092654 123.256875 
" style="fill:none;stroke:#808080;stroke-linecap:round;"/>
    <path clip-path="url(#p4d7143eaa6)" d="M 249.474706 127.041823 
L 247.092654 123.256875 
L 251.549843 123.622202 
L 249.474706 127.041823 
z
" style="fill:#808080;stroke:#808080;stroke-linecap:round;"/>
   </g>
   <g id="patch_19">
    <path clip-path="url(#p4d7143eaa6)" d="M 279.821373 227.232069 
Q 362.037511 157.883494 443.399036 89.255778 
" style="fill:none;stroke:#808080;stroke-linecap:round;"/>
    <path clip-path="url(#p4d7143eaa6)" d="M 439.051969 90.306021 
L 443.399036 89.255778 
L 441.63099 93.363577 
L 439.051969 90.306021 
z
" style="fill:#808080;stroke:#808080;stroke-linecap:round;"/>
   </g>
   <g id="patch_20">
    <path clip-path="url(#p4d7143eaa6)" d="M 265.376062 236.525404 
Q 176.81213 278.516947 89.25843 320.029501 
" style="fill:none;stroke:#808080;stroke-linecap:round;"/>
    <path clip-path="url(#p4d7143eaa6)" d="M 93.729589 320.122973 
L 89.25843 320.029501 
L 92.015904 316.508657 
L 93.729589 320.122973 
z
" style="fill:#808080;stroke:#808080;stroke-linecap:round;"/>
   </g>
   <g id="patch_21">
    <path clip-path="url(#p4d7143eaa6)" d="M 273.348465 224.159872 
Q 274.547565 152.48345 275.727963 81.924905 
" style="fill:none;stroke:#808080;stroke-linecap:round;"/>
    <path clip-path="url(#p4d7143eaa6)" d="M 273.661335 85.890891 
L 275.727963 81.924905 
L 277.660776 85.957799 
L 273.661335 85.890891 
z
" style="fill:#808080;stroke:#808080;stroke-linecap:round;"/>
   </g>
   <g id="patch_22">
    <path clip-path="url(#p4d7143eaa6)" d="M 402.274703 364.488341 
Q 286.9819 352.047981 172.800678 339.727564 
" style="fill:none;stroke:#808080;stroke-linecap:round;"/>
    <path clip-path="url(#p4d7143eaa6)" d="M 176.563034 342.14514 
L 172.800678 339.727564 
L 176.992153 338.168224 
L 176.563034 342.14514 
z
" style="fill:#808080;stroke:#808080;stroke-linecap:round;"/>
   </g>
   <g id="patch_23">
    <path clip-path="url(#p4d7143eaa6)" d="M 414.488845 373.290177 
Q 421.432818 388.457681 427.911388 402.608622 
" style="fill:none;stroke:#808080;stroke-linecap:round;"/>
    <path clip-path="url(#p4d7143eaa6)" d="M 428.064799 398.139118 
L 427.911388 402.608622 
L 424.427832 399.804191 
L 428.064799 398.139118 
z
" style="fill:#808080;stroke:#808080;stroke-linecap:round;"/>
   </g>
   <g id="patch_24">
    <path clip-path="url(#p4d7143eaa6)" d="M 419.51815 364.733805 
Q 479.386699 359.993801 538.140702 355.342039 
" style="fill:none;stroke:#808080;stroke-linecap:round;"/>
    <path clip-path="url(#p4d7143eaa6)" d="M 533.995328 353.663985 
L 538.140702 355.342039 
L 534.311034 357.651506 
L 533.995328 353.663985 
z
" style="fill:#808080;stroke:#808080;stroke-linecap:round;"/>
   </g>
   <g id="patch_25">
    <path clip-path="url(#p4d7143eaa6)" d="M 168.639405 332.039351 
Q 221.796337 268.567342 274.235422 205.952477 
" style="fill:none;stroke:#808080;stroke-linecap:round;"/>
    <path clip-path="url(#p4d7143eaa6)" d="M 270.13387 207.734967 
L 274.235422 205.952477 
L 273.200483 210.303213 
L 270.13387 207.734967 
z
" style="fill:#808080;stroke:#808080;stroke-linecap:round;"/>
   </g>
   <g id="patch_26">
    <path clip-path="url(#p4d7143eaa6)" d="M 168.26005 331.741154 
Q 198.054178 291.845732 227.179318 252.846109 
" style="fill:none;stroke:#808080;stroke-linecap:round;"/>
    <path clip-path="url(#p4d7143eaa6)" d="M 223.183421 254.854295 
L 227.179318 252.846109 
L 226.388328 257.247738 
L 223.183421 254.854295 
z
" style="fill:#808080;stroke:#808080;stroke-linecap:round;"/>
   </g>
   <g id="patch_27">
    <path clip-path="url(#p4d7143eaa6)" d="M 286.844707 192.551225 
Q 351.201764 132.526526 414.74121 73.264397 
" style="fill:none;stroke:#808080;stroke-linecap:round;"/>
    <path clip-path="url(#p4d7143eaa6)" d="M 410.451912 74.530067 
L 414.74121 73.264397 
L 413.180167 77.455238 
L 410.451912 74.530067 
z
" style="fill:#808080;stroke:#808080;stroke-linecap:round;"/>
   </g>
   <g id="patch_28">
    <path clip-path="url(#p4d7143eaa6)" d="M 287.566611 203.481108 
Q 411.465288 291.740838 534.453351 379.35189 
" style="fill:none;stroke:#808080;stroke-linecap:round;"/>
    <path clip-path="url(#p4d7143eaa6)" d="M 532.355836 375.402152 
L 534.453351 379.35189 
L 530.035052 378.66006 
L 532.355836 375.402152 
z
" style="fill:#808080;stroke:#808080;stroke-linecap:round;"/>
   </g>
   <g id="patch_29">
    <path clip-path="url(#p4d7143eaa6)" d="M 575.135743 131.024874 
Q 570.097243 137.844513 565.723112 143.764924 
" style="fill:none;stroke:#808080;stroke-linecap:round;"/>
    <path clip-path="url(#p4d7143eaa6)" d="M 569.708624 141.736206 
L 565.723112 143.764924 
L 566.491445 139.359284 
L 569.708624 141.736206 
z
" style="fill:#808080;stroke:#808080;stroke-linecap:round;"/>
   </g>
   <g id="patch_30">
    <path clip-path="url(#p4d7143eaa6)" d="M 554.069371 145.234196 
Q 532.102846 121.199622 510.890587 97.990324 
" style="fill:none;stroke:#808080;stroke-linecap:round;"/>
    <path clip-path="url(#p4d7143eaa6)" d="M 512.112832 102.292198 
L 510.890587 97.990324 
L 515.065433 99.593653 
L 512.112832 102.292198 
z
" style="fill:#808080;stroke:#808080;stroke-linecap:round;"/>
   </g>
   <g id="patch_31">
    <path clip-path="url(#p4d7143eaa6)" d="M 510.981397 96.277092 
Q 551.417647 129.559872 590.990668 162.132133 
" style="fill:none;stroke:#808080;stroke-linecap:round;"/>
    <path clip-path="url(#p4d7143eaa6)" d="M 589.173297 158.045917 
L 590.990668 162.132133 
L 586.631272 161.1343 
L 589.173297 158.045917 
z
" style="fill:#808080;stroke:#808080;stroke-linecap:round;"/>
   </g>
   <g id="patch_32">
    <path clip-path="url(#p4d7143eaa6)" d="M 341.102141 235.765692 
Q 214.861208 278.601509 89.679018 321.078074 
" style="fill:none;stroke:#808080;stroke-linecap:round;"/>
    <path clip-path="url(#p4d7143eaa6)" d="M 94.109543 321.686718 
L 89.679018 321.078074 
L 92.824249 317.89884 
L 94.109543 321.686718 
z
" style="fill:#808080;stroke:#808080;stroke-linecap:round;"/>
   </g>
   <g id="patch_33">
    <path clip-path="url(#p4d7143eaa6)" d="M 345.706749 225.102412 
Q 312.59684 152.56263 279.951173 81.039943 
" style="fill:none;stroke:#808080;stroke-linecap:round;"/>
    <path clip-path="url(#p4d7143eaa6)" d="M 279.792656 85.509268 
L 279.951173 81.039943 
L 283.431523 83.848351 
L 279.792656 85.509268 
z
" style="fill:#808080;stroke:#808080;stroke-linecap:round;"/>
   </g>
   <g id="patch_34">
    <path clip-path="url(#p4d7143eaa6)" d="M 156.143217 120.904293 
Q 201.530069 117.4635 245.802086 114.107222 
" style="fill:none;stroke:#808080;stroke-linecap:round;"/>
    <path clip-path="url(#p4d7143eaa6)" d="M 241.662344 112.415319 
L 245.802086 114.107222 
L 241.964718 116.403874 
L 241.662344 112.415319 
z
" style="fill:#808080;stroke:#808080;stroke-linecap:round;"/>
   </g>
   <g id="patch_35">
    <path clip-path="url(#p4d7143eaa6)" d="M 150.53273 129.675546 
Q 182.64783 215.84025 214.372458 300.957322 
" style="fill:none;stroke:#808080;stroke-linecap:round;"/>
    <path clip-path="url(#p4d7143eaa6)" d="M 214.849528 296.510705 
L 214.372458 300.957322 
L 211.101407 297.907696 
L 214.849528 296.510705 
z
" style="fill:#808080;stroke:#808080;stroke-linecap:round;"/>
   </g>
   <g id="patch_36">
    <path clip-path="url(#p4d7143eaa6)" d="M 134.798966 360.742889 
Q 215.057993 276.362166 294.546484 192.79155 
" style="fill:none;stroke:#808080;stroke-linecap:round;"/>
    <path clip-path="url(#p4d7143eaa6)" d="M 290.340566 194.3115 
L 294.546484 192.79155 
L 293.238893 197.068255 
L 290.340566 194.3115 
z
" style="fill:#808080;stroke:#808080;stroke-linecap:round;"/>
   </g>
   <g id="patch_37">
    <path clip-path="url(#p4d7143eaa6)" d="M 296.658003 178.389367 
Q 278.420399 149.539671 260.78021 121.635013 
" style="fill:none;stroke:#808080;stroke-linecap:round;"/>
    <path clip-path="url(#p4d7143eaa6)" d="M 261.22705 126.08477 
L 260.78021 121.635013 
L 264.608119 123.947396 
L 261.22705 126.08477 
z
" style="fill:#808080;stroke:#808080;stroke-linecap:round;"/>
   </g>
   <g id="patch_38">
    <path clip-path="url(#p4d7143eaa6)" d="M 296.460728 192.894893 
Q 259.538097 247.90991 223.23851 301.996588 
" style="fill:none;stroke:#808080;stroke-linecap:round;"/>
    <path clip-path="url(#p4d7143eaa6)" d="M 227.128246 299.78979 
L 223.23851 301.996588 
L 223.806914 297.56072 
L 227.128246 299.78979 
z
" style="fill:#808080;stroke:#808080;stroke-linecap:round;"/>
   </g>
   <g id="patch_39">
    <path clip-path="url(#p4d7143eaa6)" d="M 387.054388 189.072882 
Q 314.111111 215.565085 242.218706 241.675622 
" style="fill:none;stroke:#808080;stroke-linecap:round;"/>
    <path clip-path="url(#p4d7143eaa6)" d="M 246.661163 242.189992 
L 242.218706 241.675622 
L 245.295676 238.430278 
L 246.661163 242.189992 
z
" style="fill:#808080;stroke:#808080;stroke-linecap:round;"/>
   </g>
   <g id="patch_40">
    <path clip-path="url(#p4d7143eaa6)" d="M 386.579897 187.04385 
Q 337.853222 192.286803 290.238165 197.410148 
" style="fill:none;stroke:#808080;stroke-linecap:round;"/>
    <path clip-path="url(#p4d7143eaa6)" d="M 294.429172 198.970743 
L 290.238165 197.410148 
L 294.001245 194.993699 
L 294.429172 198.970743 
z
" style="fill:#808080;stroke:#808080;stroke-linecap:round;"/>
   </g>
   <g id="patch_41">
    <path clip-path="url(#p4d7143eaa6)" d="M 510.25152 111.404497 
Q 409.847725 147.105419 310.497353 182.431771 
" style="fill:none;stroke:#808080;stroke-linecap:round;"/>
    <path clip-path="url(#p4d7143eaa6)" d="M 314.936239 182.976091 
L 310.497353 182.431771 
L 313.596141 179.207254 
L 314.936239 182.976091 
z
" style="fill:#808080;stroke:#808080;stroke-linecap:round;"/>
   </g>
   <g id="patch_42">
    <path clip-path="url(#p4d7143eaa6)" d="M 244.616004 124.535655 
Q 270.00763 151.945267 294.639457 178.534694 
" style="fill:none;stroke:#808080;stroke-linecap:round;"/>
    <path clip-path="url(#p4d7143eaa6)" d="M 293.388304 174.241139 
L 294.639457 178.534694 
L 290.453921 176.959483 
L 293.388304 174.241139 
z
" style="fill:#808080;stroke:#808080;stroke-linecap:round;"/>
   </g>
   <g id="patch_43">
    <path clip-path="url(#p4d7143eaa6)" d="M 362.284262 301.146918 
Q 486.230476 278.066011 609.077552 255.189782 
" style="fill:none;stroke:#808080;stroke-linecap:round;"/>
    <path clip-path="url(#p4d7143eaa6)" d="M 604.779012 253.955862 
L 609.077552 255.189782 
L 605.511292 257.888262 
L 604.779012 253.955862 
z
" style="fill:#808080;stroke:#808080;stroke-linecap:round;"/>
   </g>
   <g id="patch_44">
    <path clip-path="url(#p4d7143eaa6)" d="M 360.553135 308.115679 
Q 409.113524 346.631753 456.797958 384.453057 
" style="fill:none;stroke:#808080;stroke-linecap:round;"/>
    <path clip-path="url(#p4d7143eaa6)" d="M 454.906893 380.400419 
L 456.797958 384.453057 
L 452.421209 383.534326 
L 454.906893 380.400419 
z
" style="fill:#808080;stroke:#808080;stroke-linecap:round;"/>
   </g>
   <g id="patch_45">
    <path clip-path="url(#p4d7143eaa6)" d="M 347.414589 308.613711 
Q 297.482338 354.839714 248.370519 400.306183 
" style="fill:none;stroke:#808080;stroke-linecap:round;"/>
    <path clip-path="url(#p4d7143eaa6)" d="M 252.664479 399.056422 
L 248.370519 400.306183 
L 249.947087 396.121158 
L 252.664479 399.056422 
z
" style="fill:#808080;stroke:#808080;stroke-linecap:round;"/>
   </g>
   <g id="patch_46">
    <path clip-path="url(#p4d7143eaa6)" d="M 361.892558 299.729093 
Q 482.462473 255.156995 601.983716 210.972568 
" style="fill:none;stroke:#808080;stroke-linecap:round;"/>
    <path clip-path="url(#p4d7143eaa6)" d="M 597.538389 210.483623 
L 601.983716 210.972568 
L 598.925363 214.235462 
L 597.538389 210.483623 
z
" style="fill:#808080;stroke:#808080;stroke-linecap:round;"/>
   </g>
   <g id="patch_47">
    <path clip-path="url(#p4d7143eaa6)" d="M 345.121453 302.282017 
Q 215.647514 295.527717 87.290091 288.831662 
" style="fill:none;stroke:#808080;stroke-linecap:round;"/>
    <path clip-path="url(#p4d7143eaa6)" d="M 91.180467 291.037331 
L 87.290091 288.831662 
L 91.388852 287.042763 
L 91.180467 291.037331 
z
" style="fill:#808080;stroke:#808080;stroke-linecap:round;"/>
   </g>
   <g id="patch_48">
    <path clip-path="url(#p4d7143eaa6)" d="M 346.069883 298.757906 
Q 235.96534 241.893634 126.854173 185.542397 
" style="fill:none;stroke:#808080;stroke-linecap:round;"/>
    <path clip-path="url(#p4d7143eaa6)" d="M 129.490434 189.154893 
L 126.854173 185.542397 
L 131.325926 185.600886 
L 129.490434 189.154893 
z
" style="fill:#808080;stroke:#808080;stroke-linecap:round;"/>
   </g>
   <g id="patch_49">
    <path clip-path="url(#p4d7143eaa6)" d="M 372.837028 284.175275 
Q 491.468298 269.325072 608.990192 254.613739 
" style="fill:none;stroke:#808080;stroke-linecap:round;"/>
    <path clip-path="url(#p4d7143eaa6)" d="M 604.772748 253.126068 
L 608.990192 254.613739 
L 605.269588 257.095092 
L 604.772748 253.126068 
z
" style="fill:#808080;stroke:#808080;stroke-linecap:round;"/>
   </g>
   <g id="patch_50">
    <path clip-path="url(#p4d7143eaa6)" d="M 370.21755 291.525411 
Q 414.350318 337.888797 457.712237 383.442373 
" style="fill:none;stroke:#808080;stroke-linecap:round;"/>
    <path clip-path="url(#p4d7143eaa6)" d="M 456.402997 379.166173 
L 457.712237 383.442373 
L 453.505732 381.924045 
L 456.402997 379.166173 
z
" style="fill:#808080;stroke:#808080;stroke-linecap:round;"/>
   </g>
   <g id="patch_51">
    <path clip-path="url(#p4d7143eaa6)" d="M 358.088148 291.339917 
Q 302.720226 346.099619 248.147226 400.07313 
" style="fill:none;stroke:#808080;stroke-linecap:round;"/>
    <path clip-path="url(#p4d7143eaa6)" d="M 252.397613 398.682369 
L 248.147226 400.07313 
L 249.58485 395.838365 
L 252.397613 398.682369 
z
" style="fill:#808080;stroke:#808080;stroke-linecap:round;"/>
   </g>
   <g id="patch_52">
    <path clip-path="url(#p4d7143eaa6)" d="M 372.507016 282.651877 
Q 487.698621 246.416966 601.823713 210.51754 
" style="fill:none;stroke:#808080;stroke-linecap:round;"/>
    <path clip-path="url(#p4d7143eaa6)" d="M 597.407907 209.80997 
L 601.823713 210.51754 
L 598.608173 213.625643 
L 597.407907 209.80997 
z
" style="fill:#808080;stroke:#808080;stroke-linecap:round;"/>
   </g>
   <g id="patch_53">
    <path clip-path="url(#p4d7143eaa6)" d="M 355.586621 285.343581 
Q 220.883811 286.786432 87.29897 288.217309 
" style="fill:none;stroke:#808080;stroke-linecap:round;"/>
    <path clip-path="url(#p4d7143eaa6)" d="M 91.320162 290.174351 
L 87.29897 288.217309 
L 91.277319 286.174581 
L 91.320162 290.174351 
z
" style="fill:#808080;stroke:#808080;stroke-linecap:round;"/>
   </g>
   <g id="patch_54">
    <path clip-path="url(#p4d7143eaa6)" d="M 356.273246 281.87547 
Q 241.206594 233.153529 127.169488 184.867523 
" style="fill:none;stroke:#808080;stroke-linecap:round;"/>
    <path clip-path="url(#p4d7143eaa6)" d="M 130.073077 188.268871 
L 127.169488 184.867523 
L 131.63272 184.58546 
L 130.073077 188.268871 
z
" style="fill:#808080;stroke:#808080;stroke-linecap:round;"/>
   </g>
   <g id="patch_55">
    <path clip-path="url(#p4d7143eaa6)" d="M 224.104382 360.8777 
Q 313.166666 363.042344 401.111247 365.179822 
" style="fill:none;stroke:#808080;stroke-linecap:round;"/>
    <path clip-path="url(#p4d7143eaa6)" d="M 397.161023 363.083222 
L 401.111247 365.179822 
L 397.063833 367.082041 
L 397.161023 363.083222 
z
" style="fill:#808080;stroke:#808080;stroke-linecap:round;"/>
   </g>
   <g id="patch_56">
    <path clip-path="url(#p4d7143eaa6)" d="M 248.572474 118.48923 
Q 160.43047 183.145113 73.189964 247.139709 
" style="fill:none;stroke:#808080;stroke-linecap:round;"/>
    <path clip-path="url(#p4d7143eaa6)" d="M 77.598209 246.386465 
L 73.189964 247.139709 
L 75.232316 243.161166 
L 77.598209 246.386465 
z
" style="fill:#808080;stroke:#808080;stroke-linecap:round;"/>
   </g>
   <g id="patch_57">
    <path clip-path="url(#p4d7143eaa6)" d="M 246.985717 114.617229 
Q 195.123086 122.179049 144.36679 129.57956 
" style="fill:none;stroke:#808080;stroke-linecap:round;"/>
    <path clip-path="url(#p4d7143eaa6)" d="M 148.613497 130.981517 
L 144.36679 129.57956 
L 148.03638 127.023369 
L 148.613497 130.981517 
z
" style="fill:#808080;stroke:#808080;stroke-linecap:round;"/>
   </g>
   <g id="patch_58">
    <path clip-path="url(#p4d7143eaa6)" d="M 209.676392 307.076699 
Q 141.546666 281.521145 74.463752 256.358252 
" style="fill:none;stroke:#808080;stroke-linecap:round;"/>
    <path clip-path="url(#p4d7143eaa6)" d="M 77.50653 259.635675 
L 74.463752 256.358252 
L 78.911357 255.890483 
L 77.50653 259.635675 
z
" style="fill:#808080;stroke:#808080;stroke-linecap:round;"/>
   </g>
   <g id="patch_59">
    <path clip-path="url(#p4d7143eaa6)" d="M 214.141791 302.260883 
Q 176.23841 220.554933 138.805524 139.863198 
" style="fill:none;stroke:#808080;stroke-linecap:round;"/>
    <path clip-path="url(#p4d7143eaa6)" d="M 138.674532 144.333415 
L 138.805524 139.863198 
L 142.303103 142.650122 
L 138.674532 144.333415 
z
" style="fill:#808080;stroke:#808080;stroke-linecap:round;"/>
   </g>
   <g id="PathCollection_1">
    <defs>
     <path d="M 0 11.18034 
C 2.965061 11.18034 5.80908 10.002309 7.905694 7.905694 
C 10.002309 5.80908 11.18034 2.965061 11.18034 -0 
C 11.18034 -2.965061 10.002309 -5.80908 7.905694 -7.905694 
C 5.80908 -10.002309 2.965061 -11.18034 0 -11.18034 
C -2.965061 -11.18034 -5.80908 -10.002309 -7.905694 -7.905694 
C -10.002309 -5.80908 -11.18034 -2.965061 -11.18034 0 
C -11.18034 2.965061 -10.002309 5.80908 -7.905694 7.905694 
C -5.80908 10.002309 -2.965061 11.18034 0 11.18034 
z
" id="C0_0_c10962c723"/>
    </defs>
    <g clip-path="url(#p4d7143eaa6)">
     <use style="fill:#c5c5c5;stroke:#c5c5c5;" x="496.090349" xlink:href="#C0_0_c10962c723" y="307.247749"/>
    </g>
    <g clip-path="url(#p4d7143eaa6)">
     <use style="fill:#d3d3d3;stroke:#d3d3d3;" x="298.517896" xlink:href="#C0_0_c10962c723" y="238.113354"/>
    </g>
    <g clip-path="url(#p4d7143eaa6)">
     <use style="fill:#eaeaea;stroke:#eaeaea;" x="601.932576" xlink:href="#C0_0_c10962c723" y="331.258708"/>
    </g>
    <g clip-path="url(#p4d7143eaa6)">
     <use style="fill:#5f5f5f;stroke:#5f5f5f;" x="349.946742" xlink:href="#C0_0_c10962c723" y="60.805398"/>
    </g>
    <g clip-path="url(#p4d7143eaa6)">
     <use style="fill:#dfdfdf;stroke:#dfdfdf;" x="233.028947" xlink:href="#C0_0_c10962c723" y="245.013242"/>
    </g>
    <g clip-path="url(#p4d7143eaa6)">
     <use style="fill:#eaeaea;stroke:#eaeaea;" x="421.891185" xlink:href="#C0_0_c10962c723" y="66.595742"/>
    </g>
    <g clip-path="url(#p4d7143eaa6)">
     <use style="fill:#eaeaea;stroke:#eaeaea;" x="542.414113" xlink:href="#C0_0_c10962c723" y="385.022771"/>
    </g>
    <g clip-path="url(#p4d7143eaa6)">
     <use style="fill:#c5c5c5;stroke:#c5c5c5;" x="428.813618" xlink:href="#C0_0_c10962c723" y="233.531092"/>
    </g>
    <g clip-path="url(#p4d7143eaa6)">
     <use style="fill:#dfdfdf;stroke:#dfdfdf;" x="273.203687" xlink:href="#C0_0_c10962c723" y="232.814028"/>
    </g>
    <g clip-path="url(#p4d7143eaa6)">
     <use style="fill:#eaeaea;stroke:#eaeaea;" x="450.875415" xlink:href="#C0_0_c10962c723" y="82.949519"/>
    </g>
    <g clip-path="url(#p4d7143eaa6)">
     <use style="fill:#c2c2c2;stroke:#c2c2c2;" x="410.884519" xlink:href="#C0_0_c10962c723" y="365.41736"/>
    </g>
    <g clip-path="url(#p4d7143eaa6)">
     <use style="fill:#e7e7e7;stroke:#e7e7e7;" x="163.079136" xlink:href="#C0_0_c10962c723" y="338.678587"/>
    </g>
    <g clip-path="url(#p4d7143eaa6)">
     <use style="fill:#eaeaea;stroke:#eaeaea;" x="280.513156" xlink:href="#C0_0_c10962c723" y="198.456551"/>
    </g>
    <g clip-path="url(#p4d7143eaa6)">
     <use style="fill:#c5c5c5;stroke:#c5c5c5;" x="580.27947" xlink:href="#C0_0_c10962c723" y="124.06281"/>
    </g>
    <g clip-path="url(#p4d7143eaa6)">
     <use style="fill:#eaeaea;stroke:#eaeaea;" x="376.796569" xlink:href="#C0_0_c10962c723" y="427.350852"/>
    </g>
    <g clip-path="url(#p4d7143eaa6)">
     <use style="fill:#d3d3d3;stroke:#d3d3d3;" x="559.913394" xlink:href="#C0_0_c10962c723" y="151.628409"/>
    </g>
    <g clip-path="url(#p4d7143eaa6)">
     <use style="fill:#dfdfdf;stroke:#dfdfdf;" x="504.294176" xlink:href="#C0_0_c10962c723" y="90.772891"/>
    </g>
    <g clip-path="url(#p4d7143eaa6)">
     <use style="fill:#eaeaea;stroke:#eaeaea;" x="598.542279" xlink:href="#C0_0_c10962c723" y="168.347808"/>
    </g>
    <g clip-path="url(#p4d7143eaa6)">
     <use style="fill:#eaeaea;stroke:#eaeaea;" x="349.303645" xlink:href="#C0_0_c10962c723" y="232.982775"/>
    </g>
    <g clip-path="url(#p4d7143eaa6)">
     <use style="fill:#eaeaea;stroke:#eaeaea;" x="431.98251" xlink:href="#C0_0_c10962c723" y="411.501046"/>
    </g>
    <g clip-path="url(#p4d7143eaa6)">
     <use style="fill:#eaeaea;stroke:#eaeaea;" x="209.321786" xlink:href="#C0_0_c10962c723" y="104.40334"/>
    </g>
    <g clip-path="url(#p4d7143eaa6)">
     <use style="fill:#f3f3f3;stroke:#f3f3f3;" x="547.885408" xlink:href="#C0_0_c10962c723" y="354.570517"/>
    </g>
    <g clip-path="url(#p4d7143eaa6)">
     <use style="fill:#b5b5b5;stroke:#b5b5b5;" x="147.507538" xlink:href="#C0_0_c10962c723" y="121.558967"/>
    </g>
    <g clip-path="url(#p4d7143eaa6)">
     <use style="fill:#eaeaea;stroke:#eaeaea;" x="65.305785" xlink:href="#C0_0_c10962c723" y="252.923086"/>
    </g>
    <g clip-path="url(#p4d7143eaa6)">
     <use style="fill:#eaeaea;stroke:#eaeaea;" x="134.689506" xlink:href="#C0_0_c10962c723" y="130.990555"/>
    </g>
    <g clip-path="url(#p4d7143eaa6)">
     <use style="fill:#ededed;stroke:#ededed;" x="128.828155" xlink:href="#C0_0_c10962c723" y="367.02033"/>
    </g>
    <g clip-path="url(#p4d7143eaa6)">
     <use style="fill:#eaeaea;stroke:#eaeaea;" x="301.284338" xlink:href="#C0_0_c10962c723" y="185.707674"/>
    </g>
    <g clip-path="url(#p4d7143eaa6)">
     <use style="fill:#eaeaea;stroke:#eaeaea;" x="395.192766" xlink:href="#C0_0_c10962c723" y="186.117112"/>
    </g>
    <g clip-path="url(#p4d7143eaa6)">
     <use style="fill:#eaeaea;stroke:#eaeaea;" x="80.42232" xlink:href="#C0_0_c10962c723" y="324.219038"/>
    </g>
    <g clip-path="url(#p4d7143eaa6)">
     <use style="fill:#eaeaea;stroke:#eaeaea;" x="275.891561" xlink:href="#C0_0_c10962c723" y="72.145827"/>
    </g>
    <g clip-path="url(#p4d7143eaa6)">
     <use style="fill:#eaeaea;stroke:#eaeaea;" x="78.598699" xlink:href="#C0_0_c10962c723" y="219.629464"/>
    </g>
    <g clip-path="url(#p4d7143eaa6)">
     <use style="fill:#eaeaea;stroke:#eaeaea;" x="518.411687" xlink:href="#C0_0_c10962c723" y="108.502959"/>
    </g>
    <g clip-path="url(#p4d7143eaa6)">
     <use style="fill:#e2e2e2;stroke:#e2e2e2;" x="238.730591" xlink:href="#C0_0_c10962c723" y="118.182502"/>
    </g>
    <g clip-path="url(#p4d7143eaa6)">
     <use style="fill:#e9e9e9;stroke:#e9e9e9;" x="353.766774" xlink:href="#C0_0_c10962c723" y="302.73302"/>
    </g>
    <g clip-path="url(#p4d7143eaa6)">
     <use style="fill:#e4e4e4;stroke:#e4e4e4;" x="364.244858" xlink:href="#C0_0_c10962c723" y="285.250839"/>
    </g>
    <g clip-path="url(#p4d7143eaa6)">
     <use style="fill:#eaeaea;stroke:#eaeaea;" x="618.694215" xlink:href="#C0_0_c10962c723" y="253.398994"/>
    </g>
    <g clip-path="url(#p4d7143eaa6)">
     <use style="fill:#eaeaea;stroke:#eaeaea;" x="464.456417" xlink:href="#C0_0_c10962c723" y="390.527427"/>
    </g>
    <g clip-path="url(#p4d7143eaa6)">
     <use style="fill:#eaeaea;stroke:#eaeaea;" x="241.193276" xlink:href="#C0_0_c10962c723" y="406.950691"/>
    </g>
    <g clip-path="url(#p4d7143eaa6)">
     <use style="fill:#eaeaea;stroke:#eaeaea;" x="611.152661" xlink:href="#C0_0_c10962c723" y="207.583007"/>
    </g>
    <g clip-path="url(#p4d7143eaa6)">
     <use style="fill:#eaeaea;stroke:#eaeaea;" x="77.521155" xlink:href="#C0_0_c10962c723" y="288.322043"/>
    </g>
    <g clip-path="url(#p4d7143eaa6)">
     <use style="fill:#eaeaea;stroke:#eaeaea;" x="118.164973" xlink:href="#C0_0_c10962c723" y="181.054798"/>
    </g>
    <g clip-path="url(#p4d7143eaa6)">
     <use style="fill:#eaeaea;stroke:#eaeaea;" x="215.44724" xlink:href="#C0_0_c10962c723" y="360.667289"/>
    </g>
    <g clip-path="url(#p4d7143eaa6)">
     <use style="fill:#eaeaea;stroke:#eaeaea;" x="255.55409" xlink:href="#C0_0_c10962c723" y="113.367919"/>
    </g>
    <g clip-path="url(#p4d7143eaa6)">
     <use style="fill:#eaeaea;stroke:#eaeaea;" x="217.787205" xlink:href="#C0_0_c10962c723" y="310.119076"/>
    </g>
   </g>
   <g id="text_1">
    <g clip-path="url(#p4d7143eaa6)">
     <!-- TNF -->
     <g transform="translate(486.420036 310.007124)scale(0.1 -0.1)">
      <defs>
       <path d="M -0.296875 72.90625 
L 61.375 72.90625 
L 61.375 64.59375 
L 35.5 64.59375 
L 35.5 0 
L 25.59375 0 
L 25.59375 64.59375 
L -0.296875 64.59375 
z
" id="DejaVuSans-84"/>
       <path d="M 9.8125 72.90625 
L 23.09375 72.90625 
L 55.421875 11.921875 
L 55.421875 72.90625 
L 64.984375 72.90625 
L 64.984375 0 
L 51.703125 0 
L 19.390625 60.984375 
L 19.390625 0 
L 9.8125 0 
z
" id="DejaVuSans-78"/>
       <path d="M 9.8125 72.90625 
L 51.703125 72.90625 
L 51.703125 64.59375 
L 19.671875 64.59375 
L 19.671875 43.109375 
L 48.578125 43.109375 
L 48.578125 34.8125 
L 19.671875 34.8125 
L 19.671875 0 
L 9.8125 0 
z
" id="DejaVuSans-70"/>
      </defs>
      <use xlink:href="#DejaVuSans-84"/>
      <use x="61.083984" xlink:href="#DejaVuSans-78"/>
      <use x="135.888672" xlink:href="#DejaVuSans-70"/>
     </g>
    </g>
   </g>
   <g id="text_2">
    <g clip-path="url(#p4d7143eaa6)">
     <!-- TNFRSF1A -->
     <g transform="translate(272.721803 240.872729)scale(0.1 -0.1)">
      <defs>
       <path d="M 44.390625 34.1875 
Q 47.5625 33.109375 50.5625 29.59375 
Q 53.5625 26.078125 56.59375 19.921875 
L 66.609375 0 
L 56 0 
L 46.6875 18.703125 
Q 43.0625 26.03125 39.671875 28.421875 
Q 36.28125 30.8125 30.421875 30.8125 
L 19.671875 30.8125 
L 19.671875 0 
L 9.8125 0 
L 9.8125 72.90625 
L 32.078125 72.90625 
Q 44.578125 72.90625 50.734375 67.671875 
Q 56.890625 62.453125 56.890625 51.90625 
Q 56.890625 45.015625 53.6875 40.46875 
Q 50.484375 35.9375 44.390625 34.1875 
z
M 19.671875 64.796875 
L 19.671875 38.921875 
L 32.078125 38.921875 
Q 39.203125 38.921875 42.84375 42.21875 
Q 46.484375 45.515625 46.484375 51.90625 
Q 46.484375 58.296875 42.84375 61.546875 
Q 39.203125 64.796875 32.078125 64.796875 
z
" id="DejaVuSans-82"/>
       <path d="M 53.515625 70.515625 
L 53.515625 60.890625 
Q 47.90625 63.578125 42.921875 64.890625 
Q 37.9375 66.21875 33.296875 66.21875 
Q 25.25 66.21875 20.875 63.09375 
Q 16.5 59.96875 16.5 54.203125 
Q 16.5 49.359375 19.40625 46.890625 
Q 22.3125 44.4375 30.421875 42.921875 
L 36.375 41.703125 
Q 47.40625 39.59375 52.65625 34.296875 
Q 57.90625 29 57.90625 20.125 
Q 57.90625 9.515625 50.796875 4.046875 
Q 43.703125 -1.421875 29.984375 -1.421875 
Q 24.8125 -1.421875 18.96875 -0.25 
Q 13.140625 0.921875 6.890625 3.21875 
L 6.890625 13.375 
Q 12.890625 10.015625 18.65625 8.296875 
Q 24.421875 6.59375 29.984375 6.59375 
Q 38.421875 6.59375 43.015625 9.90625 
Q 47.609375 13.234375 47.609375 19.390625 
Q 47.609375 24.75 44.3125 27.78125 
Q 41.015625 30.8125 33.5 32.328125 
L 27.484375 33.5 
Q 16.453125 35.6875 11.515625 40.375 
Q 6.59375 45.0625 6.59375 53.421875 
Q 6.59375 63.09375 13.40625 68.65625 
Q 20.21875 74.21875 32.171875 74.21875 
Q 37.3125 74.21875 42.625 73.28125 
Q 47.953125 72.359375 53.515625 70.515625 
z
" id="DejaVuSans-83"/>
       <path d="M 12.40625 8.296875 
L 28.515625 8.296875 
L 28.515625 63.921875 
L 10.984375 60.40625 
L 10.984375 69.390625 
L 28.421875 72.90625 
L 38.28125 72.90625 
L 38.28125 8.296875 
L 54.390625 8.296875 
L 54.390625 0 
L 12.40625 0 
z
" id="DejaVuSans-49"/>
       <path d="M 34.1875 63.1875 
L 20.796875 26.90625 
L 47.609375 26.90625 
z
M 28.609375 72.90625 
L 39.796875 72.90625 
L 67.578125 0 
L 57.328125 0 
L 50.6875 18.703125 
L 17.828125 18.703125 
L 11.1875 0 
L 0.78125 0 
z
" id="DejaVuSans-65"/>
      </defs>
      <use xlink:href="#DejaVuSans-84"/>
      <use x="61.083984" xlink:href="#DejaVuSans-78"/>
      <use x="135.888672" xlink:href="#DejaVuSans-70"/>
      <use x="193.408203" xlink:href="#DejaVuSans-82"/>
      <use x="262.890625" xlink:href="#DejaVuSans-83"/>
      <use x="326.367188" xlink:href="#DejaVuSans-70"/>
      <use x="383.886719" xlink:href="#DejaVuSans-49"/>
      <use x="447.509766" xlink:href="#DejaVuSans-65"/>
     </g>
    </g>
   </g>
   <g id="text_3">
    <g clip-path="url(#p4d7143eaa6)">
     <!-- TRADD -->
     <g transform="translate(584.484138 334.018083)scale(0.1 -0.1)">
      <defs>
       <path d="M 19.671875 64.796875 
L 19.671875 8.109375 
L 31.59375 8.109375 
Q 46.6875 8.109375 53.6875 14.9375 
Q 60.6875 21.78125 60.6875 36.53125 
Q 60.6875 51.171875 53.6875 57.984375 
Q 46.6875 64.796875 31.59375 64.796875 
z
M 9.8125 72.90625 
L 30.078125 72.90625 
Q 51.265625 72.90625 61.171875 64.09375 
Q 71.09375 55.28125 71.09375 36.53125 
Q 71.09375 17.671875 61.125 8.828125 
Q 51.171875 0 30.078125 0 
L 9.8125 0 
z
" id="DejaVuSans-68"/>
      </defs>
      <use xlink:href="#DejaVuSans-84"/>
      <use x="61.083984" xlink:href="#DejaVuSans-82"/>
      <use x="126.566406" xlink:href="#DejaVuSans-65"/>
      <use x="194.974609" xlink:href="#DejaVuSans-68"/>
      <use x="271.976562" xlink:href="#DejaVuSans-68"/>
     </g>
    </g>
   </g>
   <g id="text_4">
    <g clip-path="url(#p4d7143eaa6)">
     <!-- RIPK1 -->
     <g transform="translate(335.522523 63.564773)scale(0.1 -0.1)">
      <defs>
       <path d="M 9.8125 72.90625 
L 19.671875 72.90625 
L 19.671875 0 
L 9.8125 0 
z
" id="DejaVuSans-73"/>
       <path d="M 19.671875 64.796875 
L 19.671875 37.40625 
L 32.078125 37.40625 
Q 38.96875 37.40625 42.71875 40.96875 
Q 46.484375 44.53125 46.484375 51.125 
Q 46.484375 57.671875 42.71875 61.234375 
Q 38.96875 64.796875 32.078125 64.796875 
z
M 9.8125 72.90625 
L 32.078125 72.90625 
Q 44.34375 72.90625 50.609375 67.359375 
Q 56.890625 61.8125 56.890625 51.125 
Q 56.890625 40.328125 50.609375 34.8125 
Q 44.34375 29.296875 32.078125 29.296875 
L 19.671875 29.296875 
L 19.671875 0 
L 9.8125 0 
z
" id="DejaVuSans-80"/>
       <path d="M 9.8125 72.90625 
L 19.671875 72.90625 
L 19.671875 42.09375 
L 52.390625 72.90625 
L 65.09375 72.90625 
L 28.90625 38.921875 
L 67.671875 0 
L 54.6875 0 
L 19.671875 35.109375 
L 19.671875 0 
L 9.8125 0 
z
" id="DejaVuSans-75"/>
      </defs>
      <use xlink:href="#DejaVuSans-82"/>
      <use x="69.482422" xlink:href="#DejaVuSans-73"/>
      <use x="98.974609" xlink:href="#DejaVuSans-80"/>
      <use x="159.277344" xlink:href="#DejaVuSans-75"/>
      <use x="224.853516" xlink:href="#DejaVuSans-49"/>
     </g>
    </g>
   </g>
   <g id="text_5">
    <g clip-path="url(#p4d7143eaa6)">
     <!-- MAP3K7 -->
     <g transform="translate(212.638322 247.772617)scale(0.1 -0.1)">
      <defs>
       <path d="M 9.8125 72.90625 
L 24.515625 72.90625 
L 43.109375 23.296875 
L 61.8125 72.90625 
L 76.515625 72.90625 
L 76.515625 0 
L 66.890625 0 
L 66.890625 64.015625 
L 48.09375 14.015625 
L 38.1875 14.015625 
L 19.390625 64.015625 
L 19.390625 0 
L 9.8125 0 
z
" id="DejaVuSans-77"/>
       <path d="M 40.578125 39.3125 
Q 47.65625 37.796875 51.625 33 
Q 55.609375 28.21875 55.609375 21.1875 
Q 55.609375 10.40625 48.1875 4.484375 
Q 40.765625 -1.421875 27.09375 -1.421875 
Q 22.515625 -1.421875 17.65625 -0.515625 
Q 12.796875 0.390625 7.625 2.203125 
L 7.625 11.71875 
Q 11.71875 9.328125 16.59375 8.109375 
Q 21.484375 6.890625 26.8125 6.890625 
Q 36.078125 6.890625 40.9375 10.546875 
Q 45.796875 14.203125 45.796875 21.1875 
Q 45.796875 27.640625 41.28125 31.265625 
Q 36.765625 34.90625 28.71875 34.90625 
L 20.21875 34.90625 
L 20.21875 43.015625 
L 29.109375 43.015625 
Q 36.375 43.015625 40.234375 45.921875 
Q 44.09375 48.828125 44.09375 54.296875 
Q 44.09375 59.90625 40.109375 62.90625 
Q 36.140625 65.921875 28.71875 65.921875 
Q 24.65625 65.921875 20.015625 65.03125 
Q 15.375 64.15625 9.8125 62.3125 
L 9.8125 71.09375 
Q 15.4375 72.65625 20.34375 73.4375 
Q 25.25 74.21875 29.59375 74.21875 
Q 40.828125 74.21875 47.359375 69.109375 
Q 53.90625 64.015625 53.90625 55.328125 
Q 53.90625 49.265625 50.4375 45.09375 
Q 46.96875 40.921875 40.578125 39.3125 
z
" id="DejaVuSans-51"/>
       <path d="M 8.203125 72.90625 
L 55.078125 72.90625 
L 55.078125 68.703125 
L 28.609375 0 
L 18.3125 0 
L 43.21875 64.59375 
L 8.203125 64.59375 
z
" id="DejaVuSans-55"/>
      </defs>
      <use xlink:href="#DejaVuSans-77"/>
      <use x="86.279297" xlink:href="#DejaVuSans-65"/>
      <use x="154.6875" xlink:href="#DejaVuSans-80"/>
      <use x="214.990234" xlink:href="#DejaVuSans-51"/>
      <use x="278.613281" xlink:href="#DejaVuSans-75"/>
      <use x="344.189453" xlink:href="#DejaVuSans-55"/>
     </g>
    </g>
   </g>
   <g id="text_6">
    <g clip-path="url(#p4d7143eaa6)">
     <!-- IKBKG -->
     <g transform="translate(406.553685 69.355117)scale(0.1 -0.1)">
      <defs>
       <path d="M 19.671875 34.8125 
L 19.671875 8.109375 
L 35.5 8.109375 
Q 43.453125 8.109375 47.28125 11.40625 
Q 51.125 14.703125 51.125 21.484375 
Q 51.125 28.328125 47.28125 31.5625 
Q 43.453125 34.8125 35.5 34.8125 
z
M 19.671875 64.796875 
L 19.671875 42.828125 
L 34.28125 42.828125 
Q 41.5 42.828125 45.03125 45.53125 
Q 48.578125 48.25 48.578125 53.8125 
Q 48.578125 59.328125 45.03125 62.0625 
Q 41.5 64.796875 34.28125 64.796875 
z
M 9.8125 72.90625 
L 35.015625 72.90625 
Q 46.296875 72.90625 52.390625 68.21875 
Q 58.5 63.53125 58.5 54.890625 
Q 58.5 48.1875 55.375 44.234375 
Q 52.25 40.28125 46.1875 39.3125 
Q 53.46875 37.75 57.5 32.78125 
Q 61.53125 27.828125 61.53125 20.40625 
Q 61.53125 10.640625 54.890625 5.3125 
Q 48.25 0 35.984375 0 
L 9.8125 0 
z
" id="DejaVuSans-66"/>
       <path d="M 59.515625 10.40625 
L 59.515625 29.984375 
L 43.40625 29.984375 
L 43.40625 38.09375 
L 69.28125 38.09375 
L 69.28125 6.78125 
Q 63.578125 2.734375 56.6875 0.65625 
Q 49.8125 -1.421875 42 -1.421875 
Q 24.90625 -1.421875 15.25 8.5625 
Q 5.609375 18.5625 5.609375 36.375 
Q 5.609375 54.25 15.25 64.234375 
Q 24.90625 74.21875 42 74.21875 
Q 49.125 74.21875 55.546875 72.453125 
Q 61.96875 70.703125 67.390625 67.28125 
L 67.390625 56.78125 
Q 61.921875 61.421875 55.765625 63.765625 
Q 49.609375 66.109375 42.828125 66.109375 
Q 29.4375 66.109375 22.71875 58.640625 
Q 16.015625 51.171875 16.015625 36.375 
Q 16.015625 21.625 22.71875 14.15625 
Q 29.4375 6.6875 42.828125 6.6875 
Q 48.046875 6.6875 52.140625 7.59375 
Q 56.25 8.5 59.515625 10.40625 
z
" id="DejaVuSans-71"/>
      </defs>
      <use xlink:href="#DejaVuSans-73"/>
      <use x="29.492188" xlink:href="#DejaVuSans-75"/>
      <use x="95.068359" xlink:href="#DejaVuSans-66"/>
      <use x="163.671875" xlink:href="#DejaVuSans-75"/>
      <use x="229.248047" xlink:href="#DejaVuSans-71"/>
     </g>
    </g>
   </g>
   <g id="text_7">
    <g clip-path="url(#p4d7143eaa6)">
     <!-- IKBKB -->
     <g transform="translate(527.520363 387.782146)scale(0.1 -0.1)">
      <use xlink:href="#DejaVuSans-73"/>
      <use x="29.492188" xlink:href="#DejaVuSans-75"/>
      <use x="95.068359" xlink:href="#DejaVuSans-66"/>
      <use x="163.671875" xlink:href="#DejaVuSans-75"/>
      <use x="229.248047" xlink:href="#DejaVuSans-66"/>
     </g>
    </g>
   </g>
   <g id="text_8">
    <g clip-path="url(#p4d7143eaa6)">
     <!-- NFKBIA -->
     <g transform="translate(410.592525 236.290467)scale(0.1 -0.1)">
      <use xlink:href="#DejaVuSans-78"/>
      <use x="74.804688" xlink:href="#DejaVuSans-70"/>
      <use x="132.324219" xlink:href="#DejaVuSans-75"/>
      <use x="197.900391" xlink:href="#DejaVuSans-66"/>
      <use x="266.503906" xlink:href="#DejaVuSans-73"/>
      <use x="295.996094" xlink:href="#DejaVuSans-65"/>
     </g>
    </g>
   </g>
   <g id="text_9">
    <g clip-path="url(#p4d7143eaa6)">
     <!-- MAP3K8 -->
     <g transform="translate(252.813062 235.573403)scale(0.1 -0.1)">
      <defs>
       <path d="M 31.78125 34.625 
Q 24.75 34.625 20.71875 30.859375 
Q 16.703125 27.09375 16.703125 20.515625 
Q 16.703125 13.921875 20.71875 10.15625 
Q 24.75 6.390625 31.78125 6.390625 
Q 38.8125 6.390625 42.859375 10.171875 
Q 46.921875 13.96875 46.921875 20.515625 
Q 46.921875 27.09375 42.890625 30.859375 
Q 38.875 34.625 31.78125 34.625 
z
M 21.921875 38.8125 
Q 15.578125 40.375 12.03125 44.71875 
Q 8.5 49.078125 8.5 55.328125 
Q 8.5 64.0625 14.71875 69.140625 
Q 20.953125 74.21875 31.78125 74.21875 
Q 42.671875 74.21875 48.875 69.140625 
Q 55.078125 64.0625 55.078125 55.328125 
Q 55.078125 49.078125 51.53125 44.71875 
Q 48 40.375 41.703125 38.8125 
Q 48.828125 37.15625 52.796875 32.3125 
Q 56.78125 27.484375 56.78125 20.515625 
Q 56.78125 9.90625 50.3125 4.234375 
Q 43.84375 -1.421875 31.78125 -1.421875 
Q 19.734375 -1.421875 13.25 4.234375 
Q 6.78125 9.90625 6.78125 20.515625 
Q 6.78125 27.484375 10.78125 32.3125 
Q 14.796875 37.15625 21.921875 38.8125 
z
M 18.3125 54.390625 
Q 18.3125 48.734375 21.84375 45.5625 
Q 25.390625 42.390625 31.78125 42.390625 
Q 38.140625 42.390625 41.71875 45.5625 
Q 45.3125 48.734375 45.3125 54.390625 
Q 45.3125 60.0625 41.71875 63.234375 
Q 38.140625 66.40625 31.78125 66.40625 
Q 25.390625 66.40625 21.84375 63.234375 
Q 18.3125 60.0625 18.3125 54.390625 
z
" id="DejaVuSans-56"/>
      </defs>
      <use xlink:href="#DejaVuSans-77"/>
      <use x="86.279297" xlink:href="#DejaVuSans-65"/>
      <use x="154.6875" xlink:href="#DejaVuSans-80"/>
      <use x="214.990234" xlink:href="#DejaVuSans-51"/>
      <use x="278.613281" xlink:href="#DejaVuSans-75"/>
      <use x="344.189453" xlink:href="#DejaVuSans-56"/>
     </g>
    </g>
   </g>
   <g id="text_10">
    <g clip-path="url(#p4d7143eaa6)">
     <!-- MAP2K1 -->
     <g transform="translate(430.48479 85.708894)scale(0.1 -0.1)">
      <defs>
       <path d="M 19.1875 8.296875 
L 53.609375 8.296875 
L 53.609375 0 
L 7.328125 0 
L 7.328125 8.296875 
Q 12.9375 14.109375 22.625 23.890625 
Q 32.328125 33.6875 34.8125 36.53125 
Q 39.546875 41.84375 41.421875 45.53125 
Q 43.3125 49.21875 43.3125 52.78125 
Q 43.3125 58.59375 39.234375 62.25 
Q 35.15625 65.921875 28.609375 65.921875 
Q 23.96875 65.921875 18.8125 64.3125 
Q 13.671875 62.703125 7.8125 59.421875 
L 7.8125 69.390625 
Q 13.765625 71.78125 18.9375 73 
Q 24.125 74.21875 28.421875 74.21875 
Q 39.75 74.21875 46.484375 68.546875 
Q 53.21875 62.890625 53.21875 53.421875 
Q 53.21875 48.921875 51.53125 44.890625 
Q 49.859375 40.875 45.40625 35.40625 
Q 44.1875 33.984375 37.640625 27.21875 
Q 31.109375 20.453125 19.1875 8.296875 
z
" id="DejaVuSans-50"/>
      </defs>
      <use xlink:href="#DejaVuSans-77"/>
      <use x="86.279297" xlink:href="#DejaVuSans-65"/>
      <use x="154.6875" xlink:href="#DejaVuSans-80"/>
      <use x="214.990234" xlink:href="#DejaVuSans-50"/>
      <use x="278.613281" xlink:href="#DejaVuSans-75"/>
      <use x="344.189453" xlink:href="#DejaVuSans-49"/>
     </g>
    </g>
   </g>
   <g id="text_11">
    <g clip-path="url(#p4d7143eaa6)">
     <!-- TNFRSF1B -->
     <g transform="translate(385.078269 368.176735)scale(0.1 -0.1)">
      <use xlink:href="#DejaVuSans-84"/>
      <use x="61.083984" xlink:href="#DejaVuSans-78"/>
      <use x="135.888672" xlink:href="#DejaVuSans-70"/>
      <use x="193.408203" xlink:href="#DejaVuSans-82"/>
      <use x="262.890625" xlink:href="#DejaVuSans-83"/>
      <use x="326.367188" xlink:href="#DejaVuSans-70"/>
      <use x="383.886719" xlink:href="#DejaVuSans-49"/>
      <use x="447.509766" xlink:href="#DejaVuSans-66"/>
     </g>
    </g>
   </g>
   <g id="text_12">
    <g clip-path="url(#p4d7143eaa6)">
     <!-- TRAF2 -->
     <g transform="translate(147.273667 341.437962)scale(0.1 -0.1)">
      <use xlink:href="#DejaVuSans-84"/>
      <use x="61.083984" xlink:href="#DejaVuSans-82"/>
      <use x="126.566406" xlink:href="#DejaVuSans-65"/>
      <use x="194.974609" xlink:href="#DejaVuSans-70"/>
      <use x="252.494141" xlink:href="#DejaVuSans-50"/>
     </g>
    </g>
   </g>
   <g id="text_13">
    <g clip-path="url(#p4d7143eaa6)">
     <!-- MAP3K14 -->
     <g transform="translate(256.941281 201.215926)scale(0.1 -0.1)">
      <defs>
       <path d="M 37.796875 64.3125 
L 12.890625 25.390625 
L 37.796875 25.390625 
z
M 35.203125 72.90625 
L 47.609375 72.90625 
L 47.609375 25.390625 
L 58.015625 25.390625 
L 58.015625 17.1875 
L 47.609375 17.1875 
L 47.609375 0 
L 37.796875 0 
L 37.796875 17.1875 
L 4.890625 17.1875 
L 4.890625 26.703125 
z
" id="DejaVuSans-52"/>
      </defs>
      <use xlink:href="#DejaVuSans-77"/>
      <use x="86.279297" xlink:href="#DejaVuSans-65"/>
      <use x="154.6875" xlink:href="#DejaVuSans-80"/>
      <use x="214.990234" xlink:href="#DejaVuSans-51"/>
      <use x="278.613281" xlink:href="#DejaVuSans-75"/>
      <use x="344.189453" xlink:href="#DejaVuSans-49"/>
      <use x="407.8125" xlink:href="#DejaVuSans-52"/>
     </g>
    </g>
   </g>
   <g id="text_14">
    <g clip-path="url(#p4d7143eaa6)">
     <!-- RIPK3 -->
     <g transform="translate(565.855252 126.822185)scale(0.1 -0.1)">
      <use xlink:href="#DejaVuSans-82"/>
      <use x="69.482422" xlink:href="#DejaVuSans-73"/>
      <use x="98.974609" xlink:href="#DejaVuSans-80"/>
      <use x="159.277344" xlink:href="#DejaVuSans-75"/>
      <use x="224.853516" xlink:href="#DejaVuSans-51"/>
     </g>
    </g>
   </g>
   <g id="text_15">
    <g clip-path="url(#p4d7143eaa6)">
     <!-- BAG4 -->
     <g transform="translate(362.977819 430.110227)scale(0.1 -0.1)">
      <use xlink:href="#DejaVuSans-66"/>
      <use x="68.603516" xlink:href="#DejaVuSans-65"/>
      <use x="135.261719" xlink:href="#DejaVuSans-71"/>
      <use x="212.751953" xlink:href="#DejaVuSans-52"/>
     </g>
    </g>
   </g>
   <g id="text_16">
    <g clip-path="url(#p4d7143eaa6)">
     <!-- MLKL -->
     <g transform="translate(546.748551 154.387784)scale(0.1 -0.1)">
      <defs>
       <path d="M 9.8125 72.90625 
L 19.671875 72.90625 
L 19.671875 8.296875 
L 55.171875 8.296875 
L 55.171875 0 
L 9.8125 0 
z
" id="DejaVuSans-76"/>
      </defs>
      <use xlink:href="#DejaVuSans-77"/>
      <use x="86.279297" xlink:href="#DejaVuSans-76"/>
      <use x="141.992188" xlink:href="#DejaVuSans-75"/>
      <use x="207.568359" xlink:href="#DejaVuSans-76"/>
     </g>
    </g>
   </g>
   <g id="text_17">
    <g clip-path="url(#p4d7143eaa6)">
     <!-- PGAM5 -->
     <g transform="translate(486.489489 93.532266)scale(0.1 -0.1)">
      <defs>
       <path d="M 10.796875 72.90625 
L 49.515625 72.90625 
L 49.515625 64.59375 
L 19.828125 64.59375 
L 19.828125 46.734375 
Q 21.96875 47.46875 24.109375 47.828125 
Q 26.265625 48.1875 28.421875 48.1875 
Q 40.625 48.1875 47.75 41.5 
Q 54.890625 34.8125 54.890625 23.390625 
Q 54.890625 11.625 47.5625 5.09375 
Q 40.234375 -1.421875 26.90625 -1.421875 
Q 22.3125 -1.421875 17.546875 -0.640625 
Q 12.796875 0.140625 7.71875 1.703125 
L 7.71875 11.625 
Q 12.109375 9.234375 16.796875 8.0625 
Q 21.484375 6.890625 26.703125 6.890625 
Q 35.15625 6.890625 40.078125 11.328125 
Q 45.015625 15.765625 45.015625 23.390625 
Q 45.015625 31 40.078125 35.4375 
Q 35.15625 39.890625 26.703125 39.890625 
Q 22.75 39.890625 18.8125 39.015625 
Q 14.890625 38.140625 10.796875 36.28125 
z
" id="DejaVuSans-53"/>
      </defs>
      <use xlink:href="#DejaVuSans-80"/>
      <use x="60.302734" xlink:href="#DejaVuSans-71"/>
      <use x="137.792969" xlink:href="#DejaVuSans-65"/>
      <use x="206.201172" xlink:href="#DejaVuSans-77"/>
      <use x="292.480469" xlink:href="#DejaVuSans-53"/>
     </g>
    </g>
   </g>
   <g id="text_18">
    <g clip-path="url(#p4d7143eaa6)">
     <!-- DNM1L -->
     <g transform="translate(580.670404 171.107183)scale(0.1 -0.1)">
      <use xlink:href="#DejaVuSans-68"/>
      <use x="77.001953" xlink:href="#DejaVuSans-78"/>
      <use x="151.806641" xlink:href="#DejaVuSans-77"/>
      <use x="238.085938" xlink:href="#DejaVuSans-49"/>
      <use x="301.708984" xlink:href="#DejaVuSans-76"/>
     </g>
    </g>
   </g>
   <g id="text_19">
    <g clip-path="url(#p4d7143eaa6)">
     <!-- MAP3K5 -->
     <g transform="translate(328.91302 235.74215)scale(0.1 -0.1)">
      <use xlink:href="#DejaVuSans-77"/>
      <use x="86.279297" xlink:href="#DejaVuSans-65"/>
      <use x="154.6875" xlink:href="#DejaVuSans-80"/>
      <use x="214.990234" xlink:href="#DejaVuSans-51"/>
      <use x="278.613281" xlink:href="#DejaVuSans-75"/>
      <use x="344.189453" xlink:href="#DejaVuSans-53"/>
     </g>
    </g>
   </g>
   <g id="text_20">
    <g clip-path="url(#p4d7143eaa6)">
     <!-- DAB2IP -->
     <g transform="translate(413.698135 414.260421)scale(0.1 -0.1)">
      <use xlink:href="#DejaVuSans-68"/>
      <use x="75.251953" xlink:href="#DejaVuSans-65"/>
      <use x="143.660156" xlink:href="#DejaVuSans-66"/>
      <use x="212.263672" xlink:href="#DejaVuSans-50"/>
      <use x="275.886719" xlink:href="#DejaVuSans-73"/>
      <use x="305.378906" xlink:href="#DejaVuSans-80"/>
     </g>
    </g>
   </g>
   <g id="text_21">
    <g clip-path="url(#p4d7143eaa6)">
     <!-- MAP2K3 -->
     <g transform="translate(188.931161 107.162715)scale(0.1 -0.1)">
      <use xlink:href="#DejaVuSans-77"/>
      <use x="86.279297" xlink:href="#DejaVuSans-65"/>
      <use x="154.6875" xlink:href="#DejaVuSans-80"/>
      <use x="214.990234" xlink:href="#DejaVuSans-50"/>
      <use x="278.613281" xlink:href="#DejaVuSans-75"/>
      <use x="344.189453" xlink:href="#DejaVuSans-51"/>
     </g>
    </g>
   </g>
   <g id="text_22">
    <g clip-path="url(#p4d7143eaa6)">
     <!-- IRF1 -->
     <g transform="translate(536.879158 357.329892)scale(0.1 -0.1)">
      <use xlink:href="#DejaVuSans-73"/>
      <use x="29.492188" xlink:href="#DejaVuSans-82"/>
      <use x="98.974609" xlink:href="#DejaVuSans-70"/>
      <use x="156.494141" xlink:href="#DejaVuSans-49"/>
     </g>
    </g>
   </g>
   <g id="text_23">
    <g clip-path="url(#p4d7143eaa6)">
     <!-- FADD -->
     <g transform="translate(133.967695 124.318342)scale(0.1 -0.1)">
      <use xlink:href="#DejaVuSans-70"/>
      <use x="48.394531" xlink:href="#DejaVuSans-65"/>
      <use x="116.802734" xlink:href="#DejaVuSans-68"/>
      <use x="193.804688" xlink:href="#DejaVuSans-68"/>
     </g>
    </g>
   </g>
   <g id="text_24">
    <g clip-path="url(#p4d7143eaa6)">
     <!-- CASP7 -->
     <g transform="translate(49.023754 255.682461)scale(0.1 -0.1)">
      <defs>
       <path d="M 64.40625 67.28125 
L 64.40625 56.890625 
Q 59.421875 61.53125 53.78125 63.8125 
Q 48.140625 66.109375 41.796875 66.109375 
Q 29.296875 66.109375 22.65625 58.46875 
Q 16.015625 50.828125 16.015625 36.375 
Q 16.015625 21.96875 22.65625 14.328125 
Q 29.296875 6.6875 41.796875 6.6875 
Q 48.140625 6.6875 53.78125 8.984375 
Q 59.421875 11.28125 64.40625 15.921875 
L 64.40625 5.609375 
Q 59.234375 2.09375 53.4375 0.328125 
Q 47.65625 -1.421875 41.21875 -1.421875 
Q 24.65625 -1.421875 15.125 8.703125 
Q 5.609375 18.84375 5.609375 36.375 
Q 5.609375 53.953125 15.125 64.078125 
Q 24.65625 74.21875 41.21875 74.21875 
Q 47.75 74.21875 53.53125 72.484375 
Q 59.328125 70.75 64.40625 67.28125 
z
" id="DejaVuSans-67"/>
      </defs>
      <use xlink:href="#DejaVuSans-67"/>
      <use x="69.824219" xlink:href="#DejaVuSans-65"/>
      <use x="138.232422" xlink:href="#DejaVuSans-83"/>
      <use x="201.708984" xlink:href="#DejaVuSans-80"/>
      <use x="262.011719" xlink:href="#DejaVuSans-55"/>
     </g>
    </g>
   </g>
   <g id="text_25">
    <g clip-path="url(#p4d7143eaa6)">
     <!-- CASP3 -->
     <g transform="translate(118.407475 133.74993)scale(0.1 -0.1)">
      <use xlink:href="#DejaVuSans-67"/>
      <use x="69.824219" xlink:href="#DejaVuSans-65"/>
      <use x="138.232422" xlink:href="#DejaVuSans-83"/>
      <use x="201.708984" xlink:href="#DejaVuSans-80"/>
      <use x="262.011719" xlink:href="#DejaVuSans-51"/>
     </g>
    </g>
   </g>
   <g id="text_26">
    <g clip-path="url(#p4d7143eaa6)">
     <!-- ITCH -->
     <g transform="translate(117.341436 369.779705)scale(0.1 -0.1)">
      <defs>
       <path d="M 9.8125 72.90625 
L 19.671875 72.90625 
L 19.671875 43.015625 
L 55.515625 43.015625 
L 55.515625 72.90625 
L 65.375 72.90625 
L 65.375 0 
L 55.515625 0 
L 55.515625 34.71875 
L 19.671875 34.71875 
L 19.671875 0 
L 9.8125 0 
z
" id="DejaVuSans-72"/>
      </defs>
      <use xlink:href="#DejaVuSans-73"/>
      <use x="29.492188" xlink:href="#DejaVuSans-84"/>
      <use x="84.701172" xlink:href="#DejaVuSans-67"/>
      <use x="154.525391" xlink:href="#DejaVuSans-72"/>
     </g>
    </g>
   </g>
   <g id="text_27">
    <g clip-path="url(#p4d7143eaa6)">
     <!-- CFLAR -->
     <g transform="translate(285.124182 188.467049)scale(0.1 -0.1)">
      <use xlink:href="#DejaVuSans-67"/>
      <use x="69.824219" xlink:href="#DejaVuSans-70"/>
      <use x="127.34375" xlink:href="#DejaVuSans-76"/>
      <use x="185.306641" xlink:href="#DejaVuSans-65"/>
      <use x="253.714844" xlink:href="#DejaVuSans-82"/>
     </g>
    </g>
   </g>
   <g id="text_28">
    <g clip-path="url(#p4d7143eaa6)">
     <!-- TRAF5 -->
     <g transform="translate(379.387298 188.876487)scale(0.1 -0.1)">
      <use xlink:href="#DejaVuSans-84"/>
      <use x="61.083984" xlink:href="#DejaVuSans-82"/>
      <use x="126.566406" xlink:href="#DejaVuSans-65"/>
      <use x="194.974609" xlink:href="#DejaVuSans-70"/>
      <use x="252.494141" xlink:href="#DejaVuSans-53"/>
     </g>
    </g>
   </g>
   <g id="text_29">
    <g clip-path="url(#p4d7143eaa6)">
     <!-- MAP2K4 -->
     <g transform="translate(60.031695 326.978413)scale(0.1 -0.1)">
      <use xlink:href="#DejaVuSans-77"/>
      <use x="86.279297" xlink:href="#DejaVuSans-65"/>
      <use x="154.6875" xlink:href="#DejaVuSans-80"/>
      <use x="214.990234" xlink:href="#DejaVuSans-50"/>
      <use x="278.613281" xlink:href="#DejaVuSans-75"/>
      <use x="344.189453" xlink:href="#DejaVuSans-52"/>
     </g>
    </g>
   </g>
   <g id="text_30">
    <g clip-path="url(#p4d7143eaa6)">
     <!-- MAP2K7 -->
     <g transform="translate(255.500936 74.905202)scale(0.1 -0.1)">
      <use xlink:href="#DejaVuSans-77"/>
      <use x="86.279297" xlink:href="#DejaVuSans-65"/>
      <use x="154.6875" xlink:href="#DejaVuSans-80"/>
      <use x="214.990234" xlink:href="#DejaVuSans-50"/>
      <use x="278.613281" xlink:href="#DejaVuSans-75"/>
      <use x="344.189453" xlink:href="#DejaVuSans-55"/>
     </g>
    </g>
   </g>
   <g id="text_31">
    <g clip-path="url(#p4d7143eaa6)">
     <!-- MAP2K6 -->
     <g transform="translate(58.208074 222.388839)scale(0.1 -0.1)">
      <defs>
       <path d="M 33.015625 40.375 
Q 26.375 40.375 22.484375 35.828125 
Q 18.609375 31.296875 18.609375 23.390625 
Q 18.609375 15.53125 22.484375 10.953125 
Q 26.375 6.390625 33.015625 6.390625 
Q 39.65625 6.390625 43.53125 10.953125 
Q 47.40625 15.53125 47.40625 23.390625 
Q 47.40625 31.296875 43.53125 35.828125 
Q 39.65625 40.375 33.015625 40.375 
z
M 52.59375 71.296875 
L 52.59375 62.3125 
Q 48.875 64.0625 45.09375 64.984375 
Q 41.3125 65.921875 37.59375 65.921875 
Q 27.828125 65.921875 22.671875 59.328125 
Q 17.53125 52.734375 16.796875 39.40625 
Q 19.671875 43.65625 24.015625 45.921875 
Q 28.375 48.1875 33.59375 48.1875 
Q 44.578125 48.1875 50.953125 41.515625 
Q 57.328125 34.859375 57.328125 23.390625 
Q 57.328125 12.15625 50.6875 5.359375 
Q 44.046875 -1.421875 33.015625 -1.421875 
Q 20.359375 -1.421875 13.671875 8.265625 
Q 6.984375 17.96875 6.984375 36.375 
Q 6.984375 53.65625 15.1875 63.9375 
Q 23.390625 74.21875 37.203125 74.21875 
Q 40.921875 74.21875 44.703125 73.484375 
Q 48.484375 72.75 52.59375 71.296875 
z
" id="DejaVuSans-54"/>
      </defs>
      <use xlink:href="#DejaVuSans-77"/>
      <use x="86.279297" xlink:href="#DejaVuSans-65"/>
      <use x="154.6875" xlink:href="#DejaVuSans-80"/>
      <use x="214.990234" xlink:href="#DejaVuSans-50"/>
      <use x="278.613281" xlink:href="#DejaVuSans-75"/>
      <use x="344.189453" xlink:href="#DejaVuSans-54"/>
     </g>
    </g>
   </g>
   <g id="text_32">
    <g clip-path="url(#p4d7143eaa6)">
     <!-- RELA -->
     <g transform="translate(505.459343 111.262334)scale(0.1 -0.1)">
      <defs>
       <path d="M 9.8125 72.90625 
L 55.90625 72.90625 
L 55.90625 64.59375 
L 19.671875 64.59375 
L 19.671875 43.015625 
L 54.390625 43.015625 
L 54.390625 34.71875 
L 19.671875 34.71875 
L 19.671875 8.296875 
L 56.78125 8.296875 
L 56.78125 0 
L 9.8125 0 
z
" id="DejaVuSans-69"/>
      </defs>
      <use xlink:href="#DejaVuSans-82"/>
      <use x="69.482422" xlink:href="#DejaVuSans-69"/>
      <use x="132.666016" xlink:href="#DejaVuSans-76"/>
      <use x="190.628906" xlink:href="#DejaVuSans-65"/>
     </g>
    </g>
   </g>
   <g id="text_33">
    <g clip-path="url(#p4d7143eaa6)">
     <!-- NFKB1 -->
     <g transform="translate(222.22356 120.941877)scale(0.1 -0.1)">
      <use xlink:href="#DejaVuSans-78"/>
      <use x="74.804688" xlink:href="#DejaVuSans-70"/>
      <use x="132.324219" xlink:href="#DejaVuSans-75"/>
      <use x="197.900391" xlink:href="#DejaVuSans-66"/>
      <use x="266.503906" xlink:href="#DejaVuSans-49"/>
     </g>
    </g>
   </g>
   <g id="text_34">
    <g clip-path="url(#p4d7143eaa6)">
     <!-- RPS6KA5 -->
     <g transform="translate(331.129274 305.492395)scale(0.1 -0.1)">
      <use xlink:href="#DejaVuSans-82"/>
      <use x="69.482422" xlink:href="#DejaVuSans-80"/>
      <use x="129.785156" xlink:href="#DejaVuSans-83"/>
      <use x="193.261719" xlink:href="#DejaVuSans-54"/>
      <use x="256.884766" xlink:href="#DejaVuSans-75"/>
      <use x="320.710938" xlink:href="#DejaVuSans-65"/>
      <use x="389.119141" xlink:href="#DejaVuSans-53"/>
     </g>
    </g>
   </g>
   <g id="text_35">
    <g clip-path="url(#p4d7143eaa6)">
     <!-- RPS6KA4 -->
     <g transform="translate(341.607358 288.010214)scale(0.1 -0.1)">
      <use xlink:href="#DejaVuSans-82"/>
      <use x="69.482422" xlink:href="#DejaVuSans-80"/>
      <use x="129.785156" xlink:href="#DejaVuSans-83"/>
      <use x="193.261719" xlink:href="#DejaVuSans-54"/>
      <use x="256.884766" xlink:href="#DejaVuSans-75"/>
      <use x="320.710938" xlink:href="#DejaVuSans-65"/>
      <use x="389.119141" xlink:href="#DejaVuSans-52"/>
     </g>
    </g>
   </g>
   <g id="text_36">
    <g clip-path="url(#p4d7143eaa6)">
     <!-- CREB1 -->
     <g transform="translate(601.957496 256.158369)scale(0.1 -0.1)">
      <use xlink:href="#DejaVuSans-67"/>
      <use x="69.824219" xlink:href="#DejaVuSans-82"/>
      <use x="139.306641" xlink:href="#DejaVuSans-69"/>
      <use x="202.490234" xlink:href="#DejaVuSans-66"/>
      <use x="271.09375" xlink:href="#DejaVuSans-49"/>
     </g>
    </g>
   </g>
   <g id="text_37">
    <g clip-path="url(#p4d7143eaa6)">
     <!-- CREB3 -->
     <g transform="translate(447.719698 393.286802)scale(0.1 -0.1)">
      <use xlink:href="#DejaVuSans-67"/>
      <use x="69.824219" xlink:href="#DejaVuSans-82"/>
      <use x="139.306641" xlink:href="#DejaVuSans-69"/>
      <use x="202.490234" xlink:href="#DejaVuSans-66"/>
      <use x="271.09375" xlink:href="#DejaVuSans-51"/>
     </g>
    </g>
   </g>
   <g id="text_38">
    <g clip-path="url(#p4d7143eaa6)">
     <!-- ATF2 -->
     <g transform="translate(229.049526 409.710066)scale(0.1 -0.1)">
      <use xlink:href="#DejaVuSans-65"/>
      <use x="60.658203" xlink:href="#DejaVuSans-84"/>
      <use x="121.742188" xlink:href="#DejaVuSans-70"/>
      <use x="179.261719" xlink:href="#DejaVuSans-50"/>
     </g>
    </g>
   </g>
   <g id="text_39">
    <g clip-path="url(#p4d7143eaa6)">
     <!-- ATF4 -->
     <g transform="translate(599.008911 210.342382)scale(0.1 -0.1)">
      <use xlink:href="#DejaVuSans-65"/>
      <use x="60.658203" xlink:href="#DejaVuSans-84"/>
      <use x="121.742188" xlink:href="#DejaVuSans-70"/>
      <use x="179.261719" xlink:href="#DejaVuSans-52"/>
     </g>
    </g>
   </g>
   <g id="text_40">
    <g clip-path="url(#p4d7143eaa6)">
     <!-- CREB5 -->
     <g transform="translate(60.784436 291.081418)scale(0.1 -0.1)">
      <use xlink:href="#DejaVuSans-67"/>
      <use x="69.824219" xlink:href="#DejaVuSans-82"/>
      <use x="139.306641" xlink:href="#DejaVuSans-69"/>
      <use x="202.490234" xlink:href="#DejaVuSans-66"/>
      <use x="271.09375" xlink:href="#DejaVuSans-53"/>
     </g>
    </g>
   </g>
   <g id="text_41">
    <g clip-path="url(#p4d7143eaa6)">
     <!-- ATF6B -->
     <g transform="translate(102.590754 183.814173)scale(0.1 -0.1)">
      <use xlink:href="#DejaVuSans-65"/>
      <use x="60.658203" xlink:href="#DejaVuSans-84"/>
      <use x="121.742188" xlink:href="#DejaVuSans-70"/>
      <use x="179.261719" xlink:href="#DejaVuSans-54"/>
      <use x="242.884766" xlink:href="#DejaVuSans-66"/>
     </g>
    </g>
   </g>
   <g id="text_42">
    <g clip-path="url(#p4d7143eaa6)">
     <!-- LTA -->
     <g transform="translate(207.262084 363.426664)scale(0.1 -0.1)">
      <use xlink:href="#DejaVuSans-76"/>
      <use x="41.962891" xlink:href="#DejaVuSans-84"/>
      <use x="95.296875" xlink:href="#DejaVuSans-65"/>
     </g>
    </g>
   </g>
   <g id="text_43">
    <g clip-path="url(#p4d7143eaa6)">
     <!-- CASP8 -->
     <g transform="translate(239.272058 116.127294)scale(0.1 -0.1)">
      <use xlink:href="#DejaVuSans-67"/>
      <use x="69.824219" xlink:href="#DejaVuSans-65"/>
      <use x="138.232422" xlink:href="#DejaVuSans-83"/>
      <use x="201.708984" xlink:href="#DejaVuSans-80"/>
      <use x="262.011719" xlink:href="#DejaVuSans-56"/>
     </g>
    </g>
   </g>
   <g id="text_44">
    <g clip-path="url(#p4d7143eaa6)">
     <!-- CASP10 -->
     <g transform="translate(198.323924 312.878451)scale(0.1 -0.1)">
      <defs>
       <path d="M 31.78125 66.40625 
Q 24.171875 66.40625 20.328125 58.90625 
Q 16.5 51.421875 16.5 36.375 
Q 16.5 21.390625 20.328125 13.890625 
Q 24.171875 6.390625 31.78125 6.390625 
Q 39.453125 6.390625 43.28125 13.890625 
Q 47.125 21.390625 47.125 36.375 
Q 47.125 51.421875 43.28125 58.90625 
Q 39.453125 66.40625 31.78125 66.40625 
z
M 31.78125 74.21875 
Q 44.046875 74.21875 50.515625 64.515625 
Q 56.984375 54.828125 56.984375 36.375 
Q 56.984375 17.96875 50.515625 8.265625 
Q 44.046875 -1.421875 31.78125 -1.421875 
Q 19.53125 -1.421875 13.0625 8.265625 
Q 6.59375 17.96875 6.59375 36.375 
Q 6.59375 54.828125 13.0625 64.515625 
Q 19.53125 74.21875 31.78125 74.21875 
z
" id="DejaVuSans-48"/>
      </defs>
      <use xlink:href="#DejaVuSans-67"/>
      <use x="69.824219" xlink:href="#DejaVuSans-65"/>
      <use x="138.232422" xlink:href="#DejaVuSans-83"/>
      <use x="201.708984" xlink:href="#DejaVuSans-80"/>
      <use x="262.011719" xlink:href="#DejaVuSans-49"/>
      <use x="325.634766" xlink:href="#DejaVuSans-48"/>
     </g>
    </g>
   </g>
   <g id="text_45">
    <!-- Importance Score for Each Node in the Network -->
    <g transform="translate(198.616875 16.318125)scale(0.12 -0.12)">
     <defs>
      <path d="M 52 44.1875 
Q 55.375 50.25 60.0625 53.125 
Q 64.75 56 71.09375 56 
Q 79.640625 56 84.28125 50.015625 
Q 88.921875 44.046875 88.921875 33.015625 
L 88.921875 0 
L 79.890625 0 
L 79.890625 32.71875 
Q 79.890625 40.578125 77.09375 44.375 
Q 74.3125 48.1875 68.609375 48.1875 
Q 61.625 48.1875 57.5625 43.546875 
Q 53.515625 38.921875 53.515625 30.90625 
L 53.515625 0 
L 44.484375 0 
L 44.484375 32.71875 
Q 44.484375 40.625 41.703125 44.40625 
Q 38.921875 48.1875 33.109375 48.1875 
Q 26.21875 48.1875 22.15625 43.53125 
Q 18.109375 38.875 18.109375 30.90625 
L 18.109375 0 
L 9.078125 0 
L 9.078125 54.6875 
L 18.109375 54.6875 
L 18.109375 46.1875 
Q 21.1875 51.21875 25.484375 53.609375 
Q 29.78125 56 35.6875 56 
Q 41.65625 56 45.828125 52.96875 
Q 50 49.953125 52 44.1875 
z
" id="DejaVuSans-109"/>
      <path d="M 18.109375 8.203125 
L 18.109375 -20.796875 
L 9.078125 -20.796875 
L 9.078125 54.6875 
L 18.109375 54.6875 
L 18.109375 46.390625 
Q 20.953125 51.265625 25.265625 53.625 
Q 29.59375 56 35.59375 56 
Q 45.5625 56 51.78125 48.09375 
Q 58.015625 40.1875 58.015625 27.296875 
Q 58.015625 14.40625 51.78125 6.484375 
Q 45.5625 -1.421875 35.59375 -1.421875 
Q 29.59375 -1.421875 25.265625 0.953125 
Q 20.953125 3.328125 18.109375 8.203125 
z
M 48.6875 27.296875 
Q 48.6875 37.203125 44.609375 42.84375 
Q 40.53125 48.484375 33.40625 48.484375 
Q 26.265625 48.484375 22.1875 42.84375 
Q 18.109375 37.203125 18.109375 27.296875 
Q 18.109375 17.390625 22.1875 11.75 
Q 26.265625 6.109375 33.40625 6.109375 
Q 40.53125 6.109375 44.609375 11.75 
Q 48.6875 17.390625 48.6875 27.296875 
z
" id="DejaVuSans-112"/>
      <path d="M 30.609375 48.390625 
Q 23.390625 48.390625 19.1875 42.75 
Q 14.984375 37.109375 14.984375 27.296875 
Q 14.984375 17.484375 19.15625 11.84375 
Q 23.34375 6.203125 30.609375 6.203125 
Q 37.796875 6.203125 41.984375 11.859375 
Q 46.1875 17.53125 46.1875 27.296875 
Q 46.1875 37.015625 41.984375 42.703125 
Q 37.796875 48.390625 30.609375 48.390625 
z
M 30.609375 56 
Q 42.328125 56 49.015625 48.375 
Q 55.71875 40.765625 55.71875 27.296875 
Q 55.71875 13.875 49.015625 6.21875 
Q 42.328125 -1.421875 30.609375 -1.421875 
Q 18.84375 -1.421875 12.171875 6.21875 
Q 5.515625 13.875 5.515625 27.296875 
Q 5.515625 40.765625 12.171875 48.375 
Q 18.84375 56 30.609375 56 
z
" id="DejaVuSans-111"/>
      <path d="M 41.109375 46.296875 
Q 39.59375 47.171875 37.8125 47.578125 
Q 36.03125 48 33.890625 48 
Q 26.265625 48 22.1875 43.046875 
Q 18.109375 38.09375 18.109375 28.8125 
L 18.109375 0 
L 9.078125 0 
L 9.078125 54.6875 
L 18.109375 54.6875 
L 18.109375 46.1875 
Q 20.953125 51.171875 25.484375 53.578125 
Q 30.03125 56 36.53125 56 
Q 37.453125 56 38.578125 55.875 
Q 39.703125 55.765625 41.0625 55.515625 
z
" id="DejaVuSans-114"/>
      <path d="M 18.3125 70.21875 
L 18.3125 54.6875 
L 36.8125 54.6875 
L 36.8125 47.703125 
L 18.3125 47.703125 
L 18.3125 18.015625 
Q 18.3125 11.328125 20.140625 9.421875 
Q 21.96875 7.515625 27.59375 7.515625 
L 36.8125 7.515625 
L 36.8125 0 
L 27.59375 0 
Q 17.1875 0 13.234375 3.875 
Q 9.28125 7.765625 9.28125 18.015625 
L 9.28125 47.703125 
L 2.6875 47.703125 
L 2.6875 54.6875 
L 9.28125 54.6875 
L 9.28125 70.21875 
z
" id="DejaVuSans-116"/>
      <path d="M 34.28125 27.484375 
Q 23.390625 27.484375 19.1875 25 
Q 14.984375 22.515625 14.984375 16.5 
Q 14.984375 11.71875 18.140625 8.90625 
Q 21.296875 6.109375 26.703125 6.109375 
Q 34.1875 6.109375 38.703125 11.40625 
Q 43.21875 16.703125 43.21875 25.484375 
L 43.21875 27.484375 
z
M 52.203125 31.203125 
L 52.203125 0 
L 43.21875 0 
L 43.21875 8.296875 
Q 40.140625 3.328125 35.546875 0.953125 
Q 30.953125 -1.421875 24.3125 -1.421875 
Q 15.921875 -1.421875 10.953125 3.296875 
Q 6 8.015625 6 15.921875 
Q 6 25.140625 12.171875 29.828125 
Q 18.359375 34.515625 30.609375 34.515625 
L 43.21875 34.515625 
L 43.21875 35.40625 
Q 43.21875 41.609375 39.140625 45 
Q 35.0625 48.390625 27.6875 48.390625 
Q 23 48.390625 18.546875 47.265625 
Q 14.109375 46.140625 10.015625 43.890625 
L 10.015625 52.203125 
Q 14.9375 54.109375 19.578125 55.046875 
Q 24.21875 56 28.609375 56 
Q 40.484375 56 46.34375 49.84375 
Q 52.203125 43.703125 52.203125 31.203125 
z
" id="DejaVuSans-97"/>
      <path d="M 54.890625 33.015625 
L 54.890625 0 
L 45.90625 0 
L 45.90625 32.71875 
Q 45.90625 40.484375 42.875 44.328125 
Q 39.84375 48.1875 33.796875 48.1875 
Q 26.515625 48.1875 22.3125 43.546875 
Q 18.109375 38.921875 18.109375 30.90625 
L 18.109375 0 
L 9.078125 0 
L 9.078125 54.6875 
L 18.109375 54.6875 
L 18.109375 46.1875 
Q 21.34375 51.125 25.703125 53.5625 
Q 30.078125 56 35.796875 56 
Q 45.21875 56 50.046875 50.171875 
Q 54.890625 44.34375 54.890625 33.015625 
z
" id="DejaVuSans-110"/>
      <path d="M 48.78125 52.59375 
L 48.78125 44.1875 
Q 44.96875 46.296875 41.140625 47.34375 
Q 37.3125 48.390625 33.40625 48.390625 
Q 24.65625 48.390625 19.8125 42.84375 
Q 14.984375 37.3125 14.984375 27.296875 
Q 14.984375 17.28125 19.8125 11.734375 
Q 24.65625 6.203125 33.40625 6.203125 
Q 37.3125 6.203125 41.140625 7.25 
Q 44.96875 8.296875 48.78125 10.40625 
L 48.78125 2.09375 
Q 45.015625 0.34375 40.984375 -0.53125 
Q 36.96875 -1.421875 32.421875 -1.421875 
Q 20.0625 -1.421875 12.78125 6.34375 
Q 5.515625 14.109375 5.515625 27.296875 
Q 5.515625 40.671875 12.859375 48.328125 
Q 20.21875 56 33.015625 56 
Q 37.15625 56 41.109375 55.140625 
Q 45.0625 54.296875 48.78125 52.59375 
z
" id="DejaVuSans-99"/>
      <path d="M 56.203125 29.59375 
L 56.203125 25.203125 
L 14.890625 25.203125 
Q 15.484375 15.921875 20.484375 11.0625 
Q 25.484375 6.203125 34.421875 6.203125 
Q 39.59375 6.203125 44.453125 7.46875 
Q 49.3125 8.734375 54.109375 11.28125 
L 54.109375 2.78125 
Q 49.265625 0.734375 44.1875 -0.34375 
Q 39.109375 -1.421875 33.890625 -1.421875 
Q 20.796875 -1.421875 13.15625 6.1875 
Q 5.515625 13.8125 5.515625 26.8125 
Q 5.515625 40.234375 12.765625 48.109375 
Q 20.015625 56 32.328125 56 
Q 43.359375 56 49.78125 48.890625 
Q 56.203125 41.796875 56.203125 29.59375 
z
M 47.21875 32.234375 
Q 47.125 39.59375 43.09375 43.984375 
Q 39.0625 48.390625 32.421875 48.390625 
Q 24.90625 48.390625 20.390625 44.140625 
Q 15.875 39.890625 15.1875 32.171875 
z
" id="DejaVuSans-101"/>
      <path id="DejaVuSans-32"/>
      <path d="M 37.109375 75.984375 
L 37.109375 68.5 
L 28.515625 68.5 
Q 23.6875 68.5 21.796875 66.546875 
Q 19.921875 64.59375 19.921875 59.515625 
L 19.921875 54.6875 
L 34.71875 54.6875 
L 34.71875 47.703125 
L 19.921875 47.703125 
L 19.921875 0 
L 10.890625 0 
L 10.890625 47.703125 
L 2.296875 47.703125 
L 2.296875 54.6875 
L 10.890625 54.6875 
L 10.890625 58.5 
Q 10.890625 67.625 15.140625 71.796875 
Q 19.390625 75.984375 28.609375 75.984375 
z
" id="DejaVuSans-102"/>
      <path d="M 54.890625 33.015625 
L 54.890625 0 
L 45.90625 0 
L 45.90625 32.71875 
Q 45.90625 40.484375 42.875 44.328125 
Q 39.84375 48.1875 33.796875 48.1875 
Q 26.515625 48.1875 22.3125 43.546875 
Q 18.109375 38.921875 18.109375 30.90625 
L 18.109375 0 
L 9.078125 0 
L 9.078125 75.984375 
L 18.109375 75.984375 
L 18.109375 46.1875 
Q 21.34375 51.125 25.703125 53.5625 
Q 30.078125 56 35.796875 56 
Q 45.21875 56 50.046875 50.171875 
Q 54.890625 44.34375 54.890625 33.015625 
z
" id="DejaVuSans-104"/>
      <path d="M 45.40625 46.390625 
L 45.40625 75.984375 
L 54.390625 75.984375 
L 54.390625 0 
L 45.40625 0 
L 45.40625 8.203125 
Q 42.578125 3.328125 38.25 0.953125 
Q 33.9375 -1.421875 27.875 -1.421875 
Q 17.96875 -1.421875 11.734375 6.484375 
Q 5.515625 14.40625 5.515625 27.296875 
Q 5.515625 40.1875 11.734375 48.09375 
Q 17.96875 56 27.875 56 
Q 33.9375 56 38.25 53.625 
Q 42.578125 51.265625 45.40625 46.390625 
z
M 14.796875 27.296875 
Q 14.796875 17.390625 18.875 11.75 
Q 22.953125 6.109375 30.078125 6.109375 
Q 37.203125 6.109375 41.296875 11.75 
Q 45.40625 17.390625 45.40625 27.296875 
Q 45.40625 37.203125 41.296875 42.84375 
Q 37.203125 48.484375 30.078125 48.484375 
Q 22.953125 48.484375 18.875 42.84375 
Q 14.796875 37.203125 14.796875 27.296875 
z
" id="DejaVuSans-100"/>
      <path d="M 9.421875 54.6875 
L 18.40625 54.6875 
L 18.40625 0 
L 9.421875 0 
z
M 9.421875 75.984375 
L 18.40625 75.984375 
L 18.40625 64.59375 
L 9.421875 64.59375 
z
" id="DejaVuSans-105"/>
      <path d="M 4.203125 54.6875 
L 13.1875 54.6875 
L 24.421875 12.015625 
L 35.59375 54.6875 
L 46.1875 54.6875 
L 57.421875 12.015625 
L 68.609375 54.6875 
L 77.59375 54.6875 
L 63.28125 0 
L 52.6875 0 
L 40.921875 44.828125 
L 29.109375 0 
L 18.5 0 
z
" id="DejaVuSans-119"/>
      <path d="M 9.078125 75.984375 
L 18.109375 75.984375 
L 18.109375 31.109375 
L 44.921875 54.6875 
L 56.390625 54.6875 
L 27.390625 29.109375 
L 57.625 0 
L 45.90625 0 
L 18.109375 26.703125 
L 18.109375 0 
L 9.078125 0 
z
" id="DejaVuSans-107"/>
     </defs>
     <use xlink:href="#DejaVuSans-73"/>
     <use x="29.492188" xlink:href="#DejaVuSans-109"/>
     <use x="126.904297" xlink:href="#DejaVuSans-112"/>
     <use x="190.380859" xlink:href="#DejaVuSans-111"/>
     <use x="251.5625" xlink:href="#DejaVuSans-114"/>
     <use x="292.675781" xlink:href="#DejaVuSans-116"/>
     <use x="331.884766" xlink:href="#DejaVuSans-97"/>
     <use x="393.164062" xlink:href="#DejaVuSans-110"/>
     <use x="456.542969" xlink:href="#DejaVuSans-99"/>
     <use x="511.523438" xlink:href="#DejaVuSans-101"/>
     <use x="573.046875" xlink:href="#DejaVuSans-32"/>
     <use x="604.833984" xlink:href="#DejaVuSans-83"/>
     <use x="668.310547" xlink:href="#DejaVuSans-99"/>
     <use x="723.291016" xlink:href="#DejaVuSans-111"/>
     <use x="784.472656" xlink:href="#DejaVuSans-114"/>
     <use x="823.335938" xlink:href="#DejaVuSans-101"/>
     <use x="884.859375" xlink:href="#DejaVuSans-32"/>
     <use x="916.646484" xlink:href="#DejaVuSans-102"/>
     <use x="951.851562" xlink:href="#DejaVuSans-111"/>
     <use x="1013.033203" xlink:href="#DejaVuSans-114"/>
     <use x="1054.146484" xlink:href="#DejaVuSans-32"/>
     <use x="1085.933594" xlink:href="#DejaVuSans-69"/>
     <use x="1149.117188" xlink:href="#DejaVuSans-97"/>
     <use x="1210.396484" xlink:href="#DejaVuSans-99"/>
     <use x="1265.376953" xlink:href="#DejaVuSans-104"/>
     <use x="1328.755859" xlink:href="#DejaVuSans-32"/>
     <use x="1360.542969" xlink:href="#DejaVuSans-78"/>
     <use x="1435.347656" xlink:href="#DejaVuSans-111"/>
     <use x="1496.529297" xlink:href="#DejaVuSans-100"/>
     <use x="1560.005859" xlink:href="#DejaVuSans-101"/>
     <use x="1621.529297" xlink:href="#DejaVuSans-32"/>
     <use x="1653.316406" xlink:href="#DejaVuSans-105"/>
     <use x="1681.099609" xlink:href="#DejaVuSans-110"/>
     <use x="1744.478516" xlink:href="#DejaVuSans-32"/>
     <use x="1776.265625" xlink:href="#DejaVuSans-116"/>
     <use x="1815.474609" xlink:href="#DejaVuSans-104"/>
     <use x="1878.853516" xlink:href="#DejaVuSans-101"/>
     <use x="1940.376953" xlink:href="#DejaVuSans-32"/>
     <use x="1972.164062" xlink:href="#DejaVuSans-78"/>
     <use x="2046.96875" xlink:href="#DejaVuSans-101"/>
     <use x="2108.492188" xlink:href="#DejaVuSans-116"/>
     <use x="2147.701172" xlink:href="#DejaVuSans-119"/>
     <use x="2229.488281" xlink:href="#DejaVuSans-111"/>
     <use x="2290.669922" xlink:href="#DejaVuSans-114"/>
     <use x="2331.783203" xlink:href="#DejaVuSans-107"/>
    </g>
   </g>
  </g>
 </g>
 <defs>
  <clipPath id="p4d7143eaa6">
   <rect height="443.52" width="669.6" x="7.2" y="22.318125"/>
  </clipPath>
 </defs>
</svg>
