<?xml version="1.0" encoding="utf-8" standalone="no"?>
<!DOCTYPE svg PUBLIC "-//W3C//DTD SVG 1.1//EN"
  "http://www.w3.org/Graphics/SVG/1.1/DTD/svg11.dtd">
<!-- Created with matplotlib (https://matplotlib.org/) -->
<svg height="576pt" version="1.1" viewBox="0 0 864 576" width="864pt" xmlns="http://www.w3.org/2000/svg" xmlns:xlink="http://www.w3.org/1999/xlink">
 <metadata>
  <rdf:RDF xmlns:cc="http://creativecommons.org/ns#" xmlns:dc="http://purl.org/dc/elements/1.1/" xmlns:rdf="http://www.w3.org/1999/02/22-rdf-syntax-ns#">
   <cc:Work>
    <dc:type rdf:resource="http://purl.org/dc/dcmitype/StillImage"/>
    <dc:date>2024-04-26T13:37:26.947628</dc:date>
    <dc:format>image/svg+xml</dc:format>
    <dc:creator>
     <cc:Agent>
      <dc:title>Matplotlib v3.3.1, https://matplotlib.org/</dc:title>
     </cc:Agent>
    </dc:creator>
   </cc:Work>
  </rdf:RDF>
 </metadata>
 <defs>
  <style type="text/css">*{stroke-linecap:butt;stroke-linejoin:round;}</style>
 </defs>
 <g id="figure_1">
  <g id="patch_1">
   <path d="M 0 576 
L 864 576 
L 864 0 
L 0 0 
z
" style="fill:#ffffff;"/>
  </g>
  <g id="axes_1">
   <g id="patch_2">
    <path clip-path="url(#p22cdea3e4e)" d="M 168.836564 311.646322 
Q 168.900083 311.455225 168.610947 312.325087 
" style="fill:none;stroke:#000000;stroke-linecap:round;"/>
    <path clip-path="url(#p22cdea3e4e)" d="M 165.451349 315.490042 
L 168.610947 312.325087 
L 169.247152 316.751738 
L 165.451349 315.490042 
z
" style="stroke:#000000;stroke-linecap:round;"/>
   </g>
   <g id="patch_3">
    <path clip-path="url(#p22cdea3e4e)" d="M 491.67277 140.436948 
Q 554.093303 145.085169 615.398889 149.650365 
" style="fill:none;stroke:#000000;stroke-linecap:round;"/>
    <path clip-path="url(#p22cdea3e4e)" d="M 611.558455 147.358844 
L 615.398889 149.650365 
L 611.261413 151.3478 
L 611.558455 147.358844 
z
" style="stroke:#000000;stroke-linecap:round;"/>
   </g>
   <g id="patch_4">
    <path clip-path="url(#p22cdea3e4e)" d="M 528.954084 144.363328 
Q 572.730987 147.099824 615.392033 149.766567 
" style="fill:none;stroke:#000000;stroke-linecap:round;"/>
    <path clip-path="url(#p22cdea3e4e)" d="M 611.524602 147.52091 
L 615.392033 149.766567 
L 611.275049 151.513118 
L 611.524602 147.52091 
z
" style="stroke:#000000;stroke-linecap:round;"/>
   </g>
   <g id="patch_5">
    <path clip-path="url(#p22cdea3e4e)" d="M 173.796155 311.449237 
Q 178.886894 331.817656 183.706539 351.101406 
" style="fill:none;stroke:#000000;stroke-linecap:round;"/>
    <path clip-path="url(#p22cdea3e4e)" d="M 184.676957 346.735826 
L 183.706539 351.101406 
L 180.796326 347.705723 
L 184.676957 346.735826 
z
" style="stroke:#000000;stroke-linecap:round;"/>
   </g>
   <g id="patch_6">
    <path clip-path="url(#p22cdea3e4e)" d="M 408.840539 203.594984 
Q 442.657004 174.516711 475.625744 146.167384 
" style="fill:none;stroke:#000000;stroke-linecap:round;"/>
    <path clip-path="url(#p22cdea3e4e)" d="M 471.288853 147.258884 
L 475.625744 146.167384 
L 473.89681 150.291797 
L 471.288853 147.258884 
z
" style="stroke:#000000;stroke-linecap:round;"/>
   </g>
   <g id="patch_7">
    <path clip-path="url(#p22cdea3e4e)" d="M 409.947872 205.235901 
Q 447.987444 185.376777 485.035916 166.035072 
" style="fill:none;stroke:#000000;stroke-linecap:round;"/>
    <path clip-path="url(#p22cdea3e4e)" d="M 480.564464 166.113311 
L 485.035916 166.035072 
L 482.415636 169.659176 
L 480.564464 166.113311 
z
" style="stroke:#000000;stroke-linecap:round;"/>
   </g>
   <g id="patch_8">
    <path clip-path="url(#p22cdea3e4e)" d="M 398.039314 201.690713 
Q 381.639603 172.427462 365.78648 144.139526 
" style="fill:none;stroke:#000000;stroke-linecap:round;"/>
    <path clip-path="url(#p22cdea3e4e)" d="M 365.997309 148.60669 
L 365.78648 144.139526 
L 369.486708 146.651161 
L 365.997309 148.60669 
z
" style="stroke:#000000;stroke-linecap:round;"/>
   </g>
   <g id="patch_9">
    <path clip-path="url(#p22cdea3e4e)" d="M 396.985264 216.101476 
Q 392.478683 221.947746 388.654677 226.908529 
" style="fill:none;stroke:#000000;stroke-linecap:round;"/>
    <path clip-path="url(#p22cdea3e4e)" d="M 392.680746 224.961539 
L 388.654677 226.908529 
L 389.512727 222.51948 
L 392.680746 224.961539 
z
" style="stroke:#000000;stroke-linecap:round;"/>
   </g>
   <g id="patch_10">
    <path clip-path="url(#p22cdea3e4e)" d="M 370.27121 225.869633 
Q 382.429678 219.552542 393.596031 213.750917 
" style="fill:none;stroke:#000000;stroke-linecap:round;"/>
    <path clip-path="url(#p22cdea3e4e)" d="M 389.124434 213.820357 
L 393.596031 213.750917 
L 390.968624 217.369858 
L 389.124434 213.820357 
z
" style="stroke:#000000;stroke-linecap:round;"/>
   </g>
   <g id="patch_11">
    <path clip-path="url(#p22cdea3e4e)" d="M 371.219684 230.550563 
Q 395.902722 232.516286 419.471254 234.393252 
" style="fill:none;stroke:#000000;stroke-linecap:round;"/>
    <path clip-path="url(#p22cdea3e4e)" d="M 415.642653 232.082015 
L 419.471254 234.393252 
L 415.325104 236.06939 
L 415.642653 232.082015 
z
" style="stroke:#000000;stroke-linecap:round;"/>
   </g>
   <g id="patch_12">
    <path clip-path="url(#p22cdea3e4e)" d="M 355.173951 225.38336 
Q 350.825348 222.754982 347.43358 220.704933 
" style="fill:none;stroke:#000000;stroke-linecap:round;"/>
    <path clip-path="url(#p22cdea3e4e)" d="M 349.822313 224.485668 
L 347.43358 220.704933 
L 351.891408 221.062388 
L 349.822313 224.485668 
z
" style="stroke:#000000;stroke-linecap:round;"/>
   </g>
   <g id="patch_13">
    <path clip-path="url(#p22cdea3e4e)" d="M 359.31108 221.843045 
Q 345.128358 187.104098 331.368228 153.400244 
" style="fill:none;stroke:#000000;stroke-linecap:round;"/>
    <path clip-path="url(#p22cdea3e4e)" d="M 331.028512 157.859458 
L 331.368228 153.400244 
L 334.73177 156.347545 
L 331.028512 157.859458 
z
" style="stroke:#000000;stroke-linecap:round;"/>
   </g>
   <g id="patch_14">
    <path clip-path="url(#p22cdea3e4e)" d="M 662.037896 214.066563 
Q 604.190653 167.832483 547.216771 122.296432 
" style="fill:none;stroke:#000000;stroke-linecap:round;"/>
    <path clip-path="url(#p22cdea3e4e)" d="M 549.092727 126.356085 
L 547.216771 122.296432 
L 551.590068 123.231458 
L 549.092727 126.356085 
z
" style="stroke:#000000;stroke-linecap:round;"/>
   </g>
   <g id="patch_15">
    <path clip-path="url(#p22cdea3e4e)" d="M 672.069001 227.495873 
Q 694.148327 281.733812 715.80611 334.936231 
" style="fill:none;stroke:#000000;stroke-linecap:round;"/>
    <path clip-path="url(#p22cdea3e4e)" d="M 716.15035 330.477364 
L 715.80611 334.936231 
L 712.44556 331.985519 
L 716.15035 330.477364 
z
" style="stroke:#000000;stroke-linecap:round;"/>
   </g>
   <g id="patch_16">
    <path clip-path="url(#p22cdea3e4e)" d="M 621.737836 225.991151 
Q 583.25044 174.556563 545.432878 124.017142 
" style="fill:none;stroke:#000000;stroke-linecap:round;"/>
    <path clip-path="url(#p22cdea3e4e)" d="M 546.228026 128.418021 
L 545.432878 124.017142 
L 549.43067 126.021551 
L 546.228026 128.418021 
z
" style="stroke:#000000;stroke-linecap:round;"/>
   </g>
   <g id="patch_17">
    <path clip-path="url(#p22cdea3e4e)" d="M 632.473412 239.581163 
Q 673.212628 288.463515 713.236055 336.487004 
" style="fill:none;stroke:#000000;stroke-linecap:round;"/>
    <path clip-path="url(#p22cdea3e4e)" d="M 712.211554 332.133798 
L 713.236055 336.487004 
L 709.13879 334.694682 
L 712.211554 332.133798 
z
" style="stroke:#000000;stroke-linecap:round;"/>
   </g>
   <g id="patch_18">
    <path clip-path="url(#p22cdea3e4e)" d="M 487.63873 155.321996 
Q 467.290645 134.556015 447.725054 114.588598 
" style="fill:none;stroke:#000000;stroke-linecap:round;"/>
    <path clip-path="url(#p22cdea3e4e)" d="M 449.096073 118.845393 
L 447.725054 114.588598 
L 451.953102 116.045859 
L 449.096073 118.845393 
z
" style="stroke:#000000;stroke-linecap:round;"/>
   </g>
   <g id="patch_19">
    <path clip-path="url(#p22cdea3e4e)" d="M 369.179865 132.744547 
Q 400.946593 121.608139 431.658243 110.841608 
" style="fill:none;stroke:#000000;stroke-linecap:round;"/>
    <path clip-path="url(#p22cdea3e4e)" d="M 427.221822 110.277539 
L 431.658243 110.841608 
L 428.545135 114.052303 
L 427.221822 110.277539 
z
" style="stroke:#000000;stroke-linecap:round;"/>
   </g>
   <g id="patch_20">
    <path clip-path="url(#p22cdea3e4e)" d="M 386.291609 226.779239 
Q 411.784433 171.130135 436.81162 116.497486 
" style="fill:none;stroke:#000000;stroke-linecap:round;"/>
    <path clip-path="url(#p22cdea3e4e)" d="M 433.327413 119.30111 
L 436.81162 116.497486 
L 436.963995 120.967026 
L 433.327413 119.30111 
z
" style="stroke:#000000;stroke-linecap:round;"/>
   </g>
   <g id="patch_21">
    <path clip-path="url(#p22cdea3e4e)" d="M 171.983247 289.595215 
Q 178.186768 320.842416 184.172575 350.992985 
" style="fill:none;stroke:#000000;stroke-linecap:round;"/>
    <path clip-path="url(#p22cdea3e4e)" d="M 185.355369 346.680097 
L 184.172575 350.992985 
L 181.431941 347.459017 
L 185.355369 346.680097 
z
" style="stroke:#000000;stroke-linecap:round;"/>
   </g>
   <g id="patch_22">
    <path clip-path="url(#p22cdea3e4e)" d="M 357.456635 405.864234 
Q 366.241262 407.359758 373.923714 408.667644 
" style="fill:none;stroke:#000000;stroke-linecap:round;"/>
    <path clip-path="url(#p22cdea3e4e)" d="M 370.316106 406.024697 
L 373.923714 408.667644 
L 369.644792 409.967961 
L 370.316106 406.024697 
z
" style="stroke:#000000;stroke-linecap:round;"/>
   </g>
   <g id="patch_23">
    <path clip-path="url(#p22cdea3e4e)" d="M 344.197875 411.675546 
Q 331.172717 431.723789 318.756672 450.834491 
" style="fill:none;stroke:#000000;stroke-linecap:round;"/>
    <path clip-path="url(#p22cdea3e4e)" d="M 322.61302 448.569855 
L 318.756672 450.834491 
L 319.258771 446.390631 
L 322.61302 448.569855 
z
" style="stroke:#000000;stroke-linecap:round;"/>
   </g>
   <g id="patch_24">
    <path clip-path="url(#p22cdea3e4e)" d="M 347.396296 412.937365 
Q 346.036518 420.557494 344.873146 427.076975 
" style="fill:none;stroke:#000000;stroke-linecap:round;"/>
    <path clip-path="url(#p22cdea3e4e)" d="M 347.544726 423.49052 
L 344.873146 427.076975 
L 343.60693 422.787838 
L 347.544726 423.49052 
z
" style="stroke:#000000;stroke-linecap:round;"/>
   </g>
   <g id="patch_25">
    <path clip-path="url(#p22cdea3e4e)" d="M 389.221063 388.258559 
Q 387.468624 395.088684 385.994045 400.835852 
" style="fill:none;stroke:#000000;stroke-linecap:round;"/>
    <path clip-path="url(#p22cdea3e4e)" d="M 388.925396 397.458401 
L 385.994045 400.835852 
L 385.050894 396.4643 
L 388.925396 397.458401 
z
" style="stroke:#000000;stroke-linecap:round;"/>
   </g>
   <g id="patch_26">
    <path clip-path="url(#p22cdea3e4e)" d="M 385.295024 386.045707 
Q 352.40022 419.454802 320.28983 452.067218 
" style="fill:none;stroke:#000000;stroke-linecap:round;"/>
    <path clip-path="url(#p22cdea3e4e)" d="M 324.521374 450.62014 
L 320.28983 452.067218 
L 321.671093 447.813736 
L 324.521374 450.62014 
z
" style="stroke:#000000;stroke-linecap:round;"/>
   </g>
   <g id="patch_27">
    <path clip-path="url(#p22cdea3e4e)" d="M 385.772103 386.474109 
Q 367.263757 408.288902 349.478728 429.251161 
" style="fill:none;stroke:#000000;stroke-linecap:round;"/>
    <path clip-path="url(#p22cdea3e4e)" d="M 353.591601 427.494951 
L 349.478728 429.251161 
L 350.541483 424.907136 
L 353.591601 427.494951 
z
" style="stroke:#000000;stroke-linecap:round;"/>
   </g>
   <g id="patch_28">
    <path clip-path="url(#p22cdea3e4e)" d="M 421.819955 387.278495 
Q 406.400871 396.560743 391.939648 405.26636 
" style="fill:none;stroke:#000000;stroke-linecap:round;"/>
    <path clip-path="url(#p22cdea3e4e)" d="M 396.398103 404.916821 
L 391.939648 405.26636 
L 394.335089 401.489872 
L 396.398103 404.916821 
z
" style="stroke:#000000;stroke-linecap:round;"/>
   </g>
   <g id="patch_29">
    <path clip-path="url(#p22cdea3e4e)" d="M 422.003583 387.574387 
Q 371.332457 420.924946 321.595234 453.66083 
" style="fill:none;stroke:#000000;stroke-linecap:round;"/>
    <path clip-path="url(#p22cdea3e4e)" d="M 326.036031 453.132324 
L 321.595234 453.66083 
L 323.836908 449.791089 
L 326.036031 453.132324 
z
" style="stroke:#000000;stroke-linecap:round;"/>
   </g>
   <g id="patch_30">
    <path clip-path="url(#p22cdea3e4e)" d="M 421.895592 387.409518 
Q 386.195917 409.759044 351.443887 431.515303 
" style="fill:none;stroke:#000000;stroke-linecap:round;"/>
    <path clip-path="url(#p22cdea3e4e)" d="M 355.895559 431.087967 
L 351.443887 431.515303 
L 353.773022 427.697564 
L 355.895559 431.087967 
z
" style="stroke:#000000;stroke-linecap:round;"/>
   </g>
   <g id="patch_31">
    <path clip-path="url(#p22cdea3e4e)" d="M 633.77958 366.869521 
Q 634.847169 395.692768 635.873375 423.398748 
" style="fill:none;stroke:#000000;stroke-linecap:round;"/>
    <path clip-path="url(#p22cdea3e4e)" d="M 637.723949 419.327462 
L 635.873375 423.398748 
L 633.72669 419.475517 
L 637.723949 419.327462 
z
" style="stroke:#000000;stroke-linecap:round;"/>
   </g>
   <g id="patch_32">
    <path clip-path="url(#p22cdea3e4e)" d="M 647.951541 337.187729 
Q 642.618159 380.881296 637.420243 423.465067 
" style="fill:none;stroke:#000000;stroke-linecap:round;"/>
    <path clip-path="url(#p22cdea3e4e)" d="M 639.890165 419.736865 
L 637.420243 423.465067 
L 635.919634 419.252208 
L 639.890165 419.736865 
z
" style="stroke:#000000;stroke-linecap:round;"/>
   </g>
   <g id="patch_33">
    <path clip-path="url(#p22cdea3e4e)" d="M 567.535363 373.785308 
Q 598.609495 400.646919 628.837809 426.777374 
" style="fill:none;stroke:#000000;stroke-linecap:round;"/>
    <path clip-path="url(#p22cdea3e4e)" d="M 627.119648 422.648461 
L 628.837809 426.777374 
L 624.503782 425.674555 
L 627.119648 422.648461 
z
" style="stroke:#000000;stroke-linecap:round;"/>
   </g>
   <g id="patch_34">
    <path clip-path="url(#p22cdea3e4e)" d="M 483.197258 199.09007 
Q 508.950847 161.220651 534.075715 124.275737 
" style="fill:none;stroke:#000000;stroke-linecap:round;"/>
    <path clip-path="url(#p22cdea3e4e)" d="M 530.172528 126.458655 
L 534.075715 124.275737 
L 533.480137 128.708038 
L 530.172528 126.458655 
z
" style="stroke:#000000;stroke-linecap:round;"/>
   </g>
   <g id="patch_35">
    <path clip-path="url(#p22cdea3e4e)" d="M 538.595882 230.250837 
Q 539.048389 177.548393 539.491297 125.963941 
" style="fill:none;stroke:#000000;stroke-linecap:round;"/>
    <path clip-path="url(#p22cdea3e4e)" d="M 537.457028 129.946622 
L 539.491297 125.963941 
L 541.45688 129.980965 
L 537.457028 129.946622 
z
" style="stroke:#000000;stroke-linecap:round;"/>
   </g>
   <g id="patch_36">
    <path clip-path="url(#p22cdea3e4e)" d="M 433.475383 227.628169 
Q 456.129193 187.481156 478.233564 148.307856 
" style="fill:none;stroke:#000000;stroke-linecap:round;"/>
    <path clip-path="url(#p22cdea3e4e)" d="M 474.526002 150.808653 
L 478.233564 148.307856 
L 478.009664 152.774384 
L 474.526002 150.808653 
z
" style="stroke:#000000;stroke-linecap:round;"/>
   </g>
   <g id="patch_37">
    <path clip-path="url(#p22cdea3e4e)" d="M 346.720276 211.610251 
Q 411.04965 177.719513 474.389866 144.349895 
" style="fill:none;stroke:#000000;stroke-linecap:round;"/>
    <path clip-path="url(#p22cdea3e4e)" d="M 469.918738 144.44485 
L 474.389866 144.349895 
L 471.783153 147.98377 
L 469.918738 144.44485 
z
" style="stroke:#000000;stroke-linecap:round;"/>
   </g>
   <g id="patch_38">
    <path clip-path="url(#p22cdea3e4e)" d="M 336.324462 144.091802 
Q 405.353753 142.069632 473.265489 140.080201 
" style="fill:none;stroke:#000000;stroke-linecap:round;"/>
    <path clip-path="url(#p22cdea3e4e)" d="M 469.20864 138.198186 
L 473.265489 140.080201 
L 469.325767 142.196471 
L 469.20864 138.198186 
z
" style="stroke:#000000;stroke-linecap:round;"/>
   </g>
   <g id="patch_39">
    <path clip-path="url(#p22cdea3e4e)" d="M 657.841587 348.625104 
Q 649.678889 351.836785 642.556591 354.639113 
" style="fill:none;stroke:#000000;stroke-linecap:round;"/>
    <path clip-path="url(#p22cdea3e4e)" d="M 647.011109 355.035687 
L 642.556591 354.639113 
L 645.546561 351.313443 
L 647.011109 355.035687 
z
" style="stroke:#000000;stroke-linecap:round;"/>
   </g>
   <g id="patch_40">
    <path clip-path="url(#p22cdea3e4e)" d="M 659.771362 339.339197 
Q 657.450766 337.023889 655.92164 335.498248 
" style="fill:none;stroke:#000000;stroke-linecap:round;"/>
    <path clip-path="url(#p22cdea3e4e)" d="M 657.340693 339.739272 
L 655.92164 335.498248 
L 660.165892 336.907621 
L 657.340693 339.739272 
z
" style="stroke:#000000;stroke-linecap:round;"/>
   </g>
   <g id="patch_41">
    <path clip-path="url(#p22cdea3e4e)" d="M 657.438031 347.282586 
Q 613.442098 356.787896 570.538985 366.057102 
" style="fill:none;stroke:#000000;stroke-linecap:round;"/>
    <path clip-path="url(#p22cdea3e4e)" d="M 574.871131 367.167288 
L 570.538985 366.057102 
L 574.026422 363.257497 
L 574.871131 367.167288 
z
" style="stroke:#000000;stroke-linecap:round;"/>
   </g>
   <g id="patch_42">
    <path clip-path="url(#p22cdea3e4e)" d="M 598.215852 307.826185 
Q 613.356233 329.474551 627.855846 350.20672 
" style="fill:none;stroke:#000000;stroke-linecap:round;"/>
    <path clip-path="url(#p22cdea3e4e)" d="M 627.202309 345.782594 
L 627.855846 350.20672 
L 623.924423 348.075074 
L 627.202309 345.782594 
z
" style="stroke:#000000;stroke-linecap:round;"/>
   </g>
   <g id="patch_43">
    <path clip-path="url(#p22cdea3e4e)" d="M 600.999103 304.600193 
Q 621.125235 314.659929 640.251302 324.219798 
" style="fill:none;stroke:#000000;stroke-linecap:round;"/>
    <path clip-path="url(#p22cdea3e4e)" d="M 637.567547 320.642444 
L 640.251302 324.219798 
L 635.779166 324.22039 
L 637.567547 320.642444 
z
" style="stroke:#000000;stroke-linecap:round;"/>
   </g>
   <g id="patch_44">
    <path clip-path="url(#p22cdea3e4e)" d="M 589.51119 308.538888 
Q 577.116483 334.426301 565.204595 359.305306 
" style="fill:none;stroke:#000000;stroke-linecap:round;"/>
    <path clip-path="url(#p22cdea3e4e)" d="M 568.735874 356.561208 
L 565.204595 359.305306 
L 565.128084 354.833824 
L 568.735874 356.561208 
z
" style="stroke:#000000;stroke-linecap:round;"/>
   </g>
   <g id="patch_45">
    <path clip-path="url(#p22cdea3e4e)" d="M 389.999807 416.105139 
Q 419.010603 442.231691 447.19061 467.610051 
" style="fill:none;stroke:#000000;stroke-linecap:round;"/>
    <path clip-path="url(#p22cdea3e4e)" d="M 445.556697 463.44708 
L 447.19061 467.610051 
L 442.879886 466.419399 
L 445.556697 463.44708 
z
" style="stroke:#000000;stroke-linecap:round;"/>
   </g>
   <g id="patch_46">
    <path clip-path="url(#p22cdea3e4e)" d="M 374.91011 409.974387 
Q 298.078246 407.005581 222.363582 404.079944 
" style="fill:none;stroke:#000000;stroke-linecap:round;"/>
    <path clip-path="url(#p22cdea3e4e)" d="M 226.283376 406.232899 
L 222.363582 404.079944 
L 226.437822 402.235882 
L 226.283376 406.232899 
z
" style="stroke:#000000;stroke-linecap:round;"/>
   </g>
   <g id="patch_47">
    <path clip-path="url(#p22cdea3e4e)" d="M 322.039982 459.959382 
Q 383.942085 466.594537 444.732522 473.110535 
" style="fill:none;stroke:#000000;stroke-linecap:round;"/>
    <path clip-path="url(#p22cdea3e4e)" d="M 440.96846 470.695617 
L 444.732522 473.110535 
L 440.54215 474.672834 
L 440.96846 470.695617 
z
" style="stroke:#000000;stroke-linecap:round;"/>
   </g>
   <g id="patch_48">
    <path clip-path="url(#p22cdea3e4e)" d="M 305.836453 454.870371 
Q 263.011925 431.370232 221.167551 408.407957 
" style="fill:none;stroke:#000000;stroke-linecap:round;"/>
    <path clip-path="url(#p22cdea3e4e)" d="M 223.712098 412.08563 
L 221.167551 408.407957 
L 225.636418 408.578924 
L 223.712098 412.08563 
z
" style="stroke:#000000;stroke-linecap:round;"/>
   </g>
   <g id="patch_49">
    <path clip-path="url(#p22cdea3e4e)" d="M 351.364804 439.466617 
Q 398.806123 455.428812 445.187781 471.034471 
" style="fill:none;stroke:#000000;stroke-linecap:round;"/>
    <path clip-path="url(#p22cdea3e4e)" d="M 442.034411 467.86331 
L 445.187781 471.034471 
L 440.75883 471.65447 
L 442.034411 467.86331 
z
" style="stroke:#000000;stroke-linecap:round;"/>
   </g>
   <g id="patch_50">
    <path clip-path="url(#p22cdea3e4e)" d="M 334.75993 434.582344 
Q 277.876116 420.203959 222.076245 406.09956 
" style="fill:none;stroke:#000000;stroke-linecap:round;"/>
    <path clip-path="url(#p22cdea3e4e)" d="M 225.464156 409.018816 
L 222.076245 406.09956 
L 226.444397 405.140785 
L 225.464156 409.018816 
z
" style="stroke:#000000;stroke-linecap:round;"/>
   </g>
   <g id="PathCollection_1">
    <defs>
     <path d="M 0 8.660254 
C 2.296726 8.660254 4.499694 7.747755 6.123724 6.123724 
C 7.747755 4.499694 8.660254 2.296726 8.660254 -0 
C 8.660254 -2.296726 7.747755 -4.499694 6.123724 -6.123724 
C 4.499694 -7.747755 2.296726 -8.660254 0 -8.660254 
C -2.296726 -8.660254 -4.499694 -7.747755 -6.123724 -6.123724 
C -7.747755 -4.499694 -8.660254 -2.296726 -8.660254 0 
C -8.660254 2.296726 -7.747755 4.499694 -6.123724 6.123724 
C -4.499694 7.747755 -2.296726 8.660254 0 8.660254 
z
" id="C0_0_71e53f2d74"/>
    </defs>
    <g clip-path="url(#p22cdea3e4e)">
     <use style="fill:#008000;stroke:#008000;" x="539.575226" xlink:href="#C0_0_71e53f2d74" y="116.18897"/>
    </g>
    <g clip-path="url(#p22cdea3e4e)">
     <use style="fill:#ff0000;stroke:#ff0000;" x="166.105785" xlink:href="#C0_0_71e53f2d74" y="319.861845"/>
    </g>
    <g clip-path="url(#p22cdea3e4e)">
     <use style="fill:#ff0000;stroke:#ff0000;" x="719.494215" xlink:href="#C0_0_71e53f2d74" y="343.996072"/>
    </g>
    <g clip-path="url(#p22cdea3e4e)">
     <use style="fill:#ff0000;stroke:#ff0000;" x="440.884222" xlink:href="#C0_0_71e53f2d74" y="107.607273"/>
    </g>
    <g clip-path="url(#p22cdea3e4e)">
     <use style="fill:#ff0000;stroke:#ff0000;" x="483.037729" xlink:href="#C0_0_71e53f2d74" y="139.793929"/>
    </g>
    <g clip-path="url(#p22cdea3e4e)">
     <use style="fill:#ff0000;stroke:#ff0000;" x="520.312206" xlink:href="#C0_0_71e53f2d74" y="143.823124"/>
    </g>
    <g clip-path="url(#p22cdea3e4e)">
     <use style="fill:#ff0000;stroke:#ff0000;" x="171.695625" xlink:href="#C0_0_71e53f2d74" y="303.044861"/>
    </g>
    <g clip-path="url(#p22cdea3e4e)">
     <use style="fill:#ff0000;stroke:#ff0000;" x="402.271908" xlink:href="#C0_0_71e53f2d74" y="209.243252"/>
    </g>
    <g clip-path="url(#p22cdea3e4e)">
     <use style="fill:#ff0000;stroke:#ff0000;" x="625.153765" xlink:href="#C0_0_71e53f2d74" y="150.376773"/>
    </g>
    <g clip-path="url(#p22cdea3e4e)">
     <use style="fill:#ff0000;stroke:#ff0000;" x="186.077193" xlink:href="#C0_0_71e53f2d74" y="360.586567"/>
    </g>
    <g clip-path="url(#p22cdea3e4e)">
     <use style="fill:#ff0000;stroke:#ff0000;" x="636.235371" xlink:href="#C0_0_71e53f2d74" y="433.172096"/>
    </g>
    <g clip-path="url(#p22cdea3e4e)">
     <use style="fill:#ff0000;stroke:#ff0000;" x="362.585326" xlink:href="#C0_0_71e53f2d74" y="229.862934"/>
    </g>
    <g clip-path="url(#p22cdea3e4e)">
     <use style="fill:#ff0000;stroke:#ff0000;" x="668.803364" xlink:href="#C0_0_71e53f2d74" y="219.473825"/>
    </g>
    <g clip-path="url(#p22cdea3e4e)">
     <use style="fill:#ff0000;stroke:#ff0000;" x="626.928148" xlink:href="#C0_0_71e53f2d74" y="232.927488"/>
    </g>
    <g clip-path="url(#p22cdea3e4e)">
     <use style="fill:#ff0000;stroke:#ff0000;" x="493.702663" xlink:href="#C0_0_71e53f2d74" y="161.510467"/>
    </g>
    <g clip-path="url(#p22cdea3e4e)">
     <use style="fill:#ff0000;stroke:#ff0000;" x="361.006324" xlink:href="#C0_0_71e53f2d74" y="135.609931"/>
    </g>
    <g clip-path="url(#p22cdea3e4e)">
     <use style="fill:#ff0000;stroke:#ff0000;" x="382.684308" xlink:href="#C0_0_71e53f2d74" y="234.653732"/>
    </g>
    <g clip-path="url(#p22cdea3e4e)">
     <use style="fill:#ff0000;stroke:#ff0000;" x="170.296751" xlink:href="#C0_0_71e53f2d74" y="281.100316"/>
    </g>
    <g clip-path="url(#p22cdea3e4e)">
     <use style="fill:#ff0000;stroke:#ff0000;" x="348.917865" xlink:href="#C0_0_71e53f2d74" y="404.410565"/>
    </g>
    <g clip-path="url(#p22cdea3e4e)">
     <use style="fill:#ff0000;stroke:#ff0000;" x="391.372545" xlink:href="#C0_0_71e53f2d74" y="379.873168"/>
    </g>
    <g clip-path="url(#p22cdea3e4e)">
     <use style="fill:#ff0000;stroke:#ff0000;" x="429.238183" xlink:href="#C0_0_71e53f2d74" y="382.812742"/>
    </g>
    <g clip-path="url(#p22cdea3e4e)">
     <use style="fill:#ff0000;stroke:#ff0000;" x="633.459156" xlink:href="#C0_0_71e53f2d74" y="358.218574"/>
    </g>
    <g clip-path="url(#p22cdea3e4e)">
     <use style="fill:#ff0000;stroke:#ff0000;" x="649.00064" xlink:href="#C0_0_71e53f2d74" y="328.593019"/>
    </g>
    <g clip-path="url(#p22cdea3e4e)">
     <use style="fill:#ff0000;stroke:#ff0000;" x="560.983428" xlink:href="#C0_0_71e53f2d74" y="368.121577"/>
    </g>
    <g clip-path="url(#p22cdea3e4e)">
     <use style="fill:#008000;stroke:#008000;" x="478.328226" xlink:href="#C0_0_71e53f2d74" y="206.249748"/>
    </g>
    <g clip-path="url(#p22cdea3e4e)">
     <use style="fill:#008000;stroke:#008000;" x="538.521502" xlink:href="#C0_0_71e53f2d74" y="238.913622"/>
    </g>
    <g clip-path="url(#p22cdea3e4e)">
     <use style="fill:#ff0000;stroke:#ff0000;" x="429.219955" xlink:href="#C0_0_71e53f2d74" y="235.169625"/>
    </g>
    <g clip-path="url(#p22cdea3e4e)">
     <use style="fill:#ff0000;stroke:#ff0000;" x="339.061893" xlink:href="#C0_0_71e53f2d74" y="215.644928"/>
    </g>
    <g clip-path="url(#p22cdea3e4e)">
     <use style="fill:#ff0000;stroke:#ff0000;" x="327.6714" xlink:href="#C0_0_71e53f2d74" y="144.345288"/>
    </g>
    <g clip-path="url(#p22cdea3e4e)">
     <use style="fill:#ff0000;stroke:#ff0000;" x="665.900422" xlink:href="#C0_0_71e53f2d74" y="345.454289"/>
    </g>
    <g clip-path="url(#p22cdea3e4e)">
     <use style="fill:#ff0000;stroke:#ff0000;" x="593.251212" xlink:href="#C0_0_71e53f2d74" y="300.727529"/>
    </g>
    <g clip-path="url(#p22cdea3e4e)">
     <use style="fill:#ff0000;stroke:#ff0000;" x="454.455566" xlink:href="#C0_0_71e53f2d74" y="474.152727"/>
    </g>
    <g clip-path="url(#p22cdea3e4e)">
     <use style="fill:#ff0000;stroke:#ff0000;" x="212.592549" xlink:href="#C0_0_71e53f2d74" y="403.702389"/>
    </g>
    <g clip-path="url(#p22cdea3e4e)">
     <use style="fill:#ff0000;stroke:#ff0000;" x="383.563534" xlink:href="#C0_0_71e53f2d74" y="410.308758"/>
    </g>
    <g clip-path="url(#p22cdea3e4e)">
     <use style="fill:#ff0000;stroke:#ff0000;" x="313.428041" xlink:href="#C0_0_71e53f2d74" y="459.036286"/>
    </g>
    <g clip-path="url(#p22cdea3e4e)">
     <use style="fill:#ff0000;stroke:#ff0000;" x="343.155177" xlink:href="#C0_0_71e53f2d74" y="436.704391"/>
    </g>
   </g>
   <g id="text_1">
    <g clip-path="url(#p22cdea3e4e)">
     <!-- NFKBIA -->
     <g transform="translate(517.709913 119.50022)scale(0.12 -0.12)">
      <defs>
       <path d="M 9.8125 72.90625 
L 23.09375 72.90625 
L 55.421875 11.921875 
L 55.421875 72.90625 
L 64.984375 72.90625 
L 64.984375 0 
L 51.703125 0 
L 19.390625 60.984375 
L 19.390625 0 
L 9.8125 0 
z
" id="DejaVuSans-78"/>
       <path d="M 9.8125 72.90625 
L 51.703125 72.90625 
L 51.703125 64.59375 
L 19.671875 64.59375 
L 19.671875 43.109375 
L 48.578125 43.109375 
L 48.578125 34.8125 
L 19.671875 34.8125 
L 19.671875 0 
L 9.8125 0 
z
" id="DejaVuSans-70"/>
       <path d="M 9.8125 72.90625 
L 19.671875 72.90625 
L 19.671875 42.09375 
L 52.390625 72.90625 
L 65.09375 72.90625 
L 28.90625 38.921875 
L 67.671875 0 
L 54.6875 0 
L 19.671875 35.109375 
L 19.671875 0 
L 9.8125 0 
z
" id="DejaVuSans-75"/>
       <path d="M 19.671875 34.8125 
L 19.671875 8.109375 
L 35.5 8.109375 
Q 43.453125 8.109375 47.28125 11.40625 
Q 51.125 14.703125 51.125 21.484375 
Q 51.125 28.328125 47.28125 31.5625 
Q 43.453125 34.8125 35.5 34.8125 
z
M 19.671875 64.796875 
L 19.671875 42.828125 
L 34.28125 42.828125 
Q 41.5 42.828125 45.03125 45.53125 
Q 48.578125 48.25 48.578125 53.8125 
Q 48.578125 59.328125 45.03125 62.0625 
Q 41.5 64.796875 34.28125 64.796875 
z
M 9.8125 72.90625 
L 35.015625 72.90625 
Q 46.296875 72.90625 52.390625 68.21875 
Q 58.5 63.53125 58.5 54.890625 
Q 58.5 48.1875 55.375 44.234375 
Q 52.25 40.28125 46.1875 39.3125 
Q 53.46875 37.75 57.5 32.78125 
Q 61.53125 27.828125 61.53125 20.40625 
Q 61.53125 10.640625 54.890625 5.3125 
Q 48.25 0 35.984375 0 
L 9.8125 0 
z
" id="DejaVuSans-66"/>
       <path d="M 9.8125 72.90625 
L 19.671875 72.90625 
L 19.671875 0 
L 9.8125 0 
z
" id="DejaVuSans-73"/>
       <path d="M 34.1875 63.1875 
L 20.796875 26.90625 
L 47.609375 26.90625 
z
M 28.609375 72.90625 
L 39.796875 72.90625 
L 67.578125 0 
L 57.328125 0 
L 50.6875 18.703125 
L 17.828125 18.703125 
L 11.1875 0 
L 0.78125 0 
z
" id="DejaVuSans-65"/>
      </defs>
      <use xlink:href="#DejaVuSans-78"/>
      <use x="74.804688" xlink:href="#DejaVuSans-70"/>
      <use x="132.324219" xlink:href="#DejaVuSans-75"/>
      <use x="197.900391" xlink:href="#DejaVuSans-66"/>
      <use x="266.503906" xlink:href="#DejaVuSans-73"/>
      <use x="295.996094" xlink:href="#DejaVuSans-65"/>
     </g>
    </g>
   </g>
   <g id="text_2">
    <g clip-path="url(#p22cdea3e4e)">
     <!-- CDKN1B -->
     <g transform="translate(140.938598 323.173095)scale(0.12 -0.12)">
      <defs>
       <path d="M 64.40625 67.28125 
L 64.40625 56.890625 
Q 59.421875 61.53125 53.78125 63.8125 
Q 48.140625 66.109375 41.796875 66.109375 
Q 29.296875 66.109375 22.65625 58.46875 
Q 16.015625 50.828125 16.015625 36.375 
Q 16.015625 21.96875 22.65625 14.328125 
Q 29.296875 6.6875 41.796875 6.6875 
Q 48.140625 6.6875 53.78125 8.984375 
Q 59.421875 11.28125 64.40625 15.921875 
L 64.40625 5.609375 
Q 59.234375 2.09375 53.4375 0.328125 
Q 47.65625 -1.421875 41.21875 -1.421875 
Q 24.65625 -1.421875 15.125 8.703125 
Q 5.609375 18.84375 5.609375 36.375 
Q 5.609375 53.953125 15.125 64.078125 
Q 24.65625 74.21875 41.21875 74.21875 
Q 47.75 74.21875 53.53125 72.484375 
Q 59.328125 70.75 64.40625 67.28125 
z
" id="DejaVuSans-67"/>
       <path d="M 19.671875 64.796875 
L 19.671875 8.109375 
L 31.59375 8.109375 
Q 46.6875 8.109375 53.6875 14.9375 
Q 60.6875 21.78125 60.6875 36.53125 
Q 60.6875 51.171875 53.6875 57.984375 
Q 46.6875 64.796875 31.59375 64.796875 
z
M 9.8125 72.90625 
L 30.078125 72.90625 
Q 51.265625 72.90625 61.171875 64.09375 
Q 71.09375 55.28125 71.09375 36.53125 
Q 71.09375 17.671875 61.125 8.828125 
Q 51.171875 0 30.078125 0 
L 9.8125 0 
z
" id="DejaVuSans-68"/>
       <path d="M 12.40625 8.296875 
L 28.515625 8.296875 
L 28.515625 63.921875 
L 10.984375 60.40625 
L 10.984375 69.390625 
L 28.421875 72.90625 
L 38.28125 72.90625 
L 38.28125 8.296875 
L 54.390625 8.296875 
L 54.390625 0 
L 12.40625 0 
z
" id="DejaVuSans-49"/>
      </defs>
      <use xlink:href="#DejaVuSans-67"/>
      <use x="69.824219" xlink:href="#DejaVuSans-68"/>
      <use x="146.826172" xlink:href="#DejaVuSans-75"/>
      <use x="212.402344" xlink:href="#DejaVuSans-78"/>
      <use x="287.207031" xlink:href="#DejaVuSans-49"/>
      <use x="350.830078" xlink:href="#DejaVuSans-66"/>
     </g>
    </g>
   </g>
   <g id="text_3">
    <g clip-path="url(#p22cdea3e4e)">
     <!-- BCL2 -->
     <g transform="translate(704.13234 347.307322)scale(0.12 -0.12)">
      <defs>
       <path d="M 9.8125 72.90625 
L 19.671875 72.90625 
L 19.671875 8.296875 
L 55.171875 8.296875 
L 55.171875 0 
L 9.8125 0 
z
" id="DejaVuSans-76"/>
       <path d="M 19.1875 8.296875 
L 53.609375 8.296875 
L 53.609375 0 
L 7.328125 0 
L 7.328125 8.296875 
Q 12.9375 14.109375 22.625 23.890625 
Q 32.328125 33.6875 34.8125 36.53125 
Q 39.546875 41.84375 41.421875 45.53125 
Q 43.3125 49.21875 43.3125 52.78125 
Q 43.3125 58.59375 39.234375 62.25 
Q 35.15625 65.921875 28.609375 65.921875 
Q 23.96875 65.921875 18.8125 64.3125 
Q 13.671875 62.703125 7.8125 59.421875 
L 7.8125 69.390625 
Q 13.765625 71.78125 18.9375 73 
Q 24.125 74.21875 28.421875 74.21875 
Q 39.75 74.21875 46.484375 68.546875 
Q 53.21875 62.890625 53.21875 53.421875 
Q 53.21875 48.921875 51.53125 44.890625 
Q 49.859375 40.875 45.40625 35.40625 
Q 44.1875 33.984375 37.640625 27.21875 
Q 31.109375 20.453125 19.1875 8.296875 
z
" id="DejaVuSans-50"/>
      </defs>
      <use xlink:href="#DejaVuSans-66"/>
      <use x="66.853516" xlink:href="#DejaVuSans-67"/>
      <use x="136.677734" xlink:href="#DejaVuSans-76"/>
      <use x="192.390625" xlink:href="#DejaVuSans-50"/>
     </g>
    </g>
   </g>
   <g id="text_4">
    <g clip-path="url(#p22cdea3e4e)">
     <!-- CCND1 -->
     <g transform="translate(419.578597 110.918523)scale(0.12 -0.12)">
      <use xlink:href="#DejaVuSans-67"/>
      <use x="69.824219" xlink:href="#DejaVuSans-67"/>
      <use x="139.648438" xlink:href="#DejaVuSans-78"/>
      <use x="214.453125" xlink:href="#DejaVuSans-68"/>
      <use x="291.455078" xlink:href="#DejaVuSans-49"/>
     </g>
    </g>
   </g>
   <g id="text_5">
    <g clip-path="url(#p22cdea3e4e)">
     <!-- EP300 -->
     <g transform="translate(464.176166 143.105179)scale(0.12 -0.12)">
      <defs>
       <path d="M 9.8125 72.90625 
L 55.90625 72.90625 
L 55.90625 64.59375 
L 19.671875 64.59375 
L 19.671875 43.015625 
L 54.390625 43.015625 
L 54.390625 34.71875 
L 19.671875 34.71875 
L 19.671875 8.296875 
L 56.78125 8.296875 
L 56.78125 0 
L 9.8125 0 
z
" id="DejaVuSans-69"/>
       <path d="M 19.671875 64.796875 
L 19.671875 37.40625 
L 32.078125 37.40625 
Q 38.96875 37.40625 42.71875 40.96875 
Q 46.484375 44.53125 46.484375 51.125 
Q 46.484375 57.671875 42.71875 61.234375 
Q 38.96875 64.796875 32.078125 64.796875 
z
M 9.8125 72.90625 
L 32.078125 72.90625 
Q 44.34375 72.90625 50.609375 67.359375 
Q 56.890625 61.8125 56.890625 51.125 
Q 56.890625 40.328125 50.609375 34.8125 
Q 44.34375 29.296875 32.078125 29.296875 
L 19.671875 29.296875 
L 19.671875 0 
L 9.8125 0 
z
" id="DejaVuSans-80"/>
       <path d="M 40.578125 39.3125 
Q 47.65625 37.796875 51.625 33 
Q 55.609375 28.21875 55.609375 21.1875 
Q 55.609375 10.40625 48.1875 4.484375 
Q 40.765625 -1.421875 27.09375 -1.421875 
Q 22.515625 -1.421875 17.65625 -0.515625 
Q 12.796875 0.390625 7.625 2.203125 
L 7.625 11.71875 
Q 11.71875 9.328125 16.59375 8.109375 
Q 21.484375 6.890625 26.8125 6.890625 
Q 36.078125 6.890625 40.9375 10.546875 
Q 45.796875 14.203125 45.796875 21.1875 
Q 45.796875 27.640625 41.28125 31.265625 
Q 36.765625 34.90625 28.71875 34.90625 
L 20.21875 34.90625 
L 20.21875 43.015625 
L 29.109375 43.015625 
Q 36.375 43.015625 40.234375 45.921875 
Q 44.09375 48.828125 44.09375 54.296875 
Q 44.09375 59.90625 40.109375 62.90625 
Q 36.140625 65.921875 28.71875 65.921875 
Q 24.65625 65.921875 20.015625 65.03125 
Q 15.375 64.15625 9.8125 62.3125 
L 9.8125 71.09375 
Q 15.4375 72.65625 20.34375 73.4375 
Q 25.25 74.21875 29.59375 74.21875 
Q 40.828125 74.21875 47.359375 69.109375 
Q 53.90625 64.015625 53.90625 55.328125 
Q 53.90625 49.265625 50.4375 45.09375 
Q 46.96875 40.921875 40.578125 39.3125 
z
" id="DejaVuSans-51"/>
       <path d="M 31.78125 66.40625 
Q 24.171875 66.40625 20.328125 58.90625 
Q 16.5 51.421875 16.5 36.375 
Q 16.5 21.390625 20.328125 13.890625 
Q 24.171875 6.390625 31.78125 6.390625 
Q 39.453125 6.390625 43.28125 13.890625 
Q 47.125 21.390625 47.125 36.375 
Q 47.125 51.421875 43.28125 58.90625 
Q 39.453125 66.40625 31.78125 66.40625 
z
M 31.78125 74.21875 
Q 44.046875 74.21875 50.515625 64.515625 
Q 56.984375 54.828125 56.984375 36.375 
Q 56.984375 17.96875 50.515625 8.265625 
Q 44.046875 -1.421875 31.78125 -1.421875 
Q 19.53125 -1.421875 13.0625 8.265625 
Q 6.59375 17.96875 6.59375 36.375 
Q 6.59375 54.828125 13.0625 64.515625 
Q 19.53125 74.21875 31.78125 74.21875 
z
" id="DejaVuSans-48"/>
      </defs>
      <use xlink:href="#DejaVuSans-69"/>
      <use x="63.183594" xlink:href="#DejaVuSans-80"/>
      <use x="123.486328" xlink:href="#DejaVuSans-51"/>
      <use x="187.109375" xlink:href="#DejaVuSans-48"/>
      <use x="250.732422" xlink:href="#DejaVuSans-48"/>
     </g>
    </g>
   </g>
   <g id="text_6">
    <g clip-path="url(#p22cdea3e4e)">
     <!-- MDM2 -->
     <g transform="translate(501.520956 147.134374)scale(0.12 -0.12)">
      <defs>
       <path d="M 9.8125 72.90625 
L 24.515625 72.90625 
L 43.109375 23.296875 
L 61.8125 72.90625 
L 76.515625 72.90625 
L 76.515625 0 
L 66.890625 0 
L 66.890625 64.015625 
L 48.09375 14.015625 
L 38.1875 14.015625 
L 19.390625 64.015625 
L 19.390625 0 
L 9.8125 0 
z
" id="DejaVuSans-77"/>
      </defs>
      <use xlink:href="#DejaVuSans-77"/>
      <use x="86.279297" xlink:href="#DejaVuSans-68"/>
      <use x="163.28125" xlink:href="#DejaVuSans-77"/>
      <use x="249.560547" xlink:href="#DejaVuSans-50"/>
     </g>
    </g>
   </g>
   <g id="text_7">
    <g clip-path="url(#p22cdea3e4e)">
     <!-- CDK2 -->
     <g transform="translate(155.13375 306.356111)scale(0.12 -0.12)">
      <use xlink:href="#DejaVuSans-67"/>
      <use x="69.824219" xlink:href="#DejaVuSans-68"/>
      <use x="146.826172" xlink:href="#DejaVuSans-75"/>
      <use x="212.402344" xlink:href="#DejaVuSans-50"/>
     </g>
    </g>
   </g>
   <g id="text_8">
    <g clip-path="url(#p22cdea3e4e)">
     <!-- CTNNB1 -->
     <g transform="translate(377.50597 212.554502)scale(0.12 -0.12)">
      <defs>
       <path d="M -0.296875 72.90625 
L 61.375 72.90625 
L 61.375 64.59375 
L 35.5 64.59375 
L 35.5 0 
L 25.59375 0 
L 25.59375 64.59375 
L -0.296875 64.59375 
z
" id="DejaVuSans-84"/>
      </defs>
      <use xlink:href="#DejaVuSans-67"/>
      <use x="69.824219" xlink:href="#DejaVuSans-84"/>
      <use x="130.908203" xlink:href="#DejaVuSans-78"/>
      <use x="205.712891" xlink:href="#DejaVuSans-78"/>
      <use x="280.517578" xlink:href="#DejaVuSans-66"/>
      <use x="349.121094" xlink:href="#DejaVuSans-49"/>
     </g>
    </g>
   </g>
   <g id="text_9">
    <g clip-path="url(#p22cdea3e4e)">
     <!-- TP53 -->
     <g transform="translate(610.236265 153.688023)scale(0.12 -0.12)">
      <defs>
       <path d="M 10.796875 72.90625 
L 49.515625 72.90625 
L 49.515625 64.59375 
L 19.828125 64.59375 
L 19.828125 46.734375 
Q 21.96875 47.46875 24.109375 47.828125 
Q 26.265625 48.1875 28.421875 48.1875 
Q 40.625 48.1875 47.75 41.5 
Q 54.890625 34.8125 54.890625 23.390625 
Q 54.890625 11.625 47.5625 5.09375 
Q 40.234375 -1.421875 26.90625 -1.421875 
Q 22.3125 -1.421875 17.546875 -0.640625 
Q 12.796875 0.140625 7.71875 1.703125 
L 7.71875 11.625 
Q 12.109375 9.234375 16.796875 8.0625 
Q 21.484375 6.890625 26.703125 6.890625 
Q 35.15625 6.890625 40.078125 11.328125 
Q 45.015625 15.765625 45.015625 23.390625 
Q 45.015625 31 40.078125 35.4375 
Q 35.15625 39.890625 26.703125 39.890625 
Q 22.75 39.890625 18.8125 39.015625 
Q 14.890625 38.140625 10.796875 36.28125 
z
" id="DejaVuSans-53"/>
      </defs>
      <use xlink:href="#DejaVuSans-84"/>
      <use x="61.083984" xlink:href="#DejaVuSans-80"/>
      <use x="121.386719" xlink:href="#DejaVuSans-53"/>
      <use x="185.009766" xlink:href="#DejaVuSans-51"/>
     </g>
    </g>
   </g>
   <g id="text_10">
    <g clip-path="url(#p22cdea3e4e)">
     <!-- RB1 -->
     <g transform="translate(173.974068 363.897817)scale(0.12 -0.12)">
      <defs>
       <path d="M 44.390625 34.1875 
Q 47.5625 33.109375 50.5625 29.59375 
Q 53.5625 26.078125 56.59375 19.921875 
L 66.609375 0 
L 56 0 
L 46.6875 18.703125 
Q 43.0625 26.03125 39.671875 28.421875 
Q 36.28125 30.8125 30.421875 30.8125 
L 19.671875 30.8125 
L 19.671875 0 
L 9.8125 0 
L 9.8125 72.90625 
L 32.078125 72.90625 
Q 44.578125 72.90625 50.734375 67.671875 
Q 56.890625 62.453125 56.890625 51.90625 
Q 56.890625 45.015625 53.6875 40.46875 
Q 50.484375 35.9375 44.390625 34.1875 
z
M 19.671875 64.796875 
L 19.671875 38.921875 
L 32.078125 38.921875 
Q 39.203125 38.921875 42.84375 42.21875 
Q 46.484375 45.515625 46.484375 51.90625 
Q 46.484375 58.296875 42.84375 61.546875 
Q 39.203125 64.796875 32.078125 64.796875 
z
" id="DejaVuSans-82"/>
      </defs>
      <use xlink:href="#DejaVuSans-82"/>
      <use x="69.482422" xlink:href="#DejaVuSans-66"/>
      <use x="138.085938" xlink:href="#DejaVuSans-49"/>
     </g>
    </g>
   </g>
   <g id="text_11">
    <g clip-path="url(#p22cdea3e4e)">
     <!-- GRB2 -->
     <g transform="translate(619.483184 436.483346)scale(0.12 -0.12)">
      <defs>
       <path d="M 59.515625 10.40625 
L 59.515625 29.984375 
L 43.40625 29.984375 
L 43.40625 38.09375 
L 69.28125 38.09375 
L 69.28125 6.78125 
Q 63.578125 2.734375 56.6875 0.65625 
Q 49.8125 -1.421875 42 -1.421875 
Q 24.90625 -1.421875 15.25 8.5625 
Q 5.609375 18.5625 5.609375 36.375 
Q 5.609375 54.25 15.25 64.234375 
Q 24.90625 74.21875 42 74.21875 
Q 49.125 74.21875 55.546875 72.453125 
Q 61.96875 70.703125 67.390625 67.28125 
L 67.390625 56.78125 
Q 61.921875 61.421875 55.765625 63.765625 
Q 49.609375 66.109375 42.828125 66.109375 
Q 29.4375 66.109375 22.71875 58.640625 
Q 16.015625 51.171875 16.015625 36.375 
Q 16.015625 21.625 22.71875 14.15625 
Q 29.4375 6.6875 42.828125 6.6875 
Q 48.046875 6.6875 52.140625 7.59375 
Q 56.25 8.5 59.515625 10.40625 
z
" id="DejaVuSans-71"/>
      </defs>
      <use xlink:href="#DejaVuSans-71"/>
      <use x="77.490234" xlink:href="#DejaVuSans-82"/>
      <use x="146.972656" xlink:href="#DejaVuSans-66"/>
      <use x="215.576172" xlink:href="#DejaVuSans-50"/>
     </g>
    </g>
   </g>
   <g id="text_12">
    <g clip-path="url(#p22cdea3e4e)">
     <!-- GSK3B -->
     <g transform="translate(342.258451 233.174184)scale(0.12 -0.12)">
      <defs>
       <path d="M 53.515625 70.515625 
L 53.515625 60.890625 
Q 47.90625 63.578125 42.921875 64.890625 
Q 37.9375 66.21875 33.296875 66.21875 
Q 25.25 66.21875 20.875 63.09375 
Q 16.5 59.96875 16.5 54.203125 
Q 16.5 49.359375 19.40625 46.890625 
Q 22.3125 44.4375 30.421875 42.921875 
L 36.375 41.703125 
Q 47.40625 39.59375 52.65625 34.296875 
Q 57.90625 29 57.90625 20.125 
Q 57.90625 9.515625 50.796875 4.046875 
Q 43.703125 -1.421875 29.984375 -1.421875 
Q 24.8125 -1.421875 18.96875 -0.25 
Q 13.140625 0.921875 6.890625 3.21875 
L 6.890625 13.375 
Q 12.890625 10.015625 18.65625 8.296875 
Q 24.421875 6.59375 29.984375 6.59375 
Q 38.421875 6.59375 43.015625 9.90625 
Q 47.609375 13.234375 47.609375 19.390625 
Q 47.609375 24.75 44.3125 27.78125 
Q 41.015625 30.8125 33.5 32.328125 
L 27.484375 33.5 
Q 16.453125 35.6875 11.515625 40.375 
Q 6.59375 45.0625 6.59375 53.421875 
Q 6.59375 63.09375 13.40625 68.65625 
Q 20.21875 74.21875 32.171875 74.21875 
Q 37.3125 74.21875 42.625 73.28125 
Q 47.953125 72.359375 53.515625 70.515625 
z
" id="DejaVuSans-83"/>
      </defs>
      <use xlink:href="#DejaVuSans-71"/>
      <use x="77.490234" xlink:href="#DejaVuSans-83"/>
      <use x="140.966797" xlink:href="#DejaVuSans-75"/>
      <use x="206.542969" xlink:href="#DejaVuSans-51"/>
      <use x="270.166016" xlink:href="#DejaVuSans-66"/>
     </g>
    </g>
   </g>
   <g id="text_13">
    <g clip-path="url(#p22cdea3e4e)">
     <!-- NFKB1 -->
     <g transform="translate(648.994927 222.785075)scale(0.12 -0.12)">
      <use xlink:href="#DejaVuSans-78"/>
      <use x="74.804688" xlink:href="#DejaVuSans-70"/>
      <use x="132.324219" xlink:href="#DejaVuSans-75"/>
      <use x="197.900391" xlink:href="#DejaVuSans-66"/>
      <use x="266.503906" xlink:href="#DejaVuSans-49"/>
     </g>
    </g>
   </g>
   <g id="text_14">
    <g clip-path="url(#p22cdea3e4e)">
     <!-- RELA -->
     <g transform="translate(611.385336 236.238738)scale(0.12 -0.12)">
      <use xlink:href="#DejaVuSans-82"/>
      <use x="69.482422" xlink:href="#DejaVuSans-69"/>
      <use x="132.666016" xlink:href="#DejaVuSans-76"/>
      <use x="190.628906" xlink:href="#DejaVuSans-65"/>
     </g>
    </g>
   </g>
   <g id="text_15">
    <g clip-path="url(#p22cdea3e4e)">
     <!-- TCF7 -->
     <g transform="translate(478.932351 164.821717)scale(0.12 -0.12)">
      <defs>
       <path d="M 8.203125 72.90625 
L 55.078125 72.90625 
L 55.078125 68.703125 
L 28.609375 0 
L 18.3125 0 
L 43.21875 64.59375 
L 8.203125 64.59375 
z
" id="DejaVuSans-55"/>
      </defs>
      <use xlink:href="#DejaVuSans-84"/>
      <use x="55.208984" xlink:href="#DejaVuSans-67"/>
      <use x="125.033203" xlink:href="#DejaVuSans-70"/>
      <use x="182.552734" xlink:href="#DejaVuSans-55"/>
     </g>
    </g>
   </g>
   <g id="text_16">
    <g clip-path="url(#p22cdea3e4e)">
     <!-- TCF7L2 -->
     <g transform="translate(339.075386 138.921181)scale(0.12 -0.12)">
      <use xlink:href="#DejaVuSans-84"/>
      <use x="55.208984" xlink:href="#DejaVuSans-67"/>
      <use x="125.033203" xlink:href="#DejaVuSans-70"/>
      <use x="182.552734" xlink:href="#DejaVuSans-55"/>
      <use x="246.175781" xlink:href="#DejaVuSans-76"/>
      <use x="301.888672" xlink:href="#DejaVuSans-50"/>
     </g>
    </g>
   </g>
   <g id="text_17">
    <g clip-path="url(#p22cdea3e4e)">
     <!-- LEF1 -->
     <g transform="translate(368.281496 237.964982)scale(0.12 -0.12)">
      <use xlink:href="#DejaVuSans-76"/>
      <use x="55.712891" xlink:href="#DejaVuSans-69"/>
      <use x="118.896484" xlink:href="#DejaVuSans-70"/>
      <use x="176.416016" xlink:href="#DejaVuSans-49"/>
     </g>
    </g>
   </g>
   <g id="text_18">
    <g clip-path="url(#p22cdea3e4e)">
     <!-- E2F3 -->
     <g transform="translate(155.419563 284.411566)scale(0.12 -0.12)">
      <use xlink:href="#DejaVuSans-69"/>
      <use x="63.183594" xlink:href="#DejaVuSans-50"/>
      <use x="126.806641" xlink:href="#DejaVuSans-70"/>
      <use x="184.326172" xlink:href="#DejaVuSans-51"/>
     </g>
    </g>
   </g>
   <g id="text_19">
    <g clip-path="url(#p22cdea3e4e)">
     <!-- HRAS -->
     <g transform="translate(332.563178 407.721815)scale(0.12 -0.12)">
      <defs>
       <path d="M 9.8125 72.90625 
L 19.671875 72.90625 
L 19.671875 43.015625 
L 55.515625 43.015625 
L 55.515625 72.90625 
L 65.375 72.90625 
L 65.375 0 
L 55.515625 0 
L 55.515625 34.71875 
L 19.671875 34.71875 
L 19.671875 0 
L 9.8125 0 
z
" id="DejaVuSans-72"/>
      </defs>
      <use xlink:href="#DejaVuSans-72"/>
      <use x="75.195312" xlink:href="#DejaVuSans-82"/>
      <use x="140.677734" xlink:href="#DejaVuSans-65"/>
      <use x="209.085938" xlink:href="#DejaVuSans-83"/>
     </g>
    </g>
   </g>
   <g id="text_20">
    <g clip-path="url(#p22cdea3e4e)">
     <!-- KRAS -->
     <g transform="translate(375.595358 383.184418)scale(0.12 -0.12)">
      <use xlink:href="#DejaVuSans-75"/>
      <use x="65.576172" xlink:href="#DejaVuSans-82"/>
      <use x="131.058594" xlink:href="#DejaVuSans-65"/>
      <use x="199.466797" xlink:href="#DejaVuSans-83"/>
     </g>
    </g>
   </g>
   <g id="text_21">
    <g clip-path="url(#p22cdea3e4e)">
     <!-- NRAS -->
     <g transform="translate(412.906933 386.123992)scale(0.12 -0.12)">
      <use xlink:href="#DejaVuSans-78"/>
      <use x="74.804688" xlink:href="#DejaVuSans-82"/>
      <use x="140.287109" xlink:href="#DejaVuSans-65"/>
      <use x="208.695312" xlink:href="#DejaVuSans-83"/>
     </g>
    </g>
   </g>
   <g id="text_22">
    <g clip-path="url(#p22cdea3e4e)">
     <!-- FGFR1 -->
     <g transform="translate(613.921656 361.529824)scale(0.12 -0.12)">
      <use xlink:href="#DejaVuSans-70"/>
      <use x="57.519531" xlink:href="#DejaVuSans-71"/>
      <use x="135.009766" xlink:href="#DejaVuSans-70"/>
      <use x="192.529297" xlink:href="#DejaVuSans-82"/>
      <use x="262.011719" xlink:href="#DejaVuSans-49"/>
     </g>
    </g>
   </g>
   <g id="text_23">
    <g clip-path="url(#p22cdea3e4e)">
     <!-- ERBB2 -->
     <g transform="translate(628.989702 331.904269)scale(0.12 -0.12)">
      <use xlink:href="#DejaVuSans-69"/>
      <use x="63.183594" xlink:href="#DejaVuSans-82"/>
      <use x="132.666016" xlink:href="#DejaVuSans-66"/>
      <use x="201.269531" xlink:href="#DejaVuSans-66"/>
      <use x="269.873047" xlink:href="#DejaVuSans-50"/>
     </g>
    </g>
   </g>
   <g id="text_24">
    <g clip-path="url(#p22cdea3e4e)">
     <!-- IGF1R -->
     <g transform="translate(543.126866 371.432827)scale(0.12 -0.12)">
      <use xlink:href="#DejaVuSans-73"/>
      <use x="29.492188" xlink:href="#DejaVuSans-71"/>
      <use x="106.982422" xlink:href="#DejaVuSans-70"/>
      <use x="164.501953" xlink:href="#DejaVuSans-49"/>
      <use x="228.125" xlink:href="#DejaVuSans-82"/>
     </g>
    </g>
   </g>
   <g id="text_25">
    <g clip-path="url(#p22cdea3e4e)">
     <!-- IKBKB -->
     <g transform="translate(460.455726 209.560998)scale(0.12 -0.12)">
      <use xlink:href="#DejaVuSans-73"/>
      <use x="29.492188" xlink:href="#DejaVuSans-75"/>
      <use x="95.068359" xlink:href="#DejaVuSans-66"/>
      <use x="163.671875" xlink:href="#DejaVuSans-75"/>
      <use x="229.248047" xlink:href="#DejaVuSans-66"/>
     </g>
    </g>
   </g>
   <g id="text_26">
    <g clip-path="url(#p22cdea3e4e)">
     <!-- IKBKG -->
     <g transform="translate(520.116502 242.224872)scale(0.12 -0.12)">
      <use xlink:href="#DejaVuSans-73"/>
      <use x="29.492188" xlink:href="#DejaVuSans-75"/>
      <use x="95.068359" xlink:href="#DejaVuSans-66"/>
      <use x="163.671875" xlink:href="#DejaVuSans-75"/>
      <use x="229.248047" xlink:href="#DejaVuSans-71"/>
     </g>
    </g>
   </g>
   <g id="text_27">
    <g clip-path="url(#p22cdea3e4e)">
     <!-- ATF4 -->
     <g transform="translate(414.647455 238.480875)scale(0.12 -0.12)">
      <defs>
       <path d="M 37.796875 64.3125 
L 12.890625 25.390625 
L 37.796875 25.390625 
z
M 35.203125 72.90625 
L 47.609375 72.90625 
L 47.609375 25.390625 
L 58.015625 25.390625 
L 58.015625 17.1875 
L 47.609375 17.1875 
L 47.609375 0 
L 37.796875 0 
L 37.796875 17.1875 
L 4.890625 17.1875 
L 4.890625 26.703125 
z
" id="DejaVuSans-52"/>
      </defs>
      <use xlink:href="#DejaVuSans-65"/>
      <use x="60.658203" xlink:href="#DejaVuSans-84"/>
      <use x="121.742188" xlink:href="#DejaVuSans-70"/>
      <use x="179.261719" xlink:href="#DejaVuSans-52"/>
     </g>
    </g>
   </g>
   <g id="text_28">
    <g clip-path="url(#p22cdea3e4e)">
     <!-- CREB1 -->
     <g transform="translate(318.977831 218.956178)scale(0.12 -0.12)">
      <use xlink:href="#DejaVuSans-67"/>
      <use x="69.824219" xlink:href="#DejaVuSans-82"/>
      <use x="139.306641" xlink:href="#DejaVuSans-69"/>
      <use x="202.490234" xlink:href="#DejaVuSans-66"/>
      <use x="271.09375" xlink:href="#DejaVuSans-49"/>
     </g>
    </g>
   </g>
   <g id="text_29">
    <g clip-path="url(#p22cdea3e4e)">
     <!-- CREB3 -->
     <g transform="translate(307.587337 147.656538)scale(0.12 -0.12)">
      <use xlink:href="#DejaVuSans-67"/>
      <use x="69.824219" xlink:href="#DejaVuSans-82"/>
      <use x="139.306641" xlink:href="#DejaVuSans-69"/>
      <use x="202.490234" xlink:href="#DejaVuSans-66"/>
      <use x="271.09375" xlink:href="#DejaVuSans-51"/>
     </g>
    </g>
   </g>
   <g id="text_30">
    <g clip-path="url(#p22cdea3e4e)">
     <!-- PDGFB -->
     <g transform="translate(645.446047 348.765539)scale(0.12 -0.12)">
      <use xlink:href="#DejaVuSans-80"/>
      <use x="60.302734" xlink:href="#DejaVuSans-68"/>
      <use x="137.304688" xlink:href="#DejaVuSans-71"/>
      <use x="214.794922" xlink:href="#DejaVuSans-70"/>
      <use x="272.314453" xlink:href="#DejaVuSans-66"/>
     </g>
    </g>
   </g>
   <g id="text_31">
    <g clip-path="url(#p22cdea3e4e)">
     <!-- TGFA -->
     <g transform="translate(577.929649 304.038779)scale(0.12 -0.12)">
      <use xlink:href="#DejaVuSans-84"/>
      <use x="61.083984" xlink:href="#DejaVuSans-71"/>
      <use x="138.574219" xlink:href="#DejaVuSans-70"/>
      <use x="186.96875" xlink:href="#DejaVuSans-65"/>
     </g>
    </g>
   </g>
   <g id="text_32">
    <g clip-path="url(#p22cdea3e4e)">
     <!-- MAP2K1 -->
     <g transform="translate(429.986816 477.463977)scale(0.12 -0.12)">
      <use xlink:href="#DejaVuSans-77"/>
      <use x="86.279297" xlink:href="#DejaVuSans-65"/>
      <use x="154.6875" xlink:href="#DejaVuSans-80"/>
      <use x="214.990234" xlink:href="#DejaVuSans-50"/>
      <use x="278.613281" xlink:href="#DejaVuSans-75"/>
      <use x="344.189453" xlink:href="#DejaVuSans-49"/>
     </g>
    </g>
   </g>
   <g id="text_33">
    <g clip-path="url(#p22cdea3e4e)">
     <!-- MAP2K2 -->
     <g transform="translate(188.123799 407.013639)scale(0.12 -0.12)">
      <use xlink:href="#DejaVuSans-77"/>
      <use x="86.279297" xlink:href="#DejaVuSans-65"/>
      <use x="154.6875" xlink:href="#DejaVuSans-80"/>
      <use x="214.990234" xlink:href="#DejaVuSans-50"/>
      <use x="278.613281" xlink:href="#DejaVuSans-75"/>
      <use x="344.189453" xlink:href="#DejaVuSans-50"/>
     </g>
    </g>
   </g>
   <g id="text_34">
    <g clip-path="url(#p22cdea3e4e)">
     <!-- BRAF -->
     <g transform="translate(367.962596 413.620008)scale(0.12 -0.12)">
      <use xlink:href="#DejaVuSans-66"/>
      <use x="68.603516" xlink:href="#DejaVuSans-82"/>
      <use x="134.085938" xlink:href="#DejaVuSans-65"/>
      <use x="202.494141" xlink:href="#DejaVuSans-70"/>
     </g>
    </g>
   </g>
   <g id="text_35">
    <g clip-path="url(#p22cdea3e4e)">
     <!-- RAF1 -->
     <g transform="translate(298.126166 462.347536)scale(0.12 -0.12)">
      <use xlink:href="#DejaVuSans-82"/>
      <use x="65.482422" xlink:href="#DejaVuSans-65"/>
      <use x="133.890625" xlink:href="#DejaVuSans-70"/>
      <use x="191.410156" xlink:href="#DejaVuSans-49"/>
     </g>
    </g>
   </g>
   <g id="text_36">
    <g clip-path="url(#p22cdea3e4e)">
     <!-- ARAF -->
     <g transform="translate(327.566427 440.015641)scale(0.12 -0.12)">
      <use xlink:href="#DejaVuSans-65"/>
      <use x="68.408203" xlink:href="#DejaVuSans-82"/>
      <use x="133.890625" xlink:href="#DejaVuSans-65"/>
      <use x="202.298828" xlink:href="#DejaVuSans-70"/>
     </g>
    </g>
   </g>
   <g id="text_37">
    <!-- Frame: 11 -->
    <g transform="translate(121.392 91.296)scale(0.1 -0.1)">
     <defs>
      <path d="M 41.109375 46.296875 
Q 39.59375 47.171875 37.8125 47.578125 
Q 36.03125 48 33.890625 48 
Q 26.265625 48 22.1875 43.046875 
Q 18.109375 38.09375 18.109375 28.8125 
L 18.109375 0 
L 9.078125 0 
L 9.078125 54.6875 
L 18.109375 54.6875 
L 18.109375 46.1875 
Q 20.953125 51.171875 25.484375 53.578125 
Q 30.03125 56 36.53125 56 
Q 37.453125 56 38.578125 55.875 
Q 39.703125 55.765625 41.0625 55.515625 
z
" id="DejaVuSans-114"/>
      <path d="M 34.28125 27.484375 
Q 23.390625 27.484375 19.1875 25 
Q 14.984375 22.515625 14.984375 16.5 
Q 14.984375 11.71875 18.140625 8.90625 
Q 21.296875 6.109375 26.703125 6.109375 
Q 34.1875 6.109375 38.703125 11.40625 
Q 43.21875 16.703125 43.21875 25.484375 
L 43.21875 27.484375 
z
M 52.203125 31.203125 
L 52.203125 0 
L 43.21875 0 
L 43.21875 8.296875 
Q 40.140625 3.328125 35.546875 0.953125 
Q 30.953125 -1.421875 24.3125 -1.421875 
Q 15.921875 -1.421875 10.953125 3.296875 
Q 6 8.015625 6 15.921875 
Q 6 25.140625 12.171875 29.828125 
Q 18.359375 34.515625 30.609375 34.515625 
L 43.21875 34.515625 
L 43.21875 35.40625 
Q 43.21875 41.609375 39.140625 45 
Q 35.0625 48.390625 27.6875 48.390625 
Q 23 48.390625 18.546875 47.265625 
Q 14.109375 46.140625 10.015625 43.890625 
L 10.015625 52.203125 
Q 14.9375 54.109375 19.578125 55.046875 
Q 24.21875 56 28.609375 56 
Q 40.484375 56 46.34375 49.84375 
Q 52.203125 43.703125 52.203125 31.203125 
z
" id="DejaVuSans-97"/>
      <path d="M 52 44.1875 
Q 55.375 50.25 60.0625 53.125 
Q 64.75 56 71.09375 56 
Q 79.640625 56 84.28125 50.015625 
Q 88.921875 44.046875 88.921875 33.015625 
L 88.921875 0 
L 79.890625 0 
L 79.890625 32.71875 
Q 79.890625 40.578125 77.09375 44.375 
Q 74.3125 48.1875 68.609375 48.1875 
Q 61.625 48.1875 57.5625 43.546875 
Q 53.515625 38.921875 53.515625 30.90625 
L 53.515625 0 
L 44.484375 0 
L 44.484375 32.71875 
Q 44.484375 40.625 41.703125 44.40625 
Q 38.921875 48.1875 33.109375 48.1875 
Q 26.21875 48.1875 22.15625 43.53125 
Q 18.109375 38.875 18.109375 30.90625 
L 18.109375 0 
L 9.078125 0 
L 9.078125 54.6875 
L 18.109375 54.6875 
L 18.109375 46.1875 
Q 21.1875 51.21875 25.484375 53.609375 
Q 29.78125 56 35.6875 56 
Q 41.65625 56 45.828125 52.96875 
Q 50 49.953125 52 44.1875 
z
" id="DejaVuSans-109"/>
      <path d="M 56.203125 29.59375 
L 56.203125 25.203125 
L 14.890625 25.203125 
Q 15.484375 15.921875 20.484375 11.0625 
Q 25.484375 6.203125 34.421875 6.203125 
Q 39.59375 6.203125 44.453125 7.46875 
Q 49.3125 8.734375 54.109375 11.28125 
L 54.109375 2.78125 
Q 49.265625 0.734375 44.1875 -0.34375 
Q 39.109375 -1.421875 33.890625 -1.421875 
Q 20.796875 -1.421875 13.15625 6.1875 
Q 5.515625 13.8125 5.515625 26.8125 
Q 5.515625 40.234375 12.765625 48.109375 
Q 20.015625 56 32.328125 56 
Q 43.359375 56 49.78125 48.890625 
Q 56.203125 41.796875 56.203125 29.59375 
z
M 47.21875 32.234375 
Q 47.125 39.59375 43.09375 43.984375 
Q 39.0625 48.390625 32.421875 48.390625 
Q 24.90625 48.390625 20.390625 44.140625 
Q 15.875 39.890625 15.1875 32.171875 
z
" id="DejaVuSans-101"/>
      <path d="M 11.71875 12.40625 
L 22.015625 12.40625 
L 22.015625 0 
L 11.71875 0 
z
M 11.71875 51.703125 
L 22.015625 51.703125 
L 22.015625 39.3125 
L 11.71875 39.3125 
z
" id="DejaVuSans-58"/>
      <path id="DejaVuSans-32"/>
     </defs>
     <use xlink:href="#DejaVuSans-70"/>
     <use x="50.269531" xlink:href="#DejaVuSans-114"/>
     <use x="91.382812" xlink:href="#DejaVuSans-97"/>
     <use x="152.662109" xlink:href="#DejaVuSans-109"/>
     <use x="250.074219" xlink:href="#DejaVuSans-101"/>
     <use x="311.597656" xlink:href="#DejaVuSans-58"/>
     <use x="345.289062" xlink:href="#DejaVuSans-32"/>
     <use x="377.076172" xlink:href="#DejaVuSans-49"/>
     <use x="440.699219" xlink:href="#DejaVuSans-49"/>
    </g>
   </g>
   <g id="text_38">
    <!-- Network: hsa05215 -->
    <g transform="translate(384.1275 63.12)scale(0.12 -0.12)">
     <defs>
      <path d="M 18.3125 70.21875 
L 18.3125 54.6875 
L 36.8125 54.6875 
L 36.8125 47.703125 
L 18.3125 47.703125 
L 18.3125 18.015625 
Q 18.3125 11.328125 20.140625 9.421875 
Q 21.96875 7.515625 27.59375 7.515625 
L 36.8125 7.515625 
L 36.8125 0 
L 27.59375 0 
Q 17.1875 0 13.234375 3.875 
Q 9.28125 7.765625 9.28125 18.015625 
L 9.28125 47.703125 
L 2.6875 47.703125 
L 2.6875 54.6875 
L 9.28125 54.6875 
L 9.28125 70.21875 
z
" id="DejaVuSans-116"/>
      <path d="M 4.203125 54.6875 
L 13.1875 54.6875 
L 24.421875 12.015625 
L 35.59375 54.6875 
L 46.1875 54.6875 
L 57.421875 12.015625 
L 68.609375 54.6875 
L 77.59375 54.6875 
L 63.28125 0 
L 52.6875 0 
L 40.921875 44.828125 
L 29.109375 0 
L 18.5 0 
z
" id="DejaVuSans-119"/>
      <path d="M 30.609375 48.390625 
Q 23.390625 48.390625 19.1875 42.75 
Q 14.984375 37.109375 14.984375 27.296875 
Q 14.984375 17.484375 19.15625 11.84375 
Q 23.34375 6.203125 30.609375 6.203125 
Q 37.796875 6.203125 41.984375 11.859375 
Q 46.1875 17.53125 46.1875 27.296875 
Q 46.1875 37.015625 41.984375 42.703125 
Q 37.796875 48.390625 30.609375 48.390625 
z
M 30.609375 56 
Q 42.328125 56 49.015625 48.375 
Q 55.71875 40.765625 55.71875 27.296875 
Q 55.71875 13.875 49.015625 6.21875 
Q 42.328125 -1.421875 30.609375 -1.421875 
Q 18.84375 -1.421875 12.171875 6.21875 
Q 5.515625 13.875 5.515625 27.296875 
Q 5.515625 40.765625 12.171875 48.375 
Q 18.84375 56 30.609375 56 
z
" id="DejaVuSans-111"/>
      <path d="M 9.078125 75.984375 
L 18.109375 75.984375 
L 18.109375 31.109375 
L 44.921875 54.6875 
L 56.390625 54.6875 
L 27.390625 29.109375 
L 57.625 0 
L 45.90625 0 
L 18.109375 26.703125 
L 18.109375 0 
L 9.078125 0 
z
" id="DejaVuSans-107"/>
      <path d="M 54.890625 33.015625 
L 54.890625 0 
L 45.90625 0 
L 45.90625 32.71875 
Q 45.90625 40.484375 42.875 44.328125 
Q 39.84375 48.1875 33.796875 48.1875 
Q 26.515625 48.1875 22.3125 43.546875 
Q 18.109375 38.921875 18.109375 30.90625 
L 18.109375 0 
L 9.078125 0 
L 9.078125 75.984375 
L 18.109375 75.984375 
L 18.109375 46.1875 
Q 21.34375 51.125 25.703125 53.5625 
Q 30.078125 56 35.796875 56 
Q 45.21875 56 50.046875 50.171875 
Q 54.890625 44.34375 54.890625 33.015625 
z
" id="DejaVuSans-104"/>
      <path d="M 44.28125 53.078125 
L 44.28125 44.578125 
Q 40.484375 46.53125 36.375 47.5 
Q 32.28125 48.484375 27.875 48.484375 
Q 21.1875 48.484375 17.84375 46.4375 
Q 14.5 44.390625 14.5 40.28125 
Q 14.5 37.15625 16.890625 35.375 
Q 19.28125 33.59375 26.515625 31.984375 
L 29.59375 31.296875 
Q 39.15625 29.25 43.1875 25.515625 
Q 47.21875 21.78125 47.21875 15.09375 
Q 47.21875 7.46875 41.1875 3.015625 
Q 35.15625 -1.421875 24.609375 -1.421875 
Q 20.21875 -1.421875 15.453125 -0.5625 
Q 10.6875 0.296875 5.421875 2 
L 5.421875 11.28125 
Q 10.40625 8.6875 15.234375 7.390625 
Q 20.0625 6.109375 24.8125 6.109375 
Q 31.15625 6.109375 34.5625 8.28125 
Q 37.984375 10.453125 37.984375 14.40625 
Q 37.984375 18.0625 35.515625 20.015625 
Q 33.0625 21.96875 24.703125 23.78125 
L 21.578125 24.515625 
Q 13.234375 26.265625 9.515625 29.90625 
Q 5.8125 33.546875 5.8125 39.890625 
Q 5.8125 47.609375 11.28125 51.796875 
Q 16.75 56 26.8125 56 
Q 31.78125 56 36.171875 55.265625 
Q 40.578125 54.546875 44.28125 53.078125 
z
" id="DejaVuSans-115"/>
     </defs>
     <use xlink:href="#DejaVuSans-78"/>
     <use x="74.804688" xlink:href="#DejaVuSans-101"/>
     <use x="136.328125" xlink:href="#DejaVuSans-116"/>
     <use x="175.537109" xlink:href="#DejaVuSans-119"/>
     <use x="257.324219" xlink:href="#DejaVuSans-111"/>
     <use x="318.505859" xlink:href="#DejaVuSans-114"/>
     <use x="359.619141" xlink:href="#DejaVuSans-107"/>
     <use x="417.529297" xlink:href="#DejaVuSans-58"/>
     <use x="451.220703" xlink:href="#DejaVuSans-32"/>
     <use x="483.007812" xlink:href="#DejaVuSans-104"/>
     <use x="546.386719" xlink:href="#DejaVuSans-115"/>
     <use x="598.486328" xlink:href="#DejaVuSans-97"/>
     <use x="659.765625" xlink:href="#DejaVuSans-48"/>
     <use x="723.388672" xlink:href="#DejaVuSans-53"/>
     <use x="787.011719" xlink:href="#DejaVuSans-50"/>
     <use x="850.634766" xlink:href="#DejaVuSans-49"/>
     <use x="914.257812" xlink:href="#DejaVuSans-53"/>
    </g>
   </g>
  </g>
 </g>
 <defs>
  <clipPath id="p22cdea3e4e">
   <rect height="443.52" width="669.6" x="108" y="69.12"/>
  </clipPath>
 </defs>
</svg>
