<?xml version="1.0" encoding="utf-8" standalone="no"?>
<!DOCTYPE svg PUBLIC "-//W3C//DTD SVG 1.1//EN"
  "http://www.w3.org/Graphics/SVG/1.1/DTD/svg11.dtd">
<!-- Created with matplotlib (https://matplotlib.org/) -->
<svg height="864pt" version="1.1" viewBox="0 0 1152 864" width="1152pt" xmlns="http://www.w3.org/2000/svg" xmlns:xlink="http://www.w3.org/1999/xlink">
 <metadata>
  <rdf:RDF xmlns:cc="http://creativecommons.org/ns#" xmlns:dc="http://purl.org/dc/elements/1.1/" xmlns:rdf="http://www.w3.org/1999/02/22-rdf-syntax-ns#">
   <cc:Work>
    <dc:type rdf:resource="http://purl.org/dc/dcmitype/StillImage"/>
    <dc:date>2024-04-25T16:41:33.326040</dc:date>
    <dc:format>image/svg+xml</dc:format>
    <dc:creator>
     <cc:Agent>
      <dc:title>Matplotlib v3.3.1, https://matplotlib.org/</dc:title>
     </cc:Agent>
    </dc:creator>
   </cc:Work>
  </rdf:RDF>
 </metadata>
 <defs>
  <style type="text/css">*{stroke-linecap:butt;stroke-linejoin:round;}</style>
 </defs>
 <g id="figure_1">
  <g id="patch_1">
   <path d="M 0 864 
L 1152 864 
L 1152 0 
L 0 0 
z
" style="fill:#ffffff;"/>
  </g>
  <g id="axes_1">
   <g id="patch_2">
    <path clip-path="url(#p143f5e8936)" d="M 292.23428 579.240626 
Q 266.28548 421.884155 240.518592 265.630819 
" style="fill:none;stroke:#000000;stroke-linecap:round;"/>
    <path clip-path="url(#p143f5e8936)" d="M 239.196072 269.902931 
L 240.518592 265.630819 
L 243.14277 269.252103 
L 239.196072 269.902931 
z
" style="stroke:#000000;stroke-linecap:round;"/>
   </g>
   <g id="patch_3">
    <path clip-path="url(#p143f5e8936)" d="M 569.896934 170.493553 
Q 593.761793 271.710371 617.370078 371.838994 
" style="fill:none;stroke:#000000;stroke-linecap:round;"/>
    <path clip-path="url(#p143f5e8936)" d="M 618.398753 367.486773 
L 617.370078 371.838994 
L 614.505506 368.404722 
L 618.398753 367.486773 
z
" style="stroke:#000000;stroke-linecap:round;"/>
   </g>
   <g id="patch_4">
    <path clip-path="url(#p143f5e8936)" d="M 623.203614 373.491433 
Q 670.771114 270.393443 717.870224 168.310644 
" style="fill:none;stroke:#000000;stroke-linecap:round;"/>
    <path clip-path="url(#p143f5e8936)" d="M 714.378434 171.104817 
L 717.870224 168.310644 
L 718.010488 172.78058 
L 714.378434 171.104817 
z
" style="stroke:#000000;stroke-linecap:round;"/>
   </g>
   <g id="patch_5">
    <path clip-path="url(#p143f5e8936)" d="M 628.189259 381.724545 
Q 768.68581 388.667335 908.065689 395.554943 
" style="fill:none;stroke:#000000;stroke-linecap:round;"/>
    <path clip-path="url(#p143f5e8936)" d="M 904.169275 393.359957 
L 908.065689 395.554943 
L 903.971852 397.355082 
L 904.169275 393.359957 
z
" style="stroke:#000000;stroke-linecap:round;"/>
   </g>
   <g id="patch_6">
    <path clip-path="url(#p143f5e8936)" d="M 612.62439 386.329903 
Q 437.714218 512.434061 263.710953 637.884369 
" style="fill:none;stroke:#000000;stroke-linecap:round;"/>
    <path clip-path="url(#p143f5e8936)" d="M 268.125245 637.167414 
L 263.710953 637.884369 
L 265.785964 633.922762 
L 268.125245 637.167414 
z
" style="stroke:#000000;stroke-linecap:round;"/>
   </g>
   <g id="patch_7">
    <path clip-path="url(#p143f5e8936)" d="M 442.613762 494.164203 
Q 389.96342 435.134847 338.057278 376.939858 
" style="fill:none;stroke:#000000;stroke-linecap:round;"/>
    <path clip-path="url(#p143f5e8936)" d="M 339.22725 381.256241 
L 338.057278 376.939858 
L 342.212368 378.593711 
L 339.22725 381.256241 
z
" style="stroke:#000000;stroke-linecap:round;"/>
   </g>
   <g id="patch_8">
    <path clip-path="url(#p143f5e8936)" d="M 455.510889 496.290102 
Q 652.987574 384.426421 849.491461 273.113796 
" style="fill:none;stroke:#000000;stroke-linecap:round;"/>
    <path clip-path="url(#p143f5e8936)" d="M 845.025311 273.345121 
L 849.491461 273.113796 
L 846.996831 276.825511 
L 845.025311 273.345121 
z
" style="stroke:#000000;stroke-linecap:round;"/>
   </g>
   <g id="patch_9">
    <path clip-path="url(#p143f5e8936)" d="M 440.842363 504.467439 
Q 369.796948 543.43926 299.731772 581.873372 
" style="fill:none;stroke:#000000;stroke-linecap:round;"/>
    <path clip-path="url(#p143f5e8936)" d="M 304.200666 581.703114 
L 299.731772 581.873372 
L 302.276902 578.196102 
L 304.200666 581.703114 
z
" style="stroke:#000000;stroke-linecap:round;"/>
   </g>
   <g id="patch_10">
    <path clip-path="url(#p143f5e8936)" d="M 339.541014 369.511694 
Q 594.67146 320.133032 848.704242 270.966815 
" style="fill:none;stroke:#000000;stroke-linecap:round;"/>
    <path clip-path="url(#p143f5e8936)" d="M 844.397085 269.76332 
L 848.704242 270.966815 
L 845.157152 273.690443 
L 844.397085 269.76332 
z
" style="stroke:#000000;stroke-linecap:round;"/>
   </g>
   <g id="patch_11">
    <path clip-path="url(#p143f5e8936)" d="M 588.89358 523.58719 
Q 444.143774 553.86475 300.488318 583.913403 
" style="fill:none;stroke:#000000;stroke-linecap:round;"/>
    <path clip-path="url(#p143f5e8936)" d="M 304.813064 585.052073 
L 300.488318 583.913403 
L 303.994102 581.136808 
L 304.813064 585.052073 
z
" style="stroke:#000000;stroke-linecap:round;"/>
   </g>
   <g id="patch_12">
    <path clip-path="url(#p143f5e8936)" d="M 588.73751 522.355976 
Q 441.210812 528.011623 294.801328 533.62444 
" style="fill:none;stroke:#000000;stroke-linecap:round;"/>
    <path clip-path="url(#p143f5e8936)" d="M 298.875009 535.469739 
L 294.801328 533.62444 
L 298.721776 531.472675 
L 298.875009 535.469739 
z
" style="stroke:#000000;stroke-linecap:round;"/>
   </g>
   <g id="patch_13">
    <path clip-path="url(#p143f5e8936)" d="M 598.414028 515.037077 
Q 644.533558 372.628317 690.308623 231.283203 
" style="fill:none;stroke:#000000;stroke-linecap:round;"/>
    <path clip-path="url(#p143f5e8936)" d="M 687.173518 234.472422 
L 690.308623 231.283203 
L 690.978935 235.704818 
L 687.173518 234.472422 
z
" style="stroke:#000000;stroke-linecap:round;"/>
   </g>
   <g id="patch_14">
    <path clip-path="url(#p143f5e8936)" d="M 478.149409 464.281323 
Q 465.854614 479.122292 454.273075 493.102294 
" style="fill:none;stroke:#000000;stroke-linecap:round;"/>
    <path clip-path="url(#p143f5e8936)" d="M 458.365045 491.297915 
L 454.273075 493.102294 
L 455.284754 488.746091 
L 458.365045 491.297915 
z
" style="stroke:#000000;stroke-linecap:round;"/>
   </g>
   <g id="patch_15">
    <path clip-path="url(#p143f5e8936)" d="M 495.67048 462.443445 
Q 631.596959 570.138305 766.64712 677.138855 
" style="fill:none;stroke:#000000;stroke-linecap:round;"/>
    <path clip-path="url(#p143f5e8936)" d="M 764.753925 673.087212 
L 766.64712 677.138855 
L 762.269888 676.222425 
L 764.753925 673.087212 
z
" style="stroke:#000000;stroke-linecap:round;"/>
   </g>
   <g id="patch_16">
    <path clip-path="url(#p143f5e8936)" d="M 495.917726 462.119198 
Q 507.532382 470.711658 518.248227 478.639183 
" style="fill:none;stroke:#000000;stroke-linecap:round;"/>
    <path clip-path="url(#p143f5e8936)" d="M 516.222016 474.652396 
L 518.248227 478.639183 
L 513.843071 477.868079 
L 516.222016 474.652396 
z
" style="stroke:#000000;stroke-linecap:round;"/>
   </g>
   <g id="patch_17">
    <path clip-path="url(#p143f5e8936)" d="M 498.144937 452.653058 
Q 546.885658 444.065538 594.525305 435.672014 
" style="fill:none;stroke:#000000;stroke-linecap:round;"/>
    <path clip-path="url(#p143f5e8936)" d="M 590.23895 434.396412 
L 594.525305 435.672014 
L 590.933011 438.335737 
L 590.23895 434.396412 
z
" style="stroke:#000000;stroke-linecap:round;"/>
   </g>
   <g id="patch_18">
    <path clip-path="url(#p143f5e8936)" d="M 621.527743 422.049287 
Q 424.457084 448.570019 228.494469 474.941636 
" style="fill:none;stroke:#000000;stroke-linecap:round;"/>
    <path clip-path="url(#p143f5e8936)" d="M 232.725478 476.390278 
L 228.494469 474.941636 
L 232.191988 472.426014 
L 232.725478 476.390278 
z
" style="stroke:#000000;stroke-linecap:round;"/>
   </g>
   <g id="patch_19">
    <path clip-path="url(#p143f5e8936)" d="M 624.642744 414.090367 
Q 529.850769 299.693311 435.772147 186.157143 
" style="fill:none;stroke:#000000;stroke-linecap:round;"/>
    <path clip-path="url(#p143f5e8936)" d="M 436.784307 190.513234 
L 435.772147 186.157143 
L 439.864316 187.96107 
L 436.784307 190.513234 
z
" style="stroke:#000000;stroke-linecap:round;"/>
   </g>
   <g id="patch_20">
    <path clip-path="url(#p143f5e8936)" d="M 637.561924 425.803716 
Q 766.325923 512.783594 894.163456 599.137645 
" style="fill:none;stroke:#000000;stroke-linecap:round;"/>
    <path clip-path="url(#p143f5e8936)" d="M 891.968341 595.241304 
L 894.163456 599.137645 
L 889.729315 598.555933 
L 891.968341 595.241304 
z
" style="stroke:#000000;stroke-linecap:round;"/>
   </g>
   <g id="patch_21">
    <path clip-path="url(#p143f5e8936)" d="M 358.210856 433.188702 
Q 306.685206 493.41565 255.88637 552.793044 
" style="fill:none;stroke:#000000;stroke-linecap:round;"/>
    <path clip-path="url(#p143f5e8936)" d="M 260.006426 551.053754 
L 255.88637 552.793044 
L 256.966971 548.453424 
L 260.006426 551.053754 
z
" style="stroke:#000000;stroke-linecap:round;"/>
   </g>
   <g id="patch_22">
    <path clip-path="url(#p143f5e8936)" d="M 363.561353 417.824172 
Q 360.151902 326.908331 356.78435 237.109738 
" style="fill:none;stroke:#000000;stroke-linecap:round;"/>
    <path clip-path="url(#p143f5e8936)" d="M 354.935654 241.181878 
L 356.78435 237.109738 
L 358.932844 241.031979 
L 354.935654 241.181878 
z
" style="stroke:#000000;stroke-linecap:round;"/>
   </g>
   <g id="patch_23">
    <path clip-path="url(#p143f5e8936)" d="M 369.66159 433.106862 
Q 488.9789 568.584 607.557265 703.222114 
" style="fill:none;stroke:#000000;stroke-linecap:round;"/>
    <path clip-path="url(#p143f5e8936)" d="M 606.414429 698.898467 
L 607.557265 703.222114 
L 603.412646 701.542195 
L 606.414429 698.898467 
z
" style="stroke:#000000;stroke-linecap:round;"/>
   </g>
   <g id="patch_24">
    <path clip-path="url(#p143f5e8936)" d="M 797.65887 512.016063 
Q 786.211422 593.475824 774.919562 673.828431 
" style="fill:none;stroke:#000000;stroke-linecap:round;"/>
    <path clip-path="url(#p143f5e8936)" d="M 777.456747 670.145675 
L 774.919562 673.828431 
L 773.495668 669.589029 
L 777.456747 670.145675 
z
" style="stroke:#000000;stroke-linecap:round;"/>
   </g>
   <g id="patch_25">
    <path clip-path="url(#p143f5e8936)" d="M 792.529006 505.612352 
Q 662.901117 495.107597 534.387609 484.693149 
" style="fill:none;stroke:#000000;stroke-linecap:round;"/>
    <path clip-path="url(#p143f5e8936)" d="M 538.212994 487.009706 
L 534.387609 484.693149 
L 538.536085 483.022776 
L 538.212994 487.009706 
z
" style="stroke:#000000;stroke-linecap:round;"/>
   </g>
   <g id="patch_26">
    <path clip-path="url(#p143f5e8936)" d="M 792.87941 504.024957 
Q 701.840116 470.433088 611.84973 437.228247 
" style="fill:none;stroke:#000000;stroke-linecap:round;"/>
    <path clip-path="url(#p143f5e8936)" d="M 614.910082 440.489267 
L 611.84973 437.228247 
L 616.294757 436.736578 
L 614.910082 440.489267 
z
" style="stroke:#000000;stroke-linecap:round;"/>
   </g>
   <g id="patch_27">
    <path clip-path="url(#p143f5e8936)" d="M 462.700837 492.483246 
Q 614.840061 585.547009 766.025538 678.027364 
" style="fill:none;stroke:#000000;stroke-linecap:round;"/>
    <path clip-path="url(#p143f5e8936)" d="M 763.65694 674.233982 
L 766.025538 678.027364 
L 761.569674 677.646213 
L 763.65694 674.233982 
z
" style="stroke:#000000;stroke-linecap:round;"/>
   </g>
   <g id="patch_28">
    <path clip-path="url(#p143f5e8936)" d="M 464.072343 487.073305 
Q 490.845748 485.719285 516.502547 484.421736 
" style="fill:none;stroke:#000000;stroke-linecap:round;"/>
    <path clip-path="url(#p143f5e8936)" d="M 512.406635 482.626324 
L 516.502547 484.421736 
L 512.60867 486.621218 
L 512.406635 482.626324 
z
" style="stroke:#000000;stroke-linecap:round;"/>
   </g>
   <g id="patch_29">
    <path clip-path="url(#p143f5e8936)" d="M 463.530264 484.355551 
Q 529.751906 460.565599 594.921351 437.153646 
" style="fill:none;stroke:#000000;stroke-linecap:round;"/>
    <path clip-path="url(#p143f5e8936)" d="M 590.480715 436.623789 
L 594.921351 437.153646 
L 591.833084 440.388241 
L 590.480715 436.623789 
z
" style="stroke:#000000;stroke-linecap:round;"/>
   </g>
   <g id="patch_30">
    <path clip-path="url(#p143f5e8936)" d="M 287.807745 528.940832 
Q 264.113502 396.728908 240.616485 265.617484 
" style="fill:none;stroke:#000000;stroke-linecap:round;"/>
    <path clip-path="url(#p143f5e8936)" d="M 239.353464 269.907563 
L 240.616485 265.617484 
L 243.290735 269.201949 
L 239.353464 269.907563 
z
" style="stroke:#000000;stroke-linecap:round;"/>
   </g>
   <g id="patch_31">
    <path clip-path="url(#p143f5e8936)" d="M 686.728188 225.22729 
Q 466.030337 241.702208 246.447419 258.093898 
" style="fill:none;stroke:#000000;stroke-linecap:round;"/>
    <path clip-path="url(#p143f5e8936)" d="M 250.585204 259.79058 
L 246.447419 258.093898 
L 250.287436 255.801679 
L 250.585204 259.79058 
z
" style="stroke:#000000;stroke-linecap:round;"/>
   </g>
   <g id="patch_32">
    <path clip-path="url(#p143f5e8936)" d="M 474.393109 370.495198 
Q 359.580278 315.845227 245.776954 261.675773 
" style="fill:none;stroke:#000000;stroke-linecap:round;"/>
    <path clip-path="url(#p143f5e8936)" d="M 248.5291 265.200782 
L 245.776954 261.675773 
L 250.248249 261.589062 
L 248.5291 265.200782 
z
" style="stroke:#000000;stroke-linecap:round;"/>
   </g>
   <g id="patch_33">
    <path clip-path="url(#p143f5e8936)" d="M 740.322151 557.096854 
Q 755.990087 616.107836 771.371115 674.038222 
" style="fill:none;stroke:#000000;stroke-linecap:round;"/>
    <path clip-path="url(#p143f5e8936)" d="M 772.27767 669.658935 
L 771.371115 674.038222 
L 768.411618 670.685406 
L 772.27767 669.658935 
z
" style="stroke:#000000;stroke-linecap:round;"/>
   </g>
   <g id="patch_34">
    <path clip-path="url(#p143f5e8936)" d="M 728.87385 545.26157 
Q 630.92067 515.74745 534.037986 486.555879 
" style="fill:none;stroke:#000000;stroke-linecap:round;"/>
    <path clip-path="url(#p143f5e8936)" d="M 537.290915 489.624829 
L 534.037986 486.555879 
L 538.444903 485.794906 
L 537.290915 489.624829 
z
" style="stroke:#000000;stroke-linecap:round;"/>
   </g>
   <g id="patch_35">
    <path clip-path="url(#p143f5e8936)" d="M 730.704283 541.888213 
Q 670.060271 490.546913 610.269561 439.928022 
" style="fill:none;stroke:#000000;stroke-linecap:round;"/>
    <path clip-path="url(#p143f5e8936)" d="M 612.03015 444.039022 
L 610.269561 439.928022 
L 614.614715 440.986151 
L 612.03015 444.039022 
z
" style="stroke:#000000;stroke-linecap:round;"/>
   </g>
   <g id="patch_36">
    <path clip-path="url(#p143f5e8936)" d="M 622.088916 610.0507 
Q 694.342846 644.682135 765.588568 678.830335 
" style="fill:none;stroke:#000000;stroke-linecap:round;"/>
    <path clip-path="url(#p143f5e8936)" d="M 762.845933 675.297921 
L 765.588568 678.830335 
L 761.117056 678.904995 
L 762.845933 675.297921 
z
" style="stroke:#000000;stroke-linecap:round;"/>
   </g>
   <g id="patch_37">
    <path clip-path="url(#p143f5e8936)" d="M 613.162006 602.673285 
Q 571.640126 546.478253 530.782655 491.182422 
" style="fill:none;stroke:#000000;stroke-linecap:round;"/>
    <path clip-path="url(#p143f5e8936)" d="M 531.551178 495.588029 
L 530.782655 491.182422 
L 534.768254 493.210967 
L 531.551178 495.588029 
z
" style="stroke:#000000;stroke-linecap:round;"/>
   </g>
   <g id="patch_38">
    <path clip-path="url(#p143f5e8936)" d="M 616.250344 601.521932 
Q 610.125249 521.748177 604.085745 443.089175 
" style="fill:none;stroke:#000000;stroke-linecap:round;"/>
    <path clip-path="url(#p143f5e8936)" d="M 602.397836 447.230547 
L 604.085745 443.089175 
L 606.386098 446.924325 
L 602.397836 447.230547 
z
" style="stroke:#000000;stroke-linecap:round;"/>
   </g>
   <g id="patch_39">
    <path clip-path="url(#p143f5e8936)" d="M 765.868829 683.494792 
Q 631.82982 697.064226 498.903159 710.521051 
" style="fill:none;stroke:#000000;stroke-linecap:round;"/>
    <path clip-path="url(#p143f5e8936)" d="M 503.084259 712.108 
L 498.903159 710.521051 
L 502.681378 708.128341 
L 503.084259 712.108 
z
" style="stroke:#000000;stroke-linecap:round;"/>
   </g>
   <g id="patch_40">
    <path clip-path="url(#p143f5e8936)" d="M 779.584324 677.544242 
Q 867.229324 601.040975 954.032032 525.272925 
" style="fill:none;stroke:#000000;stroke-linecap:round;"/>
    <path clip-path="url(#p143f5e8936)" d="M 949.70336 526.396579 
L 954.032032 525.272925 
L 952.333752 529.410055 
L 949.70336 526.396579 
z
" style="stroke:#000000;stroke-linecap:round;"/>
   </g>
   <g id="patch_41">
    <path clip-path="url(#p143f5e8936)" d="M 524.306806 491.7333 
Q 508.539292 598.558984 492.935031 704.278616 
" style="fill:none;stroke:#000000;stroke-linecap:round;"/>
    <path clip-path="url(#p143f5e8936)" d="M 495.497669 700.613526 
L 492.935031 704.278616 
L 491.540541 700.029452 
L 495.497669 700.613526 
z
" style="stroke:#000000;stroke-linecap:round;"/>
   </g>
   <g id="patch_42">
    <path clip-path="url(#p143f5e8936)" d="M 533.268157 484.629866 
Q 743.353506 502.392213 952.324796 520.060368 
" style="fill:none;stroke:#000000;stroke-linecap:round;"/>
    <path clip-path="url(#p143f5e8936)" d="M 948.507512 517.730488 
L 952.324796 520.060368 
L 948.170521 521.716267 
L 948.507512 517.730488 
z
" style="stroke:#000000;stroke-linecap:round;"/>
   </g>
   <g id="patch_43">
    <path clip-path="url(#p143f5e8936)" d="M 600.451539 441.428624 
Q 547.282557 573.589108 494.530863 704.712351 
" style="fill:none;stroke:#000000;stroke-linecap:round;"/>
    <path clip-path="url(#p143f5e8936)" d="M 497.879275 701.747871 
L 494.530863 704.712351 
L 494.168327 700.254934 
L 497.879275 701.747871 
z
" style="stroke:#000000;stroke-linecap:round;"/>
   </g>
   <g id="patch_44">
    <path clip-path="url(#p143f5e8936)" d="M 611.062173 435.973011 
Q 782.322966 477.614585 952.497377 518.992008 
" style="fill:none;stroke:#000000;stroke-linecap:round;"/>
    <path clip-path="url(#p143f5e8936)" d="M 949.083147 516.103576 
L 952.497377 518.992008 
L 948.138094 519.990332 
L 949.083147 516.103576 
z
" style="stroke:#000000;stroke-linecap:round;"/>
   </g>
   <g id="patch_45">
    <path clip-path="url(#p143f5e8936)" d="M 694.82413 399.231972 
Q 666.722699 408.652002 639.681329 417.716683 
" style="fill:none;stroke:#000000;stroke-linecap:round;"/>
    <path clip-path="url(#p143f5e8936)" d="M 644.109582 418.341643 
L 639.681329 417.716683 
L 642.838249 414.549057 
L 644.109582 418.341643 
z
" style="stroke:#000000;stroke-linecap:round;"/>
   </g>
   <g id="patch_46">
    <path clip-path="url(#p143f5e8936)" d="M 712.656766 409.763466 
Q 724.432318 474.234862 736.006988 537.606419 
" style="fill:none;stroke:#000000;stroke-linecap:round;"/>
    <path clip-path="url(#p143f5e8936)" d="M 737.255739 533.312165 
L 736.006988 537.606419 
L 733.320835 534.030866 
L 737.255739 533.312165 
z
" style="stroke:#000000;stroke-linecap:round;"/>
   </g>
   <g id="patch_47">
    <path clip-path="url(#p143f5e8936)" d="M 694.553843 398.338007 
Q 596.231715 424.954006 498.98878 451.277866 
" style="fill:none;stroke:#000000;stroke-linecap:round;"/>
    <path clip-path="url(#p143f5e8936)" d="M 503.372408 452.163193 
L 498.98878 451.277866 
L 502.327218 448.30216 
L 503.372408 452.163193 
z
" style="stroke:#000000;stroke-linecap:round;"/>
   </g>
   <g id="patch_48">
    <path clip-path="url(#p143f5e8936)" d="M 703.488895 408.697451 
Q 661.291767 505.350035 619.541982 600.977981 
" style="fill:none;stroke:#000000;stroke-linecap:round;"/>
    <path clip-path="url(#p143f5e8936)" d="M 622.975373 598.112353 
L 619.541982 600.977981 
L 619.309513 596.511891 
L 622.975373 598.112353 
z
" style="stroke:#000000;stroke-linecap:round;"/>
   </g>
   <g id="PathCollection_1">
    <path clip-path="url(#p143f5e8936)" d="M 293.254366 591.695966 
C 294.917037 591.695966 296.511833 591.03538 297.687519 589.859694 
C 298.863205 588.684008 299.523792 587.089212 299.523792 585.426541 
C 299.523792 583.76387 298.863205 582.169073 297.687519 580.993387 
C 296.511833 579.817701 294.917037 579.157115 293.254366 579.157115 
C 291.591695 579.157115 289.996899 579.817701 288.821213 580.993387 
C 287.645527 582.169073 286.98494 583.76387 286.98494 585.426541 
C 286.98494 587.089212 287.645527 588.684008 288.821213 589.859694 
C 289.996899 591.03538 291.591695 591.695966 293.254366 591.695966 
z
" style="fill:#ebd3c6;stroke:#ebd3c6;"/>
    <path clip-path="url(#p143f5e8936)" d="M 567.755432 170.742936 
C 570.230314 170.742936 572.604165 169.759655 574.354171 168.009649 
C 576.104177 166.259642 577.087458 163.885792 577.087458 161.410909 
C 577.087458 158.936027 576.104177 156.562176 574.354171 154.81217 
C 572.604165 153.062163 570.230314 152.078882 567.755432 152.078882 
C 565.280549 152.078882 562.906698 153.062163 561.156692 154.81217 
C 559.406686 156.562176 558.423405 158.936027 558.423405 161.410909 
C 558.423405 163.885792 559.406686 166.259642 561.156692 168.009649 
C 562.906698 169.759655 565.280549 170.742936 567.755432 170.742936 
z
" style="fill:#bfd3f6;stroke:#bfd3f6;"/>
    <path clip-path="url(#p143f5e8936)" d="M 855.657198 275.586539 
C 857.239245 275.586539 858.756709 274.957985 859.875385 273.839308 
C 860.994062 272.720632 861.622616 271.203168 861.622616 269.62112 
C 861.622616 268.039073 860.994062 266.521609 859.875385 265.402933 
C 858.756709 264.284256 857.239245 263.655702 855.657198 263.655702 
C 854.07515 263.655702 852.557686 264.284256 851.43901 265.402933 
C 850.320334 266.521609 849.691779 268.039073 849.691779 269.62112 
C 849.691779 271.203168 850.320334 272.720632 851.43901 273.839308 
C 852.557686 274.957985 854.07515 275.586539 855.657198 275.586539 
z
" style="fill:#f7b99e;stroke:#f7b99e;"/>
    <path clip-path="url(#p143f5e8936)" d="M 619.600822 389.901458 
C 621.881919 389.901458 624.069895 388.995169 625.682874 387.38219 
C 627.295853 385.769211 628.202142 383.581235 628.202142 381.300138 
C 628.202142 379.019042 627.295853 376.831066 625.682874 375.218087 
C 624.069895 373.605108 621.881919 372.698818 619.600822 372.698818 
C 617.319725 372.698818 615.131749 373.605108 613.51877 375.218087 
C 611.905791 376.831066 610.999502 379.019042 610.999502 381.300138 
C 610.999502 383.581235 611.905791 385.769211 613.51877 387.38219 
C 615.131749 388.995169 617.319725 389.901458 619.600822 389.901458 
z
" style="fill:#3b4cc0;stroke:#3b4cc0;"/>
    <path clip-path="url(#p143f5e8936)" d="M 239.36293 264.612101 
C 240.951324 264.612101 242.474876 263.981025 243.598041 262.85786 
C 244.721205 261.734696 245.352281 260.211144 245.352281 258.622749 
C 245.352281 257.034355 244.721205 255.510803 243.598041 254.387638 
C 242.474876 253.264474 240.951324 252.633398 239.36293 252.633398 
C 237.774535 252.633398 236.250983 253.264474 235.127819 254.387638 
C 234.004654 255.510803 233.373578 257.034355 233.373578 258.622749 
C 233.373578 260.211144 234.004654 261.734696 235.127819 262.85786 
C 236.250983 263.981025 237.774535 264.612101 239.36293 264.612101 
z
" style="fill:#cedaeb;stroke:#cedaeb;"/>
    <path clip-path="url(#p143f5e8936)" d="M 720.806384 167.834978 
C 722.367947 167.834978 723.865763 167.214562 724.969955 166.11037 
C 726.074147 165.006178 726.694563 163.508362 726.694563 161.946799 
C 726.694563 160.385236 726.074147 158.88742 724.969955 157.783228 
C 723.865763 156.679036 722.367947 156.05862 720.806384 156.05862 
C 719.244821 156.05862 717.747005 156.679036 716.642813 157.783228 
C 715.538621 158.88742 714.918205 160.385236 714.918205 161.946799 
C 714.918205 163.508362 715.538621 165.006178 716.642813 166.11037 
C 717.747005 167.214562 719.244821 167.834978 720.806384 167.834978 
z
" style="fill:#93b5fe;stroke:#93b5fe;"/>
    <path clip-path="url(#p143f5e8936)" d="M 448.202493 508.826012 
C 450.429128 508.826012 452.564864 507.941361 454.139332 506.366893 
C 455.713801 504.792425 456.598452 502.656688 456.598452 500.430054 
C 456.598452 498.20342 455.713801 496.067683 454.139332 494.493215 
C 452.564864 492.918747 450.429128 492.034095 448.202493 492.034095 
C 445.975859 492.034095 443.840123 492.918747 442.265654 494.493215 
C 440.691186 496.067683 439.806535 498.20342 439.806535 500.430054 
C 439.806535 502.656688 440.691186 504.792425 442.265654 506.366893 
C 443.840123 507.941361 445.975859 508.826012 448.202493 508.826012 
z
" style="fill:#c3d5f4;stroke:#c3d5f4;"/>
    <path clip-path="url(#p143f5e8936)" d="M 332.625626 377.893256 
C 334.493488 377.893256 336.285099 377.151146 337.605877 375.830368 
C 338.926655 374.50959 339.668765 372.71798 339.668765 370.850117 
C 339.668765 368.982255 338.926655 367.190644 337.605877 365.869866 
C 336.285099 364.549089 334.493488 363.806979 332.625626 363.806979 
C 330.757764 363.806979 328.966153 364.549089 327.645375 365.869866 
C 326.324597 367.190644 325.582488 368.982255 325.582488 370.850117 
C 325.582488 372.71798 326.324597 374.50959 327.645375 375.830368 
C 328.966153 377.151146 330.757764 377.893256 332.625626 377.893256 
z
" style="fill:#9abbff;stroke:#9abbff;"/>
    <path clip-path="url(#p143f5e8936)" d="M 596.135629 529.472078 
C 598.098058 529.472078 599.980375 528.692397 601.368021 527.304751 
C 602.755668 525.917104 603.535349 524.034787 603.535349 522.072359 
C 603.535349 520.10993 602.755668 518.227613 601.368021 516.839967 
C 599.980375 515.45232 598.098058 514.672639 596.135629 514.672639 
C 594.173201 514.672639 592.290884 515.45232 590.903237 516.839967 
C 589.515591 518.227613 588.73591 520.10993 588.73591 522.072359 
C 588.73591 524.034787 589.515591 525.917104 590.903237 527.304751 
C 592.290884 528.692397 594.173201 529.472078 596.135629 529.472078 
z
" style="fill:#dddcdc;stroke:#dddcdc;"/>
    <path clip-path="url(#p143f5e8936)" d="M 486.011715 467.114051 
C 489.279884 467.114051 492.414637 465.815594 494.725581 463.50465 
C 497.036525 461.193705 498.334982 458.058952 498.334982 454.790784 
C 498.334982 451.522615 497.036525 448.387862 494.725581 446.076918 
C 492.414637 443.765973 489.279884 442.467516 486.011715 442.467516 
C 482.743546 442.467516 479.608793 443.765973 477.297849 446.076918 
C 474.986905 448.387862 473.688448 451.522615 473.688448 454.790784 
C 473.688448 458.058952 474.986905 461.193705 477.297849 463.50465 
C 479.608793 465.815594 482.743546 467.114051 486.011715 467.114051 
z
" style="fill:#f5c2aa;stroke:#f5c2aa;"/>
    <path clip-path="url(#p143f5e8936)" d="M 630.263541 429.685307 
C 632.600415 429.685307 634.841891 428.756858 636.49431 427.104438 
C 638.146729 425.452019 639.075179 423.210543 639.075179 420.873669 
C 639.075179 418.536796 638.146729 416.29532 636.49431 414.6429 
C 634.841891 412.990481 632.600415 412.062031 630.263541 412.062031 
C 627.926667 412.062031 625.685191 412.990481 624.032772 414.6429 
C 622.380353 416.29532 621.451903 418.536796 621.451903 420.873669 
C 621.451903 423.210543 622.380353 425.452019 624.032772 427.104438 
C 625.685191 428.756858 627.926667 429.685307 630.263541 429.685307 
z
" style="fill:none;"/>
    <path clip-path="url(#p143f5e8936)" d="M 363.88866 435.285432 
C 366.204774 435.285432 368.426339 434.36523 370.064079 432.72749 
C 371.70182 431.089749 372.622022 428.868185 372.622022 426.55207 
C 372.622022 424.235955 371.70182 422.014391 370.064079 420.37665 
C 368.426339 418.73891 366.204774 417.818708 363.88866 417.818708 
C 361.572545 417.818708 359.35098 418.73891 357.71324 420.37665 
C 356.075499 422.014391 355.155297 424.235955 355.155297 426.55207 
C 355.155297 428.868185 356.075499 431.089749 357.71324 432.72749 
C 359.35098 434.36523 361.572545 435.285432 363.88866 435.285432 
z
" style="fill:#b3cdfb;stroke:#b3cdfb;"/>
    <path clip-path="url(#p143f5e8936)" d="M 251.301514 564.08873 
C 252.875911 564.08873 254.386037 563.463215 255.499304 562.349948 
C 256.612571 561.236681 257.238085 559.726555 257.238085 558.152158 
C 257.238085 556.577761 256.612571 555.067635 255.499304 553.954369 
C 254.386037 552.841102 252.875911 552.215587 251.301514 552.215587 
C 249.727117 552.215587 248.216991 552.841102 247.103724 553.954369 
C 245.990457 555.067635 245.364943 556.577761 245.364943 558.152158 
C 245.364943 559.726555 245.990457 561.236681 247.103724 562.349948 
C 248.216991 563.463215 249.727117 564.08873 251.301514 564.08873 
z
" style="fill:#f6a586;stroke:#f6a586;"/>
    <path clip-path="url(#p143f5e8936)" d="M 356.519936 235.9955 
C 358.094333 235.9955 359.604459 235.369986 360.717726 234.256719 
C 361.830993 233.143452 362.456508 231.633326 362.456508 230.058929 
C 362.456508 228.484532 361.830993 226.974406 360.717726 225.861139 
C 359.604459 224.747872 358.094333 224.122358 356.519936 224.122358 
C 354.945539 224.122358 353.435413 224.747872 352.322146 225.861139 
C 351.20888 226.974406 350.583365 228.484532 350.583365 230.058929 
C 350.583365 231.633326 351.20888 233.143452 352.322146 234.256719 
C 353.435413 235.369986 354.945539 235.9955 356.519936 235.9955 
z
" style="fill:#ccd9ed;stroke:#ccd9ed;"/>
    <path clip-path="url(#p143f5e8936)" d="M 612.221298 714.454395 
C 613.795695 714.454395 615.305821 713.82888 616.419088 712.715613 
C 617.532355 711.602347 618.157869 710.092221 618.157869 708.517824 
C 618.157869 706.943427 617.532355 705.433301 616.419088 704.320034 
C 615.305821 703.206767 613.795695 702.581252 612.221298 702.581252 
C 610.646901 702.581252 609.136775 703.206767 608.023508 704.320034 
C 606.910241 705.433301 606.284727 706.943427 606.284727 708.517824 
C 606.284727 710.092221 606.910241 711.602347 608.023508 712.715613 
C 609.136775 713.82888 610.646901 714.454395 612.221298 714.454395 
z
" style="fill:#b6cefa;stroke:#b6cefa;"/>
    <path clip-path="url(#p143f5e8936)" d="M 798.490882 512.075279 
C 800.076741 512.075279 801.59786 511.445211 802.719232 510.323839 
C 803.840603 509.202468 804.470672 507.681348 804.470672 506.09549 
C 804.470672 504.509631 803.840603 502.988511 802.719232 501.86714 
C 801.59786 500.745768 800.076741 500.1157 798.490882 500.1157 
C 796.905023 500.1157 795.383904 500.745768 794.262532 501.86714 
C 793.141161 502.988511 792.511092 504.509631 792.511092 506.09549 
C 792.511092 507.681348 793.141161 509.202468 794.262532 510.323839 
C 795.383904 511.445211 796.905023 512.075279 798.490882 512.075279 
z
" style="fill:#97b8ff;stroke:#97b8ff;"/>
    <path clip-path="url(#p143f5e8936)" d="M 454.636842 497.001331 
C 457.143234 497.001331 459.547309 496.005531 461.319596 494.233244 
C 463.091883 492.460957 464.087684 490.056882 464.087684 487.550489 
C 464.087684 485.044097 463.091883 482.640022 461.319596 480.867735 
C 459.547309 479.095448 457.143234 478.099648 454.636842 478.099648 
C 452.130449 478.099648 449.726374 479.095448 447.954087 480.867735 
C 446.1818 482.640022 445.186 485.044097 445.186 487.550489 
C 445.186 490.056882 446.1818 492.460957 447.954087 494.233244 
C 449.726374 496.005531 452.130449 497.001331 454.636842 497.001331 
z
" style="fill:#b5cdfa;stroke:#b5cdfa;"/>
    <path clip-path="url(#p143f5e8936)" d="M 288.689108 538.858761 
C 290.015123 538.858761 291.287007 538.33193 292.224641 537.394295 
C 293.162276 536.45666 293.689108 535.184777 293.689108 533.858761 
C 293.689108 532.532746 293.162276 531.260862 292.224641 530.323227 
C 291.287007 529.385593 290.015123 528.858761 288.689108 528.858761 
C 287.363092 528.858761 286.091208 529.385593 285.153574 530.323227 
C 284.215939 531.260862 283.689108 532.532746 283.689108 533.858761 
C 283.689108 535.184777 284.215939 536.45666 285.153574 537.394295 
C 286.091208 538.33193 287.363092 538.858761 288.689108 538.858761 
z
" style="fill:#b40426;stroke:#b40426;"/>
    <path clip-path="url(#p143f5e8936)" d="M 692.40714 230.498882 
C 693.91761 230.498882 695.366418 229.898766 696.434482 228.830702 
C 697.502545 227.762639 698.102661 226.31383 698.102661 224.803361 
C 698.102661 223.292891 697.502545 221.844082 696.434482 220.776019 
C 695.366418 219.707955 693.91761 219.107839 692.40714 219.107839 
C 690.89667 219.107839 689.447862 219.707955 688.379798 220.776019 
C 687.311735 221.844082 686.711619 223.292891 686.711619 224.803361 
C 686.711619 226.31383 687.311735 227.762639 688.379798 228.830702 
C 689.447862 229.898766 690.89667 230.498882 692.40714 230.498882 
z
" style="fill:#e5d8d1;stroke:#e5d8d1;"/>
    <path clip-path="url(#p143f5e8936)" d="M 479.797156 379.052053 
C 481.384283 379.052053 482.906619 378.42148 484.028888 377.299212 
C 485.151156 376.176944 485.781728 374.654608 485.781728 373.06748 
C 485.781728 371.480353 485.151156 369.958017 484.028888 368.835749 
C 482.906619 367.71348 481.384283 367.082908 479.797156 367.082908 
C 478.210029 367.082908 476.687693 367.71348 475.565424 368.835749 
C 474.443156 369.958017 473.812584 371.480353 473.812584 373.06748 
C 473.812584 374.654608 474.443156 376.176944 475.565424 377.299212 
C 476.687693 378.42148 478.210029 379.052053 479.797156 379.052053 
z
" style="fill:#a7c5fe;stroke:#a7c5fe;"/>
    <path clip-path="url(#p143f5e8936)" d="M 737.902034 557.411465 
C 740.4028 557.411465 742.801478 556.4179 744.569787 554.649591 
C 746.338096 552.881282 747.331661 550.482604 747.331661 547.981838 
C 747.331661 545.481072 746.338096 543.082394 744.569787 541.314085 
C 742.801478 539.545777 740.4028 538.552212 737.902034 538.552212 
C 735.401268 538.552212 733.00259 539.545777 731.234281 541.314085 
C 729.465973 543.082394 728.472408 545.481072 728.472408 547.981838 
C 728.472408 550.482604 729.465973 552.881282 731.234281 554.649591 
C 733.00259 556.4179 735.401268 557.411465 737.902034 557.411465 
z
" style="fill:#b1cbfc;stroke:#b1cbfc;"/>
    <path clip-path="url(#p143f5e8936)" d="M 616.707134 613.436621 
C 618.289182 613.436621 619.806646 612.808067 620.925322 611.689391 
C 622.043999 610.570714 622.672553 609.05325 622.672553 607.471203 
C 622.672553 605.889156 622.043999 604.371692 620.925322 603.253015 
C 619.806646 602.134339 618.289182 601.505785 616.707134 601.505785 
C 615.125087 601.505785 613.607623 602.134339 612.488947 603.253015 
C 611.37027 604.371692 610.741716 605.889156 610.741716 607.471203 
C 610.741716 609.05325 611.37027 610.570714 612.488947 611.689391 
C 613.607623 612.808067 615.125087 613.436621 616.707134 613.436621 
z
" style="fill:#dbdcde;stroke:#dbdcde;"/>
    <path clip-path="url(#p143f5e8936)" d="M 915.061097 401.788807 
C 916.62266 401.788807 918.120476 401.168392 919.224668 400.0642 
C 920.32886 398.960008 920.949276 397.462192 920.949276 395.900629 
C 920.949276 394.339065 920.32886 392.841249 919.224668 391.737057 
C 918.120476 390.632865 916.62266 390.01245 915.061097 390.01245 
C 913.499533 390.01245 912.001717 390.632865 910.897525 391.737057 
C 909.793333 392.841249 909.172918 394.339065 909.172918 395.900629 
C 909.172918 397.462192 909.793333 398.960008 910.897525 400.0642 
C 912.001717 401.168392 913.499533 401.788807 915.061097 401.788807 
z
" style="fill:#cdd9ec;stroke:#cdd9ec;"/>
    <path clip-path="url(#p143f5e8936)" d="M 258.029107 647.868961 
C 259.590671 647.868961 261.088487 647.248546 262.192679 646.144354 
C 263.296871 645.040162 263.917286 643.542346 263.917286 641.980782 
C 263.917286 640.419219 263.296871 638.921403 262.192679 637.817211 
C 261.088487 636.713019 259.590671 636.092603 258.029107 636.092603 
C 256.467544 636.092603 254.969728 636.713019 253.865536 637.817211 
C 252.761344 638.921403 252.140928 640.419219 252.140928 641.980782 
C 252.140928 643.542346 252.761344 645.040162 253.865536 646.144354 
C 254.969728 647.248546 256.467544 647.868961 258.029107 647.868961 
z
" style="fill:#5b7ae5;stroke:#5b7ae5;"/>
    <path clip-path="url(#p143f5e8936)" d="M 491.909138 717.136674 
C 493.475848 717.136674 494.9786 716.514214 496.086431 715.406383 
C 497.194262 714.298552 497.816722 712.7958 497.816722 711.229091 
C 497.816722 709.662381 497.194262 708.159629 496.086431 707.051799 
C 494.9786 705.943968 493.475848 705.321507 491.909138 705.321507 
C 490.342429 705.321507 488.839677 705.943968 487.731846 707.051799 
C 486.624015 708.159629 486.001555 709.662381 486.001555 711.229091 
C 486.001555 712.7958 486.624015 714.298552 487.731846 715.406383 
C 488.839677 716.514214 490.342429 717.136674 491.909138 717.136674 
z
" style="fill:#85a8fc;stroke:#85a8fc;"/>
    <path clip-path="url(#p143f5e8936)" d="M 959.32562 526.559859 
C 960.892329 526.559859 962.395081 525.937399 963.502912 524.829568 
C 964.610743 523.721737 965.233203 522.218985 965.233203 520.652276 
C 965.233203 519.085566 964.610743 517.582814 963.502912 516.474983 
C 962.395081 515.367153 960.892329 514.744692 959.32562 514.744692 
C 957.75891 514.744692 956.256158 515.367153 955.148328 516.474983 
C 954.040497 517.582814 953.418036 519.085566 953.418036 520.652276 
C 953.418036 522.218985 954.040497 523.721737 955.148328 524.829568 
C 956.256158 525.937399 957.75891 526.559859 959.32562 526.559859 
z
" style="fill:#f7aa8c;stroke:#f7aa8c;"/>
    <path clip-path="url(#p143f5e8936)" d="M 773.672173 690.55118 
C 775.753052 690.55118 777.748983 689.724438 779.220387 688.253035 
C 780.691791 686.781631 781.518532 684.785699 781.518532 682.70482 
C 781.518532 680.623941 780.691791 678.62801 779.220387 677.156606 
C 777.748983 675.685203 775.753052 674.858461 773.672173 674.858461 
C 771.591294 674.858461 769.595362 675.685203 768.123959 677.156606 
C 766.652555 678.62801 765.825813 680.623941 765.825813 682.70482 
C 765.825813 684.785699 766.652555 686.781631 768.123959 688.253035 
C 769.595362 689.724438 771.591294 690.55118 773.672173 690.55118 
z
" style="fill:#d6dce4;stroke:#d6dce4;"/>
    <path clip-path="url(#p143f5e8936)" d="M 525.452806 491.815452 
C 527.533685 491.815452 529.529616 490.98871 531.00102 489.517306 
C 532.472424 488.045903 533.299166 486.049971 533.299166 483.969092 
C 533.299166 481.888213 532.472424 479.892281 531.00102 478.420878 
C 529.529616 476.949474 527.533685 476.122732 525.452806 476.122732 
C 523.371927 476.122732 521.375995 476.949474 519.904592 478.420878 
C 518.433188 479.892281 517.606446 481.888213 517.606446 483.969092 
C 517.606446 486.049971 518.433188 488.045903 519.904592 489.517306 
C 521.375995 490.98871 523.371927 491.815452 525.452806 491.815452 
z
" style="fill:#d4dbe6;stroke:#d4dbe6;"/>
    <path clip-path="url(#p143f5e8936)" d="M 603.396244 441.999058 
C 605.488696 441.999058 607.495727 441.167718 608.975314 439.688132 
C 610.4549 438.208545 611.28624 436.201514 611.28624 434.109062 
C 611.28624 432.016611 610.4549 430.009579 608.975314 428.529993 
C 607.495727 427.050406 605.488696 426.219067 603.396244 426.219067 
C 601.303793 426.219067 599.296761 427.050406 597.817175 428.529993 
C 596.337588 430.009579 595.506248 432.016611 595.506248 434.109062 
C 595.506248 436.201514 596.337588 438.208545 597.817175 439.688132 
C 599.296761 441.167718 601.303793 441.999058 603.396244 441.999058 
z
" style="fill:#b3cdfb;stroke:#b3cdfb;"/>
    <path clip-path="url(#p143f5e8936)" d="M 709.815355 410.018072 
C 714.008584 410.018072 718.030634 408.352085 720.995695 405.387024 
C 723.960756 402.421963 725.626743 398.399913 725.626743 394.206684 
C 725.626743 390.013455 723.960756 385.991405 720.995695 383.026344 
C 718.030634 380.061284 714.008584 378.395296 709.815355 378.395296 
C 705.622126 378.395296 701.600076 380.061284 698.635015 383.026344 
C 695.669954 385.991405 694.003967 390.013455 694.003967 394.206684 
C 694.003967 398.399913 695.669954 402.421963 698.635015 405.387024 
C 701.600076 408.352085 705.622126 410.018072 709.815355 410.018072 
z
" style="fill:#e5d8d1;stroke:#e5d8d1;"/>
    <path clip-path="url(#p143f5e8936)" d="M 221.47438 481.851781 
C 223.056428 481.851781 224.573891 481.223227 225.692568 480.10455 
C 226.811244 478.985874 227.439798 477.46841 227.439798 475.886363 
C 227.439798 474.304315 226.811244 472.786851 225.692568 471.668175 
C 224.573891 470.549499 223.056428 469.920944 221.47438 469.920944 
C 219.892333 469.920944 218.374869 470.549499 217.256192 471.668175 
C 216.137516 472.786851 215.508962 474.304315 215.508962 475.886363 
C 215.508962 477.46841 216.137516 478.985874 217.256192 480.10455 
C 218.374869 481.223227 219.892333 481.851781 221.47438 481.851781 
z
" style="fill:#9bbcff;stroke:#9bbcff;"/>
    <path clip-path="url(#p143f5e8936)" d="M 431.255136 186.671332 
C 432.837183 186.671332 434.354647 186.042778 435.473323 184.924101 
C 436.592 183.805425 437.220554 182.287961 437.220554 180.705914 
C 437.220554 179.123866 436.592 177.606402 435.473323 176.487726 
C 434.354647 175.369049 432.837183 174.740495 431.255136 174.740495 
C 429.673088 174.740495 428.155624 175.369049 427.036948 176.487726 
C 425.918271 177.606402 425.289717 179.123866 425.289717 180.705914 
C 425.289717 182.287961 425.918271 183.805425 427.036948 184.924101 
C 428.155624 186.042778 429.673088 186.671332 431.255136 186.671332 
z
" style="fill:#7093f3;stroke:#7093f3;"/>
    <path clip-path="url(#p143f5e8936)" d="M 900.036146 609.070055 
C 901.618193 609.070055 903.135657 608.441501 904.254334 607.322825 
C 905.37301 606.204148 906.001564 604.686685 906.001564 603.104637 
C 906.001564 601.52259 905.37301 600.005126 904.254334 598.886449 
C 903.135657 597.767773 901.618193 597.139219 900.036146 597.139219 
C 898.454098 597.139219 896.936635 597.767773 895.817958 598.886449 
C 894.699282 600.005126 894.070728 601.52259 894.070728 603.104637 
C 894.070728 604.686685 894.699282 606.204148 895.817958 607.322825 
C 896.936635 608.441501 898.454098 609.070055 900.036146 609.070055 
z
" style="fill:#97b8ff;stroke:#97b8ff;"/>
   </g>
   <g id="text_1">
    <g clip-path="url(#p143f5e8936)">
     <!-- CCND1 -->
     <g transform="translate(275.499679 588.185916)scale(0.1 -0.1)">
      <defs>
       <path d="M 64.40625 67.28125 
L 64.40625 56.890625 
Q 59.421875 61.53125 53.78125 63.8125 
Q 48.140625 66.109375 41.796875 66.109375 
Q 29.296875 66.109375 22.65625 58.46875 
Q 16.015625 50.828125 16.015625 36.375 
Q 16.015625 21.96875 22.65625 14.328125 
Q 29.296875 6.6875 41.796875 6.6875 
Q 48.140625 6.6875 53.78125 8.984375 
Q 59.421875 11.28125 64.40625 15.921875 
L 64.40625 5.609375 
Q 59.234375 2.09375 53.4375 0.328125 
Q 47.65625 -1.421875 41.21875 -1.421875 
Q 24.65625 -1.421875 15.125 8.703125 
Q 5.609375 18.84375 5.609375 36.375 
Q 5.609375 53.953125 15.125 64.078125 
Q 24.65625 74.21875 41.21875 74.21875 
Q 47.75 74.21875 53.53125 72.484375 
Q 59.328125 70.75 64.40625 67.28125 
z
" id="DejaVuSans-67"/>
       <path d="M 9.8125 72.90625 
L 23.09375 72.90625 
L 55.421875 11.921875 
L 55.421875 72.90625 
L 64.984375 72.90625 
L 64.984375 0 
L 51.703125 0 
L 19.390625 60.984375 
L 19.390625 0 
L 9.8125 0 
z
" id="DejaVuSans-78"/>
       <path d="M 19.671875 64.796875 
L 19.671875 8.109375 
L 31.59375 8.109375 
Q 46.6875 8.109375 53.6875 14.9375 
Q 60.6875 21.78125 60.6875 36.53125 
Q 60.6875 51.171875 53.6875 57.984375 
Q 46.6875 64.796875 31.59375 64.796875 
z
M 9.8125 72.90625 
L 30.078125 72.90625 
Q 51.265625 72.90625 61.171875 64.09375 
Q 71.09375 55.28125 71.09375 36.53125 
Q 71.09375 17.671875 61.125 8.828125 
Q 51.171875 0 30.078125 0 
L 9.8125 0 
z
" id="DejaVuSans-68"/>
       <path d="M 12.40625 8.296875 
L 28.515625 8.296875 
L 28.515625 63.921875 
L 10.984375 60.40625 
L 10.984375 69.390625 
L 28.421875 72.90625 
L 38.28125 72.90625 
L 38.28125 8.296875 
L 54.390625 8.296875 
L 54.390625 0 
L 12.40625 0 
z
" id="DejaVuSans-49"/>
      </defs>
      <use xlink:href="#DejaVuSans-67"/>
      <use x="69.824219" xlink:href="#DejaVuSans-67"/>
      <use x="139.648438" xlink:href="#DejaVuSans-78"/>
      <use x="214.453125" xlink:href="#DejaVuSans-68"/>
      <use x="291.455078" xlink:href="#DejaVuSans-49"/>
     </g>
    </g>
   </g>
   <g id="text_2">
    <g clip-path="url(#p143f5e8936)">
     <!-- TGFA -->
     <g transform="translate(554.987463 164.170284)scale(0.1 -0.1)">
      <defs>
       <path d="M -0.296875 72.90625 
L 61.375 72.90625 
L 61.375 64.59375 
L 35.5 64.59375 
L 35.5 0 
L 25.59375 0 
L 25.59375 64.59375 
L -0.296875 64.59375 
z
" id="DejaVuSans-84"/>
       <path d="M 59.515625 10.40625 
L 59.515625 29.984375 
L 43.40625 29.984375 
L 43.40625 38.09375 
L 69.28125 38.09375 
L 69.28125 6.78125 
Q 63.578125 2.734375 56.6875 0.65625 
Q 49.8125 -1.421875 42 -1.421875 
Q 24.90625 -1.421875 15.25 8.5625 
Q 5.609375 18.5625 5.609375 36.375 
Q 5.609375 54.25 15.25 64.234375 
Q 24.90625 74.21875 42 74.21875 
Q 49.125 74.21875 55.546875 72.453125 
Q 61.96875 70.703125 67.390625 67.28125 
L 67.390625 56.78125 
Q 61.921875 61.421875 55.765625 63.765625 
Q 49.609375 66.109375 42.828125 66.109375 
Q 29.4375 66.109375 22.71875 58.640625 
Q 16.015625 51.171875 16.015625 36.375 
Q 16.015625 21.625 22.71875 14.15625 
Q 29.4375 6.6875 42.828125 6.6875 
Q 48.046875 6.6875 52.140625 7.59375 
Q 56.25 8.5 59.515625 10.40625 
z
" id="DejaVuSans-71"/>
       <path d="M 9.8125 72.90625 
L 51.703125 72.90625 
L 51.703125 64.59375 
L 19.671875 64.59375 
L 19.671875 43.109375 
L 48.578125 43.109375 
L 48.578125 34.8125 
L 19.671875 34.8125 
L 19.671875 0 
L 9.8125 0 
z
" id="DejaVuSans-70"/>
       <path d="M 34.1875 63.1875 
L 20.796875 26.90625 
L 47.609375 26.90625 
z
M 28.609375 72.90625 
L 39.796875 72.90625 
L 67.578125 0 
L 57.328125 0 
L 50.6875 18.703125 
L 17.828125 18.703125 
L 11.1875 0 
L 0.78125 0 
z
" id="DejaVuSans-65"/>
      </defs>
      <use xlink:href="#DejaVuSans-84"/>
      <use x="61.083984" xlink:href="#DejaVuSans-71"/>
      <use x="138.574219" xlink:href="#DejaVuSans-70"/>
      <use x="186.96875" xlink:href="#DejaVuSans-65"/>
     </g>
    </g>
   </g>
   <g id="text_3">
    <g clip-path="url(#p143f5e8936)">
     <!-- STK4 -->
     <g transform="translate(842.968916 272.380495)scale(0.1 -0.1)">
      <defs>
       <path d="M 53.515625 70.515625 
L 53.515625 60.890625 
Q 47.90625 63.578125 42.921875 64.890625 
Q 37.9375 66.21875 33.296875 66.21875 
Q 25.25 66.21875 20.875 63.09375 
Q 16.5 59.96875 16.5 54.203125 
Q 16.5 49.359375 19.40625 46.890625 
Q 22.3125 44.4375 30.421875 42.921875 
L 36.375 41.703125 
Q 47.40625 39.59375 52.65625 34.296875 
Q 57.90625 29 57.90625 20.125 
Q 57.90625 9.515625 50.796875 4.046875 
Q 43.703125 -1.421875 29.984375 -1.421875 
Q 24.8125 -1.421875 18.96875 -0.25 
Q 13.140625 0.921875 6.890625 3.21875 
L 6.890625 13.375 
Q 12.890625 10.015625 18.65625 8.296875 
Q 24.421875 6.59375 29.984375 6.59375 
Q 38.421875 6.59375 43.015625 9.90625 
Q 47.609375 13.234375 47.609375 19.390625 
Q 47.609375 24.75 44.3125 27.78125 
Q 41.015625 30.8125 33.5 32.328125 
L 27.484375 33.5 
Q 16.453125 35.6875 11.515625 40.375 
Q 6.59375 45.0625 6.59375 53.421875 
Q 6.59375 63.09375 13.40625 68.65625 
Q 20.21875 74.21875 32.171875 74.21875 
Q 37.3125 74.21875 42.625 73.28125 
Q 47.953125 72.359375 53.515625 70.515625 
z
" id="DejaVuSans-83"/>
       <path d="M 9.8125 72.90625 
L 19.671875 72.90625 
L 19.671875 42.09375 
L 52.390625 72.90625 
L 65.09375 72.90625 
L 28.90625 38.921875 
L 67.671875 0 
L 54.6875 0 
L 19.671875 35.109375 
L 19.671875 0 
L 9.8125 0 
z
" id="DejaVuSans-75"/>
       <path d="M 37.796875 64.3125 
L 12.890625 25.390625 
L 37.796875 25.390625 
z
M 35.203125 72.90625 
L 47.609375 72.90625 
L 47.609375 25.390625 
L 58.015625 25.390625 
L 58.015625 17.1875 
L 47.609375 17.1875 
L 47.609375 0 
L 37.796875 0 
L 37.796875 17.1875 
L 4.890625 17.1875 
L 4.890625 26.703125 
z
" id="DejaVuSans-52"/>
      </defs>
      <use xlink:href="#DejaVuSans-83"/>
      <use x="63.476562" xlink:href="#DejaVuSans-84"/>
      <use x="124.560547" xlink:href="#DejaVuSans-75"/>
      <use x="190.136719" xlink:href="#DejaVuSans-52"/>
     </g>
    </g>
   </g>
   <g id="text_4">
    <g clip-path="url(#p143f5e8936)">
     <!-- ERBB2 -->
     <g transform="translate(602.925041 384.059513)scale(0.1 -0.1)">
      <defs>
       <path d="M 9.8125 72.90625 
L 55.90625 72.90625 
L 55.90625 64.59375 
L 19.671875 64.59375 
L 19.671875 43.015625 
L 54.390625 43.015625 
L 54.390625 34.71875 
L 19.671875 34.71875 
L 19.671875 8.296875 
L 56.78125 8.296875 
L 56.78125 0 
L 9.8125 0 
z
" id="DejaVuSans-69"/>
       <path d="M 44.390625 34.1875 
Q 47.5625 33.109375 50.5625 29.59375 
Q 53.5625 26.078125 56.59375 19.921875 
L 66.609375 0 
L 56 0 
L 46.6875 18.703125 
Q 43.0625 26.03125 39.671875 28.421875 
Q 36.28125 30.8125 30.421875 30.8125 
L 19.671875 30.8125 
L 19.671875 0 
L 9.8125 0 
L 9.8125 72.90625 
L 32.078125 72.90625 
Q 44.578125 72.90625 50.734375 67.671875 
Q 56.890625 62.453125 56.890625 51.90625 
Q 56.890625 45.015625 53.6875 40.46875 
Q 50.484375 35.9375 44.390625 34.1875 
z
M 19.671875 64.796875 
L 19.671875 38.921875 
L 32.078125 38.921875 
Q 39.203125 38.921875 42.84375 42.21875 
Q 46.484375 45.515625 46.484375 51.90625 
Q 46.484375 58.296875 42.84375 61.546875 
Q 39.203125 64.796875 32.078125 64.796875 
z
" id="DejaVuSans-82"/>
       <path d="M 19.671875 34.8125 
L 19.671875 8.109375 
L 35.5 8.109375 
Q 43.453125 8.109375 47.28125 11.40625 
Q 51.125 14.703125 51.125 21.484375 
Q 51.125 28.328125 47.28125 31.5625 
Q 43.453125 34.8125 35.5 34.8125 
z
M 19.671875 64.796875 
L 19.671875 42.828125 
L 34.28125 42.828125 
Q 41.5 42.828125 45.03125 45.53125 
Q 48.578125 48.25 48.578125 53.8125 
Q 48.578125 59.328125 45.03125 62.0625 
Q 41.5 64.796875 34.28125 64.796875 
z
M 9.8125 72.90625 
L 35.015625 72.90625 
Q 46.296875 72.90625 52.390625 68.21875 
Q 58.5 63.53125 58.5 54.890625 
Q 58.5 48.1875 55.375 44.234375 
Q 52.25 40.28125 46.1875 39.3125 
Q 53.46875 37.75 57.5 32.78125 
Q 61.53125 27.828125 61.53125 20.40625 
Q 61.53125 10.640625 54.890625 5.3125 
Q 48.25 0 35.984375 0 
L 9.8125 0 
z
" id="DejaVuSans-66"/>
       <path d="M 19.1875 8.296875 
L 53.609375 8.296875 
L 53.609375 0 
L 7.328125 0 
L 7.328125 8.296875 
Q 12.9375 14.109375 22.625 23.890625 
Q 32.328125 33.6875 34.8125 36.53125 
Q 39.546875 41.84375 41.421875 45.53125 
Q 43.3125 49.21875 43.3125 52.78125 
Q 43.3125 58.59375 39.234375 62.25 
Q 35.15625 65.921875 28.609375 65.921875 
Q 23.96875 65.921875 18.8125 64.3125 
Q 13.671875 62.703125 7.8125 59.421875 
L 7.8125 69.390625 
Q 13.765625 71.78125 18.9375 73 
Q 24.125 74.21875 28.421875 74.21875 
Q 39.75 74.21875 46.484375 68.546875 
Q 53.21875 62.890625 53.21875 53.421875 
Q 53.21875 48.921875 51.53125 44.890625 
Q 49.859375 40.875 45.40625 35.40625 
Q 44.1875 33.984375 37.640625 27.21875 
Q 31.109375 20.453125 19.1875 8.296875 
z
" id="DejaVuSans-50"/>
      </defs>
      <use xlink:href="#DejaVuSans-69"/>
      <use x="63.183594" xlink:href="#DejaVuSans-82"/>
      <use x="132.666016" xlink:href="#DejaVuSans-66"/>
      <use x="201.269531" xlink:href="#DejaVuSans-66"/>
      <use x="269.873047" xlink:href="#DejaVuSans-50"/>
     </g>
    </g>
   </g>
   <g id="text_5">
    <g clip-path="url(#p143f5e8936)">
     <!-- RB1 -->
     <g transform="translate(229.276992 261.382124)scale(0.1 -0.1)">
      <use xlink:href="#DejaVuSans-82"/>
      <use x="69.482422" xlink:href="#DejaVuSans-66"/>
      <use x="138.085938" xlink:href="#DejaVuSans-49"/>
     </g>
    </g>
   </g>
   <g id="text_6">
    <g clip-path="url(#p143f5e8936)">
     <!-- GRB2 -->
     <g transform="translate(706.846228 164.706174)scale(0.1 -0.1)">
      <use xlink:href="#DejaVuSans-71"/>
      <use x="77.490234" xlink:href="#DejaVuSans-82"/>
      <use x="146.972656" xlink:href="#DejaVuSans-66"/>
      <use x="215.576172" xlink:href="#DejaVuSans-50"/>
     </g>
    </g>
   </g>
   <g id="text_7">
    <g clip-path="url(#p143f5e8936)">
     <!-- RASSF1 -->
     <g transform="translate(429.102493 503.189429)scale(0.1 -0.1)">
      <use xlink:href="#DejaVuSans-82"/>
      <use x="65.482422" xlink:href="#DejaVuSans-65"/>
      <use x="133.890625" xlink:href="#DejaVuSans-83"/>
      <use x="197.367188" xlink:href="#DejaVuSans-83"/>
      <use x="260.84375" xlink:href="#DejaVuSans-70"/>
      <use x="318.363281" xlink:href="#DejaVuSans-49"/>
     </g>
    </g>
   </g>
   <g id="text_8">
    <g clip-path="url(#p143f5e8936)">
     <!-- RASSF5 -->
     <g transform="translate(313.525626 373.609492)scale(0.1 -0.1)">
      <defs>
       <path d="M 10.796875 72.90625 
L 49.515625 72.90625 
L 49.515625 64.59375 
L 19.828125 64.59375 
L 19.828125 46.734375 
Q 21.96875 47.46875 24.109375 47.828125 
Q 26.265625 48.1875 28.421875 48.1875 
Q 40.625 48.1875 47.75 41.5 
Q 54.890625 34.8125 54.890625 23.390625 
Q 54.890625 11.625 47.5625 5.09375 
Q 40.234375 -1.421875 26.90625 -1.421875 
Q 22.3125 -1.421875 17.546875 -0.640625 
Q 12.796875 0.140625 7.71875 1.703125 
L 7.71875 11.625 
Q 12.109375 9.234375 16.796875 8.0625 
Q 21.484375 6.890625 26.703125 6.890625 
Q 35.15625 6.890625 40.078125 11.328125 
Q 45.015625 15.765625 45.015625 23.390625 
Q 45.015625 31 40.078125 35.4375 
Q 35.15625 39.890625 26.703125 39.890625 
Q 22.75 39.890625 18.8125 39.015625 
Q 14.890625 38.140625 10.796875 36.28125 
z
" id="DejaVuSans-53"/>
      </defs>
      <use xlink:href="#DejaVuSans-82"/>
      <use x="65.482422" xlink:href="#DejaVuSans-65"/>
      <use x="133.890625" xlink:href="#DejaVuSans-83"/>
      <use x="197.367188" xlink:href="#DejaVuSans-83"/>
      <use x="260.84375" xlink:href="#DejaVuSans-70"/>
      <use x="318.363281" xlink:href="#DejaVuSans-53"/>
     </g>
    </g>
   </g>
   <g id="text_9">
    <g clip-path="url(#p143f5e8936)">
     <!-- CDKN2A -->
     <g transform="translate(575.173129 524.831734)scale(0.1 -0.1)">
      <use xlink:href="#DejaVuSans-67"/>
      <use x="69.824219" xlink:href="#DejaVuSans-68"/>
      <use x="146.826172" xlink:href="#DejaVuSans-75"/>
      <use x="212.402344" xlink:href="#DejaVuSans-78"/>
      <use x="287.207031" xlink:href="#DejaVuSans-50"/>
      <use x="350.830078" xlink:href="#DejaVuSans-65"/>
     </g>
    </g>
   </g>
   <g id="text_10">
    <g clip-path="url(#p143f5e8936)">
     <!-- KRAS -->
     <g transform="translate(472.864059 457.550159)scale(0.1 -0.1)">
      <use xlink:href="#DejaVuSans-75"/>
      <use x="65.576172" xlink:href="#DejaVuSans-82"/>
      <use x="131.058594" xlink:href="#DejaVuSans-65"/>
      <use x="199.466797" xlink:href="#DejaVuSans-83"/>
     </g>
    </g>
   </g>
   <g id="text_11">
    <g clip-path="url(#p143f5e8936)">
     <!-- JAK3 -->
     <g transform="translate(618.995572 423.633044)scale(0.1 -0.1)">
      <defs>
       <path d="M 9.8125 72.90625 
L 19.671875 72.90625 
L 19.671875 5.078125 
Q 19.671875 -8.109375 14.671875 -14.0625 
Q 9.671875 -20.015625 -1.421875 -20.015625 
L -5.171875 -20.015625 
L -5.171875 -11.71875 
L -2.09375 -11.71875 
Q 4.4375 -11.71875 7.125 -8.046875 
Q 9.8125 -4.390625 9.8125 5.078125 
z
" id="DejaVuSans-74"/>
       <path d="M 40.578125 39.3125 
Q 47.65625 37.796875 51.625 33 
Q 55.609375 28.21875 55.609375 21.1875 
Q 55.609375 10.40625 48.1875 4.484375 
Q 40.765625 -1.421875 27.09375 -1.421875 
Q 22.515625 -1.421875 17.65625 -0.515625 
Q 12.796875 0.390625 7.625 2.203125 
L 7.625 11.71875 
Q 11.71875 9.328125 16.59375 8.109375 
Q 21.484375 6.890625 26.8125 6.890625 
Q 36.078125 6.890625 40.9375 10.546875 
Q 45.796875 14.203125 45.796875 21.1875 
Q 45.796875 27.640625 41.28125 31.265625 
Q 36.765625 34.90625 28.71875 34.90625 
L 20.21875 34.90625 
L 20.21875 43.015625 
L 29.109375 43.015625 
Q 36.375 43.015625 40.234375 45.921875 
Q 44.09375 48.828125 44.09375 54.296875 
Q 44.09375 59.90625 40.109375 62.90625 
Q 36.140625 65.921875 28.71875 65.921875 
Q 24.65625 65.921875 20.015625 65.03125 
Q 15.375 64.15625 9.8125 62.3125 
L 9.8125 71.09375 
Q 15.4375 72.65625 20.34375 73.4375 
Q 25.25 74.21875 29.59375 74.21875 
Q 40.828125 74.21875 47.359375 69.109375 
Q 53.90625 64.015625 53.90625 55.328125 
Q 53.90625 49.265625 50.4375 45.09375 
Q 46.96875 40.921875 40.578125 39.3125 
z
" id="DejaVuSans-51"/>
      </defs>
      <use xlink:href="#DejaVuSans-74"/>
      <use x="27.742188" xlink:href="#DejaVuSans-65"/>
      <use x="96.150391" xlink:href="#DejaVuSans-75"/>
      <use x="161.726562" xlink:href="#DejaVuSans-51"/>
     </g>
    </g>
   </g>
   <g id="text_12">
    <g clip-path="url(#p143f5e8936)">
     <!-- TP53 -->
     <g transform="translate(351.45741 429.311445)scale(0.1 -0.1)">
      <defs>
       <path d="M 19.671875 64.796875 
L 19.671875 37.40625 
L 32.078125 37.40625 
Q 38.96875 37.40625 42.71875 40.96875 
Q 46.484375 44.53125 46.484375 51.125 
Q 46.484375 57.671875 42.71875 61.234375 
Q 38.96875 64.796875 32.078125 64.796875 
z
M 9.8125 72.90625 
L 32.078125 72.90625 
Q 44.34375 72.90625 50.609375 67.359375 
Q 56.890625 61.8125 56.890625 51.125 
Q 56.890625 40.328125 50.609375 34.8125 
Q 44.34375 29.296875 32.078125 29.296875 
L 19.671875 29.296875 
L 19.671875 0 
L 9.8125 0 
z
" id="DejaVuSans-80"/>
      </defs>
      <use xlink:href="#DejaVuSans-84"/>
      <use x="61.083984" xlink:href="#DejaVuSans-80"/>
      <use x="121.386719" xlink:href="#DejaVuSans-53"/>
      <use x="185.009766" xlink:href="#DejaVuSans-51"/>
     </g>
    </g>
   </g>
   <g id="text_13">
    <g clip-path="url(#p143f5e8936)">
     <!-- BAX -->
     <g transform="translate(241.025733 560.911533)scale(0.1 -0.1)">
      <defs>
       <path d="M 6.296875 72.90625 
L 16.890625 72.90625 
L 35.015625 45.796875 
L 53.21875 72.90625 
L 63.8125 72.90625 
L 40.375 37.890625 
L 65.375 0 
L 54.78125 0 
L 34.28125 31 
L 13.625 0 
L 2.984375 0 
L 29 38.921875 
z
" id="DejaVuSans-88"/>
      </defs>
      <use xlink:href="#DejaVuSans-66"/>
      <use x="68.603516" xlink:href="#DejaVuSans-65"/>
      <use x="137.011719" xlink:href="#DejaVuSans-88"/>
     </g>
    </g>
   </g>
   <g id="text_14">
    <g clip-path="url(#p143f5e8936)">
     <!-- DDB2 -->
     <g transform="translate(342.208218 232.818304)scale(0.1 -0.1)">
      <use xlink:href="#DejaVuSans-68"/>
      <use x="77.001953" xlink:href="#DejaVuSans-68"/>
      <use x="154.003906" xlink:href="#DejaVuSans-66"/>
      <use x="222.607422" xlink:href="#DejaVuSans-50"/>
     </g>
    </g>
   </g>
   <g id="text_15">
    <g clip-path="url(#p143f5e8936)">
     <!-- POLK -->
     <g transform="translate(599.205673 711.277199)scale(0.1 -0.1)">
      <defs>
       <path d="M 39.40625 66.21875 
Q 28.65625 66.21875 22.328125 58.203125 
Q 16.015625 50.203125 16.015625 36.375 
Q 16.015625 22.609375 22.328125 14.59375 
Q 28.65625 6.59375 39.40625 6.59375 
Q 50.140625 6.59375 56.421875 14.59375 
Q 62.703125 22.609375 62.703125 36.375 
Q 62.703125 50.203125 56.421875 58.203125 
Q 50.140625 66.21875 39.40625 66.21875 
z
M 39.40625 74.21875 
Q 54.734375 74.21875 63.90625 63.9375 
Q 73.09375 53.65625 73.09375 36.375 
Q 73.09375 19.140625 63.90625 8.859375 
Q 54.734375 -1.421875 39.40625 -1.421875 
Q 24.03125 -1.421875 14.8125 8.828125 
Q 5.609375 19.09375 5.609375 36.375 
Q 5.609375 53.65625 14.8125 63.9375 
Q 24.03125 74.21875 39.40625 74.21875 
z
" id="DejaVuSans-79"/>
       <path d="M 9.8125 72.90625 
L 19.671875 72.90625 
L 19.671875 8.296875 
L 55.171875 8.296875 
L 55.171875 0 
L 9.8125 0 
z
" id="DejaVuSans-76"/>
      </defs>
      <use xlink:href="#DejaVuSans-80"/>
      <use x="60.302734" xlink:href="#DejaVuSans-79"/>
      <use x="139.013672" xlink:href="#DejaVuSans-76"/>
      <use x="194.726562" xlink:href="#DejaVuSans-75"/>
     </g>
    </g>
   </g>
   <g id="text_16">
    <g clip-path="url(#p143f5e8936)">
     <!-- PRKCA -->
     <g transform="translate(782.086194 508.854865)scale(0.1 -0.1)">
      <use xlink:href="#DejaVuSans-80"/>
      <use x="60.302734" xlink:href="#DejaVuSans-82"/>
      <use x="129.785156" xlink:href="#DejaVuSans-75"/>
      <use x="189.861328" xlink:href="#DejaVuSans-67"/>
      <use x="259.685547" xlink:href="#DejaVuSans-65"/>
     </g>
    </g>
   </g>
   <g id="text_17">
    <g clip-path="url(#p143f5e8936)">
     <!-- PRKCB -->
     <g transform="translate(438.221998 490.309864)scale(0.1 -0.1)">
      <use xlink:href="#DejaVuSans-80"/>
      <use x="60.302734" xlink:href="#DejaVuSans-82"/>
      <use x="129.785156" xlink:href="#DejaVuSans-75"/>
      <use x="189.861328" xlink:href="#DejaVuSans-67"/>
      <use x="259.685547" xlink:href="#DejaVuSans-66"/>
     </g>
    </g>
   </g>
   <g id="text_18">
    <g clip-path="url(#p143f5e8936)">
     <!-- CDK4 -->
     <g transform="translate(274.887545 536.618136)scale(0.1 -0.1)">
      <use xlink:href="#DejaVuSans-67"/>
      <use x="69.824219" xlink:href="#DejaVuSans-68"/>
      <use x="146.826172" xlink:href="#DejaVuSans-75"/>
      <use x="212.402344" xlink:href="#DejaVuSans-52"/>
     </g>
    </g>
   </g>
   <g id="text_19">
    <g clip-path="url(#p143f5e8936)">
     <!-- CDK6 -->
     <g transform="translate(678.605578 227.562736)scale(0.1 -0.1)">
      <defs>
       <path d="M 33.015625 40.375 
Q 26.375 40.375 22.484375 35.828125 
Q 18.609375 31.296875 18.609375 23.390625 
Q 18.609375 15.53125 22.484375 10.953125 
Q 26.375 6.390625 33.015625 6.390625 
Q 39.65625 6.390625 43.53125 10.953125 
Q 47.40625 15.53125 47.40625 23.390625 
Q 47.40625 31.296875 43.53125 35.828125 
Q 39.65625 40.375 33.015625 40.375 
z
M 52.59375 71.296875 
L 52.59375 62.3125 
Q 48.875 64.0625 45.09375 64.984375 
Q 41.3125 65.921875 37.59375 65.921875 
Q 27.828125 65.921875 22.671875 59.328125 
Q 17.53125 52.734375 16.796875 39.40625 
Q 19.671875 43.65625 24.015625 45.921875 
Q 28.375 48.1875 33.59375 48.1875 
Q 44.578125 48.1875 50.953125 41.515625 
Q 57.328125 34.859375 57.328125 23.390625 
Q 57.328125 12.15625 50.6875 5.359375 
Q 44.046875 -1.421875 33.015625 -1.421875 
Q 20.359375 -1.421875 13.671875 8.265625 
Q 6.984375 17.96875 6.984375 36.375 
Q 6.984375 53.65625 15.1875 63.9375 
Q 23.390625 74.21875 37.203125 74.21875 
Q 40.921875 74.21875 44.703125 73.484375 
Q 48.484375 72.75 52.59375 71.296875 
z
" id="DejaVuSans-54"/>
      </defs>
      <use xlink:href="#DejaVuSans-67"/>
      <use x="69.824219" xlink:href="#DejaVuSans-68"/>
      <use x="146.826172" xlink:href="#DejaVuSans-75"/>
      <use x="212.402344" xlink:href="#DejaVuSans-54"/>
     </g>
    </g>
   </g>
   <g id="text_20">
    <g clip-path="url(#p143f5e8936)">
     <!-- E2F3 -->
     <g transform="translate(467.3995 375.826855)scale(0.1 -0.1)">
      <use xlink:href="#DejaVuSans-69"/>
      <use x="63.183594" xlink:href="#DejaVuSans-50"/>
      <use x="126.806641" xlink:href="#DejaVuSans-70"/>
      <use x="184.326172" xlink:href="#DejaVuSans-51"/>
     </g>
    </g>
   </g>
   <g id="text_21">
    <g clip-path="url(#p143f5e8936)">
     <!-- HRAS -->
     <g transform="translate(724.273128 550.741213)scale(0.1 -0.1)">
      <defs>
       <path d="M 9.8125 72.90625 
L 19.671875 72.90625 
L 19.671875 43.015625 
L 55.515625 43.015625 
L 55.515625 72.90625 
L 65.375 72.90625 
L 65.375 0 
L 55.515625 0 
L 55.515625 34.71875 
L 19.671875 34.71875 
L 19.671875 0 
L 9.8125 0 
z
" id="DejaVuSans-72"/>
      </defs>
      <use xlink:href="#DejaVuSans-72"/>
      <use x="75.195312" xlink:href="#DejaVuSans-82"/>
      <use x="140.677734" xlink:href="#DejaVuSans-65"/>
      <use x="209.085938" xlink:href="#DejaVuSans-83"/>
     </g>
    </g>
   </g>
   <g id="text_22">
    <g clip-path="url(#p143f5e8936)">
     <!-- NRAS -->
     <g transform="translate(603.097759 610.230578)scale(0.1 -0.1)">
      <use xlink:href="#DejaVuSans-78"/>
      <use x="74.804688" xlink:href="#DejaVuSans-82"/>
      <use x="140.287109" xlink:href="#DejaVuSans-65"/>
      <use x="208.695312" xlink:href="#DejaVuSans-83"/>
     </g>
    </g>
   </g>
   <g id="text_23">
    <g clip-path="url(#p143f5e8936)">
     <!-- PLCG1 -->
     <g transform="translate(898.71344 398.660004)scale(0.1 -0.1)">
      <use xlink:href="#DejaVuSans-80"/>
      <use x="60.302734" xlink:href="#DejaVuSans-76"/>
      <use x="116.015625" xlink:href="#DejaVuSans-67"/>
      <use x="185.839844" xlink:href="#DejaVuSans-71"/>
      <use x="263.330078" xlink:href="#DejaVuSans-49"/>
     </g>
    </g>
   </g>
   <g id="text_24">
    <g clip-path="url(#p143f5e8936)">
     <!-- PLCG2 -->
     <g transform="translate(241.681451 644.740157)scale(0.1 -0.1)">
      <use xlink:href="#DejaVuSans-80"/>
      <use x="60.302734" xlink:href="#DejaVuSans-76"/>
      <use x="116.015625" xlink:href="#DejaVuSans-67"/>
      <use x="185.839844" xlink:href="#DejaVuSans-71"/>
      <use x="263.330078" xlink:href="#DejaVuSans-50"/>
     </g>
    </g>
   </g>
   <g id="text_25">
    <g clip-path="url(#p143f5e8936)">
     <!-- MAP2K1 -->
     <g transform="translate(471.518513 713.988466)scale(0.1 -0.1)">
      <defs>
       <path d="M 9.8125 72.90625 
L 24.515625 72.90625 
L 43.109375 23.296875 
L 61.8125 72.90625 
L 76.515625 72.90625 
L 76.515625 0 
L 66.890625 0 
L 66.890625 64.015625 
L 48.09375 14.015625 
L 38.1875 14.015625 
L 19.390625 64.015625 
L 19.390625 0 
L 9.8125 0 
z
" id="DejaVuSans-77"/>
      </defs>
      <use xlink:href="#DejaVuSans-77"/>
      <use x="86.279297" xlink:href="#DejaVuSans-65"/>
      <use x="154.6875" xlink:href="#DejaVuSans-80"/>
      <use x="214.990234" xlink:href="#DejaVuSans-50"/>
      <use x="278.613281" xlink:href="#DejaVuSans-75"/>
      <use x="344.189453" xlink:href="#DejaVuSans-49"/>
     </g>
    </g>
   </g>
   <g id="text_26">
    <g clip-path="url(#p143f5e8936)">
     <!-- MAP2K2 -->
     <g transform="translate(938.934995 523.411651)scale(0.1 -0.1)">
      <use xlink:href="#DejaVuSans-77"/>
      <use x="86.279297" xlink:href="#DejaVuSans-65"/>
      <use x="154.6875" xlink:href="#DejaVuSans-80"/>
      <use x="214.990234" xlink:href="#DejaVuSans-50"/>
      <use x="278.613281" xlink:href="#DejaVuSans-75"/>
      <use x="344.189453" xlink:href="#DejaVuSans-50"/>
     </g>
    </g>
   </g>
   <g id="text_27">
    <g clip-path="url(#p143f5e8936)">
     <!-- BRAF -->
     <g transform="translate(760.671391 685.464195)scale(0.1 -0.1)">
      <use xlink:href="#DejaVuSans-66"/>
      <use x="68.603516" xlink:href="#DejaVuSans-82"/>
      <use x="134.085938" xlink:href="#DejaVuSans-65"/>
      <use x="202.494141" xlink:href="#DejaVuSans-70"/>
     </g>
    </g>
   </g>
   <g id="text_28">
    <g clip-path="url(#p143f5e8936)">
     <!-- RAF1 -->
     <g transform="translate(512.701243 486.728467)scale(0.1 -0.1)">
      <use xlink:href="#DejaVuSans-82"/>
      <use x="65.482422" xlink:href="#DejaVuSans-65"/>
      <use x="133.890625" xlink:href="#DejaVuSans-70"/>
      <use x="191.410156" xlink:href="#DejaVuSans-49"/>
     </g>
    </g>
   </g>
   <g id="text_29">
    <g clip-path="url(#p143f5e8936)">
     <!-- ARAF -->
     <g transform="translate(590.405619 436.868437)scale(0.1 -0.1)">
      <use xlink:href="#DejaVuSans-65"/>
      <use x="68.408203" xlink:href="#DejaVuSans-82"/>
      <use x="133.890625" xlink:href="#DejaVuSans-65"/>
      <use x="202.298828" xlink:href="#DejaVuSans-70"/>
     </g>
    </g>
   </g>
   <g id="text_30">
    <g clip-path="url(#p143f5e8936)">
     <!-- EML4 -->
     <g transform="translate(696.37473 396.966059)scale(0.1 -0.1)">
      <use xlink:href="#DejaVuSans-69"/>
      <use x="63.183594" xlink:href="#DejaVuSans-77"/>
      <use x="149.462891" xlink:href="#DejaVuSans-76"/>
      <use x="205.175781" xlink:href="#DejaVuSans-52"/>
     </g>
    </g>
   </g>
   <g id="text_31">
    <g clip-path="url(#p143f5e8936)">
     <!-- STAT3 -->
     <g transform="translate(206.365786 478.645738)scale(0.1 -0.1)">
      <use xlink:href="#DejaVuSans-83"/>
      <use x="63.476562" xlink:href="#DejaVuSans-84"/>
      <use x="116.810547" xlink:href="#DejaVuSans-65"/>
      <use x="177.46875" xlink:href="#DejaVuSans-84"/>
      <use x="238.552734" xlink:href="#DejaVuSans-51"/>
     </g>
    </g>
   </g>
   <g id="text_32">
    <g clip-path="url(#p143f5e8936)">
     <!-- STAT5A -->
     <g transform="translate(412.726229 183.465289)scale(0.1 -0.1)">
      <use xlink:href="#DejaVuSans-83"/>
      <use x="63.476562" xlink:href="#DejaVuSans-84"/>
      <use x="116.810547" xlink:href="#DejaVuSans-65"/>
      <use x="177.46875" xlink:href="#DejaVuSans-84"/>
      <use x="238.552734" xlink:href="#DejaVuSans-53"/>
      <use x="302.175781" xlink:href="#DejaVuSans-65"/>
     </g>
    </g>
   </g>
   <g id="text_33">
    <g clip-path="url(#p143f5e8936)">
     <!-- STAT5B -->
     <g transform="translate(881.497083 605.864012)scale(0.1 -0.1)">
      <use xlink:href="#DejaVuSans-83"/>
      <use x="63.476562" xlink:href="#DejaVuSans-84"/>
      <use x="116.810547" xlink:href="#DejaVuSans-65"/>
      <use x="177.46875" xlink:href="#DejaVuSans-84"/>
      <use x="238.552734" xlink:href="#DejaVuSans-53"/>
      <use x="302.175781" xlink:href="#DejaVuSans-66"/>
     </g>
    </g>
   </g>
   <g id="text_34">
    <!-- Importance Score and Relative Abundance for network hsa05223 for dataset atherosclerosis -->
    <g transform="translate(312.388125 97.68)scale(0.12 -0.12)">
     <defs>
      <path d="M 9.8125 72.90625 
L 19.671875 72.90625 
L 19.671875 0 
L 9.8125 0 
z
" id="DejaVuSans-73"/>
      <path d="M 52 44.1875 
Q 55.375 50.25 60.0625 53.125 
Q 64.75 56 71.09375 56 
Q 79.640625 56 84.28125 50.015625 
Q 88.921875 44.046875 88.921875 33.015625 
L 88.921875 0 
L 79.890625 0 
L 79.890625 32.71875 
Q 79.890625 40.578125 77.09375 44.375 
Q 74.3125 48.1875 68.609375 48.1875 
Q 61.625 48.1875 57.5625 43.546875 
Q 53.515625 38.921875 53.515625 30.90625 
L 53.515625 0 
L 44.484375 0 
L 44.484375 32.71875 
Q 44.484375 40.625 41.703125 44.40625 
Q 38.921875 48.1875 33.109375 48.1875 
Q 26.21875 48.1875 22.15625 43.53125 
Q 18.109375 38.875 18.109375 30.90625 
L 18.109375 0 
L 9.078125 0 
L 9.078125 54.6875 
L 18.109375 54.6875 
L 18.109375 46.1875 
Q 21.1875 51.21875 25.484375 53.609375 
Q 29.78125 56 35.6875 56 
Q 41.65625 56 45.828125 52.96875 
Q 50 49.953125 52 44.1875 
z
" id="DejaVuSans-109"/>
      <path d="M 18.109375 8.203125 
L 18.109375 -20.796875 
L 9.078125 -20.796875 
L 9.078125 54.6875 
L 18.109375 54.6875 
L 18.109375 46.390625 
Q 20.953125 51.265625 25.265625 53.625 
Q 29.59375 56 35.59375 56 
Q 45.5625 56 51.78125 48.09375 
Q 58.015625 40.1875 58.015625 27.296875 
Q 58.015625 14.40625 51.78125 6.484375 
Q 45.5625 -1.421875 35.59375 -1.421875 
Q 29.59375 -1.421875 25.265625 0.953125 
Q 20.953125 3.328125 18.109375 8.203125 
z
M 48.6875 27.296875 
Q 48.6875 37.203125 44.609375 42.84375 
Q 40.53125 48.484375 33.40625 48.484375 
Q 26.265625 48.484375 22.1875 42.84375 
Q 18.109375 37.203125 18.109375 27.296875 
Q 18.109375 17.390625 22.1875 11.75 
Q 26.265625 6.109375 33.40625 6.109375 
Q 40.53125 6.109375 44.609375 11.75 
Q 48.6875 17.390625 48.6875 27.296875 
z
" id="DejaVuSans-112"/>
      <path d="M 30.609375 48.390625 
Q 23.390625 48.390625 19.1875 42.75 
Q 14.984375 37.109375 14.984375 27.296875 
Q 14.984375 17.484375 19.15625 11.84375 
Q 23.34375 6.203125 30.609375 6.203125 
Q 37.796875 6.203125 41.984375 11.859375 
Q 46.1875 17.53125 46.1875 27.296875 
Q 46.1875 37.015625 41.984375 42.703125 
Q 37.796875 48.390625 30.609375 48.390625 
z
M 30.609375 56 
Q 42.328125 56 49.015625 48.375 
Q 55.71875 40.765625 55.71875 27.296875 
Q 55.71875 13.875 49.015625 6.21875 
Q 42.328125 -1.421875 30.609375 -1.421875 
Q 18.84375 -1.421875 12.171875 6.21875 
Q 5.515625 13.875 5.515625 27.296875 
Q 5.515625 40.765625 12.171875 48.375 
Q 18.84375 56 30.609375 56 
z
" id="DejaVuSans-111"/>
      <path d="M 41.109375 46.296875 
Q 39.59375 47.171875 37.8125 47.578125 
Q 36.03125 48 33.890625 48 
Q 26.265625 48 22.1875 43.046875 
Q 18.109375 38.09375 18.109375 28.8125 
L 18.109375 0 
L 9.078125 0 
L 9.078125 54.6875 
L 18.109375 54.6875 
L 18.109375 46.1875 
Q 20.953125 51.171875 25.484375 53.578125 
Q 30.03125 56 36.53125 56 
Q 37.453125 56 38.578125 55.875 
Q 39.703125 55.765625 41.0625 55.515625 
z
" id="DejaVuSans-114"/>
      <path d="M 18.3125 70.21875 
L 18.3125 54.6875 
L 36.8125 54.6875 
L 36.8125 47.703125 
L 18.3125 47.703125 
L 18.3125 18.015625 
Q 18.3125 11.328125 20.140625 9.421875 
Q 21.96875 7.515625 27.59375 7.515625 
L 36.8125 7.515625 
L 36.8125 0 
L 27.59375 0 
Q 17.1875 0 13.234375 3.875 
Q 9.28125 7.765625 9.28125 18.015625 
L 9.28125 47.703125 
L 2.6875 47.703125 
L 2.6875 54.6875 
L 9.28125 54.6875 
L 9.28125 70.21875 
z
" id="DejaVuSans-116"/>
      <path d="M 34.28125 27.484375 
Q 23.390625 27.484375 19.1875 25 
Q 14.984375 22.515625 14.984375 16.5 
Q 14.984375 11.71875 18.140625 8.90625 
Q 21.296875 6.109375 26.703125 6.109375 
Q 34.1875 6.109375 38.703125 11.40625 
Q 43.21875 16.703125 43.21875 25.484375 
L 43.21875 27.484375 
z
M 52.203125 31.203125 
L 52.203125 0 
L 43.21875 0 
L 43.21875 8.296875 
Q 40.140625 3.328125 35.546875 0.953125 
Q 30.953125 -1.421875 24.3125 -1.421875 
Q 15.921875 -1.421875 10.953125 3.296875 
Q 6 8.015625 6 15.921875 
Q 6 25.140625 12.171875 29.828125 
Q 18.359375 34.515625 30.609375 34.515625 
L 43.21875 34.515625 
L 43.21875 35.40625 
Q 43.21875 41.609375 39.140625 45 
Q 35.0625 48.390625 27.6875 48.390625 
Q 23 48.390625 18.546875 47.265625 
Q 14.109375 46.140625 10.015625 43.890625 
L 10.015625 52.203125 
Q 14.9375 54.109375 19.578125 55.046875 
Q 24.21875 56 28.609375 56 
Q 40.484375 56 46.34375 49.84375 
Q 52.203125 43.703125 52.203125 31.203125 
z
" id="DejaVuSans-97"/>
      <path d="M 54.890625 33.015625 
L 54.890625 0 
L 45.90625 0 
L 45.90625 32.71875 
Q 45.90625 40.484375 42.875 44.328125 
Q 39.84375 48.1875 33.796875 48.1875 
Q 26.515625 48.1875 22.3125 43.546875 
Q 18.109375 38.921875 18.109375 30.90625 
L 18.109375 0 
L 9.078125 0 
L 9.078125 54.6875 
L 18.109375 54.6875 
L 18.109375 46.1875 
Q 21.34375 51.125 25.703125 53.5625 
Q 30.078125 56 35.796875 56 
Q 45.21875 56 50.046875 50.171875 
Q 54.890625 44.34375 54.890625 33.015625 
z
" id="DejaVuSans-110"/>
      <path d="M 48.78125 52.59375 
L 48.78125 44.1875 
Q 44.96875 46.296875 41.140625 47.34375 
Q 37.3125 48.390625 33.40625 48.390625 
Q 24.65625 48.390625 19.8125 42.84375 
Q 14.984375 37.3125 14.984375 27.296875 
Q 14.984375 17.28125 19.8125 11.734375 
Q 24.65625 6.203125 33.40625 6.203125 
Q 37.3125 6.203125 41.140625 7.25 
Q 44.96875 8.296875 48.78125 10.40625 
L 48.78125 2.09375 
Q 45.015625 0.34375 40.984375 -0.53125 
Q 36.96875 -1.421875 32.421875 -1.421875 
Q 20.0625 -1.421875 12.78125 6.34375 
Q 5.515625 14.109375 5.515625 27.296875 
Q 5.515625 40.671875 12.859375 48.328125 
Q 20.21875 56 33.015625 56 
Q 37.15625 56 41.109375 55.140625 
Q 45.0625 54.296875 48.78125 52.59375 
z
" id="DejaVuSans-99"/>
      <path d="M 56.203125 29.59375 
L 56.203125 25.203125 
L 14.890625 25.203125 
Q 15.484375 15.921875 20.484375 11.0625 
Q 25.484375 6.203125 34.421875 6.203125 
Q 39.59375 6.203125 44.453125 7.46875 
Q 49.3125 8.734375 54.109375 11.28125 
L 54.109375 2.78125 
Q 49.265625 0.734375 44.1875 -0.34375 
Q 39.109375 -1.421875 33.890625 -1.421875 
Q 20.796875 -1.421875 13.15625 6.1875 
Q 5.515625 13.8125 5.515625 26.8125 
Q 5.515625 40.234375 12.765625 48.109375 
Q 20.015625 56 32.328125 56 
Q 43.359375 56 49.78125 48.890625 
Q 56.203125 41.796875 56.203125 29.59375 
z
M 47.21875 32.234375 
Q 47.125 39.59375 43.09375 43.984375 
Q 39.0625 48.390625 32.421875 48.390625 
Q 24.90625 48.390625 20.390625 44.140625 
Q 15.875 39.890625 15.1875 32.171875 
z
" id="DejaVuSans-101"/>
      <path id="DejaVuSans-32"/>
      <path d="M 45.40625 46.390625 
L 45.40625 75.984375 
L 54.390625 75.984375 
L 54.390625 0 
L 45.40625 0 
L 45.40625 8.203125 
Q 42.578125 3.328125 38.25 0.953125 
Q 33.9375 -1.421875 27.875 -1.421875 
Q 17.96875 -1.421875 11.734375 6.484375 
Q 5.515625 14.40625 5.515625 27.296875 
Q 5.515625 40.1875 11.734375 48.09375 
Q 17.96875 56 27.875 56 
Q 33.9375 56 38.25 53.625 
Q 42.578125 51.265625 45.40625 46.390625 
z
M 14.796875 27.296875 
Q 14.796875 17.390625 18.875 11.75 
Q 22.953125 6.109375 30.078125 6.109375 
Q 37.203125 6.109375 41.296875 11.75 
Q 45.40625 17.390625 45.40625 27.296875 
Q 45.40625 37.203125 41.296875 42.84375 
Q 37.203125 48.484375 30.078125 48.484375 
Q 22.953125 48.484375 18.875 42.84375 
Q 14.796875 37.203125 14.796875 27.296875 
z
" id="DejaVuSans-100"/>
      <path d="M 9.421875 75.984375 
L 18.40625 75.984375 
L 18.40625 0 
L 9.421875 0 
z
" id="DejaVuSans-108"/>
      <path d="M 9.421875 54.6875 
L 18.40625 54.6875 
L 18.40625 0 
L 9.421875 0 
z
M 9.421875 75.984375 
L 18.40625 75.984375 
L 18.40625 64.59375 
L 9.421875 64.59375 
z
" id="DejaVuSans-105"/>
      <path d="M 2.984375 54.6875 
L 12.5 54.6875 
L 29.59375 8.796875 
L 46.6875 54.6875 
L 56.203125 54.6875 
L 35.6875 0 
L 23.484375 0 
z
" id="DejaVuSans-118"/>
      <path d="M 48.6875 27.296875 
Q 48.6875 37.203125 44.609375 42.84375 
Q 40.53125 48.484375 33.40625 48.484375 
Q 26.265625 48.484375 22.1875 42.84375 
Q 18.109375 37.203125 18.109375 27.296875 
Q 18.109375 17.390625 22.1875 11.75 
Q 26.265625 6.109375 33.40625 6.109375 
Q 40.53125 6.109375 44.609375 11.75 
Q 48.6875 17.390625 48.6875 27.296875 
z
M 18.109375 46.390625 
Q 20.953125 51.265625 25.265625 53.625 
Q 29.59375 56 35.59375 56 
Q 45.5625 56 51.78125 48.09375 
Q 58.015625 40.1875 58.015625 27.296875 
Q 58.015625 14.40625 51.78125 6.484375 
Q 45.5625 -1.421875 35.59375 -1.421875 
Q 29.59375 -1.421875 25.265625 0.953125 
Q 20.953125 3.328125 18.109375 8.203125 
L 18.109375 0 
L 9.078125 0 
L 9.078125 75.984375 
L 18.109375 75.984375 
z
" id="DejaVuSans-98"/>
      <path d="M 8.5 21.578125 
L 8.5 54.6875 
L 17.484375 54.6875 
L 17.484375 21.921875 
Q 17.484375 14.15625 20.5 10.265625 
Q 23.53125 6.390625 29.59375 6.390625 
Q 36.859375 6.390625 41.078125 11.03125 
Q 45.3125 15.671875 45.3125 23.6875 
L 45.3125 54.6875 
L 54.296875 54.6875 
L 54.296875 0 
L 45.3125 0 
L 45.3125 8.40625 
Q 42.046875 3.421875 37.71875 1 
Q 33.40625 -1.421875 27.6875 -1.421875 
Q 18.265625 -1.421875 13.375 4.4375 
Q 8.5 10.296875 8.5 21.578125 
z
M 31.109375 56 
z
" id="DejaVuSans-117"/>
      <path d="M 37.109375 75.984375 
L 37.109375 68.5 
L 28.515625 68.5 
Q 23.6875 68.5 21.796875 66.546875 
Q 19.921875 64.59375 19.921875 59.515625 
L 19.921875 54.6875 
L 34.71875 54.6875 
L 34.71875 47.703125 
L 19.921875 47.703125 
L 19.921875 0 
L 10.890625 0 
L 10.890625 47.703125 
L 2.296875 47.703125 
L 2.296875 54.6875 
L 10.890625 54.6875 
L 10.890625 58.5 
Q 10.890625 67.625 15.140625 71.796875 
Q 19.390625 75.984375 28.609375 75.984375 
z
" id="DejaVuSans-102"/>
      <path d="M 4.203125 54.6875 
L 13.1875 54.6875 
L 24.421875 12.015625 
L 35.59375 54.6875 
L 46.1875 54.6875 
L 57.421875 12.015625 
L 68.609375 54.6875 
L 77.59375 54.6875 
L 63.28125 0 
L 52.6875 0 
L 40.921875 44.828125 
L 29.109375 0 
L 18.5 0 
z
" id="DejaVuSans-119"/>
      <path d="M 9.078125 75.984375 
L 18.109375 75.984375 
L 18.109375 31.109375 
L 44.921875 54.6875 
L 56.390625 54.6875 
L 27.390625 29.109375 
L 57.625 0 
L 45.90625 0 
L 18.109375 26.703125 
L 18.109375 0 
L 9.078125 0 
z
" id="DejaVuSans-107"/>
      <path d="M 54.890625 33.015625 
L 54.890625 0 
L 45.90625 0 
L 45.90625 32.71875 
Q 45.90625 40.484375 42.875 44.328125 
Q 39.84375 48.1875 33.796875 48.1875 
Q 26.515625 48.1875 22.3125 43.546875 
Q 18.109375 38.921875 18.109375 30.90625 
L 18.109375 0 
L 9.078125 0 
L 9.078125 75.984375 
L 18.109375 75.984375 
L 18.109375 46.1875 
Q 21.34375 51.125 25.703125 53.5625 
Q 30.078125 56 35.796875 56 
Q 45.21875 56 50.046875 50.171875 
Q 54.890625 44.34375 54.890625 33.015625 
z
" id="DejaVuSans-104"/>
      <path d="M 44.28125 53.078125 
L 44.28125 44.578125 
Q 40.484375 46.53125 36.375 47.5 
Q 32.28125 48.484375 27.875 48.484375 
Q 21.1875 48.484375 17.84375 46.4375 
Q 14.5 44.390625 14.5 40.28125 
Q 14.5 37.15625 16.890625 35.375 
Q 19.28125 33.59375 26.515625 31.984375 
L 29.59375 31.296875 
Q 39.15625 29.25 43.1875 25.515625 
Q 47.21875 21.78125 47.21875 15.09375 
Q 47.21875 7.46875 41.1875 3.015625 
Q 35.15625 -1.421875 24.609375 -1.421875 
Q 20.21875 -1.421875 15.453125 -0.5625 
Q 10.6875 0.296875 5.421875 2 
L 5.421875 11.28125 
Q 10.40625 8.6875 15.234375 7.390625 
Q 20.0625 6.109375 24.8125 6.109375 
Q 31.15625 6.109375 34.5625 8.28125 
Q 37.984375 10.453125 37.984375 14.40625 
Q 37.984375 18.0625 35.515625 20.015625 
Q 33.0625 21.96875 24.703125 23.78125 
L 21.578125 24.515625 
Q 13.234375 26.265625 9.515625 29.90625 
Q 5.8125 33.546875 5.8125 39.890625 
Q 5.8125 47.609375 11.28125 51.796875 
Q 16.75 56 26.8125 56 
Q 31.78125 56 36.171875 55.265625 
Q 40.578125 54.546875 44.28125 53.078125 
z
" id="DejaVuSans-115"/>
      <path d="M 31.78125 66.40625 
Q 24.171875 66.40625 20.328125 58.90625 
Q 16.5 51.421875 16.5 36.375 
Q 16.5 21.390625 20.328125 13.890625 
Q 24.171875 6.390625 31.78125 6.390625 
Q 39.453125 6.390625 43.28125 13.890625 
Q 47.125 21.390625 47.125 36.375 
Q 47.125 51.421875 43.28125 58.90625 
Q 39.453125 66.40625 31.78125 66.40625 
z
M 31.78125 74.21875 
Q 44.046875 74.21875 50.515625 64.515625 
Q 56.984375 54.828125 56.984375 36.375 
Q 56.984375 17.96875 50.515625 8.265625 
Q 44.046875 -1.421875 31.78125 -1.421875 
Q 19.53125 -1.421875 13.0625 8.265625 
Q 6.59375 17.96875 6.59375 36.375 
Q 6.59375 54.828125 13.0625 64.515625 
Q 19.53125 74.21875 31.78125 74.21875 
z
" id="DejaVuSans-48"/>
     </defs>
     <use xlink:href="#DejaVuSans-73"/>
     <use x="29.492188" xlink:href="#DejaVuSans-109"/>
     <use x="126.904297" xlink:href="#DejaVuSans-112"/>
     <use x="190.380859" xlink:href="#DejaVuSans-111"/>
     <use x="251.5625" xlink:href="#DejaVuSans-114"/>
     <use x="292.675781" xlink:href="#DejaVuSans-116"/>
     <use x="331.884766" xlink:href="#DejaVuSans-97"/>
     <use x="393.164062" xlink:href="#DejaVuSans-110"/>
     <use x="456.542969" xlink:href="#DejaVuSans-99"/>
     <use x="511.523438" xlink:href="#DejaVuSans-101"/>
     <use x="573.046875" xlink:href="#DejaVuSans-32"/>
     <use x="604.833984" xlink:href="#DejaVuSans-83"/>
     <use x="668.310547" xlink:href="#DejaVuSans-99"/>
     <use x="723.291016" xlink:href="#DejaVuSans-111"/>
     <use x="784.472656" xlink:href="#DejaVuSans-114"/>
     <use x="823.335938" xlink:href="#DejaVuSans-101"/>
     <use x="884.859375" xlink:href="#DejaVuSans-32"/>
     <use x="916.646484" xlink:href="#DejaVuSans-97"/>
     <use x="977.925781" xlink:href="#DejaVuSans-110"/>
     <use x="1041.304688" xlink:href="#DejaVuSans-100"/>
     <use x="1104.78125" xlink:href="#DejaVuSans-32"/>
     <use x="1136.568359" xlink:href="#DejaVuSans-82"/>
     <use x="1201.550781" xlink:href="#DejaVuSans-101"/>
     <use x="1263.074219" xlink:href="#DejaVuSans-108"/>
     <use x="1290.857422" xlink:href="#DejaVuSans-97"/>
     <use x="1352.136719" xlink:href="#DejaVuSans-116"/>
     <use x="1391.345703" xlink:href="#DejaVuSans-105"/>
     <use x="1419.128906" xlink:href="#DejaVuSans-118"/>
     <use x="1478.308594" xlink:href="#DejaVuSans-101"/>
     <use x="1539.832031" xlink:href="#DejaVuSans-32"/>
     <use x="1571.619141" xlink:href="#DejaVuSans-65"/>
     <use x="1640.027344" xlink:href="#DejaVuSans-98"/>
     <use x="1703.503906" xlink:href="#DejaVuSans-117"/>
     <use x="1766.882812" xlink:href="#DejaVuSans-110"/>
     <use x="1830.261719" xlink:href="#DejaVuSans-100"/>
     <use x="1893.738281" xlink:href="#DejaVuSans-97"/>
     <use x="1955.017578" xlink:href="#DejaVuSans-110"/>
     <use x="2018.396484" xlink:href="#DejaVuSans-99"/>
     <use x="2073.376953" xlink:href="#DejaVuSans-101"/>
     <use x="2134.900391" xlink:href="#DejaVuSans-32"/>
     <use x="2166.6875" xlink:href="#DejaVuSans-102"/>
     <use x="2201.892578" xlink:href="#DejaVuSans-111"/>
     <use x="2263.074219" xlink:href="#DejaVuSans-114"/>
     <use x="2304.1875" xlink:href="#DejaVuSans-32"/>
     <use x="2335.974609" xlink:href="#DejaVuSans-110"/>
     <use x="2399.353516" xlink:href="#DejaVuSans-101"/>
     <use x="2460.876953" xlink:href="#DejaVuSans-116"/>
     <use x="2500.085938" xlink:href="#DejaVuSans-119"/>
     <use x="2581.873047" xlink:href="#DejaVuSans-111"/>
     <use x="2643.054688" xlink:href="#DejaVuSans-114"/>
     <use x="2684.167969" xlink:href="#DejaVuSans-107"/>
     <use x="2742.078125" xlink:href="#DejaVuSans-32"/>
     <use x="2773.865234" xlink:href="#DejaVuSans-104"/>
     <use x="2837.244141" xlink:href="#DejaVuSans-115"/>
     <use x="2889.34375" xlink:href="#DejaVuSans-97"/>
     <use x="2950.623047" xlink:href="#DejaVuSans-48"/>
     <use x="3014.246094" xlink:href="#DejaVuSans-53"/>
     <use x="3077.869141" xlink:href="#DejaVuSans-50"/>
     <use x="3141.492188" xlink:href="#DejaVuSans-50"/>
     <use x="3205.115234" xlink:href="#DejaVuSans-51"/>
     <use x="3268.738281" xlink:href="#DejaVuSans-32"/>
     <use x="3300.525391" xlink:href="#DejaVuSans-102"/>
     <use x="3335.730469" xlink:href="#DejaVuSans-111"/>
     <use x="3396.912109" xlink:href="#DejaVuSans-114"/>
     <use x="3438.025391" xlink:href="#DejaVuSans-32"/>
     <use x="3469.8125" xlink:href="#DejaVuSans-100"/>
     <use x="3533.289062" xlink:href="#DejaVuSans-97"/>
     <use x="3594.568359" xlink:href="#DejaVuSans-116"/>
     <use x="3633.777344" xlink:href="#DejaVuSans-97"/>
     <use x="3695.056641" xlink:href="#DejaVuSans-115"/>
     <use x="3747.15625" xlink:href="#DejaVuSans-101"/>
     <use x="3808.679688" xlink:href="#DejaVuSans-116"/>
     <use x="3847.888672" xlink:href="#DejaVuSans-32"/>
     <use x="3879.675781" xlink:href="#DejaVuSans-97"/>
     <use x="3940.955078" xlink:href="#DejaVuSans-116"/>
     <use x="3980.164062" xlink:href="#DejaVuSans-104"/>
     <use x="4043.542969" xlink:href="#DejaVuSans-101"/>
     <use x="4105.066406" xlink:href="#DejaVuSans-114"/>
     <use x="4143.929688" xlink:href="#DejaVuSans-111"/>
     <use x="4205.111328" xlink:href="#DejaVuSans-115"/>
     <use x="4257.210938" xlink:href="#DejaVuSans-99"/>
     <use x="4312.191406" xlink:href="#DejaVuSans-108"/>
     <use x="4339.974609" xlink:href="#DejaVuSans-101"/>
     <use x="4401.498047" xlink:href="#DejaVuSans-114"/>
     <use x="4440.361328" xlink:href="#DejaVuSans-111"/>
     <use x="4501.542969" xlink:href="#DejaVuSans-115"/>
     <use x="4553.642578" xlink:href="#DejaVuSans-105"/>
     <use x="4581.425781" xlink:href="#DejaVuSans-115"/>
    </g>
   </g>
   <g id="legend_1">
    <g id="patch_49">
     <path d="M 803.859375 155.714375 
L 1029.8 155.714375 
Q 1031.8 155.714375 1031.8 153.714375 
L 1031.8 110.68 
Q 1031.8 108.68 1029.8 108.68 
L 803.859375 108.68 
Q 801.859375 108.68 801.859375 110.68 
L 801.859375 153.714375 
Q 801.859375 155.714375 803.859375 155.714375 
z
" style="fill:#ffffff;opacity:0.8;stroke:#cccccc;stroke-linejoin:miter;"/>
    </g>
    <g id="text_35">
     <!-- Relative Expression of AS+ compared to AS- -->
     <g transform="translate(805.859375 120.278437)scale(0.1 -0.1)">
      <defs>
       <path d="M 54.890625 54.6875 
L 35.109375 28.078125 
L 55.90625 0 
L 45.3125 0 
L 29.390625 21.484375 
L 13.484375 0 
L 2.875 0 
L 24.125 28.609375 
L 4.6875 54.6875 
L 15.28125 54.6875 
L 29.78125 35.203125 
L 44.28125 54.6875 
z
" id="DejaVuSans-120"/>
       <path d="M 46 62.703125 
L 46 35.5 
L 73.1875 35.5 
L 73.1875 27.203125 
L 46 27.203125 
L 46 0 
L 37.796875 0 
L 37.796875 27.203125 
L 10.59375 27.203125 
L 10.59375 35.5 
L 37.796875 35.5 
L 37.796875 62.703125 
z
" id="DejaVuSans-43"/>
       <path d="M 4.890625 31.390625 
L 31.203125 31.390625 
L 31.203125 23.390625 
L 4.890625 23.390625 
z
" id="DejaVuSans-45"/>
      </defs>
      <use xlink:href="#DejaVuSans-82"/>
      <use x="64.982422" xlink:href="#DejaVuSans-101"/>
      <use x="126.505859" xlink:href="#DejaVuSans-108"/>
      <use x="154.289062" xlink:href="#DejaVuSans-97"/>
      <use x="215.568359" xlink:href="#DejaVuSans-116"/>
      <use x="254.777344" xlink:href="#DejaVuSans-105"/>
      <use x="282.560547" xlink:href="#DejaVuSans-118"/>
      <use x="341.740234" xlink:href="#DejaVuSans-101"/>
      <use x="403.263672" xlink:href="#DejaVuSans-32"/>
      <use x="435.050781" xlink:href="#DejaVuSans-69"/>
      <use x="498.234375" xlink:href="#DejaVuSans-120"/>
      <use x="557.414062" xlink:href="#DejaVuSans-112"/>
      <use x="620.890625" xlink:href="#DejaVuSans-114"/>
      <use x="659.753906" xlink:href="#DejaVuSans-101"/>
      <use x="721.277344" xlink:href="#DejaVuSans-115"/>
      <use x="773.376953" xlink:href="#DejaVuSans-115"/>
      <use x="825.476562" xlink:href="#DejaVuSans-105"/>
      <use x="853.259766" xlink:href="#DejaVuSans-111"/>
      <use x="914.441406" xlink:href="#DejaVuSans-110"/>
      <use x="977.820312" xlink:href="#DejaVuSans-32"/>
      <use x="1009.607422" xlink:href="#DejaVuSans-111"/>
      <use x="1070.789062" xlink:href="#DejaVuSans-102"/>
      <use x="1105.994141" xlink:href="#DejaVuSans-32"/>
      <use x="1137.78125" xlink:href="#DejaVuSans-65"/>
      <use x="1206.189453" xlink:href="#DejaVuSans-83"/>
      <use x="1269.666016" xlink:href="#DejaVuSans-43"/>
      <use x="1353.455078" xlink:href="#DejaVuSans-32"/>
      <use x="1385.242188" xlink:href="#DejaVuSans-99"/>
      <use x="1440.222656" xlink:href="#DejaVuSans-111"/>
      <use x="1501.404297" xlink:href="#DejaVuSans-109"/>
      <use x="1598.816406" xlink:href="#DejaVuSans-112"/>
      <use x="1662.292969" xlink:href="#DejaVuSans-97"/>
      <use x="1723.572266" xlink:href="#DejaVuSans-114"/>
      <use x="1762.435547" xlink:href="#DejaVuSans-101"/>
      <use x="1823.958984" xlink:href="#DejaVuSans-100"/>
      <use x="1887.435547" xlink:href="#DejaVuSans-32"/>
      <use x="1919.222656" xlink:href="#DejaVuSans-116"/>
      <use x="1958.431641" xlink:href="#DejaVuSans-111"/>
      <use x="2019.613281" xlink:href="#DejaVuSans-32"/>
      <use x="2051.400391" xlink:href="#DejaVuSans-65"/>
      <use x="2119.808594" xlink:href="#DejaVuSans-83"/>
      <use x="2183.285156" xlink:href="#DejaVuSans-45"/>
     </g>
    </g>
    <g id="patch_50">
     <path d="M 829.136719 134.956562 
L 849.136719 134.956562 
L 849.136719 127.956562 
L 829.136719 127.956562 
z
" style="fill:#0000ff;stroke:#0000ff;stroke-linejoin:miter;"/>
    </g>
    <g id="text_36">
     <!-- Decreased expression in AS+ -->
     <g transform="translate(857.136719 134.956562)scale(0.1 -0.1)">
      <use xlink:href="#DejaVuSans-68"/>
      <use x="77.001953" xlink:href="#DejaVuSans-101"/>
      <use x="138.525391" xlink:href="#DejaVuSans-99"/>
      <use x="193.505859" xlink:href="#DejaVuSans-114"/>
      <use x="232.369141" xlink:href="#DejaVuSans-101"/>
      <use x="293.892578" xlink:href="#DejaVuSans-97"/>
      <use x="355.171875" xlink:href="#DejaVuSans-115"/>
      <use x="407.271484" xlink:href="#DejaVuSans-101"/>
      <use x="468.794922" xlink:href="#DejaVuSans-100"/>
      <use x="532.271484" xlink:href="#DejaVuSans-32"/>
      <use x="564.058594" xlink:href="#DejaVuSans-101"/>
      <use x="623.832031" xlink:href="#DejaVuSans-120"/>
      <use x="683.011719" xlink:href="#DejaVuSans-112"/>
      <use x="746.488281" xlink:href="#DejaVuSans-114"/>
      <use x="785.351562" xlink:href="#DejaVuSans-101"/>
      <use x="846.875" xlink:href="#DejaVuSans-115"/>
      <use x="898.974609" xlink:href="#DejaVuSans-115"/>
      <use x="951.074219" xlink:href="#DejaVuSans-105"/>
      <use x="978.857422" xlink:href="#DejaVuSans-111"/>
      <use x="1040.039062" xlink:href="#DejaVuSans-110"/>
      <use x="1103.417969" xlink:href="#DejaVuSans-32"/>
      <use x="1135.205078" xlink:href="#DejaVuSans-105"/>
      <use x="1162.988281" xlink:href="#DejaVuSans-110"/>
      <use x="1226.367188" xlink:href="#DejaVuSans-32"/>
      <use x="1258.154297" xlink:href="#DejaVuSans-65"/>
      <use x="1326.5625" xlink:href="#DejaVuSans-83"/>
      <use x="1390.039062" xlink:href="#DejaVuSans-43"/>
     </g>
    </g>
    <g id="patch_51">
     <path d="M 829.136719 149.634687 
L 849.136719 149.634687 
L 849.136719 142.634687 
L 829.136719 142.634687 
z
" style="fill:#ff0000;stroke:#ff0000;stroke-linejoin:miter;"/>
    </g>
    <g id="text_37">
     <!-- Increased expression in AS+ -->
     <g transform="translate(857.136719 149.634687)scale(0.1 -0.1)">
      <use xlink:href="#DejaVuSans-73"/>
      <use x="29.492188" xlink:href="#DejaVuSans-110"/>
      <use x="92.871094" xlink:href="#DejaVuSans-99"/>
      <use x="147.851562" xlink:href="#DejaVuSans-114"/>
      <use x="186.714844" xlink:href="#DejaVuSans-101"/>
      <use x="248.238281" xlink:href="#DejaVuSans-97"/>
      <use x="309.517578" xlink:href="#DejaVuSans-115"/>
      <use x="361.617188" xlink:href="#DejaVuSans-101"/>
      <use x="423.140625" xlink:href="#DejaVuSans-100"/>
      <use x="486.617188" xlink:href="#DejaVuSans-32"/>
      <use x="518.404297" xlink:href="#DejaVuSans-101"/>
      <use x="578.177734" xlink:href="#DejaVuSans-120"/>
      <use x="637.357422" xlink:href="#DejaVuSans-112"/>
      <use x="700.833984" xlink:href="#DejaVuSans-114"/>
      <use x="739.697266" xlink:href="#DejaVuSans-101"/>
      <use x="801.220703" xlink:href="#DejaVuSans-115"/>
      <use x="853.320312" xlink:href="#DejaVuSans-115"/>
      <use x="905.419922" xlink:href="#DejaVuSans-105"/>
      <use x="933.203125" xlink:href="#DejaVuSans-111"/>
      <use x="994.384766" xlink:href="#DejaVuSans-110"/>
      <use x="1057.763672" xlink:href="#DejaVuSans-32"/>
      <use x="1089.550781" xlink:href="#DejaVuSans-105"/>
      <use x="1117.333984" xlink:href="#DejaVuSans-110"/>
      <use x="1180.712891" xlink:href="#DejaVuSans-32"/>
      <use x="1212.5" xlink:href="#DejaVuSans-65"/>
      <use x="1280.908203" xlink:href="#DejaVuSans-83"/>
      <use x="1344.384766" xlink:href="#DejaVuSans-43"/>
     </g>
    </g>
   </g>
  </g>
 </g>
 <defs>
  <clipPath id="p143f5e8936">
   <rect height="665.28" width="892.8" x="144" y="103.68"/>
  </clipPath>
 </defs>
</svg>
