<?xml version="1.0" encoding="utf-8" standalone="no"?>
<!DOCTYPE svg PUBLIC "-//W3C//DTD SVG 1.1//EN"
  "http://www.w3.org/Graphics/SVG/1.1/DTD/svg11.dtd">
<!-- Created with matplotlib (https://matplotlib.org/) -->
<svg height="864pt" version="1.1" viewBox="0 0 1152 864" width="1152pt" xmlns="http://www.w3.org/2000/svg" xmlns:xlink="http://www.w3.org/1999/xlink">
 <metadata>
  <rdf:RDF xmlns:cc="http://creativecommons.org/ns#" xmlns:dc="http://purl.org/dc/elements/1.1/" xmlns:rdf="http://www.w3.org/1999/02/22-rdf-syntax-ns#">
   <cc:Work>
    <dc:type rdf:resource="http://purl.org/dc/dcmitype/StillImage"/>
    <dc:date>2024-04-26T11:32:36.737251</dc:date>
    <dc:format>image/svg+xml</dc:format>
    <dc:creator>
     <cc:Agent>
      <dc:title>Matplotlib v3.3.1, https://matplotlib.org/</dc:title>
     </cc:Agent>
    </dc:creator>
   </cc:Work>
  </rdf:RDF>
 </metadata>
 <defs>
  <style type="text/css">*{stroke-linecap:butt;stroke-linejoin:round;}</style>
 </defs>
 <g id="figure_1">
  <g id="patch_1">
   <path d="M 0 864 
L 1152 864 
L 1152 0 
L 0 0 
z
" style="fill:#ffffff;"/>
  </g>
  <g id="axes_1">
   <g id="patch_2">
    <path clip-path="url(#p217237b760)" d="M 407.801677 386.905517 
Q 528.729798 397.051479 648.5438 407.103966 
" style="fill:none;stroke:#000000;stroke-linecap:round;"/>
    <path clip-path="url(#p217237b760)" d="M 644.725019 404.77654 
L 648.5438 407.103966 
L 644.390591 408.762535 
L 644.725019 404.77654 
z
" style="stroke:#000000;stroke-linecap:round;"/>
   </g>
   <g id="patch_3">
    <path clip-path="url(#p217237b760)" d="M 392.87677 382.381718 
Q 326.346572 345.615588 260.794927 309.39023 
" style="fill:none;stroke:#000000;stroke-linecap:round;"/>
    <path clip-path="url(#p217237b760)" d="M 263.328544 313.075441 
L 260.794927 309.39023 
L 265.263266 309.574462 
L 263.328544 313.075441 
z
" style="stroke:#000000;stroke-linecap:round;"/>
   </g>
   <g id="patch_4">
    <path clip-path="url(#p217237b760)" d="M 548.667464 437.393843 
Q 436.967572 528.880629 326.132625 619.658988 
" style="fill:none;stroke:#000000;stroke-linecap:round;"/>
    <path clip-path="url(#p217237b760)" d="M 330.494423 618.671707 
L 326.132625 619.658988 
L 327.95988 615.577181 
L 330.494423 618.671707 
z
" style="stroke:#000000;stroke-linecap:round;"/>
   </g>
   <g id="patch_5">
    <path clip-path="url(#p217237b760)" d="M 575.16715 434.194718 
Q 738.189465 512.102877 900.20302 589.528951 
" style="fill:none;stroke:#000000;stroke-linecap:round;"/>
    <path clip-path="url(#p217237b760)" d="M 897.456354 585.99967 
L 900.20302 589.528951 
L 895.731596 589.608715 
L 897.456354 585.99967 
z
" style="stroke:#000000;stroke-linecap:round;"/>
   </g>
   <g id="patch_6">
    <path clip-path="url(#p217237b760)" d="M 549.289938 416.6404 
Q 454.158659 328.66611 359.848223 241.450909 
" style="fill:none;stroke:#000000;stroke-linecap:round;"/>
    <path clip-path="url(#p217237b760)" d="M 361.427062 245.635078 
L 359.848223 241.450909 
L 364.142861 242.698339 
L 361.427062 245.635078 
z
" style="stroke:#000000;stroke-linecap:round;"/>
   </g>
   <g id="patch_7">
    <path clip-path="url(#p217237b760)" d="M 545.094445 426.89206 
Q 385.87442 422.017773 227.771905 417.177698 
" style="fill:none;stroke:#000000;stroke-linecap:round;"/>
    <path clip-path="url(#p217237b760)" d="M 231.708834 419.299158 
L 227.771905 417.177698 
L 231.831231 415.301031 
L 231.708834 419.299158 
z
" style="stroke:#000000;stroke-linecap:round;"/>
   </g>
   <g id="patch_8">
    <path clip-path="url(#p217237b760)" d="M 552.304571 414.105555 
Q 481.297006 304.462797 410.89719 195.758464 
" style="fill:none;stroke:#000000;stroke-linecap:round;"/>
    <path clip-path="url(#p217237b760)" d="M 411.392833 200.203049 
L 410.89719 195.758464 
L 414.750244 198.0287 
L 411.392833 200.203049 
z
" style="stroke:#000000;stroke-linecap:round;"/>
   </g>
   <g id="patch_9">
    <path clip-path="url(#p217237b760)" d="M 576.659922 428.641804 
Q 765.410467 443.80205 953.046566 458.872785 
" style="fill:none;stroke:#000000;stroke-linecap:round;"/>
    <path clip-path="url(#p217237b760)" d="M 949.219528 456.55896 
L 953.046566 458.872785 
L 948.899284 460.54612 
L 949.219528 456.55896 
z
" style="stroke:#000000;stroke-linecap:round;"/>
   </g>
   <g id="patch_10">
    <path clip-path="url(#p217237b760)" d="M 547.321129 435.475659 
Q 423.326125 509.445049 300.291285 582.841652 
" style="fill:none;stroke:#000000;stroke-linecap:round;"/>
    <path clip-path="url(#p217237b760)" d="M 304.751105 582.50998 
L 300.291285 582.841652 
L 302.701839 579.074793 
L 304.751105 582.50998 
z
" style="stroke:#000000;stroke-linecap:round;"/>
   </g>
   <g id="patch_11">
    <path clip-path="url(#p217237b760)" d="M 571.331182 415.49036 
Q 648.37901 327.710488 724.689304 240.770881 
" style="fill:none;stroke:#000000;stroke-linecap:round;"/>
    <path clip-path="url(#p217237b760)" d="M 720.547514 242.457764 
L 724.689304 240.770881 
L 723.553736 245.096443 
L 720.547514 242.457764 
z
" style="stroke:#000000;stroke-linecap:round;"/>
   </g>
   <g id="patch_12">
    <path clip-path="url(#p217237b760)" d="M 576.560137 425.198917 
Q 761.403943 399.50513 945.140362 373.965274 
" style="fill:none;stroke:#000000;stroke-linecap:round;"/>
    <path clip-path="url(#p217237b760)" d="M 940.903096 372.535036 
L 945.140362 373.965274 
L 941.453812 376.496943 
L 940.903096 372.535036 
z
" style="stroke:#000000;stroke-linecap:round;"/>
   </g>
   <g id="patch_13">
    <path clip-path="url(#p217237b760)" d="M 561.000583 411.568794 
Q 561.789371 289.079758 562.57096 167.708733 
" style="fill:none;stroke:#000000;stroke-linecap:round;"/>
    <path clip-path="url(#p217237b760)" d="M 560.545243 171.695771 
L 562.57096 167.708733 
L 564.54516 171.721529 
L 560.545243 171.695771 
z
" style="stroke:#000000;stroke-linecap:round;"/>
   </g>
   <g id="patch_14">
    <path clip-path="url(#p217237b760)" d="M 545.753672 422.824859 
Q 399.106842 378.758272 253.530749 335.013434 
" style="fill:none;stroke:#000000;stroke-linecap:round;"/>
    <path clip-path="url(#p217237b760)" d="M 256.785967 338.079956 
L 253.530749 335.013434 
L 257.937097 334.249172 
L 256.785967 338.079956 
z
" style="stroke:#000000;stroke-linecap:round;"/>
   </g>
   <g id="patch_15">
    <path clip-path="url(#p217237b760)" d="M 557.294794 411.977274 
Q 534.11941 312.956978 511.198812 215.025297 
" style="fill:none;stroke:#000000;stroke-linecap:round;"/>
    <path clip-path="url(#p217237b760)" d="M 510.162991 219.375822 
L 511.198812 215.025297 
L 514.05774 218.464269 
L 510.162991 219.375822 
z
" style="stroke:#000000;stroke-linecap:round;"/>
   </g>
   <g id="patch_16">
    <path clip-path="url(#p217237b760)" d="M 556.687168 442.61581 
Q 521.641668 569.429353 486.893979 695.165255 
" style="fill:none;stroke:#000000;stroke-linecap:round;"/>
    <path clip-path="url(#p217237b760)" d="M 489.887201 691.842512 
L 486.893979 695.165255 
L 486.031717 690.777032 
L 489.887201 691.842512 
z
" style="stroke:#000000;stroke-linecap:round;"/>
   </g>
   <g id="patch_17">
    <path clip-path="url(#p217237b760)" d="M 560.344169 443.176898 
Q 555.85949 570.944313 551.414029 697.594382 
" style="fill:none;stroke:#000000;stroke-linecap:round;"/>
    <path clip-path="url(#p217237b760)" d="M 553.553113 693.667001 
L 551.414029 697.594382 
L 549.555575 693.526686 
L 553.553113 693.667001 
z
" style="stroke:#000000;stroke-linecap:round;"/>
   </g>
   <g id="patch_18">
    <path clip-path="url(#p217237b760)" d="M 669.691687 183.987775 
Q 746.609776 210.037847 822.468914 235.72928 
" style="fill:none;stroke:#000000;stroke-linecap:round;"/>
    <path clip-path="url(#p217237b760)" d="M 819.321845 232.551866 
L 822.468914 235.72928 
L 818.038742 236.340487 
L 819.321845 232.551866 
z
" style="stroke:#000000;stroke-linecap:round;"/>
   </g>
   <g id="patch_19">
    <path clip-path="url(#p217237b760)" d="M 653.847678 187.160029 
Q 627.245095 210.56265 601.481955 233.226803 
" style="fill:none;stroke:#000000;stroke-linecap:round;"/>
    <path clip-path="url(#p217237b760)" d="M 605.80625 232.08642 
L 601.481955 233.226803 
L 603.164225 229.083137 
L 605.80625 232.08642 
z
" style="stroke:#000000;stroke-linecap:round;"/>
   </g>
   <g id="patch_20">
    <path clip-path="url(#p217237b760)" d="M 826.660788 519.548357 
Q 723.321891 613.66747 620.809577 707.033747 
" style="fill:none;stroke:#000000;stroke-linecap:round;"/>
    <path clip-path="url(#p217237b760)" d="M 625.113562 705.818956 
L 620.809577 707.033747 
L 622.420135 702.861685 
L 625.113562 705.818956 
z
" style="stroke:#000000;stroke-linecap:round;"/>
   </g>
   <g id="patch_21">
    <path clip-path="url(#p217237b760)" d="M 444.543936 388.477218 
Q 352.613681 381.292952 261.798062 374.195795 
" style="fill:none;stroke:#000000;stroke-linecap:round;"/>
    <path clip-path="url(#p217237b760)" d="M 265.63008 376.501361 
L 261.798062 374.195795 
L 265.941726 372.51352 
L 265.63008 376.501361 
z
" style="stroke:#000000;stroke-linecap:round;"/>
   </g>
   <g id="patch_22">
    <path clip-path="url(#p217237b760)" d="M 457.936408 394.928835 
Q 595.21334 541.990873 731.727359 688.23562 
" style="fill:none;stroke:#000000;stroke-linecap:round;"/>
    <path clip-path="url(#p217237b760)" d="M 730.4599 683.94685 
L 731.727359 688.23562 
L 727.535868 686.676325 
L 730.4599 683.94685 
z
" style="stroke:#000000;stroke-linecap:round;"/>
   </g>
   <g id="patch_23">
    <path clip-path="url(#p217237b760)" d="M 542.064253 506.386329 
Q 474.00589 448.885665 406.801558 392.106549 
" style="fill:none;stroke:#000000;stroke-linecap:round;"/>
    <path clip-path="url(#p217237b760)" d="M 408.566288 396.215773 
L 406.801558 392.106549 
L 411.147776 393.160299 
L 408.566288 396.215773 
z
" style="stroke:#000000;stroke-linecap:round;"/>
   </g>
   <g id="patch_24">
    <path clip-path="url(#p217237b760)" d="M 540.789222 523.855252 
Q 448.220028 581.385305 356.600423 638.325205 
" style="fill:none;stroke:#000000;stroke-linecap:round;"/>
    <path clip-path="url(#p217237b760)" d="M 361.053474 637.912489 
L 356.600423 638.325205 
L 358.942081 634.515135 
L 361.053474 637.912489 
z
" style="stroke:#000000;stroke-linecap:round;"/>
   </g>
   <g id="patch_25">
    <path clip-path="url(#p217237b760)" d="M 563.296177 504.833575 
Q 656.342266 399.498426 748.648177 295.001214 
" style="fill:none;stroke:#000000;stroke-linecap:round;"/>
    <path clip-path="url(#p217237b760)" d="M 744.501092 296.675036 
L 748.648177 295.001214 
L 747.498984 299.323176 
L 744.501092 296.675036 
z
" style="stroke:#000000;stroke-linecap:round;"/>
   </g>
   <g id="patch_26">
    <path clip-path="url(#p217237b760)" d="M 538.706242 513.854744 
Q 393.85168 492.809852 250.103537 471.925704 
" style="fill:none;stroke:#000000;stroke-linecap:round;"/>
    <path clip-path="url(#p217237b760)" d="M 253.774432 474.480019 
L 250.103537 471.925704 
L 254.349526 470.521577 
L 253.774432 474.480019 
z
" style="stroke:#000000;stroke-linecap:round;"/>
   </g>
   <g id="patch_27">
    <path clip-path="url(#p217237b760)" d="M 561.91464 528.231477 
Q 615.654905 605.800253 668.758463 682.450006 
" style="fill:none;stroke:#000000;stroke-linecap:round;"/>
    <path clip-path="url(#p217237b760)" d="M 668.124511 678.023031 
L 668.758463 682.450006 
L 664.836512 680.300983 
L 668.124511 678.023031 
z
" style="stroke:#000000;stroke-linecap:round;"/>
   </g>
   <g id="patch_28">
    <path clip-path="url(#p217237b760)" d="M 566.998138 522.133021 
Q 687.002104 576.450232 805.987515 630.306417 
" style="fill:none;stroke:#000000;stroke-linecap:round;"/>
    <path clip-path="url(#p217237b760)" d="M 803.168132 626.83495 
L 805.987515 630.306417 
L 801.518712 630.479043 
L 803.168132 626.83495 
z
" style="stroke:#000000;stroke-linecap:round;"/>
   </g>
   <g id="patch_29">
    <path clip-path="url(#p217237b760)" d="M 828.423931 242.837789 
Q 829.882939 375.814346 831.329681 507.672936 
" style="fill:none;stroke:#000000;stroke-linecap:round;"/>
    <path clip-path="url(#p217237b760)" d="M 833.285675 503.651234 
L 831.329681 507.672936 
L 829.285916 503.695119 
L 833.285675 503.651234 
z
" style="stroke:#000000;stroke-linecap:round;"/>
   </g>
   <g id="patch_30">
    <path clip-path="url(#p217237b760)" d="M 600.100953 241.250947 
Q 713.682239 375.778713 826.542266 509.452206 
" style="fill:none;stroke:#000000;stroke-linecap:round;"/>
    <path clip-path="url(#p217237b760)" d="M 825.489978 505.105634 
L 826.542266 509.452206 
L 822.433635 507.686093 
L 825.489978 505.105634 
z
" style="stroke:#000000;stroke-linecap:round;"/>
   </g>
   <g id="patch_31">
    <path clip-path="url(#p217237b760)" d="M 781.075858 595.199085 
Q 610.184821 632.296717 440.386371 669.157168 
" style="fill:none;stroke:#000000;stroke-linecap:round;"/>
    <path clip-path="url(#p217237b760)" d="M 444.719611 670.263075 
L 440.386371 669.157168 
L 443.871041 666.35412 
L 444.719611 670.263075 
z
" style="stroke:#000000;stroke-linecap:round;"/>
   </g>
   <g id="patch_32">
    <path clip-path="url(#p217237b760)" d="M 649.927567 409.384773 
Q 447.958475 479.110176 247.046212 548.470733 
" style="fill:none;stroke:#000000;stroke-linecap:round;"/>
    <path clip-path="url(#p217237b760)" d="M 251.479895 549.055929 
L 247.046212 548.470733 
L 250.174578 545.274904 
L 251.479895 549.055929 
z
" style="stroke:#000000;stroke-linecap:round;"/>
   </g>
   <g id="patch_33">
    <path clip-path="url(#p217237b760)" d="M 254.837216 311.595857 
Q 248.051155 428.427987 241.329925 544.143965 
" style="fill:none;stroke:#000000;stroke-linecap:round;"/>
    <path clip-path="url(#p217237b760)" d="M 243.558504 540.266668 
L 241.329925 544.143965 
L 239.565235 540.034723 
L 243.558504 540.266668 
z
" style="stroke:#000000;stroke-linecap:round;"/>
   </g>
   <g id="patch_34">
    <path clip-path="url(#p217237b760)" d="M 283.017388 515.185732 
Q 264.024011 531.165544 245.886154 546.425576 
" style="fill:none;stroke:#000000;stroke-linecap:round;"/>
    <path clip-path="url(#p217237b760)" d="M 250.234541 545.380813 
L 245.886154 546.425576 
L 247.659376 542.320008 
L 250.234541 545.380813 
z
" style="stroke:#000000;stroke-linecap:round;"/>
   </g>
   <g id="patch_35">
    <path clip-path="url(#p217237b760)" d="M 582.925874 302.867282 
Q 414.094931 425.16011 246.16944 546.797074 
" style="fill:none;stroke:#000000;stroke-linecap:round;"/>
    <path clip-path="url(#p217237b760)" d="M 250.582126 546.070303 
L 246.16944 546.797074 
L 248.235635 542.830862 
L 250.582126 546.070303 
z
" style="stroke:#000000;stroke-linecap:round;"/>
   </g>
   <g id="patch_36">
    <path clip-path="url(#p217237b760)" d="M 523.797964 415.240242 
Q 384.778984 481.757476 246.768536 547.792153 
" style="fill:none;stroke:#000000;stroke-linecap:round;"/>
    <path clip-path="url(#p217237b760)" d="M 251.239997 547.869816 
L 246.768536 547.792153 
L 249.513544 544.261582 
L 251.239997 547.869816 
z
" style="stroke:#000000;stroke-linecap:round;"/>
   </g>
   <g id="patch_37">
    <path clip-path="url(#p217237b760)" d="M 653.531317 630.421067 
Q 449.854921 591.002395 247.276191 551.79616 
" style="fill:none;stroke:#000000;stroke-linecap:round;"/>
    <path clip-path="url(#p217237b760)" d="M 250.8233 554.519764 
L 247.276191 551.79616 
L 251.58334 550.592635 
L 250.8233 554.519764 
z
" style="stroke:#000000;stroke-linecap:round;"/>
   </g>
   <g id="patch_38">
    <path clip-path="url(#p217237b760)" d="M 565.482219 568.010892 
Q 405.876036 559.434735 247.386277 550.918566 
" style="fill:none;stroke:#000000;stroke-linecap:round;"/>
    <path clip-path="url(#p217237b760)" d="M 251.273203 553.130308 
L 247.386277 550.918566 
L 251.487827 549.13607 
L 251.273203 553.130308 
z
" style="stroke:#000000;stroke-linecap:round;"/>
   </g>
   <g id="patch_39">
    <path clip-path="url(#p217237b760)" d="M 353.109234 636.776725 
Q 401.316222 516.639412 449.106851 397.539714 
" style="fill:none;stroke:#000000;stroke-linecap:round;"/>
    <path clip-path="url(#p217237b760)" d="M 445.761096 400.507192 
L 449.106851 397.539714 
L 449.47338 401.996804 
L 445.761096 400.507192 
z
" style="stroke:#000000;stroke-linecap:round;"/>
   </g>
   <g id="patch_40">
    <path clip-path="url(#p217237b760)" d="M 747.855764 291.831903 
Q 603.962908 339.217761 461.131986 386.253909 
" style="fill:none;stroke:#000000;stroke-linecap:round;"/>
    <path clip-path="url(#p217237b760)" d="M 465.556855 386.902397 
L 461.131986 386.253909 
L 464.305698 383.103107 
L 465.556855 386.902397 
z
" style="stroke:#000000;stroke-linecap:round;"/>
   </g>
   <g id="patch_41">
    <path clip-path="url(#p217237b760)" d="M 248.683717 469.049625 
Q 346.877203 430.530086 444.029874 392.41884 
" style="fill:none;stroke:#000000;stroke-linecap:round;"/>
    <path clip-path="url(#p217237b760)" d="M 439.575762 392.017727 
L 444.029874 392.41884 
L 441.036516 395.741462 
L 439.575762 392.017727 
z
" style="stroke:#000000;stroke-linecap:round;"/>
   </g>
   <g id="PathCollection_1">
    <path clip-path="url(#p217237b760)" d="M 399.85657 394.212718 
C 401.971246 394.212718 403.999596 393.372548 405.494898 391.877246 
C 406.990201 390.381943 407.830371 388.353594 407.830371 386.238917 
C 407.830371 384.12424 406.990201 382.09589 405.494898 380.600588 
C 403.999596 379.105286 401.971246 378.265116 399.85657 378.265116 
C 397.741893 378.265116 395.713543 379.105286 394.218241 380.600588 
C 392.722938 382.09589 391.882768 384.12424 391.882768 386.238917 
C 391.882768 388.353594 392.722938 390.381943 394.218241 391.877246 
C 395.713543 393.372548 397.741893 394.212718 399.85657 394.212718 
z
" style="fill:#dfdbd9;stroke:#dfdbd9;"/>
    <path clip-path="url(#p217237b760)" d="M 560.89879 443.187275 
C 565.092019 443.187275 569.114069 441.521287 572.07913 438.556226 
C 575.044191 435.591166 576.710178 431.569116 576.710178 427.375886 
C 576.710178 423.182657 575.044191 419.160607 572.07913 416.195547 
C 569.114069 413.230486 565.092019 411.564498 560.89879 411.564498 
C 556.705561 411.564498 552.683511 413.230486 549.71845 416.195547 
C 546.753389 419.160607 545.087402 423.182657 545.087402 427.375886 
C 545.087402 431.569116 546.753389 435.591166 549.71845 438.556226 
C 552.683511 441.521287 556.705561 443.187275 560.89879 443.187275 
z
" style="fill:#93b5fe;stroke:#93b5fe;"/>
    <path clip-path="url(#p217237b760)" d="M 660.85547 190.326263 
C 663.3301 190.326263 665.703709 189.343082 667.453537 187.593255 
C 669.203364 185.843427 670.186545 183.469818 670.186545 180.995188 
C 670.186545 178.520558 669.203364 176.146949 667.453537 174.397121 
C 665.703709 172.647294 663.3301 171.664113 660.85547 171.664113 
C 658.38084 171.664113 656.007231 172.647294 654.257404 174.397121 
C 652.507576 176.146949 651.524395 178.520558 651.524395 180.995188 
C 651.524395 183.469818 652.507576 185.843427 654.257404 187.593255 
C 656.007231 189.343082 658.38084 190.326263 660.85547 190.326263 
z
" style="fill:#dfdbd9;stroke:#dfdbd9;"/>
    <path clip-path="url(#p217237b760)" d="M 831.412493 521.65205 
C 833.118135 521.65205 834.754149 520.974391 835.96022 519.76832 
C 837.166291 518.562249 837.84395 516.926236 837.84395 515.220593 
C 837.84395 513.514951 837.166291 511.878938 835.96022 510.672867 
C 834.754149 509.466795 833.118135 508.789137 831.412493 508.789137 
C 829.706851 508.789137 828.070838 509.466795 826.864766 510.672867 
C 825.658695 511.878938 824.981036 513.514951 824.981036 515.220593 
C 824.981036 516.926236 825.658695 518.562249 826.864766 519.76832 
C 828.070838 520.974391 829.706851 521.65205 831.412493 521.65205 
z
" style="fill:#9fbfff;stroke:#9fbfff;"/>
    <path clip-path="url(#p217237b760)" d="M 616.203263 716.340698 
C 617.558877 716.340698 618.859151 715.802107 619.817715 714.843543 
C 620.776279 713.884979 621.31487 712.584705 621.31487 711.229091 
C 621.31487 709.873477 620.776279 708.573203 619.817715 707.614639 
C 618.859151 706.656075 617.558877 706.117484 616.203263 706.117484 
C 614.847649 706.117484 613.547375 706.656075 612.588811 707.614639 
C 611.630247 708.573203 611.091656 709.873477 611.091656 711.229091 
C 611.091656 712.584705 611.630247 713.884979 612.588811 714.843543 
C 613.547375 715.802107 614.847649 716.340698 616.203263 716.340698 
z
" style="fill:#bbd1f8;stroke:#bbd1f8;"/>
    <path clip-path="url(#p217237b760)" d="M 452.494017 397.07231 
C 454.608693 397.07231 456.637043 396.23214 458.132345 394.736838 
C 459.627648 393.241536 460.467818 391.213186 460.467818 389.098509 
C 460.467818 386.983832 459.627648 384.955483 458.132345 383.46018 
C 456.637043 381.964878 454.608693 381.124708 452.494017 381.124708 
C 450.37934 381.124708 448.35099 381.964878 446.855688 383.46018 
C 445.360385 384.955483 444.520215 386.983832 444.520215 389.098509 
C 444.520215 391.213186 445.360385 393.241536 446.855688 394.736838 
C 448.35099 396.23214 450.37934 397.07231 452.494017 397.07231 
z
" style="fill:#4f69d9;stroke:#4f69d9;"/>
    <path clip-path="url(#p217237b760)" d="M 553.437025 530.882647 
C 557.385308 530.882647 561.172412 529.313978 563.96427 526.52212 
C 566.756128 523.730262 568.324797 519.943158 568.324797 515.994875 
C 568.324797 512.046591 566.756128 508.259488 563.96427 505.46763 
C 561.172412 502.675772 557.385308 501.107102 553.437025 501.107102 
C 549.488741 501.107102 545.701638 502.675772 542.90978 505.46763 
C 540.117922 508.259488 538.549252 512.046591 538.549252 515.994875 
C 538.549252 519.943158 540.117922 523.730262 542.90978 526.52212 
C 545.701638 529.313978 549.488741 530.882647 553.437025 530.882647 
z
" style="fill:#dedcdb;stroke:#dedcdb;"/>
    <path clip-path="url(#p217237b760)" d="M 828.367857 242.838699 
C 829.723471 242.838699 831.023745 242.300108 831.982309 241.341544 
C 832.940873 240.38298 833.479464 239.082706 833.479464 237.727092 
C 833.479464 236.371478 832.940873 235.071204 831.982309 234.11264 
C 831.023745 233.154076 829.723471 232.615485 828.367857 232.615485 
C 827.012243 232.615485 825.711969 233.154076 824.753405 234.11264 
C 823.794841 235.071204 823.25625 236.371478 823.25625 237.727092 
C 823.25625 239.082706 823.794841 240.38298 824.753405 241.341544 
C 825.711969 242.300108 827.012243 242.838699 828.367857 242.838699 
z
" style="fill:#cedaeb;stroke:#cedaeb;"/>
    <path clip-path="url(#p217237b760)" d="M 596.802102 242.455334 
C 598.157716 242.455334 599.45799 241.916743 600.416554 240.958179 
C 601.375118 239.999615 601.913709 238.699341 601.913709 237.343727 
C 601.913709 235.988113 601.375118 234.687839 600.416554 233.729275 
C 599.45799 232.770711 598.157716 232.23212 596.802102 232.23212 
C 595.446488 232.23212 594.146214 232.770711 593.18765 233.729275 
C 592.229086 234.687839 591.690495 235.988113 591.690495 237.343727 
C 591.690495 238.699341 592.229086 239.999615 593.18765 240.958179 
C 594.146214 241.916743 595.446488 242.455334 596.802102 242.455334 
z
" style="fill:#dddcdc;stroke:#dddcdc;"/>
    <path clip-path="url(#p217237b760)" d="M 787.676779 600.518585 
C 789.46755 600.518585 791.185217 599.807104 792.451484 598.540838 
C 793.71775 597.274571 794.429231 595.556904 794.429231 593.766133 
C 794.429231 591.975362 793.71775 590.257695 792.451484 588.991428 
C 791.185217 587.725162 789.46755 587.013681 787.676779 587.013681 
C 785.886008 587.013681 784.168341 587.725162 782.902074 588.991428 
C 781.635808 590.257695 780.924327 591.975362 780.924327 593.766133 
C 780.924327 595.556904 781.635808 597.274571 782.902074 598.540838 
C 784.168341 599.807104 785.886008 600.518585 787.676779 600.518585 
z
" style="fill:#88abfd;stroke:#88abfd;"/>
    <path clip-path="url(#p217237b760)" d="M 654.971991 412.977723 
C 656.386697 412.977723 657.743652 412.415654 658.744 411.415306 
C 659.744349 410.414957 660.306418 409.058003 660.306418 407.643296 
C 660.306418 406.228589 659.744349 404.871635 658.744 403.871286 
C 657.743652 402.870938 656.386697 402.308869 654.971991 402.308869 
C 653.557284 402.308869 652.20033 402.870938 651.199981 403.871286 
C 650.199632 404.871635 649.637563 406.228589 649.637563 407.643296 
C 649.637563 409.058003 650.199632 410.414957 651.199981 411.415306 
C 652.20033 412.415654 653.557284 412.977723 654.971991 412.977723 
z
" style="fill:#dedcdb;stroke:#dedcdb;"/>
    <path clip-path="url(#p217237b760)" d="M 255.146629 311.603277 
C 256.561335 311.603277 257.91829 311.041208 258.918638 310.040859 
C 259.918987 309.04051 260.481056 307.683556 260.481056 306.26885 
C 260.481056 304.854143 259.918987 303.497189 258.918638 302.49684 
C 257.91829 301.496491 256.561335 300.934422 255.146629 300.934422 
C 253.731922 300.934422 252.374968 301.496491 251.374619 302.49684 
C 250.374271 303.497189 249.812202 304.854143 249.812202 306.26885 
C 249.812202 307.683556 250.374271 309.04051 251.374619 310.040859 
C 252.374968 311.041208 253.731922 311.603277 255.146629 311.603277 
z
" style="fill:#5e7de7;stroke:#5e7de7;"/>
    <path clip-path="url(#p217237b760)" d="M 321.25987 628.830114 
C 322.633659 628.830114 323.951367 628.284302 324.922783 627.312886 
C 325.894198 626.34147 326.440011 625.023763 326.440011 623.649974 
C 326.440011 622.276184 325.894198 620.958477 324.922783 619.987061 
C 323.951367 619.015645 322.633659 618.469833 321.25987 618.469833 
C 319.886081 618.469833 318.568373 619.015645 317.596958 619.987061 
C 316.625542 620.958477 316.07973 622.276184 316.07973 623.649974 
C 316.07973 625.023763 316.625542 626.34147 317.596958 627.312886 
C 318.568373 628.284302 319.886081 628.830114 321.25987 628.830114 
z
" style="fill:#d7dce3;stroke:#d7dce3;"/>
    <path clip-path="url(#p217237b760)" d="M 905.887258 597.425581 
C 907.261047 597.425581 908.578755 596.879769 909.550171 595.908353 
C 910.521586 594.936938 911.067399 593.61923 911.067399 592.245441 
C 911.067399 590.871651 910.521586 589.553944 909.550171 588.582528 
C 908.578755 587.611113 907.261047 587.0653 905.887258 587.0653 
C 904.513469 587.0653 903.195761 587.611113 902.224346 588.582528 
C 901.25293 589.553944 900.707118 590.871651 900.707118 592.245441 
C 900.707118 593.61923 901.25293 594.936938 902.224346 595.908353 
C 903.195761 596.879769 904.513469 597.425581 905.887258 597.425581 
z
" style="fill:#bbd1f8;stroke:#bbd1f8;"/>
    <path clip-path="url(#p217237b760)" d="M 355.222188 242.353044 
C 356.595977 242.353044 357.913685 241.807231 358.8851 240.835816 
C 359.856516 239.8644 360.402328 238.546692 360.402328 237.172903 
C 360.402328 235.799114 359.856516 234.481406 358.8851 233.509991 
C 357.913685 232.538575 356.595977 231.992763 355.222188 231.992763 
C 353.848398 231.992763 352.530691 232.538575 351.559275 233.509991 
C 350.58786 234.481406 350.042047 235.799114 350.042047 237.172903 
C 350.042047 238.546692 350.58786 239.8644 351.559275 240.835816 
C 352.530691 241.807231 353.848398 242.353044 355.222188 242.353044 
z
" style="fill:#89acfd;stroke:#89acfd;"/>
    <path clip-path="url(#p217237b760)" d="M 221.47438 422.165049 
C 222.848169 422.165049 224.165877 421.619236 225.137293 420.647821 
C 226.108708 419.676405 226.654521 418.358697 226.654521 416.984908 
C 226.654521 415.611119 226.108708 414.293411 225.137293 413.321996 
C 224.165877 412.35058 222.848169 411.804768 221.47438 411.804768 
C 220.100591 411.804768 218.782883 412.35058 217.811468 413.321996 
C 216.840052 414.293411 216.29424 415.611119 216.29424 416.984908 
C 216.29424 418.358697 216.840052 419.676405 217.811468 420.647821 
C 218.782883 421.619236 220.100591 422.165049 221.47438 422.165049 
z
" style="fill:#3b4cc0;stroke:#3b4cc0;"/>
    <path clip-path="url(#p217237b760)" d="M 407.471725 195.649344 
C 408.845514 195.649344 410.163222 195.103532 411.134637 194.132116 
C 412.106053 193.1607 412.651865 191.842993 412.651865 190.469203 
C 412.651865 189.095414 412.106053 187.777707 411.134637 186.806291 
C 410.163222 185.834875 408.845514 185.289063 407.471725 185.289063 
C 406.097936 185.289063 404.780228 185.834875 403.808812 186.806291 
C 402.837397 187.777707 402.291584 189.095414 402.291584 190.469203 
C 402.291584 191.842993 402.837397 193.1607 403.808812 194.132116 
C 404.780228 195.103532 406.097936 195.649344 407.471725 195.649344 
z
" style="fill:#b9d0f9;stroke:#b9d0f9;"/>
    <path clip-path="url(#p217237b760)" d="M 959.32562 464.557252 
C 960.699409 464.557252 962.017117 464.01144 962.988532 463.040024 
C 963.959948 462.068609 964.50576 460.750901 964.50576 459.377112 
C 964.50576 458.003323 963.959948 456.685615 962.988532 455.714199 
C 962.017117 454.742784 960.699409 454.196971 959.32562 454.196971 
C 957.951831 454.196971 956.634123 454.742784 955.662707 455.714199 
C 954.691292 456.685615 954.145479 458.003323 954.145479 459.377112 
C 954.145479 460.750901 954.691292 462.068609 955.662707 463.040024 
C 956.634123 464.01144 957.951831 464.557252 959.32562 464.557252 
z
" style="fill:#e7d7ce;stroke:#e7d7ce;"/>
    <path clip-path="url(#p217237b760)" d="M 294.882162 591.248612 
C 296.255951 591.248612 297.573658 590.7028 298.545074 589.731384 
C 299.51649 588.759969 300.062302 587.442261 300.062302 586.068472 
C 300.062302 584.694683 299.51649 583.376975 298.545074 582.405559 
C 297.573658 581.434144 296.255951 580.888331 294.882162 580.888331 
C 293.508372 580.888331 292.190665 581.434144 291.219249 582.405559 
C 290.247833 583.376975 289.702021 584.694683 289.702021 586.068472 
C 289.702021 587.442261 290.247833 588.759969 291.219249 589.731384 
C 292.190665 590.7028 293.508372 591.248612 294.882162 591.248612 
z
" style="fill:#dedcdb;stroke:#dedcdb;"/>
    <path clip-path="url(#p217237b760)" d="M 728.842106 241.219774 
C 730.215895 241.219774 731.533602 240.673962 732.505018 239.702546 
C 733.476434 238.73113 734.022246 237.413423 734.022246 236.039633 
C 734.022246 234.665844 733.476434 233.348137 732.505018 232.376721 
C 731.533602 231.405305 730.215895 230.859493 728.842106 230.859493 
C 727.468316 230.859493 726.150609 231.405305 725.179193 232.376721 
C 724.207777 233.348137 723.661965 234.665844 723.661965 236.039633 
C 723.661965 237.413423 724.207777 238.73113 725.179193 239.702546 
C 726.150609 240.673962 727.468316 241.219774 728.842106 241.219774 
z
" style="fill:#b40426;stroke:#b40426;"/>
    <path clip-path="url(#p217237b760)" d="M 951.380829 378.277972 
C 952.754618 378.277972 954.072326 377.73216 955.043741 376.760744 
C 956.015157 375.789329 956.560969 374.471621 956.560969 373.097832 
C 956.560969 371.724042 956.015157 370.406335 955.043741 369.434919 
C 954.072326 368.463504 952.754618 367.917691 951.380829 367.917691 
C 950.00704 367.917691 948.689332 368.463504 947.717916 369.434919 
C 946.746501 370.406335 946.200688 371.724042 946.200688 373.097832 
C 946.200688 374.471621 946.746501 375.789329 947.717916 376.760744 
C 948.689332 377.73216 950.00704 378.277972 951.380829 378.277972 
z
" style="fill:#f7bca1;stroke:#f7bca1;"/>
    <path clip-path="url(#p217237b760)" d="M 562.611516 166.59105 
C 563.985305 166.59105 565.303012 166.045237 566.274428 165.073822 
C 567.245844 164.102406 567.791656 162.784698 567.791656 161.410909 
C 567.791656 160.03712 567.245844 158.719412 566.274428 157.747997 
C 565.303012 156.776581 563.985305 156.230769 562.611516 156.230769 
C 561.237726 156.230769 559.920019 156.776581 558.948603 157.747997 
C 557.977187 158.719412 557.431375 160.03712 557.431375 161.410909 
C 557.431375 162.784698 557.977187 164.102406 558.948603 165.073822 
C 559.920019 166.045237 561.237726 166.59105 562.611516 166.59105 
z
" style="fill:#97b8ff;stroke:#97b8ff;"/>
    <path clip-path="url(#p217237b760)" d="M 287.327915 517.195722 
C 288.822757 517.195722 290.256574 516.601815 291.313587 515.544802 
C 292.370599 514.48779 292.964506 513.053972 292.964506 511.559131 
C 292.964506 510.064289 292.370599 508.630471 291.313587 507.573459 
C 290.256574 506.516446 288.822757 505.922539 287.327915 505.922539 
C 285.833074 505.922539 284.399256 506.516446 283.342243 507.573459 
C 282.285231 508.630471 281.691324 510.064289 281.691324 511.559131 
C 281.691324 513.053972 282.285231 514.48779 283.342243 515.544802 
C 284.399256 516.601815 285.833074 517.195722 287.327915 517.195722 
z
" style="fill:#93b5fe;stroke:#93b5fe;"/>
    <path clip-path="url(#p217237b760)" d="M 586.972834 304.935864 
C 588.298849 304.935864 589.570733 304.409032 590.508367 303.471397 
C 591.446002 302.533763 591.972834 301.261879 591.972834 299.935864 
C 591.972834 298.609848 591.446002 297.337964 590.508367 296.40033 
C 589.570733 295.462695 588.298849 294.935864 586.972834 294.935864 
C 585.646818 294.935864 584.374934 295.462695 583.4373 296.40033 
C 582.499665 297.337964 581.972834 298.609848 581.972834 299.935864 
C 581.972834 301.261879 582.499665 302.533763 583.4373 303.471397 
C 584.374934 304.409032 585.646818 304.935864 586.972834 304.935864 
z
" style="fill:#c4d5f3;stroke:#c4d5f3;"/>
    <path clip-path="url(#p217237b760)" d="M 529.904423 419.091759 
C 531.700726 419.091759 533.423699 418.378081 534.693877 417.107902 
C 535.964055 415.837724 536.677734 414.114751 536.677734 412.318448 
C 536.677734 410.522145 535.964055 408.799172 534.693877 407.528994 
C 533.423699 406.258816 531.700726 405.545137 529.904423 405.545137 
C 528.10812 405.545137 526.385147 406.258816 525.114969 407.528994 
C 523.844791 408.799172 523.131112 410.522145 523.131112 412.318448 
C 523.131112 414.114751 523.844791 415.837724 525.114969 417.107902 
C 526.385147 418.378081 528.10812 419.091759 529.904423 419.091759 
z
" style="fill:#cad8ef;stroke:#cad8ef;"/>
    <path clip-path="url(#p217237b760)" d="M 658.729898 636.72179 
C 660.134046 636.72179 661.480872 636.163917 662.473754 635.171034 
C 663.466637 634.178152 664.02451 632.831326 664.02451 631.427178 
C 664.02451 630.023031 663.466637 628.676205 662.473754 627.683322 
C 661.480872 626.69044 660.134046 626.132567 658.729898 626.132567 
C 657.325751 626.132567 655.978925 626.69044 654.986042 627.683322 
C 653.99316 628.676205 653.435286 630.023031 653.435286 631.427178 
C 653.435286 632.831326 653.99316 634.178152 654.986042 635.171034 
C 655.978925 636.163917 657.325751 636.72179 658.729898 636.72179 
z
" style="fill:#e1dad6;stroke:#e1dad6;"/>
    <path clip-path="url(#p217237b760)" d="M 570.774014 573.596506 
C 572.179927 573.596506 573.528447 573.037931 574.522577 572.043801 
C 575.516708 571.04967 576.075283 569.701151 576.075283 568.295238 
C 576.075283 566.889325 575.516708 565.540805 574.522577 564.546675 
C 573.528447 563.552544 572.179927 562.993969 570.774014 562.993969 
C 569.368102 562.993969 568.019582 563.552544 567.025452 564.546675 
C 566.031321 565.540805 565.472746 566.889325 565.472746 568.295238 
C 565.472746 569.701151 566.031321 571.04967 567.025452 572.043801 
C 568.019582 573.037931 569.368102 573.596506 570.774014 573.596506 
z
" style="fill:#dedcdb;stroke:#dedcdb;"/>
    <path clip-path="url(#p217237b760)" d="M 240.956498 555.894261 
C 242.367693 555.894261 243.72128 555.333587 244.719146 554.335721 
C 245.717012 553.337855 246.277686 551.984268 246.277686 550.573073 
C 246.277686 549.161877 245.717012 547.80829 244.719146 546.810424 
C 243.72128 545.812558 242.367693 545.251884 240.956498 545.251884 
C 239.545302 545.251884 238.191715 545.812558 237.193849 546.810424 
C 236.195983 547.80829 235.635309 549.161877 235.635309 550.573073 
C 235.635309 551.984268 236.195983 553.337855 237.193849 554.335721 
C 238.191715 555.333587 239.545302 555.894261 240.956498 555.894261 
z
" style="fill:#dddcdc;stroke:#dddcdc;"/>
    <path clip-path="url(#p217237b760)" d="M 247.494796 338.379803 
C 248.868585 338.379803 250.186293 337.833991 251.157709 336.862575 
C 252.129124 335.891159 252.674937 334.573452 252.674937 333.199663 
C 252.674937 331.825873 252.129124 330.508166 251.157709 329.53675 
C 250.186293 328.565334 248.868585 328.019522 247.494796 328.019522 
C 246.121007 328.019522 244.803299 328.565334 243.831884 329.53675 
C 242.860468 330.508166 242.314656 331.825873 242.314656 333.199663 
C 242.314656 334.573452 242.860468 335.891159 243.831884 336.862575 
C 244.803299 337.833991 246.121007 338.379803 247.494796 338.379803 
z
" style="fill:#9ebeff;stroke:#9ebeff;"/>
    <path clip-path="url(#p217237b760)" d="M 509.764024 214.07509 
C 511.137813 214.07509 512.455521 213.529277 513.426937 212.557862 
C 514.398352 211.586446 514.944165 210.268739 514.944165 208.894949 
C 514.944165 207.52116 514.398352 206.203453 513.426937 205.232037 
C 512.455521 204.260621 511.137813 203.714809 509.764024 203.714809 
C 508.390235 203.714809 507.072527 204.260621 506.101112 205.232037 
C 505.129696 206.203453 504.583884 207.52116 504.583884 208.894949 
C 504.583884 210.268739 505.129696 211.586446 506.101112 212.557862 
C 507.072527 213.529277 508.390235 214.07509 509.764024 214.07509 
z
" style="fill:#bed2f6;stroke:#bed2f6;"/>
    <path clip-path="url(#p217237b760)" d="M 485.216617 706.414996 
C 486.590406 706.414996 487.908114 705.869184 488.87953 704.897768 
C 489.850945 703.926352 490.396758 702.608645 490.396758 701.234856 
C 490.396758 699.861066 489.850945 698.543359 488.87953 697.571943 
C 487.908114 696.600527 486.590406 696.054715 485.216617 696.054715 
C 483.842828 696.054715 482.52512 696.600527 481.553705 697.571943 
C 480.582289 698.543359 480.036477 699.861066 480.036477 701.234856 
C 480.036477 702.608645 480.582289 703.926352 481.553705 704.897768 
C 482.52512 705.869184 483.842828 706.414996 485.216617 706.414996 
z
" style="fill:#b3cdfb;stroke:#b3cdfb;"/>
    <path clip-path="url(#p217237b760)" d="M 551.193147 709.067408 
C 552.566936 709.067408 553.884643 708.521596 554.856059 707.55018 
C 555.827475 706.578764 556.373287 705.261057 556.373287 703.887268 
C 556.373287 702.513478 555.827475 701.195771 554.856059 700.224355 
C 553.884643 699.252939 552.566936 698.707127 551.193147 698.707127 
C 549.819357 698.707127 548.50165 699.252939 547.530234 700.224355 
C 546.558818 701.195771 546.013006 702.513478 546.013006 703.887268 
C 546.013006 705.261057 546.558818 706.578764 547.530234 707.55018 
C 548.50165 708.521596 549.819357 709.067408 551.193147 709.067408 
z
" style="fill:#d6dce4;stroke:#d6dce4;"/>
    <path clip-path="url(#p217237b760)" d="M 351.121569 647.06464 
C 352.536276 647.06464 353.89323 646.502571 354.893579 645.502222 
C 355.893927 644.501873 356.455996 643.144919 356.455996 641.730213 
C 356.455996 640.315506 355.893927 638.958552 354.893579 637.958203 
C 353.89323 636.957854 352.536276 636.395785 351.121569 636.395785 
C 349.706863 636.395785 348.349908 636.957854 347.34956 637.958203 
C 346.349211 638.958552 345.787142 640.315506 345.787142 641.730213 
C 345.787142 643.144919 346.349211 644.501873 347.34956 645.502222 
C 348.349908 646.502571 349.706863 647.06464 351.121569 647.06464 
z
" style="fill:#d4dbe6;stroke:#d4dbe6;"/>
    <path clip-path="url(#p217237b760)" d="M 752.921256 295.498195 
C 754.335963 295.498195 755.692917 294.936126 756.693266 293.935778 
C 757.693614 292.935429 758.255683 291.578475 758.255683 290.163768 
C 758.255683 288.749062 757.693614 287.392107 756.693266 286.391759 
C 755.692917 285.39141 754.335963 284.829341 752.921256 284.829341 
C 751.506549 284.829341 750.149595 285.39141 749.149247 286.391759 
C 748.148898 287.392107 747.586829 288.749062 747.586829 290.163768 
C 747.586829 291.578475 748.148898 292.935429 749.149247 293.935778 
C 750.149595 294.936126 751.506549 295.498195 752.921256 295.498195 
z
" style="fill:#a7c5fe;stroke:#a7c5fe;"/>
    <path clip-path="url(#p217237b760)" d="M 243.71724 476.332311 
C 245.131947 476.332311 246.488901 475.770243 247.48925 474.769894 
C 248.489598 473.769545 249.051667 472.412591 249.051667 470.997884 
C 249.051667 469.583178 248.489598 468.226223 247.48925 467.225875 
C 246.488901 466.225526 245.131947 465.663457 243.71724 465.663457 
C 242.302534 465.663457 240.945579 466.225526 239.945231 467.225875 
C 238.944882 468.226223 238.382813 469.583178 238.382813 470.997884 
C 238.382813 472.412591 238.944882 473.769545 239.945231 474.769894 
C 240.945579 475.770243 242.302534 476.332311 243.71724 476.332311 
z
" style="fill:#89acfd;stroke:#89acfd;"/>
    <path clip-path="url(#p217237b760)" d="M 255.363298 379.027351 
C 256.778005 379.027351 258.134959 378.465282 259.135308 377.464934 
C 260.135657 376.464585 260.697726 375.107631 260.697726 373.692924 
C 260.697726 372.278217 260.135657 370.921263 259.135308 369.920914 
C 258.134959 368.920566 256.778005 368.358497 255.363298 368.358497 
C 253.948592 368.358497 252.591637 368.920566 251.591289 369.920914 
C 250.59094 370.921263 250.028871 372.278217 250.028871 373.692924 
C 250.028871 375.107631 250.59094 376.464585 251.591289 377.464934 
C 252.591637 378.465282 253.948592 379.027351 255.363298 379.027351 
z
" style="fill:#a2c1ff;stroke:#a2c1ff;"/>
    <path clip-path="url(#p217237b760)" d="M 736.130274 698.286801 
C 737.54498 698.286801 738.901935 697.724733 739.902283 696.724384 
C 740.902632 695.724035 741.464701 694.367081 741.464701 692.952374 
C 741.464701 691.537668 740.902632 690.180713 739.902283 689.180365 
C 738.901935 688.180016 737.54498 687.617947 736.130274 687.617947 
C 734.715567 687.617947 733.358613 688.180016 732.358264 689.180365 
C 731.357916 690.180713 730.795847 691.537668 730.795847 692.952374 
C 730.795847 694.367081 731.357916 695.724035 732.358264 696.724384 
C 733.358613 697.724733 734.715567 698.286801 736.130274 698.286801 
z
" style="fill:#9bbcff;stroke:#9bbcff;"/>
    <path clip-path="url(#p217237b760)" d="M 434.102634 675.83582 
C 435.512071 675.83582 436.863971 675.275845 437.860593 674.279223 
C 438.857216 673.2826 439.417191 671.930701 439.417191 670.521264 
C 439.417191 669.111827 438.857216 667.759927 437.860593 666.763304 
C 436.863971 665.766682 435.512071 665.206707 434.102634 665.206707 
C 432.693197 665.206707 431.341297 665.766682 430.344675 666.763304 
C 429.348052 667.759927 428.788077 669.111827 428.788077 670.521264 
C 428.788077 671.930701 429.348052 673.2826 430.344675 674.279223 
C 431.341297 675.275845 432.693197 675.83582 434.102634 675.83582 
z
" style="fill:#6384eb;stroke:#6384eb;"/>
    <path clip-path="url(#p217237b760)" d="M 672.432315 693.087276 
C 673.847021 693.087276 675.203976 692.525207 676.204324 691.524859 
C 677.204673 690.52451 677.766742 689.167556 677.766742 687.752849 
C 677.766742 686.338142 677.204673 684.981188 676.204324 683.980839 
C 675.203976 682.980491 673.847021 682.418422 672.432315 682.418422 
C 671.017608 682.418422 669.660654 682.980491 668.660305 683.980839 
C 667.659957 684.981188 667.097888 686.338142 667.097888 687.752849 
C 667.097888 689.167556 667.659957 690.52451 668.660305 691.524859 
C 669.660654 692.525207 671.017608 693.087276 672.432315 693.087276 
z
" style="fill:#dcdddd;stroke:#dcdddd;"/>
    <path clip-path="url(#p217237b760)" d="M 811.867132 638.302126 
C 813.281839 638.302126 814.638793 637.740057 815.639142 636.739708 
C 816.63949 635.73936 817.201559 634.382405 817.201559 632.967699 
C 817.201559 631.552992 816.63949 630.196038 815.639142 629.195689 
C 814.638793 628.19534 813.281839 627.633271 811.867132 627.633271 
C 810.452426 627.633271 809.095471 628.19534 808.095123 629.195689 
C 807.094774 630.196038 806.532705 631.552992 806.532705 632.967699 
C 806.532705 634.382405 807.094774 635.73936 808.095123 636.739708 
C 809.095471 637.740057 810.452426 638.302126 811.867132 638.302126 
z
" style="fill:#e3d9d3;stroke:#e3d9d3;"/>
   </g>
   <g id="text_1">
    <g clip-path="url(#p217237b760)">
     <!-- NFKBIA -->
     <g transform="translate(381.635476 388.998292)scale(0.1 -0.1)">
      <defs>
       <path d="M 9.8125 72.90625 
L 23.09375 72.90625 
L 55.421875 11.921875 
L 55.421875 72.90625 
L 64.984375 72.90625 
L 64.984375 0 
L 51.703125 0 
L 19.390625 60.984375 
L 19.390625 0 
L 9.8125 0 
z
" id="DejaVuSans-78"/>
       <path d="M 9.8125 72.90625 
L 51.703125 72.90625 
L 51.703125 64.59375 
L 19.671875 64.59375 
L 19.671875 43.109375 
L 48.578125 43.109375 
L 48.578125 34.8125 
L 19.671875 34.8125 
L 19.671875 0 
L 9.8125 0 
z
" id="DejaVuSans-70"/>
       <path d="M 9.8125 72.90625 
L 19.671875 72.90625 
L 19.671875 42.09375 
L 52.390625 72.90625 
L 65.09375 72.90625 
L 28.90625 38.921875 
L 67.671875 0 
L 54.6875 0 
L 19.671875 35.109375 
L 19.671875 0 
L 9.8125 0 
z
" id="DejaVuSans-75"/>
       <path d="M 19.671875 34.8125 
L 19.671875 8.109375 
L 35.5 8.109375 
Q 43.453125 8.109375 47.28125 11.40625 
Q 51.125 14.703125 51.125 21.484375 
Q 51.125 28.328125 47.28125 31.5625 
Q 43.453125 34.8125 35.5 34.8125 
z
M 19.671875 64.796875 
L 19.671875 42.828125 
L 34.28125 42.828125 
Q 41.5 42.828125 45.03125 45.53125 
Q 48.578125 48.25 48.578125 53.8125 
Q 48.578125 59.328125 45.03125 62.0625 
Q 41.5 64.796875 34.28125 64.796875 
z
M 9.8125 72.90625 
L 35.015625 72.90625 
Q 46.296875 72.90625 52.390625 68.21875 
Q 58.5 63.53125 58.5 54.890625 
Q 58.5 48.1875 55.375 44.234375 
Q 52.25 40.28125 46.1875 39.3125 
Q 53.46875 37.75 57.5 32.78125 
Q 61.53125 27.828125 61.53125 20.40625 
Q 61.53125 10.640625 54.890625 5.3125 
Q 48.25 0 35.984375 0 
L 9.8125 0 
z
" id="DejaVuSans-66"/>
       <path d="M 9.8125 72.90625 
L 19.671875 72.90625 
L 19.671875 0 
L 9.8125 0 
z
" id="DejaVuSans-73"/>
       <path d="M 34.1875 63.1875 
L 20.796875 26.90625 
L 47.609375 26.90625 
z
M 28.609375 72.90625 
L 39.796875 72.90625 
L 67.578125 0 
L 57.328125 0 
L 50.6875 18.703125 
L 17.828125 18.703125 
L 11.1875 0 
L 0.78125 0 
z
" id="DejaVuSans-65"/>
      </defs>
      <use xlink:href="#DejaVuSans-78"/>
      <use x="74.804688" xlink:href="#DejaVuSans-70"/>
      <use x="132.324219" xlink:href="#DejaVuSans-75"/>
      <use x="197.900391" xlink:href="#DejaVuSans-66"/>
      <use x="266.503906" xlink:href="#DejaVuSans-73"/>
      <use x="295.996094" xlink:href="#DejaVuSans-65"/>
     </g>
    </g>
   </g>
   <g id="text_2">
    <g clip-path="url(#p217237b760)">
     <!-- GNAS -->
     <g transform="translate(546.689415 430.135261)scale(0.1 -0.1)">
      <defs>
       <path d="M 59.515625 10.40625 
L 59.515625 29.984375 
L 43.40625 29.984375 
L 43.40625 38.09375 
L 69.28125 38.09375 
L 69.28125 6.78125 
Q 63.578125 2.734375 56.6875 0.65625 
Q 49.8125 -1.421875 42 -1.421875 
Q 24.90625 -1.421875 15.25 8.5625 
Q 5.609375 18.5625 5.609375 36.375 
Q 5.609375 54.25 15.25 64.234375 
Q 24.90625 74.21875 42 74.21875 
Q 49.125 74.21875 55.546875 72.453125 
Q 61.96875 70.703125 67.390625 67.28125 
L 67.390625 56.78125 
Q 61.921875 61.421875 55.765625 63.765625 
Q 49.609375 66.109375 42.828125 66.109375 
Q 29.4375 66.109375 22.71875 58.640625 
Q 16.015625 51.171875 16.015625 36.375 
Q 16.015625 21.625 22.71875 14.15625 
Q 29.4375 6.6875 42.828125 6.6875 
Q 48.046875 6.6875 52.140625 7.59375 
Q 56.25 8.5 59.515625 10.40625 
z
" id="DejaVuSans-71"/>
       <path d="M 53.515625 70.515625 
L 53.515625 60.890625 
Q 47.90625 63.578125 42.921875 64.890625 
Q 37.9375 66.21875 33.296875 66.21875 
Q 25.25 66.21875 20.875 63.09375 
Q 16.5 59.96875 16.5 54.203125 
Q 16.5 49.359375 19.40625 46.890625 
Q 22.3125 44.4375 30.421875 42.921875 
L 36.375 41.703125 
Q 47.40625 39.59375 52.65625 34.296875 
Q 57.90625 29 57.90625 20.125 
Q 57.90625 9.515625 50.796875 4.046875 
Q 43.703125 -1.421875 29.984375 -1.421875 
Q 24.8125 -1.421875 18.96875 -0.25 
Q 13.140625 0.921875 6.890625 3.21875 
L 6.890625 13.375 
Q 12.890625 10.015625 18.65625 8.296875 
Q 24.421875 6.59375 29.984375 6.59375 
Q 38.421875 6.59375 43.015625 9.90625 
Q 47.609375 13.234375 47.609375 19.390625 
Q 47.609375 24.75 44.3125 27.78125 
Q 41.015625 30.8125 33.5 32.328125 
L 27.484375 33.5 
Q 16.453125 35.6875 11.515625 40.375 
Q 6.59375 45.0625 6.59375 53.421875 
Q 6.59375 63.09375 13.40625 68.65625 
Q 20.21875 74.21875 32.171875 74.21875 
Q 37.3125 74.21875 42.625 73.28125 
Q 47.953125 72.359375 53.515625 70.515625 
z
" id="DejaVuSans-83"/>
      </defs>
      <use xlink:href="#DejaVuSans-71"/>
      <use x="77.490234" xlink:href="#DejaVuSans-78"/>
      <use x="152.294922" xlink:href="#DejaVuSans-65"/>
      <use x="220.703125" xlink:href="#DejaVuSans-83"/>
     </g>
    </g>
   </g>
   <g id="text_3">
    <g clip-path="url(#p217237b760)">
     <!-- TGFB1 -->
     <g transform="translate(644.439845 183.754563)scale(0.1 -0.1)">
      <defs>
       <path d="M -0.296875 72.90625 
L 61.375 72.90625 
L 61.375 64.59375 
L 35.5 64.59375 
L 35.5 0 
L 25.59375 0 
L 25.59375 64.59375 
L -0.296875 64.59375 
z
" id="DejaVuSans-84"/>
       <path d="M 12.40625 8.296875 
L 28.515625 8.296875 
L 28.515625 63.921875 
L 10.984375 60.40625 
L 10.984375 69.390625 
L 28.421875 72.90625 
L 38.28125 72.90625 
L 38.28125 8.296875 
L 54.390625 8.296875 
L 54.390625 0 
L 12.40625 0 
z
" id="DejaVuSans-49"/>
      </defs>
      <use xlink:href="#DejaVuSans-84"/>
      <use x="61.083984" xlink:href="#DejaVuSans-71"/>
      <use x="138.574219" xlink:href="#DejaVuSans-70"/>
      <use x="196.09375" xlink:href="#DejaVuSans-66"/>
      <use x="264.697266" xlink:href="#DejaVuSans-49"/>
     </g>
    </g>
   </g>
   <g id="text_4">
    <g clip-path="url(#p217237b760)">
     <!-- SMAD2 -->
     <g transform="translate(813.472649 517.979968)scale(0.1 -0.1)">
      <defs>
       <path d="M 9.8125 72.90625 
L 24.515625 72.90625 
L 43.109375 23.296875 
L 61.8125 72.90625 
L 76.515625 72.90625 
L 76.515625 0 
L 66.890625 0 
L 66.890625 64.015625 
L 48.09375 14.015625 
L 38.1875 14.015625 
L 19.390625 64.015625 
L 19.390625 0 
L 9.8125 0 
z
" id="DejaVuSans-77"/>
       <path d="M 19.671875 64.796875 
L 19.671875 8.109375 
L 31.59375 8.109375 
Q 46.6875 8.109375 53.6875 14.9375 
Q 60.6875 21.78125 60.6875 36.53125 
Q 60.6875 51.171875 53.6875 57.984375 
Q 46.6875 64.796875 31.59375 64.796875 
z
M 9.8125 72.90625 
L 30.078125 72.90625 
Q 51.265625 72.90625 61.171875 64.09375 
Q 71.09375 55.28125 71.09375 36.53125 
Q 71.09375 17.671875 61.125 8.828125 
Q 51.171875 0 30.078125 0 
L 9.8125 0 
z
" id="DejaVuSans-68"/>
       <path d="M 19.1875 8.296875 
L 53.609375 8.296875 
L 53.609375 0 
L 7.328125 0 
L 7.328125 8.296875 
Q 12.9375 14.109375 22.625 23.890625 
Q 32.328125 33.6875 34.8125 36.53125 
Q 39.546875 41.84375 41.421875 45.53125 
Q 43.3125 49.21875 43.3125 52.78125 
Q 43.3125 58.59375 39.234375 62.25 
Q 35.15625 65.921875 28.609375 65.921875 
Q 23.96875 65.921875 18.8125 64.3125 
Q 13.671875 62.703125 7.8125 59.421875 
L 7.8125 69.390625 
Q 13.765625 71.78125 18.9375 73 
Q 24.125 74.21875 28.421875 74.21875 
Q 39.75 74.21875 46.484375 68.546875 
Q 53.21875 62.890625 53.21875 53.421875 
Q 53.21875 48.921875 51.53125 44.890625 
Q 49.859375 40.875 45.40625 35.40625 
Q 44.1875 33.984375 37.640625 27.21875 
Q 31.109375 20.453125 19.1875 8.296875 
z
" id="DejaVuSans-50"/>
      </defs>
      <use xlink:href="#DejaVuSans-83"/>
      <use x="63.476562" xlink:href="#DejaVuSans-77"/>
      <use x="149.755859" xlink:href="#DejaVuSans-65"/>
      <use x="218.164062" xlink:href="#DejaVuSans-68"/>
      <use x="295.166016" xlink:href="#DejaVuSans-50"/>
     </g>
    </g>
   </g>
   <g id="text_5">
    <g clip-path="url(#p217237b760)">
     <!-- ACTA2 -->
     <g transform="translate(600.111076 713.988466)scale(0.1 -0.1)">
      <defs>
       <path d="M 64.40625 67.28125 
L 64.40625 56.890625 
Q 59.421875 61.53125 53.78125 63.8125 
Q 48.140625 66.109375 41.796875 66.109375 
Q 29.296875 66.109375 22.65625 58.46875 
Q 16.015625 50.828125 16.015625 36.375 
Q 16.015625 21.96875 22.65625 14.328125 
Q 29.296875 6.6875 41.796875 6.6875 
Q 48.140625 6.6875 53.78125 8.984375 
Q 59.421875 11.28125 64.40625 15.921875 
L 64.40625 5.609375 
Q 59.234375 2.09375 53.4375 0.328125 
Q 47.65625 -1.421875 41.21875 -1.421875 
Q 24.65625 -1.421875 15.125 8.703125 
Q 5.609375 18.84375 5.609375 36.375 
Q 5.609375 53.953125 15.125 64.078125 
Q 24.65625 74.21875 41.21875 74.21875 
Q 47.75 74.21875 53.53125 72.484375 
Q 59.328125 70.75 64.40625 67.28125 
z
" id="DejaVuSans-67"/>
      </defs>
      <use xlink:href="#DejaVuSans-65"/>
      <use x="66.658203" xlink:href="#DejaVuSans-67"/>
      <use x="136.482422" xlink:href="#DejaVuSans-84"/>
      <use x="189.816406" xlink:href="#DejaVuSans-65"/>
      <use x="258.224609" xlink:href="#DejaVuSans-50"/>
     </g>
    </g>
   </g>
   <g id="text_6">
    <g clip-path="url(#p217237b760)">
     <!-- RAF1 -->
     <g transform="translate(439.742454 391.857884)scale(0.1 -0.1)">
      <defs>
       <path d="M 44.390625 34.1875 
Q 47.5625 33.109375 50.5625 29.59375 
Q 53.5625 26.078125 56.59375 19.921875 
L 66.609375 0 
L 56 0 
L 46.6875 18.703125 
Q 43.0625 26.03125 39.671875 28.421875 
Q 36.28125 30.8125 30.421875 30.8125 
L 19.671875 30.8125 
L 19.671875 0 
L 9.8125 0 
L 9.8125 72.90625 
L 32.078125 72.90625 
Q 44.578125 72.90625 50.734375 67.671875 
Q 56.890625 62.453125 56.890625 51.90625 
Q 56.890625 45.015625 53.6875 40.46875 
Q 50.484375 35.9375 44.390625 34.1875 
z
M 19.671875 64.796875 
L 19.671875 38.921875 
L 32.078125 38.921875 
Q 39.203125 38.921875 42.84375 42.21875 
Q 46.484375 45.515625 46.484375 51.90625 
Q 46.484375 58.296875 42.84375 61.546875 
Q 39.203125 64.796875 32.078125 64.796875 
z
" id="DejaVuSans-82"/>
      </defs>
      <use xlink:href="#DejaVuSans-82"/>
      <use x="65.482422" xlink:href="#DejaVuSans-65"/>
      <use x="133.890625" xlink:href="#DejaVuSans-70"/>
      <use x="191.410156" xlink:href="#DejaVuSans-49"/>
     </g>
    </g>
   </g>
   <g id="text_7">
    <g clip-path="url(#p217237b760)">
     <!-- PRKCA -->
     <g transform="translate(537.032337 518.75425)scale(0.1 -0.1)">
      <defs>
       <path d="M 19.671875 64.796875 
L 19.671875 37.40625 
L 32.078125 37.40625 
Q 38.96875 37.40625 42.71875 40.96875 
Q 46.484375 44.53125 46.484375 51.125 
Q 46.484375 57.671875 42.71875 61.234375 
Q 38.96875 64.796875 32.078125 64.796875 
z
M 9.8125 72.90625 
L 32.078125 72.90625 
Q 44.34375 72.90625 50.609375 67.359375 
Q 56.890625 61.8125 56.890625 51.125 
Q 56.890625 40.328125 50.609375 34.8125 
Q 44.34375 29.296875 32.078125 29.296875 
L 19.671875 29.296875 
L 19.671875 0 
L 9.8125 0 
z
" id="DejaVuSans-80"/>
      </defs>
      <use xlink:href="#DejaVuSans-80"/>
      <use x="60.302734" xlink:href="#DejaVuSans-82"/>
      <use x="129.785156" xlink:href="#DejaVuSans-75"/>
      <use x="189.861328" xlink:href="#DejaVuSans-67"/>
      <use x="259.685547" xlink:href="#DejaVuSans-65"/>
     </g>
    </g>
   </g>
   <g id="text_8">
    <g clip-path="url(#p217237b760)">
     <!-- TGFBR1 -->
     <g transform="translate(808.478013 240.486467)scale(0.1 -0.1)">
      <use xlink:href="#DejaVuSans-84"/>
      <use x="61.083984" xlink:href="#DejaVuSans-71"/>
      <use x="138.574219" xlink:href="#DejaVuSans-70"/>
      <use x="196.09375" xlink:href="#DejaVuSans-66"/>
      <use x="264.697266" xlink:href="#DejaVuSans-82"/>
      <use x="334.179688" xlink:href="#DejaVuSans-49"/>
     </g>
    </g>
   </g>
   <g id="text_9">
    <g clip-path="url(#p217237b760)">
     <!-- TGFBR2 -->
     <g transform="translate(576.912259 240.103102)scale(0.1 -0.1)">
      <use xlink:href="#DejaVuSans-84"/>
      <use x="61.083984" xlink:href="#DejaVuSans-71"/>
      <use x="138.574219" xlink:href="#DejaVuSans-70"/>
      <use x="196.09375" xlink:href="#DejaVuSans-66"/>
      <use x="264.697266" xlink:href="#DejaVuSans-82"/>
      <use x="334.179688" xlink:href="#DejaVuSans-50"/>
     </g>
    </g>
   </g>
   <g id="text_10">
    <g clip-path="url(#p217237b760)">
     <!-- GRB2 -->
     <g transform="translate(773.716623 596.525508)scale(0.1 -0.1)">
      <use xlink:href="#DejaVuSans-71"/>
      <use x="77.490234" xlink:href="#DejaVuSans-82"/>
      <use x="146.972656" xlink:href="#DejaVuSans-66"/>
      <use x="215.576172" xlink:href="#DejaVuSans-50"/>
     </g>
    </g>
   </g>
   <g id="text_11">
    <g clip-path="url(#p217237b760)">
     <!-- NFKB1 -->
     <g transform="translate(638.464959 410.402671)scale(0.1 -0.1)">
      <use xlink:href="#DejaVuSans-78"/>
      <use x="74.804688" xlink:href="#DejaVuSans-70"/>
      <use x="132.324219" xlink:href="#DejaVuSans-75"/>
      <use x="197.900391" xlink:href="#DejaVuSans-66"/>
      <use x="266.503906" xlink:href="#DejaVuSans-49"/>
     </g>
    </g>
   </g>
   <g id="text_12">
    <g clip-path="url(#p217237b760)">
     <!-- RELA -->
     <g transform="translate(242.194285 309.028225)scale(0.1 -0.1)">
      <defs>
       <path d="M 9.8125 72.90625 
L 55.90625 72.90625 
L 55.90625 64.59375 
L 19.671875 64.59375 
L 19.671875 43.015625 
L 54.390625 43.015625 
L 54.390625 34.71875 
L 19.671875 34.71875 
L 19.671875 8.296875 
L 56.78125 8.296875 
L 56.78125 0 
L 9.8125 0 
z
" id="DejaVuSans-69"/>
       <path d="M 9.8125 72.90625 
L 19.671875 72.90625 
L 19.671875 8.296875 
L 55.171875 8.296875 
L 55.171875 0 
L 9.8125 0 
z
" id="DejaVuSans-76"/>
      </defs>
      <use xlink:href="#DejaVuSans-82"/>
      <use x="69.482422" xlink:href="#DejaVuSans-69"/>
      <use x="132.666016" xlink:href="#DejaVuSans-76"/>
      <use x="190.628906" xlink:href="#DejaVuSans-65"/>
     </g>
    </g>
   </g>
   <g id="text_13">
    <g clip-path="url(#p217237b760)">
     <!-- GNB1 -->
     <g transform="translate(307.033308 626.409349)scale(0.1 -0.1)">
      <use xlink:href="#DejaVuSans-71"/>
      <use x="77.490234" xlink:href="#DejaVuSans-78"/>
      <use x="152.294922" xlink:href="#DejaVuSans-66"/>
      <use x="220.898438" xlink:href="#DejaVuSans-49"/>
     </g>
    </g>
   </g>
   <g id="text_14">
    <g clip-path="url(#p217237b760)">
     <!-- GNB2 -->
     <g transform="translate(891.660696 595.004816)scale(0.1 -0.1)">
      <use xlink:href="#DejaVuSans-71"/>
      <use x="77.490234" xlink:href="#DejaVuSans-78"/>
      <use x="152.294922" xlink:href="#DejaVuSans-66"/>
      <use x="220.898438" xlink:href="#DejaVuSans-50"/>
     </g>
    </g>
   </g>
   <g id="text_15">
    <g clip-path="url(#p217237b760)">
     <!-- GNB4 -->
     <g transform="translate(340.995625 239.932278)scale(0.1 -0.1)">
      <defs>
       <path d="M 37.796875 64.3125 
L 12.890625 25.390625 
L 37.796875 25.390625 
z
M 35.203125 72.90625 
L 47.609375 72.90625 
L 47.609375 25.390625 
L 58.015625 25.390625 
L 58.015625 17.1875 
L 47.609375 17.1875 
L 47.609375 0 
L 37.796875 0 
L 37.796875 17.1875 
L 4.890625 17.1875 
L 4.890625 26.703125 
z
" id="DejaVuSans-52"/>
      </defs>
      <use xlink:href="#DejaVuSans-71"/>
      <use x="77.490234" xlink:href="#DejaVuSans-78"/>
      <use x="152.294922" xlink:href="#DejaVuSans-66"/>
      <use x="220.898438" xlink:href="#DejaVuSans-52"/>
     </g>
    </g>
   </g>
   <g id="text_16">
    <g clip-path="url(#p217237b760)">
     <!-- GNB5 -->
     <g transform="translate(207.247818 419.744283)scale(0.1 -0.1)">
      <defs>
       <path d="M 10.796875 72.90625 
L 49.515625 72.90625 
L 49.515625 64.59375 
L 19.828125 64.59375 
L 19.828125 46.734375 
Q 21.96875 47.46875 24.109375 47.828125 
Q 26.265625 48.1875 28.421875 48.1875 
Q 40.625 48.1875 47.75 41.5 
Q 54.890625 34.8125 54.890625 23.390625 
Q 54.890625 11.625 47.5625 5.09375 
Q 40.234375 -1.421875 26.90625 -1.421875 
Q 22.3125 -1.421875 17.546875 -0.640625 
Q 12.796875 0.140625 7.71875 1.703125 
L 7.71875 11.625 
Q 12.109375 9.234375 16.796875 8.0625 
Q 21.484375 6.890625 26.703125 6.890625 
Q 35.15625 6.890625 40.078125 11.328125 
Q 45.015625 15.765625 45.015625 23.390625 
Q 45.015625 31 40.078125 35.4375 
Q 35.15625 39.890625 26.703125 39.890625 
Q 22.75 39.890625 18.8125 39.015625 
Q 14.890625 38.140625 10.796875 36.28125 
z
" id="DejaVuSans-53"/>
      </defs>
      <use xlink:href="#DejaVuSans-71"/>
      <use x="77.490234" xlink:href="#DejaVuSans-78"/>
      <use x="152.294922" xlink:href="#DejaVuSans-66"/>
      <use x="220.898438" xlink:href="#DejaVuSans-53"/>
     </g>
    </g>
   </g>
   <g id="text_17">
    <g clip-path="url(#p217237b760)">
     <!-- GNG2 -->
     <g transform="translate(392.801412 193.228578)scale(0.1 -0.1)">
      <use xlink:href="#DejaVuSans-71"/>
      <use x="77.490234" xlink:href="#DejaVuSans-78"/>
      <use x="152.294922" xlink:href="#DejaVuSans-71"/>
      <use x="229.785156" xlink:href="#DejaVuSans-50"/>
     </g>
    </g>
   </g>
   <g id="text_18">
    <g clip-path="url(#p217237b760)">
     <!-- GNG5 -->
     <g transform="translate(944.655307 462.136487)scale(0.1 -0.1)">
      <use xlink:href="#DejaVuSans-71"/>
      <use x="77.490234" xlink:href="#DejaVuSans-78"/>
      <use x="152.294922" xlink:href="#DejaVuSans-71"/>
      <use x="229.785156" xlink:href="#DejaVuSans-53"/>
     </g>
    </g>
   </g>
   <g id="text_19">
    <g clip-path="url(#p217237b760)">
     <!-- GNG7 -->
     <g transform="translate(280.211849 588.827847)scale(0.1 -0.1)">
      <defs>
       <path d="M 8.203125 72.90625 
L 55.078125 72.90625 
L 55.078125 68.703125 
L 28.609375 0 
L 18.3125 0 
L 43.21875 64.59375 
L 8.203125 64.59375 
z
" id="DejaVuSans-55"/>
      </defs>
      <use xlink:href="#DejaVuSans-71"/>
      <use x="77.490234" xlink:href="#DejaVuSans-78"/>
      <use x="152.294922" xlink:href="#DejaVuSans-71"/>
      <use x="229.785156" xlink:href="#DejaVuSans-55"/>
     </g>
    </g>
   </g>
   <g id="text_20">
    <g clip-path="url(#p217237b760)">
     <!-- GNG10 -->
     <g transform="translate(710.990543 238.799008)scale(0.1 -0.1)">
      <defs>
       <path d="M 31.78125 66.40625 
Q 24.171875 66.40625 20.328125 58.90625 
Q 16.5 51.421875 16.5 36.375 
Q 16.5 21.390625 20.328125 13.890625 
Q 24.171875 6.390625 31.78125 6.390625 
Q 39.453125 6.390625 43.28125 13.890625 
Q 47.125 21.390625 47.125 36.375 
Q 47.125 51.421875 43.28125 58.90625 
Q 39.453125 66.40625 31.78125 66.40625 
z
M 31.78125 74.21875 
Q 44.046875 74.21875 50.515625 64.515625 
Q 56.984375 54.828125 56.984375 36.375 
Q 56.984375 17.96875 50.515625 8.265625 
Q 44.046875 -1.421875 31.78125 -1.421875 
Q 19.53125 -1.421875 13.0625 8.265625 
Q 6.59375 17.96875 6.59375 36.375 
Q 6.59375 54.828125 13.0625 64.515625 
Q 19.53125 74.21875 31.78125 74.21875 
z
" id="DejaVuSans-48"/>
      </defs>
      <use xlink:href="#DejaVuSans-71"/>
      <use x="77.490234" xlink:href="#DejaVuSans-78"/>
      <use x="152.294922" xlink:href="#DejaVuSans-71"/>
      <use x="229.785156" xlink:href="#DejaVuSans-49"/>
      <use x="293.408203" xlink:href="#DejaVuSans-48"/>
     </g>
    </g>
   </g>
   <g id="text_21">
    <g clip-path="url(#p217237b760)">
     <!-- GNG11 -->
     <g transform="translate(933.529266 375.857207)scale(0.1 -0.1)">
      <use xlink:href="#DejaVuSans-71"/>
      <use x="77.490234" xlink:href="#DejaVuSans-78"/>
      <use x="152.294922" xlink:href="#DejaVuSans-71"/>
      <use x="229.785156" xlink:href="#DejaVuSans-49"/>
      <use x="293.408203" xlink:href="#DejaVuSans-49"/>
     </g>
    </g>
   </g>
   <g id="text_22">
    <g clip-path="url(#p217237b760)">
     <!-- GNGT2 -->
     <g transform="translate(545.068547 164.170284)scale(0.1 -0.1)">
      <use xlink:href="#DejaVuSans-71"/>
      <use x="77.490234" xlink:href="#DejaVuSans-78"/>
      <use x="152.294922" xlink:href="#DejaVuSans-71"/>
      <use x="226.160156" xlink:href="#DejaVuSans-84"/>
      <use x="287.244141" xlink:href="#DejaVuSans-50"/>
     </g>
    </g>
   </g>
   <g id="text_23">
    <g clip-path="url(#p217237b760)">
     <!-- CREB1 -->
     <g transform="translate(270.591196 514.318506)scale(0.1 -0.1)">
      <use xlink:href="#DejaVuSans-67"/>
      <use x="69.824219" xlink:href="#DejaVuSans-82"/>
      <use x="139.306641" xlink:href="#DejaVuSans-69"/>
      <use x="202.490234" xlink:href="#DejaVuSans-66"/>
      <use x="271.09375" xlink:href="#DejaVuSans-49"/>
     </g>
    </g>
   </g>
   <g id="text_24">
    <g clip-path="url(#p217237b760)">
     <!-- ATF2 -->
     <g transform="translate(574.829084 302.695239)scale(0.1 -0.1)">
      <use xlink:href="#DejaVuSans-65"/>
      <use x="60.658203" xlink:href="#DejaVuSans-84"/>
      <use x="121.742188" xlink:href="#DejaVuSans-70"/>
      <use x="179.261719" xlink:href="#DejaVuSans-50"/>
     </g>
    </g>
   </g>
   <g id="text_25">
    <g clip-path="url(#p217237b760)">
     <!-- ATF4 -->
     <g transform="translate(517.760673 415.077823)scale(0.1 -0.1)">
      <use xlink:href="#DejaVuSans-65"/>
      <use x="60.658203" xlink:href="#DejaVuSans-84"/>
      <use x="121.742188" xlink:href="#DejaVuSans-70"/>
      <use x="179.261719" xlink:href="#DejaVuSans-52"/>
     </g>
    </g>
   </g>
   <g id="text_26">
    <g clip-path="url(#p217237b760)">
     <!-- CREB3 -->
     <g transform="translate(641.99318 634.186553)scale(0.1 -0.1)">
      <defs>
       <path d="M 40.578125 39.3125 
Q 47.65625 37.796875 51.625 33 
Q 55.609375 28.21875 55.609375 21.1875 
Q 55.609375 10.40625 48.1875 4.484375 
Q 40.765625 -1.421875 27.09375 -1.421875 
Q 22.515625 -1.421875 17.65625 -0.515625 
Q 12.796875 0.390625 7.625 2.203125 
L 7.625 11.71875 
Q 11.71875 9.328125 16.59375 8.109375 
Q 21.484375 6.890625 26.8125 6.890625 
Q 36.078125 6.890625 40.9375 10.546875 
Q 45.796875 14.203125 45.796875 21.1875 
Q 45.796875 27.640625 41.28125 31.265625 
Q 36.765625 34.90625 28.71875 34.90625 
L 20.21875 34.90625 
L 20.21875 43.015625 
L 29.109375 43.015625 
Q 36.375 43.015625 40.234375 45.921875 
Q 44.09375 48.828125 44.09375 54.296875 
Q 44.09375 59.90625 40.109375 62.90625 
Q 36.140625 65.921875 28.71875 65.921875 
Q 24.65625 65.921875 20.015625 65.03125 
Q 15.375 64.15625 9.8125 62.3125 
L 9.8125 71.09375 
Q 15.4375 72.65625 20.34375 73.4375 
Q 25.25 74.21875 29.59375 74.21875 
Q 40.828125 74.21875 47.359375 69.109375 
Q 53.90625 64.015625 53.90625 55.328125 
Q 53.90625 49.265625 50.4375 45.09375 
Q 46.96875 40.921875 40.578125 39.3125 
z
" id="DejaVuSans-51"/>
      </defs>
      <use xlink:href="#DejaVuSans-67"/>
      <use x="69.824219" xlink:href="#DejaVuSans-82"/>
      <use x="139.306641" xlink:href="#DejaVuSans-69"/>
      <use x="202.490234" xlink:href="#DejaVuSans-66"/>
      <use x="271.09375" xlink:href="#DejaVuSans-51"/>
     </g>
    </g>
   </g>
   <g id="text_27">
    <g clip-path="url(#p217237b760)">
     <!-- ATF6B -->
     <g transform="translate(555.199796 571.054613)scale(0.1 -0.1)">
      <defs>
       <path d="M 33.015625 40.375 
Q 26.375 40.375 22.484375 35.828125 
Q 18.609375 31.296875 18.609375 23.390625 
Q 18.609375 15.53125 22.484375 10.953125 
Q 26.375 6.390625 33.015625 6.390625 
Q 39.65625 6.390625 43.53125 10.953125 
Q 47.40625 15.53125 47.40625 23.390625 
Q 47.40625 31.296875 43.53125 35.828125 
Q 39.65625 40.375 33.015625 40.375 
z
M 52.59375 71.296875 
L 52.59375 62.3125 
Q 48.875 64.0625 45.09375 64.984375 
Q 41.3125 65.921875 37.59375 65.921875 
Q 27.828125 65.921875 22.671875 59.328125 
Q 17.53125 52.734375 16.796875 39.40625 
Q 19.671875 43.65625 24.015625 45.921875 
Q 28.375 48.1875 33.59375 48.1875 
Q 44.578125 48.1875 50.953125 41.515625 
Q 57.328125 34.859375 57.328125 23.390625 
Q 57.328125 12.15625 50.6875 5.359375 
Q 44.046875 -1.421875 33.015625 -1.421875 
Q 20.359375 -1.421875 13.671875 8.265625 
Q 6.984375 17.96875 6.984375 36.375 
Q 6.984375 53.65625 15.1875 63.9375 
Q 23.390625 74.21875 37.203125 74.21875 
Q 40.921875 74.21875 44.703125 73.484375 
Q 48.484375 72.75 52.59375 71.296875 
z
" id="DejaVuSans-54"/>
      </defs>
      <use xlink:href="#DejaVuSans-65"/>
      <use x="60.658203" xlink:href="#DejaVuSans-84"/>
      <use x="121.742188" xlink:href="#DejaVuSans-70"/>
      <use x="179.261719" xlink:href="#DejaVuSans-54"/>
      <use x="242.884766" xlink:href="#DejaVuSans-66"/>
     </g>
    </g>
   </g>
   <g id="text_28">
    <g clip-path="url(#p217237b760)">
     <!-- VEGFB -->
     <g transform="translate(224.196341 553.332448)scale(0.1 -0.1)">
      <defs>
       <path d="M 28.609375 0 
L 0.78125 72.90625 
L 11.078125 72.90625 
L 34.1875 11.53125 
L 57.328125 72.90625 
L 67.578125 72.90625 
L 39.796875 0 
z
" id="DejaVuSans-86"/>
      </defs>
      <use xlink:href="#DejaVuSans-86"/>
      <use x="68.408203" xlink:href="#DejaVuSans-69"/>
      <use x="131.591797" xlink:href="#DejaVuSans-71"/>
      <use x="209.082031" xlink:href="#DejaVuSans-70"/>
      <use x="266.601562" xlink:href="#DejaVuSans-66"/>
     </g>
    </g>
   </g>
   <g id="text_29">
    <g clip-path="url(#p217237b760)">
     <!-- ADCY3 -->
     <g transform="translate(230.585421 335.959038)scale(0.1 -0.1)">
      <defs>
       <path d="M -0.203125 72.90625 
L 10.40625 72.90625 
L 30.609375 42.921875 
L 50.6875 72.90625 
L 61.28125 72.90625 
L 35.5 34.71875 
L 35.5 0 
L 25.59375 0 
L 25.59375 34.71875 
z
" id="DejaVuSans-89"/>
      </defs>
      <use xlink:href="#DejaVuSans-65"/>
      <use x="68.408203" xlink:href="#DejaVuSans-68"/>
      <use x="145.410156" xlink:href="#DejaVuSans-67"/>
      <use x="213.484375" xlink:href="#DejaVuSans-89"/>
      <use x="274.568359" xlink:href="#DejaVuSans-51"/>
     </g>
    </g>
   </g>
   <g id="text_30">
    <g clip-path="url(#p217237b760)">
     <!-- ADCY4 -->
     <g transform="translate(492.854649 211.654324)scale(0.1 -0.1)">
      <use xlink:href="#DejaVuSans-65"/>
      <use x="68.408203" xlink:href="#DejaVuSans-68"/>
      <use x="145.410156" xlink:href="#DejaVuSans-67"/>
      <use x="213.484375" xlink:href="#DejaVuSans-89"/>
      <use x="274.568359" xlink:href="#DejaVuSans-52"/>
     </g>
    </g>
   </g>
   <g id="text_31">
    <g clip-path="url(#p217237b760)">
     <!-- ADCY7 -->
     <g transform="translate(468.307242 703.994231)scale(0.1 -0.1)">
      <use xlink:href="#DejaVuSans-65"/>
      <use x="68.408203" xlink:href="#DejaVuSans-68"/>
      <use x="145.410156" xlink:href="#DejaVuSans-67"/>
      <use x="213.484375" xlink:href="#DejaVuSans-89"/>
      <use x="274.568359" xlink:href="#DejaVuSans-55"/>
     </g>
    </g>
   </g>
   <g id="text_32">
    <g clip-path="url(#p217237b760)">
     <!-- ADCY9 -->
     <g transform="translate(534.283772 706.646643)scale(0.1 -0.1)">
      <defs>
       <path d="M 10.984375 1.515625 
L 10.984375 10.5 
Q 14.703125 8.734375 18.5 7.8125 
Q 22.3125 6.890625 25.984375 6.890625 
Q 35.75 6.890625 40.890625 13.453125 
Q 46.046875 20.015625 46.78125 33.40625 
Q 43.953125 29.203125 39.59375 26.953125 
Q 35.25 24.703125 29.984375 24.703125 
Q 19.046875 24.703125 12.671875 31.3125 
Q 6.296875 37.9375 6.296875 49.421875 
Q 6.296875 60.640625 12.9375 67.421875 
Q 19.578125 74.21875 30.609375 74.21875 
Q 43.265625 74.21875 49.921875 64.515625 
Q 56.59375 54.828125 56.59375 36.375 
Q 56.59375 19.140625 48.40625 8.859375 
Q 40.234375 -1.421875 26.421875 -1.421875 
Q 22.703125 -1.421875 18.890625 -0.6875 
Q 15.09375 0.046875 10.984375 1.515625 
z
M 30.609375 32.421875 
Q 37.25 32.421875 41.125 36.953125 
Q 45.015625 41.5 45.015625 49.421875 
Q 45.015625 57.28125 41.125 61.84375 
Q 37.25 66.40625 30.609375 66.40625 
Q 23.96875 66.40625 20.09375 61.84375 
Q 16.21875 57.28125 16.21875 49.421875 
Q 16.21875 41.5 20.09375 36.953125 
Q 23.96875 32.421875 30.609375 32.421875 
z
" id="DejaVuSans-57"/>
      </defs>
      <use xlink:href="#DejaVuSans-65"/>
      <use x="68.408203" xlink:href="#DejaVuSans-68"/>
      <use x="145.410156" xlink:href="#DejaVuSans-67"/>
      <use x="213.484375" xlink:href="#DejaVuSans-89"/>
      <use x="274.568359" xlink:href="#DejaVuSans-57"/>
     </g>
    </g>
   </g>
   <g id="text_33">
    <g clip-path="url(#p217237b760)">
     <!-- HRAS -->
     <g transform="translate(337.492663 644.489588)scale(0.1 -0.1)">
      <defs>
       <path d="M 9.8125 72.90625 
L 19.671875 72.90625 
L 19.671875 43.015625 
L 55.515625 43.015625 
L 55.515625 72.90625 
L 65.375 72.90625 
L 65.375 0 
L 55.515625 0 
L 55.515625 34.71875 
L 19.671875 34.71875 
L 19.671875 0 
L 9.8125 0 
z
" id="DejaVuSans-72"/>
      </defs>
      <use xlink:href="#DejaVuSans-72"/>
      <use x="75.195312" xlink:href="#DejaVuSans-82"/>
      <use x="140.677734" xlink:href="#DejaVuSans-65"/>
      <use x="209.085938" xlink:href="#DejaVuSans-83"/>
     </g>
    </g>
   </g>
   <g id="text_34">
    <g clip-path="url(#p217237b760)">
     <!-- KRAS -->
     <g transform="translate(739.7736 292.923143)scale(0.1 -0.1)">
      <use xlink:href="#DejaVuSans-75"/>
      <use x="65.576172" xlink:href="#DejaVuSans-82"/>
      <use x="131.058594" xlink:href="#DejaVuSans-65"/>
      <use x="199.466797" xlink:href="#DejaVuSans-83"/>
     </g>
    </g>
   </g>
   <g id="text_35">
    <g clip-path="url(#p217237b760)">
     <!-- NRAS -->
     <g transform="translate(230.107865 473.757259)scale(0.1 -0.1)">
      <use xlink:href="#DejaVuSans-78"/>
      <use x="74.804688" xlink:href="#DejaVuSans-82"/>
      <use x="140.287109" xlink:href="#DejaVuSans-65"/>
      <use x="208.695312" xlink:href="#DejaVuSans-83"/>
     </g>
    </g>
   </g>
   <g id="text_36">
    <g clip-path="url(#p217237b760)">
     <!-- MAP2K1 -->
     <g transform="translate(234.972673 376.452299)scale(0.1 -0.1)">
      <use xlink:href="#DejaVuSans-77"/>
      <use x="86.279297" xlink:href="#DejaVuSans-65"/>
      <use x="154.6875" xlink:href="#DejaVuSans-80"/>
      <use x="214.990234" xlink:href="#DejaVuSans-50"/>
      <use x="278.613281" xlink:href="#DejaVuSans-75"/>
      <use x="344.189453" xlink:href="#DejaVuSans-49"/>
     </g>
    </g>
   </g>
   <g id="text_37">
    <g clip-path="url(#p217237b760)">
     <!-- MAP2K2 -->
     <g transform="translate(715.739649 695.711749)scale(0.1 -0.1)">
      <use xlink:href="#DejaVuSans-77"/>
      <use x="86.279297" xlink:href="#DejaVuSans-65"/>
      <use x="154.6875" xlink:href="#DejaVuSans-80"/>
      <use x="214.990234" xlink:href="#DejaVuSans-50"/>
      <use x="278.613281" xlink:href="#DejaVuSans-75"/>
      <use x="344.189453" xlink:href="#DejaVuSans-50"/>
     </g>
    </g>
   </g>
   <g id="text_38">
    <g clip-path="url(#p217237b760)">
     <!-- SHC1 -->
     <g transform="translate(420.495603 673.280639)scale(0.1 -0.1)">
      <use xlink:href="#DejaVuSans-83"/>
      <use x="63.476562" xlink:href="#DejaVuSans-72"/>
      <use x="138.671875" xlink:href="#DejaVuSans-67"/>
      <use x="208.496094" xlink:href="#DejaVuSans-49"/>
     </g>
    </g>
   </g>
   <g id="text_39">
    <g clip-path="url(#p217237b760)">
     <!-- MAP2K4 -->
     <g transform="translate(652.04169 690.512224)scale(0.1 -0.1)">
      <use xlink:href="#DejaVuSans-77"/>
      <use x="86.279297" xlink:href="#DejaVuSans-65"/>
      <use x="154.6875" xlink:href="#DejaVuSans-80"/>
      <use x="214.990234" xlink:href="#DejaVuSans-50"/>
      <use x="278.613281" xlink:href="#DejaVuSans-75"/>
      <use x="344.189453" xlink:href="#DejaVuSans-52"/>
     </g>
    </g>
   </g>
   <g id="text_40">
    <g clip-path="url(#p217237b760)">
     <!-- MAP2K7 -->
     <g transform="translate(791.476507 635.727074)scale(0.1 -0.1)">
      <use xlink:href="#DejaVuSans-77"/>
      <use x="86.279297" xlink:href="#DejaVuSans-65"/>
      <use x="154.6875" xlink:href="#DejaVuSans-80"/>
      <use x="214.990234" xlink:href="#DejaVuSans-50"/>
      <use x="278.613281" xlink:href="#DejaVuSans-75"/>
      <use x="344.189453" xlink:href="#DejaVuSans-55"/>
     </g>
    </g>
   </g>
   <g id="text_41">
    <!-- Importance Score and Relative Abundance for network hsa04926 for dataset atherosclerosis -->
    <g transform="translate(312.388125 97.68)scale(0.12 -0.12)">
     <defs>
      <path d="M 52 44.1875 
Q 55.375 50.25 60.0625 53.125 
Q 64.75 56 71.09375 56 
Q 79.640625 56 84.28125 50.015625 
Q 88.921875 44.046875 88.921875 33.015625 
L 88.921875 0 
L 79.890625 0 
L 79.890625 32.71875 
Q 79.890625 40.578125 77.09375 44.375 
Q 74.3125 48.1875 68.609375 48.1875 
Q 61.625 48.1875 57.5625 43.546875 
Q 53.515625 38.921875 53.515625 30.90625 
L 53.515625 0 
L 44.484375 0 
L 44.484375 32.71875 
Q 44.484375 40.625 41.703125 44.40625 
Q 38.921875 48.1875 33.109375 48.1875 
Q 26.21875 48.1875 22.15625 43.53125 
Q 18.109375 38.875 18.109375 30.90625 
L 18.109375 0 
L 9.078125 0 
L 9.078125 54.6875 
L 18.109375 54.6875 
L 18.109375 46.1875 
Q 21.1875 51.21875 25.484375 53.609375 
Q 29.78125 56 35.6875 56 
Q 41.65625 56 45.828125 52.96875 
Q 50 49.953125 52 44.1875 
z
" id="DejaVuSans-109"/>
      <path d="M 18.109375 8.203125 
L 18.109375 -20.796875 
L 9.078125 -20.796875 
L 9.078125 54.6875 
L 18.109375 54.6875 
L 18.109375 46.390625 
Q 20.953125 51.265625 25.265625 53.625 
Q 29.59375 56 35.59375 56 
Q 45.5625 56 51.78125 48.09375 
Q 58.015625 40.1875 58.015625 27.296875 
Q 58.015625 14.40625 51.78125 6.484375 
Q 45.5625 -1.421875 35.59375 -1.421875 
Q 29.59375 -1.421875 25.265625 0.953125 
Q 20.953125 3.328125 18.109375 8.203125 
z
M 48.6875 27.296875 
Q 48.6875 37.203125 44.609375 42.84375 
Q 40.53125 48.484375 33.40625 48.484375 
Q 26.265625 48.484375 22.1875 42.84375 
Q 18.109375 37.203125 18.109375 27.296875 
Q 18.109375 17.390625 22.1875 11.75 
Q 26.265625 6.109375 33.40625 6.109375 
Q 40.53125 6.109375 44.609375 11.75 
Q 48.6875 17.390625 48.6875 27.296875 
z
" id="DejaVuSans-112"/>
      <path d="M 30.609375 48.390625 
Q 23.390625 48.390625 19.1875 42.75 
Q 14.984375 37.109375 14.984375 27.296875 
Q 14.984375 17.484375 19.15625 11.84375 
Q 23.34375 6.203125 30.609375 6.203125 
Q 37.796875 6.203125 41.984375 11.859375 
Q 46.1875 17.53125 46.1875 27.296875 
Q 46.1875 37.015625 41.984375 42.703125 
Q 37.796875 48.390625 30.609375 48.390625 
z
M 30.609375 56 
Q 42.328125 56 49.015625 48.375 
Q 55.71875 40.765625 55.71875 27.296875 
Q 55.71875 13.875 49.015625 6.21875 
Q 42.328125 -1.421875 30.609375 -1.421875 
Q 18.84375 -1.421875 12.171875 6.21875 
Q 5.515625 13.875 5.515625 27.296875 
Q 5.515625 40.765625 12.171875 48.375 
Q 18.84375 56 30.609375 56 
z
" id="DejaVuSans-111"/>
      <path d="M 41.109375 46.296875 
Q 39.59375 47.171875 37.8125 47.578125 
Q 36.03125 48 33.890625 48 
Q 26.265625 48 22.1875 43.046875 
Q 18.109375 38.09375 18.109375 28.8125 
L 18.109375 0 
L 9.078125 0 
L 9.078125 54.6875 
L 18.109375 54.6875 
L 18.109375 46.1875 
Q 20.953125 51.171875 25.484375 53.578125 
Q 30.03125 56 36.53125 56 
Q 37.453125 56 38.578125 55.875 
Q 39.703125 55.765625 41.0625 55.515625 
z
" id="DejaVuSans-114"/>
      <path d="M 18.3125 70.21875 
L 18.3125 54.6875 
L 36.8125 54.6875 
L 36.8125 47.703125 
L 18.3125 47.703125 
L 18.3125 18.015625 
Q 18.3125 11.328125 20.140625 9.421875 
Q 21.96875 7.515625 27.59375 7.515625 
L 36.8125 7.515625 
L 36.8125 0 
L 27.59375 0 
Q 17.1875 0 13.234375 3.875 
Q 9.28125 7.765625 9.28125 18.015625 
L 9.28125 47.703125 
L 2.6875 47.703125 
L 2.6875 54.6875 
L 9.28125 54.6875 
L 9.28125 70.21875 
z
" id="DejaVuSans-116"/>
      <path d="M 34.28125 27.484375 
Q 23.390625 27.484375 19.1875 25 
Q 14.984375 22.515625 14.984375 16.5 
Q 14.984375 11.71875 18.140625 8.90625 
Q 21.296875 6.109375 26.703125 6.109375 
Q 34.1875 6.109375 38.703125 11.40625 
Q 43.21875 16.703125 43.21875 25.484375 
L 43.21875 27.484375 
z
M 52.203125 31.203125 
L 52.203125 0 
L 43.21875 0 
L 43.21875 8.296875 
Q 40.140625 3.328125 35.546875 0.953125 
Q 30.953125 -1.421875 24.3125 -1.421875 
Q 15.921875 -1.421875 10.953125 3.296875 
Q 6 8.015625 6 15.921875 
Q 6 25.140625 12.171875 29.828125 
Q 18.359375 34.515625 30.609375 34.515625 
L 43.21875 34.515625 
L 43.21875 35.40625 
Q 43.21875 41.609375 39.140625 45 
Q 35.0625 48.390625 27.6875 48.390625 
Q 23 48.390625 18.546875 47.265625 
Q 14.109375 46.140625 10.015625 43.890625 
L 10.015625 52.203125 
Q 14.9375 54.109375 19.578125 55.046875 
Q 24.21875 56 28.609375 56 
Q 40.484375 56 46.34375 49.84375 
Q 52.203125 43.703125 52.203125 31.203125 
z
" id="DejaVuSans-97"/>
      <path d="M 54.890625 33.015625 
L 54.890625 0 
L 45.90625 0 
L 45.90625 32.71875 
Q 45.90625 40.484375 42.875 44.328125 
Q 39.84375 48.1875 33.796875 48.1875 
Q 26.515625 48.1875 22.3125 43.546875 
Q 18.109375 38.921875 18.109375 30.90625 
L 18.109375 0 
L 9.078125 0 
L 9.078125 54.6875 
L 18.109375 54.6875 
L 18.109375 46.1875 
Q 21.34375 51.125 25.703125 53.5625 
Q 30.078125 56 35.796875 56 
Q 45.21875 56 50.046875 50.171875 
Q 54.890625 44.34375 54.890625 33.015625 
z
" id="DejaVuSans-110"/>
      <path d="M 48.78125 52.59375 
L 48.78125 44.1875 
Q 44.96875 46.296875 41.140625 47.34375 
Q 37.3125 48.390625 33.40625 48.390625 
Q 24.65625 48.390625 19.8125 42.84375 
Q 14.984375 37.3125 14.984375 27.296875 
Q 14.984375 17.28125 19.8125 11.734375 
Q 24.65625 6.203125 33.40625 6.203125 
Q 37.3125 6.203125 41.140625 7.25 
Q 44.96875 8.296875 48.78125 10.40625 
L 48.78125 2.09375 
Q 45.015625 0.34375 40.984375 -0.53125 
Q 36.96875 -1.421875 32.421875 -1.421875 
Q 20.0625 -1.421875 12.78125 6.34375 
Q 5.515625 14.109375 5.515625 27.296875 
Q 5.515625 40.671875 12.859375 48.328125 
Q 20.21875 56 33.015625 56 
Q 37.15625 56 41.109375 55.140625 
Q 45.0625 54.296875 48.78125 52.59375 
z
" id="DejaVuSans-99"/>
      <path d="M 56.203125 29.59375 
L 56.203125 25.203125 
L 14.890625 25.203125 
Q 15.484375 15.921875 20.484375 11.0625 
Q 25.484375 6.203125 34.421875 6.203125 
Q 39.59375 6.203125 44.453125 7.46875 
Q 49.3125 8.734375 54.109375 11.28125 
L 54.109375 2.78125 
Q 49.265625 0.734375 44.1875 -0.34375 
Q 39.109375 -1.421875 33.890625 -1.421875 
Q 20.796875 -1.421875 13.15625 6.1875 
Q 5.515625 13.8125 5.515625 26.8125 
Q 5.515625 40.234375 12.765625 48.109375 
Q 20.015625 56 32.328125 56 
Q 43.359375 56 49.78125 48.890625 
Q 56.203125 41.796875 56.203125 29.59375 
z
M 47.21875 32.234375 
Q 47.125 39.59375 43.09375 43.984375 
Q 39.0625 48.390625 32.421875 48.390625 
Q 24.90625 48.390625 20.390625 44.140625 
Q 15.875 39.890625 15.1875 32.171875 
z
" id="DejaVuSans-101"/>
      <path id="DejaVuSans-32"/>
      <path d="M 45.40625 46.390625 
L 45.40625 75.984375 
L 54.390625 75.984375 
L 54.390625 0 
L 45.40625 0 
L 45.40625 8.203125 
Q 42.578125 3.328125 38.25 0.953125 
Q 33.9375 -1.421875 27.875 -1.421875 
Q 17.96875 -1.421875 11.734375 6.484375 
Q 5.515625 14.40625 5.515625 27.296875 
Q 5.515625 40.1875 11.734375 48.09375 
Q 17.96875 56 27.875 56 
Q 33.9375 56 38.25 53.625 
Q 42.578125 51.265625 45.40625 46.390625 
z
M 14.796875 27.296875 
Q 14.796875 17.390625 18.875 11.75 
Q 22.953125 6.109375 30.078125 6.109375 
Q 37.203125 6.109375 41.296875 11.75 
Q 45.40625 17.390625 45.40625 27.296875 
Q 45.40625 37.203125 41.296875 42.84375 
Q 37.203125 48.484375 30.078125 48.484375 
Q 22.953125 48.484375 18.875 42.84375 
Q 14.796875 37.203125 14.796875 27.296875 
z
" id="DejaVuSans-100"/>
      <path d="M 9.421875 75.984375 
L 18.40625 75.984375 
L 18.40625 0 
L 9.421875 0 
z
" id="DejaVuSans-108"/>
      <path d="M 9.421875 54.6875 
L 18.40625 54.6875 
L 18.40625 0 
L 9.421875 0 
z
M 9.421875 75.984375 
L 18.40625 75.984375 
L 18.40625 64.59375 
L 9.421875 64.59375 
z
" id="DejaVuSans-105"/>
      <path d="M 2.984375 54.6875 
L 12.5 54.6875 
L 29.59375 8.796875 
L 46.6875 54.6875 
L 56.203125 54.6875 
L 35.6875 0 
L 23.484375 0 
z
" id="DejaVuSans-118"/>
      <path d="M 48.6875 27.296875 
Q 48.6875 37.203125 44.609375 42.84375 
Q 40.53125 48.484375 33.40625 48.484375 
Q 26.265625 48.484375 22.1875 42.84375 
Q 18.109375 37.203125 18.109375 27.296875 
Q 18.109375 17.390625 22.1875 11.75 
Q 26.265625 6.109375 33.40625 6.109375 
Q 40.53125 6.109375 44.609375 11.75 
Q 48.6875 17.390625 48.6875 27.296875 
z
M 18.109375 46.390625 
Q 20.953125 51.265625 25.265625 53.625 
Q 29.59375 56 35.59375 56 
Q 45.5625 56 51.78125 48.09375 
Q 58.015625 40.1875 58.015625 27.296875 
Q 58.015625 14.40625 51.78125 6.484375 
Q 45.5625 -1.421875 35.59375 -1.421875 
Q 29.59375 -1.421875 25.265625 0.953125 
Q 20.953125 3.328125 18.109375 8.203125 
L 18.109375 0 
L 9.078125 0 
L 9.078125 75.984375 
L 18.109375 75.984375 
z
" id="DejaVuSans-98"/>
      <path d="M 8.5 21.578125 
L 8.5 54.6875 
L 17.484375 54.6875 
L 17.484375 21.921875 
Q 17.484375 14.15625 20.5 10.265625 
Q 23.53125 6.390625 29.59375 6.390625 
Q 36.859375 6.390625 41.078125 11.03125 
Q 45.3125 15.671875 45.3125 23.6875 
L 45.3125 54.6875 
L 54.296875 54.6875 
L 54.296875 0 
L 45.3125 0 
L 45.3125 8.40625 
Q 42.046875 3.421875 37.71875 1 
Q 33.40625 -1.421875 27.6875 -1.421875 
Q 18.265625 -1.421875 13.375 4.4375 
Q 8.5 10.296875 8.5 21.578125 
z
M 31.109375 56 
z
" id="DejaVuSans-117"/>
      <path d="M 37.109375 75.984375 
L 37.109375 68.5 
L 28.515625 68.5 
Q 23.6875 68.5 21.796875 66.546875 
Q 19.921875 64.59375 19.921875 59.515625 
L 19.921875 54.6875 
L 34.71875 54.6875 
L 34.71875 47.703125 
L 19.921875 47.703125 
L 19.921875 0 
L 10.890625 0 
L 10.890625 47.703125 
L 2.296875 47.703125 
L 2.296875 54.6875 
L 10.890625 54.6875 
L 10.890625 58.5 
Q 10.890625 67.625 15.140625 71.796875 
Q 19.390625 75.984375 28.609375 75.984375 
z
" id="DejaVuSans-102"/>
      <path d="M 4.203125 54.6875 
L 13.1875 54.6875 
L 24.421875 12.015625 
L 35.59375 54.6875 
L 46.1875 54.6875 
L 57.421875 12.015625 
L 68.609375 54.6875 
L 77.59375 54.6875 
L 63.28125 0 
L 52.6875 0 
L 40.921875 44.828125 
L 29.109375 0 
L 18.5 0 
z
" id="DejaVuSans-119"/>
      <path d="M 9.078125 75.984375 
L 18.109375 75.984375 
L 18.109375 31.109375 
L 44.921875 54.6875 
L 56.390625 54.6875 
L 27.390625 29.109375 
L 57.625 0 
L 45.90625 0 
L 18.109375 26.703125 
L 18.109375 0 
L 9.078125 0 
z
" id="DejaVuSans-107"/>
      <path d="M 54.890625 33.015625 
L 54.890625 0 
L 45.90625 0 
L 45.90625 32.71875 
Q 45.90625 40.484375 42.875 44.328125 
Q 39.84375 48.1875 33.796875 48.1875 
Q 26.515625 48.1875 22.3125 43.546875 
Q 18.109375 38.921875 18.109375 30.90625 
L 18.109375 0 
L 9.078125 0 
L 9.078125 75.984375 
L 18.109375 75.984375 
L 18.109375 46.1875 
Q 21.34375 51.125 25.703125 53.5625 
Q 30.078125 56 35.796875 56 
Q 45.21875 56 50.046875 50.171875 
Q 54.890625 44.34375 54.890625 33.015625 
z
" id="DejaVuSans-104"/>
      <path d="M 44.28125 53.078125 
L 44.28125 44.578125 
Q 40.484375 46.53125 36.375 47.5 
Q 32.28125 48.484375 27.875 48.484375 
Q 21.1875 48.484375 17.84375 46.4375 
Q 14.5 44.390625 14.5 40.28125 
Q 14.5 37.15625 16.890625 35.375 
Q 19.28125 33.59375 26.515625 31.984375 
L 29.59375 31.296875 
Q 39.15625 29.25 43.1875 25.515625 
Q 47.21875 21.78125 47.21875 15.09375 
Q 47.21875 7.46875 41.1875 3.015625 
Q 35.15625 -1.421875 24.609375 -1.421875 
Q 20.21875 -1.421875 15.453125 -0.5625 
Q 10.6875 0.296875 5.421875 2 
L 5.421875 11.28125 
Q 10.40625 8.6875 15.234375 7.390625 
Q 20.0625 6.109375 24.8125 6.109375 
Q 31.15625 6.109375 34.5625 8.28125 
Q 37.984375 10.453125 37.984375 14.40625 
Q 37.984375 18.0625 35.515625 20.015625 
Q 33.0625 21.96875 24.703125 23.78125 
L 21.578125 24.515625 
Q 13.234375 26.265625 9.515625 29.90625 
Q 5.8125 33.546875 5.8125 39.890625 
Q 5.8125 47.609375 11.28125 51.796875 
Q 16.75 56 26.8125 56 
Q 31.78125 56 36.171875 55.265625 
Q 40.578125 54.546875 44.28125 53.078125 
z
" id="DejaVuSans-115"/>
     </defs>
     <use xlink:href="#DejaVuSans-73"/>
     <use x="29.492188" xlink:href="#DejaVuSans-109"/>
     <use x="126.904297" xlink:href="#DejaVuSans-112"/>
     <use x="190.380859" xlink:href="#DejaVuSans-111"/>
     <use x="251.5625" xlink:href="#DejaVuSans-114"/>
     <use x="292.675781" xlink:href="#DejaVuSans-116"/>
     <use x="331.884766" xlink:href="#DejaVuSans-97"/>
     <use x="393.164062" xlink:href="#DejaVuSans-110"/>
     <use x="456.542969" xlink:href="#DejaVuSans-99"/>
     <use x="511.523438" xlink:href="#DejaVuSans-101"/>
     <use x="573.046875" xlink:href="#DejaVuSans-32"/>
     <use x="604.833984" xlink:href="#DejaVuSans-83"/>
     <use x="668.310547" xlink:href="#DejaVuSans-99"/>
     <use x="723.291016" xlink:href="#DejaVuSans-111"/>
     <use x="784.472656" xlink:href="#DejaVuSans-114"/>
     <use x="823.335938" xlink:href="#DejaVuSans-101"/>
     <use x="884.859375" xlink:href="#DejaVuSans-32"/>
     <use x="916.646484" xlink:href="#DejaVuSans-97"/>
     <use x="977.925781" xlink:href="#DejaVuSans-110"/>
     <use x="1041.304688" xlink:href="#DejaVuSans-100"/>
     <use x="1104.78125" xlink:href="#DejaVuSans-32"/>
     <use x="1136.568359" xlink:href="#DejaVuSans-82"/>
     <use x="1201.550781" xlink:href="#DejaVuSans-101"/>
     <use x="1263.074219" xlink:href="#DejaVuSans-108"/>
     <use x="1290.857422" xlink:href="#DejaVuSans-97"/>
     <use x="1352.136719" xlink:href="#DejaVuSans-116"/>
     <use x="1391.345703" xlink:href="#DejaVuSans-105"/>
     <use x="1419.128906" xlink:href="#DejaVuSans-118"/>
     <use x="1478.308594" xlink:href="#DejaVuSans-101"/>
     <use x="1539.832031" xlink:href="#DejaVuSans-32"/>
     <use x="1571.619141" xlink:href="#DejaVuSans-65"/>
     <use x="1640.027344" xlink:href="#DejaVuSans-98"/>
     <use x="1703.503906" xlink:href="#DejaVuSans-117"/>
     <use x="1766.882812" xlink:href="#DejaVuSans-110"/>
     <use x="1830.261719" xlink:href="#DejaVuSans-100"/>
     <use x="1893.738281" xlink:href="#DejaVuSans-97"/>
     <use x="1955.017578" xlink:href="#DejaVuSans-110"/>
     <use x="2018.396484" xlink:href="#DejaVuSans-99"/>
     <use x="2073.376953" xlink:href="#DejaVuSans-101"/>
     <use x="2134.900391" xlink:href="#DejaVuSans-32"/>
     <use x="2166.6875" xlink:href="#DejaVuSans-102"/>
     <use x="2201.892578" xlink:href="#DejaVuSans-111"/>
     <use x="2263.074219" xlink:href="#DejaVuSans-114"/>
     <use x="2304.1875" xlink:href="#DejaVuSans-32"/>
     <use x="2335.974609" xlink:href="#DejaVuSans-110"/>
     <use x="2399.353516" xlink:href="#DejaVuSans-101"/>
     <use x="2460.876953" xlink:href="#DejaVuSans-116"/>
     <use x="2500.085938" xlink:href="#DejaVuSans-119"/>
     <use x="2581.873047" xlink:href="#DejaVuSans-111"/>
     <use x="2643.054688" xlink:href="#DejaVuSans-114"/>
     <use x="2684.167969" xlink:href="#DejaVuSans-107"/>
     <use x="2742.078125" xlink:href="#DejaVuSans-32"/>
     <use x="2773.865234" xlink:href="#DejaVuSans-104"/>
     <use x="2837.244141" xlink:href="#DejaVuSans-115"/>
     <use x="2889.34375" xlink:href="#DejaVuSans-97"/>
     <use x="2950.623047" xlink:href="#DejaVuSans-48"/>
     <use x="3014.246094" xlink:href="#DejaVuSans-52"/>
     <use x="3077.869141" xlink:href="#DejaVuSans-57"/>
     <use x="3141.492188" xlink:href="#DejaVuSans-50"/>
     <use x="3205.115234" xlink:href="#DejaVuSans-54"/>
     <use x="3268.738281" xlink:href="#DejaVuSans-32"/>
     <use x="3300.525391" xlink:href="#DejaVuSans-102"/>
     <use x="3335.730469" xlink:href="#DejaVuSans-111"/>
     <use x="3396.912109" xlink:href="#DejaVuSans-114"/>
     <use x="3438.025391" xlink:href="#DejaVuSans-32"/>
     <use x="3469.8125" xlink:href="#DejaVuSans-100"/>
     <use x="3533.289062" xlink:href="#DejaVuSans-97"/>
     <use x="3594.568359" xlink:href="#DejaVuSans-116"/>
     <use x="3633.777344" xlink:href="#DejaVuSans-97"/>
     <use x="3695.056641" xlink:href="#DejaVuSans-115"/>
     <use x="3747.15625" xlink:href="#DejaVuSans-101"/>
     <use x="3808.679688" xlink:href="#DejaVuSans-116"/>
     <use x="3847.888672" xlink:href="#DejaVuSans-32"/>
     <use x="3879.675781" xlink:href="#DejaVuSans-97"/>
     <use x="3940.955078" xlink:href="#DejaVuSans-116"/>
     <use x="3980.164062" xlink:href="#DejaVuSans-104"/>
     <use x="4043.542969" xlink:href="#DejaVuSans-101"/>
     <use x="4105.066406" xlink:href="#DejaVuSans-114"/>
     <use x="4143.929688" xlink:href="#DejaVuSans-111"/>
     <use x="4205.111328" xlink:href="#DejaVuSans-115"/>
     <use x="4257.210938" xlink:href="#DejaVuSans-99"/>
     <use x="4312.191406" xlink:href="#DejaVuSans-108"/>
     <use x="4339.974609" xlink:href="#DejaVuSans-101"/>
     <use x="4401.498047" xlink:href="#DejaVuSans-114"/>
     <use x="4440.361328" xlink:href="#DejaVuSans-111"/>
     <use x="4501.542969" xlink:href="#DejaVuSans-115"/>
     <use x="4553.642578" xlink:href="#DejaVuSans-105"/>
     <use x="4581.425781" xlink:href="#DejaVuSans-115"/>
    </g>
   </g>
   <g id="legend_1">
    <g id="patch_42">
     <path d="M 803.859375 155.714375 
L 1029.8 155.714375 
Q 1031.8 155.714375 1031.8 153.714375 
L 1031.8 110.68 
Q 1031.8 108.68 1029.8 108.68 
L 803.859375 108.68 
Q 801.859375 108.68 801.859375 110.68 
L 801.859375 153.714375 
Q 801.859375 155.714375 803.859375 155.714375 
z
" style="fill:#ffffff;opacity:0.8;stroke:#cccccc;stroke-linejoin:miter;"/>
    </g>
    <g id="text_42">
     <!-- Relative Expression of AS+ compared to AS- -->
     <g transform="translate(805.859375 120.278437)scale(0.1 -0.1)">
      <defs>
       <path d="M 54.890625 54.6875 
L 35.109375 28.078125 
L 55.90625 0 
L 45.3125 0 
L 29.390625 21.484375 
L 13.484375 0 
L 2.875 0 
L 24.125 28.609375 
L 4.6875 54.6875 
L 15.28125 54.6875 
L 29.78125 35.203125 
L 44.28125 54.6875 
z
" id="DejaVuSans-120"/>
       <path d="M 46 62.703125 
L 46 35.5 
L 73.1875 35.5 
L 73.1875 27.203125 
L 46 27.203125 
L 46 0 
L 37.796875 0 
L 37.796875 27.203125 
L 10.59375 27.203125 
L 10.59375 35.5 
L 37.796875 35.5 
L 37.796875 62.703125 
z
" id="DejaVuSans-43"/>
       <path d="M 4.890625 31.390625 
L 31.203125 31.390625 
L 31.203125 23.390625 
L 4.890625 23.390625 
z
" id="DejaVuSans-45"/>
      </defs>
      <use xlink:href="#DejaVuSans-82"/>
      <use x="64.982422" xlink:href="#DejaVuSans-101"/>
      <use x="126.505859" xlink:href="#DejaVuSans-108"/>
      <use x="154.289062" xlink:href="#DejaVuSans-97"/>
      <use x="215.568359" xlink:href="#DejaVuSans-116"/>
      <use x="254.777344" xlink:href="#DejaVuSans-105"/>
      <use x="282.560547" xlink:href="#DejaVuSans-118"/>
      <use x="341.740234" xlink:href="#DejaVuSans-101"/>
      <use x="403.263672" xlink:href="#DejaVuSans-32"/>
      <use x="435.050781" xlink:href="#DejaVuSans-69"/>
      <use x="498.234375" xlink:href="#DejaVuSans-120"/>
      <use x="557.414062" xlink:href="#DejaVuSans-112"/>
      <use x="620.890625" xlink:href="#DejaVuSans-114"/>
      <use x="659.753906" xlink:href="#DejaVuSans-101"/>
      <use x="721.277344" xlink:href="#DejaVuSans-115"/>
      <use x="773.376953" xlink:href="#DejaVuSans-115"/>
      <use x="825.476562" xlink:href="#DejaVuSans-105"/>
      <use x="853.259766" xlink:href="#DejaVuSans-111"/>
      <use x="914.441406" xlink:href="#DejaVuSans-110"/>
      <use x="977.820312" xlink:href="#DejaVuSans-32"/>
      <use x="1009.607422" xlink:href="#DejaVuSans-111"/>
      <use x="1070.789062" xlink:href="#DejaVuSans-102"/>
      <use x="1105.994141" xlink:href="#DejaVuSans-32"/>
      <use x="1137.78125" xlink:href="#DejaVuSans-65"/>
      <use x="1206.189453" xlink:href="#DejaVuSans-83"/>
      <use x="1269.666016" xlink:href="#DejaVuSans-43"/>
      <use x="1353.455078" xlink:href="#DejaVuSans-32"/>
      <use x="1385.242188" xlink:href="#DejaVuSans-99"/>
      <use x="1440.222656" xlink:href="#DejaVuSans-111"/>
      <use x="1501.404297" xlink:href="#DejaVuSans-109"/>
      <use x="1598.816406" xlink:href="#DejaVuSans-112"/>
      <use x="1662.292969" xlink:href="#DejaVuSans-97"/>
      <use x="1723.572266" xlink:href="#DejaVuSans-114"/>
      <use x="1762.435547" xlink:href="#DejaVuSans-101"/>
      <use x="1823.958984" xlink:href="#DejaVuSans-100"/>
      <use x="1887.435547" xlink:href="#DejaVuSans-32"/>
      <use x="1919.222656" xlink:href="#DejaVuSans-116"/>
      <use x="1958.431641" xlink:href="#DejaVuSans-111"/>
      <use x="2019.613281" xlink:href="#DejaVuSans-32"/>
      <use x="2051.400391" xlink:href="#DejaVuSans-65"/>
      <use x="2119.808594" xlink:href="#DejaVuSans-83"/>
      <use x="2183.285156" xlink:href="#DejaVuSans-45"/>
     </g>
    </g>
    <g id="patch_43">
     <path d="M 829.136719 134.956562 
L 849.136719 134.956562 
L 849.136719 127.956562 
L 829.136719 127.956562 
z
" style="fill:#0000ff;stroke:#0000ff;stroke-linejoin:miter;"/>
    </g>
    <g id="text_43">
     <!-- Decreased expression in AS+ -->
     <g transform="translate(857.136719 134.956562)scale(0.1 -0.1)">
      <use xlink:href="#DejaVuSans-68"/>
      <use x="77.001953" xlink:href="#DejaVuSans-101"/>
      <use x="138.525391" xlink:href="#DejaVuSans-99"/>
      <use x="193.505859" xlink:href="#DejaVuSans-114"/>
      <use x="232.369141" xlink:href="#DejaVuSans-101"/>
      <use x="293.892578" xlink:href="#DejaVuSans-97"/>
      <use x="355.171875" xlink:href="#DejaVuSans-115"/>
      <use x="407.271484" xlink:href="#DejaVuSans-101"/>
      <use x="468.794922" xlink:href="#DejaVuSans-100"/>
      <use x="532.271484" xlink:href="#DejaVuSans-32"/>
      <use x="564.058594" xlink:href="#DejaVuSans-101"/>
      <use x="623.832031" xlink:href="#DejaVuSans-120"/>
      <use x="683.011719" xlink:href="#DejaVuSans-112"/>
      <use x="746.488281" xlink:href="#DejaVuSans-114"/>
      <use x="785.351562" xlink:href="#DejaVuSans-101"/>
      <use x="846.875" xlink:href="#DejaVuSans-115"/>
      <use x="898.974609" xlink:href="#DejaVuSans-115"/>
      <use x="951.074219" xlink:href="#DejaVuSans-105"/>
      <use x="978.857422" xlink:href="#DejaVuSans-111"/>
      <use x="1040.039062" xlink:href="#DejaVuSans-110"/>
      <use x="1103.417969" xlink:href="#DejaVuSans-32"/>
      <use x="1135.205078" xlink:href="#DejaVuSans-105"/>
      <use x="1162.988281" xlink:href="#DejaVuSans-110"/>
      <use x="1226.367188" xlink:href="#DejaVuSans-32"/>
      <use x="1258.154297" xlink:href="#DejaVuSans-65"/>
      <use x="1326.5625" xlink:href="#DejaVuSans-83"/>
      <use x="1390.039062" xlink:href="#DejaVuSans-43"/>
     </g>
    </g>
    <g id="patch_44">
     <path d="M 829.136719 149.634687 
L 849.136719 149.634687 
L 849.136719 142.634687 
L 829.136719 142.634687 
z
" style="fill:#ff0000;stroke:#ff0000;stroke-linejoin:miter;"/>
    </g>
    <g id="text_44">
     <!-- Increased expression in AS+ -->
     <g transform="translate(857.136719 149.634687)scale(0.1 -0.1)">
      <use xlink:href="#DejaVuSans-73"/>
      <use x="29.492188" xlink:href="#DejaVuSans-110"/>
      <use x="92.871094" xlink:href="#DejaVuSans-99"/>
      <use x="147.851562" xlink:href="#DejaVuSans-114"/>
      <use x="186.714844" xlink:href="#DejaVuSans-101"/>
      <use x="248.238281" xlink:href="#DejaVuSans-97"/>
      <use x="309.517578" xlink:href="#DejaVuSans-115"/>
      <use x="361.617188" xlink:href="#DejaVuSans-101"/>
      <use x="423.140625" xlink:href="#DejaVuSans-100"/>
      <use x="486.617188" xlink:href="#DejaVuSans-32"/>
      <use x="518.404297" xlink:href="#DejaVuSans-101"/>
      <use x="578.177734" xlink:href="#DejaVuSans-120"/>
      <use x="637.357422" xlink:href="#DejaVuSans-112"/>
      <use x="700.833984" xlink:href="#DejaVuSans-114"/>
      <use x="739.697266" xlink:href="#DejaVuSans-101"/>
      <use x="801.220703" xlink:href="#DejaVuSans-115"/>
      <use x="853.320312" xlink:href="#DejaVuSans-115"/>
      <use x="905.419922" xlink:href="#DejaVuSans-105"/>
      <use x="933.203125" xlink:href="#DejaVuSans-111"/>
      <use x="994.384766" xlink:href="#DejaVuSans-110"/>
      <use x="1057.763672" xlink:href="#DejaVuSans-32"/>
      <use x="1089.550781" xlink:href="#DejaVuSans-105"/>
      <use x="1117.333984" xlink:href="#DejaVuSans-110"/>
      <use x="1180.712891" xlink:href="#DejaVuSans-32"/>
      <use x="1212.5" xlink:href="#DejaVuSans-65"/>
      <use x="1280.908203" xlink:href="#DejaVuSans-83"/>
      <use x="1344.384766" xlink:href="#DejaVuSans-43"/>
     </g>
    </g>
   </g>
  </g>
 </g>
 <defs>
  <clipPath id="p217237b760">
   <rect height="665.28" width="892.8" x="144" y="103.68"/>
  </clipPath>
 </defs>
</svg>
