<?xml version="1.0" encoding="utf-8" standalone="no"?>
<!DOCTYPE svg PUBLIC "-//W3C//DTD SVG 1.1//EN"
  "http://www.w3.org/Graphics/SVG/1.1/DTD/svg11.dtd">
<!-- Created with matplotlib (https://matplotlib.org/) -->
<svg height="864pt" version="1.1" viewBox="0 0 1152 864" width="1152pt" xmlns="http://www.w3.org/2000/svg" xmlns:xlink="http://www.w3.org/1999/xlink">
 <metadata>
  <rdf:RDF xmlns:cc="http://creativecommons.org/ns#" xmlns:dc="http://purl.org/dc/elements/1.1/" xmlns:rdf="http://www.w3.org/1999/02/22-rdf-syntax-ns#">
   <cc:Work>
    <dc:type rdf:resource="http://purl.org/dc/dcmitype/StillImage"/>
    <dc:date>2024-04-26T11:32:16.683203</dc:date>
    <dc:format>image/svg+xml</dc:format>
    <dc:creator>
     <cc:Agent>
      <dc:title>Matplotlib v3.3.1, https://matplotlib.org/</dc:title>
     </cc:Agent>
    </dc:creator>
   </cc:Work>
  </rdf:RDF>
 </metadata>
 <defs>
  <style type="text/css">*{stroke-linecap:butt;stroke-linejoin:round;}</style>
 </defs>
 <g id="figure_1">
  <g id="patch_1">
   <path d="M 0 864 
L 1152 864 
L 1152 0 
L 0 0 
z
" style="fill:#ffffff;"/>
  </g>
  <g id="axes_1">
   <g id="patch_2">
    <path clip-path="url(#pec669a998b)" d="M 715.502184 246.527031 
Q 535.24649 225.770471 356.101491 205.14181 
" style="fill:none;stroke:#000000;stroke-linecap:round;"/>
    <path clip-path="url(#pec669a998b)" d="M 359.846443 207.586259 
L 356.101491 205.14181 
L 360.304022 203.612518 
L 359.846443 207.586259 
z
" style="stroke:#000000;stroke-linecap:round;"/>
   </g>
   <g id="patch_3">
    <path clip-path="url(#pec669a998b)" d="M 733.236589 248.844161 
Q 843.37461 264.94858 952.406361 280.89124 
" style="fill:none;stroke:#000000;stroke-linecap:round;"/>
    <path clip-path="url(#pec669a998b)" d="M 948.737812 278.333556 
L 952.406361 280.89124 
L 948.159084 282.291469 
L 948.737812 278.333556 
z
" style="stroke:#000000;stroke-linecap:round;"/>
   </g>
   <g id="patch_4">
    <path clip-path="url(#pec669a998b)" d="M 354.503303 443.474439 
Q 413.72934 462.518972 471.891016 481.221252 
" style="fill:none;stroke:#000000;stroke-linecap:round;"/>
    <path clip-path="url(#pec669a998b)" d="M 468.695283 478.092787 
L 471.891016 481.221252 
L 467.470804 481.900759 
L 468.695283 478.092787 
z
" style="stroke:#000000;stroke-linecap:round;"/>
   </g>
   <g id="patch_5">
    <path clip-path="url(#pec669a998b)" d="M 355.232902 438.611145 
Q 412.275392 437.707067 468.199988 436.820706 
" style="fill:none;stroke:#000000;stroke-linecap:round;"/>
    <path clip-path="url(#pec669a998b)" d="M 464.168796 434.884346 
L 468.199988 436.820706 
L 464.232185 438.883844 
L 464.168796 434.884346 
z
" style="stroke:#000000;stroke-linecap:round;"/>
   </g>
   <g id="patch_6">
    <path clip-path="url(#pec669a998b)" d="M 355.092619 440.882388 
Q 434.714957 451.689837 513.229421 462.346909 
" style="fill:none;stroke:#000000;stroke-linecap:round;"/>
    <path clip-path="url(#pec669a998b)" d="M 509.534768 459.82708 
L 513.229421 462.346909 
L 508.996766 463.790734 
L 509.534768 459.82708 
z
" style="stroke:#000000;stroke-linecap:round;"/>
   </g>
   <g id="patch_7">
    <path clip-path="url(#pec669a998b)" d="M 354.893344 442.035912 
Q 391.232734 449.87311 426.479217 457.474605 
" style="fill:none;stroke:#000000;stroke-linecap:round;"/>
    <path clip-path="url(#pec669a998b)" d="M 422.990757 454.676276 
L 426.479217 457.474605 
L 422.147478 458.586376 
L 422.990757 454.676276 
z
" style="stroke:#000000;stroke-linecap:round;"/>
   </g>
   <g id="patch_8">
    <path clip-path="url(#pec669a998b)" d="M 348.539625 451.395465 
Q 385.871298 507.043042 422.580105 561.762158 
" style="fill:none;stroke:#000000;stroke-linecap:round;"/>
    <path clip-path="url(#pec669a998b)" d="M 422.012553 557.326182 
L 422.580105 561.762158 
L 418.690793 559.554615 
L 422.012553 557.326182 
z
" style="stroke:#000000;stroke-linecap:round;"/>
   </g>
   <g id="patch_9">
    <path clip-path="url(#pec669a998b)" d="M 704.700597 617.810457 
Q 499.250954 628.791524 294.917752 639.71292 
" style="fill:none;stroke:#000000;stroke-linecap:round;"/>
    <path clip-path="url(#pec669a998b)" d="M 299.018796 641.496578 
L 294.917752 639.71292 
L 298.805305 637.502279 
L 299.018796 641.496578 
z
" style="stroke:#000000;stroke-linecap:round;"/>
   </g>
   <g id="patch_10">
    <path clip-path="url(#pec669a998b)" d="M 562.662452 686.287914 
Q 478.661612 682.674767 395.777772 679.109667 
" style="fill:none;stroke:#000000;stroke-linecap:round;"/>
    <path clip-path="url(#pec669a998b)" d="M 399.68813 681.279713 
L 395.777772 679.109667 
L 399.860024 677.283408 
L 399.68813 681.279713 
z
" style="stroke:#000000;stroke-linecap:round;"/>
   </g>
   <g id="patch_11">
    <path clip-path="url(#pec669a998b)" d="M 462.959612 364.34213 
Q 426.549633 518.713368 390.396311 671.996429 
" style="fill:none;stroke:#000000;stroke-linecap:round;"/>
    <path clip-path="url(#pec669a998b)" d="M 393.261144 668.562374 
L 390.396311 671.996429 
L 389.367967 667.644129 
L 393.261144 668.562374 
z
" style="stroke:#000000;stroke-linecap:round;"/>
   </g>
   <g id="patch_12">
    <path clip-path="url(#pec669a998b)" d="M 375.792169 299.441682 
Q 545.664646 274.154398 714.431275 249.031731 
" style="fill:none;stroke:#000000;stroke-linecap:round;"/>
    <path clip-path="url(#pec669a998b)" d="M 710.180395 247.642481 
L 714.431275 249.031731 
L 710.769347 251.598885 
L 710.180395 247.642481 
z
" style="stroke:#000000;stroke-linecap:round;"/>
   </g>
   <g id="patch_13">
    <path clip-path="url(#pec669a998b)" d="M 743.522616 530.462261 
Q 734.255833 393.467619 725.064505 257.588462 
" style="fill:none;stroke:#000000;stroke-linecap:round;"/>
    <path clip-path="url(#pec669a998b)" d="M 723.339022 261.71432 
L 725.064505 257.588462 
L 727.329902 261.444364 
L 723.339022 261.71432 
z
" style="stroke:#000000;stroke-linecap:round;"/>
   </g>
   <g id="patch_14">
    <path clip-path="url(#pec669a998b)" d="M 712.041635 167.212571 
Q 717.534353 202.96084 722.857278 237.604043 
" style="fill:none;stroke:#000000;stroke-linecap:round;"/>
    <path clip-path="url(#pec669a998b)" d="M 724.226609 233.346704 
L 722.857278 237.604043 
L 720.273006 233.954175 
L 724.226609 233.346704 
z
" style="stroke:#000000;stroke-linecap:round;"/>
   </g>
   <g id="patch_15">
    <path clip-path="url(#pec669a998b)" d="M 476.115762 488.750866 
Q 433.679182 581.110468 391.70939 672.454144 
" style="fill:none;stroke:#000000;stroke-linecap:round;"/>
    <path clip-path="url(#pec669a998b)" d="M 395.196772 669.654471 
L 391.70939 672.454144 
L 391.56208 667.984434 
L 395.196772 669.654471 
z
" style="stroke:#000000;stroke-linecap:round;"/>
   </g>
   <g id="patch_16">
    <path clip-path="url(#pec669a998b)" d="M 472.697468 482.813982 
Q 349.982028 471.140878 228.379597 459.573648 
" style="fill:none;stroke:#000000;stroke-linecap:round;"/>
    <path clip-path="url(#pec669a998b)" d="M 232.17223 461.943444 
L 228.379597 459.573648 
L 232.551014 457.961419 
L 232.17223 461.943444 
z
" style="stroke:#000000;stroke-linecap:round;"/>
   </g>
   <g id="patch_17">
    <path clip-path="url(#pec669a998b)" d="M 473.811194 479.881579 
Q 355.823567 393.582694 238.73835 307.943853 
" style="fill:none;stroke:#000000;stroke-linecap:round;"/>
    <path clip-path="url(#pec669a998b)" d="M 240.786187 311.919575 
L 238.73835 307.943853 
L 243.147629 308.691016 
L 240.786187 311.919575 
z
" style="stroke:#000000;stroke-linecap:round;"/>
   </g>
   <g id="patch_18">
    <path clip-path="url(#pec669a998b)" d="M 478.905466 489.281206 
Q 484.746192 597.351091 490.526581 704.304571 
" style="fill:none;stroke:#000000;stroke-linecap:round;"/>
    <path clip-path="url(#pec669a998b)" d="M 492.307799 700.202466 
L 490.526581 704.304571 
L 488.313628 700.418335 
L 492.307799 700.202466 
z
" style="stroke:#000000;stroke-linecap:round;"/>
   </g>
   <g id="patch_19">
    <path clip-path="url(#pec669a998b)" d="M 483.273204 479.765196 
Q 661.57065 342.477676 838.982241 205.872256 
" style="fill:none;stroke:#000000;stroke-linecap:round;"/>
    <path clip-path="url(#pec669a998b)" d="M 834.592732 206.727949 
L 838.982241 205.872256 
L 837.033089 209.897279 
L 834.592732 206.727949 
z
" style="stroke:#000000;stroke-linecap:round;"/>
   </g>
   <g id="patch_20">
    <path clip-path="url(#pec669a998b)" d="M 474.230272 443.693277 
Q 432.513091 558.490533 391.17777 672.236987 
" style="fill:none;stroke:#000000;stroke-linecap:round;"/>
    <path clip-path="url(#pec669a998b)" d="M 394.423684 669.160618 
L 391.17777 672.236987 
L 390.664223 667.794435 
L 394.423684 669.160618 
z
" style="stroke:#000000;stroke-linecap:round;"/>
   </g>
   <g id="patch_21">
    <path clip-path="url(#pec669a998b)" d="M 469.348226 437.331684 
Q 348.306619 447.872115 228.378831 458.315554 
" style="fill:none;stroke:#000000;stroke-linecap:round;"/>
    <path clip-path="url(#pec669a998b)" d="M 232.537256 459.961002 
L 228.378831 458.315554 
L 232.190245 455.976083 
L 232.537256 459.961002 
z
" style="stroke:#000000;stroke-linecap:round;"/>
   </g>
   <g id="patch_22">
    <path clip-path="url(#pec669a998b)" d="M 470.230622 433.115501 
Q 354.237159 369.874203 239.225313 307.168096 
" style="fill:none;stroke:#000000;stroke-linecap:round;"/>
    <path clip-path="url(#pec669a998b)" d="M 241.77987 310.838822 
L 239.225313 307.168096 
L 243.694629 307.326886 
L 241.77987 310.838822 
z
" style="stroke:#000000;stroke-linecap:round;"/>
   </g>
   <g id="patch_23">
    <path clip-path="url(#pec669a998b)" d="M 477.160549 444.137377 
Q 483.881303 574.779443 490.544617 704.304951 
" style="fill:none;stroke:#000000;stroke-linecap:round;"/>
    <path clip-path="url(#pec669a998b)" d="M 492.336471 700.207482 
L 490.544617 704.304951 
L 488.341754 700.412986 
L 492.336471 700.207482 
z
" style="stroke:#000000;stroke-linecap:round;"/>
   </g>
   <g id="patch_24">
    <path clip-path="url(#pec669a998b)" d="M 483.06392 432.666096 
Q 661.321289 318.719195 838.636639 205.374456 
" style="fill:none;stroke:#000000;stroke-linecap:round;"/>
    <path clip-path="url(#pec669a998b)" d="M 834.189188 205.843688 
L 838.636639 205.374456 
L 836.343554 209.213957 
L 834.189188 205.843688 
z
" style="stroke:#000000;stroke-linecap:round;"/>
   </g>
   <g id="patch_25">
    <path clip-path="url(#pec669a998b)" d="M 517.066889 468.240853 
Q 454.45786 571.013993 392.430498 672.832323 
" style="fill:none;stroke:#000000;stroke-linecap:round;"/>
    <path clip-path="url(#pec669a998b)" d="M 396.219551 670.456807 
L 392.430498 672.832323 
L 392.803517 668.375771 
L 396.219551 670.456807 
z
" style="stroke:#000000;stroke-linecap:round;"/>
   </g>
   <g id="patch_26">
    <path clip-path="url(#pec669a998b)" d="M 514.280598 463.193293 
Q 370.783837 461.097495 228.404992 459.018024 
" style="fill:none;stroke:#000000;stroke-linecap:round;"/>
    <path clip-path="url(#pec669a998b)" d="M 232.375358 461.076225 
L 228.404992 459.018024 
L 232.433772 457.076651 
L 232.375358 461.076225 
z
" style="stroke:#000000;stroke-linecap:round;"/>
   </g>
   <g id="patch_27">
    <path clip-path="url(#pec669a998b)" d="M 515.013385 460.457518 
Q 376.619639 383.56672 239.203215 307.218917 
" style="fill:none;stroke:#000000;stroke-linecap:round;"/>
    <path clip-path="url(#pec669a998b)" d="M 241.728448 310.909879 
L 239.203215 307.218917 
L 243.671124 307.413307 
L 241.728448 310.909879 
z
" style="stroke:#000000;stroke-linecap:round;"/>
   </g>
   <g id="patch_28">
    <path clip-path="url(#pec669a998b)" d="M 519.410929 469.047876 
Q 505.495852 587.250534 491.711489 704.342827 
" style="fill:none;stroke:#000000;stroke-linecap:round;"/>
    <path clip-path="url(#pec669a998b)" d="M 494.165432 700.604089 
L 491.711489 704.342827 
L 490.192864 700.136429 
L 494.165432 700.604089 
z
" style="stroke:#000000;stroke-linecap:round;"/>
   </g>
   <g id="patch_29">
    <path clip-path="url(#pec669a998b)" d="M 524.611773 459.631197 
Q 682.281681 332.461298 839.081342 205.993304 
" style="fill:none;stroke:#000000;stroke-linecap:round;"/>
    <path clip-path="url(#pec669a998b)" d="M 834.712247 206.947769 
L 839.081342 205.993304 
L 837.223457 210.061259 
L 834.712247 206.947769 
z
" style="stroke:#000000;stroke-linecap:round;"/>
   </g>
   <g id="patch_30">
    <path clip-path="url(#pec669a998b)" d="M 432.043649 464.532386 
Q 410.99836 568.788577 390.174297 671.948839 
" style="fill:none;stroke:#000000;stroke-linecap:round;"/>
    <path clip-path="url(#pec669a998b)" d="M 392.926234 668.423667 
L 390.174297 671.948839 
L 389.005321 667.632186 
L 392.926234 668.423667 
z
" style="stroke:#000000;stroke-linecap:round;"/>
   </g>
   <g id="patch_31">
    <path clip-path="url(#pec669a998b)" d="M 427.449405 458.918982 
Q 327.370674 458.917922 228.409977 458.916874 
" style="fill:none;stroke:#000000;stroke-linecap:round;"/>
    <path clip-path="url(#pec669a998b)" d="M 232.409955 460.916916 
L 228.409977 458.916874 
L 232.409998 456.916916 
L 232.409955 460.916916 
z
" style="stroke:#000000;stroke-linecap:round;"/>
   </g>
   <g id="patch_32">
    <path clip-path="url(#pec669a998b)" d="M 428.650323 455.410106 
Q 333.193934 381.411485 238.621167 308.097855 
" style="fill:none;stroke:#000000;stroke-linecap:round;"/>
    <path clip-path="url(#pec669a998b)" d="M 240.557158 312.129224 
L 238.621167 308.097855 
L 243.007857 308.967883 
L 240.557158 312.129224 
z
" style="stroke:#000000;stroke-linecap:round;"/>
   </g>
   <g id="patch_33">
    <path clip-path="url(#pec669a998b)" d="M 434.454805 464.505314 
Q 462.029687 585.034261 489.355225 704.473333 
" style="fill:none;stroke:#000000;stroke-linecap:round;"/>
    <path clip-path="url(#pec669a998b)" d="M 490.412773 700.128038 
L 489.355225 704.473333 
L 486.513517 701.020118 
L 490.412773 700.128038 
z
" style="stroke:#000000;stroke-linecap:round;"/>
   </g>
   <g id="patch_34">
    <path clip-path="url(#pec669a998b)" d="M 438.031226 455.882465 
Q 638.791167 330.302423 838.60324 205.315294 
" style="fill:none;stroke:#000000;stroke-linecap:round;"/>
    <path clip-path="url(#pec669a998b)" d="M 834.151409 205.740969 
L 838.60324 205.315294 
L 836.272681 209.132164 
L 834.151409 205.740969 
z
" style="stroke:#000000;stroke-linecap:round;"/>
   </g>
   <g id="patch_35">
    <path clip-path="url(#pec669a998b)" d="M 434.356879 569.114516 
Q 655.772955 583.533106 876.073361 597.879045 
" style="fill:none;stroke:#000000;stroke-linecap:round;"/>
    <path clip-path="url(#pec669a998b)" d="M 872.21178 595.623343 
L 876.073361 597.879045 
L 871.951851 599.614888 
L 872.21178 595.623343 
z
" style="stroke:#000000;stroke-linecap:round;"/>
   </g>
   <g id="patch_36">
    <path clip-path="url(#pec669a998b)" d="M 596.669961 385.299361 
Q 475.793486 410.531024 356.011455 435.534235 
" style="fill:none;stroke:#000000;stroke-linecap:round;"/>
    <path clip-path="url(#pec669a998b)" d="M 360.335729 436.674697 
L 356.011455 435.534235 
L 359.518389 432.759092 
L 360.335729 436.674697 
z
" style="stroke:#000000;stroke-linecap:round;"/>
   </g>
   <g id="patch_37">
    <path clip-path="url(#pec669a998b)" d="M 597.903389 387.916824 
Q 540.555188 433.797103 484.080012 478.978936 
" style="fill:none;stroke:#000000;stroke-linecap:round;"/>
    <path clip-path="url(#pec669a998b)" d="M 488.45286 478.041813 
L 484.080012 478.978936 
L 485.954023 474.918384 
L 488.45286 478.041813 
z
" style="stroke:#000000;stroke-linecap:round;"/>
   </g>
   <g id="patch_38">
    <path clip-path="url(#pec669a998b)" d="M 597.025137 386.426213 
Q 540.341469 410.11758 484.689359 433.3778 
" style="fill:none;stroke:#000000;stroke-linecap:round;"/>
    <path clip-path="url(#pec669a998b)" d="M 489.151233 433.680587 
L 484.689359 433.3778 
L 487.608713 429.989973 
L 489.151233 433.680587 
z
" style="stroke:#000000;stroke-linecap:round;"/>
   </g>
   <g id="patch_39">
    <path clip-path="url(#pec669a998b)" d="M 598.271957 388.334424 
Q 561.277086 423.797065 525.089322 458.486028 
" style="fill:none;stroke:#000000;stroke-linecap:round;"/>
    <path clip-path="url(#pec669a998b)" d="M 529.360913 457.161828 
L 525.089322 458.486028 
L 526.592916 454.274235 
L 529.360913 457.161828 
z
" style="stroke:#000000;stroke-linecap:round;"/>
   </g>
   <g id="patch_40">
    <path clip-path="url(#pec669a998b)" d="M 597.075118 386.539914 
Q 517.745624 421.572601 439.438876 456.153633 
" style="fill:none;stroke:#000000;stroke-linecap:round;"/>
    <path clip-path="url(#pec669a998b)" d="M 443.905906 456.367288 
L 439.438876 456.153633 
L 442.290018 452.708202 
L 443.905906 456.367288 
z
" style="stroke:#000000;stroke-linecap:round;"/>
   </g>
   <g id="patch_41">
    <path clip-path="url(#pec669a998b)" d="M 382.8189 374.287329 
Q 365.63949 400.265933 349.076778 425.311969 
" style="fill:none;stroke:#000000;stroke-linecap:round;"/>
    <path clip-path="url(#pec669a998b)" d="M 352.951374 423.078696 
L 349.076778 425.311969 
L 349.614918 420.872328 
L 352.951374 423.078696 
z
" style="stroke:#000000;stroke-linecap:round;"/>
   </g>
   <g id="patch_42">
    <path clip-path="url(#pec669a998b)" d="M 389.977533 373.945919 
Q 432.420085 426.360794 474.159058 477.906776 
" style="fill:none;stroke:#000000;stroke-linecap:round;"/>
    <path clip-path="url(#pec669a998b)" d="M 473.196178 473.539527 
L 474.159058 477.906776 
L 470.087531 476.056731 
L 473.196178 473.539527 
z
" style="stroke:#000000;stroke-linecap:round;"/>
   </g>
   <g id="patch_43">
    <path clip-path="url(#pec669a998b)" d="M 391.020049 372.849721 
Q 430.90595 402.539601 469.895005 431.561896 
" style="fill:none;stroke:#000000;stroke-linecap:round;"/>
    <path clip-path="url(#pec669a998b)" d="M 467.880567 427.569148 
L 469.895005 431.561896 
L 465.492144 430.777798 
L 467.880567 427.569148 
z
" style="stroke:#000000;stroke-linecap:round;"/>
   </g>
   <g id="patch_44">
    <path clip-path="url(#pec669a998b)" d="M 391.119037 372.714345 
Q 453.229289 416.328298 514.424559 459.299749 
" style="fill:none;stroke:#000000;stroke-linecap:round;"/>
    <path clip-path="url(#pec669a998b)" d="M 512.300364 455.364296 
L 514.424559 459.299749 
L 510.001679 458.637833 
L 512.300364 455.364296 
z
" style="stroke:#000000;stroke-linecap:round;"/>
   </g>
   <g id="patch_45">
    <path clip-path="url(#pec669a998b)" d="M 388.974922 374.600258 
Q 409.74647 414.223757 429.998921 452.857034 
" style="fill:none;stroke:#000000;stroke-linecap:round;"/>
    <path clip-path="url(#pec669a998b)" d="M 429.913106 448.385722 
L 429.998921 452.857034 
L 426.370382 450.242899 
L 429.913106 448.385722 
z
" style="stroke:#000000;stroke-linecap:round;"/>
   </g>
   <g id="patch_46">
    <path clip-path="url(#pec669a998b)" d="M 585.748357 433.360466 
Q 470.490038 435.936695 356.349473 438.487939 
" style="fill:none;stroke:#000000;stroke-linecap:round;"/>
    <path clip-path="url(#pec669a998b)" d="M 360.393166 440.398055 
L 356.349473 438.487939 
L 360.303781 436.399054 
L 360.393166 440.398055 
z
" style="stroke:#000000;stroke-linecap:round;"/>
   </g>
   <g id="patch_47">
    <path clip-path="url(#pec669a998b)" d="M 586.617141 437.40855 
Q 535.323221 459.233367 485.058082 480.620453 
" style="fill:none;stroke:#000000;stroke-linecap:round;"/>
    <path clip-path="url(#pec669a998b)" d="M 489.5218 480.894717 
L 485.058082 480.620453 
L 487.955724 477.214037 
L 489.5218 480.894717 
z
" style="stroke:#000000;stroke-linecap:round;"/>
   </g>
   <g id="patch_48">
    <path clip-path="url(#pec669a998b)" d="M 585.752581 433.441535 
Q 534.991277 434.952248 485.347513 436.429702 
" style="fill:none;stroke:#000000;stroke-linecap:round;"/>
    <path clip-path="url(#pec669a998b)" d="M 489.405239 438.309825 
L 485.347513 436.429702 
L 489.286247 434.311595 
L 489.405239 438.309825 
z
" style="stroke:#000000;stroke-linecap:round;"/>
   </g>
   <g id="patch_49">
    <path clip-path="url(#pec669a998b)" d="M 586.505478 437.131622 
Q 555.999587 449.141244 526.534016 460.741311 
" style="fill:none;stroke:#000000;stroke-linecap:round;"/>
    <path clip-path="url(#pec669a998b)" d="M 530.98861 461.137022 
L 526.534016 460.741311 
L 529.523341 457.415062 
L 530.98861 461.137022 
z
" style="stroke:#000000;stroke-linecap:round;"/>
   </g>
   <g id="patch_50">
    <path clip-path="url(#pec669a998b)" d="M 585.879872 434.82392 
Q 512.359347 446.424772 439.943193 457.851364 
" style="fill:none;stroke:#000000;stroke-linecap:round;"/>
    <path clip-path="url(#pec669a998b)" d="M 444.206032 459.203473 
L 439.943193 457.851364 
L 443.582583 455.252358 
L 444.206032 459.203473 
z
" style="stroke:#000000;stroke-linecap:round;"/>
   </g>
   <g id="patch_51">
    <path clip-path="url(#pec669a998b)" d="M 508.578031 353.842471 
Q 431.094379 392.943544 354.608869 431.540918 
" style="fill:none;stroke:#000000;stroke-linecap:round;"/>
    <path clip-path="url(#pec669a998b)" d="M 359.080975 431.524361 
L 354.608869 431.540918 
L 357.278887 427.953299 
L 359.080975 431.524361 
z
" style="stroke:#000000;stroke-linecap:round;"/>
   </g>
   <g id="patch_52">
    <path clip-path="url(#pec669a998b)" d="M 515.191039 359.362253 
Q 497.725886 418.531681 480.577245 476.628813 
" style="fill:none;stroke:#000000;stroke-linecap:round;"/>
    <path clip-path="url(#pec669a998b)" d="M 483.627815 473.358641 
L 480.577245 476.628813 
L 479.791449 472.226254 
L 483.627815 473.358641 
z
" style="stroke:#000000;stroke-linecap:round;"/>
   </g>
   <g id="patch_53">
    <path clip-path="url(#pec669a998b)" d="M 513.625409 358.762053 
Q 496.795289 394.352576 480.443122 428.932377 
" style="fill:none;stroke:#000000;stroke-linecap:round;"/>
    <path clip-path="url(#pec669a998b)" d="M 483.961134 426.171292 
L 480.443122 428.932377 
L 480.345061 424.461316 
L 483.961134 426.171292 
z
" style="stroke:#000000;stroke-linecap:round;"/>
   </g>
   <g id="patch_54">
    <path clip-path="url(#pec669a998b)" d="M 518.436299 359.801988 
Q 519.216818 408.63643 519.97947 456.352981 
" style="fill:none;stroke:#000000;stroke-linecap:round;"/>
    <path clip-path="url(#pec669a998b)" d="M 521.915291 452.32153 
L 519.97947 456.352981 
L 517.915802 452.385454 
L 521.915291 452.32153 
z
" style="stroke:#000000;stroke-linecap:round;"/>
   </g>
   <g id="patch_55">
    <path clip-path="url(#pec669a998b)" d="M 511.623366 357.535981 
Q 474.153671 405.961182 437.368169 453.502144 
" style="fill:none;stroke:#000000;stroke-linecap:round;"/>
    <path clip-path="url(#pec669a998b)" d="M 441.397789 451.562514 
L 437.368169 453.502144 
L 438.234237 449.11467 
L 441.397789 451.562514 
z
" style="stroke:#000000;stroke-linecap:round;"/>
   </g>
   <g id="patch_56">
    <path clip-path="url(#pec669a998b)" d="M 606.541549 482.350156 
Q 480.790306 461.818034 356.142485 441.466074 
" style="fill:none;stroke:#000000;stroke-linecap:round;"/>
    <path clip-path="url(#pec669a998b)" d="M 359.767926 444.084504 
L 356.142485 441.466074 
L 360.412494 440.136779 
L 359.767926 444.084504 
z
" style="stroke:#000000;stroke-linecap:round;"/>
   </g>
   <g id="patch_57">
    <path clip-path="url(#pec669a998b)" d="M 606.338088 484.730716 
Q 545.419298 484.083829 485.618479 483.448813 
" style="fill:none;stroke:#000000;stroke-linecap:round;"/>
    <path clip-path="url(#pec669a998b)" d="M 489.597017 485.491174 
L 485.618479 483.448813 
L 489.63949 481.491399 
L 489.597017 485.491174 
z
" style="stroke:#000000;stroke-linecap:round;"/>
   </g>
   <g id="patch_58">
    <path clip-path="url(#pec669a998b)" d="M 607.141474 479.920975 
Q 545.498105 459.476533 484.915928 439.384044 
" style="fill:none;stroke:#000000;stroke-linecap:round;"/>
    <path clip-path="url(#pec669a998b)" d="M 488.082976 442.541544 
L 484.915928 439.384044 
L 489.342157 438.744906 
L 488.082976 442.541544 
z
" style="stroke:#000000;stroke-linecap:round;"/>
   </g>
   <g id="patch_59">
    <path clip-path="url(#pec669a998b)" d="M 606.679598 481.62137 
Q 566.226885 473.051812 526.867934 464.713957 
" style="fill:none;stroke:#000000;stroke-linecap:round;"/>
    <path clip-path="url(#pec669a998b)" d="M 530.366608 467.499505 
L 526.867934 464.713957 
L 531.195577 463.586347 
L 530.366608 467.499505 
z
" style="stroke:#000000;stroke-linecap:round;"/>
   </g>
   <g id="patch_60">
    <path clip-path="url(#pec669a998b)" d="M 606.483835 482.744887 
Q 522.669124 471.22224 439.962029 459.851865 
" style="fill:none;stroke:#000000;stroke-linecap:round;"/>
    <path clip-path="url(#pec669a998b)" d="M 443.652363 462.378015 
L 439.962029 459.851865 
L 444.197149 458.415288 
L 443.652363 462.378015 
z
" style="stroke:#000000;stroke-linecap:round;"/>
   </g>
   <g id="patch_61">
    <path clip-path="url(#pec669a998b)" d="M 269.397513 593.699714 
Q 326.701504 634.549248 383.095098 674.749799 
" style="fill:none;stroke:#000000;stroke-linecap:round;"/>
    <path clip-path="url(#pec669a998b)" d="M 380.998899 670.799362 
L 383.095098 674.749799 
L 378.677029 674.056496 
L 380.998899 670.799362 
z
" style="stroke:#000000;stroke-linecap:round;"/>
   </g>
   <g id="patch_62">
    <path clip-path="url(#pec669a998b)" d="M 689.78413 707.330144 
Q 542.214724 693.347049 395.758366 679.469422 
" style="fill:none;stroke:#000000;stroke-linecap:round;"/>
    <path clip-path="url(#pec669a998b)" d="M 399.551862 681.837837 
L 395.758366 679.469422 
L 399.929196 677.855675 
L 399.551862 681.837837 
z
" style="stroke:#000000;stroke-linecap:round;"/>
   </g>
   <g id="PathCollection_1">
    <path clip-path="url(#pec669a998b)" d="M 724.385466 256.494218 
C 726.757514 256.494218 729.032729 255.551793 730.710021 253.874502 
C 732.387313 252.19721 733.329738 249.921995 733.329738 247.549946 
C 733.329738 245.177898 732.387313 242.902683 730.710021 241.225391 
C 729.032729 239.548099 726.757514 238.605674 724.385466 238.605674 
C 722.013417 238.605674 719.738202 239.548099 718.06091 241.225391 
C 716.383619 242.902683 715.441194 245.177898 715.441194 247.549946 
C 715.441194 249.921995 716.383619 252.19721 718.06091 253.874502 
C 719.738202 255.551793 722.013417 256.494218 724.385466 256.494218 
z
" style="fill:#dfdbd9;stroke:#dfdbd9;"/>
    <path clip-path="url(#pec669a998b)" d="M 340.123798 453.959309 
C 344.130672 453.959309 347.973973 452.367362 350.807261 449.534074 
C 353.640548 446.700787 355.232496 442.857485 355.232496 438.850612 
C 355.232496 434.843739 353.640548 431.000437 350.807261 428.16715 
C 347.973973 425.333863 344.130672 423.741915 340.123798 423.741915 
C 336.116925 423.741915 332.273624 425.333863 329.440336 428.16715 
C 326.607049 431.000437 325.015101 434.843739 325.015101 438.850612 
C 325.015101 442.857485 326.607049 446.700787 329.440336 449.534074 
C 332.273624 452.367362 336.116925 453.959309 340.123798 453.959309 
z
" style="fill:#8caffe;stroke:#8caffe;"/>
    <path clip-path="url(#pec669a998b)" d="M 882.803511 603.941932 
C 884.295178 603.941932 885.725951 603.349287 886.780718 602.294519 
C 887.835486 601.239751 888.428132 599.808978 888.428132 598.317311 
C 888.428132 596.825644 887.835486 595.394871 886.780718 594.340103 
C 885.725951 593.285336 884.295178 592.69269 882.803511 592.69269 
C 881.311844 592.69269 879.881071 593.285336 878.826303 594.340103 
C 877.771535 595.394871 877.178889 596.825644 877.178889 598.317311 
C 877.178889 599.808978 877.771535 601.239751 878.826303 602.294519 
C 879.881071 603.349287 881.311844 603.941932 882.803511 603.941932 
z
" style="fill:#cad8ef;stroke:#cad8ef;"/>
    <path clip-path="url(#pec669a998b)" d="M 712.013308 624.743285 
C 713.955572 624.743285 715.818547 623.971615 717.191935 622.598227 
C 718.565323 621.224839 719.336993 619.361864 719.336993 617.4196 
C 719.336993 615.477336 718.565323 613.614361 717.191935 612.240973 
C 715.818547 610.867585 713.955572 610.095915 712.013308 610.095915 
C 710.071044 610.095915 708.208068 610.867585 706.83468 612.240973 
C 705.461292 613.614361 704.689622 615.477336 704.689622 617.4196 
C 704.689622 619.361864 705.461292 621.224839 706.83468 622.598227 
C 708.208068 623.971615 710.071044 624.743285 712.013308 624.743285 
z
" style="fill:#bbd1f8;stroke:#bbd1f8;"/>
    <path clip-path="url(#pec669a998b)" d="M 288.089565 645.798655 
C 289.606733 645.798655 291.061965 645.195878 292.134764 644.123078 
C 293.207564 643.050279 293.810341 641.595046 293.810341 640.077879 
C 293.810341 638.560712 293.207564 637.105479 292.134764 636.03268 
C 291.061965 634.959881 289.606733 634.357104 288.089565 634.357104 
C 286.572398 634.357104 285.117165 634.959881 284.044366 636.03268 
C 282.971567 637.105479 282.36879 638.560712 282.36879 640.077879 
C 282.36879 641.595046 282.971567 643.050279 284.044366 644.123078 
C 285.117165 645.195878 286.572398 645.798655 288.089565 645.798655 
z
" style="fill:#cbd8ee;stroke:#cbd8ee;"/>
    <path clip-path="url(#pec669a998b)" d="M 221.47438 464.732141 
C 223.016626 464.732141 224.495914 464.1194 225.586447 463.028867 
C 226.676979 461.938334 227.28972 460.459047 227.28972 458.916801 
C 227.28972 457.374554 226.676979 455.895267 225.586447 454.804734 
C 224.495914 453.714201 223.016626 453.10146 221.47438 453.10146 
C 219.932134 453.10146 218.452846 453.714201 217.362314 454.804734 
C 216.271781 455.895267 215.65904 457.374554 215.65904 458.916801 
C 215.65904 460.459047 216.271781 461.938334 217.362314 463.028867 
C 218.452846 464.1194 219.932134 464.732141 221.47438 464.732141 
z
" style="fill:#dfdbd9;stroke:#dfdbd9;"/>
    <path clip-path="url(#pec669a998b)" d="M 233.146474 309.661344 
C 234.686646 309.661344 236.163944 309.049428 237.25301 307.960362 
C 238.342076 306.871296 238.953993 305.393998 238.953993 303.853826 
C 238.953993 302.313654 238.342076 300.836356 237.25301 299.74729 
C 236.163944 298.658224 234.686646 298.046307 233.146474 298.046307 
C 231.606302 298.046307 230.129004 298.658224 229.039938 299.74729 
C 227.950872 300.836356 227.338955 302.313654 227.338955 303.853826 
C 227.338955 305.393998 227.950872 306.871296 229.039938 307.960362 
C 230.129004 309.049428 231.606302 309.661344 233.146474 309.661344 
z
" style="fill:#b7cff9;stroke:#b7cff9;"/>
    <path clip-path="url(#pec669a998b)" d="M 490.900823 717.044431 
C 492.443069 717.044431 493.922356 716.43169 495.012889 715.341157 
C 496.103422 714.250625 496.716163 712.771337 496.716163 711.229091 
C 496.716163 709.686845 496.103422 708.207557 495.012889 707.117024 
C 493.922356 706.026492 492.443069 705.413751 490.900823 705.413751 
C 489.358576 705.413751 487.879289 706.026492 486.788756 707.117024 
C 485.698223 708.207557 485.085483 709.686845 485.085483 711.229091 
C 485.085483 712.771337 485.698223 714.250625 486.788756 715.341157 
C 487.879289 716.43169 489.358576 717.044431 490.900823 717.044431 
z
" style="fill:#dedcdb;stroke:#dedcdb;"/>
    <path clip-path="url(#pec669a998b)" d="M 388.789481 684.686616 
C 390.348222 684.686616 391.843331 684.067321 392.945528 682.965125 
C 394.047724 681.862928 394.667019 680.367819 394.667019 678.809078 
C 394.667019 677.250336 394.047724 675.755227 392.945528 674.653031 
C 391.843331 673.550834 390.348222 672.93154 388.789481 672.93154 
C 387.230739 672.93154 385.73563 673.550834 384.633433 674.653031 
C 383.531237 675.755227 382.911942 677.250336 382.911942 678.809078 
C 382.911942 680.367819 383.531237 681.862928 384.633433 682.965125 
C 385.73563 684.067321 387.230739 684.686616 388.789481 684.686616 
z
" style="fill:#9fbfff;stroke:#9fbfff;"/>
    <path clip-path="url(#pec669a998b)" d="M 567.659884 691.50287 
C 568.9859 691.50287 570.257784 690.976038 571.195418 690.038404 
C 572.133053 689.100769 572.659884 687.828885 572.659884 686.50287 
C 572.659884 685.176854 572.133053 683.90497 571.195418 682.967336 
C 570.257784 682.029701 568.9859 681.50287 567.659884 681.50287 
C 566.333869 681.50287 565.061985 682.029701 564.12435 682.967336 
C 563.186716 683.90497 562.659884 685.176854 562.659884 686.50287 
C 562.659884 687.828885 563.186716 689.100769 564.12435 690.038404 
C 565.061985 690.976038 566.333869 691.50287 567.659884 691.50287 
z
" style="fill:#dddcdc;stroke:#dddcdc;"/>
    <path clip-path="url(#pec669a998b)" d="M 464.300199 364.497043 
C 465.848651 364.497043 467.333892 363.881837 468.428813 362.786915 
C 469.523734 361.691994 470.138941 360.206754 470.138941 358.658301 
C 470.138941 357.109849 469.523734 355.624608 468.428813 354.529687 
C 467.333892 353.434766 465.848651 352.819559 464.300199 352.819559 
C 462.751746 352.819559 461.266506 353.434766 460.171585 354.529687 
C 459.076664 355.624608 458.461457 357.109849 458.461457 358.658301 
C 458.461457 360.206754 459.076664 361.691994 460.171585 362.786915 
C 461.266506 363.881837 462.751746 364.497043 464.300199 364.497043 
z
" style="fill:#dddcdc;stroke:#dddcdc;"/>
    <path clip-path="url(#pec669a998b)" d="M 349.151978 210.219107 
C 350.710719 210.219107 352.205828 209.599812 353.308025 208.497616 
C 354.410221 207.395419 355.029516 205.90031 355.029516 204.341569 
C 355.029516 202.782827 354.410221 201.287718 353.308025 200.185522 
C 352.205828 199.083325 350.710719 198.464031 349.151978 198.464031 
C 347.593237 198.464031 346.098127 199.083325 344.995931 200.185522 
C 343.893734 201.287718 343.27444 202.782827 343.27444 204.341569 
C 343.27444 205.90031 343.893734 207.395419 344.995931 208.497616 
C 346.098127 209.599812 347.593237 210.219107 349.151978 210.219107 
z
" style="fill:#dddcdc;stroke:#dddcdc;"/>
    <path clip-path="url(#pec669a998b)" d="M 959.32562 287.780514 
C 960.884361 287.780514 962.37947 287.16122 963.481667 286.059023 
C 964.583863 284.956826 965.203158 283.461717 965.203158 281.902976 
C 965.203158 280.344235 964.583863 278.849125 963.481667 277.746929 
C 962.37947 276.644732 960.884361 276.025438 959.32562 276.025438 
C 957.766879 276.025438 956.271769 276.644732 955.169573 277.746929 
C 954.067376 278.849125 953.448082 280.344235 953.448082 281.902976 
C 953.448082 283.461717 954.067376 284.956826 955.169573 286.059023 
C 956.271769 287.16122 957.766879 287.780514 959.32562 287.780514 
z
" style="fill:#e7d7ce;stroke:#e7d7ce;"/>
    <path clip-path="url(#pec669a998b)" d="M 369.99251 306.167072 
C 371.547144 306.167072 373.038314 305.549409 374.137606 304.450117 
C 375.236898 303.350825 375.854561 301.859656 375.854561 300.305022 
C 375.854561 298.750388 375.236898 297.259218 374.137606 296.159926 
C 373.038314 295.060634 371.547144 294.442971 369.99251 294.442971 
C 368.437876 294.442971 366.946707 295.060634 365.847415 296.159926 
C 364.748123 297.259218 364.13046 298.750388 364.13046 300.305022 
C 364.13046 301.859656 364.748123 303.350825 365.847415 304.450117 
C 366.946707 305.549409 368.437876 306.167072 369.99251 306.167072 
z
" style="fill:#b40426;stroke:#b40426;"/>
    <path clip-path="url(#pec669a998b)" d="M 743.916297 542.113148 
C 745.462683 542.113148 746.945942 541.498763 748.039402 540.405302 
C 749.132863 539.311842 749.747249 537.828583 749.747249 536.282197 
C 749.747249 534.73581 749.132863 533.252551 748.039402 532.159091 
C 746.945942 531.065631 745.462683 530.451245 743.916297 530.451245 
C 742.36991 530.451245 740.886651 531.065631 739.793191 532.159091 
C 738.699731 533.252551 738.085345 534.73581 738.085345 536.282197 
C 738.085345 537.828583 738.699731 539.311842 739.793191 540.405302 
C 740.886651 541.498763 742.36991 542.113148 743.916297 542.113148 
z
" style="fill:#aac7fd;stroke:#aac7fd;"/>
    <path clip-path="url(#pec669a998b)" d="M 711.15021 167.280709 
C 712.706899 167.280709 714.20004 166.662229 715.300785 165.561484 
C 716.40153 164.460739 717.020009 162.967598 717.020009 161.410909 
C 717.020009 159.85422 716.40153 158.361079 715.300785 157.260334 
C 714.20004 156.159589 712.706899 155.54111 711.15021 155.54111 
C 709.593521 155.54111 708.10038 156.159589 706.999635 157.260334 
C 705.89889 158.361079 705.280411 159.85422 705.280411 161.410909 
C 705.280411 162.967598 705.89889 164.460739 706.999635 165.561484 
C 708.10038 166.662229 709.593521 167.280709 711.15021 167.280709 
z
" style="fill:#98b9ff;stroke:#98b9ff;"/>
    <path clip-path="url(#pec669a998b)" d="M 478.586214 489.290219 
C 480.155177 489.290219 481.66009 488.666863 482.769514 487.557439 
C 483.878938 486.448015 484.502294 484.943101 484.502294 483.374139 
C 484.502294 481.805176 483.878938 480.300263 482.769514 479.190839 
C 481.66009 478.081414 480.155177 477.458059 478.586214 477.458059 
C 477.017251 477.458059 475.512338 478.081414 474.402914 479.190839 
C 473.29349 480.300263 472.670134 481.805176 472.670134 483.374139 
C 472.670134 484.943101 473.29349 486.448015 474.402914 487.557439 
C 475.512338 488.666863 477.017251 489.290219 478.586214 489.290219 
z
" style="fill:#81a4fb;stroke:#81a4fb;"/>
    <path clip-path="url(#pec669a998b)" d="M 476.777156 444.143744 
C 478.7553 444.143744 480.652691 443.357819 482.051451 441.95906 
C 483.45021 440.5603 484.236135 438.662909 484.236135 436.684765 
C 484.236135 434.706621 483.45021 432.80923 482.051451 431.410471 
C 480.652691 430.011711 478.7553 429.225786 476.777156 429.225786 
C 474.799012 429.225786 472.901621 430.011711 471.502862 431.410471 
C 470.104102 432.80923 469.318177 434.706621 469.318177 436.684765 
C 469.318177 438.662909 470.104102 440.5603 471.502862 441.95906 
C 472.901621 443.357819 474.799012 444.143744 476.777156 444.143744 
z
" style="fill:#96b7ff;stroke:#96b7ff;"/>
    <path clip-path="url(#pec669a998b)" d="M 520.090155 469.085662 
C 521.630327 469.085662 523.107624 468.473745 524.196691 467.384679 
C 525.285757 466.295613 525.897673 464.818315 525.897673 463.278143 
C 525.897673 461.737971 525.285757 460.260673 524.196691 459.171607 
C 523.107624 458.082541 521.630327 457.470624 520.090155 457.470624 
C 518.549983 457.470624 517.072685 458.082541 515.983619 459.171607 
C 514.894553 460.260673 514.282636 461.737971 514.282636 463.278143 
C 514.282636 464.818315 514.894553 466.295613 515.983619 467.384679 
C 517.072685 468.473745 518.549983 469.085662 520.090155 469.085662 
z
" style="fill:#dddcdc;stroke:#dddcdc;"/>
    <path clip-path="url(#pec669a998b)" d="M 433.176766 464.647759 
C 434.696039 464.647759 436.153291 464.044145 437.227579 462.969857 
C 438.301867 461.895568 438.905481 460.438316 438.905481 458.919043 
C 438.905481 457.39977 438.301867 455.942518 437.227579 454.868229 
C 436.153291 453.793941 434.696039 453.190328 433.176766 453.190328 
C 431.657492 453.190328 430.20024 453.793941 429.125952 454.868229 
C 428.051664 455.942518 427.44805 457.39977 427.44805 458.919043 
C 427.44805 460.438316 428.051664 461.895568 429.125952 462.969857 
C 430.20024 464.044145 431.657492 464.647759 433.176766 464.647759 
z
" style="fill:#b3cdfb;stroke:#b3cdfb;"/>
    <path clip-path="url(#pec669a998b)" d="M 427.199835 575.821632 
C 429.102186 575.821632 430.926877 575.065821 432.272041 573.720656 
C 433.617206 572.375491 434.373018 570.5508 434.373018 568.64845 
C 434.373018 566.7461 433.617206 564.921409 432.272041 563.576244 
C 430.926877 562.231079 429.102186 561.475268 427.199835 561.475268 
C 425.297485 561.475268 423.472794 562.231079 422.127629 563.576244 
C 420.782465 564.921409 420.026653 566.7461 420.026653 568.64845 
C 420.026653 570.5508 420.782465 572.375491 422.127629 573.720656 
C 423.472794 575.065821 425.297485 575.821632 427.199835 575.821632 
z
" style="fill:#e9d5cb;stroke:#e9d5cb;"/>
    <path clip-path="url(#pec669a998b)" d="M 602.765512 390.250104 
C 604.415904 390.250104 605.998922 389.594396 607.165925 388.427393 
C 608.332928 387.26039 608.988636 385.677372 608.988636 384.02698 
C 608.988636 382.376588 608.332928 380.79357 607.165925 379.626567 
C 605.998922 378.459564 604.415904 377.803856 602.765512 377.803856 
C 601.11512 377.803856 599.532102 378.459564 598.365099 379.626567 
C 597.198095 380.79357 596.542388 382.376588 596.542388 384.02698 
C 596.542388 385.677372 597.198095 387.26039 598.365099 388.427393 
C 599.532102 389.594396 601.11512 390.250104 602.765512 390.250104 
z
" style="fill:#dedcdb;stroke:#dedcdb;"/>
    <path clip-path="url(#pec669a998b)" d="M 386.161282 375.293302 
C 387.768493 375.293302 389.310093 374.65475 390.446563 373.51828 
C 391.583033 372.38181 392.221585 370.84021 392.221585 369.232999 
C 392.221585 367.625788 391.583033 366.084187 390.446563 364.947718 
C 389.310093 363.811248 387.768493 363.172696 386.161282 363.172696 
C 384.554071 363.172696 383.01247 363.811248 381.876 364.947718 
C 380.739531 366.084187 380.100979 367.625788 380.100979 369.232999 
C 380.100979 370.84021 380.739531 372.38181 381.876 373.51828 
C 383.01247 374.65475 384.554071 375.293302 386.161282 375.293302 
z
" style="fill:#a7c5fe;stroke:#a7c5fe;"/>
    <path clip-path="url(#pec669a998b)" d="M 596.706853 444.078271 
C 599.614207 444.078271 602.402876 442.923167 604.458686 440.867357 
C 606.514496 438.811547 607.6696 436.022878 607.6696 433.115524 
C 607.6696 430.20817 606.514496 427.419501 604.458686 425.363691 
C 602.402876 423.307881 599.614207 422.152777 596.706853 422.152777 
C 593.799498 422.152777 591.01083 423.307881 588.95502 425.363691 
C 586.89921 427.419501 585.744106 430.20817 585.744106 433.115524 
C 585.744106 436.022878 586.89921 438.811547 588.95502 440.867357 
C 591.01083 442.923167 593.799498 444.078271 596.706853 444.078271 
z
" style="fill:#3b4cc0;stroke:#3b4cc0;"/>
    <path clip-path="url(#pec669a998b)" d="M 518.262933 359.805336 
C 521.140445 359.805336 523.900489 358.662089 525.935198 356.62738 
C 527.969906 354.592672 529.113153 351.832628 529.113153 348.955116 
C 529.113153 346.077604 527.969906 343.317561 525.935198 341.282852 
C 523.900489 339.248144 521.140445 338.104896 518.262933 338.104896 
C 515.385422 338.104896 512.625378 339.248144 510.590669 341.282852 
C 508.555961 343.317561 507.412714 346.077604 507.412714 348.955116 
C 507.412714 351.832628 508.555961 354.592672 510.590669 356.62738 
C 512.625378 358.662089 515.385422 359.805336 518.262933 359.805336 
z
" style="fill:#6c8ff1;stroke:#6c8ff1;"/>
    <path clip-path="url(#pec669a998b)" d="M 622.149896 500.710008 
C 626.343126 500.710008 630.365175 499.04402 633.330236 496.078959 
C 636.295297 493.113899 637.961285 489.091849 637.961285 484.89862 
C 637.961285 480.70539 636.295297 476.68334 633.330236 473.71828 
C 630.365175 470.753219 626.343126 469.087231 622.149896 469.087231 
C 617.956667 469.087231 613.934617 470.753219 610.969557 473.71828 
C 608.004496 476.68334 606.338508 480.70539 606.338508 484.89862 
C 606.338508 489.091849 608.004496 493.113899 610.969557 496.078959 
C 613.934617 499.04402 617.956667 500.710008 622.149896 500.710008 
z
" style="fill:#e7d7ce;stroke:#e7d7ce;"/>
    <path clip-path="url(#pec669a998b)" d="M 844.478512 207.455514 
C 846.020758 207.455514 847.500046 206.842773 848.590578 205.752241 
C 849.681111 204.661708 850.293852 203.18242 850.293852 201.640174 
C 850.293852 200.097928 849.681111 198.61864 848.590578 197.528108 
C 847.500046 196.437575 846.020758 195.824834 844.478512 195.824834 
C 842.936266 195.824834 841.456978 196.437575 840.366445 197.528108 
C 839.275913 198.61864 838.663172 200.097928 838.663172 201.640174 
C 838.663172 203.18242 839.275913 204.661708 840.366445 205.752241 
C 841.456978 206.842773 842.936266 207.455514 844.478512 207.455514 
z
" style="fill:#d2dbe8;stroke:#d2dbe8;"/>
    <path clip-path="url(#pec669a998b)" d="M 264.524449 596.210747 
C 266.111644 596.210747 267.634046 595.580148 268.756362 594.457831 
C 269.878679 593.335515 270.509278 591.813113 270.509278 590.225918 
C 270.509278 588.638723 269.878679 587.116321 268.756362 585.994004 
C 267.634046 584.871688 266.111644 584.241089 264.524449 584.241089 
C 262.937254 584.241089 261.414852 584.871688 260.292536 585.994004 
C 259.170219 587.116321 258.53962 588.638723 258.53962 590.225918 
C 258.53962 591.813113 259.170219 593.335515 260.292536 594.457831 
C 261.414852 595.580148 262.937254 596.210747 264.524449 596.210747 
z
" style="fill:#6687ed;stroke:#6687ed;"/>
    <path clip-path="url(#pec669a998b)" d="M 695.336364 713.432174 
C 696.815115 713.432174 698.233501 712.84466 699.279136 711.799024 
C 700.324771 710.753389 700.912286 709.335004 700.912286 707.856252 
C 700.912286 706.3775 700.324771 704.959115 699.279136 703.91348 
C 698.233501 702.867844 696.815115 702.28033 695.336364 702.28033 
C 693.857612 702.28033 692.439227 702.867844 691.393591 703.91348 
C 690.347956 704.959115 689.760441 706.3775 689.760441 707.856252 
C 689.760441 709.335004 690.347956 710.753389 691.393591 711.799024 
C 692.439227 712.84466 693.857612 713.432174 695.336364 713.432174 
z
" style="fill:#88abfd;stroke:#88abfd;"/>
   </g>
   <g id="text_1">
    <g clip-path="url(#pec669a998b)">
     <!-- RAF1 -->
     <g transform="translate(711.633903 250.309321)scale(0.1 -0.1)">
      <defs>
       <path d="M 44.390625 34.1875 
Q 47.5625 33.109375 50.5625 29.59375 
Q 53.5625 26.078125 56.59375 19.921875 
L 66.609375 0 
L 56 0 
L 46.6875 18.703125 
Q 43.0625 26.03125 39.671875 28.421875 
Q 36.28125 30.8125 30.421875 30.8125 
L 19.671875 30.8125 
L 19.671875 0 
L 9.8125 0 
L 9.8125 72.90625 
L 32.078125 72.90625 
Q 44.578125 72.90625 50.734375 67.671875 
Q 56.890625 62.453125 56.890625 51.90625 
Q 56.890625 45.015625 53.6875 40.46875 
Q 50.484375 35.9375 44.390625 34.1875 
z
M 19.671875 64.796875 
L 19.671875 38.921875 
L 32.078125 38.921875 
Q 39.203125 38.921875 42.84375 42.21875 
Q 46.484375 45.515625 46.484375 51.90625 
Q 46.484375 58.296875 42.84375 61.546875 
Q 39.203125 64.796875 32.078125 64.796875 
z
" id="DejaVuSans-82"/>
       <path d="M 34.1875 63.1875 
L 20.796875 26.90625 
L 47.609375 26.90625 
z
M 28.609375 72.90625 
L 39.796875 72.90625 
L 67.578125 0 
L 57.328125 0 
L 50.6875 18.703125 
L 17.828125 18.703125 
L 11.1875 0 
L 0.78125 0 
z
" id="DejaVuSans-65"/>
       <path d="M 9.8125 72.90625 
L 51.703125 72.90625 
L 51.703125 64.59375 
L 19.671875 64.59375 
L 19.671875 43.109375 
L 48.578125 43.109375 
L 48.578125 34.8125 
L 19.671875 34.8125 
L 19.671875 0 
L 9.8125 0 
z
" id="DejaVuSans-70"/>
       <path d="M 12.40625 8.296875 
L 28.515625 8.296875 
L 28.515625 63.921875 
L 10.984375 60.40625 
L 10.984375 69.390625 
L 28.421875 72.90625 
L 38.28125 72.90625 
L 38.28125 8.296875 
L 54.390625 8.296875 
L 54.390625 0 
L 12.40625 0 
z
" id="DejaVuSans-49"/>
      </defs>
      <use xlink:href="#DejaVuSans-82"/>
      <use x="65.482422" xlink:href="#DejaVuSans-65"/>
      <use x="133.890625" xlink:href="#DejaVuSans-70"/>
      <use x="191.410156" xlink:href="#DejaVuSans-49"/>
     </g>
    </g>
   </g>
   <g id="text_2">
    <g clip-path="url(#pec669a998b)">
     <!-- JAK2 -->
     <g transform="translate(328.85583 441.609987)scale(0.1 -0.1)">
      <defs>
       <path d="M 9.8125 72.90625 
L 19.671875 72.90625 
L 19.671875 5.078125 
Q 19.671875 -8.109375 14.671875 -14.0625 
Q 9.671875 -20.015625 -1.421875 -20.015625 
L -5.171875 -20.015625 
L -5.171875 -11.71875 
L -2.09375 -11.71875 
Q 4.4375 -11.71875 7.125 -8.046875 
Q 9.8125 -4.390625 9.8125 5.078125 
z
" id="DejaVuSans-74"/>
       <path d="M 9.8125 72.90625 
L 19.671875 72.90625 
L 19.671875 42.09375 
L 52.390625 72.90625 
L 65.09375 72.90625 
L 28.90625 38.921875 
L 67.671875 0 
L 54.6875 0 
L 19.671875 35.109375 
L 19.671875 0 
L 9.8125 0 
z
" id="DejaVuSans-75"/>
       <path d="M 19.1875 8.296875 
L 53.609375 8.296875 
L 53.609375 0 
L 7.328125 0 
L 7.328125 8.296875 
Q 12.9375 14.109375 22.625 23.890625 
Q 32.328125 33.6875 34.8125 36.53125 
Q 39.546875 41.84375 41.421875 45.53125 
Q 43.3125 49.21875 43.3125 52.78125 
Q 43.3125 58.59375 39.234375 62.25 
Q 35.15625 65.921875 28.609375 65.921875 
Q 23.96875 65.921875 18.8125 64.3125 
Q 13.671875 62.703125 7.8125 59.421875 
L 7.8125 69.390625 
Q 13.765625 71.78125 18.9375 73 
Q 24.125 74.21875 28.421875 74.21875 
Q 39.75 74.21875 46.484375 68.546875 
Q 53.21875 62.890625 53.21875 53.421875 
Q 53.21875 48.921875 51.53125 44.890625 
Q 49.859375 40.875 45.40625 35.40625 
Q 44.1875 33.984375 37.640625 27.21875 
Q 31.109375 20.453125 19.1875 8.296875 
z
" id="DejaVuSans-50"/>
      </defs>
      <use xlink:href="#DejaVuSans-74"/>
      <use x="27.742188" xlink:href="#DejaVuSans-65"/>
      <use x="96.150391" xlink:href="#DejaVuSans-75"/>
      <use x="161.726562" xlink:href="#DejaVuSans-50"/>
     </g>
    </g>
   </g>
   <g id="text_3">
    <g clip-path="url(#pec669a998b)">
     <!-- GRB2 -->
     <g transform="translate(868.843354 601.076686)scale(0.1 -0.1)">
      <defs>
       <path d="M 59.515625 10.40625 
L 59.515625 29.984375 
L 43.40625 29.984375 
L 43.40625 38.09375 
L 69.28125 38.09375 
L 69.28125 6.78125 
Q 63.578125 2.734375 56.6875 0.65625 
Q 49.8125 -1.421875 42 -1.421875 
Q 24.90625 -1.421875 15.25 8.5625 
Q 5.609375 18.5625 5.609375 36.375 
Q 5.609375 54.25 15.25 64.234375 
Q 24.90625 74.21875 42 74.21875 
Q 49.125 74.21875 55.546875 72.453125 
Q 61.96875 70.703125 67.390625 67.28125 
L 67.390625 56.78125 
Q 61.921875 61.421875 55.765625 63.765625 
Q 49.609375 66.109375 42.828125 66.109375 
Q 29.4375 66.109375 22.71875 58.640625 
Q 16.015625 51.171875 16.015625 36.375 
Q 16.015625 21.625 22.71875 14.15625 
Q 29.4375 6.6875 42.828125 6.6875 
Q 48.046875 6.6875 52.140625 7.59375 
Q 56.25 8.5 59.515625 10.40625 
z
" id="DejaVuSans-71"/>
       <path d="M 19.671875 34.8125 
L 19.671875 8.109375 
L 35.5 8.109375 
Q 43.453125 8.109375 47.28125 11.40625 
Q 51.125 14.703125 51.125 21.484375 
Q 51.125 28.328125 47.28125 31.5625 
Q 43.453125 34.8125 35.5 34.8125 
z
M 19.671875 64.796875 
L 19.671875 42.828125 
L 34.28125 42.828125 
Q 41.5 42.828125 45.03125 45.53125 
Q 48.578125 48.25 48.578125 53.8125 
Q 48.578125 59.328125 45.03125 62.0625 
Q 41.5 64.796875 34.28125 64.796875 
z
M 9.8125 72.90625 
L 35.015625 72.90625 
Q 46.296875 72.90625 52.390625 68.21875 
Q 58.5 63.53125 58.5 54.890625 
Q 58.5 48.1875 55.375 44.234375 
Q 52.25 40.28125 46.1875 39.3125 
Q 53.46875 37.75 57.5 32.78125 
Q 61.53125 27.828125 61.53125 20.40625 
Q 61.53125 10.640625 54.890625 5.3125 
Q 48.25 0 35.984375 0 
L 9.8125 0 
z
" id="DejaVuSans-66"/>
      </defs>
      <use xlink:href="#DejaVuSans-71"/>
      <use x="77.490234" xlink:href="#DejaVuSans-82"/>
      <use x="146.972656" xlink:href="#DejaVuSans-66"/>
      <use x="215.576172" xlink:href="#DejaVuSans-50"/>
     </g>
    </g>
   </g>
   <g id="text_4">
    <g clip-path="url(#pec669a998b)">
     <!-- FOXO3 -->
     <g transform="translate(695.296901 620.178975)scale(0.1 -0.1)">
      <defs>
       <path d="M 39.40625 66.21875 
Q 28.65625 66.21875 22.328125 58.203125 
Q 16.015625 50.203125 16.015625 36.375 
Q 16.015625 22.609375 22.328125 14.59375 
Q 28.65625 6.59375 39.40625 6.59375 
Q 50.140625 6.59375 56.421875 14.59375 
Q 62.703125 22.609375 62.703125 36.375 
Q 62.703125 50.203125 56.421875 58.203125 
Q 50.140625 66.21875 39.40625 66.21875 
z
M 39.40625 74.21875 
Q 54.734375 74.21875 63.90625 63.9375 
Q 73.09375 53.65625 73.09375 36.375 
Q 73.09375 19.140625 63.90625 8.859375 
Q 54.734375 -1.421875 39.40625 -1.421875 
Q 24.03125 -1.421875 14.8125 8.828125 
Q 5.609375 19.09375 5.609375 36.375 
Q 5.609375 53.65625 14.8125 63.9375 
Q 24.03125 74.21875 39.40625 74.21875 
z
" id="DejaVuSans-79"/>
       <path d="M 6.296875 72.90625 
L 16.890625 72.90625 
L 35.015625 45.796875 
L 53.21875 72.90625 
L 63.8125 72.90625 
L 40.375 37.890625 
L 65.375 0 
L 54.78125 0 
L 34.28125 31 
L 13.625 0 
L 2.984375 0 
L 29 38.921875 
z
" id="DejaVuSans-88"/>
       <path d="M 40.578125 39.3125 
Q 47.65625 37.796875 51.625 33 
Q 55.609375 28.21875 55.609375 21.1875 
Q 55.609375 10.40625 48.1875 4.484375 
Q 40.765625 -1.421875 27.09375 -1.421875 
Q 22.515625 -1.421875 17.65625 -0.515625 
Q 12.796875 0.390625 7.625 2.203125 
L 7.625 11.71875 
Q 11.71875 9.328125 16.59375 8.109375 
Q 21.484375 6.890625 26.8125 6.890625 
Q 36.078125 6.890625 40.9375 10.546875 
Q 45.796875 14.203125 45.796875 21.1875 
Q 45.796875 27.640625 41.28125 31.265625 
Q 36.765625 34.90625 28.71875 34.90625 
L 20.21875 34.90625 
L 20.21875 43.015625 
L 29.109375 43.015625 
Q 36.375 43.015625 40.234375 45.921875 
Q 44.09375 48.828125 44.09375 54.296875 
Q 44.09375 59.90625 40.109375 62.90625 
Q 36.140625 65.921875 28.71875 65.921875 
Q 24.65625 65.921875 20.015625 65.03125 
Q 15.375 64.15625 9.8125 62.3125 
L 9.8125 71.09375 
Q 15.4375 72.65625 20.34375 73.4375 
Q 25.25 74.21875 29.59375 74.21875 
Q 40.828125 74.21875 47.359375 69.109375 
Q 53.90625 64.015625 53.90625 55.328125 
Q 53.90625 49.265625 50.4375 45.09375 
Q 46.96875 40.921875 40.578125 39.3125 
z
" id="DejaVuSans-51"/>
      </defs>
      <use xlink:href="#DejaVuSans-70"/>
      <use x="57.519531" xlink:href="#DejaVuSans-79"/>
      <use x="129.855469" xlink:href="#DejaVuSans-88"/>
      <use x="191.986328" xlink:href="#DejaVuSans-79"/>
      <use x="270.697266" xlink:href="#DejaVuSans-51"/>
     </g>
    </g>
   </g>
   <g id="text_5">
    <g clip-path="url(#pec669a998b)">
     <!-- GALT -->
     <g transform="translate(275.64269 642.837254)scale(0.1 -0.1)">
      <defs>
       <path d="M 9.8125 72.90625 
L 19.671875 72.90625 
L 19.671875 8.296875 
L 55.171875 8.296875 
L 55.171875 0 
L 9.8125 0 
z
" id="DejaVuSans-76"/>
       <path d="M -0.296875 72.90625 
L 61.375 72.90625 
L 61.375 64.59375 
L 35.5 64.59375 
L 35.5 0 
L 25.59375 0 
L 25.59375 64.59375 
L -0.296875 64.59375 
z
" id="DejaVuSans-84"/>
      </defs>
      <use xlink:href="#DejaVuSans-71"/>
      <use x="77.490234" xlink:href="#DejaVuSans-65"/>
      <use x="145.898438" xlink:href="#DejaVuSans-76"/>
      <use x="187.861328" xlink:href="#DejaVuSans-84"/>
     </g>
    </g>
   </g>
   <g id="text_6">
    <g clip-path="url(#pec669a998b)">
     <!-- CISH -->
     <g transform="translate(209.573599 461.676176)scale(0.1 -0.1)">
      <defs>
       <path d="M 64.40625 67.28125 
L 64.40625 56.890625 
Q 59.421875 61.53125 53.78125 63.8125 
Q 48.140625 66.109375 41.796875 66.109375 
Q 29.296875 66.109375 22.65625 58.46875 
Q 16.015625 50.828125 16.015625 36.375 
Q 16.015625 21.96875 22.65625 14.328125 
Q 29.296875 6.6875 41.796875 6.6875 
Q 48.140625 6.6875 53.78125 8.984375 
Q 59.421875 11.28125 64.40625 15.921875 
L 64.40625 5.609375 
Q 59.234375 2.09375 53.4375 0.328125 
Q 47.65625 -1.421875 41.21875 -1.421875 
Q 24.65625 -1.421875 15.125 8.703125 
Q 5.609375 18.84375 5.609375 36.375 
Q 5.609375 53.953125 15.125 64.078125 
Q 24.65625 74.21875 41.21875 74.21875 
Q 47.75 74.21875 53.53125 72.484375 
Q 59.328125 70.75 64.40625 67.28125 
z
" id="DejaVuSans-67"/>
       <path d="M 9.8125 72.90625 
L 19.671875 72.90625 
L 19.671875 0 
L 9.8125 0 
z
" id="DejaVuSans-73"/>
       <path d="M 53.515625 70.515625 
L 53.515625 60.890625 
Q 47.90625 63.578125 42.921875 64.890625 
Q 37.9375 66.21875 33.296875 66.21875 
Q 25.25 66.21875 20.875 63.09375 
Q 16.5 59.96875 16.5 54.203125 
Q 16.5 49.359375 19.40625 46.890625 
Q 22.3125 44.4375 30.421875 42.921875 
L 36.375 41.703125 
Q 47.40625 39.59375 52.65625 34.296875 
Q 57.90625 29 57.90625 20.125 
Q 57.90625 9.515625 50.796875 4.046875 
Q 43.703125 -1.421875 29.984375 -1.421875 
Q 24.8125 -1.421875 18.96875 -0.25 
Q 13.140625 0.921875 6.890625 3.21875 
L 6.890625 13.375 
Q 12.890625 10.015625 18.65625 8.296875 
Q 24.421875 6.59375 29.984375 6.59375 
Q 38.421875 6.59375 43.015625 9.90625 
Q 47.609375 13.234375 47.609375 19.390625 
Q 47.609375 24.75 44.3125 27.78125 
Q 41.015625 30.8125 33.5 32.328125 
L 27.484375 33.5 
Q 16.453125 35.6875 11.515625 40.375 
Q 6.59375 45.0625 6.59375 53.421875 
Q 6.59375 63.09375 13.40625 68.65625 
Q 20.21875 74.21875 32.171875 74.21875 
Q 37.3125 74.21875 42.625 73.28125 
Q 47.953125 72.359375 53.515625 70.515625 
z
" id="DejaVuSans-83"/>
       <path d="M 9.8125 72.90625 
L 19.671875 72.90625 
L 19.671875 43.015625 
L 55.515625 43.015625 
L 55.515625 72.90625 
L 65.375 72.90625 
L 65.375 0 
L 55.515625 0 
L 55.515625 34.71875 
L 19.671875 34.71875 
L 19.671875 0 
L 9.8125 0 
z
" id="DejaVuSans-72"/>
      </defs>
      <use xlink:href="#DejaVuSans-67"/>
      <use x="69.824219" xlink:href="#DejaVuSans-73"/>
      <use x="99.316406" xlink:href="#DejaVuSans-83"/>
      <use x="162.792969" xlink:href="#DejaVuSans-72"/>
     </g>
    </g>
   </g>
   <g id="text_7">
    <g clip-path="url(#pec669a998b)">
     <!-- IRF1 -->
     <g transform="translate(222.140224 306.613201)scale(0.1 -0.1)">
      <use xlink:href="#DejaVuSans-73"/>
      <use x="29.492188" xlink:href="#DejaVuSans-82"/>
      <use x="98.974609" xlink:href="#DejaVuSans-70"/>
      <use x="156.494141" xlink:href="#DejaVuSans-49"/>
     </g>
    </g>
   </g>
   <g id="text_8">
    <g clip-path="url(#pec669a998b)">
     <!-- CCND2 -->
     <g transform="translate(473.146135 713.988466)scale(0.1 -0.1)">
      <defs>
       <path d="M 9.8125 72.90625 
L 23.09375 72.90625 
L 55.421875 11.921875 
L 55.421875 72.90625 
L 64.984375 72.90625 
L 64.984375 0 
L 51.703125 0 
L 19.390625 60.984375 
L 19.390625 0 
L 9.8125 0 
z
" id="DejaVuSans-78"/>
       <path d="M 19.671875 64.796875 
L 19.671875 8.109375 
L 31.59375 8.109375 
Q 46.6875 8.109375 53.6875 14.9375 
Q 60.6875 21.78125 60.6875 36.53125 
Q 60.6875 51.171875 53.6875 57.984375 
Q 46.6875 64.796875 31.59375 64.796875 
z
M 9.8125 72.90625 
L 30.078125 72.90625 
Q 51.265625 72.90625 61.171875 64.09375 
Q 71.09375 55.28125 71.09375 36.53125 
Q 71.09375 17.671875 61.125 8.828125 
Q 51.171875 0 30.078125 0 
L 9.8125 0 
z
" id="DejaVuSans-68"/>
      </defs>
      <use xlink:href="#DejaVuSans-67"/>
      <use x="69.824219" xlink:href="#DejaVuSans-67"/>
      <use x="139.648438" xlink:href="#DejaVuSans-78"/>
      <use x="214.453125" xlink:href="#DejaVuSans-68"/>
      <use x="291.455078" xlink:href="#DejaVuSans-50"/>
     </g>
    </g>
   </g>
   <g id="text_9">
    <g clip-path="url(#pec669a998b)">
     <!-- CCND1 -->
     <g transform="translate(371.034793 681.568453)scale(0.1 -0.1)">
      <use xlink:href="#DejaVuSans-67"/>
      <use x="69.824219" xlink:href="#DejaVuSans-67"/>
      <use x="139.648438" xlink:href="#DejaVuSans-78"/>
      <use x="214.453125" xlink:href="#DejaVuSans-68"/>
      <use x="291.455078" xlink:href="#DejaVuSans-49"/>
     </g>
    </g>
   </g>
   <g id="text_10">
    <g clip-path="url(#pec669a998b)">
     <!-- GSK3B -->
     <g transform="translate(550.720822 689.262245)scale(0.1 -0.1)">
      <use xlink:href="#DejaVuSans-71"/>
      <use x="77.490234" xlink:href="#DejaVuSans-83"/>
      <use x="140.966797" xlink:href="#DejaVuSans-75"/>
      <use x="206.542969" xlink:href="#DejaVuSans-51"/>
      <use x="270.166016" xlink:href="#DejaVuSans-66"/>
     </g>
    </g>
   </g>
   <g id="text_11">
    <g clip-path="url(#pec669a998b)">
     <!-- FOS -->
     <g transform="translate(454.314261 361.417676)scale(0.1 -0.1)">
      <use xlink:href="#DejaVuSans-70"/>
      <use x="57.519531" xlink:href="#DejaVuSans-79"/>
      <use x="136.230469" xlink:href="#DejaVuSans-83"/>
     </g>
    </g>
   </g>
   <g id="text_12">
    <g clip-path="url(#pec669a998b)">
     <!-- MAP2K1 -->
     <g transform="translate(328.761353 207.100944)scale(0.1 -0.1)">
      <defs>
       <path d="M 9.8125 72.90625 
L 24.515625 72.90625 
L 43.109375 23.296875 
L 61.8125 72.90625 
L 76.515625 72.90625 
L 76.515625 0 
L 66.890625 0 
L 66.890625 64.015625 
L 48.09375 14.015625 
L 38.1875 14.015625 
L 19.390625 64.015625 
L 19.390625 0 
L 9.8125 0 
z
" id="DejaVuSans-77"/>
       <path d="M 19.671875 64.796875 
L 19.671875 37.40625 
L 32.078125 37.40625 
Q 38.96875 37.40625 42.71875 40.96875 
Q 46.484375 44.53125 46.484375 51.125 
Q 46.484375 57.671875 42.71875 61.234375 
Q 38.96875 64.796875 32.078125 64.796875 
z
M 9.8125 72.90625 
L 32.078125 72.90625 
Q 44.34375 72.90625 50.609375 67.359375 
Q 56.890625 61.8125 56.890625 51.125 
Q 56.890625 40.328125 50.609375 34.8125 
Q 44.34375 29.296875 32.078125 29.296875 
L 19.671875 29.296875 
L 19.671875 0 
L 9.8125 0 
z
" id="DejaVuSans-80"/>
      </defs>
      <use xlink:href="#DejaVuSans-77"/>
      <use x="86.279297" xlink:href="#DejaVuSans-65"/>
      <use x="154.6875" xlink:href="#DejaVuSans-80"/>
      <use x="214.990234" xlink:href="#DejaVuSans-50"/>
      <use x="278.613281" xlink:href="#DejaVuSans-75"/>
      <use x="344.189453" xlink:href="#DejaVuSans-49"/>
     </g>
    </g>
   </g>
   <g id="text_13">
    <g clip-path="url(#pec669a998b)">
     <!-- MAP2K2 -->
     <g transform="translate(938.934995 284.662351)scale(0.1 -0.1)">
      <use xlink:href="#DejaVuSans-77"/>
      <use x="86.279297" xlink:href="#DejaVuSans-65"/>
      <use x="154.6875" xlink:href="#DejaVuSans-80"/>
      <use x="214.990234" xlink:href="#DejaVuSans-50"/>
      <use x="278.613281" xlink:href="#DejaVuSans-75"/>
      <use x="344.189453" xlink:href="#DejaVuSans-50"/>
     </g>
    </g>
   </g>
   <g id="text_14">
    <g clip-path="url(#pec669a998b)">
     <!-- HRAS -->
     <g transform="translate(356.363604 303.064397)scale(0.1 -0.1)">
      <use xlink:href="#DejaVuSans-72"/>
      <use x="75.195312" xlink:href="#DejaVuSans-82"/>
      <use x="140.677734" xlink:href="#DejaVuSans-65"/>
      <use x="209.085938" xlink:href="#DejaVuSans-83"/>
     </g>
    </g>
   </g>
   <g id="text_15">
    <g clip-path="url(#pec669a998b)">
     <!-- KRAS -->
     <g transform="translate(730.76864 539.041572)scale(0.1 -0.1)">
      <use xlink:href="#DejaVuSans-75"/>
      <use x="65.576172" xlink:href="#DejaVuSans-82"/>
      <use x="131.058594" xlink:href="#DejaVuSans-65"/>
      <use x="199.466797" xlink:href="#DejaVuSans-83"/>
     </g>
    </g>
   </g>
   <g id="text_16">
    <g clip-path="url(#pec669a998b)">
     <!-- NRAS -->
     <g transform="translate(697.540835 164.170284)scale(0.1 -0.1)">
      <use xlink:href="#DejaVuSans-78"/>
      <use x="74.804688" xlink:href="#DejaVuSans-82"/>
      <use x="140.287109" xlink:href="#DejaVuSans-65"/>
      <use x="208.695312" xlink:href="#DejaVuSans-83"/>
     </g>
    </g>
   </g>
   <g id="text_17">
    <g clip-path="url(#pec669a998b)">
     <!-- STAT1 -->
     <g transform="translate(463.47762 486.133514)scale(0.1 -0.1)">
      <use xlink:href="#DejaVuSans-83"/>
      <use x="63.476562" xlink:href="#DejaVuSans-84"/>
      <use x="116.810547" xlink:href="#DejaVuSans-65"/>
      <use x="177.46875" xlink:href="#DejaVuSans-84"/>
      <use x="238.552734" xlink:href="#DejaVuSans-49"/>
     </g>
    </g>
   </g>
   <g id="text_18">
    <g clip-path="url(#pec669a998b)">
     <!-- STAT3 -->
     <g transform="translate(461.668562 439.44414)scale(0.1 -0.1)">
      <use xlink:href="#DejaVuSans-83"/>
      <use x="63.476562" xlink:href="#DejaVuSans-84"/>
      <use x="116.810547" xlink:href="#DejaVuSans-65"/>
      <use x="177.46875" xlink:href="#DejaVuSans-84"/>
      <use x="238.552734" xlink:href="#DejaVuSans-51"/>
     </g>
    </g>
   </g>
   <g id="text_19">
    <g clip-path="url(#pec669a998b)">
     <!-- STAT5A -->
     <g transform="translate(501.561248 466.037518)scale(0.1 -0.1)">
      <defs>
       <path d="M 10.796875 72.90625 
L 49.515625 72.90625 
L 49.515625 64.59375 
L 19.828125 64.59375 
L 19.828125 46.734375 
Q 21.96875 47.46875 24.109375 47.828125 
Q 26.265625 48.1875 28.421875 48.1875 
Q 40.625 48.1875 47.75 41.5 
Q 54.890625 34.8125 54.890625 23.390625 
Q 54.890625 11.625 47.5625 5.09375 
Q 40.234375 -1.421875 26.90625 -1.421875 
Q 22.3125 -1.421875 17.546875 -0.640625 
Q 12.796875 0.140625 7.71875 1.703125 
L 7.71875 11.625 
Q 12.109375 9.234375 16.796875 8.0625 
Q 21.484375 6.890625 26.703125 6.890625 
Q 35.15625 6.890625 40.078125 11.328125 
Q 45.015625 15.765625 45.015625 23.390625 
Q 45.015625 31 40.078125 35.4375 
Q 35.15625 39.890625 26.703125 39.890625 
Q 22.75 39.890625 18.8125 39.015625 
Q 14.890625 38.140625 10.796875 36.28125 
z
" id="DejaVuSans-53"/>
      </defs>
      <use xlink:href="#DejaVuSans-83"/>
      <use x="63.476562" xlink:href="#DejaVuSans-84"/>
      <use x="116.810547" xlink:href="#DejaVuSans-65"/>
      <use x="177.46875" xlink:href="#DejaVuSans-84"/>
      <use x="238.552734" xlink:href="#DejaVuSans-53"/>
      <use x="302.175781" xlink:href="#DejaVuSans-65"/>
     </g>
    </g>
   </g>
   <g id="text_20">
    <g clip-path="url(#pec669a998b)">
     <!-- STAT5B -->
     <g transform="translate(414.637703 461.678418)scale(0.1 -0.1)">
      <use xlink:href="#DejaVuSans-83"/>
      <use x="63.476562" xlink:href="#DejaVuSans-84"/>
      <use x="116.810547" xlink:href="#DejaVuSans-65"/>
      <use x="177.46875" xlink:href="#DejaVuSans-84"/>
      <use x="238.552734" xlink:href="#DejaVuSans-53"/>
      <use x="302.175781" xlink:href="#DejaVuSans-66"/>
     </g>
    </g>
   </g>
   <g id="text_21">
    <g clip-path="url(#pec669a998b)">
     <!-- SHC1 -->
     <g transform="translate(413.592804 571.407825)scale(0.1 -0.1)">
      <use xlink:href="#DejaVuSans-83"/>
      <use x="63.476562" xlink:href="#DejaVuSans-72"/>
      <use x="138.671875" xlink:href="#DejaVuSans-67"/>
      <use x="208.496094" xlink:href="#DejaVuSans-49"/>
     </g>
    </g>
   </g>
   <g id="text_22">
    <g clip-path="url(#pec669a998b)">
     <!-- SOCS1 -->
     <g transform="translate(585.808481 386.786355)scale(0.1 -0.1)">
      <use xlink:href="#DejaVuSans-83"/>
      <use x="63.476562" xlink:href="#DejaVuSans-79"/>
      <use x="142.1875" xlink:href="#DejaVuSans-67"/>
      <use x="212.011719" xlink:href="#DejaVuSans-83"/>
      <use x="275.488281" xlink:href="#DejaVuSans-49"/>
     </g>
    </g>
   </g>
   <g id="text_23">
    <g clip-path="url(#pec669a998b)">
     <!-- SOCS2 -->
     <g transform="translate(369.204251 371.992374)scale(0.1 -0.1)">
      <use xlink:href="#DejaVuSans-83"/>
      <use x="63.476562" xlink:href="#DejaVuSans-79"/>
      <use x="142.1875" xlink:href="#DejaVuSans-67"/>
      <use x="212.011719" xlink:href="#DejaVuSans-83"/>
      <use x="275.488281" xlink:href="#DejaVuSans-50"/>
     </g>
    </g>
   </g>
   <g id="text_24">
    <g clip-path="url(#pec669a998b)">
     <!-- SOCS3 -->
     <g transform="translate(579.749822 435.874899)scale(0.1 -0.1)">
      <use xlink:href="#DejaVuSans-83"/>
      <use x="63.476562" xlink:href="#DejaVuSans-79"/>
      <use x="142.1875" xlink:href="#DejaVuSans-67"/>
      <use x="212.011719" xlink:href="#DejaVuSans-83"/>
      <use x="275.488281" xlink:href="#DejaVuSans-51"/>
     </g>
    </g>
   </g>
   <g id="text_25">
    <g clip-path="url(#pec669a998b)">
     <!-- SOCS4 -->
     <g transform="translate(501.305902 351.714491)scale(0.1 -0.1)">
      <defs>
       <path d="M 37.796875 64.3125 
L 12.890625 25.390625 
L 37.796875 25.390625 
z
M 35.203125 72.90625 
L 47.609375 72.90625 
L 47.609375 25.390625 
L 58.015625 25.390625 
L 58.015625 17.1875 
L 47.609375 17.1875 
L 47.609375 0 
L 37.796875 0 
L 37.796875 17.1875 
L 4.890625 17.1875 
L 4.890625 26.703125 
z
" id="DejaVuSans-52"/>
      </defs>
      <use xlink:href="#DejaVuSans-83"/>
      <use x="63.476562" xlink:href="#DejaVuSans-79"/>
      <use x="142.1875" xlink:href="#DejaVuSans-67"/>
      <use x="212.011719" xlink:href="#DejaVuSans-83"/>
      <use x="275.488281" xlink:href="#DejaVuSans-52"/>
     </g>
    </g>
   </g>
   <g id="text_26">
    <g clip-path="url(#pec669a998b)">
     <!-- SOCS5 -->
     <g transform="translate(605.192865 487.657995)scale(0.1 -0.1)">
      <use xlink:href="#DejaVuSans-83"/>
      <use x="63.476562" xlink:href="#DejaVuSans-79"/>
      <use x="142.1875" xlink:href="#DejaVuSans-67"/>
      <use x="212.011719" xlink:href="#DejaVuSans-83"/>
      <use x="275.488281" xlink:href="#DejaVuSans-53"/>
     </g>
    </g>
   </g>
   <g id="text_27">
    <g clip-path="url(#pec669a998b)">
     <!-- ESR2 -->
     <g transform="translate(831.489449 204.399549)scale(0.1 -0.1)">
      <defs>
       <path d="M 9.8125 72.90625 
L 55.90625 72.90625 
L 55.90625 64.59375 
L 19.671875 64.59375 
L 19.671875 43.015625 
L 54.390625 43.015625 
L 54.390625 34.71875 
L 19.671875 34.71875 
L 19.671875 8.296875 
L 56.78125 8.296875 
L 56.78125 0 
L 9.8125 0 
z
" id="DejaVuSans-69"/>
      </defs>
      <use xlink:href="#DejaVuSans-69"/>
      <use x="63.183594" xlink:href="#DejaVuSans-83"/>
      <use x="126.660156" xlink:href="#DejaVuSans-82"/>
      <use x="196.142578" xlink:href="#DejaVuSans-50"/>
     </g>
    </g>
   </g>
   <g id="text_28">
    <g clip-path="url(#pec669a998b)">
     <!-- NFKB1 -->
     <g transform="translate(248.017418 592.985293)scale(0.1 -0.1)">
      <use xlink:href="#DejaVuSans-78"/>
      <use x="74.804688" xlink:href="#DejaVuSans-70"/>
      <use x="132.324219" xlink:href="#DejaVuSans-75"/>
      <use x="197.900391" xlink:href="#DejaVuSans-66"/>
      <use x="266.503906" xlink:href="#DejaVuSans-49"/>
     </g>
    </g>
   </g>
   <g id="text_29">
    <g clip-path="url(#pec669a998b)">
     <!-- RELA -->
     <g transform="translate(682.38402 710.615627)scale(0.1 -0.1)">
      <use xlink:href="#DejaVuSans-82"/>
      <use x="69.482422" xlink:href="#DejaVuSans-69"/>
      <use x="132.666016" xlink:href="#DejaVuSans-76"/>
      <use x="190.628906" xlink:href="#DejaVuSans-65"/>
     </g>
    </g>
   </g>
   <g id="text_30">
    <!-- Importance Score and Relative Abundance for network hsa04917 for dataset atherosclerosis -->
    <g transform="translate(312.388125 97.68)scale(0.12 -0.12)">
     <defs>
      <path d="M 52 44.1875 
Q 55.375 50.25 60.0625 53.125 
Q 64.75 56 71.09375 56 
Q 79.640625 56 84.28125 50.015625 
Q 88.921875 44.046875 88.921875 33.015625 
L 88.921875 0 
L 79.890625 0 
L 79.890625 32.71875 
Q 79.890625 40.578125 77.09375 44.375 
Q 74.3125 48.1875 68.609375 48.1875 
Q 61.625 48.1875 57.5625 43.546875 
Q 53.515625 38.921875 53.515625 30.90625 
L 53.515625 0 
L 44.484375 0 
L 44.484375 32.71875 
Q 44.484375 40.625 41.703125 44.40625 
Q 38.921875 48.1875 33.109375 48.1875 
Q 26.21875 48.1875 22.15625 43.53125 
Q 18.109375 38.875 18.109375 30.90625 
L 18.109375 0 
L 9.078125 0 
L 9.078125 54.6875 
L 18.109375 54.6875 
L 18.109375 46.1875 
Q 21.1875 51.21875 25.484375 53.609375 
Q 29.78125 56 35.6875 56 
Q 41.65625 56 45.828125 52.96875 
Q 50 49.953125 52 44.1875 
z
" id="DejaVuSans-109"/>
      <path d="M 18.109375 8.203125 
L 18.109375 -20.796875 
L 9.078125 -20.796875 
L 9.078125 54.6875 
L 18.109375 54.6875 
L 18.109375 46.390625 
Q 20.953125 51.265625 25.265625 53.625 
Q 29.59375 56 35.59375 56 
Q 45.5625 56 51.78125 48.09375 
Q 58.015625 40.1875 58.015625 27.296875 
Q 58.015625 14.40625 51.78125 6.484375 
Q 45.5625 -1.421875 35.59375 -1.421875 
Q 29.59375 -1.421875 25.265625 0.953125 
Q 20.953125 3.328125 18.109375 8.203125 
z
M 48.6875 27.296875 
Q 48.6875 37.203125 44.609375 42.84375 
Q 40.53125 48.484375 33.40625 48.484375 
Q 26.265625 48.484375 22.1875 42.84375 
Q 18.109375 37.203125 18.109375 27.296875 
Q 18.109375 17.390625 22.1875 11.75 
Q 26.265625 6.109375 33.40625 6.109375 
Q 40.53125 6.109375 44.609375 11.75 
Q 48.6875 17.390625 48.6875 27.296875 
z
" id="DejaVuSans-112"/>
      <path d="M 30.609375 48.390625 
Q 23.390625 48.390625 19.1875 42.75 
Q 14.984375 37.109375 14.984375 27.296875 
Q 14.984375 17.484375 19.15625 11.84375 
Q 23.34375 6.203125 30.609375 6.203125 
Q 37.796875 6.203125 41.984375 11.859375 
Q 46.1875 17.53125 46.1875 27.296875 
Q 46.1875 37.015625 41.984375 42.703125 
Q 37.796875 48.390625 30.609375 48.390625 
z
M 30.609375 56 
Q 42.328125 56 49.015625 48.375 
Q 55.71875 40.765625 55.71875 27.296875 
Q 55.71875 13.875 49.015625 6.21875 
Q 42.328125 -1.421875 30.609375 -1.421875 
Q 18.84375 -1.421875 12.171875 6.21875 
Q 5.515625 13.875 5.515625 27.296875 
Q 5.515625 40.765625 12.171875 48.375 
Q 18.84375 56 30.609375 56 
z
" id="DejaVuSans-111"/>
      <path d="M 41.109375 46.296875 
Q 39.59375 47.171875 37.8125 47.578125 
Q 36.03125 48 33.890625 48 
Q 26.265625 48 22.1875 43.046875 
Q 18.109375 38.09375 18.109375 28.8125 
L 18.109375 0 
L 9.078125 0 
L 9.078125 54.6875 
L 18.109375 54.6875 
L 18.109375 46.1875 
Q 20.953125 51.171875 25.484375 53.578125 
Q 30.03125 56 36.53125 56 
Q 37.453125 56 38.578125 55.875 
Q 39.703125 55.765625 41.0625 55.515625 
z
" id="DejaVuSans-114"/>
      <path d="M 18.3125 70.21875 
L 18.3125 54.6875 
L 36.8125 54.6875 
L 36.8125 47.703125 
L 18.3125 47.703125 
L 18.3125 18.015625 
Q 18.3125 11.328125 20.140625 9.421875 
Q 21.96875 7.515625 27.59375 7.515625 
L 36.8125 7.515625 
L 36.8125 0 
L 27.59375 0 
Q 17.1875 0 13.234375 3.875 
Q 9.28125 7.765625 9.28125 18.015625 
L 9.28125 47.703125 
L 2.6875 47.703125 
L 2.6875 54.6875 
L 9.28125 54.6875 
L 9.28125 70.21875 
z
" id="DejaVuSans-116"/>
      <path d="M 34.28125 27.484375 
Q 23.390625 27.484375 19.1875 25 
Q 14.984375 22.515625 14.984375 16.5 
Q 14.984375 11.71875 18.140625 8.90625 
Q 21.296875 6.109375 26.703125 6.109375 
Q 34.1875 6.109375 38.703125 11.40625 
Q 43.21875 16.703125 43.21875 25.484375 
L 43.21875 27.484375 
z
M 52.203125 31.203125 
L 52.203125 0 
L 43.21875 0 
L 43.21875 8.296875 
Q 40.140625 3.328125 35.546875 0.953125 
Q 30.953125 -1.421875 24.3125 -1.421875 
Q 15.921875 -1.421875 10.953125 3.296875 
Q 6 8.015625 6 15.921875 
Q 6 25.140625 12.171875 29.828125 
Q 18.359375 34.515625 30.609375 34.515625 
L 43.21875 34.515625 
L 43.21875 35.40625 
Q 43.21875 41.609375 39.140625 45 
Q 35.0625 48.390625 27.6875 48.390625 
Q 23 48.390625 18.546875 47.265625 
Q 14.109375 46.140625 10.015625 43.890625 
L 10.015625 52.203125 
Q 14.9375 54.109375 19.578125 55.046875 
Q 24.21875 56 28.609375 56 
Q 40.484375 56 46.34375 49.84375 
Q 52.203125 43.703125 52.203125 31.203125 
z
" id="DejaVuSans-97"/>
      <path d="M 54.890625 33.015625 
L 54.890625 0 
L 45.90625 0 
L 45.90625 32.71875 
Q 45.90625 40.484375 42.875 44.328125 
Q 39.84375 48.1875 33.796875 48.1875 
Q 26.515625 48.1875 22.3125 43.546875 
Q 18.109375 38.921875 18.109375 30.90625 
L 18.109375 0 
L 9.078125 0 
L 9.078125 54.6875 
L 18.109375 54.6875 
L 18.109375 46.1875 
Q 21.34375 51.125 25.703125 53.5625 
Q 30.078125 56 35.796875 56 
Q 45.21875 56 50.046875 50.171875 
Q 54.890625 44.34375 54.890625 33.015625 
z
" id="DejaVuSans-110"/>
      <path d="M 48.78125 52.59375 
L 48.78125 44.1875 
Q 44.96875 46.296875 41.140625 47.34375 
Q 37.3125 48.390625 33.40625 48.390625 
Q 24.65625 48.390625 19.8125 42.84375 
Q 14.984375 37.3125 14.984375 27.296875 
Q 14.984375 17.28125 19.8125 11.734375 
Q 24.65625 6.203125 33.40625 6.203125 
Q 37.3125 6.203125 41.140625 7.25 
Q 44.96875 8.296875 48.78125 10.40625 
L 48.78125 2.09375 
Q 45.015625 0.34375 40.984375 -0.53125 
Q 36.96875 -1.421875 32.421875 -1.421875 
Q 20.0625 -1.421875 12.78125 6.34375 
Q 5.515625 14.109375 5.515625 27.296875 
Q 5.515625 40.671875 12.859375 48.328125 
Q 20.21875 56 33.015625 56 
Q 37.15625 56 41.109375 55.140625 
Q 45.0625 54.296875 48.78125 52.59375 
z
" id="DejaVuSans-99"/>
      <path d="M 56.203125 29.59375 
L 56.203125 25.203125 
L 14.890625 25.203125 
Q 15.484375 15.921875 20.484375 11.0625 
Q 25.484375 6.203125 34.421875 6.203125 
Q 39.59375 6.203125 44.453125 7.46875 
Q 49.3125 8.734375 54.109375 11.28125 
L 54.109375 2.78125 
Q 49.265625 0.734375 44.1875 -0.34375 
Q 39.109375 -1.421875 33.890625 -1.421875 
Q 20.796875 -1.421875 13.15625 6.1875 
Q 5.515625 13.8125 5.515625 26.8125 
Q 5.515625 40.234375 12.765625 48.109375 
Q 20.015625 56 32.328125 56 
Q 43.359375 56 49.78125 48.890625 
Q 56.203125 41.796875 56.203125 29.59375 
z
M 47.21875 32.234375 
Q 47.125 39.59375 43.09375 43.984375 
Q 39.0625 48.390625 32.421875 48.390625 
Q 24.90625 48.390625 20.390625 44.140625 
Q 15.875 39.890625 15.1875 32.171875 
z
" id="DejaVuSans-101"/>
      <path id="DejaVuSans-32"/>
      <path d="M 45.40625 46.390625 
L 45.40625 75.984375 
L 54.390625 75.984375 
L 54.390625 0 
L 45.40625 0 
L 45.40625 8.203125 
Q 42.578125 3.328125 38.25 0.953125 
Q 33.9375 -1.421875 27.875 -1.421875 
Q 17.96875 -1.421875 11.734375 6.484375 
Q 5.515625 14.40625 5.515625 27.296875 
Q 5.515625 40.1875 11.734375 48.09375 
Q 17.96875 56 27.875 56 
Q 33.9375 56 38.25 53.625 
Q 42.578125 51.265625 45.40625 46.390625 
z
M 14.796875 27.296875 
Q 14.796875 17.390625 18.875 11.75 
Q 22.953125 6.109375 30.078125 6.109375 
Q 37.203125 6.109375 41.296875 11.75 
Q 45.40625 17.390625 45.40625 27.296875 
Q 45.40625 37.203125 41.296875 42.84375 
Q 37.203125 48.484375 30.078125 48.484375 
Q 22.953125 48.484375 18.875 42.84375 
Q 14.796875 37.203125 14.796875 27.296875 
z
" id="DejaVuSans-100"/>
      <path d="M 9.421875 75.984375 
L 18.40625 75.984375 
L 18.40625 0 
L 9.421875 0 
z
" id="DejaVuSans-108"/>
      <path d="M 9.421875 54.6875 
L 18.40625 54.6875 
L 18.40625 0 
L 9.421875 0 
z
M 9.421875 75.984375 
L 18.40625 75.984375 
L 18.40625 64.59375 
L 9.421875 64.59375 
z
" id="DejaVuSans-105"/>
      <path d="M 2.984375 54.6875 
L 12.5 54.6875 
L 29.59375 8.796875 
L 46.6875 54.6875 
L 56.203125 54.6875 
L 35.6875 0 
L 23.484375 0 
z
" id="DejaVuSans-118"/>
      <path d="M 48.6875 27.296875 
Q 48.6875 37.203125 44.609375 42.84375 
Q 40.53125 48.484375 33.40625 48.484375 
Q 26.265625 48.484375 22.1875 42.84375 
Q 18.109375 37.203125 18.109375 27.296875 
Q 18.109375 17.390625 22.1875 11.75 
Q 26.265625 6.109375 33.40625 6.109375 
Q 40.53125 6.109375 44.609375 11.75 
Q 48.6875 17.390625 48.6875 27.296875 
z
M 18.109375 46.390625 
Q 20.953125 51.265625 25.265625 53.625 
Q 29.59375 56 35.59375 56 
Q 45.5625 56 51.78125 48.09375 
Q 58.015625 40.1875 58.015625 27.296875 
Q 58.015625 14.40625 51.78125 6.484375 
Q 45.5625 -1.421875 35.59375 -1.421875 
Q 29.59375 -1.421875 25.265625 0.953125 
Q 20.953125 3.328125 18.109375 8.203125 
L 18.109375 0 
L 9.078125 0 
L 9.078125 75.984375 
L 18.109375 75.984375 
z
" id="DejaVuSans-98"/>
      <path d="M 8.5 21.578125 
L 8.5 54.6875 
L 17.484375 54.6875 
L 17.484375 21.921875 
Q 17.484375 14.15625 20.5 10.265625 
Q 23.53125 6.390625 29.59375 6.390625 
Q 36.859375 6.390625 41.078125 11.03125 
Q 45.3125 15.671875 45.3125 23.6875 
L 45.3125 54.6875 
L 54.296875 54.6875 
L 54.296875 0 
L 45.3125 0 
L 45.3125 8.40625 
Q 42.046875 3.421875 37.71875 1 
Q 33.40625 -1.421875 27.6875 -1.421875 
Q 18.265625 -1.421875 13.375 4.4375 
Q 8.5 10.296875 8.5 21.578125 
z
M 31.109375 56 
z
" id="DejaVuSans-117"/>
      <path d="M 37.109375 75.984375 
L 37.109375 68.5 
L 28.515625 68.5 
Q 23.6875 68.5 21.796875 66.546875 
Q 19.921875 64.59375 19.921875 59.515625 
L 19.921875 54.6875 
L 34.71875 54.6875 
L 34.71875 47.703125 
L 19.921875 47.703125 
L 19.921875 0 
L 10.890625 0 
L 10.890625 47.703125 
L 2.296875 47.703125 
L 2.296875 54.6875 
L 10.890625 54.6875 
L 10.890625 58.5 
Q 10.890625 67.625 15.140625 71.796875 
Q 19.390625 75.984375 28.609375 75.984375 
z
" id="DejaVuSans-102"/>
      <path d="M 4.203125 54.6875 
L 13.1875 54.6875 
L 24.421875 12.015625 
L 35.59375 54.6875 
L 46.1875 54.6875 
L 57.421875 12.015625 
L 68.609375 54.6875 
L 77.59375 54.6875 
L 63.28125 0 
L 52.6875 0 
L 40.921875 44.828125 
L 29.109375 0 
L 18.5 0 
z
" id="DejaVuSans-119"/>
      <path d="M 9.078125 75.984375 
L 18.109375 75.984375 
L 18.109375 31.109375 
L 44.921875 54.6875 
L 56.390625 54.6875 
L 27.390625 29.109375 
L 57.625 0 
L 45.90625 0 
L 18.109375 26.703125 
L 18.109375 0 
L 9.078125 0 
z
" id="DejaVuSans-107"/>
      <path d="M 54.890625 33.015625 
L 54.890625 0 
L 45.90625 0 
L 45.90625 32.71875 
Q 45.90625 40.484375 42.875 44.328125 
Q 39.84375 48.1875 33.796875 48.1875 
Q 26.515625 48.1875 22.3125 43.546875 
Q 18.109375 38.921875 18.109375 30.90625 
L 18.109375 0 
L 9.078125 0 
L 9.078125 75.984375 
L 18.109375 75.984375 
L 18.109375 46.1875 
Q 21.34375 51.125 25.703125 53.5625 
Q 30.078125 56 35.796875 56 
Q 45.21875 56 50.046875 50.171875 
Q 54.890625 44.34375 54.890625 33.015625 
z
" id="DejaVuSans-104"/>
      <path d="M 44.28125 53.078125 
L 44.28125 44.578125 
Q 40.484375 46.53125 36.375 47.5 
Q 32.28125 48.484375 27.875 48.484375 
Q 21.1875 48.484375 17.84375 46.4375 
Q 14.5 44.390625 14.5 40.28125 
Q 14.5 37.15625 16.890625 35.375 
Q 19.28125 33.59375 26.515625 31.984375 
L 29.59375 31.296875 
Q 39.15625 29.25 43.1875 25.515625 
Q 47.21875 21.78125 47.21875 15.09375 
Q 47.21875 7.46875 41.1875 3.015625 
Q 35.15625 -1.421875 24.609375 -1.421875 
Q 20.21875 -1.421875 15.453125 -0.5625 
Q 10.6875 0.296875 5.421875 2 
L 5.421875 11.28125 
Q 10.40625 8.6875 15.234375 7.390625 
Q 20.0625 6.109375 24.8125 6.109375 
Q 31.15625 6.109375 34.5625 8.28125 
Q 37.984375 10.453125 37.984375 14.40625 
Q 37.984375 18.0625 35.515625 20.015625 
Q 33.0625 21.96875 24.703125 23.78125 
L 21.578125 24.515625 
Q 13.234375 26.265625 9.515625 29.90625 
Q 5.8125 33.546875 5.8125 39.890625 
Q 5.8125 47.609375 11.28125 51.796875 
Q 16.75 56 26.8125 56 
Q 31.78125 56 36.171875 55.265625 
Q 40.578125 54.546875 44.28125 53.078125 
z
" id="DejaVuSans-115"/>
      <path d="M 31.78125 66.40625 
Q 24.171875 66.40625 20.328125 58.90625 
Q 16.5 51.421875 16.5 36.375 
Q 16.5 21.390625 20.328125 13.890625 
Q 24.171875 6.390625 31.78125 6.390625 
Q 39.453125 6.390625 43.28125 13.890625 
Q 47.125 21.390625 47.125 36.375 
Q 47.125 51.421875 43.28125 58.90625 
Q 39.453125 66.40625 31.78125 66.40625 
z
M 31.78125 74.21875 
Q 44.046875 74.21875 50.515625 64.515625 
Q 56.984375 54.828125 56.984375 36.375 
Q 56.984375 17.96875 50.515625 8.265625 
Q 44.046875 -1.421875 31.78125 -1.421875 
Q 19.53125 -1.421875 13.0625 8.265625 
Q 6.59375 17.96875 6.59375 36.375 
Q 6.59375 54.828125 13.0625 64.515625 
Q 19.53125 74.21875 31.78125 74.21875 
z
" id="DejaVuSans-48"/>
      <path d="M 10.984375 1.515625 
L 10.984375 10.5 
Q 14.703125 8.734375 18.5 7.8125 
Q 22.3125 6.890625 25.984375 6.890625 
Q 35.75 6.890625 40.890625 13.453125 
Q 46.046875 20.015625 46.78125 33.40625 
Q 43.953125 29.203125 39.59375 26.953125 
Q 35.25 24.703125 29.984375 24.703125 
Q 19.046875 24.703125 12.671875 31.3125 
Q 6.296875 37.9375 6.296875 49.421875 
Q 6.296875 60.640625 12.9375 67.421875 
Q 19.578125 74.21875 30.609375 74.21875 
Q 43.265625 74.21875 49.921875 64.515625 
Q 56.59375 54.828125 56.59375 36.375 
Q 56.59375 19.140625 48.40625 8.859375 
Q 40.234375 -1.421875 26.421875 -1.421875 
Q 22.703125 -1.421875 18.890625 -0.6875 
Q 15.09375 0.046875 10.984375 1.515625 
z
M 30.609375 32.421875 
Q 37.25 32.421875 41.125 36.953125 
Q 45.015625 41.5 45.015625 49.421875 
Q 45.015625 57.28125 41.125 61.84375 
Q 37.25 66.40625 30.609375 66.40625 
Q 23.96875 66.40625 20.09375 61.84375 
Q 16.21875 57.28125 16.21875 49.421875 
Q 16.21875 41.5 20.09375 36.953125 
Q 23.96875 32.421875 30.609375 32.421875 
z
" id="DejaVuSans-57"/>
      <path d="M 8.203125 72.90625 
L 55.078125 72.90625 
L 55.078125 68.703125 
L 28.609375 0 
L 18.3125 0 
L 43.21875 64.59375 
L 8.203125 64.59375 
z
" id="DejaVuSans-55"/>
     </defs>
     <use xlink:href="#DejaVuSans-73"/>
     <use x="29.492188" xlink:href="#DejaVuSans-109"/>
     <use x="126.904297" xlink:href="#DejaVuSans-112"/>
     <use x="190.380859" xlink:href="#DejaVuSans-111"/>
     <use x="251.5625" xlink:href="#DejaVuSans-114"/>
     <use x="292.675781" xlink:href="#DejaVuSans-116"/>
     <use x="331.884766" xlink:href="#DejaVuSans-97"/>
     <use x="393.164062" xlink:href="#DejaVuSans-110"/>
     <use x="456.542969" xlink:href="#DejaVuSans-99"/>
     <use x="511.523438" xlink:href="#DejaVuSans-101"/>
     <use x="573.046875" xlink:href="#DejaVuSans-32"/>
     <use x="604.833984" xlink:href="#DejaVuSans-83"/>
     <use x="668.310547" xlink:href="#DejaVuSans-99"/>
     <use x="723.291016" xlink:href="#DejaVuSans-111"/>
     <use x="784.472656" xlink:href="#DejaVuSans-114"/>
     <use x="823.335938" xlink:href="#DejaVuSans-101"/>
     <use x="884.859375" xlink:href="#DejaVuSans-32"/>
     <use x="916.646484" xlink:href="#DejaVuSans-97"/>
     <use x="977.925781" xlink:href="#DejaVuSans-110"/>
     <use x="1041.304688" xlink:href="#DejaVuSans-100"/>
     <use x="1104.78125" xlink:href="#DejaVuSans-32"/>
     <use x="1136.568359" xlink:href="#DejaVuSans-82"/>
     <use x="1201.550781" xlink:href="#DejaVuSans-101"/>
     <use x="1263.074219" xlink:href="#DejaVuSans-108"/>
     <use x="1290.857422" xlink:href="#DejaVuSans-97"/>
     <use x="1352.136719" xlink:href="#DejaVuSans-116"/>
     <use x="1391.345703" xlink:href="#DejaVuSans-105"/>
     <use x="1419.128906" xlink:href="#DejaVuSans-118"/>
     <use x="1478.308594" xlink:href="#DejaVuSans-101"/>
     <use x="1539.832031" xlink:href="#DejaVuSans-32"/>
     <use x="1571.619141" xlink:href="#DejaVuSans-65"/>
     <use x="1640.027344" xlink:href="#DejaVuSans-98"/>
     <use x="1703.503906" xlink:href="#DejaVuSans-117"/>
     <use x="1766.882812" xlink:href="#DejaVuSans-110"/>
     <use x="1830.261719" xlink:href="#DejaVuSans-100"/>
     <use x="1893.738281" xlink:href="#DejaVuSans-97"/>
     <use x="1955.017578" xlink:href="#DejaVuSans-110"/>
     <use x="2018.396484" xlink:href="#DejaVuSans-99"/>
     <use x="2073.376953" xlink:href="#DejaVuSans-101"/>
     <use x="2134.900391" xlink:href="#DejaVuSans-32"/>
     <use x="2166.6875" xlink:href="#DejaVuSans-102"/>
     <use x="2201.892578" xlink:href="#DejaVuSans-111"/>
     <use x="2263.074219" xlink:href="#DejaVuSans-114"/>
     <use x="2304.1875" xlink:href="#DejaVuSans-32"/>
     <use x="2335.974609" xlink:href="#DejaVuSans-110"/>
     <use x="2399.353516" xlink:href="#DejaVuSans-101"/>
     <use x="2460.876953" xlink:href="#DejaVuSans-116"/>
     <use x="2500.085938" xlink:href="#DejaVuSans-119"/>
     <use x="2581.873047" xlink:href="#DejaVuSans-111"/>
     <use x="2643.054688" xlink:href="#DejaVuSans-114"/>
     <use x="2684.167969" xlink:href="#DejaVuSans-107"/>
     <use x="2742.078125" xlink:href="#DejaVuSans-32"/>
     <use x="2773.865234" xlink:href="#DejaVuSans-104"/>
     <use x="2837.244141" xlink:href="#DejaVuSans-115"/>
     <use x="2889.34375" xlink:href="#DejaVuSans-97"/>
     <use x="2950.623047" xlink:href="#DejaVuSans-48"/>
     <use x="3014.246094" xlink:href="#DejaVuSans-52"/>
     <use x="3077.869141" xlink:href="#DejaVuSans-57"/>
     <use x="3141.492188" xlink:href="#DejaVuSans-49"/>
     <use x="3205.115234" xlink:href="#DejaVuSans-55"/>
     <use x="3268.738281" xlink:href="#DejaVuSans-32"/>
     <use x="3300.525391" xlink:href="#DejaVuSans-102"/>
     <use x="3335.730469" xlink:href="#DejaVuSans-111"/>
     <use x="3396.912109" xlink:href="#DejaVuSans-114"/>
     <use x="3438.025391" xlink:href="#DejaVuSans-32"/>
     <use x="3469.8125" xlink:href="#DejaVuSans-100"/>
     <use x="3533.289062" xlink:href="#DejaVuSans-97"/>
     <use x="3594.568359" xlink:href="#DejaVuSans-116"/>
     <use x="3633.777344" xlink:href="#DejaVuSans-97"/>
     <use x="3695.056641" xlink:href="#DejaVuSans-115"/>
     <use x="3747.15625" xlink:href="#DejaVuSans-101"/>
     <use x="3808.679688" xlink:href="#DejaVuSans-116"/>
     <use x="3847.888672" xlink:href="#DejaVuSans-32"/>
     <use x="3879.675781" xlink:href="#DejaVuSans-97"/>
     <use x="3940.955078" xlink:href="#DejaVuSans-116"/>
     <use x="3980.164062" xlink:href="#DejaVuSans-104"/>
     <use x="4043.542969" xlink:href="#DejaVuSans-101"/>
     <use x="4105.066406" xlink:href="#DejaVuSans-114"/>
     <use x="4143.929688" xlink:href="#DejaVuSans-111"/>
     <use x="4205.111328" xlink:href="#DejaVuSans-115"/>
     <use x="4257.210938" xlink:href="#DejaVuSans-99"/>
     <use x="4312.191406" xlink:href="#DejaVuSans-108"/>
     <use x="4339.974609" xlink:href="#DejaVuSans-101"/>
     <use x="4401.498047" xlink:href="#DejaVuSans-114"/>
     <use x="4440.361328" xlink:href="#DejaVuSans-111"/>
     <use x="4501.542969" xlink:href="#DejaVuSans-115"/>
     <use x="4553.642578" xlink:href="#DejaVuSans-105"/>
     <use x="4581.425781" xlink:href="#DejaVuSans-115"/>
    </g>
   </g>
   <g id="legend_1">
    <g id="patch_63">
     <path d="M 803.859375 155.714375 
L 1029.8 155.714375 
Q 1031.8 155.714375 1031.8 153.714375 
L 1031.8 110.68 
Q 1031.8 108.68 1029.8 108.68 
L 803.859375 108.68 
Q 801.859375 108.68 801.859375 110.68 
L 801.859375 153.714375 
Q 801.859375 155.714375 803.859375 155.714375 
z
" style="fill:#ffffff;opacity:0.8;stroke:#cccccc;stroke-linejoin:miter;"/>
    </g>
    <g id="text_31">
     <!-- Relative Expression of AS+ compared to AS- -->
     <g transform="translate(805.859375 120.278437)scale(0.1 -0.1)">
      <defs>
       <path d="M 54.890625 54.6875 
L 35.109375 28.078125 
L 55.90625 0 
L 45.3125 0 
L 29.390625 21.484375 
L 13.484375 0 
L 2.875 0 
L 24.125 28.609375 
L 4.6875 54.6875 
L 15.28125 54.6875 
L 29.78125 35.203125 
L 44.28125 54.6875 
z
" id="DejaVuSans-120"/>
       <path d="M 46 62.703125 
L 46 35.5 
L 73.1875 35.5 
L 73.1875 27.203125 
L 46 27.203125 
L 46 0 
L 37.796875 0 
L 37.796875 27.203125 
L 10.59375 27.203125 
L 10.59375 35.5 
L 37.796875 35.5 
L 37.796875 62.703125 
z
" id="DejaVuSans-43"/>
       <path d="M 4.890625 31.390625 
L 31.203125 31.390625 
L 31.203125 23.390625 
L 4.890625 23.390625 
z
" id="DejaVuSans-45"/>
      </defs>
      <use xlink:href="#DejaVuSans-82"/>
      <use x="64.982422" xlink:href="#DejaVuSans-101"/>
      <use x="126.505859" xlink:href="#DejaVuSans-108"/>
      <use x="154.289062" xlink:href="#DejaVuSans-97"/>
      <use x="215.568359" xlink:href="#DejaVuSans-116"/>
      <use x="254.777344" xlink:href="#DejaVuSans-105"/>
      <use x="282.560547" xlink:href="#DejaVuSans-118"/>
      <use x="341.740234" xlink:href="#DejaVuSans-101"/>
      <use x="403.263672" xlink:href="#DejaVuSans-32"/>
      <use x="435.050781" xlink:href="#DejaVuSans-69"/>
      <use x="498.234375" xlink:href="#DejaVuSans-120"/>
      <use x="557.414062" xlink:href="#DejaVuSans-112"/>
      <use x="620.890625" xlink:href="#DejaVuSans-114"/>
      <use x="659.753906" xlink:href="#DejaVuSans-101"/>
      <use x="721.277344" xlink:href="#DejaVuSans-115"/>
      <use x="773.376953" xlink:href="#DejaVuSans-115"/>
      <use x="825.476562" xlink:href="#DejaVuSans-105"/>
      <use x="853.259766" xlink:href="#DejaVuSans-111"/>
      <use x="914.441406" xlink:href="#DejaVuSans-110"/>
      <use x="977.820312" xlink:href="#DejaVuSans-32"/>
      <use x="1009.607422" xlink:href="#DejaVuSans-111"/>
      <use x="1070.789062" xlink:href="#DejaVuSans-102"/>
      <use x="1105.994141" xlink:href="#DejaVuSans-32"/>
      <use x="1137.78125" xlink:href="#DejaVuSans-65"/>
      <use x="1206.189453" xlink:href="#DejaVuSans-83"/>
      <use x="1269.666016" xlink:href="#DejaVuSans-43"/>
      <use x="1353.455078" xlink:href="#DejaVuSans-32"/>
      <use x="1385.242188" xlink:href="#DejaVuSans-99"/>
      <use x="1440.222656" xlink:href="#DejaVuSans-111"/>
      <use x="1501.404297" xlink:href="#DejaVuSans-109"/>
      <use x="1598.816406" xlink:href="#DejaVuSans-112"/>
      <use x="1662.292969" xlink:href="#DejaVuSans-97"/>
      <use x="1723.572266" xlink:href="#DejaVuSans-114"/>
      <use x="1762.435547" xlink:href="#DejaVuSans-101"/>
      <use x="1823.958984" xlink:href="#DejaVuSans-100"/>
      <use x="1887.435547" xlink:href="#DejaVuSans-32"/>
      <use x="1919.222656" xlink:href="#DejaVuSans-116"/>
      <use x="1958.431641" xlink:href="#DejaVuSans-111"/>
      <use x="2019.613281" xlink:href="#DejaVuSans-32"/>
      <use x="2051.400391" xlink:href="#DejaVuSans-65"/>
      <use x="2119.808594" xlink:href="#DejaVuSans-83"/>
      <use x="2183.285156" xlink:href="#DejaVuSans-45"/>
     </g>
    </g>
    <g id="patch_64">
     <path d="M 829.136719 134.956562 
L 849.136719 134.956562 
L 849.136719 127.956562 
L 829.136719 127.956562 
z
" style="fill:#0000ff;stroke:#0000ff;stroke-linejoin:miter;"/>
    </g>
    <g id="text_32">
     <!-- Decreased expression in AS+ -->
     <g transform="translate(857.136719 134.956562)scale(0.1 -0.1)">
      <use xlink:href="#DejaVuSans-68"/>
      <use x="77.001953" xlink:href="#DejaVuSans-101"/>
      <use x="138.525391" xlink:href="#DejaVuSans-99"/>
      <use x="193.505859" xlink:href="#DejaVuSans-114"/>
      <use x="232.369141" xlink:href="#DejaVuSans-101"/>
      <use x="293.892578" xlink:href="#DejaVuSans-97"/>
      <use x="355.171875" xlink:href="#DejaVuSans-115"/>
      <use x="407.271484" xlink:href="#DejaVuSans-101"/>
      <use x="468.794922" xlink:href="#DejaVuSans-100"/>
      <use x="532.271484" xlink:href="#DejaVuSans-32"/>
      <use x="564.058594" xlink:href="#DejaVuSans-101"/>
      <use x="623.832031" xlink:href="#DejaVuSans-120"/>
      <use x="683.011719" xlink:href="#DejaVuSans-112"/>
      <use x="746.488281" xlink:href="#DejaVuSans-114"/>
      <use x="785.351562" xlink:href="#DejaVuSans-101"/>
      <use x="846.875" xlink:href="#DejaVuSans-115"/>
      <use x="898.974609" xlink:href="#DejaVuSans-115"/>
      <use x="951.074219" xlink:href="#DejaVuSans-105"/>
      <use x="978.857422" xlink:href="#DejaVuSans-111"/>
      <use x="1040.039062" xlink:href="#DejaVuSans-110"/>
      <use x="1103.417969" xlink:href="#DejaVuSans-32"/>
      <use x="1135.205078" xlink:href="#DejaVuSans-105"/>
      <use x="1162.988281" xlink:href="#DejaVuSans-110"/>
      <use x="1226.367188" xlink:href="#DejaVuSans-32"/>
      <use x="1258.154297" xlink:href="#DejaVuSans-65"/>
      <use x="1326.5625" xlink:href="#DejaVuSans-83"/>
      <use x="1390.039062" xlink:href="#DejaVuSans-43"/>
     </g>
    </g>
    <g id="patch_65">
     <path d="M 829.136719 149.634687 
L 849.136719 149.634687 
L 849.136719 142.634687 
L 829.136719 142.634687 
z
" style="fill:#ff0000;stroke:#ff0000;stroke-linejoin:miter;"/>
    </g>
    <g id="text_33">
     <!-- Increased expression in AS+ -->
     <g transform="translate(857.136719 149.634687)scale(0.1 -0.1)">
      <use xlink:href="#DejaVuSans-73"/>
      <use x="29.492188" xlink:href="#DejaVuSans-110"/>
      <use x="92.871094" xlink:href="#DejaVuSans-99"/>
      <use x="147.851562" xlink:href="#DejaVuSans-114"/>
      <use x="186.714844" xlink:href="#DejaVuSans-101"/>
      <use x="248.238281" xlink:href="#DejaVuSans-97"/>
      <use x="309.517578" xlink:href="#DejaVuSans-115"/>
      <use x="361.617188" xlink:href="#DejaVuSans-101"/>
      <use x="423.140625" xlink:href="#DejaVuSans-100"/>
      <use x="486.617188" xlink:href="#DejaVuSans-32"/>
      <use x="518.404297" xlink:href="#DejaVuSans-101"/>
      <use x="578.177734" xlink:href="#DejaVuSans-120"/>
      <use x="637.357422" xlink:href="#DejaVuSans-112"/>
      <use x="700.833984" xlink:href="#DejaVuSans-114"/>
      <use x="739.697266" xlink:href="#DejaVuSans-101"/>
      <use x="801.220703" xlink:href="#DejaVuSans-115"/>
      <use x="853.320312" xlink:href="#DejaVuSans-115"/>
      <use x="905.419922" xlink:href="#DejaVuSans-105"/>
      <use x="933.203125" xlink:href="#DejaVuSans-111"/>
      <use x="994.384766" xlink:href="#DejaVuSans-110"/>
      <use x="1057.763672" xlink:href="#DejaVuSans-32"/>
      <use x="1089.550781" xlink:href="#DejaVuSans-105"/>
      <use x="1117.333984" xlink:href="#DejaVuSans-110"/>
      <use x="1180.712891" xlink:href="#DejaVuSans-32"/>
      <use x="1212.5" xlink:href="#DejaVuSans-65"/>
      <use x="1280.908203" xlink:href="#DejaVuSans-83"/>
      <use x="1344.384766" xlink:href="#DejaVuSans-43"/>
     </g>
    </g>
   </g>
  </g>
 </g>
 <defs>
  <clipPath id="pec669a998b">
   <rect height="665.28" width="892.8" x="144" y="103.68"/>
  </clipPath>
 </defs>
</svg>
