<?xml version="1.0" encoding="utf-8" standalone="no"?>
<!DOCTYPE svg PUBLIC "-//W3C//DTD SVG 1.1//EN"
  "http://www.w3.org/Graphics/SVG/1.1/DTD/svg11.dtd">
<!-- Created with matplotlib (https://matplotlib.org/) -->
<svg height="864pt" version="1.1" viewBox="0 0 1152 864" width="1152pt" xmlns="http://www.w3.org/2000/svg" xmlns:xlink="http://www.w3.org/1999/xlink">
 <metadata>
  <rdf:RDF xmlns:cc="http://creativecommons.org/ns#" xmlns:dc="http://purl.org/dc/elements/1.1/" xmlns:rdf="http://www.w3.org/1999/02/22-rdf-syntax-ns#">
   <cc:Work>
    <dc:type rdf:resource="http://purl.org/dc/dcmitype/StillImage"/>
    <dc:date>2024-04-26T11:32:26.701483</dc:date>
    <dc:format>image/svg+xml</dc:format>
    <dc:creator>
     <cc:Agent>
      <dc:title>Matplotlib v3.3.1, https://matplotlib.org/</dc:title>
     </cc:Agent>
    </dc:creator>
   </cc:Work>
  </rdf:RDF>
 </metadata>
 <defs>
  <style type="text/css">*{stroke-linecap:butt;stroke-linejoin:round;}</style>
 </defs>
 <g id="figure_1">
  <g id="patch_1">
   <path d="M 0 864 
L 1152 864 
L 1152 0 
L 0 0 
z
" style="fill:#ffffff;"/>
  </g>
  <g id="axes_1">
   <g id="patch_2">
    <path clip-path="url(#p32c9d6c986)" d="M 601.503661 388.238046 
Q 414.198626 434.534221 227.978962 480.562125 
" style="fill:none;stroke:#000000;stroke-linecap:round;"/>
    <path clip-path="url(#p32c9d6c986)" d="M 232.342002 481.5439 
L 227.978962 480.562125 
L 231.382206 477.660758 
L 232.342002 481.5439 
z
" style="stroke:#000000;stroke-linecap:round;"/>
   </g>
   <g id="patch_3">
    <path clip-path="url(#p32c9d6c986)" d="M 612.686166 375.690922 
Q 626.098172 271.20424 639.367834 167.826492 
" style="fill:none;stroke:#000000;stroke-linecap:round;"/>
    <path clip-path="url(#p32c9d6c986)" d="M 636.874844 171.539308 
L 639.367834 167.826492 
L 640.842293 172.048574 
L 636.874844 171.539308 
z
" style="stroke:#000000;stroke-linecap:round;"/>
   </g>
   <g id="patch_4">
    <path clip-path="url(#p32c9d6c986)" d="M 605.8473 377.244649 
Q 544.060697 281.921783 482.88221 187.537105 
" style="fill:none;stroke:#000000;stroke-linecap:round;"/>
    <path clip-path="url(#p32c9d6c986)" d="M 483.379593 191.981496 
L 482.88221 187.537105 
L 486.736152 189.805833 
L 483.379593 191.981496 
z
" style="stroke:#000000;stroke-linecap:round;"/>
   </g>
   <g id="patch_5">
    <path clip-path="url(#p32c9d6c986)" d="M 420.43452 565.83229 
Q 527.941586 532.980026 634.379426 500.454499 
" style="fill:none;stroke:#000000;stroke-linecap:round;"/>
    <path clip-path="url(#p32c9d6c986)" d="M 629.969564 499.710778 
L 634.379426 500.454499 
L 631.138532 503.536156 
L 629.969564 499.710778 
z
" style="stroke:#000000;stroke-linecap:round;"/>
   </g>
   <g id="patch_6">
    <path clip-path="url(#p32c9d6c986)" d="M 419.970652 564.560684 
Q 504.884219 527.951955 588.771104 491.785859 
" style="fill:none;stroke:#000000;stroke-linecap:round;"/>
    <path clip-path="url(#p32c9d6c986)" d="M 584.306128 491.532885 
L 588.771104 491.785859 
L 585.88974 495.206055 
L 584.306128 491.532885 
z
" style="stroke:#000000;stroke-linecap:round;"/>
   </g>
   <g id="patch_7">
    <path clip-path="url(#p32c9d6c986)" d="M 459.609475 439.793276 
Q 547.528607 466.682357 634.37859 493.244451 
" style="fill:none;stroke:#000000;stroke-linecap:round;"/>
    <path clip-path="url(#p32c9d6c986)" d="M 631.138419 490.162034 
L 634.37859 493.244451 
L 629.968554 493.987138 
L 631.138419 490.162034 
z
" style="stroke:#000000;stroke-linecap:round;"/>
   </g>
   <g id="patch_8">
    <path clip-path="url(#p32c9d6c986)" d="M 459.534634 440.030789 
Q 524.471021 461.335221 588.345086 482.291124 
" style="fill:none;stroke:#000000;stroke-linecap:round;"/>
    <path clip-path="url(#p32c9d6c986)" d="M 585.167873 479.143852 
L 588.345086 482.291124 
L 583.920941 482.944531 
L 585.167873 479.143852 
z
" style="stroke:#000000;stroke-linecap:round;"/>
   </g>
   <g id="patch_9">
    <path clip-path="url(#p32c9d6c986)" d="M 637.981813 504.508873 
Q 529.379527 606.059991 421.593876 706.847494 
" style="fill:none;stroke:#000000;stroke-linecap:round;"/>
    <path clip-path="url(#p32c9d6c986)" d="M 425.881555 705.576347 
L 421.593876 706.847494 
L 423.149566 702.654664 
L 425.881555 705.576347 
z
" style="stroke:#000000;stroke-linecap:round;"/>
   </g>
   <g id="patch_10">
    <path clip-path="url(#p32c9d6c986)" d="M 655.301383 503.357652 
Q 761.604126 579.11399 866.996382 654.221472 
" style="fill:none;stroke:#000000;stroke-linecap:round;"/>
    <path clip-path="url(#p32c9d6c986)" d="M 864.899633 650.271327 
L 866.996382 654.221472 
L 862.578217 653.528784 
L 864.899633 650.271327 
z
" style="stroke:#000000;stroke-linecap:round;"/>
   </g>
   <g id="patch_11">
    <path clip-path="url(#p32c9d6c986)" d="M 645.862751 508.061259 
Q 643.197128 604.912665 640.562264 700.646459 
" style="fill:none;stroke:#000000;stroke-linecap:round;"/>
    <path clip-path="url(#p32c9d6c986)" d="M 642.671557 696.702998 
L 640.562264 700.646459 
L 638.673071 696.592948 
L 642.671557 696.702998 
z
" style="stroke:#000000;stroke-linecap:round;"/>
   </g>
   <g id="patch_12">
    <path clip-path="url(#p32c9d6c986)" d="M 652.88359 487.86928 
Q 750.207686 357.63846 846.862499 228.303218 
" style="fill:none;stroke:#000000;stroke-linecap:round;"/>
    <path clip-path="url(#p32c9d6c986)" d="M 842.86594 230.310085 
L 846.862499 228.303218 
L 846.070057 232.704585 
L 842.86594 230.310085 
z
" style="stroke:#000000;stroke-linecap:round;"/>
   </g>
   <g id="patch_13">
    <path clip-path="url(#p32c9d6c986)" d="M 637.275288 490.01705 
Q 474.194533 364.735483 312.000392 240.135029 
" style="fill:none;stroke:#000000;stroke-linecap:round;"/>
    <path clip-path="url(#p32c9d6c986)" d="M 313.954028 244.157877 
L 312.000392 240.135029 
L 316.390852 240.985829 
L 313.954028 244.157877 
z
" style="stroke:#000000;stroke-linecap:round;"/>
   </g>
   <g id="patch_14">
    <path clip-path="url(#p32c9d6c986)" d="M 593.299712 495.983499 
Q 506.782043 601.55848 420.973034 706.268704 
" style="fill:none;stroke:#000000;stroke-linecap:round;"/>
    <path clip-path="url(#p32c9d6c986)" d="M 425.055331 704.442548 
L 420.973034 706.268704 
L 421.961487 701.907173 
L 425.055331 704.442548 
z
" style="stroke:#000000;stroke-linecap:round;"/>
   </g>
   <g id="patch_15">
    <path clip-path="url(#p32c9d6c986)" d="M 611.489505 493.048589 
Q 739.616728 574.080908 866.799032 654.515626 
" style="fill:none;stroke:#000000;stroke-linecap:round;"/>
    <path clip-path="url(#p32c9d6c986)" d="M 864.487408 650.687259 
L 866.799032 654.515626 
L 862.349364 654.067905 
L 864.487408 650.687259 
z
" style="stroke:#000000;stroke-linecap:round;"/>
   </g>
   <g id="patch_16">
    <path clip-path="url(#p32c9d6c986)" d="M 603.249681 498.580393 
Q 621.353389 600.211571 639.261026 700.742042 
" style="fill:none;stroke:#000000;stroke-linecap:round;"/>
    <path clip-path="url(#p32c9d6c986)" d="M 640.528547 696.453291 
L 639.261026 700.742042 
L 636.590537 697.154774 
L 640.528547 696.453291 
z
" style="stroke:#000000;stroke-linecap:round;"/>
   </g>
   <g id="patch_17">
    <path clip-path="url(#p32c9d6c986)" d="M 609.555013 477.5469 
Q 728.303888 352.277447 846.283594 227.8194 
" style="fill:none;stroke:#000000;stroke-linecap:round;"/>
    <path clip-path="url(#p32c9d6c986)" d="M 842.080244 229.346439 
L 846.283594 227.8194 
L 844.983215 232.098303 
L 842.080244 229.346439 
z
" style="stroke:#000000;stroke-linecap:round;"/>
   </g>
   <g id="patch_18">
    <path clip-path="url(#p32c9d6c986)" d="M 591.727252 478.506385 
Q 451.337646 359.082641 311.799637 240.383315 
" style="fill:none;stroke:#000000;stroke-linecap:round;"/>
    <path clip-path="url(#p32c9d6c986)" d="M 313.550523 244.498458 
L 311.799637 240.383315 
L 316.142283 241.451692 
L 313.550523 244.498458 
z
" style="stroke:#000000;stroke-linecap:round;"/>
   </g>
   <g id="patch_19">
    <path clip-path="url(#p32c9d6c986)" d="M 540.88099 500.870036 
Q 731.523124 405.933651 921.164451 311.495651 
" style="fill:none;stroke:#000000;stroke-linecap:round;"/>
    <path clip-path="url(#p32c9d6c986)" d="M 916.692321 311.488426 
L 921.164451 311.495651 
L 918.475393 315.06902 
L 916.692321 311.488426 
z
" style="stroke:#000000;stroke-linecap:round;"/>
   </g>
   <g id="patch_20">
    <path clip-path="url(#p32c9d6c986)" d="M 805.474217 223.401107 
Q 864.014979 264.645213 921.641765 305.245388 
" style="fill:none;stroke:#000000;stroke-linecap:round;"/>
    <path clip-path="url(#p32c9d6c986)" d="M 919.523719 301.306622 
L 921.641765 305.245388 
L 917.219924 304.576565 
L 919.523719 301.306622 
z
" style="stroke:#000000;stroke-linecap:round;"/>
   </g>
   <g id="patch_21">
    <path clip-path="url(#p32c9d6c986)" d="M 957.125283 373.398278 
Q 942.950549 343.345461 929.252759 314.303845 
" style="fill:none;stroke:#000000;stroke-linecap:round;"/>
    <path clip-path="url(#p32c9d6c986)" d="M 929.150233 318.774805 
L 929.252759 314.303845 
L 932.768012 317.068441 
L 929.150233 318.774805 
z
" style="stroke:#000000;stroke-linecap:round;"/>
   </g>
   <g id="patch_22">
    <path clip-path="url(#p32c9d6c986)" d="M 953.589106 434.104059 
Q 940.64133 373.882114 927.928561 314.753225 
" style="fill:none;stroke:#000000;stroke-linecap:round;"/>
    <path clip-path="url(#p32c9d6c986)" d="M 926.814034 319.084256 
L 927.928561 314.753225 
L 930.72467 318.243465 
L 926.814034 319.084256 
z
" style="stroke:#000000;stroke-linecap:round;"/>
   </g>
   <g id="patch_23">
    <path clip-path="url(#p32c9d6c986)" d="M 704.928715 581.132191 
Q 814.206181 446.889912 922.777823 313.514704 
" style="fill:none;stroke:#000000;stroke-linecap:round;"/>
    <path clip-path="url(#p32c9d6c986)" d="M 918.701527 315.354218 
L 922.777823 313.514704 
L 921.803656 317.879449 
L 918.701527 315.354218 
z
" style="stroke:#000000;stroke-linecap:round;"/>
   </g>
   <g id="patch_24">
    <path clip-path="url(#p32c9d6c986)" d="M 430.826431 250.180851 
Q 533.443442 351.496374 635.264854 452.026389 
" style="fill:none;stroke:#000000;stroke-linecap:round;"/>
    <path clip-path="url(#p32c9d6c986)" d="M 633.823593 447.79286 
L 635.264854 452.026389 
L 631.013274 450.63928 
L 633.823593 447.79286 
z
" style="stroke:#000000;stroke-linecap:round;"/>
   </g>
   <g id="patch_25">
    <path clip-path="url(#p32c9d6c986)" d="M 846.474619 397.728203 
Q 750.480764 427.514565 655.554719 456.969592 
" style="fill:none;stroke:#000000;stroke-linecap:round;"/>
    <path clip-path="url(#p32c9d6c986)" d="M 659.967741 457.694326 
L 655.554719 456.969592 
L 658.782319 453.874015 
L 659.967741 457.694326 
z
" style="stroke:#000000;stroke-linecap:round;"/>
   </g>
   <g id="patch_26">
    <path clip-path="url(#p32c9d6c986)" d="M 654.762107 462.800001 
Q 797.55595 492.082909 939.254551 521.141215 
" style="fill:none;stroke:#000000;stroke-linecap:round;"/>
    <path clip-path="url(#p32c9d6c986)" d="M 935.737877 518.378426 
L 939.254551 521.141215 
L 934.934315 522.29688 
L 935.737877 518.378426 
z
" style="stroke:#000000;stroke-linecap:round;"/>
   </g>
   <g id="patch_27">
    <path clip-path="url(#p32c9d6c986)" d="M 646.47536 449.818925 
Q 676.444345 323.333363 706.155563 197.935715 
" style="fill:none;stroke:#000000;stroke-linecap:round;"/>
    <path clip-path="url(#p32c9d6c986)" d="M 703.287232 201.366848 
L 706.155563 197.935715 
L 707.179471 202.28906 
L 703.287232 201.366848 
z
" style="stroke:#000000;stroke-linecap:round;"/>
   </g>
   <g id="patch_28">
    <path clip-path="url(#p32c9d6c986)" d="M 633.067719 462.66417 
Q 429.83817 501.711984 227.706572 540.548841 
" style="fill:none;stroke:#000000;stroke-linecap:round;"/>
    <path clip-path="url(#p32c9d6c986)" d="M 232.012093 541.758175 
L 227.706572 540.548841 
L 231.257352 537.830025 
L 232.012093 541.758175 
z
" style="stroke:#000000;stroke-linecap:round;"/>
   </g>
   <g id="patch_29">
    <path clip-path="url(#p32c9d6c986)" d="M 648.257273 470.754288 
Q 695.128266 580.883306 741.561427 689.983586 
" style="fill:none;stroke:#000000;stroke-linecap:round;"/>
    <path clip-path="url(#p32c9d6c986)" d="M 741.835256 685.519842 
L 741.561427 689.983586 
L 738.154729 687.086277 
L 741.835256 685.519842 
z
" style="stroke:#000000;stroke-linecap:round;"/>
   </g>
   <g id="patch_30">
    <path clip-path="url(#p32c9d6c986)" d="M 506.26462 362.516541 
Q 405.104203 330.515464 305.009756 298.851596 
" style="fill:none;stroke:#000000;stroke-linecap:round;"/>
    <path clip-path="url(#p32c9d6c986)" d="M 308.220266 301.964894 
L 305.009756 298.851596 
L 309.4267 298.151166 
L 308.220266 301.964894 
z
" style="stroke:#000000;stroke-linecap:round;"/>
   </g>
   <g id="patch_31">
    <path clip-path="url(#p32c9d6c986)" d="M 518.144457 355.83474 
Q 538.441143 272.672733 558.47274 190.596879 
" style="fill:none;stroke:#000000;stroke-linecap:round;"/>
    <path clip-path="url(#p32c9d6c986)" d="M 555.581361 194.008612 
L 558.47274 190.596879 
L 559.467299 194.957022 
L 555.581361 194.008612 
z
" style="stroke:#000000;stroke-linecap:round;"/>
   </g>
   <g id="patch_32">
    <path clip-path="url(#p32c9d6c986)" d="M 506.09585 367.940221 
Q 392.845238 396.17166 280.679461 424.132668 
" style="fill:none;stroke:#000000;stroke-linecap:round;"/>
    <path clip-path="url(#p32c9d6c986)" d="M 285.044447 425.105757 
L 280.679461 424.132668 
L 284.076924 421.224533 
L 285.044447 425.105757 
z
" style="stroke:#000000;stroke-linecap:round;"/>
   </g>
   <g id="patch_33">
    <path clip-path="url(#p32c9d6c986)" d="M 572.114827 310.762367 
Q 438.145015 303.993275 305.291812 297.280603 
" style="fill:none;stroke:#000000;stroke-linecap:round;"/>
    <path clip-path="url(#p32c9d6c986)" d="M 309.185791 299.479905 
L 305.291812 297.280603 
L 309.387641 295.485001 
L 309.185791 299.479905 
z
" style="stroke:#000000;stroke-linecap:round;"/>
   </g>
   <g id="patch_34">
    <path clip-path="url(#p32c9d6c986)" d="M 579.226268 302.81374 
Q 570.004142 246.203166 560.96178 190.696079 
" style="fill:none;stroke:#000000;stroke-linecap:round;"/>
    <path clip-path="url(#p32c9d6c986)" d="M 559.630942 194.965607 
L 560.96178 190.696079 
L 563.5789 194.322466 
L 559.630942 194.965607 
z
" style="stroke:#000000;stroke-linecap:round;"/>
   </g>
   <g id="patch_35">
    <path clip-path="url(#p32c9d6c986)" d="M 572.643499 314.162739 
Q 426.028546 368.992536 280.460794 423.430709 
" style="fill:none;stroke:#000000;stroke-linecap:round;"/>
    <path clip-path="url(#p32c9d6c986)" d="M 284.907933 423.902885 
L 280.460794 423.430709 
L 283.506819 420.156303 
L 284.907933 423.902885 
z
" style="stroke:#000000;stroke-linecap:round;"/>
   </g>
   <g id="patch_36">
    <path clip-path="url(#p32c9d6c986)" d="M 232.14896 431.498945 
Q 315.60174 496.684381 398.173421 561.181585 
" style="fill:none;stroke:#000000;stroke-linecap:round;"/>
    <path clip-path="url(#p32c9d6c986)" d="M 396.252249 557.143133 
L 398.173421 561.181585 
L 393.789956 560.295451 
L 396.252249 557.143133 
z
" style="stroke:#000000;stroke-linecap:round;"/>
   </g>
   <g id="patch_37">
    <path clip-path="url(#p32c9d6c986)" d="M 234.931929 424.098938 
Q 335.231806 429.79524 434.415449 435.428149 
" style="fill:none;stroke:#000000;stroke-linecap:round;"/>
    <path clip-path="url(#p32c9d6c986)" d="M 430.535287 433.204561 
L 434.415449 435.428149 
L 430.308481 437.198126 
L 430.535287 433.204561 
z
" style="stroke:#000000;stroke-linecap:round;"/>
   </g>
   <g id="patch_38">
    <path clip-path="url(#p32c9d6c986)" d="M 310.651653 621.717601 
Q 354.276233 598.44937 396.914328 575.707303 
" style="fill:none;stroke:#000000;stroke-linecap:round;"/>
    <path clip-path="url(#p32c9d6c986)" d="M 392.443744 575.825093 
L 396.914328 575.707303 
L 394.326209 579.354445 
L 392.443744 575.825093 
z
" style="stroke:#000000;stroke-linecap:round;"/>
   </g>
   <g id="patch_39">
    <path clip-path="url(#p32c9d6c986)" d="M 309.188239 620.010403 
Q 374.79833 533.018481 439.735198 446.919179 
" style="fill:none;stroke:#000000;stroke-linecap:round;"/>
    <path clip-path="url(#p32c9d6c986)" d="M 435.729836 448.908418 
L 439.735198 446.919179 
L 438.923372 451.317012 
L 435.729836 448.908418 
z
" style="stroke:#000000;stroke-linecap:round;"/>
   </g>
   <g id="patch_40">
    <path clip-path="url(#p32c9d6c986)" d="M 394.574168 624.132399 
Q 400.110551 602.706321 405.367226 582.362724 
" style="fill:none;stroke:#000000;stroke-linecap:round;"/>
    <path clip-path="url(#p32c9d6c986)" d="M 402.430115 585.735168 
L 405.367226 582.362724 
L 406.302915 586.735879 
L 402.430115 585.735168 
z
" style="stroke:#000000;stroke-linecap:round;"/>
   </g>
   <g id="patch_41">
    <path clip-path="url(#p32c9d6c986)" d="M 394.852268 624.211837 
Q 419.669386 536.129606 444.183304 449.12351 
" style="fill:none;stroke:#000000;stroke-linecap:round;"/>
    <path clip-path="url(#p32c9d6c986)" d="M 441.173489 452.431231 
L 444.183304 449.12351 
L 445.023591 453.515995 
L 441.173489 452.431231 
z
" style="stroke:#000000;stroke-linecap:round;"/>
   </g>
   <g id="patch_42">
    <path clip-path="url(#p32c9d6c986)" d="M 576.380843 569.389509 
Q 498.675618 569.400934 422.088427 569.412194 
" style="fill:none;stroke:#000000;stroke-linecap:round;"/>
    <path clip-path="url(#p32c9d6c986)" d="M 426.088721 571.411606 
L 422.088427 569.412194 
L 426.088133 567.411606 
L 426.088721 571.411606 
z
" style="stroke:#000000;stroke-linecap:round;"/>
   </g>
   <g id="patch_43">
    <path clip-path="url(#p32c9d6c986)" d="M 580.570624 558.666116 
Q 518.724973 501.603904 457.70103 445.299844 
" style="fill:none;stroke:#000000;stroke-linecap:round;"/>
    <path clip-path="url(#p32c9d6c986)" d="M 459.284637 449.482211 
L 457.70103 445.299844 
L 461.997088 446.54238 
L 459.284637 449.482211 
z
" style="stroke:#000000;stroke-linecap:round;"/>
   </g>
   <g id="PathCollection_1">
    <path clip-path="url(#p32c9d6c986)" d="M 611.389245 395.980648 
C 614.09061 395.980648 616.681697 394.907384 618.59185 392.997231 
C 620.502003 391.087078 621.575267 388.495991 621.575267 385.794627 
C 621.575267 383.093262 620.502003 380.502175 618.59185 378.592022 
C 616.681697 376.681869 614.09061 375.608605 611.389245 375.608605 
C 608.687881 375.608605 606.096794 376.681869 604.186641 378.592022 
C 602.276488 380.502175 601.203224 383.093262 601.203224 385.794627 
C 601.203224 388.495991 602.276488 391.087078 604.186641 392.997231 
C 606.096794 394.907384 608.687881 395.980648 611.389245 395.980648 
z
" style="fill:#bbd1f8;stroke:#bbd1f8;"/>
    <path clip-path="url(#p32c9d6c986)" d="M 945.473257 527.642712 
C 946.859266 527.642712 948.188695 527.092045 949.168752 526.111988 
C 950.148809 525.131931 950.699476 523.802502 950.699476 522.416493 
C 950.699476 521.030483 950.148809 519.701055 949.168752 518.720998 
C 948.188695 517.740941 946.859266 517.190274 945.473257 517.190274 
C 944.087247 517.190274 942.757819 517.740941 941.777762 518.720998 
C 940.797705 519.701055 940.247038 521.030483 940.247038 522.416493 
C 940.247038 523.802502 940.797705 525.131931 941.777762 526.111988 
C 942.757819 527.092045 944.087247 527.642712 945.473257 527.642712 
z
" style="fill:#3b4cc0;stroke:#3b4cc0;"/>
    <path clip-path="url(#p32c9d6c986)" d="M 416.908045 716.522241 
C 418.311805 716.522241 419.658259 715.964521 420.650867 714.971913 
C 421.643475 713.979305 422.201195 712.632851 422.201195 711.229091 
C 422.201195 709.825331 421.643475 708.478877 420.650867 707.486269 
C 419.658259 706.493661 418.311805 705.935941 416.908045 705.935941 
C 415.504286 705.935941 414.157831 706.493661 413.165223 707.486269 
C 412.172615 708.478877 411.614896 709.825331 411.614896 711.229091 
C 411.614896 712.632851 412.172615 713.979305 413.165223 714.971913 
C 414.157831 715.964521 415.504286 716.522241 416.908045 716.522241 
z
" style="fill:#d44e41;stroke:#d44e41;"/>
    <path clip-path="url(#p32c9d6c986)" d="M 872.219682 663.236992 
C 873.623442 663.236992 874.969896 662.679272 875.962504 661.686664 
C 876.955112 660.694056 877.512832 659.347602 877.512832 657.943842 
C 877.512832 656.540082 876.955112 655.193628 875.962504 654.20102 
C 874.969896 653.208412 873.623442 652.650692 872.219682 652.650692 
C 870.815922 652.650692 869.469468 653.208412 868.47686 654.20102 
C 867.484252 655.193628 866.926532 656.540082 866.926532 657.943842 
C 866.926532 659.347602 867.484252 660.694056 868.47686 661.686664 
C 869.469468 662.679272 870.815922 663.236992 872.219682 663.236992 
z
" style="fill:#d2dbe8;stroke:#d2dbe8;"/>
    <path clip-path="url(#p32c9d6c986)" d="M 221.698038 487.464433 
C 223.116836 487.464433 224.477714 486.900738 225.480955 485.897497 
C 226.484196 484.894256 227.047891 483.533378 227.047891 482.11458 
C 227.047891 480.695783 226.484196 479.334905 225.480955 478.331663 
C 224.477714 477.328422 223.116836 476.764728 221.698038 476.764728 
C 220.279241 476.764728 218.918363 477.328422 217.915121 478.331663 
C 216.91188 479.334905 216.348186 480.695783 216.348186 482.11458 
C 216.348186 483.533378 216.91188 484.894256 217.915121 485.897497 
C 218.918363 486.900738 220.279241 487.464433 221.698038 487.464433 
z
" style="fill:#4358cb;stroke:#4358cb;"/>
    <path clip-path="url(#p32c9d6c986)" d="M 640.191344 166.760762 
C 641.610141 166.760762 642.97102 166.197067 643.974261 165.193826 
C 644.977502 164.190585 645.541196 162.829707 645.541196 161.410909 
C 645.541196 159.992112 644.977502 158.631233 643.974261 157.627992 
C 642.97102 156.624751 641.610141 156.061057 640.191344 156.061057 
C 638.772547 156.061057 637.411668 156.624751 636.408427 157.627992 
C 635.405186 158.631233 634.841492 159.992112 634.841492 161.410909 
C 634.841492 162.829707 635.405186 164.190585 636.408427 165.193826 
C 637.411668 166.197067 638.772547 166.760762 640.191344 166.760762 
z
" style="fill:#d3dbe7;stroke:#d3dbe7;"/>
    <path clip-path="url(#p32c9d6c986)" d="M 408.713064 581.67073 
C 411.963544 581.67073 415.081331 580.379301 417.379768 578.080864 
C 419.678205 575.782427 420.969634 572.664641 420.969634 569.41416 
C 420.969634 566.16368 419.678205 563.045893 417.379768 560.747456 
C 415.081331 558.44902 411.963544 557.15759 408.713064 557.15759 
C 405.462584 557.15759 402.344797 558.44902 400.04636 560.747456 
C 397.747923 563.045893 396.456494 566.16368 396.456494 569.41416 
C 396.456494 572.664641 397.747923 575.782427 400.04636 578.080864 
C 402.344797 580.379301 405.462584 581.67073 408.713064 581.67073 
z
" style="fill:#dadce0;stroke:#dadce0;"/>
    <path clip-path="url(#p32c9d6c986)" d="M 447.827356 448.507811 
C 451.094118 448.507811 454.227522 447.209913 456.537472 444.899963 
C 458.847422 442.590013 460.14532 439.456609 460.14532 436.189847 
C 460.14532 432.923085 458.847422 429.789681 456.537472 427.479732 
C 454.227522 425.169782 451.094118 423.871884 447.827356 423.871884 
C 444.560594 423.871884 441.42719 425.169782 439.117241 427.479732 
C 436.807291 429.789681 435.509393 432.923085 435.509393 436.189847 
C 435.509393 439.456609 436.807291 442.590013 439.117241 444.899963 
C 441.42719 447.209913 444.560594 448.507811 447.827356 448.507811 
z
" style="fill:#b5cdfa;stroke:#b5cdfa;"/>
    <path clip-path="url(#p32c9d6c986)" d="M 926.641744 313.768056 
C 927.96776 313.768056 929.239644 313.241225 930.177278 312.30359 
C 931.114913 311.365955 931.641744 310.094072 931.641744 308.768056 
C 931.641744 307.442041 931.114913 306.170157 930.177278 305.232522 
C 929.239644 304.294888 927.96776 303.768056 926.641744 303.768056 
C 925.315729 303.768056 924.043845 304.294888 923.10621 305.232522 
C 922.168576 306.170157 921.641744 307.442041 921.641744 308.768056 
C 921.641744 310.094072 922.168576 311.365955 923.10621 312.30359 
C 924.043845 313.241225 925.315729 313.768056 926.641744 313.768056 
z
" style="fill:#c7d7f0;stroke:#c7d7f0;"/>
    <path clip-path="url(#p32c9d6c986)" d="M 646.171285 508.066386 
C 649.14561 508.066386 651.998514 506.884674 654.101679 504.781509 
C 656.204844 502.678344 657.386556 499.825439 657.386556 496.851115 
C 657.386556 493.87679 656.204844 491.023886 654.101679 488.920721 
C 651.998514 486.817556 649.14561 485.635844 646.171285 485.635844 
C 643.196961 485.635844 640.344056 486.817556 638.240891 488.920721 
C 636.137726 491.023886 634.956014 493.87679 634.956014 496.851115 
C 634.956014 499.825439 636.137726 502.678344 638.240891 504.781509 
C 640.344056 506.884674 643.196961 508.066386 646.171285 508.066386 
z
" style="fill:#f7b396;stroke:#f7b396;"/>
    <path clip-path="url(#p32c9d6c986)" d="M 601.093063 498.771034 
C 604.354407 498.771034 607.482614 497.475288 609.788732 495.16917 
C 612.094851 492.863051 613.390596 489.734845 613.390596 486.473501 
C 613.390596 483.212157 612.094851 480.08395 609.788732 477.777831 
C 607.482614 475.471713 604.354407 474.175967 601.093063 474.175967 
C 597.831719 474.175967 594.703512 475.471713 592.397394 477.777831 
C 590.091275 480.08395 588.79553 483.212157 588.79553 486.473501 
C 588.79553 489.734845 590.091275 492.863051 592.397394 495.16917 
C 594.703512 497.475288 597.831719 498.771034 601.093063 498.771034 
z
" style="fill:#c9d7f0;stroke:#c9d7f0;"/>
    <path clip-path="url(#p32c9d6c986)" d="M 640.38584 712.349712 
C 641.7896 712.349712 643.136054 711.791993 644.128662 710.799385 
C 645.12127 709.806777 645.67899 708.460322 645.67899 707.056562 
C 645.67899 705.652803 645.12127 704.306348 644.128662 703.31374 
C 643.136054 702.321132 641.7896 701.763413 640.38584 701.763413 
C 638.98208 701.763413 637.635626 702.321132 636.643018 703.31374 
C 635.65041 704.306348 635.09269 705.652803 635.09269 707.056562 
C 635.09269 708.460322 635.65041 709.806777 636.643018 710.799385 
C 637.635626 711.791993 638.98208 712.349712 640.38584 712.349712 
z
" style="fill:#8db0fe;stroke:#8db0fe;"/>
    <path clip-path="url(#p32c9d6c986)" d="M 850.72724 228.472195 
C 852.143542 228.472195 853.502027 227.909492 854.503504 226.908015 
C 855.504981 225.906538 856.067684 224.548053 856.067684 223.131751 
C 856.067684 221.715449 855.504981 220.356964 854.503504 219.355487 
C 853.502027 218.35401 852.143542 217.791307 850.72724 217.791307 
C 849.310938 217.791307 847.952453 218.35401 846.950976 219.355487 
C 845.949499 220.356964 845.386796 221.715449 845.386796 223.131751 
C 845.386796 224.548053 845.949499 225.906538 846.950976 226.908015 
C 847.952453 227.909492 849.310938 228.472195 850.72724 228.472195 
z
" style="fill:#f3c7b1;stroke:#f3c7b1;"/>
    <path clip-path="url(#p32c9d6c986)" d="M 306.917259 241.523224 
C 308.321019 241.523224 309.667473 240.965505 310.660081 239.972896 
C 311.652689 238.980288 312.210409 237.633834 312.210409 236.230074 
C 312.210409 234.826315 311.652689 233.47986 310.660081 232.487252 
C 309.667473 231.494644 308.321019 230.936925 306.917259 230.936925 
C 305.513499 230.936925 304.167045 231.494644 303.174437 232.487252 
C 302.181829 233.47986 301.624109 234.826315 301.624109 236.230074 
C 301.624109 237.633834 302.181829 238.980288 303.174437 239.972896 
C 304.167045 240.965505 305.513499 241.523224 306.917259 241.523224 
z
" style="fill:#7ea1fa;stroke:#7ea1fa;"/>
    <path clip-path="url(#p32c9d6c986)" d="M 479.365649 187.461693 
C 480.784446 187.461693 482.145324 186.897998 483.148565 185.894757 
C 484.151807 184.891516 484.715501 183.530638 484.715501 182.11184 
C 484.715501 180.693043 484.151807 179.332165 483.148565 178.328923 
C 482.145324 177.325682 480.784446 176.761988 479.365649 176.761988 
C 477.946851 176.761988 476.585973 177.325682 475.582732 178.328923 
C 474.57949 179.332165 474.015796 180.693043 474.015796 182.11184 
C 474.015796 183.530638 474.57949 184.891516 475.582732 185.894757 
C 476.585973 186.897998 477.946851 187.461693 479.365649 187.461693 
z
" style="fill:#b3cdfb;stroke:#b3cdfb;"/>
    <path clip-path="url(#p32c9d6c986)" d="M 299.045995 302.103905 
C 300.408843 302.103905 301.716056 301.56244 302.679736 300.598761 
C 303.643415 299.635082 304.18488 298.327869 304.18488 296.96502 
C 304.18488 295.602172 303.643415 294.294959 302.679736 293.33128 
C 301.716056 292.367601 300.408843 291.826136 299.045995 291.826136 
C 297.683147 291.826136 296.375934 292.367601 295.412255 293.33128 
C 294.448576 294.294959 293.907111 295.602172 293.907111 296.96502 
C 293.907111 298.327869 294.448576 299.635082 295.412255 300.598761 
C 296.375934 301.56244 297.683147 302.103905 299.045995 302.103905 
z
" style="fill:#f0cdbb;stroke:#f0cdbb;"/>
    <path clip-path="url(#p32c9d6c986)" d="M 559.955751 189.659393 
C 561.318599 189.659393 562.625812 189.117928 563.589491 188.154249 
C 564.55317 187.19057 565.094636 185.883357 565.094636 184.520509 
C 565.094636 183.157661 564.55317 181.850448 563.589491 180.886769 
C 562.625812 179.923089 561.318599 179.381624 559.955751 179.381624 
C 558.592903 179.381624 557.28569 179.923089 556.322011 180.886769 
C 555.358332 181.850448 554.816866 183.157661 554.816866 184.520509 
C 554.816866 185.883357 555.358332 187.19057 556.322011 188.154249 
C 557.28569 189.117928 558.592903 189.659393 559.955751 189.659393 
z
" style="fill:#8db0fe;stroke:#8db0fe;"/>
    <path clip-path="url(#p32c9d6c986)" d="M 274.393919 431.058791 
C 275.815207 431.058791 277.178475 430.494107 278.183477 429.489104 
C 279.18848 428.484102 279.753164 427.120834 279.753164 425.699546 
C 279.753164 424.278258 279.18848 422.91499 278.183477 421.909988 
C 277.178475 420.904985 275.815207 420.340301 274.393919 420.340301 
C 272.972631 420.340301 271.609364 420.904985 270.604361 421.909988 
C 269.599358 422.91499 269.034675 424.278258 269.034675 425.699546 
C 269.034675 427.120834 269.599358 428.484102 270.604361 429.489104 
C 271.609364 430.494107 272.972631 431.058791 274.393919 431.058791 
z
" style="fill:#bed2f6;stroke:#bed2f6;"/>
    <path clip-path="url(#p32c9d6c986)" d="M 536.171105 508.480044 
C 537.567285 508.480044 538.906469 507.925336 539.893717 506.938088 
C 540.880966 505.950839 541.435674 504.611655 541.435674 503.215475 
C 541.435674 501.819295 540.880966 500.480111 539.893717 499.492862 
C 538.906469 498.505614 537.567285 497.950905 536.171105 497.950905 
C 534.774924 497.950905 533.43574 498.505614 532.448492 499.492862 
C 531.461243 500.480111 530.906535 501.819295 530.906535 503.215475 
C 530.906535 504.611655 531.461243 505.950839 532.448492 506.938088 
C 533.43574 507.925336 534.774924 508.480044 536.171105 508.480044 
z
" style="fill:#aec9fc;stroke:#aec9fc;"/>
    <path clip-path="url(#p32c9d6c986)" d="M 799.787291 226.346785 
C 801.631069 226.346785 803.399579 225.614244 804.703327 224.310496 
C 806.007075 223.006748 806.739616 221.238238 806.739616 219.39446 
C 806.739616 217.550682 806.007075 215.782172 804.703327 214.478424 
C 803.399579 213.174676 801.631069 212.442135 799.787291 212.442135 
C 797.943512 212.442135 796.175002 213.174676 794.871254 214.478424 
C 793.567506 215.782172 792.834966 217.550682 792.834966 219.39446 
C 792.834966 221.238238 793.567506 223.006748 794.871254 224.310496 
C 796.175002 225.614244 797.943512 226.346785 799.787291 226.346785 
z
" style="fill:#9dbdff;stroke:#9dbdff;"/>
    <path clip-path="url(#p32c9d6c986)" d="M 959.32562 383.221781 
C 960.693649 383.221781 962.005831 382.678257 962.973174 381.710915 
C 963.940516 380.743572 964.48404 379.43139 964.48404 378.063361 
C 964.48404 376.695332 963.940516 375.38315 962.973174 374.415807 
C 962.005831 373.448464 960.693649 372.904941 959.32562 372.904941 
C 957.957591 372.904941 956.645409 373.448464 955.678066 374.415807 
C 954.710723 375.38315 954.1672 376.695332 954.1672 378.063361 
C 954.1672 379.43139 954.710723 380.743572 955.678066 381.710915 
C 956.645409 382.678257 957.957591 383.221781 959.32562 383.221781 
z
" style="fill:#dfdbd9;stroke:#dfdbd9;"/>
    <path clip-path="url(#p32c9d6c986)" d="M 955.066375 448.006491 
C 956.931136 448.006491 958.719772 447.265614 960.038357 445.947029 
C 961.356943 444.628443 962.09782 442.839807 962.09782 440.975046 
C 962.09782 439.110285 961.356943 437.321649 960.038357 436.003064 
C 958.719772 434.684479 956.931136 433.943601 955.066375 433.943601 
C 953.201614 433.943601 951.412978 434.684479 950.094393 436.003064 
C 948.775808 437.321649 948.03493 439.110285 948.03493 440.975046 
C 948.03493 442.839807 948.775808 444.628443 950.094393 445.947029 
C 951.412978 447.265614 953.201614 448.006491 955.066375 448.006491 
z
" style="fill:#b40426;stroke:#b40426;"/>
    <path clip-path="url(#p32c9d6c986)" d="M 700.513881 593.551202 
C 702.369133 593.551202 704.14865 592.814102 705.460511 591.502241 
C 706.772373 590.190379 707.509473 588.410863 707.509473 586.55561 
C 707.509473 584.700357 706.772373 582.920841 705.460511 581.608979 
C 704.14865 580.297118 702.369133 579.560018 700.513881 579.560018 
C 698.658628 579.560018 696.879112 580.297118 695.56725 581.608979 
C 694.255388 582.920841 693.518288 584.700357 693.518288 586.55561 
C 693.518288 588.410863 694.255388 590.190379 695.56725 591.502241 
C 696.879112 592.814102 698.658628 593.551202 700.513881 593.551202 
z
" style="fill:#93b5fe;stroke:#93b5fe;"/>
    <path clip-path="url(#p32c9d6c986)" d="M 707.61778 196.990578 
C 709.003789 196.990578 710.333218 196.439911 711.313275 195.459854 
C 712.293332 194.479798 712.843999 193.150369 712.843999 191.764359 
C 712.843999 190.37835 712.293332 189.048921 711.313275 188.068864 
C 710.333218 187.088808 709.003789 186.53814 707.61778 186.53814 
C 706.23177 186.53814 704.902342 187.088808 703.922285 188.068864 
C 702.942228 189.048921 702.391561 190.37835 702.391561 191.764359 
C 702.391561 193.150369 702.942228 194.479798 703.922285 195.459854 
C 704.902342 196.439911 706.23177 196.990578 707.61778 196.990578 
z
" style="fill:#ead4c8;stroke:#ead4c8;"/>
    <path clip-path="url(#p32c9d6c986)" d="M 221.47438 546.972492 
C 222.86039 546.972492 224.189818 546.421824 225.169875 545.441768 
C 226.149932 544.461711 226.700599 543.132282 226.700599 541.746273 
C 226.700599 540.360263 226.149932 539.030835 225.169875 538.050778 
C 224.189818 537.070721 222.86039 536.520054 221.47438 536.520054 
C 220.088371 536.520054 218.758942 537.070721 217.778885 538.050778 
C 216.798828 539.030835 216.248161 540.360263 216.248161 541.746273 
C 216.248161 543.132282 216.798828 544.461711 217.778885 545.441768 
C 218.758942 546.421824 220.088371 546.972492 221.47438 546.972492 
z
" style="fill:#a7c5fe;stroke:#a7c5fe;"/>
    <path clip-path="url(#p32c9d6c986)" d="M 744.047011 701.049981 
C 745.43302 701.049981 746.762449 700.499314 747.742506 699.519257 
C 748.722562 698.5392 749.27323 697.209772 749.27323 695.823762 
C 749.27323 694.437753 748.722562 693.108324 747.742506 692.128267 
C 746.762449 691.14821 745.43302 690.597543 744.047011 690.597543 
C 742.661001 690.597543 741.331572 691.14821 740.351516 692.128267 
C 739.371459 693.108324 738.820791 694.437753 738.820791 695.823762 
C 738.820791 697.209772 739.371459 698.5392 740.351516 699.519257 
C 741.331572 700.499314 742.661001 701.049981 744.047011 701.049981 
z
" style="fill:#aac7fd;stroke:#aac7fd;"/>
    <path clip-path="url(#p32c9d6c986)" d="M 427.104439 251.732284 
C 428.490448 251.732284 429.819877 251.181617 430.799934 250.20156 
C 431.779991 249.221503 432.330658 247.892075 432.330658 246.506065 
C 432.330658 245.120056 431.779991 243.790627 430.799934 242.81057 
C 429.819877 241.830513 428.490448 241.279846 427.104439 241.279846 
C 425.718429 241.279846 424.389001 241.830513 423.408944 242.81057 
C 422.428887 243.790627 421.87822 245.120056 421.87822 246.506065 
C 421.87822 247.892075 422.428887 249.221503 423.408944 250.20156 
C 424.389001 251.181617 425.718429 251.732284 427.104439 251.732284 
z
" style="fill:#9ebeff;stroke:#9ebeff;"/>
    <path clip-path="url(#p32c9d6c986)" d="M 858.016055 406.229968 
C 861.220506 406.229968 864.294143 404.956826 866.560032 402.690937 
C 868.825922 400.425048 870.099064 397.351411 870.099064 394.146959 
C 870.099064 390.942508 868.825922 387.868871 866.560032 385.602982 
C 864.294143 383.337092 861.220506 382.06395 858.016055 382.06395 
C 854.811603 382.06395 851.737967 383.337092 849.472077 385.602982 
C 847.206188 387.868871 845.933046 390.942508 845.933046 394.146959 
C 845.933046 397.351411 847.206188 400.425048 849.472077 402.690937 
C 851.737967 404.956826 854.811603 406.229968 858.016055 406.229968 
z
" style="fill:#b1cbfc;stroke:#b1cbfc;"/>
    <path clip-path="url(#p32c9d6c986)" d="M 643.92618 471.635077 
C 646.858587 471.635077 649.671285 470.470019 651.74481 468.396494 
C 653.818335 466.322969 654.983392 463.510271 654.983392 460.577864 
C 654.983392 457.645457 653.818335 454.832759 651.74481 452.759234 
C 649.671285 450.685709 646.858587 449.520651 643.92618 449.520651 
C 640.993772 449.520651 638.181074 450.685709 636.107549 452.759234 
C 634.034024 454.832759 632.868967 457.645457 632.868967 460.577864 
C 632.868967 463.510271 634.034024 466.322969 636.107549 468.396494 
C 638.181074 470.470019 640.993772 471.635077 643.92618 471.635077 
z
" style="fill:#cdd9ec;stroke:#cdd9ec;"/>
    <path clip-path="url(#p32c9d6c986)" d="M 515.779102 375.502856 
C 518.424902 375.502856 520.962693 374.451668 522.833556 372.580805 
C 524.704419 370.709943 525.755606 368.172152 525.755606 365.526352 
C 525.755606 362.880552 524.704419 360.342762 522.833556 358.471899 
C 520.962693 356.601036 518.424902 355.549849 515.779102 355.549849 
C 513.133303 355.549849 510.595512 356.601036 508.724649 358.471899 
C 506.853786 360.342762 505.802599 362.880552 505.802599 365.526352 
C 505.802599 368.172152 506.853786 370.709943 508.724649 372.580805 
C 510.595512 374.451668 513.133303 375.502856 515.779102 375.502856 
z
" style="fill:#d6dce4;stroke:#d6dce4;"/>
    <path clip-path="url(#p32c9d6c986)" d="M 580.590903 319.680159 
C 582.84235 319.680159 585.001887 318.785649 586.593901 317.193636 
C 588.185915 315.601622 589.080424 313.442085 589.080424 311.190638 
C 589.080424 308.93919 588.185915 306.779653 586.593901 305.18764 
C 585.001887 303.595626 582.84235 302.701116 580.590903 302.701116 
C 578.339456 302.701116 576.179919 303.595626 574.587905 305.18764 
C 572.995891 306.779653 572.101382 308.93919 572.101382 311.190638 
C 572.101382 313.442085 572.995891 315.601622 574.587905 317.193636 
C 576.179919 318.785649 578.339456 319.680159 580.590903 319.680159 
z
" style="fill:#b3cdfb;stroke:#b3cdfb;"/>
    <path clip-path="url(#p32c9d6c986)" d="M 221.714161 436.587155 
C 225.225156 436.587155 228.592822 435.192222 231.07547 432.709574 
C 233.558118 430.226926 234.953051 426.85926 234.953051 423.348265 
C 234.953051 419.83727 233.558118 416.469604 231.07547 413.986956 
C 228.592822 411.504308 225.225156 410.109375 221.714161 410.109375 
C 218.203166 410.109375 214.8355 411.504308 212.352852 413.986956 
C 209.870204 416.469604 208.475271 419.83727 208.475271 423.348265 
C 208.475271 426.85926 209.870204 430.226926 212.352852 432.709574 
C 214.8355 435.192222 218.203166 436.587155 221.714161 436.587155 
z
" style="fill:#89acfd;stroke:#89acfd;"/>
    <path clip-path="url(#p32c9d6c986)" d="M 306.049199 629.38902 
C 307.432654 629.38902 308.759633 628.839367 309.737883 627.861116 
C 310.716134 626.882866 311.265787 625.555887 311.265787 624.172432 
C 311.265787 622.788977 310.716134 621.461998 309.737883 620.483748 
C 308.759633 619.505497 307.432654 618.955845 306.049199 618.955845 
C 304.665744 618.955845 303.338765 619.505497 302.360515 620.483748 
C 301.382264 621.461998 300.832612 622.788977 300.832612 624.172432 
C 300.832612 625.555887 301.382264 626.882866 302.360515 627.861116 
C 303.338765 628.839367 304.665744 629.38902 306.049199 629.38902 
z
" style="fill:#d5dbe5;stroke:#d5dbe5;"/>
    <path clip-path="url(#p32c9d6c986)" d="M 391.249689 650.282697 
C 394.772752 650.282697 398.151994 648.882969 400.643176 646.391787 
C 403.134358 643.900606 404.534086 640.521364 404.534086 636.998301 
C 404.534086 633.475237 403.134358 630.095996 400.643176 627.604814 
C 398.151994 625.113632 394.772752 623.713904 391.249689 623.713904 
C 387.726626 623.713904 384.347384 625.113632 381.856202 627.604814 
C 379.365021 630.095996 377.965293 633.475237 377.965293 636.998301 
C 377.965293 640.521364 379.365021 643.900606 381.856202 646.391787 
C 384.347384 648.882969 387.726626 650.282697 391.249689 650.282697 
z
" style="fill:#a6c4fe;stroke:#a6c4fe;"/>
    <path clip-path="url(#p32c9d6c986)" d="M 592.190423 585.198573 
C 596.383652 585.198573 600.405702 583.532586 603.370763 580.567525 
C 606.335824 577.602464 608.001811 573.580414 608.001811 569.387185 
C 608.001811 565.193956 606.335824 561.171906 603.370763 558.206845 
C 600.405702 555.241784 596.383652 553.575797 592.190423 553.575797 
C 587.997194 553.575797 583.975144 555.241784 581.010083 558.206845 
C 578.045022 561.171906 576.379035 565.193956 576.379035 569.387185 
C 576.379035 573.580414 578.045022 577.602464 581.010083 580.567525 
C 583.975144 583.532586 587.997194 585.198573 592.190423 585.198573 
z
" style="fill:#d3dbe7;stroke:#d3dbe7;"/>
   </g>
   <g id="text_1">
    <g clip-path="url(#p32c9d6c986)">
     <!-- CD38 -->
     <g transform="translate(597.685339 388.554002)scale(0.1 -0.1)">
      <defs>
       <path d="M 64.40625 67.28125 
L 64.40625 56.890625 
Q 59.421875 61.53125 53.78125 63.8125 
Q 48.140625 66.109375 41.796875 66.109375 
Q 29.296875 66.109375 22.65625 58.46875 
Q 16.015625 50.828125 16.015625 36.375 
Q 16.015625 21.96875 22.65625 14.328125 
Q 29.296875 6.6875 41.796875 6.6875 
Q 48.140625 6.6875 53.78125 8.984375 
Q 59.421875 11.28125 64.40625 15.921875 
L 64.40625 5.609375 
Q 59.234375 2.09375 53.4375 0.328125 
Q 47.65625 -1.421875 41.21875 -1.421875 
Q 24.65625 -1.421875 15.125 8.703125 
Q 5.609375 18.84375 5.609375 36.375 
Q 5.609375 53.953125 15.125 64.078125 
Q 24.65625 74.21875 41.21875 74.21875 
Q 47.75 74.21875 53.53125 72.484375 
Q 59.328125 70.75 64.40625 67.28125 
z
" id="DejaVuSans-67"/>
       <path d="M 19.671875 64.796875 
L 19.671875 8.109375 
L 31.59375 8.109375 
Q 46.6875 8.109375 53.6875 14.9375 
Q 60.6875 21.78125 60.6875 36.53125 
Q 60.6875 51.171875 53.6875 57.984375 
Q 46.6875 64.796875 31.59375 64.796875 
z
M 9.8125 72.90625 
L 30.078125 72.90625 
Q 51.265625 72.90625 61.171875 64.09375 
Q 71.09375 55.28125 71.09375 36.53125 
Q 71.09375 17.671875 61.125 8.828125 
Q 51.171875 0 30.078125 0 
L 9.8125 0 
z
" id="DejaVuSans-68"/>
       <path d="M 40.578125 39.3125 
Q 47.65625 37.796875 51.625 33 
Q 55.609375 28.21875 55.609375 21.1875 
Q 55.609375 10.40625 48.1875 4.484375 
Q 40.765625 -1.421875 27.09375 -1.421875 
Q 22.515625 -1.421875 17.65625 -0.515625 
Q 12.796875 0.390625 7.625 2.203125 
L 7.625 11.71875 
Q 11.71875 9.328125 16.59375 8.109375 
Q 21.484375 6.890625 26.8125 6.890625 
Q 36.078125 6.890625 40.9375 10.546875 
Q 45.796875 14.203125 45.796875 21.1875 
Q 45.796875 27.640625 41.28125 31.265625 
Q 36.765625 34.90625 28.71875 34.90625 
L 20.21875 34.90625 
L 20.21875 43.015625 
L 29.109375 43.015625 
Q 36.375 43.015625 40.234375 45.921875 
Q 44.09375 48.828125 44.09375 54.296875 
Q 44.09375 59.90625 40.109375 62.90625 
Q 36.140625 65.921875 28.71875 65.921875 
Q 24.65625 65.921875 20.015625 65.03125 
Q 15.375 64.15625 9.8125 62.3125 
L 9.8125 71.09375 
Q 15.4375 72.65625 20.34375 73.4375 
Q 25.25 74.21875 29.59375 74.21875 
Q 40.828125 74.21875 47.359375 69.109375 
Q 53.90625 64.015625 53.90625 55.328125 
Q 53.90625 49.265625 50.4375 45.09375 
Q 46.96875 40.921875 40.578125 39.3125 
z
" id="DejaVuSans-51"/>
       <path d="M 31.78125 34.625 
Q 24.75 34.625 20.71875 30.859375 
Q 16.703125 27.09375 16.703125 20.515625 
Q 16.703125 13.921875 20.71875 10.15625 
Q 24.75 6.390625 31.78125 6.390625 
Q 38.8125 6.390625 42.859375 10.171875 
Q 46.921875 13.96875 46.921875 20.515625 
Q 46.921875 27.09375 42.890625 30.859375 
Q 38.875 34.625 31.78125 34.625 
z
M 21.921875 38.8125 
Q 15.578125 40.375 12.03125 44.71875 
Q 8.5 49.078125 8.5 55.328125 
Q 8.5 64.0625 14.71875 69.140625 
Q 20.953125 74.21875 31.78125 74.21875 
Q 42.671875 74.21875 48.875 69.140625 
Q 55.078125 64.0625 55.078125 55.328125 
Q 55.078125 49.078125 51.53125 44.71875 
Q 48 40.375 41.703125 38.8125 
Q 48.828125 37.15625 52.796875 32.3125 
Q 56.78125 27.484375 56.78125 20.515625 
Q 56.78125 9.90625 50.3125 4.234375 
Q 43.84375 -1.421875 31.78125 -1.421875 
Q 19.734375 -1.421875 13.25 4.234375 
Q 6.78125 9.90625 6.78125 20.515625 
Q 6.78125 27.484375 10.78125 32.3125 
Q 14.796875 37.15625 21.921875 38.8125 
z
M 18.3125 54.390625 
Q 18.3125 48.734375 21.84375 45.5625 
Q 25.390625 42.390625 31.78125 42.390625 
Q 38.140625 42.390625 41.71875 45.5625 
Q 45.3125 48.734375 45.3125 54.390625 
Q 45.3125 60.0625 41.71875 63.234375 
Q 38.140625 66.40625 31.78125 66.40625 
Q 25.390625 66.40625 21.84375 63.234375 
Q 18.3125 60.0625 18.3125 54.390625 
z
" id="DejaVuSans-56"/>
      </defs>
      <use xlink:href="#DejaVuSans-67"/>
      <use x="69.824219" xlink:href="#DejaVuSans-68"/>
      <use x="146.826172" xlink:href="#DejaVuSans-51"/>
      <use x="210.449219" xlink:href="#DejaVuSans-56"/>
     </g>
    </g>
   </g>
   <g id="text_2">
    <g clip-path="url(#p32c9d6c986)">
     <!-- ADCY3 -->
     <g transform="translate(928.563882 525.175868)scale(0.1 -0.1)">
      <defs>
       <path d="M 34.1875 63.1875 
L 20.796875 26.90625 
L 47.609375 26.90625 
z
M 28.609375 72.90625 
L 39.796875 72.90625 
L 67.578125 0 
L 57.328125 0 
L 50.6875 18.703125 
L 17.828125 18.703125 
L 11.1875 0 
L 0.78125 0 
z
" id="DejaVuSans-65"/>
       <path d="M -0.203125 72.90625 
L 10.40625 72.90625 
L 30.609375 42.921875 
L 50.6875 72.90625 
L 61.28125 72.90625 
L 35.5 34.71875 
L 35.5 0 
L 25.59375 0 
L 25.59375 34.71875 
z
" id="DejaVuSans-89"/>
      </defs>
      <use xlink:href="#DejaVuSans-65"/>
      <use x="68.408203" xlink:href="#DejaVuSans-68"/>
      <use x="145.410156" xlink:href="#DejaVuSans-67"/>
      <use x="213.484375" xlink:href="#DejaVuSans-89"/>
      <use x="274.568359" xlink:href="#DejaVuSans-51"/>
     </g>
    </g>
   </g>
   <g id="text_3">
    <g clip-path="url(#p32c9d6c986)">
     <!-- PRKCA -->
     <g transform="translate(400.503358 713.988466)scale(0.1 -0.1)">
      <defs>
       <path d="M 19.671875 64.796875 
L 19.671875 37.40625 
L 32.078125 37.40625 
Q 38.96875 37.40625 42.71875 40.96875 
Q 46.484375 44.53125 46.484375 51.125 
Q 46.484375 57.671875 42.71875 61.234375 
Q 38.96875 64.796875 32.078125 64.796875 
z
M 9.8125 72.90625 
L 32.078125 72.90625 
Q 44.34375 72.90625 50.609375 67.359375 
Q 56.890625 61.8125 56.890625 51.125 
Q 56.890625 40.328125 50.609375 34.8125 
Q 44.34375 29.296875 32.078125 29.296875 
L 19.671875 29.296875 
L 19.671875 0 
L 9.8125 0 
z
" id="DejaVuSans-80"/>
       <path d="M 44.390625 34.1875 
Q 47.5625 33.109375 50.5625 29.59375 
Q 53.5625 26.078125 56.59375 19.921875 
L 66.609375 0 
L 56 0 
L 46.6875 18.703125 
Q 43.0625 26.03125 39.671875 28.421875 
Q 36.28125 30.8125 30.421875 30.8125 
L 19.671875 30.8125 
L 19.671875 0 
L 9.8125 0 
L 9.8125 72.90625 
L 32.078125 72.90625 
Q 44.578125 72.90625 50.734375 67.671875 
Q 56.890625 62.453125 56.890625 51.90625 
Q 56.890625 45.015625 53.6875 40.46875 
Q 50.484375 35.9375 44.390625 34.1875 
z
M 19.671875 64.796875 
L 19.671875 38.921875 
L 32.078125 38.921875 
Q 39.203125 38.921875 42.84375 42.21875 
Q 46.484375 45.515625 46.484375 51.90625 
Q 46.484375 58.296875 42.84375 61.546875 
Q 39.203125 64.796875 32.078125 64.796875 
z
" id="DejaVuSans-82"/>
       <path d="M 9.8125 72.90625 
L 19.671875 72.90625 
L 19.671875 42.09375 
L 52.390625 72.90625 
L 65.09375 72.90625 
L 28.90625 38.921875 
L 67.671875 0 
L 54.6875 0 
L 19.671875 35.109375 
L 19.671875 0 
L 9.8125 0 
z
" id="DejaVuSans-75"/>
      </defs>
      <use xlink:href="#DejaVuSans-80"/>
      <use x="60.302734" xlink:href="#DejaVuSans-82"/>
      <use x="129.785156" xlink:href="#DejaVuSans-75"/>
      <use x="189.861328" xlink:href="#DejaVuSans-67"/>
      <use x="259.685547" xlink:href="#DejaVuSans-65"/>
     </g>
    </g>
   </g>
   <g id="text_4">
    <g clip-path="url(#p32c9d6c986)">
     <!-- PRKCB -->
     <g transform="translate(855.804838 660.703217)scale(0.1 -0.1)">
      <defs>
       <path d="M 19.671875 34.8125 
L 19.671875 8.109375 
L 35.5 8.109375 
Q 43.453125 8.109375 47.28125 11.40625 
Q 51.125 14.703125 51.125 21.484375 
Q 51.125 28.328125 47.28125 31.5625 
Q 43.453125 34.8125 35.5 34.8125 
z
M 19.671875 64.796875 
L 19.671875 42.828125 
L 34.28125 42.828125 
Q 41.5 42.828125 45.03125 45.53125 
Q 48.578125 48.25 48.578125 53.8125 
Q 48.578125 59.328125 45.03125 62.0625 
Q 41.5 64.796875 34.28125 64.796875 
z
M 9.8125 72.90625 
L 35.015625 72.90625 
Q 46.296875 72.90625 52.390625 68.21875 
Q 58.5 63.53125 58.5 54.890625 
Q 58.5 48.1875 55.375 44.234375 
Q 52.25 40.28125 46.1875 39.3125 
Q 53.46875 37.75 57.5 32.78125 
Q 61.53125 27.828125 61.53125 20.40625 
Q 61.53125 10.640625 54.890625 5.3125 
Q 48.25 0 35.984375 0 
L 9.8125 0 
z
" id="DejaVuSans-66"/>
      </defs>
      <use xlink:href="#DejaVuSans-80"/>
      <use x="60.302734" xlink:href="#DejaVuSans-82"/>
      <use x="129.785156" xlink:href="#DejaVuSans-75"/>
      <use x="189.861328" xlink:href="#DejaVuSans-67"/>
      <use x="259.685547" xlink:href="#DejaVuSans-66"/>
     </g>
    </g>
   </g>
   <g id="text_5">
    <g clip-path="url(#p32c9d6c986)">
     <!-- TPCN1 -->
     <g transform="translate(205.216007 484.873955)scale(0.1 -0.1)">
      <defs>
       <path d="M -0.296875 72.90625 
L 61.375 72.90625 
L 61.375 64.59375 
L 35.5 64.59375 
L 35.5 0 
L 25.59375 0 
L 25.59375 64.59375 
L -0.296875 64.59375 
z
" id="DejaVuSans-84"/>
       <path d="M 9.8125 72.90625 
L 23.09375 72.90625 
L 55.421875 11.921875 
L 55.421875 72.90625 
L 64.984375 72.90625 
L 64.984375 0 
L 51.703125 0 
L 19.390625 60.984375 
L 19.390625 0 
L 9.8125 0 
z
" id="DejaVuSans-78"/>
       <path d="M 12.40625 8.296875 
L 28.515625 8.296875 
L 28.515625 63.921875 
L 10.984375 60.40625 
L 10.984375 69.390625 
L 28.421875 72.90625 
L 38.28125 72.90625 
L 38.28125 8.296875 
L 54.390625 8.296875 
L 54.390625 0 
L 12.40625 0 
z
" id="DejaVuSans-49"/>
      </defs>
      <use xlink:href="#DejaVuSans-84"/>
      <use x="61.083984" xlink:href="#DejaVuSans-80"/>
      <use x="121.386719" xlink:href="#DejaVuSans-67"/>
      <use x="191.210938" xlink:href="#DejaVuSans-78"/>
      <use x="266.015625" xlink:href="#DejaVuSans-49"/>
     </g>
    </g>
   </g>
   <g id="text_6">
    <g clip-path="url(#p32c9d6c986)">
     <!-- TPCN2 -->
     <g transform="translate(623.709313 164.170284)scale(0.1 -0.1)">
      <defs>
       <path d="M 19.1875 8.296875 
L 53.609375 8.296875 
L 53.609375 0 
L 7.328125 0 
L 7.328125 8.296875 
Q 12.9375 14.109375 22.625 23.890625 
Q 32.328125 33.6875 34.8125 36.53125 
Q 39.546875 41.84375 41.421875 45.53125 
Q 43.3125 49.21875 43.3125 52.78125 
Q 43.3125 58.59375 39.234375 62.25 
Q 35.15625 65.921875 28.609375 65.921875 
Q 23.96875 65.921875 18.8125 64.3125 
Q 13.671875 62.703125 7.8125 59.421875 
L 7.8125 69.390625 
Q 13.765625 71.78125 18.9375 73 
Q 24.125 74.21875 28.421875 74.21875 
Q 39.75 74.21875 46.484375 68.546875 
Q 53.21875 62.890625 53.21875 53.421875 
Q 53.21875 48.921875 51.53125 44.890625 
Q 49.859375 40.875 45.40625 35.40625 
Q 44.1875 33.984375 37.640625 27.21875 
Q 31.109375 20.453125 19.1875 8.296875 
z
" id="DejaVuSans-50"/>
      </defs>
      <use xlink:href="#DejaVuSans-84"/>
      <use x="61.083984" xlink:href="#DejaVuSans-80"/>
      <use x="121.386719" xlink:href="#DejaVuSans-67"/>
      <use x="191.210938" xlink:href="#DejaVuSans-78"/>
      <use x="266.015625" xlink:href="#DejaVuSans-50"/>
     </g>
    </g>
   </g>
   <g id="text_7">
    <g clip-path="url(#p32c9d6c986)">
     <!-- ERBB2 -->
     <g transform="translate(392.037283 572.173535)scale(0.1 -0.1)">
      <defs>
       <path d="M 9.8125 72.90625 
L 55.90625 72.90625 
L 55.90625 64.59375 
L 19.671875 64.59375 
L 19.671875 43.015625 
L 54.390625 43.015625 
L 54.390625 34.71875 
L 19.671875 34.71875 
L 19.671875 8.296875 
L 56.78125 8.296875 
L 56.78125 0 
L 9.8125 0 
z
" id="DejaVuSans-69"/>
      </defs>
      <use xlink:href="#DejaVuSans-69"/>
      <use x="63.183594" xlink:href="#DejaVuSans-82"/>
      <use x="132.666016" xlink:href="#DejaVuSans-66"/>
      <use x="201.269531" xlink:href="#DejaVuSans-66"/>
      <use x="269.873047" xlink:href="#DejaVuSans-50"/>
     </g>
    </g>
   </g>
   <g id="text_8">
    <g clip-path="url(#p32c9d6c986)">
     <!-- FGFR1 -->
     <g transform="translate(431.546106 438.949222)scale(0.1 -0.1)">
      <defs>
       <path d="M 9.8125 72.90625 
L 51.703125 72.90625 
L 51.703125 64.59375 
L 19.671875 64.59375 
L 19.671875 43.109375 
L 48.578125 43.109375 
L 48.578125 34.8125 
L 19.671875 34.8125 
L 19.671875 0 
L 9.8125 0 
z
" id="DejaVuSans-70"/>
       <path d="M 59.515625 10.40625 
L 59.515625 29.984375 
L 43.40625 29.984375 
L 43.40625 38.09375 
L 69.28125 38.09375 
L 69.28125 6.78125 
Q 63.578125 2.734375 56.6875 0.65625 
Q 49.8125 -1.421875 42 -1.421875 
Q 24.90625 -1.421875 15.25 8.5625 
Q 5.609375 18.5625 5.609375 36.375 
Q 5.609375 54.25 15.25 64.234375 
Q 24.90625 74.21875 42 74.21875 
Q 49.125 74.21875 55.546875 72.453125 
Q 61.96875 70.703125 67.390625 67.28125 
L 67.390625 56.78125 
Q 61.921875 61.421875 55.765625 63.765625 
Q 49.609375 66.109375 42.828125 66.109375 
Q 29.4375 66.109375 22.71875 58.640625 
Q 16.015625 51.171875 16.015625 36.375 
Q 16.015625 21.625 22.71875 14.15625 
Q 29.4375 6.6875 42.828125 6.6875 
Q 48.046875 6.6875 52.140625 7.59375 
Q 56.25 8.5 59.515625 10.40625 
z
" id="DejaVuSans-71"/>
      </defs>
      <use xlink:href="#DejaVuSans-70"/>
      <use x="57.519531" xlink:href="#DejaVuSans-71"/>
      <use x="135.009766" xlink:href="#DejaVuSans-70"/>
      <use x="192.529297" xlink:href="#DejaVuSans-82"/>
      <use x="262.011719" xlink:href="#DejaVuSans-49"/>
     </g>
    </g>
   </g>
   <g id="text_9">
    <g clip-path="url(#p32c9d6c986)">
     <!-- GNAQ -->
     <g transform="translate(911.758151 311.527431)scale(0.1 -0.1)">
      <defs>
       <path d="M 39.40625 66.21875 
Q 28.65625 66.21875 22.328125 58.203125 
Q 16.015625 50.203125 16.015625 36.375 
Q 16.015625 22.609375 22.328125 14.59375 
Q 28.65625 6.59375 39.40625 6.59375 
Q 50.140625 6.59375 56.421875 14.59375 
Q 62.703125 22.609375 62.703125 36.375 
Q 62.703125 50.203125 56.421875 58.203125 
Q 50.140625 66.21875 39.40625 66.21875 
z
M 53.21875 1.3125 
L 66.21875 -12.890625 
L 54.296875 -12.890625 
L 43.5 -1.21875 
Q 41.890625 -1.3125 41.03125 -1.359375 
Q 40.1875 -1.421875 39.40625 -1.421875 
Q 24.03125 -1.421875 14.8125 8.859375 
Q 5.609375 19.140625 5.609375 36.375 
Q 5.609375 53.65625 14.8125 63.9375 
Q 24.03125 74.21875 39.40625 74.21875 
Q 54.734375 74.21875 63.90625 63.9375 
Q 73.09375 53.65625 73.09375 36.375 
Q 73.09375 23.6875 67.984375 14.640625 
Q 62.890625 5.609375 53.21875 1.3125 
z
" id="DejaVuSans-81"/>
      </defs>
      <use xlink:href="#DejaVuSans-71"/>
      <use x="77.490234" xlink:href="#DejaVuSans-78"/>
      <use x="152.294922" xlink:href="#DejaVuSans-65"/>
      <use x="218.953125" xlink:href="#DejaVuSans-81"/>
     </g>
    </g>
   </g>
   <g id="text_10">
    <g clip-path="url(#p32c9d6c986)">
     <!-- PLCG1 -->
     <g transform="translate(629.823629 499.61049)scale(0.1 -0.1)">
      <defs>
       <path d="M 9.8125 72.90625 
L 19.671875 72.90625 
L 19.671875 8.296875 
L 55.171875 8.296875 
L 55.171875 0 
L 9.8125 0 
z
" id="DejaVuSans-76"/>
      </defs>
      <use xlink:href="#DejaVuSans-80"/>
      <use x="60.302734" xlink:href="#DejaVuSans-76"/>
      <use x="116.015625" xlink:href="#DejaVuSans-67"/>
      <use x="185.839844" xlink:href="#DejaVuSans-71"/>
      <use x="263.330078" xlink:href="#DejaVuSans-49"/>
     </g>
    </g>
   </g>
   <g id="text_11">
    <g clip-path="url(#p32c9d6c986)">
     <!-- PLCG2 -->
     <g transform="translate(584.745407 489.232876)scale(0.1 -0.1)">
      <use xlink:href="#DejaVuSans-80"/>
      <use x="60.302734" xlink:href="#DejaVuSans-76"/>
      <use x="116.015625" xlink:href="#DejaVuSans-67"/>
      <use x="185.839844" xlink:href="#DejaVuSans-71"/>
      <use x="263.330078" xlink:href="#DejaVuSans-50"/>
     </g>
    </g>
   </g>
   <g id="text_12">
    <g clip-path="url(#p32c9d6c986)">
     <!-- ITPR1 -->
     <g transform="translate(626.186621 709.815937)scale(0.1 -0.1)">
      <defs>
       <path d="M 9.8125 72.90625 
L 19.671875 72.90625 
L 19.671875 0 
L 9.8125 0 
z
" id="DejaVuSans-73"/>
      </defs>
      <use xlink:href="#DejaVuSans-73"/>
      <use x="29.492188" xlink:href="#DejaVuSans-84"/>
      <use x="90.576172" xlink:href="#DejaVuSans-80"/>
      <use x="150.878906" xlink:href="#DejaVuSans-82"/>
      <use x="220.361328" xlink:href="#DejaVuSans-49"/>
     </g>
    </g>
   </g>
   <g id="text_13">
    <g clip-path="url(#p32c9d6c986)">
     <!-- ITPR2 -->
     <g transform="translate(836.528021 225.891126)scale(0.1 -0.1)">
      <use xlink:href="#DejaVuSans-73"/>
      <use x="29.492188" xlink:href="#DejaVuSans-84"/>
      <use x="90.576172" xlink:href="#DejaVuSans-80"/>
      <use x="150.878906" xlink:href="#DejaVuSans-82"/>
      <use x="220.361328" xlink:href="#DejaVuSans-50"/>
     </g>
    </g>
   </g>
   <g id="text_14">
    <g clip-path="url(#p32c9d6c986)">
     <!-- ITPR3 -->
     <g transform="translate(292.71804 238.989449)scale(0.1 -0.1)">
      <use xlink:href="#DejaVuSans-73"/>
      <use x="29.492188" xlink:href="#DejaVuSans-84"/>
      <use x="90.576172" xlink:href="#DejaVuSans-80"/>
      <use x="150.878906" xlink:href="#DejaVuSans-82"/>
      <use x="220.361328" xlink:href="#DejaVuSans-51"/>
     </g>
    </g>
   </g>
   <g id="text_15">
    <g clip-path="url(#p32c9d6c986)">
     <!-- RYR1 -->
     <g transform="translate(466.500805 184.871215)scale(0.1 -0.1)">
      <use xlink:href="#DejaVuSans-82"/>
      <use x="63.107422" xlink:href="#DejaVuSans-89"/>
      <use x="124.191406" xlink:href="#DejaVuSans-82"/>
      <use x="193.673828" xlink:href="#DejaVuSans-49"/>
     </g>
    </g>
   </g>
   <g id="text_16">
    <g clip-path="url(#p32c9d6c986)">
     <!-- ORAI1 -->
     <g transform="translate(283.759277 299.724395)scale(0.1 -0.1)">
      <defs>
       <path d="M 39.40625 66.21875 
Q 28.65625 66.21875 22.328125 58.203125 
Q 16.015625 50.203125 16.015625 36.375 
Q 16.015625 22.609375 22.328125 14.59375 
Q 28.65625 6.59375 39.40625 6.59375 
Q 50.140625 6.59375 56.421875 14.59375 
Q 62.703125 22.609375 62.703125 36.375 
Q 62.703125 50.203125 56.421875 58.203125 
Q 50.140625 66.21875 39.40625 66.21875 
z
M 39.40625 74.21875 
Q 54.734375 74.21875 63.90625 63.9375 
Q 73.09375 53.65625 73.09375 36.375 
Q 73.09375 19.140625 63.90625 8.859375 
Q 54.734375 -1.421875 39.40625 -1.421875 
Q 24.03125 -1.421875 14.8125 8.828125 
Q 5.609375 19.09375 5.609375 36.375 
Q 5.609375 53.65625 14.8125 63.9375 
Q 24.03125 74.21875 39.40625 74.21875 
z
" id="DejaVuSans-79"/>
      </defs>
      <use xlink:href="#DejaVuSans-79"/>
      <use x="78.710938" xlink:href="#DejaVuSans-82"/>
      <use x="144.193359" xlink:href="#DejaVuSans-65"/>
      <use x="212.601562" xlink:href="#DejaVuSans-73"/>
      <use x="242.09375" xlink:href="#DejaVuSans-49"/>
     </g>
    </g>
   </g>
   <g id="text_17">
    <g clip-path="url(#p32c9d6c986)">
     <!-- ORAI2 -->
     <g transform="translate(544.669032 187.279884)scale(0.1 -0.1)">
      <use xlink:href="#DejaVuSans-79"/>
      <use x="78.710938" xlink:href="#DejaVuSans-82"/>
      <use x="144.193359" xlink:href="#DejaVuSans-65"/>
      <use x="212.601562" xlink:href="#DejaVuSans-73"/>
      <use x="242.09375" xlink:href="#DejaVuSans-50"/>
     </g>
    </g>
   </g>
   <g id="text_18">
    <g clip-path="url(#p32c9d6c986)">
     <!-- ORAI3 -->
     <g transform="translate(259.1072 428.458921)scale(0.1 -0.1)">
      <use xlink:href="#DejaVuSans-79"/>
      <use x="78.710938" xlink:href="#DejaVuSans-82"/>
      <use x="144.193359" xlink:href="#DejaVuSans-65"/>
      <use x="212.601562" xlink:href="#DejaVuSans-73"/>
      <use x="242.09375" xlink:href="#DejaVuSans-51"/>
     </g>
    </g>
   </g>
   <g id="text_19">
    <g clip-path="url(#p32c9d6c986)">
     <!-- F2R -->
     <g transform="translate(526.639855 505.97485)scale(0.1 -0.1)">
      <use xlink:href="#DejaVuSans-70"/>
      <use x="57.519531" xlink:href="#DejaVuSans-50"/>
      <use x="121.142578" xlink:href="#DejaVuSans-82"/>
     </g>
    </g>
   </g>
   <g id="text_20">
    <g clip-path="url(#p32c9d6c986)">
     <!-- CXCR4 -->
     <g transform="translate(783.086509 222.153835)scale(0.1 -0.1)">
      <defs>
       <path d="M 6.296875 72.90625 
L 16.890625 72.90625 
L 35.015625 45.796875 
L 53.21875 72.90625 
L 63.8125 72.90625 
L 40.375 37.890625 
L 65.375 0 
L 54.78125 0 
L 34.28125 31 
L 13.625 0 
L 2.984375 0 
L 29 38.921875 
z
" id="DejaVuSans-88"/>
       <path d="M 37.796875 64.3125 
L 12.890625 25.390625 
L 37.796875 25.390625 
z
M 35.203125 72.90625 
L 47.609375 72.90625 
L 47.609375 25.390625 
L 58.015625 25.390625 
L 58.015625 17.1875 
L 47.609375 17.1875 
L 47.609375 0 
L 37.796875 0 
L 37.796875 17.1875 
L 4.890625 17.1875 
L 4.890625 26.703125 
z
" id="DejaVuSans-52"/>
      </defs>
      <use xlink:href="#DejaVuSans-67"/>
      <use x="69.824219" xlink:href="#DejaVuSans-88"/>
      <use x="131.080078" xlink:href="#DejaVuSans-67"/>
      <use x="200.904297" xlink:href="#DejaVuSans-82"/>
      <use x="270.386719" xlink:href="#DejaVuSans-52"/>
     </g>
    </g>
   </g>
   <g id="text_21">
    <g clip-path="url(#p32c9d6c986)">
     <!-- LTB4R2 -->
     <g transform="translate(940.906089 380.822736)scale(0.1 -0.1)">
      <use xlink:href="#DejaVuSans-76"/>
      <use x="41.962891" xlink:href="#DejaVuSans-84"/>
      <use x="103.046875" xlink:href="#DejaVuSans-66"/>
      <use x="171.650391" xlink:href="#DejaVuSans-52"/>
      <use x="235.273438" xlink:href="#DejaVuSans-82"/>
      <use x="304.755859" xlink:href="#DejaVuSans-50"/>
     </g>
    </g>
   </g>
   <g id="text_22">
    <g clip-path="url(#p32c9d6c986)">
     <!-- CYSLTR1 -->
     <g transform="translate(933.626531 443.734421)scale(0.1 -0.1)">
      <defs>
       <path d="M 53.515625 70.515625 
L 53.515625 60.890625 
Q 47.90625 63.578125 42.921875 64.890625 
Q 37.9375 66.21875 33.296875 66.21875 
Q 25.25 66.21875 20.875 63.09375 
Q 16.5 59.96875 16.5 54.203125 
Q 16.5 49.359375 19.40625 46.890625 
Q 22.3125 44.4375 30.421875 42.921875 
L 36.375 41.703125 
Q 47.40625 39.59375 52.65625 34.296875 
Q 57.90625 29 57.90625 20.125 
Q 57.90625 9.515625 50.796875 4.046875 
Q 43.703125 -1.421875 29.984375 -1.421875 
Q 24.8125 -1.421875 18.96875 -0.25 
Q 13.140625 0.921875 6.890625 3.21875 
L 6.890625 13.375 
Q 12.890625 10.015625 18.65625 8.296875 
Q 24.421875 6.59375 29.984375 6.59375 
Q 38.421875 6.59375 43.015625 9.90625 
Q 47.609375 13.234375 47.609375 19.390625 
Q 47.609375 24.75 44.3125 27.78125 
Q 41.015625 30.8125 33.5 32.328125 
L 27.484375 33.5 
Q 16.453125 35.6875 11.515625 40.375 
Q 6.59375 45.0625 6.59375 53.421875 
Q 6.59375 63.09375 13.40625 68.65625 
Q 20.21875 74.21875 32.171875 74.21875 
Q 37.3125 74.21875 42.625 73.28125 
Q 47.953125 72.359375 53.515625 70.515625 
z
" id="DejaVuSans-83"/>
      </defs>
      <use xlink:href="#DejaVuSans-67"/>
      <use x="68.074219" xlink:href="#DejaVuSans-89"/>
      <use x="129.158203" xlink:href="#DejaVuSans-83"/>
      <use x="192.634766" xlink:href="#DejaVuSans-76"/>
      <use x="234.597656" xlink:href="#DejaVuSans-84"/>
      <use x="295.681641" xlink:href="#DejaVuSans-82"/>
      <use x="365.164062" xlink:href="#DejaVuSans-49"/>
     </g>
    </g>
   </g>
   <g id="text_23">
    <g clip-path="url(#p32c9d6c986)">
     <!-- CYSLTR2 -->
     <g transform="translate(679.074037 589.314985)scale(0.1 -0.1)">
      <use xlink:href="#DejaVuSans-67"/>
      <use x="68.074219" xlink:href="#DejaVuSans-89"/>
      <use x="129.158203" xlink:href="#DejaVuSans-83"/>
      <use x="192.634766" xlink:href="#DejaVuSans-76"/>
      <use x="234.597656" xlink:href="#DejaVuSans-84"/>
      <use x="295.681641" xlink:href="#DejaVuSans-82"/>
      <use x="365.164062" xlink:href="#DejaVuSans-50"/>
     </g>
    </g>
   </g>
   <g id="text_24">
    <g clip-path="url(#p32c9d6c986)">
     <!-- ADCY4 -->
     <g transform="translate(690.708405 194.523734)scale(0.1 -0.1)">
      <use xlink:href="#DejaVuSans-65"/>
      <use x="68.408203" xlink:href="#DejaVuSans-68"/>
      <use x="145.410156" xlink:href="#DejaVuSans-67"/>
      <use x="213.484375" xlink:href="#DejaVuSans-89"/>
      <use x="274.568359" xlink:href="#DejaVuSans-52"/>
     </g>
    </g>
   </g>
   <g id="text_25">
    <g clip-path="url(#p32c9d6c986)">
     <!-- ADCY7 -->
     <g transform="translate(204.565005 544.505648)scale(0.1 -0.1)">
      <defs>
       <path d="M 8.203125 72.90625 
L 55.078125 72.90625 
L 55.078125 68.703125 
L 28.609375 0 
L 18.3125 0 
L 43.21875 64.59375 
L 8.203125 64.59375 
z
" id="DejaVuSans-55"/>
      </defs>
      <use xlink:href="#DejaVuSans-65"/>
      <use x="68.408203" xlink:href="#DejaVuSans-68"/>
      <use x="145.410156" xlink:href="#DejaVuSans-67"/>
      <use x="213.484375" xlink:href="#DejaVuSans-89"/>
      <use x="274.568359" xlink:href="#DejaVuSans-55"/>
     </g>
    </g>
   </g>
   <g id="text_26">
    <g clip-path="url(#p32c9d6c986)">
     <!-- ADCY9 -->
     <g transform="translate(727.137636 698.583137)scale(0.1 -0.1)">
      <defs>
       <path d="M 10.984375 1.515625 
L 10.984375 10.5 
Q 14.703125 8.734375 18.5 7.8125 
Q 22.3125 6.890625 25.984375 6.890625 
Q 35.75 6.890625 40.890625 13.453125 
Q 46.046875 20.015625 46.78125 33.40625 
Q 43.953125 29.203125 39.59375 26.953125 
Q 35.25 24.703125 29.984375 24.703125 
Q 19.046875 24.703125 12.671875 31.3125 
Q 6.296875 37.9375 6.296875 49.421875 
Q 6.296875 60.640625 12.9375 67.421875 
Q 19.578125 74.21875 30.609375 74.21875 
Q 43.265625 74.21875 49.921875 64.515625 
Q 56.59375 54.828125 56.59375 36.375 
Q 56.59375 19.140625 48.40625 8.859375 
Q 40.234375 -1.421875 26.421875 -1.421875 
Q 22.703125 -1.421875 18.890625 -0.6875 
Q 15.09375 0.046875 10.984375 1.515625 
z
M 30.609375 32.421875 
Q 37.25 32.421875 41.125 36.953125 
Q 45.015625 41.5 45.015625 49.421875 
Q 45.015625 57.28125 41.125 61.84375 
Q 37.25 66.40625 30.609375 66.40625 
Q 23.96875 66.40625 20.09375 61.84375 
Q 16.21875 57.28125 16.21875 49.421875 
Q 16.21875 41.5 20.09375 36.953125 
Q 23.96875 32.421875 30.609375 32.421875 
z
" id="DejaVuSans-57"/>
      </defs>
      <use xlink:href="#DejaVuSans-65"/>
      <use x="68.408203" xlink:href="#DejaVuSans-68"/>
      <use x="145.410156" xlink:href="#DejaVuSans-67"/>
      <use x="213.484375" xlink:href="#DejaVuSans-89"/>
      <use x="274.568359" xlink:href="#DejaVuSans-57"/>
     </g>
    </g>
   </g>
   <g id="text_27">
    <g clip-path="url(#p32c9d6c986)">
     <!-- ADRB2 -->
     <g transform="translate(409.748189 249.26544)scale(0.1 -0.1)">
      <use xlink:href="#DejaVuSans-65"/>
      <use x="68.408203" xlink:href="#DejaVuSans-68"/>
      <use x="145.410156" xlink:href="#DejaVuSans-82"/>
      <use x="214.892578" xlink:href="#DejaVuSans-66"/>
      <use x="283.496094" xlink:href="#DejaVuSans-50"/>
     </g>
    </g>
   </g>
   <g id="text_28">
    <g clip-path="url(#p32c9d6c986)">
     <!-- ADORA2A -->
     <g transform="translate(833.513711 396.906334)scale(0.1 -0.1)">
      <use xlink:href="#DejaVuSans-65"/>
      <use x="68.408203" xlink:href="#DejaVuSans-68"/>
      <use x="145.410156" xlink:href="#DejaVuSans-79"/>
      <use x="224.121094" xlink:href="#DejaVuSans-82"/>
      <use x="289.603516" xlink:href="#DejaVuSans-65"/>
      <use x="358.011719" xlink:href="#DejaVuSans-50"/>
      <use x="421.634766" xlink:href="#DejaVuSans-65"/>
     </g>
    </g>
   </g>
   <g id="text_29">
    <g clip-path="url(#p32c9d6c986)">
     <!-- GNAS -->
     <g transform="translate(629.716805 463.337239)scale(0.1 -0.1)">
      <use xlink:href="#DejaVuSans-71"/>
      <use x="77.490234" xlink:href="#DejaVuSans-78"/>
      <use x="152.294922" xlink:href="#DejaVuSans-65"/>
      <use x="220.703125" xlink:href="#DejaVuSans-83"/>
     </g>
    </g>
   </g>
   <g id="text_30">
    <g clip-path="url(#p32c9d6c986)">
     <!-- STIM1 -->
     <g transform="translate(500.580665 368.285727)scale(0.1 -0.1)">
      <defs>
       <path d="M 9.8125 72.90625 
L 24.515625 72.90625 
L 43.109375 23.296875 
L 61.8125 72.90625 
L 76.515625 72.90625 
L 76.515625 0 
L 66.890625 0 
L 66.890625 64.015625 
L 48.09375 14.015625 
L 38.1875 14.015625 
L 19.390625 64.015625 
L 19.390625 0 
L 9.8125 0 
z
" id="DejaVuSans-77"/>
      </defs>
      <use xlink:href="#DejaVuSans-83"/>
      <use x="63.476562" xlink:href="#DejaVuSans-84"/>
      <use x="124.560547" xlink:href="#DejaVuSans-73"/>
      <use x="154.052734" xlink:href="#DejaVuSans-77"/>
      <use x="240.332031" xlink:href="#DejaVuSans-49"/>
     </g>
    </g>
   </g>
   <g id="text_31">
    <g clip-path="url(#p32c9d6c986)">
     <!-- STIM2 -->
     <g transform="translate(565.392466 313.950013)scale(0.1 -0.1)">
      <use xlink:href="#DejaVuSans-83"/>
      <use x="63.476562" xlink:href="#DejaVuSans-84"/>
      <use x="124.560547" xlink:href="#DejaVuSans-73"/>
      <use x="154.052734" xlink:href="#DejaVuSans-77"/>
      <use x="240.332031" xlink:href="#DejaVuSans-50"/>
     </g>
    </g>
   </g>
   <g id="text_32">
    <g clip-path="url(#p32c9d6c986)">
     <!-- TGFA -->
     <g transform="translate(208.946192 426.10764)scale(0.1 -0.1)">
      <use xlink:href="#DejaVuSans-84"/>
      <use x="61.083984" xlink:href="#DejaVuSans-71"/>
      <use x="138.574219" xlink:href="#DejaVuSans-70"/>
      <use x="186.96875" xlink:href="#DejaVuSans-65"/>
     </g>
    </g>
   </g>
   <g id="text_33">
    <g clip-path="url(#p32c9d6c986)">
     <!-- PDGFB -->
     <g transform="translate(289.003887 626.931807)scale(0.1 -0.1)">
      <use xlink:href="#DejaVuSans-80"/>
      <use x="60.302734" xlink:href="#DejaVuSans-68"/>
      <use x="137.304688" xlink:href="#DejaVuSans-71"/>
      <use x="214.794922" xlink:href="#DejaVuSans-70"/>
      <use x="272.314453" xlink:href="#DejaVuSans-66"/>
     </g>
    </g>
   </g>
   <g id="text_34">
    <g clip-path="url(#p32c9d6c986)">
     <!-- VEGFB -->
     <g transform="translate(374.489533 639.757676)scale(0.1 -0.1)">
      <defs>
       <path d="M 28.609375 0 
L 0.78125 72.90625 
L 11.078125 72.90625 
L 34.1875 11.53125 
L 57.328125 72.90625 
L 67.578125 72.90625 
L 39.796875 0 
z
" id="DejaVuSans-86"/>
      </defs>
      <use xlink:href="#DejaVuSans-86"/>
      <use x="68.408203" xlink:href="#DejaVuSans-69"/>
      <use x="131.591797" xlink:href="#DejaVuSans-71"/>
      <use x="209.082031" xlink:href="#DejaVuSans-70"/>
      <use x="266.601562" xlink:href="#DejaVuSans-66"/>
     </g>
    </g>
   </g>
   <g id="text_35">
    <g clip-path="url(#p32c9d6c986)">
     <!-- MST1 -->
     <g transform="translate(578.466985 572.14656)scale(0.1 -0.1)">
      <use xlink:href="#DejaVuSans-77"/>
      <use x="86.279297" xlink:href="#DejaVuSans-83"/>
      <use x="149.755859" xlink:href="#DejaVuSans-84"/>
      <use x="210.839844" xlink:href="#DejaVuSans-49"/>
     </g>
    </g>
   </g>
   <g id="text_36">
    <!-- Importance Score and Relative Abundance for network hsa04020 for dataset atherosclerosis -->
    <g transform="translate(312.388125 97.68)scale(0.12 -0.12)">
     <defs>
      <path d="M 52 44.1875 
Q 55.375 50.25 60.0625 53.125 
Q 64.75 56 71.09375 56 
Q 79.640625 56 84.28125 50.015625 
Q 88.921875 44.046875 88.921875 33.015625 
L 88.921875 0 
L 79.890625 0 
L 79.890625 32.71875 
Q 79.890625 40.578125 77.09375 44.375 
Q 74.3125 48.1875 68.609375 48.1875 
Q 61.625 48.1875 57.5625 43.546875 
Q 53.515625 38.921875 53.515625 30.90625 
L 53.515625 0 
L 44.484375 0 
L 44.484375 32.71875 
Q 44.484375 40.625 41.703125 44.40625 
Q 38.921875 48.1875 33.109375 48.1875 
Q 26.21875 48.1875 22.15625 43.53125 
Q 18.109375 38.875 18.109375 30.90625 
L 18.109375 0 
L 9.078125 0 
L 9.078125 54.6875 
L 18.109375 54.6875 
L 18.109375 46.1875 
Q 21.1875 51.21875 25.484375 53.609375 
Q 29.78125 56 35.6875 56 
Q 41.65625 56 45.828125 52.96875 
Q 50 49.953125 52 44.1875 
z
" id="DejaVuSans-109"/>
      <path d="M 18.109375 8.203125 
L 18.109375 -20.796875 
L 9.078125 -20.796875 
L 9.078125 54.6875 
L 18.109375 54.6875 
L 18.109375 46.390625 
Q 20.953125 51.265625 25.265625 53.625 
Q 29.59375 56 35.59375 56 
Q 45.5625 56 51.78125 48.09375 
Q 58.015625 40.1875 58.015625 27.296875 
Q 58.015625 14.40625 51.78125 6.484375 
Q 45.5625 -1.421875 35.59375 -1.421875 
Q 29.59375 -1.421875 25.265625 0.953125 
Q 20.953125 3.328125 18.109375 8.203125 
z
M 48.6875 27.296875 
Q 48.6875 37.203125 44.609375 42.84375 
Q 40.53125 48.484375 33.40625 48.484375 
Q 26.265625 48.484375 22.1875 42.84375 
Q 18.109375 37.203125 18.109375 27.296875 
Q 18.109375 17.390625 22.1875 11.75 
Q 26.265625 6.109375 33.40625 6.109375 
Q 40.53125 6.109375 44.609375 11.75 
Q 48.6875 17.390625 48.6875 27.296875 
z
" id="DejaVuSans-112"/>
      <path d="M 30.609375 48.390625 
Q 23.390625 48.390625 19.1875 42.75 
Q 14.984375 37.109375 14.984375 27.296875 
Q 14.984375 17.484375 19.15625 11.84375 
Q 23.34375 6.203125 30.609375 6.203125 
Q 37.796875 6.203125 41.984375 11.859375 
Q 46.1875 17.53125 46.1875 27.296875 
Q 46.1875 37.015625 41.984375 42.703125 
Q 37.796875 48.390625 30.609375 48.390625 
z
M 30.609375 56 
Q 42.328125 56 49.015625 48.375 
Q 55.71875 40.765625 55.71875 27.296875 
Q 55.71875 13.875 49.015625 6.21875 
Q 42.328125 -1.421875 30.609375 -1.421875 
Q 18.84375 -1.421875 12.171875 6.21875 
Q 5.515625 13.875 5.515625 27.296875 
Q 5.515625 40.765625 12.171875 48.375 
Q 18.84375 56 30.609375 56 
z
" id="DejaVuSans-111"/>
      <path d="M 41.109375 46.296875 
Q 39.59375 47.171875 37.8125 47.578125 
Q 36.03125 48 33.890625 48 
Q 26.265625 48 22.1875 43.046875 
Q 18.109375 38.09375 18.109375 28.8125 
L 18.109375 0 
L 9.078125 0 
L 9.078125 54.6875 
L 18.109375 54.6875 
L 18.109375 46.1875 
Q 20.953125 51.171875 25.484375 53.578125 
Q 30.03125 56 36.53125 56 
Q 37.453125 56 38.578125 55.875 
Q 39.703125 55.765625 41.0625 55.515625 
z
" id="DejaVuSans-114"/>
      <path d="M 18.3125 70.21875 
L 18.3125 54.6875 
L 36.8125 54.6875 
L 36.8125 47.703125 
L 18.3125 47.703125 
L 18.3125 18.015625 
Q 18.3125 11.328125 20.140625 9.421875 
Q 21.96875 7.515625 27.59375 7.515625 
L 36.8125 7.515625 
L 36.8125 0 
L 27.59375 0 
Q 17.1875 0 13.234375 3.875 
Q 9.28125 7.765625 9.28125 18.015625 
L 9.28125 47.703125 
L 2.6875 47.703125 
L 2.6875 54.6875 
L 9.28125 54.6875 
L 9.28125 70.21875 
z
" id="DejaVuSans-116"/>
      <path d="M 34.28125 27.484375 
Q 23.390625 27.484375 19.1875 25 
Q 14.984375 22.515625 14.984375 16.5 
Q 14.984375 11.71875 18.140625 8.90625 
Q 21.296875 6.109375 26.703125 6.109375 
Q 34.1875 6.109375 38.703125 11.40625 
Q 43.21875 16.703125 43.21875 25.484375 
L 43.21875 27.484375 
z
M 52.203125 31.203125 
L 52.203125 0 
L 43.21875 0 
L 43.21875 8.296875 
Q 40.140625 3.328125 35.546875 0.953125 
Q 30.953125 -1.421875 24.3125 -1.421875 
Q 15.921875 -1.421875 10.953125 3.296875 
Q 6 8.015625 6 15.921875 
Q 6 25.140625 12.171875 29.828125 
Q 18.359375 34.515625 30.609375 34.515625 
L 43.21875 34.515625 
L 43.21875 35.40625 
Q 43.21875 41.609375 39.140625 45 
Q 35.0625 48.390625 27.6875 48.390625 
Q 23 48.390625 18.546875 47.265625 
Q 14.109375 46.140625 10.015625 43.890625 
L 10.015625 52.203125 
Q 14.9375 54.109375 19.578125 55.046875 
Q 24.21875 56 28.609375 56 
Q 40.484375 56 46.34375 49.84375 
Q 52.203125 43.703125 52.203125 31.203125 
z
" id="DejaVuSans-97"/>
      <path d="M 54.890625 33.015625 
L 54.890625 0 
L 45.90625 0 
L 45.90625 32.71875 
Q 45.90625 40.484375 42.875 44.328125 
Q 39.84375 48.1875 33.796875 48.1875 
Q 26.515625 48.1875 22.3125 43.546875 
Q 18.109375 38.921875 18.109375 30.90625 
L 18.109375 0 
L 9.078125 0 
L 9.078125 54.6875 
L 18.109375 54.6875 
L 18.109375 46.1875 
Q 21.34375 51.125 25.703125 53.5625 
Q 30.078125 56 35.796875 56 
Q 45.21875 56 50.046875 50.171875 
Q 54.890625 44.34375 54.890625 33.015625 
z
" id="DejaVuSans-110"/>
      <path d="M 48.78125 52.59375 
L 48.78125 44.1875 
Q 44.96875 46.296875 41.140625 47.34375 
Q 37.3125 48.390625 33.40625 48.390625 
Q 24.65625 48.390625 19.8125 42.84375 
Q 14.984375 37.3125 14.984375 27.296875 
Q 14.984375 17.28125 19.8125 11.734375 
Q 24.65625 6.203125 33.40625 6.203125 
Q 37.3125 6.203125 41.140625 7.25 
Q 44.96875 8.296875 48.78125 10.40625 
L 48.78125 2.09375 
Q 45.015625 0.34375 40.984375 -0.53125 
Q 36.96875 -1.421875 32.421875 -1.421875 
Q 20.0625 -1.421875 12.78125 6.34375 
Q 5.515625 14.109375 5.515625 27.296875 
Q 5.515625 40.671875 12.859375 48.328125 
Q 20.21875 56 33.015625 56 
Q 37.15625 56 41.109375 55.140625 
Q 45.0625 54.296875 48.78125 52.59375 
z
" id="DejaVuSans-99"/>
      <path d="M 56.203125 29.59375 
L 56.203125 25.203125 
L 14.890625 25.203125 
Q 15.484375 15.921875 20.484375 11.0625 
Q 25.484375 6.203125 34.421875 6.203125 
Q 39.59375 6.203125 44.453125 7.46875 
Q 49.3125 8.734375 54.109375 11.28125 
L 54.109375 2.78125 
Q 49.265625 0.734375 44.1875 -0.34375 
Q 39.109375 -1.421875 33.890625 -1.421875 
Q 20.796875 -1.421875 13.15625 6.1875 
Q 5.515625 13.8125 5.515625 26.8125 
Q 5.515625 40.234375 12.765625 48.109375 
Q 20.015625 56 32.328125 56 
Q 43.359375 56 49.78125 48.890625 
Q 56.203125 41.796875 56.203125 29.59375 
z
M 47.21875 32.234375 
Q 47.125 39.59375 43.09375 43.984375 
Q 39.0625 48.390625 32.421875 48.390625 
Q 24.90625 48.390625 20.390625 44.140625 
Q 15.875 39.890625 15.1875 32.171875 
z
" id="DejaVuSans-101"/>
      <path id="DejaVuSans-32"/>
      <path d="M 45.40625 46.390625 
L 45.40625 75.984375 
L 54.390625 75.984375 
L 54.390625 0 
L 45.40625 0 
L 45.40625 8.203125 
Q 42.578125 3.328125 38.25 0.953125 
Q 33.9375 -1.421875 27.875 -1.421875 
Q 17.96875 -1.421875 11.734375 6.484375 
Q 5.515625 14.40625 5.515625 27.296875 
Q 5.515625 40.1875 11.734375 48.09375 
Q 17.96875 56 27.875 56 
Q 33.9375 56 38.25 53.625 
Q 42.578125 51.265625 45.40625 46.390625 
z
M 14.796875 27.296875 
Q 14.796875 17.390625 18.875 11.75 
Q 22.953125 6.109375 30.078125 6.109375 
Q 37.203125 6.109375 41.296875 11.75 
Q 45.40625 17.390625 45.40625 27.296875 
Q 45.40625 37.203125 41.296875 42.84375 
Q 37.203125 48.484375 30.078125 48.484375 
Q 22.953125 48.484375 18.875 42.84375 
Q 14.796875 37.203125 14.796875 27.296875 
z
" id="DejaVuSans-100"/>
      <path d="M 9.421875 75.984375 
L 18.40625 75.984375 
L 18.40625 0 
L 9.421875 0 
z
" id="DejaVuSans-108"/>
      <path d="M 9.421875 54.6875 
L 18.40625 54.6875 
L 18.40625 0 
L 9.421875 0 
z
M 9.421875 75.984375 
L 18.40625 75.984375 
L 18.40625 64.59375 
L 9.421875 64.59375 
z
" id="DejaVuSans-105"/>
      <path d="M 2.984375 54.6875 
L 12.5 54.6875 
L 29.59375 8.796875 
L 46.6875 54.6875 
L 56.203125 54.6875 
L 35.6875 0 
L 23.484375 0 
z
" id="DejaVuSans-118"/>
      <path d="M 48.6875 27.296875 
Q 48.6875 37.203125 44.609375 42.84375 
Q 40.53125 48.484375 33.40625 48.484375 
Q 26.265625 48.484375 22.1875 42.84375 
Q 18.109375 37.203125 18.109375 27.296875 
Q 18.109375 17.390625 22.1875 11.75 
Q 26.265625 6.109375 33.40625 6.109375 
Q 40.53125 6.109375 44.609375 11.75 
Q 48.6875 17.390625 48.6875 27.296875 
z
M 18.109375 46.390625 
Q 20.953125 51.265625 25.265625 53.625 
Q 29.59375 56 35.59375 56 
Q 45.5625 56 51.78125 48.09375 
Q 58.015625 40.1875 58.015625 27.296875 
Q 58.015625 14.40625 51.78125 6.484375 
Q 45.5625 -1.421875 35.59375 -1.421875 
Q 29.59375 -1.421875 25.265625 0.953125 
Q 20.953125 3.328125 18.109375 8.203125 
L 18.109375 0 
L 9.078125 0 
L 9.078125 75.984375 
L 18.109375 75.984375 
z
" id="DejaVuSans-98"/>
      <path d="M 8.5 21.578125 
L 8.5 54.6875 
L 17.484375 54.6875 
L 17.484375 21.921875 
Q 17.484375 14.15625 20.5 10.265625 
Q 23.53125 6.390625 29.59375 6.390625 
Q 36.859375 6.390625 41.078125 11.03125 
Q 45.3125 15.671875 45.3125 23.6875 
L 45.3125 54.6875 
L 54.296875 54.6875 
L 54.296875 0 
L 45.3125 0 
L 45.3125 8.40625 
Q 42.046875 3.421875 37.71875 1 
Q 33.40625 -1.421875 27.6875 -1.421875 
Q 18.265625 -1.421875 13.375 4.4375 
Q 8.5 10.296875 8.5 21.578125 
z
M 31.109375 56 
z
" id="DejaVuSans-117"/>
      <path d="M 37.109375 75.984375 
L 37.109375 68.5 
L 28.515625 68.5 
Q 23.6875 68.5 21.796875 66.546875 
Q 19.921875 64.59375 19.921875 59.515625 
L 19.921875 54.6875 
L 34.71875 54.6875 
L 34.71875 47.703125 
L 19.921875 47.703125 
L 19.921875 0 
L 10.890625 0 
L 10.890625 47.703125 
L 2.296875 47.703125 
L 2.296875 54.6875 
L 10.890625 54.6875 
L 10.890625 58.5 
Q 10.890625 67.625 15.140625 71.796875 
Q 19.390625 75.984375 28.609375 75.984375 
z
" id="DejaVuSans-102"/>
      <path d="M 4.203125 54.6875 
L 13.1875 54.6875 
L 24.421875 12.015625 
L 35.59375 54.6875 
L 46.1875 54.6875 
L 57.421875 12.015625 
L 68.609375 54.6875 
L 77.59375 54.6875 
L 63.28125 0 
L 52.6875 0 
L 40.921875 44.828125 
L 29.109375 0 
L 18.5 0 
z
" id="DejaVuSans-119"/>
      <path d="M 9.078125 75.984375 
L 18.109375 75.984375 
L 18.109375 31.109375 
L 44.921875 54.6875 
L 56.390625 54.6875 
L 27.390625 29.109375 
L 57.625 0 
L 45.90625 0 
L 18.109375 26.703125 
L 18.109375 0 
L 9.078125 0 
z
" id="DejaVuSans-107"/>
      <path d="M 54.890625 33.015625 
L 54.890625 0 
L 45.90625 0 
L 45.90625 32.71875 
Q 45.90625 40.484375 42.875 44.328125 
Q 39.84375 48.1875 33.796875 48.1875 
Q 26.515625 48.1875 22.3125 43.546875 
Q 18.109375 38.921875 18.109375 30.90625 
L 18.109375 0 
L 9.078125 0 
L 9.078125 75.984375 
L 18.109375 75.984375 
L 18.109375 46.1875 
Q 21.34375 51.125 25.703125 53.5625 
Q 30.078125 56 35.796875 56 
Q 45.21875 56 50.046875 50.171875 
Q 54.890625 44.34375 54.890625 33.015625 
z
" id="DejaVuSans-104"/>
      <path d="M 44.28125 53.078125 
L 44.28125 44.578125 
Q 40.484375 46.53125 36.375 47.5 
Q 32.28125 48.484375 27.875 48.484375 
Q 21.1875 48.484375 17.84375 46.4375 
Q 14.5 44.390625 14.5 40.28125 
Q 14.5 37.15625 16.890625 35.375 
Q 19.28125 33.59375 26.515625 31.984375 
L 29.59375 31.296875 
Q 39.15625 29.25 43.1875 25.515625 
Q 47.21875 21.78125 47.21875 15.09375 
Q 47.21875 7.46875 41.1875 3.015625 
Q 35.15625 -1.421875 24.609375 -1.421875 
Q 20.21875 -1.421875 15.453125 -0.5625 
Q 10.6875 0.296875 5.421875 2 
L 5.421875 11.28125 
Q 10.40625 8.6875 15.234375 7.390625 
Q 20.0625 6.109375 24.8125 6.109375 
Q 31.15625 6.109375 34.5625 8.28125 
Q 37.984375 10.453125 37.984375 14.40625 
Q 37.984375 18.0625 35.515625 20.015625 
Q 33.0625 21.96875 24.703125 23.78125 
L 21.578125 24.515625 
Q 13.234375 26.265625 9.515625 29.90625 
Q 5.8125 33.546875 5.8125 39.890625 
Q 5.8125 47.609375 11.28125 51.796875 
Q 16.75 56 26.8125 56 
Q 31.78125 56 36.171875 55.265625 
Q 40.578125 54.546875 44.28125 53.078125 
z
" id="DejaVuSans-115"/>
      <path d="M 31.78125 66.40625 
Q 24.171875 66.40625 20.328125 58.90625 
Q 16.5 51.421875 16.5 36.375 
Q 16.5 21.390625 20.328125 13.890625 
Q 24.171875 6.390625 31.78125 6.390625 
Q 39.453125 6.390625 43.28125 13.890625 
Q 47.125 21.390625 47.125 36.375 
Q 47.125 51.421875 43.28125 58.90625 
Q 39.453125 66.40625 31.78125 66.40625 
z
M 31.78125 74.21875 
Q 44.046875 74.21875 50.515625 64.515625 
Q 56.984375 54.828125 56.984375 36.375 
Q 56.984375 17.96875 50.515625 8.265625 
Q 44.046875 -1.421875 31.78125 -1.421875 
Q 19.53125 -1.421875 13.0625 8.265625 
Q 6.59375 17.96875 6.59375 36.375 
Q 6.59375 54.828125 13.0625 64.515625 
Q 19.53125 74.21875 31.78125 74.21875 
z
" id="DejaVuSans-48"/>
     </defs>
     <use xlink:href="#DejaVuSans-73"/>
     <use x="29.492188" xlink:href="#DejaVuSans-109"/>
     <use x="126.904297" xlink:href="#DejaVuSans-112"/>
     <use x="190.380859" xlink:href="#DejaVuSans-111"/>
     <use x="251.5625" xlink:href="#DejaVuSans-114"/>
     <use x="292.675781" xlink:href="#DejaVuSans-116"/>
     <use x="331.884766" xlink:href="#DejaVuSans-97"/>
     <use x="393.164062" xlink:href="#DejaVuSans-110"/>
     <use x="456.542969" xlink:href="#DejaVuSans-99"/>
     <use x="511.523438" xlink:href="#DejaVuSans-101"/>
     <use x="573.046875" xlink:href="#DejaVuSans-32"/>
     <use x="604.833984" xlink:href="#DejaVuSans-83"/>
     <use x="668.310547" xlink:href="#DejaVuSans-99"/>
     <use x="723.291016" xlink:href="#DejaVuSans-111"/>
     <use x="784.472656" xlink:href="#DejaVuSans-114"/>
     <use x="823.335938" xlink:href="#DejaVuSans-101"/>
     <use x="884.859375" xlink:href="#DejaVuSans-32"/>
     <use x="916.646484" xlink:href="#DejaVuSans-97"/>
     <use x="977.925781" xlink:href="#DejaVuSans-110"/>
     <use x="1041.304688" xlink:href="#DejaVuSans-100"/>
     <use x="1104.78125" xlink:href="#DejaVuSans-32"/>
     <use x="1136.568359" xlink:href="#DejaVuSans-82"/>
     <use x="1201.550781" xlink:href="#DejaVuSans-101"/>
     <use x="1263.074219" xlink:href="#DejaVuSans-108"/>
     <use x="1290.857422" xlink:href="#DejaVuSans-97"/>
     <use x="1352.136719" xlink:href="#DejaVuSans-116"/>
     <use x="1391.345703" xlink:href="#DejaVuSans-105"/>
     <use x="1419.128906" xlink:href="#DejaVuSans-118"/>
     <use x="1478.308594" xlink:href="#DejaVuSans-101"/>
     <use x="1539.832031" xlink:href="#DejaVuSans-32"/>
     <use x="1571.619141" xlink:href="#DejaVuSans-65"/>
     <use x="1640.027344" xlink:href="#DejaVuSans-98"/>
     <use x="1703.503906" xlink:href="#DejaVuSans-117"/>
     <use x="1766.882812" xlink:href="#DejaVuSans-110"/>
     <use x="1830.261719" xlink:href="#DejaVuSans-100"/>
     <use x="1893.738281" xlink:href="#DejaVuSans-97"/>
     <use x="1955.017578" xlink:href="#DejaVuSans-110"/>
     <use x="2018.396484" xlink:href="#DejaVuSans-99"/>
     <use x="2073.376953" xlink:href="#DejaVuSans-101"/>
     <use x="2134.900391" xlink:href="#DejaVuSans-32"/>
     <use x="2166.6875" xlink:href="#DejaVuSans-102"/>
     <use x="2201.892578" xlink:href="#DejaVuSans-111"/>
     <use x="2263.074219" xlink:href="#DejaVuSans-114"/>
     <use x="2304.1875" xlink:href="#DejaVuSans-32"/>
     <use x="2335.974609" xlink:href="#DejaVuSans-110"/>
     <use x="2399.353516" xlink:href="#DejaVuSans-101"/>
     <use x="2460.876953" xlink:href="#DejaVuSans-116"/>
     <use x="2500.085938" xlink:href="#DejaVuSans-119"/>
     <use x="2581.873047" xlink:href="#DejaVuSans-111"/>
     <use x="2643.054688" xlink:href="#DejaVuSans-114"/>
     <use x="2684.167969" xlink:href="#DejaVuSans-107"/>
     <use x="2742.078125" xlink:href="#DejaVuSans-32"/>
     <use x="2773.865234" xlink:href="#DejaVuSans-104"/>
     <use x="2837.244141" xlink:href="#DejaVuSans-115"/>
     <use x="2889.34375" xlink:href="#DejaVuSans-97"/>
     <use x="2950.623047" xlink:href="#DejaVuSans-48"/>
     <use x="3014.246094" xlink:href="#DejaVuSans-52"/>
     <use x="3077.869141" xlink:href="#DejaVuSans-48"/>
     <use x="3141.492188" xlink:href="#DejaVuSans-50"/>
     <use x="3205.115234" xlink:href="#DejaVuSans-48"/>
     <use x="3268.738281" xlink:href="#DejaVuSans-32"/>
     <use x="3300.525391" xlink:href="#DejaVuSans-102"/>
     <use x="3335.730469" xlink:href="#DejaVuSans-111"/>
     <use x="3396.912109" xlink:href="#DejaVuSans-114"/>
     <use x="3438.025391" xlink:href="#DejaVuSans-32"/>
     <use x="3469.8125" xlink:href="#DejaVuSans-100"/>
     <use x="3533.289062" xlink:href="#DejaVuSans-97"/>
     <use x="3594.568359" xlink:href="#DejaVuSans-116"/>
     <use x="3633.777344" xlink:href="#DejaVuSans-97"/>
     <use x="3695.056641" xlink:href="#DejaVuSans-115"/>
     <use x="3747.15625" xlink:href="#DejaVuSans-101"/>
     <use x="3808.679688" xlink:href="#DejaVuSans-116"/>
     <use x="3847.888672" xlink:href="#DejaVuSans-32"/>
     <use x="3879.675781" xlink:href="#DejaVuSans-97"/>
     <use x="3940.955078" xlink:href="#DejaVuSans-116"/>
     <use x="3980.164062" xlink:href="#DejaVuSans-104"/>
     <use x="4043.542969" xlink:href="#DejaVuSans-101"/>
     <use x="4105.066406" xlink:href="#DejaVuSans-114"/>
     <use x="4143.929688" xlink:href="#DejaVuSans-111"/>
     <use x="4205.111328" xlink:href="#DejaVuSans-115"/>
     <use x="4257.210938" xlink:href="#DejaVuSans-99"/>
     <use x="4312.191406" xlink:href="#DejaVuSans-108"/>
     <use x="4339.974609" xlink:href="#DejaVuSans-101"/>
     <use x="4401.498047" xlink:href="#DejaVuSans-114"/>
     <use x="4440.361328" xlink:href="#DejaVuSans-111"/>
     <use x="4501.542969" xlink:href="#DejaVuSans-115"/>
     <use x="4553.642578" xlink:href="#DejaVuSans-105"/>
     <use x="4581.425781" xlink:href="#DejaVuSans-115"/>
    </g>
   </g>
   <g id="legend_1">
    <g id="patch_44">
     <path d="M 803.859375 155.714375 
L 1029.8 155.714375 
Q 1031.8 155.714375 1031.8 153.714375 
L 1031.8 110.68 
Q 1031.8 108.68 1029.8 108.68 
L 803.859375 108.68 
Q 801.859375 108.68 801.859375 110.68 
L 801.859375 153.714375 
Q 801.859375 155.714375 803.859375 155.714375 
z
" style="fill:#ffffff;opacity:0.8;stroke:#cccccc;stroke-linejoin:miter;"/>
    </g>
    <g id="text_37">
     <!-- Relative Expression of AS+ compared to AS- -->
     <g transform="translate(805.859375 120.278437)scale(0.1 -0.1)">
      <defs>
       <path d="M 54.890625 54.6875 
L 35.109375 28.078125 
L 55.90625 0 
L 45.3125 0 
L 29.390625 21.484375 
L 13.484375 0 
L 2.875 0 
L 24.125 28.609375 
L 4.6875 54.6875 
L 15.28125 54.6875 
L 29.78125 35.203125 
L 44.28125 54.6875 
z
" id="DejaVuSans-120"/>
       <path d="M 46 62.703125 
L 46 35.5 
L 73.1875 35.5 
L 73.1875 27.203125 
L 46 27.203125 
L 46 0 
L 37.796875 0 
L 37.796875 27.203125 
L 10.59375 27.203125 
L 10.59375 35.5 
L 37.796875 35.5 
L 37.796875 62.703125 
z
" id="DejaVuSans-43"/>
       <path d="M 4.890625 31.390625 
L 31.203125 31.390625 
L 31.203125 23.390625 
L 4.890625 23.390625 
z
" id="DejaVuSans-45"/>
      </defs>
      <use xlink:href="#DejaVuSans-82"/>
      <use x="64.982422" xlink:href="#DejaVuSans-101"/>
      <use x="126.505859" xlink:href="#DejaVuSans-108"/>
      <use x="154.289062" xlink:href="#DejaVuSans-97"/>
      <use x="215.568359" xlink:href="#DejaVuSans-116"/>
      <use x="254.777344" xlink:href="#DejaVuSans-105"/>
      <use x="282.560547" xlink:href="#DejaVuSans-118"/>
      <use x="341.740234" xlink:href="#DejaVuSans-101"/>
      <use x="403.263672" xlink:href="#DejaVuSans-32"/>
      <use x="435.050781" xlink:href="#DejaVuSans-69"/>
      <use x="498.234375" xlink:href="#DejaVuSans-120"/>
      <use x="557.414062" xlink:href="#DejaVuSans-112"/>
      <use x="620.890625" xlink:href="#DejaVuSans-114"/>
      <use x="659.753906" xlink:href="#DejaVuSans-101"/>
      <use x="721.277344" xlink:href="#DejaVuSans-115"/>
      <use x="773.376953" xlink:href="#DejaVuSans-115"/>
      <use x="825.476562" xlink:href="#DejaVuSans-105"/>
      <use x="853.259766" xlink:href="#DejaVuSans-111"/>
      <use x="914.441406" xlink:href="#DejaVuSans-110"/>
      <use x="977.820312" xlink:href="#DejaVuSans-32"/>
      <use x="1009.607422" xlink:href="#DejaVuSans-111"/>
      <use x="1070.789062" xlink:href="#DejaVuSans-102"/>
      <use x="1105.994141" xlink:href="#DejaVuSans-32"/>
      <use x="1137.78125" xlink:href="#DejaVuSans-65"/>
      <use x="1206.189453" xlink:href="#DejaVuSans-83"/>
      <use x="1269.666016" xlink:href="#DejaVuSans-43"/>
      <use x="1353.455078" xlink:href="#DejaVuSans-32"/>
      <use x="1385.242188" xlink:href="#DejaVuSans-99"/>
      <use x="1440.222656" xlink:href="#DejaVuSans-111"/>
      <use x="1501.404297" xlink:href="#DejaVuSans-109"/>
      <use x="1598.816406" xlink:href="#DejaVuSans-112"/>
      <use x="1662.292969" xlink:href="#DejaVuSans-97"/>
      <use x="1723.572266" xlink:href="#DejaVuSans-114"/>
      <use x="1762.435547" xlink:href="#DejaVuSans-101"/>
      <use x="1823.958984" xlink:href="#DejaVuSans-100"/>
      <use x="1887.435547" xlink:href="#DejaVuSans-32"/>
      <use x="1919.222656" xlink:href="#DejaVuSans-116"/>
      <use x="1958.431641" xlink:href="#DejaVuSans-111"/>
      <use x="2019.613281" xlink:href="#DejaVuSans-32"/>
      <use x="2051.400391" xlink:href="#DejaVuSans-65"/>
      <use x="2119.808594" xlink:href="#DejaVuSans-83"/>
      <use x="2183.285156" xlink:href="#DejaVuSans-45"/>
     </g>
    </g>
    <g id="patch_45">
     <path d="M 829.136719 134.956562 
L 849.136719 134.956562 
L 849.136719 127.956562 
L 829.136719 127.956562 
z
" style="fill:#0000ff;stroke:#0000ff;stroke-linejoin:miter;"/>
    </g>
    <g id="text_38">
     <!-- Decreased expression in AS+ -->
     <g transform="translate(857.136719 134.956562)scale(0.1 -0.1)">
      <use xlink:href="#DejaVuSans-68"/>
      <use x="77.001953" xlink:href="#DejaVuSans-101"/>
      <use x="138.525391" xlink:href="#DejaVuSans-99"/>
      <use x="193.505859" xlink:href="#DejaVuSans-114"/>
      <use x="232.369141" xlink:href="#DejaVuSans-101"/>
      <use x="293.892578" xlink:href="#DejaVuSans-97"/>
      <use x="355.171875" xlink:href="#DejaVuSans-115"/>
      <use x="407.271484" xlink:href="#DejaVuSans-101"/>
      <use x="468.794922" xlink:href="#DejaVuSans-100"/>
      <use x="532.271484" xlink:href="#DejaVuSans-32"/>
      <use x="564.058594" xlink:href="#DejaVuSans-101"/>
      <use x="623.832031" xlink:href="#DejaVuSans-120"/>
      <use x="683.011719" xlink:href="#DejaVuSans-112"/>
      <use x="746.488281" xlink:href="#DejaVuSans-114"/>
      <use x="785.351562" xlink:href="#DejaVuSans-101"/>
      <use x="846.875" xlink:href="#DejaVuSans-115"/>
      <use x="898.974609" xlink:href="#DejaVuSans-115"/>
      <use x="951.074219" xlink:href="#DejaVuSans-105"/>
      <use x="978.857422" xlink:href="#DejaVuSans-111"/>
      <use x="1040.039062" xlink:href="#DejaVuSans-110"/>
      <use x="1103.417969" xlink:href="#DejaVuSans-32"/>
      <use x="1135.205078" xlink:href="#DejaVuSans-105"/>
      <use x="1162.988281" xlink:href="#DejaVuSans-110"/>
      <use x="1226.367188" xlink:href="#DejaVuSans-32"/>
      <use x="1258.154297" xlink:href="#DejaVuSans-65"/>
      <use x="1326.5625" xlink:href="#DejaVuSans-83"/>
      <use x="1390.039062" xlink:href="#DejaVuSans-43"/>
     </g>
    </g>
    <g id="patch_46">
     <path d="M 829.136719 149.634687 
L 849.136719 149.634687 
L 849.136719 142.634687 
L 829.136719 142.634687 
z
" style="fill:#ff0000;stroke:#ff0000;stroke-linejoin:miter;"/>
    </g>
    <g id="text_39">
     <!-- Increased expression in AS+ -->
     <g transform="translate(857.136719 149.634687)scale(0.1 -0.1)">
      <use xlink:href="#DejaVuSans-73"/>
      <use x="29.492188" xlink:href="#DejaVuSans-110"/>
      <use x="92.871094" xlink:href="#DejaVuSans-99"/>
      <use x="147.851562" xlink:href="#DejaVuSans-114"/>
      <use x="186.714844" xlink:href="#DejaVuSans-101"/>
      <use x="248.238281" xlink:href="#DejaVuSans-97"/>
      <use x="309.517578" xlink:href="#DejaVuSans-115"/>
      <use x="361.617188" xlink:href="#DejaVuSans-101"/>
      <use x="423.140625" xlink:href="#DejaVuSans-100"/>
      <use x="486.617188" xlink:href="#DejaVuSans-32"/>
      <use x="518.404297" xlink:href="#DejaVuSans-101"/>
      <use x="578.177734" xlink:href="#DejaVuSans-120"/>
      <use x="637.357422" xlink:href="#DejaVuSans-112"/>
      <use x="700.833984" xlink:href="#DejaVuSans-114"/>
      <use x="739.697266" xlink:href="#DejaVuSans-101"/>
      <use x="801.220703" xlink:href="#DejaVuSans-115"/>
      <use x="853.320312" xlink:href="#DejaVuSans-115"/>
      <use x="905.419922" xlink:href="#DejaVuSans-105"/>
      <use x="933.203125" xlink:href="#DejaVuSans-111"/>
      <use x="994.384766" xlink:href="#DejaVuSans-110"/>
      <use x="1057.763672" xlink:href="#DejaVuSans-32"/>
      <use x="1089.550781" xlink:href="#DejaVuSans-105"/>
      <use x="1117.333984" xlink:href="#DejaVuSans-110"/>
      <use x="1180.712891" xlink:href="#DejaVuSans-32"/>
      <use x="1212.5" xlink:href="#DejaVuSans-65"/>
      <use x="1280.908203" xlink:href="#DejaVuSans-83"/>
      <use x="1344.384766" xlink:href="#DejaVuSans-43"/>
     </g>
    </g>
   </g>
  </g>
 </g>
 <defs>
  <clipPath id="p32c9d6c986">
   <rect height="665.28" width="892.8" x="144" y="103.68"/>
  </clipPath>
 </defs>
</svg>
