<?xml version="1.0" encoding="utf-8" standalone="no"?>
<!DOCTYPE svg PUBLIC "-//W3C//DTD SVG 1.1//EN"
  "http://www.w3.org/Graphics/SVG/1.1/DTD/svg11.dtd">
<!-- Created with matplotlib (https://matplotlib.org/) -->
<svg height="864pt" version="1.1" viewBox="0 0 1152 864" width="1152pt" xmlns="http://www.w3.org/2000/svg" xmlns:xlink="http://www.w3.org/1999/xlink">
 <metadata>
  <rdf:RDF xmlns:cc="http://creativecommons.org/ns#" xmlns:dc="http://purl.org/dc/elements/1.1/" xmlns:rdf="http://www.w3.org/1999/02/22-rdf-syntax-ns#">
   <cc:Work>
    <dc:type rdf:resource="http://purl.org/dc/dcmitype/StillImage"/>
    <dc:date>2024-04-26T11:31:25.119638</dc:date>
    <dc:format>image/svg+xml</dc:format>
    <dc:creator>
     <cc:Agent>
      <dc:title>Matplotlib v3.3.1, https://matplotlib.org/</dc:title>
     </cc:Agent>
    </dc:creator>
   </cc:Work>
  </rdf:RDF>
 </metadata>
 <defs>
  <style type="text/css">*{stroke-linecap:butt;stroke-linejoin:round;}</style>
 </defs>
 <g id="figure_1">
  <g id="patch_1">
   <path d="M 0 864 
L 1152 864 
L 1152 0 
L 0 0 
z
" style="fill:#ffffff;"/>
  </g>
  <g id="axes_1">
   <g id="patch_2">
    <path clip-path="url(#pff1431f6fb)" d="M 253.457239 349.460863 
Q 292.886369 284.16794 331.737547 219.832081 
" style="fill:none;stroke:#000000;stroke-linecap:round;"/>
    <path clip-path="url(#pff1431f6fb)" d="M 327.957754 222.222304 
L 331.737547 219.832081 
L 331.38185 224.290049 
L 327.957754 222.222304 
z
" style="stroke:#000000;stroke-linecap:round;"/>
   </g>
   <g id="patch_3">
    <path clip-path="url(#pff1431f6fb)" d="M 255.031533 350.651211 
Q 341.069979 258.149098 426.346975 166.46564 
" style="fill:none;stroke:#000000;stroke-linecap:round;"/>
    <path clip-path="url(#pff1431f6fb)" d="M 422.158276 168.032422 
L 426.346975 166.46564 
L 425.087182 170.756668 
L 422.158276 168.032422 
z
" style="stroke:#000000;stroke-linecap:round;"/>
   </g>
   <g id="patch_4">
    <path clip-path="url(#pff1431f6fb)" d="M 517.105322 506.229329 
Q 582.189392 585.203699 646.562419 663.315273 
" style="fill:none;stroke:#000000;stroke-linecap:round;"/>
    <path clip-path="url(#pff1431f6fb)" d="M 645.561926 658.956487 
L 646.562419 663.315273 
L 642.475094 661.500396 
L 645.561926 658.956487 
z
" style="stroke:#000000;stroke-linecap:round;"/>
   </g>
   <g id="patch_5">
    <path clip-path="url(#pff1431f6fb)" d="M 522.622192 491.294924 
Q 716.866616 457.239866 910.009802 423.377878 
" style="fill:none;stroke:#000000;stroke-linecap:round;"/>
    <path clip-path="url(#pff1431f6fb)" d="M 905.724522 422.098672 
L 910.009802 423.377878 
L 906.415269 426.038579 
L 905.724522 422.098672 
z
" style="stroke:#000000;stroke-linecap:round;"/>
   </g>
   <g id="patch_6">
    <path clip-path="url(#pff1431f6fb)" d="M 560.557765 520.383067 
Q 398.353829 556.073055 237.241808 591.522788 
" style="fill:none;stroke:#000000;stroke-linecap:round;"/>
    <path clip-path="url(#pff1431f6fb)" d="M 241.578142 592.616499 
L 237.241808 591.522788 
L 240.718577 588.709947 
L 241.578142 592.616499 
z
" style="stroke:#000000;stroke-linecap:round;"/>
   </g>
   <g id="patch_7">
    <path clip-path="url(#pff1431f6fb)" d="M 560.822747 513.680382 
Q 482.237084 489.864979 404.7214 466.373833 
" style="fill:none;stroke:#000000;stroke-linecap:round;"/>
    <path clip-path="url(#pff1431f6fb)" d="M 407.969427 469.447971 
L 404.7214 466.373833 
L 409.129526 465.619894 
L 407.969427 469.447971 
z
" style="stroke:#000000;stroke-linecap:round;"/>
   </g>
   <g id="patch_8">
    <path clip-path="url(#pff1431f6fb)" d="M 571.30136 530.618194 
Q 561.120412 590.540046 551.126738 649.35966 
" style="fill:none;stroke:#000000;stroke-linecap:round;"/>
    <path clip-path="url(#pff1431f6fb)" d="M 553.768495 645.751181 
L 551.126738 649.35966 
L 549.825008 645.081168 
L 553.768495 645.751181 
z
" style="stroke:#000000;stroke-linecap:round;"/>
   </g>
   <g id="patch_9">
    <path clip-path="url(#pff1431f6fb)" d="M 687.729273 345.598571 
Q 807.721359 415.377705 926.746952 484.594795 
" style="fill:none;stroke:#000000;stroke-linecap:round;"/>
    <path clip-path="url(#pff1431f6fb)" d="M 924.294544 480.85505 
L 926.746952 484.594795 
L 922.283711 484.312874 
L 924.294544 480.85505 
z
" style="stroke:#000000;stroke-linecap:round;"/>
   </g>
   <g id="patch_10">
    <path clip-path="url(#pff1431f6fb)" d="M 719.958989 559.833429 
Q 549.840746 620.869956 380.774853 681.528911 
" style="fill:none;stroke:#000000;stroke-linecap:round;"/>
    <path clip-path="url(#pff1431f6fb)" d="M 385.215274 682.060571 
L 380.774853 681.528911 
L 383.864433 678.295571 
L 385.215274 682.060571 
z
" style="stroke:#000000;stroke-linecap:round;"/>
   </g>
   <g id="patch_11">
    <path clip-path="url(#pff1431f6fb)" d="M 734.523073 550.631513 
Q 845.025723 440.769763 954.735507 331.696279 
" style="fill:none;stroke:#000000;stroke-linecap:round;"/>
    <path clip-path="url(#pff1431f6fb)" d="M 950.488771 333.098148 
L 954.735507 331.696279 
L 953.30896 335.934789 
L 950.488771 333.098148 
z
" style="stroke:#000000;stroke-linecap:round;"/>
   </g>
   <g id="patch_12">
    <path clip-path="url(#pff1431f6fb)" d="M 926.782995 487.517663 
Q 775.886212 453.214042 626.079646 419.158263 
" style="fill:none;stroke:#000000;stroke-linecap:round;"/>
    <path clip-path="url(#pff1431f6fb)" d="M 629.536776 421.995207 
L 626.079646 419.158263 
L 630.423479 418.094725 
L 629.536776 421.995207 
z
" style="stroke:#000000;stroke-linecap:round;"/>
   </g>
   <g id="patch_13">
    <path clip-path="url(#pff1431f6fb)" d="M 804.438947 473.446769 
Q 762.820562 589.611285 721.579265 704.723278 
" style="fill:none;stroke:#000000;stroke-linecap:round;"/>
    <path clip-path="url(#pff1431f6fb)" d="M 724.811188 701.632214 
L 721.579265 704.723278 
L 721.045568 700.283101 
L 724.811188 701.632214 
z
" style="stroke:#000000;stroke-linecap:round;"/>
   </g>
   <g id="patch_14">
    <path clip-path="url(#pff1431f6fb)" d="M 810.602188 393.543737 
Q 765.725779 549.602741 721.158351 704.587253 
" style="fill:none;stroke:#000000;stroke-linecap:round;"/>
    <path clip-path="url(#pff1431f6fb)" d="M 724.185903 701.29576 
L 721.158351 704.587253 
L 720.341687 700.190316 
L 724.185903 701.29576 
z
" style="stroke:#000000;stroke-linecap:round;"/>
   </g>
   <g id="patch_15">
    <path clip-path="url(#pff1431f6fb)" d="M 624.014243 413.544194 
Q 715.533488 353.30997 806.118821 293.690407 
" style="fill:none;stroke:#000000;stroke-linecap:round;"/>
    <path clip-path="url(#pff1431f6fb)" d="M 801.678017 294.218858 
L 806.118821 293.690407 
L 803.8771 297.560121 
L 801.678017 294.218858 
z
" style="stroke:#000000;stroke-linecap:round;"/>
   </g>
   <g id="patch_16">
    <path clip-path="url(#pff1431f6fb)" d="M 619.235134 410.489583 
Q 637.240135 290.333446 655.079452 171.282999 
" style="fill:none;stroke:#000000;stroke-linecap:round;"/>
    <path clip-path="url(#pff1431f6fb)" d="M 652.508766 174.942449 
L 655.079452 171.282999 
L 656.464601 175.535218 
L 652.508766 174.942449 
z
" style="stroke:#000000;stroke-linecap:round;"/>
   </g>
   <g id="patch_17">
    <path clip-path="url(#pff1431f6fb)" d="M 810.210009 295.457004 
Q 770.557256 421.945216 731.238945 547.366588 
" style="fill:none;stroke:#000000;stroke-linecap:round;"/>
    <path clip-path="url(#pff1431f6fb)" d="M 734.343908 544.148016 
L 731.238945 547.366588 
L 730.527065 542.951475 
L 734.343908 544.148016 
z
" style="stroke:#000000;stroke-linecap:round;"/>
   </g>
   <g id="patch_18">
    <path clip-path="url(#pff1431f6fb)" d="M 660.0048 168.310696 
Q 733.688959 227.235999 806.499952 285.463031 
" style="fill:none;stroke:#000000;stroke-linecap:round;"/>
    <path clip-path="url(#pff1431f6fb)" d="M 804.625127 281.402855 
L 806.499952 285.463031 
L 802.126916 284.526786 
L 804.625127 281.402855 
z
" style="stroke:#000000;stroke-linecap:round;"/>
   </g>
   <g id="patch_19">
    <path clip-path="url(#pff1431f6fb)" d="M 648.241112 663.545909 
Q 613.907167 596.44772 580.082514 530.34483 
" style="fill:none;stroke:#000000;stroke-linecap:round;"/>
    <path clip-path="url(#pff1431f6fb)" d="M 580.124166 534.816772 
L 580.082514 530.34483 
L 583.685058 532.994673 
L 580.124166 534.816772 
z
" style="stroke:#000000;stroke-linecap:round;"/>
   </g>
   <g id="patch_20">
    <path clip-path="url(#pff1431f6fb)" d="M 911.222365 423.694536 
Q 748.769719 468.83495 587.394294 513.676038 
" style="fill:none;stroke:#000000;stroke-linecap:round;"/>
    <path clip-path="url(#pff1431f6fb)" d="M 591.783725 514.53213 
L 587.394294 513.676038 
L 590.712827 510.678148 
L 591.783725 514.53213 
z
" style="stroke:#000000;stroke-linecap:round;"/>
   </g>
   <g id="patch_21">
    <path clip-path="url(#pff1431f6fb)" d="M 582.287455 465.692685 
Q 673.450609 542.038045 763.756607 617.665572 
" style="fill:none;stroke:#000000;stroke-linecap:round;"/>
    <path clip-path="url(#pff1431f6fb)" d="M 761.97405 613.564049 
L 763.756607 617.665572 
L 759.405855 616.630703 
L 761.97405 613.564049 
z
" style="stroke:#000000;stroke-linecap:round;"/>
   </g>
   <g id="patch_22">
    <path clip-path="url(#pff1431f6fb)" d="M 581.458527 455.915074 
Q 627.315653 402.005353 672.448377 348.947243 
" style="fill:none;stroke:#000000;stroke-linecap:round;"/>
    <path clip-path="url(#pff1431f6fb)" d="M 668.333266 350.698203 
L 672.448377 348.947243 
L 671.380079 353.289908 
L 668.333266 350.698203 
z
" style="stroke:#000000;stroke-linecap:round;"/>
   </g>
   <g id="patch_23">
    <path clip-path="url(#pff1431f6fb)" d="M 583.258895 464.155563 
Q 740.978029 537.508033 897.683404 610.389022 
" style="fill:none;stroke:#000000;stroke-linecap:round;"/>
    <path clip-path="url(#pff1431f6fb)" d="M 894.899885 606.888733 
L 897.683404 610.389022 
L 893.213062 610.515664 
L 894.899885 606.888733 
z
" style="stroke:#000000;stroke-linecap:round;"/>
   </g>
   <g id="patch_24">
    <path clip-path="url(#pff1431f6fb)" d="M 570.933701 457.710603 
Q 398.415623 357.025346 226.863158 256.903641 
" style="fill:none;stroke:#000000;stroke-linecap:round;"/>
    <path clip-path="url(#pff1431f6fb)" d="M 229.309727 260.647209 
L 226.863158 256.903641 
L 231.325953 257.192526 
L 229.309727 260.647209 
z
" style="stroke:#000000;stroke-linecap:round;"/>
   </g>
   <g id="patch_25">
    <path clip-path="url(#pff1431f6fb)" d="M 656.066471 427.670269 
Q 711.017928 522.454534 765.408626 616.27156 
" style="fill:none;stroke:#000000;stroke-linecap:round;"/>
    <path clip-path="url(#pff1431f6fb)" d="M 765.132641 611.807948 
L 765.408626 616.27156 
L 761.672146 613.81418 
L 765.132641 611.807948 
z
" style="stroke:#000000;stroke-linecap:round;"/>
   </g>
   <g id="patch_26">
    <path clip-path="url(#pff1431f6fb)" d="M 655.052839 418.574964 
Q 665.793718 384.263225 676.200592 351.018465 
" style="fill:none;stroke:#000000;stroke-linecap:round;"/>
    <path clip-path="url(#pff1431f6fb)" d="M 673.096953 354.238314 
L 676.200592 351.018465 
L 676.914288 355.433285 
L 673.096953 354.238314 
z
" style="stroke:#000000;stroke-linecap:round;"/>
   </g>
   <g id="patch_27">
    <path clip-path="url(#pff1431f6fb)" d="M 657.542224 426.370274 
Q 778.4024 518.147 898.372167 609.247583 
" style="fill:none;stroke:#000000;stroke-linecap:round;"/>
    <path clip-path="url(#pff1431f6fb)" d="M 896.396064 605.235724 
L 898.372167 609.247583 
L 893.977017 608.42135 
L 896.396064 605.235724 
z
" style="stroke:#000000;stroke-linecap:round;"/>
   </g>
   <g id="patch_28">
    <path clip-path="url(#pff1431f6fb)" d="M 648.907945 421.520225 
Q 437.573366 338.574411 227.279531 256.037074 
" style="fill:none;stroke:#000000;stroke-linecap:round;"/>
    <path clip-path="url(#pff1431f6fb)" d="M 230.272302 259.360223 
L 227.279531 256.037074 
L 231.733713 255.636747 
L 230.272302 259.360223 
z
" style="stroke:#000000;stroke-linecap:round;"/>
   </g>
   <g id="patch_29">
    <path clip-path="url(#pff1431f6fb)" d="M 403.682355 465.940605 
Q 561.725439 510.207088 718.691923 554.172026 
" style="fill:none;stroke:#000000;stroke-linecap:round;"/>
    <path clip-path="url(#pff1431f6fb)" d="M 715.379581 551.167298 
L 718.691923 554.172026 
L 714.300735 555.019062 
L 715.379581 551.167298 
z
" style="stroke:#000000;stroke-linecap:round;"/>
   </g>
   <g id="patch_30">
    <path clip-path="url(#pff1431f6fb)" d="M 558.004205 655.372839 
Q 639.316854 608.322174 719.661798 561.831461 
" style="fill:none;stroke:#000000;stroke-linecap:round;"/>
    <path clip-path="url(#pff1431f6fb)" d="M 715.197957 562.103722 
L 719.661798 561.831461 
L 717.201302 565.56589 
L 715.197957 562.103722 
z
" style="stroke:#000000;stroke-linecap:round;"/>
   </g>
   <g id="patch_31">
    <path clip-path="url(#pff1431f6fb)" d="M 584.123506 179.286309 
Q 695.399934 233.277842 805.670478 286.781319 
" style="fill:none;stroke:#000000;stroke-linecap:round;"/>
    <path clip-path="url(#pff1431f6fb)" d="M 802.944783 283.235817 
L 805.670478 286.781319 
L 801.19866 286.834574 
L 802.944783 283.235817 
z
" style="stroke:#000000;stroke-linecap:round;"/>
   </g>
   <g id="patch_32">
    <path clip-path="url(#pff1431f6fb)" d="M 465.650386 287.212628 
Q 635.866114 288.503242 804.96384 289.78538 
" style="fill:none;stroke:#000000;stroke-linecap:round;"/>
    <path clip-path="url(#pff1431f6fb)" d="M 800.979119 287.75511 
L 804.96384 289.78538 
L 800.948791 291.754995 
L 800.979119 287.75511 
z
" style="stroke:#000000;stroke-linecap:round;"/>
   </g>
   <g id="patch_33">
    <path clip-path="url(#pff1431f6fb)" d="M 506.030728 356.757114 
Q 656.123042 323.92732 805.123143 291.336425 
" style="fill:none;stroke:#000000;stroke-linecap:round;"/>
    <path clip-path="url(#pff1431f6fb)" d="M 800.78817 290.237333 
L 805.123143 291.336425 
L 801.642885 294.144949 
L 800.78817 290.237333 
z
" style="stroke:#000000;stroke-linecap:round;"/>
   </g>
   <g id="PathCollection_1">
    <path clip-path="url(#pff1431f6fb)" d="M 248.493816 367.280579 
C 251.039899 367.280579 253.482044 366.26901 255.282396 364.468657 
C 257.082749 362.668304 258.094319 360.22616 258.094319 357.680076 
C 258.094319 355.133993 257.082749 352.691848 255.282396 350.891496 
C 253.482044 349.091143 251.039899 348.079573 248.493816 348.079573 
C 245.947732 348.079573 243.505587 349.091143 241.705235 350.891496 
C 239.904882 352.691848 238.893313 355.133993 238.893313 357.680076 
C 238.893313 360.22616 239.904882 362.668304 241.705235 364.468657 
C 243.505587 366.26901 245.947732 367.280579 248.493816 367.280579 
z
" style="fill:#c0d4f5;stroke:#c0d4f5;"/>
    <path clip-path="url(#pff1431f6fb)" d="M 507.047882 509.83681 
C 511.241111 509.83681 515.263161 508.170823 518.228222 505.205762 
C 521.193283 502.240701 522.85927 498.218651 522.85927 494.025422 
C 522.85927 489.832193 521.193283 485.810143 518.228222 482.845082 
C 515.263161 479.880021 511.241111 478.214034 507.047882 478.214034 
C 502.854653 478.214034 498.832603 479.880021 495.867542 482.845082 
C 492.902481 485.810143 491.236494 489.832193 491.236494 494.025422 
C 491.236494 498.218651 492.902481 502.240701 495.867542 505.205762 
C 498.832603 508.170823 502.854653 509.83681 507.047882 509.83681 
z
" style="fill:#dfdbd9;stroke:#dfdbd9;"/>
    <path clip-path="url(#pff1431f6fb)" d="M 573.525121 530.804759 
C 577.045671 530.804759 580.422502 529.40603 582.911907 526.916625 
C 585.401311 524.42722 586.800041 521.050389 586.800041 517.529839 
C 586.800041 514.009289 585.401311 510.632458 582.911907 508.143053 
C 580.422502 505.653649 577.045671 504.25492 573.525121 504.25492 
C 570.004571 504.25492 566.62774 505.653649 564.138335 508.143053 
C 561.648931 510.632458 560.250201 514.009289 560.250201 517.529839 
C 560.250201 521.050389 561.648931 524.42722 564.138335 526.916625 
C 566.62774 529.40603 570.004571 530.804759 573.525121 530.804759 
z
" style="fill:#d1dae9;stroke:#d1dae9;"/>
    <path clip-path="url(#pff1431f6fb)" d="M 230.921362 598.267968 
C 232.341387 598.267968 233.703443 597.703786 234.707552 596.699676 
C 235.711661 595.695567 236.275843 594.333511 236.275843 592.913486 
C 236.275843 591.493461 235.711661 590.131405 234.707552 589.127296 
C 233.703443 588.123186 232.341387 587.559004 230.921362 587.559004 
C 229.501337 587.559004 228.139281 588.123186 227.135172 589.127296 
C 226.131062 590.131405 225.56688 591.493461 225.56688 592.913486 
C 225.56688 594.333511 226.131062 595.695567 227.135172 596.699676 
C 228.139281 597.703786 229.501337 598.267968 230.921362 598.267968 
z
" style="fill:#dddcdc;stroke:#dddcdc;"/>
    <path clip-path="url(#pff1431f6fb)" d="M 679.411418 350.387436 
C 681.964252 350.387436 684.412872 349.373185 686.217998 347.568059 
C 688.023124 345.762933 689.037376 343.314313 689.037376 340.761479 
C 689.037376 338.208645 688.023124 335.760025 686.217998 333.954899 
C 684.412872 332.149773 681.964252 331.135522 679.411418 331.135522 
C 676.858585 331.135522 674.409965 332.149773 672.604839 333.954899 
C 670.799713 335.760025 669.785461 338.208645 669.785461 340.761479 
C 669.785461 343.314313 670.799713 345.762933 672.604839 347.568059 
C 674.409965 349.373185 676.858585 350.387436 679.411418 350.387436 
z
" style="fill:#dfdbd9;stroke:#dfdbd9;"/>
    <path clip-path="url(#pff1431f6fb)" d="M 728.264945 565.676883 
C 730.604974 565.676883 732.849477 564.747179 734.504128 563.092528 
C 736.158779 561.437878 737.088482 559.193375 737.088482 556.853345 
C 737.088482 554.513316 736.158779 552.268813 734.504128 550.614162 
C 732.849477 548.959511 730.604974 548.029808 728.264945 548.029808 
C 725.924915 548.029808 723.680412 548.959511 722.025762 550.614162 
C 720.371111 552.268813 719.441407 554.513316 719.441407 556.853345 
C 719.441407 559.193375 720.371111 561.437878 722.025762 563.092528 
C 723.680412 564.747179 725.924915 565.676883 728.264945 565.676883 
z
" style="fill:#dfdbd9;stroke:#dfdbd9;"/>
    <path clip-path="url(#pff1431f6fb)" d="M 934.97586 497.777414 
C 937.202837 497.777414 939.338903 496.892627 940.913614 495.317916 
C 942.488325 493.743205 943.373113 491.607138 943.373113 489.380161 
C 943.373113 487.153183 942.488325 485.017117 940.913614 483.442406 
C 939.338903 481.867695 937.202837 480.982907 934.97586 480.982907 
C 932.748882 480.982907 930.612816 481.867695 929.038105 483.442406 
C 927.463394 485.017117 926.578606 487.153183 926.578606 489.380161 
C 926.578606 491.607138 927.463394 493.743205 929.038105 495.317916 
C 930.612816 496.892627 932.748882 497.777414 934.97586 497.777414 
z
" style="fill:#dedcdb;stroke:#dedcdb;"/>
    <path clip-path="url(#pff1431f6fb)" d="M 807.130275 473.913648 
C 809.246296 473.913648 811.275934 473.072944 812.772186 471.576692 
C 814.268439 470.080439 815.109142 468.050801 815.109142 465.934781 
C 815.109142 463.818761 814.268439 461.789122 812.772186 460.29287 
C 811.275934 458.796618 809.246296 457.955914 807.130275 457.955914 
C 805.014255 457.955914 802.984617 458.796618 801.488365 460.29287 
C 799.992112 461.789122 799.151409 463.818761 799.151409 465.934781 
C 799.151409 468.050801 799.992112 470.080439 801.488365 471.576692 
C 802.984617 473.072944 805.014255 473.913648 807.130275 473.913648 
z
" style="fill:#7597f6;stroke:#7597f6;"/>
    <path clip-path="url(#pff1431f6fb)" d="M 812.805643 393.852358 
C 814.919628 393.852358 816.947316 393.012463 818.442129 391.517649 
C 819.936943 390.022835 820.776839 387.995148 820.776839 385.881162 
C 820.776839 383.767176 819.936943 381.739489 818.442129 380.244675 
C 816.947316 378.749862 814.919628 377.909966 812.805643 377.909966 
C 810.691657 377.909966 808.663969 378.749862 807.169156 380.244675 
C 805.674342 381.739489 804.834446 383.767176 804.834446 385.881162 
C 804.834446 387.995148 805.674342 390.022835 807.169156 391.517649 
C 808.663969 393.012463 810.691657 393.852358 812.805643 393.852358 
z
" style="fill:#c1d4f4;stroke:#c1d4f4;"/>
    <path clip-path="url(#pff1431f6fb)" d="M 719.24842 717.022573 
C 720.78487 717.022573 722.258597 716.412135 723.345031 715.325702 
C 724.431465 714.239268 725.041903 712.76554 725.041903 711.229091 
C 725.041903 709.692641 724.431465 708.218914 723.345031 707.13248 
C 722.258597 706.046046 720.78487 705.435609 719.24842 705.435609 
C 717.711971 705.435609 716.238243 706.046046 715.15181 707.13248 
C 714.065376 708.218914 713.454938 709.692641 713.454938 711.229091 
C 713.454938 712.76554 714.065376 714.239268 715.15181 715.325702 
C 716.238243 716.412135 717.711971 717.022573 719.24842 717.022573 
z
" style="fill:#adc9fd;stroke:#adc9fd;"/>
    <path clip-path="url(#pff1431f6fb)" d="M 618.204429 424.322736 
C 620.048853 424.322736 621.817982 423.589939 623.122186 422.285734 
C 624.426391 420.98153 625.159188 419.2124 625.159188 417.367977 
C 625.159188 415.523553 624.426391 413.754424 623.122186 412.450219 
C 621.817982 411.146015 620.048853 410.413217 618.204429 410.413217 
C 616.360005 410.413217 614.590876 411.146015 613.286671 412.450219 
C 611.982467 413.754424 611.249669 415.523553 611.249669 417.367977 
C 611.249669 419.2124 611.982467 420.98153 613.286671 422.285734 
C 614.590876 423.589939 616.360005 424.322736 618.204429 424.322736 
z
" style="fill:#cad8ef;stroke:#cad8ef;"/>
    <path clip-path="url(#pff1431f6fb)" d="M 811.971349 295.726261 
C 813.532798 295.726261 815.030504 295.105891 816.134615 294.00178 
C 817.238727 292.897668 817.859097 291.399962 817.859097 289.838513 
C 817.859097 288.277064 817.238727 286.779357 816.134615 285.675246 
C 815.030504 284.571135 813.532798 283.950765 811.971349 283.950765 
C 810.4099 283.950765 808.912193 284.571135 807.808082 285.675246 
C 806.703971 286.779357 806.0836 288.277064 806.0836 289.838513 
C 806.0836 291.399962 806.703971 292.897668 807.808082 294.00178 
C 808.912193 295.105891 810.4099 295.726261 811.971349 295.726261 
z
" style="fill:#a3c2fe;stroke:#a3c2fe;"/>
    <path clip-path="url(#pff1431f6fb)" d="M 656.00424 170.232331 
C 657.362315 170.232331 658.66495 169.692762 659.625254 168.732458 
C 660.585558 167.772154 661.125127 166.469519 661.125127 165.111444 
C 661.125127 163.753368 660.585558 162.450734 659.625254 161.490429 
C 658.66495 160.530125 657.362315 159.990556 656.00424 159.990556 
C 654.646164 159.990556 653.34353 160.530125 652.383225 161.490429 
C 651.422921 162.450734 650.883352 163.753368 650.883352 165.111444 
C 650.883352 166.469519 651.422921 167.772154 652.383225 168.732458 
C 653.34353 169.692762 654.646164 170.232331 656.00424 170.232331 
z
" style="fill:#3b4cc0;stroke:#3b4cc0;"/>
    <path clip-path="url(#pff1431f6fb)" d="M 903.339444 618.140437 
C 904.697519 618.140437 906.000154 617.600867 906.960458 616.640563 
C 907.920763 615.680259 908.460332 614.377624 908.460332 613.019549 
C 908.460332 611.661474 907.920763 610.358839 906.960458 609.398534 
C 906.000154 608.43823 904.697519 607.898661 903.339444 607.898661 
C 901.981369 607.898661 900.678734 608.43823 899.718429 609.398534 
C 898.758125 610.358839 898.218556 611.661474 898.218556 613.019549 
C 898.218556 614.377624 898.758125 615.680259 899.718429 616.640563 
C 900.678734 617.600867 901.981369 618.140437 903.339444 618.140437 
z
" style="fill:#d6dce4;stroke:#d6dce4;"/>
    <path clip-path="url(#pff1431f6fb)" d="M 768.538518 626.791112 
C 769.896593 626.791112 771.199228 626.251543 772.159532 625.291238 
C 773.119836 624.330934 773.659405 623.028299 773.659405 621.670224 
C 773.659405 620.312149 773.119836 619.009514 772.159532 618.049209 
C 771.199228 617.088905 769.896593 616.549336 768.538518 616.549336 
C 767.180442 616.549336 765.877807 617.088905 764.917503 618.049209 
C 763.957199 619.009514 763.41763 620.312149 763.41763 621.670224 
C 763.41763 623.028299 763.957199 624.330934 764.917503 625.291238 
C 765.877807 626.251543 767.180442 626.791112 768.538518 626.791112 
z
" style="fill:#b40426;stroke:#b40426;"/>
    <path clip-path="url(#pff1431f6fb)" d="M 650.679256 673.665211 
C 652.099281 673.665211 653.461337 673.101029 654.465446 672.096919 
C 655.469555 671.09281 656.033737 669.730754 656.033737 668.310729 
C 656.033737 666.890704 655.469555 665.528648 654.465446 664.524539 
C 653.461337 663.520429 652.099281 662.956247 650.679256 662.956247 
C 649.259231 662.956247 647.897175 663.520429 646.893065 664.524539 
C 645.888956 665.528648 645.324774 666.890704 645.324774 668.310729 
C 645.324774 669.730754 645.888956 671.09281 646.893065 672.096919 
C 647.897175 673.101029 649.259231 673.665211 650.679256 673.665211 
z
" style="fill:#7ea1fa;stroke:#7ea1fa;"/>
    <path clip-path="url(#pff1431f6fb)" d="M 916.383339 427.614947 
C 917.803364 427.614947 919.16542 427.050766 920.169529 426.046656 
C 921.173639 425.042547 921.737821 423.680491 921.737821 422.260466 
C 921.737821 420.840441 921.173639 419.478385 920.169529 418.474276 
C 919.16542 417.470166 917.803364 416.905984 916.383339 416.905984 
C 914.963314 416.905984 913.601258 417.470166 912.597149 418.474276 
C 911.59304 419.478385 911.028858 420.840441 911.028858 422.260466 
C 911.028858 423.680491 911.59304 425.042547 912.597149 426.046656 
C 913.601258 427.050766 914.963314 427.614947 916.383339 427.614947 
z
" style="fill:#cdd9ec;stroke:#cdd9ec;"/>
    <path clip-path="url(#pff1431f6fb)" d="M 576.946283 468.183225 
C 578.793038 468.183225 580.564404 467.449502 581.870257 466.143649 
C 583.17611 464.837796 583.909833 463.06643 583.909833 461.219675 
C 583.909833 459.37292 583.17611 457.601555 581.870257 456.295702 
C 580.564404 454.989849 578.793038 454.256125 576.946283 454.256125 
C 575.099528 454.256125 573.328163 454.989849 572.02231 456.295702 
C 570.716457 457.601555 569.982733 459.37292 569.982733 461.219675 
C 569.982733 463.06643 570.716457 464.837796 572.02231 466.143649 
C 573.328163 467.449502 575.099528 468.183225 576.946283 468.183225 
z
" style="fill:#d7dce3;stroke:#d7dce3;"/>
    <path clip-path="url(#pff1431f6fb)" d="M 653.559372 428.345844 
C 654.885388 428.345844 656.157272 427.819012 657.094906 426.881378 
C 658.032541 425.943743 658.559372 424.671859 658.559372 423.345844 
C 658.559372 422.019828 658.032541 420.747945 657.094906 419.81031 
C 656.157272 418.872675 654.885388 418.345844 653.559372 418.345844 
C 652.233357 418.345844 650.961473 418.872675 650.023838 419.81031 
C 649.086204 420.747945 648.559372 422.019828 648.559372 423.345844 
C 648.559372 424.671859 649.086204 425.943743 650.023838 426.881378 
C 650.961473 427.819012 652.233357 428.345844 653.559372 428.345844 
z
" style="fill:#edd2c3;stroke:#edd2c3;"/>
    <path clip-path="url(#pff1431f6fb)" d="M 221.47438 258.879522 
C 222.832455 258.879522 224.13509 258.339953 225.095395 257.379649 
C 226.055699 256.419345 226.595268 255.11671 226.595268 253.758634 
C 226.595268 252.400559 226.055699 251.097924 225.095395 250.13762 
C 224.13509 249.177316 222.832455 248.637747 221.47438 248.637747 
C 220.116305 248.637747 218.81367 249.177316 217.853366 250.13762 
C 216.893061 251.097924 216.353492 252.400559 216.353492 253.758634 
C 216.353492 255.11671 216.893061 256.419345 217.853366 257.379649 
C 218.81367 258.339953 220.116305 258.879522 221.47438 258.879522 
z
" style="fill:#e9d5cb;stroke:#e9d5cb;"/>
    <path clip-path="url(#pff1431f6fb)" d="M 374.683192 689.069013 
C 376.103217 689.069013 377.465273 688.504831 378.469382 687.500721 
C 379.473492 686.496612 380.037673 685.134556 380.037673 683.714531 
C 380.037673 682.294506 379.473492 680.93245 378.469382 679.928341 
C 377.465273 678.924232 376.103217 678.36005 374.683192 678.36005 
C 373.263167 678.36005 371.901111 678.924232 370.897002 679.928341 
C 369.892892 680.93245 369.32871 682.294506 369.32871 683.714531 
C 369.32871 685.134556 369.892892 686.496612 370.897002 687.500721 
C 371.901111 688.504831 373.263167 689.069013 374.683192 689.069013 
z
" style="fill:#96b7ff;stroke:#96b7ff;"/>
    <path clip-path="url(#pff1431f6fb)" d="M 959.32562 332.48727 
C 960.745645 332.48727 962.107701 331.923088 963.11181 330.918979 
C 964.115919 329.914869 964.680101 328.552813 964.680101 327.132788 
C 964.680101 325.712763 964.115919 324.350707 963.11181 323.346598 
C 962.107701 322.342489 960.745645 321.778307 959.32562 321.778307 
C 957.905595 321.778307 956.543539 322.342489 955.53943 323.346598 
C 954.53532 324.350707 953.971138 325.712763 953.971138 327.132788 
C 953.971138 328.552813 954.53532 329.914869 955.53943 330.918979 
C 956.543539 331.923088 957.905595 332.48727 959.32562 332.48727 
z
" style="fill:#c0d4f5;stroke:#c0d4f5;"/>
    <path clip-path="url(#pff1431f6fb)" d="M 398.527695 469.851311 
C 399.94772 469.851311 401.309776 469.287129 402.313885 468.28302 
C 403.317994 467.27891 403.882176 465.916854 403.882176 464.496829 
C 403.882176 463.076804 403.317994 461.714748 402.313885 460.710639 
C 401.309776 459.70653 399.94772 459.142348 398.527695 459.142348 
C 397.10767 459.142348 395.745614 459.70653 394.741504 460.710639 
C 393.737395 461.714748 393.173213 463.076804 393.173213 464.496829 
C 393.173213 465.916854 393.737395 467.27891 394.741504 468.28302 
C 395.745614 469.287129 397.10767 469.851311 398.527695 469.851311 
z
" style="fill:#c4d5f3;stroke:#c4d5f3;"/>
    <path clip-path="url(#pff1431f6fb)" d="M 549.243817 670.56355 
C 551.9281 670.56355 554.502802 669.497073 556.400876 667.598999 
C 558.29895 665.700925 559.365427 663.126222 559.365427 660.44194 
C 559.365427 657.757658 558.29895 655.182955 556.400876 653.284881 
C 554.502802 651.386807 551.9281 650.32033 549.243817 650.32033 
C 546.559535 650.32033 543.984833 651.386807 542.086759 653.284881 
C 540.188684 655.182955 539.122208 657.757658 539.122208 660.44194 
C 539.122208 663.126222 540.188684 665.700925 542.086759 667.598999 
C 543.984833 669.497073 546.559535 670.56355 549.243817 670.56355 
z
" style="fill:#e9d5cb;stroke:#e9d5cb;"/>
    <path clip-path="url(#pff1431f6fb)" d="M 335.305374 219.706828 
C 336.83902 219.706828 338.310059 219.097504 339.394511 218.013052 
C 340.478963 216.9286 341.088287 215.457562 341.088287 213.923915 
C 341.088287 212.390268 340.478963 210.91923 339.394511 209.834778 
C 338.310059 208.750326 336.83902 208.141001 335.305374 208.141001 
C 333.771727 208.141001 332.300688 208.750326 331.216237 209.834778 
C 330.131785 210.91923 329.52246 212.390268 329.52246 213.923915 
C 329.52246 215.457562 330.131785 216.9286 331.216237 218.013052 
C 332.300688 219.097504 333.771727 219.706828 335.305374 219.706828 
z
" style="fill:#bed2f6;stroke:#bed2f6;"/>
    <path clip-path="url(#pff1431f6fb)" d="M 431.048501 167.193823 
C 432.582148 167.193823 434.053187 166.584498 435.137639 165.500046 
C 436.222091 164.415595 436.831415 162.944556 436.831415 161.410909 
C 436.831415 159.877263 436.222091 158.406224 435.137639 157.321772 
C 434.053187 156.23732 432.582148 155.627996 431.048501 155.627996 
C 429.514855 155.627996 428.043816 156.23732 426.959364 157.321772 
C 425.874912 158.406224 425.265588 159.877263 425.265588 161.410909 
C 425.265588 162.944556 425.874912 164.415595 426.959364 165.500046 
C 428.043816 166.584498 429.514855 167.193823 431.048501 167.193823 
z
" style="fill:#cad8ef;stroke:#cad8ef;"/>
    <path clip-path="url(#pff1431f6fb)" d="M 578.848213 182.593658 
C 580.404141 182.593658 581.896552 181.975481 582.99676 180.875274 
C 584.096967 179.775066 584.715144 178.282655 584.715144 176.726727 
C 584.715144 175.170799 584.096967 173.678388 582.99676 172.57818 
C 581.896552 171.477973 580.404141 170.859796 578.848213 170.859796 
C 577.292284 170.859796 575.799873 171.477973 574.699666 172.57818 
C 573.599458 173.678388 572.981282 175.170799 572.981282 176.726727 
C 572.981282 178.282655 573.599458 179.775066 574.699666 180.875274 
C 575.799873 181.975481 577.292284 182.593658 578.848213 182.593658 
z
" style="fill:#edd2c3;stroke:#edd2c3;"/>
    <path clip-path="url(#pff1431f6fb)" d="M 460.401188 292.423478 
C 461.793677 292.423478 463.129321 291.870236 464.113959 290.885598 
C 465.098597 289.900959 465.651839 288.565316 465.651839 287.172827 
C 465.651839 285.780338 465.098597 284.444695 464.113959 283.460056 
C 463.129321 282.475418 461.793677 281.922177 460.401188 281.922177 
C 459.0087 281.922177 457.673056 282.475418 456.688418 283.460056 
C 455.70378 284.444695 455.150538 285.780338 455.150538 287.172827 
C 455.150538 288.565316 455.70378 289.900959 456.688418 290.885598 
C 457.673056 291.870236 459.0087 292.423478 460.401188 292.423478 
z
" style="fill:#a7c5fe;stroke:#a7c5fe;"/>
    <path clip-path="url(#pff1431f6fb)" d="M 500.484072 363.646481 
C 501.989403 363.646481 503.433282 363.048407 504.497711 361.983977 
C 505.562141 360.919548 506.160215 359.475669 506.160215 357.970338 
C 506.160215 356.465007 505.562141 355.021128 504.497711 353.956699 
C 503.433282 352.892269 501.989403 352.294195 500.484072 352.294195 
C 498.978742 352.294195 497.534863 352.892269 496.470433 353.956699 
C 495.406004 355.021128 494.807929 356.465007 494.807929 357.970338 
C 494.807929 359.475669 495.406004 360.919548 496.470433 361.983977 
C 497.534863 363.048407 498.978742 363.646481 500.484072 363.646481 
z
" style="fill:#dddcdc;stroke:#dddcdc;"/>
   </g>
   <g id="text_1">
    <g clip-path="url(#pff1431f6fb)">
     <!-- IFNG -->
     <g transform="translate(236.528191 360.439451)scale(0.1 -0.1)">
      <defs>
       <path d="M 9.8125 72.90625 
L 19.671875 72.90625 
L 19.671875 0 
L 9.8125 0 
z
" id="DejaVuSans-73"/>
       <path d="M 9.8125 72.90625 
L 51.703125 72.90625 
L 51.703125 64.59375 
L 19.671875 64.59375 
L 19.671875 43.109375 
L 48.578125 43.109375 
L 48.578125 34.8125 
L 19.671875 34.8125 
L 19.671875 0 
L 9.8125 0 
z
" id="DejaVuSans-70"/>
       <path d="M 9.8125 72.90625 
L 23.09375 72.90625 
L 55.421875 11.921875 
L 55.421875 72.90625 
L 64.984375 72.90625 
L 64.984375 0 
L 51.703125 0 
L 19.390625 60.984375 
L 19.390625 0 
L 9.8125 0 
z
" id="DejaVuSans-78"/>
       <path d="M 59.515625 10.40625 
L 59.515625 29.984375 
L 43.40625 29.984375 
L 43.40625 38.09375 
L 69.28125 38.09375 
L 69.28125 6.78125 
Q 63.578125 2.734375 56.6875 0.65625 
Q 49.8125 -1.421875 42 -1.421875 
Q 24.90625 -1.421875 15.25 8.5625 
Q 5.609375 18.5625 5.609375 36.375 
Q 5.609375 54.25 15.25 64.234375 
Q 24.90625 74.21875 42 74.21875 
Q 49.125 74.21875 55.546875 72.453125 
Q 61.96875 70.703125 67.390625 67.28125 
L 67.390625 56.78125 
Q 61.921875 61.421875 55.765625 63.765625 
Q 49.609375 66.109375 42.828125 66.109375 
Q 29.4375 66.109375 22.71875 58.640625 
Q 16.015625 51.171875 16.015625 36.375 
Q 16.015625 21.625 22.71875 14.15625 
Q 29.4375 6.6875 42.828125 6.6875 
Q 48.046875 6.6875 52.140625 7.59375 
Q 56.25 8.5 59.515625 10.40625 
z
" id="DejaVuSans-71"/>
      </defs>
      <use xlink:href="#DejaVuSans-73"/>
      <use x="29.492188" xlink:href="#DejaVuSans-70"/>
      <use x="87.011719" xlink:href="#DejaVuSans-78"/>
      <use x="161.816406" xlink:href="#DejaVuSans-71"/>
     </g>
    </g>
   </g>
   <g id="text_2">
    <g clip-path="url(#pff1431f6fb)">
     <!-- MYD88 -->
     <g transform="translate(489.467413 496.784797)scale(0.1 -0.1)">
      <defs>
       <path d="M 9.8125 72.90625 
L 24.515625 72.90625 
L 43.109375 23.296875 
L 61.8125 72.90625 
L 76.515625 72.90625 
L 76.515625 0 
L 66.890625 0 
L 66.890625 64.015625 
L 48.09375 14.015625 
L 38.1875 14.015625 
L 19.390625 64.015625 
L 19.390625 0 
L 9.8125 0 
z
" id="DejaVuSans-77"/>
       <path d="M -0.203125 72.90625 
L 10.40625 72.90625 
L 30.609375 42.921875 
L 50.6875 72.90625 
L 61.28125 72.90625 
L 35.5 34.71875 
L 35.5 0 
L 25.59375 0 
L 25.59375 34.71875 
z
" id="DejaVuSans-89"/>
       <path d="M 19.671875 64.796875 
L 19.671875 8.109375 
L 31.59375 8.109375 
Q 46.6875 8.109375 53.6875 14.9375 
Q 60.6875 21.78125 60.6875 36.53125 
Q 60.6875 51.171875 53.6875 57.984375 
Q 46.6875 64.796875 31.59375 64.796875 
z
M 9.8125 72.90625 
L 30.078125 72.90625 
Q 51.265625 72.90625 61.171875 64.09375 
Q 71.09375 55.28125 71.09375 36.53125 
Q 71.09375 17.671875 61.125 8.828125 
Q 51.171875 0 30.078125 0 
L 9.8125 0 
z
" id="DejaVuSans-68"/>
       <path d="M 31.78125 34.625 
Q 24.75 34.625 20.71875 30.859375 
Q 16.703125 27.09375 16.703125 20.515625 
Q 16.703125 13.921875 20.71875 10.15625 
Q 24.75 6.390625 31.78125 6.390625 
Q 38.8125 6.390625 42.859375 10.171875 
Q 46.921875 13.96875 46.921875 20.515625 
Q 46.921875 27.09375 42.890625 30.859375 
Q 38.875 34.625 31.78125 34.625 
z
M 21.921875 38.8125 
Q 15.578125 40.375 12.03125 44.71875 
Q 8.5 49.078125 8.5 55.328125 
Q 8.5 64.0625 14.71875 69.140625 
Q 20.953125 74.21875 31.78125 74.21875 
Q 42.671875 74.21875 48.875 69.140625 
Q 55.078125 64.0625 55.078125 55.328125 
Q 55.078125 49.078125 51.53125 44.71875 
Q 48 40.375 41.703125 38.8125 
Q 48.828125 37.15625 52.796875 32.3125 
Q 56.78125 27.484375 56.78125 20.515625 
Q 56.78125 9.90625 50.3125 4.234375 
Q 43.84375 -1.421875 31.78125 -1.421875 
Q 19.734375 -1.421875 13.25 4.234375 
Q 6.78125 9.90625 6.78125 20.515625 
Q 6.78125 27.484375 10.78125 32.3125 
Q 14.796875 37.15625 21.921875 38.8125 
z
M 18.3125 54.390625 
Q 18.3125 48.734375 21.84375 45.5625 
Q 25.390625 42.390625 31.78125 42.390625 
Q 38.140625 42.390625 41.71875 45.5625 
Q 45.3125 48.734375 45.3125 54.390625 
Q 45.3125 60.0625 41.71875 63.234375 
Q 38.140625 66.40625 31.78125 66.40625 
Q 25.390625 66.40625 21.84375 63.234375 
Q 18.3125 60.0625 18.3125 54.390625 
z
" id="DejaVuSans-56"/>
      </defs>
      <use xlink:href="#DejaVuSans-77"/>
      <use x="86.279297" xlink:href="#DejaVuSans-89"/>
      <use x="147.363281" xlink:href="#DejaVuSans-68"/>
      <use x="224.365234" xlink:href="#DejaVuSans-56"/>
      <use x="287.988281" xlink:href="#DejaVuSans-56"/>
     </g>
    </g>
   </g>
   <g id="text_3">
    <g clip-path="url(#pff1431f6fb)">
     <!-- TRAF6 -->
     <g transform="translate(557.719652 520.289214)scale(0.1 -0.1)">
      <defs>
       <path d="M -0.296875 72.90625 
L 61.375 72.90625 
L 61.375 64.59375 
L 35.5 64.59375 
L 35.5 0 
L 25.59375 0 
L 25.59375 64.59375 
L -0.296875 64.59375 
z
" id="DejaVuSans-84"/>
       <path d="M 44.390625 34.1875 
Q 47.5625 33.109375 50.5625 29.59375 
Q 53.5625 26.078125 56.59375 19.921875 
L 66.609375 0 
L 56 0 
L 46.6875 18.703125 
Q 43.0625 26.03125 39.671875 28.421875 
Q 36.28125 30.8125 30.421875 30.8125 
L 19.671875 30.8125 
L 19.671875 0 
L 9.8125 0 
L 9.8125 72.90625 
L 32.078125 72.90625 
Q 44.578125 72.90625 50.734375 67.671875 
Q 56.890625 62.453125 56.890625 51.90625 
Q 56.890625 45.015625 53.6875 40.46875 
Q 50.484375 35.9375 44.390625 34.1875 
z
M 19.671875 64.796875 
L 19.671875 38.921875 
L 32.078125 38.921875 
Q 39.203125 38.921875 42.84375 42.21875 
Q 46.484375 45.515625 46.484375 51.90625 
Q 46.484375 58.296875 42.84375 61.546875 
Q 39.203125 64.796875 32.078125 64.796875 
z
" id="DejaVuSans-82"/>
       <path d="M 34.1875 63.1875 
L 20.796875 26.90625 
L 47.609375 26.90625 
z
M 28.609375 72.90625 
L 39.796875 72.90625 
L 67.578125 0 
L 57.328125 0 
L 50.6875 18.703125 
L 17.828125 18.703125 
L 11.1875 0 
L 0.78125 0 
z
" id="DejaVuSans-65"/>
       <path d="M 33.015625 40.375 
Q 26.375 40.375 22.484375 35.828125 
Q 18.609375 31.296875 18.609375 23.390625 
Q 18.609375 15.53125 22.484375 10.953125 
Q 26.375 6.390625 33.015625 6.390625 
Q 39.65625 6.390625 43.53125 10.953125 
Q 47.40625 15.53125 47.40625 23.390625 
Q 47.40625 31.296875 43.53125 35.828125 
Q 39.65625 40.375 33.015625 40.375 
z
M 52.59375 71.296875 
L 52.59375 62.3125 
Q 48.875 64.0625 45.09375 64.984375 
Q 41.3125 65.921875 37.59375 65.921875 
Q 27.828125 65.921875 22.671875 59.328125 
Q 17.53125 52.734375 16.796875 39.40625 
Q 19.671875 43.65625 24.015625 45.921875 
Q 28.375 48.1875 33.59375 48.1875 
Q 44.578125 48.1875 50.953125 41.515625 
Q 57.328125 34.859375 57.328125 23.390625 
Q 57.328125 12.15625 50.6875 5.359375 
Q 44.046875 -1.421875 33.015625 -1.421875 
Q 20.359375 -1.421875 13.671875 8.265625 
Q 6.984375 17.96875 6.984375 36.375 
Q 6.984375 53.65625 15.1875 63.9375 
Q 23.390625 74.21875 37.203125 74.21875 
Q 40.921875 74.21875 44.703125 73.484375 
Q 48.484375 72.75 52.59375 71.296875 
z
" id="DejaVuSans-54"/>
      </defs>
      <use xlink:href="#DejaVuSans-84"/>
      <use x="61.083984" xlink:href="#DejaVuSans-82"/>
      <use x="126.566406" xlink:href="#DejaVuSans-65"/>
      <use x="194.974609" xlink:href="#DejaVuSans-70"/>
      <use x="252.494141" xlink:href="#DejaVuSans-54"/>
     </g>
    </g>
   </g>
   <g id="text_4">
    <g clip-path="url(#pff1431f6fb)">
     <!-- MAP2K4 -->
     <g transform="translate(210.530737 595.672861)scale(0.1 -0.1)">
      <defs>
       <path d="M 19.671875 64.796875 
L 19.671875 37.40625 
L 32.078125 37.40625 
Q 38.96875 37.40625 42.71875 40.96875 
Q 46.484375 44.53125 46.484375 51.125 
Q 46.484375 57.671875 42.71875 61.234375 
Q 38.96875 64.796875 32.078125 64.796875 
z
M 9.8125 72.90625 
L 32.078125 72.90625 
Q 44.34375 72.90625 50.609375 67.359375 
Q 56.890625 61.8125 56.890625 51.125 
Q 56.890625 40.328125 50.609375 34.8125 
Q 44.34375 29.296875 32.078125 29.296875 
L 19.671875 29.296875 
L 19.671875 0 
L 9.8125 0 
z
" id="DejaVuSans-80"/>
       <path d="M 19.1875 8.296875 
L 53.609375 8.296875 
L 53.609375 0 
L 7.328125 0 
L 7.328125 8.296875 
Q 12.9375 14.109375 22.625 23.890625 
Q 32.328125 33.6875 34.8125 36.53125 
Q 39.546875 41.84375 41.421875 45.53125 
Q 43.3125 49.21875 43.3125 52.78125 
Q 43.3125 58.59375 39.234375 62.25 
Q 35.15625 65.921875 28.609375 65.921875 
Q 23.96875 65.921875 18.8125 64.3125 
Q 13.671875 62.703125 7.8125 59.421875 
L 7.8125 69.390625 
Q 13.765625 71.78125 18.9375 73 
Q 24.125 74.21875 28.421875 74.21875 
Q 39.75 74.21875 46.484375 68.546875 
Q 53.21875 62.890625 53.21875 53.421875 
Q 53.21875 48.921875 51.53125 44.890625 
Q 49.859375 40.875 45.40625 35.40625 
Q 44.1875 33.984375 37.640625 27.21875 
Q 31.109375 20.453125 19.1875 8.296875 
z
" id="DejaVuSans-50"/>
       <path d="M 9.8125 72.90625 
L 19.671875 72.90625 
L 19.671875 42.09375 
L 52.390625 72.90625 
L 65.09375 72.90625 
L 28.90625 38.921875 
L 67.671875 0 
L 54.6875 0 
L 19.671875 35.109375 
L 19.671875 0 
L 9.8125 0 
z
" id="DejaVuSans-75"/>
       <path d="M 37.796875 64.3125 
L 12.890625 25.390625 
L 37.796875 25.390625 
z
M 35.203125 72.90625 
L 47.609375 72.90625 
L 47.609375 25.390625 
L 58.015625 25.390625 
L 58.015625 17.1875 
L 47.609375 17.1875 
L 47.609375 0 
L 37.796875 0 
L 37.796875 17.1875 
L 4.890625 17.1875 
L 4.890625 26.703125 
z
" id="DejaVuSans-52"/>
      </defs>
      <use xlink:href="#DejaVuSans-77"/>
      <use x="86.279297" xlink:href="#DejaVuSans-65"/>
      <use x="154.6875" xlink:href="#DejaVuSans-80"/>
      <use x="214.990234" xlink:href="#DejaVuSans-50"/>
      <use x="278.613281" xlink:href="#DejaVuSans-75"/>
      <use x="344.189453" xlink:href="#DejaVuSans-52"/>
     </g>
    </g>
   </g>
   <g id="text_5">
    <g clip-path="url(#pff1431f6fb)">
     <!-- TNF -->
     <g transform="translate(669.741106 343.520854)scale(0.1 -0.1)">
      <use xlink:href="#DejaVuSans-84"/>
      <use x="61.083984" xlink:href="#DejaVuSans-78"/>
      <use x="135.888672" xlink:href="#DejaVuSans-70"/>
     </g>
    </g>
   </g>
   <g id="text_6">
    <g clip-path="url(#pff1431f6fb)">
     <!-- NFKBIA -->
     <g transform="translate(710.043851 559.61272)scale(0.1 -0.1)">
      <defs>
       <path d="M 19.671875 34.8125 
L 19.671875 8.109375 
L 35.5 8.109375 
Q 43.453125 8.109375 47.28125 11.40625 
Q 51.125 14.703125 51.125 21.484375 
Q 51.125 28.328125 47.28125 31.5625 
Q 43.453125 34.8125 35.5 34.8125 
z
M 19.671875 64.796875 
L 19.671875 42.828125 
L 34.28125 42.828125 
Q 41.5 42.828125 45.03125 45.53125 
Q 48.578125 48.25 48.578125 53.8125 
Q 48.578125 59.328125 45.03125 62.0625 
Q 41.5 64.796875 34.28125 64.796875 
z
M 9.8125 72.90625 
L 35.015625 72.90625 
Q 46.296875 72.90625 52.390625 68.21875 
Q 58.5 63.53125 58.5 54.890625 
Q 58.5 48.1875 55.375 44.234375 
Q 52.25 40.28125 46.1875 39.3125 
Q 53.46875 37.75 57.5 32.78125 
Q 61.53125 27.828125 61.53125 20.40625 
Q 61.53125 10.640625 54.890625 5.3125 
Q 48.25 0 35.984375 0 
L 9.8125 0 
z
" id="DejaVuSans-66"/>
      </defs>
      <use xlink:href="#DejaVuSans-78"/>
      <use x="74.804688" xlink:href="#DejaVuSans-70"/>
      <use x="132.324219" xlink:href="#DejaVuSans-75"/>
      <use x="197.900391" xlink:href="#DejaVuSans-66"/>
      <use x="266.503906" xlink:href="#DejaVuSans-73"/>
      <use x="295.996094" xlink:href="#DejaVuSans-65"/>
     </g>
    </g>
   </g>
   <g id="text_7">
    <g clip-path="url(#pff1431f6fb)">
     <!-- TNFRSF1A -->
     <g transform="translate(909.179766 492.139536)scale(0.1 -0.1)">
      <defs>
       <path d="M 53.515625 70.515625 
L 53.515625 60.890625 
Q 47.90625 63.578125 42.921875 64.890625 
Q 37.9375 66.21875 33.296875 66.21875 
Q 25.25 66.21875 20.875 63.09375 
Q 16.5 59.96875 16.5 54.203125 
Q 16.5 49.359375 19.40625 46.890625 
Q 22.3125 44.4375 30.421875 42.921875 
L 36.375 41.703125 
Q 47.40625 39.59375 52.65625 34.296875 
Q 57.90625 29 57.90625 20.125 
Q 57.90625 9.515625 50.796875 4.046875 
Q 43.703125 -1.421875 29.984375 -1.421875 
Q 24.8125 -1.421875 18.96875 -0.25 
Q 13.140625 0.921875 6.890625 3.21875 
L 6.890625 13.375 
Q 12.890625 10.015625 18.65625 8.296875 
Q 24.421875 6.59375 29.984375 6.59375 
Q 38.421875 6.59375 43.015625 9.90625 
Q 47.609375 13.234375 47.609375 19.390625 
Q 47.609375 24.75 44.3125 27.78125 
Q 41.015625 30.8125 33.5 32.328125 
L 27.484375 33.5 
Q 16.453125 35.6875 11.515625 40.375 
Q 6.59375 45.0625 6.59375 53.421875 
Q 6.59375 63.09375 13.40625 68.65625 
Q 20.21875 74.21875 32.171875 74.21875 
Q 37.3125 74.21875 42.625 73.28125 
Q 47.953125 72.359375 53.515625 70.515625 
z
" id="DejaVuSans-83"/>
       <path d="M 12.40625 8.296875 
L 28.515625 8.296875 
L 28.515625 63.921875 
L 10.984375 60.40625 
L 10.984375 69.390625 
L 28.421875 72.90625 
L 38.28125 72.90625 
L 38.28125 8.296875 
L 54.390625 8.296875 
L 54.390625 0 
L 12.40625 0 
z
" id="DejaVuSans-49"/>
      </defs>
      <use xlink:href="#DejaVuSans-84"/>
      <use x="61.083984" xlink:href="#DejaVuSans-78"/>
      <use x="135.888672" xlink:href="#DejaVuSans-70"/>
      <use x="193.408203" xlink:href="#DejaVuSans-82"/>
      <use x="262.890625" xlink:href="#DejaVuSans-83"/>
      <use x="326.367188" xlink:href="#DejaVuSans-70"/>
      <use x="383.886719" xlink:href="#DejaVuSans-49"/>
      <use x="447.509766" xlink:href="#DejaVuSans-65"/>
     </g>
    </g>
   </g>
   <g id="text_8">
    <g clip-path="url(#pff1431f6fb)">
     <!-- TGFBR1 -->
     <g transform="translate(787.240432 468.694156)scale(0.1 -0.1)">
      <use xlink:href="#DejaVuSans-84"/>
      <use x="61.083984" xlink:href="#DejaVuSans-71"/>
      <use x="138.574219" xlink:href="#DejaVuSans-70"/>
      <use x="196.09375" xlink:href="#DejaVuSans-66"/>
      <use x="264.697266" xlink:href="#DejaVuSans-82"/>
      <use x="334.179688" xlink:href="#DejaVuSans-49"/>
     </g>
    </g>
   </g>
   <g id="text_9">
    <g clip-path="url(#pff1431f6fb)">
     <!-- TGFBR2 -->
     <g transform="translate(792.915799 388.640537)scale(0.1 -0.1)">
      <use xlink:href="#DejaVuSans-84"/>
      <use x="61.083984" xlink:href="#DejaVuSans-71"/>
      <use x="138.574219" xlink:href="#DejaVuSans-70"/>
      <use x="196.09375" xlink:href="#DejaVuSans-66"/>
      <use x="264.697266" xlink:href="#DejaVuSans-82"/>
      <use x="334.179688" xlink:href="#DejaVuSans-50"/>
     </g>
    </g>
   </g>
   <g id="text_10">
    <g clip-path="url(#pff1431f6fb)">
     <!-- SMAD2 -->
     <g transform="translate(701.308576 713.988466)scale(0.1 -0.1)">
      <use xlink:href="#DejaVuSans-83"/>
      <use x="63.476562" xlink:href="#DejaVuSans-77"/>
      <use x="149.755859" xlink:href="#DejaVuSans-65"/>
      <use x="218.164062" xlink:href="#DejaVuSans-68"/>
      <use x="295.166016" xlink:href="#DejaVuSans-50"/>
     </g>
    </g>
   </g>
   <g id="text_11">
    <g clip-path="url(#pff1431f6fb)">
     <!-- FADD -->
     <g transform="translate(604.664585 420.127352)scale(0.1 -0.1)">
      <use xlink:href="#DejaVuSans-70"/>
      <use x="48.394531" xlink:href="#DejaVuSans-65"/>
      <use x="116.802734" xlink:href="#DejaVuSans-68"/>
      <use x="193.804688" xlink:href="#DejaVuSans-68"/>
     </g>
    </g>
   </g>
   <g id="text_12">
    <g clip-path="url(#pff1431f6fb)">
     <!-- CASP8 -->
     <g transform="translate(795.689317 292.597888)scale(0.1 -0.1)">
      <defs>
       <path d="M 64.40625 67.28125 
L 64.40625 56.890625 
Q 59.421875 61.53125 53.78125 63.8125 
Q 48.140625 66.109375 41.796875 66.109375 
Q 29.296875 66.109375 22.65625 58.46875 
Q 16.015625 50.828125 16.015625 36.375 
Q 16.015625 21.96875 22.65625 14.328125 
Q 29.296875 6.6875 41.796875 6.6875 
Q 48.140625 6.6875 53.78125 8.984375 
Q 59.421875 11.28125 64.40625 15.921875 
L 64.40625 5.609375 
Q 59.234375 2.09375 53.4375 0.328125 
Q 47.65625 -1.421875 41.21875 -1.421875 
Q 24.65625 -1.421875 15.125 8.703125 
Q 5.609375 18.84375 5.609375 36.375 
Q 5.609375 53.953125 15.125 64.078125 
Q 24.65625 74.21875 41.21875 74.21875 
Q 47.75 74.21875 53.53125 72.484375 
Q 59.328125 70.75 64.40625 67.28125 
z
" id="DejaVuSans-67"/>
      </defs>
      <use xlink:href="#DejaVuSans-67"/>
      <use x="69.824219" xlink:href="#DejaVuSans-65"/>
      <use x="138.232422" xlink:href="#DejaVuSans-83"/>
      <use x="201.708984" xlink:href="#DejaVuSans-80"/>
      <use x="262.011719" xlink:href="#DejaVuSans-56"/>
     </g>
    </g>
   </g>
   <g id="text_13">
    <g clip-path="url(#pff1431f6fb)">
     <!-- CFLAR -->
     <g transform="translate(639.844083 167.870819)scale(0.1 -0.1)">
      <defs>
       <path d="M 9.8125 72.90625 
L 19.671875 72.90625 
L 19.671875 8.296875 
L 55.171875 8.296875 
L 55.171875 0 
L 9.8125 0 
z
" id="DejaVuSans-76"/>
      </defs>
      <use xlink:href="#DejaVuSans-67"/>
      <use x="69.824219" xlink:href="#DejaVuSans-70"/>
      <use x="127.34375" xlink:href="#DejaVuSans-76"/>
      <use x="185.306641" xlink:href="#DejaVuSans-65"/>
      <use x="253.714844" xlink:href="#DejaVuSans-82"/>
     </g>
    </g>
   </g>
   <g id="text_14">
    <g clip-path="url(#pff1431f6fb)">
     <!-- CCL3 -->
     <g transform="translate(890.389444 615.778924)scale(0.1 -0.1)">
      <defs>
       <path d="M 40.578125 39.3125 
Q 47.65625 37.796875 51.625 33 
Q 55.609375 28.21875 55.609375 21.1875 
Q 55.609375 10.40625 48.1875 4.484375 
Q 40.765625 -1.421875 27.09375 -1.421875 
Q 22.515625 -1.421875 17.65625 -0.515625 
Q 12.796875 0.390625 7.625 2.203125 
L 7.625 11.71875 
Q 11.71875 9.328125 16.59375 8.109375 
Q 21.484375 6.890625 26.8125 6.890625 
Q 36.078125 6.890625 40.9375 10.546875 
Q 45.796875 14.203125 45.796875 21.1875 
Q 45.796875 27.640625 41.28125 31.265625 
Q 36.765625 34.90625 28.71875 34.90625 
L 20.21875 34.90625 
L 20.21875 43.015625 
L 29.109375 43.015625 
Q 36.375 43.015625 40.234375 45.921875 
Q 44.09375 48.828125 44.09375 54.296875 
Q 44.09375 59.90625 40.109375 62.90625 
Q 36.140625 65.921875 28.71875 65.921875 
Q 24.65625 65.921875 20.015625 65.03125 
Q 15.375 64.15625 9.8125 62.3125 
L 9.8125 71.09375 
Q 15.4375 72.65625 20.34375 73.4375 
Q 25.25 74.21875 29.59375 74.21875 
Q 40.828125 74.21875 47.359375 69.109375 
Q 53.90625 64.015625 53.90625 55.328125 
Q 53.90625 49.265625 50.4375 45.09375 
Q 46.96875 40.921875 40.578125 39.3125 
z
" id="DejaVuSans-51"/>
      </defs>
      <use xlink:href="#DejaVuSans-67"/>
      <use x="69.824219" xlink:href="#DejaVuSans-67"/>
      <use x="139.648438" xlink:href="#DejaVuSans-76"/>
      <use x="195.361328" xlink:href="#DejaVuSans-51"/>
     </g>
    </g>
   </g>
   <g id="text_15">
    <g clip-path="url(#pff1431f6fb)">
     <!-- CCL5 -->
     <g transform="translate(755.588518 624.429599)scale(0.1 -0.1)">
      <defs>
       <path d="M 10.796875 72.90625 
L 49.515625 72.90625 
L 49.515625 64.59375 
L 19.828125 64.59375 
L 19.828125 46.734375 
Q 21.96875 47.46875 24.109375 47.828125 
Q 26.265625 48.1875 28.421875 48.1875 
Q 40.625 48.1875 47.75 41.5 
Q 54.890625 34.8125 54.890625 23.390625 
Q 54.890625 11.625 47.5625 5.09375 
Q 40.234375 -1.421875 26.90625 -1.421875 
Q 22.3125 -1.421875 17.546875 -0.640625 
Q 12.796875 0.140625 7.71875 1.703125 
L 7.71875 11.625 
Q 12.109375 9.234375 16.796875 8.0625 
Q 21.484375 6.890625 26.703125 6.890625 
Q 35.15625 6.890625 40.078125 11.328125 
Q 45.015625 15.765625 45.015625 23.390625 
Q 45.015625 31 40.078125 35.4375 
Q 35.15625 39.890625 26.703125 39.890625 
Q 22.75 39.890625 18.8125 39.015625 
Q 14.890625 38.140625 10.796875 36.28125 
z
" id="DejaVuSans-53"/>
      </defs>
      <use xlink:href="#DejaVuSans-67"/>
      <use x="69.824219" xlink:href="#DejaVuSans-67"/>
      <use x="139.648438" xlink:href="#DejaVuSans-76"/>
      <use x="195.361328" xlink:href="#DejaVuSans-53"/>
     </g>
    </g>
   </g>
   <g id="text_16">
    <g clip-path="url(#pff1431f6fb)">
     <!-- IRAK1 -->
     <g transform="translate(636.049568 671.070104)scale(0.1 -0.1)">
      <use xlink:href="#DejaVuSans-73"/>
      <use x="29.492188" xlink:href="#DejaVuSans-82"/>
      <use x="94.974609" xlink:href="#DejaVuSans-65"/>
      <use x="163.382812" xlink:href="#DejaVuSans-75"/>
      <use x="228.958984" xlink:href="#DejaVuSans-49"/>
     </g>
    </g>
   </g>
   <g id="text_17">
    <g clip-path="url(#pff1431f6fb)">
     <!-- IRAK4 -->
     <g transform="translate(901.753652 425.019841)scale(0.1 -0.1)">
      <use xlink:href="#DejaVuSans-73"/>
      <use x="29.492188" xlink:href="#DejaVuSans-82"/>
      <use x="94.974609" xlink:href="#DejaVuSans-65"/>
      <use x="163.382812" xlink:href="#DejaVuSans-75"/>
      <use x="228.958984" xlink:href="#DejaVuSans-52"/>
     </g>
    </g>
   </g>
   <g id="text_18">
    <g clip-path="url(#pff1431f6fb)">
     <!-- FOS -->
     <g transform="translate(566.960346 463.97905)scale(0.1 -0.1)">
      <defs>
       <path d="M 39.40625 66.21875 
Q 28.65625 66.21875 22.328125 58.203125 
Q 16.015625 50.203125 16.015625 36.375 
Q 16.015625 22.609375 22.328125 14.59375 
Q 28.65625 6.59375 39.40625 6.59375 
Q 50.140625 6.59375 56.421875 14.59375 
Q 62.703125 22.609375 62.703125 36.375 
Q 62.703125 50.203125 56.421875 58.203125 
Q 50.140625 66.21875 39.40625 66.21875 
z
M 39.40625 74.21875 
Q 54.734375 74.21875 63.90625 63.9375 
Q 73.09375 53.65625 73.09375 36.375 
Q 73.09375 19.140625 63.90625 8.859375 
Q 54.734375 -1.421875 39.40625 -1.421875 
Q 24.03125 -1.421875 14.8125 8.828125 
Q 5.609375 19.09375 5.609375 36.375 
Q 5.609375 53.65625 14.8125 63.9375 
Q 24.03125 74.21875 39.40625 74.21875 
z
" id="DejaVuSans-79"/>
      </defs>
      <use xlink:href="#DejaVuSans-70"/>
      <use x="57.519531" xlink:href="#DejaVuSans-79"/>
      <use x="136.230469" xlink:href="#DejaVuSans-83"/>
     </g>
    </g>
   </g>
   <g id="text_19">
    <g clip-path="url(#pff1431f6fb)">
     <!-- JUN -->
     <g transform="translate(644.684372 426.105219)scale(0.1 -0.1)">
      <defs>
       <path d="M 9.8125 72.90625 
L 19.671875 72.90625 
L 19.671875 5.078125 
Q 19.671875 -8.109375 14.671875 -14.0625 
Q 9.671875 -20.015625 -1.421875 -20.015625 
L -5.171875 -20.015625 
L -5.171875 -11.71875 
L -2.09375 -11.71875 
Q 4.4375 -11.71875 7.125 -8.046875 
Q 9.8125 -4.390625 9.8125 5.078125 
z
" id="DejaVuSans-74"/>
       <path d="M 8.6875 72.90625 
L 18.609375 72.90625 
L 18.609375 28.609375 
Q 18.609375 16.890625 22.84375 11.734375 
Q 27.09375 6.59375 36.625 6.59375 
Q 46.09375 6.59375 50.34375 11.734375 
Q 54.59375 16.890625 54.59375 28.609375 
L 54.59375 72.90625 
L 64.5 72.90625 
L 64.5 27.390625 
Q 64.5 13.140625 57.4375 5.859375 
Q 50.390625 -1.421875 36.625 -1.421875 
Q 22.796875 -1.421875 15.734375 5.859375 
Q 8.6875 13.140625 8.6875 27.390625 
z
" id="DejaVuSans-85"/>
      </defs>
      <use xlink:href="#DejaVuSans-74"/>
      <use x="29.492188" xlink:href="#DejaVuSans-85"/>
      <use x="102.685547" xlink:href="#DejaVuSans-78"/>
     </g>
    </g>
   </g>
   <g id="text_20">
    <g clip-path="url(#pff1431f6fb)">
     <!-- IL12A -->
     <g transform="translate(207.43063 256.518009)scale(0.1 -0.1)">
      <use xlink:href="#DejaVuSans-73"/>
      <use x="29.492188" xlink:href="#DejaVuSans-76"/>
      <use x="85.205078" xlink:href="#DejaVuSans-49"/>
      <use x="148.828125" xlink:href="#DejaVuSans-50"/>
      <use x="212.451172" xlink:href="#DejaVuSans-65"/>
     </g>
    </g>
   </g>
   <g id="text_21">
    <g clip-path="url(#pff1431f6fb)">
     <!-- NFKB1 -->
     <g transform="translate(358.176161 686.473906)scale(0.1 -0.1)">
      <use xlink:href="#DejaVuSans-78"/>
      <use x="74.804688" xlink:href="#DejaVuSans-70"/>
      <use x="132.324219" xlink:href="#DejaVuSans-75"/>
      <use x="197.900391" xlink:href="#DejaVuSans-66"/>
      <use x="266.503906" xlink:href="#DejaVuSans-49"/>
     </g>
    </g>
   </g>
   <g id="text_22">
    <g clip-path="url(#pff1431f6fb)">
     <!-- RELA -->
     <g transform="translate(946.373276 329.892163)scale(0.1 -0.1)">
      <defs>
       <path d="M 9.8125 72.90625 
L 55.90625 72.90625 
L 55.90625 64.59375 
L 19.671875 64.59375 
L 19.671875 43.015625 
L 54.390625 43.015625 
L 54.390625 34.71875 
L 19.671875 34.71875 
L 19.671875 8.296875 
L 56.78125 8.296875 
L 56.78125 0 
L 9.8125 0 
z
" id="DejaVuSans-69"/>
      </defs>
      <use xlink:href="#DejaVuSans-82"/>
      <use x="69.482422" xlink:href="#DejaVuSans-69"/>
      <use x="132.666016" xlink:href="#DejaVuSans-76"/>
      <use x="190.628906" xlink:href="#DejaVuSans-65"/>
     </g>
    </g>
   </g>
   <g id="text_23">
    <g clip-path="url(#pff1431f6fb)">
     <!-- IKBKG -->
     <g transform="translate(383.190195 467.256204)scale(0.1 -0.1)">
      <use xlink:href="#DejaVuSans-73"/>
      <use x="29.492188" xlink:href="#DejaVuSans-75"/>
      <use x="95.068359" xlink:href="#DejaVuSans-66"/>
      <use x="163.671875" xlink:href="#DejaVuSans-75"/>
      <use x="229.248047" xlink:href="#DejaVuSans-71"/>
     </g>
    </g>
   </g>
   <g id="text_24">
    <g clip-path="url(#pff1431f6fb)">
     <!-- IKBKB -->
     <g transform="translate(534.350067 663.201315)scale(0.1 -0.1)">
      <use xlink:href="#DejaVuSans-73"/>
      <use x="29.492188" xlink:href="#DejaVuSans-75"/>
      <use x="95.068359" xlink:href="#DejaVuSans-66"/>
      <use x="163.671875" xlink:href="#DejaVuSans-75"/>
      <use x="229.248047" xlink:href="#DejaVuSans-66"/>
     </g>
    </g>
   </g>
   <g id="text_25">
    <g clip-path="url(#pff1431f6fb)">
     <!-- IFNGR1 -->
     <g transform="translate(316.68428 216.68329)scale(0.1 -0.1)">
      <use xlink:href="#DejaVuSans-73"/>
      <use x="29.492188" xlink:href="#DejaVuSans-70"/>
      <use x="87.011719" xlink:href="#DejaVuSans-78"/>
      <use x="161.816406" xlink:href="#DejaVuSans-71"/>
      <use x="239.306641" xlink:href="#DejaVuSans-82"/>
      <use x="308.789062" xlink:href="#DejaVuSans-49"/>
     </g>
    </g>
   </g>
   <g id="text_26">
    <g clip-path="url(#pff1431f6fb)">
     <!-- IFNGR2 -->
     <g transform="translate(412.427408 164.170284)scale(0.1 -0.1)">
      <use xlink:href="#DejaVuSans-73"/>
      <use x="29.492188" xlink:href="#DejaVuSans-70"/>
      <use x="87.011719" xlink:href="#DejaVuSans-78"/>
      <use x="161.816406" xlink:href="#DejaVuSans-71"/>
      <use x="239.306641" xlink:href="#DejaVuSans-82"/>
      <use x="308.789062" xlink:href="#DejaVuSans-50"/>
     </g>
    </g>
   </g>
   <g id="text_27">
    <g clip-path="url(#pff1431f6fb)">
     <!-- CD3D -->
     <g transform="translate(564.475556 179.486102)scale(0.1 -0.1)">
      <use xlink:href="#DejaVuSans-67"/>
      <use x="69.824219" xlink:href="#DejaVuSans-68"/>
      <use x="146.826172" xlink:href="#DejaVuSans-51"/>
      <use x="210.449219" xlink:href="#DejaVuSans-68"/>
     </g>
    </g>
   </g>
   <g id="text_28">
    <g clip-path="url(#pff1431f6fb)">
     <!-- CD3E -->
     <g transform="translate(446.719157 289.932202)scale(0.1 -0.1)">
      <use xlink:href="#DejaVuSans-67"/>
      <use x="69.824219" xlink:href="#DejaVuSans-68"/>
      <use x="146.826172" xlink:href="#DejaVuSans-51"/>
      <use x="210.449219" xlink:href="#DejaVuSans-69"/>
     </g>
    </g>
   </g>
   <g id="text_29">
    <g clip-path="url(#pff1431f6fb)">
     <!-- CD3G -->
     <g transform="translate(486.087197 360.729713)scale(0.1 -0.1)">
      <use xlink:href="#DejaVuSans-67"/>
      <use x="69.824219" xlink:href="#DejaVuSans-68"/>
      <use x="146.826172" xlink:href="#DejaVuSans-51"/>
      <use x="210.449219" xlink:href="#DejaVuSans-71"/>
     </g>
    </g>
   </g>
   <g id="text_30">
    <!-- Importance Score and Relative Abundance for network hsa05142 for dataset atherosclerosis -->
    <g transform="translate(312.388125 97.68)scale(0.12 -0.12)">
     <defs>
      <path d="M 52 44.1875 
Q 55.375 50.25 60.0625 53.125 
Q 64.75 56 71.09375 56 
Q 79.640625 56 84.28125 50.015625 
Q 88.921875 44.046875 88.921875 33.015625 
L 88.921875 0 
L 79.890625 0 
L 79.890625 32.71875 
Q 79.890625 40.578125 77.09375 44.375 
Q 74.3125 48.1875 68.609375 48.1875 
Q 61.625 48.1875 57.5625 43.546875 
Q 53.515625 38.921875 53.515625 30.90625 
L 53.515625 0 
L 44.484375 0 
L 44.484375 32.71875 
Q 44.484375 40.625 41.703125 44.40625 
Q 38.921875 48.1875 33.109375 48.1875 
Q 26.21875 48.1875 22.15625 43.53125 
Q 18.109375 38.875 18.109375 30.90625 
L 18.109375 0 
L 9.078125 0 
L 9.078125 54.6875 
L 18.109375 54.6875 
L 18.109375 46.1875 
Q 21.1875 51.21875 25.484375 53.609375 
Q 29.78125 56 35.6875 56 
Q 41.65625 56 45.828125 52.96875 
Q 50 49.953125 52 44.1875 
z
" id="DejaVuSans-109"/>
      <path d="M 18.109375 8.203125 
L 18.109375 -20.796875 
L 9.078125 -20.796875 
L 9.078125 54.6875 
L 18.109375 54.6875 
L 18.109375 46.390625 
Q 20.953125 51.265625 25.265625 53.625 
Q 29.59375 56 35.59375 56 
Q 45.5625 56 51.78125 48.09375 
Q 58.015625 40.1875 58.015625 27.296875 
Q 58.015625 14.40625 51.78125 6.484375 
Q 45.5625 -1.421875 35.59375 -1.421875 
Q 29.59375 -1.421875 25.265625 0.953125 
Q 20.953125 3.328125 18.109375 8.203125 
z
M 48.6875 27.296875 
Q 48.6875 37.203125 44.609375 42.84375 
Q 40.53125 48.484375 33.40625 48.484375 
Q 26.265625 48.484375 22.1875 42.84375 
Q 18.109375 37.203125 18.109375 27.296875 
Q 18.109375 17.390625 22.1875 11.75 
Q 26.265625 6.109375 33.40625 6.109375 
Q 40.53125 6.109375 44.609375 11.75 
Q 48.6875 17.390625 48.6875 27.296875 
z
" id="DejaVuSans-112"/>
      <path d="M 30.609375 48.390625 
Q 23.390625 48.390625 19.1875 42.75 
Q 14.984375 37.109375 14.984375 27.296875 
Q 14.984375 17.484375 19.15625 11.84375 
Q 23.34375 6.203125 30.609375 6.203125 
Q 37.796875 6.203125 41.984375 11.859375 
Q 46.1875 17.53125 46.1875 27.296875 
Q 46.1875 37.015625 41.984375 42.703125 
Q 37.796875 48.390625 30.609375 48.390625 
z
M 30.609375 56 
Q 42.328125 56 49.015625 48.375 
Q 55.71875 40.765625 55.71875 27.296875 
Q 55.71875 13.875 49.015625 6.21875 
Q 42.328125 -1.421875 30.609375 -1.421875 
Q 18.84375 -1.421875 12.171875 6.21875 
Q 5.515625 13.875 5.515625 27.296875 
Q 5.515625 40.765625 12.171875 48.375 
Q 18.84375 56 30.609375 56 
z
" id="DejaVuSans-111"/>
      <path d="M 41.109375 46.296875 
Q 39.59375 47.171875 37.8125 47.578125 
Q 36.03125 48 33.890625 48 
Q 26.265625 48 22.1875 43.046875 
Q 18.109375 38.09375 18.109375 28.8125 
L 18.109375 0 
L 9.078125 0 
L 9.078125 54.6875 
L 18.109375 54.6875 
L 18.109375 46.1875 
Q 20.953125 51.171875 25.484375 53.578125 
Q 30.03125 56 36.53125 56 
Q 37.453125 56 38.578125 55.875 
Q 39.703125 55.765625 41.0625 55.515625 
z
" id="DejaVuSans-114"/>
      <path d="M 18.3125 70.21875 
L 18.3125 54.6875 
L 36.8125 54.6875 
L 36.8125 47.703125 
L 18.3125 47.703125 
L 18.3125 18.015625 
Q 18.3125 11.328125 20.140625 9.421875 
Q 21.96875 7.515625 27.59375 7.515625 
L 36.8125 7.515625 
L 36.8125 0 
L 27.59375 0 
Q 17.1875 0 13.234375 3.875 
Q 9.28125 7.765625 9.28125 18.015625 
L 9.28125 47.703125 
L 2.6875 47.703125 
L 2.6875 54.6875 
L 9.28125 54.6875 
L 9.28125 70.21875 
z
" id="DejaVuSans-116"/>
      <path d="M 34.28125 27.484375 
Q 23.390625 27.484375 19.1875 25 
Q 14.984375 22.515625 14.984375 16.5 
Q 14.984375 11.71875 18.140625 8.90625 
Q 21.296875 6.109375 26.703125 6.109375 
Q 34.1875 6.109375 38.703125 11.40625 
Q 43.21875 16.703125 43.21875 25.484375 
L 43.21875 27.484375 
z
M 52.203125 31.203125 
L 52.203125 0 
L 43.21875 0 
L 43.21875 8.296875 
Q 40.140625 3.328125 35.546875 0.953125 
Q 30.953125 -1.421875 24.3125 -1.421875 
Q 15.921875 -1.421875 10.953125 3.296875 
Q 6 8.015625 6 15.921875 
Q 6 25.140625 12.171875 29.828125 
Q 18.359375 34.515625 30.609375 34.515625 
L 43.21875 34.515625 
L 43.21875 35.40625 
Q 43.21875 41.609375 39.140625 45 
Q 35.0625 48.390625 27.6875 48.390625 
Q 23 48.390625 18.546875 47.265625 
Q 14.109375 46.140625 10.015625 43.890625 
L 10.015625 52.203125 
Q 14.9375 54.109375 19.578125 55.046875 
Q 24.21875 56 28.609375 56 
Q 40.484375 56 46.34375 49.84375 
Q 52.203125 43.703125 52.203125 31.203125 
z
" id="DejaVuSans-97"/>
      <path d="M 54.890625 33.015625 
L 54.890625 0 
L 45.90625 0 
L 45.90625 32.71875 
Q 45.90625 40.484375 42.875 44.328125 
Q 39.84375 48.1875 33.796875 48.1875 
Q 26.515625 48.1875 22.3125 43.546875 
Q 18.109375 38.921875 18.109375 30.90625 
L 18.109375 0 
L 9.078125 0 
L 9.078125 54.6875 
L 18.109375 54.6875 
L 18.109375 46.1875 
Q 21.34375 51.125 25.703125 53.5625 
Q 30.078125 56 35.796875 56 
Q 45.21875 56 50.046875 50.171875 
Q 54.890625 44.34375 54.890625 33.015625 
z
" id="DejaVuSans-110"/>
      <path d="M 48.78125 52.59375 
L 48.78125 44.1875 
Q 44.96875 46.296875 41.140625 47.34375 
Q 37.3125 48.390625 33.40625 48.390625 
Q 24.65625 48.390625 19.8125 42.84375 
Q 14.984375 37.3125 14.984375 27.296875 
Q 14.984375 17.28125 19.8125 11.734375 
Q 24.65625 6.203125 33.40625 6.203125 
Q 37.3125 6.203125 41.140625 7.25 
Q 44.96875 8.296875 48.78125 10.40625 
L 48.78125 2.09375 
Q 45.015625 0.34375 40.984375 -0.53125 
Q 36.96875 -1.421875 32.421875 -1.421875 
Q 20.0625 -1.421875 12.78125 6.34375 
Q 5.515625 14.109375 5.515625 27.296875 
Q 5.515625 40.671875 12.859375 48.328125 
Q 20.21875 56 33.015625 56 
Q 37.15625 56 41.109375 55.140625 
Q 45.0625 54.296875 48.78125 52.59375 
z
" id="DejaVuSans-99"/>
      <path d="M 56.203125 29.59375 
L 56.203125 25.203125 
L 14.890625 25.203125 
Q 15.484375 15.921875 20.484375 11.0625 
Q 25.484375 6.203125 34.421875 6.203125 
Q 39.59375 6.203125 44.453125 7.46875 
Q 49.3125 8.734375 54.109375 11.28125 
L 54.109375 2.78125 
Q 49.265625 0.734375 44.1875 -0.34375 
Q 39.109375 -1.421875 33.890625 -1.421875 
Q 20.796875 -1.421875 13.15625 6.1875 
Q 5.515625 13.8125 5.515625 26.8125 
Q 5.515625 40.234375 12.765625 48.109375 
Q 20.015625 56 32.328125 56 
Q 43.359375 56 49.78125 48.890625 
Q 56.203125 41.796875 56.203125 29.59375 
z
M 47.21875 32.234375 
Q 47.125 39.59375 43.09375 43.984375 
Q 39.0625 48.390625 32.421875 48.390625 
Q 24.90625 48.390625 20.390625 44.140625 
Q 15.875 39.890625 15.1875 32.171875 
z
" id="DejaVuSans-101"/>
      <path id="DejaVuSans-32"/>
      <path d="M 45.40625 46.390625 
L 45.40625 75.984375 
L 54.390625 75.984375 
L 54.390625 0 
L 45.40625 0 
L 45.40625 8.203125 
Q 42.578125 3.328125 38.25 0.953125 
Q 33.9375 -1.421875 27.875 -1.421875 
Q 17.96875 -1.421875 11.734375 6.484375 
Q 5.515625 14.40625 5.515625 27.296875 
Q 5.515625 40.1875 11.734375 48.09375 
Q 17.96875 56 27.875 56 
Q 33.9375 56 38.25 53.625 
Q 42.578125 51.265625 45.40625 46.390625 
z
M 14.796875 27.296875 
Q 14.796875 17.390625 18.875 11.75 
Q 22.953125 6.109375 30.078125 6.109375 
Q 37.203125 6.109375 41.296875 11.75 
Q 45.40625 17.390625 45.40625 27.296875 
Q 45.40625 37.203125 41.296875 42.84375 
Q 37.203125 48.484375 30.078125 48.484375 
Q 22.953125 48.484375 18.875 42.84375 
Q 14.796875 37.203125 14.796875 27.296875 
z
" id="DejaVuSans-100"/>
      <path d="M 9.421875 75.984375 
L 18.40625 75.984375 
L 18.40625 0 
L 9.421875 0 
z
" id="DejaVuSans-108"/>
      <path d="M 9.421875 54.6875 
L 18.40625 54.6875 
L 18.40625 0 
L 9.421875 0 
z
M 9.421875 75.984375 
L 18.40625 75.984375 
L 18.40625 64.59375 
L 9.421875 64.59375 
z
" id="DejaVuSans-105"/>
      <path d="M 2.984375 54.6875 
L 12.5 54.6875 
L 29.59375 8.796875 
L 46.6875 54.6875 
L 56.203125 54.6875 
L 35.6875 0 
L 23.484375 0 
z
" id="DejaVuSans-118"/>
      <path d="M 48.6875 27.296875 
Q 48.6875 37.203125 44.609375 42.84375 
Q 40.53125 48.484375 33.40625 48.484375 
Q 26.265625 48.484375 22.1875 42.84375 
Q 18.109375 37.203125 18.109375 27.296875 
Q 18.109375 17.390625 22.1875 11.75 
Q 26.265625 6.109375 33.40625 6.109375 
Q 40.53125 6.109375 44.609375 11.75 
Q 48.6875 17.390625 48.6875 27.296875 
z
M 18.109375 46.390625 
Q 20.953125 51.265625 25.265625 53.625 
Q 29.59375 56 35.59375 56 
Q 45.5625 56 51.78125 48.09375 
Q 58.015625 40.1875 58.015625 27.296875 
Q 58.015625 14.40625 51.78125 6.484375 
Q 45.5625 -1.421875 35.59375 -1.421875 
Q 29.59375 -1.421875 25.265625 0.953125 
Q 20.953125 3.328125 18.109375 8.203125 
L 18.109375 0 
L 9.078125 0 
L 9.078125 75.984375 
L 18.109375 75.984375 
z
" id="DejaVuSans-98"/>
      <path d="M 8.5 21.578125 
L 8.5 54.6875 
L 17.484375 54.6875 
L 17.484375 21.921875 
Q 17.484375 14.15625 20.5 10.265625 
Q 23.53125 6.390625 29.59375 6.390625 
Q 36.859375 6.390625 41.078125 11.03125 
Q 45.3125 15.671875 45.3125 23.6875 
L 45.3125 54.6875 
L 54.296875 54.6875 
L 54.296875 0 
L 45.3125 0 
L 45.3125 8.40625 
Q 42.046875 3.421875 37.71875 1 
Q 33.40625 -1.421875 27.6875 -1.421875 
Q 18.265625 -1.421875 13.375 4.4375 
Q 8.5 10.296875 8.5 21.578125 
z
M 31.109375 56 
z
" id="DejaVuSans-117"/>
      <path d="M 37.109375 75.984375 
L 37.109375 68.5 
L 28.515625 68.5 
Q 23.6875 68.5 21.796875 66.546875 
Q 19.921875 64.59375 19.921875 59.515625 
L 19.921875 54.6875 
L 34.71875 54.6875 
L 34.71875 47.703125 
L 19.921875 47.703125 
L 19.921875 0 
L 10.890625 0 
L 10.890625 47.703125 
L 2.296875 47.703125 
L 2.296875 54.6875 
L 10.890625 54.6875 
L 10.890625 58.5 
Q 10.890625 67.625 15.140625 71.796875 
Q 19.390625 75.984375 28.609375 75.984375 
z
" id="DejaVuSans-102"/>
      <path d="M 4.203125 54.6875 
L 13.1875 54.6875 
L 24.421875 12.015625 
L 35.59375 54.6875 
L 46.1875 54.6875 
L 57.421875 12.015625 
L 68.609375 54.6875 
L 77.59375 54.6875 
L 63.28125 0 
L 52.6875 0 
L 40.921875 44.828125 
L 29.109375 0 
L 18.5 0 
z
" id="DejaVuSans-119"/>
      <path d="M 9.078125 75.984375 
L 18.109375 75.984375 
L 18.109375 31.109375 
L 44.921875 54.6875 
L 56.390625 54.6875 
L 27.390625 29.109375 
L 57.625 0 
L 45.90625 0 
L 18.109375 26.703125 
L 18.109375 0 
L 9.078125 0 
z
" id="DejaVuSans-107"/>
      <path d="M 54.890625 33.015625 
L 54.890625 0 
L 45.90625 0 
L 45.90625 32.71875 
Q 45.90625 40.484375 42.875 44.328125 
Q 39.84375 48.1875 33.796875 48.1875 
Q 26.515625 48.1875 22.3125 43.546875 
Q 18.109375 38.921875 18.109375 30.90625 
L 18.109375 0 
L 9.078125 0 
L 9.078125 75.984375 
L 18.109375 75.984375 
L 18.109375 46.1875 
Q 21.34375 51.125 25.703125 53.5625 
Q 30.078125 56 35.796875 56 
Q 45.21875 56 50.046875 50.171875 
Q 54.890625 44.34375 54.890625 33.015625 
z
" id="DejaVuSans-104"/>
      <path d="M 44.28125 53.078125 
L 44.28125 44.578125 
Q 40.484375 46.53125 36.375 47.5 
Q 32.28125 48.484375 27.875 48.484375 
Q 21.1875 48.484375 17.84375 46.4375 
Q 14.5 44.390625 14.5 40.28125 
Q 14.5 37.15625 16.890625 35.375 
Q 19.28125 33.59375 26.515625 31.984375 
L 29.59375 31.296875 
Q 39.15625 29.25 43.1875 25.515625 
Q 47.21875 21.78125 47.21875 15.09375 
Q 47.21875 7.46875 41.1875 3.015625 
Q 35.15625 -1.421875 24.609375 -1.421875 
Q 20.21875 -1.421875 15.453125 -0.5625 
Q 10.6875 0.296875 5.421875 2 
L 5.421875 11.28125 
Q 10.40625 8.6875 15.234375 7.390625 
Q 20.0625 6.109375 24.8125 6.109375 
Q 31.15625 6.109375 34.5625 8.28125 
Q 37.984375 10.453125 37.984375 14.40625 
Q 37.984375 18.0625 35.515625 20.015625 
Q 33.0625 21.96875 24.703125 23.78125 
L 21.578125 24.515625 
Q 13.234375 26.265625 9.515625 29.90625 
Q 5.8125 33.546875 5.8125 39.890625 
Q 5.8125 47.609375 11.28125 51.796875 
Q 16.75 56 26.8125 56 
Q 31.78125 56 36.171875 55.265625 
Q 40.578125 54.546875 44.28125 53.078125 
z
" id="DejaVuSans-115"/>
      <path d="M 31.78125 66.40625 
Q 24.171875 66.40625 20.328125 58.90625 
Q 16.5 51.421875 16.5 36.375 
Q 16.5 21.390625 20.328125 13.890625 
Q 24.171875 6.390625 31.78125 6.390625 
Q 39.453125 6.390625 43.28125 13.890625 
Q 47.125 21.390625 47.125 36.375 
Q 47.125 51.421875 43.28125 58.90625 
Q 39.453125 66.40625 31.78125 66.40625 
z
M 31.78125 74.21875 
Q 44.046875 74.21875 50.515625 64.515625 
Q 56.984375 54.828125 56.984375 36.375 
Q 56.984375 17.96875 50.515625 8.265625 
Q 44.046875 -1.421875 31.78125 -1.421875 
Q 19.53125 -1.421875 13.0625 8.265625 
Q 6.59375 17.96875 6.59375 36.375 
Q 6.59375 54.828125 13.0625 64.515625 
Q 19.53125 74.21875 31.78125 74.21875 
z
" id="DejaVuSans-48"/>
     </defs>
     <use xlink:href="#DejaVuSans-73"/>
     <use x="29.492188" xlink:href="#DejaVuSans-109"/>
     <use x="126.904297" xlink:href="#DejaVuSans-112"/>
     <use x="190.380859" xlink:href="#DejaVuSans-111"/>
     <use x="251.5625" xlink:href="#DejaVuSans-114"/>
     <use x="292.675781" xlink:href="#DejaVuSans-116"/>
     <use x="331.884766" xlink:href="#DejaVuSans-97"/>
     <use x="393.164062" xlink:href="#DejaVuSans-110"/>
     <use x="456.542969" xlink:href="#DejaVuSans-99"/>
     <use x="511.523438" xlink:href="#DejaVuSans-101"/>
     <use x="573.046875" xlink:href="#DejaVuSans-32"/>
     <use x="604.833984" xlink:href="#DejaVuSans-83"/>
     <use x="668.310547" xlink:href="#DejaVuSans-99"/>
     <use x="723.291016" xlink:href="#DejaVuSans-111"/>
     <use x="784.472656" xlink:href="#DejaVuSans-114"/>
     <use x="823.335938" xlink:href="#DejaVuSans-101"/>
     <use x="884.859375" xlink:href="#DejaVuSans-32"/>
     <use x="916.646484" xlink:href="#DejaVuSans-97"/>
     <use x="977.925781" xlink:href="#DejaVuSans-110"/>
     <use x="1041.304688" xlink:href="#DejaVuSans-100"/>
     <use x="1104.78125" xlink:href="#DejaVuSans-32"/>
     <use x="1136.568359" xlink:href="#DejaVuSans-82"/>
     <use x="1201.550781" xlink:href="#DejaVuSans-101"/>
     <use x="1263.074219" xlink:href="#DejaVuSans-108"/>
     <use x="1290.857422" xlink:href="#DejaVuSans-97"/>
     <use x="1352.136719" xlink:href="#DejaVuSans-116"/>
     <use x="1391.345703" xlink:href="#DejaVuSans-105"/>
     <use x="1419.128906" xlink:href="#DejaVuSans-118"/>
     <use x="1478.308594" xlink:href="#DejaVuSans-101"/>
     <use x="1539.832031" xlink:href="#DejaVuSans-32"/>
     <use x="1571.619141" xlink:href="#DejaVuSans-65"/>
     <use x="1640.027344" xlink:href="#DejaVuSans-98"/>
     <use x="1703.503906" xlink:href="#DejaVuSans-117"/>
     <use x="1766.882812" xlink:href="#DejaVuSans-110"/>
     <use x="1830.261719" xlink:href="#DejaVuSans-100"/>
     <use x="1893.738281" xlink:href="#DejaVuSans-97"/>
     <use x="1955.017578" xlink:href="#DejaVuSans-110"/>
     <use x="2018.396484" xlink:href="#DejaVuSans-99"/>
     <use x="2073.376953" xlink:href="#DejaVuSans-101"/>
     <use x="2134.900391" xlink:href="#DejaVuSans-32"/>
     <use x="2166.6875" xlink:href="#DejaVuSans-102"/>
     <use x="2201.892578" xlink:href="#DejaVuSans-111"/>
     <use x="2263.074219" xlink:href="#DejaVuSans-114"/>
     <use x="2304.1875" xlink:href="#DejaVuSans-32"/>
     <use x="2335.974609" xlink:href="#DejaVuSans-110"/>
     <use x="2399.353516" xlink:href="#DejaVuSans-101"/>
     <use x="2460.876953" xlink:href="#DejaVuSans-116"/>
     <use x="2500.085938" xlink:href="#DejaVuSans-119"/>
     <use x="2581.873047" xlink:href="#DejaVuSans-111"/>
     <use x="2643.054688" xlink:href="#DejaVuSans-114"/>
     <use x="2684.167969" xlink:href="#DejaVuSans-107"/>
     <use x="2742.078125" xlink:href="#DejaVuSans-32"/>
     <use x="2773.865234" xlink:href="#DejaVuSans-104"/>
     <use x="2837.244141" xlink:href="#DejaVuSans-115"/>
     <use x="2889.34375" xlink:href="#DejaVuSans-97"/>
     <use x="2950.623047" xlink:href="#DejaVuSans-48"/>
     <use x="3014.246094" xlink:href="#DejaVuSans-53"/>
     <use x="3077.869141" xlink:href="#DejaVuSans-49"/>
     <use x="3141.492188" xlink:href="#DejaVuSans-52"/>
     <use x="3205.115234" xlink:href="#DejaVuSans-50"/>
     <use x="3268.738281" xlink:href="#DejaVuSans-32"/>
     <use x="3300.525391" xlink:href="#DejaVuSans-102"/>
     <use x="3335.730469" xlink:href="#DejaVuSans-111"/>
     <use x="3396.912109" xlink:href="#DejaVuSans-114"/>
     <use x="3438.025391" xlink:href="#DejaVuSans-32"/>
     <use x="3469.8125" xlink:href="#DejaVuSans-100"/>
     <use x="3533.289062" xlink:href="#DejaVuSans-97"/>
     <use x="3594.568359" xlink:href="#DejaVuSans-116"/>
     <use x="3633.777344" xlink:href="#DejaVuSans-97"/>
     <use x="3695.056641" xlink:href="#DejaVuSans-115"/>
     <use x="3747.15625" xlink:href="#DejaVuSans-101"/>
     <use x="3808.679688" xlink:href="#DejaVuSans-116"/>
     <use x="3847.888672" xlink:href="#DejaVuSans-32"/>
     <use x="3879.675781" xlink:href="#DejaVuSans-97"/>
     <use x="3940.955078" xlink:href="#DejaVuSans-116"/>
     <use x="3980.164062" xlink:href="#DejaVuSans-104"/>
     <use x="4043.542969" xlink:href="#DejaVuSans-101"/>
     <use x="4105.066406" xlink:href="#DejaVuSans-114"/>
     <use x="4143.929688" xlink:href="#DejaVuSans-111"/>
     <use x="4205.111328" xlink:href="#DejaVuSans-115"/>
     <use x="4257.210938" xlink:href="#DejaVuSans-99"/>
     <use x="4312.191406" xlink:href="#DejaVuSans-108"/>
     <use x="4339.974609" xlink:href="#DejaVuSans-101"/>
     <use x="4401.498047" xlink:href="#DejaVuSans-114"/>
     <use x="4440.361328" xlink:href="#DejaVuSans-111"/>
     <use x="4501.542969" xlink:href="#DejaVuSans-115"/>
     <use x="4553.642578" xlink:href="#DejaVuSans-105"/>
     <use x="4581.425781" xlink:href="#DejaVuSans-115"/>
    </g>
   </g>
   <g id="legend_1">
    <g id="patch_34">
     <path d="M 803.859375 155.714375 
L 1029.8 155.714375 
Q 1031.8 155.714375 1031.8 153.714375 
L 1031.8 110.68 
Q 1031.8 108.68 1029.8 108.68 
L 803.859375 108.68 
Q 801.859375 108.68 801.859375 110.68 
L 801.859375 153.714375 
Q 801.859375 155.714375 803.859375 155.714375 
z
" style="fill:#ffffff;opacity:0.8;stroke:#cccccc;stroke-linejoin:miter;"/>
    </g>
    <g id="text_31">
     <!-- Relative Expression of AS+ compared to AS- -->
     <g transform="translate(805.859375 120.278437)scale(0.1 -0.1)">
      <defs>
       <path d="M 54.890625 54.6875 
L 35.109375 28.078125 
L 55.90625 0 
L 45.3125 0 
L 29.390625 21.484375 
L 13.484375 0 
L 2.875 0 
L 24.125 28.609375 
L 4.6875 54.6875 
L 15.28125 54.6875 
L 29.78125 35.203125 
L 44.28125 54.6875 
z
" id="DejaVuSans-120"/>
       <path d="M 46 62.703125 
L 46 35.5 
L 73.1875 35.5 
L 73.1875 27.203125 
L 46 27.203125 
L 46 0 
L 37.796875 0 
L 37.796875 27.203125 
L 10.59375 27.203125 
L 10.59375 35.5 
L 37.796875 35.5 
L 37.796875 62.703125 
z
" id="DejaVuSans-43"/>
       <path d="M 4.890625 31.390625 
L 31.203125 31.390625 
L 31.203125 23.390625 
L 4.890625 23.390625 
z
" id="DejaVuSans-45"/>
      </defs>
      <use xlink:href="#DejaVuSans-82"/>
      <use x="64.982422" xlink:href="#DejaVuSans-101"/>
      <use x="126.505859" xlink:href="#DejaVuSans-108"/>
      <use x="154.289062" xlink:href="#DejaVuSans-97"/>
      <use x="215.568359" xlink:href="#DejaVuSans-116"/>
      <use x="254.777344" xlink:href="#DejaVuSans-105"/>
      <use x="282.560547" xlink:href="#DejaVuSans-118"/>
      <use x="341.740234" xlink:href="#DejaVuSans-101"/>
      <use x="403.263672" xlink:href="#DejaVuSans-32"/>
      <use x="435.050781" xlink:href="#DejaVuSans-69"/>
      <use x="498.234375" xlink:href="#DejaVuSans-120"/>
      <use x="557.414062" xlink:href="#DejaVuSans-112"/>
      <use x="620.890625" xlink:href="#DejaVuSans-114"/>
      <use x="659.753906" xlink:href="#DejaVuSans-101"/>
      <use x="721.277344" xlink:href="#DejaVuSans-115"/>
      <use x="773.376953" xlink:href="#DejaVuSans-115"/>
      <use x="825.476562" xlink:href="#DejaVuSans-105"/>
      <use x="853.259766" xlink:href="#DejaVuSans-111"/>
      <use x="914.441406" xlink:href="#DejaVuSans-110"/>
      <use x="977.820312" xlink:href="#DejaVuSans-32"/>
      <use x="1009.607422" xlink:href="#DejaVuSans-111"/>
      <use x="1070.789062" xlink:href="#DejaVuSans-102"/>
      <use x="1105.994141" xlink:href="#DejaVuSans-32"/>
      <use x="1137.78125" xlink:href="#DejaVuSans-65"/>
      <use x="1206.189453" xlink:href="#DejaVuSans-83"/>
      <use x="1269.666016" xlink:href="#DejaVuSans-43"/>
      <use x="1353.455078" xlink:href="#DejaVuSans-32"/>
      <use x="1385.242188" xlink:href="#DejaVuSans-99"/>
      <use x="1440.222656" xlink:href="#DejaVuSans-111"/>
      <use x="1501.404297" xlink:href="#DejaVuSans-109"/>
      <use x="1598.816406" xlink:href="#DejaVuSans-112"/>
      <use x="1662.292969" xlink:href="#DejaVuSans-97"/>
      <use x="1723.572266" xlink:href="#DejaVuSans-114"/>
      <use x="1762.435547" xlink:href="#DejaVuSans-101"/>
      <use x="1823.958984" xlink:href="#DejaVuSans-100"/>
      <use x="1887.435547" xlink:href="#DejaVuSans-32"/>
      <use x="1919.222656" xlink:href="#DejaVuSans-116"/>
      <use x="1958.431641" xlink:href="#DejaVuSans-111"/>
      <use x="2019.613281" xlink:href="#DejaVuSans-32"/>
      <use x="2051.400391" xlink:href="#DejaVuSans-65"/>
      <use x="2119.808594" xlink:href="#DejaVuSans-83"/>
      <use x="2183.285156" xlink:href="#DejaVuSans-45"/>
     </g>
    </g>
    <g id="patch_35">
     <path d="M 829.136719 134.956562 
L 849.136719 134.956562 
L 849.136719 127.956562 
L 829.136719 127.956562 
z
" style="fill:#0000ff;stroke:#0000ff;stroke-linejoin:miter;"/>
    </g>
    <g id="text_32">
     <!-- Decreased expression in AS+ -->
     <g transform="translate(857.136719 134.956562)scale(0.1 -0.1)">
      <use xlink:href="#DejaVuSans-68"/>
      <use x="77.001953" xlink:href="#DejaVuSans-101"/>
      <use x="138.525391" xlink:href="#DejaVuSans-99"/>
      <use x="193.505859" xlink:href="#DejaVuSans-114"/>
      <use x="232.369141" xlink:href="#DejaVuSans-101"/>
      <use x="293.892578" xlink:href="#DejaVuSans-97"/>
      <use x="355.171875" xlink:href="#DejaVuSans-115"/>
      <use x="407.271484" xlink:href="#DejaVuSans-101"/>
      <use x="468.794922" xlink:href="#DejaVuSans-100"/>
      <use x="532.271484" xlink:href="#DejaVuSans-32"/>
      <use x="564.058594" xlink:href="#DejaVuSans-101"/>
      <use x="623.832031" xlink:href="#DejaVuSans-120"/>
      <use x="683.011719" xlink:href="#DejaVuSans-112"/>
      <use x="746.488281" xlink:href="#DejaVuSans-114"/>
      <use x="785.351562" xlink:href="#DejaVuSans-101"/>
      <use x="846.875" xlink:href="#DejaVuSans-115"/>
      <use x="898.974609" xlink:href="#DejaVuSans-115"/>
      <use x="951.074219" xlink:href="#DejaVuSans-105"/>
      <use x="978.857422" xlink:href="#DejaVuSans-111"/>
      <use x="1040.039062" xlink:href="#DejaVuSans-110"/>
      <use x="1103.417969" xlink:href="#DejaVuSans-32"/>
      <use x="1135.205078" xlink:href="#DejaVuSans-105"/>
      <use x="1162.988281" xlink:href="#DejaVuSans-110"/>
      <use x="1226.367188" xlink:href="#DejaVuSans-32"/>
      <use x="1258.154297" xlink:href="#DejaVuSans-65"/>
      <use x="1326.5625" xlink:href="#DejaVuSans-83"/>
      <use x="1390.039062" xlink:href="#DejaVuSans-43"/>
     </g>
    </g>
    <g id="patch_36">
     <path d="M 829.136719 149.634687 
L 849.136719 149.634687 
L 849.136719 142.634687 
L 829.136719 142.634687 
z
" style="fill:#ff0000;stroke:#ff0000;stroke-linejoin:miter;"/>
    </g>
    <g id="text_33">
     <!-- Increased expression in AS+ -->
     <g transform="translate(857.136719 149.634687)scale(0.1 -0.1)">
      <use xlink:href="#DejaVuSans-73"/>
      <use x="29.492188" xlink:href="#DejaVuSans-110"/>
      <use x="92.871094" xlink:href="#DejaVuSans-99"/>
      <use x="147.851562" xlink:href="#DejaVuSans-114"/>
      <use x="186.714844" xlink:href="#DejaVuSans-101"/>
      <use x="248.238281" xlink:href="#DejaVuSans-97"/>
      <use x="309.517578" xlink:href="#DejaVuSans-115"/>
      <use x="361.617188" xlink:href="#DejaVuSans-101"/>
      <use x="423.140625" xlink:href="#DejaVuSans-100"/>
      <use x="486.617188" xlink:href="#DejaVuSans-32"/>
      <use x="518.404297" xlink:href="#DejaVuSans-101"/>
      <use x="578.177734" xlink:href="#DejaVuSans-120"/>
      <use x="637.357422" xlink:href="#DejaVuSans-112"/>
      <use x="700.833984" xlink:href="#DejaVuSans-114"/>
      <use x="739.697266" xlink:href="#DejaVuSans-101"/>
      <use x="801.220703" xlink:href="#DejaVuSans-115"/>
      <use x="853.320312" xlink:href="#DejaVuSans-115"/>
      <use x="905.419922" xlink:href="#DejaVuSans-105"/>
      <use x="933.203125" xlink:href="#DejaVuSans-111"/>
      <use x="994.384766" xlink:href="#DejaVuSans-110"/>
      <use x="1057.763672" xlink:href="#DejaVuSans-32"/>
      <use x="1089.550781" xlink:href="#DejaVuSans-105"/>
      <use x="1117.333984" xlink:href="#DejaVuSans-110"/>
      <use x="1180.712891" xlink:href="#DejaVuSans-32"/>
      <use x="1212.5" xlink:href="#DejaVuSans-65"/>
      <use x="1280.908203" xlink:href="#DejaVuSans-83"/>
      <use x="1344.384766" xlink:href="#DejaVuSans-43"/>
     </g>
    </g>
   </g>
  </g>
 </g>
 <defs>
  <clipPath id="pff1431f6fb">
   <rect height="665.28" width="892.8" x="144" y="103.68"/>
  </clipPath>
 </defs>
</svg>
