<?xml version="1.0" encoding="utf-8" standalone="no"?>
<!DOCTYPE svg PUBLIC "-//W3C//DTD SVG 1.1//EN"
  "http://www.w3.org/Graphics/SVG/1.1/DTD/svg11.dtd">
<!-- Created with matplotlib (https://matplotlib.org/) -->
<svg height="864pt" version="1.1" viewBox="0 0 1152 864" width="1152pt" xmlns="http://www.w3.org/2000/svg" xmlns:xlink="http://www.w3.org/1999/xlink">
 <metadata>
  <rdf:RDF xmlns:cc="http://creativecommons.org/ns#" xmlns:dc="http://purl.org/dc/elements/1.1/" xmlns:rdf="http://www.w3.org/1999/02/22-rdf-syntax-ns#">
   <cc:Work>
    <dc:type rdf:resource="http://purl.org/dc/dcmitype/StillImage"/>
    <dc:date>2024-04-26T11:30:36.119626</dc:date>
    <dc:format>image/svg+xml</dc:format>
    <dc:creator>
     <cc:Agent>
      <dc:title>Matplotlib v3.3.1, https://matplotlib.org/</dc:title>
     </cc:Agent>
    </dc:creator>
   </cc:Work>
  </rdf:RDF>
 </metadata>
 <defs>
  <style type="text/css">*{stroke-linecap:butt;stroke-linejoin:round;}</style>
 </defs>
 <g id="figure_1">
  <g id="patch_1">
   <path d="M 0 864 
L 1152 864 
L 1152 0 
L 0 0 
z
" style="fill:#ffffff;"/>
  </g>
  <g id="axes_1">
   <g id="patch_2">
    <path clip-path="url(#p1d8f7ed2e2)" d="M 632.367423 496.088225 
Q 730.003589 346.939233 827.027404 198.72567 
" style="fill:none;stroke:#000000;stroke-linecap:round;"/>
    <path clip-path="url(#p1d8f7ed2e2)" d="M 823.163244 200.976951 
L 827.027404 198.72567 
L 826.509933 203.167767 
L 823.163244 200.976951 
z
" style="stroke:#000000;stroke-linecap:round;"/>
   </g>
   <g id="patch_3">
    <path clip-path="url(#p1d8f7ed2e2)" d="M 626.636838 495.652864 
Q 616.499644 473.333779 606.824799 452.032651 
" style="fill:none;stroke:#000000;stroke-linecap:round;"/>
    <path clip-path="url(#p1d8f7ed2e2)" d="M 606.657976 456.501674 
L 606.824799 452.032651 
L 610.299924 454.847523 
L 606.657976 456.501674 
z
" style="stroke:#000000;stroke-linecap:round;"/>
   </g>
   <g id="patch_4">
    <path clip-path="url(#p1d8f7ed2e2)" d="M 919.201111 305.510827 
Q 766.826506 368.063309 615.486177 430.191202 
" style="fill:none;stroke:#000000;stroke-linecap:round;"/>
    <path clip-path="url(#p1d8f7ed2e2)" d="M 619.946038 430.522316 
L 615.486177 430.191202 
L 618.426985 426.821981 
L 619.946038 430.522316 
z
" style="stroke:#000000;stroke-linecap:round;"/>
   </g>
   <g id="patch_5">
    <path clip-path="url(#p1d8f7ed2e2)" d="M 610.330763 175.600748 
Q 764.763213 238.383931 918.159947 300.746051 
" style="fill:none;stroke:#000000;stroke-linecap:round;"/>
    <path clip-path="url(#p1d8f7ed2e2)" d="M 915.207675 297.386872 
L 918.159947 300.746051 
L 913.70124 301.092361 
L 915.207675 297.386872 
z
" style="stroke:#000000;stroke-linecap:round;"/>
   </g>
   <g id="patch_6">
    <path clip-path="url(#p1d8f7ed2e2)" d="M 604.109131 179.714195 
Q 602.098745 300.262516 600.107001 419.692958 
" style="fill:none;stroke:#000000;stroke-linecap:round;"/>
    <path clip-path="url(#p1d8f7ed2e2)" d="M 602.173422 415.726863 
L 600.107001 419.692958 
L 598.173978 415.660164 
L 602.173422 415.726863 
z
" style="stroke:#000000;stroke-linecap:round;"/>
   </g>
   <g id="patch_7">
    <path clip-path="url(#p1d8f7ed2e2)" d="M 746.024941 199.816583 
Q 677.077527 311.492315 608.717454 422.216716 
" style="fill:none;stroke:#000000;stroke-linecap:round;"/>
    <path clip-path="url(#p1d8f7ed2e2)" d="M 612.520582 419.8638 
L 608.717454 422.216716 
L 609.116998 417.762464 
L 612.520582 419.8638 
z
" style="stroke:#000000;stroke-linecap:round;"/>
   </g>
   <g id="patch_8">
    <path clip-path="url(#p1d8f7ed2e2)" d="M 750.565465 293.60533 
Q 749.659967 247.082395 748.776225 201.677281 
" style="fill:none;stroke:#000000;stroke-linecap:round;"/>
    <path clip-path="url(#p1d8f7ed2e2)" d="M 746.854443 205.715443 
L 748.776225 201.677281 
L 750.853685 205.637604 
L 746.854443 205.715443 
z
" style="stroke:#000000;stroke-linecap:round;"/>
   </g>
   <g id="patch_9">
    <path clip-path="url(#p1d8f7ed2e2)" d="M 746.291211 303.525189 
Q 678.90781 364.757041 612.351845 425.236996 
" style="fill:none;stroke:#000000;stroke-linecap:round;"/>
    <path clip-path="url(#p1d8f7ed2e2)" d="M 616.657205 424.027087 
L 612.351845 425.236996 
L 613.967134 421.066763 
L 616.657205 424.027087 
z
" style="stroke:#000000;stroke-linecap:round;"/>
   </g>
   <g id="patch_10">
    <path clip-path="url(#p1d8f7ed2e2)" d="M 489.157458 161.873655 
Q 657.271016 177.497966 824.271337 193.018813 
" style="fill:none;stroke:#000000;stroke-linecap:round;"/>
    <path clip-path="url(#p1d8f7ed2e2)" d="M 820.473582 190.657234 
L 824.271337 193.018813 
L 820.103421 194.64007 
L 820.473582 190.657234 
z
" style="stroke:#000000;stroke-linecap:round;"/>
   </g>
   <g id="patch_11">
    <path clip-path="url(#p1d8f7ed2e2)" d="M 482.236393 630.685572 
Q 354.005989 550.800294 226.724535 471.506196 
" style="fill:none;stroke:#000000;stroke-linecap:round;"/>
    <path clip-path="url(#p1d8f7ed2e2)" d="M 229.06207 475.318797 
L 226.724535 471.506196 
L 231.177137 471.923729 
L 229.06207 475.318797 
z
" style="stroke:#000000;stroke-linecap:round;"/>
   </g>
   <g id="patch_12">
    <path clip-path="url(#p1d8f7ed2e2)" d="M 543.562381 447.227349 
Q 541.425171 332.133362 539.308719 218.157216 
" style="fill:none;stroke:#000000;stroke-linecap:round;"/>
    <path clip-path="url(#p1d8f7ed2e2)" d="M 537.383328 222.193659 
L 539.308719 218.157216 
L 541.382639 222.119394 
L 537.383328 222.193659 
z
" style="stroke:#000000;stroke-linecap:round;"/>
   </g>
   <g id="patch_13">
    <path clip-path="url(#p1d8f7ed2e2)" d="M 535.264995 215.165324 
Q 380.341173 340.110392 226.287626 464.35359 
" style="fill:none;stroke:#000000;stroke-linecap:round;"/>
    <path clip-path="url(#p1d8f7ed2e2)" d="M 230.656759 463.399295 
L 226.287626 464.35359 
L 228.14567 460.285707 
L 230.656759 463.399295 
z
" style="stroke:#000000;stroke-linecap:round;"/>
   </g>
   <g id="patch_14">
    <path clip-path="url(#p1d8f7ed2e2)" d="M 610.708132 425.148616 
Q 718.821522 311.189526 826.16542 198.041535 
" style="fill:none;stroke:#000000;stroke-linecap:round;"/>
    <path clip-path="url(#p1d8f7ed2e2)" d="M 821.961463 199.566901 
L 826.16542 198.041535 
L 824.863339 202.319921 
L 821.961463 199.566901 
z
" style="stroke:#000000;stroke-linecap:round;"/>
   </g>
   <g id="patch_15">
    <path clip-path="url(#p1d8f7ed2e2)" d="M 612.159587 446.510651 
Q 733.170726 543.537602 853.309595 639.865164 
" style="fill:none;stroke:#000000;stroke-linecap:round;"/>
    <path clip-path="url(#p1d8f7ed2e2)" d="M 851.439969 635.802592 
L 853.309595 639.865164 
L 848.937761 638.923322 
L 851.439969 635.802592 
z
" style="stroke:#000000;stroke-linecap:round;"/>
   </g>
   <g id="patch_16">
    <path clip-path="url(#p1d8f7ed2e2)" d="M 585.562728 443.444177 
Q 432.679594 516.591335 280.805001 589.255953 
" style="fill:none;stroke:#000000;stroke-linecap:round;"/>
    <path clip-path="url(#p1d8f7ed2e2)" d="M 285.276461 589.333706 
L 280.805001 589.255953 
L 283.55008 585.725437 
L 285.276461 589.333706 
z
" style="stroke:#000000;stroke-linecap:round;"/>
   </g>
   <g id="patch_17">
    <path clip-path="url(#p1d8f7ed2e2)" d="M 606.062248 451.153338 
Q 655.689574 566.779704 704.875936 681.378671 
" style="fill:none;stroke:#000000;stroke-linecap:round;"/>
    <path clip-path="url(#p1d8f7ed2e2)" d="M 705.136163 676.914113 
L 704.875936 681.378671 
L 701.460425 678.491755 
L 705.136163 676.914113 
z
" style="stroke:#000000;stroke-linecap:round;"/>
   </g>
   <g id="patch_18">
    <path clip-path="url(#p1d8f7ed2e2)" d="M 585.397021 430.15087 
Q 451.5266 370.120825 318.676341 310.54824 
" style="fill:none;stroke:#000000;stroke-linecap:round;"/>
    <path clip-path="url(#p1d8f7ed2e2)" d="M 321.507854 314.00982 
L 318.676341 310.54824 
L 323.144512 310.359977 
L 321.507854 314.00982 
z
" style="stroke:#000000;stroke-linecap:round;"/>
   </g>
   <g id="patch_19">
    <path clip-path="url(#p1d8f7ed2e2)" d="M 594.605801 421.694543 
Q 552.460184 301.158704 510.683584 181.678244 
" style="fill:none;stroke:#000000;stroke-linecap:round;"/>
    <path clip-path="url(#p1d8f7ed2e2)" d="M 510.115894 186.114203 
L 510.683584 181.678244 
L 513.891737 184.793971 
L 510.115894 186.114203 
z
" style="stroke:#000000;stroke-linecap:round;"/>
   </g>
   <g id="patch_20">
    <path clip-path="url(#p1d8f7ed2e2)" d="M 600.763446 452.404978 
Q 608.309741 579.29143 615.78966 705.06182 
" style="fill:none;stroke:#000000;stroke-linecap:round;"/>
    <path clip-path="url(#p1d8f7ed2e2)" d="M 617.54866 700.950139 
L 615.78966 705.06182 
L 613.555716 701.187611 
L 617.54866 700.950139 
z
" style="stroke:#000000;stroke-linecap:round;"/>
   </g>
   <g id="patch_21">
    <path clip-path="url(#p1d8f7ed2e2)" d="M 584.052243 435.47932 
Q 414.915832 423.241663 246.89454 411.084689 
" style="fill:none;stroke:#000000;stroke-linecap:round;"/>
    <path clip-path="url(#p1d8f7ed2e2)" d="M 250.73978 413.368135 
L 246.89454 411.084689 
L 251.028441 409.378564 
L 250.73978 413.368135 
z
" style="stroke:#000000;stroke-linecap:round;"/>
   </g>
   <g id="patch_22">
    <path clip-path="url(#p1d8f7ed2e2)" d="M 613.735419 444.129585 
Q 742.974208 513.893266 871.229153 583.125864 
" style="fill:none;stroke:#000000;stroke-linecap:round;"/>
    <path clip-path="url(#p1d8f7ed2e2)" d="M 868.659275 579.465846 
L 871.229153 583.125864 
L 866.759212 582.985756 
L 868.659275 579.465846 
z
" style="stroke:#000000;stroke-linecap:round;"/>
   </g>
   <g id="patch_23">
    <path clip-path="url(#p1d8f7ed2e2)" d="M 609.578368 449.066278 
Q 696.131015 559.50818 781.994016 669.070088 
" style="fill:none;stroke:#000000;stroke-linecap:round;"/>
    <path clip-path="url(#p1d8f7ed2e2)" d="M 781.100845 664.688051 
L 781.994016 669.070088 
L 777.952484 667.155402 
L 781.100845 664.688051 
z
" style="stroke:#000000;stroke-linecap:round;"/>
   </g>
   <g id="patch_24">
    <path clip-path="url(#p1d8f7ed2e2)" d="M 588.392526 425.691981 
Q 480.282917 322.345079 372.981479 219.770745 
" style="fill:none;stroke:#000000;stroke-linecap:round;"/>
    <path clip-path="url(#p1d8f7ed2e2)" d="M 374.490869 223.980466 
L 372.981479 219.770745 
L 377.254889 221.089066 
L 374.490869 223.980466 
z
" style="stroke:#000000;stroke-linecap:round;"/>
   </g>
   <g id="patch_25">
    <path clip-path="url(#p1d8f7ed2e2)" d="M 615.15416 432.7356 
Q 775.628972 392.066774 935.020012 351.672606 
" style="fill:none;stroke:#000000;stroke-linecap:round;"/>
    <path clip-path="url(#p1d8f7ed2e2)" d="M 930.651266 350.716542 
L 935.020012 351.672606 
L 931.633914 354.593965 
L 930.651266 350.716542 
z
" style="stroke:#000000;stroke-linecap:round;"/>
   </g>
   <g id="patch_26">
    <path clip-path="url(#p1d8f7ed2e2)" d="M 590.617834 449.47299 
Q 510.127506 561.834765 430.288264 673.287647 
" style="fill:none;stroke:#000000;stroke-linecap:round;"/>
    <path clip-path="url(#p1d8f7ed2e2)" d="M 434.243537 671.200588 
L 430.288264 673.287647 
L 430.99178 668.871193 
L 434.243537 671.200588 
z
" style="stroke:#000000;stroke-linecap:round;"/>
   </g>
   <g id="patch_27">
    <path clip-path="url(#p1d8f7ed2e2)" d="M 614.621242 442.199119 
Q 772.536478 501.736428 929.405562 560.879317 
" style="fill:none;stroke:#000000;stroke-linecap:round;"/>
    <path clip-path="url(#p1d8f7ed2e2)" d="M 926.368299 557.596782 
L 929.405562 560.879317 
L 924.957177 561.339607 
L 926.368299 557.596782 
z
" style="stroke:#000000;stroke-linecap:round;"/>
   </g>
   <g id="patch_28">
    <path clip-path="url(#p1d8f7ed2e2)" d="M 584.06519 437.887391 
Q 530.011785 442.232635 477.072818 446.488291 
" style="fill:none;stroke:#000000;stroke-linecap:round;"/>
    <path clip-path="url(#p1d8f7ed2e2)" d="M 481.220215 448.161342 
L 477.072818 446.488291 
L 480.899697 444.174204 
L 481.220215 448.161342 
z
" style="stroke:#000000;stroke-linecap:round;"/>
   </g>
   <g id="patch_29">
    <path clip-path="url(#p1d8f7ed2e2)" d="M 584.507248 432.693318 
Q 422.992442 391.282989 262.560642 350.150328 
" style="fill:none;stroke:#000000;stroke-linecap:round;"/>
    <path clip-path="url(#p1d8f7ed2e2)" d="M 265.93861 353.081084 
L 262.560642 350.150328 
L 266.932028 349.206407 
L 265.93861 353.081084 
z
" style="stroke:#000000;stroke-linecap:round;"/>
   </g>
   <g id="patch_30">
    <path clip-path="url(#p1d8f7ed2e2)" d="M 584.525126 440.600937 
Q 417.06771 484.167572 250.692309 527.452703 
" style="fill:none;stroke:#000000;stroke-linecap:round;"/>
    <path clip-path="url(#p1d8f7ed2e2)" d="M 255.067011 528.381135 
L 250.692309 527.452703 
L 254.059875 524.510001 
L 255.067011 528.381135 
z
" style="stroke:#000000;stroke-linecap:round;"/>
   </g>
   <g id="patch_31">
    <path clip-path="url(#p1d8f7ed2e2)" d="M 612.738705 427.496431 
Q 736.494702 340.05956 859.337577 253.267832 
" style="fill:none;stroke:#000000;stroke-linecap:round;"/>
    <path clip-path="url(#p1d8f7ed2e2)" d="M 854.916629 253.942528 
L 859.337577 253.267832 
L 857.224766 257.209408 
L 854.916629 253.942528 
z
" style="stroke:#000000;stroke-linecap:round;"/>
   </g>
   <g id="patch_32">
    <path clip-path="url(#p1d8f7ed2e2)" d="M 615.428343 439.173028 
Q 784.877881 466.892316 953.22405 494.43111 
" style="fill:none;stroke:#000000;stroke-linecap:round;"/>
    <path clip-path="url(#p1d8f7ed2e2)" d="M 949.599396 491.81159 
L 953.22405 494.43111 
L 948.953641 495.759121 
L 949.599396 491.81159 
z
" style="stroke:#000000;stroke-linecap:round;"/>
   </g>
   <g id="patch_33">
    <path clip-path="url(#p1d8f7ed2e2)" d="M 604.24052 421.440993 
Q 640.570957 296.553942 676.589098 172.740424 
" style="fill:none;stroke:#000000;stroke-linecap:round;"/>
    <path clip-path="url(#p1d8f7ed2e2)" d="M 673.551397 176.022554 
L 676.589098 172.740424 
L 677.392181 177.139862 
L 673.551397 176.022554 
z
" style="stroke:#000000;stroke-linecap:round;"/>
   </g>
   <g id="patch_34">
    <path clip-path="url(#p1d8f7ed2e2)" d="M 586.286972 428.449754 
Q 443.84879 342.480496 302.367809 257.088961 
" style="fill:none;stroke:#000000;stroke-linecap:round;"/>
    <path clip-path="url(#p1d8f7ed2e2)" d="M 304.758935 260.868183 
L 302.367809 257.088961 
L 306.825862 257.443593 
L 304.758935 260.868183 
z
" style="stroke:#000000;stroke-linecap:round;"/>
   </g>
   <g id="patch_35">
    <path clip-path="url(#p1d8f7ed2e2)" d="M 928.274536 428.848563 
Q 771.95189 432.547552 616.746964 436.220093 
" style="fill:none;stroke:#000000;stroke-linecap:round;"/>
    <path clip-path="url(#p1d8f7ed2e2)" d="M 620.793157 438.124909 
L 616.746964 436.220093 
L 620.698533 434.126029 
L 620.793157 438.124909 
z
" style="stroke:#000000;stroke-linecap:round;"/>
   </g>
   <g id="patch_36">
    <path clip-path="url(#p1d8f7ed2e2)" d="M 475.770495 448.796316 
Q 564.183469 470.987934 651.512047 492.90737 
" style="fill:none;stroke:#000000;stroke-linecap:round;"/>
    <path clip-path="url(#p1d8f7ed2e2)" d="M 648.119287 489.99375 
L 651.512047 492.90737 
L 647.145495 493.873406 
L 648.119287 489.99375 
z
" style="stroke:#000000;stroke-linecap:round;"/>
   </g>
   <g id="patch_37">
    <path clip-path="url(#p1d8f7ed2e2)" d="M 464.928591 452.5528 
Q 412.969274 519.781624 361.693657 586.125827 
" style="fill:none;stroke:#000000;stroke-linecap:round;"/>
    <path clip-path="url(#p1d8f7ed2e2)" d="M 365.722193 584.183949 
L 361.693657 586.125827 
L 362.557276 581.737871 
L 365.722193 584.183949 
z
" style="stroke:#000000;stroke-linecap:round;"/>
   </g>
   <g id="patch_38">
    <path clip-path="url(#p1d8f7ed2e2)" d="M 652.599025 495.66432 
Q 466.368572 543.167923 281.221465 590.395187 
" style="fill:none;stroke:#000000;stroke-linecap:round;"/>
    <path clip-path="url(#p1d8f7ed2e2)" d="M 285.591689 591.344472 
L 281.221465 590.395187 
L 284.603028 587.468579 
L 285.591689 591.344472 
z
" style="stroke:#000000;stroke-linecap:round;"/>
   </g>
   <g id="patch_39">
    <path clip-path="url(#p1d8f7ed2e2)" d="M 352.848037 591.073908 
Q 316.570824 591.471072 281.411577 591.855995 
" style="fill:none;stroke:#000000;stroke-linecap:round;"/>
    <path clip-path="url(#p1d8f7ed2e2)" d="M 285.433232 593.812086 
L 281.411577 591.855995 
L 285.389443 589.812326 
L 285.433232 593.812086 
z
" style="stroke:#000000;stroke-linecap:round;"/>
   </g>
   <g id="patch_40">
    <path clip-path="url(#p1d8f7ed2e2)" d="M 372.457056 640.384313 
Q 480.255117 543.777153 587.220573 447.916163 
" style="fill:none;stroke:#000000;stroke-linecap:round;"/>
    <path clip-path="url(#p1d8f7ed2e2)" d="M 582.906967 449.096331 
L 587.220573 447.916163 
L 585.576543 452.075149 
L 582.906967 449.096331 
z
" style="stroke:#000000;stroke-linecap:round;"/>
   </g>
   <g id="PathCollection_1">
    <path clip-path="url(#p1d8f7ed2e2)" d="M 616.156445 716.292788 
C 617.499353 716.292788 618.787439 715.759245 619.737019 714.809665 
C 620.686598 713.860086 621.220141 712.571999 621.220141 711.229091 
C 621.220141 709.886183 620.686598 708.598096 619.737019 707.648517 
C 618.787439 706.698937 617.499353 706.165394 616.156445 706.165394 
C 614.813536 706.165394 613.52545 706.698937 612.57587 707.648517 
C 611.626291 708.598096 611.092748 709.886183 611.092748 711.229091 
C 611.092748 712.571999 611.626291 713.860086 612.57587 714.809665 
C 613.52545 715.759245 614.813536 716.292788 616.156445 716.292788 
z
" style="fill:#b40426;stroke:#b40426;"/>
    <path clip-path="url(#p1d8f7ed2e2)" d="M 240.726663 415.702117 
C 242.069571 415.702117 243.357658 415.168574 244.307238 414.218995 
C 245.256817 413.269415 245.79036 411.981328 245.79036 410.63842 
C 245.79036 409.295512 245.256817 408.007425 244.307238 407.057846 
C 243.357658 406.108266 242.069571 405.574723 240.726663 405.574723 
C 239.383755 405.574723 238.095668 406.108266 237.146089 407.057846 
C 236.19651 408.007425 235.662966 409.295512 235.662966 410.63842 
C 235.662966 411.981328 236.19651 413.269415 237.146089 414.218995 
C 238.095668 415.168574 239.383755 415.702117 240.726663 415.702117 
z
" style="fill:#afcafc;stroke:#afcafc;"/>
    <path clip-path="url(#p1d8f7ed2e2)" d="M 629.100946 507.040944 
C 630.682311 507.040944 632.199121 506.41266 633.317316 505.294466 
C 634.43551 504.176271 635.063794 502.659461 635.063794 501.078096 
C 635.063794 499.49673 634.43551 497.97992 633.317316 496.861725 
C 632.199121 495.743531 630.682311 495.115248 629.100946 495.115248 
C 627.51958 495.115248 626.00277 495.743531 624.884575 496.861725 
C 623.766381 497.97992 623.138098 499.49673 623.138098 501.078096 
C 623.138098 502.659461 623.766381 504.176271 624.884575 505.294466 
C 626.00277 506.41266 627.51958 507.040944 629.100946 507.040944 
z
" style="fill:#bad0f8;stroke:#bad0f8;"/>
    <path clip-path="url(#p1d8f7ed2e2)" d="M 924.514679 309.073332 
C 926.037958 309.073332 927.499052 308.468127 928.576172 307.391006 
C 929.653293 306.313886 930.258498 304.852792 930.258498 303.329513 
C 930.258498 301.806235 929.653293 300.345141 928.576172 299.26802 
C 927.499052 298.190899 926.037958 297.585694 924.514679 297.585694 
C 922.991401 297.585694 921.530307 298.190899 920.453186 299.26802 
C 919.376065 300.345141 918.77086 301.806235 918.77086 303.329513 
C 918.77086 304.852792 919.376065 306.313886 920.453186 307.391006 
C 921.530307 308.468127 922.991401 309.073332 924.514679 309.073332 
z
" style="fill:#a3c2fe;stroke:#a3c2fe;"/>
    <path clip-path="url(#p1d8f7ed2e2)" d="M 604.219167 179.711909 
C 605.968388 179.711909 607.6462 179.016936 608.883086 177.78005 
C 610.119972 176.543165 610.814944 174.865352 610.814944 173.116132 
C 610.814944 171.366911 610.119972 169.689099 608.883086 168.452213 
C 607.6462 167.215327 605.968388 166.520355 604.219167 166.520355 
C 602.469947 166.520355 600.792134 167.215327 599.555249 168.452213 
C 598.318363 169.689099 597.62339 171.366911 597.62339 173.116132 
C 597.62339 174.865352 598.318363 176.543165 599.555249 177.78005 
C 600.792134 179.016936 602.469947 179.711909 604.219167 179.711909 
z
" style="fill:#d5dbe5;stroke:#d5dbe5;"/>
    <path clip-path="url(#p1d8f7ed2e2)" d="M 748.657031 200.561865 
C 749.985312 200.561865 751.259368 200.034133 752.198604 199.094897 
C 753.13784 198.155661 753.665571 196.881605 753.665571 195.553325 
C 753.665571 194.225045 753.13784 192.950988 752.198604 192.011752 
C 751.259368 191.072516 749.985312 190.544785 748.657031 190.544785 
C 747.328751 190.544785 746.054695 191.072516 745.115459 192.011752 
C 744.176223 192.950988 743.648492 194.225045 743.648492 195.553325 
C 743.648492 196.881605 744.176223 198.155661 745.115459 199.094897 
C 746.054695 200.034133 747.328751 200.561865 748.657031 200.561865 
z
" style="fill:#a5c3fe;stroke:#a5c3fe;"/>
    <path clip-path="url(#p1d8f7ed2e2)" d="M 750.680902 305.470351 
C 752.254646 305.470351 753.764146 304.845096 754.876952 303.732291 
C 755.989757 302.619485 756.615013 301.109985 756.615013 299.53624 
C 756.615013 297.962496 755.989757 296.452996 754.876952 295.34019 
C 753.764146 294.227385 752.254646 293.602129 750.680902 293.602129 
C 749.107157 293.602129 747.597657 294.227385 746.484851 295.34019 
C 745.372046 296.452996 744.74679 297.962496 744.74679 299.53624 
C 744.74679 301.109985 745.372046 302.619485 746.484851 303.732291 
C 747.597657 304.845096 749.107157 305.470351 750.680902 305.470351 
z
" style="fill:#c5d6f2;stroke:#c5d6f2;"/>
    <path clip-path="url(#p1d8f7ed2e2)" d="M 368.512898 220.562722 
C 369.855806 220.562722 371.143893 220.029179 372.093472 219.079599 
C 373.043052 218.13002 373.576595 216.841933 373.576595 215.499025 
C 373.576595 214.156117 373.043052 212.86803 372.093472 211.91845 
C 371.143893 210.968871 369.855806 210.435328 368.512898 210.435328 
C 367.16999 210.435328 365.881903 210.968871 364.932324 211.91845 
C 363.982744 212.86803 363.449201 214.156117 363.449201 215.499025 
C 363.449201 216.841933 363.982744 218.13002 364.932324 219.079599 
C 365.881903 220.029179 367.16999 220.562722 368.512898 220.562722 
z
" style="fill:#f39577;stroke:#f39577;"/>
    <path clip-path="url(#p1d8f7ed2e2)" d="M 935.189109 568.123531 
C 936.532017 568.123531 937.820104 567.589987 938.769684 566.640408 
C 939.719263 565.690829 940.252806 564.402742 940.252806 563.059834 
C 940.252806 561.716926 939.719263 560.428839 938.769684 559.479259 
C 937.820104 558.52968 936.532017 557.996137 935.189109 557.996137 
C 933.846201 557.996137 932.558114 558.52968 931.608535 559.479259 
C 930.658955 560.428839 930.125412 561.716926 930.125412 563.059834 
C 930.125412 564.402742 930.658955 565.690829 931.608535 566.640408 
C 932.558114 567.589987 933.846201 568.123531 935.189109 568.123531 
z
" style="fill:#f1ccb8;stroke:#f1ccb8;"/>
    <path clip-path="url(#p1d8f7ed2e2)" d="M 941.013856 355.217294 
C 942.356764 355.217294 943.644851 354.683751 944.594431 353.734172 
C 945.54401 352.784592 946.077553 351.496505 946.077553 350.153597 
C 946.077553 348.810689 945.54401 347.522602 944.594431 346.573023 
C 943.644851 345.623443 942.356764 345.0899 941.013856 345.0899 
C 939.670948 345.0899 938.382861 345.623443 937.433282 346.573023 
C 936.483703 347.522602 935.95016 348.810689 935.95016 350.153597 
C 935.95016 351.496505 936.483703 352.784592 937.433282 353.734172 
C 938.382861 354.683751 939.670948 355.217294 941.013856 355.217294 
z
" style="fill:#cedaeb;stroke:#cedaeb;"/>
    <path clip-path="url(#p1d8f7ed2e2)" d="M 876.670407 591.126774 
C 878.013315 591.126774 879.301402 590.593231 880.250981 589.643652 
C 881.200561 588.694072 881.734104 587.405985 881.734104 586.063077 
C 881.734104 584.720169 881.200561 583.432082 880.250981 582.482503 
C 879.301402 581.532923 878.013315 580.99938 876.670407 580.99938 
C 875.327499 580.99938 874.039412 581.532923 873.089832 582.482503 
C 872.140253 583.432082 871.60671 584.720169 871.60671 586.063077 
C 871.60671 587.405985 872.140253 588.694072 873.089832 589.643652 
C 874.039412 590.593231 875.327499 591.126774 876.670407 591.126774 
z
" style="fill:#e3d9d3;stroke:#e3d9d3;"/>
    <path clip-path="url(#p1d8f7ed2e2)" d="M 785.805607 678.997407 
C 787.148515 678.997407 788.436602 678.463864 789.386181 677.514284 
C 790.335761 676.564705 790.869304 675.276618 790.869304 673.93371 
C 790.869304 672.590802 790.335761 671.302715 789.386181 670.353136 
C 788.436602 669.403556 787.148515 668.870013 785.805607 668.870013 
C 784.462699 668.870013 783.174612 669.403556 782.225033 670.353136 
C 781.275453 671.302715 780.74191 672.590802 780.74191 673.93371 
C 780.74191 675.276618 781.275453 676.564705 782.225033 677.514284 
C 783.174612 678.463864 784.462699 678.997407 785.805607 678.997407 
z
" style="fill:#d5dbe5;stroke:#d5dbe5;"/>
    <path clip-path="url(#p1d8f7ed2e2)" d="M 484.178435 166.410909 
C 485.50445 166.410909 486.776334 165.884078 487.713968 164.946443 
C 488.651603 164.008808 489.178435 162.736925 489.178435 161.410909 
C 489.178435 160.084894 488.651603 158.81301 487.713968 157.875375 
C 486.776334 156.937741 485.50445 156.410909 484.178435 156.410909 
C 482.852419 156.410909 481.580535 156.937741 480.642901 157.875375 
C 479.705266 158.81301 479.178435 160.084894 479.178435 161.410909 
C 479.178435 162.736925 479.705266 164.008808 480.642901 164.946443 
C 481.580535 165.884078 482.852419 166.410909 484.178435 166.410909 
z
" style="fill:#6687ed;stroke:#6687ed;"/>
    <path clip-path="url(#p1d8f7ed2e2)" d="M 508.642149 180.903467 
C 509.985057 180.903467 511.273144 180.369924 512.222723 179.420345 
C 513.172302 178.470765 513.705845 177.182678 513.705845 175.83977 
C 513.705845 174.496862 513.172302 173.208775 512.222723 172.259196 
C 511.273144 171.309617 509.985057 170.776073 508.642149 170.776073 
C 507.299241 170.776073 506.011154 171.309617 505.061574 172.259196 
C 504.111995 173.208775 503.578452 174.496862 503.578452 175.83977 
C 503.578452 177.182678 504.111995 178.470765 505.061574 179.420345 
C 506.011154 180.369924 507.299241 180.903467 508.642149 180.903467 
z
" style="fill:#c5d6f2;stroke:#c5d6f2;"/>
    <path clip-path="url(#p1d8f7ed2e2)" d="M 858.134062 648.797127 
C 859.47697 648.797127 860.765057 648.263584 861.714637 647.314005 
C 862.664216 646.364425 863.197759 645.076338 863.197759 643.73343 
C 863.197759 642.390522 862.664216 641.102435 861.714637 640.152856 
C 860.765057 639.203276 859.47697 638.669733 858.134062 638.669733 
C 856.791154 638.669733 855.503067 639.203276 854.553488 640.152856 
C 853.603908 641.102435 853.070365 642.390522 853.070365 643.73343 
C 853.070365 645.076338 853.603908 646.364425 854.553488 647.314005 
C 855.503067 648.263584 856.791154 648.797127 858.134062 648.797127 
z
" style="fill:#d3dbe7;stroke:#d3dbe7;"/>
    <path clip-path="url(#p1d8f7ed2e2)" d="M 275.22925 596.987376 
C 276.572158 596.987376 277.860245 596.453833 278.809824 595.504254 
C 279.759404 594.554674 280.292947 593.266588 280.292947 591.92368 
C 280.292947 590.580771 279.759404 589.292685 278.809824 588.343105 
C 277.860245 587.393526 276.572158 586.859983 275.22925 586.859983 
C 273.886342 586.859983 272.598255 587.393526 271.648675 588.343105 
C 270.699096 589.292685 270.165553 590.580771 270.165553 591.92368 
C 270.165553 593.266588 270.699096 594.554674 271.648675 595.504254 
C 272.598255 596.453833 273.886342 596.987376 275.22925 596.987376 
z
" style="fill:#3b4cc0;stroke:#3b4cc0;"/>
    <path clip-path="url(#p1d8f7ed2e2)" d="M 486.552159 638.454765 
C 487.899536 638.454765 489.191909 637.919447 490.144648 636.966707 
C 491.097388 636.013968 491.632706 634.721594 491.632706 633.374217 
C 491.632706 632.02684 491.097388 630.734467 490.144648 629.781728 
C 489.191909 628.828988 487.899536 628.29367 486.552159 628.29367 
C 485.204782 628.29367 483.912408 628.828988 482.959669 629.781728 
C 482.006929 630.734467 481.471611 632.02684 481.471611 633.374217 
C 481.471611 634.721594 482.006929 636.013968 482.959669 636.966707 
C 483.912408 637.919447 485.204782 638.454765 486.552159 638.454765 
z
" style="fill:#e4d9d2;stroke:#e4d9d2;"/>
    <path clip-path="url(#p1d8f7ed2e2)" d="M 543.673583 459.203757 
C 545.261587 459.203757 546.784765 458.572836 547.907653 457.449948 
C 549.030542 456.327059 549.661463 454.803882 549.661463 453.215877 
C 549.661463 451.627873 549.030542 450.104696 547.907653 448.981807 
C 546.784765 447.858919 545.261587 447.227998 543.673583 447.227998 
C 542.085579 447.227998 540.562401 447.858919 539.439513 448.981807 
C 538.316624 450.104696 537.685704 451.627873 537.685704 453.215877 
C 537.685704 454.803882 538.316624 456.327059 539.439513 457.449948 
C 540.562401 458.572836 542.085579 459.203757 543.673583 459.203757 
z
" style="fill:#d7dce3;stroke:#d7dce3;"/>
    <path clip-path="url(#p1d8f7ed2e2)" d="M 539.194317 217.043141 
C 540.532741 217.043141 541.816527 216.51138 542.762936 215.564971 
C 543.709345 214.618562 544.241106 213.334776 544.241106 211.996352 
C 544.241106 210.657928 543.709345 209.374141 542.762936 208.427733 
C 541.816527 207.481324 540.532741 206.949562 539.194317 206.949562 
C 537.855893 206.949562 536.572107 207.481324 535.625698 208.427733 
C 534.679289 209.374141 534.147527 210.657928 534.147527 211.996352 
C 534.147527 213.334776 534.679289 214.618562 535.625698 215.564971 
C 536.572107 216.51138 537.855893 217.043141 539.194317 217.043141 
z
" style="fill:#b1cbfc;stroke:#b1cbfc;"/>
    <path clip-path="url(#p1d8f7ed2e2)" d="M 830.390921 198.613137 
C 831.723719 198.613137 833.002109 198.083611 833.94454 197.14118 
C 834.88697 196.198749 835.416497 194.92036 835.416497 193.587561 
C 835.416497 192.254763 834.88697 190.976373 833.94454 190.033943 
C 833.002109 189.091512 831.723719 188.561986 830.390921 188.561986 
C 829.058123 188.561986 827.779733 189.091512 826.837302 190.033943 
C 825.894872 190.976373 825.365345 192.254763 825.365345 193.587561 
C 825.365345 194.92036 825.894872 196.198749 826.837302 197.14118 
C 827.779733 198.083611 829.058123 198.613137 830.390921 198.613137 
z
" style="fill:#dadce0;stroke:#dadce0;"/>
    <path clip-path="url(#p1d8f7ed2e2)" d="M 599.8247 452.431905 
C 604.017929 452.431905 608.039979 450.765917 611.00504 447.800856 
C 613.9701 444.835795 615.636088 440.813745 615.636088 436.620516 
C 615.636088 432.427287 613.9701 428.405237 611.00504 425.440176 
C 608.039979 422.475116 604.017929 420.809128 599.8247 420.809128 
C 595.631471 420.809128 591.609421 422.475116 588.64436 425.440176 
C 585.679299 428.405237 584.013311 432.427287 584.013311 436.620516 
C 584.013311 440.813745 585.679299 444.835795 588.64436 447.800856 
C 591.609421 450.765917 595.631471 452.431905 599.8247 452.431905 
z
" style="fill:#7ea1fa;stroke:#7ea1fa;"/>
    <path clip-path="url(#p1d8f7ed2e2)" d="M 426.688063 683.377102 
C 428.030971 683.377102 429.319058 682.843559 430.268638 681.89398 
C 431.218217 680.9444 431.75176 679.656313 431.75176 678.313405 
C 431.75176 676.970497 431.218217 675.68241 430.268638 674.732831 
C 429.319058 673.783252 428.030971 673.249709 426.688063 673.249709 
C 425.345155 673.249709 424.057068 673.783252 423.107489 674.732831 
C 422.157909 675.68241 421.624366 676.970497 421.624366 678.313405 
C 421.624366 679.656313 422.157909 680.9444 423.107489 681.89398 
C 424.057068 682.843559 425.345155 683.377102 426.688063 683.377102 
z
" style="fill:#f7b497;stroke:#f7b497;"/>
    <path clip-path="url(#p1d8f7ed2e2)" d="M 313.039026 313.084057 
C 314.381934 313.084057 315.670021 312.550514 316.6196 311.600935 
C 317.56918 310.651356 318.102723 309.363269 318.102723 308.020361 
C 318.102723 306.677452 317.56918 305.389366 316.6196 304.439786 
C 315.670021 303.490207 314.381934 302.956664 313.039026 302.956664 
C 311.696118 302.956664 310.408031 303.490207 309.458452 304.439786 
C 308.508872 305.389366 307.975329 306.677452 307.975329 308.020361 
C 307.975329 309.363269 308.508872 310.651356 309.458452 311.600935 
C 310.408031 312.550514 311.696118 313.084057 313.039026 313.084057 
z
" style="fill:#f39577;stroke:#f39577;"/>
    <path clip-path="url(#p1d8f7ed2e2)" d="M 221.47438 473.299139 
C 222.817288 473.299139 224.105375 472.765596 225.054955 471.816016 
C 226.004534 470.866437 226.538077 469.57835 226.538077 468.235442 
C 226.538077 466.892534 226.004534 465.604447 225.054955 464.654867 
C 224.105375 463.705288 222.817288 463.171745 221.47438 463.171745 
C 220.131472 463.171745 218.843385 463.705288 217.893806 464.654867 
C 216.944226 465.604447 216.410683 466.892534 216.410683 468.235442 
C 216.410683 469.57835 216.944226 470.866437 217.893806 471.816016 
C 218.843385 472.765596 220.131472 473.299139 221.47438 473.299139 
z
" style="fill:#d8dce2;stroke:#d8dce2;"/>
    <path clip-path="url(#p1d8f7ed2e2)" d="M 933.661382 434.107848 
C 935.089965 434.107848 936.460229 433.540266 937.47039 432.530105 
C 938.480551 431.519944 939.048133 430.14968 939.048133 428.721096 
C 939.048133 427.292513 938.480551 425.922249 937.47039 424.912088 
C 936.460229 423.901927 935.089965 423.334345 933.661382 423.334345 
C 932.232798 423.334345 930.862534 423.901927 929.852373 424.912088 
C 928.842212 425.922249 928.27463 427.292513 928.27463 428.721096 
C 928.27463 430.14968 928.842212 431.519944 929.852373 432.530105 
C 930.862534 433.540266 932.232798 434.107848 933.661382 434.107848 
z
" style="fill:#c3d5f4;stroke:#c3d5f4;"/>
    <path clip-path="url(#p1d8f7ed2e2)" d="M 707.314569 692.124124 
C 708.657478 692.124124 709.945564 691.590581 710.895144 690.641001 
C 711.844723 689.691422 712.378266 688.403335 712.378266 687.060427 
C 712.378266 685.717519 711.844723 684.429432 710.895144 683.479853 
C 709.945564 682.530273 708.657478 681.99673 707.314569 681.99673 
C 705.971661 681.99673 704.683575 682.530273 703.733995 683.479853 
C 702.784416 684.429432 702.250873 685.717519 702.250873 687.060427 
C 702.250873 688.403335 702.784416 689.691422 703.733995 690.641001 
C 704.683575 691.590581 705.971661 692.124124 707.314569 692.124124 
z
" style="fill:#d8dce2;stroke:#d8dce2;"/>
    <path clip-path="url(#p1d8f7ed2e2)" d="M 469.121682 453.983745 
C 470.939988 453.983745 472.684066 453.261324 473.969803 451.975587 
C 475.255539 450.689851 475.97796 448.945773 475.97796 447.127467 
C 475.97796 445.30916 475.255539 443.565083 473.969803 442.279346 
C 472.684066 440.993609 470.939988 440.271189 469.121682 440.271189 
C 467.303376 440.271189 465.559298 440.993609 464.273562 442.279346 
C 462.987825 443.565083 462.265404 445.30916 462.265404 447.127467 
C 462.265404 448.945773 462.987825 450.689851 464.273562 451.975587 
C 465.559298 453.261324 467.303376 453.983745 469.121682 453.983745 
z
" style="fill:#dcdddd;stroke:#dcdddd;"/>
    <path clip-path="url(#p1d8f7ed2e2)" d="M 657.507582 499.475943 
C 658.85049 499.475943 660.138577 498.9424 661.088156 497.992821 
C 662.037736 497.043241 662.571279 495.755155 662.571279 494.412246 
C 662.571279 493.069338 662.037736 491.781252 661.088156 490.831672 
C 660.138577 489.882093 658.85049 489.34855 657.507582 489.34855 
C 656.164674 489.34855 654.876587 489.882093 653.927008 490.831672 
C 652.977428 491.781252 652.443885 493.069338 652.443885 494.412246 
C 652.443885 495.755155 652.977428 497.043241 653.927008 497.992821 
C 654.876587 498.9424 656.164674 499.475943 657.507582 499.475943 
z
" style="fill:#b1cbfc;stroke:#b1cbfc;"/>
    <path clip-path="url(#p1d8f7ed2e2)" d="M 357.912271 596.082162 
C 359.255179 596.082162 360.543266 595.548619 361.492845 594.59904 
C 362.442425 593.64946 362.975968 592.361373 362.975968 591.018465 
C 362.975968 589.675557 362.442425 588.38747 361.492845 587.437891 
C 360.543266 586.488311 359.255179 585.954768 357.912271 585.954768 
C 356.569363 585.954768 355.281276 586.488311 354.331697 587.437891 
C 353.382117 588.38747 352.848574 589.675557 352.848574 591.018465 
C 352.848574 592.361373 353.382117 593.64946 354.331697 594.59904 
C 355.281276 595.548619 356.569363 596.082162 357.912271 596.082162 
z
" style="fill:#9bbcff;stroke:#9bbcff;"/>
    <path clip-path="url(#p1d8f7ed2e2)" d="M 256.571308 353.678436 
C 257.914216 353.678436 259.202303 353.144893 260.151882 352.195314 
C 261.101462 351.245734 261.635005 349.957648 261.635005 348.61474 
C 261.635005 347.271831 261.101462 345.983745 260.151882 345.034165 
C 259.202303 344.084586 257.914216 343.551043 256.571308 343.551043 
C 255.2284 343.551043 253.940313 344.084586 252.990733 345.034165 
C 252.041154 345.983745 251.507611 347.271831 251.507611 348.61474 
C 251.507611 349.957648 252.041154 351.245734 252.990733 352.195314 
C 253.940313 353.144893 255.2284 353.678436 256.571308 353.678436 
z
" style="fill:#dddcdc;stroke:#dddcdc;"/>
    <path clip-path="url(#p1d8f7ed2e2)" d="M 244.707685 534.073393 
C 246.050593 534.073393 247.33868 533.53985 248.288259 532.59027 
C 249.237839 531.640691 249.771382 530.352604 249.771382 529.009696 
C 249.771382 527.666788 249.237839 526.378701 248.288259 525.429122 
C 247.33868 524.479542 246.050593 523.945999 244.707685 523.945999 
C 243.364777 523.945999 242.07669 524.479542 241.127111 525.429122 
C 240.177531 526.378701 239.643988 527.666788 239.643988 529.009696 
C 239.643988 530.352604 240.177531 531.640691 241.127111 532.59027 
C 242.07669 533.53985 243.364777 534.073393 244.707685 534.073393 
z
" style="fill:#c5d6f2;stroke:#c5d6f2;"/>
    <path clip-path="url(#p1d8f7ed2e2)" d="M 368.693987 648.807745 
C 370.033534 648.807745 371.318396 648.275538 372.265599 647.328335 
C 373.212801 646.381133 373.745009 645.09627 373.745009 643.756724 
C 373.745009 642.417177 373.212801 641.132314 372.265599 640.185112 
C 371.318396 639.237909 370.033534 638.705702 368.693987 638.705702 
C 367.35444 638.705702 366.069578 639.237909 365.122375 640.185112 
C 364.175173 641.132314 363.642965 642.417177 363.642965 643.756724 
C 363.642965 645.09627 364.175173 646.381133 365.122375 647.328335 
C 366.069578 648.275538 367.35444 648.807745 368.693987 648.807745 
z
" style="fill:#c3d5f4;stroke:#c3d5f4;"/>
    <path clip-path="url(#p1d8f7ed2e2)" d="M 864.386201 254.764543 
C 865.72911 254.764543 867.017196 254.231 867.966776 253.28142 
C 868.916355 252.331841 869.449898 251.043754 869.449898 249.700846 
C 869.449898 248.357938 868.916355 247.069851 867.966776 246.120271 
C 867.017196 245.170692 865.72911 244.637149 864.386201 244.637149 
C 863.043293 244.637149 861.755207 245.170692 860.805627 246.120271 
C 859.856048 247.069851 859.322505 248.357938 859.322505 249.700846 
C 859.322505 251.043754 859.856048 252.331841 860.805627 253.28142 
C 861.755207 254.231 863.043293 254.764543 864.386201 254.764543 
z
" style="fill:#dadce0;stroke:#dadce0;"/>
    <path clip-path="url(#p1d8f7ed2e2)" d="M 959.32562 500.492928 
C 960.668528 500.492928 961.956615 499.959385 962.906194 499.009805 
C 963.855774 498.060226 964.389317 496.772139 964.389317 495.429231 
C 964.389317 494.086323 963.855774 492.798236 962.906194 491.848656 
C 961.956615 490.899077 960.668528 490.365534 959.32562 490.365534 
C 957.982712 490.365534 956.694625 490.899077 955.745045 491.848656 
C 954.795466 492.798236 954.261923 494.086323 954.261923 495.429231 
C 954.261923 496.772139 954.795466 498.060226 955.745045 499.009805 
C 956.694625 499.959385 957.982712 500.492928 959.32562 500.492928 
z
" style="fill:#b3cdfb;stroke:#b3cdfb;"/>
    <path clip-path="url(#p1d8f7ed2e2)" d="M 678.315391 171.869931 
C 679.658299 171.869931 680.946386 171.336388 681.895966 170.386808 
C 682.845545 169.437229 683.379088 168.149142 683.379088 166.806234 
C 683.379088 165.463326 682.845545 164.175239 681.895966 163.22566 
C 680.946386 162.27608 679.658299 161.742537 678.315391 161.742537 
C 676.972483 161.742537 675.684396 162.27608 674.734817 163.22566 
C 673.785237 164.175239 673.251694 165.463326 673.251694 166.806234 
C 673.251694 168.149142 673.785237 169.437229 674.734817 170.386808 
C 675.684396 171.336388 676.972483 171.869931 678.315391 171.869931 
z
" style="fill:#a7c5fe;stroke:#a7c5fe;"/>
    <path clip-path="url(#p1d8f7ed2e2)" d="M 297.074808 258.958041 
C 298.417716 258.958041 299.705803 258.424498 300.655383 257.474918 
C 301.604962 256.525339 302.138505 255.237252 302.138505 253.894344 
C 302.138505 252.551436 301.604962 251.263349 300.655383 250.31377 
C 299.705803 249.36419 298.417716 248.830647 297.074808 248.830647 
C 295.7319 248.830647 294.443813 249.36419 293.494234 250.31377 
C 292.544654 251.263349 292.011111 252.551436 292.011111 253.894344 
C 292.011111 255.237252 292.544654 256.525339 293.494234 257.474918 
C 294.443813 258.424498 295.7319 258.958041 297.074808 258.958041 
z
" style="fill:#dadce0;stroke:#dadce0;"/>
   </g>
   <g id="text_1">
    <g clip-path="url(#p1d8f7ed2e2)">
     <!-- SIAH1 -->
     <g transform="translate(601.145507 713.988466)scale(0.1 -0.1)">
      <defs>
       <path d="M 53.515625 70.515625 
L 53.515625 60.890625 
Q 47.90625 63.578125 42.921875 64.890625 
Q 37.9375 66.21875 33.296875 66.21875 
Q 25.25 66.21875 20.875 63.09375 
Q 16.5 59.96875 16.5 54.203125 
Q 16.5 49.359375 19.40625 46.890625 
Q 22.3125 44.4375 30.421875 42.921875 
L 36.375 41.703125 
Q 47.40625 39.59375 52.65625 34.296875 
Q 57.90625 29 57.90625 20.125 
Q 57.90625 9.515625 50.796875 4.046875 
Q 43.703125 -1.421875 29.984375 -1.421875 
Q 24.8125 -1.421875 18.96875 -0.25 
Q 13.140625 0.921875 6.890625 3.21875 
L 6.890625 13.375 
Q 12.890625 10.015625 18.65625 8.296875 
Q 24.421875 6.59375 29.984375 6.59375 
Q 38.421875 6.59375 43.015625 9.90625 
Q 47.609375 13.234375 47.609375 19.390625 
Q 47.609375 24.75 44.3125 27.78125 
Q 41.015625 30.8125 33.5 32.328125 
L 27.484375 33.5 
Q 16.453125 35.6875 11.515625 40.375 
Q 6.59375 45.0625 6.59375 53.421875 
Q 6.59375 63.09375 13.40625 68.65625 
Q 20.21875 74.21875 32.171875 74.21875 
Q 37.3125 74.21875 42.625 73.28125 
Q 47.953125 72.359375 53.515625 70.515625 
z
" id="DejaVuSans-83"/>
       <path d="M 9.8125 72.90625 
L 19.671875 72.90625 
L 19.671875 0 
L 9.8125 0 
z
" id="DejaVuSans-73"/>
       <path d="M 34.1875 63.1875 
L 20.796875 26.90625 
L 47.609375 26.90625 
z
M 28.609375 72.90625 
L 39.796875 72.90625 
L 67.578125 0 
L 57.328125 0 
L 50.6875 18.703125 
L 17.828125 18.703125 
L 11.1875 0 
L 0.78125 0 
z
" id="DejaVuSans-65"/>
       <path d="M 9.8125 72.90625 
L 19.671875 72.90625 
L 19.671875 43.015625 
L 55.515625 43.015625 
L 55.515625 72.90625 
L 65.375 72.90625 
L 65.375 0 
L 55.515625 0 
L 55.515625 34.71875 
L 19.671875 34.71875 
L 19.671875 0 
L 9.8125 0 
z
" id="DejaVuSans-72"/>
       <path d="M 12.40625 8.296875 
L 28.515625 8.296875 
L 28.515625 63.921875 
L 10.984375 60.40625 
L 10.984375 69.390625 
L 28.421875 72.90625 
L 38.28125 72.90625 
L 38.28125 8.296875 
L 54.390625 8.296875 
L 54.390625 0 
L 12.40625 0 
z
" id="DejaVuSans-49"/>
      </defs>
      <use xlink:href="#DejaVuSans-83"/>
      <use x="63.476562" xlink:href="#DejaVuSans-73"/>
      <use x="92.96875" xlink:href="#DejaVuSans-65"/>
      <use x="161.376953" xlink:href="#DejaVuSans-72"/>
      <use x="236.572266" xlink:href="#DejaVuSans-49"/>
     </g>
    </g>
   </g>
   <g id="text_2">
    <g clip-path="url(#p1d8f7ed2e2)">
     <!-- IGFBP3 -->
     <g transform="translate(222.875101 413.397795)scale(0.1 -0.1)">
      <defs>
       <path d="M 59.515625 10.40625 
L 59.515625 29.984375 
L 43.40625 29.984375 
L 43.40625 38.09375 
L 69.28125 38.09375 
L 69.28125 6.78125 
Q 63.578125 2.734375 56.6875 0.65625 
Q 49.8125 -1.421875 42 -1.421875 
Q 24.90625 -1.421875 15.25 8.5625 
Q 5.609375 18.5625 5.609375 36.375 
Q 5.609375 54.25 15.25 64.234375 
Q 24.90625 74.21875 42 74.21875 
Q 49.125 74.21875 55.546875 72.453125 
Q 61.96875 70.703125 67.390625 67.28125 
L 67.390625 56.78125 
Q 61.921875 61.421875 55.765625 63.765625 
Q 49.609375 66.109375 42.828125 66.109375 
Q 29.4375 66.109375 22.71875 58.640625 
Q 16.015625 51.171875 16.015625 36.375 
Q 16.015625 21.625 22.71875 14.15625 
Q 29.4375 6.6875 42.828125 6.6875 
Q 48.046875 6.6875 52.140625 7.59375 
Q 56.25 8.5 59.515625 10.40625 
z
" id="DejaVuSans-71"/>
       <path d="M 9.8125 72.90625 
L 51.703125 72.90625 
L 51.703125 64.59375 
L 19.671875 64.59375 
L 19.671875 43.109375 
L 48.578125 43.109375 
L 48.578125 34.8125 
L 19.671875 34.8125 
L 19.671875 0 
L 9.8125 0 
z
" id="DejaVuSans-70"/>
       <path d="M 19.671875 34.8125 
L 19.671875 8.109375 
L 35.5 8.109375 
Q 43.453125 8.109375 47.28125 11.40625 
Q 51.125 14.703125 51.125 21.484375 
Q 51.125 28.328125 47.28125 31.5625 
Q 43.453125 34.8125 35.5 34.8125 
z
M 19.671875 64.796875 
L 19.671875 42.828125 
L 34.28125 42.828125 
Q 41.5 42.828125 45.03125 45.53125 
Q 48.578125 48.25 48.578125 53.8125 
Q 48.578125 59.328125 45.03125 62.0625 
Q 41.5 64.796875 34.28125 64.796875 
z
M 9.8125 72.90625 
L 35.015625 72.90625 
Q 46.296875 72.90625 52.390625 68.21875 
Q 58.5 63.53125 58.5 54.890625 
Q 58.5 48.1875 55.375 44.234375 
Q 52.25 40.28125 46.1875 39.3125 
Q 53.46875 37.75 57.5 32.78125 
Q 61.53125 27.828125 61.53125 20.40625 
Q 61.53125 10.640625 54.890625 5.3125 
Q 48.25 0 35.984375 0 
L 9.8125 0 
z
" id="DejaVuSans-66"/>
       <path d="M 19.671875 64.796875 
L 19.671875 37.40625 
L 32.078125 37.40625 
Q 38.96875 37.40625 42.71875 40.96875 
Q 46.484375 44.53125 46.484375 51.125 
Q 46.484375 57.671875 42.71875 61.234375 
Q 38.96875 64.796875 32.078125 64.796875 
z
M 9.8125 72.90625 
L 32.078125 72.90625 
Q 44.34375 72.90625 50.609375 67.359375 
Q 56.890625 61.8125 56.890625 51.125 
Q 56.890625 40.328125 50.609375 34.8125 
Q 44.34375 29.296875 32.078125 29.296875 
L 19.671875 29.296875 
L 19.671875 0 
L 9.8125 0 
z
" id="DejaVuSans-80"/>
       <path d="M 40.578125 39.3125 
Q 47.65625 37.796875 51.625 33 
Q 55.609375 28.21875 55.609375 21.1875 
Q 55.609375 10.40625 48.1875 4.484375 
Q 40.765625 -1.421875 27.09375 -1.421875 
Q 22.515625 -1.421875 17.65625 -0.515625 
Q 12.796875 0.390625 7.625 2.203125 
L 7.625 11.71875 
Q 11.71875 9.328125 16.59375 8.109375 
Q 21.484375 6.890625 26.8125 6.890625 
Q 36.078125 6.890625 40.9375 10.546875 
Q 45.796875 14.203125 45.796875 21.1875 
Q 45.796875 27.640625 41.28125 31.265625 
Q 36.765625 34.90625 28.71875 34.90625 
L 20.21875 34.90625 
L 20.21875 43.015625 
L 29.109375 43.015625 
Q 36.375 43.015625 40.234375 45.921875 
Q 44.09375 48.828125 44.09375 54.296875 
Q 44.09375 59.90625 40.109375 62.90625 
Q 36.140625 65.921875 28.71875 65.921875 
Q 24.65625 65.921875 20.015625 65.03125 
Q 15.375 64.15625 9.8125 62.3125 
L 9.8125 71.09375 
Q 15.4375 72.65625 20.34375 73.4375 
Q 25.25 74.21875 29.59375 74.21875 
Q 40.828125 74.21875 47.359375 69.109375 
Q 53.90625 64.015625 53.90625 55.328125 
Q 53.90625 49.265625 50.4375 45.09375 
Q 46.96875 40.921875 40.578125 39.3125 
z
" id="DejaVuSans-51"/>
      </defs>
      <use xlink:href="#DejaVuSans-73"/>
      <use x="29.492188" xlink:href="#DejaVuSans-71"/>
      <use x="106.982422" xlink:href="#DejaVuSans-70"/>
      <use x="164.501953" xlink:href="#DejaVuSans-66"/>
      <use x="233.105469" xlink:href="#DejaVuSans-80"/>
      <use x="293.408203" xlink:href="#DejaVuSans-51"/>
     </g>
    </g>
   </g>
   <g id="text_3">
    <g clip-path="url(#p1d8f7ed2e2)">
     <!-- MDM4 -->
     <g transform="translate(613.441571 503.837471)scale(0.1 -0.1)">
      <defs>
       <path d="M 9.8125 72.90625 
L 24.515625 72.90625 
L 43.109375 23.296875 
L 61.8125 72.90625 
L 76.515625 72.90625 
L 76.515625 0 
L 66.890625 0 
L 66.890625 64.015625 
L 48.09375 14.015625 
L 38.1875 14.015625 
L 19.390625 64.015625 
L 19.390625 0 
L 9.8125 0 
z
" id="DejaVuSans-77"/>
       <path d="M 19.671875 64.796875 
L 19.671875 8.109375 
L 31.59375 8.109375 
Q 46.6875 8.109375 53.6875 14.9375 
Q 60.6875 21.78125 60.6875 36.53125 
Q 60.6875 51.171875 53.6875 57.984375 
Q 46.6875 64.796875 31.59375 64.796875 
z
M 9.8125 72.90625 
L 30.078125 72.90625 
Q 51.265625 72.90625 61.171875 64.09375 
Q 71.09375 55.28125 71.09375 36.53125 
Q 71.09375 17.671875 61.125 8.828125 
Q 51.171875 0 30.078125 0 
L 9.8125 0 
z
" id="DejaVuSans-68"/>
       <path d="M 37.796875 64.3125 
L 12.890625 25.390625 
L 37.796875 25.390625 
z
M 35.203125 72.90625 
L 47.609375 72.90625 
L 47.609375 25.390625 
L 58.015625 25.390625 
L 58.015625 17.1875 
L 47.609375 17.1875 
L 47.609375 0 
L 37.796875 0 
L 37.796875 17.1875 
L 4.890625 17.1875 
L 4.890625 26.703125 
z
" id="DejaVuSans-52"/>
      </defs>
      <use xlink:href="#DejaVuSans-77"/>
      <use x="86.279297" xlink:href="#DejaVuSans-68"/>
      <use x="163.28125" xlink:href="#DejaVuSans-77"/>
      <use x="249.560547" xlink:href="#DejaVuSans-52"/>
     </g>
    </g>
   </g>
   <g id="text_4">
    <g clip-path="url(#p1d8f7ed2e2)">
     <!-- CHEK1 -->
     <g transform="translate(907.643585 306.088888)scale(0.1 -0.1)">
      <defs>
       <path d="M 64.40625 67.28125 
L 64.40625 56.890625 
Q 59.421875 61.53125 53.78125 63.8125 
Q 48.140625 66.109375 41.796875 66.109375 
Q 29.296875 66.109375 22.65625 58.46875 
Q 16.015625 50.828125 16.015625 36.375 
Q 16.015625 21.96875 22.65625 14.328125 
Q 29.296875 6.6875 41.796875 6.6875 
Q 48.140625 6.6875 53.78125 8.984375 
Q 59.421875 11.28125 64.40625 15.921875 
L 64.40625 5.609375 
Q 59.234375 2.09375 53.4375 0.328125 
Q 47.65625 -1.421875 41.21875 -1.421875 
Q 24.65625 -1.421875 15.125 8.703125 
Q 5.609375 18.84375 5.609375 36.375 
Q 5.609375 53.953125 15.125 64.078125 
Q 24.65625 74.21875 41.21875 74.21875 
Q 47.75 74.21875 53.53125 72.484375 
Q 59.328125 70.75 64.40625 67.28125 
z
" id="DejaVuSans-67"/>
       <path d="M 9.8125 72.90625 
L 55.90625 72.90625 
L 55.90625 64.59375 
L 19.671875 64.59375 
L 19.671875 43.015625 
L 54.390625 43.015625 
L 54.390625 34.71875 
L 19.671875 34.71875 
L 19.671875 8.296875 
L 56.78125 8.296875 
L 56.78125 0 
L 9.8125 0 
z
" id="DejaVuSans-69"/>
       <path d="M 9.8125 72.90625 
L 19.671875 72.90625 
L 19.671875 42.09375 
L 52.390625 72.90625 
L 65.09375 72.90625 
L 28.90625 38.921875 
L 67.671875 0 
L 54.6875 0 
L 19.671875 35.109375 
L 19.671875 0 
L 9.8125 0 
z
" id="DejaVuSans-75"/>
      </defs>
      <use xlink:href="#DejaVuSans-67"/>
      <use x="69.824219" xlink:href="#DejaVuSans-72"/>
      <use x="145.019531" xlink:href="#DejaVuSans-69"/>
      <use x="208.203125" xlink:href="#DejaVuSans-75"/>
      <use x="273.779297" xlink:href="#DejaVuSans-49"/>
     </g>
    </g>
   </g>
   <g id="text_5">
    <g clip-path="url(#p1d8f7ed2e2)">
     <!-- ATR -->
     <g transform="translate(594.65823 175.875507)scale(0.1 -0.1)">
      <defs>
       <path d="M -0.296875 72.90625 
L 61.375 72.90625 
L 61.375 64.59375 
L 35.5 64.59375 
L 35.5 0 
L 25.59375 0 
L 25.59375 64.59375 
L -0.296875 64.59375 
z
" id="DejaVuSans-84"/>
       <path d="M 44.390625 34.1875 
Q 47.5625 33.109375 50.5625 29.59375 
Q 53.5625 26.078125 56.59375 19.921875 
L 66.609375 0 
L 56 0 
L 46.6875 18.703125 
Q 43.0625 26.03125 39.671875 28.421875 
Q 36.28125 30.8125 30.421875 30.8125 
L 19.671875 30.8125 
L 19.671875 0 
L 9.8125 0 
L 9.8125 72.90625 
L 32.078125 72.90625 
Q 44.578125 72.90625 50.734375 67.671875 
Q 56.890625 62.453125 56.890625 51.90625 
Q 56.890625 45.015625 53.6875 40.46875 
Q 50.484375 35.9375 44.390625 34.1875 
z
M 19.671875 64.796875 
L 19.671875 38.921875 
L 32.078125 38.921875 
Q 39.203125 38.921875 42.84375 42.21875 
Q 46.484375 45.515625 46.484375 51.90625 
Q 46.484375 58.296875 42.84375 61.546875 
Q 39.203125 64.796875 32.078125 64.796875 
z
" id="DejaVuSans-82"/>
      </defs>
      <use xlink:href="#DejaVuSans-65"/>
      <use x="60.658203" xlink:href="#DejaVuSans-84"/>
      <use x="121.742188" xlink:href="#DejaVuSans-82"/>
     </g>
    </g>
   </g>
   <g id="text_6">
    <g clip-path="url(#p1d8f7ed2e2)">
     <!-- CHEK2 -->
     <g transform="translate(731.785938 198.3127)scale(0.1 -0.1)">
      <defs>
       <path d="M 19.1875 8.296875 
L 53.609375 8.296875 
L 53.609375 0 
L 7.328125 0 
L 7.328125 8.296875 
Q 12.9375 14.109375 22.625 23.890625 
Q 32.328125 33.6875 34.8125 36.53125 
Q 39.546875 41.84375 41.421875 45.53125 
Q 43.3125 49.21875 43.3125 52.78125 
Q 43.3125 58.59375 39.234375 62.25 
Q 35.15625 65.921875 28.609375 65.921875 
Q 23.96875 65.921875 18.8125 64.3125 
Q 13.671875 62.703125 7.8125 59.421875 
L 7.8125 69.390625 
Q 13.765625 71.78125 18.9375 73 
Q 24.125 74.21875 28.421875 74.21875 
Q 39.75 74.21875 46.484375 68.546875 
Q 53.21875 62.890625 53.21875 53.421875 
Q 53.21875 48.921875 51.53125 44.890625 
Q 49.859375 40.875 45.40625 35.40625 
Q 44.1875 33.984375 37.640625 27.21875 
Q 31.109375 20.453125 19.1875 8.296875 
z
" id="DejaVuSans-50"/>
      </defs>
      <use xlink:href="#DejaVuSans-67"/>
      <use x="69.824219" xlink:href="#DejaVuSans-72"/>
      <use x="145.019531" xlink:href="#DejaVuSans-69"/>
      <use x="208.203125" xlink:href="#DejaVuSans-75"/>
      <use x="273.779297" xlink:href="#DejaVuSans-50"/>
     </g>
    </g>
   </g>
   <g id="text_7">
    <g clip-path="url(#p1d8f7ed2e2)">
     <!-- ATM -->
     <g transform="translate(740.28012 302.295615)scale(0.1 -0.1)">
      <use xlink:href="#DejaVuSans-65"/>
      <use x="60.658203" xlink:href="#DejaVuSans-84"/>
      <use x="121.742188" xlink:href="#DejaVuSans-77"/>
     </g>
    </g>
   </g>
   <g id="text_8">
    <g clip-path="url(#p1d8f7ed2e2)">
     <!-- TSC2 -->
     <g transform="translate(355.612117 218.2584)scale(0.1 -0.1)">
      <use xlink:href="#DejaVuSans-84"/>
      <use x="61.083984" xlink:href="#DejaVuSans-83"/>
      <use x="124.560547" xlink:href="#DejaVuSans-67"/>
      <use x="194.384766" xlink:href="#DejaVuSans-50"/>
     </g>
    </g>
   </g>
   <g id="text_9">
    <g clip-path="url(#p1d8f7ed2e2)">
     <!-- PPM1D -->
     <g transform="translate(917.814109 565.819209)scale(0.1 -0.1)">
      <use xlink:href="#DejaVuSans-80"/>
      <use x="60.302734" xlink:href="#DejaVuSans-80"/>
      <use x="120.605469" xlink:href="#DejaVuSans-77"/>
      <use x="206.884766" xlink:href="#DejaVuSans-49"/>
      <use x="270.507812" xlink:href="#DejaVuSans-68"/>
     </g>
    </g>
   </g>
   <g id="text_10">
    <g clip-path="url(#p1d8f7ed2e2)">
     <!-- RFWD2 -->
     <g transform="translate(922.688856 352.912972)scale(0.1 -0.1)">
      <defs>
       <path d="M 3.328125 72.90625 
L 13.28125 72.90625 
L 28.609375 11.28125 
L 43.890625 72.90625 
L 54.984375 72.90625 
L 70.3125 11.28125 
L 85.59375 72.90625 
L 95.609375 72.90625 
L 77.296875 0 
L 64.890625 0 
L 49.515625 63.28125 
L 33.984375 0 
L 21.578125 0 
z
" id="DejaVuSans-87"/>
      </defs>
      <use xlink:href="#DejaVuSans-82"/>
      <use x="69.482422" xlink:href="#DejaVuSans-70"/>
      <use x="127.001953" xlink:href="#DejaVuSans-87"/>
      <use x="225.878906" xlink:href="#DejaVuSans-68"/>
      <use x="302.880859" xlink:href="#DejaVuSans-50"/>
     </g>
    </g>
   </g>
   <g id="text_11">
    <g clip-path="url(#p1d8f7ed2e2)">
     <!-- DDB2 -->
     <g transform="translate(862.358688 588.822452)scale(0.1 -0.1)">
      <use xlink:href="#DejaVuSans-68"/>
      <use x="77.001953" xlink:href="#DejaVuSans-68"/>
      <use x="154.003906" xlink:href="#DejaVuSans-66"/>
      <use x="222.607422" xlink:href="#DejaVuSans-50"/>
     </g>
    </g>
   </g>
   <g id="text_12">
    <g clip-path="url(#p1d8f7ed2e2)">
     <!-- PTEN -->
     <g transform="translate(772.836857 676.693085)scale(0.1 -0.1)">
      <defs>
       <path d="M 9.8125 72.90625 
L 23.09375 72.90625 
L 55.421875 11.921875 
L 55.421875 72.90625 
L 64.984375 72.90625 
L 64.984375 0 
L 51.703125 0 
L 19.390625 60.984375 
L 19.390625 0 
L 9.8125 0 
z
" id="DejaVuSans-78"/>
      </defs>
      <use xlink:href="#DejaVuSans-80"/>
      <use x="60.302734" xlink:href="#DejaVuSans-84"/>
      <use x="121.386719" xlink:href="#DejaVuSans-69"/>
      <use x="184.570312" xlink:href="#DejaVuSans-78"/>
     </g>
    </g>
   </g>
   <g id="text_13">
    <g clip-path="url(#p1d8f7ed2e2)">
     <!-- CDKN2A -->
     <g transform="translate(463.215935 164.170284)scale(0.1 -0.1)">
      <use xlink:href="#DejaVuSans-67"/>
      <use x="69.824219" xlink:href="#DejaVuSans-68"/>
      <use x="146.826172" xlink:href="#DejaVuSans-75"/>
      <use x="212.402344" xlink:href="#DejaVuSans-78"/>
      <use x="287.207031" xlink:href="#DejaVuSans-50"/>
      <use x="350.830078" xlink:href="#DejaVuSans-65"/>
     </g>
    </g>
   </g>
   <g id="text_14">
    <g clip-path="url(#p1d8f7ed2e2)">
     <!-- ZMAT3 -->
     <g transform="translate(491.635117 178.599145)scale(0.1 -0.1)">
      <defs>
       <path d="M 5.609375 72.90625 
L 62.890625 72.90625 
L 62.890625 65.375 
L 16.796875 8.296875 
L 64.015625 8.296875 
L 64.015625 0 
L 4.5 0 
L 4.5 7.515625 
L 50.59375 64.59375 
L 5.609375 64.59375 
z
" id="DejaVuSans-90"/>
      </defs>
      <use xlink:href="#DejaVuSans-90"/>
      <use x="68.505859" xlink:href="#DejaVuSans-77"/>
      <use x="154.785156" xlink:href="#DejaVuSans-65"/>
      <use x="215.443359" xlink:href="#DejaVuSans-84"/>
      <use x="276.527344" xlink:href="#DejaVuSans-51"/>
     </g>
    </g>
   </g>
   <g id="text_15">
    <g clip-path="url(#p1d8f7ed2e2)">
     <!-- GTSE1 -->
     <g transform="translate(841.872343 646.492805)scale(0.1 -0.1)">
      <use xlink:href="#DejaVuSans-71"/>
      <use x="73.865234" xlink:href="#DejaVuSans-84"/>
      <use x="134.949219" xlink:href="#DejaVuSans-83"/>
      <use x="198.425781" xlink:href="#DejaVuSans-69"/>
      <use x="261.609375" xlink:href="#DejaVuSans-49"/>
     </g>
    </g>
   </g>
   <g id="text_16">
    <g clip-path="url(#p1d8f7ed2e2)">
     <!-- BAX -->
     <g transform="translate(264.953469 594.683055)scale(0.1 -0.1)">
      <defs>
       <path d="M 6.296875 72.90625 
L 16.890625 72.90625 
L 35.015625 45.796875 
L 53.21875 72.90625 
L 63.8125 72.90625 
L 40.375 37.890625 
L 65.375 0 
L 54.78125 0 
L 34.28125 31 
L 13.625 0 
L 2.984375 0 
L 29 38.921875 
z
" id="DejaVuSans-88"/>
      </defs>
      <use xlink:href="#DejaVuSans-66"/>
      <use x="68.603516" xlink:href="#DejaVuSans-65"/>
      <use x="137.011719" xlink:href="#DejaVuSans-88"/>
     </g>
    </g>
   </g>
   <g id="text_17">
    <g clip-path="url(#p1d8f7ed2e2)">
     <!-- CASP8 -->
     <g transform="translate(470.270127 636.133592)scale(0.1 -0.1)">
      <defs>
       <path d="M 31.78125 34.625 
Q 24.75 34.625 20.71875 30.859375 
Q 16.703125 27.09375 16.703125 20.515625 
Q 16.703125 13.921875 20.71875 10.15625 
Q 24.75 6.390625 31.78125 6.390625 
Q 38.8125 6.390625 42.859375 10.171875 
Q 46.921875 13.96875 46.921875 20.515625 
Q 46.921875 27.09375 42.890625 30.859375 
Q 38.875 34.625 31.78125 34.625 
z
M 21.921875 38.8125 
Q 15.578125 40.375 12.03125 44.71875 
Q 8.5 49.078125 8.5 55.328125 
Q 8.5 64.0625 14.71875 69.140625 
Q 20.953125 74.21875 31.78125 74.21875 
Q 42.671875 74.21875 48.875 69.140625 
Q 55.078125 64.0625 55.078125 55.328125 
Q 55.078125 49.078125 51.53125 44.71875 
Q 48 40.375 41.703125 38.8125 
Q 48.828125 37.15625 52.796875 32.3125 
Q 56.78125 27.484375 56.78125 20.515625 
Q 56.78125 9.90625 50.3125 4.234375 
Q 43.84375 -1.421875 31.78125 -1.421875 
Q 19.734375 -1.421875 13.25 4.234375 
Q 6.78125 9.90625 6.78125 20.515625 
Q 6.78125 27.484375 10.78125 32.3125 
Q 14.796875 37.15625 21.921875 38.8125 
z
M 18.3125 54.390625 
Q 18.3125 48.734375 21.84375 45.5625 
Q 25.390625 42.390625 31.78125 42.390625 
Q 38.140625 42.390625 41.71875 45.5625 
Q 45.3125 48.734375 45.3125 54.390625 
Q 45.3125 60.0625 41.71875 63.234375 
Q 38.140625 66.40625 31.78125 66.40625 
Q 25.390625 66.40625 21.84375 63.234375 
Q 18.3125 60.0625 18.3125 54.390625 
z
" id="DejaVuSans-56"/>
      </defs>
      <use xlink:href="#DejaVuSans-67"/>
      <use x="69.824219" xlink:href="#DejaVuSans-65"/>
      <use x="138.232422" xlink:href="#DejaVuSans-83"/>
      <use x="201.708984" xlink:href="#DejaVuSans-80"/>
      <use x="262.011719" xlink:href="#DejaVuSans-56"/>
     </g>
    </g>
   </g>
   <g id="text_18">
    <g clip-path="url(#p1d8f7ed2e2)">
     <!-- APAF1 -->
     <g transform="translate(528.079833 455.975252)scale(0.1 -0.1)">
      <use xlink:href="#DejaVuSans-65"/>
      <use x="68.408203" xlink:href="#DejaVuSans-80"/>
      <use x="122.335938" xlink:href="#DejaVuSans-65"/>
      <use x="190.744141" xlink:href="#DejaVuSans-70"/>
      <use x="248.263672" xlink:href="#DejaVuSans-49"/>
     </g>
    </g>
   </g>
   <g id="text_19">
    <g clip-path="url(#p1d8f7ed2e2)">
     <!-- CASP9 -->
     <g transform="translate(522.912286 214.755727)scale(0.1 -0.1)">
      <defs>
       <path d="M 10.984375 1.515625 
L 10.984375 10.5 
Q 14.703125 8.734375 18.5 7.8125 
Q 22.3125 6.890625 25.984375 6.890625 
Q 35.75 6.890625 40.890625 13.453125 
Q 46.046875 20.015625 46.78125 33.40625 
Q 43.953125 29.203125 39.59375 26.953125 
Q 35.25 24.703125 29.984375 24.703125 
Q 19.046875 24.703125 12.671875 31.3125 
Q 6.296875 37.9375 6.296875 49.421875 
Q 6.296875 60.640625 12.9375 67.421875 
Q 19.578125 74.21875 30.609375 74.21875 
Q 43.265625 74.21875 49.921875 64.515625 
Q 56.59375 54.828125 56.59375 36.375 
Q 56.59375 19.140625 48.40625 8.859375 
Q 40.234375 -1.421875 26.421875 -1.421875 
Q 22.703125 -1.421875 18.890625 -0.6875 
Q 15.09375 0.046875 10.984375 1.515625 
z
M 30.609375 32.421875 
Q 37.25 32.421875 41.125 36.953125 
Q 45.015625 41.5 45.015625 49.421875 
Q 45.015625 57.28125 41.125 61.84375 
Q 37.25 66.40625 30.609375 66.40625 
Q 23.96875 66.40625 20.09375 61.84375 
Q 16.21875 57.28125 16.21875 49.421875 
Q 16.21875 41.5 20.09375 36.953125 
Q 23.96875 32.421875 30.609375 32.421875 
z
" id="DejaVuSans-57"/>
      </defs>
      <use xlink:href="#DejaVuSans-67"/>
      <use x="69.824219" xlink:href="#DejaVuSans-65"/>
      <use x="138.232422" xlink:href="#DejaVuSans-83"/>
      <use x="201.708984" xlink:href="#DejaVuSans-80"/>
      <use x="262.011719" xlink:href="#DejaVuSans-57"/>
     </g>
    </g>
   </g>
   <g id="text_20">
    <g clip-path="url(#p1d8f7ed2e2)">
     <!-- MDM2 -->
     <g transform="translate(814.731546 196.346936)scale(0.1 -0.1)">
      <use xlink:href="#DejaVuSans-77"/>
      <use x="86.279297" xlink:href="#DejaVuSans-68"/>
      <use x="163.28125" xlink:href="#DejaVuSans-77"/>
      <use x="249.560547" xlink:href="#DejaVuSans-50"/>
     </g>
    </g>
   </g>
   <g id="text_21">
    <g clip-path="url(#p1d8f7ed2e2)">
     <!-- TP53 -->
     <g transform="translate(587.39345 439.379891)scale(0.1 -0.1)">
      <defs>
       <path d="M 10.796875 72.90625 
L 49.515625 72.90625 
L 49.515625 64.59375 
L 19.828125 64.59375 
L 19.828125 46.734375 
Q 21.96875 47.46875 24.109375 47.828125 
Q 26.265625 48.1875 28.421875 48.1875 
Q 40.625 48.1875 47.75 41.5 
Q 54.890625 34.8125 54.890625 23.390625 
Q 54.890625 11.625 47.5625 5.09375 
Q 40.234375 -1.421875 26.90625 -1.421875 
Q 22.3125 -1.421875 17.546875 -0.640625 
Q 12.796875 0.140625 7.71875 1.703125 
L 7.71875 11.625 
Q 12.109375 9.234375 16.796875 8.0625 
Q 21.484375 6.890625 26.703125 6.890625 
Q 35.15625 6.890625 40.078125 11.328125 
Q 45.015625 15.765625 45.015625 23.390625 
Q 45.015625 31 40.078125 35.4375 
Q 35.15625 39.890625 26.703125 39.890625 
Q 22.75 39.890625 18.8125 39.015625 
Q 14.890625 38.140625 10.796875 36.28125 
z
" id="DejaVuSans-53"/>
      </defs>
      <use xlink:href="#DejaVuSans-84"/>
      <use x="61.083984" xlink:href="#DejaVuSans-80"/>
      <use x="121.386719" xlink:href="#DejaVuSans-53"/>
      <use x="185.009766" xlink:href="#DejaVuSans-51"/>
     </g>
    </g>
   </g>
   <g id="text_22">
    <g clip-path="url(#p1d8f7ed2e2)">
     <!-- RCHY1 -->
     <g transform="translate(409.977126 681.07278)scale(0.1 -0.1)">
      <defs>
       <path d="M -0.203125 72.90625 
L 10.40625 72.90625 
L 30.609375 42.921875 
L 50.6875 72.90625 
L 61.28125 72.90625 
L 35.5 34.71875 
L 35.5 0 
L 25.59375 0 
L 25.59375 34.71875 
z
" id="DejaVuSans-89"/>
      </defs>
      <use xlink:href="#DejaVuSans-82"/>
      <use x="64.482422" xlink:href="#DejaVuSans-67"/>
      <use x="134.306641" xlink:href="#DejaVuSans-72"/>
      <use x="209.501953" xlink:href="#DejaVuSans-89"/>
      <use x="270.585938" xlink:href="#DejaVuSans-49"/>
     </g>
    </g>
   </g>
   <g id="text_23">
    <g clip-path="url(#p1d8f7ed2e2)">
     <!-- PERP -->
     <g transform="translate(300.375745 310.779736)scale(0.1 -0.1)">
      <use xlink:href="#DejaVuSans-80"/>
      <use x="60.302734" xlink:href="#DejaVuSans-69"/>
      <use x="123.486328" xlink:href="#DejaVuSans-82"/>
      <use x="192.96875" xlink:href="#DejaVuSans-80"/>
     </g>
    </g>
   </g>
   <g id="text_24">
    <g clip-path="url(#p1d8f7ed2e2)">
     <!-- CASP3 -->
     <g transform="translate(205.192349 470.994817)scale(0.1 -0.1)">
      <use xlink:href="#DejaVuSans-67"/>
      <use x="69.824219" xlink:href="#DejaVuSans-65"/>
      <use x="138.232422" xlink:href="#DejaVuSans-83"/>
      <use x="201.708984" xlink:href="#DejaVuSans-80"/>
      <use x="262.011719" xlink:href="#DejaVuSans-51"/>
     </g>
    </g>
   </g>
   <g id="text_25">
    <g clip-path="url(#p1d8f7ed2e2)">
     <!-- BBC3 -->
     <g transform="translate(920.215288 431.480471)scale(0.1 -0.1)">
      <use xlink:href="#DejaVuSans-66"/>
      <use x="68.603516" xlink:href="#DejaVuSans-66"/>
      <use x="135.457031" xlink:href="#DejaVuSans-67"/>
      <use x="205.28125" xlink:href="#DejaVuSans-51"/>
     </g>
    </g>
   </g>
   <g id="text_26">
    <g clip-path="url(#p1d8f7ed2e2)">
     <!-- PMAIP1 -->
     <g transform="translate(688.894257 689.819802)scale(0.1 -0.1)">
      <use xlink:href="#DejaVuSans-80"/>
      <use x="60.302734" xlink:href="#DejaVuSans-77"/>
      <use x="146.582031" xlink:href="#DejaVuSans-65"/>
      <use x="214.990234" xlink:href="#DejaVuSans-73"/>
      <use x="244.482422" xlink:href="#DejaVuSans-80"/>
      <use x="304.785156" xlink:href="#DejaVuSans-49"/>
     </g>
    </g>
   </g>
   <g id="text_27">
    <g clip-path="url(#p1d8f7ed2e2)">
     <!-- SIVA1 -->
     <g transform="translate(454.769338 449.886842)scale(0.1 -0.1)">
      <defs>
       <path d="M 28.609375 0 
L 0.78125 72.90625 
L 11.078125 72.90625 
L 34.1875 11.53125 
L 57.328125 72.90625 
L 67.578125 72.90625 
L 39.796875 0 
z
" id="DejaVuSans-86"/>
      </defs>
      <use xlink:href="#DejaVuSans-83"/>
      <use x="63.476562" xlink:href="#DejaVuSans-73"/>
      <use x="92.96875" xlink:href="#DejaVuSans-86"/>
      <use x="155.001953" xlink:href="#DejaVuSans-65"/>
      <use x="223.410156" xlink:href="#DejaVuSans-49"/>
     </g>
    </g>
   </g>
   <g id="text_28">
    <g clip-path="url(#p1d8f7ed2e2)">
     <!-- BCL2L1 -->
     <g transform="translate(638.738832 497.171621)scale(0.1 -0.1)">
      <defs>
       <path d="M 9.8125 72.90625 
L 19.671875 72.90625 
L 19.671875 8.296875 
L 55.171875 8.296875 
L 55.171875 0 
L 9.8125 0 
z
" id="DejaVuSans-76"/>
      </defs>
      <use xlink:href="#DejaVuSans-66"/>
      <use x="66.853516" xlink:href="#DejaVuSans-67"/>
      <use x="136.677734" xlink:href="#DejaVuSans-76"/>
      <use x="192.390625" xlink:href="#DejaVuSans-50"/>
      <use x="256.013672" xlink:href="#DejaVuSans-76"/>
      <use x="311.726562" xlink:href="#DejaVuSans-49"/>
     </g>
    </g>
   </g>
   <g id="text_29">
    <g clip-path="url(#p1d8f7ed2e2)">
     <!-- BCL2 -->
     <g transform="translate(345.110708 593.77784)scale(0.1 -0.1)">
      <use xlink:href="#DejaVuSans-66"/>
      <use x="66.853516" xlink:href="#DejaVuSans-67"/>
      <use x="136.677734" xlink:href="#DejaVuSans-76"/>
      <use x="192.390625" xlink:href="#DejaVuSans-50"/>
     </g>
    </g>
   </g>
   <g id="text_30">
    <g clip-path="url(#p1d8f7ed2e2)">
     <!-- AIFM2 -->
     <g transform="translate(241.304901 351.374115)scale(0.1 -0.1)">
      <use xlink:href="#DejaVuSans-65"/>
      <use x="68.408203" xlink:href="#DejaVuSans-73"/>
      <use x="97.900391" xlink:href="#DejaVuSans-70"/>
      <use x="155.419922" xlink:href="#DejaVuSans-77"/>
      <use x="241.699219" xlink:href="#DejaVuSans-50"/>
     </g>
    </g>
   </g>
   <g id="text_31">
    <g clip-path="url(#p1d8f7ed2e2)">
     <!-- ZNF385A -->
     <g transform="translate(221.702216 531.769071)scale(0.1 -0.1)">
      <use xlink:href="#DejaVuSans-90"/>
      <use x="68.505859" xlink:href="#DejaVuSans-78"/>
      <use x="143.310547" xlink:href="#DejaVuSans-70"/>
      <use x="200.830078" xlink:href="#DejaVuSans-51"/>
      <use x="264.453125" xlink:href="#DejaVuSans-56"/>
      <use x="328.076172" xlink:href="#DejaVuSans-53"/>
      <use x="391.699219" xlink:href="#DejaVuSans-65"/>
     </g>
    </g>
   </g>
   <g id="text_32">
    <g clip-path="url(#p1d8f7ed2e2)">
     <!-- PPP1R13L -->
     <g transform="translate(343.84555 646.516099)scale(0.1 -0.1)">
      <use xlink:href="#DejaVuSans-80"/>
      <use x="60.302734" xlink:href="#DejaVuSans-80"/>
      <use x="120.605469" xlink:href="#DejaVuSans-80"/>
      <use x="180.908203" xlink:href="#DejaVuSans-49"/>
      <use x="244.53125" xlink:href="#DejaVuSans-82"/>
      <use x="314.013672" xlink:href="#DejaVuSans-49"/>
      <use x="377.636719" xlink:href="#DejaVuSans-51"/>
      <use x="441.259766" xlink:href="#DejaVuSans-76"/>
     </g>
    </g>
   </g>
   <g id="text_33">
    <g clip-path="url(#p1d8f7ed2e2)">
     <!-- CCNG1 -->
     <g transform="translate(846.607295 252.460221)scale(0.1 -0.1)">
      <use xlink:href="#DejaVuSans-67"/>
      <use x="69.824219" xlink:href="#DejaVuSans-67"/>
      <use x="139.648438" xlink:href="#DejaVuSans-78"/>
      <use x="214.453125" xlink:href="#DejaVuSans-71"/>
      <use x="291.943359" xlink:href="#DejaVuSans-49"/>
     </g>
    </g>
   </g>
   <g id="text_34">
    <g clip-path="url(#p1d8f7ed2e2)">
     <!-- CCNG2 -->
     <g transform="translate(941.546714 498.188606)scale(0.1 -0.1)">
      <use xlink:href="#DejaVuSans-67"/>
      <use x="69.824219" xlink:href="#DejaVuSans-67"/>
      <use x="139.648438" xlink:href="#DejaVuSans-78"/>
      <use x="214.453125" xlink:href="#DejaVuSans-71"/>
      <use x="291.943359" xlink:href="#DejaVuSans-50"/>
     </g>
    </g>
   </g>
   <g id="text_35">
    <g clip-path="url(#p1d8f7ed2e2)">
     <!-- EI24 -->
     <g transform="translate(667.318516 169.565609)scale(0.1 -0.1)">
      <use xlink:href="#DejaVuSans-69"/>
      <use x="63.183594" xlink:href="#DejaVuSans-73"/>
      <use x="92.675781" xlink:href="#DejaVuSans-50"/>
      <use x="156.298828" xlink:href="#DejaVuSans-52"/>
     </g>
    </g>
   </g>
   <g id="text_36">
    <g clip-path="url(#p1d8f7ed2e2)">
     <!-- SESN2 -->
     <g transform="translate(280.645121 256.653719)scale(0.1 -0.1)">
      <use xlink:href="#DejaVuSans-83"/>
      <use x="63.476562" xlink:href="#DejaVuSans-69"/>
      <use x="126.660156" xlink:href="#DejaVuSans-83"/>
      <use x="190.136719" xlink:href="#DejaVuSans-78"/>
      <use x="264.941406" xlink:href="#DejaVuSans-50"/>
     </g>
    </g>
   </g>
   <g id="text_37">
    <!-- Importance Score and Relative Abundance for network hsa04115 for dataset atherosclerosis -->
    <g transform="translate(312.388125 97.68)scale(0.12 -0.12)">
     <defs>
      <path d="M 52 44.1875 
Q 55.375 50.25 60.0625 53.125 
Q 64.75 56 71.09375 56 
Q 79.640625 56 84.28125 50.015625 
Q 88.921875 44.046875 88.921875 33.015625 
L 88.921875 0 
L 79.890625 0 
L 79.890625 32.71875 
Q 79.890625 40.578125 77.09375 44.375 
Q 74.3125 48.1875 68.609375 48.1875 
Q 61.625 48.1875 57.5625 43.546875 
Q 53.515625 38.921875 53.515625 30.90625 
L 53.515625 0 
L 44.484375 0 
L 44.484375 32.71875 
Q 44.484375 40.625 41.703125 44.40625 
Q 38.921875 48.1875 33.109375 48.1875 
Q 26.21875 48.1875 22.15625 43.53125 
Q 18.109375 38.875 18.109375 30.90625 
L 18.109375 0 
L 9.078125 0 
L 9.078125 54.6875 
L 18.109375 54.6875 
L 18.109375 46.1875 
Q 21.1875 51.21875 25.484375 53.609375 
Q 29.78125 56 35.6875 56 
Q 41.65625 56 45.828125 52.96875 
Q 50 49.953125 52 44.1875 
z
" id="DejaVuSans-109"/>
      <path d="M 18.109375 8.203125 
L 18.109375 -20.796875 
L 9.078125 -20.796875 
L 9.078125 54.6875 
L 18.109375 54.6875 
L 18.109375 46.390625 
Q 20.953125 51.265625 25.265625 53.625 
Q 29.59375 56 35.59375 56 
Q 45.5625 56 51.78125 48.09375 
Q 58.015625 40.1875 58.015625 27.296875 
Q 58.015625 14.40625 51.78125 6.484375 
Q 45.5625 -1.421875 35.59375 -1.421875 
Q 29.59375 -1.421875 25.265625 0.953125 
Q 20.953125 3.328125 18.109375 8.203125 
z
M 48.6875 27.296875 
Q 48.6875 37.203125 44.609375 42.84375 
Q 40.53125 48.484375 33.40625 48.484375 
Q 26.265625 48.484375 22.1875 42.84375 
Q 18.109375 37.203125 18.109375 27.296875 
Q 18.109375 17.390625 22.1875 11.75 
Q 26.265625 6.109375 33.40625 6.109375 
Q 40.53125 6.109375 44.609375 11.75 
Q 48.6875 17.390625 48.6875 27.296875 
z
" id="DejaVuSans-112"/>
      <path d="M 30.609375 48.390625 
Q 23.390625 48.390625 19.1875 42.75 
Q 14.984375 37.109375 14.984375 27.296875 
Q 14.984375 17.484375 19.15625 11.84375 
Q 23.34375 6.203125 30.609375 6.203125 
Q 37.796875 6.203125 41.984375 11.859375 
Q 46.1875 17.53125 46.1875 27.296875 
Q 46.1875 37.015625 41.984375 42.703125 
Q 37.796875 48.390625 30.609375 48.390625 
z
M 30.609375 56 
Q 42.328125 56 49.015625 48.375 
Q 55.71875 40.765625 55.71875 27.296875 
Q 55.71875 13.875 49.015625 6.21875 
Q 42.328125 -1.421875 30.609375 -1.421875 
Q 18.84375 -1.421875 12.171875 6.21875 
Q 5.515625 13.875 5.515625 27.296875 
Q 5.515625 40.765625 12.171875 48.375 
Q 18.84375 56 30.609375 56 
z
" id="DejaVuSans-111"/>
      <path d="M 41.109375 46.296875 
Q 39.59375 47.171875 37.8125 47.578125 
Q 36.03125 48 33.890625 48 
Q 26.265625 48 22.1875 43.046875 
Q 18.109375 38.09375 18.109375 28.8125 
L 18.109375 0 
L 9.078125 0 
L 9.078125 54.6875 
L 18.109375 54.6875 
L 18.109375 46.1875 
Q 20.953125 51.171875 25.484375 53.578125 
Q 30.03125 56 36.53125 56 
Q 37.453125 56 38.578125 55.875 
Q 39.703125 55.765625 41.0625 55.515625 
z
" id="DejaVuSans-114"/>
      <path d="M 18.3125 70.21875 
L 18.3125 54.6875 
L 36.8125 54.6875 
L 36.8125 47.703125 
L 18.3125 47.703125 
L 18.3125 18.015625 
Q 18.3125 11.328125 20.140625 9.421875 
Q 21.96875 7.515625 27.59375 7.515625 
L 36.8125 7.515625 
L 36.8125 0 
L 27.59375 0 
Q 17.1875 0 13.234375 3.875 
Q 9.28125 7.765625 9.28125 18.015625 
L 9.28125 47.703125 
L 2.6875 47.703125 
L 2.6875 54.6875 
L 9.28125 54.6875 
L 9.28125 70.21875 
z
" id="DejaVuSans-116"/>
      <path d="M 34.28125 27.484375 
Q 23.390625 27.484375 19.1875 25 
Q 14.984375 22.515625 14.984375 16.5 
Q 14.984375 11.71875 18.140625 8.90625 
Q 21.296875 6.109375 26.703125 6.109375 
Q 34.1875 6.109375 38.703125 11.40625 
Q 43.21875 16.703125 43.21875 25.484375 
L 43.21875 27.484375 
z
M 52.203125 31.203125 
L 52.203125 0 
L 43.21875 0 
L 43.21875 8.296875 
Q 40.140625 3.328125 35.546875 0.953125 
Q 30.953125 -1.421875 24.3125 -1.421875 
Q 15.921875 -1.421875 10.953125 3.296875 
Q 6 8.015625 6 15.921875 
Q 6 25.140625 12.171875 29.828125 
Q 18.359375 34.515625 30.609375 34.515625 
L 43.21875 34.515625 
L 43.21875 35.40625 
Q 43.21875 41.609375 39.140625 45 
Q 35.0625 48.390625 27.6875 48.390625 
Q 23 48.390625 18.546875 47.265625 
Q 14.109375 46.140625 10.015625 43.890625 
L 10.015625 52.203125 
Q 14.9375 54.109375 19.578125 55.046875 
Q 24.21875 56 28.609375 56 
Q 40.484375 56 46.34375 49.84375 
Q 52.203125 43.703125 52.203125 31.203125 
z
" id="DejaVuSans-97"/>
      <path d="M 54.890625 33.015625 
L 54.890625 0 
L 45.90625 0 
L 45.90625 32.71875 
Q 45.90625 40.484375 42.875 44.328125 
Q 39.84375 48.1875 33.796875 48.1875 
Q 26.515625 48.1875 22.3125 43.546875 
Q 18.109375 38.921875 18.109375 30.90625 
L 18.109375 0 
L 9.078125 0 
L 9.078125 54.6875 
L 18.109375 54.6875 
L 18.109375 46.1875 
Q 21.34375 51.125 25.703125 53.5625 
Q 30.078125 56 35.796875 56 
Q 45.21875 56 50.046875 50.171875 
Q 54.890625 44.34375 54.890625 33.015625 
z
" id="DejaVuSans-110"/>
      <path d="M 48.78125 52.59375 
L 48.78125 44.1875 
Q 44.96875 46.296875 41.140625 47.34375 
Q 37.3125 48.390625 33.40625 48.390625 
Q 24.65625 48.390625 19.8125 42.84375 
Q 14.984375 37.3125 14.984375 27.296875 
Q 14.984375 17.28125 19.8125 11.734375 
Q 24.65625 6.203125 33.40625 6.203125 
Q 37.3125 6.203125 41.140625 7.25 
Q 44.96875 8.296875 48.78125 10.40625 
L 48.78125 2.09375 
Q 45.015625 0.34375 40.984375 -0.53125 
Q 36.96875 -1.421875 32.421875 -1.421875 
Q 20.0625 -1.421875 12.78125 6.34375 
Q 5.515625 14.109375 5.515625 27.296875 
Q 5.515625 40.671875 12.859375 48.328125 
Q 20.21875 56 33.015625 56 
Q 37.15625 56 41.109375 55.140625 
Q 45.0625 54.296875 48.78125 52.59375 
z
" id="DejaVuSans-99"/>
      <path d="M 56.203125 29.59375 
L 56.203125 25.203125 
L 14.890625 25.203125 
Q 15.484375 15.921875 20.484375 11.0625 
Q 25.484375 6.203125 34.421875 6.203125 
Q 39.59375 6.203125 44.453125 7.46875 
Q 49.3125 8.734375 54.109375 11.28125 
L 54.109375 2.78125 
Q 49.265625 0.734375 44.1875 -0.34375 
Q 39.109375 -1.421875 33.890625 -1.421875 
Q 20.796875 -1.421875 13.15625 6.1875 
Q 5.515625 13.8125 5.515625 26.8125 
Q 5.515625 40.234375 12.765625 48.109375 
Q 20.015625 56 32.328125 56 
Q 43.359375 56 49.78125 48.890625 
Q 56.203125 41.796875 56.203125 29.59375 
z
M 47.21875 32.234375 
Q 47.125 39.59375 43.09375 43.984375 
Q 39.0625 48.390625 32.421875 48.390625 
Q 24.90625 48.390625 20.390625 44.140625 
Q 15.875 39.890625 15.1875 32.171875 
z
" id="DejaVuSans-101"/>
      <path id="DejaVuSans-32"/>
      <path d="M 45.40625 46.390625 
L 45.40625 75.984375 
L 54.390625 75.984375 
L 54.390625 0 
L 45.40625 0 
L 45.40625 8.203125 
Q 42.578125 3.328125 38.25 0.953125 
Q 33.9375 -1.421875 27.875 -1.421875 
Q 17.96875 -1.421875 11.734375 6.484375 
Q 5.515625 14.40625 5.515625 27.296875 
Q 5.515625 40.1875 11.734375 48.09375 
Q 17.96875 56 27.875 56 
Q 33.9375 56 38.25 53.625 
Q 42.578125 51.265625 45.40625 46.390625 
z
M 14.796875 27.296875 
Q 14.796875 17.390625 18.875 11.75 
Q 22.953125 6.109375 30.078125 6.109375 
Q 37.203125 6.109375 41.296875 11.75 
Q 45.40625 17.390625 45.40625 27.296875 
Q 45.40625 37.203125 41.296875 42.84375 
Q 37.203125 48.484375 30.078125 48.484375 
Q 22.953125 48.484375 18.875 42.84375 
Q 14.796875 37.203125 14.796875 27.296875 
z
" id="DejaVuSans-100"/>
      <path d="M 9.421875 75.984375 
L 18.40625 75.984375 
L 18.40625 0 
L 9.421875 0 
z
" id="DejaVuSans-108"/>
      <path d="M 9.421875 54.6875 
L 18.40625 54.6875 
L 18.40625 0 
L 9.421875 0 
z
M 9.421875 75.984375 
L 18.40625 75.984375 
L 18.40625 64.59375 
L 9.421875 64.59375 
z
" id="DejaVuSans-105"/>
      <path d="M 2.984375 54.6875 
L 12.5 54.6875 
L 29.59375 8.796875 
L 46.6875 54.6875 
L 56.203125 54.6875 
L 35.6875 0 
L 23.484375 0 
z
" id="DejaVuSans-118"/>
      <path d="M 48.6875 27.296875 
Q 48.6875 37.203125 44.609375 42.84375 
Q 40.53125 48.484375 33.40625 48.484375 
Q 26.265625 48.484375 22.1875 42.84375 
Q 18.109375 37.203125 18.109375 27.296875 
Q 18.109375 17.390625 22.1875 11.75 
Q 26.265625 6.109375 33.40625 6.109375 
Q 40.53125 6.109375 44.609375 11.75 
Q 48.6875 17.390625 48.6875 27.296875 
z
M 18.109375 46.390625 
Q 20.953125 51.265625 25.265625 53.625 
Q 29.59375 56 35.59375 56 
Q 45.5625 56 51.78125 48.09375 
Q 58.015625 40.1875 58.015625 27.296875 
Q 58.015625 14.40625 51.78125 6.484375 
Q 45.5625 -1.421875 35.59375 -1.421875 
Q 29.59375 -1.421875 25.265625 0.953125 
Q 20.953125 3.328125 18.109375 8.203125 
L 18.109375 0 
L 9.078125 0 
L 9.078125 75.984375 
L 18.109375 75.984375 
z
" id="DejaVuSans-98"/>
      <path d="M 8.5 21.578125 
L 8.5 54.6875 
L 17.484375 54.6875 
L 17.484375 21.921875 
Q 17.484375 14.15625 20.5 10.265625 
Q 23.53125 6.390625 29.59375 6.390625 
Q 36.859375 6.390625 41.078125 11.03125 
Q 45.3125 15.671875 45.3125 23.6875 
L 45.3125 54.6875 
L 54.296875 54.6875 
L 54.296875 0 
L 45.3125 0 
L 45.3125 8.40625 
Q 42.046875 3.421875 37.71875 1 
Q 33.40625 -1.421875 27.6875 -1.421875 
Q 18.265625 -1.421875 13.375 4.4375 
Q 8.5 10.296875 8.5 21.578125 
z
M 31.109375 56 
z
" id="DejaVuSans-117"/>
      <path d="M 37.109375 75.984375 
L 37.109375 68.5 
L 28.515625 68.5 
Q 23.6875 68.5 21.796875 66.546875 
Q 19.921875 64.59375 19.921875 59.515625 
L 19.921875 54.6875 
L 34.71875 54.6875 
L 34.71875 47.703125 
L 19.921875 47.703125 
L 19.921875 0 
L 10.890625 0 
L 10.890625 47.703125 
L 2.296875 47.703125 
L 2.296875 54.6875 
L 10.890625 54.6875 
L 10.890625 58.5 
Q 10.890625 67.625 15.140625 71.796875 
Q 19.390625 75.984375 28.609375 75.984375 
z
" id="DejaVuSans-102"/>
      <path d="M 4.203125 54.6875 
L 13.1875 54.6875 
L 24.421875 12.015625 
L 35.59375 54.6875 
L 46.1875 54.6875 
L 57.421875 12.015625 
L 68.609375 54.6875 
L 77.59375 54.6875 
L 63.28125 0 
L 52.6875 0 
L 40.921875 44.828125 
L 29.109375 0 
L 18.5 0 
z
" id="DejaVuSans-119"/>
      <path d="M 9.078125 75.984375 
L 18.109375 75.984375 
L 18.109375 31.109375 
L 44.921875 54.6875 
L 56.390625 54.6875 
L 27.390625 29.109375 
L 57.625 0 
L 45.90625 0 
L 18.109375 26.703125 
L 18.109375 0 
L 9.078125 0 
z
" id="DejaVuSans-107"/>
      <path d="M 54.890625 33.015625 
L 54.890625 0 
L 45.90625 0 
L 45.90625 32.71875 
Q 45.90625 40.484375 42.875 44.328125 
Q 39.84375 48.1875 33.796875 48.1875 
Q 26.515625 48.1875 22.3125 43.546875 
Q 18.109375 38.921875 18.109375 30.90625 
L 18.109375 0 
L 9.078125 0 
L 9.078125 75.984375 
L 18.109375 75.984375 
L 18.109375 46.1875 
Q 21.34375 51.125 25.703125 53.5625 
Q 30.078125 56 35.796875 56 
Q 45.21875 56 50.046875 50.171875 
Q 54.890625 44.34375 54.890625 33.015625 
z
" id="DejaVuSans-104"/>
      <path d="M 44.28125 53.078125 
L 44.28125 44.578125 
Q 40.484375 46.53125 36.375 47.5 
Q 32.28125 48.484375 27.875 48.484375 
Q 21.1875 48.484375 17.84375 46.4375 
Q 14.5 44.390625 14.5 40.28125 
Q 14.5 37.15625 16.890625 35.375 
Q 19.28125 33.59375 26.515625 31.984375 
L 29.59375 31.296875 
Q 39.15625 29.25 43.1875 25.515625 
Q 47.21875 21.78125 47.21875 15.09375 
Q 47.21875 7.46875 41.1875 3.015625 
Q 35.15625 -1.421875 24.609375 -1.421875 
Q 20.21875 -1.421875 15.453125 -0.5625 
Q 10.6875 0.296875 5.421875 2 
L 5.421875 11.28125 
Q 10.40625 8.6875 15.234375 7.390625 
Q 20.0625 6.109375 24.8125 6.109375 
Q 31.15625 6.109375 34.5625 8.28125 
Q 37.984375 10.453125 37.984375 14.40625 
Q 37.984375 18.0625 35.515625 20.015625 
Q 33.0625 21.96875 24.703125 23.78125 
L 21.578125 24.515625 
Q 13.234375 26.265625 9.515625 29.90625 
Q 5.8125 33.546875 5.8125 39.890625 
Q 5.8125 47.609375 11.28125 51.796875 
Q 16.75 56 26.8125 56 
Q 31.78125 56 36.171875 55.265625 
Q 40.578125 54.546875 44.28125 53.078125 
z
" id="DejaVuSans-115"/>
      <path d="M 31.78125 66.40625 
Q 24.171875 66.40625 20.328125 58.90625 
Q 16.5 51.421875 16.5 36.375 
Q 16.5 21.390625 20.328125 13.890625 
Q 24.171875 6.390625 31.78125 6.390625 
Q 39.453125 6.390625 43.28125 13.890625 
Q 47.125 21.390625 47.125 36.375 
Q 47.125 51.421875 43.28125 58.90625 
Q 39.453125 66.40625 31.78125 66.40625 
z
M 31.78125 74.21875 
Q 44.046875 74.21875 50.515625 64.515625 
Q 56.984375 54.828125 56.984375 36.375 
Q 56.984375 17.96875 50.515625 8.265625 
Q 44.046875 -1.421875 31.78125 -1.421875 
Q 19.53125 -1.421875 13.0625 8.265625 
Q 6.59375 17.96875 6.59375 36.375 
Q 6.59375 54.828125 13.0625 64.515625 
Q 19.53125 74.21875 31.78125 74.21875 
z
" id="DejaVuSans-48"/>
     </defs>
     <use xlink:href="#DejaVuSans-73"/>
     <use x="29.492188" xlink:href="#DejaVuSans-109"/>
     <use x="126.904297" xlink:href="#DejaVuSans-112"/>
     <use x="190.380859" xlink:href="#DejaVuSans-111"/>
     <use x="251.5625" xlink:href="#DejaVuSans-114"/>
     <use x="292.675781" xlink:href="#DejaVuSans-116"/>
     <use x="331.884766" xlink:href="#DejaVuSans-97"/>
     <use x="393.164062" xlink:href="#DejaVuSans-110"/>
     <use x="456.542969" xlink:href="#DejaVuSans-99"/>
     <use x="511.523438" xlink:href="#DejaVuSans-101"/>
     <use x="573.046875" xlink:href="#DejaVuSans-32"/>
     <use x="604.833984" xlink:href="#DejaVuSans-83"/>
     <use x="668.310547" xlink:href="#DejaVuSans-99"/>
     <use x="723.291016" xlink:href="#DejaVuSans-111"/>
     <use x="784.472656" xlink:href="#DejaVuSans-114"/>
     <use x="823.335938" xlink:href="#DejaVuSans-101"/>
     <use x="884.859375" xlink:href="#DejaVuSans-32"/>
     <use x="916.646484" xlink:href="#DejaVuSans-97"/>
     <use x="977.925781" xlink:href="#DejaVuSans-110"/>
     <use x="1041.304688" xlink:href="#DejaVuSans-100"/>
     <use x="1104.78125" xlink:href="#DejaVuSans-32"/>
     <use x="1136.568359" xlink:href="#DejaVuSans-82"/>
     <use x="1201.550781" xlink:href="#DejaVuSans-101"/>
     <use x="1263.074219" xlink:href="#DejaVuSans-108"/>
     <use x="1290.857422" xlink:href="#DejaVuSans-97"/>
     <use x="1352.136719" xlink:href="#DejaVuSans-116"/>
     <use x="1391.345703" xlink:href="#DejaVuSans-105"/>
     <use x="1419.128906" xlink:href="#DejaVuSans-118"/>
     <use x="1478.308594" xlink:href="#DejaVuSans-101"/>
     <use x="1539.832031" xlink:href="#DejaVuSans-32"/>
     <use x="1571.619141" xlink:href="#DejaVuSans-65"/>
     <use x="1640.027344" xlink:href="#DejaVuSans-98"/>
     <use x="1703.503906" xlink:href="#DejaVuSans-117"/>
     <use x="1766.882812" xlink:href="#DejaVuSans-110"/>
     <use x="1830.261719" xlink:href="#DejaVuSans-100"/>
     <use x="1893.738281" xlink:href="#DejaVuSans-97"/>
     <use x="1955.017578" xlink:href="#DejaVuSans-110"/>
     <use x="2018.396484" xlink:href="#DejaVuSans-99"/>
     <use x="2073.376953" xlink:href="#DejaVuSans-101"/>
     <use x="2134.900391" xlink:href="#DejaVuSans-32"/>
     <use x="2166.6875" xlink:href="#DejaVuSans-102"/>
     <use x="2201.892578" xlink:href="#DejaVuSans-111"/>
     <use x="2263.074219" xlink:href="#DejaVuSans-114"/>
     <use x="2304.1875" xlink:href="#DejaVuSans-32"/>
     <use x="2335.974609" xlink:href="#DejaVuSans-110"/>
     <use x="2399.353516" xlink:href="#DejaVuSans-101"/>
     <use x="2460.876953" xlink:href="#DejaVuSans-116"/>
     <use x="2500.085938" xlink:href="#DejaVuSans-119"/>
     <use x="2581.873047" xlink:href="#DejaVuSans-111"/>
     <use x="2643.054688" xlink:href="#DejaVuSans-114"/>
     <use x="2684.167969" xlink:href="#DejaVuSans-107"/>
     <use x="2742.078125" xlink:href="#DejaVuSans-32"/>
     <use x="2773.865234" xlink:href="#DejaVuSans-104"/>
     <use x="2837.244141" xlink:href="#DejaVuSans-115"/>
     <use x="2889.34375" xlink:href="#DejaVuSans-97"/>
     <use x="2950.623047" xlink:href="#DejaVuSans-48"/>
     <use x="3014.246094" xlink:href="#DejaVuSans-52"/>
     <use x="3077.869141" xlink:href="#DejaVuSans-49"/>
     <use x="3141.492188" xlink:href="#DejaVuSans-49"/>
     <use x="3205.115234" xlink:href="#DejaVuSans-53"/>
     <use x="3268.738281" xlink:href="#DejaVuSans-32"/>
     <use x="3300.525391" xlink:href="#DejaVuSans-102"/>
     <use x="3335.730469" xlink:href="#DejaVuSans-111"/>
     <use x="3396.912109" xlink:href="#DejaVuSans-114"/>
     <use x="3438.025391" xlink:href="#DejaVuSans-32"/>
     <use x="3469.8125" xlink:href="#DejaVuSans-100"/>
     <use x="3533.289062" xlink:href="#DejaVuSans-97"/>
     <use x="3594.568359" xlink:href="#DejaVuSans-116"/>
     <use x="3633.777344" xlink:href="#DejaVuSans-97"/>
     <use x="3695.056641" xlink:href="#DejaVuSans-115"/>
     <use x="3747.15625" xlink:href="#DejaVuSans-101"/>
     <use x="3808.679688" xlink:href="#DejaVuSans-116"/>
     <use x="3847.888672" xlink:href="#DejaVuSans-32"/>
     <use x="3879.675781" xlink:href="#DejaVuSans-97"/>
     <use x="3940.955078" xlink:href="#DejaVuSans-116"/>
     <use x="3980.164062" xlink:href="#DejaVuSans-104"/>
     <use x="4043.542969" xlink:href="#DejaVuSans-101"/>
     <use x="4105.066406" xlink:href="#DejaVuSans-114"/>
     <use x="4143.929688" xlink:href="#DejaVuSans-111"/>
     <use x="4205.111328" xlink:href="#DejaVuSans-115"/>
     <use x="4257.210938" xlink:href="#DejaVuSans-99"/>
     <use x="4312.191406" xlink:href="#DejaVuSans-108"/>
     <use x="4339.974609" xlink:href="#DejaVuSans-101"/>
     <use x="4401.498047" xlink:href="#DejaVuSans-114"/>
     <use x="4440.361328" xlink:href="#DejaVuSans-111"/>
     <use x="4501.542969" xlink:href="#DejaVuSans-115"/>
     <use x="4553.642578" xlink:href="#DejaVuSans-105"/>
     <use x="4581.425781" xlink:href="#DejaVuSans-115"/>
    </g>
   </g>
   <g id="legend_1">
    <g id="patch_41">
     <path d="M 803.859375 155.714375 
L 1029.8 155.714375 
Q 1031.8 155.714375 1031.8 153.714375 
L 1031.8 110.68 
Q 1031.8 108.68 1029.8 108.68 
L 803.859375 108.68 
Q 801.859375 108.68 801.859375 110.68 
L 801.859375 153.714375 
Q 801.859375 155.714375 803.859375 155.714375 
z
" style="fill:#ffffff;opacity:0.8;stroke:#cccccc;stroke-linejoin:miter;"/>
    </g>
    <g id="text_38">
     <!-- Relative Expression of AS+ compared to AS- -->
     <g transform="translate(805.859375 120.278437)scale(0.1 -0.1)">
      <defs>
       <path d="M 54.890625 54.6875 
L 35.109375 28.078125 
L 55.90625 0 
L 45.3125 0 
L 29.390625 21.484375 
L 13.484375 0 
L 2.875 0 
L 24.125 28.609375 
L 4.6875 54.6875 
L 15.28125 54.6875 
L 29.78125 35.203125 
L 44.28125 54.6875 
z
" id="DejaVuSans-120"/>
       <path d="M 46 62.703125 
L 46 35.5 
L 73.1875 35.5 
L 73.1875 27.203125 
L 46 27.203125 
L 46 0 
L 37.796875 0 
L 37.796875 27.203125 
L 10.59375 27.203125 
L 10.59375 35.5 
L 37.796875 35.5 
L 37.796875 62.703125 
z
" id="DejaVuSans-43"/>
       <path d="M 4.890625 31.390625 
L 31.203125 31.390625 
L 31.203125 23.390625 
L 4.890625 23.390625 
z
" id="DejaVuSans-45"/>
      </defs>
      <use xlink:href="#DejaVuSans-82"/>
      <use x="64.982422" xlink:href="#DejaVuSans-101"/>
      <use x="126.505859" xlink:href="#DejaVuSans-108"/>
      <use x="154.289062" xlink:href="#DejaVuSans-97"/>
      <use x="215.568359" xlink:href="#DejaVuSans-116"/>
      <use x="254.777344" xlink:href="#DejaVuSans-105"/>
      <use x="282.560547" xlink:href="#DejaVuSans-118"/>
      <use x="341.740234" xlink:href="#DejaVuSans-101"/>
      <use x="403.263672" xlink:href="#DejaVuSans-32"/>
      <use x="435.050781" xlink:href="#DejaVuSans-69"/>
      <use x="498.234375" xlink:href="#DejaVuSans-120"/>
      <use x="557.414062" xlink:href="#DejaVuSans-112"/>
      <use x="620.890625" xlink:href="#DejaVuSans-114"/>
      <use x="659.753906" xlink:href="#DejaVuSans-101"/>
      <use x="721.277344" xlink:href="#DejaVuSans-115"/>
      <use x="773.376953" xlink:href="#DejaVuSans-115"/>
      <use x="825.476562" xlink:href="#DejaVuSans-105"/>
      <use x="853.259766" xlink:href="#DejaVuSans-111"/>
      <use x="914.441406" xlink:href="#DejaVuSans-110"/>
      <use x="977.820312" xlink:href="#DejaVuSans-32"/>
      <use x="1009.607422" xlink:href="#DejaVuSans-111"/>
      <use x="1070.789062" xlink:href="#DejaVuSans-102"/>
      <use x="1105.994141" xlink:href="#DejaVuSans-32"/>
      <use x="1137.78125" xlink:href="#DejaVuSans-65"/>
      <use x="1206.189453" xlink:href="#DejaVuSans-83"/>
      <use x="1269.666016" xlink:href="#DejaVuSans-43"/>
      <use x="1353.455078" xlink:href="#DejaVuSans-32"/>
      <use x="1385.242188" xlink:href="#DejaVuSans-99"/>
      <use x="1440.222656" xlink:href="#DejaVuSans-111"/>
      <use x="1501.404297" xlink:href="#DejaVuSans-109"/>
      <use x="1598.816406" xlink:href="#DejaVuSans-112"/>
      <use x="1662.292969" xlink:href="#DejaVuSans-97"/>
      <use x="1723.572266" xlink:href="#DejaVuSans-114"/>
      <use x="1762.435547" xlink:href="#DejaVuSans-101"/>
      <use x="1823.958984" xlink:href="#DejaVuSans-100"/>
      <use x="1887.435547" xlink:href="#DejaVuSans-32"/>
      <use x="1919.222656" xlink:href="#DejaVuSans-116"/>
      <use x="1958.431641" xlink:href="#DejaVuSans-111"/>
      <use x="2019.613281" xlink:href="#DejaVuSans-32"/>
      <use x="2051.400391" xlink:href="#DejaVuSans-65"/>
      <use x="2119.808594" xlink:href="#DejaVuSans-83"/>
      <use x="2183.285156" xlink:href="#DejaVuSans-45"/>
     </g>
    </g>
    <g id="patch_42">
     <path d="M 829.136719 134.956562 
L 849.136719 134.956562 
L 849.136719 127.956562 
L 829.136719 127.956562 
z
" style="fill:#0000ff;stroke:#0000ff;stroke-linejoin:miter;"/>
    </g>
    <g id="text_39">
     <!-- Decreased expression in AS+ -->
     <g transform="translate(857.136719 134.956562)scale(0.1 -0.1)">
      <use xlink:href="#DejaVuSans-68"/>
      <use x="77.001953" xlink:href="#DejaVuSans-101"/>
      <use x="138.525391" xlink:href="#DejaVuSans-99"/>
      <use x="193.505859" xlink:href="#DejaVuSans-114"/>
      <use x="232.369141" xlink:href="#DejaVuSans-101"/>
      <use x="293.892578" xlink:href="#DejaVuSans-97"/>
      <use x="355.171875" xlink:href="#DejaVuSans-115"/>
      <use x="407.271484" xlink:href="#DejaVuSans-101"/>
      <use x="468.794922" xlink:href="#DejaVuSans-100"/>
      <use x="532.271484" xlink:href="#DejaVuSans-32"/>
      <use x="564.058594" xlink:href="#DejaVuSans-101"/>
      <use x="623.832031" xlink:href="#DejaVuSans-120"/>
      <use x="683.011719" xlink:href="#DejaVuSans-112"/>
      <use x="746.488281" xlink:href="#DejaVuSans-114"/>
      <use x="785.351562" xlink:href="#DejaVuSans-101"/>
      <use x="846.875" xlink:href="#DejaVuSans-115"/>
      <use x="898.974609" xlink:href="#DejaVuSans-115"/>
      <use x="951.074219" xlink:href="#DejaVuSans-105"/>
      <use x="978.857422" xlink:href="#DejaVuSans-111"/>
      <use x="1040.039062" xlink:href="#DejaVuSans-110"/>
      <use x="1103.417969" xlink:href="#DejaVuSans-32"/>
      <use x="1135.205078" xlink:href="#DejaVuSans-105"/>
      <use x="1162.988281" xlink:href="#DejaVuSans-110"/>
      <use x="1226.367188" xlink:href="#DejaVuSans-32"/>
      <use x="1258.154297" xlink:href="#DejaVuSans-65"/>
      <use x="1326.5625" xlink:href="#DejaVuSans-83"/>
      <use x="1390.039062" xlink:href="#DejaVuSans-43"/>
     </g>
    </g>
    <g id="patch_43">
     <path d="M 829.136719 149.634687 
L 849.136719 149.634687 
L 849.136719 142.634687 
L 829.136719 142.634687 
z
" style="fill:#ff0000;stroke:#ff0000;stroke-linejoin:miter;"/>
    </g>
    <g id="text_40">
     <!-- Increased expression in AS+ -->
     <g transform="translate(857.136719 149.634687)scale(0.1 -0.1)">
      <use xlink:href="#DejaVuSans-73"/>
      <use x="29.492188" xlink:href="#DejaVuSans-110"/>
      <use x="92.871094" xlink:href="#DejaVuSans-99"/>
      <use x="147.851562" xlink:href="#DejaVuSans-114"/>
      <use x="186.714844" xlink:href="#DejaVuSans-101"/>
      <use x="248.238281" xlink:href="#DejaVuSans-97"/>
      <use x="309.517578" xlink:href="#DejaVuSans-115"/>
      <use x="361.617188" xlink:href="#DejaVuSans-101"/>
      <use x="423.140625" xlink:href="#DejaVuSans-100"/>
      <use x="486.617188" xlink:href="#DejaVuSans-32"/>
      <use x="518.404297" xlink:href="#DejaVuSans-101"/>
      <use x="578.177734" xlink:href="#DejaVuSans-120"/>
      <use x="637.357422" xlink:href="#DejaVuSans-112"/>
      <use x="700.833984" xlink:href="#DejaVuSans-114"/>
      <use x="739.697266" xlink:href="#DejaVuSans-101"/>
      <use x="801.220703" xlink:href="#DejaVuSans-115"/>
      <use x="853.320312" xlink:href="#DejaVuSans-115"/>
      <use x="905.419922" xlink:href="#DejaVuSans-105"/>
      <use x="933.203125" xlink:href="#DejaVuSans-111"/>
      <use x="994.384766" xlink:href="#DejaVuSans-110"/>
      <use x="1057.763672" xlink:href="#DejaVuSans-32"/>
      <use x="1089.550781" xlink:href="#DejaVuSans-105"/>
      <use x="1117.333984" xlink:href="#DejaVuSans-110"/>
      <use x="1180.712891" xlink:href="#DejaVuSans-32"/>
      <use x="1212.5" xlink:href="#DejaVuSans-65"/>
      <use x="1280.908203" xlink:href="#DejaVuSans-83"/>
      <use x="1344.384766" xlink:href="#DejaVuSans-43"/>
     </g>
    </g>
   </g>
  </g>
 </g>
 <defs>
  <clipPath id="p1d8f7ed2e2">
   <rect height="665.28" width="892.8" x="144" y="103.68"/>
  </clipPath>
 </defs>
</svg>
