<?xml version="1.0" encoding="utf-8" standalone="no"?>
<!DOCTYPE svg PUBLIC "-//W3C//DTD SVG 1.1//EN"
  "http://www.w3.org/Graphics/SVG/1.1/DTD/svg11.dtd">
<!-- Created with matplotlib (https://matplotlib.org/) -->
<svg height="864pt" version="1.1" viewBox="0 0 1152 864" width="1152pt" xmlns="http://www.w3.org/2000/svg" xmlns:xlink="http://www.w3.org/1999/xlink">
 <metadata>
  <rdf:RDF xmlns:cc="http://creativecommons.org/ns#" xmlns:dc="http://purl.org/dc/elements/1.1/" xmlns:rdf="http://www.w3.org/1999/02/22-rdf-syntax-ns#">
   <cc:Work>
    <dc:type rdf:resource="http://purl.org/dc/dcmitype/StillImage"/>
    <dc:date>2024-04-26T11:30:19.271869</dc:date>
    <dc:format>image/svg+xml</dc:format>
    <dc:creator>
     <cc:Agent>
      <dc:title>Matplotlib v3.3.1, https://matplotlib.org/</dc:title>
     </cc:Agent>
    </dc:creator>
   </cc:Work>
  </rdf:RDF>
 </metadata>
 <defs>
  <style type="text/css">*{stroke-linecap:butt;stroke-linejoin:round;}</style>
 </defs>
 <g id="figure_1">
  <g id="patch_1">
   <path d="M 0 864 
L 1152 864 
L 1152 0 
L 0 0 
z
" style="fill:#ffffff;"/>
  </g>
  <g id="axes_1">
   <g id="patch_2">
    <path clip-path="url(#p5fc6b0c7ee)" d="M 618.201648 496.128722 
Q 531.392474 409.47507 445.374578 323.611278 
" style="fill:none;stroke:#000000;stroke-linecap:round;"/>
    <path clip-path="url(#p5fc6b0c7ee)" d="M 446.792595 327.852649 
L 445.374578 323.611278 
L 449.618485 325.021687 
L 446.792595 327.852649 
z
" style="stroke:#000000;stroke-linecap:round;"/>
   </g>
   <g id="patch_3">
    <path clip-path="url(#p5fc6b0c7ee)" d="M 615.794049 503.743487 
Q 486.697665 526.334374 358.702579 548.732542 
" style="fill:none;stroke:#000000;stroke-linecap:round;"/>
    <path clip-path="url(#p5fc6b0c7ee)" d="M 362.987452 550.013113 
L 358.702579 548.732542 
L 362.29796 546.072986 
L 362.987452 550.013113 
z
" style="stroke:#000000;stroke-linecap:round;"/>
   </g>
   <g id="patch_4">
    <path clip-path="url(#p5fc6b0c7ee)" d="M 632.156756 505.973236 
Q 668.544112 523.293495 703.921962 540.133233 
" style="fill:none;stroke:#000000;stroke-linecap:round;"/>
    <path clip-path="url(#p5fc6b0c7ee)" d="M 701.16983 536.608212 
L 703.921962 540.133233 
L 699.450666 540.219926 
L 701.16983 536.608212 
z
" style="stroke:#000000;stroke-linecap:round;"/>
   </g>
   <g id="patch_5">
    <path clip-path="url(#p5fc6b0c7ee)" d="M 946.293385 462.052949 
Q 880.685489 501.580221 816.03525 540.530526 
" style="fill:none;stroke:#000000;stroke-linecap:round;"/>
    <path clip-path="url(#p5fc6b0c7ee)" d="M 820.493582 540.179416 
L 816.03525 540.530526 
L 818.429361 536.753195 
L 820.493582 540.179416 
z
" style="stroke:#000000;stroke-linecap:round;"/>
   </g>
   <g id="patch_6">
    <path clip-path="url(#p5fc6b0c7ee)" d="M 944.119097 454.66439 
Q 845.247065 457.675232 747.492549 460.652043 
" style="fill:none;stroke:#000000;stroke-linecap:round;"/>
    <path clip-path="url(#p5fc6b0c7ee)" d="M 751.551571 462.529366 
L 747.492549 460.652043 
L 751.42982 458.531219 
L 751.551571 462.529366 
z
" style="stroke:#000000;stroke-linecap:round;"/>
   </g>
   <g id="patch_7">
    <path clip-path="url(#p5fc6b0c7ee)" d="M 944.749909 449.830476 
Q 884.434483 431.743572 825.189976 413.977808 
" style="fill:none;stroke:#000000;stroke-linecap:round;"/>
    <path clip-path="url(#p5fc6b0c7ee)" d="M 828.446946 417.042469 
L 825.189976 413.977808 
L 829.595887 413.211029 
L 828.446946 417.042469 
z
" style="stroke:#000000;stroke-linecap:round;"/>
   </g>
   <g id="patch_8">
    <path clip-path="url(#p5fc6b0c7ee)" d="M 944.288914 451.85498 
Q 816.74201 431.95243 690.299773 412.222254 
" style="fill:none;stroke:#000000;stroke-linecap:round;"/>
    <path clip-path="url(#p5fc6b0c7ee)" d="M 693.943596 414.815042 
L 690.299773 412.222254 
L 694.560298 410.862868 
L 693.943596 414.815042 
z
" style="stroke:#000000;stroke-linecap:round;"/>
   </g>
   <g id="patch_9">
    <path clip-path="url(#p5fc6b0c7ee)" d="M 480.294091 203.358052 
Q 461.239635 257.852705 442.554199 311.291981 
" style="fill:none;stroke:#000000;stroke-linecap:round;"/>
    <path clip-path="url(#p5fc6b0c7ee)" d="M 445.762367 308.176269 
L 442.554199 311.291981 
L 441.98653 306.85602 
L 445.762367 308.176269 
z
" style="stroke:#000000;stroke-linecap:round;"/>
   </g>
   <g id="patch_10">
    <path clip-path="url(#p5fc6b0c7ee)" d="M 436.16842 323.325114 
Q 353.472004 428.488936 271.466684 532.773902 
" style="fill:none;stroke:#000000;stroke-linecap:round;"/>
    <path clip-path="url(#p5fc6b0c7ee)" d="M 275.511366 530.865881 
L 271.466684 532.773902 
L 272.367076 528.393343 
L 275.511366 530.865881 
z
" style="stroke:#000000;stroke-linecap:round;"/>
   </g>
   <g id="patch_11">
    <path clip-path="url(#p5fc6b0c7ee)" d="M 446.139539 316.406529 
Q 617.439163 261.73489 787.673683 207.403186 
" style="fill:none;stroke:#000000;stroke-linecap:round;"/>
    <path clip-path="url(#p5fc6b0c7ee)" d="M 783.25496 206.714065 
L 787.673683 207.403186 
L 784.471152 210.524692 
L 783.25496 206.714065 
z
" style="stroke:#000000;stroke-linecap:round;"/>
   </g>
   <g id="patch_12">
    <path clip-path="url(#p5fc6b0c7ee)" d="M 446.374286 317.446037 
Q 560.167928 301.310315 672.854609 285.331558 
" style="fill:none;stroke:#000000;stroke-linecap:round;"/>
    <path clip-path="url(#p5fc6b0c7ee)" d="M 668.613439 283.912942 
L 672.854609 285.331558 
L 669.175013 287.873325 
L 668.613439 283.912942 
z
" style="stroke:#000000;stroke-linecap:round;"/>
   </g>
   <g id="patch_13">
    <path clip-path="url(#p5fc6b0c7ee)" d="M 766.199406 457.141106 
Q 734.32747 581.124148 702.733894 704.024362 
" style="fill:none;stroke:#000000;stroke-linecap:round;"/>
    <path clip-path="url(#p5fc6b0c7ee)" d="M 705.666803 700.648263 
L 702.733894 704.024362 
L 701.79276 699.652375 
L 705.666803 700.648263 
z
" style="stroke:#000000;stroke-linecap:round;"/>
   </g>
   <g id="patch_14">
    <path clip-path="url(#p5fc6b0c7ee)" d="M 773.37041 455.292594 
Q 854.881131 541.854156 935.625386 627.601757 
" style="fill:none;stroke:#000000;stroke-linecap:round;"/>
    <path clip-path="url(#p5fc6b0c7ee)" d="M 934.339251 623.318551 
L 935.625386 627.601757 
L 931.42714 626.060741 
L 934.339251 623.318551 
z
" style="stroke:#000000;stroke-linecap:round;"/>
   </g>
   <g id="patch_15">
    <path clip-path="url(#p5fc6b0c7ee)" d="M 814.733361 194.890339 
Q 672.160894 264.93706 530.591892 334.490773 
" style="fill:none;stroke:#000000;stroke-linecap:round;"/>
    <path clip-path="url(#p5fc6b0c7ee)" d="M 535.063919 334.521985 
L 530.591892 334.490773 
L 533.300078 330.931879 
L 535.063919 334.521985 
z
" style="stroke:#000000;stroke-linecap:round;"/>
   </g>
   <g id="patch_16">
    <path clip-path="url(#p5fc6b0c7ee)" d="M 814.819914 195.055928 
Q 703.55577 253.624974 593.280963 311.673238 
" style="fill:none;stroke:#000000;stroke-linecap:round;"/>
    <path clip-path="url(#p5fc6b0c7ee)" d="M 597.752123 311.579806 
L 593.280963 311.673238 
L 595.888913 308.040251 
L 597.752123 311.579806 
z
" style="stroke:#000000;stroke-linecap:round;"/>
   </g>
   <g id="patch_17">
    <path clip-path="url(#p5fc6b0c7ee)" d="M 270.77304 533.655998 
Q 353.469713 428.49185 435.47529 324.206557 
" style="fill:none;stroke:#000000;stroke-linecap:round;"/>
    <path clip-path="url(#p5fc6b0c7ee)" d="M 431.430608 326.114578 
L 435.47529 324.206557 
L 434.574898 328.587116 
L 431.430608 326.114578 
z
" style="stroke:#000000;stroke-linecap:round;"/>
   </g>
   <g id="patch_18">
    <path clip-path="url(#p5fc6b0c7ee)" d="M 401.574632 443.776999 
Q 419.90122 384.090797 437.899638 325.47338 
" style="fill:none;stroke:#000000;stroke-linecap:round;"/>
    <path clip-path="url(#p5fc6b0c7ee)" d="M 434.813638 328.710139 
L 437.899638 325.47338 
L 438.637445 329.884235 
L 434.813638 328.710139 
z
" style="stroke:#000000;stroke-linecap:round;"/>
   </g>
   <g id="patch_19">
    <path clip-path="url(#p5fc6b0c7ee)" d="M 404.450658 445.590617 
Q 457.722858 396.645515 510.17176 348.456838 
" style="fill:none;stroke:#000000;stroke-linecap:round;"/>
    <path clip-path="url(#p5fc6b0c7ee)" d="M 505.873102 349.690346 
L 510.17176 348.456838 
L 508.579372 352.635869 
L 505.873102 349.690346 
z
" style="stroke:#000000;stroke-linecap:round;"/>
   </g>
   <g id="patch_20">
    <path clip-path="url(#p5fc6b0c7ee)" d="M 404.927129 446.183761 
Q 491.664421 383.496771 577.49556 321.464677 
" style="fill:none;stroke:#000000;stroke-linecap:round;"/>
    <path clip-path="url(#p5fc6b0c7ee)" d="M 573.082099 322.186731 
L 577.49556 321.464677 
L 575.425127 325.428678 
L 573.082099 322.186731 
z
" style="stroke:#000000;stroke-linecap:round;"/>
   </g>
   <g id="patch_21">
    <path clip-path="url(#p5fc6b0c7ee)" d="M 689.651992 442.801147 
Q 816.886541 448.179857 943.004054 453.511345 
" style="fill:none;stroke:#000000;stroke-linecap:round;"/>
    <path clip-path="url(#p5fc6b0c7ee)" d="M 939.092096 451.344185 
L 943.004054 453.511345 
L 938.923151 455.340615 
L 939.092096 451.344185 
z
" style="stroke:#000000;stroke-linecap:round;"/>
   </g>
   <g id="patch_22">
    <path clip-path="url(#p5fc6b0c7ee)" d="M 352.229191 542.355253 
Q 395.001018 433.301209 437.364619 325.288007 
" style="fill:none;stroke:#000000;stroke-linecap:round;"/>
    <path clip-path="url(#p5fc6b0c7ee)" d="M 434.042191 328.281579 
L 437.364619 325.288007 
L 437.76602 329.742093 
L 434.042191 328.281579 
z
" style="stroke:#000000;stroke-linecap:round;"/>
   </g>
   <g id="patch_23">
    <path clip-path="url(#p5fc6b0c7ee)" d="M 357.605696 548.924489 
Q 486.70208 526.333601 614.697166 503.935433 
" style="fill:none;stroke:#000000;stroke-linecap:round;"/>
    <path clip-path="url(#p5fc6b0c7ee)" d="M 610.412293 502.654862 
L 614.697166 503.935433 
L 611.101785 506.594989 
L 610.412293 502.654862 
z
" style="stroke:#000000;stroke-linecap:round;"/>
   </g>
   <g id="patch_24">
    <path clip-path="url(#p5fc6b0c7ee)" d="M 705.785535 539.279853 
Q 575.377795 430.837127 445.829699 323.109252 
" style="fill:none;stroke:#000000;stroke-linecap:round;"/>
    <path clip-path="url(#p5fc6b0c7ee)" d="M 447.62649 327.204559 
L 445.829699 323.109252 
L 450.18402 324.129003 
L 447.62649 327.204559 
z
" style="stroke:#000000;stroke-linecap:round;"/>
   </g>
   <g id="patch_25">
    <path clip-path="url(#p5fc6b0c7ee)" d="M 704.933139 540.61455 
Q 668.545312 523.294066 633.166989 506.454104 
" style="fill:none;stroke:#000000;stroke-linecap:round;"/>
    <path clip-path="url(#p5fc6b0c7ee)" d="M 635.919121 509.979124 
L 633.166989 506.454104 
L 637.638285 506.36741 
L 635.919121 509.979124 
z
" style="stroke:#000000;stroke-linecap:round;"/>
   </g>
   <g id="patch_26">
    <path clip-path="url(#p5fc6b0c7ee)" d="M 795.426342 544.452353 
Q 633.111233 510.689138 471.890729 477.153612 
" style="fill:none;stroke:#000000;stroke-linecap:round;"/>
    <path clip-path="url(#p5fc6b0c7ee)" d="M 475.399601 479.926304 
L 471.890729 477.153612 
L 476.214205 476.01013 
L 475.399601 479.926304 
z
" style="stroke:#000000;stroke-linecap:round;"/>
   </g>
   <g id="patch_27">
    <path clip-path="url(#p5fc6b0c7ee)" d="M 795.987855 542.602542 
Q 659.767486 487.260115 524.582931 432.338509 
" style="fill:none;stroke:#000000;stroke-linecap:round;"/>
    <path clip-path="url(#p5fc6b0c7ee)" d="M 527.535982 435.697005 
L 524.582931 432.338509 
L 529.041558 431.991166 
L 527.535982 435.697005 
z
" style="stroke:#000000;stroke-linecap:round;"/>
   </g>
   <g id="patch_28">
    <path clip-path="url(#p5fc6b0c7ee)" d="M 465.016218 469.329406 
Q 473.674738 336.549825 482.260505 204.885909 
" style="fill:none;stroke:#000000;stroke-linecap:round;"/>
    <path clip-path="url(#p5fc6b0c7ee)" d="M 480.004458 208.747289 
L 482.260505 204.885909 
L 483.99598 209.007575 
L 480.004458 208.747289 
z
" style="stroke:#000000;stroke-linecap:round;"/>
   </g>
   <g id="patch_29">
    <path clip-path="url(#p5fc6b0c7ee)" d="M 458.590822 477.577333 
Q 365.958374 507.447354 274.390006 536.974255 
" style="fill:none;stroke:#000000;stroke-linecap:round;"/>
    <path clip-path="url(#p5fc6b0c7ee)" d="M 278.810771 537.650154 
L 274.390006 536.974255 
L 277.583185 533.843183 
L 278.810771 537.650154 
z
" style="stroke:#000000;stroke-linecap:round;"/>
   </g>
   <g id="patch_30">
    <path clip-path="url(#p5fc6b0c7ee)" d="M 466.973224 469.772719 
Q 491.042611 410.1646 514.693383 351.593188 
" style="fill:none;stroke:#000000;stroke-linecap:round;"/>
    <path clip-path="url(#p5fc6b0c7ee)" d="M 511.34118 354.55338 
L 514.693383 351.593188 
L 515.050215 356.051066 
L 511.34118 354.55338 
z
" style="stroke:#000000;stroke-linecap:round;"/>
   </g>
   <g id="patch_31">
    <path clip-path="url(#p5fc6b0c7ee)" d="M 468.410841 470.593636 
Q 524.260147 396.571694 579.436067 323.44225 
" style="fill:none;stroke:#000000;stroke-linecap:round;"/>
    <path clip-path="url(#p5fc6b0c7ee)" d="M 575.43034 325.430755 
L 579.436067 323.44225 
L 578.623435 327.839935 
L 575.43034 325.430755 
z
" style="stroke:#000000;stroke-linecap:round;"/>
   </g>
   <g id="patch_32">
    <path clip-path="url(#p5fc6b0c7ee)" d="M 514.366777 420.147582 
Q 499.136525 311.931362 484.062089 204.822265 
" style="fill:none;stroke:#000000;stroke-linecap:round;"/>
    <path clip-path="url(#p5fc6b0c7ee)" d="M 482.639069 209.06196 
L 484.062089 204.822265 
L 486.600033 208.504498 
L 482.639069 209.06196 
z
" style="stroke:#000000;stroke-linecap:round;"/>
   </g>
   <g id="patch_33">
    <path clip-path="url(#p5fc6b0c7ee)" d="M 507.697212 432.176161 
Q 390.366587 484.366056 274.057497 536.101561 
" style="fill:none;stroke:#000000;stroke-linecap:round;"/>
    <path clip-path="url(#p5fc6b0c7ee)" d="M 278.525082 536.303265 
L 274.057497 536.101561 
L 276.899411 532.648516 
L 278.525082 536.303265 
z
" style="stroke:#000000;stroke-linecap:round;"/>
   </g>
   <g id="patch_34">
    <path clip-path="url(#p5fc6b0c7ee)" d="M 515.936309 420.072926 
Q 517.410898 385.723799 518.837534 352.491677 
" style="fill:none;stroke:#000000;stroke-linecap:round;"/>
    <path clip-path="url(#p5fc6b0c7ee)" d="M 516.667815 356.402216 
L 518.837534 352.491677 
L 520.664134 356.573776 
L 516.667815 356.402216 
z
" style="stroke:#000000;stroke-linecap:round;"/>
   </g>
   <g id="patch_35">
    <path clip-path="url(#p5fc6b0c7ee)" d="M 520.085331 421.348545 
Q 550.415021 372.16506 580.157869 323.933215 
" style="fill:none;stroke:#000000;stroke-linecap:round;"/>
    <path clip-path="url(#p5fc6b0c7ee)" d="M 576.355977 326.288128 
L 580.157869 323.933215 
L 579.760664 328.387677 
L 576.355977 326.288128 
z
" style="stroke:#000000;stroke-linecap:round;"/>
   </g>
   <g id="patch_36">
    <path clip-path="url(#p5fc6b0c7ee)" d="M 516.573654 328.97475 
Q 500.650488 266.263456 485.002473 204.63581 
" style="fill:none;stroke:#000000;stroke-linecap:round;"/>
    <path clip-path="url(#p5fc6b0c7ee)" d="M 484.048397 209.00499 
L 485.002473 204.63581 
L 487.925372 208.020579 
L 484.048397 209.00499 
z
" style="stroke:#000000;stroke-linecap:round;"/>
   </g>
   <g id="patch_37">
    <path clip-path="url(#p5fc6b0c7ee)" d="M 510.432945 347.049116 
Q 391.244487 440.98914 272.934114 534.237089 
" style="fill:none;stroke:#000000;stroke-linecap:round;"/>
    <path clip-path="url(#p5fc6b0c7ee)" d="M 277.313666 533.331813 
L 272.934114 534.237089 
L 274.837625 530.190282 
L 277.313666 533.331813 
z
" style="stroke:#000000;stroke-linecap:round;"/>
   </g>
   <g id="patch_38">
    <path clip-path="url(#p5fc6b0c7ee)" d="M 527.664877 332.211312 
Q 616.22461 248.993809 703.969581 166.541919 
" style="fill:none;stroke:#000000;stroke-linecap:round;"/>
    <path clip-path="url(#p5fc6b0c7ee)" d="M 699.68503 167.823568 
L 703.969581 166.541919 
L 702.424169 170.738549 
L 699.68503 167.823568 
z
" style="stroke:#000000;stroke-linecap:round;"/>
   </g>
   <g id="patch_39">
    <path clip-path="url(#p5fc6b0c7ee)" d="M 529.591033 334.99912 
Q 659.336866 271.465244 788.078588 208.423061 
" style="fill:none;stroke:#000000;stroke-linecap:round;"/>
    <path clip-path="url(#p5fc6b0c7ee)" d="M 783.606606 208.385985 
L 788.078588 208.423061 
L 785.365738 211.978401 
L 783.606606 208.385985 
z
" style="stroke:#000000;stroke-linecap:round;"/>
   </g>
   <g id="patch_40">
    <path clip-path="url(#p5fc6b0c7ee)" d="M 530.134863 336.293677 
Q 602.218522 311.451194 673.245159 286.972997 
" style="fill:none;stroke:#000000;stroke-linecap:round;"/>
    <path clip-path="url(#p5fc6b0c7ee)" d="M 668.811787 286.385447 
L 673.245159 286.972997 
L 670.115095 290.167164 
L 668.811787 286.385447 
z
" style="stroke:#000000;stroke-linecap:round;"/>
   </g>
   <g id="patch_41">
    <path clip-path="url(#p5fc6b0c7ee)" d="M 517.93359 328.713809 
Q 511.682668 279.71477 505.57323 231.824777 
" style="fill:none;stroke:#000000;stroke-linecap:round;"/>
    <path clip-path="url(#p5fc6b0c7ee)" d="M 504.095495 236.045713 
L 505.57323 231.824777 
L 508.063338 235.539526 
L 504.095495 236.045713 
z
" style="stroke:#000000;stroke-linecap:round;"/>
   </g>
   <g id="patch_42">
    <path clip-path="url(#p5fc6b0c7ee)" d="M 579.732491 309.776754 
Q 533.77746 255.862078 488.547691 202.798282 
" style="fill:none;stroke:#000000;stroke-linecap:round;"/>
    <path clip-path="url(#p5fc6b0c7ee)" d="M 489.620363 207.139868 
L 488.547691 202.798282 
L 492.664563 204.545096 
L 489.620363 207.139868 
z
" style="stroke:#000000;stroke-linecap:round;"/>
   </g>
   <g id="patch_43">
    <path clip-path="url(#p5fc6b0c7ee)" d="M 578.334693 320.713282 
Q 425.321129 427.994492 273.223011 534.633863 
" style="fill:none;stroke:#000000;stroke-linecap:round;"/>
    <path clip-path="url(#p5fc6b0c7ee)" d="M 277.646368 533.975147 
L 273.223011 534.633863 
L 275.350053 530.699947 
L 277.646368 533.975147 
z
" style="stroke:#000000;stroke-linecap:round;"/>
   </g>
   <g id="patch_44">
    <path clip-path="url(#p5fc6b0c7ee)" d="M 590.182339 309.623114 
Q 647.807357 238.001312 704.731518 167.250601 
" style="fill:none;stroke:#000000;stroke-linecap:round;"/>
    <path clip-path="url(#p5fc6b0c7ee)" d="M 700.665801 169.11338 
L 704.731518 167.250601 
L 703.782311 171.620842 
L 700.665801 169.11338 
z
" style="stroke:#000000;stroke-linecap:round;"/>
   </g>
   <g id="patch_45">
    <path clip-path="url(#p5fc6b0c7ee)" d="M 592.28812 312.179914 
Q 690.732787 260.142191 788.189017 208.626955 
" style="fill:none;stroke:#000000;stroke-linecap:round;"/>
    <path clip-path="url(#p5fc6b0c7ee)" d="M 783.718024 208.72809 
L 788.189017 208.626955 
L 785.587329 212.26443 
L 783.718024 208.72809 
z
" style="stroke:#000000;stroke-linecap:round;"/>
   </g>
   <g id="patch_46">
    <path clip-path="url(#p5fc6b0c7ee)" d="M 592.821567 313.438249 
Q 633.545907 299.977253 673.208701 286.867139 
" style="fill:none;stroke:#000000;stroke-linecap:round;"/>
    <path clip-path="url(#p5fc6b0c7ee)" d="M 668.783118 286.223544 
L 673.208701 286.867139 
L 670.038475 290.021448 
L 668.783118 286.223544 
z
" style="stroke:#000000;stroke-linecap:round;"/>
   </g>
   <g id="patch_47">
    <path clip-path="url(#p5fc6b0c7ee)" d="M 579.638353 309.852931 
Q 544.221437 269.52421 509.542276 230.035559 
" style="fill:none;stroke:#000000;stroke-linecap:round;"/>
    <path clip-path="url(#p5fc6b0c7ee)" d="M 510.678983 234.360821 
L 509.542276 230.035559 
L 513.68451 231.72135 
L 510.678983 234.360821 
z
" style="stroke:#000000;stroke-linecap:round;"/>
   </g>
   <g id="patch_48">
    <path clip-path="url(#p5fc6b0c7ee)" d="M 739.413741 454.586244 
Q 724.746468 311.172525 710.192947 168.871039 
" style="fill:none;stroke:#000000;stroke-linecap:round;"/>
    <path clip-path="url(#p5fc6b0c7ee)" d="M 708.610292 173.053766 
L 710.192947 168.871039 
L 712.589535 172.646799 
L 708.610292 173.053766 
z
" style="stroke:#000000;stroke-linecap:round;"/>
   </g>
   <g id="patch_49">
    <path clip-path="url(#p5fc6b0c7ee)" d="M 739.079907 467.12424 
Q 720.469577 586.053467 702.032096 703.878103 
" style="fill:none;stroke:#000000;stroke-linecap:round;"/>
    <path clip-path="url(#p5fc6b0c7ee)" d="M 704.626454 700.235397 
L 702.032096 703.878103 
L 700.674546 699.616993 
L 704.626454 700.235397 
z
" style="stroke:#000000;stroke-linecap:round;"/>
   </g>
   <g id="patch_50">
    <path clip-path="url(#p5fc6b0c7ee)" d="M 744.855341 464.994403 
Q 840.391891 546.948606 935.079856 628.174867 
" style="fill:none;stroke:#000000;stroke-linecap:round;"/>
    <path clip-path="url(#p5fc6b0c7ee)" d="M 933.346046 624.0525 
L 935.079856 628.174867 
L 930.741677 627.088494 
L 933.346046 624.0525 
z
" style="stroke:#000000;stroke-linecap:round;"/>
   </g>
   <g id="patch_51">
    <path clip-path="url(#p5fc6b0c7ee)" d="M 735.597408 456.399496 
Q 622.343613 342.660334 509.878695 229.713431 
" style="fill:none;stroke:#000000;stroke-linecap:round;"/>
    <path clip-path="url(#p5fc6b0c7ee)" d="M 511.283834 233.959086 
L 509.878695 229.713431 
L 514.118302 231.136713 
L 511.283834 233.959086 
z
" style="stroke:#000000;stroke-linecap:round;"/>
   </g>
   <g id="patch_52">
    <path clip-path="url(#p5fc6b0c7ee)" d="M 815.546106 406.043094 
Q 763.756689 286.651643 712.412196 168.285884 
" style="fill:none;stroke:#000000;stroke-linecap:round;"/>
    <path clip-path="url(#p5fc6b0c7ee)" d="M 712.169187 172.751413 
L 712.412196 168.285884 
L 715.838813 171.159609 
L 712.169187 172.751413 
z
" style="stroke:#000000;stroke-linecap:round;"/>
   </g>
   <g id="patch_53">
    <path clip-path="url(#p5fc6b0c7ee)" d="M 815.755902 417.72848 
Q 759.471341 561.534196 703.594271 704.298781 
" style="fill:none;stroke:#000000;stroke-linecap:round;"/>
    <path clip-path="url(#p5fc6b0c7ee)" d="M 706.914585 701.302864 
L 703.594271 704.298781 
L 703.189726 699.84498 
L 706.914585 701.302864 
z
" style="stroke:#000000;stroke-linecap:round;"/>
   </g>
   <g id="patch_54">
    <path clip-path="url(#p5fc6b0c7ee)" d="M 821.128384 417.371392 
Q 879.393044 522.428909 937.115454 626.508692 
" style="fill:none;stroke:#000000;stroke-linecap:round;"/>
    <path clip-path="url(#p5fc6b0c7ee)" d="M 936.924468 622.040636 
L 937.115454 626.508692 
L 933.426417 623.980647 
L 936.924468 622.040636 
z
" style="stroke:#000000;stroke-linecap:round;"/>
   </g>
   <g id="patch_55">
    <path clip-path="url(#p5fc6b0c7ee)" d="M 812.634844 408.59589 
Q 661.346172 318.141921 511.017098 228.261686 
" style="fill:none;stroke:#000000;stroke-linecap:round;"/>
    <path clip-path="url(#p5fc6b0c7ee)" d="M 513.423935 232.030922 
L 511.017098 228.261686 
L 515.476589 228.597758 
L 513.423935 232.030922 
z
" style="stroke:#000000;stroke-linecap:round;"/>
   </g>
   <g id="patch_56">
    <path clip-path="url(#p5fc6b0c7ee)" d="M 682.500853 403.294903 
Q 695.612654 285.521507 708.600748 168.859279 
" style="fill:none;stroke:#000000;stroke-linecap:round;"/>
    <path clip-path="url(#p5fc6b0c7ee)" d="M 706.17044 172.613424 
L 708.600748 168.859279 
L 710.145879 173.056013 
L 706.17044 172.613424 
z
" style="stroke:#000000;stroke-linecap:round;"/>
   </g>
   <g id="patch_57">
    <path clip-path="url(#p5fc6b0c7ee)" d="M 682.144353 418.486106 
Q 691.311079 561.701731 700.406389 703.801606 
" style="fill:none;stroke:#000000;stroke-linecap:round;"/>
    <path clip-path="url(#p5fc6b0c7ee)" d="M 702.146802 699.682023 
L 700.406389 703.801606 
L 698.15497 699.937526 
L 702.146802 699.682023 
z
" style="stroke:#000000;stroke-linecap:round;"/>
   </g>
   <g id="patch_58">
    <path clip-path="url(#p5fc6b0c7ee)" d="M 687.446374 415.837786 
Q 811.68684 522.370668 935.078569 628.175782 
" style="fill:none;stroke:#000000;stroke-linecap:round;"/>
    <path clip-path="url(#p5fc6b0c7ee)" d="M 933.343911 624.053773 
L 935.078569 628.175782 
L 930.740167 627.090304 
L 933.343911 624.053773 
z
" style="stroke:#000000;stroke-linecap:round;"/>
   </g>
   <g id="patch_59">
    <path clip-path="url(#p5fc6b0c7ee)" d="M 676.408685 405.346406 
Q 592.69699 317.187616 509.755151 229.839581 
" style="fill:none;stroke:#000000;stroke-linecap:round;"/>
    <path clip-path="url(#p5fc6b0c7ee)" d="M 511.059151 234.117382 
L 509.755151 229.839581 
L 513.959792 231.363062 
L 511.059151 234.117382 
z
" style="stroke:#000000;stroke-linecap:round;"/>
   </g>
   <g id="patch_60">
    <path clip-path="url(#p5fc6b0c7ee)" d="M 673.956261 285.175346 
Q 560.165623 301.310642 447.481945 317.288973 
" style="fill:none;stroke:#000000;stroke-linecap:round;"/>
    <path clip-path="url(#p5fc6b0c7ee)" d="M 451.723116 318.70759 
L 447.481945 317.288973 
L 451.161541 314.747207 
L 451.723116 318.70759 
z
" style="stroke:#000000;stroke-linecap:round;"/>
   </g>
   <g id="patch_61">
    <path clip-path="url(#p5fc6b0c7ee)" d="M 674.305311 286.607632 
Q 602.218942 311.451049 531.189594 335.93018 
" style="fill:none;stroke:#000000;stroke-linecap:round;"/>
    <path clip-path="url(#p5fc6b0c7ee)" d="M 535.622966 336.517731 
L 531.189594 335.93018 
L 534.319657 332.736013 
L 535.622966 336.517731 
z
" style="stroke:#000000;stroke-linecap:round;"/>
   </g>
   <g id="patch_62">
    <path clip-path="url(#p5fc6b0c7ee)" d="M 674.269742 286.516423 
Q 633.546852 299.97694 593.885509 313.086575 
" style="fill:none;stroke:#000000;stroke-linecap:round;"/>
    <path clip-path="url(#p5fc6b0c7ee)" d="M 598.311092 313.73017 
L 593.885509 313.086575 
L 597.055735 309.932266 
L 598.311092 313.73017 
z
" style="stroke:#000000;stroke-linecap:round;"/>
   </g>
   <g id="patch_63">
    <path clip-path="url(#p5fc6b0c7ee)" d="M 540.554864 550.990712 
Q 650.827485 501.908898 760.07868 453.281714 
" style="fill:none;stroke:#000000;stroke-linecap:round;"/>
    <path clip-path="url(#p5fc6b0c7ee)" d="M 755.611047 453.081072 
L 760.07868 453.281714 
L 757.237586 456.735435 
L 755.611047 453.081072 
z
" style="stroke:#000000;stroke-linecap:round;"/>
   </g>
   <g id="patch_64">
    <path clip-path="url(#p5fc6b0c7ee)" d="M 522.313046 547.519585 
Q 444.113031 467.813056 366.696008 388.904604 
" style="fill:none;stroke:#000000;stroke-linecap:round;"/>
    <path clip-path="url(#p5fc6b0c7ee)" d="M 368.069682 393.160543 
L 366.696008 388.904604 
L 370.924964 390.359228 
L 368.069682 393.160543 
z
" style="stroke:#000000;stroke-linecap:round;"/>
   </g>
   <g id="patch_65">
    <path clip-path="url(#p5fc6b0c7ee)" d="M 402.142996 566.024996 
Q 315.443508 508.667362 229.676469 451.926607 
" style="fill:none;stroke:#000000;stroke-linecap:round;"/>
    <path clip-path="url(#p5fc6b0c7ee)" d="M 231.908994 455.801634 
L 229.676469 451.926607 
L 234.116005 452.465604 
L 231.908994 455.801634 
z
" style="stroke:#000000;stroke-linecap:round;"/>
   </g>
   <g id="patch_66">
    <path clip-path="url(#p5fc6b0c7ee)" d="M 411.666748 561.808184 
Q 433.725843 417.847702 455.615598 274.992356 
" style="fill:none;stroke:#000000;stroke-linecap:round;"/>
    <path clip-path="url(#p5fc6b0c7ee)" d="M 453.032822 278.643283 
L 455.615598 274.992356 
L 456.986674 279.249132 
L 453.032822 278.643283 
z
" style="stroke:#000000;stroke-linecap:round;"/>
   </g>
   <g id="patch_67">
    <path clip-path="url(#p5fc6b0c7ee)" d="M 228.3985 441.199584 
Q 339.601044 356.068139 449.915832 271.616319 
" style="fill:none;stroke:#000000;stroke-linecap:round;"/>
    <path clip-path="url(#p5fc6b0c7ee)" d="M 445.52395 272.459751 
L 449.915832 271.616319 
L 447.955448 275.635883 
L 445.52395 272.459751 
z
" style="stroke:#000000;stroke-linecap:round;"/>
   </g>
   <g id="patch_68">
    <path clip-path="url(#p5fc6b0c7ee)" d="M 367.348661 385.330854 
Q 563.939735 416.910037 759.426925 448.311898 
" style="fill:none;stroke:#000000;stroke-linecap:round;"/>
    <path clip-path="url(#p5fc6b0c7ee)" d="M 755.794756 445.70281 
L 759.426925 448.311898 
L 755.160353 449.652181 
L 755.794756 445.70281 
z
" style="stroke:#000000;stroke-linecap:round;"/>
   </g>
   <g id="patch_69">
    <path clip-path="url(#p5fc6b0c7ee)" d="M 363.650746 389.381063 
Q 385.729134 475.686341 407.530432 560.908465 
" style="fill:none;stroke:#000000;stroke-linecap:round;"/>
    <path clip-path="url(#p5fc6b0c7ee)" d="M 408.476691 556.537585 
L 407.530432 560.908465 
L 404.601483 557.52893 
L 408.476691 556.537585 
z
" style="stroke:#000000;stroke-linecap:round;"/>
   </g>
   <g id="patch_70">
    <path clip-path="url(#p5fc6b0c7ee)" d="M 464.555697 264.672997 
Q 639.369033 228.974155 813.086942 193.499011 
" style="fill:none;stroke:#000000;stroke-linecap:round;"/>
    <path clip-path="url(#p5fc6b0c7ee)" d="M 808.767661 192.339781 
L 813.086942 193.499011 
L 809.567989 196.258897 
L 808.767661 192.339781 
z
" style="stroke:#000000;stroke-linecap:round;"/>
   </g>
   <g id="PathCollection_1">
    <path clip-path="url(#p5fc6b0c7ee)" d="M 624.333124 510.914188 
C 626.631102 510.914188 628.83527 510.001191 630.460186 508.376275 
C 632.085102 506.75136 632.998098 504.547191 632.998098 502.249213 
C 632.998098 499.951235 632.085102 497.747067 630.460186 496.122152 
C 628.83527 494.497236 626.631102 493.584239 624.333124 493.584239 
C 622.035146 493.584239 619.830978 494.497236 618.206062 496.122152 
C 616.581146 497.747067 615.66815 499.951235 615.66815 502.249213 
C 615.66815 504.547191 616.581146 506.75136 618.206062 508.376275 
C 619.830978 510.001191 622.035146 510.914188 624.333124 510.914188 
z
" style="fill:#b9d0f9;stroke:#b9d0f9;"/>
    <path clip-path="url(#p5fc6b0c7ee)" d="M 959.32562 469.416293 
C 963.360677 469.416293 967.231012 467.813148 970.084229 464.959931 
C 972.937445 462.106715 974.54059 458.23638 974.54059 454.201323 
C 974.54059 450.166265 972.937445 446.29593 970.084229 443.442714 
C 967.231012 440.589497 963.360677 438.986352 959.32562 438.986352 
C 955.290562 438.986352 951.420227 440.589497 948.567011 443.442714 
C 945.713795 446.29593 944.110649 450.166265 944.110649 454.201323 
C 944.110649 458.23638 945.713795 462.106715 948.567011 464.959931 
C 951.420227 467.813148 955.290562 469.416293 959.32562 469.416293 
z
" style="fill:#e3d9d3;stroke:#e3d9d3;"/>
    <path clip-path="url(#p5fc6b0c7ee)" d="M 482.833778 203.786931 
C 484.873784 203.786931 486.830511 202.976428 488.273013 201.533926 
C 489.715516 200.091424 490.526018 198.134697 490.526018 196.094691 
C 490.526018 194.054685 489.715516 192.097958 488.273013 190.655456 
C 486.830511 189.212953 484.873784 188.402451 482.833778 188.402451 
C 480.793772 188.402451 478.837045 189.212953 477.394543 190.655456 
C 475.952041 192.097958 475.141538 194.054685 475.141538 196.094691 
C 475.141538 198.134697 475.952041 200.091424 477.394543 201.533926 
C 478.837045 202.976428 480.793772 203.786931 482.833778 203.786931 
z
" style="fill:#b7cff9;stroke:#b7cff9;"/>
    <path clip-path="url(#p5fc6b0c7ee)" d="M 440.090851 324.683699 
C 441.774011 324.683699 443.388459 324.014972 444.578633 322.824799 
C 445.768806 321.634625 446.437533 320.020176 446.437533 318.337017 
C 446.437533 316.653857 445.768806 315.039408 444.578633 313.849235 
C 443.388459 312.659061 441.774011 311.990334 440.090851 311.990334 
C 438.407691 311.990334 436.793243 312.659061 435.603069 313.849235 
C 434.412895 315.039408 433.744169 316.653857 433.744169 318.337017 
C 433.744169 320.020176 434.412895 321.634625 435.603069 322.824799 
C 436.793243 324.014972 438.407691 324.683699 440.090851 324.683699 
z
" style="fill:#94b6ff;stroke:#94b6ff;"/>
    <path clip-path="url(#p5fc6b0c7ee)" d="M 768.110525 457.383056 
C 770.146298 457.383056 772.098964 456.574235 773.538473 455.134726 
C 774.977981 453.695218 775.786802 451.742551 775.786802 449.706779 
C 775.786802 447.671006 774.977981 445.718339 773.538473 444.278831 
C 772.098964 442.839322 770.146298 442.030501 768.110525 442.030501 
C 766.074753 442.030501 764.122086 442.839322 762.682577 444.278831 
C 761.243069 445.718339 760.434248 447.671006 760.434248 449.706779 
C 760.434248 451.742551 761.243069 453.695218 762.682577 455.134726 
C 764.122086 456.574235 766.074753 457.383056 768.110525 457.383056 
z
" style="fill:#d8dce2;stroke:#d8dce2;"/>
    <path clip-path="url(#p5fc6b0c7ee)" d="M 820.750692 198.637837 
C 822.528573 198.637837 824.233877 197.931477 825.491029 196.674325 
C 826.748181 195.417173 827.454541 193.711869 827.454541 191.933988 
C 827.454541 190.156106 826.748181 188.450803 825.491029 187.193651 
C 824.233877 185.936499 822.528573 185.230139 820.750692 185.230139 
C 818.97281 185.230139 817.267507 185.936499 816.010355 187.193651 
C 814.753203 188.450803 814.046843 190.156106 814.046843 191.933988 
C 814.046843 193.711869 814.753203 195.417173 816.010355 196.674325 
C 817.267507 197.931477 818.97281 198.637837 820.750692 198.637837 
z
" style="fill:#efcfbf;stroke:#efcfbf;"/>
    <path clip-path="url(#p5fc6b0c7ee)" d="M 709.429981 167.78789 
C 711.121176 167.78789 712.743332 167.115971 713.939187 165.920116 
C 715.135043 164.72426 715.806962 163.102104 715.806962 161.410909 
C 715.806962 159.719714 715.135043 158.097558 713.939187 156.901703 
C 712.743332 155.705847 711.121176 155.033928 709.429981 155.033928 
C 707.738786 155.033928 706.11663 155.705847 704.920774 156.901703 
C 703.724919 158.097558 703.053 159.719714 703.053 161.410909 
C 703.053 163.102104 703.724919 164.72426 704.920774 165.920116 
C 706.11663 167.115971 707.738786 167.78789 709.429981 167.78789 
z
" style="fill:#d4dbe6;stroke:#d4dbe6;"/>
    <path clip-path="url(#p5fc6b0c7ee)" d="M 266.048595 547.310548 
C 268.076483 547.310548 270.021586 546.50486 271.455518 545.070928 
C 272.889451 543.636995 273.695139 541.691892 273.695139 539.664005 
C 273.695139 537.636118 272.889451 535.691015 271.455518 534.257082 
C 270.021586 532.823149 268.076483 532.017461 266.048595 532.017461 
C 264.020708 532.017461 262.075605 532.823149 260.641673 534.257082 
C 259.20774 535.691015 258.402052 537.636118 258.402052 539.664005 
C 258.402052 541.691892 259.20774 543.636995 260.641673 545.070928 
C 262.075605 546.50486 264.020708 547.310548 266.048595 547.310548 
z
" style="fill:#f4c6af;stroke:#f4c6af;"/>
    <path clip-path="url(#p5fc6b0c7ee)" d="M 794.817344 211.505705 
C 796.509996 211.505705 798.133549 210.833207 799.330435 209.636321 
C 800.527321 208.439435 801.199818 206.815882 801.199818 205.12323 
C 801.199818 203.430578 800.527321 201.807025 799.330435 200.610139 
C 798.133549 199.413253 796.509996 198.740756 794.817344 198.740756 
C 793.124692 198.740756 791.501139 199.413253 790.304253 200.610139 
C 789.107367 201.807025 788.434869 203.430578 788.434869 205.12323 
C 788.434869 206.815882 789.107367 208.439435 790.304253 209.636321 
C 791.501139 210.833207 793.124692 211.505705 794.817344 211.505705 
z
" style="fill:#a9c6fd;stroke:#a9c6fd;"/>
    <path clip-path="url(#p5fc6b0c7ee)" d="M 399.668743 456.475482 
C 401.390274 456.475482 403.041527 455.791511 404.258833 454.574205 
C 405.476139 453.356899 406.160111 451.705646 406.160111 449.984115 
C 406.160111 448.262584 405.476139 446.611331 404.258833 445.394025 
C 403.041527 444.176719 401.390274 443.492748 399.668743 443.492748 
C 397.947212 443.492748 396.295959 444.176719 395.078653 445.394025 
C 393.861347 446.611331 393.177376 448.262584 393.177376 449.984115 
C 393.177376 451.705646 393.861347 453.356899 395.078653 454.574205 
C 396.295959 455.791511 397.947212 456.475482 399.668743 456.475482 
z
" style="fill:#e6d7cf;stroke:#e6d7cf;"/>
    <path clip-path="url(#p5fc6b0c7ee)" d="M 673.852896 457.944644 
C 678.046125 457.944644 682.068175 456.278657 685.033236 453.313596 
C 687.998297 450.348535 689.664284 446.326485 689.664284 442.133256 
C 689.664284 437.940027 687.998297 433.917977 685.033236 430.952916 
C 682.068175 427.987855 678.046125 426.321868 673.852896 426.321868 
C 669.659667 426.321868 665.637617 427.987855 662.672556 430.952916 
C 659.707495 433.917977 658.041508 437.940027 658.041508 442.133256 
C 658.041508 446.326485 659.707495 450.348535 662.672556 453.313596 
C 665.637617 456.278657 669.659667 457.944644 673.852896 457.944644 
z
" style="fill:#4f69d9;stroke:#4f69d9;"/>
    <path clip-path="url(#p5fc6b0c7ee)" d="M 349.066621 559.083736 
C 351.364599 559.083736 353.568767 558.17074 355.193683 556.545824 
C 356.818599 554.920908 357.731595 552.71674 357.731595 550.418762 
C 357.731595 548.120784 356.818599 545.916616 355.193683 544.2917 
C 353.568767 542.666784 351.364599 541.753788 349.066621 541.753788 
C 346.768643 541.753788 344.564475 542.666784 342.939559 544.2917 
C 341.314644 545.916616 340.401647 548.120784 340.401647 550.418762 
C 340.401647 552.71674 341.314644 554.920908 342.939559 556.545824 
C 344.564475 558.17074 346.768643 559.083736 349.066621 559.083736 
z
" style="fill:#d4dbe6;stroke:#d4dbe6;"/>
    <path clip-path="url(#p5fc6b0c7ee)" d="M 710.680307 549.716162 
C 712.368585 549.716162 713.987942 549.045402 715.181735 547.85161 
C 716.375527 546.657817 717.046287 545.03846 717.046287 543.350182 
C 717.046287 541.661905 716.375527 540.042547 715.181735 538.848755 
C 713.987942 537.654962 712.368585 536.984202 710.680307 536.984202 
C 708.992029 536.984202 707.372672 537.654962 706.178879 538.848755 
C 704.985087 540.042547 704.314327 541.661905 704.314327 543.350182 
C 704.314327 545.03846 704.985087 546.657817 706.178879 547.85161 
C 707.372672 549.045402 708.992029 549.716162 710.680307 549.716162 
z
" style="fill:#cfdaea;stroke:#cfdaea;"/>
    <path clip-path="url(#p5fc6b0c7ee)" d="M 805.907161 557.33665 
C 808.745942 557.33665 811.468836 556.20879 813.476158 554.201468 
C 815.483479 552.194147 816.611339 549.471252 816.611339 546.632471 
C 816.611339 543.79369 815.483479 541.070795 813.476158 539.063474 
C 811.468836 537.056152 808.745942 535.928292 805.907161 535.928292 
C 803.068379 535.928292 800.345485 537.056152 798.338163 539.063474 
C 796.330842 541.070795 795.202982 543.79369 795.202982 546.632471 
C 795.202982 549.471252 796.330842 552.194147 798.338163 554.201468 
C 800.345485 556.20879 803.068379 557.33665 805.907161 557.33665 
z
" style="fill:#b7cff9;stroke:#b7cff9;"/>
    <path clip-path="url(#p5fc6b0c7ee)" d="M 464.604832 481.959855 
C 466.281389 481.959855 467.889504 481.293752 469.075008 480.108247 
C 470.260513 478.922742 470.926616 477.314627 470.926616 475.638071 
C 470.926616 473.961514 470.260513 472.353399 469.075008 471.167894 
C 467.889504 469.98239 466.281389 469.316287 464.604832 469.316287 
C 462.928275 469.316287 461.32016 469.98239 460.134655 471.167894 
C 458.949151 472.353399 458.283048 473.961514 458.283048 475.638071 
C 458.283048 477.314627 458.949151 478.922742 460.134655 480.108247 
C 461.32016 481.293752 462.928275 481.959855 464.604832 481.959855 
z
" style="fill:#f7bca1;stroke:#f7bca1;"/>
    <path clip-path="url(#p5fc6b0c7ee)" d="M 515.567002 437.285794 
C 517.850453 437.285794 520.040687 436.378569 521.655331 434.763925 
C 523.269975 433.149281 524.1772 430.959047 524.1772 428.675596 
C 524.1772 426.392144 523.269975 424.20191 521.655331 422.587266 
C 520.040687 420.972622 517.850453 420.065397 515.567002 420.065397 
C 513.28355 420.065397 511.093316 420.972622 509.478672 422.587266 
C 507.864028 424.20191 506.956803 426.392144 506.956803 428.675596 
C 506.956803 430.959047 507.864028 433.149281 509.478672 434.763925 
C 511.093316 436.378569 513.28355 437.285794 515.567002 437.285794 
z
" style="fill:#3b4cc0;stroke:#3b4cc0;"/>
    <path clip-path="url(#p5fc6b0c7ee)" d="M 519.373695 351.382559 
C 522.391764 351.382559 525.286626 350.183467 527.420723 348.04937 
C 529.55482 345.915273 530.753912 343.020411 530.753912 340.002342 
C 530.753912 336.984273 529.55482 334.08941 527.420723 331.955313 
C 525.286626 329.821216 522.391764 328.622124 519.373695 328.622124 
C 516.355626 328.622124 513.460763 329.821216 511.326666 331.955313 
C 509.192569 334.08941 507.993477 336.984273 507.993477 340.002342 
C 507.993477 343.020411 509.192569 345.915273 511.326666 348.04937 
C 513.460763 350.183467 516.355626 351.382559 519.373695 351.382559 
z
" style="fill:#dbdcde;stroke:#dbdcde;"/>
    <path clip-path="url(#p5fc6b0c7ee)" d="M 585.04453 324.201922 
C 587.217354 324.201922 589.301477 323.33865 590.837896 321.802232 
C 592.374314 320.265813 593.237587 318.18169 593.237587 316.008866 
C 593.237587 313.836042 592.374314 311.751919 590.837896 310.2155 
C 589.301477 308.679082 587.217354 307.81581 585.04453 307.81581 
C 582.871707 307.81581 580.787583 308.679082 579.251165 310.2155 
C 577.714746 311.751919 576.851474 313.836042 576.851474 316.008866 
C 576.851474 318.18169 577.714746 320.265813 579.251165 321.802232 
C 580.787583 323.33865 582.871707 324.201922 585.04453 324.201922 
z
" style="fill:#b6cefa;stroke:#b6cefa;"/>
    <path clip-path="url(#p5fc6b0c7ee)" d="M 740.057261 467.200246 
C 741.733818 467.200246 743.341933 466.534143 744.527438 465.348638 
C 745.712942 464.163134 746.379045 462.555019 746.379045 460.878462 
C 746.379045 459.201905 745.712942 457.59379 744.527438 456.408286 
C 743.341933 455.222781 741.733818 454.556678 740.057261 454.556678 
C 738.380705 454.556678 736.77259 455.222781 735.587085 456.408286 
C 734.40158 457.59379 733.735477 459.201905 733.735477 460.878462 
C 733.735477 462.555019 734.40158 464.163134 735.587085 465.348638 
C 736.77259 466.534143 738.380705 467.200246 740.057261 467.200246 
z
" style="fill:#f5c1a9;stroke:#f5c1a9;"/>
    <path clip-path="url(#p5fc6b0c7ee)" d="M 818.060643 418.161705 
C 819.7372 418.161705 821.345315 417.495602 822.53082 416.310097 
C 823.716324 415.124592 824.382427 413.516477 824.382427 411.839921 
C 824.382427 410.163364 823.716324 408.555249 822.53082 407.369744 
C 821.345315 406.18424 819.7372 405.518137 818.060643 405.518137 
C 816.384087 405.518137 814.775972 406.18424 813.590467 407.369744 
C 812.404962 408.555249 811.738859 410.163364 811.738859 411.839921 
C 811.738859 413.516477 812.404962 415.124592 813.590467 416.310097 
C 814.775972 417.495602 816.384087 418.161705 818.060643 418.161705 
z
" style="fill:#6f92f3;stroke:#6f92f3;"/>
    <path clip-path="url(#p5fc6b0c7ee)" d="M 681.657106 418.499533 
C 683.679516 418.499533 685.619365 417.696022 687.049425 416.265962 
C 688.479484 414.835902 689.282996 412.896053 689.282996 410.873643 
C 689.282996 408.851233 688.479484 406.911384 687.049425 405.481324 
C 685.619365 404.051264 683.679516 403.247752 681.657106 403.247752 
C 679.634696 403.247752 677.694847 404.051264 676.264787 405.481324 
C 674.834727 406.911384 674.031215 408.851233 674.031215 410.873643 
C 674.031215 412.896053 674.834727 414.835902 676.264787 416.265962 
C 677.694847 417.696022 679.634696 418.499533 681.657106 418.499533 
z
" style="fill:#f7b093;stroke:#f7b093;"/>
    <path clip-path="url(#p5fc6b0c7ee)" d="M 681.610627 291.818575 
C 683.660277 291.818575 685.626254 291.004241 687.075575 289.554919 
C 688.524896 288.105598 689.339231 286.139621 689.339231 284.089972 
C 689.339231 282.040322 688.524896 280.074345 687.075575 278.625024 
C 685.626254 277.175703 683.660277 276.361368 681.610627 276.361368 
C 679.560978 276.361368 677.595001 277.175703 676.14568 278.625024 
C 674.696359 280.074345 673.882024 282.040322 673.882024 284.089972 
C 673.882024 286.139621 674.696359 288.105598 676.14568 289.554919 
C 677.595001 291.004241 679.560978 291.818575 681.610627 291.818575 
z
" style="fill:#bfd3f6;stroke:#bfd3f6;"/>
    <path clip-path="url(#p5fc6b0c7ee)" d="M 530.228089 566.886974 
C 533.224848 566.886974 536.099271 565.696349 538.2183 563.57732 
C 540.337328 561.458292 541.527953 558.583869 541.527953 555.58711 
C 541.527953 552.590351 540.337328 549.715929 538.2183 547.5969 
C 536.099271 545.477872 533.224848 544.287247 530.228089 544.287247 
C 527.231331 544.287247 524.356908 545.477872 522.237879 547.5969 
C 520.118851 549.715929 518.928226 552.590351 518.928226 555.58711 
C 518.928226 558.583869 520.118851 561.458292 522.237879 563.57732 
C 524.356908 565.696349 527.231331 566.886974 530.228089 566.886974 
z
" style="fill:#d2dbe8;stroke:#d2dbe8;"/>
    <path clip-path="url(#p5fc6b0c7ee)" d="M 700.881796 717.550875 
C 702.558353 717.550875 704.166468 716.884772 705.351973 715.699267 
C 706.537477 714.513763 707.20358 712.905648 707.20358 711.229091 
C 707.20358 709.552534 706.537477 707.944419 705.351973 706.758915 
C 704.166468 705.57341 702.558353 704.907307 700.881796 704.907307 
C 699.20524 704.907307 697.597125 705.57341 696.41162 706.758915 
C 695.226115 707.944419 694.560012 709.552534 694.560012 711.229091 
C 694.560012 712.905648 695.226115 714.513763 696.41162 715.699267 
C 697.597125 716.884772 699.20524 717.550875 700.881796 717.550875 
z
" style="fill:#edd1c2;stroke:#edd1c2;"/>
    <path clip-path="url(#p5fc6b0c7ee)" d="M 940.725369 639.339546 
C 942.401925 639.339546 944.01004 638.673443 945.195545 637.487938 
C 946.38105 636.302434 947.047153 634.694319 947.047153 633.017762 
C 947.047153 631.341205 946.38105 629.73309 945.195545 628.547586 
C 944.01004 627.362081 942.401925 626.695978 940.725369 626.695978 
C 939.048812 626.695978 937.440697 627.362081 936.255192 628.547586 
C 935.069688 629.73309 934.403585 631.341205 934.403585 633.017762 
C 934.403585 634.694319 935.069688 636.302434 936.255192 637.487938 
C 937.440697 638.673443 939.048812 639.339546 940.725369 639.339546 
z
" style="fill:#b40426;stroke:#b40426;"/>
    <path clip-path="url(#p5fc6b0c7ee)" d="M 410.203494 581.022514 
C 412.766668 581.022514 415.225206 580.004154 417.037644 578.191716 
C 418.850082 576.379279 419.868442 573.92074 419.868442 571.357566 
C 419.868442 568.794392 418.850082 566.335854 417.037644 564.523416 
C 415.225206 562.710978 412.766668 561.692619 410.203494 561.692619 
C 407.64032 561.692619 405.181782 562.710978 403.369344 564.523416 
C 401.556906 566.335854 400.538546 568.794392 400.538546 571.357566 
C 400.538546 573.92074 401.556906 576.379279 403.369344 578.191716 
C 405.181782 580.004154 407.64032 581.022514 410.203494 581.022514 
z
" style="fill:#88abfd;stroke:#88abfd;"/>
    <path clip-path="url(#p5fc6b0c7ee)" d="M 221.47438 455.21776 
C 223.786261 455.21776 226.003764 454.299241 227.63851 452.664494 
C 229.273256 451.029748 230.191776 448.812245 230.191776 446.500365 
C 230.191776 444.188484 229.273256 441.970981 227.63851 440.336235 
C 226.003764 438.701488 223.786261 437.782969 221.47438 437.782969 
C 219.1625 437.782969 216.944997 438.701488 215.31025 440.336235 
C 213.675504 441.970981 212.756984 444.188484 212.756984 446.500365 
C 212.756984 448.812245 213.675504 451.029748 215.31025 452.664494 
C 216.944997 454.299241 219.1625 455.21776 221.47438 455.21776 
z
" style="fill:#c9d7f0;stroke:#c9d7f0;"/>
    <path clip-path="url(#p5fc6b0c7ee)" d="M 504.631631 230.765664 
C 506.308188 230.765664 507.916303 230.099561 509.101808 228.914056 
C 510.287312 227.728552 510.953415 226.120437 510.953415 224.44388 
C 510.953415 222.767323 510.287312 221.159208 509.101808 219.973704 
C 507.916303 218.788199 506.308188 218.122096 504.631631 218.122096 
C 502.955075 218.122096 501.34696 218.788199 500.161455 219.973704 
C 498.97595 221.159208 498.309847 222.767323 498.309847 224.44388 
C 498.309847 226.120437 498.97595 227.728552 500.161455 228.914056 
C 501.34696 230.099561 502.955075 230.765664 504.631631 230.765664 
z
" style="fill:#f7a889;stroke:#f7a889;"/>
    <path clip-path="url(#p5fc6b0c7ee)" d="M 362.41176 389.53782 
C 363.737776 389.53782 365.009659 389.010989 365.947294 388.073354 
C 366.884928 387.13572 367.41176 385.863836 367.41176 384.53782 
C 367.41176 383.211805 366.884928 381.939921 365.947294 381.002286 
C 365.009659 380.064652 363.737776 379.53782 362.41176 379.53782 
C 361.085745 379.53782 359.813861 380.064652 358.876226 381.002286 
C 357.938592 381.939921 357.41176 383.211805 357.41176 384.53782 
C 357.41176 385.863836 357.938592 387.13572 358.876226 388.073354 
C 359.813861 389.010989 361.085745 389.53782 362.41176 389.53782 
z
" style="fill:#e0654f;stroke:#e0654f;"/>
    <path clip-path="url(#p5fc6b0c7ee)" d="M 456.959128 273.977806 
C 459.015382 273.977806 460.987693 273.160848 462.441683 271.706857 
C 463.895674 270.252867 464.712632 268.280555 464.712632 266.224302 
C 464.712632 264.168049 463.895674 262.195737 462.441683 260.741747 
C 460.987693 259.287756 459.015382 258.470798 456.959128 258.470798 
C 454.902875 258.470798 452.930564 259.287756 451.476573 260.741747 
C 450.022583 262.195737 449.205624 264.168049 449.205624 266.224302 
C 449.205624 268.280555 450.022583 270.252867 451.476573 271.706857 
C 452.930564 273.160848 454.902875 273.977806 456.959128 273.977806 
z
" style="fill:#c6d6f1;stroke:#c6d6f1;"/>
   </g>
   <g id="text_1">
    <g clip-path="url(#p5fc6b0c7ee)">
     <!-- DLD -->
     <g transform="translate(613.847187 505.008588)scale(0.1 -0.1)">
      <defs>
       <path d="M 19.671875 64.796875 
L 19.671875 8.109375 
L 31.59375 8.109375 
Q 46.6875 8.109375 53.6875 14.9375 
Q 60.6875 21.78125 60.6875 36.53125 
Q 60.6875 51.171875 53.6875 57.984375 
Q 46.6875 64.796875 31.59375 64.796875 
z
M 9.8125 72.90625 
L 30.078125 72.90625 
Q 51.265625 72.90625 61.171875 64.09375 
Q 71.09375 55.28125 71.09375 36.53125 
Q 71.09375 17.671875 61.125 8.828125 
Q 51.171875 0 30.078125 0 
L 9.8125 0 
z
" id="DejaVuSans-68"/>
       <path d="M 9.8125 72.90625 
L 19.671875 72.90625 
L 19.671875 8.296875 
L 55.171875 8.296875 
L 55.171875 0 
L 9.8125 0 
z
" id="DejaVuSans-76"/>
      </defs>
      <use xlink:href="#DejaVuSans-68"/>
      <use x="77.001953" xlink:href="#DejaVuSans-76"/>
      <use x="132.714844" xlink:href="#DejaVuSans-68"/>
     </g>
    </g>
   </g>
   <g id="text_2">
    <g clip-path="url(#p5fc6b0c7ee)">
     <!-- HMGCL -->
     <g transform="translate(941.099839 456.960698)scale(0.1 -0.1)">
      <defs>
       <path d="M 9.8125 72.90625 
L 19.671875 72.90625 
L 19.671875 43.015625 
L 55.515625 43.015625 
L 55.515625 72.90625 
L 65.375 72.90625 
L 65.375 0 
L 55.515625 0 
L 55.515625 34.71875 
L 19.671875 34.71875 
L 19.671875 0 
L 9.8125 0 
z
" id="DejaVuSans-72"/>
       <path d="M 9.8125 72.90625 
L 24.515625 72.90625 
L 43.109375 23.296875 
L 61.8125 72.90625 
L 76.515625 72.90625 
L 76.515625 0 
L 66.890625 0 
L 66.890625 64.015625 
L 48.09375 14.015625 
L 38.1875 14.015625 
L 19.390625 64.015625 
L 19.390625 0 
L 9.8125 0 
z
" id="DejaVuSans-77"/>
       <path d="M 59.515625 10.40625 
L 59.515625 29.984375 
L 43.40625 29.984375 
L 43.40625 38.09375 
L 69.28125 38.09375 
L 69.28125 6.78125 
Q 63.578125 2.734375 56.6875 0.65625 
Q 49.8125 -1.421875 42 -1.421875 
Q 24.90625 -1.421875 15.25 8.5625 
Q 5.609375 18.5625 5.609375 36.375 
Q 5.609375 54.25 15.25 64.234375 
Q 24.90625 74.21875 42 74.21875 
Q 49.125 74.21875 55.546875 72.453125 
Q 61.96875 70.703125 67.390625 67.28125 
L 67.390625 56.78125 
Q 61.921875 61.421875 55.765625 63.765625 
Q 49.609375 66.109375 42.828125 66.109375 
Q 29.4375 66.109375 22.71875 58.640625 
Q 16.015625 51.171875 16.015625 36.375 
Q 16.015625 21.625 22.71875 14.15625 
Q 29.4375 6.6875 42.828125 6.6875 
Q 48.046875 6.6875 52.140625 7.59375 
Q 56.25 8.5 59.515625 10.40625 
z
" id="DejaVuSans-71"/>
       <path d="M 64.40625 67.28125 
L 64.40625 56.890625 
Q 59.421875 61.53125 53.78125 63.8125 
Q 48.140625 66.109375 41.796875 66.109375 
Q 29.296875 66.109375 22.65625 58.46875 
Q 16.015625 50.828125 16.015625 36.375 
Q 16.015625 21.96875 22.65625 14.328125 
Q 29.296875 6.6875 41.796875 6.6875 
Q 48.140625 6.6875 53.78125 8.984375 
Q 59.421875 11.28125 64.40625 15.921875 
L 64.40625 5.609375 
Q 59.234375 2.09375 53.4375 0.328125 
Q 47.65625 -1.421875 41.21875 -1.421875 
Q 24.65625 -1.421875 15.125 8.703125 
Q 5.609375 18.84375 5.609375 36.375 
Q 5.609375 53.953125 15.125 64.078125 
Q 24.65625 74.21875 41.21875 74.21875 
Q 47.75 74.21875 53.53125 72.484375 
Q 59.328125 70.75 64.40625 67.28125 
z
" id="DejaVuSans-67"/>
      </defs>
      <use xlink:href="#DejaVuSans-72"/>
      <use x="75.195312" xlink:href="#DejaVuSans-77"/>
      <use x="161.474609" xlink:href="#DejaVuSans-71"/>
      <use x="238.964844" xlink:href="#DejaVuSans-67"/>
      <use x="308.789062" xlink:href="#DejaVuSans-76"/>
     </g>
    </g>
   </g>
   <g id="text_3">
    <g clip-path="url(#p5fc6b0c7ee)">
     <!-- IVD -->
     <g transform="translate(474.088466 198.854066)scale(0.1 -0.1)">
      <defs>
       <path d="M 9.8125 72.90625 
L 19.671875 72.90625 
L 19.671875 0 
L 9.8125 0 
z
" id="DejaVuSans-73"/>
       <path d="M 28.609375 0 
L 0.78125 72.90625 
L 11.078125 72.90625 
L 34.1875 11.53125 
L 57.328125 72.90625 
L 67.578125 72.90625 
L 39.796875 0 
z
" id="DejaVuSans-86"/>
      </defs>
      <use xlink:href="#DejaVuSans-73"/>
      <use x="29.492188" xlink:href="#DejaVuSans-86"/>
      <use x="97.900391" xlink:href="#DejaVuSans-68"/>
     </g>
    </g>
   </g>
   <g id="text_4">
    <g clip-path="url(#p5fc6b0c7ee)">
     <!-- DBT -->
     <g transform="translate(429.756476 321.096392)scale(0.1 -0.1)">
      <defs>
       <path d="M 19.671875 34.8125 
L 19.671875 8.109375 
L 35.5 8.109375 
Q 43.453125 8.109375 47.28125 11.40625 
Q 51.125 14.703125 51.125 21.484375 
Q 51.125 28.328125 47.28125 31.5625 
Q 43.453125 34.8125 35.5 34.8125 
z
M 19.671875 64.796875 
L 19.671875 42.828125 
L 34.28125 42.828125 
Q 41.5 42.828125 45.03125 45.53125 
Q 48.578125 48.25 48.578125 53.8125 
Q 48.578125 59.328125 45.03125 62.0625 
Q 41.5 64.796875 34.28125 64.796875 
z
M 9.8125 72.90625 
L 35.015625 72.90625 
Q 46.296875 72.90625 52.390625 68.21875 
Q 58.5 63.53125 58.5 54.890625 
Q 58.5 48.1875 55.375 44.234375 
Q 52.25 40.28125 46.1875 39.3125 
Q 53.46875 37.75 57.5 32.78125 
Q 61.53125 27.828125 61.53125 20.40625 
Q 61.53125 10.640625 54.890625 5.3125 
Q 48.25 0 35.984375 0 
L 9.8125 0 
z
" id="DejaVuSans-66"/>
       <path d="M -0.296875 72.90625 
L 61.375 72.90625 
L 61.375 64.59375 
L 35.5 64.59375 
L 35.5 0 
L 25.59375 0 
L 25.59375 64.59375 
L -0.296875 64.59375 
z
" id="DejaVuSans-84"/>
      </defs>
      <use xlink:href="#DejaVuSans-68"/>
      <use x="77.001953" xlink:href="#DejaVuSans-66"/>
      <use x="145.605469" xlink:href="#DejaVuSans-84"/>
     </g>
    </g>
   </g>
   <g id="text_5">
    <g clip-path="url(#p5fc6b0c7ee)">
     <!-- MCEE -->
     <g transform="translate(753.986306 452.466154)scale(0.1 -0.1)">
      <defs>
       <path d="M 9.8125 72.90625 
L 55.90625 72.90625 
L 55.90625 64.59375 
L 19.671875 64.59375 
L 19.671875 43.015625 
L 54.390625 43.015625 
L 54.390625 34.71875 
L 19.671875 34.71875 
L 19.671875 8.296875 
L 56.78125 8.296875 
L 56.78125 0 
L 9.8125 0 
z
" id="DejaVuSans-69"/>
      </defs>
      <use xlink:href="#DejaVuSans-77"/>
      <use x="86.279297" xlink:href="#DejaVuSans-67"/>
      <use x="156.103516" xlink:href="#DejaVuSans-69"/>
      <use x="219.287109" xlink:href="#DejaVuSans-69"/>
     </g>
    </g>
   </g>
   <g id="text_6">
    <g clip-path="url(#p5fc6b0c7ee)">
     <!-- HIBCH -->
     <g transform="translate(804.921004 194.693363)scale(0.1 -0.1)">
      <use xlink:href="#DejaVuSans-72"/>
      <use x="75.195312" xlink:href="#DejaVuSans-73"/>
      <use x="104.6875" xlink:href="#DejaVuSans-66"/>
      <use x="171.541016" xlink:href="#DejaVuSans-67"/>
      <use x="241.365234" xlink:href="#DejaVuSans-72"/>
     </g>
    </g>
   </g>
   <g id="text_7">
    <g clip-path="url(#p5fc6b0c7ee)">
     <!-- HSD17B10 -->
     <g transform="translate(682.490137 164.170284)scale(0.1 -0.1)">
      <defs>
       <path d="M 53.515625 70.515625 
L 53.515625 60.890625 
Q 47.90625 63.578125 42.921875 64.890625 
Q 37.9375 66.21875 33.296875 66.21875 
Q 25.25 66.21875 20.875 63.09375 
Q 16.5 59.96875 16.5 54.203125 
Q 16.5 49.359375 19.40625 46.890625 
Q 22.3125 44.4375 30.421875 42.921875 
L 36.375 41.703125 
Q 47.40625 39.59375 52.65625 34.296875 
Q 57.90625 29 57.90625 20.125 
Q 57.90625 9.515625 50.796875 4.046875 
Q 43.703125 -1.421875 29.984375 -1.421875 
Q 24.8125 -1.421875 18.96875 -0.25 
Q 13.140625 0.921875 6.890625 3.21875 
L 6.890625 13.375 
Q 12.890625 10.015625 18.65625 8.296875 
Q 24.421875 6.59375 29.984375 6.59375 
Q 38.421875 6.59375 43.015625 9.90625 
Q 47.609375 13.234375 47.609375 19.390625 
Q 47.609375 24.75 44.3125 27.78125 
Q 41.015625 30.8125 33.5 32.328125 
L 27.484375 33.5 
Q 16.453125 35.6875 11.515625 40.375 
Q 6.59375 45.0625 6.59375 53.421875 
Q 6.59375 63.09375 13.40625 68.65625 
Q 20.21875 74.21875 32.171875 74.21875 
Q 37.3125 74.21875 42.625 73.28125 
Q 47.953125 72.359375 53.515625 70.515625 
z
" id="DejaVuSans-83"/>
       <path d="M 12.40625 8.296875 
L 28.515625 8.296875 
L 28.515625 63.921875 
L 10.984375 60.40625 
L 10.984375 69.390625 
L 28.421875 72.90625 
L 38.28125 72.90625 
L 38.28125 8.296875 
L 54.390625 8.296875 
L 54.390625 0 
L 12.40625 0 
z
" id="DejaVuSans-49"/>
       <path d="M 8.203125 72.90625 
L 55.078125 72.90625 
L 55.078125 68.703125 
L 28.609375 0 
L 18.3125 0 
L 43.21875 64.59375 
L 8.203125 64.59375 
z
" id="DejaVuSans-55"/>
       <path d="M 31.78125 66.40625 
Q 24.171875 66.40625 20.328125 58.90625 
Q 16.5 51.421875 16.5 36.375 
Q 16.5 21.390625 20.328125 13.890625 
Q 24.171875 6.390625 31.78125 6.390625 
Q 39.453125 6.390625 43.28125 13.890625 
Q 47.125 21.390625 47.125 36.375 
Q 47.125 51.421875 43.28125 58.90625 
Q 39.453125 66.40625 31.78125 66.40625 
z
M 31.78125 74.21875 
Q 44.046875 74.21875 50.515625 64.515625 
Q 56.984375 54.828125 56.984375 36.375 
Q 56.984375 17.96875 50.515625 8.265625 
Q 44.046875 -1.421875 31.78125 -1.421875 
Q 19.53125 -1.421875 13.0625 8.265625 
Q 6.59375 17.96875 6.59375 36.375 
Q 6.59375 54.828125 13.0625 64.515625 
Q 19.53125 74.21875 31.78125 74.21875 
z
" id="DejaVuSans-48"/>
      </defs>
      <use xlink:href="#DejaVuSans-72"/>
      <use x="75.195312" xlink:href="#DejaVuSans-83"/>
      <use x="138.671875" xlink:href="#DejaVuSans-68"/>
      <use x="215.673828" xlink:href="#DejaVuSans-49"/>
      <use x="279.296875" xlink:href="#DejaVuSans-55"/>
      <use x="342.919922" xlink:href="#DejaVuSans-66"/>
      <use x="411.523438" xlink:href="#DejaVuSans-49"/>
      <use x="475.146484" xlink:href="#DejaVuSans-48"/>
     </g>
    </g>
   </g>
   <g id="text_8">
    <g clip-path="url(#p5fc6b0c7ee)">
     <!-- ACADM -->
     <g transform="translate(247.640002 542.42338)scale(0.1 -0.1)">
      <defs>
       <path d="M 34.1875 63.1875 
L 20.796875 26.90625 
L 47.609375 26.90625 
z
M 28.609375 72.90625 
L 39.796875 72.90625 
L 67.578125 0 
L 57.328125 0 
L 50.6875 18.703125 
L 17.828125 18.703125 
L 11.1875 0 
L 0.78125 0 
z
" id="DejaVuSans-65"/>
      </defs>
      <use xlink:href="#DejaVuSans-65"/>
      <use x="66.658203" xlink:href="#DejaVuSans-67"/>
      <use x="136.482422" xlink:href="#DejaVuSans-65"/>
      <use x="204.890625" xlink:href="#DejaVuSans-68"/>
      <use x="281.892578" xlink:href="#DejaVuSans-77"/>
     </g>
    </g>
   </g>
   <g id="text_9">
    <g clip-path="url(#p5fc6b0c7ee)">
     <!-- ACADS -->
     <g transform="translate(777.548594 207.882605)scale(0.1 -0.1)">
      <use xlink:href="#DejaVuSans-65"/>
      <use x="66.658203" xlink:href="#DejaVuSans-67"/>
      <use x="136.482422" xlink:href="#DejaVuSans-65"/>
      <use x="204.890625" xlink:href="#DejaVuSans-68"/>
      <use x="281.892578" xlink:href="#DejaVuSans-83"/>
     </g>
    </g>
   </g>
   <g id="text_10">
    <g clip-path="url(#p5fc6b0c7ee)">
     <!-- ACAD8 -->
     <g transform="translate(382.392962 452.74349)scale(0.1 -0.1)">
      <defs>
       <path d="M 31.78125 34.625 
Q 24.75 34.625 20.71875 30.859375 
Q 16.703125 27.09375 16.703125 20.515625 
Q 16.703125 13.921875 20.71875 10.15625 
Q 24.75 6.390625 31.78125 6.390625 
Q 38.8125 6.390625 42.859375 10.171875 
Q 46.921875 13.96875 46.921875 20.515625 
Q 46.921875 27.09375 42.890625 30.859375 
Q 38.875 34.625 31.78125 34.625 
z
M 21.921875 38.8125 
Q 15.578125 40.375 12.03125 44.71875 
Q 8.5 49.078125 8.5 55.328125 
Q 8.5 64.0625 14.71875 69.140625 
Q 20.953125 74.21875 31.78125 74.21875 
Q 42.671875 74.21875 48.875 69.140625 
Q 55.078125 64.0625 55.078125 55.328125 
Q 55.078125 49.078125 51.53125 44.71875 
Q 48 40.375 41.703125 38.8125 
Q 48.828125 37.15625 52.796875 32.3125 
Q 56.78125 27.484375 56.78125 20.515625 
Q 56.78125 9.90625 50.3125 4.234375 
Q 43.84375 -1.421875 31.78125 -1.421875 
Q 19.734375 -1.421875 13.25 4.234375 
Q 6.78125 9.90625 6.78125 20.515625 
Q 6.78125 27.484375 10.78125 32.3125 
Q 14.796875 37.15625 21.921875 38.8125 
z
M 18.3125 54.390625 
Q 18.3125 48.734375 21.84375 45.5625 
Q 25.390625 42.390625 31.78125 42.390625 
Q 38.140625 42.390625 41.71875 45.5625 
Q 45.3125 48.734375 45.3125 54.390625 
Q 45.3125 60.0625 41.71875 63.234375 
Q 38.140625 66.40625 31.78125 66.40625 
Q 25.390625 66.40625 21.84375 63.234375 
Q 18.3125 60.0625 18.3125 54.390625 
z
" id="DejaVuSans-56"/>
      </defs>
      <use xlink:href="#DejaVuSans-65"/>
      <use x="66.658203" xlink:href="#DejaVuSans-67"/>
      <use x="136.482422" xlink:href="#DejaVuSans-65"/>
      <use x="204.890625" xlink:href="#DejaVuSans-68"/>
      <use x="281.892578" xlink:href="#DejaVuSans-56"/>
     </g>
    </g>
   </g>
   <g id="text_11">
    <g clip-path="url(#p5fc6b0c7ee)">
     <!-- AACS -->
     <g transform="translate(660.296646 444.892631)scale(0.1 -0.1)">
      <use xlink:href="#DejaVuSans-65"/>
      <use x="71.158203" xlink:href="#DejaVuSans-65"/>
      <use x="137.816406" xlink:href="#DejaVuSans-67"/>
      <use x="207.640625" xlink:href="#DejaVuSans-83"/>
     </g>
    </g>
   </g>
   <g id="text_12">
    <g clip-path="url(#p5fc6b0c7ee)">
     <!-- BCKDHA -->
     <g transform="translate(327.922871 553.178137)scale(0.1 -0.1)">
      <defs>
       <path d="M 9.8125 72.90625 
L 19.671875 72.90625 
L 19.671875 42.09375 
L 52.390625 72.90625 
L 65.09375 72.90625 
L 28.90625 38.921875 
L 67.671875 0 
L 54.6875 0 
L 19.671875 35.109375 
L 19.671875 0 
L 9.8125 0 
z
" id="DejaVuSans-75"/>
      </defs>
      <use xlink:href="#DejaVuSans-66"/>
      <use x="66.853516" xlink:href="#DejaVuSans-67"/>
      <use x="136.677734" xlink:href="#DejaVuSans-75"/>
      <use x="202.253906" xlink:href="#DejaVuSans-68"/>
      <use x="279.255859" xlink:href="#DejaVuSans-72"/>
      <use x="354.451172" xlink:href="#DejaVuSans-65"/>
     </g>
    </g>
   </g>
   <g id="text_13">
    <g clip-path="url(#p5fc6b0c7ee)">
     <!-- BCKDHB -->
     <g transform="translate(689.526401 546.109557)scale(0.1 -0.1)">
      <use xlink:href="#DejaVuSans-66"/>
      <use x="66.853516" xlink:href="#DejaVuSans-67"/>
      <use x="136.677734" xlink:href="#DejaVuSans-75"/>
      <use x="202.253906" xlink:href="#DejaVuSans-68"/>
      <use x="279.255859" xlink:href="#DejaVuSans-72"/>
      <use x="354.451172" xlink:href="#DejaVuSans-66"/>
     </g>
    </g>
   </g>
   <g id="text_14">
    <g clip-path="url(#p5fc6b0c7ee)">
     <!-- AUH -->
     <g transform="translate(795.067317 549.391846)scale(0.1 -0.1)">
      <defs>
       <path d="M 8.6875 72.90625 
L 18.609375 72.90625 
L 18.609375 28.609375 
Q 18.609375 16.890625 22.84375 11.734375 
Q 27.09375 6.59375 36.625 6.59375 
Q 46.09375 6.59375 50.34375 11.734375 
Q 54.59375 16.890625 54.59375 28.609375 
L 54.59375 72.90625 
L 64.5 72.90625 
L 64.5 27.390625 
Q 64.5 13.140625 57.4375 5.859375 
Q 50.390625 -1.421875 36.625 -1.421875 
Q 22.796875 -1.421875 15.734375 5.859375 
Q 8.6875 13.140625 8.6875 27.390625 
z
" id="DejaVuSans-85"/>
      </defs>
      <use xlink:href="#DejaVuSans-65"/>
      <use x="68.408203" xlink:href="#DejaVuSans-85"/>
      <use x="141.601562" xlink:href="#DejaVuSans-72"/>
     </g>
    </g>
   </g>
   <g id="text_15">
    <g clip-path="url(#p5fc6b0c7ee)">
     <!-- MCCC1 -->
     <g transform="translate(446.635301 478.397446)scale(0.1 -0.1)">
      <use xlink:href="#DejaVuSans-77"/>
      <use x="86.279297" xlink:href="#DejaVuSans-67"/>
      <use x="156.103516" xlink:href="#DejaVuSans-67"/>
      <use x="225.927734" xlink:href="#DejaVuSans-67"/>
      <use x="295.751953" xlink:href="#DejaVuSans-49"/>
     </g>
    </g>
   </g>
   <g id="text_16">
    <g clip-path="url(#p5fc6b0c7ee)">
     <!-- MCCC2 -->
     <g transform="translate(497.59747 431.434971)scale(0.1 -0.1)">
      <defs>
       <path d="M 19.1875 8.296875 
L 53.609375 8.296875 
L 53.609375 0 
L 7.328125 0 
L 7.328125 8.296875 
Q 12.9375 14.109375 22.625 23.890625 
Q 32.328125 33.6875 34.8125 36.53125 
Q 39.546875 41.84375 41.421875 45.53125 
Q 43.3125 49.21875 43.3125 52.78125 
Q 43.3125 58.59375 39.234375 62.25 
Q 35.15625 65.921875 28.609375 65.921875 
Q 23.96875 65.921875 18.8125 64.3125 
Q 13.671875 62.703125 7.8125 59.421875 
L 7.8125 69.390625 
Q 13.765625 71.78125 18.9375 73 
Q 24.125 74.21875 28.421875 74.21875 
Q 39.75 74.21875 46.484375 68.546875 
Q 53.21875 62.890625 53.21875 53.421875 
Q 53.21875 48.921875 51.53125 44.890625 
Q 49.859375 40.875 45.40625 35.40625 
Q 44.1875 33.984375 37.640625 27.21875 
Q 31.109375 20.453125 19.1875 8.296875 
z
" id="DejaVuSans-50"/>
      </defs>
      <use xlink:href="#DejaVuSans-77"/>
      <use x="86.279297" xlink:href="#DejaVuSans-67"/>
      <use x="156.103516" xlink:href="#DejaVuSans-67"/>
      <use x="225.927734" xlink:href="#DejaVuSans-67"/>
      <use x="295.751953" xlink:href="#DejaVuSans-50"/>
     </g>
    </g>
   </g>
   <g id="text_17">
    <g clip-path="url(#p5fc6b0c7ee)">
     <!-- HADHA -->
     <g transform="translate(501.162757 342.761717)scale(0.1 -0.1)">
      <use xlink:href="#DejaVuSans-72"/>
      <use x="75.195312" xlink:href="#DejaVuSans-65"/>
      <use x="143.603516" xlink:href="#DejaVuSans-68"/>
      <use x="220.605469" xlink:href="#DejaVuSans-72"/>
      <use x="295.800781" xlink:href="#DejaVuSans-65"/>
     </g>
    </g>
   </g>
   <g id="text_18">
    <g clip-path="url(#p5fc6b0c7ee)">
     <!-- ECHS1 -->
     <g transform="translate(568.278124 318.768241)scale(0.1 -0.1)">
      <use xlink:href="#DejaVuSans-69"/>
      <use x="63.183594" xlink:href="#DejaVuSans-67"/>
      <use x="133.007812" xlink:href="#DejaVuSans-72"/>
      <use x="208.203125" xlink:href="#DejaVuSans-83"/>
      <use x="271.679688" xlink:href="#DejaVuSans-49"/>
     </g>
    </g>
   </g>
   <g id="text_19">
    <g clip-path="url(#p5fc6b0c7ee)">
     <!-- ACAA1 -->
     <g transform="translate(723.073667 463.637837)scale(0.1 -0.1)">
      <use xlink:href="#DejaVuSans-65"/>
      <use x="66.658203" xlink:href="#DejaVuSans-67"/>
      <use x="136.482422" xlink:href="#DejaVuSans-65"/>
      <use x="207.640625" xlink:href="#DejaVuSans-65"/>
      <use x="276.048828" xlink:href="#DejaVuSans-49"/>
     </g>
    </g>
   </g>
   <g id="text_20">
    <g clip-path="url(#p5fc6b0c7ee)">
     <!-- ACAA2 -->
     <g transform="translate(801.07705 414.599296)scale(0.1 -0.1)">
      <use xlink:href="#DejaVuSans-65"/>
      <use x="66.658203" xlink:href="#DejaVuSans-67"/>
      <use x="136.482422" xlink:href="#DejaVuSans-65"/>
      <use x="207.640625" xlink:href="#DejaVuSans-65"/>
      <use x="276.048828" xlink:href="#DejaVuSans-50"/>
     </g>
    </g>
   </g>
   <g id="text_21">
    <g clip-path="url(#p5fc6b0c7ee)">
     <!-- HADHB -->
     <g transform="translate(663.436012 413.633018)scale(0.1 -0.1)">
      <use xlink:href="#DejaVuSans-72"/>
      <use x="75.195312" xlink:href="#DejaVuSans-65"/>
      <use x="143.603516" xlink:href="#DejaVuSans-68"/>
      <use x="220.605469" xlink:href="#DejaVuSans-72"/>
      <use x="295.800781" xlink:href="#DejaVuSans-66"/>
     </g>
    </g>
   </g>
   <g id="text_22">
    <g clip-path="url(#p5fc6b0c7ee)">
     <!-- ACADSB -->
     <g transform="translate(660.911409 286.849347)scale(0.1 -0.1)">
      <use xlink:href="#DejaVuSans-65"/>
      <use x="66.658203" xlink:href="#DejaVuSans-67"/>
      <use x="136.482422" xlink:href="#DejaVuSans-65"/>
      <use x="204.890625" xlink:href="#DejaVuSans-68"/>
      <use x="281.892578" xlink:href="#DejaVuSans-83"/>
      <use x="345.369141" xlink:href="#DejaVuSans-66"/>
     </g>
    </g>
   </g>
   <g id="text_23">
    <g clip-path="url(#p5fc6b0c7ee)">
     <!-- MUT -->
     <g transform="translate(519.200746 558.346485)scale(0.1 -0.1)">
      <use xlink:href="#DejaVuSans-77"/>
      <use x="86.279297" xlink:href="#DejaVuSans-85"/>
      <use x="159.472656" xlink:href="#DejaVuSans-84"/>
     </g>
    </g>
   </g>
   <g id="text_24">
    <g clip-path="url(#p5fc6b0c7ee)">
     <!-- PCCA -->
     <g transform="translate(687.463827 713.988466)scale(0.1 -0.1)">
      <defs>
       <path d="M 19.671875 64.796875 
L 19.671875 37.40625 
L 32.078125 37.40625 
Q 38.96875 37.40625 42.71875 40.96875 
Q 46.484375 44.53125 46.484375 51.125 
Q 46.484375 57.671875 42.71875 61.234375 
Q 38.96875 64.796875 32.078125 64.796875 
z
M 9.8125 72.90625 
L 32.078125 72.90625 
Q 44.34375 72.90625 50.609375 67.359375 
Q 56.890625 61.8125 56.890625 51.125 
Q 56.890625 40.328125 50.609375 34.8125 
Q 44.34375 29.296875 32.078125 29.296875 
L 19.671875 29.296875 
L 19.671875 0 
L 9.8125 0 
z
" id="DejaVuSans-80"/>
      </defs>
      <use xlink:href="#DejaVuSans-80"/>
      <use x="60.302734" xlink:href="#DejaVuSans-67"/>
      <use x="130.126953" xlink:href="#DejaVuSans-67"/>
      <use x="199.951172" xlink:href="#DejaVuSans-65"/>
     </g>
    </g>
   </g>
   <g id="text_25">
    <g clip-path="url(#p5fc6b0c7ee)">
     <!-- PCCB -->
     <g transform="translate(927.297244 635.777137)scale(0.1 -0.1)">
      <use xlink:href="#DejaVuSans-80"/>
      <use x="60.302734" xlink:href="#DejaVuSans-67"/>
      <use x="130.126953" xlink:href="#DejaVuSans-67"/>
      <use x="199.951172" xlink:href="#DejaVuSans-66"/>
     </g>
    </g>
   </g>
   <g id="text_26">
    <g clip-path="url(#p5fc6b0c7ee)">
     <!-- ALDH9A1 -->
     <g transform="translate(386.604275 574.116941)scale(0.1 -0.1)">
      <defs>
       <path d="M 10.984375 1.515625 
L 10.984375 10.5 
Q 14.703125 8.734375 18.5 7.8125 
Q 22.3125 6.890625 25.984375 6.890625 
Q 35.75 6.890625 40.890625 13.453125 
Q 46.046875 20.015625 46.78125 33.40625 
Q 43.953125 29.203125 39.59375 26.953125 
Q 35.25 24.703125 29.984375 24.703125 
Q 19.046875 24.703125 12.671875 31.3125 
Q 6.296875 37.9375 6.296875 49.421875 
Q 6.296875 60.640625 12.9375 67.421875 
Q 19.578125 74.21875 30.609375 74.21875 
Q 43.265625 74.21875 49.921875 64.515625 
Q 56.59375 54.828125 56.59375 36.375 
Q 56.59375 19.140625 48.40625 8.859375 
Q 40.234375 -1.421875 26.421875 -1.421875 
Q 22.703125 -1.421875 18.890625 -0.6875 
Q 15.09375 0.046875 10.984375 1.515625 
z
M 30.609375 32.421875 
Q 37.25 32.421875 41.125 36.953125 
Q 45.015625 41.5 45.015625 49.421875 
Q 45.015625 57.28125 41.125 61.84375 
Q 37.25 66.40625 30.609375 66.40625 
Q 23.96875 66.40625 20.09375 61.84375 
Q 16.21875 57.28125 16.21875 49.421875 
Q 16.21875 41.5 20.09375 36.953125 
Q 23.96875 32.421875 30.609375 32.421875 
z
" id="DejaVuSans-57"/>
      </defs>
      <use xlink:href="#DejaVuSans-65"/>
      <use x="68.408203" xlink:href="#DejaVuSans-76"/>
      <use x="124.121094" xlink:href="#DejaVuSans-68"/>
      <use x="201.123047" xlink:href="#DejaVuSans-72"/>
      <use x="276.318359" xlink:href="#DejaVuSans-57"/>
      <use x="339.941406" xlink:href="#DejaVuSans-65"/>
      <use x="408.349609" xlink:href="#DejaVuSans-49"/>
     </g>
    </g>
   </g>
   <g id="text_27">
    <g clip-path="url(#p5fc6b0c7ee)">
     <!-- ABAT -->
     <g transform="translate(208.53688 449.25974)scale(0.1 -0.1)">
      <use xlink:href="#DejaVuSans-65"/>
      <use x="68.408203" xlink:href="#DejaVuSans-66"/>
      <use x="137.011719" xlink:href="#DejaVuSans-65"/>
      <use x="197.669922" xlink:href="#DejaVuSans-84"/>
     </g>
    </g>
   </g>
   <g id="text_28">
    <g clip-path="url(#p5fc6b0c7ee)">
     <!-- HADH -->
     <g transform="translate(489.841006 227.203255)scale(0.1 -0.1)">
      <use xlink:href="#DejaVuSans-72"/>
      <use x="75.195312" xlink:href="#DejaVuSans-65"/>
      <use x="143.603516" xlink:href="#DejaVuSans-68"/>
      <use x="220.605469" xlink:href="#DejaVuSans-72"/>
     </g>
    </g>
   </g>
   <g id="text_29">
    <g clip-path="url(#p5fc6b0c7ee)">
     <!-- ACSF3 -->
     <g transform="translate(346.356291 387.297195)scale(0.1 -0.1)">
      <defs>
       <path d="M 9.8125 72.90625 
L 51.703125 72.90625 
L 51.703125 64.59375 
L 19.671875 64.59375 
L 19.671875 43.109375 
L 48.578125 43.109375 
L 48.578125 34.8125 
L 19.671875 34.8125 
L 19.671875 0 
L 9.8125 0 
z
" id="DejaVuSans-70"/>
       <path d="M 40.578125 39.3125 
Q 47.65625 37.796875 51.625 33 
Q 55.609375 28.21875 55.609375 21.1875 
Q 55.609375 10.40625 48.1875 4.484375 
Q 40.765625 -1.421875 27.09375 -1.421875 
Q 22.515625 -1.421875 17.65625 -0.515625 
Q 12.796875 0.390625 7.625 2.203125 
L 7.625 11.71875 
Q 11.71875 9.328125 16.59375 8.109375 
Q 21.484375 6.890625 26.8125 6.890625 
Q 36.078125 6.890625 40.9375 10.546875 
Q 45.796875 14.203125 45.796875 21.1875 
Q 45.796875 27.640625 41.28125 31.265625 
Q 36.765625 34.90625 28.71875 34.90625 
L 20.21875 34.90625 
L 20.21875 43.015625 
L 29.109375 43.015625 
Q 36.375 43.015625 40.234375 45.921875 
Q 44.09375 48.828125 44.09375 54.296875 
Q 44.09375 59.90625 40.109375 62.90625 
Q 36.140625 65.921875 28.71875 65.921875 
Q 24.65625 65.921875 20.015625 65.03125 
Q 15.375 64.15625 9.8125 62.3125 
L 9.8125 71.09375 
Q 15.4375 72.65625 20.34375 73.4375 
Q 25.25 74.21875 29.59375 74.21875 
Q 40.828125 74.21875 47.359375 69.109375 
Q 53.90625 64.015625 53.90625 55.328125 
Q 53.90625 49.265625 50.4375 45.09375 
Q 46.96875 40.921875 40.578125 39.3125 
z
" id="DejaVuSans-51"/>
      </defs>
      <use xlink:href="#DejaVuSans-65"/>
      <use x="66.658203" xlink:href="#DejaVuSans-67"/>
      <use x="136.482422" xlink:href="#DejaVuSans-83"/>
      <use x="199.958984" xlink:href="#DejaVuSans-70"/>
      <use x="257.478516" xlink:href="#DejaVuSans-51"/>
     </g>
    </g>
   </g>
   <g id="text_30">
    <g clip-path="url(#p5fc6b0c7ee)">
     <!-- HIBADH -->
     <g transform="translate(437.263035 268.983677)scale(0.1 -0.1)">
      <use xlink:href="#DejaVuSans-72"/>
      <use x="75.195312" xlink:href="#DejaVuSans-73"/>
      <use x="104.6875" xlink:href="#DejaVuSans-66"/>
      <use x="173.291016" xlink:href="#DejaVuSans-65"/>
      <use x="241.699219" xlink:href="#DejaVuSans-68"/>
      <use x="318.701172" xlink:href="#DejaVuSans-72"/>
     </g>
    </g>
   </g>
   <g id="text_31">
    <!-- Importance Score and Relative Abundance for network hsa00280 for dataset atherosclerosis -->
    <g transform="translate(312.388125 97.68)scale(0.12 -0.12)">
     <defs>
      <path d="M 52 44.1875 
Q 55.375 50.25 60.0625 53.125 
Q 64.75 56 71.09375 56 
Q 79.640625 56 84.28125 50.015625 
Q 88.921875 44.046875 88.921875 33.015625 
L 88.921875 0 
L 79.890625 0 
L 79.890625 32.71875 
Q 79.890625 40.578125 77.09375 44.375 
Q 74.3125 48.1875 68.609375 48.1875 
Q 61.625 48.1875 57.5625 43.546875 
Q 53.515625 38.921875 53.515625 30.90625 
L 53.515625 0 
L 44.484375 0 
L 44.484375 32.71875 
Q 44.484375 40.625 41.703125 44.40625 
Q 38.921875 48.1875 33.109375 48.1875 
Q 26.21875 48.1875 22.15625 43.53125 
Q 18.109375 38.875 18.109375 30.90625 
L 18.109375 0 
L 9.078125 0 
L 9.078125 54.6875 
L 18.109375 54.6875 
L 18.109375 46.1875 
Q 21.1875 51.21875 25.484375 53.609375 
Q 29.78125 56 35.6875 56 
Q 41.65625 56 45.828125 52.96875 
Q 50 49.953125 52 44.1875 
z
" id="DejaVuSans-109"/>
      <path d="M 18.109375 8.203125 
L 18.109375 -20.796875 
L 9.078125 -20.796875 
L 9.078125 54.6875 
L 18.109375 54.6875 
L 18.109375 46.390625 
Q 20.953125 51.265625 25.265625 53.625 
Q 29.59375 56 35.59375 56 
Q 45.5625 56 51.78125 48.09375 
Q 58.015625 40.1875 58.015625 27.296875 
Q 58.015625 14.40625 51.78125 6.484375 
Q 45.5625 -1.421875 35.59375 -1.421875 
Q 29.59375 -1.421875 25.265625 0.953125 
Q 20.953125 3.328125 18.109375 8.203125 
z
M 48.6875 27.296875 
Q 48.6875 37.203125 44.609375 42.84375 
Q 40.53125 48.484375 33.40625 48.484375 
Q 26.265625 48.484375 22.1875 42.84375 
Q 18.109375 37.203125 18.109375 27.296875 
Q 18.109375 17.390625 22.1875 11.75 
Q 26.265625 6.109375 33.40625 6.109375 
Q 40.53125 6.109375 44.609375 11.75 
Q 48.6875 17.390625 48.6875 27.296875 
z
" id="DejaVuSans-112"/>
      <path d="M 30.609375 48.390625 
Q 23.390625 48.390625 19.1875 42.75 
Q 14.984375 37.109375 14.984375 27.296875 
Q 14.984375 17.484375 19.15625 11.84375 
Q 23.34375 6.203125 30.609375 6.203125 
Q 37.796875 6.203125 41.984375 11.859375 
Q 46.1875 17.53125 46.1875 27.296875 
Q 46.1875 37.015625 41.984375 42.703125 
Q 37.796875 48.390625 30.609375 48.390625 
z
M 30.609375 56 
Q 42.328125 56 49.015625 48.375 
Q 55.71875 40.765625 55.71875 27.296875 
Q 55.71875 13.875 49.015625 6.21875 
Q 42.328125 -1.421875 30.609375 -1.421875 
Q 18.84375 -1.421875 12.171875 6.21875 
Q 5.515625 13.875 5.515625 27.296875 
Q 5.515625 40.765625 12.171875 48.375 
Q 18.84375 56 30.609375 56 
z
" id="DejaVuSans-111"/>
      <path d="M 41.109375 46.296875 
Q 39.59375 47.171875 37.8125 47.578125 
Q 36.03125 48 33.890625 48 
Q 26.265625 48 22.1875 43.046875 
Q 18.109375 38.09375 18.109375 28.8125 
L 18.109375 0 
L 9.078125 0 
L 9.078125 54.6875 
L 18.109375 54.6875 
L 18.109375 46.1875 
Q 20.953125 51.171875 25.484375 53.578125 
Q 30.03125 56 36.53125 56 
Q 37.453125 56 38.578125 55.875 
Q 39.703125 55.765625 41.0625 55.515625 
z
" id="DejaVuSans-114"/>
      <path d="M 18.3125 70.21875 
L 18.3125 54.6875 
L 36.8125 54.6875 
L 36.8125 47.703125 
L 18.3125 47.703125 
L 18.3125 18.015625 
Q 18.3125 11.328125 20.140625 9.421875 
Q 21.96875 7.515625 27.59375 7.515625 
L 36.8125 7.515625 
L 36.8125 0 
L 27.59375 0 
Q 17.1875 0 13.234375 3.875 
Q 9.28125 7.765625 9.28125 18.015625 
L 9.28125 47.703125 
L 2.6875 47.703125 
L 2.6875 54.6875 
L 9.28125 54.6875 
L 9.28125 70.21875 
z
" id="DejaVuSans-116"/>
      <path d="M 34.28125 27.484375 
Q 23.390625 27.484375 19.1875 25 
Q 14.984375 22.515625 14.984375 16.5 
Q 14.984375 11.71875 18.140625 8.90625 
Q 21.296875 6.109375 26.703125 6.109375 
Q 34.1875 6.109375 38.703125 11.40625 
Q 43.21875 16.703125 43.21875 25.484375 
L 43.21875 27.484375 
z
M 52.203125 31.203125 
L 52.203125 0 
L 43.21875 0 
L 43.21875 8.296875 
Q 40.140625 3.328125 35.546875 0.953125 
Q 30.953125 -1.421875 24.3125 -1.421875 
Q 15.921875 -1.421875 10.953125 3.296875 
Q 6 8.015625 6 15.921875 
Q 6 25.140625 12.171875 29.828125 
Q 18.359375 34.515625 30.609375 34.515625 
L 43.21875 34.515625 
L 43.21875 35.40625 
Q 43.21875 41.609375 39.140625 45 
Q 35.0625 48.390625 27.6875 48.390625 
Q 23 48.390625 18.546875 47.265625 
Q 14.109375 46.140625 10.015625 43.890625 
L 10.015625 52.203125 
Q 14.9375 54.109375 19.578125 55.046875 
Q 24.21875 56 28.609375 56 
Q 40.484375 56 46.34375 49.84375 
Q 52.203125 43.703125 52.203125 31.203125 
z
" id="DejaVuSans-97"/>
      <path d="M 54.890625 33.015625 
L 54.890625 0 
L 45.90625 0 
L 45.90625 32.71875 
Q 45.90625 40.484375 42.875 44.328125 
Q 39.84375 48.1875 33.796875 48.1875 
Q 26.515625 48.1875 22.3125 43.546875 
Q 18.109375 38.921875 18.109375 30.90625 
L 18.109375 0 
L 9.078125 0 
L 9.078125 54.6875 
L 18.109375 54.6875 
L 18.109375 46.1875 
Q 21.34375 51.125 25.703125 53.5625 
Q 30.078125 56 35.796875 56 
Q 45.21875 56 50.046875 50.171875 
Q 54.890625 44.34375 54.890625 33.015625 
z
" id="DejaVuSans-110"/>
      <path d="M 48.78125 52.59375 
L 48.78125 44.1875 
Q 44.96875 46.296875 41.140625 47.34375 
Q 37.3125 48.390625 33.40625 48.390625 
Q 24.65625 48.390625 19.8125 42.84375 
Q 14.984375 37.3125 14.984375 27.296875 
Q 14.984375 17.28125 19.8125 11.734375 
Q 24.65625 6.203125 33.40625 6.203125 
Q 37.3125 6.203125 41.140625 7.25 
Q 44.96875 8.296875 48.78125 10.40625 
L 48.78125 2.09375 
Q 45.015625 0.34375 40.984375 -0.53125 
Q 36.96875 -1.421875 32.421875 -1.421875 
Q 20.0625 -1.421875 12.78125 6.34375 
Q 5.515625 14.109375 5.515625 27.296875 
Q 5.515625 40.671875 12.859375 48.328125 
Q 20.21875 56 33.015625 56 
Q 37.15625 56 41.109375 55.140625 
Q 45.0625 54.296875 48.78125 52.59375 
z
" id="DejaVuSans-99"/>
      <path d="M 56.203125 29.59375 
L 56.203125 25.203125 
L 14.890625 25.203125 
Q 15.484375 15.921875 20.484375 11.0625 
Q 25.484375 6.203125 34.421875 6.203125 
Q 39.59375 6.203125 44.453125 7.46875 
Q 49.3125 8.734375 54.109375 11.28125 
L 54.109375 2.78125 
Q 49.265625 0.734375 44.1875 -0.34375 
Q 39.109375 -1.421875 33.890625 -1.421875 
Q 20.796875 -1.421875 13.15625 6.1875 
Q 5.515625 13.8125 5.515625 26.8125 
Q 5.515625 40.234375 12.765625 48.109375 
Q 20.015625 56 32.328125 56 
Q 43.359375 56 49.78125 48.890625 
Q 56.203125 41.796875 56.203125 29.59375 
z
M 47.21875 32.234375 
Q 47.125 39.59375 43.09375 43.984375 
Q 39.0625 48.390625 32.421875 48.390625 
Q 24.90625 48.390625 20.390625 44.140625 
Q 15.875 39.890625 15.1875 32.171875 
z
" id="DejaVuSans-101"/>
      <path id="DejaVuSans-32"/>
      <path d="M 45.40625 46.390625 
L 45.40625 75.984375 
L 54.390625 75.984375 
L 54.390625 0 
L 45.40625 0 
L 45.40625 8.203125 
Q 42.578125 3.328125 38.25 0.953125 
Q 33.9375 -1.421875 27.875 -1.421875 
Q 17.96875 -1.421875 11.734375 6.484375 
Q 5.515625 14.40625 5.515625 27.296875 
Q 5.515625 40.1875 11.734375 48.09375 
Q 17.96875 56 27.875 56 
Q 33.9375 56 38.25 53.625 
Q 42.578125 51.265625 45.40625 46.390625 
z
M 14.796875 27.296875 
Q 14.796875 17.390625 18.875 11.75 
Q 22.953125 6.109375 30.078125 6.109375 
Q 37.203125 6.109375 41.296875 11.75 
Q 45.40625 17.390625 45.40625 27.296875 
Q 45.40625 37.203125 41.296875 42.84375 
Q 37.203125 48.484375 30.078125 48.484375 
Q 22.953125 48.484375 18.875 42.84375 
Q 14.796875 37.203125 14.796875 27.296875 
z
" id="DejaVuSans-100"/>
      <path d="M 44.390625 34.1875 
Q 47.5625 33.109375 50.5625 29.59375 
Q 53.5625 26.078125 56.59375 19.921875 
L 66.609375 0 
L 56 0 
L 46.6875 18.703125 
Q 43.0625 26.03125 39.671875 28.421875 
Q 36.28125 30.8125 30.421875 30.8125 
L 19.671875 30.8125 
L 19.671875 0 
L 9.8125 0 
L 9.8125 72.90625 
L 32.078125 72.90625 
Q 44.578125 72.90625 50.734375 67.671875 
Q 56.890625 62.453125 56.890625 51.90625 
Q 56.890625 45.015625 53.6875 40.46875 
Q 50.484375 35.9375 44.390625 34.1875 
z
M 19.671875 64.796875 
L 19.671875 38.921875 
L 32.078125 38.921875 
Q 39.203125 38.921875 42.84375 42.21875 
Q 46.484375 45.515625 46.484375 51.90625 
Q 46.484375 58.296875 42.84375 61.546875 
Q 39.203125 64.796875 32.078125 64.796875 
z
" id="DejaVuSans-82"/>
      <path d="M 9.421875 75.984375 
L 18.40625 75.984375 
L 18.40625 0 
L 9.421875 0 
z
" id="DejaVuSans-108"/>
      <path d="M 9.421875 54.6875 
L 18.40625 54.6875 
L 18.40625 0 
L 9.421875 0 
z
M 9.421875 75.984375 
L 18.40625 75.984375 
L 18.40625 64.59375 
L 9.421875 64.59375 
z
" id="DejaVuSans-105"/>
      <path d="M 2.984375 54.6875 
L 12.5 54.6875 
L 29.59375 8.796875 
L 46.6875 54.6875 
L 56.203125 54.6875 
L 35.6875 0 
L 23.484375 0 
z
" id="DejaVuSans-118"/>
      <path d="M 48.6875 27.296875 
Q 48.6875 37.203125 44.609375 42.84375 
Q 40.53125 48.484375 33.40625 48.484375 
Q 26.265625 48.484375 22.1875 42.84375 
Q 18.109375 37.203125 18.109375 27.296875 
Q 18.109375 17.390625 22.1875 11.75 
Q 26.265625 6.109375 33.40625 6.109375 
Q 40.53125 6.109375 44.609375 11.75 
Q 48.6875 17.390625 48.6875 27.296875 
z
M 18.109375 46.390625 
Q 20.953125 51.265625 25.265625 53.625 
Q 29.59375 56 35.59375 56 
Q 45.5625 56 51.78125 48.09375 
Q 58.015625 40.1875 58.015625 27.296875 
Q 58.015625 14.40625 51.78125 6.484375 
Q 45.5625 -1.421875 35.59375 -1.421875 
Q 29.59375 -1.421875 25.265625 0.953125 
Q 20.953125 3.328125 18.109375 8.203125 
L 18.109375 0 
L 9.078125 0 
L 9.078125 75.984375 
L 18.109375 75.984375 
z
" id="DejaVuSans-98"/>
      <path d="M 8.5 21.578125 
L 8.5 54.6875 
L 17.484375 54.6875 
L 17.484375 21.921875 
Q 17.484375 14.15625 20.5 10.265625 
Q 23.53125 6.390625 29.59375 6.390625 
Q 36.859375 6.390625 41.078125 11.03125 
Q 45.3125 15.671875 45.3125 23.6875 
L 45.3125 54.6875 
L 54.296875 54.6875 
L 54.296875 0 
L 45.3125 0 
L 45.3125 8.40625 
Q 42.046875 3.421875 37.71875 1 
Q 33.40625 -1.421875 27.6875 -1.421875 
Q 18.265625 -1.421875 13.375 4.4375 
Q 8.5 10.296875 8.5 21.578125 
z
M 31.109375 56 
z
" id="DejaVuSans-117"/>
      <path d="M 37.109375 75.984375 
L 37.109375 68.5 
L 28.515625 68.5 
Q 23.6875 68.5 21.796875 66.546875 
Q 19.921875 64.59375 19.921875 59.515625 
L 19.921875 54.6875 
L 34.71875 54.6875 
L 34.71875 47.703125 
L 19.921875 47.703125 
L 19.921875 0 
L 10.890625 0 
L 10.890625 47.703125 
L 2.296875 47.703125 
L 2.296875 54.6875 
L 10.890625 54.6875 
L 10.890625 58.5 
Q 10.890625 67.625 15.140625 71.796875 
Q 19.390625 75.984375 28.609375 75.984375 
z
" id="DejaVuSans-102"/>
      <path d="M 4.203125 54.6875 
L 13.1875 54.6875 
L 24.421875 12.015625 
L 35.59375 54.6875 
L 46.1875 54.6875 
L 57.421875 12.015625 
L 68.609375 54.6875 
L 77.59375 54.6875 
L 63.28125 0 
L 52.6875 0 
L 40.921875 44.828125 
L 29.109375 0 
L 18.5 0 
z
" id="DejaVuSans-119"/>
      <path d="M 9.078125 75.984375 
L 18.109375 75.984375 
L 18.109375 31.109375 
L 44.921875 54.6875 
L 56.390625 54.6875 
L 27.390625 29.109375 
L 57.625 0 
L 45.90625 0 
L 18.109375 26.703125 
L 18.109375 0 
L 9.078125 0 
z
" id="DejaVuSans-107"/>
      <path d="M 54.890625 33.015625 
L 54.890625 0 
L 45.90625 0 
L 45.90625 32.71875 
Q 45.90625 40.484375 42.875 44.328125 
Q 39.84375 48.1875 33.796875 48.1875 
Q 26.515625 48.1875 22.3125 43.546875 
Q 18.109375 38.921875 18.109375 30.90625 
L 18.109375 0 
L 9.078125 0 
L 9.078125 75.984375 
L 18.109375 75.984375 
L 18.109375 46.1875 
Q 21.34375 51.125 25.703125 53.5625 
Q 30.078125 56 35.796875 56 
Q 45.21875 56 50.046875 50.171875 
Q 54.890625 44.34375 54.890625 33.015625 
z
" id="DejaVuSans-104"/>
      <path d="M 44.28125 53.078125 
L 44.28125 44.578125 
Q 40.484375 46.53125 36.375 47.5 
Q 32.28125 48.484375 27.875 48.484375 
Q 21.1875 48.484375 17.84375 46.4375 
Q 14.5 44.390625 14.5 40.28125 
Q 14.5 37.15625 16.890625 35.375 
Q 19.28125 33.59375 26.515625 31.984375 
L 29.59375 31.296875 
Q 39.15625 29.25 43.1875 25.515625 
Q 47.21875 21.78125 47.21875 15.09375 
Q 47.21875 7.46875 41.1875 3.015625 
Q 35.15625 -1.421875 24.609375 -1.421875 
Q 20.21875 -1.421875 15.453125 -0.5625 
Q 10.6875 0.296875 5.421875 2 
L 5.421875 11.28125 
Q 10.40625 8.6875 15.234375 7.390625 
Q 20.0625 6.109375 24.8125 6.109375 
Q 31.15625 6.109375 34.5625 8.28125 
Q 37.984375 10.453125 37.984375 14.40625 
Q 37.984375 18.0625 35.515625 20.015625 
Q 33.0625 21.96875 24.703125 23.78125 
L 21.578125 24.515625 
Q 13.234375 26.265625 9.515625 29.90625 
Q 5.8125 33.546875 5.8125 39.890625 
Q 5.8125 47.609375 11.28125 51.796875 
Q 16.75 56 26.8125 56 
Q 31.78125 56 36.171875 55.265625 
Q 40.578125 54.546875 44.28125 53.078125 
z
" id="DejaVuSans-115"/>
     </defs>
     <use xlink:href="#DejaVuSans-73"/>
     <use x="29.492188" xlink:href="#DejaVuSans-109"/>
     <use x="126.904297" xlink:href="#DejaVuSans-112"/>
     <use x="190.380859" xlink:href="#DejaVuSans-111"/>
     <use x="251.5625" xlink:href="#DejaVuSans-114"/>
     <use x="292.675781" xlink:href="#DejaVuSans-116"/>
     <use x="331.884766" xlink:href="#DejaVuSans-97"/>
     <use x="393.164062" xlink:href="#DejaVuSans-110"/>
     <use x="456.542969" xlink:href="#DejaVuSans-99"/>
     <use x="511.523438" xlink:href="#DejaVuSans-101"/>
     <use x="573.046875" xlink:href="#DejaVuSans-32"/>
     <use x="604.833984" xlink:href="#DejaVuSans-83"/>
     <use x="668.310547" xlink:href="#DejaVuSans-99"/>
     <use x="723.291016" xlink:href="#DejaVuSans-111"/>
     <use x="784.472656" xlink:href="#DejaVuSans-114"/>
     <use x="823.335938" xlink:href="#DejaVuSans-101"/>
     <use x="884.859375" xlink:href="#DejaVuSans-32"/>
     <use x="916.646484" xlink:href="#DejaVuSans-97"/>
     <use x="977.925781" xlink:href="#DejaVuSans-110"/>
     <use x="1041.304688" xlink:href="#DejaVuSans-100"/>
     <use x="1104.78125" xlink:href="#DejaVuSans-32"/>
     <use x="1136.568359" xlink:href="#DejaVuSans-82"/>
     <use x="1201.550781" xlink:href="#DejaVuSans-101"/>
     <use x="1263.074219" xlink:href="#DejaVuSans-108"/>
     <use x="1290.857422" xlink:href="#DejaVuSans-97"/>
     <use x="1352.136719" xlink:href="#DejaVuSans-116"/>
     <use x="1391.345703" xlink:href="#DejaVuSans-105"/>
     <use x="1419.128906" xlink:href="#DejaVuSans-118"/>
     <use x="1478.308594" xlink:href="#DejaVuSans-101"/>
     <use x="1539.832031" xlink:href="#DejaVuSans-32"/>
     <use x="1571.619141" xlink:href="#DejaVuSans-65"/>
     <use x="1640.027344" xlink:href="#DejaVuSans-98"/>
     <use x="1703.503906" xlink:href="#DejaVuSans-117"/>
     <use x="1766.882812" xlink:href="#DejaVuSans-110"/>
     <use x="1830.261719" xlink:href="#DejaVuSans-100"/>
     <use x="1893.738281" xlink:href="#DejaVuSans-97"/>
     <use x="1955.017578" xlink:href="#DejaVuSans-110"/>
     <use x="2018.396484" xlink:href="#DejaVuSans-99"/>
     <use x="2073.376953" xlink:href="#DejaVuSans-101"/>
     <use x="2134.900391" xlink:href="#DejaVuSans-32"/>
     <use x="2166.6875" xlink:href="#DejaVuSans-102"/>
     <use x="2201.892578" xlink:href="#DejaVuSans-111"/>
     <use x="2263.074219" xlink:href="#DejaVuSans-114"/>
     <use x="2304.1875" xlink:href="#DejaVuSans-32"/>
     <use x="2335.974609" xlink:href="#DejaVuSans-110"/>
     <use x="2399.353516" xlink:href="#DejaVuSans-101"/>
     <use x="2460.876953" xlink:href="#DejaVuSans-116"/>
     <use x="2500.085938" xlink:href="#DejaVuSans-119"/>
     <use x="2581.873047" xlink:href="#DejaVuSans-111"/>
     <use x="2643.054688" xlink:href="#DejaVuSans-114"/>
     <use x="2684.167969" xlink:href="#DejaVuSans-107"/>
     <use x="2742.078125" xlink:href="#DejaVuSans-32"/>
     <use x="2773.865234" xlink:href="#DejaVuSans-104"/>
     <use x="2837.244141" xlink:href="#DejaVuSans-115"/>
     <use x="2889.34375" xlink:href="#DejaVuSans-97"/>
     <use x="2950.623047" xlink:href="#DejaVuSans-48"/>
     <use x="3014.246094" xlink:href="#DejaVuSans-48"/>
     <use x="3077.869141" xlink:href="#DejaVuSans-50"/>
     <use x="3141.492188" xlink:href="#DejaVuSans-56"/>
     <use x="3205.115234" xlink:href="#DejaVuSans-48"/>
     <use x="3268.738281" xlink:href="#DejaVuSans-32"/>
     <use x="3300.525391" xlink:href="#DejaVuSans-102"/>
     <use x="3335.730469" xlink:href="#DejaVuSans-111"/>
     <use x="3396.912109" xlink:href="#DejaVuSans-114"/>
     <use x="3438.025391" xlink:href="#DejaVuSans-32"/>
     <use x="3469.8125" xlink:href="#DejaVuSans-100"/>
     <use x="3533.289062" xlink:href="#DejaVuSans-97"/>
     <use x="3594.568359" xlink:href="#DejaVuSans-116"/>
     <use x="3633.777344" xlink:href="#DejaVuSans-97"/>
     <use x="3695.056641" xlink:href="#DejaVuSans-115"/>
     <use x="3747.15625" xlink:href="#DejaVuSans-101"/>
     <use x="3808.679688" xlink:href="#DejaVuSans-116"/>
     <use x="3847.888672" xlink:href="#DejaVuSans-32"/>
     <use x="3879.675781" xlink:href="#DejaVuSans-97"/>
     <use x="3940.955078" xlink:href="#DejaVuSans-116"/>
     <use x="3980.164062" xlink:href="#DejaVuSans-104"/>
     <use x="4043.542969" xlink:href="#DejaVuSans-101"/>
     <use x="4105.066406" xlink:href="#DejaVuSans-114"/>
     <use x="4143.929688" xlink:href="#DejaVuSans-111"/>
     <use x="4205.111328" xlink:href="#DejaVuSans-115"/>
     <use x="4257.210938" xlink:href="#DejaVuSans-99"/>
     <use x="4312.191406" xlink:href="#DejaVuSans-108"/>
     <use x="4339.974609" xlink:href="#DejaVuSans-101"/>
     <use x="4401.498047" xlink:href="#DejaVuSans-114"/>
     <use x="4440.361328" xlink:href="#DejaVuSans-111"/>
     <use x="4501.542969" xlink:href="#DejaVuSans-115"/>
     <use x="4553.642578" xlink:href="#DejaVuSans-105"/>
     <use x="4581.425781" xlink:href="#DejaVuSans-115"/>
    </g>
   </g>
   <g id="legend_1">
    <g id="patch_71">
     <path d="M 803.859375 155.714375 
L 1029.8 155.714375 
Q 1031.8 155.714375 1031.8 153.714375 
L 1031.8 110.68 
Q 1031.8 108.68 1029.8 108.68 
L 803.859375 108.68 
Q 801.859375 108.68 801.859375 110.68 
L 801.859375 153.714375 
Q 801.859375 155.714375 803.859375 155.714375 
z
" style="fill:#ffffff;opacity:0.8;stroke:#cccccc;stroke-linejoin:miter;"/>
    </g>
    <g id="text_32">
     <!-- Relative Expression of AS+ compared to AS- -->
     <g transform="translate(805.859375 120.278437)scale(0.1 -0.1)">
      <defs>
       <path d="M 54.890625 54.6875 
L 35.109375 28.078125 
L 55.90625 0 
L 45.3125 0 
L 29.390625 21.484375 
L 13.484375 0 
L 2.875 0 
L 24.125 28.609375 
L 4.6875 54.6875 
L 15.28125 54.6875 
L 29.78125 35.203125 
L 44.28125 54.6875 
z
" id="DejaVuSans-120"/>
       <path d="M 46 62.703125 
L 46 35.5 
L 73.1875 35.5 
L 73.1875 27.203125 
L 46 27.203125 
L 46 0 
L 37.796875 0 
L 37.796875 27.203125 
L 10.59375 27.203125 
L 10.59375 35.5 
L 37.796875 35.5 
L 37.796875 62.703125 
z
" id="DejaVuSans-43"/>
       <path d="M 4.890625 31.390625 
L 31.203125 31.390625 
L 31.203125 23.390625 
L 4.890625 23.390625 
z
" id="DejaVuSans-45"/>
      </defs>
      <use xlink:href="#DejaVuSans-82"/>
      <use x="64.982422" xlink:href="#DejaVuSans-101"/>
      <use x="126.505859" xlink:href="#DejaVuSans-108"/>
      <use x="154.289062" xlink:href="#DejaVuSans-97"/>
      <use x="215.568359" xlink:href="#DejaVuSans-116"/>
      <use x="254.777344" xlink:href="#DejaVuSans-105"/>
      <use x="282.560547" xlink:href="#DejaVuSans-118"/>
      <use x="341.740234" xlink:href="#DejaVuSans-101"/>
      <use x="403.263672" xlink:href="#DejaVuSans-32"/>
      <use x="435.050781" xlink:href="#DejaVuSans-69"/>
      <use x="498.234375" xlink:href="#DejaVuSans-120"/>
      <use x="557.414062" xlink:href="#DejaVuSans-112"/>
      <use x="620.890625" xlink:href="#DejaVuSans-114"/>
      <use x="659.753906" xlink:href="#DejaVuSans-101"/>
      <use x="721.277344" xlink:href="#DejaVuSans-115"/>
      <use x="773.376953" xlink:href="#DejaVuSans-115"/>
      <use x="825.476562" xlink:href="#DejaVuSans-105"/>
      <use x="853.259766" xlink:href="#DejaVuSans-111"/>
      <use x="914.441406" xlink:href="#DejaVuSans-110"/>
      <use x="977.820312" xlink:href="#DejaVuSans-32"/>
      <use x="1009.607422" xlink:href="#DejaVuSans-111"/>
      <use x="1070.789062" xlink:href="#DejaVuSans-102"/>
      <use x="1105.994141" xlink:href="#DejaVuSans-32"/>
      <use x="1137.78125" xlink:href="#DejaVuSans-65"/>
      <use x="1206.189453" xlink:href="#DejaVuSans-83"/>
      <use x="1269.666016" xlink:href="#DejaVuSans-43"/>
      <use x="1353.455078" xlink:href="#DejaVuSans-32"/>
      <use x="1385.242188" xlink:href="#DejaVuSans-99"/>
      <use x="1440.222656" xlink:href="#DejaVuSans-111"/>
      <use x="1501.404297" xlink:href="#DejaVuSans-109"/>
      <use x="1598.816406" xlink:href="#DejaVuSans-112"/>
      <use x="1662.292969" xlink:href="#DejaVuSans-97"/>
      <use x="1723.572266" xlink:href="#DejaVuSans-114"/>
      <use x="1762.435547" xlink:href="#DejaVuSans-101"/>
      <use x="1823.958984" xlink:href="#DejaVuSans-100"/>
      <use x="1887.435547" xlink:href="#DejaVuSans-32"/>
      <use x="1919.222656" xlink:href="#DejaVuSans-116"/>
      <use x="1958.431641" xlink:href="#DejaVuSans-111"/>
      <use x="2019.613281" xlink:href="#DejaVuSans-32"/>
      <use x="2051.400391" xlink:href="#DejaVuSans-65"/>
      <use x="2119.808594" xlink:href="#DejaVuSans-83"/>
      <use x="2183.285156" xlink:href="#DejaVuSans-45"/>
     </g>
    </g>
    <g id="patch_72">
     <path d="M 829.136719 134.956562 
L 849.136719 134.956562 
L 849.136719 127.956562 
L 829.136719 127.956562 
z
" style="fill:#0000ff;stroke:#0000ff;stroke-linejoin:miter;"/>
    </g>
    <g id="text_33">
     <!-- Decreased expression in AS+ -->
     <g transform="translate(857.136719 134.956562)scale(0.1 -0.1)">
      <use xlink:href="#DejaVuSans-68"/>
      <use x="77.001953" xlink:href="#DejaVuSans-101"/>
      <use x="138.525391" xlink:href="#DejaVuSans-99"/>
      <use x="193.505859" xlink:href="#DejaVuSans-114"/>
      <use x="232.369141" xlink:href="#DejaVuSans-101"/>
      <use x="293.892578" xlink:href="#DejaVuSans-97"/>
      <use x="355.171875" xlink:href="#DejaVuSans-115"/>
      <use x="407.271484" xlink:href="#DejaVuSans-101"/>
      <use x="468.794922" xlink:href="#DejaVuSans-100"/>
      <use x="532.271484" xlink:href="#DejaVuSans-32"/>
      <use x="564.058594" xlink:href="#DejaVuSans-101"/>
      <use x="623.832031" xlink:href="#DejaVuSans-120"/>
      <use x="683.011719" xlink:href="#DejaVuSans-112"/>
      <use x="746.488281" xlink:href="#DejaVuSans-114"/>
      <use x="785.351562" xlink:href="#DejaVuSans-101"/>
      <use x="846.875" xlink:href="#DejaVuSans-115"/>
      <use x="898.974609" xlink:href="#DejaVuSans-115"/>
      <use x="951.074219" xlink:href="#DejaVuSans-105"/>
      <use x="978.857422" xlink:href="#DejaVuSans-111"/>
      <use x="1040.039062" xlink:href="#DejaVuSans-110"/>
      <use x="1103.417969" xlink:href="#DejaVuSans-32"/>
      <use x="1135.205078" xlink:href="#DejaVuSans-105"/>
      <use x="1162.988281" xlink:href="#DejaVuSans-110"/>
      <use x="1226.367188" xlink:href="#DejaVuSans-32"/>
      <use x="1258.154297" xlink:href="#DejaVuSans-65"/>
      <use x="1326.5625" xlink:href="#DejaVuSans-83"/>
      <use x="1390.039062" xlink:href="#DejaVuSans-43"/>
     </g>
    </g>
    <g id="patch_73">
     <path d="M 829.136719 149.634687 
L 849.136719 149.634687 
L 849.136719 142.634687 
L 829.136719 142.634687 
z
" style="fill:#ff0000;stroke:#ff0000;stroke-linejoin:miter;"/>
    </g>
    <g id="text_34">
     <!-- Increased expression in AS+ -->
     <g transform="translate(857.136719 149.634687)scale(0.1 -0.1)">
      <use xlink:href="#DejaVuSans-73"/>
      <use x="29.492188" xlink:href="#DejaVuSans-110"/>
      <use x="92.871094" xlink:href="#DejaVuSans-99"/>
      <use x="147.851562" xlink:href="#DejaVuSans-114"/>
      <use x="186.714844" xlink:href="#DejaVuSans-101"/>
      <use x="248.238281" xlink:href="#DejaVuSans-97"/>
      <use x="309.517578" xlink:href="#DejaVuSans-115"/>
      <use x="361.617188" xlink:href="#DejaVuSans-101"/>
      <use x="423.140625" xlink:href="#DejaVuSans-100"/>
      <use x="486.617188" xlink:href="#DejaVuSans-32"/>
      <use x="518.404297" xlink:href="#DejaVuSans-101"/>
      <use x="578.177734" xlink:href="#DejaVuSans-120"/>
      <use x="637.357422" xlink:href="#DejaVuSans-112"/>
      <use x="700.833984" xlink:href="#DejaVuSans-114"/>
      <use x="739.697266" xlink:href="#DejaVuSans-101"/>
      <use x="801.220703" xlink:href="#DejaVuSans-115"/>
      <use x="853.320312" xlink:href="#DejaVuSans-115"/>
      <use x="905.419922" xlink:href="#DejaVuSans-105"/>
      <use x="933.203125" xlink:href="#DejaVuSans-111"/>
      <use x="994.384766" xlink:href="#DejaVuSans-110"/>
      <use x="1057.763672" xlink:href="#DejaVuSans-32"/>
      <use x="1089.550781" xlink:href="#DejaVuSans-105"/>
      <use x="1117.333984" xlink:href="#DejaVuSans-110"/>
      <use x="1180.712891" xlink:href="#DejaVuSans-32"/>
      <use x="1212.5" xlink:href="#DejaVuSans-65"/>
      <use x="1280.908203" xlink:href="#DejaVuSans-83"/>
      <use x="1344.384766" xlink:href="#DejaVuSans-43"/>
     </g>
    </g>
   </g>
  </g>
 </g>
 <defs>
  <clipPath id="p5fc6b0c7ee">
   <rect height="665.28" width="892.8" x="144" y="103.68"/>
  </clipPath>
 </defs>
</svg>
