<?xml version="1.0" encoding="utf-8" standalone="no"?>
<!DOCTYPE svg PUBLIC "-//W3C//DTD SVG 1.1//EN"
  "http://www.w3.org/Graphics/SVG/1.1/DTD/svg11.dtd">
<!-- Created with matplotlib (https://matplotlib.org/) -->
<svg height="864pt" version="1.1" viewBox="0 0 1152 864" width="1152pt" xmlns="http://www.w3.org/2000/svg" xmlns:xlink="http://www.w3.org/1999/xlink">
 <metadata>
  <rdf:RDF xmlns:cc="http://creativecommons.org/ns#" xmlns:dc="http://purl.org/dc/elements/1.1/" xmlns:rdf="http://www.w3.org/1999/02/22-rdf-syntax-ns#">
   <cc:Work>
    <dc:type rdf:resource="http://purl.org/dc/dcmitype/StillImage"/>
    <dc:date>2024-04-26T11:31:42.631970</dc:date>
    <dc:format>image/svg+xml</dc:format>
    <dc:creator>
     <cc:Agent>
      <dc:title>Matplotlib v3.3.1, https://matplotlib.org/</dc:title>
     </cc:Agent>
    </dc:creator>
   </cc:Work>
  </rdf:RDF>
 </metadata>
 <defs>
  <style type="text/css">*{stroke-linecap:butt;stroke-linejoin:round;}</style>
 </defs>
 <g id="figure_1">
  <g id="patch_1">
   <path d="M 0 864 
L 1152 864 
L 1152 0 
L 0 0 
z
" style="fill:#ffffff;"/>
  </g>
  <g id="axes_1">
   <g id="patch_2">
    <path clip-path="url(#p945089d758)" d="M 491.062203 165.958017 
Q 569.284971 250.47207 646.7483 334.165604 
" style="fill:none;stroke:#000000;stroke-linecap:round;"/>
    <path clip-path="url(#p945089d758)" d="M 645.499037 329.871499 
L 646.7483 334.165604 
L 642.563458 332.588552 
L 645.499037 329.871499 
z
" style="stroke:#000000;stroke-linecap:round;"/>
   </g>
   <g id="patch_3">
    <path clip-path="url(#p945089d758)" d="M 654.596909 353.929528 
Q 652.586172 419.555082 650.609675 484.063126 
" style="fill:none;stroke:#000000;stroke-linecap:round;"/>
    <path clip-path="url(#p945089d758)" d="M 652.731238 480.126252 
L 650.609675 484.063126 
L 648.733114 480.003752 
L 652.731238 480.126252 
z
" style="stroke:#000000;stroke-linecap:round;"/>
   </g>
   <g id="patch_4">
    <path clip-path="url(#p945089d758)" d="M 665.684014 344.930259 
Q 809.424394 370.640204 952.064206 396.153296 
" style="fill:none;stroke:#000000;stroke-linecap:round;"/>
    <path clip-path="url(#p945089d758)" d="M 948.478834 393.480263 
L 952.064206 396.153296 
L 947.774556 397.417774 
L 948.478834 393.480263 
z
" style="stroke:#000000;stroke-linecap:round;"/>
   </g>
   <g id="patch_5">
    <path clip-path="url(#p945089d758)" d="M 665.846725 342.453172 
Q 771.068783 337.113916 875.174242 331.83132 
" style="fill:none;stroke:#000000;stroke-linecap:round;"/>
    <path clip-path="url(#p945089d758)" d="M 871.078027 330.0366 
L 875.174242 331.83132 
L 871.280737 334.03146 
L 871.078027 330.0366 
z
" style="stroke:#000000;stroke-linecap:round;"/>
   </g>
   <g id="patch_6">
    <path clip-path="url(#p945089d758)" d="M 483.150852 344.011413 
Q 443.10627 512.63692 403.32001 680.174645 
" style="fill:none;stroke:#000000;stroke-linecap:round;"/>
    <path clip-path="url(#p945089d758)" d="M 406.190097 676.74498 
L 403.32001 680.174645 
L 402.29833 675.820777 
L 406.190097 676.74498 
z
" style="stroke:#000000;stroke-linecap:round;"/>
   </g>
   <g id="patch_7">
    <path clip-path="url(#p945089d758)" d="M 491.299792 328.790402 
Q 563.397686 251.37796 634.733594 174.783672 
" style="fill:none;stroke:#000000;stroke-linecap:round;"/>
    <path clip-path="url(#p945089d758)" d="M 630.543869 176.347708 
L 634.733594 174.783672 
L 633.470988 179.073873 
L 630.543869 176.347708 
z
" style="stroke:#000000;stroke-linecap:round;"/>
   </g>
   <g id="patch_8">
    <path clip-path="url(#p945089d758)" d="M 543.898371 598.2877 
Q 385.506192 493.022935 228.045168 388.377 
" style="fill:none;stroke:#000000;stroke-linecap:round;"/>
    <path clip-path="url(#p945089d758)" d="M 230.269573 392.256693 
L 228.045168 388.377 
L 232.483566 388.925292 
L 230.269573 392.256693 
z
" style="stroke:#000000;stroke-linecap:round;"/>
   </g>
   <g id="patch_9">
    <path clip-path="url(#p945089d758)" d="M 545.236906 360.558321 
Q 386.695873 372.179301 229.269882 383.71855 
" style="fill:none;stroke:#000000;stroke-linecap:round;"/>
    <path clip-path="url(#p945089d758)" d="M 233.405386 385.420785 
L 229.269882 383.71855 
L 233.112972 381.431487 
L 233.405386 385.420785 
z
" style="stroke:#000000;stroke-linecap:round;"/>
   </g>
   <g id="patch_10">
    <path clip-path="url(#p945089d758)" d="M 345.053109 298.169621 
Q 316.974777 427.819768 289.133091 556.377213 
" style="fill:none;stroke:#000000;stroke-linecap:round;"/>
    <path clip-path="url(#p945089d758)" d="M 291.934429 552.891168 
L 289.133091 556.377213 
L 288.025058 552.044516 
L 291.934429 552.891168 
z
" style="stroke:#000000;stroke-linecap:round;"/>
   </g>
   <g id="patch_11">
    <path clip-path="url(#p945089d758)" d="M 431.621333 427.73148 
Q 538.170397 387.306507 643.674133 347.278135 
" style="fill:none;stroke:#000000;stroke-linecap:round;"/>
    <path clip-path="url(#p945089d758)" d="M 639.224798 346.827115 
L 643.674133 347.278135 
L 640.643716 350.566991 
L 639.224798 346.827115 
z
" style="stroke:#000000;stroke-linecap:round;"/>
   </g>
   <g id="patch_12">
    <path clip-path="url(#p945089d758)" d="M 645.349313 495.539049 
Q 525.975979 589.534443 407.481053 682.838173 
" style="fill:none;stroke:#000000;stroke-linecap:round;"/>
    <path clip-path="url(#p945089d758)" d="M 411.861027 681.934943 
L 407.481053 682.838173 
L 409.386453 678.792255 
L 411.861027 681.934943 
z
" style="stroke:#000000;stroke-linecap:round;"/>
   </g>
   <g id="patch_13">
    <path clip-path="url(#p945089d758)" d="M 650.168439 485.182441 
Q 645.063239 330.413766 639.994899 176.762518 
" style="fill:none;stroke:#000000;stroke-linecap:round;"/>
    <path clip-path="url(#p945089d758)" d="M 638.127859 180.82628 
L 639.994899 176.762518 
L 642.125684 180.694408 
L 638.127859 180.82628 
z
" style="stroke:#000000;stroke-linecap:round;"/>
   </g>
   <g id="patch_14">
    <path clip-path="url(#p945089d758)" d="M 362.886501 475.861559 
Q 478.622899 591.35725 593.567905 706.063195 
" style="fill:none;stroke:#000000;stroke-linecap:round;"/>
    <path clip-path="url(#p945089d758)" d="M 592.149276 701.822029 
L 593.567905 706.063195 
L 589.323795 704.653399 
L 592.149276 701.822029 
z
" style="stroke:#000000;stroke-linecap:round;"/>
   </g>
   <g id="patch_15">
    <path clip-path="url(#p945089d758)" d="M 759.203482 174.608063 
Q 709.943372 254.163062 661.271847 332.767499 
" style="fill:none;stroke:#000000;stroke-linecap:round;"/>
    <path clip-path="url(#p945089d758)" d="M 665.078047 330.419555 
L 661.271847 332.767499 
L 661.677211 328.313772 
L 665.078047 330.419555 
z
" style="stroke:#000000;stroke-linecap:round;"/>
   </g>
   <g id="patch_16">
    <path clip-path="url(#p945089d758)" d="M 598.007625 468.317939 
Q 598.366701 586.676709 598.722385 703.91745 
" style="fill:none;stroke:#000000;stroke-linecap:round;"/>
    <path clip-path="url(#p945089d758)" d="M 600.710241 699.911401 
L 598.722385 703.91745 
L 596.710259 699.923536 
L 600.710241 699.911401 
z
" style="stroke:#000000;stroke-linecap:round;"/>
   </g>
   <g id="patch_17">
    <path clip-path="url(#p945089d758)" d="M 606.247287 443.013109 
Q 683.106058 338.169635 759.303812 234.227857 
" style="fill:none;stroke:#000000;stroke-linecap:round;"/>
    <path clip-path="url(#p945089d758)" d="M 755.325883 236.271402 
L 759.303812 234.227857 
L 758.551891 238.636328 
L 755.325883 236.271402 
z
" style="stroke:#000000;stroke-linecap:round;"/>
   </g>
   <g id="patch_18">
    <path clip-path="url(#p945089d758)" d="M 609.663818 446.612051 
Q 747.566199 355.859808 884.534641 265.722182 
" style="fill:none;stroke:#000000;stroke-linecap:round;"/>
    <path clip-path="url(#p945089d758)" d="M 880.093811 266.250421 
L 884.534641 265.722182 
L 882.292734 269.591789 
L 880.093811 266.250421 
z
" style="stroke:#000000;stroke-linecap:round;"/>
   </g>
   <g id="patch_19">
    <path clip-path="url(#p945089d758)" d="M 585.684914 461.037457 
Q 439.570686 541.072993 294.437023 620.571413 
" style="fill:none;stroke:#000000;stroke-linecap:round;"/>
    <path clip-path="url(#p945089d758)" d="M 298.906019 620.403863 
L 294.437023 620.571413 
L 296.98438 616.895686 
L 298.906019 620.403863 
z
" style="stroke:#000000;stroke-linecap:round;"/>
   </g>
   <g id="patch_20">
    <path clip-path="url(#p945089d758)" d="M 585.635379 447.677844 
Q 454.38201 377.067834 324.11324 306.987508 
" style="fill:none;stroke:#000000;stroke-linecap:round;"/>
    <path clip-path="url(#p945089d758)" d="M 326.688326 310.643862 
L 324.11324 306.987508 
L 328.583375 307.121251 
L 326.688326 310.643862 
z
" style="stroke:#000000;stroke-linecap:round;"/>
   </g>
   <g id="patch_21">
    <path clip-path="url(#p945089d758)" d="M 611.925171 455.425897 
Q 778.6657 468.744213 944.291744 481.97351 
" style="fill:none;stroke:#000000;stroke-linecap:round;"/>
    <path clip-path="url(#p945089d758)" d="M 940.463685 479.661375 
L 944.291744 481.97351 
L 940.145202 483.648676 
L 940.463685 479.661375 
z
" style="stroke:#000000;stroke-linecap:round;"/>
   </g>
   <g id="patch_22">
    <path clip-path="url(#p945089d758)" d="M 584.03688 455.74641 
Q 405.642089 474.133301 228.359441 492.405566 
" style="fill:none;stroke:#000000;stroke-linecap:round;"/>
    <path clip-path="url(#p945089d758)" d="M 232.543413 493.984925 
L 228.359441 492.405566 
L 232.133311 490.006004 
L 232.543413 493.984925 
z
" style="stroke:#000000;stroke-linecap:round;"/>
   </g>
   <g id="patch_23">
    <path clip-path="url(#p945089d758)" d="M 567.214523 473.698191 
Q 582.571804 589.391933 597.781967 703.977363 
" style="fill:none;stroke:#000000;stroke-linecap:round;"/>
    <path clip-path="url(#p945089d758)" d="M 599.23823 699.748971 
L 597.781967 703.977363 
L 595.273011 700.275318 
L 599.23823 699.748971 
z
" style="stroke:#000000;stroke-linecap:round;"/>
   </g>
   <g id="patch_24">
    <path clip-path="url(#p945089d758)" d="M 575.471113 446.063912 
Q 667.536812 339.549196 758.871399 233.880338 
" style="fill:none;stroke:#000000;stroke-linecap:round;"/>
    <path clip-path="url(#p945089d758)" d="M 754.742573 235.598709 
L 758.871399 233.880338 
L 757.768801 238.214421 
L 754.742573 235.598709 
z
" style="stroke:#000000;stroke-linecap:round;"/>
   </g>
   <g id="patch_25">
    <path clip-path="url(#p945089d758)" d="M 578.672281 449.858976 
Q 732.009746 357.386553 884.389802 265.49151 
" style="fill:none;stroke:#000000;stroke-linecap:round;"/>
    <path clip-path="url(#p945089d758)" d="M 879.931622 265.844541 
L 884.389802 265.49151 
L 881.997319 269.269873 
L 879.931622 265.844541 
z
" style="stroke:#000000;stroke-linecap:round;"/>
   </g>
   <g id="patch_26">
    <path clip-path="url(#p945089d758)" d="M 551.573471 466.150581 
Q 422.459045 543.531893 294.303612 620.338459 
" style="fill:none;stroke:#000000;stroke-linecap:round;"/>
    <path clip-path="url(#p945089d758)" d="M 298.762746 619.99768 
L 294.303612 620.338459 
L 296.706469 616.566685 
L 298.762746 619.99768 
z
" style="stroke:#000000;stroke-linecap:round;"/>
   </g>
   <g id="patch_27">
    <path clip-path="url(#p945089d758)" d="M 551.718639 449.647753 
Q 437.325626 378.226634 323.880982 307.397627 
" style="fill:none;stroke:#000000;stroke-linecap:round;"/>
    <path clip-path="url(#p945089d758)" d="M 326.214765 311.212526 
L 323.880982 307.397627 
L 328.333171 307.81954 
L 326.214765 311.212526 
z
" style="stroke:#000000;stroke-linecap:round;"/>
   </g>
   <g id="patch_28">
    <path clip-path="url(#p945089d758)" d="M 580.915216 459.025231 
Q 763.155166 470.592738 944.279328 482.089421 
" style="fill:none;stroke:#000000;stroke-linecap:round;"/>
    <path clip-path="url(#p945089d758)" d="M 940.414054 479.840051 
L 944.279328 482.089421 
L 940.160668 483.832018 
L 940.414054 479.840051 
z
" style="stroke:#000000;stroke-linecap:round;"/>
   </g>
   <g id="patch_29">
    <path clip-path="url(#p945089d758)" d="M 549.404995 459.629626 
Q 388.325643 476.077722 228.358542 492.412245 
" style="fill:none;stroke:#000000;stroke-linecap:round;"/>
    <path clip-path="url(#p945089d758)" d="M 232.541017 493.995565 
L 228.358542 492.412245 
L 232.134683 490.016257 
L 232.541017 493.995565 
z
" style="stroke:#000000;stroke-linecap:round;"/>
   </g>
   <g id="patch_30">
    <path clip-path="url(#p945089d758)" d="M 586.4806 394.457099 
Q 672.823341 313.533557 758.350328 233.374571 
" style="fill:none;stroke:#000000;stroke-linecap:round;"/>
    <path clip-path="url(#p945089d758)" d="M 754.064117 234.650659 
L 758.350328 233.374571 
L 756.799472 237.569192 
L 754.064117 234.650659 
z
" style="stroke:#000000;stroke-linecap:round;"/>
   </g>
   <g id="patch_31">
    <path clip-path="url(#p945089d758)" d="M 589.086542 398.366346 
Q 737.058558 331.339205 884.01215 264.773381 
" style="fill:none;stroke:#000000;stroke-linecap:round;"/>
    <path clip-path="url(#p945089d758)" d="M 879.543298 264.602027 
L 884.01215 264.773381 
L 881.193756 268.24565 
L 879.543298 264.602027 
z
" style="stroke:#000000;stroke-linecap:round;"/>
   </g>
   <g id="patch_32">
    <path clip-path="url(#p945089d758)" d="M 564.523215 413.0477 
Q 428.751883 516.710929 293.869181 619.695678 
" style="fill:none;stroke:#000000;stroke-linecap:round;"/>
    <path clip-path="url(#p945089d758)" d="M 298.262145 618.8579 
L 293.869181 619.695678 
L 295.834737 615.67864 
L 298.262145 618.8579 
z
" style="stroke:#000000;stroke-linecap:round;"/>
   </g>
   <g id="patch_33">
    <path clip-path="url(#p945089d758)" d="M 562.55107 399.071538 
Q 442.997755 352.424171 324.485998 306.183201 
" style="fill:none;stroke:#000000;stroke-linecap:round;"/>
    <path clip-path="url(#p945089d758)" d="M 327.485406 309.500361 
L 324.485998 306.183201 
L 328.939371 305.77397 
L 327.485406 309.500361 
z
" style="stroke:#000000;stroke-linecap:round;"/>
   </g>
   <g id="patch_34">
    <path clip-path="url(#p945089d758)" d="M 590.066001 407.244789 
Q 767.788266 444.27893 944.416008 481.084993 
" style="fill:none;stroke:#000000;stroke-linecap:round;"/>
    <path clip-path="url(#p945089d758)" d="M 940.908125 478.311051 
L 944.416008 481.084993 
L 940.092124 482.226935 
L 940.908125 478.311051 
z
" style="stroke:#000000;stroke-linecap:round;"/>
   </g>
   <g id="patch_35">
    <path clip-path="url(#p945089d758)" d="M 562.001294 407.807078 
Q 394.550188 449.756594 228.183601 491.434419 
" style="fill:none;stroke:#000000;stroke-linecap:round;"/>
    <path clip-path="url(#p945089d758)" d="M 232.549714 492.402433 
L 228.183601 491.434419 
L 231.57768 488.522336 
L 232.549714 492.402433 
z
" style="stroke:#000000;stroke-linecap:round;"/>
   </g>
   <g id="patch_36">
    <path clip-path="url(#p945089d758)" d="M 819.376748 470.833763 
Q 741.466278 410.272302 664.438526 350.396995 
" style="fill:none;stroke:#000000;stroke-linecap:round;"/>
    <path clip-path="url(#p945089d758)" d="M 666.369201 354.430913 
L 664.438526 350.396995 
L 668.824065 351.272805 
L 666.369201 354.430913 
z
" style="stroke:#000000;stroke-linecap:round;"/>
   </g>
   <g id="patch_37">
    <path clip-path="url(#p945089d758)" d="M 720.506449 539.266691 
Q 837.224873 469.95745 952.981978 401.219055 
" style="fill:none;stroke:#000000;stroke-linecap:round;"/>
    <path clip-path="url(#p945089d758)" d="M 948.521497 401.541717 
L 952.981978 401.219055 
L 950.563819 404.981037 
L 948.521497 401.541717 
z
" style="stroke:#000000;stroke-linecap:round;"/>
   </g>
   <g id="patch_38">
    <path clip-path="url(#p945089d758)" d="M 718.381588 536.823991 
Q 798.530532 436.633432 877.981064 337.315925 
" style="fill:none;stroke:#000000;stroke-linecap:round;"/>
    <path clip-path="url(#p945089d758)" d="M 873.920586 339.190097 
L 877.981064 337.315925 
L 877.044115 341.688811 
L 873.920586 339.190097 
z
" style="stroke:#000000;stroke-linecap:round;"/>
   </g>
   <g id="patch_39">
    <path clip-path="url(#p945089d758)" d="M 895.559231 525.08766 
Q 779.601857 437.343837 664.536038 350.274645 
" style="fill:none;stroke:#000000;stroke-linecap:round;"/>
    <path clip-path="url(#p945089d758)" d="M 666.518947 354.283145 
L 664.536038 350.274645 
L 668.932583 351.093417 
L 666.518947 354.283145 
z
" style="stroke:#000000;stroke-linecap:round;"/>
   </g>
   <g id="PathCollection_1">
    <path clip-path="url(#p945089d758)" d="M 486.853585 167.606792 
C 488.496753 167.606792 490.072842 166.953955 491.234736 165.79206 
C 492.396631 164.630165 493.049469 163.054077 493.049469 161.410909 
C 493.049469 159.767742 492.396631 158.191653 491.234736 157.029758 
C 490.072842 155.867863 488.496753 155.215026 486.853585 155.215026 
C 485.210418 155.215026 483.634329 155.867863 482.472434 157.029758 
C 481.310539 158.191653 480.657702 159.767742 480.657702 161.410909 
C 480.657702 163.054077 481.310539 164.630165 482.472434 165.79206 
C 483.634329 166.953955 485.210418 167.606792 486.853585 167.606792 
z
" style="fill:#5e7de7;stroke:#5e7de7;"/>
    <path clip-path="url(#p945089d758)" d="M 654.931569 353.932965 
C 657.829159 353.932965 660.608462 352.78174 662.657367 350.732834 
C 664.706273 348.683929 665.857498 345.904627 665.857498 343.007036 
C 665.857498 340.109446 664.706273 337.330144 662.657367 335.281239 
C 660.608462 333.232333 657.829159 332.081108 654.931569 332.081108 
C 652.033979 332.081108 649.254677 333.232333 647.205771 335.281239 
C 645.156866 337.330144 644.005641 340.109446 644.005641 343.007036 
C 644.005641 345.904627 645.156866 348.683929 647.205771 350.732834 
C 649.254677 352.78174 652.033979 353.932965 654.931569 353.932965 
z
" style="fill:#b40426;stroke:#b40426;"/>
    <path clip-path="url(#p945089d758)" d="M 485.213622 344.252623 
C 487.581202 344.252623 489.85213 343.311974 491.526262 341.637842 
C 493.200393 339.963711 494.141043 337.692782 494.141043 335.325203 
C 494.141043 332.957623 493.200393 330.686695 491.526262 329.012563 
C 489.85213 327.338431 487.581202 326.397782 485.213622 326.397782 
C 482.846042 326.397782 480.575114 327.338431 478.900982 329.012563 
C 477.226851 330.686695 476.286201 332.957623 476.286201 335.325203 
C 476.286201 337.692782 477.226851 339.963711 478.900982 341.637842 
C 480.575114 343.311974 482.846042 344.252623 485.213622 344.252623 
z
" style="fill:#f4c5ad;stroke:#f4c5ad;"/>
    <path clip-path="url(#p945089d758)" d="M 549.439276 608.623441 
C 551.203765 608.623441 552.896222 607.922402 554.143904 606.67472 
C 555.391586 605.427038 556.092625 603.734581 556.092625 601.970092 
C 556.092625 600.205603 555.391586 598.513146 554.143904 597.265464 
C 552.896222 596.017782 551.203765 595.316743 549.439276 595.316743 
C 547.674787 595.316743 545.98233 596.017782 544.734648 597.265464 
C 543.486966 598.513146 542.785927 600.205603 542.785927 601.970092 
C 542.785927 603.734581 543.486966 605.427038 544.734648 606.67472 
C 545.98233 607.922402 547.674787 608.623441 549.439276 608.623441 
z
" style="fill:#c4d5f3;stroke:#c4d5f3;"/>
    <path clip-path="url(#p945089d758)" d="M 221.853562 390.57552 
C 223.527884 390.57552 225.133855 389.910305 226.31778 388.726381 
C 227.501704 387.542456 228.16692 385.936484 228.16692 384.262162 
C 228.16692 382.58784 227.501704 380.981869 226.31778 379.797944 
C 225.133855 378.614019 223.527884 377.948804 221.853562 377.948804 
C 220.179239 377.948804 218.573268 378.614019 217.389343 379.797944 
C 216.205419 380.981869 215.540203 382.58784 215.540203 384.262162 
C 215.540203 385.936484 216.205419 387.542456 217.389343 388.726381 
C 218.573268 389.910305 220.179239 390.57552 221.853562 390.57552 
z
" style="fill:#cedaeb;stroke:#cedaeb;"/>
    <path clip-path="url(#p945089d758)" d="M 551.17398 366.07712 
C 552.752995 366.07712 554.267551 365.449771 555.384083 364.333239 
C 556.500615 363.216707 557.127964 361.702151 557.127964 360.123136 
C 557.127964 358.544121 556.500615 357.029566 555.384083 355.913034 
C 554.267551 354.796501 552.752995 354.169152 551.17398 354.169152 
C 549.594965 354.169152 548.08041 354.796501 546.963878 355.913034 
C 545.847345 357.029566 545.219996 358.544121 545.219996 360.123136 
C 545.219996 361.702151 545.847345 363.216707 546.963878 364.333239 
C 548.08041 365.449771 549.594965 366.07712 551.17398 366.07712 
z
" style="fill:#a6c4fe;stroke:#a6c4fe;"/>
    <path clip-path="url(#p945089d758)" d="M 346.927 298.370996 
C 349.275097 298.370996 351.527339 297.438087 353.187694 295.777731 
C 354.84805 294.117375 355.780959 291.865134 355.780959 289.517036 
C 355.780959 287.168939 354.84805 284.916697 353.187694 283.256341 
C 351.527339 281.595986 349.275097 280.663077 346.927 280.663077 
C 344.578902 280.663077 342.32666 281.595986 340.666305 283.256341 
C 339.005949 284.916697 338.07304 287.168939 338.07304 289.517036 
C 338.07304 291.865134 339.005949 294.117375 340.666305 295.777731 
C 342.32666 297.438087 344.578902 298.370996 346.927 298.370996 
z
" style="fill:#d7dce3;stroke:#d7dce3;"/>
    <path clip-path="url(#p945089d758)" d="M 287.571139 569.850862 
C 289.231687 569.850862 290.824446 569.191119 291.998631 568.016935 
C 293.172815 566.84275 293.832558 565.24999 293.832558 563.589443 
C 293.832558 561.928895 293.172815 560.336135 291.998631 559.161951 
C 290.824446 557.987766 289.231687 557.328024 287.571139 557.328024 
C 285.910591 557.328024 284.317831 557.987766 283.143647 559.161951 
C 281.969462 560.336135 281.30972 561.928895 281.30972 563.589443 
C 281.30972 565.24999 281.969462 566.84275 283.143647 568.016935 
C 284.317831 569.191119 285.910591 569.850862 287.571139 569.850862 
z
" style="fill:#a9c6fd;stroke:#a9c6fd;"/>
    <path clip-path="url(#p945089d758)" d="M 426.065206 435.779744 
C 427.64058 435.779744 429.151643 435.153841 430.265601 434.039883 
C 431.379559 432.925926 432.005462 431.414862 432.005462 429.839488 
C 432.005462 428.264113 431.379559 426.75305 430.265601 425.639092 
C 429.151643 424.525134 427.64058 423.899231 426.065206 423.899231 
C 424.489831 423.899231 422.978768 424.525134 421.86481 425.639092 
C 420.750852 426.75305 420.124949 428.264113 420.124949 429.839488 
C 420.124949 431.414862 420.750852 432.925926 421.86481 434.039883 
C 422.978768 435.153841 424.489831 435.779744 426.065206 435.779744 
z
" style="fill:#3b4cc0;stroke:#3b4cc0;"/>
    <path clip-path="url(#p945089d758)" d="M 763.396227 234.446564 
C 764.934722 234.446564 766.410411 233.835314 767.498291 232.747434 
C 768.586171 231.659554 769.197421 230.183865 769.197421 228.645371 
C 769.197421 227.106876 768.586171 225.631188 767.498291 224.543308 
C 766.410411 223.455428 764.934722 222.844177 763.396227 222.844177 
C 761.857733 222.844177 760.382044 223.455428 759.294164 224.543308 
C 758.206284 225.631188 757.595034 227.106876 757.595034 228.645371 
C 757.595034 230.183865 758.206284 231.659554 759.294164 232.747434 
C 760.382044 233.835314 761.857733 234.446564 763.396227 234.446564 
z
" style="fill:#bbd1f8;stroke:#bbd1f8;"/>
    <path clip-path="url(#p945089d758)" d="M 890.314098 267.71997 
C 891.852593 267.71997 893.328282 267.108719 894.416161 266.020839 
C 895.504041 264.93296 896.115292 263.457271 896.115292 261.918776 
C 896.115292 260.380282 895.504041 258.904593 894.416161 257.816713 
C 893.328282 256.728833 891.852593 256.117583 890.314098 256.117583 
C 888.775604 256.117583 887.299915 256.728833 886.212035 257.816713 
C 885.124155 258.904593 884.512905 260.380282 884.512905 261.918776 
C 884.512905 263.457271 885.124155 264.93296 886.212035 266.020839 
C 887.299915 267.108719 888.775604 267.71997 890.314098 267.71997 
z
" style="fill:#dedcdb;stroke:#dedcdb;"/>
    <path clip-path="url(#p945089d758)" d="M 288.368563 629.696667 
C 289.907057 629.696667 291.382746 629.085417 292.470626 627.997537 
C 293.558506 626.909657 294.169756 625.433968 294.169756 623.895473 
C 294.169756 622.356979 293.558506 620.88129 292.470626 619.79341 
C 291.382746 618.70553 289.907057 618.09428 288.368563 618.09428 
C 286.830068 618.09428 285.354379 618.70553 284.266499 619.79341 
C 283.17862 620.88129 282.567369 622.356979 282.567369 623.895473 
C 282.567369 625.433968 283.17862 626.909657 284.266499 627.997537 
C 285.354379 629.085417 286.830068 629.696667 288.368563 629.696667 
z
" style="fill:#dcdddd;stroke:#dcdddd;"/>
    <path clip-path="url(#p945089d758)" d="M 317.686751 309.71296 
C 319.32642 309.71296 320.899154 309.061513 322.058575 307.902091 
C 323.217996 306.74267 323.869444 305.169937 323.869444 303.530267 
C 323.869444 301.890598 323.217996 300.317865 322.058575 299.158444 
C 320.899154 297.999022 319.32642 297.347575 317.686751 297.347575 
C 316.047082 297.347575 314.474348 297.999022 313.314927 299.158444 
C 312.155506 300.317865 311.504058 301.890598 311.504058 303.530267 
C 311.504058 305.169937 312.155506 306.74267 313.314927 307.902091 
C 314.474348 309.061513 316.047082 309.71296 317.686751 309.71296 
z
" style="fill:#f7b99e;stroke:#f7b99e;"/>
    <path clip-path="url(#p945089d758)" d="M 650.379413 497.981551 
C 652.077572 497.981551 653.706407 497.306865 654.907186 496.106086 
C 656.107965 494.905306 656.782651 493.276471 656.782651 491.578313 
C 656.782651 489.880155 656.107965 488.25132 654.907186 487.05054 
C 653.706407 485.849761 652.077572 485.175075 650.379413 485.175075 
C 648.681255 485.175075 647.05242 485.849761 645.851641 487.05054 
C 644.650861 488.25132 643.976176 489.880155 643.976176 491.578313 
C 643.976176 493.276471 644.650861 494.905306 645.851641 496.106086 
C 647.05242 497.306865 648.681255 497.981551 650.379413 497.981551 
z
" style="fill:#c3d5f4;stroke:#c3d5f4;"/>
    <path clip-path="url(#p945089d758)" d="M 359.348676 477.331092 
C 360.674691 477.331092 361.946575 476.804261 362.884209 475.866626 
C 363.821844 474.928991 364.348676 473.657108 364.348676 472.331092 
C 364.348676 471.005077 363.821844 469.733193 362.884209 468.795558 
C 361.946575 467.857924 360.674691 467.331092 359.348676 467.331092 
C 358.02266 467.331092 356.750776 467.857924 355.813142 468.795558 
C 354.875507 469.733193 354.348676 471.005077 354.348676 472.331092 
C 354.348676 473.657108 354.875507 474.928991 355.813142 475.866626 
C 356.750776 476.804261 358.02266 477.331092 359.348676 477.331092 
z
" style="fill:#e5d8d1;stroke:#e5d8d1;"/>
    <path clip-path="url(#p945089d758)" d="M 598.744567 717.424974 
C 600.387734 717.424974 601.963823 716.772137 603.125718 715.610242 
C 604.287613 714.448347 604.94045 712.872258 604.94045 711.229091 
C 604.94045 709.585923 604.287613 708.009835 603.125718 706.84794 
C 601.963823 705.686045 600.387734 705.033208 598.744567 705.033208 
C 597.1014 705.033208 595.525311 705.686045 594.363416 706.84794 
C 593.201521 708.009835 592.548684 709.585923 592.548684 711.229091 
C 592.548684 712.872258 593.201521 714.448347 594.363416 715.610242 
C 595.525311 716.772137 597.1014 717.424974 598.744567 717.424974 
z
" style="fill:#bfd3f6;stroke:#bfd3f6;"/>
    <path clip-path="url(#p945089d758)" d="M 763.523222 175.834711 
C 765.698688 175.834711 767.785346 174.970389 769.323633 173.432102 
C 770.86192 171.893815 771.726243 169.807157 771.726243 167.631691 
C 771.726243 165.456224 770.86192 163.369566 769.323633 161.831279 
C 767.785346 160.292992 765.698688 159.42867 763.523222 159.42867 
C 761.347755 159.42867 759.261097 160.292992 757.72281 161.831279 
C 756.184523 163.369566 755.320201 165.456224 755.320201 167.631691 
C 755.320201 169.807157 756.184523 171.893815 757.72281 173.432102 
C 759.261097 174.970389 761.347755 175.834711 763.523222 175.834711 
z
" style="fill:#ead5c9;stroke:#ead5c9;"/>
    <path clip-path="url(#p945089d758)" d="M 959.32562 403.713519 
C 960.986168 403.713519 962.578927 403.053777 963.753112 401.879592 
C 964.927296 400.705408 965.587039 399.112648 965.587039 397.4521 
C 965.587039 395.791552 964.927296 394.198793 963.753112 393.024608 
C 962.578927 391.850424 960.986168 391.190681 959.32562 391.190681 
C 957.665072 391.190681 956.072312 391.850424 954.898128 393.024608 
C 953.723943 394.198793 953.064201 395.791552 953.064201 397.4521 
C 953.064201 399.112648 953.723943 400.705408 954.898128 401.879592 
C 956.072312 403.053777 957.665072 403.713519 959.32562 403.713519 
z
" style="fill:#a6c4fe;stroke:#a6c4fe;"/>
    <path clip-path="url(#p945089d758)" d="M 882.672947 337.84129 
C 884.367721 337.84129 885.993309 337.16795 887.191695 335.969564 
C 888.390081 334.771178 889.063422 333.145589 889.063422 331.450815 
C 889.063422 329.756042 888.390081 328.130453 887.191695 326.932067 
C 885.993309 325.733681 884.367721 325.06034 882.672947 325.06034 
C 880.978173 325.06034 879.352585 325.733681 878.154199 326.932067 
C 876.955813 328.130453 876.282472 329.756042 876.282472 331.450815 
C 876.282472 333.145589 876.955813 334.771178 878.154199 335.969564 
C 879.352585 337.16795 880.978173 337.84129 882.672947 337.84129 
z
" style="fill:#c9d7f0;stroke:#c9d7f0;"/>
    <path clip-path="url(#p945089d758)" d="M 597.96513 468.315043 
C 601.679087 468.315043 605.24143 466.839473 607.867594 464.213309 
C 610.493758 461.587145 611.969328 458.024802 611.969328 454.310845 
C 611.969328 450.596889 610.493758 447.034546 607.867594 444.408382 
C 605.24143 441.782218 601.679087 440.306647 597.96513 440.306647 
C 594.251174 440.306647 590.688831 441.782218 588.062667 444.408382 
C 585.436503 447.034546 583.960932 450.596889 583.960932 454.310845 
C 583.960932 458.024802 585.436503 461.587145 588.062667 464.213309 
C 590.688831 466.839473 594.251174 468.315043 597.96513 468.315043 
z
" style="fill:#b3cdfb;stroke:#b3cdfb;"/>
    <path clip-path="url(#p945089d758)" d="M 565.133855 473.834912 
C 569.327084 473.834912 573.349134 472.168925 576.314195 469.203864 
C 579.279256 466.238803 580.945243 462.216753 580.945243 458.023524 
C 580.945243 453.830295 579.279256 449.808245 576.314195 446.843184 
C 573.349134 443.878123 569.327084 442.212136 565.133855 442.212136 
C 560.940626 442.212136 556.918576 443.878123 553.953515 446.843184 
C 550.988454 449.808245 549.322467 453.830295 549.322467 458.023524 
C 549.322467 462.216753 550.988454 466.238803 553.953515 469.203864 
C 556.918576 472.168925 560.940626 473.834912 565.133855 473.834912 
z
" style="fill:#afcafc;stroke:#afcafc;"/>
    <path clip-path="url(#p945089d758)" d="M 401.584974 693.871261 
C 403.279748 693.871261 404.905336 693.197921 406.103722 691.999535 
C 407.302108 690.801149 407.975449 689.17556 407.975449 687.480786 
C 407.975449 685.786013 407.302108 684.160424 406.103722 682.962038 
C 404.905336 681.763652 403.279748 681.090311 401.584974 681.090311 
C 399.8902 681.090311 398.264612 681.763652 397.066226 682.962038 
C 395.86784 684.160424 395.194499 685.786013 395.194499 687.480786 
C 395.194499 689.17556 395.86784 690.801149 397.066226 691.999535 
C 398.264612 693.197921 399.8902 693.871261 401.584974 693.871261 
z
" style="fill:#d3dbe7;stroke:#d3dbe7;"/>
    <path clip-path="url(#p945089d758)" d="M 639.75189 175.64383 
C 641.408976 175.64383 642.998415 174.985462 644.170152 173.813725 
C 645.341889 172.641988 646.000256 171.052549 646.000256 169.395463 
C 646.000256 167.738376 645.341889 166.148937 644.170152 164.9772 
C 642.998415 163.805463 641.408976 163.147096 639.75189 163.147096 
C 638.094803 163.147096 636.505364 163.805463 635.333627 164.9772 
C 634.16189 166.148937 633.503523 167.738376 633.503523 169.395463 
C 633.503523 171.052549 634.16189 172.641988 635.333627 173.813725 
C 636.505364 174.985462 638.094803 175.64383 639.75189 175.64383 
z
" style="fill:#d6dce4;stroke:#d6dce4;"/>
    <path clip-path="url(#p945089d758)" d="M 575.970506 418.708369 
C 579.789651 418.708369 583.452887 417.191007 586.15343 414.490464 
C 588.853973 411.789921 590.371335 408.126684 590.371335 404.30754 
C 590.371335 400.488395 588.853973 396.825158 586.15343 394.124615 
C 583.452887 391.424072 579.789651 389.90671 575.970506 389.90671 
C 572.151361 389.90671 568.488125 391.424072 565.787582 394.124615 
C 563.087039 396.825158 561.569676 400.488395 561.569676 404.30754 
C 561.569676 408.126684 563.087039 411.789921 565.787582 414.490464 
C 568.488125 417.191007 572.151361 418.708369 575.970506 418.708369 
z
" style="fill:#b3cdfb;stroke:#b3cdfb;"/>
    <path clip-path="url(#p945089d758)" d="M 823.944025 480.171108 
C 825.478782 480.171108 826.950887 479.561342 828.036125 478.476104 
C 829.121362 477.390867 829.731128 475.918762 829.731128 474.384004 
C 829.731128 472.849247 829.121362 471.377142 828.036125 470.291904 
C 826.950887 469.206667 825.478782 468.596901 823.944025 468.596901 
C 822.409267 468.596901 820.937162 469.206667 819.851925 470.291904 
C 818.766687 471.377142 818.156921 472.849247 818.156921 474.384004 
C 818.156921 475.918762 818.766687 477.390867 819.851925 478.476104 
C 820.937162 479.561342 822.409267 480.171108 823.944025 480.171108 
z
" style="fill:#9abbff;stroke:#9abbff;"/>
    <path clip-path="url(#p945089d758)" d="M 951.40736 488.564019 
C 953.004453 488.564019 954.536349 487.929487 955.665665 486.800171 
C 956.794981 485.670855 957.429513 484.138959 957.429513 482.541866 
C 957.429513 480.944772 956.794981 479.412876 955.665665 478.28356 
C 954.536349 477.154245 953.004453 476.519713 951.40736 476.519713 
C 949.810266 476.519713 948.27837 477.154245 947.149054 478.28356 
C 946.019739 479.412876 945.385207 480.944772 945.385207 482.541866 
C 945.385207 484.138959 946.019739 485.670855 947.149054 486.800171 
C 948.27837 487.929487 949.810266 488.564019 951.40736 488.564019 
z
" style="fill:#e8765c;stroke:#e8765c;"/>
    <path clip-path="url(#p945089d758)" d="M 221.47438 498.916393 
C 223.012875 498.916393 224.488564 498.305142 225.576443 497.217262 
C 226.664323 496.129383 227.275574 494.653694 227.275574 493.115199 
C 227.275574 491.576705 226.664323 490.101016 225.576443 489.013136 
C 224.488564 487.925256 223.012875 487.314006 221.47438 487.314006 
C 219.935886 487.314006 218.460197 487.925256 217.372317 489.013136 
C 216.284437 490.101016 215.673187 491.576705 215.673187 493.115199 
C 215.673187 494.653694 216.284437 496.129383 217.372317 497.217262 
C 218.460197 498.305142 219.935886 498.916393 221.47438 498.916393 
z
" style="fill:#cad8ef;stroke:#cad8ef;"/>
    <path clip-path="url(#p945089d758)" d="M 712.736577 552.917056 
C 715.133083 552.917056 717.431756 551.964915 719.126342 550.270329 
C 720.820928 548.575743 721.773069 546.27707 721.773069 543.880564 
C 721.773069 541.484058 720.820928 539.185384 719.126342 537.490798 
C 717.431756 535.796213 715.133083 534.844071 712.736577 534.844071 
C 710.340071 534.844071 708.041397 535.796213 706.346811 537.490798 
C 704.652226 539.185384 703.700084 541.484058 703.700084 543.880564 
C 703.700084 546.27707 704.652226 548.575743 706.346811 550.270329 
C 708.041397 551.964915 710.340071 552.917056 712.736577 552.917056 
z
" style="fill:#9ebeff;stroke:#9ebeff;"/>
    <path clip-path="url(#p945089d758)" d="M 905.599568 545.277271 
C 908.939054 545.277271 912.142214 543.950479 914.503588 541.589105 
C 916.864961 539.227732 918.191753 536.024572 918.191753 532.685086 
C 918.191753 529.345599 916.864961 526.142439 914.503588 523.781066 
C 912.142214 521.419692 908.939054 520.0929 905.599568 520.0929 
C 902.260081 520.0929 899.056922 521.419692 896.695548 523.781066 
C 894.334174 526.142439 893.007382 529.345599 893.007382 532.685086 
C 893.007382 536.024572 894.334174 539.227732 896.695548 541.589105 
C 899.056922 543.950479 902.260081 545.277271 905.599568 545.277271 
z
" style="fill:#aac7fd;stroke:#aac7fd;"/>
   </g>
   <g id="text_1">
    <g clip-path="url(#p945089d758)">
     <!-- FCGR2A -->
     <g transform="translate(466.536398 164.170284)scale(0.1 -0.1)">
      <defs>
       <path d="M 9.8125 72.90625 
L 51.703125 72.90625 
L 51.703125 64.59375 
L 19.671875 64.59375 
L 19.671875 43.109375 
L 48.578125 43.109375 
L 48.578125 34.8125 
L 19.671875 34.8125 
L 19.671875 0 
L 9.8125 0 
z
" id="DejaVuSans-70"/>
       <path d="M 64.40625 67.28125 
L 64.40625 56.890625 
Q 59.421875 61.53125 53.78125 63.8125 
Q 48.140625 66.109375 41.796875 66.109375 
Q 29.296875 66.109375 22.65625 58.46875 
Q 16.015625 50.828125 16.015625 36.375 
Q 16.015625 21.96875 22.65625 14.328125 
Q 29.296875 6.6875 41.796875 6.6875 
Q 48.140625 6.6875 53.78125 8.984375 
Q 59.421875 11.28125 64.40625 15.921875 
L 64.40625 5.609375 
Q 59.234375 2.09375 53.4375 0.328125 
Q 47.65625 -1.421875 41.21875 -1.421875 
Q 24.65625 -1.421875 15.125 8.703125 
Q 5.609375 18.84375 5.609375 36.375 
Q 5.609375 53.953125 15.125 64.078125 
Q 24.65625 74.21875 41.21875 74.21875 
Q 47.75 74.21875 53.53125 72.484375 
Q 59.328125 70.75 64.40625 67.28125 
z
" id="DejaVuSans-67"/>
       <path d="M 59.515625 10.40625 
L 59.515625 29.984375 
L 43.40625 29.984375 
L 43.40625 38.09375 
L 69.28125 38.09375 
L 69.28125 6.78125 
Q 63.578125 2.734375 56.6875 0.65625 
Q 49.8125 -1.421875 42 -1.421875 
Q 24.90625 -1.421875 15.25 8.5625 
Q 5.609375 18.5625 5.609375 36.375 
Q 5.609375 54.25 15.25 64.234375 
Q 24.90625 74.21875 42 74.21875 
Q 49.125 74.21875 55.546875 72.453125 
Q 61.96875 70.703125 67.390625 67.28125 
L 67.390625 56.78125 
Q 61.921875 61.421875 55.765625 63.765625 
Q 49.609375 66.109375 42.828125 66.109375 
Q 29.4375 66.109375 22.71875 58.640625 
Q 16.015625 51.171875 16.015625 36.375 
Q 16.015625 21.625 22.71875 14.15625 
Q 29.4375 6.6875 42.828125 6.6875 
Q 48.046875 6.6875 52.140625 7.59375 
Q 56.25 8.5 59.515625 10.40625 
z
" id="DejaVuSans-71"/>
       <path d="M 44.390625 34.1875 
Q 47.5625 33.109375 50.5625 29.59375 
Q 53.5625 26.078125 56.59375 19.921875 
L 66.609375 0 
L 56 0 
L 46.6875 18.703125 
Q 43.0625 26.03125 39.671875 28.421875 
Q 36.28125 30.8125 30.421875 30.8125 
L 19.671875 30.8125 
L 19.671875 0 
L 9.8125 0 
L 9.8125 72.90625 
L 32.078125 72.90625 
Q 44.578125 72.90625 50.734375 67.671875 
Q 56.890625 62.453125 56.890625 51.90625 
Q 56.890625 45.015625 53.6875 40.46875 
Q 50.484375 35.9375 44.390625 34.1875 
z
M 19.671875 64.796875 
L 19.671875 38.921875 
L 32.078125 38.921875 
Q 39.203125 38.921875 42.84375 42.21875 
Q 46.484375 45.515625 46.484375 51.90625 
Q 46.484375 58.296875 42.84375 61.546875 
Q 39.203125 64.796875 32.078125 64.796875 
z
" id="DejaVuSans-82"/>
       <path d="M 19.1875 8.296875 
L 53.609375 8.296875 
L 53.609375 0 
L 7.328125 0 
L 7.328125 8.296875 
Q 12.9375 14.109375 22.625 23.890625 
Q 32.328125 33.6875 34.8125 36.53125 
Q 39.546875 41.84375 41.421875 45.53125 
Q 43.3125 49.21875 43.3125 52.78125 
Q 43.3125 58.59375 39.234375 62.25 
Q 35.15625 65.921875 28.609375 65.921875 
Q 23.96875 65.921875 18.8125 64.3125 
Q 13.671875 62.703125 7.8125 59.421875 
L 7.8125 69.390625 
Q 13.765625 71.78125 18.9375 73 
Q 24.125 74.21875 28.421875 74.21875 
Q 39.75 74.21875 46.484375 68.546875 
Q 53.21875 62.890625 53.21875 53.421875 
Q 53.21875 48.921875 51.53125 44.890625 
Q 49.859375 40.875 45.40625 35.40625 
Q 44.1875 33.984375 37.640625 27.21875 
Q 31.109375 20.453125 19.1875 8.296875 
z
" id="DejaVuSans-50"/>
       <path d="M 34.1875 63.1875 
L 20.796875 26.90625 
L 47.609375 26.90625 
z
M 28.609375 72.90625 
L 39.796875 72.90625 
L 67.578125 0 
L 57.328125 0 
L 50.6875 18.703125 
L 17.828125 18.703125 
L 11.1875 0 
L 0.78125 0 
z
" id="DejaVuSans-65"/>
      </defs>
      <use xlink:href="#DejaVuSans-70"/>
      <use x="57.519531" xlink:href="#DejaVuSans-67"/>
      <use x="127.34375" xlink:href="#DejaVuSans-71"/>
      <use x="204.833984" xlink:href="#DejaVuSans-82"/>
      <use x="274.316406" xlink:href="#DejaVuSans-50"/>
      <use x="337.939453" xlink:href="#DejaVuSans-65"/>
     </g>
    </g>
   </g>
   <g id="text_2">
    <g clip-path="url(#p945089d758)">
     <!-- SYK -->
     <g transform="translate(645.424538 345.766411)scale(0.1 -0.1)">
      <defs>
       <path d="M 53.515625 70.515625 
L 53.515625 60.890625 
Q 47.90625 63.578125 42.921875 64.890625 
Q 37.9375 66.21875 33.296875 66.21875 
Q 25.25 66.21875 20.875 63.09375 
Q 16.5 59.96875 16.5 54.203125 
Q 16.5 49.359375 19.40625 46.890625 
Q 22.3125 44.4375 30.421875 42.921875 
L 36.375 41.703125 
Q 47.40625 39.59375 52.65625 34.296875 
Q 57.90625 29 57.90625 20.125 
Q 57.90625 9.515625 50.796875 4.046875 
Q 43.703125 -1.421875 29.984375 -1.421875 
Q 24.8125 -1.421875 18.96875 -0.25 
Q 13.140625 0.921875 6.890625 3.21875 
L 6.890625 13.375 
Q 12.890625 10.015625 18.65625 8.296875 
Q 24.421875 6.59375 29.984375 6.59375 
Q 38.421875 6.59375 43.015625 9.90625 
Q 47.609375 13.234375 47.609375 19.390625 
Q 47.609375 24.75 44.3125 27.78125 
Q 41.015625 30.8125 33.5 32.328125 
L 27.484375 33.5 
Q 16.453125 35.6875 11.515625 40.375 
Q 6.59375 45.0625 6.59375 53.421875 
Q 6.59375 63.09375 13.40625 68.65625 
Q 20.21875 74.21875 32.171875 74.21875 
Q 37.3125 74.21875 42.625 73.28125 
Q 47.953125 72.359375 53.515625 70.515625 
z
" id="DejaVuSans-83"/>
       <path d="M -0.203125 72.90625 
L 10.40625 72.90625 
L 30.609375 42.921875 
L 50.6875 72.90625 
L 61.28125 72.90625 
L 35.5 34.71875 
L 35.5 0 
L 25.59375 0 
L 25.59375 34.71875 
z
" id="DejaVuSans-89"/>
       <path d="M 9.8125 72.90625 
L 19.671875 72.90625 
L 19.671875 42.09375 
L 52.390625 72.90625 
L 65.09375 72.90625 
L 28.90625 38.921875 
L 67.671875 0 
L 54.6875 0 
L 19.671875 35.109375 
L 19.671875 0 
L 9.8125 0 
z
" id="DejaVuSans-75"/>
      </defs>
      <use xlink:href="#DejaVuSans-83"/>
      <use x="63.476562" xlink:href="#DejaVuSans-89"/>
      <use x="124.560547" xlink:href="#DejaVuSans-75"/>
     </g>
    </g>
   </g>
   <g id="text_3">
    <g clip-path="url(#p945089d758)">
     <!-- RAF1 -->
     <g transform="translate(472.462059 338.084578)scale(0.1 -0.1)">
      <defs>
       <path d="M 12.40625 8.296875 
L 28.515625 8.296875 
L 28.515625 63.921875 
L 10.984375 60.40625 
L 10.984375 69.390625 
L 28.421875 72.90625 
L 38.28125 72.90625 
L 38.28125 8.296875 
L 54.390625 8.296875 
L 54.390625 0 
L 12.40625 0 
z
" id="DejaVuSans-49"/>
      </defs>
      <use xlink:href="#DejaVuSans-82"/>
      <use x="65.482422" xlink:href="#DejaVuSans-65"/>
      <use x="133.890625" xlink:href="#DejaVuSans-70"/>
      <use x="191.410156" xlink:href="#DejaVuSans-49"/>
     </g>
    </g>
   </g>
   <g id="text_4">
    <g clip-path="url(#p945089d758)">
     <!-- CASP1 -->
     <g transform="translate(533.157245 604.729467)scale(0.1 -0.1)">
      <defs>
       <path d="M 19.671875 64.796875 
L 19.671875 37.40625 
L 32.078125 37.40625 
Q 38.96875 37.40625 42.71875 40.96875 
Q 46.484375 44.53125 46.484375 51.125 
Q 46.484375 57.671875 42.71875 61.234375 
Q 38.96875 64.796875 32.078125 64.796875 
z
M 9.8125 72.90625 
L 32.078125 72.90625 
Q 44.34375 72.90625 50.609375 67.359375 
Q 56.890625 61.8125 56.890625 51.125 
Q 56.890625 40.328125 50.609375 34.8125 
Q 44.34375 29.296875 32.078125 29.296875 
L 19.671875 29.296875 
L 19.671875 0 
L 9.8125 0 
z
" id="DejaVuSans-80"/>
      </defs>
      <use xlink:href="#DejaVuSans-67"/>
      <use x="69.824219" xlink:href="#DejaVuSans-65"/>
      <use x="138.232422" xlink:href="#DejaVuSans-83"/>
      <use x="201.708984" xlink:href="#DejaVuSans-80"/>
      <use x="262.011719" xlink:href="#DejaVuSans-49"/>
     </g>
    </g>
   </g>
   <g id="text_5">
    <g clip-path="url(#p945089d758)">
     <!-- GSDMD -->
     <g transform="translate(202.791062 387.021537)scale(0.1 -0.1)">
      <defs>
       <path d="M 19.671875 64.796875 
L 19.671875 8.109375 
L 31.59375 8.109375 
Q 46.6875 8.109375 53.6875 14.9375 
Q 60.6875 21.78125 60.6875 36.53125 
Q 60.6875 51.171875 53.6875 57.984375 
Q 46.6875 64.796875 31.59375 64.796875 
z
M 9.8125 72.90625 
L 30.078125 72.90625 
Q 51.265625 72.90625 61.171875 64.09375 
Q 71.09375 55.28125 71.09375 36.53125 
Q 71.09375 17.671875 61.125 8.828125 
Q 51.171875 0 30.078125 0 
L 9.8125 0 
z
" id="DejaVuSans-68"/>
       <path d="M 9.8125 72.90625 
L 24.515625 72.90625 
L 43.109375 23.296875 
L 61.8125 72.90625 
L 76.515625 72.90625 
L 76.515625 0 
L 66.890625 0 
L 66.890625 64.015625 
L 48.09375 14.015625 
L 38.1875 14.015625 
L 19.390625 64.015625 
L 19.390625 0 
L 9.8125 0 
z
" id="DejaVuSans-77"/>
      </defs>
      <use xlink:href="#DejaVuSans-71"/>
      <use x="77.490234" xlink:href="#DejaVuSans-83"/>
      <use x="140.966797" xlink:href="#DejaVuSans-68"/>
      <use x="217.96875" xlink:href="#DejaVuSans-77"/>
      <use x="304.248047" xlink:href="#DejaVuSans-68"/>
     </g>
    </g>
   </g>
   <g id="text_6">
    <g clip-path="url(#p945089d758)">
     <!-- CASP4 -->
     <g transform="translate(534.891949 362.882511)scale(0.1 -0.1)">
      <defs>
       <path d="M 37.796875 64.3125 
L 12.890625 25.390625 
L 37.796875 25.390625 
z
M 35.203125 72.90625 
L 47.609375 72.90625 
L 47.609375 25.390625 
L 58.015625 25.390625 
L 58.015625 17.1875 
L 47.609375 17.1875 
L 47.609375 0 
L 37.796875 0 
L 37.796875 17.1875 
L 4.890625 17.1875 
L 4.890625 26.703125 
z
" id="DejaVuSans-52"/>
      </defs>
      <use xlink:href="#DejaVuSans-67"/>
      <use x="69.824219" xlink:href="#DejaVuSans-65"/>
      <use x="138.232422" xlink:href="#DejaVuSans-83"/>
      <use x="201.708984" xlink:href="#DejaVuSans-80"/>
      <use x="262.011719" xlink:href="#DejaVuSans-52"/>
     </g>
    </g>
   </g>
   <g id="text_7">
    <g clip-path="url(#p945089d758)">
     <!-- HMGB1 -->
     <g transform="translate(328.366843 292.276411)scale(0.1 -0.1)">
      <defs>
       <path d="M 9.8125 72.90625 
L 19.671875 72.90625 
L 19.671875 43.015625 
L 55.515625 43.015625 
L 55.515625 72.90625 
L 65.375 72.90625 
L 65.375 0 
L 55.515625 0 
L 55.515625 34.71875 
L 19.671875 34.71875 
L 19.671875 0 
L 9.8125 0 
z
" id="DejaVuSans-72"/>
       <path d="M 19.671875 34.8125 
L 19.671875 8.109375 
L 35.5 8.109375 
Q 43.453125 8.109375 47.28125 11.40625 
Q 51.125 14.703125 51.125 21.484375 
Q 51.125 28.328125 47.28125 31.5625 
Q 43.453125 34.8125 35.5 34.8125 
z
M 19.671875 64.796875 
L 19.671875 42.828125 
L 34.28125 42.828125 
Q 41.5 42.828125 45.03125 45.53125 
Q 48.578125 48.25 48.578125 53.8125 
Q 48.578125 59.328125 45.03125 62.0625 
Q 41.5 64.796875 34.28125 64.796875 
z
M 9.8125 72.90625 
L 35.015625 72.90625 
Q 46.296875 72.90625 52.390625 68.21875 
Q 58.5 63.53125 58.5 54.890625 
Q 58.5 48.1875 55.375 44.234375 
Q 52.25 40.28125 46.1875 39.3125 
Q 53.46875 37.75 57.5 32.78125 
Q 61.53125 27.828125 61.53125 20.40625 
Q 61.53125 10.640625 54.890625 5.3125 
Q 48.25 0 35.984375 0 
L 9.8125 0 
z
" id="DejaVuSans-66"/>
      </defs>
      <use xlink:href="#DejaVuSans-72"/>
      <use x="75.195312" xlink:href="#DejaVuSans-77"/>
      <use x="161.474609" xlink:href="#DejaVuSans-71"/>
      <use x="238.964844" xlink:href="#DejaVuSans-66"/>
      <use x="307.568359" xlink:href="#DejaVuSans-49"/>
     </g>
    </g>
   </g>
   <g id="text_8">
    <g clip-path="url(#p945089d758)">
     <!-- AGER -->
     <g transform="translate(273.730514 566.348818)scale(0.1 -0.1)">
      <defs>
       <path d="M 9.8125 72.90625 
L 55.90625 72.90625 
L 55.90625 64.59375 
L 19.671875 64.59375 
L 19.671875 43.015625 
L 54.390625 43.015625 
L 54.390625 34.71875 
L 19.671875 34.71875 
L 19.671875 8.296875 
L 56.78125 8.296875 
L 56.78125 0 
L 9.8125 0 
z
" id="DejaVuSans-69"/>
      </defs>
      <use xlink:href="#DejaVuSans-65"/>
      <use x="66.658203" xlink:href="#DejaVuSans-71"/>
      <use x="144.148438" xlink:href="#DejaVuSans-69"/>
      <use x="207.332031" xlink:href="#DejaVuSans-82"/>
     </g>
    </g>
   </g>
   <g id="text_9">
    <g clip-path="url(#p945089d758)">
     <!-- ITGAM -->
     <g transform="translate(409.927706 432.598863)scale(0.1 -0.1)">
      <defs>
       <path d="M 9.8125 72.90625 
L 19.671875 72.90625 
L 19.671875 0 
L 9.8125 0 
z
" id="DejaVuSans-73"/>
       <path d="M -0.296875 72.90625 
L 61.375 72.90625 
L 61.375 64.59375 
L 35.5 64.59375 
L 35.5 0 
L 25.59375 0 
L 25.59375 64.59375 
L -0.296875 64.59375 
z
" id="DejaVuSans-84"/>
      </defs>
      <use xlink:href="#DejaVuSans-73"/>
      <use x="29.492188" xlink:href="#DejaVuSans-84"/>
      <use x="90.576172" xlink:href="#DejaVuSans-71"/>
      <use x="168.066406" xlink:href="#DejaVuSans-65"/>
      <use x="236.474609" xlink:href="#DejaVuSans-77"/>
     </g>
    </g>
   </g>
   <g id="text_10">
    <g clip-path="url(#p945089d758)">
     <!-- CYBA -->
     <g transform="translate(750.087634 231.404746)scale(0.1 -0.1)">
      <use xlink:href="#DejaVuSans-67"/>
      <use x="68.074219" xlink:href="#DejaVuSans-89"/>
      <use x="129.158203" xlink:href="#DejaVuSans-66"/>
      <use x="197.761719" xlink:href="#DejaVuSans-65"/>
     </g>
    </g>
   </g>
   <g id="text_11">
    <g clip-path="url(#p945089d758)">
     <!-- NCF1 -->
     <g transform="translate(877.025036 264.678151)scale(0.1 -0.1)">
      <defs>
       <path d="M 9.8125 72.90625 
L 23.09375 72.90625 
L 55.421875 11.921875 
L 55.421875 72.90625 
L 64.984375 72.90625 
L 64.984375 0 
L 51.703125 0 
L 19.390625 60.984375 
L 19.390625 0 
L 9.8125 0 
z
" id="DejaVuSans-78"/>
      </defs>
      <use xlink:href="#DejaVuSans-78"/>
      <use x="74.804688" xlink:href="#DejaVuSans-67"/>
      <use x="144.628906" xlink:href="#DejaVuSans-70"/>
      <use x="202.148438" xlink:href="#DejaVuSans-49"/>
     </g>
    </g>
   </g>
   <g id="text_12">
    <g clip-path="url(#p945089d758)">
     <!-- NCF2 -->
     <g transform="translate(275.0795 626.654848)scale(0.1 -0.1)">
      <use xlink:href="#DejaVuSans-78"/>
      <use x="74.804688" xlink:href="#DejaVuSans-67"/>
      <use x="144.628906" xlink:href="#DejaVuSans-70"/>
      <use x="202.148438" xlink:href="#DejaVuSans-50"/>
     </g>
    </g>
   </g>
   <g id="text_13">
    <g clip-path="url(#p945089d758)">
     <!-- NCF4 -->
     <g transform="translate(304.397689 306.289642)scale(0.1 -0.1)">
      <use xlink:href="#DejaVuSans-78"/>
      <use x="74.804688" xlink:href="#DejaVuSans-67"/>
      <use x="144.628906" xlink:href="#DejaVuSans-70"/>
      <use x="202.148438" xlink:href="#DejaVuSans-52"/>
     </g>
    </g>
   </g>
   <g id="text_14">
    <g clip-path="url(#p945089d758)">
     <!-- MAP3K7 -->
     <g transform="translate(629.988788 494.337688)scale(0.1 -0.1)">
      <defs>
       <path d="M 40.578125 39.3125 
Q 47.65625 37.796875 51.625 33 
Q 55.609375 28.21875 55.609375 21.1875 
Q 55.609375 10.40625 48.1875 4.484375 
Q 40.765625 -1.421875 27.09375 -1.421875 
Q 22.515625 -1.421875 17.65625 -0.515625 
Q 12.796875 0.390625 7.625 2.203125 
L 7.625 11.71875 
Q 11.71875 9.328125 16.59375 8.109375 
Q 21.484375 6.890625 26.8125 6.890625 
Q 36.078125 6.890625 40.9375 10.546875 
Q 45.796875 14.203125 45.796875 21.1875 
Q 45.796875 27.640625 41.28125 31.265625 
Q 36.765625 34.90625 28.71875 34.90625 
L 20.21875 34.90625 
L 20.21875 43.015625 
L 29.109375 43.015625 
Q 36.375 43.015625 40.234375 45.921875 
Q 44.09375 48.828125 44.09375 54.296875 
Q 44.09375 59.90625 40.109375 62.90625 
Q 36.140625 65.921875 28.71875 65.921875 
Q 24.65625 65.921875 20.015625 65.03125 
Q 15.375 64.15625 9.8125 62.3125 
L 9.8125 71.09375 
Q 15.4375 72.65625 20.34375 73.4375 
Q 25.25 74.21875 29.59375 74.21875 
Q 40.828125 74.21875 47.359375 69.109375 
Q 53.90625 64.015625 53.90625 55.328125 
Q 53.90625 49.265625 50.4375 45.09375 
Q 46.96875 40.921875 40.578125 39.3125 
z
" id="DejaVuSans-51"/>
       <path d="M 8.203125 72.90625 
L 55.078125 72.90625 
L 55.078125 68.703125 
L 28.609375 0 
L 18.3125 0 
L 43.21875 64.59375 
L 8.203125 64.59375 
z
" id="DejaVuSans-55"/>
      </defs>
      <use xlink:href="#DejaVuSans-77"/>
      <use x="86.279297" xlink:href="#DejaVuSans-65"/>
      <use x="154.6875" xlink:href="#DejaVuSans-80"/>
      <use x="214.990234" xlink:href="#DejaVuSans-51"/>
      <use x="278.613281" xlink:href="#DejaVuSans-75"/>
      <use x="344.189453" xlink:href="#DejaVuSans-55"/>
     </g>
    </g>
   </g>
   <g id="text_15">
    <g clip-path="url(#p945089d758)">
     <!-- MTOR -->
     <g transform="translate(344.570551 475.090467)scale(0.1 -0.1)">
      <defs>
       <path d="M 39.40625 66.21875 
Q 28.65625 66.21875 22.328125 58.203125 
Q 16.015625 50.203125 16.015625 36.375 
Q 16.015625 22.609375 22.328125 14.59375 
Q 28.65625 6.59375 39.40625 6.59375 
Q 50.140625 6.59375 56.421875 14.59375 
Q 62.703125 22.609375 62.703125 36.375 
Q 62.703125 50.203125 56.421875 58.203125 
Q 50.140625 66.21875 39.40625 66.21875 
z
M 39.40625 74.21875 
Q 54.734375 74.21875 63.90625 63.9375 
Q 73.09375 53.65625 73.09375 36.375 
Q 73.09375 19.140625 63.90625 8.859375 
Q 54.734375 -1.421875 39.40625 -1.421875 
Q 24.03125 -1.421875 14.8125 8.828125 
Q 5.609375 19.09375 5.609375 36.375 
Q 5.609375 53.65625 14.8125 63.9375 
Q 24.03125 74.21875 39.40625 74.21875 
z
" id="DejaVuSans-79"/>
      </defs>
      <use xlink:href="#DejaVuSans-77"/>
      <use x="86.279297" xlink:href="#DejaVuSans-84"/>
      <use x="147.363281" xlink:href="#DejaVuSans-79"/>
      <use x="226.074219" xlink:href="#DejaVuSans-82"/>
     </g>
    </g>
   </g>
   <g id="text_16">
    <g clip-path="url(#p945089d758)">
     <!-- ATG7 -->
     <g transform="translate(585.60238 713.988466)scale(0.1 -0.1)">
      <use xlink:href="#DejaVuSans-65"/>
      <use x="60.658203" xlink:href="#DejaVuSans-84"/>
      <use x="121.742188" xlink:href="#DejaVuSans-71"/>
      <use x="199.232422" xlink:href="#DejaVuSans-55"/>
     </g>
    </g>
   </g>
   <g id="text_17">
    <g clip-path="url(#p945089d758)">
     <!-- CLEC7A -->
     <g transform="translate(743.993534 170.391066)scale(0.1 -0.1)">
      <defs>
       <path d="M 9.8125 72.90625 
L 19.671875 72.90625 
L 19.671875 8.296875 
L 55.171875 8.296875 
L 55.171875 0 
L 9.8125 0 
z
" id="DejaVuSans-76"/>
      </defs>
      <use xlink:href="#DejaVuSans-67"/>
      <use x="69.824219" xlink:href="#DejaVuSans-76"/>
      <use x="125.537109" xlink:href="#DejaVuSans-69"/>
      <use x="188.720703" xlink:href="#DejaVuSans-67"/>
      <use x="258.544922" xlink:href="#DejaVuSans-55"/>
      <use x="322.167969" xlink:href="#DejaVuSans-65"/>
     </g>
    </g>
   </g>
   <g id="text_18">
    <g clip-path="url(#p945089d758)">
     <!-- PLCG1 -->
     <g transform="translate(942.977964 400.211475)scale(0.1 -0.1)">
      <use xlink:href="#DejaVuSans-80"/>
      <use x="60.302734" xlink:href="#DejaVuSans-76"/>
      <use x="116.015625" xlink:href="#DejaVuSans-67"/>
      <use x="185.839844" xlink:href="#DejaVuSans-71"/>
      <use x="263.330078" xlink:href="#DejaVuSans-49"/>
     </g>
    </g>
   </g>
   <g id="text_19">
    <g clip-path="url(#p945089d758)">
     <!-- PLCG2 -->
     <g transform="translate(866.325291 334.21019)scale(0.1 -0.1)">
      <use xlink:href="#DejaVuSans-80"/>
      <use x="60.302734" xlink:href="#DejaVuSans-76"/>
      <use x="116.015625" xlink:href="#DejaVuSans-67"/>
      <use x="185.839844" xlink:href="#DejaVuSans-71"/>
      <use x="263.330078" xlink:href="#DejaVuSans-50"/>
     </g>
    </g>
   </g>
   <g id="text_20">
    <g clip-path="url(#p945089d758)">
     <!-- PRKCA -->
     <g transform="translate(581.560443 457.07022)scale(0.1 -0.1)">
      <use xlink:href="#DejaVuSans-80"/>
      <use x="60.302734" xlink:href="#DejaVuSans-82"/>
      <use x="129.785156" xlink:href="#DejaVuSans-75"/>
      <use x="189.861328" xlink:href="#DejaVuSans-67"/>
      <use x="259.685547" xlink:href="#DejaVuSans-65"/>
     </g>
    </g>
   </g>
   <g id="text_21">
    <g clip-path="url(#p945089d758)">
     <!-- PRKCB -->
     <g transform="translate(548.719011 460.782899)scale(0.1 -0.1)">
      <use xlink:href="#DejaVuSans-80"/>
      <use x="60.302734" xlink:href="#DejaVuSans-82"/>
      <use x="129.785156" xlink:href="#DejaVuSans-75"/>
      <use x="189.861328" xlink:href="#DejaVuSans-67"/>
      <use x="259.685547" xlink:href="#DejaVuSans-66"/>
     </g>
    </g>
   </g>
   <g id="text_22">
    <g clip-path="url(#p945089d758)">
     <!-- MAP2K1 -->
     <g transform="translate(381.194349 690.240161)scale(0.1 -0.1)">
      <use xlink:href="#DejaVuSans-77"/>
      <use x="86.279297" xlink:href="#DejaVuSans-65"/>
      <use x="154.6875" xlink:href="#DejaVuSans-80"/>
      <use x="214.990234" xlink:href="#DejaVuSans-50"/>
      <use x="278.613281" xlink:href="#DejaVuSans-75"/>
      <use x="344.189453" xlink:href="#DejaVuSans-49"/>
     </g>
    </g>
   </g>
   <g id="text_23">
    <g clip-path="url(#p945089d758)">
     <!-- MAP2K2 -->
     <g transform="translate(619.361265 172.154838)scale(0.1 -0.1)">
      <use xlink:href="#DejaVuSans-77"/>
      <use x="86.279297" xlink:href="#DejaVuSans-65"/>
      <use x="154.6875" xlink:href="#DejaVuSans-80"/>
      <use x="214.990234" xlink:href="#DejaVuSans-50"/>
      <use x="278.613281" xlink:href="#DejaVuSans-75"/>
      <use x="344.189453" xlink:href="#DejaVuSans-50"/>
     </g>
    </g>
   </g>
   <g id="text_24">
    <g clip-path="url(#p945089d758)">
     <!-- TLR7 -->
     <g transform="translate(563.475193 407.066915)scale(0.1 -0.1)">
      <use xlink:href="#DejaVuSans-84"/>
      <use x="61.083984" xlink:href="#DejaVuSans-76"/>
      <use x="116.796875" xlink:href="#DejaVuSans-82"/>
      <use x="186.279297" xlink:href="#DejaVuSans-55"/>
     </g>
    </g>
   </g>
   <g id="text_25">
    <g clip-path="url(#p945089d758)">
     <!-- ITGB2 -->
     <g transform="translate(808.929181 477.143379)scale(0.1 -0.1)">
      <use xlink:href="#DejaVuSans-73"/>
      <use x="29.492188" xlink:href="#DejaVuSans-84"/>
      <use x="90.576172" xlink:href="#DejaVuSans-71"/>
      <use x="168.066406" xlink:href="#DejaVuSans-66"/>
      <use x="236.669922" xlink:href="#DejaVuSans-50"/>
     </g>
    </g>
   </g>
   <g id="text_26">
    <g clip-path="url(#p945089d758)">
     <!-- RAC1 -->
     <g transform="translate(938.127672 485.301241)scale(0.1 -0.1)">
      <use xlink:href="#DejaVuSans-82"/>
      <use x="65.482422" xlink:href="#DejaVuSans-65"/>
      <use x="132.140625" xlink:href="#DejaVuSans-67"/>
      <use x="201.964844" xlink:href="#DejaVuSans-49"/>
     </g>
    </g>
   </g>
   <g id="text_27">
    <g clip-path="url(#p945089d758)">
     <!-- RAC2 -->
     <g transform="translate(208.194693 495.874574)scale(0.1 -0.1)">
      <use xlink:href="#DejaVuSans-82"/>
      <use x="65.482422" xlink:href="#DejaVuSans-65"/>
      <use x="132.140625" xlink:href="#DejaVuSans-67"/>
      <use x="201.964844" xlink:href="#DejaVuSans-50"/>
     </g>
    </g>
   </g>
   <g id="text_28">
    <g clip-path="url(#p945089d758)">
     <!-- FPR1 -->
     <g transform="translate(700.190483 546.639939)scale(0.1 -0.1)">
      <use xlink:href="#DejaVuSans-70"/>
      <use x="57.519531" xlink:href="#DejaVuSans-80"/>
      <use x="117.822266" xlink:href="#DejaVuSans-82"/>
      <use x="187.304688" xlink:href="#DejaVuSans-49"/>
     </g>
    </g>
   </g>
   <g id="text_29">
    <g clip-path="url(#p945089d758)">
     <!-- ITGAL -->
     <g transform="translate(890.990193 535.444461)scale(0.1 -0.1)">
      <use xlink:href="#DejaVuSans-73"/>
      <use x="29.492188" xlink:href="#DejaVuSans-84"/>
      <use x="90.576172" xlink:href="#DejaVuSans-71"/>
      <use x="168.066406" xlink:href="#DejaVuSans-65"/>
      <use x="236.474609" xlink:href="#DejaVuSans-76"/>
     </g>
    </g>
   </g>
   <g id="text_30">
    <!-- Importance Score and Relative Abundance for network hsa04613 for dataset atherosclerosis -->
    <g transform="translate(312.388125 97.68)scale(0.12 -0.12)">
     <defs>
      <path d="M 52 44.1875 
Q 55.375 50.25 60.0625 53.125 
Q 64.75 56 71.09375 56 
Q 79.640625 56 84.28125 50.015625 
Q 88.921875 44.046875 88.921875 33.015625 
L 88.921875 0 
L 79.890625 0 
L 79.890625 32.71875 
Q 79.890625 40.578125 77.09375 44.375 
Q 74.3125 48.1875 68.609375 48.1875 
Q 61.625 48.1875 57.5625 43.546875 
Q 53.515625 38.921875 53.515625 30.90625 
L 53.515625 0 
L 44.484375 0 
L 44.484375 32.71875 
Q 44.484375 40.625 41.703125 44.40625 
Q 38.921875 48.1875 33.109375 48.1875 
Q 26.21875 48.1875 22.15625 43.53125 
Q 18.109375 38.875 18.109375 30.90625 
L 18.109375 0 
L 9.078125 0 
L 9.078125 54.6875 
L 18.109375 54.6875 
L 18.109375 46.1875 
Q 21.1875 51.21875 25.484375 53.609375 
Q 29.78125 56 35.6875 56 
Q 41.65625 56 45.828125 52.96875 
Q 50 49.953125 52 44.1875 
z
" id="DejaVuSans-109"/>
      <path d="M 18.109375 8.203125 
L 18.109375 -20.796875 
L 9.078125 -20.796875 
L 9.078125 54.6875 
L 18.109375 54.6875 
L 18.109375 46.390625 
Q 20.953125 51.265625 25.265625 53.625 
Q 29.59375 56 35.59375 56 
Q 45.5625 56 51.78125 48.09375 
Q 58.015625 40.1875 58.015625 27.296875 
Q 58.015625 14.40625 51.78125 6.484375 
Q 45.5625 -1.421875 35.59375 -1.421875 
Q 29.59375 -1.421875 25.265625 0.953125 
Q 20.953125 3.328125 18.109375 8.203125 
z
M 48.6875 27.296875 
Q 48.6875 37.203125 44.609375 42.84375 
Q 40.53125 48.484375 33.40625 48.484375 
Q 26.265625 48.484375 22.1875 42.84375 
Q 18.109375 37.203125 18.109375 27.296875 
Q 18.109375 17.390625 22.1875 11.75 
Q 26.265625 6.109375 33.40625 6.109375 
Q 40.53125 6.109375 44.609375 11.75 
Q 48.6875 17.390625 48.6875 27.296875 
z
" id="DejaVuSans-112"/>
      <path d="M 30.609375 48.390625 
Q 23.390625 48.390625 19.1875 42.75 
Q 14.984375 37.109375 14.984375 27.296875 
Q 14.984375 17.484375 19.15625 11.84375 
Q 23.34375 6.203125 30.609375 6.203125 
Q 37.796875 6.203125 41.984375 11.859375 
Q 46.1875 17.53125 46.1875 27.296875 
Q 46.1875 37.015625 41.984375 42.703125 
Q 37.796875 48.390625 30.609375 48.390625 
z
M 30.609375 56 
Q 42.328125 56 49.015625 48.375 
Q 55.71875 40.765625 55.71875 27.296875 
Q 55.71875 13.875 49.015625 6.21875 
Q 42.328125 -1.421875 30.609375 -1.421875 
Q 18.84375 -1.421875 12.171875 6.21875 
Q 5.515625 13.875 5.515625 27.296875 
Q 5.515625 40.765625 12.171875 48.375 
Q 18.84375 56 30.609375 56 
z
" id="DejaVuSans-111"/>
      <path d="M 41.109375 46.296875 
Q 39.59375 47.171875 37.8125 47.578125 
Q 36.03125 48 33.890625 48 
Q 26.265625 48 22.1875 43.046875 
Q 18.109375 38.09375 18.109375 28.8125 
L 18.109375 0 
L 9.078125 0 
L 9.078125 54.6875 
L 18.109375 54.6875 
L 18.109375 46.1875 
Q 20.953125 51.171875 25.484375 53.578125 
Q 30.03125 56 36.53125 56 
Q 37.453125 56 38.578125 55.875 
Q 39.703125 55.765625 41.0625 55.515625 
z
" id="DejaVuSans-114"/>
      <path d="M 18.3125 70.21875 
L 18.3125 54.6875 
L 36.8125 54.6875 
L 36.8125 47.703125 
L 18.3125 47.703125 
L 18.3125 18.015625 
Q 18.3125 11.328125 20.140625 9.421875 
Q 21.96875 7.515625 27.59375 7.515625 
L 36.8125 7.515625 
L 36.8125 0 
L 27.59375 0 
Q 17.1875 0 13.234375 3.875 
Q 9.28125 7.765625 9.28125 18.015625 
L 9.28125 47.703125 
L 2.6875 47.703125 
L 2.6875 54.6875 
L 9.28125 54.6875 
L 9.28125 70.21875 
z
" id="DejaVuSans-116"/>
      <path d="M 34.28125 27.484375 
Q 23.390625 27.484375 19.1875 25 
Q 14.984375 22.515625 14.984375 16.5 
Q 14.984375 11.71875 18.140625 8.90625 
Q 21.296875 6.109375 26.703125 6.109375 
Q 34.1875 6.109375 38.703125 11.40625 
Q 43.21875 16.703125 43.21875 25.484375 
L 43.21875 27.484375 
z
M 52.203125 31.203125 
L 52.203125 0 
L 43.21875 0 
L 43.21875 8.296875 
Q 40.140625 3.328125 35.546875 0.953125 
Q 30.953125 -1.421875 24.3125 -1.421875 
Q 15.921875 -1.421875 10.953125 3.296875 
Q 6 8.015625 6 15.921875 
Q 6 25.140625 12.171875 29.828125 
Q 18.359375 34.515625 30.609375 34.515625 
L 43.21875 34.515625 
L 43.21875 35.40625 
Q 43.21875 41.609375 39.140625 45 
Q 35.0625 48.390625 27.6875 48.390625 
Q 23 48.390625 18.546875 47.265625 
Q 14.109375 46.140625 10.015625 43.890625 
L 10.015625 52.203125 
Q 14.9375 54.109375 19.578125 55.046875 
Q 24.21875 56 28.609375 56 
Q 40.484375 56 46.34375 49.84375 
Q 52.203125 43.703125 52.203125 31.203125 
z
" id="DejaVuSans-97"/>
      <path d="M 54.890625 33.015625 
L 54.890625 0 
L 45.90625 0 
L 45.90625 32.71875 
Q 45.90625 40.484375 42.875 44.328125 
Q 39.84375 48.1875 33.796875 48.1875 
Q 26.515625 48.1875 22.3125 43.546875 
Q 18.109375 38.921875 18.109375 30.90625 
L 18.109375 0 
L 9.078125 0 
L 9.078125 54.6875 
L 18.109375 54.6875 
L 18.109375 46.1875 
Q 21.34375 51.125 25.703125 53.5625 
Q 30.078125 56 35.796875 56 
Q 45.21875 56 50.046875 50.171875 
Q 54.890625 44.34375 54.890625 33.015625 
z
" id="DejaVuSans-110"/>
      <path d="M 48.78125 52.59375 
L 48.78125 44.1875 
Q 44.96875 46.296875 41.140625 47.34375 
Q 37.3125 48.390625 33.40625 48.390625 
Q 24.65625 48.390625 19.8125 42.84375 
Q 14.984375 37.3125 14.984375 27.296875 
Q 14.984375 17.28125 19.8125 11.734375 
Q 24.65625 6.203125 33.40625 6.203125 
Q 37.3125 6.203125 41.140625 7.25 
Q 44.96875 8.296875 48.78125 10.40625 
L 48.78125 2.09375 
Q 45.015625 0.34375 40.984375 -0.53125 
Q 36.96875 -1.421875 32.421875 -1.421875 
Q 20.0625 -1.421875 12.78125 6.34375 
Q 5.515625 14.109375 5.515625 27.296875 
Q 5.515625 40.671875 12.859375 48.328125 
Q 20.21875 56 33.015625 56 
Q 37.15625 56 41.109375 55.140625 
Q 45.0625 54.296875 48.78125 52.59375 
z
" id="DejaVuSans-99"/>
      <path d="M 56.203125 29.59375 
L 56.203125 25.203125 
L 14.890625 25.203125 
Q 15.484375 15.921875 20.484375 11.0625 
Q 25.484375 6.203125 34.421875 6.203125 
Q 39.59375 6.203125 44.453125 7.46875 
Q 49.3125 8.734375 54.109375 11.28125 
L 54.109375 2.78125 
Q 49.265625 0.734375 44.1875 -0.34375 
Q 39.109375 -1.421875 33.890625 -1.421875 
Q 20.796875 -1.421875 13.15625 6.1875 
Q 5.515625 13.8125 5.515625 26.8125 
Q 5.515625 40.234375 12.765625 48.109375 
Q 20.015625 56 32.328125 56 
Q 43.359375 56 49.78125 48.890625 
Q 56.203125 41.796875 56.203125 29.59375 
z
M 47.21875 32.234375 
Q 47.125 39.59375 43.09375 43.984375 
Q 39.0625 48.390625 32.421875 48.390625 
Q 24.90625 48.390625 20.390625 44.140625 
Q 15.875 39.890625 15.1875 32.171875 
z
" id="DejaVuSans-101"/>
      <path id="DejaVuSans-32"/>
      <path d="M 45.40625 46.390625 
L 45.40625 75.984375 
L 54.390625 75.984375 
L 54.390625 0 
L 45.40625 0 
L 45.40625 8.203125 
Q 42.578125 3.328125 38.25 0.953125 
Q 33.9375 -1.421875 27.875 -1.421875 
Q 17.96875 -1.421875 11.734375 6.484375 
Q 5.515625 14.40625 5.515625 27.296875 
Q 5.515625 40.1875 11.734375 48.09375 
Q 17.96875 56 27.875 56 
Q 33.9375 56 38.25 53.625 
Q 42.578125 51.265625 45.40625 46.390625 
z
M 14.796875 27.296875 
Q 14.796875 17.390625 18.875 11.75 
Q 22.953125 6.109375 30.078125 6.109375 
Q 37.203125 6.109375 41.296875 11.75 
Q 45.40625 17.390625 45.40625 27.296875 
Q 45.40625 37.203125 41.296875 42.84375 
Q 37.203125 48.484375 30.078125 48.484375 
Q 22.953125 48.484375 18.875 42.84375 
Q 14.796875 37.203125 14.796875 27.296875 
z
" id="DejaVuSans-100"/>
      <path d="M 9.421875 75.984375 
L 18.40625 75.984375 
L 18.40625 0 
L 9.421875 0 
z
" id="DejaVuSans-108"/>
      <path d="M 9.421875 54.6875 
L 18.40625 54.6875 
L 18.40625 0 
L 9.421875 0 
z
M 9.421875 75.984375 
L 18.40625 75.984375 
L 18.40625 64.59375 
L 9.421875 64.59375 
z
" id="DejaVuSans-105"/>
      <path d="M 2.984375 54.6875 
L 12.5 54.6875 
L 29.59375 8.796875 
L 46.6875 54.6875 
L 56.203125 54.6875 
L 35.6875 0 
L 23.484375 0 
z
" id="DejaVuSans-118"/>
      <path d="M 48.6875 27.296875 
Q 48.6875 37.203125 44.609375 42.84375 
Q 40.53125 48.484375 33.40625 48.484375 
Q 26.265625 48.484375 22.1875 42.84375 
Q 18.109375 37.203125 18.109375 27.296875 
Q 18.109375 17.390625 22.1875 11.75 
Q 26.265625 6.109375 33.40625 6.109375 
Q 40.53125 6.109375 44.609375 11.75 
Q 48.6875 17.390625 48.6875 27.296875 
z
M 18.109375 46.390625 
Q 20.953125 51.265625 25.265625 53.625 
Q 29.59375 56 35.59375 56 
Q 45.5625 56 51.78125 48.09375 
Q 58.015625 40.1875 58.015625 27.296875 
Q 58.015625 14.40625 51.78125 6.484375 
Q 45.5625 -1.421875 35.59375 -1.421875 
Q 29.59375 -1.421875 25.265625 0.953125 
Q 20.953125 3.328125 18.109375 8.203125 
L 18.109375 0 
L 9.078125 0 
L 9.078125 75.984375 
L 18.109375 75.984375 
z
" id="DejaVuSans-98"/>
      <path d="M 8.5 21.578125 
L 8.5 54.6875 
L 17.484375 54.6875 
L 17.484375 21.921875 
Q 17.484375 14.15625 20.5 10.265625 
Q 23.53125 6.390625 29.59375 6.390625 
Q 36.859375 6.390625 41.078125 11.03125 
Q 45.3125 15.671875 45.3125 23.6875 
L 45.3125 54.6875 
L 54.296875 54.6875 
L 54.296875 0 
L 45.3125 0 
L 45.3125 8.40625 
Q 42.046875 3.421875 37.71875 1 
Q 33.40625 -1.421875 27.6875 -1.421875 
Q 18.265625 -1.421875 13.375 4.4375 
Q 8.5 10.296875 8.5 21.578125 
z
M 31.109375 56 
z
" id="DejaVuSans-117"/>
      <path d="M 37.109375 75.984375 
L 37.109375 68.5 
L 28.515625 68.5 
Q 23.6875 68.5 21.796875 66.546875 
Q 19.921875 64.59375 19.921875 59.515625 
L 19.921875 54.6875 
L 34.71875 54.6875 
L 34.71875 47.703125 
L 19.921875 47.703125 
L 19.921875 0 
L 10.890625 0 
L 10.890625 47.703125 
L 2.296875 47.703125 
L 2.296875 54.6875 
L 10.890625 54.6875 
L 10.890625 58.5 
Q 10.890625 67.625 15.140625 71.796875 
Q 19.390625 75.984375 28.609375 75.984375 
z
" id="DejaVuSans-102"/>
      <path d="M 4.203125 54.6875 
L 13.1875 54.6875 
L 24.421875 12.015625 
L 35.59375 54.6875 
L 46.1875 54.6875 
L 57.421875 12.015625 
L 68.609375 54.6875 
L 77.59375 54.6875 
L 63.28125 0 
L 52.6875 0 
L 40.921875 44.828125 
L 29.109375 0 
L 18.5 0 
z
" id="DejaVuSans-119"/>
      <path d="M 9.078125 75.984375 
L 18.109375 75.984375 
L 18.109375 31.109375 
L 44.921875 54.6875 
L 56.390625 54.6875 
L 27.390625 29.109375 
L 57.625 0 
L 45.90625 0 
L 18.109375 26.703125 
L 18.109375 0 
L 9.078125 0 
z
" id="DejaVuSans-107"/>
      <path d="M 54.890625 33.015625 
L 54.890625 0 
L 45.90625 0 
L 45.90625 32.71875 
Q 45.90625 40.484375 42.875 44.328125 
Q 39.84375 48.1875 33.796875 48.1875 
Q 26.515625 48.1875 22.3125 43.546875 
Q 18.109375 38.921875 18.109375 30.90625 
L 18.109375 0 
L 9.078125 0 
L 9.078125 75.984375 
L 18.109375 75.984375 
L 18.109375 46.1875 
Q 21.34375 51.125 25.703125 53.5625 
Q 30.078125 56 35.796875 56 
Q 45.21875 56 50.046875 50.171875 
Q 54.890625 44.34375 54.890625 33.015625 
z
" id="DejaVuSans-104"/>
      <path d="M 44.28125 53.078125 
L 44.28125 44.578125 
Q 40.484375 46.53125 36.375 47.5 
Q 32.28125 48.484375 27.875 48.484375 
Q 21.1875 48.484375 17.84375 46.4375 
Q 14.5 44.390625 14.5 40.28125 
Q 14.5 37.15625 16.890625 35.375 
Q 19.28125 33.59375 26.515625 31.984375 
L 29.59375 31.296875 
Q 39.15625 29.25 43.1875 25.515625 
Q 47.21875 21.78125 47.21875 15.09375 
Q 47.21875 7.46875 41.1875 3.015625 
Q 35.15625 -1.421875 24.609375 -1.421875 
Q 20.21875 -1.421875 15.453125 -0.5625 
Q 10.6875 0.296875 5.421875 2 
L 5.421875 11.28125 
Q 10.40625 8.6875 15.234375 7.390625 
Q 20.0625 6.109375 24.8125 6.109375 
Q 31.15625 6.109375 34.5625 8.28125 
Q 37.984375 10.453125 37.984375 14.40625 
Q 37.984375 18.0625 35.515625 20.015625 
Q 33.0625 21.96875 24.703125 23.78125 
L 21.578125 24.515625 
Q 13.234375 26.265625 9.515625 29.90625 
Q 5.8125 33.546875 5.8125 39.890625 
Q 5.8125 47.609375 11.28125 51.796875 
Q 16.75 56 26.8125 56 
Q 31.78125 56 36.171875 55.265625 
Q 40.578125 54.546875 44.28125 53.078125 
z
" id="DejaVuSans-115"/>
      <path d="M 31.78125 66.40625 
Q 24.171875 66.40625 20.328125 58.90625 
Q 16.5 51.421875 16.5 36.375 
Q 16.5 21.390625 20.328125 13.890625 
Q 24.171875 6.390625 31.78125 6.390625 
Q 39.453125 6.390625 43.28125 13.890625 
Q 47.125 21.390625 47.125 36.375 
Q 47.125 51.421875 43.28125 58.90625 
Q 39.453125 66.40625 31.78125 66.40625 
z
M 31.78125 74.21875 
Q 44.046875 74.21875 50.515625 64.515625 
Q 56.984375 54.828125 56.984375 36.375 
Q 56.984375 17.96875 50.515625 8.265625 
Q 44.046875 -1.421875 31.78125 -1.421875 
Q 19.53125 -1.421875 13.0625 8.265625 
Q 6.59375 17.96875 6.59375 36.375 
Q 6.59375 54.828125 13.0625 64.515625 
Q 19.53125 74.21875 31.78125 74.21875 
z
" id="DejaVuSans-48"/>
      <path d="M 33.015625 40.375 
Q 26.375 40.375 22.484375 35.828125 
Q 18.609375 31.296875 18.609375 23.390625 
Q 18.609375 15.53125 22.484375 10.953125 
Q 26.375 6.390625 33.015625 6.390625 
Q 39.65625 6.390625 43.53125 10.953125 
Q 47.40625 15.53125 47.40625 23.390625 
Q 47.40625 31.296875 43.53125 35.828125 
Q 39.65625 40.375 33.015625 40.375 
z
M 52.59375 71.296875 
L 52.59375 62.3125 
Q 48.875 64.0625 45.09375 64.984375 
Q 41.3125 65.921875 37.59375 65.921875 
Q 27.828125 65.921875 22.671875 59.328125 
Q 17.53125 52.734375 16.796875 39.40625 
Q 19.671875 43.65625 24.015625 45.921875 
Q 28.375 48.1875 33.59375 48.1875 
Q 44.578125 48.1875 50.953125 41.515625 
Q 57.328125 34.859375 57.328125 23.390625 
Q 57.328125 12.15625 50.6875 5.359375 
Q 44.046875 -1.421875 33.015625 -1.421875 
Q 20.359375 -1.421875 13.671875 8.265625 
Q 6.984375 17.96875 6.984375 36.375 
Q 6.984375 53.65625 15.1875 63.9375 
Q 23.390625 74.21875 37.203125 74.21875 
Q 40.921875 74.21875 44.703125 73.484375 
Q 48.484375 72.75 52.59375 71.296875 
z
" id="DejaVuSans-54"/>
     </defs>
     <use xlink:href="#DejaVuSans-73"/>
     <use x="29.492188" xlink:href="#DejaVuSans-109"/>
     <use x="126.904297" xlink:href="#DejaVuSans-112"/>
     <use x="190.380859" xlink:href="#DejaVuSans-111"/>
     <use x="251.5625" xlink:href="#DejaVuSans-114"/>
     <use x="292.675781" xlink:href="#DejaVuSans-116"/>
     <use x="331.884766" xlink:href="#DejaVuSans-97"/>
     <use x="393.164062" xlink:href="#DejaVuSans-110"/>
     <use x="456.542969" xlink:href="#DejaVuSans-99"/>
     <use x="511.523438" xlink:href="#DejaVuSans-101"/>
     <use x="573.046875" xlink:href="#DejaVuSans-32"/>
     <use x="604.833984" xlink:href="#DejaVuSans-83"/>
     <use x="668.310547" xlink:href="#DejaVuSans-99"/>
     <use x="723.291016" xlink:href="#DejaVuSans-111"/>
     <use x="784.472656" xlink:href="#DejaVuSans-114"/>
     <use x="823.335938" xlink:href="#DejaVuSans-101"/>
     <use x="884.859375" xlink:href="#DejaVuSans-32"/>
     <use x="916.646484" xlink:href="#DejaVuSans-97"/>
     <use x="977.925781" xlink:href="#DejaVuSans-110"/>
     <use x="1041.304688" xlink:href="#DejaVuSans-100"/>
     <use x="1104.78125" xlink:href="#DejaVuSans-32"/>
     <use x="1136.568359" xlink:href="#DejaVuSans-82"/>
     <use x="1201.550781" xlink:href="#DejaVuSans-101"/>
     <use x="1263.074219" xlink:href="#DejaVuSans-108"/>
     <use x="1290.857422" xlink:href="#DejaVuSans-97"/>
     <use x="1352.136719" xlink:href="#DejaVuSans-116"/>
     <use x="1391.345703" xlink:href="#DejaVuSans-105"/>
     <use x="1419.128906" xlink:href="#DejaVuSans-118"/>
     <use x="1478.308594" xlink:href="#DejaVuSans-101"/>
     <use x="1539.832031" xlink:href="#DejaVuSans-32"/>
     <use x="1571.619141" xlink:href="#DejaVuSans-65"/>
     <use x="1640.027344" xlink:href="#DejaVuSans-98"/>
     <use x="1703.503906" xlink:href="#DejaVuSans-117"/>
     <use x="1766.882812" xlink:href="#DejaVuSans-110"/>
     <use x="1830.261719" xlink:href="#DejaVuSans-100"/>
     <use x="1893.738281" xlink:href="#DejaVuSans-97"/>
     <use x="1955.017578" xlink:href="#DejaVuSans-110"/>
     <use x="2018.396484" xlink:href="#DejaVuSans-99"/>
     <use x="2073.376953" xlink:href="#DejaVuSans-101"/>
     <use x="2134.900391" xlink:href="#DejaVuSans-32"/>
     <use x="2166.6875" xlink:href="#DejaVuSans-102"/>
     <use x="2201.892578" xlink:href="#DejaVuSans-111"/>
     <use x="2263.074219" xlink:href="#DejaVuSans-114"/>
     <use x="2304.1875" xlink:href="#DejaVuSans-32"/>
     <use x="2335.974609" xlink:href="#DejaVuSans-110"/>
     <use x="2399.353516" xlink:href="#DejaVuSans-101"/>
     <use x="2460.876953" xlink:href="#DejaVuSans-116"/>
     <use x="2500.085938" xlink:href="#DejaVuSans-119"/>
     <use x="2581.873047" xlink:href="#DejaVuSans-111"/>
     <use x="2643.054688" xlink:href="#DejaVuSans-114"/>
     <use x="2684.167969" xlink:href="#DejaVuSans-107"/>
     <use x="2742.078125" xlink:href="#DejaVuSans-32"/>
     <use x="2773.865234" xlink:href="#DejaVuSans-104"/>
     <use x="2837.244141" xlink:href="#DejaVuSans-115"/>
     <use x="2889.34375" xlink:href="#DejaVuSans-97"/>
     <use x="2950.623047" xlink:href="#DejaVuSans-48"/>
     <use x="3014.246094" xlink:href="#DejaVuSans-52"/>
     <use x="3077.869141" xlink:href="#DejaVuSans-54"/>
     <use x="3141.492188" xlink:href="#DejaVuSans-49"/>
     <use x="3205.115234" xlink:href="#DejaVuSans-51"/>
     <use x="3268.738281" xlink:href="#DejaVuSans-32"/>
     <use x="3300.525391" xlink:href="#DejaVuSans-102"/>
     <use x="3335.730469" xlink:href="#DejaVuSans-111"/>
     <use x="3396.912109" xlink:href="#DejaVuSans-114"/>
     <use x="3438.025391" xlink:href="#DejaVuSans-32"/>
     <use x="3469.8125" xlink:href="#DejaVuSans-100"/>
     <use x="3533.289062" xlink:href="#DejaVuSans-97"/>
     <use x="3594.568359" xlink:href="#DejaVuSans-116"/>
     <use x="3633.777344" xlink:href="#DejaVuSans-97"/>
     <use x="3695.056641" xlink:href="#DejaVuSans-115"/>
     <use x="3747.15625" xlink:href="#DejaVuSans-101"/>
     <use x="3808.679688" xlink:href="#DejaVuSans-116"/>
     <use x="3847.888672" xlink:href="#DejaVuSans-32"/>
     <use x="3879.675781" xlink:href="#DejaVuSans-97"/>
     <use x="3940.955078" xlink:href="#DejaVuSans-116"/>
     <use x="3980.164062" xlink:href="#DejaVuSans-104"/>
     <use x="4043.542969" xlink:href="#DejaVuSans-101"/>
     <use x="4105.066406" xlink:href="#DejaVuSans-114"/>
     <use x="4143.929688" xlink:href="#DejaVuSans-111"/>
     <use x="4205.111328" xlink:href="#DejaVuSans-115"/>
     <use x="4257.210938" xlink:href="#DejaVuSans-99"/>
     <use x="4312.191406" xlink:href="#DejaVuSans-108"/>
     <use x="4339.974609" xlink:href="#DejaVuSans-101"/>
     <use x="4401.498047" xlink:href="#DejaVuSans-114"/>
     <use x="4440.361328" xlink:href="#DejaVuSans-111"/>
     <use x="4501.542969" xlink:href="#DejaVuSans-115"/>
     <use x="4553.642578" xlink:href="#DejaVuSans-105"/>
     <use x="4581.425781" xlink:href="#DejaVuSans-115"/>
    </g>
   </g>
   <g id="legend_1">
    <g id="patch_40">
     <path d="M 803.859375 155.714375 
L 1029.8 155.714375 
Q 1031.8 155.714375 1031.8 153.714375 
L 1031.8 110.68 
Q 1031.8 108.68 1029.8 108.68 
L 803.859375 108.68 
Q 801.859375 108.68 801.859375 110.68 
L 801.859375 153.714375 
Q 801.859375 155.714375 803.859375 155.714375 
z
" style="fill:#ffffff;opacity:0.8;stroke:#cccccc;stroke-linejoin:miter;"/>
    </g>
    <g id="text_31">
     <!-- Relative Expression of AS+ compared to AS- -->
     <g transform="translate(805.859375 120.278437)scale(0.1 -0.1)">
      <defs>
       <path d="M 54.890625 54.6875 
L 35.109375 28.078125 
L 55.90625 0 
L 45.3125 0 
L 29.390625 21.484375 
L 13.484375 0 
L 2.875 0 
L 24.125 28.609375 
L 4.6875 54.6875 
L 15.28125 54.6875 
L 29.78125 35.203125 
L 44.28125 54.6875 
z
" id="DejaVuSans-120"/>
       <path d="M 46 62.703125 
L 46 35.5 
L 73.1875 35.5 
L 73.1875 27.203125 
L 46 27.203125 
L 46 0 
L 37.796875 0 
L 37.796875 27.203125 
L 10.59375 27.203125 
L 10.59375 35.5 
L 37.796875 35.5 
L 37.796875 62.703125 
z
" id="DejaVuSans-43"/>
       <path d="M 4.890625 31.390625 
L 31.203125 31.390625 
L 31.203125 23.390625 
L 4.890625 23.390625 
z
" id="DejaVuSans-45"/>
      </defs>
      <use xlink:href="#DejaVuSans-82"/>
      <use x="64.982422" xlink:href="#DejaVuSans-101"/>
      <use x="126.505859" xlink:href="#DejaVuSans-108"/>
      <use x="154.289062" xlink:href="#DejaVuSans-97"/>
      <use x="215.568359" xlink:href="#DejaVuSans-116"/>
      <use x="254.777344" xlink:href="#DejaVuSans-105"/>
      <use x="282.560547" xlink:href="#DejaVuSans-118"/>
      <use x="341.740234" xlink:href="#DejaVuSans-101"/>
      <use x="403.263672" xlink:href="#DejaVuSans-32"/>
      <use x="435.050781" xlink:href="#DejaVuSans-69"/>
      <use x="498.234375" xlink:href="#DejaVuSans-120"/>
      <use x="557.414062" xlink:href="#DejaVuSans-112"/>
      <use x="620.890625" xlink:href="#DejaVuSans-114"/>
      <use x="659.753906" xlink:href="#DejaVuSans-101"/>
      <use x="721.277344" xlink:href="#DejaVuSans-115"/>
      <use x="773.376953" xlink:href="#DejaVuSans-115"/>
      <use x="825.476562" xlink:href="#DejaVuSans-105"/>
      <use x="853.259766" xlink:href="#DejaVuSans-111"/>
      <use x="914.441406" xlink:href="#DejaVuSans-110"/>
      <use x="977.820312" xlink:href="#DejaVuSans-32"/>
      <use x="1009.607422" xlink:href="#DejaVuSans-111"/>
      <use x="1070.789062" xlink:href="#DejaVuSans-102"/>
      <use x="1105.994141" xlink:href="#DejaVuSans-32"/>
      <use x="1137.78125" xlink:href="#DejaVuSans-65"/>
      <use x="1206.189453" xlink:href="#DejaVuSans-83"/>
      <use x="1269.666016" xlink:href="#DejaVuSans-43"/>
      <use x="1353.455078" xlink:href="#DejaVuSans-32"/>
      <use x="1385.242188" xlink:href="#DejaVuSans-99"/>
      <use x="1440.222656" xlink:href="#DejaVuSans-111"/>
      <use x="1501.404297" xlink:href="#DejaVuSans-109"/>
      <use x="1598.816406" xlink:href="#DejaVuSans-112"/>
      <use x="1662.292969" xlink:href="#DejaVuSans-97"/>
      <use x="1723.572266" xlink:href="#DejaVuSans-114"/>
      <use x="1762.435547" xlink:href="#DejaVuSans-101"/>
      <use x="1823.958984" xlink:href="#DejaVuSans-100"/>
      <use x="1887.435547" xlink:href="#DejaVuSans-32"/>
      <use x="1919.222656" xlink:href="#DejaVuSans-116"/>
      <use x="1958.431641" xlink:href="#DejaVuSans-111"/>
      <use x="2019.613281" xlink:href="#DejaVuSans-32"/>
      <use x="2051.400391" xlink:href="#DejaVuSans-65"/>
      <use x="2119.808594" xlink:href="#DejaVuSans-83"/>
      <use x="2183.285156" xlink:href="#DejaVuSans-45"/>
     </g>
    </g>
    <g id="patch_41">
     <path d="M 829.136719 134.956562 
L 849.136719 134.956562 
L 849.136719 127.956562 
L 829.136719 127.956562 
z
" style="fill:#0000ff;stroke:#0000ff;stroke-linejoin:miter;"/>
    </g>
    <g id="text_32">
     <!-- Decreased expression in AS+ -->
     <g transform="translate(857.136719 134.956562)scale(0.1 -0.1)">
      <use xlink:href="#DejaVuSans-68"/>
      <use x="77.001953" xlink:href="#DejaVuSans-101"/>
      <use x="138.525391" xlink:href="#DejaVuSans-99"/>
      <use x="193.505859" xlink:href="#DejaVuSans-114"/>
      <use x="232.369141" xlink:href="#DejaVuSans-101"/>
      <use x="293.892578" xlink:href="#DejaVuSans-97"/>
      <use x="355.171875" xlink:href="#DejaVuSans-115"/>
      <use x="407.271484" xlink:href="#DejaVuSans-101"/>
      <use x="468.794922" xlink:href="#DejaVuSans-100"/>
      <use x="532.271484" xlink:href="#DejaVuSans-32"/>
      <use x="564.058594" xlink:href="#DejaVuSans-101"/>
      <use x="623.832031" xlink:href="#DejaVuSans-120"/>
      <use x="683.011719" xlink:href="#DejaVuSans-112"/>
      <use x="746.488281" xlink:href="#DejaVuSans-114"/>
      <use x="785.351562" xlink:href="#DejaVuSans-101"/>
      <use x="846.875" xlink:href="#DejaVuSans-115"/>
      <use x="898.974609" xlink:href="#DejaVuSans-115"/>
      <use x="951.074219" xlink:href="#DejaVuSans-105"/>
      <use x="978.857422" xlink:href="#DejaVuSans-111"/>
      <use x="1040.039062" xlink:href="#DejaVuSans-110"/>
      <use x="1103.417969" xlink:href="#DejaVuSans-32"/>
      <use x="1135.205078" xlink:href="#DejaVuSans-105"/>
      <use x="1162.988281" xlink:href="#DejaVuSans-110"/>
      <use x="1226.367188" xlink:href="#DejaVuSans-32"/>
      <use x="1258.154297" xlink:href="#DejaVuSans-65"/>
      <use x="1326.5625" xlink:href="#DejaVuSans-83"/>
      <use x="1390.039062" xlink:href="#DejaVuSans-43"/>
     </g>
    </g>
    <g id="patch_42">
     <path d="M 829.136719 149.634687 
L 849.136719 149.634687 
L 849.136719 142.634687 
L 829.136719 142.634687 
z
" style="fill:#ff0000;stroke:#ff0000;stroke-linejoin:miter;"/>
    </g>
    <g id="text_33">
     <!-- Increased expression in AS+ -->
     <g transform="translate(857.136719 149.634687)scale(0.1 -0.1)">
      <use xlink:href="#DejaVuSans-73"/>
      <use x="29.492188" xlink:href="#DejaVuSans-110"/>
      <use x="92.871094" xlink:href="#DejaVuSans-99"/>
      <use x="147.851562" xlink:href="#DejaVuSans-114"/>
      <use x="186.714844" xlink:href="#DejaVuSans-101"/>
      <use x="248.238281" xlink:href="#DejaVuSans-97"/>
      <use x="309.517578" xlink:href="#DejaVuSans-115"/>
      <use x="361.617188" xlink:href="#DejaVuSans-101"/>
      <use x="423.140625" xlink:href="#DejaVuSans-100"/>
      <use x="486.617188" xlink:href="#DejaVuSans-32"/>
      <use x="518.404297" xlink:href="#DejaVuSans-101"/>
      <use x="578.177734" xlink:href="#DejaVuSans-120"/>
      <use x="637.357422" xlink:href="#DejaVuSans-112"/>
      <use x="700.833984" xlink:href="#DejaVuSans-114"/>
      <use x="739.697266" xlink:href="#DejaVuSans-101"/>
      <use x="801.220703" xlink:href="#DejaVuSans-115"/>
      <use x="853.320312" xlink:href="#DejaVuSans-115"/>
      <use x="905.419922" xlink:href="#DejaVuSans-105"/>
      <use x="933.203125" xlink:href="#DejaVuSans-111"/>
      <use x="994.384766" xlink:href="#DejaVuSans-110"/>
      <use x="1057.763672" xlink:href="#DejaVuSans-32"/>
      <use x="1089.550781" xlink:href="#DejaVuSans-105"/>
      <use x="1117.333984" xlink:href="#DejaVuSans-110"/>
      <use x="1180.712891" xlink:href="#DejaVuSans-32"/>
      <use x="1212.5" xlink:href="#DejaVuSans-65"/>
      <use x="1280.908203" xlink:href="#DejaVuSans-83"/>
      <use x="1344.384766" xlink:href="#DejaVuSans-43"/>
     </g>
    </g>
   </g>
  </g>
 </g>
 <defs>
  <clipPath id="p945089d758">
   <rect height="665.28" width="892.8" x="144" y="103.68"/>
  </clipPath>
 </defs>
</svg>
