<?xml version="1.0" encoding="utf-8" standalone="no"?>
<!DOCTYPE svg PUBLIC "-//W3C//DTD SVG 1.1//EN"
  "http://www.w3.org/Graphics/SVG/1.1/DTD/svg11.dtd">
<!-- Created with matplotlib (https://matplotlib.org/) -->
<svg height="864pt" version="1.1" viewBox="0 0 1152 864" width="1152pt" xmlns="http://www.w3.org/2000/svg" xmlns:xlink="http://www.w3.org/1999/xlink">
 <metadata>
  <rdf:RDF xmlns:cc="http://creativecommons.org/ns#" xmlns:dc="http://purl.org/dc/elements/1.1/" xmlns:rdf="http://www.w3.org/1999/02/22-rdf-syntax-ns#">
   <cc:Work>
    <dc:type rdf:resource="http://purl.org/dc/dcmitype/StillImage"/>
    <dc:date>2024-04-25T16:42:06.900719</dc:date>
    <dc:format>image/svg+xml</dc:format>
    <dc:creator>
     <cc:Agent>
      <dc:title>Matplotlib v3.3.1, https://matplotlib.org/</dc:title>
     </cc:Agent>
    </dc:creator>
   </cc:Work>
  </rdf:RDF>
 </metadata>
 <defs>
  <style type="text/css">*{stroke-linecap:butt;stroke-linejoin:round;}</style>
 </defs>
 <g id="figure_1">
  <g id="patch_1">
   <path d="M 0 864 
L 1152 864 
L 1152 0 
L 0 0 
z
" style="fill:#ffffff;"/>
  </g>
  <g id="axes_1">
   <g id="patch_2">
    <path clip-path="url(#paa785890e0)" d="M 293.393597 475.577878 
Q 308.05309 432.637759 322.351363 390.755713 
" style="fill:none;stroke:#000000;stroke-linecap:round;"/>
    <path clip-path="url(#paa785890e0)" d="M 319.166283 393.895024 
L 322.351363 390.755713 
L 322.951763 395.187363 
L 319.166283 393.895024 
z
" style="stroke:#000000;stroke-linecap:round;"/>
   </g>
   <g id="patch_3">
    <path clip-path="url(#paa785890e0)" d="M 288.115855 474.732665 
Q 287.918879 456.309177 287.733856 439.003659 
" style="fill:none;stroke:#000000;stroke-linecap:round;"/>
    <path clip-path="url(#paa785890e0)" d="M 285.776734 443.024812 
L 287.733856 439.003659 
L 289.776506 442.982048 
L 285.776734 443.024812 
z
" style="stroke:#000000;stroke-linecap:round;"/>
   </g>
   <g id="patch_4">
    <path clip-path="url(#paa785890e0)" d="M 303.444884 486.04034 
Q 403.566067 456.308983 502.615473 426.895894 
" style="fill:none;stroke:#000000;stroke-linecap:round;"/>
    <path clip-path="url(#paa785890e0)" d="M 498.211632 426.117312 
L 502.615473 426.895894 
L 499.350303 429.951817 
L 498.211632 426.117312 
z
" style="stroke:#000000;stroke-linecap:round;"/>
   </g>
   <g id="patch_5">
    <path clip-path="url(#paa785890e0)" d="M 302.606677 483.841116 
Q 371.542665 451.586568 439.465985 419.805838 
" style="fill:none;stroke:#000000;stroke-linecap:round;"/>
    <path clip-path="url(#paa785890e0)" d="M 434.995363 419.689507 
L 439.465985 419.805838 
L 436.690547 423.312538 
L 434.995363 419.689507 
z
" style="stroke:#000000;stroke-linecap:round;"/>
   </g>
   <g id="patch_6">
    <path clip-path="url(#paa785890e0)" d="M 299.874419 479.780677 
Q 349.03105 434.136205 397.368384 389.252492 
" style="fill:none;stroke:#000000;stroke-linecap:round;"/>
    <path clip-path="url(#paa785890e0)" d="M 393.076295 390.508664 
L 397.368384 389.252492 
L 395.798068 393.439867 
L 393.076295 390.508664 
z
" style="stroke:#000000;stroke-linecap:round;"/>
   </g>
   <g id="patch_7">
    <path clip-path="url(#paa785890e0)" d="M 303.960731 488.455084 
Q 398.882707 475.817218 492.696429 463.326904 
" style="fill:none;stroke:#000000;stroke-linecap:round;"/>
    <path clip-path="url(#paa785890e0)" d="M 488.467466 461.872297 
L 492.696429 463.326904 
L 488.995366 465.83731 
L 488.467466 461.872297 
z
" style="stroke:#000000;stroke-linecap:round;"/>
   </g>
   <g id="patch_8">
    <path clip-path="url(#paa785890e0)" d="M 303.789813 487.443161 
Q 363.974541 475.413935 423.062919 463.603838 
" style="fill:none;stroke:#000000;stroke-linecap:round;"/>
    <path clip-path="url(#paa785890e0)" d="M 418.748509 462.426609 
L 423.062919 463.603838 
L 419.53249 466.349028 
L 418.748509 462.426609 
z
" style="stroke:#000000;stroke-linecap:round;"/>
   </g>
   <g id="patch_9">
    <path clip-path="url(#paa785890e0)" d="M 283.911129 475.348875 
Q 271.715494 432.984418 259.82915 391.694362 
" style="fill:none;stroke:#000000;stroke-linecap:round;"/>
    <path clip-path="url(#paa785890e0)" d="M 259.013761 396.091536 
L 259.82915 391.694362 
L 262.857656 394.984978 
L 259.013761 396.091536 
z
" style="stroke:#000000;stroke-linecap:round;"/>
   </g>
   <g id="patch_10">
    <path clip-path="url(#paa785890e0)" d="M 302.413615 483.441849 
Q 328.306628 470.42947 353.200659 457.919123 
" style="fill:none;stroke:#000000;stroke-linecap:round;"/>
    <path clip-path="url(#paa785890e0)" d="M 348.728533 457.928215 
L 353.200659 457.919123 
L 350.524657 461.50228 
L 348.728533 457.928215 
z
" style="stroke:#000000;stroke-linecap:round;"/>
   </g>
   <g id="patch_11">
    <path clip-path="url(#paa785890e0)" d="M 277.737681 478.762838 
Q 252.529257 450.609579 228.066638 423.289252 
" style="fill:none;stroke:#000000;stroke-linecap:round;"/>
    <path clip-path="url(#paa785890e0)" d="M 229.244923 427.603373 
L 228.066638 423.289252 
L 232.224906 424.935097 
L 229.244923 427.603373 
z
" style="stroke:#000000;stroke-linecap:round;"/>
   </g>
   <g id="patch_12">
    <path clip-path="url(#paa785890e0)" d="M 369.205652 428.68776 
Q 372.002994 566.727152 374.777683 703.64874 
" style="fill:none;stroke:#000000;stroke-linecap:round;"/>
    <path clip-path="url(#paa785890e0)" d="M 376.69623 699.60904 
L 374.777683 703.64874 
L 372.697051 699.690082 
L 376.69623 699.60904 
z
" style="stroke:#000000;stroke-linecap:round;"/>
   </g>
   <g id="patch_13">
    <path clip-path="url(#paa785890e0)" d="M 367.047959 410.808401 
Q 341.125589 294.823997 315.447081 179.930708 
" style="fill:none;stroke:#000000;stroke-linecap:round;"/>
    <path clip-path="url(#paa785890e0)" d="M 314.367706 184.270633 
L 315.447081 179.930708 
L 318.271396 183.398163 
L 314.367706 184.270633 
z
" style="stroke:#000000;stroke-linecap:round;"/>
   </g>
   <g id="patch_14">
    <path clip-path="url(#paa785890e0)" d="M 375.251092 413.075905 
Q 492.391774 289.58299 608.763024 166.901231 
" style="fill:none;stroke:#000000;stroke-linecap:round;"/>
    <path clip-path="url(#paa785890e0)" d="M 604.559181 168.42691 
L 608.763024 166.901231 
L 607.461261 171.179714 
L 604.559181 168.42691 
z
" style="stroke:#000000;stroke-linecap:round;"/>
   </g>
   <g id="patch_15">
    <path clip-path="url(#paa785890e0)" d="M 364.087933 427.230147 
Q 295.774312 532.277086 228.070214 636.386752 
" style="fill:none;stroke:#000000;stroke-linecap:round;"/>
    <path clip-path="url(#paa785890e0)" d="M 231.927556 634.123808 
L 228.070214 636.386752 
L 228.574265 631.943112 
L 231.927556 634.123808 
z
" style="stroke:#000000;stroke-linecap:round;"/>
   </g>
   <g id="patch_16">
    <path clip-path="url(#paa785890e0)" d="M 362.12402 413.782707 
Q 346.594436 400.591278 331.916962 388.123664 
" style="fill:none;stroke:#000000;stroke-linecap:round;"/>
    <path clip-path="url(#paa785890e0)" d="M 333.670763 392.237565 
L 331.916962 388.123664 
L 336.260363 389.188964 
L 333.670763 392.237565 
z
" style="stroke:#000000;stroke-linecap:round;"/>
   </g>
   <g id="patch_17">
    <path clip-path="url(#paa785890e0)" d="M 360.032923 420.689006 
Q 328.185703 424.396804 297.449016 427.97531 
" style="fill:none;stroke:#000000;stroke-linecap:round;"/>
    <path clip-path="url(#paa785890e0)" d="M 301.653466 429.499317 
L 297.449016 427.97531 
L 301.190893 425.526154 
L 301.653466 429.499317 
z
" style="stroke:#000000;stroke-linecap:round;"/>
   </g>
   <g id="patch_18">
    <path clip-path="url(#paa785890e0)" d="M 378.071205 419.943952 
Q 440.722061 422.031674 502.255504 424.082161 
" style="fill:none;stroke:#000000;stroke-linecap:round;"/>
    <path clip-path="url(#paa785890e0)" d="M 498.324332 421.950052 
L 502.255504 424.082161 
L 498.191114 425.947833 
L 498.324332 421.950052 
z
" style="stroke:#000000;stroke-linecap:round;"/>
   </g>
   <g id="patch_19">
    <path clip-path="url(#paa785890e0)" d="M 378.064627 419.230587 
Q 408.913826 417.825568 438.646148 416.471416 
" style="fill:none;stroke:#000000;stroke-linecap:round;"/>
    <path clip-path="url(#paa785890e0)" d="M 434.559295 414.655478 
L 438.646148 416.471416 
L 434.741286 418.651335 
L 434.559295 414.655478 
z
" style="stroke:#000000;stroke-linecap:round;"/>
   </g>
   <g id="patch_20">
    <path clip-path="url(#paa785890e0)" d="M 375.267379 413.093778 
Q 386.86494 400.93239 397.690911 389.580103 
" style="fill:none;stroke:#000000;stroke-linecap:round;"/>
    <path clip-path="url(#paa785890e0)" d="M 393.483016 391.094573 
L 397.690911 389.580103 
L 396.37775 393.855101 
L 393.483016 391.094573 
z
" style="stroke:#000000;stroke-linecap:round;"/>
   </g>
   <g id="patch_21">
    <path clip-path="url(#paa785890e0)" d="M 377.635722 422.407394 
Q 435.873227 441.102213 493.046203 459.455307 
" style="fill:none;stroke:#000000;stroke-linecap:round;"/>
    <path clip-path="url(#paa785890e0)" d="M 489.84892 456.328426 
L 493.046203 459.455307 
L 488.626329 460.137005 
L 489.84892 456.328426 
z
" style="stroke:#000000;stroke-linecap:round;"/>
   </g>
   <g id="patch_22">
    <path clip-path="url(#paa785890e0)" d="M 376.468319 424.788928 
Q 400.822336 441.621964 424.256629 457.819303 
" style="fill:none;stroke:#000000;stroke-linecap:round;"/>
    <path clip-path="url(#paa785890e0)" d="M 422.103293 453.899719 
L 424.256629 457.819303 
L 419.828959 457.190222 
L 422.103293 453.899719 
z
" style="stroke:#000000;stroke-linecap:round;"/>
   </g>
   <g id="patch_23">
    <path clip-path="url(#paa785890e0)" d="M 360.420345 416.83605 
Q 312.563709 401.223037 265.769972 385.95679 
" style="fill:none;stroke:#000000;stroke-linecap:round;"/>
    <path clip-path="url(#paa785890e0)" d="M 268.9524 389.098788 
L 265.769972 385.95679 
L 270.193027 385.296047 
L 268.9524 389.098788 
z
" style="stroke:#000000;stroke-linecap:round;"/>
   </g>
   <g id="patch_24">
    <path clip-path="url(#paa785890e0)" d="M 366.490274 428.329715 
Q 363.277961 439.350836 360.378502 449.298588 
" style="fill:none;stroke:#000000;stroke-linecap:round;"/>
    <path clip-path="url(#paa785890e0)" d="M 363.417904 446.018034 
L 360.378502 449.298588 
L 359.577699 444.898734 
L 363.417904 446.018034 
z
" style="stroke:#000000;stroke-linecap:round;"/>
   </g>
   <g id="patch_25">
    <path clip-path="url(#paa785890e0)" d="M 359.976211 419.414617 
Q 295.106312 417.781076 231.354093 416.175679 
" style="fill:none;stroke:#000000;stroke-linecap:round;"/>
    <path clip-path="url(#paa785890e0)" d="M 235.302477 418.27574 
L 231.354093 416.175679 
L 235.403173 414.277008 
L 235.302477 418.27574 
z
" style="stroke:#000000;stroke-linecap:round;"/>
   </g>
   <g id="patch_26">
    <path clip-path="url(#paa785890e0)" d="M 612.360482 306.172199 
Q 611.364824 307.394572 611.075249 307.750084 
" style="fill:none;stroke:#000000;stroke-linecap:round;"/>
    <path clip-path="url(#paa785890e0)" d="M 615.152095 305.911789 
L 611.075249 307.750084 
L 612.050721 303.385631 
L 615.152095 305.911789 
z
" style="stroke:#000000;stroke-linecap:round;"/>
   </g>
   <g id="patch_27">
    <path clip-path="url(#paa785890e0)" d="M 612.493735 322.43977 
Q 770.968629 426.840005 928.509878 530.625173 
" style="fill:none;stroke:#000000;stroke-linecap:round;"/>
    <path clip-path="url(#paa785890e0)" d="M 926.269836 526.754487 
L 928.509878 530.625173 
L 924.069304 530.094795 
L 926.269836 526.754487 
z
" style="stroke:#000000;stroke-linecap:round;"/>
   </g>
   <g id="patch_28">
    <path clip-path="url(#paa785890e0)" d="M 614.09659 315.15896 
Q 749.761156 294.86256 884.319995 274.731585 
" style="fill:none;stroke:#000000;stroke-linecap:round;"/>
    <path clip-path="url(#paa785890e0)" d="M 880.068101 273.34544 
L 884.319995 274.731585 
L 880.659943 277.301413 
L 880.068101 273.34544 
z
" style="stroke:#000000;stroke-linecap:round;"/>
   </g>
   <g id="patch_29">
    <path clip-path="url(#paa785890e0)" d="M 614.067145 318.429236 
Q 783.542032 346.897798 951.914333 375.181147 
" style="fill:none;stroke:#000000;stroke-linecap:round;"/>
    <path clip-path="url(#paa785890e0)" d="M 948.300921 372.546141 
L 951.914333 375.181147 
L 947.638281 376.490873 
L 948.300921 372.546141 
z
" style="stroke:#000000;stroke-linecap:round;"/>
   </g>
   <g id="patch_30">
    <path clip-path="url(#paa785890e0)" d="M 612.672845 311.243278 
Q 684.977498 266.842731 756.329412 223.027239 
" style="fill:none;stroke:#000000;stroke-linecap:round;"/>
    <path clip-path="url(#paa785890e0)" d="M 751.874213 223.41608 
L 756.329412 223.027239 
L 753.967366 226.824703 
L 751.874213 223.41608 
z
" style="stroke:#000000;stroke-linecap:round;"/>
   </g>
   <g id="patch_31">
    <path clip-path="url(#paa785890e0)" d="M 326.349114 390.025276 
Q 350.156504 547.429163 373.796693 703.727589 
" style="fill:none;stroke:#000000;stroke-linecap:round;"/>
    <path clip-path="url(#paa785890e0)" d="M 375.176004 699.473473 
L 373.796693 703.727589 
L 371.220987 700.07167 
L 375.176004 699.473473 
z
" style="stroke:#000000;stroke-linecap:round;"/>
   </g>
   <g id="patch_32">
    <path clip-path="url(#paa785890e0)" d="M 324.78093 374.734096 
Q 319.463709 276.859585 314.207138 180.101461 
" style="fill:none;stroke:#000000;stroke-linecap:round;"/>
    <path clip-path="url(#paa785890e0)" d="M 312.427071 184.204065 
L 314.207138 180.101461 
L 316.421181 183.987077 
L 312.427071 184.204065 
z
" style="stroke:#000000;stroke-linecap:round;"/>
   </g>
   <g id="patch_33">
    <path clip-path="url(#paa785890e0)" d="M 331.307659 377.740905 
Q 470.078394 271.535836 607.961277 166.010266 
" style="fill:none;stroke:#000000;stroke-linecap:round;"/>
    <path clip-path="url(#paa785890e0)" d="M 603.569276 166.853073 
L 607.961277 166.010266 
L 606.000322 170.029551 
L 603.569276 166.853073 
z
" style="stroke:#000000;stroke-linecap:round;"/>
   </g>
   <g id="patch_34">
    <path clip-path="url(#paa785890e0)" d="M 322.409509 389.586243 
Q 274.345912 513.152649 226.687615 635.677071 
" style="fill:none;stroke:#000000;stroke-linecap:round;"/>
    <path clip-path="url(#paa785890e0)" d="M 230.001621 632.674178 
L 226.687615 635.677071 
L 226.273704 631.224131 
L 230.001621 632.674178 
z
" style="stroke:#000000;stroke-linecap:round;"/>
   </g>
   <g id="patch_35">
    <path clip-path="url(#paa785890e0)" d="M 290.219183 437.491267 
Q 331.619359 571.271356 372.689009 703.983384 
" style="fill:none;stroke:#000000;stroke-linecap:round;"/>
    <path clip-path="url(#paa785890e0)" d="M 373.417085 699.570913 
L 372.689009 703.983384 
L 369.595878 700.753441 
L 373.417085 699.570913 
z
" style="stroke:#000000;stroke-linecap:round;"/>
   </g>
   <g id="patch_36">
    <path clip-path="url(#paa785890e0)" d="M 288.517412 420.400031 
Q 300.82976 299.68219 313.028666 180.076614 
" style="fill:none;stroke:#000000;stroke-linecap:round;"/>
    <path clip-path="url(#paa785890e0)" d="M 310.633122 183.853037 
L 313.028666 180.076614 
L 314.612478 184.258903 
L 310.633122 183.853037 
z
" style="stroke:#000000;stroke-linecap:round;"/>
   </g>
   <g id="patch_37">
    <path clip-path="url(#paa785890e0)" d="M 294.40789 423.55711 
Q 451.696483 294.529027 608.120676 166.210035 
" style="fill:none;stroke:#000000;stroke-linecap:round;"/>
    <path clip-path="url(#paa785890e0)" d="M 603.759639 167.20067 
L 608.120676 166.210035 
L 606.296562 170.293246 
L 603.759639 167.20067 
z
" style="stroke:#000000;stroke-linecap:round;"/>
   </g>
   <g id="patch_38">
    <path clip-path="url(#paa785890e0)" d="M 285.123947 437.518429 
Q 255.454395 537.036811 226.10427 635.48376 
" style="fill:none;stroke:#000000;stroke-linecap:round;"/>
    <path clip-path="url(#paa785890e0)" d="M 229.163724 632.221898 
L 226.10427 635.48376 
L 225.330453 631.07908 
L 229.163724 632.221898 
z
" style="stroke:#000000;stroke-linecap:round;"/>
   </g>
   <g id="patch_39">
    <path clip-path="url(#paa785890e0)" d="M 507.784465 431.35818 
Q 442.743458 568.374755 378.181899 704.381315 
" style="fill:none;stroke:#000000;stroke-linecap:round;"/>
    <path clip-path="url(#paa785890e0)" d="M 381.703994 701.62544 
L 378.181899 704.381315 
L 378.090456 699.910114 
L 381.703994 701.62544 
z
" style="stroke:#000000;stroke-linecap:round;"/>
   </g>
   <g id="patch_40">
    <path clip-path="url(#paa785890e0)" d="M 506.332712 418.293957 
Q 412.05217 297.956919 318.461152 178.499969 
" style="fill:none;stroke:#000000;stroke-linecap:round;"/>
    <path clip-path="url(#paa785890e0)" d="M 319.353717 182.88213 
L 318.461152 178.499969 
L 322.502419 180.415214 
L 319.353717 182.88213 
z
" style="stroke:#000000;stroke-linecap:round;"/>
   </g>
   <g id="patch_41">
    <path clip-path="url(#paa785890e0)" d="M 513.912959 417.182349 
Q 562.767102 292.299805 611.213929 168.458458 
" style="fill:none;stroke:#000000;stroke-linecap:round;"/>
    <path clip-path="url(#paa785890e0)" d="M 607.894115 171.454929 
L 611.213929 168.458458 
L 611.619217 172.912192 
L 607.894115 171.454929 
z
" style="stroke:#000000;stroke-linecap:round;"/>
   </g>
   <g id="patch_42">
    <path clip-path="url(#paa785890e0)" d="M 504.944449 429.056427 
Q 367.010987 533.942672 229.967484 638.152182 
" style="fill:none;stroke:#000000;stroke-linecap:round;"/>
    <path clip-path="url(#paa785890e0)" d="M 234.362084 637.323026 
L 229.967484 638.152182 
L 231.940919 634.139009 
L 234.362084 637.323026 
z
" style="stroke:#000000;stroke-linecap:round;"/>
   </g>
   <g id="patch_43">
    <path clip-path="url(#paa785890e0)" d="M 445.613639 423.542218 
Q 411.044154 564.244786 376.741428 703.86161 
" style="fill:none;stroke:#000000;stroke-linecap:round;"/>
    <path clip-path="url(#paa785890e0)" d="M 379.63805 700.454327 
L 376.741428 703.86161 
L 375.753575 699.499942 
L 379.63805 700.454327 
z
" style="stroke:#000000;stroke-linecap:round;"/>
   </g>
   <g id="patch_44">
    <path clip-path="url(#paa785890e0)" d="M 443.747914 409.326148 
Q 380.323922 293.763418 317.437849 179.180813 
" style="fill:none;stroke:#000000;stroke-linecap:round;"/>
    <path clip-path="url(#paa785890e0)" d="M 317.609067 183.64967 
L 317.437849 179.180813 
L 321.115666 181.725153 
L 317.609067 183.64967 
z
" style="stroke:#000000;stroke-linecap:round;"/>
   </g>
   <g id="patch_45">
    <path clip-path="url(#paa785890e0)" d="M 451.659685 409.63171 
Q 531.05068 288.219938 609.829798 167.743904 
" style="fill:none;stroke:#000000;stroke-linecap:round;"/>
    <path clip-path="url(#paa785890e0)" d="M 605.966778 169.997142 
L 609.829798 167.743904 
L 609.314576 172.186262 
L 605.966778 169.997142 
z
" style="stroke:#000000;stroke-linecap:round;"/>
   </g>
   <g id="patch_46">
    <path clip-path="url(#paa785890e0)" d="M 442.043842 421.552356 
Q 335.258071 529.846176 229.257307 637.343902 
" style="fill:none;stroke:#000000;stroke-linecap:round;"/>
    <path clip-path="url(#paa785890e0)" d="M 233.489928 635.899977 
L 229.257307 637.343902 
L 230.641739 633.09145 
L 233.489928 635.899977 
z
" style="stroke:#000000;stroke-linecap:round;"/>
   </g>
   <g id="patch_47">
    <path clip-path="url(#paa785890e0)" d="M 402.364149 390.529821 
Q 388.923366 547.657098 375.577873 703.670409 
" style="fill:none;stroke:#000000;stroke-linecap:round;"/>
    <path clip-path="url(#paa785890e0)" d="M 377.911514 699.855422 
L 375.577873 703.670409 
L 373.926068 699.514504 
L 377.911514 699.855422 
z
" style="stroke:#000000;stroke-linecap:round;"/>
   </g>
   <g id="patch_48">
    <path clip-path="url(#paa785890e0)" d="M 400.410457 378.160273 
Q 358.355812 278.326035 316.735196 179.522145 
" style="fill:none;stroke:#000000;stroke-linecap:round;"/>
    <path clip-path="url(#paa785890e0)" d="M 316.444881 183.984848 
L 316.735196 179.522145 
L 320.131169 182.432018 
L 316.444881 183.984848 
z
" style="stroke:#000000;stroke-linecap:round;"/>
   </g>
   <g id="patch_49">
    <path clip-path="url(#paa785890e0)" d="M 407.348481 379.424141 
Q 508.441707 272.757801 608.765848 166.902945 
" style="fill:none;stroke:#000000;stroke-linecap:round;"/>
    <path clip-path="url(#paa785890e0)" d="M 604.562655 168.430417 
L 608.765848 166.902945 
L 607.46591 171.181982 
L 604.562655 168.430417 
z
" style="stroke:#000000;stroke-linecap:round;"/>
   </g>
   <g id="patch_50">
    <path clip-path="url(#paa785890e0)" d="M 399.246315 389.403198 
Q 313.430965 513.41458 228.251816 636.506588 
" style="fill:none;stroke:#000000;stroke-linecap:round;"/>
    <path clip-path="url(#paa785890e0)" d="M 232.172587 634.355412 
L 228.251816 636.506588 
L 228.883338 632.079266 
L 232.172587 634.355412 
z
" style="stroke:#000000;stroke-linecap:round;"/>
   </g>
   <g id="patch_51">
    <path clip-path="url(#paa785890e0)" d="M 497.96805 469.049302 
Q 437.914978 587.25496 378.368306 704.463844 
" style="fill:none;stroke:#000000;stroke-linecap:round;"/>
    <path clip-path="url(#paa785890e0)" d="M 381.963142 701.803552 
L 378.368306 704.463844 
L 378.396974 699.9918 
L 381.963142 701.803552 
z
" style="stroke:#000000;stroke-linecap:round;"/>
   </g>
   <g id="patch_52">
    <path clip-path="url(#paa785890e0)" d="M 497.2662 455.673897 
Q 407.284648 316.815656 317.911099 178.895677 
" style="fill:none;stroke:#000000;stroke-linecap:round;"/>
    <path clip-path="url(#paa785890e0)" d="M 318.407943 183.340128 
L 317.911099 178.895677 
L 321.764766 181.164872 
L 318.407943 183.340128 
z
" style="stroke:#000000;stroke-linecap:round;"/>
   </g>
   <g id="patch_53">
    <path clip-path="url(#paa785890e0)" d="M 504.175757 454.922047 
Q 557.943328 311.18731 611.319181 168.49974 
" style="fill:none;stroke:#000000;stroke-linecap:round;"/>
    <path clip-path="url(#paa785890e0)" d="M 608.044498 171.545467 
L 611.319181 168.49974 
L 611.790953 172.946922 
L 608.044498 171.545467 
z
" style="stroke:#000000;stroke-linecap:round;"/>
   </g>
   <g id="patch_54">
    <path clip-path="url(#paa785890e0)" d="M 494.991619 466.373282 
Q 362.17008 552.7947 230.285667 638.606368 
" style="fill:none;stroke:#000000;stroke-linecap:round;"/>
    <path clip-path="url(#paa785890e0)" d="M 234.729185 638.101247 
L 230.285667 638.606368 
L 232.547681 634.748481 
L 234.729185 638.101247 
z
" style="stroke:#000000;stroke-linecap:round;"/>
   </g>
   <g id="patch_55">
    <path clip-path="url(#paa785890e0)" d="M 429.076165 468.419636 
Q 402.707228 586.669575 376.581628 703.828281 
" style="fill:none;stroke:#000000;stroke-linecap:round;"/>
    <path clip-path="url(#paa785890e0)" d="M 379.404273 700.359466 
L 376.581628 703.828281 
L 375.500163 699.488876 
L 379.404273 700.359466 
z
" style="stroke:#000000;stroke-linecap:round;"/>
   </g>
   <g id="patch_56">
    <path clip-path="url(#paa785890e0)" d="M 428.071708 456.142926 
Q 372.139969 317.337012 316.626092 179.568108 
" style="fill:none;stroke:#000000;stroke-linecap:round;"/>
    <path clip-path="url(#paa785890e0)" d="M 316.266022 184.025725 
L 316.626092 179.568108 
L 319.976144 182.530735 
L 316.266022 184.025725 
z
" style="stroke:#000000;stroke-linecap:round;"/>
   </g>
   <g id="patch_57">
    <path clip-path="url(#paa785890e0)" d="M 433.839073 456.617363 
Q 522.224926 311.767508 610.02842 167.872041 
" style="fill:none;stroke:#000000;stroke-linecap:round;"/>
    <path clip-path="url(#paa785890e0)" d="M 606.237649 170.244814 
L 610.02842 167.872041 
L 609.652176 172.328322 
L 606.237649 170.244814 
z
" style="stroke:#000000;stroke-linecap:round;"/>
   </g>
   <g id="patch_58">
    <path clip-path="url(#paa785890e0)" d="M 425.62418 466.368115 
Q 327.210105 552.428763 229.637656 637.753432 
" style="fill:none;stroke:#000000;stroke-linecap:round;"/>
    <path clip-path="url(#paa785890e0)" d="M 233.965307 636.625854 
L 229.637656 637.753432 
L 231.332184 633.614764 
L 233.965307 636.625854 
z
" style="stroke:#000000;stroke-linecap:round;"/>
   </g>
   <g id="patch_59">
    <path clip-path="url(#paa785890e0)" d="M 259.986604 390.467716 
Q 316.368453 547.805292 372.37314 704.09037 
" style="fill:none;stroke:#000000;stroke-linecap:round;"/>
    <path clip-path="url(#paa785890e0)" d="M 372.906529 699.650157 
L 372.37314 704.09037 
L 369.141003 700.999531 
L 372.906529 699.650157 
z
" style="stroke:#000000;stroke-linecap:round;"/>
   </g>
   <g id="patch_60">
    <path clip-path="url(#paa785890e0)" d="M 259.381245 375.787482 
Q 285.75492 277.282103 311.839438 179.856719 
" style="fill:none;stroke:#000000;stroke-linecap:round;"/>
    <path clip-path="url(#paa785890e0)" d="M 308.872968 183.203367 
L 311.839438 179.856719 
L 312.736875 184.237884 
L 308.872968 183.203367 
z
" style="stroke:#000000;stroke-linecap:round;"/>
   </g>
   <g id="patch_61">
    <path clip-path="url(#paa785890e0)" d="M 263.922372 379.159821 
Q 436.207893 271.98902 607.544068 165.408764 
" style="fill:none;stroke:#000000;stroke-linecap:round;"/>
    <path clip-path="url(#paa785890e0)" d="M 603.091187 165.823316 
L 607.544068 165.408764 
L 605.203982 169.2198 
L 603.091187 165.823316 
z
" style="stroke:#000000;stroke-linecap:round;"/>
   </g>
   <g id="patch_62">
    <path clip-path="url(#paa785890e0)" d="M 256.406988 390.853574 
Q 240.587359 513.593827 224.910648 635.225218 
" style="fill:none;stroke:#000000;stroke-linecap:round;"/>
    <path clip-path="url(#paa785890e0)" d="M 227.405559 631.513693 
L 224.910648 635.225218 
L 223.438375 631.002374 
L 227.405559 631.513693 
z
" style="stroke:#000000;stroke-linecap:round;"/>
   </g>
   <g id="patch_63">
    <path clip-path="url(#paa785890e0)" d="M 358.983426 460.161686 
Q 366.752344 582.467784 374.450386 703.658097 
" style="fill:none;stroke:#000000;stroke-linecap:round;"/>
    <path clip-path="url(#paa785890e0)" d="M 376.192793 699.539357 
L 374.450386 703.658097 
L 372.200839 699.792927 
L 376.192793 699.539357 
z
" style="stroke:#000000;stroke-linecap:round;"/>
   </g>
   <g id="patch_64">
    <path clip-path="url(#paa785890e0)" d="M 357.882564 450.234452 
Q 336.345161 314.574663 314.983062 180.019079 
" style="fill:none;stroke:#000000;stroke-linecap:round;"/>
    <path clip-path="url(#paa785890e0)" d="M 313.634987 184.283196 
L 314.983062 180.019079 
L 317.585511 183.656009 
L 313.634987 184.283196 
z
" style="stroke:#000000;stroke-linecap:round;"/>
   </g>
   <g id="patch_65">
    <path clip-path="url(#paa785890e0)" d="M 361.944677 451.400322 
Q 485.841756 308.84041 609.005434 167.124372 
" style="fill:none;stroke:#000000;stroke-linecap:round;"/>
    <path clip-path="url(#paa785890e0)" d="M 604.871973 168.83156 
L 609.005434 167.124372 
L 607.891108 171.455454 
L 604.871973 168.83156 
z
" style="stroke:#000000;stroke-linecap:round;"/>
   </g>
   <g id="patch_66">
    <path clip-path="url(#paa785890e0)" d="M 355.749435 459.23341 
Q 291.727678 548.363972 228.358172 636.586475 
" style="fill:none;stroke:#000000;stroke-linecap:round;"/>
    <path clip-path="url(#paa785890e0)" d="M 232.316119 634.504489 
L 228.358172 636.586475 
L 229.067352 632.170927 
L 232.316119 634.504489 
z
" style="stroke:#000000;stroke-linecap:round;"/>
   </g>
   <g id="patch_67">
    <path clip-path="url(#paa785890e0)" d="M 225.517095 423.706419 
Q 298.734295 564.600689 371.435952 704.502882 
" style="fill:none;stroke:#000000;stroke-linecap:round;"/>
    <path clip-path="url(#paa785890e0)" d="M 371.366169 700.03129 
L 371.435952 704.502882 
L 367.816809 701.875753 
L 371.366169 700.03129 
z
" style="stroke:#000000;stroke-linecap:round;"/>
   </g>
   <g id="patch_68">
    <path clip-path="url(#paa785890e0)" d="M 224.58344 407.730772 
Q 268.045906 293.154822 311.111836 179.624223 
" style="fill:none;stroke:#000000;stroke-linecap:round;"/>
    <path clip-path="url(#paa785890e0)" d="M 307.823163 182.654839 
L 311.111836 179.624223 
L 311.563125 184.073531 
L 307.823163 182.654839 
z
" style="stroke:#000000;stroke-linecap:round;"/>
   </g>
   <g id="patch_69">
    <path clip-path="url(#paa785890e0)" d="M 228.831894 411.15588 
Q 418.696638 288.037318 607.623311 165.527052 
" style="fill:none;stroke:#000000;stroke-linecap:round;"/>
    <path clip-path="url(#paa785890e0)" d="M 603.179015 166.025285 
L 607.623311 165.527052 
L 605.35532 169.381428 
L 603.179015 166.025285 
z
" style="stroke:#000000;stroke-linecap:round;"/>
   </g>
   <g id="patch_70">
    <path clip-path="url(#paa785890e0)" d="M 221.569792 424.693074 
Q 222.721265 530.487635 223.860571 635.164228 
" style="fill:none;stroke:#000000;stroke-linecap:round;"/>
    <path clip-path="url(#paa785890e0)" d="M 225.816919 631.142698 
L 223.860571 635.164228 
L 221.817156 631.186232 
L 225.816919 631.142698 
z
" style="stroke:#000000;stroke-linecap:round;"/>
   </g>
   <g id="PathCollection_1">
    <path clip-path="url(#paa785890e0)" d="M 288.284884 506.353547 
C 292.478113 506.353547 296.500163 504.687559 299.465224 501.722499 
C 302.430284 498.757438 304.096272 494.735388 304.096272 490.542159 
C 304.096272 486.34893 302.430284 482.32688 299.465224 479.361819 
C 296.500163 476.396758 292.478113 474.73077 288.284884 474.73077 
C 284.091655 474.73077 280.069605 476.396758 277.104544 479.361819 
C 274.139483 482.32688 272.473495 486.34893 272.473495 490.542159 
C 272.473495 494.735388 274.139483 498.757438 277.104544 501.722499 
C 280.069605 504.687559 284.091655 506.353547 288.284884 506.353547 
z
" style="fill:#ead5c9;stroke:#ead5c9;"/>
    <path clip-path="url(#paa785890e0)" d="M 369.02235 428.69288 
C 371.422561 428.69288 373.724789 427.739266 375.421995 426.04206 
C 377.1192 424.344855 378.072814 422.042627 378.072814 419.642416 
C 378.072814 417.242204 377.1192 414.939977 375.421995 413.242771 
C 373.724789 411.545565 371.422561 410.591951 369.02235 410.591951 
C 366.622139 410.591951 364.319911 411.545565 362.622706 413.242771 
C 360.9255 414.939977 359.971886 417.242204 359.971886 419.642416 
C 359.971886 422.042627 360.9255 424.344855 362.622706 426.04206 
C 364.319911 427.739266 366.622139 428.69288 369.02235 428.69288 
z
" style="fill:#5b7ae5;stroke:#5b7ae5;"/>
    <path clip-path="url(#paa785890e0)" d="M 619.442412 308.691547 
C 622.416362 308.691547 625.268908 307.509984 627.371808 305.407083 
C 629.474709 303.304183 630.656272 300.451637 630.656272 297.477687 
C 630.656272 294.503737 629.474709 291.651191 627.371808 289.548291 
C 625.268908 287.44539 622.416362 286.263827 619.442412 286.263827 
C 616.468462 286.263827 613.615916 287.44539 611.513016 289.548291 
C 609.410115 291.651191 608.228552 294.503737 608.228552 297.477687 
C 608.228552 300.451637 609.410115 303.304183 611.513016 305.407083 
C 613.615916 307.509984 616.468462 308.691547 619.442412 308.691547 
z
" style="fill:#4c66d6;stroke:#4c66d6;"/>
    <path clip-path="url(#paa785890e0)" d="M 603.783797 327.131955 
C 606.549898 327.131955 609.20308 326.032971 611.15901 324.077042 
C 613.114939 322.121112 614.213923 319.46793 614.213923 316.701829 
C 614.213923 313.935727 613.114939 311.282545 611.15901 309.326616 
C 609.20308 307.370686 606.549898 306.271702 603.783797 306.271702 
C 601.017695 306.271702 598.364513 307.370686 596.408584 309.326616 
C 594.452654 311.282545 593.35367 313.935727 593.35367 316.701829 
C 593.35367 319.46793 594.452654 322.121112 596.408584 324.077042 
C 598.364513 326.032971 601.017695 327.131955 603.783797 327.131955 
z
" style="fill:#98b9ff;stroke:#98b9ff;"/>
    <path clip-path="url(#paa785890e0)" d="M 934.786713 541.158282 
C 936.483496 541.158282 938.111012 540.484143 939.310818 539.284337 
C 940.510625 538.08453 941.184764 536.457015 941.184764 534.760232 
C 941.184764 533.063449 940.510625 531.435933 939.310818 530.236127 
C 938.111012 529.03632 936.483496 528.362181 934.786713 528.362181 
C 933.08993 528.362181 931.462415 529.03632 930.262608 530.236127 
C 929.062802 531.435933 928.388663 533.063449 928.388663 534.760232 
C 928.388663 536.457015 929.062802 538.08453 930.262608 539.284337 
C 931.462415 540.484143 933.08993 541.158282 934.786713 541.158282 
z
" style="fill:#e2dad5;stroke:#e2dad5;"/>
    <path clip-path="url(#paa785890e0)" d="M 325.198295 390.112021 
C 327.239153 390.112021 329.196697 389.301179 330.639801 387.858075 
C 332.082905 386.414971 332.893747 384.457427 332.893747 382.416569 
C 332.893747 380.375712 332.082905 378.418168 330.639801 376.975063 
C 329.196697 375.531959 327.239153 374.721118 325.198295 374.721118 
C 323.157437 374.721118 321.199893 375.531959 319.756789 376.975063 
C 318.313685 378.418168 317.502844 380.375712 317.502844 382.416569 
C 317.502844 384.457427 318.313685 386.414971 319.756789 387.858075 
C 321.199893 389.301179 323.157437 390.112021 325.198295 390.112021 
z
" style="fill:#f18f71;stroke:#f18f71;"/>
    <path clip-path="url(#paa785890e0)" d="M 287.62817 437.884768 
C 289.95296 437.884768 292.182844 436.961119 293.826718 435.317245 
C 295.470593 433.673371 296.394241 431.443486 296.394241 429.118697 
C 296.394241 426.793908 295.470593 424.564023 293.826718 422.920149 
C 292.182844 421.276275 289.95296 420.352627 287.62817 420.352627 
C 285.303381 420.352627 283.073497 421.276275 281.429622 422.920149 
C 279.785748 424.564023 278.8621 426.793908 278.8621 429.118697 
C 278.8621 431.443486 279.785748 433.673371 281.429622 435.317245 
C 283.073497 436.961119 285.303381 437.884768 287.62817 437.884768 
z
" style="fill:#3b4cc0;stroke:#3b4cc0;"/>
    <path clip-path="url(#paa785890e0)" d="M 511.09847 432.105614 
C 513.148166 432.105614 515.114187 431.291262 516.563541 429.841908 
C 518.012895 428.392554 518.827248 426.426532 518.827248 424.376837 
C 518.827248 422.327141 518.012895 420.361119 516.563541 418.911765 
C 515.114187 417.462411 513.148166 416.648059 511.09847 416.648059 
C 509.048774 416.648059 507.082752 417.462411 505.633399 418.911765 
C 504.184045 420.361119 503.369692 422.327141 503.369692 424.376837 
C 503.369692 426.426532 504.184045 428.392554 505.633399 429.841908 
C 507.082752 431.291262 509.048774 432.105614 511.09847 432.105614 
z
" style="fill:#d2dbe8;stroke:#d2dbe8;"/>
    <path clip-path="url(#paa785890e0)" d="M 447.449385 423.765926 
C 449.490243 423.765926 451.447787 422.955085 452.890891 421.511981 
C 454.333996 420.068876 455.144837 418.111332 455.144837 416.070475 
C 455.144837 414.029617 454.333996 412.072073 452.890891 410.628969 
C 451.447787 409.185865 449.490243 408.375023 447.449385 408.375023 
C 445.408528 408.375023 443.450984 409.185865 442.007879 410.628969 
C 440.564775 412.072073 439.753934 414.029617 439.753934 416.070475 
C 439.753934 418.111332 440.564775 420.068876 442.007879 421.511981 
C 443.450984 422.955085 445.408528 423.765926 447.449385 423.765926 
z
" style="fill:#98b9ff;stroke:#98b9ff;"/>
    <path clip-path="url(#paa785890e0)" d="M 402.913886 390.5527 
C 404.624312 390.5527 406.264913 389.87314 407.474366 388.663687 
C 408.68382 387.454234 409.363379 385.813633 409.363379 384.103207 
C 409.363379 382.392782 408.68382 380.752181 407.474366 379.542727 
C 406.264913 378.333274 404.624312 377.653715 402.913886 377.653715 
C 401.203461 377.653715 399.56286 378.333274 398.353407 379.542727 
C 397.143953 380.752181 396.464394 382.392782 396.464394 384.103207 
C 396.464394 385.813633 397.143953 387.454234 398.353407 388.663687 
C 399.56286 389.87314 401.203461 390.5527 402.913886 390.5527 
z
" style="fill:#92b4fe;stroke:#92b4fe;"/>
    <path clip-path="url(#paa785890e0)" d="M 501.468601 469.887759 
C 503.518297 469.887759 505.484318 469.073406 506.933672 467.624052 
C 508.383026 466.174698 509.197379 464.208677 509.197379 462.158981 
C 509.197379 460.109285 508.383026 458.143263 506.933672 456.69391 
C 505.484318 455.244556 503.518297 454.430203 501.468601 454.430203 
C 499.418905 454.430203 497.452884 455.244556 496.00353 456.69391 
C 494.554176 458.143263 493.739823 460.109285 493.739823 462.158981 
C 493.739823 464.208677 494.554176 466.174698 496.00353 467.624052 
C 497.452884 469.073406 499.418905 469.887759 501.468601 469.887759 
z
" style="fill:#4e68d8;stroke:#4e68d8;"/>
    <path clip-path="url(#paa785890e0)" d="M 430.480665 468.570732 
C 432.191091 468.570732 433.831692 467.891173 435.041145 466.68172 
C 436.250599 465.472266 436.930158 463.831665 436.930158 462.12124 
C 436.930158 460.410814 436.250599 458.770213 435.041145 457.56076 
C 433.831692 456.351306 432.191091 455.671747 430.480665 455.671747 
C 428.77024 455.671747 427.129639 456.351306 425.920185 457.56076 
C 424.710732 458.770213 424.031173 460.410814 424.031173 462.12124 
C 424.031173 463.831665 424.710732 465.472266 425.920185 466.68172 
C 427.129639 467.891173 428.77024 468.570732 430.480665 468.570732 
z
" style="fill:#b7cff9;stroke:#b7cff9;"/>
    <path clip-path="url(#paa785890e0)" d="M 257.390468 390.918466 
C 259.431325 390.918466 261.388869 390.107625 262.831974 388.66452 
C 264.275078 387.221416 265.085919 385.263872 265.085919 383.223014 
C 265.085919 381.182157 264.275078 379.224613 262.831974 377.781508 
C 261.388869 376.338404 259.431325 375.527563 257.390468 375.527563 
C 255.34961 375.527563 253.392066 376.338404 251.948962 377.781508 
C 250.505858 379.224613 249.695016 381.182157 249.695016 383.223014 
C 249.695016 385.263872 250.505858 387.221416 251.948962 388.66452 
C 253.392066 390.107625 255.34961 390.918466 257.390468 390.918466 
z
" style="fill:#f5a081;stroke:#f5a081;"/>
    <path clip-path="url(#paa785890e0)" d="M 358.666499 460.172298 
C 359.992514 460.172298 361.264398 459.645466 362.202033 458.707832 
C 363.139667 457.770197 363.666499 456.498313 363.666499 455.172298 
C 363.666499 453.846282 363.139667 452.574399 362.202033 451.636764 
C 361.264398 450.699129 359.992514 450.172298 358.666499 450.172298 
C 357.340483 450.172298 356.068599 450.699129 355.130965 451.636764 
C 354.19333 452.574399 353.666499 453.846282 353.666499 455.172298 
C 353.666499 456.498313 354.19333 457.770197 355.130965 458.707832 
C 356.068599 459.645466 357.340483 460.172298 358.666499 460.172298 
z
" style="fill:#a2c1ff;stroke:#a2c1ff;"/>
    <path clip-path="url(#paa785890e0)" d="M 221.47438 424.69296 
C 223.799169 424.69296 226.029054 423.769312 227.672928 422.125438 
C 229.316802 420.481564 230.240451 418.251679 230.240451 415.92689 
C 230.240451 413.602101 229.316802 411.372216 227.672928 409.728342 
C 226.029054 408.084468 223.799169 407.160819 221.47438 407.160819 
C 219.149591 407.160819 216.919706 408.084468 215.275832 409.728342 
C 213.631958 411.372216 212.70831 413.602101 212.70831 415.92689 
C 212.70831 418.251679 213.631958 420.481564 215.275832 422.125438 
C 216.919706 423.769312 219.149591 424.69296 221.47438 424.69296 
z
" style="fill:#efcfbf;stroke:#efcfbf;"/>
    <path clip-path="url(#paa785890e0)" d="M 374.931298 717.69564 
C 376.646246 717.69564 378.291186 717.014283 379.503838 715.801631 
C 380.71649 714.588979 381.397846 712.94404 381.397846 711.229091 
C 381.397846 709.514142 380.71649 707.869202 379.503838 706.65655 
C 378.291186 705.443898 376.646246 704.762542 374.931298 704.762542 
C 373.216349 704.762542 371.571409 705.443898 370.358757 706.65655 
C 369.146105 707.869202 368.464749 709.514142 368.464749 711.229091 
C 368.464749 712.94404 369.146105 714.588979 370.358757 715.801631 
C 371.571409 717.014283 373.216349 717.69564 374.931298 717.69564 
z
" style="fill:#e1dad6;stroke:#e1dad6;"/>
    <path clip-path="url(#paa785890e0)" d="M 313.796695 178.995879 
C 315.50712 178.995879 317.147721 178.31632 318.357174 177.106867 
C 319.566628 175.897413 320.246187 174.256812 320.246187 172.546387 
C 320.246187 170.835962 319.566628 169.195361 318.357174 167.985907 
C 317.147721 166.776454 315.50712 166.096895 313.796695 166.096895 
C 312.086269 166.096895 310.445668 166.776454 309.236215 167.985907 
C 308.026761 169.195361 307.347202 170.835962 307.347202 172.546387 
C 307.347202 174.256812 308.026761 175.897413 309.236215 177.106867 
C 310.445668 178.31632 312.086269 178.995879 313.796695 178.995879 
z
" style="fill:#6180e9;stroke:#6180e9;"/>
    <path clip-path="url(#paa785890e0)" d="M 613.970935 167.860402 
C 615.68136 167.860402 617.321961 167.180842 618.531415 165.971389 
C 619.740868 164.761936 620.420427 163.121334 620.420427 161.410909 
C 620.420427 159.700484 619.740868 158.059883 618.531415 156.850429 
C 617.321961 155.640976 615.68136 154.961417 613.970935 154.961417 
C 612.26051 154.961417 610.619908 155.640976 609.410455 156.850429 
C 608.201002 158.059883 607.521442 159.700484 607.521442 161.410909 
C 607.521442 163.121334 608.201002 164.761936 609.410455 165.971389 
C 610.619908 167.180842 612.26051 167.860402 613.970935 167.860402 
z
" style="fill:#b40426;stroke:#b40426;"/>
    <path clip-path="url(#paa785890e0)" d="M 223.942953 649.182799 
C 225.653378 649.182799 227.293979 648.50324 228.503433 647.293787 
C 229.712886 646.084333 230.392445 644.443732 230.392445 642.733307 
C 230.392445 641.022882 229.712886 639.38228 228.503433 638.172827 
C 227.293979 636.963374 225.653378 636.283814 223.942953 636.283814 
C 222.232528 636.283814 220.591927 636.963374 219.382473 638.172827 
C 218.17302 639.38228 217.493461 641.022882 217.493461 642.733307 
C 217.493461 644.443732 218.17302 646.084333 219.382473 647.293787 
C 220.591927 648.50324 222.232528 649.182799 223.942953 649.182799 
z
" style="fill:#f5c1a9;stroke:#f5c1a9;"/>
    <path clip-path="url(#paa785890e0)" d="M 891.751073 280.017892 
C 893.447856 280.017892 895.075372 279.343753 896.275178 278.143947 
C 897.474985 276.94414 898.149124 275.316625 898.149124 273.619842 
C 898.149124 271.923059 897.474985 270.295543 896.275178 269.095737 
C 895.075372 267.89593 893.447856 267.221791 891.751073 267.221791 
C 890.054291 267.221791 888.426775 267.89593 887.226968 269.095737 
C 886.027162 270.295543 885.353023 271.923059 885.353023 273.619842 
C 885.353023 275.316625 886.027162 276.94414 887.226968 278.143947 
C 888.426775 279.343753 890.054291 280.017892 891.751073 280.017892 
z
" style="fill:#89acfd;stroke:#89acfd;"/>
    <path clip-path="url(#paa785890e0)" d="M 959.32562 382.824153 
C 961.022403 382.824153 962.649918 382.150014 963.849725 380.950208 
C 965.049532 379.750401 965.72367 378.122885 965.72367 376.426103 
C 965.72367 374.72932 965.049532 373.101804 963.849725 371.901998 
C 962.649918 370.702191 961.022403 370.028052 959.32562 370.028052 
C 957.628837 370.028052 956.001322 370.702191 954.801515 371.901998 
C 953.601708 373.101804 952.927569 374.72932 952.927569 376.426103 
C 952.927569 378.122885 953.601708 379.750401 954.801515 380.950208 
C 956.001322 382.150014 957.628837 382.824153 959.32562 382.824153 
z
" style="fill:#3e51c5;stroke:#3e51c5;"/>
    <path clip-path="url(#paa785890e0)" d="M 762.734052 225.492354 
C 764.430835 225.492354 766.05835 224.818215 767.258157 223.618409 
C 768.457963 222.418602 769.132102 220.791087 769.132102 219.094304 
C 769.132102 217.397521 768.457963 215.770005 767.258157 214.570199 
C 766.05835 213.370392 764.430835 212.696253 762.734052 212.696253 
C 761.037269 212.696253 759.409753 213.370392 758.209947 214.570199 
C 757.01014 215.770005 756.336001 217.397521 756.336001 219.094304 
C 756.336001 220.791087 757.01014 222.418602 758.209947 223.618409 
C 759.409753 224.818215 761.037269 225.492354 762.734052 225.492354 
z
" style="fill:#6687ed;stroke:#6687ed;"/>
   </g>
   <g id="text_1">
    <g clip-path="url(#paa785890e0)">
     <!-- RASD1 -->
     <g transform="translate(271.384884 493.301534)scale(0.1 -0.1)">
      <defs>
       <path d="M 44.390625 34.1875 
Q 47.5625 33.109375 50.5625 29.59375 
Q 53.5625 26.078125 56.59375 19.921875 
L 66.609375 0 
L 56 0 
L 46.6875 18.703125 
Q 43.0625 26.03125 39.671875 28.421875 
Q 36.28125 30.8125 30.421875 30.8125 
L 19.671875 30.8125 
L 19.671875 0 
L 9.8125 0 
L 9.8125 72.90625 
L 32.078125 72.90625 
Q 44.578125 72.90625 50.734375 67.671875 
Q 56.890625 62.453125 56.890625 51.90625 
Q 56.890625 45.015625 53.6875 40.46875 
Q 50.484375 35.9375 44.390625 34.1875 
z
M 19.671875 64.796875 
L 19.671875 38.921875 
L 32.078125 38.921875 
Q 39.203125 38.921875 42.84375 42.21875 
Q 46.484375 45.515625 46.484375 51.90625 
Q 46.484375 58.296875 42.84375 61.546875 
Q 39.203125 64.796875 32.078125 64.796875 
z
" id="DejaVuSans-82"/>
       <path d="M 34.1875 63.1875 
L 20.796875 26.90625 
L 47.609375 26.90625 
z
M 28.609375 72.90625 
L 39.796875 72.90625 
L 67.578125 0 
L 57.328125 0 
L 50.6875 18.703125 
L 17.828125 18.703125 
L 11.1875 0 
L 0.78125 0 
z
" id="DejaVuSans-65"/>
       <path d="M 53.515625 70.515625 
L 53.515625 60.890625 
Q 47.90625 63.578125 42.921875 64.890625 
Q 37.9375 66.21875 33.296875 66.21875 
Q 25.25 66.21875 20.875 63.09375 
Q 16.5 59.96875 16.5 54.203125 
Q 16.5 49.359375 19.40625 46.890625 
Q 22.3125 44.4375 30.421875 42.921875 
L 36.375 41.703125 
Q 47.40625 39.59375 52.65625 34.296875 
Q 57.90625 29 57.90625 20.125 
Q 57.90625 9.515625 50.796875 4.046875 
Q 43.703125 -1.421875 29.984375 -1.421875 
Q 24.8125 -1.421875 18.96875 -0.25 
Q 13.140625 0.921875 6.890625 3.21875 
L 6.890625 13.375 
Q 12.890625 10.015625 18.65625 8.296875 
Q 24.421875 6.59375 29.984375 6.59375 
Q 38.421875 6.59375 43.015625 9.90625 
Q 47.609375 13.234375 47.609375 19.390625 
Q 47.609375 24.75 44.3125 27.78125 
Q 41.015625 30.8125 33.5 32.328125 
L 27.484375 33.5 
Q 16.453125 35.6875 11.515625 40.375 
Q 6.59375 45.0625 6.59375 53.421875 
Q 6.59375 63.09375 13.40625 68.65625 
Q 20.21875 74.21875 32.171875 74.21875 
Q 37.3125 74.21875 42.625 73.28125 
Q 47.953125 72.359375 53.515625 70.515625 
z
" id="DejaVuSans-83"/>
       <path d="M 19.671875 64.796875 
L 19.671875 8.109375 
L 31.59375 8.109375 
Q 46.6875 8.109375 53.6875 14.9375 
Q 60.6875 21.78125 60.6875 36.53125 
Q 60.6875 51.171875 53.6875 57.984375 
Q 46.6875 64.796875 31.59375 64.796875 
z
M 9.8125 72.90625 
L 30.078125 72.90625 
Q 51.265625 72.90625 61.171875 64.09375 
Q 71.09375 55.28125 71.09375 36.53125 
Q 71.09375 17.671875 61.125 8.828125 
Q 51.171875 0 30.078125 0 
L 9.8125 0 
z
" id="DejaVuSans-68"/>
       <path d="M 12.40625 8.296875 
L 28.515625 8.296875 
L 28.515625 63.921875 
L 10.984375 60.40625 
L 10.984375 69.390625 
L 28.421875 72.90625 
L 38.28125 72.90625 
L 38.28125 8.296875 
L 54.390625 8.296875 
L 54.390625 0 
L 12.40625 0 
z
" id="DejaVuSans-49"/>
      </defs>
      <use xlink:href="#DejaVuSans-82"/>
      <use x="65.482422" xlink:href="#DejaVuSans-65"/>
      <use x="133.890625" xlink:href="#DejaVuSans-83"/>
      <use x="197.367188" xlink:href="#DejaVuSans-68"/>
      <use x="274.369141" xlink:href="#DejaVuSans-49"/>
     </g>
    </g>
   </g>
   <g id="text_2">
    <g clip-path="url(#paa785890e0)">
     <!-- GNAS -->
     <g transform="translate(354.812975 422.401791)scale(0.1 -0.1)">
      <defs>
       <path d="M 59.515625 10.40625 
L 59.515625 29.984375 
L 43.40625 29.984375 
L 43.40625 38.09375 
L 69.28125 38.09375 
L 69.28125 6.78125 
Q 63.578125 2.734375 56.6875 0.65625 
Q 49.8125 -1.421875 42 -1.421875 
Q 24.90625 -1.421875 15.25 8.5625 
Q 5.609375 18.5625 5.609375 36.375 
Q 5.609375 54.25 15.25 64.234375 
Q 24.90625 74.21875 42 74.21875 
Q 49.125 74.21875 55.546875 72.453125 
Q 61.96875 70.703125 67.390625 67.28125 
L 67.390625 56.78125 
Q 61.921875 61.421875 55.765625 63.765625 
Q 49.609375 66.109375 42.828125 66.109375 
Q 29.4375 66.109375 22.71875 58.640625 
Q 16.015625 51.171875 16.015625 36.375 
Q 16.015625 21.625 22.71875 14.15625 
Q 29.4375 6.6875 42.828125 6.6875 
Q 48.046875 6.6875 52.140625 7.59375 
Q 56.25 8.5 59.515625 10.40625 
z
" id="DejaVuSans-71"/>
       <path d="M 9.8125 72.90625 
L 23.09375 72.90625 
L 55.421875 11.921875 
L 55.421875 72.90625 
L 64.984375 72.90625 
L 64.984375 0 
L 51.703125 0 
L 19.390625 60.984375 
L 19.390625 0 
L 9.8125 0 
z
" id="DejaVuSans-78"/>
      </defs>
      <use xlink:href="#DejaVuSans-71"/>
      <use x="77.490234" xlink:href="#DejaVuSans-78"/>
      <use x="152.294922" xlink:href="#DejaVuSans-65"/>
      <use x="220.703125" xlink:href="#DejaVuSans-83"/>
     </g>
    </g>
   </g>
   <g id="text_3">
    <g clip-path="url(#paa785890e0)">
     <!-- RPS6KA5 -->
     <g transform="translate(596.804912 300.237062)scale(0.1 -0.1)">
      <defs>
       <path d="M 19.671875 64.796875 
L 19.671875 37.40625 
L 32.078125 37.40625 
Q 38.96875 37.40625 42.71875 40.96875 
Q 46.484375 44.53125 46.484375 51.125 
Q 46.484375 57.671875 42.71875 61.234375 
Q 38.96875 64.796875 32.078125 64.796875 
z
M 9.8125 72.90625 
L 32.078125 72.90625 
Q 44.34375 72.90625 50.609375 67.359375 
Q 56.890625 61.8125 56.890625 51.125 
Q 56.890625 40.328125 50.609375 34.8125 
Q 44.34375 29.296875 32.078125 29.296875 
L 19.671875 29.296875 
L 19.671875 0 
L 9.8125 0 
z
" id="DejaVuSans-80"/>
       <path d="M 33.015625 40.375 
Q 26.375 40.375 22.484375 35.828125 
Q 18.609375 31.296875 18.609375 23.390625 
Q 18.609375 15.53125 22.484375 10.953125 
Q 26.375 6.390625 33.015625 6.390625 
Q 39.65625 6.390625 43.53125 10.953125 
Q 47.40625 15.53125 47.40625 23.390625 
Q 47.40625 31.296875 43.53125 35.828125 
Q 39.65625 40.375 33.015625 40.375 
z
M 52.59375 71.296875 
L 52.59375 62.3125 
Q 48.875 64.0625 45.09375 64.984375 
Q 41.3125 65.921875 37.59375 65.921875 
Q 27.828125 65.921875 22.671875 59.328125 
Q 17.53125 52.734375 16.796875 39.40625 
Q 19.671875 43.65625 24.015625 45.921875 
Q 28.375 48.1875 33.59375 48.1875 
Q 44.578125 48.1875 50.953125 41.515625 
Q 57.328125 34.859375 57.328125 23.390625 
Q 57.328125 12.15625 50.6875 5.359375 
Q 44.046875 -1.421875 33.015625 -1.421875 
Q 20.359375 -1.421875 13.671875 8.265625 
Q 6.984375 17.96875 6.984375 36.375 
Q 6.984375 53.65625 15.1875 63.9375 
Q 23.390625 74.21875 37.203125 74.21875 
Q 40.921875 74.21875 44.703125 73.484375 
Q 48.484375 72.75 52.59375 71.296875 
z
" id="DejaVuSans-54"/>
       <path d="M 9.8125 72.90625 
L 19.671875 72.90625 
L 19.671875 42.09375 
L 52.390625 72.90625 
L 65.09375 72.90625 
L 28.90625 38.921875 
L 67.671875 0 
L 54.6875 0 
L 19.671875 35.109375 
L 19.671875 0 
L 9.8125 0 
z
" id="DejaVuSans-75"/>
       <path d="M 10.796875 72.90625 
L 49.515625 72.90625 
L 49.515625 64.59375 
L 19.828125 64.59375 
L 19.828125 46.734375 
Q 21.96875 47.46875 24.109375 47.828125 
Q 26.265625 48.1875 28.421875 48.1875 
Q 40.625 48.1875 47.75 41.5 
Q 54.890625 34.8125 54.890625 23.390625 
Q 54.890625 11.625 47.5625 5.09375 
Q 40.234375 -1.421875 26.90625 -1.421875 
Q 22.3125 -1.421875 17.546875 -0.640625 
Q 12.796875 0.140625 7.71875 1.703125 
L 7.71875 11.625 
Q 12.109375 9.234375 16.796875 8.0625 
Q 21.484375 6.890625 26.703125 6.890625 
Q 35.15625 6.890625 40.078125 11.328125 
Q 45.015625 15.765625 45.015625 23.390625 
Q 45.015625 31 40.078125 35.4375 
Q 35.15625 39.890625 26.703125 39.890625 
Q 22.75 39.890625 18.8125 39.015625 
Q 14.890625 38.140625 10.796875 36.28125 
z
" id="DejaVuSans-53"/>
      </defs>
      <use xlink:href="#DejaVuSans-82"/>
      <use x="69.482422" xlink:href="#DejaVuSans-80"/>
      <use x="129.785156" xlink:href="#DejaVuSans-83"/>
      <use x="193.261719" xlink:href="#DejaVuSans-54"/>
      <use x="256.884766" xlink:href="#DejaVuSans-75"/>
      <use x="320.710938" xlink:href="#DejaVuSans-65"/>
      <use x="389.119141" xlink:href="#DejaVuSans-53"/>
     </g>
    </g>
   </g>
   <g id="text_4">
    <g clip-path="url(#paa785890e0)">
     <!-- CREB1 -->
     <g transform="translate(587.047078 319.461204)scale(0.1 -0.1)">
      <defs>
       <path d="M 64.40625 67.28125 
L 64.40625 56.890625 
Q 59.421875 61.53125 53.78125 63.8125 
Q 48.140625 66.109375 41.796875 66.109375 
Q 29.296875 66.109375 22.65625 58.46875 
Q 16.015625 50.828125 16.015625 36.375 
Q 16.015625 21.96875 22.65625 14.328125 
Q 29.296875 6.6875 41.796875 6.6875 
Q 48.140625 6.6875 53.78125 8.984375 
Q 59.421875 11.28125 64.40625 15.921875 
L 64.40625 5.609375 
Q 59.234375 2.09375 53.4375 0.328125 
Q 47.65625 -1.421875 41.21875 -1.421875 
Q 24.65625 -1.421875 15.125 8.703125 
Q 5.609375 18.84375 5.609375 36.375 
Q 5.609375 53.953125 15.125 64.078125 
Q 24.65625 74.21875 41.21875 74.21875 
Q 47.75 74.21875 53.53125 72.484375 
Q 59.328125 70.75 64.40625 67.28125 
z
" id="DejaVuSans-67"/>
       <path d="M 9.8125 72.90625 
L 55.90625 72.90625 
L 55.90625 64.59375 
L 19.671875 64.59375 
L 19.671875 43.015625 
L 54.390625 43.015625 
L 54.390625 34.71875 
L 19.671875 34.71875 
L 19.671875 8.296875 
L 56.78125 8.296875 
L 56.78125 0 
L 9.8125 0 
z
" id="DejaVuSans-69"/>
       <path d="M 19.671875 34.8125 
L 19.671875 8.109375 
L 35.5 8.109375 
Q 43.453125 8.109375 47.28125 11.40625 
Q 51.125 14.703125 51.125 21.484375 
Q 51.125 28.328125 47.28125 31.5625 
Q 43.453125 34.8125 35.5 34.8125 
z
M 19.671875 64.796875 
L 19.671875 42.828125 
L 34.28125 42.828125 
Q 41.5 42.828125 45.03125 45.53125 
Q 48.578125 48.25 48.578125 53.8125 
Q 48.578125 59.328125 45.03125 62.0625 
Q 41.5 64.796875 34.28125 64.796875 
z
M 9.8125 72.90625 
L 35.015625 72.90625 
Q 46.296875 72.90625 52.390625 68.21875 
Q 58.5 63.53125 58.5 54.890625 
Q 58.5 48.1875 55.375 44.234375 
Q 52.25 40.28125 46.1875 39.3125 
Q 53.46875 37.75 57.5 32.78125 
Q 61.53125 27.828125 61.53125 20.40625 
Q 61.53125 10.640625 54.890625 5.3125 
Q 48.25 0 35.984375 0 
L 9.8125 0 
z
" id="DejaVuSans-66"/>
      </defs>
      <use xlink:href="#DejaVuSans-67"/>
      <use x="69.824219" xlink:href="#DejaVuSans-82"/>
      <use x="139.306641" xlink:href="#DejaVuSans-69"/>
      <use x="202.490234" xlink:href="#DejaVuSans-66"/>
      <use x="271.09375" xlink:href="#DejaVuSans-49"/>
     </g>
    </g>
   </g>
   <g id="text_5">
    <g clip-path="url(#paa785890e0)">
     <!-- FOS -->
     <g transform="translate(924.800776 537.519607)scale(0.1 -0.1)">
      <defs>
       <path d="M 9.8125 72.90625 
L 51.703125 72.90625 
L 51.703125 64.59375 
L 19.671875 64.59375 
L 19.671875 43.109375 
L 48.578125 43.109375 
L 48.578125 34.8125 
L 19.671875 34.8125 
L 19.671875 0 
L 9.8125 0 
z
" id="DejaVuSans-70"/>
       <path d="M 39.40625 66.21875 
Q 28.65625 66.21875 22.328125 58.203125 
Q 16.015625 50.203125 16.015625 36.375 
Q 16.015625 22.609375 22.328125 14.59375 
Q 28.65625 6.59375 39.40625 6.59375 
Q 50.140625 6.59375 56.421875 14.59375 
Q 62.703125 22.609375 62.703125 36.375 
Q 62.703125 50.203125 56.421875 58.203125 
Q 50.140625 66.21875 39.40625 66.21875 
z
M 39.40625 74.21875 
Q 54.734375 74.21875 63.90625 63.9375 
Q 73.09375 53.65625 73.09375 36.375 
Q 73.09375 19.140625 63.90625 8.859375 
Q 54.734375 -1.421875 39.40625 -1.421875 
Q 24.03125 -1.421875 14.8125 8.828125 
Q 5.609375 19.09375 5.609375 36.375 
Q 5.609375 53.65625 14.8125 63.9375 
Q 24.03125 74.21875 39.40625 74.21875 
z
" id="DejaVuSans-79"/>
      </defs>
      <use xlink:href="#DejaVuSans-70"/>
      <use x="57.519531" xlink:href="#DejaVuSans-79"/>
      <use x="136.230469" xlink:href="#DejaVuSans-83"/>
     </g>
    </g>
   </g>
   <g id="text_6">
    <g clip-path="url(#paa785890e0)">
     <!-- GNB1 -->
     <g transform="translate(310.971733 385.175944)scale(0.1 -0.1)">
      <use xlink:href="#DejaVuSans-71"/>
      <use x="77.490234" xlink:href="#DejaVuSans-78"/>
      <use x="152.294922" xlink:href="#DejaVuSans-66"/>
      <use x="220.898438" xlink:href="#DejaVuSans-49"/>
     </g>
    </g>
   </g>
   <g id="text_7">
    <g clip-path="url(#paa785890e0)">
     <!-- GNB2 -->
     <g transform="translate(273.401608 431.878072)scale(0.1 -0.1)">
      <defs>
       <path d="M 19.1875 8.296875 
L 53.609375 8.296875 
L 53.609375 0 
L 7.328125 0 
L 7.328125 8.296875 
Q 12.9375 14.109375 22.625 23.890625 
Q 32.328125 33.6875 34.8125 36.53125 
Q 39.546875 41.84375 41.421875 45.53125 
Q 43.3125 49.21875 43.3125 52.78125 
Q 43.3125 58.59375 39.234375 62.25 
Q 35.15625 65.921875 28.609375 65.921875 
Q 23.96875 65.921875 18.8125 64.3125 
Q 13.671875 62.703125 7.8125 59.421875 
L 7.8125 69.390625 
Q 13.765625 71.78125 18.9375 73 
Q 24.125 74.21875 28.421875 74.21875 
Q 39.75 74.21875 46.484375 68.546875 
Q 53.21875 62.890625 53.21875 53.421875 
Q 53.21875 48.921875 51.53125 44.890625 
Q 49.859375 40.875 45.40625 35.40625 
Q 44.1875 33.984375 37.640625 27.21875 
Q 31.109375 20.453125 19.1875 8.296875 
z
" id="DejaVuSans-50"/>
      </defs>
      <use xlink:href="#DejaVuSans-71"/>
      <use x="77.490234" xlink:href="#DejaVuSans-78"/>
      <use x="152.294922" xlink:href="#DejaVuSans-66"/>
      <use x="220.898438" xlink:href="#DejaVuSans-50"/>
     </g>
    </g>
   </g>
   <g id="text_8">
    <g clip-path="url(#paa785890e0)">
     <!-- GNB4 -->
     <g transform="translate(496.871907 427.136212)scale(0.1 -0.1)">
      <defs>
       <path d="M 37.796875 64.3125 
L 12.890625 25.390625 
L 37.796875 25.390625 
z
M 35.203125 72.90625 
L 47.609375 72.90625 
L 47.609375 25.390625 
L 58.015625 25.390625 
L 58.015625 17.1875 
L 47.609375 17.1875 
L 47.609375 0 
L 37.796875 0 
L 37.796875 17.1875 
L 4.890625 17.1875 
L 4.890625 26.703125 
z
" id="DejaVuSans-52"/>
      </defs>
      <use xlink:href="#DejaVuSans-71"/>
      <use x="77.490234" xlink:href="#DejaVuSans-78"/>
      <use x="152.294922" xlink:href="#DejaVuSans-66"/>
      <use x="220.898438" xlink:href="#DejaVuSans-52"/>
     </g>
    </g>
   </g>
   <g id="text_9">
    <g clip-path="url(#paa785890e0)">
     <!-- GNB5 -->
     <g transform="translate(433.222823 418.82985)scale(0.1 -0.1)">
      <use xlink:href="#DejaVuSans-71"/>
      <use x="77.490234" xlink:href="#DejaVuSans-78"/>
      <use x="152.294922" xlink:href="#DejaVuSans-66"/>
      <use x="220.898438" xlink:href="#DejaVuSans-53"/>
     </g>
    </g>
   </g>
   <g id="text_10">
    <g clip-path="url(#paa785890e0)">
     <!-- GNG2 -->
     <g transform="translate(388.243574 386.862582)scale(0.1 -0.1)">
      <use xlink:href="#DejaVuSans-71"/>
      <use x="77.490234" xlink:href="#DejaVuSans-78"/>
      <use x="152.294922" xlink:href="#DejaVuSans-71"/>
      <use x="229.785156" xlink:href="#DejaVuSans-50"/>
     </g>
    </g>
   </g>
   <g id="text_11">
    <g clip-path="url(#paa785890e0)">
     <!-- GNG5 -->
     <g transform="translate(486.798288 464.918356)scale(0.1 -0.1)">
      <use xlink:href="#DejaVuSans-71"/>
      <use x="77.490234" xlink:href="#DejaVuSans-78"/>
      <use x="152.294922" xlink:href="#DejaVuSans-71"/>
      <use x="229.785156" xlink:href="#DejaVuSans-53"/>
     </g>
    </g>
   </g>
   <g id="text_12">
    <g clip-path="url(#paa785890e0)">
     <!-- GNG7 -->
     <g transform="translate(415.810353 464.880615)scale(0.1 -0.1)">
      <defs>
       <path d="M 8.203125 72.90625 
L 55.078125 72.90625 
L 55.078125 68.703125 
L 28.609375 0 
L 18.3125 0 
L 43.21875 64.59375 
L 8.203125 64.59375 
z
" id="DejaVuSans-55"/>
      </defs>
      <use xlink:href="#DejaVuSans-71"/>
      <use x="77.490234" xlink:href="#DejaVuSans-78"/>
      <use x="152.294922" xlink:href="#DejaVuSans-71"/>
      <use x="229.785156" xlink:href="#DejaVuSans-55"/>
     </g>
    </g>
   </g>
   <g id="text_13">
    <g clip-path="url(#paa785890e0)">
     <!-- GNG10 -->
     <g transform="translate(239.538905 385.982389)scale(0.1 -0.1)">
      <defs>
       <path d="M 31.78125 66.40625 
Q 24.171875 66.40625 20.328125 58.90625 
Q 16.5 51.421875 16.5 36.375 
Q 16.5 21.390625 20.328125 13.890625 
Q 24.171875 6.390625 31.78125 6.390625 
Q 39.453125 6.390625 43.28125 13.890625 
Q 47.125 21.390625 47.125 36.375 
Q 47.125 51.421875 43.28125 58.90625 
Q 39.453125 66.40625 31.78125 66.40625 
z
M 31.78125 74.21875 
Q 44.046875 74.21875 50.515625 64.515625 
Q 56.984375 54.828125 56.984375 36.375 
Q 56.984375 17.96875 50.515625 8.265625 
Q 44.046875 -1.421875 31.78125 -1.421875 
Q 19.53125 -1.421875 13.0625 8.265625 
Q 6.59375 17.96875 6.59375 36.375 
Q 6.59375 54.828125 13.0625 64.515625 
Q 19.53125 74.21875 31.78125 74.21875 
z
" id="DejaVuSans-48"/>
      </defs>
      <use xlink:href="#DejaVuSans-71"/>
      <use x="77.490234" xlink:href="#DejaVuSans-78"/>
      <use x="152.294922" xlink:href="#DejaVuSans-71"/>
      <use x="229.785156" xlink:href="#DejaVuSans-49"/>
      <use x="293.408203" xlink:href="#DejaVuSans-48"/>
     </g>
    </g>
   </g>
   <g id="text_14">
    <g clip-path="url(#paa785890e0)">
     <!-- GNG11 -->
     <g transform="translate(340.814936 457.931673)scale(0.1 -0.1)">
      <use xlink:href="#DejaVuSans-71"/>
      <use x="77.490234" xlink:href="#DejaVuSans-78"/>
      <use x="152.294922" xlink:href="#DejaVuSans-71"/>
      <use x="229.785156" xlink:href="#DejaVuSans-49"/>
      <use x="293.408203" xlink:href="#DejaVuSans-49"/>
     </g>
    </g>
   </g>
   <g id="text_15">
    <g clip-path="url(#paa785890e0)">
     <!-- GNGT2 -->
     <g transform="translate(203.931411 418.686265)scale(0.1 -0.1)">
      <defs>
       <path d="M -0.296875 72.90625 
L 61.375 72.90625 
L 61.375 64.59375 
L 35.5 64.59375 
L 35.5 0 
L 25.59375 0 
L 25.59375 64.59375 
L -0.296875 64.59375 
z
" id="DejaVuSans-84"/>
      </defs>
      <use xlink:href="#DejaVuSans-71"/>
      <use x="77.490234" xlink:href="#DejaVuSans-78"/>
      <use x="152.294922" xlink:href="#DejaVuSans-71"/>
      <use x="226.160156" xlink:href="#DejaVuSans-84"/>
      <use x="287.244141" xlink:href="#DejaVuSans-50"/>
     </g>
    </g>
   </g>
   <g id="text_16">
    <g clip-path="url(#paa785890e0)">
     <!-- ADCY3 -->
     <g transform="translate(358.021923 713.988466)scale(0.1 -0.1)">
      <defs>
       <path d="M -0.203125 72.90625 
L 10.40625 72.90625 
L 30.609375 42.921875 
L 50.6875 72.90625 
L 61.28125 72.90625 
L 35.5 34.71875 
L 35.5 0 
L 25.59375 0 
L 25.59375 34.71875 
z
" id="DejaVuSans-89"/>
       <path d="M 40.578125 39.3125 
Q 47.65625 37.796875 51.625 33 
Q 55.609375 28.21875 55.609375 21.1875 
Q 55.609375 10.40625 48.1875 4.484375 
Q 40.765625 -1.421875 27.09375 -1.421875 
Q 22.515625 -1.421875 17.65625 -0.515625 
Q 12.796875 0.390625 7.625 2.203125 
L 7.625 11.71875 
Q 11.71875 9.328125 16.59375 8.109375 
Q 21.484375 6.890625 26.8125 6.890625 
Q 36.078125 6.890625 40.9375 10.546875 
Q 45.796875 14.203125 45.796875 21.1875 
Q 45.796875 27.640625 41.28125 31.265625 
Q 36.765625 34.90625 28.71875 34.90625 
L 20.21875 34.90625 
L 20.21875 43.015625 
L 29.109375 43.015625 
Q 36.375 43.015625 40.234375 45.921875 
Q 44.09375 48.828125 44.09375 54.296875 
Q 44.09375 59.90625 40.109375 62.90625 
Q 36.140625 65.921875 28.71875 65.921875 
Q 24.65625 65.921875 20.015625 65.03125 
Q 15.375 64.15625 9.8125 62.3125 
L 9.8125 71.09375 
Q 15.4375 72.65625 20.34375 73.4375 
Q 25.25 74.21875 29.59375 74.21875 
Q 40.828125 74.21875 47.359375 69.109375 
Q 53.90625 64.015625 53.90625 55.328125 
Q 53.90625 49.265625 50.4375 45.09375 
Q 46.96875 40.921875 40.578125 39.3125 
z
" id="DejaVuSans-51"/>
      </defs>
      <use xlink:href="#DejaVuSans-65"/>
      <use x="68.408203" xlink:href="#DejaVuSans-68"/>
      <use x="145.410156" xlink:href="#DejaVuSans-67"/>
      <use x="213.484375" xlink:href="#DejaVuSans-89"/>
      <use x="274.568359" xlink:href="#DejaVuSans-51"/>
     </g>
    </g>
   </g>
   <g id="text_17">
    <g clip-path="url(#paa785890e0)">
     <!-- ADCY4 -->
     <g transform="translate(296.88732 175.305762)scale(0.1 -0.1)">
      <use xlink:href="#DejaVuSans-65"/>
      <use x="68.408203" xlink:href="#DejaVuSans-68"/>
      <use x="145.410156" xlink:href="#DejaVuSans-67"/>
      <use x="213.484375" xlink:href="#DejaVuSans-89"/>
      <use x="274.568359" xlink:href="#DejaVuSans-52"/>
     </g>
    </g>
   </g>
   <g id="text_18">
    <g clip-path="url(#paa785890e0)">
     <!-- ADCY7 -->
     <g transform="translate(597.06156 164.170284)scale(0.1 -0.1)">
      <use xlink:href="#DejaVuSans-65"/>
      <use x="68.408203" xlink:href="#DejaVuSans-68"/>
      <use x="145.410156" xlink:href="#DejaVuSans-67"/>
      <use x="213.484375" xlink:href="#DejaVuSans-89"/>
      <use x="274.568359" xlink:href="#DejaVuSans-55"/>
     </g>
    </g>
   </g>
   <g id="text_19">
    <g clip-path="url(#paa785890e0)">
     <!-- ADCY9 -->
     <g transform="translate(207.033578 645.492682)scale(0.1 -0.1)">
      <defs>
       <path d="M 10.984375 1.515625 
L 10.984375 10.5 
Q 14.703125 8.734375 18.5 7.8125 
Q 22.3125 6.890625 25.984375 6.890625 
Q 35.75 6.890625 40.890625 13.453125 
Q 46.046875 20.015625 46.78125 33.40625 
Q 43.953125 29.203125 39.59375 26.953125 
Q 35.25 24.703125 29.984375 24.703125 
Q 19.046875 24.703125 12.671875 31.3125 
Q 6.296875 37.9375 6.296875 49.421875 
Q 6.296875 60.640625 12.9375 67.421875 
Q 19.578125 74.21875 30.609375 74.21875 
Q 43.265625 74.21875 49.921875 64.515625 
Q 56.59375 54.828125 56.59375 36.375 
Q 56.59375 19.140625 48.40625 8.859375 
Q 40.234375 -1.421875 26.421875 -1.421875 
Q 22.703125 -1.421875 18.890625 -0.6875 
Q 15.09375 0.046875 10.984375 1.515625 
z
M 30.609375 32.421875 
Q 37.25 32.421875 41.125 36.953125 
Q 45.015625 41.5 45.015625 49.421875 
Q 45.015625 57.28125 41.125 61.84375 
Q 37.25 66.40625 30.609375 66.40625 
Q 23.96875 66.40625 20.09375 61.84375 
Q 16.21875 57.28125 16.21875 49.421875 
Q 16.21875 41.5 20.09375 36.953125 
Q 23.96875 32.421875 30.609375 32.421875 
z
" id="DejaVuSans-57"/>
      </defs>
      <use xlink:href="#DejaVuSans-65"/>
      <use x="68.408203" xlink:href="#DejaVuSans-68"/>
      <use x="145.410156" xlink:href="#DejaVuSans-67"/>
      <use x="213.484375" xlink:href="#DejaVuSans-89"/>
      <use x="274.568359" xlink:href="#DejaVuSans-57"/>
     </g>
    </g>
   </g>
   <g id="text_20">
    <g clip-path="url(#paa785890e0)">
     <!-- PER1 -->
     <g transform="translate(878.921386 276.379217)scale(0.1 -0.1)">
      <use xlink:href="#DejaVuSans-80"/>
      <use x="60.302734" xlink:href="#DejaVuSans-69"/>
      <use x="123.486328" xlink:href="#DejaVuSans-82"/>
      <use x="192.96875" xlink:href="#DejaVuSans-49"/>
     </g>
    </g>
   </g>
   <g id="text_21">
    <g clip-path="url(#paa785890e0)">
     <!-- PER2 -->
     <g transform="translate(946.495932 379.185478)scale(0.1 -0.1)">
      <use xlink:href="#DejaVuSans-80"/>
      <use x="60.302734" xlink:href="#DejaVuSans-69"/>
      <use x="123.486328" xlink:href="#DejaVuSans-82"/>
      <use x="192.96875" xlink:href="#DejaVuSans-50"/>
     </g>
    </g>
   </g>
   <g id="text_22">
    <g clip-path="url(#paa785890e0)">
     <!-- PER3 -->
     <g transform="translate(749.904364 221.853679)scale(0.1 -0.1)">
      <use xlink:href="#DejaVuSans-80"/>
      <use x="60.302734" xlink:href="#DejaVuSans-69"/>
      <use x="123.486328" xlink:href="#DejaVuSans-82"/>
      <use x="192.96875" xlink:href="#DejaVuSans-51"/>
     </g>
    </g>
   </g>
   <g id="text_23">
    <!-- Importance Score and Relative Abundance for network hsa04713 for dataset atherosclerosis -->
    <g transform="translate(312.388125 97.68)scale(0.12 -0.12)">
     <defs>
      <path d="M 9.8125 72.90625 
L 19.671875 72.90625 
L 19.671875 0 
L 9.8125 0 
z
" id="DejaVuSans-73"/>
      <path d="M 52 44.1875 
Q 55.375 50.25 60.0625 53.125 
Q 64.75 56 71.09375 56 
Q 79.640625 56 84.28125 50.015625 
Q 88.921875 44.046875 88.921875 33.015625 
L 88.921875 0 
L 79.890625 0 
L 79.890625 32.71875 
Q 79.890625 40.578125 77.09375 44.375 
Q 74.3125 48.1875 68.609375 48.1875 
Q 61.625 48.1875 57.5625 43.546875 
Q 53.515625 38.921875 53.515625 30.90625 
L 53.515625 0 
L 44.484375 0 
L 44.484375 32.71875 
Q 44.484375 40.625 41.703125 44.40625 
Q 38.921875 48.1875 33.109375 48.1875 
Q 26.21875 48.1875 22.15625 43.53125 
Q 18.109375 38.875 18.109375 30.90625 
L 18.109375 0 
L 9.078125 0 
L 9.078125 54.6875 
L 18.109375 54.6875 
L 18.109375 46.1875 
Q 21.1875 51.21875 25.484375 53.609375 
Q 29.78125 56 35.6875 56 
Q 41.65625 56 45.828125 52.96875 
Q 50 49.953125 52 44.1875 
z
" id="DejaVuSans-109"/>
      <path d="M 18.109375 8.203125 
L 18.109375 -20.796875 
L 9.078125 -20.796875 
L 9.078125 54.6875 
L 18.109375 54.6875 
L 18.109375 46.390625 
Q 20.953125 51.265625 25.265625 53.625 
Q 29.59375 56 35.59375 56 
Q 45.5625 56 51.78125 48.09375 
Q 58.015625 40.1875 58.015625 27.296875 
Q 58.015625 14.40625 51.78125 6.484375 
Q 45.5625 -1.421875 35.59375 -1.421875 
Q 29.59375 -1.421875 25.265625 0.953125 
Q 20.953125 3.328125 18.109375 8.203125 
z
M 48.6875 27.296875 
Q 48.6875 37.203125 44.609375 42.84375 
Q 40.53125 48.484375 33.40625 48.484375 
Q 26.265625 48.484375 22.1875 42.84375 
Q 18.109375 37.203125 18.109375 27.296875 
Q 18.109375 17.390625 22.1875 11.75 
Q 26.265625 6.109375 33.40625 6.109375 
Q 40.53125 6.109375 44.609375 11.75 
Q 48.6875 17.390625 48.6875 27.296875 
z
" id="DejaVuSans-112"/>
      <path d="M 30.609375 48.390625 
Q 23.390625 48.390625 19.1875 42.75 
Q 14.984375 37.109375 14.984375 27.296875 
Q 14.984375 17.484375 19.15625 11.84375 
Q 23.34375 6.203125 30.609375 6.203125 
Q 37.796875 6.203125 41.984375 11.859375 
Q 46.1875 17.53125 46.1875 27.296875 
Q 46.1875 37.015625 41.984375 42.703125 
Q 37.796875 48.390625 30.609375 48.390625 
z
M 30.609375 56 
Q 42.328125 56 49.015625 48.375 
Q 55.71875 40.765625 55.71875 27.296875 
Q 55.71875 13.875 49.015625 6.21875 
Q 42.328125 -1.421875 30.609375 -1.421875 
Q 18.84375 -1.421875 12.171875 6.21875 
Q 5.515625 13.875 5.515625 27.296875 
Q 5.515625 40.765625 12.171875 48.375 
Q 18.84375 56 30.609375 56 
z
" id="DejaVuSans-111"/>
      <path d="M 41.109375 46.296875 
Q 39.59375 47.171875 37.8125 47.578125 
Q 36.03125 48 33.890625 48 
Q 26.265625 48 22.1875 43.046875 
Q 18.109375 38.09375 18.109375 28.8125 
L 18.109375 0 
L 9.078125 0 
L 9.078125 54.6875 
L 18.109375 54.6875 
L 18.109375 46.1875 
Q 20.953125 51.171875 25.484375 53.578125 
Q 30.03125 56 36.53125 56 
Q 37.453125 56 38.578125 55.875 
Q 39.703125 55.765625 41.0625 55.515625 
z
" id="DejaVuSans-114"/>
      <path d="M 18.3125 70.21875 
L 18.3125 54.6875 
L 36.8125 54.6875 
L 36.8125 47.703125 
L 18.3125 47.703125 
L 18.3125 18.015625 
Q 18.3125 11.328125 20.140625 9.421875 
Q 21.96875 7.515625 27.59375 7.515625 
L 36.8125 7.515625 
L 36.8125 0 
L 27.59375 0 
Q 17.1875 0 13.234375 3.875 
Q 9.28125 7.765625 9.28125 18.015625 
L 9.28125 47.703125 
L 2.6875 47.703125 
L 2.6875 54.6875 
L 9.28125 54.6875 
L 9.28125 70.21875 
z
" id="DejaVuSans-116"/>
      <path d="M 34.28125 27.484375 
Q 23.390625 27.484375 19.1875 25 
Q 14.984375 22.515625 14.984375 16.5 
Q 14.984375 11.71875 18.140625 8.90625 
Q 21.296875 6.109375 26.703125 6.109375 
Q 34.1875 6.109375 38.703125 11.40625 
Q 43.21875 16.703125 43.21875 25.484375 
L 43.21875 27.484375 
z
M 52.203125 31.203125 
L 52.203125 0 
L 43.21875 0 
L 43.21875 8.296875 
Q 40.140625 3.328125 35.546875 0.953125 
Q 30.953125 -1.421875 24.3125 -1.421875 
Q 15.921875 -1.421875 10.953125 3.296875 
Q 6 8.015625 6 15.921875 
Q 6 25.140625 12.171875 29.828125 
Q 18.359375 34.515625 30.609375 34.515625 
L 43.21875 34.515625 
L 43.21875 35.40625 
Q 43.21875 41.609375 39.140625 45 
Q 35.0625 48.390625 27.6875 48.390625 
Q 23 48.390625 18.546875 47.265625 
Q 14.109375 46.140625 10.015625 43.890625 
L 10.015625 52.203125 
Q 14.9375 54.109375 19.578125 55.046875 
Q 24.21875 56 28.609375 56 
Q 40.484375 56 46.34375 49.84375 
Q 52.203125 43.703125 52.203125 31.203125 
z
" id="DejaVuSans-97"/>
      <path d="M 54.890625 33.015625 
L 54.890625 0 
L 45.90625 0 
L 45.90625 32.71875 
Q 45.90625 40.484375 42.875 44.328125 
Q 39.84375 48.1875 33.796875 48.1875 
Q 26.515625 48.1875 22.3125 43.546875 
Q 18.109375 38.921875 18.109375 30.90625 
L 18.109375 0 
L 9.078125 0 
L 9.078125 54.6875 
L 18.109375 54.6875 
L 18.109375 46.1875 
Q 21.34375 51.125 25.703125 53.5625 
Q 30.078125 56 35.796875 56 
Q 45.21875 56 50.046875 50.171875 
Q 54.890625 44.34375 54.890625 33.015625 
z
" id="DejaVuSans-110"/>
      <path d="M 48.78125 52.59375 
L 48.78125 44.1875 
Q 44.96875 46.296875 41.140625 47.34375 
Q 37.3125 48.390625 33.40625 48.390625 
Q 24.65625 48.390625 19.8125 42.84375 
Q 14.984375 37.3125 14.984375 27.296875 
Q 14.984375 17.28125 19.8125 11.734375 
Q 24.65625 6.203125 33.40625 6.203125 
Q 37.3125 6.203125 41.140625 7.25 
Q 44.96875 8.296875 48.78125 10.40625 
L 48.78125 2.09375 
Q 45.015625 0.34375 40.984375 -0.53125 
Q 36.96875 -1.421875 32.421875 -1.421875 
Q 20.0625 -1.421875 12.78125 6.34375 
Q 5.515625 14.109375 5.515625 27.296875 
Q 5.515625 40.671875 12.859375 48.328125 
Q 20.21875 56 33.015625 56 
Q 37.15625 56 41.109375 55.140625 
Q 45.0625 54.296875 48.78125 52.59375 
z
" id="DejaVuSans-99"/>
      <path d="M 56.203125 29.59375 
L 56.203125 25.203125 
L 14.890625 25.203125 
Q 15.484375 15.921875 20.484375 11.0625 
Q 25.484375 6.203125 34.421875 6.203125 
Q 39.59375 6.203125 44.453125 7.46875 
Q 49.3125 8.734375 54.109375 11.28125 
L 54.109375 2.78125 
Q 49.265625 0.734375 44.1875 -0.34375 
Q 39.109375 -1.421875 33.890625 -1.421875 
Q 20.796875 -1.421875 13.15625 6.1875 
Q 5.515625 13.8125 5.515625 26.8125 
Q 5.515625 40.234375 12.765625 48.109375 
Q 20.015625 56 32.328125 56 
Q 43.359375 56 49.78125 48.890625 
Q 56.203125 41.796875 56.203125 29.59375 
z
M 47.21875 32.234375 
Q 47.125 39.59375 43.09375 43.984375 
Q 39.0625 48.390625 32.421875 48.390625 
Q 24.90625 48.390625 20.390625 44.140625 
Q 15.875 39.890625 15.1875 32.171875 
z
" id="DejaVuSans-101"/>
      <path id="DejaVuSans-32"/>
      <path d="M 45.40625 46.390625 
L 45.40625 75.984375 
L 54.390625 75.984375 
L 54.390625 0 
L 45.40625 0 
L 45.40625 8.203125 
Q 42.578125 3.328125 38.25 0.953125 
Q 33.9375 -1.421875 27.875 -1.421875 
Q 17.96875 -1.421875 11.734375 6.484375 
Q 5.515625 14.40625 5.515625 27.296875 
Q 5.515625 40.1875 11.734375 48.09375 
Q 17.96875 56 27.875 56 
Q 33.9375 56 38.25 53.625 
Q 42.578125 51.265625 45.40625 46.390625 
z
M 14.796875 27.296875 
Q 14.796875 17.390625 18.875 11.75 
Q 22.953125 6.109375 30.078125 6.109375 
Q 37.203125 6.109375 41.296875 11.75 
Q 45.40625 17.390625 45.40625 27.296875 
Q 45.40625 37.203125 41.296875 42.84375 
Q 37.203125 48.484375 30.078125 48.484375 
Q 22.953125 48.484375 18.875 42.84375 
Q 14.796875 37.203125 14.796875 27.296875 
z
" id="DejaVuSans-100"/>
      <path d="M 9.421875 75.984375 
L 18.40625 75.984375 
L 18.40625 0 
L 9.421875 0 
z
" id="DejaVuSans-108"/>
      <path d="M 9.421875 54.6875 
L 18.40625 54.6875 
L 18.40625 0 
L 9.421875 0 
z
M 9.421875 75.984375 
L 18.40625 75.984375 
L 18.40625 64.59375 
L 9.421875 64.59375 
z
" id="DejaVuSans-105"/>
      <path d="M 2.984375 54.6875 
L 12.5 54.6875 
L 29.59375 8.796875 
L 46.6875 54.6875 
L 56.203125 54.6875 
L 35.6875 0 
L 23.484375 0 
z
" id="DejaVuSans-118"/>
      <path d="M 48.6875 27.296875 
Q 48.6875 37.203125 44.609375 42.84375 
Q 40.53125 48.484375 33.40625 48.484375 
Q 26.265625 48.484375 22.1875 42.84375 
Q 18.109375 37.203125 18.109375 27.296875 
Q 18.109375 17.390625 22.1875 11.75 
Q 26.265625 6.109375 33.40625 6.109375 
Q 40.53125 6.109375 44.609375 11.75 
Q 48.6875 17.390625 48.6875 27.296875 
z
M 18.109375 46.390625 
Q 20.953125 51.265625 25.265625 53.625 
Q 29.59375 56 35.59375 56 
Q 45.5625 56 51.78125 48.09375 
Q 58.015625 40.1875 58.015625 27.296875 
Q 58.015625 14.40625 51.78125 6.484375 
Q 45.5625 -1.421875 35.59375 -1.421875 
Q 29.59375 -1.421875 25.265625 0.953125 
Q 20.953125 3.328125 18.109375 8.203125 
L 18.109375 0 
L 9.078125 0 
L 9.078125 75.984375 
L 18.109375 75.984375 
z
" id="DejaVuSans-98"/>
      <path d="M 8.5 21.578125 
L 8.5 54.6875 
L 17.484375 54.6875 
L 17.484375 21.921875 
Q 17.484375 14.15625 20.5 10.265625 
Q 23.53125 6.390625 29.59375 6.390625 
Q 36.859375 6.390625 41.078125 11.03125 
Q 45.3125 15.671875 45.3125 23.6875 
L 45.3125 54.6875 
L 54.296875 54.6875 
L 54.296875 0 
L 45.3125 0 
L 45.3125 8.40625 
Q 42.046875 3.421875 37.71875 1 
Q 33.40625 -1.421875 27.6875 -1.421875 
Q 18.265625 -1.421875 13.375 4.4375 
Q 8.5 10.296875 8.5 21.578125 
z
M 31.109375 56 
z
" id="DejaVuSans-117"/>
      <path d="M 37.109375 75.984375 
L 37.109375 68.5 
L 28.515625 68.5 
Q 23.6875 68.5 21.796875 66.546875 
Q 19.921875 64.59375 19.921875 59.515625 
L 19.921875 54.6875 
L 34.71875 54.6875 
L 34.71875 47.703125 
L 19.921875 47.703125 
L 19.921875 0 
L 10.890625 0 
L 10.890625 47.703125 
L 2.296875 47.703125 
L 2.296875 54.6875 
L 10.890625 54.6875 
L 10.890625 58.5 
Q 10.890625 67.625 15.140625 71.796875 
Q 19.390625 75.984375 28.609375 75.984375 
z
" id="DejaVuSans-102"/>
      <path d="M 4.203125 54.6875 
L 13.1875 54.6875 
L 24.421875 12.015625 
L 35.59375 54.6875 
L 46.1875 54.6875 
L 57.421875 12.015625 
L 68.609375 54.6875 
L 77.59375 54.6875 
L 63.28125 0 
L 52.6875 0 
L 40.921875 44.828125 
L 29.109375 0 
L 18.5 0 
z
" id="DejaVuSans-119"/>
      <path d="M 9.078125 75.984375 
L 18.109375 75.984375 
L 18.109375 31.109375 
L 44.921875 54.6875 
L 56.390625 54.6875 
L 27.390625 29.109375 
L 57.625 0 
L 45.90625 0 
L 18.109375 26.703125 
L 18.109375 0 
L 9.078125 0 
z
" id="DejaVuSans-107"/>
      <path d="M 54.890625 33.015625 
L 54.890625 0 
L 45.90625 0 
L 45.90625 32.71875 
Q 45.90625 40.484375 42.875 44.328125 
Q 39.84375 48.1875 33.796875 48.1875 
Q 26.515625 48.1875 22.3125 43.546875 
Q 18.109375 38.921875 18.109375 30.90625 
L 18.109375 0 
L 9.078125 0 
L 9.078125 75.984375 
L 18.109375 75.984375 
L 18.109375 46.1875 
Q 21.34375 51.125 25.703125 53.5625 
Q 30.078125 56 35.796875 56 
Q 45.21875 56 50.046875 50.171875 
Q 54.890625 44.34375 54.890625 33.015625 
z
" id="DejaVuSans-104"/>
      <path d="M 44.28125 53.078125 
L 44.28125 44.578125 
Q 40.484375 46.53125 36.375 47.5 
Q 32.28125 48.484375 27.875 48.484375 
Q 21.1875 48.484375 17.84375 46.4375 
Q 14.5 44.390625 14.5 40.28125 
Q 14.5 37.15625 16.890625 35.375 
Q 19.28125 33.59375 26.515625 31.984375 
L 29.59375 31.296875 
Q 39.15625 29.25 43.1875 25.515625 
Q 47.21875 21.78125 47.21875 15.09375 
Q 47.21875 7.46875 41.1875 3.015625 
Q 35.15625 -1.421875 24.609375 -1.421875 
Q 20.21875 -1.421875 15.453125 -0.5625 
Q 10.6875 0.296875 5.421875 2 
L 5.421875 11.28125 
Q 10.40625 8.6875 15.234375 7.390625 
Q 20.0625 6.109375 24.8125 6.109375 
Q 31.15625 6.109375 34.5625 8.28125 
Q 37.984375 10.453125 37.984375 14.40625 
Q 37.984375 18.0625 35.515625 20.015625 
Q 33.0625 21.96875 24.703125 23.78125 
L 21.578125 24.515625 
Q 13.234375 26.265625 9.515625 29.90625 
Q 5.8125 33.546875 5.8125 39.890625 
Q 5.8125 47.609375 11.28125 51.796875 
Q 16.75 56 26.8125 56 
Q 31.78125 56 36.171875 55.265625 
Q 40.578125 54.546875 44.28125 53.078125 
z
" id="DejaVuSans-115"/>
     </defs>
     <use xlink:href="#DejaVuSans-73"/>
     <use x="29.492188" xlink:href="#DejaVuSans-109"/>
     <use x="126.904297" xlink:href="#DejaVuSans-112"/>
     <use x="190.380859" xlink:href="#DejaVuSans-111"/>
     <use x="251.5625" xlink:href="#DejaVuSans-114"/>
     <use x="292.675781" xlink:href="#DejaVuSans-116"/>
     <use x="331.884766" xlink:href="#DejaVuSans-97"/>
     <use x="393.164062" xlink:href="#DejaVuSans-110"/>
     <use x="456.542969" xlink:href="#DejaVuSans-99"/>
     <use x="511.523438" xlink:href="#DejaVuSans-101"/>
     <use x="573.046875" xlink:href="#DejaVuSans-32"/>
     <use x="604.833984" xlink:href="#DejaVuSans-83"/>
     <use x="668.310547" xlink:href="#DejaVuSans-99"/>
     <use x="723.291016" xlink:href="#DejaVuSans-111"/>
     <use x="784.472656" xlink:href="#DejaVuSans-114"/>
     <use x="823.335938" xlink:href="#DejaVuSans-101"/>
     <use x="884.859375" xlink:href="#DejaVuSans-32"/>
     <use x="916.646484" xlink:href="#DejaVuSans-97"/>
     <use x="977.925781" xlink:href="#DejaVuSans-110"/>
     <use x="1041.304688" xlink:href="#DejaVuSans-100"/>
     <use x="1104.78125" xlink:href="#DejaVuSans-32"/>
     <use x="1136.568359" xlink:href="#DejaVuSans-82"/>
     <use x="1201.550781" xlink:href="#DejaVuSans-101"/>
     <use x="1263.074219" xlink:href="#DejaVuSans-108"/>
     <use x="1290.857422" xlink:href="#DejaVuSans-97"/>
     <use x="1352.136719" xlink:href="#DejaVuSans-116"/>
     <use x="1391.345703" xlink:href="#DejaVuSans-105"/>
     <use x="1419.128906" xlink:href="#DejaVuSans-118"/>
     <use x="1478.308594" xlink:href="#DejaVuSans-101"/>
     <use x="1539.832031" xlink:href="#DejaVuSans-32"/>
     <use x="1571.619141" xlink:href="#DejaVuSans-65"/>
     <use x="1640.027344" xlink:href="#DejaVuSans-98"/>
     <use x="1703.503906" xlink:href="#DejaVuSans-117"/>
     <use x="1766.882812" xlink:href="#DejaVuSans-110"/>
     <use x="1830.261719" xlink:href="#DejaVuSans-100"/>
     <use x="1893.738281" xlink:href="#DejaVuSans-97"/>
     <use x="1955.017578" xlink:href="#DejaVuSans-110"/>
     <use x="2018.396484" xlink:href="#DejaVuSans-99"/>
     <use x="2073.376953" xlink:href="#DejaVuSans-101"/>
     <use x="2134.900391" xlink:href="#DejaVuSans-32"/>
     <use x="2166.6875" xlink:href="#DejaVuSans-102"/>
     <use x="2201.892578" xlink:href="#DejaVuSans-111"/>
     <use x="2263.074219" xlink:href="#DejaVuSans-114"/>
     <use x="2304.1875" xlink:href="#DejaVuSans-32"/>
     <use x="2335.974609" xlink:href="#DejaVuSans-110"/>
     <use x="2399.353516" xlink:href="#DejaVuSans-101"/>
     <use x="2460.876953" xlink:href="#DejaVuSans-116"/>
     <use x="2500.085938" xlink:href="#DejaVuSans-119"/>
     <use x="2581.873047" xlink:href="#DejaVuSans-111"/>
     <use x="2643.054688" xlink:href="#DejaVuSans-114"/>
     <use x="2684.167969" xlink:href="#DejaVuSans-107"/>
     <use x="2742.078125" xlink:href="#DejaVuSans-32"/>
     <use x="2773.865234" xlink:href="#DejaVuSans-104"/>
     <use x="2837.244141" xlink:href="#DejaVuSans-115"/>
     <use x="2889.34375" xlink:href="#DejaVuSans-97"/>
     <use x="2950.623047" xlink:href="#DejaVuSans-48"/>
     <use x="3014.246094" xlink:href="#DejaVuSans-52"/>
     <use x="3077.869141" xlink:href="#DejaVuSans-55"/>
     <use x="3141.492188" xlink:href="#DejaVuSans-49"/>
     <use x="3205.115234" xlink:href="#DejaVuSans-51"/>
     <use x="3268.738281" xlink:href="#DejaVuSans-32"/>
     <use x="3300.525391" xlink:href="#DejaVuSans-102"/>
     <use x="3335.730469" xlink:href="#DejaVuSans-111"/>
     <use x="3396.912109" xlink:href="#DejaVuSans-114"/>
     <use x="3438.025391" xlink:href="#DejaVuSans-32"/>
     <use x="3469.8125" xlink:href="#DejaVuSans-100"/>
     <use x="3533.289062" xlink:href="#DejaVuSans-97"/>
     <use x="3594.568359" xlink:href="#DejaVuSans-116"/>
     <use x="3633.777344" xlink:href="#DejaVuSans-97"/>
     <use x="3695.056641" xlink:href="#DejaVuSans-115"/>
     <use x="3747.15625" xlink:href="#DejaVuSans-101"/>
     <use x="3808.679688" xlink:href="#DejaVuSans-116"/>
     <use x="3847.888672" xlink:href="#DejaVuSans-32"/>
     <use x="3879.675781" xlink:href="#DejaVuSans-97"/>
     <use x="3940.955078" xlink:href="#DejaVuSans-116"/>
     <use x="3980.164062" xlink:href="#DejaVuSans-104"/>
     <use x="4043.542969" xlink:href="#DejaVuSans-101"/>
     <use x="4105.066406" xlink:href="#DejaVuSans-114"/>
     <use x="4143.929688" xlink:href="#DejaVuSans-111"/>
     <use x="4205.111328" xlink:href="#DejaVuSans-115"/>
     <use x="4257.210938" xlink:href="#DejaVuSans-99"/>
     <use x="4312.191406" xlink:href="#DejaVuSans-108"/>
     <use x="4339.974609" xlink:href="#DejaVuSans-101"/>
     <use x="4401.498047" xlink:href="#DejaVuSans-114"/>
     <use x="4440.361328" xlink:href="#DejaVuSans-111"/>
     <use x="4501.542969" xlink:href="#DejaVuSans-115"/>
     <use x="4553.642578" xlink:href="#DejaVuSans-105"/>
     <use x="4581.425781" xlink:href="#DejaVuSans-115"/>
    </g>
   </g>
   <g id="legend_1">
    <g id="patch_71">
     <path d="M 803.859375 155.714375 
L 1029.8 155.714375 
Q 1031.8 155.714375 1031.8 153.714375 
L 1031.8 110.68 
Q 1031.8 108.68 1029.8 108.68 
L 803.859375 108.68 
Q 801.859375 108.68 801.859375 110.68 
L 801.859375 153.714375 
Q 801.859375 155.714375 803.859375 155.714375 
z
" style="fill:#ffffff;opacity:0.8;stroke:#cccccc;stroke-linejoin:miter;"/>
    </g>
    <g id="text_24">
     <!-- Relative Expression of AS+ compared to AS- -->
     <g transform="translate(805.859375 120.278437)scale(0.1 -0.1)">
      <defs>
       <path d="M 54.890625 54.6875 
L 35.109375 28.078125 
L 55.90625 0 
L 45.3125 0 
L 29.390625 21.484375 
L 13.484375 0 
L 2.875 0 
L 24.125 28.609375 
L 4.6875 54.6875 
L 15.28125 54.6875 
L 29.78125 35.203125 
L 44.28125 54.6875 
z
" id="DejaVuSans-120"/>
       <path d="M 46 62.703125 
L 46 35.5 
L 73.1875 35.5 
L 73.1875 27.203125 
L 46 27.203125 
L 46 0 
L 37.796875 0 
L 37.796875 27.203125 
L 10.59375 27.203125 
L 10.59375 35.5 
L 37.796875 35.5 
L 37.796875 62.703125 
z
" id="DejaVuSans-43"/>
       <path d="M 4.890625 31.390625 
L 31.203125 31.390625 
L 31.203125 23.390625 
L 4.890625 23.390625 
z
" id="DejaVuSans-45"/>
      </defs>
      <use xlink:href="#DejaVuSans-82"/>
      <use x="64.982422" xlink:href="#DejaVuSans-101"/>
      <use x="126.505859" xlink:href="#DejaVuSans-108"/>
      <use x="154.289062" xlink:href="#DejaVuSans-97"/>
      <use x="215.568359" xlink:href="#DejaVuSans-116"/>
      <use x="254.777344" xlink:href="#DejaVuSans-105"/>
      <use x="282.560547" xlink:href="#DejaVuSans-118"/>
      <use x="341.740234" xlink:href="#DejaVuSans-101"/>
      <use x="403.263672" xlink:href="#DejaVuSans-32"/>
      <use x="435.050781" xlink:href="#DejaVuSans-69"/>
      <use x="498.234375" xlink:href="#DejaVuSans-120"/>
      <use x="557.414062" xlink:href="#DejaVuSans-112"/>
      <use x="620.890625" xlink:href="#DejaVuSans-114"/>
      <use x="659.753906" xlink:href="#DejaVuSans-101"/>
      <use x="721.277344" xlink:href="#DejaVuSans-115"/>
      <use x="773.376953" xlink:href="#DejaVuSans-115"/>
      <use x="825.476562" xlink:href="#DejaVuSans-105"/>
      <use x="853.259766" xlink:href="#DejaVuSans-111"/>
      <use x="914.441406" xlink:href="#DejaVuSans-110"/>
      <use x="977.820312" xlink:href="#DejaVuSans-32"/>
      <use x="1009.607422" xlink:href="#DejaVuSans-111"/>
      <use x="1070.789062" xlink:href="#DejaVuSans-102"/>
      <use x="1105.994141" xlink:href="#DejaVuSans-32"/>
      <use x="1137.78125" xlink:href="#DejaVuSans-65"/>
      <use x="1206.189453" xlink:href="#DejaVuSans-83"/>
      <use x="1269.666016" xlink:href="#DejaVuSans-43"/>
      <use x="1353.455078" xlink:href="#DejaVuSans-32"/>
      <use x="1385.242188" xlink:href="#DejaVuSans-99"/>
      <use x="1440.222656" xlink:href="#DejaVuSans-111"/>
      <use x="1501.404297" xlink:href="#DejaVuSans-109"/>
      <use x="1598.816406" xlink:href="#DejaVuSans-112"/>
      <use x="1662.292969" xlink:href="#DejaVuSans-97"/>
      <use x="1723.572266" xlink:href="#DejaVuSans-114"/>
      <use x="1762.435547" xlink:href="#DejaVuSans-101"/>
      <use x="1823.958984" xlink:href="#DejaVuSans-100"/>
      <use x="1887.435547" xlink:href="#DejaVuSans-32"/>
      <use x="1919.222656" xlink:href="#DejaVuSans-116"/>
      <use x="1958.431641" xlink:href="#DejaVuSans-111"/>
      <use x="2019.613281" xlink:href="#DejaVuSans-32"/>
      <use x="2051.400391" xlink:href="#DejaVuSans-65"/>
      <use x="2119.808594" xlink:href="#DejaVuSans-83"/>
      <use x="2183.285156" xlink:href="#DejaVuSans-45"/>
     </g>
    </g>
    <g id="patch_72">
     <path d="M 829.136719 134.956562 
L 849.136719 134.956562 
L 849.136719 127.956562 
L 829.136719 127.956562 
z
" style="fill:#0000ff;stroke:#0000ff;stroke-linejoin:miter;"/>
    </g>
    <g id="text_25">
     <!-- Decreased expression in AS+ -->
     <g transform="translate(857.136719 134.956562)scale(0.1 -0.1)">
      <use xlink:href="#DejaVuSans-68"/>
      <use x="77.001953" xlink:href="#DejaVuSans-101"/>
      <use x="138.525391" xlink:href="#DejaVuSans-99"/>
      <use x="193.505859" xlink:href="#DejaVuSans-114"/>
      <use x="232.369141" xlink:href="#DejaVuSans-101"/>
      <use x="293.892578" xlink:href="#DejaVuSans-97"/>
      <use x="355.171875" xlink:href="#DejaVuSans-115"/>
      <use x="407.271484" xlink:href="#DejaVuSans-101"/>
      <use x="468.794922" xlink:href="#DejaVuSans-100"/>
      <use x="532.271484" xlink:href="#DejaVuSans-32"/>
      <use x="564.058594" xlink:href="#DejaVuSans-101"/>
      <use x="623.832031" xlink:href="#DejaVuSans-120"/>
      <use x="683.011719" xlink:href="#DejaVuSans-112"/>
      <use x="746.488281" xlink:href="#DejaVuSans-114"/>
      <use x="785.351562" xlink:href="#DejaVuSans-101"/>
      <use x="846.875" xlink:href="#DejaVuSans-115"/>
      <use x="898.974609" xlink:href="#DejaVuSans-115"/>
      <use x="951.074219" xlink:href="#DejaVuSans-105"/>
      <use x="978.857422" xlink:href="#DejaVuSans-111"/>
      <use x="1040.039062" xlink:href="#DejaVuSans-110"/>
      <use x="1103.417969" xlink:href="#DejaVuSans-32"/>
      <use x="1135.205078" xlink:href="#DejaVuSans-105"/>
      <use x="1162.988281" xlink:href="#DejaVuSans-110"/>
      <use x="1226.367188" xlink:href="#DejaVuSans-32"/>
      <use x="1258.154297" xlink:href="#DejaVuSans-65"/>
      <use x="1326.5625" xlink:href="#DejaVuSans-83"/>
      <use x="1390.039062" xlink:href="#DejaVuSans-43"/>
     </g>
    </g>
    <g id="patch_73">
     <path d="M 829.136719 149.634687 
L 849.136719 149.634687 
L 849.136719 142.634687 
L 829.136719 142.634687 
z
" style="fill:#ff0000;stroke:#ff0000;stroke-linejoin:miter;"/>
    </g>
    <g id="text_26">
     <!-- Increased expression in AS+ -->
     <g transform="translate(857.136719 149.634687)scale(0.1 -0.1)">
      <use xlink:href="#DejaVuSans-73"/>
      <use x="29.492188" xlink:href="#DejaVuSans-110"/>
      <use x="92.871094" xlink:href="#DejaVuSans-99"/>
      <use x="147.851562" xlink:href="#DejaVuSans-114"/>
      <use x="186.714844" xlink:href="#DejaVuSans-101"/>
      <use x="248.238281" xlink:href="#DejaVuSans-97"/>
      <use x="309.517578" xlink:href="#DejaVuSans-115"/>
      <use x="361.617188" xlink:href="#DejaVuSans-101"/>
      <use x="423.140625" xlink:href="#DejaVuSans-100"/>
      <use x="486.617188" xlink:href="#DejaVuSans-32"/>
      <use x="518.404297" xlink:href="#DejaVuSans-101"/>
      <use x="578.177734" xlink:href="#DejaVuSans-120"/>
      <use x="637.357422" xlink:href="#DejaVuSans-112"/>
      <use x="700.833984" xlink:href="#DejaVuSans-114"/>
      <use x="739.697266" xlink:href="#DejaVuSans-101"/>
      <use x="801.220703" xlink:href="#DejaVuSans-115"/>
      <use x="853.320312" xlink:href="#DejaVuSans-115"/>
      <use x="905.419922" xlink:href="#DejaVuSans-105"/>
      <use x="933.203125" xlink:href="#DejaVuSans-111"/>
      <use x="994.384766" xlink:href="#DejaVuSans-110"/>
      <use x="1057.763672" xlink:href="#DejaVuSans-32"/>
      <use x="1089.550781" xlink:href="#DejaVuSans-105"/>
      <use x="1117.333984" xlink:href="#DejaVuSans-110"/>
      <use x="1180.712891" xlink:href="#DejaVuSans-32"/>
      <use x="1212.5" xlink:href="#DejaVuSans-65"/>
      <use x="1280.908203" xlink:href="#DejaVuSans-83"/>
      <use x="1344.384766" xlink:href="#DejaVuSans-43"/>
     </g>
    </g>
   </g>
  </g>
 </g>
 <defs>
  <clipPath id="paa785890e0">
   <rect height="665.28" width="892.8" x="144" y="103.68"/>
  </clipPath>
 </defs>
</svg>
