<?xml version="1.0" encoding="utf-8" standalone="no"?>
<!DOCTYPE svg PUBLIC "-//W3C//DTD SVG 1.1//EN"
  "http://www.w3.org/Graphics/SVG/1.1/DTD/svg11.dtd">
<!-- Created with matplotlib (https://matplotlib.org/) -->
<svg height="864pt" version="1.1" viewBox="0 0 1152 864" width="1152pt" xmlns="http://www.w3.org/2000/svg" xmlns:xlink="http://www.w3.org/1999/xlink">
 <metadata>
  <rdf:RDF xmlns:cc="http://creativecommons.org/ns#" xmlns:dc="http://purl.org/dc/elements/1.1/" xmlns:rdf="http://www.w3.org/1999/02/22-rdf-syntax-ns#">
   <cc:Work>
    <dc:type rdf:resource="http://purl.org/dc/dcmitype/StillImage"/>
    <dc:date>2024-04-25T16:41:32.245194</dc:date>
    <dc:format>image/svg+xml</dc:format>
    <dc:creator>
     <cc:Agent>
      <dc:title>Matplotlib v3.3.1, https://matplotlib.org/</dc:title>
     </cc:Agent>
    </dc:creator>
   </cc:Work>
  </rdf:RDF>
 </metadata>
 <defs>
  <style type="text/css">*{stroke-linecap:butt;stroke-linejoin:round;}</style>
 </defs>
 <g id="figure_1">
  <g id="patch_1">
   <path d="M 0 864 
L 1152 864 
L 1152 0 
L 0 0 
z
" style="fill:#ffffff;"/>
  </g>
  <g id="axes_1">
   <g id="patch_2">
    <path clip-path="url(#p18a3922981)" d="M 681.206195 325.058562 
Q 485.625492 333.618862 291.161754 342.130274 
" style="fill:none;stroke:#000000;stroke-linecap:round;"/>
    <path clip-path="url(#p18a3922981)" d="M 295.245381 343.953454 
L 291.161754 342.130274 
L 295.070474 339.957279 
L 295.245381 343.953454 
z
" style="stroke:#000000;stroke-linecap:round;"/>
   </g>
   <g id="patch_3">
    <path clip-path="url(#p18a3922981)" d="M 696.937968 329.6818 
Q 736.93778 357.953779 776.024591 385.580446 
" style="fill:none;stroke:#000000;stroke-linecap:round;"/>
    <path clip-path="url(#p18a3922981)" d="M 773.912506 381.63848 
L 776.024591 385.580446 
L 771.603767 384.904934 
L 773.912506 381.63848 
z
" style="stroke:#000000;stroke-linecap:round;"/>
   </g>
   <g id="patch_4">
    <path clip-path="url(#p18a3922981)" d="M 685.659553 317.102834 
Q 666.53309 282.609741 647.948804 249.094422 
" style="fill:none;stroke:#000000;stroke-linecap:round;"/>
    <path clip-path="url(#p18a3922981)" d="M 648.13946 253.562492 
L 647.948804 249.094422 
L 651.637654 251.622739 
L 648.13946 253.562492 
z
" style="stroke:#000000;stroke-linecap:round;"/>
   </g>
   <g id="patch_5">
    <path clip-path="url(#p18a3922981)" d="M 685.350645 483.323707 
Q 748.481139 503.844159 810.548359 524.018996 
" style="fill:none;stroke:#000000;stroke-linecap:round;"/>
    <path clip-path="url(#p18a3922981)" d="M 807.362532 520.880445 
L 810.548359 524.018996 
L 806.126022 524.684527 
L 807.362532 520.880445 
z
" style="stroke:#000000;stroke-linecap:round;"/>
   </g>
   <g id="patch_6">
    <path clip-path="url(#p18a3922981)" d="M 656.418584 473.912687 
Q 623.3162 463.137474 591.276944 452.708321 
" style="fill:none;stroke:#000000;stroke-linecap:round;"/>
    <path clip-path="url(#p18a3922981)" d="M 594.461455 455.848207 
L 591.276944 452.708321 
L 595.69956 452.044643 
L 594.461455 455.848207 
z
" style="stroke:#000000;stroke-linecap:round;"/>
   </g>
   <g id="patch_7">
    <path clip-path="url(#p18a3922981)" d="M 656.479991 483.516151 
Q 646.049372 487.060055 636.677355 490.244289 
" style="fill:none;stroke:#000000;stroke-linecap:round;"/>
    <path clip-path="url(#p18a3922981)" d="M 641.108121 490.851178 
L 636.677355 490.244289 
L 639.821326 487.063809 
L 641.108121 490.851178 
z
" style="stroke:#000000;stroke-linecap:round;"/>
   </g>
   <g id="patch_8">
    <path clip-path="url(#p18a3922981)" d="M 685.191 473.437973 
Q 689.685998 471.809159 693.129846 470.561241 
" style="fill:none;stroke:#000000;stroke-linecap:round;"/>
    <path clip-path="url(#p18a3922981)" d="M 688.687766 470.043623 
L 693.129846 470.561241 
L 690.050503 473.804334 
L 688.687766 470.043623 
z
" style="stroke:#000000;stroke-linecap:round;"/>
   </g>
   <g id="patch_9">
    <path clip-path="url(#p18a3922981)" d="M 588.698899 608.812526 
Q 438.592072 477.722638 289.327356 347.368174 
" style="fill:none;stroke:#000000;stroke-linecap:round;"/>
    <path clip-path="url(#p18a3922981)" d="M 291.024616 351.505723 
L 289.327356 347.368174 
L 293.655751 348.492895 
L 291.024616 351.505723 
z
" style="stroke:#000000;stroke-linecap:round;"/>
   </g>
   <g id="patch_10">
    <path clip-path="url(#p18a3922981)" d="M 288.725392 346.332435 
Q 396.598869 429.583759 503.587243 512.152005 
" style="fill:none;stroke:#000000;stroke-linecap:round;"/>
    <path clip-path="url(#p18a3922981)" d="M 501.642532 508.124835 
L 503.587243 512.152005 
L 499.198681 511.291472 
L 501.642532 508.124835 
z
" style="stroke:#000000;stroke-linecap:round;"/>
   </g>
   <g id="patch_11">
    <path clip-path="url(#p18a3922981)" d="M 288.479839 338.278806 
Q 358.901442 276.681625 428.48151 215.820527 
" style="fill:none;stroke:#000000;stroke-linecap:round;"/>
    <path clip-path="url(#p18a3922981)" d="M 424.153997 216.948636 
L 428.48151 215.820527 
L 426.78749 219.959403 
L 424.153997 216.948636 
z
" style="stroke:#000000;stroke-linecap:round;"/>
   </g>
   <g id="patch_12">
    <path clip-path="url(#p18a3922981)" d="M 289.923631 341.205909 
Q 353.553316 328.410817 416.086907 315.836134 
" style="fill:none;stroke:#000000;stroke-linecap:round;"/>
    <path clip-path="url(#p18a3922981)" d="M 411.771125 314.663946 
L 416.086907 315.836134 
L 412.559687 318.585447 
L 411.771125 314.663946 
z
" style="stroke:#000000;stroke-linecap:round;"/>
   </g>
   <g id="patch_13">
    <path clip-path="url(#p18a3922981)" d="M 330.441127 593.663696 
Q 318.341097 605.15597 307.051732 615.878296 
" style="fill:none;stroke:#000000;stroke-linecap:round;"/>
    <path clip-path="url(#p18a3922981)" d="M 311.329385 614.573809 
L 307.051732 615.878296 
L 308.574734 611.673481 
L 311.329385 614.573809 
z
" style="stroke:#000000;stroke-linecap:round;"/>
   </g>
   <g id="patch_14">
    <path clip-path="url(#p18a3922981)" d="M 343.073954 591.381501 
Q 481.07418 650.068161 618.045544 708.317281 
" style="fill:none;stroke:#000000;stroke-linecap:round;"/>
    <path clip-path="url(#p18a3922981)" d="M 615.147266 704.911406 
L 618.045544 708.317281 
L 613.581877 708.592379 
L 615.147266 704.911406 
z
" style="stroke:#000000;stroke-linecap:round;"/>
   </g>
   <g id="patch_15">
    <path clip-path="url(#p18a3922981)" d="M 775.056281 562.674615 
Q 690.073234 462.365054 605.812897 362.908541 
" style="fill:none;stroke:#000000;stroke-linecap:round;"/>
    <path clip-path="url(#p18a3922981)" d="M 606.87256 367.253321 
L 605.812897 362.908541 
L 609.924519 364.667678 
L 606.87256 367.253321 
z
" style="stroke:#000000;stroke-linecap:round;"/>
   </g>
   <g id="patch_16">
    <path clip-path="url(#p18a3922981)" d="M 775.530987 562.308306 
Q 719.594681 482.84794 664.301948 404.301803 
" style="fill:none;stroke:#000000;stroke-linecap:round;"/>
    <path clip-path="url(#p18a3922981)" d="M 664.969044 408.723904 
L 664.301948 404.301803 
L 668.239887 406.421387 
L 664.969044 408.723904 
z
" style="stroke:#000000;stroke-linecap:round;"/>
   </g>
   <g id="patch_17">
    <path clip-path="url(#p18a3922981)" d="M 504.473697 512.836126 
Q 396.599906 429.584559 289.611216 347.01607 
" style="fill:none;stroke:#000000;stroke-linecap:round;"/>
    <path clip-path="url(#p18a3922981)" d="M 291.555928 351.04324 
L 289.611216 347.01607 
L 293.999779 347.876603 
L 291.555928 351.04324 
z
" style="stroke:#000000;stroke-linecap:round;"/>
   </g>
   <g id="patch_18">
    <path clip-path="url(#p18a3922981)" d="M 559.11462 265.601428 
Q 424.466287 303.175919 290.894844 340.449897 
" style="fill:none;stroke:#000000;stroke-linecap:round;"/>
    <path clip-path="url(#p18a3922981)" d="M 295.285217 341.301148 
L 290.894844 340.449897 
L 294.210068 337.448349 
L 295.285217 341.301148 
z
" style="stroke:#000000;stroke-linecap:round;"/>
   </g>
   <g id="patch_19">
    <path clip-path="url(#p18a3922981)" d="M 567.575539 269.961939 
Q 580.7194 306.315026 593.483107 341.616694 
" style="fill:none;stroke:#000000;stroke-linecap:round;"/>
    <path clip-path="url(#p18a3922981)" d="M 594.003869 337.174981 
L 593.483107 341.616694 
L 590.242195 338.535056 
L 594.003869 337.174981 
z
" style="stroke:#000000;stroke-linecap:round;"/>
   </g>
   <g id="patch_20">
    <path clip-path="url(#p18a3922981)" d="M 569.106065 269.162675 
Q 611.665019 329.576504 653.580093 389.076321 
" style="fill:none;stroke:#000000;stroke-linecap:round;"/>
    <path clip-path="url(#p18a3922981)" d="M 652.911504 384.654445 
L 653.580093 389.076321 
L 649.641439 386.958066 
L 652.911504 384.654445 
z
" style="stroke:#000000;stroke-linecap:round;"/>
   </g>
   <g id="patch_21">
    <path clip-path="url(#p18a3922981)" d="M 365.385604 280.08912 
Q 511.757304 375.210522 657.191536 469.722699 
" style="fill:none;stroke:#000000;stroke-linecap:round;"/>
    <path clip-path="url(#p18a3922981)" d="M 654.927364 465.866078 
L 657.191536 469.722699 
L 652.747736 469.220064 
L 654.927364 465.866078 
z
" style="stroke:#000000;stroke-linecap:round;"/>
   </g>
   <g id="patch_22">
    <path clip-path="url(#p18a3922981)" d="M 775.391368 390.386917 
Q 532.704088 366.729534 291.129568 343.180625 
" style="fill:none;stroke:#000000;stroke-linecap:round;"/>
    <path clip-path="url(#p18a3922981)" d="M 294.916655 345.559274 
L 291.129568 343.180625 
L 295.304739 341.578145 
L 294.916655 345.559274 
z
" style="stroke:#000000;stroke-linecap:round;"/>
   </g>
   <g id="patch_23">
    <path clip-path="url(#p18a3922981)" d="M 776.937122 386.225426 
Q 736.93731 357.953447 697.850499 330.32678 
" style="fill:none;stroke:#000000;stroke-linecap:round;"/>
    <path clip-path="url(#p18a3922981)" d="M 699.962584 334.268746 
L 697.850499 330.32678 
L 702.271323 331.002292 
L 699.962584 334.268746 
z
" style="stroke:#000000;stroke-linecap:round;"/>
   </g>
   <g id="patch_24">
    <path clip-path="url(#p18a3922981)" d="M 638.186887 244.248263 
Q 464.002575 292.505438 290.895712 340.46411 
" style="fill:none;stroke:#000000;stroke-linecap:round;"/>
    <path clip-path="url(#p18a3922981)" d="M 295.284489 341.32355 
L 290.895712 340.46411 
L 294.21653 337.468753 
L 295.284489 341.32355 
z
" style="stroke:#000000;stroke-linecap:round;"/>
   </g>
   <g id="patch_25">
    <path clip-path="url(#p18a3922981)" d="M 647.406275 248.116013 
Q 666.532782 282.609184 685.117111 316.124581 
" style="fill:none;stroke:#000000;stroke-linecap:round;"/>
    <path clip-path="url(#p18a3922981)" d="M 684.926455 311.656511 
L 685.117111 316.124581 
L 681.428261 313.596264 
L 684.926455 311.656511 
z
" style="stroke:#000000;stroke-linecap:round;"/>
   </g>
   <g id="patch_26">
    <path clip-path="url(#p18a3922981)" d="M 811.225183 529.389811 
Q 719.232367 544.328548 628.343129 559.088074 
" style="fill:none;stroke:#000000;stroke-linecap:round;"/>
    <path clip-path="url(#p18a3922981)" d="M 632.611989 560.421052 
L 628.343129 559.088074 
L 631.970827 556.472772 
L 632.611989 560.421052 
z
" style="stroke:#000000;stroke-linecap:round;"/>
   </g>
   <g id="patch_27">
    <path clip-path="url(#p18a3922981)" d="M 811.103928 528.205965 
Q 647.919745 536.33053 485.852212 544.3995 
" style="fill:none;stroke:#000000;stroke-linecap:round;"/>
    <path clip-path="url(#p18a3922981)" d="M 489.946716 546.198121 
L 485.852212 544.3995 
L 489.747811 542.20307 
L 489.946716 546.198121 
z
" style="stroke:#000000;stroke-linecap:round;"/>
   </g>
   <g id="patch_28">
    <path clip-path="url(#p18a3922981)" d="M 618.197809 565.948757 
Q 608.049873 586.462971 598.397665 605.97506 
" style="fill:none;stroke:#000000;stroke-linecap:round;"/>
    <path clip-path="url(#p18a3922981)" d="M 601.963894 603.276539 
L 598.397665 605.97506 
L 598.378585 601.502965 
L 601.963894 603.276539 
z
" style="stroke:#000000;stroke-linecap:round;"/>
   </g>
   <g id="patch_29">
    <path clip-path="url(#p18a3922981)" d="M 615.105293 557.997229 
Q 566.382659 539.133352 518.702643 520.673145 
" style="fill:none;stroke:#000000;stroke-linecap:round;"/>
    <path clip-path="url(#p18a3922981)" d="M 521.710721 523.982445 
L 518.702643 520.673145 
L 523.15493 520.252263 
L 521.710721 523.982445 
z
" style="stroke:#000000;stroke-linecap:round;"/>
   </g>
   <g id="patch_30">
    <path clip-path="url(#p18a3922981)" d="M 620.295717 554.000601 
Q 609.650555 459.342051 599.130338 365.79453 
" style="fill:none;stroke:#000000;stroke-linecap:round;"/>
    <path clip-path="url(#p18a3922981)" d="M 597.589883 369.992982 
L 599.130338 365.79453 
L 601.564826 369.545966 
L 597.589883 369.992982 
z
" style="stroke:#000000;stroke-linecap:round;"/>
   </g>
   <g id="patch_31">
    <path clip-path="url(#p18a3922981)" d="M 622.430118 554.122046 
Q 639.760784 479.395194 656.838859 405.75747 
" style="fill:none;stroke:#000000;stroke-linecap:round;"/>
    <path clip-path="url(#p18a3922981)" d="M 653.986873 409.202202 
L 656.838859 405.75747 
L 657.883453 410.105897 
L 653.986873 409.202202 
z
" style="stroke:#000000;stroke-linecap:round;"/>
   </g>
   <g id="patch_32">
    <path clip-path="url(#p18a3922981)" d="M 483.572914 549.218163 
Q 535.70989 579.608184 586.880944 609.435181 
" style="fill:none;stroke:#000000;stroke-linecap:round;"/>
    <path clip-path="url(#p18a3922981)" d="M 584.432327 605.692953 
L 586.880944 609.435181 
L 582.417991 609.148738 
L 584.432327 605.692953 
z
" style="stroke:#000000;stroke-linecap:round;"/>
   </g>
   <g id="patch_33">
    <path clip-path="url(#p18a3922981)" d="M 482.871866 539.521449 
Q 493.706756 530.896848 503.666904 522.968543 
" style="fill:none;stroke:#000000;stroke-linecap:round;"/>
    <path clip-path="url(#p18a3922981)" d="M 499.291764 523.894904 
L 503.666904 522.968543 
L 501.782908 527.024472 
L 499.291764 523.894904 
z
" style="stroke:#000000;stroke-linecap:round;"/>
   </g>
   <g id="patch_34">
    <path clip-path="url(#p18a3922981)" d="M 480.750408 537.615657 
Q 536.19215 450.296901 591.034608 363.921997 
" style="fill:none;stroke:#000000;stroke-linecap:round;"/>
    <path clip-path="url(#p18a3922981)" d="M 587.202126 366.226793 
L 591.034608 363.921997 
L 590.578955 368.37086 
L 587.202126 366.226793 
z
" style="stroke:#000000;stroke-linecap:round;"/>
   </g>
   <g id="patch_35">
    <path clip-path="url(#p18a3922981)" d="M 482.822155 539.462964 
Q 567.698996 470.656031 651.707336 402.553164 
" style="fill:none;stroke:#000000;stroke-linecap:round;"/>
    <path clip-path="url(#p18a3922981)" d="M 647.340626 403.518484 
L 651.707336 402.553164 
L 649.859566 406.625724 
L 647.340626 403.518484 
z
" style="stroke:#000000;stroke-linecap:round;"/>
   </g>
   <g id="patch_36">
    <path clip-path="url(#p18a3922981)" d="M 597.591678 364.751962 
Q 596.089466 485.466665 594.601166 605.063422 
" style="fill:none;stroke:#000000;stroke-linecap:round;"/>
    <path clip-path="url(#p18a3922981)" d="M 596.650785 601.088618 
L 594.601166 605.063422 
L 592.651095 601.038845 
L 596.650785 601.088618 
z
" style="stroke:#000000;stroke-linecap:round;"/>
   </g>
   <g id="patch_37">
    <path clip-path="url(#p18a3922981)" d="M 592.393353 363.422429 
Q 553.254665 437.08769 514.64055 509.76562 
" style="fill:none;stroke:#000000;stroke-linecap:round;"/>
    <path clip-path="url(#p18a3922981)" d="M 518.283513 507.171622 
L 514.64055 509.76562 
L 514.75113 505.294851 
L 518.283513 507.171622 
z
" style="stroke:#000000;stroke-linecap:round;"/>
   </g>
   <g id="patch_38">
    <path clip-path="url(#p18a3922981)" d="M 608.886844 351.116682 
Q 780.982089 316.320981 951.981474 281.746849 
" style="fill:none;stroke:#000000;stroke-linecap:round;"/>
    <path clip-path="url(#p18a3922981)" d="M 947.664454 280.579231 
L 951.981474 281.746849 
L 948.457167 284.499895 
L 947.664454 280.579231 
z
" style="stroke:#000000;stroke-linecap:round;"/>
   </g>
   <g id="patch_39">
    <path clip-path="url(#p18a3922981)" d="M 589.15298 345.89909 
Q 514.046219 280.487613 439.782569 215.810412 
" style="fill:none;stroke:#000000;stroke-linecap:round;"/>
    <path clip-path="url(#p18a3922981)" d="M 441.485462 219.945645 
L 439.782569 215.810412 
L 444.112492 216.929238 
L 441.485462 219.945645 
z
" style="stroke:#000000;stroke-linecap:round;"/>
   </g>
   <g id="patch_40">
    <path clip-path="url(#p18a3922981)" d="M 586.634673 350.851511 
Q 509.464578 333.327612 433.384759 316.051296 
" style="fill:none;stroke:#000000;stroke-linecap:round;"/>
    <path clip-path="url(#p18a3922981)" d="M 436.842565 318.887417 
L 433.384759 316.051296 
L 437.72834 314.986724 
L 436.842565 318.887417 
z
" style="stroke:#000000;stroke-linecap:round;"/>
   </g>
   <g id="patch_41">
    <path clip-path="url(#p18a3922981)" d="M 594.139917 342.573268 
Q 572.97262 278.963006 552.158334 216.413585 
" style="fill:none;stroke:#000000;stroke-linecap:round;"/>
    <path clip-path="url(#p18a3922981)" d="M 551.523615 220.84045 
L 552.158334 216.413585 
L 555.318994 219.577479 
L 551.523615 220.84045 
z
" style="stroke:#000000;stroke-linecap:round;"/>
   </g>
   <g id="patch_42">
    <path clip-path="url(#p18a3922981)" d="M 656.610503 404.545445 
Q 626.645335 505.52084 596.998241 605.4244 
" style="fill:none;stroke:#000000;stroke-linecap:round;"/>
    <path clip-path="url(#p18a3922981)" d="M 600.053574 602.158678 
L 596.998241 605.4244 
L 596.218863 601.020701 
L 600.053574 602.158678 
z
" style="stroke:#000000;stroke-linecap:round;"/>
   </g>
   <g id="patch_43">
    <path clip-path="url(#p18a3922981)" d="M 652.589935 401.859256 
Q 584.522848 457.270371 517.322818 511.975645 
" style="fill:none;stroke:#000000;stroke-linecap:round;"/>
    <path clip-path="url(#p18a3922981)" d="M 521.687543 511.001387 
L 517.322818 511.975645 
L 519.162247 507.899311 
L 521.687543 511.001387 
z
" style="stroke:#000000;stroke-linecap:round;"/>
   </g>
   <g id="patch_44">
    <path clip-path="url(#p18a3922981)" d="M 666.58291 393.7266 
Q 809.981543 338.146476 952.337708 282.970403 
" style="fill:none;stroke:#000000;stroke-linecap:round;"/>
    <path clip-path="url(#p18a3922981)" d="M 947.885266 282.55116 
L 952.337708 282.970403 
L 949.330848 286.28081 
L 947.885266 282.55116 
z
" style="stroke:#000000;stroke-linecap:round;"/>
   </g>
   <g id="patch_45">
    <path clip-path="url(#p18a3922981)" d="M 652.626817 391.468551 
Q 545.835083 303.208304 439.905148 215.660309 
" style="fill:none;stroke:#000000;stroke-linecap:round;"/>
    <path clip-path="url(#p18a3922981)" d="M 441.714299 219.750171 
L 439.905148 215.660309 
L 444.262528 216.666905 
L 441.714299 219.750171 
z
" style="stroke:#000000;stroke-linecap:round;"/>
   </g>
   <g id="patch_46">
    <path clip-path="url(#p18a3922981)" d="M 651.213056 393.962012 
Q 541.629474 355.312344 433.100269 317.034551 
" style="fill:none;stroke:#000000;stroke-linecap:round;"/>
    <path clip-path="url(#p18a3922981)" d="M 436.207292 320.251134 
L 433.100269 317.034551 
L 437.537749 316.478882 
L 436.207292 320.251134 
z
" style="stroke:#000000;stroke-linecap:round;"/>
   </g>
   <g id="patch_47">
    <path clip-path="url(#p18a3922981)" d="M 654.817469 389.607662 
Q 603.905546 302.214466 553.556412 215.787329 
" style="fill:none;stroke:#000000;stroke-linecap:round;"/>
    <path clip-path="url(#p18a3922981)" d="M 553.841767 220.250351 
L 553.556412 215.787329 
L 557.298043 218.236858 
L 553.841767 220.250351 
z
" style="stroke:#000000;stroke-linecap:round;"/>
   </g>
   <g id="patch_48">
    <path clip-path="url(#p18a3922981)" d="M 589.961765 447.796299 
Q 771.73972 365.346293 952.499483 283.358114 
" style="fill:none;stroke:#000000;stroke-linecap:round;"/>
    <path clip-path="url(#p18a3922981)" d="M 948.030546 283.188999 
L 952.499483 283.358114 
L 949.682828 286.831795 
L 948.030546 283.188999 
z
" style="stroke:#000000;stroke-linecap:round;"/>
   </g>
   <g id="patch_49">
    <path clip-path="url(#p18a3922981)" d="M 578.793475 453.674974 
Q 442.928778 535.706459 308.021191 617.160068 
" style="fill:none;stroke:#000000;stroke-linecap:round;"/>
    <path clip-path="url(#p18a3922981)" d="M 312.479187 616.804721 
L 308.021191 617.160068 
L 310.411711 613.380463 
L 312.479187 616.804721 
z
" style="stroke:#000000;stroke-linecap:round;"/>
   </g>
   <g id="patch_50">
    <path clip-path="url(#p18a3922981)" d="M 585.180489 456.65114 
Q 604.549653 580.818878 623.746497 703.881943 
" style="fill:none;stroke:#000000;stroke-linecap:round;"/>
    <path clip-path="url(#p18a3922981)" d="M 625.106087 699.621483 
L 623.746497 703.881943 
L 621.153883 700.237995 
L 625.106087 699.621483 
z
" style="stroke:#000000;stroke-linecap:round;"/>
   </g>
   <g id="patch_51">
    <path clip-path="url(#p18a3922981)" d="M 583.31365 444.150266 
Q 567.00832 329.882692 550.860926 216.72194 
" style="fill:none;stroke:#000000;stroke-linecap:round;"/>
    <path clip-path="url(#p18a3922981)" d="M 549.446036 220.964355 
L 550.860926 216.72194 
L 553.405924 220.399301 
L 549.446036 220.964355 
z
" style="stroke:#000000;stroke-linecap:round;"/>
   </g>
   <g id="patch_52">
    <path clip-path="url(#p18a3922981)" d="M 634.945756 489.21473 
Q 794.454218 386.465636 953.022772 284.321994 
" style="fill:none;stroke:#000000;stroke-linecap:round;"/>
    <path clip-path="url(#p18a3922981)" d="M 948.576988 284.806766 
L 953.022772 284.321994 
L 950.74312 288.169484 
L 948.576988 284.806766 
z
" style="stroke:#000000;stroke-linecap:round;"/>
   </g>
   <g id="patch_53">
    <path clip-path="url(#p18a3922981)" d="M 623.742973 494.942838 
Q 465.641872 556.821467 308.581902 618.292611 
" style="fill:none;stroke:#000000;stroke-linecap:round;"/>
    <path clip-path="url(#p18a3922981)" d="M 313.035701 618.697182 
L 308.581902 618.292611 
L 311.577838 614.972315 
L 313.035701 618.697182 
z
" style="stroke:#000000;stroke-linecap:round;"/>
   </g>
   <g id="patch_54">
    <path clip-path="url(#p18a3922981)" d="M 629.493768 498.95907 
Q 627.261669 601.934452 625.053798 703.792063 
" style="fill:none;stroke:#000000;stroke-linecap:round;"/>
    <path clip-path="url(#p18a3922981)" d="M 627.140012 699.836344 
L 625.053798 703.792063 
L 623.140952 699.74966 
L 627.140012 699.836344 
z
" style="stroke:#000000;stroke-linecap:round;"/>
   </g>
   <g id="patch_55">
    <path clip-path="url(#p18a3922981)" d="M 627.917091 486.556613 
Q 589.720999 350.9997 551.828129 216.518917 
" style="fill:none;stroke:#000000;stroke-linecap:round;"/>
    <path clip-path="url(#p18a3922981)" d="M 550.987933 220.911419 
L 551.828129 216.518917 
L 554.838013 219.826575 
L 550.987933 220.911419 
z
" style="stroke:#000000;stroke-linecap:round;"/>
   </g>
   <g id="patch_56">
    <path clip-path="url(#p18a3922981)" d="M 707.516903 463.104157 
Q 830.84116 373.556504 953.260724 284.665761 
" style="fill:none;stroke:#000000;stroke-linecap:round;"/>
    <path clip-path="url(#p18a3922981)" d="M 948.848881 285.397635 
L 953.260724 284.665761 
L 951.199117 288.63436 
L 948.848881 285.397635 
z
" style="stroke:#000000;stroke-linecap:round;"/>
   </g>
   <g id="patch_57">
    <path clip-path="url(#p18a3922981)" d="M 694.228149 470.316233 
Q 500.893467 544.526897 308.602566 618.336911 
" style="fill:none;stroke:#000000;stroke-linecap:round;"/>
    <path clip-path="url(#p18a3922981)" d="M 313.053616 618.770671 
L 308.602566 618.336911 
L 311.620205 615.036327 
L 313.053616 618.770671 
z
" style="stroke:#000000;stroke-linecap:round;"/>
   </g>
   <g id="patch_58">
    <path clip-path="url(#p18a3922981)" d="M 699.065451 474.858726 
Q 662.925762 590.026883 627.120818 704.128293 
" style="fill:none;stroke:#000000;stroke-linecap:round;"/>
    <path clip-path="url(#p18a3922981)" d="M 630.226688 700.910596 
L 627.120818 704.128293 
L 626.410182 699.71298 
L 630.226688 700.910596 
z
" style="stroke:#000000;stroke-linecap:round;"/>
   </g>
   <g id="patch_59">
    <path clip-path="url(#p18a3922981)" d="M 697.489313 461.00686 
Q 625.248388 337.905922 553.573331 215.769241 
" style="fill:none;stroke:#000000;stroke-linecap:round;"/>
    <path clip-path="url(#p18a3922981)" d="M 553.872925 220.231331 
L 553.573331 215.769241 
L 557.322759 218.20682 
L 553.872925 220.231331 
z
" style="stroke:#000000;stroke-linecap:round;"/>
   </g>
   <g id="patch_60">
    <path clip-path="url(#p18a3922981)" d="M 417.177902 315.616749 
Q 353.550631 328.411356 291.019452 340.985554 
" style="fill:none;stroke:#000000;stroke-linecap:round;"/>
    <path clip-path="url(#p18a3922981)" d="M 295.335234 342.157742 
L 291.019452 340.985554 
L 294.546672 338.236241 
L 295.335234 342.157742 
z
" style="stroke:#000000;stroke-linecap:round;"/>
   </g>
   <g id="patch_61">
    <path clip-path="url(#p18a3922981)" d="M 432.293854 315.803571 
Q 509.46367 333.327406 585.543209 350.603659 
" style="fill:none;stroke:#000000;stroke-linecap:round;"/>
    <path clip-path="url(#p18a3922981)" d="M 582.085404 347.767538 
L 585.543209 350.603659 
L 581.199629 351.668231 
L 582.085404 347.767538 
z
" style="stroke:#000000;stroke-linecap:round;"/>
   </g>
   <g id="patch_62">
    <path clip-path="url(#p18a3922981)" d="M 432.044488 316.662181 
Q 541.631296 355.312987 650.163727 393.591918 
" style="fill:none;stroke:#000000;stroke-linecap:round;"/>
    <path clip-path="url(#p18a3922981)" d="M 647.056704 390.375335 
L 650.163727 393.591918 
L 645.726246 394.147586 
L 647.056704 390.375335 
z
" style="stroke:#000000;stroke-linecap:round;"/>
   </g>
   <g id="patch_63">
    <path clip-path="url(#p18a3922981)" d="M 228.774283 461.666037 
Q 279.911337 522.091151 330.32614 581.662829 
" style="fill:none;stroke:#000000;stroke-linecap:round;"/>
    <path clip-path="url(#p18a3922981)" d="M 329.268803 577.317482 
L 330.32614 581.662829 
L 326.21546 579.90149 
L 329.268803 577.317482 
z
" style="stroke:#000000;stroke-linecap:round;"/>
   </g>
   <g id="patch_64">
    <path clip-path="url(#p18a3922981)" d="M 231.388575 447.615807 
Q 293.038528 413.884722 353.707659 380.690283 
" style="fill:none;stroke:#000000;stroke-linecap:round;"/>
    <path clip-path="url(#p18a3922981)" d="M 349.238584 380.855697 
L 353.707659 380.690283 
L 351.158546 384.364792 
L 349.238584 380.855697 
z
" style="stroke:#000000;stroke-linecap:round;"/>
   </g>
   <g id="patch_65">
    <path clip-path="url(#p18a3922981)" d="M 628.576906 163.463422 
Q 699.55699 178.890439 769.444548 194.080003 
" style="fill:none;stroke:#000000;stroke-linecap:round;"/>
    <path clip-path="url(#p18a3922981)" d="M 765.960572 191.276093 
L 769.444548 194.080003 
L 765.111034 195.184838 
L 765.960572 191.276093 
z
" style="stroke:#000000;stroke-linecap:round;"/>
   </g>
   <g id="patch_66">
    <path clip-path="url(#p18a3922981)" d="M 627.144864 166.812423 
Q 751.78177 250.84386 875.491657 334.250291 
" style="fill:none;stroke:#000000;stroke-linecap:round;"/>
    <path clip-path="url(#p18a3922981)" d="M 873.293093 330.355895 
L 875.491657 334.250291 
L 871.057002 333.672505 
L 873.293093 330.355895 
z
" style="stroke:#000000;stroke-linecap:round;"/>
   </g>
   <g id="patch_67">
    <path clip-path="url(#p18a3922981)" d="M 784.175781 203.225265 
Q 831.233082 268.078205 877.633778 332.026231 
" style="fill:none;stroke:#000000;stroke-linecap:round;"/>
    <path clip-path="url(#p18a3922981)" d="M 876.903393 327.614141 
L 877.633778 332.026231 
L 873.665875 329.963284 
L 876.903393 327.614141 
z
" style="stroke:#000000;stroke-linecap:round;"/>
   </g>
   <g id="patch_68">
    <path clip-path="url(#p18a3922981)" d="M 358.527709 382.726953 
Q 347.685471 481.737555 336.964937 579.636768 
" style="fill:none;stroke:#000000;stroke-linecap:round;"/>
    <path clip-path="url(#p18a3922981)" d="M 339.388473 575.878247 
L 336.964937 579.636768 
L 335.412242 575.442827 
L 339.388473 575.878247 
z
" style="stroke:#000000;stroke-linecap:round;"/>
   </g>
   <g id="patch_69">
    <path clip-path="url(#p18a3922981)" d="M 362.915367 374.557997 
Q 487.309232 271.075014 610.843593 168.307051 
" style="fill:none;stroke:#000000;stroke-linecap:round;"/>
    <path clip-path="url(#p18a3922981)" d="M 606.489472 169.327655 
L 610.843593 168.307051 
L 609.047603 172.40271 
L 606.489472 169.327655 
z
" style="stroke:#000000;stroke-linecap:round;"/>
   </g>
   <g id="patch_70">
    <path clip-path="url(#p18a3922981)" d="M 879.648035 346.270725 
Q 830.900559 453.975621 782.614088 560.661951 
" style="fill:none;stroke:#000000;stroke-linecap:round;"/>
    <path clip-path="url(#p18a3922981)" d="M 786.085494 557.842493 
L 782.614088 560.661951 
L 782.441365 556.193152 
L 786.085494 557.842493 
z
" style="stroke:#000000;stroke-linecap:round;"/>
   </g>
   <g id="PathCollection_1">
    <path clip-path="url(#p18a3922981)" d="M 689.860965 333.344729 
C 692.158943 333.344729 694.363111 332.431733 695.988027 330.806817 
C 697.612943 329.181901 698.525939 326.977733 698.525939 324.679755 
C 698.525939 322.381777 697.612943 320.177609 695.988027 318.552693 
C 694.363111 316.927777 692.158943 316.014781 689.860965 316.014781 
C 687.562987 316.014781 685.358819 316.927777 683.733903 318.552693 
C 682.108987 320.177609 681.195991 322.381777 681.195991 324.679755 
C 681.195991 326.977733 682.108987 329.181901 683.733903 330.806817 
C 685.358819 332.431733 687.562987 333.344729 689.860965 333.344729 
z
" style="fill:#b9d0f9;stroke:#b9d0f9;"/>
    <path clip-path="url(#p18a3922981)" d="M 670.885353 493.83676 
C 674.92041 493.83676 678.790745 492.233615 681.643961 489.380399 
C 684.497178 486.527182 686.100323 482.656847 686.100323 478.62179 
C 686.100323 474.586733 684.497178 470.716397 681.643961 467.863181 
C 678.790745 465.009965 674.92041 463.406819 670.885353 463.406819 
C 666.850295 463.406819 662.97996 465.009965 660.126744 467.863181 
C 657.273527 470.716397 655.670382 474.586733 655.670382 478.62179 
C 655.670382 482.656847 657.273527 486.527182 660.126744 489.380399 
C 662.97996 492.233615 666.850295 493.83676 670.885353 493.83676 
z
" style="fill:#e3d9d3;stroke:#e3d9d3;"/>
    <path clip-path="url(#p18a3922981)" d="M 594.491558 621.563558 
C 596.531564 621.563558 598.488291 620.753055 599.930793 619.310553 
C 601.373295 617.868051 602.183798 615.911323 602.183798 613.871317 
C 602.183798 611.831311 601.373295 609.874584 599.930793 608.432082 
C 598.488291 606.98958 596.531564 606.179077 594.491558 606.179077 
C 592.451552 606.179077 590.494825 606.98958 589.052323 608.432082 
C 587.609821 609.874584 586.799318 611.831311 586.799318 613.871317 
C 586.799318 615.911323 587.609821 617.868051 589.052323 619.310553 
C 590.494825 620.753055 592.451552 621.563558 594.491558 621.563558 
z
" style="fill:#b7cff9;stroke:#b7cff9;"/>
    <path clip-path="url(#p18a3922981)" d="M 283.703402 348.803398 
C 285.386561 348.803398 287.00101 348.134671 288.191184 346.944497 
C 289.381357 345.754324 290.050084 344.139875 290.050084 342.456715 
C 290.050084 340.773556 289.381357 339.159107 288.191184 337.968933 
C 287.00101 336.77876 285.386561 336.110033 283.703402 336.110033 
C 282.020242 336.110033 280.405793 336.77876 279.21562 337.968933 
C 278.025446 339.159107 277.356719 340.773556 277.356719 342.456715 
C 277.356719 344.139875 278.025446 345.754324 279.21562 346.944497 
C 280.405793 348.134671 282.020242 348.803398 283.703402 348.803398 
z
" style="fill:#94b6ff;stroke:#94b6ff;"/>
    <path clip-path="url(#p18a3922981)" d="M 336.00788 596.052825 
C 338.043653 596.052825 339.996319 595.244004 341.435828 593.804496 
C 342.875336 592.364987 343.684157 590.41232 343.684157 588.376548 
C 343.684157 586.340775 342.875336 584.388109 341.435828 582.9486 
C 339.996319 581.509092 338.043653 580.700271 336.00788 580.700271 
C 333.972108 580.700271 332.019441 581.509092 330.579932 582.9486 
C 329.140424 584.388109 328.331603 586.340775 328.331603 588.376548 
C 328.331603 590.41232 329.140424 592.364987 330.579932 593.804496 
C 332.019441 595.244004 333.972108 596.052825 336.00788 596.052825 
z
" style="fill:#d8dce2;stroke:#d8dce2;"/>
    <path clip-path="url(#p18a3922981)" d="M 779.388669 574.492188 
C 781.16655 574.492188 782.871854 573.785829 784.129006 572.528677 
C 785.386158 571.271524 786.092518 569.566221 786.092518 567.78834 
C 786.092518 566.010458 785.386158 564.305155 784.129006 563.048003 
C 782.871854 561.790851 781.16655 561.084491 779.388669 561.084491 
C 777.610787 561.084491 775.905484 561.790851 774.648332 563.048003 
C 773.39118 564.305155 772.68482 566.010458 772.68482 567.78834 
C 772.68482 569.566221 773.39118 571.271524 774.648332 572.528677 
C 775.905484 573.785829 777.610787 574.492188 779.388669 574.492188 
z
" style="fill:#efcfbf;stroke:#efcfbf;"/>
    <path clip-path="url(#p18a3922981)" d="M 959.32562 286.638928 
C 961.016815 286.638928 962.638971 285.967009 963.834826 284.771153 
C 965.030682 283.575298 965.702601 281.953142 965.702601 280.261947 
C 965.702601 278.570751 965.030682 276.948596 963.834826 275.75274 
C 962.638971 274.556884 961.016815 273.884965 959.32562 273.884965 
C 957.634425 273.884965 956.012269 274.556884 954.816413 275.75274 
C 953.620558 276.948596 952.948639 278.570751 952.948639 280.261947 
C 952.948639 281.953142 953.620558 283.575298 954.816413 284.771153 
C 956.012269 285.967009 957.634425 286.638928 959.32562 286.638928 
z
" style="fill:#d4dbe6;stroke:#d4dbe6;"/>
    <path clip-path="url(#p18a3922981)" d="M 510.527082 525.154367 
C 512.554969 525.154367 514.500072 524.348679 515.934005 522.914746 
C 517.367938 521.480814 518.173626 519.535711 518.173626 517.507824 
C 518.173626 515.479937 517.367938 513.534834 515.934005 512.100901 
C 514.500072 510.666968 512.554969 509.86128 510.527082 509.86128 
C 508.499195 509.86128 506.554092 510.666968 505.120159 512.100901 
C 503.686227 513.534834 502.880539 515.479937 502.880539 517.507824 
C 502.880539 519.535711 503.686227 521.480814 505.120159 522.914746 
C 506.554092 524.348679 508.499195 525.154367 510.527082 525.154367 
z
" style="fill:#f4c6af;stroke:#f4c6af;"/>
    <path clip-path="url(#p18a3922981)" d="M 434.125604 217.26616 
C 435.818256 217.26616 437.44181 216.593662 438.638695 215.396777 
C 439.835581 214.199891 440.508079 212.576338 440.508079 210.883686 
C 440.508079 209.191034 439.835581 207.56748 438.638695 206.370595 
C 437.44181 205.173709 435.818256 204.501211 434.125604 204.501211 
C 432.432952 204.501211 430.809399 205.173709 429.612513 206.370595 
C 428.415628 207.56748 427.74313 209.191034 427.74313 210.883686 
C 427.74313 212.576338 428.415628 214.199891 429.612513 215.396777 
C 430.809399 216.593662 432.432952 217.26616 434.125604 217.26616 
z
" style="fill:#a9c6fd;stroke:#a9c6fd;"/>
    <path clip-path="url(#p18a3922981)" d="M 565.368007 270.347747 
C 567.089538 270.347747 568.740791 269.663776 569.958097 268.44647 
C 571.175403 267.229164 571.859374 265.577911 571.859374 263.85638 
C 571.859374 262.134849 571.175403 260.483596 569.958097 259.26629 
C 568.740791 258.048984 567.089538 257.365013 565.368007 257.365013 
C 563.646476 257.365013 561.995223 258.048984 560.777917 259.26629 
C 559.560611 260.483596 558.87664 262.134849 558.87664 263.85638 
C 558.87664 265.577911 559.560611 267.229164 560.777917 268.44647 
C 561.995223 269.663776 563.646476 270.347747 565.368007 270.347747 
z
" style="fill:#e6d7cf;stroke:#e6d7cf;"/>
    <path clip-path="url(#p18a3922981)" d="M 352.129229 287.285695 
C 356.322458 287.285695 360.344508 285.619707 363.309569 282.654646 
C 366.27463 279.689585 367.940617 275.667535 367.940617 271.474306 
C 367.940617 267.281077 366.27463 263.259027 363.309569 260.293966 
C 360.344508 257.328906 356.322458 255.662918 352.129229 255.662918 
C 347.936 255.662918 343.91395 257.328906 340.948889 260.293966 
C 337.983828 263.259027 336.317841 267.281077 336.317841 271.474306 
C 336.317841 275.667535 337.983828 279.689585 340.948889 282.654646 
C 343.91395 285.619707 347.936 287.285695 352.129229 287.285695 
z
" style="fill:#4f69d9;stroke:#4f69d9;"/>
    <path clip-path="url(#p18a3922981)" d="M 784.014125 399.892445 
C 786.312103 399.892445 788.516271 398.979449 790.141187 397.354533 
C 791.766103 395.729617 792.679099 393.525449 792.679099 391.227471 
C 792.679099 388.929493 791.766103 386.725325 790.141187 385.100409 
C 788.516271 383.475493 786.312103 382.562497 784.014125 382.562497 
C 781.716147 382.562497 779.511979 383.475493 777.887063 385.100409 
C 776.262147 386.725325 775.349151 388.929493 775.349151 391.227471 
C 775.349151 393.525449 776.262147 395.729617 777.887063 397.354533 
C 779.511979 398.979449 781.716147 399.892445 784.014125 399.892445 
z
" style="fill:#d4dbe6;stroke:#d4dbe6;"/>
    <path clip-path="url(#p18a3922981)" d="M 644.319495 248.915225 
C 646.007773 248.915225 647.62713 248.244465 648.820923 247.050672 
C 650.014716 245.85688 650.685475 244.237522 650.685475 242.549245 
C 650.685475 240.860967 650.014716 239.24161 648.820923 238.047817 
C 647.62713 236.854025 646.007773 236.183265 644.319495 236.183265 
C 642.631218 236.183265 641.01186 236.854025 639.818068 238.047817 
C 638.624275 239.24161 637.953515 240.860967 637.953515 242.549245 
C 637.953515 244.237522 638.624275 245.85688 639.818068 247.050672 
C 641.01186 248.244465 642.631218 248.915225 644.319495 248.915225 
z
" style="fill:#cfdaea;stroke:#cfdaea;"/>
    <path clip-path="url(#p18a3922981)" d="M 821.792291 538.377995 
C 824.631073 538.377995 827.353967 537.250135 829.361288 535.242813 
C 831.36861 533.235492 832.49647 530.512597 832.49647 527.673816 
C 832.49647 524.835035 831.36861 522.11214 829.361288 520.104819 
C 827.353967 518.097497 824.631073 516.969637 821.792291 516.969637 
C 818.95351 516.969637 816.230615 518.097497 814.223294 520.104819 
C 812.215972 522.11214 811.088113 524.835035 811.088113 527.673816 
C 811.088113 530.512597 812.215972 533.235492 814.223294 535.242813 
C 816.230615 537.250135 818.95351 538.377995 821.792291 538.377995 
z
" style="fill:#b7cff9;stroke:#b7cff9;"/>
    <path clip-path="url(#p18a3922981)" d="M 621.001914 566.602 
C 622.67847 566.602 624.286585 565.935897 625.47209 564.750392 
C 626.657595 563.564888 627.323698 561.956773 627.323698 560.280216 
C 627.323698 558.603659 626.657595 556.995544 625.47209 555.81004 
C 624.286585 554.624535 622.67847 553.958432 621.001914 553.958432 
C 619.325357 553.958432 617.717242 554.624535 616.531737 555.81004 
C 615.346233 556.995544 614.68013 558.603659 614.68013 560.280216 
C 614.68013 561.956773 615.346233 563.564888 616.531737 564.750392 
C 617.717242 565.935897 619.325357 566.602 621.001914 566.602 
z
" style="fill:#f7bca1;stroke:#f7bca1;"/>
    <path clip-path="url(#p18a3922981)" d="M 476.135958 553.493448 
C 478.419409 553.493448 480.609643 552.586223 482.224287 550.97158 
C 483.838931 549.356936 484.746156 547.166701 484.746156 544.88325 
C 484.746156 542.599799 483.838931 540.409564 482.224287 538.79492 
C 480.609643 537.180277 478.419409 536.273052 476.135958 536.273052 
C 473.852506 536.273052 471.662272 537.180277 470.047628 538.79492 
C 468.432984 540.409564 467.525759 542.599799 467.525759 544.88325 
C 467.525759 547.166701 468.432984 549.356936 470.047628 550.97158 
C 471.662272 552.586223 473.852506 553.493448 476.135958 553.493448 
z
" style="fill:#3b4cc0;stroke:#3b4cc0;"/>
    <path clip-path="url(#p18a3922981)" d="M 597.733297 364.75202 
C 600.751365 364.75202 603.646228 363.552928 605.780325 361.418831 
C 607.914422 359.284734 609.113514 356.389871 609.113514 353.371802 
C 609.113514 350.353733 607.914422 347.458871 605.780325 345.324774 
C 603.646228 343.190677 600.751365 341.991585 597.733297 341.991585 
C 594.715228 341.991585 591.820365 343.190677 589.686268 345.324774 
C 587.552171 347.458871 586.353079 350.353733 586.353079 353.371802 
C 586.353079 356.389871 587.552171 359.284734 589.686268 361.418831 
C 591.820365 363.552928 594.715228 364.75202 597.733297 364.75202 
z
" style="fill:#dbdcde;stroke:#dbdcde;"/>
    <path clip-path="url(#p18a3922981)" d="M 658.942238 404.881118 
C 661.115062 404.881118 663.199185 404.017846 664.735603 402.481427 
C 666.272022 400.945009 667.135294 398.860885 667.135294 396.688062 
C 667.135294 394.515238 666.272022 392.431115 664.735603 390.894696 
C 663.199185 389.358278 661.115062 388.495005 658.942238 388.495005 
C 656.769414 388.495005 654.685291 389.358278 653.148872 390.894696 
C 651.612454 392.431115 650.749182 394.515238 650.749182 396.688062 
C 650.749182 398.860885 651.612454 400.945009 653.148872 402.481427 
C 654.685291 404.017846 656.769414 404.881118 658.942238 404.881118 
z
" style="fill:#b6cefa;stroke:#b6cefa;"/>
    <path clip-path="url(#p18a3922981)" d="M 584.206419 456.728566 
C 585.882976 456.728566 587.491091 456.062463 588.676596 454.876959 
C 589.8621 453.691454 590.528203 452.083339 590.528203 450.406782 
C 590.528203 448.730226 589.8621 447.122111 588.676596 445.936606 
C 587.491091 444.751101 585.882976 444.084998 584.206419 444.084998 
C 582.529863 444.084998 580.921748 444.751101 579.736243 445.936606 
C 578.550738 447.122111 577.884635 448.730226 577.884635 450.406782 
C 577.884635 452.083339 578.550738 453.691454 579.736243 454.876959 
C 580.921748 456.062463 582.529863 456.728566 584.206419 456.728566 
z
" style="fill:#f5c1a9;stroke:#f5c1a9;"/>
    <path clip-path="url(#p18a3922981)" d="M 629.630775 498.960217 
C 631.307332 498.960217 632.915447 498.294114 634.100951 497.108609 
C 635.286456 495.923104 635.952559 494.314989 635.952559 492.638433 
C 635.952559 490.961876 635.286456 489.353761 634.100951 488.168256 
C 632.915447 486.982752 631.307332 486.316649 629.630775 486.316649 
C 627.954218 486.316649 626.346103 486.982752 625.160599 488.168256 
C 623.975094 489.353761 623.308991 490.961876 623.308991 492.638433 
C 623.308991 494.314989 623.975094 495.923104 625.160599 497.108609 
C 626.346103 498.294114 627.954218 498.960217 629.630775 498.960217 
z
" style="fill:#6f92f3;stroke:#6f92f3;"/>
    <path clip-path="url(#p18a3922981)" d="M 701.348536 475.208994 
C 703.370946 475.208994 705.310795 474.405482 706.740855 472.975423 
C 708.170915 471.545363 708.974427 469.605514 708.974427 467.583104 
C 708.974427 465.560694 708.170915 463.620845 706.740855 462.190785 
C 705.310795 460.760725 703.370946 459.957213 701.348536 459.957213 
C 699.326126 459.957213 697.386277 460.760725 695.956217 462.190785 
C 694.526157 463.620845 693.722646 465.560694 693.722646 467.583104 
C 693.722646 469.605514 694.526157 471.545363 695.956217 472.975423 
C 697.386277 474.405482 699.326126 475.208994 701.348536 475.208994 
z
" style="fill:#f7b093;stroke:#f7b093;"/>
    <path clip-path="url(#p18a3922981)" d="M 424.758403 321.821013 
C 426.808053 321.821013 428.77403 321.006679 430.223351 319.557358 
C 431.672672 318.108037 432.487007 316.14206 432.487007 314.09241 
C 432.487007 312.04276 431.672672 310.076783 430.223351 308.627462 
C 428.77403 307.178141 426.808053 306.363807 424.758403 306.363807 
C 422.708754 306.363807 420.742777 307.178141 419.293456 308.627462 
C 417.844134 310.076783 417.0298 312.04276 417.0298 314.09241 
C 417.0298 316.14206 417.844134 318.108037 419.293456 319.557358 
C 420.742777 321.006679 422.708754 321.821013 424.758403 321.821013 
z
" style="fill:#bfd3f6;stroke:#bfd3f6;"/>
    <path clip-path="url(#p18a3922981)" d="M 221.47438 464.340112 
C 224.471139 464.340112 227.345562 463.149487 229.46459 461.030458 
C 231.583619 458.91143 232.774244 456.037007 232.774244 453.040248 
C 232.774244 450.043489 231.583619 447.169066 229.46459 445.050038 
C 227.345562 442.931009 224.471139 441.740385 221.47438 441.740385 
C 218.477621 441.740385 215.603199 442.931009 213.48417 445.050038 
C 211.365142 447.169066 210.174517 450.043489 210.174517 453.040248 
C 210.174517 456.037007 211.365142 458.91143 213.48417 461.030458 
C 215.603199 463.149487 218.477621 464.340112 221.47438 464.340112 
z
" style="fill:#d2dbe8;stroke:#d2dbe8;"/>
    <path clip-path="url(#p18a3922981)" d="M 301.655458 627.325311 
C 303.332015 627.325311 304.94013 626.659208 306.125635 625.473704 
C 307.311139 624.288199 307.977243 622.680084 307.977243 621.003527 
C 307.977243 619.32697 307.311139 617.718855 306.125635 616.533351 
C 304.94013 615.347846 303.332015 614.681743 301.655458 614.681743 
C 299.978902 614.681743 298.370787 615.347846 297.185282 616.533351 
C 295.999778 617.718855 295.333674 619.32697 295.333674 621.003527 
C 295.333674 622.680084 295.999778 624.288199 297.185282 625.473704 
C 298.370787 626.659208 299.978902 627.325311 301.655458 627.325311 
z
" style="fill:#edd1c2;stroke:#edd1c2;"/>
    <path clip-path="url(#p18a3922981)" d="M 624.892593 717.550875 
C 626.56915 717.550875 628.177265 716.884772 629.362769 715.699267 
C 630.548274 714.513763 631.214377 712.905648 631.214377 711.229091 
C 631.214377 709.552534 630.548274 707.944419 629.362769 706.758915 
C 628.177265 705.57341 626.56915 704.907307 624.892593 704.907307 
C 623.216036 704.907307 621.607921 705.57341 620.422416 706.758915 
C 619.236912 707.944419 618.570809 709.552534 618.570809 711.229091 
C 618.570809 712.905648 619.236912 714.513763 620.422416 715.699267 
C 621.607921 716.884772 623.216036 717.550875 624.892593 717.550875 
z
" style="fill:#b40426;stroke:#b40426;"/>
    <path clip-path="url(#p18a3922981)" d="M 619.133243 171.075857 
C 621.696417 171.075857 624.154955 170.057497 625.967393 168.245059 
C 627.779831 166.432621 628.798191 163.974083 628.798191 161.410909 
C 628.798191 158.847735 627.779831 156.389197 625.967393 154.576759 
C 624.154955 152.764321 621.696417 151.745961 619.133243 151.745961 
C 616.570069 151.745961 614.111531 152.764321 612.299093 154.576759 
C 610.486655 156.389197 609.468295 158.847735 609.468295 161.410909 
C 609.468295 163.974083 610.486655 166.432621 612.299093 168.245059 
C 614.111531 170.057497 616.570069 171.075857 619.133243 171.075857 
z
" style="fill:#88abfd;stroke:#88abfd;"/>
    <path clip-path="url(#p18a3922981)" d="M 779.055696 204.886314 
C 781.367576 204.886314 783.585079 203.967794 785.219825 202.333048 
C 786.854572 200.698302 787.773091 198.480799 787.773091 196.168918 
C 787.773091 193.857038 786.854572 191.639535 785.219825 190.004788 
C 783.585079 188.370042 781.367576 187.451522 779.055696 187.451522 
C 776.743815 187.451522 774.526312 188.370042 772.891566 190.004788 
C 771.25682 191.639535 770.3383 193.857038 770.3383 196.168918 
C 770.3383 198.480799 771.25682 200.698302 772.891566 202.333048 
C 774.526312 203.967794 776.743815 204.886314 779.055696 204.886314 
z
" style="fill:#c9d7f0;stroke:#c9d7f0;"/>
    <path clip-path="url(#p18a3922981)" d="M 549.809875 215.677971 
C 551.486432 215.677971 553.094547 215.011868 554.280052 213.826363 
C 555.465556 212.640859 556.131659 211.032744 556.131659 209.356187 
C 556.131659 207.67963 555.465556 206.071515 554.280052 204.886011 
C 553.094547 203.700506 551.486432 203.034403 549.809875 203.034403 
C 548.133319 203.034403 546.525204 203.700506 545.339699 204.886011 
C 544.154194 206.071515 543.488091 207.67963 543.488091 209.356187 
C 543.488091 211.032744 544.154194 212.640859 545.339699 213.826363 
C 546.525204 215.011868 548.133319 215.677971 549.809875 215.677971 
z
" style="fill:#f7a889;stroke:#f7a889;"/>
    <path clip-path="url(#p18a3922981)" d="M 359.072149 382.755162 
C 360.398164 382.755162 361.670048 382.228331 362.607683 381.290696 
C 363.545317 380.353061 364.072149 379.081178 364.072149 377.755162 
C 364.072149 376.429147 363.545317 375.157263 362.607683 374.219628 
C 361.670048 373.281994 360.398164 372.755162 359.072149 372.755162 
C 357.746133 372.755162 356.47425 373.281994 355.536615 374.219628 
C 354.59898 375.157263 354.072149 376.429147 354.072149 377.755162 
C 354.072149 379.081178 354.59898 380.353061 355.536615 381.290696 
C 356.47425 382.228331 357.746133 382.755162 359.072149 382.755162 
z
" style="fill:#e0654f;stroke:#e0654f;"/>
    <path clip-path="url(#p18a3922981)" d="M 882.844728 346.961308 
C 884.900982 346.961308 886.873293 346.14435 888.327284 344.69036 
C 889.781274 343.236369 890.598232 341.264058 890.598232 339.207805 
C 890.598232 337.151551 889.781274 335.17924 888.327284 333.725249 
C 886.873293 332.271259 884.900982 331.454301 882.844728 331.454301 
C 880.788475 331.454301 878.816164 332.271259 877.362173 333.725249 
C 875.908183 335.17924 875.091225 337.151551 875.091225 339.207805 
C 875.091225 341.264058 875.908183 343.236369 877.362173 344.69036 
C 878.816164 346.14435 880.788475 346.961308 882.844728 346.961308 
z
" style="fill:#c6d6f1;stroke:#c6d6f1;"/>
   </g>
   <g id="text_1">
    <g clip-path="url(#p18a3922981)">
     <!-- DLD -->
     <g transform="translate(679.375028 327.43913)scale(0.1 -0.1)">
      <defs>
       <path d="M 19.671875 64.796875 
L 19.671875 8.109375 
L 31.59375 8.109375 
Q 46.6875 8.109375 53.6875 14.9375 
Q 60.6875 21.78125 60.6875 36.53125 
Q 60.6875 51.171875 53.6875 57.984375 
Q 46.6875 64.796875 31.59375 64.796875 
z
M 9.8125 72.90625 
L 30.078125 72.90625 
Q 51.265625 72.90625 61.171875 64.09375 
Q 71.09375 55.28125 71.09375 36.53125 
Q 71.09375 17.671875 61.125 8.828125 
Q 51.171875 0 30.078125 0 
L 9.8125 0 
z
" id="DejaVuSans-68"/>
       <path d="M 9.8125 72.90625 
L 19.671875 72.90625 
L 19.671875 8.296875 
L 55.171875 8.296875 
L 55.171875 0 
L 9.8125 0 
z
" id="DejaVuSans-76"/>
      </defs>
      <use xlink:href="#DejaVuSans-68"/>
      <use x="77.001953" xlink:href="#DejaVuSans-76"/>
      <use x="132.714844" xlink:href="#DejaVuSans-68"/>
     </g>
    </g>
   </g>
   <g id="text_2">
    <g clip-path="url(#p18a3922981)">
     <!-- HMGCL -->
     <g transform="translate(652.659571 481.381165)scale(0.1 -0.1)">
      <defs>
       <path d="M 9.8125 72.90625 
L 19.671875 72.90625 
L 19.671875 43.015625 
L 55.515625 43.015625 
L 55.515625 72.90625 
L 65.375 72.90625 
L 65.375 0 
L 55.515625 0 
L 55.515625 34.71875 
L 19.671875 34.71875 
L 19.671875 0 
L 9.8125 0 
z
" id="DejaVuSans-72"/>
       <path d="M 9.8125 72.90625 
L 24.515625 72.90625 
L 43.109375 23.296875 
L 61.8125 72.90625 
L 76.515625 72.90625 
L 76.515625 0 
L 66.890625 0 
L 66.890625 64.015625 
L 48.09375 14.015625 
L 38.1875 14.015625 
L 19.390625 64.015625 
L 19.390625 0 
L 9.8125 0 
z
" id="DejaVuSans-77"/>
       <path d="M 59.515625 10.40625 
L 59.515625 29.984375 
L 43.40625 29.984375 
L 43.40625 38.09375 
L 69.28125 38.09375 
L 69.28125 6.78125 
Q 63.578125 2.734375 56.6875 0.65625 
Q 49.8125 -1.421875 42 -1.421875 
Q 24.90625 -1.421875 15.25 8.5625 
Q 5.609375 18.5625 5.609375 36.375 
Q 5.609375 54.25 15.25 64.234375 
Q 24.90625 74.21875 42 74.21875 
Q 49.125 74.21875 55.546875 72.453125 
Q 61.96875 70.703125 67.390625 67.28125 
L 67.390625 56.78125 
Q 61.921875 61.421875 55.765625 63.765625 
Q 49.609375 66.109375 42.828125 66.109375 
Q 29.4375 66.109375 22.71875 58.640625 
Q 16.015625 51.171875 16.015625 36.375 
Q 16.015625 21.625 22.71875 14.15625 
Q 29.4375 6.6875 42.828125 6.6875 
Q 48.046875 6.6875 52.140625 7.59375 
Q 56.25 8.5 59.515625 10.40625 
z
" id="DejaVuSans-71"/>
       <path d="M 64.40625 67.28125 
L 64.40625 56.890625 
Q 59.421875 61.53125 53.78125 63.8125 
Q 48.140625 66.109375 41.796875 66.109375 
Q 29.296875 66.109375 22.65625 58.46875 
Q 16.015625 50.828125 16.015625 36.375 
Q 16.015625 21.96875 22.65625 14.328125 
Q 29.296875 6.6875 41.796875 6.6875 
Q 48.140625 6.6875 53.78125 8.984375 
Q 59.421875 11.28125 64.40625 15.921875 
L 64.40625 5.609375 
Q 59.234375 2.09375 53.4375 0.328125 
Q 47.65625 -1.421875 41.21875 -1.421875 
Q 24.65625 -1.421875 15.125 8.703125 
Q 5.609375 18.84375 5.609375 36.375 
Q 5.609375 53.953125 15.125 64.078125 
Q 24.65625 74.21875 41.21875 74.21875 
Q 47.75 74.21875 53.53125 72.484375 
Q 59.328125 70.75 64.40625 67.28125 
z
" id="DejaVuSans-67"/>
      </defs>
      <use xlink:href="#DejaVuSans-72"/>
      <use x="75.195312" xlink:href="#DejaVuSans-77"/>
      <use x="161.474609" xlink:href="#DejaVuSans-71"/>
      <use x="238.964844" xlink:href="#DejaVuSans-67"/>
      <use x="308.789062" xlink:href="#DejaVuSans-76"/>
     </g>
    </g>
   </g>
   <g id="text_3">
    <g clip-path="url(#p18a3922981)">
     <!-- IVD -->
     <g transform="translate(585.746246 616.630692)scale(0.1 -0.1)">
      <defs>
       <path d="M 9.8125 72.90625 
L 19.671875 72.90625 
L 19.671875 0 
L 9.8125 0 
z
" id="DejaVuSans-73"/>
       <path d="M 28.609375 0 
L 0.78125 72.90625 
L 11.078125 72.90625 
L 34.1875 11.53125 
L 57.328125 72.90625 
L 67.578125 72.90625 
L 39.796875 0 
z
" id="DejaVuSans-86"/>
      </defs>
      <use xlink:href="#DejaVuSans-73"/>
      <use x="29.492188" xlink:href="#DejaVuSans-86"/>
      <use x="97.900391" xlink:href="#DejaVuSans-68"/>
     </g>
    </g>
   </g>
   <g id="text_4">
    <g clip-path="url(#p18a3922981)">
     <!-- DBT -->
     <g transform="translate(273.369027 345.21609)scale(0.1 -0.1)">
      <defs>
       <path d="M 19.671875 34.8125 
L 19.671875 8.109375 
L 35.5 8.109375 
Q 43.453125 8.109375 47.28125 11.40625 
Q 51.125 14.703125 51.125 21.484375 
Q 51.125 28.328125 47.28125 31.5625 
Q 43.453125 34.8125 35.5 34.8125 
z
M 19.671875 64.796875 
L 19.671875 42.828125 
L 34.28125 42.828125 
Q 41.5 42.828125 45.03125 45.53125 
Q 48.578125 48.25 48.578125 53.8125 
Q 48.578125 59.328125 45.03125 62.0625 
Q 41.5 64.796875 34.28125 64.796875 
z
M 9.8125 72.90625 
L 35.015625 72.90625 
Q 46.296875 72.90625 52.390625 68.21875 
Q 58.5 63.53125 58.5 54.890625 
Q 58.5 48.1875 55.375 44.234375 
Q 52.25 40.28125 46.1875 39.3125 
Q 53.46875 37.75 57.5 32.78125 
Q 61.53125 27.828125 61.53125 20.40625 
Q 61.53125 10.640625 54.890625 5.3125 
Q 48.25 0 35.984375 0 
L 9.8125 0 
z
" id="DejaVuSans-66"/>
       <path d="M -0.296875 72.90625 
L 61.375 72.90625 
L 61.375 64.59375 
L 35.5 64.59375 
L 35.5 0 
L 25.59375 0 
L 25.59375 64.59375 
L -0.296875 64.59375 
z
" id="DejaVuSans-84"/>
      </defs>
      <use xlink:href="#DejaVuSans-68"/>
      <use x="77.001953" xlink:href="#DejaVuSans-66"/>
      <use x="145.605469" xlink:href="#DejaVuSans-84"/>
     </g>
    </g>
   </g>
   <g id="text_5">
    <g clip-path="url(#p18a3922981)">
     <!-- MCEE -->
     <g transform="translate(321.883661 591.135923)scale(0.1 -0.1)">
      <defs>
       <path d="M 9.8125 72.90625 
L 55.90625 72.90625 
L 55.90625 64.59375 
L 19.671875 64.59375 
L 19.671875 43.015625 
L 54.390625 43.015625 
L 54.390625 34.71875 
L 19.671875 34.71875 
L 19.671875 8.296875 
L 56.78125 8.296875 
L 56.78125 0 
L 9.8125 0 
z
" id="DejaVuSans-69"/>
      </defs>
      <use xlink:href="#DejaVuSans-77"/>
      <use x="86.279297" xlink:href="#DejaVuSans-67"/>
      <use x="156.103516" xlink:href="#DejaVuSans-69"/>
      <use x="219.287109" xlink:href="#DejaVuSans-69"/>
     </g>
    </g>
   </g>
   <g id="text_6">
    <g clip-path="url(#p18a3922981)">
     <!-- HIBCH -->
     <g transform="translate(763.558981 570.547715)scale(0.1 -0.1)">
      <use xlink:href="#DejaVuSans-72"/>
      <use x="75.195312" xlink:href="#DejaVuSans-73"/>
      <use x="104.6875" xlink:href="#DejaVuSans-66"/>
      <use x="171.541016" xlink:href="#DejaVuSans-67"/>
      <use x="241.365234" xlink:href="#DejaVuSans-72"/>
     </g>
    </g>
   </g>
   <g id="text_7">
    <g clip-path="url(#p18a3922981)">
     <!-- HSD17B10 -->
     <g transform="translate(932.385776 283.021322)scale(0.1 -0.1)">
      <defs>
       <path d="M 53.515625 70.515625 
L 53.515625 60.890625 
Q 47.90625 63.578125 42.921875 64.890625 
Q 37.9375 66.21875 33.296875 66.21875 
Q 25.25 66.21875 20.875 63.09375 
Q 16.5 59.96875 16.5 54.203125 
Q 16.5 49.359375 19.40625 46.890625 
Q 22.3125 44.4375 30.421875 42.921875 
L 36.375 41.703125 
Q 47.40625 39.59375 52.65625 34.296875 
Q 57.90625 29 57.90625 20.125 
Q 57.90625 9.515625 50.796875 4.046875 
Q 43.703125 -1.421875 29.984375 -1.421875 
Q 24.8125 -1.421875 18.96875 -0.25 
Q 13.140625 0.921875 6.890625 3.21875 
L 6.890625 13.375 
Q 12.890625 10.015625 18.65625 8.296875 
Q 24.421875 6.59375 29.984375 6.59375 
Q 38.421875 6.59375 43.015625 9.90625 
Q 47.609375 13.234375 47.609375 19.390625 
Q 47.609375 24.75 44.3125 27.78125 
Q 41.015625 30.8125 33.5 32.328125 
L 27.484375 33.5 
Q 16.453125 35.6875 11.515625 40.375 
Q 6.59375 45.0625 6.59375 53.421875 
Q 6.59375 63.09375 13.40625 68.65625 
Q 20.21875 74.21875 32.171875 74.21875 
Q 37.3125 74.21875 42.625 73.28125 
Q 47.953125 72.359375 53.515625 70.515625 
z
" id="DejaVuSans-83"/>
       <path d="M 12.40625 8.296875 
L 28.515625 8.296875 
L 28.515625 63.921875 
L 10.984375 60.40625 
L 10.984375 69.390625 
L 28.421875 72.90625 
L 38.28125 72.90625 
L 38.28125 8.296875 
L 54.390625 8.296875 
L 54.390625 0 
L 12.40625 0 
z
" id="DejaVuSans-49"/>
       <path d="M 8.203125 72.90625 
L 55.078125 72.90625 
L 55.078125 68.703125 
L 28.609375 0 
L 18.3125 0 
L 43.21875 64.59375 
L 8.203125 64.59375 
z
" id="DejaVuSans-55"/>
       <path d="M 31.78125 66.40625 
Q 24.171875 66.40625 20.328125 58.90625 
Q 16.5 51.421875 16.5 36.375 
Q 16.5 21.390625 20.328125 13.890625 
Q 24.171875 6.390625 31.78125 6.390625 
Q 39.453125 6.390625 43.28125 13.890625 
Q 47.125 21.390625 47.125 36.375 
Q 47.125 51.421875 43.28125 58.90625 
Q 39.453125 66.40625 31.78125 66.40625 
z
M 31.78125 74.21875 
Q 44.046875 74.21875 50.515625 64.515625 
Q 56.984375 54.828125 56.984375 36.375 
Q 56.984375 17.96875 50.515625 8.265625 
Q 44.046875 -1.421875 31.78125 -1.421875 
Q 19.53125 -1.421875 13.0625 8.265625 
Q 6.59375 17.96875 6.59375 36.375 
Q 6.59375 54.828125 13.0625 64.515625 
Q 19.53125 74.21875 31.78125 74.21875 
z
" id="DejaVuSans-48"/>
      </defs>
      <use xlink:href="#DejaVuSans-72"/>
      <use x="75.195312" xlink:href="#DejaVuSans-83"/>
      <use x="138.671875" xlink:href="#DejaVuSans-68"/>
      <use x="215.673828" xlink:href="#DejaVuSans-49"/>
      <use x="279.296875" xlink:href="#DejaVuSans-55"/>
      <use x="342.919922" xlink:href="#DejaVuSans-66"/>
      <use x="411.523438" xlink:href="#DejaVuSans-49"/>
      <use x="475.146484" xlink:href="#DejaVuSans-48"/>
     </g>
    </g>
   </g>
   <g id="text_8">
    <g clip-path="url(#p18a3922981)">
     <!-- ACADM -->
     <g transform="translate(492.118488 520.267199)scale(0.1 -0.1)">
      <defs>
       <path d="M 34.1875 63.1875 
L 20.796875 26.90625 
L 47.609375 26.90625 
z
M 28.609375 72.90625 
L 39.796875 72.90625 
L 67.578125 0 
L 57.328125 0 
L 50.6875 18.703125 
L 17.828125 18.703125 
L 11.1875 0 
L 0.78125 0 
z
" id="DejaVuSans-65"/>
      </defs>
      <use xlink:href="#DejaVuSans-65"/>
      <use x="66.658203" xlink:href="#DejaVuSans-67"/>
      <use x="136.482422" xlink:href="#DejaVuSans-65"/>
      <use x="204.890625" xlink:href="#DejaVuSans-68"/>
      <use x="281.892578" xlink:href="#DejaVuSans-77"/>
     </g>
    </g>
   </g>
   <g id="text_9">
    <g clip-path="url(#p18a3922981)">
     <!-- ACADS -->
     <g transform="translate(416.856854 213.643061)scale(0.1 -0.1)">
      <use xlink:href="#DejaVuSans-65"/>
      <use x="66.658203" xlink:href="#DejaVuSans-67"/>
      <use x="136.482422" xlink:href="#DejaVuSans-65"/>
      <use x="204.890625" xlink:href="#DejaVuSans-68"/>
      <use x="281.892578" xlink:href="#DejaVuSans-83"/>
     </g>
    </g>
   </g>
   <g id="text_10">
    <g clip-path="url(#p18a3922981)">
     <!-- ACAD8 -->
     <g transform="translate(548.092226 266.615755)scale(0.1 -0.1)">
      <defs>
       <path d="M 31.78125 34.625 
Q 24.75 34.625 20.71875 30.859375 
Q 16.703125 27.09375 16.703125 20.515625 
Q 16.703125 13.921875 20.71875 10.15625 
Q 24.75 6.390625 31.78125 6.390625 
Q 38.8125 6.390625 42.859375 10.171875 
Q 46.921875 13.96875 46.921875 20.515625 
Q 46.921875 27.09375 42.890625 30.859375 
Q 38.875 34.625 31.78125 34.625 
z
M 21.921875 38.8125 
Q 15.578125 40.375 12.03125 44.71875 
Q 8.5 49.078125 8.5 55.328125 
Q 8.5 64.0625 14.71875 69.140625 
Q 20.953125 74.21875 31.78125 74.21875 
Q 42.671875 74.21875 48.875 69.140625 
Q 55.078125 64.0625 55.078125 55.328125 
Q 55.078125 49.078125 51.53125 44.71875 
Q 48 40.375 41.703125 38.8125 
Q 48.828125 37.15625 52.796875 32.3125 
Q 56.78125 27.484375 56.78125 20.515625 
Q 56.78125 9.90625 50.3125 4.234375 
Q 43.84375 -1.421875 31.78125 -1.421875 
Q 19.734375 -1.421875 13.25 4.234375 
Q 6.78125 9.90625 6.78125 20.515625 
Q 6.78125 27.484375 10.78125 32.3125 
Q 14.796875 37.15625 21.921875 38.8125 
z
M 18.3125 54.390625 
Q 18.3125 48.734375 21.84375 45.5625 
Q 25.390625 42.390625 31.78125 42.390625 
Q 38.140625 42.390625 41.71875 45.5625 
Q 45.3125 48.734375 45.3125 54.390625 
Q 45.3125 60.0625 41.71875 63.234375 
Q 38.140625 66.40625 31.78125 66.40625 
Q 25.390625 66.40625 21.84375 63.234375 
Q 18.3125 60.0625 18.3125 54.390625 
z
" id="DejaVuSans-56"/>
      </defs>
      <use xlink:href="#DejaVuSans-65"/>
      <use x="66.658203" xlink:href="#DejaVuSans-67"/>
      <use x="136.482422" xlink:href="#DejaVuSans-65"/>
      <use x="204.890625" xlink:href="#DejaVuSans-68"/>
      <use x="281.892578" xlink:href="#DejaVuSans-56"/>
     </g>
    </g>
   </g>
   <g id="text_11">
    <g clip-path="url(#p18a3922981)">
     <!-- AACS -->
     <g transform="translate(338.572979 274.233681)scale(0.1 -0.1)">
      <use xlink:href="#DejaVuSans-65"/>
      <use x="71.158203" xlink:href="#DejaVuSans-65"/>
      <use x="137.816406" xlink:href="#DejaVuSans-67"/>
      <use x="207.640625" xlink:href="#DejaVuSans-83"/>
     </g>
    </g>
   </g>
   <g id="text_12">
    <g clip-path="url(#p18a3922981)">
     <!-- BCKDHA -->
     <g transform="translate(762.870375 393.986846)scale(0.1 -0.1)">
      <defs>
       <path d="M 9.8125 72.90625 
L 19.671875 72.90625 
L 19.671875 42.09375 
L 52.390625 72.90625 
L 65.09375 72.90625 
L 28.90625 38.921875 
L 67.671875 0 
L 54.6875 0 
L 19.671875 35.109375 
L 19.671875 0 
L 9.8125 0 
z
" id="DejaVuSans-75"/>
      </defs>
      <use xlink:href="#DejaVuSans-66"/>
      <use x="66.853516" xlink:href="#DejaVuSans-67"/>
      <use x="136.677734" xlink:href="#DejaVuSans-75"/>
      <use x="202.253906" xlink:href="#DejaVuSans-68"/>
      <use x="279.255859" xlink:href="#DejaVuSans-72"/>
      <use x="354.451172" xlink:href="#DejaVuSans-65"/>
     </g>
    </g>
   </g>
   <g id="text_13">
    <g clip-path="url(#p18a3922981)">
     <!-- BCKDHB -->
     <g transform="translate(623.165589 245.30862)scale(0.1 -0.1)">
      <use xlink:href="#DejaVuSans-66"/>
      <use x="66.853516" xlink:href="#DejaVuSans-67"/>
      <use x="136.677734" xlink:href="#DejaVuSans-75"/>
      <use x="202.253906" xlink:href="#DejaVuSans-68"/>
      <use x="279.255859" xlink:href="#DejaVuSans-72"/>
      <use x="354.451172" xlink:href="#DejaVuSans-66"/>
     </g>
    </g>
   </g>
   <g id="text_14">
    <g clip-path="url(#p18a3922981)">
     <!-- AUH -->
     <g transform="translate(810.952447 530.433191)scale(0.1 -0.1)">
      <defs>
       <path d="M 8.6875 72.90625 
L 18.609375 72.90625 
L 18.609375 28.609375 
Q 18.609375 16.890625 22.84375 11.734375 
Q 27.09375 6.59375 36.625 6.59375 
Q 46.09375 6.59375 50.34375 11.734375 
Q 54.59375 16.890625 54.59375 28.609375 
L 54.59375 72.90625 
L 64.5 72.90625 
L 64.5 27.390625 
Q 64.5 13.140625 57.4375 5.859375 
Q 50.390625 -1.421875 36.625 -1.421875 
Q 22.796875 -1.421875 15.734375 5.859375 
Q 8.6875 13.140625 8.6875 27.390625 
z
" id="DejaVuSans-85"/>
      </defs>
      <use xlink:href="#DejaVuSans-65"/>
      <use x="68.408203" xlink:href="#DejaVuSans-85"/>
      <use x="141.601562" xlink:href="#DejaVuSans-72"/>
     </g>
    </g>
   </g>
   <g id="text_15">
    <g clip-path="url(#p18a3922981)">
     <!-- MCCC1 -->
     <g transform="translate(603.032382 563.039591)scale(0.1 -0.1)">
      <use xlink:href="#DejaVuSans-77"/>
      <use x="86.279297" xlink:href="#DejaVuSans-67"/>
      <use x="156.103516" xlink:href="#DejaVuSans-67"/>
      <use x="225.927734" xlink:href="#DejaVuSans-67"/>
      <use x="295.751953" xlink:href="#DejaVuSans-49"/>
     </g>
    </g>
   </g>
   <g id="text_16">
    <g clip-path="url(#p18a3922981)">
     <!-- MCCC2 -->
     <g transform="translate(458.166426 547.642625)scale(0.1 -0.1)">
      <defs>
       <path d="M 19.1875 8.296875 
L 53.609375 8.296875 
L 53.609375 0 
L 7.328125 0 
L 7.328125 8.296875 
Q 12.9375 14.109375 22.625 23.890625 
Q 32.328125 33.6875 34.8125 36.53125 
Q 39.546875 41.84375 41.421875 45.53125 
Q 43.3125 49.21875 43.3125 52.78125 
Q 43.3125 58.59375 39.234375 62.25 
Q 35.15625 65.921875 28.609375 65.921875 
Q 23.96875 65.921875 18.8125 64.3125 
Q 13.671875 62.703125 7.8125 59.421875 
L 7.8125 69.390625 
Q 13.765625 71.78125 18.9375 73 
Q 24.125 74.21875 28.421875 74.21875 
Q 39.75 74.21875 46.484375 68.546875 
Q 53.21875 62.890625 53.21875 53.421875 
Q 53.21875 48.921875 51.53125 44.890625 
Q 49.859375 40.875 45.40625 35.40625 
Q 44.1875 33.984375 37.640625 27.21875 
Q 31.109375 20.453125 19.1875 8.296875 
z
" id="DejaVuSans-50"/>
      </defs>
      <use xlink:href="#DejaVuSans-77"/>
      <use x="86.279297" xlink:href="#DejaVuSans-67"/>
      <use x="156.103516" xlink:href="#DejaVuSans-67"/>
      <use x="225.927734" xlink:href="#DejaVuSans-67"/>
      <use x="295.751953" xlink:href="#DejaVuSans-50"/>
     </g>
    </g>
   </g>
   <g id="text_17">
    <g clip-path="url(#p18a3922981)">
     <!-- HADHA -->
     <g transform="translate(579.522359 356.131177)scale(0.1 -0.1)">
      <use xlink:href="#DejaVuSans-72"/>
      <use x="75.195312" xlink:href="#DejaVuSans-65"/>
      <use x="143.603516" xlink:href="#DejaVuSans-68"/>
      <use x="220.605469" xlink:href="#DejaVuSans-72"/>
      <use x="295.800781" xlink:href="#DejaVuSans-65"/>
     </g>
    </g>
   </g>
   <g id="text_18">
    <g clip-path="url(#p18a3922981)">
     <!-- ECHS1 -->
     <g transform="translate(642.175831 399.447437)scale(0.1 -0.1)">
      <use xlink:href="#DejaVuSans-69"/>
      <use x="63.183594" xlink:href="#DejaVuSans-67"/>
      <use x="133.007812" xlink:href="#DejaVuSans-72"/>
      <use x="208.203125" xlink:href="#DejaVuSans-83"/>
      <use x="271.679688" xlink:href="#DejaVuSans-49"/>
     </g>
    </g>
   </g>
   <g id="text_19">
    <g clip-path="url(#p18a3922981)">
     <!-- ACAA1 -->
     <g transform="translate(567.222826 453.166157)scale(0.1 -0.1)">
      <use xlink:href="#DejaVuSans-65"/>
      <use x="66.658203" xlink:href="#DejaVuSans-67"/>
      <use x="136.482422" xlink:href="#DejaVuSans-65"/>
      <use x="207.640625" xlink:href="#DejaVuSans-65"/>
      <use x="276.048828" xlink:href="#DejaVuSans-49"/>
     </g>
    </g>
   </g>
   <g id="text_20">
    <g clip-path="url(#p18a3922981)">
     <!-- ACAA2 -->
     <g transform="translate(612.647181 495.397808)scale(0.1 -0.1)">
      <use xlink:href="#DejaVuSans-65"/>
      <use x="66.658203" xlink:href="#DejaVuSans-67"/>
      <use x="136.482422" xlink:href="#DejaVuSans-65"/>
      <use x="207.640625" xlink:href="#DejaVuSans-65"/>
      <use x="276.048828" xlink:href="#DejaVuSans-50"/>
     </g>
    </g>
   </g>
   <g id="text_21">
    <g clip-path="url(#p18a3922981)">
     <!-- HADHB -->
     <g transform="translate(683.127442 470.342479)scale(0.1 -0.1)">
      <use xlink:href="#DejaVuSans-72"/>
      <use x="75.195312" xlink:href="#DejaVuSans-65"/>
      <use x="143.603516" xlink:href="#DejaVuSans-68"/>
      <use x="220.605469" xlink:href="#DejaVuSans-72"/>
      <use x="295.800781" xlink:href="#DejaVuSans-66"/>
     </g>
    </g>
   </g>
   <g id="text_22">
    <g clip-path="url(#p18a3922981)">
     <!-- ACADSB -->
     <g transform="translate(404.059185 316.851785)scale(0.1 -0.1)">
      <use xlink:href="#DejaVuSans-65"/>
      <use x="66.658203" xlink:href="#DejaVuSans-67"/>
      <use x="136.482422" xlink:href="#DejaVuSans-65"/>
      <use x="204.890625" xlink:href="#DejaVuSans-68"/>
      <use x="281.892578" xlink:href="#DejaVuSans-83"/>
      <use x="345.369141" xlink:href="#DejaVuSans-66"/>
     </g>
    </g>
   </g>
   <g id="text_23">
    <g clip-path="url(#p18a3922981)">
     <!-- MUT -->
     <g transform="translate(210.447036 455.799623)scale(0.1 -0.1)">
      <use xlink:href="#DejaVuSans-77"/>
      <use x="86.279297" xlink:href="#DejaVuSans-85"/>
      <use x="159.472656" xlink:href="#DejaVuSans-84"/>
     </g>
    </g>
   </g>
   <g id="text_24">
    <g clip-path="url(#p18a3922981)">
     <!-- PCCA -->
     <g transform="translate(288.23749 623.762902)scale(0.1 -0.1)">
      <defs>
       <path d="M 19.671875 64.796875 
L 19.671875 37.40625 
L 32.078125 37.40625 
Q 38.96875 37.40625 42.71875 40.96875 
Q 46.484375 44.53125 46.484375 51.125 
Q 46.484375 57.671875 42.71875 61.234375 
Q 38.96875 64.796875 32.078125 64.796875 
z
M 9.8125 72.90625 
L 32.078125 72.90625 
Q 44.34375 72.90625 50.609375 67.359375 
Q 56.890625 61.8125 56.890625 51.125 
Q 56.890625 40.328125 50.609375 34.8125 
Q 44.34375 29.296875 32.078125 29.296875 
L 19.671875 29.296875 
L 19.671875 0 
L 9.8125 0 
z
" id="DejaVuSans-80"/>
      </defs>
      <use xlink:href="#DejaVuSans-80"/>
      <use x="60.302734" xlink:href="#DejaVuSans-67"/>
      <use x="130.126953" xlink:href="#DejaVuSans-67"/>
      <use x="199.951172" xlink:href="#DejaVuSans-65"/>
     </g>
    </g>
   </g>
   <g id="text_25">
    <g clip-path="url(#p18a3922981)">
     <!-- PCCB -->
     <g transform="translate(611.464468 713.988466)scale(0.1 -0.1)">
      <use xlink:href="#DejaVuSans-80"/>
      <use x="60.302734" xlink:href="#DejaVuSans-67"/>
      <use x="130.126953" xlink:href="#DejaVuSans-67"/>
      <use x="199.951172" xlink:href="#DejaVuSans-66"/>
     </g>
    </g>
   </g>
   <g id="text_26">
    <g clip-path="url(#p18a3922981)">
     <!-- ALDH9A1 -->
     <g transform="translate(595.534024 164.170284)scale(0.1 -0.1)">
      <defs>
       <path d="M 10.984375 1.515625 
L 10.984375 10.5 
Q 14.703125 8.734375 18.5 7.8125 
Q 22.3125 6.890625 25.984375 6.890625 
Q 35.75 6.890625 40.890625 13.453125 
Q 46.046875 20.015625 46.78125 33.40625 
Q 43.953125 29.203125 39.59375 26.953125 
Q 35.25 24.703125 29.984375 24.703125 
Q 19.046875 24.703125 12.671875 31.3125 
Q 6.296875 37.9375 6.296875 49.421875 
Q 6.296875 60.640625 12.9375 67.421875 
Q 19.578125 74.21875 30.609375 74.21875 
Q 43.265625 74.21875 49.921875 64.515625 
Q 56.59375 54.828125 56.59375 36.375 
Q 56.59375 19.140625 48.40625 8.859375 
Q 40.234375 -1.421875 26.421875 -1.421875 
Q 22.703125 -1.421875 18.890625 -0.6875 
Q 15.09375 0.046875 10.984375 1.515625 
z
M 30.609375 32.421875 
Q 37.25 32.421875 41.125 36.953125 
Q 45.015625 41.5 45.015625 49.421875 
Q 45.015625 57.28125 41.125 61.84375 
Q 37.25 66.40625 30.609375 66.40625 
Q 23.96875 66.40625 20.09375 61.84375 
Q 16.21875 57.28125 16.21875 49.421875 
Q 16.21875 41.5 20.09375 36.953125 
Q 23.96875 32.421875 30.609375 32.421875 
z
" id="DejaVuSans-57"/>
      </defs>
      <use xlink:href="#DejaVuSans-65"/>
      <use x="68.408203" xlink:href="#DejaVuSans-76"/>
      <use x="124.121094" xlink:href="#DejaVuSans-68"/>
      <use x="201.123047" xlink:href="#DejaVuSans-72"/>
      <use x="276.318359" xlink:href="#DejaVuSans-57"/>
      <use x="339.941406" xlink:href="#DejaVuSans-65"/>
      <use x="408.349609" xlink:href="#DejaVuSans-49"/>
     </g>
    </g>
   </g>
   <g id="text_27">
    <g clip-path="url(#p18a3922981)">
     <!-- ABAT -->
     <g transform="translate(766.118196 198.928293)scale(0.1 -0.1)">
      <use xlink:href="#DejaVuSans-65"/>
      <use x="68.408203" xlink:href="#DejaVuSans-66"/>
      <use x="137.011719" xlink:href="#DejaVuSans-65"/>
      <use x="197.669922" xlink:href="#DejaVuSans-84"/>
     </g>
    </g>
   </g>
   <g id="text_28">
    <g clip-path="url(#p18a3922981)">
     <!-- HADH -->
     <g transform="translate(535.01925 212.115562)scale(0.1 -0.1)">
      <use xlink:href="#DejaVuSans-72"/>
      <use x="75.195312" xlink:href="#DejaVuSans-65"/>
      <use x="143.603516" xlink:href="#DejaVuSans-68"/>
      <use x="220.605469" xlink:href="#DejaVuSans-72"/>
     </g>
    </g>
   </g>
   <g id="text_29">
    <g clip-path="url(#p18a3922981)">
     <!-- ACSF3 -->
     <g transform="translate(343.01668 380.514537)scale(0.1 -0.1)">
      <defs>
       <path d="M 9.8125 72.90625 
L 51.703125 72.90625 
L 51.703125 64.59375 
L 19.671875 64.59375 
L 19.671875 43.109375 
L 48.578125 43.109375 
L 48.578125 34.8125 
L 19.671875 34.8125 
L 19.671875 0 
L 9.8125 0 
z
" id="DejaVuSans-70"/>
       <path d="M 40.578125 39.3125 
Q 47.65625 37.796875 51.625 33 
Q 55.609375 28.21875 55.609375 21.1875 
Q 55.609375 10.40625 48.1875 4.484375 
Q 40.765625 -1.421875 27.09375 -1.421875 
Q 22.515625 -1.421875 17.65625 -0.515625 
Q 12.796875 0.390625 7.625 2.203125 
L 7.625 11.71875 
Q 11.71875 9.328125 16.59375 8.109375 
Q 21.484375 6.890625 26.8125 6.890625 
Q 36.078125 6.890625 40.9375 10.546875 
Q 45.796875 14.203125 45.796875 21.1875 
Q 45.796875 27.640625 41.28125 31.265625 
Q 36.765625 34.90625 28.71875 34.90625 
L 20.21875 34.90625 
L 20.21875 43.015625 
L 29.109375 43.015625 
Q 36.375 43.015625 40.234375 45.921875 
Q 44.09375 48.828125 44.09375 54.296875 
Q 44.09375 59.90625 40.109375 62.90625 
Q 36.140625 65.921875 28.71875 65.921875 
Q 24.65625 65.921875 20.015625 65.03125 
Q 15.375 64.15625 9.8125 62.3125 
L 9.8125 71.09375 
Q 15.4375 72.65625 20.34375 73.4375 
Q 25.25 74.21875 29.59375 74.21875 
Q 40.828125 74.21875 47.359375 69.109375 
Q 53.90625 64.015625 53.90625 55.328125 
Q 53.90625 49.265625 50.4375 45.09375 
Q 46.96875 40.921875 40.578125 39.3125 
z
" id="DejaVuSans-51"/>
      </defs>
      <use xlink:href="#DejaVuSans-65"/>
      <use x="66.658203" xlink:href="#DejaVuSans-67"/>
      <use x="136.482422" xlink:href="#DejaVuSans-83"/>
      <use x="199.958984" xlink:href="#DejaVuSans-70"/>
      <use x="257.478516" xlink:href="#DejaVuSans-51"/>
     </g>
    </g>
   </g>
   <g id="text_30">
    <g clip-path="url(#p18a3922981)">
     <!-- HIBADH -->
     <g transform="translate(863.148635 341.96718)scale(0.1 -0.1)">
      <use xlink:href="#DejaVuSans-72"/>
      <use x="75.195312" xlink:href="#DejaVuSans-73"/>
      <use x="104.6875" xlink:href="#DejaVuSans-66"/>
      <use x="173.291016" xlink:href="#DejaVuSans-65"/>
      <use x="241.699219" xlink:href="#DejaVuSans-68"/>
      <use x="318.701172" xlink:href="#DejaVuSans-72"/>
     </g>
    </g>
   </g>
   <g id="text_31">
    <!-- Importance Score and Relative Abundance for network hsa00280 for dataset atherosclerosis -->
    <g transform="translate(312.388125 97.68)scale(0.12 -0.12)">
     <defs>
      <path d="M 52 44.1875 
Q 55.375 50.25 60.0625 53.125 
Q 64.75 56 71.09375 56 
Q 79.640625 56 84.28125 50.015625 
Q 88.921875 44.046875 88.921875 33.015625 
L 88.921875 0 
L 79.890625 0 
L 79.890625 32.71875 
Q 79.890625 40.578125 77.09375 44.375 
Q 74.3125 48.1875 68.609375 48.1875 
Q 61.625 48.1875 57.5625 43.546875 
Q 53.515625 38.921875 53.515625 30.90625 
L 53.515625 0 
L 44.484375 0 
L 44.484375 32.71875 
Q 44.484375 40.625 41.703125 44.40625 
Q 38.921875 48.1875 33.109375 48.1875 
Q 26.21875 48.1875 22.15625 43.53125 
Q 18.109375 38.875 18.109375 30.90625 
L 18.109375 0 
L 9.078125 0 
L 9.078125 54.6875 
L 18.109375 54.6875 
L 18.109375 46.1875 
Q 21.1875 51.21875 25.484375 53.609375 
Q 29.78125 56 35.6875 56 
Q 41.65625 56 45.828125 52.96875 
Q 50 49.953125 52 44.1875 
z
" id="DejaVuSans-109"/>
      <path d="M 18.109375 8.203125 
L 18.109375 -20.796875 
L 9.078125 -20.796875 
L 9.078125 54.6875 
L 18.109375 54.6875 
L 18.109375 46.390625 
Q 20.953125 51.265625 25.265625 53.625 
Q 29.59375 56 35.59375 56 
Q 45.5625 56 51.78125 48.09375 
Q 58.015625 40.1875 58.015625 27.296875 
Q 58.015625 14.40625 51.78125 6.484375 
Q 45.5625 -1.421875 35.59375 -1.421875 
Q 29.59375 -1.421875 25.265625 0.953125 
Q 20.953125 3.328125 18.109375 8.203125 
z
M 48.6875 27.296875 
Q 48.6875 37.203125 44.609375 42.84375 
Q 40.53125 48.484375 33.40625 48.484375 
Q 26.265625 48.484375 22.1875 42.84375 
Q 18.109375 37.203125 18.109375 27.296875 
Q 18.109375 17.390625 22.1875 11.75 
Q 26.265625 6.109375 33.40625 6.109375 
Q 40.53125 6.109375 44.609375 11.75 
Q 48.6875 17.390625 48.6875 27.296875 
z
" id="DejaVuSans-112"/>
      <path d="M 30.609375 48.390625 
Q 23.390625 48.390625 19.1875 42.75 
Q 14.984375 37.109375 14.984375 27.296875 
Q 14.984375 17.484375 19.15625 11.84375 
Q 23.34375 6.203125 30.609375 6.203125 
Q 37.796875 6.203125 41.984375 11.859375 
Q 46.1875 17.53125 46.1875 27.296875 
Q 46.1875 37.015625 41.984375 42.703125 
Q 37.796875 48.390625 30.609375 48.390625 
z
M 30.609375 56 
Q 42.328125 56 49.015625 48.375 
Q 55.71875 40.765625 55.71875 27.296875 
Q 55.71875 13.875 49.015625 6.21875 
Q 42.328125 -1.421875 30.609375 -1.421875 
Q 18.84375 -1.421875 12.171875 6.21875 
Q 5.515625 13.875 5.515625 27.296875 
Q 5.515625 40.765625 12.171875 48.375 
Q 18.84375 56 30.609375 56 
z
" id="DejaVuSans-111"/>
      <path d="M 41.109375 46.296875 
Q 39.59375 47.171875 37.8125 47.578125 
Q 36.03125 48 33.890625 48 
Q 26.265625 48 22.1875 43.046875 
Q 18.109375 38.09375 18.109375 28.8125 
L 18.109375 0 
L 9.078125 0 
L 9.078125 54.6875 
L 18.109375 54.6875 
L 18.109375 46.1875 
Q 20.953125 51.171875 25.484375 53.578125 
Q 30.03125 56 36.53125 56 
Q 37.453125 56 38.578125 55.875 
Q 39.703125 55.765625 41.0625 55.515625 
z
" id="DejaVuSans-114"/>
      <path d="M 18.3125 70.21875 
L 18.3125 54.6875 
L 36.8125 54.6875 
L 36.8125 47.703125 
L 18.3125 47.703125 
L 18.3125 18.015625 
Q 18.3125 11.328125 20.140625 9.421875 
Q 21.96875 7.515625 27.59375 7.515625 
L 36.8125 7.515625 
L 36.8125 0 
L 27.59375 0 
Q 17.1875 0 13.234375 3.875 
Q 9.28125 7.765625 9.28125 18.015625 
L 9.28125 47.703125 
L 2.6875 47.703125 
L 2.6875 54.6875 
L 9.28125 54.6875 
L 9.28125 70.21875 
z
" id="DejaVuSans-116"/>
      <path d="M 34.28125 27.484375 
Q 23.390625 27.484375 19.1875 25 
Q 14.984375 22.515625 14.984375 16.5 
Q 14.984375 11.71875 18.140625 8.90625 
Q 21.296875 6.109375 26.703125 6.109375 
Q 34.1875 6.109375 38.703125 11.40625 
Q 43.21875 16.703125 43.21875 25.484375 
L 43.21875 27.484375 
z
M 52.203125 31.203125 
L 52.203125 0 
L 43.21875 0 
L 43.21875 8.296875 
Q 40.140625 3.328125 35.546875 0.953125 
Q 30.953125 -1.421875 24.3125 -1.421875 
Q 15.921875 -1.421875 10.953125 3.296875 
Q 6 8.015625 6 15.921875 
Q 6 25.140625 12.171875 29.828125 
Q 18.359375 34.515625 30.609375 34.515625 
L 43.21875 34.515625 
L 43.21875 35.40625 
Q 43.21875 41.609375 39.140625 45 
Q 35.0625 48.390625 27.6875 48.390625 
Q 23 48.390625 18.546875 47.265625 
Q 14.109375 46.140625 10.015625 43.890625 
L 10.015625 52.203125 
Q 14.9375 54.109375 19.578125 55.046875 
Q 24.21875 56 28.609375 56 
Q 40.484375 56 46.34375 49.84375 
Q 52.203125 43.703125 52.203125 31.203125 
z
" id="DejaVuSans-97"/>
      <path d="M 54.890625 33.015625 
L 54.890625 0 
L 45.90625 0 
L 45.90625 32.71875 
Q 45.90625 40.484375 42.875 44.328125 
Q 39.84375 48.1875 33.796875 48.1875 
Q 26.515625 48.1875 22.3125 43.546875 
Q 18.109375 38.921875 18.109375 30.90625 
L 18.109375 0 
L 9.078125 0 
L 9.078125 54.6875 
L 18.109375 54.6875 
L 18.109375 46.1875 
Q 21.34375 51.125 25.703125 53.5625 
Q 30.078125 56 35.796875 56 
Q 45.21875 56 50.046875 50.171875 
Q 54.890625 44.34375 54.890625 33.015625 
z
" id="DejaVuSans-110"/>
      <path d="M 48.78125 52.59375 
L 48.78125 44.1875 
Q 44.96875 46.296875 41.140625 47.34375 
Q 37.3125 48.390625 33.40625 48.390625 
Q 24.65625 48.390625 19.8125 42.84375 
Q 14.984375 37.3125 14.984375 27.296875 
Q 14.984375 17.28125 19.8125 11.734375 
Q 24.65625 6.203125 33.40625 6.203125 
Q 37.3125 6.203125 41.140625 7.25 
Q 44.96875 8.296875 48.78125 10.40625 
L 48.78125 2.09375 
Q 45.015625 0.34375 40.984375 -0.53125 
Q 36.96875 -1.421875 32.421875 -1.421875 
Q 20.0625 -1.421875 12.78125 6.34375 
Q 5.515625 14.109375 5.515625 27.296875 
Q 5.515625 40.671875 12.859375 48.328125 
Q 20.21875 56 33.015625 56 
Q 37.15625 56 41.109375 55.140625 
Q 45.0625 54.296875 48.78125 52.59375 
z
" id="DejaVuSans-99"/>
      <path d="M 56.203125 29.59375 
L 56.203125 25.203125 
L 14.890625 25.203125 
Q 15.484375 15.921875 20.484375 11.0625 
Q 25.484375 6.203125 34.421875 6.203125 
Q 39.59375 6.203125 44.453125 7.46875 
Q 49.3125 8.734375 54.109375 11.28125 
L 54.109375 2.78125 
Q 49.265625 0.734375 44.1875 -0.34375 
Q 39.109375 -1.421875 33.890625 -1.421875 
Q 20.796875 -1.421875 13.15625 6.1875 
Q 5.515625 13.8125 5.515625 26.8125 
Q 5.515625 40.234375 12.765625 48.109375 
Q 20.015625 56 32.328125 56 
Q 43.359375 56 49.78125 48.890625 
Q 56.203125 41.796875 56.203125 29.59375 
z
M 47.21875 32.234375 
Q 47.125 39.59375 43.09375 43.984375 
Q 39.0625 48.390625 32.421875 48.390625 
Q 24.90625 48.390625 20.390625 44.140625 
Q 15.875 39.890625 15.1875 32.171875 
z
" id="DejaVuSans-101"/>
      <path id="DejaVuSans-32"/>
      <path d="M 45.40625 46.390625 
L 45.40625 75.984375 
L 54.390625 75.984375 
L 54.390625 0 
L 45.40625 0 
L 45.40625 8.203125 
Q 42.578125 3.328125 38.25 0.953125 
Q 33.9375 -1.421875 27.875 -1.421875 
Q 17.96875 -1.421875 11.734375 6.484375 
Q 5.515625 14.40625 5.515625 27.296875 
Q 5.515625 40.1875 11.734375 48.09375 
Q 17.96875 56 27.875 56 
Q 33.9375 56 38.25 53.625 
Q 42.578125 51.265625 45.40625 46.390625 
z
M 14.796875 27.296875 
Q 14.796875 17.390625 18.875 11.75 
Q 22.953125 6.109375 30.078125 6.109375 
Q 37.203125 6.109375 41.296875 11.75 
Q 45.40625 17.390625 45.40625 27.296875 
Q 45.40625 37.203125 41.296875 42.84375 
Q 37.203125 48.484375 30.078125 48.484375 
Q 22.953125 48.484375 18.875 42.84375 
Q 14.796875 37.203125 14.796875 27.296875 
z
" id="DejaVuSans-100"/>
      <path d="M 44.390625 34.1875 
Q 47.5625 33.109375 50.5625 29.59375 
Q 53.5625 26.078125 56.59375 19.921875 
L 66.609375 0 
L 56 0 
L 46.6875 18.703125 
Q 43.0625 26.03125 39.671875 28.421875 
Q 36.28125 30.8125 30.421875 30.8125 
L 19.671875 30.8125 
L 19.671875 0 
L 9.8125 0 
L 9.8125 72.90625 
L 32.078125 72.90625 
Q 44.578125 72.90625 50.734375 67.671875 
Q 56.890625 62.453125 56.890625 51.90625 
Q 56.890625 45.015625 53.6875 40.46875 
Q 50.484375 35.9375 44.390625 34.1875 
z
M 19.671875 64.796875 
L 19.671875 38.921875 
L 32.078125 38.921875 
Q 39.203125 38.921875 42.84375 42.21875 
Q 46.484375 45.515625 46.484375 51.90625 
Q 46.484375 58.296875 42.84375 61.546875 
Q 39.203125 64.796875 32.078125 64.796875 
z
" id="DejaVuSans-82"/>
      <path d="M 9.421875 75.984375 
L 18.40625 75.984375 
L 18.40625 0 
L 9.421875 0 
z
" id="DejaVuSans-108"/>
      <path d="M 9.421875 54.6875 
L 18.40625 54.6875 
L 18.40625 0 
L 9.421875 0 
z
M 9.421875 75.984375 
L 18.40625 75.984375 
L 18.40625 64.59375 
L 9.421875 64.59375 
z
" id="DejaVuSans-105"/>
      <path d="M 2.984375 54.6875 
L 12.5 54.6875 
L 29.59375 8.796875 
L 46.6875 54.6875 
L 56.203125 54.6875 
L 35.6875 0 
L 23.484375 0 
z
" id="DejaVuSans-118"/>
      <path d="M 48.6875 27.296875 
Q 48.6875 37.203125 44.609375 42.84375 
Q 40.53125 48.484375 33.40625 48.484375 
Q 26.265625 48.484375 22.1875 42.84375 
Q 18.109375 37.203125 18.109375 27.296875 
Q 18.109375 17.390625 22.1875 11.75 
Q 26.265625 6.109375 33.40625 6.109375 
Q 40.53125 6.109375 44.609375 11.75 
Q 48.6875 17.390625 48.6875 27.296875 
z
M 18.109375 46.390625 
Q 20.953125 51.265625 25.265625 53.625 
Q 29.59375 56 35.59375 56 
Q 45.5625 56 51.78125 48.09375 
Q 58.015625 40.1875 58.015625 27.296875 
Q 58.015625 14.40625 51.78125 6.484375 
Q 45.5625 -1.421875 35.59375 -1.421875 
Q 29.59375 -1.421875 25.265625 0.953125 
Q 20.953125 3.328125 18.109375 8.203125 
L 18.109375 0 
L 9.078125 0 
L 9.078125 75.984375 
L 18.109375 75.984375 
z
" id="DejaVuSans-98"/>
      <path d="M 8.5 21.578125 
L 8.5 54.6875 
L 17.484375 54.6875 
L 17.484375 21.921875 
Q 17.484375 14.15625 20.5 10.265625 
Q 23.53125 6.390625 29.59375 6.390625 
Q 36.859375 6.390625 41.078125 11.03125 
Q 45.3125 15.671875 45.3125 23.6875 
L 45.3125 54.6875 
L 54.296875 54.6875 
L 54.296875 0 
L 45.3125 0 
L 45.3125 8.40625 
Q 42.046875 3.421875 37.71875 1 
Q 33.40625 -1.421875 27.6875 -1.421875 
Q 18.265625 -1.421875 13.375 4.4375 
Q 8.5 10.296875 8.5 21.578125 
z
M 31.109375 56 
z
" id="DejaVuSans-117"/>
      <path d="M 37.109375 75.984375 
L 37.109375 68.5 
L 28.515625 68.5 
Q 23.6875 68.5 21.796875 66.546875 
Q 19.921875 64.59375 19.921875 59.515625 
L 19.921875 54.6875 
L 34.71875 54.6875 
L 34.71875 47.703125 
L 19.921875 47.703125 
L 19.921875 0 
L 10.890625 0 
L 10.890625 47.703125 
L 2.296875 47.703125 
L 2.296875 54.6875 
L 10.890625 54.6875 
L 10.890625 58.5 
Q 10.890625 67.625 15.140625 71.796875 
Q 19.390625 75.984375 28.609375 75.984375 
z
" id="DejaVuSans-102"/>
      <path d="M 4.203125 54.6875 
L 13.1875 54.6875 
L 24.421875 12.015625 
L 35.59375 54.6875 
L 46.1875 54.6875 
L 57.421875 12.015625 
L 68.609375 54.6875 
L 77.59375 54.6875 
L 63.28125 0 
L 52.6875 0 
L 40.921875 44.828125 
L 29.109375 0 
L 18.5 0 
z
" id="DejaVuSans-119"/>
      <path d="M 9.078125 75.984375 
L 18.109375 75.984375 
L 18.109375 31.109375 
L 44.921875 54.6875 
L 56.390625 54.6875 
L 27.390625 29.109375 
L 57.625 0 
L 45.90625 0 
L 18.109375 26.703125 
L 18.109375 0 
L 9.078125 0 
z
" id="DejaVuSans-107"/>
      <path d="M 54.890625 33.015625 
L 54.890625 0 
L 45.90625 0 
L 45.90625 32.71875 
Q 45.90625 40.484375 42.875 44.328125 
Q 39.84375 48.1875 33.796875 48.1875 
Q 26.515625 48.1875 22.3125 43.546875 
Q 18.109375 38.921875 18.109375 30.90625 
L 18.109375 0 
L 9.078125 0 
L 9.078125 75.984375 
L 18.109375 75.984375 
L 18.109375 46.1875 
Q 21.34375 51.125 25.703125 53.5625 
Q 30.078125 56 35.796875 56 
Q 45.21875 56 50.046875 50.171875 
Q 54.890625 44.34375 54.890625 33.015625 
z
" id="DejaVuSans-104"/>
      <path d="M 44.28125 53.078125 
L 44.28125 44.578125 
Q 40.484375 46.53125 36.375 47.5 
Q 32.28125 48.484375 27.875 48.484375 
Q 21.1875 48.484375 17.84375 46.4375 
Q 14.5 44.390625 14.5 40.28125 
Q 14.5 37.15625 16.890625 35.375 
Q 19.28125 33.59375 26.515625 31.984375 
L 29.59375 31.296875 
Q 39.15625 29.25 43.1875 25.515625 
Q 47.21875 21.78125 47.21875 15.09375 
Q 47.21875 7.46875 41.1875 3.015625 
Q 35.15625 -1.421875 24.609375 -1.421875 
Q 20.21875 -1.421875 15.453125 -0.5625 
Q 10.6875 0.296875 5.421875 2 
L 5.421875 11.28125 
Q 10.40625 8.6875 15.234375 7.390625 
Q 20.0625 6.109375 24.8125 6.109375 
Q 31.15625 6.109375 34.5625 8.28125 
Q 37.984375 10.453125 37.984375 14.40625 
Q 37.984375 18.0625 35.515625 20.015625 
Q 33.0625 21.96875 24.703125 23.78125 
L 21.578125 24.515625 
Q 13.234375 26.265625 9.515625 29.90625 
Q 5.8125 33.546875 5.8125 39.890625 
Q 5.8125 47.609375 11.28125 51.796875 
Q 16.75 56 26.8125 56 
Q 31.78125 56 36.171875 55.265625 
Q 40.578125 54.546875 44.28125 53.078125 
z
" id="DejaVuSans-115"/>
     </defs>
     <use xlink:href="#DejaVuSans-73"/>
     <use x="29.492188" xlink:href="#DejaVuSans-109"/>
     <use x="126.904297" xlink:href="#DejaVuSans-112"/>
     <use x="190.380859" xlink:href="#DejaVuSans-111"/>
     <use x="251.5625" xlink:href="#DejaVuSans-114"/>
     <use x="292.675781" xlink:href="#DejaVuSans-116"/>
     <use x="331.884766" xlink:href="#DejaVuSans-97"/>
     <use x="393.164062" xlink:href="#DejaVuSans-110"/>
     <use x="456.542969" xlink:href="#DejaVuSans-99"/>
     <use x="511.523438" xlink:href="#DejaVuSans-101"/>
     <use x="573.046875" xlink:href="#DejaVuSans-32"/>
     <use x="604.833984" xlink:href="#DejaVuSans-83"/>
     <use x="668.310547" xlink:href="#DejaVuSans-99"/>
     <use x="723.291016" xlink:href="#DejaVuSans-111"/>
     <use x="784.472656" xlink:href="#DejaVuSans-114"/>
     <use x="823.335938" xlink:href="#DejaVuSans-101"/>
     <use x="884.859375" xlink:href="#DejaVuSans-32"/>
     <use x="916.646484" xlink:href="#DejaVuSans-97"/>
     <use x="977.925781" xlink:href="#DejaVuSans-110"/>
     <use x="1041.304688" xlink:href="#DejaVuSans-100"/>
     <use x="1104.78125" xlink:href="#DejaVuSans-32"/>
     <use x="1136.568359" xlink:href="#DejaVuSans-82"/>
     <use x="1201.550781" xlink:href="#DejaVuSans-101"/>
     <use x="1263.074219" xlink:href="#DejaVuSans-108"/>
     <use x="1290.857422" xlink:href="#DejaVuSans-97"/>
     <use x="1352.136719" xlink:href="#DejaVuSans-116"/>
     <use x="1391.345703" xlink:href="#DejaVuSans-105"/>
     <use x="1419.128906" xlink:href="#DejaVuSans-118"/>
     <use x="1478.308594" xlink:href="#DejaVuSans-101"/>
     <use x="1539.832031" xlink:href="#DejaVuSans-32"/>
     <use x="1571.619141" xlink:href="#DejaVuSans-65"/>
     <use x="1640.027344" xlink:href="#DejaVuSans-98"/>
     <use x="1703.503906" xlink:href="#DejaVuSans-117"/>
     <use x="1766.882812" xlink:href="#DejaVuSans-110"/>
     <use x="1830.261719" xlink:href="#DejaVuSans-100"/>
     <use x="1893.738281" xlink:href="#DejaVuSans-97"/>
     <use x="1955.017578" xlink:href="#DejaVuSans-110"/>
     <use x="2018.396484" xlink:href="#DejaVuSans-99"/>
     <use x="2073.376953" xlink:href="#DejaVuSans-101"/>
     <use x="2134.900391" xlink:href="#DejaVuSans-32"/>
     <use x="2166.6875" xlink:href="#DejaVuSans-102"/>
     <use x="2201.892578" xlink:href="#DejaVuSans-111"/>
     <use x="2263.074219" xlink:href="#DejaVuSans-114"/>
     <use x="2304.1875" xlink:href="#DejaVuSans-32"/>
     <use x="2335.974609" xlink:href="#DejaVuSans-110"/>
     <use x="2399.353516" xlink:href="#DejaVuSans-101"/>
     <use x="2460.876953" xlink:href="#DejaVuSans-116"/>
     <use x="2500.085938" xlink:href="#DejaVuSans-119"/>
     <use x="2581.873047" xlink:href="#DejaVuSans-111"/>
     <use x="2643.054688" xlink:href="#DejaVuSans-114"/>
     <use x="2684.167969" xlink:href="#DejaVuSans-107"/>
     <use x="2742.078125" xlink:href="#DejaVuSans-32"/>
     <use x="2773.865234" xlink:href="#DejaVuSans-104"/>
     <use x="2837.244141" xlink:href="#DejaVuSans-115"/>
     <use x="2889.34375" xlink:href="#DejaVuSans-97"/>
     <use x="2950.623047" xlink:href="#DejaVuSans-48"/>
     <use x="3014.246094" xlink:href="#DejaVuSans-48"/>
     <use x="3077.869141" xlink:href="#DejaVuSans-50"/>
     <use x="3141.492188" xlink:href="#DejaVuSans-56"/>
     <use x="3205.115234" xlink:href="#DejaVuSans-48"/>
     <use x="3268.738281" xlink:href="#DejaVuSans-32"/>
     <use x="3300.525391" xlink:href="#DejaVuSans-102"/>
     <use x="3335.730469" xlink:href="#DejaVuSans-111"/>
     <use x="3396.912109" xlink:href="#DejaVuSans-114"/>
     <use x="3438.025391" xlink:href="#DejaVuSans-32"/>
     <use x="3469.8125" xlink:href="#DejaVuSans-100"/>
     <use x="3533.289062" xlink:href="#DejaVuSans-97"/>
     <use x="3594.568359" xlink:href="#DejaVuSans-116"/>
     <use x="3633.777344" xlink:href="#DejaVuSans-97"/>
     <use x="3695.056641" xlink:href="#DejaVuSans-115"/>
     <use x="3747.15625" xlink:href="#DejaVuSans-101"/>
     <use x="3808.679688" xlink:href="#DejaVuSans-116"/>
     <use x="3847.888672" xlink:href="#DejaVuSans-32"/>
     <use x="3879.675781" xlink:href="#DejaVuSans-97"/>
     <use x="3940.955078" xlink:href="#DejaVuSans-116"/>
     <use x="3980.164062" xlink:href="#DejaVuSans-104"/>
     <use x="4043.542969" xlink:href="#DejaVuSans-101"/>
     <use x="4105.066406" xlink:href="#DejaVuSans-114"/>
     <use x="4143.929688" xlink:href="#DejaVuSans-111"/>
     <use x="4205.111328" xlink:href="#DejaVuSans-115"/>
     <use x="4257.210938" xlink:href="#DejaVuSans-99"/>
     <use x="4312.191406" xlink:href="#DejaVuSans-108"/>
     <use x="4339.974609" xlink:href="#DejaVuSans-101"/>
     <use x="4401.498047" xlink:href="#DejaVuSans-114"/>
     <use x="4440.361328" xlink:href="#DejaVuSans-111"/>
     <use x="4501.542969" xlink:href="#DejaVuSans-115"/>
     <use x="4553.642578" xlink:href="#DejaVuSans-105"/>
     <use x="4581.425781" xlink:href="#DejaVuSans-115"/>
    </g>
   </g>
   <g id="legend_1">
    <g id="patch_71">
     <path d="M 803.859375 155.714375 
L 1029.8 155.714375 
Q 1031.8 155.714375 1031.8 153.714375 
L 1031.8 110.68 
Q 1031.8 108.68 1029.8 108.68 
L 803.859375 108.68 
Q 801.859375 108.68 801.859375 110.68 
L 801.859375 153.714375 
Q 801.859375 155.714375 803.859375 155.714375 
z
" style="fill:#ffffff;opacity:0.8;stroke:#cccccc;stroke-linejoin:miter;"/>
    </g>
    <g id="text_32">
     <!-- Relative Expression of AS+ compared to AS- -->
     <g transform="translate(805.859375 120.278437)scale(0.1 -0.1)">
      <defs>
       <path d="M 54.890625 54.6875 
L 35.109375 28.078125 
L 55.90625 0 
L 45.3125 0 
L 29.390625 21.484375 
L 13.484375 0 
L 2.875 0 
L 24.125 28.609375 
L 4.6875 54.6875 
L 15.28125 54.6875 
L 29.78125 35.203125 
L 44.28125 54.6875 
z
" id="DejaVuSans-120"/>
       <path d="M 46 62.703125 
L 46 35.5 
L 73.1875 35.5 
L 73.1875 27.203125 
L 46 27.203125 
L 46 0 
L 37.796875 0 
L 37.796875 27.203125 
L 10.59375 27.203125 
L 10.59375 35.5 
L 37.796875 35.5 
L 37.796875 62.703125 
z
" id="DejaVuSans-43"/>
       <path d="M 4.890625 31.390625 
L 31.203125 31.390625 
L 31.203125 23.390625 
L 4.890625 23.390625 
z
" id="DejaVuSans-45"/>
      </defs>
      <use xlink:href="#DejaVuSans-82"/>
      <use x="64.982422" xlink:href="#DejaVuSans-101"/>
      <use x="126.505859" xlink:href="#DejaVuSans-108"/>
      <use x="154.289062" xlink:href="#DejaVuSans-97"/>
      <use x="215.568359" xlink:href="#DejaVuSans-116"/>
      <use x="254.777344" xlink:href="#DejaVuSans-105"/>
      <use x="282.560547" xlink:href="#DejaVuSans-118"/>
      <use x="341.740234" xlink:href="#DejaVuSans-101"/>
      <use x="403.263672" xlink:href="#DejaVuSans-32"/>
      <use x="435.050781" xlink:href="#DejaVuSans-69"/>
      <use x="498.234375" xlink:href="#DejaVuSans-120"/>
      <use x="557.414062" xlink:href="#DejaVuSans-112"/>
      <use x="620.890625" xlink:href="#DejaVuSans-114"/>
      <use x="659.753906" xlink:href="#DejaVuSans-101"/>
      <use x="721.277344" xlink:href="#DejaVuSans-115"/>
      <use x="773.376953" xlink:href="#DejaVuSans-115"/>
      <use x="825.476562" xlink:href="#DejaVuSans-105"/>
      <use x="853.259766" xlink:href="#DejaVuSans-111"/>
      <use x="914.441406" xlink:href="#DejaVuSans-110"/>
      <use x="977.820312" xlink:href="#DejaVuSans-32"/>
      <use x="1009.607422" xlink:href="#DejaVuSans-111"/>
      <use x="1070.789062" xlink:href="#DejaVuSans-102"/>
      <use x="1105.994141" xlink:href="#DejaVuSans-32"/>
      <use x="1137.78125" xlink:href="#DejaVuSans-65"/>
      <use x="1206.189453" xlink:href="#DejaVuSans-83"/>
      <use x="1269.666016" xlink:href="#DejaVuSans-43"/>
      <use x="1353.455078" xlink:href="#DejaVuSans-32"/>
      <use x="1385.242188" xlink:href="#DejaVuSans-99"/>
      <use x="1440.222656" xlink:href="#DejaVuSans-111"/>
      <use x="1501.404297" xlink:href="#DejaVuSans-109"/>
      <use x="1598.816406" xlink:href="#DejaVuSans-112"/>
      <use x="1662.292969" xlink:href="#DejaVuSans-97"/>
      <use x="1723.572266" xlink:href="#DejaVuSans-114"/>
      <use x="1762.435547" xlink:href="#DejaVuSans-101"/>
      <use x="1823.958984" xlink:href="#DejaVuSans-100"/>
      <use x="1887.435547" xlink:href="#DejaVuSans-32"/>
      <use x="1919.222656" xlink:href="#DejaVuSans-116"/>
      <use x="1958.431641" xlink:href="#DejaVuSans-111"/>
      <use x="2019.613281" xlink:href="#DejaVuSans-32"/>
      <use x="2051.400391" xlink:href="#DejaVuSans-65"/>
      <use x="2119.808594" xlink:href="#DejaVuSans-83"/>
      <use x="2183.285156" xlink:href="#DejaVuSans-45"/>
     </g>
    </g>
    <g id="patch_72">
     <path d="M 829.136719 134.956562 
L 849.136719 134.956562 
L 849.136719 127.956562 
L 829.136719 127.956562 
z
" style="fill:#0000ff;stroke:#0000ff;stroke-linejoin:miter;"/>
    </g>
    <g id="text_33">
     <!-- Decreased expression in AS+ -->
     <g transform="translate(857.136719 134.956562)scale(0.1 -0.1)">
      <use xlink:href="#DejaVuSans-68"/>
      <use x="77.001953" xlink:href="#DejaVuSans-101"/>
      <use x="138.525391" xlink:href="#DejaVuSans-99"/>
      <use x="193.505859" xlink:href="#DejaVuSans-114"/>
      <use x="232.369141" xlink:href="#DejaVuSans-101"/>
      <use x="293.892578" xlink:href="#DejaVuSans-97"/>
      <use x="355.171875" xlink:href="#DejaVuSans-115"/>
      <use x="407.271484" xlink:href="#DejaVuSans-101"/>
      <use x="468.794922" xlink:href="#DejaVuSans-100"/>
      <use x="532.271484" xlink:href="#DejaVuSans-32"/>
      <use x="564.058594" xlink:href="#DejaVuSans-101"/>
      <use x="623.832031" xlink:href="#DejaVuSans-120"/>
      <use x="683.011719" xlink:href="#DejaVuSans-112"/>
      <use x="746.488281" xlink:href="#DejaVuSans-114"/>
      <use x="785.351562" xlink:href="#DejaVuSans-101"/>
      <use x="846.875" xlink:href="#DejaVuSans-115"/>
      <use x="898.974609" xlink:href="#DejaVuSans-115"/>
      <use x="951.074219" xlink:href="#DejaVuSans-105"/>
      <use x="978.857422" xlink:href="#DejaVuSans-111"/>
      <use x="1040.039062" xlink:href="#DejaVuSans-110"/>
      <use x="1103.417969" xlink:href="#DejaVuSans-32"/>
      <use x="1135.205078" xlink:href="#DejaVuSans-105"/>
      <use x="1162.988281" xlink:href="#DejaVuSans-110"/>
      <use x="1226.367188" xlink:href="#DejaVuSans-32"/>
      <use x="1258.154297" xlink:href="#DejaVuSans-65"/>
      <use x="1326.5625" xlink:href="#DejaVuSans-83"/>
      <use x="1390.039062" xlink:href="#DejaVuSans-43"/>
     </g>
    </g>
    <g id="patch_73">
     <path d="M 829.136719 149.634687 
L 849.136719 149.634687 
L 849.136719 142.634687 
L 829.136719 142.634687 
z
" style="fill:#ff0000;stroke:#ff0000;stroke-linejoin:miter;"/>
    </g>
    <g id="text_34">
     <!-- Increased expression in AS+ -->
     <g transform="translate(857.136719 149.634687)scale(0.1 -0.1)">
      <use xlink:href="#DejaVuSans-73"/>
      <use x="29.492188" xlink:href="#DejaVuSans-110"/>
      <use x="92.871094" xlink:href="#DejaVuSans-99"/>
      <use x="147.851562" xlink:href="#DejaVuSans-114"/>
      <use x="186.714844" xlink:href="#DejaVuSans-101"/>
      <use x="248.238281" xlink:href="#DejaVuSans-97"/>
      <use x="309.517578" xlink:href="#DejaVuSans-115"/>
      <use x="361.617188" xlink:href="#DejaVuSans-101"/>
      <use x="423.140625" xlink:href="#DejaVuSans-100"/>
      <use x="486.617188" xlink:href="#DejaVuSans-32"/>
      <use x="518.404297" xlink:href="#DejaVuSans-101"/>
      <use x="578.177734" xlink:href="#DejaVuSans-120"/>
      <use x="637.357422" xlink:href="#DejaVuSans-112"/>
      <use x="700.833984" xlink:href="#DejaVuSans-114"/>
      <use x="739.697266" xlink:href="#DejaVuSans-101"/>
      <use x="801.220703" xlink:href="#DejaVuSans-115"/>
      <use x="853.320312" xlink:href="#DejaVuSans-115"/>
      <use x="905.419922" xlink:href="#DejaVuSans-105"/>
      <use x="933.203125" xlink:href="#DejaVuSans-111"/>
      <use x="994.384766" xlink:href="#DejaVuSans-110"/>
      <use x="1057.763672" xlink:href="#DejaVuSans-32"/>
      <use x="1089.550781" xlink:href="#DejaVuSans-105"/>
      <use x="1117.333984" xlink:href="#DejaVuSans-110"/>
      <use x="1180.712891" xlink:href="#DejaVuSans-32"/>
      <use x="1212.5" xlink:href="#DejaVuSans-65"/>
      <use x="1280.908203" xlink:href="#DejaVuSans-83"/>
      <use x="1344.384766" xlink:href="#DejaVuSans-43"/>
     </g>
    </g>
   </g>
  </g>
 </g>
 <defs>
  <clipPath id="p18a3922981">
   <rect height="665.28" width="892.8" x="144" y="103.68"/>
  </clipPath>
 </defs>
</svg>
