<?xml version="1.0" encoding="utf-8" standalone="no"?>
<!DOCTYPE svg PUBLIC "-//W3C//DTD SVG 1.1//EN"
  "http://www.w3.org/Graphics/SVG/1.1/DTD/svg11.dtd">
<!-- Created with matplotlib (https://matplotlib.org/) -->
<svg height="864pt" version="1.1" viewBox="0 0 1152 864" width="1152pt" xmlns="http://www.w3.org/2000/svg" xmlns:xlink="http://www.w3.org/1999/xlink">
 <metadata>
  <rdf:RDF xmlns:cc="http://creativecommons.org/ns#" xmlns:dc="http://purl.org/dc/elements/1.1/" xmlns:rdf="http://www.w3.org/1999/02/22-rdf-syntax-ns#">
   <cc:Work>
    <dc:type rdf:resource="http://purl.org/dc/dcmitype/StillImage"/>
    <dc:date>2024-04-26T11:32:37.501941</dc:date>
    <dc:format>image/svg+xml</dc:format>
    <dc:creator>
     <cc:Agent>
      <dc:title>Matplotlib v3.3.1, https://matplotlib.org/</dc:title>
     </cc:Agent>
    </dc:creator>
   </cc:Work>
  </rdf:RDF>
 </metadata>
 <defs>
  <style type="text/css">*{stroke-linecap:butt;stroke-linejoin:round;}</style>
 </defs>
 <g id="figure_1">
  <g id="patch_1">
   <path d="M 0 864 
L 1152 864 
L 1152 0 
L 0 0 
z
" style="fill:#ffffff;"/>
  </g>
  <g id="axes_1">
   <g id="patch_2">
    <path clip-path="url(#pf1992bfe76)" d="M 603.990079 419.513942 
Q 598.8269 493.183575 593.741888 565.737909 
" style="fill:none;stroke:#000000;stroke-linecap:round;"/>
    <path clip-path="url(#pf1992bfe76)" d="M 596.016651 561.887525 
L 593.741888 565.737909 
L 592.026439 561.607869 
L 596.016651 561.887525 
z
" style="stroke:#000000;stroke-linecap:round;"/>
   </g>
   <g id="patch_3">
    <path clip-path="url(#pf1992bfe76)" d="M 606.192793 419.50934 
Q 609.606711 468.579882 612.943034 516.535085 
" style="fill:none;stroke:#000000;stroke-linecap:round;"/>
    <path clip-path="url(#pf1992bfe76)" d="M 614.660595 512.405923 
L 612.943034 516.535085 
L 610.670241 512.683538 
L 614.660595 512.405923 
z
" style="stroke:#000000;stroke-linecap:round;"/>
   </g>
   <g id="patch_4">
    <path clip-path="url(#pf1992bfe76)" d="M 617.034428 414.107902 
Q 648.387828 441.33758 678.897098 467.834152 
" style="fill:none;stroke:#000000;stroke-linecap:round;"/>
    <path clip-path="url(#pf1992bfe76)" d="M 677.188469 463.701286 
L 678.897098 467.834152 
L 674.565628 466.721336 
L 677.188469 463.701286 
z
" style="stroke:#000000;stroke-linecap:round;"/>
   </g>
   <g id="patch_5">
    <path clip-path="url(#pf1992bfe76)" d="M 609.787582 388.637419 
Q 611.31648 383.716349 612.513664 379.862971 
" style="fill:none;stroke:#000000;stroke-linecap:round;"/>
    <path clip-path="url(#pf1992bfe76)" d="M 609.41694 383.089471 
L 612.513664 379.862971 
L 613.23683 384.27625 
L 609.41694 383.089471 
z
" style="stroke:#000000;stroke-linecap:round;"/>
   </g>
   <g id="patch_6">
    <path clip-path="url(#pf1992bfe76)" d="M 619.649109 409.928902 
Q 638.250004 417.839809 655.822049 425.313148 
" style="fill:none;stroke:#000000;stroke-linecap:round;"/>
    <path clip-path="url(#pf1992bfe76)" d="M 652.923864 421.907195 
L 655.822049 425.313148 
L 651.358375 425.588125 
L 652.923864 421.907195 
z
" style="stroke:#000000;stroke-linecap:round;"/>
   </g>
   <g id="patch_7">
    <path clip-path="url(#pf1992bfe76)" d="M 609.741833 418.852336 
Q 632.189232 491.868609 654.308088 563.81621 
" style="fill:none;stroke:#000000;stroke-linecap:round;"/>
    <path clip-path="url(#pf1992bfe76)" d="M 655.04436 559.405099 
L 654.308088 563.81621 
L 651.220962 560.580526 
L 655.04436 559.405099 
z
" style="stroke:#000000;stroke-linecap:round;"/>
   </g>
   <g id="patch_8">
    <path clip-path="url(#pf1992bfe76)" d="M 593.252085 414.217152 
Q 563.975906 440.117275 535.537102 465.276585 
" style="fill:none;stroke:#000000;stroke-linecap:round;"/>
    <path clip-path="url(#pf1992bfe76)" d="M 539.858193 464.12412 
L 535.537102 465.276585 
L 537.207784 461.128234 
L 539.858193 464.12412 
z
" style="stroke:#000000;stroke-linecap:round;"/>
   </g>
   <g id="patch_9">
    <path clip-path="url(#pf1992bfe76)" d="M 613.792124 416.939133 
Q 646.915882 467.215385 679.424539 516.558016 
" style="fill:none;stroke:#000000;stroke-linecap:round;"/>
    <path clip-path="url(#pf1992bfe76)" d="M 678.893994 512.117462 
L 679.424539 516.558016 
L 675.553768 514.31812 
L 678.893994 512.117462 
z
" style="stroke:#000000;stroke-linecap:round;"/>
   </g>
   <g id="patch_10">
    <path clip-path="url(#pf1992bfe76)" d="M 598.523783 418.118236 
Q 575.829392 467.772294 553.599757 516.409494 
" style="fill:none;stroke:#000000;stroke-linecap:round;"/>
    <path clip-path="url(#pf1992bfe76)" d="M 557.08153 513.602848 
L 553.599757 516.409494 
L 553.443504 511.940089 
L 557.08153 513.602848 
z
" style="stroke:#000000;stroke-linecap:round;"/>
   </g>
   <g id="patch_11">
    <path clip-path="url(#pf1992bfe76)" d="M 589.291446 404.317127 
Q 567.655861 405.108078 547.137563 405.858183 
" style="fill:none;stroke:#000000;stroke-linecap:round;"/>
    <path clip-path="url(#pf1992bfe76)" d="M 551.20796 407.710714 
L 547.137563 405.858183 
L 551.061826 403.713384 
L 551.20796 407.710714 
z
" style="stroke:#000000;stroke-linecap:round;"/>
   </g>
   <g id="patch_12">
    <path clip-path="url(#pf1992bfe76)" d="M 612.248976 487.499624 
Q 538.925773 596.679372 466.225899 704.93097 
" style="fill:none;stroke:#000000;stroke-linecap:round;"/>
    <path clip-path="url(#pf1992bfe76)" d="M 470.116312 702.725367 
L 466.225899 704.93097 
L 466.795664 700.495278 
L 470.116312 702.725367 
z
" style="stroke:#000000;stroke-linecap:round;"/>
   </g>
   <g id="patch_13">
    <path clip-path="url(#pf1992bfe76)" d="M 623.834368 486.238155 
Q 712.687446 571.154778 800.732254 655.298938 
" style="fill:none;stroke:#000000;stroke-linecap:round;"/>
    <path clip-path="url(#pf1992bfe76)" d="M 799.222318 651.089414 
L 800.732254 655.298938 
L 796.458673 653.981173 
L 799.222318 651.089414 
z
" style="stroke:#000000;stroke-linecap:round;"/>
   </g>
   <g id="patch_14">
    <path clip-path="url(#pf1992bfe76)" d="M 608.249481 479.628947 
Q 418.082794 472.089729 229.033264 464.5948 
" style="fill:none;stroke:#000000;stroke-linecap:round;"/>
    <path clip-path="url(#pf1992bfe76)" d="M 232.950895 466.751687 
L 229.033264 464.5948 
L 233.109352 462.754827 
L 232.950895 466.751687 
z
" style="stroke:#000000;stroke-linecap:round;"/>
   </g>
   <g id="patch_15">
    <path clip-path="url(#pf1992bfe76)" d="M 624.308707 474.267752 
Q 775.902568 350.659125 926.629936 227.757032 
" style="fill:none;stroke:#000000;stroke-linecap:round;"/>
    <path clip-path="url(#pf1992bfe76)" d="M 922.26599 228.73477 
L 926.629936 227.757032 
L 924.79376 231.834832 
L 922.26599 228.73477 
z
" style="stroke:#000000;stroke-linecap:round;"/>
   </g>
   <g id="patch_16">
    <path clip-path="url(#pf1992bfe76)" d="M 615.052528 488.755778 
Q 605.04228 527.914643 595.308932 565.990306 
" style="fill:none;stroke:#000000;stroke-linecap:round;"/>
    <path clip-path="url(#pf1992bfe76)" d="M 598.237293 562.610261 
L 595.308932 565.990306 
L 594.361912 561.619591 
L 598.237293 562.610261 
z
" style="stroke:#000000;stroke-linecap:round;"/>
   </g>
   <g id="patch_17">
    <path clip-path="url(#pf1992bfe76)" d="M 616.581523 489.00911 
Q 615.450377 503.332537 614.40725 516.541399 
" style="fill:none;stroke:#000000;stroke-linecap:round;"/>
    <path clip-path="url(#pf1992bfe76)" d="M 616.715949 512.711267 
L 614.40725 516.541399 
L 612.728364 512.396361 
L 616.715949 512.711267 
z
" style="stroke:#000000;stroke-linecap:round;"/>
   </g>
   <g id="patch_18">
    <path clip-path="url(#pf1992bfe76)" d="M 626.308363 479.148695 
Q 652.094612 476.749185 676.767635 474.453265 
" style="fill:none;stroke:#000000;stroke-linecap:round;"/>
    <path clip-path="url(#pf1992bfe76)" d="M 672.599534 472.832482 
L 676.767635 474.453265 
L 672.970149 476.815276 
L 672.599534 472.832482 
z
" style="stroke:#000000;stroke-linecap:round;"/>
   </g>
   <g id="patch_19">
    <path clip-path="url(#pf1992bfe76)" d="M 617.113505 470.941305 
Q 616.19778 425.03929 615.304354 380.255086 
" style="fill:none;stroke:#000000;stroke-linecap:round;"/>
    <path clip-path="url(#pf1992bfe76)" d="M 613.384534 384.294182 
L 615.304354 380.255086 
L 617.383739 384.214399 
L 613.384534 384.294182 
z
" style="stroke:#000000;stroke-linecap:round;"/>
   </g>
   <g id="patch_20">
    <path clip-path="url(#pf1992bfe76)" d="M 623.272328 473.192162 
Q 640.899449 453.156116 657.788074 433.959489 
" style="fill:none;stroke:#000000;stroke-linecap:round;"/>
    <path clip-path="url(#pf1992bfe76)" d="M 653.644353 435.641624 
L 657.788074 433.959489 
L 656.647549 438.283747 
L 653.644353 435.641624 
z
" style="stroke:#000000;stroke-linecap:round;"/>
   </g>
   <g id="patch_21">
    <path clip-path="url(#pf1992bfe76)" d="M 620.86379 488.303708 
Q 637.361177 526.735762 653.417551 564.140438 
" style="fill:none;stroke:#000000;stroke-linecap:round;"/>
    <path clip-path="url(#pf1992bfe76)" d="M 653.677563 559.675867 
L 653.417551 564.140438 
L 650.001902 561.253686 
L 653.677563 559.675867 
z
" style="stroke:#000000;stroke-linecap:round;"/>
   </g>
   <g id="patch_22">
    <path clip-path="url(#pf1992bfe76)" d="M 608.300238 478.989921 
Q 572.289947 474.995606 537.390875 471.124549 
" style="fill:none;stroke:#000000;stroke-linecap:round;"/>
    <path clip-path="url(#pf1992bfe76)" d="M 541.146002 473.553339 
L 537.390875 471.124549 
L 541.586983 469.577722 
L 541.146002 473.553339 
z
" style="stroke:#000000;stroke-linecap:round;"/>
   </g>
   <g id="patch_23">
    <path clip-path="url(#pf1992bfe76)" d="M 624.861214 484.950841 
Q 651.349689 502.324523 676.903283 519.085019 
" style="fill:none;stroke:#000000;stroke-linecap:round;"/>
    <path clip-path="url(#pf1992bfe76)" d="M 674.655447 515.218854 
L 676.903283 519.085019 
L 672.461649 518.563589 
L 674.655447 515.218854 
z
" style="stroke:#000000;stroke-linecap:round;"/>
   </g>
   <g id="patch_24">
    <path clip-path="url(#pf1992bfe76)" d="M 609.648985 484.833551 
Q 582.464383 502.06542 556.224082 518.698712 
" style="fill:none;stroke:#000000;stroke-linecap:round;"/>
    <path clip-path="url(#pf1992bfe76)" d="M 560.673285 518.246395 
L 556.224082 518.698712 
L 558.531751 514.867959 
L 560.673285 518.246395 
z
" style="stroke:#000000;stroke-linecap:round;"/>
   </g>
   <g id="patch_25">
    <path clip-path="url(#pf1992bfe76)" d="M 610.638155 473.852929 
Q 577.1717 443.007289 544.527349 412.919373 
" style="fill:none;stroke:#000000;stroke-linecap:round;"/>
    <path clip-path="url(#pf1992bfe76)" d="M 546.11314 417.100912 
L 544.527349 412.919373 
L 548.824055 414.159663 
L 546.11314 417.100912 
z
" style="stroke:#000000;stroke-linecap:round;"/>
   </g>
   <g id="patch_26">
    <path clip-path="url(#pf1992bfe76)" d="M 352.266155 522.277837 
Q 460.854929 484.489474 568.387778 447.068568 
" style="fill:none;stroke:#000000;stroke-linecap:round;"/>
    <path clip-path="url(#pf1992bfe76)" d="M 563.952663 446.494326 
L 568.387778 447.068568 
L 565.267316 450.272115 
L 563.952663 446.494326 
z
" style="stroke:#000000;stroke-linecap:round;"/>
   </g>
   <g id="patch_27">
    <path clip-path="url(#pf1992bfe76)" d="M 589.320538 446.14648 
Q 741.879562 489.847316 893.363779 533.240271 
" style="fill:none;stroke:#000000;stroke-linecap:round;"/>
    <path clip-path="url(#pf1992bfe76)" d="M 890.069187 530.216091 
L 893.363779 533.240271 
L 888.96768 534.061437 
L 890.069187 530.216091 
z
" style="stroke:#000000;stroke-linecap:round;"/>
   </g>
   <g id="patch_28">
    <path clip-path="url(#pf1992bfe76)" d="M 589.704096 443.891149 
Q 771.321221 454.658716 951.822272 465.360115 
" style="fill:none;stroke:#000000;stroke-linecap:round;"/>
    <path clip-path="url(#pf1992bfe76)" d="M 947.94765 463.126888 
L 951.822272 465.360115 
L 947.710917 467.119876 
L 947.94765 463.126888 
z
" style="stroke:#000000;stroke-linecap:round;"/>
   </g>
   <g id="patch_29">
    <path clip-path="url(#pf1992bfe76)" d="M 570.790959 449.314563 
Q 439.503942 542.602118 309.128309 635.242078 
" style="fill:none;stroke:#000000;stroke-linecap:round;"/>
    <path clip-path="url(#pf1992bfe76)" d="M 313.547429 634.555506 
L 309.128309 635.242078 
L 311.230523 631.294839 
L 313.547429 634.555506 
z
" style="stroke:#000000;stroke-linecap:round;"/>
   </g>
   <g id="patch_30">
    <path clip-path="url(#pf1992bfe76)" d="M 572.052746 435.766662 
Q 441.987591 300.892317 312.698526 166.82276 
" style="fill:none;stroke:#000000;stroke-linecap:round;"/>
    <path clip-path="url(#pf1992bfe76)" d="M 314.035507 171.090368 
L 312.698526 166.82276 
L 316.914802 168.31374 
L 314.035507 171.090368 
z
" style="stroke:#000000;stroke-linecap:round;"/>
   </g>
   <g id="patch_31">
    <path clip-path="url(#pf1992bfe76)" d="M 587.797271 580.08582 
Q 527.135912 643.323187 467.248518 705.753722 
" style="fill:none;stroke:#000000;stroke-linecap:round;"/>
    <path clip-path="url(#pf1992bfe76)" d="M 471.460845 704.251623 
L 467.248518 705.753722 
L 468.574236 701.482601 
L 471.460845 704.251623 
z
" style="stroke:#000000;stroke-linecap:round;"/>
   </g>
   <g id="patch_32">
    <path clip-path="url(#pf1992bfe76)" d="M 600.262166 577.411442 
Q 700.241879 617.761968 799.18481 657.694063 
" style="fill:none;stroke:#000000;stroke-linecap:round;"/>
    <path clip-path="url(#pf1992bfe76)" d="M 796.224022 654.342387 
L 799.18481 657.694063 
L 794.726996 658.051688 
L 796.224022 654.342387 
z
" style="stroke:#000000;stroke-linecap:round;"/>
   </g>
   <g id="patch_33">
    <path clip-path="url(#pf1992bfe76)" d="M 585.750537 572.343687 
Q 406.704326 519.23649 228.729991 466.447225 
" style="fill:none;stroke:#000000;stroke-linecap:round;"/>
    <path clip-path="url(#pf1992bfe76)" d="M 231.996122 469.502122 
L 228.729991 466.447225 
L 233.133587 465.667259 
L 231.996122 469.502122 
z
" style="stroke:#000000;stroke-linecap:round;"/>
   </g>
   <g id="patch_34">
    <path clip-path="url(#pf1992bfe76)" d="M 598.472233 568.992578 
Q 763.243796 398.303659 927.238856 228.41913 
" style="fill:none;stroke:#000000;stroke-linecap:round;"/>
    <path clip-path="url(#pf1992bfe76)" d="M 923.021817 229.90795 
L 927.238856 228.41913 
L 925.899689 232.686053 
L 923.021817 229.90795 
z
" style="stroke:#000000;stroke-linecap:round;"/>
   </g>
   <g id="patch_35">
    <path clip-path="url(#pf1992bfe76)" d="M 608.069144 533.172869 
Q 537.084367 619.700053 466.808706 705.362856 
" style="fill:none;stroke:#000000;stroke-linecap:round;"/>
    <path clip-path="url(#pf1992bfe76)" d="M 470.891969 703.538861 
L 466.808706 705.362856 
L 467.799468 701.001848 
L 470.891969 703.538861 
z
" style="stroke:#000000;stroke-linecap:round;"/>
   </g>
   <g id="patch_36">
    <path clip-path="url(#pf1992bfe76)" d="M 620.819368 531.403796 
Q 710.864203 594.121696 799.991612 656.200592 
" style="fill:none;stroke:#000000;stroke-linecap:round;"/>
    <path clip-path="url(#pf1992bfe76)" d="M 797.852412 652.273274 
L 799.991612 656.200592 
L 795.566238 655.555561 
L 797.852412 652.273274 
z
" style="stroke:#000000;stroke-linecap:round;"/>
   </g>
   <g id="patch_37">
    <path clip-path="url(#pf1992bfe76)" d="M 604.973472 525.024932 
Q 416.408731 495.164365 228.948264 465.478669 
" style="fill:none;stroke:#000000;stroke-linecap:round;"/>
    <path clip-path="url(#pf1992bfe76)" d="M 232.586218 468.079686 
L 228.948264 465.478669 
L 233.21185 464.128916 
L 232.586218 468.079686 
z
" style="stroke:#000000;stroke-linecap:round;"/>
   </g>
   <g id="patch_38">
    <path clip-path="url(#pf1992bfe76)" d="M 619.980925 520.351388 
Q 773.90149 373.886198 927.012114 228.191719 
" style="fill:none;stroke:#000000;stroke-linecap:round;"/>
    <path clip-path="url(#pf1992bfe76)" d="M 922.735691 229.50023 
L 927.012114 228.191719 
L 925.493069 232.397965 
L 922.735691 229.50023 
z
" style="stroke:#000000;stroke-linecap:round;"/>
   </g>
   <g id="patch_39">
    <path clip-path="url(#pf1992bfe76)" d="M 680.27683 479.263984 
Q 573.353091 592.890996 467.195538 705.703786 
" style="fill:none;stroke:#000000;stroke-linecap:round;"/>
    <path clip-path="url(#pf1992bfe76)" d="M 471.393258 704.161337 
L 467.195538 705.703786 
L 468.480211 701.420141 
L 471.393258 704.161337 
z
" style="stroke:#000000;stroke-linecap:round;"/>
   </g>
   <g id="patch_40">
    <path clip-path="url(#pf1992bfe76)" d="M 689.766036 480.127142 
Q 746.234667 567.616535 802.097001 654.166565 
" style="fill:none;stroke:#000000;stroke-linecap:round;"/>
    <path clip-path="url(#pf1992bfe76)" d="M 801.60823 649.721218 
L 802.097001 654.166565 
L 798.247461 651.890373 
L 801.60823 649.721218 
z
" style="stroke:#000000;stroke-linecap:round;"/>
   </g>
   <g id="patch_41">
    <path clip-path="url(#pf1992bfe76)" d="M 677.845374 473.478176 
Q 452.882315 468.951493 229.037063 464.447302 
" style="fill:none;stroke:#000000;stroke-linecap:round;"/>
    <path clip-path="url(#pf1992bfe76)" d="M 232.996018 466.527368 
L 229.037063 464.447302 
L 233.076489 462.528178 
L 232.996018 466.527368 
z
" style="stroke:#000000;stroke-linecap:round;"/>
   </g>
   <g id="patch_42">
    <path clip-path="url(#pf1992bfe76)" d="M 690.998512 468.128016 
Q 809.482226 347.849967 927.181335 228.368405 
" style="fill:none;stroke:#000000;stroke-linecap:round;"/>
    <path clip-path="url(#pf1992bfe76)" d="M 922.949442 229.814462 
L 927.181335 228.368405 
L 925.799044 232.621554 
L 922.949442 229.814462 
z
" style="stroke:#000000;stroke-linecap:round;"/>
   </g>
   <g id="patch_43">
    <path clip-path="url(#pf1992bfe76)" d="M 611.966012 378.463659 
Q 538.310065 541.89756 465.113495 704.312161 
" style="fill:none;stroke:#000000;stroke-linecap:round;"/>
    <path clip-path="url(#pf1992bfe76)" d="M 468.580388 701.487156 
L 465.113495 704.312161 
L 464.933626 699.843643 
L 468.580388 701.487156 
z
" style="stroke:#000000;stroke-linecap:round;"/>
   </g>
   <g id="patch_44">
    <path clip-path="url(#pf1992bfe76)" d="M 619.372191 377.866421 
Q 711.008691 516.505916 802.028701 654.212704 
" style="fill:none;stroke:#000000;stroke-linecap:round;"/>
    <path clip-path="url(#pf1992bfe76)" d="M 801.491553 649.772944 
L 802.028701 654.212704 
L 798.154604 651.978566 
L 801.491553 649.772944 
z
" style="stroke:#000000;stroke-linecap:round;"/>
   </g>
   <g id="patch_45">
    <path clip-path="url(#pf1992bfe76)" d="M 607.641285 373.212195 
Q 417.69703 418.013237 228.840949 462.557616 
" style="fill:none;stroke:#000000;stroke-linecap:round;"/>
    <path clip-path="url(#pf1992bfe76)" d="M 233.193253 463.585943 
L 228.840949 462.557616 
L 232.274993 459.69277 
L 233.193253 463.585943 
z
" style="stroke:#000000;stroke-linecap:round;"/>
   </g>
   <g id="patch_46">
    <path clip-path="url(#pf1992bfe76)" d="M 622.099534 368.185059 
Q 774.375127 296.947291 925.638024 226.183283 
" style="fill:none;stroke:#000000;stroke-linecap:round;"/>
    <path clip-path="url(#pf1992bfe76)" d="M 921.167408 226.066696 
L 925.638024 226.183283 
L 922.862385 229.689823 
L 921.167408 226.066696 
z
" style="stroke:#000000;stroke-linecap:round;"/>
   </g>
   <g id="patch_47">
    <path clip-path="url(#pf1992bfe76)" d="M 659.055042 433.536792 
Q 562.396647 569.746314 466.385283 705.04405 
" style="fill:none;stroke:#000000;stroke-linecap:round;"/>
    <path clip-path="url(#pf1992bfe76)" d="M 470.331219 702.939392 
L 466.385283 705.04405 
L 467.069118 700.624506 
L 470.331219 702.939392 
z
" style="stroke:#000000;stroke-linecap:round;"/>
   </g>
   <g id="patch_48">
    <path clip-path="url(#pf1992bfe76)" d="M 666.178032 433.765321 
Q 734.496545 544.403502 802.227643 654.090398 
" style="fill:none;stroke:#000000;stroke-linecap:round;"/>
    <path clip-path="url(#pf1992bfe76)" d="M 801.827758 649.636176 
L 802.227643 654.090398 
L 798.424334 651.737772 
L 801.827758 649.636176 
z
" style="stroke:#000000;stroke-linecap:round;"/>
   </g>
   <g id="patch_49">
    <path clip-path="url(#pf1992bfe76)" d="M 656.360813 428.800493 
Q 442.131002 446.285537 229.01552 463.679632 
" style="fill:none;stroke:#000000;stroke-linecap:round;"/>
    <path clip-path="url(#pf1992bfe76)" d="M 233.164959 465.347613 
L 229.01552 463.679632 
L 232.839568 461.36087 
L 233.164959 465.347613 
z
" style="stroke:#000000;stroke-linecap:round;"/>
   </g>
   <g id="patch_50">
    <path clip-path="url(#pf1992bfe76)" d="M 667.922254 424.367946 
Q 797.641014 325.62585 926.470153 227.560936 
" style="fill:none;stroke:#000000;stroke-linecap:round;"/>
    <path clip-path="url(#pf1992bfe76)" d="M 922.075969 228.392289 
L 926.470153 227.560936 
L 924.498725 231.575095 
L 922.075969 228.392289 
z
" style="stroke:#000000;stroke-linecap:round;"/>
   </g>
   <g id="patch_51">
    <path clip-path="url(#pf1992bfe76)" d="M 650.616276 576.752801 
Q 558.938269 642.114442 468.170619 706.827046 
" style="fill:none;stroke:#000000;stroke-linecap:round;"/>
    <path clip-path="url(#pf1992bfe76)" d="M 472.588646 706.133476 
L 468.170619 706.827046 
L 470.266579 702.876482 
L 472.588646 706.133476 
z
" style="stroke:#000000;stroke-linecap:round;"/>
   </g>
   <g id="patch_52">
    <path clip-path="url(#pf1992bfe76)" d="M 663.560706 576.201937 
Q 732.104969 616.72277 799.686794 656.674646 
" style="fill:none;stroke:#000000;stroke-linecap:round;"/>
    <path clip-path="url(#pf1992bfe76)" d="M 797.261253 652.917419 
L 799.686794 656.674646 
L 795.225688 656.360742 
L 797.261253 652.917419 
z
" style="stroke:#000000;stroke-linecap:round;"/>
   </g>
   <g id="patch_53">
    <path clip-path="url(#pf1992bfe76)" d="M 649.401901 570.407314 
Q 438.567478 518.127194 228.818224 466.116162 
" style="fill:none;stroke:#000000;stroke-linecap:round;"/>
    <path clip-path="url(#pf1992bfe76)" d="M 232.219287 469.020086 
L 228.818224 466.116162 
L 233.182001 465.137667 
L 232.219287 469.020086 
z
" style="stroke:#000000;stroke-linecap:round;"/>
   </g>
   <g id="patch_54">
    <path clip-path="url(#pf1992bfe76)" d="M 661.694009 566.200266 
Q 795.096613 397.119224 927.806696 228.915915 
" style="fill:none;stroke:#000000;stroke-linecap:round;"/>
    <path clip-path="url(#pf1992bfe76)" d="M 923.758924 230.817374 
L 927.806696 228.915915 
L 926.8992 233.295008 
L 923.758924 230.817374 
z
" style="stroke:#000000;stroke-linecap:round;"/>
   </g>
   <g id="patch_55">
    <path clip-path="url(#pf1992bfe76)" d="M 528.120602 476.499803 
Q 495.934694 590.753754 464.051943 703.931556 
" style="fill:none;stroke:#000000;stroke-linecap:round;"/>
    <path clip-path="url(#pf1992bfe76)" d="M 467.061622 700.623712 
L 464.051943 703.931556 
L 463.211475 699.539106 
L 467.061622 700.623712 
z
" style="stroke:#000000;stroke-linecap:round;"/>
   </g>
   <g id="patch_56">
    <path clip-path="url(#pf1992bfe76)" d="M 535.180514 473.946338 
Q 668.035038 565.407662 799.968656 656.235004 
" style="fill:none;stroke:#000000;stroke-linecap:round;"/>
    <path clip-path="url(#pf1992bfe76)" d="M 797.808023 652.319437 
L 799.968656 656.235004 
L 795.539823 655.614171 
L 797.808023 652.319437 
z
" style="stroke:#000000;stroke-linecap:round;"/>
   </g>
   <g id="patch_57">
    <path clip-path="url(#pf1992bfe76)" d="M 523.418277 470.164888 
Q 375.669134 467.292658 229.037813 464.442159 
" style="fill:none;stroke:#000000;stroke-linecap:round;"/>
    <path clip-path="url(#pf1992bfe76)" d="M 232.998185 466.519526 
L 229.037813 464.442159 
L 233.07593 462.520281 
L 232.998185 466.519526 
z
" style="stroke:#000000;stroke-linecap:round;"/>
   </g>
   <g id="patch_58">
    <path clip-path="url(#pf1992bfe76)" d="M 535.365244 466.914722 
Q 731.182496 346.632673 926.047086 226.935803 
" style="fill:none;stroke:#000000;stroke-linecap:round;"/>
    <path clip-path="url(#pf1992bfe76)" d="M 921.591938 227.32523 
L 926.047086 226.935803 
L 923.685538 230.733578 
L 921.591938 227.32523 
z
" style="stroke:#000000;stroke-linecap:round;"/>
   </g>
   <g id="patch_59">
    <path clip-path="url(#pf1992bfe76)" d="M 678.390282 528.878844 
Q 572.664717 617.971308 467.794109 706.343321 
" style="fill:none;stroke:#000000;stroke-linecap:round;"/>
    <path clip-path="url(#pf1992bfe76)" d="M 472.141675 705.295147 
L 467.794109 706.343321 
L 469.56411 702.236364 
L 472.141675 705.295147 
z
" style="stroke:#000000;stroke-linecap:round;"/>
   </g>
   <g id="patch_60">
    <path clip-path="url(#pf1992bfe76)" d="M 689.400436 529.662658 
Q 745.654281 592.68913 801.163644 654.881488 
" style="fill:none;stroke:#000000;stroke-linecap:round;"/>
    <path clip-path="url(#pf1992bfe76)" d="M 799.99221 650.565501 
L 801.163644 654.881488 
L 797.007994 653.229043 
L 799.99221 650.565501 
z
" style="stroke:#000000;stroke-linecap:round;"/>
   </g>
   <g id="patch_61">
    <path clip-path="url(#pf1992bfe76)" d="M 676.644639 522.936981 
Q 452.256106 494.027887 228.976441 465.261654 
" style="fill:none;stroke:#000000;stroke-linecap:round;"/>
    <path clip-path="url(#pf1992bfe76)" d="M 232.688094 467.756375 
L 228.976441 465.261654 
L 233.19921 463.789164 
L 232.688094 467.756375 
z
" style="stroke:#000000;stroke-linecap:round;"/>
   </g>
   <g id="patch_62">
    <path clip-path="url(#pf1992bfe76)" d="M 689.170239 517.98482 
Q 808.779292 372.968821 927.67695 228.81533 
" style="fill:none;stroke:#000000;stroke-linecap:round;"/>
    <path clip-path="url(#pf1992bfe76)" d="M 923.588888 230.628546 
L 927.67695 228.81533 
L 926.674686 233.173709 
L 923.588888 230.628546 
z
" style="stroke:#000000;stroke-linecap:round;"/>
   </g>
   <g id="patch_63">
    <path clip-path="url(#pf1992bfe76)" d="M 548.926797 526.499678 
Q 506.837692 615.939934 465.224639 704.368571 
" style="fill:none;stroke:#000000;stroke-linecap:round;"/>
    <path clip-path="url(#pf1992bfe76)" d="M 468.737453 701.600876 
L 465.224639 704.368571 
L 465.118172 699.897702 
L 468.737453 701.600876 
z
" style="stroke:#000000;stroke-linecap:round;"/>
   </g>
   <g id="patch_64">
    <path clip-path="url(#pf1992bfe76)" d="M 555.451702 524.361351 
Q 677.993371 590.905099 799.552522 656.91531 
" style="fill:none;stroke:#000000;stroke-linecap:round;"/>
    <path clip-path="url(#pf1992bfe76)" d="M 796.99178 653.248895 
L 799.552522 656.91531 
L 795.082945 656.764055 
L 796.99178 653.248895 
z
" style="stroke:#000000;stroke-linecap:round;"/>
   </g>
   <g id="patch_65">
    <path clip-path="url(#pf1992bfe76)" d="M 546.130345 521.112427 
Q 386.979023 493.259717 228.928998 465.599742 
" style="fill:none;stroke:#000000;stroke-linecap:round;"/>
    <path clip-path="url(#pf1992bfe76)" d="M 232.524339 468.259351 
L 228.928998 465.599742 
L 233.21389 464.319234 
L 232.524339 468.259351 
z
" style="stroke:#000000;stroke-linecap:round;"/>
   </g>
   <g id="patch_66">
    <path clip-path="url(#pf1992bfe76)" d="M 554.993676 518.888073 
Q 741.204466 372.922358 926.535338 227.646387 
" style="fill:none;stroke:#000000;stroke-linecap:round;"/>
    <path clip-path="url(#pf1992bfe76)" d="M 922.153401 228.540045 
L 926.535338 227.646387 
L 924.621103 231.688132 
L 922.153401 228.540045 
z
" style="stroke:#000000;stroke-linecap:round;"/>
   </g>
   <g id="patch_67">
    <path clip-path="url(#pf1992bfe76)" d="M 535.157629 414.731667 
Q 499.351103 559.842852 463.812419 703.86856 
" style="fill:none;stroke:#000000;stroke-linecap:round;"/>
    <path clip-path="url(#pf1992bfe76)" d="M 466.712447 700.464175 
L 463.812419 703.86856 
L 462.828927 699.505907 
L 466.712447 700.464175 
z
" style="stroke:#000000;stroke-linecap:round;"/>
   </g>
   <g id="patch_68">
    <path clip-path="url(#pf1992bfe76)" d="M 543.629137 412.243693 
Q 672.572522 534.169494 800.70354 655.327141 
" style="fill:none;stroke:#000000;stroke-linecap:round;"/>
    <path clip-path="url(#pf1992bfe76)" d="M 799.171246 651.125703 
L 800.70354 655.327141 
L 796.423013 654.032113 
L 799.171246 651.125703 
z
" style="stroke:#000000;stroke-linecap:round;"/>
   </g>
   <g id="patch_69">
    <path clip-path="url(#pf1992bfe76)" d="M 528.637808 407.804707 
Q 378.22681 435.46679 228.915406 462.926647 
" style="fill:none;stroke:#000000;stroke-linecap:round;"/>
    <path clip-path="url(#pf1992bfe76)" d="M 233.211182 464.170153 
L 228.915406 462.926647 
L 232.487676 460.23613 
L 233.211182 464.170153 
z
" style="stroke:#000000;stroke-linecap:round;"/>
   </g>
   <g id="patch_70">
    <path clip-path="url(#pf1992bfe76)" d="M 545.209678 402.532745 
Q 735.9246 314.111488 925.625201 226.160501 
" style="fill:none;stroke:#000000;stroke-linecap:round;"/>
    <path clip-path="url(#pf1992bfe76)" d="M 921.155013 226.028518 
L 925.625201 226.160501 
L 922.837502 229.657462 
L 921.155013 226.028518 
z
" style="stroke:#000000;stroke-linecap:round;"/>
   </g>
   <g id="PathCollection_1">
    <path clip-path="url(#pf1992bfe76)" d="M 605.095649 419.550747 
C 609.288878 419.550747 613.310928 417.884759 616.275989 414.919699 
C 619.24105 411.954638 620.907038 407.932588 620.907038 403.739359 
C 620.907038 399.546129 619.24105 395.52408 616.275989 392.559019 
C 613.310928 389.593958 609.288878 387.92797 605.095649 387.92797 
C 600.90242 387.92797 596.88037 389.593958 593.915309 392.559019 
C 590.950249 395.52408 589.284261 399.546129 589.284261 403.739359 
C 589.284261 407.932588 590.950249 411.954638 593.915309 414.919699 
C 596.88037 417.884759 600.90242 419.550747 605.095649 419.550747 
z
" style="fill:#ead5c9;stroke:#ead5c9;"/>
    <path clip-path="url(#pf1992bfe76)" d="M 617.293974 489.037983 
C 619.694185 489.037983 621.996413 488.084369 623.693618 486.387164 
C 625.390824 484.689958 626.344438 482.38773 626.344438 479.987519 
C 626.344438 477.587308 625.390824 475.28508 623.693618 473.587875 
C 621.996413 471.890669 619.694185 470.937055 617.293974 470.937055 
C 614.893762 470.937055 612.591535 471.890669 610.894329 473.587875 
C 609.197123 475.28508 608.243509 477.587308 608.243509 479.987519 
C 608.243509 482.38773 609.197123 484.689958 610.894329 486.387164 
C 612.591535 488.084369 614.893762 489.037983 617.293974 489.037983 
z
" style="fill:#5b7ae5;stroke:#5b7ae5;"/>
    <path clip-path="url(#pf1992bfe76)" d="M 341.67535 537.177245 
C 344.6493 537.177245 347.501846 535.995682 349.604746 533.892782 
C 351.707647 531.789881 352.88921 528.937336 352.88921 525.963385 
C 352.88921 522.989435 351.707647 520.136889 349.604746 518.033989 
C 347.501846 515.931088 344.6493 514.749525 341.67535 514.749525 
C 338.7014 514.749525 335.848854 515.931088 333.745954 518.033989 
C 331.643053 520.136889 330.46149 522.989435 330.46149 525.963385 
C 330.46149 528.937336 331.643053 531.789881 333.745954 533.892782 
C 335.848854 535.995682 338.7014 537.177245 341.67535 537.177245 
z
" style="fill:#4c66d6;stroke:#4c66d6;"/>
    <path clip-path="url(#pf1992bfe76)" d="M 579.292263 453.703987 
C 582.058364 453.703987 584.711546 452.605003 586.667475 450.649074 
C 588.623405 448.693144 589.722389 446.039963 589.722389 443.273861 
C 589.722389 440.507759 588.623405 437.854577 586.667475 435.898648 
C 584.711546 433.942718 582.058364 432.843735 579.292263 432.843735 
C 576.526161 432.843735 573.872979 433.942718 571.91705 435.898648 
C 569.96112 437.854577 568.862136 440.507759 568.862136 443.273861 
C 568.862136 446.039963 569.96112 448.693144 571.91705 450.649074 
C 573.872979 452.605003 576.526161 453.703987 579.292263 453.703987 
z
" style="fill:#98b9ff;stroke:#98b9ff;"/>
    <path clip-path="url(#pf1992bfe76)" d="M 900.589297 541.708086 
C 902.28608 541.708086 903.913596 541.033947 905.113402 539.83414 
C 906.313209 538.634334 906.987348 537.006818 906.987348 535.310035 
C 906.987348 533.613252 906.313209 531.985737 905.113402 530.78593 
C 903.913596 529.586124 902.28608 528.911985 900.589297 528.911985 
C 898.892514 528.911985 897.264999 529.586124 896.065192 530.78593 
C 894.865386 531.985737 894.191247 533.613252 894.191247 535.310035 
C 894.191247 537.006818 894.865386 538.634334 896.065192 539.83414 
C 897.264999 541.033947 898.892514 541.708086 900.589297 541.708086 
z
" style="fill:#e2dad5;stroke:#e2dad5;"/>
    <path clip-path="url(#pf1992bfe76)" d="M 593.125604 582.226669 
C 595.166462 582.226669 597.124006 581.415828 598.56711 579.972724 
C 600.010215 578.529619 600.821056 576.572075 600.821056 574.531218 
C 600.821056 572.49036 600.010215 570.532816 598.56711 569.089712 
C 597.124006 567.646607 595.166462 566.835766 593.125604 566.835766 
C 591.084747 566.835766 589.127203 567.646607 587.684098 569.089712 
C 586.240994 570.532816 585.430153 572.49036 585.430153 574.531218 
C 585.430153 576.572075 586.240994 578.529619 587.684098 579.972724 
C 589.127203 581.415828 591.084747 582.226669 593.125604 582.226669 
z
" style="fill:#f18f71;stroke:#f18f71;"/>
    <path clip-path="url(#pf1992bfe76)" d="M 613.629046 535.161674 
C 615.953835 535.161674 618.18372 534.238026 619.827594 532.594152 
C 621.471468 530.950277 622.395117 528.720393 622.395117 526.395604 
C 622.395117 524.070814 621.471468 521.84093 619.827594 520.197056 
C 618.18372 518.553181 615.953835 517.629533 613.629046 517.629533 
C 611.304257 517.629533 609.074372 518.553181 607.430498 520.197056 
C 605.786624 521.84093 604.862976 524.070814 604.862976 526.395604 
C 604.862976 528.720393 605.786624 530.950277 607.430498 532.594152 
C 609.074372 534.238026 611.304257 535.161674 613.629046 535.161674 
z
" style="fill:#3b4cc0;stroke:#3b4cc0;"/>
    <path clip-path="url(#pf1992bfe76)" d="M 685.574954 481.362488 
C 687.62465 481.362488 689.590671 480.548135 691.040025 479.098781 
C 692.489379 477.649427 693.303732 475.683406 693.303732 473.63371 
C 693.303732 471.584014 692.489379 469.617992 691.040025 468.168638 
C 689.590671 466.719285 687.62465 465.904932 685.574954 465.904932 
C 683.525258 465.904932 681.559236 466.719285 680.109883 468.168638 
C 678.660529 469.617992 677.846176 471.584014 677.846176 473.63371 
C 677.846176 475.683406 678.660529 477.649427 680.109883 479.098781 
C 681.559236 480.548135 683.525258 481.362488 685.574954 481.362488 
z
" style="fill:#d2dbe8;stroke:#d2dbe8;"/>
    <path clip-path="url(#pf1992bfe76)" d="M 615.128621 379.141653 
C 617.169478 379.141653 619.127022 378.330811 620.570126 376.887707 
C 622.013231 375.444603 622.824072 373.487059 622.824072 371.446201 
C 622.824072 369.405344 622.013231 367.447799 620.570126 366.004695 
C 619.127022 364.561591 617.169478 363.75075 615.128621 363.75075 
C 613.087763 363.75075 611.130219 364.561591 609.687115 366.004695 
C 608.24401 367.447799 607.433169 369.405344 607.433169 371.446201 
C 607.433169 373.487059 608.24401 375.444603 609.687115 376.887707 
C 611.130219 378.330811 613.087763 379.141653 615.128621 379.141653 
z
" style="fill:#98b9ff;stroke:#98b9ff;"/>
    <path clip-path="url(#pf1992bfe76)" d="M 662.788337 434.725383 
C 664.498762 434.725383 666.139363 434.045823 667.348817 432.83637 
C 668.55827 431.626917 669.237829 429.986316 669.237829 428.27589 
C 669.237829 426.565465 668.55827 424.924864 667.348817 423.71541 
C 666.139363 422.505957 664.498762 421.826398 662.788337 421.826398 
C 661.077911 421.826398 659.43731 422.505957 658.227857 423.71541 
C 657.018404 424.924864 656.338844 426.565465 656.338844 428.27589 
C 656.338844 429.986316 657.018404 431.626917 658.227857 432.83637 
C 659.43731 434.045823 661.077911 434.725383 662.788337 434.725383 
z
" style="fill:#92b4fe;stroke:#92b4fe;"/>
    <path clip-path="url(#pf1992bfe76)" d="M 656.906487 579.996986 
C 658.956183 579.996986 660.922204 579.182634 662.371558 577.73328 
C 663.820912 576.283926 664.635265 574.317904 664.635265 572.268209 
C 664.635265 570.218513 663.820912 568.252491 662.371558 566.803137 
C 660.922204 565.353783 658.956183 564.539431 656.906487 564.539431 
C 654.856791 564.539431 652.890769 565.353783 651.441416 566.803137 
C 649.992062 568.252491 649.177709 570.218513 649.177709 572.268209 
C 649.177709 574.317904 649.992062 576.283926 651.441416 577.73328 
C 652.890769 579.182634 654.856791 579.996986 656.906487 579.996986 
z
" style="fill:#4e68d8;stroke:#4e68d8;"/>
    <path clip-path="url(#pf1992bfe76)" d="M 529.869848 476.739798 
C 531.580273 476.739798 533.220875 476.060239 534.430328 474.850785 
C 535.639781 473.641332 536.319341 472.000731 536.319341 470.290305 
C 536.319341 468.57988 535.639781 466.939279 534.430328 465.729826 
C 533.220875 464.520372 531.580273 463.840813 529.869848 463.840813 
C 528.159423 463.840813 526.518822 464.520372 525.309368 465.729826 
C 524.099915 466.939279 523.420356 468.57988 523.420356 470.290305 
C 523.420356 472.000731 524.099915 473.641332 525.309368 474.850785 
C 526.518822 476.060239 528.159423 476.739798 529.869848 476.739798 
z
" style="fill:#b7cff9;stroke:#b7cff9;"/>
    <path clip-path="url(#pf1992bfe76)" d="M 684.274888 531.615476 
C 686.315745 531.615476 688.273289 530.804635 689.716394 529.36153 
C 691.159498 527.918426 691.970339 525.960882 691.970339 523.920024 
C 691.970339 521.879167 691.159498 519.921623 689.716394 518.478518 
C 688.273289 517.035414 686.315745 516.224573 684.274888 516.224573 
C 682.23403 516.224573 680.276486 517.035414 678.833382 518.478518 
C 677.390278 519.921623 676.579436 521.879167 676.579436 523.920024 
C 676.579436 525.960882 677.390278 527.918426 678.833382 529.36153 
C 680.276486 530.804635 682.23403 531.615476 684.274888 531.615476 
z
" style="fill:#f5a081;stroke:#f5a081;"/>
    <path clip-path="url(#pf1992bfe76)" d="M 551.05627 526.974502 
C 552.382286 526.974502 553.65417 526.447671 554.591804 525.510036 
C 555.529439 524.572401 556.05627 523.300518 556.05627 521.974502 
C 556.05627 520.648487 555.529439 519.376603 554.591804 518.438968 
C 553.65417 517.501334 552.382286 516.974502 551.05627 516.974502 
C 549.730255 516.974502 548.458371 517.501334 547.520736 518.438968 
C 546.583102 519.376603 546.05627 520.648487 546.05627 521.974502 
C 546.05627 523.300518 546.583102 524.572401 547.520736 525.510036 
C 548.458371 526.447671 549.730255 526.974502 551.05627 526.974502 
z
" style="fill:#a2c1ff;stroke:#a2c1ff;"/>
    <path clip-path="url(#pf1992bfe76)" d="M 537.258062 414.985427 
C 539.582851 414.985427 541.812736 414.061778 543.45661 412.417904 
C 545.100484 410.77403 546.024133 408.544145 546.024133 406.219356 
C 546.024133 403.894567 545.100484 401.664682 543.45661 400.020808 
C 541.812736 398.376934 539.582851 397.453286 537.258062 397.453286 
C 534.933273 397.453286 532.703388 398.376934 531.059514 400.020808 
C 529.41564 401.664682 528.491992 403.894567 528.491992 406.219356 
C 528.491992 408.544145 529.41564 410.77403 531.059514 412.417904 
C 532.703388 414.061778 534.933273 414.985427 537.258062 414.985427 
z
" style="fill:#efcfbf;stroke:#efcfbf;"/>
    <path clip-path="url(#pf1992bfe76)" d="M 461.996191 717.69564 
C 463.71114 717.69564 465.35608 717.014283 466.568732 715.801631 
C 467.781384 714.588979 468.46274 712.94404 468.46274 711.229091 
C 468.46274 709.514142 467.781384 707.869202 466.568732 706.65655 
C 465.35608 705.443898 463.71114 704.762542 461.996191 704.762542 
C 460.281242 704.762542 458.636303 705.443898 457.423651 706.65655 
C 456.210999 707.869202 455.529642 709.514142 455.529642 711.229091 
C 455.529642 712.94404 456.210999 714.588979 457.423651 715.801631 
C 458.636303 717.014283 460.281242 717.69564 461.996191 717.69564 
z
" style="fill:#e1dad6;stroke:#e1dad6;"/>
    <path clip-path="url(#pf1992bfe76)" d="M 806.201551 666.975422 
C 807.911976 666.975422 809.552578 666.295863 810.762031 665.08641 
C 811.971484 663.876956 812.651044 662.236355 812.651044 660.52593 
C 812.651044 658.815504 811.971484 657.174903 810.762031 655.96545 
C 809.552578 654.755996 807.911976 654.076437 806.201551 654.076437 
C 804.491126 654.076437 802.850525 654.755996 801.641071 655.96545 
C 800.431618 657.174903 799.752059 658.815504 799.752059 660.52593 
C 799.752059 662.236355 800.431618 663.876956 801.641071 665.08641 
C 802.850525 666.295863 804.491126 666.975422 806.201551 666.975422 
z
" style="fill:#6180e9;stroke:#6180e9;"/>
    <path clip-path="url(#pf1992bfe76)" d="M 221.47438 470.744619 
C 223.184806 470.744619 224.825407 470.065059 226.03486 468.855606 
C 227.244313 467.646153 227.923873 466.005551 227.923873 464.295126 
C 227.923873 462.584701 227.244313 460.9441 226.03486 459.734646 
C 224.825407 458.525193 223.184806 457.845634 221.47438 457.845634 
C 219.763955 457.845634 218.123354 458.525193 216.9139 459.734646 
C 215.704447 460.9441 215.024888 462.584701 215.024888 464.295126 
C 215.024888 466.005551 215.704447 467.646153 216.9139 468.855606 
C 218.123354 470.065059 219.763955 470.744619 221.47438 470.744619 
z
" style="fill:#b40426;stroke:#b40426;"/>
    <path clip-path="url(#pf1992bfe76)" d="M 932.492854 229.42594 
C 934.20328 229.42594 935.843881 228.746381 937.053334 227.536927 
C 938.262787 226.327474 938.942347 224.686873 938.942347 222.976447 
C 938.942347 221.266022 938.262787 219.625421 937.053334 218.415968 
C 935.843881 217.206514 934.20328 216.526955 932.492854 216.526955 
C 930.782429 216.526955 929.141828 217.206514 927.932374 218.415968 
C 926.722921 219.625421 926.043362 221.266022 926.043362 222.976447 
C 926.043362 224.686873 926.722921 226.327474 927.932374 227.536927 
C 929.141828 228.746381 930.782429 229.42594 932.492854 229.42594 
z
" style="fill:#f5c1a9;stroke:#f5c1a9;"/>
    <path clip-path="url(#pf1992bfe76)" d="M 959.32562 472.203018 
C 961.022403 472.203018 962.649918 471.528879 963.849725 470.329072 
C 965.049532 469.129266 965.72367 467.50175 965.72367 465.804967 
C 965.72367 464.108184 965.049532 462.480669 963.849725 461.280862 
C 962.649918 460.081056 961.022403 459.406917 959.32562 459.406917 
C 957.628837 459.406917 956.001322 460.081056 954.801515 461.280862 
C 953.601708 462.480669 952.927569 464.108184 952.927569 465.804967 
C 952.927569 467.50175 953.601708 469.129266 954.801515 470.329072 
C 956.001322 471.528879 957.628837 472.203018 959.32562 472.203018 
z
" style="fill:#89acfd;stroke:#89acfd;"/>
    <path clip-path="url(#pf1992bfe76)" d="M 303.000953 645.993995 
C 304.697736 645.993995 306.325252 645.319856 307.525058 644.120049 
C 308.724865 642.920243 309.399004 641.292727 309.399004 639.595944 
C 309.399004 637.899162 308.724865 636.271646 307.525058 635.071839 
C 306.325252 633.872033 304.697736 633.197894 303.000953 633.197894 
C 301.30417 633.197894 299.676655 633.872033 298.476848 635.071839 
C 297.277042 636.271646 296.602903 637.899162 296.602903 639.595944 
C 296.602903 641.292727 297.277042 642.920243 298.476848 644.120049 
C 299.676655 645.319856 301.30417 645.993995 303.000953 645.993995 
z
" style="fill:#3e51c5;stroke:#3e51c5;"/>
    <path clip-path="url(#pf1992bfe76)" d="M 307.479645 167.80896 
C 309.176428 167.80896 310.803944 167.134821 312.00375 165.935014 
C 313.203557 164.735207 313.877696 163.107692 313.877696 161.410909 
C 313.877696 159.714126 313.203557 158.086611 312.00375 156.886804 
C 310.803944 155.686997 309.176428 155.012858 307.479645 155.012858 
C 305.782862 155.012858 304.155347 155.686997 302.95554 156.886804 
C 301.755733 158.086611 301.081595 159.714126 301.081595 161.410909 
C 301.081595 163.107692 301.755733 164.735207 302.95554 165.935014 
C 304.155347 167.134821 305.782862 167.80896 307.479645 167.80896 
z
" style="fill:#6687ed;stroke:#6687ed;"/>
   </g>
   <g id="text_1">
    <g clip-path="url(#pf1992bfe76)">
     <!-- RASD1 -->
     <g transform="translate(588.195649 406.498734)scale(0.1 -0.1)">
      <defs>
       <path d="M 44.390625 34.1875 
Q 47.5625 33.109375 50.5625 29.59375 
Q 53.5625 26.078125 56.59375 19.921875 
L 66.609375 0 
L 56 0 
L 46.6875 18.703125 
Q 43.0625 26.03125 39.671875 28.421875 
Q 36.28125 30.8125 30.421875 30.8125 
L 19.671875 30.8125 
L 19.671875 0 
L 9.8125 0 
L 9.8125 72.90625 
L 32.078125 72.90625 
Q 44.578125 72.90625 50.734375 67.671875 
Q 56.890625 62.453125 56.890625 51.90625 
Q 56.890625 45.015625 53.6875 40.46875 
Q 50.484375 35.9375 44.390625 34.1875 
z
M 19.671875 64.796875 
L 19.671875 38.921875 
L 32.078125 38.921875 
Q 39.203125 38.921875 42.84375 42.21875 
Q 46.484375 45.515625 46.484375 51.90625 
Q 46.484375 58.296875 42.84375 61.546875 
Q 39.203125 64.796875 32.078125 64.796875 
z
" id="DejaVuSans-82"/>
       <path d="M 34.1875 63.1875 
L 20.796875 26.90625 
L 47.609375 26.90625 
z
M 28.609375 72.90625 
L 39.796875 72.90625 
L 67.578125 0 
L 57.328125 0 
L 50.6875 18.703125 
L 17.828125 18.703125 
L 11.1875 0 
L 0.78125 0 
z
" id="DejaVuSans-65"/>
       <path d="M 53.515625 70.515625 
L 53.515625 60.890625 
Q 47.90625 63.578125 42.921875 64.890625 
Q 37.9375 66.21875 33.296875 66.21875 
Q 25.25 66.21875 20.875 63.09375 
Q 16.5 59.96875 16.5 54.203125 
Q 16.5 49.359375 19.40625 46.890625 
Q 22.3125 44.4375 30.421875 42.921875 
L 36.375 41.703125 
Q 47.40625 39.59375 52.65625 34.296875 
Q 57.90625 29 57.90625 20.125 
Q 57.90625 9.515625 50.796875 4.046875 
Q 43.703125 -1.421875 29.984375 -1.421875 
Q 24.8125 -1.421875 18.96875 -0.25 
Q 13.140625 0.921875 6.890625 3.21875 
L 6.890625 13.375 
Q 12.890625 10.015625 18.65625 8.296875 
Q 24.421875 6.59375 29.984375 6.59375 
Q 38.421875 6.59375 43.015625 9.90625 
Q 47.609375 13.234375 47.609375 19.390625 
Q 47.609375 24.75 44.3125 27.78125 
Q 41.015625 30.8125 33.5 32.328125 
L 27.484375 33.5 
Q 16.453125 35.6875 11.515625 40.375 
Q 6.59375 45.0625 6.59375 53.421875 
Q 6.59375 63.09375 13.40625 68.65625 
Q 20.21875 74.21875 32.171875 74.21875 
Q 37.3125 74.21875 42.625 73.28125 
Q 47.953125 72.359375 53.515625 70.515625 
z
" id="DejaVuSans-83"/>
       <path d="M 19.671875 64.796875 
L 19.671875 8.109375 
L 31.59375 8.109375 
Q 46.6875 8.109375 53.6875 14.9375 
Q 60.6875 21.78125 60.6875 36.53125 
Q 60.6875 51.171875 53.6875 57.984375 
Q 46.6875 64.796875 31.59375 64.796875 
z
M 9.8125 72.90625 
L 30.078125 72.90625 
Q 51.265625 72.90625 61.171875 64.09375 
Q 71.09375 55.28125 71.09375 36.53125 
Q 71.09375 17.671875 61.125 8.828125 
Q 51.171875 0 30.078125 0 
L 9.8125 0 
z
" id="DejaVuSans-68"/>
       <path d="M 12.40625 8.296875 
L 28.515625 8.296875 
L 28.515625 63.921875 
L 10.984375 60.40625 
L 10.984375 69.390625 
L 28.421875 72.90625 
L 38.28125 72.90625 
L 38.28125 8.296875 
L 54.390625 8.296875 
L 54.390625 0 
L 12.40625 0 
z
" id="DejaVuSans-49"/>
      </defs>
      <use xlink:href="#DejaVuSans-82"/>
      <use x="65.482422" xlink:href="#DejaVuSans-65"/>
      <use x="133.890625" xlink:href="#DejaVuSans-83"/>
      <use x="197.367188" xlink:href="#DejaVuSans-68"/>
      <use x="274.369141" xlink:href="#DejaVuSans-49"/>
     </g>
    </g>
   </g>
   <g id="text_2">
    <g clip-path="url(#pf1992bfe76)">
     <!-- GNAS -->
     <g transform="translate(603.084599 482.746894)scale(0.1 -0.1)">
      <defs>
       <path d="M 59.515625 10.40625 
L 59.515625 29.984375 
L 43.40625 29.984375 
L 43.40625 38.09375 
L 69.28125 38.09375 
L 69.28125 6.78125 
Q 63.578125 2.734375 56.6875 0.65625 
Q 49.8125 -1.421875 42 -1.421875 
Q 24.90625 -1.421875 15.25 8.5625 
Q 5.609375 18.5625 5.609375 36.375 
Q 5.609375 54.25 15.25 64.234375 
Q 24.90625 74.21875 42 74.21875 
Q 49.125 74.21875 55.546875 72.453125 
Q 61.96875 70.703125 67.390625 67.28125 
L 67.390625 56.78125 
Q 61.921875 61.421875 55.765625 63.765625 
Q 49.609375 66.109375 42.828125 66.109375 
Q 29.4375 66.109375 22.71875 58.640625 
Q 16.015625 51.171875 16.015625 36.375 
Q 16.015625 21.625 22.71875 14.15625 
Q 29.4375 6.6875 42.828125 6.6875 
Q 48.046875 6.6875 52.140625 7.59375 
Q 56.25 8.5 59.515625 10.40625 
z
" id="DejaVuSans-71"/>
       <path d="M 9.8125 72.90625 
L 23.09375 72.90625 
L 55.421875 11.921875 
L 55.421875 72.90625 
L 64.984375 72.90625 
L 64.984375 0 
L 51.703125 0 
L 19.390625 60.984375 
L 19.390625 0 
L 9.8125 0 
z
" id="DejaVuSans-78"/>
      </defs>
      <use xlink:href="#DejaVuSans-71"/>
      <use x="77.490234" xlink:href="#DejaVuSans-78"/>
      <use x="152.294922" xlink:href="#DejaVuSans-65"/>
      <use x="220.703125" xlink:href="#DejaVuSans-83"/>
     </g>
    </g>
   </g>
   <g id="text_3">
    <g clip-path="url(#pf1992bfe76)">
     <!-- RPS6KA5 -->
     <g transform="translate(319.03785 528.72276)scale(0.1 -0.1)">
      <defs>
       <path d="M 19.671875 64.796875 
L 19.671875 37.40625 
L 32.078125 37.40625 
Q 38.96875 37.40625 42.71875 40.96875 
Q 46.484375 44.53125 46.484375 51.125 
Q 46.484375 57.671875 42.71875 61.234375 
Q 38.96875 64.796875 32.078125 64.796875 
z
M 9.8125 72.90625 
L 32.078125 72.90625 
Q 44.34375 72.90625 50.609375 67.359375 
Q 56.890625 61.8125 56.890625 51.125 
Q 56.890625 40.328125 50.609375 34.8125 
Q 44.34375 29.296875 32.078125 29.296875 
L 19.671875 29.296875 
L 19.671875 0 
L 9.8125 0 
z
" id="DejaVuSans-80"/>
       <path d="M 33.015625 40.375 
Q 26.375 40.375 22.484375 35.828125 
Q 18.609375 31.296875 18.609375 23.390625 
Q 18.609375 15.53125 22.484375 10.953125 
Q 26.375 6.390625 33.015625 6.390625 
Q 39.65625 6.390625 43.53125 10.953125 
Q 47.40625 15.53125 47.40625 23.390625 
Q 47.40625 31.296875 43.53125 35.828125 
Q 39.65625 40.375 33.015625 40.375 
z
M 52.59375 71.296875 
L 52.59375 62.3125 
Q 48.875 64.0625 45.09375 64.984375 
Q 41.3125 65.921875 37.59375 65.921875 
Q 27.828125 65.921875 22.671875 59.328125 
Q 17.53125 52.734375 16.796875 39.40625 
Q 19.671875 43.65625 24.015625 45.921875 
Q 28.375 48.1875 33.59375 48.1875 
Q 44.578125 48.1875 50.953125 41.515625 
Q 57.328125 34.859375 57.328125 23.390625 
Q 57.328125 12.15625 50.6875 5.359375 
Q 44.046875 -1.421875 33.015625 -1.421875 
Q 20.359375 -1.421875 13.671875 8.265625 
Q 6.984375 17.96875 6.984375 36.375 
Q 6.984375 53.65625 15.1875 63.9375 
Q 23.390625 74.21875 37.203125 74.21875 
Q 40.921875 74.21875 44.703125 73.484375 
Q 48.484375 72.75 52.59375 71.296875 
z
" id="DejaVuSans-54"/>
       <path d="M 9.8125 72.90625 
L 19.671875 72.90625 
L 19.671875 42.09375 
L 52.390625 72.90625 
L 65.09375 72.90625 
L 28.90625 38.921875 
L 67.671875 0 
L 54.6875 0 
L 19.671875 35.109375 
L 19.671875 0 
L 9.8125 0 
z
" id="DejaVuSans-75"/>
       <path d="M 10.796875 72.90625 
L 49.515625 72.90625 
L 49.515625 64.59375 
L 19.828125 64.59375 
L 19.828125 46.734375 
Q 21.96875 47.46875 24.109375 47.828125 
Q 26.265625 48.1875 28.421875 48.1875 
Q 40.625 48.1875 47.75 41.5 
Q 54.890625 34.8125 54.890625 23.390625 
Q 54.890625 11.625 47.5625 5.09375 
Q 40.234375 -1.421875 26.90625 -1.421875 
Q 22.3125 -1.421875 17.546875 -0.640625 
Q 12.796875 0.140625 7.71875 1.703125 
L 7.71875 11.625 
Q 12.109375 9.234375 16.796875 8.0625 
Q 21.484375 6.890625 26.703125 6.890625 
Q 35.15625 6.890625 40.078125 11.328125 
Q 45.015625 15.765625 45.015625 23.390625 
Q 45.015625 31 40.078125 35.4375 
Q 35.15625 39.890625 26.703125 39.890625 
Q 22.75 39.890625 18.8125 39.015625 
Q 14.890625 38.140625 10.796875 36.28125 
z
" id="DejaVuSans-53"/>
      </defs>
      <use xlink:href="#DejaVuSans-82"/>
      <use x="69.482422" xlink:href="#DejaVuSans-80"/>
      <use x="129.785156" xlink:href="#DejaVuSans-83"/>
      <use x="193.261719" xlink:href="#DejaVuSans-54"/>
      <use x="256.884766" xlink:href="#DejaVuSans-75"/>
      <use x="320.710938" xlink:href="#DejaVuSans-65"/>
      <use x="389.119141" xlink:href="#DejaVuSans-53"/>
     </g>
    </g>
   </g>
   <g id="text_4">
    <g clip-path="url(#pf1992bfe76)">
     <!-- CREB1 -->
     <g transform="translate(562.555544 446.033236)scale(0.1 -0.1)">
      <defs>
       <path d="M 64.40625 67.28125 
L 64.40625 56.890625 
Q 59.421875 61.53125 53.78125 63.8125 
Q 48.140625 66.109375 41.796875 66.109375 
Q 29.296875 66.109375 22.65625 58.46875 
Q 16.015625 50.828125 16.015625 36.375 
Q 16.015625 21.96875 22.65625 14.328125 
Q 29.296875 6.6875 41.796875 6.6875 
Q 48.140625 6.6875 53.78125 8.984375 
Q 59.421875 11.28125 64.40625 15.921875 
L 64.40625 5.609375 
Q 59.234375 2.09375 53.4375 0.328125 
Q 47.65625 -1.421875 41.21875 -1.421875 
Q 24.65625 -1.421875 15.125 8.703125 
Q 5.609375 18.84375 5.609375 36.375 
Q 5.609375 53.953125 15.125 64.078125 
Q 24.65625 74.21875 41.21875 74.21875 
Q 47.75 74.21875 53.53125 72.484375 
Q 59.328125 70.75 64.40625 67.28125 
z
" id="DejaVuSans-67"/>
       <path d="M 9.8125 72.90625 
L 55.90625 72.90625 
L 55.90625 64.59375 
L 19.671875 64.59375 
L 19.671875 43.015625 
L 54.390625 43.015625 
L 54.390625 34.71875 
L 19.671875 34.71875 
L 19.671875 8.296875 
L 56.78125 8.296875 
L 56.78125 0 
L 9.8125 0 
z
" id="DejaVuSans-69"/>
       <path d="M 19.671875 34.8125 
L 19.671875 8.109375 
L 35.5 8.109375 
Q 43.453125 8.109375 47.28125 11.40625 
Q 51.125 14.703125 51.125 21.484375 
Q 51.125 28.328125 47.28125 31.5625 
Q 43.453125 34.8125 35.5 34.8125 
z
M 19.671875 64.796875 
L 19.671875 42.828125 
L 34.28125 42.828125 
Q 41.5 42.828125 45.03125 45.53125 
Q 48.578125 48.25 48.578125 53.8125 
Q 48.578125 59.328125 45.03125 62.0625 
Q 41.5 64.796875 34.28125 64.796875 
z
M 9.8125 72.90625 
L 35.015625 72.90625 
Q 46.296875 72.90625 52.390625 68.21875 
Q 58.5 63.53125 58.5 54.890625 
Q 58.5 48.1875 55.375 44.234375 
Q 52.25 40.28125 46.1875 39.3125 
Q 53.46875 37.75 57.5 32.78125 
Q 61.53125 27.828125 61.53125 20.40625 
Q 61.53125 10.640625 54.890625 5.3125 
Q 48.25 0 35.984375 0 
L 9.8125 0 
z
" id="DejaVuSans-66"/>
      </defs>
      <use xlink:href="#DejaVuSans-67"/>
      <use x="69.824219" xlink:href="#DejaVuSans-82"/>
      <use x="139.306641" xlink:href="#DejaVuSans-69"/>
      <use x="202.490234" xlink:href="#DejaVuSans-66"/>
      <use x="271.09375" xlink:href="#DejaVuSans-49"/>
     </g>
    </g>
   </g>
   <g id="text_5">
    <g clip-path="url(#pf1992bfe76)">
     <!-- FOS -->
     <g transform="translate(890.60336 538.06941)scale(0.1 -0.1)">
      <defs>
       <path d="M 9.8125 72.90625 
L 51.703125 72.90625 
L 51.703125 64.59375 
L 19.671875 64.59375 
L 19.671875 43.109375 
L 48.578125 43.109375 
L 48.578125 34.8125 
L 19.671875 34.8125 
L 19.671875 0 
L 9.8125 0 
z
" id="DejaVuSans-70"/>
       <path d="M 39.40625 66.21875 
Q 28.65625 66.21875 22.328125 58.203125 
Q 16.015625 50.203125 16.015625 36.375 
Q 16.015625 22.609375 22.328125 14.59375 
Q 28.65625 6.59375 39.40625 6.59375 
Q 50.140625 6.59375 56.421875 14.59375 
Q 62.703125 22.609375 62.703125 36.375 
Q 62.703125 50.203125 56.421875 58.203125 
Q 50.140625 66.21875 39.40625 66.21875 
z
M 39.40625 74.21875 
Q 54.734375 74.21875 63.90625 63.9375 
Q 73.09375 53.65625 73.09375 36.375 
Q 73.09375 19.140625 63.90625 8.859375 
Q 54.734375 -1.421875 39.40625 -1.421875 
Q 24.03125 -1.421875 14.8125 8.828125 
Q 5.609375 19.09375 5.609375 36.375 
Q 5.609375 53.65625 14.8125 63.9375 
Q 24.03125 74.21875 39.40625 74.21875 
z
" id="DejaVuSans-79"/>
      </defs>
      <use xlink:href="#DejaVuSans-70"/>
      <use x="57.519531" xlink:href="#DejaVuSans-79"/>
      <use x="136.230469" xlink:href="#DejaVuSans-83"/>
     </g>
    </g>
   </g>
   <g id="text_6">
    <g clip-path="url(#pf1992bfe76)">
     <!-- GNB1 -->
     <g transform="translate(578.899042 577.290593)scale(0.1 -0.1)">
      <use xlink:href="#DejaVuSans-71"/>
      <use x="77.490234" xlink:href="#DejaVuSans-78"/>
      <use x="152.294922" xlink:href="#DejaVuSans-66"/>
      <use x="220.898438" xlink:href="#DejaVuSans-49"/>
     </g>
    </g>
   </g>
   <g id="text_7">
    <g clip-path="url(#pf1992bfe76)">
     <!-- GNB2 -->
     <g transform="translate(599.402484 529.154979)scale(0.1 -0.1)">
      <defs>
       <path d="M 19.1875 8.296875 
L 53.609375 8.296875 
L 53.609375 0 
L 7.328125 0 
L 7.328125 8.296875 
Q 12.9375 14.109375 22.625 23.890625 
Q 32.328125 33.6875 34.8125 36.53125 
Q 39.546875 41.84375 41.421875 45.53125 
Q 43.3125 49.21875 43.3125 52.78125 
Q 43.3125 58.59375 39.234375 62.25 
Q 35.15625 65.921875 28.609375 65.921875 
Q 23.96875 65.921875 18.8125 64.3125 
Q 13.671875 62.703125 7.8125 59.421875 
L 7.8125 69.390625 
Q 13.765625 71.78125 18.9375 73 
Q 24.125 74.21875 28.421875 74.21875 
Q 39.75 74.21875 46.484375 68.546875 
Q 53.21875 62.890625 53.21875 53.421875 
Q 53.21875 48.921875 51.53125 44.890625 
Q 49.859375 40.875 45.40625 35.40625 
Q 44.1875 33.984375 37.640625 27.21875 
Q 31.109375 20.453125 19.1875 8.296875 
z
" id="DejaVuSans-50"/>
      </defs>
      <use xlink:href="#DejaVuSans-71"/>
      <use x="77.490234" xlink:href="#DejaVuSans-78"/>
      <use x="152.294922" xlink:href="#DejaVuSans-66"/>
      <use x="220.898438" xlink:href="#DejaVuSans-50"/>
     </g>
    </g>
   </g>
   <g id="text_8">
    <g clip-path="url(#pf1992bfe76)">
     <!-- GNB4 -->
     <g transform="translate(671.348391 476.393085)scale(0.1 -0.1)">
      <defs>
       <path d="M 37.796875 64.3125 
L 12.890625 25.390625 
L 37.796875 25.390625 
z
M 35.203125 72.90625 
L 47.609375 72.90625 
L 47.609375 25.390625 
L 58.015625 25.390625 
L 58.015625 17.1875 
L 47.609375 17.1875 
L 47.609375 0 
L 37.796875 0 
L 37.796875 17.1875 
L 4.890625 17.1875 
L 4.890625 26.703125 
z
" id="DejaVuSans-52"/>
      </defs>
      <use xlink:href="#DejaVuSans-71"/>
      <use x="77.490234" xlink:href="#DejaVuSans-78"/>
      <use x="152.294922" xlink:href="#DejaVuSans-66"/>
      <use x="220.898438" xlink:href="#DejaVuSans-52"/>
     </g>
    </g>
   </g>
   <g id="text_9">
    <g clip-path="url(#pf1992bfe76)">
     <!-- GNB5 -->
     <g transform="translate(600.902058 374.205576)scale(0.1 -0.1)">
      <use xlink:href="#DejaVuSans-71"/>
      <use x="77.490234" xlink:href="#DejaVuSans-78"/>
      <use x="152.294922" xlink:href="#DejaVuSans-66"/>
      <use x="220.898438" xlink:href="#DejaVuSans-53"/>
     </g>
    </g>
   </g>
   <g id="text_10">
    <g clip-path="url(#pf1992bfe76)">
     <!-- GNG2 -->
     <g transform="translate(648.118024 431.035265)scale(0.1 -0.1)">
      <use xlink:href="#DejaVuSans-71"/>
      <use x="77.490234" xlink:href="#DejaVuSans-78"/>
      <use x="152.294922" xlink:href="#DejaVuSans-71"/>
      <use x="229.785156" xlink:href="#DejaVuSans-50"/>
     </g>
    </g>
   </g>
   <g id="text_11">
    <g clip-path="url(#pf1992bfe76)">
     <!-- GNG5 -->
     <g transform="translate(642.236174 575.027584)scale(0.1 -0.1)">
      <use xlink:href="#DejaVuSans-71"/>
      <use x="77.490234" xlink:href="#DejaVuSans-78"/>
      <use x="152.294922" xlink:href="#DejaVuSans-71"/>
      <use x="229.785156" xlink:href="#DejaVuSans-53"/>
     </g>
    </g>
   </g>
   <g id="text_12">
    <g clip-path="url(#pf1992bfe76)">
     <!-- GNG7 -->
     <g transform="translate(515.199536 473.04968)scale(0.1 -0.1)">
      <defs>
       <path d="M 8.203125 72.90625 
L 55.078125 72.90625 
L 55.078125 68.703125 
L 28.609375 0 
L 18.3125 0 
L 43.21875 64.59375 
L 8.203125 64.59375 
z
" id="DejaVuSans-55"/>
      </defs>
      <use xlink:href="#DejaVuSans-71"/>
      <use x="77.490234" xlink:href="#DejaVuSans-78"/>
      <use x="152.294922" xlink:href="#DejaVuSans-71"/>
      <use x="229.785156" xlink:href="#DejaVuSans-55"/>
     </g>
    </g>
   </g>
   <g id="text_13">
    <g clip-path="url(#pf1992bfe76)">
     <!-- GNG10 -->
     <g transform="translate(666.423325 526.679399)scale(0.1 -0.1)">
      <defs>
       <path d="M 31.78125 66.40625 
Q 24.171875 66.40625 20.328125 58.90625 
Q 16.5 51.421875 16.5 36.375 
Q 16.5 21.390625 20.328125 13.890625 
Q 24.171875 6.390625 31.78125 6.390625 
Q 39.453125 6.390625 43.28125 13.890625 
Q 47.125 21.390625 47.125 36.375 
Q 47.125 51.421875 43.28125 58.90625 
Q 39.453125 66.40625 31.78125 66.40625 
z
M 31.78125 74.21875 
Q 44.046875 74.21875 50.515625 64.515625 
Q 56.984375 54.828125 56.984375 36.375 
Q 56.984375 17.96875 50.515625 8.265625 
Q 44.046875 -1.421875 31.78125 -1.421875 
Q 19.53125 -1.421875 13.0625 8.265625 
Q 6.59375 17.96875 6.59375 36.375 
Q 6.59375 54.828125 13.0625 64.515625 
Q 19.53125 74.21875 31.78125 74.21875 
z
" id="DejaVuSans-48"/>
      </defs>
      <use xlink:href="#DejaVuSans-71"/>
      <use x="77.490234" xlink:href="#DejaVuSans-78"/>
      <use x="152.294922" xlink:href="#DejaVuSans-71"/>
      <use x="229.785156" xlink:href="#DejaVuSans-49"/>
      <use x="293.408203" xlink:href="#DejaVuSans-48"/>
     </g>
    </g>
   </g>
   <g id="text_14">
    <g clip-path="url(#pf1992bfe76)">
     <!-- GNG11 -->
     <g transform="translate(533.204708 524.733877)scale(0.1 -0.1)">
      <use xlink:href="#DejaVuSans-71"/>
      <use x="77.490234" xlink:href="#DejaVuSans-78"/>
      <use x="152.294922" xlink:href="#DejaVuSans-71"/>
      <use x="229.785156" xlink:href="#DejaVuSans-49"/>
      <use x="293.408203" xlink:href="#DejaVuSans-49"/>
     </g>
    </g>
   </g>
   <g id="text_15">
    <g clip-path="url(#pf1992bfe76)">
     <!-- GNGT2 -->
     <g transform="translate(519.715093 408.978731)scale(0.1 -0.1)">
      <defs>
       <path d="M -0.296875 72.90625 
L 61.375 72.90625 
L 61.375 64.59375 
L 35.5 64.59375 
L 35.5 0 
L 25.59375 0 
L 25.59375 64.59375 
L -0.296875 64.59375 
z
" id="DejaVuSans-84"/>
      </defs>
      <use xlink:href="#DejaVuSans-71"/>
      <use x="77.490234" xlink:href="#DejaVuSans-78"/>
      <use x="152.294922" xlink:href="#DejaVuSans-71"/>
      <use x="226.160156" xlink:href="#DejaVuSans-84"/>
      <use x="287.244141" xlink:href="#DejaVuSans-50"/>
     </g>
    </g>
   </g>
   <g id="text_16">
    <g clip-path="url(#pf1992bfe76)">
     <!-- ADCY3 -->
     <g transform="translate(445.086816 713.988466)scale(0.1 -0.1)">
      <defs>
       <path d="M -0.203125 72.90625 
L 10.40625 72.90625 
L 30.609375 42.921875 
L 50.6875 72.90625 
L 61.28125 72.90625 
L 35.5 34.71875 
L 35.5 0 
L 25.59375 0 
L 25.59375 34.71875 
z
" id="DejaVuSans-89"/>
       <path d="M 40.578125 39.3125 
Q 47.65625 37.796875 51.625 33 
Q 55.609375 28.21875 55.609375 21.1875 
Q 55.609375 10.40625 48.1875 4.484375 
Q 40.765625 -1.421875 27.09375 -1.421875 
Q 22.515625 -1.421875 17.65625 -0.515625 
Q 12.796875 0.390625 7.625 2.203125 
L 7.625 11.71875 
Q 11.71875 9.328125 16.59375 8.109375 
Q 21.484375 6.890625 26.8125 6.890625 
Q 36.078125 6.890625 40.9375 10.546875 
Q 45.796875 14.203125 45.796875 21.1875 
Q 45.796875 27.640625 41.28125 31.265625 
Q 36.765625 34.90625 28.71875 34.90625 
L 20.21875 34.90625 
L 20.21875 43.015625 
L 29.109375 43.015625 
Q 36.375 43.015625 40.234375 45.921875 
Q 44.09375 48.828125 44.09375 54.296875 
Q 44.09375 59.90625 40.109375 62.90625 
Q 36.140625 65.921875 28.71875 65.921875 
Q 24.65625 65.921875 20.015625 65.03125 
Q 15.375 64.15625 9.8125 62.3125 
L 9.8125 71.09375 
Q 15.4375 72.65625 20.34375 73.4375 
Q 25.25 74.21875 29.59375 74.21875 
Q 40.828125 74.21875 47.359375 69.109375 
Q 53.90625 64.015625 53.90625 55.328125 
Q 53.90625 49.265625 50.4375 45.09375 
Q 46.96875 40.921875 40.578125 39.3125 
z
" id="DejaVuSans-51"/>
      </defs>
      <use xlink:href="#DejaVuSans-65"/>
      <use x="68.408203" xlink:href="#DejaVuSans-68"/>
      <use x="145.410156" xlink:href="#DejaVuSans-67"/>
      <use x="213.484375" xlink:href="#DejaVuSans-89"/>
      <use x="274.568359" xlink:href="#DejaVuSans-51"/>
     </g>
    </g>
   </g>
   <g id="text_17">
    <g clip-path="url(#pf1992bfe76)">
     <!-- ADCY4 -->
     <g transform="translate(789.292176 663.285305)scale(0.1 -0.1)">
      <use xlink:href="#DejaVuSans-65"/>
      <use x="68.408203" xlink:href="#DejaVuSans-68"/>
      <use x="145.410156" xlink:href="#DejaVuSans-67"/>
      <use x="213.484375" xlink:href="#DejaVuSans-89"/>
      <use x="274.568359" xlink:href="#DejaVuSans-52"/>
     </g>
    </g>
   </g>
   <g id="text_18">
    <g clip-path="url(#pf1992bfe76)">
     <!-- ADCY7 -->
     <g transform="translate(204.565005 467.054501)scale(0.1 -0.1)">
      <use xlink:href="#DejaVuSans-65"/>
      <use x="68.408203" xlink:href="#DejaVuSans-68"/>
      <use x="145.410156" xlink:href="#DejaVuSans-67"/>
      <use x="213.484375" xlink:href="#DejaVuSans-89"/>
      <use x="274.568359" xlink:href="#DejaVuSans-55"/>
     </g>
    </g>
   </g>
   <g id="text_19">
    <g clip-path="url(#pf1992bfe76)">
     <!-- ADCY9 -->
     <g transform="translate(915.583479 225.735822)scale(0.1 -0.1)">
      <defs>
       <path d="M 10.984375 1.515625 
L 10.984375 10.5 
Q 14.703125 8.734375 18.5 7.8125 
Q 22.3125 6.890625 25.984375 6.890625 
Q 35.75 6.890625 40.890625 13.453125 
Q 46.046875 20.015625 46.78125 33.40625 
Q 43.953125 29.203125 39.59375 26.953125 
Q 35.25 24.703125 29.984375 24.703125 
Q 19.046875 24.703125 12.671875 31.3125 
Q 6.296875 37.9375 6.296875 49.421875 
Q 6.296875 60.640625 12.9375 67.421875 
Q 19.578125 74.21875 30.609375 74.21875 
Q 43.265625 74.21875 49.921875 64.515625 
Q 56.59375 54.828125 56.59375 36.375 
Q 56.59375 19.140625 48.40625 8.859375 
Q 40.234375 -1.421875 26.421875 -1.421875 
Q 22.703125 -1.421875 18.890625 -0.6875 
Q 15.09375 0.046875 10.984375 1.515625 
z
M 30.609375 32.421875 
Q 37.25 32.421875 41.125 36.953125 
Q 45.015625 41.5 45.015625 49.421875 
Q 45.015625 57.28125 41.125 61.84375 
Q 37.25 66.40625 30.609375 66.40625 
Q 23.96875 66.40625 20.09375 61.84375 
Q 16.21875 57.28125 16.21875 49.421875 
Q 16.21875 41.5 20.09375 36.953125 
Q 23.96875 32.421875 30.609375 32.421875 
z
" id="DejaVuSans-57"/>
      </defs>
      <use xlink:href="#DejaVuSans-65"/>
      <use x="68.408203" xlink:href="#DejaVuSans-68"/>
      <use x="145.410156" xlink:href="#DejaVuSans-67"/>
      <use x="213.484375" xlink:href="#DejaVuSans-89"/>
      <use x="274.568359" xlink:href="#DejaVuSans-57"/>
     </g>
    </g>
   </g>
   <g id="text_20">
    <g clip-path="url(#pf1992bfe76)">
     <!-- PER1 -->
     <g transform="translate(946.495932 468.564342)scale(0.1 -0.1)">
      <use xlink:href="#DejaVuSans-80"/>
      <use x="60.302734" xlink:href="#DejaVuSans-69"/>
      <use x="123.486328" xlink:href="#DejaVuSans-82"/>
      <use x="192.96875" xlink:href="#DejaVuSans-49"/>
     </g>
    </g>
   </g>
   <g id="text_21">
    <g clip-path="url(#pf1992bfe76)">
     <!-- PER2 -->
     <g transform="translate(290.171266 642.355319)scale(0.1 -0.1)">
      <use xlink:href="#DejaVuSans-80"/>
      <use x="60.302734" xlink:href="#DejaVuSans-69"/>
      <use x="123.486328" xlink:href="#DejaVuSans-82"/>
      <use x="192.96875" xlink:href="#DejaVuSans-50"/>
     </g>
    </g>
   </g>
   <g id="text_22">
    <g clip-path="url(#pf1992bfe76)">
     <!-- PER3 -->
     <g transform="translate(294.649958 164.170284)scale(0.1 -0.1)">
      <use xlink:href="#DejaVuSans-80"/>
      <use x="60.302734" xlink:href="#DejaVuSans-69"/>
      <use x="123.486328" xlink:href="#DejaVuSans-82"/>
      <use x="192.96875" xlink:href="#DejaVuSans-51"/>
     </g>
    </g>
   </g>
   <g id="text_23">
    <!-- Importance Score and Relative Abundance for network hsa04713 for dataset atherosclerosis -->
    <g transform="translate(312.388125 97.68)scale(0.12 -0.12)">
     <defs>
      <path d="M 9.8125 72.90625 
L 19.671875 72.90625 
L 19.671875 0 
L 9.8125 0 
z
" id="DejaVuSans-73"/>
      <path d="M 52 44.1875 
Q 55.375 50.25 60.0625 53.125 
Q 64.75 56 71.09375 56 
Q 79.640625 56 84.28125 50.015625 
Q 88.921875 44.046875 88.921875 33.015625 
L 88.921875 0 
L 79.890625 0 
L 79.890625 32.71875 
Q 79.890625 40.578125 77.09375 44.375 
Q 74.3125 48.1875 68.609375 48.1875 
Q 61.625 48.1875 57.5625 43.546875 
Q 53.515625 38.921875 53.515625 30.90625 
L 53.515625 0 
L 44.484375 0 
L 44.484375 32.71875 
Q 44.484375 40.625 41.703125 44.40625 
Q 38.921875 48.1875 33.109375 48.1875 
Q 26.21875 48.1875 22.15625 43.53125 
Q 18.109375 38.875 18.109375 30.90625 
L 18.109375 0 
L 9.078125 0 
L 9.078125 54.6875 
L 18.109375 54.6875 
L 18.109375 46.1875 
Q 21.1875 51.21875 25.484375 53.609375 
Q 29.78125 56 35.6875 56 
Q 41.65625 56 45.828125 52.96875 
Q 50 49.953125 52 44.1875 
z
" id="DejaVuSans-109"/>
      <path d="M 18.109375 8.203125 
L 18.109375 -20.796875 
L 9.078125 -20.796875 
L 9.078125 54.6875 
L 18.109375 54.6875 
L 18.109375 46.390625 
Q 20.953125 51.265625 25.265625 53.625 
Q 29.59375 56 35.59375 56 
Q 45.5625 56 51.78125 48.09375 
Q 58.015625 40.1875 58.015625 27.296875 
Q 58.015625 14.40625 51.78125 6.484375 
Q 45.5625 -1.421875 35.59375 -1.421875 
Q 29.59375 -1.421875 25.265625 0.953125 
Q 20.953125 3.328125 18.109375 8.203125 
z
M 48.6875 27.296875 
Q 48.6875 37.203125 44.609375 42.84375 
Q 40.53125 48.484375 33.40625 48.484375 
Q 26.265625 48.484375 22.1875 42.84375 
Q 18.109375 37.203125 18.109375 27.296875 
Q 18.109375 17.390625 22.1875 11.75 
Q 26.265625 6.109375 33.40625 6.109375 
Q 40.53125 6.109375 44.609375 11.75 
Q 48.6875 17.390625 48.6875 27.296875 
z
" id="DejaVuSans-112"/>
      <path d="M 30.609375 48.390625 
Q 23.390625 48.390625 19.1875 42.75 
Q 14.984375 37.109375 14.984375 27.296875 
Q 14.984375 17.484375 19.15625 11.84375 
Q 23.34375 6.203125 30.609375 6.203125 
Q 37.796875 6.203125 41.984375 11.859375 
Q 46.1875 17.53125 46.1875 27.296875 
Q 46.1875 37.015625 41.984375 42.703125 
Q 37.796875 48.390625 30.609375 48.390625 
z
M 30.609375 56 
Q 42.328125 56 49.015625 48.375 
Q 55.71875 40.765625 55.71875 27.296875 
Q 55.71875 13.875 49.015625 6.21875 
Q 42.328125 -1.421875 30.609375 -1.421875 
Q 18.84375 -1.421875 12.171875 6.21875 
Q 5.515625 13.875 5.515625 27.296875 
Q 5.515625 40.765625 12.171875 48.375 
Q 18.84375 56 30.609375 56 
z
" id="DejaVuSans-111"/>
      <path d="M 41.109375 46.296875 
Q 39.59375 47.171875 37.8125 47.578125 
Q 36.03125 48 33.890625 48 
Q 26.265625 48 22.1875 43.046875 
Q 18.109375 38.09375 18.109375 28.8125 
L 18.109375 0 
L 9.078125 0 
L 9.078125 54.6875 
L 18.109375 54.6875 
L 18.109375 46.1875 
Q 20.953125 51.171875 25.484375 53.578125 
Q 30.03125 56 36.53125 56 
Q 37.453125 56 38.578125 55.875 
Q 39.703125 55.765625 41.0625 55.515625 
z
" id="DejaVuSans-114"/>
      <path d="M 18.3125 70.21875 
L 18.3125 54.6875 
L 36.8125 54.6875 
L 36.8125 47.703125 
L 18.3125 47.703125 
L 18.3125 18.015625 
Q 18.3125 11.328125 20.140625 9.421875 
Q 21.96875 7.515625 27.59375 7.515625 
L 36.8125 7.515625 
L 36.8125 0 
L 27.59375 0 
Q 17.1875 0 13.234375 3.875 
Q 9.28125 7.765625 9.28125 18.015625 
L 9.28125 47.703125 
L 2.6875 47.703125 
L 2.6875 54.6875 
L 9.28125 54.6875 
L 9.28125 70.21875 
z
" id="DejaVuSans-116"/>
      <path d="M 34.28125 27.484375 
Q 23.390625 27.484375 19.1875 25 
Q 14.984375 22.515625 14.984375 16.5 
Q 14.984375 11.71875 18.140625 8.90625 
Q 21.296875 6.109375 26.703125 6.109375 
Q 34.1875 6.109375 38.703125 11.40625 
Q 43.21875 16.703125 43.21875 25.484375 
L 43.21875 27.484375 
z
M 52.203125 31.203125 
L 52.203125 0 
L 43.21875 0 
L 43.21875 8.296875 
Q 40.140625 3.328125 35.546875 0.953125 
Q 30.953125 -1.421875 24.3125 -1.421875 
Q 15.921875 -1.421875 10.953125 3.296875 
Q 6 8.015625 6 15.921875 
Q 6 25.140625 12.171875 29.828125 
Q 18.359375 34.515625 30.609375 34.515625 
L 43.21875 34.515625 
L 43.21875 35.40625 
Q 43.21875 41.609375 39.140625 45 
Q 35.0625 48.390625 27.6875 48.390625 
Q 23 48.390625 18.546875 47.265625 
Q 14.109375 46.140625 10.015625 43.890625 
L 10.015625 52.203125 
Q 14.9375 54.109375 19.578125 55.046875 
Q 24.21875 56 28.609375 56 
Q 40.484375 56 46.34375 49.84375 
Q 52.203125 43.703125 52.203125 31.203125 
z
" id="DejaVuSans-97"/>
      <path d="M 54.890625 33.015625 
L 54.890625 0 
L 45.90625 0 
L 45.90625 32.71875 
Q 45.90625 40.484375 42.875 44.328125 
Q 39.84375 48.1875 33.796875 48.1875 
Q 26.515625 48.1875 22.3125 43.546875 
Q 18.109375 38.921875 18.109375 30.90625 
L 18.109375 0 
L 9.078125 0 
L 9.078125 54.6875 
L 18.109375 54.6875 
L 18.109375 46.1875 
Q 21.34375 51.125 25.703125 53.5625 
Q 30.078125 56 35.796875 56 
Q 45.21875 56 50.046875 50.171875 
Q 54.890625 44.34375 54.890625 33.015625 
z
" id="DejaVuSans-110"/>
      <path d="M 48.78125 52.59375 
L 48.78125 44.1875 
Q 44.96875 46.296875 41.140625 47.34375 
Q 37.3125 48.390625 33.40625 48.390625 
Q 24.65625 48.390625 19.8125 42.84375 
Q 14.984375 37.3125 14.984375 27.296875 
Q 14.984375 17.28125 19.8125 11.734375 
Q 24.65625 6.203125 33.40625 6.203125 
Q 37.3125 6.203125 41.140625 7.25 
Q 44.96875 8.296875 48.78125 10.40625 
L 48.78125 2.09375 
Q 45.015625 0.34375 40.984375 -0.53125 
Q 36.96875 -1.421875 32.421875 -1.421875 
Q 20.0625 -1.421875 12.78125 6.34375 
Q 5.515625 14.109375 5.515625 27.296875 
Q 5.515625 40.671875 12.859375 48.328125 
Q 20.21875 56 33.015625 56 
Q 37.15625 56 41.109375 55.140625 
Q 45.0625 54.296875 48.78125 52.59375 
z
" id="DejaVuSans-99"/>
      <path d="M 56.203125 29.59375 
L 56.203125 25.203125 
L 14.890625 25.203125 
Q 15.484375 15.921875 20.484375 11.0625 
Q 25.484375 6.203125 34.421875 6.203125 
Q 39.59375 6.203125 44.453125 7.46875 
Q 49.3125 8.734375 54.109375 11.28125 
L 54.109375 2.78125 
Q 49.265625 0.734375 44.1875 -0.34375 
Q 39.109375 -1.421875 33.890625 -1.421875 
Q 20.796875 -1.421875 13.15625 6.1875 
Q 5.515625 13.8125 5.515625 26.8125 
Q 5.515625 40.234375 12.765625 48.109375 
Q 20.015625 56 32.328125 56 
Q 43.359375 56 49.78125 48.890625 
Q 56.203125 41.796875 56.203125 29.59375 
z
M 47.21875 32.234375 
Q 47.125 39.59375 43.09375 43.984375 
Q 39.0625 48.390625 32.421875 48.390625 
Q 24.90625 48.390625 20.390625 44.140625 
Q 15.875 39.890625 15.1875 32.171875 
z
" id="DejaVuSans-101"/>
      <path id="DejaVuSans-32"/>
      <path d="M 45.40625 46.390625 
L 45.40625 75.984375 
L 54.390625 75.984375 
L 54.390625 0 
L 45.40625 0 
L 45.40625 8.203125 
Q 42.578125 3.328125 38.25 0.953125 
Q 33.9375 -1.421875 27.875 -1.421875 
Q 17.96875 -1.421875 11.734375 6.484375 
Q 5.515625 14.40625 5.515625 27.296875 
Q 5.515625 40.1875 11.734375 48.09375 
Q 17.96875 56 27.875 56 
Q 33.9375 56 38.25 53.625 
Q 42.578125 51.265625 45.40625 46.390625 
z
M 14.796875 27.296875 
Q 14.796875 17.390625 18.875 11.75 
Q 22.953125 6.109375 30.078125 6.109375 
Q 37.203125 6.109375 41.296875 11.75 
Q 45.40625 17.390625 45.40625 27.296875 
Q 45.40625 37.203125 41.296875 42.84375 
Q 37.203125 48.484375 30.078125 48.484375 
Q 22.953125 48.484375 18.875 42.84375 
Q 14.796875 37.203125 14.796875 27.296875 
z
" id="DejaVuSans-100"/>
      <path d="M 9.421875 75.984375 
L 18.40625 75.984375 
L 18.40625 0 
L 9.421875 0 
z
" id="DejaVuSans-108"/>
      <path d="M 9.421875 54.6875 
L 18.40625 54.6875 
L 18.40625 0 
L 9.421875 0 
z
M 9.421875 75.984375 
L 18.40625 75.984375 
L 18.40625 64.59375 
L 9.421875 64.59375 
z
" id="DejaVuSans-105"/>
      <path d="M 2.984375 54.6875 
L 12.5 54.6875 
L 29.59375 8.796875 
L 46.6875 54.6875 
L 56.203125 54.6875 
L 35.6875 0 
L 23.484375 0 
z
" id="DejaVuSans-118"/>
      <path d="M 48.6875 27.296875 
Q 48.6875 37.203125 44.609375 42.84375 
Q 40.53125 48.484375 33.40625 48.484375 
Q 26.265625 48.484375 22.1875 42.84375 
Q 18.109375 37.203125 18.109375 27.296875 
Q 18.109375 17.390625 22.1875 11.75 
Q 26.265625 6.109375 33.40625 6.109375 
Q 40.53125 6.109375 44.609375 11.75 
Q 48.6875 17.390625 48.6875 27.296875 
z
M 18.109375 46.390625 
Q 20.953125 51.265625 25.265625 53.625 
Q 29.59375 56 35.59375 56 
Q 45.5625 56 51.78125 48.09375 
Q 58.015625 40.1875 58.015625 27.296875 
Q 58.015625 14.40625 51.78125 6.484375 
Q 45.5625 -1.421875 35.59375 -1.421875 
Q 29.59375 -1.421875 25.265625 0.953125 
Q 20.953125 3.328125 18.109375 8.203125 
L 18.109375 0 
L 9.078125 0 
L 9.078125 75.984375 
L 18.109375 75.984375 
z
" id="DejaVuSans-98"/>
      <path d="M 8.5 21.578125 
L 8.5 54.6875 
L 17.484375 54.6875 
L 17.484375 21.921875 
Q 17.484375 14.15625 20.5 10.265625 
Q 23.53125 6.390625 29.59375 6.390625 
Q 36.859375 6.390625 41.078125 11.03125 
Q 45.3125 15.671875 45.3125 23.6875 
L 45.3125 54.6875 
L 54.296875 54.6875 
L 54.296875 0 
L 45.3125 0 
L 45.3125 8.40625 
Q 42.046875 3.421875 37.71875 1 
Q 33.40625 -1.421875 27.6875 -1.421875 
Q 18.265625 -1.421875 13.375 4.4375 
Q 8.5 10.296875 8.5 21.578125 
z
M 31.109375 56 
z
" id="DejaVuSans-117"/>
      <path d="M 37.109375 75.984375 
L 37.109375 68.5 
L 28.515625 68.5 
Q 23.6875 68.5 21.796875 66.546875 
Q 19.921875 64.59375 19.921875 59.515625 
L 19.921875 54.6875 
L 34.71875 54.6875 
L 34.71875 47.703125 
L 19.921875 47.703125 
L 19.921875 0 
L 10.890625 0 
L 10.890625 47.703125 
L 2.296875 47.703125 
L 2.296875 54.6875 
L 10.890625 54.6875 
L 10.890625 58.5 
Q 10.890625 67.625 15.140625 71.796875 
Q 19.390625 75.984375 28.609375 75.984375 
z
" id="DejaVuSans-102"/>
      <path d="M 4.203125 54.6875 
L 13.1875 54.6875 
L 24.421875 12.015625 
L 35.59375 54.6875 
L 46.1875 54.6875 
L 57.421875 12.015625 
L 68.609375 54.6875 
L 77.59375 54.6875 
L 63.28125 0 
L 52.6875 0 
L 40.921875 44.828125 
L 29.109375 0 
L 18.5 0 
z
" id="DejaVuSans-119"/>
      <path d="M 9.078125 75.984375 
L 18.109375 75.984375 
L 18.109375 31.109375 
L 44.921875 54.6875 
L 56.390625 54.6875 
L 27.390625 29.109375 
L 57.625 0 
L 45.90625 0 
L 18.109375 26.703125 
L 18.109375 0 
L 9.078125 0 
z
" id="DejaVuSans-107"/>
      <path d="M 54.890625 33.015625 
L 54.890625 0 
L 45.90625 0 
L 45.90625 32.71875 
Q 45.90625 40.484375 42.875 44.328125 
Q 39.84375 48.1875 33.796875 48.1875 
Q 26.515625 48.1875 22.3125 43.546875 
Q 18.109375 38.921875 18.109375 30.90625 
L 18.109375 0 
L 9.078125 0 
L 9.078125 75.984375 
L 18.109375 75.984375 
L 18.109375 46.1875 
Q 21.34375 51.125 25.703125 53.5625 
Q 30.078125 56 35.796875 56 
Q 45.21875 56 50.046875 50.171875 
Q 54.890625 44.34375 54.890625 33.015625 
z
" id="DejaVuSans-104"/>
      <path d="M 44.28125 53.078125 
L 44.28125 44.578125 
Q 40.484375 46.53125 36.375 47.5 
Q 32.28125 48.484375 27.875 48.484375 
Q 21.1875 48.484375 17.84375 46.4375 
Q 14.5 44.390625 14.5 40.28125 
Q 14.5 37.15625 16.890625 35.375 
Q 19.28125 33.59375 26.515625 31.984375 
L 29.59375 31.296875 
Q 39.15625 29.25 43.1875 25.515625 
Q 47.21875 21.78125 47.21875 15.09375 
Q 47.21875 7.46875 41.1875 3.015625 
Q 35.15625 -1.421875 24.609375 -1.421875 
Q 20.21875 -1.421875 15.453125 -0.5625 
Q 10.6875 0.296875 5.421875 2 
L 5.421875 11.28125 
Q 10.40625 8.6875 15.234375 7.390625 
Q 20.0625 6.109375 24.8125 6.109375 
Q 31.15625 6.109375 34.5625 8.28125 
Q 37.984375 10.453125 37.984375 14.40625 
Q 37.984375 18.0625 35.515625 20.015625 
Q 33.0625 21.96875 24.703125 23.78125 
L 21.578125 24.515625 
Q 13.234375 26.265625 9.515625 29.90625 
Q 5.8125 33.546875 5.8125 39.890625 
Q 5.8125 47.609375 11.28125 51.796875 
Q 16.75 56 26.8125 56 
Q 31.78125 56 36.171875 55.265625 
Q 40.578125 54.546875 44.28125 53.078125 
z
" id="DejaVuSans-115"/>
     </defs>
     <use xlink:href="#DejaVuSans-73"/>
     <use x="29.492188" xlink:href="#DejaVuSans-109"/>
     <use x="126.904297" xlink:href="#DejaVuSans-112"/>
     <use x="190.380859" xlink:href="#DejaVuSans-111"/>
     <use x="251.5625" xlink:href="#DejaVuSans-114"/>
     <use x="292.675781" xlink:href="#DejaVuSans-116"/>
     <use x="331.884766" xlink:href="#DejaVuSans-97"/>
     <use x="393.164062" xlink:href="#DejaVuSans-110"/>
     <use x="456.542969" xlink:href="#DejaVuSans-99"/>
     <use x="511.523438" xlink:href="#DejaVuSans-101"/>
     <use x="573.046875" xlink:href="#DejaVuSans-32"/>
     <use x="604.833984" xlink:href="#DejaVuSans-83"/>
     <use x="668.310547" xlink:href="#DejaVuSans-99"/>
     <use x="723.291016" xlink:href="#DejaVuSans-111"/>
     <use x="784.472656" xlink:href="#DejaVuSans-114"/>
     <use x="823.335938" xlink:href="#DejaVuSans-101"/>
     <use x="884.859375" xlink:href="#DejaVuSans-32"/>
     <use x="916.646484" xlink:href="#DejaVuSans-97"/>
     <use x="977.925781" xlink:href="#DejaVuSans-110"/>
     <use x="1041.304688" xlink:href="#DejaVuSans-100"/>
     <use x="1104.78125" xlink:href="#DejaVuSans-32"/>
     <use x="1136.568359" xlink:href="#DejaVuSans-82"/>
     <use x="1201.550781" xlink:href="#DejaVuSans-101"/>
     <use x="1263.074219" xlink:href="#DejaVuSans-108"/>
     <use x="1290.857422" xlink:href="#DejaVuSans-97"/>
     <use x="1352.136719" xlink:href="#DejaVuSans-116"/>
     <use x="1391.345703" xlink:href="#DejaVuSans-105"/>
     <use x="1419.128906" xlink:href="#DejaVuSans-118"/>
     <use x="1478.308594" xlink:href="#DejaVuSans-101"/>
     <use x="1539.832031" xlink:href="#DejaVuSans-32"/>
     <use x="1571.619141" xlink:href="#DejaVuSans-65"/>
     <use x="1640.027344" xlink:href="#DejaVuSans-98"/>
     <use x="1703.503906" xlink:href="#DejaVuSans-117"/>
     <use x="1766.882812" xlink:href="#DejaVuSans-110"/>
     <use x="1830.261719" xlink:href="#DejaVuSans-100"/>
     <use x="1893.738281" xlink:href="#DejaVuSans-97"/>
     <use x="1955.017578" xlink:href="#DejaVuSans-110"/>
     <use x="2018.396484" xlink:href="#DejaVuSans-99"/>
     <use x="2073.376953" xlink:href="#DejaVuSans-101"/>
     <use x="2134.900391" xlink:href="#DejaVuSans-32"/>
     <use x="2166.6875" xlink:href="#DejaVuSans-102"/>
     <use x="2201.892578" xlink:href="#DejaVuSans-111"/>
     <use x="2263.074219" xlink:href="#DejaVuSans-114"/>
     <use x="2304.1875" xlink:href="#DejaVuSans-32"/>
     <use x="2335.974609" xlink:href="#DejaVuSans-110"/>
     <use x="2399.353516" xlink:href="#DejaVuSans-101"/>
     <use x="2460.876953" xlink:href="#DejaVuSans-116"/>
     <use x="2500.085938" xlink:href="#DejaVuSans-119"/>
     <use x="2581.873047" xlink:href="#DejaVuSans-111"/>
     <use x="2643.054688" xlink:href="#DejaVuSans-114"/>
     <use x="2684.167969" xlink:href="#DejaVuSans-107"/>
     <use x="2742.078125" xlink:href="#DejaVuSans-32"/>
     <use x="2773.865234" xlink:href="#DejaVuSans-104"/>
     <use x="2837.244141" xlink:href="#DejaVuSans-115"/>
     <use x="2889.34375" xlink:href="#DejaVuSans-97"/>
     <use x="2950.623047" xlink:href="#DejaVuSans-48"/>
     <use x="3014.246094" xlink:href="#DejaVuSans-52"/>
     <use x="3077.869141" xlink:href="#DejaVuSans-55"/>
     <use x="3141.492188" xlink:href="#DejaVuSans-49"/>
     <use x="3205.115234" xlink:href="#DejaVuSans-51"/>
     <use x="3268.738281" xlink:href="#DejaVuSans-32"/>
     <use x="3300.525391" xlink:href="#DejaVuSans-102"/>
     <use x="3335.730469" xlink:href="#DejaVuSans-111"/>
     <use x="3396.912109" xlink:href="#DejaVuSans-114"/>
     <use x="3438.025391" xlink:href="#DejaVuSans-32"/>
     <use x="3469.8125" xlink:href="#DejaVuSans-100"/>
     <use x="3533.289062" xlink:href="#DejaVuSans-97"/>
     <use x="3594.568359" xlink:href="#DejaVuSans-116"/>
     <use x="3633.777344" xlink:href="#DejaVuSans-97"/>
     <use x="3695.056641" xlink:href="#DejaVuSans-115"/>
     <use x="3747.15625" xlink:href="#DejaVuSans-101"/>
     <use x="3808.679688" xlink:href="#DejaVuSans-116"/>
     <use x="3847.888672" xlink:href="#DejaVuSans-32"/>
     <use x="3879.675781" xlink:href="#DejaVuSans-97"/>
     <use x="3940.955078" xlink:href="#DejaVuSans-116"/>
     <use x="3980.164062" xlink:href="#DejaVuSans-104"/>
     <use x="4043.542969" xlink:href="#DejaVuSans-101"/>
     <use x="4105.066406" xlink:href="#DejaVuSans-114"/>
     <use x="4143.929688" xlink:href="#DejaVuSans-111"/>
     <use x="4205.111328" xlink:href="#DejaVuSans-115"/>
     <use x="4257.210938" xlink:href="#DejaVuSans-99"/>
     <use x="4312.191406" xlink:href="#DejaVuSans-108"/>
     <use x="4339.974609" xlink:href="#DejaVuSans-101"/>
     <use x="4401.498047" xlink:href="#DejaVuSans-114"/>
     <use x="4440.361328" xlink:href="#DejaVuSans-111"/>
     <use x="4501.542969" xlink:href="#DejaVuSans-115"/>
     <use x="4553.642578" xlink:href="#DejaVuSans-105"/>
     <use x="4581.425781" xlink:href="#DejaVuSans-115"/>
    </g>
   </g>
   <g id="legend_1">
    <g id="patch_71">
     <path d="M 803.859375 155.714375 
L 1029.8 155.714375 
Q 1031.8 155.714375 1031.8 153.714375 
L 1031.8 110.68 
Q 1031.8 108.68 1029.8 108.68 
L 803.859375 108.68 
Q 801.859375 108.68 801.859375 110.68 
L 801.859375 153.714375 
Q 801.859375 155.714375 803.859375 155.714375 
z
" style="fill:#ffffff;opacity:0.8;stroke:#cccccc;stroke-linejoin:miter;"/>
    </g>
    <g id="text_24">
     <!-- Relative Expression of AS+ compared to AS- -->
     <g transform="translate(805.859375 120.278437)scale(0.1 -0.1)">
      <defs>
       <path d="M 54.890625 54.6875 
L 35.109375 28.078125 
L 55.90625 0 
L 45.3125 0 
L 29.390625 21.484375 
L 13.484375 0 
L 2.875 0 
L 24.125 28.609375 
L 4.6875 54.6875 
L 15.28125 54.6875 
L 29.78125 35.203125 
L 44.28125 54.6875 
z
" id="DejaVuSans-120"/>
       <path d="M 46 62.703125 
L 46 35.5 
L 73.1875 35.5 
L 73.1875 27.203125 
L 46 27.203125 
L 46 0 
L 37.796875 0 
L 37.796875 27.203125 
L 10.59375 27.203125 
L 10.59375 35.5 
L 37.796875 35.5 
L 37.796875 62.703125 
z
" id="DejaVuSans-43"/>
       <path d="M 4.890625 31.390625 
L 31.203125 31.390625 
L 31.203125 23.390625 
L 4.890625 23.390625 
z
" id="DejaVuSans-45"/>
      </defs>
      <use xlink:href="#DejaVuSans-82"/>
      <use x="64.982422" xlink:href="#DejaVuSans-101"/>
      <use x="126.505859" xlink:href="#DejaVuSans-108"/>
      <use x="154.289062" xlink:href="#DejaVuSans-97"/>
      <use x="215.568359" xlink:href="#DejaVuSans-116"/>
      <use x="254.777344" xlink:href="#DejaVuSans-105"/>
      <use x="282.560547" xlink:href="#DejaVuSans-118"/>
      <use x="341.740234" xlink:href="#DejaVuSans-101"/>
      <use x="403.263672" xlink:href="#DejaVuSans-32"/>
      <use x="435.050781" xlink:href="#DejaVuSans-69"/>
      <use x="498.234375" xlink:href="#DejaVuSans-120"/>
      <use x="557.414062" xlink:href="#DejaVuSans-112"/>
      <use x="620.890625" xlink:href="#DejaVuSans-114"/>
      <use x="659.753906" xlink:href="#DejaVuSans-101"/>
      <use x="721.277344" xlink:href="#DejaVuSans-115"/>
      <use x="773.376953" xlink:href="#DejaVuSans-115"/>
      <use x="825.476562" xlink:href="#DejaVuSans-105"/>
      <use x="853.259766" xlink:href="#DejaVuSans-111"/>
      <use x="914.441406" xlink:href="#DejaVuSans-110"/>
      <use x="977.820312" xlink:href="#DejaVuSans-32"/>
      <use x="1009.607422" xlink:href="#DejaVuSans-111"/>
      <use x="1070.789062" xlink:href="#DejaVuSans-102"/>
      <use x="1105.994141" xlink:href="#DejaVuSans-32"/>
      <use x="1137.78125" xlink:href="#DejaVuSans-65"/>
      <use x="1206.189453" xlink:href="#DejaVuSans-83"/>
      <use x="1269.666016" xlink:href="#DejaVuSans-43"/>
      <use x="1353.455078" xlink:href="#DejaVuSans-32"/>
      <use x="1385.242188" xlink:href="#DejaVuSans-99"/>
      <use x="1440.222656" xlink:href="#DejaVuSans-111"/>
      <use x="1501.404297" xlink:href="#DejaVuSans-109"/>
      <use x="1598.816406" xlink:href="#DejaVuSans-112"/>
      <use x="1662.292969" xlink:href="#DejaVuSans-97"/>
      <use x="1723.572266" xlink:href="#DejaVuSans-114"/>
      <use x="1762.435547" xlink:href="#DejaVuSans-101"/>
      <use x="1823.958984" xlink:href="#DejaVuSans-100"/>
      <use x="1887.435547" xlink:href="#DejaVuSans-32"/>
      <use x="1919.222656" xlink:href="#DejaVuSans-116"/>
      <use x="1958.431641" xlink:href="#DejaVuSans-111"/>
      <use x="2019.613281" xlink:href="#DejaVuSans-32"/>
      <use x="2051.400391" xlink:href="#DejaVuSans-65"/>
      <use x="2119.808594" xlink:href="#DejaVuSans-83"/>
      <use x="2183.285156" xlink:href="#DejaVuSans-45"/>
     </g>
    </g>
    <g id="patch_72">
     <path d="M 829.136719 134.956562 
L 849.136719 134.956562 
L 849.136719 127.956562 
L 829.136719 127.956562 
z
" style="fill:#0000ff;stroke:#0000ff;stroke-linejoin:miter;"/>
    </g>
    <g id="text_25">
     <!-- Decreased expression in AS+ -->
     <g transform="translate(857.136719 134.956562)scale(0.1 -0.1)">
      <use xlink:href="#DejaVuSans-68"/>
      <use x="77.001953" xlink:href="#DejaVuSans-101"/>
      <use x="138.525391" xlink:href="#DejaVuSans-99"/>
      <use x="193.505859" xlink:href="#DejaVuSans-114"/>
      <use x="232.369141" xlink:href="#DejaVuSans-101"/>
      <use x="293.892578" xlink:href="#DejaVuSans-97"/>
      <use x="355.171875" xlink:href="#DejaVuSans-115"/>
      <use x="407.271484" xlink:href="#DejaVuSans-101"/>
      <use x="468.794922" xlink:href="#DejaVuSans-100"/>
      <use x="532.271484" xlink:href="#DejaVuSans-32"/>
      <use x="564.058594" xlink:href="#DejaVuSans-101"/>
      <use x="623.832031" xlink:href="#DejaVuSans-120"/>
      <use x="683.011719" xlink:href="#DejaVuSans-112"/>
      <use x="746.488281" xlink:href="#DejaVuSans-114"/>
      <use x="785.351562" xlink:href="#DejaVuSans-101"/>
      <use x="846.875" xlink:href="#DejaVuSans-115"/>
      <use x="898.974609" xlink:href="#DejaVuSans-115"/>
      <use x="951.074219" xlink:href="#DejaVuSans-105"/>
      <use x="978.857422" xlink:href="#DejaVuSans-111"/>
      <use x="1040.039062" xlink:href="#DejaVuSans-110"/>
      <use x="1103.417969" xlink:href="#DejaVuSans-32"/>
      <use x="1135.205078" xlink:href="#DejaVuSans-105"/>
      <use x="1162.988281" xlink:href="#DejaVuSans-110"/>
      <use x="1226.367188" xlink:href="#DejaVuSans-32"/>
      <use x="1258.154297" xlink:href="#DejaVuSans-65"/>
      <use x="1326.5625" xlink:href="#DejaVuSans-83"/>
      <use x="1390.039062" xlink:href="#DejaVuSans-43"/>
     </g>
    </g>
    <g id="patch_73">
     <path d="M 829.136719 149.634687 
L 849.136719 149.634687 
L 849.136719 142.634687 
L 829.136719 142.634687 
z
" style="fill:#ff0000;stroke:#ff0000;stroke-linejoin:miter;"/>
    </g>
    <g id="text_26">
     <!-- Increased expression in AS+ -->
     <g transform="translate(857.136719 149.634687)scale(0.1 -0.1)">
      <use xlink:href="#DejaVuSans-73"/>
      <use x="29.492188" xlink:href="#DejaVuSans-110"/>
      <use x="92.871094" xlink:href="#DejaVuSans-99"/>
      <use x="147.851562" xlink:href="#DejaVuSans-114"/>
      <use x="186.714844" xlink:href="#DejaVuSans-101"/>
      <use x="248.238281" xlink:href="#DejaVuSans-97"/>
      <use x="309.517578" xlink:href="#DejaVuSans-115"/>
      <use x="361.617188" xlink:href="#DejaVuSans-101"/>
      <use x="423.140625" xlink:href="#DejaVuSans-100"/>
      <use x="486.617188" xlink:href="#DejaVuSans-32"/>
      <use x="518.404297" xlink:href="#DejaVuSans-101"/>
      <use x="578.177734" xlink:href="#DejaVuSans-120"/>
      <use x="637.357422" xlink:href="#DejaVuSans-112"/>
      <use x="700.833984" xlink:href="#DejaVuSans-114"/>
      <use x="739.697266" xlink:href="#DejaVuSans-101"/>
      <use x="801.220703" xlink:href="#DejaVuSans-115"/>
      <use x="853.320312" xlink:href="#DejaVuSans-115"/>
      <use x="905.419922" xlink:href="#DejaVuSans-105"/>
      <use x="933.203125" xlink:href="#DejaVuSans-111"/>
      <use x="994.384766" xlink:href="#DejaVuSans-110"/>
      <use x="1057.763672" xlink:href="#DejaVuSans-32"/>
      <use x="1089.550781" xlink:href="#DejaVuSans-105"/>
      <use x="1117.333984" xlink:href="#DejaVuSans-110"/>
      <use x="1180.712891" xlink:href="#DejaVuSans-32"/>
      <use x="1212.5" xlink:href="#DejaVuSans-65"/>
      <use x="1280.908203" xlink:href="#DejaVuSans-83"/>
      <use x="1344.384766" xlink:href="#DejaVuSans-43"/>
     </g>
    </g>
   </g>
  </g>
 </g>
 <defs>
  <clipPath id="pf1992bfe76">
   <rect height="665.28" width="892.8" x="144" y="103.68"/>
  </clipPath>
 </defs>
</svg>
