<?xml version="1.0" encoding="utf-8" standalone="no"?>
<!DOCTYPE svg PUBLIC "-//W3C//DTD SVG 1.1//EN"
  "http://www.w3.org/Graphics/SVG/1.1/DTD/svg11.dtd">
<!-- Created with matplotlib (https://matplotlib.org/) -->
<svg height="864pt" version="1.1" viewBox="0 0 1152 864" width="1152pt" xmlns="http://www.w3.org/2000/svg" xmlns:xlink="http://www.w3.org/1999/xlink">
 <metadata>
  <rdf:RDF xmlns:cc="http://creativecommons.org/ns#" xmlns:dc="http://purl.org/dc/elements/1.1/" xmlns:rdf="http://www.w3.org/1999/02/22-rdf-syntax-ns#">
   <cc:Work>
    <dc:type rdf:resource="http://purl.org/dc/dcmitype/StillImage"/>
    <dc:date>2024-04-26T11:31:09.323592</dc:date>
    <dc:format>image/svg+xml</dc:format>
    <dc:creator>
     <cc:Agent>
      <dc:title>Matplotlib v3.3.1, https://matplotlib.org/</dc:title>
     </cc:Agent>
    </dc:creator>
   </cc:Work>
  </rdf:RDF>
 </metadata>
 <defs>
  <style type="text/css">*{stroke-linecap:butt;stroke-linejoin:round;}</style>
 </defs>
 <g id="figure_1">
  <g id="patch_1">
   <path d="M 0 864 
L 1152 864 
L 1152 0 
L 0 0 
z
" style="fill:#ffffff;"/>
  </g>
  <g id="axes_1">
   <g id="patch_2">
    <path clip-path="url(#pbc76aeadd4)" d="M 954.541436 461.457348 
Q 884.031429 482.810324 814.591466 503.839252 
" style="fill:none;stroke:#000000;stroke-linecap:round;"/>
    <path clip-path="url(#pbc76aeadd4)" d="M 818.999444 504.594056 
L 814.591466 503.839252 
L 817.840095 500.765752 
L 818.999444 504.594056 
z
" style="stroke:#000000;stroke-linecap:round;"/>
   </g>
   <g id="patch_3">
    <path clip-path="url(#pbc76aeadd4)" d="M 805.890332 495.985783 
Q 845.165421 392.905232 884.04244 290.869449 
" style="fill:none;stroke:#000000;stroke-linecap:round;"/>
    <path clip-path="url(#pbc76aeadd4)" d="M 880.749321 293.895233 
L 884.04244 290.869449 
L 884.487196 295.319414 
L 880.749321 293.895233 
z
" style="stroke:#000000;stroke-linecap:round;"/>
   </g>
   <g id="patch_4">
    <path clip-path="url(#pbc76aeadd4)" d="M 792.997976 517.372985 
Q 710.45376 611.309011 628.647546 704.405185 
" style="fill:none;stroke:#000000;stroke-linecap:round;"/>
    <path clip-path="url(#pbc76aeadd4)" d="M 632.790277 702.720615 
L 628.647546 704.405185 
L 629.785529 700.080258 
L 632.790277 702.720615 
z
" style="stroke:#000000;stroke-linecap:round;"/>
   </g>
   <g id="patch_5">
    <path clip-path="url(#pbc76aeadd4)" d="M 585.953661 487.707802 
Q 603.657071 595.537656 621.179349 702.264246 
" style="fill:none;stroke:#000000;stroke-linecap:round;"/>
    <path clip-path="url(#pbc76aeadd4)" d="M 622.504886 697.99307 
L 621.179349 702.264246 
L 618.55773 698.64111 
L 622.504886 697.99307 
z
" style="stroke:#000000;stroke-linecap:round;"/>
   </g>
   <g id="patch_6">
    <path clip-path="url(#pbc76aeadd4)" d="M 598.843335 474.804712 
Q 693.845476 490.301936 787.744168 505.619159 
" style="fill:none;stroke:#000000;stroke-linecap:round;"/>
    <path clip-path="url(#pbc76aeadd4)" d="M 784.118343 503.001262 
L 787.744168 505.619159 
L 783.474355 506.949081 
L 784.118343 503.001262 
z
" style="stroke:#000000;stroke-linecap:round;"/>
   </g>
   <g id="patch_7">
    <path clip-path="url(#pbc76aeadd4)" d="M 519.649279 519.293404 
Q 673.182326 588.525693 825.696168 657.298394 
" style="fill:none;stroke:#000000;stroke-linecap:round;"/>
    <path clip-path="url(#pbc76aeadd4)" d="M 822.871884 653.830914 
L 825.696168 657.298394 
L 821.227613 657.477333 
L 822.871884 653.830914 
z
" style="stroke:#000000;stroke-linecap:round;"/>
   </g>
   <g id="patch_8">
    <path clip-path="url(#pbc76aeadd4)" d="M 491.812361 504.444865 
Q 360.003208 422.464534 229.143439 341.074685 
" style="fill:none;stroke:#000000;stroke-linecap:round;"/>
    <path clip-path="url(#pbc76aeadd4)" d="M 231.483776 344.885568 
L 229.143439 341.074685 
L 233.596347 341.488945 
L 231.483776 344.885568 
z
" style="stroke:#000000;stroke-linecap:round;"/>
   </g>
   <g id="patch_9">
    <path clip-path="url(#pbc76aeadd4)" d="M 643.81785 163.295374 
Q 524.813526 187.489574 406.904822 211.461029 
" style="fill:none;stroke:#000000;stroke-linecap:round;"/>
    <path clip-path="url(#pbc76aeadd4)" d="M 411.223093 212.624016 
L 406.904822 211.461029 
L 410.426174 208.704205 
L 411.223093 212.624016 
z
" style="stroke:#000000;stroke-linecap:round;"/>
   </g>
   <g id="patch_10">
    <path clip-path="url(#pbc76aeadd4)" d="M 593.21331 172.705511 
Q 618.499928 167.935431 642.68789 163.372601 
" style="fill:none;stroke:#000000;stroke-linecap:round;"/>
    <path clip-path="url(#pbc76aeadd4)" d="M 638.386473 162.148749 
L 642.68789 163.372601 
L 639.127958 166.079423 
L 638.386473 162.148749 
z
" style="stroke:#000000;stroke-linecap:round;"/>
   </g>
   <g id="patch_11">
    <path clip-path="url(#pbc76aeadd4)" d="M 266.393424 554.49141 
Q 342.894169 612.568654 418.504423 669.969862 
" style="fill:none;stroke:#000000;stroke-linecap:round;"/>
    <path clip-path="url(#pbc76aeadd4)" d="M 416.527834 665.958242 
L 418.504423 669.969862 
L 414.109173 669.14416 
L 416.527834 665.958242 
z
" style="stroke:#000000;stroke-linecap:round;"/>
   </g>
   <g id="patch_12">
    <path clip-path="url(#pbc76aeadd4)" d="M 265.984981 554.999874 
Q 284.881263 570.7453 302.918615 585.775018 
" style="fill:none;stroke:#000000;stroke-linecap:round;"/>
    <path clip-path="url(#pbc76aeadd4)" d="M 301.12591 581.677921 
L 302.918615 585.775018 
L 298.565314 584.750924 
L 301.12591 581.677921 
z
" style="stroke:#000000;stroke-linecap:round;"/>
   </g>
   <g id="PathCollection_1">
    <path clip-path="url(#pbc76aeadd4)" d="M 959.32562 465.008525 
C 960.651635 465.008525 961.923519 464.481693 962.861154 463.544059 
C 963.798788 462.606424 964.32562 461.33454 964.32562 460.008525 
C 964.32562 458.682509 963.798788 457.410625 962.861154 456.472991 
C 961.923519 455.535356 960.651635 455.008525 959.32562 455.008525 
C 957.999604 455.008525 956.72772 455.535356 955.790086 456.472991 
C 954.852451 457.410625 954.32562 458.682509 954.32562 460.008525 
C 954.32562 461.33454 954.852451 462.606424 955.790086 463.544059 
C 956.72772 464.481693 957.999604 465.008525 959.32562 465.008525 
z
" style="fill:#f59d7e;stroke:#f59d7e;"/>
    <path clip-path="url(#pbc76aeadd4)" d="M 801.372825 520.53132 
C 804.737984 520.53132 807.965767 519.194328 810.345293 516.814802 
C 812.72482 514.435276 814.061811 511.207492 814.061811 507.842334 
C 814.061811 504.477176 812.72482 501.249392 810.345293 498.869866 
C 807.965767 496.49034 804.737984 495.153348 801.372825 495.153348 
C 798.007667 495.153348 794.779884 496.49034 792.400357 498.869866 
C 790.020831 501.249392 788.68384 504.477176 788.68384 507.842334 
C 788.68384 511.207492 790.020831 514.435276 792.400357 516.814802 
C 794.779884 519.194328 798.007667 520.53132 801.372825 520.53132 
z
" style="fill:#dfdbd9;stroke:#dfdbd9;"/>
    <path clip-path="url(#pbc76aeadd4)" d="M 887.311676 290.352946 
C 889.450238 290.352946 891.501498 289.503286 893.013689 287.991094 
C 894.525881 286.478903 895.37554 284.427643 895.37554 282.289081 
C 895.37554 280.15052 894.525881 278.09926 893.013689 276.587068 
C 891.501498 275.074877 889.450238 274.225217 887.311676 274.225217 
C 885.173114 274.225217 883.121855 275.074877 881.609663 276.587068 
C 880.097471 278.09926 879.247812 280.15052 879.247812 282.289081 
C 879.247812 284.427643 880.097471 286.478903 881.609663 287.991094 
C 883.121855 289.503286 885.173114 290.352946 887.311676 290.352946 
z
" style="fill:#dfdbd9;stroke:#dfdbd9;"/>
    <path clip-path="url(#pbc76aeadd4)" d="M 583.42224 487.915118 
C 587.566296 487.915118 591.54118 486.268667 594.47147 483.338376 
C 597.401761 480.408086 599.048211 476.433202 599.048211 472.289146 
C 599.048211 468.14509 597.401761 464.170206 594.47147 461.239916 
C 591.54118 458.309626 587.566296 456.663175 583.42224 456.663175 
C 579.278184 456.663175 575.3033 458.309626 572.37301 461.239916 
C 569.442719 464.170206 567.796268 468.14509 567.796268 472.289146 
C 567.796268 476.433202 569.442719 480.408086 572.37301 483.338376 
C 575.3033 486.268667 579.278184 487.915118 583.42224 487.915118 
z
" style="fill:#dedcdb;stroke:#dedcdb;"/>
    <path clip-path="url(#pbc76aeadd4)" d="M 622.651189 719.195991 
C 624.764036 719.195991 626.79063 718.356548 628.284638 716.86254 
C 629.778646 715.368532 630.618089 713.341938 630.618089 711.229091 
C 630.618089 709.116244 629.778646 707.08965 628.284638 705.595642 
C 626.79063 704.101633 624.764036 703.26219 622.651189 703.26219 
C 620.538342 703.26219 618.511748 704.101633 617.01774 705.595642 
C 615.523731 707.08965 614.684288 709.116244 614.684288 711.229091 
C 614.684288 713.341938 615.523731 715.368532 617.01774 716.86254 
C 618.511748 718.356548 620.538342 719.195991 622.651189 719.195991 
z
" style="fill:#b5cdfa;stroke:#b5cdfa;"/>
    <path clip-path="url(#pbc76aeadd4)" d="M 505.237142 528.605962 
C 509.430371 528.605962 513.452421 526.939974 516.417482 523.974913 
C 519.382542 521.009852 521.04853 516.987802 521.04853 512.794573 
C 521.04853 508.601344 519.382542 504.579294 516.417482 501.614233 
C 513.452421 498.649173 509.430371 496.983185 505.237142 496.983185 
C 501.043913 496.983185 497.021863 498.649173 494.056802 501.614233 
C 491.091741 504.579294 489.425753 508.601344 489.425753 512.794573 
C 489.425753 516.987802 491.091741 521.009852 494.056802 523.974913 
C 497.021863 526.939974 501.043913 528.605962 505.237142 528.605962 
z
" style="fill:#aac7fd;stroke:#aac7fd;"/>
    <path clip-path="url(#pbc76aeadd4)" d="M 653.086994 170.871764 
C 655.596042 170.871764 658.002664 169.874908 659.776828 168.100744 
C 661.550993 166.326579 662.547849 163.919957 662.547849 161.410909 
C 662.547849 158.901861 661.550993 156.495239 659.776828 154.721075 
C 658.002664 152.94691 655.596042 151.950054 653.086994 151.950054 
C 650.577946 151.950054 648.171324 152.94691 646.397159 154.721075 
C 644.622994 156.495239 643.626139 158.901861 643.626139 161.410909 
C 643.626139 163.919957 644.622994 166.326579 646.397159 168.100744 
C 648.171324 169.874908 650.577946 170.871764 653.086994 170.871764 
z
" style="fill:#3b4cc0;stroke:#3b4cc0;"/>
    <path clip-path="url(#pbc76aeadd4)" d="M 400.503785 218.172995 
C 401.938693 218.172995 403.315024 217.6029 404.329658 216.588266 
C 405.344291 215.573633 405.914386 214.197301 405.914386 212.762393 
C 405.914386 211.327485 405.344291 209.951153 404.329658 208.93652 
C 403.315024 207.921887 401.938693 207.351791 400.503785 207.351791 
C 399.068876 207.351791 397.692545 207.921887 396.677911 208.93652 
C 395.663278 209.951153 395.093183 211.327485 395.093183 212.762393 
C 395.093183 214.197301 395.663278 215.573633 396.677911 216.588266 
C 397.692545 217.6029 399.068876 218.172995 400.503785 218.172995 
z
" style="fill:#b40426;stroke:#b40426;"/>
    <path clip-path="url(#pbc76aeadd4)" d="M 581.184154 187.211565 
C 584.429409 187.211565 587.542184 185.922211 589.836926 183.627469 
C 592.131668 181.332727 593.421022 178.219953 593.421022 174.974697 
C 593.421022 171.729442 592.131668 168.616667 589.836926 166.321925 
C 587.542184 164.027183 584.429409 162.737829 581.184154 162.737829 
C 577.938899 162.737829 574.826124 164.027183 572.531382 166.321925 
C 570.23664 168.616667 568.947286 171.729442 568.947286 174.974697 
C 568.947286 178.219953 570.23664 181.332727 572.531382 183.627469 
C 574.826124 185.922211 577.938899 187.211565 581.184154 187.211565 
z
" style="fill:#b2ccfb;stroke:#b2ccfb;"/>
    <path clip-path="url(#pbc76aeadd4)" d="M 254.936004 560.176067 
C 258.75037 560.176067 262.409024 558.660603 265.106188 555.963439 
C 267.803352 553.266275 269.318816 549.607622 269.318816 545.793255 
C 269.318816 541.978889 267.803352 538.320235 265.106188 535.623071 
C 262.409024 532.925907 258.75037 531.410443 254.936004 531.410443 
C 251.121637 531.410443 247.462984 532.925907 244.76582 535.623071 
C 242.068656 538.320235 240.553192 541.978889 240.553192 545.793255 
C 240.553192 549.607622 242.068656 553.266275 244.76582 555.963439 
C 247.462984 558.660603 251.121637 560.176067 254.936004 560.176067 
z
" style="fill:#e9d5cb;stroke:#e9d5cb;"/>
    <path clip-path="url(#pbc76aeadd4)" d="M 424.932258 681.800672 
C 426.775678 681.800672 428.543845 681.068274 429.84734 679.764779 
C 431.150835 678.461284 431.883234 676.693117 431.883234 674.849697 
C 431.883234 673.006276 431.150835 671.23811 429.84734 669.934615 
C 428.543845 668.63112 426.775678 667.898721 424.932258 667.898721 
C 423.088838 667.898721 421.320671 668.63112 420.017176 669.934615 
C 418.713681 671.23811 417.981283 673.006276 417.981283 674.849697 
C 417.981283 676.693117 418.713681 678.461284 420.017176 679.764779 
C 421.320671 681.068274 423.088838 681.800672 424.932258 681.800672 
z
" style="fill:#dddcdc;stroke:#dddcdc;"/>
    <path clip-path="url(#pbc76aeadd4)" d="M 833.935182 668.931567 
C 836.035053 668.931567 838.049202 668.097279 839.534035 666.612446 
C 841.018868 665.127613 841.853155 663.113464 841.853155 661.013593 
C 841.853155 658.913722 841.018868 656.899574 839.534035 655.414741 
C 838.049202 653.929908 836.035053 653.09562 833.935182 653.09562 
C 831.835311 653.09562 829.821163 653.929908 828.33633 655.414741 
C 826.851497 656.899574 826.017209 658.913722 826.017209 661.013593 
C 826.017209 663.113464 826.851497 665.127613 828.33633 666.612446 
C 829.821163 668.097279 831.835311 668.931567 833.935182 668.931567 
z
" style="fill:#f5c4ac;stroke:#f5c4ac;"/>
    <path clip-path="url(#pbc76aeadd4)" d="M 221.47438 344.222793 
C 223.574251 344.222793 225.5884 343.388505 227.073233 341.903672 
C 228.558066 340.418839 229.392353 338.40469 229.392353 336.304819 
C 229.392353 334.204948 228.558066 332.1908 227.073233 330.705967 
C 225.5884 329.221134 223.574251 328.386846 221.47438 328.386846 
C 219.374509 328.386846 217.360361 329.221134 215.875528 330.705967 
C 214.390695 332.1908 213.556407 334.204948 213.556407 336.304819 
C 213.556407 338.40469 214.390695 340.418839 215.875528 341.903672 
C 217.360361 343.388505 219.374509 344.222793 221.47438 344.222793 
z
" style="fill:#b3cdfb;stroke:#b3cdfb;"/>
    <path clip-path="url(#pbc76aeadd4)" d="M 309.119316 597.89276 
C 310.962736 597.89276 312.730903 597.160362 314.034398 595.856867 
C 315.337893 594.553372 316.070291 592.785205 316.070291 590.941785 
C 316.070291 589.098364 315.337893 587.330198 314.034398 586.026703 
C 312.730903 584.723208 310.962736 583.990809 309.119316 583.990809 
C 307.275895 583.990809 305.507729 584.723208 304.204234 586.026703 
C 302.900739 587.330198 302.16834 589.098364 302.16834 590.941785 
C 302.16834 592.785205 302.900739 594.553372 304.204234 595.856867 
C 305.507729 597.160362 307.275895 597.89276 309.119316 597.89276 
z
" style="fill:#455cce;stroke:#455cce;"/>
   </g>
   <g id="text_1">
    <g clip-path="url(#pbc76aeadd4)">
     <!-- PYCARD -->
     <g transform="translate(939.408432 462.7679)scale(0.1 -0.1)">
      <defs>
       <path d="M 19.671875 64.796875 
L 19.671875 37.40625 
L 32.078125 37.40625 
Q 38.96875 37.40625 42.71875 40.96875 
Q 46.484375 44.53125 46.484375 51.125 
Q 46.484375 57.671875 42.71875 61.234375 
Q 38.96875 64.796875 32.078125 64.796875 
z
M 9.8125 72.90625 
L 32.078125 72.90625 
Q 44.34375 72.90625 50.609375 67.359375 
Q 56.890625 61.8125 56.890625 51.125 
Q 56.890625 40.328125 50.609375 34.8125 
Q 44.34375 29.296875 32.078125 29.296875 
L 19.671875 29.296875 
L 19.671875 0 
L 9.8125 0 
z
" id="DejaVuSans-80"/>
       <path d="M -0.203125 72.90625 
L 10.40625 72.90625 
L 30.609375 42.921875 
L 50.6875 72.90625 
L 61.28125 72.90625 
L 35.5 34.71875 
L 35.5 0 
L 25.59375 0 
L 25.59375 34.71875 
z
" id="DejaVuSans-89"/>
       <path d="M 64.40625 67.28125 
L 64.40625 56.890625 
Q 59.421875 61.53125 53.78125 63.8125 
Q 48.140625 66.109375 41.796875 66.109375 
Q 29.296875 66.109375 22.65625 58.46875 
Q 16.015625 50.828125 16.015625 36.375 
Q 16.015625 21.96875 22.65625 14.328125 
Q 29.296875 6.6875 41.796875 6.6875 
Q 48.140625 6.6875 53.78125 8.984375 
Q 59.421875 11.28125 64.40625 15.921875 
L 64.40625 5.609375 
Q 59.234375 2.09375 53.4375 0.328125 
Q 47.65625 -1.421875 41.21875 -1.421875 
Q 24.65625 -1.421875 15.125 8.703125 
Q 5.609375 18.84375 5.609375 36.375 
Q 5.609375 53.953125 15.125 64.078125 
Q 24.65625 74.21875 41.21875 74.21875 
Q 47.75 74.21875 53.53125 72.484375 
Q 59.328125 70.75 64.40625 67.28125 
z
" id="DejaVuSans-67"/>
       <path d="M 34.1875 63.1875 
L 20.796875 26.90625 
L 47.609375 26.90625 
z
M 28.609375 72.90625 
L 39.796875 72.90625 
L 67.578125 0 
L 57.328125 0 
L 50.6875 18.703125 
L 17.828125 18.703125 
L 11.1875 0 
L 0.78125 0 
z
" id="DejaVuSans-65"/>
       <path d="M 44.390625 34.1875 
Q 47.5625 33.109375 50.5625 29.59375 
Q 53.5625 26.078125 56.59375 19.921875 
L 66.609375 0 
L 56 0 
L 46.6875 18.703125 
Q 43.0625 26.03125 39.671875 28.421875 
Q 36.28125 30.8125 30.421875 30.8125 
L 19.671875 30.8125 
L 19.671875 0 
L 9.8125 0 
L 9.8125 72.90625 
L 32.078125 72.90625 
Q 44.578125 72.90625 50.734375 67.671875 
Q 56.890625 62.453125 56.890625 51.90625 
Q 56.890625 45.015625 53.6875 40.46875 
Q 50.484375 35.9375 44.390625 34.1875 
z
M 19.671875 64.796875 
L 19.671875 38.921875 
L 32.078125 38.921875 
Q 39.203125 38.921875 42.84375 42.21875 
Q 46.484375 45.515625 46.484375 51.90625 
Q 46.484375 58.296875 42.84375 61.546875 
Q 39.203125 64.796875 32.078125 64.796875 
z
" id="DejaVuSans-82"/>
       <path d="M 19.671875 64.796875 
L 19.671875 8.109375 
L 31.59375 8.109375 
Q 46.6875 8.109375 53.6875 14.9375 
Q 60.6875 21.78125 60.6875 36.53125 
Q 60.6875 51.171875 53.6875 57.984375 
Q 46.6875 64.796875 31.59375 64.796875 
z
M 9.8125 72.90625 
L 30.078125 72.90625 
Q 51.265625 72.90625 61.171875 64.09375 
Q 71.09375 55.28125 71.09375 36.53125 
Q 71.09375 17.671875 61.125 8.828125 
Q 51.171875 0 30.078125 0 
L 9.8125 0 
z
" id="DejaVuSans-68"/>
      </defs>
      <use xlink:href="#DejaVuSans-80"/>
      <use x="58.052734" xlink:href="#DejaVuSans-89"/>
      <use x="113.636719" xlink:href="#DejaVuSans-67"/>
      <use x="183.460938" xlink:href="#DejaVuSans-65"/>
      <use x="251.869141" xlink:href="#DejaVuSans-82"/>
      <use x="321.351562" xlink:href="#DejaVuSans-68"/>
     </g>
    </g>
   </g>
   <g id="text_2">
    <g clip-path="url(#pbc76aeadd4)">
     <!-- CASP1 -->
     <g transform="translate(785.090794 510.601709)scale(0.1 -0.1)">
      <defs>
       <path d="M 53.515625 70.515625 
L 53.515625 60.890625 
Q 47.90625 63.578125 42.921875 64.890625 
Q 37.9375 66.21875 33.296875 66.21875 
Q 25.25 66.21875 20.875 63.09375 
Q 16.5 59.96875 16.5 54.203125 
Q 16.5 49.359375 19.40625 46.890625 
Q 22.3125 44.4375 30.421875 42.921875 
L 36.375 41.703125 
Q 47.40625 39.59375 52.65625 34.296875 
Q 57.90625 29 57.90625 20.125 
Q 57.90625 9.515625 50.796875 4.046875 
Q 43.703125 -1.421875 29.984375 -1.421875 
Q 24.8125 -1.421875 18.96875 -0.25 
Q 13.140625 0.921875 6.890625 3.21875 
L 6.890625 13.375 
Q 12.890625 10.015625 18.65625 8.296875 
Q 24.421875 6.59375 29.984375 6.59375 
Q 38.421875 6.59375 43.015625 9.90625 
Q 47.609375 13.234375 47.609375 19.390625 
Q 47.609375 24.75 44.3125 27.78125 
Q 41.015625 30.8125 33.5 32.328125 
L 27.484375 33.5 
Q 16.453125 35.6875 11.515625 40.375 
Q 6.59375 45.0625 6.59375 53.421875 
Q 6.59375 63.09375 13.40625 68.65625 
Q 20.21875 74.21875 32.171875 74.21875 
Q 37.3125 74.21875 42.625 73.28125 
Q 47.953125 72.359375 53.515625 70.515625 
z
" id="DejaVuSans-83"/>
       <path d="M 12.40625 8.296875 
L 28.515625 8.296875 
L 28.515625 63.921875 
L 10.984375 60.40625 
L 10.984375 69.390625 
L 28.421875 72.90625 
L 38.28125 72.90625 
L 38.28125 8.296875 
L 54.390625 8.296875 
L 54.390625 0 
L 12.40625 0 
z
" id="DejaVuSans-49"/>
      </defs>
      <use xlink:href="#DejaVuSans-67"/>
      <use x="69.824219" xlink:href="#DejaVuSans-65"/>
      <use x="138.232422" xlink:href="#DejaVuSans-83"/>
      <use x="201.708984" xlink:href="#DejaVuSans-80"/>
      <use x="262.011719" xlink:href="#DejaVuSans-49"/>
     </g>
    </g>
   </g>
   <g id="text_3">
    <g clip-path="url(#pbc76aeadd4)">
     <!-- IL18 -->
     <g transform="translate(876.688239 285.048456)scale(0.1 -0.1)">
      <defs>
       <path d="M 9.8125 72.90625 
L 19.671875 72.90625 
L 19.671875 0 
L 9.8125 0 
z
" id="DejaVuSans-73"/>
       <path d="M 9.8125 72.90625 
L 19.671875 72.90625 
L 19.671875 8.296875 
L 55.171875 8.296875 
L 55.171875 0 
L 9.8125 0 
z
" id="DejaVuSans-76"/>
       <path d="M 31.78125 34.625 
Q 24.75 34.625 20.71875 30.859375 
Q 16.703125 27.09375 16.703125 20.515625 
Q 16.703125 13.921875 20.71875 10.15625 
Q 24.75 6.390625 31.78125 6.390625 
Q 38.8125 6.390625 42.859375 10.171875 
Q 46.921875 13.96875 46.921875 20.515625 
Q 46.921875 27.09375 42.890625 30.859375 
Q 38.875 34.625 31.78125 34.625 
z
M 21.921875 38.8125 
Q 15.578125 40.375 12.03125 44.71875 
Q 8.5 49.078125 8.5 55.328125 
Q 8.5 64.0625 14.71875 69.140625 
Q 20.953125 74.21875 31.78125 74.21875 
Q 42.671875 74.21875 48.875 69.140625 
Q 55.078125 64.0625 55.078125 55.328125 
Q 55.078125 49.078125 51.53125 44.71875 
Q 48 40.375 41.703125 38.8125 
Q 48.828125 37.15625 52.796875 32.3125 
Q 56.78125 27.484375 56.78125 20.515625 
Q 56.78125 9.90625 50.3125 4.234375 
Q 43.84375 -1.421875 31.78125 -1.421875 
Q 19.734375 -1.421875 13.25 4.234375 
Q 6.78125 9.90625 6.78125 20.515625 
Q 6.78125 27.484375 10.78125 32.3125 
Q 14.796875 37.15625 21.921875 38.8125 
z
M 18.3125 54.390625 
Q 18.3125 48.734375 21.84375 45.5625 
Q 25.390625 42.390625 31.78125 42.390625 
Q 38.140625 42.390625 41.71875 45.5625 
Q 45.3125 48.734375 45.3125 54.390625 
Q 45.3125 60.0625 41.71875 63.234375 
Q 38.140625 66.40625 31.78125 66.40625 
Q 25.390625 66.40625 21.84375 63.234375 
Q 18.3125 60.0625 18.3125 54.390625 
z
" id="DejaVuSans-56"/>
      </defs>
      <use xlink:href="#DejaVuSans-73"/>
      <use x="29.492188" xlink:href="#DejaVuSans-76"/>
      <use x="85.205078" xlink:href="#DejaVuSans-49"/>
      <use x="148.828125" xlink:href="#DejaVuSans-56"/>
     </g>
    </g>
   </g>
   <g id="text_4">
    <g clip-path="url(#pbc76aeadd4)">
     <!-- NAIP -->
     <g transform="translate(571.771459 475.048521)scale(0.1 -0.1)">
      <defs>
       <path d="M 9.8125 72.90625 
L 23.09375 72.90625 
L 55.421875 11.921875 
L 55.421875 72.90625 
L 64.984375 72.90625 
L 64.984375 0 
L 51.703125 0 
L 19.390625 60.984375 
L 19.390625 0 
L 9.8125 0 
z
" id="DejaVuSans-78"/>
      </defs>
      <use xlink:href="#DejaVuSans-78"/>
      <use x="74.804688" xlink:href="#DejaVuSans-65"/>
      <use x="143.212891" xlink:href="#DejaVuSans-73"/>
      <use x="172.705078" xlink:href="#DejaVuSans-80"/>
     </g>
    </g>
   </g>
   <g id="text_5">
    <g clip-path="url(#pbc76aeadd4)">
     <!-- CASP7 -->
     <g transform="translate(606.369158 713.988466)scale(0.1 -0.1)">
      <defs>
       <path d="M 8.203125 72.90625 
L 55.078125 72.90625 
L 55.078125 68.703125 
L 28.609375 0 
L 18.3125 0 
L 43.21875 64.59375 
L 8.203125 64.59375 
z
" id="DejaVuSans-55"/>
      </defs>
      <use xlink:href="#DejaVuSans-67"/>
      <use x="69.824219" xlink:href="#DejaVuSans-65"/>
      <use x="138.232422" xlink:href="#DejaVuSans-83"/>
      <use x="201.708984" xlink:href="#DejaVuSans-80"/>
      <use x="262.011719" xlink:href="#DejaVuSans-55"/>
     </g>
    </g>
   </g>
   <g id="text_6">
    <g clip-path="url(#pbc76aeadd4)">
     <!-- NFKBIA -->
     <g transform="translate(487.016048 515.553948)scale(0.1 -0.1)">
      <defs>
       <path d="M 9.8125 72.90625 
L 51.703125 72.90625 
L 51.703125 64.59375 
L 19.671875 64.59375 
L 19.671875 43.109375 
L 48.578125 43.109375 
L 48.578125 34.8125 
L 19.671875 34.8125 
L 19.671875 0 
L 9.8125 0 
z
" id="DejaVuSans-70"/>
       <path d="M 9.8125 72.90625 
L 19.671875 72.90625 
L 19.671875 42.09375 
L 52.390625 72.90625 
L 65.09375 72.90625 
L 28.90625 38.921875 
L 67.671875 0 
L 54.6875 0 
L 19.671875 35.109375 
L 19.671875 0 
L 9.8125 0 
z
" id="DejaVuSans-75"/>
       <path d="M 19.671875 34.8125 
L 19.671875 8.109375 
L 35.5 8.109375 
Q 43.453125 8.109375 47.28125 11.40625 
Q 51.125 14.703125 51.125 21.484375 
Q 51.125 28.328125 47.28125 31.5625 
Q 43.453125 34.8125 35.5 34.8125 
z
M 19.671875 64.796875 
L 19.671875 42.828125 
L 34.28125 42.828125 
Q 41.5 42.828125 45.03125 45.53125 
Q 48.578125 48.25 48.578125 53.8125 
Q 48.578125 59.328125 45.03125 62.0625 
Q 41.5 64.796875 34.28125 64.796875 
z
M 9.8125 72.90625 
L 35.015625 72.90625 
Q 46.296875 72.90625 52.390625 68.21875 
Q 58.5 63.53125 58.5 54.890625 
Q 58.5 48.1875 55.375 44.234375 
Q 52.25 40.28125 46.1875 39.3125 
Q 53.46875 37.75 57.5 32.78125 
Q 61.53125 27.828125 61.53125 20.40625 
Q 61.53125 10.640625 54.890625 5.3125 
Q 48.25 0 35.984375 0 
L 9.8125 0 
z
" id="DejaVuSans-66"/>
      </defs>
      <use xlink:href="#DejaVuSans-78"/>
      <use x="74.804688" xlink:href="#DejaVuSans-70"/>
      <use x="132.324219" xlink:href="#DejaVuSans-75"/>
      <use x="197.900391" xlink:href="#DejaVuSans-66"/>
      <use x="266.503906" xlink:href="#DejaVuSans-73"/>
      <use x="295.996094" xlink:href="#DejaVuSans-65"/>
     </g>
    </g>
   </g>
   <g id="text_7">
    <g clip-path="url(#pbc76aeadd4)">
     <!-- CASP9 -->
     <g transform="translate(636.804963 164.170284)scale(0.1 -0.1)">
      <defs>
       <path d="M 10.984375 1.515625 
L 10.984375 10.5 
Q 14.703125 8.734375 18.5 7.8125 
Q 22.3125 6.890625 25.984375 6.890625 
Q 35.75 6.890625 40.890625 13.453125 
Q 46.046875 20.015625 46.78125 33.40625 
Q 43.953125 29.203125 39.59375 26.953125 
Q 35.25 24.703125 29.984375 24.703125 
Q 19.046875 24.703125 12.671875 31.3125 
Q 6.296875 37.9375 6.296875 49.421875 
Q 6.296875 60.640625 12.9375 67.421875 
Q 19.578125 74.21875 30.609375 74.21875 
Q 43.265625 74.21875 49.921875 64.515625 
Q 56.59375 54.828125 56.59375 36.375 
Q 56.59375 19.140625 48.40625 8.859375 
Q 40.234375 -1.421875 26.421875 -1.421875 
Q 22.703125 -1.421875 18.890625 -0.6875 
Q 15.09375 0.046875 10.984375 1.515625 
z
M 30.609375 32.421875 
Q 37.25 32.421875 41.125 36.953125 
Q 45.015625 41.5 45.015625 49.421875 
Q 45.015625 57.28125 41.125 61.84375 
Q 37.25 66.40625 30.609375 66.40625 
Q 23.96875 66.40625 20.09375 61.84375 
Q 16.21875 57.28125 16.21875 49.421875 
Q 16.21875 41.5 20.09375 36.953125 
Q 23.96875 32.421875 30.609375 32.421875 
z
" id="DejaVuSans-57"/>
      </defs>
      <use xlink:href="#DejaVuSans-67"/>
      <use x="69.824219" xlink:href="#DejaVuSans-65"/>
      <use x="138.232422" xlink:href="#DejaVuSans-83"/>
      <use x="201.708984" xlink:href="#DejaVuSans-80"/>
      <use x="262.011719" xlink:href="#DejaVuSans-57"/>
     </g>
    </g>
   </g>
   <g id="text_8">
    <g clip-path="url(#pbc76aeadd4)">
     <!-- CASP3 -->
     <g transform="translate(384.221753 215.521768)scale(0.1 -0.1)">
      <defs>
       <path d="M 40.578125 39.3125 
Q 47.65625 37.796875 51.625 33 
Q 55.609375 28.21875 55.609375 21.1875 
Q 55.609375 10.40625 48.1875 4.484375 
Q 40.765625 -1.421875 27.09375 -1.421875 
Q 22.515625 -1.421875 17.65625 -0.515625 
Q 12.796875 0.390625 7.625 2.203125 
L 7.625 11.71875 
Q 11.71875 9.328125 16.59375 8.109375 
Q 21.484375 6.890625 26.8125 6.890625 
Q 36.078125 6.890625 40.9375 10.546875 
Q 45.796875 14.203125 45.796875 21.1875 
Q 45.796875 27.640625 41.28125 31.265625 
Q 36.765625 34.90625 28.71875 34.90625 
L 20.21875 34.90625 
L 20.21875 43.015625 
L 29.109375 43.015625 
Q 36.375 43.015625 40.234375 45.921875 
Q 44.09375 48.828125 44.09375 54.296875 
Q 44.09375 59.90625 40.109375 62.90625 
Q 36.140625 65.921875 28.71875 65.921875 
Q 24.65625 65.921875 20.015625 65.03125 
Q 15.375 64.15625 9.8125 62.3125 
L 9.8125 71.09375 
Q 15.4375 72.65625 20.34375 73.4375 
Q 25.25 74.21875 29.59375 74.21875 
Q 40.828125 74.21875 47.359375 69.109375 
Q 53.90625 64.015625 53.90625 55.328125 
Q 53.90625 49.265625 50.4375 45.09375 
Q 46.96875 40.921875 40.578125 39.3125 
z
" id="DejaVuSans-51"/>
      </defs>
      <use xlink:href="#DejaVuSans-67"/>
      <use x="69.824219" xlink:href="#DejaVuSans-65"/>
      <use x="138.232422" xlink:href="#DejaVuSans-83"/>
      <use x="201.708984" xlink:href="#DejaVuSans-80"/>
      <use x="262.011719" xlink:href="#DejaVuSans-51"/>
     </g>
    </g>
   </g>
   <g id="text_9">
    <g clip-path="url(#pbc76aeadd4)">
     <!-- APAF1 -->
     <g transform="translate(565.590404 177.734072)scale(0.1 -0.1)">
      <use xlink:href="#DejaVuSans-65"/>
      <use x="68.408203" xlink:href="#DejaVuSans-80"/>
      <use x="122.335938" xlink:href="#DejaVuSans-65"/>
      <use x="190.744141" xlink:href="#DejaVuSans-70"/>
      <use x="248.263672" xlink:href="#DejaVuSans-49"/>
     </g>
    </g>
   </g>
   <g id="text_10">
    <g clip-path="url(#pbc76aeadd4)">
     <!-- MYD88 -->
     <g transform="translate(237.355535 548.55263)scale(0.1 -0.1)">
      <defs>
       <path d="M 9.8125 72.90625 
L 24.515625 72.90625 
L 43.109375 23.296875 
L 61.8125 72.90625 
L 76.515625 72.90625 
L 76.515625 0 
L 66.890625 0 
L 66.890625 64.015625 
L 48.09375 14.015625 
L 38.1875 14.015625 
L 19.390625 64.015625 
L 19.390625 0 
L 9.8125 0 
z
" id="DejaVuSans-77"/>
      </defs>
      <use xlink:href="#DejaVuSans-77"/>
      <use x="86.279297" xlink:href="#DejaVuSans-89"/>
      <use x="147.363281" xlink:href="#DejaVuSans-68"/>
      <use x="224.365234" xlink:href="#DejaVuSans-56"/>
      <use x="287.988281" xlink:href="#DejaVuSans-56"/>
     </g>
    </g>
   </g>
   <g id="text_11">
    <g clip-path="url(#pbc76aeadd4)">
     <!-- TNF -->
     <g transform="translate(415.261946 677.609072)scale(0.1 -0.1)">
      <defs>
       <path d="M -0.296875 72.90625 
L 61.375 72.90625 
L 61.375 64.59375 
L 35.5 64.59375 
L 35.5 0 
L 25.59375 0 
L 25.59375 64.59375 
L -0.296875 64.59375 
z
" id="DejaVuSans-84"/>
      </defs>
      <use xlink:href="#DejaVuSans-84"/>
      <use x="61.083984" xlink:href="#DejaVuSans-78"/>
      <use x="135.888672" xlink:href="#DejaVuSans-70"/>
     </g>
    </g>
   </g>
   <g id="text_12">
    <g clip-path="url(#pbc76aeadd4)">
     <!-- NFKB1 -->
     <g transform="translate(817.428151 663.772968)scale(0.1 -0.1)">
      <use xlink:href="#DejaVuSans-78"/>
      <use x="74.804688" xlink:href="#DejaVuSans-70"/>
      <use x="132.324219" xlink:href="#DejaVuSans-75"/>
      <use x="197.900391" xlink:href="#DejaVuSans-66"/>
      <use x="266.503906" xlink:href="#DejaVuSans-49"/>
     </g>
    </g>
   </g>
   <g id="text_13">
    <g clip-path="url(#pbc76aeadd4)">
     <!-- RELA -->
     <g transform="translate(208.522036 339.064194)scale(0.1 -0.1)">
      <defs>
       <path d="M 9.8125 72.90625 
L 55.90625 72.90625 
L 55.90625 64.59375 
L 19.671875 64.59375 
L 19.671875 43.015625 
L 54.390625 43.015625 
L 54.390625 34.71875 
L 19.671875 34.71875 
L 19.671875 8.296875 
L 56.78125 8.296875 
L 56.78125 0 
L 9.8125 0 
z
" id="DejaVuSans-69"/>
      </defs>
      <use xlink:href="#DejaVuSans-82"/>
      <use x="69.482422" xlink:href="#DejaVuSans-69"/>
      <use x="132.666016" xlink:href="#DejaVuSans-76"/>
      <use x="190.628906" xlink:href="#DejaVuSans-65"/>
     </g>
    </g>
   </g>
   <g id="text_14">
    <g clip-path="url(#pbc76aeadd4)">
     <!-- IL12A -->
     <g transform="translate(295.075566 593.70116)scale(0.1 -0.1)">
      <defs>
       <path d="M 19.1875 8.296875 
L 53.609375 8.296875 
L 53.609375 0 
L 7.328125 0 
L 7.328125 8.296875 
Q 12.9375 14.109375 22.625 23.890625 
Q 32.328125 33.6875 34.8125 36.53125 
Q 39.546875 41.84375 41.421875 45.53125 
Q 43.3125 49.21875 43.3125 52.78125 
Q 43.3125 58.59375 39.234375 62.25 
Q 35.15625 65.921875 28.609375 65.921875 
Q 23.96875 65.921875 18.8125 64.3125 
Q 13.671875 62.703125 7.8125 59.421875 
L 7.8125 69.390625 
Q 13.765625 71.78125 18.9375 73 
Q 24.125 74.21875 28.421875 74.21875 
Q 39.75 74.21875 46.484375 68.546875 
Q 53.21875 62.890625 53.21875 53.421875 
Q 53.21875 48.921875 51.53125 44.890625 
Q 49.859375 40.875 45.40625 35.40625 
Q 44.1875 33.984375 37.640625 27.21875 
Q 31.109375 20.453125 19.1875 8.296875 
z
" id="DejaVuSans-50"/>
      </defs>
      <use xlink:href="#DejaVuSans-73"/>
      <use x="29.492188" xlink:href="#DejaVuSans-76"/>
      <use x="85.205078" xlink:href="#DejaVuSans-49"/>
      <use x="148.828125" xlink:href="#DejaVuSans-50"/>
      <use x="212.451172" xlink:href="#DejaVuSans-65"/>
     </g>
    </g>
   </g>
   <g id="text_15">
    <!-- Importance Score and Relative Abundance for network hsa05134 for dataset atherosclerosis -->
    <g transform="translate(312.388125 97.68)scale(0.12 -0.12)">
     <defs>
      <path d="M 52 44.1875 
Q 55.375 50.25 60.0625 53.125 
Q 64.75 56 71.09375 56 
Q 79.640625 56 84.28125 50.015625 
Q 88.921875 44.046875 88.921875 33.015625 
L 88.921875 0 
L 79.890625 0 
L 79.890625 32.71875 
Q 79.890625 40.578125 77.09375 44.375 
Q 74.3125 48.1875 68.609375 48.1875 
Q 61.625 48.1875 57.5625 43.546875 
Q 53.515625 38.921875 53.515625 30.90625 
L 53.515625 0 
L 44.484375 0 
L 44.484375 32.71875 
Q 44.484375 40.625 41.703125 44.40625 
Q 38.921875 48.1875 33.109375 48.1875 
Q 26.21875 48.1875 22.15625 43.53125 
Q 18.109375 38.875 18.109375 30.90625 
L 18.109375 0 
L 9.078125 0 
L 9.078125 54.6875 
L 18.109375 54.6875 
L 18.109375 46.1875 
Q 21.1875 51.21875 25.484375 53.609375 
Q 29.78125 56 35.6875 56 
Q 41.65625 56 45.828125 52.96875 
Q 50 49.953125 52 44.1875 
z
" id="DejaVuSans-109"/>
      <path d="M 18.109375 8.203125 
L 18.109375 -20.796875 
L 9.078125 -20.796875 
L 9.078125 54.6875 
L 18.109375 54.6875 
L 18.109375 46.390625 
Q 20.953125 51.265625 25.265625 53.625 
Q 29.59375 56 35.59375 56 
Q 45.5625 56 51.78125 48.09375 
Q 58.015625 40.1875 58.015625 27.296875 
Q 58.015625 14.40625 51.78125 6.484375 
Q 45.5625 -1.421875 35.59375 -1.421875 
Q 29.59375 -1.421875 25.265625 0.953125 
Q 20.953125 3.328125 18.109375 8.203125 
z
M 48.6875 27.296875 
Q 48.6875 37.203125 44.609375 42.84375 
Q 40.53125 48.484375 33.40625 48.484375 
Q 26.265625 48.484375 22.1875 42.84375 
Q 18.109375 37.203125 18.109375 27.296875 
Q 18.109375 17.390625 22.1875 11.75 
Q 26.265625 6.109375 33.40625 6.109375 
Q 40.53125 6.109375 44.609375 11.75 
Q 48.6875 17.390625 48.6875 27.296875 
z
" id="DejaVuSans-112"/>
      <path d="M 30.609375 48.390625 
Q 23.390625 48.390625 19.1875 42.75 
Q 14.984375 37.109375 14.984375 27.296875 
Q 14.984375 17.484375 19.15625 11.84375 
Q 23.34375 6.203125 30.609375 6.203125 
Q 37.796875 6.203125 41.984375 11.859375 
Q 46.1875 17.53125 46.1875 27.296875 
Q 46.1875 37.015625 41.984375 42.703125 
Q 37.796875 48.390625 30.609375 48.390625 
z
M 30.609375 56 
Q 42.328125 56 49.015625 48.375 
Q 55.71875 40.765625 55.71875 27.296875 
Q 55.71875 13.875 49.015625 6.21875 
Q 42.328125 -1.421875 30.609375 -1.421875 
Q 18.84375 -1.421875 12.171875 6.21875 
Q 5.515625 13.875 5.515625 27.296875 
Q 5.515625 40.765625 12.171875 48.375 
Q 18.84375 56 30.609375 56 
z
" id="DejaVuSans-111"/>
      <path d="M 41.109375 46.296875 
Q 39.59375 47.171875 37.8125 47.578125 
Q 36.03125 48 33.890625 48 
Q 26.265625 48 22.1875 43.046875 
Q 18.109375 38.09375 18.109375 28.8125 
L 18.109375 0 
L 9.078125 0 
L 9.078125 54.6875 
L 18.109375 54.6875 
L 18.109375 46.1875 
Q 20.953125 51.171875 25.484375 53.578125 
Q 30.03125 56 36.53125 56 
Q 37.453125 56 38.578125 55.875 
Q 39.703125 55.765625 41.0625 55.515625 
z
" id="DejaVuSans-114"/>
      <path d="M 18.3125 70.21875 
L 18.3125 54.6875 
L 36.8125 54.6875 
L 36.8125 47.703125 
L 18.3125 47.703125 
L 18.3125 18.015625 
Q 18.3125 11.328125 20.140625 9.421875 
Q 21.96875 7.515625 27.59375 7.515625 
L 36.8125 7.515625 
L 36.8125 0 
L 27.59375 0 
Q 17.1875 0 13.234375 3.875 
Q 9.28125 7.765625 9.28125 18.015625 
L 9.28125 47.703125 
L 2.6875 47.703125 
L 2.6875 54.6875 
L 9.28125 54.6875 
L 9.28125 70.21875 
z
" id="DejaVuSans-116"/>
      <path d="M 34.28125 27.484375 
Q 23.390625 27.484375 19.1875 25 
Q 14.984375 22.515625 14.984375 16.5 
Q 14.984375 11.71875 18.140625 8.90625 
Q 21.296875 6.109375 26.703125 6.109375 
Q 34.1875 6.109375 38.703125 11.40625 
Q 43.21875 16.703125 43.21875 25.484375 
L 43.21875 27.484375 
z
M 52.203125 31.203125 
L 52.203125 0 
L 43.21875 0 
L 43.21875 8.296875 
Q 40.140625 3.328125 35.546875 0.953125 
Q 30.953125 -1.421875 24.3125 -1.421875 
Q 15.921875 -1.421875 10.953125 3.296875 
Q 6 8.015625 6 15.921875 
Q 6 25.140625 12.171875 29.828125 
Q 18.359375 34.515625 30.609375 34.515625 
L 43.21875 34.515625 
L 43.21875 35.40625 
Q 43.21875 41.609375 39.140625 45 
Q 35.0625 48.390625 27.6875 48.390625 
Q 23 48.390625 18.546875 47.265625 
Q 14.109375 46.140625 10.015625 43.890625 
L 10.015625 52.203125 
Q 14.9375 54.109375 19.578125 55.046875 
Q 24.21875 56 28.609375 56 
Q 40.484375 56 46.34375 49.84375 
Q 52.203125 43.703125 52.203125 31.203125 
z
" id="DejaVuSans-97"/>
      <path d="M 54.890625 33.015625 
L 54.890625 0 
L 45.90625 0 
L 45.90625 32.71875 
Q 45.90625 40.484375 42.875 44.328125 
Q 39.84375 48.1875 33.796875 48.1875 
Q 26.515625 48.1875 22.3125 43.546875 
Q 18.109375 38.921875 18.109375 30.90625 
L 18.109375 0 
L 9.078125 0 
L 9.078125 54.6875 
L 18.109375 54.6875 
L 18.109375 46.1875 
Q 21.34375 51.125 25.703125 53.5625 
Q 30.078125 56 35.796875 56 
Q 45.21875 56 50.046875 50.171875 
Q 54.890625 44.34375 54.890625 33.015625 
z
" id="DejaVuSans-110"/>
      <path d="M 48.78125 52.59375 
L 48.78125 44.1875 
Q 44.96875 46.296875 41.140625 47.34375 
Q 37.3125 48.390625 33.40625 48.390625 
Q 24.65625 48.390625 19.8125 42.84375 
Q 14.984375 37.3125 14.984375 27.296875 
Q 14.984375 17.28125 19.8125 11.734375 
Q 24.65625 6.203125 33.40625 6.203125 
Q 37.3125 6.203125 41.140625 7.25 
Q 44.96875 8.296875 48.78125 10.40625 
L 48.78125 2.09375 
Q 45.015625 0.34375 40.984375 -0.53125 
Q 36.96875 -1.421875 32.421875 -1.421875 
Q 20.0625 -1.421875 12.78125 6.34375 
Q 5.515625 14.109375 5.515625 27.296875 
Q 5.515625 40.671875 12.859375 48.328125 
Q 20.21875 56 33.015625 56 
Q 37.15625 56 41.109375 55.140625 
Q 45.0625 54.296875 48.78125 52.59375 
z
" id="DejaVuSans-99"/>
      <path d="M 56.203125 29.59375 
L 56.203125 25.203125 
L 14.890625 25.203125 
Q 15.484375 15.921875 20.484375 11.0625 
Q 25.484375 6.203125 34.421875 6.203125 
Q 39.59375 6.203125 44.453125 7.46875 
Q 49.3125 8.734375 54.109375 11.28125 
L 54.109375 2.78125 
Q 49.265625 0.734375 44.1875 -0.34375 
Q 39.109375 -1.421875 33.890625 -1.421875 
Q 20.796875 -1.421875 13.15625 6.1875 
Q 5.515625 13.8125 5.515625 26.8125 
Q 5.515625 40.234375 12.765625 48.109375 
Q 20.015625 56 32.328125 56 
Q 43.359375 56 49.78125 48.890625 
Q 56.203125 41.796875 56.203125 29.59375 
z
M 47.21875 32.234375 
Q 47.125 39.59375 43.09375 43.984375 
Q 39.0625 48.390625 32.421875 48.390625 
Q 24.90625 48.390625 20.390625 44.140625 
Q 15.875 39.890625 15.1875 32.171875 
z
" id="DejaVuSans-101"/>
      <path id="DejaVuSans-32"/>
      <path d="M 45.40625 46.390625 
L 45.40625 75.984375 
L 54.390625 75.984375 
L 54.390625 0 
L 45.40625 0 
L 45.40625 8.203125 
Q 42.578125 3.328125 38.25 0.953125 
Q 33.9375 -1.421875 27.875 -1.421875 
Q 17.96875 -1.421875 11.734375 6.484375 
Q 5.515625 14.40625 5.515625 27.296875 
Q 5.515625 40.1875 11.734375 48.09375 
Q 17.96875 56 27.875 56 
Q 33.9375 56 38.25 53.625 
Q 42.578125 51.265625 45.40625 46.390625 
z
M 14.796875 27.296875 
Q 14.796875 17.390625 18.875 11.75 
Q 22.953125 6.109375 30.078125 6.109375 
Q 37.203125 6.109375 41.296875 11.75 
Q 45.40625 17.390625 45.40625 27.296875 
Q 45.40625 37.203125 41.296875 42.84375 
Q 37.203125 48.484375 30.078125 48.484375 
Q 22.953125 48.484375 18.875 42.84375 
Q 14.796875 37.203125 14.796875 27.296875 
z
" id="DejaVuSans-100"/>
      <path d="M 9.421875 75.984375 
L 18.40625 75.984375 
L 18.40625 0 
L 9.421875 0 
z
" id="DejaVuSans-108"/>
      <path d="M 9.421875 54.6875 
L 18.40625 54.6875 
L 18.40625 0 
L 9.421875 0 
z
M 9.421875 75.984375 
L 18.40625 75.984375 
L 18.40625 64.59375 
L 9.421875 64.59375 
z
" id="DejaVuSans-105"/>
      <path d="M 2.984375 54.6875 
L 12.5 54.6875 
L 29.59375 8.796875 
L 46.6875 54.6875 
L 56.203125 54.6875 
L 35.6875 0 
L 23.484375 0 
z
" id="DejaVuSans-118"/>
      <path d="M 48.6875 27.296875 
Q 48.6875 37.203125 44.609375 42.84375 
Q 40.53125 48.484375 33.40625 48.484375 
Q 26.265625 48.484375 22.1875 42.84375 
Q 18.109375 37.203125 18.109375 27.296875 
Q 18.109375 17.390625 22.1875 11.75 
Q 26.265625 6.109375 33.40625 6.109375 
Q 40.53125 6.109375 44.609375 11.75 
Q 48.6875 17.390625 48.6875 27.296875 
z
M 18.109375 46.390625 
Q 20.953125 51.265625 25.265625 53.625 
Q 29.59375 56 35.59375 56 
Q 45.5625 56 51.78125 48.09375 
Q 58.015625 40.1875 58.015625 27.296875 
Q 58.015625 14.40625 51.78125 6.484375 
Q 45.5625 -1.421875 35.59375 -1.421875 
Q 29.59375 -1.421875 25.265625 0.953125 
Q 20.953125 3.328125 18.109375 8.203125 
L 18.109375 0 
L 9.078125 0 
L 9.078125 75.984375 
L 18.109375 75.984375 
z
" id="DejaVuSans-98"/>
      <path d="M 8.5 21.578125 
L 8.5 54.6875 
L 17.484375 54.6875 
L 17.484375 21.921875 
Q 17.484375 14.15625 20.5 10.265625 
Q 23.53125 6.390625 29.59375 6.390625 
Q 36.859375 6.390625 41.078125 11.03125 
Q 45.3125 15.671875 45.3125 23.6875 
L 45.3125 54.6875 
L 54.296875 54.6875 
L 54.296875 0 
L 45.3125 0 
L 45.3125 8.40625 
Q 42.046875 3.421875 37.71875 1 
Q 33.40625 -1.421875 27.6875 -1.421875 
Q 18.265625 -1.421875 13.375 4.4375 
Q 8.5 10.296875 8.5 21.578125 
z
M 31.109375 56 
z
" id="DejaVuSans-117"/>
      <path d="M 37.109375 75.984375 
L 37.109375 68.5 
L 28.515625 68.5 
Q 23.6875 68.5 21.796875 66.546875 
Q 19.921875 64.59375 19.921875 59.515625 
L 19.921875 54.6875 
L 34.71875 54.6875 
L 34.71875 47.703125 
L 19.921875 47.703125 
L 19.921875 0 
L 10.890625 0 
L 10.890625 47.703125 
L 2.296875 47.703125 
L 2.296875 54.6875 
L 10.890625 54.6875 
L 10.890625 58.5 
Q 10.890625 67.625 15.140625 71.796875 
Q 19.390625 75.984375 28.609375 75.984375 
z
" id="DejaVuSans-102"/>
      <path d="M 4.203125 54.6875 
L 13.1875 54.6875 
L 24.421875 12.015625 
L 35.59375 54.6875 
L 46.1875 54.6875 
L 57.421875 12.015625 
L 68.609375 54.6875 
L 77.59375 54.6875 
L 63.28125 0 
L 52.6875 0 
L 40.921875 44.828125 
L 29.109375 0 
L 18.5 0 
z
" id="DejaVuSans-119"/>
      <path d="M 9.078125 75.984375 
L 18.109375 75.984375 
L 18.109375 31.109375 
L 44.921875 54.6875 
L 56.390625 54.6875 
L 27.390625 29.109375 
L 57.625 0 
L 45.90625 0 
L 18.109375 26.703125 
L 18.109375 0 
L 9.078125 0 
z
" id="DejaVuSans-107"/>
      <path d="M 54.890625 33.015625 
L 54.890625 0 
L 45.90625 0 
L 45.90625 32.71875 
Q 45.90625 40.484375 42.875 44.328125 
Q 39.84375 48.1875 33.796875 48.1875 
Q 26.515625 48.1875 22.3125 43.546875 
Q 18.109375 38.921875 18.109375 30.90625 
L 18.109375 0 
L 9.078125 0 
L 9.078125 75.984375 
L 18.109375 75.984375 
L 18.109375 46.1875 
Q 21.34375 51.125 25.703125 53.5625 
Q 30.078125 56 35.796875 56 
Q 45.21875 56 50.046875 50.171875 
Q 54.890625 44.34375 54.890625 33.015625 
z
" id="DejaVuSans-104"/>
      <path d="M 44.28125 53.078125 
L 44.28125 44.578125 
Q 40.484375 46.53125 36.375 47.5 
Q 32.28125 48.484375 27.875 48.484375 
Q 21.1875 48.484375 17.84375 46.4375 
Q 14.5 44.390625 14.5 40.28125 
Q 14.5 37.15625 16.890625 35.375 
Q 19.28125 33.59375 26.515625 31.984375 
L 29.59375 31.296875 
Q 39.15625 29.25 43.1875 25.515625 
Q 47.21875 21.78125 47.21875 15.09375 
Q 47.21875 7.46875 41.1875 3.015625 
Q 35.15625 -1.421875 24.609375 -1.421875 
Q 20.21875 -1.421875 15.453125 -0.5625 
Q 10.6875 0.296875 5.421875 2 
L 5.421875 11.28125 
Q 10.40625 8.6875 15.234375 7.390625 
Q 20.0625 6.109375 24.8125 6.109375 
Q 31.15625 6.109375 34.5625 8.28125 
Q 37.984375 10.453125 37.984375 14.40625 
Q 37.984375 18.0625 35.515625 20.015625 
Q 33.0625 21.96875 24.703125 23.78125 
L 21.578125 24.515625 
Q 13.234375 26.265625 9.515625 29.90625 
Q 5.8125 33.546875 5.8125 39.890625 
Q 5.8125 47.609375 11.28125 51.796875 
Q 16.75 56 26.8125 56 
Q 31.78125 56 36.171875 55.265625 
Q 40.578125 54.546875 44.28125 53.078125 
z
" id="DejaVuSans-115"/>
      <path d="M 31.78125 66.40625 
Q 24.171875 66.40625 20.328125 58.90625 
Q 16.5 51.421875 16.5 36.375 
Q 16.5 21.390625 20.328125 13.890625 
Q 24.171875 6.390625 31.78125 6.390625 
Q 39.453125 6.390625 43.28125 13.890625 
Q 47.125 21.390625 47.125 36.375 
Q 47.125 51.421875 43.28125 58.90625 
Q 39.453125 66.40625 31.78125 66.40625 
z
M 31.78125 74.21875 
Q 44.046875 74.21875 50.515625 64.515625 
Q 56.984375 54.828125 56.984375 36.375 
Q 56.984375 17.96875 50.515625 8.265625 
Q 44.046875 -1.421875 31.78125 -1.421875 
Q 19.53125 -1.421875 13.0625 8.265625 
Q 6.59375 17.96875 6.59375 36.375 
Q 6.59375 54.828125 13.0625 64.515625 
Q 19.53125 74.21875 31.78125 74.21875 
z
" id="DejaVuSans-48"/>
      <path d="M 10.796875 72.90625 
L 49.515625 72.90625 
L 49.515625 64.59375 
L 19.828125 64.59375 
L 19.828125 46.734375 
Q 21.96875 47.46875 24.109375 47.828125 
Q 26.265625 48.1875 28.421875 48.1875 
Q 40.625 48.1875 47.75 41.5 
Q 54.890625 34.8125 54.890625 23.390625 
Q 54.890625 11.625 47.5625 5.09375 
Q 40.234375 -1.421875 26.90625 -1.421875 
Q 22.3125 -1.421875 17.546875 -0.640625 
Q 12.796875 0.140625 7.71875 1.703125 
L 7.71875 11.625 
Q 12.109375 9.234375 16.796875 8.0625 
Q 21.484375 6.890625 26.703125 6.890625 
Q 35.15625 6.890625 40.078125 11.328125 
Q 45.015625 15.765625 45.015625 23.390625 
Q 45.015625 31 40.078125 35.4375 
Q 35.15625 39.890625 26.703125 39.890625 
Q 22.75 39.890625 18.8125 39.015625 
Q 14.890625 38.140625 10.796875 36.28125 
z
" id="DejaVuSans-53"/>
      <path d="M 37.796875 64.3125 
L 12.890625 25.390625 
L 37.796875 25.390625 
z
M 35.203125 72.90625 
L 47.609375 72.90625 
L 47.609375 25.390625 
L 58.015625 25.390625 
L 58.015625 17.1875 
L 47.609375 17.1875 
L 47.609375 0 
L 37.796875 0 
L 37.796875 17.1875 
L 4.890625 17.1875 
L 4.890625 26.703125 
z
" id="DejaVuSans-52"/>
     </defs>
     <use xlink:href="#DejaVuSans-73"/>
     <use x="29.492188" xlink:href="#DejaVuSans-109"/>
     <use x="126.904297" xlink:href="#DejaVuSans-112"/>
     <use x="190.380859" xlink:href="#DejaVuSans-111"/>
     <use x="251.5625" xlink:href="#DejaVuSans-114"/>
     <use x="292.675781" xlink:href="#DejaVuSans-116"/>
     <use x="331.884766" xlink:href="#DejaVuSans-97"/>
     <use x="393.164062" xlink:href="#DejaVuSans-110"/>
     <use x="456.542969" xlink:href="#DejaVuSans-99"/>
     <use x="511.523438" xlink:href="#DejaVuSans-101"/>
     <use x="573.046875" xlink:href="#DejaVuSans-32"/>
     <use x="604.833984" xlink:href="#DejaVuSans-83"/>
     <use x="668.310547" xlink:href="#DejaVuSans-99"/>
     <use x="723.291016" xlink:href="#DejaVuSans-111"/>
     <use x="784.472656" xlink:href="#DejaVuSans-114"/>
     <use x="823.335938" xlink:href="#DejaVuSans-101"/>
     <use x="884.859375" xlink:href="#DejaVuSans-32"/>
     <use x="916.646484" xlink:href="#DejaVuSans-97"/>
     <use x="977.925781" xlink:href="#DejaVuSans-110"/>
     <use x="1041.304688" xlink:href="#DejaVuSans-100"/>
     <use x="1104.78125" xlink:href="#DejaVuSans-32"/>
     <use x="1136.568359" xlink:href="#DejaVuSans-82"/>
     <use x="1201.550781" xlink:href="#DejaVuSans-101"/>
     <use x="1263.074219" xlink:href="#DejaVuSans-108"/>
     <use x="1290.857422" xlink:href="#DejaVuSans-97"/>
     <use x="1352.136719" xlink:href="#DejaVuSans-116"/>
     <use x="1391.345703" xlink:href="#DejaVuSans-105"/>
     <use x="1419.128906" xlink:href="#DejaVuSans-118"/>
     <use x="1478.308594" xlink:href="#DejaVuSans-101"/>
     <use x="1539.832031" xlink:href="#DejaVuSans-32"/>
     <use x="1571.619141" xlink:href="#DejaVuSans-65"/>
     <use x="1640.027344" xlink:href="#DejaVuSans-98"/>
     <use x="1703.503906" xlink:href="#DejaVuSans-117"/>
     <use x="1766.882812" xlink:href="#DejaVuSans-110"/>
     <use x="1830.261719" xlink:href="#DejaVuSans-100"/>
     <use x="1893.738281" xlink:href="#DejaVuSans-97"/>
     <use x="1955.017578" xlink:href="#DejaVuSans-110"/>
     <use x="2018.396484" xlink:href="#DejaVuSans-99"/>
     <use x="2073.376953" xlink:href="#DejaVuSans-101"/>
     <use x="2134.900391" xlink:href="#DejaVuSans-32"/>
     <use x="2166.6875" xlink:href="#DejaVuSans-102"/>
     <use x="2201.892578" xlink:href="#DejaVuSans-111"/>
     <use x="2263.074219" xlink:href="#DejaVuSans-114"/>
     <use x="2304.1875" xlink:href="#DejaVuSans-32"/>
     <use x="2335.974609" xlink:href="#DejaVuSans-110"/>
     <use x="2399.353516" xlink:href="#DejaVuSans-101"/>
     <use x="2460.876953" xlink:href="#DejaVuSans-116"/>
     <use x="2500.085938" xlink:href="#DejaVuSans-119"/>
     <use x="2581.873047" xlink:href="#DejaVuSans-111"/>
     <use x="2643.054688" xlink:href="#DejaVuSans-114"/>
     <use x="2684.167969" xlink:href="#DejaVuSans-107"/>
     <use x="2742.078125" xlink:href="#DejaVuSans-32"/>
     <use x="2773.865234" xlink:href="#DejaVuSans-104"/>
     <use x="2837.244141" xlink:href="#DejaVuSans-115"/>
     <use x="2889.34375" xlink:href="#DejaVuSans-97"/>
     <use x="2950.623047" xlink:href="#DejaVuSans-48"/>
     <use x="3014.246094" xlink:href="#DejaVuSans-53"/>
     <use x="3077.869141" xlink:href="#DejaVuSans-49"/>
     <use x="3141.492188" xlink:href="#DejaVuSans-51"/>
     <use x="3205.115234" xlink:href="#DejaVuSans-52"/>
     <use x="3268.738281" xlink:href="#DejaVuSans-32"/>
     <use x="3300.525391" xlink:href="#DejaVuSans-102"/>
     <use x="3335.730469" xlink:href="#DejaVuSans-111"/>
     <use x="3396.912109" xlink:href="#DejaVuSans-114"/>
     <use x="3438.025391" xlink:href="#DejaVuSans-32"/>
     <use x="3469.8125" xlink:href="#DejaVuSans-100"/>
     <use x="3533.289062" xlink:href="#DejaVuSans-97"/>
     <use x="3594.568359" xlink:href="#DejaVuSans-116"/>
     <use x="3633.777344" xlink:href="#DejaVuSans-97"/>
     <use x="3695.056641" xlink:href="#DejaVuSans-115"/>
     <use x="3747.15625" xlink:href="#DejaVuSans-101"/>
     <use x="3808.679688" xlink:href="#DejaVuSans-116"/>
     <use x="3847.888672" xlink:href="#DejaVuSans-32"/>
     <use x="3879.675781" xlink:href="#DejaVuSans-97"/>
     <use x="3940.955078" xlink:href="#DejaVuSans-116"/>
     <use x="3980.164062" xlink:href="#DejaVuSans-104"/>
     <use x="4043.542969" xlink:href="#DejaVuSans-101"/>
     <use x="4105.066406" xlink:href="#DejaVuSans-114"/>
     <use x="4143.929688" xlink:href="#DejaVuSans-111"/>
     <use x="4205.111328" xlink:href="#DejaVuSans-115"/>
     <use x="4257.210938" xlink:href="#DejaVuSans-99"/>
     <use x="4312.191406" xlink:href="#DejaVuSans-108"/>
     <use x="4339.974609" xlink:href="#DejaVuSans-101"/>
     <use x="4401.498047" xlink:href="#DejaVuSans-114"/>
     <use x="4440.361328" xlink:href="#DejaVuSans-111"/>
     <use x="4501.542969" xlink:href="#DejaVuSans-115"/>
     <use x="4553.642578" xlink:href="#DejaVuSans-105"/>
     <use x="4581.425781" xlink:href="#DejaVuSans-115"/>
    </g>
   </g>
   <g id="legend_1">
    <g id="patch_13">
     <path d="M 803.859375 155.714375 
L 1029.8 155.714375 
Q 1031.8 155.714375 1031.8 153.714375 
L 1031.8 110.68 
Q 1031.8 108.68 1029.8 108.68 
L 803.859375 108.68 
Q 801.859375 108.68 801.859375 110.68 
L 801.859375 153.714375 
Q 801.859375 155.714375 803.859375 155.714375 
z
" style="fill:#ffffff;opacity:0.8;stroke:#cccccc;stroke-linejoin:miter;"/>
    </g>
    <g id="text_16">
     <!-- Relative Expression of AS+ compared to AS- -->
     <g transform="translate(805.859375 120.278437)scale(0.1 -0.1)">
      <defs>
       <path d="M 54.890625 54.6875 
L 35.109375 28.078125 
L 55.90625 0 
L 45.3125 0 
L 29.390625 21.484375 
L 13.484375 0 
L 2.875 0 
L 24.125 28.609375 
L 4.6875 54.6875 
L 15.28125 54.6875 
L 29.78125 35.203125 
L 44.28125 54.6875 
z
" id="DejaVuSans-120"/>
       <path d="M 46 62.703125 
L 46 35.5 
L 73.1875 35.5 
L 73.1875 27.203125 
L 46 27.203125 
L 46 0 
L 37.796875 0 
L 37.796875 27.203125 
L 10.59375 27.203125 
L 10.59375 35.5 
L 37.796875 35.5 
L 37.796875 62.703125 
z
" id="DejaVuSans-43"/>
       <path d="M 4.890625 31.390625 
L 31.203125 31.390625 
L 31.203125 23.390625 
L 4.890625 23.390625 
z
" id="DejaVuSans-45"/>
      </defs>
      <use xlink:href="#DejaVuSans-82"/>
      <use x="64.982422" xlink:href="#DejaVuSans-101"/>
      <use x="126.505859" xlink:href="#DejaVuSans-108"/>
      <use x="154.289062" xlink:href="#DejaVuSans-97"/>
      <use x="215.568359" xlink:href="#DejaVuSans-116"/>
      <use x="254.777344" xlink:href="#DejaVuSans-105"/>
      <use x="282.560547" xlink:href="#DejaVuSans-118"/>
      <use x="341.740234" xlink:href="#DejaVuSans-101"/>
      <use x="403.263672" xlink:href="#DejaVuSans-32"/>
      <use x="435.050781" xlink:href="#DejaVuSans-69"/>
      <use x="498.234375" xlink:href="#DejaVuSans-120"/>
      <use x="557.414062" xlink:href="#DejaVuSans-112"/>
      <use x="620.890625" xlink:href="#DejaVuSans-114"/>
      <use x="659.753906" xlink:href="#DejaVuSans-101"/>
      <use x="721.277344" xlink:href="#DejaVuSans-115"/>
      <use x="773.376953" xlink:href="#DejaVuSans-115"/>
      <use x="825.476562" xlink:href="#DejaVuSans-105"/>
      <use x="853.259766" xlink:href="#DejaVuSans-111"/>
      <use x="914.441406" xlink:href="#DejaVuSans-110"/>
      <use x="977.820312" xlink:href="#DejaVuSans-32"/>
      <use x="1009.607422" xlink:href="#DejaVuSans-111"/>
      <use x="1070.789062" xlink:href="#DejaVuSans-102"/>
      <use x="1105.994141" xlink:href="#DejaVuSans-32"/>
      <use x="1137.78125" xlink:href="#DejaVuSans-65"/>
      <use x="1206.189453" xlink:href="#DejaVuSans-83"/>
      <use x="1269.666016" xlink:href="#DejaVuSans-43"/>
      <use x="1353.455078" xlink:href="#DejaVuSans-32"/>
      <use x="1385.242188" xlink:href="#DejaVuSans-99"/>
      <use x="1440.222656" xlink:href="#DejaVuSans-111"/>
      <use x="1501.404297" xlink:href="#DejaVuSans-109"/>
      <use x="1598.816406" xlink:href="#DejaVuSans-112"/>
      <use x="1662.292969" xlink:href="#DejaVuSans-97"/>
      <use x="1723.572266" xlink:href="#DejaVuSans-114"/>
      <use x="1762.435547" xlink:href="#DejaVuSans-101"/>
      <use x="1823.958984" xlink:href="#DejaVuSans-100"/>
      <use x="1887.435547" xlink:href="#DejaVuSans-32"/>
      <use x="1919.222656" xlink:href="#DejaVuSans-116"/>
      <use x="1958.431641" xlink:href="#DejaVuSans-111"/>
      <use x="2019.613281" xlink:href="#DejaVuSans-32"/>
      <use x="2051.400391" xlink:href="#DejaVuSans-65"/>
      <use x="2119.808594" xlink:href="#DejaVuSans-83"/>
      <use x="2183.285156" xlink:href="#DejaVuSans-45"/>
     </g>
    </g>
    <g id="patch_14">
     <path d="M 829.136719 134.956562 
L 849.136719 134.956562 
L 849.136719 127.956562 
L 829.136719 127.956562 
z
" style="fill:#0000ff;stroke:#0000ff;stroke-linejoin:miter;"/>
    </g>
    <g id="text_17">
     <!-- Decreased expression in AS+ -->
     <g transform="translate(857.136719 134.956562)scale(0.1 -0.1)">
      <use xlink:href="#DejaVuSans-68"/>
      <use x="77.001953" xlink:href="#DejaVuSans-101"/>
      <use x="138.525391" xlink:href="#DejaVuSans-99"/>
      <use x="193.505859" xlink:href="#DejaVuSans-114"/>
      <use x="232.369141" xlink:href="#DejaVuSans-101"/>
      <use x="293.892578" xlink:href="#DejaVuSans-97"/>
      <use x="355.171875" xlink:href="#DejaVuSans-115"/>
      <use x="407.271484" xlink:href="#DejaVuSans-101"/>
      <use x="468.794922" xlink:href="#DejaVuSans-100"/>
      <use x="532.271484" xlink:href="#DejaVuSans-32"/>
      <use x="564.058594" xlink:href="#DejaVuSans-101"/>
      <use x="623.832031" xlink:href="#DejaVuSans-120"/>
      <use x="683.011719" xlink:href="#DejaVuSans-112"/>
      <use x="746.488281" xlink:href="#DejaVuSans-114"/>
      <use x="785.351562" xlink:href="#DejaVuSans-101"/>
      <use x="846.875" xlink:href="#DejaVuSans-115"/>
      <use x="898.974609" xlink:href="#DejaVuSans-115"/>
      <use x="951.074219" xlink:href="#DejaVuSans-105"/>
      <use x="978.857422" xlink:href="#DejaVuSans-111"/>
      <use x="1040.039062" xlink:href="#DejaVuSans-110"/>
      <use x="1103.417969" xlink:href="#DejaVuSans-32"/>
      <use x="1135.205078" xlink:href="#DejaVuSans-105"/>
      <use x="1162.988281" xlink:href="#DejaVuSans-110"/>
      <use x="1226.367188" xlink:href="#DejaVuSans-32"/>
      <use x="1258.154297" xlink:href="#DejaVuSans-65"/>
      <use x="1326.5625" xlink:href="#DejaVuSans-83"/>
      <use x="1390.039062" xlink:href="#DejaVuSans-43"/>
     </g>
    </g>
    <g id="patch_15">
     <path d="M 829.136719 149.634687 
L 849.136719 149.634687 
L 849.136719 142.634687 
L 829.136719 142.634687 
z
" style="fill:#ff0000;stroke:#ff0000;stroke-linejoin:miter;"/>
    </g>
    <g id="text_18">
     <!-- Increased expression in AS+ -->
     <g transform="translate(857.136719 149.634687)scale(0.1 -0.1)">
      <use xlink:href="#DejaVuSans-73"/>
      <use x="29.492188" xlink:href="#DejaVuSans-110"/>
      <use x="92.871094" xlink:href="#DejaVuSans-99"/>
      <use x="147.851562" xlink:href="#DejaVuSans-114"/>
      <use x="186.714844" xlink:href="#DejaVuSans-101"/>
      <use x="248.238281" xlink:href="#DejaVuSans-97"/>
      <use x="309.517578" xlink:href="#DejaVuSans-115"/>
      <use x="361.617188" xlink:href="#DejaVuSans-101"/>
      <use x="423.140625" xlink:href="#DejaVuSans-100"/>
      <use x="486.617188" xlink:href="#DejaVuSans-32"/>
      <use x="518.404297" xlink:href="#DejaVuSans-101"/>
      <use x="578.177734" xlink:href="#DejaVuSans-120"/>
      <use x="637.357422" xlink:href="#DejaVuSans-112"/>
      <use x="700.833984" xlink:href="#DejaVuSans-114"/>
      <use x="739.697266" xlink:href="#DejaVuSans-101"/>
      <use x="801.220703" xlink:href="#DejaVuSans-115"/>
      <use x="853.320312" xlink:href="#DejaVuSans-115"/>
      <use x="905.419922" xlink:href="#DejaVuSans-105"/>
      <use x="933.203125" xlink:href="#DejaVuSans-111"/>
      <use x="994.384766" xlink:href="#DejaVuSans-110"/>
      <use x="1057.763672" xlink:href="#DejaVuSans-32"/>
      <use x="1089.550781" xlink:href="#DejaVuSans-105"/>
      <use x="1117.333984" xlink:href="#DejaVuSans-110"/>
      <use x="1180.712891" xlink:href="#DejaVuSans-32"/>
      <use x="1212.5" xlink:href="#DejaVuSans-65"/>
      <use x="1280.908203" xlink:href="#DejaVuSans-83"/>
      <use x="1344.384766" xlink:href="#DejaVuSans-43"/>
     </g>
    </g>
   </g>
  </g>
 </g>
 <defs>
  <clipPath id="pbc76aeadd4">
   <rect height="665.28" width="892.8" x="144" y="103.68"/>
  </clipPath>
 </defs>
</svg>
