<?xml version="1.0" encoding="utf-8" standalone="no"?>
<!DOCTYPE svg PUBLIC "-//W3C//DTD SVG 1.1//EN"
  "http://www.w3.org/Graphics/SVG/1.1/DTD/svg11.dtd">
<!-- Created with matplotlib (https://matplotlib.org/) -->
<svg height="864pt" version="1.1" viewBox="0 0 1152 864" width="1152pt" xmlns="http://www.w3.org/2000/svg" xmlns:xlink="http://www.w3.org/1999/xlink">
 <metadata>
  <rdf:RDF xmlns:cc="http://creativecommons.org/ns#" xmlns:dc="http://purl.org/dc/elements/1.1/" xmlns:rdf="http://www.w3.org/1999/02/22-rdf-syntax-ns#">
   <cc:Work>
    <dc:type rdf:resource="http://purl.org/dc/dcmitype/StillImage"/>
    <dc:date>2024-04-26T11:31:21.859087</dc:date>
    <dc:format>image/svg+xml</dc:format>
    <dc:creator>
     <cc:Agent>
      <dc:title>Matplotlib v3.3.1, https://matplotlib.org/</dc:title>
     </cc:Agent>
    </dc:creator>
   </cc:Work>
  </rdf:RDF>
 </metadata>
 <defs>
  <style type="text/css">*{stroke-linecap:butt;stroke-linejoin:round;}</style>
 </defs>
 <g id="figure_1">
  <g id="patch_1">
   <path d="M 0 864 
L 1152 864 
L 1152 0 
L 0 0 
z
" style="fill:#ffffff;"/>
  </g>
  <g id="axes_1">
   <g id="patch_2">
    <path clip-path="url(#pe090736152)" d="M 525.859919 556.210624 
Q 528.58885 524.574895 531.221694 494.053063 
" style="fill:none;stroke:#000000;stroke-linecap:round;"/>
    <path clip-path="url(#pe090736152)" d="M 528.885327 497.86638 
L 531.221694 494.053063 
L 532.870527 498.210147 
L 528.885327 497.86638 
z
" style="stroke:#000000;stroke-linecap:round;"/>
   </g>
   <g id="patch_3">
    <path clip-path="url(#pe090736152)" d="M 531.824469 562.605703 
Q 736.897219 559.149297 940.852093 555.711732 
" style="fill:none;stroke:#000000;stroke-linecap:round;"/>
    <path clip-path="url(#pe090736152)" d="M 936.818956 553.779425 
L 940.852093 555.711732 
L 936.886365 557.778857 
L 936.818956 553.779425 
z
" style="stroke:#000000;stroke-linecap:round;"/>
   </g>
   <g id="patch_4">
    <path clip-path="url(#pe090736152)" d="M 526.346838 556.271877 
Q 541.73198 461.678412 556.937639 368.18848 
" style="fill:none;stroke:#000000;stroke-linecap:round;"/>
    <path clip-path="url(#pe090736152)" d="M 554.321437 371.815529 
L 556.937639 368.18848 
L 558.269557 372.457671 
L 554.321437 371.815529 
z
" style="stroke:#000000;stroke-linecap:round;"/>
   </g>
   <g id="patch_5">
    <path clip-path="url(#pe090736152)" d="M 626.263217 563.118364 
Q 581.518083 526.869889 537.641686 491.325185 
" style="fill:none;stroke:#000000;stroke-linecap:round;"/>
    <path clip-path="url(#pe090736152)" d="M 539.490827 495.397123 
L 537.641686 491.325185 
L 542.008721 492.289034 
L 539.490827 495.397123 
z
" style="stroke:#000000;stroke-linecap:round;"/>
   </g>
   <g id="patch_6">
    <path clip-path="url(#pe090736152)" d="M 637.778939 566.959437 
Q 789.876518 561.390817 940.856811 555.863103 
" style="fill:none;stroke:#000000;stroke-linecap:round;"/>
    <path clip-path="url(#pe090736152)" d="M 936.786314 554.010792 
L 940.856811 555.863103 
L 936.932664 558.008114 
L 936.786314 554.010792 
z
" style="stroke:#000000;stroke-linecap:round;"/>
   </g>
   <g id="patch_7">
    <path clip-path="url(#pe090736152)" d="M 629.16137 561.076147 
Q 595.243951 463.896262 561.694951 367.771967 
" style="fill:none;stroke:#000000;stroke-linecap:round;"/>
    <path clip-path="url(#pe090736152)" d="M 561.12475 372.207603 
L 561.694951 367.771967 
L 564.90134 370.88951 
L 561.12475 372.207603 
z
" style="stroke:#000000;stroke-linecap:round;"/>
   </g>
   <g id="patch_8">
    <path clip-path="url(#pe090736152)" d="M 626.712692 419.412385 
Q 458.686959 517.160178 291.627629 614.345773 
" style="fill:none;stroke:#000000;stroke-linecap:round;"/>
    <path clip-path="url(#pe090736152)" d="M 296.090825 614.063146 
L 291.627629 614.345773 
L 294.079445 610.60564 
L 296.090825 614.063146 
z
" style="stroke:#000000;stroke-linecap:round;"/>
   </g>
   <g id="patch_9">
    <path clip-path="url(#pe090736152)" d="M 636.321843 423.331072 
Q 675.279181 564.211588 713.938535 704.014512 
" style="fill:none;stroke:#000000;stroke-linecap:round;"/>
    <path clip-path="url(#pe090736152)" d="M 714.800091 699.62615 
L 713.938535 704.014512 
L 710.944779 700.69225 
L 714.800091 699.62615 
z
" style="stroke:#000000;stroke-linecap:round;"/>
   </g>
   <g id="patch_10">
    <path clip-path="url(#pe090736152)" d="M 227.976727 528.97301 
Q 224.988016 438.954628 222.036404 350.053665 
" style="fill:none;stroke:#000000;stroke-linecap:round;"/>
    <path clip-path="url(#pe090736152)" d="M 220.170237 354.117828 
L 222.036404 350.053665 
L 224.168034 353.985096 
L 220.170237 354.117828 
z
" style="stroke:#000000;stroke-linecap:round;"/>
   </g>
   <g id="patch_11">
    <path clip-path="url(#pe090736152)" d="M 442.201346 483.906695 
Q 414.261582 573.599159 386.654334 662.224179 
" style="fill:none;stroke:#000000;stroke-linecap:round;"/>
    <path clip-path="url(#pe090736152)" d="M 389.753475 659.000002 
L 386.654334 662.224179 
L 385.934476 657.81036 
L 389.753475 659.000002 
z
" style="stroke:#000000;stroke-linecap:round;"/>
   </g>
   <g id="patch_12">
    <path clip-path="url(#pe090736152)" d="M 442.618926 462.719352 
Q 408.362417 335.212785 374.395996 208.785963 
" style="fill:none;stroke:#000000;stroke-linecap:round;"/>
    <path clip-path="url(#pe090736152)" d="M 373.502345 213.167902 
L 374.395996 208.785963 
L 377.365356 212.130047 
L 373.502345 213.167902 
z
" style="stroke:#000000;stroke-linecap:round;"/>
   </g>
   <g id="patch_13">
    <path clip-path="url(#pe090736152)" d="M 451.334361 482.727299 
Q 517.297195 588.129991 582.666916 692.584941 
" style="fill:none;stroke:#000000;stroke-linecap:round;"/>
    <path clip-path="url(#pe090736152)" d="M 582.240301 688.133199 
L 582.666916 692.584941 
L 578.849554 690.255188 
L 582.240301 688.133199 
z
" style="stroke:#000000;stroke-linecap:round;"/>
   </g>
   <g id="patch_14">
    <path clip-path="url(#pe090736152)" d="M 452.310769 464.712706 
Q 559.676973 328.51286 666.351028 193.191041 
" style="fill:none;stroke:#000000;stroke-linecap:round;"/>
    <path clip-path="url(#pe090736152)" d="M 662.304062 195.094215 
L 666.351028 193.191041 
L 665.445387 197.570518 
L 662.304062 195.094215 
z
" style="stroke:#000000;stroke-linecap:round;"/>
   </g>
   <g id="patch_15">
    <path clip-path="url(#pe090736152)" d="M 446.241529 484.378107 
Q 453.763184 593.318129 461.20783 701.142772 
" style="fill:none;stroke:#000000;stroke-linecap:round;"/>
    <path clip-path="url(#pe090736152)" d="M 462.92756 697.014512 
L 461.20783 701.142772 
L 458.93706 697.290032 
L 462.92756 697.014512 
z
" style="stroke:#000000;stroke-linecap:round;"/>
   </g>
   <g id="patch_16">
    <path clip-path="url(#pe090736152)" d="M 293.963697 406.405497 
Q 262.799847 468.094242 232.140126 528.785063 
" style="fill:none;stroke:#000000;stroke-linecap:round;"/>
    <path clip-path="url(#pe090736152)" d="M 235.728899 526.116597 
L 232.140126 528.785063 
L 232.158617 524.312966 
L 235.728899 526.116597 
z
" style="stroke:#000000;stroke-linecap:round;"/>
   </g>
   <g id="patch_17">
    <path clip-path="url(#pe090736152)" d="M 309.895852 397.203674 
Q 467.734865 405.937155 624.457552 414.608868 
" style="fill:none;stroke:#000000;stroke-linecap:round;"/>
    <path clip-path="url(#pe090736152)" d="M 620.574155 412.390934 
L 624.457552 414.608868 
L 620.353167 416.384825 
L 620.574155 412.390934 
z
" style="stroke:#000000;stroke-linecap:round;"/>
   </g>
   <g id="patch_18">
    <path clip-path="url(#pe090736152)" d="M 308.658483 401.698448 
Q 372.186907 434.978816 434.724963 467.740364 
" style="fill:none;stroke:#000000;stroke-linecap:round;"/>
    <path clip-path="url(#pe090736152)" d="M 432.109811 464.112558 
L 434.724963 467.740364 
L 430.253627 467.655802 
L 432.109811 464.112558 
z
" style="stroke:#000000;stroke-linecap:round;"/>
   </g>
   <g id="patch_19">
    <path clip-path="url(#pe090736152)" d="M 608.212839 491.075199 
Q 534.736393 343.956116 461.759496 197.837259 
" style="fill:none;stroke:#000000;stroke-linecap:round;"/>
    <path clip-path="url(#pe090736152)" d="M 461.757474 202.309395 
L 461.759496 197.837259 
L 465.335991 200.522158 
L 461.757474 202.309395 
z
" style="stroke:#000000;stroke-linecap:round;"/>
   </g>
   <g id="patch_20">
    <path clip-path="url(#pe090736152)" d="M 475.73156 360.38503 
Q 462.033438 411.551096 448.624452 461.637162 
" style="fill:none;stroke:#000000;stroke-linecap:round;"/>
    <path clip-path="url(#pe090736152)" d="M 451.590861 458.29046 
L 448.624452 461.637162 
L 447.726935 457.256014 
L 451.590861 458.29046 
z
" style="stroke:#000000;stroke-linecap:round;"/>
   </g>
   <g id="patch_21">
    <path clip-path="url(#pe090736152)" d="M 466.659273 353.306802 
Q 346.85965 420.017669 228.036827 486.184603 
" style="fill:none;stroke:#000000;stroke-linecap:round;"/>
    <path clip-path="url(#pe090736152)" d="M 232.504547 485.985916 
L 228.036827 486.184603 
L 230.55851 482.491214 
L 232.504547 485.985916 
z
" style="stroke:#000000;stroke-linecap:round;"/>
   </g>
   <g id="patch_22">
    <path clip-path="url(#pe090736152)" d="M 493.017056 352.145542 
Q 559.656694 381.909697 625.275495 411.217901 
" style="fill:none;stroke:#000000;stroke-linecap:round;"/>
    <path clip-path="url(#pe090736152)" d="M 622.438864 407.760514 
L 625.275495 411.217901 
L 620.807607 411.412774 
L 622.438864 407.760514 
z
" style="stroke:#000000;stroke-linecap:round;"/>
   </g>
   <g id="patch_23">
    <path clip-path="url(#pe090736152)" d="M 493.887734 342.655393 
Q 683.095803 296.813465 871.217274 251.234801 
" style="fill:none;stroke:#000000;stroke-linecap:round;"/>
    <path clip-path="url(#pe090736152)" d="M 866.858807 250.23292 
L 871.217274 251.234801 
L 867.800689 254.120446 
L 866.858807 250.23292 
z
" style="stroke:#000000;stroke-linecap:round;"/>
   </g>
   <g id="patch_24">
    <path clip-path="url(#pe090736152)" d="M 470.767292 334.274833 
Q 423.508875 270.47114 376.91591 207.565875 
" style="fill:none;stroke:#000000;stroke-linecap:round;"/>
    <path clip-path="url(#pe090736152)" d="M 377.689546 211.970587 
L 376.91591 207.565875 
L 380.903861 209.589793 
L 377.689546 211.970587 
z
" style="stroke:#000000;stroke-linecap:round;"/>
   </g>
   <g id="patch_25">
    <path clip-path="url(#pe090736152)" d="M 465.085481 349.058185 
Q 429.692633 356.224882 395.39558 363.169692 
" style="fill:none;stroke:#000000;stroke-linecap:round;"/>
    <path clip-path="url(#pe090736152)" d="M 399.712938 364.33606 
L 395.39558 363.169692 
L 398.91909 360.415626 
L 399.712938 364.33606 
z
" style="stroke:#000000;stroke-linecap:round;"/>
   </g>
   <g id="patch_26">
    <path clip-path="url(#pe090736152)" d="M 388.43652 376.548239 
Q 414.158979 420.208876 439.313921 462.906225 
" style="fill:none;stroke:#000000;stroke-linecap:round;"/>
    <path clip-path="url(#pe090736152)" d="M 439.006693 458.444655 
L 439.313921 462.906225 
L 435.560328 460.475065 
L 439.006693 458.444655 
z
" style="stroke:#000000;stroke-linecap:round;"/>
   </g>
   <g id="patch_27">
    <path clip-path="url(#pe090736152)" d="M 372.31319 373.435195 
Q 299.424414 429.684151 227.420756 485.250051 
" style="fill:none;stroke:#000000;stroke-linecap:round;"/>
    <path clip-path="url(#pe090736152)" d="M 231.809341 484.389629 
L 227.420756 485.250051 
L 229.36557 481.22293 
L 231.809341 484.389629 
z
" style="stroke:#000000;stroke-linecap:round;"/>
   </g>
   <g id="patch_28">
    <path clip-path="url(#pe090736152)" d="M 795.038008 277.619839 
Q 858.332894 295.317516 920.551043 312.714129 
" style="fill:none;stroke:#000000;stroke-linecap:round;"/>
    <path clip-path="url(#pe090736152)" d="M 917.237351 309.71089 
L 920.551043 312.714129 
L 916.160237 313.563139 
L 917.237351 309.71089 
z
" style="stroke:#000000;stroke-linecap:round;"/>
   </g>
   <g id="patch_29">
    <path clip-path="url(#pe090736152)" d="M 779.629713 271.746507 
Q 669.869459 217.948306 561.113131 164.642174 
" style="fill:none;stroke:#000000;stroke-linecap:round;"/>
    <path clip-path="url(#pe090736152)" d="M 563.824653 168.198528 
L 561.113131 164.642174 
L 565.585127 164.606769 
L 563.824653 168.198528 
z
" style="stroke:#000000;stroke-linecap:round;"/>
   </g>
   <g id="patch_30">
    <path clip-path="url(#pe090736152)" d="M 812.720584 421.952169 
Q 867.896934 370.448603 922.255982 319.707937 
" style="fill:none;stroke:#000000;stroke-linecap:round;"/>
    <path clip-path="url(#pe090736152)" d="M 917.967193 320.975333 
L 922.255982 319.707937 
L 920.696626 323.899405 
L 917.967193 320.975333 
z
" style="stroke:#000000;stroke-linecap:round;"/>
   </g>
   <g id="patch_31">
    <path clip-path="url(#pe090736152)" d="M 801.014417 421.594609 
Q 679.908587 293.762732 559.571686 166.742488 
" style="fill:none;stroke:#000000;stroke-linecap:round;"/>
    <path clip-path="url(#pe090736152)" d="M 560.870794 171.021778 
L 559.571686 166.742488 
L 563.774582 168.270776 
L 560.870794 171.021778 
z
" style="stroke:#000000;stroke-linecap:round;"/>
   </g>
   <g id="patch_32">
    <path clip-path="url(#pe090736152)" d="M 787.786157 464.608905 
Q 855.583107 391.928211 922.617433 320.065076 
" style="fill:none;stroke:#000000;stroke-linecap:round;"/>
    <path clip-path="url(#pe090736152)" d="M 918.42649 321.625843 
L 922.617433 320.065076 
L 921.351481 324.354291 
L 918.42649 321.625843 
z
" style="stroke:#000000;stroke-linecap:round;"/>
   </g>
   <g id="patch_33">
    <path clip-path="url(#pe090736152)" d="M 777.183444 463.991707 
Q 667.697767 315.209503 558.874744 167.327791 
" style="fill:none;stroke:#000000;stroke-linecap:round;"/>
    <path clip-path="url(#pe090736152)" d="M 559.634676 171.734888 
L 558.874744 167.327791 
L 562.856381 169.364104 
L 559.634676 171.734888 
z
" style="stroke:#000000;stroke-linecap:round;"/>
   </g>
   <g id="patch_34">
    <path clip-path="url(#pe090736152)" d="M 534.972985 286.662009 
Q 492.610952 375.045805 450.73215 462.421391 
" style="fill:none;stroke:#000000;stroke-linecap:round;"/>
    <path clip-path="url(#pe090736152)" d="M 454.264552 459.67874 
L 450.73215 462.421391 
L 450.657471 457.949879 
L 454.264552 459.67874 
z
" style="stroke:#000000;stroke-linecap:round;"/>
   </g>
   <g id="patch_35">
    <path clip-path="url(#pe090736152)" d="M 550.388389 285.684568 
Q 589.915631 346.842861 628.835995 407.062166 
" style="fill:none;stroke:#000000;stroke-linecap:round;"/>
    <path clip-path="url(#pe090736152)" d="M 628.344476 402.617123 
L 628.835995 407.062166 
L 624.985049 404.788355 
L 628.344476 402.617123 
z
" style="stroke:#000000;stroke-linecap:round;"/>
   </g>
   <g id="patch_36">
    <path clip-path="url(#pe090736152)" d="M 557.581621 271.330831 
Q 714.863349 260.615639 871.029629 249.97644 
" style="fill:none;stroke:#000000;stroke-linecap:round;"/>
    <path clip-path="url(#pe090736152)" d="M 866.90294 248.252945 
L 871.029629 249.97644 
L 867.17482 252.243694 
L 866.90294 248.252945 
z
" style="stroke:#000000;stroke-linecap:round;"/>
   </g>
   <g id="patch_37">
    <path clip-path="url(#pe090736152)" d="M 527.218182 266.300896 
Q 452.781239 235.150743 379.375662 204.432193 
" style="fill:none;stroke:#000000;stroke-linecap:round;"/>
    <path clip-path="url(#pe090736152)" d="M 382.293518 207.821311 
L 379.375662 204.432193 
L 383.83767 204.131379 
L 382.293518 207.821311 
z
" style="stroke:#000000;stroke-linecap:round;"/>
   </g>
   <g id="patch_38">
    <path clip-path="url(#pe090736152)" d="M 531.605128 284.485189 
Q 510.334589 309.673116 489.785398 334.006843 
" style="fill:none;stroke:#000000;stroke-linecap:round;"/>
    <path clip-path="url(#pe090736152)" d="M 493.894211 332.241155 
L 489.785398 334.006843 
L 490.838135 329.66038 
L 493.894211 332.241155 
z
" style="stroke:#000000;stroke-linecap:round;"/>
   </g>
   <g id="patch_39">
    <path clip-path="url(#pe090736152)" d="M 528.159956 280.392147 
Q 460.50351 319.989056 393.811986 359.02123 
" style="fill:none;stroke:#000000;stroke-linecap:round;"/>
    <path clip-path="url(#pe090736152)" d="M 398.274425 358.72688 
L 393.811986 359.02123 
L 396.253969 355.274669 
L 398.274425 358.72688 
z
" style="stroke:#000000;stroke-linecap:round;"/>
   </g>
   <g id="patch_40">
    <path clip-path="url(#pe090736152)" d="M 667.64142 480.523324 
Q 602.910757 483.440362 539.296995 486.307068 
" style="fill:none;stroke:#000000;stroke-linecap:round;"/>
    <path clip-path="url(#pe090736152)" d="M 543.382976 488.124966 
L 539.296995 486.307068 
L 543.202902 484.129022 
L 543.382976 488.124966 
z
" style="stroke:#000000;stroke-linecap:round;"/>
   </g>
   <g id="patch_41">
    <path clip-path="url(#pe090736152)" d="M 683.035314 482.258901 
Q 812.620995 518.048551 941.12899 553.540561 
" style="fill:none;stroke:#000000;stroke-linecap:round;"/>
    <path clip-path="url(#pe090736152)" d="M 937.805776 550.547862 
L 941.12899 553.540561 
L 936.740902 554.403513 
L 937.805776 550.547862 
z
" style="stroke:#000000;stroke-linecap:round;"/>
   </g>
   <g id="patch_42">
    <path clip-path="url(#pe090736152)" d="M 670.034622 474.518456 
Q 617.242051 419.655939 565.224705 365.599042 
" style="fill:none;stroke:#000000;stroke-linecap:round;"/>
    <path clip-path="url(#pe090736152)" d="M 566.557097 369.868086 
L 565.224705 365.599042 
L 569.439375 367.094555 
L 566.557097 369.868086 
z
" style="stroke:#000000;stroke-linecap:round;"/>
   </g>
   <g id="patch_43">
    <path clip-path="url(#pe090736152)" d="M 956.533128 447.372895 
Q 875.845649 327.63206 795.782947 208.818399 
" style="fill:none;stroke:#000000;stroke-linecap:round;"/>
    <path clip-path="url(#pe090736152)" d="M 796.359639 213.253196 
L 795.782947 208.818399 
L 799.6768 211.017924 
L 796.359639 213.253196 
z
" style="stroke:#000000;stroke-linecap:round;"/>
   </g>
   <g id="patch_44">
    <path clip-path="url(#pe090736152)" d="M 955.535307 448.25198 
Q 948.480768 442.175166 942.273318 436.828037 
" style="fill:none;stroke:#000000;stroke-linecap:round;"/>
    <path clip-path="url(#pe090736152)" d="M 943.998651 440.953959 
L 942.273318 436.828037 
L 946.609255 437.923324 
L 943.998651 440.953959 
z
" style="stroke:#000000;stroke-linecap:round;"/>
   </g>
   <g id="patch_45">
    <path clip-path="url(#pe090736152)" d="M 626.523925 287.610383 
Q 706.208011 246.562373 784.898186 206.02636 
" style="fill:none;stroke:#000000;stroke-linecap:round;"/>
    <path clip-path="url(#pe090736152)" d="M 780.426374 206.080176 
L 784.898186 206.02636 
L 782.258152 209.636099 
L 780.426374 206.080176 
z
" style="stroke:#000000;stroke-linecap:round;"/>
   </g>
   <g id="patch_46">
    <path clip-path="url(#pe090736152)" d="M 626.743381 294.987244 
Q 778.733154 362.160834 929.700314 428.882469 
" style="fill:none;stroke:#000000;stroke-linecap:round;"/>
    <path clip-path="url(#pe090736152)" d="M 926.850185 425.4362 
L 929.700314 428.882469 
L 925.233222 429.09481 
L 926.850185 425.4362 
z
" style="stroke:#000000;stroke-linecap:round;"/>
   </g>
   <g id="patch_47">
    <path clip-path="url(#pe090736152)" d="M 537.969222 485.022822 
Q 738.061877 431.976738 937.073831 379.217156 
" style="fill:none;stroke:#000000;stroke-linecap:round;"/>
    <path clip-path="url(#pe090736152)" d="M 932.694883 378.308959 
L 937.073831 379.217156 
L 933.719905 382.175396 
L 932.694883 378.308959 
z
" style="stroke:#000000;stroke-linecap:round;"/>
   </g>
   <g id="patch_48">
    <path clip-path="url(#pe090736152)" d="M 537.355318 489.766284 
Q 671.717397 566.165269 805.107571 642.011624 
" style="fill:none;stroke:#000000;stroke-linecap:round;"/>
    <path clip-path="url(#pe090736152)" d="M 802.618953 638.295876 
L 805.107571 642.011624 
L 800.641802 641.77307 
L 802.618953 638.295876 
z
" style="stroke:#000000;stroke-linecap:round;"/>
   </g>
   <g id="patch_49">
    <path clip-path="url(#pe090736152)" d="M 948.368459 549.02874 
Q 946.429134 466.358157 944.516029 384.805299 
" style="fill:none;stroke:#000000;stroke-linecap:round;"/>
    <path clip-path="url(#pe090736152)" d="M 942.610387 388.851103 
L 944.516029 384.805299 
L 946.609287 388.757295 
L 942.610387 388.851103 
z
" style="stroke:#000000;stroke-linecap:round;"/>
   </g>
   <g id="patch_50">
    <path clip-path="url(#pe090736152)" d="M 943.047898 559.187632 
Q 880.017602 600.697094 817.921044 641.59163 
" style="fill:none;stroke:#000000;stroke-linecap:round;"/>
    <path clip-path="url(#pe090736152)" d="M 822.361698 641.061926 
L 817.921044 641.59163 
L 820.161673 637.721284 
L 822.361698 641.061926 
z
" style="stroke:#000000;stroke-linecap:round;"/>
   </g>
   <g id="patch_51">
    <path clip-path="url(#pe090736152)" d="M 567.077125 359.02213 
Q 752.512103 368.001736 936.830356 376.927265 
" style="fill:none;stroke:#000000;stroke-linecap:round;"/>
    <path clip-path="url(#pe090736152)" d="M 932.931773 374.736135 
L 936.830356 376.927265 
L 932.738301 378.731453 
L 932.931773 374.736135 
z
" style="stroke:#000000;stroke-linecap:round;"/>
   </g>
   <g id="patch_52">
    <path clip-path="url(#pe090736152)" d="M 564.176177 365.049018 
Q 685.793426 502.988552 806.671282 640.089458 
" style="fill:none;stroke:#000000;stroke-linecap:round;"/>
    <path clip-path="url(#pe090736152)" d="M 805.52613 635.766424 
L 806.671282 640.089458 
L 802.525763 638.41176 
L 805.52613 635.766424 
z
" style="stroke:#000000;stroke-linecap:round;"/>
   </g>
   <g id="PathCollection_1">
    <path clip-path="url(#pe090736152)" d="M 525.298785 569.244371 
C 527.030211 569.244371 528.690956 568.556468 529.915259 567.332165 
C 531.139563 566.107861 531.827466 564.447117 531.827466 562.71569 
C 531.827466 560.984264 531.139563 559.323519 529.915259 558.099216 
C 528.690956 556.874912 527.030211 556.187009 525.298785 556.187009 
C 523.567358 556.187009 521.906614 556.874912 520.68231 558.099216 
C 519.458007 559.323519 518.770104 560.984264 518.770104 562.71569 
C 518.770104 564.447117 519.458007 566.107861 520.68231 567.332165 
C 521.906614 568.556468 523.567358 569.244371 525.298785 569.244371 
z
" style="fill:#5f7fe8;stroke:#5f7fe8;"/>
    <path clip-path="url(#pe090736152)" d="M 631.297558 573.679588 
C 633.016831 573.679588 634.665918 572.996513 635.881628 571.780804 
C 637.097337 570.565094 637.780411 568.916007 637.780411 567.196734 
C 637.780411 565.477462 637.097337 563.828374 635.881628 562.612665 
C 634.665918 561.396956 633.016831 560.713881 631.297558 560.713881 
C 629.578286 560.713881 627.929198 561.396956 626.713489 562.612665 
C 625.497779 563.828374 624.814705 565.477462 624.814705 567.196734 
C 624.814705 568.916007 625.497779 570.565094 626.713489 571.780804 
C 627.929198 572.996513 629.578286 573.679588 631.297558 573.679588 
z
" style="fill:#dddcdc;stroke:#dddcdc;"/>
    <path clip-path="url(#pe090736152)" d="M 634.056789 423.635486 
C 636.309816 423.635486 638.470868 422.740349 640.063999 421.147219 
C 641.65713 419.554088 642.552267 417.393036 642.552267 415.140008 
C 642.552267 412.886981 641.65713 410.725929 640.063999 409.132798 
C 638.470868 407.539668 636.309816 406.644531 634.056789 406.644531 
C 631.803762 406.644531 629.64271 407.539668 628.049579 409.132798 
C 626.456448 410.725929 625.561311 412.886981 625.561311 415.140008 
C 625.561311 417.393036 626.456448 419.554088 628.049579 421.147219 
C 629.64271 422.740349 631.803762 423.635486 634.056789 423.635486 
z
" style="fill:#dddcdc;stroke:#dddcdc;"/>
    <path clip-path="url(#pe090736152)" d="M 228.227623 544.088516 
C 230.232204 544.088516 232.154952 543.292088 233.572405 541.874635 
C 234.989857 540.457182 235.786286 538.534434 235.786286 536.529853 
C 235.786286 534.525272 234.989857 532.602523 233.572405 531.185071 
C 232.154952 529.767618 230.232204 528.971189 228.227623 528.971189 
C 226.223042 528.971189 224.300293 529.767618 222.88284 531.185071 
C 221.465388 532.602523 220.668959 534.525272 220.668959 536.529853 
C 220.668959 538.534434 221.465388 540.457182 222.88284 541.874635 
C 224.300293 543.292088 226.223042 544.088516 228.227623 544.088516 
z
" style="fill:#dddcdc;stroke:#dddcdc;"/>
    <path clip-path="url(#pe090736152)" d="M 372.447341 207.923061 
C 374.142045 207.923061 375.767566 207.249748 376.965903 206.051412 
C 378.164239 204.853075 378.837552 203.227554 378.837552 201.53285 
C 378.837552 199.838146 378.164239 198.212624 376.965903 197.014288 
C 375.767566 195.815951 374.142045 195.142638 372.447341 195.142638 
C 370.752637 195.142638 369.127115 195.815951 367.928779 197.014288 
C 366.730442 198.212624 366.057129 199.838146 366.057129 201.53285 
C 366.057129 203.227554 366.730442 204.853075 367.928779 206.051412 
C 369.127115 207.249748 370.752637 207.923061 372.447341 207.923061 
z
" style="fill:#cedaeb;stroke:#cedaeb;"/>
    <path clip-path="url(#pe090736152)" d="M 445.481867 484.405733 
C 448.407109 484.405733 451.212934 483.243522 453.281393 481.175064 
C 455.349851 479.106606 456.512062 476.30078 456.512062 473.375538 
C 456.512062 470.450297 455.349851 467.644471 453.281393 465.576013 
C 451.212934 463.507555 448.407109 462.345344 445.481867 462.345344 
C 442.556625 462.345344 439.7508 463.507555 437.682342 465.576013 
C 435.613883 467.644471 434.451673 470.450297 434.451673 473.375538 
C 434.451673 476.30078 435.613883 479.106606 437.682342 481.175064 
C 439.7508 483.243522 442.556625 484.405733 445.481867 484.405733 
z
" style="fill:#dddcdc;stroke:#dddcdc;"/>
    <path clip-path="url(#pe090736152)" d="M 384.421874 675.781051 
C 386.116578 675.781051 387.7421 675.107738 388.940436 673.909402 
C 390.138773 672.711065 390.812086 671.085544 390.812086 669.39084 
C 390.812086 667.696136 390.138773 666.070614 388.940436 664.872278 
C 387.7421 663.673941 386.116578 663.000628 384.421874 663.000628 
C 382.72717 663.000628 381.101649 663.673941 379.903312 664.872278 
C 378.704976 666.070614 378.031663 667.696136 378.031663 669.39084 
C 378.031663 671.085544 378.704976 672.711065 379.903312 673.909402 
C 381.101649 675.107738 382.72717 675.781051 384.421874 675.781051 
z
" style="fill:#3b4cc0;stroke:#3b4cc0;"/>
    <path clip-path="url(#pe090736152)" d="M 927.628503 320.920467 
C 929.280037 320.920467 930.864152 320.264306 932.031963 319.096494 
C 933.199774 317.928683 933.855936 316.344569 933.855936 314.693034 
C 933.855936 313.0415 933.199774 311.457386 932.031963 310.289575 
C 930.864152 309.121763 929.280037 308.465602 927.628503 308.465602 
C 925.976968 308.465602 924.392854 309.121763 923.225043 310.289575 
C 922.057232 311.457386 921.40107 313.0415 921.40107 314.693034 
C 921.40107 316.344569 922.057232 317.928683 923.225043 319.096494 
C 924.392854 320.264306 925.976968 320.920467 927.628503 320.920467 
z
" style="fill:#d8dce2;stroke:#d8dce2;"/>
    <path clip-path="url(#pe090736152)" d="M 298.91909 407.590408 
C 301.834758 407.590408 304.6314 406.432001 306.693089 404.370312 
C 308.754778 402.308623 309.913185 399.511981 309.913185 396.596313 
C 309.913185 393.680644 308.754778 390.884002 306.693089 388.822313 
C 304.6314 386.760624 301.834758 385.602217 298.91909 385.602217 
C 296.003421 385.602217 293.206779 386.760624 291.14509 388.822313 
C 289.083401 390.884002 287.924994 393.680644 287.924994 396.596313 
C 287.924994 399.511981 289.083401 402.308623 291.14509 404.370312 
C 293.206779 406.432001 296.003421 407.590408 298.91909 407.590408 
z
" style="fill:#92b4fe;stroke:#92b4fe;"/>
    <path clip-path="url(#pe090736152)" d="M 554.520635 167.638342 
C 556.17217 167.638342 557.756284 166.98218 558.924095 165.814369 
C 560.091906 164.646558 560.748068 163.062444 560.748068 161.410909 
C 560.748068 159.759375 560.091906 158.17526 558.924095 157.007449 
C 557.756284 155.839638 556.17217 155.183476 554.520635 155.183476 
C 552.869101 155.183476 551.284987 155.839638 550.117175 157.007449 
C 548.949364 158.17526 548.293203 159.759375 548.293203 161.410909 
C 548.293203 163.062444 548.949364 164.646558 550.117175 165.814369 
C 551.284987 166.98218 552.869101 167.638342 554.520635 167.638342 
z
" style="fill:#dddcdc;stroke:#dddcdc;"/>
    <path clip-path="url(#pe090736152)" d="M 611.606247 505.463335 
C 613.620105 505.463335 615.551752 504.66322 616.975764 503.239208 
C 618.399777 501.815195 619.199891 499.883549 619.199891 497.869691 
C 619.199891 495.855833 618.399777 493.924186 616.975764 492.500174 
C 615.551752 491.076161 613.620105 490.276047 611.606247 490.276047 
C 609.592389 490.276047 607.660743 491.076161 606.23673 492.500174 
C 604.812718 493.924186 604.012603 495.855833 604.012603 497.869691 
C 604.012603 499.883549 604.812718 501.815195 606.23673 503.239208 
C 607.660743 504.66322 609.592389 505.463335 611.606247 505.463335 
z
" style="fill:none;"/>
    <path clip-path="url(#pe090736152)" d="M 458.392056 197.510842 
C 460.09362 197.510842 461.725721 196.834804 462.928909 195.631616 
C 464.132097 194.428429 464.808135 192.796327 464.808135 191.094763 
C 464.808135 189.393199 464.132097 187.761097 462.928909 186.557909 
C 461.725721 185.354722 460.09362 184.678683 458.392056 184.678683 
C 456.690491 184.678683 455.05839 185.354722 453.855202 186.557909 
C 452.652015 187.761097 451.975976 189.393199 451.975976 191.094763 
C 451.975976 192.796327 452.652015 194.428429 453.855202 195.631616 
C 455.05839 196.834804 456.690491 197.510842 458.392056 197.510842 
z
" style="fill:#dddcdc;stroke:#dddcdc;"/>
    <path clip-path="url(#pe090736152)" d="M 878.516169 255.856614 
C 880.210873 255.856614 881.836395 255.183301 883.034731 253.984964 
C 884.233068 252.786627 884.906381 251.161106 884.906381 249.466402 
C 884.906381 247.771698 884.233068 246.146177 883.034731 244.94784 
C 881.836395 243.749503 880.210873 243.07619 878.516169 243.07619 
C 876.821465 243.07619 875.195944 243.749503 873.997607 244.94784 
C 872.799271 246.146177 872.125958 247.771698 872.125958 249.466402 
C 872.125958 251.161106 872.799271 252.786627 873.997607 253.984964 
C 875.195944 255.183301 876.821465 255.856614 878.516169 255.856614 
z
" style="fill:#cad8ef;stroke:#cad8ef;"/>
    <path clip-path="url(#pe090736152)" d="M 221.787083 348.939651 
C 223.483161 348.939651 225.110001 348.265792 226.309309 347.066483 
C 227.508618 345.867175 228.182477 344.240335 228.182477 342.544257 
C 228.182477 340.848179 227.508618 339.221339 226.309309 338.022031 
C 225.110001 336.822723 223.483161 336.148864 221.787083 336.148864 
C 220.091005 336.148864 218.464165 336.822723 217.264857 338.022031 
C 216.065549 339.221339 215.39169 340.848179 215.39169 342.544257 
C 215.39169 344.240335 216.065549 345.867175 217.264857 347.066483 
C 218.464165 348.265792 220.091005 348.939651 221.787083 348.939651 
z
" style="fill:#d5dbe5;stroke:#d5dbe5;"/>
    <path clip-path="url(#pe090736152)" d="M 285.160302 624.472334 
C 286.848118 624.472334 288.467033 623.801757 289.660499 622.608291 
C 290.853965 621.414825 291.524541 619.795911 291.524541 618.108095 
C 291.524541 616.420279 290.853965 614.801365 289.660499 613.607899 
C 288.467033 612.414433 286.848118 611.743856 285.160302 611.743856 
C 283.472487 611.743856 281.853572 612.414433 280.660106 613.607899 
C 279.46664 614.801365 278.796064 616.420279 278.796064 618.108095 
C 278.796064 619.795911 279.46664 621.414825 280.660106 622.608291 
C 281.853572 623.801757 283.472487 624.472334 285.160302 624.472334 
z
" style="fill:#a3c2fe;stroke:#a3c2fe;"/>
    <path clip-path="url(#pe090736152)" d="M 715.933564 717.59333 
C 717.62138 717.59333 719.240295 716.922753 720.433761 715.729287 
C 721.627227 714.535821 722.297803 712.916907 722.297803 711.229091 
C 722.297803 709.541275 721.627227 707.922361 720.433761 706.728895 
C 719.240295 705.535429 717.62138 704.864852 715.933564 704.864852 
C 714.245748 704.864852 712.626834 705.535429 711.433368 706.728895 
C 710.239902 707.922361 709.569326 709.541275 709.569326 711.229091 
C 709.569326 712.916907 710.239902 714.535821 711.433368 715.729287 
C 712.626834 716.922753 714.245748 717.59333 715.933564 717.59333 
z
" style="fill:#5977e3;stroke:#5977e3;"/>
    <path clip-path="url(#pe090736152)" d="M 221.47438 496.229138 
C 223.169084 496.229138 224.794606 495.555824 225.992942 494.357488 
C 227.191279 493.159151 227.864592 491.53363 227.864592 489.838926 
C 227.864592 488.144222 227.191279 486.5187 225.992942 485.320364 
C 224.794606 484.122027 223.169084 483.448714 221.47438 483.448714 
C 219.779676 483.448714 218.154155 484.122027 216.955818 485.320364 
C 215.757481 486.5187 215.084168 488.144222 215.084168 489.838926 
C 215.084168 491.53363 215.757481 493.159151 216.955818 494.357488 
C 218.154155 495.555824 219.779676 496.229138 221.47438 496.229138 
z
" style="fill:#dddcdc;stroke:#dddcdc;"/>
    <path clip-path="url(#pe090736152)" d="M 479.547989 360.883242 
C 483.460682 360.883242 487.213647 359.328713 489.980339 356.562022 
C 492.74703 353.79533 494.30156 350.042364 494.30156 346.129672 
C 494.30156 342.216979 492.74703 338.464013 489.980339 335.697322 
C 487.213647 332.93063 483.460682 331.376101 479.547989 331.376101 
C 475.635296 331.376101 471.882331 332.93063 469.115639 335.697322 
C 466.348948 338.464013 464.794418 342.216979 464.794418 346.129672 
C 464.794418 350.042364 466.348948 353.79533 469.115639 356.562022 
C 471.882331 359.328713 475.635296 360.883242 479.547989 360.883242 
z
" style="fill:#dddcdc;stroke:#dddcdc;"/>
    <path clip-path="url(#pe090736152)" d="M 382.136381 378.264113 
C 385.427437 378.264113 388.584142 376.956563 390.91127 374.629435 
C 393.238398 372.302308 394.545948 369.145602 394.545948 365.854547 
C 394.545948 362.563491 393.238398 359.406785 390.91127 357.079658 
C 388.584142 354.75253 385.427437 353.44498 382.136381 353.44498 
C 378.845326 353.44498 375.68862 354.75253 373.361492 357.079658 
C 371.034365 359.406785 369.726814 362.563491 369.726814 365.854547 
C 369.726814 369.145602 371.034365 372.302308 373.361492 374.629435 
C 375.68862 376.956563 378.845326 378.264113 382.136381 378.264113 
z
" style="fill:#dddcdc;stroke:#dddcdc;"/>
    <path clip-path="url(#pe090736152)" d="M 791.581568 208.984091 
C 793.27902 208.984091 794.907176 208.309687 796.107456 207.109407 
C 797.307735 205.909128 797.98214 204.280971 797.98214 202.58352 
C 797.98214 200.886069 797.307735 199.257912 796.107456 198.057632 
C 794.907176 196.857353 793.27902 196.182948 791.581568 196.182948 
C 789.884117 196.182948 788.25596 196.857353 787.055681 198.057632 
C 785.855401 199.257912 785.180997 200.886069 785.180997 202.58352 
C 785.180997 204.280971 785.855401 205.909128 787.055681 207.109407 
C 788.25596 208.309687 789.884117 208.984091 791.581568 208.984091 
z
" style="fill:#b6cefa;stroke:#b6cefa;"/>
    <path clip-path="url(#pe090736152)" d="M 936.578188 438.322795 
C 938.275639 438.322795 939.903796 437.64839 941.104075 436.448111 
C 942.304354 435.247831 942.978759 433.619675 942.978759 431.922223 
C 942.978759 430.224772 942.304354 428.596615 941.104075 427.396336 
C 939.903796 426.196056 938.275639 425.521652 936.578188 425.521652 
C 934.880736 425.521652 933.252579 426.196056 932.0523 427.396336 
C 930.852021 428.596615 930.177616 430.224772 930.177616 431.922223 
C 930.177616 433.619675 930.852021 435.247831 932.0523 436.448111 
C 933.252579 437.64839 934.880736 438.322795 936.578188 438.322795 
z
" style="fill:#8fb1fe;stroke:#8fb1fe;"/>
    <path clip-path="url(#pe090736152)" d="M 787.063447 283.668332 
C 789.25886 283.668332 791.36465 282.796085 792.917042 281.243693 
C 794.469433 279.691302 795.34168 277.585511 795.34168 275.390098 
C 795.34168 273.194685 794.469433 271.088895 792.917042 269.536503 
C 791.36465 267.984111 789.25886 267.111865 787.063447 267.111865 
C 784.868033 267.111865 782.762243 267.984111 781.209852 269.536503 
C 779.65746 271.088895 778.785213 273.194685 778.785213 275.390098 
C 778.785213 277.585511 779.65746 279.691302 781.209852 281.243693 
C 782.762243 282.796085 784.868033 283.668332 787.063447 283.668332 
z
" style="fill:#d7dce3;stroke:#d7dce3;"/>
    <path clip-path="url(#pe090736152)" d="M 806.68795 435.833417 
C 808.875922 435.833417 810.974575 434.964127 812.521704 433.416997 
C 814.068834 431.869867 814.938124 429.771215 814.938124 427.583243 
C 814.938124 425.395271 814.068834 423.296619 812.521704 421.749489 
C 810.974575 420.202359 808.875922 419.333069 806.68795 419.333069 
C 804.499979 419.333069 802.401326 420.202359 800.854196 421.749489 
C 799.307067 423.296619 798.437776 425.395271 798.437776 427.583243 
C 798.437776 429.771215 799.307067 431.869867 800.854196 433.416997 
C 802.401326 434.964127 804.499979 435.833417 806.68795 435.833417 
z
" style="fill:#97b8ff;stroke:#97b8ff;"/>
    <path clip-path="url(#pe090736152)" d="M 782.113062 479.008815 
C 784.319062 479.008815 786.435008 478.132362 787.994886 476.572484 
C 789.554763 475.012607 790.431217 472.896661 790.431217 470.690661 
C 790.431217 468.48466 789.554763 466.368715 787.994886 464.808837 
C 786.435008 463.248959 784.319062 462.372506 782.113062 462.372506 
C 779.907062 462.372506 777.791116 463.248959 776.231239 464.808837 
C 774.671361 466.368715 773.794907 468.48466 773.794907 470.690661 
C 773.794907 472.896661 774.671361 475.012607 776.231239 476.572484 
C 777.791116 478.132362 779.907062 479.008815 782.113062 479.008815 
z
" style="fill:#dddcdc;stroke:#dddcdc;"/>
    <path clip-path="url(#pe090736152)" d="M 586.648245 705.336959 
C 588.342949 705.336959 589.96847 704.663646 591.166807 703.465309 
C 592.365143 702.266973 593.038457 700.641451 593.038457 698.946747 
C 593.038457 697.252043 592.365143 695.626522 591.166807 694.428185 
C 589.96847 693.229849 588.342949 692.556536 586.648245 692.556536 
C 584.953541 692.556536 583.328019 693.229849 582.129683 694.428185 
C 580.931346 695.626522 580.258033 697.252043 580.258033 698.946747 
C 580.258033 700.641451 580.931346 702.266973 582.129683 703.465309 
C 583.328019 704.663646 584.953541 705.336959 586.648245 705.336959 
z
" style="fill:#dddcdc;stroke:#dddcdc;"/>
    <path clip-path="url(#pe090736152)" d="M 670.999093 193.68493 
C 672.693797 193.68493 674.319319 193.011617 675.517655 191.813281 
C 676.715992 190.614944 677.389305 188.989423 677.389305 187.294719 
C 677.389305 185.600015 676.715992 183.974493 675.517655 182.776157 
C 674.319319 181.57782 672.693797 180.904507 670.999093 180.904507 
C 669.304389 180.904507 667.678868 181.57782 666.480531 182.776157 
C 665.282195 183.974493 664.608882 185.600015 664.608882 187.294719 
C 664.608882 188.989423 665.282195 190.614944 666.480531 191.813281 
C 667.678868 193.011617 669.304389 193.68493 670.999093 193.68493 
z
" style="fill:#688aef;stroke:#688aef;"/>
    <path clip-path="url(#pe090736152)" d="M 461.724991 715.023286 
C 463.419694 715.023286 465.045216 714.349973 466.243553 713.151636 
C 467.441889 711.9533 468.115202 710.327778 468.115202 708.633074 
C 468.115202 706.938371 467.441889 705.312849 466.243553 704.114512 
C 465.045216 702.916176 463.419694 702.242863 461.724991 702.242863 
C 460.030287 702.242863 458.404765 702.916176 457.206429 704.114512 
C 456.008092 705.312849 455.334779 706.938371 455.334779 708.633074 
C 455.334779 710.327778 456.008092 711.9533 457.206429 713.151636 
C 458.404765 714.349973 460.030287 715.023286 461.724991 715.023286 
z
" style="fill:#dddcdc;stroke:#dddcdc;"/>
    <path clip-path="url(#pe090736152)" d="M 541.80604 288.216968 
C 545.999269 288.216968 550.021319 286.55098 552.98638 283.585919 
C 555.951441 280.620859 557.617428 276.598809 557.617428 272.40558 
C 557.617428 268.21235 555.951441 264.190301 552.98638 261.22524 
C 550.021319 258.260179 545.999269 256.594191 541.80604 256.594191 
C 537.612811 256.594191 533.590761 258.260179 530.6257 261.22524 
C 527.660639 264.190301 525.994652 268.21235 525.994652 272.40558 
C 525.994652 276.598809 527.660639 280.620859 530.6257 283.585919 
C 533.590761 286.55098 537.612811 288.216968 541.80604 288.216968 
z
" style="fill:#b5cdfa;stroke:#b5cdfa;"/>
    <path clip-path="url(#pe090736152)" d="M 675.473306 488.012973 
C 677.553185 488.012973 679.548157 487.186629 681.018853 485.715933 
C 682.48955 484.245236 683.315894 482.250264 683.315894 480.170386 
C 683.315894 478.090507 682.48955 476.095535 681.018853 474.624839 
C 679.548157 473.154142 677.553185 472.327798 675.473306 472.327798 
C 673.393428 472.327798 671.398456 473.154142 669.927759 474.624839 
C 668.457063 476.095535 667.630718 478.090507 667.630718 480.170386 
C 667.630718 482.250264 668.457063 484.245236 669.927759 485.715933 
C 671.398456 487.186629 673.393428 488.012973 675.473306 488.012973 
z
" style="fill:#b40426;stroke:#b40426;"/>
    <path clip-path="url(#pe090736152)" d="M 959.32562 456.516975 
C 960.651635 456.516975 961.923519 455.990143 962.861154 455.052509 
C 963.798788 454.114874 964.32562 452.84299 964.32562 451.516975 
C 964.32562 450.190959 963.798788 448.919076 962.861154 447.981441 
C 961.923519 447.043807 960.651635 446.516975 959.32562 446.516975 
C 957.999604 446.516975 956.72772 447.043807 955.790086 447.981441 
C 954.852451 448.919076 954.32562 450.190959 954.32562 451.516975 
C 954.32562 452.84299 954.852451 454.114874 955.790086 455.052509 
C 956.72772 455.990143 957.999604 456.516975 959.32562 456.516975 
z
" style="fill:#dddcdc;stroke:#dddcdc;"/>
    <path clip-path="url(#pe090736152)" d="M 618.917715 300.086243 
C 621.187228 300.086243 623.364093 299.184556 624.968881 297.579768 
C 626.573669 295.974981 627.475356 293.798116 627.475356 291.528603 
C 627.475356 289.25909 626.573669 287.082225 624.968881 285.477437 
C 623.364093 283.872649 621.187228 282.970962 618.917715 282.970962 
C 616.648202 282.970962 614.471337 283.872649 612.866549 285.477437 
C 611.261761 287.082225 610.360074 289.25909 610.360074 291.528603 
C 610.360074 293.798116 611.261761 295.974981 612.866549 297.579768 
C 614.471337 299.184556 616.648202 300.086243 618.917715 300.086243 
z
" style="fill:#5b7ae5;stroke:#5b7ae5;"/>
    <path clip-path="url(#pe090736152)" d="M 944.339753 383.691476 
C 946.037204 383.691476 947.665361 383.017071 948.86564 381.816792 
C 950.06592 380.616513 950.740324 378.988356 950.740324 377.290905 
C 950.740324 375.593453 950.06592 373.965297 948.86564 372.765017 
C 947.665361 371.564738 946.037204 370.890333 944.339753 370.890333 
C 942.642302 370.890333 941.014145 371.564738 939.813865 372.765017 
C 938.613586 373.965297 937.939182 375.593453 937.939182 377.290905 
C 937.939182 378.988356 938.613586 380.616513 939.813865 381.816792 
C 941.014145 383.017071 942.642302 383.691476 944.339753 383.691476 
z
" style="fill:#85a8fc;stroke:#85a8fc;"/>
    <path clip-path="url(#pe090736152)" d="M 811.641711 652.127542 
C 813.339163 652.127542 814.967319 651.453137 816.167599 650.252858 
C 817.367878 649.052578 818.042283 647.424422 818.042283 645.72697 
C 818.042283 644.029519 817.367878 642.401362 816.167599 641.201083 
C 814.967319 640.000803 813.339163 639.326399 811.641711 639.326399 
C 809.94426 639.326399 808.316103 640.000803 807.115824 641.201083 
C 805.915544 642.401362 805.24114 644.029519 805.24114 645.72697 
C 805.24114 647.424422 805.915544 649.052578 807.115824 650.252858 
C 808.316103 651.453137 809.94426 652.127542 811.641711 652.127542 
z
" style="fill:#dddcdc;stroke:#dddcdc;"/>
    <path clip-path="url(#pe090736152)" d="M 531.860966 492.964627 
C 533.537702 492.964627 535.145989 492.298453 536.33162 491.112821 
C 537.517252 489.92719 538.183426 488.318903 538.183426 486.642167 
C 538.183426 484.965431 537.517252 483.357144 536.33162 482.171513 
C 535.145989 480.985882 533.537702 480.319707 531.860966 480.319707 
C 530.18423 480.319707 528.575943 480.985882 527.390312 482.171513 
C 526.204681 483.357144 525.538506 484.965431 525.538506 486.642167 
C 525.538506 488.318903 526.204681 489.92719 527.390312 491.112821 
C 528.575943 492.298453 530.18423 492.964627 531.860966 492.964627 
z
" style="fill:#9bbcff;stroke:#9bbcff;"/>
    <path clip-path="url(#pe090736152)" d="M 948.522199 562.136459 
C 950.260341 562.136459 951.927526 561.445888 953.156578 560.216836 
C 954.38563 558.987784 955.076201 557.320598 955.076201 555.582456 
C 955.076201 553.844315 954.38563 552.177129 953.156578 550.948077 
C 951.927526 549.719025 950.260341 549.028454 948.522199 549.028454 
C 946.784057 549.028454 945.116871 549.719025 943.887819 550.948077 
C 942.658767 552.177129 941.968196 553.844315 941.968196 555.582456 
C 941.968196 557.320598 942.658767 558.987784 943.887819 560.216836 
C 945.116871 561.445888 946.784057 562.136459 948.522199 562.136459 
z
" style="fill:#dddcdc;stroke:#dddcdc;"/>
    <path clip-path="url(#pe090736152)" d="M 558.496083 367.195151 
C 560.773794 367.195151 562.958522 366.290207 564.569107 364.679622 
C 566.179692 363.069037 567.084636 360.884308 567.084636 358.606597 
C 567.084636 356.328886 566.179692 354.144158 564.569107 352.533573 
C 562.958522 350.922988 560.773794 350.018044 558.496083 350.018044 
C 556.218372 350.018044 554.033643 350.922988 552.423058 352.533573 
C 550.812474 354.144158 549.907529 356.328886 549.907529 358.606597 
C 549.907529 360.884308 550.812474 363.069037 552.423058 364.679622 
C 554.033643 366.290207 556.218372 367.195151 558.496083 367.195151 
z
" style="fill:#dddcdc;stroke:#dddcdc;"/>
   </g>
   <g id="text_1">
    <g clip-path="url(#pe090736152)">
     <!-- KRAS -->
     <g transform="translate(512.151129 565.475065)scale(0.1 -0.1)">
      <defs>
       <path d="M 9.8125 72.90625 
L 19.671875 72.90625 
L 19.671875 42.09375 
L 52.390625 72.90625 
L 65.09375 72.90625 
L 28.90625 38.921875 
L 67.671875 0 
L 54.6875 0 
L 19.671875 35.109375 
L 19.671875 0 
L 9.8125 0 
z
" id="DejaVuSans-75"/>
       <path d="M 44.390625 34.1875 
Q 47.5625 33.109375 50.5625 29.59375 
Q 53.5625 26.078125 56.59375 19.921875 
L 66.609375 0 
L 56 0 
L 46.6875 18.703125 
Q 43.0625 26.03125 39.671875 28.421875 
Q 36.28125 30.8125 30.421875 30.8125 
L 19.671875 30.8125 
L 19.671875 0 
L 9.8125 0 
L 9.8125 72.90625 
L 32.078125 72.90625 
Q 44.578125 72.90625 50.734375 67.671875 
Q 56.890625 62.453125 56.890625 51.90625 
Q 56.890625 45.015625 53.6875 40.46875 
Q 50.484375 35.9375 44.390625 34.1875 
z
M 19.671875 64.796875 
L 19.671875 38.921875 
L 32.078125 38.921875 
Q 39.203125 38.921875 42.84375 42.21875 
Q 46.484375 45.515625 46.484375 51.90625 
Q 46.484375 58.296875 42.84375 61.546875 
Q 39.203125 64.796875 32.078125 64.796875 
z
" id="DejaVuSans-82"/>
       <path d="M 34.1875 63.1875 
L 20.796875 26.90625 
L 47.609375 26.90625 
z
M 28.609375 72.90625 
L 39.796875 72.90625 
L 67.578125 0 
L 57.328125 0 
L 50.6875 18.703125 
L 17.828125 18.703125 
L 11.1875 0 
L 0.78125 0 
z
" id="DejaVuSans-65"/>
       <path d="M 53.515625 70.515625 
L 53.515625 60.890625 
Q 47.90625 63.578125 42.921875 64.890625 
Q 37.9375 66.21875 33.296875 66.21875 
Q 25.25 66.21875 20.875 63.09375 
Q 16.5 59.96875 16.5 54.203125 
Q 16.5 49.359375 19.40625 46.890625 
Q 22.3125 44.4375 30.421875 42.921875 
L 36.375 41.703125 
Q 47.40625 39.59375 52.65625 34.296875 
Q 57.90625 29 57.90625 20.125 
Q 57.90625 9.515625 50.796875 4.046875 
Q 43.703125 -1.421875 29.984375 -1.421875 
Q 24.8125 -1.421875 18.96875 -0.25 
Q 13.140625 0.921875 6.890625 3.21875 
L 6.890625 13.375 
Q 12.890625 10.015625 18.65625 8.296875 
Q 24.421875 6.59375 29.984375 6.59375 
Q 38.421875 6.59375 43.015625 9.90625 
Q 47.609375 13.234375 47.609375 19.390625 
Q 47.609375 24.75 44.3125 27.78125 
Q 41.015625 30.8125 33.5 32.328125 
L 27.484375 33.5 
Q 16.453125 35.6875 11.515625 40.375 
Q 6.59375 45.0625 6.59375 53.421875 
Q 6.59375 63.09375 13.40625 68.65625 
Q 20.21875 74.21875 32.171875 74.21875 
Q 37.3125 74.21875 42.625 73.28125 
Q 47.953125 72.359375 53.515625 70.515625 
z
" id="DejaVuSans-83"/>
      </defs>
      <use xlink:href="#DejaVuSans-75"/>
      <use x="65.576172" xlink:href="#DejaVuSans-82"/>
      <use x="131.058594" xlink:href="#DejaVuSans-65"/>
      <use x="199.466797" xlink:href="#DejaVuSans-83"/>
     </g>
    </g>
   </g>
   <g id="text_2">
    <g clip-path="url(#pe090736152)">
     <!-- NRAS -->
     <g transform="translate(617.688183 569.956109)scale(0.1 -0.1)">
      <defs>
       <path d="M 9.8125 72.90625 
L 23.09375 72.90625 
L 55.421875 11.921875 
L 55.421875 72.90625 
L 64.984375 72.90625 
L 64.984375 0 
L 51.703125 0 
L 19.390625 60.984375 
L 19.390625 0 
L 9.8125 0 
z
" id="DejaVuSans-78"/>
      </defs>
      <use xlink:href="#DejaVuSans-78"/>
      <use x="74.804688" xlink:href="#DejaVuSans-82"/>
      <use x="140.287109" xlink:href="#DejaVuSans-65"/>
      <use x="208.695312" xlink:href="#DejaVuSans-83"/>
     </g>
    </g>
   </g>
   <g id="text_3">
    <g clip-path="url(#pe090736152)">
     <!-- SPI1 -->
     <g transform="translate(623.211476 417.899383)scale(0.1 -0.1)">
      <defs>
       <path d="M 19.671875 64.796875 
L 19.671875 37.40625 
L 32.078125 37.40625 
Q 38.96875 37.40625 42.71875 40.96875 
Q 46.484375 44.53125 46.484375 51.125 
Q 46.484375 57.671875 42.71875 61.234375 
Q 38.96875 64.796875 32.078125 64.796875 
z
M 9.8125 72.90625 
L 32.078125 72.90625 
Q 44.34375 72.90625 50.609375 67.359375 
Q 56.890625 61.8125 56.890625 51.125 
Q 56.890625 40.328125 50.609375 34.8125 
Q 44.34375 29.296875 32.078125 29.296875 
L 19.671875 29.296875 
L 19.671875 0 
L 9.8125 0 
z
" id="DejaVuSans-80"/>
       <path d="M 9.8125 72.90625 
L 19.671875 72.90625 
L 19.671875 0 
L 9.8125 0 
z
" id="DejaVuSans-73"/>
       <path d="M 12.40625 8.296875 
L 28.515625 8.296875 
L 28.515625 63.921875 
L 10.984375 60.40625 
L 10.984375 69.390625 
L 28.421875 72.90625 
L 38.28125 72.90625 
L 38.28125 8.296875 
L 54.390625 8.296875 
L 54.390625 0 
L 12.40625 0 
z
" id="DejaVuSans-49"/>
      </defs>
      <use xlink:href="#DejaVuSans-83"/>
      <use x="63.476562" xlink:href="#DejaVuSans-80"/>
      <use x="123.779297" xlink:href="#DejaVuSans-73"/>
      <use x="153.271484" xlink:href="#DejaVuSans-49"/>
     </g>
    </g>
   </g>
   <g id="text_4">
    <g clip-path="url(#pe090736152)">
     <!-- CEBPA -->
     <g transform="translate(212.029966 539.289228)scale(0.1 -0.1)">
      <defs>
       <path d="M 64.40625 67.28125 
L 64.40625 56.890625 
Q 59.421875 61.53125 53.78125 63.8125 
Q 48.140625 66.109375 41.796875 66.109375 
Q 29.296875 66.109375 22.65625 58.46875 
Q 16.015625 50.828125 16.015625 36.375 
Q 16.015625 21.96875 22.65625 14.328125 
Q 29.296875 6.6875 41.796875 6.6875 
Q 48.140625 6.6875 53.78125 8.984375 
Q 59.421875 11.28125 64.40625 15.921875 
L 64.40625 5.609375 
Q 59.234375 2.09375 53.4375 0.328125 
Q 47.65625 -1.421875 41.21875 -1.421875 
Q 24.65625 -1.421875 15.125 8.703125 
Q 5.609375 18.84375 5.609375 36.375 
Q 5.609375 53.953125 15.125 64.078125 
Q 24.65625 74.21875 41.21875 74.21875 
Q 47.75 74.21875 53.53125 72.484375 
Q 59.328125 70.75 64.40625 67.28125 
z
" id="DejaVuSans-67"/>
       <path d="M 9.8125 72.90625 
L 55.90625 72.90625 
L 55.90625 64.59375 
L 19.671875 64.59375 
L 19.671875 43.015625 
L 54.390625 43.015625 
L 54.390625 34.71875 
L 19.671875 34.71875 
L 19.671875 8.296875 
L 56.78125 8.296875 
L 56.78125 0 
L 9.8125 0 
z
" id="DejaVuSans-69"/>
       <path d="M 19.671875 34.8125 
L 19.671875 8.109375 
L 35.5 8.109375 
Q 43.453125 8.109375 47.28125 11.40625 
Q 51.125 14.703125 51.125 21.484375 
Q 51.125 28.328125 47.28125 31.5625 
Q 43.453125 34.8125 35.5 34.8125 
z
M 19.671875 64.796875 
L 19.671875 42.828125 
L 34.28125 42.828125 
Q 41.5 42.828125 45.03125 45.53125 
Q 48.578125 48.25 48.578125 53.8125 
Q 48.578125 59.328125 45.03125 62.0625 
Q 41.5 64.796875 34.28125 64.796875 
z
M 9.8125 72.90625 
L 35.015625 72.90625 
Q 46.296875 72.90625 52.390625 68.21875 
Q 58.5 63.53125 58.5 54.890625 
Q 58.5 48.1875 55.375 44.234375 
Q 52.25 40.28125 46.1875 39.3125 
Q 53.46875 37.75 57.5 32.78125 
Q 61.53125 27.828125 61.53125 20.40625 
Q 61.53125 10.640625 54.890625 5.3125 
Q 48.25 0 35.984375 0 
L 9.8125 0 
z
" id="DejaVuSans-66"/>
      </defs>
      <use xlink:href="#DejaVuSans-67"/>
      <use x="69.824219" xlink:href="#DejaVuSans-69"/>
      <use x="133.007812" xlink:href="#DejaVuSans-66"/>
      <use x="201.611328" xlink:href="#DejaVuSans-80"/>
      <use x="255.539062" xlink:href="#DejaVuSans-65"/>
     </g>
    </g>
   </g>
   <g id="text_5">
    <g clip-path="url(#pe090736152)">
     <!-- MYC -->
     <g transform="translate(361.862966 204.292225)scale(0.1 -0.1)">
      <defs>
       <path d="M 9.8125 72.90625 
L 24.515625 72.90625 
L 43.109375 23.296875 
L 61.8125 72.90625 
L 76.515625 72.90625 
L 76.515625 0 
L 66.890625 0 
L 66.890625 64.015625 
L 48.09375 14.015625 
L 38.1875 14.015625 
L 19.390625 64.015625 
L 19.390625 0 
L 9.8125 0 
z
" id="DejaVuSans-77"/>
       <path d="M -0.203125 72.90625 
L 10.40625 72.90625 
L 30.609375 42.921875 
L 50.6875 72.90625 
L 61.28125 72.90625 
L 35.5 34.71875 
L 35.5 0 
L 25.59375 0 
L 25.59375 34.71875 
z
" id="DejaVuSans-89"/>
      </defs>
      <use xlink:href="#DejaVuSans-77"/>
      <use x="86.279297" xlink:href="#DejaVuSans-89"/>
      <use x="141.863281" xlink:href="#DejaVuSans-67"/>
     </g>
    </g>
   </g>
   <g id="text_6">
    <g clip-path="url(#pe090736152)">
     <!-- JUP -->
     <g transform="translate(437.332648 476.134913)scale(0.1 -0.1)">
      <defs>
       <path d="M 9.8125 72.90625 
L 19.671875 72.90625 
L 19.671875 5.078125 
Q 19.671875 -8.109375 14.671875 -14.0625 
Q 9.671875 -20.015625 -1.421875 -20.015625 
L -5.171875 -20.015625 
L -5.171875 -11.71875 
L -2.09375 -11.71875 
Q 4.4375 -11.71875 7.125 -8.046875 
Q 9.8125 -4.390625 9.8125 5.078125 
z
" id="DejaVuSans-74"/>
       <path d="M 8.6875 72.90625 
L 18.609375 72.90625 
L 18.609375 28.609375 
Q 18.609375 16.890625 22.84375 11.734375 
Q 27.09375 6.59375 36.625 6.59375 
Q 46.09375 6.59375 50.34375 11.734375 
Q 54.59375 16.890625 54.59375 28.609375 
L 54.59375 72.90625 
L 64.5 72.90625 
L 64.5 27.390625 
Q 64.5 13.140625 57.4375 5.859375 
Q 50.390625 -1.421875 36.625 -1.421875 
Q 22.796875 -1.421875 15.734375 5.859375 
Q 8.6875 13.140625 8.6875 27.390625 
z
" id="DejaVuSans-85"/>
      </defs>
      <use xlink:href="#DejaVuSans-74"/>
      <use x="29.492188" xlink:href="#DejaVuSans-85"/>
      <use x="102.685547" xlink:href="#DejaVuSans-80"/>
     </g>
    </g>
   </g>
   <g id="text_7">
    <g clip-path="url(#pe090736152)">
     <!-- CCND1 -->
     <g transform="translate(366.667187 672.150215)scale(0.1 -0.1)">
      <defs>
       <path d="M 19.671875 64.796875 
L 19.671875 8.109375 
L 31.59375 8.109375 
Q 46.6875 8.109375 53.6875 14.9375 
Q 60.6875 21.78125 60.6875 36.53125 
Q 60.6875 51.171875 53.6875 57.984375 
Q 46.6875 64.796875 31.59375 64.796875 
z
M 9.8125 72.90625 
L 30.078125 72.90625 
Q 51.265625 72.90625 61.171875 64.09375 
Q 71.09375 55.28125 71.09375 36.53125 
Q 71.09375 17.671875 61.125 8.828125 
Q 51.171875 0 30.078125 0 
L 9.8125 0 
z
" id="DejaVuSans-68"/>
      </defs>
      <use xlink:href="#DejaVuSans-67"/>
      <use x="69.824219" xlink:href="#DejaVuSans-67"/>
      <use x="139.648438" xlink:href="#DejaVuSans-78"/>
      <use x="214.453125" xlink:href="#DejaVuSans-68"/>
      <use x="291.455078" xlink:href="#DejaVuSans-49"/>
     </g>
    </g>
   </g>
   <g id="text_8">
    <g clip-path="url(#pe090736152)">
     <!-- PIM1 -->
     <g transform="translate(915.643347 317.452409)scale(0.1 -0.1)">
      <use xlink:href="#DejaVuSans-80"/>
      <use x="60.302734" xlink:href="#DejaVuSans-73"/>
      <use x="89.794922" xlink:href="#DejaVuSans-77"/>
      <use x="176.074219" xlink:href="#DejaVuSans-49"/>
     </g>
    </g>
   </g>
   <g id="text_9">
    <g clip-path="url(#pe090736152)">
     <!-- RUNX1 -->
     <g transform="translate(281.438621 399.355688)scale(0.1 -0.1)">
      <defs>
       <path d="M 6.296875 72.90625 
L 16.890625 72.90625 
L 35.015625 45.796875 
L 53.21875 72.90625 
L 63.8125 72.90625 
L 40.375 37.890625 
L 65.375 0 
L 54.78125 0 
L 34.28125 31 
L 13.625 0 
L 2.984375 0 
L 29 38.921875 
z
" id="DejaVuSans-88"/>
      </defs>
      <use xlink:href="#DejaVuSans-82"/>
      <use x="69.482422" xlink:href="#DejaVuSans-85"/>
      <use x="142.675781" xlink:href="#DejaVuSans-78"/>
      <use x="217.480469" xlink:href="#DejaVuSans-88"/>
      <use x="285.986328" xlink:href="#DejaVuSans-49"/>
     </g>
    </g>
   </g>
   <g id="text_10">
    <g clip-path="url(#pe090736152)">
     <!-- PIM2 -->
     <g transform="translate(542.535479 164.170284)scale(0.1 -0.1)">
      <defs>
       <path d="M 19.1875 8.296875 
L 53.609375 8.296875 
L 53.609375 0 
L 7.328125 0 
L 7.328125 8.296875 
Q 12.9375 14.109375 22.625 23.890625 
Q 32.328125 33.6875 34.8125 36.53125 
Q 39.546875 41.84375 41.421875 45.53125 
Q 43.3125 49.21875 43.3125 52.78125 
Q 43.3125 58.59375 39.234375 62.25 
Q 35.15625 65.921875 28.609375 65.921875 
Q 23.96875 65.921875 18.8125 64.3125 
Q 13.671875 62.703125 7.8125 59.421875 
L 7.8125 69.390625 
Q 13.765625 71.78125 18.9375 73 
Q 24.125 74.21875 28.421875 74.21875 
Q 39.75 74.21875 46.484375 68.546875 
Q 53.21875 62.890625 53.21875 53.421875 
Q 53.21875 48.921875 51.53125 44.890625 
Q 49.859375 40.875 45.40625 35.40625 
Q 44.1875 33.984375 37.640625 27.21875 
Q 31.109375 20.453125 19.1875 8.296875 
z
" id="DejaVuSans-50"/>
      </defs>
      <use xlink:href="#DejaVuSans-80"/>
      <use x="60.302734" xlink:href="#DejaVuSans-73"/>
      <use x="89.794922" xlink:href="#DejaVuSans-77"/>
      <use x="176.074219" xlink:href="#DejaVuSans-50"/>
     </g>
    </g>
   </g>
   <g id="text_11">
    <g clip-path="url(#pe090736152)">
     <!-- MTOR -->
     <g transform="translate(596.828122 500.629066)scale(0.1 -0.1)">
      <defs>
       <path d="M -0.296875 72.90625 
L 61.375 72.90625 
L 61.375 64.59375 
L 35.5 64.59375 
L 35.5 0 
L 25.59375 0 
L 25.59375 64.59375 
L -0.296875 64.59375 
z
" id="DejaVuSans-84"/>
       <path d="M 39.40625 66.21875 
Q 28.65625 66.21875 22.328125 58.203125 
Q 16.015625 50.203125 16.015625 36.375 
Q 16.015625 22.609375 22.328125 14.59375 
Q 28.65625 6.59375 39.40625 6.59375 
Q 50.140625 6.59375 56.421875 14.59375 
Q 62.703125 22.609375 62.703125 36.375 
Q 62.703125 50.203125 56.421875 58.203125 
Q 50.140625 66.21875 39.40625 66.21875 
z
M 39.40625 74.21875 
Q 54.734375 74.21875 63.90625 63.9375 
Q 73.09375 53.65625 73.09375 36.375 
Q 73.09375 19.140625 63.90625 8.859375 
Q 54.734375 -1.421875 39.40625 -1.421875 
Q 24.03125 -1.421875 14.8125 8.828125 
Q 5.609375 19.09375 5.609375 36.375 
Q 5.609375 53.65625 14.8125 63.9375 
Q 24.03125 74.21875 39.40625 74.21875 
z
" id="DejaVuSans-79"/>
      </defs>
      <use xlink:href="#DejaVuSans-77"/>
      <use x="86.279297" xlink:href="#DejaVuSans-84"/>
      <use x="147.363281" xlink:href="#DejaVuSans-79"/>
      <use x="226.074219" xlink:href="#DejaVuSans-82"/>
     </g>
    </g>
   </g>
   <g id="text_12">
    <g clip-path="url(#pe090736152)">
     <!-- EIF4EBP1 -->
     <g transform="translate(434.914712 193.854138)scale(0.1 -0.1)">
      <defs>
       <path d="M 9.8125 72.90625 
L 51.703125 72.90625 
L 51.703125 64.59375 
L 19.671875 64.59375 
L 19.671875 43.109375 
L 48.578125 43.109375 
L 48.578125 34.8125 
L 19.671875 34.8125 
L 19.671875 0 
L 9.8125 0 
z
" id="DejaVuSans-70"/>
       <path d="M 37.796875 64.3125 
L 12.890625 25.390625 
L 37.796875 25.390625 
z
M 35.203125 72.90625 
L 47.609375 72.90625 
L 47.609375 25.390625 
L 58.015625 25.390625 
L 58.015625 17.1875 
L 47.609375 17.1875 
L 47.609375 0 
L 37.796875 0 
L 37.796875 17.1875 
L 4.890625 17.1875 
L 4.890625 26.703125 
z
" id="DejaVuSans-52"/>
      </defs>
      <use xlink:href="#DejaVuSans-69"/>
      <use x="63.183594" xlink:href="#DejaVuSans-73"/>
      <use x="92.675781" xlink:href="#DejaVuSans-70"/>
      <use x="150.195312" xlink:href="#DejaVuSans-52"/>
      <use x="213.818359" xlink:href="#DejaVuSans-69"/>
      <use x="277.001953" xlink:href="#DejaVuSans-66"/>
      <use x="345.605469" xlink:href="#DejaVuSans-80"/>
      <use x="405.908203" xlink:href="#DejaVuSans-49"/>
     </g>
    </g>
   </g>
   <g id="text_13">
    <g clip-path="url(#pe090736152)">
     <!-- BCL2A1 -->
     <g transform="translate(859.113044 252.225777)scale(0.1 -0.1)">
      <defs>
       <path d="M 9.8125 72.90625 
L 19.671875 72.90625 
L 19.671875 8.296875 
L 55.171875 8.296875 
L 55.171875 0 
L 9.8125 0 
z
" id="DejaVuSans-76"/>
      </defs>
      <use xlink:href="#DejaVuSans-66"/>
      <use x="66.853516" xlink:href="#DejaVuSans-67"/>
      <use x="136.677734" xlink:href="#DejaVuSans-76"/>
      <use x="192.390625" xlink:href="#DejaVuSans-50"/>
      <use x="256.013672" xlink:href="#DejaVuSans-65"/>
      <use x="324.421875" xlink:href="#DejaVuSans-49"/>
     </g>
    </g>
   </g>
   <g id="text_14">
    <g clip-path="url(#pe090736152)">
     <!-- PER2 -->
     <g transform="translate(208.957396 345.303632)scale(0.1 -0.1)">
      <use xlink:href="#DejaVuSans-80"/>
      <use x="60.302734" xlink:href="#DejaVuSans-69"/>
      <use x="123.486328" xlink:href="#DejaVuSans-82"/>
      <use x="192.96875" xlink:href="#DejaVuSans-50"/>
     </g>
    </g>
   </g>
   <g id="text_15">
    <g clip-path="url(#pe090736152)">
     <!-- ITGAM -->
     <g transform="translate(269.022802 620.86747)scale(0.1 -0.1)">
      <defs>
       <path d="M 59.515625 10.40625 
L 59.515625 29.984375 
L 43.40625 29.984375 
L 43.40625 38.09375 
L 69.28125 38.09375 
L 69.28125 6.78125 
Q 63.578125 2.734375 56.6875 0.65625 
Q 49.8125 -1.421875 42 -1.421875 
Q 24.90625 -1.421875 15.25 8.5625 
Q 5.609375 18.5625 5.609375 36.375 
Q 5.609375 54.25 15.25 64.234375 
Q 24.90625 74.21875 42 74.21875 
Q 49.125 74.21875 55.546875 72.453125 
Q 61.96875 70.703125 67.390625 67.28125 
L 67.390625 56.78125 
Q 61.921875 61.421875 55.765625 63.765625 
Q 49.609375 66.109375 42.828125 66.109375 
Q 29.4375 66.109375 22.71875 58.640625 
Q 16.015625 51.171875 16.015625 36.375 
Q 16.015625 21.625 22.71875 14.15625 
Q 29.4375 6.6875 42.828125 6.6875 
Q 48.046875 6.6875 52.140625 7.59375 
Q 56.25 8.5 59.515625 10.40625 
z
" id="DejaVuSans-71"/>
      </defs>
      <use xlink:href="#DejaVuSans-73"/>
      <use x="29.492188" xlink:href="#DejaVuSans-84"/>
      <use x="90.576172" xlink:href="#DejaVuSans-71"/>
      <use x="168.066406" xlink:href="#DejaVuSans-65"/>
      <use x="236.474609" xlink:href="#DejaVuSans-77"/>
     </g>
    </g>
   </g>
   <g id="text_16">
    <g clip-path="url(#pe090736152)">
     <!-- FCGR1A -->
     <g transform="translate(695.616377 713.988466)scale(0.1 -0.1)">
      <use xlink:href="#DejaVuSans-70"/>
      <use x="57.519531" xlink:href="#DejaVuSans-67"/>
      <use x="127.34375" xlink:href="#DejaVuSans-71"/>
      <use x="204.833984" xlink:href="#DejaVuSans-82"/>
      <use x="274.316406" xlink:href="#DejaVuSans-49"/>
      <use x="337.939453" xlink:href="#DejaVuSans-65"/>
     </g>
    </g>
   </g>
   <g id="text_17">
    <g clip-path="url(#pe090736152)">
     <!-- DUSP6 -->
     <g transform="translate(204.594693 492.598301)scale(0.1 -0.1)">
      <defs>
       <path d="M 33.015625 40.375 
Q 26.375 40.375 22.484375 35.828125 
Q 18.609375 31.296875 18.609375 23.390625 
Q 18.609375 15.53125 22.484375 10.953125 
Q 26.375 6.390625 33.015625 6.390625 
Q 39.65625 6.390625 43.53125 10.953125 
Q 47.40625 15.53125 47.40625 23.390625 
Q 47.40625 31.296875 43.53125 35.828125 
Q 39.65625 40.375 33.015625 40.375 
z
M 52.59375 71.296875 
L 52.59375 62.3125 
Q 48.875 64.0625 45.09375 64.984375 
Q 41.3125 65.921875 37.59375 65.921875 
Q 27.828125 65.921875 22.671875 59.328125 
Q 17.53125 52.734375 16.796875 39.40625 
Q 19.671875 43.65625 24.015625 45.921875 
Q 28.375 48.1875 33.59375 48.1875 
Q 44.578125 48.1875 50.953125 41.515625 
Q 57.328125 34.859375 57.328125 23.390625 
Q 57.328125 12.15625 50.6875 5.359375 
Q 44.046875 -1.421875 33.015625 -1.421875 
Q 20.359375 -1.421875 13.671875 8.265625 
Q 6.984375 17.96875 6.984375 36.375 
Q 6.984375 53.65625 15.1875 63.9375 
Q 23.390625 74.21875 37.203125 74.21875 
Q 40.921875 74.21875 44.703125 73.484375 
Q 48.484375 72.75 52.59375 71.296875 
z
" id="DejaVuSans-54"/>
      </defs>
      <use xlink:href="#DejaVuSans-68"/>
      <use x="77.001953" xlink:href="#DejaVuSans-85"/>
      <use x="150.195312" xlink:href="#DejaVuSans-83"/>
      <use x="213.671875" xlink:href="#DejaVuSans-80"/>
      <use x="273.974609" xlink:href="#DejaVuSans-54"/>
     </g>
    </g>
   </g>
   <g id="text_18">
    <g clip-path="url(#pe090736152)">
     <!-- RARA -->
     <g transform="translate(466.158927 348.889047)scale(0.1 -0.1)">
      <use xlink:href="#DejaVuSans-82"/>
      <use x="65.482422" xlink:href="#DejaVuSans-65"/>
      <use x="133.890625" xlink:href="#DejaVuSans-82"/>
      <use x="199.373047" xlink:href="#DejaVuSans-65"/>
     </g>
    </g>
   </g>
   <g id="text_19">
    <g clip-path="url(#pe090736152)">
     <!-- ZBTB16 -->
     <g transform="translate(362.434037 368.613922)scale(0.1 -0.1)">
      <defs>
       <path d="M 5.609375 72.90625 
L 62.890625 72.90625 
L 62.890625 65.375 
L 16.796875 8.296875 
L 64.015625 8.296875 
L 64.015625 0 
L 4.5 0 
L 4.5 7.515625 
L 50.59375 64.59375 
L 5.609375 64.59375 
z
" id="DejaVuSans-90"/>
      </defs>
      <use xlink:href="#DejaVuSans-90"/>
      <use x="68.505859" xlink:href="#DejaVuSans-66"/>
      <use x="137.109375" xlink:href="#DejaVuSans-84"/>
      <use x="198.193359" xlink:href="#DejaVuSans-66"/>
      <use x="266.796875" xlink:href="#DejaVuSans-49"/>
      <use x="330.419922" xlink:href="#DejaVuSans-54"/>
     </g>
    </g>
   </g>
   <g id="text_20">
    <g clip-path="url(#pe090736152)">
     <!-- NFKB1 -->
     <g transform="translate(775.074537 205.342895)scale(0.1 -0.1)">
      <use xlink:href="#DejaVuSans-78"/>
      <use x="74.804688" xlink:href="#DejaVuSans-70"/>
      <use x="132.324219" xlink:href="#DejaVuSans-75"/>
      <use x="197.900391" xlink:href="#DejaVuSans-66"/>
      <use x="266.503906" xlink:href="#DejaVuSans-49"/>
     </g>
    </g>
   </g>
   <g id="text_21">
    <g clip-path="url(#pe090736152)">
     <!-- RELA -->
     <g transform="translate(923.625844 434.681598)scale(0.1 -0.1)">
      <use xlink:href="#DejaVuSans-82"/>
      <use x="69.482422" xlink:href="#DejaVuSans-69"/>
      <use x="132.666016" xlink:href="#DejaVuSans-76"/>
      <use x="190.628906" xlink:href="#DejaVuSans-65"/>
     </g>
    </g>
   </g>
   <g id="text_22">
    <g clip-path="url(#pe090736152)">
     <!-- STAT3 -->
     <g transform="translate(771.954853 278.149473)scale(0.1 -0.1)">
      <defs>
       <path d="M 40.578125 39.3125 
Q 47.65625 37.796875 51.625 33 
Q 55.609375 28.21875 55.609375 21.1875 
Q 55.609375 10.40625 48.1875 4.484375 
Q 40.765625 -1.421875 27.09375 -1.421875 
Q 22.515625 -1.421875 17.65625 -0.515625 
Q 12.796875 0.390625 7.625 2.203125 
L 7.625 11.71875 
Q 11.71875 9.328125 16.59375 8.109375 
Q 21.484375 6.890625 26.8125 6.890625 
Q 36.078125 6.890625 40.9375 10.546875 
Q 45.796875 14.203125 45.796875 21.1875 
Q 45.796875 27.640625 41.28125 31.265625 
Q 36.765625 34.90625 28.71875 34.90625 
L 20.21875 34.90625 
L 20.21875 43.015625 
L 29.109375 43.015625 
Q 36.375 43.015625 40.234375 45.921875 
Q 44.09375 48.828125 44.09375 54.296875 
Q 44.09375 59.90625 40.109375 62.90625 
Q 36.140625 65.921875 28.71875 65.921875 
Q 24.65625 65.921875 20.015625 65.03125 
Q 15.375 64.15625 9.8125 62.3125 
L 9.8125 71.09375 
Q 15.4375 72.65625 20.34375 73.4375 
Q 25.25 74.21875 29.59375 74.21875 
Q 40.828125 74.21875 47.359375 69.109375 
Q 53.90625 64.015625 53.90625 55.328125 
Q 53.90625 49.265625 50.4375 45.09375 
Q 46.96875 40.921875 40.578125 39.3125 
z
" id="DejaVuSans-51"/>
      </defs>
      <use xlink:href="#DejaVuSans-83"/>
      <use x="63.476562" xlink:href="#DejaVuSans-84"/>
      <use x="116.810547" xlink:href="#DejaVuSans-65"/>
      <use x="177.46875" xlink:href="#DejaVuSans-84"/>
      <use x="238.552734" xlink:href="#DejaVuSans-51"/>
     </g>
    </g>
   </g>
   <g id="text_23">
    <g clip-path="url(#pe090736152)">
     <!-- STAT5A -->
     <g transform="translate(788.159044 430.342618)scale(0.1 -0.1)">
      <defs>
       <path d="M 10.796875 72.90625 
L 49.515625 72.90625 
L 49.515625 64.59375 
L 19.828125 64.59375 
L 19.828125 46.734375 
Q 21.96875 47.46875 24.109375 47.828125 
Q 26.265625 48.1875 28.421875 48.1875 
Q 40.625 48.1875 47.75 41.5 
Q 54.890625 34.8125 54.890625 23.390625 
Q 54.890625 11.625 47.5625 5.09375 
Q 40.234375 -1.421875 26.90625 -1.421875 
Q 22.3125 -1.421875 17.546875 -0.640625 
Q 12.796875 0.140625 7.71875 1.703125 
L 7.71875 11.625 
Q 12.109375 9.234375 16.796875 8.0625 
Q 21.484375 6.890625 26.703125 6.890625 
Q 35.15625 6.890625 40.078125 11.328125 
Q 45.015625 15.765625 45.015625 23.390625 
Q 45.015625 31 40.078125 35.4375 
Q 35.15625 39.890625 26.703125 39.890625 
Q 22.75 39.890625 18.8125 39.015625 
Q 14.890625 38.140625 10.796875 36.28125 
z
" id="DejaVuSans-53"/>
      </defs>
      <use xlink:href="#DejaVuSans-83"/>
      <use x="63.476562" xlink:href="#DejaVuSans-84"/>
      <use x="116.810547" xlink:href="#DejaVuSans-65"/>
      <use x="177.46875" xlink:href="#DejaVuSans-84"/>
      <use x="238.552734" xlink:href="#DejaVuSans-53"/>
      <use x="302.175781" xlink:href="#DejaVuSans-65"/>
     </g>
    </g>
   </g>
   <g id="text_24">
    <g clip-path="url(#pe090736152)">
     <!-- STAT5B -->
     <g transform="translate(763.574 473.450036)scale(0.1 -0.1)">
      <use xlink:href="#DejaVuSans-83"/>
      <use x="63.476562" xlink:href="#DejaVuSans-84"/>
      <use x="116.810547" xlink:href="#DejaVuSans-65"/>
      <use x="177.46875" xlink:href="#DejaVuSans-84"/>
      <use x="238.552734" xlink:href="#DejaVuSans-53"/>
      <use x="302.175781" xlink:href="#DejaVuSans-66"/>
     </g>
    </g>
   </g>
   <g id="text_25">
    <g clip-path="url(#pe090736152)">
     <!-- TCF7 -->
     <g transform="translate(574.339651 701.706122)scale(0.1 -0.1)">
      <defs>
       <path d="M 8.203125 72.90625 
L 55.078125 72.90625 
L 55.078125 68.703125 
L 28.609375 0 
L 18.3125 0 
L 43.21875 64.59375 
L 8.203125 64.59375 
z
" id="DejaVuSans-55"/>
      </defs>
      <use xlink:href="#DejaVuSans-84"/>
      <use x="55.208984" xlink:href="#DejaVuSans-67"/>
      <use x="125.033203" xlink:href="#DejaVuSans-70"/>
      <use x="182.552734" xlink:href="#DejaVuSans-55"/>
     </g>
    </g>
   </g>
   <g id="text_26">
    <g clip-path="url(#pe090736152)">
     <!-- TCF7L2 -->
     <g transform="translate(652.723312 190.054094)scale(0.1 -0.1)">
      <use xlink:href="#DejaVuSans-84"/>
      <use x="55.208984" xlink:href="#DejaVuSans-67"/>
      <use x="125.033203" xlink:href="#DejaVuSans-70"/>
      <use x="182.552734" xlink:href="#DejaVuSans-55"/>
      <use x="246.175781" xlink:href="#DejaVuSans-76"/>
      <use x="301.888672" xlink:href="#DejaVuSans-50"/>
     </g>
    </g>
   </g>
   <g id="text_27">
    <g clip-path="url(#pe090736152)">
     <!-- LEF1 -->
     <g transform="translate(449.722647 711.392449)scale(0.1 -0.1)">
      <use xlink:href="#DejaVuSans-76"/>
      <use x="55.712891" xlink:href="#DejaVuSans-69"/>
      <use x="118.896484" xlink:href="#DejaVuSans-70"/>
      <use x="176.416016" xlink:href="#DejaVuSans-49"/>
     </g>
    </g>
   </g>
   <g id="text_28">
    <g clip-path="url(#pe090736152)">
     <!-- PML -->
     <g transform="translate(531.691196 275.164955)scale(0.1 -0.1)">
      <use xlink:href="#DejaVuSans-80"/>
      <use x="60.302734" xlink:href="#DejaVuSans-77"/>
      <use x="146.582031" xlink:href="#DejaVuSans-76"/>
     </g>
    </g>
   </g>
   <g id="text_29">
    <g clip-path="url(#pe090736152)">
     <!-- HRAS -->
     <g transform="translate(661.8444 482.929761)scale(0.1 -0.1)">
      <defs>
       <path d="M 9.8125 72.90625 
L 19.671875 72.90625 
L 19.671875 43.015625 
L 55.515625 43.015625 
L 55.515625 72.90625 
L 65.375 72.90625 
L 65.375 0 
L 55.515625 0 
L 55.515625 34.71875 
L 19.671875 34.71875 
L 19.671875 0 
L 9.8125 0 
z
" id="DejaVuSans-72"/>
      </defs>
      <use xlink:href="#DejaVuSans-72"/>
      <use x="75.195312" xlink:href="#DejaVuSans-82"/>
      <use x="140.677734" xlink:href="#DejaVuSans-65"/>
      <use x="209.085938" xlink:href="#DejaVuSans-83"/>
     </g>
    </g>
   </g>
   <g id="text_30">
    <g clip-path="url(#pe090736152)">
     <!-- IKBKB -->
     <g transform="translate(944.43187 454.27635)scale(0.1 -0.1)">
      <use xlink:href="#DejaVuSans-73"/>
      <use x="29.492188" xlink:href="#DejaVuSans-75"/>
      <use x="95.068359" xlink:href="#DejaVuSans-66"/>
      <use x="163.671875" xlink:href="#DejaVuSans-75"/>
      <use x="229.248047" xlink:href="#DejaVuSans-66"/>
     </g>
    </g>
   </g>
   <g id="text_31">
    <g clip-path="url(#pe090736152)">
     <!-- IKBKG -->
     <g transform="translate(603.580215 294.287978)scale(0.1 -0.1)">
      <use xlink:href="#DejaVuSans-73"/>
      <use x="29.492188" xlink:href="#DejaVuSans-75"/>
      <use x="95.068359" xlink:href="#DejaVuSans-66"/>
      <use x="163.671875" xlink:href="#DejaVuSans-75"/>
      <use x="229.248047" xlink:href="#DejaVuSans-71"/>
     </g>
    </g>
   </g>
   <g id="text_32">
    <g clip-path="url(#pe090736152)">
     <!-- MAP2K1 -->
     <g transform="translate(923.949128 380.05028)scale(0.1 -0.1)">
      <use xlink:href="#DejaVuSans-77"/>
      <use x="86.279297" xlink:href="#DejaVuSans-65"/>
      <use x="154.6875" xlink:href="#DejaVuSans-80"/>
      <use x="214.990234" xlink:href="#DejaVuSans-50"/>
      <use x="278.613281" xlink:href="#DejaVuSans-75"/>
      <use x="344.189453" xlink:href="#DejaVuSans-49"/>
     </g>
    </g>
   </g>
   <g id="text_33">
    <g clip-path="url(#pe090736152)">
     <!-- MAP2K2 -->
     <g transform="translate(791.251086 648.486345)scale(0.1 -0.1)">
      <use xlink:href="#DejaVuSans-77"/>
      <use x="86.279297" xlink:href="#DejaVuSans-65"/>
      <use x="154.6875" xlink:href="#DejaVuSans-80"/>
      <use x="214.990234" xlink:href="#DejaVuSans-50"/>
      <use x="278.613281" xlink:href="#DejaVuSans-75"/>
      <use x="344.189453" xlink:href="#DejaVuSans-50"/>
     </g>
    </g>
   </g>
   <g id="text_34">
    <g clip-path="url(#pe090736152)">
     <!-- BRAF -->
     <g transform="translate(518.860185 489.401542)scale(0.1 -0.1)">
      <use xlink:href="#DejaVuSans-66"/>
      <use x="68.603516" xlink:href="#DejaVuSans-82"/>
      <use x="134.085938" xlink:href="#DejaVuSans-65"/>
      <use x="202.494141" xlink:href="#DejaVuSans-70"/>
     </g>
    </g>
   </g>
   <g id="text_35">
    <g clip-path="url(#pe090736152)">
     <!-- RAF1 -->
     <g transform="translate(935.770636 558.341831)scale(0.1 -0.1)">
      <use xlink:href="#DejaVuSans-82"/>
      <use x="65.482422" xlink:href="#DejaVuSans-65"/>
      <use x="133.890625" xlink:href="#DejaVuSans-70"/>
      <use x="191.410156" xlink:href="#DejaVuSans-49"/>
     </g>
    </g>
   </g>
   <g id="text_36">
    <g clip-path="url(#pe090736152)">
     <!-- ARAF -->
     <g transform="translate(545.505458 361.365972)scale(0.1 -0.1)">
      <use xlink:href="#DejaVuSans-65"/>
      <use x="68.408203" xlink:href="#DejaVuSans-82"/>
      <use x="133.890625" xlink:href="#DejaVuSans-65"/>
      <use x="202.298828" xlink:href="#DejaVuSans-70"/>
     </g>
    </g>
   </g>
   <g id="text_37">
    <!-- Importance Score and Relative Abundance for network hsa05221 for dataset atherosclerosis -->
    <g transform="translate(312.388125 97.68)scale(0.12 -0.12)">
     <defs>
      <path d="M 52 44.1875 
Q 55.375 50.25 60.0625 53.125 
Q 64.75 56 71.09375 56 
Q 79.640625 56 84.28125 50.015625 
Q 88.921875 44.046875 88.921875 33.015625 
L 88.921875 0 
L 79.890625 0 
L 79.890625 32.71875 
Q 79.890625 40.578125 77.09375 44.375 
Q 74.3125 48.1875 68.609375 48.1875 
Q 61.625 48.1875 57.5625 43.546875 
Q 53.515625 38.921875 53.515625 30.90625 
L 53.515625 0 
L 44.484375 0 
L 44.484375 32.71875 
Q 44.484375 40.625 41.703125 44.40625 
Q 38.921875 48.1875 33.109375 48.1875 
Q 26.21875 48.1875 22.15625 43.53125 
Q 18.109375 38.875 18.109375 30.90625 
L 18.109375 0 
L 9.078125 0 
L 9.078125 54.6875 
L 18.109375 54.6875 
L 18.109375 46.1875 
Q 21.1875 51.21875 25.484375 53.609375 
Q 29.78125 56 35.6875 56 
Q 41.65625 56 45.828125 52.96875 
Q 50 49.953125 52 44.1875 
z
" id="DejaVuSans-109"/>
      <path d="M 18.109375 8.203125 
L 18.109375 -20.796875 
L 9.078125 -20.796875 
L 9.078125 54.6875 
L 18.109375 54.6875 
L 18.109375 46.390625 
Q 20.953125 51.265625 25.265625 53.625 
Q 29.59375 56 35.59375 56 
Q 45.5625 56 51.78125 48.09375 
Q 58.015625 40.1875 58.015625 27.296875 
Q 58.015625 14.40625 51.78125 6.484375 
Q 45.5625 -1.421875 35.59375 -1.421875 
Q 29.59375 -1.421875 25.265625 0.953125 
Q 20.953125 3.328125 18.109375 8.203125 
z
M 48.6875 27.296875 
Q 48.6875 37.203125 44.609375 42.84375 
Q 40.53125 48.484375 33.40625 48.484375 
Q 26.265625 48.484375 22.1875 42.84375 
Q 18.109375 37.203125 18.109375 27.296875 
Q 18.109375 17.390625 22.1875 11.75 
Q 26.265625 6.109375 33.40625 6.109375 
Q 40.53125 6.109375 44.609375 11.75 
Q 48.6875 17.390625 48.6875 27.296875 
z
" id="DejaVuSans-112"/>
      <path d="M 30.609375 48.390625 
Q 23.390625 48.390625 19.1875 42.75 
Q 14.984375 37.109375 14.984375 27.296875 
Q 14.984375 17.484375 19.15625 11.84375 
Q 23.34375 6.203125 30.609375 6.203125 
Q 37.796875 6.203125 41.984375 11.859375 
Q 46.1875 17.53125 46.1875 27.296875 
Q 46.1875 37.015625 41.984375 42.703125 
Q 37.796875 48.390625 30.609375 48.390625 
z
M 30.609375 56 
Q 42.328125 56 49.015625 48.375 
Q 55.71875 40.765625 55.71875 27.296875 
Q 55.71875 13.875 49.015625 6.21875 
Q 42.328125 -1.421875 30.609375 -1.421875 
Q 18.84375 -1.421875 12.171875 6.21875 
Q 5.515625 13.875 5.515625 27.296875 
Q 5.515625 40.765625 12.171875 48.375 
Q 18.84375 56 30.609375 56 
z
" id="DejaVuSans-111"/>
      <path d="M 41.109375 46.296875 
Q 39.59375 47.171875 37.8125 47.578125 
Q 36.03125 48 33.890625 48 
Q 26.265625 48 22.1875 43.046875 
Q 18.109375 38.09375 18.109375 28.8125 
L 18.109375 0 
L 9.078125 0 
L 9.078125 54.6875 
L 18.109375 54.6875 
L 18.109375 46.1875 
Q 20.953125 51.171875 25.484375 53.578125 
Q 30.03125 56 36.53125 56 
Q 37.453125 56 38.578125 55.875 
Q 39.703125 55.765625 41.0625 55.515625 
z
" id="DejaVuSans-114"/>
      <path d="M 18.3125 70.21875 
L 18.3125 54.6875 
L 36.8125 54.6875 
L 36.8125 47.703125 
L 18.3125 47.703125 
L 18.3125 18.015625 
Q 18.3125 11.328125 20.140625 9.421875 
Q 21.96875 7.515625 27.59375 7.515625 
L 36.8125 7.515625 
L 36.8125 0 
L 27.59375 0 
Q 17.1875 0 13.234375 3.875 
Q 9.28125 7.765625 9.28125 18.015625 
L 9.28125 47.703125 
L 2.6875 47.703125 
L 2.6875 54.6875 
L 9.28125 54.6875 
L 9.28125 70.21875 
z
" id="DejaVuSans-116"/>
      <path d="M 34.28125 27.484375 
Q 23.390625 27.484375 19.1875 25 
Q 14.984375 22.515625 14.984375 16.5 
Q 14.984375 11.71875 18.140625 8.90625 
Q 21.296875 6.109375 26.703125 6.109375 
Q 34.1875 6.109375 38.703125 11.40625 
Q 43.21875 16.703125 43.21875 25.484375 
L 43.21875 27.484375 
z
M 52.203125 31.203125 
L 52.203125 0 
L 43.21875 0 
L 43.21875 8.296875 
Q 40.140625 3.328125 35.546875 0.953125 
Q 30.953125 -1.421875 24.3125 -1.421875 
Q 15.921875 -1.421875 10.953125 3.296875 
Q 6 8.015625 6 15.921875 
Q 6 25.140625 12.171875 29.828125 
Q 18.359375 34.515625 30.609375 34.515625 
L 43.21875 34.515625 
L 43.21875 35.40625 
Q 43.21875 41.609375 39.140625 45 
Q 35.0625 48.390625 27.6875 48.390625 
Q 23 48.390625 18.546875 47.265625 
Q 14.109375 46.140625 10.015625 43.890625 
L 10.015625 52.203125 
Q 14.9375 54.109375 19.578125 55.046875 
Q 24.21875 56 28.609375 56 
Q 40.484375 56 46.34375 49.84375 
Q 52.203125 43.703125 52.203125 31.203125 
z
" id="DejaVuSans-97"/>
      <path d="M 54.890625 33.015625 
L 54.890625 0 
L 45.90625 0 
L 45.90625 32.71875 
Q 45.90625 40.484375 42.875 44.328125 
Q 39.84375 48.1875 33.796875 48.1875 
Q 26.515625 48.1875 22.3125 43.546875 
Q 18.109375 38.921875 18.109375 30.90625 
L 18.109375 0 
L 9.078125 0 
L 9.078125 54.6875 
L 18.109375 54.6875 
L 18.109375 46.1875 
Q 21.34375 51.125 25.703125 53.5625 
Q 30.078125 56 35.796875 56 
Q 45.21875 56 50.046875 50.171875 
Q 54.890625 44.34375 54.890625 33.015625 
z
" id="DejaVuSans-110"/>
      <path d="M 48.78125 52.59375 
L 48.78125 44.1875 
Q 44.96875 46.296875 41.140625 47.34375 
Q 37.3125 48.390625 33.40625 48.390625 
Q 24.65625 48.390625 19.8125 42.84375 
Q 14.984375 37.3125 14.984375 27.296875 
Q 14.984375 17.28125 19.8125 11.734375 
Q 24.65625 6.203125 33.40625 6.203125 
Q 37.3125 6.203125 41.140625 7.25 
Q 44.96875 8.296875 48.78125 10.40625 
L 48.78125 2.09375 
Q 45.015625 0.34375 40.984375 -0.53125 
Q 36.96875 -1.421875 32.421875 -1.421875 
Q 20.0625 -1.421875 12.78125 6.34375 
Q 5.515625 14.109375 5.515625 27.296875 
Q 5.515625 40.671875 12.859375 48.328125 
Q 20.21875 56 33.015625 56 
Q 37.15625 56 41.109375 55.140625 
Q 45.0625 54.296875 48.78125 52.59375 
z
" id="DejaVuSans-99"/>
      <path d="M 56.203125 29.59375 
L 56.203125 25.203125 
L 14.890625 25.203125 
Q 15.484375 15.921875 20.484375 11.0625 
Q 25.484375 6.203125 34.421875 6.203125 
Q 39.59375 6.203125 44.453125 7.46875 
Q 49.3125 8.734375 54.109375 11.28125 
L 54.109375 2.78125 
Q 49.265625 0.734375 44.1875 -0.34375 
Q 39.109375 -1.421875 33.890625 -1.421875 
Q 20.796875 -1.421875 13.15625 6.1875 
Q 5.515625 13.8125 5.515625 26.8125 
Q 5.515625 40.234375 12.765625 48.109375 
Q 20.015625 56 32.328125 56 
Q 43.359375 56 49.78125 48.890625 
Q 56.203125 41.796875 56.203125 29.59375 
z
M 47.21875 32.234375 
Q 47.125 39.59375 43.09375 43.984375 
Q 39.0625 48.390625 32.421875 48.390625 
Q 24.90625 48.390625 20.390625 44.140625 
Q 15.875 39.890625 15.1875 32.171875 
z
" id="DejaVuSans-101"/>
      <path id="DejaVuSans-32"/>
      <path d="M 45.40625 46.390625 
L 45.40625 75.984375 
L 54.390625 75.984375 
L 54.390625 0 
L 45.40625 0 
L 45.40625 8.203125 
Q 42.578125 3.328125 38.25 0.953125 
Q 33.9375 -1.421875 27.875 -1.421875 
Q 17.96875 -1.421875 11.734375 6.484375 
Q 5.515625 14.40625 5.515625 27.296875 
Q 5.515625 40.1875 11.734375 48.09375 
Q 17.96875 56 27.875 56 
Q 33.9375 56 38.25 53.625 
Q 42.578125 51.265625 45.40625 46.390625 
z
M 14.796875 27.296875 
Q 14.796875 17.390625 18.875 11.75 
Q 22.953125 6.109375 30.078125 6.109375 
Q 37.203125 6.109375 41.296875 11.75 
Q 45.40625 17.390625 45.40625 27.296875 
Q 45.40625 37.203125 41.296875 42.84375 
Q 37.203125 48.484375 30.078125 48.484375 
Q 22.953125 48.484375 18.875 42.84375 
Q 14.796875 37.203125 14.796875 27.296875 
z
" id="DejaVuSans-100"/>
      <path d="M 9.421875 75.984375 
L 18.40625 75.984375 
L 18.40625 0 
L 9.421875 0 
z
" id="DejaVuSans-108"/>
      <path d="M 9.421875 54.6875 
L 18.40625 54.6875 
L 18.40625 0 
L 9.421875 0 
z
M 9.421875 75.984375 
L 18.40625 75.984375 
L 18.40625 64.59375 
L 9.421875 64.59375 
z
" id="DejaVuSans-105"/>
      <path d="M 2.984375 54.6875 
L 12.5 54.6875 
L 29.59375 8.796875 
L 46.6875 54.6875 
L 56.203125 54.6875 
L 35.6875 0 
L 23.484375 0 
z
" id="DejaVuSans-118"/>
      <path d="M 48.6875 27.296875 
Q 48.6875 37.203125 44.609375 42.84375 
Q 40.53125 48.484375 33.40625 48.484375 
Q 26.265625 48.484375 22.1875 42.84375 
Q 18.109375 37.203125 18.109375 27.296875 
Q 18.109375 17.390625 22.1875 11.75 
Q 26.265625 6.109375 33.40625 6.109375 
Q 40.53125 6.109375 44.609375 11.75 
Q 48.6875 17.390625 48.6875 27.296875 
z
M 18.109375 46.390625 
Q 20.953125 51.265625 25.265625 53.625 
Q 29.59375 56 35.59375 56 
Q 45.5625 56 51.78125 48.09375 
Q 58.015625 40.1875 58.015625 27.296875 
Q 58.015625 14.40625 51.78125 6.484375 
Q 45.5625 -1.421875 35.59375 -1.421875 
Q 29.59375 -1.421875 25.265625 0.953125 
Q 20.953125 3.328125 18.109375 8.203125 
L 18.109375 0 
L 9.078125 0 
L 9.078125 75.984375 
L 18.109375 75.984375 
z
" id="DejaVuSans-98"/>
      <path d="M 8.5 21.578125 
L 8.5 54.6875 
L 17.484375 54.6875 
L 17.484375 21.921875 
Q 17.484375 14.15625 20.5 10.265625 
Q 23.53125 6.390625 29.59375 6.390625 
Q 36.859375 6.390625 41.078125 11.03125 
Q 45.3125 15.671875 45.3125 23.6875 
L 45.3125 54.6875 
L 54.296875 54.6875 
L 54.296875 0 
L 45.3125 0 
L 45.3125 8.40625 
Q 42.046875 3.421875 37.71875 1 
Q 33.40625 -1.421875 27.6875 -1.421875 
Q 18.265625 -1.421875 13.375 4.4375 
Q 8.5 10.296875 8.5 21.578125 
z
M 31.109375 56 
z
" id="DejaVuSans-117"/>
      <path d="M 37.109375 75.984375 
L 37.109375 68.5 
L 28.515625 68.5 
Q 23.6875 68.5 21.796875 66.546875 
Q 19.921875 64.59375 19.921875 59.515625 
L 19.921875 54.6875 
L 34.71875 54.6875 
L 34.71875 47.703125 
L 19.921875 47.703125 
L 19.921875 0 
L 10.890625 0 
L 10.890625 47.703125 
L 2.296875 47.703125 
L 2.296875 54.6875 
L 10.890625 54.6875 
L 10.890625 58.5 
Q 10.890625 67.625 15.140625 71.796875 
Q 19.390625 75.984375 28.609375 75.984375 
z
" id="DejaVuSans-102"/>
      <path d="M 4.203125 54.6875 
L 13.1875 54.6875 
L 24.421875 12.015625 
L 35.59375 54.6875 
L 46.1875 54.6875 
L 57.421875 12.015625 
L 68.609375 54.6875 
L 77.59375 54.6875 
L 63.28125 0 
L 52.6875 0 
L 40.921875 44.828125 
L 29.109375 0 
L 18.5 0 
z
" id="DejaVuSans-119"/>
      <path d="M 9.078125 75.984375 
L 18.109375 75.984375 
L 18.109375 31.109375 
L 44.921875 54.6875 
L 56.390625 54.6875 
L 27.390625 29.109375 
L 57.625 0 
L 45.90625 0 
L 18.109375 26.703125 
L 18.109375 0 
L 9.078125 0 
z
" id="DejaVuSans-107"/>
      <path d="M 54.890625 33.015625 
L 54.890625 0 
L 45.90625 0 
L 45.90625 32.71875 
Q 45.90625 40.484375 42.875 44.328125 
Q 39.84375 48.1875 33.796875 48.1875 
Q 26.515625 48.1875 22.3125 43.546875 
Q 18.109375 38.921875 18.109375 30.90625 
L 18.109375 0 
L 9.078125 0 
L 9.078125 75.984375 
L 18.109375 75.984375 
L 18.109375 46.1875 
Q 21.34375 51.125 25.703125 53.5625 
Q 30.078125 56 35.796875 56 
Q 45.21875 56 50.046875 50.171875 
Q 54.890625 44.34375 54.890625 33.015625 
z
" id="DejaVuSans-104"/>
      <path d="M 44.28125 53.078125 
L 44.28125 44.578125 
Q 40.484375 46.53125 36.375 47.5 
Q 32.28125 48.484375 27.875 48.484375 
Q 21.1875 48.484375 17.84375 46.4375 
Q 14.5 44.390625 14.5 40.28125 
Q 14.5 37.15625 16.890625 35.375 
Q 19.28125 33.59375 26.515625 31.984375 
L 29.59375 31.296875 
Q 39.15625 29.25 43.1875 25.515625 
Q 47.21875 21.78125 47.21875 15.09375 
Q 47.21875 7.46875 41.1875 3.015625 
Q 35.15625 -1.421875 24.609375 -1.421875 
Q 20.21875 -1.421875 15.453125 -0.5625 
Q 10.6875 0.296875 5.421875 2 
L 5.421875 11.28125 
Q 10.40625 8.6875 15.234375 7.390625 
Q 20.0625 6.109375 24.8125 6.109375 
Q 31.15625 6.109375 34.5625 8.28125 
Q 37.984375 10.453125 37.984375 14.40625 
Q 37.984375 18.0625 35.515625 20.015625 
Q 33.0625 21.96875 24.703125 23.78125 
L 21.578125 24.515625 
Q 13.234375 26.265625 9.515625 29.90625 
Q 5.8125 33.546875 5.8125 39.890625 
Q 5.8125 47.609375 11.28125 51.796875 
Q 16.75 56 26.8125 56 
Q 31.78125 56 36.171875 55.265625 
Q 40.578125 54.546875 44.28125 53.078125 
z
" id="DejaVuSans-115"/>
      <path d="M 31.78125 66.40625 
Q 24.171875 66.40625 20.328125 58.90625 
Q 16.5 51.421875 16.5 36.375 
Q 16.5 21.390625 20.328125 13.890625 
Q 24.171875 6.390625 31.78125 6.390625 
Q 39.453125 6.390625 43.28125 13.890625 
Q 47.125 21.390625 47.125 36.375 
Q 47.125 51.421875 43.28125 58.90625 
Q 39.453125 66.40625 31.78125 66.40625 
z
M 31.78125 74.21875 
Q 44.046875 74.21875 50.515625 64.515625 
Q 56.984375 54.828125 56.984375 36.375 
Q 56.984375 17.96875 50.515625 8.265625 
Q 44.046875 -1.421875 31.78125 -1.421875 
Q 19.53125 -1.421875 13.0625 8.265625 
Q 6.59375 17.96875 6.59375 36.375 
Q 6.59375 54.828125 13.0625 64.515625 
Q 19.53125 74.21875 31.78125 74.21875 
z
" id="DejaVuSans-48"/>
     </defs>
     <use xlink:href="#DejaVuSans-73"/>
     <use x="29.492188" xlink:href="#DejaVuSans-109"/>
     <use x="126.904297" xlink:href="#DejaVuSans-112"/>
     <use x="190.380859" xlink:href="#DejaVuSans-111"/>
     <use x="251.5625" xlink:href="#DejaVuSans-114"/>
     <use x="292.675781" xlink:href="#DejaVuSans-116"/>
     <use x="331.884766" xlink:href="#DejaVuSans-97"/>
     <use x="393.164062" xlink:href="#DejaVuSans-110"/>
     <use x="456.542969" xlink:href="#DejaVuSans-99"/>
     <use x="511.523438" xlink:href="#DejaVuSans-101"/>
     <use x="573.046875" xlink:href="#DejaVuSans-32"/>
     <use x="604.833984" xlink:href="#DejaVuSans-83"/>
     <use x="668.310547" xlink:href="#DejaVuSans-99"/>
     <use x="723.291016" xlink:href="#DejaVuSans-111"/>
     <use x="784.472656" xlink:href="#DejaVuSans-114"/>
     <use x="823.335938" xlink:href="#DejaVuSans-101"/>
     <use x="884.859375" xlink:href="#DejaVuSans-32"/>
     <use x="916.646484" xlink:href="#DejaVuSans-97"/>
     <use x="977.925781" xlink:href="#DejaVuSans-110"/>
     <use x="1041.304688" xlink:href="#DejaVuSans-100"/>
     <use x="1104.78125" xlink:href="#DejaVuSans-32"/>
     <use x="1136.568359" xlink:href="#DejaVuSans-82"/>
     <use x="1201.550781" xlink:href="#DejaVuSans-101"/>
     <use x="1263.074219" xlink:href="#DejaVuSans-108"/>
     <use x="1290.857422" xlink:href="#DejaVuSans-97"/>
     <use x="1352.136719" xlink:href="#DejaVuSans-116"/>
     <use x="1391.345703" xlink:href="#DejaVuSans-105"/>
     <use x="1419.128906" xlink:href="#DejaVuSans-118"/>
     <use x="1478.308594" xlink:href="#DejaVuSans-101"/>
     <use x="1539.832031" xlink:href="#DejaVuSans-32"/>
     <use x="1571.619141" xlink:href="#DejaVuSans-65"/>
     <use x="1640.027344" xlink:href="#DejaVuSans-98"/>
     <use x="1703.503906" xlink:href="#DejaVuSans-117"/>
     <use x="1766.882812" xlink:href="#DejaVuSans-110"/>
     <use x="1830.261719" xlink:href="#DejaVuSans-100"/>
     <use x="1893.738281" xlink:href="#DejaVuSans-97"/>
     <use x="1955.017578" xlink:href="#DejaVuSans-110"/>
     <use x="2018.396484" xlink:href="#DejaVuSans-99"/>
     <use x="2073.376953" xlink:href="#DejaVuSans-101"/>
     <use x="2134.900391" xlink:href="#DejaVuSans-32"/>
     <use x="2166.6875" xlink:href="#DejaVuSans-102"/>
     <use x="2201.892578" xlink:href="#DejaVuSans-111"/>
     <use x="2263.074219" xlink:href="#DejaVuSans-114"/>
     <use x="2304.1875" xlink:href="#DejaVuSans-32"/>
     <use x="2335.974609" xlink:href="#DejaVuSans-110"/>
     <use x="2399.353516" xlink:href="#DejaVuSans-101"/>
     <use x="2460.876953" xlink:href="#DejaVuSans-116"/>
     <use x="2500.085938" xlink:href="#DejaVuSans-119"/>
     <use x="2581.873047" xlink:href="#DejaVuSans-111"/>
     <use x="2643.054688" xlink:href="#DejaVuSans-114"/>
     <use x="2684.167969" xlink:href="#DejaVuSans-107"/>
     <use x="2742.078125" xlink:href="#DejaVuSans-32"/>
     <use x="2773.865234" xlink:href="#DejaVuSans-104"/>
     <use x="2837.244141" xlink:href="#DejaVuSans-115"/>
     <use x="2889.34375" xlink:href="#DejaVuSans-97"/>
     <use x="2950.623047" xlink:href="#DejaVuSans-48"/>
     <use x="3014.246094" xlink:href="#DejaVuSans-53"/>
     <use x="3077.869141" xlink:href="#DejaVuSans-50"/>
     <use x="3141.492188" xlink:href="#DejaVuSans-50"/>
     <use x="3205.115234" xlink:href="#DejaVuSans-49"/>
     <use x="3268.738281" xlink:href="#DejaVuSans-32"/>
     <use x="3300.525391" xlink:href="#DejaVuSans-102"/>
     <use x="3335.730469" xlink:href="#DejaVuSans-111"/>
     <use x="3396.912109" xlink:href="#DejaVuSans-114"/>
     <use x="3438.025391" xlink:href="#DejaVuSans-32"/>
     <use x="3469.8125" xlink:href="#DejaVuSans-100"/>
     <use x="3533.289062" xlink:href="#DejaVuSans-97"/>
     <use x="3594.568359" xlink:href="#DejaVuSans-116"/>
     <use x="3633.777344" xlink:href="#DejaVuSans-97"/>
     <use x="3695.056641" xlink:href="#DejaVuSans-115"/>
     <use x="3747.15625" xlink:href="#DejaVuSans-101"/>
     <use x="3808.679688" xlink:href="#DejaVuSans-116"/>
     <use x="3847.888672" xlink:href="#DejaVuSans-32"/>
     <use x="3879.675781" xlink:href="#DejaVuSans-97"/>
     <use x="3940.955078" xlink:href="#DejaVuSans-116"/>
     <use x="3980.164062" xlink:href="#DejaVuSans-104"/>
     <use x="4043.542969" xlink:href="#DejaVuSans-101"/>
     <use x="4105.066406" xlink:href="#DejaVuSans-114"/>
     <use x="4143.929688" xlink:href="#DejaVuSans-111"/>
     <use x="4205.111328" xlink:href="#DejaVuSans-115"/>
     <use x="4257.210938" xlink:href="#DejaVuSans-99"/>
     <use x="4312.191406" xlink:href="#DejaVuSans-108"/>
     <use x="4339.974609" xlink:href="#DejaVuSans-101"/>
     <use x="4401.498047" xlink:href="#DejaVuSans-114"/>
     <use x="4440.361328" xlink:href="#DejaVuSans-111"/>
     <use x="4501.542969" xlink:href="#DejaVuSans-115"/>
     <use x="4553.642578" xlink:href="#DejaVuSans-105"/>
     <use x="4581.425781" xlink:href="#DejaVuSans-115"/>
    </g>
   </g>
   <g id="legend_1">
    <g id="patch_53">
     <path d="M 803.859375 155.714375 
L 1029.8 155.714375 
Q 1031.8 155.714375 1031.8 153.714375 
L 1031.8 110.68 
Q 1031.8 108.68 1029.8 108.68 
L 803.859375 108.68 
Q 801.859375 108.68 801.859375 110.68 
L 801.859375 153.714375 
Q 801.859375 155.714375 803.859375 155.714375 
z
" style="fill:#ffffff;opacity:0.8;stroke:#cccccc;stroke-linejoin:miter;"/>
    </g>
    <g id="text_38">
     <!-- Relative Expression of AS+ compared to AS- -->
     <g transform="translate(805.859375 120.278437)scale(0.1 -0.1)">
      <defs>
       <path d="M 54.890625 54.6875 
L 35.109375 28.078125 
L 55.90625 0 
L 45.3125 0 
L 29.390625 21.484375 
L 13.484375 0 
L 2.875 0 
L 24.125 28.609375 
L 4.6875 54.6875 
L 15.28125 54.6875 
L 29.78125 35.203125 
L 44.28125 54.6875 
z
" id="DejaVuSans-120"/>
       <path d="M 46 62.703125 
L 46 35.5 
L 73.1875 35.5 
L 73.1875 27.203125 
L 46 27.203125 
L 46 0 
L 37.796875 0 
L 37.796875 27.203125 
L 10.59375 27.203125 
L 10.59375 35.5 
L 37.796875 35.5 
L 37.796875 62.703125 
z
" id="DejaVuSans-43"/>
       <path d="M 4.890625 31.390625 
L 31.203125 31.390625 
L 31.203125 23.390625 
L 4.890625 23.390625 
z
" id="DejaVuSans-45"/>
      </defs>
      <use xlink:href="#DejaVuSans-82"/>
      <use x="64.982422" xlink:href="#DejaVuSans-101"/>
      <use x="126.505859" xlink:href="#DejaVuSans-108"/>
      <use x="154.289062" xlink:href="#DejaVuSans-97"/>
      <use x="215.568359" xlink:href="#DejaVuSans-116"/>
      <use x="254.777344" xlink:href="#DejaVuSans-105"/>
      <use x="282.560547" xlink:href="#DejaVuSans-118"/>
      <use x="341.740234" xlink:href="#DejaVuSans-101"/>
      <use x="403.263672" xlink:href="#DejaVuSans-32"/>
      <use x="435.050781" xlink:href="#DejaVuSans-69"/>
      <use x="498.234375" xlink:href="#DejaVuSans-120"/>
      <use x="557.414062" xlink:href="#DejaVuSans-112"/>
      <use x="620.890625" xlink:href="#DejaVuSans-114"/>
      <use x="659.753906" xlink:href="#DejaVuSans-101"/>
      <use x="721.277344" xlink:href="#DejaVuSans-115"/>
      <use x="773.376953" xlink:href="#DejaVuSans-115"/>
      <use x="825.476562" xlink:href="#DejaVuSans-105"/>
      <use x="853.259766" xlink:href="#DejaVuSans-111"/>
      <use x="914.441406" xlink:href="#DejaVuSans-110"/>
      <use x="977.820312" xlink:href="#DejaVuSans-32"/>
      <use x="1009.607422" xlink:href="#DejaVuSans-111"/>
      <use x="1070.789062" xlink:href="#DejaVuSans-102"/>
      <use x="1105.994141" xlink:href="#DejaVuSans-32"/>
      <use x="1137.78125" xlink:href="#DejaVuSans-65"/>
      <use x="1206.189453" xlink:href="#DejaVuSans-83"/>
      <use x="1269.666016" xlink:href="#DejaVuSans-43"/>
      <use x="1353.455078" xlink:href="#DejaVuSans-32"/>
      <use x="1385.242188" xlink:href="#DejaVuSans-99"/>
      <use x="1440.222656" xlink:href="#DejaVuSans-111"/>
      <use x="1501.404297" xlink:href="#DejaVuSans-109"/>
      <use x="1598.816406" xlink:href="#DejaVuSans-112"/>
      <use x="1662.292969" xlink:href="#DejaVuSans-97"/>
      <use x="1723.572266" xlink:href="#DejaVuSans-114"/>
      <use x="1762.435547" xlink:href="#DejaVuSans-101"/>
      <use x="1823.958984" xlink:href="#DejaVuSans-100"/>
      <use x="1887.435547" xlink:href="#DejaVuSans-32"/>
      <use x="1919.222656" xlink:href="#DejaVuSans-116"/>
      <use x="1958.431641" xlink:href="#DejaVuSans-111"/>
      <use x="2019.613281" xlink:href="#DejaVuSans-32"/>
      <use x="2051.400391" xlink:href="#DejaVuSans-65"/>
      <use x="2119.808594" xlink:href="#DejaVuSans-83"/>
      <use x="2183.285156" xlink:href="#DejaVuSans-45"/>
     </g>
    </g>
    <g id="patch_54">
     <path d="M 829.136719 134.956562 
L 849.136719 134.956562 
L 849.136719 127.956562 
L 829.136719 127.956562 
z
" style="fill:#0000ff;stroke:#0000ff;stroke-linejoin:miter;"/>
    </g>
    <g id="text_39">
     <!-- Decreased expression in AS+ -->
     <g transform="translate(857.136719 134.956562)scale(0.1 -0.1)">
      <use xlink:href="#DejaVuSans-68"/>
      <use x="77.001953" xlink:href="#DejaVuSans-101"/>
      <use x="138.525391" xlink:href="#DejaVuSans-99"/>
      <use x="193.505859" xlink:href="#DejaVuSans-114"/>
      <use x="232.369141" xlink:href="#DejaVuSans-101"/>
      <use x="293.892578" xlink:href="#DejaVuSans-97"/>
      <use x="355.171875" xlink:href="#DejaVuSans-115"/>
      <use x="407.271484" xlink:href="#DejaVuSans-101"/>
      <use x="468.794922" xlink:href="#DejaVuSans-100"/>
      <use x="532.271484" xlink:href="#DejaVuSans-32"/>
      <use x="564.058594" xlink:href="#DejaVuSans-101"/>
      <use x="623.832031" xlink:href="#DejaVuSans-120"/>
      <use x="683.011719" xlink:href="#DejaVuSans-112"/>
      <use x="746.488281" xlink:href="#DejaVuSans-114"/>
      <use x="785.351562" xlink:href="#DejaVuSans-101"/>
      <use x="846.875" xlink:href="#DejaVuSans-115"/>
      <use x="898.974609" xlink:href="#DejaVuSans-115"/>
      <use x="951.074219" xlink:href="#DejaVuSans-105"/>
      <use x="978.857422" xlink:href="#DejaVuSans-111"/>
      <use x="1040.039062" xlink:href="#DejaVuSans-110"/>
      <use x="1103.417969" xlink:href="#DejaVuSans-32"/>
      <use x="1135.205078" xlink:href="#DejaVuSans-105"/>
      <use x="1162.988281" xlink:href="#DejaVuSans-110"/>
      <use x="1226.367188" xlink:href="#DejaVuSans-32"/>
      <use x="1258.154297" xlink:href="#DejaVuSans-65"/>
      <use x="1326.5625" xlink:href="#DejaVuSans-83"/>
      <use x="1390.039062" xlink:href="#DejaVuSans-43"/>
     </g>
    </g>
    <g id="patch_55">
     <path d="M 829.136719 149.634687 
L 849.136719 149.634687 
L 849.136719 142.634687 
L 829.136719 142.634687 
z
" style="fill:#ff0000;stroke:#ff0000;stroke-linejoin:miter;"/>
    </g>
    <g id="text_40">
     <!-- Increased expression in AS+ -->
     <g transform="translate(857.136719 149.634687)scale(0.1 -0.1)">
      <use xlink:href="#DejaVuSans-73"/>
      <use x="29.492188" xlink:href="#DejaVuSans-110"/>
      <use x="92.871094" xlink:href="#DejaVuSans-99"/>
      <use x="147.851562" xlink:href="#DejaVuSans-114"/>
      <use x="186.714844" xlink:href="#DejaVuSans-101"/>
      <use x="248.238281" xlink:href="#DejaVuSans-97"/>
      <use x="309.517578" xlink:href="#DejaVuSans-115"/>
      <use x="361.617188" xlink:href="#DejaVuSans-101"/>
      <use x="423.140625" xlink:href="#DejaVuSans-100"/>
      <use x="486.617188" xlink:href="#DejaVuSans-32"/>
      <use x="518.404297" xlink:href="#DejaVuSans-101"/>
      <use x="578.177734" xlink:href="#DejaVuSans-120"/>
      <use x="637.357422" xlink:href="#DejaVuSans-112"/>
      <use x="700.833984" xlink:href="#DejaVuSans-114"/>
      <use x="739.697266" xlink:href="#DejaVuSans-101"/>
      <use x="801.220703" xlink:href="#DejaVuSans-115"/>
      <use x="853.320312" xlink:href="#DejaVuSans-115"/>
      <use x="905.419922" xlink:href="#DejaVuSans-105"/>
      <use x="933.203125" xlink:href="#DejaVuSans-111"/>
      <use x="994.384766" xlink:href="#DejaVuSans-110"/>
      <use x="1057.763672" xlink:href="#DejaVuSans-32"/>
      <use x="1089.550781" xlink:href="#DejaVuSans-105"/>
      <use x="1117.333984" xlink:href="#DejaVuSans-110"/>
      <use x="1180.712891" xlink:href="#DejaVuSans-32"/>
      <use x="1212.5" xlink:href="#DejaVuSans-65"/>
      <use x="1280.908203" xlink:href="#DejaVuSans-83"/>
      <use x="1344.384766" xlink:href="#DejaVuSans-43"/>
     </g>
    </g>
   </g>
  </g>
 </g>
 <defs>
  <clipPath id="pe090736152">
   <rect height="665.28" width="892.8" x="144" y="103.68"/>
  </clipPath>
 </defs>
</svg>
