<?xml version="1.0" encoding="utf-8" standalone="no"?>
<!DOCTYPE svg PUBLIC "-//W3C//DTD SVG 1.1//EN"
  "http://www.w3.org/Graphics/SVG/1.1/DTD/svg11.dtd">
<!-- Created with matplotlib (https://matplotlib.org/) -->
<svg height="576pt" version="1.1" viewBox="0 0 864 576" width="864pt" xmlns="http://www.w3.org/2000/svg" xmlns:xlink="http://www.w3.org/1999/xlink">
 <metadata>
  <rdf:RDF xmlns:cc="http://creativecommons.org/ns#" xmlns:dc="http://purl.org/dc/elements/1.1/" xmlns:rdf="http://www.w3.org/1999/02/22-rdf-syntax-ns#">
   <cc:Work>
    <dc:type rdf:resource="http://purl.org/dc/dcmitype/StillImage"/>
    <dc:date>2024-04-26T13:38:11.769517</dc:date>
    <dc:format>image/svg+xml</dc:format>
    <dc:creator>
     <cc:Agent>
      <dc:title>Matplotlib v3.3.1, https://matplotlib.org/</dc:title>
     </cc:Agent>
    </dc:creator>
   </cc:Work>
  </rdf:RDF>
 </metadata>
 <defs>
  <style type="text/css">*{stroke-linecap:butt;stroke-linejoin:round;}</style>
 </defs>
 <g id="figure_1">
  <g id="patch_1">
   <path d="M 0 576 
L 864 576 
L 864 0 
L 0 0 
z
" style="fill:#ffffff;"/>
  </g>
  <g id="axes_1">
   <g id="patch_2">
    <path clip-path="url(#p15acd79d9c)" d="M 645.962217 422.748245 
Q 678.298917 401.110779 709.706414 380.09507 
" style="fill:none;stroke:#000000;stroke-linecap:round;"/>
    <path clip-path="url(#p15acd79d9c)" d="M 705.269763 380.657329 
L 709.706414 380.09507 
L 707.494231 383.981746 
L 705.269763 380.657329 
z
" style="stroke:#000000;stroke-linecap:round;"/>
   </g>
   <g id="patch_3">
    <path clip-path="url(#p15acd79d9c)" d="M 189.942741 293.620806 
Q 213.955858 358.052207 237.578527 421.435967 
" style="fill:none;stroke:#000000;stroke-linecap:round;"/>
    <path clip-path="url(#p15acd79d9c)" d="M 238.055693 416.98936 
L 237.578527 421.435967 
L 234.307541 418.386269 
L 238.055693 416.98936 
z
" style="stroke:#000000;stroke-linecap:round;"/>
   </g>
   <g id="patch_4">
    <path clip-path="url(#p15acd79d9c)" d="M 190.280179 277.52028 
Q 215.836955 216.832914 240.959809 157.175942 
" style="fill:none;stroke:#000000;stroke-linecap:round;"/>
    <path clip-path="url(#p15acd79d9c)" d="M 237.564139 160.08617 
L 240.959809 157.175942 
L 241.250589 161.638615 
L 237.564139 160.08617 
z
" style="stroke:#000000;stroke-linecap:round;"/>
   </g>
   <g id="patch_5">
    <path clip-path="url(#p15acd79d9c)" d="M 460.141228 366.871615 
Q 457.357245 370.413631 455.264156 373.076634 
" style="fill:none;stroke:#000000;stroke-linecap:round;"/>
    <path clip-path="url(#p15acd79d9c)" d="M 459.308403 371.167688 
L 455.264156 373.076634 
L 456.163547 368.69587 
L 459.308403 371.167688 
z
" style="stroke:#000000;stroke-linecap:round;"/>
   </g>
   <g id="patch_6">
    <path clip-path="url(#p15acd79d9c)" d="M 440.616751 381.741841 
Q 381.262429 388.501485 323.018961 395.134617 
" style="fill:none;stroke:#000000;stroke-linecap:round;"/>
    <path clip-path="url(#p15acd79d9c)" d="M 327.21958 396.669152 
L 323.018961 395.134617 
L 326.766961 392.694843 
L 327.21958 396.669152 
z
" style="stroke:#000000;stroke-linecap:round;"/>
   </g>
   <g id="patch_7">
    <path clip-path="url(#p15acd79d9c)" d="M 452.152796 372.609942 
Q 466.068173 333.881396 479.605498 296.205026 
" style="fill:none;stroke:#000000;stroke-linecap:round;"/>
    <path clip-path="url(#p15acd79d9c)" d="M 476.370744 299.293127 
L 479.605498 296.205026 
L 480.135126 300.64569 
L 476.370744 299.293127 
z
" style="stroke:#000000;stroke-linecap:round;"/>
   </g>
   <g id="patch_8">
    <path clip-path="url(#p15acd79d9c)" d="M 280.498481 298.826431 
Q 261.989288 360.563895 243.801167 421.230419 
" style="fill:none;stroke:#000000;stroke-linecap:round;"/>
    <path clip-path="url(#p15acd79d9c)" d="M 246.865628 417.973261 
L 243.801167 421.230419 
L 243.034118 416.824555 
L 246.865628 417.973261 
z
" style="stroke:#000000;stroke-linecap:round;"/>
   </g>
   <g id="patch_9">
    <path clip-path="url(#p15acd79d9c)" d="M 280.739902 282.166324 
Q 263.869593 219.348282 247.289266 157.610014 
" style="fill:none;stroke:#000000;stroke-linecap:round;"/>
    <path clip-path="url(#p15acd79d9c)" d="M 246.39518 161.991865 
L 247.289266 157.610014 
L 250.258295 160.954393 
L 246.39518 161.991865 
z
" style="stroke:#000000;stroke-linecap:round;"/>
   </g>
   <g id="patch_10">
    <path clip-path="url(#p15acd79d9c)" d="M 401.989385 338.658806 
Q 387.901499 402.177784 374.055698 464.605252 
" style="fill:none;stroke:#000000;stroke-linecap:round;"/>
    <path clip-path="url(#p15acd79d9c)" d="M 376.874365 461.133204 
L 374.055698 464.605252 
L 372.96926 460.26709 
L 376.874365 461.133204 
z
" style="stroke:#000000;stroke-linecap:round;"/>
   </g>
   <g id="patch_11">
    <path clip-path="url(#p15acd79d9c)" d="M 304.97777 308.202382 
Q 381.114804 332.80071 456.18795 357.055318 
" style="fill:none;stroke:#000000;stroke-linecap:round;"/>
    <path clip-path="url(#p15acd79d9c)" d="M 452.996537 353.922447 
L 456.18795 357.055318 
L 451.766806 357.728726 
L 452.996537 353.922447 
z
" style="stroke:#000000;stroke-linecap:round;"/>
   </g>
   <g id="patch_12">
    <path clip-path="url(#p15acd79d9c)" d="M 351.060444 388.364233 
Q 404.074159 375.252507 456.002543 362.409213 
" style="fill:none;stroke:#000000;stroke-linecap:round;"/>
    <path clip-path="url(#p15acd79d9c)" d="M 451.639357 361.428084 
L 456.002543 362.409213 
L 452.599728 365.311084 
L 451.639357 361.428084 
z
" style="stroke:#000000;stroke-linecap:round;"/>
   </g>
   <g id="patch_13">
    <path clip-path="url(#p15acd79d9c)" d="M 426.765232 223.305411 
Q 416.221872 272.52108 405.912711 320.64352 
" style="fill:none;stroke:#000000;stroke-linecap:round;"/>
    <path clip-path="url(#p15acd79d9c)" d="M 408.706239 317.151214 
L 405.912711 320.64352 
L 404.794983 316.313314 
L 408.706239 317.151214 
z
" style="stroke:#000000;stroke-linecap:round;"/>
   </g>
   <g id="patch_14">
    <path clip-path="url(#p15acd79d9c)" d="M 384.099647 266.976742 
Q 310.184514 229.571671 237.266953 192.671427 
" style="fill:none;stroke:#000000;stroke-linecap:round;"/>
    <path clip-path="url(#p15acd79d9c)" d="M 239.932917 196.262058 
L 237.266953 192.671427 
L 241.739037 192.693035 
L 239.932917 196.262058 
z
" style="stroke:#000000;stroke-linecap:round;"/>
   </g>
   <g id="patch_15">
    <path clip-path="url(#p15acd79d9c)" d="M 588.970019 349.693032 
Q 552.239114 400.907426 516.159804 451.213293 
" style="fill:none;stroke:#000000;stroke-linecap:round;"/>
    <path clip-path="url(#p15acd79d9c)" d="M 520.116247 449.128453 
L 516.159804 451.213293 
L 516.865798 446.797234 
L 520.116247 449.128453 
z
" style="stroke:#000000;stroke-linecap:round;"/>
   </g>
   <g id="patch_16">
    <path clip-path="url(#p15acd79d9c)" d="M 550.122002 347.650831 
Q 531.741638 399.327232 513.735944 449.950247 
" style="fill:none;stroke:#000000;stroke-linecap:round;"/>
    <path clip-path="url(#p15acd79d9c)" d="M 516.96076 446.85177 
L 513.735944 449.950247 
L 513.192051 445.511308 
L 516.96076 446.85177 
z
" style="stroke:#000000;stroke-linecap:round;"/>
   </g>
   <g id="patch_17">
    <path clip-path="url(#p15acd79d9c)" d="M 503.359216 346.66059 
Q 457.882681 339.137857 413.50919 331.79759 
" style="fill:none;stroke:#000000;stroke-linecap:round;"/>
    <path clip-path="url(#p15acd79d9c)" d="M 417.129156 334.423585 
L 413.50919 331.79759 
L 417.781965 330.477214 
L 417.129156 334.423585 
z
" style="stroke:#000000;stroke-linecap:round;"/>
   </g>
   <g id="patch_18">
    <path clip-path="url(#p15acd79d9c)" d="M 495.97284 172.918004 
Q 452.413421 142.729131 409.772922 113.177115 
" style="fill:none;stroke:#000000;stroke-linecap:round;"/>
    <path clip-path="url(#p15acd79d9c)" d="M 411.921302 117.099418 
L 409.772922 113.177115 
L 414.199792 113.811793 
L 411.921302 117.099418 
z
" style="stroke:#000000;stroke-linecap:round;"/>
   </g>
   <g id="patch_19">
    <path clip-path="url(#p15acd79d9c)" d="M 633.828497 219.280463 
Q 572.586719 199.873469 512.410741 180.804217 
" style="fill:none;stroke:#000000;stroke-linecap:round;"/>
    <path clip-path="url(#p15acd79d9c)" d="M 515.619691 183.919124 
L 512.410741 180.804217 
L 516.828036 180.106002 
L 515.619691 183.919124 
z
" style="stroke:#000000;stroke-linecap:round;"/>
   </g>
   <g id="patch_20">
    <path clip-path="url(#p15acd79d9c)" d="M 661.926808 342.850353 
Q 632.300952 342.765946 603.793126 342.684725 
" style="fill:none;stroke:#000000;stroke-linecap:round;"/>
    <path clip-path="url(#p15acd79d9c)" d="M 607.787412 344.696113 
L 603.793126 342.684725 
L 607.798808 340.696129 
L 607.787412 344.696113 
z
" style="stroke:#000000;stroke-linecap:round;"/>
   </g>
   <g id="patch_21">
    <path clip-path="url(#p15acd79d9c)" d="M 661.929678 342.625636 
Q 611.806319 341.181706 562.80053 339.769971 
" style="fill:none;stroke:#000000;stroke-linecap:round;"/>
    <path clip-path="url(#p15acd79d9c)" d="M 566.74128 341.884324 
L 562.80053 339.769971 
L 566.856462 337.885983 
L 566.74128 341.884324 
z
" style="stroke:#000000;stroke-linecap:round;"/>
   </g>
   <g id="patch_22">
    <path clip-path="url(#p15acd79d9c)" d="M 583.303473 248.791905 
Q 588.169023 291.423294 592.907794 332.943859 
" style="fill:none;stroke:#000000;stroke-linecap:round;"/>
    <path clip-path="url(#p15acd79d9c)" d="M 594.441316 328.74287 
L 592.907794 332.943859 
L 590.467116 329.196448 
L 594.441316 328.74287 
z
" style="stroke:#000000;stroke-linecap:round;"/>
   </g>
   <g id="patch_23">
    <path clip-path="url(#p15acd79d9c)" d="M 579.871052 248.495594 
Q 567.673364 289.839159 555.792051 330.110386 
" style="fill:none;stroke:#000000;stroke-linecap:round;"/>
    <path clip-path="url(#p15acd79d9c)" d="M 558.842201 326.839823 
L 555.792051 330.110386 
L 555.00569 325.707928 
L 558.842201 326.839823 
z
" style="stroke:#000000;stroke-linecap:round;"/>
   </g>
   <g id="patch_24">
    <path clip-path="url(#p15acd79d9c)" d="M 521.172041 230.125218 
Q 616.022368 220.864766 709.759953 211.712953 
" style="fill:none;stroke:#000000;stroke-linecap:round;"/>
    <path clip-path="url(#p15acd79d9c)" d="M 705.584541 210.111098 
L 709.759953 211.712953 
L 705.973222 214.092169 
L 705.584541 210.111098 
z
" style="stroke:#000000;stroke-linecap:round;"/>
   </g>
   <g id="patch_25">
    <path clip-path="url(#p15acd79d9c)" d="M 504.109375 232.8793 
Q 394.137047 257.786321 285.255137 282.446379 
" style="fill:none;stroke:#000000;stroke-linecap:round;"/>
    <path clip-path="url(#p15acd79d9c)" d="M 289.598112 283.513416 
L 285.255137 282.446379 
L 288.714552 279.612221 
L 289.598112 283.513416 
z
" style="stroke:#000000;stroke-linecap:round;"/>
   </g>
   <g id="patch_26">
    <path clip-path="url(#p15acd79d9c)" d="M 258.07985 433.356677 
Q 220.844353 407.550795 184.527777 382.381767 
" style="fill:none;stroke:#000000;stroke-linecap:round;"/>
    <path clip-path="url(#p15acd79d9c)" d="M 186.676172 386.304063 
L 184.527777 382.381767 
L 188.95465 383.016429 
L 186.676172 386.304063 
z
" style="stroke:#000000;stroke-linecap:round;"/>
   </g>
   <g id="patch_27">
    <path clip-path="url(#p15acd79d9c)" d="M 282.974727 289.335398 
Q 293.173185 295.984811 302.435092 302.023591 
" style="fill:none;stroke:#000000;stroke-linecap:round;"/>
    <path clip-path="url(#p15acd79d9c)" d="M 300.176719 298.163571 
L 302.435092 302.023591 
L 297.992052 301.514277 
L 300.176719 298.163571 
z
" style="stroke:#000000;stroke-linecap:round;"/>
   </g>
   <g id="patch_28">
    <path clip-path="url(#p15acd79d9c)" d="M 272.78287 292.749182 
Q 266.190246 311.02321 259.977033 328.245551 
" style="fill:none;stroke:#000000;stroke-linecap:round;"/>
    <path clip-path="url(#p15acd79d9c)" d="M 263.215773 325.161632 
L 259.977033 328.245551 
L 259.453142 323.804207 
L 263.215773 325.161632 
z
" style="stroke:#000000;stroke-linecap:round;"/>
   </g>
   <g id="patch_29">
    <path clip-path="url(#p15acd79d9c)" d="M 277.720241 293.029827 
Q 286.103447 328.348653 294.228453 362.579667 
" style="fill:none;stroke:#000000;stroke-linecap:round;"/>
    <path clip-path="url(#p15acd79d9c)" d="M 295.250622 358.225914 
L 294.228453 362.579667 
L 291.358751 359.14968 
L 295.250622 358.225914 
z
" style="stroke:#000000;stroke-linecap:round;"/>
   </g>
   <g id="patch_30">
    <path clip-path="url(#p15acd79d9c)" d="M 349.468307 226.976813 
Q 272.26701 254.773801 196.117637 282.192035 
" style="fill:none;stroke:#000000;stroke-linecap:round;"/>
    <path clip-path="url(#p15acd79d9c)" d="M 200.558653 282.718702 
L 196.117637 282.192035 
L 199.20358 278.955222 
L 200.558653 282.718702 
z
" style="stroke:#000000;stroke-linecap:round;"/>
   </g>
   <g id="patch_31">
    <path clip-path="url(#p15acd79d9c)" d="M 344.993727 348.625208 
Q 269.977877 318.670898 196.000342 289.131194 
" style="fill:none;stroke:#000000;stroke-linecap:round;"/>
    <path clip-path="url(#p15acd79d9c)" d="M 198.973466 292.471933 
L 196.000342 289.131194 
L 200.456808 288.757138 
L 198.973466 292.471933 
z
" style="stroke:#000000;stroke-linecap:round;"/>
   </g>
   <g id="patch_32">
    <path clip-path="url(#p15acd79d9c)" d="M 657.162869 426.170529 
Q 652.282514 426.540298 648.516998 426.825599 
" style="fill:none;stroke:#000000;stroke-linecap:round;"/>
    <path clip-path="url(#p15acd79d9c)" d="M 652.656666 428.517682 
L 648.516998 426.825599 
L 652.354465 424.529114 
L 652.656666 428.517682 
z
" style="stroke:#000000;stroke-linecap:round;"/>
   </g>
   <g id="patch_33">
    <path clip-path="url(#p15acd79d9c)" d="M 453.104574 235.847322 
Q 543.277726 229.191232 632.335877 222.617445 
" style="fill:none;stroke:#000000;stroke-linecap:round;"/>
    <path clip-path="url(#p15acd79d9c)" d="M 628.199501 220.917329 
L 632.335877 222.617445 
L 628.493959 224.906476 
L 628.199501 220.917329 
z
" style="stroke:#000000;stroke-linecap:round;"/>
   </g>
   <g id="patch_34">
    <path clip-path="url(#p15acd79d9c)" d="M 436.153639 238.930569 
Q 374.734469 257.002053 314.38787 274.757953 
" style="fill:none;stroke:#000000;stroke-linecap:round;"/>
    <path clip-path="url(#p15acd79d9c)" d="M 318.789747 275.547555 
L 314.38787 274.757953 
L 317.660678 271.710212 
L 318.789747 275.547555 
z
" style="stroke:#000000;stroke-linecap:round;"/>
   </g>
   <g id="patch_35">
    <path clip-path="url(#p15acd79d9c)" d="M 436.252796 239.233603 
Q 363.723719 263.507922 292.254872 287.4274 
" style="fill:none;stroke:#000000;stroke-linecap:round;"/>
    <path clip-path="url(#p15acd79d9c)" d="M 296.682826 288.054475 
L 292.254872 287.4274 
L 295.413305 284.261282 
L 296.682826 288.054475 
z
" style="stroke:#000000;stroke-linecap:round;"/>
   </g>
   <g id="patch_36">
    <path clip-path="url(#p15acd79d9c)" d="M 445.099104 247.570854 
Q 539.299466 235.293851 632.39117 223.161338 
" style="fill:none;stroke:#000000;stroke-linecap:round;"/>
    <path clip-path="url(#p15acd79d9c)" d="M 628.166243 221.695053 
L 632.39117 223.161338 
L 628.683186 225.661508 
L 628.166243 221.695053 
z
" style="stroke:#000000;stroke-linecap:round;"/>
   </g>
   <g id="patch_37">
    <path clip-path="url(#p15acd79d9c)" d="M 428.057961 250.543387 
Q 370.764509 263.102885 314.563159 275.422979 
" style="fill:none;stroke:#000000;stroke-linecap:round;"/>
    <path clip-path="url(#p15acd79d9c)" d="M 318.898638 276.520074 
L 314.563159 275.422979 
L 318.042122 272.612853 
L 318.898638 276.520074 
z
" style="stroke:#000000;stroke-linecap:round;"/>
   </g>
   <g id="patch_38">
    <path clip-path="url(#p15acd79d9c)" d="M 428.159784 250.966405 
Q 359.748462 269.610039 292.415835 287.959704 
" style="fill:none;stroke:#000000;stroke-linecap:round;"/>
    <path clip-path="url(#p15acd79d9c)" d="M 296.800958 288.837597 
L 292.415835 287.959704 
L 295.749223 284.978342 
L 296.800958 288.837597 
z
" style="stroke:#000000;stroke-linecap:round;"/>
   </g>
   <g id="patch_39">
    <path clip-path="url(#p15acd79d9c)" d="M 460.783787 258.405697 
Q 547.190443 241.006491 632.501065 223.827987 
" style="fill:none;stroke:#000000;stroke-linecap:round;"/>
    <path clip-path="url(#p15acd79d9c)" d="M 628.184971 222.656949 
L 632.501065 223.827987 
L 628.974578 226.578239 
L 628.184971 222.656949 
z
" style="stroke:#000000;stroke-linecap:round;"/>
   </g>
   <g id="patch_40">
    <path clip-path="url(#p15acd79d9c)" d="M 443.697126 261.130843 
Q 378.656175 268.815596 314.725534 276.369163 
" style="fill:none;stroke:#000000;stroke-linecap:round;"/>
    <path clip-path="url(#p15acd79d9c)" d="M 318.932576 277.886002 
L 314.725534 276.369163 
L 318.463231 273.913633 
L 318.932576 277.886002 
z
" style="stroke:#000000;stroke-linecap:round;"/>
   </g>
   <g id="patch_41">
    <path clip-path="url(#p15acd79d9c)" d="M 443.772794 261.645943 
Q 367.640936 275.32221 292.609497 288.800797 
" style="fill:none;stroke:#000000;stroke-linecap:round;"/>
    <path clip-path="url(#p15acd79d9c)" d="M 296.900096 290.062052 
L 292.609497 288.800797 
L 296.19286 286.125071 
L 296.900096 290.062052 
z
" style="stroke:#000000;stroke-linecap:round;"/>
   </g>
   <g id="patch_42">
    <path clip-path="url(#p15acd79d9c)" d="M 301.66906 285.507826 
Q 273.002135 354.056521 244.766569 421.573747 
" style="fill:none;stroke:#000000;stroke-linecap:round;"/>
    <path clip-path="url(#p15acd79d9c)" d="M 248.154994 418.655086 
L 244.766569 421.573747 
L 244.464695 417.111811 
L 248.154994 418.655086 
z
" style="stroke:#000000;stroke-linecap:round;"/>
   </g>
   <g id="patch_43">
    <path clip-path="url(#p15acd79d9c)" d="M 301.353223 269.665543 
Q 274.881659 212.841297 248.882214 157.030511 
" style="fill:none;stroke:#000000;stroke-linecap:round;"/>
    <path clip-path="url(#p15acd79d9c)" d="M 248.75839 161.500932 
L 248.882214 157.030511 
L 252.384257 159.811823 
L 248.75839 161.500932 
z
" style="stroke:#000000;stroke-linecap:round;"/>
   </g>
   <g id="patch_44">
    <path clip-path="url(#p15acd79d9c)" d="M 310.914211 387.914764 
Q 298.143718 343.384397 285.681432 299.928743 
" style="fill:none;stroke:#000000;stroke-linecap:round;"/>
    <path clip-path="url(#p15acd79d9c)" d="M 284.861605 304.325092 
L 285.681432 299.928743 
L 288.706615 303.222413 
L 284.861605 304.325092 
z
" style="stroke:#000000;stroke-linecap:round;"/>
   </g>
   <g id="patch_45">
    <path clip-path="url(#p15acd79d9c)" d="M 474.250569 287.157261 
Q 382.947791 288.767078 292.762873 290.357185 
" style="fill:none;stroke:#000000;stroke-linecap:round;"/>
    <path clip-path="url(#p15acd79d9c)" d="M 296.797509 292.286359 
L 292.762873 290.357185 
L 296.726993 288.28698 
L 296.797509 292.286359 
z
" style="stroke:#000000;stroke-linecap:round;"/>
   </g>
   <g id="patch_46">
    <path clip-path="url(#p15acd79d9c)" d="M 305.013355 313.962498 
Q 269.114886 356.175871 233.940711 397.537539 
" style="fill:none;stroke:#000000;stroke-linecap:round;"/>
    <path clip-path="url(#p15acd79d9c)" d="M 238.055595 395.786046 
L 233.940711 397.537539 
L 235.008447 393.194736 
L 238.055595 395.786046 
z
" style="stroke:#000000;stroke-linecap:round;"/>
   </g>
   <g id="patch_47">
    <path clip-path="url(#p15acd79d9c)" d="M 302.143991 309.107498 
Q 238.365703 322.222154 175.682536 335.111621 
" style="fill:none;stroke:#000000;stroke-linecap:round;"/>
    <path clip-path="url(#p15acd79d9c)" d="M 180.00339 336.264974 
L 175.682536 335.111621 
L 179.197731 332.34695 
L 180.00339 336.264974 
z
" style="stroke:#000000;stroke-linecap:round;"/>
   </g>
   <g id="patch_48">
    <path clip-path="url(#p15acd79d9c)" d="M 253.237362 345.398021 
Q 242.132363 371.215254 231.46914 396.005435 
" style="fill:none;stroke:#000000;stroke-linecap:round;"/>
    <path clip-path="url(#p15acd79d9c)" d="M 234.886928 393.121214 
L 231.46914 396.005435 
L 231.212437 391.540672 
L 234.886928 393.121214 
z
" style="stroke:#000000;stroke-linecap:round;"/>
   </g>
   <g id="patch_49">
    <path clip-path="url(#p15acd79d9c)" d="M 248.000009 337.411096 
Q 211.384034 337.263451 175.886084 337.120314 
" style="fill:none;stroke:#000000;stroke-linecap:round;"/>
    <path clip-path="url(#p15acd79d9c)" d="M 179.877987 339.136426 
L 175.886084 337.120314 
L 179.894116 335.136459 
L 179.877987 339.136426 
z
" style="stroke:#000000;stroke-linecap:round;"/>
   </g>
   <g id="patch_50">
    <path clip-path="url(#p15acd79d9c)" d="M 288.672179 375.830073 
Q 262.047037 388.542455 236.430828 400.773114 
" style="fill:none;stroke:#000000;stroke-linecap:round;"/>
    <path clip-path="url(#p15acd79d9c)" d="M 240.902223 400.854484 
L 236.430828 400.773114 
L 239.178761 397.244819 
L 240.902223 400.854484 
z
" style="stroke:#000000;stroke-linecap:round;"/>
   </g>
   <g id="patch_51">
    <path clip-path="url(#p15acd79d9c)" d="M 288.120092 369.851066 
Q 231.296382 354.589546 175.55244 339.618028 
" style="fill:none;stroke:#000000;stroke-linecap:round;"/>
    <path clip-path="url(#p15acd79d9c)" d="M 178.896768 342.587113 
L 175.55244 339.618028 
L 179.934306 338.724017 
L 178.896768 342.587113 
z
" style="stroke:#000000;stroke-linecap:round;"/>
   </g>
   <g id="patch_52">
    <path clip-path="url(#p15acd79d9c)" d="M 273.187086 268.28081 
Q 334.611832 297.386793 395.026232 326.014026 
" style="fill:none;stroke:#000000;stroke-linecap:round;"/>
    <path clip-path="url(#p15acd79d9c)" d="M 392.267924 322.493837 
L 395.026232 326.014026 
L 390.555096 326.108559 
L 392.267924 322.493837 
z
" style="stroke:#000000;stroke-linecap:round;"/>
   </g>
   <g id="patch_53">
    <path clip-path="url(#p15acd79d9c)" d="M 278.531308 329.991247 
Q 277.393711 311.621266 276.325218 294.367182 
" style="fill:none;stroke:#000000;stroke-linecap:round;"/>
    <path clip-path="url(#p15acd79d9c)" d="M 274.576276 298.483152 
L 276.325218 294.367182 
L 278.568628 298.235917 
L 274.576276 298.483152 
z
" style="stroke:#000000;stroke-linecap:round;"/>
   </g>
   <g id="patch_54">
    <path clip-path="url(#p15acd79d9c)" d="M 269.072084 200.868097 
Q 272.053604 238.419467 274.946632 274.856311 
" style="fill:none;stroke:#000000;stroke-linecap:round;"/>
    <path clip-path="url(#p15acd79d9c)" d="M 276.62376 270.710562 
L 274.946632 274.856311 
L 272.636309 271.027159 
L 276.62376 270.710562 
z
" style="stroke:#000000;stroke-linecap:round;"/>
   </g>
   <g id="patch_55">
    <path clip-path="url(#p15acd79d9c)" d="M 184.353931 226.772404 
Q 226.377693 253.372613 267.456767 279.374854 
" style="fill:none;stroke:#000000;stroke-linecap:round;"/>
    <path clip-path="url(#p15acd79d9c)" d="M 265.14663 275.545589 
L 267.456767 279.374854 
L 263.007273 278.925405 
L 265.14663 275.545589 
z
" style="stroke:#000000;stroke-linecap:round;"/>
   </g>
   <g id="PathCollection_1">
    <defs>
     <path d="M 0 8.660254 
C 2.296726 8.660254 4.499694 7.747755 6.123724 6.123724 
C 7.747755 4.499694 8.660254 2.296726 8.660254 -0 
C 8.660254 -2.296726 7.747755 -4.499694 6.123724 -6.123724 
C 4.499694 -7.747755 2.296726 -8.660254 0 -8.660254 
C -2.296726 -8.660254 -4.499694 -7.747755 -6.123724 -6.123724 
C -7.747755 -4.499694 -8.660254 -2.296726 -8.660254 0 
C -8.660254 2.296726 -7.747755 4.499694 -6.123724 6.123724 
C -4.499694 7.747755 -2.296726 8.660254 0 8.660254 
z
" id="C0_0_96f149c7f0"/>
    </defs>
    <g clip-path="url(#p15acd79d9c)">
     <use style="fill:#ff0000;stroke:#ff0000;" x="638.764402" xlink:href="#C0_0_96f149c7f0" y="427.564522"/>
    </g>
    <g clip-path="url(#p15acd79d9c)">
     <use style="fill:#008000;stroke:#008000;" x="186.917851" xlink:href="#C0_0_96f149c7f0" y="285.504497"/>
    </g>
    <g clip-path="url(#p15acd79d9c)">
     <use style="fill:#ff0000;stroke:#ff0000;" x="465.493659" xlink:href="#C0_0_96f149c7f0" y="360.061803"/>
    </g>
    <g clip-path="url(#p15acd79d9c)">
     <use style="fill:#ff0000;stroke:#ff0000;" x="449.223857" xlink:href="#C0_0_96f149c7f0" y="380.76161"/>
    </g>
    <g clip-path="url(#p15acd79d9c)">
     <use style="fill:#ff0000;stroke:#ff0000;" x="717.831785" xlink:href="#C0_0_96f149c7f0" y="374.658137"/>
    </g>
    <g clip-path="url(#p15acd79d9c)">
     <use style="fill:#008000;stroke:#008000;" x="282.985921" xlink:href="#C0_0_96f149c7f0" y="290.529569"/>
    </g>
    <g clip-path="url(#p15acd79d9c)">
     <use style="fill:#ff0000;stroke:#ff0000;" x="403.864968" xlink:href="#C0_0_96f149c7f0" y="330.202242"/>
    </g>
    <g clip-path="url(#p15acd79d9c)">
     <use style="fill:#ff0000;stroke:#ff0000;" x="296.735027" xlink:href="#C0_0_96f149c7f0" y="305.53932"/>
    </g>
    <g clip-path="url(#p15acd79d9c)">
     <use style="fill:#ff0000;stroke:#ff0000;" x="342.651805" xlink:href="#C0_0_96f149c7f0" y="390.443917"/>
    </g>
    <g clip-path="url(#p15acd79d9c)">
     <use style="fill:#ff0000;stroke:#ff0000;" x="428.579122" xlink:href="#C0_0_96f149c7f0" y="214.838301"/>
    </g>
    <g clip-path="url(#p15acd79d9c)">
     <use style="fill:#ff0000;stroke:#ff0000;" x="391.825765" xlink:href="#C0_0_96f149c7f0" y="270.886577"/>
    </g>
    <g clip-path="url(#p15acd79d9c)">
     <use style="fill:#ff0000;stroke:#ff0000;" x="594.016347" xlink:href="#C0_0_96f149c7f0" y="342.65687"/>
    </g>
    <g clip-path="url(#p15acd79d9c)">
     <use style="fill:#ff0000;stroke:#ff0000;" x="553.025243" xlink:href="#C0_0_96f149c7f0" y="339.488369"/>
    </g>
    <g clip-path="url(#p15acd79d9c)">
     <use style="fill:#ff0000;stroke:#ff0000;" x="511.901801" xlink:href="#C0_0_96f149c7f0" y="348.073705"/>
    </g>
    <g clip-path="url(#p15acd79d9c)">
     <use style="fill:#ff0000;stroke:#ff0000;" x="503.089999" xlink:href="#C0_0_96f149c7f0" y="177.850554"/>
    </g>
    <g clip-path="url(#p15acd79d9c)">
     <use style="fill:#ff0000;stroke:#ff0000;" x="401.736215" xlink:href="#C0_0_96f149c7f0" y="107.607273"/>
    </g>
    <g clip-path="url(#p15acd79d9c)">
     <use style="fill:#ff0000;stroke:#ff0000;" x="642.087407" xlink:href="#C0_0_96f149c7f0" y="221.897641"/>
    </g>
    <g clip-path="url(#p15acd79d9c)">
     <use style="fill:#ff0000;stroke:#ff0000;" x="510.459971" xlink:href="#C0_0_96f149c7f0" y="459.160647"/>
    </g>
    <g clip-path="url(#p15acd79d9c)">
     <use style="fill:#ff0000;stroke:#ff0000;" x="670.586783" xlink:href="#C0_0_96f149c7f0" y="342.875026"/>
    </g>
    <g clip-path="url(#p15acd79d9c)">
     <use style="fill:#ff0000;stroke:#ff0000;" x="582.321659" xlink:href="#C0_0_96f149c7f0" y="240.189363"/>
    </g>
    <g clip-path="url(#p15acd79d9c)">
     <use style="fill:#ff0000;stroke:#ff0000;" x="512.554829" xlink:href="#C0_0_96f149c7f0" y="230.966536"/>
    </g>
    <g clip-path="url(#p15acd79d9c)">
     <use style="fill:#ff0000;stroke:#ff0000;" x="719.494215" xlink:href="#C0_0_96f149c7f0" y="210.762575"/>
    </g>
    <g clip-path="url(#p15acd79d9c)">
     <use style="fill:#ff0000;stroke:#ff0000;" x="265.19685" xlink:href="#C0_0_96f149c7f0" y="438.28908"/>
    </g>
    <g clip-path="url(#p15acd79d9c)">
     <use style="fill:#ff0000;stroke:#ff0000;" x="176.490177" xlink:href="#C0_0_96f149c7f0" y="376.811347"/>
    </g>
    <g clip-path="url(#p15acd79d9c)">
     <use style="fill:#ff0000;stroke:#ff0000;" x="275.720724" xlink:href="#C0_0_96f149c7f0" y="284.605775"/>
    </g>
    <g clip-path="url(#p15acd79d9c)">
     <use style="fill:#ff0000;stroke:#ff0000;" x="371.938162" xlink:href="#C0_0_96f149c7f0" y="474.152727"/>
    </g>
    <g clip-path="url(#p15acd79d9c)">
     <use style="fill:#ff0000;stroke:#ff0000;" x="228.543308" xlink:href="#C0_0_96f149c7f0" y="188.256789"/>
    </g>
    <g clip-path="url(#p15acd79d9c)">
     <use style="fill:#008000;stroke:#008000;" x="357.618361" xlink:href="#C0_0_96f149c7f0" y="224.042316"/>
    </g>
    <g clip-path="url(#p15acd79d9c)">
     <use style="fill:#008000;stroke:#008000;" x="353.036553" xlink:href="#C0_0_96f149c7f0" y="351.83676"/>
    </g>
    <g clip-path="url(#p15acd79d9c)">
     <use style="fill:#008000;stroke:#008000;" x="665.799423" xlink:href="#C0_0_96f149c7f0" y="425.516165"/>
    </g>
    <g clip-path="url(#p15acd79d9c)">
     <use style="fill:#ff0000;stroke:#ff0000;" x="444.465238" xlink:href="#C0_0_96f149c7f0" y="236.485031"/>
    </g>
    <g clip-path="url(#p15acd79d9c)">
     <use style="fill:#ff0000;stroke:#ff0000;" x="436.513665" xlink:href="#C0_0_96f149c7f0" y="248.689783"/>
    </g>
    <g clip-path="url(#p15acd79d9c)">
     <use style="fill:#ff0000;stroke:#ff0000;" x="452.295633" xlink:href="#C0_0_96f149c7f0" y="260.114908"/>
    </g>
    <g clip-path="url(#p15acd79d9c)">
     <use style="fill:#ff0000;stroke:#ff0000;" x="240.992912" xlink:href="#C0_0_96f149c7f0" y="430.597361"/>
    </g>
    <g clip-path="url(#p15acd79d9c)">
     <use style="fill:#ff0000;stroke:#ff0000;" x="244.753423" xlink:href="#C0_0_96f149c7f0" y="148.167588"/>
    </g>
    <g clip-path="url(#p15acd79d9c)">
     <use style="fill:#ff0000;stroke:#ff0000;" x="305.010815" xlink:href="#C0_0_96f149c7f0" y="277.516982"/>
    </g>
    <g clip-path="url(#p15acd79d9c)">
     <use style="fill:#ff0000;stroke:#ff0000;" x="313.302091" xlink:href="#C0_0_96f149c7f0" y="396.241235"/>
    </g>
    <g clip-path="url(#p15acd79d9c)">
     <use style="fill:#ff0000;stroke:#ff0000;" x="482.911276" xlink:href="#C0_0_96f149c7f0" y="287.004559"/>
    </g>
    <g clip-path="url(#p15acd79d9c)">
     <use style="fill:#ff0000;stroke:#ff0000;" x="310.625154" xlink:href="#C0_0_96f149c7f0" y="307.363527"/>
    </g>
    <g clip-path="url(#p15acd79d9c)">
     <use style="fill:#ff0000;stroke:#ff0000;" x="256.657833" xlink:href="#C0_0_96f149c7f0" y="337.446007"/>
    </g>
    <g clip-path="url(#p15acd79d9c)">
     <use style="fill:#ff0000;stroke:#ff0000;" x="296.48781" xlink:href="#C0_0_96f149c7f0" y="372.098439"/>
    </g>
    <g clip-path="url(#p15acd79d9c)">
     <use style="fill:#ff0000;stroke:#ff0000;" x="227.60599" xlink:href="#C0_0_96f149c7f0" y="404.986602"/>
    </g>
    <g clip-path="url(#p15acd79d9c)">
     <use style="fill:#ff0000;stroke:#ff0000;" x="166.105785" xlink:href="#C0_0_96f149c7f0" y="337.080877"/>
    </g>
    <g clip-path="url(#p15acd79d9c)">
     <use style="fill:#ff0000;stroke:#ff0000;" x="265.363405" xlink:href="#C0_0_96f149c7f0" y="264.573575"/>
    </g>
    <g clip-path="url(#p15acd79d9c)">
     <use style="fill:#ff0000;stroke:#ff0000;" x="279.06655" xlink:href="#C0_0_96f149c7f0" y="338.634371"/>
    </g>
    <g clip-path="url(#p15acd79d9c)">
     <use style="fill:#ff0000;stroke:#ff0000;" x="268.386517" xlink:href="#C0_0_96f149c7f0" y="192.233574"/>
    </g>
    <g clip-path="url(#p15acd79d9c)">
     <use style="fill:#ff0000;stroke:#ff0000;" x="177.038926" xlink:href="#C0_0_96f149c7f0" y="222.142151"/>
    </g>
   </g>
   <g id="text_1">
    <g clip-path="url(#p15acd79d9c)">
     <!-- GRB2 -->
     <g transform="translate(622.012215 430.875772)scale(0.12 -0.12)">
      <defs>
       <path d="M 59.515625 10.40625 
L 59.515625 29.984375 
L 43.40625 29.984375 
L 43.40625 38.09375 
L 69.28125 38.09375 
L 69.28125 6.78125 
Q 63.578125 2.734375 56.6875 0.65625 
Q 49.8125 -1.421875 42 -1.421875 
Q 24.90625 -1.421875 15.25 8.5625 
Q 5.609375 18.5625 5.609375 36.375 
Q 5.609375 54.25 15.25 64.234375 
Q 24.90625 74.21875 42 74.21875 
Q 49.125 74.21875 55.546875 72.453125 
Q 61.96875 70.703125 67.390625 67.28125 
L 67.390625 56.78125 
Q 61.921875 61.421875 55.765625 63.765625 
Q 49.609375 66.109375 42.828125 66.109375 
Q 29.4375 66.109375 22.71875 58.640625 
Q 16.015625 51.171875 16.015625 36.375 
Q 16.015625 21.625 22.71875 14.15625 
Q 29.4375 6.6875 42.828125 6.6875 
Q 48.046875 6.6875 52.140625 7.59375 
Q 56.25 8.5 59.515625 10.40625 
z
" id="DejaVuSans-71"/>
       <path d="M 44.390625 34.1875 
Q 47.5625 33.109375 50.5625 29.59375 
Q 53.5625 26.078125 56.59375 19.921875 
L 66.609375 0 
L 56 0 
L 46.6875 18.703125 
Q 43.0625 26.03125 39.671875 28.421875 
Q 36.28125 30.8125 30.421875 30.8125 
L 19.671875 30.8125 
L 19.671875 0 
L 9.8125 0 
L 9.8125 72.90625 
L 32.078125 72.90625 
Q 44.578125 72.90625 50.734375 67.671875 
Q 56.890625 62.453125 56.890625 51.90625 
Q 56.890625 45.015625 53.6875 40.46875 
Q 50.484375 35.9375 44.390625 34.1875 
z
M 19.671875 64.796875 
L 19.671875 38.921875 
L 32.078125 38.921875 
Q 39.203125 38.921875 42.84375 42.21875 
Q 46.484375 45.515625 46.484375 51.90625 
Q 46.484375 58.296875 42.84375 61.546875 
Q 39.203125 64.796875 32.078125 64.796875 
z
" id="DejaVuSans-82"/>
       <path d="M 19.671875 34.8125 
L 19.671875 8.109375 
L 35.5 8.109375 
Q 43.453125 8.109375 47.28125 11.40625 
Q 51.125 14.703125 51.125 21.484375 
Q 51.125 28.328125 47.28125 31.5625 
Q 43.453125 34.8125 35.5 34.8125 
z
M 19.671875 64.796875 
L 19.671875 42.828125 
L 34.28125 42.828125 
Q 41.5 42.828125 45.03125 45.53125 
Q 48.578125 48.25 48.578125 53.8125 
Q 48.578125 59.328125 45.03125 62.0625 
Q 41.5 64.796875 34.28125 64.796875 
z
M 9.8125 72.90625 
L 35.015625 72.90625 
Q 46.296875 72.90625 52.390625 68.21875 
Q 58.5 63.53125 58.5 54.890625 
Q 58.5 48.1875 55.375 44.234375 
Q 52.25 40.28125 46.1875 39.3125 
Q 53.46875 37.75 57.5 32.78125 
Q 61.53125 27.828125 61.53125 20.40625 
Q 61.53125 10.640625 54.890625 5.3125 
Q 48.25 0 35.984375 0 
L 9.8125 0 
z
" id="DejaVuSans-66"/>
       <path d="M 19.1875 8.296875 
L 53.609375 8.296875 
L 53.609375 0 
L 7.328125 0 
L 7.328125 8.296875 
Q 12.9375 14.109375 22.625 23.890625 
Q 32.328125 33.6875 34.8125 36.53125 
Q 39.546875 41.84375 41.421875 45.53125 
Q 43.3125 49.21875 43.3125 52.78125 
Q 43.3125 58.59375 39.234375 62.25 
Q 35.15625 65.921875 28.609375 65.921875 
Q 23.96875 65.921875 18.8125 64.3125 
Q 13.671875 62.703125 7.8125 59.421875 
L 7.8125 69.390625 
Q 13.765625 71.78125 18.9375 73 
Q 24.125 74.21875 28.421875 74.21875 
Q 39.75 74.21875 46.484375 68.546875 
Q 53.21875 62.890625 53.21875 53.421875 
Q 53.21875 48.921875 51.53125 44.890625 
Q 49.859375 40.875 45.40625 35.40625 
Q 44.1875 33.984375 37.640625 27.21875 
Q 31.109375 20.453125 19.1875 8.296875 
z
" id="DejaVuSans-50"/>
      </defs>
      <use xlink:href="#DejaVuSans-71"/>
      <use x="77.490234" xlink:href="#DejaVuSans-82"/>
      <use x="146.972656" xlink:href="#DejaVuSans-66"/>
      <use x="215.576172" xlink:href="#DejaVuSans-50"/>
     </g>
    </g>
   </g>
   <g id="text_2">
    <g clip-path="url(#p15acd79d9c)">
     <!-- PRKCD -->
     <g transform="translate(166.716601 288.815747)scale(0.12 -0.12)">
      <defs>
       <path d="M 19.671875 64.796875 
L 19.671875 37.40625 
L 32.078125 37.40625 
Q 38.96875 37.40625 42.71875 40.96875 
Q 46.484375 44.53125 46.484375 51.125 
Q 46.484375 57.671875 42.71875 61.234375 
Q 38.96875 64.796875 32.078125 64.796875 
z
M 9.8125 72.90625 
L 32.078125 72.90625 
Q 44.34375 72.90625 50.609375 67.359375 
Q 56.890625 61.8125 56.890625 51.125 
Q 56.890625 40.328125 50.609375 34.8125 
Q 44.34375 29.296875 32.078125 29.296875 
L 19.671875 29.296875 
L 19.671875 0 
L 9.8125 0 
z
" id="DejaVuSans-80"/>
       <path d="M 9.8125 72.90625 
L 19.671875 72.90625 
L 19.671875 42.09375 
L 52.390625 72.90625 
L 65.09375 72.90625 
L 28.90625 38.921875 
L 67.671875 0 
L 54.6875 0 
L 19.671875 35.109375 
L 19.671875 0 
L 9.8125 0 
z
" id="DejaVuSans-75"/>
       <path d="M 64.40625 67.28125 
L 64.40625 56.890625 
Q 59.421875 61.53125 53.78125 63.8125 
Q 48.140625 66.109375 41.796875 66.109375 
Q 29.296875 66.109375 22.65625 58.46875 
Q 16.015625 50.828125 16.015625 36.375 
Q 16.015625 21.96875 22.65625 14.328125 
Q 29.296875 6.6875 41.796875 6.6875 
Q 48.140625 6.6875 53.78125 8.984375 
Q 59.421875 11.28125 64.40625 15.921875 
L 64.40625 5.609375 
Q 59.234375 2.09375 53.4375 0.328125 
Q 47.65625 -1.421875 41.21875 -1.421875 
Q 24.65625 -1.421875 15.125 8.703125 
Q 5.609375 18.84375 5.609375 36.375 
Q 5.609375 53.953125 15.125 64.078125 
Q 24.65625 74.21875 41.21875 74.21875 
Q 47.75 74.21875 53.53125 72.484375 
Q 59.328125 70.75 64.40625 67.28125 
z
" id="DejaVuSans-67"/>
       <path d="M 19.671875 64.796875 
L 19.671875 8.109375 
L 31.59375 8.109375 
Q 46.6875 8.109375 53.6875 14.9375 
Q 60.6875 21.78125 60.6875 36.53125 
Q 60.6875 51.171875 53.6875 57.984375 
Q 46.6875 64.796875 31.59375 64.796875 
z
M 9.8125 72.90625 
L 30.078125 72.90625 
Q 51.265625 72.90625 61.171875 64.09375 
Q 71.09375 55.28125 71.09375 36.53125 
Q 71.09375 17.671875 61.125 8.828125 
Q 51.171875 0 30.078125 0 
L 9.8125 0 
z
" id="DejaVuSans-68"/>
      </defs>
      <use xlink:href="#DejaVuSans-80"/>
      <use x="60.302734" xlink:href="#DejaVuSans-82"/>
      <use x="129.785156" xlink:href="#DejaVuSans-75"/>
      <use x="189.861328" xlink:href="#DejaVuSans-67"/>
      <use x="259.685547" xlink:href="#DejaVuSans-68"/>
     </g>
    </g>
   </g>
   <g id="text_3">
    <g clip-path="url(#p15acd79d9c)">
     <!-- CRK -->
     <g transform="translate(453.200221 363.373053)scale(0.12 -0.12)">
      <use xlink:href="#DejaVuSans-67"/>
      <use x="69.824219" xlink:href="#DejaVuSans-82"/>
      <use x="139.306641" xlink:href="#DejaVuSans-75"/>
     </g>
    </g>
   </g>
   <g id="text_4">
    <g clip-path="url(#p15acd79d9c)">
     <!-- RAPGEF1 -->
     <g transform="translate(421.863857 384.07286)scale(0.12 -0.12)">
      <defs>
       <path d="M 34.1875 63.1875 
L 20.796875 26.90625 
L 47.609375 26.90625 
z
M 28.609375 72.90625 
L 39.796875 72.90625 
L 67.578125 0 
L 57.328125 0 
L 50.6875 18.703125 
L 17.828125 18.703125 
L 11.1875 0 
L 0.78125 0 
z
" id="DejaVuSans-65"/>
       <path d="M 9.8125 72.90625 
L 55.90625 72.90625 
L 55.90625 64.59375 
L 19.671875 64.59375 
L 19.671875 43.015625 
L 54.390625 43.015625 
L 54.390625 34.71875 
L 19.671875 34.71875 
L 19.671875 8.296875 
L 56.78125 8.296875 
L 56.78125 0 
L 9.8125 0 
z
" id="DejaVuSans-69"/>
       <path d="M 9.8125 72.90625 
L 51.703125 72.90625 
L 51.703125 64.59375 
L 19.671875 64.59375 
L 19.671875 43.109375 
L 48.578125 43.109375 
L 48.578125 34.8125 
L 19.671875 34.8125 
L 19.671875 0 
L 9.8125 0 
z
" id="DejaVuSans-70"/>
       <path d="M 12.40625 8.296875 
L 28.515625 8.296875 
L 28.515625 63.921875 
L 10.984375 60.40625 
L 10.984375 69.390625 
L 28.421875 72.90625 
L 38.28125 72.90625 
L 38.28125 8.296875 
L 54.390625 8.296875 
L 54.390625 0 
L 12.40625 0 
z
" id="DejaVuSans-49"/>
      </defs>
      <use xlink:href="#DejaVuSans-82"/>
      <use x="65.482422" xlink:href="#DejaVuSans-65"/>
      <use x="133.890625" xlink:href="#DejaVuSans-80"/>
      <use x="194.193359" xlink:href="#DejaVuSans-71"/>
      <use x="271.683594" xlink:href="#DejaVuSans-69"/>
      <use x="334.867188" xlink:href="#DejaVuSans-70"/>
      <use x="392.386719" xlink:href="#DejaVuSans-49"/>
     </g>
    </g>
   </g>
   <g id="text_5">
    <g clip-path="url(#p15acd79d9c)">
     <!-- PTPN11 -->
     <g transform="translate(694.807722 377.969387)scale(0.12 -0.12)">
      <defs>
       <path d="M -0.296875 72.90625 
L 61.375 72.90625 
L 61.375 64.59375 
L 35.5 64.59375 
L 35.5 0 
L 25.59375 0 
L 25.59375 64.59375 
L -0.296875 64.59375 
z
" id="DejaVuSans-84"/>
       <path d="M 9.8125 72.90625 
L 23.09375 72.90625 
L 55.421875 11.921875 
L 55.421875 72.90625 
L 64.984375 72.90625 
L 64.984375 0 
L 51.703125 0 
L 19.390625 60.984375 
L 19.390625 0 
L 9.8125 0 
z
" id="DejaVuSans-78"/>
      </defs>
      <use xlink:href="#DejaVuSans-80"/>
      <use x="60.302734" xlink:href="#DejaVuSans-84"/>
      <use x="121.386719" xlink:href="#DejaVuSans-80"/>
      <use x="181.689453" xlink:href="#DejaVuSans-78"/>
      <use x="256.494141" xlink:href="#DejaVuSans-49"/>
      <use x="320.117188" xlink:href="#DejaVuSans-49"/>
     </g>
    </g>
   </g>
   <g id="text_6">
    <g clip-path="url(#p15acd79d9c)">
     <!-- BRAF -->
     <g transform="translate(267.384984 293.840819)scale(0.12 -0.12)">
      <use xlink:href="#DejaVuSans-66"/>
      <use x="68.603516" xlink:href="#DejaVuSans-82"/>
      <use x="134.085938" xlink:href="#DejaVuSans-65"/>
      <use x="202.494141" xlink:href="#DejaVuSans-70"/>
     </g>
    </g>
   </g>
   <g id="text_7">
    <g clip-path="url(#p15acd79d9c)">
     <!-- ATF4 -->
     <g transform="translate(389.292468 333.513492)scale(0.12 -0.12)">
      <defs>
       <path d="M 37.796875 64.3125 
L 12.890625 25.390625 
L 37.796875 25.390625 
z
M 35.203125 72.90625 
L 47.609375 72.90625 
L 47.609375 25.390625 
L 58.015625 25.390625 
L 58.015625 17.1875 
L 47.609375 17.1875 
L 47.609375 0 
L 37.796875 0 
L 37.796875 17.1875 
L 4.890625 17.1875 
L 4.890625 26.703125 
z
" id="DejaVuSans-52"/>
      </defs>
      <use xlink:href="#DejaVuSans-65"/>
      <use x="60.658203" xlink:href="#DejaVuSans-84"/>
      <use x="121.742188" xlink:href="#DejaVuSans-70"/>
      <use x="179.261719" xlink:href="#DejaVuSans-52"/>
     </g>
    </g>
   </g>
   <g id="text_8">
    <g clip-path="url(#p15acd79d9c)">
     <!-- FRS2 -->
     <g transform="translate(281.488465 308.85057)scale(0.12 -0.12)">
      <defs>
       <path d="M 53.515625 70.515625 
L 53.515625 60.890625 
Q 47.90625 63.578125 42.921875 64.890625 
Q 37.9375 66.21875 33.296875 66.21875 
Q 25.25 66.21875 20.875 63.09375 
Q 16.5 59.96875 16.5 54.203125 
Q 16.5 49.359375 19.40625 46.890625 
Q 22.3125 44.4375 30.421875 42.921875 
L 36.375 41.703125 
Q 47.40625 39.59375 52.65625 34.296875 
Q 57.90625 29 57.90625 20.125 
Q 57.90625 9.515625 50.796875 4.046875 
Q 43.703125 -1.421875 29.984375 -1.421875 
Q 24.8125 -1.421875 18.96875 -0.25 
Q 13.140625 0.921875 6.890625 3.21875 
L 6.890625 13.375 
Q 12.890625 10.015625 18.65625 8.296875 
Q 24.421875 6.59375 29.984375 6.59375 
Q 38.421875 6.59375 43.015625 9.90625 
Q 47.609375 13.234375 47.609375 19.390625 
Q 47.609375 24.75 44.3125 27.78125 
Q 41.015625 30.8125 33.5 32.328125 
L 27.484375 33.5 
Q 16.453125 35.6875 11.515625 40.375 
Q 6.59375 45.0625 6.59375 53.421875 
Q 6.59375 63.09375 13.40625 68.65625 
Q 20.21875 74.21875 32.171875 74.21875 
Q 37.3125 74.21875 42.625 73.28125 
Q 47.953125 72.359375 53.515625 70.515625 
z
" id="DejaVuSans-83"/>
      </defs>
      <use xlink:href="#DejaVuSans-70"/>
      <use x="57.519531" xlink:href="#DejaVuSans-82"/>
      <use x="127.001953" xlink:href="#DejaVuSans-83"/>
      <use x="190.478516" xlink:href="#DejaVuSans-50"/>
     </g>
    </g>
   </g>
   <g id="text_9">
    <g clip-path="url(#p15acd79d9c)">
     <!-- KIDINS220 -->
     <g transform="translate(310.806805 393.755167)scale(0.12 -0.12)">
      <defs>
       <path d="M 9.8125 72.90625 
L 19.671875 72.90625 
L 19.671875 0 
L 9.8125 0 
z
" id="DejaVuSans-73"/>
       <path d="M 31.78125 66.40625 
Q 24.171875 66.40625 20.328125 58.90625 
Q 16.5 51.421875 16.5 36.375 
Q 16.5 21.390625 20.328125 13.890625 
Q 24.171875 6.390625 31.78125 6.390625 
Q 39.453125 6.390625 43.28125 13.890625 
Q 47.125 21.390625 47.125 36.375 
Q 47.125 51.421875 43.28125 58.90625 
Q 39.453125 66.40625 31.78125 66.40625 
z
M 31.78125 74.21875 
Q 44.046875 74.21875 50.515625 64.515625 
Q 56.984375 54.828125 56.984375 36.375 
Q 56.984375 17.96875 50.515625 8.265625 
Q 44.046875 -1.421875 31.78125 -1.421875 
Q 19.53125 -1.421875 13.0625 8.265625 
Q 6.59375 17.96875 6.59375 36.375 
Q 6.59375 54.828125 13.0625 64.515625 
Q 19.53125 74.21875 31.78125 74.21875 
z
" id="DejaVuSans-48"/>
      </defs>
      <use xlink:href="#DejaVuSans-75"/>
      <use x="65.576172" xlink:href="#DejaVuSans-73"/>
      <use x="95.068359" xlink:href="#DejaVuSans-68"/>
      <use x="172.070312" xlink:href="#DejaVuSans-73"/>
      <use x="201.5625" xlink:href="#DejaVuSans-78"/>
      <use x="276.367188" xlink:href="#DejaVuSans-83"/>
      <use x="339.84375" xlink:href="#DejaVuSans-50"/>
      <use x="403.466797" xlink:href="#DejaVuSans-50"/>
      <use x="467.089844" xlink:href="#DejaVuSans-48"/>
     </g>
    </g>
   </g>
   <g id="text_10">
    <g clip-path="url(#p15acd79d9c)">
     <!-- RPS6KA5 -->
     <g transform="translate(401.414122 218.149551)scale(0.12 -0.12)">
      <defs>
       <path d="M 33.015625 40.375 
Q 26.375 40.375 22.484375 35.828125 
Q 18.609375 31.296875 18.609375 23.390625 
Q 18.609375 15.53125 22.484375 10.953125 
Q 26.375 6.390625 33.015625 6.390625 
Q 39.65625 6.390625 43.53125 10.953125 
Q 47.40625 15.53125 47.40625 23.390625 
Q 47.40625 31.296875 43.53125 35.828125 
Q 39.65625 40.375 33.015625 40.375 
z
M 52.59375 71.296875 
L 52.59375 62.3125 
Q 48.875 64.0625 45.09375 64.984375 
Q 41.3125 65.921875 37.59375 65.921875 
Q 27.828125 65.921875 22.671875 59.328125 
Q 17.53125 52.734375 16.796875 39.40625 
Q 19.671875 43.65625 24.015625 45.921875 
Q 28.375 48.1875 33.59375 48.1875 
Q 44.578125 48.1875 50.953125 41.515625 
Q 57.328125 34.859375 57.328125 23.390625 
Q 57.328125 12.15625 50.6875 5.359375 
Q 44.046875 -1.421875 33.015625 -1.421875 
Q 20.359375 -1.421875 13.671875 8.265625 
Q 6.984375 17.96875 6.984375 36.375 
Q 6.984375 53.65625 15.1875 63.9375 
Q 23.390625 74.21875 37.203125 74.21875 
Q 40.921875 74.21875 44.703125 73.484375 
Q 48.484375 72.75 52.59375 71.296875 
z
" id="DejaVuSans-54"/>
       <path d="M 10.796875 72.90625 
L 49.515625 72.90625 
L 49.515625 64.59375 
L 19.828125 64.59375 
L 19.828125 46.734375 
Q 21.96875 47.46875 24.109375 47.828125 
Q 26.265625 48.1875 28.421875 48.1875 
Q 40.625 48.1875 47.75 41.5 
Q 54.890625 34.8125 54.890625 23.390625 
Q 54.890625 11.625 47.5625 5.09375 
Q 40.234375 -1.421875 26.90625 -1.421875 
Q 22.3125 -1.421875 17.546875 -0.640625 
Q 12.796875 0.140625 7.71875 1.703125 
L 7.71875 11.625 
Q 12.109375 9.234375 16.796875 8.0625 
Q 21.484375 6.890625 26.703125 6.890625 
Q 35.15625 6.890625 40.078125 11.328125 
Q 45.015625 15.765625 45.015625 23.390625 
Q 45.015625 31 40.078125 35.4375 
Q 35.15625 39.890625 26.703125 39.890625 
Q 22.75 39.890625 18.8125 39.015625 
Q 14.890625 38.140625 10.796875 36.28125 
z
" id="DejaVuSans-53"/>
      </defs>
      <use xlink:href="#DejaVuSans-82"/>
      <use x="69.482422" xlink:href="#DejaVuSans-80"/>
      <use x="129.785156" xlink:href="#DejaVuSans-83"/>
      <use x="193.261719" xlink:href="#DejaVuSans-54"/>
      <use x="256.884766" xlink:href="#DejaVuSans-75"/>
      <use x="320.710938" xlink:href="#DejaVuSans-65"/>
      <use x="389.119141" xlink:href="#DejaVuSans-53"/>
     </g>
    </g>
   </g>
   <g id="text_11">
    <g clip-path="url(#p15acd79d9c)">
     <!-- TP53 -->
     <g transform="translate(376.908265 274.197827)scale(0.12 -0.12)">
      <defs>
       <path d="M 40.578125 39.3125 
Q 47.65625 37.796875 51.625 33 
Q 55.609375 28.21875 55.609375 21.1875 
Q 55.609375 10.40625 48.1875 4.484375 
Q 40.765625 -1.421875 27.09375 -1.421875 
Q 22.515625 -1.421875 17.65625 -0.515625 
Q 12.796875 0.390625 7.625 2.203125 
L 7.625 11.71875 
Q 11.71875 9.328125 16.59375 8.109375 
Q 21.484375 6.890625 26.8125 6.890625 
Q 36.078125 6.890625 40.9375 10.546875 
Q 45.796875 14.203125 45.796875 21.1875 
Q 45.796875 27.640625 41.28125 31.265625 
Q 36.765625 34.90625 28.71875 34.90625 
L 20.21875 34.90625 
L 20.21875 43.015625 
L 29.109375 43.015625 
Q 36.375 43.015625 40.234375 45.921875 
Q 44.09375 48.828125 44.09375 54.296875 
Q 44.09375 59.90625 40.109375 62.90625 
Q 36.140625 65.921875 28.71875 65.921875 
Q 24.65625 65.921875 20.015625 65.03125 
Q 15.375 64.15625 9.8125 62.3125 
L 9.8125 71.09375 
Q 15.4375 72.65625 20.34375 73.4375 
Q 25.25 74.21875 29.59375 74.21875 
Q 40.828125 74.21875 47.359375 69.109375 
Q 53.90625 64.015625 53.90625 55.328125 
Q 53.90625 49.265625 50.4375 45.09375 
Q 46.96875 40.921875 40.578125 39.3125 
z
" id="DejaVuSans-51"/>
      </defs>
      <use xlink:href="#DejaVuSans-84"/>
      <use x="61.083984" xlink:href="#DejaVuSans-80"/>
      <use x="121.386719" xlink:href="#DejaVuSans-53"/>
      <use x="185.009766" xlink:href="#DejaVuSans-51"/>
     </g>
    </g>
   </g>
   <g id="text_12">
    <g clip-path="url(#p15acd79d9c)">
     <!-- MAP3K1 -->
     <g transform="translate(569.547597 345.96812)scale(0.12 -0.12)">
      <defs>
       <path d="M 9.8125 72.90625 
L 24.515625 72.90625 
L 43.109375 23.296875 
L 61.8125 72.90625 
L 76.515625 72.90625 
L 76.515625 0 
L 66.890625 0 
L 66.890625 64.015625 
L 48.09375 14.015625 
L 38.1875 14.015625 
L 19.390625 64.015625 
L 19.390625 0 
L 9.8125 0 
z
" id="DejaVuSans-77"/>
      </defs>
      <use xlink:href="#DejaVuSans-77"/>
      <use x="86.279297" xlink:href="#DejaVuSans-65"/>
      <use x="154.6875" xlink:href="#DejaVuSans-80"/>
      <use x="214.990234" xlink:href="#DejaVuSans-51"/>
      <use x="278.613281" xlink:href="#DejaVuSans-75"/>
      <use x="344.189453" xlink:href="#DejaVuSans-49"/>
     </g>
    </g>
   </g>
   <g id="text_13">
    <g clip-path="url(#p15acd79d9c)">
     <!-- MAP3K5 -->
     <g transform="translate(528.556493 342.799619)scale(0.12 -0.12)">
      <use xlink:href="#DejaVuSans-77"/>
      <use x="86.279297" xlink:href="#DejaVuSans-65"/>
      <use x="154.6875" xlink:href="#DejaVuSans-80"/>
      <use x="214.990234" xlink:href="#DejaVuSans-51"/>
      <use x="278.613281" xlink:href="#DejaVuSans-75"/>
      <use x="344.189453" xlink:href="#DejaVuSans-53"/>
     </g>
    </g>
   </g>
   <g id="text_14">
    <g clip-path="url(#p15acd79d9c)">
     <!-- MAPKAPK2 -->
     <g transform="translate(479.698676 351.384955)scale(0.12 -0.12)">
      <use xlink:href="#DejaVuSans-77"/>
      <use x="86.279297" xlink:href="#DejaVuSans-65"/>
      <use x="154.6875" xlink:href="#DejaVuSans-80"/>
      <use x="214.990234" xlink:href="#DejaVuSans-75"/>
      <use x="278.816406" xlink:href="#DejaVuSans-65"/>
      <use x="347.224609" xlink:href="#DejaVuSans-80"/>
      <use x="407.527344" xlink:href="#DejaVuSans-75"/>
      <use x="473.103516" xlink:href="#DejaVuSans-50"/>
     </g>
    </g>
   </g>
   <g id="text_15">
    <g clip-path="url(#p15acd79d9c)">
     <!-- MAP2K5 -->
     <g transform="translate(478.621249 181.161804)scale(0.12 -0.12)">
      <use xlink:href="#DejaVuSans-77"/>
      <use x="86.279297" xlink:href="#DejaVuSans-65"/>
      <use x="154.6875" xlink:href="#DejaVuSans-80"/>
      <use x="214.990234" xlink:href="#DejaVuSans-50"/>
      <use x="278.613281" xlink:href="#DejaVuSans-75"/>
      <use x="344.189453" xlink:href="#DejaVuSans-53"/>
     </g>
    </g>
   </g>
   <g id="text_16">
    <g clip-path="url(#p15acd79d9c)">
     <!-- MAPK7 -->
     <g transform="translate(381.084965 110.918523)scale(0.12 -0.12)">
      <defs>
       <path d="M 8.203125 72.90625 
L 55.078125 72.90625 
L 55.078125 68.703125 
L 28.609375 0 
L 18.3125 0 
L 43.21875 64.59375 
L 8.203125 64.59375 
z
" id="DejaVuSans-55"/>
      </defs>
      <use xlink:href="#DejaVuSans-77"/>
      <use x="86.279297" xlink:href="#DejaVuSans-65"/>
      <use x="154.6875" xlink:href="#DejaVuSans-80"/>
      <use x="214.990234" xlink:href="#DejaVuSans-75"/>
      <use x="280.566406" xlink:href="#DejaVuSans-55"/>
     </g>
    </g>
   </g>
   <g id="text_17">
    <g clip-path="url(#p15acd79d9c)">
     <!-- MAP3K3 -->
     <g transform="translate(617.618657 225.208891)scale(0.12 -0.12)">
      <use xlink:href="#DejaVuSans-77"/>
      <use x="86.279297" xlink:href="#DejaVuSans-65"/>
      <use x="154.6875" xlink:href="#DejaVuSans-80"/>
      <use x="214.990234" xlink:href="#DejaVuSans-51"/>
      <use x="278.613281" xlink:href="#DejaVuSans-75"/>
      <use x="344.189453" xlink:href="#DejaVuSans-51"/>
     </g>
    </g>
   </g>
   <g id="text_18">
    <g clip-path="url(#p15acd79d9c)">
     <!-- MAP2K7 -->
     <g transform="translate(485.991221 462.471897)scale(0.12 -0.12)">
      <use xlink:href="#DejaVuSans-77"/>
      <use x="86.279297" xlink:href="#DejaVuSans-65"/>
      <use x="154.6875" xlink:href="#DejaVuSans-80"/>
      <use x="214.990234" xlink:href="#DejaVuSans-50"/>
      <use x="278.613281" xlink:href="#DejaVuSans-75"/>
      <use x="344.189453" xlink:href="#DejaVuSans-55"/>
     </g>
    </g>
   </g>
   <g id="text_19">
    <g clip-path="url(#p15acd79d9c)">
     <!-- CDC42 -->
     <g transform="translate(649.952408 346.186276)scale(0.12 -0.12)">
      <use xlink:href="#DejaVuSans-67"/>
      <use x="69.824219" xlink:href="#DejaVuSans-68"/>
      <use x="146.826172" xlink:href="#DejaVuSans-67"/>
      <use x="216.650391" xlink:href="#DejaVuSans-52"/>
      <use x="280.273438" xlink:href="#DejaVuSans-50"/>
     </g>
    </g>
   </g>
   <g id="text_20">
    <g clip-path="url(#p15acd79d9c)">
     <!-- RAC1 -->
     <g transform="translate(566.386034 243.500613)scale(0.12 -0.12)">
      <use xlink:href="#DejaVuSans-82"/>
      <use x="65.482422" xlink:href="#DejaVuSans-65"/>
      <use x="132.140625" xlink:href="#DejaVuSans-67"/>
      <use x="201.964844" xlink:href="#DejaVuSans-49"/>
     </g>
    </g>
   </g>
   <g id="text_21">
    <g clip-path="url(#p15acd79d9c)">
     <!-- TRAF6 -->
     <g transform="translate(493.588266 234.277786)scale(0.12 -0.12)">
      <use xlink:href="#DejaVuSans-84"/>
      <use x="61.083984" xlink:href="#DejaVuSans-82"/>
      <use x="126.566406" xlink:href="#DejaVuSans-65"/>
      <use x="194.974609" xlink:href="#DejaVuSans-70"/>
      <use x="252.494141" xlink:href="#DejaVuSans-54"/>
     </g>
    </g>
   </g>
   <g id="text_22">
    <g clip-path="url(#p15acd79d9c)">
     <!-- ZNF274 -->
     <g transform="translate(695.992027 214.073825)scale(0.12 -0.12)">
      <defs>
       <path d="M 5.609375 72.90625 
L 62.890625 72.90625 
L 62.890625 65.375 
L 16.796875 8.296875 
L 64.015625 8.296875 
L 64.015625 0 
L 4.5 0 
L 4.5 7.515625 
L 50.59375 64.59375 
L 5.609375 64.59375 
z
" id="DejaVuSans-90"/>
      </defs>
      <use xlink:href="#DejaVuSans-90"/>
      <use x="68.505859" xlink:href="#DejaVuSans-78"/>
      <use x="143.310547" xlink:href="#DejaVuSans-70"/>
      <use x="200.830078" xlink:href="#DejaVuSans-50"/>
      <use x="264.453125" xlink:href="#DejaVuSans-55"/>
      <use x="328.076172" xlink:href="#DejaVuSans-52"/>
     </g>
    </g>
   </g>
   <g id="text_23">
    <g clip-path="url(#p15acd79d9c)">
     <!-- NGFRAP1 -->
     <g transform="translate(237.13935 441.60033)scale(0.12 -0.12)">
      <use xlink:href="#DejaVuSans-78"/>
      <use x="74.804688" xlink:href="#DejaVuSans-71"/>
      <use x="152.294922" xlink:href="#DejaVuSans-70"/>
      <use x="209.814453" xlink:href="#DejaVuSans-82"/>
      <use x="275.296875" xlink:href="#DejaVuSans-65"/>
      <use x="343.705078" xlink:href="#DejaVuSans-80"/>
      <use x="404.007812" xlink:href="#DejaVuSans-49"/>
     </g>
    </g>
   </g>
   <g id="text_24">
    <g clip-path="url(#p15acd79d9c)">
     <!-- YWHAE -->
     <g transform="translate(154.485177 380.122597)scale(0.12 -0.12)">
      <defs>
       <path d="M -0.203125 72.90625 
L 10.40625 72.90625 
L 30.609375 42.921875 
L 50.6875 72.90625 
L 61.28125 72.90625 
L 35.5 34.71875 
L 35.5 0 
L 25.59375 0 
L 25.59375 34.71875 
z
" id="DejaVuSans-89"/>
       <path d="M 3.328125 72.90625 
L 13.28125 72.90625 
L 28.609375 11.28125 
L 43.890625 72.90625 
L 54.984375 72.90625 
L 70.3125 11.28125 
L 85.59375 72.90625 
L 95.609375 72.90625 
L 77.296875 0 
L 64.890625 0 
L 49.515625 63.28125 
L 33.984375 0 
L 21.578125 0 
z
" id="DejaVuSans-87"/>
       <path d="M 9.8125 72.90625 
L 19.671875 72.90625 
L 19.671875 43.015625 
L 55.515625 43.015625 
L 55.515625 72.90625 
L 65.375 72.90625 
L 65.375 0 
L 55.515625 0 
L 55.515625 34.71875 
L 19.671875 34.71875 
L 19.671875 0 
L 9.8125 0 
z
" id="DejaVuSans-72"/>
      </defs>
      <use xlink:href="#DejaVuSans-89"/>
      <use x="61.083984" xlink:href="#DejaVuSans-87"/>
      <use x="159.960938" xlink:href="#DejaVuSans-72"/>
      <use x="235.15625" xlink:href="#DejaVuSans-65"/>
      <use x="303.564453" xlink:href="#DejaVuSans-69"/>
     </g>
    </g>
   </g>
   <g id="text_25">
    <g clip-path="url(#p15acd79d9c)">
     <!-- IKBKB -->
     <g transform="translate(257.848224 287.917025)scale(0.12 -0.12)">
      <use xlink:href="#DejaVuSans-73"/>
      <use x="29.492188" xlink:href="#DejaVuSans-75"/>
      <use x="95.068359" xlink:href="#DejaVuSans-66"/>
      <use x="163.671875" xlink:href="#DejaVuSans-75"/>
      <use x="229.248047" xlink:href="#DejaVuSans-66"/>
     </g>
    </g>
   </g>
   <g id="text_26">
    <g clip-path="url(#p15acd79d9c)">
     <!-- BCL2 -->
     <g transform="translate(356.576287 477.463977)scale(0.12 -0.12)">
      <defs>
       <path d="M 9.8125 72.90625 
L 19.671875 72.90625 
L 19.671875 8.296875 
L 55.171875 8.296875 
L 55.171875 0 
L 9.8125 0 
z
" id="DejaVuSans-76"/>
      </defs>
      <use xlink:href="#DejaVuSans-66"/>
      <use x="66.853516" xlink:href="#DejaVuSans-67"/>
      <use x="136.677734" xlink:href="#DejaVuSans-76"/>
      <use x="192.390625" xlink:href="#DejaVuSans-50"/>
     </g>
    </g>
   </g>
   <g id="text_27">
    <g clip-path="url(#p15acd79d9c)">
     <!-- BAX -->
     <g transform="translate(216.212371 191.568039)scale(0.12 -0.12)">
      <defs>
       <path d="M 6.296875 72.90625 
L 16.890625 72.90625 
L 35.015625 45.796875 
L 53.21875 72.90625 
L 63.8125 72.90625 
L 40.375 37.890625 
L 65.375 0 
L 54.78125 0 
L 34.28125 31 
L 13.625 0 
L 2.984375 0 
L 29 38.921875 
z
" id="DejaVuSans-88"/>
      </defs>
      <use xlink:href="#DejaVuSans-66"/>
      <use x="68.603516" xlink:href="#DejaVuSans-65"/>
      <use x="137.011719" xlink:href="#DejaVuSans-88"/>
     </g>
    </g>
   </g>
   <g id="text_28">
    <g clip-path="url(#p15acd79d9c)">
     <!-- PLCG1 -->
     <g transform="translate(338.001173 227.353566)scale(0.12 -0.12)">
      <use xlink:href="#DejaVuSans-80"/>
      <use x="60.302734" xlink:href="#DejaVuSans-76"/>
      <use x="116.015625" xlink:href="#DejaVuSans-67"/>
      <use x="185.839844" xlink:href="#DejaVuSans-71"/>
      <use x="263.330078" xlink:href="#DejaVuSans-49"/>
     </g>
    </g>
   </g>
   <g id="text_29">
    <g clip-path="url(#p15acd79d9c)">
     <!-- PLCG2 -->
     <g transform="translate(333.419366 355.14801)scale(0.12 -0.12)">
      <use xlink:href="#DejaVuSans-80"/>
      <use x="60.302734" xlink:href="#DejaVuSans-76"/>
      <use x="116.015625" xlink:href="#DejaVuSans-67"/>
      <use x="185.839844" xlink:href="#DejaVuSans-71"/>
      <use x="263.330078" xlink:href="#DejaVuSans-50"/>
     </g>
    </g>
   </g>
   <g id="text_30">
    <g clip-path="url(#p15acd79d9c)">
     <!-- SHC1 -->
     <g transform="translate(649.470986 428.827415)scale(0.12 -0.12)">
      <use xlink:href="#DejaVuSans-83"/>
      <use x="63.476562" xlink:href="#DejaVuSans-72"/>
      <use x="138.671875" xlink:href="#DejaVuSans-67"/>
      <use x="208.496094" xlink:href="#DejaVuSans-49"/>
     </g>
    </g>
   </g>
   <g id="text_31">
    <g clip-path="url(#p15acd79d9c)">
     <!-- HRAS -->
     <g transform="translate(428.11055 239.796281)scale(0.12 -0.12)">
      <use xlink:href="#DejaVuSans-72"/>
      <use x="75.195312" xlink:href="#DejaVuSans-82"/>
      <use x="140.677734" xlink:href="#DejaVuSans-65"/>
      <use x="209.085938" xlink:href="#DejaVuSans-83"/>
     </g>
    </g>
   </g>
   <g id="text_32">
    <g clip-path="url(#p15acd79d9c)">
     <!-- KRAS -->
     <g transform="translate(420.736477 252.001033)scale(0.12 -0.12)">
      <use xlink:href="#DejaVuSans-75"/>
      <use x="65.576172" xlink:href="#DejaVuSans-82"/>
      <use x="131.058594" xlink:href="#DejaVuSans-65"/>
      <use x="199.466797" xlink:href="#DejaVuSans-83"/>
     </g>
    </g>
   </g>
   <g id="text_33">
    <g clip-path="url(#p15acd79d9c)">
     <!-- NRAS -->
     <g transform="translate(435.964383 263.426158)scale(0.12 -0.12)">
      <use xlink:href="#DejaVuSans-78"/>
      <use x="74.804688" xlink:href="#DejaVuSans-82"/>
      <use x="140.287109" xlink:href="#DejaVuSans-65"/>
      <use x="208.695312" xlink:href="#DejaVuSans-83"/>
     </g>
    </g>
   </g>
   <g id="text_34">
    <g clip-path="url(#p15acd79d9c)">
     <!-- MAP2K1 -->
     <g transform="translate(216.524162 433.908611)scale(0.12 -0.12)">
      <use xlink:href="#DejaVuSans-77"/>
      <use x="86.279297" xlink:href="#DejaVuSans-65"/>
      <use x="154.6875" xlink:href="#DejaVuSans-80"/>
      <use x="214.990234" xlink:href="#DejaVuSans-50"/>
      <use x="278.613281" xlink:href="#DejaVuSans-75"/>
      <use x="344.189453" xlink:href="#DejaVuSans-49"/>
     </g>
    </g>
   </g>
   <g id="text_35">
    <g clip-path="url(#p15acd79d9c)">
     <!-- MAP2K2 -->
     <g transform="translate(220.284673 151.478838)scale(0.12 -0.12)">
      <use xlink:href="#DejaVuSans-77"/>
      <use x="86.279297" xlink:href="#DejaVuSans-65"/>
      <use x="154.6875" xlink:href="#DejaVuSans-80"/>
      <use x="214.990234" xlink:href="#DejaVuSans-50"/>
      <use x="278.613281" xlink:href="#DejaVuSans-75"/>
      <use x="344.189453" xlink:href="#DejaVuSans-50"/>
     </g>
    </g>
   </g>
   <g id="text_36">
    <g clip-path="url(#p15acd79d9c)">
     <!-- RAF1 -->
     <g transform="translate(289.70894 280.828232)scale(0.12 -0.12)">
      <use xlink:href="#DejaVuSans-82"/>
      <use x="65.482422" xlink:href="#DejaVuSans-65"/>
      <use x="133.890625" xlink:href="#DejaVuSans-70"/>
      <use x="191.410156" xlink:href="#DejaVuSans-49"/>
     </g>
    </g>
   </g>
   <g id="text_37">
    <g clip-path="url(#p15acd79d9c)">
     <!-- RAP1A -->
     <g transform="translate(293.728966 399.552485)scale(0.12 -0.12)">
      <use xlink:href="#DejaVuSans-82"/>
      <use x="65.482422" xlink:href="#DejaVuSans-65"/>
      <use x="133.890625" xlink:href="#DejaVuSans-80"/>
      <use x="194.193359" xlink:href="#DejaVuSans-49"/>
      <use x="257.816406" xlink:href="#DejaVuSans-65"/>
     </g>
    </g>
   </g>
   <g id="text_38">
    <g clip-path="url(#p15acd79d9c)">
     <!-- RAP1B -->
     <g transform="translate(463.325963 290.315809)scale(0.12 -0.12)">
      <use xlink:href="#DejaVuSans-82"/>
      <use x="65.482422" xlink:href="#DejaVuSans-65"/>
      <use x="133.890625" xlink:href="#DejaVuSans-80"/>
      <use x="194.193359" xlink:href="#DejaVuSans-49"/>
      <use x="257.816406" xlink:href="#DejaVuSans-66"/>
     </g>
    </g>
   </g>
   <g id="text_39">
    <g clip-path="url(#p15acd79d9c)">
     <!-- NFKBIB -->
     <g transform="translate(288.747654 310.674777)scale(0.12 -0.12)">
      <use xlink:href="#DejaVuSans-78"/>
      <use x="74.804688" xlink:href="#DejaVuSans-70"/>
      <use x="132.324219" xlink:href="#DejaVuSans-75"/>
      <use x="197.900391" xlink:href="#DejaVuSans-66"/>
      <use x="266.503906" xlink:href="#DejaVuSans-73"/>
      <use x="295.996094" xlink:href="#DejaVuSans-66"/>
     </g>
    </g>
   </g>
   <g id="text_40">
    <g clip-path="url(#p15acd79d9c)">
     <!-- NFKBIA -->
     <g transform="translate(234.79252 340.757257)scale(0.12 -0.12)">
      <use xlink:href="#DejaVuSans-78"/>
      <use x="74.804688" xlink:href="#DejaVuSans-70"/>
      <use x="132.324219" xlink:href="#DejaVuSans-75"/>
      <use x="197.900391" xlink:href="#DejaVuSans-66"/>
      <use x="266.503906" xlink:href="#DejaVuSans-73"/>
      <use x="295.996094" xlink:href="#DejaVuSans-65"/>
     </g>
    </g>
   </g>
   <g id="text_41">
    <g clip-path="url(#p15acd79d9c)">
     <!-- NFKBIE -->
     <g transform="translate(274.935623 375.409689)scale(0.12 -0.12)">
      <use xlink:href="#DejaVuSans-78"/>
      <use x="74.804688" xlink:href="#DejaVuSans-70"/>
      <use x="132.324219" xlink:href="#DejaVuSans-75"/>
      <use x="197.900391" xlink:href="#DejaVuSans-66"/>
      <use x="266.503906" xlink:href="#DejaVuSans-73"/>
      <use x="295.996094" xlink:href="#DejaVuSans-69"/>
     </g>
    </g>
   </g>
   <g id="text_42">
    <g clip-path="url(#p15acd79d9c)">
     <!-- NFKB1 -->
     <g transform="translate(207.797553 408.297852)scale(0.12 -0.12)">
      <use xlink:href="#DejaVuSans-78"/>
      <use x="74.804688" xlink:href="#DejaVuSans-70"/>
      <use x="132.324219" xlink:href="#DejaVuSans-75"/>
      <use x="197.900391" xlink:href="#DejaVuSans-66"/>
      <use x="266.503906" xlink:href="#DejaVuSans-49"/>
     </g>
    </g>
   </g>
   <g id="text_43">
    <g clip-path="url(#p15acd79d9c)">
     <!-- RELA -->
     <g transform="translate(150.562973 340.392127)scale(0.12 -0.12)">
      <use xlink:href="#DejaVuSans-82"/>
      <use x="69.482422" xlink:href="#DejaVuSans-69"/>
      <use x="132.666016" xlink:href="#DejaVuSans-76"/>
      <use x="190.628906" xlink:href="#DejaVuSans-65"/>
     </g>
    </g>
   </g>
   <g id="text_44">
    <g clip-path="url(#p15acd79d9c)">
     <!-- CAMK4 -->
     <g transform="translate(244.14028 267.884825)scale(0.12 -0.12)">
      <use xlink:href="#DejaVuSans-67"/>
      <use x="69.824219" xlink:href="#DejaVuSans-65"/>
      <use x="138.232422" xlink:href="#DejaVuSans-77"/>
      <use x="224.511719" xlink:href="#DejaVuSans-75"/>
      <use x="290.087891" xlink:href="#DejaVuSans-52"/>
     </g>
    </g>
   </g>
   <g id="text_45">
    <g clip-path="url(#p15acd79d9c)">
     <!-- IRAK1 -->
     <g transform="translate(261.510925 341.945621)scale(0.12 -0.12)">
      <use xlink:href="#DejaVuSans-73"/>
      <use x="29.492188" xlink:href="#DejaVuSans-82"/>
      <use x="94.974609" xlink:href="#DejaVuSans-65"/>
      <use x="163.382812" xlink:href="#DejaVuSans-75"/>
      <use x="228.958984" xlink:href="#DejaVuSans-49"/>
     </g>
    </g>
   </g>
   <g id="text_46">
    <g clip-path="url(#p15acd79d9c)">
     <!-- IRAK2 -->
     <g transform="translate(250.830892 195.544824)scale(0.12 -0.12)">
      <use xlink:href="#DejaVuSans-73"/>
      <use x="29.492188" xlink:href="#DejaVuSans-82"/>
      <use x="94.974609" xlink:href="#DejaVuSans-65"/>
      <use x="163.382812" xlink:href="#DejaVuSans-75"/>
      <use x="228.958984" xlink:href="#DejaVuSans-50"/>
     </g>
    </g>
   </g>
   <g id="text_47">
    <g clip-path="url(#p15acd79d9c)">
     <!-- IRAK4 -->
     <g transform="translate(159.483301 225.453401)scale(0.12 -0.12)">
      <use xlink:href="#DejaVuSans-73"/>
      <use x="29.492188" xlink:href="#DejaVuSans-82"/>
      <use x="94.974609" xlink:href="#DejaVuSans-65"/>
      <use x="163.382812" xlink:href="#DejaVuSans-75"/>
      <use x="228.958984" xlink:href="#DejaVuSans-52"/>
     </g>
    </g>
   </g>
   <g id="text_48">
    <!-- Frame: 11 -->
    <g transform="translate(121.392 91.296)scale(0.1 -0.1)">
     <defs>
      <path d="M 41.109375 46.296875 
Q 39.59375 47.171875 37.8125 47.578125 
Q 36.03125 48 33.890625 48 
Q 26.265625 48 22.1875 43.046875 
Q 18.109375 38.09375 18.109375 28.8125 
L 18.109375 0 
L 9.078125 0 
L 9.078125 54.6875 
L 18.109375 54.6875 
L 18.109375 46.1875 
Q 20.953125 51.171875 25.484375 53.578125 
Q 30.03125 56 36.53125 56 
Q 37.453125 56 38.578125 55.875 
Q 39.703125 55.765625 41.0625 55.515625 
z
" id="DejaVuSans-114"/>
      <path d="M 34.28125 27.484375 
Q 23.390625 27.484375 19.1875 25 
Q 14.984375 22.515625 14.984375 16.5 
Q 14.984375 11.71875 18.140625 8.90625 
Q 21.296875 6.109375 26.703125 6.109375 
Q 34.1875 6.109375 38.703125 11.40625 
Q 43.21875 16.703125 43.21875 25.484375 
L 43.21875 27.484375 
z
M 52.203125 31.203125 
L 52.203125 0 
L 43.21875 0 
L 43.21875 8.296875 
Q 40.140625 3.328125 35.546875 0.953125 
Q 30.953125 -1.421875 24.3125 -1.421875 
Q 15.921875 -1.421875 10.953125 3.296875 
Q 6 8.015625 6 15.921875 
Q 6 25.140625 12.171875 29.828125 
Q 18.359375 34.515625 30.609375 34.515625 
L 43.21875 34.515625 
L 43.21875 35.40625 
Q 43.21875 41.609375 39.140625 45 
Q 35.0625 48.390625 27.6875 48.390625 
Q 23 48.390625 18.546875 47.265625 
Q 14.109375 46.140625 10.015625 43.890625 
L 10.015625 52.203125 
Q 14.9375 54.109375 19.578125 55.046875 
Q 24.21875 56 28.609375 56 
Q 40.484375 56 46.34375 49.84375 
Q 52.203125 43.703125 52.203125 31.203125 
z
" id="DejaVuSans-97"/>
      <path d="M 52 44.1875 
Q 55.375 50.25 60.0625 53.125 
Q 64.75 56 71.09375 56 
Q 79.640625 56 84.28125 50.015625 
Q 88.921875 44.046875 88.921875 33.015625 
L 88.921875 0 
L 79.890625 0 
L 79.890625 32.71875 
Q 79.890625 40.578125 77.09375 44.375 
Q 74.3125 48.1875 68.609375 48.1875 
Q 61.625 48.1875 57.5625 43.546875 
Q 53.515625 38.921875 53.515625 30.90625 
L 53.515625 0 
L 44.484375 0 
L 44.484375 32.71875 
Q 44.484375 40.625 41.703125 44.40625 
Q 38.921875 48.1875 33.109375 48.1875 
Q 26.21875 48.1875 22.15625 43.53125 
Q 18.109375 38.875 18.109375 30.90625 
L 18.109375 0 
L 9.078125 0 
L 9.078125 54.6875 
L 18.109375 54.6875 
L 18.109375 46.1875 
Q 21.1875 51.21875 25.484375 53.609375 
Q 29.78125 56 35.6875 56 
Q 41.65625 56 45.828125 52.96875 
Q 50 49.953125 52 44.1875 
z
" id="DejaVuSans-109"/>
      <path d="M 56.203125 29.59375 
L 56.203125 25.203125 
L 14.890625 25.203125 
Q 15.484375 15.921875 20.484375 11.0625 
Q 25.484375 6.203125 34.421875 6.203125 
Q 39.59375 6.203125 44.453125 7.46875 
Q 49.3125 8.734375 54.109375 11.28125 
L 54.109375 2.78125 
Q 49.265625 0.734375 44.1875 -0.34375 
Q 39.109375 -1.421875 33.890625 -1.421875 
Q 20.796875 -1.421875 13.15625 6.1875 
Q 5.515625 13.8125 5.515625 26.8125 
Q 5.515625 40.234375 12.765625 48.109375 
Q 20.015625 56 32.328125 56 
Q 43.359375 56 49.78125 48.890625 
Q 56.203125 41.796875 56.203125 29.59375 
z
M 47.21875 32.234375 
Q 47.125 39.59375 43.09375 43.984375 
Q 39.0625 48.390625 32.421875 48.390625 
Q 24.90625 48.390625 20.390625 44.140625 
Q 15.875 39.890625 15.1875 32.171875 
z
" id="DejaVuSans-101"/>
      <path d="M 11.71875 12.40625 
L 22.015625 12.40625 
L 22.015625 0 
L 11.71875 0 
z
M 11.71875 51.703125 
L 22.015625 51.703125 
L 22.015625 39.3125 
L 11.71875 39.3125 
z
" id="DejaVuSans-58"/>
      <path id="DejaVuSans-32"/>
     </defs>
     <use xlink:href="#DejaVuSans-70"/>
     <use x="50.269531" xlink:href="#DejaVuSans-114"/>
     <use x="91.382812" xlink:href="#DejaVuSans-97"/>
     <use x="152.662109" xlink:href="#DejaVuSans-109"/>
     <use x="250.074219" xlink:href="#DejaVuSans-101"/>
     <use x="311.597656" xlink:href="#DejaVuSans-58"/>
     <use x="345.289062" xlink:href="#DejaVuSans-32"/>
     <use x="377.076172" xlink:href="#DejaVuSans-49"/>
     <use x="440.699219" xlink:href="#DejaVuSans-49"/>
    </g>
   </g>
   <g id="text_49">
    <!-- Network: hsa04722 -->
    <g transform="translate(384.1275 63.12)scale(0.12 -0.12)">
     <defs>
      <path d="M 18.3125 70.21875 
L 18.3125 54.6875 
L 36.8125 54.6875 
L 36.8125 47.703125 
L 18.3125 47.703125 
L 18.3125 18.015625 
Q 18.3125 11.328125 20.140625 9.421875 
Q 21.96875 7.515625 27.59375 7.515625 
L 36.8125 7.515625 
L 36.8125 0 
L 27.59375 0 
Q 17.1875 0 13.234375 3.875 
Q 9.28125 7.765625 9.28125 18.015625 
L 9.28125 47.703125 
L 2.6875 47.703125 
L 2.6875 54.6875 
L 9.28125 54.6875 
L 9.28125 70.21875 
z
" id="DejaVuSans-116"/>
      <path d="M 4.203125 54.6875 
L 13.1875 54.6875 
L 24.421875 12.015625 
L 35.59375 54.6875 
L 46.1875 54.6875 
L 57.421875 12.015625 
L 68.609375 54.6875 
L 77.59375 54.6875 
L 63.28125 0 
L 52.6875 0 
L 40.921875 44.828125 
L 29.109375 0 
L 18.5 0 
z
" id="DejaVuSans-119"/>
      <path d="M 30.609375 48.390625 
Q 23.390625 48.390625 19.1875 42.75 
Q 14.984375 37.109375 14.984375 27.296875 
Q 14.984375 17.484375 19.15625 11.84375 
Q 23.34375 6.203125 30.609375 6.203125 
Q 37.796875 6.203125 41.984375 11.859375 
Q 46.1875 17.53125 46.1875 27.296875 
Q 46.1875 37.015625 41.984375 42.703125 
Q 37.796875 48.390625 30.609375 48.390625 
z
M 30.609375 56 
Q 42.328125 56 49.015625 48.375 
Q 55.71875 40.765625 55.71875 27.296875 
Q 55.71875 13.875 49.015625 6.21875 
Q 42.328125 -1.421875 30.609375 -1.421875 
Q 18.84375 -1.421875 12.171875 6.21875 
Q 5.515625 13.875 5.515625 27.296875 
Q 5.515625 40.765625 12.171875 48.375 
Q 18.84375 56 30.609375 56 
z
" id="DejaVuSans-111"/>
      <path d="M 9.078125 75.984375 
L 18.109375 75.984375 
L 18.109375 31.109375 
L 44.921875 54.6875 
L 56.390625 54.6875 
L 27.390625 29.109375 
L 57.625 0 
L 45.90625 0 
L 18.109375 26.703125 
L 18.109375 0 
L 9.078125 0 
z
" id="DejaVuSans-107"/>
      <path d="M 54.890625 33.015625 
L 54.890625 0 
L 45.90625 0 
L 45.90625 32.71875 
Q 45.90625 40.484375 42.875 44.328125 
Q 39.84375 48.1875 33.796875 48.1875 
Q 26.515625 48.1875 22.3125 43.546875 
Q 18.109375 38.921875 18.109375 30.90625 
L 18.109375 0 
L 9.078125 0 
L 9.078125 75.984375 
L 18.109375 75.984375 
L 18.109375 46.1875 
Q 21.34375 51.125 25.703125 53.5625 
Q 30.078125 56 35.796875 56 
Q 45.21875 56 50.046875 50.171875 
Q 54.890625 44.34375 54.890625 33.015625 
z
" id="DejaVuSans-104"/>
      <path d="M 44.28125 53.078125 
L 44.28125 44.578125 
Q 40.484375 46.53125 36.375 47.5 
Q 32.28125 48.484375 27.875 48.484375 
Q 21.1875 48.484375 17.84375 46.4375 
Q 14.5 44.390625 14.5 40.28125 
Q 14.5 37.15625 16.890625 35.375 
Q 19.28125 33.59375 26.515625 31.984375 
L 29.59375 31.296875 
Q 39.15625 29.25 43.1875 25.515625 
Q 47.21875 21.78125 47.21875 15.09375 
Q 47.21875 7.46875 41.1875 3.015625 
Q 35.15625 -1.421875 24.609375 -1.421875 
Q 20.21875 -1.421875 15.453125 -0.5625 
Q 10.6875 0.296875 5.421875 2 
L 5.421875 11.28125 
Q 10.40625 8.6875 15.234375 7.390625 
Q 20.0625 6.109375 24.8125 6.109375 
Q 31.15625 6.109375 34.5625 8.28125 
Q 37.984375 10.453125 37.984375 14.40625 
Q 37.984375 18.0625 35.515625 20.015625 
Q 33.0625 21.96875 24.703125 23.78125 
L 21.578125 24.515625 
Q 13.234375 26.265625 9.515625 29.90625 
Q 5.8125 33.546875 5.8125 39.890625 
Q 5.8125 47.609375 11.28125 51.796875 
Q 16.75 56 26.8125 56 
Q 31.78125 56 36.171875 55.265625 
Q 40.578125 54.546875 44.28125 53.078125 
z
" id="DejaVuSans-115"/>
     </defs>
     <use xlink:href="#DejaVuSans-78"/>
     <use x="74.804688" xlink:href="#DejaVuSans-101"/>
     <use x="136.328125" xlink:href="#DejaVuSans-116"/>
     <use x="175.537109" xlink:href="#DejaVuSans-119"/>
     <use x="257.324219" xlink:href="#DejaVuSans-111"/>
     <use x="318.505859" xlink:href="#DejaVuSans-114"/>
     <use x="359.619141" xlink:href="#DejaVuSans-107"/>
     <use x="417.529297" xlink:href="#DejaVuSans-58"/>
     <use x="451.220703" xlink:href="#DejaVuSans-32"/>
     <use x="483.007812" xlink:href="#DejaVuSans-104"/>
     <use x="546.386719" xlink:href="#DejaVuSans-115"/>
     <use x="598.486328" xlink:href="#DejaVuSans-97"/>
     <use x="659.765625" xlink:href="#DejaVuSans-48"/>
     <use x="723.388672" xlink:href="#DejaVuSans-52"/>
     <use x="787.011719" xlink:href="#DejaVuSans-55"/>
     <use x="850.634766" xlink:href="#DejaVuSans-50"/>
     <use x="914.257812" xlink:href="#DejaVuSans-50"/>
    </g>
   </g>
  </g>
 </g>
 <defs>
  <clipPath id="p15acd79d9c">
   <rect height="443.52" width="669.6" x="108" y="69.12"/>
  </clipPath>
 </defs>
</svg>
