<?xml version="1.0" encoding="utf-8" standalone="no"?>
<!DOCTYPE svg PUBLIC "-//W3C//DTD SVG 1.1//EN"
  "http://www.w3.org/Graphics/SVG/1.1/DTD/svg11.dtd">
<!-- Created with matplotlib (https://matplotlib.org/) -->
<svg height="576pt" version="1.1" viewBox="0 0 864 576" width="864pt" xmlns="http://www.w3.org/2000/svg" xmlns:xlink="http://www.w3.org/1999/xlink">
 <metadata>
  <rdf:RDF xmlns:cc="http://creativecommons.org/ns#" xmlns:dc="http://purl.org/dc/elements/1.1/" xmlns:rdf="http://www.w3.org/1999/02/22-rdf-syntax-ns#">
   <cc:Work>
    <dc:type rdf:resource="http://purl.org/dc/dcmitype/StillImage"/>
    <dc:date>2024-04-26T13:37:17.402648</dc:date>
    <dc:format>image/svg+xml</dc:format>
    <dc:creator>
     <cc:Agent>
      <dc:title>Matplotlib v3.3.1, https://matplotlib.org/</dc:title>
     </cc:Agent>
    </dc:creator>
   </cc:Work>
  </rdf:RDF>
 </metadata>
 <defs>
  <style type="text/css">*{stroke-linecap:butt;stroke-linejoin:round;}</style>
 </defs>
 <g id="figure_1">
  <g id="patch_1">
   <path d="M 0 576 
L 864 576 
L 864 0 
L 0 0 
z
" style="fill:#ffffff;"/>
  </g>
  <g id="axes_1">
   <g id="patch_2">
    <path clip-path="url(#p5823218ba5)" d="M 364.959546 249.85246 
Q 418.751895 182.121256 471.848913 115.26556 
" style="fill:none;stroke:#000000;stroke-linecap:round;"/>
    <path clip-path="url(#p5823218ba5)" d="M 467.795064 117.154026 
L 471.848913 115.26556 
L 470.927376 119.641719 
L 467.795064 117.154026 
z
" style="stroke:#000000;stroke-linecap:round;"/>
   </g>
   <g id="patch_3">
    <path clip-path="url(#p5823218ba5)" d="M 352.444636 261.559403 
Q 276.009426 314.359683 200.494111 366.524515 
" style="fill:none;stroke:#000000;stroke-linecap:round;"/>
    <path clip-path="url(#p5823218ba5)" d="M 204.921948 365.896621 
L 200.494111 366.524515 
L 202.648498 362.605508 
L 204.921948 365.896621 
z
" style="stroke:#000000;stroke-linecap:round;"/>
   </g>
   <g id="patch_4">
    <path clip-path="url(#p5823218ba5)" d="M 426.798175 201.978804 
Q 531.161696 181.193877 634.428717 160.627329 
" style="fill:none;stroke:#000000;stroke-linecap:round;"/>
    <path clip-path="url(#p5823218ba5)" d="M 630.115115 159.447143 
L 634.428717 160.627329 
L 630.896407 163.370099 
L 630.115115 159.447143 
z
" style="stroke:#000000;stroke-linecap:round;"/>
   </g>
   <g id="patch_5">
    <path clip-path="url(#p5823218ba5)" d="M 409.951061 205.97309 
Q 303.190025 235.405765 197.506813 264.541296 
" style="fill:none;stroke:#000000;stroke-linecap:round;"/>
    <path clip-path="url(#p5823218ba5)" d="M 201.894501 265.406278 
L 197.506813 264.541296 
L 200.831411 261.550134 
L 201.894501 265.406278 
z
" style="stroke:#000000;stroke-linecap:round;"/>
   </g>
   <g id="patch_6">
    <path clip-path="url(#p5823218ba5)" d="M 463.009254 290.722871 
Q 586.936935 280.433665 709.750416 270.236967 
" style="fill:none;stroke:#000000;stroke-linecap:round;"/>
    <path clip-path="url(#p5823218ba5)" d="M 705.59865 268.574789 
L 709.750416 270.236967 
L 705.929615 272.561073 
L 705.59865 268.574789 
z
" style="stroke:#000000;stroke-linecap:round;"/>
   </g>
   <g id="patch_7">
    <path clip-path="url(#p5823218ba5)" d="M 458.715137 298.93938 
Q 505.564567 380.003603 551.85456 460.099824 
" style="fill:none;stroke:#000000;stroke-linecap:round;"/>
    <path clip-path="url(#p5823218ba5)" d="M 551.584671 455.635839 
L 551.85456 460.099824 
L 548.121439 457.637344 
L 551.584671 455.635839 
z
" style="stroke:#000000;stroke-linecap:round;"/>
   </g>
   <g id="patch_8">
    <path clip-path="url(#p5823218ba5)" d="M 451.278933 283.352191 
Q 419.609424 200.779243 388.340281 119.250186 
" style="fill:none;stroke:#000000;stroke-linecap:round;"/>
    <path clip-path="url(#p5823218ba5)" d="M 387.905311 123.701118 
L 388.340281 119.250186 
L 391.640045 122.268722 
L 387.905311 123.701118 
z
" style="stroke:#000000;stroke-linecap:round;"/>
   </g>
   <g id="patch_9">
    <path clip-path="url(#p5823218ba5)" d="M 445.754703 292.2194 
Q 310.242152 304.475176 175.843091 316.630247 
" style="fill:none;stroke:#000000;stroke-linecap:round;"/>
    <path clip-path="url(#p5823218ba5)" d="M 180.006977 318.261828 
L 175.843091 316.630247 
L 179.646687 314.278087 
L 180.006977 318.261828 
z
" style="stroke:#000000;stroke-linecap:round;"/>
   </g>
   <g id="patch_10">
    <path clip-path="url(#p5823218ba5)" d="M 371.91087 235.57348 
Q 341.297159 189.151233 311.298959 143.662339 
" style="fill:none;stroke:#000000;stroke-linecap:round;"/>
    <path clip-path="url(#p5823218ba5)" d="M 311.831445 148.102661 
L 311.298959 143.662339 
L 315.170708 145.900544 
L 311.831445 148.102661 
z
" style="stroke:#000000;stroke-linecap:round;"/>
   </g>
   <g id="patch_11">
    <path clip-path="url(#p5823218ba5)" d="M 371.450715 249.708453 
Q 311.539326 328.902646 252.302467 407.205207 
" style="fill:none;stroke:#000000;stroke-linecap:round;"/>
    <path clip-path="url(#p5823218ba5)" d="M 256.310743 405.221843 
L 252.302467 407.205207 
L 253.120742 402.808568 
L 256.310743 405.221843 
z
" style="stroke:#000000;stroke-linecap:round;"/>
   </g>
   <g id="patch_12">
    <path clip-path="url(#p5823218ba5)" d="M 384.151146 238.420076 
Q 469.556193 188.369039 553.996645 138.883296 
" style="fill:none;stroke:#000000;stroke-linecap:round;"/>
    <path clip-path="url(#p5823218ba5)" d="M 549.534378 139.180234 
L 553.996645 138.883296 
L 551.556835 142.631273 
L 549.534378 139.180234 
z
" style="stroke:#000000;stroke-linecap:round;"/>
   </g>
   <g id="patch_13">
    <path clip-path="url(#p5823218ba5)" d="M 534.206607 413.204674 
Q 528.428782 417.499977 523.548213 421.128249 
" style="fill:none;stroke:#000000;stroke-linecap:round;"/>
    <path clip-path="url(#p5823218ba5)" d="M 527.951558 420.346867 
L 523.548213 421.128249 
L 525.565115 417.136744 
L 527.951558 420.346867 
z
" style="stroke:#000000;stroke-linecap:round;"/>
   </g>
   <g id="patch_14">
    <path clip-path="url(#p5823218ba5)" d="M 532.555146 407.070635 
Q 522.965686 405.994305 514.487283 405.04268 
" style="fill:none;stroke:#000000;stroke-linecap:round;"/>
    <path clip-path="url(#p5823218ba5)" d="M 518.239242 407.476363 
L 514.487283 405.04268 
L 518.685404 403.501323 
L 518.239242 407.476363 
z
" style="stroke:#000000;stroke-linecap:round;"/>
   </g>
   <g id="patch_15">
    <path clip-path="url(#p5823218ba5)" d="M 537.965947 416.091099 
Q 534.300527 425.337999 531.047101 433.545543 
" style="fill:none;stroke:#000000;stroke-linecap:round;"/>
    <path clip-path="url(#p5823218ba5)" d="M 534.380355 430.56403 
L 531.047101 433.545543 
L 530.661843 429.090033 
L 534.380355 430.56403 
z
" style="stroke:#000000;stroke-linecap:round;"/>
   </g>
   <g id="patch_16">
    <path clip-path="url(#p5823218ba5)" d="M 474.97893 390.160008 
Q 492.12685 405.658225 508.44531 420.406779 
" style="fill:none;stroke:#000000;stroke-linecap:round;"/>
    <path clip-path="url(#p5823218ba5)" d="M 506.818779 416.240918 
L 508.44531 420.406779 
L 504.136702 419.208487 
L 506.818779 416.240918 
z
" style="stroke:#000000;stroke-linecap:round;"/>
   </g>
   <g id="patch_17">
    <path clip-path="url(#p5823218ba5)" d="M 476.168869 388.473702 
Q 486.66285 394.152499 496.17354 399.29919 
" style="fill:none;stroke:#000000;stroke-linecap:round;"/>
    <path clip-path="url(#p5823218ba5)" d="M 493.60747 395.636503 
L 496.17354 399.29919 
L 491.703748 399.154434 
L 493.60747 395.636503 
z
" style="stroke:#000000;stroke-linecap:round;"/>
   </g>
   <g id="patch_18">
    <path clip-path="url(#p5823218ba5)" d="M 474.708619 390.444672 
Q 497.997186 413.494132 520.491115 435.757112 
" style="fill:none;stroke:#000000;stroke-linecap:round;"/>
    <path clip-path="url(#p5823218ba5)" d="M 519.055028 431.521825 
L 520.491115 435.757112 
L 516.241233 434.364809 
L 519.055028 431.521825 
z
" style="stroke:#000000;stroke-linecap:round;"/>
   </g>
   <g id="patch_19">
    <path clip-path="url(#p5823218ba5)" d="M 507.859969 465.664697 
Q 510.919891 450.558688 513.757848 436.548459 
" style="fill:none;stroke:#000000;stroke-linecap:round;"/>
    <path clip-path="url(#p5823218ba5)" d="M 511.003534 440.071775 
L 513.757848 436.548459 
L 514.923913 440.865899 
L 511.003534 440.071775 
z
" style="stroke:#000000;stroke-linecap:round;"/>
   </g>
   <g id="patch_20">
    <path clip-path="url(#p5823218ba5)" d="M 505.971786 465.493352 
Q 505.456288 439.051778 504.962582 413.728025 
" style="fill:none;stroke:#000000;stroke-linecap:round;"/>
    <path clip-path="url(#p5823218ba5)" d="M 503.04093 417.76625 
L 504.962582 413.728025 
L 507.04017 417.688281 
L 503.04093 417.76625 
z
" style="stroke:#000000;stroke-linecap:round;"/>
   </g>
   <g id="patch_21">
    <path clip-path="url(#p5823218ba5)" d="M 510.990342 466.977971 
Q 516.791564 458.395574 521.966675 450.739452 
" style="fill:none;stroke:#000000;stroke-linecap:round;"/>
    <path clip-path="url(#p5823218ba5)" d="M 518.069663 452.933375 
L 521.966675 450.739452 
L 521.383606 455.173416 
L 518.069663 452.933375 
z
" style="stroke:#000000;stroke-linecap:round;"/>
   </g>
   <g id="patch_22">
    <path clip-path="url(#p5823218ba5)" d="M 507.185208 428.547427 
Q 420.512551 444.675575 334.939059 460.599188 
" style="fill:none;stroke:#000000;stroke-linecap:round;"/>
    <path clip-path="url(#p5823218ba5)" d="M 339.237437 461.833672 
L 334.939059 460.599188 
L 338.505673 457.901177 
L 339.237437 461.833672 
z
" style="stroke:#000000;stroke-linecap:round;"/>
   </g>
   <g id="patch_23">
    <path clip-path="url(#p5823218ba5)" d="M 524.038614 424.627011 
Q 612.018764 399.980814 698.922326 375.636205 
" style="fill:none;stroke:#000000;stroke-linecap:round;"/>
    <path clip-path="url(#p5823218ba5)" d="M 694.531105 374.789341 
L 698.922326 375.636205 
L 695.610102 378.641063 
L 694.531105 374.789341 
z
" style="stroke:#000000;stroke-linecap:round;"/>
   </g>
   <g id="patch_24">
    <path clip-path="url(#p5823218ba5)" d="M 496.538326 406.633468 
Q 415.046931 433.170607 334.618623 459.361559 
" style="fill:none;stroke:#000000;stroke-linecap:round;"/>
    <path clip-path="url(#p5823218ba5)" d="M 339.041318 460.02471 
L 334.618623 459.361559 
L 337.80276 456.221293 
L 339.041318 460.02471 
z
" style="stroke:#000000;stroke-linecap:round;"/>
   </g>
   <g id="patch_25">
    <path clip-path="url(#p5823218ba5)" d="M 513.335666 402.650065 
Q 606.556099 388.475289 698.671203 374.468586 
" style="fill:none;stroke:#000000;stroke-linecap:round;"/>
    <path clip-path="url(#p5823218ba5)" d="M 694.416001 373.092628 
L 698.671203 374.468586 
L 695.017316 377.047172 
L 694.416001 373.092628 
z
" style="stroke:#000000;stroke-linecap:round;"/>
   </g>
   <g id="patch_26">
    <path clip-path="url(#p5823218ba5)" d="M 518.822977 443.479997 
Q 426.382486 452.513139 335.05473 461.437546 
" style="fill:none;stroke:#000000;stroke-linecap:round;"/>
    <path clip-path="url(#p5823218ba5)" d="M 339.230278 463.039044 
L 335.05473 461.437546 
L 338.841257 459.058006 
L 339.230278 463.039044 
z
" style="stroke:#000000;stroke-linecap:round;"/>
   </g>
   <g id="patch_27">
    <path clip-path="url(#p5823218ba5)" d="M 535.52773 439.52529 
Q 617.891376 407.817725 699.211635 376.511833 
" style="fill:none;stroke:#000000;stroke-linecap:round;"/>
    <path clip-path="url(#p5823218ba5)" d="M 694.760162 376.082435 
L 699.211635 376.511833 
L 696.197232 379.815373 
L 694.760162 376.082435 
z
" style="stroke:#000000;stroke-linecap:round;"/>
   </g>
   <g id="patch_28">
    <path clip-path="url(#p5823218ba5)" d="M 548.890962 434.705128 
Q 484.275076 449.965395 420.74729 464.968686 
" style="fill:none;stroke:#000000;stroke-linecap:round;"/>
    <path clip-path="url(#p5823218ba5)" d="M 425.09989 465.995756 
L 420.74729 464.968686 
L 424.180506 462.102848 
L 425.09989 465.995756 
z
" style="stroke:#000000;stroke-linecap:round;"/>
   </g>
   <g id="patch_29">
    <path clip-path="url(#p5823218ba5)" d="M 494.097088 393.641008 
Q 455.900637 427.553806 418.540246 460.724307 
" style="fill:none;stroke:#000000;stroke-linecap:round;"/>
    <path clip-path="url(#p5823218ba5)" d="M 422.859284 459.564173 
L 418.540246 460.724307 
L 420.203561 456.572997 
L 422.859284 459.564173 
z
" style="stroke:#000000;stroke-linecap:round;"/>
   </g>
   <g id="patch_30">
    <path clip-path="url(#p5823218ba5)" d="M 322.095922 220.355896 
Q 351.325658 169.000926 380.002349 118.617624 
" style="fill:none;stroke:#000000;stroke-linecap:round;"/>
    <path clip-path="url(#p5823218ba5)" d="M 376.285539 121.104656 
L 380.002349 118.617624 
L 379.761888 123.083291 
L 376.285539 121.104656 
z
" style="stroke:#000000;stroke-linecap:round;"/>
   </g>
   <g id="patch_31">
    <path clip-path="url(#p5823218ba5)" d="M 310.35445 232.29008 
Q 241.957613 272.698315 174.52337 312.537858 
" style="fill:none;stroke:#000000;stroke-linecap:round;"/>
    <path clip-path="url(#p5823218ba5)" d="M 178.984562 312.225184 
L 174.52337 312.537858 
L 176.949946 308.7813 
L 178.984562 312.225184 
z
" style="stroke:#000000;stroke-linecap:round;"/>
   </g>
   <g id="patch_32">
    <path clip-path="url(#p5823218ba5)" d="M 247.14402 191.996248 
Q 312.270397 153.27089 376.435794 115.116949 
" style="fill:none;stroke:#000000;stroke-linecap:round;"/>
    <path clip-path="url(#p5823218ba5)" d="M 371.975505 115.442258 
L 376.435794 115.116949 
L 374.019868 118.880365 
L 371.975505 115.442258 
z
" style="stroke:#000000;stroke-linecap:round;"/>
   </g>
   <g id="patch_33">
    <path clip-path="url(#p5823218ba5)" d="M 235.202033 203.82397 
Q 202.902784 256.967263 171.184213 309.155142 
" style="fill:none;stroke:#000000;stroke-linecap:round;"/>
    <path clip-path="url(#p5823218ba5)" d="M 174.970803 306.775701 
L 171.184213 309.155142 
L 171.552614 304.698206 
L 174.970803 306.775701 
z
" style="stroke:#000000;stroke-linecap:round;"/>
   </g>
   <g id="patch_34">
    <path clip-path="url(#p5823218ba5)" d="M 268.648096 202.138965 
Q 323.348245 158.818527 377.17193 116.192216 
" style="fill:none;stroke:#000000;stroke-linecap:round;"/>
    <path clip-path="url(#p5823218ba5)" d="M 372.794507 117.107731 
L 377.17193 116.192216 
L 375.277888 120.243463 
L 372.794507 117.107731 
z
" style="stroke:#000000;stroke-linecap:round;"/>
   </g>
   <g id="patch_35">
    <path clip-path="url(#p5823218ba5)" d="M 256.175249 214.044748 
Q 213.984049 262.511348 172.526938 310.134673 
" style="fill:none;stroke:#000000;stroke-linecap:round;"/>
    <path clip-path="url(#p5823218ba5)" d="M 176.661792 308.430858 
L 172.526938 310.134673 
L 173.644798 305.804501 
L 176.661792 308.430858 
z
" style="stroke:#000000;stroke-linecap:round;"/>
   </g>
   <g id="PathCollection_1">
    <defs>
     <path d="M 0 8.660254 
C 2.296726 8.660254 4.499694 7.747755 6.123724 6.123724 
C 7.747755 4.499694 8.660254 2.296726 8.660254 -0 
C 8.660254 -2.296726 7.747755 -4.499694 6.123724 -6.123724 
C 4.499694 -7.747755 2.296726 -8.660254 0 -8.660254 
C -2.296726 -8.660254 -4.499694 -7.747755 -6.123724 -6.123724 
C -7.747755 -4.499694 -8.660254 -2.296726 -8.660254 0 
C -8.660254 2.296726 -7.747755 4.499694 -6.123724 6.123724 
C -4.499694 7.747755 -2.296726 8.660254 0 8.660254 
z
" id="C0_0_f2641036a3"/>
    </defs>
    <g clip-path="url(#p5823218ba5)">
     <use style="fill:#ff0000;stroke:#ff0000;" x="305.916325" xlink:href="#C0_0_f2641036a3" y="135.500181"/>
    </g>
    <g clip-path="url(#p5823218ba5)">
     <use style="fill:#ff0000;stroke:#ff0000;" x="246.401658" xlink:href="#C0_0_f2641036a3" y="415.005223"/>
    </g>
    <g clip-path="url(#p5823218ba5)">
     <use style="fill:#ff0000;stroke:#ff0000;" x="562.43413" xlink:href="#C0_0_f2641036a3" y="133.938567"/>
    </g>
    <g clip-path="url(#p5823218ba5)">
     <use style="fill:#008000;stroke:#008000;" x="719.494215" xlink:href="#C0_0_f2641036a3" y="269.427979"/>
    </g>
    <g clip-path="url(#p5823218ba5)">
     <use style="fill:#ff0000;stroke:#ff0000;" x="359.572206" xlink:href="#C0_0_f2641036a3" y="256.635786"/>
    </g>
    <g clip-path="url(#p5823218ba5)">
     <use style="fill:#ff0000;stroke:#ff0000;" x="418.301335" xlink:href="#C0_0_f2641036a3" y="203.671025"/>
    </g>
    <g clip-path="url(#p5823218ba5)">
     <use style="fill:#008000;stroke:#008000;" x="454.380602" xlink:href="#C0_0_f2641036a3" y="291.439273"/>
    </g>
    <g clip-path="url(#p5823218ba5)">
     <use style="fill:#ff0000;stroke:#ff0000;" x="411.227468" xlink:href="#C0_0_f2641036a3" y="467.216972"/>
    </g>
    <g clip-path="url(#p5823218ba5)">
     <use style="fill:#ff0000;stroke:#ff0000;" x="376.676746" xlink:href="#C0_0_f2641036a3" y="242.800395"/>
    </g>
    <g clip-path="url(#p5823218ba5)">
     <use style="fill:#008000;stroke:#008000;" x="556.74749" xlink:href="#C0_0_f2641036a3" y="468.566128"/>
    </g>
    <g clip-path="url(#p5823218ba5)">
     <use style="fill:#ff0000;stroke:#ff0000;" x="541.158817" xlink:href="#C0_0_f2641036a3" y="408.03632"/>
    </g>
    <g clip-path="url(#p5823218ba5)">
     <use style="fill:#ff0000;stroke:#ff0000;" x="468.553305" xlink:href="#C0_0_f2641036a3" y="384.352555"/>
    </g>
    <g clip-path="url(#p5823218ba5)">
     <use style="fill:#ff0000;stroke:#ff0000;" x="506.140607" xlink:href="#C0_0_f2641036a3" y="474.152727"/>
    </g>
    <g clip-path="url(#p5823218ba5)">
     <use style="fill:#ff0000;stroke:#ff0000;" x="325.323448" xlink:href="#C0_0_f2641036a3" y="462.388472"/>
    </g>
    <g clip-path="url(#p5823218ba5)">
     <use style="fill:#ff0000;stroke:#ff0000;" x="708.337" xlink:href="#C0_0_f2641036a3" y="372.998838"/>
    </g>
    <g clip-path="url(#p5823218ba5)">
     <use style="fill:#ff0000;stroke:#ff0000;" x="515.699493" xlink:href="#C0_0_f2641036a3" y="426.963079"/>
    </g>
    <g clip-path="url(#p5823218ba5)">
     <use style="fill:#ff0000;stroke:#ff0000;" x="504.771996" xlink:href="#C0_0_f2641036a3" y="403.952227"/>
    </g>
    <g clip-path="url(#p5823218ba5)">
     <use style="fill:#ff0000;stroke:#ff0000;" x="527.443037" xlink:href="#C0_0_f2641036a3" y="442.637658"/>
    </g>
    <g clip-path="url(#p5823218ba5)">
     <use style="fill:#008000;stroke:#008000;" x="384.838708" xlink:href="#C0_0_f2641036a3" y="110.120419"/>
    </g>
    <g clip-path="url(#p5823218ba5)">
     <use style="fill:#ff0000;stroke:#ff0000;" x="166.105785" xlink:href="#C0_0_f2641036a3" y="317.510891"/>
    </g>
    <g clip-path="url(#p5823218ba5)">
     <use style="fill:#ff0000;stroke:#ff0000;" x="477.93115" xlink:href="#C0_0_f2641036a3" y="107.607273"/>
    </g>
    <g clip-path="url(#p5823218ba5)">
     <use style="fill:#ff0000;stroke:#ff0000;" x="192.447897" xlink:href="#C0_0_f2641036a3" y="372.082717"/>
    </g>
    <g clip-path="url(#p5823218ba5)">
     <use style="fill:#ff0000;stroke:#ff0000;" x="644.020404" xlink:href="#C0_0_f2641036a3" y="158.717059"/>
    </g>
    <g clip-path="url(#p5823218ba5)">
     <use style="fill:#ff0000;stroke:#ff0000;" x="188.076882" xlink:href="#C0_0_f2641036a3" y="267.141009"/>
    </g>
    <g clip-path="url(#p5823218ba5)">
     <use style="fill:#ff0000;stroke:#ff0000;" x="557.321887" xlink:href="#C0_0_f2641036a3" y="432.714005"/>
    </g>
    <g clip-path="url(#p5823218ba5)">
     <use style="fill:#ff0000;stroke:#ff0000;" x="500.572769" xlink:href="#C0_0_f2641036a3" y="387.891562"/>
    </g>
    <g clip-path="url(#p5823218ba5)">
     <use style="fill:#ff0000;stroke:#ff0000;" x="317.81052" xlink:href="#C0_0_f2641036a3" y="227.885102"/>
    </g>
    <g clip-path="url(#p5823218ba5)">
     <use style="fill:#ff0000;stroke:#ff0000;" x="239.700645" xlink:href="#C0_0_f2641036a3" y="196.422218"/>
    </g>
    <g clip-path="url(#p5823218ba5)">
     <use style="fill:#ff0000;stroke:#ff0000;" x="261.858833" xlink:href="#C0_0_f2641036a3" y="207.515804"/>
    </g>
   </g>
   <g id="text_1">
    <g clip-path="url(#p5823218ba5)">
     <!-- CYBA -->
     <g transform="translate(289.946013 138.811431)scale(0.12 -0.12)">
      <defs>
       <path d="M 64.40625 67.28125 
L 64.40625 56.890625 
Q 59.421875 61.53125 53.78125 63.8125 
Q 48.140625 66.109375 41.796875 66.109375 
Q 29.296875 66.109375 22.65625 58.46875 
Q 16.015625 50.828125 16.015625 36.375 
Q 16.015625 21.96875 22.65625 14.328125 
Q 29.296875 6.6875 41.796875 6.6875 
Q 48.140625 6.6875 53.78125 8.984375 
Q 59.421875 11.28125 64.40625 15.921875 
L 64.40625 5.609375 
Q 59.234375 2.09375 53.4375 0.328125 
Q 47.65625 -1.421875 41.21875 -1.421875 
Q 24.65625 -1.421875 15.125 8.703125 
Q 5.609375 18.84375 5.609375 36.375 
Q 5.609375 53.953125 15.125 64.078125 
Q 24.65625 74.21875 41.21875 74.21875 
Q 47.75 74.21875 53.53125 72.484375 
Q 59.328125 70.75 64.40625 67.28125 
z
" id="DejaVuSans-67"/>
       <path d="M -0.203125 72.90625 
L 10.40625 72.90625 
L 30.609375 42.921875 
L 50.6875 72.90625 
L 61.28125 72.90625 
L 35.5 34.71875 
L 35.5 0 
L 25.59375 0 
L 25.59375 34.71875 
z
" id="DejaVuSans-89"/>
       <path d="M 19.671875 34.8125 
L 19.671875 8.109375 
L 35.5 8.109375 
Q 43.453125 8.109375 47.28125 11.40625 
Q 51.125 14.703125 51.125 21.484375 
Q 51.125 28.328125 47.28125 31.5625 
Q 43.453125 34.8125 35.5 34.8125 
z
M 19.671875 64.796875 
L 19.671875 42.828125 
L 34.28125 42.828125 
Q 41.5 42.828125 45.03125 45.53125 
Q 48.578125 48.25 48.578125 53.8125 
Q 48.578125 59.328125 45.03125 62.0625 
Q 41.5 64.796875 34.28125 64.796875 
z
M 9.8125 72.90625 
L 35.015625 72.90625 
Q 46.296875 72.90625 52.390625 68.21875 
Q 58.5 63.53125 58.5 54.890625 
Q 58.5 48.1875 55.375 44.234375 
Q 52.25 40.28125 46.1875 39.3125 
Q 53.46875 37.75 57.5 32.78125 
Q 61.53125 27.828125 61.53125 20.40625 
Q 61.53125 10.640625 54.890625 5.3125 
Q 48.25 0 35.984375 0 
L 9.8125 0 
z
" id="DejaVuSans-66"/>
       <path d="M 34.1875 63.1875 
L 20.796875 26.90625 
L 47.609375 26.90625 
z
M 28.609375 72.90625 
L 39.796875 72.90625 
L 67.578125 0 
L 57.328125 0 
L 50.6875 18.703125 
L 17.828125 18.703125 
L 11.1875 0 
L 0.78125 0 
z
" id="DejaVuSans-65"/>
      </defs>
      <use xlink:href="#DejaVuSans-67"/>
      <use x="68.074219" xlink:href="#DejaVuSans-89"/>
      <use x="129.158203" xlink:href="#DejaVuSans-66"/>
      <use x="197.761719" xlink:href="#DejaVuSans-65"/>
     </g>
    </g>
   </g>
   <g id="text_2">
    <g clip-path="url(#p5823218ba5)">
     <!-- NCF1 -->
     <g transform="translate(230.454783 418.316473)scale(0.12 -0.12)">
      <defs>
       <path d="M 9.8125 72.90625 
L 23.09375 72.90625 
L 55.421875 11.921875 
L 55.421875 72.90625 
L 64.984375 72.90625 
L 64.984375 0 
L 51.703125 0 
L 19.390625 60.984375 
L 19.390625 0 
L 9.8125 0 
z
" id="DejaVuSans-78"/>
       <path d="M 9.8125 72.90625 
L 51.703125 72.90625 
L 51.703125 64.59375 
L 19.671875 64.59375 
L 19.671875 43.109375 
L 48.578125 43.109375 
L 48.578125 34.8125 
L 19.671875 34.8125 
L 19.671875 0 
L 9.8125 0 
z
" id="DejaVuSans-70"/>
       <path d="M 12.40625 8.296875 
L 28.515625 8.296875 
L 28.515625 63.921875 
L 10.984375 60.40625 
L 10.984375 69.390625 
L 28.421875 72.90625 
L 38.28125 72.90625 
L 38.28125 8.296875 
L 54.390625 8.296875 
L 54.390625 0 
L 12.40625 0 
z
" id="DejaVuSans-49"/>
      </defs>
      <use xlink:href="#DejaVuSans-78"/>
      <use x="74.804688" xlink:href="#DejaVuSans-67"/>
      <use x="144.628906" xlink:href="#DejaVuSans-70"/>
      <use x="202.148438" xlink:href="#DejaVuSans-49"/>
     </g>
    </g>
   </g>
   <g id="text_3">
    <g clip-path="url(#p5823218ba5)">
     <!-- NCF2 -->
     <g transform="translate(546.487255 137.249817)scale(0.12 -0.12)">
      <defs>
       <path d="M 19.1875 8.296875 
L 53.609375 8.296875 
L 53.609375 0 
L 7.328125 0 
L 7.328125 8.296875 
Q 12.9375 14.109375 22.625 23.890625 
Q 32.328125 33.6875 34.8125 36.53125 
Q 39.546875 41.84375 41.421875 45.53125 
Q 43.3125 49.21875 43.3125 52.78125 
Q 43.3125 58.59375 39.234375 62.25 
Q 35.15625 65.921875 28.609375 65.921875 
Q 23.96875 65.921875 18.8125 64.3125 
Q 13.671875 62.703125 7.8125 59.421875 
L 7.8125 69.390625 
Q 13.765625 71.78125 18.9375 73 
Q 24.125 74.21875 28.421875 74.21875 
Q 39.75 74.21875 46.484375 68.546875 
Q 53.21875 62.890625 53.21875 53.421875 
Q 53.21875 48.921875 51.53125 44.890625 
Q 49.859375 40.875 45.40625 35.40625 
Q 44.1875 33.984375 37.640625 27.21875 
Q 31.109375 20.453125 19.1875 8.296875 
z
" id="DejaVuSans-50"/>
      </defs>
      <use xlink:href="#DejaVuSans-78"/>
      <use x="74.804688" xlink:href="#DejaVuSans-67"/>
      <use x="144.628906" xlink:href="#DejaVuSans-70"/>
      <use x="202.148438" xlink:href="#DejaVuSans-50"/>
     </g>
    </g>
   </g>
   <g id="text_4">
    <g clip-path="url(#p5823218ba5)">
     <!-- NQO1 -->
     <g transform="translate(701.741715 272.739229)scale(0.12 -0.12)">
      <defs>
       <path d="M 39.40625 66.21875 
Q 28.65625 66.21875 22.328125 58.203125 
Q 16.015625 50.203125 16.015625 36.375 
Q 16.015625 22.609375 22.328125 14.59375 
Q 28.65625 6.59375 39.40625 6.59375 
Q 50.140625 6.59375 56.421875 14.59375 
Q 62.703125 22.609375 62.703125 36.375 
Q 62.703125 50.203125 56.421875 58.203125 
Q 50.140625 66.21875 39.40625 66.21875 
z
M 53.21875 1.3125 
L 66.21875 -12.890625 
L 54.296875 -12.890625 
L 43.5 -1.21875 
Q 41.890625 -1.3125 41.03125 -1.359375 
Q 40.1875 -1.421875 39.40625 -1.421875 
Q 24.03125 -1.421875 14.8125 8.859375 
Q 5.609375 19.140625 5.609375 36.375 
Q 5.609375 53.65625 14.8125 63.9375 
Q 24.03125 74.21875 39.40625 74.21875 
Q 54.734375 74.21875 63.90625 63.9375 
Q 73.09375 53.65625 73.09375 36.375 
Q 73.09375 23.6875 67.984375 14.640625 
Q 62.890625 5.609375 53.21875 1.3125 
z
" id="DejaVuSans-81"/>
       <path d="M 39.40625 66.21875 
Q 28.65625 66.21875 22.328125 58.203125 
Q 16.015625 50.203125 16.015625 36.375 
Q 16.015625 22.609375 22.328125 14.59375 
Q 28.65625 6.59375 39.40625 6.59375 
Q 50.140625 6.59375 56.421875 14.59375 
Q 62.703125 22.609375 62.703125 36.375 
Q 62.703125 50.203125 56.421875 58.203125 
Q 50.140625 66.21875 39.40625 66.21875 
z
M 39.40625 74.21875 
Q 54.734375 74.21875 63.90625 63.9375 
Q 73.09375 53.65625 73.09375 36.375 
Q 73.09375 19.140625 63.90625 8.859375 
Q 54.734375 -1.421875 39.40625 -1.421875 
Q 24.03125 -1.421875 14.8125 8.828125 
Q 5.609375 19.09375 5.609375 36.375 
Q 5.609375 53.65625 14.8125 63.9375 
Q 24.03125 74.21875 39.40625 74.21875 
z
" id="DejaVuSans-79"/>
      </defs>
      <use xlink:href="#DejaVuSans-78"/>
      <use x="74.804688" xlink:href="#DejaVuSans-81"/>
      <use x="153.515625" xlink:href="#DejaVuSans-79"/>
      <use x="232.226562" xlink:href="#DejaVuSans-49"/>
     </g>
    </g>
   </g>
   <g id="text_5">
    <g clip-path="url(#p5823218ba5)">
     <!-- MAP3K14 -->
     <g transform="translate(331.285956 259.947036)scale(0.12 -0.12)">
      <defs>
       <path d="M 9.8125 72.90625 
L 24.515625 72.90625 
L 43.109375 23.296875 
L 61.8125 72.90625 
L 76.515625 72.90625 
L 76.515625 0 
L 66.890625 0 
L 66.890625 64.015625 
L 48.09375 14.015625 
L 38.1875 14.015625 
L 19.390625 64.015625 
L 19.390625 0 
L 9.8125 0 
z
" id="DejaVuSans-77"/>
       <path d="M 19.671875 64.796875 
L 19.671875 37.40625 
L 32.078125 37.40625 
Q 38.96875 37.40625 42.71875 40.96875 
Q 46.484375 44.53125 46.484375 51.125 
Q 46.484375 57.671875 42.71875 61.234375 
Q 38.96875 64.796875 32.078125 64.796875 
z
M 9.8125 72.90625 
L 32.078125 72.90625 
Q 44.34375 72.90625 50.609375 67.359375 
Q 56.890625 61.8125 56.890625 51.125 
Q 56.890625 40.328125 50.609375 34.8125 
Q 44.34375 29.296875 32.078125 29.296875 
L 19.671875 29.296875 
L 19.671875 0 
L 9.8125 0 
z
" id="DejaVuSans-80"/>
       <path d="M 40.578125 39.3125 
Q 47.65625 37.796875 51.625 33 
Q 55.609375 28.21875 55.609375 21.1875 
Q 55.609375 10.40625 48.1875 4.484375 
Q 40.765625 -1.421875 27.09375 -1.421875 
Q 22.515625 -1.421875 17.65625 -0.515625 
Q 12.796875 0.390625 7.625 2.203125 
L 7.625 11.71875 
Q 11.71875 9.328125 16.59375 8.109375 
Q 21.484375 6.890625 26.8125 6.890625 
Q 36.078125 6.890625 40.9375 10.546875 
Q 45.796875 14.203125 45.796875 21.1875 
Q 45.796875 27.640625 41.28125 31.265625 
Q 36.765625 34.90625 28.71875 34.90625 
L 20.21875 34.90625 
L 20.21875 43.015625 
L 29.109375 43.015625 
Q 36.375 43.015625 40.234375 45.921875 
Q 44.09375 48.828125 44.09375 54.296875 
Q 44.09375 59.90625 40.109375 62.90625 
Q 36.140625 65.921875 28.71875 65.921875 
Q 24.65625 65.921875 20.015625 65.03125 
Q 15.375 64.15625 9.8125 62.3125 
L 9.8125 71.09375 
Q 15.4375 72.65625 20.34375 73.4375 
Q 25.25 74.21875 29.59375 74.21875 
Q 40.828125 74.21875 47.359375 69.109375 
Q 53.90625 64.015625 53.90625 55.328125 
Q 53.90625 49.265625 50.4375 45.09375 
Q 46.96875 40.921875 40.578125 39.3125 
z
" id="DejaVuSans-51"/>
       <path d="M 9.8125 72.90625 
L 19.671875 72.90625 
L 19.671875 42.09375 
L 52.390625 72.90625 
L 65.09375 72.90625 
L 28.90625 38.921875 
L 67.671875 0 
L 54.6875 0 
L 19.671875 35.109375 
L 19.671875 0 
L 9.8125 0 
z
" id="DejaVuSans-75"/>
       <path d="M 37.796875 64.3125 
L 12.890625 25.390625 
L 37.796875 25.390625 
z
M 35.203125 72.90625 
L 47.609375 72.90625 
L 47.609375 25.390625 
L 58.015625 25.390625 
L 58.015625 17.1875 
L 47.609375 17.1875 
L 47.609375 0 
L 37.796875 0 
L 37.796875 17.1875 
L 4.890625 17.1875 
L 4.890625 26.703125 
z
" id="DejaVuSans-52"/>
      </defs>
      <use xlink:href="#DejaVuSans-77"/>
      <use x="86.279297" xlink:href="#DejaVuSans-65"/>
      <use x="154.6875" xlink:href="#DejaVuSans-80"/>
      <use x="214.990234" xlink:href="#DejaVuSans-51"/>
      <use x="278.613281" xlink:href="#DejaVuSans-75"/>
      <use x="344.189453" xlink:href="#DejaVuSans-49"/>
      <use x="407.8125" xlink:href="#DejaVuSans-52"/>
     </g>
    </g>
   </g>
   <g id="text_6">
    <g clip-path="url(#p5823218ba5)">
     <!-- MAP3K5 -->
     <g transform="translate(393.832585 206.982275)scale(0.12 -0.12)">
      <defs>
       <path d="M 10.796875 72.90625 
L 49.515625 72.90625 
L 49.515625 64.59375 
L 19.828125 64.59375 
L 19.828125 46.734375 
Q 21.96875 47.46875 24.109375 47.828125 
Q 26.265625 48.1875 28.421875 48.1875 
Q 40.625 48.1875 47.75 41.5 
Q 54.890625 34.8125 54.890625 23.390625 
Q 54.890625 11.625 47.5625 5.09375 
Q 40.234375 -1.421875 26.90625 -1.421875 
Q 22.3125 -1.421875 17.546875 -0.640625 
Q 12.796875 0.140625 7.71875 1.703125 
L 7.71875 11.625 
Q 12.109375 9.234375 16.796875 8.0625 
Q 21.484375 6.890625 26.703125 6.890625 
Q 35.15625 6.890625 40.078125 11.328125 
Q 45.015625 15.765625 45.015625 23.390625 
Q 45.015625 31 40.078125 35.4375 
Q 35.15625 39.890625 26.703125 39.890625 
Q 22.75 39.890625 18.8125 39.015625 
Q 14.890625 38.140625 10.796875 36.28125 
z
" id="DejaVuSans-53"/>
      </defs>
      <use xlink:href="#DejaVuSans-77"/>
      <use x="86.279297" xlink:href="#DejaVuSans-65"/>
      <use x="154.6875" xlink:href="#DejaVuSans-80"/>
      <use x="214.990234" xlink:href="#DejaVuSans-51"/>
      <use x="278.613281" xlink:href="#DejaVuSans-75"/>
      <use x="344.189453" xlink:href="#DejaVuSans-53"/>
     </g>
    </g>
   </g>
   <g id="text_7">
    <g clip-path="url(#p5823218ba5)">
     <!-- NFE2L2 -->
     <g transform="translate(431.671539 294.750523)scale(0.12 -0.12)">
      <defs>
       <path d="M 9.8125 72.90625 
L 55.90625 72.90625 
L 55.90625 64.59375 
L 19.671875 64.59375 
L 19.671875 43.015625 
L 54.390625 43.015625 
L 54.390625 34.71875 
L 19.671875 34.71875 
L 19.671875 8.296875 
L 56.78125 8.296875 
L 56.78125 0 
L 9.8125 0 
z
" id="DejaVuSans-69"/>
       <path d="M 9.8125 72.90625 
L 19.671875 72.90625 
L 19.671875 8.296875 
L 55.171875 8.296875 
L 55.171875 0 
L 9.8125 0 
z
" id="DejaVuSans-76"/>
      </defs>
      <use xlink:href="#DejaVuSans-78"/>
      <use x="74.804688" xlink:href="#DejaVuSans-70"/>
      <use x="132.324219" xlink:href="#DejaVuSans-69"/>
      <use x="195.507812" xlink:href="#DejaVuSans-50"/>
      <use x="259.130859" xlink:href="#DejaVuSans-76"/>
      <use x="314.84375" xlink:href="#DejaVuSans-50"/>
     </g>
    </g>
   </g>
   <g id="text_8">
    <g clip-path="url(#p5823218ba5)">
     <!-- NFKBIA -->
     <g transform="translate(389.362156 470.528222)scale(0.12 -0.12)">
      <defs>
       <path d="M 9.8125 72.90625 
L 19.671875 72.90625 
L 19.671875 0 
L 9.8125 0 
z
" id="DejaVuSans-73"/>
      </defs>
      <use xlink:href="#DejaVuSans-78"/>
      <use x="74.804688" xlink:href="#DejaVuSans-70"/>
      <use x="132.324219" xlink:href="#DejaVuSans-75"/>
      <use x="197.900391" xlink:href="#DejaVuSans-66"/>
      <use x="266.503906" xlink:href="#DejaVuSans-73"/>
      <use x="295.996094" xlink:href="#DejaVuSans-65"/>
     </g>
    </g>
   </g>
   <g id="text_9">
    <g clip-path="url(#p5823218ba5)">
     <!-- RAC1 -->
     <g transform="translate(360.741121 246.111645)scale(0.12 -0.12)">
      <defs>
       <path d="M 44.390625 34.1875 
Q 47.5625 33.109375 50.5625 29.59375 
Q 53.5625 26.078125 56.59375 19.921875 
L 66.609375 0 
L 56 0 
L 46.6875 18.703125 
Q 43.0625 26.03125 39.671875 28.421875 
Q 36.28125 30.8125 30.421875 30.8125 
L 19.671875 30.8125 
L 19.671875 0 
L 9.8125 0 
L 9.8125 72.90625 
L 32.078125 72.90625 
Q 44.578125 72.90625 50.734375 67.671875 
Q 56.890625 62.453125 56.890625 51.90625 
Q 56.890625 45.015625 53.6875 40.46875 
Q 50.484375 35.9375 44.390625 34.1875 
z
M 19.671875 64.796875 
L 19.671875 38.921875 
L 32.078125 38.921875 
Q 39.203125 38.921875 42.84375 42.21875 
Q 46.484375 45.515625 46.484375 51.90625 
Q 46.484375 58.296875 42.84375 61.546875 
Q 39.203125 64.796875 32.078125 64.796875 
z
" id="DejaVuSans-82"/>
      </defs>
      <use xlink:href="#DejaVuSans-82"/>
      <use x="65.482422" xlink:href="#DejaVuSans-65"/>
      <use x="132.140625" xlink:href="#DejaVuSans-67"/>
      <use x="201.964844" xlink:href="#DejaVuSans-49"/>
     </g>
    </g>
   </g>
   <g id="text_10">
    <g clip-path="url(#p5823218ba5)">
     <!-- HMOX1 -->
     <g transform="translate(534.790302 471.877378)scale(0.12 -0.12)">
      <defs>
       <path d="M 9.8125 72.90625 
L 19.671875 72.90625 
L 19.671875 43.015625 
L 55.515625 43.015625 
L 55.515625 72.90625 
L 65.375 72.90625 
L 65.375 0 
L 55.515625 0 
L 55.515625 34.71875 
L 19.671875 34.71875 
L 19.671875 0 
L 9.8125 0 
z
" id="DejaVuSans-72"/>
       <path d="M 6.296875 72.90625 
L 16.890625 72.90625 
L 35.015625 45.796875 
L 53.21875 72.90625 
L 63.8125 72.90625 
L 40.375 37.890625 
L 65.375 0 
L 54.78125 0 
L 34.28125 31 
L 13.625 0 
L 2.984375 0 
L 29 38.921875 
z
" id="DejaVuSans-88"/>
      </defs>
      <use xlink:href="#DejaVuSans-72"/>
      <use x="75.195312" xlink:href="#DejaVuSans-77"/>
      <use x="161.474609" xlink:href="#DejaVuSans-79"/>
      <use x="233.810547" xlink:href="#DejaVuSans-88"/>
      <use x="302.316406" xlink:href="#DejaVuSans-49"/>
     </g>
    </g>
   </g>
   <g id="text_11">
    <g clip-path="url(#p5823218ba5)">
     <!-- HRAS -->
     <g transform="translate(524.80413 411.34757)scale(0.12 -0.12)">
      <defs>
       <path d="M 53.515625 70.515625 
L 53.515625 60.890625 
Q 47.90625 63.578125 42.921875 64.890625 
Q 37.9375 66.21875 33.296875 66.21875 
Q 25.25 66.21875 20.875 63.09375 
Q 16.5 59.96875 16.5 54.203125 
Q 16.5 49.359375 19.40625 46.890625 
Q 22.3125 44.4375 30.421875 42.921875 
L 36.375 41.703125 
Q 47.40625 39.59375 52.65625 34.296875 
Q 57.90625 29 57.90625 20.125 
Q 57.90625 9.515625 50.796875 4.046875 
Q 43.703125 -1.421875 29.984375 -1.421875 
Q 24.8125 -1.421875 18.96875 -0.25 
Q 13.140625 0.921875 6.890625 3.21875 
L 6.890625 13.375 
Q 12.890625 10.015625 18.65625 8.296875 
Q 24.421875 6.59375 29.984375 6.59375 
Q 38.421875 6.59375 43.015625 9.90625 
Q 47.609375 13.234375 47.609375 19.390625 
Q 47.609375 24.75 44.3125 27.78125 
Q 41.015625 30.8125 33.5 32.328125 
L 27.484375 33.5 
Q 16.453125 35.6875 11.515625 40.375 
Q 6.59375 45.0625 6.59375 53.421875 
Q 6.59375 63.09375 13.40625 68.65625 
Q 20.21875 74.21875 32.171875 74.21875 
Q 37.3125 74.21875 42.625 73.28125 
Q 47.953125 72.359375 53.515625 70.515625 
z
" id="DejaVuSans-83"/>
      </defs>
      <use xlink:href="#DejaVuSans-72"/>
      <use x="75.195312" xlink:href="#DejaVuSans-82"/>
      <use x="140.677734" xlink:href="#DejaVuSans-65"/>
      <use x="209.085938" xlink:href="#DejaVuSans-83"/>
     </g>
    </g>
   </g>
   <g id="text_12">
    <g clip-path="url(#p5823218ba5)">
     <!-- KRAS -->
     <g transform="translate(452.776118 387.663805)scale(0.12 -0.12)">
      <use xlink:href="#DejaVuSans-75"/>
      <use x="65.576172" xlink:href="#DejaVuSans-82"/>
      <use x="131.058594" xlink:href="#DejaVuSans-65"/>
      <use x="199.466797" xlink:href="#DejaVuSans-83"/>
     </g>
    </g>
   </g>
   <g id="text_13">
    <g clip-path="url(#p5823218ba5)">
     <!-- NRAS -->
     <g transform="translate(489.809357 477.463977)scale(0.12 -0.12)">
      <use xlink:href="#DejaVuSans-78"/>
      <use x="74.804688" xlink:href="#DejaVuSans-82"/>
      <use x="140.287109" xlink:href="#DejaVuSans-65"/>
      <use x="208.695312" xlink:href="#DejaVuSans-83"/>
     </g>
    </g>
   </g>
   <g id="text_14">
    <g clip-path="url(#p5823218ba5)">
     <!-- MAP2K1 -->
     <g transform="translate(300.854698 465.699722)scale(0.12 -0.12)">
      <use xlink:href="#DejaVuSans-77"/>
      <use x="86.279297" xlink:href="#DejaVuSans-65"/>
      <use x="154.6875" xlink:href="#DejaVuSans-80"/>
      <use x="214.990234" xlink:href="#DejaVuSans-50"/>
      <use x="278.613281" xlink:href="#DejaVuSans-75"/>
      <use x="344.189453" xlink:href="#DejaVuSans-49"/>
     </g>
    </g>
   </g>
   <g id="text_15">
    <g clip-path="url(#p5823218ba5)">
     <!-- MAP2K2 -->
     <g transform="translate(683.86825 376.310088)scale(0.12 -0.12)">
      <use xlink:href="#DejaVuSans-77"/>
      <use x="86.279297" xlink:href="#DejaVuSans-65"/>
      <use x="154.6875" xlink:href="#DejaVuSans-80"/>
      <use x="214.990234" xlink:href="#DejaVuSans-50"/>
      <use x="278.613281" xlink:href="#DejaVuSans-75"/>
      <use x="344.189453" xlink:href="#DejaVuSans-50"/>
     </g>
    </g>
   </g>
   <g id="text_16">
    <g clip-path="url(#p5823218ba5)">
     <!-- BRAF -->
     <g transform="translate(500.098556 430.274329)scale(0.12 -0.12)">
      <use xlink:href="#DejaVuSans-66"/>
      <use x="68.603516" xlink:href="#DejaVuSans-82"/>
      <use x="134.085938" xlink:href="#DejaVuSans-65"/>
      <use x="202.494141" xlink:href="#DejaVuSans-70"/>
     </g>
    </g>
   </g>
   <g id="text_17">
    <g clip-path="url(#p5823218ba5)">
     <!-- RAF1 -->
     <g transform="translate(489.470121 407.263477)scale(0.12 -0.12)">
      <use xlink:href="#DejaVuSans-82"/>
      <use x="65.482422" xlink:href="#DejaVuSans-65"/>
      <use x="133.890625" xlink:href="#DejaVuSans-70"/>
      <use x="191.410156" xlink:href="#DejaVuSans-49"/>
     </g>
    </g>
   </g>
   <g id="text_18">
    <g clip-path="url(#p5823218ba5)">
     <!-- ARAF -->
     <g transform="translate(511.854287 445.948908)scale(0.12 -0.12)">
      <use xlink:href="#DejaVuSans-65"/>
      <use x="68.408203" xlink:href="#DejaVuSans-82"/>
      <use x="133.890625" xlink:href="#DejaVuSans-65"/>
      <use x="202.298828" xlink:href="#DejaVuSans-70"/>
     </g>
    </g>
   </g>
   <g id="text_19">
    <g clip-path="url(#p5823218ba5)">
     <!-- AKR1A1 -->
     <g transform="translate(360.891208 113.431669)scale(0.12 -0.12)">
      <use xlink:href="#DejaVuSans-65"/>
      <use x="68.408203" xlink:href="#DejaVuSans-75"/>
      <use x="133.984375" xlink:href="#DejaVuSans-82"/>
      <use x="203.466797" xlink:href="#DejaVuSans-49"/>
      <use x="267.089844" xlink:href="#DejaVuSans-65"/>
      <use x="335.498047" xlink:href="#DejaVuSans-49"/>
     </g>
    </g>
   </g>
   <g id="text_20">
    <g clip-path="url(#p5823218ba5)">
     <!-- AKR1C3 -->
     <g transform="translate(142.072973 320.822141)scale(0.12 -0.12)">
      <use xlink:href="#DejaVuSans-65"/>
      <use x="68.408203" xlink:href="#DejaVuSans-75"/>
      <use x="133.984375" xlink:href="#DejaVuSans-82"/>
      <use x="203.466797" xlink:href="#DejaVuSans-49"/>
      <use x="267.089844" xlink:href="#DejaVuSans-67"/>
      <use x="336.914062" xlink:href="#DejaVuSans-51"/>
     </g>
    </g>
   </g>
   <g id="text_21">
    <g clip-path="url(#p5823218ba5)">
     <!-- RELA -->
     <g transform="translate(462.388338 110.918523)scale(0.12 -0.12)">
      <use xlink:href="#DejaVuSans-82"/>
      <use x="69.482422" xlink:href="#DejaVuSans-69"/>
      <use x="132.666016" xlink:href="#DejaVuSans-76"/>
      <use x="190.628906" xlink:href="#DejaVuSans-65"/>
     </g>
    </g>
   </g>
   <g id="text_22">
    <g clip-path="url(#p5823218ba5)">
     <!-- NFKB1 -->
     <g transform="translate(172.639459 375.393967)scale(0.12 -0.12)">
      <use xlink:href="#DejaVuSans-78"/>
      <use x="74.804688" xlink:href="#DejaVuSans-70"/>
      <use x="132.324219" xlink:href="#DejaVuSans-75"/>
      <use x="197.900391" xlink:href="#DejaVuSans-66"/>
      <use x="266.503906" xlink:href="#DejaVuSans-49"/>
     </g>
    </g>
   </g>
   <g id="text_23">
    <g clip-path="url(#p5823218ba5)">
     <!-- MAP2K4 -->
     <g transform="translate(619.551654 162.028309)scale(0.12 -0.12)">
      <use xlink:href="#DejaVuSans-77"/>
      <use x="86.279297" xlink:href="#DejaVuSans-65"/>
      <use x="154.6875" xlink:href="#DejaVuSans-80"/>
      <use x="214.990234" xlink:href="#DejaVuSans-50"/>
      <use x="278.613281" xlink:href="#DejaVuSans-75"/>
      <use x="344.189453" xlink:href="#DejaVuSans-52"/>
     </g>
    </g>
   </g>
   <g id="text_24">
    <g clip-path="url(#p5823218ba5)">
     <!-- MAP2K7 -->
     <g transform="translate(163.608132 270.452259)scale(0.12 -0.12)">
      <defs>
       <path d="M 8.203125 72.90625 
L 55.078125 72.90625 
L 55.078125 68.703125 
L 28.609375 0 
L 18.3125 0 
L 43.21875 64.59375 
L 8.203125 64.59375 
z
" id="DejaVuSans-55"/>
      </defs>
      <use xlink:href="#DejaVuSans-77"/>
      <use x="86.279297" xlink:href="#DejaVuSans-65"/>
      <use x="154.6875" xlink:href="#DejaVuSans-80"/>
      <use x="214.990234" xlink:href="#DejaVuSans-50"/>
      <use x="278.613281" xlink:href="#DejaVuSans-75"/>
      <use x="344.189453" xlink:href="#DejaVuSans-55"/>
     </g>
    </g>
   </g>
   <g id="text_25">
    <g clip-path="url(#p5823218ba5)">
     <!-- IKBKB -->
     <g transform="translate(539.449387 436.025255)scale(0.12 -0.12)">
      <use xlink:href="#DejaVuSans-73"/>
      <use x="29.492188" xlink:href="#DejaVuSans-75"/>
      <use x="95.068359" xlink:href="#DejaVuSans-66"/>
      <use x="163.671875" xlink:href="#DejaVuSans-75"/>
      <use x="229.248047" xlink:href="#DejaVuSans-66"/>
     </g>
    </g>
   </g>
   <g id="text_26">
    <g clip-path="url(#p5823218ba5)">
     <!-- IKBKG -->
     <g transform="translate(482.167769 391.202812)scale(0.12 -0.12)">
      <defs>
       <path d="M 59.515625 10.40625 
L 59.515625 29.984375 
L 43.40625 29.984375 
L 43.40625 38.09375 
L 69.28125 38.09375 
L 69.28125 6.78125 
Q 63.578125 2.734375 56.6875 0.65625 
Q 49.8125 -1.421875 42 -1.421875 
Q 24.90625 -1.421875 15.25 8.5625 
Q 5.609375 18.5625 5.609375 36.375 
Q 5.609375 54.25 15.25 64.234375 
Q 24.90625 74.21875 42 74.21875 
Q 49.125 74.21875 55.546875 72.453125 
Q 61.96875 70.703125 67.390625 67.28125 
L 67.390625 56.78125 
Q 61.921875 61.421875 55.765625 63.765625 
Q 49.609375 66.109375 42.828125 66.109375 
Q 29.4375 66.109375 22.71875 58.640625 
Q 16.015625 51.171875 16.015625 36.375 
Q 16.015625 21.625 22.71875 14.15625 
Q 29.4375 6.6875 42.828125 6.6875 
Q 48.046875 6.6875 52.140625 7.59375 
Q 56.25 8.5 59.515625 10.40625 
z
" id="DejaVuSans-71"/>
      </defs>
      <use xlink:href="#DejaVuSans-73"/>
      <use x="29.492188" xlink:href="#DejaVuSans-75"/>
      <use x="95.068359" xlink:href="#DejaVuSans-66"/>
      <use x="163.671875" xlink:href="#DejaVuSans-75"/>
      <use x="229.248047" xlink:href="#DejaVuSans-71"/>
     </g>
    </g>
   </g>
   <g id="text_27">
    <g clip-path="url(#p5823218ba5)">
     <!-- EPHX1 -->
     <g transform="translate(297.96177 231.196352)scale(0.12 -0.12)">
      <use xlink:href="#DejaVuSans-69"/>
      <use x="63.183594" xlink:href="#DejaVuSans-80"/>
      <use x="123.486328" xlink:href="#DejaVuSans-72"/>
      <use x="198.681641" xlink:href="#DejaVuSans-88"/>
      <use x="267.1875" xlink:href="#DejaVuSans-49"/>
     </g>
    </g>
   </g>
   <g id="text_28">
    <g clip-path="url(#p5823218ba5)">
     <!-- EPHX2 -->
     <g transform="translate(219.851895 199.733468)scale(0.12 -0.12)">
      <use xlink:href="#DejaVuSans-69"/>
      <use x="63.183594" xlink:href="#DejaVuSans-80"/>
      <use x="123.486328" xlink:href="#DejaVuSans-72"/>
      <use x="198.681641" xlink:href="#DejaVuSans-88"/>
      <use x="267.1875" xlink:href="#DejaVuSans-50"/>
     </g>
    </g>
   </g>
   <g id="text_29">
    <g clip-path="url(#p5823218ba5)">
     <!-- EPHX4 -->
     <g transform="translate(242.010083 210.827054)scale(0.12 -0.12)">
      <use xlink:href="#DejaVuSans-69"/>
      <use x="63.183594" xlink:href="#DejaVuSans-80"/>
      <use x="123.486328" xlink:href="#DejaVuSans-72"/>
      <use x="198.681641" xlink:href="#DejaVuSans-88"/>
      <use x="267.1875" xlink:href="#DejaVuSans-52"/>
     </g>
    </g>
   </g>
   <g id="text_30">
    <!-- Frame: 11 -->
    <g transform="translate(121.392 91.296)scale(0.1 -0.1)">
     <defs>
      <path d="M 41.109375 46.296875 
Q 39.59375 47.171875 37.8125 47.578125 
Q 36.03125 48 33.890625 48 
Q 26.265625 48 22.1875 43.046875 
Q 18.109375 38.09375 18.109375 28.8125 
L 18.109375 0 
L 9.078125 0 
L 9.078125 54.6875 
L 18.109375 54.6875 
L 18.109375 46.1875 
Q 20.953125 51.171875 25.484375 53.578125 
Q 30.03125 56 36.53125 56 
Q 37.453125 56 38.578125 55.875 
Q 39.703125 55.765625 41.0625 55.515625 
z
" id="DejaVuSans-114"/>
      <path d="M 34.28125 27.484375 
Q 23.390625 27.484375 19.1875 25 
Q 14.984375 22.515625 14.984375 16.5 
Q 14.984375 11.71875 18.140625 8.90625 
Q 21.296875 6.109375 26.703125 6.109375 
Q 34.1875 6.109375 38.703125 11.40625 
Q 43.21875 16.703125 43.21875 25.484375 
L 43.21875 27.484375 
z
M 52.203125 31.203125 
L 52.203125 0 
L 43.21875 0 
L 43.21875 8.296875 
Q 40.140625 3.328125 35.546875 0.953125 
Q 30.953125 -1.421875 24.3125 -1.421875 
Q 15.921875 -1.421875 10.953125 3.296875 
Q 6 8.015625 6 15.921875 
Q 6 25.140625 12.171875 29.828125 
Q 18.359375 34.515625 30.609375 34.515625 
L 43.21875 34.515625 
L 43.21875 35.40625 
Q 43.21875 41.609375 39.140625 45 
Q 35.0625 48.390625 27.6875 48.390625 
Q 23 48.390625 18.546875 47.265625 
Q 14.109375 46.140625 10.015625 43.890625 
L 10.015625 52.203125 
Q 14.9375 54.109375 19.578125 55.046875 
Q 24.21875 56 28.609375 56 
Q 40.484375 56 46.34375 49.84375 
Q 52.203125 43.703125 52.203125 31.203125 
z
" id="DejaVuSans-97"/>
      <path d="M 52 44.1875 
Q 55.375 50.25 60.0625 53.125 
Q 64.75 56 71.09375 56 
Q 79.640625 56 84.28125 50.015625 
Q 88.921875 44.046875 88.921875 33.015625 
L 88.921875 0 
L 79.890625 0 
L 79.890625 32.71875 
Q 79.890625 40.578125 77.09375 44.375 
Q 74.3125 48.1875 68.609375 48.1875 
Q 61.625 48.1875 57.5625 43.546875 
Q 53.515625 38.921875 53.515625 30.90625 
L 53.515625 0 
L 44.484375 0 
L 44.484375 32.71875 
Q 44.484375 40.625 41.703125 44.40625 
Q 38.921875 48.1875 33.109375 48.1875 
Q 26.21875 48.1875 22.15625 43.53125 
Q 18.109375 38.875 18.109375 30.90625 
L 18.109375 0 
L 9.078125 0 
L 9.078125 54.6875 
L 18.109375 54.6875 
L 18.109375 46.1875 
Q 21.1875 51.21875 25.484375 53.609375 
Q 29.78125 56 35.6875 56 
Q 41.65625 56 45.828125 52.96875 
Q 50 49.953125 52 44.1875 
z
" id="DejaVuSans-109"/>
      <path d="M 56.203125 29.59375 
L 56.203125 25.203125 
L 14.890625 25.203125 
Q 15.484375 15.921875 20.484375 11.0625 
Q 25.484375 6.203125 34.421875 6.203125 
Q 39.59375 6.203125 44.453125 7.46875 
Q 49.3125 8.734375 54.109375 11.28125 
L 54.109375 2.78125 
Q 49.265625 0.734375 44.1875 -0.34375 
Q 39.109375 -1.421875 33.890625 -1.421875 
Q 20.796875 -1.421875 13.15625 6.1875 
Q 5.515625 13.8125 5.515625 26.8125 
Q 5.515625 40.234375 12.765625 48.109375 
Q 20.015625 56 32.328125 56 
Q 43.359375 56 49.78125 48.890625 
Q 56.203125 41.796875 56.203125 29.59375 
z
M 47.21875 32.234375 
Q 47.125 39.59375 43.09375 43.984375 
Q 39.0625 48.390625 32.421875 48.390625 
Q 24.90625 48.390625 20.390625 44.140625 
Q 15.875 39.890625 15.1875 32.171875 
z
" id="DejaVuSans-101"/>
      <path d="M 11.71875 12.40625 
L 22.015625 12.40625 
L 22.015625 0 
L 11.71875 0 
z
M 11.71875 51.703125 
L 22.015625 51.703125 
L 22.015625 39.3125 
L 11.71875 39.3125 
z
" id="DejaVuSans-58"/>
      <path id="DejaVuSans-32"/>
     </defs>
     <use xlink:href="#DejaVuSans-70"/>
     <use x="50.269531" xlink:href="#DejaVuSans-114"/>
     <use x="91.382812" xlink:href="#DejaVuSans-97"/>
     <use x="152.662109" xlink:href="#DejaVuSans-109"/>
     <use x="250.074219" xlink:href="#DejaVuSans-101"/>
     <use x="311.597656" xlink:href="#DejaVuSans-58"/>
     <use x="345.289062" xlink:href="#DejaVuSans-32"/>
     <use x="377.076172" xlink:href="#DejaVuSans-49"/>
     <use x="440.699219" xlink:href="#DejaVuSans-49"/>
    </g>
   </g>
   <g id="text_31">
    <!-- Network: hsa05208 -->
    <g transform="translate(384.1275 63.12)scale(0.12 -0.12)">
     <defs>
      <path d="M 18.3125 70.21875 
L 18.3125 54.6875 
L 36.8125 54.6875 
L 36.8125 47.703125 
L 18.3125 47.703125 
L 18.3125 18.015625 
Q 18.3125 11.328125 20.140625 9.421875 
Q 21.96875 7.515625 27.59375 7.515625 
L 36.8125 7.515625 
L 36.8125 0 
L 27.59375 0 
Q 17.1875 0 13.234375 3.875 
Q 9.28125 7.765625 9.28125 18.015625 
L 9.28125 47.703125 
L 2.6875 47.703125 
L 2.6875 54.6875 
L 9.28125 54.6875 
L 9.28125 70.21875 
z
" id="DejaVuSans-116"/>
      <path d="M 4.203125 54.6875 
L 13.1875 54.6875 
L 24.421875 12.015625 
L 35.59375 54.6875 
L 46.1875 54.6875 
L 57.421875 12.015625 
L 68.609375 54.6875 
L 77.59375 54.6875 
L 63.28125 0 
L 52.6875 0 
L 40.921875 44.828125 
L 29.109375 0 
L 18.5 0 
z
" id="DejaVuSans-119"/>
      <path d="M 30.609375 48.390625 
Q 23.390625 48.390625 19.1875 42.75 
Q 14.984375 37.109375 14.984375 27.296875 
Q 14.984375 17.484375 19.15625 11.84375 
Q 23.34375 6.203125 30.609375 6.203125 
Q 37.796875 6.203125 41.984375 11.859375 
Q 46.1875 17.53125 46.1875 27.296875 
Q 46.1875 37.015625 41.984375 42.703125 
Q 37.796875 48.390625 30.609375 48.390625 
z
M 30.609375 56 
Q 42.328125 56 49.015625 48.375 
Q 55.71875 40.765625 55.71875 27.296875 
Q 55.71875 13.875 49.015625 6.21875 
Q 42.328125 -1.421875 30.609375 -1.421875 
Q 18.84375 -1.421875 12.171875 6.21875 
Q 5.515625 13.875 5.515625 27.296875 
Q 5.515625 40.765625 12.171875 48.375 
Q 18.84375 56 30.609375 56 
z
" id="DejaVuSans-111"/>
      <path d="M 9.078125 75.984375 
L 18.109375 75.984375 
L 18.109375 31.109375 
L 44.921875 54.6875 
L 56.390625 54.6875 
L 27.390625 29.109375 
L 57.625 0 
L 45.90625 0 
L 18.109375 26.703125 
L 18.109375 0 
L 9.078125 0 
z
" id="DejaVuSans-107"/>
      <path d="M 54.890625 33.015625 
L 54.890625 0 
L 45.90625 0 
L 45.90625 32.71875 
Q 45.90625 40.484375 42.875 44.328125 
Q 39.84375 48.1875 33.796875 48.1875 
Q 26.515625 48.1875 22.3125 43.546875 
Q 18.109375 38.921875 18.109375 30.90625 
L 18.109375 0 
L 9.078125 0 
L 9.078125 75.984375 
L 18.109375 75.984375 
L 18.109375 46.1875 
Q 21.34375 51.125 25.703125 53.5625 
Q 30.078125 56 35.796875 56 
Q 45.21875 56 50.046875 50.171875 
Q 54.890625 44.34375 54.890625 33.015625 
z
" id="DejaVuSans-104"/>
      <path d="M 44.28125 53.078125 
L 44.28125 44.578125 
Q 40.484375 46.53125 36.375 47.5 
Q 32.28125 48.484375 27.875 48.484375 
Q 21.1875 48.484375 17.84375 46.4375 
Q 14.5 44.390625 14.5 40.28125 
Q 14.5 37.15625 16.890625 35.375 
Q 19.28125 33.59375 26.515625 31.984375 
L 29.59375 31.296875 
Q 39.15625 29.25 43.1875 25.515625 
Q 47.21875 21.78125 47.21875 15.09375 
Q 47.21875 7.46875 41.1875 3.015625 
Q 35.15625 -1.421875 24.609375 -1.421875 
Q 20.21875 -1.421875 15.453125 -0.5625 
Q 10.6875 0.296875 5.421875 2 
L 5.421875 11.28125 
Q 10.40625 8.6875 15.234375 7.390625 
Q 20.0625 6.109375 24.8125 6.109375 
Q 31.15625 6.109375 34.5625 8.28125 
Q 37.984375 10.453125 37.984375 14.40625 
Q 37.984375 18.0625 35.515625 20.015625 
Q 33.0625 21.96875 24.703125 23.78125 
L 21.578125 24.515625 
Q 13.234375 26.265625 9.515625 29.90625 
Q 5.8125 33.546875 5.8125 39.890625 
Q 5.8125 47.609375 11.28125 51.796875 
Q 16.75 56 26.8125 56 
Q 31.78125 56 36.171875 55.265625 
Q 40.578125 54.546875 44.28125 53.078125 
z
" id="DejaVuSans-115"/>
      <path d="M 31.78125 66.40625 
Q 24.171875 66.40625 20.328125 58.90625 
Q 16.5 51.421875 16.5 36.375 
Q 16.5 21.390625 20.328125 13.890625 
Q 24.171875 6.390625 31.78125 6.390625 
Q 39.453125 6.390625 43.28125 13.890625 
Q 47.125 21.390625 47.125 36.375 
Q 47.125 51.421875 43.28125 58.90625 
Q 39.453125 66.40625 31.78125 66.40625 
z
M 31.78125 74.21875 
Q 44.046875 74.21875 50.515625 64.515625 
Q 56.984375 54.828125 56.984375 36.375 
Q 56.984375 17.96875 50.515625 8.265625 
Q 44.046875 -1.421875 31.78125 -1.421875 
Q 19.53125 -1.421875 13.0625 8.265625 
Q 6.59375 17.96875 6.59375 36.375 
Q 6.59375 54.828125 13.0625 64.515625 
Q 19.53125 74.21875 31.78125 74.21875 
z
" id="DejaVuSans-48"/>
      <path d="M 31.78125 34.625 
Q 24.75 34.625 20.71875 30.859375 
Q 16.703125 27.09375 16.703125 20.515625 
Q 16.703125 13.921875 20.71875 10.15625 
Q 24.75 6.390625 31.78125 6.390625 
Q 38.8125 6.390625 42.859375 10.171875 
Q 46.921875 13.96875 46.921875 20.515625 
Q 46.921875 27.09375 42.890625 30.859375 
Q 38.875 34.625 31.78125 34.625 
z
M 21.921875 38.8125 
Q 15.578125 40.375 12.03125 44.71875 
Q 8.5 49.078125 8.5 55.328125 
Q 8.5 64.0625 14.71875 69.140625 
Q 20.953125 74.21875 31.78125 74.21875 
Q 42.671875 74.21875 48.875 69.140625 
Q 55.078125 64.0625 55.078125 55.328125 
Q 55.078125 49.078125 51.53125 44.71875 
Q 48 40.375 41.703125 38.8125 
Q 48.828125 37.15625 52.796875 32.3125 
Q 56.78125 27.484375 56.78125 20.515625 
Q 56.78125 9.90625 50.3125 4.234375 
Q 43.84375 -1.421875 31.78125 -1.421875 
Q 19.734375 -1.421875 13.25 4.234375 
Q 6.78125 9.90625 6.78125 20.515625 
Q 6.78125 27.484375 10.78125 32.3125 
Q 14.796875 37.15625 21.921875 38.8125 
z
M 18.3125 54.390625 
Q 18.3125 48.734375 21.84375 45.5625 
Q 25.390625 42.390625 31.78125 42.390625 
Q 38.140625 42.390625 41.71875 45.5625 
Q 45.3125 48.734375 45.3125 54.390625 
Q 45.3125 60.0625 41.71875 63.234375 
Q 38.140625 66.40625 31.78125 66.40625 
Q 25.390625 66.40625 21.84375 63.234375 
Q 18.3125 60.0625 18.3125 54.390625 
z
" id="DejaVuSans-56"/>
     </defs>
     <use xlink:href="#DejaVuSans-78"/>
     <use x="74.804688" xlink:href="#DejaVuSans-101"/>
     <use x="136.328125" xlink:href="#DejaVuSans-116"/>
     <use x="175.537109" xlink:href="#DejaVuSans-119"/>
     <use x="257.324219" xlink:href="#DejaVuSans-111"/>
     <use x="318.505859" xlink:href="#DejaVuSans-114"/>
     <use x="359.619141" xlink:href="#DejaVuSans-107"/>
     <use x="417.529297" xlink:href="#DejaVuSans-58"/>
     <use x="451.220703" xlink:href="#DejaVuSans-32"/>
     <use x="483.007812" xlink:href="#DejaVuSans-104"/>
     <use x="546.386719" xlink:href="#DejaVuSans-115"/>
     <use x="598.486328" xlink:href="#DejaVuSans-97"/>
     <use x="659.765625" xlink:href="#DejaVuSans-48"/>
     <use x="723.388672" xlink:href="#DejaVuSans-53"/>
     <use x="787.011719" xlink:href="#DejaVuSans-50"/>
     <use x="850.634766" xlink:href="#DejaVuSans-48"/>
     <use x="914.257812" xlink:href="#DejaVuSans-56"/>
    </g>
   </g>
  </g>
 </g>
 <defs>
  <clipPath id="p5823218ba5">
   <rect height="443.52" width="669.6" x="108" y="69.12"/>
  </clipPath>
 </defs>
</svg>
