<?xml version="1.0" encoding="utf-8" standalone="no"?>
<!DOCTYPE svg PUBLIC "-//W3C//DTD SVG 1.1//EN"
  "http://www.w3.org/Graphics/SVG/1.1/DTD/svg11.dtd">
<!-- Created with matplotlib (https://matplotlib.org/) -->
<svg height="576pt" version="1.1" viewBox="0 0 864 576" width="864pt" xmlns="http://www.w3.org/2000/svg" xmlns:xlink="http://www.w3.org/1999/xlink">
 <metadata>
  <rdf:RDF xmlns:cc="http://creativecommons.org/ns#" xmlns:dc="http://purl.org/dc/elements/1.1/" xmlns:rdf="http://www.w3.org/1999/02/22-rdf-syntax-ns#">
   <cc:Work>
    <dc:type rdf:resource="http://purl.org/dc/dcmitype/StillImage"/>
    <dc:date>2024-04-26T13:37:59.253417</dc:date>
    <dc:format>image/svg+xml</dc:format>
    <dc:creator>
     <cc:Agent>
      <dc:title>Matplotlib v3.3.1, https://matplotlib.org/</dc:title>
     </cc:Agent>
    </dc:creator>
   </cc:Work>
  </rdf:RDF>
 </metadata>
 <defs>
  <style type="text/css">*{stroke-linecap:butt;stroke-linejoin:round;}</style>
 </defs>
 <g id="figure_1">
  <g id="patch_1">
   <path d="M 0 576 
L 864 576 
L 864 0 
L 0 0 
z
" style="fill:#ffffff;"/>
  </g>
  <g id="axes_1">
   <g id="patch_2">
    <path clip-path="url(#pe5b1d1b1eb)" d="M 424.210883 208.123721 
Q 434.125697 234.531079 443.647524 259.891747 
" style="fill:none;stroke:#000000;stroke-linecap:round;"/>
    <path clip-path="url(#pe5b1d1b1eb)" d="M 444.113909 255.443997 
L 443.647524 259.891747 
L 440.369154 256.849989 
L 444.113909 255.443997 
z
" style="stroke:#000000;stroke-linecap:round;"/>
   </g>
   <g id="patch_3">
    <path clip-path="url(#pe5b1d1b1eb)" d="M 426.186615 207.069755 
Q 434.039079 218.10647 441.243389 228.232199 
" style="fill:none;stroke:#000000;stroke-linecap:round;"/>
    <path clip-path="url(#pe5b1d1b1eb)" d="M 440.554106 223.813501 
L 441.243389 228.232199 
L 437.294861 226.132407 
L 440.554106 223.813501 
z
" style="stroke:#000000;stroke-linecap:round;"/>
   </g>
   <g id="patch_4">
    <path clip-path="url(#pe5b1d1b1eb)" d="M 424.870897 207.841965 
Q 433.653061 226.398454 441.956953 243.944369 
" style="fill:none;stroke:#000000;stroke-linecap:round;"/>
    <path clip-path="url(#pe5b1d1b1eb)" d="M 442.05361 239.473278 
L 441.956953 243.944369 
L 438.438074 241.184389 
L 442.05361 239.473278 
z
" style="stroke:#000000;stroke-linecap:round;"/>
   </g>
   <g id="patch_5">
    <path clip-path="url(#pe5b1d1b1eb)" d="M 607.395822 235.087925 
Q 594.563376 186.122698 582.014365 138.238983 
" style="fill:none;stroke:#000000;stroke-linecap:round;"/>
    <path clip-path="url(#pe5b1d1b1eb)" d="M 581.093745 142.615335 
L 582.014365 138.238983 
L 584.963075 141.60129 
L 581.093745 142.615335 
z
" style="stroke:#000000;stroke-linecap:round;"/>
   </g>
   <g id="patch_6">
    <path clip-path="url(#pe5b1d1b1eb)" d="M 478.358813 111.858783 
Q 524.675014 119.603741 569.888493 127.164302 
" style="fill:none;stroke:#000000;stroke-linecap:round;"/>
    <path clip-path="url(#pe5b1d1b1eb)" d="M 566.27313 124.531975 
L 569.888493 127.164302 
L 565.613413 128.477196 
L 566.27313 124.531975 
z
" style="stroke:#000000;stroke-linecap:round;"/>
   </g>
   <g id="patch_7">
    <path clip-path="url(#pe5b1d1b1eb)" d="M 488.442696 243.843811 
Q 531.30193 189.704487 573.467207 136.441762 
" style="fill:none;stroke:#000000;stroke-linecap:round;"/>
    <path clip-path="url(#pe5b1d1b1eb)" d="M 569.416327 138.336589 
L 573.467207 136.441762 
L 572.55254 140.819363 
L 569.416327 138.336589 
z
" style="stroke:#000000;stroke-linecap:round;"/>
   </g>
   <g id="patch_8">
    <path clip-path="url(#pe5b1d1b1eb)" d="M 336.204733 258.412342 
Q 405.314571 254.750409 473.30794 251.147635 
" style="fill:none;stroke:#000000;stroke-linecap:round;"/>
    <path clip-path="url(#pe5b1d1b1eb)" d="M 469.207718 249.362088 
L 473.30794 251.147635 
L 469.41937 253.356485 
L 469.207718 249.362088 
z
" style="stroke:#000000;stroke-linecap:round;"/>
   </g>
   <g id="patch_9">
    <path clip-path="url(#pe5b1d1b1eb)" d="M 342.774788 280.688248 
Q 361.180822 268.706314 378.649867 257.334341 
" style="fill:none;stroke:#000000;stroke-linecap:round;"/>
    <path clip-path="url(#pe5b1d1b1eb)" d="M 374.206463 257.840462 
L 378.649867 257.334341 
L 376.388722 261.192737 
L 374.206463 257.840462 
z
" style="stroke:#000000;stroke-linecap:round;"/>
   </g>
   <g id="patch_10">
    <path clip-path="url(#pe5b1d1b1eb)" d="M 340.700886 278.472822 
Q 355.192226 259.074836 369.014436 240.572542 
" style="fill:none;stroke:#000000;stroke-linecap:round;"/>
    <path clip-path="url(#pe5b1d1b1eb)" d="M 365.01822 242.580092 
L 369.014436 240.572542 
L 368.222746 244.974045 
L 365.01822 242.580092 
z
" style="stroke:#000000;stroke-linecap:round;"/>
   </g>
   <g id="patch_11">
    <path clip-path="url(#pe5b1d1b1eb)" d="M 342.139796 279.837535 
Q 363.046936 262.237798 383.098752 245.358077 
" style="fill:none;stroke:#000000;stroke-linecap:round;"/>
    <path clip-path="url(#pe5b1d1b1eb)" d="M 378.750652 246.404034 
L 383.098752 245.358077 
L 381.326658 249.464131 
L 378.750652 246.404034 
z
" style="stroke:#000000;stroke-linecap:round;"/>
   </g>
   <g id="patch_12">
    <path clip-path="url(#pe5b1d1b1eb)" d="M 357.6909 250.16657 
Q 405.177646 231.763663 451.621904 213.76476 
" style="fill:none;stroke:#000000;stroke-linecap:round;"/>
    <path clip-path="url(#pe5b1d1b1eb)" d="M 447.169482 213.345308 
L 451.621904 213.76476 
L 448.614889 217.075026 
L 447.169482 213.345308 
z
" style="stroke:#000000;stroke-linecap:round;"/>
   </g>
   <g id="patch_13">
    <path clip-path="url(#pe5b1d1b1eb)" d="M 346.134408 261.227181 
Q 342.565197 269.356817 339.445436 276.462736 
" style="fill:none;stroke:#000000;stroke-linecap:round;"/>
    <path clip-path="url(#pe5b1d1b1eb)" d="M 342.884714 273.604176 
L 339.445436 276.462736 
L 339.222155 271.996178 
L 342.884714 273.604176 
z
" style="stroke:#000000;stroke-linecap:round;"/>
   </g>
   <g id="patch_14">
    <path clip-path="url(#pe5b1d1b1eb)" d="M 341.221482 255.41695 
Q 338.586848 256.082674 337.036178 256.474499 
" style="fill:none;stroke:#000000;stroke-linecap:round;"/>
    <path clip-path="url(#pe5b1d1b1eb)" d="M 341.404252 257.433628 
L 337.036178 256.474499 
L 340.424325 253.555517 
L 341.404252 257.433628 
z
" style="stroke:#000000;stroke-linecap:round;"/>
   </g>
   <g id="patch_15">
    <path clip-path="url(#pe5b1d1b1eb)" d="M 466.370424 216.811004 
Q 491.168298 245.76897 515.238957 273.877724 
" style="fill:none;stroke:#000000;stroke-linecap:round;"/>
    <path clip-path="url(#pe5b1d1b1eb)" d="M 514.156313 269.538614 
L 515.238957 273.877724 
L 511.118082 272.140373 
L 514.156313 269.538614 
z
" style="stroke:#000000;stroke-linecap:round;"/>
   </g>
   <g id="patch_16">
    <path clip-path="url(#pe5b1d1b1eb)" d="M 453.910564 204.903491 
Q 395.00592 158.920279 336.982575 113.625043 
" style="fill:none;stroke:#000000;stroke-linecap:round;"/>
    <path clip-path="url(#pe5b1d1b1eb)" d="M 338.904919 117.662938 
L 336.982575 113.625043 
L 341.366297 114.509905 
L 338.904919 117.662938 
z
" style="stroke:#000000;stroke-linecap:round;"/>
   </g>
   <g id="patch_17">
    <path clip-path="url(#pe5b1d1b1eb)" d="M 513.053541 279.91472 
Q 435.608302 267.301165 359.266558 254.867337 
" style="fill:none;stroke:#000000;stroke-linecap:round;"/>
    <path clip-path="url(#pe5b1d1b1eb)" d="M 362.893032 257.484336 
L 359.266558 254.867337 
L 363.536042 253.536357 
L 362.893032 257.484336 
z
" style="stroke:#000000;stroke-linecap:round;"/>
   </g>
   <g id="patch_18">
    <path clip-path="url(#pe5b1d1b1eb)" d="M 414.134635 343.844575 
Q 340.672872 386.985551 268.175193 429.560362 
" style="fill:none;stroke:#000000;stroke-linecap:round;"/>
    <path clip-path="url(#pe5b1d1b1eb)" d="M 272.63719 429.259392 
L 268.175193 429.560362 
L 270.611616 425.810183 
L 272.63719 429.259392 
z
" style="stroke:#000000;stroke-linecap:round;"/>
   </g>
   <g id="patch_19">
    <path clip-path="url(#pe5b1d1b1eb)" d="M 430.229209 340.182428 
Q 521.756225 347.843904 612.169103 355.41212 
" style="fill:none;stroke:#000000;stroke-linecap:round;"/>
    <path clip-path="url(#pe5b1d1b1eb)" d="M 608.349875 353.085428 
L 612.169103 355.41212 
L 608.016213 357.071487 
L 608.349875 353.085428 
z
" style="stroke:#000000;stroke-linecap:round;"/>
   </g>
   <g id="patch_20">
    <path clip-path="url(#pe5b1d1b1eb)" d="M 429.086548 335.106812 
Q 471.60137 310.38308 513.1497 286.221393 
" style="fill:none;stroke:#000000;stroke-linecap:round;"/>
    <path clip-path="url(#pe5b1d1b1eb)" d="M 508.686459 286.503317 
L 513.1497 286.221393 
L 510.697295 289.96114 
L 508.686459 286.503317 
z
" style="stroke:#000000;stroke-linecap:round;"/>
   </g>
   <g id="patch_21">
    <path clip-path="url(#pe5b1d1b1eb)" d="M 425.915952 331.954604 
Q 465.042222 263.904102 503.611213 196.822848 
" style="fill:none;stroke:#000000;stroke-linecap:round;"/>
    <path clip-path="url(#pe5b1d1b1eb)" d="M 499.883592 199.293645 
L 503.611213 196.822848 
L 503.351278 201.287423 
L 499.883592 199.293645 
z
" style="stroke:#000000;stroke-linecap:round;"/>
   </g>
   <g id="patch_22">
    <path clip-path="url(#pe5b1d1b1eb)" d="M 416.766695 346.642868 
Q 396.719318 376.431531 377.296168 405.292648 
" style="fill:none;stroke:#000000;stroke-linecap:round;"/>
    <path clip-path="url(#pe5b1d1b1eb)" d="M 381.188712 403.090808 
L 377.296168 405.292648 
L 377.870223 400.857508 
L 381.188712 403.090808 
z
" style="stroke:#000000;stroke-linecap:round;"/>
   </g>
   <g id="patch_23">
    <path clip-path="url(#pe5b1d1b1eb)" d="M 413.186464 341.503905 
Q 318.683751 364.45828 225.267482 387.148762 
" style="fill:none;stroke:#000000;stroke-linecap:round;"/>
    <path clip-path="url(#pe5b1d1b1eb)" d="M 229.626529 388.148119 
L 225.267482 387.148762 
L 228.682395 384.261139 
L 229.626529 388.148119 
z
" style="stroke:#000000;stroke-linecap:round;"/>
   </g>
   <g id="patch_24">
    <path clip-path="url(#pe5b1d1b1eb)" d="M 427.979564 333.599768 
Q 462.603478 301.790788 496.404063 270.7382 
" style="fill:none;stroke:#000000;stroke-linecap:round;"/>
    <path clip-path="url(#pe5b1d1b1eb)" d="M 492.105356 271.971535 
L 496.404063 270.7382 
L 494.811507 274.917167 
L 492.105356 271.971535 
z
" style="stroke:#000000;stroke-linecap:round;"/>
   </g>
   <g id="patch_25">
    <path clip-path="url(#pe5b1d1b1eb)" d="M 500.614477 191.952368 
Q 484.612566 199.287686 469.626993 206.157112 
" style="fill:none;stroke:#000000;stroke-linecap:round;"/>
    <path clip-path="url(#pe5b1d1b1eb)" d="M 474.09657 206.308367 
L 469.626993 206.157112 
L 472.429743 202.672203 
L 474.09657 206.308367 
z
" style="stroke:#000000;stroke-linecap:round;"/>
   </g>
   <g id="patch_26">
    <path clip-path="url(#pe5b1d1b1eb)" d="M 500.469557 191.621446 
Q 429.050591 220.820138 358.66651 249.595732 
" style="fill:none;stroke:#000000;stroke-linecap:round;"/>
    <path clip-path="url(#pe5b1d1b1eb)" d="M 363.12589 249.933266 
L 358.66651 249.595732 
L 361.612165 246.230748 
L 363.12589 249.933266 
z
" style="stroke:#000000;stroke-linecap:round;"/>
   </g>
   <g id="patch_27">
    <path clip-path="url(#pe5b1d1b1eb)" d="M 516.91498 186.364887 
Q 579.999498 171.552826 641.995582 156.996326 
" style="fill:none;stroke:#000000;stroke-linecap:round;"/>
    <path clip-path="url(#pe5b1d1b1eb)" d="M 637.644321 155.9636 
L 641.995582 156.996326 
L 638.558644 159.857699 
L 637.644321 155.9636 
z
" style="stroke:#000000;stroke-linecap:round;"/>
   </g>
   <g id="patch_28">
    <path clip-path="url(#pe5b1d1b1eb)" d="M 381.291662 306.273256 
Q 386.918111 383.694133 392.463523 459.999916 
" style="fill:none;stroke:#000000;stroke-linecap:round;"/>
    <path clip-path="url(#pe5b1d1b1eb)" d="M 394.168333 455.865473 
L 392.463523 459.999916 
L 390.178854 456.155402 
L 394.168333 455.865473 
z
" style="stroke:#000000;stroke-linecap:round;"/>
   </g>
   <g id="patch_29">
    <path clip-path="url(#pe5b1d1b1eb)" d="M 373.380094 292.955503 
Q 291.172683 240.137797 209.905894 187.924434 
" style="fill:none;stroke:#000000;stroke-linecap:round;"/>
    <path clip-path="url(#pe5b1d1b1eb)" d="M 212.190083 191.769233 
L 209.905894 187.924434 
L 214.352247 188.403963 
L 212.190083 191.769233 
z
" style="stroke:#000000;stroke-linecap:round;"/>
   </g>
   <g id="patch_30">
    <path clip-path="url(#pe5b1d1b1eb)" d="M 389.270316 296.638195 
Q 451.132631 289.471028 511.88434 282.432531 
" style="fill:none;stroke:#000000;stroke-linecap:round;"/>
    <path clip-path="url(#pe5b1d1b1eb)" d="M 507.680745 280.906168 
L 511.88434 282.432531 
L 508.141092 284.87959 
L 507.680745 280.906168 
z
" style="stroke:#000000;stroke-linecap:round;"/>
   </g>
   <g id="patch_31">
    <path clip-path="url(#pe5b1d1b1eb)" d="M 387.246558 292.006973 
Q 444.575304 242.989425 501.054287 194.698445 
" style="fill:none;stroke:#000000;stroke-linecap:round;"/>
    <path clip-path="url(#pe5b1d1b1eb)" d="M 496.714356 195.777796 
L 501.054287 194.698445 
L 499.313809 198.818 
L 496.714356 195.777796 
z
" style="stroke:#000000;stroke-linecap:round;"/>
   </g>
   <g id="patch_32">
    <path clip-path="url(#pe5b1d1b1eb)" d="M 544.099865 347.272864 
Q 526.551487 406.560005 509.320426 464.775087 
" style="fill:none;stroke:#000000;stroke-linecap:round;"/>
    <path clip-path="url(#pe5b1d1b1eb)" d="M 512.373455 461.50721 
L 509.320426 464.775087 
L 508.537942 460.371938 
L 512.373455 461.50721 
z
" style="stroke:#000000;stroke-linecap:round;"/>
   </g>
   <g id="patch_33">
    <path clip-path="url(#pe5b1d1b1eb)" d="M 552.833677 332.997855 
Q 618.135444 270.873455 682.62718 209.519672 
" style="fill:none;stroke:#000000;stroke-linecap:round;"/>
    <path clip-path="url(#pe5b1d1b1eb)" d="M 678.350605 210.827689 
L 682.62718 209.519672 
L 681.107648 213.725742 
L 678.350605 210.827689 
z
" style="stroke:#000000;stroke-linecap:round;"/>
   </g>
   <g id="patch_34">
    <path clip-path="url(#pe5b1d1b1eb)" d="M 363.680388 410.488113 
Q 275.516972 378.971725 188.406344 347.831685 
" style="fill:none;stroke:#000000;stroke-linecap:round;"/>
    <path clip-path="url(#pe5b1d1b1eb)" d="M 191.499682 351.061431 
L 188.406344 347.831685 
L 192.846144 347.294862 
L 191.499682 351.061431 
z
" style="stroke:#000000;stroke-linecap:round;"/>
   </g>
   <g id="patch_35">
    <path clip-path="url(#pe5b1d1b1eb)" d="M 380.404192 414.692683 
Q 476.311821 429.119403 571.113855 443.379816 
" style="fill:none;stroke:#000000;stroke-linecap:round;"/>
    <path clip-path="url(#pe5b1d1b1eb)" d="M 567.455854 440.807068 
L 571.113855 443.379816 
L 566.860856 444.762568 
L 567.455854 440.807068 
z
" style="stroke:#000000;stroke-linecap:round;"/>
   </g>
   <g id="patch_36">
    <path clip-path="url(#pe5b1d1b1eb)" d="M 494.650878 235.801123 
Q 497.821977 245.832566 500.656084 254.797971 
" style="fill:none;stroke:#000000;stroke-linecap:round;"/>
    <path clip-path="url(#pe5b1d1b1eb)" d="M 501.357413 250.381169 
L 500.656084 254.797971 
L 497.54344 251.586826 
L 501.357413 250.381169 
z
" style="stroke:#000000;stroke-linecap:round;"/>
   </g>
   <g id="patch_37">
    <path clip-path="url(#pe5b1d1b1eb)" d="M 483.517624 229.086103 
Q 420.827136 240.42066 359.236845 251.556299 
" style="fill:none;stroke:#000000;stroke-linecap:round;"/>
    <path clip-path="url(#pe5b1d1b1eb)" d="M 363.528861 252.812721 
L 359.236845 251.556299 
L 362.817192 248.876539 
L 363.528861 252.812721 
z
" style="stroke:#000000;stroke-linecap:round;"/>
   </g>
   <g id="patch_38">
    <path clip-path="url(#pe5b1d1b1eb)" d="M 494.961999 263.515887 
Q 426.607366 258.7094 359.368014 253.981336 
" style="fill:none;stroke:#000000;stroke-linecap:round;"/>
    <path clip-path="url(#pe5b1d1b1eb)" d="M 363.217874 256.256984 
L 359.368014 253.981336 
L 363.498449 252.266837 
L 363.217874 256.256984 
z
" style="stroke:#000000;stroke-linecap:round;"/>
   </g>
   <g id="patch_39">
    <path clip-path="url(#pe5b1d1b1eb)" d="M 438.470912 268.170827 
Q 310.387987 255.119739 183.417336 242.181987 
" style="fill:none;stroke:#000000;stroke-linecap:round;"/>
    <path clip-path="url(#pe5b1d1b1eb)" d="M 187.19399 244.577168 
L 183.417336 242.181987 
L 187.599473 240.597773 
L 187.19399 244.577168 
z
" style="stroke:#000000;stroke-linecap:round;"/>
   </g>
   <g id="patch_40">
    <path clip-path="url(#pe5b1d1b1eb)" d="M 455.735471 268.642563 
Q 583.290368 262.654737 709.728461 256.719336 
" style="fill:none;stroke:#000000;stroke-linecap:round;"/>
    <path clip-path="url(#pe5b1d1b1eb)" d="M 705.639078 254.909102 
L 709.728461 256.719336 
L 705.826644 258.904702 
L 705.639078 254.909102 
z
" style="stroke:#000000;stroke-linecap:round;"/>
   </g>
   <g id="patch_41">
    <path clip-path="url(#pe5b1d1b1eb)" d="M 438.25474 236.360364 
Q 310.300605 238.696398 183.464317 241.012024 
" style="fill:none;stroke:#000000;stroke-linecap:round;"/>
    <path clip-path="url(#pe5b1d1b1eb)" d="M 187.500158 242.938675 
L 183.464317 241.012024 
L 187.427143 238.939342 
L 187.500158 242.938675 
z
" style="stroke:#000000;stroke-linecap:round;"/>
   </g>
   <g id="patch_42">
    <path clip-path="url(#pe5b1d1b1eb)" d="M 455.552733 236.837982 
Q 583.204058 246.231584 709.740364 255.543135 
" style="fill:none;stroke:#000000;stroke-linecap:round;"/>
    <path clip-path="url(#pe5b1d1b1eb)" d="M 705.89793 253.25497 
L 709.740364 255.543135 
L 705.604372 257.244183 
L 705.89793 253.25497 
z
" style="stroke:#000000;stroke-linecap:round;"/>
   </g>
   <g id="patch_43">
    <path clip-path="url(#pe5b1d1b1eb)" d="M 437.487347 252.412169 
Q 309.912401 246.985332 183.454478 241.60601 
" style="fill:none;stroke:#000000;stroke-linecap:round;"/>
    <path clip-path="url(#pe5b1d1b1eb)" d="M 187.365864 243.774203 
L 183.454478 241.60601 
L 187.535864 239.777817 
L 187.365864 243.774203 
z
" style="stroke:#000000;stroke-linecap:round;"/>
   </g>
   <g id="patch_44">
    <path clip-path="url(#pe5b1d1b1eb)" d="M 454.80197 252.890494 
Q 582.81639 254.520541 709.712867 256.136352 
" style="fill:none;stroke:#000000;stroke-linecap:round;"/>
    <path clip-path="url(#pe5b1d1b1eb)" d="M 705.738656 254.085585 
L 709.712867 256.136352 
L 705.687727 258.085261 
L 705.738656 254.085585 
z
" style="stroke:#000000;stroke-linecap:round;"/>
   </g>
   <g id="patch_45">
    <path clip-path="url(#pe5b1d1b1eb)" d="M 394.452913 256.139897 
Q 466.702575 295.483227 537.970345 334.29187 
" style="fill:none;stroke:#000000;stroke-linecap:round;"/>
    <path clip-path="url(#pe5b1d1b1eb)" d="M 535.413898 330.622458 
L 537.970345 334.29187 
L 533.500947 334.13538 
L 535.413898 330.622458 
z
" style="stroke:#000000;stroke-linecap:round;"/>
   </g>
   <g id="patch_46">
    <path clip-path="url(#pe5b1d1b1eb)" d="M 392.076974 245.092794 
Q 440.858293 180.684119 488.964594 117.166708 
" style="fill:none;stroke:#000000;stroke-linecap:round;"/>
    <path clip-path="url(#pe5b1d1b1eb)" d="M 484.955236 119.14788 
L 488.964594 117.166708 
L 488.143917 121.562898 
L 484.955236 119.14788 
z
" style="stroke:#000000;stroke-linecap:round;"/>
   </g>
   <g id="patch_47">
    <path clip-path="url(#pe5b1d1b1eb)" d="M 378.342235 253.633656 
Q 276.477742 273.222567 175.711166 292.600345 
" style="fill:none;stroke:#000000;stroke-linecap:round;"/>
    <path clip-path="url(#pe5b1d1b1eb)" d="M 180.016882 293.808985 
L 175.711166 292.600345 
L 179.261508 289.880956 
L 180.016882 293.808985 
z
" style="stroke:#000000;stroke-linecap:round;"/>
   </g>
   <g id="patch_48">
    <path clip-path="url(#pe5b1d1b1eb)" d="M 382.229692 237.296891 
Q 460.711631 285.854354 538.242801 333.823568 
" style="fill:none;stroke:#000000;stroke-linecap:round;"/>
    <path clip-path="url(#pe5b1d1b1eb)" d="M 535.893517 330.018195 
L 538.242801 333.823568 
L 533.788932 333.419771 
L 535.893517 330.018195 
z
" style="stroke:#000000;stroke-linecap:round;"/>
   </g>
   <g id="patch_49">
    <path clip-path="url(#pe5b1d1b1eb)" d="M 380.902458 226.534127 
Q 434.864284 171.058897 488.046548 116.385092 
" style="fill:none;stroke:#000000;stroke-linecap:round;"/>
    <path clip-path="url(#pe5b1d1b1eb)" d="M 483.823868 117.857836 
L 488.046548 116.385092 
L 486.691135 120.646883 
L 483.823868 117.857836 
z
" style="stroke:#000000;stroke-linecap:round;"/>
   </g>
   <g id="patch_50">
    <path clip-path="url(#pe5b1d1b1eb)" d="M 366.560989 235.195207 
Q 270.485578 263.59401 175.482341 291.675891 
" style="fill:none;stroke:#000000;stroke-linecap:round;"/>
    <path clip-path="url(#pe5b1d1b1eb)" d="M 179.885201 292.459998 
L 175.482341 291.675891 
L 178.751343 288.624067 
L 179.885201 292.459998 
z
" style="stroke:#000000;stroke-linecap:round;"/>
   </g>
   <g id="patch_51">
    <path clip-path="url(#pe5b1d1b1eb)" d="M 397.874493 243.7331 
Q 468.56924 289.014687 538.322522 333.693245 
" style="fill:none;stroke:#000000;stroke-linecap:round;"/>
    <path clip-path="url(#pe5b1d1b1eb)" d="M 536.032968 329.851639 
L 538.322522 333.693245 
L 533.875504 333.219925 
L 536.032968 329.851639 
z
" style="stroke:#000000;stroke-linecap:round;"/>
   </g>
   <g id="patch_52">
    <path clip-path="url(#pe5b1d1b1eb)" d="M 396.007604 232.31066 
Q 442.723686 174.216572 488.739137 116.993757 
" style="fill:none;stroke:#000000;stroke-linecap:round;"/>
    <path clip-path="url(#pe5b1d1b1eb)" d="M 484.673905 118.857594 
L 488.739137 116.993757 
L 487.791067 121.364245 
L 484.673905 118.857594 
z
" style="stroke:#000000;stroke-linecap:round;"/>
   </g>
   <g id="patch_53">
    <path clip-path="url(#pe5b1d1b1eb)" d="M 382.170806 241.135412 
Q 278.34348 266.753862 175.601633 292.10448 
" style="fill:none;stroke:#000000;stroke-linecap:round;"/>
    <path clip-path="url(#pe5b1d1b1eb)" d="M 179.964275 293.088019 
L 175.601633 292.10448 
L 179.006049 289.20449 
L 179.964275 293.088019 
z
" style="stroke:#000000;stroke-linecap:round;"/>
   </g>
   <g id="PathCollection_1">
    <defs>
     <path d="M 0 8.660254 
C 2.296726 8.660254 4.499694 7.747755 6.123724 6.123724 
C 7.747755 4.499694 8.660254 2.296726 8.660254 -0 
C 8.660254 -2.296726 7.747755 -4.499694 6.123724 -6.123724 
C 4.499694 -7.747755 2.296726 -8.660254 0 -8.660254 
C -2.296726 -8.660254 -4.499694 -7.747755 -6.123724 -6.123724 
C -7.747755 -4.499694 -8.660254 -2.296726 -8.660254 0 
C -8.660254 2.296726 -7.747755 4.499694 -6.123724 6.123724 
C -4.499694 7.747755 -2.296726 8.660254 0 8.660254 
z
" id="C0_0_90946ee8f4"/>
    </defs>
    <g clip-path="url(#pe5b1d1b1eb)">
     <use style="fill:#ff0000;stroke:#ff0000;" x="421.165465" xlink:href="#C0_0_90946ee8f4" y="200.01248"/>
    </g>
    <g clip-path="url(#pe5b1d1b1eb)">
     <use style="fill:#ff0000;stroke:#ff0000;" x="579.534726" xlink:href="#C0_0_90946ee8f4" y="128.777338"/>
    </g>
    <g clip-path="url(#pe5b1d1b1eb)">
     <use style="fill:#ff0000;stroke:#ff0000;" x="609.590772" xlink:href="#C0_0_90946ee8f4" y="243.463274"/>
    </g>
    <g clip-path="url(#pe5b1d1b1eb)">
     <use style="fill:#ff0000;stroke:#ff0000;" x="469.817271" xlink:href="#C0_0_90946ee8f4" y="110.430473"/>
    </g>
    <g clip-path="url(#pe5b1d1b1eb)">
     <use style="fill:#ff0000;stroke:#ff0000;" x="483.070141" xlink:href="#C0_0_90946ee8f4" y="250.630364"/>
    </g>
    <g clip-path="url(#pe5b1d1b1eb)">
     <use style="fill:#ff0000;stroke:#ff0000;" x="327.55275" xlink:href="#C0_0_90946ee8f4" y="258.870785"/>
    </g>
    <g clip-path="url(#pe5b1d1b1eb)">
     <use style="fill:#ff0000;stroke:#ff0000;" x="215.767475" xlink:href="#C0_0_90946ee8f4" y="389.45628"/>
    </g>
    <g clip-path="url(#pe5b1d1b1eb)">
     <use style="fill:#ff0000;stroke:#ff0000;" x="335.515569" xlink:href="#C0_0_90946ee8f4" y="285.413844"/>
    </g>
    <g clip-path="url(#pe5b1d1b1eb)">
     <use style="fill:#ff0000;stroke:#ff0000;" x="349.616643" xlink:href="#C0_0_90946ee8f4" y="253.295649"/>
    </g>
    <g clip-path="url(#pe5b1d1b1eb)">
     <use style="fill:#ff0000;stroke:#ff0000;" x="460.736871" xlink:href="#C0_0_90946ee8f4" y="210.232366"/>
    </g>
    <g clip-path="url(#pe5b1d1b1eb)">
     <use style="fill:#ff0000;stroke:#ff0000;" x="521.600787" xlink:href="#C0_0_90946ee8f4" y="281.306815"/>
    </g>
    <g clip-path="url(#pe5b1d1b1eb)">
     <use style="fill:#ff0000;stroke:#ff0000;" x="421.60057" xlink:href="#C0_0_90946ee8f4" y="339.460148"/>
    </g>
    <g clip-path="url(#pe5b1d1b1eb)">
     <use style="fill:#ff0000;stroke:#ff0000;" x="621.914581" xlink:href="#C0_0_90946ee8f4" y="356.227887"/>
    </g>
    <g clip-path="url(#pe5b1d1b1eb)">
     <use style="fill:#ff0000;stroke:#ff0000;" x="259.745613" xlink:href="#C0_0_90946ee8f4" y="434.510697"/>
    </g>
    <g clip-path="url(#pe5b1d1b1eb)">
     <use style="fill:#ff0000;stroke:#ff0000;" x="508.486246" xlink:href="#C0_0_90946ee8f4" y="188.343929"/>
    </g>
    <g clip-path="url(#pe5b1d1b1eb)">
     <use style="fill:#ff0000;stroke:#ff0000;" x="380.663911" xlink:href="#C0_0_90946ee8f4" y="297.635306"/>
    </g>
    <g clip-path="url(#pe5b1d1b1eb)">
     <use style="fill:#ff0000;stroke:#ff0000;" x="201.679198" xlink:href="#C0_0_90946ee8f4" y="182.638837"/>
    </g>
    <g clip-path="url(#pe5b1d1b1eb)">
     <use style="fill:#ff0000;stroke:#ff0000;" x="393.172351" xlink:href="#C0_0_90946ee8f4" y="469.753499"/>
    </g>
    <g clip-path="url(#pe5b1d1b1eb)">
     <use style="fill:#ff0000;stroke:#ff0000;" x="546.557952" xlink:href="#C0_0_90946ee8f4" y="338.968225"/>
    </g>
    <g clip-path="url(#pe5b1d1b1eb)">
     <use style="fill:#ff0000;stroke:#ff0000;" x="329.273791" xlink:href="#C0_0_90946ee8f4" y="107.607273"/>
    </g>
    <g clip-path="url(#pe5b1d1b1eb)">
     <use style="fill:#ff0000;stroke:#ff0000;" x="651.517193" xlink:href="#C0_0_90946ee8f4" y="154.76068"/>
    </g>
    <g clip-path="url(#pe5b1d1b1eb)">
     <use style="fill:#ff0000;stroke:#ff0000;" x="371.837317" xlink:href="#C0_0_90946ee8f4" y="413.404027"/>
    </g>
    <g clip-path="url(#pe5b1d1b1eb)">
     <use style="fill:#ff0000;stroke:#ff0000;" x="492.041006" xlink:href="#C0_0_90946ee8f4" y="227.54506"/>
    </g>
    <g clip-path="url(#pe5b1d1b1eb)">
     <use style="fill:#ff0000;stroke:#ff0000;" x="503.604054" xlink:href="#C0_0_90946ee8f4" y="264.12357"/>
    </g>
    <g clip-path="url(#pe5b1d1b1eb)">
     <use style="fill:#ff0000;stroke:#ff0000;" x="447.08553" xlink:href="#C0_0_90946ee8f4" y="269.048619"/>
    </g>
    <g clip-path="url(#pe5b1d1b1eb)">
     <use style="fill:#ff0000;stroke:#ff0000;" x="446.913983" xlink:href="#C0_0_90946ee8f4" y="236.202274"/>
    </g>
    <g clip-path="url(#pe5b1d1b1eb)">
     <use style="fill:#ff0000;stroke:#ff0000;" x="446.138647" xlink:href="#C0_0_90946ee8f4" y="252.780182"/>
    </g>
    <g clip-path="url(#pe5b1d1b1eb)">
     <use style="fill:#ff0000;stroke:#ff0000;" x="173.687145" xlink:href="#C0_0_90946ee8f4" y="241.190523"/>
    </g>
    <g clip-path="url(#pe5b1d1b1eb)">
     <use style="fill:#ff0000;stroke:#ff0000;" x="719.494215" xlink:href="#C0_0_90946ee8f4" y="256.260901"/>
    </g>
    <g clip-path="url(#pe5b1d1b1eb)">
     <use style="fill:#ff0000;stroke:#ff0000;" x="494.867275" xlink:href="#C0_0_90946ee8f4" y="109.373072"/>
    </g>
    <g clip-path="url(#pe5b1d1b1eb)">
     <use style="fill:#ff0000;stroke:#ff0000;" x="166.105785" xlink:href="#C0_0_90946ee8f4" y="294.447494"/>
    </g>
    <g clip-path="url(#pe5b1d1b1eb)">
     <use style="fill:#ff0000;stroke:#ff0000;" x="386.847052" xlink:href="#C0_0_90946ee8f4" y="251.998149"/>
    </g>
    <g clip-path="url(#pe5b1d1b1eb)">
     <use style="fill:#ff0000;stroke:#ff0000;" x="374.865376" xlink:href="#C0_0_90946ee8f4" y="232.740524"/>
    </g>
    <g clip-path="url(#pe5b1d1b1eb)">
     <use style="fill:#ff0000;stroke:#ff0000;" x="390.579671" xlink:href="#C0_0_90946ee8f4" y="239.060601"/>
    </g>
    <g clip-path="url(#pe5b1d1b1eb)">
     <use style="fill:#ff0000;stroke:#ff0000;" x="179.198592" xlink:href="#C0_0_90946ee8f4" y="344.540126"/>
    </g>
    <g clip-path="url(#pe5b1d1b1eb)">
     <use style="fill:#ff0000;stroke:#ff0000;" x="580.783642" xlink:href="#C0_0_90946ee8f4" y="444.834375"/>
    </g>
    <g clip-path="url(#pe5b1d1b1eb)">
     <use style="fill:#008000;stroke:#008000;" x="506.544742" xlink:href="#C0_0_90946ee8f4" y="474.152727"/>
    </g>
    <g clip-path="url(#pe5b1d1b1eb)">
     <use style="fill:#ff0000;stroke:#ff0000;" x="689.713515" xlink:href="#C0_0_90946ee8f4" y="202.778134"/>
    </g>
   </g>
   <g id="text_1">
    <g clip-path="url(#pe5b1d1b1eb)">
     <!-- IKBKB -->
     <g transform="translate(403.292965 203.32373)scale(0.12 -0.12)">
      <defs>
       <path d="M 9.8125 72.90625 
L 19.671875 72.90625 
L 19.671875 0 
L 9.8125 0 
z
" id="DejaVuSans-73"/>
       <path d="M 9.8125 72.90625 
L 19.671875 72.90625 
L 19.671875 42.09375 
L 52.390625 72.90625 
L 65.09375 72.90625 
L 28.90625 38.921875 
L 67.671875 0 
L 54.6875 0 
L 19.671875 35.109375 
L 19.671875 0 
L 9.8125 0 
z
" id="DejaVuSans-75"/>
       <path d="M 19.671875 34.8125 
L 19.671875 8.109375 
L 35.5 8.109375 
Q 43.453125 8.109375 47.28125 11.40625 
Q 51.125 14.703125 51.125 21.484375 
Q 51.125 28.328125 47.28125 31.5625 
Q 43.453125 34.8125 35.5 34.8125 
z
M 19.671875 64.796875 
L 19.671875 42.828125 
L 34.28125 42.828125 
Q 41.5 42.828125 45.03125 45.53125 
Q 48.578125 48.25 48.578125 53.8125 
Q 48.578125 59.328125 45.03125 62.0625 
Q 41.5 64.796875 34.28125 64.796875 
z
M 9.8125 72.90625 
L 35.015625 72.90625 
Q 46.296875 72.90625 52.390625 68.21875 
Q 58.5 63.53125 58.5 54.890625 
Q 58.5 48.1875 55.375 44.234375 
Q 52.25 40.28125 46.1875 39.3125 
Q 53.46875 37.75 57.5 32.78125 
Q 61.53125 27.828125 61.53125 20.40625 
Q 61.53125 10.640625 54.890625 5.3125 
Q 48.25 0 35.984375 0 
L 9.8125 0 
z
" id="DejaVuSans-66"/>
      </defs>
      <use xlink:href="#DejaVuSans-73"/>
      <use x="29.492188" xlink:href="#DejaVuSans-75"/>
      <use x="95.068359" xlink:href="#DejaVuSans-66"/>
      <use x="163.671875" xlink:href="#DejaVuSans-75"/>
      <use x="229.248047" xlink:href="#DejaVuSans-66"/>
     </g>
    </g>
   </g>
   <g id="text_2">
    <g clip-path="url(#pe5b1d1b1eb)">
     <!-- IKBKG -->
     <g transform="translate(561.129726 132.088588)scale(0.12 -0.12)">
      <defs>
       <path d="M 59.515625 10.40625 
L 59.515625 29.984375 
L 43.40625 29.984375 
L 43.40625 38.09375 
L 69.28125 38.09375 
L 69.28125 6.78125 
Q 63.578125 2.734375 56.6875 0.65625 
Q 49.8125 -1.421875 42 -1.421875 
Q 24.90625 -1.421875 15.25 8.5625 
Q 5.609375 18.5625 5.609375 36.375 
Q 5.609375 54.25 15.25 64.234375 
Q 24.90625 74.21875 42 74.21875 
Q 49.125 74.21875 55.546875 72.453125 
Q 61.96875 70.703125 67.390625 67.28125 
L 67.390625 56.78125 
Q 61.921875 61.421875 55.765625 63.765625 
Q 49.609375 66.109375 42.828125 66.109375 
Q 29.4375 66.109375 22.71875 58.640625 
Q 16.015625 51.171875 16.015625 36.375 
Q 16.015625 21.625 22.71875 14.15625 
Q 29.4375 6.6875 42.828125 6.6875 
Q 48.046875 6.6875 52.140625 7.59375 
Q 56.25 8.5 59.515625 10.40625 
z
" id="DejaVuSans-71"/>
      </defs>
      <use xlink:href="#DejaVuSans-73"/>
      <use x="29.492188" xlink:href="#DejaVuSans-75"/>
      <use x="95.068359" xlink:href="#DejaVuSans-66"/>
      <use x="163.671875" xlink:href="#DejaVuSans-75"/>
      <use x="229.248047" xlink:href="#DejaVuSans-71"/>
     </g>
    </g>
   </g>
   <g id="text_3">
    <g clip-path="url(#pe5b1d1b1eb)">
     <!-- MALT1 -->
     <g transform="translate(590.30921 246.774524)scale(0.12 -0.12)">
      <defs>
       <path d="M 9.8125 72.90625 
L 24.515625 72.90625 
L 43.109375 23.296875 
L 61.8125 72.90625 
L 76.515625 72.90625 
L 76.515625 0 
L 66.890625 0 
L 66.890625 64.015625 
L 48.09375 14.015625 
L 38.1875 14.015625 
L 19.390625 64.015625 
L 19.390625 0 
L 9.8125 0 
z
" id="DejaVuSans-77"/>
       <path d="M 34.1875 63.1875 
L 20.796875 26.90625 
L 47.609375 26.90625 
z
M 28.609375 72.90625 
L 39.796875 72.90625 
L 67.578125 0 
L 57.328125 0 
L 50.6875 18.703125 
L 17.828125 18.703125 
L 11.1875 0 
L 0.78125 0 
z
" id="DejaVuSans-65"/>
       <path d="M 9.8125 72.90625 
L 19.671875 72.90625 
L 19.671875 8.296875 
L 55.171875 8.296875 
L 55.171875 0 
L 9.8125 0 
z
" id="DejaVuSans-76"/>
       <path d="M -0.296875 72.90625 
L 61.375 72.90625 
L 61.375 64.59375 
L 35.5 64.59375 
L 35.5 0 
L 25.59375 0 
L 25.59375 64.59375 
L -0.296875 64.59375 
z
" id="DejaVuSans-84"/>
       <path d="M 12.40625 8.296875 
L 28.515625 8.296875 
L 28.515625 63.921875 
L 10.984375 60.40625 
L 10.984375 69.390625 
L 28.421875 72.90625 
L 38.28125 72.90625 
L 38.28125 8.296875 
L 54.390625 8.296875 
L 54.390625 0 
L 12.40625 0 
z
" id="DejaVuSans-49"/>
      </defs>
      <use xlink:href="#DejaVuSans-77"/>
      <use x="86.279297" xlink:href="#DejaVuSans-65"/>
      <use x="154.6875" xlink:href="#DejaVuSans-76"/>
      <use x="196.650391" xlink:href="#DejaVuSans-84"/>
      <use x="257.734375" xlink:href="#DejaVuSans-49"/>
     </g>
    </g>
   </g>
   <g id="text_4">
    <g clip-path="url(#pe5b1d1b1eb)">
     <!-- BCL10 -->
     <g transform="translate(450.637896 113.741723)scale(0.12 -0.12)">
      <defs>
       <path d="M 64.40625 67.28125 
L 64.40625 56.890625 
Q 59.421875 61.53125 53.78125 63.8125 
Q 48.140625 66.109375 41.796875 66.109375 
Q 29.296875 66.109375 22.65625 58.46875 
Q 16.015625 50.828125 16.015625 36.375 
Q 16.015625 21.96875 22.65625 14.328125 
Q 29.296875 6.6875 41.796875 6.6875 
Q 48.140625 6.6875 53.78125 8.984375 
Q 59.421875 11.28125 64.40625 15.921875 
L 64.40625 5.609375 
Q 59.234375 2.09375 53.4375 0.328125 
Q 47.65625 -1.421875 41.21875 -1.421875 
Q 24.65625 -1.421875 15.125 8.703125 
Q 5.609375 18.84375 5.609375 36.375 
Q 5.609375 53.953125 15.125 64.078125 
Q 24.65625 74.21875 41.21875 74.21875 
Q 47.75 74.21875 53.53125 72.484375 
Q 59.328125 70.75 64.40625 67.28125 
z
" id="DejaVuSans-67"/>
       <path d="M 31.78125 66.40625 
Q 24.171875 66.40625 20.328125 58.90625 
Q 16.5 51.421875 16.5 36.375 
Q 16.5 21.390625 20.328125 13.890625 
Q 24.171875 6.390625 31.78125 6.390625 
Q 39.453125 6.390625 43.28125 13.890625 
Q 47.125 21.390625 47.125 36.375 
Q 47.125 51.421875 43.28125 58.90625 
Q 39.453125 66.40625 31.78125 66.40625 
z
M 31.78125 74.21875 
Q 44.046875 74.21875 50.515625 64.515625 
Q 56.984375 54.828125 56.984375 36.375 
Q 56.984375 17.96875 50.515625 8.265625 
Q 44.046875 -1.421875 31.78125 -1.421875 
Q 19.53125 -1.421875 13.0625 8.265625 
Q 6.59375 17.96875 6.59375 36.375 
Q 6.59375 54.828125 13.0625 64.515625 
Q 19.53125 74.21875 31.78125 74.21875 
z
" id="DejaVuSans-48"/>
      </defs>
      <use xlink:href="#DejaVuSans-66"/>
      <use x="66.853516" xlink:href="#DejaVuSans-67"/>
      <use x="136.677734" xlink:href="#DejaVuSans-76"/>
      <use x="192.390625" xlink:href="#DejaVuSans-49"/>
      <use x="256.013672" xlink:href="#DejaVuSans-48"/>
     </g>
    </g>
   </g>
   <g id="text_5">
    <g clip-path="url(#pe5b1d1b1eb)">
     <!-- CARD11 -->
     <g transform="translate(458.352016 253.941614)scale(0.12 -0.12)">
      <defs>
       <path d="M 44.390625 34.1875 
Q 47.5625 33.109375 50.5625 29.59375 
Q 53.5625 26.078125 56.59375 19.921875 
L 66.609375 0 
L 56 0 
L 46.6875 18.703125 
Q 43.0625 26.03125 39.671875 28.421875 
Q 36.28125 30.8125 30.421875 30.8125 
L 19.671875 30.8125 
L 19.671875 0 
L 9.8125 0 
L 9.8125 72.90625 
L 32.078125 72.90625 
Q 44.578125 72.90625 50.734375 67.671875 
Q 56.890625 62.453125 56.890625 51.90625 
Q 56.890625 45.015625 53.6875 40.46875 
Q 50.484375 35.9375 44.390625 34.1875 
z
M 19.671875 64.796875 
L 19.671875 38.921875 
L 32.078125 38.921875 
Q 39.203125 38.921875 42.84375 42.21875 
Q 46.484375 45.515625 46.484375 51.90625 
Q 46.484375 58.296875 42.84375 61.546875 
Q 39.203125 64.796875 32.078125 64.796875 
z
" id="DejaVuSans-82"/>
       <path d="M 19.671875 64.796875 
L 19.671875 8.109375 
L 31.59375 8.109375 
Q 46.6875 8.109375 53.6875 14.9375 
Q 60.6875 21.78125 60.6875 36.53125 
Q 60.6875 51.171875 53.6875 57.984375 
Q 46.6875 64.796875 31.59375 64.796875 
z
M 9.8125 72.90625 
L 30.078125 72.90625 
Q 51.265625 72.90625 61.171875 64.09375 
Q 71.09375 55.28125 71.09375 36.53125 
Q 71.09375 17.671875 61.125 8.828125 
Q 51.171875 0 30.078125 0 
L 9.8125 0 
z
" id="DejaVuSans-68"/>
      </defs>
      <use xlink:href="#DejaVuSans-67"/>
      <use x="69.824219" xlink:href="#DejaVuSans-65"/>
      <use x="138.232422" xlink:href="#DejaVuSans-82"/>
      <use x="207.714844" xlink:href="#DejaVuSans-68"/>
      <use x="284.716797" xlink:href="#DejaVuSans-49"/>
      <use x="348.339844" xlink:href="#DejaVuSans-49"/>
     </g>
    </g>
   </g>
   <g id="text_6">
    <g clip-path="url(#pe5b1d1b1eb)">
     <!-- PRKCB -->
     <g transform="translate(307.854937 262.182035)scale(0.12 -0.12)">
      <defs>
       <path d="M 19.671875 64.796875 
L 19.671875 37.40625 
L 32.078125 37.40625 
Q 38.96875 37.40625 42.71875 40.96875 
Q 46.484375 44.53125 46.484375 51.125 
Q 46.484375 57.671875 42.71875 61.234375 
Q 38.96875 64.796875 32.078125 64.796875 
z
M 9.8125 72.90625 
L 32.078125 72.90625 
Q 44.34375 72.90625 50.609375 67.359375 
Q 56.890625 61.8125 56.890625 51.125 
Q 56.890625 40.328125 50.609375 34.8125 
Q 44.34375 29.296875 32.078125 29.296875 
L 19.671875 29.296875 
L 19.671875 0 
L 9.8125 0 
z
" id="DejaVuSans-80"/>
      </defs>
      <use xlink:href="#DejaVuSans-80"/>
      <use x="60.302734" xlink:href="#DejaVuSans-82"/>
      <use x="129.785156" xlink:href="#DejaVuSans-75"/>
      <use x="189.861328" xlink:href="#DejaVuSans-67"/>
      <use x="259.685547" xlink:href="#DejaVuSans-66"/>
     </g>
    </g>
   </g>
   <g id="text_7">
    <g clip-path="url(#pe5b1d1b1eb)">
     <!-- CD19 -->
     <g transform="translate(199.322788 392.76753)scale(0.12 -0.12)">
      <defs>
       <path d="M 10.984375 1.515625 
L 10.984375 10.5 
Q 14.703125 8.734375 18.5 7.8125 
Q 22.3125 6.890625 25.984375 6.890625 
Q 35.75 6.890625 40.890625 13.453125 
Q 46.046875 20.015625 46.78125 33.40625 
Q 43.953125 29.203125 39.59375 26.953125 
Q 35.25 24.703125 29.984375 24.703125 
Q 19.046875 24.703125 12.671875 31.3125 
Q 6.296875 37.9375 6.296875 49.421875 
Q 6.296875 60.640625 12.9375 67.421875 
Q 19.578125 74.21875 30.609375 74.21875 
Q 43.265625 74.21875 49.921875 64.515625 
Q 56.59375 54.828125 56.59375 36.375 
Q 56.59375 19.140625 48.40625 8.859375 
Q 40.234375 -1.421875 26.421875 -1.421875 
Q 22.703125 -1.421875 18.890625 -0.6875 
Q 15.09375 0.046875 10.984375 1.515625 
z
M 30.609375 32.421875 
Q 37.25 32.421875 41.125 36.953125 
Q 45.015625 41.5 45.015625 49.421875 
Q 45.015625 57.28125 41.125 61.84375 
Q 37.25 66.40625 30.609375 66.40625 
Q 23.96875 66.40625 20.09375 61.84375 
Q 16.21875 57.28125 16.21875 49.421875 
Q 16.21875 41.5 20.09375 36.953125 
Q 23.96875 32.421875 30.609375 32.421875 
z
" id="DejaVuSans-57"/>
      </defs>
      <use xlink:href="#DejaVuSans-67"/>
      <use x="69.824219" xlink:href="#DejaVuSans-68"/>
      <use x="146.826172" xlink:href="#DejaVuSans-49"/>
      <use x="210.449219" xlink:href="#DejaVuSans-57"/>
     </g>
    </g>
   </g>
   <g id="text_8">
    <g clip-path="url(#pe5b1d1b1eb)">
     <!-- RASGRP3 -->
     <g transform="translate(307.419631 288.725094)scale(0.12 -0.12)">
      <defs>
       <path d="M 53.515625 70.515625 
L 53.515625 60.890625 
Q 47.90625 63.578125 42.921875 64.890625 
Q 37.9375 66.21875 33.296875 66.21875 
Q 25.25 66.21875 20.875 63.09375 
Q 16.5 59.96875 16.5 54.203125 
Q 16.5 49.359375 19.40625 46.890625 
Q 22.3125 44.4375 30.421875 42.921875 
L 36.375 41.703125 
Q 47.40625 39.59375 52.65625 34.296875 
Q 57.90625 29 57.90625 20.125 
Q 57.90625 9.515625 50.796875 4.046875 
Q 43.703125 -1.421875 29.984375 -1.421875 
Q 24.8125 -1.421875 18.96875 -0.25 
Q 13.140625 0.921875 6.890625 3.21875 
L 6.890625 13.375 
Q 12.890625 10.015625 18.65625 8.296875 
Q 24.421875 6.59375 29.984375 6.59375 
Q 38.421875 6.59375 43.015625 9.90625 
Q 47.609375 13.234375 47.609375 19.390625 
Q 47.609375 24.75 44.3125 27.78125 
Q 41.015625 30.8125 33.5 32.328125 
L 27.484375 33.5 
Q 16.453125 35.6875 11.515625 40.375 
Q 6.59375 45.0625 6.59375 53.421875 
Q 6.59375 63.09375 13.40625 68.65625 
Q 20.21875 74.21875 32.171875 74.21875 
Q 37.3125 74.21875 42.625 73.28125 
Q 47.953125 72.359375 53.515625 70.515625 
z
" id="DejaVuSans-83"/>
       <path d="M 40.578125 39.3125 
Q 47.65625 37.796875 51.625 33 
Q 55.609375 28.21875 55.609375 21.1875 
Q 55.609375 10.40625 48.1875 4.484375 
Q 40.765625 -1.421875 27.09375 -1.421875 
Q 22.515625 -1.421875 17.65625 -0.515625 
Q 12.796875 0.390625 7.625 2.203125 
L 7.625 11.71875 
Q 11.71875 9.328125 16.59375 8.109375 
Q 21.484375 6.890625 26.8125 6.890625 
Q 36.078125 6.890625 40.9375 10.546875 
Q 45.796875 14.203125 45.796875 21.1875 
Q 45.796875 27.640625 41.28125 31.265625 
Q 36.765625 34.90625 28.71875 34.90625 
L 20.21875 34.90625 
L 20.21875 43.015625 
L 29.109375 43.015625 
Q 36.375 43.015625 40.234375 45.921875 
Q 44.09375 48.828125 44.09375 54.296875 
Q 44.09375 59.90625 40.109375 62.90625 
Q 36.140625 65.921875 28.71875 65.921875 
Q 24.65625 65.921875 20.015625 65.03125 
Q 15.375 64.15625 9.8125 62.3125 
L 9.8125 71.09375 
Q 15.4375 72.65625 20.34375 73.4375 
Q 25.25 74.21875 29.59375 74.21875 
Q 40.828125 74.21875 47.359375 69.109375 
Q 53.90625 64.015625 53.90625 55.328125 
Q 53.90625 49.265625 50.4375 45.09375 
Q 46.96875 40.921875 40.578125 39.3125 
z
" id="DejaVuSans-51"/>
      </defs>
      <use xlink:href="#DejaVuSans-82"/>
      <use x="65.482422" xlink:href="#DejaVuSans-65"/>
      <use x="133.890625" xlink:href="#DejaVuSans-83"/>
      <use x="197.367188" xlink:href="#DejaVuSans-71"/>
      <use x="274.857422" xlink:href="#DejaVuSans-82"/>
      <use x="344.339844" xlink:href="#DejaVuSans-80"/>
      <use x="404.642578" xlink:href="#DejaVuSans-51"/>
     </g>
    </g>
   </g>
   <g id="text_9">
    <g clip-path="url(#pe5b1d1b1eb)">
     <!-- PLCG2 -->
     <g transform="translate(329.999456 256.606899)scale(0.12 -0.12)">
      <defs>
       <path d="M 19.1875 8.296875 
L 53.609375 8.296875 
L 53.609375 0 
L 7.328125 0 
L 7.328125 8.296875 
Q 12.9375 14.109375 22.625 23.890625 
Q 32.328125 33.6875 34.8125 36.53125 
Q 39.546875 41.84375 41.421875 45.53125 
Q 43.3125 49.21875 43.3125 52.78125 
Q 43.3125 58.59375 39.234375 62.25 
Q 35.15625 65.921875 28.609375 65.921875 
Q 23.96875 65.921875 18.8125 64.3125 
Q 13.671875 62.703125 7.8125 59.421875 
L 7.8125 69.390625 
Q 13.765625 71.78125 18.9375 73 
Q 24.125 74.21875 28.421875 74.21875 
Q 39.75 74.21875 46.484375 68.546875 
Q 53.21875 62.890625 53.21875 53.421875 
Q 53.21875 48.921875 51.53125 44.890625 
Q 49.859375 40.875 45.40625 35.40625 
Q 44.1875 33.984375 37.640625 27.21875 
Q 31.109375 20.453125 19.1875 8.296875 
z
" id="DejaVuSans-50"/>
      </defs>
      <use xlink:href="#DejaVuSans-80"/>
      <use x="60.302734" xlink:href="#DejaVuSans-76"/>
      <use x="116.015625" xlink:href="#DejaVuSans-67"/>
      <use x="185.839844" xlink:href="#DejaVuSans-71"/>
      <use x="263.330078" xlink:href="#DejaVuSans-50"/>
     </g>
    </g>
   </g>
   <g id="text_10">
    <g clip-path="url(#pe5b1d1b1eb)">
     <!-- BLNK -->
     <g transform="translate(444.853746 213.543616)scale(0.12 -0.12)">
      <defs>
       <path d="M 9.8125 72.90625 
L 23.09375 72.90625 
L 55.421875 11.921875 
L 55.421875 72.90625 
L 64.984375 72.90625 
L 64.984375 0 
L 51.703125 0 
L 19.390625 60.984375 
L 19.390625 0 
L 9.8125 0 
z
" id="DejaVuSans-78"/>
      </defs>
      <use xlink:href="#DejaVuSans-66"/>
      <use x="68.603516" xlink:href="#DejaVuSans-76"/>
      <use x="124.316406" xlink:href="#DejaVuSans-78"/>
      <use x="199.121094" xlink:href="#DejaVuSans-75"/>
     </g>
    </g>
   </g>
   <g id="text_11">
    <g clip-path="url(#pe5b1d1b1eb)">
     <!-- BTK -->
     <g transform="translate(509.88485 284.618065)scale(0.12 -0.12)">
      <use xlink:href="#DejaVuSans-66"/>
      <use x="68.603516" xlink:href="#DejaVuSans-84"/>
      <use x="129.6875" xlink:href="#DejaVuSans-75"/>
     </g>
    </g>
   </g>
   <g id="text_12">
    <g clip-path="url(#pe5b1d1b1eb)">
     <!-- LYN -->
     <g transform="translate(410.899008 342.771398)scale(0.12 -0.12)">
      <defs>
       <path d="M -0.203125 72.90625 
L 10.40625 72.90625 
L 30.609375 42.921875 
L 50.6875 72.90625 
L 61.28125 72.90625 
L 35.5 34.71875 
L 35.5 0 
L 25.59375 0 
L 25.59375 34.71875 
z
" id="DejaVuSans-89"/>
      </defs>
      <use xlink:href="#DejaVuSans-76"/>
      <use x="42.462891" xlink:href="#DejaVuSans-89"/>
      <use x="103.546875" xlink:href="#DejaVuSans-78"/>
     </g>
    </g>
   </g>
   <g id="text_13">
    <g clip-path="url(#pe5b1d1b1eb)">
     <!-- CD79B -->
     <g transform="translate(601.353331 359.539137)scale(0.12 -0.12)">
      <defs>
       <path d="M 8.203125 72.90625 
L 55.078125 72.90625 
L 55.078125 68.703125 
L 28.609375 0 
L 18.3125 0 
L 43.21875 64.59375 
L 8.203125 64.59375 
z
" id="DejaVuSans-55"/>
      </defs>
      <use xlink:href="#DejaVuSans-67"/>
      <use x="69.824219" xlink:href="#DejaVuSans-68"/>
      <use x="146.826172" xlink:href="#DejaVuSans-55"/>
      <use x="210.449219" xlink:href="#DejaVuSans-57"/>
      <use x="274.072266" xlink:href="#DejaVuSans-66"/>
     </g>
    </g>
   </g>
   <g id="text_14">
    <g clip-path="url(#pe5b1d1b1eb)">
     <!-- CD79A -->
     <g transform="translate(239.19655 437.821947)scale(0.12 -0.12)">
      <use xlink:href="#DejaVuSans-67"/>
      <use x="69.824219" xlink:href="#DejaVuSans-68"/>
      <use x="146.826172" xlink:href="#DejaVuSans-55"/>
      <use x="210.449219" xlink:href="#DejaVuSans-57"/>
      <use x="274.072266" xlink:href="#DejaVuSans-65"/>
     </g>
    </g>
   </g>
   <g id="text_15">
    <g clip-path="url(#pe5b1d1b1eb)">
     <!-- SYK -->
     <g transform="translate(497.077809 191.655179)scale(0.12 -0.12)">
      <use xlink:href="#DejaVuSans-83"/>
      <use x="63.476562" xlink:href="#DejaVuSans-89"/>
      <use x="124.560547" xlink:href="#DejaVuSans-75"/>
     </g>
    </g>
   </g>
   <g id="text_16">
    <g clip-path="url(#pe5b1d1b1eb)">
     <!-- PTPN6 -->
     <g transform="translate(361.457349 300.946556)scale(0.12 -0.12)">
      <defs>
       <path d="M 33.015625 40.375 
Q 26.375 40.375 22.484375 35.828125 
Q 18.609375 31.296875 18.609375 23.390625 
Q 18.609375 15.53125 22.484375 10.953125 
Q 26.375 6.390625 33.015625 6.390625 
Q 39.65625 6.390625 43.53125 10.953125 
Q 47.40625 15.53125 47.40625 23.390625 
Q 47.40625 31.296875 43.53125 35.828125 
Q 39.65625 40.375 33.015625 40.375 
z
M 52.59375 71.296875 
L 52.59375 62.3125 
Q 48.875 64.0625 45.09375 64.984375 
Q 41.3125 65.921875 37.59375 65.921875 
Q 27.828125 65.921875 22.671875 59.328125 
Q 17.53125 52.734375 16.796875 39.40625 
Q 19.671875 43.65625 24.015625 45.921875 
Q 28.375 48.1875 33.59375 48.1875 
Q 44.578125 48.1875 50.953125 41.515625 
Q 57.328125 34.859375 57.328125 23.390625 
Q 57.328125 12.15625 50.6875 5.359375 
Q 44.046875 -1.421875 33.015625 -1.421875 
Q 20.359375 -1.421875 13.671875 8.265625 
Q 6.984375 17.96875 6.984375 36.375 
Q 6.984375 53.65625 15.1875 63.9375 
Q 23.390625 74.21875 37.203125 74.21875 
Q 40.921875 74.21875 44.703125 73.484375 
Q 48.484375 72.75 52.59375 71.296875 
z
" id="DejaVuSans-54"/>
      </defs>
      <use xlink:href="#DejaVuSans-80"/>
      <use x="60.302734" xlink:href="#DejaVuSans-84"/>
      <use x="121.386719" xlink:href="#DejaVuSans-80"/>
      <use x="181.689453" xlink:href="#DejaVuSans-78"/>
      <use x="256.494141" xlink:href="#DejaVuSans-54"/>
     </g>
    </g>
   </g>
   <g id="text_17">
    <g clip-path="url(#pe5b1d1b1eb)">
     <!-- CD72 -->
     <g transform="translate(185.23451 185.950087)scale(0.12 -0.12)">
      <use xlink:href="#DejaVuSans-67"/>
      <use x="69.824219" xlink:href="#DejaVuSans-68"/>
      <use x="146.826172" xlink:href="#DejaVuSans-55"/>
      <use x="210.449219" xlink:href="#DejaVuSans-50"/>
     </g>
    </g>
   </g>
   <g id="text_18">
    <g clip-path="url(#pe5b1d1b1eb)">
     <!-- CD22 -->
     <g transform="translate(376.727663 473.064749)scale(0.12 -0.12)">
      <use xlink:href="#DejaVuSans-67"/>
      <use x="69.824219" xlink:href="#DejaVuSans-68"/>
      <use x="146.826172" xlink:href="#DejaVuSans-50"/>
      <use x="210.449219" xlink:href="#DejaVuSans-50"/>
     </g>
    </g>
   </g>
   <g id="text_19">
    <g clip-path="url(#pe5b1d1b1eb)">
     <!-- RAF1 -->
     <g transform="translate(531.256077 342.279475)scale(0.12 -0.12)">
      <defs>
       <path d="M 9.8125 72.90625 
L 51.703125 72.90625 
L 51.703125 64.59375 
L 19.671875 64.59375 
L 19.671875 43.109375 
L 48.578125 43.109375 
L 48.578125 34.8125 
L 19.671875 34.8125 
L 19.671875 0 
L 9.8125 0 
z
" id="DejaVuSans-70"/>
      </defs>
      <use xlink:href="#DejaVuSans-82"/>
      <use x="65.482422" xlink:href="#DejaVuSans-65"/>
      <use x="133.890625" xlink:href="#DejaVuSans-70"/>
      <use x="191.410156" xlink:href="#DejaVuSans-49"/>
     </g>
    </g>
   </g>
   <g id="text_20">
    <g clip-path="url(#pe5b1d1b1eb)">
     <!-- GRB2 -->
     <g transform="translate(312.521603 110.918523)scale(0.12 -0.12)">
      <use xlink:href="#DejaVuSans-71"/>
      <use x="77.490234" xlink:href="#DejaVuSans-82"/>
      <use x="146.972656" xlink:href="#DejaVuSans-66"/>
      <use x="215.576172" xlink:href="#DejaVuSans-50"/>
     </g>
    </g>
   </g>
   <g id="text_21">
    <g clip-path="url(#pe5b1d1b1eb)">
     <!-- PIK3AP1 -->
     <g transform="translate(626.837505 158.07193)scale(0.12 -0.12)">
      <use xlink:href="#DejaVuSans-80"/>
      <use x="60.302734" xlink:href="#DejaVuSans-73"/>
      <use x="89.794922" xlink:href="#DejaVuSans-75"/>
      <use x="155.371094" xlink:href="#DejaVuSans-51"/>
      <use x="218.994141" xlink:href="#DejaVuSans-65"/>
      <use x="287.402344" xlink:href="#DejaVuSans-80"/>
      <use x="347.705078" xlink:href="#DejaVuSans-49"/>
     </g>
    </g>
   </g>
   <g id="text_22">
    <g clip-path="url(#pe5b1d1b1eb)">
     <!-- DAPP1 -->
     <g transform="translate(352.164817 416.715277)scale(0.12 -0.12)">
      <use xlink:href="#DejaVuSans-68"/>
      <use x="75.251953" xlink:href="#DejaVuSans-65"/>
      <use x="143.660156" xlink:href="#DejaVuSans-80"/>
      <use x="203.962891" xlink:href="#DejaVuSans-80"/>
      <use x="264.265625" xlink:href="#DejaVuSans-49"/>
     </g>
    </g>
   </g>
   <g id="text_23">
    <g clip-path="url(#pe5b1d1b1eb)">
     <!-- BLK -->
     <g transform="translate(480.646631 230.85631)scale(0.12 -0.12)">
      <use xlink:href="#DejaVuSans-66"/>
      <use x="68.603516" xlink:href="#DejaVuSans-76"/>
      <use x="124.316406" xlink:href="#DejaVuSans-75"/>
     </g>
    </g>
   </g>
   <g id="text_24">
    <g clip-path="url(#pe5b1d1b1eb)">
     <!-- BANK1 -->
     <g transform="translate(483.142179 267.43482)scale(0.12 -0.12)">
      <use xlink:href="#DejaVuSans-66"/>
      <use x="68.603516" xlink:href="#DejaVuSans-65"/>
      <use x="137.011719" xlink:href="#DejaVuSans-78"/>
      <use x="211.816406" xlink:href="#DejaVuSans-75"/>
      <use x="277.392578" xlink:href="#DejaVuSans-49"/>
     </g>
    </g>
   </g>
   <g id="text_25">
    <g clip-path="url(#pe5b1d1b1eb)">
     <!-- NFKBIB -->
     <g transform="translate(425.20803 272.359869)scale(0.12 -0.12)">
      <use xlink:href="#DejaVuSans-78"/>
      <use x="74.804688" xlink:href="#DejaVuSans-70"/>
      <use x="132.324219" xlink:href="#DejaVuSans-75"/>
      <use x="197.900391" xlink:href="#DejaVuSans-66"/>
      <use x="266.503906" xlink:href="#DejaVuSans-73"/>
      <use x="295.996094" xlink:href="#DejaVuSans-66"/>
     </g>
    </g>
   </g>
   <g id="text_26">
    <g clip-path="url(#pe5b1d1b1eb)">
     <!-- NFKBIA -->
     <g transform="translate(425.048671 239.513524)scale(0.12 -0.12)">
      <use xlink:href="#DejaVuSans-78"/>
      <use x="74.804688" xlink:href="#DejaVuSans-70"/>
      <use x="132.324219" xlink:href="#DejaVuSans-75"/>
      <use x="197.900391" xlink:href="#DejaVuSans-66"/>
      <use x="266.503906" xlink:href="#DejaVuSans-73"/>
      <use x="295.996094" xlink:href="#DejaVuSans-65"/>
     </g>
    </g>
   </g>
   <g id="text_27">
    <g clip-path="url(#pe5b1d1b1eb)">
     <!-- NFKBIE -->
     <g transform="translate(424.58646 256.091432)scale(0.12 -0.12)">
      <defs>
       <path d="M 9.8125 72.90625 
L 55.90625 72.90625 
L 55.90625 64.59375 
L 19.671875 64.59375 
L 19.671875 43.015625 
L 54.390625 43.015625 
L 54.390625 34.71875 
L 19.671875 34.71875 
L 19.671875 8.296875 
L 56.78125 8.296875 
L 56.78125 0 
L 9.8125 0 
z
" id="DejaVuSans-69"/>
      </defs>
      <use xlink:href="#DejaVuSans-78"/>
      <use x="74.804688" xlink:href="#DejaVuSans-70"/>
      <use x="132.324219" xlink:href="#DejaVuSans-75"/>
      <use x="197.900391" xlink:href="#DejaVuSans-66"/>
      <use x="266.503906" xlink:href="#DejaVuSans-73"/>
      <use x="295.996094" xlink:href="#DejaVuSans-69"/>
     </g>
    </g>
   </g>
   <g id="text_28">
    <g clip-path="url(#pe5b1d1b1eb)">
     <!-- NFKB1 -->
     <g transform="translate(153.878708 244.501773)scale(0.12 -0.12)">
      <use xlink:href="#DejaVuSans-78"/>
      <use x="74.804688" xlink:href="#DejaVuSans-70"/>
      <use x="132.324219" xlink:href="#DejaVuSans-75"/>
      <use x="197.900391" xlink:href="#DejaVuSans-66"/>
      <use x="266.503906" xlink:href="#DejaVuSans-49"/>
     </g>
    </g>
   </g>
   <g id="text_29">
    <g clip-path="url(#pe5b1d1b1eb)">
     <!-- RELA -->
     <g transform="translate(703.951402 259.572151)scale(0.12 -0.12)">
      <use xlink:href="#DejaVuSans-82"/>
      <use x="69.482422" xlink:href="#DejaVuSans-69"/>
      <use x="132.666016" xlink:href="#DejaVuSans-76"/>
      <use x="190.628906" xlink:href="#DejaVuSans-65"/>
     </g>
    </g>
   </g>
   <g id="text_30">
    <g clip-path="url(#pe5b1d1b1eb)">
     <!-- FOS -->
     <g transform="translate(482.88415 112.684322)scale(0.12 -0.12)">
      <defs>
       <path d="M 39.40625 66.21875 
Q 28.65625 66.21875 22.328125 58.203125 
Q 16.015625 50.203125 16.015625 36.375 
Q 16.015625 22.609375 22.328125 14.59375 
Q 28.65625 6.59375 39.40625 6.59375 
Q 50.140625 6.59375 56.421875 14.59375 
Q 62.703125 22.609375 62.703125 36.375 
Q 62.703125 50.203125 56.421875 58.203125 
Q 50.140625 66.21875 39.40625 66.21875 
z
M 39.40625 74.21875 
Q 54.734375 74.21875 63.90625 63.9375 
Q 73.09375 53.65625 73.09375 36.375 
Q 73.09375 19.140625 63.90625 8.859375 
Q 54.734375 -1.421875 39.40625 -1.421875 
Q 24.03125 -1.421875 14.8125 8.828125 
Q 5.609375 19.09375 5.609375 36.375 
Q 5.609375 53.65625 14.8125 63.9375 
Q 24.03125 74.21875 39.40625 74.21875 
z
" id="DejaVuSans-79"/>
      </defs>
      <use xlink:href="#DejaVuSans-70"/>
      <use x="57.519531" xlink:href="#DejaVuSans-79"/>
      <use x="136.230469" xlink:href="#DejaVuSans-83"/>
     </g>
    </g>
   </g>
   <g id="text_31">
    <g clip-path="url(#pe5b1d1b1eb)">
     <!-- JUN -->
     <g transform="translate(155.455785 297.758744)scale(0.12 -0.12)">
      <defs>
       <path d="M 9.8125 72.90625 
L 19.671875 72.90625 
L 19.671875 5.078125 
Q 19.671875 -8.109375 14.671875 -14.0625 
Q 9.671875 -20.015625 -1.421875 -20.015625 
L -5.171875 -20.015625 
L -5.171875 -11.71875 
L -2.09375 -11.71875 
Q 4.4375 -11.71875 7.125 -8.046875 
Q 9.8125 -4.390625 9.8125 5.078125 
z
" id="DejaVuSans-74"/>
       <path d="M 8.6875 72.90625 
L 18.609375 72.90625 
L 18.609375 28.609375 
Q 18.609375 16.890625 22.84375 11.734375 
Q 27.09375 6.59375 36.625 6.59375 
Q 46.09375 6.59375 50.34375 11.734375 
Q 54.59375 16.890625 54.59375 28.609375 
L 54.59375 72.90625 
L 64.5 72.90625 
L 64.5 27.390625 
Q 64.5 13.140625 57.4375 5.859375 
Q 50.390625 -1.421875 36.625 -1.421875 
Q 22.796875 -1.421875 15.734375 5.859375 
Q 8.6875 13.140625 8.6875 27.390625 
z
" id="DejaVuSans-85"/>
      </defs>
      <use xlink:href="#DejaVuSans-74"/>
      <use x="29.492188" xlink:href="#DejaVuSans-85"/>
      <use x="102.685547" xlink:href="#DejaVuSans-78"/>
     </g>
    </g>
   </g>
   <g id="text_32">
    <g clip-path="url(#pe5b1d1b1eb)">
     <!-- HRAS -->
     <g transform="translate(370.492365 255.309399)scale(0.12 -0.12)">
      <defs>
       <path d="M 9.8125 72.90625 
L 19.671875 72.90625 
L 19.671875 43.015625 
L 55.515625 43.015625 
L 55.515625 72.90625 
L 65.375 72.90625 
L 65.375 0 
L 55.515625 0 
L 55.515625 34.71875 
L 19.671875 34.71875 
L 19.671875 0 
L 9.8125 0 
z
" id="DejaVuSans-72"/>
      </defs>
      <use xlink:href="#DejaVuSans-72"/>
      <use x="75.195312" xlink:href="#DejaVuSans-82"/>
      <use x="140.677734" xlink:href="#DejaVuSans-65"/>
      <use x="209.085938" xlink:href="#DejaVuSans-83"/>
     </g>
    </g>
   </g>
   <g id="text_33">
    <g clip-path="url(#pe5b1d1b1eb)">
     <!-- KRAS -->
     <g transform="translate(359.088188 236.051774)scale(0.12 -0.12)">
      <use xlink:href="#DejaVuSans-75"/>
      <use x="65.576172" xlink:href="#DejaVuSans-82"/>
      <use x="131.058594" xlink:href="#DejaVuSans-65"/>
      <use x="199.466797" xlink:href="#DejaVuSans-83"/>
     </g>
    </g>
   </g>
   <g id="text_34">
    <g clip-path="url(#pe5b1d1b1eb)">
     <!-- NRAS -->
     <g transform="translate(374.248421 242.371851)scale(0.12 -0.12)">
      <use xlink:href="#DejaVuSans-78"/>
      <use x="74.804688" xlink:href="#DejaVuSans-82"/>
      <use x="140.287109" xlink:href="#DejaVuSans-65"/>
      <use x="208.695312" xlink:href="#DejaVuSans-83"/>
     </g>
    </g>
   </g>
   <g id="text_35">
    <g clip-path="url(#pe5b1d1b1eb)">
     <!-- RAC1 -->
     <g transform="translate(163.262967 347.851376)scale(0.12 -0.12)">
      <use xlink:href="#DejaVuSans-82"/>
      <use x="65.482422" xlink:href="#DejaVuSans-65"/>
      <use x="132.140625" xlink:href="#DejaVuSans-67"/>
      <use x="201.964844" xlink:href="#DejaVuSans-49"/>
     </g>
    </g>
   </g>
   <g id="text_36">
    <g clip-path="url(#pe5b1d1b1eb)">
     <!-- RAC2 -->
     <g transform="translate(564.848017 448.145625)scale(0.12 -0.12)">
      <use xlink:href="#DejaVuSans-82"/>
      <use x="65.482422" xlink:href="#DejaVuSans-65"/>
      <use x="132.140625" xlink:href="#DejaVuSans-67"/>
      <use x="201.964844" xlink:href="#DejaVuSans-50"/>
     </g>
    </g>
   </g>
   <g id="text_37">
    <g clip-path="url(#pe5b1d1b1eb)">
     <!-- MAP2K1 -->
     <g transform="translate(482.075992 477.463977)scale(0.12 -0.12)">
      <use xlink:href="#DejaVuSans-77"/>
      <use x="86.279297" xlink:href="#DejaVuSans-65"/>
      <use x="154.6875" xlink:href="#DejaVuSans-80"/>
      <use x="214.990234" xlink:href="#DejaVuSans-50"/>
      <use x="278.613281" xlink:href="#DejaVuSans-75"/>
      <use x="344.189453" xlink:href="#DejaVuSans-49"/>
     </g>
    </g>
   </g>
   <g id="text_38">
    <g clip-path="url(#pe5b1d1b1eb)">
     <!-- MAP2K2 -->
     <g transform="translate(665.244765 206.089384)scale(0.12 -0.12)">
      <use xlink:href="#DejaVuSans-77"/>
      <use x="86.279297" xlink:href="#DejaVuSans-65"/>
      <use x="154.6875" xlink:href="#DejaVuSans-80"/>
      <use x="214.990234" xlink:href="#DejaVuSans-50"/>
      <use x="278.613281" xlink:href="#DejaVuSans-75"/>
      <use x="344.189453" xlink:href="#DejaVuSans-50"/>
     </g>
    </g>
   </g>
   <g id="text_39">
    <!-- Frame: 11 -->
    <g transform="translate(121.392 91.296)scale(0.1 -0.1)">
     <defs>
      <path d="M 41.109375 46.296875 
Q 39.59375 47.171875 37.8125 47.578125 
Q 36.03125 48 33.890625 48 
Q 26.265625 48 22.1875 43.046875 
Q 18.109375 38.09375 18.109375 28.8125 
L 18.109375 0 
L 9.078125 0 
L 9.078125 54.6875 
L 18.109375 54.6875 
L 18.109375 46.1875 
Q 20.953125 51.171875 25.484375 53.578125 
Q 30.03125 56 36.53125 56 
Q 37.453125 56 38.578125 55.875 
Q 39.703125 55.765625 41.0625 55.515625 
z
" id="DejaVuSans-114"/>
      <path d="M 34.28125 27.484375 
Q 23.390625 27.484375 19.1875 25 
Q 14.984375 22.515625 14.984375 16.5 
Q 14.984375 11.71875 18.140625 8.90625 
Q 21.296875 6.109375 26.703125 6.109375 
Q 34.1875 6.109375 38.703125 11.40625 
Q 43.21875 16.703125 43.21875 25.484375 
L 43.21875 27.484375 
z
M 52.203125 31.203125 
L 52.203125 0 
L 43.21875 0 
L 43.21875 8.296875 
Q 40.140625 3.328125 35.546875 0.953125 
Q 30.953125 -1.421875 24.3125 -1.421875 
Q 15.921875 -1.421875 10.953125 3.296875 
Q 6 8.015625 6 15.921875 
Q 6 25.140625 12.171875 29.828125 
Q 18.359375 34.515625 30.609375 34.515625 
L 43.21875 34.515625 
L 43.21875 35.40625 
Q 43.21875 41.609375 39.140625 45 
Q 35.0625 48.390625 27.6875 48.390625 
Q 23 48.390625 18.546875 47.265625 
Q 14.109375 46.140625 10.015625 43.890625 
L 10.015625 52.203125 
Q 14.9375 54.109375 19.578125 55.046875 
Q 24.21875 56 28.609375 56 
Q 40.484375 56 46.34375 49.84375 
Q 52.203125 43.703125 52.203125 31.203125 
z
" id="DejaVuSans-97"/>
      <path d="M 52 44.1875 
Q 55.375 50.25 60.0625 53.125 
Q 64.75 56 71.09375 56 
Q 79.640625 56 84.28125 50.015625 
Q 88.921875 44.046875 88.921875 33.015625 
L 88.921875 0 
L 79.890625 0 
L 79.890625 32.71875 
Q 79.890625 40.578125 77.09375 44.375 
Q 74.3125 48.1875 68.609375 48.1875 
Q 61.625 48.1875 57.5625 43.546875 
Q 53.515625 38.921875 53.515625 30.90625 
L 53.515625 0 
L 44.484375 0 
L 44.484375 32.71875 
Q 44.484375 40.625 41.703125 44.40625 
Q 38.921875 48.1875 33.109375 48.1875 
Q 26.21875 48.1875 22.15625 43.53125 
Q 18.109375 38.875 18.109375 30.90625 
L 18.109375 0 
L 9.078125 0 
L 9.078125 54.6875 
L 18.109375 54.6875 
L 18.109375 46.1875 
Q 21.1875 51.21875 25.484375 53.609375 
Q 29.78125 56 35.6875 56 
Q 41.65625 56 45.828125 52.96875 
Q 50 49.953125 52 44.1875 
z
" id="DejaVuSans-109"/>
      <path d="M 56.203125 29.59375 
L 56.203125 25.203125 
L 14.890625 25.203125 
Q 15.484375 15.921875 20.484375 11.0625 
Q 25.484375 6.203125 34.421875 6.203125 
Q 39.59375 6.203125 44.453125 7.46875 
Q 49.3125 8.734375 54.109375 11.28125 
L 54.109375 2.78125 
Q 49.265625 0.734375 44.1875 -0.34375 
Q 39.109375 -1.421875 33.890625 -1.421875 
Q 20.796875 -1.421875 13.15625 6.1875 
Q 5.515625 13.8125 5.515625 26.8125 
Q 5.515625 40.234375 12.765625 48.109375 
Q 20.015625 56 32.328125 56 
Q 43.359375 56 49.78125 48.890625 
Q 56.203125 41.796875 56.203125 29.59375 
z
M 47.21875 32.234375 
Q 47.125 39.59375 43.09375 43.984375 
Q 39.0625 48.390625 32.421875 48.390625 
Q 24.90625 48.390625 20.390625 44.140625 
Q 15.875 39.890625 15.1875 32.171875 
z
" id="DejaVuSans-101"/>
      <path d="M 11.71875 12.40625 
L 22.015625 12.40625 
L 22.015625 0 
L 11.71875 0 
z
M 11.71875 51.703125 
L 22.015625 51.703125 
L 22.015625 39.3125 
L 11.71875 39.3125 
z
" id="DejaVuSans-58"/>
      <path id="DejaVuSans-32"/>
     </defs>
     <use xlink:href="#DejaVuSans-70"/>
     <use x="50.269531" xlink:href="#DejaVuSans-114"/>
     <use x="91.382812" xlink:href="#DejaVuSans-97"/>
     <use x="152.662109" xlink:href="#DejaVuSans-109"/>
     <use x="250.074219" xlink:href="#DejaVuSans-101"/>
     <use x="311.597656" xlink:href="#DejaVuSans-58"/>
     <use x="345.289062" xlink:href="#DejaVuSans-32"/>
     <use x="377.076172" xlink:href="#DejaVuSans-49"/>
     <use x="440.699219" xlink:href="#DejaVuSans-49"/>
    </g>
   </g>
   <g id="text_40">
    <!-- Network: hsa04662 -->
    <g transform="translate(384.1275 63.12)scale(0.12 -0.12)">
     <defs>
      <path d="M 18.3125 70.21875 
L 18.3125 54.6875 
L 36.8125 54.6875 
L 36.8125 47.703125 
L 18.3125 47.703125 
L 18.3125 18.015625 
Q 18.3125 11.328125 20.140625 9.421875 
Q 21.96875 7.515625 27.59375 7.515625 
L 36.8125 7.515625 
L 36.8125 0 
L 27.59375 0 
Q 17.1875 0 13.234375 3.875 
Q 9.28125 7.765625 9.28125 18.015625 
L 9.28125 47.703125 
L 2.6875 47.703125 
L 2.6875 54.6875 
L 9.28125 54.6875 
L 9.28125 70.21875 
z
" id="DejaVuSans-116"/>
      <path d="M 4.203125 54.6875 
L 13.1875 54.6875 
L 24.421875 12.015625 
L 35.59375 54.6875 
L 46.1875 54.6875 
L 57.421875 12.015625 
L 68.609375 54.6875 
L 77.59375 54.6875 
L 63.28125 0 
L 52.6875 0 
L 40.921875 44.828125 
L 29.109375 0 
L 18.5 0 
z
" id="DejaVuSans-119"/>
      <path d="M 30.609375 48.390625 
Q 23.390625 48.390625 19.1875 42.75 
Q 14.984375 37.109375 14.984375 27.296875 
Q 14.984375 17.484375 19.15625 11.84375 
Q 23.34375 6.203125 30.609375 6.203125 
Q 37.796875 6.203125 41.984375 11.859375 
Q 46.1875 17.53125 46.1875 27.296875 
Q 46.1875 37.015625 41.984375 42.703125 
Q 37.796875 48.390625 30.609375 48.390625 
z
M 30.609375 56 
Q 42.328125 56 49.015625 48.375 
Q 55.71875 40.765625 55.71875 27.296875 
Q 55.71875 13.875 49.015625 6.21875 
Q 42.328125 -1.421875 30.609375 -1.421875 
Q 18.84375 -1.421875 12.171875 6.21875 
Q 5.515625 13.875 5.515625 27.296875 
Q 5.515625 40.765625 12.171875 48.375 
Q 18.84375 56 30.609375 56 
z
" id="DejaVuSans-111"/>
      <path d="M 9.078125 75.984375 
L 18.109375 75.984375 
L 18.109375 31.109375 
L 44.921875 54.6875 
L 56.390625 54.6875 
L 27.390625 29.109375 
L 57.625 0 
L 45.90625 0 
L 18.109375 26.703125 
L 18.109375 0 
L 9.078125 0 
z
" id="DejaVuSans-107"/>
      <path d="M 54.890625 33.015625 
L 54.890625 0 
L 45.90625 0 
L 45.90625 32.71875 
Q 45.90625 40.484375 42.875 44.328125 
Q 39.84375 48.1875 33.796875 48.1875 
Q 26.515625 48.1875 22.3125 43.546875 
Q 18.109375 38.921875 18.109375 30.90625 
L 18.109375 0 
L 9.078125 0 
L 9.078125 75.984375 
L 18.109375 75.984375 
L 18.109375 46.1875 
Q 21.34375 51.125 25.703125 53.5625 
Q 30.078125 56 35.796875 56 
Q 45.21875 56 50.046875 50.171875 
Q 54.890625 44.34375 54.890625 33.015625 
z
" id="DejaVuSans-104"/>
      <path d="M 44.28125 53.078125 
L 44.28125 44.578125 
Q 40.484375 46.53125 36.375 47.5 
Q 32.28125 48.484375 27.875 48.484375 
Q 21.1875 48.484375 17.84375 46.4375 
Q 14.5 44.390625 14.5 40.28125 
Q 14.5 37.15625 16.890625 35.375 
Q 19.28125 33.59375 26.515625 31.984375 
L 29.59375 31.296875 
Q 39.15625 29.25 43.1875 25.515625 
Q 47.21875 21.78125 47.21875 15.09375 
Q 47.21875 7.46875 41.1875 3.015625 
Q 35.15625 -1.421875 24.609375 -1.421875 
Q 20.21875 -1.421875 15.453125 -0.5625 
Q 10.6875 0.296875 5.421875 2 
L 5.421875 11.28125 
Q 10.40625 8.6875 15.234375 7.390625 
Q 20.0625 6.109375 24.8125 6.109375 
Q 31.15625 6.109375 34.5625 8.28125 
Q 37.984375 10.453125 37.984375 14.40625 
Q 37.984375 18.0625 35.515625 20.015625 
Q 33.0625 21.96875 24.703125 23.78125 
L 21.578125 24.515625 
Q 13.234375 26.265625 9.515625 29.90625 
Q 5.8125 33.546875 5.8125 39.890625 
Q 5.8125 47.609375 11.28125 51.796875 
Q 16.75 56 26.8125 56 
Q 31.78125 56 36.171875 55.265625 
Q 40.578125 54.546875 44.28125 53.078125 
z
" id="DejaVuSans-115"/>
      <path d="M 37.796875 64.3125 
L 12.890625 25.390625 
L 37.796875 25.390625 
z
M 35.203125 72.90625 
L 47.609375 72.90625 
L 47.609375 25.390625 
L 58.015625 25.390625 
L 58.015625 17.1875 
L 47.609375 17.1875 
L 47.609375 0 
L 37.796875 0 
L 37.796875 17.1875 
L 4.890625 17.1875 
L 4.890625 26.703125 
z
" id="DejaVuSans-52"/>
     </defs>
     <use xlink:href="#DejaVuSans-78"/>
     <use x="74.804688" xlink:href="#DejaVuSans-101"/>
     <use x="136.328125" xlink:href="#DejaVuSans-116"/>
     <use x="175.537109" xlink:href="#DejaVuSans-119"/>
     <use x="257.324219" xlink:href="#DejaVuSans-111"/>
     <use x="318.505859" xlink:href="#DejaVuSans-114"/>
     <use x="359.619141" xlink:href="#DejaVuSans-107"/>
     <use x="417.529297" xlink:href="#DejaVuSans-58"/>
     <use x="451.220703" xlink:href="#DejaVuSans-32"/>
     <use x="483.007812" xlink:href="#DejaVuSans-104"/>
     <use x="546.386719" xlink:href="#DejaVuSans-115"/>
     <use x="598.486328" xlink:href="#DejaVuSans-97"/>
     <use x="659.765625" xlink:href="#DejaVuSans-48"/>
     <use x="723.388672" xlink:href="#DejaVuSans-52"/>
     <use x="787.011719" xlink:href="#DejaVuSans-54"/>
     <use x="850.634766" xlink:href="#DejaVuSans-54"/>
     <use x="914.257812" xlink:href="#DejaVuSans-50"/>
    </g>
   </g>
  </g>
 </g>
 <defs>
  <clipPath id="pe5b1d1b1eb">
   <rect height="443.52" width="669.6" x="108" y="69.12"/>
  </clipPath>
 </defs>
</svg>
