<?xml version="1.0" encoding="utf-8" standalone="no"?>
<!DOCTYPE svg PUBLIC "-//W3C//DTD SVG 1.1//EN"
  "http://www.w3.org/Graphics/SVG/1.1/DTD/svg11.dtd">
<!-- Created with matplotlib (https://matplotlib.org/) -->
<svg height="576pt" version="1.1" viewBox="0 0 864 576" width="864pt" xmlns="http://www.w3.org/2000/svg" xmlns:xlink="http://www.w3.org/1999/xlink">
 <metadata>
  <rdf:RDF xmlns:cc="http://creativecommons.org/ns#" xmlns:dc="http://purl.org/dc/elements/1.1/" xmlns:rdf="http://www.w3.org/1999/02/22-rdf-syntax-ns#">
   <cc:Work>
    <dc:type rdf:resource="http://purl.org/dc/dcmitype/StillImage"/>
    <dc:date>2024-04-26T13:36:38.019579</dc:date>
    <dc:format>image/svg+xml</dc:format>
    <dc:creator>
     <cc:Agent>
      <dc:title>Matplotlib v3.3.1, https://matplotlib.org/</dc:title>
     </cc:Agent>
    </dc:creator>
   </cc:Work>
  </rdf:RDF>
 </metadata>
 <defs>
  <style type="text/css">*{stroke-linecap:butt;stroke-linejoin:round;}</style>
 </defs>
 <g id="figure_1">
  <g id="patch_1">
   <path d="M 0 576 
L 864 576 
L 864 0 
L 0 0 
z
" style="fill:#ffffff;"/>
  </g>
  <g id="axes_1">
   <g id="patch_2">
    <path clip-path="url(#p17b943c497)" d="M 474.109652 289.207837 
Q 444.920233 261.142631 416.536752 233.852322 
" style="fill:none;stroke:#000000;stroke-linecap:round;"/>
    <path clip-path="url(#p17b943c497)" d="M 418.033982 238.066382 
L 416.536752 233.852322 
L 420.806338 235.182974 
L 418.033982 238.066382 
z
" style="stroke:#000000;stroke-linecap:round;"/>
   </g>
   <g id="patch_3">
    <path clip-path="url(#p17b943c497)" d="M 488.887872 293.770745 
Q 520.600359 288.420068 551.210394 283.255403 
" style="fill:none;stroke:#000000;stroke-linecap:round;"/>
    <path clip-path="url(#p17b943c497)" d="M 546.933397 281.948769 
L 551.210394 283.255403 
L 547.598889 285.893021 
L 546.933397 281.948769 
z
" style="stroke:#000000;stroke-linecap:round;"/>
   </g>
   <g id="patch_4">
    <path clip-path="url(#p17b943c497)" d="M 483.632769 303.230947 
Q 487.797045 313.414205 491.538135 322.562612 
" style="fill:none;stroke:#000000;stroke-linecap:round;"/>
    <path clip-path="url(#p17b943c497)" d="M 491.875299 318.103204 
L 491.538135 322.562612 
L 488.172907 319.617236 
L 491.875299 318.103204 
z
" style="stroke:#000000;stroke-linecap:round;"/>
   </g>
   <g id="patch_5">
    <path clip-path="url(#p17b943c497)" d="M 485.353319 302.282154 
Q 502.772658 326.916587 519.546496 350.638152 
" style="fill:none;stroke:#000000;stroke-linecap:round;"/>
    <path clip-path="url(#p17b943c497)" d="M 518.870069 346.217468 
L 519.546496 350.638152 
L 515.604093 348.526883 
L 518.870069 346.217468 
z
" style="stroke:#000000;stroke-linecap:round;"/>
   </g>
   <g id="patch_6">
    <path clip-path="url(#p17b943c497)" d="M 483.295606 303.354542 
Q 494.536237 334.463947 505.396934 364.521852 
" style="fill:none;stroke:#000000;stroke-linecap:round;"/>
    <path clip-path="url(#p17b943c497)" d="M 505.91862 360.080248 
L 505.396934 364.521852 
L 502.156663 361.439541 
L 505.91862 360.080248 
z
" style="stroke:#000000;stroke-linecap:round;"/>
   </g>
   <g id="patch_7">
    <path clip-path="url(#p17b943c497)" d="M 488.583805 292.522091 
Q 526.111368 280.263201 562.576164 268.351479 
" style="fill:none;stroke:#000000;stroke-linecap:round;"/>
    <path clip-path="url(#p17b943c497)" d="M 558.152859 267.692407 
L 562.576164 268.351479 
L 559.394923 271.49468 
L 558.152859 267.692407 
z
" style="stroke:#000000;stroke-linecap:round;"/>
   </g>
   <g id="patch_8">
    <path clip-path="url(#p17b943c497)" d="M 444.196945 326.790625 
Q 498.487705 305.772882 551.735835 285.158774 
" style="fill:none;stroke:#000000;stroke-linecap:round;"/>
    <path clip-path="url(#p17b943c497)" d="M 547.283561 284.737755 
L 551.735835 285.158774 
L 548.727655 288.467982 
L 547.283561 284.737755 
z
" style="stroke:#000000;stroke-linecap:round;"/>
   </g>
   <g id="patch_9">
    <path clip-path="url(#p17b943c497)" d="M 444.779028 330.164283 
Q 465.679919 330.763264 485.463235 331.330219 
" style="fill:none;stroke:#000000;stroke-linecap:round;"/>
    <path clip-path="url(#p17b943c497)" d="M 481.52217 329.216454 
L 485.463235 331.330219 
L 481.407584 333.214812 
L 481.52217 329.216454 
z
" style="stroke:#000000;stroke-linecap:round;"/>
   </g>
   <g id="patch_10">
    <path clip-path="url(#p17b943c497)" d="M 444.367609 332.573484 
Q 480.660289 344.271056 515.888844 355.625648 
" style="fill:none;stroke:#000000;stroke-linecap:round;"/>
    <path clip-path="url(#p17b943c497)" d="M 512.695254 352.494996 
L 515.888844 355.625648 
L 511.468169 356.302129 
L 512.695254 352.494996 
z
" style="stroke:#000000;stroke-linecap:round;"/>
   </g>
   <g id="patch_11">
    <path clip-path="url(#p17b943c497)" d="M 443.538511 334.390504 
Q 472.42371 351.819465 500.351637 368.670821 
" style="fill:none;stroke:#000000;stroke-linecap:round;"/>
    <path clip-path="url(#p17b943c497)" d="M 497.960048 364.891893 
L 500.351637 368.670821 
L 495.893541 368.316736 
L 497.960048 364.891893 
z
" style="stroke:#000000;stroke-linecap:round;"/>
   </g>
   <g id="patch_12">
    <path clip-path="url(#p17b943c497)" d="M 443.940537 326.196053 
Q 503.996083 297.616249 563.042083 269.516878 
" style="fill:none;stroke:#000000;stroke-linecap:round;"/>
    <path clip-path="url(#p17b943c497)" d="M 558.570795 269.429794 
L 563.042083 269.516878 
L 560.289643 273.041658 
L 558.570795 269.429794 
z
" style="stroke:#000000;stroke-linecap:round;"/>
   </g>
   <g id="patch_13">
    <path clip-path="url(#p17b943c497)" d="M 359.545251 416.099753 
Q 438.949566 443.704059 517.297841 470.941241 
" style="fill:none;stroke:#000000;stroke-linecap:round;"/>
    <path clip-path="url(#p17b943c497)" d="M 514.176371 467.738677 
L 517.297841 470.941241 
L 512.862907 471.516879 
L 514.176371 467.738677 
z
" style="stroke:#000000;stroke-linecap:round;"/>
   </g>
   <g id="patch_14">
    <path clip-path="url(#p17b943c497)" d="M 358.463867 311.490598 
Q 266.292775 273.862787 175.156785 236.657545 
" style="fill:none;stroke:#000000;stroke-linecap:round;"/>
    <path clip-path="url(#p17b943c497)" d="M 178.104164 240.021019 
L 175.156785 236.657545 
L 179.615992 236.317726 
L 178.104164 240.021019 
z
" style="stroke:#000000;stroke-linecap:round;"/>
   </g>
   <g id="patch_15">
    <path clip-path="url(#p17b943c497)" d="M 417.994423 228.723647 
Q 538.698012 252.103129 658.303966 275.270007 
" style="fill:none;stroke:#000000;stroke-linecap:round;"/>
    <path clip-path="url(#p17b943c497)" d="M 654.757271 272.545865 
L 658.303966 275.270007 
L 653.996635 276.472878 
L 654.757271 272.545865 
z
" style="stroke:#000000;stroke-linecap:round;"/>
   </g>
   <g id="patch_16">
    <path clip-path="url(#p17b943c497)" d="M 400.83253 227.285618 
Q 287.797576 230.019412 175.88033 232.726175 
" style="fill:none;stroke:#000000;stroke-linecap:round;"/>
    <path clip-path="url(#p17b943c497)" d="M 179.927518 234.628877 
L 175.88033 232.726175 
L 179.830804 230.630046 
L 179.927518 234.628877 
z
" style="stroke:#000000;stroke-linecap:round;"/>
   </g>
   <g id="patch_17">
    <path clip-path="url(#p17b943c497)" d="M 202.881827 179.780035 
Q 186.957289 202.808815 171.668649 224.918012 
" style="fill:none;stroke:#000000;stroke-linecap:round;"/>
    <path clip-path="url(#p17b943c497)" d="M 175.588707 222.765537 
L 171.668649 224.918012 
L 172.298704 220.490481 
L 175.588707 222.765537 
z
" style="stroke:#000000;stroke-linecap:round;"/>
   </g>
   <g id="patch_18">
    <path clip-path="url(#p17b943c497)" d="M 591.36517 312.713382 
Q 638.690405 264.774874 685.230177 217.632008 
" style="fill:none;stroke:#000000;stroke-linecap:round;"/>
    <path clip-path="url(#p17b943c497)" d="M 680.996728 219.073504 
L 685.230177 217.632008 
L 683.843305 221.883665 
L 680.996728 219.073504 
z
" style="stroke:#000000;stroke-linecap:round;"/>
   </g>
   <g id="patch_19">
    <path clip-path="url(#p17b943c497)" d="M 582.648269 310.626223 
Q 582.250523 309.378513 582.192348 309.196021 
" style="fill:none;stroke:#000000;stroke-linecap:round;"/>
    <path clip-path="url(#p17b943c497)" d="M 581.501714 313.614507 
L 582.192348 309.196021 
L 585.312757 312.39962 
L 581.501714 313.614507 
z
" style="stroke:#000000;stroke-linecap:round;"/>
   </g>
   <g id="patch_20">
    <path clip-path="url(#p17b943c497)" d="M 663.062313 284.307482 
Q 624.74327 341.151701 587.049167 397.068854 
" style="fill:none;stroke:#000000;stroke-linecap:round;"/>
    <path clip-path="url(#p17b943c497)" d="M 590.943406 394.870012 
L 587.049167 397.068854 
L 587.626637 392.634158 
L 590.943406 394.870012 
z
" style="stroke:#000000;stroke-linecap:round;"/>
   </g>
   <g id="patch_21">
    <path clip-path="url(#p17b943c497)" d="M 669.280654 285.681061 
Q 675.669921 325.297756 681.881175 363.810679 
" style="fill:none;stroke:#000000;stroke-linecap:round;"/>
    <path clip-path="url(#p17b943c497)" d="M 683.218782 359.543267 
L 681.881175 363.810679 
L 679.26981 360.180146 
L 683.218782 359.543267 
z
" style="stroke:#000000;stroke-linecap:round;"/>
   </g>
   <g id="patch_22">
    <path clip-path="url(#p17b943c497)" d="M 668.154318 268.471295 
Q 670.377605 192.366726 672.568244 117.379715 
" style="fill:none;stroke:#000000;stroke-linecap:round;"/>
    <path clip-path="url(#p17b943c497)" d="M 670.452292 121.319607 
L 672.568244 117.379715 
L 674.450586 121.436411 
L 670.452292 121.319607 
z
" style="stroke:#000000;stroke-linecap:round;"/>
   </g>
   <g id="patch_23">
    <path clip-path="url(#p17b943c497)" d="M 602.582585 420.97664 
Q 643.789648 388.964297 684.113797 357.637858 
" style="fill:none;stroke:#000000;stroke-linecap:round;"/>
    <path clip-path="url(#p17b943c497)" d="M 679.728009 358.512422 
L 684.113797 357.637858 
L 682.181976 361.671227 
L 679.728009 358.512422 
z
" style="stroke:#000000;stroke-linecap:round;"/>
   </g>
   <g id="patch_24">
    <path clip-path="url(#p17b943c497)" d="M 423.015806 314.12293 
Q 470.133819 334.644339 516.226797 354.719312 
" style="fill:none;stroke:#000000;stroke-linecap:round;"/>
    <path clip-path="url(#p17b943c497)" d="M 513.358131 351.288459 
L 516.226797 354.719312 
L 511.760915 354.955733 
L 513.358131 351.288459 
z
" style="stroke:#000000;stroke-linecap:round;"/>
   </g>
   <g id="patch_25">
    <path clip-path="url(#p17b943c497)" d="M 422.256545 315.500182 
Q 461.896053 342.191348 500.608171 368.258057 
" style="fill:none;stroke:#000000;stroke-linecap:round;"/>
    <path clip-path="url(#p17b943c497)" d="M 498.407297 364.364966 
L 500.608171 368.258057 
L 496.173174 367.682901 
L 498.407297 364.364966 
z
" style="stroke:#000000;stroke-linecap:round;"/>
   </g>
   <g id="patch_26">
    <path clip-path="url(#p17b943c497)" d="M 423.395997 308.257663 
Q 493.471986 287.990025 562.47396 268.033017 
" style="fill:none;stroke:#000000;stroke-linecap:round;"/>
    <path clip-path="url(#p17b943c497)" d="M 558.075773 267.223107 
L 562.47396 268.033017 
L 559.187119 271.06562 
L 558.075773 267.223107 
z
" style="stroke:#000000;stroke-linecap:round;"/>
   </g>
   <g id="patch_27">
    <path clip-path="url(#p17b943c497)" d="M 583.411262 129.431595 
Q 634.28752 167.460552 684.268268 204.820135 
" style="fill:none;stroke:#000000;stroke-linecap:round;"/>
    <path clip-path="url(#p17b943c497)" d="M 682.26181 200.82337 
L 684.268268 204.820135 
L 679.866981 204.027242 
L 682.26181 200.82337 
z
" style="stroke:#000000;stroke-linecap:round;"/>
   </g>
   <g id="patch_28">
    <path clip-path="url(#p17b943c497)" d="M 689.135215 218.814356 
Q 680.000293 243.901669 671.247904 267.938425 
" style="fill:none;stroke:#000000;stroke-linecap:round;"/>
    <path clip-path="url(#p17b943c497)" d="M 674.49579 264.864139 
L 671.247904 267.938425 
L 670.737207 263.495544 
L 674.49579 264.864139 
z
" style="stroke:#000000;stroke-linecap:round;"/>
   </g>
   <g id="patch_29">
    <path clip-path="url(#p17b943c497)" d="M 685.302934 216.044868 
Q 635.660071 255.276564 586.89439 293.815043 
" style="fill:none;stroke:#000000;stroke-linecap:round;"/>
    <path clip-path="url(#p17b943c497)" d="M 591.272758 292.90406 
L 586.89439 293.815043 
L 588.792625 289.765758 
L 591.272758 292.90406 
z
" style="stroke:#000000;stroke-linecap:round;"/>
   </g>
   <g id="patch_30">
    <path clip-path="url(#p17b943c497)" d="M 690.509507 202.159321 
Q 682.476636 159.140852 674.648988 117.221419 
" style="fill:none;stroke:#000000;stroke-linecap:round;"/>
    <path clip-path="url(#p17b943c497)" d="M 673.417203 121.520571 
L 674.648988 117.221419 
L 677.349238 120.786339 
L 673.417203 121.520571 
z
" style="stroke:#000000;stroke-linecap:round;"/>
   </g>
   <g id="patch_31">
    <path clip-path="url(#p17b943c497)" d="M 616.769694 124.688417 
Q 651.580493 164.423311 685.65455 203.317246 
" style="fill:none;stroke:#000000;stroke-linecap:round;"/>
    <path clip-path="url(#p17b943c497)" d="M 684.523048 198.990619 
L 685.65455 203.317246 
L 681.514347 201.626471 
L 684.523048 198.990619 
z
" style="stroke:#000000;stroke-linecap:round;"/>
   </g>
   <g id="patch_32">
    <path clip-path="url(#p17b943c497)" d="M 449.861096 283.471567 
Q 501.028113 282.621654 551.077251 281.790309 
" style="fill:none;stroke:#000000;stroke-linecap:round;"/>
    <path clip-path="url(#p17b943c497)" d="M 547.044586 279.857018 
L 551.077251 281.790309 
L 547.111019 283.856467 
L 547.044586 279.857018 
z
" style="stroke:#000000;stroke-linecap:round;"/>
   </g>
   <g id="patch_33">
    <path clip-path="url(#p17b943c497)" d="M 447.677341 289.365751 
Q 468.219541 307.611838 487.925836 325.115453 
" style="fill:none;stroke:#000000;stroke-linecap:round;"/>
    <path clip-path="url(#p17b943c497)" d="M 486.263386 320.963796 
L 487.925836 325.115453 
L 483.60704 323.95442 
L 486.263386 320.963796 
z
" style="stroke:#000000;stroke-linecap:round;"/>
   </g>
   <g id="patch_34">
    <path clip-path="url(#p17b943c497)" d="M 447.665135 289.386213 
Q 483.198787 321.120214 517.898543 352.109487 
" style="fill:none;stroke:#000000;stroke-linecap:round;"/>
    <path clip-path="url(#p17b943c497)" d="M 516.247314 347.953354 
L 517.898543 352.109487 
L 513.582899 350.936791 
L 516.247314 347.953354 
z
" style="stroke:#000000;stroke-linecap:round;"/>
   </g>
   <g id="patch_35">
    <path clip-path="url(#p17b943c497)" d="M 446.397766 290.547605 
Q 474.962116 328.668135 502.856037 365.893943 
" style="fill:none;stroke:#000000;stroke-linecap:round;"/>
    <path clip-path="url(#p17b943c497)" d="M 502.057962 361.493594 
L 502.856037 365.893943 
L 498.856912 363.892194 
L 502.057962 361.493594 
z
" style="stroke:#000000;stroke-linecap:round;"/>
   </g>
   <g id="patch_36">
    <path clip-path="url(#p17b943c497)" d="M 449.780832 282.414079 
Q 506.539568 274.46489 562.191077 266.670771 
" style="fill:none;stroke:#000000;stroke-linecap:round;"/>
    <path clip-path="url(#p17b943c497)" d="M 557.952341 265.244896 
L 562.191077 266.670771 
L 558.507136 269.206234 
L 557.952341 265.244896 
z
" style="stroke:#000000;stroke-linecap:round;"/>
   </g>
   <g id="patch_37">
    <path clip-path="url(#p17b943c497)" d="M 472.389188 288.961725 
Q 512.307193 285.652561 551.110987 282.435763 
" style="fill:none;stroke:#000000;stroke-linecap:round;"/>
    <path clip-path="url(#p17b943c497)" d="M 546.959429 280.773063 
L 551.110987 282.435763 
L 547.289892 284.759389 
L 546.959429 280.773063 
z
" style="stroke:#000000;stroke-linecap:round;"/>
   </g>
   <g id="patch_38">
    <path clip-path="url(#p17b943c497)" d="M 468.958613 296.60557 
Q 479.499102 310.645724 489.368347 323.791769 
" style="fill:none;stroke:#000000;stroke-linecap:round;"/>
    <path clip-path="url(#p17b943c497)" d="M 488.566268 319.392148 
L 489.368347 323.791769 
L 485.367402 321.79366 
L 488.566268 319.392148 
z
" style="stroke:#000000;stroke-linecap:round;"/>
   </g>
   <g id="patch_39">
    <path clip-path="url(#p17b943c497)" d="M 469.518856 296.143233 
Q 494.475637 324.151061 518.688623 351.324162 
" style="fill:none;stroke:#000000;stroke-linecap:round;"/>
    <path clip-path="url(#p17b943c497)" d="M 517.520745 347.007212 
L 518.688623 351.324162 
L 514.534336 349.668295 
L 517.520745 347.007212 
z
" style="stroke:#000000;stroke-linecap:round;"/>
   </g>
   <g id="patch_40">
    <path clip-path="url(#p17b943c497)" d="M 467.842253 297.312704 
Q 486.238666 331.698352 504.107665 365.098184 
" style="fill:none;stroke:#000000;stroke-linecap:round;"/>
    <path clip-path="url(#p17b943c497)" d="M 503.984212 360.627752 
L 504.107665 365.098184 
L 500.457248 362.514688 
L 503.984212 360.627752 
z
" style="stroke:#000000;stroke-linecap:round;"/>
   </g>
   <g id="patch_41">
    <path clip-path="url(#p17b943c497)" d="M 472.207025 287.773252 
Q 517.816177 277.495758 562.334643 267.464037 
" style="fill:none;stroke:#000000;stroke-linecap:round;"/>
    <path clip-path="url(#p17b943c497)" d="M 557.992834 266.392265 
L 562.334643 267.464037 
L 558.87214 270.294421 
L 557.992834 266.392265 
z
" style="stroke:#000000;stroke-linecap:round;"/>
   </g>
   <g id="patch_42">
    <path clip-path="url(#p17b943c497)" d="M 640.985602 384.228784 
Q 662.765627 370.269947 683.60435 356.914392 
" style="fill:none;stroke:#000000;stroke-linecap:round;"/>
    <path clip-path="url(#p17b943c497)" d="M 679.157459 357.388905 
L 683.60435 356.914392 
L 681.315826 360.756613 
L 679.157459 357.388905 
z
" style="stroke:#000000;stroke-linecap:round;"/>
   </g>
   <g id="patch_43">
    <path clip-path="url(#p17b943c497)" d="M 625.426624 391.484435 
Q 607.63786 397.040242 590.916291 402.262742 
" style="fill:none;stroke:#000000;stroke-linecap:round;"/>
    <path clip-path="url(#p17b943c497)" d="M 595.330644 402.979321 
L 590.916291 402.262742 
L 594.138166 399.161207 
L 595.330644 402.979321 
z
" style="stroke:#000000;stroke-linecap:round;"/>
   </g>
   <g id="patch_44">
    <path clip-path="url(#p17b943c497)" d="M 641.96647 386.334735 
Q 658.56742 381.182101 674.100587 376.360887 
" style="fill:none;stroke:#000000;stroke-linecap:round;"/>
    <path clip-path="url(#p17b943c497)" d="M 669.687507 375.636505 
L 674.100587 376.360887 
L 670.873233 379.456721 
L 669.687507 375.636505 
z
" style="stroke:#000000;stroke-linecap:round;"/>
   </g>
   <g id="patch_45">
    <path clip-path="url(#p17b943c497)" d="M 686.266986 358.269624 
Q 646.373828 405.768819 607.199716 452.411875 
" style="fill:none;stroke:#000000;stroke-linecap:round;"/>
    <path clip-path="url(#p17b943c497)" d="M 611.303759 450.635127 
L 607.199716 452.411875 
L 608.240744 448.062592 
L 611.303759 450.635127 
z
" style="stroke:#000000;stroke-linecap:round;"/>
   </g>
   <g id="patch_46">
    <path clip-path="url(#p17b943c497)" d="M 511.831123 399.293054 
Q 586.457223 340.879435 660.202927 283.154947 
" style="fill:none;stroke:#000000;stroke-linecap:round;"/>
    <path clip-path="url(#p17b943c497)" d="M 655.820369 284.045555 
L 660.202927 283.154947 
L 658.285879 287.195358 
L 655.820369 284.045555 
z
" style="stroke:#000000;stroke-linecap:round;"/>
   </g>
   <g id="patch_47">
    <path clip-path="url(#p17b943c497)" d="M 680.136129 236.633655 
Q 684.306192 227.584767 688.008322 219.551279 
" style="fill:none;stroke:#000000;stroke-linecap:round;"/>
    <path clip-path="url(#p17b943c497)" d="M 684.517786 222.347019 
L 688.008322 219.551279 
L 688.150593 224.021151 
L 684.517786 222.347019 
z
" style="stroke:#000000;stroke-linecap:round;"/>
   </g>
   <g id="patch_48">
    <path clip-path="url(#p17b943c497)" d="M 668.984692 248.783874 
Q 627.865852 272.189432 587.718661 295.041911 
" style="fill:none;stroke:#000000;stroke-linecap:round;"/>
    <path clip-path="url(#p17b943c497)" d="M 592.184319 294.801292 
L 587.718661 295.041911 
L 590.20556 291.325013 
L 592.184319 294.801292 
z
" style="stroke:#000000;stroke-linecap:round;"/>
   </g>
   <g id="patch_49">
    <path clip-path="url(#p17b943c497)" d="M 552.662433 276.043814 
Q 618.459684 245.197118 683.244625 214.825007 
" style="fill:none;stroke:#000000;stroke-linecap:round;"/>
    <path clip-path="url(#p17b943c497)" d="M 678.773916 214.71206 
L 683.244625 214.825007 
L 680.471843 218.333807 
L 678.773916 214.71206 
z
" style="stroke:#000000;stroke-linecap:round;"/>
   </g>
   <g id="patch_50">
    <path clip-path="url(#p17b943c497)" d="M 552.290307 284.098262 
Q 562.019859 289.799081 570.784768 294.934689 
" style="fill:none;stroke:#000000;stroke-linecap:round;"/>
    <path clip-path="url(#p17b943c497)" d="M 568.344637 291.186921 
L 570.784768 294.934689 
L 566.322475 294.638132 
L 568.344637 291.186921 
z
" style="stroke:#000000;stroke-linecap:round;"/>
   </g>
   <g id="patch_51">
    <path clip-path="url(#p17b943c497)" d="M 622.122663 197.241839 
Q 652.859216 203.141667 682.497779 208.830738 
" style="fill:none;stroke:#000000;stroke-linecap:round;"/>
    <path clip-path="url(#p17b943c497)" d="M 678.946506 206.112567 
L 682.497779 208.830738 
L 678.192478 210.040854 
L 678.946506 206.112567 
z
" style="stroke:#000000;stroke-linecap:round;"/>
   </g>
   <g id="patch_52">
    <path clip-path="url(#p17b943c497)" d="M 610.906837 203.835381 
Q 596.42058 247.74613 582.284597 290.595132 
" style="fill:none;stroke:#000000;stroke-linecap:round;"/>
    <path clip-path="url(#p17b943c497)" d="M 585.437084 287.423095 
L 582.284597 290.595132 
L 581.638459 286.16992 
L 585.437084 287.423095 
z
" style="stroke:#000000;stroke-linecap:round;"/>
   </g>
   <g id="patch_53">
    <path clip-path="url(#p17b943c497)" d="M 288.882439 252.942237 
Q 231.76739 243.647805 175.755859 234.532949 
" style="fill:none;stroke:#000000;stroke-linecap:round;"/>
    <path clip-path="url(#p17b943c497)" d="M 179.382687 237.149458 
L 175.755859 234.532949 
L 180.025163 233.201392 
L 179.382687 237.149458 
z
" style="stroke:#000000;stroke-linecap:round;"/>
   </g>
   <g id="patch_54">
    <path clip-path="url(#p17b943c497)" d="M 305.535762 257.38071 
Q 338.177518 269.653776 369.772768 281.533363 
" style="fill:none;stroke:#000000;stroke-linecap:round;"/>
    <path clip-path="url(#p17b943c497)" d="M 366.732551 278.253564 
L 369.772768 281.533363 
L 365.324799 281.997657 
L 366.732551 278.253564 
z
" style="stroke:#000000;stroke-linecap:round;"/>
   </g>
   <g id="patch_55">
    <path clip-path="url(#p17b943c497)" d="M 299.247858 262.800422 
Q 307.685451 302.120213 315.888467 340.346856 
" style="fill:none;stroke:#000000;stroke-linecap:round;"/>
    <path clip-path="url(#p17b943c497)" d="M 317.0047 336.016264 
L 315.888467 340.346856 
L 313.093734 336.855515 
L 317.0047 336.016264 
z
" style="stroke:#000000;stroke-linecap:round;"/>
   </g>
   <g id="patch_56">
    <path clip-path="url(#p17b943c497)" d="M 267.085264 280.88486 
Q 220.507678 258.780326 174.940154 237.155142 
" style="fill:none;stroke:#000000;stroke-linecap:round;"/>
    <path clip-path="url(#p17b943c497)" d="M 177.696373 240.676967 
L 174.940154 237.155142 
L 179.411346 237.063261 
L 177.696373 240.676967 
z
" style="stroke:#000000;stroke-linecap:round;"/>
   </g>
   <g id="patch_57">
    <path clip-path="url(#p17b943c497)" d="M 283.573905 284.630246 
Q 326.916746 284.786247 369.14156 284.938223 
" style="fill:none;stroke:#000000;stroke-linecap:round;"/>
    <path clip-path="url(#p17b943c497)" d="M 365.148784 282.923839 
L 369.14156 284.938223 
L 365.134387 286.923813 
L 365.148784 282.923839 
z
" style="stroke:#000000;stroke-linecap:round;"/>
   </g>
   <g id="patch_58">
    <path clip-path="url(#p17b943c497)" d="M 279.678278 291.833759 
Q 296.425903 317.253029 312.558412 341.738687 
" style="fill:none;stroke:#000000;stroke-linecap:round;"/>
    <path clip-path="url(#p17b943c497)" d="M 312.027804 337.29814 
L 312.558412 341.738687 
L 308.68761 339.498845 
L 312.027804 337.29814 
z
" style="stroke:#000000;stroke-linecap:round;"/>
   </g>
   <g id="patch_59">
    <path clip-path="url(#p17b943c497)" d="M 655.218421 407.388923 
Q 594.719733 438.777161 535.213461 469.650509 
" style="fill:none;stroke:#000000;stroke-linecap:round;"/>
    <path clip-path="url(#p17b943c497)" d="M 539.685097 469.583669 
L 535.213461 469.650509 
L 537.842971 466.033096 
L 539.685097 469.583669 
z
" style="stroke:#000000;stroke-linecap:round;"/>
   </g>
   <g id="patch_60">
    <path clip-path="url(#p17b943c497)" d="M 370.508242 282.917149 
Q 272.512896 258.967751 175.60362 235.283782 
" style="fill:none;stroke:#000000;stroke-linecap:round;"/>
    <path clip-path="url(#p17b943c497)" d="M 179.01445 238.176228 
L 175.60362 235.283782 
L 179.964074 234.290586 
L 179.01445 238.176228 
z
" style="stroke:#000000;stroke-linecap:round;"/>
   </g>
   <g id="patch_61">
    <path clip-path="url(#p17b943c497)" d="M 384.248985 291.800345 
Q 452.729481 379.563829 520.522194 466.445862 
" style="fill:none;stroke:#000000;stroke-linecap:round;"/>
    <path clip-path="url(#p17b943c497)" d="M 519.638296 462.061945 
L 520.522194 466.445862 
L 516.484722 464.52263 
L 519.638296 462.061945 
z
" style="stroke:#000000;stroke-linecap:round;"/>
   </g>
   <g id="patch_62">
    <path clip-path="url(#p17b943c497)" d="M 311.079823 344.622913 
Q 242.022709 291.434488 173.851356 238.928286 
" style="fill:none;stroke:#000000;stroke-linecap:round;"/>
    <path clip-path="url(#p17b943c497)" d="M 175.799958 242.953575 
L 173.851356 238.928286 
L 178.240749 239.784578 
L 175.799958 242.953575 
z
" style="stroke:#000000;stroke-linecap:round;"/>
   </g>
   <g id="patch_63">
    <path clip-path="url(#p17b943c497)" d="M 325.378366 354.337183 
Q 422.235385 412.028214 518.131851 469.14711 
" style="fill:none;stroke:#000000;stroke-linecap:round;"/>
    <path clip-path="url(#p17b943c497)" d="M 515.718739 465.381889 
L 518.131851 469.14711 
L 513.671807 468.818467 
L 515.718739 465.381889 
z
" style="stroke:#000000;stroke-linecap:round;"/>
   </g>
   <g id="patch_64">
    <path clip-path="url(#p17b943c497)" d="M 586.018528 294.507217 
Q 635.661391 255.275521 684.427072 216.737043 
" style="fill:none;stroke:#000000;stroke-linecap:round;"/>
    <path clip-path="url(#p17b943c497)" d="M 680.048703 217.648025 
L 684.427072 216.737043 
L 682.528837 220.786327 
L 680.048703 217.648025 
z
" style="stroke:#000000;stroke-linecap:round;"/>
   </g>
   <g id="patch_65">
    <path clip-path="url(#p17b943c497)" d="M 573.077027 293.771823 
Q 570.038301 290.752141 567.792625 288.52054 
" style="fill:none;stroke:#000000;stroke-linecap:round;"/>
    <path clip-path="url(#p17b943c497)" d="M 569.220168 292.758714 
L 567.792625 288.52054 
L 572.03969 289.92141 
L 569.220168 292.758714 
z
" style="stroke:#000000;stroke-linecap:round;"/>
   </g>
   <g id="patch_66">
    <path clip-path="url(#p17b943c497)" d="M 571.120443 302.939393 
Q 537.229491 315.744551 504.384409 328.154544 
" style="fill:none;stroke:#000000;stroke-linecap:round;"/>
    <path clip-path="url(#p17b943c497)" d="M 508.833121 328.611666 
L 504.384409 328.154544 
L 507.419334 324.869847 
L 508.833121 328.611666 
z
" style="stroke:#000000;stroke-linecap:round;"/>
   </g>
   <g id="patch_67">
    <path clip-path="url(#p17b943c497)" d="M 573.362191 306.249942 
Q 552.210682 329.248655 531.816005 351.424442 
" style="fill:none;stroke:#000000;stroke-linecap:round;"/>
    <path clip-path="url(#p17b943c497)" d="M 535.995819 349.834112 
L 531.816005 351.424442 
L 533.051629 347.126393 
L 535.995819 349.834112 
z
" style="stroke:#000000;stroke-linecap:round;"/>
   </g>
   <g id="patch_68">
    <path clip-path="url(#p17b943c497)" d="M 573.242943 306.140771 
Q 543.971832 336.798969 515.472786 366.648516 
" style="fill:none;stroke:#000000;stroke-linecap:round;"/>
    <path clip-path="url(#p17b943c497)" d="M 519.681567 365.13651 
L 515.472786 366.648516 
L 516.78845 362.374288 
L 519.681567 365.13651 
z
" style="stroke:#000000;stroke-linecap:round;"/>
   </g>
   <g id="patch_69">
    <path clip-path="url(#p17b943c497)" d="M 577.421233 291.41048 
Q 575.547093 282.597835 573.905518 274.878769 
" style="fill:none;stroke:#000000;stroke-linecap:round;"/>
    <path clip-path="url(#p17b943c497)" d="M 572.781318 279.2073 
L 573.905518 274.878769 
L 576.693823 278.375247 
L 572.781318 279.2073 
z
" style="stroke:#000000;stroke-linecap:round;"/>
   </g>
   <g id="patch_70">
    <path clip-path="url(#p17b943c497)" d="M 677.526048 172.611101 
Q 697.041732 226.763668 716.17836 279.86442 
" style="fill:none;stroke:#000000;stroke-linecap:round;"/>
    <path clip-path="url(#p17b943c497)" d="M 716.70375 275.423253 
L 716.17836 279.86442 
L 712.94066 276.779408 
L 716.70375 275.423253 
z
" style="stroke:#000000;stroke-linecap:round;"/>
   </g>
   <g id="patch_71">
    <path clip-path="url(#p17b943c497)" d="M 673.554161 173.061195 
Q 671.798801 187.643146 670.177064 201.115077 
" style="fill:none;stroke:#000000;stroke-linecap:round;"/>
    <path clip-path="url(#p17b943c497)" d="M 672.640793 197.38278 
L 670.177064 201.115077 
L 668.669464 196.904715 
L 672.640793 197.38278 
z
" style="stroke:#000000;stroke-linecap:round;"/>
   </g>
   <g id="patch_72">
    <path clip-path="url(#p17b943c497)" d="M 714.807977 211.192999 
Q 716.890956 245.806357 718.906775 279.3037 
" style="fill:none;stroke:#000000;stroke-linecap:round;"/>
    <path clip-path="url(#p17b943c497)" d="M 720.662884 275.190783 
L 718.906775 279.3037 
L 716.670107 275.431063 
L 720.662884 275.190783 
z
" style="stroke:#000000;stroke-linecap:round;"/>
   </g>
   <g id="patch_73">
    <path clip-path="url(#p17b943c497)" d="M 705.767388 204.103086 
Q 691.648546 206.683665 678.629518 209.063225 
" style="fill:none;stroke:#000000;stroke-linecap:round;"/>
    <path clip-path="url(#p17b943c497)" d="M 682.923927 210.311444 
L 678.629518 209.063225 
L 682.204739 206.376629 
L 682.923927 210.311444 
z
" style="stroke:#000000;stroke-linecap:round;"/>
   </g>
   <g id="patch_74">
    <path clip-path="url(#p17b943c497)" d="M 715.991382 296.990107 
Q 705.664532 320.353474 695.78968 342.694247 
" style="fill:none;stroke:#000000;stroke-linecap:round;"/>
    <path clip-path="url(#p17b943c497)" d="M 699.236066 339.84426 
L 695.78968 342.694247 
L 695.577522 338.227146 
L 699.236066 339.84426 
z
" style="stroke:#000000;stroke-linecap:round;"/>
   </g>
   <g id="patch_75">
    <path clip-path="url(#p17b943c497)" d="M 670.394214 219.369206 
Q 680.422561 281.231226 690.272 341.989619 
" style="fill:none;stroke:#000000;stroke-linecap:round;"/>
    <path clip-path="url(#p17b943c497)" d="M 691.606151 337.721125 
L 690.272 341.989619 
L 687.657695 338.361202 
L 691.606151 337.721125 
z
" style="stroke:#000000;stroke-linecap:round;"/>
   </g>
   <g id="patch_76">
    <path clip-path="url(#p17b943c497)" d="M 433.218473 371.292737 
Q 396.144154 390.298751 360.064751 408.794724 
" style="fill:none;stroke:#000000;stroke-linecap:round;"/>
    <path clip-path="url(#p17b943c497)" d="M 364.53666 408.749709 
L 360.064751 408.794724 
L 362.711885 405.190187 
L 364.53666 408.749709 
z
" style="stroke:#000000;stroke-linecap:round;"/>
   </g>
   <g id="patch_77">
    <path clip-path="url(#p17b943c497)" d="M 569.510108 281.264174 
Q 614.380415 279.378356 658.133674 277.539486 
" style="fill:none;stroke:#000000;stroke-linecap:round;"/>
    <path clip-path="url(#p17b943c497)" d="M 654.05322 275.709214 
L 658.133674 277.539486 
L 654.221184 279.705686 
L 654.05322 275.709214 
z
" style="stroke:#000000;stroke-linecap:round;"/>
   </g>
   <g id="patch_78">
    <path clip-path="url(#p17b943c497)" d="M 565.722169 288.79415 
Q 597.275389 335.266364 628.200579 380.813603 
" style="fill:none;stroke:#000000;stroke-linecap:round;"/>
    <path clip-path="url(#p17b943c497)" d="M 627.608317 376.380858 
L 628.200579 380.813603 
L 624.299026 378.627766 
L 627.608317 376.380858 
z
" style="stroke:#000000;stroke-linecap:round;"/>
   </g>
   <g id="patch_79">
    <path clip-path="url(#p17b943c497)" d="M 553.931456 286.823175 
Q 533.856498 301.88384 514.675873 316.273557 
" style="fill:none;stroke:#000000;stroke-linecap:round;"/>
    <path clip-path="url(#p17b943c497)" d="M 519.07576 315.472933 
L 514.675873 316.273557 
L 516.675306 312.273273 
L 519.07576 315.472933 
z
" style="stroke:#000000;stroke-linecap:round;"/>
   </g>
   <g id="patch_80">
    <path clip-path="url(#p17b943c497)" d="M 503.497633 329.004159 
Q 581.569101 304.369854 658.574353 280.071977 
" style="fill:none;stroke:#000000;stroke-linecap:round;"/>
    <path clip-path="url(#p17b943c497)" d="M 654.157922 279.368317 
L 658.574353 280.071977 
L 655.361566 283.182926 
L 654.157922 279.368317 
z
" style="stroke:#000000;stroke-linecap:round;"/>
   </g>
   <g id="patch_81">
    <path clip-path="url(#p17b943c497)" d="M 503.236559 334.920115 
Q 564.465576 360.256585 624.661512 385.165569 
" style="fill:none;stroke:#000000;stroke-linecap:round;"/>
    <path clip-path="url(#p17b943c497)" d="M 621.730164 381.788115 
L 624.661512 385.165569 
L 620.20074 385.484175 
L 621.730164 381.788115 
z
" style="stroke:#000000;stroke-linecap:round;"/>
   </g>
   <g id="patch_82">
    <path clip-path="url(#p17b943c497)" d="M 501.950568 326.138684 
Q 504.40218 324.140267 505.987192 322.848254 
" style="fill:none;stroke:#000000;stroke-linecap:round;"/>
    <path clip-path="url(#p17b943c497)" d="M 501.623099 323.825339 
L 505.987192 322.848254 
L 504.150405 326.925779 
L 501.623099 323.825339 
z
" style="stroke:#000000;stroke-linecap:round;"/>
   </g>
   <g id="patch_83">
    <path clip-path="url(#p17b943c497)" d="M 532.713018 354.330899 
Q 596.546703 317.877441 659.409512 281.97842 
" style="fill:none;stroke:#000000;stroke-linecap:round;"/>
    <path clip-path="url(#p17b943c497)" d="M 654.944194 282.22528 
L 659.409512 281.97842 
L 656.927809 285.69879 
L 654.944194 282.22528 
z
" style="stroke:#000000;stroke-linecap:round;"/>
   </g>
   <g id="patch_84">
    <path clip-path="url(#p17b943c497)" d="M 533.534682 360.952379 
Q 579.443053 373.763662 624.274536 386.274427 
" style="fill:none;stroke:#000000;stroke-linecap:round;"/>
    <path clip-path="url(#p17b943c497)" d="M 620.959327 383.272863 
L 624.274536 386.274427 
L 619.884159 387.125656 
L 620.959327 383.272863 
z
" style="stroke:#000000;stroke-linecap:round;"/>
   </g>
   <g id="patch_85">
    <path clip-path="url(#p17b943c497)" d="M 521.305184 350.889097 
Q 516.024393 340.38435 511.245762 330.878521 
" style="fill:none;stroke:#000000;stroke-linecap:round;"/>
    <path clip-path="url(#p17b943c497)" d="M 511.25543 335.350646 
L 511.245762 330.878521 
L 514.829263 333.554061 
L 511.25543 335.350646 
z
" style="stroke:#000000;stroke-linecap:round;"/>
   </g>
   <g id="patch_86">
    <path clip-path="url(#p17b943c497)" d="M 516.126408 369.226759 
Q 588.311932 325.424236 659.541631 282.201711 
" style="fill:none;stroke:#000000;stroke-linecap:round;"/>
    <path clip-path="url(#p17b943c497)" d="M 655.084434 282.566948 
L 659.541631 282.201711 
L 657.159502 285.986611 
L 655.084434 282.566948 
z
" style="stroke:#000000;stroke-linecap:round;"/>
   </g>
   <g id="patch_87">
    <path clip-path="url(#p17b943c497)" d="M 517.320903 374.765383 
Q 571.207916 381.311796 623.985054 387.723378 
" style="fill:none;stroke:#000000;stroke-linecap:round;"/>
    <path clip-path="url(#p17b943c497)" d="M 620.255443 385.255585 
L 623.985054 387.723378 
L 619.773054 389.226391 
L 620.255443 385.255585 
z
" style="stroke:#000000;stroke-linecap:round;"/>
   </g>
   <g id="patch_88">
    <path clip-path="url(#p17b943c497)" d="M 508.40744 365.06642 
Q 507.787223 347.930913 507.207446 331.912708 
" style="fill:none;stroke:#000000;stroke-linecap:round;"/>
    <path clip-path="url(#p17b943c497)" d="M 505.35344 335.982433 
L 507.207446 331.912708 
L 509.350822 335.837748 
L 505.35344 335.982433 
z
" style="stroke:#000000;stroke-linecap:round;"/>
   </g>
   <g id="patch_89">
    <path clip-path="url(#p17b943c497)" d="M 580.467074 266.372433 
Q 619.886964 271.222031 658.197186 275.935114 
" style="fill:none;stroke:#000000;stroke-linecap:round;"/>
    <path clip-path="url(#p17b943c497)" d="M 654.471324 273.461664 
L 658.197186 275.935114 
L 653.982909 277.431734 
L 654.471324 273.461664 
z
" style="stroke:#000000;stroke-linecap:round;"/>
   </g>
   <g id="patch_90">
    <path clip-path="url(#p17b943c497)" d="M 575.744895 273.058078 
Q 602.781553 327.10748 629.318034 380.15697 
" style="fill:none;stroke:#000000;stroke-linecap:round;"/>
    <path clip-path="url(#p17b943c497)" d="M 629.317242 375.684835 
L 629.318034 380.15697 
L 625.73985 377.474322 
L 629.317242 375.684835 
z
" style="stroke:#000000;stroke-linecap:round;"/>
   </g>
   <g id="patch_91">
    <path clip-path="url(#p17b943c497)" d="M 565.349614 271.015362 
Q 539.363173 293.728017 514.218548 315.70491 
" style="fill:none;stroke:#000000;stroke-linecap:round;"/>
    <path clip-path="url(#p17b943c497)" d="M 518.54649 314.578449 
L 514.218548 315.70491 
L 515.914145 311.566679 
L 518.54649 314.578449 
z
" style="stroke:#000000;stroke-linecap:round;"/>
   </g>
   <g id="patch_92">
    <path clip-path="url(#p17b943c497)" d="M 589.372101 401.395311 
Q 636.709518 378.408193 683.041209 355.909456 
" style="fill:none;stroke:#000000;stroke-linecap:round;"/>
    <path clip-path="url(#p17b943c497)" d="M 678.569373 355.857647 
L 683.041209 355.909456 
L 680.316661 359.455839 
L 678.569373 355.857647 
z
" style="stroke:#000000;stroke-linecap:round;"/>
   </g>
   <g id="patch_93">
    <path clip-path="url(#p17b943c497)" d="M 686.547234 365.382609 
Q 687.6364 362.552271 688.324032 360.765373 
" style="fill:none;stroke:#000000;stroke-linecap:round;"/>
    <path clip-path="url(#p17b943c497)" d="M 685.020891 363.780213 
L 688.324032 360.765373 
L 688.754019 365.21679 
L 685.020891 363.780213 
z
" style="stroke:#000000;stroke-linecap:round;"/>
   </g>
   <g id="patch_94">
    <path clip-path="url(#p17b943c497)" d="M 512.648673 328.580883 
Q 544.220038 363.66168 575.043496 397.911433 
" style="fill:none;stroke:#000000;stroke-linecap:round;"/>
    <path clip-path="url(#p17b943c497)" d="M 573.854317 393.600302 
L 575.043496 397.911433 
L 570.881084 396.276098 
L 573.854317 393.600302 
z
" style="stroke:#000000;stroke-linecap:round;"/>
   </g>
   <g id="patch_95">
    <path clip-path="url(#p17b943c497)" d="M 515.171585 324.559265 
Q 595.146581 347.802535 674.047967 370.733779 
" style="fill:none;stroke:#000000;stroke-linecap:round;"/>
    <path clip-path="url(#p17b943c497)" d="M 670.765068 367.69691 
L 674.047967 370.733779 
L 669.648732 371.537977 
L 670.765068 367.69691 
z
" style="stroke:#000000;stroke-linecap:round;"/>
   </g>
   <g id="PathCollection_1">
    <defs>
     <path d="M 0 8.660254 
C 2.296726 8.660254 4.499694 7.747755 6.123724 6.123724 
C 7.747755 4.499694 8.660254 2.296726 8.660254 -0 
C 8.660254 -2.296726 7.747755 -4.499694 6.123724 -6.123724 
C 4.499694 -7.747755 2.296726 -8.660254 0 -8.660254 
C -2.296726 -8.660254 -4.499694 -7.747755 -6.123724 -6.123724 
C -7.747755 -4.499694 -8.660254 -2.296726 -8.660254 0 
C -8.660254 2.296726 -7.747755 4.499694 -6.123724 6.123724 
C -4.499694 7.747755 -2.296726 8.660254 0 8.660254 
z
" id="C0_0_590dd14340"/>
    </defs>
    <g clip-path="url(#p17b943c497)">
     <use style="fill:#ff0000;stroke:#ff0000;" x="480.353054" xlink:href="#C0_0_590dd14340" y="295.210778"/>
    </g>
    <g clip-path="url(#p17b943c497)">
     <use style="fill:#008000;stroke:#008000;" x="436.123239" xlink:href="#C0_0_590dd14340" y="329.916223"/>
    </g>
    <g clip-path="url(#p17b943c497)">
     <use style="fill:#ff0000;stroke:#ff0000;" x="351.363452" xlink:href="#C0_0_590dd14340" y="413.255412"/>
    </g>
    <g clip-path="url(#p17b943c497)">
     <use style="fill:#ff0000;stroke:#ff0000;" x="366.483756" xlink:href="#C0_0_590dd14340" y="314.764628"/>
    </g>
    <g clip-path="url(#p17b943c497)">
     <use style="fill:#ff0000;stroke:#ff0000;" x="409.48925" xlink:href="#C0_0_590dd14340" y="227.076251"/>
    </g>
    <g clip-path="url(#p17b943c497)">
     <use style="fill:#ff0000;stroke:#ff0000;" x="207.806849" xlink:href="#C0_0_590dd14340" y="172.657866"/>
    </g>
    <g clip-path="url(#p17b943c497)">
     <use style="fill:#ff0000;stroke:#ff0000;" x="585.278933" xlink:href="#C0_0_590dd14340" y="318.87849"/>
    </g>
    <g clip-path="url(#p17b943c497)">
     <use style="fill:#ff0000;stroke:#ff0000;" x="667.901396" xlink:href="#C0_0_590dd14340" y="277.128966"/>
    </g>
    <g clip-path="url(#p17b943c497)">
     <use style="fill:#ff0000;stroke:#ff0000;" x="166.105785" xlink:href="#C0_0_590dd14340" y="232.962576"/>
    </g>
    <g clip-path="url(#p17b943c497)">
     <use style="fill:#008000;stroke:#008000;" x="595.740836" xlink:href="#C0_0_590dd14340" y="426.291759"/>
    </g>
    <g clip-path="url(#p17b943c497)">
     <use style="fill:#ff0000;stroke:#ff0000;" x="415.074777" xlink:href="#C0_0_590dd14340" y="310.664357"/>
    </g>
    <g clip-path="url(#p17b943c497)">
     <use style="fill:#ff0000;stroke:#ff0000;" x="576.477775" xlink:href="#C0_0_590dd14340" y="124.248955"/>
    </g>
    <g clip-path="url(#p17b943c497)">
     <use style="fill:#ff0000;stroke:#ff0000;" x="692.099413" xlink:href="#C0_0_590dd14340" y="210.673755"/>
    </g>
    <g clip-path="url(#p17b943c497)">
     <use style="fill:#ff0000;stroke:#ff0000;" x="611.064508" xlink:href="#C0_0_590dd14340" y="118.176216"/>
    </g>
    <g clip-path="url(#p17b943c497)">
     <use style="fill:#ff0000;stroke:#ff0000;" x="441.203332" xlink:href="#C0_0_590dd14340" y="283.615377"/>
    </g>
    <g clip-path="url(#p17b943c497)">
     <use style="fill:#ff0000;stroke:#ff0000;" x="463.757293" xlink:href="#C0_0_590dd14340" y="289.677301"/>
    </g>
    <g clip-path="url(#p17b943c497)">
     <use style="fill:#ff0000;stroke:#ff0000;" x="633.692843" xlink:href="#C0_0_590dd14340" y="388.90272"/>
    </g>
    <g clip-path="url(#p17b943c497)">
     <use style="fill:#008000;stroke:#008000;" x="691.836181" xlink:href="#C0_0_590dd14340" y="351.638605"/>
    </g>
    <g clip-path="url(#p17b943c497)">
     <use style="fill:#008000;stroke:#008000;" x="600.908732" xlink:href="#C0_0_590dd14340" y="459.9023"/>
    </g>
    <g clip-path="url(#p17b943c497)">
     <use style="fill:#ff0000;stroke:#ff0000;" x="505.013472" xlink:href="#C0_0_590dd14340" y="404.629574"/>
    </g>
    <g clip-path="url(#p17b943c497)">
     <use style="fill:#ff0000;stroke:#ff0000;" x="676.51118" xlink:href="#C0_0_590dd14340" y="244.499666"/>
    </g>
    <g clip-path="url(#p17b943c497)">
     <use style="fill:#ff0000;stroke:#ff0000;" x="544.8193" xlink:href="#C0_0_590dd14340" y="279.720787"/>
    </g>
    <g clip-path="url(#p17b943c497)">
     <use style="fill:#ff0000;stroke:#ff0000;" x="613.620457" xlink:href="#C0_0_590dd14340" y="195.609856"/>
    </g>
    <g clip-path="url(#p17b943c497)">
     <use style="fill:#ff0000;stroke:#ff0000;" x="297.430917" xlink:href="#C0_0_590dd14340" y="254.333346"/>
    </g>
    <g clip-path="url(#p17b943c497)">
     <use style="fill:#ff0000;stroke:#ff0000;" x="274.911663" xlink:href="#C0_0_590dd14340" y="284.599069"/>
    </g>
    <g clip-path="url(#p17b943c497)">
     <use style="fill:#ff0000;stroke:#ff0000;" x="662.905007" xlink:href="#C0_0_590dd14340" y="403.400929"/>
    </g>
    <g clip-path="url(#p17b943c497)">
     <use style="fill:#008000;stroke:#008000;" x="378.922044" xlink:href="#C0_0_590dd14340" y="284.973425"/>
    </g>
    <g clip-path="url(#p17b943c497)">
     <use style="fill:#ff0000;stroke:#ff0000;" x="317.939881" xlink:href="#C0_0_590dd14340" y="349.906592"/>
    </g>
    <g clip-path="url(#p17b943c497)">
     <use style="fill:#ff0000;stroke:#ff0000;" x="579.222048" xlink:href="#C0_0_590dd14340" y="299.87833"/>
    </g>
    <g clip-path="url(#p17b943c497)">
     <use style="fill:#ff0000;stroke:#ff0000;" x="674.589304" xlink:href="#C0_0_590dd14340" y="164.462157"/>
    </g>
    <g clip-path="url(#p17b943c497)">
     <use style="fill:#ff0000;stroke:#ff0000;" x="714.287602" xlink:href="#C0_0_590dd14340" y="202.545799"/>
    </g>
    <g clip-path="url(#p17b943c497)">
     <use style="fill:#ff0000;stroke:#ff0000;" x="719.494215" xlink:href="#C0_0_590dd14340" y="289.065331"/>
    </g>
    <g clip-path="url(#p17b943c497)">
     <use style="fill:#ff0000;stroke:#ff0000;" x="669.008592" xlink:href="#C0_0_590dd14340" y="210.821695"/>
    </g>
    <g clip-path="url(#p17b943c497)">
     <use style="fill:#ff0000;stroke:#ff0000;" x="526.535742" xlink:href="#C0_0_590dd14340" y="474.152727"/>
    </g>
    <g clip-path="url(#p17b943c497)">
     <use style="fill:#ff0000;stroke:#ff0000;" x="440.923214" xlink:href="#C0_0_590dd14340" y="367.34293"/>
    </g>
    <g clip-path="url(#p17b943c497)">
     <use style="fill:#008000;stroke:#008000;" x="560.856483" xlink:href="#C0_0_590dd14340" y="281.627871"/>
    </g>
    <g clip-path="url(#p17b943c497)">
     <use style="fill:#008000;stroke:#008000;" x="495.238057" xlink:href="#C0_0_590dd14340" y="331.610347"/>
    </g>
    <g clip-path="url(#p17b943c497)">
     <use style="fill:#008000;stroke:#008000;" x="525.193963" xlink:href="#C0_0_590dd14340" y="358.6248"/>
    </g>
    <g clip-path="url(#p17b943c497)">
     <use style="fill:#008000;stroke:#008000;" x="508.720676" xlink:href="#C0_0_590dd14340" y="373.720592"/>
    </g>
    <g clip-path="url(#p17b943c497)">
     <use style="fill:#ff0000;stroke:#ff0000;" x="571.871637" xlink:href="#C0_0_590dd14340" y="265.314986"/>
    </g>
    <g clip-path="url(#p17b943c497)">
     <use style="fill:#008000;stroke:#008000;" x="581.582906" xlink:href="#C0_0_590dd14340" y="405.177755"/>
    </g>
    <g clip-path="url(#p17b943c497)">
     <use style="fill:#008000;stroke:#008000;" x="683.437837" xlink:href="#C0_0_590dd14340" y="373.462773"/>
    </g>
    <g clip-path="url(#p17b943c497)">
     <use style="fill:#ff0000;stroke:#ff0000;" x="672.853732" xlink:href="#C0_0_590dd14340" y="107.607273"/>
    </g>
    <g clip-path="url(#p17b943c497)">
     <use style="fill:#ff0000;stroke:#ff0000;" x="506.853791" xlink:href="#C0_0_590dd14340" y="322.14185"/>
    </g>
   </g>
   <g id="text_1">
    <g clip-path="url(#p17b943c497)">
     <!-- CDKN2A -->
     <g transform="translate(455.198054 298.522028)scale(0.12 -0.12)">
      <defs>
       <path d="M 64.40625 67.28125 
L 64.40625 56.890625 
Q 59.421875 61.53125 53.78125 63.8125 
Q 48.140625 66.109375 41.796875 66.109375 
Q 29.296875 66.109375 22.65625 58.46875 
Q 16.015625 50.828125 16.015625 36.375 
Q 16.015625 21.96875 22.65625 14.328125 
Q 29.296875 6.6875 41.796875 6.6875 
Q 48.140625 6.6875 53.78125 8.984375 
Q 59.421875 11.28125 64.40625 15.921875 
L 64.40625 5.609375 
Q 59.234375 2.09375 53.4375 0.328125 
Q 47.65625 -1.421875 41.21875 -1.421875 
Q 24.65625 -1.421875 15.125 8.703125 
Q 5.609375 18.84375 5.609375 36.375 
Q 5.609375 53.953125 15.125 64.078125 
Q 24.65625 74.21875 41.21875 74.21875 
Q 47.75 74.21875 53.53125 72.484375 
Q 59.328125 70.75 64.40625 67.28125 
z
" id="DejaVuSans-67"/>
       <path d="M 19.671875 64.796875 
L 19.671875 8.109375 
L 31.59375 8.109375 
Q 46.6875 8.109375 53.6875 14.9375 
Q 60.6875 21.78125 60.6875 36.53125 
Q 60.6875 51.171875 53.6875 57.984375 
Q 46.6875 64.796875 31.59375 64.796875 
z
M 9.8125 72.90625 
L 30.078125 72.90625 
Q 51.265625 72.90625 61.171875 64.09375 
Q 71.09375 55.28125 71.09375 36.53125 
Q 71.09375 17.671875 61.125 8.828125 
Q 51.171875 0 30.078125 0 
L 9.8125 0 
z
" id="DejaVuSans-68"/>
       <path d="M 9.8125 72.90625 
L 19.671875 72.90625 
L 19.671875 42.09375 
L 52.390625 72.90625 
L 65.09375 72.90625 
L 28.90625 38.921875 
L 67.671875 0 
L 54.6875 0 
L 19.671875 35.109375 
L 19.671875 0 
L 9.8125 0 
z
" id="DejaVuSans-75"/>
       <path d="M 9.8125 72.90625 
L 23.09375 72.90625 
L 55.421875 11.921875 
L 55.421875 72.90625 
L 64.984375 72.90625 
L 64.984375 0 
L 51.703125 0 
L 19.390625 60.984375 
L 19.390625 0 
L 9.8125 0 
z
" id="DejaVuSans-78"/>
       <path d="M 19.1875 8.296875 
L 53.609375 8.296875 
L 53.609375 0 
L 7.328125 0 
L 7.328125 8.296875 
Q 12.9375 14.109375 22.625 23.890625 
Q 32.328125 33.6875 34.8125 36.53125 
Q 39.546875 41.84375 41.421875 45.53125 
Q 43.3125 49.21875 43.3125 52.78125 
Q 43.3125 58.59375 39.234375 62.25 
Q 35.15625 65.921875 28.609375 65.921875 
Q 23.96875 65.921875 18.8125 64.3125 
Q 13.671875 62.703125 7.8125 59.421875 
L 7.8125 69.390625 
Q 13.765625 71.78125 18.9375 73 
Q 24.125 74.21875 28.421875 74.21875 
Q 39.75 74.21875 46.484375 68.546875 
Q 53.21875 62.890625 53.21875 53.421875 
Q 53.21875 48.921875 51.53125 44.890625 
Q 49.859375 40.875 45.40625 35.40625 
Q 44.1875 33.984375 37.640625 27.21875 
Q 31.109375 20.453125 19.1875 8.296875 
z
" id="DejaVuSans-50"/>
       <path d="M 34.1875 63.1875 
L 20.796875 26.90625 
L 47.609375 26.90625 
z
M 28.609375 72.90625 
L 39.796875 72.90625 
L 67.578125 0 
L 57.328125 0 
L 50.6875 18.703125 
L 17.828125 18.703125 
L 11.1875 0 
L 0.78125 0 
z
" id="DejaVuSans-65"/>
      </defs>
      <use xlink:href="#DejaVuSans-67"/>
      <use x="69.824219" xlink:href="#DejaVuSans-68"/>
      <use x="146.826172" xlink:href="#DejaVuSans-75"/>
      <use x="212.402344" xlink:href="#DejaVuSans-78"/>
      <use x="287.207031" xlink:href="#DejaVuSans-50"/>
      <use x="350.830078" xlink:href="#DejaVuSans-65"/>
     </g>
    </g>
   </g>
   <g id="text_2">
    <g clip-path="url(#p17b943c497)">
     <!-- PCNA -->
     <g transform="translate(419.722614 333.227473)scale(0.12 -0.12)">
      <defs>
       <path d="M 19.671875 64.796875 
L 19.671875 37.40625 
L 32.078125 37.40625 
Q 38.96875 37.40625 42.71875 40.96875 
Q 46.484375 44.53125 46.484375 51.125 
Q 46.484375 57.671875 42.71875 61.234375 
Q 38.96875 64.796875 32.078125 64.796875 
z
M 9.8125 72.90625 
L 32.078125 72.90625 
Q 44.34375 72.90625 50.609375 67.359375 
Q 56.890625 61.8125 56.890625 51.125 
Q 56.890625 40.328125 50.609375 34.8125 
Q 44.34375 29.296875 32.078125 29.296875 
L 19.671875 29.296875 
L 19.671875 0 
L 9.8125 0 
z
" id="DejaVuSans-80"/>
      </defs>
      <use xlink:href="#DejaVuSans-80"/>
      <use x="60.302734" xlink:href="#DejaVuSans-67"/>
      <use x="130.126953" xlink:href="#DejaVuSans-78"/>
      <use x="204.931641" xlink:href="#DejaVuSans-65"/>
     </g>
    </g>
   </g>
   <g id="text_3">
    <g clip-path="url(#p17b943c497)">
     <!-- PLK1 -->
     <g transform="translate(336.650327 416.566662)scale(0.12 -0.12)">
      <defs>
       <path d="M 9.8125 72.90625 
L 19.671875 72.90625 
L 19.671875 8.296875 
L 55.171875 8.296875 
L 55.171875 0 
L 9.8125 0 
z
" id="DejaVuSans-76"/>
       <path d="M 12.40625 8.296875 
L 28.515625 8.296875 
L 28.515625 63.921875 
L 10.984375 60.40625 
L 10.984375 69.390625 
L 28.421875 72.90625 
L 38.28125 72.90625 
L 38.28125 8.296875 
L 54.390625 8.296875 
L 54.390625 0 
L 12.40625 0 
z
" id="DejaVuSans-49"/>
      </defs>
      <use xlink:href="#DejaVuSans-80"/>
      <use x="60.302734" xlink:href="#DejaVuSans-76"/>
      <use x="116.015625" xlink:href="#DejaVuSans-75"/>
      <use x="181.591797" xlink:href="#DejaVuSans-49"/>
     </g>
    </g>
   </g>
   <g id="text_4">
    <g clip-path="url(#p17b943c497)">
     <!-- PRKDC -->
     <g transform="translate(345.952506 318.075878)scale(0.12 -0.12)">
      <defs>
       <path d="M 44.390625 34.1875 
Q 47.5625 33.109375 50.5625 29.59375 
Q 53.5625 26.078125 56.59375 19.921875 
L 66.609375 0 
L 56 0 
L 46.6875 18.703125 
Q 43.0625 26.03125 39.671875 28.421875 
Q 36.28125 30.8125 30.421875 30.8125 
L 19.671875 30.8125 
L 19.671875 0 
L 9.8125 0 
L 9.8125 72.90625 
L 32.078125 72.90625 
Q 44.578125 72.90625 50.734375 67.671875 
Q 56.890625 62.453125 56.890625 51.90625 
Q 56.890625 45.015625 53.6875 40.46875 
Q 50.484375 35.9375 44.390625 34.1875 
z
M 19.671875 64.796875 
L 19.671875 38.921875 
L 32.078125 38.921875 
Q 39.203125 38.921875 42.84375 42.21875 
Q 46.484375 45.515625 46.484375 51.90625 
Q 46.484375 58.296875 42.84375 61.546875 
Q 39.203125 64.796875 32.078125 64.796875 
z
" id="DejaVuSans-82"/>
      </defs>
      <use xlink:href="#DejaVuSans-80"/>
      <use x="60.302734" xlink:href="#DejaVuSans-82"/>
      <use x="129.785156" xlink:href="#DejaVuSans-75"/>
      <use x="195.361328" xlink:href="#DejaVuSans-68"/>
      <use x="272.363281" xlink:href="#DejaVuSans-67"/>
     </g>
    </g>
   </g>
   <g id="text_5">
    <g clip-path="url(#p17b943c497)">
     <!-- MDM2 -->
     <g transform="translate(390.698 230.387501)scale(0.12 -0.12)">
      <defs>
       <path d="M 9.8125 72.90625 
L 24.515625 72.90625 
L 43.109375 23.296875 
L 61.8125 72.90625 
L 76.515625 72.90625 
L 76.515625 0 
L 66.890625 0 
L 66.890625 64.015625 
L 48.09375 14.015625 
L 38.1875 14.015625 
L 19.390625 64.015625 
L 19.390625 0 
L 9.8125 0 
z
" id="DejaVuSans-77"/>
      </defs>
      <use xlink:href="#DejaVuSans-77"/>
      <use x="86.279297" xlink:href="#DejaVuSans-68"/>
      <use x="163.28125" xlink:href="#DejaVuSans-77"/>
      <use x="249.560547" xlink:href="#DejaVuSans-50"/>
     </g>
    </g>
   </g>
   <g id="text_6">
    <g clip-path="url(#p17b943c497)">
     <!-- EP300 -->
     <g transform="translate(188.945287 175.969116)scale(0.12 -0.12)">
      <defs>
       <path d="M 9.8125 72.90625 
L 55.90625 72.90625 
L 55.90625 64.59375 
L 19.671875 64.59375 
L 19.671875 43.015625 
L 54.390625 43.015625 
L 54.390625 34.71875 
L 19.671875 34.71875 
L 19.671875 8.296875 
L 56.78125 8.296875 
L 56.78125 0 
L 9.8125 0 
z
" id="DejaVuSans-69"/>
       <path d="M 40.578125 39.3125 
Q 47.65625 37.796875 51.625 33 
Q 55.609375 28.21875 55.609375 21.1875 
Q 55.609375 10.40625 48.1875 4.484375 
Q 40.765625 -1.421875 27.09375 -1.421875 
Q 22.515625 -1.421875 17.65625 -0.515625 
Q 12.796875 0.390625 7.625 2.203125 
L 7.625 11.71875 
Q 11.71875 9.328125 16.59375 8.109375 
Q 21.484375 6.890625 26.8125 6.890625 
Q 36.078125 6.890625 40.9375 10.546875 
Q 45.796875 14.203125 45.796875 21.1875 
Q 45.796875 27.640625 41.28125 31.265625 
Q 36.765625 34.90625 28.71875 34.90625 
L 20.21875 34.90625 
L 20.21875 43.015625 
L 29.109375 43.015625 
Q 36.375 43.015625 40.234375 45.921875 
Q 44.09375 48.828125 44.09375 54.296875 
Q 44.09375 59.90625 40.109375 62.90625 
Q 36.140625 65.921875 28.71875 65.921875 
Q 24.65625 65.921875 20.015625 65.03125 
Q 15.375 64.15625 9.8125 62.3125 
L 9.8125 71.09375 
Q 15.4375 72.65625 20.34375 73.4375 
Q 25.25 74.21875 29.59375 74.21875 
Q 40.828125 74.21875 47.359375 69.109375 
Q 53.90625 64.015625 53.90625 55.328125 
Q 53.90625 49.265625 50.4375 45.09375 
Q 46.96875 40.921875 40.578125 39.3125 
z
" id="DejaVuSans-51"/>
       <path d="M 31.78125 66.40625 
Q 24.171875 66.40625 20.328125 58.90625 
Q 16.5 51.421875 16.5 36.375 
Q 16.5 21.390625 20.328125 13.890625 
Q 24.171875 6.390625 31.78125 6.390625 
Q 39.453125 6.390625 43.28125 13.890625 
Q 47.125 21.390625 47.125 36.375 
Q 47.125 51.421875 43.28125 58.90625 
Q 39.453125 66.40625 31.78125 66.40625 
z
M 31.78125 74.21875 
Q 44.046875 74.21875 50.515625 64.515625 
Q 56.984375 54.828125 56.984375 36.375 
Q 56.984375 17.96875 50.515625 8.265625 
Q 44.046875 -1.421875 31.78125 -1.421875 
Q 19.53125 -1.421875 13.0625 8.265625 
Q 6.59375 17.96875 6.59375 36.375 
Q 6.59375 54.828125 13.0625 64.515625 
Q 19.53125 74.21875 31.78125 74.21875 
z
" id="DejaVuSans-48"/>
      </defs>
      <use xlink:href="#DejaVuSans-69"/>
      <use x="63.183594" xlink:href="#DejaVuSans-80"/>
      <use x="123.486328" xlink:href="#DejaVuSans-51"/>
      <use x="187.109375" xlink:href="#DejaVuSans-48"/>
      <use x="250.732422" xlink:href="#DejaVuSans-48"/>
     </g>
    </g>
   </g>
   <g id="text_7">
    <g clip-path="url(#p17b943c497)">
     <!-- SKP2 -->
     <g transform="translate(570.09987 322.18974)scale(0.12 -0.12)">
      <defs>
       <path d="M 53.515625 70.515625 
L 53.515625 60.890625 
Q 47.90625 63.578125 42.921875 64.890625 
Q 37.9375 66.21875 33.296875 66.21875 
Q 25.25 66.21875 20.875 63.09375 
Q 16.5 59.96875 16.5 54.203125 
Q 16.5 49.359375 19.40625 46.890625 
Q 22.3125 44.4375 30.421875 42.921875 
L 36.375 41.703125 
Q 47.40625 39.59375 52.65625 34.296875 
Q 57.90625 29 57.90625 20.125 
Q 57.90625 9.515625 50.796875 4.046875 
Q 43.703125 -1.421875 29.984375 -1.421875 
Q 24.8125 -1.421875 18.96875 -0.25 
Q 13.140625 0.921875 6.890625 3.21875 
L 6.890625 13.375 
Q 12.890625 10.015625 18.65625 8.296875 
Q 24.421875 6.59375 29.984375 6.59375 
Q 38.421875 6.59375 43.015625 9.90625 
Q 47.609375 13.234375 47.609375 19.390625 
Q 47.609375 24.75 44.3125 27.78125 
Q 41.015625 30.8125 33.5 32.328125 
L 27.484375 33.5 
Q 16.453125 35.6875 11.515625 40.375 
Q 6.59375 45.0625 6.59375 53.421875 
Q 6.59375 63.09375 13.40625 68.65625 
Q 20.21875 74.21875 32.171875 74.21875 
Q 37.3125 74.21875 42.625 73.28125 
Q 47.953125 72.359375 53.515625 70.515625 
z
" id="DejaVuSans-83"/>
      </defs>
      <use xlink:href="#DejaVuSans-83"/>
      <use x="63.476562" xlink:href="#DejaVuSans-75"/>
      <use x="129.052734" xlink:href="#DejaVuSans-80"/>
      <use x="189.355469" xlink:href="#DejaVuSans-50"/>
     </g>
    </g>
   </g>
   <g id="text_8">
    <g clip-path="url(#p17b943c497)">
     <!-- RB1 -->
     <g transform="translate(655.798271 280.440216)scale(0.12 -0.12)">
      <defs>
       <path d="M 19.671875 34.8125 
L 19.671875 8.109375 
L 35.5 8.109375 
Q 43.453125 8.109375 47.28125 11.40625 
Q 51.125 14.703125 51.125 21.484375 
Q 51.125 28.328125 47.28125 31.5625 
Q 43.453125 34.8125 35.5 34.8125 
z
M 19.671875 64.796875 
L 19.671875 42.828125 
L 34.28125 42.828125 
Q 41.5 42.828125 45.03125 45.53125 
Q 48.578125 48.25 48.578125 53.8125 
Q 48.578125 59.328125 45.03125 62.0625 
Q 41.5 64.796875 34.28125 64.796875 
z
M 9.8125 72.90625 
L 35.015625 72.90625 
Q 46.296875 72.90625 52.390625 68.21875 
Q 58.5 63.53125 58.5 54.890625 
Q 58.5 48.1875 55.375 44.234375 
Q 52.25 40.28125 46.1875 39.3125 
Q 53.46875 37.75 57.5 32.78125 
Q 61.53125 27.828125 61.53125 20.40625 
Q 61.53125 10.640625 54.890625 5.3125 
Q 48.25 0 35.984375 0 
L 9.8125 0 
z
" id="DejaVuSans-66"/>
      </defs>
      <use xlink:href="#DejaVuSans-82"/>
      <use x="69.482422" xlink:href="#DejaVuSans-66"/>
      <use x="138.085938" xlink:href="#DejaVuSans-49"/>
     </g>
    </g>
   </g>
   <g id="text_9">
    <g clip-path="url(#p17b943c497)">
     <!-- TP53 -->
     <g transform="translate(151.188285 236.273826)scale(0.12 -0.12)">
      <defs>
       <path d="M -0.296875 72.90625 
L 61.375 72.90625 
L 61.375 64.59375 
L 35.5 64.59375 
L 35.5 0 
L 25.59375 0 
L 25.59375 64.59375 
L -0.296875 64.59375 
z
" id="DejaVuSans-84"/>
       <path d="M 10.796875 72.90625 
L 49.515625 72.90625 
L 49.515625 64.59375 
L 19.828125 64.59375 
L 19.828125 46.734375 
Q 21.96875 47.46875 24.109375 47.828125 
Q 26.265625 48.1875 28.421875 48.1875 
Q 40.625 48.1875 47.75 41.5 
Q 54.890625 34.8125 54.890625 23.390625 
Q 54.890625 11.625 47.5625 5.09375 
Q 40.234375 -1.421875 26.90625 -1.421875 
Q 22.3125 -1.421875 17.546875 -0.640625 
Q 12.796875 0.140625 7.71875 1.703125 
L 7.71875 11.625 
Q 12.109375 9.234375 16.796875 8.0625 
Q 21.484375 6.890625 26.703125 6.890625 
Q 35.15625 6.890625 40.078125 11.328125 
Q 45.015625 15.765625 45.015625 23.390625 
Q 45.015625 31 40.078125 35.4375 
Q 35.15625 39.890625 26.703125 39.890625 
Q 22.75 39.890625 18.8125 39.015625 
Q 14.890625 38.140625 10.796875 36.28125 
z
" id="DejaVuSans-53"/>
      </defs>
      <use xlink:href="#DejaVuSans-84"/>
      <use x="61.083984" xlink:href="#DejaVuSans-80"/>
      <use x="121.386719" xlink:href="#DejaVuSans-53"/>
      <use x="185.009766" xlink:href="#DejaVuSans-51"/>
     </g>
    </g>
   </g>
   <g id="text_10">
    <g clip-path="url(#p17b943c497)">
     <!-- SMAD4 -->
     <g transform="translate(574.213023 429.603009)scale(0.12 -0.12)">
      <defs>
       <path d="M 37.796875 64.3125 
L 12.890625 25.390625 
L 37.796875 25.390625 
z
M 35.203125 72.90625 
L 47.609375 72.90625 
L 47.609375 25.390625 
L 58.015625 25.390625 
L 58.015625 17.1875 
L 47.609375 17.1875 
L 47.609375 0 
L 37.796875 0 
L 37.796875 17.1875 
L 4.890625 17.1875 
L 4.890625 26.703125 
z
" id="DejaVuSans-52"/>
      </defs>
      <use xlink:href="#DejaVuSans-83"/>
      <use x="63.476562" xlink:href="#DejaVuSans-77"/>
      <use x="149.755859" xlink:href="#DejaVuSans-65"/>
      <use x="218.164062" xlink:href="#DejaVuSans-68"/>
      <use x="295.166016" xlink:href="#DejaVuSans-52"/>
     </g>
    </g>
   </g>
   <g id="text_11">
    <g clip-path="url(#p17b943c497)">
     <!-- GSK3B -->
     <g transform="translate(394.747902 313.975607)scale(0.12 -0.12)">
      <defs>
       <path d="M 59.515625 10.40625 
L 59.515625 29.984375 
L 43.40625 29.984375 
L 43.40625 38.09375 
L 69.28125 38.09375 
L 69.28125 6.78125 
Q 63.578125 2.734375 56.6875 0.65625 
Q 49.8125 -1.421875 42 -1.421875 
Q 24.90625 -1.421875 15.25 8.5625 
Q 5.609375 18.5625 5.609375 36.375 
Q 5.609375 54.25 15.25 64.234375 
Q 24.90625 74.21875 42 74.21875 
Q 49.125 74.21875 55.546875 72.453125 
Q 61.96875 70.703125 67.390625 67.28125 
L 67.390625 56.78125 
Q 61.921875 61.421875 55.765625 63.765625 
Q 49.609375 66.109375 42.828125 66.109375 
Q 29.4375 66.109375 22.71875 58.640625 
Q 16.015625 51.171875 16.015625 36.375 
Q 16.015625 21.625 22.71875 14.15625 
Q 29.4375 6.6875 42.828125 6.6875 
Q 48.046875 6.6875 52.140625 7.59375 
Q 56.25 8.5 59.515625 10.40625 
z
" id="DejaVuSans-71"/>
      </defs>
      <use xlink:href="#DejaVuSans-71"/>
      <use x="77.490234" xlink:href="#DejaVuSans-83"/>
      <use x="140.966797" xlink:href="#DejaVuSans-75"/>
      <use x="206.542969" xlink:href="#DejaVuSans-51"/>
      <use x="270.166016" xlink:href="#DejaVuSans-66"/>
     </g>
    </g>
   </g>
   <g id="text_12">
    <g clip-path="url(#p17b943c497)">
     <!-- CDK7 -->
     <g transform="translate(559.9159 127.560205)scale(0.12 -0.12)">
      <defs>
       <path d="M 8.203125 72.90625 
L 55.078125 72.90625 
L 55.078125 68.703125 
L 28.609375 0 
L 18.3125 0 
L 43.21875 64.59375 
L 8.203125 64.59375 
z
" id="DejaVuSans-55"/>
      </defs>
      <use xlink:href="#DejaVuSans-67"/>
      <use x="69.824219" xlink:href="#DejaVuSans-68"/>
      <use x="146.826172" xlink:href="#DejaVuSans-75"/>
      <use x="212.402344" xlink:href="#DejaVuSans-55"/>
     </g>
    </g>
   </g>
   <g id="text_13">
    <g clip-path="url(#p17b943c497)">
     <!-- CDK2 -->
     <g transform="translate(675.537538 213.985005)scale(0.12 -0.12)">
      <use xlink:href="#DejaVuSans-67"/>
      <use x="69.824219" xlink:href="#DejaVuSans-68"/>
      <use x="146.826172" xlink:href="#DejaVuSans-75"/>
      <use x="212.402344" xlink:href="#DejaVuSans-50"/>
     </g>
    </g>
   </g>
   <g id="text_14">
    <g clip-path="url(#p17b943c497)">
     <!-- CCNH -->
     <g transform="translate(593.684196 121.487466)scale(0.12 -0.12)">
      <defs>
       <path d="M 9.8125 72.90625 
L 19.671875 72.90625 
L 19.671875 43.015625 
L 55.515625 43.015625 
L 55.515625 72.90625 
L 65.375 72.90625 
L 65.375 0 
L 55.515625 0 
L 55.515625 34.71875 
L 19.671875 34.71875 
L 19.671875 0 
L 9.8125 0 
z
" id="DejaVuSans-72"/>
      </defs>
      <use xlink:href="#DejaVuSans-67"/>
      <use x="69.824219" xlink:href="#DejaVuSans-67"/>
      <use x="139.648438" xlink:href="#DejaVuSans-78"/>
      <use x="214.453125" xlink:href="#DejaVuSans-72"/>
     </g>
    </g>
   </g>
   <g id="text_15">
    <g clip-path="url(#p17b943c497)">
     <!-- CDKN2C -->
     <g transform="translate(415.963019 286.926627)scale(0.12 -0.12)">
      <use xlink:href="#DejaVuSans-67"/>
      <use x="69.824219" xlink:href="#DejaVuSans-68"/>
      <use x="146.826172" xlink:href="#DejaVuSans-75"/>
      <use x="212.402344" xlink:href="#DejaVuSans-78"/>
      <use x="287.207031" xlink:href="#DejaVuSans-50"/>
      <use x="350.830078" xlink:href="#DejaVuSans-67"/>
     </g>
    </g>
   </g>
   <g id="text_16">
    <g clip-path="url(#p17b943c497)">
     <!-- CDKN2D -->
     <g transform="translate(438.086668 292.988551)scale(0.12 -0.12)">
      <use xlink:href="#DejaVuSans-67"/>
      <use x="69.824219" xlink:href="#DejaVuSans-68"/>
      <use x="146.826172" xlink:href="#DejaVuSans-75"/>
      <use x="212.402344" xlink:href="#DejaVuSans-78"/>
      <use x="287.207031" xlink:href="#DejaVuSans-50"/>
      <use x="350.830078" xlink:href="#DejaVuSans-68"/>
     </g>
    </g>
   </g>
   <g id="text_17">
    <g clip-path="url(#p17b943c497)">
     <!-- RBL1 -->
     <g transform="translate(618.246593 392.21397)scale(0.12 -0.12)">
      <use xlink:href="#DejaVuSans-82"/>
      <use x="69.482422" xlink:href="#DejaVuSans-66"/>
      <use x="138.085938" xlink:href="#DejaVuSans-76"/>
      <use x="193.798828" xlink:href="#DejaVuSans-49"/>
     </g>
    </g>
   </g>
   <g id="text_18">
    <g clip-path="url(#p17b943c497)">
     <!-- MYC -->
     <g transform="translate(679.134931 354.949855)scale(0.12 -0.12)">
      <defs>
       <path d="M -0.203125 72.90625 
L 10.40625 72.90625 
L 30.609375 42.921875 
L 50.6875 72.90625 
L 61.28125 72.90625 
L 35.5 34.71875 
L 35.5 0 
L 25.59375 0 
L 25.59375 34.71875 
z
" id="DejaVuSans-89"/>
      </defs>
      <use xlink:href="#DejaVuSans-77"/>
      <use x="86.279297" xlink:href="#DejaVuSans-89"/>
      <use x="141.863281" xlink:href="#DejaVuSans-67"/>
     </g>
    </g>
   </g>
   <g id="text_19">
    <g clip-path="url(#p17b943c497)">
     <!-- ZBTB17 -->
     <g transform="translate(577.265919 463.21355)scale(0.12 -0.12)">
      <defs>
       <path d="M 5.609375 72.90625 
L 62.890625 72.90625 
L 62.890625 65.375 
L 16.796875 8.296875 
L 64.015625 8.296875 
L 64.015625 0 
L 4.5 0 
L 4.5 7.515625 
L 50.59375 64.59375 
L 5.609375 64.59375 
z
" id="DejaVuSans-90"/>
      </defs>
      <use xlink:href="#DejaVuSans-90"/>
      <use x="68.505859" xlink:href="#DejaVuSans-66"/>
      <use x="137.109375" xlink:href="#DejaVuSans-84"/>
      <use x="198.193359" xlink:href="#DejaVuSans-66"/>
      <use x="266.796875" xlink:href="#DejaVuSans-49"/>
      <use x="330.419922" xlink:href="#DejaVuSans-55"/>
     </g>
    </g>
   </g>
   <g id="text_20">
    <g clip-path="url(#p17b943c497)">
     <!-- ABL1 -->
     <g transform="translate(489.631909 407.940824)scale(0.12 -0.12)">
      <use xlink:href="#DejaVuSans-65"/>
      <use x="68.408203" xlink:href="#DejaVuSans-66"/>
      <use x="137.011719" xlink:href="#DejaVuSans-76"/>
      <use x="192.724609" xlink:href="#DejaVuSans-49"/>
     </g>
    </g>
   </g>
   <g id="text_21">
    <g clip-path="url(#p17b943c497)">
     <!-- SKP1 -->
     <g transform="translate(661.332117 247.810916)scale(0.12 -0.12)">
      <use xlink:href="#DejaVuSans-83"/>
      <use x="63.476562" xlink:href="#DejaVuSans-75"/>
      <use x="129.052734" xlink:href="#DejaVuSans-80"/>
      <use x="189.355469" xlink:href="#DejaVuSans-49"/>
     </g>
    </g>
   </g>
   <g id="text_22">
    <g clip-path="url(#p17b943c497)">
     <!-- CUL1 -->
     <g transform="translate(529.077737 283.032037)scale(0.12 -0.12)">
      <defs>
       <path d="M 8.6875 72.90625 
L 18.609375 72.90625 
L 18.609375 28.609375 
Q 18.609375 16.890625 22.84375 11.734375 
Q 27.09375 6.59375 36.625 6.59375 
Q 46.09375 6.59375 50.34375 11.734375 
Q 54.59375 16.890625 54.59375 28.609375 
L 54.59375 72.90625 
L 64.5 72.90625 
L 64.5 27.390625 
Q 64.5 13.140625 57.4375 5.859375 
Q 50.390625 -1.421875 36.625 -1.421875 
Q 22.796875 -1.421875 15.734375 5.859375 
Q 8.6875 13.140625 8.6875 27.390625 
z
" id="DejaVuSans-85"/>
      </defs>
      <use xlink:href="#DejaVuSans-67"/>
      <use x="69.824219" xlink:href="#DejaVuSans-85"/>
      <use x="143.017578" xlink:href="#DejaVuSans-76"/>
      <use x="198.730469" xlink:href="#DejaVuSans-49"/>
     </g>
    </g>
   </g>
   <g id="text_23">
    <g clip-path="url(#p17b943c497)">
     <!-- RBX1 -->
     <g transform="translate(597.407332 198.921106)scale(0.12 -0.12)">
      <defs>
       <path d="M 6.296875 72.90625 
L 16.890625 72.90625 
L 35.015625 45.796875 
L 53.21875 72.90625 
L 63.8125 72.90625 
L 40.375 37.890625 
L 65.375 0 
L 54.78125 0 
L 34.28125 31 
L 13.625 0 
L 2.984375 0 
L 29 38.921875 
z
" id="DejaVuSans-88"/>
      </defs>
      <use xlink:href="#DejaVuSans-82"/>
      <use x="69.482422" xlink:href="#DejaVuSans-66"/>
      <use x="138.085938" xlink:href="#DejaVuSans-88"/>
      <use x="206.591797" xlink:href="#DejaVuSans-49"/>
     </g>
    </g>
   </g>
   <g id="text_24">
    <g clip-path="url(#p17b943c497)">
     <!-- ATM -->
     <g transform="translate(284.949979 257.644596)scale(0.12 -0.12)">
      <use xlink:href="#DejaVuSans-65"/>
      <use x="60.658203" xlink:href="#DejaVuSans-84"/>
      <use x="121.742188" xlink:href="#DejaVuSans-77"/>
     </g>
    </g>
   </g>
   <g id="text_25">
    <g clip-path="url(#p17b943c497)">
     <!-- ATR -->
     <g transform="translate(263.438538 287.910319)scale(0.12 -0.12)">
      <use xlink:href="#DejaVuSans-65"/>
      <use x="60.658203" xlink:href="#DejaVuSans-84"/>
      <use x="121.742188" xlink:href="#DejaVuSans-82"/>
     </g>
    </g>
   </g>
   <g id="text_26">
    <g clip-path="url(#p17b943c497)">
     <!-- YWHAE -->
     <g transform="translate(640.900007 406.712179)scale(0.12 -0.12)">
      <defs>
       <path d="M 3.328125 72.90625 
L 13.28125 72.90625 
L 28.609375 11.28125 
L 43.890625 72.90625 
L 54.984375 72.90625 
L 70.3125 11.28125 
L 85.59375 72.90625 
L 95.609375 72.90625 
L 77.296875 0 
L 64.890625 0 
L 49.515625 63.28125 
L 33.984375 0 
L 21.578125 0 
z
" id="DejaVuSans-87"/>
      </defs>
      <use xlink:href="#DejaVuSans-89"/>
      <use x="61.083984" xlink:href="#DejaVuSans-87"/>
      <use x="159.960938" xlink:href="#DejaVuSans-72"/>
      <use x="235.15625" xlink:href="#DejaVuSans-65"/>
      <use x="303.564453" xlink:href="#DejaVuSans-69"/>
     </g>
    </g>
   </g>
   <g id="text_27">
    <g clip-path="url(#p17b943c497)">
     <!-- CHEK1 -->
     <g transform="translate(358.676731 288.284675)scale(0.12 -0.12)">
      <use xlink:href="#DejaVuSans-67"/>
      <use x="69.824219" xlink:href="#DejaVuSans-72"/>
      <use x="145.019531" xlink:href="#DejaVuSans-69"/>
      <use x="208.203125" xlink:href="#DejaVuSans-75"/>
      <use x="273.779297" xlink:href="#DejaVuSans-49"/>
     </g>
    </g>
   </g>
   <g id="text_28">
    <g clip-path="url(#p17b943c497)">
     <!-- CHEK2 -->
     <g transform="translate(297.694569 353.217842)scale(0.12 -0.12)">
      <use xlink:href="#DejaVuSans-67"/>
      <use x="69.824219" xlink:href="#DejaVuSans-72"/>
      <use x="145.019531" xlink:href="#DejaVuSans-69"/>
      <use x="208.203125" xlink:href="#DejaVuSans-75"/>
      <use x="273.779297" xlink:href="#DejaVuSans-50"/>
     </g>
    </g>
   </g>
   <g id="text_29">
    <g clip-path="url(#p17b943c497)">
     <!-- CDKN1B -->
     <g transform="translate(554.054861 303.18958)scale(0.12 -0.12)">
      <use xlink:href="#DejaVuSans-67"/>
      <use x="69.824219" xlink:href="#DejaVuSans-68"/>
      <use x="146.826172" xlink:href="#DejaVuSans-75"/>
      <use x="212.402344" xlink:href="#DejaVuSans-78"/>
      <use x="287.207031" xlink:href="#DejaVuSans-49"/>
      <use x="350.830078" xlink:href="#DejaVuSans-66"/>
     </g>
    </g>
   </g>
   <g id="text_30">
    <g clip-path="url(#p17b943c497)">
     <!-- TGFB1 -->
     <g transform="translate(654.890554 167.773407)scale(0.12 -0.12)">
      <defs>
       <path d="M 9.8125 72.90625 
L 51.703125 72.90625 
L 51.703125 64.59375 
L 19.671875 64.59375 
L 19.671875 43.109375 
L 48.578125 43.109375 
L 48.578125 34.8125 
L 19.671875 34.8125 
L 19.671875 0 
L 9.8125 0 
z
" id="DejaVuSans-70"/>
      </defs>
      <use xlink:href="#DejaVuSans-84"/>
      <use x="61.083984" xlink:href="#DejaVuSans-71"/>
      <use x="138.574219" xlink:href="#DejaVuSans-70"/>
      <use x="196.09375" xlink:href="#DejaVuSans-66"/>
      <use x="264.697266" xlink:href="#DejaVuSans-49"/>
     </g>
    </g>
   </g>
   <g id="text_31">
    <g clip-path="url(#p17b943c497)">
     <!-- TGFB3 -->
     <g transform="translate(694.588852 205.857049)scale(0.12 -0.12)">
      <use xlink:href="#DejaVuSans-84"/>
      <use x="61.083984" xlink:href="#DejaVuSans-71"/>
      <use x="138.574219" xlink:href="#DejaVuSans-70"/>
      <use x="196.09375" xlink:href="#DejaVuSans-66"/>
      <use x="264.697266" xlink:href="#DejaVuSans-51"/>
     </g>
    </g>
   </g>
   <g id="text_32">
    <g clip-path="url(#p17b943c497)">
     <!-- SMAD2 -->
     <g transform="translate(697.966402 292.376581)scale(0.12 -0.12)">
      <use xlink:href="#DejaVuSans-83"/>
      <use x="63.476562" xlink:href="#DejaVuSans-77"/>
      <use x="149.755859" xlink:href="#DejaVuSans-65"/>
      <use x="218.164062" xlink:href="#DejaVuSans-68"/>
      <use x="295.166016" xlink:href="#DejaVuSans-50"/>
     </g>
    </g>
   </g>
   <g id="text_33">
    <g clip-path="url(#p17b943c497)">
     <!-- SMAD3 -->
     <g transform="translate(647.480779 214.132945)scale(0.12 -0.12)">
      <use xlink:href="#DejaVuSans-83"/>
      <use x="63.476562" xlink:href="#DejaVuSans-77"/>
      <use x="149.755859" xlink:href="#DejaVuSans-65"/>
      <use x="218.164062" xlink:href="#DejaVuSans-68"/>
      <use x="295.166016" xlink:href="#DejaVuSans-51"/>
     </g>
    </g>
   </g>
   <g id="text_34">
    <g clip-path="url(#p17b943c497)">
     <!-- CDC25B -->
     <g transform="translate(501.784805 477.463977)scale(0.12 -0.12)">
      <use xlink:href="#DejaVuSans-67"/>
      <use x="69.824219" xlink:href="#DejaVuSans-68"/>
      <use x="146.826172" xlink:href="#DejaVuSans-67"/>
      <use x="216.650391" xlink:href="#DejaVuSans-50"/>
      <use x="280.273438" xlink:href="#DejaVuSans-53"/>
      <use x="343.896484" xlink:href="#DejaVuSans-66"/>
     </g>
    </g>
   </g>
   <g id="text_35">
    <g clip-path="url(#p17b943c497)">
     <!-- CCNB1 -->
     <g transform="translate(420.121027 370.65418)scale(0.12 -0.12)">
      <use xlink:href="#DejaVuSans-67"/>
      <use x="69.824219" xlink:href="#DejaVuSans-67"/>
      <use x="139.648438" xlink:href="#DejaVuSans-78"/>
      <use x="214.453125" xlink:href="#DejaVuSans-66"/>
      <use x="283.056641" xlink:href="#DejaVuSans-49"/>
     </g>
    </g>
   </g>
   <g id="text_36">
    <g clip-path="url(#p17b943c497)">
     <!-- CDK4 -->
     <g transform="translate(544.294608 284.939121)scale(0.12 -0.12)">
      <use xlink:href="#DejaVuSans-67"/>
      <use x="69.824219" xlink:href="#DejaVuSans-68"/>
      <use x="146.826172" xlink:href="#DejaVuSans-75"/>
      <use x="212.402344" xlink:href="#DejaVuSans-52"/>
     </g>
    </g>
   </g>
   <g id="text_37">
    <g clip-path="url(#p17b943c497)">
     <!-- CDK6 -->
     <g transform="translate(478.676182 334.921597)scale(0.12 -0.12)">
      <defs>
       <path d="M 33.015625 40.375 
Q 26.375 40.375 22.484375 35.828125 
Q 18.609375 31.296875 18.609375 23.390625 
Q 18.609375 15.53125 22.484375 10.953125 
Q 26.375 6.390625 33.015625 6.390625 
Q 39.65625 6.390625 43.53125 10.953125 
Q 47.40625 15.53125 47.40625 23.390625 
Q 47.40625 31.296875 43.53125 35.828125 
Q 39.65625 40.375 33.015625 40.375 
z
M 52.59375 71.296875 
L 52.59375 62.3125 
Q 48.875 64.0625 45.09375 64.984375 
Q 41.3125 65.921875 37.59375 65.921875 
Q 27.828125 65.921875 22.671875 59.328125 
Q 17.53125 52.734375 16.796875 39.40625 
Q 19.671875 43.65625 24.015625 45.921875 
Q 28.375 48.1875 33.59375 48.1875 
Q 44.578125 48.1875 50.953125 41.515625 
Q 57.328125 34.859375 57.328125 23.390625 
Q 57.328125 12.15625 50.6875 5.359375 
Q 44.046875 -1.421875 33.015625 -1.421875 
Q 20.359375 -1.421875 13.671875 8.265625 
Q 6.984375 17.96875 6.984375 36.375 
Q 6.984375 53.65625 15.1875 63.9375 
Q 23.390625 74.21875 37.203125 74.21875 
Q 40.921875 74.21875 44.703125 73.484375 
Q 48.484375 72.75 52.59375 71.296875 
z
" id="DejaVuSans-54"/>
      </defs>
      <use xlink:href="#DejaVuSans-67"/>
      <use x="69.824219" xlink:href="#DejaVuSans-68"/>
      <use x="146.826172" xlink:href="#DejaVuSans-75"/>
      <use x="212.402344" xlink:href="#DejaVuSans-54"/>
     </g>
    </g>
   </g>
   <g id="text_38">
    <g clip-path="url(#p17b943c497)">
     <!-- CCND1 -->
     <g transform="translate(503.888338 361.93605)scale(0.12 -0.12)">
      <use xlink:href="#DejaVuSans-67"/>
      <use x="69.824219" xlink:href="#DejaVuSans-67"/>
      <use x="139.648438" xlink:href="#DejaVuSans-78"/>
      <use x="214.453125" xlink:href="#DejaVuSans-68"/>
      <use x="291.455078" xlink:href="#DejaVuSans-49"/>
     </g>
    </g>
   </g>
   <g id="text_39">
    <g clip-path="url(#p17b943c497)">
     <!-- CCND2 -->
     <g transform="translate(487.415051 377.031842)scale(0.12 -0.12)">
      <use xlink:href="#DejaVuSans-67"/>
      <use x="69.824219" xlink:href="#DejaVuSans-67"/>
      <use x="139.648438" xlink:href="#DejaVuSans-78"/>
      <use x="214.453125" xlink:href="#DejaVuSans-68"/>
      <use x="291.455078" xlink:href="#DejaVuSans-50"/>
     </g>
    </g>
   </g>
   <g id="text_40">
    <g clip-path="url(#p17b943c497)">
     <!-- CCND3 -->
     <g transform="translate(550.566012 268.626236)scale(0.12 -0.12)">
      <use xlink:href="#DejaVuSans-67"/>
      <use x="69.824219" xlink:href="#DejaVuSans-67"/>
      <use x="139.648438" xlink:href="#DejaVuSans-78"/>
      <use x="214.453125" xlink:href="#DejaVuSans-68"/>
      <use x="291.455078" xlink:href="#DejaVuSans-51"/>
     </g>
    </g>
   </g>
   <g id="text_41">
    <g clip-path="url(#p17b943c497)">
     <!-- TFDP1 -->
     <g transform="translate(562.411968 408.489005)scale(0.12 -0.12)">
      <use xlink:href="#DejaVuSans-84"/>
      <use x="61.083984" xlink:href="#DejaVuSans-70"/>
      <use x="118.603516" xlink:href="#DejaVuSans-68"/>
      <use x="195.605469" xlink:href="#DejaVuSans-80"/>
      <use x="255.908203" xlink:href="#DejaVuSans-49"/>
     </g>
    </g>
   </g>
   <g id="text_42">
    <g clip-path="url(#p17b943c497)">
     <!-- TFDP2 -->
     <g transform="translate(664.2669 376.774023)scale(0.12 -0.12)">
      <use xlink:href="#DejaVuSans-84"/>
      <use x="61.083984" xlink:href="#DejaVuSans-70"/>
      <use x="118.603516" xlink:href="#DejaVuSans-68"/>
      <use x="195.605469" xlink:href="#DejaVuSans-80"/>
      <use x="255.908203" xlink:href="#DejaVuSans-50"/>
     </g>
    </g>
   </g>
   <g id="text_43">
    <g clip-path="url(#p17b943c497)">
     <!-- E2F3 -->
     <g transform="translate(657.976544 110.918523)scale(0.12 -0.12)">
      <use xlink:href="#DejaVuSans-69"/>
      <use x="63.183594" xlink:href="#DejaVuSans-50"/>
      <use x="126.806641" xlink:href="#DejaVuSans-70"/>
      <use x="184.326172" xlink:href="#DejaVuSans-51"/>
     </g>
    </g>
   </g>
   <g id="text_44">
    <g clip-path="url(#p17b943c497)">
     <!-- RBL2 -->
     <g transform="translate(491.407541 325.4531)scale(0.12 -0.12)">
      <use xlink:href="#DejaVuSans-82"/>
      <use x="69.482422" xlink:href="#DejaVuSans-66"/>
      <use x="138.085938" xlink:href="#DejaVuSans-76"/>
      <use x="193.798828" xlink:href="#DejaVuSans-50"/>
     </g>
    </g>
   </g>
   <g id="text_45">
    <!-- Frame: 11 -->
    <g transform="translate(121.392 91.296)scale(0.1 -0.1)">
     <defs>
      <path d="M 41.109375 46.296875 
Q 39.59375 47.171875 37.8125 47.578125 
Q 36.03125 48 33.890625 48 
Q 26.265625 48 22.1875 43.046875 
Q 18.109375 38.09375 18.109375 28.8125 
L 18.109375 0 
L 9.078125 0 
L 9.078125 54.6875 
L 18.109375 54.6875 
L 18.109375 46.1875 
Q 20.953125 51.171875 25.484375 53.578125 
Q 30.03125 56 36.53125 56 
Q 37.453125 56 38.578125 55.875 
Q 39.703125 55.765625 41.0625 55.515625 
z
" id="DejaVuSans-114"/>
      <path d="M 34.28125 27.484375 
Q 23.390625 27.484375 19.1875 25 
Q 14.984375 22.515625 14.984375 16.5 
Q 14.984375 11.71875 18.140625 8.90625 
Q 21.296875 6.109375 26.703125 6.109375 
Q 34.1875 6.109375 38.703125 11.40625 
Q 43.21875 16.703125 43.21875 25.484375 
L 43.21875 27.484375 
z
M 52.203125 31.203125 
L 52.203125 0 
L 43.21875 0 
L 43.21875 8.296875 
Q 40.140625 3.328125 35.546875 0.953125 
Q 30.953125 -1.421875 24.3125 -1.421875 
Q 15.921875 -1.421875 10.953125 3.296875 
Q 6 8.015625 6 15.921875 
Q 6 25.140625 12.171875 29.828125 
Q 18.359375 34.515625 30.609375 34.515625 
L 43.21875 34.515625 
L 43.21875 35.40625 
Q 43.21875 41.609375 39.140625 45 
Q 35.0625 48.390625 27.6875 48.390625 
Q 23 48.390625 18.546875 47.265625 
Q 14.109375 46.140625 10.015625 43.890625 
L 10.015625 52.203125 
Q 14.9375 54.109375 19.578125 55.046875 
Q 24.21875 56 28.609375 56 
Q 40.484375 56 46.34375 49.84375 
Q 52.203125 43.703125 52.203125 31.203125 
z
" id="DejaVuSans-97"/>
      <path d="M 52 44.1875 
Q 55.375 50.25 60.0625 53.125 
Q 64.75 56 71.09375 56 
Q 79.640625 56 84.28125 50.015625 
Q 88.921875 44.046875 88.921875 33.015625 
L 88.921875 0 
L 79.890625 0 
L 79.890625 32.71875 
Q 79.890625 40.578125 77.09375 44.375 
Q 74.3125 48.1875 68.609375 48.1875 
Q 61.625 48.1875 57.5625 43.546875 
Q 53.515625 38.921875 53.515625 30.90625 
L 53.515625 0 
L 44.484375 0 
L 44.484375 32.71875 
Q 44.484375 40.625 41.703125 44.40625 
Q 38.921875 48.1875 33.109375 48.1875 
Q 26.21875 48.1875 22.15625 43.53125 
Q 18.109375 38.875 18.109375 30.90625 
L 18.109375 0 
L 9.078125 0 
L 9.078125 54.6875 
L 18.109375 54.6875 
L 18.109375 46.1875 
Q 21.1875 51.21875 25.484375 53.609375 
Q 29.78125 56 35.6875 56 
Q 41.65625 56 45.828125 52.96875 
Q 50 49.953125 52 44.1875 
z
" id="DejaVuSans-109"/>
      <path d="M 56.203125 29.59375 
L 56.203125 25.203125 
L 14.890625 25.203125 
Q 15.484375 15.921875 20.484375 11.0625 
Q 25.484375 6.203125 34.421875 6.203125 
Q 39.59375 6.203125 44.453125 7.46875 
Q 49.3125 8.734375 54.109375 11.28125 
L 54.109375 2.78125 
Q 49.265625 0.734375 44.1875 -0.34375 
Q 39.109375 -1.421875 33.890625 -1.421875 
Q 20.796875 -1.421875 13.15625 6.1875 
Q 5.515625 13.8125 5.515625 26.8125 
Q 5.515625 40.234375 12.765625 48.109375 
Q 20.015625 56 32.328125 56 
Q 43.359375 56 49.78125 48.890625 
Q 56.203125 41.796875 56.203125 29.59375 
z
M 47.21875 32.234375 
Q 47.125 39.59375 43.09375 43.984375 
Q 39.0625 48.390625 32.421875 48.390625 
Q 24.90625 48.390625 20.390625 44.140625 
Q 15.875 39.890625 15.1875 32.171875 
z
" id="DejaVuSans-101"/>
      <path d="M 11.71875 12.40625 
L 22.015625 12.40625 
L 22.015625 0 
L 11.71875 0 
z
M 11.71875 51.703125 
L 22.015625 51.703125 
L 22.015625 39.3125 
L 11.71875 39.3125 
z
" id="DejaVuSans-58"/>
      <path id="DejaVuSans-32"/>
     </defs>
     <use xlink:href="#DejaVuSans-70"/>
     <use x="50.269531" xlink:href="#DejaVuSans-114"/>
     <use x="91.382812" xlink:href="#DejaVuSans-97"/>
     <use x="152.662109" xlink:href="#DejaVuSans-109"/>
     <use x="250.074219" xlink:href="#DejaVuSans-101"/>
     <use x="311.597656" xlink:href="#DejaVuSans-58"/>
     <use x="345.289062" xlink:href="#DejaVuSans-32"/>
     <use x="377.076172" xlink:href="#DejaVuSans-49"/>
     <use x="440.699219" xlink:href="#DejaVuSans-49"/>
    </g>
   </g>
   <g id="text_46">
    <!-- Network: hsa04110 -->
    <g transform="translate(384.1275 63.12)scale(0.12 -0.12)">
     <defs>
      <path d="M 18.3125 70.21875 
L 18.3125 54.6875 
L 36.8125 54.6875 
L 36.8125 47.703125 
L 18.3125 47.703125 
L 18.3125 18.015625 
Q 18.3125 11.328125 20.140625 9.421875 
Q 21.96875 7.515625 27.59375 7.515625 
L 36.8125 7.515625 
L 36.8125 0 
L 27.59375 0 
Q 17.1875 0 13.234375 3.875 
Q 9.28125 7.765625 9.28125 18.015625 
L 9.28125 47.703125 
L 2.6875 47.703125 
L 2.6875 54.6875 
L 9.28125 54.6875 
L 9.28125 70.21875 
z
" id="DejaVuSans-116"/>
      <path d="M 4.203125 54.6875 
L 13.1875 54.6875 
L 24.421875 12.015625 
L 35.59375 54.6875 
L 46.1875 54.6875 
L 57.421875 12.015625 
L 68.609375 54.6875 
L 77.59375 54.6875 
L 63.28125 0 
L 52.6875 0 
L 40.921875 44.828125 
L 29.109375 0 
L 18.5 0 
z
" id="DejaVuSans-119"/>
      <path d="M 30.609375 48.390625 
Q 23.390625 48.390625 19.1875 42.75 
Q 14.984375 37.109375 14.984375 27.296875 
Q 14.984375 17.484375 19.15625 11.84375 
Q 23.34375 6.203125 30.609375 6.203125 
Q 37.796875 6.203125 41.984375 11.859375 
Q 46.1875 17.53125 46.1875 27.296875 
Q 46.1875 37.015625 41.984375 42.703125 
Q 37.796875 48.390625 30.609375 48.390625 
z
M 30.609375 56 
Q 42.328125 56 49.015625 48.375 
Q 55.71875 40.765625 55.71875 27.296875 
Q 55.71875 13.875 49.015625 6.21875 
Q 42.328125 -1.421875 30.609375 -1.421875 
Q 18.84375 -1.421875 12.171875 6.21875 
Q 5.515625 13.875 5.515625 27.296875 
Q 5.515625 40.765625 12.171875 48.375 
Q 18.84375 56 30.609375 56 
z
" id="DejaVuSans-111"/>
      <path d="M 9.078125 75.984375 
L 18.109375 75.984375 
L 18.109375 31.109375 
L 44.921875 54.6875 
L 56.390625 54.6875 
L 27.390625 29.109375 
L 57.625 0 
L 45.90625 0 
L 18.109375 26.703125 
L 18.109375 0 
L 9.078125 0 
z
" id="DejaVuSans-107"/>
      <path d="M 54.890625 33.015625 
L 54.890625 0 
L 45.90625 0 
L 45.90625 32.71875 
Q 45.90625 40.484375 42.875 44.328125 
Q 39.84375 48.1875 33.796875 48.1875 
Q 26.515625 48.1875 22.3125 43.546875 
Q 18.109375 38.921875 18.109375 30.90625 
L 18.109375 0 
L 9.078125 0 
L 9.078125 75.984375 
L 18.109375 75.984375 
L 18.109375 46.1875 
Q 21.34375 51.125 25.703125 53.5625 
Q 30.078125 56 35.796875 56 
Q 45.21875 56 50.046875 50.171875 
Q 54.890625 44.34375 54.890625 33.015625 
z
" id="DejaVuSans-104"/>
      <path d="M 44.28125 53.078125 
L 44.28125 44.578125 
Q 40.484375 46.53125 36.375 47.5 
Q 32.28125 48.484375 27.875 48.484375 
Q 21.1875 48.484375 17.84375 46.4375 
Q 14.5 44.390625 14.5 40.28125 
Q 14.5 37.15625 16.890625 35.375 
Q 19.28125 33.59375 26.515625 31.984375 
L 29.59375 31.296875 
Q 39.15625 29.25 43.1875 25.515625 
Q 47.21875 21.78125 47.21875 15.09375 
Q 47.21875 7.46875 41.1875 3.015625 
Q 35.15625 -1.421875 24.609375 -1.421875 
Q 20.21875 -1.421875 15.453125 -0.5625 
Q 10.6875 0.296875 5.421875 2 
L 5.421875 11.28125 
Q 10.40625 8.6875 15.234375 7.390625 
Q 20.0625 6.109375 24.8125 6.109375 
Q 31.15625 6.109375 34.5625 8.28125 
Q 37.984375 10.453125 37.984375 14.40625 
Q 37.984375 18.0625 35.515625 20.015625 
Q 33.0625 21.96875 24.703125 23.78125 
L 21.578125 24.515625 
Q 13.234375 26.265625 9.515625 29.90625 
Q 5.8125 33.546875 5.8125 39.890625 
Q 5.8125 47.609375 11.28125 51.796875 
Q 16.75 56 26.8125 56 
Q 31.78125 56 36.171875 55.265625 
Q 40.578125 54.546875 44.28125 53.078125 
z
" id="DejaVuSans-115"/>
     </defs>
     <use xlink:href="#DejaVuSans-78"/>
     <use x="74.804688" xlink:href="#DejaVuSans-101"/>
     <use x="136.328125" xlink:href="#DejaVuSans-116"/>
     <use x="175.537109" xlink:href="#DejaVuSans-119"/>
     <use x="257.324219" xlink:href="#DejaVuSans-111"/>
     <use x="318.505859" xlink:href="#DejaVuSans-114"/>
     <use x="359.619141" xlink:href="#DejaVuSans-107"/>
     <use x="417.529297" xlink:href="#DejaVuSans-58"/>
     <use x="451.220703" xlink:href="#DejaVuSans-32"/>
     <use x="483.007812" xlink:href="#DejaVuSans-104"/>
     <use x="546.386719" xlink:href="#DejaVuSans-115"/>
     <use x="598.486328" xlink:href="#DejaVuSans-97"/>
     <use x="659.765625" xlink:href="#DejaVuSans-48"/>
     <use x="723.388672" xlink:href="#DejaVuSans-52"/>
     <use x="787.011719" xlink:href="#DejaVuSans-49"/>
     <use x="850.634766" xlink:href="#DejaVuSans-49"/>
     <use x="914.257812" xlink:href="#DejaVuSans-48"/>
    </g>
   </g>
  </g>
 </g>
 <defs>
  <clipPath id="p17b943c497">
   <rect height="443.52" width="669.6" x="108" y="69.12"/>
  </clipPath>
 </defs>
</svg>
