<?xml version="1.0" encoding="utf-8" standalone="no"?>
<!DOCTYPE svg PUBLIC "-//W3C//DTD SVG 1.1//EN"
  "http://www.w3.org/Graphics/SVG/1.1/DTD/svg11.dtd">
<!-- Created with matplotlib (https://matplotlib.org/) -->
<svg height="864pt" version="1.1" viewBox="0 0 1152 864" width="1152pt" xmlns="http://www.w3.org/2000/svg" xmlns:xlink="http://www.w3.org/1999/xlink">
 <metadata>
  <rdf:RDF xmlns:cc="http://creativecommons.org/ns#" xmlns:dc="http://purl.org/dc/elements/1.1/" xmlns:rdf="http://www.w3.org/1999/02/22-rdf-syntax-ns#">
   <cc:Work>
    <dc:type rdf:resource="http://purl.org/dc/dcmitype/StillImage"/>
    <dc:date>2024-04-17T13:51:38.143850</dc:date>
    <dc:format>image/svg+xml</dc:format>
    <dc:creator>
     <cc:Agent>
      <dc:title>Matplotlib v3.3.1, https://matplotlib.org/</dc:title>
     </cc:Agent>
    </dc:creator>
   </cc:Work>
  </rdf:RDF>
 </metadata>
 <defs>
  <style type="text/css">*{stroke-linecap:butt;stroke-linejoin:round;}</style>
 </defs>
 <g id="figure_1">
  <g id="patch_1">
   <path d="M 0 864 
L 1152 864 
L 1152 0 
L 0 0 
z
" style="fill:#ffffff;"/>
  </g>
  <g id="axes_1">
   <g id="patch_2">
    <path clip-path="url(#p3f46760331)" d="M 725.888484 460.225706 
Q 716.639024 573.110656 707.480865 684.881306 
" style="fill:none;stroke:#000000;stroke-linecap:round;"/>
    <path clip-path="url(#p3f46760331)" d="M 709.800839 681.057993 
L 707.480865 684.881306 
L 705.814199 680.731339 
L 709.800839 681.057993 
z
" style="stroke:#000000;stroke-linecap:round;"/>
   </g>
   <g id="patch_3">
    <path clip-path="url(#p3f46760331)" d="M 738.949314 435.161972 
Q 824.067289 364.648911 908.324289 294.849096 
" style="fill:none;stroke:#000000;stroke-linecap:round;"/>
    <path clip-path="url(#p3f46760331)" d="M 903.968073 295.860722 
L 908.324289 294.849096 
L 906.51986 298.941044 
L 903.968073 295.860722 
z
" style="stroke:#000000;stroke-linecap:round;"/>
   </g>
   <g id="patch_4">
    <path clip-path="url(#p3f46760331)" d="M 742.463461 445.453026 
Q 847.987537 448.955011 952.394193 452.419914 
" style="fill:none;stroke:#000000;stroke-linecap:round;"/>
    <path clip-path="url(#p3f46760331)" d="M 948.462731 450.288341 
L 952.394193 452.419914 
L 948.330057 454.28614 
L 948.462731 450.288341 
z
" style="stroke:#000000;stroke-linecap:round;"/>
   </g>
   <g id="patch_5">
    <path clip-path="url(#p3f46760331)" d="M 734.724424 431.622212 
Q 796.241715 323.556718 857.205895 216.462857 
" style="fill:none;stroke:#000000;stroke-linecap:round;"/>
    <path clip-path="url(#p3f46760331)" d="M 853.488918 218.949639 
L 857.205895 216.462857 
L 856.965134 220.928507 
L 853.488918 218.949639 
z
" style="stroke:#000000;stroke-linecap:round;"/>
   </g>
   <g id="patch_6">
    <path clip-path="url(#p3f46760331)" d="M 716.37859 455.868372 
Q 592.631452 581.47677 469.668961 706.28872 
" style="fill:none;stroke:#000000;stroke-linecap:round;"/>
    <path clip-path="url(#p3f46760331)" d="M 473.900928 704.842878 
L 469.668961 706.28872 
L 471.051468 702.035642 
L 473.900928 704.842878 
z
" style="stroke:#000000;stroke-linecap:round;"/>
   </g>
   <g id="patch_7">
    <path clip-path="url(#p3f46760331)" d="M 728.325331 429.654487 
Q 736.705621 321.501012 744.999539 214.462231 
" style="fill:none;stroke:#000000;stroke-linecap:round;"/>
    <path clip-path="url(#p3f46760331)" d="M 742.696501 218.295769 
L 744.999539 214.462231 
L 746.684547 218.604784 
L 742.696501 218.295769 
z
" style="stroke:#000000;stroke-linecap:round;"/>
   </g>
   <g id="patch_8">
    <path clip-path="url(#p3f46760331)" d="M 711.947926 442.852175 
Q 618.55824 429.99052 526.276134 417.281401 
" style="fill:none;stroke:#000000;stroke-linecap:round;"/>
    <path clip-path="url(#p3f46760331)" d="M 529.965866 419.808429 
L 526.276134 417.281401 
L 530.511596 415.845832 
L 529.965866 419.808429 
z
" style="stroke:#000000;stroke-linecap:round;"/>
   </g>
   <g id="patch_9">
    <path clip-path="url(#p3f46760331)" d="M 712.272734 441.198854 
Q 611.468942 415.803348 511.749307 390.680974 
" style="fill:none;stroke:#000000;stroke-linecap:round;"/>
    <path clip-path="url(#p3f46760331)" d="M 515.139516 393.597562 
L 511.749307 390.680974 
L 516.116703 389.71876 
L 515.139516 393.597562 
z
" style="stroke:#000000;stroke-linecap:round;"/>
   </g>
   <g id="patch_10">
    <path clip-path="url(#p3f46760331)" d="M 414.117537 499.988081 
Q 498.408483 599.897405 581.978478 698.952192 
" style="fill:none;stroke:#000000;stroke-linecap:round;"/>
    <path clip-path="url(#p3f46760331)" d="M 580.927769 694.605238 
L 581.978478 698.952192 
L 577.87049 697.184587 
L 580.927769 694.605238 
z
" style="stroke:#000000;stroke-linecap:round;"/>
   </g>
   <g id="patch_11">
    <path clip-path="url(#p3f46760331)" d="M 919.227938 540.471739 
Q 830.050175 496.122623 741.873486 452.271353 
" style="fill:none;stroke:#000000;stroke-linecap:round;"/>
    <path clip-path="url(#p3f46760331)" d="M 744.564465 455.843276 
L 741.873486 452.271353 
L 746.345611 452.261723 
L 744.564465 455.843276 
z
" style="stroke:#000000;stroke-linecap:round;"/>
   </g>
   <g id="patch_12">
    <path clip-path="url(#p3f46760331)" d="M 502.336159 455.473991 
Q 647.436403 542.538523 791.577954 629.027809 
" style="fill:none;stroke:#000000;stroke-linecap:round;"/>
    <path clip-path="url(#p3f46760331)" d="M 789.177057 625.254787 
L 791.577954 629.027809 
L 787.118998 628.684713 
L 789.177057 625.254787 
z
" style="stroke:#000000;stroke-linecap:round;"/>
   </g>
   <g id="patch_13">
    <path clip-path="url(#p3f46760331)" d="M 488.539121 455.305174 
Q 376.552042 518.860261 265.537321 581.863514 
" style="fill:none;stroke:#000000;stroke-linecap:round;"/>
    <path clip-path="url(#p3f46760331)" d="M 270.003284 581.628619 
L 265.537321 581.863514 
L 268.028983 578.149807 
L 270.003284 581.628619 
z
" style="stroke:#000000;stroke-linecap:round;"/>
   </g>
   <g id="patch_14">
    <path clip-path="url(#p3f46760331)" d="M 519.614311 410.520107 
Q 523.94556 288.871453 528.237028 168.340124 
" style="fill:none;stroke:#000000;stroke-linecap:round;"/>
    <path clip-path="url(#p3f46760331)" d="M 526.095966 172.266427 
L 528.237028 168.340124 
L 530.093433 172.408755 
L 526.095966 172.266427 
z
" style="stroke:#000000;stroke-linecap:round;"/>
   </g>
   <g id="patch_15">
    <path clip-path="url(#p3f46760331)" d="M 522.681825 421.145939 
Q 613.160638 554.064383 703.01032 686.058601 
" style="fill:none;stroke:#000000;stroke-linecap:round;"/>
    <path clip-path="url(#p3f46760331)" d="M 702.412784 681.626564 
L 703.01032 686.058601 
L 699.106169 683.877407 
L 702.412784 681.626564 
z
" style="stroke:#000000;stroke-linecap:round;"/>
   </g>
   <g id="patch_16">
    <path clip-path="url(#p3f46760331)" d="M 525.124597 415.270861 
Q 642.904686 393.340455 759.585631 371.614707 
" style="fill:none;stroke:#000000;stroke-linecap:round;"/>
    <path clip-path="url(#p3f46760331)" d="M 755.287114 370.380708 
L 759.585631 371.614707 
L 756.019321 374.313121 
L 755.287114 370.380708 
z
" style="stroke:#000000;stroke-linecap:round;"/>
   </g>
   <g id="patch_17">
    <path clip-path="url(#p3f46760331)" d="M 513.611731 416.820038 
Q 372.077954 428.655055 231.658322 440.396908 
" style="fill:none;stroke:#000000;stroke-linecap:round;"/>
    <path clip-path="url(#p3f46760331)" d="M 235.811068 442.056636 
L 231.658322 440.396908 
L 235.477753 438.070548 
L 235.811068 442.056636 
z
" style="stroke:#000000;stroke-linecap:round;"/>
   </g>
   <g id="patch_18">
    <path clip-path="url(#p3f46760331)" d="M 513.692818 415.237157 
Q 370.439524 387.705272 228.284171 360.3844 
" style="fill:none;stroke:#000000;stroke-linecap:round;"/>
    <path clip-path="url(#p3f46760331)" d="M 231.83481 363.103401 
L 228.284171 360.3844 
L 232.589755 359.175289 
L 231.83481 363.103401 
z
" style="stroke:#000000;stroke-linecap:round;"/>
   </g>
   <g id="patch_19">
    <path clip-path="url(#p3f46760331)" d="M 502.124624 377.963549 
Q 514.952853 272.573562 527.645991 168.293418 
" style="fill:none;stroke:#000000;stroke-linecap:round;"/>
    <path clip-path="url(#p3f46760331)" d="M 525.177325 172.022451 
L 527.645991 168.293418 
L 529.148018 172.50577 
L 525.177325 172.022451 
z
" style="stroke:#000000;stroke-linecap:round;"/>
   </g>
   <g id="patch_20">
    <path clip-path="url(#p3f46760331)" d="M 506.553021 396.274451 
Q 605.100392 541.625148 703.02035 686.050452 
" style="fill:none;stroke:#000000;stroke-linecap:round;"/>
    <path clip-path="url(#p3f46760331)" d="M 702.431039 681.617314 
L 703.02035 686.050452 
L 699.120253 683.862017 
L 702.431039 681.617314 
z
" style="stroke:#000000;stroke-linecap:round;"/>
   </g>
   <g id="patch_21">
    <path clip-path="url(#p3f46760331)" d="M 510.943647 387.284608 
Q 635.770924 379.007464 759.482616 370.804293 
" style="fill:none;stroke:#000000;stroke-linecap:round;"/>
    <path clip-path="url(#p3f46760331)" d="M 755.359054 369.073329 
L 759.482616 370.804293 
L 755.623708 373.064564 
L 755.359054 369.073329 
z
" style="stroke:#000000;stroke-linecap:round;"/>
   </g>
   <g id="patch_22">
    <path clip-path="url(#p3f46760331)" d="M 491.027504 389.847314 
Q 360.746163 414.862198 231.5628 439.666264 
" style="fill:none;stroke:#000000;stroke-linecap:round;"/>
    <path clip-path="url(#p3f46760331)" d="M 235.86817 440.876137 
L 231.5628 439.666264 
L 235.113921 436.947892 
L 235.86817 440.876137 
z
" style="stroke:#000000;stroke-linecap:round;"/>
   </g>
   <g id="patch_23">
    <path clip-path="url(#p3f46760331)" d="M 490.901839 386.91593 
Q 359.080294 373.294631 228.370862 359.788248 
" style="fill:none;stroke:#000000;stroke-linecap:round;"/>
    <path clip-path="url(#p3f46760331)" d="M 232.144109 362.188791 
L 228.370862 359.788248 
L 232.555245 358.209977 
L 232.144109 362.188791 
z
" style="stroke:#000000;stroke-linecap:round;"/>
   </g>
   <g id="patch_24">
    <path clip-path="url(#p3f46760331)" d="M 639.999952 438.36081 
Q 506.634739 316.4325 374.094684 195.258586 
" style="fill:none;stroke:#000000;stroke-linecap:round;"/>
    <path clip-path="url(#p3f46760331)" d="M 375.697356 199.433683 
L 374.094684 195.258586 
L 378.396365 196.481506 
L 375.697356 199.433683 
z
" style="stroke:#000000;stroke-linecap:round;"/>
   </g>
   <g id="patch_25">
    <path clip-path="url(#p3f46760331)" d="M 600.793476 163.411031 
Q 487.779201 176.640332 375.875377 189.739645 
" style="fill:none;stroke:#000000;stroke-linecap:round;"/>
    <path clip-path="url(#p3f46760331)" d="M 380.08078 191.261022 
L 375.875377 189.739645 
L 379.615721 187.288149 
L 380.08078 191.261022 
z
" style="stroke:#000000;stroke-linecap:round;"/>
   </g>
   <g id="patch_26">
    <path clip-path="url(#p3f46760331)" d="M 760.825719 372.013134 
Q 631.983541 410.543352 504.212526 448.75324 
" style="fill:none;stroke:#000000;stroke-linecap:round;"/>
    <path clip-path="url(#p3f46760331)" d="M 508.617857 449.523342 
L 504.212526 448.75324 
L 507.471807 445.691036 
L 508.617857 449.523342 
z
" style="stroke:#000000;stroke-linecap:round;"/>
   </g>
   <g id="patch_27">
    <path clip-path="url(#p3f46760331)" d="M 230.560524 441.197774 
Q 359.030928 446.127297 486.384119 451.013952 
" style="fill:none;stroke:#000000;stroke-linecap:round;"/>
    <path clip-path="url(#p3f46760331)" d="M 482.463746 448.862052 
L 486.384119 451.013952 
L 482.310376 452.85911 
L 482.463746 448.862052 
z
" style="stroke:#000000;stroke-linecap:round;"/>
   </g>
   <g id="patch_28">
    <path clip-path="url(#p3f46760331)" d="M 226.989214 360.933036 
Q 357.453663 404.873805 486.85856 448.457715 
" style="fill:none;stroke:#000000;stroke-linecap:round;"/>
    <path clip-path="url(#p3f46760331)" d="M 483.706161 445.285589 
L 486.85856 448.457715 
L 482.42942 449.076358 
L 483.706161 445.285589 
z
" style="stroke:#000000;stroke-linecap:round;"/>
   </g>
   <g id="patch_29">
    <path clip-path="url(#p3f46760331)" d="M 347.215723 644.169388 
Q 418.91494 550.933328 489.932603 458.583545 
" style="fill:none;stroke:#000000;stroke-linecap:round;"/>
    <path clip-path="url(#p3f46760331)" d="M 485.908786 460.535184 
L 489.932603 458.583545 
L 489.079624 462.973582 
L 485.908786 460.535184 
z
" style="stroke:#000000;stroke-linecap:round;"/>
   </g>
   <g id="patch_30">
    <path clip-path="url(#p3f46760331)" d="M 280.019869 288.315794 
Q 384.568323 367.429943 488.225235 445.869443 
" style="fill:none;stroke:#000000;stroke-linecap:round;"/>
    <path clip-path="url(#p3f46760331)" d="M 486.242407 441.860903 
L 488.225235 445.869443 
L 483.828707 445.050581 
L 486.242407 441.860903 
z
" style="stroke:#000000;stroke-linecap:round;"/>
   </g>
   <g id="patch_31">
    <path clip-path="url(#p3f46760331)" d="M 288.897039 512.714023 
Q 388.362635 483.175536 486.756458 453.955335 
" style="fill:none;stroke:#000000;stroke-linecap:round;"/>
    <path clip-path="url(#p3f46760331)" d="M 482.352605 453.176827 
L 486.756458 453.955335 
L 483.49134 457.011313 
L 482.352605 453.176827 
z
" style="stroke:#000000;stroke-linecap:round;"/>
   </g>
   <g id="PathCollection_1">
    <path clip-path="url(#p3f46760331)" d="M 464.801796 717.047585 
C 466.344879 717.047585 467.824969 716.434512 468.916093 715.343388 
C 470.007217 714.252264 470.62029 712.772174 470.62029 711.229091 
C 470.62029 709.686008 470.007217 708.205918 468.916093 707.114794 
C 467.824969 706.02367 466.344879 705.410596 464.801796 705.410596 
C 463.258713 705.410596 461.778623 706.02367 460.687499 707.114794 
C 459.596375 708.205918 458.983301 709.686008 458.983301 711.229091 
C 458.983301 712.772174 459.596375 714.252264 460.687499 715.343388 
C 461.778623 716.434512 463.258713 717.047585 464.801796 717.047585 
z
" style="fill:#7295f4;stroke:#7295f4;"/>
    <path clip-path="url(#p3f46760331)" d="M 727.14058 460.278098 
C 731.207095 460.278098 735.107604 458.662455 737.983064 455.786995 
C 740.858524 452.911535 742.474167 449.011026 742.474167 444.944512 
C 742.474167 440.877997 740.858524 436.977489 737.983064 434.102028 
C 735.107604 431.226568 731.207095 429.610925 727.14058 429.610925 
C 723.074066 429.610925 719.173557 431.226568 716.298097 434.102028 
C 713.422637 436.977489 711.806994 440.877997 711.806994 444.944512 
C 711.806994 449.011026 713.422637 452.911535 716.298097 455.786995 
C 719.173557 458.662455 723.074066 460.278098 727.14058 460.278098 
z
" style="fill:#dddcdc;stroke:#dddcdc;"/>
    <path clip-path="url(#p3f46760331)" d="M 586.478772 710.146967 
C 588.033026 710.146967 589.52383 709.529456 590.622853 708.430433 
C 591.721877 707.33141 592.339388 705.840605 592.339388 704.286352 
C 592.339388 702.732098 591.721877 701.241294 590.622853 700.142271 
C 589.52383 699.043248 588.033026 698.425736 586.478772 698.425736 
C 584.924519 698.425736 583.433714 699.043248 582.334691 700.142271 
C 581.235668 701.241294 580.618157 702.732098 580.618157 704.286352 
C 580.618157 705.840605 581.235668 707.33141 582.334691 708.430433 
C 583.433714 709.529456 584.924519 710.146967 586.478772 710.146967 
z
" style="fill:#5572df;stroke:#5572df;"/>
    <path clip-path="url(#p3f46760331)" d="M 368.945374 196.411477 
C 370.499627 196.411477 371.990432 195.793966 373.089455 194.694943 
C 374.188478 193.59592 374.80599 192.105115 374.80599 190.550862 
C 374.80599 188.996608 374.188478 187.505804 373.089455 186.406781 
C 371.990432 185.307757 370.499627 184.690246 368.945374 184.690246 
C 367.391121 184.690246 365.900316 185.307757 364.801293 186.406781 
C 363.70227 187.505804 363.084758 188.996608 363.084758 190.550862 
C 363.084758 192.105115 363.70227 193.59592 364.801293 194.694943 
C 365.900316 195.793966 367.391121 196.411477 368.945374 196.411477 
z
" style="fill:#b40426;stroke:#b40426;"/>
    <path clip-path="url(#p3f46760331)" d="M 409.569 501.64797 
C 411.439008 501.64797 413.232678 500.905008 414.554973 499.582713 
C 415.877269 498.260417 416.620231 496.466747 416.620231 494.596739 
C 416.620231 492.72673 415.877269 490.933061 414.554973 489.610765 
C 413.232678 488.288469 411.439008 487.545507 409.569 487.545507 
C 407.698991 487.545507 405.905321 488.288469 404.583026 489.610765 
C 403.26073 490.933061 402.517768 492.72673 402.517768 494.596739 
C 402.517768 496.466747 403.26073 498.260417 404.583026 499.582713 
C 405.905321 500.905008 407.698991 501.64797 409.569 501.64797 
z
" style="fill:#dcdddd;stroke:#dcdddd;"/>
    <path clip-path="url(#p3f46760331)" d="M 959.32562 458.468439 
C 960.868703 458.468439 962.348792 457.855365 963.439917 456.764241 
C 964.531041 455.673117 965.144114 454.193027 965.144114 452.649944 
C 965.144114 451.106861 964.531041 449.626771 963.439917 448.535647 
C 962.348792 447.444523 960.868703 446.83145 959.32562 446.83145 
C 957.782537 446.83145 956.302447 447.444523 955.211323 448.535647 
C 954.120199 449.626771 953.507125 451.106861 953.507125 452.649944 
C 953.507125 454.193027 954.120199 455.673117 955.211323 456.764241 
C 956.302447 457.855365 957.782537 458.468439 959.32562 458.468439 
z
" style="fill:#6687ed;stroke:#6687ed;"/>
    <path clip-path="url(#p3f46760331)" d="M 860.639041 216.250451 
C 862.182124 216.250451 863.662214 215.637378 864.753338 214.546253 
C 865.844462 213.455129 866.457535 211.975039 866.457535 210.431957 
C 866.457535 208.888874 865.844462 207.408784 864.753338 206.31766 
C 863.662214 205.226535 862.182124 204.613462 860.639041 204.613462 
C 859.095958 204.613462 857.615868 205.226535 856.524744 206.31766 
C 855.43362 207.408784 854.820546 208.888874 854.820546 210.431957 
C 854.820546 211.975039 855.43362 213.455129 856.524744 214.546253 
C 857.615868 215.637378 859.095958 216.250451 860.639041 216.250451 
z
" style="fill:#c7d7f0;stroke:#c7d7f0;"/>
    <path clip-path="url(#p3f46760331)" d="M 706.91446 697.612494 
C 708.457542 697.612494 709.937632 696.999421 711.028756 695.908297 
C 712.119881 694.817173 712.732954 693.337083 712.732954 691.794 
C 712.732954 690.250917 712.119881 688.770827 711.028756 687.679703 
C 709.937632 686.588579 708.457542 685.975505 706.91446 685.975505 
C 705.371377 685.975505 703.891287 686.588579 702.800163 687.679703 
C 701.709038 688.770827 701.095965 690.250917 701.095965 691.794 
C 701.095965 693.337083 701.709038 694.817173 702.800163 695.908297 
C 703.891287 696.999421 705.371377 697.612494 706.91446 697.612494 
z
" style="fill:#dddcdc;stroke:#dddcdc;"/>
    <path clip-path="url(#p3f46760331)" d="M 745.535223 213.367346 
C 747.078306 213.367346 748.558396 212.754272 749.64952 211.663148 
C 750.740644 210.572024 751.353717 209.091934 751.353717 207.548851 
C 751.353717 206.005768 750.740644 204.525679 749.64952 203.434554 
C 748.558396 202.34343 747.078306 201.730357 745.535223 201.730357 
C 743.99214 201.730357 742.51205 202.34343 741.420926 203.434554 
C 740.329802 204.525679 739.716728 206.005768 739.716728 207.548851 
C 739.716728 209.091934 740.329802 210.572024 741.420926 211.663148 
C 742.51205 212.754272 743.99214 213.367346 745.535223 213.367346 
z
" style="fill:#dddcdc;stroke:#dddcdc;"/>
    <path clip-path="url(#p3f46760331)" d="M 913.666772 296.241794 
C 915.209855 296.241794 916.689944 295.628721 917.781069 294.537596 
C 918.872193 293.446472 919.485266 291.966382 919.485266 290.423299 
C 919.485266 288.880217 918.872193 287.400127 917.781069 286.309002 
C 916.689944 285.217878 915.209855 284.604805 913.666772 284.604805 
C 912.123689 284.604805 910.643599 285.217878 909.552475 286.309002 
C 908.461351 287.400127 907.848277 288.880217 907.848277 290.423299 
C 907.848277 291.966382 908.461351 293.446472 909.552475 294.537596 
C 910.643599 295.628721 912.123689 296.241794 913.666772 296.241794 
z
" style="fill:#dddcdc;stroke:#dddcdc;"/>
    <path clip-path="url(#p3f46760331)" d="M 933.38658 563.32438 
C 937.579809 563.32438 941.601859 561.658393 944.56692 558.693332 
C 947.531981 555.728271 949.197969 551.706221 949.197969 547.512992 
C 949.197969 543.319763 947.531981 539.297713 944.56692 536.332652 
C 941.601859 533.367591 937.579809 531.701604 933.38658 531.701604 
C 929.193351 531.701604 925.171301 533.367591 922.20624 536.332652 
C 919.24118 539.297713 917.575192 543.319763 917.575192 547.512992 
C 917.575192 551.706221 919.24118 555.728271 922.20624 558.693332 
C 925.171301 561.658393 929.193351 563.32438 933.38658 563.32438 
z
" style="fill:#d3dbe7;stroke:#d3dbe7;"/>
    <path clip-path="url(#p3f46760331)" d="M 495.485128 459.350755 
C 497.603461 459.350755 499.635319 458.509132 501.133207 457.011244 
C 502.631095 455.513356 503.472717 453.481499 503.472717 451.363165 
C 503.472717 449.244832 502.631095 447.212975 501.133207 445.715087 
C 499.635319 444.217199 497.603461 443.375576 495.485128 443.375576 
C 493.366794 443.375576 491.334937 444.217199 489.837049 445.715087 
C 488.339161 447.212975 487.497538 449.244832 487.497538 451.363165 
C 487.497538 453.481499 488.339161 455.513356 489.837049 457.011244 
C 491.334937 458.509132 493.366794 459.350755 495.485128 459.350755 
z
" style="fill:#dcdddd;stroke:#dcdddd;"/>
    <path clip-path="url(#p3f46760331)" d="M 528.48374 167.229404 
C 530.026823 167.229404 531.506913 166.61633 532.598037 165.525206 
C 533.689161 164.434082 534.302234 162.953992 534.302234 161.410909 
C 534.302234 159.867826 533.689161 158.387736 532.598037 157.296612 
C 531.506913 156.205488 530.026823 155.592415 528.48374 155.592415 
C 526.940657 155.592415 525.460567 156.205488 524.369443 157.296612 
C 523.278319 158.387736 522.665245 159.867826 522.665245 161.410909 
C 522.665245 162.953992 523.278319 164.434082 524.369443 165.525206 
C 525.460567 166.61633 526.940657 167.229404 528.48374 167.229404 
z
" style="fill:#dddcdc;stroke:#dddcdc;"/>
    <path clip-path="url(#p3f46760331)" d="M 519.407259 422.153912 
C 520.950342 422.153912 522.430432 421.540838 523.521556 420.449714 
C 524.61268 419.35859 525.225753 417.8785 525.225753 416.335417 
C 525.225753 414.792334 524.61268 413.312244 523.521556 412.22112 
C 522.430432 411.129996 520.950342 410.516923 519.407259 410.516923 
C 517.864176 410.516923 516.384086 411.129996 515.292962 412.22112 
C 514.201838 413.312244 513.588764 414.792334 513.588764 416.335417 
C 513.588764 417.8785 514.201838 419.35859 515.292962 420.449714 
C 516.384086 421.540838 517.864176 422.153912 519.407259 422.153912 
z
" style="fill:#7699f6;stroke:#7699f6;"/>
    <path clip-path="url(#p3f46760331)" d="M 500.909059 398.009256 
C 503.576808 398.009256 506.135651 396.949349 508.022035 395.062965 
C 509.908418 393.176582 510.968326 390.617738 510.968326 387.94999 
C 510.968326 385.282241 509.908418 382.723397 508.022035 380.837014 
C 506.135651 378.950631 503.576808 377.890723 500.909059 377.890723 
C 498.24131 377.890723 495.682466 378.950631 493.796083 380.837014 
C 491.9097 382.723397 490.849792 385.282241 490.849792 387.94999 
C 490.849792 390.617738 491.9097 393.176582 493.796083 395.062965 
C 495.682466 396.949349 498.24131 398.009256 500.909059 398.009256 
z
" style="fill:#6b8df0;stroke:#6b8df0;"/>
    <path clip-path="url(#p3f46760331)" d="M 643.691263 446.735568 
C 645.017279 446.735568 646.289163 446.208736 647.226797 445.271102 
C 648.164432 444.333467 648.691263 443.061583 648.691263 441.735568 
C 648.691263 440.409552 648.164432 439.137668 647.226797 438.200034 
C 646.289163 437.262399 645.017279 436.735568 643.691263 436.735568 
C 642.365248 436.735568 641.093364 437.262399 640.155729 438.200034 
C 639.218095 439.137668 638.691263 440.409552 638.691263 441.735568 
C 638.691263 443.061583 639.218095 444.333467 640.155729 445.271102 
C 641.093364 446.208736 642.365248 446.735568 643.691263 446.735568 
z
" style="fill:#8badfd;stroke:#8badfd;"/>
    <path clip-path="url(#p3f46760331)" d="M 607.794658 169.642714 
C 609.664666 169.642714 611.458336 168.899752 612.780632 167.577456 
C 614.102927 166.25516 614.84589 164.461491 614.84589 162.591482 
C 614.84589 160.721474 614.102927 158.927804 612.780632 157.605508 
C 611.458336 156.283213 609.664666 155.54025 607.794658 155.54025 
C 605.924649 155.54025 604.13098 156.283213 602.808684 157.605508 
C 601.486388 158.927804 600.743426 160.721474 600.743426 162.591482 
C 600.743426 164.461491 601.486388 166.25516 602.808684 167.577456 
C 604.13098 168.899752 605.924649 169.642714 607.794658 169.642714 
z
" style="fill:#dddcdc;stroke:#dddcdc;"/>
    <path clip-path="url(#p3f46760331)" d="M 766.402307 376.163951 
C 767.94539 376.163951 769.42548 375.550878 770.516604 374.459753 
C 771.607729 373.368629 772.220802 371.888539 772.220802 370.345457 
C 772.220802 368.802374 771.607729 367.322284 770.516604 366.23116 
C 769.42548 365.140035 767.94539 364.526962 766.402307 364.526962 
C 764.859225 364.526962 763.379135 365.140035 762.28801 366.23116 
C 761.196886 367.322284 760.583813 368.802374 760.583813 370.345457 
C 760.583813 371.888539 761.196886 373.368629 762.28801 374.459753 
C 763.379135 375.550878 764.859225 376.163951 766.402307 376.163951 
z
" style="fill:#a1c0ff;stroke:#a1c0ff;"/>
    <path clip-path="url(#p3f46760331)" d="M 224.748038 446.793238 
C 226.291121 446.793238 227.77121 446.180165 228.862335 445.089041 
C 229.953459 443.997916 230.566532 442.517827 230.566532 440.974744 
C 230.566532 439.431661 229.953459 437.951571 228.862335 436.860447 
C 227.77121 435.769322 226.291121 435.156249 224.748038 435.156249 
C 223.204955 435.156249 221.724865 435.769322 220.633741 436.860447 
C 219.542617 437.951571 218.929543 439.431661 218.929543 440.974744 
C 218.929543 442.517827 219.542617 443.997916 220.633741 445.089041 
C 221.724865 446.180165 223.204955 446.793238 224.748038 446.793238 
z
" style="fill:#dddcdc;stroke:#dddcdc;"/>
    <path clip-path="url(#p3f46760331)" d="M 221.47438 364.894119 
C 223.017463 364.894119 224.497553 364.281046 225.588677 363.189922 
C 226.679801 362.098798 227.292875 360.618708 227.292875 359.075625 
C 227.292875 357.532542 226.679801 356.052452 225.588677 354.961328 
C 224.497553 353.870204 223.017463 353.25713 221.47438 353.25713 
C 219.931297 353.25713 218.451208 353.870204 217.360083 354.961328 
C 216.268959 356.052452 215.655886 357.532542 215.655886 359.075625 
C 215.655886 360.618708 216.268959 362.098798 217.360083 363.189922 
C 218.451208 364.281046 219.931297 364.894119 221.47438 364.894119 
z
" style="fill:#82a6fb;stroke:#82a6fb;"/>
    <path clip-path="url(#p3f46760331)" d="M 797.529659 638.422788 
C 799.074142 638.422788 800.555576 637.809158 801.64769 636.717043 
C 802.739805 635.624929 803.353435 634.143495 803.353435 632.599012 
C 803.353435 631.054528 802.739805 629.573095 801.64769 628.48098 
C 800.555576 627.388865 799.074142 626.775235 797.529659 626.775235 
C 795.985175 626.775235 794.503742 627.388865 793.411627 628.48098 
C 792.319512 629.573095 791.705882 631.054528 791.705882 632.599012 
C 791.705882 634.143495 792.319512 635.624929 793.411627 636.717043 
C 794.503742 637.809158 795.985175 638.422788 797.529659 638.422788 
z
" style="fill:#dddcdc;stroke:#dddcdc;"/>
    <path clip-path="url(#p3f46760331)" d="M 259.500932 591.113072 
C 261.045416 591.113072 262.526849 590.499442 263.618964 589.407327 
C 264.711079 588.315212 265.324709 586.833779 265.324709 585.289295 
C 265.324709 583.744812 264.711079 582.263378 263.618964 581.171264 
C 262.526849 580.079149 261.045416 579.465519 259.500932 579.465519 
C 257.956449 579.465519 256.475015 580.079149 255.382901 581.171264 
C 254.290786 582.263378 253.677156 583.744812 253.677156 585.289295 
C 253.677156 586.833779 254.290786 588.315212 255.382901 589.407327 
C 256.475015 590.499442 257.956449 591.113072 259.500932 591.113072 
z
" style="fill:#94b6ff;stroke:#94b6ff;"/>
    <path clip-path="url(#p3f46760331)" d="M 343.645395 654.672779 
C 345.199649 654.672779 346.690453 654.055267 347.789476 652.956244 
C 348.888499 651.857221 349.506011 650.366416 349.506011 648.812163 
C 349.506011 647.257909 348.888499 645.767105 347.789476 644.668082 
C 346.690453 643.569059 345.199649 642.951547 343.645395 642.951547 
C 342.091142 642.951547 340.600337 643.569059 339.501314 644.668082 
C 338.402291 645.767105 337.784779 647.257909 337.784779 648.812163 
C 337.784779 650.366416 338.402291 651.857221 339.501314 652.956244 
C 340.600337 654.055267 342.091142 654.672779 343.645395 654.672779 
z
" style="fill:#dddcdc;stroke:#dddcdc;"/>
    <path clip-path="url(#p3f46760331)" d="M 275.908844 290.356327 
C 277.275021 290.356327 278.585427 289.813539 279.55146 288.847506 
C 280.517493 287.881473 281.060281 286.571067 281.060281 285.20489 
C 281.060281 283.838713 280.517493 282.528307 279.55146 281.562274 
C 278.585427 280.59624 277.275021 280.053453 275.908844 280.053453 
C 274.542667 280.053453 273.232261 280.59624 272.266228 281.562274 
C 271.300195 282.528307 270.757407 283.838713 270.757407 285.20489 
C 270.757407 286.571067 271.300195 287.881473 272.266228 288.847506 
C 273.232261 289.813539 274.542667 290.356327 275.908844 290.356327 
z
" style="fill:#3b4cc0;stroke:#3b4cc0;"/>
    <path clip-path="url(#p3f46760331)" d="M 283.345597 520.154659 
C 284.881657 520.154659 286.355011 519.544375 287.441169 518.458217 
C 288.527327 517.372059 289.13761 515.898705 289.13761 514.362645 
C 289.13761 512.826585 288.527327 511.353232 287.441169 510.267073 
C 286.355011 509.180915 284.881657 508.570632 283.345597 508.570632 
C 281.809537 508.570632 280.336184 509.180915 279.250025 510.267073 
C 278.163867 511.353232 277.553584 512.826585 277.553584 514.362645 
C 277.553584 515.898705 278.163867 517.372059 279.250025 518.458217 
C 280.336184 519.544375 281.809537 520.154659 283.345597 520.154659 
z
" style="fill:#d1dae9;stroke:#d1dae9;"/>
   </g>
   <g id="text_1">
    <g clip-path="url(#p3f46760331)">
     <!-- CDC42 -->
     <g transform="translate(447.606483 713.988466)scale(0.1 -0.1)">
      <defs>
       <path d="M 64.40625 67.28125 
L 64.40625 56.890625 
Q 59.421875 61.53125 53.78125 63.8125 
Q 48.140625 66.109375 41.796875 66.109375 
Q 29.296875 66.109375 22.65625 58.46875 
Q 16.015625 50.828125 16.015625 36.375 
Q 16.015625 21.96875 22.65625 14.328125 
Q 29.296875 6.6875 41.796875 6.6875 
Q 48.140625 6.6875 53.78125 8.984375 
Q 59.421875 11.28125 64.40625 15.921875 
L 64.40625 5.609375 
Q 59.234375 2.09375 53.4375 0.328125 
Q 47.65625 -1.421875 41.21875 -1.421875 
Q 24.65625 -1.421875 15.125 8.703125 
Q 5.609375 18.84375 5.609375 36.375 
Q 5.609375 53.953125 15.125 64.078125 
Q 24.65625 74.21875 41.21875 74.21875 
Q 47.75 74.21875 53.53125 72.484375 
Q 59.328125 70.75 64.40625 67.28125 
z
" id="DejaVuSans-67"/>
       <path d="M 19.671875 64.796875 
L 19.671875 8.109375 
L 31.59375 8.109375 
Q 46.6875 8.109375 53.6875 14.9375 
Q 60.6875 21.78125 60.6875 36.53125 
Q 60.6875 51.171875 53.6875 57.984375 
Q 46.6875 64.796875 31.59375 64.796875 
z
M 9.8125 72.90625 
L 30.078125 72.90625 
Q 51.265625 72.90625 61.171875 64.09375 
Q 71.09375 55.28125 71.09375 36.53125 
Q 71.09375 17.671875 61.125 8.828125 
Q 51.171875 0 30.078125 0 
L 9.8125 0 
z
" id="DejaVuSans-68"/>
       <path d="M 37.796875 64.3125 
L 12.890625 25.390625 
L 37.796875 25.390625 
z
M 35.203125 72.90625 
L 47.609375 72.90625 
L 47.609375 25.390625 
L 58.015625 25.390625 
L 58.015625 17.1875 
L 47.609375 17.1875 
L 47.609375 0 
L 37.796875 0 
L 37.796875 17.1875 
L 4.890625 17.1875 
L 4.890625 26.703125 
z
" id="DejaVuSans-52"/>
       <path d="M 19.1875 8.296875 
L 53.609375 8.296875 
L 53.609375 0 
L 7.328125 0 
L 7.328125 8.296875 
Q 12.9375 14.109375 22.625 23.890625 
Q 32.328125 33.6875 34.8125 36.53125 
Q 39.546875 41.84375 41.421875 45.53125 
Q 43.3125 49.21875 43.3125 52.78125 
Q 43.3125 58.59375 39.234375 62.25 
Q 35.15625 65.921875 28.609375 65.921875 
Q 23.96875 65.921875 18.8125 64.3125 
Q 13.671875 62.703125 7.8125 59.421875 
L 7.8125 69.390625 
Q 13.765625 71.78125 18.9375 73 
Q 24.125 74.21875 28.421875 74.21875 
Q 39.75 74.21875 46.484375 68.546875 
Q 53.21875 62.890625 53.21875 53.421875 
Q 53.21875 48.921875 51.53125 44.890625 
Q 49.859375 40.875 45.40625 35.40625 
Q 44.1875 33.984375 37.640625 27.21875 
Q 31.109375 20.453125 19.1875 8.296875 
z
" id="DejaVuSans-50"/>
      </defs>
      <use xlink:href="#DejaVuSans-67"/>
      <use x="69.824219" xlink:href="#DejaVuSans-68"/>
      <use x="146.826172" xlink:href="#DejaVuSans-67"/>
      <use x="216.650391" xlink:href="#DejaVuSans-52"/>
      <use x="280.273438" xlink:href="#DejaVuSans-50"/>
     </g>
    </g>
   </g>
   <g id="text_2">
    <g clip-path="url(#p3f46760331)">
     <!-- KDR -->
     <g transform="translate(716.537455 447.703887)scale(0.1 -0.1)">
      <defs>
       <path d="M 9.8125 72.90625 
L 19.671875 72.90625 
L 19.671875 42.09375 
L 52.390625 72.90625 
L 65.09375 72.90625 
L 28.90625 38.921875 
L 67.671875 0 
L 54.6875 0 
L 19.671875 35.109375 
L 19.671875 0 
L 9.8125 0 
z
" id="DejaVuSans-75"/>
       <path d="M 44.390625 34.1875 
Q 47.5625 33.109375 50.5625 29.59375 
Q 53.5625 26.078125 56.59375 19.921875 
L 66.609375 0 
L 56 0 
L 46.6875 18.703125 
Q 43.0625 26.03125 39.671875 28.421875 
Q 36.28125 30.8125 30.421875 30.8125 
L 19.671875 30.8125 
L 19.671875 0 
L 9.8125 0 
L 9.8125 72.90625 
L 32.078125 72.90625 
Q 44.578125 72.90625 50.734375 67.671875 
Q 56.890625 62.453125 56.890625 51.90625 
Q 56.890625 45.015625 53.6875 40.46875 
Q 50.484375 35.9375 44.390625 34.1875 
z
M 19.671875 64.796875 
L 19.671875 38.921875 
L 32.078125 38.921875 
Q 39.203125 38.921875 42.84375 42.21875 
Q 46.484375 45.515625 46.484375 51.90625 
Q 46.484375 58.296875 42.84375 61.546875 
Q 39.203125 64.796875 32.078125 64.796875 
z
" id="DejaVuSans-82"/>
      </defs>
      <use xlink:href="#DejaVuSans-75"/>
      <use x="65.576172" xlink:href="#DejaVuSans-68"/>
      <use x="142.578125" xlink:href="#DejaVuSans-82"/>
     </g>
    </g>
   </g>
   <g id="text_3">
    <g clip-path="url(#p3f46760331)">
     <!-- PTGS2 -->
     <g transform="translate(570.180335 707.045727)scale(0.1 -0.1)">
      <defs>
       <path d="M 19.671875 64.796875 
L 19.671875 37.40625 
L 32.078125 37.40625 
Q 38.96875 37.40625 42.71875 40.96875 
Q 46.484375 44.53125 46.484375 51.125 
Q 46.484375 57.671875 42.71875 61.234375 
Q 38.96875 64.796875 32.078125 64.796875 
z
M 9.8125 72.90625 
L 32.078125 72.90625 
Q 44.34375 72.90625 50.609375 67.359375 
Q 56.890625 61.8125 56.890625 51.125 
Q 56.890625 40.328125 50.609375 34.8125 
Q 44.34375 29.296875 32.078125 29.296875 
L 19.671875 29.296875 
L 19.671875 0 
L 9.8125 0 
z
" id="DejaVuSans-80"/>
       <path d="M -0.296875 72.90625 
L 61.375 72.90625 
L 61.375 64.59375 
L 35.5 64.59375 
L 35.5 0 
L 25.59375 0 
L 25.59375 64.59375 
L -0.296875 64.59375 
z
" id="DejaVuSans-84"/>
       <path d="M 59.515625 10.40625 
L 59.515625 29.984375 
L 43.40625 29.984375 
L 43.40625 38.09375 
L 69.28125 38.09375 
L 69.28125 6.78125 
Q 63.578125 2.734375 56.6875 0.65625 
Q 49.8125 -1.421875 42 -1.421875 
Q 24.90625 -1.421875 15.25 8.5625 
Q 5.609375 18.5625 5.609375 36.375 
Q 5.609375 54.25 15.25 64.234375 
Q 24.90625 74.21875 42 74.21875 
Q 49.125 74.21875 55.546875 72.453125 
Q 61.96875 70.703125 67.390625 67.28125 
L 67.390625 56.78125 
Q 61.921875 61.421875 55.765625 63.765625 
Q 49.609375 66.109375 42.828125 66.109375 
Q 29.4375 66.109375 22.71875 58.640625 
Q 16.015625 51.171875 16.015625 36.375 
Q 16.015625 21.625 22.71875 14.15625 
Q 29.4375 6.6875 42.828125 6.6875 
Q 48.046875 6.6875 52.140625 7.59375 
Q 56.25 8.5 59.515625 10.40625 
z
" id="DejaVuSans-71"/>
       <path d="M 53.515625 70.515625 
L 53.515625 60.890625 
Q 47.90625 63.578125 42.921875 64.890625 
Q 37.9375 66.21875 33.296875 66.21875 
Q 25.25 66.21875 20.875 63.09375 
Q 16.5 59.96875 16.5 54.203125 
Q 16.5 49.359375 19.40625 46.890625 
Q 22.3125 44.4375 30.421875 42.921875 
L 36.375 41.703125 
Q 47.40625 39.59375 52.65625 34.296875 
Q 57.90625 29 57.90625 20.125 
Q 57.90625 9.515625 50.796875 4.046875 
Q 43.703125 -1.421875 29.984375 -1.421875 
Q 24.8125 -1.421875 18.96875 -0.25 
Q 13.140625 0.921875 6.890625 3.21875 
L 6.890625 13.375 
Q 12.890625 10.015625 18.65625 8.296875 
Q 24.421875 6.59375 29.984375 6.59375 
Q 38.421875 6.59375 43.015625 9.90625 
Q 47.609375 13.234375 47.609375 19.390625 
Q 47.609375 24.75 44.3125 27.78125 
Q 41.015625 30.8125 33.5 32.328125 
L 27.484375 33.5 
Q 16.453125 35.6875 11.515625 40.375 
Q 6.59375 45.0625 6.59375 53.421875 
Q 6.59375 63.09375 13.40625 68.65625 
Q 20.21875 74.21875 32.171875 74.21875 
Q 37.3125 74.21875 42.625 73.28125 
Q 47.953125 72.359375 53.515625 70.515625 
z
" id="DejaVuSans-83"/>
      </defs>
      <use xlink:href="#DejaVuSans-80"/>
      <use x="60.302734" xlink:href="#DejaVuSans-84"/>
      <use x="121.386719" xlink:href="#DejaVuSans-71"/>
      <use x="198.876953" xlink:href="#DejaVuSans-83"/>
      <use x="262.353516" xlink:href="#DejaVuSans-50"/>
     </g>
    </g>
   </g>
   <g id="text_4">
    <g clip-path="url(#p3f46760331)">
     <!-- HSPB1 -->
     <g transform="translate(352.384436 193.310237)scale(0.1 -0.1)">
      <defs>
       <path d="M 9.8125 72.90625 
L 19.671875 72.90625 
L 19.671875 43.015625 
L 55.515625 43.015625 
L 55.515625 72.90625 
L 65.375 72.90625 
L 65.375 0 
L 55.515625 0 
L 55.515625 34.71875 
L 19.671875 34.71875 
L 19.671875 0 
L 9.8125 0 
z
" id="DejaVuSans-72"/>
       <path d="M 19.671875 34.8125 
L 19.671875 8.109375 
L 35.5 8.109375 
Q 43.453125 8.109375 47.28125 11.40625 
Q 51.125 14.703125 51.125 21.484375 
Q 51.125 28.328125 47.28125 31.5625 
Q 43.453125 34.8125 35.5 34.8125 
z
M 19.671875 64.796875 
L 19.671875 42.828125 
L 34.28125 42.828125 
Q 41.5 42.828125 45.03125 45.53125 
Q 48.578125 48.25 48.578125 53.8125 
Q 48.578125 59.328125 45.03125 62.0625 
Q 41.5 64.796875 34.28125 64.796875 
z
M 9.8125 72.90625 
L 35.015625 72.90625 
Q 46.296875 72.90625 52.390625 68.21875 
Q 58.5 63.53125 58.5 54.890625 
Q 58.5 48.1875 55.375 44.234375 
Q 52.25 40.28125 46.1875 39.3125 
Q 53.46875 37.75 57.5 32.78125 
Q 61.53125 27.828125 61.53125 20.40625 
Q 61.53125 10.640625 54.890625 5.3125 
Q 48.25 0 35.984375 0 
L 9.8125 0 
z
" id="DejaVuSans-66"/>
       <path d="M 12.40625 8.296875 
L 28.515625 8.296875 
L 28.515625 63.921875 
L 10.984375 60.40625 
L 10.984375 69.390625 
L 28.421875 72.90625 
L 38.28125 72.90625 
L 38.28125 8.296875 
L 54.390625 8.296875 
L 54.390625 0 
L 12.40625 0 
z
" id="DejaVuSans-49"/>
      </defs>
      <use xlink:href="#DejaVuSans-72"/>
      <use x="75.195312" xlink:href="#DejaVuSans-83"/>
      <use x="138.671875" xlink:href="#DejaVuSans-80"/>
      <use x="198.974609" xlink:href="#DejaVuSans-66"/>
      <use x="267.578125" xlink:href="#DejaVuSans-49"/>
     </g>
    </g>
   </g>
   <g id="text_5">
    <g clip-path="url(#p3f46760331)">
     <!-- NFATC2 -->
     <g transform="translate(390.943218 497.356114)scale(0.1 -0.1)">
      <defs>
       <path d="M 9.8125 72.90625 
L 23.09375 72.90625 
L 55.421875 11.921875 
L 55.421875 72.90625 
L 64.984375 72.90625 
L 64.984375 0 
L 51.703125 0 
L 19.390625 60.984375 
L 19.390625 0 
L 9.8125 0 
z
" id="DejaVuSans-78"/>
       <path d="M 9.8125 72.90625 
L 51.703125 72.90625 
L 51.703125 64.59375 
L 19.671875 64.59375 
L 19.671875 43.109375 
L 48.578125 43.109375 
L 48.578125 34.8125 
L 19.671875 34.8125 
L 19.671875 0 
L 9.8125 0 
z
" id="DejaVuSans-70"/>
       <path d="M 34.1875 63.1875 
L 20.796875 26.90625 
L 47.609375 26.90625 
z
M 28.609375 72.90625 
L 39.796875 72.90625 
L 67.578125 0 
L 57.328125 0 
L 50.6875 18.703125 
L 17.828125 18.703125 
L 11.1875 0 
L 0.78125 0 
z
" id="DejaVuSans-65"/>
      </defs>
      <use xlink:href="#DejaVuSans-78"/>
      <use x="74.804688" xlink:href="#DejaVuSans-70"/>
      <use x="123.199219" xlink:href="#DejaVuSans-65"/>
      <use x="183.857422" xlink:href="#DejaVuSans-84"/>
      <use x="239.066406" xlink:href="#DejaVuSans-67"/>
      <use x="308.890625" xlink:href="#DejaVuSans-50"/>
     </g>
    </g>
   </g>
   <g id="text_6">
    <g clip-path="url(#p3f46760331)">
     <!-- PTK2 -->
     <g transform="translate(946.796714 455.409319)scale(0.1 -0.1)">
      <use xlink:href="#DejaVuSans-80"/>
      <use x="60.302734" xlink:href="#DejaVuSans-84"/>
      <use x="121.386719" xlink:href="#DejaVuSans-75"/>
      <use x="186.962891" xlink:href="#DejaVuSans-50"/>
     </g>
    </g>
   </g>
   <g id="text_7">
    <g clip-path="url(#p3f46760331)">
     <!-- PXN -->
     <g transform="translate(850.458572 213.191332)scale(0.1 -0.1)">
      <defs>
       <path d="M 6.296875 72.90625 
L 16.890625 72.90625 
L 35.015625 45.796875 
L 53.21875 72.90625 
L 63.8125 72.90625 
L 40.375 37.890625 
L 65.375 0 
L 54.78125 0 
L 34.28125 31 
L 13.625 0 
L 2.984375 0 
L 29 38.921875 
z
" id="DejaVuSans-88"/>
      </defs>
      <use xlink:href="#DejaVuSans-80"/>
      <use x="60.302734" xlink:href="#DejaVuSans-88"/>
      <use x="128.808594" xlink:href="#DejaVuSans-78"/>
     </g>
    </g>
   </g>
   <g id="text_8">
    <g clip-path="url(#p3f46760331)">
     <!-- SH2D2A -->
     <g transform="translate(686.347272 694.553375)scale(0.1 -0.1)">
      <use xlink:href="#DejaVuSans-83"/>
      <use x="63.476562" xlink:href="#DejaVuSans-72"/>
      <use x="138.671875" xlink:href="#DejaVuSans-50"/>
      <use x="202.294922" xlink:href="#DejaVuSans-68"/>
      <use x="279.296875" xlink:href="#DejaVuSans-50"/>
      <use x="342.919922" xlink:href="#DejaVuSans-65"/>
     </g>
    </g>
   </g>
   <g id="text_9">
    <g clip-path="url(#p3f46760331)">
     <!-- SRC -->
     <g transform="translate(735.645379 210.308226)scale(0.1 -0.1)">
      <use xlink:href="#DejaVuSans-83"/>
      <use x="63.476562" xlink:href="#DejaVuSans-82"/>
      <use x="127.958984" xlink:href="#DejaVuSans-67"/>
     </g>
    </g>
   </g>
   <g id="text_10">
    <g clip-path="url(#p3f46760331)">
     <!-- SHC2 -->
     <g transform="translate(900.059741 293.182674)scale(0.1 -0.1)">
      <use xlink:href="#DejaVuSans-83"/>
      <use x="63.476562" xlink:href="#DejaVuSans-72"/>
      <use x="138.671875" xlink:href="#DejaVuSans-67"/>
      <use x="208.496094" xlink:href="#DejaVuSans-50"/>
     </g>
    </g>
   </g>
   <g id="text_11">
    <g clip-path="url(#p3f46760331)">
     <!-- VEGFA -->
     <g transform="translate(917.09283 550.272367)scale(0.1 -0.1)">
      <defs>
       <path d="M 28.609375 0 
L 0.78125 72.90625 
L 11.078125 72.90625 
L 34.1875 11.53125 
L 57.328125 72.90625 
L 67.578125 72.90625 
L 39.796875 0 
z
" id="DejaVuSans-86"/>
       <path d="M 9.8125 72.90625 
L 55.90625 72.90625 
L 55.90625 64.59375 
L 19.671875 64.59375 
L 19.671875 43.015625 
L 54.390625 43.015625 
L 54.390625 34.71875 
L 19.671875 34.71875 
L 19.671875 8.296875 
L 56.78125 8.296875 
L 56.78125 0 
L 9.8125 0 
z
" id="DejaVuSans-69"/>
      </defs>
      <use xlink:href="#DejaVuSans-86"/>
      <use x="68.408203" xlink:href="#DejaVuSans-69"/>
      <use x="131.591797" xlink:href="#DejaVuSans-71"/>
      <use x="209.082031" xlink:href="#DejaVuSans-70"/>
      <use x="257.476562" xlink:href="#DejaVuSans-65"/>
     </g>
    </g>
   </g>
   <g id="text_12">
    <g clip-path="url(#p3f46760331)">
     <!-- RAF1 -->
     <g transform="translate(482.733565 454.12254)scale(0.1 -0.1)">
      <use xlink:href="#DejaVuSans-82"/>
      <use x="65.482422" xlink:href="#DejaVuSans-65"/>
      <use x="133.890625" xlink:href="#DejaVuSans-70"/>
      <use x="191.410156" xlink:href="#DejaVuSans-49"/>
     </g>
    </g>
   </g>
   <g id="text_13">
    <g clip-path="url(#p3f46760331)">
     <!-- NOS3 -->
     <g transform="translate(514.451709 164.170284)scale(0.1 -0.1)">
      <defs>
       <path d="M 39.40625 66.21875 
Q 28.65625 66.21875 22.328125 58.203125 
Q 16.015625 50.203125 16.015625 36.375 
Q 16.015625 22.609375 22.328125 14.59375 
Q 28.65625 6.59375 39.40625 6.59375 
Q 50.140625 6.59375 56.421875 14.59375 
Q 62.703125 22.609375 62.703125 36.375 
Q 62.703125 50.203125 56.421875 58.203125 
Q 50.140625 66.21875 39.40625 66.21875 
z
M 39.40625 74.21875 
Q 54.734375 74.21875 63.90625 63.9375 
Q 73.09375 53.65625 73.09375 36.375 
Q 73.09375 19.140625 63.90625 8.859375 
Q 54.734375 -1.421875 39.40625 -1.421875 
Q 24.03125 -1.421875 14.8125 8.828125 
Q 5.609375 19.09375 5.609375 36.375 
Q 5.609375 53.65625 14.8125 63.9375 
Q 24.03125 74.21875 39.40625 74.21875 
z
" id="DejaVuSans-79"/>
       <path d="M 40.578125 39.3125 
Q 47.65625 37.796875 51.625 33 
Q 55.609375 28.21875 55.609375 21.1875 
Q 55.609375 10.40625 48.1875 4.484375 
Q 40.765625 -1.421875 27.09375 -1.421875 
Q 22.515625 -1.421875 17.65625 -0.515625 
Q 12.796875 0.390625 7.625 2.203125 
L 7.625 11.71875 
Q 11.71875 9.328125 16.59375 8.109375 
Q 21.484375 6.890625 26.8125 6.890625 
Q 36.078125 6.890625 40.9375 10.546875 
Q 45.796875 14.203125 45.796875 21.1875 
Q 45.796875 27.640625 41.28125 31.265625 
Q 36.765625 34.90625 28.71875 34.90625 
L 20.21875 34.90625 
L 20.21875 43.015625 
L 29.109375 43.015625 
Q 36.375 43.015625 40.234375 45.921875 
Q 44.09375 48.828125 44.09375 54.296875 
Q 44.09375 59.90625 40.109375 62.90625 
Q 36.140625 65.921875 28.71875 65.921875 
Q 24.65625 65.921875 20.015625 65.03125 
Q 15.375 64.15625 9.8125 62.3125 
L 9.8125 71.09375 
Q 15.4375 72.65625 20.34375 73.4375 
Q 25.25 74.21875 29.59375 74.21875 
Q 40.828125 74.21875 47.359375 69.109375 
Q 53.90625 64.015625 53.90625 55.328125 
Q 53.90625 49.265625 50.4375 45.09375 
Q 46.96875 40.921875 40.578125 39.3125 
z
" id="DejaVuSans-51"/>
      </defs>
      <use xlink:href="#DejaVuSans-78"/>
      <use x="74.804688" xlink:href="#DejaVuSans-79"/>
      <use x="153.515625" xlink:href="#DejaVuSans-83"/>
      <use x="216.992188" xlink:href="#DejaVuSans-51"/>
     </g>
    </g>
   </g>
   <g id="text_14">
    <g clip-path="url(#p3f46760331)">
     <!-- PLCG1 -->
     <g transform="translate(503.059603 419.094792)scale(0.1 -0.1)">
      <defs>
       <path d="M 9.8125 72.90625 
L 19.671875 72.90625 
L 19.671875 8.296875 
L 55.171875 8.296875 
L 55.171875 0 
L 9.8125 0 
z
" id="DejaVuSans-76"/>
      </defs>
      <use xlink:href="#DejaVuSans-80"/>
      <use x="60.302734" xlink:href="#DejaVuSans-76"/>
      <use x="116.015625" xlink:href="#DejaVuSans-67"/>
      <use x="185.839844" xlink:href="#DejaVuSans-71"/>
      <use x="263.330078" xlink:href="#DejaVuSans-49"/>
     </g>
    </g>
   </g>
   <g id="text_15">
    <g clip-path="url(#p3f46760331)">
     <!-- PLCG2 -->
     <g transform="translate(484.561403 390.709365)scale(0.1 -0.1)">
      <use xlink:href="#DejaVuSans-80"/>
      <use x="60.302734" xlink:href="#DejaVuSans-76"/>
      <use x="116.015625" xlink:href="#DejaVuSans-67"/>
      <use x="185.839844" xlink:href="#DejaVuSans-71"/>
      <use x="263.330078" xlink:href="#DejaVuSans-50"/>
     </g>
    </g>
   </g>
   <g id="text_16">
    <g clip-path="url(#p3f46760331)">
     <!-- MAPKAPK2 -->
     <g transform="translate(616.855326 444.494943)scale(0.1 -0.1)">
      <defs>
       <path d="M 9.8125 72.90625 
L 24.515625 72.90625 
L 43.109375 23.296875 
L 61.8125 72.90625 
L 76.515625 72.90625 
L 76.515625 0 
L 66.890625 0 
L 66.890625 64.015625 
L 48.09375 14.015625 
L 38.1875 14.015625 
L 19.390625 64.015625 
L 19.390625 0 
L 9.8125 0 
z
" id="DejaVuSans-77"/>
      </defs>
      <use xlink:href="#DejaVuSans-77"/>
      <use x="86.279297" xlink:href="#DejaVuSans-65"/>
      <use x="154.6875" xlink:href="#DejaVuSans-80"/>
      <use x="214.990234" xlink:href="#DejaVuSans-75"/>
      <use x="278.816406" xlink:href="#DejaVuSans-65"/>
      <use x="347.224609" xlink:href="#DejaVuSans-80"/>
      <use x="407.527344" xlink:href="#DejaVuSans-75"/>
      <use x="473.103516" xlink:href="#DejaVuSans-50"/>
     </g>
    </g>
   </g>
   <g id="text_17">
    <g clip-path="url(#p3f46760331)">
     <!-- MAPKAPK3 -->
     <g transform="translate(580.95872 165.350857)scale(0.1 -0.1)">
      <use xlink:href="#DejaVuSans-77"/>
      <use x="86.279297" xlink:href="#DejaVuSans-65"/>
      <use x="154.6875" xlink:href="#DejaVuSans-80"/>
      <use x="214.990234" xlink:href="#DejaVuSans-75"/>
      <use x="278.816406" xlink:href="#DejaVuSans-65"/>
      <use x="347.224609" xlink:href="#DejaVuSans-80"/>
      <use x="407.527344" xlink:href="#DejaVuSans-75"/>
      <use x="473.103516" xlink:href="#DejaVuSans-51"/>
     </g>
    </g>
   </g>
   <g id="text_18">
    <g clip-path="url(#p3f46760331)">
     <!-- PRKCA -->
     <g transform="translate(749.99762 373.104832)scale(0.1 -0.1)">
      <use xlink:href="#DejaVuSans-80"/>
      <use x="60.302734" xlink:href="#DejaVuSans-82"/>
      <use x="129.785156" xlink:href="#DejaVuSans-75"/>
      <use x="189.861328" xlink:href="#DejaVuSans-67"/>
      <use x="259.685547" xlink:href="#DejaVuSans-65"/>
     </g>
    </g>
   </g>
   <g id="text_19">
    <g clip-path="url(#p3f46760331)">
     <!-- PRKCB -->
     <g transform="translate(208.333194 443.734119)scale(0.1 -0.1)">
      <use xlink:href="#DejaVuSans-80"/>
      <use x="60.302734" xlink:href="#DejaVuSans-82"/>
      <use x="129.785156" xlink:href="#DejaVuSans-75"/>
      <use x="189.861328" xlink:href="#DejaVuSans-67"/>
      <use x="259.685547" xlink:href="#DejaVuSans-66"/>
     </g>
    </g>
   </g>
   <g id="text_20">
    <g clip-path="url(#p3f46760331)">
     <!-- PRKCG -->
     <g transform="translate(204.615786 361.835)scale(0.1 -0.1)">
      <use xlink:href="#DejaVuSans-80"/>
      <use x="60.302734" xlink:href="#DejaVuSans-82"/>
      <use x="129.785156" xlink:href="#DejaVuSans-75"/>
      <use x="189.861328" xlink:href="#DejaVuSans-67"/>
      <use x="259.685547" xlink:href="#DejaVuSans-71"/>
     </g>
    </g>
   </g>
   <g id="text_21">
    <g clip-path="url(#p3f46760331)">
     <!-- MAP2K1 -->
     <g transform="translate(777.139034 635.358387)scale(0.1 -0.1)">
      <use xlink:href="#DejaVuSans-77"/>
      <use x="86.279297" xlink:href="#DejaVuSans-65"/>
      <use x="154.6875" xlink:href="#DejaVuSans-80"/>
      <use x="214.990234" xlink:href="#DejaVuSans-50"/>
      <use x="278.613281" xlink:href="#DejaVuSans-75"/>
      <use x="344.189453" xlink:href="#DejaVuSans-49"/>
     </g>
    </g>
   </g>
   <g id="text_22">
    <g clip-path="url(#p3f46760331)">
     <!-- MAP2K2 -->
     <g transform="translate(239.110307 588.04867)scale(0.1 -0.1)">
      <use xlink:href="#DejaVuSans-77"/>
      <use x="86.279297" xlink:href="#DejaVuSans-65"/>
      <use x="154.6875" xlink:href="#DejaVuSans-80"/>
      <use x="214.990234" xlink:href="#DejaVuSans-50"/>
      <use x="278.613281" xlink:href="#DejaVuSans-75"/>
      <use x="344.189453" xlink:href="#DejaVuSans-50"/>
     </g>
    </g>
   </g>
   <g id="text_23">
    <g clip-path="url(#p3f46760331)">
     <!-- HRAS -->
     <g transform="translate(330.016489 651.571538)scale(0.1 -0.1)">
      <use xlink:href="#DejaVuSans-72"/>
      <use x="75.195312" xlink:href="#DejaVuSans-82"/>
      <use x="140.677734" xlink:href="#DejaVuSans-65"/>
      <use x="209.085938" xlink:href="#DejaVuSans-83"/>
     </g>
    </g>
   </g>
   <g id="text_24">
    <g clip-path="url(#p3f46760331)">
     <!-- KRAS -->
     <g transform="translate(262.761188 287.964265)scale(0.1 -0.1)">
      <use xlink:href="#DejaVuSans-75"/>
      <use x="65.576172" xlink:href="#DejaVuSans-82"/>
      <use x="131.058594" xlink:href="#DejaVuSans-65"/>
      <use x="199.466797" xlink:href="#DejaVuSans-83"/>
     </g>
    </g>
   </g>
   <g id="text_25">
    <g clip-path="url(#p3f46760331)">
     <!-- NRAS -->
     <g transform="translate(269.736222 517.12202)scale(0.1 -0.1)">
      <use xlink:href="#DejaVuSans-78"/>
      <use x="74.804688" xlink:href="#DejaVuSans-82"/>
      <use x="140.287109" xlink:href="#DejaVuSans-65"/>
      <use x="208.695312" xlink:href="#DejaVuSans-83"/>
     </g>
    </g>
   </g>
   <g id="text_26">
    <!-- Importance Score and Relative Abundance for network hsa04370 for dataset george_hiv -->
    <g transform="translate(324.563437 97.68)scale(0.12 -0.12)">
     <defs>
      <path d="M 9.8125 72.90625 
L 19.671875 72.90625 
L 19.671875 0 
L 9.8125 0 
z
" id="DejaVuSans-73"/>
      <path d="M 52 44.1875 
Q 55.375 50.25 60.0625 53.125 
Q 64.75 56 71.09375 56 
Q 79.640625 56 84.28125 50.015625 
Q 88.921875 44.046875 88.921875 33.015625 
L 88.921875 0 
L 79.890625 0 
L 79.890625 32.71875 
Q 79.890625 40.578125 77.09375 44.375 
Q 74.3125 48.1875 68.609375 48.1875 
Q 61.625 48.1875 57.5625 43.546875 
Q 53.515625 38.921875 53.515625 30.90625 
L 53.515625 0 
L 44.484375 0 
L 44.484375 32.71875 
Q 44.484375 40.625 41.703125 44.40625 
Q 38.921875 48.1875 33.109375 48.1875 
Q 26.21875 48.1875 22.15625 43.53125 
Q 18.109375 38.875 18.109375 30.90625 
L 18.109375 0 
L 9.078125 0 
L 9.078125 54.6875 
L 18.109375 54.6875 
L 18.109375 46.1875 
Q 21.1875 51.21875 25.484375 53.609375 
Q 29.78125 56 35.6875 56 
Q 41.65625 56 45.828125 52.96875 
Q 50 49.953125 52 44.1875 
z
" id="DejaVuSans-109"/>
      <path d="M 18.109375 8.203125 
L 18.109375 -20.796875 
L 9.078125 -20.796875 
L 9.078125 54.6875 
L 18.109375 54.6875 
L 18.109375 46.390625 
Q 20.953125 51.265625 25.265625 53.625 
Q 29.59375 56 35.59375 56 
Q 45.5625 56 51.78125 48.09375 
Q 58.015625 40.1875 58.015625 27.296875 
Q 58.015625 14.40625 51.78125 6.484375 
Q 45.5625 -1.421875 35.59375 -1.421875 
Q 29.59375 -1.421875 25.265625 0.953125 
Q 20.953125 3.328125 18.109375 8.203125 
z
M 48.6875 27.296875 
Q 48.6875 37.203125 44.609375 42.84375 
Q 40.53125 48.484375 33.40625 48.484375 
Q 26.265625 48.484375 22.1875 42.84375 
Q 18.109375 37.203125 18.109375 27.296875 
Q 18.109375 17.390625 22.1875 11.75 
Q 26.265625 6.109375 33.40625 6.109375 
Q 40.53125 6.109375 44.609375 11.75 
Q 48.6875 17.390625 48.6875 27.296875 
z
" id="DejaVuSans-112"/>
      <path d="M 30.609375 48.390625 
Q 23.390625 48.390625 19.1875 42.75 
Q 14.984375 37.109375 14.984375 27.296875 
Q 14.984375 17.484375 19.15625 11.84375 
Q 23.34375 6.203125 30.609375 6.203125 
Q 37.796875 6.203125 41.984375 11.859375 
Q 46.1875 17.53125 46.1875 27.296875 
Q 46.1875 37.015625 41.984375 42.703125 
Q 37.796875 48.390625 30.609375 48.390625 
z
M 30.609375 56 
Q 42.328125 56 49.015625 48.375 
Q 55.71875 40.765625 55.71875 27.296875 
Q 55.71875 13.875 49.015625 6.21875 
Q 42.328125 -1.421875 30.609375 -1.421875 
Q 18.84375 -1.421875 12.171875 6.21875 
Q 5.515625 13.875 5.515625 27.296875 
Q 5.515625 40.765625 12.171875 48.375 
Q 18.84375 56 30.609375 56 
z
" id="DejaVuSans-111"/>
      <path d="M 41.109375 46.296875 
Q 39.59375 47.171875 37.8125 47.578125 
Q 36.03125 48 33.890625 48 
Q 26.265625 48 22.1875 43.046875 
Q 18.109375 38.09375 18.109375 28.8125 
L 18.109375 0 
L 9.078125 0 
L 9.078125 54.6875 
L 18.109375 54.6875 
L 18.109375 46.1875 
Q 20.953125 51.171875 25.484375 53.578125 
Q 30.03125 56 36.53125 56 
Q 37.453125 56 38.578125 55.875 
Q 39.703125 55.765625 41.0625 55.515625 
z
" id="DejaVuSans-114"/>
      <path d="M 18.3125 70.21875 
L 18.3125 54.6875 
L 36.8125 54.6875 
L 36.8125 47.703125 
L 18.3125 47.703125 
L 18.3125 18.015625 
Q 18.3125 11.328125 20.140625 9.421875 
Q 21.96875 7.515625 27.59375 7.515625 
L 36.8125 7.515625 
L 36.8125 0 
L 27.59375 0 
Q 17.1875 0 13.234375 3.875 
Q 9.28125 7.765625 9.28125 18.015625 
L 9.28125 47.703125 
L 2.6875 47.703125 
L 2.6875 54.6875 
L 9.28125 54.6875 
L 9.28125 70.21875 
z
" id="DejaVuSans-116"/>
      <path d="M 34.28125 27.484375 
Q 23.390625 27.484375 19.1875 25 
Q 14.984375 22.515625 14.984375 16.5 
Q 14.984375 11.71875 18.140625 8.90625 
Q 21.296875 6.109375 26.703125 6.109375 
Q 34.1875 6.109375 38.703125 11.40625 
Q 43.21875 16.703125 43.21875 25.484375 
L 43.21875 27.484375 
z
M 52.203125 31.203125 
L 52.203125 0 
L 43.21875 0 
L 43.21875 8.296875 
Q 40.140625 3.328125 35.546875 0.953125 
Q 30.953125 -1.421875 24.3125 -1.421875 
Q 15.921875 -1.421875 10.953125 3.296875 
Q 6 8.015625 6 15.921875 
Q 6 25.140625 12.171875 29.828125 
Q 18.359375 34.515625 30.609375 34.515625 
L 43.21875 34.515625 
L 43.21875 35.40625 
Q 43.21875 41.609375 39.140625 45 
Q 35.0625 48.390625 27.6875 48.390625 
Q 23 48.390625 18.546875 47.265625 
Q 14.109375 46.140625 10.015625 43.890625 
L 10.015625 52.203125 
Q 14.9375 54.109375 19.578125 55.046875 
Q 24.21875 56 28.609375 56 
Q 40.484375 56 46.34375 49.84375 
Q 52.203125 43.703125 52.203125 31.203125 
z
" id="DejaVuSans-97"/>
      <path d="M 54.890625 33.015625 
L 54.890625 0 
L 45.90625 0 
L 45.90625 32.71875 
Q 45.90625 40.484375 42.875 44.328125 
Q 39.84375 48.1875 33.796875 48.1875 
Q 26.515625 48.1875 22.3125 43.546875 
Q 18.109375 38.921875 18.109375 30.90625 
L 18.109375 0 
L 9.078125 0 
L 9.078125 54.6875 
L 18.109375 54.6875 
L 18.109375 46.1875 
Q 21.34375 51.125 25.703125 53.5625 
Q 30.078125 56 35.796875 56 
Q 45.21875 56 50.046875 50.171875 
Q 54.890625 44.34375 54.890625 33.015625 
z
" id="DejaVuSans-110"/>
      <path d="M 48.78125 52.59375 
L 48.78125 44.1875 
Q 44.96875 46.296875 41.140625 47.34375 
Q 37.3125 48.390625 33.40625 48.390625 
Q 24.65625 48.390625 19.8125 42.84375 
Q 14.984375 37.3125 14.984375 27.296875 
Q 14.984375 17.28125 19.8125 11.734375 
Q 24.65625 6.203125 33.40625 6.203125 
Q 37.3125 6.203125 41.140625 7.25 
Q 44.96875 8.296875 48.78125 10.40625 
L 48.78125 2.09375 
Q 45.015625 0.34375 40.984375 -0.53125 
Q 36.96875 -1.421875 32.421875 -1.421875 
Q 20.0625 -1.421875 12.78125 6.34375 
Q 5.515625 14.109375 5.515625 27.296875 
Q 5.515625 40.671875 12.859375 48.328125 
Q 20.21875 56 33.015625 56 
Q 37.15625 56 41.109375 55.140625 
Q 45.0625 54.296875 48.78125 52.59375 
z
" id="DejaVuSans-99"/>
      <path d="M 56.203125 29.59375 
L 56.203125 25.203125 
L 14.890625 25.203125 
Q 15.484375 15.921875 20.484375 11.0625 
Q 25.484375 6.203125 34.421875 6.203125 
Q 39.59375 6.203125 44.453125 7.46875 
Q 49.3125 8.734375 54.109375 11.28125 
L 54.109375 2.78125 
Q 49.265625 0.734375 44.1875 -0.34375 
Q 39.109375 -1.421875 33.890625 -1.421875 
Q 20.796875 -1.421875 13.15625 6.1875 
Q 5.515625 13.8125 5.515625 26.8125 
Q 5.515625 40.234375 12.765625 48.109375 
Q 20.015625 56 32.328125 56 
Q 43.359375 56 49.78125 48.890625 
Q 56.203125 41.796875 56.203125 29.59375 
z
M 47.21875 32.234375 
Q 47.125 39.59375 43.09375 43.984375 
Q 39.0625 48.390625 32.421875 48.390625 
Q 24.90625 48.390625 20.390625 44.140625 
Q 15.875 39.890625 15.1875 32.171875 
z
" id="DejaVuSans-101"/>
      <path id="DejaVuSans-32"/>
      <path d="M 45.40625 46.390625 
L 45.40625 75.984375 
L 54.390625 75.984375 
L 54.390625 0 
L 45.40625 0 
L 45.40625 8.203125 
Q 42.578125 3.328125 38.25 0.953125 
Q 33.9375 -1.421875 27.875 -1.421875 
Q 17.96875 -1.421875 11.734375 6.484375 
Q 5.515625 14.40625 5.515625 27.296875 
Q 5.515625 40.1875 11.734375 48.09375 
Q 17.96875 56 27.875 56 
Q 33.9375 56 38.25 53.625 
Q 42.578125 51.265625 45.40625 46.390625 
z
M 14.796875 27.296875 
Q 14.796875 17.390625 18.875 11.75 
Q 22.953125 6.109375 30.078125 6.109375 
Q 37.203125 6.109375 41.296875 11.75 
Q 45.40625 17.390625 45.40625 27.296875 
Q 45.40625 37.203125 41.296875 42.84375 
Q 37.203125 48.484375 30.078125 48.484375 
Q 22.953125 48.484375 18.875 42.84375 
Q 14.796875 37.203125 14.796875 27.296875 
z
" id="DejaVuSans-100"/>
      <path d="M 9.421875 75.984375 
L 18.40625 75.984375 
L 18.40625 0 
L 9.421875 0 
z
" id="DejaVuSans-108"/>
      <path d="M 9.421875 54.6875 
L 18.40625 54.6875 
L 18.40625 0 
L 9.421875 0 
z
M 9.421875 75.984375 
L 18.40625 75.984375 
L 18.40625 64.59375 
L 9.421875 64.59375 
z
" id="DejaVuSans-105"/>
      <path d="M 2.984375 54.6875 
L 12.5 54.6875 
L 29.59375 8.796875 
L 46.6875 54.6875 
L 56.203125 54.6875 
L 35.6875 0 
L 23.484375 0 
z
" id="DejaVuSans-118"/>
      <path d="M 48.6875 27.296875 
Q 48.6875 37.203125 44.609375 42.84375 
Q 40.53125 48.484375 33.40625 48.484375 
Q 26.265625 48.484375 22.1875 42.84375 
Q 18.109375 37.203125 18.109375 27.296875 
Q 18.109375 17.390625 22.1875 11.75 
Q 26.265625 6.109375 33.40625 6.109375 
Q 40.53125 6.109375 44.609375 11.75 
Q 48.6875 17.390625 48.6875 27.296875 
z
M 18.109375 46.390625 
Q 20.953125 51.265625 25.265625 53.625 
Q 29.59375 56 35.59375 56 
Q 45.5625 56 51.78125 48.09375 
Q 58.015625 40.1875 58.015625 27.296875 
Q 58.015625 14.40625 51.78125 6.484375 
Q 45.5625 -1.421875 35.59375 -1.421875 
Q 29.59375 -1.421875 25.265625 0.953125 
Q 20.953125 3.328125 18.109375 8.203125 
L 18.109375 0 
L 9.078125 0 
L 9.078125 75.984375 
L 18.109375 75.984375 
z
" id="DejaVuSans-98"/>
      <path d="M 8.5 21.578125 
L 8.5 54.6875 
L 17.484375 54.6875 
L 17.484375 21.921875 
Q 17.484375 14.15625 20.5 10.265625 
Q 23.53125 6.390625 29.59375 6.390625 
Q 36.859375 6.390625 41.078125 11.03125 
Q 45.3125 15.671875 45.3125 23.6875 
L 45.3125 54.6875 
L 54.296875 54.6875 
L 54.296875 0 
L 45.3125 0 
L 45.3125 8.40625 
Q 42.046875 3.421875 37.71875 1 
Q 33.40625 -1.421875 27.6875 -1.421875 
Q 18.265625 -1.421875 13.375 4.4375 
Q 8.5 10.296875 8.5 21.578125 
z
M 31.109375 56 
z
" id="DejaVuSans-117"/>
      <path d="M 37.109375 75.984375 
L 37.109375 68.5 
L 28.515625 68.5 
Q 23.6875 68.5 21.796875 66.546875 
Q 19.921875 64.59375 19.921875 59.515625 
L 19.921875 54.6875 
L 34.71875 54.6875 
L 34.71875 47.703125 
L 19.921875 47.703125 
L 19.921875 0 
L 10.890625 0 
L 10.890625 47.703125 
L 2.296875 47.703125 
L 2.296875 54.6875 
L 10.890625 54.6875 
L 10.890625 58.5 
Q 10.890625 67.625 15.140625 71.796875 
Q 19.390625 75.984375 28.609375 75.984375 
z
" id="DejaVuSans-102"/>
      <path d="M 4.203125 54.6875 
L 13.1875 54.6875 
L 24.421875 12.015625 
L 35.59375 54.6875 
L 46.1875 54.6875 
L 57.421875 12.015625 
L 68.609375 54.6875 
L 77.59375 54.6875 
L 63.28125 0 
L 52.6875 0 
L 40.921875 44.828125 
L 29.109375 0 
L 18.5 0 
z
" id="DejaVuSans-119"/>
      <path d="M 9.078125 75.984375 
L 18.109375 75.984375 
L 18.109375 31.109375 
L 44.921875 54.6875 
L 56.390625 54.6875 
L 27.390625 29.109375 
L 57.625 0 
L 45.90625 0 
L 18.109375 26.703125 
L 18.109375 0 
L 9.078125 0 
z
" id="DejaVuSans-107"/>
      <path d="M 54.890625 33.015625 
L 54.890625 0 
L 45.90625 0 
L 45.90625 32.71875 
Q 45.90625 40.484375 42.875 44.328125 
Q 39.84375 48.1875 33.796875 48.1875 
Q 26.515625 48.1875 22.3125 43.546875 
Q 18.109375 38.921875 18.109375 30.90625 
L 18.109375 0 
L 9.078125 0 
L 9.078125 75.984375 
L 18.109375 75.984375 
L 18.109375 46.1875 
Q 21.34375 51.125 25.703125 53.5625 
Q 30.078125 56 35.796875 56 
Q 45.21875 56 50.046875 50.171875 
Q 54.890625 44.34375 54.890625 33.015625 
z
" id="DejaVuSans-104"/>
      <path d="M 44.28125 53.078125 
L 44.28125 44.578125 
Q 40.484375 46.53125 36.375 47.5 
Q 32.28125 48.484375 27.875 48.484375 
Q 21.1875 48.484375 17.84375 46.4375 
Q 14.5 44.390625 14.5 40.28125 
Q 14.5 37.15625 16.890625 35.375 
Q 19.28125 33.59375 26.515625 31.984375 
L 29.59375 31.296875 
Q 39.15625 29.25 43.1875 25.515625 
Q 47.21875 21.78125 47.21875 15.09375 
Q 47.21875 7.46875 41.1875 3.015625 
Q 35.15625 -1.421875 24.609375 -1.421875 
Q 20.21875 -1.421875 15.453125 -0.5625 
Q 10.6875 0.296875 5.421875 2 
L 5.421875 11.28125 
Q 10.40625 8.6875 15.234375 7.390625 
Q 20.0625 6.109375 24.8125 6.109375 
Q 31.15625 6.109375 34.5625 8.28125 
Q 37.984375 10.453125 37.984375 14.40625 
Q 37.984375 18.0625 35.515625 20.015625 
Q 33.0625 21.96875 24.703125 23.78125 
L 21.578125 24.515625 
Q 13.234375 26.265625 9.515625 29.90625 
Q 5.8125 33.546875 5.8125 39.890625 
Q 5.8125 47.609375 11.28125 51.796875 
Q 16.75 56 26.8125 56 
Q 31.78125 56 36.171875 55.265625 
Q 40.578125 54.546875 44.28125 53.078125 
z
" id="DejaVuSans-115"/>
      <path d="M 31.78125 66.40625 
Q 24.171875 66.40625 20.328125 58.90625 
Q 16.5 51.421875 16.5 36.375 
Q 16.5 21.390625 20.328125 13.890625 
Q 24.171875 6.390625 31.78125 6.390625 
Q 39.453125 6.390625 43.28125 13.890625 
Q 47.125 21.390625 47.125 36.375 
Q 47.125 51.421875 43.28125 58.90625 
Q 39.453125 66.40625 31.78125 66.40625 
z
M 31.78125 74.21875 
Q 44.046875 74.21875 50.515625 64.515625 
Q 56.984375 54.828125 56.984375 36.375 
Q 56.984375 17.96875 50.515625 8.265625 
Q 44.046875 -1.421875 31.78125 -1.421875 
Q 19.53125 -1.421875 13.0625 8.265625 
Q 6.59375 17.96875 6.59375 36.375 
Q 6.59375 54.828125 13.0625 64.515625 
Q 19.53125 74.21875 31.78125 74.21875 
z
" id="DejaVuSans-48"/>
      <path d="M 8.203125 72.90625 
L 55.078125 72.90625 
L 55.078125 68.703125 
L 28.609375 0 
L 18.3125 0 
L 43.21875 64.59375 
L 8.203125 64.59375 
z
" id="DejaVuSans-55"/>
      <path d="M 45.40625 27.984375 
Q 45.40625 37.75 41.375 43.109375 
Q 37.359375 48.484375 30.078125 48.484375 
Q 22.859375 48.484375 18.828125 43.109375 
Q 14.796875 37.75 14.796875 27.984375 
Q 14.796875 18.265625 18.828125 12.890625 
Q 22.859375 7.515625 30.078125 7.515625 
Q 37.359375 7.515625 41.375 12.890625 
Q 45.40625 18.265625 45.40625 27.984375 
z
M 54.390625 6.78125 
Q 54.390625 -7.171875 48.1875 -13.984375 
Q 42 -20.796875 29.203125 -20.796875 
Q 24.46875 -20.796875 20.265625 -20.09375 
Q 16.0625 -19.390625 12.109375 -17.921875 
L 12.109375 -9.1875 
Q 16.0625 -11.328125 19.921875 -12.34375 
Q 23.78125 -13.375 27.78125 -13.375 
Q 36.625 -13.375 41.015625 -8.765625 
Q 45.40625 -4.15625 45.40625 5.171875 
L 45.40625 9.625 
Q 42.625 4.78125 38.28125 2.390625 
Q 33.9375 0 27.875 0 
Q 17.828125 0 11.671875 7.65625 
Q 5.515625 15.328125 5.515625 27.984375 
Q 5.515625 40.671875 11.671875 48.328125 
Q 17.828125 56 27.875 56 
Q 33.9375 56 38.28125 53.609375 
Q 42.625 51.21875 45.40625 46.390625 
L 45.40625 54.6875 
L 54.390625 54.6875 
z
" id="DejaVuSans-103"/>
      <path d="M 50.984375 -16.609375 
L 50.984375 -23.578125 
L -0.984375 -23.578125 
L -0.984375 -16.609375 
z
" id="DejaVuSans-95"/>
     </defs>
     <use xlink:href="#DejaVuSans-73"/>
     <use x="29.492188" xlink:href="#DejaVuSans-109"/>
     <use x="126.904297" xlink:href="#DejaVuSans-112"/>
     <use x="190.380859" xlink:href="#DejaVuSans-111"/>
     <use x="251.5625" xlink:href="#DejaVuSans-114"/>
     <use x="292.675781" xlink:href="#DejaVuSans-116"/>
     <use x="331.884766" xlink:href="#DejaVuSans-97"/>
     <use x="393.164062" xlink:href="#DejaVuSans-110"/>
     <use x="456.542969" xlink:href="#DejaVuSans-99"/>
     <use x="511.523438" xlink:href="#DejaVuSans-101"/>
     <use x="573.046875" xlink:href="#DejaVuSans-32"/>
     <use x="604.833984" xlink:href="#DejaVuSans-83"/>
     <use x="668.310547" xlink:href="#DejaVuSans-99"/>
     <use x="723.291016" xlink:href="#DejaVuSans-111"/>
     <use x="784.472656" xlink:href="#DejaVuSans-114"/>
     <use x="823.335938" xlink:href="#DejaVuSans-101"/>
     <use x="884.859375" xlink:href="#DejaVuSans-32"/>
     <use x="916.646484" xlink:href="#DejaVuSans-97"/>
     <use x="977.925781" xlink:href="#DejaVuSans-110"/>
     <use x="1041.304688" xlink:href="#DejaVuSans-100"/>
     <use x="1104.78125" xlink:href="#DejaVuSans-32"/>
     <use x="1136.568359" xlink:href="#DejaVuSans-82"/>
     <use x="1201.550781" xlink:href="#DejaVuSans-101"/>
     <use x="1263.074219" xlink:href="#DejaVuSans-108"/>
     <use x="1290.857422" xlink:href="#DejaVuSans-97"/>
     <use x="1352.136719" xlink:href="#DejaVuSans-116"/>
     <use x="1391.345703" xlink:href="#DejaVuSans-105"/>
     <use x="1419.128906" xlink:href="#DejaVuSans-118"/>
     <use x="1478.308594" xlink:href="#DejaVuSans-101"/>
     <use x="1539.832031" xlink:href="#DejaVuSans-32"/>
     <use x="1571.619141" xlink:href="#DejaVuSans-65"/>
     <use x="1640.027344" xlink:href="#DejaVuSans-98"/>
     <use x="1703.503906" xlink:href="#DejaVuSans-117"/>
     <use x="1766.882812" xlink:href="#DejaVuSans-110"/>
     <use x="1830.261719" xlink:href="#DejaVuSans-100"/>
     <use x="1893.738281" xlink:href="#DejaVuSans-97"/>
     <use x="1955.017578" xlink:href="#DejaVuSans-110"/>
     <use x="2018.396484" xlink:href="#DejaVuSans-99"/>
     <use x="2073.376953" xlink:href="#DejaVuSans-101"/>
     <use x="2134.900391" xlink:href="#DejaVuSans-32"/>
     <use x="2166.6875" xlink:href="#DejaVuSans-102"/>
     <use x="2201.892578" xlink:href="#DejaVuSans-111"/>
     <use x="2263.074219" xlink:href="#DejaVuSans-114"/>
     <use x="2304.1875" xlink:href="#DejaVuSans-32"/>
     <use x="2335.974609" xlink:href="#DejaVuSans-110"/>
     <use x="2399.353516" xlink:href="#DejaVuSans-101"/>
     <use x="2460.876953" xlink:href="#DejaVuSans-116"/>
     <use x="2500.085938" xlink:href="#DejaVuSans-119"/>
     <use x="2581.873047" xlink:href="#DejaVuSans-111"/>
     <use x="2643.054688" xlink:href="#DejaVuSans-114"/>
     <use x="2684.167969" xlink:href="#DejaVuSans-107"/>
     <use x="2742.078125" xlink:href="#DejaVuSans-32"/>
     <use x="2773.865234" xlink:href="#DejaVuSans-104"/>
     <use x="2837.244141" xlink:href="#DejaVuSans-115"/>
     <use x="2889.34375" xlink:href="#DejaVuSans-97"/>
     <use x="2950.623047" xlink:href="#DejaVuSans-48"/>
     <use x="3014.246094" xlink:href="#DejaVuSans-52"/>
     <use x="3077.869141" xlink:href="#DejaVuSans-51"/>
     <use x="3141.492188" xlink:href="#DejaVuSans-55"/>
     <use x="3205.115234" xlink:href="#DejaVuSans-48"/>
     <use x="3268.738281" xlink:href="#DejaVuSans-32"/>
     <use x="3300.525391" xlink:href="#DejaVuSans-102"/>
     <use x="3335.730469" xlink:href="#DejaVuSans-111"/>
     <use x="3396.912109" xlink:href="#DejaVuSans-114"/>
     <use x="3438.025391" xlink:href="#DejaVuSans-32"/>
     <use x="3469.8125" xlink:href="#DejaVuSans-100"/>
     <use x="3533.289062" xlink:href="#DejaVuSans-97"/>
     <use x="3594.568359" xlink:href="#DejaVuSans-116"/>
     <use x="3633.777344" xlink:href="#DejaVuSans-97"/>
     <use x="3695.056641" xlink:href="#DejaVuSans-115"/>
     <use x="3747.15625" xlink:href="#DejaVuSans-101"/>
     <use x="3808.679688" xlink:href="#DejaVuSans-116"/>
     <use x="3847.888672" xlink:href="#DejaVuSans-32"/>
     <use x="3879.675781" xlink:href="#DejaVuSans-103"/>
     <use x="3943.152344" xlink:href="#DejaVuSans-101"/>
     <use x="4004.675781" xlink:href="#DejaVuSans-111"/>
     <use x="4065.857422" xlink:href="#DejaVuSans-114"/>
     <use x="4105.220703" xlink:href="#DejaVuSans-103"/>
     <use x="4168.697266" xlink:href="#DejaVuSans-101"/>
     <use x="4230.220703" xlink:href="#DejaVuSans-95"/>
     <use x="4280.220703" xlink:href="#DejaVuSans-104"/>
     <use x="4343.599609" xlink:href="#DejaVuSans-105"/>
     <use x="4371.382812" xlink:href="#DejaVuSans-118"/>
    </g>
   </g>
   <g id="legend_1">
    <g id="patch_32">
     <path d="M 786.157812 155.714375 
L 1029.8 155.714375 
Q 1031.8 155.714375 1031.8 153.714375 
L 1031.8 110.68 
Q 1031.8 108.68 1029.8 108.68 
L 786.157812 108.68 
Q 784.157812 108.68 784.157812 110.68 
L 784.157812 153.714375 
Q 784.157812 155.714375 786.157812 155.714375 
z
" style="fill:#ffffff;opacity:0.8;stroke:#cccccc;stroke-linejoin:miter;"/>
    </g>
    <g id="text_27">
     <!-- Relative Expression of HIV compared to Healthy -->
     <g transform="translate(788.157812 120.278437)scale(0.1 -0.1)">
      <defs>
       <path d="M 54.890625 54.6875 
L 35.109375 28.078125 
L 55.90625 0 
L 45.3125 0 
L 29.390625 21.484375 
L 13.484375 0 
L 2.875 0 
L 24.125 28.609375 
L 4.6875 54.6875 
L 15.28125 54.6875 
L 29.78125 35.203125 
L 44.28125 54.6875 
z
" id="DejaVuSans-120"/>
       <path d="M 32.171875 -5.078125 
Q 28.375 -14.84375 24.75 -17.8125 
Q 21.140625 -20.796875 15.09375 -20.796875 
L 7.90625 -20.796875 
L 7.90625 -13.28125 
L 13.1875 -13.28125 
Q 16.890625 -13.28125 18.9375 -11.515625 
Q 21 -9.765625 23.484375 -3.21875 
L 25.09375 0.875 
L 2.984375 54.6875 
L 12.5 54.6875 
L 29.59375 11.921875 
L 46.6875 54.6875 
L 56.203125 54.6875 
z
" id="DejaVuSans-121"/>
      </defs>
      <use xlink:href="#DejaVuSans-82"/>
      <use x="64.982422" xlink:href="#DejaVuSans-101"/>
      <use x="126.505859" xlink:href="#DejaVuSans-108"/>
      <use x="154.289062" xlink:href="#DejaVuSans-97"/>
      <use x="215.568359" xlink:href="#DejaVuSans-116"/>
      <use x="254.777344" xlink:href="#DejaVuSans-105"/>
      <use x="282.560547" xlink:href="#DejaVuSans-118"/>
      <use x="341.740234" xlink:href="#DejaVuSans-101"/>
      <use x="403.263672" xlink:href="#DejaVuSans-32"/>
      <use x="435.050781" xlink:href="#DejaVuSans-69"/>
      <use x="498.234375" xlink:href="#DejaVuSans-120"/>
      <use x="557.414062" xlink:href="#DejaVuSans-112"/>
      <use x="620.890625" xlink:href="#DejaVuSans-114"/>
      <use x="659.753906" xlink:href="#DejaVuSans-101"/>
      <use x="721.277344" xlink:href="#DejaVuSans-115"/>
      <use x="773.376953" xlink:href="#DejaVuSans-115"/>
      <use x="825.476562" xlink:href="#DejaVuSans-105"/>
      <use x="853.259766" xlink:href="#DejaVuSans-111"/>
      <use x="914.441406" xlink:href="#DejaVuSans-110"/>
      <use x="977.820312" xlink:href="#DejaVuSans-32"/>
      <use x="1009.607422" xlink:href="#DejaVuSans-111"/>
      <use x="1070.789062" xlink:href="#DejaVuSans-102"/>
      <use x="1105.994141" xlink:href="#DejaVuSans-32"/>
      <use x="1137.78125" xlink:href="#DejaVuSans-72"/>
      <use x="1212.976562" xlink:href="#DejaVuSans-73"/>
      <use x="1242.46875" xlink:href="#DejaVuSans-86"/>
      <use x="1310.876953" xlink:href="#DejaVuSans-32"/>
      <use x="1342.664062" xlink:href="#DejaVuSans-99"/>
      <use x="1397.644531" xlink:href="#DejaVuSans-111"/>
      <use x="1458.826172" xlink:href="#DejaVuSans-109"/>
      <use x="1556.238281" xlink:href="#DejaVuSans-112"/>
      <use x="1619.714844" xlink:href="#DejaVuSans-97"/>
      <use x="1680.994141" xlink:href="#DejaVuSans-114"/>
      <use x="1719.857422" xlink:href="#DejaVuSans-101"/>
      <use x="1781.380859" xlink:href="#DejaVuSans-100"/>
      <use x="1844.857422" xlink:href="#DejaVuSans-32"/>
      <use x="1876.644531" xlink:href="#DejaVuSans-116"/>
      <use x="1915.853516" xlink:href="#DejaVuSans-111"/>
      <use x="1977.035156" xlink:href="#DejaVuSans-32"/>
      <use x="2008.822266" xlink:href="#DejaVuSans-72"/>
      <use x="2084.017578" xlink:href="#DejaVuSans-101"/>
      <use x="2145.541016" xlink:href="#DejaVuSans-97"/>
      <use x="2206.820312" xlink:href="#DejaVuSans-108"/>
      <use x="2234.603516" xlink:href="#DejaVuSans-116"/>
      <use x="2273.8125" xlink:href="#DejaVuSans-104"/>
      <use x="2337.191406" xlink:href="#DejaVuSans-121"/>
     </g>
    </g>
    <g id="patch_33">
     <path d="M 822.414844 134.956562 
L 842.414844 134.956562 
L 842.414844 127.956562 
L 822.414844 127.956562 
z
" style="fill:#0000ff;stroke:#0000ff;stroke-linejoin:miter;"/>
    </g>
    <g id="text_28">
     <!-- Decreased expression in HIV -->
     <g transform="translate(850.414844 134.956562)scale(0.1 -0.1)">
      <use xlink:href="#DejaVuSans-68"/>
      <use x="77.001953" xlink:href="#DejaVuSans-101"/>
      <use x="138.525391" xlink:href="#DejaVuSans-99"/>
      <use x="193.505859" xlink:href="#DejaVuSans-114"/>
      <use x="232.369141" xlink:href="#DejaVuSans-101"/>
      <use x="293.892578" xlink:href="#DejaVuSans-97"/>
      <use x="355.171875" xlink:href="#DejaVuSans-115"/>
      <use x="407.271484" xlink:href="#DejaVuSans-101"/>
      <use x="468.794922" xlink:href="#DejaVuSans-100"/>
      <use x="532.271484" xlink:href="#DejaVuSans-32"/>
      <use x="564.058594" xlink:href="#DejaVuSans-101"/>
      <use x="623.832031" xlink:href="#DejaVuSans-120"/>
      <use x="683.011719" xlink:href="#DejaVuSans-112"/>
      <use x="746.488281" xlink:href="#DejaVuSans-114"/>
      <use x="785.351562" xlink:href="#DejaVuSans-101"/>
      <use x="846.875" xlink:href="#DejaVuSans-115"/>
      <use x="898.974609" xlink:href="#DejaVuSans-115"/>
      <use x="951.074219" xlink:href="#DejaVuSans-105"/>
      <use x="978.857422" xlink:href="#DejaVuSans-111"/>
      <use x="1040.039062" xlink:href="#DejaVuSans-110"/>
      <use x="1103.417969" xlink:href="#DejaVuSans-32"/>
      <use x="1135.205078" xlink:href="#DejaVuSans-105"/>
      <use x="1162.988281" xlink:href="#DejaVuSans-110"/>
      <use x="1226.367188" xlink:href="#DejaVuSans-32"/>
      <use x="1258.154297" xlink:href="#DejaVuSans-72"/>
      <use x="1333.349609" xlink:href="#DejaVuSans-73"/>
      <use x="1362.841797" xlink:href="#DejaVuSans-86"/>
     </g>
    </g>
    <g id="patch_34">
     <path d="M 822.414844 149.634687 
L 842.414844 149.634687 
L 842.414844 142.634687 
L 822.414844 142.634687 
z
" style="fill:#ff0000;stroke:#ff0000;stroke-linejoin:miter;"/>
    </g>
    <g id="text_29">
     <!-- Increased expression in HIV -->
     <g transform="translate(850.414844 149.634687)scale(0.1 -0.1)">
      <use xlink:href="#DejaVuSans-73"/>
      <use x="29.492188" xlink:href="#DejaVuSans-110"/>
      <use x="92.871094" xlink:href="#DejaVuSans-99"/>
      <use x="147.851562" xlink:href="#DejaVuSans-114"/>
      <use x="186.714844" xlink:href="#DejaVuSans-101"/>
      <use x="248.238281" xlink:href="#DejaVuSans-97"/>
      <use x="309.517578" xlink:href="#DejaVuSans-115"/>
      <use x="361.617188" xlink:href="#DejaVuSans-101"/>
      <use x="423.140625" xlink:href="#DejaVuSans-100"/>
      <use x="486.617188" xlink:href="#DejaVuSans-32"/>
      <use x="518.404297" xlink:href="#DejaVuSans-101"/>
      <use x="578.177734" xlink:href="#DejaVuSans-120"/>
      <use x="637.357422" xlink:href="#DejaVuSans-112"/>
      <use x="700.833984" xlink:href="#DejaVuSans-114"/>
      <use x="739.697266" xlink:href="#DejaVuSans-101"/>
      <use x="801.220703" xlink:href="#DejaVuSans-115"/>
      <use x="853.320312" xlink:href="#DejaVuSans-115"/>
      <use x="905.419922" xlink:href="#DejaVuSans-105"/>
      <use x="933.203125" xlink:href="#DejaVuSans-111"/>
      <use x="994.384766" xlink:href="#DejaVuSans-110"/>
      <use x="1057.763672" xlink:href="#DejaVuSans-32"/>
      <use x="1089.550781" xlink:href="#DejaVuSans-105"/>
      <use x="1117.333984" xlink:href="#DejaVuSans-110"/>
      <use x="1180.712891" xlink:href="#DejaVuSans-32"/>
      <use x="1212.5" xlink:href="#DejaVuSans-72"/>
      <use x="1287.695312" xlink:href="#DejaVuSans-73"/>
      <use x="1317.1875" xlink:href="#DejaVuSans-86"/>
     </g>
    </g>
   </g>
  </g>
 </g>
 <defs>
  <clipPath id="p3f46760331">
   <rect height="665.28" width="892.8" x="144" y="103.68"/>
  </clipPath>
 </defs>
</svg>
