<?xml version="1.0" encoding="utf-8" standalone="no"?>
<!DOCTYPE svg PUBLIC "-//W3C//DTD SVG 1.1//EN"
  "http://www.w3.org/Graphics/SVG/1.1/DTD/svg11.dtd">
<!-- Created with matplotlib (https://matplotlib.org/) -->
<svg height="864pt" version="1.1" viewBox="0 0 1152 864" width="1152pt" xmlns="http://www.w3.org/2000/svg" xmlns:xlink="http://www.w3.org/1999/xlink">
 <metadata>
  <rdf:RDF xmlns:cc="http://creativecommons.org/ns#" xmlns:dc="http://purl.org/dc/elements/1.1/" xmlns:rdf="http://www.w3.org/1999/02/22-rdf-syntax-ns#">
   <cc:Work>
    <dc:type rdf:resource="http://purl.org/dc/dcmitype/StillImage"/>
    <dc:date>2024-04-17T13:51:18.732000</dc:date>
    <dc:format>image/svg+xml</dc:format>
    <dc:creator>
     <cc:Agent>
      <dc:title>Matplotlib v3.3.1, https://matplotlib.org/</dc:title>
     </cc:Agent>
    </dc:creator>
   </cc:Work>
  </rdf:RDF>
 </metadata>
 <defs>
  <style type="text/css">*{stroke-linecap:butt;stroke-linejoin:round;}</style>
 </defs>
 <g id="figure_1">
  <g id="patch_1">
   <path d="M 0 864 
L 1152 864 
L 1152 0 
L 0 0 
z
" style="fill:#ffffff;"/>
  </g>
  <g id="axes_1">
   <g id="patch_2">
    <path clip-path="url(#pc576b27558)" d="M 519.273984 672.637461 
Q 588.461096 645.567212 656.607033 618.904335 
" style="fill:none;stroke:#000000;stroke-linecap:round;"/>
    <path clip-path="url(#pc576b27558)" d="M 652.153278 618.499281 
L 656.607033 618.904335 
L 653.610737 622.224307 
L 652.153278 618.499281 
z
" style="stroke:#000000;stroke-linecap:round;"/>
   </g>
   <g id="patch_3">
    <path clip-path="url(#pc576b27558)" d="M 498.982585 664.749289 
Q 450.00061 565.043298 401.51161 466.340789 
" style="fill:none;stroke:#000000;stroke-linecap:round;"/>
    <path clip-path="url(#pc576b27558)" d="M 401.480247 470.812815 
L 401.51161 466.340789 
L 405.070413 469.049095 
L 401.480247 470.812815 
z
" style="stroke:#000000;stroke-linecap:round;"/>
   </g>
   <g id="patch_4">
    <path clip-path="url(#pc576b27558)" d="M 518.59636 671.144211 
Q 670.486036 591.315316 821.38604 512.006563 
" style="fill:none;stroke:#000000;stroke-linecap:round;"/>
    <path clip-path="url(#pc576b27558)" d="M 816.914821 512.097106 
L 821.38604 512.006563 
L 818.775742 515.637864 
L 816.914821 512.097106 
z
" style="stroke:#000000;stroke-linecap:round;"/>
   </g>
   <g id="patch_5">
    <path clip-path="url(#pc576b27558)" d="M 227.026108 696.588889 
Q 476.771353 703.807179 725.399031 710.993169 
" style="fill:none;stroke:#000000;stroke-linecap:round;"/>
    <path clip-path="url(#pc576b27558)" d="M 721.458482 708.878441 
L 725.399031 710.993169 
L 721.34292 712.876772 
L 721.458482 708.878441 
z
" style="stroke:#000000;stroke-linecap:round;"/>
   </g>
   <g id="patch_6">
    <path clip-path="url(#pc576b27558)" d="M 657.307888 617.305069 
Q 442.122741 656.37084 228.037648 695.236902 
" style="fill:none;stroke:#000000;stroke-linecap:round;"/>
    <path clip-path="url(#pc576b27558)" d="M 232.330567 696.490235 
L 228.037648 695.236902 
L 231.616066 692.554567 
L 232.330567 696.490235 
z
" style="stroke:#000000;stroke-linecap:round;"/>
   </g>
   <g id="patch_7">
    <path clip-path="url(#pc576b27558)" d="M 670.046771 615.959041 
Q 810.548028 611.604891 949.931788 607.285372 
" style="fill:none;stroke:#000000;stroke-linecap:round;"/>
    <path clip-path="url(#pc576b27558)" d="M 945.871757 605.410233 
L 949.931788 607.285372 
L 945.995658 609.408314 
L 945.871757 605.410233 
z
" style="stroke:#000000;stroke-linecap:round;"/>
   </g>
   <g id="patch_8">
    <path clip-path="url(#pc576b27558)" d="M 669.005128 612.648204 
Q 745.920545 562.46026 821.899629 512.883281 
" style="fill:none;stroke:#000000;stroke-linecap:round;"/>
    <path clip-path="url(#pc576b27558)" d="M 817.456771 513.394173 
L 821.899629 512.883281 
L 819.642628 516.744103 
L 817.456771 513.394173 
z
" style="stroke:#000000;stroke-linecap:round;"/>
   </g>
   <g id="patch_9">
    <path clip-path="url(#pc576b27558)" d="M 659.109121 611.594137 
Q 598.326643 550.18153 538.330647 489.56356 
" style="fill:none;stroke:#000000;stroke-linecap:round;"/>
    <path clip-path="url(#pc576b27558)" d="M 539.722964 493.813437 
L 538.330647 489.56356 
L 542.565939 490.999632 
L 539.722964 493.813437 
z
" style="stroke:#000000;stroke-linecap:round;"/>
   </g>
   <g id="patch_10">
    <path clip-path="url(#pc576b27558)" d="M 402.819027 452.404889 
Q 531.961072 308.971489 660.355026 166.368968 
" style="fill:none;stroke:#000000;stroke-linecap:round;"/>
    <path clip-path="url(#pc576b27558)" d="M 656.192252 168.003382 
L 660.355026 166.368968 
L 659.164892 170.679836 
L 656.192252 168.003382 
z
" style="stroke:#000000;stroke-linecap:round;"/>
   </g>
   <g id="patch_11">
    <path clip-path="url(#pc576b27558)" d="M 421.70127 652.25747 
Q 456.535288 662.968102 490.300647 673.350147 
" style="fill:none;stroke:#000000;stroke-linecap:round;"/>
    <path clip-path="url(#pc576b27558)" d="M 487.065093 670.262884 
L 490.300647 673.350147 
L 485.889505 674.086232 
L 487.065093 670.262884 
z
" style="stroke:#000000;stroke-linecap:round;"/>
   </g>
   <g id="patch_12">
    <path clip-path="url(#pc576b27558)" d="M 405.832111 631.814811 
Q 401.875928 548.975894 397.973079 467.253738 
" style="fill:none;stroke:#000000;stroke-linecap:round;"/>
    <path clip-path="url(#pc576b27558)" d="M 396.166169 471.34459 
L 397.973079 467.253738 
L 400.161615 471.153778 
L 396.166169 471.34459 
z
" style="stroke:#000000;stroke-linecap:round;"/>
   </g>
   <g id="patch_13">
    <path clip-path="url(#pc576b27558)" d="M 951.805438 610.466312 
Q 845.882159 659.370916 740.973949 707.806864 
" style="fill:none;stroke:#000000;stroke-linecap:round;"/>
    <path clip-path="url(#pc576b27558)" d="M 745.443921 707.945961 
L 740.973949 707.806864 
L 743.767209 704.314344 
L 745.443921 707.945961 
z
" style="stroke:#000000;stroke-linecap:round;"/>
   </g>
   <g id="patch_14">
    <path clip-path="url(#pc576b27558)" d="M 445.74184 605.110541 
Q 336.179781 649.722345 227.653205 693.912517 
" style="fill:none;stroke:#000000;stroke-linecap:round;"/>
    <path clip-path="url(#pc576b27558)" d="M 232.112102 694.256373 
L 227.653205 693.912517 
L 230.603628 690.551713 
L 232.112102 694.256373 
z
" style="stroke:#000000;stroke-linecap:round;"/>
   </g>
   <g id="patch_15">
    <path clip-path="url(#pc576b27558)" d="M 455.367075 603.263186 
Q 703.207314 605.098078 949.92955 606.924692 
" style="fill:none;stroke:#000000;stroke-linecap:round;"/>
    <path clip-path="url(#pc576b27558)" d="M 945.944466 604.895134 
L 949.92955 606.924692 
L 945.914853 608.895024 
L 945.944466 604.895134 
z
" style="stroke:#000000;stroke-linecap:round;"/>
   </g>
   <g id="patch_16">
    <path clip-path="url(#pc576b27558)" d="M 455.040803 605.007668 
Q 591.009706 656.863062 725.933968 708.320054 
" style="fill:none;stroke:#000000;stroke-linecap:round;"/>
    <path clip-path="url(#pc576b27558)" d="M 722.909228 705.025976 
L 725.933968 708.320054 
L 721.483861 708.763399 
L 722.909228 705.025976 
z
" style="stroke:#000000;stroke-linecap:round;"/>
   </g>
   <g id="patch_17">
    <path clip-path="url(#pc576b27558)" d="M 576.228368 575.202672 
Q 401.478089 634.917955 227.785778 694.271712 
" style="fill:none;stroke:#000000;stroke-linecap:round;"/>
    <path clip-path="url(#pc576b27558)" d="M 232.217602 694.870827 
L 227.785778 694.271712 
L 230.924164 691.085722 
L 232.217602 694.870827 
z
" style="stroke:#000000;stroke-linecap:round;"/>
   </g>
   <g id="patch_18">
    <path clip-path="url(#pc576b27558)" d="M 596.97021 572.75364 
Q 774.02735 589.484577 949.971414 606.110335 
" style="fill:none;stroke:#000000;stroke-linecap:round;"/>
    <path clip-path="url(#pc576b27558)" d="M 946.177304 603.742903 
L 949.971414 606.110335 
L 945.801002 607.725163 
L 946.177304 603.742903 
z
" style="stroke:#000000;stroke-linecap:round;"/>
   </g>
   <g id="patch_19">
    <path clip-path="url(#pc576b27558)" d="M 594.093004 579.097777 
Q 661.268279 642.738997 727.631924 705.611286 
" style="fill:none;stroke:#000000;stroke-linecap:round;"/>
    <path clip-path="url(#pc576b27558)" d="M 726.103651 701.408384 
L 727.631924 705.611286 
L 723.352639 704.312162 
L 726.103651 701.408384 
z
" style="stroke:#000000;stroke-linecap:round;"/>
   </g>
   <g id="patch_20">
    <path clip-path="url(#pc576b27558)" d="M 728.896002 705.949988 
Q 633.056832 597.510518 537.95806 489.90879 
" style="fill:none;stroke:#000000;stroke-linecap:round;"/>
    <path clip-path="url(#pc576b27558)" d="M 539.108393 494.230449 
L 537.95806 489.90879 
L 542.105587 491.581519 
L 539.108393 494.230449 
z
" style="stroke:#000000;stroke-linecap:round;"/>
   </g>
   <g id="patch_21">
    <path clip-path="url(#pc576b27558)" d="M 826.774185 515.711995 
Q 781.684831 610.288796 737.076617 703.856387 
" style="fill:none;stroke:#000000;stroke-linecap:round;"/>
    <path clip-path="url(#pc576b27558)" d="M 740.603324 701.106415 
L 737.076617 703.856387 
L 736.992664 699.385039 
L 740.603324 701.106415 
z
" style="stroke:#000000;stroke-linecap:round;"/>
   </g>
   <g id="patch_22">
    <path clip-path="url(#pc576b27558)" d="M 821.294672 506.220946 
Q 680.577772 495.006876 540.975373 483.881623 
" style="fill:none;stroke:#000000;stroke-linecap:round;"/>
    <path clip-path="url(#pc576b27558)" d="M 544.803851 486.193065 
L 540.975373 483.881623 
L 545.121613 482.205706 
L 544.803851 486.193065 
z
" style="stroke:#000000;stroke-linecap:round;"/>
   </g>
   <g id="patch_23">
    <path clip-path="url(#pc576b27558)" d="M 525.50052 487.629303 
Q 375.775672 590.457361 226.97244 692.652471 
" style="fill:none;stroke:#000000;stroke-linecap:round;"/>
    <path clip-path="url(#pc576b27558)" d="M 231.401967 692.036605 
L 226.97244 692.652471 
L 229.137464 688.73933 
L 231.401967 692.036605 
z
" style="stroke:#000000;stroke-linecap:round;"/>
   </g>
   <g id="patch_24">
    <path clip-path="url(#pc576b27558)" d="M 539.572547 485.360888 
Q 745.473227 545.025474 950.30005 604.378884 
" style="fill:none;stroke:#000000;stroke-linecap:round;"/>
    <path clip-path="url(#pc576b27558)" d="M 947.014748 601.344614 
L 950.30005 604.378884 
L 945.901453 605.186563 
L 947.014748 601.344614 
z
" style="stroke:#000000;stroke-linecap:round;"/>
   </g>
   <g id="PathCollection_1">
    <path clip-path="url(#pc576b27558)" d="M 505.504441 692.813078 
C 509.426298 692.813078 513.188054 691.254907 515.961226 688.481736 
C 518.734397 685.708564 520.292567 681.946809 520.292567 678.024952 
C 520.292567 674.103095 518.734397 670.341339 515.961226 667.568167 
C 513.188054 664.794996 509.426298 663.236826 505.504441 663.236826 
C 501.582584 663.236826 497.820829 664.794996 495.047657 667.568167 
C 492.274486 670.341339 490.716315 674.103095 490.716315 678.024952 
C 490.716315 681.946809 492.274486 685.708564 495.047657 688.481736 
C 497.820829 691.254907 501.582584 692.813078 505.504441 692.813078 
z
" style="fill:#7699f6;stroke:#7699f6;"/>
    <path clip-path="url(#pc576b27558)" d="M 664.819076 166.962548 
C 666.291388 166.962548 667.703596 166.377592 668.744678 165.336511 
C 669.785759 164.295429 670.370715 162.883221 670.370715 161.410909 
C 670.370715 159.938597 669.785759 158.526389 668.744678 157.485307 
C 667.703596 156.444226 666.291388 155.85927 664.819076 155.85927 
C 663.346764 155.85927 661.934556 156.444226 660.893474 157.485307 
C 659.852393 158.526389 659.267437 159.938597 659.267437 161.410909 
C 659.267437 162.883221 659.852393 164.295429 660.893474 165.336511 
C 661.934556 166.377592 663.346764 166.962548 664.819076 166.962548 
z
" style="fill:#dddcdc;stroke:#dddcdc;"/>
    <path clip-path="url(#pc576b27558)" d="M 221.47438 701.980068 
C 222.946692 701.980068 224.3589 701.395113 225.399982 700.354031 
C 226.441063 699.312949 227.026019 697.900741 227.026019 696.428429 
C 227.026019 694.956118 226.441063 693.54391 225.399982 692.502828 
C 224.3589 691.461746 222.946692 690.87679 221.47438 690.87679 
C 220.002068 690.87679 218.58986 691.461746 217.548779 692.502828 
C 216.507697 693.54391 215.922741 694.956118 215.922741 696.428429 
C 215.922741 697.900741 216.507697 699.312949 217.548779 700.354031 
C 218.58986 701.395113 220.002068 701.980068 221.47438 701.980068 
z
" style="fill:#6180e9;stroke:#6180e9;"/>
    <path clip-path="url(#pc576b27558)" d="M 663.626173 622.58124 
C 665.329632 622.58124 666.963551 621.904449 668.168078 620.699922 
C 669.372606 619.495394 670.049397 617.861475 670.049397 616.158016 
C 670.049397 614.454557 669.372606 612.820639 668.168078 611.616111 
C 666.963551 610.411584 665.329632 609.734792 663.626173 609.734792 
C 661.922714 609.734792 660.288795 610.411584 659.084268 611.616111 
C 657.879741 612.820639 657.202949 614.454557 657.202949 616.158016 
C 657.202949 617.861475 657.879741 619.495394 659.084268 620.699922 
C 660.288795 621.904449 661.922714 622.58124 663.626173 622.58124 
z
" style="fill:#536edd;stroke:#536edd;"/>
    <path clip-path="url(#pc576b27558)" d="M 397.543749 466.146336 
C 399.634182 466.146336 401.639278 465.315798 403.117438 463.837639 
C 404.595598 462.359479 405.426136 460.354383 405.426136 458.263949 
C 405.426136 456.173516 404.595598 454.16842 403.117438 452.69026 
C 401.639278 451.2121 399.634182 450.381562 397.543749 450.381562 
C 395.453315 450.381562 393.448219 451.2121 391.970059 452.69026 
C 390.4919 454.16842 389.661362 456.173516 389.661362 458.263949 
C 389.661362 460.354383 390.4919 462.359479 391.970059 463.837639 
C 393.448219 465.315798 395.453315 466.146336 397.543749 466.146336 
z
" style="fill:#516ddb;stroke:#516ddb;"/>
    <path clip-path="url(#pc576b27558)" d="M 406.586452 663.421411 
C 410.779681 663.421411 414.801731 661.755423 417.766792 658.790363 
C 420.731852 655.825302 422.39784 651.803252 422.39784 647.610023 
C 422.39784 643.416793 420.731852 639.394744 417.766792 636.429683 
C 414.801731 633.464622 410.779681 631.798634 406.586452 631.798634 
C 402.393222 631.798634 398.371173 633.464622 395.406112 636.429683 
C 392.441051 639.394744 390.775063 643.416793 390.775063 647.610023 
C 390.775063 651.803252 392.441051 655.825302 395.406112 658.790363 
C 398.371173 661.755423 402.393222 663.421411 406.586452 663.421411 
z
" style="fill:#4e68d8;stroke:#4e68d8;"/>
    <path clip-path="url(#pc576b27558)" d="M 959.32562 615.274043 
C 961.521445 615.274043 963.62763 614.401632 965.180313 612.84895 
C 966.732996 611.296267 967.605406 609.190081 967.605406 606.994256 
C 967.605406 604.798431 966.732996 602.692246 965.180313 601.139563 
C 963.62763 599.586881 961.521445 598.71447 959.32562 598.71447 
C 957.129795 598.71447 955.02361 599.586881 953.470927 601.139563 
C 951.918244 602.692246 951.045834 604.798431 951.045834 606.994256 
C 951.045834 609.190081 951.918244 611.296267 953.470927 612.84895 
C 955.02361 614.401632 957.129795 615.274043 959.32562 615.274043 
z
" style="fill:#dddcdc;stroke:#dddcdc;"/>
    <path clip-path="url(#pc576b27558)" d="M 450.36962 608.226187 
C 451.695635 608.226187 452.967519 607.699356 453.905154 606.761721 
C 454.842788 605.824087 455.36962 604.552203 455.36962 603.226187 
C 455.36962 601.900172 454.842788 600.628288 453.905154 599.690653 
C 452.967519 598.753019 451.695635 598.226187 450.36962 598.226187 
C 449.043604 598.226187 447.771721 598.753019 446.834086 599.690653 
C 445.896452 600.628288 445.36962 601.900172 445.36962 603.226187 
C 445.36962 604.552203 445.896452 605.824087 446.834086 606.761721 
C 447.771721 607.699356 449.043604 608.226187 450.36962 608.226187 
z
" style="fill:#3b4cc0;stroke:#3b4cc0;"/>
    <path clip-path="url(#pc576b27558)" d="M 586.335882 582.431303 
C 589.168927 582.431303 591.88632 581.305723 593.889585 579.302457 
C 595.892851 577.299192 597.018432 574.581799 597.018432 571.748754 
C 597.018432 568.915709 595.892851 566.198316 593.889585 564.195051 
C 591.88632 562.191785 589.168927 561.066205 586.335882 561.066205 
C 583.502837 561.066205 580.785445 562.191785 578.782179 564.195051 
C 576.778914 566.198316 575.653333 568.915709 575.653333 571.748754 
C 575.653333 574.581799 576.778914 577.299192 578.782179 579.302457 
C 580.785445 581.305723 583.502837 582.431303 586.335882 582.431303 
z
" style="fill:#dddcdc;stroke:#dddcdc;"/>
    <path clip-path="url(#pc576b27558)" d="M 733.561691 718.278047 
C 735.431096 718.278047 737.224187 717.535324 738.546055 716.213455 
C 739.867924 714.891586 740.610647 713.098496 740.610647 711.229091 
C 740.610647 709.359686 739.867924 707.566595 738.546055 706.244726 
C 737.224187 704.922858 735.431096 704.180135 733.561691 704.180135 
C 731.692286 704.180135 729.899195 704.922858 728.577326 706.244726 
C 727.255458 707.566595 726.512735 709.359686 726.512735 711.229091 
C 726.512735 713.098496 727.255458 714.891586 728.577326 716.213455 
C 729.899195 717.535324 731.692286 718.278047 733.561691 718.278047 
z
" style="fill:#f4987a;stroke:#f4987a;"/>
    <path clip-path="url(#pc576b27558)" d="M 830.932843 516.655645 
C 833.496458 516.655645 835.955419 515.63711 837.768169 513.824361 
C 839.580918 512.011611 840.599453 509.55265 840.599453 506.989035 
C 840.599453 504.42542 839.580918 501.966459 837.768169 500.153709 
C 835.955419 498.34096 833.496458 497.322425 830.932843 497.322425 
C 828.369228 497.322425 825.910267 498.34096 824.097518 500.153709 
C 822.284768 501.966459 821.266233 504.42542 821.266233 506.989035 
C 821.266233 509.55265 822.284768 512.011611 824.097518 513.824361 
C 825.910267 515.63711 828.369228 516.655645 830.932843 516.655645 
z
" style="fill:#b40426;stroke:#b40426;"/>
    <path clip-path="url(#pc576b27558)" d="M 531.999002 491.048661 
C 534.089435 491.048661 536.094531 490.218123 537.572691 488.739964 
C 539.050851 487.261804 539.881389 485.256708 539.881389 483.166274 
C 539.881389 481.075841 539.050851 479.070745 537.572691 477.592585 
C 536.094531 476.114425 534.089435 475.283887 531.999002 475.283887 
C 529.908568 475.283887 527.903472 476.114425 526.425312 477.592585 
C 524.947153 479.070745 524.116615 481.075841 524.116615 483.166274 
C 524.116615 485.256708 524.947153 487.261804 526.425312 488.739964 
C 527.903472 490.218123 529.908568 491.048661 531.999002 491.048661 
z
" style="fill:#c6d6f1;stroke:#c6d6f1;"/>
   </g>
   <g id="text_1">
    <g clip-path="url(#pc576b27558)">
     <!-- DLD -->
     <g transform="translate(495.018504 680.784327)scale(0.1 -0.1)">
      <defs>
       <path d="M 19.671875 64.796875 
L 19.671875 8.109375 
L 31.59375 8.109375 
Q 46.6875 8.109375 53.6875 14.9375 
Q 60.6875 21.78125 60.6875 36.53125 
Q 60.6875 51.171875 53.6875 57.984375 
Q 46.6875 64.796875 31.59375 64.796875 
z
M 9.8125 72.90625 
L 30.078125 72.90625 
Q 51.265625 72.90625 61.171875 64.09375 
Q 71.09375 55.28125 71.09375 36.53125 
Q 71.09375 17.671875 61.125 8.828125 
Q 51.171875 0 30.078125 0 
L 9.8125 0 
z
" id="DejaVuSans-68"/>
       <path d="M 9.8125 72.90625 
L 19.671875 72.90625 
L 19.671875 8.296875 
L 55.171875 8.296875 
L 55.171875 0 
L 9.8125 0 
z
" id="DejaVuSans-76"/>
      </defs>
      <use xlink:href="#DejaVuSans-68"/>
      <use x="77.001953" xlink:href="#DejaVuSans-76"/>
      <use x="132.714844" xlink:href="#DejaVuSans-68"/>
     </g>
    </g>
   </g>
   <g id="text_2">
    <g clip-path="url(#pc576b27558)">
     <!-- IDH1 -->
     <g transform="translate(652.55267 164.170284)scale(0.1 -0.1)">
      <defs>
       <path d="M 9.8125 72.90625 
L 19.671875 72.90625 
L 19.671875 0 
L 9.8125 0 
z
" id="DejaVuSans-73"/>
       <path d="M 9.8125 72.90625 
L 19.671875 72.90625 
L 19.671875 43.015625 
L 55.515625 43.015625 
L 55.515625 72.90625 
L 65.375 72.90625 
L 65.375 0 
L 55.515625 0 
L 55.515625 34.71875 
L 19.671875 34.71875 
L 19.671875 0 
L 9.8125 0 
z
" id="DejaVuSans-72"/>
       <path d="M 12.40625 8.296875 
L 28.515625 8.296875 
L 28.515625 63.921875 
L 10.984375 60.40625 
L 10.984375 69.390625 
L 28.421875 72.90625 
L 38.28125 72.90625 
L 38.28125 8.296875 
L 54.390625 8.296875 
L 54.390625 0 
L 12.40625 0 
z
" id="DejaVuSans-49"/>
      </defs>
      <use xlink:href="#DejaVuSans-73"/>
      <use x="29.492188" xlink:href="#DejaVuSans-68"/>
      <use x="106.494141" xlink:href="#DejaVuSans-72"/>
      <use x="181.689453" xlink:href="#DejaVuSans-49"/>
     </g>
    </g>
   </g>
   <g id="text_3">
    <g clip-path="url(#pc576b27558)">
     <!-- CS -->
     <g transform="translate(214.808755 699.187804)scale(0.1 -0.1)">
      <defs>
       <path d="M 64.40625 67.28125 
L 64.40625 56.890625 
Q 59.421875 61.53125 53.78125 63.8125 
Q 48.140625 66.109375 41.796875 66.109375 
Q 29.296875 66.109375 22.65625 58.46875 
Q 16.015625 50.828125 16.015625 36.375 
Q 16.015625 21.96875 22.65625 14.328125 
Q 29.296875 6.6875 41.796875 6.6875 
Q 48.140625 6.6875 53.78125 8.984375 
Q 59.421875 11.28125 64.40625 15.921875 
L 64.40625 5.609375 
Q 59.234375 2.09375 53.4375 0.328125 
Q 47.65625 -1.421875 41.21875 -1.421875 
Q 24.65625 -1.421875 15.125 8.703125 
Q 5.609375 18.84375 5.609375 36.375 
Q 5.609375 53.953125 15.125 64.078125 
Q 24.65625 74.21875 41.21875 74.21875 
Q 47.75 74.21875 53.53125 72.484375 
Q 59.328125 70.75 64.40625 67.28125 
z
" id="DejaVuSans-67"/>
       <path d="M 53.515625 70.515625 
L 53.515625 60.890625 
Q 47.90625 63.578125 42.921875 64.890625 
Q 37.9375 66.21875 33.296875 66.21875 
Q 25.25 66.21875 20.875 63.09375 
Q 16.5 59.96875 16.5 54.203125 
Q 16.5 49.359375 19.40625 46.890625 
Q 22.3125 44.4375 30.421875 42.921875 
L 36.375 41.703125 
Q 47.40625 39.59375 52.65625 34.296875 
Q 57.90625 29 57.90625 20.125 
Q 57.90625 9.515625 50.796875 4.046875 
Q 43.703125 -1.421875 29.984375 -1.421875 
Q 24.8125 -1.421875 18.96875 -0.25 
Q 13.140625 0.921875 6.890625 3.21875 
L 6.890625 13.375 
Q 12.890625 10.015625 18.65625 8.296875 
Q 24.421875 6.59375 29.984375 6.59375 
Q 38.421875 6.59375 43.015625 9.90625 
Q 47.609375 13.234375 47.609375 19.390625 
Q 47.609375 24.75 44.3125 27.78125 
Q 41.015625 30.8125 33.5 32.328125 
L 27.484375 33.5 
Q 16.453125 35.6875 11.515625 40.375 
Q 6.59375 45.0625 6.59375 53.421875 
Q 6.59375 63.09375 13.40625 68.65625 
Q 20.21875 74.21875 32.171875 74.21875 
Q 37.3125 74.21875 42.625 73.28125 
Q 47.953125 72.359375 53.515625 70.515625 
z
" id="DejaVuSans-83"/>
      </defs>
      <use xlink:href="#DejaVuSans-67"/>
      <use x="69.824219" xlink:href="#DejaVuSans-83"/>
     </g>
    </g>
   </g>
   <g id="text_4">
    <g clip-path="url(#pc576b27558)">
     <!-- DLAT -->
     <g transform="translate(650.791017 618.917391)scale(0.1 -0.1)">
      <defs>
       <path d="M 34.1875 63.1875 
L 20.796875 26.90625 
L 47.609375 26.90625 
z
M 28.609375 72.90625 
L 39.796875 72.90625 
L 67.578125 0 
L 57.328125 0 
L 50.6875 18.703125 
L 17.828125 18.703125 
L 11.1875 0 
L 0.78125 0 
z
" id="DejaVuSans-65"/>
       <path d="M -0.296875 72.90625 
L 61.375 72.90625 
L 61.375 64.59375 
L 35.5 64.59375 
L 35.5 0 
L 25.59375 0 
L 25.59375 64.59375 
L -0.296875 64.59375 
z
" id="DejaVuSans-84"/>
      </defs>
      <use xlink:href="#DejaVuSans-68"/>
      <use x="77.001953" xlink:href="#DejaVuSans-76"/>
      <use x="134.964844" xlink:href="#DejaVuSans-65"/>
      <use x="195.623047" xlink:href="#DejaVuSans-84"/>
     </g>
    </g>
   </g>
   <g id="text_5">
    <g clip-path="url(#pc576b27558)">
     <!-- OGDH -->
     <g transform="translate(382.123436 461.023324)scale(0.1 -0.1)">
      <defs>
       <path d="M 39.40625 66.21875 
Q 28.65625 66.21875 22.328125 58.203125 
Q 16.015625 50.203125 16.015625 36.375 
Q 16.015625 22.609375 22.328125 14.59375 
Q 28.65625 6.59375 39.40625 6.59375 
Q 50.140625 6.59375 56.421875 14.59375 
Q 62.703125 22.609375 62.703125 36.375 
Q 62.703125 50.203125 56.421875 58.203125 
Q 50.140625 66.21875 39.40625 66.21875 
z
M 39.40625 74.21875 
Q 54.734375 74.21875 63.90625 63.9375 
Q 73.09375 53.65625 73.09375 36.375 
Q 73.09375 19.140625 63.90625 8.859375 
Q 54.734375 -1.421875 39.40625 -1.421875 
Q 24.03125 -1.421875 14.8125 8.828125 
Q 5.609375 19.09375 5.609375 36.375 
Q 5.609375 53.65625 14.8125 63.9375 
Q 24.03125 74.21875 39.40625 74.21875 
z
" id="DejaVuSans-79"/>
       <path d="M 59.515625 10.40625 
L 59.515625 29.984375 
L 43.40625 29.984375 
L 43.40625 38.09375 
L 69.28125 38.09375 
L 69.28125 6.78125 
Q 63.578125 2.734375 56.6875 0.65625 
Q 49.8125 -1.421875 42 -1.421875 
Q 24.90625 -1.421875 15.25 8.5625 
Q 5.609375 18.5625 5.609375 36.375 
Q 5.609375 54.25 15.25 64.234375 
Q 24.90625 74.21875 42 74.21875 
Q 49.125 74.21875 55.546875 72.453125 
Q 61.96875 70.703125 67.390625 67.28125 
L 67.390625 56.78125 
Q 61.921875 61.421875 55.765625 63.765625 
Q 49.609375 66.109375 42.828125 66.109375 
Q 29.4375 66.109375 22.71875 58.640625 
Q 16.015625 51.171875 16.015625 36.375 
Q 16.015625 21.625 22.71875 14.15625 
Q 29.4375 6.6875 42.828125 6.6875 
Q 48.046875 6.6875 52.140625 7.59375 
Q 56.25 8.5 59.515625 10.40625 
z
" id="DejaVuSans-71"/>
      </defs>
      <use xlink:href="#DejaVuSans-79"/>
      <use x="78.710938" xlink:href="#DejaVuSans-71"/>
      <use x="156.201172" xlink:href="#DejaVuSans-68"/>
      <use x="233.203125" xlink:href="#DejaVuSans-72"/>
     </g>
    </g>
   </g>
   <g id="text_6">
    <g clip-path="url(#pc576b27558)">
     <!-- DLST -->
     <g transform="translate(393.722389 650.369398)scale(0.1 -0.1)">
      <use xlink:href="#DejaVuSans-68"/>
      <use x="77.001953" xlink:href="#DejaVuSans-76"/>
      <use x="132.714844" xlink:href="#DejaVuSans-83"/>
      <use x="196.191406" xlink:href="#DejaVuSans-84"/>
     </g>
    </g>
   </g>
   <g id="text_7">
    <g clip-path="url(#pc576b27558)">
     <!-- ACLY -->
     <g transform="translate(947.324057 609.753631)scale(0.1 -0.1)">
      <defs>
       <path d="M -0.203125 72.90625 
L 10.40625 72.90625 
L 30.609375 42.921875 
L 50.6875 72.90625 
L 61.28125 72.90625 
L 35.5 34.71875 
L 35.5 0 
L 25.59375 0 
L 25.59375 34.71875 
z
" id="DejaVuSans-89"/>
      </defs>
      <use xlink:href="#DejaVuSans-65"/>
      <use x="66.658203" xlink:href="#DejaVuSans-67"/>
      <use x="136.482422" xlink:href="#DejaVuSans-76"/>
      <use x="178.945312" xlink:href="#DejaVuSans-89"/>
     </g>
    </g>
   </g>
   <g id="text_8">
    <g clip-path="url(#pc576b27558)">
     <!-- MDH1 -->
     <g transform="translate(435.264151 605.985562)scale(0.1 -0.1)">
      <defs>
       <path d="M 9.8125 72.90625 
L 24.515625 72.90625 
L 43.109375 23.296875 
L 61.8125 72.90625 
L 76.515625 72.90625 
L 76.515625 0 
L 66.890625 0 
L 66.890625 64.015625 
L 48.09375 14.015625 
L 38.1875 14.015625 
L 19.390625 64.015625 
L 19.390625 0 
L 9.8125 0 
z
" id="DejaVuSans-77"/>
      </defs>
      <use xlink:href="#DejaVuSans-77"/>
      <use x="86.279297" xlink:href="#DejaVuSans-68"/>
      <use x="163.28125" xlink:href="#DejaVuSans-72"/>
      <use x="238.476562" xlink:href="#DejaVuSans-49"/>
     </g>
    </g>
   </g>
   <g id="text_9">
    <g clip-path="url(#pc576b27558)">
     <!-- MDH2 -->
     <g transform="translate(571.230414 574.508129)scale(0.1 -0.1)">
      <defs>
       <path d="M 19.1875 8.296875 
L 53.609375 8.296875 
L 53.609375 0 
L 7.328125 0 
L 7.328125 8.296875 
Q 12.9375 14.109375 22.625 23.890625 
Q 32.328125 33.6875 34.8125 36.53125 
Q 39.546875 41.84375 41.421875 45.53125 
Q 43.3125 49.21875 43.3125 52.78125 
Q 43.3125 58.59375 39.234375 62.25 
Q 35.15625 65.921875 28.609375 65.921875 
Q 23.96875 65.921875 18.8125 64.3125 
Q 13.671875 62.703125 7.8125 59.421875 
L 7.8125 69.390625 
Q 13.765625 71.78125 18.9375 73 
Q 24.125 74.21875 28.421875 74.21875 
Q 39.75 74.21875 46.484375 68.546875 
Q 53.21875 62.890625 53.21875 53.421875 
Q 53.21875 48.921875 51.53125 44.890625 
Q 49.859375 40.875 45.40625 35.40625 
Q 44.1875 33.984375 37.640625 27.21875 
Q 31.109375 20.453125 19.1875 8.296875 
z
" id="DejaVuSans-50"/>
      </defs>
      <use xlink:href="#DejaVuSans-77"/>
      <use x="86.279297" xlink:href="#DejaVuSans-68"/>
      <use x="163.28125" xlink:href="#DejaVuSans-72"/>
      <use x="238.476562" xlink:href="#DejaVuSans-50"/>
     </g>
    </g>
   </g>
   <g id="text_10">
    <g clip-path="url(#pc576b27558)">
     <!-- PC -->
     <g transform="translate(727.055441 713.988466)scale(0.1 -0.1)">
      <defs>
       <path d="M 19.671875 64.796875 
L 19.671875 37.40625 
L 32.078125 37.40625 
Q 38.96875 37.40625 42.71875 40.96875 
Q 46.484375 44.53125 46.484375 51.125 
Q 46.484375 57.671875 42.71875 61.234375 
Q 38.96875 64.796875 32.078125 64.796875 
z
M 9.8125 72.90625 
L 32.078125 72.90625 
Q 44.34375 72.90625 50.609375 67.359375 
Q 56.890625 61.8125 56.890625 51.125 
Q 56.890625 40.328125 50.609375 34.8125 
Q 44.34375 29.296875 32.078125 29.296875 
L 19.671875 29.296875 
L 19.671875 0 
L 9.8125 0 
z
" id="DejaVuSans-80"/>
      </defs>
      <use xlink:href="#DejaVuSans-80"/>
      <use x="60.302734" xlink:href="#DejaVuSans-67"/>
     </g>
    </g>
   </g>
   <g id="text_11">
    <g clip-path="url(#pc576b27558)">
     <!-- PDHB -->
     <g transform="translate(816.877374 509.74841)scale(0.1 -0.1)">
      <defs>
       <path d="M 19.671875 34.8125 
L 19.671875 8.109375 
L 35.5 8.109375 
Q 43.453125 8.109375 47.28125 11.40625 
Q 51.125 14.703125 51.125 21.484375 
Q 51.125 28.328125 47.28125 31.5625 
Q 43.453125 34.8125 35.5 34.8125 
z
M 19.671875 64.796875 
L 19.671875 42.828125 
L 34.28125 42.828125 
Q 41.5 42.828125 45.03125 45.53125 
Q 48.578125 48.25 48.578125 53.8125 
Q 48.578125 59.328125 45.03125 62.0625 
Q 41.5 64.796875 34.28125 64.796875 
z
M 9.8125 72.90625 
L 35.015625 72.90625 
Q 46.296875 72.90625 52.390625 68.21875 
Q 58.5 63.53125 58.5 54.890625 
Q 58.5 48.1875 55.375 44.234375 
Q 52.25 40.28125 46.1875 39.3125 
Q 53.46875 37.75 57.5 32.78125 
Q 61.53125 27.828125 61.53125 20.40625 
Q 61.53125 10.640625 54.890625 5.3125 
Q 48.25 0 35.984375 0 
L 9.8125 0 
z
" id="DejaVuSans-66"/>
      </defs>
      <use xlink:href="#DejaVuSans-80"/>
      <use x="60.302734" xlink:href="#DejaVuSans-68"/>
      <use x="137.304688" xlink:href="#DejaVuSans-72"/>
      <use x="212.5" xlink:href="#DejaVuSans-66"/>
     </g>
    </g>
   </g>
   <g id="text_12">
    <g clip-path="url(#pc576b27558)">
     <!-- POR -->
     <g transform="translate(521.574002 485.925649)scale(0.1 -0.1)">
      <defs>
       <path d="M 44.390625 34.1875 
Q 47.5625 33.109375 50.5625 29.59375 
Q 53.5625 26.078125 56.59375 19.921875 
L 66.609375 0 
L 56 0 
L 46.6875 18.703125 
Q 43.0625 26.03125 39.671875 28.421875 
Q 36.28125 30.8125 30.421875 30.8125 
L 19.671875 30.8125 
L 19.671875 0 
L 9.8125 0 
L 9.8125 72.90625 
L 32.078125 72.90625 
Q 44.578125 72.90625 50.734375 67.671875 
Q 56.890625 62.453125 56.890625 51.90625 
Q 56.890625 45.015625 53.6875 40.46875 
Q 50.484375 35.9375 44.390625 34.1875 
z
M 19.671875 64.796875 
L 19.671875 38.921875 
L 32.078125 38.921875 
Q 39.203125 38.921875 42.84375 42.21875 
Q 46.484375 45.515625 46.484375 51.90625 
Q 46.484375 58.296875 42.84375 61.546875 
Q 39.203125 64.796875 32.078125 64.796875 
z
" id="DejaVuSans-82"/>
      </defs>
      <use xlink:href="#DejaVuSans-80"/>
      <use x="60.302734" xlink:href="#DejaVuSans-79"/>
      <use x="139.013672" xlink:href="#DejaVuSans-82"/>
     </g>
    </g>
   </g>
   <g id="text_13">
    <!-- Importance Score and Relative Abundance for network hsa00020 for dataset george_hiv -->
    <g transform="translate(324.563437 97.68)scale(0.12 -0.12)">
     <defs>
      <path d="M 52 44.1875 
Q 55.375 50.25 60.0625 53.125 
Q 64.75 56 71.09375 56 
Q 79.640625 56 84.28125 50.015625 
Q 88.921875 44.046875 88.921875 33.015625 
L 88.921875 0 
L 79.890625 0 
L 79.890625 32.71875 
Q 79.890625 40.578125 77.09375 44.375 
Q 74.3125 48.1875 68.609375 48.1875 
Q 61.625 48.1875 57.5625 43.546875 
Q 53.515625 38.921875 53.515625 30.90625 
L 53.515625 0 
L 44.484375 0 
L 44.484375 32.71875 
Q 44.484375 40.625 41.703125 44.40625 
Q 38.921875 48.1875 33.109375 48.1875 
Q 26.21875 48.1875 22.15625 43.53125 
Q 18.109375 38.875 18.109375 30.90625 
L 18.109375 0 
L 9.078125 0 
L 9.078125 54.6875 
L 18.109375 54.6875 
L 18.109375 46.1875 
Q 21.1875 51.21875 25.484375 53.609375 
Q 29.78125 56 35.6875 56 
Q 41.65625 56 45.828125 52.96875 
Q 50 49.953125 52 44.1875 
z
" id="DejaVuSans-109"/>
      <path d="M 18.109375 8.203125 
L 18.109375 -20.796875 
L 9.078125 -20.796875 
L 9.078125 54.6875 
L 18.109375 54.6875 
L 18.109375 46.390625 
Q 20.953125 51.265625 25.265625 53.625 
Q 29.59375 56 35.59375 56 
Q 45.5625 56 51.78125 48.09375 
Q 58.015625 40.1875 58.015625 27.296875 
Q 58.015625 14.40625 51.78125 6.484375 
Q 45.5625 -1.421875 35.59375 -1.421875 
Q 29.59375 -1.421875 25.265625 0.953125 
Q 20.953125 3.328125 18.109375 8.203125 
z
M 48.6875 27.296875 
Q 48.6875 37.203125 44.609375 42.84375 
Q 40.53125 48.484375 33.40625 48.484375 
Q 26.265625 48.484375 22.1875 42.84375 
Q 18.109375 37.203125 18.109375 27.296875 
Q 18.109375 17.390625 22.1875 11.75 
Q 26.265625 6.109375 33.40625 6.109375 
Q 40.53125 6.109375 44.609375 11.75 
Q 48.6875 17.390625 48.6875 27.296875 
z
" id="DejaVuSans-112"/>
      <path d="M 30.609375 48.390625 
Q 23.390625 48.390625 19.1875 42.75 
Q 14.984375 37.109375 14.984375 27.296875 
Q 14.984375 17.484375 19.15625 11.84375 
Q 23.34375 6.203125 30.609375 6.203125 
Q 37.796875 6.203125 41.984375 11.859375 
Q 46.1875 17.53125 46.1875 27.296875 
Q 46.1875 37.015625 41.984375 42.703125 
Q 37.796875 48.390625 30.609375 48.390625 
z
M 30.609375 56 
Q 42.328125 56 49.015625 48.375 
Q 55.71875 40.765625 55.71875 27.296875 
Q 55.71875 13.875 49.015625 6.21875 
Q 42.328125 -1.421875 30.609375 -1.421875 
Q 18.84375 -1.421875 12.171875 6.21875 
Q 5.515625 13.875 5.515625 27.296875 
Q 5.515625 40.765625 12.171875 48.375 
Q 18.84375 56 30.609375 56 
z
" id="DejaVuSans-111"/>
      <path d="M 41.109375 46.296875 
Q 39.59375 47.171875 37.8125 47.578125 
Q 36.03125 48 33.890625 48 
Q 26.265625 48 22.1875 43.046875 
Q 18.109375 38.09375 18.109375 28.8125 
L 18.109375 0 
L 9.078125 0 
L 9.078125 54.6875 
L 18.109375 54.6875 
L 18.109375 46.1875 
Q 20.953125 51.171875 25.484375 53.578125 
Q 30.03125 56 36.53125 56 
Q 37.453125 56 38.578125 55.875 
Q 39.703125 55.765625 41.0625 55.515625 
z
" id="DejaVuSans-114"/>
      <path d="M 18.3125 70.21875 
L 18.3125 54.6875 
L 36.8125 54.6875 
L 36.8125 47.703125 
L 18.3125 47.703125 
L 18.3125 18.015625 
Q 18.3125 11.328125 20.140625 9.421875 
Q 21.96875 7.515625 27.59375 7.515625 
L 36.8125 7.515625 
L 36.8125 0 
L 27.59375 0 
Q 17.1875 0 13.234375 3.875 
Q 9.28125 7.765625 9.28125 18.015625 
L 9.28125 47.703125 
L 2.6875 47.703125 
L 2.6875 54.6875 
L 9.28125 54.6875 
L 9.28125 70.21875 
z
" id="DejaVuSans-116"/>
      <path d="M 34.28125 27.484375 
Q 23.390625 27.484375 19.1875 25 
Q 14.984375 22.515625 14.984375 16.5 
Q 14.984375 11.71875 18.140625 8.90625 
Q 21.296875 6.109375 26.703125 6.109375 
Q 34.1875 6.109375 38.703125 11.40625 
Q 43.21875 16.703125 43.21875 25.484375 
L 43.21875 27.484375 
z
M 52.203125 31.203125 
L 52.203125 0 
L 43.21875 0 
L 43.21875 8.296875 
Q 40.140625 3.328125 35.546875 0.953125 
Q 30.953125 -1.421875 24.3125 -1.421875 
Q 15.921875 -1.421875 10.953125 3.296875 
Q 6 8.015625 6 15.921875 
Q 6 25.140625 12.171875 29.828125 
Q 18.359375 34.515625 30.609375 34.515625 
L 43.21875 34.515625 
L 43.21875 35.40625 
Q 43.21875 41.609375 39.140625 45 
Q 35.0625 48.390625 27.6875 48.390625 
Q 23 48.390625 18.546875 47.265625 
Q 14.109375 46.140625 10.015625 43.890625 
L 10.015625 52.203125 
Q 14.9375 54.109375 19.578125 55.046875 
Q 24.21875 56 28.609375 56 
Q 40.484375 56 46.34375 49.84375 
Q 52.203125 43.703125 52.203125 31.203125 
z
" id="DejaVuSans-97"/>
      <path d="M 54.890625 33.015625 
L 54.890625 0 
L 45.90625 0 
L 45.90625 32.71875 
Q 45.90625 40.484375 42.875 44.328125 
Q 39.84375 48.1875 33.796875 48.1875 
Q 26.515625 48.1875 22.3125 43.546875 
Q 18.109375 38.921875 18.109375 30.90625 
L 18.109375 0 
L 9.078125 0 
L 9.078125 54.6875 
L 18.109375 54.6875 
L 18.109375 46.1875 
Q 21.34375 51.125 25.703125 53.5625 
Q 30.078125 56 35.796875 56 
Q 45.21875 56 50.046875 50.171875 
Q 54.890625 44.34375 54.890625 33.015625 
z
" id="DejaVuSans-110"/>
      <path d="M 48.78125 52.59375 
L 48.78125 44.1875 
Q 44.96875 46.296875 41.140625 47.34375 
Q 37.3125 48.390625 33.40625 48.390625 
Q 24.65625 48.390625 19.8125 42.84375 
Q 14.984375 37.3125 14.984375 27.296875 
Q 14.984375 17.28125 19.8125 11.734375 
Q 24.65625 6.203125 33.40625 6.203125 
Q 37.3125 6.203125 41.140625 7.25 
Q 44.96875 8.296875 48.78125 10.40625 
L 48.78125 2.09375 
Q 45.015625 0.34375 40.984375 -0.53125 
Q 36.96875 -1.421875 32.421875 -1.421875 
Q 20.0625 -1.421875 12.78125 6.34375 
Q 5.515625 14.109375 5.515625 27.296875 
Q 5.515625 40.671875 12.859375 48.328125 
Q 20.21875 56 33.015625 56 
Q 37.15625 56 41.109375 55.140625 
Q 45.0625 54.296875 48.78125 52.59375 
z
" id="DejaVuSans-99"/>
      <path d="M 56.203125 29.59375 
L 56.203125 25.203125 
L 14.890625 25.203125 
Q 15.484375 15.921875 20.484375 11.0625 
Q 25.484375 6.203125 34.421875 6.203125 
Q 39.59375 6.203125 44.453125 7.46875 
Q 49.3125 8.734375 54.109375 11.28125 
L 54.109375 2.78125 
Q 49.265625 0.734375 44.1875 -0.34375 
Q 39.109375 -1.421875 33.890625 -1.421875 
Q 20.796875 -1.421875 13.15625 6.1875 
Q 5.515625 13.8125 5.515625 26.8125 
Q 5.515625 40.234375 12.765625 48.109375 
Q 20.015625 56 32.328125 56 
Q 43.359375 56 49.78125 48.890625 
Q 56.203125 41.796875 56.203125 29.59375 
z
M 47.21875 32.234375 
Q 47.125 39.59375 43.09375 43.984375 
Q 39.0625 48.390625 32.421875 48.390625 
Q 24.90625 48.390625 20.390625 44.140625 
Q 15.875 39.890625 15.1875 32.171875 
z
" id="DejaVuSans-101"/>
      <path id="DejaVuSans-32"/>
      <path d="M 45.40625 46.390625 
L 45.40625 75.984375 
L 54.390625 75.984375 
L 54.390625 0 
L 45.40625 0 
L 45.40625 8.203125 
Q 42.578125 3.328125 38.25 0.953125 
Q 33.9375 -1.421875 27.875 -1.421875 
Q 17.96875 -1.421875 11.734375 6.484375 
Q 5.515625 14.40625 5.515625 27.296875 
Q 5.515625 40.1875 11.734375 48.09375 
Q 17.96875 56 27.875 56 
Q 33.9375 56 38.25 53.625 
Q 42.578125 51.265625 45.40625 46.390625 
z
M 14.796875 27.296875 
Q 14.796875 17.390625 18.875 11.75 
Q 22.953125 6.109375 30.078125 6.109375 
Q 37.203125 6.109375 41.296875 11.75 
Q 45.40625 17.390625 45.40625 27.296875 
Q 45.40625 37.203125 41.296875 42.84375 
Q 37.203125 48.484375 30.078125 48.484375 
Q 22.953125 48.484375 18.875 42.84375 
Q 14.796875 37.203125 14.796875 27.296875 
z
" id="DejaVuSans-100"/>
      <path d="M 9.421875 75.984375 
L 18.40625 75.984375 
L 18.40625 0 
L 9.421875 0 
z
" id="DejaVuSans-108"/>
      <path d="M 9.421875 54.6875 
L 18.40625 54.6875 
L 18.40625 0 
L 9.421875 0 
z
M 9.421875 75.984375 
L 18.40625 75.984375 
L 18.40625 64.59375 
L 9.421875 64.59375 
z
" id="DejaVuSans-105"/>
      <path d="M 2.984375 54.6875 
L 12.5 54.6875 
L 29.59375 8.796875 
L 46.6875 54.6875 
L 56.203125 54.6875 
L 35.6875 0 
L 23.484375 0 
z
" id="DejaVuSans-118"/>
      <path d="M 48.6875 27.296875 
Q 48.6875 37.203125 44.609375 42.84375 
Q 40.53125 48.484375 33.40625 48.484375 
Q 26.265625 48.484375 22.1875 42.84375 
Q 18.109375 37.203125 18.109375 27.296875 
Q 18.109375 17.390625 22.1875 11.75 
Q 26.265625 6.109375 33.40625 6.109375 
Q 40.53125 6.109375 44.609375 11.75 
Q 48.6875 17.390625 48.6875 27.296875 
z
M 18.109375 46.390625 
Q 20.953125 51.265625 25.265625 53.625 
Q 29.59375 56 35.59375 56 
Q 45.5625 56 51.78125 48.09375 
Q 58.015625 40.1875 58.015625 27.296875 
Q 58.015625 14.40625 51.78125 6.484375 
Q 45.5625 -1.421875 35.59375 -1.421875 
Q 29.59375 -1.421875 25.265625 0.953125 
Q 20.953125 3.328125 18.109375 8.203125 
L 18.109375 0 
L 9.078125 0 
L 9.078125 75.984375 
L 18.109375 75.984375 
z
" id="DejaVuSans-98"/>
      <path d="M 8.5 21.578125 
L 8.5 54.6875 
L 17.484375 54.6875 
L 17.484375 21.921875 
Q 17.484375 14.15625 20.5 10.265625 
Q 23.53125 6.390625 29.59375 6.390625 
Q 36.859375 6.390625 41.078125 11.03125 
Q 45.3125 15.671875 45.3125 23.6875 
L 45.3125 54.6875 
L 54.296875 54.6875 
L 54.296875 0 
L 45.3125 0 
L 45.3125 8.40625 
Q 42.046875 3.421875 37.71875 1 
Q 33.40625 -1.421875 27.6875 -1.421875 
Q 18.265625 -1.421875 13.375 4.4375 
Q 8.5 10.296875 8.5 21.578125 
z
M 31.109375 56 
z
" id="DejaVuSans-117"/>
      <path d="M 37.109375 75.984375 
L 37.109375 68.5 
L 28.515625 68.5 
Q 23.6875 68.5 21.796875 66.546875 
Q 19.921875 64.59375 19.921875 59.515625 
L 19.921875 54.6875 
L 34.71875 54.6875 
L 34.71875 47.703125 
L 19.921875 47.703125 
L 19.921875 0 
L 10.890625 0 
L 10.890625 47.703125 
L 2.296875 47.703125 
L 2.296875 54.6875 
L 10.890625 54.6875 
L 10.890625 58.5 
Q 10.890625 67.625 15.140625 71.796875 
Q 19.390625 75.984375 28.609375 75.984375 
z
" id="DejaVuSans-102"/>
      <path d="M 4.203125 54.6875 
L 13.1875 54.6875 
L 24.421875 12.015625 
L 35.59375 54.6875 
L 46.1875 54.6875 
L 57.421875 12.015625 
L 68.609375 54.6875 
L 77.59375 54.6875 
L 63.28125 0 
L 52.6875 0 
L 40.921875 44.828125 
L 29.109375 0 
L 18.5 0 
z
" id="DejaVuSans-119"/>
      <path d="M 9.078125 75.984375 
L 18.109375 75.984375 
L 18.109375 31.109375 
L 44.921875 54.6875 
L 56.390625 54.6875 
L 27.390625 29.109375 
L 57.625 0 
L 45.90625 0 
L 18.109375 26.703125 
L 18.109375 0 
L 9.078125 0 
z
" id="DejaVuSans-107"/>
      <path d="M 54.890625 33.015625 
L 54.890625 0 
L 45.90625 0 
L 45.90625 32.71875 
Q 45.90625 40.484375 42.875 44.328125 
Q 39.84375 48.1875 33.796875 48.1875 
Q 26.515625 48.1875 22.3125 43.546875 
Q 18.109375 38.921875 18.109375 30.90625 
L 18.109375 0 
L 9.078125 0 
L 9.078125 75.984375 
L 18.109375 75.984375 
L 18.109375 46.1875 
Q 21.34375 51.125 25.703125 53.5625 
Q 30.078125 56 35.796875 56 
Q 45.21875 56 50.046875 50.171875 
Q 54.890625 44.34375 54.890625 33.015625 
z
" id="DejaVuSans-104"/>
      <path d="M 44.28125 53.078125 
L 44.28125 44.578125 
Q 40.484375 46.53125 36.375 47.5 
Q 32.28125 48.484375 27.875 48.484375 
Q 21.1875 48.484375 17.84375 46.4375 
Q 14.5 44.390625 14.5 40.28125 
Q 14.5 37.15625 16.890625 35.375 
Q 19.28125 33.59375 26.515625 31.984375 
L 29.59375 31.296875 
Q 39.15625 29.25 43.1875 25.515625 
Q 47.21875 21.78125 47.21875 15.09375 
Q 47.21875 7.46875 41.1875 3.015625 
Q 35.15625 -1.421875 24.609375 -1.421875 
Q 20.21875 -1.421875 15.453125 -0.5625 
Q 10.6875 0.296875 5.421875 2 
L 5.421875 11.28125 
Q 10.40625 8.6875 15.234375 7.390625 
Q 20.0625 6.109375 24.8125 6.109375 
Q 31.15625 6.109375 34.5625 8.28125 
Q 37.984375 10.453125 37.984375 14.40625 
Q 37.984375 18.0625 35.515625 20.015625 
Q 33.0625 21.96875 24.703125 23.78125 
L 21.578125 24.515625 
Q 13.234375 26.265625 9.515625 29.90625 
Q 5.8125 33.546875 5.8125 39.890625 
Q 5.8125 47.609375 11.28125 51.796875 
Q 16.75 56 26.8125 56 
Q 31.78125 56 36.171875 55.265625 
Q 40.578125 54.546875 44.28125 53.078125 
z
" id="DejaVuSans-115"/>
      <path d="M 31.78125 66.40625 
Q 24.171875 66.40625 20.328125 58.90625 
Q 16.5 51.421875 16.5 36.375 
Q 16.5 21.390625 20.328125 13.890625 
Q 24.171875 6.390625 31.78125 6.390625 
Q 39.453125 6.390625 43.28125 13.890625 
Q 47.125 21.390625 47.125 36.375 
Q 47.125 51.421875 43.28125 58.90625 
Q 39.453125 66.40625 31.78125 66.40625 
z
M 31.78125 74.21875 
Q 44.046875 74.21875 50.515625 64.515625 
Q 56.984375 54.828125 56.984375 36.375 
Q 56.984375 17.96875 50.515625 8.265625 
Q 44.046875 -1.421875 31.78125 -1.421875 
Q 19.53125 -1.421875 13.0625 8.265625 
Q 6.59375 17.96875 6.59375 36.375 
Q 6.59375 54.828125 13.0625 64.515625 
Q 19.53125 74.21875 31.78125 74.21875 
z
" id="DejaVuSans-48"/>
      <path d="M 45.40625 27.984375 
Q 45.40625 37.75 41.375 43.109375 
Q 37.359375 48.484375 30.078125 48.484375 
Q 22.859375 48.484375 18.828125 43.109375 
Q 14.796875 37.75 14.796875 27.984375 
Q 14.796875 18.265625 18.828125 12.890625 
Q 22.859375 7.515625 30.078125 7.515625 
Q 37.359375 7.515625 41.375 12.890625 
Q 45.40625 18.265625 45.40625 27.984375 
z
M 54.390625 6.78125 
Q 54.390625 -7.171875 48.1875 -13.984375 
Q 42 -20.796875 29.203125 -20.796875 
Q 24.46875 -20.796875 20.265625 -20.09375 
Q 16.0625 -19.390625 12.109375 -17.921875 
L 12.109375 -9.1875 
Q 16.0625 -11.328125 19.921875 -12.34375 
Q 23.78125 -13.375 27.78125 -13.375 
Q 36.625 -13.375 41.015625 -8.765625 
Q 45.40625 -4.15625 45.40625 5.171875 
L 45.40625 9.625 
Q 42.625 4.78125 38.28125 2.390625 
Q 33.9375 0 27.875 0 
Q 17.828125 0 11.671875 7.65625 
Q 5.515625 15.328125 5.515625 27.984375 
Q 5.515625 40.671875 11.671875 48.328125 
Q 17.828125 56 27.875 56 
Q 33.9375 56 38.28125 53.609375 
Q 42.625 51.21875 45.40625 46.390625 
L 45.40625 54.6875 
L 54.390625 54.6875 
z
" id="DejaVuSans-103"/>
      <path d="M 50.984375 -16.609375 
L 50.984375 -23.578125 
L -0.984375 -23.578125 
L -0.984375 -16.609375 
z
" id="DejaVuSans-95"/>
     </defs>
     <use xlink:href="#DejaVuSans-73"/>
     <use x="29.492188" xlink:href="#DejaVuSans-109"/>
     <use x="126.904297" xlink:href="#DejaVuSans-112"/>
     <use x="190.380859" xlink:href="#DejaVuSans-111"/>
     <use x="251.5625" xlink:href="#DejaVuSans-114"/>
     <use x="292.675781" xlink:href="#DejaVuSans-116"/>
     <use x="331.884766" xlink:href="#DejaVuSans-97"/>
     <use x="393.164062" xlink:href="#DejaVuSans-110"/>
     <use x="456.542969" xlink:href="#DejaVuSans-99"/>
     <use x="511.523438" xlink:href="#DejaVuSans-101"/>
     <use x="573.046875" xlink:href="#DejaVuSans-32"/>
     <use x="604.833984" xlink:href="#DejaVuSans-83"/>
     <use x="668.310547" xlink:href="#DejaVuSans-99"/>
     <use x="723.291016" xlink:href="#DejaVuSans-111"/>
     <use x="784.472656" xlink:href="#DejaVuSans-114"/>
     <use x="823.335938" xlink:href="#DejaVuSans-101"/>
     <use x="884.859375" xlink:href="#DejaVuSans-32"/>
     <use x="916.646484" xlink:href="#DejaVuSans-97"/>
     <use x="977.925781" xlink:href="#DejaVuSans-110"/>
     <use x="1041.304688" xlink:href="#DejaVuSans-100"/>
     <use x="1104.78125" xlink:href="#DejaVuSans-32"/>
     <use x="1136.568359" xlink:href="#DejaVuSans-82"/>
     <use x="1201.550781" xlink:href="#DejaVuSans-101"/>
     <use x="1263.074219" xlink:href="#DejaVuSans-108"/>
     <use x="1290.857422" xlink:href="#DejaVuSans-97"/>
     <use x="1352.136719" xlink:href="#DejaVuSans-116"/>
     <use x="1391.345703" xlink:href="#DejaVuSans-105"/>
     <use x="1419.128906" xlink:href="#DejaVuSans-118"/>
     <use x="1478.308594" xlink:href="#DejaVuSans-101"/>
     <use x="1539.832031" xlink:href="#DejaVuSans-32"/>
     <use x="1571.619141" xlink:href="#DejaVuSans-65"/>
     <use x="1640.027344" xlink:href="#DejaVuSans-98"/>
     <use x="1703.503906" xlink:href="#DejaVuSans-117"/>
     <use x="1766.882812" xlink:href="#DejaVuSans-110"/>
     <use x="1830.261719" xlink:href="#DejaVuSans-100"/>
     <use x="1893.738281" xlink:href="#DejaVuSans-97"/>
     <use x="1955.017578" xlink:href="#DejaVuSans-110"/>
     <use x="2018.396484" xlink:href="#DejaVuSans-99"/>
     <use x="2073.376953" xlink:href="#DejaVuSans-101"/>
     <use x="2134.900391" xlink:href="#DejaVuSans-32"/>
     <use x="2166.6875" xlink:href="#DejaVuSans-102"/>
     <use x="2201.892578" xlink:href="#DejaVuSans-111"/>
     <use x="2263.074219" xlink:href="#DejaVuSans-114"/>
     <use x="2304.1875" xlink:href="#DejaVuSans-32"/>
     <use x="2335.974609" xlink:href="#DejaVuSans-110"/>
     <use x="2399.353516" xlink:href="#DejaVuSans-101"/>
     <use x="2460.876953" xlink:href="#DejaVuSans-116"/>
     <use x="2500.085938" xlink:href="#DejaVuSans-119"/>
     <use x="2581.873047" xlink:href="#DejaVuSans-111"/>
     <use x="2643.054688" xlink:href="#DejaVuSans-114"/>
     <use x="2684.167969" xlink:href="#DejaVuSans-107"/>
     <use x="2742.078125" xlink:href="#DejaVuSans-32"/>
     <use x="2773.865234" xlink:href="#DejaVuSans-104"/>
     <use x="2837.244141" xlink:href="#DejaVuSans-115"/>
     <use x="2889.34375" xlink:href="#DejaVuSans-97"/>
     <use x="2950.623047" xlink:href="#DejaVuSans-48"/>
     <use x="3014.246094" xlink:href="#DejaVuSans-48"/>
     <use x="3077.869141" xlink:href="#DejaVuSans-48"/>
     <use x="3141.492188" xlink:href="#DejaVuSans-50"/>
     <use x="3205.115234" xlink:href="#DejaVuSans-48"/>
     <use x="3268.738281" xlink:href="#DejaVuSans-32"/>
     <use x="3300.525391" xlink:href="#DejaVuSans-102"/>
     <use x="3335.730469" xlink:href="#DejaVuSans-111"/>
     <use x="3396.912109" xlink:href="#DejaVuSans-114"/>
     <use x="3438.025391" xlink:href="#DejaVuSans-32"/>
     <use x="3469.8125" xlink:href="#DejaVuSans-100"/>
     <use x="3533.289062" xlink:href="#DejaVuSans-97"/>
     <use x="3594.568359" xlink:href="#DejaVuSans-116"/>
     <use x="3633.777344" xlink:href="#DejaVuSans-97"/>
     <use x="3695.056641" xlink:href="#DejaVuSans-115"/>
     <use x="3747.15625" xlink:href="#DejaVuSans-101"/>
     <use x="3808.679688" xlink:href="#DejaVuSans-116"/>
     <use x="3847.888672" xlink:href="#DejaVuSans-32"/>
     <use x="3879.675781" xlink:href="#DejaVuSans-103"/>
     <use x="3943.152344" xlink:href="#DejaVuSans-101"/>
     <use x="4004.675781" xlink:href="#DejaVuSans-111"/>
     <use x="4065.857422" xlink:href="#DejaVuSans-114"/>
     <use x="4105.220703" xlink:href="#DejaVuSans-103"/>
     <use x="4168.697266" xlink:href="#DejaVuSans-101"/>
     <use x="4230.220703" xlink:href="#DejaVuSans-95"/>
     <use x="4280.220703" xlink:href="#DejaVuSans-104"/>
     <use x="4343.599609" xlink:href="#DejaVuSans-105"/>
     <use x="4371.382812" xlink:href="#DejaVuSans-118"/>
    </g>
   </g>
   <g id="legend_1">
    <g id="patch_25">
     <path d="M 786.157812 155.714375 
L 1029.8 155.714375 
Q 1031.8 155.714375 1031.8 153.714375 
L 1031.8 110.68 
Q 1031.8 108.68 1029.8 108.68 
L 786.157812 108.68 
Q 784.157812 108.68 784.157812 110.68 
L 784.157812 153.714375 
Q 784.157812 155.714375 786.157812 155.714375 
z
" style="fill:#ffffff;opacity:0.8;stroke:#cccccc;stroke-linejoin:miter;"/>
    </g>
    <g id="text_14">
     <!-- Relative Expression of HIV compared to Healthy -->
     <g transform="translate(788.157812 120.278437)scale(0.1 -0.1)">
      <defs>
       <path d="M 9.8125 72.90625 
L 55.90625 72.90625 
L 55.90625 64.59375 
L 19.671875 64.59375 
L 19.671875 43.015625 
L 54.390625 43.015625 
L 54.390625 34.71875 
L 19.671875 34.71875 
L 19.671875 8.296875 
L 56.78125 8.296875 
L 56.78125 0 
L 9.8125 0 
z
" id="DejaVuSans-69"/>
       <path d="M 54.890625 54.6875 
L 35.109375 28.078125 
L 55.90625 0 
L 45.3125 0 
L 29.390625 21.484375 
L 13.484375 0 
L 2.875 0 
L 24.125 28.609375 
L 4.6875 54.6875 
L 15.28125 54.6875 
L 29.78125 35.203125 
L 44.28125 54.6875 
z
" id="DejaVuSans-120"/>
       <path d="M 28.609375 0 
L 0.78125 72.90625 
L 11.078125 72.90625 
L 34.1875 11.53125 
L 57.328125 72.90625 
L 67.578125 72.90625 
L 39.796875 0 
z
" id="DejaVuSans-86"/>
       <path d="M 32.171875 -5.078125 
Q 28.375 -14.84375 24.75 -17.8125 
Q 21.140625 -20.796875 15.09375 -20.796875 
L 7.90625 -20.796875 
L 7.90625 -13.28125 
L 13.1875 -13.28125 
Q 16.890625 -13.28125 18.9375 -11.515625 
Q 21 -9.765625 23.484375 -3.21875 
L 25.09375 0.875 
L 2.984375 54.6875 
L 12.5 54.6875 
L 29.59375 11.921875 
L 46.6875 54.6875 
L 56.203125 54.6875 
z
" id="DejaVuSans-121"/>
      </defs>
      <use xlink:href="#DejaVuSans-82"/>
      <use x="64.982422" xlink:href="#DejaVuSans-101"/>
      <use x="126.505859" xlink:href="#DejaVuSans-108"/>
      <use x="154.289062" xlink:href="#DejaVuSans-97"/>
      <use x="215.568359" xlink:href="#DejaVuSans-116"/>
      <use x="254.777344" xlink:href="#DejaVuSans-105"/>
      <use x="282.560547" xlink:href="#DejaVuSans-118"/>
      <use x="341.740234" xlink:href="#DejaVuSans-101"/>
      <use x="403.263672" xlink:href="#DejaVuSans-32"/>
      <use x="435.050781" xlink:href="#DejaVuSans-69"/>
      <use x="498.234375" xlink:href="#DejaVuSans-120"/>
      <use x="557.414062" xlink:href="#DejaVuSans-112"/>
      <use x="620.890625" xlink:href="#DejaVuSans-114"/>
      <use x="659.753906" xlink:href="#DejaVuSans-101"/>
      <use x="721.277344" xlink:href="#DejaVuSans-115"/>
      <use x="773.376953" xlink:href="#DejaVuSans-115"/>
      <use x="825.476562" xlink:href="#DejaVuSans-105"/>
      <use x="853.259766" xlink:href="#DejaVuSans-111"/>
      <use x="914.441406" xlink:href="#DejaVuSans-110"/>
      <use x="977.820312" xlink:href="#DejaVuSans-32"/>
      <use x="1009.607422" xlink:href="#DejaVuSans-111"/>
      <use x="1070.789062" xlink:href="#DejaVuSans-102"/>
      <use x="1105.994141" xlink:href="#DejaVuSans-32"/>
      <use x="1137.78125" xlink:href="#DejaVuSans-72"/>
      <use x="1212.976562" xlink:href="#DejaVuSans-73"/>
      <use x="1242.46875" xlink:href="#DejaVuSans-86"/>
      <use x="1310.876953" xlink:href="#DejaVuSans-32"/>
      <use x="1342.664062" xlink:href="#DejaVuSans-99"/>
      <use x="1397.644531" xlink:href="#DejaVuSans-111"/>
      <use x="1458.826172" xlink:href="#DejaVuSans-109"/>
      <use x="1556.238281" xlink:href="#DejaVuSans-112"/>
      <use x="1619.714844" xlink:href="#DejaVuSans-97"/>
      <use x="1680.994141" xlink:href="#DejaVuSans-114"/>
      <use x="1719.857422" xlink:href="#DejaVuSans-101"/>
      <use x="1781.380859" xlink:href="#DejaVuSans-100"/>
      <use x="1844.857422" xlink:href="#DejaVuSans-32"/>
      <use x="1876.644531" xlink:href="#DejaVuSans-116"/>
      <use x="1915.853516" xlink:href="#DejaVuSans-111"/>
      <use x="1977.035156" xlink:href="#DejaVuSans-32"/>
      <use x="2008.822266" xlink:href="#DejaVuSans-72"/>
      <use x="2084.017578" xlink:href="#DejaVuSans-101"/>
      <use x="2145.541016" xlink:href="#DejaVuSans-97"/>
      <use x="2206.820312" xlink:href="#DejaVuSans-108"/>
      <use x="2234.603516" xlink:href="#DejaVuSans-116"/>
      <use x="2273.8125" xlink:href="#DejaVuSans-104"/>
      <use x="2337.191406" xlink:href="#DejaVuSans-121"/>
     </g>
    </g>
    <g id="patch_26">
     <path d="M 822.414844 134.956562 
L 842.414844 134.956562 
L 842.414844 127.956562 
L 822.414844 127.956562 
z
" style="fill:#0000ff;stroke:#0000ff;stroke-linejoin:miter;"/>
    </g>
    <g id="text_15">
     <!-- Decreased expression in HIV -->
     <g transform="translate(850.414844 134.956562)scale(0.1 -0.1)">
      <use xlink:href="#DejaVuSans-68"/>
      <use x="77.001953" xlink:href="#DejaVuSans-101"/>
      <use x="138.525391" xlink:href="#DejaVuSans-99"/>
      <use x="193.505859" xlink:href="#DejaVuSans-114"/>
      <use x="232.369141" xlink:href="#DejaVuSans-101"/>
      <use x="293.892578" xlink:href="#DejaVuSans-97"/>
      <use x="355.171875" xlink:href="#DejaVuSans-115"/>
      <use x="407.271484" xlink:href="#DejaVuSans-101"/>
      <use x="468.794922" xlink:href="#DejaVuSans-100"/>
      <use x="532.271484" xlink:href="#DejaVuSans-32"/>
      <use x="564.058594" xlink:href="#DejaVuSans-101"/>
      <use x="623.832031" xlink:href="#DejaVuSans-120"/>
      <use x="683.011719" xlink:href="#DejaVuSans-112"/>
      <use x="746.488281" xlink:href="#DejaVuSans-114"/>
      <use x="785.351562" xlink:href="#DejaVuSans-101"/>
      <use x="846.875" xlink:href="#DejaVuSans-115"/>
      <use x="898.974609" xlink:href="#DejaVuSans-115"/>
      <use x="951.074219" xlink:href="#DejaVuSans-105"/>
      <use x="978.857422" xlink:href="#DejaVuSans-111"/>
      <use x="1040.039062" xlink:href="#DejaVuSans-110"/>
      <use x="1103.417969" xlink:href="#DejaVuSans-32"/>
      <use x="1135.205078" xlink:href="#DejaVuSans-105"/>
      <use x="1162.988281" xlink:href="#DejaVuSans-110"/>
      <use x="1226.367188" xlink:href="#DejaVuSans-32"/>
      <use x="1258.154297" xlink:href="#DejaVuSans-72"/>
      <use x="1333.349609" xlink:href="#DejaVuSans-73"/>
      <use x="1362.841797" xlink:href="#DejaVuSans-86"/>
     </g>
    </g>
    <g id="patch_27">
     <path d="M 822.414844 149.634687 
L 842.414844 149.634687 
L 842.414844 142.634687 
L 822.414844 142.634687 
z
" style="fill:#ff0000;stroke:#ff0000;stroke-linejoin:miter;"/>
    </g>
    <g id="text_16">
     <!-- Increased expression in HIV -->
     <g transform="translate(850.414844 149.634687)scale(0.1 -0.1)">
      <use xlink:href="#DejaVuSans-73"/>
      <use x="29.492188" xlink:href="#DejaVuSans-110"/>
      <use x="92.871094" xlink:href="#DejaVuSans-99"/>
      <use x="147.851562" xlink:href="#DejaVuSans-114"/>
      <use x="186.714844" xlink:href="#DejaVuSans-101"/>
      <use x="248.238281" xlink:href="#DejaVuSans-97"/>
      <use x="309.517578" xlink:href="#DejaVuSans-115"/>
      <use x="361.617188" xlink:href="#DejaVuSans-101"/>
      <use x="423.140625" xlink:href="#DejaVuSans-100"/>
      <use x="486.617188" xlink:href="#DejaVuSans-32"/>
      <use x="518.404297" xlink:href="#DejaVuSans-101"/>
      <use x="578.177734" xlink:href="#DejaVuSans-120"/>
      <use x="637.357422" xlink:href="#DejaVuSans-112"/>
      <use x="700.833984" xlink:href="#DejaVuSans-114"/>
      <use x="739.697266" xlink:href="#DejaVuSans-101"/>
      <use x="801.220703" xlink:href="#DejaVuSans-115"/>
      <use x="853.320312" xlink:href="#DejaVuSans-115"/>
      <use x="905.419922" xlink:href="#DejaVuSans-105"/>
      <use x="933.203125" xlink:href="#DejaVuSans-111"/>
      <use x="994.384766" xlink:href="#DejaVuSans-110"/>
      <use x="1057.763672" xlink:href="#DejaVuSans-32"/>
      <use x="1089.550781" xlink:href="#DejaVuSans-105"/>
      <use x="1117.333984" xlink:href="#DejaVuSans-110"/>
      <use x="1180.712891" xlink:href="#DejaVuSans-32"/>
      <use x="1212.5" xlink:href="#DejaVuSans-72"/>
      <use x="1287.695312" xlink:href="#DejaVuSans-73"/>
      <use x="1317.1875" xlink:href="#DejaVuSans-86"/>
     </g>
    </g>
   </g>
  </g>
 </g>
 <defs>
  <clipPath id="pc576b27558">
   <rect height="665.28" width="892.8" x="144" y="103.68"/>
  </clipPath>
 </defs>
</svg>
