<?xml version="1.0" encoding="utf-8" standalone="no"?>
<!DOCTYPE svg PUBLIC "-//W3C//DTD SVG 1.1//EN"
  "http://www.w3.org/Graphics/SVG/1.1/DTD/svg11.dtd">
<!-- Created with matplotlib (https://matplotlib.org/) -->
<svg height="576pt" version="1.1" viewBox="0 0 864 576" width="864pt" xmlns="http://www.w3.org/2000/svg" xmlns:xlink="http://www.w3.org/1999/xlink">
 <metadata>
  <rdf:RDF xmlns:cc="http://creativecommons.org/ns#" xmlns:dc="http://purl.org/dc/elements/1.1/" xmlns:rdf="http://www.w3.org/1999/02/22-rdf-syntax-ns#">
   <cc:Work>
    <dc:type rdf:resource="http://purl.org/dc/dcmitype/StillImage"/>
    <dc:date>2024-04-26T13:36:27.751847</dc:date>
    <dc:format>image/svg+xml</dc:format>
    <dc:creator>
     <cc:Agent>
      <dc:title>Matplotlib v3.3.1, https://matplotlib.org/</dc:title>
     </cc:Agent>
    </dc:creator>
   </cc:Work>
  </rdf:RDF>
 </metadata>
 <defs>
  <style type="text/css">*{stroke-linecap:butt;stroke-linejoin:round;}</style>
 </defs>
 <g id="figure_1">
  <g id="patch_1">
   <path d="M 0 576 
L 864 576 
L 864 0 
L 0 0 
z
" style="fill:#ffffff;"/>
  </g>
  <g id="axes_1">
   <g id="patch_2">
    <path clip-path="url(#p42e617de43)" d="M 443.124063 286.070133 
Q 438.742689 274.954941 434.771318 264.879893 
" style="fill:none;stroke:#000000;stroke-linecap:round;"/>
    <path clip-path="url(#p42e617de43)" d="M 434.377523 269.334657 
L 434.771318 264.879893 
L 438.098852 267.867787 
L 434.377523 269.334657 
z
" style="stroke:#000000;stroke-linecap:round;"/>
   </g>
   <g id="patch_3">
    <path clip-path="url(#p42e617de43)" d="M 449.844616 286.223285 
Q 485.817532 205.996402 521.333014 126.789692 
" style="fill:none;stroke:#000000;stroke-linecap:round;"/>
    <path clip-path="url(#p42e617de43)" d="M 517.871503 129.621289 
L 521.333014 126.789692 
L 521.521385 131.257859 
L 517.871503 129.621289 
z
" style="stroke:#000000;stroke-linecap:round;"/>
   </g>
   <g id="patch_4">
    <path clip-path="url(#p42e617de43)" d="M 437.662953 294.772193 
Q 310.684469 304.243995 184.820921 313.632629 
" style="fill:none;stroke:#000000;stroke-linecap:round;"/>
    <path clip-path="url(#p42e617de43)" d="M 188.958613 315.32954 
L 184.820921 313.632629 
L 188.661065 311.340622 
L 188.958613 315.32954 
z
" style="stroke:#000000;stroke-linecap:round;"/>
   </g>
   <g id="patch_5">
    <path clip-path="url(#p42e617de43)" d="M 448.595824 285.775695 
Q 470.248364 206.994621 491.604606 129.291603 
" style="fill:none;stroke:#000000;stroke-linecap:round;"/>
    <path clip-path="url(#p42e617de43)" d="M 488.61605 132.618544 
L 491.604606 129.291603 
L 492.473025 133.678612 
L 488.61605 132.618544 
z
" style="stroke:#000000;stroke-linecap:round;"/>
   </g>
   <g id="patch_6">
    <path clip-path="url(#p42e617de43)" d="M 437.751121 295.529434 
Q 315.57687 315.558453 194.505927 335.406598 
" style="fill:none;stroke:#000000;stroke-linecap:round;"/>
    <path clip-path="url(#p42e617de43)" d="M 198.776792 336.733137 
L 194.505927 335.406598 
L 198.129678 332.785829 
L 198.776792 336.733137 
z
" style="stroke:#000000;stroke-linecap:round;"/>
   </g>
   <g id="patch_7">
    <path clip-path="url(#p42e617de43)" d="M 439.222575 299.115912 
Q 350.345083 361.75239 262.381477 423.744807 
" style="fill:none;stroke:#000000;stroke-linecap:round;"/>
    <path clip-path="url(#p42e617de43)" d="M 266.803222 423.075352 
L 262.381477 423.744807 
L 264.498959 419.805738 
L 266.803222 423.075352 
z
" style="stroke:#000000;stroke-linecap:round;"/>
   </g>
   <g id="patch_8">
    <path clip-path="url(#p42e617de43)" d="M 454.302309 290.810393 
Q 556.614346 248.393561 657.893589 206.404909 
" style="fill:none;stroke:#000000;stroke-linecap:round;"/>
    <path clip-path="url(#p42e617de43)" d="M 653.432604 206.08929 
L 657.893589 206.404909 
L 654.964503 209.784325 
L 653.432604 206.08929 
z
" style="stroke:#000000;stroke-linecap:round;"/>
   </g>
   <g id="patch_9">
    <path clip-path="url(#p42e617de43)" d="M 437.857339 292.192957 
Q 313.863202 263.77604 190.958845 235.608878 
" style="fill:none;stroke:#000000;stroke-linecap:round;"/>
    <path clip-path="url(#p42e617de43)" d="M 194.410987 238.451889 
L 190.958845 235.608878 
L 195.30454 234.552971 
L 194.410987 238.451889 
z
" style="stroke:#000000;stroke-linecap:round;"/>
   </g>
   <g id="patch_10">
    <path clip-path="url(#p42e617de43)" d="M 440.189121 287.99264 
Q 372.867495 220.405318 306.334879 153.610121 
" style="fill:none;stroke:#000000;stroke-linecap:round;"/>
    <path clip-path="url(#p42e617de43)" d="M 307.740734 157.855538 
L 306.334879 153.610121 
L 310.574726 155.032687 
L 307.740734 157.855538 
z
" style="stroke:#000000;stroke-linecap:round;"/>
   </g>
   <g id="patch_11">
    <path clip-path="url(#p42e617de43)" d="M 438.810804 298.483279 
Q 343.225474 354.069376 248.606635 409.093427 
" style="fill:none;stroke:#000000;stroke-linecap:round;"/>
    <path clip-path="url(#p42e617de43)" d="M 253.069876 408.811498 
L 248.606635 409.093427 
L 251.059036 405.353677 
L 253.069876 408.811498 
z
" style="stroke:#000000;stroke-linecap:round;"/>
   </g>
   <g id="patch_12">
    <path clip-path="url(#p42e617de43)" d="M 442.153709 301.733708 
Q 400.473833 378.184842 359.329125 453.654346 
" style="fill:none;stroke:#000000;stroke-linecap:round;"/>
    <path clip-path="url(#p42e617de43)" d="M 362.999791 451.099701 
L 359.329125 453.654346 
L 359.487808 449.185027 
L 362.999791 451.099701 
z
" style="stroke:#000000;stroke-linecap:round;"/>
   </g>
   <g id="patch_13">
    <path clip-path="url(#p42e617de43)" d="M 449.577202 302.146294 
Q 482.12982 381.799851 514.25948 460.418465 
" style="fill:none;stroke:#000000;stroke-linecap:round;"/>
    <path clip-path="url(#p42e617de43)" d="M 514.597622 455.959131 
L 514.25948 460.418465 
L 510.894898 457.472351 
L 514.597622 455.959131 
z
" style="stroke:#000000;stroke-linecap:round;"/>
   </g>
   <g id="patch_14">
    <path clip-path="url(#p42e617de43)" d="M 447.280738 285.524207 
Q 456.928179 200.867336 466.449028 117.321308 
" style="fill:none;stroke:#000000;stroke-linecap:round;"/>
    <path clip-path="url(#p42e617de43)" d="M 464.008984 121.069132 
L 466.449028 117.321308 
L 467.983261 121.522038 
L 464.008984 121.069132 
z
" style="stroke:#000000;stroke-linecap:round;"/>
   </g>
   <g id="patch_15">
    <path clip-path="url(#p42e617de43)" d="M 454.958467 293.958256 
Q 582.8972 291.451441 709.718113 288.966528 
" style="fill:none;stroke:#000000;stroke-linecap:round;"/>
    <path clip-path="url(#p42e617de43)" d="M 705.679701 287.045273 
L 709.718113 288.966528 
L 705.758061 291.044505 
L 705.679701 287.045273 
z
" style="stroke:#000000;stroke-linecap:round;"/>
   </g>
   <g id="patch_16">
    <path clip-path="url(#p42e617de43)" d="M 454.908437 293.179468 
Q 579.163526 279.489225 702.307306 265.921425 
" style="fill:none;stroke:#000000;stroke-linecap:round;"/>
    <path clip-path="url(#p42e617de43)" d="M 698.112334 264.371518 
L 702.307306 265.921425 
L 698.550397 268.347458 
L 698.112334 264.371518 
z
" style="stroke:#000000;stroke-linecap:round;"/>
   </g>
   <g id="patch_17">
    <path clip-path="url(#p42e617de43)" d="M 454.504804 296.898579 
Q 570.022484 335.908935 684.4809 374.561577 
" style="fill:none;stroke:#000000;stroke-linecap:round;"/>
    <path clip-path="url(#p42e617de43)" d="M 681.331059 371.386911 
L 684.4809 374.561577 
L 680.051263 375.17665 
L 681.331059 371.386911 
z
" style="stroke:#000000;stroke-linecap:round;"/>
   </g>
   <g id="patch_18">
    <path clip-path="url(#p42e617de43)" d="M 454.003611 290.166515 
Q 555.716756 237.861282 656.435629 186.067345 
" style="fill:none;stroke:#000000;stroke-linecap:round;"/>
    <path clip-path="url(#p42e617de43)" d="M 651.96378 186.118009 
L 656.435629 186.067345 
L 653.793051 189.675223 
L 651.96378 186.118009 
z
" style="stroke:#000000;stroke-linecap:round;"/>
   </g>
   <g id="patch_19">
    <path clip-path="url(#p42e617de43)" d="M 452.903101 288.52138 
Q 532.193044 221.195612 610.630738 154.593497 
" style="fill:none;stroke:#000000;stroke-linecap:round;"/>
    <path clip-path="url(#p42e617de43)" d="M 606.287132 155.657963 
L 610.630738 154.593497 
L 608.876147 158.707061 
L 606.287132 155.657963 
z
" style="stroke:#000000;stroke-linecap:round;"/>
   </g>
   <g id="patch_20">
    <path clip-path="url(#p42e617de43)" d="M 440.966861 287.304713 
Q 382.725898 212.795248 325.17347 139.166647 
" style="fill:none;stroke:#000000;stroke-linecap:round;"/>
    <path clip-path="url(#p42e617de43)" d="M 326.06111 143.549807 
L 325.17347 139.166647 
L 329.212582 141.086431 
L 326.06111 143.549807 
z
" style="stroke:#000000;stroke-linecap:round;"/>
   </g>
   <g id="patch_21">
    <path clip-path="url(#p42e617de43)" d="M 438.948847 289.556774 
Q 343.225517 230.035789 248.451639 171.105176 
" style="fill:none;stroke:#000000;stroke-linecap:round;"/>
    <path clip-path="url(#p42e617de43)" d="M 250.792415 174.915789 
L 248.451639 171.105176 
L 252.904595 171.518922 
L 250.792415 174.915789 
z
" style="stroke:#000000;stroke-linecap:round;"/>
   </g>
   <g id="patch_22">
    <path clip-path="url(#p42e617de43)" d="M 454.864501 295.389043 
Q 579.235199 313.703448 702.499791 331.854971 
" style="fill:none;stroke:#000000;stroke-linecap:round;"/>
    <path clip-path="url(#p42e617de43)" d="M 698.833839 329.293567 
L 702.499791 331.854971 
L 698.251097 333.250891 
L 698.833839 329.293567 
z
" style="stroke:#000000;stroke-linecap:round;"/>
   </g>
   <g id="patch_23">
    <path clip-path="url(#p42e617de43)" d="M 444.461378 302.588777 
Q 426.868889 383.533255 409.51385 463.385205 
" style="fill:none;stroke:#000000;stroke-linecap:round;"/>
    <path clip-path="url(#p42e617de43)" d="M 412.317751 459.901222 
L 409.51385 463.385205 
L 408.409004 459.051694 
L 412.317751 459.901222 
z
" style="stroke:#000000;stroke-linecap:round;"/>
   </g>
   <g id="patch_24">
    <path clip-path="url(#p42e617de43)" d="M 448.80517 302.415997 
Q 472.992931 382.447194 496.85724 461.408168 
" style="fill:none;stroke:#000000;stroke-linecap:round;"/>
    <path clip-path="url(#p42e617de43)" d="M 497.614494 457.00061 
L 496.85724 461.408168 
L 493.785546 458.15783 
L 497.614494 457.00061 
z
" style="stroke:#000000;stroke-linecap:round;"/>
   </g>
   <g id="patch_25">
    <path clip-path="url(#p42e617de43)" d="M 439.694585 299.728798 
Q 362.886746 364.853438 286.931668 429.25503 
" style="fill:none;stroke:#000000;stroke-linecap:round;"/>
    <path clip-path="url(#p42e617de43)" d="M 291.276027 428.19364 
L 286.931668 429.25503 
L 288.689171 425.142709 
L 291.276027 428.19364 
z
" style="stroke:#000000;stroke-linecap:round;"/>
   </g>
   <g id="patch_26">
    <path clip-path="url(#p42e617de43)" d="M 443.103865 286.081245 
Q 410.951946 205.141609 379.212774 125.241029 
" style="fill:none;stroke:#000000;stroke-linecap:round;"/>
    <path clip-path="url(#p42e617de43)" d="M 378.830745 129.696818 
L 379.212774 125.241029 
L 382.548187 128.220126 
L 378.830745 129.696818 
z
" style="stroke:#000000;stroke-linecap:round;"/>
   </g>
   <g id="patch_27">
    <path clip-path="url(#p42e617de43)" d="M 443.166434 302.201221 
Q 411.360019 384.140301 379.958182 465.037116 
" style="fill:none;stroke:#000000;stroke-linecap:round;"/>
    <path clip-path="url(#p42e617de43)" d="M 383.270104 462.031925 
L 379.958182 465.037116 
L 379.541182 460.584464 
L 383.270104 462.031925 
z
" style="stroke:#000000;stroke-linecap:round;"/>
   </g>
   <g id="patch_28">
    <path clip-path="url(#p42e617de43)" d="M 437.637391 294.009911 
Q 314.695724 292.335393 192.871988 290.676101 
" style="fill:none;stroke:#000000;stroke-linecap:round;"/>
    <path clip-path="url(#p42e617de43)" d="M 196.844378 292.730392 
L 192.871988 290.676101 
L 196.898855 288.730763 
L 196.844378 292.730392 
z
" style="stroke:#000000;stroke-linecap:round;"/>
   </g>
   <g id="patch_29">
    <path clip-path="url(#p42e617de43)" d="M 438.047786 291.511224 
Q 327.643967 256.504602 218.305891 221.835904 
" style="fill:none;stroke:#000000;stroke-linecap:round;"/>
    <path clip-path="url(#p42e617de43)" d="M 221.514312 224.951355 
L 218.305891 221.835904 
L 222.723304 221.138438 
L 221.514312 224.951355 
z
" style="stroke:#000000;stroke-linecap:round;"/>
   </g>
   <g id="patch_30">
    <path clip-path="url(#p42e617de43)" d="M 454.783008 292.398735 
Q 572.472246 268.40831 689.06598 244.641199 
" style="fill:none;stroke:#000000;stroke-linecap:round;"/>
    <path clip-path="url(#p42e617de43)" d="M 684.747107 243.480452 
L 689.06598 244.641199 
L 685.546058 247.399849 
L 684.747107 243.480452 
z
" style="stroke:#000000;stroke-linecap:round;"/>
   </g>
   <g id="patch_31">
    <path clip-path="url(#p42e617de43)" d="M 439.496835 288.765541 
Q 358.216383 224.701508 277.814006 161.329562 
" style="fill:none;stroke:#000000;stroke-linecap:round;"/>
    <path clip-path="url(#p42e617de43)" d="M 279.717464 165.376393 
L 277.814006 161.329562 
L 282.193546 162.234894 
L 279.717464 165.376393 
z
" style="stroke:#000000;stroke-linecap:round;"/>
   </g>
   <g id="patch_32">
    <path clip-path="url(#p42e617de43)" d="M 451.081088 286.90445 
Q 502.430083 209.320082 553.162018 132.668042 
" style="fill:none;stroke:#000000;stroke-linecap:round;"/>
    <path clip-path="url(#p42e617de43)" d="M 549.286558 134.899815 
L 553.162018 132.668042 
L 552.62216 137.107474 
L 549.286558 134.899815 
z
" style="stroke:#000000;stroke-linecap:round;"/>
   </g>
   <g id="patch_33">
    <path clip-path="url(#p42e617de43)" d="M 441.923643 286.651964 
Q 394.915999 206.355733 348.473208 127.024355 
" style="fill:none;stroke:#000000;stroke-linecap:round;"/>
    <path clip-path="url(#p42e617de43)" d="M 348.768101 131.486758 
L 348.473208 127.024355 
L 352.220066 129.465882 
L 348.768101 131.486758 
z
" style="stroke:#000000;stroke-linecap:round;"/>
   </g>
   <g id="patch_34">
    <path clip-path="url(#p42e617de43)" d="M 454.575904 291.58365 
Q 569.169209 256.353204 682.693844 221.451308 
" style="fill:none;stroke:#000000;stroke-linecap:round;"/>
    <path clip-path="url(#p42e617de43)" d="M 678.282727 220.715073 
L 682.693844 221.451308 
L 679.458185 224.538461 
L 678.282727 220.715073 
z
" style="stroke:#000000;stroke-linecap:round;"/>
   </g>
   <g id="patch_35">
    <path clip-path="url(#p42e617de43)" d="M 441.147761 301.087796 
Q 386.577618 374.79996 332.672712 447.613536 
" style="fill:none;stroke:#000000;stroke-linecap:round;"/>
    <path clip-path="url(#p42e617de43)" d="M 336.660179 445.588663 
L 332.672712 447.613536 
L 333.445294 443.208639 
L 336.660179 445.588663 
z
" style="stroke:#000000;stroke-linecap:round;"/>
   </g>
   <g id="patch_36">
    <path clip-path="url(#p42e617de43)" d="M 437.651074 293.702977 
Q 306.202122 287.245024 175.869857 280.841931 
" style="fill:none;stroke:#000000;stroke-linecap:round;"/>
    <path clip-path="url(#p42e617de43)" d="M 179.766899 283.035801 
L 175.869857 280.841931 
L 179.963178 279.04062 
L 179.766899 283.035801 
z
" style="stroke:#000000;stroke-linecap:round;"/>
   </g>
   <g id="patch_37">
    <path clip-path="url(#p42e617de43)" d="M 454.948232 294.657947 
Q 578.657959 302.240251 701.251747 309.754157 
" style="fill:none;stroke:#000000;stroke-linecap:round;"/>
    <path clip-path="url(#p42e617de43)" d="M 697.381591 307.513198 
L 701.251747 309.754157 
L 697.136886 311.505706 
L 697.381591 307.513198 
z
" style="stroke:#000000;stroke-linecap:round;"/>
   </g>
   <g id="patch_38">
    <path clip-path="url(#p42e617de43)" d="M 452.801511 299.848571 
Q 531.821792 369.381211 610.002723 438.175279 
" style="fill:none;stroke:#000000;stroke-linecap:round;"/>
    <path clip-path="url(#p42e617de43)" d="M 608.320971 434.031403 
L 610.002723 438.175279 
L 605.678571 437.034355 
L 608.320971 434.031403 
z
" style="stroke:#000000;stroke-linecap:round;"/>
   </g>
   <g id="patch_39">
    <path clip-path="url(#p42e617de43)" d="M 450.51628 301.69388 
Q 494.18659 380.063773 537.312684 457.457026 
" style="fill:none;stroke:#000000;stroke-linecap:round;"/>
    <path clip-path="url(#p42e617de43)" d="M 537.112703 452.989364 
L 537.312684 457.457026 
L 533.618566 454.936413 
L 537.112703 452.989364 
z
" style="stroke:#000000;stroke-linecap:round;"/>
   </g>
   <g id="patch_40">
    <path clip-path="url(#p42e617de43)" d="M 454.728878 296.110479 
Q 579.019995 325.346194 702.22278 354.325912 
" style="fill:none;stroke:#000000;stroke-linecap:round;"/>
    <path clip-path="url(#p42e617de43)" d="M 698.786988 351.463163 
L 702.22278 354.325912 
L 697.871105 355.356896 
L 698.786988 351.463163 
z
" style="stroke:#000000;stroke-linecap:round;"/>
   </g>
   <g id="patch_41">
    <path clip-path="url(#p42e617de43)" d="M 451.435853 301.104373 
Q 508.32967 378.39212 564.560686 454.779482 
" style="fill:none;stroke:#000000;stroke-linecap:round;"/>
    <path clip-path="url(#p42e617de43)" d="M 563.800036 450.372508 
L 564.560686 454.779482 
L 560.578717 452.743817 
L 563.800036 450.372508 
z
" style="stroke:#000000;stroke-linecap:round;"/>
   </g>
   <g id="patch_42">
    <path clip-path="url(#p42e617de43)" d="M 438.187166 297.164777 
Q 329.13171 337.98611 221.123337 378.415502 
" style="fill:none;stroke:#000000;stroke-linecap:round;"/>
    <path clip-path="url(#p42e617de43)" d="M 225.570619 378.88633 
L 221.123337 378.415502 
L 224.168368 375.140173 
L 225.570619 378.88633 
z
" style="stroke:#000000;stroke-linecap:round;"/>
   </g>
   <g id="patch_43">
    <path clip-path="url(#p42e617de43)" d="M 440.346977 300.420602 
Q 372.769475 371.850837 305.960337 442.468902 
" style="fill:none;stroke:#000000;stroke-linecap:round;"/>
    <path clip-path="url(#p42e617de43)" d="M 310.162168 440.937687 
L 305.960337 442.468902 
L 307.256464 438.188709 
L 310.162168 440.937687 
z
" style="stroke:#000000;stroke-linecap:round;"/>
   </g>
   <g id="patch_44">
    <path clip-path="url(#p42e617de43)" d="M 453.495124 289.307137 
Q 540.490842 231.017446 626.557743 173.350089 
" style="fill:none;stroke:#000000;stroke-linecap:round;"/>
    <path clip-path="url(#p42e617de43)" d="M 622.121443 173.915102 
L 626.557743 173.350089 
L 624.347974 177.238137 
L 622.121443 173.915102 
z
" style="stroke:#000000;stroke-linecap:round;"/>
   </g>
   <g id="patch_45">
    <path clip-path="url(#p42e617de43)" d="M 454.153482 297.783959 
Q 561.852794 347.923242 668.538528 397.590655 
" style="fill:none;stroke:#000000;stroke-linecap:round;"/>
    <path clip-path="url(#p42e617de43)" d="M 665.756349 394.089301 
L 668.538528 397.590655 
L 664.068137 397.715585 
L 665.756349 394.089301 
z
" style="stroke:#000000;stroke-linecap:round;"/>
   </g>
   <g id="patch_46">
    <path clip-path="url(#p42e617de43)" d="M 438.554878 290.261732 
Q 337.794268 239.966282 238.033995 190.170158 
" style="fill:none;stroke:#000000;stroke-linecap:round;"/>
    <path clip-path="url(#p42e617de43)" d="M 240.719687 193.746057 
L 238.033995 190.170158 
L 242.506129 190.167144 
L 240.719687 193.746057 
z
" style="stroke:#000000;stroke-linecap:round;"/>
   </g>
   <g id="patch_47">
    <path clip-path="url(#p42e617de43)" d="M 499.705665 469.178819 
Q 563.769169 446.839482 626.776983 424.868271 
" style="fill:none;stroke:#000000;stroke-linecap:round;"/>
    <path clip-path="url(#p42e617de43)" d="M 622.341505 424.296841 
L 626.776983 424.868271 
L 623.658552 428.073795 
L 622.341505 424.296841 
z
" style="stroke:#000000;stroke-linecap:round;"/>
   </g>
   <g id="patch_48">
    <path clip-path="url(#p42e617de43)" d="M 423.008433 258.635036 
Q 357.528658 281.46542 293.104588 303.927718 
" style="fill:none;stroke:#000000;stroke-linecap:round;"/>
    <path clip-path="url(#p42e617de43)" d="M 297.540044 304.499318 
L 293.104588 303.927718 
L 296.223142 300.722313 
L 297.540044 304.499318 
z
" style="stroke:#000000;stroke-linecap:round;"/>
   </g>
   <g id="patch_49">
    <path clip-path="url(#p42e617de43)" d="M 504.413632 386.016539 
Q 473.69672 423.940799 443.683499 460.996256 
" style="fill:none;stroke:#000000;stroke-linecap:round;"/>
    <path clip-path="url(#p42e617de43)" d="M 447.755262 459.146731 
L 443.683499 460.996256 
L 444.646937 456.62913 
L 447.755262 459.146731 
z
" style="stroke:#000000;stroke-linecap:round;"/>
   </g>
   <g id="patch_50">
    <path clip-path="url(#p42e617de43)" d="M 558.515745 301.646188 
Q 536.488989 336.797694 515.055896 371.001801 
" style="fill:none;stroke:#000000;stroke-linecap:round;"/>
    <path clip-path="url(#p42e617de43)" d="M 518.874606 368.674259 
L 515.055896 371.001801 
L 515.485088 366.550308 
L 518.874606 368.674259 
z
" style="stroke:#000000;stroke-linecap:round;"/>
   </g>
   <g id="patch_51">
    <path clip-path="url(#p42e617de43)" d="M 279.574997 314.661482 
Q 254.652802 358.219051 230.285848 400.806203 
" style="fill:none;stroke:#000000;stroke-linecap:round;"/>
    <path clip-path="url(#p42e617de43)" d="M 234.008269 398.327579 
L 230.285848 400.806203 
L 230.536401 396.341092 
L 234.008269 398.327579 
z
" style="stroke:#000000;stroke-linecap:round;"/>
   </g>
   <g id="patch_52">
    <path clip-path="url(#p42e617de43)" d="M 234.075443 409.741718 
Q 288.753464 412.573343 342.314947 415.347145 
" style="fill:none;stroke:#000000;stroke-linecap:round;"/>
    <path clip-path="url(#p42e617de43)" d="M 338.423736 413.14295 
L 342.314947 415.347145 
L 338.216864 417.137597 
L 338.423736 413.14295 
z
" style="stroke:#000000;stroke-linecap:round;"/>
   </g>
   <g id="patch_53">
    <path clip-path="url(#p42e617de43)" d="M 344.031842 412.644543 
Q 281.392736 387.668337 219.792151 363.106222 
" style="fill:none;stroke:#000000;stroke-linecap:round;"/>
    <path clip-path="url(#p42e617de43)" d="M 222.766931 366.445487 
L 219.792151 363.106222 
L 224.24843 362.729958 
L 222.766931 366.445487 
z
" style="stroke:#000000;stroke-linecap:round;"/>
   </g>
   <g id="patch_54">
    <path clip-path="url(#p42e617de43)" d="M 360.108233 419.087851 
Q 421.800859 443.941253 482.456443 468.376873 
" style="fill:none;stroke:#000000;stroke-linecap:round;"/>
    <path clip-path="url(#p42e617de43)" d="M 479.493555 465.027052 
L 482.456443 468.376873 
L 477.998854 468.737291 
L 479.493555 465.027052 
z
" style="stroke:#000000;stroke-linecap:round;"/>
   </g>
   <g id="patch_55">
    <path clip-path="url(#p42e617de43)" d="M 417.116377 241.911482 
Q 498.132551 340.247755 578.437808 437.721127 
" style="fill:none;stroke:#000000;stroke-linecap:round;"/>
    <path clip-path="url(#p42e617de43)" d="M 577.437958 433.362193 
L 578.437808 437.721127 
L 574.350751 435.905646 
L 577.437958 433.362193 
z
" style="stroke:#000000;stroke-linecap:round;"/>
   </g>
   <g id="patch_56">
    <path clip-path="url(#p42e617de43)" d="M 403.064317 233.826919 
Q 305.647732 217.84469 209.334431 202.043467 
" style="fill:none;stroke:#000000;stroke-linecap:round;"/>
    <path clip-path="url(#p42e617de43)" d="M 212.95787 204.664668 
L 209.334431 202.043467 
L 213.605455 200.717437 
L 212.95787 204.664668 
z
" style="stroke:#000000;stroke-linecap:round;"/>
   </g>
   <g id="patch_57">
    <path clip-path="url(#p42e617de43)" d="M 413.317116 226.741628 
Q 423.908883 174.051679 434.280311 122.457838 
" style="fill:none;stroke:#000000;stroke-linecap:round;"/>
    <path clip-path="url(#p42e617de43)" d="M 431.531222 125.985233 
L 434.280311 122.457838 
L 435.452774 126.773545 
L 431.531222 125.985233 
z
" style="stroke:#000000;stroke-linecap:round;"/>
   </g>
   <g id="patch_58">
    <path clip-path="url(#p42e617de43)" d="M 411.170763 226.577648 
Q 408.383878 171.805543 405.653807 118.150027 
" style="fill:none;stroke:#000000;stroke-linecap:round;"/>
    <path clip-path="url(#p42e617de43)" d="M 403.859654 122.246491 
L 405.653807 118.150027 
L 407.854486 122.043228 
L 403.859654 122.246491 
z
" style="stroke:#000000;stroke-linecap:round;"/>
   </g>
   <g id="patch_59">
    <path clip-path="url(#p42e617de43)" d="M 402.982969 235.989722 
Q 295.598421 245.456639 189.327588 254.825371 
" style="fill:none;stroke:#000000;stroke-linecap:round;"/>
    <path clip-path="url(#p42e617de43)" d="M 193.487771 256.466371 
L 189.327588 254.825371 
L 193.136497 252.481825 
L 193.487771 256.466371 
z
" style="stroke:#000000;stroke-linecap:round;"/>
   </g>
   <g id="patch_60">
    <path clip-path="url(#p42e617de43)" d="M 419.217313 231.087934 
Q 496.939921 188.773144 573.680591 146.992954 
" style="fill:none;stroke:#000000;stroke-linecap:round;"/>
    <path clip-path="url(#p42e617de43)" d="M 569.21118 147.149052 
L 573.680591 146.992954 
L 571.123823 150.662142 
L 569.21118 147.149052 
z
" style="stroke:#000000;stroke-linecap:round;"/>
   </g>
   <g id="patch_61">
    <path clip-path="url(#p42e617de43)" d="M 574.803903 435.824334 
Q 537.136251 452.201148 500.493918 468.132182 
" style="fill:none;stroke:#000000;stroke-linecap:round;"/>
    <path clip-path="url(#p42e617de43)" d="M 504.959648 468.37146 
L 500.493918 468.132182 
L 503.364779 464.703165 
L 504.959648 468.37146 
z
" style="stroke:#000000;stroke-linecap:round;"/>
   </g>
   <g id="patch_62">
    <path clip-path="url(#p42e617de43)" d="M 522.281508 434.596313 
Q 509.653137 449.967474 497.734496 464.474758 
" style="fill:none;stroke:#000000;stroke-linecap:round;"/>
    <path clip-path="url(#p42e617de43)" d="M 501.819052 462.653658 
L 497.734496 464.474758 
L 498.72835 460.114453 
L 501.819052 462.653658 
z
" style="stroke:#000000;stroke-linecap:round;"/>
   </g>
   <g id="patch_63">
    <path clip-path="url(#p42e617de43)" d="M 338.26429 386.341956 
Q 411.115132 427.072833 482.990108 467.258104 
" style="fill:none;stroke:#000000;stroke-linecap:round;"/>
    <path clip-path="url(#p42e617de43)" d="M 480.474755 463.560402 
L 482.990108 467.258104 
L 478.522735 467.051766 
L 480.474755 463.560402 
z
" style="stroke:#000000;stroke-linecap:round;"/>
   </g>
   <g id="patch_64">
    <path clip-path="url(#p42e617de43)" d="M 497.538938 345.35819 
Q 494.738022 404.370705 491.990113 462.266442 
" style="fill:none;stroke:#000000;stroke-linecap:round;"/>
    <path clip-path="url(#p42e617de43)" d="M 494.177502 458.365759 
L 491.990113 462.266442 
L 490.182 458.17612 
L 494.177502 458.365759 
z
" style="stroke:#000000;stroke-linecap:round;"/>
   </g>
   <g id="PathCollection_1">
    <defs>
     <path d="M 0 8.660254 
C 2.296726 8.660254 4.499694 7.747755 6.123724 6.123724 
C 7.747755 4.499694 8.660254 2.296726 8.660254 -0 
C 8.660254 -2.296726 7.747755 -4.499694 6.123724 -6.123724 
C 4.499694 -7.747755 2.296726 -8.660254 0 -8.660254 
C -2.296726 -8.660254 -4.499694 -7.747755 -6.123724 -6.123724 
C -7.747755 -4.499694 -8.660254 -2.296726 -8.660254 0 
C -8.660254 2.296726 -7.747755 4.499694 -6.123724 6.123724 
C -4.499694 7.747755 -2.296726 8.660254 0 8.660254 
z
" id="C0_0_87ff70f5c1"/>
    </defs>
    <g clip-path="url(#p42e617de43)">
     <use style="fill:#008000;stroke:#008000;" x="446.300266" xlink:href="#C0_0_87ff70f5c1" y="294.127904"/>
    </g>
    <g clip-path="url(#p42e617de43)">
     <use style="fill:#008000;stroke:#008000;" x="525.334811" xlink:href="#C0_0_87ff70f5c1" y="117.864873"/>
    </g>
    <g clip-path="url(#p42e617de43)">
     <use style="fill:#008000;stroke:#008000;" x="184.855189" xlink:href="#C0_0_87ff70f5c1" y="336.988722"/>
    </g>
    <g clip-path="url(#p42e617de43)">
     <use style="fill:#ff0000;stroke:#ff0000;" x="254.391462" xlink:href="#C0_0_87ff70f5c1" y="429.375776"/>
    </g>
    <g clip-path="url(#p42e617de43)">
     <use style="fill:#008000;stroke:#008000;" x="175.071263" xlink:href="#C0_0_87ff70f5c1" y="314.359893"/>
    </g>
    <g clip-path="url(#p42e617de43)">
     <use style="fill:#ff0000;stroke:#ff0000;" x="491.526662" xlink:href="#C0_0_87ff70f5c1" y="472.030888"/>
    </g>
    <g clip-path="url(#p42e617de43)">
     <use style="fill:#ff0000;stroke:#ff0000;" x="636.006215" xlink:href="#C0_0_87ff70f5c1" y="421.649981"/>
    </g>
    <g clip-path="url(#p42e617de43)">
     <use style="fill:#008000;stroke:#008000;" x="494.196379" xlink:href="#C0_0_87ff70f5c1" y="119.861641"/>
    </g>
    <g clip-path="url(#p42e617de43)">
     <use style="fill:#ff0000;stroke:#ff0000;" x="431.185858" xlink:href="#C0_0_87ff70f5c1" y="255.783869"/>
    </g>
    <g clip-path="url(#p42e617de43)">
     <use style="fill:#ff0000;stroke:#ff0000;" x="509.864016" xlink:href="#C0_0_87ff70f5c1" y="379.287289"/>
    </g>
    <g clip-path="url(#p42e617de43)">
     <use style="fill:#ff0000;stroke:#ff0000;" x="437.527778" xlink:href="#C0_0_87ff70f5c1" y="468.596342"/>
    </g>
    <g clip-path="url(#p42e617de43)">
     <use style="fill:#ff0000;stroke:#ff0000;" x="563.112951" xlink:href="#C0_0_87ff70f5c1" y="294.309714"/>
    </g>
    <g clip-path="url(#p42e617de43)">
     <use style="fill:#ff0000;stroke:#ff0000;" x="283.875322" xlink:href="#C0_0_87ff70f5c1" y="307.145623"/>
    </g>
    <g clip-path="url(#p42e617de43)">
     <use style="fill:#ff0000;stroke:#ff0000;" x="225.429432" xlink:href="#C0_0_87ff70f5c1" y="409.293965"/>
    </g>
    <g clip-path="url(#p42e617de43)">
     <use style="fill:#ff0000;stroke:#ff0000;" x="352.077839" xlink:href="#C0_0_87ff70f5c1" y="415.852739"/>
    </g>
    <g clip-path="url(#p42e617de43)">
     <use style="fill:#ff0000;stroke:#ff0000;" x="210.709882" xlink:href="#C0_0_87ff70f5c1" y="359.484832"/>
    </g>
    <g clip-path="url(#p42e617de43)">
     <use style="fill:#008000;stroke:#008000;" x="666.923693" xlink:href="#C0_0_87ff70f5c1" y="202.661181"/>
    </g>
    <g clip-path="url(#p42e617de43)">
     <use style="fill:#ff0000;stroke:#ff0000;" x="411.610961" xlink:href="#C0_0_87ff70f5c1" y="235.229087"/>
    </g>
    <g clip-path="url(#p42e617de43)">
     <use style="fill:#ff0000;stroke:#ff0000;" x="584.657942" xlink:href="#C0_0_87ff70f5c1" y="445.271036"/>
    </g>
    <g clip-path="url(#p42e617de43)">
     <use style="fill:#ff0000;stroke:#ff0000;" x="199.687819" xlink:href="#C0_0_87ff70f5c1" y="200.460838"/>
    </g>
    <g clip-path="url(#p42e617de43)">
     <use style="fill:#ff0000;stroke:#ff0000;" x="436.207209" xlink:href="#C0_0_87ff70f5c1" y="112.872264"/>
    </g>
    <g clip-path="url(#p42e617de43)">
     <use style="fill:#ff0000;stroke:#ff0000;" x="405.157089" xlink:href="#C0_0_87ff70f5c1" y="108.387773"/>
    </g>
    <g clip-path="url(#p42e617de43)">
     <use style="fill:#008000;stroke:#008000;" x="181.429191" xlink:href="#C0_0_87ff70f5c1" y="233.424876"/>
    </g>
    <g clip-path="url(#p42e617de43)">
     <use style="fill:#008000;stroke:#008000;" x="299.43558" xlink:href="#C0_0_87ff70f5c1" y="146.683593"/>
    </g>
    <g clip-path="url(#p42e617de43)">
     <use style="fill:#008000;stroke:#008000;" x="240.156035" xlink:href="#C0_0_87ff70f5c1" y="414.007736"/>
    </g>
    <g clip-path="url(#p42e617de43)">
     <use style="fill:#008000;stroke:#008000;" x="354.648068" xlink:href="#C0_0_87ff70f5c1" y="462.240555"/>
    </g>
    <g clip-path="url(#p42e617de43)">
     <use style="fill:#ff0000;stroke:#ff0000;" x="517.957681" xlink:href="#C0_0_87ff70f5c1" y="469.467656"/>
    </g>
    <g clip-path="url(#p42e617de43)">
     <use style="fill:#ff0000;stroke:#ff0000;" x="467.556033" xlink:href="#C0_0_87ff70f5c1" y="107.607273"/>
    </g>
    <g clip-path="url(#p42e617de43)">
     <use style="fill:#ff0000;stroke:#ff0000;" x="719.494215" xlink:href="#C0_0_87ff70f5c1" y="288.774977"/>
    </g>
    <g clip-path="url(#p42e617de43)">
     <use style="fill:#ff0000;stroke:#ff0000;" x="712.030412" xlink:href="#C0_0_87ff70f5c1" y="264.850147"/>
    </g>
    <g clip-path="url(#p42e617de43)">
     <use style="fill:#ff0000;stroke:#ff0000;" x="693.742797" xlink:href="#C0_0_87ff70f5c1" y="377.689322"/>
    </g>
    <g clip-path="url(#p42e617de43)">
     <use style="fill:#ff0000;stroke:#ff0000;" x="665.132684" xlink:href="#C0_0_87ff70f5c1" y="181.594949"/>
    </g>
    <g clip-path="url(#p42e617de43)">
     <use style="fill:#ff0000;stroke:#ff0000;" x="618.084076" xlink:href="#C0_0_87ff70f5c1" y="148.264804"/>
    </g>
    <g clip-path="url(#p42e617de43)">
     <use style="fill:#ff0000;stroke:#ff0000;" x="319.152199" xlink:href="#C0_0_87ff70f5c1" y="131.463447"/>
    </g>
    <g clip-path="url(#p42e617de43)">
     <use style="fill:#ff0000;stroke:#ff0000;" x="240.14597" xlink:href="#C0_0_87ff70f5c1" y="165.940693"/>
    </g>
    <g clip-path="url(#p42e617de43)">
     <use style="fill:#ff0000;stroke:#ff0000;" x="712.176959" xlink:href="#C0_0_87ff70f5c1" y="333.279997"/>
    </g>
    <g clip-path="url(#p42e617de43)">
     <use style="fill:#ff0000;stroke:#ff0000;" x="407.437523" xlink:href="#C0_0_87ff70f5c1" y="472.938556"/>
    </g>
    <g clip-path="url(#p42e617de43)">
     <use style="fill:#ff0000;stroke:#ff0000;" x="499.686074" xlink:href="#C0_0_87ff70f5c1" y="470.768066"/>
    </g>
    <g clip-path="url(#p42e617de43)">
     <use style="fill:#ff0000;stroke:#ff0000;" x="279.475645" xlink:href="#C0_0_87ff70f5c1" y="435.576921"/>
    </g>
    <g clip-path="url(#p42e617de43)">
     <use style="fill:#ff0000;stroke:#ff0000;" x="375.60188" xlink:href="#C0_0_87ff70f5c1" y="116.150922"/>
    </g>
    <g clip-path="url(#p42e617de43)">
     <use style="fill:#ff0000;stroke:#ff0000;" x="376.419762" xlink:href="#C0_0_87ff70f5c1" y="474.152727"/>
    </g>
    <g clip-path="url(#p42e617de43)">
     <use style="fill:#ff0000;stroke:#ff0000;" x="183.096659" xlink:href="#C0_0_87ff70f5c1" y="290.542957"/>
    </g>
    <g clip-path="url(#p42e617de43)">
     <use style="fill:#ff0000;stroke:#ff0000;" x="208.988042" xlink:href="#C0_0_87ff70f5c1" y="218.881419"/>
    </g>
    <g clip-path="url(#p42e617de43)">
     <use style="fill:#ff0000;stroke:#ff0000;" x="698.649325" xlink:href="#C0_0_87ff70f5c1" y="242.687677"/>
    </g>
    <g clip-path="url(#p42e617de43)">
     <use style="fill:#ff0000;stroke:#ff0000;" x="270.136825" xlink:href="#C0_0_87ff70f5c1" y="155.278522"/>
    </g>
    <g clip-path="url(#p42e617de43)">
     <use style="fill:#ff0000;stroke:#ff0000;" x="558.559656" xlink:href="#C0_0_87ff70f5c1" y="124.512627"/>
    </g>
    <g clip-path="url(#p42e617de43)">
     <use style="fill:#ff0000;stroke:#ff0000;" x="343.531955" xlink:href="#C0_0_87ff70f5c1" y="118.583942"/>
    </g>
    <g clip-path="url(#p42e617de43)">
     <use style="fill:#ff0000;stroke:#ff0000;" x="692.042089" xlink:href="#C0_0_87ff70f5c1" y="218.577294"/>
    </g>
    <g clip-path="url(#p42e617de43)">
     <use style="fill:#ff0000;stroke:#ff0000;" x="326.854002" xlink:href="#C0_0_87ff70f5c1" y="455.473324"/>
    </g>
    <g clip-path="url(#p42e617de43)">
     <use style="fill:#ff0000;stroke:#ff0000;" x="166.105785" xlink:href="#C0_0_87ff70f5c1" y="280.362232"/>
    </g>
    <g clip-path="url(#p42e617de43)">
     <use style="fill:#ff0000;stroke:#ff0000;" x="711.014454" xlink:href="#C0_0_87ff70f5c1" y="310.352524"/>
    </g>
    <g clip-path="url(#p42e617de43)">
     <use style="fill:#ff0000;stroke:#ff0000;" x="617.342257" xlink:href="#C0_0_87ff70f5c1" y="444.633585"/>
    </g>
    <g clip-path="url(#p42e617de43)">
     <use style="fill:#ff0000;stroke:#ff0000;" x="542.071726" xlink:href="#C0_0_87ff70f5c1" y="465.997511"/>
    </g>
    <g clip-path="url(#p42e617de43)">
     <use style="fill:#ff0000;stroke:#ff0000;" x="711.738758" xlink:href="#C0_0_87ff70f5c1" y="356.564258"/>
    </g>
    <g clip-path="url(#p42e617de43)">
     <use style="fill:#ff0000;stroke:#ff0000;" x="570.356968" xlink:href="#C0_0_87ff70f5c1" y="462.653476"/>
    </g>
    <g clip-path="url(#p42e617de43)">
     <use style="fill:#ff0000;stroke:#ff0000;" x="211.967901" xlink:href="#C0_0_87ff70f5c1" y="381.84254"/>
    </g>
    <g clip-path="url(#p42e617de43)">
     <use style="fill:#ff0000;stroke:#ff0000;" x="299.238531" xlink:href="#C0_0_87ff70f5c1" y="449.573932"/>
    </g>
    <g clip-path="url(#p42e617de43)">
     <use style="fill:#ff0000;stroke:#ff0000;" x="634.683097" xlink:href="#C0_0_87ff70f5c1" y="167.905862"/>
    </g>
    <g clip-path="url(#p42e617de43)">
     <use style="fill:#ff0000;stroke:#ff0000;" x="677.404168" xlink:href="#C0_0_87ff70f5c1" y="401.718044"/>
    </g>
    <g clip-path="url(#p42e617de43)">
     <use style="fill:#008000;stroke:#008000;" x="229.283701" xlink:href="#C0_0_87ff70f5c1" y="185.80238"/>
    </g>
    <g clip-path="url(#p42e617de43)">
     <use style="fill:#ff0000;stroke:#ff0000;" x="582.746071" xlink:href="#C0_0_87ff70f5c1" y="432.371307"/>
    </g>
    <g clip-path="url(#p42e617de43)">
     <use style="fill:#ff0000;stroke:#ff0000;" x="527.780162" xlink:href="#C0_0_87ff70f5c1" y="427.903392"/>
    </g>
    <g clip-path="url(#p42e617de43)">
     <use style="fill:#ff0000;stroke:#ff0000;" x="330.703624" xlink:href="#C0_0_87ff70f5c1" y="382.114791"/>
    </g>
    <g clip-path="url(#p42e617de43)">
     <use style="fill:#ff0000;stroke:#ff0000;" x="497.949583" xlink:href="#C0_0_87ff70f5c1" y="336.706304"/>
    </g>
    <g clip-path="url(#p42e617de43)">
     <use style="fill:#ff0000;stroke:#ff0000;" x="179.586295" xlink:href="#C0_0_87ff70f5c1" y="255.684154"/>
    </g>
    <g clip-path="url(#p42e617de43)">
     <use style="fill:#ff0000;stroke:#ff0000;" x="582.268221" xlink:href="#C0_0_87ff70f5c1" y="142.31756"/>
    </g>
   </g>
   <g id="text_1">
    <g clip-path="url(#p42e617de43)">
     <!-- PRNP -->
     <g transform="translate(430.406829 297.439154)scale(0.12 -0.12)">
      <defs>
       <path d="M 19.671875 64.796875 
L 19.671875 37.40625 
L 32.078125 37.40625 
Q 38.96875 37.40625 42.71875 40.96875 
Q 46.484375 44.53125 46.484375 51.125 
Q 46.484375 57.671875 42.71875 61.234375 
Q 38.96875 64.796875 32.078125 64.796875 
z
M 9.8125 72.90625 
L 32.078125 72.90625 
Q 44.34375 72.90625 50.609375 67.359375 
Q 56.890625 61.8125 56.890625 51.125 
Q 56.890625 40.328125 50.609375 34.8125 
Q 44.34375 29.296875 32.078125 29.296875 
L 19.671875 29.296875 
L 19.671875 0 
L 9.8125 0 
z
" id="DejaVuSans-80"/>
       <path d="M 44.390625 34.1875 
Q 47.5625 33.109375 50.5625 29.59375 
Q 53.5625 26.078125 56.59375 19.921875 
L 66.609375 0 
L 56 0 
L 46.6875 18.703125 
Q 43.0625 26.03125 39.671875 28.421875 
Q 36.28125 30.8125 30.421875 30.8125 
L 19.671875 30.8125 
L 19.671875 0 
L 9.8125 0 
L 9.8125 72.90625 
L 32.078125 72.90625 
Q 44.578125 72.90625 50.734375 67.671875 
Q 56.890625 62.453125 56.890625 51.90625 
Q 56.890625 45.015625 53.6875 40.46875 
Q 50.484375 35.9375 44.390625 34.1875 
z
M 19.671875 64.796875 
L 19.671875 38.921875 
L 32.078125 38.921875 
Q 39.203125 38.921875 42.84375 42.21875 
Q 46.484375 45.515625 46.484375 51.90625 
Q 46.484375 58.296875 42.84375 61.546875 
Q 39.203125 64.796875 32.078125 64.796875 
z
" id="DejaVuSans-82"/>
       <path d="M 9.8125 72.90625 
L 23.09375 72.90625 
L 55.421875 11.921875 
L 55.421875 72.90625 
L 64.984375 72.90625 
L 64.984375 0 
L 51.703125 0 
L 19.390625 60.984375 
L 19.390625 0 
L 9.8125 0 
z
" id="DejaVuSans-78"/>
      </defs>
      <use xlink:href="#DejaVuSans-80"/>
      <use x="60.302734" xlink:href="#DejaVuSans-82"/>
      <use x="129.785156" xlink:href="#DejaVuSans-78"/>
      <use x="204.589844" xlink:href="#DejaVuSans-80"/>
     </g>
    </g>
   </g>
   <g id="text_2">
    <g clip-path="url(#p42e617de43)">
     <!-- STIP1 -->
     <g transform="translate(508.655749 121.176123)scale(0.12 -0.12)">
      <defs>
       <path d="M 53.515625 70.515625 
L 53.515625 60.890625 
Q 47.90625 63.578125 42.921875 64.890625 
Q 37.9375 66.21875 33.296875 66.21875 
Q 25.25 66.21875 20.875 63.09375 
Q 16.5 59.96875 16.5 54.203125 
Q 16.5 49.359375 19.40625 46.890625 
Q 22.3125 44.4375 30.421875 42.921875 
L 36.375 41.703125 
Q 47.40625 39.59375 52.65625 34.296875 
Q 57.90625 29 57.90625 20.125 
Q 57.90625 9.515625 50.796875 4.046875 
Q 43.703125 -1.421875 29.984375 -1.421875 
Q 24.8125 -1.421875 18.96875 -0.25 
Q 13.140625 0.921875 6.890625 3.21875 
L 6.890625 13.375 
Q 12.890625 10.015625 18.65625 8.296875 
Q 24.421875 6.59375 29.984375 6.59375 
Q 38.421875 6.59375 43.015625 9.90625 
Q 47.609375 13.234375 47.609375 19.390625 
Q 47.609375 24.75 44.3125 27.78125 
Q 41.015625 30.8125 33.5 32.328125 
L 27.484375 33.5 
Q 16.453125 35.6875 11.515625 40.375 
Q 6.59375 45.0625 6.59375 53.421875 
Q 6.59375 63.09375 13.40625 68.65625 
Q 20.21875 74.21875 32.171875 74.21875 
Q 37.3125 74.21875 42.625 73.28125 
Q 47.953125 72.359375 53.515625 70.515625 
z
" id="DejaVuSans-83"/>
       <path d="M -0.296875 72.90625 
L 61.375 72.90625 
L 61.375 64.59375 
L 35.5 64.59375 
L 35.5 0 
L 25.59375 0 
L 25.59375 64.59375 
L -0.296875 64.59375 
z
" id="DejaVuSans-84"/>
       <path d="M 9.8125 72.90625 
L 19.671875 72.90625 
L 19.671875 0 
L 9.8125 0 
z
" id="DejaVuSans-73"/>
       <path d="M 12.40625 8.296875 
L 28.515625 8.296875 
L 28.515625 63.921875 
L 10.984375 60.40625 
L 10.984375 69.390625 
L 28.421875 72.90625 
L 38.28125 72.90625 
L 38.28125 8.296875 
L 54.390625 8.296875 
L 54.390625 0 
L 12.40625 0 
z
" id="DejaVuSans-49"/>
      </defs>
      <use xlink:href="#DejaVuSans-83"/>
      <use x="63.476562" xlink:href="#DejaVuSans-84"/>
      <use x="124.560547" xlink:href="#DejaVuSans-73"/>
      <use x="154.052734" xlink:href="#DejaVuSans-80"/>
      <use x="214.355469" xlink:href="#DejaVuSans-49"/>
     </g>
    </g>
   </g>
   <g id="text_3">
    <g clip-path="url(#p42e617de43)">
     <!-- SOD1 -->
     <g transform="translate(167.885501 340.299972)scale(0.12 -0.12)">
      <defs>
       <path d="M 39.40625 66.21875 
Q 28.65625 66.21875 22.328125 58.203125 
Q 16.015625 50.203125 16.015625 36.375 
Q 16.015625 22.609375 22.328125 14.59375 
Q 28.65625 6.59375 39.40625 6.59375 
Q 50.140625 6.59375 56.421875 14.59375 
Q 62.703125 22.609375 62.703125 36.375 
Q 62.703125 50.203125 56.421875 58.203125 
Q 50.140625 66.21875 39.40625 66.21875 
z
M 39.40625 74.21875 
Q 54.734375 74.21875 63.90625 63.9375 
Q 73.09375 53.65625 73.09375 36.375 
Q 73.09375 19.140625 63.90625 8.859375 
Q 54.734375 -1.421875 39.40625 -1.421875 
Q 24.03125 -1.421875 14.8125 8.828125 
Q 5.609375 19.09375 5.609375 36.375 
Q 5.609375 53.65625 14.8125 63.9375 
Q 24.03125 74.21875 39.40625 74.21875 
z
" id="DejaVuSans-79"/>
       <path d="M 19.671875 64.796875 
L 19.671875 8.109375 
L 31.59375 8.109375 
Q 46.6875 8.109375 53.6875 14.9375 
Q 60.6875 21.78125 60.6875 36.53125 
Q 60.6875 51.171875 53.6875 57.984375 
Q 46.6875 64.796875 31.59375 64.796875 
z
M 9.8125 72.90625 
L 30.078125 72.90625 
Q 51.265625 72.90625 61.171875 64.09375 
Q 71.09375 55.28125 71.09375 36.53125 
Q 71.09375 17.671875 61.125 8.828125 
Q 51.171875 0 30.078125 0 
L 9.8125 0 
z
" id="DejaVuSans-68"/>
      </defs>
      <use xlink:href="#DejaVuSans-83"/>
      <use x="63.476562" xlink:href="#DejaVuSans-79"/>
      <use x="142.1875" xlink:href="#DejaVuSans-68"/>
      <use x="219.189453" xlink:href="#DejaVuSans-49"/>
     </g>
    </g>
   </g>
   <g id="text_4">
    <g clip-path="url(#p42e617de43)">
     <!-- BAX -->
     <g transform="translate(242.060524 432.687026)scale(0.12 -0.12)">
      <defs>
       <path d="M 19.671875 34.8125 
L 19.671875 8.109375 
L 35.5 8.109375 
Q 43.453125 8.109375 47.28125 11.40625 
Q 51.125 14.703125 51.125 21.484375 
Q 51.125 28.328125 47.28125 31.5625 
Q 43.453125 34.8125 35.5 34.8125 
z
M 19.671875 64.796875 
L 19.671875 42.828125 
L 34.28125 42.828125 
Q 41.5 42.828125 45.03125 45.53125 
Q 48.578125 48.25 48.578125 53.8125 
Q 48.578125 59.328125 45.03125 62.0625 
Q 41.5 64.796875 34.28125 64.796875 
z
M 9.8125 72.90625 
L 35.015625 72.90625 
Q 46.296875 72.90625 52.390625 68.21875 
Q 58.5 63.53125 58.5 54.890625 
Q 58.5 48.1875 55.375 44.234375 
Q 52.25 40.28125 46.1875 39.3125 
Q 53.46875 37.75 57.5 32.78125 
Q 61.53125 27.828125 61.53125 20.40625 
Q 61.53125 10.640625 54.890625 5.3125 
Q 48.25 0 35.984375 0 
L 9.8125 0 
z
" id="DejaVuSans-66"/>
       <path d="M 34.1875 63.1875 
L 20.796875 26.90625 
L 47.609375 26.90625 
z
M 28.609375 72.90625 
L 39.796875 72.90625 
L 67.578125 0 
L 57.328125 0 
L 50.6875 18.703125 
L 17.828125 18.703125 
L 11.1875 0 
L 0.78125 0 
z
" id="DejaVuSans-65"/>
       <path d="M 6.296875 72.90625 
L 16.890625 72.90625 
L 35.015625 45.796875 
L 53.21875 72.90625 
L 63.8125 72.90625 
L 40.375 37.890625 
L 65.375 0 
L 54.78125 0 
L 34.28125 31 
L 13.625 0 
L 2.984375 0 
L 29 38.921875 
z
" id="DejaVuSans-88"/>
      </defs>
      <use xlink:href="#DejaVuSans-66"/>
      <use x="68.603516" xlink:href="#DejaVuSans-65"/>
      <use x="137.011719" xlink:href="#DejaVuSans-88"/>
     </g>
    </g>
   </g>
   <g id="text_5">
    <g clip-path="url(#p42e617de43)">
     <!-- FYN -->
     <g transform="translate(163.466888 317.671143)scale(0.12 -0.12)">
      <defs>
       <path d="M 9.8125 72.90625 
L 51.703125 72.90625 
L 51.703125 64.59375 
L 19.671875 64.59375 
L 19.671875 43.109375 
L 48.578125 43.109375 
L 48.578125 34.8125 
L 19.671875 34.8125 
L 19.671875 0 
L 9.8125 0 
z
" id="DejaVuSans-70"/>
       <path d="M -0.203125 72.90625 
L 10.40625 72.90625 
L 30.609375 42.921875 
L 50.6875 72.90625 
L 61.28125 72.90625 
L 35.5 34.71875 
L 35.5 0 
L 25.59375 0 
L 25.59375 34.71875 
z
" id="DejaVuSans-89"/>
      </defs>
      <use xlink:href="#DejaVuSans-70"/>
      <use x="57.519531" xlink:href="#DejaVuSans-89"/>
      <use x="118.603516" xlink:href="#DejaVuSans-78"/>
     </g>
    </g>
   </g>
   <g id="text_6">
    <g clip-path="url(#p42e617de43)">
     <!-- EGR1 -->
     <g transform="translate(475.099787 475.342138)scale(0.12 -0.12)">
      <defs>
       <path d="M 9.8125 72.90625 
L 55.90625 72.90625 
L 55.90625 64.59375 
L 19.671875 64.59375 
L 19.671875 43.015625 
L 54.390625 43.015625 
L 54.390625 34.71875 
L 19.671875 34.71875 
L 19.671875 8.296875 
L 56.78125 8.296875 
L 56.78125 0 
L 9.8125 0 
z
" id="DejaVuSans-69"/>
       <path d="M 59.515625 10.40625 
L 59.515625 29.984375 
L 43.40625 29.984375 
L 43.40625 38.09375 
L 69.28125 38.09375 
L 69.28125 6.78125 
Q 63.578125 2.734375 56.6875 0.65625 
Q 49.8125 -1.421875 42 -1.421875 
Q 24.90625 -1.421875 15.25 8.5625 
Q 5.609375 18.5625 5.609375 36.375 
Q 5.609375 54.25 15.25 64.234375 
Q 24.90625 74.21875 42 74.21875 
Q 49.125 74.21875 55.546875 72.453125 
Q 61.96875 70.703125 67.390625 67.28125 
L 67.390625 56.78125 
Q 61.921875 61.421875 55.765625 63.765625 
Q 49.609375 66.109375 42.828125 66.109375 
Q 29.4375 66.109375 22.71875 58.640625 
Q 16.015625 51.171875 16.015625 36.375 
Q 16.015625 21.625 22.71875 14.15625 
Q 29.4375 6.6875 42.828125 6.6875 
Q 48.046875 6.6875 52.140625 7.59375 
Q 56.25 8.5 59.515625 10.40625 
z
" id="DejaVuSans-71"/>
      </defs>
      <use xlink:href="#DejaVuSans-69"/>
      <use x="63.183594" xlink:href="#DejaVuSans-71"/>
      <use x="140.673828" xlink:href="#DejaVuSans-82"/>
      <use x="210.15625" xlink:href="#DejaVuSans-49"/>
     </g>
    </g>
   </g>
   <g id="text_7">
    <g clip-path="url(#p42e617de43)">
     <!-- CCL5 -->
     <g transform="translate(620.466215 424.961231)scale(0.12 -0.12)">
      <defs>
       <path d="M 64.40625 67.28125 
L 64.40625 56.890625 
Q 59.421875 61.53125 53.78125 63.8125 
Q 48.140625 66.109375 41.796875 66.109375 
Q 29.296875 66.109375 22.65625 58.46875 
Q 16.015625 50.828125 16.015625 36.375 
Q 16.015625 21.96875 22.65625 14.328125 
Q 29.296875 6.6875 41.796875 6.6875 
Q 48.140625 6.6875 53.78125 8.984375 
Q 59.421875 11.28125 64.40625 15.921875 
L 64.40625 5.609375 
Q 59.234375 2.09375 53.4375 0.328125 
Q 47.65625 -1.421875 41.21875 -1.421875 
Q 24.65625 -1.421875 15.125 8.703125 
Q 5.609375 18.84375 5.609375 36.375 
Q 5.609375 53.953125 15.125 64.078125 
Q 24.65625 74.21875 41.21875 74.21875 
Q 47.75 74.21875 53.53125 72.484375 
Q 59.328125 70.75 64.40625 67.28125 
z
" id="DejaVuSans-67"/>
       <path d="M 9.8125 72.90625 
L 19.671875 72.90625 
L 19.671875 8.296875 
L 55.171875 8.296875 
L 55.171875 0 
L 9.8125 0 
z
" id="DejaVuSans-76"/>
       <path d="M 10.796875 72.90625 
L 49.515625 72.90625 
L 49.515625 64.59375 
L 19.828125 64.59375 
L 19.828125 46.734375 
Q 21.96875 47.46875 24.109375 47.828125 
Q 26.265625 48.1875 28.421875 48.1875 
Q 40.625 48.1875 47.75 41.5 
Q 54.890625 34.8125 54.890625 23.390625 
Q 54.890625 11.625 47.5625 5.09375 
Q 40.234375 -1.421875 26.90625 -1.421875 
Q 22.3125 -1.421875 17.546875 -0.640625 
Q 12.796875 0.140625 7.71875 1.703125 
L 7.71875 11.625 
Q 12.109375 9.234375 16.796875 8.0625 
Q 21.484375 6.890625 26.703125 6.890625 
Q 35.15625 6.890625 40.078125 11.328125 
Q 45.015625 15.765625 45.015625 23.390625 
Q 45.015625 31 40.078125 35.4375 
Q 35.15625 39.890625 26.703125 39.890625 
Q 22.75 39.890625 18.8125 39.015625 
Q 14.890625 38.140625 10.796875 36.28125 
z
" id="DejaVuSans-53"/>
      </defs>
      <use xlink:href="#DejaVuSans-67"/>
      <use x="69.824219" xlink:href="#DejaVuSans-67"/>
      <use x="139.648438" xlink:href="#DejaVuSans-76"/>
      <use x="195.361328" xlink:href="#DejaVuSans-53"/>
     </g>
    </g>
   </g>
   <g id="text_8">
    <g clip-path="url(#p42e617de43)">
     <!-- NOTCH1 -->
     <g transform="translate(469.152941 123.172891)scale(0.12 -0.12)">
      <defs>
       <path d="M 9.8125 72.90625 
L 19.671875 72.90625 
L 19.671875 43.015625 
L 55.515625 43.015625 
L 55.515625 72.90625 
L 65.375 72.90625 
L 65.375 0 
L 55.515625 0 
L 55.515625 34.71875 
L 19.671875 34.71875 
L 19.671875 0 
L 9.8125 0 
z
" id="DejaVuSans-72"/>
      </defs>
      <use xlink:href="#DejaVuSans-78"/>
      <use x="74.804688" xlink:href="#DejaVuSans-79"/>
      <use x="153.515625" xlink:href="#DejaVuSans-84"/>
      <use x="208.724609" xlink:href="#DejaVuSans-67"/>
      <use x="278.548828" xlink:href="#DejaVuSans-72"/>
      <use x="353.744141" xlink:href="#DejaVuSans-49"/>
     </g>
    </g>
   </g>
   <g id="text_9">
    <g clip-path="url(#p42e617de43)">
     <!-- HSPA5 -->
     <g transform="translate(411.70742 259.095119)scale(0.12 -0.12)">
      <use xlink:href="#DejaVuSans-72"/>
      <use x="75.195312" xlink:href="#DejaVuSans-83"/>
      <use x="138.671875" xlink:href="#DejaVuSans-80"/>
      <use x="192.599609" xlink:href="#DejaVuSans-65"/>
      <use x="261.007812" xlink:href="#DejaVuSans-53"/>
     </g>
    </g>
   </g>
   <g id="text_10">
    <g clip-path="url(#p42e617de43)">
     <!-- CASP9 -->
     <g transform="translate(490.325578 382.598539)scale(0.12 -0.12)">
      <defs>
       <path d="M 10.984375 1.515625 
L 10.984375 10.5 
Q 14.703125 8.734375 18.5 7.8125 
Q 22.3125 6.890625 25.984375 6.890625 
Q 35.75 6.890625 40.890625 13.453125 
Q 46.046875 20.015625 46.78125 33.40625 
Q 43.953125 29.203125 39.59375 26.953125 
Q 35.25 24.703125 29.984375 24.703125 
Q 19.046875 24.703125 12.671875 31.3125 
Q 6.296875 37.9375 6.296875 49.421875 
Q 6.296875 60.640625 12.9375 67.421875 
Q 19.578125 74.21875 30.609375 74.21875 
Q 43.265625 74.21875 49.921875 64.515625 
Q 56.59375 54.828125 56.59375 36.375 
Q 56.59375 19.140625 48.40625 8.859375 
Q 40.234375 -1.421875 26.421875 -1.421875 
Q 22.703125 -1.421875 18.890625 -0.6875 
Q 15.09375 0.046875 10.984375 1.515625 
z
M 30.609375 32.421875 
Q 37.25 32.421875 41.125 36.953125 
Q 45.015625 41.5 45.015625 49.421875 
Q 45.015625 57.28125 41.125 61.84375 
Q 37.25 66.40625 30.609375 66.40625 
Q 23.96875 66.40625 20.09375 61.84375 
Q 16.21875 57.28125 16.21875 49.421875 
Q 16.21875 41.5 20.09375 36.953125 
Q 23.96875 32.421875 30.609375 32.421875 
z
" id="DejaVuSans-57"/>
      </defs>
      <use xlink:href="#DejaVuSans-67"/>
      <use x="69.824219" xlink:href="#DejaVuSans-65"/>
      <use x="138.232422" xlink:href="#DejaVuSans-83"/>
      <use x="201.708984" xlink:href="#DejaVuSans-80"/>
      <use x="262.011719" xlink:href="#DejaVuSans-57"/>
     </g>
    </g>
   </g>
   <g id="text_11">
    <g clip-path="url(#p42e617de43)">
     <!-- CASP3 -->
     <g transform="translate(417.98934 471.907592)scale(0.12 -0.12)">
      <defs>
       <path d="M 40.578125 39.3125 
Q 47.65625 37.796875 51.625 33 
Q 55.609375 28.21875 55.609375 21.1875 
Q 55.609375 10.40625 48.1875 4.484375 
Q 40.765625 -1.421875 27.09375 -1.421875 
Q 22.515625 -1.421875 17.65625 -0.515625 
Q 12.796875 0.390625 7.625 2.203125 
L 7.625 11.71875 
Q 11.71875 9.328125 16.59375 8.109375 
Q 21.484375 6.890625 26.8125 6.890625 
Q 36.078125 6.890625 40.9375 10.546875 
Q 45.796875 14.203125 45.796875 21.1875 
Q 45.796875 27.640625 41.28125 31.265625 
Q 36.765625 34.90625 28.71875 34.90625 
L 20.21875 34.90625 
L 20.21875 43.015625 
L 29.109375 43.015625 
Q 36.375 43.015625 40.234375 45.921875 
Q 44.09375 48.828125 44.09375 54.296875 
Q 44.09375 59.90625 40.109375 62.90625 
Q 36.140625 65.921875 28.71875 65.921875 
Q 24.65625 65.921875 20.015625 65.03125 
Q 15.375 64.15625 9.8125 62.3125 
L 9.8125 71.09375 
Q 15.4375 72.65625 20.34375 73.4375 
Q 25.25 74.21875 29.59375 74.21875 
Q 40.828125 74.21875 47.359375 69.109375 
Q 53.90625 64.015625 53.90625 55.328125 
Q 53.90625 49.265625 50.4375 45.09375 
Q 46.96875 40.921875 40.578125 39.3125 
z
" id="DejaVuSans-51"/>
      </defs>
      <use xlink:href="#DejaVuSans-67"/>
      <use x="69.824219" xlink:href="#DejaVuSans-65"/>
      <use x="138.232422" xlink:href="#DejaVuSans-83"/>
      <use x="201.708984" xlink:href="#DejaVuSans-80"/>
      <use x="262.011719" xlink:href="#DejaVuSans-51"/>
     </g>
    </g>
   </g>
   <g id="text_12">
    <g clip-path="url(#p42e617de43)">
     <!-- APAF1 -->
     <g transform="translate(544.400451 297.620964)scale(0.12 -0.12)">
      <use xlink:href="#DejaVuSans-65"/>
      <use x="68.408203" xlink:href="#DejaVuSans-80"/>
      <use x="122.335938" xlink:href="#DejaVuSans-65"/>
      <use x="190.744141" xlink:href="#DejaVuSans-70"/>
      <use x="248.263672" xlink:href="#DejaVuSans-49"/>
     </g>
    </g>
   </g>
   <g id="text_13">
    <g clip-path="url(#p42e617de43)">
     <!-- EIF2AK3 -->
     <g transform="translate(259.189072 310.456873)scale(0.12 -0.12)">
      <defs>
       <path d="M 19.1875 8.296875 
L 53.609375 8.296875 
L 53.609375 0 
L 7.328125 0 
L 7.328125 8.296875 
Q 12.9375 14.109375 22.625 23.890625 
Q 32.328125 33.6875 34.8125 36.53125 
Q 39.546875 41.84375 41.421875 45.53125 
Q 43.3125 49.21875 43.3125 52.78125 
Q 43.3125 58.59375 39.234375 62.25 
Q 35.15625 65.921875 28.609375 65.921875 
Q 23.96875 65.921875 18.8125 64.3125 
Q 13.671875 62.703125 7.8125 59.421875 
L 7.8125 69.390625 
Q 13.765625 71.78125 18.9375 73 
Q 24.125 74.21875 28.421875 74.21875 
Q 39.75 74.21875 46.484375 68.546875 
Q 53.21875 62.890625 53.21875 53.421875 
Q 53.21875 48.921875 51.53125 44.890625 
Q 49.859375 40.875 45.40625 35.40625 
Q 44.1875 33.984375 37.640625 27.21875 
Q 31.109375 20.453125 19.1875 8.296875 
z
" id="DejaVuSans-50"/>
       <path d="M 9.8125 72.90625 
L 19.671875 72.90625 
L 19.671875 42.09375 
L 52.390625 72.90625 
L 65.09375 72.90625 
L 28.90625 38.921875 
L 67.671875 0 
L 54.6875 0 
L 19.671875 35.109375 
L 19.671875 0 
L 9.8125 0 
z
" id="DejaVuSans-75"/>
      </defs>
      <use xlink:href="#DejaVuSans-69"/>
      <use x="63.183594" xlink:href="#DejaVuSans-73"/>
      <use x="92.675781" xlink:href="#DejaVuSans-70"/>
      <use x="150.195312" xlink:href="#DejaVuSans-50"/>
      <use x="213.818359" xlink:href="#DejaVuSans-65"/>
      <use x="282.226562" xlink:href="#DejaVuSans-75"/>
      <use x="347.802734" xlink:href="#DejaVuSans-51"/>
     </g>
    </g>
   </g>
   <g id="text_14">
    <g clip-path="url(#p42e617de43)">
     <!-- EIF2S1 -->
     <g transform="translate(204.973182 412.605215)scale(0.12 -0.12)">
      <use xlink:href="#DejaVuSans-69"/>
      <use x="63.183594" xlink:href="#DejaVuSans-73"/>
      <use x="92.675781" xlink:href="#DejaVuSans-70"/>
      <use x="150.195312" xlink:href="#DejaVuSans-50"/>
      <use x="213.818359" xlink:href="#DejaVuSans-83"/>
      <use x="277.294922" xlink:href="#DejaVuSans-49"/>
     </g>
    </g>
   </g>
   <g id="text_15">
    <g clip-path="url(#p42e617de43)">
     <!-- ATF4 -->
     <g transform="translate(337.505339 419.163989)scale(0.12 -0.12)">
      <defs>
       <path d="M 37.796875 64.3125 
L 12.890625 25.390625 
L 37.796875 25.390625 
z
M 35.203125 72.90625 
L 47.609375 72.90625 
L 47.609375 25.390625 
L 58.015625 25.390625 
L 58.015625 17.1875 
L 47.609375 17.1875 
L 47.609375 0 
L 37.796875 0 
L 37.796875 17.1875 
L 4.890625 17.1875 
L 4.890625 26.703125 
z
" id="DejaVuSans-52"/>
      </defs>
      <use xlink:href="#DejaVuSans-65"/>
      <use x="60.658203" xlink:href="#DejaVuSans-84"/>
      <use x="121.742188" xlink:href="#DejaVuSans-70"/>
      <use x="179.261719" xlink:href="#DejaVuSans-52"/>
     </g>
    </g>
   </g>
   <g id="text_16">
    <g clip-path="url(#p42e617de43)">
     <!-- DDIT3 -->
     <g transform="translate(192.217694 362.796082)scale(0.12 -0.12)">
      <use xlink:href="#DejaVuSans-68"/>
      <use x="77.001953" xlink:href="#DejaVuSans-68"/>
      <use x="154.003906" xlink:href="#DejaVuSans-73"/>
      <use x="183.496094" xlink:href="#DejaVuSans-84"/>
      <use x="244.580078" xlink:href="#DejaVuSans-51"/>
     </g>
    </g>
   </g>
   <g id="text_17">
    <g clip-path="url(#p42e617de43)">
     <!-- GSK3B -->
     <g transform="translate(646.596818 205.972431)scale(0.12 -0.12)">
      <use xlink:href="#DejaVuSans-71"/>
      <use x="77.490234" xlink:href="#DejaVuSans-83"/>
      <use x="140.966797" xlink:href="#DejaVuSans-75"/>
      <use x="206.542969" xlink:href="#DejaVuSans-51"/>
      <use x="270.166016" xlink:href="#DejaVuSans-66"/>
     </g>
    </g>
   </g>
   <g id="text_18">
    <g clip-path="url(#p42e617de43)">
     <!-- PRKCD -->
     <g transform="translate(391.409711 238.540337)scale(0.12 -0.12)">
      <use xlink:href="#DejaVuSans-80"/>
      <use x="60.302734" xlink:href="#DejaVuSans-82"/>
      <use x="129.785156" xlink:href="#DejaVuSans-75"/>
      <use x="189.861328" xlink:href="#DejaVuSans-67"/>
      <use x="259.685547" xlink:href="#DejaVuSans-68"/>
     </g>
    </g>
   </g>
   <g id="text_19">
    <g clip-path="url(#p42e617de43)">
     <!-- CYBA -->
     <g transform="translate(568.687629 448.582286)scale(0.12 -0.12)">
      <use xlink:href="#DejaVuSans-67"/>
      <use x="68.074219" xlink:href="#DejaVuSans-89"/>
      <use x="129.158203" xlink:href="#DejaVuSans-66"/>
      <use x="197.761719" xlink:href="#DejaVuSans-65"/>
     </g>
    </g>
   </g>
   <g id="text_20">
    <g clip-path="url(#p42e617de43)">
     <!-- NCF1 -->
     <g transform="translate(183.740944 203.772088)scale(0.12 -0.12)">
      <use xlink:href="#DejaVuSans-78"/>
      <use x="74.804688" xlink:href="#DejaVuSans-67"/>
      <use x="144.628906" xlink:href="#DejaVuSans-70"/>
      <use x="202.148438" xlink:href="#DejaVuSans-49"/>
     </g>
    </g>
   </g>
   <g id="text_21">
    <g clip-path="url(#p42e617de43)">
     <!-- NCF2 -->
     <g transform="translate(420.260334 116.183514)scale(0.12 -0.12)">
      <use xlink:href="#DejaVuSans-78"/>
      <use x="74.804688" xlink:href="#DejaVuSans-67"/>
      <use x="144.628906" xlink:href="#DejaVuSans-70"/>
      <use x="202.148438" xlink:href="#DejaVuSans-50"/>
     </g>
    </g>
   </g>
   <g id="text_22">
    <g clip-path="url(#p42e617de43)">
     <!-- NCF4 -->
     <g transform="translate(389.210214 111.699023)scale(0.12 -0.12)">
      <use xlink:href="#DejaVuSans-78"/>
      <use x="74.804688" xlink:href="#DejaVuSans-67"/>
      <use x="144.628906" xlink:href="#DejaVuSans-70"/>
      <use x="202.148438" xlink:href="#DejaVuSans-52"/>
     </g>
    </g>
   </g>
   <g id="text_23">
    <g clip-path="url(#p42e617de43)">
     <!-- RYR1 -->
     <g transform="translate(165.991379 236.736126)scale(0.12 -0.12)">
      <use xlink:href="#DejaVuSans-82"/>
      <use x="63.107422" xlink:href="#DejaVuSans-89"/>
      <use x="124.191406" xlink:href="#DejaVuSans-82"/>
      <use x="193.673828" xlink:href="#DejaVuSans-49"/>
     </g>
    </g>
   </g>
   <g id="text_24">
    <g clip-path="url(#p42e617de43)">
     <!-- ITPR1 -->
     <g transform="translate(282.396518 149.994843)scale(0.12 -0.12)">
      <use xlink:href="#DejaVuSans-73"/>
      <use x="29.492188" xlink:href="#DejaVuSans-84"/>
      <use x="90.576172" xlink:href="#DejaVuSans-80"/>
      <use x="150.878906" xlink:href="#DejaVuSans-82"/>
      <use x="220.361328" xlink:href="#DejaVuSans-49"/>
     </g>
    </g>
   </g>
   <g id="text_25">
    <g clip-path="url(#p42e617de43)">
     <!-- ITPR2 -->
     <g transform="translate(223.116973 417.318986)scale(0.12 -0.12)">
      <use xlink:href="#DejaVuSans-73"/>
      <use x="29.492188" xlink:href="#DejaVuSans-84"/>
      <use x="90.576172" xlink:href="#DejaVuSans-80"/>
      <use x="150.878906" xlink:href="#DejaVuSans-82"/>
      <use x="220.361328" xlink:href="#DejaVuSans-50"/>
     </g>
    </g>
   </g>
   <g id="text_26">
    <g clip-path="url(#p42e617de43)">
     <!-- ITPR3 -->
     <g transform="translate(337.609005 465.551805)scale(0.12 -0.12)">
      <use xlink:href="#DejaVuSans-73"/>
      <use x="29.492188" xlink:href="#DejaVuSans-84"/>
      <use x="90.576172" xlink:href="#DejaVuSans-80"/>
      <use x="150.878906" xlink:href="#DejaVuSans-82"/>
      <use x="220.361328" xlink:href="#DejaVuSans-51"/>
     </g>
    </g>
   </g>
   <g id="text_27">
    <g clip-path="url(#p42e617de43)">
     <!-- PSMA6 -->
     <g transform="translate(497.432056 472.778906)scale(0.12 -0.12)">
      <defs>
       <path d="M 9.8125 72.90625 
L 24.515625 72.90625 
L 43.109375 23.296875 
L 61.8125 72.90625 
L 76.515625 72.90625 
L 76.515625 0 
L 66.890625 0 
L 66.890625 64.015625 
L 48.09375 14.015625 
L 38.1875 14.015625 
L 19.390625 64.015625 
L 19.390625 0 
L 9.8125 0 
z
" id="DejaVuSans-77"/>
       <path d="M 33.015625 40.375 
Q 26.375 40.375 22.484375 35.828125 
Q 18.609375 31.296875 18.609375 23.390625 
Q 18.609375 15.53125 22.484375 10.953125 
Q 26.375 6.390625 33.015625 6.390625 
Q 39.65625 6.390625 43.53125 10.953125 
Q 47.40625 15.53125 47.40625 23.390625 
Q 47.40625 31.296875 43.53125 35.828125 
Q 39.65625 40.375 33.015625 40.375 
z
M 52.59375 71.296875 
L 52.59375 62.3125 
Q 48.875 64.0625 45.09375 64.984375 
Q 41.3125 65.921875 37.59375 65.921875 
Q 27.828125 65.921875 22.671875 59.328125 
Q 17.53125 52.734375 16.796875 39.40625 
Q 19.671875 43.65625 24.015625 45.921875 
Q 28.375 48.1875 33.59375 48.1875 
Q 44.578125 48.1875 50.953125 41.515625 
Q 57.328125 34.859375 57.328125 23.390625 
Q 57.328125 12.15625 50.6875 5.359375 
Q 44.046875 -1.421875 33.015625 -1.421875 
Q 20.359375 -1.421875 13.671875 8.265625 
Q 6.984375 17.96875 6.984375 36.375 
Q 6.984375 53.65625 15.1875 63.9375 
Q 23.390625 74.21875 37.203125 74.21875 
Q 40.921875 74.21875 44.703125 73.484375 
Q 48.484375 72.75 52.59375 71.296875 
z
" id="DejaVuSans-54"/>
      </defs>
      <use xlink:href="#DejaVuSans-80"/>
      <use x="60.302734" xlink:href="#DejaVuSans-83"/>
      <use x="123.779297" xlink:href="#DejaVuSans-77"/>
      <use x="210.058594" xlink:href="#DejaVuSans-65"/>
      <use x="278.466797" xlink:href="#DejaVuSans-54"/>
     </g>
    </g>
   </g>
   <g id="text_28">
    <g clip-path="url(#p42e617de43)">
     <!-- PSMA2 -->
     <g transform="translate(447.030408 110.918523)scale(0.12 -0.12)">
      <use xlink:href="#DejaVuSans-80"/>
      <use x="60.302734" xlink:href="#DejaVuSans-83"/>
      <use x="123.779297" xlink:href="#DejaVuSans-77"/>
      <use x="210.058594" xlink:href="#DejaVuSans-65"/>
      <use x="278.466797" xlink:href="#DejaVuSans-50"/>
     </g>
    </g>
   </g>
   <g id="text_29">
    <g clip-path="url(#p42e617de43)">
     <!-- PSMA4 -->
     <g transform="translate(698.96859 292.086227)scale(0.12 -0.12)">
      <use xlink:href="#DejaVuSans-80"/>
      <use x="60.302734" xlink:href="#DejaVuSans-83"/>
      <use x="123.779297" xlink:href="#DejaVuSans-77"/>
      <use x="210.058594" xlink:href="#DejaVuSans-65"/>
      <use x="278.466797" xlink:href="#DejaVuSans-52"/>
     </g>
    </g>
   </g>
   <g id="text_30">
    <g clip-path="url(#p42e617de43)">
     <!-- PSMA7 -->
     <g transform="translate(691.504787 268.161397)scale(0.12 -0.12)">
      <defs>
       <path d="M 8.203125 72.90625 
L 55.078125 72.90625 
L 55.078125 68.703125 
L 28.609375 0 
L 18.3125 0 
L 43.21875 64.59375 
L 8.203125 64.59375 
z
" id="DejaVuSans-55"/>
      </defs>
      <use xlink:href="#DejaVuSans-80"/>
      <use x="60.302734" xlink:href="#DejaVuSans-83"/>
      <use x="123.779297" xlink:href="#DejaVuSans-77"/>
      <use x="210.058594" xlink:href="#DejaVuSans-65"/>
      <use x="278.466797" xlink:href="#DejaVuSans-55"/>
     </g>
    </g>
   </g>
   <g id="text_31">
    <g clip-path="url(#p42e617de43)">
     <!-- PSMA5 -->
     <g transform="translate(673.217172 381.000572)scale(0.12 -0.12)">
      <use xlink:href="#DejaVuSans-80"/>
      <use x="60.302734" xlink:href="#DejaVuSans-83"/>
      <use x="123.779297" xlink:href="#DejaVuSans-77"/>
      <use x="210.058594" xlink:href="#DejaVuSans-65"/>
      <use x="278.466797" xlink:href="#DejaVuSans-53"/>
     </g>
    </g>
   </g>
   <g id="text_32">
    <g clip-path="url(#p42e617de43)">
     <!-- PSMA1 -->
     <g transform="translate(644.607059 184.906199)scale(0.12 -0.12)">
      <use xlink:href="#DejaVuSans-80"/>
      <use x="60.302734" xlink:href="#DejaVuSans-83"/>
      <use x="123.779297" xlink:href="#DejaVuSans-77"/>
      <use x="210.058594" xlink:href="#DejaVuSans-65"/>
      <use x="278.466797" xlink:href="#DejaVuSans-49"/>
     </g>
    </g>
   </g>
   <g id="text_33">
    <g clip-path="url(#p42e617de43)">
     <!-- PSMA3 -->
     <g transform="translate(597.558451 151.576054)scale(0.12 -0.12)">
      <use xlink:href="#DejaVuSans-80"/>
      <use x="60.302734" xlink:href="#DejaVuSans-83"/>
      <use x="123.779297" xlink:href="#DejaVuSans-77"/>
      <use x="210.058594" xlink:href="#DejaVuSans-65"/>
      <use x="278.466797" xlink:href="#DejaVuSans-51"/>
     </g>
    </g>
   </g>
   <g id="text_34">
    <g clip-path="url(#p42e617de43)">
     <!-- PSMB6 -->
     <g transform="translate(298.614386 134.774697)scale(0.12 -0.12)">
      <use xlink:href="#DejaVuSans-80"/>
      <use x="60.302734" xlink:href="#DejaVuSans-83"/>
      <use x="123.779297" xlink:href="#DejaVuSans-77"/>
      <use x="210.058594" xlink:href="#DejaVuSans-66"/>
      <use x="278.662109" xlink:href="#DejaVuSans-54"/>
     </g>
    </g>
   </g>
   <g id="text_35">
    <g clip-path="url(#p42e617de43)">
     <!-- PSMB7 -->
     <g transform="translate(219.608157 169.251943)scale(0.12 -0.12)">
      <use xlink:href="#DejaVuSans-80"/>
      <use x="60.302734" xlink:href="#DejaVuSans-83"/>
      <use x="123.779297" xlink:href="#DejaVuSans-77"/>
      <use x="210.058594" xlink:href="#DejaVuSans-66"/>
      <use x="278.662109" xlink:href="#DejaVuSans-55"/>
     </g>
    </g>
   </g>
   <g id="text_36">
    <g clip-path="url(#p42e617de43)">
     <!-- PSMB3 -->
     <g transform="translate(691.639146 336.591247)scale(0.12 -0.12)">
      <use xlink:href="#DejaVuSans-80"/>
      <use x="60.302734" xlink:href="#DejaVuSans-83"/>
      <use x="123.779297" xlink:href="#DejaVuSans-77"/>
      <use x="210.058594" xlink:href="#DejaVuSans-66"/>
      <use x="278.662109" xlink:href="#DejaVuSans-51"/>
     </g>
    </g>
   </g>
   <g id="text_37">
    <g clip-path="url(#p42e617de43)">
     <!-- PSMB2 -->
     <g transform="translate(386.89971 476.249806)scale(0.12 -0.12)">
      <use xlink:href="#DejaVuSans-80"/>
      <use x="60.302734" xlink:href="#DejaVuSans-83"/>
      <use x="123.779297" xlink:href="#DejaVuSans-77"/>
      <use x="210.058594" xlink:href="#DejaVuSans-66"/>
      <use x="278.662109" xlink:href="#DejaVuSans-50"/>
     </g>
    </g>
   </g>
   <g id="text_38">
    <g clip-path="url(#p42e617de43)">
     <!-- PSMB5 -->
     <g transform="translate(479.148261 474.079316)scale(0.12 -0.12)">
      <use xlink:href="#DejaVuSans-80"/>
      <use x="60.302734" xlink:href="#DejaVuSans-83"/>
      <use x="123.779297" xlink:href="#DejaVuSans-77"/>
      <use x="210.058594" xlink:href="#DejaVuSans-66"/>
      <use x="278.662109" xlink:href="#DejaVuSans-53"/>
     </g>
    </g>
   </g>
   <g id="text_39">
    <g clip-path="url(#p42e617de43)">
     <!-- PSMB1 -->
     <g transform="translate(258.937833 438.888171)scale(0.12 -0.12)">
      <use xlink:href="#DejaVuSans-80"/>
      <use x="60.302734" xlink:href="#DejaVuSans-83"/>
      <use x="123.779297" xlink:href="#DejaVuSans-77"/>
      <use x="210.058594" xlink:href="#DejaVuSans-66"/>
      <use x="278.662109" xlink:href="#DejaVuSans-49"/>
     </g>
    </g>
   </g>
   <g id="text_40">
    <g clip-path="url(#p42e617de43)">
     <!-- PSMB4 -->
     <g transform="translate(355.064068 119.462172)scale(0.12 -0.12)">
      <use xlink:href="#DejaVuSans-80"/>
      <use x="60.302734" xlink:href="#DejaVuSans-83"/>
      <use x="123.779297" xlink:href="#DejaVuSans-77"/>
      <use x="210.058594" xlink:href="#DejaVuSans-66"/>
      <use x="278.662109" xlink:href="#DejaVuSans-52"/>
     </g>
    </g>
   </g>
   <g id="text_41">
    <g clip-path="url(#p42e617de43)">
     <!-- PSMC2 -->
     <g transform="translate(355.808824 477.463977)scale(0.12 -0.12)">
      <use xlink:href="#DejaVuSans-80"/>
      <use x="60.302734" xlink:href="#DejaVuSans-83"/>
      <use x="123.779297" xlink:href="#DejaVuSans-77"/>
      <use x="210.058594" xlink:href="#DejaVuSans-67"/>
      <use x="279.882812" xlink:href="#DejaVuSans-50"/>
     </g>
    </g>
   </g>
   <g id="text_42">
    <g clip-path="url(#p42e617de43)">
     <!-- PSMC1 -->
     <g transform="translate(162.485721 293.854207)scale(0.12 -0.12)">
      <use xlink:href="#DejaVuSans-80"/>
      <use x="60.302734" xlink:href="#DejaVuSans-83"/>
      <use x="123.779297" xlink:href="#DejaVuSans-77"/>
      <use x="210.058594" xlink:href="#DejaVuSans-67"/>
      <use x="279.882812" xlink:href="#DejaVuSans-49"/>
     </g>
    </g>
   </g>
   <g id="text_43">
    <g clip-path="url(#p42e617de43)">
     <!-- PSMC4 -->
     <g transform="translate(188.377104 222.192669)scale(0.12 -0.12)">
      <use xlink:href="#DejaVuSans-80"/>
      <use x="60.302734" xlink:href="#DejaVuSans-83"/>
      <use x="123.779297" xlink:href="#DejaVuSans-77"/>
      <use x="210.058594" xlink:href="#DejaVuSans-67"/>
      <use x="279.882812" xlink:href="#DejaVuSans-52"/>
     </g>
    </g>
   </g>
   <g id="text_44">
    <g clip-path="url(#p42e617de43)">
     <!-- PSMC6 -->
     <g transform="translate(678.038387 245.998927)scale(0.12 -0.12)">
      <use xlink:href="#DejaVuSans-80"/>
      <use x="60.302734" xlink:href="#DejaVuSans-83"/>
      <use x="123.779297" xlink:href="#DejaVuSans-77"/>
      <use x="210.058594" xlink:href="#DejaVuSans-67"/>
      <use x="279.882812" xlink:href="#DejaVuSans-54"/>
     </g>
    </g>
   </g>
   <g id="text_45">
    <g clip-path="url(#p42e617de43)">
     <!-- PSMC3 -->
     <g transform="translate(249.525887 158.589772)scale(0.12 -0.12)">
      <use xlink:href="#DejaVuSans-80"/>
      <use x="60.302734" xlink:href="#DejaVuSans-83"/>
      <use x="123.779297" xlink:href="#DejaVuSans-77"/>
      <use x="210.058594" xlink:href="#DejaVuSans-67"/>
      <use x="279.882812" xlink:href="#DejaVuSans-51"/>
     </g>
    </g>
   </g>
   <g id="text_46">
    <g clip-path="url(#p42e617de43)">
     <!-- PSMC5 -->
     <g transform="translate(537.948719 127.823877)scale(0.12 -0.12)">
      <use xlink:href="#DejaVuSans-80"/>
      <use x="60.302734" xlink:href="#DejaVuSans-83"/>
      <use x="123.779297" xlink:href="#DejaVuSans-77"/>
      <use x="210.058594" xlink:href="#DejaVuSans-67"/>
      <use x="279.882812" xlink:href="#DejaVuSans-53"/>
     </g>
    </g>
   </g>
   <g id="text_47">
    <g clip-path="url(#p42e617de43)">
     <!-- PSMD2 -->
     <g transform="translate(322.490705 121.895192)scale(0.12 -0.12)">
      <use xlink:href="#DejaVuSans-80"/>
      <use x="60.302734" xlink:href="#DejaVuSans-83"/>
      <use x="123.779297" xlink:href="#DejaVuSans-77"/>
      <use x="210.058594" xlink:href="#DejaVuSans-68"/>
      <use x="287.060547" xlink:href="#DejaVuSans-50"/>
     </g>
    </g>
   </g>
   <g id="text_48">
    <g clip-path="url(#p42e617de43)">
     <!-- PSMD1 -->
     <g transform="translate(671.000839 221.888544)scale(0.12 -0.12)">
      <use xlink:href="#DejaVuSans-80"/>
      <use x="60.302734" xlink:href="#DejaVuSans-83"/>
      <use x="123.779297" xlink:href="#DejaVuSans-77"/>
      <use x="210.058594" xlink:href="#DejaVuSans-68"/>
      <use x="287.060547" xlink:href="#DejaVuSans-49"/>
     </g>
    </g>
   </g>
   <g id="text_49">
    <g clip-path="url(#p42e617de43)">
     <!-- PSMD3 -->
     <g transform="translate(305.812752 458.784574)scale(0.12 -0.12)">
      <use xlink:href="#DejaVuSans-80"/>
      <use x="60.302734" xlink:href="#DejaVuSans-83"/>
      <use x="123.779297" xlink:href="#DejaVuSans-77"/>
      <use x="210.058594" xlink:href="#DejaVuSans-68"/>
      <use x="287.060547" xlink:href="#DejaVuSans-51"/>
     </g>
    </g>
   </g>
   <g id="text_50">
    <g clip-path="url(#p42e617de43)">
     <!-- PSMD9 -->
     <g transform="translate(145.064535 283.673482)scale(0.12 -0.12)">
      <use xlink:href="#DejaVuSans-80"/>
      <use x="60.302734" xlink:href="#DejaVuSans-83"/>
      <use x="123.779297" xlink:href="#DejaVuSans-77"/>
      <use x="210.058594" xlink:href="#DejaVuSans-68"/>
      <use x="287.060547" xlink:href="#DejaVuSans-57"/>
     </g>
    </g>
   </g>
   <g id="text_51">
    <g clip-path="url(#p42e617de43)">
     <!-- PSMD12 -->
     <g transform="translate(686.155704 313.663774)scale(0.12 -0.12)">
      <use xlink:href="#DejaVuSans-80"/>
      <use x="60.302734" xlink:href="#DejaVuSans-83"/>
      <use x="123.779297" xlink:href="#DejaVuSans-77"/>
      <use x="210.058594" xlink:href="#DejaVuSans-68"/>
      <use x="287.060547" xlink:href="#DejaVuSans-49"/>
      <use x="350.683594" xlink:href="#DejaVuSans-50"/>
     </g>
    </g>
   </g>
   <g id="text_52">
    <g clip-path="url(#p42e617de43)">
     <!-- PSMD11 -->
     <g transform="translate(592.483507 447.944835)scale(0.12 -0.12)">
      <use xlink:href="#DejaVuSans-80"/>
      <use x="60.302734" xlink:href="#DejaVuSans-83"/>
      <use x="123.779297" xlink:href="#DejaVuSans-77"/>
      <use x="210.058594" xlink:href="#DejaVuSans-68"/>
      <use x="287.060547" xlink:href="#DejaVuSans-49"/>
      <use x="350.683594" xlink:href="#DejaVuSans-49"/>
     </g>
    </g>
   </g>
   <g id="text_53">
    <g clip-path="url(#p42e617de43)">
     <!-- PSMD6 -->
     <g transform="translate(521.030476 469.308761)scale(0.12 -0.12)">
      <use xlink:href="#DejaVuSans-80"/>
      <use x="60.302734" xlink:href="#DejaVuSans-83"/>
      <use x="123.779297" xlink:href="#DejaVuSans-77"/>
      <use x="210.058594" xlink:href="#DejaVuSans-68"/>
      <use x="287.060547" xlink:href="#DejaVuSans-54"/>
     </g>
    </g>
   </g>
   <g id="text_54">
    <g clip-path="url(#p42e617de43)">
     <!-- PSMD7 -->
     <g transform="translate(690.697508 359.875508)scale(0.12 -0.12)">
      <use xlink:href="#DejaVuSans-80"/>
      <use x="60.302734" xlink:href="#DejaVuSans-83"/>
      <use x="123.779297" xlink:href="#DejaVuSans-77"/>
      <use x="210.058594" xlink:href="#DejaVuSans-68"/>
      <use x="287.060547" xlink:href="#DejaVuSans-55"/>
     </g>
    </g>
   </g>
   <g id="text_55">
    <g clip-path="url(#p42e617de43)">
     <!-- PSMD13 -->
     <g transform="translate(545.498218 465.964726)scale(0.12 -0.12)">
      <use xlink:href="#DejaVuSans-80"/>
      <use x="60.302734" xlink:href="#DejaVuSans-83"/>
      <use x="123.779297" xlink:href="#DejaVuSans-77"/>
      <use x="210.058594" xlink:href="#DejaVuSans-68"/>
      <use x="287.060547" xlink:href="#DejaVuSans-49"/>
      <use x="350.683594" xlink:href="#DejaVuSans-51"/>
     </g>
    </g>
   </g>
   <g id="text_56">
    <g clip-path="url(#p42e617de43)">
     <!-- PSMD4 -->
     <g transform="translate(190.926651 385.15379)scale(0.12 -0.12)">
      <use xlink:href="#DejaVuSans-80"/>
      <use x="60.302734" xlink:href="#DejaVuSans-83"/>
      <use x="123.779297" xlink:href="#DejaVuSans-77"/>
      <use x="210.058594" xlink:href="#DejaVuSans-68"/>
      <use x="287.060547" xlink:href="#DejaVuSans-52"/>
     </g>
    </g>
   </g>
   <g id="text_57">
    <g clip-path="url(#p42e617de43)">
     <!-- PSMD14 -->
     <g transform="translate(274.379781 452.885182)scale(0.12 -0.12)">
      <use xlink:href="#DejaVuSans-80"/>
      <use x="60.302734" xlink:href="#DejaVuSans-83"/>
      <use x="123.779297" xlink:href="#DejaVuSans-77"/>
      <use x="210.058594" xlink:href="#DejaVuSans-68"/>
      <use x="287.060547" xlink:href="#DejaVuSans-49"/>
      <use x="350.683594" xlink:href="#DejaVuSans-52"/>
     </g>
    </g>
   </g>
   <g id="text_58">
    <g clip-path="url(#p42e617de43)">
     <!-- PSMD8 -->
     <g transform="translate(613.641847 171.217112)scale(0.12 -0.12)">
      <defs>
       <path d="M 31.78125 34.625 
Q 24.75 34.625 20.71875 30.859375 
Q 16.703125 27.09375 16.703125 20.515625 
Q 16.703125 13.921875 20.71875 10.15625 
Q 24.75 6.390625 31.78125 6.390625 
Q 38.8125 6.390625 42.859375 10.171875 
Q 46.921875 13.96875 46.921875 20.515625 
Q 46.921875 27.09375 42.890625 30.859375 
Q 38.875 34.625 31.78125 34.625 
z
M 21.921875 38.8125 
Q 15.578125 40.375 12.03125 44.71875 
Q 8.5 49.078125 8.5 55.328125 
Q 8.5 64.0625 14.71875 69.140625 
Q 20.953125 74.21875 31.78125 74.21875 
Q 42.671875 74.21875 48.875 69.140625 
Q 55.078125 64.0625 55.078125 55.328125 
Q 55.078125 49.078125 51.53125 44.71875 
Q 48 40.375 41.703125 38.8125 
Q 48.828125 37.15625 52.796875 32.3125 
Q 56.78125 27.484375 56.78125 20.515625 
Q 56.78125 9.90625 50.3125 4.234375 
Q 43.84375 -1.421875 31.78125 -1.421875 
Q 19.734375 -1.421875 13.25 4.234375 
Q 6.78125 9.90625 6.78125 20.515625 
Q 6.78125 27.484375 10.78125 32.3125 
Q 14.796875 37.15625 21.921875 38.8125 
z
M 18.3125 54.390625 
Q 18.3125 48.734375 21.84375 45.5625 
Q 25.390625 42.390625 31.78125 42.390625 
Q 38.140625 42.390625 41.71875 45.5625 
Q 45.3125 48.734375 45.3125 54.390625 
Q 45.3125 60.0625 41.71875 63.234375 
Q 38.140625 66.40625 31.78125 66.40625 
Q 25.390625 66.40625 21.84375 63.234375 
Q 18.3125 60.0625 18.3125 54.390625 
z
" id="DejaVuSans-56"/>
      </defs>
      <use xlink:href="#DejaVuSans-80"/>
      <use x="60.302734" xlink:href="#DejaVuSans-83"/>
      <use x="123.779297" xlink:href="#DejaVuSans-77"/>
      <use x="210.058594" xlink:href="#DejaVuSans-68"/>
      <use x="287.060547" xlink:href="#DejaVuSans-56"/>
     </g>
    </g>
   </g>
   <g id="text_59">
    <g clip-path="url(#p42e617de43)">
     <!-- SHFM1 -->
     <g transform="translate(656.637606 405.029294)scale(0.12 -0.12)">
      <use xlink:href="#DejaVuSans-83"/>
      <use x="63.476562" xlink:href="#DejaVuSans-72"/>
      <use x="138.671875" xlink:href="#DejaVuSans-70"/>
      <use x="196.191406" xlink:href="#DejaVuSans-77"/>
      <use x="282.470703" xlink:href="#DejaVuSans-49"/>
     </g>
    </g>
   </g>
   <g id="text_60">
    <g clip-path="url(#p42e617de43)">
     <!-- CSNK2B -->
     <g transform="translate(204.927451 189.11363)scale(0.12 -0.12)">
      <use xlink:href="#DejaVuSans-67"/>
      <use x="69.824219" xlink:href="#DejaVuSans-83"/>
      <use x="133.300781" xlink:href="#DejaVuSans-78"/>
      <use x="208.105469" xlink:href="#DejaVuSans-75"/>
      <use x="273.681641" xlink:href="#DejaVuSans-50"/>
      <use x="337.304688" xlink:href="#DejaVuSans-66"/>
     </g>
    </g>
   </g>
   <g id="text_61">
    <g clip-path="url(#p42e617de43)">
     <!-- CREB1 -->
     <g transform="translate(562.662008 435.682557)scale(0.12 -0.12)">
      <use xlink:href="#DejaVuSans-67"/>
      <use x="69.824219" xlink:href="#DejaVuSans-82"/>
      <use x="139.306641" xlink:href="#DejaVuSans-69"/>
      <use x="202.490234" xlink:href="#DejaVuSans-66"/>
      <use x="271.09375" xlink:href="#DejaVuSans-49"/>
     </g>
    </g>
   </g>
   <g id="text_62">
    <g clip-path="url(#p42e617de43)">
     <!-- ATF2 -->
     <g transform="translate(513.207662 431.214642)scale(0.12 -0.12)">
      <use xlink:href="#DejaVuSans-65"/>
      <use x="60.658203" xlink:href="#DejaVuSans-84"/>
      <use x="121.742188" xlink:href="#DejaVuSans-70"/>
      <use x="179.261719" xlink:href="#DejaVuSans-50"/>
     </g>
    </g>
   </g>
   <g id="text_63">
    <g clip-path="url(#p42e617de43)">
     <!-- CREB3 -->
     <g transform="translate(310.619562 385.426041)scale(0.12 -0.12)">
      <use xlink:href="#DejaVuSans-67"/>
      <use x="69.824219" xlink:href="#DejaVuSans-82"/>
      <use x="139.306641" xlink:href="#DejaVuSans-69"/>
      <use x="202.490234" xlink:href="#DejaVuSans-66"/>
      <use x="271.09375" xlink:href="#DejaVuSans-51"/>
     </g>
    </g>
   </g>
   <g id="text_64">
    <g clip-path="url(#p42e617de43)">
     <!-- ATF6B -->
     <g transform="translate(479.26052 340.017554)scale(0.12 -0.12)">
      <use xlink:href="#DejaVuSans-65"/>
      <use x="60.658203" xlink:href="#DejaVuSans-84"/>
      <use x="121.742188" xlink:href="#DejaVuSans-70"/>
      <use x="179.261719" xlink:href="#DejaVuSans-54"/>
      <use x="242.884766" xlink:href="#DejaVuSans-66"/>
     </g>
    </g>
   </g>
   <g id="text_65">
    <g clip-path="url(#p42e617de43)">
     <!-- RAC1 -->
     <g transform="translate(163.65067 258.995404)scale(0.12 -0.12)">
      <use xlink:href="#DejaVuSans-82"/>
      <use x="65.482422" xlink:href="#DejaVuSans-65"/>
      <use x="132.140625" xlink:href="#DejaVuSans-67"/>
      <use x="201.964844" xlink:href="#DejaVuSans-49"/>
     </g>
    </g>
   </g>
   <g id="text_66">
    <g clip-path="url(#p42e617de43)">
     <!-- RAC2 -->
     <g transform="translate(566.332596 145.62881)scale(0.12 -0.12)">
      <use xlink:href="#DejaVuSans-82"/>
      <use x="65.482422" xlink:href="#DejaVuSans-65"/>
      <use x="132.140625" xlink:href="#DejaVuSans-67"/>
      <use x="201.964844" xlink:href="#DejaVuSans-50"/>
     </g>
    </g>
   </g>
   <g id="text_67">
    <!-- Frame: 11 -->
    <g transform="translate(121.392 91.296)scale(0.1 -0.1)">
     <defs>
      <path d="M 41.109375 46.296875 
Q 39.59375 47.171875 37.8125 47.578125 
Q 36.03125 48 33.890625 48 
Q 26.265625 48 22.1875 43.046875 
Q 18.109375 38.09375 18.109375 28.8125 
L 18.109375 0 
L 9.078125 0 
L 9.078125 54.6875 
L 18.109375 54.6875 
L 18.109375 46.1875 
Q 20.953125 51.171875 25.484375 53.578125 
Q 30.03125 56 36.53125 56 
Q 37.453125 56 38.578125 55.875 
Q 39.703125 55.765625 41.0625 55.515625 
z
" id="DejaVuSans-114"/>
      <path d="M 34.28125 27.484375 
Q 23.390625 27.484375 19.1875 25 
Q 14.984375 22.515625 14.984375 16.5 
Q 14.984375 11.71875 18.140625 8.90625 
Q 21.296875 6.109375 26.703125 6.109375 
Q 34.1875 6.109375 38.703125 11.40625 
Q 43.21875 16.703125 43.21875 25.484375 
L 43.21875 27.484375 
z
M 52.203125 31.203125 
L 52.203125 0 
L 43.21875 0 
L 43.21875 8.296875 
Q 40.140625 3.328125 35.546875 0.953125 
Q 30.953125 -1.421875 24.3125 -1.421875 
Q 15.921875 -1.421875 10.953125 3.296875 
Q 6 8.015625 6 15.921875 
Q 6 25.140625 12.171875 29.828125 
Q 18.359375 34.515625 30.609375 34.515625 
L 43.21875 34.515625 
L 43.21875 35.40625 
Q 43.21875 41.609375 39.140625 45 
Q 35.0625 48.390625 27.6875 48.390625 
Q 23 48.390625 18.546875 47.265625 
Q 14.109375 46.140625 10.015625 43.890625 
L 10.015625 52.203125 
Q 14.9375 54.109375 19.578125 55.046875 
Q 24.21875 56 28.609375 56 
Q 40.484375 56 46.34375 49.84375 
Q 52.203125 43.703125 52.203125 31.203125 
z
" id="DejaVuSans-97"/>
      <path d="M 52 44.1875 
Q 55.375 50.25 60.0625 53.125 
Q 64.75 56 71.09375 56 
Q 79.640625 56 84.28125 50.015625 
Q 88.921875 44.046875 88.921875 33.015625 
L 88.921875 0 
L 79.890625 0 
L 79.890625 32.71875 
Q 79.890625 40.578125 77.09375 44.375 
Q 74.3125 48.1875 68.609375 48.1875 
Q 61.625 48.1875 57.5625 43.546875 
Q 53.515625 38.921875 53.515625 30.90625 
L 53.515625 0 
L 44.484375 0 
L 44.484375 32.71875 
Q 44.484375 40.625 41.703125 44.40625 
Q 38.921875 48.1875 33.109375 48.1875 
Q 26.21875 48.1875 22.15625 43.53125 
Q 18.109375 38.875 18.109375 30.90625 
L 18.109375 0 
L 9.078125 0 
L 9.078125 54.6875 
L 18.109375 54.6875 
L 18.109375 46.1875 
Q 21.1875 51.21875 25.484375 53.609375 
Q 29.78125 56 35.6875 56 
Q 41.65625 56 45.828125 52.96875 
Q 50 49.953125 52 44.1875 
z
" id="DejaVuSans-109"/>
      <path d="M 56.203125 29.59375 
L 56.203125 25.203125 
L 14.890625 25.203125 
Q 15.484375 15.921875 20.484375 11.0625 
Q 25.484375 6.203125 34.421875 6.203125 
Q 39.59375 6.203125 44.453125 7.46875 
Q 49.3125 8.734375 54.109375 11.28125 
L 54.109375 2.78125 
Q 49.265625 0.734375 44.1875 -0.34375 
Q 39.109375 -1.421875 33.890625 -1.421875 
Q 20.796875 -1.421875 13.15625 6.1875 
Q 5.515625 13.8125 5.515625 26.8125 
Q 5.515625 40.234375 12.765625 48.109375 
Q 20.015625 56 32.328125 56 
Q 43.359375 56 49.78125 48.890625 
Q 56.203125 41.796875 56.203125 29.59375 
z
M 47.21875 32.234375 
Q 47.125 39.59375 43.09375 43.984375 
Q 39.0625 48.390625 32.421875 48.390625 
Q 24.90625 48.390625 20.390625 44.140625 
Q 15.875 39.890625 15.1875 32.171875 
z
" id="DejaVuSans-101"/>
      <path d="M 11.71875 12.40625 
L 22.015625 12.40625 
L 22.015625 0 
L 11.71875 0 
z
M 11.71875 51.703125 
L 22.015625 51.703125 
L 22.015625 39.3125 
L 11.71875 39.3125 
z
" id="DejaVuSans-58"/>
      <path id="DejaVuSans-32"/>
     </defs>
     <use xlink:href="#DejaVuSans-70"/>
     <use x="50.269531" xlink:href="#DejaVuSans-114"/>
     <use x="91.382812" xlink:href="#DejaVuSans-97"/>
     <use x="152.662109" xlink:href="#DejaVuSans-109"/>
     <use x="250.074219" xlink:href="#DejaVuSans-101"/>
     <use x="311.597656" xlink:href="#DejaVuSans-58"/>
     <use x="345.289062" xlink:href="#DejaVuSans-32"/>
     <use x="377.076172" xlink:href="#DejaVuSans-49"/>
     <use x="440.699219" xlink:href="#DejaVuSans-49"/>
    </g>
   </g>
   <g id="text_68">
    <!-- Network: hsa05020 -->
    <g transform="translate(384.1275 63.12)scale(0.12 -0.12)">
     <defs>
      <path d="M 18.3125 70.21875 
L 18.3125 54.6875 
L 36.8125 54.6875 
L 36.8125 47.703125 
L 18.3125 47.703125 
L 18.3125 18.015625 
Q 18.3125 11.328125 20.140625 9.421875 
Q 21.96875 7.515625 27.59375 7.515625 
L 36.8125 7.515625 
L 36.8125 0 
L 27.59375 0 
Q 17.1875 0 13.234375 3.875 
Q 9.28125 7.765625 9.28125 18.015625 
L 9.28125 47.703125 
L 2.6875 47.703125 
L 2.6875 54.6875 
L 9.28125 54.6875 
L 9.28125 70.21875 
z
" id="DejaVuSans-116"/>
      <path d="M 4.203125 54.6875 
L 13.1875 54.6875 
L 24.421875 12.015625 
L 35.59375 54.6875 
L 46.1875 54.6875 
L 57.421875 12.015625 
L 68.609375 54.6875 
L 77.59375 54.6875 
L 63.28125 0 
L 52.6875 0 
L 40.921875 44.828125 
L 29.109375 0 
L 18.5 0 
z
" id="DejaVuSans-119"/>
      <path d="M 30.609375 48.390625 
Q 23.390625 48.390625 19.1875 42.75 
Q 14.984375 37.109375 14.984375 27.296875 
Q 14.984375 17.484375 19.15625 11.84375 
Q 23.34375 6.203125 30.609375 6.203125 
Q 37.796875 6.203125 41.984375 11.859375 
Q 46.1875 17.53125 46.1875 27.296875 
Q 46.1875 37.015625 41.984375 42.703125 
Q 37.796875 48.390625 30.609375 48.390625 
z
M 30.609375 56 
Q 42.328125 56 49.015625 48.375 
Q 55.71875 40.765625 55.71875 27.296875 
Q 55.71875 13.875 49.015625 6.21875 
Q 42.328125 -1.421875 30.609375 -1.421875 
Q 18.84375 -1.421875 12.171875 6.21875 
Q 5.515625 13.875 5.515625 27.296875 
Q 5.515625 40.765625 12.171875 48.375 
Q 18.84375 56 30.609375 56 
z
" id="DejaVuSans-111"/>
      <path d="M 9.078125 75.984375 
L 18.109375 75.984375 
L 18.109375 31.109375 
L 44.921875 54.6875 
L 56.390625 54.6875 
L 27.390625 29.109375 
L 57.625 0 
L 45.90625 0 
L 18.109375 26.703125 
L 18.109375 0 
L 9.078125 0 
z
" id="DejaVuSans-107"/>
      <path d="M 54.890625 33.015625 
L 54.890625 0 
L 45.90625 0 
L 45.90625 32.71875 
Q 45.90625 40.484375 42.875 44.328125 
Q 39.84375 48.1875 33.796875 48.1875 
Q 26.515625 48.1875 22.3125 43.546875 
Q 18.109375 38.921875 18.109375 30.90625 
L 18.109375 0 
L 9.078125 0 
L 9.078125 75.984375 
L 18.109375 75.984375 
L 18.109375 46.1875 
Q 21.34375 51.125 25.703125 53.5625 
Q 30.078125 56 35.796875 56 
Q 45.21875 56 50.046875 50.171875 
Q 54.890625 44.34375 54.890625 33.015625 
z
" id="DejaVuSans-104"/>
      <path d="M 44.28125 53.078125 
L 44.28125 44.578125 
Q 40.484375 46.53125 36.375 47.5 
Q 32.28125 48.484375 27.875 48.484375 
Q 21.1875 48.484375 17.84375 46.4375 
Q 14.5 44.390625 14.5 40.28125 
Q 14.5 37.15625 16.890625 35.375 
Q 19.28125 33.59375 26.515625 31.984375 
L 29.59375 31.296875 
Q 39.15625 29.25 43.1875 25.515625 
Q 47.21875 21.78125 47.21875 15.09375 
Q 47.21875 7.46875 41.1875 3.015625 
Q 35.15625 -1.421875 24.609375 -1.421875 
Q 20.21875 -1.421875 15.453125 -0.5625 
Q 10.6875 0.296875 5.421875 2 
L 5.421875 11.28125 
Q 10.40625 8.6875 15.234375 7.390625 
Q 20.0625 6.109375 24.8125 6.109375 
Q 31.15625 6.109375 34.5625 8.28125 
Q 37.984375 10.453125 37.984375 14.40625 
Q 37.984375 18.0625 35.515625 20.015625 
Q 33.0625 21.96875 24.703125 23.78125 
L 21.578125 24.515625 
Q 13.234375 26.265625 9.515625 29.90625 
Q 5.8125 33.546875 5.8125 39.890625 
Q 5.8125 47.609375 11.28125 51.796875 
Q 16.75 56 26.8125 56 
Q 31.78125 56 36.171875 55.265625 
Q 40.578125 54.546875 44.28125 53.078125 
z
" id="DejaVuSans-115"/>
      <path d="M 31.78125 66.40625 
Q 24.171875 66.40625 20.328125 58.90625 
Q 16.5 51.421875 16.5 36.375 
Q 16.5 21.390625 20.328125 13.890625 
Q 24.171875 6.390625 31.78125 6.390625 
Q 39.453125 6.390625 43.28125 13.890625 
Q 47.125 21.390625 47.125 36.375 
Q 47.125 51.421875 43.28125 58.90625 
Q 39.453125 66.40625 31.78125 66.40625 
z
M 31.78125 74.21875 
Q 44.046875 74.21875 50.515625 64.515625 
Q 56.984375 54.828125 56.984375 36.375 
Q 56.984375 17.96875 50.515625 8.265625 
Q 44.046875 -1.421875 31.78125 -1.421875 
Q 19.53125 -1.421875 13.0625 8.265625 
Q 6.59375 17.96875 6.59375 36.375 
Q 6.59375 54.828125 13.0625 64.515625 
Q 19.53125 74.21875 31.78125 74.21875 
z
" id="DejaVuSans-48"/>
     </defs>
     <use xlink:href="#DejaVuSans-78"/>
     <use x="74.804688" xlink:href="#DejaVuSans-101"/>
     <use x="136.328125" xlink:href="#DejaVuSans-116"/>
     <use x="175.537109" xlink:href="#DejaVuSans-119"/>
     <use x="257.324219" xlink:href="#DejaVuSans-111"/>
     <use x="318.505859" xlink:href="#DejaVuSans-114"/>
     <use x="359.619141" xlink:href="#DejaVuSans-107"/>
     <use x="417.529297" xlink:href="#DejaVuSans-58"/>
     <use x="451.220703" xlink:href="#DejaVuSans-32"/>
     <use x="483.007812" xlink:href="#DejaVuSans-104"/>
     <use x="546.386719" xlink:href="#DejaVuSans-115"/>
     <use x="598.486328" xlink:href="#DejaVuSans-97"/>
     <use x="659.765625" xlink:href="#DejaVuSans-48"/>
     <use x="723.388672" xlink:href="#DejaVuSans-53"/>
     <use x="787.011719" xlink:href="#DejaVuSans-48"/>
     <use x="850.634766" xlink:href="#DejaVuSans-50"/>
     <use x="914.257812" xlink:href="#DejaVuSans-48"/>
    </g>
   </g>
  </g>
 </g>
 <defs>
  <clipPath id="p42e617de43">
   <rect height="443.52" width="669.6" x="108" y="69.12"/>
  </clipPath>
 </defs>
</svg>
