<?xml version="1.0" encoding="utf-8" standalone="no"?>
<!DOCTYPE svg PUBLIC "-//W3C//DTD SVG 1.1//EN"
  "http://www.w3.org/Graphics/SVG/1.1/DTD/svg11.dtd">
<!-- Created with matplotlib (https://matplotlib.org/) -->
<svg height="576pt" version="1.1" viewBox="0 0 864 576" width="864pt" xmlns="http://www.w3.org/2000/svg" xmlns:xlink="http://www.w3.org/1999/xlink">
 <metadata>
  <rdf:RDF xmlns:cc="http://creativecommons.org/ns#" xmlns:dc="http://purl.org/dc/elements/1.1/" xmlns:rdf="http://www.w3.org/1999/02/22-rdf-syntax-ns#">
   <cc:Work>
    <dc:type rdf:resource="http://purl.org/dc/dcmitype/StillImage"/>
    <dc:date>2024-05-23T11:56:31.729576</dc:date>
    <dc:format>image/svg+xml</dc:format>
    <dc:creator>
     <cc:Agent>
      <dc:title>Matplotlib v3.3.1, https://matplotlib.org/</dc:title>
     </cc:Agent>
    </dc:creator>
   </cc:Work>
  </rdf:RDF>
 </metadata>
 <defs>
  <style type="text/css">*{stroke-linecap:butt;stroke-linejoin:round;}</style>
 </defs>
 <g id="figure_1">
  <g id="patch_1">
   <path d="M 0 576 
L 864 576 
L 864 0 
L 0 0 
z
" style="fill:#ffffff;"/>
  </g>
  <g id="axes_1">
   <g id="patch_2">
    <path clip-path="url(#pf8cae6554f)" d="M 551.253238 389.958581 
Q 624.436346 368.319202 696.547308 346.996844 
" style="fill:none;stroke:#000000;stroke-linecap:round;"/>
    <path clip-path="url(#pf8cae6554f)" d="M 692.144376 346.213139 
L 696.547308 346.996844 
L 693.278585 350.048967 
L 692.144376 346.213139 
z
" style="stroke:#000000;stroke-linecap:round;"/>
   </g>
   <g id="patch_3">
    <path clip-path="url(#pf8cae6554f)" d="M 538.702564 399.958591 
Q 521.01877 431.371119 503.883439 461.809385 
" style="fill:none;stroke:#000000;stroke-linecap:round;"/>
    <path clip-path="url(#pf8cae6554f)" d="M 507.588498 459.304881 
L 503.883439 461.809385 
L 504.102872 457.342636 
L 507.588498 459.304881 
z
" style="stroke:#000000;stroke-linecap:round;"/>
   </g>
   <g id="patch_4">
    <path clip-path="url(#pf8cae6554f)" d="M 423.947047 252.501563 
Q 560.814858 297.023086 696.619472 341.198763 
" style="fill:none;stroke:#000000;stroke-linecap:round;"/>
    <path clip-path="url(#pf8cae6554f)" d="M 693.434326 338.059519 
L 696.619472 341.198763 
L 692.19699 341.863333 
L 693.434326 338.059519 
z
" style="stroke:#000000;stroke-linecap:round;"/>
   </g>
   <g id="patch_5">
    <path clip-path="url(#pf8cae6554f)" d="M 407.797994 246.310692 
Q 323.160829 208.753922 239.545605 171.650627 
" style="fill:none;stroke:#000000;stroke-linecap:round;"/>
    <path clip-path="url(#pf8cae6554f)" d="M 242.390609 175.101127 
L 239.545605 171.650627 
L 244.013007 171.444923 
L 242.390609 175.101127 
z
" style="stroke:#000000;stroke-linecap:round;"/>
   </g>
   <g id="patch_6">
    <path clip-path="url(#pf8cae6554f)" d="M 407.36643 247.514 
Q 310.779778 220.791668 215.270681 194.367459 
" style="fill:none;stroke:#000000;stroke-linecap:round;"/>
    <path clip-path="url(#pf8cae6554f)" d="M 218.592555 197.361645 
L 215.270681 194.367459 
L 219.659154 193.506471 
L 218.592555 197.361645 
z
" style="stroke:#000000;stroke-linecap:round;"/>
   </g>
   <g id="patch_7">
    <path clip-path="url(#pf8cae6554f)" d="M 374.174866 300.655364 
Q 305.569941 237.113466 237.785273 174.33129 
" style="fill:none;stroke:#000000;stroke-linecap:round;"/>
    <path clip-path="url(#pf8cae6554f)" d="M 239.360882 178.516676 
L 237.785273 174.33129 
L 242.078948 175.582035 
L 239.360882 178.516676 
z
" style="stroke:#000000;stroke-linecap:round;"/>
   </g>
   <g id="patch_8">
    <path clip-path="url(#pf8cae6554f)" d="M 427.045963 306.496835 
Q 562.192571 324.780249 696.231239 342.913774 
" style="fill:none;stroke:#000000;stroke-linecap:round;"/>
    <path clip-path="url(#pf8cae6554f)" d="M 692.535478 340.39557 
L 696.231239 342.913774 
L 691.99922 344.359461 
L 692.535478 340.39557 
z
" style="stroke:#000000;stroke-linecap:round;"/>
   </g>
   <g id="patch_9">
    <path clip-path="url(#pf8cae6554f)" d="M 410.821696 301.254255 
Q 312.153615 248.547737 214.471689 196.368004 
" style="fill:none;stroke:#000000;stroke-linecap:round;"/>
    <path clip-path="url(#pf8cae6554f)" d="M 217.05752 200.016767 
L 214.471689 196.368004 
L 218.942198 196.488597 
L 217.05752 200.016767 
z
" style="stroke:#000000;stroke-linecap:round;"/>
   </g>
   <g id="patch_10">
    <path clip-path="url(#pf8cae6554f)" d="M 411.259885 300.526861 
Q 327.025417 244.285357 243.720775 188.664678 
" style="fill:none;stroke:#000000;stroke-linecap:round;"/>
    <path clip-path="url(#pf8cae6554f)" d="M 245.936858 192.549131 
L 243.720775 188.664678 
L 248.157988 189.222484 
L 245.936858 192.549131 
z
" style="stroke:#000000;stroke-linecap:round;"/>
   </g>
   <g id="patch_11">
    <path clip-path="url(#pf8cae6554f)" d="M 422.264639 313.117505 
Q 458.774885 387.834082 494.794273 461.546141 
" style="fill:none;stroke:#000000;stroke-linecap:round;"/>
    <path clip-path="url(#pf8cae6554f)" d="M 494.835064 457.074191 
L 494.794273 461.546141 
L 491.241187 458.830338 
L 494.835064 457.074191 
z
" style="stroke:#000000;stroke-linecap:round;"/>
   </g>
   <g id="patch_12">
    <path clip-path="url(#pf8cae6554f)" d="M 210.982577 302.022391 
Q 208.615133 251.216625 206.299731 201.527682 
" style="fill:none;stroke:#000000;stroke-linecap:round;"/>
    <path clip-path="url(#pf8cae6554f)" d="M 204.488088 205.616442 
L 206.299731 201.527682 
L 208.483753 205.430252 
L 204.488088 205.616442 
z
" style="stroke:#000000;stroke-linecap:round;"/>
   </g>
   <g id="patch_13">
    <path clip-path="url(#pf8cae6554f)" d="M 434.20524 240.403726 
Q 566.019201 290.768899 696.788769 340.735018 
" style="fill:none;stroke:#000000;stroke-linecap:round;"/>
    <path clip-path="url(#pf8cae6554f)" d="M 693.766089 337.43905 
L 696.788769 340.735018 
L 692.338387 341.175581 
L 693.766089 337.43905 
z
" style="stroke:#000000;stroke-linecap:round;"/>
   </g>
   <g id="patch_14">
    <path clip-path="url(#pf8cae6554f)" d="M 417.955542 234.406589 
Q 328.360663 202.498368 239.819019 170.965246 
" style="fill:none;stroke:#000000;stroke-linecap:round;"/>
    <path clip-path="url(#pf8cae6554f)" d="M 242.916188 174.191318 
L 239.819019 170.965246 
L 244.258178 170.423153 
L 242.916188 174.191318 
z
" style="stroke:#000000;stroke-linecap:round;"/>
   </g>
   <g id="patch_15">
    <path clip-path="url(#pf8cae6554f)" d="M 417.634553 235.558621 
Q 315.981107 214.536262 215.422528 193.740327 
" style="fill:none;stroke:#000000;stroke-linecap:round;"/>
    <path clip-path="url(#pf8cae6554f)" d="M 218.934603 196.508959 
L 215.422528 193.740327 
L 219.744679 192.591846 
L 218.934603 196.508959 
z
" style="stroke:#000000;stroke-linecap:round;"/>
   </g>
   <g id="patch_16">
    <path clip-path="url(#pf8cae6554f)" d="M 168.755131 310.055793 
Q 186.004408 255.039454 202.919202 201.089942 
" style="fill:none;stroke:#000000;stroke-linecap:round;"/>
    <path clip-path="url(#pf8cae6554f)" d="M 199.814121 204.3084 
L 202.919202 201.089942 
L 203.63092 205.505082 
L 199.814121 204.3084 
z
" style="stroke:#000000;stroke-linecap:round;"/>
   </g>
   <g id="patch_17">
    <path clip-path="url(#pf8cae6554f)" d="M 243.304944 268.36364 
Q 226.476464 233.950483 210.139136 200.541701 
" style="fill:none;stroke:#000000;stroke-linecap:round;"/>
    <path clip-path="url(#pf8cae6554f)" d="M 210.099656 205.013663 
L 210.139136 200.541701 
L 213.693018 203.256463 
L 210.099656 205.013663 
z
" style="stroke:#000000;stroke-linecap:round;"/>
   </g>
   <g id="patch_18">
    <path clip-path="url(#pf8cae6554f)" d="M 241.961264 269.178876 
Q 222.857562 243.334804 204.418445 218.389803 
" style="fill:none;stroke:#000000;stroke-linecap:round;"/>
    <path clip-path="url(#pf8cae6554f)" d="M 205.187829 222.79526 
L 204.418445 218.389803 
L 208.40444 220.41757 
L 205.187829 222.79526 
z
" style="stroke:#000000;stroke-linecap:round;"/>
   </g>
   <g id="patch_19">
    <path clip-path="url(#pf8cae6554f)" d="M 284.150375 302.611086 
Q 261.500299 246.932165 239.271513 192.288867 
" style="fill:none;stroke:#000000;stroke-linecap:round;"/>
    <path clip-path="url(#pf8cae6554f)" d="M 238.926185 196.74765 
L 239.271513 192.288867 
L 242.631343 195.240399 
L 238.926185 196.74765 
z
" style="stroke:#000000;stroke-linecap:round;"/>
   </g>
   <g id="patch_20">
    <path clip-path="url(#pf8cae6554f)" d="M 354.370275 251.364071 
Q 298.73656 219.454482 244.072677 188.101155 
" style="fill:none;stroke:#000000;stroke-linecap:round;"/>
    <path clip-path="url(#pf8cae6554f)" d="M 246.547379 191.826185 
L 244.072677 188.101155 
L 248.537522 188.356411 
L 246.547379 191.826185 
z
" style="stroke:#000000;stroke-linecap:round;"/>
   </g>
   <g id="patch_21">
    <path clip-path="url(#pf8cae6554f)" d="M 519.021502 373.368428 
Q 509.926146 417.607538 501.055943 460.751521 
" style="fill:none;stroke:#000000;stroke-linecap:round;"/>
    <path clip-path="url(#pf8cae6554f)" d="M 503.820501 457.236237 
L 501.055943 460.751521 
L 499.902451 456.430704 
L 503.820501 457.236237 
z
" style="stroke:#000000;stroke-linecap:round;"/>
   </g>
   <g id="patch_22">
    <path clip-path="url(#pf8cae6554f)" d="M 695.775453 257.410854 
Q 705.238872 273.007281 714.122317 287.647868 
" style="fill:none;stroke:#000000;stroke-linecap:round;"/>
    <path clip-path="url(#pf8cae6554f)" d="M 713.7572 283.190661 
L 714.122317 287.647868 
L 710.337482 285.265638 
L 713.7572 283.190661 
z
" style="stroke:#000000;stroke-linecap:round;"/>
   </g>
   <g id="patch_23">
    <path clip-path="url(#pf8cae6554f)" d="M 499.747826 454.960544 
Q 560.624315 441.637771 620.408619 428.554023 
" style="fill:none;stroke:#000000;stroke-linecap:round;"/>
    <path clip-path="url(#pf8cae6554f)" d="M 616.073521 427.455421 
L 620.408619 428.554023 
L 616.928678 431.36294 
L 616.073521 427.455421 
z
" style="stroke:#000000;stroke-linecap:round;"/>
   </g>
   <g id="patch_24">
    <path clip-path="url(#pf8cae6554f)" d="M 445.965665 169.922296 
Q 465.100554 142.656368 483.593195 116.3056 
" style="fill:none;stroke:#000000;stroke-linecap:round;"/>
    <path clip-path="url(#pf8cae6554f)" d="M 479.658331 118.430888 
L 483.593195 116.3056 
L 482.932507 120.728664 
L 479.658331 118.430888 
z
" style="stroke:#000000;stroke-linecap:round;"/>
   </g>
   <g id="patch_25">
    <path clip-path="url(#pf8cae6554f)" d="M 432.764327 174.314786 
Q 374.305783 155.147447 316.909626 136.328443 
" style="fill:none;stroke:#000000;stroke-linecap:round;"/>
    <path clip-path="url(#pf8cae6554f)" d="M 320.087413 139.475134 
L 316.909626 136.328443 
L 321.333651 135.674227 
L 320.087413 139.475134 
z
" style="stroke:#000000;stroke-linecap:round;"/>
   </g>
   <g id="patch_26">
    <path clip-path="url(#pf8cae6554f)" d="M 498.608694 254.818006 
Q 406.765862 196.374389 315.866281 138.531003 
" style="fill:none;stroke:#000000;stroke-linecap:round;"/>
    <path clip-path="url(#pf8cae6554f)" d="M 318.16723 142.365795 
L 315.866281 138.531003 
L 320.314684 138.991119 
L 318.16723 142.365795 
z
" style="stroke:#000000;stroke-linecap:round;"/>
   </g>
   <g id="patch_27">
    <path clip-path="url(#pf8cae6554f)" d="M 512.097965 265.537053 
Q 579.767854 331.9714 646.639924 397.622494 
" style="fill:none;stroke:#000000;stroke-linecap:round;"/>
    <path clip-path="url(#pf8cae6554f)" d="M 645.186684 393.393063 
L 646.639924 397.622494 
L 642.384435 396.247428 
L 645.186684 393.393063 
z
" style="stroke:#000000;stroke-linecap:round;"/>
   </g>
   <g id="patch_28">
    <path clip-path="url(#pf8cae6554f)" d="M 484.306793 264.588496 
Q 399.438419 201.518642 315.467415 139.115667 
" style="fill:none;stroke:#000000;stroke-linecap:round;"/>
    <path clip-path="url(#pf8cae6554f)" d="M 317.484992 143.10683 
L 315.467415 139.115667 
L 319.870892 139.896303 
L 317.484992 143.10683 
z
" style="stroke:#000000;stroke-linecap:round;"/>
   </g>
   <g id="patch_29">
    <path clip-path="url(#pf8cae6554f)" d="M 497.92554 275.286606 
Q 572.438808 337.11418 646.091666 398.227826 
" style="fill:none;stroke:#000000;stroke-linecap:round;"/>
    <path clip-path="url(#pf8cae6554f)" d="M 644.29048 394.13445 
L 646.091666 398.227826 
L 641.736254 397.212749 
L 644.29048 394.13445 
z
" style="stroke:#000000;stroke-linecap:round;"/>
   </g>
   <g id="patch_30">
    <path clip-path="url(#pf8cae6554f)" d="M 656.159011 332.578314 
Q 684.86454 301.959551 712.805394 272.15643 
" style="fill:none;stroke:#000000;stroke-linecap:round;"/>
    <path clip-path="url(#pf8cae6554f)" d="M 708.610543 273.706665 
L 712.805394 272.15643 
L 711.528671 276.442452 
L 708.610543 273.706665 
z
" style="stroke:#000000;stroke-linecap:round;"/>
   </g>
   <g id="patch_31">
    <path clip-path="url(#pf8cae6554f)" d="M 228.77717 374.00345 
Q 214.786568 372.616657 201.908547 371.340147 
" style="fill:none;stroke:#000000;stroke-linecap:round;"/>
    <path clip-path="url(#pf8cae6554f)" d="M 205.691761 373.724953 
L 201.908547 371.340147 
L 206.08632 369.74446 
L 205.691761 373.724953 
z
" style="stroke:#000000;stroke-linecap:round;"/>
   </g>
   <g id="patch_32">
    <path clip-path="url(#pf8cae6554f)" d="M 392.060215 294.39731 
Q 364.006944 374.160574 336.32462 452.869135 
" style="fill:none;stroke:#000000;stroke-linecap:round;"/>
    <path clip-path="url(#pf8cae6554f)" d="M 339.538468 449.759282 
L 336.32462 452.869135 
L 335.765047 448.432145 
L 339.538468 449.759282 
z
" style="stroke:#000000;stroke-linecap:round;"/>
   </g>
   <g id="patch_33">
    <path clip-path="url(#pf8cae6554f)" d="M 393.536412 277.679659 
Q 380.828724 199.979724 368.301491 123.383164 
" style="fill:none;stroke:#000000;stroke-linecap:round;"/>
    <path clip-path="url(#pf8cae6554f)" d="M 366.973329 127.653525 
L 368.301491 123.383164 
L 370.920883 127.00791 
L 366.973329 127.653525 
z
" style="stroke:#000000;stroke-linecap:round;"/>
   </g>
   <g id="patch_34">
    <path clip-path="url(#pf8cae6554f)" d="M 504.335866 187.364743 
Q 439.348981 152.591941 375.347884 118.346608 
" style="fill:none;stroke:#000000;stroke-linecap:round;"/>
    <path clip-path="url(#pf8cae6554f)" d="M 377.931178 121.997169 
L 375.347884 118.346608 
L 379.818309 118.47031 
L 377.931178 121.997169 
z
" style="stroke:#000000;stroke-linecap:round;"/>
   </g>
   <g id="patch_35">
    <path clip-path="url(#pf8cae6554f)" d="M 532.820633 168.983866 
Q 453.881427 142.724819 376.003099 116.818672 
" style="fill:none;stroke:#000000;stroke-linecap:round;"/>
    <path clip-path="url(#pf8cae6554f)" d="M 379.167324 119.979001 
L 376.003099 116.818672 
L 380.429897 116.183489 
L 379.167324 119.979001 
z
" style="stroke:#000000;stroke-linecap:round;"/>
   </g>
   <g id="patch_36">
    <path clip-path="url(#pf8cae6554f)" d="M 348.393002 252.454614 
Q 356.990505 187.38801 365.44155 123.429806 
" style="fill:none;stroke:#000000;stroke-linecap:round;"/>
    <path clip-path="url(#pf8cae6554f)" d="M 362.934803 127.133348 
L 365.44155 123.429806 
L 366.900335 127.657329 
L 362.934803 127.133348 
z
" style="stroke:#000000;stroke-linecap:round;"/>
   </g>
   <g id="patch_37">
    <path clip-path="url(#pf8cae6554f)" d="M 552.597946 143.298598 
Q 463.936086 129.195245 376.378379 115.267529 
" style="fill:none;stroke:#000000;stroke-linecap:round;"/>
    <path clip-path="url(#pf8cae6554f)" d="M 380.014526 117.871072 
L 376.378379 115.267529 
L 380.642902 113.920737 
L 380.014526 117.871072 
z
" style="stroke:#000000;stroke-linecap:round;"/>
   </g>
   <g id="patch_38">
    <path clip-path="url(#pf8cae6554f)" d="M 371.294413 366.548854 
Q 273.615179 335.731191 177.002172 305.249921 
" style="fill:none;stroke:#000000;stroke-linecap:round;"/>
    <path clip-path="url(#pf8cae6554f)" d="M 180.215063 308.360762 
L 177.002172 305.249921 
L 181.41858 304.546113 
L 180.215063 308.360762 
z
" style="stroke:#000000;stroke-linecap:round;"/>
   </g>
   <g id="patch_39">
    <path clip-path="url(#pf8cae6554f)" d="M 249.010939 160.117782 
Q 215.702729 200.060017 183.11056 239.143599 
" style="fill:none;stroke:#000000;stroke-linecap:round;"/>
    <path clip-path="url(#pf8cae6554f)" d="M 187.208349 237.352476 
L 183.11056 239.143599 
L 184.136334 234.790693 
L 187.208349 237.352476 
z
" style="stroke:#000000;stroke-linecap:round;"/>
   </g>
   <g id="patch_40">
    <path clip-path="url(#pf8cae6554f)" d="M 375.017211 237.21209 
Q 442.739389 181.193319 509.60007 125.887166 
" style="fill:none;stroke:#000000;stroke-linecap:round;"/>
    <path clip-path="url(#pf8cae6554f)" d="M 505.243117 126.89561 
L 509.60007 125.887166 
L 507.792654 129.977795 
L 505.243117 126.89561 
z
" style="stroke:#000000;stroke-linecap:round;"/>
   </g>
   <g id="patch_41">
    <path clip-path="url(#pf8cae6554f)" d="M 366.203234 234.34235 
Q 353.228732 183.513913 340.530754 133.768775 
" style="fill:none;stroke:#000000;stroke-linecap:round;"/>
    <path clip-path="url(#pf8cae6554f)" d="M 339.582212 138.139161 
L 340.530754 133.768775 
L 343.457937 137.14984 
L 339.582212 138.139161 
z
" style="stroke:#000000;stroke-linecap:round;"/>
   </g>
   <g id="patch_42">
    <path clip-path="url(#pf8cae6554f)" d="M 598.130557 359.538775 
Q 570.329069 407.748233 543.086112 454.989165 
" style="fill:none;stroke:#000000;stroke-linecap:round;"/>
    <path clip-path="url(#pf8cae6554f)" d="M 546.816926 452.523191 
L 543.086112 454.989165 
L 543.351821 450.52493 
L 546.816926 452.523191 
z
" style="stroke:#000000;stroke-linecap:round;"/>
   </g>
   <g id="patch_43">
    <path clip-path="url(#pf8cae6554f)" d="M 458.218033 311.198924 
Q 374.128073 375.76222 290.924912 439.644643 
" style="fill:none;stroke:#000000;stroke-linecap:round;"/>
    <path clip-path="url(#pf8cae6554f)" d="M 295.315601 438.795029 
L 290.924912 439.644643 
L 292.879634 435.622323 
L 295.315601 438.795029 
z
" style="stroke:#000000;stroke-linecap:round;"/>
   </g>
   <g id="patch_44">
    <path clip-path="url(#pf8cae6554f)" d="M 473.175408 309.018321 
Q 563.272879 343.49074 652.326139 377.56363 
" style="fill:none;stroke:#000000;stroke-linecap:round;"/>
    <path clip-path="url(#pf8cae6554f)" d="M 649.304953 374.266292 
L 652.326139 377.56363 
L 647.875557 378.002176 
L 649.304953 374.266292 
z
" style="stroke:#000000;stroke-linecap:round;"/>
   </g>
   <g id="patch_45">
    <path clip-path="url(#pf8cae6554f)" d="M 464.607654 297.278572 
Q 459.576299 206.765342 454.606997 117.368422 
" style="fill:none;stroke:#000000;stroke-linecap:round;"/>
    <path clip-path="url(#pf8cae6554f)" d="M 452.832085 121.473259 
L 454.606997 117.368422 
L 456.82592 121.251254 
L 452.832085 121.473259 
z
" style="stroke:#000000;stroke-linecap:round;"/>
   </g>
   <g id="patch_46">
    <path clip-path="url(#pf8cae6554f)" d="M 177.594928 234.564204 
Q 172.470605 269.957189 167.506484 304.243676 
" style="fill:none;stroke:#000000;stroke-linecap:round;"/>
    <path clip-path="url(#pf8cae6554f)" d="M 170.059004 300.571532 
L 167.506484 304.243676 
L 166.100281 299.998374 
L 170.059004 300.571532 
z
" style="stroke:#000000;stroke-linecap:round;"/>
   </g>
   <g id="patch_47">
    <path clip-path="url(#pf8cae6554f)" d="M 185.400394 220.341539 
Q 218.920329 191.492784 251.592857 163.373345 
" style="fill:none;stroke:#000000;stroke-linecap:round;"/>
    <path clip-path="url(#pf8cae6554f)" d="M 247.256442 164.466739 
L 251.592857 163.373345 
L 249.865723 167.498513 
L 247.256442 164.466739 
z
" style="stroke:#000000;stroke-linecap:round;"/>
   </g>
   <g id="patch_48">
    <path clip-path="url(#pf8cae6554f)" d="M 619.177171 265.607488 
Q 654.454782 315.527714 689.087157 364.534886 
" style="fill:none;stroke:#000000;stroke-linecap:round;"/>
    <path clip-path="url(#pf8cae6554f)" d="M 688.412008 360.114006 
L 689.087157 364.534886 
L 685.145364 362.422477 
L 688.412008 360.114006 
z
" style="stroke:#000000;stroke-linecap:round;"/>
   </g>
   <g id="patch_49">
    <path clip-path="url(#pf8cae6554f)" d="M 569.251005 263.343806 
Q 628.722542 315.088155 687.350615 366.098631 
" style="fill:none;stroke:#000000;stroke-linecap:round;"/>
    <path clip-path="url(#pf8cae6554f)" d="M 685.645736 361.964216 
L 687.350615 366.098631 
L 683.020156 364.981885 
L 685.645736 361.964216 
z
" style="stroke:#000000;stroke-linecap:round;"/>
   </g>
   <g id="patch_50">
    <path clip-path="url(#pf8cae6554f)" d="M 241.240096 214.635916 
Q 208.240931 238.687589 176.14528 262.08073 
" style="fill:none;stroke:#000000;stroke-linecap:round;"/>
    <path clip-path="url(#pf8cae6554f)" d="M 180.555804 261.340948 
L 176.14528 262.08073 
L 178.199769 258.108442 
L 180.555804 261.340948 
z
" style="stroke:#000000;stroke-linecap:round;"/>
   </g>
   <g id="patch_51">
    <path clip-path="url(#pf8cae6554f)" d="M 458.941413 353.207869 
Q 518.507851 395.81724 577.164954 437.776141 
" style="fill:none;stroke:#000000;stroke-linecap:round;"/>
    <path clip-path="url(#pf8cae6554f)" d="M 575.075216 433.822283 
L 577.164954 437.776141 
L 572.748025 437.075617 
L 575.075216 433.822283 
z
" style="stroke:#000000;stroke-linecap:round;"/>
   </g>
   <g id="patch_52">
    <path clip-path="url(#pf8cae6554f)" d="M 460.503127 347.238219 
Q 573.72795 335.008481 685.841204 322.898808 
" style="fill:none;stroke:#000000;stroke-linecap:round;"/>
    <path clip-path="url(#pf8cae6554f)" d="M 681.649559 321.339926 
L 685.841204 322.898808 
L 682.079112 325.316795 
L 681.649559 321.339926 
z
" style="stroke:#000000;stroke-linecap:round;"/>
   </g>
   <g id="patch_53">
    <path clip-path="url(#pf8cae6554f)" d="M 443.564017 345.808414 
Q 310.069711 308.003357 177.651134 270.502942 
" style="fill:none;stroke:#000000;stroke-linecap:round;"/>
    <path clip-path="url(#pf8cae6554f)" d="M 180.954819 273.517186 
L 177.651134 270.502942 
L 182.04474 269.668541 
L 180.954819 273.517186 
z
" style="stroke:#000000;stroke-linecap:round;"/>
   </g>
   <g id="patch_54">
    <path clip-path="url(#pf8cae6554f)" d="M 602.124973 407.963662 
Q 595.492647 421.807315 589.343382 434.642675 
" style="fill:none;stroke:#000000;stroke-linecap:round;"/>
    <path clip-path="url(#pf8cae6554f)" d="M 592.875319 431.899425 
L 589.343382 434.642675 
L 589.267944 430.171176 
L 592.875319 431.899425 
z
" style="stroke:#000000;stroke-linecap:round;"/>
   </g>
   <g id="patch_55">
    <path clip-path="url(#pf8cae6554f)" d="M 612.390589 394.457374 
Q 650.714633 361.001435 688.196427 328.280761 
" style="fill:none;stroke:#000000;stroke-linecap:round;"/>
    <path clip-path="url(#pf8cae6554f)" d="M 683.867818 329.404658 
L 688.196427 328.280761 
L 686.498379 332.417987 
L 683.867818 329.404658 
z
" style="stroke:#000000;stroke-linecap:round;"/>
   </g>
   <g id="patch_56">
    <path clip-path="url(#pf8cae6554f)" d="M 359.142594 452.940747 
Q 405.07673 462.651144 449.917006 472.130302 
" style="fill:none;stroke:#000000;stroke-linecap:round;"/>
    <path clip-path="url(#pf8cae6554f)" d="M 446.417151 469.346238 
L 449.917006 472.130302 
L 445.589842 473.259748 
L 446.417151 469.346238 
z
" style="stroke:#000000;stroke-linecap:round;"/>
   </g>
   <g id="patch_57">
    <path clip-path="url(#pf8cae6554f)" d="M 342.707406 447.742999 
Q 293.912338 426.868893 246.145194 406.434524 
" style="fill:none;stroke:#000000;stroke-linecap:round;"/>
    <path clip-path="url(#pf8cae6554f)" d="M 249.036186 409.846586 
L 246.145194 406.434524 
L 250.609439 406.168968 
L 249.036186 409.846586 
z
" style="stroke:#000000;stroke-linecap:round;"/>
   </g>
   <g id="patch_58">
    <path clip-path="url(#pf8cae6554f)" d="M 469.822297 322.069164 
Q 583.561713 332.742491 696.187986 343.31136 
" style="fill:none;stroke:#000000;stroke-linecap:round;"/>
    <path clip-path="url(#pf8cae6554f)" d="M 692.392342 340.94639 
L 696.187986 343.31136 
L 692.018623 344.928893 
L 692.392342 340.94639 
z
" style="stroke:#000000;stroke-linecap:round;"/>
   </g>
   <g id="patch_59">
    <path clip-path="url(#pf8cae6554f)" d="M 453.990658 316.45851 
Q 345.904842 244.472661 238.749571 173.106559 
" style="fill:none;stroke:#000000;stroke-linecap:round;"/>
    <path clip-path="url(#pf8cae6554f)" d="M 240.970147 176.988446 
L 238.749571 173.106559 
L 243.187425 173.65923 
L 240.970147 176.988446 
z
" style="stroke:#000000;stroke-linecap:round;"/>
   </g>
   <g id="patch_60">
    <path clip-path="url(#pf8cae6554f)" d="M 463.333314 329.653442 
Q 480.143407 395.795308 496.678105 460.853589 
" style="fill:none;stroke:#000000;stroke-linecap:round;"/>
    <path clip-path="url(#pf8cae6554f)" d="M 497.631196 456.484194 
L 496.678105 460.853589 
L 493.754443 457.469479 
L 497.631196 456.484194 
z
" style="stroke:#000000;stroke-linecap:round;"/>
   </g>
   <g id="patch_61">
    <path clip-path="url(#pf8cae6554f)" d="M 623.064232 222.047721 
Q 662.061918 279.551269 700.432075 336.129501 
" style="fill:none;stroke:#000000;stroke-linecap:round;"/>
    <path clip-path="url(#pf8cae6554f)" d="M 699.842213 331.696436 
L 700.432075 336.129501 
L 696.531706 333.941552 
L 699.842213 331.696436 
z
" style="stroke:#000000;stroke-linecap:round;"/>
   </g>
   <g id="patch_62">
    <path clip-path="url(#pf8cae6554f)" d="M 664.475736 271.049439 
Q 683.064517 303.868712 701.10229 335.715158 
" style="fill:none;stroke:#000000;stroke-linecap:round;"/>
    <path clip-path="url(#pf8cae6554f)" d="M 700.871192 331.248997 
L 701.10229 335.715158 
L 697.390702 333.22034 
L 700.871192 331.248997 
z
" style="stroke:#000000;stroke-linecap:round;"/>
   </g>
   <g id="patch_63">
    <path clip-path="url(#pf8cae6554f)" d="M 265.65095 220.112273 
Q 250.53762 197.500373 236.045566 175.817998 
" style="fill:none;stroke:#000000;stroke-linecap:round;"/>
    <path clip-path="url(#pf8cae6554f)" d="M 236.605523 180.254939 
L 236.045566 175.817998 
L 239.931093 178.032197 
L 236.605523 180.254939 
z
" style="stroke:#000000;stroke-linecap:round;"/>
   </g>
   <g id="patch_64">
    <path clip-path="url(#pf8cae6554f)" d="M 262.880436 223.141664 
Q 238.155257 209.537454 214.409627 196.472208 
" style="fill:none;stroke:#000000;stroke-linecap:round;"/>
    <path clip-path="url(#pf8cae6554f)" d="M 216.950041 200.152738 
L 214.409627 196.472208 
L 218.878299 196.648196 
L 216.950041 200.152738 
z
" style="stroke:#000000;stroke-linecap:round;"/>
   </g>
   <g id="patch_65">
    <path clip-path="url(#pf8cae6554f)" d="M 262.030977 225.344539 
Q 234.536607 218.921581 208.130958 212.752959 
" style="fill:none;stroke:#000000;stroke-linecap:round;"/>
    <path clip-path="url(#pf8cae6554f)" d="M 211.571114 215.610462 
L 208.130958 212.752959 
L 212.481054 211.715336 
L 211.571114 215.610462 
z
" style="stroke:#000000;stroke-linecap:round;"/>
   </g>
   <g id="patch_66">
    <path clip-path="url(#pf8cae6554f)" d="M 416.229081 257.309632 
Q 315.169968 225.822374 215.178278 194.667695 
" style="fill:none;stroke:#000000;stroke-linecap:round;"/>
    <path clip-path="url(#pf8cae6554f)" d="M 218.402268 197.767031 
L 215.178278 194.667695 
L 219.592141 193.948105 
L 218.402268 197.767031 
z
" style="stroke:#000000;stroke-linecap:round;"/>
   </g>
   <g id="patch_67">
    <path clip-path="url(#pf8cae6554f)" d="M 168.810918 275.4289 
Q 171.664062 265.212855 174.21647 256.073636 
" style="fill:none;stroke:#000000;stroke-linecap:round;"/>
    <path clip-path="url(#pf8cae6554f)" d="M 171.214233 259.388236 
L 174.21647 256.073636 
L 175.066807 260.464186 
L 171.214233 259.388236 
z
" style="stroke:#000000;stroke-linecap:round;"/>
   </g>
   <g id="patch_68">
    <path clip-path="url(#pf8cae6554f)" d="M 192.541595 246.106517 
Q 180.896059 275.978963 169.656613 304.809732 
" style="fill:none;stroke:#000000;stroke-linecap:round;"/>
    <path clip-path="url(#pf8cae6554f)" d="M 172.972892 301.80935 
L 169.656613 304.809732 
L 169.246074 300.35648 
L 172.972892 301.80935 
z
" style="stroke:#000000;stroke-linecap:round;"/>
   </g>
   <g id="patch_69">
    <path clip-path="url(#pf8cae6554f)" d="M 201.019952 231.210157 
Q 227.34713 197.513771 252.985968 164.698398 
" style="fill:none;stroke:#000000;stroke-linecap:round;"/>
    <path clip-path="url(#pf8cae6554f)" d="M 248.947276 166.619068 
L 252.985968 164.698398 
L 252.099289 169.081753 
L 248.947276 166.619068 
z
" style="stroke:#000000;stroke-linecap:round;"/>
   </g>
   <g id="patch_70">
    <path clip-path="url(#pf8cae6554f)" d="M 523.227363 149.70118 
Q 466.026583 131.088804 409.88897 112.82237 
" style="fill:none;stroke:#000000;stroke-linecap:round;"/>
    <path clip-path="url(#pf8cae6554f)" d="M 413.073836 115.961896 
L 409.88897 112.82237 
L 414.311511 112.158193 
L 413.073836 115.961896 
z
" style="stroke:#000000;stroke-linecap:round;"/>
   </g>
   <g id="patch_71">
    <path clip-path="url(#pf8cae6554f)" d="M 537.253234 145.94572 
Q 545.013511 137.329301 552.02557 129.543647 
" style="fill:none;stroke:#000000;stroke-linecap:round;"/>
    <path clip-path="url(#pf8cae6554f)" d="M 547.862547 131.177426 
L 552.02557 129.543647 
L 550.83478 133.854333 
L 547.862547 131.177426 
z
" style="stroke:#000000;stroke-linecap:round;"/>
   </g>
   <g id="patch_72">
    <path clip-path="url(#pf8cae6554f)" d="M 519.922549 137.462778 
Q 464.474409 124.607552 410.115415 112.004837 
" style="fill:none;stroke:#000000;stroke-linecap:round;"/>
    <path clip-path="url(#pf8cae6554f)" d="M 413.560358 114.856568 
L 410.115415 112.004837 
L 414.463765 110.959921 
L 413.560358 114.856568 
z
" style="stroke:#000000;stroke-linecap:round;"/>
   </g>
   <g id="patch_73">
    <path clip-path="url(#pf8cae6554f)" d="M 535.890988 135.143823 
Q 543.463472 130.847991 550.063505 127.103826 
" style="fill:none;stroke:#000000;stroke-linecap:round;"/>
    <path clip-path="url(#pf8cae6554f)" d="M 545.597502 127.337955 
L 550.063505 127.103826 
L 547.571207 130.817106 
L 545.597502 127.337955 
z
" style="stroke:#000000;stroke-linecap:round;"/>
   </g>
   <g id="patch_74">
    <path clip-path="url(#pf8cae6554f)" d="M 519.848408 137.809194 
Q 477.721507 129.842753 436.693169 122.084056 
" style="fill:none;stroke:#000000;stroke-linecap:round;"/>
    <path clip-path="url(#pf8cae6554f)" d="M 440.251884 124.792477 
L 436.693169 122.084056 
L 440.995135 120.862136 
L 440.251884 124.792477 
z
" style="stroke:#000000;stroke-linecap:round;"/>
   </g>
   <g id="patch_75">
    <path clip-path="url(#pf8cae6554f)" d="M 476.44354 188.354506 
Q 441.524124 152.190709 407.38132 116.831198 
" style="fill:none;stroke:#000000;stroke-linecap:round;"/>
    <path clip-path="url(#pf8cae6554f)" d="M 408.721057 121.097943 
L 407.38132 116.831198 
L 411.598557 118.319456 
L 408.721057 121.097943 
z
" style="stroke:#000000;stroke-linecap:round;"/>
   </g>
   <g id="patch_76">
    <path clip-path="url(#pf8cae6554f)" d="M 488.73562 188.618328 
Q 520.51175 158.431832 551.477295 129.01537 
" style="fill:none;stroke:#000000;stroke-linecap:round;"/>
    <path clip-path="url(#pf8cae6554f)" d="M 547.19978 130.320311 
L 551.477295 129.01537 
L 549.954738 133.220346 
L 547.19978 130.320311 
z
" style="stroke:#000000;stroke-linecap:round;"/>
   </g>
   <g id="patch_77">
    <path clip-path="url(#pf8cae6554f)" d="M 477.281632 187.635958 
Q 454.771231 157.423225 432.928815 128.107039 
" style="fill:none;stroke:#000000;stroke-linecap:round;"/>
    <path clip-path="url(#pf8cae6554f)" d="M 433.714877 132.509551 
L 432.928815 128.107039 
L 436.922461 130.119697 
L 433.714877 132.509551 
z
" style="stroke:#000000;stroke-linecap:round;"/>
   </g>
   <g id="PathCollection_1">
    <defs>
     <path d="M 0 8.660254 
C 2.296726 8.660254 4.499694 7.747755 6.123724 6.123724 
C 7.747755 4.499694 8.660254 2.296726 8.660254 0 
C 8.660254 -2.296726 7.747755 -4.499694 6.123724 -6.123724 
C 4.499694 -7.747755 2.296726 -8.660254 0 -8.660254 
C -2.296726 -8.660254 -4.499694 -7.747755 -6.123724 -6.123724 
C -7.747755 -4.499694 -8.660254 -2.296726 -8.660254 0 
C -8.660254 2.296726 -7.747755 4.499694 -6.123724 6.123724 
C -4.499694 7.747755 -2.296726 8.660254 0 8.660254 
z
" id="mc25d5a1864" style="stroke:#1f78b4;"/>
    </defs>
    <g clip-path="url(#pf8cae6554f)">
     <use style="fill:#1f78b4;stroke:#1f78b4;" x="705.922146" xlink:href="#mc25d5a1864" y="344.224816"/>
     <use style="fill:#1f78b4;stroke:#1f78b4;" x="542.949952" xlink:href="#mc25d5a1864" y="392.413764"/>
     <use style="fill:#1f78b4;stroke:#1f78b4;" x="415.715006" xlink:href="#mc25d5a1864" y="249.823775"/>
     <use style="fill:#1f78b4;stroke:#1f78b4;" x="230.610011" xlink:href="#mc25d5a1864" y="167.68556"/>
     <use style="fill:#1f78b4;stroke:#1f78b4;" x="380.527414" xlink:href="#mc25d5a1864" y="306.539096"/>
     <use style="fill:#1f78b4;stroke:#1f78b4;" x="205.844557" xlink:href="#mc25d5a1864" y="191.759562"/>
     <use style="fill:#1f78b4;stroke:#1f78b4;" x="418.461986" xlink:href="#mc25d5a1864" y="305.335545"/>
     <use style="fill:#1f78b4;stroke:#1f78b4;" x="211.385536" xlink:href="#mc25d5a1864" y="310.669957"/>
     <use style="fill:#1f78b4;stroke:#1f78b4;" x="426.114489" xlink:href="#mc25d5a1864" y="237.312307"/>
     <use style="fill:#1f78b4;stroke:#1f78b4;" x="166.164962" xlink:href="#mc25d5a1864" y="318.317102"/>
     <use style="fill:#1f78b4;stroke:#1f78b4;" x="247.109288" xlink:href="#mc25d5a1864" y="276.143279"/>
     <use style="fill:#1f78b4;stroke:#1f78b4;" x="235.588352" xlink:href="#mc25d5a1864" y="183.234838"/>
     <use style="fill:#1f78b4;stroke:#1f78b4;" x="287.413148" xlink:href="#mc25d5a1864" y="310.631708"/>
     <use style="fill:#1f78b4;stroke:#1f78b4;" x="361.882068" xlink:href="#mc25d5a1864" y="255.672578"/>
     <use style="fill:#1f78b4;stroke:#1f78b4;" x="499.086609" xlink:href="#mc25d5a1864" y="470.330213"/>
     <use style="fill:#1f78b4;stroke:#1f78b4;" x="520.766161" xlink:href="#mc25d5a1864" y="364.882542"/>
     <use style="fill:#1f78b4;stroke:#1f78b4;" x="691.283042" xlink:href="#mc25d5a1864" y="250.007023"/>
     <use style="fill:#1f78b4;stroke:#1f78b4;" x="719.194932" xlink:href="#mc25d5a1864" y="296.007918"/>
     <use style="fill:#1f78b4;stroke:#1f78b4;" x="491.288138" xlink:href="#mc25d5a1864" y="456.81194"/>
     <use style="fill:#1f78b4;stroke:#1f78b4;" x="629.961004" xlink:href="#mc25d5a1864" y="426.463491"/>
     <use style="fill:#1f78b4;stroke:#1f78b4;" x="440.990268" xlink:href="#mc25d5a1864" y="177.011901"/>
     <use style="fill:#1f78b4;stroke:#1f78b4;" x="198.607146" xlink:href="#mc25d5a1864" y="210.528102"/>
     <use style="fill:#1f78b4;stroke:#1f78b4;" x="505.916013" xlink:href="#mc25d5a1864" y="259.467973"/>
     <use style="fill:#1f78b4;stroke:#1f78b4;" x="491.258941" xlink:href="#mc25d5a1864" y="269.754979"/>
     <use style="fill:#1f78b4;stroke:#1f78b4;" x="650.23448" xlink:href="#mc25d5a1864" y="338.897717"/>
     <use style="fill:#1f78b4;stroke:#1f78b4;" x="719.494215" xlink:href="#mc25d5a1864" y="265.021797"/>
     <use style="fill:#1f78b4;stroke:#1f78b4;" x="192.177773" xlink:href="#mc25d5a1864" y="370.375602"/>
     <use style="fill:#1f78b4;stroke:#1f78b4;" x="237.396424" xlink:href="#mc25d5a1864" y="374.857818"/>
     <use style="fill:#1f78b4;stroke:#1f78b4;" x="366.723004" xlink:href="#mc25d5a1864" y="113.731658"/>
     <use style="fill:#1f78b4;stroke:#1f78b4;" x="394.93414" xlink:href="#mc25d5a1864" y="286.225938"/>
     <use style="fill:#1f78b4;stroke:#1f78b4;" x="333.080085" xlink:href="#mc25d5a1864" y="462.094253"/>
     <use style="fill:#1f78b4;stroke:#1f78b4;" x="511.971051" xlink:href="#mc25d5a1864" y="191.450133"/>
     <use style="fill:#1f78b4;stroke:#1f78b4;" x="541.03681" xlink:href="#mc25d5a1864" y="171.716969"/>
     <use style="fill:#1f78b4;stroke:#1f78b4;" x="347.259072" xlink:href="#mc25d5a1864" y="261.036296"/>
     <use style="fill:#1f78b4;stroke:#1f78b4;" x="561.151047" xlink:href="#mc25d5a1864" y="144.659132"/>
     <use style="fill:#1f78b4;stroke:#1f78b4;" x="379.554825" xlink:href="#mc25d5a1864" y="369.155003"/>
     <use style="fill:#1f78b4;stroke:#1f78b4;" x="167.674448" xlink:href="#mc25d5a1864" y="302.307037"/>
     <use style="fill:#1f78b4;stroke:#1f78b4;" x="176.847005" xlink:href="#mc25d5a1864" y="246.654671"/>
     <use style="fill:#1f78b4;stroke:#1f78b4;" x="254.557997" xlink:href="#mc25d5a1864" y="153.465911"/>
     <use style="fill:#1f78b4;stroke:#1f78b4;" x="517.134141" xlink:href="#mc25d5a1864" y="119.655095"/>
     <use style="fill:#1f78b4;stroke:#1f78b4;" x="338.111889" xlink:href="#mc25d5a1864" y="124.292715"/>
     <use style="fill:#1f78b4;stroke:#1f78b4;" x="368.34466" xlink:href="#mc25d5a1864" y="242.731524"/>
     <use style="fill:#1f78b4;stroke:#1f78b4;" x="538.202316" xlink:href="#mc25d5a1864" y="463.457963"/>
     <use style="fill:#1f78b4;stroke:#1f78b4;" x="602.458349" xlink:href="#mc25d5a1864" y="352.034124"/>
     <use style="fill:#1f78b4;stroke:#1f78b4;" x="283.170956" xlink:href="#mc25d5a1864" y="445.59804"/>
     <use style="fill:#1f78b4;stroke:#1f78b4;" x="661.457733" xlink:href="#mc25d5a1864" y="381.057492"/>
     <use style="fill:#1f78b4;stroke:#1f78b4;" x="454.064405" xlink:href="#mc25d5a1864" y="107.607273"/>
     <use style="fill:#1f78b4;stroke:#1f78b4;" x="465.088231" xlink:href="#mc25d5a1864" y="305.924066"/>
     <use style="fill:#1f78b4;stroke:#1f78b4;" x="166.105785" xlink:href="#mc25d5a1864" y="313.918108"/>
     <use style="fill:#1f78b4;stroke:#1f78b4;" x="259.006105" xlink:href="#mc25d5a1864" y="156.993172"/>
     <use style="fill:#1f78b4;stroke:#1f78b4;" x="178.836189" xlink:href="#mc25d5a1864" y="225.990988"/>
     <use style="fill:#1f78b4;stroke:#1f78b4;" x="400.588231" xlink:href="#mc25d5a1864" y="109.796033"/>
     <use style="fill:#1f78b4;stroke:#1f78b4;" x="558.568303" xlink:href="#mc25d5a1864" y="122.279097"/>
     <use style="fill:#1f78b4;stroke:#1f78b4;" x="427.08798" xlink:href="#mc25d5a1864" y="120.267659"/>
     <use style="fill:#1f78b4;stroke:#1f78b4;" x="614.17973" xlink:href="#mc25d5a1864" y="258.535768"/>
     <use style="fill:#1f78b4;stroke:#1f78b4;" x="562.718581" xlink:href="#mc25d5a1864" y="257.660145"/>
     <use style="fill:#1f78b4;stroke:#1f78b4;" x="694.72874" xlink:href="#mc25d5a1864" y="372.51811"/>
     <use style="fill:#1f78b4;stroke:#1f78b4;" x="168.244746" xlink:href="#mc25d5a1864" y="267.83909"/>
     <use style="fill:#1f78b4;stroke:#1f78b4;" x="248.239115" xlink:href="#mc25d5a1864" y="209.534632"/>
     <use style="fill:#1f78b4;stroke:#1f78b4;" x="451.895746" xlink:href="#mc25d5a1864" y="348.167927"/>
     <use style="fill:#1f78b4;stroke:#1f78b4;" x="585.116987" xlink:href="#mc25d5a1864" y="443.46443"/>
     <use style="fill:#1f78b4;stroke:#1f78b4;" x="695.564566" xlink:href="#mc25d5a1864" y="321.848559"/>
     <use style="fill:#1f78b4;stroke:#1f78b4;" x="605.867515" xlink:href="#mc25d5a1864" y="400.151855"/>
     <use style="fill:#1f78b4;stroke:#1f78b4;" x="350.671512" xlink:href="#mc25d5a1864" y="451.149974"/>
     <use style="fill:#1f78b4;stroke:#1f78b4;" x="461.200118" xlink:href="#mc25d5a1864" y="321.260057"/>
     <use style="fill:#1f78b4;stroke:#1f78b4;" x="618.205669" xlink:href="#mc25d5a1864" y="214.883588"/>
     <use style="fill:#1f78b4;stroke:#1f78b4;" x="660.208189" xlink:href="#mc25d5a1864" y="263.514905"/>
     <use style="fill:#1f78b4;stroke:#1f78b4;" x="270.464974" xlink:href="#mc25d5a1864" y="227.314804"/>
     <use style="fill:#1f78b4;stroke:#1f78b4;" x="424.500062" xlink:href="#mc25d5a1864" y="259.886644"/>
     <use style="fill:#1f78b4;stroke:#1f78b4;" x="489.210857" xlink:href="#mc25d5a1864" y="108.30081"/>
     <use style="fill:#1f78b4;stroke:#1f78b4;" x="307.61687" xlink:href="#mc25d5a1864" y="133.281541"/>
     <use style="fill:#1f78b4;stroke:#1f78b4;" x="653.615759" xlink:href="#mc25d5a1864" y="404.470962"/>
     <use style="fill:#1f78b4;stroke:#1f78b4;" x="166.481452" xlink:href="#mc25d5a1864" y="283.769848"/>
     <use style="fill:#1f78b4;stroke:#1f78b4;" x="195.688758" xlink:href="#mc25d5a1864" y="238.033599"/>
     <use style="fill:#1f78b4;stroke:#1f78b4;" x="531.458686" xlink:href="#mc25d5a1864" y="152.379543"/>
     <use style="fill:#1f78b4;stroke:#1f78b4;" x="528.356469" xlink:href="#mc25d5a1864" y="139.418118"/>
     <use style="fill:#1f78b4;stroke:#1f78b4;" x="482.457298" xlink:href="#mc25d5a1864" y="194.58257"/>
     <use style="fill:#1f78b4;stroke:#1f78b4;" x="459.4839" xlink:href="#mc25d5a1864" y="474.152727"/>
     <use style="fill:#1f78b4;stroke:#1f78b4;" x="237.157892" xlink:href="#mc25d5a1864" y="402.589835"/>
    </g>
   </g>
   <g id="text_1">
    <g clip-path="url(#pf8cae6554f)">
     <!-- CCR1 -->
     <g transform="translate(689.556209 347.536066)scale(0.12 -0.12)">
      <defs>
       <path d="M 64.40625 67.28125 
L 64.40625 56.890625 
Q 59.421875 61.53125 53.78125 63.8125 
Q 48.140625 66.109375 41.796875 66.109375 
Q 29.296875 66.109375 22.65625 58.46875 
Q 16.015625 50.828125 16.015625 36.375 
Q 16.015625 21.96875 22.65625 14.328125 
Q 29.296875 6.6875 41.796875 6.6875 
Q 48.140625 6.6875 53.78125 8.984375 
Q 59.421875 11.28125 64.40625 15.921875 
L 64.40625 5.609375 
Q 59.234375 2.09375 53.4375 0.328125 
Q 47.65625 -1.421875 41.21875 -1.421875 
Q 24.65625 -1.421875 15.125 8.703125 
Q 5.609375 18.84375 5.609375 36.375 
Q 5.609375 53.953125 15.125 64.078125 
Q 24.65625 74.21875 41.21875 74.21875 
Q 47.75 74.21875 53.53125 72.484375 
Q 59.328125 70.75 64.40625 67.28125 
z
" id="DejaVuSans-67"/>
       <path d="M 44.390625 34.1875 
Q 47.5625 33.109375 50.5625 29.59375 
Q 53.5625 26.078125 56.59375 19.921875 
L 66.609375 0 
L 56 0 
L 46.6875 18.703125 
Q 43.0625 26.03125 39.671875 28.421875 
Q 36.28125 30.8125 30.421875 30.8125 
L 19.671875 30.8125 
L 19.671875 0 
L 9.8125 0 
L 9.8125 72.90625 
L 32.078125 72.90625 
Q 44.578125 72.90625 50.734375 67.671875 
Q 56.890625 62.453125 56.890625 51.90625 
Q 56.890625 45.015625 53.6875 40.46875 
Q 50.484375 35.9375 44.390625 34.1875 
z
M 19.671875 64.796875 
L 19.671875 38.921875 
L 32.078125 38.921875 
Q 39.203125 38.921875 42.84375 42.21875 
Q 46.484375 45.515625 46.484375 51.90625 
Q 46.484375 58.296875 42.84375 61.546875 
Q 39.203125 64.796875 32.078125 64.796875 
z
" id="DejaVuSans-82"/>
       <path d="M 12.40625 8.296875 
L 28.515625 8.296875 
L 28.515625 63.921875 
L 10.984375 60.40625 
L 10.984375 69.390625 
L 28.421875 72.90625 
L 38.28125 72.90625 
L 38.28125 8.296875 
L 54.390625 8.296875 
L 54.390625 0 
L 12.40625 0 
z
" id="DejaVuSans-49"/>
      </defs>
      <use xlink:href="#DejaVuSans-67"/>
      <use x="69.824219" xlink:href="#DejaVuSans-67"/>
      <use x="139.648438" xlink:href="#DejaVuSans-82"/>
      <use x="209.130859" xlink:href="#DejaVuSans-49"/>
     </g>
    </g>
   </g>
   <g id="text_2">
    <g clip-path="url(#pf8cae6554f)">
     <!-- CCL3 -->
     <g transform="translate(527.409952 395.725014)scale(0.12 -0.12)">
      <defs>
       <path d="M 9.8125 72.90625 
L 19.671875 72.90625 
L 19.671875 8.296875 
L 55.171875 8.296875 
L 55.171875 0 
L 9.8125 0 
z
" id="DejaVuSans-76"/>
       <path d="M 40.578125 39.3125 
Q 47.65625 37.796875 51.625 33 
Q 55.609375 28.21875 55.609375 21.1875 
Q 55.609375 10.40625 48.1875 4.484375 
Q 40.765625 -1.421875 27.09375 -1.421875 
Q 22.515625 -1.421875 17.65625 -0.515625 
Q 12.796875 0.390625 7.625 2.203125 
L 7.625 11.71875 
Q 11.71875 9.328125 16.59375 8.109375 
Q 21.484375 6.890625 26.8125 6.890625 
Q 36.078125 6.890625 40.9375 10.546875 
Q 45.796875 14.203125 45.796875 21.1875 
Q 45.796875 27.640625 41.28125 31.265625 
Q 36.765625 34.90625 28.71875 34.90625 
L 20.21875 34.90625 
L 20.21875 43.015625 
L 29.109375 43.015625 
Q 36.375 43.015625 40.234375 45.921875 
Q 44.09375 48.828125 44.09375 54.296875 
Q 44.09375 59.90625 40.109375 62.90625 
Q 36.140625 65.921875 28.71875 65.921875 
Q 24.65625 65.921875 20.015625 65.03125 
Q 15.375 64.15625 9.8125 62.3125 
L 9.8125 71.09375 
Q 15.4375 72.65625 20.34375 73.4375 
Q 25.25 74.21875 29.59375 74.21875 
Q 40.828125 74.21875 47.359375 69.109375 
Q 53.90625 64.015625 53.90625 55.328125 
Q 53.90625 49.265625 50.4375 45.09375 
Q 46.96875 40.921875 40.578125 39.3125 
z
" id="DejaVuSans-51"/>
      </defs>
      <use xlink:href="#DejaVuSans-67"/>
      <use x="69.824219" xlink:href="#DejaVuSans-67"/>
      <use x="139.648438" xlink:href="#DejaVuSans-76"/>
      <use x="195.361328" xlink:href="#DejaVuSans-51"/>
     </g>
    </g>
   </g>
   <g id="text_3">
    <g clip-path="url(#pf8cae6554f)">
     <!-- CCL7 -->
     <g transform="translate(400.175006 253.135025)scale(0.12 -0.12)">
      <defs>
       <path d="M 8.203125 72.90625 
L 55.078125 72.90625 
L 55.078125 68.703125 
L 28.609375 0 
L 18.3125 0 
L 43.21875 64.59375 
L 8.203125 64.59375 
z
" id="DejaVuSans-55"/>
      </defs>
      <use xlink:href="#DejaVuSans-67"/>
      <use x="69.824219" xlink:href="#DejaVuSans-67"/>
      <use x="139.648438" xlink:href="#DejaVuSans-76"/>
      <use x="195.361328" xlink:href="#DejaVuSans-55"/>
     </g>
    </g>
   </g>
   <g id="text_4">
    <g clip-path="url(#pf8cae6554f)">
     <!-- CCR2 -->
     <g transform="translate(214.244073 170.99681)scale(0.12 -0.12)">
      <defs>
       <path d="M 19.1875 8.296875 
L 53.609375 8.296875 
L 53.609375 0 
L 7.328125 0 
L 7.328125 8.296875 
Q 12.9375 14.109375 22.625 23.890625 
Q 32.328125 33.6875 34.8125 36.53125 
Q 39.546875 41.84375 41.421875 45.53125 
Q 43.3125 49.21875 43.3125 52.78125 
Q 43.3125 58.59375 39.234375 62.25 
Q 35.15625 65.921875 28.609375 65.921875 
Q 23.96875 65.921875 18.8125 64.3125 
Q 13.671875 62.703125 7.8125 59.421875 
L 7.8125 69.390625 
Q 13.765625 71.78125 18.9375 73 
Q 24.125 74.21875 28.421875 74.21875 
Q 39.75 74.21875 46.484375 68.546875 
Q 53.21875 62.890625 53.21875 53.421875 
Q 53.21875 48.921875 51.53125 44.890625 
Q 49.859375 40.875 45.40625 35.40625 
Q 44.1875 33.984375 37.640625 27.21875 
Q 31.109375 20.453125 19.1875 8.296875 
z
" id="DejaVuSans-50"/>
      </defs>
      <use xlink:href="#DejaVuSans-67"/>
      <use x="69.824219" xlink:href="#DejaVuSans-67"/>
      <use x="139.648438" xlink:href="#DejaVuSans-82"/>
      <use x="209.130859" xlink:href="#DejaVuSans-50"/>
     </g>
    </g>
   </g>
   <g id="text_5">
    <g clip-path="url(#pf8cae6554f)">
     <!-- CCL2 -->
     <g transform="translate(364.987414 309.850346)scale(0.12 -0.12)">
      <use xlink:href="#DejaVuSans-67"/>
      <use x="69.824219" xlink:href="#DejaVuSans-67"/>
      <use x="139.648438" xlink:href="#DejaVuSans-76"/>
      <use x="195.361328" xlink:href="#DejaVuSans-50"/>
     </g>
    </g>
   </g>
   <g id="text_6">
    <g clip-path="url(#pf8cae6554f)">
     <!-- CCR3 -->
     <g transform="translate(189.478619 195.070812)scale(0.12 -0.12)">
      <use xlink:href="#DejaVuSans-67"/>
      <use x="69.824219" xlink:href="#DejaVuSans-67"/>
      <use x="139.648438" xlink:href="#DejaVuSans-82"/>
      <use x="209.130859" xlink:href="#DejaVuSans-51"/>
     </g>
    </g>
   </g>
   <g id="text_7">
    <g clip-path="url(#pf8cae6554f)">
     <!-- CCL5 -->
     <g transform="translate(402.921986 308.646795)scale(0.12 -0.12)">
      <defs>
       <path d="M 10.796875 72.90625 
L 49.515625 72.90625 
L 49.515625 64.59375 
L 19.828125 64.59375 
L 19.828125 46.734375 
Q 21.96875 47.46875 24.109375 47.828125 
Q 26.265625 48.1875 28.421875 48.1875 
Q 40.625 48.1875 47.75 41.5 
Q 54.890625 34.8125 54.890625 23.390625 
Q 54.890625 11.625 47.5625 5.09375 
Q 40.234375 -1.421875 26.90625 -1.421875 
Q 22.3125 -1.421875 17.546875 -0.640625 
Q 12.796875 0.140625 7.71875 1.703125 
L 7.71875 11.625 
Q 12.109375 9.234375 16.796875 8.0625 
Q 21.484375 6.890625 26.703125 6.890625 
Q 35.15625 6.890625 40.078125 11.328125 
Q 45.015625 15.765625 45.015625 23.390625 
Q 45.015625 31 40.078125 35.4375 
Q 35.15625 39.890625 26.703125 39.890625 
Q 22.75 39.890625 18.8125 39.015625 
Q 14.890625 38.140625 10.796875 36.28125 
z
" id="DejaVuSans-53"/>
      </defs>
      <use xlink:href="#DejaVuSans-67"/>
      <use x="69.824219" xlink:href="#DejaVuSans-67"/>
      <use x="139.648438" xlink:href="#DejaVuSans-76"/>
      <use x="195.361328" xlink:href="#DejaVuSans-53"/>
     </g>
    </g>
   </g>
   <g id="text_8">
    <g clip-path="url(#pf8cae6554f)">
     <!-- CCL11 -->
     <g transform="translate(192.028036 313.981207)scale(0.12 -0.12)">
      <use xlink:href="#DejaVuSans-67"/>
      <use x="69.824219" xlink:href="#DejaVuSans-67"/>
      <use x="139.648438" xlink:href="#DejaVuSans-76"/>
      <use x="195.361328" xlink:href="#DejaVuSans-49"/>
      <use x="258.984375" xlink:href="#DejaVuSans-49"/>
     </g>
    </g>
   </g>
   <g id="text_9">
    <g clip-path="url(#pf8cae6554f)">
     <!-- CCL13 -->
     <g transform="translate(406.756989 240.623557)scale(0.12 -0.12)">
      <use xlink:href="#DejaVuSans-67"/>
      <use x="69.824219" xlink:href="#DejaVuSans-67"/>
      <use x="139.648438" xlink:href="#DejaVuSans-76"/>
      <use x="195.361328" xlink:href="#DejaVuSans-49"/>
      <use x="258.984375" xlink:href="#DejaVuSans-51"/>
     </g>
    </g>
   </g>
   <g id="text_10">
    <g clip-path="url(#pf8cae6554f)">
     <!-- CCL26 -->
     <g transform="translate(146.807462 321.628352)scale(0.12 -0.12)">
      <defs>
       <path d="M 33.015625 40.375 
Q 26.375 40.375 22.484375 35.828125 
Q 18.609375 31.296875 18.609375 23.390625 
Q 18.609375 15.53125 22.484375 10.953125 
Q 26.375 6.390625 33.015625 6.390625 
Q 39.65625 6.390625 43.53125 10.953125 
Q 47.40625 15.53125 47.40625 23.390625 
Q 47.40625 31.296875 43.53125 35.828125 
Q 39.65625 40.375 33.015625 40.375 
z
M 52.59375 71.296875 
L 52.59375 62.3125 
Q 48.875 64.0625 45.09375 64.984375 
Q 41.3125 65.921875 37.59375 65.921875 
Q 27.828125 65.921875 22.671875 59.328125 
Q 17.53125 52.734375 16.796875 39.40625 
Q 19.671875 43.65625 24.015625 45.921875 
Q 28.375 48.1875 33.59375 48.1875 
Q 44.578125 48.1875 50.953125 41.515625 
Q 57.328125 34.859375 57.328125 23.390625 
Q 57.328125 12.15625 50.6875 5.359375 
Q 44.046875 -1.421875 33.015625 -1.421875 
Q 20.359375 -1.421875 13.671875 8.265625 
Q 6.984375 17.96875 6.984375 36.375 
Q 6.984375 53.65625 15.1875 63.9375 
Q 23.390625 74.21875 37.203125 74.21875 
Q 40.921875 74.21875 44.703125 73.484375 
Q 48.484375 72.75 52.59375 71.296875 
z
" id="DejaVuSans-54"/>
      </defs>
      <use xlink:href="#DejaVuSans-67"/>
      <use x="69.824219" xlink:href="#DejaVuSans-67"/>
      <use x="139.648438" xlink:href="#DejaVuSans-76"/>
      <use x="195.361328" xlink:href="#DejaVuSans-50"/>
      <use x="258.984375" xlink:href="#DejaVuSans-54"/>
     </g>
    </g>
   </g>
   <g id="text_11">
    <g clip-path="url(#pf8cae6554f)">
     <!-- CCL28 -->
     <g transform="translate(227.751788 279.454529)scale(0.12 -0.12)">
      <defs>
       <path d="M 31.78125 34.625 
Q 24.75 34.625 20.71875 30.859375 
Q 16.703125 27.09375 16.703125 20.515625 
Q 16.703125 13.921875 20.71875 10.15625 
Q 24.75 6.390625 31.78125 6.390625 
Q 38.8125 6.390625 42.859375 10.171875 
Q 46.921875 13.96875 46.921875 20.515625 
Q 46.921875 27.09375 42.890625 30.859375 
Q 38.875 34.625 31.78125 34.625 
z
M 21.921875 38.8125 
Q 15.578125 40.375 12.03125 44.71875 
Q 8.5 49.078125 8.5 55.328125 
Q 8.5 64.0625 14.71875 69.140625 
Q 20.953125 74.21875 31.78125 74.21875 
Q 42.671875 74.21875 48.875 69.140625 
Q 55.078125 64.0625 55.078125 55.328125 
Q 55.078125 49.078125 51.53125 44.71875 
Q 48 40.375 41.703125 38.8125 
Q 48.828125 37.15625 52.796875 32.3125 
Q 56.78125 27.484375 56.78125 20.515625 
Q 56.78125 9.90625 50.3125 4.234375 
Q 43.84375 -1.421875 31.78125 -1.421875 
Q 19.734375 -1.421875 13.25 4.234375 
Q 6.78125 9.90625 6.78125 20.515625 
Q 6.78125 27.484375 10.78125 32.3125 
Q 14.796875 37.15625 21.921875 38.8125 
z
M 18.3125 54.390625 
Q 18.3125 48.734375 21.84375 45.5625 
Q 25.390625 42.390625 31.78125 42.390625 
Q 38.140625 42.390625 41.71875 45.5625 
Q 45.3125 48.734375 45.3125 54.390625 
Q 45.3125 60.0625 41.71875 63.234375 
Q 38.140625 66.40625 31.78125 66.40625 
Q 25.390625 66.40625 21.84375 63.234375 
Q 18.3125 60.0625 18.3125 54.390625 
z
" id="DejaVuSans-56"/>
      </defs>
      <use xlink:href="#DejaVuSans-67"/>
      <use x="69.824219" xlink:href="#DejaVuSans-67"/>
      <use x="139.648438" xlink:href="#DejaVuSans-76"/>
      <use x="195.361328" xlink:href="#DejaVuSans-50"/>
      <use x="258.984375" xlink:href="#DejaVuSans-56"/>
     </g>
    </g>
   </g>
   <g id="text_12">
    <g clip-path="url(#pf8cae6554f)">
     <!-- CCR4 -->
     <g transform="translate(219.222414 186.546088)scale(0.12 -0.12)">
      <defs>
       <path d="M 37.796875 64.3125 
L 12.890625 25.390625 
L 37.796875 25.390625 
z
M 35.203125 72.90625 
L 47.609375 72.90625 
L 47.609375 25.390625 
L 58.015625 25.390625 
L 58.015625 17.1875 
L 47.609375 17.1875 
L 47.609375 0 
L 37.796875 0 
L 37.796875 17.1875 
L 4.890625 17.1875 
L 4.890625 26.703125 
z
" id="DejaVuSans-52"/>
      </defs>
      <use xlink:href="#DejaVuSans-67"/>
      <use x="69.824219" xlink:href="#DejaVuSans-67"/>
      <use x="139.648438" xlink:href="#DejaVuSans-82"/>
      <use x="209.130859" xlink:href="#DejaVuSans-52"/>
     </g>
    </g>
   </g>
   <g id="text_13">
    <g clip-path="url(#pf8cae6554f)">
     <!-- CCL17 -->
     <g transform="translate(268.055648 313.942958)scale(0.12 -0.12)">
      <use xlink:href="#DejaVuSans-67"/>
      <use x="69.824219" xlink:href="#DejaVuSans-67"/>
      <use x="139.648438" xlink:href="#DejaVuSans-76"/>
      <use x="195.361328" xlink:href="#DejaVuSans-49"/>
      <use x="258.984375" xlink:href="#DejaVuSans-55"/>
     </g>
    </g>
   </g>
   <g id="text_14">
    <g clip-path="url(#pf8cae6554f)">
     <!-- CCL22 -->
     <g transform="translate(342.524568 258.983828)scale(0.12 -0.12)">
      <use xlink:href="#DejaVuSans-67"/>
      <use x="69.824219" xlink:href="#DejaVuSans-67"/>
      <use x="139.648438" xlink:href="#DejaVuSans-76"/>
      <use x="195.361328" xlink:href="#DejaVuSans-50"/>
      <use x="258.984375" xlink:href="#DejaVuSans-50"/>
     </g>
    </g>
   </g>
   <g id="text_15">
    <g clip-path="url(#pf8cae6554f)">
     <!-- CCR5 -->
     <g transform="translate(482.720671 473.641463)scale(0.12 -0.12)">
      <use xlink:href="#DejaVuSans-67"/>
      <use x="69.824219" xlink:href="#DejaVuSans-67"/>
      <use x="139.648438" xlink:href="#DejaVuSans-82"/>
      <use x="209.130859" xlink:href="#DejaVuSans-53"/>
     </g>
    </g>
   </g>
   <g id="text_16">
    <g clip-path="url(#pf8cae6554f)">
     <!-- CCL4 -->
     <g transform="translate(505.226161 368.193792)scale(0.12 -0.12)">
      <use xlink:href="#DejaVuSans-67"/>
      <use x="69.824219" xlink:href="#DejaVuSans-67"/>
      <use x="139.648438" xlink:href="#DejaVuSans-76"/>
      <use x="195.361328" xlink:href="#DejaVuSans-52"/>
     </g>
    </g>
   </g>
   <g id="text_17">
    <g clip-path="url(#pf8cae6554f)">
     <!-- CCL20 -->
     <g transform="translate(671.925542 253.318273)scale(0.12 -0.12)">
      <defs>
       <path d="M 31.78125 66.40625 
Q 24.171875 66.40625 20.328125 58.90625 
Q 16.5 51.421875 16.5 36.375 
Q 16.5 21.390625 20.328125 13.890625 
Q 24.171875 6.390625 31.78125 6.390625 
Q 39.453125 6.390625 43.28125 13.890625 
Q 47.125 21.390625 47.125 36.375 
Q 47.125 51.421875 43.28125 58.90625 
Q 39.453125 66.40625 31.78125 66.40625 
z
M 31.78125 74.21875 
Q 44.046875 74.21875 50.515625 64.515625 
Q 56.984375 54.828125 56.984375 36.375 
Q 56.984375 17.96875 50.515625 8.265625 
Q 44.046875 -1.421875 31.78125 -1.421875 
Q 19.53125 -1.421875 13.0625 8.265625 
Q 6.59375 17.96875 6.59375 36.375 
Q 6.59375 54.828125 13.0625 64.515625 
Q 19.53125 74.21875 31.78125 74.21875 
z
" id="DejaVuSans-48"/>
      </defs>
      <use xlink:href="#DejaVuSans-67"/>
      <use x="69.824219" xlink:href="#DejaVuSans-67"/>
      <use x="139.648438" xlink:href="#DejaVuSans-76"/>
      <use x="195.361328" xlink:href="#DejaVuSans-50"/>
      <use x="258.984375" xlink:href="#DejaVuSans-48"/>
     </g>
    </g>
   </g>
   <g id="text_18">
    <g clip-path="url(#pf8cae6554f)">
     <!-- CCR6 -->
     <g transform="translate(702.828994 299.319168)scale(0.12 -0.12)">
      <use xlink:href="#DejaVuSans-67"/>
      <use x="69.824219" xlink:href="#DejaVuSans-67"/>
      <use x="139.648438" xlink:href="#DejaVuSans-82"/>
      <use x="209.130859" xlink:href="#DejaVuSans-54"/>
     </g>
    </g>
   </g>
   <g id="text_19">
    <g clip-path="url(#pf8cae6554f)">
     <!-- CCL1 -->
     <g transform="translate(475.748138 460.12319)scale(0.12 -0.12)">
      <use xlink:href="#DejaVuSans-67"/>
      <use x="69.824219" xlink:href="#DejaVuSans-67"/>
      <use x="139.648438" xlink:href="#DejaVuSans-76"/>
      <use x="195.361328" xlink:href="#DejaVuSans-49"/>
     </g>
    </g>
   </g>
   <g id="text_20">
    <g clip-path="url(#pf8cae6554f)">
     <!-- CCR8 -->
     <g transform="translate(613.595067 429.774741)scale(0.12 -0.12)">
      <use xlink:href="#DejaVuSans-67"/>
      <use x="69.824219" xlink:href="#DejaVuSans-67"/>
      <use x="139.648438" xlink:href="#DejaVuSans-82"/>
      <use x="209.130859" xlink:href="#DejaVuSans-56"/>
     </g>
    </g>
   </g>
   <g id="text_21">
    <g clip-path="url(#pf8cae6554f)">
     <!-- CCL25 -->
     <g transform="translate(421.632768 180.323151)scale(0.12 -0.12)">
      <use xlink:href="#DejaVuSans-67"/>
      <use x="69.824219" xlink:href="#DejaVuSans-67"/>
      <use x="139.648438" xlink:href="#DejaVuSans-76"/>
      <use x="195.361328" xlink:href="#DejaVuSans-50"/>
      <use x="258.984375" xlink:href="#DejaVuSans-53"/>
     </g>
    </g>
   </g>
   <g id="text_22">
    <g clip-path="url(#pf8cae6554f)">
     <!-- CCR10 -->
     <g transform="translate(178.423709 213.839352)scale(0.12 -0.12)">
      <use xlink:href="#DejaVuSans-67"/>
      <use x="69.824219" xlink:href="#DejaVuSans-67"/>
      <use x="139.648438" xlink:href="#DejaVuSans-82"/>
      <use x="209.130859" xlink:href="#DejaVuSans-49"/>
      <use x="272.753906" xlink:href="#DejaVuSans-48"/>
     </g>
    </g>
   </g>
   <g id="text_23">
    <g clip-path="url(#pf8cae6554f)">
     <!-- CCL19 -->
     <g transform="translate(486.558513 262.779223)scale(0.12 -0.12)">
      <defs>
       <path d="M 10.984375 1.515625 
L 10.984375 10.5 
Q 14.703125 8.734375 18.5 7.8125 
Q 22.3125 6.890625 25.984375 6.890625 
Q 35.75 6.890625 40.890625 13.453125 
Q 46.046875 20.015625 46.78125 33.40625 
Q 43.953125 29.203125 39.59375 26.953125 
Q 35.25 24.703125 29.984375 24.703125 
Q 19.046875 24.703125 12.671875 31.3125 
Q 6.296875 37.9375 6.296875 49.421875 
Q 6.296875 60.640625 12.9375 67.421875 
Q 19.578125 74.21875 30.609375 74.21875 
Q 43.265625 74.21875 49.921875 64.515625 
Q 56.59375 54.828125 56.59375 36.375 
Q 56.59375 19.140625 48.40625 8.859375 
Q 40.234375 -1.421875 26.421875 -1.421875 
Q 22.703125 -1.421875 18.890625 -0.6875 
Q 15.09375 0.046875 10.984375 1.515625 
z
M 30.609375 32.421875 
Q 37.25 32.421875 41.125 36.953125 
Q 45.015625 41.5 45.015625 49.421875 
Q 45.015625 57.28125 41.125 61.84375 
Q 37.25 66.40625 30.609375 66.40625 
Q 23.96875 66.40625 20.09375 61.84375 
Q 16.21875 57.28125 16.21875 49.421875 
Q 16.21875 41.5 20.09375 36.953125 
Q 23.96875 32.421875 30.609375 32.421875 
z
" id="DejaVuSans-57"/>
      </defs>
      <use xlink:href="#DejaVuSans-67"/>
      <use x="69.824219" xlink:href="#DejaVuSans-67"/>
      <use x="139.648438" xlink:href="#DejaVuSans-76"/>
      <use x="195.361328" xlink:href="#DejaVuSans-49"/>
      <use x="258.984375" xlink:href="#DejaVuSans-57"/>
     </g>
    </g>
   </g>
   <g id="text_24">
    <g clip-path="url(#pf8cae6554f)">
     <!-- CCL21 -->
     <g transform="translate(471.901441 273.066229)scale(0.12 -0.12)">
      <use xlink:href="#DejaVuSans-67"/>
      <use x="69.824219" xlink:href="#DejaVuSans-67"/>
      <use x="139.648438" xlink:href="#DejaVuSans-76"/>
      <use x="195.361328" xlink:href="#DejaVuSans-50"/>
      <use x="258.984375" xlink:href="#DejaVuSans-49"/>
     </g>
    </g>
   </g>
   <g id="text_25">
    <g clip-path="url(#pf8cae6554f)">
     <!-- CX3CL1 -->
     <g transform="translate(626.76698 342.208967)scale(0.12 -0.12)">
      <defs>
       <path d="M 6.296875 72.90625 
L 16.890625 72.90625 
L 35.015625 45.796875 
L 53.21875 72.90625 
L 63.8125 72.90625 
L 40.375 37.890625 
L 65.375 0 
L 54.78125 0 
L 34.28125 31 
L 13.625 0 
L 2.984375 0 
L 29 38.921875 
z
" id="DejaVuSans-88"/>
      </defs>
      <use xlink:href="#DejaVuSans-67"/>
      <use x="69.824219" xlink:href="#DejaVuSans-88"/>
      <use x="138.330078" xlink:href="#DejaVuSans-51"/>
      <use x="201.953125" xlink:href="#DejaVuSans-67"/>
      <use x="271.777344" xlink:href="#DejaVuSans-76"/>
      <use x="327.490234" xlink:href="#DejaVuSans-49"/>
     </g>
    </g>
   </g>
   <g id="text_26">
    <g clip-path="url(#pf8cae6554f)">
     <!-- CX3CR1 -->
     <g transform="translate(695.200777 268.333047)scale(0.12 -0.12)">
      <use xlink:href="#DejaVuSans-67"/>
      <use x="69.824219" xlink:href="#DejaVuSans-88"/>
      <use x="138.330078" xlink:href="#DejaVuSans-51"/>
      <use x="201.953125" xlink:href="#DejaVuSans-67"/>
      <use x="271.777344" xlink:href="#DejaVuSans-82"/>
      <use x="341.259766" xlink:href="#DejaVuSans-49"/>
     </g>
    </g>
   </g>
   <g id="text_27">
    <g clip-path="url(#pf8cae6554f)">
     <!-- CXCR2 -->
     <g transform="translate(172.136835 373.686852)scale(0.12 -0.12)">
      <use xlink:href="#DejaVuSans-67"/>
      <use x="69.824219" xlink:href="#DejaVuSans-88"/>
      <use x="131.080078" xlink:href="#DejaVuSans-67"/>
      <use x="200.904297" xlink:href="#DejaVuSans-82"/>
      <use x="270.386719" xlink:href="#DejaVuSans-50"/>
     </g>
    </g>
   </g>
   <g id="text_28">
    <g clip-path="url(#pf8cae6554f)">
     <!-- PPBP -->
     <g transform="translate(222.426424 378.169068)scale(0.12 -0.12)">
      <defs>
       <path d="M 19.671875 64.796875 
L 19.671875 37.40625 
L 32.078125 37.40625 
Q 38.96875 37.40625 42.71875 40.96875 
Q 46.484375 44.53125 46.484375 51.125 
Q 46.484375 57.671875 42.71875 61.234375 
Q 38.96875 64.796875 32.078125 64.796875 
z
M 9.8125 72.90625 
L 32.078125 72.90625 
Q 44.34375 72.90625 50.609375 67.359375 
Q 56.890625 61.8125 56.890625 51.125 
Q 56.890625 40.328125 50.609375 34.8125 
Q 44.34375 29.296875 32.078125 29.296875 
L 19.671875 29.296875 
L 19.671875 0 
L 9.8125 0 
z
" id="DejaVuSans-80"/>
       <path d="M 19.671875 34.8125 
L 19.671875 8.109375 
L 35.5 8.109375 
Q 43.453125 8.109375 47.28125 11.40625 
Q 51.125 14.703125 51.125 21.484375 
Q 51.125 28.328125 47.28125 31.5625 
Q 43.453125 34.8125 35.5 34.8125 
z
M 19.671875 64.796875 
L 19.671875 42.828125 
L 34.28125 42.828125 
Q 41.5 42.828125 45.03125 45.53125 
Q 48.578125 48.25 48.578125 53.8125 
Q 48.578125 59.328125 45.03125 62.0625 
Q 41.5 64.796875 34.28125 64.796875 
z
M 9.8125 72.90625 
L 35.015625 72.90625 
Q 46.296875 72.90625 52.390625 68.21875 
Q 58.5 63.53125 58.5 54.890625 
Q 58.5 48.1875 55.375 44.234375 
Q 52.25 40.28125 46.1875 39.3125 
Q 53.46875 37.75 57.5 32.78125 
Q 61.53125 27.828125 61.53125 20.40625 
Q 61.53125 10.640625 54.890625 5.3125 
Q 48.25 0 35.984375 0 
L 9.8125 0 
z
" id="DejaVuSans-66"/>
      </defs>
      <use xlink:href="#DejaVuSans-80"/>
      <use x="60.302734" xlink:href="#DejaVuSans-80"/>
      <use x="120.605469" xlink:href="#DejaVuSans-66"/>
      <use x="189.208984" xlink:href="#DejaVuSans-80"/>
     </g>
    </g>
   </g>
   <g id="text_29">
    <g clip-path="url(#pf8cae6554f)">
     <!-- CXCR3 -->
     <g transform="translate(346.682067 117.042908)scale(0.12 -0.12)">
      <use xlink:href="#DejaVuSans-67"/>
      <use x="69.824219" xlink:href="#DejaVuSans-88"/>
      <use x="131.080078" xlink:href="#DejaVuSans-67"/>
      <use x="200.904297" xlink:href="#DejaVuSans-82"/>
      <use x="270.386719" xlink:href="#DejaVuSans-51"/>
     </g>
    </g>
   </g>
   <g id="text_30">
    <g clip-path="url(#pf8cae6554f)">
     <!-- CXCL13 -->
     <g transform="translate(371.90164 289.537188)scale(0.12 -0.12)">
      <use xlink:href="#DejaVuSans-67"/>
      <use x="69.824219" xlink:href="#DejaVuSans-88"/>
      <use x="131.080078" xlink:href="#DejaVuSans-67"/>
      <use x="200.904297" xlink:href="#DejaVuSans-76"/>
      <use x="256.617188" xlink:href="#DejaVuSans-49"/>
      <use x="320.240234" xlink:href="#DejaVuSans-51"/>
     </g>
    </g>
   </g>
   <g id="text_31">
    <g clip-path="url(#pf8cae6554f)">
     <!-- CXCR5 -->
     <g transform="translate(313.039147 465.405503)scale(0.12 -0.12)">
      <use xlink:href="#DejaVuSans-67"/>
      <use x="69.824219" xlink:href="#DejaVuSans-88"/>
      <use x="131.080078" xlink:href="#DejaVuSans-67"/>
      <use x="200.904297" xlink:href="#DejaVuSans-82"/>
      <use x="270.386719" xlink:href="#DejaVuSans-53"/>
     </g>
    </g>
   </g>
   <g id="text_32">
    <g clip-path="url(#pf8cae6554f)">
     <!-- PF4 -->
     <g transform="translate(501.084801 194.761383)scale(0.12 -0.12)">
      <defs>
       <path d="M 9.8125 72.90625 
L 51.703125 72.90625 
L 51.703125 64.59375 
L 19.671875 64.59375 
L 19.671875 43.109375 
L 48.578125 43.109375 
L 48.578125 34.8125 
L 19.671875 34.8125 
L 19.671875 0 
L 9.8125 0 
z
" id="DejaVuSans-70"/>
      </defs>
      <use xlink:href="#DejaVuSans-80"/>
      <use x="60.302734" xlink:href="#DejaVuSans-70"/>
      <use x="117.822266" xlink:href="#DejaVuSans-52"/>
     </g>
    </g>
   </g>
   <g id="text_33">
    <g clip-path="url(#pf8cae6554f)">
     <!-- CXCL9 -->
     <g transform="translate(521.82181 175.028219)scale(0.12 -0.12)">
      <use xlink:href="#DejaVuSans-67"/>
      <use x="69.824219" xlink:href="#DejaVuSans-88"/>
      <use x="131.080078" xlink:href="#DejaVuSans-67"/>
      <use x="200.904297" xlink:href="#DejaVuSans-76"/>
      <use x="256.617188" xlink:href="#DejaVuSans-57"/>
     </g>
    </g>
   </g>
   <g id="text_34">
    <g clip-path="url(#pf8cae6554f)">
     <!-- CXCL10 -->
     <g transform="translate(324.226572 264.347546)scale(0.12 -0.12)">
      <use xlink:href="#DejaVuSans-67"/>
      <use x="69.824219" xlink:href="#DejaVuSans-88"/>
      <use x="131.080078" xlink:href="#DejaVuSans-67"/>
      <use x="200.904297" xlink:href="#DejaVuSans-76"/>
      <use x="256.617188" xlink:href="#DejaVuSans-49"/>
      <use x="320.240234" xlink:href="#DejaVuSans-48"/>
     </g>
    </g>
   </g>
   <g id="text_35">
    <g clip-path="url(#pf8cae6554f)">
     <!-- CXCL11 -->
     <g transform="translate(538.118547 147.970382)scale(0.12 -0.12)">
      <use xlink:href="#DejaVuSans-67"/>
      <use x="69.824219" xlink:href="#DejaVuSans-88"/>
      <use x="131.080078" xlink:href="#DejaVuSans-67"/>
      <use x="200.904297" xlink:href="#DejaVuSans-76"/>
      <use x="256.617188" xlink:href="#DejaVuSans-49"/>
      <use x="320.240234" xlink:href="#DejaVuSans-49"/>
     </g>
    </g>
   </g>
   <g id="text_36">
    <g clip-path="url(#pf8cae6554f)">
     <!-- CXCL12 -->
     <g transform="translate(356.522325 372.466253)scale(0.12 -0.12)">
      <use xlink:href="#DejaVuSans-67"/>
      <use x="69.824219" xlink:href="#DejaVuSans-88"/>
      <use x="131.080078" xlink:href="#DejaVuSans-67"/>
      <use x="200.904297" xlink:href="#DejaVuSans-76"/>
      <use x="256.617188" xlink:href="#DejaVuSans-49"/>
      <use x="320.240234" xlink:href="#DejaVuSans-50"/>
     </g>
    </g>
   </g>
   <g id="text_37">
    <g clip-path="url(#pf8cae6554f)">
     <!-- CXCR4 -->
     <g transform="translate(147.633511 305.618287)scale(0.12 -0.12)">
      <use xlink:href="#DejaVuSans-67"/>
      <use x="69.824219" xlink:href="#DejaVuSans-88"/>
      <use x="131.080078" xlink:href="#DejaVuSans-67"/>
      <use x="200.904297" xlink:href="#DejaVuSans-82"/>
      <use x="270.386719" xlink:href="#DejaVuSans-52"/>
     </g>
    </g>
   </g>
   <g id="text_38">
    <g clip-path="url(#pf8cae6554f)">
     <!-- XCR1 -->
     <g transform="translate(160.995755 249.965921)scale(0.12 -0.12)">
      <use xlink:href="#DejaVuSans-88"/>
      <use x="61.255859" xlink:href="#DejaVuSans-67"/>
      <use x="131.080078" xlink:href="#DejaVuSans-82"/>
      <use x="200.5625" xlink:href="#DejaVuSans-49"/>
     </g>
    </g>
   </g>
   <g id="text_39">
    <g clip-path="url(#pf8cae6554f)">
     <!-- XCL1 -->
     <g transform="translate(239.532685 156.777161)scale(0.12 -0.12)">
      <use xlink:href="#DejaVuSans-88"/>
      <use x="61.255859" xlink:href="#DejaVuSans-67"/>
      <use x="131.080078" xlink:href="#DejaVuSans-76"/>
      <use x="186.792969" xlink:href="#DejaVuSans-49"/>
     </g>
    </g>
   </g>
   <g id="text_40">
    <g clip-path="url(#pf8cae6554f)">
     <!-- IL10RB -->
     <g transform="translate(496.100391 122.966345)scale(0.12 -0.12)">
      <defs>
       <path d="M 9.8125 72.90625 
L 19.671875 72.90625 
L 19.671875 0 
L 9.8125 0 
z
" id="DejaVuSans-73"/>
      </defs>
      <use xlink:href="#DejaVuSans-73"/>
      <use x="29.492188" xlink:href="#DejaVuSans-76"/>
      <use x="85.205078" xlink:href="#DejaVuSans-49"/>
      <use x="148.828125" xlink:href="#DejaVuSans-48"/>
      <use x="212.451172" xlink:href="#DejaVuSans-82"/>
      <use x="281.933594" xlink:href="#DejaVuSans-66"/>
     </g>
    </g>
   </g>
   <g id="text_41">
    <g clip-path="url(#pf8cae6554f)">
     <!-- IL10RA -->
     <g transform="translate(317.330326 127.603965)scale(0.12 -0.12)">
      <defs>
       <path d="M 34.1875 63.1875 
L 20.796875 26.90625 
L 47.609375 26.90625 
z
M 28.609375 72.90625 
L 39.796875 72.90625 
L 67.578125 0 
L 57.328125 0 
L 50.6875 18.703125 
L 17.828125 18.703125 
L 11.1875 0 
L 0.78125 0 
z
" id="DejaVuSans-65"/>
      </defs>
      <use xlink:href="#DejaVuSans-73"/>
      <use x="29.492188" xlink:href="#DejaVuSans-76"/>
      <use x="85.205078" xlink:href="#DejaVuSans-49"/>
      <use x="148.828125" xlink:href="#DejaVuSans-48"/>
      <use x="212.451172" xlink:href="#DejaVuSans-82"/>
      <use x="277.933594" xlink:href="#DejaVuSans-65"/>
     </g>
    </g>
   </g>
   <g id="text_42">
    <g clip-path="url(#pf8cae6554f)">
     <!-- IL10 -->
     <g transform="translate(355.596535 246.042774)scale(0.12 -0.12)">
      <use xlink:href="#DejaVuSans-73"/>
      <use x="29.492188" xlink:href="#DejaVuSans-76"/>
      <use x="85.205078" xlink:href="#DejaVuSans-49"/>
      <use x="148.828125" xlink:href="#DejaVuSans-48"/>
     </g>
    </g>
   </g>
   <g id="text_43">
    <g clip-path="url(#pf8cae6554f)">
     <!-- IL6R -->
     <g transform="translate(525.102629 466.769213)scale(0.12 -0.12)">
      <use xlink:href="#DejaVuSans-73"/>
      <use x="29.492188" xlink:href="#DejaVuSans-76"/>
      <use x="85.205078" xlink:href="#DejaVuSans-54"/>
      <use x="148.828125" xlink:href="#DejaVuSans-82"/>
     </g>
    </g>
   </g>
   <g id="text_44">
    <g clip-path="url(#pf8cae6554f)">
     <!-- IL6 -->
     <g transform="translate(593.527724 355.345374)scale(0.12 -0.12)">
      <use xlink:href="#DejaVuSans-73"/>
      <use x="29.492188" xlink:href="#DejaVuSans-76"/>
      <use x="85.205078" xlink:href="#DejaVuSans-54"/>
     </g>
    </g>
   </g>
   <g id="text_45">
    <g clip-path="url(#pf8cae6554f)">
     <!-- IL2RG -->
     <g transform="translate(265.422206 448.90929)scale(0.12 -0.12)">
      <defs>
       <path d="M 59.515625 10.40625 
L 59.515625 29.984375 
L 43.40625 29.984375 
L 43.40625 38.09375 
L 69.28125 38.09375 
L 69.28125 6.78125 
Q 63.578125 2.734375 56.6875 0.65625 
Q 49.8125 -1.421875 42 -1.421875 
Q 24.90625 -1.421875 15.25 8.5625 
Q 5.609375 18.5625 5.609375 36.375 
Q 5.609375 54.25 15.25 64.234375 
Q 24.90625 74.21875 42 74.21875 
Q 49.125 74.21875 55.546875 72.453125 
Q 61.96875 70.703125 67.390625 67.28125 
L 67.390625 56.78125 
Q 61.921875 61.421875 55.765625 63.765625 
Q 49.609375 66.109375 42.828125 66.109375 
Q 29.4375 66.109375 22.71875 58.640625 
Q 16.015625 51.171875 16.015625 36.375 
Q 16.015625 21.625 22.71875 14.15625 
Q 29.4375 6.6875 42.828125 6.6875 
Q 48.046875 6.6875 52.140625 7.59375 
Q 56.25 8.5 59.515625 10.40625 
z
" id="DejaVuSans-71"/>
      </defs>
      <use xlink:href="#DejaVuSans-73"/>
      <use x="29.492188" xlink:href="#DejaVuSans-76"/>
      <use x="85.205078" xlink:href="#DejaVuSans-50"/>
      <use x="148.828125" xlink:href="#DejaVuSans-82"/>
      <use x="218.310547" xlink:href="#DejaVuSans-71"/>
     </g>
    </g>
   </g>
   <g id="text_46">
    <g clip-path="url(#pf8cae6554f)">
     <!-- IL2RB -->
     <g transform="translate(644.241483 384.368742)scale(0.12 -0.12)">
      <use xlink:href="#DejaVuSans-73"/>
      <use x="29.492188" xlink:href="#DejaVuSans-76"/>
      <use x="85.205078" xlink:href="#DejaVuSans-50"/>
      <use x="148.828125" xlink:href="#DejaVuSans-82"/>
      <use x="218.310547" xlink:href="#DejaVuSans-66"/>
     </g>
    </g>
   </g>
   <g id="text_47">
    <g clip-path="url(#pf8cae6554f)">
     <!-- IL2RA -->
     <g transform="translate(437.100342 110.918523)scale(0.12 -0.12)">
      <use xlink:href="#DejaVuSans-73"/>
      <use x="29.492188" xlink:href="#DejaVuSans-76"/>
      <use x="85.205078" xlink:href="#DejaVuSans-50"/>
      <use x="148.828125" xlink:href="#DejaVuSans-82"/>
      <use x="214.310547" xlink:href="#DejaVuSans-65"/>
     </g>
    </g>
   </g>
   <g id="text_48">
    <g clip-path="url(#pf8cae6554f)">
     <!-- IL2 -->
     <g transform="translate(456.157606 309.235316)scale(0.12 -0.12)">
      <use xlink:href="#DejaVuSans-73"/>
      <use x="29.492188" xlink:href="#DejaVuSans-76"/>
      <use x="85.205078" xlink:href="#DejaVuSans-50"/>
     </g>
    </g>
   </g>
   <g id="text_49">
    <g clip-path="url(#pf8cae6554f)">
     <!-- IL18RAP -->
     <g transform="translate(141.70641 317.229358)scale(0.12 -0.12)">
      <use xlink:href="#DejaVuSans-73"/>
      <use x="29.492188" xlink:href="#DejaVuSans-76"/>
      <use x="85.205078" xlink:href="#DejaVuSans-49"/>
      <use x="148.828125" xlink:href="#DejaVuSans-56"/>
      <use x="212.451172" xlink:href="#DejaVuSans-82"/>
      <use x="277.933594" xlink:href="#DejaVuSans-65"/>
      <use x="346.341797" xlink:href="#DejaVuSans-80"/>
     </g>
    </g>
   </g>
   <g id="text_50">
    <g clip-path="url(#pf8cae6554f)">
     <!-- IL18R1 -->
     <g transform="translate(238.271417 160.304422)scale(0.12 -0.12)">
      <use xlink:href="#DejaVuSans-73"/>
      <use x="29.492188" xlink:href="#DejaVuSans-76"/>
      <use x="85.205078" xlink:href="#DejaVuSans-49"/>
      <use x="148.828125" xlink:href="#DejaVuSans-56"/>
      <use x="212.451172" xlink:href="#DejaVuSans-82"/>
      <use x="281.933594" xlink:href="#DejaVuSans-49"/>
     </g>
    </g>
   </g>
   <g id="text_51">
    <g clip-path="url(#pf8cae6554f)">
     <!-- IL18 -->
     <g transform="translate(166.088064 229.302238)scale(0.12 -0.12)">
      <use xlink:href="#DejaVuSans-73"/>
      <use x="29.492188" xlink:href="#DejaVuSans-76"/>
      <use x="85.205078" xlink:href="#DejaVuSans-49"/>
      <use x="148.828125" xlink:href="#DejaVuSans-56"/>
     </g>
    </g>
   </g>
   <g id="text_52">
    <g clip-path="url(#pf8cae6554f)">
     <!-- IL20RB -->
     <g transform="translate(379.554481 113.107283)scale(0.12 -0.12)">
      <use xlink:href="#DejaVuSans-73"/>
      <use x="29.492188" xlink:href="#DejaVuSans-76"/>
      <use x="85.205078" xlink:href="#DejaVuSans-50"/>
      <use x="148.828125" xlink:href="#DejaVuSans-48"/>
      <use x="212.451172" xlink:href="#DejaVuSans-82"/>
      <use x="281.933594" xlink:href="#DejaVuSans-66"/>
     </g>
    </g>
   </g>
   <g id="text_53">
    <g clip-path="url(#pf8cae6554f)">
     <!-- IL20RA -->
     <g transform="translate(537.78674 125.590347)scale(0.12 -0.12)">
      <use xlink:href="#DejaVuSans-73"/>
      <use x="29.492188" xlink:href="#DejaVuSans-76"/>
      <use x="85.205078" xlink:href="#DejaVuSans-50"/>
      <use x="148.828125" xlink:href="#DejaVuSans-48"/>
      <use x="212.451172" xlink:href="#DejaVuSans-82"/>
      <use x="277.933594" xlink:href="#DejaVuSans-65"/>
     </g>
    </g>
   </g>
   <g id="text_54">
    <g clip-path="url(#pf8cae6554f)">
     <!-- IL22RA1 -->
     <g transform="translate(402.488918 123.578909)scale(0.12 -0.12)">
      <use xlink:href="#DejaVuSans-73"/>
      <use x="29.492188" xlink:href="#DejaVuSans-76"/>
      <use x="85.205078" xlink:href="#DejaVuSans-50"/>
      <use x="148.828125" xlink:href="#DejaVuSans-50"/>
      <use x="212.451172" xlink:href="#DejaVuSans-82"/>
      <use x="277.933594" xlink:href="#DejaVuSans-65"/>
      <use x="346.341797" xlink:href="#DejaVuSans-49"/>
     </g>
    </g>
   </g>
   <g id="text_55">
    <g clip-path="url(#pf8cae6554f)">
     <!-- IL34 -->
     <g transform="translate(601.431605 261.847018)scale(0.12 -0.12)">
      <use xlink:href="#DejaVuSans-73"/>
      <use x="29.492188" xlink:href="#DejaVuSans-76"/>
      <use x="85.205078" xlink:href="#DejaVuSans-51"/>
      <use x="148.828125" xlink:href="#DejaVuSans-52"/>
     </g>
    </g>
   </g>
   <g id="text_56">
    <g clip-path="url(#pf8cae6554f)">
     <!-- CSF1 -->
     <g transform="translate(547.451394 260.971395)scale(0.12 -0.12)">
      <defs>
       <path d="M 53.515625 70.515625 
L 53.515625 60.890625 
Q 47.90625 63.578125 42.921875 64.890625 
Q 37.9375 66.21875 33.296875 66.21875 
Q 25.25 66.21875 20.875 63.09375 
Q 16.5 59.96875 16.5 54.203125 
Q 16.5 49.359375 19.40625 46.890625 
Q 22.3125 44.4375 30.421875 42.921875 
L 36.375 41.703125 
Q 47.40625 39.59375 52.65625 34.296875 
Q 57.90625 29 57.90625 20.125 
Q 57.90625 9.515625 50.796875 4.046875 
Q 43.703125 -1.421875 29.984375 -1.421875 
Q 24.8125 -1.421875 18.96875 -0.25 
Q 13.140625 0.921875 6.890625 3.21875 
L 6.890625 13.375 
Q 12.890625 10.015625 18.65625 8.296875 
Q 24.421875 6.59375 29.984375 6.59375 
Q 38.421875 6.59375 43.015625 9.90625 
Q 47.609375 13.234375 47.609375 19.390625 
Q 47.609375 24.75 44.3125 27.78125 
Q 41.015625 30.8125 33.5 32.328125 
L 27.484375 33.5 
Q 16.453125 35.6875 11.515625 40.375 
Q 6.59375 45.0625 6.59375 53.421875 
Q 6.59375 63.09375 13.40625 68.65625 
Q 20.21875 74.21875 32.171875 74.21875 
Q 37.3125 74.21875 42.625 73.28125 
Q 47.953125 72.359375 53.515625 70.515625 
z
" id="DejaVuSans-83"/>
      </defs>
      <use xlink:href="#DejaVuSans-67"/>
      <use x="69.824219" xlink:href="#DejaVuSans-83"/>
      <use x="133.300781" xlink:href="#DejaVuSans-70"/>
      <use x="190.820312" xlink:href="#DejaVuSans-49"/>
     </g>
    </g>
   </g>
   <g id="text_57">
    <g clip-path="url(#pf8cae6554f)">
     <!-- CSF1R -->
     <g transform="translate(675.29249 375.82936)scale(0.12 -0.12)">
      <use xlink:href="#DejaVuSans-67"/>
      <use x="69.824219" xlink:href="#DejaVuSans-83"/>
      <use x="133.300781" xlink:href="#DejaVuSans-70"/>
      <use x="190.820312" xlink:href="#DejaVuSans-49"/>
      <use x="254.443359" xlink:href="#DejaVuSans-82"/>
     </g>
    </g>
   </g>
   <g id="text_58">
    <g clip-path="url(#pf8cae6554f)">
     <!-- TNFRSF14 -->
     <g transform="translate(137.576308 271.15034)scale(0.12 -0.12)">
      <defs>
       <path d="M -0.296875 72.90625 
L 61.375 72.90625 
L 61.375 64.59375 
L 35.5 64.59375 
L 35.5 0 
L 25.59375 0 
L 25.59375 64.59375 
L -0.296875 64.59375 
z
" id="DejaVuSans-84"/>
       <path d="M 9.8125 72.90625 
L 23.09375 72.90625 
L 55.421875 11.921875 
L 55.421875 72.90625 
L 64.984375 72.90625 
L 64.984375 0 
L 51.703125 0 
L 19.390625 60.984375 
L 19.390625 0 
L 9.8125 0 
z
" id="DejaVuSans-78"/>
      </defs>
      <use xlink:href="#DejaVuSans-84"/>
      <use x="61.083984" xlink:href="#DejaVuSans-78"/>
      <use x="135.888672" xlink:href="#DejaVuSans-70"/>
      <use x="193.408203" xlink:href="#DejaVuSans-82"/>
      <use x="262.890625" xlink:href="#DejaVuSans-83"/>
      <use x="326.367188" xlink:href="#DejaVuSans-70"/>
      <use x="383.886719" xlink:href="#DejaVuSans-49"/>
      <use x="447.509766" xlink:href="#DejaVuSans-52"/>
     </g>
    </g>
   </g>
   <g id="text_59">
    <g clip-path="url(#pf8cae6554f)">
     <!-- TNFSF14 -->
     <g transform="translate(221.84474 212.845882)scale(0.12 -0.12)">
      <use xlink:href="#DejaVuSans-84"/>
      <use x="61.083984" xlink:href="#DejaVuSans-78"/>
      <use x="135.888672" xlink:href="#DejaVuSans-70"/>
      <use x="191.658203" xlink:href="#DejaVuSans-83"/>
      <use x="255.134766" xlink:href="#DejaVuSans-70"/>
      <use x="312.654297" xlink:href="#DejaVuSans-49"/>
      <use x="376.277344" xlink:href="#DejaVuSans-52"/>
     </g>
    </g>
   </g>
   <g id="text_60">
    <g clip-path="url(#pf8cae6554f)">
     <!-- LTA -->
     <g transform="translate(442.073559 351.479177)scale(0.12 -0.12)">
      <use xlink:href="#DejaVuSans-76"/>
      <use x="41.962891" xlink:href="#DejaVuSans-84"/>
      <use x="95.296875" xlink:href="#DejaVuSans-65"/>
     </g>
    </g>
   </g>
   <g id="text_61">
    <g clip-path="url(#pf8cae6554f)">
     <!-- TNFRSF1A -->
     <g transform="translate(554.161674 446.77568)scale(0.12 -0.12)">
      <use xlink:href="#DejaVuSans-84"/>
      <use x="61.083984" xlink:href="#DejaVuSans-78"/>
      <use x="135.888672" xlink:href="#DejaVuSans-70"/>
      <use x="193.408203" xlink:href="#DejaVuSans-82"/>
      <use x="262.890625" xlink:href="#DejaVuSans-83"/>
      <use x="326.367188" xlink:href="#DejaVuSans-70"/>
      <use x="383.886719" xlink:href="#DejaVuSans-49"/>
      <use x="447.509766" xlink:href="#DejaVuSans-65"/>
     </g>
    </g>
   </g>
   <g id="text_62">
    <g clip-path="url(#pf8cae6554f)">
     <!-- TNFRSF1B -->
     <g transform="translate(664.597066 325.159809)scale(0.12 -0.12)">
      <use xlink:href="#DejaVuSans-84"/>
      <use x="61.083984" xlink:href="#DejaVuSans-78"/>
      <use x="135.888672" xlink:href="#DejaVuSans-70"/>
      <use x="193.408203" xlink:href="#DejaVuSans-82"/>
      <use x="262.890625" xlink:href="#DejaVuSans-83"/>
      <use x="326.367188" xlink:href="#DejaVuSans-70"/>
      <use x="383.886719" xlink:href="#DejaVuSans-49"/>
      <use x="447.509766" xlink:href="#DejaVuSans-66"/>
     </g>
    </g>
   </g>
   <g id="text_63">
    <g clip-path="url(#pf8cae6554f)">
     <!-- TNF -->
     <g transform="translate(594.26314 403.463105)scale(0.12 -0.12)">
      <use xlink:href="#DejaVuSans-84"/>
      <use x="61.083984" xlink:href="#DejaVuSans-78"/>
      <use x="135.888672" xlink:href="#DejaVuSans-70"/>
     </g>
    </g>
   </g>
   <g id="text_64">
    <g clip-path="url(#pf8cae6554f)">
     <!-- TNFSF10 -->
     <g transform="translate(324.277137 454.461224)scale(0.12 -0.12)">
      <use xlink:href="#DejaVuSans-84"/>
      <use x="61.083984" xlink:href="#DejaVuSans-78"/>
      <use x="135.888672" xlink:href="#DejaVuSans-70"/>
      <use x="191.658203" xlink:href="#DejaVuSans-83"/>
      <use x="255.134766" xlink:href="#DejaVuSans-70"/>
      <use x="312.654297" xlink:href="#DejaVuSans-49"/>
      <use x="376.277344" xlink:href="#DejaVuSans-48"/>
     </g>
    </g>
   </g>
   <g id="text_65">
    <g clip-path="url(#pf8cae6554f)">
     <!-- CCL8 -->
     <g transform="translate(445.660118 324.571307)scale(0.12 -0.12)">
      <use xlink:href="#DejaVuSans-67"/>
      <use x="69.824219" xlink:href="#DejaVuSans-67"/>
      <use x="139.648438" xlink:href="#DejaVuSans-76"/>
      <use x="195.361328" xlink:href="#DejaVuSans-56"/>
     </g>
    </g>
   </g>
   <g id="text_66">
    <g clip-path="url(#pf8cae6554f)">
     <!-- CCL14 -->
     <g transform="translate(598.848169 218.194838)scale(0.12 -0.12)">
      <use xlink:href="#DejaVuSans-67"/>
      <use x="69.824219" xlink:href="#DejaVuSans-67"/>
      <use x="139.648438" xlink:href="#DejaVuSans-76"/>
      <use x="195.361328" xlink:href="#DejaVuSans-49"/>
      <use x="258.984375" xlink:href="#DejaVuSans-52"/>
     </g>
    </g>
   </g>
   <g id="text_67">
    <g clip-path="url(#pf8cae6554f)">
     <!-- CCL16 -->
     <g transform="translate(640.850689 266.826155)scale(0.12 -0.12)">
      <use xlink:href="#DejaVuSans-67"/>
      <use x="69.824219" xlink:href="#DejaVuSans-67"/>
      <use x="139.648438" xlink:href="#DejaVuSans-76"/>
      <use x="195.361328" xlink:href="#DejaVuSans-49"/>
      <use x="258.984375" xlink:href="#DejaVuSans-54"/>
     </g>
    </g>
   </g>
   <g id="text_68">
    <g clip-path="url(#pf8cae6554f)">
     <!-- CCL27 -->
     <g transform="translate(251.107474 230.626054)scale(0.12 -0.12)">
      <use xlink:href="#DejaVuSans-67"/>
      <use x="69.824219" xlink:href="#DejaVuSans-67"/>
      <use x="139.648438" xlink:href="#DejaVuSans-76"/>
      <use x="195.361328" xlink:href="#DejaVuSans-50"/>
      <use x="258.984375" xlink:href="#DejaVuSans-55"/>
     </g>
    </g>
   </g>
   <g id="text_69">
    <g clip-path="url(#pf8cae6554f)">
     <!-- CCL24 -->
     <g transform="translate(405.142562 263.197894)scale(0.12 -0.12)">
      <use xlink:href="#DejaVuSans-67"/>
      <use x="69.824219" xlink:href="#DejaVuSans-67"/>
      <use x="139.648438" xlink:href="#DejaVuSans-76"/>
      <use x="195.361328" xlink:href="#DejaVuSans-50"/>
      <use x="258.984375" xlink:href="#DejaVuSans-52"/>
     </g>
    </g>
   </g>
   <g id="text_70">
    <g clip-path="url(#pf8cae6554f)">
     <!-- CCR9 -->
     <g transform="translate(472.844919 111.61206)scale(0.12 -0.12)">
      <use xlink:href="#DejaVuSans-67"/>
      <use x="69.824219" xlink:href="#DejaVuSans-67"/>
      <use x="139.648438" xlink:href="#DejaVuSans-82"/>
      <use x="209.130859" xlink:href="#DejaVuSans-57"/>
     </g>
    </g>
   </g>
   <g id="text_71">
    <g clip-path="url(#pf8cae6554f)">
     <!-- ACKR4 -->
     <g transform="translate(287.506557 136.592791)scale(0.12 -0.12)">
      <defs>
       <path d="M 9.8125 72.90625 
L 19.671875 72.90625 
L 19.671875 42.09375 
L 52.390625 72.90625 
L 65.09375 72.90625 
L 28.90625 38.921875 
L 67.671875 0 
L 54.6875 0 
L 19.671875 35.109375 
L 19.671875 0 
L 9.8125 0 
z
" id="DejaVuSans-75"/>
      </defs>
      <use xlink:href="#DejaVuSans-65"/>
      <use x="66.658203" xlink:href="#DejaVuSans-67"/>
      <use x="136.482422" xlink:href="#DejaVuSans-75"/>
      <use x="202.058594" xlink:href="#DejaVuSans-82"/>
      <use x="271.541016" xlink:href="#DejaVuSans-52"/>
     </g>
    </g>
   </g>
   <g id="text_72">
    <g clip-path="url(#pf8cae6554f)">
     <!-- CCR7 -->
     <g transform="translate(637.249822 407.782212)scale(0.12 -0.12)">
      <use xlink:href="#DejaVuSans-67"/>
      <use x="69.824219" xlink:href="#DejaVuSans-67"/>
      <use x="139.648438" xlink:href="#DejaVuSans-82"/>
      <use x="209.130859" xlink:href="#DejaVuSans-55"/>
     </g>
    </g>
   </g>
   <g id="text_73">
    <g clip-path="url(#pf8cae6554f)">
     <!-- XCL2 -->
     <g transform="translate(151.456139 287.081098)scale(0.12 -0.12)">
      <use xlink:href="#DejaVuSans-88"/>
      <use x="61.255859" xlink:href="#DejaVuSans-67"/>
      <use x="131.080078" xlink:href="#DejaVuSans-76"/>
      <use x="186.792969" xlink:href="#DejaVuSans-50"/>
     </g>
    </g>
   </g>
   <g id="text_74">
    <g clip-path="url(#pf8cae6554f)">
     <!-- IL37 -->
     <g transform="translate(182.940633 241.344849)scale(0.12 -0.12)">
      <use xlink:href="#DejaVuSans-73"/>
      <use x="29.492188" xlink:href="#DejaVuSans-76"/>
      <use x="85.205078" xlink:href="#DejaVuSans-51"/>
      <use x="148.828125" xlink:href="#DejaVuSans-55"/>
     </g>
    </g>
   </g>
   <g id="text_75">
    <g clip-path="url(#pf8cae6554f)">
     <!-- IL19 -->
     <g transform="translate(518.710561 155.690793)scale(0.12 -0.12)">
      <use xlink:href="#DejaVuSans-73"/>
      <use x="29.492188" xlink:href="#DejaVuSans-76"/>
      <use x="85.205078" xlink:href="#DejaVuSans-49"/>
      <use x="148.828125" xlink:href="#DejaVuSans-57"/>
     </g>
    </g>
   </g>
   <g id="text_76">
    <g clip-path="url(#pf8cae6554f)">
     <!-- IL20 -->
     <g transform="translate(515.608344 142.729368)scale(0.12 -0.12)">
      <use xlink:href="#DejaVuSans-73"/>
      <use x="29.492188" xlink:href="#DejaVuSans-76"/>
      <use x="85.205078" xlink:href="#DejaVuSans-50"/>
      <use x="148.828125" xlink:href="#DejaVuSans-48"/>
     </g>
    </g>
   </g>
   <g id="text_77">
    <g clip-path="url(#pf8cae6554f)">
     <!-- IL24 -->
     <g transform="translate(469.709173 197.89382)scale(0.12 -0.12)">
      <use xlink:href="#DejaVuSans-73"/>
      <use x="29.492188" xlink:href="#DejaVuSans-76"/>
      <use x="85.205078" xlink:href="#DejaVuSans-50"/>
      <use x="148.828125" xlink:href="#DejaVuSans-52"/>
     </g>
    </g>
   </g>
   <g id="text_78">
    <g clip-path="url(#pf8cae6554f)">
     <!-- TNFRSF10C -->
     <g transform="translate(424.625775 477.463977)scale(0.12 -0.12)">
      <use xlink:href="#DejaVuSans-84"/>
      <use x="61.083984" xlink:href="#DejaVuSans-78"/>
      <use x="135.888672" xlink:href="#DejaVuSans-70"/>
      <use x="193.408203" xlink:href="#DejaVuSans-82"/>
      <use x="262.890625" xlink:href="#DejaVuSans-83"/>
      <use x="326.367188" xlink:href="#DejaVuSans-70"/>
      <use x="383.886719" xlink:href="#DejaVuSans-49"/>
      <use x="447.509766" xlink:href="#DejaVuSans-48"/>
      <use x="511.132812" xlink:href="#DejaVuSans-67"/>
     </g>
    </g>
   </g>
   <g id="text_79">
    <g clip-path="url(#pf8cae6554f)">
     <!-- TNFRSF10D -->
     <g transform="translate(201.869455 405.901085)scale(0.12 -0.12)">
      <defs>
       <path d="M 19.671875 64.796875 
L 19.671875 8.109375 
L 31.59375 8.109375 
Q 46.6875 8.109375 53.6875 14.9375 
Q 60.6875 21.78125 60.6875 36.53125 
Q 60.6875 51.171875 53.6875 57.984375 
Q 46.6875 64.796875 31.59375 64.796875 
z
M 9.8125 72.90625 
L 30.078125 72.90625 
Q 51.265625 72.90625 61.171875 64.09375 
Q 71.09375 55.28125 71.09375 36.53125 
Q 71.09375 17.671875 61.125 8.828125 
Q 51.171875 0 30.078125 0 
L 9.8125 0 
z
" id="DejaVuSans-68"/>
      </defs>
      <use xlink:href="#DejaVuSans-84"/>
      <use x="61.083984" xlink:href="#DejaVuSans-78"/>
      <use x="135.888672" xlink:href="#DejaVuSans-70"/>
      <use x="193.408203" xlink:href="#DejaVuSans-82"/>
      <use x="262.890625" xlink:href="#DejaVuSans-83"/>
      <use x="326.367188" xlink:href="#DejaVuSans-70"/>
      <use x="383.886719" xlink:href="#DejaVuSans-49"/>
      <use x="447.509766" xlink:href="#DejaVuSans-48"/>
      <use x="511.132812" xlink:href="#DejaVuSans-68"/>
     </g>
    </g>
   </g>
   <g id="text_80">
    <!-- Network: hsa04061 -->
    <g transform="translate(384.1275 63.12)scale(0.12 -0.12)">
     <defs>
      <path d="M 56.203125 29.59375 
L 56.203125 25.203125 
L 14.890625 25.203125 
Q 15.484375 15.921875 20.484375 11.0625 
Q 25.484375 6.203125 34.421875 6.203125 
Q 39.59375 6.203125 44.453125 7.46875 
Q 49.3125 8.734375 54.109375 11.28125 
L 54.109375 2.78125 
Q 49.265625 0.734375 44.1875 -0.34375 
Q 39.109375 -1.421875 33.890625 -1.421875 
Q 20.796875 -1.421875 13.15625 6.1875 
Q 5.515625 13.8125 5.515625 26.8125 
Q 5.515625 40.234375 12.765625 48.109375 
Q 20.015625 56 32.328125 56 
Q 43.359375 56 49.78125 48.890625 
Q 56.203125 41.796875 56.203125 29.59375 
z
M 47.21875 32.234375 
Q 47.125 39.59375 43.09375 43.984375 
Q 39.0625 48.390625 32.421875 48.390625 
Q 24.90625 48.390625 20.390625 44.140625 
Q 15.875 39.890625 15.1875 32.171875 
z
" id="DejaVuSans-101"/>
      <path d="M 18.3125 70.21875 
L 18.3125 54.6875 
L 36.8125 54.6875 
L 36.8125 47.703125 
L 18.3125 47.703125 
L 18.3125 18.015625 
Q 18.3125 11.328125 20.140625 9.421875 
Q 21.96875 7.515625 27.59375 7.515625 
L 36.8125 7.515625 
L 36.8125 0 
L 27.59375 0 
Q 17.1875 0 13.234375 3.875 
Q 9.28125 7.765625 9.28125 18.015625 
L 9.28125 47.703125 
L 2.6875 47.703125 
L 2.6875 54.6875 
L 9.28125 54.6875 
L 9.28125 70.21875 
z
" id="DejaVuSans-116"/>
      <path d="M 4.203125 54.6875 
L 13.1875 54.6875 
L 24.421875 12.015625 
L 35.59375 54.6875 
L 46.1875 54.6875 
L 57.421875 12.015625 
L 68.609375 54.6875 
L 77.59375 54.6875 
L 63.28125 0 
L 52.6875 0 
L 40.921875 44.828125 
L 29.109375 0 
L 18.5 0 
z
" id="DejaVuSans-119"/>
      <path d="M 30.609375 48.390625 
Q 23.390625 48.390625 19.1875 42.75 
Q 14.984375 37.109375 14.984375 27.296875 
Q 14.984375 17.484375 19.15625 11.84375 
Q 23.34375 6.203125 30.609375 6.203125 
Q 37.796875 6.203125 41.984375 11.859375 
Q 46.1875 17.53125 46.1875 27.296875 
Q 46.1875 37.015625 41.984375 42.703125 
Q 37.796875 48.390625 30.609375 48.390625 
z
M 30.609375 56 
Q 42.328125 56 49.015625 48.375 
Q 55.71875 40.765625 55.71875 27.296875 
Q 55.71875 13.875 49.015625 6.21875 
Q 42.328125 -1.421875 30.609375 -1.421875 
Q 18.84375 -1.421875 12.171875 6.21875 
Q 5.515625 13.875 5.515625 27.296875 
Q 5.515625 40.765625 12.171875 48.375 
Q 18.84375 56 30.609375 56 
z
" id="DejaVuSans-111"/>
      <path d="M 41.109375 46.296875 
Q 39.59375 47.171875 37.8125 47.578125 
Q 36.03125 48 33.890625 48 
Q 26.265625 48 22.1875 43.046875 
Q 18.109375 38.09375 18.109375 28.8125 
L 18.109375 0 
L 9.078125 0 
L 9.078125 54.6875 
L 18.109375 54.6875 
L 18.109375 46.1875 
Q 20.953125 51.171875 25.484375 53.578125 
Q 30.03125 56 36.53125 56 
Q 37.453125 56 38.578125 55.875 
Q 39.703125 55.765625 41.0625 55.515625 
z
" id="DejaVuSans-114"/>
      <path d="M 9.078125 75.984375 
L 18.109375 75.984375 
L 18.109375 31.109375 
L 44.921875 54.6875 
L 56.390625 54.6875 
L 27.390625 29.109375 
L 57.625 0 
L 45.90625 0 
L 18.109375 26.703125 
L 18.109375 0 
L 9.078125 0 
z
" id="DejaVuSans-107"/>
      <path d="M 11.71875 12.40625 
L 22.015625 12.40625 
L 22.015625 0 
L 11.71875 0 
z
M 11.71875 51.703125 
L 22.015625 51.703125 
L 22.015625 39.3125 
L 11.71875 39.3125 
z
" id="DejaVuSans-58"/>
      <path id="DejaVuSans-32"/>
      <path d="M 54.890625 33.015625 
L 54.890625 0 
L 45.90625 0 
L 45.90625 32.71875 
Q 45.90625 40.484375 42.875 44.328125 
Q 39.84375 48.1875 33.796875 48.1875 
Q 26.515625 48.1875 22.3125 43.546875 
Q 18.109375 38.921875 18.109375 30.90625 
L 18.109375 0 
L 9.078125 0 
L 9.078125 75.984375 
L 18.109375 75.984375 
L 18.109375 46.1875 
Q 21.34375 51.125 25.703125 53.5625 
Q 30.078125 56 35.796875 56 
Q 45.21875 56 50.046875 50.171875 
Q 54.890625 44.34375 54.890625 33.015625 
z
" id="DejaVuSans-104"/>
      <path d="M 44.28125 53.078125 
L 44.28125 44.578125 
Q 40.484375 46.53125 36.375 47.5 
Q 32.28125 48.484375 27.875 48.484375 
Q 21.1875 48.484375 17.84375 46.4375 
Q 14.5 44.390625 14.5 40.28125 
Q 14.5 37.15625 16.890625 35.375 
Q 19.28125 33.59375 26.515625 31.984375 
L 29.59375 31.296875 
Q 39.15625 29.25 43.1875 25.515625 
Q 47.21875 21.78125 47.21875 15.09375 
Q 47.21875 7.46875 41.1875 3.015625 
Q 35.15625 -1.421875 24.609375 -1.421875 
Q 20.21875 -1.421875 15.453125 -0.5625 
Q 10.6875 0.296875 5.421875 2 
L 5.421875 11.28125 
Q 10.40625 8.6875 15.234375 7.390625 
Q 20.0625 6.109375 24.8125 6.109375 
Q 31.15625 6.109375 34.5625 8.28125 
Q 37.984375 10.453125 37.984375 14.40625 
Q 37.984375 18.0625 35.515625 20.015625 
Q 33.0625 21.96875 24.703125 23.78125 
L 21.578125 24.515625 
Q 13.234375 26.265625 9.515625 29.90625 
Q 5.8125 33.546875 5.8125 39.890625 
Q 5.8125 47.609375 11.28125 51.796875 
Q 16.75 56 26.8125 56 
Q 31.78125 56 36.171875 55.265625 
Q 40.578125 54.546875 44.28125 53.078125 
z
" id="DejaVuSans-115"/>
      <path d="M 34.28125 27.484375 
Q 23.390625 27.484375 19.1875 25 
Q 14.984375 22.515625 14.984375 16.5 
Q 14.984375 11.71875 18.140625 8.90625 
Q 21.296875 6.109375 26.703125 6.109375 
Q 34.1875 6.109375 38.703125 11.40625 
Q 43.21875 16.703125 43.21875 25.484375 
L 43.21875 27.484375 
z
M 52.203125 31.203125 
L 52.203125 0 
L 43.21875 0 
L 43.21875 8.296875 
Q 40.140625 3.328125 35.546875 0.953125 
Q 30.953125 -1.421875 24.3125 -1.421875 
Q 15.921875 -1.421875 10.953125 3.296875 
Q 6 8.015625 6 15.921875 
Q 6 25.140625 12.171875 29.828125 
Q 18.359375 34.515625 30.609375 34.515625 
L 43.21875 34.515625 
L 43.21875 35.40625 
Q 43.21875 41.609375 39.140625 45 
Q 35.0625 48.390625 27.6875 48.390625 
Q 23 48.390625 18.546875 47.265625 
Q 14.109375 46.140625 10.015625 43.890625 
L 10.015625 52.203125 
Q 14.9375 54.109375 19.578125 55.046875 
Q 24.21875 56 28.609375 56 
Q 40.484375 56 46.34375 49.84375 
Q 52.203125 43.703125 52.203125 31.203125 
z
" id="DejaVuSans-97"/>
     </defs>
     <use xlink:href="#DejaVuSans-78"/>
     <use x="74.804688" xlink:href="#DejaVuSans-101"/>
     <use x="136.328125" xlink:href="#DejaVuSans-116"/>
     <use x="175.537109" xlink:href="#DejaVuSans-119"/>
     <use x="257.324219" xlink:href="#DejaVuSans-111"/>
     <use x="318.505859" xlink:href="#DejaVuSans-114"/>
     <use x="359.619141" xlink:href="#DejaVuSans-107"/>
     <use x="417.529297" xlink:href="#DejaVuSans-58"/>
     <use x="451.220703" xlink:href="#DejaVuSans-32"/>
     <use x="483.007812" xlink:href="#DejaVuSans-104"/>
     <use x="546.386719" xlink:href="#DejaVuSans-115"/>
     <use x="598.486328" xlink:href="#DejaVuSans-97"/>
     <use x="659.765625" xlink:href="#DejaVuSans-48"/>
     <use x="723.388672" xlink:href="#DejaVuSans-52"/>
     <use x="787.011719" xlink:href="#DejaVuSans-48"/>
     <use x="850.634766" xlink:href="#DejaVuSans-54"/>
     <use x="914.257812" xlink:href="#DejaVuSans-49"/>
    </g>
   </g>
  </g>
 </g>
 <defs>
  <clipPath id="pf8cae6554f">
   <rect height="443.52" width="669.6" x="108" y="69.12"/>
  </clipPath>
 </defs>
</svg>
