<?xml version="1.0" encoding="utf-8" standalone="no"?>
<!DOCTYPE svg PUBLIC "-//W3C//DTD SVG 1.1//EN"
  "http://www.w3.org/Graphics/SVG/1.1/DTD/svg11.dtd">
<!-- Created with matplotlib (https://matplotlib.org/) -->
<svg height="576pt" version="1.1" viewBox="0 0 864 576" width="864pt" xmlns="http://www.w3.org/2000/svg" xmlns:xlink="http://www.w3.org/1999/xlink">
 <metadata>
  <rdf:RDF xmlns:cc="http://creativecommons.org/ns#" xmlns:dc="http://purl.org/dc/elements/1.1/" xmlns:rdf="http://www.w3.org/1999/02/22-rdf-syntax-ns#">
   <cc:Work>
    <dc:type rdf:resource="http://purl.org/dc/dcmitype/StillImage"/>
    <dc:date>2024-04-26T13:38:04.040354</dc:date>
    <dc:format>image/svg+xml</dc:format>
    <dc:creator>
     <cc:Agent>
      <dc:title>Matplotlib v3.3.1, https://matplotlib.org/</dc:title>
     </cc:Agent>
    </dc:creator>
   </cc:Work>
  </rdf:RDF>
 </metadata>
 <defs>
  <style type="text/css">*{stroke-linecap:butt;stroke-linejoin:round;}</style>
 </defs>
 <g id="figure_1">
  <g id="patch_1">
   <path d="M 0 576 
L 864 576 
L 864 0 
L 0 0 
z
" style="fill:#ffffff;"/>
  </g>
  <g id="axes_1">
   <g id="patch_2">
    <path clip-path="url(#pbee14eca76)" d="M 332.718662 311.899981 
Q 348.399171 294.022472 363.342447 276.98549 
" style="fill:none;stroke:#000000;stroke-linecap:round;"/>
    <path clip-path="url(#pbee14eca76)" d="M 359.201258 278.67385 
L 363.342447 276.98549 
L 362.208421 281.311457 
L 359.201258 278.67385 
z
" style="stroke:#000000;stroke-linecap:round;"/>
   </g>
   <g id="patch_3">
    <path clip-path="url(#pbee14eca76)" d="M 346.297561 301.679815 
Q 262.410747 304.151292 179.641482 306.589845 
" style="fill:none;stroke:#000000;stroke-linecap:round;"/>
    <path clip-path="url(#pbee14eca76)" d="M 183.698645 308.47118 
L 179.641482 306.589845 
L 183.580848 304.472915 
L 183.698645 308.47118 
z
" style="stroke:#000000;stroke-linecap:round;"/>
   </g>
   <g id="patch_4">
    <path clip-path="url(#pbee14eca76)" d="M 208.703554 365.727814 
Q 191.671899 339.918059 175.256035 315.041473 
" style="fill:none;stroke:#000000;stroke-linecap:round;"/>
    <path clip-path="url(#pbee14eca76)" d="M 175.789851 319.481635 
L 175.256035 315.041473 
L 179.128455 317.278517 
L 175.789851 319.481635 
z
" style="stroke:#000000;stroke-linecap:round;"/>
   </g>
   <g id="patch_5">
    <path clip-path="url(#pbee14eca76)" d="M 546.608732 418.233731 
Q 597.114598 417.356815 646.502598 416.499307 
" style="fill:none;stroke:#000000;stroke-linecap:round;"/>
    <path clip-path="url(#pbee14eca76)" d="M 642.468481 414.569049 
L 646.502598 416.499307 
L 642.537921 418.568446 
L 642.468481 414.569049 
z
" style="stroke:#000000;stroke-linecap:round;"/>
   </g>
   <g id="patch_6">
    <path clip-path="url(#pbee14eca76)" d="M 276.983015 292.047615 
Q 319.175494 281.858851 360.281178 271.932531 
" style="fill:none;stroke:#000000;stroke-linecap:round;"/>
    <path clip-path="url(#pbee14eca76)" d="M 355.923469 270.927355 
L 360.281178 271.932531 
L 356.862412 274.815592 
L 355.923469 270.927355 
z
" style="stroke:#000000;stroke-linecap:round;"/>
   </g>
   <g id="patch_7">
    <path clip-path="url(#pbee14eca76)" d="M 445.357066 327.953993 
Q 488.556602 370.142987 530.956269 411.550823 
" style="fill:none;stroke:#000000;stroke-linecap:round;"/>
    <path clip-path="url(#pbee14eca76)" d="M 529.491948 407.325215 
L 530.956269 411.550823 
L 526.69719 410.186915 
L 529.491948 407.325215 
z
" style="stroke:#000000;stroke-linecap:round;"/>
   </g>
   <g id="patch_8">
    <path clip-path="url(#pbee14eca76)" d="M 621.314366 357.525906 
Q 659.259574 347.984164 696.120503 338.715076 
" style="fill:none;stroke:#000000;stroke-linecap:round;"/>
    <path clip-path="url(#pbee14eca76)" d="M 691.753532 337.750935 
L 696.120503 338.715076 
L 692.729008 341.630168 
L 691.753532 337.750935 
z
" style="stroke:#000000;stroke-linecap:round;"/>
   </g>
   <g id="patch_9">
    <path clip-path="url(#pbee14eca76)" d="M 376.704654 274.847805 
Q 404.473622 295.769195 431.349626 316.017817 
" style="fill:none;stroke:#000000;stroke-linecap:round;"/>
    <path clip-path="url(#pbee14eca76)" d="M 429.358344 312.01347 
L 431.349626 316.017817 
L 426.951379 315.208235 
L 429.358344 312.01347 
z
" style="stroke:#000000;stroke-linecap:round;"/>
   </g>
   <g id="patch_10">
    <path clip-path="url(#pbee14eca76)" d="M 500.916128 223.753242 
Q 599.466504 277.955619 697.037239 331.619198 
" style="fill:none;stroke:#000000;stroke-linecap:round;"/>
    <path clip-path="url(#pbee14eca76)" d="M 694.496204 327.939097 
L 697.037239 331.619198 
L 692.568538 331.443966 
L 694.496204 327.939097 
z
" style="stroke:#000000;stroke-linecap:round;"/>
   </g>
   <g id="patch_11">
    <path clip-path="url(#pbee14eca76)" d="M 484.809177 218.005926 
Q 345.414618 192.258678 207.119496 166.714505 
" style="fill:none;stroke:#000000;stroke-linecap:round;"/>
    <path clip-path="url(#pbee14eca76)" d="M 210.689689 169.407778 
L 207.119496 166.714505 
L 211.41623 165.474314 
L 210.689689 169.407778 
z
" style="stroke:#000000;stroke-linecap:round;"/>
   </g>
   <g id="patch_12">
    <path clip-path="url(#pbee14eca76)" d="M 501.522364 216.770869 
Q 586.737182 187.569896 670.894342 158.731356 
" style="fill:none;stroke:#000000;stroke-linecap:round;"/>
    <path clip-path="url(#pbee14eca76)" d="M 666.462006 158.136039 
L 670.894342 158.731356 
L 667.758686 161.920034 
L 666.462006 158.136039 
z
" style="stroke:#000000;stroke-linecap:round;"/>
   </g>
   <g id="patch_13">
    <path clip-path="url(#pbee14eca76)" d="M 592.365855 267.57436 
Q 645.281771 299.70414 697.242024 331.253655 
" style="fill:none;stroke:#000000;stroke-linecap:round;"/>
    <path clip-path="url(#pbee14eca76)" d="M 694.860948 327.468093 
L 697.242024 331.253655 
L 692.784929 330.887178 
L 694.860948 327.468093 
z
" style="stroke:#000000;stroke-linecap:round;"/>
   </g>
   <g id="patch_14">
    <path clip-path="url(#pbee14eca76)" d="M 481.251951 378.165797 
Q 524.582103 411.971695 567.030766 445.08986 
" style="fill:none;stroke:#000000;stroke-linecap:round;"/>
    <path clip-path="url(#pbee14eca76)" d="M 565.107305 441.052497 
L 567.030766 445.08986 
L 562.646799 444.20621 
L 565.107305 441.052497 
z
" style="stroke:#000000;stroke-linecap:round;"/>
   </g>
   <g id="patch_15">
    <path clip-path="url(#pbee14eca76)" d="M 474.043155 381.491256 
Q 472.205056 423.496866 470.415834 464.385511 
" style="fill:none;stroke:#000000;stroke-linecap:round;"/>
    <path clip-path="url(#pbee14eca76)" d="M 472.588788 460.476768 
L 470.415834 464.385511 
L 468.592612 460.301902 
L 472.588788 460.476768 
z
" style="stroke:#000000;stroke-linecap:round;"/>
   </g>
   <g id="patch_16">
    <path clip-path="url(#pbee14eca76)" d="M 607.39491 139.443771 
Q 616.948971 139.898807 625.386265 140.300654 
" style="fill:none;stroke:#000000;stroke-linecap:round;"/>
    <path clip-path="url(#pbee14eca76)" d="M 621.485941 138.112624 
L 625.386265 140.300654 
L 621.295646 142.108095 
L 621.485941 138.112624 
z
" style="stroke:#000000;stroke-linecap:round;"/>
   </g>
   <g id="patch_17">
    <path clip-path="url(#pbee14eca76)" d="M 606.198082 143.438748 
Q 635.936526 161.013021 664.712446 178.018479 
" style="fill:none;stroke:#000000;stroke-linecap:round;"/>
    <path clip-path="url(#pbee14eca76)" d="M 662.286344 174.261615 
L 664.712446 178.018479 
L 660.251293 177.705242 
L 662.286344 174.261615 
z
" style="stroke:#000000;stroke-linecap:round;"/>
   </g>
   <g id="patch_18">
    <path clip-path="url(#pbee14eca76)" d="M 591.300438 143.459052 
Q 571.567944 155.201627 552.796232 166.372453 
" style="fill:none;stroke:#000000;stroke-linecap:round;"/>
    <path clip-path="url(#pbee14eca76)" d="M 557.256407 166.045597 
L 552.796232 166.372453 
L 555.210852 162.608199 
L 557.256407 166.045597 
z
" style="stroke:#000000;stroke-linecap:round;"/>
   </g>
   <g id="patch_19">
    <path clip-path="url(#pbee14eca76)" d="M 562.207071 197.345095 
Q 595.260054 171.708496 627.429592 146.757117 
" style="fill:none;stroke:#000000;stroke-linecap:round;"/>
    <path clip-path="url(#pbee14eca76)" d="M 623.043126 147.628276 
L 627.429592 146.757117 
L 625.494639 150.788985 
L 623.043126 147.628276 
z
" style="stroke:#000000;stroke-linecap:round;"/>
   </g>
   <g id="patch_20">
    <path clip-path="url(#pbee14eca76)" d="M 563.905081 201.227967 
Q 614.24618 192.82373 663.484507 184.603595 
" style="fill:none;stroke:#000000;stroke-linecap:round;"/>
    <path clip-path="url(#pbee14eca76)" d="M 659.209777 183.289564 
L 663.484507 184.603595 
L 659.868444 187.234961 
L 659.209777 183.289564 
z
" style="stroke:#000000;stroke-linecap:round;"/>
   </g>
   <g id="patch_21">
    <path clip-path="url(#pbee14eca76)" d="M 552.495787 194.478515 
Q 549.877697 187.010942 547.629509 180.598439 
" style="fill:none;stroke:#000000;stroke-linecap:round;"/>
    <path clip-path="url(#pbee14eca76)" d="M 547.065543 185.034872 
L 547.629509 180.598439 
L 550.840276 183.711472 
L 547.065543 185.034872 
z
" style="stroke:#000000;stroke-linecap:round;"/>
   </g>
   <g id="patch_22">
    <path clip-path="url(#pbee14eca76)" d="M 598.406282 179.997378 
Q 613.820648 163.541168 628.470697 147.900935 
" style="fill:none;stroke:#000000;stroke-linecap:round;"/>
    <path clip-path="url(#pbee14eca76)" d="M 624.276527 149.453011 
L 628.470697 147.900935 
L 627.195855 152.187516 
L 624.276527 149.453011 
z
" style="stroke:#000000;stroke-linecap:round;"/>
   </g>
   <g id="patch_23">
    <path clip-path="url(#pbee14eca76)" d="M 601.135069 185.960376 
Q 632.80665 184.655098 663.361146 183.395858 
" style="fill:none;stroke:#000000;stroke-linecap:round;"/>
    <path clip-path="url(#pbee14eca76)" d="M 659.282183 181.562266 
L 663.361146 183.395858 
L 659.446894 185.558874 
L 659.282183 181.562266 
z
" style="stroke:#000000;stroke-linecap:round;"/>
   </g>
   <g id="patch_24">
    <path clip-path="url(#pbee14eca76)" d="M 584.218177 183.747251 
Q 568.442194 178.844832 553.733883 174.274195 
" style="fill:none;stroke:#000000;stroke-linecap:round;"/>
    <path clip-path="url(#pbee14eca76)" d="M 556.960191 177.371118 
L 553.733883 174.274195 
L 558.147207 173.551302 
L 556.960191 177.371118 
z
" style="stroke:#000000;stroke-linecap:round;"/>
   </g>
   <g id="patch_25">
    <path clip-path="url(#pbee14eca76)" d="M 228.533579 217.632854 
Q 200.811813 237.95453 173.991753 257.615202 
" style="fill:none;stroke:#000000;stroke-linecap:round;"/>
    <path clip-path="url(#pbee14eca76)" d="M 178.400235 256.863345 
L 173.991753 257.615202 
L 176.035357 253.637303 
L 178.400235 256.863345 
z
" style="stroke:#000000;stroke-linecap:round;"/>
   </g>
   <g id="patch_26">
    <path clip-path="url(#pbee14eca76)" d="M 641.719953 146.414528 
Q 677.323371 177.044182 712.079239 206.944687 
" style="fill:none;stroke:#000000;stroke-linecap:round;"/>
    <path clip-path="url(#pbee14eca76)" d="M 710.35129 202.81986 
L 712.079239 206.944687 
L 707.742609 205.85215 
L 710.35129 202.81986 
z
" style="stroke:#000000;stroke-linecap:round;"/>
   </g>
   <g id="patch_27">
    <path clip-path="url(#pbee14eca76)" d="M 632.552676 132.504554 
Q 629.932876 124.184692 627.648874 116.931245 
" style="fill:none;stroke:#000000;stroke-linecap:round;"/>
    <path clip-path="url(#pbee14eca76)" d="M 626.942601 121.347259 
L 627.648874 116.931245 
L 630.757922 120.145871 
L 626.942601 121.347259 
z
" style="stroke:#000000;stroke-linecap:round;"/>
   </g>
   <g id="patch_28">
    <path clip-path="url(#pbee14eca76)" d="M 680.377674 187.734236 
Q 696.312937 198.15889 711.312586 207.971476 
" style="fill:none;stroke:#000000;stroke-linecap:round;"/>
    <path clip-path="url(#pbee14eca76)" d="M 709.060131 204.108 
L 711.312586 207.971476 
L 706.870332 207.455355 
L 709.060131 204.108 
z
" style="stroke:#000000;stroke-linecap:round;"/>
   </g>
   <g id="patch_29">
    <path clip-path="url(#pbee14eca76)" d="M 668.450993 175.707243 
Q 648.921815 145.300424 629.996826 115.834324 
" style="fill:none;stroke:#000000;stroke-linecap:round;"/>
    <path clip-path="url(#pbee14eca76)" d="M 630.47563 120.280755 
L 629.996826 115.834324 
L 633.841253 118.119139 
L 630.47563 120.280755 
z
" style="stroke:#000000;stroke-linecap:round;"/>
   </g>
   <g id="patch_30">
    <path clip-path="url(#pbee14eca76)" d="M 552.818991 173.390391 
Q 631.946233 192.348339 709.986211 211.045792 
" style="fill:none;stroke:#000000;stroke-linecap:round;"/>
    <path clip-path="url(#pbee14eca76)" d="M 706.562286 208.168859 
L 709.986211 211.045792 
L 705.63031 212.058771 
L 706.562286 208.168859 
z
" style="stroke:#000000;stroke-linecap:round;"/>
   </g>
   <g id="patch_31">
    <path clip-path="url(#pbee14eca76)" d="M 551.177022 165.987618 
Q 584.552946 139.490374 617.053233 113.6883 
" style="fill:none;stroke:#000000;stroke-linecap:round;"/>
    <path clip-path="url(#pbee14eca76)" d="M 612.676904 114.609031 
L 617.053233 113.6883 
L 615.16402 117.741802 
L 612.676904 114.609031 
z
" style="stroke:#000000;stroke-linecap:round;"/>
   </g>
   <g id="patch_32">
    <path clip-path="url(#pbee14eca76)" d="M 169.122178 298.249899 
Q 167.987164 285.135043 166.94855 273.134057 
" style="fill:none;stroke:#000000;stroke-linecap:round;"/>
    <path clip-path="url(#pbee14eca76)" d="M 165.300885 277.291604 
L 166.94855 273.134057 
L 169.285989 276.946717 
L 165.300885 277.291604 
z
" style="stroke:#000000;stroke-linecap:round;"/>
   </g>
   <g id="PathCollection_1">
    <defs>
     <path d="M 0 8.660254 
C 2.296726 8.660254 4.499694 7.747755 6.123724 6.123724 
C 7.747755 4.499694 8.660254 2.296726 8.660254 -0 
C 8.660254 -2.296726 7.747755 -4.499694 6.123724 -6.123724 
C 4.499694 -7.747755 2.296726 -8.660254 0 -8.660254 
C -2.296726 -8.660254 -4.499694 -7.747755 -6.123724 -6.123724 
C -7.747755 -4.499694 -8.660254 -2.296726 -8.660254 0 
C -8.660254 2.296726 -7.747755 4.499694 -6.123724 6.123724 
C -4.499694 7.747755 -2.296726 8.660254 0 8.660254 
z
" id="C0_0_6ddbca39ed"/>
    </defs>
    <g clip-path="url(#pbee14eca76)">
     <use style="fill:#ff0000;stroke:#ff0000;" x="327.008247" xlink:href="#C0_0_6ddbca39ed" y="318.410485"/>
    </g>
    <g clip-path="url(#pbee14eca76)">
     <use style="fill:#ff0000;stroke:#ff0000;" x="354.953641" xlink:href="#C0_0_6ddbca39ed" y="301.424789"/>
    </g>
    <g clip-path="url(#pbee14eca76)">
     <use style="fill:#ff0000;stroke:#ff0000;" x="213.475714" xlink:href="#C0_0_6ddbca39ed" y="372.959541"/>
    </g>
    <g clip-path="url(#pbee14eca76)">
     <use style="fill:#008000;stroke:#008000;" x="537.953135" xlink:href="#C0_0_6ddbca39ed" y="418.384015"/>
    </g>
    <g clip-path="url(#pbee14eca76)">
     <use style="fill:#008000;stroke:#008000;" x="656.278803" xlink:href="#C0_0_6ddbca39ed" y="416.329566"/>
    </g>
    <g clip-path="url(#pbee14eca76)">
     <use style="fill:#ff0000;stroke:#ff0000;" x="166.105785" xlink:href="#C0_0_6ddbca39ed" y="263.396078"/>
    </g>
    <g clip-path="url(#pbee14eca76)">
     <use style="fill:#ff0000;stroke:#ff0000;" x="268.565289" xlink:href="#C0_0_6ddbca39ed" y="294.080352"/>
    </g>
    <g clip-path="url(#pbee14eca76)">
     <use style="fill:#ff0000;stroke:#ff0000;" x="439.161483" xlink:href="#C0_0_6ddbca39ed" y="321.90334"/>
    </g>
    <g clip-path="url(#pbee14eca76)">
     <use style="fill:#ff0000;stroke:#ff0000;" x="612.916302" xlink:href="#C0_0_6ddbca39ed" y="359.637693"/>
    </g>
    <g clip-path="url(#pbee14eca76)">
     <use style="fill:#ff0000;stroke:#ff0000;" x="369.78806" xlink:href="#C0_0_6ddbca39ed" y="269.636781"/>
    </g>
    <g clip-path="url(#pbee14eca76)">
     <use style="fill:#ff0000;stroke:#ff0000;" x="705.603324" xlink:href="#C0_0_6ddbca39ed" y="336.330515"/>
    </g>
    <g clip-path="url(#pbee14eca76)">
     <use style="fill:#ff0000;stroke:#ff0000;" x="493.326963" xlink:href="#C0_0_6ddbca39ed" y="219.579227"/>
    </g>
    <g clip-path="url(#pbee14eca76)">
     <use style="fill:#ff0000;stroke:#ff0000;" x="584.961994" xlink:href="#C0_0_6ddbca39ed" y="263.078843"/>
    </g>
    <g clip-path="url(#pbee14eca76)">
     <use style="fill:#ff0000;stroke:#ff0000;" x="474.421851" xlink:href="#C0_0_6ddbca39ed" y="372.836998"/>
    </g>
    <g clip-path="url(#pbee14eca76)">
     <use style="fill:#ff0000;stroke:#ff0000;" x="598.740461" xlink:href="#C0_0_6ddbca39ed" y="139.031582"/>
    </g>
    <g clip-path="url(#pbee14eca76)">
     <use style="fill:#ff0000;stroke:#ff0000;" x="555.362129" xlink:href="#C0_0_6ddbca39ed" y="202.654178"/>
    </g>
    <g clip-path="url(#pbee14eca76)">
     <use style="fill:#ff0000;stroke:#ff0000;" x="592.486952" xlink:href="#C0_0_6ddbca39ed" y="186.31679"/>
    </g>
    <g clip-path="url(#pbee14eca76)">
     <use style="fill:#ff0000;stroke:#ff0000;" x="719.494215" xlink:href="#C0_0_6ddbca39ed" y="213.323797"/>
    </g>
    <g clip-path="url(#pbee14eca76)">
     <use style="fill:#ff0000;stroke:#ff0000;" x="624.712894" xlink:href="#C0_0_6ddbca39ed" y="107.607273"/>
    </g>
    <g clip-path="url(#pbee14eca76)">
     <use style="fill:#ff0000;stroke:#ff0000;" x="235.517544" xlink:href="#C0_0_6ddbca39ed" y="212.513199"/>
    </g>
    <g clip-path="url(#pbee14eca76)">
     <use style="fill:#ff0000;stroke:#ff0000;" x="635.154041" xlink:href="#C0_0_6ddbca39ed" y="140.765869"/>
    </g>
    <g clip-path="url(#pbee14eca76)">
     <use style="fill:#ff0000;stroke:#ff0000;" x="673.130516" xlink:href="#C0_0_6ddbca39ed" y="182.993234"/>
    </g>
    <g clip-path="url(#pbee14eca76)">
     <use style="fill:#ff0000;stroke:#ff0000;" x="544.394789" xlink:href="#C0_0_6ddbca39ed" y="171.372052"/>
    </g>
    <g clip-path="url(#pbee14eca76)">
     <use style="fill:#ff0000;stroke:#ff0000;" x="574.739518" xlink:href="#C0_0_6ddbca39ed" y="451.104178"/>
    </g>
    <g clip-path="url(#pbee14eca76)">
     <use style="fill:#ff0000;stroke:#ff0000;" x="469.988436" xlink:href="#C0_0_6ddbca39ed" y="474.152727"/>
    </g>
    <g clip-path="url(#pbee14eca76)">
     <use style="fill:#ff0000;stroke:#ff0000;" x="197.502026" xlink:href="#C0_0_6ddbca39ed" y="164.938084"/>
    </g>
    <g clip-path="url(#pbee14eca76)">
     <use style="fill:#ff0000;stroke:#ff0000;" x="680.142195" xlink:href="#C0_0_6ddbca39ed" y="155.56235"/>
    </g>
    <g clip-path="url(#pbee14eca76)">
     <use style="fill:#ff0000;stroke:#ff0000;" x="169.868869" xlink:href="#C0_0_6ddbca39ed" y="306.877766"/>
    </g>
   </g>
   <g id="text_1">
    <g clip-path="url(#pbee14eca76)">
     <!-- TSC1 -->
     <g transform="translate(311.527309 321.721735)scale(0.12 -0.12)">
      <defs>
       <path d="M -0.296875 72.90625 
L 61.375 72.90625 
L 61.375 64.59375 
L 35.5 64.59375 
L 35.5 0 
L 25.59375 0 
L 25.59375 64.59375 
L -0.296875 64.59375 
z
" id="DejaVuSans-84"/>
       <path d="M 53.515625 70.515625 
L 53.515625 60.890625 
Q 47.90625 63.578125 42.921875 64.890625 
Q 37.9375 66.21875 33.296875 66.21875 
Q 25.25 66.21875 20.875 63.09375 
Q 16.5 59.96875 16.5 54.203125 
Q 16.5 49.359375 19.40625 46.890625 
Q 22.3125 44.4375 30.421875 42.921875 
L 36.375 41.703125 
Q 47.40625 39.59375 52.65625 34.296875 
Q 57.90625 29 57.90625 20.125 
Q 57.90625 9.515625 50.796875 4.046875 
Q 43.703125 -1.421875 29.984375 -1.421875 
Q 24.8125 -1.421875 18.96875 -0.25 
Q 13.140625 0.921875 6.890625 3.21875 
L 6.890625 13.375 
Q 12.890625 10.015625 18.65625 8.296875 
Q 24.421875 6.59375 29.984375 6.59375 
Q 38.421875 6.59375 43.015625 9.90625 
Q 47.609375 13.234375 47.609375 19.390625 
Q 47.609375 24.75 44.3125 27.78125 
Q 41.015625 30.8125 33.5 32.328125 
L 27.484375 33.5 
Q 16.453125 35.6875 11.515625 40.375 
Q 6.59375 45.0625 6.59375 53.421875 
Q 6.59375 63.09375 13.40625 68.65625 
Q 20.21875 74.21875 32.171875 74.21875 
Q 37.3125 74.21875 42.625 73.28125 
Q 47.953125 72.359375 53.515625 70.515625 
z
" id="DejaVuSans-83"/>
       <path d="M 64.40625 67.28125 
L 64.40625 56.890625 
Q 59.421875 61.53125 53.78125 63.8125 
Q 48.140625 66.109375 41.796875 66.109375 
Q 29.296875 66.109375 22.65625 58.46875 
Q 16.015625 50.828125 16.015625 36.375 
Q 16.015625 21.96875 22.65625 14.328125 
Q 29.296875 6.6875 41.796875 6.6875 
Q 48.140625 6.6875 53.78125 8.984375 
Q 59.421875 11.28125 64.40625 15.921875 
L 64.40625 5.609375 
Q 59.234375 2.09375 53.4375 0.328125 
Q 47.65625 -1.421875 41.21875 -1.421875 
Q 24.65625 -1.421875 15.125 8.703125 
Q 5.609375 18.84375 5.609375 36.375 
Q 5.609375 53.953125 15.125 64.078125 
Q 24.65625 74.21875 41.21875 74.21875 
Q 47.75 74.21875 53.53125 72.484375 
Q 59.328125 70.75 64.40625 67.28125 
z
" id="DejaVuSans-67"/>
       <path d="M 12.40625 8.296875 
L 28.515625 8.296875 
L 28.515625 63.921875 
L 10.984375 60.40625 
L 10.984375 69.390625 
L 28.421875 72.90625 
L 38.28125 72.90625 
L 38.28125 8.296875 
L 54.390625 8.296875 
L 54.390625 0 
L 12.40625 0 
z
" id="DejaVuSans-49"/>
      </defs>
      <use xlink:href="#DejaVuSans-84"/>
      <use x="61.083984" xlink:href="#DejaVuSans-83"/>
      <use x="124.560547" xlink:href="#DejaVuSans-67"/>
      <use x="194.384766" xlink:href="#DejaVuSans-49"/>
     </g>
    </g>
   </g>
   <g id="text_2">
    <g clip-path="url(#pbee14eca76)">
     <!-- IKBKB -->
     <g transform="translate(337.081141 304.736039)scale(0.12 -0.12)">
      <defs>
       <path d="M 9.8125 72.90625 
L 19.671875 72.90625 
L 19.671875 0 
L 9.8125 0 
z
" id="DejaVuSans-73"/>
       <path d="M 9.8125 72.90625 
L 19.671875 72.90625 
L 19.671875 42.09375 
L 52.390625 72.90625 
L 65.09375 72.90625 
L 28.90625 38.921875 
L 67.671875 0 
L 54.6875 0 
L 19.671875 35.109375 
L 19.671875 0 
L 9.8125 0 
z
" id="DejaVuSans-75"/>
       <path d="M 19.671875 34.8125 
L 19.671875 8.109375 
L 35.5 8.109375 
Q 43.453125 8.109375 47.28125 11.40625 
Q 51.125 14.703125 51.125 21.484375 
Q 51.125 28.328125 47.28125 31.5625 
Q 43.453125 34.8125 35.5 34.8125 
z
M 19.671875 64.796875 
L 19.671875 42.828125 
L 34.28125 42.828125 
Q 41.5 42.828125 45.03125 45.53125 
Q 48.578125 48.25 48.578125 53.8125 
Q 48.578125 59.328125 45.03125 62.0625 
Q 41.5 64.796875 34.28125 64.796875 
z
M 9.8125 72.90625 
L 35.015625 72.90625 
Q 46.296875 72.90625 52.390625 68.21875 
Q 58.5 63.53125 58.5 54.890625 
Q 58.5 48.1875 55.375 44.234375 
Q 52.25 40.28125 46.1875 39.3125 
Q 53.46875 37.75 57.5 32.78125 
Q 61.53125 27.828125 61.53125 20.40625 
Q 61.53125 10.640625 54.890625 5.3125 
Q 48.25 0 35.984375 0 
L 9.8125 0 
z
" id="DejaVuSans-66"/>
      </defs>
      <use xlink:href="#DejaVuSans-73"/>
      <use x="29.492188" xlink:href="#DejaVuSans-75"/>
      <use x="95.068359" xlink:href="#DejaVuSans-66"/>
      <use x="163.671875" xlink:href="#DejaVuSans-75"/>
      <use x="229.248047" xlink:href="#DejaVuSans-66"/>
     </g>
    </g>
   </g>
   <g id="text_3">
    <g clip-path="url(#pbee14eca76)">
     <!-- PTPN1 -->
     <g transform="translate(194.269152 376.270791)scale(0.12 -0.12)">
      <defs>
       <path d="M 19.671875 64.796875 
L 19.671875 37.40625 
L 32.078125 37.40625 
Q 38.96875 37.40625 42.71875 40.96875 
Q 46.484375 44.53125 46.484375 51.125 
Q 46.484375 57.671875 42.71875 61.234375 
Q 38.96875 64.796875 32.078125 64.796875 
z
M 9.8125 72.90625 
L 32.078125 72.90625 
Q 44.34375 72.90625 50.609375 67.359375 
Q 56.890625 61.8125 56.890625 51.125 
Q 56.890625 40.328125 50.609375 34.8125 
Q 44.34375 29.296875 32.078125 29.296875 
L 19.671875 29.296875 
L 19.671875 0 
L 9.8125 0 
z
" id="DejaVuSans-80"/>
       <path d="M 9.8125 72.90625 
L 23.09375 72.90625 
L 55.421875 11.921875 
L 55.421875 72.90625 
L 64.984375 72.90625 
L 64.984375 0 
L 51.703125 0 
L 19.390625 60.984375 
L 19.390625 0 
L 9.8125 0 
z
" id="DejaVuSans-78"/>
      </defs>
      <use xlink:href="#DejaVuSans-80"/>
      <use x="60.302734" xlink:href="#DejaVuSans-84"/>
      <use x="121.386719" xlink:href="#DejaVuSans-80"/>
      <use x="181.689453" xlink:href="#DejaVuSans-78"/>
      <use x="256.494141" xlink:href="#DejaVuSans-49"/>
     </g>
    </g>
   </g>
   <g id="text_4">
    <g clip-path="url(#pbee14eca76)">
     <!-- EIF4EBP1 -->
     <g transform="translate(509.780322 421.695265)scale(0.12 -0.12)">
      <defs>
       <path d="M 9.8125 72.90625 
L 55.90625 72.90625 
L 55.90625 64.59375 
L 19.671875 64.59375 
L 19.671875 43.015625 
L 54.390625 43.015625 
L 54.390625 34.71875 
L 19.671875 34.71875 
L 19.671875 8.296875 
L 56.78125 8.296875 
L 56.78125 0 
L 9.8125 0 
z
" id="DejaVuSans-69"/>
       <path d="M 9.8125 72.90625 
L 51.703125 72.90625 
L 51.703125 64.59375 
L 19.671875 64.59375 
L 19.671875 43.109375 
L 48.578125 43.109375 
L 48.578125 34.8125 
L 19.671875 34.8125 
L 19.671875 0 
L 9.8125 0 
z
" id="DejaVuSans-70"/>
       <path d="M 37.796875 64.3125 
L 12.890625 25.390625 
L 37.796875 25.390625 
z
M 35.203125 72.90625 
L 47.609375 72.90625 
L 47.609375 25.390625 
L 58.015625 25.390625 
L 58.015625 17.1875 
L 47.609375 17.1875 
L 47.609375 0 
L 37.796875 0 
L 37.796875 17.1875 
L 4.890625 17.1875 
L 4.890625 26.703125 
z
" id="DejaVuSans-52"/>
      </defs>
      <use xlink:href="#DejaVuSans-69"/>
      <use x="63.183594" xlink:href="#DejaVuSans-73"/>
      <use x="92.675781" xlink:href="#DejaVuSans-70"/>
      <use x="150.195312" xlink:href="#DejaVuSans-52"/>
      <use x="213.818359" xlink:href="#DejaVuSans-69"/>
      <use x="277.001953" xlink:href="#DejaVuSans-66"/>
      <use x="345.605469" xlink:href="#DejaVuSans-80"/>
      <use x="405.908203" xlink:href="#DejaVuSans-49"/>
     </g>
    </g>
   </g>
   <g id="text_5">
    <g clip-path="url(#pbee14eca76)">
     <!-- EIF4E -->
     <g transform="translate(639.657866 419.640816)scale(0.12 -0.12)">
      <use xlink:href="#DejaVuSans-69"/>
      <use x="63.183594" xlink:href="#DejaVuSans-73"/>
      <use x="92.675781" xlink:href="#DejaVuSans-70"/>
      <use x="150.195312" xlink:href="#DejaVuSans-52"/>
      <use x="213.818359" xlink:href="#DejaVuSans-69"/>
     </g>
    </g>
   </g>
   <g id="text_6">
    <g clip-path="url(#pbee14eca76)">
     <!-- GRB2 -->
     <g transform="translate(149.353598 266.707328)scale(0.12 -0.12)">
      <defs>
       <path d="M 59.515625 10.40625 
L 59.515625 29.984375 
L 43.40625 29.984375 
L 43.40625 38.09375 
L 69.28125 38.09375 
L 69.28125 6.78125 
Q 63.578125 2.734375 56.6875 0.65625 
Q 49.8125 -1.421875 42 -1.421875 
Q 24.90625 -1.421875 15.25 8.5625 
Q 5.609375 18.5625 5.609375 36.375 
Q 5.609375 54.25 15.25 64.234375 
Q 24.90625 74.21875 42 74.21875 
Q 49.125 74.21875 55.546875 72.453125 
Q 61.96875 70.703125 67.390625 67.28125 
L 67.390625 56.78125 
Q 61.921875 61.421875 55.765625 63.765625 
Q 49.609375 66.109375 42.828125 66.109375 
Q 29.4375 66.109375 22.71875 58.640625 
Q 16.015625 51.171875 16.015625 36.375 
Q 16.015625 21.625 22.71875 14.15625 
Q 29.4375 6.6875 42.828125 6.6875 
Q 48.046875 6.6875 52.140625 7.59375 
Q 56.25 8.5 59.515625 10.40625 
z
" id="DejaVuSans-71"/>
       <path d="M 44.390625 34.1875 
Q 47.5625 33.109375 50.5625 29.59375 
Q 53.5625 26.078125 56.59375 19.921875 
L 66.609375 0 
L 56 0 
L 46.6875 18.703125 
Q 43.0625 26.03125 39.671875 28.421875 
Q 36.28125 30.8125 30.421875 30.8125 
L 19.671875 30.8125 
L 19.671875 0 
L 9.8125 0 
L 9.8125 72.90625 
L 32.078125 72.90625 
Q 44.578125 72.90625 50.734375 67.671875 
Q 56.890625 62.453125 56.890625 51.90625 
Q 56.890625 45.015625 53.6875 40.46875 
Q 50.484375 35.9375 44.390625 34.1875 
z
M 19.671875 64.796875 
L 19.671875 38.921875 
L 32.078125 38.921875 
Q 39.203125 38.921875 42.84375 42.21875 
Q 46.484375 45.515625 46.484375 51.90625 
Q 46.484375 58.296875 42.84375 61.546875 
Q 39.203125 64.796875 32.078125 64.796875 
z
" id="DejaVuSans-82"/>
       <path d="M 19.1875 8.296875 
L 53.609375 8.296875 
L 53.609375 0 
L 7.328125 0 
L 7.328125 8.296875 
Q 12.9375 14.109375 22.625 23.890625 
Q 32.328125 33.6875 34.8125 36.53125 
Q 39.546875 41.84375 41.421875 45.53125 
Q 43.3125 49.21875 43.3125 52.78125 
Q 43.3125 58.59375 39.234375 62.25 
Q 35.15625 65.921875 28.609375 65.921875 
Q 23.96875 65.921875 18.8125 64.3125 
Q 13.671875 62.703125 7.8125 59.421875 
L 7.8125 69.390625 
Q 13.765625 71.78125 18.9375 73 
Q 24.125 74.21875 28.421875 74.21875 
Q 39.75 74.21875 46.484375 68.546875 
Q 53.21875 62.890625 53.21875 53.421875 
Q 53.21875 48.921875 51.53125 44.890625 
Q 49.859375 40.875 45.40625 35.40625 
Q 44.1875 33.984375 37.640625 27.21875 
Q 31.109375 20.453125 19.1875 8.296875 
z
" id="DejaVuSans-50"/>
      </defs>
      <use xlink:href="#DejaVuSans-71"/>
      <use x="77.490234" xlink:href="#DejaVuSans-82"/>
      <use x="146.972656" xlink:href="#DejaVuSans-66"/>
      <use x="215.576172" xlink:href="#DejaVuSans-50"/>
     </g>
    </g>
   </g>
   <g id="text_7">
    <g clip-path="url(#pbee14eca76)">
     <!-- TSC2 -->
     <g transform="translate(253.084351 297.391602)scale(0.12 -0.12)">
      <use xlink:href="#DejaVuSans-84"/>
      <use x="61.083984" xlink:href="#DejaVuSans-83"/>
      <use x="124.560547" xlink:href="#DejaVuSans-67"/>
      <use x="194.384766" xlink:href="#DejaVuSans-50"/>
     </g>
    </g>
   </g>
   <g id="text_8">
    <g clip-path="url(#pbee14eca76)">
     <!-- MTOR -->
     <g transform="translate(421.427733 325.21459)scale(0.12 -0.12)">
      <defs>
       <path d="M 9.8125 72.90625 
L 24.515625 72.90625 
L 43.109375 23.296875 
L 61.8125 72.90625 
L 76.515625 72.90625 
L 76.515625 0 
L 66.890625 0 
L 66.890625 64.015625 
L 48.09375 14.015625 
L 38.1875 14.015625 
L 19.390625 64.015625 
L 19.390625 0 
L 9.8125 0 
z
" id="DejaVuSans-77"/>
       <path d="M 39.40625 66.21875 
Q 28.65625 66.21875 22.328125 58.203125 
Q 16.015625 50.203125 16.015625 36.375 
Q 16.015625 22.609375 22.328125 14.59375 
Q 28.65625 6.59375 39.40625 6.59375 
Q 50.140625 6.59375 56.421875 14.59375 
Q 62.703125 22.609375 62.703125 36.375 
Q 62.703125 50.203125 56.421875 58.203125 
Q 50.140625 66.21875 39.40625 66.21875 
z
M 39.40625 74.21875 
Q 54.734375 74.21875 63.90625 63.9375 
Q 73.09375 53.65625 73.09375 36.375 
Q 73.09375 19.140625 63.90625 8.859375 
Q 54.734375 -1.421875 39.40625 -1.421875 
Q 24.03125 -1.421875 14.8125 8.828125 
Q 5.609375 19.09375 5.609375 36.375 
Q 5.609375 53.65625 14.8125 63.9375 
Q 24.03125 74.21875 39.40625 74.21875 
z
" id="DejaVuSans-79"/>
      </defs>
      <use xlink:href="#DejaVuSans-77"/>
      <use x="86.279297" xlink:href="#DejaVuSans-84"/>
      <use x="147.363281" xlink:href="#DejaVuSans-79"/>
      <use x="226.074219" xlink:href="#DejaVuSans-82"/>
     </g>
    </g>
   </g>
   <g id="text_9">
    <g clip-path="url(#pbee14eca76)">
     <!-- EXOC7 -->
     <g transform="translate(592.66724 362.948943)scale(0.12 -0.12)">
      <defs>
       <path d="M 6.296875 72.90625 
L 16.890625 72.90625 
L 35.015625 45.796875 
L 53.21875 72.90625 
L 63.8125 72.90625 
L 40.375 37.890625 
L 65.375 0 
L 54.78125 0 
L 34.28125 31 
L 13.625 0 
L 2.984375 0 
L 29 38.921875 
z
" id="DejaVuSans-88"/>
       <path d="M 8.203125 72.90625 
L 55.078125 72.90625 
L 55.078125 68.703125 
L 28.609375 0 
L 18.3125 0 
L 43.21875 64.59375 
L 8.203125 64.59375 
z
" id="DejaVuSans-55"/>
      </defs>
      <use xlink:href="#DejaVuSans-69"/>
      <use x="63.183594" xlink:href="#DejaVuSans-88"/>
      <use x="125.314453" xlink:href="#DejaVuSans-79"/>
      <use x="204.025391" xlink:href="#DejaVuSans-67"/>
      <use x="273.849609" xlink:href="#DejaVuSans-55"/>
     </g>
    </g>
   </g>
   <g id="text_10">
    <g clip-path="url(#pbee14eca76)">
     <!-- RHEB -->
     <g transform="translate(353.198997 272.948031)scale(0.12 -0.12)">
      <defs>
       <path d="M 9.8125 72.90625 
L 19.671875 72.90625 
L 19.671875 43.015625 
L 55.515625 43.015625 
L 55.515625 72.90625 
L 65.375 72.90625 
L 65.375 0 
L 55.515625 0 
L 55.515625 34.71875 
L 19.671875 34.71875 
L 19.671875 0 
L 9.8125 0 
z
" id="DejaVuSans-72"/>
      </defs>
      <use xlink:href="#DejaVuSans-82"/>
      <use x="69.482422" xlink:href="#DejaVuSans-72"/>
      <use x="144.677734" xlink:href="#DejaVuSans-69"/>
      <use x="207.861328" xlink:href="#DejaVuSans-66"/>
     </g>
    </g>
   </g>
   <g id="text_11">
    <g clip-path="url(#pbee14eca76)">
     <!-- RHOQ -->
     <g transform="translate(687.475824 339.641765)scale(0.12 -0.12)">
      <defs>
       <path d="M 39.40625 66.21875 
Q 28.65625 66.21875 22.328125 58.203125 
Q 16.015625 50.203125 16.015625 36.375 
Q 16.015625 22.609375 22.328125 14.59375 
Q 28.65625 6.59375 39.40625 6.59375 
Q 50.140625 6.59375 56.421875 14.59375 
Q 62.703125 22.609375 62.703125 36.375 
Q 62.703125 50.203125 56.421875 58.203125 
Q 50.140625 66.21875 39.40625 66.21875 
z
M 53.21875 1.3125 
L 66.21875 -12.890625 
L 54.296875 -12.890625 
L 43.5 -1.21875 
Q 41.890625 -1.3125 41.03125 -1.359375 
Q 40.1875 -1.421875 39.40625 -1.421875 
Q 24.03125 -1.421875 14.8125 8.859375 
Q 5.609375 19.140625 5.609375 36.375 
Q 5.609375 53.65625 14.8125 63.9375 
Q 24.03125 74.21875 39.40625 74.21875 
Q 54.734375 74.21875 63.90625 63.9375 
Q 73.09375 53.65625 73.09375 36.375 
Q 73.09375 23.6875 67.984375 14.640625 
Q 62.890625 5.609375 53.21875 1.3125 
z
" id="DejaVuSans-81"/>
      </defs>
      <use xlink:href="#DejaVuSans-82"/>
      <use x="69.482422" xlink:href="#DejaVuSans-72"/>
      <use x="144.677734" xlink:href="#DejaVuSans-79"/>
      <use x="223.388672" xlink:href="#DejaVuSans-81"/>
     </g>
    </g>
   </g>
   <g id="text_12">
    <g clip-path="url(#pbee14eca76)">
     <!-- RAPGEF1 -->
     <g transform="translate(465.966963 222.890477)scale(0.12 -0.12)">
      <defs>
       <path d="M 34.1875 63.1875 
L 20.796875 26.90625 
L 47.609375 26.90625 
z
M 28.609375 72.90625 
L 39.796875 72.90625 
L 67.578125 0 
L 57.328125 0 
L 50.6875 18.703125 
L 17.828125 18.703125 
L 11.1875 0 
L 0.78125 0 
z
" id="DejaVuSans-65"/>
      </defs>
      <use xlink:href="#DejaVuSans-82"/>
      <use x="65.482422" xlink:href="#DejaVuSans-65"/>
      <use x="133.890625" xlink:href="#DejaVuSans-80"/>
      <use x="194.193359" xlink:href="#DejaVuSans-71"/>
      <use x="271.683594" xlink:href="#DejaVuSans-69"/>
      <use x="334.867188" xlink:href="#DejaVuSans-70"/>
      <use x="392.386719" xlink:href="#DejaVuSans-49"/>
     </g>
    </g>
   </g>
   <g id="text_13">
    <g clip-path="url(#pbee14eca76)">
     <!-- CRK -->
     <g transform="translate(572.668557 266.390093)scale(0.12 -0.12)">
      <use xlink:href="#DejaVuSans-67"/>
      <use x="69.824219" xlink:href="#DejaVuSans-82"/>
      <use x="139.306641" xlink:href="#DejaVuSans-75"/>
     </g>
    </g>
   </g>
   <g id="text_14">
    <g clip-path="url(#pbee14eca76)">
     <!-- PDPK1 -->
     <g transform="translate(454.814039 376.148248)scale(0.12 -0.12)">
      <defs>
       <path d="M 19.671875 64.796875 
L 19.671875 8.109375 
L 31.59375 8.109375 
Q 46.6875 8.109375 53.6875 14.9375 
Q 60.6875 21.78125 60.6875 36.53125 
Q 60.6875 51.171875 53.6875 57.984375 
Q 46.6875 64.796875 31.59375 64.796875 
z
M 9.8125 72.90625 
L 30.078125 72.90625 
Q 51.265625 72.90625 61.171875 64.09375 
Q 71.09375 55.28125 71.09375 36.53125 
Q 71.09375 17.671875 61.125 8.828125 
Q 51.171875 0 30.078125 0 
L 9.8125 0 
z
" id="DejaVuSans-68"/>
      </defs>
      <use xlink:href="#DejaVuSans-80"/>
      <use x="60.302734" xlink:href="#DejaVuSans-68"/>
      <use x="137.304688" xlink:href="#DejaVuSans-80"/>
      <use x="197.607422" xlink:href="#DejaVuSans-75"/>
      <use x="263.183594" xlink:href="#DejaVuSans-49"/>
     </g>
    </g>
   </g>
   <g id="text_15">
    <g clip-path="url(#pbee14eca76)">
     <!-- HRAS -->
     <g transform="translate(582.385774 142.342832)scale(0.12 -0.12)">
      <use xlink:href="#DejaVuSans-72"/>
      <use x="75.195312" xlink:href="#DejaVuSans-82"/>
      <use x="140.677734" xlink:href="#DejaVuSans-65"/>
      <use x="209.085938" xlink:href="#DejaVuSans-83"/>
     </g>
    </g>
   </g>
   <g id="text_16">
    <g clip-path="url(#pbee14eca76)">
     <!-- KRAS -->
     <g transform="translate(539.584941 205.965428)scale(0.12 -0.12)">
      <use xlink:href="#DejaVuSans-75"/>
      <use x="65.576172" xlink:href="#DejaVuSans-82"/>
      <use x="131.058594" xlink:href="#DejaVuSans-65"/>
      <use x="199.466797" xlink:href="#DejaVuSans-83"/>
     </g>
    </g>
   </g>
   <g id="text_17">
    <g clip-path="url(#pbee14eca76)">
     <!-- NRAS -->
     <g transform="translate(576.155702 189.62804)scale(0.12 -0.12)">
      <use xlink:href="#DejaVuSans-78"/>
      <use x="74.804688" xlink:href="#DejaVuSans-82"/>
      <use x="140.287109" xlink:href="#DejaVuSans-65"/>
      <use x="208.695312" xlink:href="#DejaVuSans-83"/>
     </g>
    </g>
   </g>
   <g id="text_18">
    <g clip-path="url(#pbee14eca76)">
     <!-- MAP2K1 -->
     <g transform="translate(695.025465 216.635047)scale(0.12 -0.12)">
      <use xlink:href="#DejaVuSans-77"/>
      <use x="86.279297" xlink:href="#DejaVuSans-65"/>
      <use x="154.6875" xlink:href="#DejaVuSans-80"/>
      <use x="214.990234" xlink:href="#DejaVuSans-50"/>
      <use x="278.613281" xlink:href="#DejaVuSans-75"/>
      <use x="344.189453" xlink:href="#DejaVuSans-49"/>
     </g>
    </g>
   </g>
   <g id="text_19">
    <g clip-path="url(#pbee14eca76)">
     <!-- MAP2K2 -->
     <g transform="translate(600.244144 110.918523)scale(0.12 -0.12)">
      <use xlink:href="#DejaVuSans-77"/>
      <use x="86.279297" xlink:href="#DejaVuSans-65"/>
      <use x="154.6875" xlink:href="#DejaVuSans-80"/>
      <use x="214.990234" xlink:href="#DejaVuSans-50"/>
      <use x="278.613281" xlink:href="#DejaVuSans-75"/>
      <use x="344.189453" xlink:href="#DejaVuSans-50"/>
     </g>
    </g>
   </g>
   <g id="text_20">
    <g clip-path="url(#pbee14eca76)">
     <!-- SHC1 -->
     <g transform="translate(219.189106 215.824449)scale(0.12 -0.12)">
      <use xlink:href="#DejaVuSans-83"/>
      <use x="63.476562" xlink:href="#DejaVuSans-72"/>
      <use x="138.671875" xlink:href="#DejaVuSans-67"/>
      <use x="208.496094" xlink:href="#DejaVuSans-49"/>
     </g>
    </g>
   </g>
   <g id="text_21">
    <g clip-path="url(#pbee14eca76)">
     <!-- BRAF -->
     <g transform="translate(619.553104 144.077119)scale(0.12 -0.12)">
      <use xlink:href="#DejaVuSans-66"/>
      <use x="68.603516" xlink:href="#DejaVuSans-82"/>
      <use x="134.085938" xlink:href="#DejaVuSans-65"/>
      <use x="202.494141" xlink:href="#DejaVuSans-70"/>
     </g>
    </g>
   </g>
   <g id="text_22">
    <g clip-path="url(#pbee14eca76)">
     <!-- RAF1 -->
     <g transform="translate(657.828641 186.304484)scale(0.12 -0.12)">
      <use xlink:href="#DejaVuSans-82"/>
      <use x="65.482422" xlink:href="#DejaVuSans-65"/>
      <use x="133.890625" xlink:href="#DejaVuSans-70"/>
      <use x="191.410156" xlink:href="#DejaVuSans-49"/>
     </g>
    </g>
   </g>
   <g id="text_23">
    <g clip-path="url(#pbee14eca76)">
     <!-- ARAF -->
     <g transform="translate(528.806039 174.683302)scale(0.12 -0.12)">
      <use xlink:href="#DejaVuSans-65"/>
      <use x="68.408203" xlink:href="#DejaVuSans-82"/>
      <use x="133.890625" xlink:href="#DejaVuSans-65"/>
      <use x="202.298828" xlink:href="#DejaVuSans-70"/>
     </g>
    </g>
   </g>
   <g id="text_24">
    <g clip-path="url(#pbee14eca76)">
     <!-- PRKCZ -->
     <g transform="translate(555.048268 454.415428)scale(0.12 -0.12)">
      <defs>
       <path d="M 5.609375 72.90625 
L 62.890625 72.90625 
L 62.890625 65.375 
L 16.796875 8.296875 
L 64.015625 8.296875 
L 64.015625 0 
L 4.5 0 
L 4.5 7.515625 
L 50.59375 64.59375 
L 5.609375 64.59375 
z
" id="DejaVuSans-90"/>
      </defs>
      <use xlink:href="#DejaVuSans-80"/>
      <use x="60.302734" xlink:href="#DejaVuSans-82"/>
      <use x="129.785156" xlink:href="#DejaVuSans-75"/>
      <use x="189.861328" xlink:href="#DejaVuSans-67"/>
      <use x="259.685547" xlink:href="#DejaVuSans-90"/>
     </g>
    </g>
   </g>
   <g id="text_25">
    <g clip-path="url(#pbee14eca76)">
     <!-- PRKCI -->
     <g transform="translate(452.637186 477.463977)scale(0.12 -0.12)">
      <use xlink:href="#DejaVuSans-80"/>
      <use x="60.302734" xlink:href="#DejaVuSans-82"/>
      <use x="129.785156" xlink:href="#DejaVuSans-75"/>
      <use x="189.861328" xlink:href="#DejaVuSans-67"/>
      <use x="259.685547" xlink:href="#DejaVuSans-73"/>
     </g>
    </g>
   </g>
   <g id="text_26">
    <g clip-path="url(#pbee14eca76)">
     <!-- CBL -->
     <g transform="translate(185.852651 168.249334)scale(0.12 -0.12)">
      <defs>
       <path d="M 9.8125 72.90625 
L 19.671875 72.90625 
L 19.671875 8.296875 
L 55.171875 8.296875 
L 55.171875 0 
L 9.8125 0 
z
" id="DejaVuSans-76"/>
      </defs>
      <use xlink:href="#DejaVuSans-67"/>
      <use x="69.824219" xlink:href="#DejaVuSans-66"/>
      <use x="138.427734" xlink:href="#DejaVuSans-76"/>
     </g>
    </g>
   </g>
   <g id="text_27">
    <g clip-path="url(#pbee14eca76)">
     <!-- CBLB -->
     <g transform="translate(664.376258 158.8736)scale(0.12 -0.12)">
      <use xlink:href="#DejaVuSans-67"/>
      <use x="69.824219" xlink:href="#DejaVuSans-66"/>
      <use x="138.427734" xlink:href="#DejaVuSans-76"/>
      <use x="194.140625" xlink:href="#DejaVuSans-66"/>
     </g>
    </g>
   </g>
   <g id="text_28">
    <g clip-path="url(#pbee14eca76)">
     <!-- IRS2 -->
     <g transform="translate(156.303244 310.189016)scale(0.12 -0.12)">
      <use xlink:href="#DejaVuSans-73"/>
      <use x="29.492188" xlink:href="#DejaVuSans-82"/>
      <use x="98.974609" xlink:href="#DejaVuSans-83"/>
      <use x="162.451172" xlink:href="#DejaVuSans-50"/>
     </g>
    </g>
   </g>
   <g id="text_29">
    <!-- Frame: 11 -->
    <g transform="translate(121.392 91.296)scale(0.1 -0.1)">
     <defs>
      <path d="M 41.109375 46.296875 
Q 39.59375 47.171875 37.8125 47.578125 
Q 36.03125 48 33.890625 48 
Q 26.265625 48 22.1875 43.046875 
Q 18.109375 38.09375 18.109375 28.8125 
L 18.109375 0 
L 9.078125 0 
L 9.078125 54.6875 
L 18.109375 54.6875 
L 18.109375 46.1875 
Q 20.953125 51.171875 25.484375 53.578125 
Q 30.03125 56 36.53125 56 
Q 37.453125 56 38.578125 55.875 
Q 39.703125 55.765625 41.0625 55.515625 
z
" id="DejaVuSans-114"/>
      <path d="M 34.28125 27.484375 
Q 23.390625 27.484375 19.1875 25 
Q 14.984375 22.515625 14.984375 16.5 
Q 14.984375 11.71875 18.140625 8.90625 
Q 21.296875 6.109375 26.703125 6.109375 
Q 34.1875 6.109375 38.703125 11.40625 
Q 43.21875 16.703125 43.21875 25.484375 
L 43.21875 27.484375 
z
M 52.203125 31.203125 
L 52.203125 0 
L 43.21875 0 
L 43.21875 8.296875 
Q 40.140625 3.328125 35.546875 0.953125 
Q 30.953125 -1.421875 24.3125 -1.421875 
Q 15.921875 -1.421875 10.953125 3.296875 
Q 6 8.015625 6 15.921875 
Q 6 25.140625 12.171875 29.828125 
Q 18.359375 34.515625 30.609375 34.515625 
L 43.21875 34.515625 
L 43.21875 35.40625 
Q 43.21875 41.609375 39.140625 45 
Q 35.0625 48.390625 27.6875 48.390625 
Q 23 48.390625 18.546875 47.265625 
Q 14.109375 46.140625 10.015625 43.890625 
L 10.015625 52.203125 
Q 14.9375 54.109375 19.578125 55.046875 
Q 24.21875 56 28.609375 56 
Q 40.484375 56 46.34375 49.84375 
Q 52.203125 43.703125 52.203125 31.203125 
z
" id="DejaVuSans-97"/>
      <path d="M 52 44.1875 
Q 55.375 50.25 60.0625 53.125 
Q 64.75 56 71.09375 56 
Q 79.640625 56 84.28125 50.015625 
Q 88.921875 44.046875 88.921875 33.015625 
L 88.921875 0 
L 79.890625 0 
L 79.890625 32.71875 
Q 79.890625 40.578125 77.09375 44.375 
Q 74.3125 48.1875 68.609375 48.1875 
Q 61.625 48.1875 57.5625 43.546875 
Q 53.515625 38.921875 53.515625 30.90625 
L 53.515625 0 
L 44.484375 0 
L 44.484375 32.71875 
Q 44.484375 40.625 41.703125 44.40625 
Q 38.921875 48.1875 33.109375 48.1875 
Q 26.21875 48.1875 22.15625 43.53125 
Q 18.109375 38.875 18.109375 30.90625 
L 18.109375 0 
L 9.078125 0 
L 9.078125 54.6875 
L 18.109375 54.6875 
L 18.109375 46.1875 
Q 21.1875 51.21875 25.484375 53.609375 
Q 29.78125 56 35.6875 56 
Q 41.65625 56 45.828125 52.96875 
Q 50 49.953125 52 44.1875 
z
" id="DejaVuSans-109"/>
      <path d="M 56.203125 29.59375 
L 56.203125 25.203125 
L 14.890625 25.203125 
Q 15.484375 15.921875 20.484375 11.0625 
Q 25.484375 6.203125 34.421875 6.203125 
Q 39.59375 6.203125 44.453125 7.46875 
Q 49.3125 8.734375 54.109375 11.28125 
L 54.109375 2.78125 
Q 49.265625 0.734375 44.1875 -0.34375 
Q 39.109375 -1.421875 33.890625 -1.421875 
Q 20.796875 -1.421875 13.15625 6.1875 
Q 5.515625 13.8125 5.515625 26.8125 
Q 5.515625 40.234375 12.765625 48.109375 
Q 20.015625 56 32.328125 56 
Q 43.359375 56 49.78125 48.890625 
Q 56.203125 41.796875 56.203125 29.59375 
z
M 47.21875 32.234375 
Q 47.125 39.59375 43.09375 43.984375 
Q 39.0625 48.390625 32.421875 48.390625 
Q 24.90625 48.390625 20.390625 44.140625 
Q 15.875 39.890625 15.1875 32.171875 
z
" id="DejaVuSans-101"/>
      <path d="M 11.71875 12.40625 
L 22.015625 12.40625 
L 22.015625 0 
L 11.71875 0 
z
M 11.71875 51.703125 
L 22.015625 51.703125 
L 22.015625 39.3125 
L 11.71875 39.3125 
z
" id="DejaVuSans-58"/>
      <path id="DejaVuSans-32"/>
     </defs>
     <use xlink:href="#DejaVuSans-70"/>
     <use x="50.269531" xlink:href="#DejaVuSans-114"/>
     <use x="91.382812" xlink:href="#DejaVuSans-97"/>
     <use x="152.662109" xlink:href="#DejaVuSans-109"/>
     <use x="250.074219" xlink:href="#DejaVuSans-101"/>
     <use x="311.597656" xlink:href="#DejaVuSans-58"/>
     <use x="345.289062" xlink:href="#DejaVuSans-32"/>
     <use x="377.076172" xlink:href="#DejaVuSans-49"/>
     <use x="440.699219" xlink:href="#DejaVuSans-49"/>
    </g>
   </g>
   <g id="text_30">
    <!-- Network: hsa04910 -->
    <g transform="translate(384.1275 63.12)scale(0.12 -0.12)">
     <defs>
      <path d="M 18.3125 70.21875 
L 18.3125 54.6875 
L 36.8125 54.6875 
L 36.8125 47.703125 
L 18.3125 47.703125 
L 18.3125 18.015625 
Q 18.3125 11.328125 20.140625 9.421875 
Q 21.96875 7.515625 27.59375 7.515625 
L 36.8125 7.515625 
L 36.8125 0 
L 27.59375 0 
Q 17.1875 0 13.234375 3.875 
Q 9.28125 7.765625 9.28125 18.015625 
L 9.28125 47.703125 
L 2.6875 47.703125 
L 2.6875 54.6875 
L 9.28125 54.6875 
L 9.28125 70.21875 
z
" id="DejaVuSans-116"/>
      <path d="M 4.203125 54.6875 
L 13.1875 54.6875 
L 24.421875 12.015625 
L 35.59375 54.6875 
L 46.1875 54.6875 
L 57.421875 12.015625 
L 68.609375 54.6875 
L 77.59375 54.6875 
L 63.28125 0 
L 52.6875 0 
L 40.921875 44.828125 
L 29.109375 0 
L 18.5 0 
z
" id="DejaVuSans-119"/>
      <path d="M 30.609375 48.390625 
Q 23.390625 48.390625 19.1875 42.75 
Q 14.984375 37.109375 14.984375 27.296875 
Q 14.984375 17.484375 19.15625 11.84375 
Q 23.34375 6.203125 30.609375 6.203125 
Q 37.796875 6.203125 41.984375 11.859375 
Q 46.1875 17.53125 46.1875 27.296875 
Q 46.1875 37.015625 41.984375 42.703125 
Q 37.796875 48.390625 30.609375 48.390625 
z
M 30.609375 56 
Q 42.328125 56 49.015625 48.375 
Q 55.71875 40.765625 55.71875 27.296875 
Q 55.71875 13.875 49.015625 6.21875 
Q 42.328125 -1.421875 30.609375 -1.421875 
Q 18.84375 -1.421875 12.171875 6.21875 
Q 5.515625 13.875 5.515625 27.296875 
Q 5.515625 40.765625 12.171875 48.375 
Q 18.84375 56 30.609375 56 
z
" id="DejaVuSans-111"/>
      <path d="M 9.078125 75.984375 
L 18.109375 75.984375 
L 18.109375 31.109375 
L 44.921875 54.6875 
L 56.390625 54.6875 
L 27.390625 29.109375 
L 57.625 0 
L 45.90625 0 
L 18.109375 26.703125 
L 18.109375 0 
L 9.078125 0 
z
" id="DejaVuSans-107"/>
      <path d="M 54.890625 33.015625 
L 54.890625 0 
L 45.90625 0 
L 45.90625 32.71875 
Q 45.90625 40.484375 42.875 44.328125 
Q 39.84375 48.1875 33.796875 48.1875 
Q 26.515625 48.1875 22.3125 43.546875 
Q 18.109375 38.921875 18.109375 30.90625 
L 18.109375 0 
L 9.078125 0 
L 9.078125 75.984375 
L 18.109375 75.984375 
L 18.109375 46.1875 
Q 21.34375 51.125 25.703125 53.5625 
Q 30.078125 56 35.796875 56 
Q 45.21875 56 50.046875 50.171875 
Q 54.890625 44.34375 54.890625 33.015625 
z
" id="DejaVuSans-104"/>
      <path d="M 44.28125 53.078125 
L 44.28125 44.578125 
Q 40.484375 46.53125 36.375 47.5 
Q 32.28125 48.484375 27.875 48.484375 
Q 21.1875 48.484375 17.84375 46.4375 
Q 14.5 44.390625 14.5 40.28125 
Q 14.5 37.15625 16.890625 35.375 
Q 19.28125 33.59375 26.515625 31.984375 
L 29.59375 31.296875 
Q 39.15625 29.25 43.1875 25.515625 
Q 47.21875 21.78125 47.21875 15.09375 
Q 47.21875 7.46875 41.1875 3.015625 
Q 35.15625 -1.421875 24.609375 -1.421875 
Q 20.21875 -1.421875 15.453125 -0.5625 
Q 10.6875 0.296875 5.421875 2 
L 5.421875 11.28125 
Q 10.40625 8.6875 15.234375 7.390625 
Q 20.0625 6.109375 24.8125 6.109375 
Q 31.15625 6.109375 34.5625 8.28125 
Q 37.984375 10.453125 37.984375 14.40625 
Q 37.984375 18.0625 35.515625 20.015625 
Q 33.0625 21.96875 24.703125 23.78125 
L 21.578125 24.515625 
Q 13.234375 26.265625 9.515625 29.90625 
Q 5.8125 33.546875 5.8125 39.890625 
Q 5.8125 47.609375 11.28125 51.796875 
Q 16.75 56 26.8125 56 
Q 31.78125 56 36.171875 55.265625 
Q 40.578125 54.546875 44.28125 53.078125 
z
" id="DejaVuSans-115"/>
      <path d="M 31.78125 66.40625 
Q 24.171875 66.40625 20.328125 58.90625 
Q 16.5 51.421875 16.5 36.375 
Q 16.5 21.390625 20.328125 13.890625 
Q 24.171875 6.390625 31.78125 6.390625 
Q 39.453125 6.390625 43.28125 13.890625 
Q 47.125 21.390625 47.125 36.375 
Q 47.125 51.421875 43.28125 58.90625 
Q 39.453125 66.40625 31.78125 66.40625 
z
M 31.78125 74.21875 
Q 44.046875 74.21875 50.515625 64.515625 
Q 56.984375 54.828125 56.984375 36.375 
Q 56.984375 17.96875 50.515625 8.265625 
Q 44.046875 -1.421875 31.78125 -1.421875 
Q 19.53125 -1.421875 13.0625 8.265625 
Q 6.59375 17.96875 6.59375 36.375 
Q 6.59375 54.828125 13.0625 64.515625 
Q 19.53125 74.21875 31.78125 74.21875 
z
" id="DejaVuSans-48"/>
      <path d="M 10.984375 1.515625 
L 10.984375 10.5 
Q 14.703125 8.734375 18.5 7.8125 
Q 22.3125 6.890625 25.984375 6.890625 
Q 35.75 6.890625 40.890625 13.453125 
Q 46.046875 20.015625 46.78125 33.40625 
Q 43.953125 29.203125 39.59375 26.953125 
Q 35.25 24.703125 29.984375 24.703125 
Q 19.046875 24.703125 12.671875 31.3125 
Q 6.296875 37.9375 6.296875 49.421875 
Q 6.296875 60.640625 12.9375 67.421875 
Q 19.578125 74.21875 30.609375 74.21875 
Q 43.265625 74.21875 49.921875 64.515625 
Q 56.59375 54.828125 56.59375 36.375 
Q 56.59375 19.140625 48.40625 8.859375 
Q 40.234375 -1.421875 26.421875 -1.421875 
Q 22.703125 -1.421875 18.890625 -0.6875 
Q 15.09375 0.046875 10.984375 1.515625 
z
M 30.609375 32.421875 
Q 37.25 32.421875 41.125 36.953125 
Q 45.015625 41.5 45.015625 49.421875 
Q 45.015625 57.28125 41.125 61.84375 
Q 37.25 66.40625 30.609375 66.40625 
Q 23.96875 66.40625 20.09375 61.84375 
Q 16.21875 57.28125 16.21875 49.421875 
Q 16.21875 41.5 20.09375 36.953125 
Q 23.96875 32.421875 30.609375 32.421875 
z
" id="DejaVuSans-57"/>
     </defs>
     <use xlink:href="#DejaVuSans-78"/>
     <use x="74.804688" xlink:href="#DejaVuSans-101"/>
     <use x="136.328125" xlink:href="#DejaVuSans-116"/>
     <use x="175.537109" xlink:href="#DejaVuSans-119"/>
     <use x="257.324219" xlink:href="#DejaVuSans-111"/>
     <use x="318.505859" xlink:href="#DejaVuSans-114"/>
     <use x="359.619141" xlink:href="#DejaVuSans-107"/>
     <use x="417.529297" xlink:href="#DejaVuSans-58"/>
     <use x="451.220703" xlink:href="#DejaVuSans-32"/>
     <use x="483.007812" xlink:href="#DejaVuSans-104"/>
     <use x="546.386719" xlink:href="#DejaVuSans-115"/>
     <use x="598.486328" xlink:href="#DejaVuSans-97"/>
     <use x="659.765625" xlink:href="#DejaVuSans-48"/>
     <use x="723.388672" xlink:href="#DejaVuSans-52"/>
     <use x="787.011719" xlink:href="#DejaVuSans-57"/>
     <use x="850.634766" xlink:href="#DejaVuSans-49"/>
     <use x="914.257812" xlink:href="#DejaVuSans-48"/>
    </g>
   </g>
  </g>
 </g>
 <defs>
  <clipPath id="pbee14eca76">
   <rect height="443.52" width="669.6" x="108" y="69.12"/>
  </clipPath>
 </defs>
</svg>
